<svg width="108" height="53" viewBox="0 0 108 53" fill="none" xmlns="http://www.w3.org/2000/svg">
<g clip-path="url(#clip0)">
<path d="M3.7 22.4998C3.4 22.4998 3.2 22.3998 3 22.2998C2.8 22.0998 2.7 21.8998 2.7 21.6998L0 5.6998C0 5.6998 0 5.5998 0 5.4998C0 5.3998 0.1 5.1998 0.1 5.1998C0.2 5.0998 0.3 4.9998 0.5 4.9998H3.8C4.3 4.9998 4.6 5.1998 4.6 5.5998L6.1 14.9998L7.8 9.4998C7.9 9.0998 8.2 8.79981 8.6 8.79981H10.5C10.9 8.79981 11.2 8.9998 11.3 9.4998L13 14.8998L14.6 5.4998C14.6 5.2998 14.7 5.1998 14.8 5.0998C14.9 4.9998 15.1 4.8998 15.4 4.8998H18.7C18.8 4.8998 19 4.9998 19.1 5.0998C19.2 5.2998 19.2 5.3998 19.2 5.4998V5.6998L16.5 21.6998C16.5 21.8998 16.4 22.0998 16.2 22.2998C16 22.3998 15.8 22.4998 15.5 22.4998H13C12.7 22.4998 12.5 22.3998 12.4 22.2998C12.3 22.1998 12.1 21.9998 12.1 21.8998L9.6 14.9998L7.1 21.8998C7 22.0998 6.9 22.1998 6.8 22.2998C6.7 22.3998 6.5 22.4998 6.2 22.4998H3.7ZM28.1 22.7998C26 22.7998 24.4 22.2998 23.2 21.2998C22.1 20.2998 21.5 18.8998 21.4 17.0998C21.4 16.8998 21.4 16.4998 21.4 15.9998C21.4 15.4998 21.4 15.0998 21.4 14.8998C21.5 13.0998 22.1 11.7998 23.3 10.7998C24.5 9.79981 26.1 9.29981 28.1 9.29981C30.1 9.29981 31.7 9.79981 32.9 10.7998C34.1 11.7998 34.7 13.1998 34.8 14.8998C34.8 15.2998 34.9 15.6998 34.9 15.9998C34.9 16.2998 34.9 16.6998 34.8 17.0998C34.7 18.8998 34.1 20.2998 33 21.2998C31.8 22.2998 30.2 22.7998 28.1 22.7998ZM28.1 19.5998C28.8 19.5998 29.3 19.3998 29.6 18.9998C29.9 18.5998 30.1 17.8998 30.2 16.9998C30.2 16.7998 30.2 16.4998 30.2 15.9998C30.2 15.4998 30.2 15.1998 30.2 14.9998C30.2 14.0998 30 13.4998 29.6 13.0998C29.3 12.6998 28.8 12.3998 28.1 12.3998C27.4 12.3998 26.9 12.5998 26.6 13.0998C26.3 13.4998 26.1 14.1998 26 14.9998V15.9998V16.9998C26.1 17.8998 26.2 18.4998 26.6 18.9998C26.9 19.3998 27.5 19.5998 28.1 19.5998ZM38.7 22.4998C38.5 22.4998 38.4 22.3998 38.3 22.2998C38.2 22.1998 38.1 21.9998 38.1 21.7998V10.0998C38.1 9.89981 38.2 9.7998 38.3 9.6998C38.4 9.5998 38.6 9.4998 38.7 9.4998H41.8C42 9.4998 42.1 9.5998 42.2 9.6998C42.3 9.7998 42.4 9.99981 42.4 10.0998V11.0998C42.9 10.5998 43.4 10.1998 44 9.8998C44.7 9.5998 45.4 9.4998 46.2 9.4998H47.3C47.5 9.4998 47.6 9.5998 47.7 9.6998C47.8 9.7998 47.9 9.99981 47.9 10.0998V12.7998C47.9 12.9998 47.8 13.0998 47.7 13.1998C47.6 13.2998 47.4 13.3998 47.3 13.3998H44.8C44.1 13.3998 43.6 13.5998 43.3 13.8998C42.9 14.2998 42.8 14.7998 42.8 15.4998V21.7998C42.8 21.9998 42.7 22.0998 42.6 22.2998C42.4 22.3998 42.2 22.4998 42 22.4998H38.7ZM51.2 22.4998C51 22.4998 50.9 22.3998 50.7 22.2998C50.6 22.1998 50.5 21.9998 50.5 21.7998V5.3998C50.5 5.1998 50.6 5.0998 50.7 4.9998C50.8 4.8998 51 4.7998 51.2 4.7998H54.2C54.4 4.7998 54.5 4.8998 54.7 4.9998C54.8 5.0998 54.9 5.2998 54.9 5.3998V13.7998L58.2 9.8998C58.2 9.8998 58.3 9.7998 58.4 9.6998C58.5 9.5998 58.6 9.5998 58.7 9.4998C58.7 9.4998 58.9 9.4998 59 9.4998H62.5C62.7 9.4998 62.8 9.5998 62.9 9.6998C63 9.7998 63.1 9.89981 63.1 10.0998C63.1 10.2998 63 10.3998 62.9 10.4998L58.5 15.2998L63.5 21.4998C63.6 21.6998 63.7 21.7998 63.7 21.8998C63.7 22.0998 63.6 22.1998 63.5 22.2998C63.4 22.4998 63.3 22.4998 63.1 22.4998H59.5C59.3 22.4998 59.1 22.4998 59 22.3998C58.9 22.2998 58.8 22.1998 58.6 22.0998L54.8 17.3998V21.8998C54.8 22.0998 54.7 22.1998 54.6 22.3998C54.5 22.3998 54.4 22.4998 54.2 22.4998H51.2ZM19.9 48.4998C19.7 48.4998 19.6 48.3998 19.5 48.2998C19.4 48.1998 19.3 47.9998 19.3 47.7998V31.5998C19.3 31.3998 19.4 31.2998 19.5 31.1998C19.6 31.0998 19.8 30.9998 19.9 30.9998H27C29.2 30.9998 30.9 31.4998 32.1 32.4998C33.3 33.4998 33.9 34.8998 33.9 36.7998C33.9 38.6998 33.3 40.0998 32.1 41.0998C30.9 41.9998 29.2 42.4998 27 42.4998H24.1V47.8998C24.1 48.0998 24 48.1998 23.9 48.3998C23.8 48.4998 23.6 48.5998 23.4 48.5998H19.9V48.4998ZM26.8 38.8998C27.5 38.8998 28 38.6998 28.4 38.3998C28.8 37.9998 29 37.4998 29 36.7998C29 36.0998 28.8 35.5998 28.5 35.1998C28.1 34.7998 27.6 34.5998 26.9 34.5998H24.1V38.8998H26.8ZM42.8 48.7998C40.8 48.7998 39.2 48.2998 38 47.1998C36.8 46.0998 36.2 44.4998 36.2 42.3998V41.5998C36.3 39.5998 36.9 38.0998 38 36.8998C39.2 35.7998 40.7 35.1998 42.7 35.1998C44.1 35.1998 45.3 35.4998 46.3 36.0998C47.3 36.6998 48 37.4998 48.5 38.4998C49 39.4998 49.3 40.5998 49.3 41.8998V42.4998C49.3 42.6998 49.2 42.7998 49.1 42.9998C49 43.0998 48.8 43.1998 48.6 43.1998H40.7V43.2998C40.7 44.0998 40.9 44.6998 41.2 45.0998C41.5 45.5998 42 45.7998 42.6 45.7998C43 45.7998 43.3 45.6998 43.6 45.5998C43.9 45.3998 44.1 45.1998 44.3 44.9998C44.4 44.7998 44.6 44.6998 44.6 44.6998C44.7 44.6998 44.9 44.5998 45.1 44.5998H48.4C48.6 44.5998 48.7 44.5998 48.8 44.7998C48.9 44.8998 49 44.9998 49 45.0998C49 45.4998 48.7 45.9998 48.2 46.5998C47.7 47.1998 47 47.6998 46 48.0998C45.2 48.4998 44.1 48.7998 42.8 48.7998ZM44.8 40.6998C44.8 39.7998 44.6 39.1998 44.3 38.7998C44 38.2998 43.5 38.0998 42.8 38.0998C42.2 38.0998 41.7 38.2998 41.3 38.7998C41 39.1998 40.8 39.7998 40.8 40.5998V40.6998H44.8ZM58.7 48.7998C56.6 48.7998 55 48.2998 53.8 47.2998C52.7 46.2998 52.1 44.8998 52 43.0998C52 42.8998 52 42.4998 52 41.9998C52 41.4998 52 41.0998 52 40.8998C52.1 39.0998 52.7 37.7998 53.9 36.7998C55.1 35.7998 56.7 35.2998 58.7 35.2998C60.7 35.2998 62.3 35.7998 63.5 36.7998C64.7 37.7998 65.3 39.1998 65.4 40.8998C65.4 41.2998 65.4 41.6998 65.4 41.9998C65.4 42.2998 65.4 42.6998 65.4 43.0998C65.3 44.8998 64.7 46.2998 63.5 47.2998C62.4 48.2998 60.8 48.7998 58.7 48.7998ZM58.7 45.5998C59.4 45.5998 59.9 45.3998 60.2 44.9998C60.5 44.5998 60.7 43.8998 60.8 42.9998C60.8 42.7998 60.8 42.4998 60.8 41.9998C60.8 41.4998 60.8 41.1998 60.8 40.9998C60.8 40.0998 60.6 39.4998 60.2 38.9998C59.9 38.5998 59.4 38.3998 58.7 38.3998C58 38.3998 57.5 38.5998 57.2 38.9998C56.9 39.3998 56.7 40.0998 56.6 40.9998V41.9998V42.9998C56.7 43.8998 56.8 44.4998 57.2 44.9998C57.5 45.3998 58.1 45.5998 58.7 45.5998ZM69.4 53.2998C69.2 53.2998 69.1 53.1998 68.9 53.0998C68.8 52.9998 68.7 52.7998 68.7 52.5998V36.0998C68.7 35.8998 68.8 35.7998 68.9 35.5998C69 35.4998 69.2 35.3998 69.4 35.3998H72.4C72.6 35.3998 72.7 35.4998 72.8 35.5998C72.9 35.6998 73 35.8998 73 36.0998V36.9998C73.9 35.7998 75.2 35.1998 76.9 35.1998C78.5 35.1998 79.8 35.6998 80.7 36.6998C81.6 37.6998 82.1 39.0998 82.2 40.9998C82.2 41.1998 82.2 41.4998 82.2 41.8998C82.2 42.2998 82.2 42.5998 82.2 42.8998C82.1 44.6998 81.6 46.0998 80.7 47.1998C79.8 48.1998 78.5 48.6998 76.9 48.6998C75.3 48.6998 74.1 48.1998 73.3 46.9998V52.4998C73.3 52.6998 73.2 52.7998 73.1 52.9998C73 53.0998 72.8 53.1998 72.7 53.1998H69.4V53.2998ZM75.4 45.2998C76.2 45.2998 76.7 45.0998 77 44.5998C77.3 44.0998 77.5 43.4998 77.6 42.7998C77.6 42.5998 77.6 42.3998 77.6 41.9998C77.6 41.5998 77.6 41.3998 77.6 41.1998C77.6 40.3998 77.4 39.7998 77 39.3998C76.7 38.8998 76.2 38.6998 75.4 38.6998C74.7 38.6998 74.1 38.8998 73.8 39.3998C73.5 39.8998 73.3 40.3998 73.2 41.0998C73.2 41.2998 73.2 41.5998 73.2 41.9998C73.2 42.3998 73.2 42.6998 73.2 42.8998C73.2 43.4998 73.4 44.0998 73.8 44.4998C74.2 45.0998 74.7 45.2998 75.4 45.2998ZM86.1 48.4998C85.9 48.4998 85.8 48.3998 85.6 48.2998C85.5 48.1998 85.4 47.9998 85.4 47.7998V31.3998C85.4 31.1998 85.5 31.0998 85.6 30.8998C85.7 30.7998 85.9 30.6998 86.1 30.6998H89.2C89.4 30.6998 89.5 30.7998 89.7 30.8998C89.8 30.9998 89.9 31.1998 89.9 31.3998V47.8998C89.9 48.0998 89.8 48.1998 89.7 48.3998C89.5 48.3998 89.4 48.4998 89.2 48.4998H86.1ZM99.7 48.7998C97.7 48.7998 96.1 48.2998 94.9 47.1998C93.7 46.0998 93.1 44.4998 93.1 42.3998V41.5998C93.2 39.5998 93.8 38.0998 94.9 36.8998C96 35.6998 97.6 35.1998 99.6 35.1998C101 35.1998 102.2 35.4998 103.2 36.0998C104.2 36.6998 104.9 37.4998 105.4 38.4998C105.9 39.4998 106.2 40.5998 106.2 41.8998V42.4998C106.2 42.6998 106.1 42.7998 106 42.9998C105.9 43.0998 105.7 43.1998 105.6 43.1998H97.7V43.2998C97.7 44.0998 97.9 44.6998 98.2 45.0998C98.5 45.5998 99 45.7998 99.6 45.7998C100 45.7998 100.3 45.6998 100.5 45.5998C100.8 45.3998 101 45.1998 101.2 44.9998C101.3 44.7998 101.5 44.6998 101.5 44.6998C101.6 44.6998 101.8 44.5998 101.9 44.5998H105.2C105.4 44.5998 105.5 44.5998 105.6 44.7998C105.7 44.8998 105.8 44.9998 105.8 45.0998C105.8 45.4998 105.5 45.9998 105 46.5998C104.5 47.1998 103.8 47.6998 102.8 48.0998C102.1 48.4998 100.9 48.7998 99.7 48.7998ZM101.6 40.6998C101.6 39.7998 101.4 39.1998 101.1 38.7998C100.8 38.2998 100.3 38.0998 99.6 38.0998C99 38.0998 98.5 38.2998 98.1 38.7998C97.8 39.1998 97.6 39.7998 97.6 40.5998V40.6998H101.6Z" fill="white"/>
<path d="M12.675 39.0003L0.775 33.0003C0.575 32.9003 0.275 32.9003 0.175 33.1003C-0.025 33.4003 -0.025 33.6003 0.075 33.8003L3.675 39.5003L0.075 45.2003C-0.025 45.4003 -0.025 45.6003 0.075 45.8003C0.175 45.9003 0.375 46.0003 0.475 46.0003C0.575 46.0003 0.675 46.0003 0.675 45.9003L12.575 39.9003C12.775 39.8003 12.875 39.6003 12.875 39.4003C12.875 39.2003 12.875 39.1003 12.675 39.0003Z" fill="#F7941F"/>
</g>
<defs>
<clipPath id="clip0">
<rect width="108" height="53" fill="white"/>
</clipPath>
</defs>
</svg>
