<svg width="106" height="107" viewBox="0 0 106 107" fill="none" xmlns="http://www.w3.org/2000/svg">
<path d="M93.5014 54.2829L102.117 55.1495L101.557 60.7191L100.339 60.5965L100.76 56.4055L98.4338 56.1715L98.0698 59.7902L96.919 59.6745L97.283 56.0557L94.5935 55.7852L94.1683 60.0132L92.9374 59.8894L93.5014 54.2829Z" fill="#494A4E"/>
<path d="M92.6236 62.624L100.808 65.4518L100.376 66.7029L93.0024 68.782L98.9481 70.8362L98.5077 72.1107L90.323 69.2829L90.7553 68.0318L98.197 65.9828L92.1813 63.9044L92.6236 62.624Z" fill="#494A4E"/>
<path d="M89.1179 72.2818L96.3374 77.0635L95.5723 78.2187L92.7051 76.3196L90.3894 79.8159L93.2566 81.715L92.4915 82.8701L85.272 78.0884L86.0371 76.9333L89.3271 79.1123L91.6428 75.616L88.3528 73.4369L89.1179 72.2818Z" fill="#494A4E"/>
<path d="M83.9418 80.1106L87.3429 88.7558L86.2385 89.7753L77.8288 85.7534L78.9787 84.692L80.9662 85.6688L83.6614 83.1809L82.8237 81.1426L83.9418 80.1106ZM84.2075 84.3014L82.0486 86.2942L85.7077 88.0514L84.2075 84.3014Z" fill="#494A4E"/>
<path d="M76.2848 87.0382L80.4675 94.6205L79.3085 95.2599L72.441 91.8641L75.4794 97.3721L74.2987 98.0234L70.1161 90.4411L71.2751 89.8017L78.173 93.2655L75.0987 87.6925L76.2848 87.0382Z" fill="#494A4E"/>
<path d="M63.2726 92.6696C64.1411 92.4378 64.9479 92.4145 65.693 92.5997C66.4381 92.7849 67.0792 93.1559 67.6161 93.7125C68.1501 94.2741 68.5341 94.9932 68.7681 95.8697C68.9382 96.5072 68.9885 97.119 68.9187 97.7052C68.8461 98.2965 68.6687 98.839 68.3864 99.3326C68.1002 99.8272 67.7209 100.253 67.2484 100.609C66.776 100.966 66.223 101.229 65.5895 101.398C64.9521 101.568 64.381 101.635 63.8763 101.599C63.3677 101.564 62.9007 101.446 62.4754 101.243L62.8767 99.9646C63.2045 100.137 63.5597 100.237 63.9422 100.263C64.3247 100.289 64.7271 100.245 65.1494 100.133C65.6155 100.008 66.0167 99.8243 66.3529 99.5809C66.6891 99.3375 66.9551 99.0467 67.1507 98.7085C67.3435 98.3754 67.4611 98.0004 67.5035 97.5837C67.543 97.1719 67.4994 96.729 67.3729 96.2549C67.2006 95.6095 66.9278 95.0912 66.5545 94.7C66.1772 94.3099 65.7251 94.0551 65.1981 93.9354C64.6681 93.8208 64.0864 93.848 63.453 94.0171C63.0307 94.1298 62.6408 94.3 62.2833 94.5278C61.9229 94.7605 61.6091 95.0641 61.342 95.4384L60.419 94.4748C60.7374 94.0527 61.1332 93.6888 61.6065 93.3832C62.0758 93.0787 62.6311 92.8408 63.2726 92.6696Z" fill="#494A4E"/>
<path d="M58.0056 94.0454L58.3731 102.697L52.7804 102.935L52.7285 101.711L56.9369 101.532L56.8376 99.1963L53.204 99.3507L53.1549 98.195L56.7886 98.0407L56.6739 95.3401L52.4284 95.5205L52.3759 94.2845L58.0056 94.0454Z" fill="#494A4E"/>
<path d="M42.8643 93.0342L41.8308 96.6308L43.4096 102.201L41.8877 101.763L40.7663 97.715L37.6788 100.554L36.1986 100.129L40.4967 96.2346L41.5267 92.6499L42.8643 93.0342Z" fill="#494A4E"/>
<path d="M33.4493 89.1389C34.0139 89.464 34.4808 89.8638 34.85 90.3381C35.2136 90.814 35.4721 91.3317 35.6257 91.8913C35.7757 92.4488 35.8139 93.0228 35.7403 93.6133C35.6632 94.2017 35.4651 94.7728 35.1461 95.3267C34.825 95.8841 34.4294 96.3439 33.9592 96.7059C33.4853 97.0659 32.9697 97.321 32.4122 97.471C31.8511 97.6189 31.2746 97.6533 30.6826 97.574C30.087 97.4928 29.5069 97.2895 28.9423 96.9644C28.3813 96.6413 27.919 96.2418 27.5555 95.7659C27.1919 95.29 26.9343 94.7705 26.7828 94.2074C26.6313 93.6443 26.5941 93.0685 26.6713 92.4801C26.7428 91.8931 26.936 91.3263 27.2509 90.7796C27.5699 90.2257 27.9663 89.7688 28.4401 89.4088C28.9104 89.0468 29.426 88.7917 29.9871 88.6438C30.5481 88.4958 31.1257 88.4597 31.7198 88.5354C32.3118 88.6146 32.8883 88.8158 33.4493 89.1389ZM32.7949 90.2752C32.4161 90.057 32.0271 89.9186 31.6278 89.86C31.2229 89.8029 30.829 89.8258 30.4461 89.9289C30.0611 90.0355 29.703 90.2194 29.3717 90.4807C29.0348 90.7435 28.7459 91.0839 28.5051 91.502C28.182 92.063 28.0208 92.6197 28.0215 93.172C28.0166 93.7259 28.1519 94.2345 28.4276 94.6978C28.7032 95.1611 29.0929 95.5379 29.5968 95.8281C29.9755 96.0462 30.3674 96.1838 30.7723 96.241C31.1715 96.2996 31.5644 96.2784 31.9509 96.1774C32.3338 96.0744 32.6937 95.8915 33.0307 95.6287C33.362 95.3675 33.649 95.026 33.8919 94.6044C34.215 94.0434 34.3772 93.4849 34.3786 92.9289C34.3779 92.3765 34.2415 91.8697 33.9694 91.4085C33.6938 90.9452 33.3023 90.5674 32.7949 90.2752Z" fill="#494A4E"/>
<path d="M24.8891 82.8879C25.4324 83.4351 25.7758 84.0035 25.9195 84.593C26.0602 85.1796 26.0333 85.7554 25.8388 86.3203C25.6385 86.8853 25.2998 87.4045 24.8228 87.8781L21.0742 91.5996L20.098 90.6163L23.8379 86.9035C24.3793 86.3661 24.6495 85.8305 24.6485 85.2969C24.6446 84.7662 24.4146 84.2712 23.9585 83.8117C23.5024 83.3523 23.009 83.1187 22.4784 83.1109C21.9448 83.1061 21.4073 83.3724 20.8659 83.9098L17.126 87.6227L16.1455 86.635L19.8942 82.9135C20.3683 82.4428 20.89 82.1109 21.4592 81.9176C22.0227 81.7243 22.6001 81.7001 23.1915 81.8451C23.777 81.9901 24.3429 82.3377 24.8891 82.8879Z" fill="#494A4E"/>
<path d="M20.0945 78.0222L12.6878 82.5086L10.9926 79.7099C10.6807 79.195 10.5015 78.6961 10.4549 78.2133C10.4026 77.7291 10.4786 77.2854 10.6827 76.8821C10.8846 76.4754 11.2113 76.1352 11.6628 75.8618C12.0296 75.6396 12.4021 75.5224 12.7804 75.5102C13.1566 75.4945 13.5218 75.5722 13.8761 75.7432C14.2269 75.9164 14.5462 76.169 14.834 76.5009L16.656 72.3455L17.5244 73.7792L15.7755 77.6372L16.3875 78.6477L19.3766 76.8371L20.0945 78.0222ZM15.4035 79.2438L14.5447 77.8259C14.2541 77.3463 13.9265 77.0361 13.5617 76.8955C13.1947 76.7514 12.8208 76.7947 12.4399 77.0254C12.0484 77.2625 11.816 77.5672 11.7426 77.9395C11.667 78.3083 11.7745 78.7325 12.0651 79.2122L12.9752 80.7147L15.4035 79.2438Z" fill="#494A4E"/>
<path d="M13.7665 65.5475L5.27303 67.2349L4.6933 64.3168C4.53179 63.5039 4.58322 62.8105 4.84759 62.2366C5.10791 61.6636 5.58995 61.3072 6.29369 61.1674C6.56467 61.1135 6.83436 61.1272 7.10274 61.2085C7.36627 61.2864 7.60913 61.4084 7.83131 61.5745C8.05349 61.7406 8.22874 61.9244 8.35706 62.1259C8.40702 61.6367 8.58954 61.2011 8.90461 60.8189C9.21888 60.4328 9.65104 60.1851 10.2011 60.0758C10.6662 59.9834 11.102 60.0187 11.5086 60.1818C11.9111 60.3457 12.2585 60.6235 12.5508 61.0153C12.839 61.4079 13.0421 61.9014 13.1602 62.496L13.7665 65.5475ZM12.4288 64.4007L12.1383 62.9386C12.0226 62.3562 11.8234 61.946 11.5406 61.7078C11.2538 61.4705 10.8799 61.3977 10.4188 61.4893C9.96181 61.5801 9.64251 61.7928 9.46093 62.1273C9.27855 62.4578 9.24642 62.9204 9.36454 63.5149L9.65019 64.9527L12.4288 64.4007ZM8.63097 65.1552L8.3634 63.8084C8.29832 63.4808 8.18949 63.2081 8.03693 62.9904C7.88436 62.7727 7.69573 62.6167 7.47104 62.5226C7.24634 62.4286 6.99445 62.4092 6.71538 62.4647C6.31902 62.5434 6.04381 62.7452 5.88974 63.0701C5.73082 63.3918 5.70319 63.8135 5.80685 64.3352L6.0708 65.6638L8.63097 65.1552Z" fill="#494A4E"/>
<path d="M12.3841 52.8533C12.3484 53.6236 12.162 54.261 11.8249 54.7655C11.488 55.2659 11.0457 55.6355 10.498 55.8743C9.94633 56.1088 9.33481 56.2105 8.66339 56.1794L3.38679 55.9348L3.45092 54.5508L8.71517 54.7948C9.47721 54.8301 10.0544 54.6669 10.4468 54.3053C10.8351 53.9436 11.0442 53.4393 11.0742 52.7926C11.1042 52.1459 10.9426 51.6245 10.5894 51.2284C10.2321 50.832 9.67248 50.6162 8.91045 50.5809L3.6462 50.3369L3.71062 48.9467L8.98723 49.1913C9.65453 49.2222 10.2519 49.382 10.7793 49.6706C11.3027 49.9549 11.711 50.3639 12.0041 50.8976C12.2933 51.427 12.42 52.0789 12.3841 52.8533Z" fill="#494A4E"/>
<path d="M13.716 43.3254C13.553 43.9006 13.3121 44.441 12.9932 44.9464C12.6715 45.4467 12.3026 45.8415 11.8864 46.1307L11.0541 45.1879C11.2809 45.0378 11.4929 44.8493 11.69 44.6223C11.8883 44.3913 12.0633 44.1366 12.2151 43.8581C12.3628 43.5785 12.4788 43.29 12.5631 42.9924C12.7171 42.4488 12.7381 41.9812 12.6262 41.5895C12.5154 41.1939 12.2616 40.9398 11.8649 40.8275C11.5673 40.7432 11.2828 40.7869 11.0113 40.9585C10.7409 41.1263 10.4314 41.4929 10.0826 42.0584L9.58995 42.8446C9.1413 43.5661 8.67938 44.0545 8.20417 44.3099C7.73009 44.5614 7.21533 44.6084 6.65988 44.4511C6.29091 44.3466 5.97843 44.1788 5.72245 43.9477C5.46759 43.7127 5.26926 43.4294 5.12747 43.0978C4.98679 42.7622 4.91118 42.3936 4.90064 41.9921C4.89009 41.5905 4.94718 41.1695 5.07192 40.7292C5.23037 40.1697 5.45891 39.673 5.75755 39.239C6.05619 38.8051 6.38678 38.4701 6.74931 38.2342L7.54505 39.1925C7.34199 39.3192 7.15234 39.482 6.97607 39.6806C6.80093 39.8753 6.64651 40.0951 6.51284 40.3401C6.37916 40.5851 6.27411 40.8425 6.19769 41.1123C6.1033 41.4456 6.06917 41.7552 6.09532 42.0412C6.11862 42.3221 6.20129 42.5598 6.34334 42.7543C6.48539 42.9488 6.68734 43.0832 6.94919 43.1573C7.13963 43.2113 7.31975 43.2109 7.48955 43.1561C7.65935 43.1013 7.83635 42.9757 8.02055 42.7793C8.20191 42.5778 8.40997 42.2896 8.64474 41.9147L9.16876 41.086C9.61291 40.3803 10.0681 39.9007 10.5342 39.647C10.9964 39.3922 11.5171 39.3468 12.0964 39.5109C12.5923 39.6513 12.9939 39.8979 13.3011 40.2507C13.6055 40.5983 13.7971 41.034 13.8759 41.5578C13.9547 42.0815 13.9014 42.6707 13.716 43.3254Z" fill="#494A4E"/>
<path d="M15.4476 37.667L7.61706 33.9698L8.20862 32.7169L16.0391 36.4141L15.4476 37.667Z" fill="#494A4E"/>
<path d="M17.0682 33.8266L10.0285 28.784L10.7993 27.7079L18.4597 27.816L13.3458 24.1529L14.131 23.0567L21.1708 28.0993L20.4 29.1754L12.6828 29.0191L17.857 32.7254L17.0682 33.8266Z" fill="#494A4E"/>
<path d="M23.3217 25.5212L17.6119 19.0109L21.8204 15.3199L22.6279 16.2407L19.4611 19.0181L21.0027 20.7759L23.7371 18.3778L24.4998 19.2473L21.7654 21.6455L23.5477 23.6776L26.7424 20.8757L27.5581 21.8058L23.3217 25.5212Z" fill="#494A4E"/>
<path d="M32.4086 18.7631C31.8872 19.0558 31.3352 19.2687 30.7526 19.4018C30.1717 19.5293 29.6316 19.5487 29.1326 19.4599L29.2082 18.2046C29.4748 18.2583 29.758 18.2743 30.0579 18.2525C30.3614 18.2288 30.6652 18.1718 30.9692 18.0815C31.2711 17.9877 31.557 17.8651 31.8267 17.7137C32.3193 17.4372 32.6642 17.1207 32.8612 16.7642C33.0619 16.4056 33.0614 16.0466 32.8595 15.687C32.7082 15.4173 32.4757 15.2475 32.1622 15.1776C31.8523 15.1056 31.3743 15.147 30.7281 15.3016L29.8242 15.511C28.9972 15.7057 28.3252 15.7258 27.8083 15.5715C27.2949 15.4151 26.897 15.0853 26.6144 14.5818C26.4267 14.2474 26.3237 13.908 26.3054 13.5637C26.2906 13.2173 26.35 12.8766 26.4835 12.5416C26.6206 12.2045 26.8271 11.89 27.103 11.598C27.3789 11.3061 27.7164 11.048 28.1155 10.824C28.6226 10.5394 29.135 10.3487 29.6528 10.252C30.1707 10.1552 30.6413 10.1511 31.0646 10.2398L30.9523 11.4803C30.7189 11.4268 30.4697 11.4083 30.2047 11.4247C29.9432 11.439 29.6787 11.4858 29.4111 11.5651C29.1435 11.6444 28.8874 11.7526 28.6429 11.8899C28.3408 12.0594 28.0982 12.2547 27.9149 12.4758C27.7332 12.6913 27.6241 12.9181 27.5874 13.1561C27.5508 13.3942 27.5991 13.6319 27.7324 13.8692C27.8292 14.0418 27.9572 14.1686 28.1161 14.2496C28.2751 14.3307 28.4891 14.3666 28.7582 14.3574C29.0289 14.3426 29.3797 14.2852 29.8106 14.1852L30.7667 13.9677C31.5793 13.7811 32.2403 13.7624 32.7496 13.9116C33.2569 14.0571 33.6579 14.3924 33.9526 14.9174C34.2049 15.3669 34.3154 15.825 34.2842 16.2917C34.2546 16.7528 34.0829 17.1968 33.7692 17.6235C33.4554 18.0502 33.0019 18.4301 32.4086 18.7631Z" fill="#494A4E"/>
<path d="M39.7762 15.3932C39.2061 15.5735 38.6223 15.6694 38.0248 15.681C37.43 15.6875 36.8974 15.5964 36.4269 15.4079L36.7568 14.1943C37.0068 14.3012 37.2808 14.3745 37.5789 14.4143C37.8808 14.4529 38.1898 14.459 38.5058 14.4326C38.8206 14.4023 39.1254 14.3405 39.4203 14.2472C39.9589 14.0769 40.361 13.8373 40.6267 13.5284C40.8962 13.2183 40.9688 12.8667 40.8445 12.4735C40.7512 12.1786 40.5583 11.965 40.2656 11.8327C39.9768 11.6991 39.5004 11.6422 38.8363 11.6619L37.9087 11.6827C37.0594 11.7048 36.3974 11.5876 35.9227 11.3312C35.452 11.0735 35.1296 10.6694 34.9556 10.119C34.84 9.75334 34.8083 9.40008 34.8605 9.0592C34.9167 8.71708 35.0442 8.39563 35.2432 8.09485C35.4461 7.79282 35.7123 7.52699 36.0419 7.29735C36.3715 7.06771 36.7545 6.88389 37.1909 6.74588C37.7453 6.57058 38.2858 6.48832 38.8125 6.49908C39.3393 6.50984 39.8008 6.60176 40.1972 6.77483L39.8344 7.96641C39.6169 7.86653 39.3767 7.79761 39.1138 7.75963C38.8549 7.72041 38.5864 7.71234 38.3083 7.73542C38.0301 7.7585 37.7574 7.81231 37.49 7.89685C37.1598 8.00128 36.8824 8.14305 36.6579 8.32216C36.4361 8.49609 36.2831 8.69586 36.1987 8.92147C36.1144 9.14708 36.1132 9.38964 36.1953 9.64913C36.255 9.83785 36.3543 9.98806 36.4935 10.0998C36.6326 10.2115 36.8348 10.2902 37.1001 10.3361C37.3682 10.3767 37.7233 10.392 38.1656 10.3819L39.1459 10.3638C39.9795 10.3467 40.6304 10.4631 41.0987 10.7129C41.5656 10.9588 41.8899 11.3688 42.0714 11.9428C42.2268 12.4343 42.2417 12.9053 42.116 13.3559C41.9931 13.8013 41.7345 14.2009 41.3404 14.5548C40.9463 14.9086 40.4249 15.1881 39.7762 15.3932Z" fill="#494A4E"/>
<path d="M51.5515 12.8611L49.6164 4.02621L51.0657 4.13824L52.4274 10.9994L54.92 4.43618L56.3569 4.54725L57.7993 11.4085L60.1989 4.84423L61.6049 4.95292L58.3474 13.3864L56.8859 13.2734L55.4628 6.56261L53.0069 12.9736L51.5515 12.8611Z" fill="#494A4E"/>
<path d="M63.0639 14.3597L65.581 6.07416L66.9067 6.47689L64.3896 14.7624L63.0639 14.3597Z" fill="#494A4E"/>
<path d="M69.0582 16.4266L72.3376 9.80242L70.1536 8.72118L70.7162 7.58482L76.3259 10.362L75.7633 11.4984L73.5793 10.4171L70.2999 17.0413L69.0582 16.4266Z" fill="#494A4E"/>
<path d="M74.9146 19.3276L80.4082 12.6338L81.4792 13.5128L79.2975 16.1712L82.5392 18.8316L84.7209 16.1732L85.7919 17.0522L80.2983 23.746L79.2273 22.867L81.7308 19.8166L78.4891 17.1561L75.9856 20.2066L74.9146 19.3276Z" fill="#494A4E"/>
<path d="M85.3672 28.9577L94.5452 27.518L95.3001 28.8177L89.5457 36.1515L88.7597 34.7983L90.1454 33.0707L88.3031 29.8991L86.1315 30.2735L85.3672 28.9577ZM89.5156 29.6097L90.9912 32.1502L93.502 28.9608L89.5156 29.6097Z" fill="#494A4E"/>
<path d="M90.3187 38.1474L98.4376 35.1357L98.9194 36.4347L90.8006 39.4464L90.3187 38.1474Z" fill="#494A4E"/>
<circle cx="52.5379" cy="53.2015" r="25.6531" fill="url(#paint0_linear_1_34826)"/>
<path d="M59.4638 59.3583C59.4638 59.7833 59.1192 60.1279 58.6942 60.1279L51.7678 60.1279C51.3428 60.1279 50.9982 59.7833 50.9982 59.3583C50.9982 58.9333 51.3428 58.5887 51.7678 58.5887L57.9246 58.5887L57.9246 52.432C57.9246 52.0069 58.2691 51.6624 58.6942 51.6624C59.1192 51.6624 59.4638 52.0069 59.4638 52.432L59.4638 59.3583ZM46.9249 46.5006L59.2383 58.8141L58.15 59.9025L45.8365 47.589L46.9249 46.5006Z" fill="white"/>
<defs>
<linearGradient id="paint0_linear_1_34826" x1="26.8848" y1="30.1661" x2="79.8444" y2="32.0364" gradientUnits="userSpaceOnUse">
<stop stop-color="#3966E3"/>
<stop offset="0.53" stop-color="#7A5CDF"/>
<stop offset="1" stop-color="#9758F0"/>
</linearGradient>
</defs>
</svg>
