<svg width="125" height="34" viewBox="0 0 125 34" fill="none" xmlns="http://www.w3.org/2000/svg">
<g clip-path="url(#clip0_58_563)">
<path d="M38.9155 16.3456C38.9155 21.9046 42.4741 25.7806 47.4052 25.7806C52.3364 25.7806 55.8949 21.9046 55.8949 16.3456C55.8949 10.7866 52.3364 6.91064 47.4052 6.91064C42.4741 6.91064 38.9155 10.7866 38.9155 16.3456ZM52.6414 16.3456C52.6414 20.3236 50.4808 22.8991 47.4052 22.8991C44.3296 22.8991 42.1691 20.3236 42.1691 16.3456C42.1691 12.3676 44.3296 9.79214 47.4052 9.79214C50.4808 9.79214 52.6414 12.3676 52.6414 16.3456Z" fill="#1F1E22"/>
<path d="M65.0568 25.7804C68.7933 25.7804 70.9284 22.6184 70.9284 18.8189C70.9284 15.0194 68.7933 11.8574 65.0568 11.8574C63.3284 11.8574 62.0575 12.5459 61.2187 13.5404V12.1124H58.1685V30.0899H61.2187V24.0974C62.0575 25.0919 63.3284 25.7804 65.0568 25.7804ZM61.1424 18.4364C61.1424 15.9119 62.5658 14.5349 64.4468 14.5349C66.6581 14.5349 67.8528 16.2689 67.8528 18.8189C67.8528 21.3689 66.6581 23.1029 64.4468 23.1029C62.5658 23.1029 61.1424 21.7004 61.1424 19.2269V18.4364Z" fill="#1F1E22"/>
<path d="M79.1833 25.7804C81.8522 25.7804 83.9619 24.3779 84.9024 22.0319L82.2843 21.0374C81.8776 22.4144 80.683 23.1794 79.1833 23.1794C77.2261 23.1794 75.8535 21.7769 75.6248 19.4819H84.9787V18.4619C84.9787 14.7899 82.9198 11.8574 79.0562 11.8574C75.1926 11.8574 72.7017 14.8919 72.7017 18.8189C72.7017 22.9499 75.3706 25.7804 79.1833 25.7804ZM79.0308 14.4329C80.9626 14.4329 81.8776 15.7079 81.9031 17.1869H75.7773C76.2348 15.3764 77.4549 14.4329 79.0308 14.4329Z" fill="#1F1E22"/>
<path d="M87.2671 25.4999H90.3173V17.6459C90.3173 15.7334 91.7153 14.7134 93.0879 14.7134C94.7655 14.7134 95.4263 15.9119 95.4263 17.5694V25.4999H98.4765V16.6769C98.4765 13.7954 96.7989 11.8574 94.0029 11.8574C92.2745 11.8574 91.0798 12.6479 90.3173 13.5404V12.1124H87.2671V25.4999Z" fill="#1F1E22"/>
<path d="M107.41 7.19092L100.496 25.4999H103.724L105.275 21.3179H113.154L114.73 25.4999H118.009L111.095 7.19092H107.41ZM109.189 10.8119L112.087 18.4619H106.342L109.189 10.8119Z" fill="#1F1E22"/>
<path d="M123.246 7.24414H119.992V25.5531H123.246V7.24414Z" fill="#1F1E22"/>
<path d="M31.4614 13.9157C32.2303 11.6005 31.9656 9.06435 30.736 6.95847C28.8868 3.72847 25.1694 2.06672 21.5388 2.84872C19.9237 1.02335 17.6032 -0.0147173 15.1705 0.0001577C11.4594 -0.0083423 8.16669 2.38866 7.02499 5.93103C4.64097 6.42085 2.58315 7.91791 1.37896 10.0397C-0.483985 13.2612 -0.0592887 17.3221 2.42958 20.0846C1.66068 22.3998 1.92545 24.936 3.15506 27.0419C5.00424 30.2719 8.72165 31.9336 12.3522 31.1516C13.9663 32.977 16.2878 34.015 18.7206 33.9991C22.4337 34.0087 25.7275 31.6095 26.8692 28.064C29.2532 27.5742 31.3111 26.0771 32.5152 23.9553C34.3761 20.7338 33.9503 16.6761 31.4625 13.9136L31.4614 13.9157ZM18.7227 31.7774C17.2368 31.7795 15.7975 31.2579 14.6568 30.3027C14.7087 30.275 14.7987 30.2251 14.857 30.189L21.6055 26.279C21.9508 26.0824 22.1626 25.7137 22.1605 25.3153V15.7708L25.0126 17.423C25.0433 17.4379 25.0635 17.4677 25.0677 17.5017V25.4056C25.0635 28.9204 22.2261 31.77 18.7227 31.7774ZM5.07731 25.9305C4.33277 24.6406 4.06482 23.1287 4.32006 21.6614C4.36984 21.6911 4.45774 21.7453 4.52023 21.7814L11.2688 25.6914C11.6109 25.8922 12.0345 25.8922 12.3776 25.6914L20.6163 20.9187V24.223C20.6184 24.257 20.6026 24.29 20.5761 24.3112L13.7545 28.2627C10.7159 30.0179 6.83541 28.9745 5.07837 25.9305H5.07731ZM3.30121 11.1522C4.04258 9.86016 5.21288 8.87204 6.60664 8.35885C6.60664 8.41728 6.60347 8.52035 6.60347 8.5926V16.4137C6.60135 16.811 6.81317 17.1797 7.15737 17.3763L15.3961 22.148L12.5439 23.8002C12.5153 23.8193 12.4793 23.8225 12.4475 23.8087L5.62486 19.854C2.59268 18.0924 1.55265 14.2005 3.30015 11.1532L3.30121 11.1522ZM26.7347 16.623L18.496 11.8502L21.3482 10.1991C21.3768 10.18 21.4128 10.1768 21.4445 10.1906L28.2672 14.142C31.3047 15.9026 32.3458 19.8009 30.5909 22.8482C29.8484 24.138 28.6792 25.1262 27.2865 25.6404V17.5856C27.2897 17.1882 27.0789 16.8206 26.7358 16.623H26.7347ZM29.5731 12.3368C29.5233 12.306 29.4354 12.2529 29.3729 12.2168L22.6244 8.30678C22.2823 8.10597 21.8586 8.10597 21.5155 8.30678L13.2768 13.0795V9.77516C13.2747 9.74116 13.2906 9.70822 13.3171 9.68697L20.1387 5.73872C23.1772 3.98028 27.062 5.02685 28.8137 8.07622C29.554 9.36397 29.822 10.8717 29.571 12.3368H29.5731ZM11.7263 18.2263L8.8731 16.5741C8.84239 16.5592 8.82227 16.5295 8.81803 16.4955V8.59154C8.82015 5.07253 11.6659 2.22078 15.1736 2.22291C16.6574 2.22291 18.0936 2.74566 19.2342 3.69766C19.1823 3.72528 19.0934 3.77522 19.034 3.81135L12.2855 7.72135C11.9402 7.91791 11.7284 8.28554 11.7305 8.68397L11.7263 18.2242V18.2263ZM13.2758 14.8752L16.9455 12.7491L20.6153 14.8741V19.1252L16.9455 21.2502L13.2758 19.1252V14.8752Z" fill="#1F1E22"/>
</g>
<defs>
<clipPath id="clip0_58_563">
<rect width="124.973" height="34" fill="white"/>
</clipPath>
</defs>
</svg>
