<svg width="119" height="40" viewBox="0 0 119 40" fill="none" xmlns="http://www.w3.org/2000/svg">
<path d="M28.311 11.9398L25.4589 14.7786C30.2124 19.5098 30.2124 27.2149 25.4589 31.9462C20.7053 36.6774 12.9638 36.6774 8.2103 31.9462C3.45676 27.2149 3.45676 19.5098 8.2103 14.7786L15.816 7.2086L16.7667 6.12718V0.449707L5.22236 11.9398C3.70547 13.4344 2.50131 15.2134 1.67951 17.174C0.857705 19.1346 0.43457 21.238 0.43457 23.3624C0.43457 25.4868 0.857705 27.5901 1.67951 29.5507C2.50131 31.5113 3.70547 33.2903 5.22236 34.7849C6.72395 36.2947 8.51137 37.4932 10.4812 38.3111C12.4511 39.1291 14.5644 39.5502 16.6988 39.5502C18.8332 39.5502 20.9464 39.1291 22.9163 38.3111C24.8862 37.4932 26.6736 36.2947 28.1752 34.7849C34.6943 28.4315 34.6943 18.158 28.311 11.9398Z" fill="#EE4C2C"/>
<path d="M22.6066 11.1289C23.8068 11.1289 24.7797 10.1606 24.7797 8.96607C24.7797 7.77156 23.8068 6.80322 22.6066 6.80322C21.4065 6.80322 20.4336 7.77156 20.4336 8.96607C20.4336 10.1606 21.4065 11.1289 22.6066 11.1289Z" fill="#EE4C2C"/>
<path d="M45.7793 22.2533H43.5466V27.9689H41.8799V11.7444H45.9546C50.2771 11.7444 52.3144 13.8333 52.3144 16.8556C52.3144 20.42 49.7825 22.2022 45.7693 22.2633L45.7793 22.2533ZM45.8909 13.2811H43.493V20.7178L45.8396 20.6567C48.9274 20.5956 50.5952 19.3656 50.5952 16.8456C50.5952 14.5722 48.9899 13.2811 45.9021 13.2811H45.8909ZM59.8587 27.9067L58.8708 30.4878C57.7589 33.3767 56.6381 34.2367 54.9803 34.2367C54.0537 34.2367 53.375 33.9922 52.6337 33.6833L53.1271 32.2089C53.6831 32.5167 54.2993 32.7 54.9803 32.7C55.9068 32.7 56.5856 32.2089 57.4496 29.9222L58.2534 27.8333L53.6228 16.0956H55.3531L59.1197 25.9289L62.826 16.0956H64.4927L59.8587 27.9067ZM70.0455 13.3422V28.0311H68.3787V13.3422H62.6362V11.7444H75.7868V13.2811H70.0443L70.0455 13.3422ZM80.48 28.3367C77.1455 28.3367 74.675 25.8789 74.675 22.0678C74.675 18.2567 77.2069 15.7378 80.5916 15.7378C83.9262 15.7378 86.3341 18.1956 86.3341 22.0067C86.3341 25.8178 83.8023 28.3367 80.4677 28.3367H80.48ZM80.5414 17.2256C78.0095 17.2256 76.3439 19.2533 76.3439 22.0189C76.3439 24.9078 78.0743 26.8744 80.6039 26.8744C83.1336 26.8744 84.8014 24.8467 84.8014 22.0811C84.8014 19.1922 83.071 17.2256 80.5414 17.2256ZM90.4836 28.03H88.8783V16.1078L90.4836 15.8V18.32C91.2874 16.7833 92.4596 15.8 94.0035 15.8C94.7387 15.806 95.4604 15.9963 96.1022 16.3533L95.6713 17.8889C95.1779 17.5811 94.4991 17.3978 93.8182 17.3978C92.5835 17.3978 91.4102 18.32 90.4222 20.4711V28.03H90.4836ZM102.462 28.3367C98.8808 28.3367 96.5957 25.7556 96.5957 22.0678C96.5957 18.3189 99.065 15.7378 102.462 15.7378C103.943 15.7378 105.179 16.1067 106.229 16.7822L105.797 18.2567C104.87 17.6422 103.759 17.2733 102.462 17.2733C99.8688 17.2733 98.2646 19.1789 98.2646 22.0067C98.2646 24.8956 99.9949 26.8 102.525 26.8C103.707 26.7946 104.864 26.4534 105.859 25.8167L106.168 27.2911C105.119 27.9667 103.822 28.3367 102.462 28.3367ZM116.231 28.03V20.3478C116.231 18.2589 115.367 17.3478 113.699 17.3478C112.341 17.3478 110.982 18.0233 109.993 19.07V28.1033H108.388V10.5256L109.993 10.2178V17.7156C111.228 16.4867 112.833 15.81 114.13 15.81C116.477 15.81 117.897 17.2844 117.897 19.8656V28.0389L116.231 28.03Z" fill="#252525"/>
</svg>
