<svg width="103" height="55" viewBox="0 0 103 55" fill="none" xmlns="http://www.w3.org/2000/svg">
<mask id="mask0_57_522" style="mask-type:luminance" maskUnits="userSpaceOnUse" x="52" y="0" width="13" height="31">
<path d="M64.7427 7.437L52.0825 0.142578V30.0404L57.1403 27.0807V18.6685L60.9601 20.8982L60.9386 15.1429L57.1403 12.9548V9.61326L64.7603 14.0528L64.7427 7.437Z" fill="white"/>
</mask>
<g mask="url(#mask0_57_522)">
<path d="M68.2055 0.0336914H37.1152V30.0779H68.2055V0.0336914Z" fill="url(#paint0_linear_57_522)"/>
</g>
<mask id="mask1_57_522" style="mask-type:luminance" maskUnits="userSpaceOnUse" x="38" y="0" width="13" height="31">
<path d="M38.2848 7.437L50.9449 0.142578V30.0404L45.8871 27.0807V9.61326L38.2671 14.0528L38.2848 7.437Z" fill="white"/>
</mask>
<g mask="url(#mask1_57_522)">
<path d="M67.9961 0.0336914H36.9058V30.0779H67.9961V0.0336914Z" fill="url(#paint1_linear_57_522)"/>
</g>
<path d="M12.8152 42.0611H8.24004V54.7685H5.71899V42.0611H1.19092V39.9917H12.8152V42.0611Z" fill="#425066"/>
<path d="M15.8466 54.9705C14.2967 54.9705 13.0404 54.4786 12.0777 53.4946C11.1151 52.5107 10.6338 51.1997 10.6338 49.5615V49.2628C10.6165 48.2478 10.8313 47.2425 11.2616 46.3248C11.6492 45.4984 12.2615 44.8 13.0273 44.3108C13.786 43.8301 14.6661 43.58 15.5621 43.5907C17.0453 43.5907 18.191 44.0675 18.9993 45.0211C19.8076 45.9747 20.2105 47.3226 20.2079 49.0649V50.0541H13.0979C13.1725 50.9629 13.4733 51.6804 14.0004 52.2067C14.2608 52.468 14.5714 52.673 14.9132 52.8091C15.2549 52.9451 15.6206 53.0094 15.9878 52.998C16.5188 53.0089 17.0446 52.8909 17.5209 52.6541C17.9972 52.4172 18.41 52.0683 18.7247 51.6369L20.0431 52.905C19.6065 53.5621 19.0037 54.0894 18.297 54.4324C17.5326 54.801 16.6937 54.9852 15.8466 54.9705ZM15.5542 45.5631C15.2481 45.5522 14.9434 45.6102 14.6624 45.7331C14.3814 45.856 14.1311 46.0406 13.9298 46.2734C13.5152 46.7456 13.2536 47.4051 13.145 48.2518H17.8045V48.0757C17.7509 47.2514 17.5331 46.6275 17.1512 46.2042C16.9472 45.9867 16.6987 45.8167 16.4229 45.706C16.1471 45.5953 15.8506 45.5465 15.5542 45.5631Z" fill="#425066"/>
<path d="M24.3804 43.7861L24.4511 45.0542C24.8313 44.5792 25.3153 44.1993 25.8653 43.9443C26.4153 43.6893 27.0164 43.5661 27.6215 43.5843C29.8895 43.5843 31.0431 44.8933 31.0823 47.5114V54.7683H28.6437V47.646C28.6437 46.9476 28.4945 46.4332 28.1963 46.0969C27.8981 45.7605 27.4116 45.5944 26.7308 45.5944C25.7459 45.5944 25.0115 46.0448 24.5276 46.9456V54.7604H22.0752V43.7861H24.3804Z" fill="#425066"/>
<path d="M39.0183 51.785C39.0268 51.5842 38.9813 51.3848 38.8867 51.2079C38.7921 51.031 38.6518 50.8832 38.4808 50.78C38.1211 50.5479 37.5253 50.3447 36.6935 50.1706C35.9749 50.0316 35.2755 49.8065 34.6099 49.4999C33.3896 48.9051 32.7795 48.0425 32.7795 46.9122C32.7754 46.4508 32.88 45.995 33.0847 45.5822C33.2893 45.1695 33.5882 44.8117 33.9566 44.5381C34.7492 43.901 35.7557 43.5832 36.976 43.5845C38.2761 43.5845 39.3277 43.9089 40.1307 44.5579C40.5166 44.8527 40.8277 45.2355 41.0385 45.675C41.2492 46.1146 41.3537 46.5982 41.3432 47.0863H38.8987C38.904 46.8616 38.8597 46.6386 38.7691 46.4334C38.6785 46.2281 38.5439 46.0456 38.3748 45.8992C37.9875 45.5706 37.4914 45.4017 36.9858 45.4264C36.5195 45.4052 36.059 45.5371 35.6733 45.8023C35.5122 45.9139 35.3812 46.0643 35.2922 46.2397C35.2031 46.4152 35.1588 46.6103 35.1632 46.8073C35.1583 46.9835 35.1996 47.1579 35.283 47.3129C35.3664 47.4678 35.4888 47.5978 35.638 47.6897C35.9519 47.8994 36.5889 48.1111 37.5489 48.3248C38.3322 48.4773 39.0921 48.7334 39.809 49.0865C40.2983 49.3292 40.7177 49.6943 41.0273 50.1469C41.3012 50.5978 41.4377 51.12 41.4197 51.6485C41.428 52.1187 41.3212 52.5837 41.1087 53.0023C40.8962 53.421 40.5845 53.7802 40.2014 54.0483C39.3918 54.6616 38.3284 54.9676 37.0113 54.9663C36.1911 54.9814 35.3775 54.8153 34.6276 54.4796C33.9734 54.1911 33.4097 53.728 32.9973 53.1402C32.616 52.6044 32.4102 51.9618 32.4087 51.3023H34.7846C34.7869 51.5615 34.8468 51.8169 34.9598 52.0497C35.0729 52.2825 35.2362 52.4868 35.4379 52.6476C35.9039 52.9817 36.4677 53.1483 37.0388 53.1205C37.6823 53.1205 38.1721 52.9965 38.5083 52.7485C38.6664 52.6437 38.7959 52.5006 38.885 52.3323C38.9741 52.164 39.0199 51.9758 39.0183 51.785Z" fill="#425066"/>
<path d="M42.683 49.1754C42.6668 48.1695 42.8838 47.1736 43.3167 46.2672C43.7045 45.4427 44.3239 44.7513 45.0981 44.2789C45.8968 43.8068 46.8093 43.5665 47.7349 43.5844C49.205 43.5844 50.3972 44.0612 51.3114 45.0148C52.2257 45.9684 52.7207 47.2333 52.7966 48.8094L52.8064 49.3891C52.823 50.3917 52.6109 51.3847 52.1864 52.2914C51.8027 53.1111 51.1887 53.799 50.4207 54.2699C49.6145 54.7469 48.693 54.9893 47.7584 54.9702C46.2216 54.9702 44.9921 54.4545 44.07 53.4231C43.1479 52.3917 42.6869 51.0167 42.6869 49.2981L42.683 49.1754ZM45.1236 49.3891C45.1236 50.5194 45.3551 51.4038 45.8181 52.0422C46.0352 52.352 46.3258 52.6022 46.6633 52.7698C47.0009 52.9374 47.3746 53.0171 47.7506 53.0017C48.1271 53.0167 48.5013 52.9354 48.8382 52.7652C49.1751 52.5949 49.4637 52.3415 49.6772 52.0283C50.1376 51.3768 50.3678 50.4258 50.3678 49.1754C50.3678 48.0649 50.131 47.1852 49.6575 46.5362C49.4359 46.2353 49.1478 45.9906 48.816 45.8216C48.4842 45.6526 48.1179 45.5639 47.7462 45.5625C47.3744 45.5612 47.0075 45.6472 46.6745 45.8138C46.3416 45.9805 46.0517 46.2231 45.8279 46.5224C45.3584 47.1621 45.1236 48.1176 45.1236 49.3891Z" fill="#425066"/>
<path d="M60.1637 46.0398C59.8349 45.9855 59.5022 45.9583 59.169 45.9587C58.0468 45.9587 57.2915 46.3919 56.903 47.2585V54.7765H54.4585V43.7864H56.7932L56.854 45.015C57.4439 44.0614 58.262 43.5846 59.3083 43.5846C59.603 43.5756 59.8966 43.6232 60.1735 43.725L60.1637 46.0398Z" fill="#425066"/>
<path d="M70.3894 48.5068H64.4919V54.7685H61.9414V39.9917H71.2506V42.0611H64.4919V46.4552H70.3894V48.5068Z" fill="#425066"/>
<path d="M75.2214 54.7684H72.7749V39.9639H75.2214V54.7684Z" fill="#425066"/>
<path d="M77.0125 49.1754C76.9972 48.1696 77.2142 47.1739 77.6462 46.2672C78.0346 45.4431 78.6539 44.7519 79.4276 44.2789C80.2263 43.8068 81.1388 43.5665 82.0644 43.5844C83.5332 43.5844 84.726 44.0612 85.6429 45.0148C86.5597 45.9684 87.0548 47.2333 87.128 48.8094V49.3891C87.1493 50.3908 86.9412 51.384 86.5199 52.2914C86.1374 53.1119 85.5231 53.8002 84.7541 54.2699C83.9487 54.7471 83.0278 54.9896 82.0938 54.9702C80.5557 54.9702 79.3256 54.4545 78.4035 53.4231C77.4814 52.3917 77.0236 51.0167 77.0301 49.2981L77.0125 49.1754ZM79.457 49.3891C79.457 50.5194 79.6885 51.4038 80.1515 52.0422C80.3783 52.3418 80.6709 52.5844 81.0063 52.7509C81.3416 52.9175 81.7107 53.0034 82.0845 53.0021C82.4583 53.0007 82.8267 52.9121 83.1609 52.7432C83.495 52.5742 83.7859 52.3296 84.0106 52.0283C84.4697 51.3768 84.6992 50.4258 84.6992 49.1754C84.6992 48.0649 84.4631 47.1852 83.991 46.5362C83.7749 46.2253 83.4854 45.9735 83.1488 45.8036C82.8121 45.6337 82.4387 45.5509 82.0624 45.5628C81.6915 45.5517 81.3237 45.6335 80.9919 45.801C80.6602 45.9685 80.3748 46.2163 80.1613 46.5224C79.6918 47.1621 79.457 48.1176 79.457 49.3891Z" fill="#425066"/>
<path d="M98.1738 51.3674L99.9042 43.7861H102.29L99.3216 54.7683H97.3106L94.9759 47.2266L92.6805 54.7683H90.6656L87.6973 43.7861H90.0829L91.8487 51.2863L94.0833 43.7861H95.9255L98.1738 51.3674Z" fill="#425066"/>
<defs>
<linearGradient id="paint0_linear_57_522" x1="37.1152" y1="15.0558" x2="68.2055" y2="15.0558" gradientUnits="userSpaceOnUse">
<stop stop-color="#FF6F00"/>
<stop offset="1" stop-color="#FFA800"/>
</linearGradient>
<linearGradient id="paint1_linear_57_522" x1="36.9058" y1="15.0558" x2="67.9961" y2="15.0558" gradientUnits="userSpaceOnUse">
<stop stop-color="#FF6F00"/>
<stop offset="1" stop-color="#FFA800"/>
</linearGradient>
</defs>
</svg>
