<svg width="575" height="573" viewBox="0 0 575 573" fill="none" xmlns="http://www.w3.org/2000/svg">
<g filter="url(#filter0_d_38_419)">
<rect x="54" y="146" width="81" height="81" rx="10" fill="white"/>
</g>
<path d="M112.217 177L94.6811 167L77 177V197L94.5362 207L112.072 197L112.217 177ZM94.5362 203.232L80.1884 195.116V178.884L94.5362 170.768L108.884 178.884V195.116L94.5362 203.232Z" fill="#0079D5"/>
<path d="M80.3333 178.884L94.6811 170.768L109.029 178.884L112.362 177L94.8261 167L77 177L80.3333 178.884Z" fill="url(#paint0_linear_38_419)"/>
<path d="M89.0286 183.667L85.5503 181.783L103.521 172.073L107 174.102L89.0286 183.667Z" fill="url(#paint1_linear_38_419)"/>
<path d="M85.6933 201.927L82.36 200.043L100.041 190.188L103.519 192.072L85.6933 201.927Z" fill="url(#paint2_linear_38_419)"/>
<path d="M90.4788 185.406C90.4788 185.406 94.6817 184.826 98.16 189.319C98.16 189.319 103.377 190.333 101.203 187.29C99.0295 183.956 95.4063 181.927 91.3484 181.782C91.3484 181.782 88.4498 182.797 90.4788 185.406Z" fill="url(#paint3_linear_38_419)"/>
<path d="M101.491 195.116C103.812 195.116 105.694 193.3 105.694 191.058C105.694 188.817 103.812 187 101.491 187C99.1694 187 97.2877 188.817 97.2877 191.058C97.2877 193.3 99.1694 195.116 101.491 195.116Z" fill="url(#paint4_linear_38_419)"/>
<path d="M87.7247 186.856C90.0459 186.856 91.9276 185.039 91.9276 182.798C91.9276 180.557 90.0459 178.74 87.7247 178.74C85.4036 178.74 83.5219 180.557 83.5219 182.798C83.5219 185.039 85.4036 186.856 87.7247 186.856Z" fill="url(#paint5_linear_38_419)"/>
<g filter="url(#filter1_d_38_419)">
<rect x="54" y="242" width="81" height="81" rx="10" fill="white"/>
</g>
<path d="M93.2211 265H77V281.625H93.2211V265Z" fill="#F25022"/>
<path d="M111.151 265H94.9301V281.625H111.151V265Z" fill="#7FBA00"/>
<path d="M93.2211 283.375H77V300H93.2211V283.375Z" fill="#00A4EF"/>
<path d="M111.151 283.375H94.9301V300H111.151V283.375Z" fill="#FFB900"/>
<g filter="url(#filter2_d_38_419)">
<rect x="54" y="338" width="81" height="81" rx="10" fill="white"/>
</g>
<path fill-rule="evenodd" clip-rule="evenodd" d="M108.688 366.844C109.344 366.843 109.985 367.039 110.531 367.406C111.077 367.773 111.502 368.296 111.753 368.907C112.005 369.519 112.071 370.191 111.943 370.841C111.816 371.49 111.5 372.086 111.036 372.555C110.573 373.023 109.982 373.342 109.339 373.471C108.695 373.6 108.029 373.534 107.423 373.281C106.816 373.028 106.298 372.599 105.934 372.049C105.57 371.498 105.375 370.851 105.375 370.19C105.375 369.303 105.724 368.452 106.345 367.825C106.966 367.197 107.809 366.844 108.688 366.844Z" fill="#4184F4"/>
<path fill-rule="evenodd" clip-rule="evenodd" d="M108.688 384.476C109.344 384.475 109.985 384.671 110.531 385.038C111.077 385.405 111.502 385.928 111.753 386.539C112.005 387.151 112.071 387.823 111.943 388.473C111.816 389.122 111.5 389.718 111.036 390.187C110.573 390.655 109.982 390.974 109.339 391.103C108.695 391.232 108.029 391.166 107.423 390.913C106.816 390.66 106.298 390.231 105.934 389.681C105.57 389.131 105.375 388.484 105.375 387.822C105.375 386.935 105.724 386.084 106.345 385.457C106.966 384.829 107.809 384.476 108.688 384.476Z" fill="#4184F4"/>
<path fill-rule="evenodd" clip-rule="evenodd" d="M108.688 375.661C109.344 375.66 109.986 375.856 110.532 376.224C111.078 376.592 111.503 377.115 111.754 377.726C112.005 378.338 112.071 379.012 111.943 379.661C111.814 380.311 111.498 380.907 111.033 381.375C110.569 381.843 109.977 382.161 109.334 382.289C108.69 382.418 108.023 382.351 107.417 382.096C106.811 381.842 106.293 381.411 105.93 380.86C105.567 380.309 105.373 379.661 105.375 378.999C105.375 378.112 105.724 377.261 106.345 376.634C106.966 376.006 107.809 375.653 108.688 375.653V375.661Z" fill="#4184F4"/>
<path fill-rule="evenodd" clip-rule="evenodd" d="M101.266 362.8C101.839 362.799 102.399 362.97 102.875 363.291C103.352 363.612 103.723 364.068 103.942 364.602C104.161 365.135 104.219 365.723 104.107 366.29C103.995 366.856 103.719 367.377 103.314 367.785C102.909 368.194 102.393 368.472 101.831 368.584C101.27 368.696 100.687 368.638 100.159 368.416C99.63 368.194 99.1783 367.819 98.8609 367.338C98.5435 366.857 98.3747 366.292 98.3757 365.714C98.3765 364.941 98.6813 364.199 99.2232 363.652C99.7651 363.105 100.5 362.798 101.266 362.797V362.8Z" fill="#33A852"/>
<path fill-rule="evenodd" clip-rule="evenodd" d="M101.25 389.377C101.823 389.377 102.382 389.547 102.859 389.868C103.335 390.188 103.706 390.644 103.925 391.178C104.145 391.711 104.203 392.298 104.091 392.865C103.98 393.432 103.704 393.952 103.3 394.361C102.895 394.769 102.38 395.048 101.819 395.161C101.257 395.273 100.675 395.216 100.146 394.995C99.6175 394.774 99.1655 394.4 98.8474 393.919C98.5294 393.439 98.3596 392.875 98.3596 392.297C98.3596 391.523 98.6641 390.781 99.2061 390.233C99.7481 389.686 100.483 389.378 101.25 389.377Z" fill="#33A852"/>
<path fill-rule="evenodd" clip-rule="evenodd" d="M101.25 380.568C101.823 380.568 102.382 380.738 102.859 381.059C103.335 381.379 103.706 381.835 103.925 382.369C104.145 382.902 104.203 383.489 104.091 384.056C103.98 384.622 103.704 385.143 103.3 385.552C102.895 385.96 102.38 386.239 101.819 386.351C101.257 386.464 100.675 386.407 100.146 386.186C99.6175 385.965 99.1655 385.591 98.8474 385.11C98.5294 384.63 98.3596 384.066 98.3596 383.488C98.3596 382.714 98.6641 381.972 99.2061 381.424C99.7481 380.877 100.483 380.569 101.25 380.568Z" fill="#33A852"/>
<path fill-rule="evenodd" clip-rule="evenodd" d="M101.25 371.593C101.823 371.592 102.383 371.763 102.859 372.083C103.335 372.404 103.706 372.86 103.926 373.394C104.145 373.927 104.203 374.515 104.091 375.081C103.979 375.648 103.704 376.168 103.299 376.577C102.894 376.985 102.378 377.264 101.817 377.376C101.255 377.489 100.673 377.431 100.144 377.209C99.6157 376.988 99.1638 376.613 98.8461 376.133C98.5284 375.652 98.3591 375.087 98.3596 374.51C98.3596 373.736 98.6642 372.994 99.2063 372.447C99.7484 371.9 100.484 371.593 101.25 371.593Z" fill="#33A852"/>
<path fill-rule="evenodd" clip-rule="evenodd" d="M93.8142 359C94.2959 359 94.7667 359.144 95.1672 359.414C95.5677 359.684 95.8799 360.068 96.0642 360.517C96.2485 360.966 96.2968 361.46 96.2028 361.937C96.1088 362.414 95.8769 362.852 95.5363 363.195C95.1957 363.539 94.7617 363.773 94.2893 363.868C93.8169 363.963 93.3272 363.914 92.8822 363.728C92.4372 363.542 92.0568 363.227 91.7892 362.823C91.5216 362.419 91.3788 361.944 91.3788 361.458C91.3788 360.806 91.6354 360.181 92.0921 359.72C92.5488 359.259 93.1683 359 93.8142 359Z" fill="#FBBB03"/>
<path fill-rule="evenodd" clip-rule="evenodd" d="M93.8142 394.085C94.296 394.085 94.7669 394.229 95.1675 394.499C95.5681 394.769 95.8802 395.153 96.0645 395.602C96.2487 396.052 96.2968 396.546 96.2026 397.023C96.1084 397.5 95.8762 397.938 95.5353 398.281C95.1944 398.625 94.7602 398.859 94.2876 398.953C93.815 399.048 93.3253 398.999 92.8803 398.812C92.4353 398.626 92.0552 398.31 91.7879 397.906C91.5206 397.501 91.3782 397.026 91.3788 396.54C91.3788 396.217 91.4418 395.898 91.5642 395.599C91.6866 395.301 91.8661 395.031 92.0923 394.803C92.3184 394.575 92.5869 394.394 92.8824 394.271C93.1779 394.148 93.4945 394.084 93.8142 394.085Z" fill="#FBBB03"/>
<path fill-rule="evenodd" clip-rule="evenodd" d="M93.8142 385.287C94.2952 385.287 94.7653 385.432 95.165 385.702C95.5646 385.972 95.876 386.355 96.0597 386.804C96.2434 387.253 96.2912 387.746 96.197 388.222C96.1028 388.698 95.8709 389.135 95.5306 389.478C95.1903 389.821 94.7568 390.055 94.285 390.149C93.8132 390.244 93.3242 390.195 92.8799 390.009C92.4355 389.823 92.0558 389.509 91.7886 389.105C91.5214 388.701 91.3788 388.227 91.3788 387.741C91.3788 387.419 91.4418 387.099 91.5642 386.801C91.6866 386.503 91.8661 386.233 92.0923 386.005C92.3184 385.777 92.5869 385.596 92.8824 385.473C93.1779 385.35 93.4945 385.286 93.8142 385.287Z" fill="#FBBB03"/>
<path fill-rule="evenodd" clip-rule="evenodd" d="M93.8142 376.533C94.2959 376.533 94.7667 376.677 95.1672 376.947C95.5677 377.217 95.8799 377.601 96.0642 378.05C96.2485 378.499 96.2968 378.993 96.2028 379.47C96.1088 379.947 95.8769 380.384 95.5363 380.728C95.1957 381.072 94.7617 381.306 94.2893 381.401C93.8169 381.496 93.3272 381.447 92.8822 381.261C92.4372 381.075 92.0568 380.76 91.7892 380.356C91.5216 379.952 91.3788 379.476 91.3788 378.99C91.3784 378.667 91.4412 378.348 91.5634 378.049C91.6857 377.751 91.8651 377.48 92.0913 377.252C92.3175 377.023 92.5861 376.842 92.8818 376.719C93.1774 376.596 93.4943 376.532 93.8142 376.533Z" fill="#FBBB03"/>
<path fill-rule="evenodd" clip-rule="evenodd" d="M93.8142 367.762C94.2952 367.763 94.7653 367.907 95.165 368.177C95.5646 368.447 95.876 368.831 96.0597 369.279C96.2434 369.728 96.2912 370.221 96.197 370.697C96.1028 371.173 95.8709 371.611 95.5306 371.954C95.1903 372.297 94.7568 372.53 94.285 372.625C93.8132 372.719 93.3242 372.67 92.8799 372.485C92.4355 372.299 92.0558 371.984 91.7886 371.58C91.5214 371.177 91.3788 370.702 91.3788 370.217C91.3788 369.894 91.4418 369.575 91.5642 369.277C91.6866 368.979 91.8661 368.708 92.0923 368.48C92.3184 368.252 92.5869 368.071 92.8824 367.948C93.1779 367.825 93.4945 367.762 93.8142 367.762Z" fill="#FBBB03"/>
<path fill-rule="evenodd" clip-rule="evenodd" d="M86.2889 363.686C86.7076 363.686 87.117 363.811 87.4652 364.046C87.8134 364.281 88.0847 364.614 88.245 365.005C88.4052 365.395 88.4472 365.825 88.3655 366.239C88.2838 366.654 88.0821 367.034 87.786 367.333C87.4899 367.632 87.1127 367.835 86.702 367.918C86.2912 368 85.8655 367.958 85.4787 367.796C85.0918 367.635 84.7611 367.361 84.5285 367.009C84.2958 366.658 84.1716 366.245 84.1716 365.822C84.1713 365.542 84.2258 365.264 84.3321 365.004C84.4383 364.745 84.5943 364.509 84.791 364.311C84.9876 364.112 85.2212 363.955 85.4782 363.848C85.7353 363.74 86.0108 363.685 86.2889 363.686Z" fill="#E94234"/>
<path fill-rule="evenodd" clip-rule="evenodd" d="M86.2889 390.041C86.7076 390.041 87.117 390.167 87.4652 390.401C87.8134 390.636 88.0847 390.97 88.245 391.36C88.4052 391.751 88.4472 392.18 88.3655 392.595C88.2838 393.009 88.0821 393.39 87.786 393.689C87.4899 393.987 87.1127 394.191 86.702 394.273C86.2912 394.356 85.8655 394.313 85.4787 394.152C85.0918 393.99 84.7611 393.716 84.5285 393.365C84.2958 393.013 84.1716 392.6 84.1716 392.178C84.1716 391.611 84.3947 391.068 84.7918 390.667C85.1888 390.266 85.7274 390.041 86.2889 390.041Z" fill="#E94234"/>
<path fill-rule="evenodd" clip-rule="evenodd" d="M86.2889 381.34C86.7076 381.34 87.117 381.465 87.4652 381.7C87.8134 381.935 88.0847 382.269 88.245 382.659C88.4052 383.049 88.4472 383.479 88.3655 383.893C88.2838 384.308 88.0821 384.689 87.786 384.987C87.4899 385.286 87.1127 385.49 86.702 385.572C86.2912 385.655 85.8655 385.612 85.4787 385.451C85.0918 385.289 84.7611 385.015 84.5285 384.664C84.2958 384.312 84.1716 383.899 84.1716 383.477C84.1716 382.91 84.3947 382.367 84.7918 381.966C85.1888 381.565 85.7274 381.34 86.2889 381.34Z" fill="#E94234"/>
<path fill-rule="evenodd" clip-rule="evenodd" d="M86.2889 372.384C86.7078 372.384 87.1172 372.509 87.4655 372.744C87.8137 372.979 88.0851 373.313 88.2452 373.704C88.4054 374.094 88.4472 374.524 88.3653 374.938C88.2834 375.353 88.0814 375.734 87.7851 376.032C87.4887 376.331 87.1112 376.534 86.7003 376.616C86.2894 376.699 85.8636 376.656 85.4768 376.494C85.0899 376.332 84.7594 376.057 84.5271 375.706C84.2948 375.354 84.1711 374.941 84.1716 374.518C84.1716 374.237 84.2264 373.96 84.3329 373.701C84.4393 373.442 84.5953 373.206 84.7919 373.008C84.9886 372.81 85.222 372.653 85.4789 372.546C85.7357 372.439 86.011 372.384 86.2889 372.384Z" fill="#E94234"/>
<path fill-rule="evenodd" clip-rule="evenodd" d="M78.7635 368.379C79.1122 368.379 79.4532 368.484 79.7432 368.679C80.0332 368.875 80.2592 369.153 80.3927 369.478C80.5262 369.803 80.5611 370.161 80.4931 370.506C80.425 370.851 80.2571 371.168 80.0104 371.417C79.7638 371.666 79.4496 371.836 79.1075 371.904C78.7654 371.973 78.4109 371.938 78.0886 371.803C77.7664 371.668 77.491 371.44 77.2972 371.148C77.1034 370.855 77 370.511 77 370.159C77 369.687 77.1858 369.234 77.5165 368.901C77.8472 368.567 78.2958 368.379 78.7635 368.379Z" fill="#4184F4"/>
<path fill-rule="evenodd" clip-rule="evenodd" d="M78.7635 386.034C79.1122 386.034 79.4532 386.138 79.7432 386.334C80.0332 386.529 80.2592 386.807 80.3927 387.132C80.5262 387.458 80.5611 387.815 80.4931 388.161C80.425 388.506 80.2571 388.823 80.0104 389.072C79.7638 389.321 79.4496 389.49 79.1075 389.559C78.7654 389.628 78.4109 389.592 78.0886 389.458C77.7664 389.323 77.491 389.095 77.2972 388.802C77.1034 388.51 77 388.165 77 387.813C77 387.342 77.1858 386.889 77.5165 386.555C77.8472 386.221 78.2958 386.034 78.7635 386.034Z" fill="#4184F4"/>
<path fill-rule="evenodd" clip-rule="evenodd" d="M78.7635 377.219C79.1122 377.219 79.4532 377.323 79.7432 377.519C80.0332 377.714 80.2592 377.992 80.3927 378.318C80.5262 378.643 80.5611 379.001 80.4931 379.346C80.425 379.691 80.2571 380.008 80.0104 380.257C79.7638 380.506 79.4496 380.675 79.1075 380.744C78.7654 380.813 78.4109 380.777 78.0886 380.643C77.7664 380.508 77.491 380.28 77.2972 379.987C77.1034 379.695 77 379.351 77 378.999C77 378.527 77.1858 378.074 77.5165 377.74C77.8472 377.406 78.2958 377.219 78.7635 377.219Z" fill="#4184F4"/>
<g filter="url(#filter3_d_38_419)">
<rect x="150" y="98" width="81" height="81" rx="10" fill="white"/>
</g>
<path d="M212.663 132.659C212.428 131.902 211.863 131.287 211.157 130.909L196.807 124C196.431 123.811 196.008 123.763 195.631 123.763C195.255 123.763 194.831 123.763 194.455 123.858L180.105 130.814C179.399 131.145 178.882 131.76 178.694 132.565L175.165 148.133C175.024 148.938 175.212 149.742 175.683 150.405L185.61 162.755C186.174 163.323 186.974 163.702 187.774 163.749H203.582C204.429 163.843 205.229 163.465 205.747 162.755L215.674 150.405C216.145 149.742 216.333 148.938 216.239 148.133L212.663 132.659Z" fill="#326DE6"/>
<path d="M210.452 147.518C210.405 147.518 210.358 147.518 210.358 147.471C210.358 147.423 210.264 147.423 210.17 147.423C209.982 147.376 209.793 147.376 209.605 147.376C209.511 147.376 209.417 147.376 209.323 147.329H209.276C208.758 147.281 208.194 147.187 207.676 147.045C207.535 146.997 207.394 146.855 207.347 146.714L206.971 146.619C207.159 145.247 207.065 143.827 206.782 142.455C206.453 141.082 205.888 139.757 205.136 138.574L205.418 138.291V138.243C205.418 138.101 205.465 137.912 205.559 137.817C205.983 137.439 206.406 137.155 206.876 136.871C206.971 136.824 207.065 136.776 207.159 136.729C207.347 136.634 207.488 136.54 207.676 136.445C207.723 136.398 207.77 136.398 207.817 136.35C207.864 136.303 207.817 136.303 207.817 136.256C208.241 135.924 208.335 135.357 208.006 134.931C207.864 134.741 207.582 134.6 207.347 134.6C207.112 134.6 206.876 134.694 206.688 134.836L206.641 134.883C206.594 134.931 206.547 134.978 206.5 134.978C206.359 135.12 206.218 135.262 206.124 135.404C206.077 135.499 205.983 135.546 205.935 135.593C205.606 135.972 205.183 136.35 204.759 136.634C204.665 136.682 204.571 136.729 204.477 136.729C204.43 136.729 204.336 136.729 204.289 136.682H204.242L203.865 136.918C203.489 136.54 203.065 136.161 202.689 135.783C200.948 134.41 198.784 133.558 196.573 133.322L196.526 132.943V132.991C196.385 132.896 196.338 132.754 196.29 132.612C196.29 132.092 196.29 131.571 196.385 131.003V130.956C196.385 130.861 196.432 130.767 196.432 130.672C196.479 130.483 196.479 130.293 196.526 130.104V129.82C196.573 129.347 196.196 128.874 195.726 128.826C195.444 128.779 195.161 128.921 194.926 129.158C194.738 129.347 194.644 129.584 194.644 129.82V130.057C194.644 130.246 194.691 130.435 194.738 130.625C194.785 130.719 194.785 130.814 194.785 130.909V130.956C194.879 131.476 194.879 131.997 194.879 132.565C194.832 132.707 194.785 132.849 194.644 132.943V133.038L194.597 133.417C194.079 133.464 193.562 133.558 192.997 133.653C190.786 134.126 188.763 135.309 187.21 136.966L186.928 136.776H186.881C186.834 136.776 186.787 136.824 186.693 136.824C186.598 136.824 186.504 136.776 186.41 136.729C185.987 136.398 185.563 136.019 185.234 135.641C185.187 135.546 185.093 135.499 185.046 135.451C184.905 135.309 184.811 135.167 184.669 135.025C184.622 134.978 184.575 134.978 184.528 134.931C184.481 134.883 184.481 134.883 184.481 134.883C184.293 134.741 184.058 134.647 183.823 134.647C183.54 134.647 183.305 134.741 183.164 134.978C182.882 135.404 182.976 135.972 183.352 136.303C183.399 136.303 183.399 136.35 183.399 136.35C183.399 136.35 183.493 136.445 183.54 136.445C183.681 136.54 183.87 136.634 184.058 136.729C184.152 136.776 184.246 136.824 184.34 136.871C184.811 137.155 185.281 137.439 185.657 137.817C185.752 137.912 185.846 138.101 185.799 138.243V138.196L186.081 138.48C186.034 138.574 185.987 138.622 185.94 138.716C184.481 141.035 183.87 143.78 184.293 146.477L183.917 146.572C183.917 146.619 183.87 146.619 183.87 146.619C183.823 146.761 183.681 146.855 183.54 146.95C183.023 147.092 182.505 147.187 181.941 147.234C181.846 147.234 181.752 147.234 181.658 147.281C181.47 147.281 181.282 147.329 181.094 147.329C181.047 147.329 181 147.376 180.906 147.376C180.858 147.376 180.858 147.376 180.811 147.423C180.294 147.518 179.965 147.991 180.059 148.512C180.153 148.938 180.576 149.222 181 149.174C181.094 149.174 181.141 149.174 181.235 149.127C181.282 149.127 181.282 149.127 181.282 149.08C181.282 149.032 181.423 149.08 181.47 149.08C181.658 149.032 181.846 148.938 181.988 148.89C182.082 148.843 182.176 148.796 182.27 148.796H182.317C182.835 148.606 183.305 148.464 183.87 148.37H183.917C184.058 148.37 184.199 148.417 184.293 148.512C184.34 148.512 184.34 148.559 184.34 148.559L184.764 148.512C185.469 150.688 186.787 152.629 188.622 154.048C189.045 154.379 189.421 154.663 189.892 154.9L189.657 155.231C189.657 155.279 189.704 155.279 189.704 155.279C189.798 155.42 189.798 155.61 189.751 155.752C189.562 156.225 189.28 156.698 188.998 157.124V157.171C188.951 157.266 188.904 157.313 188.81 157.408C188.716 157.503 188.622 157.692 188.48 157.881C188.433 157.928 188.433 157.976 188.386 158.023C188.386 158.023 188.386 158.07 188.339 158.07C188.104 158.544 188.292 159.111 188.716 159.348C188.81 159.395 188.951 159.443 189.045 159.443C189.421 159.443 189.751 159.206 189.939 158.875C189.939 158.875 189.939 158.828 189.986 158.828C189.986 158.78 190.033 158.733 190.08 158.686C190.127 158.496 190.221 158.354 190.268 158.165L190.362 157.881C190.503 157.361 190.739 156.887 190.974 156.414C191.068 156.272 191.209 156.178 191.35 156.13C191.397 156.13 191.397 156.13 191.397 156.083L191.586 155.704C192.903 156.225 194.267 156.462 195.679 156.462C196.526 156.462 197.373 156.367 198.219 156.13C198.737 156.036 199.255 155.846 199.725 155.704L199.913 156.036C199.96 156.036 199.96 156.036 199.96 156.083C200.101 156.13 200.243 156.225 200.337 156.367C200.572 156.84 200.807 157.313 200.948 157.834V157.881L201.042 158.165C201.089 158.354 201.136 158.544 201.231 158.686C201.278 158.733 201.278 158.78 201.325 158.828C201.325 158.828 201.325 158.875 201.372 158.875C201.56 159.206 201.889 159.443 202.266 159.443C202.407 159.443 202.501 159.395 202.642 159.348C202.83 159.253 203.018 159.064 203.065 158.828C203.113 158.591 203.113 158.354 203.018 158.118C203.018 158.07 202.971 158.07 202.971 158.07C202.971 158.023 202.924 157.976 202.877 157.928C202.783 157.739 202.689 157.597 202.548 157.455C202.501 157.361 202.454 157.313 202.36 157.219V157.124C202.03 156.698 201.795 156.225 201.607 155.752C201.56 155.61 201.56 155.42 201.654 155.279C201.654 155.231 201.701 155.231 201.701 155.231L201.56 154.853C203.959 153.386 205.794 151.114 206.641 148.417L207.018 148.464C207.065 148.464 207.065 148.417 207.065 148.417C207.159 148.322 207.3 148.275 207.441 148.275H207.488C208.006 148.37 208.523 148.512 208.994 148.701H209.041C209.135 148.748 209.229 148.796 209.323 148.796C209.511 148.89 209.652 148.985 209.841 149.032C209.888 149.032 209.935 149.08 210.029 149.08C210.076 149.08 210.076 149.08 210.123 149.127C210.217 149.174 210.264 149.174 210.358 149.174C210.782 149.174 211.158 148.89 211.299 148.512C211.252 147.991 210.876 147.613 210.452 147.518ZM196.855 146.051L195.585 146.666L194.314 146.051L193.985 144.679L194.879 143.543H196.29L197.184 144.679L196.855 146.051ZM204.524 142.975C204.759 143.969 204.806 144.963 204.712 145.956L200.243 144.679C199.819 144.584 199.584 144.158 199.678 143.732C199.725 143.59 199.772 143.496 199.866 143.401L203.395 140.183C203.912 141.035 204.289 141.981 204.524 142.975ZM201.983 138.432L198.125 141.177C197.796 141.366 197.326 141.319 197.09 140.988C196.996 140.893 196.949 140.798 196.949 140.657L196.667 135.877C198.737 136.114 200.572 137.013 201.983 138.432ZM193.468 136.019L194.409 135.83L194.173 140.562C194.173 140.988 193.797 141.319 193.373 141.319C193.232 141.319 193.138 141.272 192.997 141.224L189.092 138.432C190.315 137.249 191.821 136.398 193.468 136.019ZM187.728 140.183L191.209 143.306C191.539 143.59 191.586 144.064 191.303 144.395C191.209 144.537 191.115 144.584 190.927 144.631L186.363 145.956C186.222 143.969 186.693 141.934 187.728 140.183ZM186.928 148.18L191.586 147.376C191.962 147.376 192.338 147.613 192.385 147.991C192.432 148.133 192.432 148.322 192.338 148.464L190.551 152.818C188.904 151.729 187.586 150.073 186.928 148.18ZM197.608 154.048C196.949 154.19 196.29 154.285 195.585 154.285C194.597 154.285 193.562 154.095 192.621 153.812L194.926 149.6C195.161 149.316 195.538 149.222 195.867 149.411C196.008 149.505 196.102 149.6 196.243 149.742L198.502 153.859C198.219 153.906 197.937 153.954 197.608 154.048ZM203.348 149.931C202.642 151.067 201.654 152.061 200.525 152.771L198.69 148.322C198.596 147.944 198.784 147.565 199.113 147.423C199.255 147.376 199.396 147.329 199.537 147.329L204.242 148.133C204.006 148.796 203.724 149.411 203.348 149.931Z" fill="white"/>
<g filter="url(#filter4_d_38_419)">
<rect x="150" y="194" width="81" height="81" rx="10" fill="white"/>
</g>
<path d="M197.453 217.773V247.773C197.453 251.132 199.811 253 202.312 253C204.626 253 207.172 251.409 207.172 247.773V218C207.172 214.925 204.858 213 202.312 213C199.767 213 197.453 215.124 197.453 217.773Z" fill="#F8AB00"/>
<path d="M184.726 233V247.773C184.726 251.132 187.084 253 189.586 253C191.9 253 194.445 251.409 194.445 247.773V233.227C194.445 230.152 192.131 228.227 189.586 228.227C187.04 228.227 184.726 230.351 184.726 233Z" fill="#E37300"/>
<path d="M181.718 248.227C181.718 250.862 179.542 253 176.859 253C174.177 253 172 250.862 172 248.227C172 245.592 174.177 243.455 176.859 243.455C179.542 243.455 181.718 245.592 181.718 248.227Z" fill="#E37300"/>
<g filter="url(#filter5_d_38_419)">
<rect x="150" y="290" width="81" height="81" rx="10" fill="white"/>
</g>
<path d="M194.532 331.243C194.532 331.302 194.531 331.36 194.528 331.419C194.525 331.477 194.521 331.536 194.515 331.594C194.509 331.653 194.502 331.711 194.494 331.769C194.485 331.827 194.475 331.884 194.464 331.942C194.453 331.999 194.44 332.056 194.426 332.113C194.412 332.17 194.397 332.227 194.38 332.283C194.363 332.339 194.345 332.394 194.325 332.45C194.306 332.505 194.285 332.559 194.263 332.614C194.241 332.668 194.217 332.721 194.193 332.774C194.168 332.827 194.142 332.88 194.115 332.931C194.087 332.983 194.059 333.034 194.029 333.084C193.999 333.134 193.969 333.184 193.936 333.233C193.904 333.281 193.871 333.329 193.836 333.376C193.802 333.423 193.766 333.47 193.73 333.515C193.693 333.56 193.655 333.605 193.617 333.648C193.578 333.691 193.538 333.734 193.497 333.775C193.456 333.817 193.414 333.857 193.371 333.896C193.328 333.936 193.285 333.974 193.24 334.011C193.195 334.048 193.15 334.084 193.103 334.119C193.057 334.154 193.009 334.188 192.961 334.22C192.913 334.253 192.864 334.284 192.815 334.315C192.765 334.345 192.715 334.374 192.664 334.401C192.613 334.429 192.561 334.455 192.509 334.48C192.457 334.505 192.404 334.529 192.35 334.551C192.297 334.574 192.243 334.595 192.189 334.615C192.134 334.634 192.079 334.653 192.024 334.67C191.969 334.687 191.913 334.702 191.857 334.717C191.801 334.731 191.744 334.744 191.687 334.755C191.631 334.767 191.574 334.777 191.516 334.785C191.459 334.794 191.402 334.801 191.344 334.807C191.287 334.812 191.229 334.817 191.171 334.82C191.114 334.823 191.056 334.824 190.998 334.824C190.94 334.824 190.882 334.823 190.825 334.82C190.767 334.817 190.709 334.812 190.652 334.807C190.594 334.801 190.537 334.794 190.479 334.785C190.422 334.777 190.365 334.767 190.309 334.755C190.252 334.744 190.195 334.731 190.139 334.717C190.083 334.702 190.027 334.687 189.972 334.67C189.917 334.653 189.862 334.634 189.807 334.615C189.753 334.595 189.699 334.574 189.646 334.551C189.592 334.529 189.539 334.505 189.487 334.48C189.435 334.455 189.383 334.429 189.332 334.401C189.281 334.374 189.231 334.345 189.181 334.315C189.132 334.284 189.083 334.253 189.035 334.22C188.987 334.188 188.939 334.154 188.893 334.119C188.846 334.084 188.801 334.048 188.756 334.011C188.711 333.974 188.668 333.936 188.625 333.896C188.582 333.857 188.54 333.817 188.499 333.775C188.458 333.734 188.418 333.691 188.379 333.648C188.341 333.605 188.303 333.56 188.266 333.515C188.229 333.47 188.194 333.423 188.159 333.376C188.125 333.329 188.092 333.281 188.06 333.233C188.027 333.184 187.996 333.134 187.967 333.084C187.937 333.034 187.909 332.983 187.881 332.931C187.854 332.88 187.828 332.827 187.803 332.774C187.779 332.721 187.755 332.668 187.733 332.614C187.711 332.559 187.69 332.505 187.671 332.45C187.651 332.394 187.633 332.339 187.616 332.283C187.599 332.227 187.584 332.17 187.57 332.113C187.556 332.056 187.543 331.999 187.532 331.942C187.521 331.884 187.511 331.827 187.502 331.769C187.494 331.711 187.487 331.653 187.481 331.594C187.475 331.536 187.471 331.477 187.468 331.419C187.465 331.36 187.464 331.302 187.464 331.243C187.464 331.185 187.465 331.126 187.468 331.068C187.471 331.009 187.475 330.951 187.481 330.892C187.487 330.834 187.494 330.776 187.502 330.718C187.511 330.66 187.521 330.602 187.532 330.545C187.543 330.487 187.556 330.43 187.57 330.373C187.584 330.316 187.599 330.26 187.616 330.204C187.633 330.148 187.651 330.092 187.671 330.037C187.69 329.982 187.711 329.927 187.733 329.873C187.755 329.819 187.779 329.765 187.803 329.712C187.828 329.659 187.854 329.607 187.881 329.555C187.909 329.504 187.937 329.453 187.967 329.402C187.996 329.352 188.027 329.303 188.06 329.254C188.092 329.205 188.125 329.157 188.159 329.11C188.194 329.063 188.229 329.017 188.266 328.972C188.303 328.926 188.341 328.882 188.379 328.839C188.418 328.795 188.458 328.753 188.499 328.711C188.54 328.67 188.582 328.629 188.625 328.59C188.668 328.551 188.711 328.512 188.756 328.475C188.801 328.438 188.846 328.402 188.893 328.367C188.939 328.332 188.987 328.299 189.035 328.266C189.083 328.233 189.132 328.202 189.181 328.172C189.231 328.142 189.281 328.113 189.332 328.085C189.383 328.058 189.435 328.031 189.487 328.006C189.539 327.981 189.592 327.958 189.646 327.935C189.699 327.913 189.753 327.892 189.807 327.872C189.862 327.852 189.917 327.834 189.972 327.817C190.027 327.8 190.083 327.784 190.139 327.77C190.195 327.756 190.252 327.743 190.309 327.731C190.365 327.72 190.422 327.71 190.479 327.701C190.537 327.693 190.594 327.686 190.652 327.68C190.709 327.674 190.767 327.67 190.825 327.667C190.882 327.664 190.94 327.663 190.998 327.663C191.056 327.663 191.114 327.664 191.171 327.667C191.229 327.67 191.287 327.674 191.344 327.68C191.402 327.686 191.459 327.693 191.516 327.701C191.574 327.71 191.631 327.72 191.687 327.731C191.744 327.743 191.801 327.756 191.857 327.77C191.913 327.784 191.969 327.8 192.024 327.817C192.079 327.834 192.134 327.852 192.189 327.872C192.243 327.892 192.297 327.913 192.35 327.935C192.404 327.958 192.457 327.981 192.509 328.006C192.561 328.031 192.613 328.058 192.664 328.085C192.715 328.113 192.765 328.142 192.815 328.172C192.864 328.202 192.913 328.233 192.961 328.266C193.009 328.299 193.057 328.332 193.103 328.367C193.15 328.402 193.195 328.438 193.24 328.475C193.285 328.512 193.328 328.551 193.371 328.59C193.414 328.629 193.456 328.67 193.497 328.711C193.538 328.753 193.578 328.795 193.617 328.839C193.655 328.882 193.693 328.926 193.73 328.972C193.766 329.017 193.802 329.063 193.836 329.11C193.871 329.157 193.904 329.205 193.936 329.254C193.969 329.303 193.999 329.352 194.029 329.402C194.059 329.453 194.087 329.504 194.115 329.555C194.142 329.607 194.168 329.659 194.193 329.712C194.217 329.765 194.241 329.819 194.263 329.873C194.285 329.927 194.306 329.982 194.325 330.037C194.345 330.092 194.363 330.148 194.38 330.204C194.397 330.26 194.412 330.316 194.426 330.373C194.44 330.43 194.453 330.487 194.464 330.545C194.475 330.602 194.485 330.66 194.494 330.718C194.502 330.776 194.509 330.834 194.515 330.892C194.521 330.951 194.525 331.009 194.528 331.068C194.531 331.126 194.532 331.185 194.532 331.243Z" fill="#00D8FF"/>
<mask id="mask0_38_419" style="mask-type:luminance" maskUnits="userSpaceOnUse" x="171" y="314" width="40" height="35">
<path d="M171.21 314.264H210.786V348.313H171.21V314.264Z" fill="white"/>
</mask>
<g mask="url(#mask0_38_419)">
<path d="M190.998 323.963C195.743 323.963 200.151 324.652 203.474 325.812C207.479 327.209 209.941 329.326 209.941 331.243C209.941 333.241 207.331 335.49 203.031 336.934C199.78 338.025 195.502 338.595 190.998 338.595C186.38 338.595 182.007 338.06 178.719 336.922C174.56 335.481 172.054 333.203 172.054 331.243C172.054 329.341 174.405 327.24 178.353 325.846C181.689 324.667 186.206 323.963 190.997 323.963H190.998Z" stroke="#00D8FF" stroke-width="1.5"/>
</g>
<mask id="mask1_38_419" style="mask-type:luminance" maskUnits="userSpaceOnUse" x="171" y="312" width="40" height="39">
<path d="M171.21 312.503H210.786V350.05H171.21V312.503Z" fill="white"/>
</mask>
<g mask="url(#mask1_38_419)">
<path d="M184.743 327.623C187.114 323.459 189.906 319.935 192.557 317.596C195.752 314.779 198.791 313.676 200.431 314.634C202.139 315.632 202.758 319.046 201.844 323.542C201.154 326.94 199.503 330.98 197.253 334.933C194.946 338.987 192.304 342.558 189.689 344.874C186.379 347.805 183.179 348.866 181.504 347.887C179.878 346.937 179.257 343.824 180.037 339.662C180.696 336.145 182.349 331.829 184.742 327.624L184.743 327.623Z" stroke="#00D8FF" stroke-width="1.5"/>
<path d="M184.749 334.943C182.372 330.784 180.753 326.573 180.078 323.077C179.265 318.866 179.84 315.646 181.477 314.686C183.184 313.685 186.412 314.846 189.8 317.893C192.361 320.197 194.991 323.663 197.247 327.612C199.561 331.662 201.295 335.764 201.969 339.217C202.823 343.586 202.132 346.924 200.458 347.906C198.834 348.859 195.862 347.85 192.692 345.087C190.014 342.752 187.149 339.144 184.749 334.943L184.749 334.943Z" stroke="#00D8FF" stroke-width="1.5"/>
</g>
<g filter="url(#filter6_d_38_419)">
<rect x="150" y="386" width="81" height="81" rx="10" fill="white"/>
</g>
<mask id="mask2_38_419" style="mask-type:luminance" maskUnits="userSpaceOnUse" x="191" y="407" width="18" height="40">
<path d="M208.423 416.759L191.485 407V447L198.252 443.04V431.786L203.362 434.769L203.333 427.069L198.252 424.141V419.671L208.446 425.61L208.423 416.759Z" fill="white"/>
</mask>
<g mask="url(#mask2_38_419)">
<path d="M213.056 406.854H171.46V447.05H213.056V406.854Z" fill="url(#paint6_linear_38_419)"/>
</g>
<mask id="mask3_38_419" style="mask-type:luminance" maskUnits="userSpaceOnUse" x="173" y="407" width="17" height="40">
<path d="M173.024 416.759L189.962 407V447L183.195 443.04V419.671L173 425.61L173.024 416.759Z" fill="white"/>
</mask>
<g mask="url(#mask3_38_419)">
<path d="M212.774 406.854H171.179V447.05H212.774V406.854Z" fill="url(#paint7_linear_38_419)"/>
</g>
<g filter="url(#filter7_d_38_419)">
<rect x="248" y="50" width="81" height="81" rx="10" fill="white"/>
</g>
<g clip-path="url(#clip0_38_419)">
<path d="M276.083 71H301.917C302.847 70.9991 303.769 71.1864 304.628 71.5512C305.488 71.916 306.269 72.4511 306.927 73.1259C307.585 73.8006 308.107 74.6019 308.463 75.4837C308.818 76.3655 309.001 77.3107 309 78.265V103.735C309.001 104.689 308.818 105.634 308.463 106.516C308.107 107.398 307.585 108.199 306.927 108.874C306.269 109.549 305.488 110.084 304.628 110.449C303.769 110.814 302.847 111.001 301.917 111H276.083C275.153 111.001 274.232 110.814 273.372 110.449C272.512 110.084 271.731 109.549 271.073 108.874C270.415 108.199 269.893 107.398 269.538 106.516C269.182 105.634 268.999 104.689 269 103.735V78.265C268.999 77.3107 269.182 76.3655 269.538 75.4837C269.893 74.6019 270.415 73.8006 271.073 73.1259C271.731 72.4511 272.512 71.916 273.372 71.5512C274.232 71.1864 275.153 70.9991 276.083 71Z" fill="#F7DF1E"/>
<path d="M295.938 102.298C296.744 103.614 297.792 104.581 299.646 104.581C301.203 104.581 302.198 103.802 302.198 102.727C302.198 101.438 301.176 100.982 299.462 100.232L298.522 99.8285C295.81 98.673 294.008 97.2253 294.008 94.165C294.008 91.346 296.156 89.2 299.512 89.2C301.902 89.2 303.62 90.0317 304.859 92.2095L301.932 94.0888C301.287 92.9333 300.592 92.478 299.512 92.478C298.412 92.478 297.714 93.1765 297.714 94.0888C297.714 95.2165 298.412 95.673 300.025 96.3714L300.965 96.7739C304.158 98.1434 305.961 99.5396 305.961 102.679C305.961 106.063 303.303 107.917 299.733 107.917C296.242 107.917 293.987 106.253 292.883 104.073L295.938 102.298ZM282.66 102.624C283.25 103.672 283.787 104.557 285.079 104.557C286.314 104.557 287.093 104.074 287.093 102.196V89.4146H290.852V102.246C290.852 106.138 288.57 107.91 285.239 107.91C282.229 107.91 280.486 106.352 279.6 104.476L282.66 102.624Z" fill="#1F1E22"/>
</g>
<g filter="url(#filter8_d_38_419)">
<rect x="248" y="146" width="81" height="81" rx="10" fill="white"/>
</g>
<g clip-path="url(#clip1_38_419)">
<path d="M299.129 198.543H298.975V198.458H299.391V198.543H299.237V198.963H299.129V198.543ZM299.959 198.565H299.957L299.804 198.964H299.733L299.581 198.565H299.579V198.964H299.478V198.459H299.627L299.768 198.816L299.909 198.459H300.058V198.964H299.959V198.565H299.959Z" fill="#E76F00"/>
<path d="M285.293 188.218C285.293 188.218 284.217 188.827 286.058 189.034C288.288 189.282 289.428 189.246 291.885 188.793C291.885 188.793 292.531 189.188 293.433 189.53C287.925 191.832 280.966 189.397 285.293 188.218Z" fill="#5382A1"/>
<path d="M284.62 185.214C284.62 185.214 283.414 186.085 285.256 186.271C287.638 186.51 289.519 186.53 292.774 185.919C292.774 185.919 293.224 186.364 293.932 186.607C287.272 188.506 279.853 186.757 284.62 185.214Z" fill="#5382A1"/>
<path d="M290.295 180.119C291.652 181.642 289.938 183.013 289.938 183.013C289.938 183.013 293.385 181.279 291.802 179.106C290.324 177.081 289.19 176.074 295.327 172.604C295.327 172.604 285.694 174.95 290.295 180.119Z" fill="#E76F00"/>
<path d="M297.58 190.44C297.58 190.44 298.376 191.079 296.704 191.573C293.524 192.513 283.47 192.796 280.677 191.611C279.673 191.185 281.556 190.594 282.148 190.47C282.765 190.339 283.118 190.364 283.118 190.364C282.002 189.597 275.901 191.87 280.02 192.521C291.251 194.296 300.494 191.721 297.58 190.44Z" fill="#5382A1"/>
<path d="M285.81 182.102C285.81 182.102 280.696 183.287 283.999 183.717C285.394 183.899 288.174 183.857 290.764 183.646C292.881 183.472 295.006 183.102 295.006 183.102C295.006 183.102 294.26 183.413 293.72 183.773C288.526 185.105 278.493 184.485 281.381 183.123C283.824 181.972 285.81 182.102 285.81 182.102Z" fill="#5382A1"/>
<path d="M294.985 187.102C300.264 184.427 297.823 181.857 296.119 182.203C295.702 182.288 295.515 182.361 295.515 182.361C295.515 182.361 295.671 182.124 295.967 182.022C299.337 180.866 301.93 185.43 294.879 187.237C294.879 187.237 294.96 187.166 294.985 187.102Z" fill="#5382A1"/>
<path d="M291.801 167C291.801 167 294.725 169.852 289.028 174.237C284.46 177.755 287.986 179.76 289.026 182.052C286.36 179.706 284.403 177.641 285.715 175.719C287.643 172.898 292.981 171.53 291.801 167Z" fill="#E76F00"/>
<path d="M286.329 194.35C291.396 194.666 299.178 194.175 299.363 191.837C299.363 191.837 299.009 192.723 295.175 193.427C290.849 194.22 285.515 194.128 282.35 193.619C282.351 193.619 282.998 194.142 286.329 194.35Z" fill="#5382A1"/>
<path d="M285.498 203.284C285.02 203.688 284.515 203.915 284.062 203.915C283.415 203.915 283.066 203.537 283.066 202.93C283.066 202.274 283.44 201.795 284.942 201.795H285.498V203.284H285.498ZM286.817 204.735V200.243C286.817 199.096 286.146 198.338 284.528 198.338C283.583 198.338 282.755 198.566 282.082 198.856L282.277 199.651C282.806 199.462 283.492 199.285 284.165 199.285C285.097 199.285 285.498 199.651 285.498 200.408V200.975H285.033C282.768 200.975 281.746 201.833 281.746 203.12C281.746 204.23 282.419 204.861 283.687 204.861C284.502 204.861 285.11 204.533 285.679 204.053L285.782 204.735H286.817V204.735Z" fill="#E76F00"/>
<path d="M291.22 204.735H289.575L287.595 198.452H289.031L290.26 202.312L290.533 203.473C291.155 201.795 291.594 200.092 291.814 198.452H293.212C292.837 200.521 292.164 202.792 291.22 204.735Z" fill="#E76F00"/>
<path d="M297.531 203.284C297.052 203.688 296.546 203.915 296.093 203.915C295.448 203.915 295.097 203.537 295.097 202.93C295.097 202.274 295.473 201.795 296.974 201.795H297.531V203.284ZM298.85 204.735V200.243C298.85 199.096 298.177 198.338 296.561 198.338C295.615 198.338 294.787 198.566 294.115 198.856L294.309 199.651C294.839 199.462 295.526 199.285 296.198 199.285C297.13 199.285 297.531 199.651 297.531 200.408V200.975H297.065C294.799 200.975 293.778 201.833 293.778 203.12C293.778 204.23 294.451 204.861 295.718 204.861C296.534 204.861 297.142 204.533 297.712 204.053L297.815 204.735H298.85V204.735Z" fill="#E76F00"/>
<path d="M280.3 205.801C279.924 206.337 279.316 206.76 278.651 207L278 206.253C278.506 205.999 278.94 205.59 279.142 205.21C279.316 204.871 279.389 204.434 279.389 203.39V196.217H280.79V203.292C280.79 204.688 280.675 205.252 280.3 205.801Z" fill="#E76F00"/>
</g>
<g filter="url(#filter9_d_38_419)">
<rect x="248" y="242" width="81" height="81" rx="10" fill="white"/>
</g>
<g clip-path="url(#clip2_38_419)">
<path d="M288.938 263.828C279.13 263.828 279.742 267.975 279.742 267.975L279.753 272.271H289.113V273.561H276.035C276.035 273.561 269.759 272.867 269.759 282.517C269.759 292.166 275.237 291.824 275.237 291.824H278.507V287.346C278.507 287.346 278.33 282.005 283.897 282.005C289.464 282.005 293.181 282.005 293.181 282.005C293.181 282.005 298.397 282.087 298.397 277.09C298.397 272.093 298.397 268.828 298.397 268.828C298.397 268.828 299.188 263.828 288.938 263.828ZM283.777 266.717C284.708 266.717 285.461 267.451 285.461 268.359C285.461 269.267 284.708 270 283.777 270C282.846 270 282.093 269.267 282.093 268.359C282.093 267.451 282.846 266.717 283.777 266.717Z" fill="url(#paint8_linear_38_419)"/>
<path d="M289.217 301.302C299.025 301.302 298.413 297.155 298.413 297.155L298.402 292.859H289.042V291.569H302.12C302.12 291.569 308.396 292.263 308.396 282.613C308.396 272.964 302.918 273.306 302.918 273.306H299.648V277.784C299.648 277.784 299.825 283.125 294.258 283.125C288.691 283.125 284.974 283.125 284.974 283.125C284.974 283.125 279.758 283.043 279.758 288.04C279.758 293.037 279.758 296.302 279.758 296.302C279.758 296.302 278.967 301.302 289.217 301.302ZM294.378 298.413C293.447 298.413 292.694 297.679 292.694 296.771C292.694 295.863 293.447 295.13 294.378 295.13C295.309 295.13 296.062 295.863 296.062 296.771C296.062 297.679 295.309 298.413 294.378 298.413Z" fill="url(#paint9_linear_38_419)"/>
</g>
<g filter="url(#filter10_d_38_419)">
<rect x="248" y="338" width="81" height="81" rx="10" fill="white"/>
</g>
<path d="M287.663 360.849V362.706H284.359V363.913H287.663V367.611H288.954V363.913H292.34V362.706H288.954V359H287.663V360.849Z" fill="#7099A6"/>
<path d="M276.866 365.559V368.253H271.866V369.944H276.866V375.415H278.721V369.944H283.796V368.253H278.721V362.864H276.866V365.559Z" fill="#EB912C"/>
<path d="M297.821 365.559V368.253H292.821V370.027H297.821V375.415H299.75V370.027H304.751V368.253H299.75V362.864H297.821V365.559Z" fill="#59879B"/>
<path d="M287.182 374.736V377.755H281.619V380.004H287.182V386.041H289.434V380.004H294.998V377.755H289.434V371.717H287.182V374.736Z" fill="#E8762C"/>
<path d="M303.542 376.261V378.155H300.156V379.687H303.542V383.468H305.231V379.687H308.617V378.155H305.231V374.374H303.542V376.261Z" fill="#5B6591"/>
<path d="M271.303 376.426V378.238H268V379.521H271.303V383.143H272.595V379.521L275.981 379.4V378.238H272.595V374.615H271.303V376.426Z" fill="#7099A6"/>
<path d="M276.866 384.955V387.649H271.866V389.423H276.866V394.811H278.796V389.423H283.796V387.649H278.796V382.26H276.866V384.955Z" fill="#C72035"/>
<path d="M297.821 384.955V387.649H292.821V389.34H297.821V394.811H299.75V389.34H304.751V387.649H299.75V382.26H297.821V384.955Z" fill="#1F447E"/>
<path d="M287.505 391.8V393.687H284.119V395.219H287.505V399H289.194V395.219H292.58V393.687H289.194V389.906H287.505V391.8Z" fill="#5B6591"/>
<g filter="url(#filter11_d_38_419)">
<rect x="248" y="434" width="81" height="81" rx="10" fill="white"/>
</g>
<g clip-path="url(#clip3_38_419)">
<mask id="mask4_38_419" style="mask-type:luminance" maskUnits="userSpaceOnUse" x="268" y="455" width="41" height="40">
<path d="M308.017 455H268V495H308.017V455Z" fill="white"/>
</mask>
<g mask="url(#mask4_38_419)">
<path fill-rule="evenodd" clip-rule="evenodd" d="M269.639 482.599L269.053 484.743C268.835 485.429 268.529 486.437 268.363 487.333C268.128 487.953 268 488.626 268 489.328C268 492.225 270.189 494.61 273.004 494.921C273.796 495.036 274.692 495.03 275.697 494.882L280.312 494.246C281.473 494.086 282.425 493.248 282.734 492.118L285.91 480.457L269.639 482.599Z" fill="url(#paint10_linear_38_419)"/>
<path d="M274.14 483.151C269.276 483.904 268.277 487.573 268.277 487.573L272.935 470.464L297.278 467.172L293.959 479.224C293.786 479.87 293.243 480.365 292.571 480.468L292.435 480.49L274.003 483.174L274.14 483.151Z" fill="url(#paint11_linear_38_419)"/>
<path d="M274.14 483.151C269.276 483.904 268.277 487.573 268.277 487.573L272.935 470.464L297.278 467.172L293.959 479.224C293.786 479.87 293.243 480.365 292.571 480.468L292.435 480.49L274.003 483.174L274.14 483.151Z" fill="url(#paint12_linear_38_419)" fill-opacity="0.8"/>
<path d="M276.902 472.235L303.851 468.256C304.492 468.168 305.012 467.699 305.175 467.085L307.956 457.024C307.994 456.887 308.014 456.743 308.014 456.595C308.014 455.714 307.301 455 306.419 455C306.35 455 306.282 455.004 306.216 455.012L280.502 458.811C277.709 459.259 275.454 461.318 274.722 464.004L271.013 477.438C271.758 474.721 272.216 473.082 276.902 472.235Z" fill="url(#paint13_linear_38_419)"/>
<path d="M276.902 472.235L303.851 468.256C304.492 468.168 305.012 467.699 305.175 467.085L307.956 457.024C307.994 456.887 308.014 456.743 308.014 456.595C308.014 455.714 307.301 455 306.419 455C306.35 455 306.282 455.004 306.216 455.012L280.502 458.811C277.709 459.259 275.454 461.318 274.722 464.004L271.013 477.438C271.758 474.721 272.216 473.082 276.902 472.235Z" fill="url(#paint14_linear_38_419)"/>
<path d="M276.902 472.235L303.851 468.256C304.492 468.168 305.012 467.699 305.175 467.085L307.956 457.024C307.994 456.887 308.014 456.743 308.014 456.595C308.014 455.714 307.301 455 306.419 455C306.35 455 306.282 455.004 306.216 455.012L280.502 458.811C277.709 459.259 275.454 461.318 274.722 464.004L271.013 477.438C271.758 474.721 272.216 473.082 276.902 472.235Z" fill="url(#paint15_linear_38_419)"/>
<path d="M276.902 472.235L303.851 468.256C304.492 468.168 305.012 467.699 305.175 467.085L307.956 457.024C307.994 456.887 308.014 456.743 308.014 456.595C308.014 455.714 307.301 455 306.419 455C306.35 455 306.282 455.004 306.216 455.012L280.502 458.811C277.709 459.259 275.454 461.318 274.722 464.004L271.013 477.438C271.758 474.721 272.216 473.082 276.902 472.235Z" fill="url(#paint16_linear_38_419)"/>
<path d="M276.902 472.235L303.851 468.256C304.492 468.168 305.012 467.699 305.175 467.085L307.956 457.024C307.994 456.887 308.014 456.743 308.014 456.595C308.014 455.714 307.301 455 306.419 455C306.35 455 306.282 455.004 306.216 455.012L280.502 458.811C277.709 459.259 275.454 461.318 274.722 464.004L271.013 477.438C271.758 474.721 272.216 473.082 276.902 472.235Z" fill="url(#paint17_linear_38_419)"/>
<path d="M276.902 472.235L303.851 468.256C304.492 468.168 305.012 467.699 305.175 467.085L307.956 457.024C307.994 456.887 308.014 456.743 308.014 456.595C308.014 455.714 307.301 455 306.419 455C306.35 455 306.282 455.004 306.216 455.012L280.502 458.811C277.709 459.259 275.454 461.318 274.722 464.004L271.013 477.438C271.758 474.721 272.216 473.082 276.902 472.235Z" fill="url(#paint18_linear_38_419)"/>
<path d="M276.902 472.235L303.851 468.256C304.492 468.168 305.012 467.699 305.175 467.085L307.956 457.024C307.994 456.887 308.014 456.743 308.014 456.595C308.014 455.714 307.301 455 306.419 455C306.35 455 306.282 455.004 306.216 455.012L280.502 458.811C277.709 459.259 275.454 461.318 274.722 464.004L271.013 477.438C271.758 474.721 272.216 473.082 276.902 472.235Z" fill="url(#paint19_linear_38_419)" fill-opacity="0.4"/>
<path d="M276.9 472.236C272.998 472.942 272.029 474.199 271.384 476.168L268.277 487.577C268.277 487.577 269.27 483.944 274.075 483.168L292.436 480.494L292.572 480.472C293.244 480.369 293.787 479.874 293.96 479.229L296.691 469.314L276.901 472.236H276.9Z" fill="url(#paint20_linear_38_419)"/>
<path d="M276.9 472.236C272.998 472.942 272.029 474.199 271.384 476.168L268.277 487.577C268.277 487.577 269.27 483.944 274.075 483.168L292.436 480.494L292.572 480.472C293.244 480.369 293.787 479.874 293.96 479.229L296.691 469.314L276.901 472.236H276.9Z" fill="url(#paint21_linear_38_419)" fill-opacity="0.2"/>
<path fill-rule="evenodd" clip-rule="evenodd" d="M274.076 483.167C270.015 483.824 268.681 486.512 268.363 487.331C268.128 487.953 268 488.625 268 489.328C268 492.225 270.189 494.61 273.004 494.921C273.796 495.035 274.692 495.03 275.697 494.882L280.312 494.245C281.473 494.085 282.425 493.248 282.734 492.118L285.629 481.486L274.077 483.168L274.076 483.167Z" fill="url(#paint22_linear_38_419)"/>
</g>
</g>
<g filter="url(#filter12_d_38_419)">
<rect x="344" y="98" width="81" height="81" rx="10" fill="white"/>
</g>
<path d="M396.518 130.754L393.6 133.658C398.463 138.499 398.463 146.381 393.6 151.221C388.737 156.061 380.818 156.061 375.955 151.221C371.092 146.381 371.092 138.499 375.955 133.658L383.735 125.914L384.708 124.808V119L372.898 130.754C371.346 132.283 370.114 134.103 369.274 136.109C368.433 138.115 368 140.266 368 142.44C368 144.613 368.433 146.765 369.274 148.77C370.114 150.776 371.346 152.596 372.898 154.125C374.434 155.67 376.263 156.896 378.278 157.732C380.293 158.569 382.455 159 384.638 159C386.822 159 388.984 158.569 390.999 157.732C393.014 156.896 394.843 155.67 396.379 154.125C403.048 147.626 403.048 137.116 396.518 130.754Z" fill="#EE4C2C"/>
<path d="M390.682 129.925C391.91 129.925 392.905 128.934 392.905 127.712C392.905 126.49 391.91 125.5 390.682 125.5C389.454 125.5 388.459 126.49 388.459 127.712C388.459 128.934 389.454 129.925 390.682 129.925Z" fill="#EE4C2C"/>
<g filter="url(#filter13_d_38_419)">
<rect x="344" y="194" width="81" height="81" rx="10" fill="white"/>
</g>
<g clip-path="url(#clip4_38_419)">
<path d="M372.083 215H397.917C398.847 214.999 399.769 215.186 400.628 215.551C401.488 215.916 402.269 216.451 402.927 217.126C403.585 217.801 404.107 218.602 404.463 219.484C404.818 220.366 405.001 221.311 405 222.265V247.735C405.001 248.689 404.818 249.634 404.463 250.516C404.107 251.398 403.585 252.199 402.927 252.874C402.269 253.549 401.488 254.084 400.628 254.449C399.769 254.814 398.847 255.001 397.917 255H372.083C371.153 255.001 370.231 254.814 369.372 254.449C368.512 254.084 367.731 253.549 367.073 252.874C366.415 252.199 365.893 251.398 365.537 250.516C365.182 249.634 364.999 248.689 365 247.735V222.265C364.999 221.311 365.182 220.366 365.537 219.484C365.893 218.602 366.415 217.801 367.073 217.126C367.731 216.451 368.512 215.916 369.372 215.551C370.231 215.186 371.153 214.999 372.083 215Z" fill="#659AD2"/>
<path d="M382.414 247.428C375.569 247.428 370 241.859 370 235.014C370 228.169 375.569 222.6 382.414 222.6C386.831 222.6 390.95 224.977 393.164 228.803L387.792 231.912C386.684 229.997 384.623 228.807 382.414 228.807C378.991 228.807 376.207 231.591 376.207 235.014C376.207 238.436 378.991 241.221 382.414 241.221C384.623 241.221 386.684 240.031 387.792 238.116L393.165 241.224C390.95 245.051 386.831 247.428 382.414 247.428Z" fill="white"/>
<path d="M394.828 234.324H393.448V232.945H392.069V234.324H390.69V235.704H392.069V237.083H393.448V235.704H394.828V234.324Z" fill="white"/>
<path d="M400 234.324H398.621V232.945H397.242V234.324H395.862V235.704H397.242V237.083H398.621V235.704H400V234.324Z" fill="white"/>
</g>
<g filter="url(#filter14_d_38_419)">
<rect x="344" y="290" width="81" height="81" rx="10" fill="white"/>
</g>
<g clip-path="url(#clip5_38_419)">
<path d="M375.775 330.217C375.775 330.71 375.825 331.11 375.92 331.405C376.025 331.697 376.16 332.017 376.345 332.365C376.404 332.457 376.436 332.563 376.438 332.672C376.438 332.805 376.358 332.94 376.188 333.073L375.348 333.633C375.247 333.705 375.127 333.747 375.003 333.753C374.868 333.753 374.735 333.688 374.603 333.568C374.423 333.374 374.262 333.164 374.123 332.94C373.974 332.684 373.836 332.421 373.71 332.153C372.673 333.38 371.37 333.995 369.8 333.995C368.683 333.995 367.79 333.672 367.14 333.032C366.488 332.392 366.155 331.538 366.155 330.47C366.155 329.335 366.555 328.415 367.365 327.72C368.178 327.025 369.255 326.68 370.625 326.68C371.075 326.68 371.543 326.72 372.035 326.785C372.528 326.853 373.035 326.96 373.565 327.08V326.105C373.565 325.09 373.353 324.383 372.94 323.97C372.515 323.555 371.795 323.355 370.77 323.355C370.305 323.355 369.828 323.41 369.335 323.53C368.846 323.646 368.365 323.798 367.898 323.983C367.746 324.051 367.591 324.109 367.433 324.158C367.364 324.18 367.292 324.194 367.22 324.197C367.033 324.197 366.94 324.063 366.94 323.783V323.128C366.94 322.915 366.965 322.753 367.033 322.663C367.133 322.54 367.262 322.443 367.408 322.38C367.87 322.14 368.43 321.94 369.083 321.78C369.733 321.605 370.425 321.528 371.158 321.528C372.74 321.528 373.898 321.888 374.643 322.608C375.375 323.328 375.748 324.422 375.748 325.892V330.217H375.773H375.775ZM370.373 332.245C370.81 332.245 371.263 332.165 371.743 332.005C372.22 331.845 372.648 331.55 373.005 331.15C373.219 330.904 373.374 330.613 373.458 330.298C373.538 329.975 373.593 329.59 373.593 329.135V328.575C373.189 328.477 372.78 328.402 372.368 328.35C371.953 328.296 371.536 328.269 371.118 328.268C370.225 328.268 369.573 328.443 369.135 328.802C368.695 329.162 368.485 329.67 368.485 330.338C368.485 330.963 368.643 331.43 368.975 331.752C369.295 332.085 369.76 332.245 370.373 332.245ZM381.055 333.688C380.815 333.688 380.655 333.648 380.55 333.552C380.443 333.472 380.35 333.287 380.27 333.032L377.145 322.715C377.083 322.542 377.042 322.363 377.023 322.18C377.023 321.968 377.13 321.848 377.343 321.848H378.648C378.898 321.848 379.073 321.888 379.165 321.98C379.273 322.06 379.353 322.248 379.433 322.5L381.668 331.338L383.743 322.5C383.808 322.235 383.888 322.06 383.993 321.98C384.153 321.882 384.34 321.835 384.528 321.848H385.59C385.845 321.848 386.015 321.888 386.123 321.98C386.23 322.06 386.323 322.248 386.375 322.5L388.478 331.445L390.778 322.5C390.82 322.306 390.912 322.127 391.045 321.98C391.2 321.882 391.382 321.835 391.565 321.848H392.803C393.015 321.848 393.135 321.955 393.135 322.18C393.135 322.248 393.12 322.315 393.11 322.395C393.089 322.508 393.057 322.62 393.015 322.728L389.808 333.045C389.728 333.312 389.635 333.488 389.53 333.568C389.379 333.664 389.201 333.71 389.023 333.7H387.88C387.628 333.7 387.455 333.66 387.348 333.568C387.24 333.473 387.148 333.3 387.095 333.032L385.033 324.425L382.983 333.023C382.918 333.29 382.838 333.463 382.733 333.555C382.625 333.65 382.438 333.69 382.2 333.69H381.055V333.688ZM398.15 334.048C397.46 334.048 396.772 333.968 396.1 333.808C395.435 333.648 394.918 333.473 394.57 333.273C394.358 333.153 394.213 333.02 394.158 332.898C394.107 332.78 394.08 332.653 394.08 332.525V331.845C394.08 331.565 394.185 331.43 394.385 331.43C394.467 331.43 394.548 331.444 394.625 331.47C394.705 331.497 394.825 331.55 394.958 331.605C395.408 331.805 395.903 331.965 396.42 332.073C396.953 332.177 397.47 332.233 398.003 332.233C398.843 332.233 399.493 332.085 399.945 331.793C400.162 331.661 400.341 331.474 400.463 331.251C400.584 331.028 400.645 330.777 400.638 330.523C400.642 330.351 400.613 330.18 400.551 330.02C400.489 329.86 400.396 329.714 400.278 329.59C400.04 329.335 399.588 329.108 398.935 328.895L397.005 328.295C396.035 327.988 395.315 327.533 394.878 326.933C394.449 326.378 394.216 325.698 394.213 324.998C394.213 324.438 394.333 323.943 394.57 323.515C394.81 323.09 395.13 322.715 395.53 322.42C395.93 322.115 396.38 321.888 396.913 321.728C397.445 321.568 398.003 321.5 398.588 321.5C398.883 321.5 399.188 321.513 399.48 321.553C399.785 321.593 400.065 321.648 400.345 321.703C400.61 321.768 400.865 321.833 401.103 321.915C401.343 321.995 401.528 322.075 401.663 322.155C401.82 322.234 401.956 322.348 402.063 322.487C402.148 322.618 402.189 322.772 402.18 322.928V323.555C402.18 323.835 402.075 323.983 401.875 323.983C401.698 323.962 401.526 323.908 401.37 323.823C400.566 323.466 399.694 323.289 398.815 323.303C398.058 323.303 397.458 323.423 397.045 323.678C396.633 323.928 396.42 324.318 396.42 324.865C396.42 325.238 396.553 325.558 396.82 325.813C397.085 326.065 397.578 326.318 398.283 326.545L400.173 327.145C401.13 327.453 401.823 327.88 402.235 328.428C402.648 328.975 402.845 329.602 402.845 330.298C402.845 330.873 402.728 331.39 402.5 331.845C402.264 332.302 401.934 332.702 401.53 333.02C401.118 333.352 400.625 333.595 400.053 333.768C399.453 333.955 398.828 334.048 398.15 334.048Z" fill="#252F3E"/>
<path fill-rule="evenodd" clip-rule="evenodd" d="M400.662 340.532C396.287 343.775 389.927 345.497 384.46 345.497C376.797 345.497 369.892 342.655 364.677 337.93C364.265 337.555 364.637 337.047 365.127 337.342C370.77 340.625 377.727 342.615 384.927 342.615C389.78 342.615 395.115 341.6 400.025 339.517C400.757 339.185 401.382 339.997 400.662 340.532Z" fill="#FF9900"/>
<path fill-rule="evenodd" clip-rule="evenodd" d="M402.485 338.45C401.927 337.732 398.787 338.105 397.365 338.277C396.94 338.332 396.872 337.957 397.257 337.677C399.757 335.915 403.87 336.422 404.347 337.01C404.827 337.61 404.215 341.735 401.872 343.71C401.515 344.017 401.17 343.86 401.327 343.46C401.86 342.135 403.045 339.16 402.485 338.452V338.45Z" fill="#FF9900"/>
</g>
<g filter="url(#filter15_d_38_419)">
<rect x="344" y="386" width="81" height="81" rx="10" fill="white"/>
</g>
<path d="M402.6 426.417C402.6 425.117 402.483 423.867 402.267 422.667H385V429.767H394.867C394.433 432.05 393.133 433.983 391.183 435.283V439.9H397.133C400.6 436.7 402.6 432 402.6 426.417Z" fill="#4285F4"/>
<path d="M385 444.333C389.95 444.333 394.1 442.7 397.133 439.9L391.183 435.283C389.55 436.383 387.467 437.05 385 437.05C380.233 437.05 376.183 433.833 374.733 429.5H368.633V434.233C371.65 440.217 377.833 444.333 385 444.333Z" fill="#34A853"/>
<path d="M374.733 429.483C374.367 428.383 374.15 427.217 374.15 426C374.15 424.783 374.367 423.617 374.733 422.517V417.783H368.633C367.383 420.25 366.667 423.033 366.667 426C366.667 428.967 367.383 431.75 368.633 434.217L373.383 430.517L374.733 429.483Z" fill="#FBBC05"/>
<path d="M385 414.967C387.7 414.967 390.1 415.9 392.017 417.7L397.267 412.45C394.083 409.483 389.95 407.667 385 407.667C377.833 407.667 371.65 411.783 368.633 417.783L374.733 422.517C376.183 418.183 380.233 414.967 385 414.967Z" fill="#EA4335"/>
<g filter="url(#filter16_d_38_419)">
<rect x="440" y="146" width="81" height="81" rx="10" fill="white"/>
</g>
<path d="M496.588 206H464.588L462 196.353H499.176L496.588 206Z" fill="#198AB3"/>
<path d="M475.647 166V181.059L462 196.353L464.588 206L485.529 181.059V166H475.647Z" fill="url(#paint23_linear_38_419)"/>
<path d="M496.588 206L482 190.941L488.117 183.882L499.176 196.353L496.588 206Z" fill="#32BEDD"/>
<g filter="url(#filter17_d_38_419)">
<rect x="440" y="242" width="81" height="81" rx="10" fill="white"/>
</g>
<path d="M497.749 279.372C498.653 276.648 498.342 273.664 496.895 271.187C494.72 267.387 490.346 265.431 486.075 266.352C484.175 264.204 481.445 262.983 478.583 263C474.217 262.99 470.343 265.81 468.999 269.978C466.195 270.554 463.774 272.315 462.357 274.812C460.165 278.602 460.665 283.379 463.593 286.629C462.688 289.353 463 292.337 464.447 294.815C466.622 298.615 470.996 300.57 475.267 299.65C477.166 301.797 479.897 303.019 482.759 303C487.128 303.011 491.003 300.188 492.346 296.017C495.151 295.441 497.572 293.68 498.989 291.183C501.178 287.393 500.677 282.619 497.75 279.369L497.749 279.372ZM482.762 300.386C481.014 300.388 479.32 299.775 477.978 298.651C478.039 298.618 478.145 298.56 478.214 298.517L486.153 293.917C486.56 293.686 486.809 293.252 486.806 292.783V281.554L490.162 283.498C490.198 283.516 490.222 283.551 490.227 283.591V292.89C490.222 297.025 486.884 300.377 482.762 300.386ZM466.708 293.507C465.832 291.99 465.517 290.211 465.817 288.484C465.876 288.519 465.979 288.583 466.053 288.626L473.992 293.226C474.395 293.462 474.893 293.462 475.297 293.226L484.99 287.611V291.498C484.992 291.538 484.973 291.577 484.942 291.602L476.917 296.251C473.342 298.316 468.776 297.088 466.709 293.507H466.708ZM464.618 276.12C465.491 274.6 466.868 273.438 468.507 272.834C468.507 272.903 468.504 273.024 468.504 273.109V282.311C468.501 282.778 468.75 283.212 469.155 283.443L478.848 289.057L475.492 291.001C475.459 291.023 475.416 291.027 475.379 291.011L467.352 286.358C463.785 284.286 462.561 279.707 464.617 276.122L464.618 276.12ZM492.188 282.557L482.495 276.942L485.851 274.999C485.884 274.977 485.927 274.973 485.964 274.989L493.991 279.638C497.564 281.709 498.789 286.296 496.725 289.881C495.851 291.398 494.476 292.561 492.837 293.166V283.689C492.841 283.222 492.593 282.789 492.189 282.557H492.188ZM495.527 277.514C495.469 277.478 495.365 277.415 495.292 277.373L487.352 272.773C486.95 272.537 486.451 272.537 486.047 272.773L476.355 278.388V274.5C476.352 274.46 476.371 274.422 476.402 274.397L484.428 269.752C488.002 267.683 492.573 268.914 494.634 272.502C495.505 274.017 495.82 275.79 495.525 277.514H495.527ZM474.531 284.443L471.174 282.499C471.138 282.482 471.114 282.447 471.109 282.407V273.108C471.111 268.968 474.46 265.613 478.586 265.615C480.332 265.615 482.022 266.23 483.364 267.35C483.303 267.383 483.198 267.442 483.128 267.484L475.188 272.084C474.782 272.315 474.533 272.748 474.536 273.217L474.531 284.441V284.443ZM476.353 280.501L480.671 277.999L484.988 280.499V285.501L480.671 288.001L476.353 285.501V280.501Z" fill="#1F1E22"/>
<g filter="url(#filter18_d_38_419)">
<rect x="440" y="338" width="81" height="81" rx="10" fill="white"/>
</g>
<path d="M495.221 360.098V396.728C495.221 397.638 494.485 398.401 493.554 398.401H483.182C482.275 398.401 481.515 397.663 481.515 396.728V360.098C481.515 359.188 482.25 358.425 483.182 358.425H493.554C494.461 358.45 495.221 359.188 495.221 360.098Z" fill="url(#paint24_linear_38_419)"/>
<path d="M487.128 370.11V398.425H473.422V370.11C473.422 369.2 474.158 368.438 475.09 368.438H485.461C486.368 368.438 487.128 369.176 487.128 370.11Z" fill="url(#paint25_linear_38_419)"/>
<path d="M465.332 380.098V396.752C465.332 397.663 466.068 398.425 466.999 398.425H479.038V380.098C479.038 379.188 478.303 378.425 477.371 378.425H466.999C466.092 378.425 465.332 379.163 465.332 380.098Z" fill="url(#paint26_linear_38_419)"/>
<defs>
<filter id="filter0_d_38_419" x="0" y="96" width="189" height="189" filterUnits="userSpaceOnUse" color-interpolation-filters="sRGB">
<feFlood flood-opacity="0" result="BackgroundImageFix"/>
<feColorMatrix in="SourceAlpha" type="matrix" values="0 0 0 0 0 0 0 0 0 0 0 0 0 0 0 0 0 0 127 0" result="hardAlpha"/>
<feOffset dy="4"/>
<feGaussianBlur stdDeviation="27"/>
<feComposite in2="hardAlpha" operator="out"/>
<feColorMatrix type="matrix" values="0 0 0 0 0 0 0 0 0 0 0 0 0 0 0 0 0 0 0.05 0"/>
<feBlend mode="normal" in2="BackgroundImageFix" result="effect1_dropShadow_38_419"/>
<feBlend mode="normal" in="SourceGraphic" in2="effect1_dropShadow_38_419" result="shape"/>
</filter>
<filter id="filter1_d_38_419" x="0" y="192" width="189" height="189" filterUnits="userSpaceOnUse" color-interpolation-filters="sRGB">
<feFlood flood-opacity="0" result="BackgroundImageFix"/>
<feColorMatrix in="SourceAlpha" type="matrix" values="0 0 0 0 0 0 0 0 0 0 0 0 0 0 0 0 0 0 127 0" result="hardAlpha"/>
<feOffset dy="4"/>
<feGaussianBlur stdDeviation="27"/>
<feComposite in2="hardAlpha" operator="out"/>
<feColorMatrix type="matrix" values="0 0 0 0 0 0 0 0 0 0 0 0 0 0 0 0 0 0 0.05 0"/>
<feBlend mode="normal" in2="BackgroundImageFix" result="effect1_dropShadow_38_419"/>
<feBlend mode="normal" in="SourceGraphic" in2="effect1_dropShadow_38_419" result="shape"/>
</filter>
<filter id="filter2_d_38_419" x="0" y="288" width="189" height="189" filterUnits="userSpaceOnUse" color-interpolation-filters="sRGB">
<feFlood flood-opacity="0" result="BackgroundImageFix"/>
<feColorMatrix in="SourceAlpha" type="matrix" values="0 0 0 0 0 0 0 0 0 0 0 0 0 0 0 0 0 0 127 0" result="hardAlpha"/>
<feOffset dy="4"/>
<feGaussianBlur stdDeviation="27"/>
<feComposite in2="hardAlpha" operator="out"/>
<feColorMatrix type="matrix" values="0 0 0 0 0 0 0 0 0 0 0 0 0 0 0 0 0 0 0.05 0"/>
<feBlend mode="normal" in2="BackgroundImageFix" result="effect1_dropShadow_38_419"/>
<feBlend mode="normal" in="SourceGraphic" in2="effect1_dropShadow_38_419" result="shape"/>
</filter>
<filter id="filter3_d_38_419" x="96" y="48" width="189" height="189" filterUnits="userSpaceOnUse" color-interpolation-filters="sRGB">
<feFlood flood-opacity="0" result="BackgroundImageFix"/>
<feColorMatrix in="SourceAlpha" type="matrix" values="0 0 0 0 0 0 0 0 0 0 0 0 0 0 0 0 0 0 127 0" result="hardAlpha"/>
<feOffset dy="4"/>
<feGaussianBlur stdDeviation="27"/>
<feComposite in2="hardAlpha" operator="out"/>
<feColorMatrix type="matrix" values="0 0 0 0 0 0 0 0 0 0 0 0 0 0 0 0 0 0 0.05 0"/>
<feBlend mode="normal" in2="BackgroundImageFix" result="effect1_dropShadow_38_419"/>
<feBlend mode="normal" in="SourceGraphic" in2="effect1_dropShadow_38_419" result="shape"/>
</filter>
<filter id="filter4_d_38_419" x="96" y="144" width="189" height="189" filterUnits="userSpaceOnUse" color-interpolation-filters="sRGB">
<feFlood flood-opacity="0" result="BackgroundImageFix"/>
<feColorMatrix in="SourceAlpha" type="matrix" values="0 0 0 0 0 0 0 0 0 0 0 0 0 0 0 0 0 0 127 0" result="hardAlpha"/>
<feOffset dy="4"/>
<feGaussianBlur stdDeviation="27"/>
<feComposite in2="hardAlpha" operator="out"/>
<feColorMatrix type="matrix" values="0 0 0 0 0 0 0 0 0 0 0 0 0 0 0 0 0 0 0.05 0"/>
<feBlend mode="normal" in2="BackgroundImageFix" result="effect1_dropShadow_38_419"/>
<feBlend mode="normal" in="SourceGraphic" in2="effect1_dropShadow_38_419" result="shape"/>
</filter>
<filter id="filter5_d_38_419" x="96" y="240" width="189" height="189" filterUnits="userSpaceOnUse" color-interpolation-filters="sRGB">
<feFlood flood-opacity="0" result="BackgroundImageFix"/>
<feColorMatrix in="SourceAlpha" type="matrix" values="0 0 0 0 0 0 0 0 0 0 0 0 0 0 0 0 0 0 127 0" result="hardAlpha"/>
<feOffset dy="4"/>
<feGaussianBlur stdDeviation="27"/>
<feComposite in2="hardAlpha" operator="out"/>
<feColorMatrix type="matrix" values="0 0 0 0 0 0 0 0 0 0 0 0 0 0 0 0 0 0 0.05 0"/>
<feBlend mode="normal" in2="BackgroundImageFix" result="effect1_dropShadow_38_419"/>
<feBlend mode="normal" in="SourceGraphic" in2="effect1_dropShadow_38_419" result="shape"/>
</filter>
<filter id="filter6_d_38_419" x="96" y="336" width="189" height="189" filterUnits="userSpaceOnUse" color-interpolation-filters="sRGB">
<feFlood flood-opacity="0" result="BackgroundImageFix"/>
<feColorMatrix in="SourceAlpha" type="matrix" values="0 0 0 0 0 0 0 0 0 0 0 0 0 0 0 0 0 0 127 0" result="hardAlpha"/>
<feOffset dy="4"/>
<feGaussianBlur stdDeviation="27"/>
<feComposite in2="hardAlpha" operator="out"/>
<feColorMatrix type="matrix" values="0 0 0 0 0 0 0 0 0 0 0 0 0 0 0 0 0 0 0.05 0"/>
<feBlend mode="normal" in2="BackgroundImageFix" result="effect1_dropShadow_38_419"/>
<feBlend mode="normal" in="SourceGraphic" in2="effect1_dropShadow_38_419" result="shape"/>
</filter>
<filter id="filter7_d_38_419" x="194" y="0" width="189" height="189" filterUnits="userSpaceOnUse" color-interpolation-filters="sRGB">
<feFlood flood-opacity="0" result="BackgroundImageFix"/>
<feColorMatrix in="SourceAlpha" type="matrix" values="0 0 0 0 0 0 0 0 0 0 0 0 0 0 0 0 0 0 127 0" result="hardAlpha"/>
<feOffset dy="4"/>
<feGaussianBlur stdDeviation="27"/>
<feComposite in2="hardAlpha" operator="out"/>
<feColorMatrix type="matrix" values="0 0 0 0 0 0 0 0 0 0 0 0 0 0 0 0 0 0 0.05 0"/>
<feBlend mode="normal" in2="BackgroundImageFix" result="effect1_dropShadow_38_419"/>
<feBlend mode="normal" in="SourceGraphic" in2="effect1_dropShadow_38_419" result="shape"/>
</filter>
<filter id="filter8_d_38_419" x="194" y="96" width="189" height="189" filterUnits="userSpaceOnUse" color-interpolation-filters="sRGB">
<feFlood flood-opacity="0" result="BackgroundImageFix"/>
<feColorMatrix in="SourceAlpha" type="matrix" values="0 0 0 0 0 0 0 0 0 0 0 0 0 0 0 0 0 0 127 0" result="hardAlpha"/>
<feOffset dy="4"/>
<feGaussianBlur stdDeviation="27"/>
<feComposite in2="hardAlpha" operator="out"/>
<feColorMatrix type="matrix" values="0 0 0 0 0 0 0 0 0 0 0 0 0 0 0 0 0 0 0.05 0"/>
<feBlend mode="normal" in2="BackgroundImageFix" result="effect1_dropShadow_38_419"/>
<feBlend mode="normal" in="SourceGraphic" in2="effect1_dropShadow_38_419" result="shape"/>
</filter>
<filter id="filter9_d_38_419" x="194" y="192" width="189" height="189" filterUnits="userSpaceOnUse" color-interpolation-filters="sRGB">
<feFlood flood-opacity="0" result="BackgroundImageFix"/>
<feColorMatrix in="SourceAlpha" type="matrix" values="0 0 0 0 0 0 0 0 0 0 0 0 0 0 0 0 0 0 127 0" result="hardAlpha"/>
<feOffset dy="4"/>
<feGaussianBlur stdDeviation="27"/>
<feComposite in2="hardAlpha" operator="out"/>
<feColorMatrix type="matrix" values="0 0 0 0 0 0 0 0 0 0 0 0 0 0 0 0 0 0 0.05 0"/>
<feBlend mode="normal" in2="BackgroundImageFix" result="effect1_dropShadow_38_419"/>
<feBlend mode="normal" in="SourceGraphic" in2="effect1_dropShadow_38_419" result="shape"/>
</filter>
<filter id="filter10_d_38_419" x="194" y="288" width="189" height="189" filterUnits="userSpaceOnUse" color-interpolation-filters="sRGB">
<feFlood flood-opacity="0" result="BackgroundImageFix"/>
<feColorMatrix in="SourceAlpha" type="matrix" values="0 0 0 0 0 0 0 0 0 0 0 0 0 0 0 0 0 0 127 0" result="hardAlpha"/>
<feOffset dy="4"/>
<feGaussianBlur stdDeviation="27"/>
<feComposite in2="hardAlpha" operator="out"/>
<feColorMatrix type="matrix" values="0 0 0 0 0 0 0 0 0 0 0 0 0 0 0 0 0 0 0.05 0"/>
<feBlend mode="normal" in2="BackgroundImageFix" result="effect1_dropShadow_38_419"/>
<feBlend mode="normal" in="SourceGraphic" in2="effect1_dropShadow_38_419" result="shape"/>
</filter>
<filter id="filter11_d_38_419" x="194" y="384" width="189" height="189" filterUnits="userSpaceOnUse" color-interpolation-filters="sRGB">
<feFlood flood-opacity="0" result="BackgroundImageFix"/>
<feColorMatrix in="SourceAlpha" type="matrix" values="0 0 0 0 0 0 0 0 0 0 0 0 0 0 0 0 0 0 127 0" result="hardAlpha"/>
<feOffset dy="4"/>
<feGaussianBlur stdDeviation="27"/>
<feComposite in2="hardAlpha" operator="out"/>
<feColorMatrix type="matrix" values="0 0 0 0 0 0 0 0 0 0 0 0 0 0 0 0 0 0 0.05 0"/>
<feBlend mode="normal" in2="BackgroundImageFix" result="effect1_dropShadow_38_419"/>
<feBlend mode="normal" in="SourceGraphic" in2="effect1_dropShadow_38_419" result="shape"/>
</filter>
<filter id="filter12_d_38_419" x="290" y="48" width="189" height="189" filterUnits="userSpaceOnUse" color-interpolation-filters="sRGB">
<feFlood flood-opacity="0" result="BackgroundImageFix"/>
<feColorMatrix in="SourceAlpha" type="matrix" values="0 0 0 0 0 0 0 0 0 0 0 0 0 0 0 0 0 0 127 0" result="hardAlpha"/>
<feOffset dy="4"/>
<feGaussianBlur stdDeviation="27"/>
<feComposite in2="hardAlpha" operator="out"/>
<feColorMatrix type="matrix" values="0 0 0 0 0 0 0 0 0 0 0 0 0 0 0 0 0 0 0.05 0"/>
<feBlend mode="normal" in2="BackgroundImageFix" result="effect1_dropShadow_38_419"/>
<feBlend mode="normal" in="SourceGraphic" in2="effect1_dropShadow_38_419" result="shape"/>
</filter>
<filter id="filter13_d_38_419" x="290" y="144" width="189" height="189" filterUnits="userSpaceOnUse" color-interpolation-filters="sRGB">
<feFlood flood-opacity="0" result="BackgroundImageFix"/>
<feColorMatrix in="SourceAlpha" type="matrix" values="0 0 0 0 0 0 0 0 0 0 0 0 0 0 0 0 0 0 127 0" result="hardAlpha"/>
<feOffset dy="4"/>
<feGaussianBlur stdDeviation="27"/>
<feComposite in2="hardAlpha" operator="out"/>
<feColorMatrix type="matrix" values="0 0 0 0 0 0 0 0 0 0 0 0 0 0 0 0 0 0 0.05 0"/>
<feBlend mode="normal" in2="BackgroundImageFix" result="effect1_dropShadow_38_419"/>
<feBlend mode="normal" in="SourceGraphic" in2="effect1_dropShadow_38_419" result="shape"/>
</filter>
<filter id="filter14_d_38_419" x="290" y="240" width="189" height="189" filterUnits="userSpaceOnUse" color-interpolation-filters="sRGB">
<feFlood flood-opacity="0" result="BackgroundImageFix"/>
<feColorMatrix in="SourceAlpha" type="matrix" values="0 0 0 0 0 0 0 0 0 0 0 0 0 0 0 0 0 0 127 0" result="hardAlpha"/>
<feOffset dy="4"/>
<feGaussianBlur stdDeviation="27"/>
<feComposite in2="hardAlpha" operator="out"/>
<feColorMatrix type="matrix" values="0 0 0 0 0 0 0 0 0 0 0 0 0 0 0 0 0 0 0.05 0"/>
<feBlend mode="normal" in2="BackgroundImageFix" result="effect1_dropShadow_38_419"/>
<feBlend mode="normal" in="SourceGraphic" in2="effect1_dropShadow_38_419" result="shape"/>
</filter>
<filter id="filter15_d_38_419" x="290" y="336" width="189" height="189" filterUnits="userSpaceOnUse" color-interpolation-filters="sRGB">
<feFlood flood-opacity="0" result="BackgroundImageFix"/>
<feColorMatrix in="SourceAlpha" type="matrix" values="0 0 0 0 0 0 0 0 0 0 0 0 0 0 0 0 0 0 127 0" result="hardAlpha"/>
<feOffset dy="4"/>
<feGaussianBlur stdDeviation="27"/>
<feComposite in2="hardAlpha" operator="out"/>
<feColorMatrix type="matrix" values="0 0 0 0 0 0 0 0 0 0 0 0 0 0 0 0 0 0 0.05 0"/>
<feBlend mode="normal" in2="BackgroundImageFix" result="effect1_dropShadow_38_419"/>
<feBlend mode="normal" in="SourceGraphic" in2="effect1_dropShadow_38_419" result="shape"/>
</filter>
<filter id="filter16_d_38_419" x="386" y="96" width="189" height="189" filterUnits="userSpaceOnUse" color-interpolation-filters="sRGB">
<feFlood flood-opacity="0" result="BackgroundImageFix"/>
<feColorMatrix in="SourceAlpha" type="matrix" values="0 0 0 0 0 0 0 0 0 0 0 0 0 0 0 0 0 0 127 0" result="hardAlpha"/>
<feOffset dy="4"/>
<feGaussianBlur stdDeviation="27"/>
<feComposite in2="hardAlpha" operator="out"/>
<feColorMatrix type="matrix" values="0 0 0 0 0 0 0 0 0 0 0 0 0 0 0 0 0 0 0.05 0"/>
<feBlend mode="normal" in2="BackgroundImageFix" result="effect1_dropShadow_38_419"/>
<feBlend mode="normal" in="SourceGraphic" in2="effect1_dropShadow_38_419" result="shape"/>
</filter>
<filter id="filter17_d_38_419" x="386" y="192" width="189" height="189" filterUnits="userSpaceOnUse" color-interpolation-filters="sRGB">
<feFlood flood-opacity="0" result="BackgroundImageFix"/>
<feColorMatrix in="SourceAlpha" type="matrix" values="0 0 0 0 0 0 0 0 0 0 0 0 0 0 0 0 0 0 127 0" result="hardAlpha"/>
<feOffset dy="4"/>
<feGaussianBlur stdDeviation="27"/>
<feComposite in2="hardAlpha" operator="out"/>
<feColorMatrix type="matrix" values="0 0 0 0 0 0 0 0 0 0 0 0 0 0 0 0 0 0 0.05 0"/>
<feBlend mode="normal" in2="BackgroundImageFix" result="effect1_dropShadow_38_419"/>
<feBlend mode="normal" in="SourceGraphic" in2="effect1_dropShadow_38_419" result="shape"/>
</filter>
<filter id="filter18_d_38_419" x="386" y="288" width="189" height="189" filterUnits="userSpaceOnUse" color-interpolation-filters="sRGB">
<feFlood flood-opacity="0" result="BackgroundImageFix"/>
<feColorMatrix in="SourceAlpha" type="matrix" values="0 0 0 0 0 0 0 0 0 0 0 0 0 0 0 0 0 0 127 0" result="hardAlpha"/>
<feOffset dy="4"/>
<feGaussianBlur stdDeviation="27"/>
<feComposite in2="hardAlpha" operator="out"/>
<feColorMatrix type="matrix" values="0 0 0 0 0 0 0 0 0 0 0 0 0 0 0 0 0 0 0.05 0"/>
<feBlend mode="normal" in2="BackgroundImageFix" result="effect1_dropShadow_38_419"/>
<feBlend mode="normal" in="SourceGraphic" in2="effect1_dropShadow_38_419" result="shape"/>
</filter>
<linearGradient id="paint0_linear_38_419" x1="94.5848" y1="166.88" x2="94.5848" y2="179.681" gradientUnits="userSpaceOnUse">
<stop stop-color="#0077D0"/>
<stop offset="1" stop-color="#005BA2"/>
</linearGradient>
<linearGradient id="paint1_linear_38_419" x1="87.9392" y1="182.833" x2="105.165" y2="172.644" gradientUnits="userSpaceOnUse">
<stop stop-color="#3ACEEB"/>
<stop offset="1" stop-color="#4FE7FF"/>
</linearGradient>
<linearGradient id="paint2_linear_38_419" x1="101.678" y1="190.933" x2="84.5094" y2="200.982" gradientUnits="userSpaceOnUse">
<stop stop-color="#3ACEEB"/>
<stop offset="1" stop-color="#4FE7FF"/>
</linearGradient>
<linearGradient id="paint3_linear_38_419" x1="90.4788" y1="182.335" x2="101.146" y2="188.473" gradientUnits="userSpaceOnUse">
<stop stop-color="#3ACEEB"/>
<stop offset="1" stop-color="#4FE7FF"/>
</linearGradient>
<linearGradient id="paint4_linear_38_419" x1="101.448" y1="194.826" x2="101.448" y2="187.094" gradientUnits="userSpaceOnUse">
<stop stop-color="#1592B9"/>
<stop offset="0.12" stop-color="#22A5C9"/>
<stop offset="0.35" stop-color="#36C2E0"/>
<stop offset="0.57" stop-color="#44D6F1"/>
<stop offset="0.79" stop-color="#4CE3FC"/>
<stop offset="1" stop-color="#4FE7FF"/>
</linearGradient>
<linearGradient id="paint5_linear_38_419" x1="87.6865" y1="186.588" x2="87.6865" y2="178.849" gradientUnits="userSpaceOnUse">
<stop stop-color="#1592B9"/>
<stop offset="0.12" stop-color="#22A5C9"/>
<stop offset="0.35" stop-color="#36C2E0"/>
<stop offset="0.57" stop-color="#44D6F1"/>
<stop offset="0.79" stop-color="#4CE3FC"/>
<stop offset="1" stop-color="#4FE7FF"/>
</linearGradient>
<linearGradient id="paint6_linear_38_419" x1="171.46" y1="426.952" x2="213.056" y2="426.952" gradientUnits="userSpaceOnUse">
<stop stop-color="#FF6F00"/>
<stop offset="1" stop-color="#FFA800"/>
</linearGradient>
<linearGradient id="paint7_linear_38_419" x1="171.179" y1="426.952" x2="212.774" y2="426.952" gradientUnits="userSpaceOnUse">
<stop stop-color="#FF6F00"/>
<stop offset="1" stop-color="#FFA800"/>
</linearGradient>
<linearGradient id="paint8_linear_38_419" x1="273.472" y1="267.103" x2="292.092" y2="286.264" gradientUnits="userSpaceOnUse">
<stop stop-color="#387EB8"/>
<stop offset="1" stop-color="#366994"/>
</linearGradient>
<linearGradient id="paint9_linear_38_419" x1="285.225" y1="278.993" x2="305.246" y2="298.666" gradientUnits="userSpaceOnUse">
<stop stop-color="#FFE052"/>
<stop offset="1" stop-color="#FFC331"/>
</linearGradient>
<linearGradient id="paint10_linear_38_419" x1="276.955" y1="495.001" x2="276.955" y2="480.457" gradientUnits="userSpaceOnUse">
<stop offset="0.056" stop-color="#2AAC94"/>
<stop offset="0.155" stop-color="#239C87"/>
<stop offset="0.372" stop-color="#177E71"/>
<stop offset="0.588" stop-color="#0E6961"/>
<stop offset="0.799" stop-color="#095D57"/>
<stop offset="1" stop-color="#085954"/>
</linearGradient>
<linearGradient id="paint11_linear_38_419" x1="295.34" y1="484.447" x2="281.297" y2="469.166" gradientUnits="userSpaceOnUse">
<stop offset="0.0417478" stop-color="#ABE88E"/>
<stop offset="0.548926" stop-color="#2AAA92"/>
<stop offset="0.906" stop-color="#117865"/>
</linearGradient>
<linearGradient id="paint12_linear_38_419" x1="260.812" y1="483.704" x2="274.182" y2="479.143" gradientUnits="userSpaceOnUse">
<stop stop-color="#6AD6F9"/>
<stop offset="1" stop-color="#6AD6F9" stop-opacity="0"/>
</linearGradient>
<linearGradient id="paint13_linear_38_419" x1="271.013" y1="466.219" x2="306.605" y2="466.219" gradientUnits="userSpaceOnUse">
<stop offset="0.043" stop-color="#25FFD4"/>
<stop offset="0.874" stop-color="#55DDB9"/>
</linearGradient>
<linearGradient id="paint14_linear_38_419" x1="284.713" y1="456.548" x2="292.34" y2="472.911" gradientUnits="userSpaceOnUse">
<stop stop-color="#F4E084" stop-opacity="0.6"/>
<stop offset="0.534" stop-color="#F4E084" stop-opacity="0"/>
</linearGradient>
<linearGradient id="paint15_linear_38_419" x1="297.412" y1="446.365" x2="307.695" y2="462.166" gradientUnits="userSpaceOnUse">
<stop stop-color="#ABF5E2"/>
<stop offset="1" stop-color="#4EE6BD"/>
</linearGradient>
<linearGradient id="paint16_linear_38_419" x1="289.514" y1="455" x2="289.514" y2="477.438" gradientUnits="userSpaceOnUse">
<stop stop-color="#1F937E"/>
<stop offset="1" stop-color="#9EE09F"/>
</linearGradient>
<linearGradient id="paint17_linear_38_419" x1="289.514" y1="455" x2="289.514" y2="477.438" gradientUnits="userSpaceOnUse">
<stop stop-color="#1F937E"/>
<stop offset="1" stop-color="#C0ECC7"/>
</linearGradient>
<linearGradient id="paint18_linear_38_419" x1="271.013" y1="461.247" x2="303.069" y2="476.138" gradientUnits="userSpaceOnUse">
<stop stop-color="#6AD6F9"/>
<stop offset="0.229501" stop-color="#60E9D0"/>
<stop offset="0.650711" stop-color="#6DE9BB"/>
<stop offset="0.99354" stop-color="#ABE88E"/>
</linearGradient>
<linearGradient id="paint19_linear_38_419" x1="273.979" y1="464.031" x2="291.412" y2="467.889" gradientUnits="userSpaceOnUse">
<stop stop-color="white" stop-opacity="0"/>
<stop offset="0.458511" stop-color="white"/>
<stop offset="1" stop-color="white" stop-opacity="0"/>
</linearGradient>
<linearGradient id="paint20_linear_38_419" x1="279.759" y1="478.96" x2="280.17" y2="466.74" gradientUnits="userSpaceOnUse">
<stop offset="0.204642" stop-color="#063D3B" stop-opacity="0"/>
<stop offset="0.58553" stop-color="#063D3B" stop-opacity="0.236587"/>
<stop offset="0.872285" stop-color="#063D3B" stop-opacity="0.75"/>
</linearGradient>
<linearGradient id="paint21_linear_38_419" x1="266.807" y1="477.745" x2="281.704" y2="480.548" gradientUnits="userSpaceOnUse">
<stop stop-color="white" stop-opacity="0"/>
<stop offset="0.458511" stop-color="white"/>
<stop offset="1" stop-color="white" stop-opacity="0"/>
</linearGradient>
<linearGradient id="paint22_linear_38_419" x1="277.569" y1="490.97" x2="274.666" y2="476.764" gradientUnits="userSpaceOnUse">
<stop offset="0.064" stop-color="#063D3B" stop-opacity="0"/>
<stop offset="0.17" stop-color="#063D3B" stop-opacity="0.135"/>
<stop offset="0.562" stop-color="#063D3B" stop-opacity="0.599"/>
<stop offset="0.85" stop-color="#063D3B" stop-opacity="0.9"/>
<stop offset="1" stop-color="#063D3B"/>
</linearGradient>
<linearGradient id="paint23_linear_38_419" x1="462.078" y1="185.974" x2="485.655" y2="185.974" gradientUnits="userSpaceOnUse">
<stop stop-color="#50C7E8"/>
<stop offset="0.25" stop-color="#4CC3E4"/>
<stop offset="0.51" stop-color="#41B6DA"/>
<stop offset="0.77" stop-color="#2FA2C8"/>
<stop offset="1" stop-color="#1989B2"/>
</linearGradient>
<linearGradient id="paint24_linear_38_419" x1="479.255" y1="358.434" x2="496.516" y2="396.041" gradientUnits="userSpaceOnUse">
<stop stop-color="#E6AD10"/>
<stop offset="1" stop-color="#C87E0E"/>
</linearGradient>
<linearGradient id="paint25_linear_38_419" x1="472.678" y1="368.809" x2="487.216" y2="397.791" gradientUnits="userSpaceOnUse">
<stop stop-color="#F6D751"/>
<stop offset="1" stop-color="#E6AD10"/>
</linearGradient>
<linearGradient id="paint26_linear_38_419" x1="467.713" y1="377.45" x2="475.721" y2="396.959" gradientUnits="userSpaceOnUse">
<stop stop-color="#F9E589"/>
<stop offset="1" stop-color="#F6D751"/>
</linearGradient>
<clipPath id="clip0_38_419">
<rect width="40" height="40" fill="white" transform="translate(269 71)"/>
</clipPath>
<clipPath id="clip1_38_419">
<rect width="40" height="39" fill="white" transform="translate(269 167)"/>
</clipPath>
<clipPath id="clip2_38_419">
<rect width="40" height="38.6207" fill="white" transform="translate(269 263)"/>
</clipPath>
<clipPath id="clip3_38_419">
<rect width="40.0177" height="40" fill="white" transform="translate(268 455)"/>
</clipPath>
<clipPath id="clip4_38_419">
<rect width="40" height="40" fill="white" transform="translate(365 215)"/>
</clipPath>
<clipPath id="clip5_38_419">
<rect width="40" height="40" fill="white" transform="translate(364.5 311)"/>
</clipPath>
</defs>
</svg>
