<svg width="372" height="383" viewBox="0 0 372 383" fill="none" xmlns="http://www.w3.org/2000/svg">
<path d="M23.664 -115.815C25.1678 -116.134 26.7565 -116.382 28.4849 -116.576C32.2025 -116.988 36.2908 -117.035 41.0773 -116.809C49.7402 -116.386 59.139 -115.002 68.805 -113.457C76.0196 -112.312 85.3094 -110.898 94.0582 -109.987C103.499 -108.986 110.736 -108.778 116.2 -109.249C117.601 -109.353 118.929 -109.576 120.215 -109.835C120.324 -109.865 120.487 -109.91 120.639 -109.905C124.138 -110.675 126.44 -111.771 128.634 -112.836C130.707 -113.822 132.67 -114.778 135.635 -115.449C137.63 -115.902 140.001 -116.225 142.736 -116.368C145.363 -116.481 148.323 -116.5 151.538 -116.309C157.732 -116.002 164.855 -115.112 172.022 -113.768C179.771 -112.304 187.769 -110.396 195.531 -108.564L196.879 -108.234C202.711 -106.851 209.028 -105.368 215.327 -104.02C228.799 -101.143 243.192 -98.704 259.295 -96.5934C268.536 -95.398 275.999 -94.647 282.787 -94.2701C291.189 -93.8226 298.316 -94.0037 304.514 -94.7683C307.298 -95.1108 309.954 -95.5582 312.525 -96.0752C319.661 -97.562 325.966 -99.6123 332.555 -101.787C334.719 -102.519 337.035 -103.245 339.351 -103.972C343.436 -105.275 347.402 -106.081 351.38 -106.518C353.576 -106.746 355.802 -106.889 357.991 -106.883C360.333 -106.872 362.693 -106.727 365.017 -106.432C371.145 -105.641 377.263 -103.964 383.164 -101.39C388.421 -99.1047 393.565 -96.1371 398.358 -92.5616C403.503 -88.7568 408.109 -84.6182 412.546 -80.6193C416.811 -76.7601 421.205 -72.796 425.913 -69.2904C430.876 -65.5753 436.53 -62.1888 443.677 -58.6521C451.048 -54.9907 459.626 -51.4733 469.174 -48.1747C478.067 -45.1156 487.778 -42.2804 498.113 -39.709C500.128 -39.1898 502.21 -38.7353 504.237 -38.2659C506.652 -37.7166 509.025 -37.2022 511.355 -36.7227C518.085 -35.2593 524.384 -33.9108 530.581 -31.9295C536.347 -30.0629 541.915 -27.5835 547.253 -24.5759C552.226 -21.7479 556.982 -18.4415 561.339 -14.7467C565.483 -11.2263 569.197 -7.40219 572.462 -3.40882C575.6 0.479839 578.149 4.48285 580.092 8.46564C582.687 13.7594 584.487 19.1774 586.281 24.411C587.586 28.2888 588.911 32.3012 590.562 36.2241C592.11 39.9426 594.016 43.6562 596.11 47.2254C598.289 50.8645 600.729 54.4787 603.453 57.9685C606.22 61.4932 609.345 65.013 612.7 68.4234C616.098 71.8686 619.908 75.2941 623.906 78.5752C631.445 84.7035 640.01 90.5981 647.438 95.5004C648.58 96.2585 649.722 97.0165 650.821 97.7396C665.089 107.24 679.837 117.075 688.064 127.529C693.264 134.065 696.207 141.078 697.724 150.204C697.976 151.903 698.185 153.568 698.358 154.963C699.691 166.327 699.656 176.388 699.629 187.053C699.636 193.985 699.541 201.132 699.957 208.697C700.145 212.136 699.879 215.559 699.153 219.202C698.48 222.411 697.534 225.695 696.115 229.248C693.55 235.86 689.839 242.366 686.327 248.679C683.45 253.841 680.482 259.167 678.066 264.528C675.342 270.532 673.673 275.968 672.943 281.101C672.321 285.367 672.305 289.652 672.325 293.789C672.306 299.565 672.36 305.042 670.684 310.294C669.647 313.742 667.852 317.165 665.378 320.448C663.103 323.537 660.125 326.585 656.649 329.584C650.43 334.868 642.384 339.908 632.058 345.106C630.719 345.798 629.204 346.585 627.58 347.401C621.915 350.394 614.855 354.093 607.102 356.865C603.581 358.155 600.186 359.13 596.972 359.776C596.384 359.891 595.796 360.005 595.262 360.104C591.005 360.85 586.99 361.017 583.325 360.577C580.547 360.267 578.004 359.613 575.503 358.994C573.768 358.584 571.989 358.14 570.187 357.795C567.262 357.246 564.211 357.01 561.141 357.058C556.75 357.096 552.311 357.752 548.316 358.891C544.43 360.001 541.054 361.529 538.528 363.337C534.47 366.216 530.918 371.003 527.737 375.736C524.846 380.11 520.705 384.175 515.587 387.856C510.469 391.536 504.33 394.797 497.293 397.56C489.183 400.756 479.457 402.625 469.089 404.624C460.06 406.349 450.704 408.163 442.181 410.96C440.247 411.582 438.356 412.239 436.574 412.866C432.682 414.21 428.681 415.584 424.48 416.733C419.733 418.031 415.191 418.901 410.649 419.353C405.53 419.869 399.762 419.911 393.549 419.469C387.792 419.043 381.579 418.183 374.898 416.939C368.112 415.072 360.677 412.731 351.256 409.537C348.804 408.719 346.309 407.865 343.857 407.047C314.982 397.261 285.172 387.125 255.173 379.043C238.992 374.719 224.264 371.349 210.156 368.785C202.492 367.391 194.877 366.217 187.602 365.321C179.981 364.381 172.355 363.675 165.111 363.282C162.849 363.157 160.586 363.031 158.42 362.925C142.471 362.076 125.916 361.206 109.549 357.864C99.2998 355.781 89.3216 352.787 79.8632 348.905C71.103 345.298 62.7295 340.933 54.9369 335.851C52.6411 334.385 50.5514 332.909 48.5589 331.453C43.924 328.067 39.5064 324.202 34.9661 319.58C30.912 315.477 27.2094 311.185 23.6343 306.997C21.3665 304.359 19.0136 301.652 16.5941 299.01C14.7035 296.921 10.7217 292.518 4.93752 287.771C-1.60013 282.346 -8.96749 277.613 -16.9518 273.747C-22.8778 270.854 -29.5918 268.269 -36.772 266.138C-43.8976 263.992 -51.629 262.244 -59.7175 260.919C-63.789 260.265 -68.0483 259.754 -72.7986 259.378C-76.5965 259.068 -80.7217 258.846 -85.7264 258.68C-86.333 258.659 -86.8851 258.624 -87.4492 258.639C-97.5011 258.27 -107.868 257.942 -117.42 255.715C-121.905 254.661 -125.141 253.498 -127.728 251.972C-132.27 249.259 -134.698 245.595 -135.023 241.03C-135.174 238.279 -134.682 235.398 -133.385 231.925C-130.929 225.343 -127.52 219.245 -123.27 211.986C-122.061 209.933 -120.815 207.731 -120.177 205.509C-119.424 203.022 -119.458 200.844 -120.245 198.826C-120.818 197.4 -121.749 195.979 -123.025 194.514C-125.062 192.185 -127.929 190.131 -132.064 188.051C-135.695 186.205 -139.939 184.573 -144.406 182.817C-148.413 181.26 -152.505 179.634 -156.633 177.738C-161.308 175.573 -165.213 173.383 -168.56 170.995C-171.044 169.254 -173.189 167.374 -175.177 165.266C-176.879 163.451 -178.436 161.457 -179.975 159.178C-181.922 156.267 -183.627 153.196 -185.258 150.245C-188.935 143.526 -192.813 136.582 -200.056 130.279C-204.145 126.744 -208.938 123.587 -213.548 120.52C-219.707 116.48 -225.513 112.67 -229.107 108.348C-230.687 106.453 -231.759 104.559 -232.278 102.7C-233.109 99.809 -232.878 96.9535 -231.47 94.288C-230.262 91.8167 -228.058 89.4455 -225.012 87.1695C-219.791 83.2747 -211.845 79.7052 -201.351 76.5555C-199.484 75.9982 -197.617 75.4409 -195.75 74.8836C-187.299 72.3858 -178.563 69.7636 -171.315 66.3382C-166.424 64.0231 -162.341 61.4635 -159.271 58.6691C-155.959 55.7154 -153.636 52.4273 -152.339 48.9544C-151.597 46.9364 -151.219 44.7388 -151.242 42.5111C-151.222 40.3183 -151.633 38.0107 -152.39 35.6581C-153.116 33.3903 -154.176 31.0276 -155.552 28.7046C-156.927 26.3816 -158.563 24.0834 -160.515 21.8249C-161.634 20.5486 -162.837 19.2025 -164.011 17.9411C-167.318 14.3314 -170.698 10.6021 -172.67 6.95323C-174.57 3.42397 -175.055 0.159472 -175.383 -2.91555C-175.796 -6.479 -175.851 -9.62866 -175.705 -12.5539C-175.347 -18.4693 -173.756 -23.791 -170.969 -28.3696C-167.674 -33.7852 -162.678 -38.2233 -156.085 -41.4695C-152.728 -43.1325 -148.812 -44.5759 -144.229 -45.8296C-142.101 -46.4117 -139.888 -46.924 -137.632 -47.4013C-131.466 -48.6693 -124.971 -49.6081 -118.531 -50.5321C-117.845 -50.6264 -117.16 -50.7208 -116.475 -50.8151C-88.9619 -54.8041 -60.6561 -59.7546 -40.0321 -68.9795C-30.8929 -73.0618 -22.4173 -78.4053 -14.0541 -85.3933C-6.33284 -91.8335 0.537817 -98.9718 6.36699 -105.174C6.51221 -105.353 6.65746 -105.532 6.89978 -105.692C8.34644 -107.251 9.85971 -108.875 11.6281 -110.289C13.5964 -111.898 15.6746 -113.118 17.9959 -114.079C19.4442 -114.801 21.4205 -115.388 23.664 -115.815ZM120.257 -109.8C118.972 -109.541 117.601 -109.353 116.243 -109.214C110.778 -108.743 103.499 -108.986 94.1007 -109.952C85.3519 -110.863 75.9651 -112.298 68.8476 -113.422C59.127 -114.952 49.7827 -116.351 41.1198 -116.774C36.3879 -117.016 32.2876 -116.918 28.5275 -116.541C24.452 -116.124 20.8324 -115.274 17.7897 -114.069C15.4804 -113.158 13.3901 -111.888 11.4219 -110.279C9.69599 -108.83 8.14023 -107.241 6.69357 -105.682C6.54835 -105.502 6.4031 -105.323 6.16078 -105.164C0.386177 -98.9768 -6.48448 -91.8385 -14.2603 -85.3834C-22.666 -78.4303 -31.0991 -73.0519 -40.2383 -68.9697C-51.7776 -63.8121 -65.6912 -60.0061 -80.5526 -56.9182C-92.2975 -54.4967 -104.541 -52.5439 -116.736 -50.7904C-117.421 -50.696 -118.106 -50.6016 -118.792 -50.5073C-125.177 -49.5982 -131.726 -48.6445 -137.893 -47.3765C-140.148 -46.8991 -142.361 -46.3869 -144.489 -45.8048C-149.127 -44.5361 -153.031 -43.1425 -156.346 -41.4447C-162.896 -38.1636 -167.935 -33.7604 -171.23 -28.3448C-174.072 -23.7513 -175.662 -18.4296 -175.966 -12.5292C-176.112 -9.60386 -176.057 -6.4542 -175.644 -2.89074C-175.359 0.149376 -174.873 3.41387 -172.931 6.97804C-170.958 10.6269 -167.578 14.3562 -164.271 17.9659C-163.098 19.2273 -161.894 20.5734 -160.776 21.8497C-158.824 24.1082 -157.188 26.4064 -155.812 28.7294C-154.437 31.0524 -153.377 33.4151 -152.65 35.683C-151.894 38.0356 -151.525 40.3083 -151.502 42.5359C-151.492 44.8134 -151.858 46.9612 -152.6 48.9792C-153.855 52.487 -156.22 55.7402 -159.532 58.6939C-162.656 61.5032 -166.74 64.0628 -171.576 66.363C-178.878 69.8032 -187.602 72.3757 -196.011 74.9084C-197.823 75.4508 -199.745 76.023 -201.612 76.5803C-212.009 79.75 -219.954 83.3195 -225.218 87.1793C-228.264 89.4554 -230.468 91.8266 -231.676 94.2979C-232.987 96.9834 -233.26 99.804 -232.484 102.71C-231.953 104.519 -230.882 106.413 -229.258 108.343C-225.665 112.665 -219.858 116.475 -213.699 120.515C-209.035 123.567 -204.242 126.724 -200.208 130.274C-192.922 136.612 -189.141 143.536 -185.41 150.24C-183.778 153.191 -182.074 156.262 -180.127 159.173C-178.588 161.451 -177.031 163.446 -175.329 165.26C-173.341 167.369 -171.196 169.249 -168.712 170.99C-165.31 173.363 -161.46 175.568 -156.785 177.733C-152.656 179.629 -148.565 181.255 -144.558 182.812C-140.09 184.568 -135.901 186.215 -132.216 188.046C-128.081 190.126 -125.214 192.18 -123.177 194.509C-121.9 195.974 -120.969 197.395 -120.396 198.821C-119.61 200.839 -119.575 203.017 -120.329 205.504C-121.01 207.691 -122.255 209.893 -123.421 211.981C-127.671 219.24 -131.08 225.338 -133.536 231.92C-134.834 235.393 -135.325 238.274 -135.174 241.025C-134.892 245.555 -132.465 249.219 -127.922 251.932C-125.335 253.458 -122.1 254.621 -117.615 255.675C-108.105 257.867 -97.7498 258.245 -87.6979 258.614C-87.0913 258.634 -86.5393 258.669 -85.9752 258.655C-81.025 258.836 -76.8998 259.058 -73.0474 259.353C-68.3516 259.744 -64.0378 260.24 -59.9663 260.894C-51.8778 262.219 -44.1464 263.967 -36.9662 266.098C-29.7435 268.264 -23.1266 270.829 -17.146 273.707C-9.21622 277.588 -1.79435 282.306 4.78583 287.766C10.5154 292.528 14.5093 296.881 16.4425 299.005C18.862 301.647 21.1602 304.369 23.4826 306.992C27.0697 311.13 30.8148 315.457 34.8144 319.575C39.3122 324.162 43.7723 328.062 48.4073 331.448C50.3573 332.869 52.544 334.365 54.7852 335.846C62.5353 340.893 70.9513 345.293 79.7115 348.9C89.1699 352.782 99.1482 355.776 109.398 357.859C125.819 361.186 142.319 362.071 158.268 362.92C160.477 363.061 162.794 363.172 164.96 363.277C172.246 363.704 179.83 364.376 187.45 365.316C194.725 366.212 202.34 367.386 210.004 368.78C224.167 371.329 238.895 374.699 255.118 379.058C285.075 387.105 314.94 397.226 343.802 407.062C346.255 407.88 348.749 408.734 351.202 409.552C360.622 412.746 368.058 415.087 374.843 416.954C381.469 418.213 387.78 419.093 393.495 419.484C399.707 419.926 405.421 419.898 410.54 419.383C415.137 418.916 419.624 418.061 424.371 416.763C428.572 415.613 432.627 414.225 436.464 412.896C438.301 412.254 440.192 411.597 442.072 410.99C450.595 408.193 459.939 406.428 468.98 404.653C472.029 404.052 475.067 403.5 478.02 402.878C484.993 401.437 491.493 399.845 497.13 397.605C504.112 394.857 510.305 391.581 515.369 387.915C520.487 384.235 524.628 380.17 527.519 375.796C530.755 371.048 534.306 366.26 538.364 363.382C540.89 361.574 544.321 360.031 548.152 358.936C552.202 357.782 556.629 357.176 560.978 357.103C564.047 357.055 567.141 357.325 570.023 357.84C571.88 358.17 573.658 358.614 575.394 359.024C577.894 359.643 580.395 360.262 583.216 360.607C586.881 361.047 590.896 360.88 595.098 360.149C595.632 360.05 596.22 359.935 596.808 359.821C600.022 359.175 603.417 358.199 606.939 356.91C614.649 354.103 621.708 350.404 627.417 347.446C628.998 346.595 630.513 345.808 631.895 345.151C642.221 339.953 650.266 334.913 656.485 329.628C660.004 326.665 662.94 323.581 665.214 320.493C667.646 317.175 669.441 313.752 670.52 310.338C672.153 305.052 672.143 299.61 672.162 293.834C672.141 289.697 672.157 285.411 672.779 281.146C673.509 276.013 675.221 270.612 677.903 264.573C680.318 259.211 683.286 253.885 686.163 248.724C689.675 242.411 693.344 235.869 695.952 229.292C697.37 225.74 698.316 222.456 698.989 219.247C699.704 215.654 699.927 212.196 699.793 208.742C699.42 201.212 699.418 194.045 699.465 187.098C699.492 176.433 699.57 166.406 698.194 155.008C698.022 153.613 697.77 151.913 697.56 150.249C696.098 141.108 693.1 134.11 687.901 127.574C679.63 117.084 664.925 107.285 650.658 97.7844C649.558 97.0613 648.374 96.2683 647.275 95.5452C639.858 90.593 631.239 84.7134 623.742 78.6199C619.701 75.304 615.934 71.9134 612.494 68.4332C609.139 65.0229 606.014 61.503 603.247 57.9784C600.522 54.4886 598.028 50.8893 595.904 47.2353C593.81 43.6661 591.904 39.9524 590.356 36.2339C588.704 32.3111 587.38 28.2987 586.074 24.4209C584.281 19.1873 582.481 13.7693 579.886 8.47549C577.943 4.49271 575.339 0.504626 572.256 -3.39896C569.045 -7.40726 565.277 -11.2165 561.175 -14.7019C556.819 -18.3968 552.105 -21.6682 547.089 -24.5311C541.751 -27.5387 536.184 -30.0182 530.46 -31.8498C524.317 -33.8461 518.018 -35.1946 511.288 -36.6579C509.013 -37.1524 506.585 -37.6519 504.17 -38.2012C502.143 -38.6706 500.019 -39.16 498.047 -39.6443C487.754 -42.1808 478 -45.0509 469.108 -48.11C459.602 -51.3737 450.981 -54.926 443.61 -58.5874C436.464 -62.1241 430.81 -65.5106 425.846 -69.2256C421.138 -72.7313 416.745 -76.6953 412.479 -80.5546C408.043 -84.5535 403.394 -88.7269 398.291 -92.4969C393.498 -96.0723 388.355 -99.04 383.14 -101.29C377.238 -103.864 371.121 -105.542 364.993 -106.332C356.389 -107.422 348.044 -106.629 339.381 -103.887C337.065 -103.16 334.847 -102.414 332.586 -101.702C323.669 -98.7512 315.157 -96.0042 304.545 -94.6835C298.347 -93.919 291.22 -93.7379 282.818 -94.1853C276.029 -94.5623 268.555 -95.2635 259.326 -96.5087C243.223 -98.6193 228.83 -101.058 215.358 -103.935C209.059 -105.283 202.741 -106.766 196.909 -108.15L195.562 -108.479C187.854 -110.327 179.898 -112.199 172.052 -113.683C164.886 -115.027 157.805 -115.882 151.623 -116.239C148.408 -116.43 145.448 -116.411 142.822 -116.298C140.444 -116.16 138.249 -115.931 136.472 -115.539C136.254 -115.479 135.938 -115.439 135.72 -115.379C132.798 -114.673 130.792 -113.752 128.719 -112.766C126.526 -111.701 124.223 -110.606 120.724 -109.835C120.475 -109.86 120.366 -109.83 120.257 -109.8Z" stroke="white" stroke-opacity="0.3"/>
<path d="M56.9205 -29.0034C57.1235 -29.059 57.4168 -29.0959 57.6199 -29.1515C69.7869 -31.4414 84.6728 -28.4989 99.1071 -25.6494C100.603 -25.3658 102.139 -25.0497 103.634 -24.7661C109.929 -23.5435 119.332 -22.0459 128.203 -21.8748C132.357 -21.7986 136.013 -22.0195 139.03 -22.5422C139.425 -22.6069 139.77 -22.6577 140.125 -22.755C142.973 -23.3612 145.263 -24.2041 146.964 -25.3627C149.517 -27.1006 150.438 -29.3447 151.337 -31.4961C151.443 -31.7418 151.561 -32.0339 151.719 -32.2935C152.359 -33.768 153.185 -35.4232 154.904 -36.8461C156.16 -37.926 157.907 -38.8806 160.123 -39.6169C162.187 -40.3116 164.692 -40.8669 167.484 -41.2412C170.175 -41.5878 173.064 -41.7719 176.15 -41.7937C179.186 -41.8015 182.279 -41.6517 185.439 -41.3905C195.31 -40.4538 205.234 -38.3623 214.747 -36.3313C217.315 -35.7782 219.935 -35.239 222.554 -34.6998C231.134 -32.9336 239.703 -31.5105 247.927 -30.4261C262.675 -28.4854 277.427 -27.5417 291.721 -27.6417C305.872 -27.7464 319.656 -28.8762 332.686 -31.0126L332.788 -31.0404C335.947 -31.5583 339.207 -32.104 342.542 -32.3668C346.22 -32.6805 349.668 -32.6278 352.936 -32.2228C356.063 -31.8226 358.982 -31.1488 361.963 -30.1457C364.634 -29.2308 367.249 -28.0842 369.937 -26.6545C375.016 -23.93 379.536 -20.663 384.334 -17.1688C389.499 -13.4285 394.862 -9.52585 400.94 -6.42516C402.165 -5.8078 403.402 -5.23683 404.56 -4.7308C407.435 -3.48197 410.586 -2.39533 414.001 -1.4245C417.067 -0.574402 420.347 0.173769 424.033 0.810828C430.892 2.05224 438.195 2.8255 445.216 3.58932C454.32 4.56281 463.655 5.5596 472.462 7.56711C480.467 9.36093 487.819 11.8964 494.439 15.1087C500.759 18.1863 506.488 21.9453 511.378 26.2373C515.448 29.8008 518.932 33.8278 521.852 38.2255C524.433 42.0666 526.551 46.2506 528.202 50.606C530.08 55.5922 531.512 60.657 532.797 65.5456C534.394 71.3014 536.036 77.2614 538.429 83.0594C539.756 86.2043 541.11 89.0384 542.678 91.7707C544.451 94.8369 546.42 97.6759 548.694 100.432C552.28 104.82 556.775 109.177 561.111 113.404C565.142 117.325 569.371 121.407 572.765 125.416C574.609 127.596 576.035 129.545 577.229 131.47C578.559 133.618 579.449 135.626 580.057 137.625C581.119 141.275 581.053 144.888 580.88 148.357C580.744 151.079 580.676 153.912 581.133 156.732C581.698 160.085 583.133 163.764 585.523 168.003C587.652 171.752 590.323 175.611 592.887 179.327C596.972 185.181 601.154 191.226 603.372 197.159C605.573 202.966 606.075 208.545 604.902 214.193C604.376 216.762 603.518 219.335 602.254 222.02C601.096 224.458 599.685 226.967 597.935 229.697C595.539 233.341 592.578 236.966 589.78 240.504C584.635 246.892 579.384 253.526 576.717 260.448C576.038 262.28 575.5 264.116 575.216 265.883C574.334 271.104 575.101 276.567 575.851 281.905C576.463 286.242 577.093 290.703 576.848 295.058C576.663 298.573 575.801 302.143 574.363 305.742C573.066 308.955 571.284 312.214 568.932 315.673C564.543 322.07 558.935 328.022 553.563 333.779L552.932 334.428C550.708 336.769 547.296 340.301 543.392 343.708C541.775 345.103 540.417 346.211 539.043 347.194C537.431 348.371 535.915 349.349 534.342 350.169C530.746 352.106 526.968 353.226 522.843 353.618C521.196 353.766 519.322 353.672 517.234 353.291C514.553 352.812 512.153 351.953 509.662 351.075C508.002 350.49 506.342 349.905 504.569 349.394C498.088 347.573 491.485 347.431 487.124 347.629C484.489 347.743 482.091 348.053 479.801 348.506C479.406 348.571 479 348.682 478.645 348.779C476.079 349.395 473.891 350.21 472.121 351.257C470.312 352.272 468.515 354.02 466.714 356.375C465.183 358.396 463.755 360.779 462.535 363.278C461.558 365.364 460.371 367.335 459.167 369.18C456.793 372.731 453.831 375.967 450.445 378.799C446.823 381.825 442.556 384.379 437.928 386.468C431.022 387.188 422.644 387.532 412.972 387.537C403.633 387.537 392.871 387.147 380.907 386.437C380.252 386.399 379.508 386.343 378.853 386.306C373.334 385.997 367.634 385.651 361.719 385.018L361.148 384.827C359.257 384.219 357.275 383.592 355.242 382.979C354.141 382.631 352.99 382.296 351.798 381.929C345.22 379.918 338.332 377.819 331.279 375.028C325.134 372.595 319.362 369.801 313.849 367.109C308.625 364.597 303.281 361.989 297.628 359.681C294.392 358.358 290.823 357.039 287.181 355.827C283.76 354.685 280.045 353.579 276.217 352.548C269.453 350.718 261.99 349.035 253.477 347.38C245.416 345.818 237.017 344.479 228.849 343.163C217.808 341.377 206.395 339.563 195.731 337.197C189.973 335.915 184.931 334.609 180.217 333.128C174.971 331.488 170.324 329.728 166.003 327.792C162.97 326.414 160.151 324.933 157.536 323.397C155.169 322.009 152.976 320.487 150.727 318.807C148.766 317.308 146.878 315.703 144.894 313.907C141.253 310.529 137.94 306.975 134.784 303.552C130.724 299.163 126.517 294.597 121.554 290.412C116.393 286.064 110.84 282.56 104.655 279.705C100.944 277.992 96.7768 276.404 92.3219 275.025C88.2678 273.752 83.7569 272.605 78.9811 271.573C71.044 269.891 62.2611 268.569 51.227 267.345C45.7749 266.758 39.6793 266.087 33.989 264.916C27.5762 263.596 22.748 261.799 19.2336 259.469C15.5497 257.056 13.3885 254.226 12.5918 250.849C11.8691 247.756 12.3876 244.626 13.0257 241.983C13.7137 238.936 14.554 235.848 15.3212 232.867C16.0884 229.885 16.8891 226.764 17.6167 223.75C18.0137 221.909 18.4778 219.79 18.2366 217.648C17.9498 215.301 16.9188 213.288 14.9966 211.432C12.6108 209.14 9.39649 207.334 5.13342 205.946C1.79074 204.868 -2.04237 204.055 -6.95854 203.408C-11.3216 202.826 -15.8309 202.458 -20.6224 202.08C-24.4375 201.781 -28.4333 201.446 -32.2656 201.022C-41.7703 199.941 -48.799 198.227 -54.2042 195.678C-58.6718 193.566 -61.8085 191.047 -63.9025 187.938C-65.9853 184.784 -66.6298 181.366 -67.1779 178.138C-67.2354 177.591 -67.3833 177.025 -67.4408 176.478C-67.8582 173.69 -68.304 170.824 -69.2462 168.05C-70.3415 164.929 -71.9323 162.289 -74.177 160.002C-75.8111 158.327 -77.9304 156.698 -80.7215 154.907C-83.1849 153.329 -85.9021 151.821 -88.4894 150.363C-92.9578 147.861 -97.5957 145.276 -101.134 142.26C-104.435 139.439 -106.58 136.345 -107.461 133.121C-108.268 130.181 -108.043 127.088 -106.768 123.967C-105.6 121.093 -103.535 118.232 -100.696 115.507C-98.0322 112.915 -94.7584 110.547 -90.9367 108.462C-86.7261 106.141 -82.0639 103.912 -77.4749 101.79C-71.8035 99.1126 -65.9179 96.3328 -60.9639 93.2883C-58.2925 91.6479 -56.1062 90.0536 -54.2022 88.4499C-52.101 86.6191 -50.5246 84.8019 -49.2588 82.8965C-48.19 81.2182 -47.4205 79.4053 -46.9727 77.5505C-46.525 75.6957 -46.3989 73.799 -46.5551 71.8929C-46.7508 69.9544 -47.2794 68.0202 -48.1126 66.1695C-48.9741 64.2399 -50.1797 62.3611 -51.6899 60.5657C-52.3177 59.8281 -53.0359 59.0718 -53.7652 58.3619C-55.7725 56.2695 -57.8194 54.1445 -57.9592 51.9741C-58.0175 51.0373 -57.6525 50.1146 -56.983 49.1086C-56.3359 48.1953 -55.4685 47.3517 -54.6632 46.5684C-47.3745 39.9401 -38.0248 34.0038 -26.7097 28.9589C-23.8345 27.6524 -20.739 26.4156 -17.666 25.2716C-13.3411 23.6551 -8.66619 22.1594 -4.14354 20.7053C3.11406 18.3297 10.665 15.9171 17.0074 13.0123C20.4634 11.4603 23.3043 9.90348 25.6935 8.25364C28.3702 6.39525 30.443 4.4856 32.0866 2.39021C34.8049 -1.21186 36.258 -5.4638 37.5871 -9.5952C38.9782 -13.7869 40.4537 -18.1315 43.2399 -21.6223C44.7372 -23.5044 46.5286 -25.0339 48.7156 -26.2387C51.2751 -27.4154 53.869 -28.3417 56.9205 -29.0034ZM140.164 -22.7225C139.769 -22.6578 139.465 -22.5744 139.07 -22.5097C136.052 -21.9871 132.396 -21.7662 128.243 -21.8423C119.372 -22.0134 109.968 -23.5111 103.674 -24.7337C102.178 -25.0173 100.643 -25.3333 99.1467 -25.6169C84.7124 -28.4664 69.866 -31.3764 57.6594 -29.119C54.2862 -28.4992 51.4386 -27.5034 49.0262 -26.1504C46.8787 -24.9132 45.0985 -23.43 43.5505 -21.534C40.7135 -18.0293 39.2888 -13.6986 37.8977 -9.50694C36.5177 -5.36165 35.1154 -1.12364 32.3463 2.49233C30.7535 4.57382 28.6696 6.52988 25.9533 8.35579C23.5641 10.0056 20.7231 11.5625 17.2672 13.1145C10.8852 15.9867 3.37384 18.4318 -3.88375 20.8075C-8.4064 22.2616 -13.0418 23.7898 -17.4062 25.3738C-20.4792 26.5178 -23.5747 27.7545 -26.45 29.061C-37.7651 34.1059 -47.1543 40.0098 -54.4034 46.6705C-55.2088 47.4538 -56.1157 48.265 -56.7628 49.1783C-57.4323 50.1843 -57.7972 51.107 -57.7389 52.0438C-57.6388 54.1817 -55.5523 56.3392 -53.5845 58.3991C-52.9059 59.1229 -52.1879 59.8791 -51.5093 60.6029C-49.9991 62.3983 -48.7934 64.2771 -47.9319 66.2067C-47.0592 68.0899 -46.5306 70.024 -46.3744 71.9301C-46.2183 73.8362 -46.3443 75.7329 -46.7921 77.5877C-47.2398 79.4425 -48.0489 81.2229 -49.0781 82.9337C-50.3044 84.8716 -51.9316 86.7026 -54.0215 88.4871C-55.886 90.1232 -58.1119 91.6851 -60.7833 93.3255C-65.7373 96.37 -71.6229 99.1498 -77.2943 101.828C-81.793 103.968 -86.5455 106.178 -90.7561 108.499C-94.5382 110.617 -97.812 112.985 -100.515 115.544C-103.354 118.269 -105.368 121.116 -106.587 124.004C-107.862 127.125 -108.127 130.185 -107.28 133.159C-106.399 136.382 -104.294 139.444 -100.953 142.297C-97.4546 145.281 -92.8167 147.866 -88.3087 150.4C-85.7214 151.858 -83.0043 153.366 -80.5409 154.944C-77.7893 156.703 -75.6813 158.378 -73.9964 160.039C-71.7517 162.326 -70.11 164.952 -69.0655 168.088C-68.1233 170.861 -67.6775 173.727 -67.2601 176.515C-67.2026 177.062 -67.0547 177.628 -66.9972 178.175C-66.4999 181.417 -65.8047 184.821 -63.7219 187.976C-61.6675 191.051 -58.4912 193.603 -54.0235 195.716C-48.5787 198.297 -41.6404 199.992 -32.085 201.059C-28.2527 201.483 -24.2569 201.818 -20.4418 202.117C-15.6503 202.495 -11.1409 202.863 -6.77788 203.445C-1.86171 204.092 2.02208 204.891 5.36476 205.969C9.62783 207.358 12.893 209.149 15.228 211.455C17.1503 213.311 18.1812 215.324 18.468 217.671C18.7093 219.814 18.2451 221.933 17.8481 223.774C17.1205 226.788 16.3706 229.894 15.5526 232.89C14.7855 235.871 13.9847 238.992 13.2571 242.006C12.6191 244.649 12.1005 247.779 12.8233 250.873C13.6199 254.249 15.7811 257.079 19.4649 259.492C23.019 261.855 27.8583 263.605 34.2204 264.939C39.8599 266.124 46.0063 266.781 51.4584 267.368C62.453 268.56 71.3261 269.9 79.2633 271.582C84.0391 272.614 88.55 273.762 92.6548 275.02C97.1097 276.4 101.277 277.988 104.988 279.701C111.212 282.588 116.766 286.092 121.887 290.407C126.94 294.611 131.108 299.144 135.117 303.547C138.312 307.003 141.575 310.571 145.227 313.903C149.342 317.67 153.473 320.784 157.869 323.392C160.434 324.942 163.303 326.409 166.336 327.788C170.606 329.738 175.253 331.497 180.549 333.123C185.225 334.572 190.306 335.91 196.024 337.16C206.688 339.526 218.102 341.34 229.143 343.126C237.31 344.442 245.709 345.781 253.771 347.343C262.283 348.998 269.746 350.681 276.51 352.511C280.338 353.542 284.053 354.648 287.475 355.79C291.168 356.988 294.646 358.288 297.922 359.644C303.575 361.952 308.969 364.546 314.143 367.072C319.706 369.75 325.478 372.545 331.572 374.991C338.665 377.814 345.463 379.895 352.092 381.892C353.283 382.259 354.384 382.608 355.536 382.942C357.518 383.569 359.5 384.196 361.442 384.79L362.012 384.981C367.927 385.614 373.627 385.96 379.146 386.269C379.801 386.306 380.546 386.362 381.2 386.4C393.165 387.11 403.977 387.486 413.265 387.5C422.976 387.528 431.316 387.151 438.221 386.431C442.889 384.374 447.116 381.788 450.739 378.762C454.124 375.93 457.086 372.694 459.46 369.143C460.715 367.284 461.811 365.295 462.829 363.241C464.048 360.742 465.477 358.359 467.008 356.338C468.809 353.983 470.645 352.268 472.415 351.22C474.224 350.206 476.372 349.358 478.938 348.742C481.505 348.127 484.348 347.739 487.417 347.592C491.83 347.38 498.432 347.522 504.913 349.343C506.686 349.854 508.397 350.426 510.007 351.025C512.536 351.935 514.897 352.761 517.578 353.24C519.667 353.621 521.54 353.715 523.137 353.581C527.261 353.189 531 352.036 534.585 350.146C538.181 348.209 541.257 345.678 543.544 343.667C547.448 340.26 550.86 336.728 553.085 334.387L553.715 333.738C559.138 327.967 564.746 322.015 569.084 315.631C571.436 312.172 573.219 308.913 574.516 305.7C575.953 302.102 576.815 298.531 577 295.016C577.245 290.662 576.616 286.2 576.003 281.864C575.242 276.572 574.436 271.076 575.368 265.841C575.652 264.074 576.19 262.238 576.869 260.406C579.587 253.47 584.838 246.836 589.983 240.448C592.781 236.911 595.702 233.253 598.138 229.642C601.925 223.972 604.161 219.029 605.155 214.123C606.329 208.475 605.827 202.896 603.626 197.089C601.369 191.124 597.187 185.08 593.14 179.258C590.577 175.542 587.895 171.728 585.777 167.934C583.427 163.727 581.952 160.016 581.387 156.663C580.89 153.811 580.998 151.01 581.133 148.287C581.217 144.8 581.373 141.206 580.311 137.556C579.703 135.557 578.762 133.562 577.483 131.4C576.288 129.475 574.823 127.494 573.019 125.346C569.625 121.338 565.396 117.255 561.365 113.335C557.029 109.108 552.494 104.719 548.948 100.362C546.674 97.6065 544.705 94.7674 542.932 91.7012C541.364 88.969 539.919 86.1162 538.643 82.9575C536.211 77.127 534.568 71.167 533.011 65.4436C531.636 60.5365 530.254 55.4578 528.416 50.5041C526.766 46.1487 524.636 42.011 522.066 38.1236C519.146 33.7259 515.611 29.7128 511.592 26.1354C506.702 21.8434 500.973 18.0844 494.653 15.0067C488.033 11.7945 480.681 9.25899 472.676 7.46518C463.909 5.49014 454.483 4.47478 445.43 3.48741C438.409 2.72358 431.106 1.95033 424.247 0.70891C420.522 0.0393705 417.281 -0.67632 414.216 -1.52641C410.749 -2.48336 407.689 -3.55141 404.774 -4.83272C403.577 -5.37123 402.34 -5.94222 401.154 -6.5271C395.076 -9.62779 389.753 -13.498 384.548 -17.2707C379.751 -20.765 375.23 -24.0319 370.152 -26.7565C367.423 -28.2186 364.808 -29.3652 362.177 -30.2476C359.196 -31.2507 356.277 -31.9245 353.15 -32.3248C349.882 -32.7297 346.485 -32.7963 342.756 -32.4687C339.421 -32.206 336.161 -31.6603 333.002 -31.1423L332.901 -31.1145C319.87 -28.9781 306.087 -27.8484 291.935 -27.7437C277.642 -27.6437 262.929 -28.5549 248.141 -30.5281C239.827 -31.631 231.309 -33.068 222.729 -34.8343C220.149 -35.3409 217.49 -35.9126 214.921 -36.4656C205.358 -38.4828 195.485 -40.5882 185.614 -41.525C182.464 -41.8325 179.321 -41.9684 176.325 -41.9281C173.238 -41.9063 170.299 -41.7083 167.659 -41.3757C164.866 -41.0013 162.413 -40.4599 160.349 -39.7652C158.133 -39.0289 156.385 -38.0744 155.129 -36.9944C153.501 -35.5529 152.624 -33.8838 151.944 -32.4419C151.787 -32.1822 151.72 -31.904 151.562 -31.6444C150.613 -29.4791 149.652 -27.2675 147.139 -25.4971C145.302 -24.1716 143.052 -23.2962 140.164 -22.7225Z" stroke="white" stroke-opacity="0.3"/>
<path d="M50.4402 69.2736C50.5941 69.2315 50.825 69.1683 51.0388 69.1754C67.8673 66.1478 89.3029 69.9311 109.977 73.5946C112.595 74.0596 115.351 74.5528 117.969 75.0177C127.972 76.7439 141.039 78.8791 153.264 79.735C159.339 80.1735 165.053 80.3167 169.997 80.0801C175.582 79.8649 180.551 79.2278 184.826 78.1898C191.161 76.654 196.34 74.2533 200.705 70.763C205.394 67.1184 208.695 62.672 211.886 58.3873C214.556 54.7698 217.321 51.061 220.838 47.8022C222.777 46.0254 224.784 44.5577 226.954 43.308C229.389 41.8546 232.047 40.6683 235.005 39.7281C236.792 39.1739 238.715 38.6478 240.759 38.2201C249.224 36.4955 259.736 36.1139 272.202 37.1667C278.961 37.7461 286.336 38.7473 293.978 40.1351C300.995 41.4313 308.295 43.0438 315.741 44.9445C316.759 45.1909 317.837 45.4865 318.856 45.7329C325.754 47.5209 332.986 49.4145 340.003 50.7106C347.918 52.1548 354.54 52.706 360.373 52.3574C365.779 51.9945 370.516 50.8303 375.038 49.6589C377.253 49.1189 379.407 48.5297 381.742 48.0881C381.819 48.067 381.819 48.067 381.896 48.046C385.598 47.2959 389.6 46.7918 393.826 46.5549C400.087 46.2205 406.87 46.3993 414.006 47.2037C421.005 47.9799 428.099 49.2551 435.074 51.022C442.126 52.7679 448.845 54.9985 455.189 57.5943C461.73 60.2675 467.484 63.2214 472.512 66.5052C483.201 73.4244 491.001 81.5931 495.047 90.1324C496.937 94.2087 498.032 98.3058 498.151 102.276C498.27 106.246 497.49 110.068 495.907 113.651C493.939 117.929 490.722 122.024 487.616 125.958C484.715 129.639 481.703 133.481 479.744 137.429C478.653 139.564 477.964 141.525 477.626 143.52C477.237 145.726 477.232 147.827 477.639 150.013C478.338 153.365 480.056 156.963 482.998 161.145C485.632 164.822 488.95 168.639 492.165 172.287C497.866 178.733 503.713 185.467 506.002 192.059C510.622 205.363 499.698 209.532 488.141 213.939C481.722 216.417 475.072 218.957 470.675 223.178C468.404 225.44 468.951 229.424 469.584 233.647C470.164 237.491 470.771 241.525 469.186 244.517C468.368 246.119 466.933 247.299 464.959 248.036C462.736 248.906 459.641 249.228 455.791 249.1C453.438 249.021 450.846 248.746 447.997 248.344C444.873 247.886 441.818 247.147 438.763 246.408C434.552 245.394 430.342 244.38 426.021 244.118C421.059 243.835 416.681 244.704 413.546 246.677C411.342 248.067 409.66 249.971 408.783 252.113C407.984 254.235 407.928 256.547 408.685 258.767C409.925 262.562 412.678 266.337 415.235 270.034C417.705 273.493 420.218 277.07 421.586 280.633C423.856 286.706 422.61 292.755 417.627 299.105C413.259 304.696 406.699 309.836 400.319 314.534C393.75 319.415 386.88 322.869 380.015 324.812C375.689 326.061 371.225 326.691 366.76 326.731C361.79 326.778 356.793 326.045 351.828 324.581C340.231 321.125 332.835 314.552 325.543 308.147C321.276 304.393 317.188 300.786 312.367 297.84C309.806 296.244 307.237 294.978 304.523 294.014C301.493 292.874 298.438 292.135 295.101 291.67C289.051 290.831 283.458 291.376 278.415 293.215C273.278 295.145 269.998 298.01 268.206 300.075C267.216 301.199 266.286 302.372 265.433 303.524C263.761 305.687 262.011 307.872 259.825 309.782C257.297 311.917 254.478 313.475 250.998 314.493C250.229 314.703 249.459 314.914 248.63 315.075C245.757 315.664 242.601 315.936 239.102 315.843C234.885 315.75 230.281 315.172 225.429 314.137C218.797 312.735 212.018 310.455 205.862 307.677C199.646 304.849 194.344 301.509 190.557 298.149C184.601 292.756 180.766 286.915 178.939 280.197C177.198 273.718 177.639 267.429 178.211 262.679C178.397 261.316 178.582 259.953 178.691 258.611C180.074 248.718 181.465 238.495 174.737 227.671C172.678 224.297 169.909 221.183 166.507 218.307C162.745 215.137 158.3 212.415 153.429 210.27C140.672 204.769 125.408 203.103 110.632 201.502C101.666 200.542 93.2638 199.624 85.3393 197.92C81.0347 196.998 77.4057 195.956 74.0415 194.711C70.2835 193.311 67.081 191.693 64.1773 189.731C61.2735 187.769 58.9254 185.59 57.4067 183.25C55.914 181.099 55.0969 178.829 54.8783 176.461C54.2862 171.176 56.8862 166.659 59.079 163.829C60.8622 161.504 63.1332 159.242 65.2502 157.023C67.555 154.621 70.0138 152.176 71.9248 149.62C74.0576 146.74 75.344 144.091 75.835 141.463C76.6132 137.051 75.1238 132.209 71.4018 127.387C67.8166 122.593 62.2818 118.136 55.4741 114.486C52.1687 112.699 48.4615 111.088 44.8744 109.576C41.621 108.169 38.2307 106.734 35.1652 105.145C31.7828 103.379 29.3159 101.692 27.4476 99.9062C24.9965 97.5581 23.7425 95.0139 23.5319 92.3155C23.3303 89.8772 24.1551 87.355 25.8523 84.7911C27.4216 82.4589 29.6325 80.1482 32.5451 77.908C35.1928 75.8715 38.4651 73.9267 41.8835 72.27C44.7723 71.0206 47.3364 69.9256 50.4402 69.2736ZM182.996 78.6247C179.14 79.4169 174.847 79.9348 170.057 80.1294C165.053 80.3167 159.475 80.2017 153.324 79.7843C141.039 78.8791 128.032 76.7932 118.029 75.067C115.411 74.602 112.655 74.1088 110.037 73.6438C89.2859 70.0014 67.8504 66.2181 51.0988 69.2247C50.9449 69.2668 50.6541 69.2807 50.5002 69.3228C47.3963 69.9748 44.8923 71.119 42.2173 72.3755C38.799 74.0322 35.6035 75.956 32.8788 78.0136C29.9663 80.2537 27.7554 82.5645 26.1861 84.8966C24.4889 87.4605 23.6641 89.9827 23.8657 92.4211C24.0764 95.1194 25.3303 97.6637 27.7814 100.012C29.5898 101.748 32.1167 103.485 35.4391 105.201C38.4446 106.741 41.8179 108.247 45.1482 109.632C48.7954 111.194 52.5025 112.805 55.748 114.542C62.4957 118.143 67.9535 122.621 71.6756 127.443C75.3207 132.286 76.8701 137.178 76.1088 141.52C75.6179 144.148 74.3915 146.845 72.2586 149.725C70.3476 152.282 67.8888 154.726 65.584 157.128C63.407 159.298 61.196 161.609 59.4128 163.934C57.1431 166.786 54.62 171.282 55.2122 176.566C55.4307 178.934 56.3248 181.183 57.7405 183.355C59.3361 185.675 61.6074 187.875 64.5111 189.837C67.3549 191.749 70.6173 193.416 74.3753 194.816C77.7395 196.062 81.4285 197.152 85.6731 198.026C93.5976 199.73 102.076 200.626 110.966 201.607C125.742 203.209 141.083 204.853 153.84 210.354C158.788 212.479 163.233 215.2 167.055 218.42C170.396 221.246 173.148 224.431 175.285 227.783C181.936 238.629 180.545 248.852 179.238 258.724C179.053 260.087 178.867 261.45 178.759 262.792C178.187 267.542 177.746 273.83 179.486 280.31C181.253 286.979 185.012 292.841 191.044 298.212C194.832 301.573 200.134 304.913 206.349 307.74C212.505 310.519 219.285 312.799 225.917 314.2C230.769 315.235 235.312 315.764 239.53 315.858C244.038 315.937 248.023 315.503 251.426 314.507C254.828 313.511 257.648 311.952 260.176 309.817C262.362 307.907 264.051 305.673 265.784 303.559C266.637 302.407 267.567 301.234 268.557 300.11C270.426 298.024 273.705 295.159 278.842 293.229C283.826 291.341 289.479 290.845 295.528 291.684C298.865 292.149 301.981 292.938 304.951 294.028C307.588 295.013 310.157 296.279 312.794 297.854C317.616 300.801 321.644 304.358 325.971 308.162C333.203 314.517 340.735 321.119 352.256 324.595C357.22 326.059 362.217 326.792 367.187 326.745C371.576 326.726 375.98 326.047 380.442 324.826C387.384 322.862 394.255 319.408 400.747 314.549C407.067 309.801 413.687 304.71 418.055 299.119C422.961 292.79 424.267 286.79 421.936 280.669C420.629 277.155 418.056 273.528 415.585 270.07C412.952 266.393 410.276 262.598 409.036 258.803C408.279 256.582 408.334 254.27 409.074 252.099C409.891 249.907 411.573 248.004 413.777 246.614C416.972 244.69 421.29 243.771 426.329 244.034C430.589 244.247 434.937 245.288 439.071 246.323C442.126 247.063 445.181 247.802 448.304 248.26C451.077 248.683 453.686 248.888 456.099 249.015C459.871 249.165 463.044 248.822 465.267 247.952C467.318 247.194 468.676 246.035 469.494 244.433C471.079 241.441 470.455 237.477 469.892 233.563C469.259 229.34 468.652 225.306 470.983 223.094C475.38 218.873 482.03 216.332 488.449 213.855C494.313 211.595 499.852 209.49 503.506 206.259C505.368 204.503 506.621 202.586 507.147 200.408C507.741 197.949 507.471 195.201 506.369 192.024C504.081 185.432 498.217 178.768 492.533 172.252C489.318 168.604 486.059 164.836 483.366 161.11C480.424 156.928 478.646 153.28 478.006 149.978C477.6 147.792 477.604 145.691 477.993 143.485C478.332 141.49 479.021 139.529 480.111 137.394C482.071 133.446 485.083 129.604 487.984 125.923C491.09 121.989 494.307 117.894 496.274 113.616C497.918 110.082 498.698 106.26 498.579 102.29C498.459 98.32 497.365 94.223 495.475 90.1466C491.429 81.6073 483.629 73.4387 472.939 66.5194C467.972 63.2848 462.081 60.3028 455.617 57.6086C449.273 55.0128 442.614 52.8314 435.502 51.0362C428.527 49.2693 421.433 47.9942 414.434 47.218C407.298 46.4136 400.514 46.2348 394.253 46.5691C390.028 46.8061 386.026 47.3101 382.323 48.0602C382.246 48.0813 382.246 48.0813 382.169 48.1023C379.895 48.5931 377.604 49.1542 375.466 49.6732C370.943 50.8445 366.207 52.0087 360.801 52.3716C355.028 52.7694 348.406 52.2183 340.431 50.7249C333.414 49.4287 326.242 47.5844 319.284 45.7472C318.265 45.5008 317.187 45.2051 316.168 44.9587C308.799 43.037 301.5 41.4245 294.406 40.1493C286.764 38.7615 279.465 37.7393 272.707 37.1599C257.221 35.8176 244.725 36.6761 235.587 39.7003C232.629 40.6405 229.971 41.8268 227.536 43.2802C225.349 44.6002 223.341 46.0678 221.42 47.7744C217.902 51.0331 215.061 54.763 212.408 58.3102C209.217 62.595 205.915 67.0413 201.226 70.686C196.802 74.127 191.683 76.5769 185.348 78.1128C184.21 78.3582 183.612 78.4563 182.996 78.6247Z" stroke="white" stroke-opacity="0.3"/>
<path d="M404.692 133.354C400.785 132.328 396.634 131.537 392.241 130.983C388.15 130.46 384.015 130.118 379.94 130.044C377.54 129.964 374.993 129.981 372.432 130.058C370.689 130.082 369.051 130.19 367.36 130.256C364.415 130.382 361.403 130.526 358.288 130.585C349.857 130.569 341.092 129.625 332.192 127.699C327.835 126.739 323.374 125.693 319.149 124.697C311.881 122.947 305.02 121.312 298.868 120.333C289.26 118.77 282.209 118.433 274.051 118.06C272.641 117.992 271.098 117.961 269.503 117.888C268.093 117.82 266.616 117.771 265.14 117.722C262.437 117.612 259.565 117.434 256.627 117.275C250.144 116.896 243.411 116.529 237.497 116.617C232.389 116.712 228.462 117.05 225.333 117.679C225.2 117.715 225.001 117.77 224.898 117.685C223.053 118.133 221.444 118.629 220.228 119.302C218.944 119.993 217.935 120.835 217.383 121.836C216.669 122.993 216.797 124.261 216.962 125.632C217.038 126.347 217.098 127.124 217.055 127.815C216.551 134.012 209.251 138.557 202.232 142.969C198.361 145.387 194.718 147.629 192.191 150.132C191.056 151.235 190.896 152.412 190.655 153.667C190.604 154.134 190.539 154.662 190.355 155.165C189.402 158.597 188.05 161.628 186.246 164.217C185.577 165.193 184.774 166.205 184.052 167.139C182.513 169.146 180.908 171.17 180.011 173.341C177.983 178.143 180.324 181.807 182.58 184.021C186.241 187.607 191.48 189.799 197.058 192.124C200.324 193.496 203.759 194.935 206.989 196.713C209.842 198.255 212.607 200.161 215.572 202.521C218.589 204.924 221.015 207.205 223.337 209.402C224.691 210.73 226.007 211.956 227.39 213.163C231.073 216.404 235.266 219.844 241.577 222.988C244.732 224.56 248.589 226.054 252.481 227.141C256.596 228.338 260.591 229.001 263.965 229.154C267.155 229.301 269.76 229.042 272.247 228.758C272.764 228.673 273.399 228.613 273.967 228.57C277.208 228.251 281.12 227.973 285.55 228.63C290.284 229.318 294.288 230.715 298.108 232.105C301.587 233.362 305.237 234.686 309.417 235.355C312.755 235.914 316.21 235.989 319.9 235.602M404.692 133.354C408.836 134.43 412.737 135.741 416.106 137.198M404.692 133.354C408.902 134.411 412.685 135.699 416.106 137.198M404.692 133.354C400.785 132.328 396.568 131.555 392.307 130.965C388.164 130.399 384.081 130.1 380.006 130.026C377.54 129.964 375.06 129.963 372.498 130.04C370.808 130.106 369.117 130.172 367.427 130.238C364.481 130.364 361.47 130.508 358.303 130.525C349.872 130.509 341.055 129.522 332.089 127.614C327.665 126.672 323.322 125.651 319.045 124.612C311.829 122.904 304.968 121.27 298.816 120.291C289.209 118.728 282.158 118.391 273.999 118.017C272.589 117.95 271.046 117.919 269.451 117.845C268.093 117.82 266.683 117.753 265.088 117.679C262.386 117.569 259.513 117.392 256.575 117.233C250.092 116.854 243.359 116.487 237.446 116.575C232.403 116.651 228.41 117.007 225.281 117.637C225.149 117.673 225.016 117.709 224.816 117.764C222.92 118.169 221.363 118.708 220.213 119.363C218.863 120.071 217.92 120.896 217.368 121.896C216.655 123.054 216.783 124.322 216.948 125.692C217.023 126.408 217.098 127.124 217.041 127.875C216.588 134.115 209.288 138.66 202.217 143.029C198.346 145.447 194.704 147.689 192.176 150.193C191.042 151.296 190.815 152.491 190.64 153.728C190.523 154.213 190.458 154.74 190.341 155.225C189.402 158.597 187.984 161.646 186.232 164.278C185.562 165.254 184.759 166.266 184.038 167.2C182.499 169.206 180.893 171.231 179.997 173.402C178.917 176.075 178.452 180.053 182.565 184.082C186.175 187.625 191.465 189.86 197.043 192.185C200.309 193.557 203.745 194.996 207.041 196.756C209.894 198.298 212.658 200.203 215.623 202.564C218.589 204.924 220.948 207.223 223.389 209.444C224.809 210.755 226.074 211.938 227.442 213.206C231.125 216.446 235.317 219.886 241.628 223.031C244.784 224.603 248.707 226.078 252.533 227.184C256.714 228.362 260.643 229.043 264.017 229.197C267.206 229.344 269.76 229.042 272.299 228.8C272.868 228.758 273.384 228.673 274.019 228.613C277.326 228.275 281.171 228.016 285.602 228.673C290.388 229.403 294.325 230.818 298.159 232.148C301.809 233.471 305.355 234.71 309.468 235.397C312.806 235.957 316.195 236.049 319.9 235.602M416.106 137.198C419.749 138.807 422.912 140.604 425.411 142.582C428.909 145.306 431.306 148.218 432.567 151.215M432.567 151.215C433.739 154.065 433.856 156.922 432.813 159.699M432.567 151.215C433.673 154.084 433.789 156.94 432.813 159.699M432.813 159.699C431.924 162.094 430.246 164.422 428.648 166.671C427.323 168.562 425.865 170.49 424.895 172.455C423.924 174.419 423.455 176.359 423.001 178.239C422.43 180.604 421.822 182.866 420.438 185C419.246 186.855 417.411 188.546 414.823 190.273C412.479 191.764 409.794 193.121 407.124 194.417C404.44 195.775 401.622 197.168 399.13 198.756C397.294 199.937 395.902 201.338 394.428 202.817C391.953 205.363 389.396 207.987 384.416 209.349L384.349 209.368C383.486 209.604 382.556 209.858 381.627 210.112C380.512 210.36 379.464 210.59 378.417 210.82C376.786 211.153 375.155 211.486 373.495 211.94C369.377 213.066 365.395 215.174 361.85 218.296C361.054 219.023 360.259 219.751 359.477 220.417C357.642 222.108 355.889 223.721 353.728 225.218C351.045 227.084 347.482 228.738 342.761 230.313C338.983 231.572 334.468 232.807 328.845 234.005C326.166 234.568 323.207 235.264 319.9 235.602M432.813 159.699C431.924 162.094 430.246 164.422 428.515 166.707C427.138 168.556 425.732 170.526 424.762 172.491C423.791 174.455 423.322 176.396 422.868 178.275C422.297 180.64 421.637 182.859 420.305 185.036C419.165 186.934 417.264 188.643 414.69 190.309C412.346 191.8 409.661 193.157 406.991 194.454C404.307 195.811 401.489 197.204 398.997 198.792C397.213 200.016 395.821 201.417 394.347 202.896C391.886 205.381 389.33 208.005 384.401 209.41L384.335 209.428C383.471 209.664 382.593 209.961 381.612 210.173C380.564 210.403 379.45 210.651 378.402 210.881C376.771 211.214 375.14 211.546 373.48 212.001C369.311 213.084 365.38 215.235 361.836 218.357C360.988 219.041 360.192 219.769 359.463 220.478C357.628 222.169 355.94 223.763 353.714 225.278C351.03 227.145 347.468 228.799 342.746 230.373C338.969 231.633 334.401 232.826 328.896 234.048C328.048 234.223 327.199 234.399 326.284 234.593C324.321 235.016 322.188 235.373 319.9 235.602" stroke="white" stroke-opacity="0.3"/>
<path d="M238.345 174.272C238.215 175.817 238.768 177.353 239.952 178.894C242.51 182.191 246.602 185.379 252.291 188.396C254.915 189.81 257.852 191.138 260.996 192.409C264.008 193.627 267.28 194.775 270.679 195.799C277.239 197.823 284.337 199.433 291.139 200.459C297.941 201.484 304.394 201.939 309.694 201.732C316.32 201.474 322.718 200.345 329.068 198.208C335.094 196.205 340.389 193.601 344.789 191.288C351.292 187.91 358.003 184.075 365.454 179.595C369.945 176.901 372.966 174.254 374.506 171.701C375.475 170.104 375.802 168.549 375.579 167.056C375.35 165.386 374.334 163.755 372.613 162.228C370.172 160.054 366.563 158.288 361.867 156.997C357.953 155.892 353.369 155.148 348.576 154.86C345.943 154.693 343.246 154.587 340.642 154.5C334.658 154.317 328.489 154.095 322.167 152.894C316.083 151.716 310.395 149.498 304.923 147.398C300.915 145.875 296.826 144.285 292.501 143.07C289.357 142.198 285.999 141.607 282.747 141.387C279.442 141.181 276.398 141.303 273.853 141.778C273.708 141.773 273.604 141.801 273.5 141.83C270.07 142.546 267.845 143.91 267.108 145.754C266.831 146.496 266.873 147.328 266.956 148.194C266.957 148.593 266.998 149.026 266.988 149.473C266.941 152.283 265.141 154.907 261.396 157.53C258.062 159.863 253.627 161.92 250.019 163.573C245.417 165.72 242.117 167.911 240.264 170.15M238.345 174.272C238.481 172.902 239.063 171.5 240.264 170.15M238.345 174.272C238.481 172.902 239.115 171.485 240.264 170.15M238.345 174.272C238.267 175.803 238.768 177.353 239.963 178.847C242.522 182.143 246.706 185.35 252.302 188.348C254.886 189.729 257.863 191.09 260.967 192.328C263.979 193.547 267.251 194.694 270.65 195.718C277.262 197.728 284.268 199.319 291.069 200.345C297.871 201.37 304.324 201.825 309.625 201.618C313.537 201.525 317.291 201.075 321.074 200.306C323.735 199.756 326.39 199.03 329.131 198.147C335.157 196.143 340.505 193.525 344.852 191.226C351.315 187.815 358.119 183.999 365.517 179.533C370.008 176.839 373.03 174.192 374.518 171.653C375.435 170.07 375.814 168.501 375.631 167.041C375.402 165.372 374.386 163.741 372.665 162.214C370.224 160.039 366.656 158.307 361.96 157.016C358.087 155.944 353.45 155.215 348.71 154.913C346.076 154.745 343.379 154.639 340.775 154.552C334.791 154.369 328.57 154.162 322.248 152.96C316.164 151.783 310.517 149.598 305.004 147.465C300.996 145.941 296.867 144.318 292.582 143.137C289.49 142.251 286.173 141.693 282.88 141.439C279.627 141.219 276.532 141.356 274.038 141.816C273.934 141.844 273.83 141.873 273.685 141.868C270.255 142.584 267.989 143.915 267.252 145.759C266.924 146.515 267.018 147.333 267.101 148.199C267.142 148.631 267.143 149.031 267.132 149.478C266.993 152.269 265.193 154.893 261.489 157.549C258.154 159.882 253.72 161.939 250.112 163.592C245.469 165.706 242.21 167.93 240.264 170.15" stroke="white" stroke-opacity="0.3"/>
</svg>
