<svg width="20" height="21" viewBox="0 0 20 21" fill="none" xmlns="http://www.w3.org/2000/svg">
<path d="M20 18.8471L14.394 13.2362C15.4232 11.9497 16.0417 10.312 16.0417 8.53073C16.0417 4.36953 12.6721 1 8.52083 1C4.36458 1 1 4.37448 1 8.53073C1 12.687 4.36953 16.0615 8.52083 16.0615C10.312 16.0615 11.9547 15.4331 13.2461 14.3891L18.8471 20L20 18.8471ZM3.76094 13.3005C2.48932 12.0289 1.79167 10.3367 1.79167 8.53568C1.79167 6.73464 2.49427 5.04245 3.76094 3.77083C5.0276 2.49922 6.72474 1.79167 8.52083 1.79167C10.3169 1.79167 12.0091 2.49427 13.2807 3.76589C14.5523 5.0375 15.25 6.72969 15.25 8.53073C15.25 10.3318 14.5474 12.024 13.2807 13.2956C12.0091 14.5672 10.3169 15.2698 8.52083 15.2698C6.72474 15.2747 5.03255 14.5721 3.76094 13.3005Z" fill="white"/>
</svg>
