<svg width="185" height="185" viewBox="0 0 185 185" fill="none" xmlns="http://www.w3.org/2000/svg">
<path d="M144 35H98V12C98 10.4676 97.0819 9.08354 96 8C94.9181 6.91646 93.5301 6 92 6C90.4699 6 89.0819 6.91646 88 8C86.9181 9.08354 86 10.4676 86 12V35H40C33.8796 35 28.3278 37.6658 24 42C19.6722 46.3342 17 51.8706 17 58V139C17 145.129 19.6722 150.666 24 155C28.3278 159.334 33.8796 162 40 162H144C150.12 162 155.672 159.334 160 155C164.328 150.666 167 145.129 167 139V58C167 51.8706 164.328 46.3342 160 42C155.672 37.6658 150.12 35 144 35ZM155 139C155 142.065 154.164 144.833 152 147C149.836 149.167 147.06 150 144 150H40C36.9398 150 34.1639 149.167 32 147C29.8361 144.833 29 142.065 29 139V58C29 54.9353 29.8361 52.1671 32 50C34.1639 47.8329 36.9398 46 40 46H144C147.06 46 149.836 47.8329 152 50C154.164 52.1671 155 54.9353 155 58V139ZM118 98H66C60.6447 98 55.7868 100.208 52 104C48.2132 107.792 46 113.637 46 119C46 124.363 48.2132 129.208 52 133C55.7868 136.792 60.6447 139 66 139H118C123.355 139 128.213 136.792 132 133C135.787 129.208 138 124.363 138 119C138 113.637 135.787 107.792 132 104C128.213 100.208 123.355 98 118 98ZM98 110V127H86V110H98ZM57 119C57 116.701 58.3771 114.625 60 113C61.6229 111.375 63.7049 110 66 110H75V127H66C63.7049 127 61.6229 126.625 60 125C58.3771 123.375 57 121.299 57 119ZM118 127H109V110H118C120.295 110 122.377 111.375 124 113C125.623 114.625 127 116.701 127 119C127 121.299 125.623 123.375 124 125C122.377 126.625 120.295 127 118 127ZM52 78C52 76.2859 52.0491 74.4252 53 73C53.9509 71.5748 55.4187 70.656 57 70C58.5813 69.344 60.3213 69.6656 62 70C63.6787 70.3344 64.7897 70.7879 66 72C67.2103 73.2121 68.6661 75.3188 69 77C69.3339 78.6812 68.655 80.4164 68 82C67.345 83.5836 66.4231 84.0477 65 85C63.5769 85.9523 61.7116 87 60 87C57.7049 87 55.6229 85.6253 54 84C52.3771 82.3747 52 80.2985 52 78ZM115 78C115 76.2859 116.049 74.4252 117 73C117.951 71.5748 118.419 70.656 120 70C121.581 69.344 123.321 69.6656 125 70C126.679 70.3344 128.79 70.7879 130 72C131.21 73.2121 131.666 75.3188 132 77C132.334 78.6812 132.655 80.4164 132 82C131.345 83.5836 130.423 84.0477 129 85C127.577 85.9523 125.712 87 124 87C121.705 87 119.623 85.6253 118 84C116.377 82.3747 115 80.2985 115 78Z" fill="#E1F1FF"/>
</svg>
