<svg width="188" height="47" viewBox="0 0 188 47" fill="none" xmlns="http://www.w3.org/2000/svg">
<path d="M36 7C32.4114 4.86854 28.2888 3.99966 24 4C12.5738 4 3.10185 11.894 2 22" stroke="white" stroke-width="2.41008" stroke-linecap="round" stroke-linejoin="round"/>
<path d="M28 10H36C35.8416 10.0612 36.1715 10 36 10C36.1584 9.9388 36.8788 10.1131 37 10C37.1212 9.88692 36.9344 9.14775 37 9C37 9.15992 37.0656 8.85225 37 9V2" fill="white"/>
<path d="M28 10H36C36.1715 10 35.8416 10.0612 36 10C36.1584 9.9388 36.8788 10.1131 37 10C37.1212 9.88692 36.9344 9.14775 37 9C37.0656 8.85225 37 9.15992 37 9V2M4 33C7.35989 40.1686 15.078 45 24 45C28.3254 45 32.6122 44.029 36 42" stroke="white" stroke-width="2.41008" stroke-linecap="round" stroke-linejoin="round"/>
<path d="M12 31.9999H3.99997C3.64193 31.9999 3.25315 31.7749 2.99997 31.9999C2.7468 32.225 2.99997 32.6817 2.99997 32.9999V39.9999" fill="white"/>
<path d="M12 31.9999H3.99997C3.64193 31.9999 3.25315 31.7749 2.99997 31.9999C2.7468 32.225 2.99997 32.6817 2.99997 32.9999V39.9999" stroke="white" stroke-width="2.41008" stroke-linecap="round" stroke-linejoin="round"/>
<path d="M17 24.9999V15.9999C17 15.3359 17.2828 15.0039 18 14.9999C24.4263 14.9639 29 14.8558 29 19.9999C29 25.488 23.5 24.9999 17 24.9999ZM17 24.9999V33.9999C17 34.6619 17.2828 34.9959 18 34.9999C24.4263 35.0359 30 35.144 30 29.9999C30 24.5118 23.5 24.9999 17 24.9999Z" stroke="white" stroke-width="1.60672"/>
<path d="M23 15V12V15ZM23 38V35V38Z" fill="white"/>
<path d="M23 15V12M23 38V35" stroke="white" stroke-width="1.60672" stroke-linecap="round" stroke-linejoin="round"/>
<path d="M36.8437 37V12.5029H38.6032V37H36.8437ZM43.1303 12.5029H60.965V14.2625H52.9188V37H51.1764V14.2625H43.1303V12.5029ZM66.0045 33.6688C63.5787 31.2202 62.3658 28.2478 62.3658 24.7514C62.3658 21.2551 63.5787 18.2827 66.0045 15.8341C68.4303 13.3855 71.3572 12.1612 74.7852 12.1612C76.0265 12.1612 77.2166 12.3435 78.3555 12.7079C79.4944 13.0609 80.434 13.4994 81.1742 14.0233C81.9259 14.5358 82.5807 15.0483 83.1388 15.5608C83.7082 16.0733 84.1182 16.5003 84.3687 16.842L84.7617 17.4057L83.5317 18.4649C83.4633 18.351 83.3495 18.1859 83.19 17.9695C83.042 17.7531 82.7003 17.383 82.165 16.8591C81.6298 16.3352 81.0432 15.8796 80.4055 15.4924C79.7791 15.0938 78.9591 14.7294 77.9455 14.3991C76.9319 14.0688 75.8785 13.9037 74.7852 13.9037C71.8013 13.9037 69.273 14.9515 67.2003 17.047C65.1389 19.1311 64.1082 21.6993 64.1082 24.7514C64.1082 27.8036 65.1389 30.3775 67.2003 32.473C69.273 34.5571 71.8013 35.5992 74.7852 35.5992C75.9012 35.5992 76.9661 35.4454 77.9797 35.1379C78.9933 34.8191 79.8304 34.4375 80.4909 33.9934C81.1628 33.5492 81.7493 33.1051 82.2505 32.6609C82.7516 32.2167 83.1217 31.8466 83.3608 31.5505L83.7025 31.0551L84.9325 32.0972C84.8414 32.2338 84.699 32.4217 84.5054 32.6609C84.3232 32.9001 83.9075 33.3214 83.2584 33.925C82.6206 34.5287 81.9373 35.0639 81.2084 35.5309C80.4909 35.9978 79.5456 36.4192 78.3726 36.795C77.2109 37.1594 76.0151 37.3417 74.7852 37.3417C71.3572 37.3417 68.4303 36.1174 66.0045 33.6688ZM107.875 32.473C109.948 30.3775 110.984 27.8036 110.984 24.7514C110.984 21.6993 109.948 19.1311 107.875 17.047C105.814 14.9515 103.291 13.9037 100.307 13.9037C97.3234 13.9037 94.7951 14.9515 92.7224 17.047C90.661 19.1311 89.6303 21.6993 89.6303 24.7514C89.6303 27.8036 90.661 30.3775 92.7224 32.473C94.7951 34.5571 97.3234 35.5992 100.307 35.5992C103.291 35.5992 105.814 34.5571 107.875 32.473ZM109.105 15.8341C111.519 18.2827 112.727 21.2551 112.727 24.7514C112.727 28.2478 111.519 31.2202 109.105 33.6688C106.691 36.1174 103.758 37.3417 100.307 37.3417C96.8792 37.3417 93.9523 36.1174 91.5266 33.6688C89.1008 31.2202 87.8879 28.2478 87.8879 24.7514C87.8879 21.2551 89.1008 18.2827 91.5266 15.8341C93.9523 13.3855 96.8792 12.1612 100.307 12.1612C103.758 12.1612 106.691 13.3855 109.105 15.8341ZM118.672 37V12.5029H120.431V37H118.672ZM145.782 12.5029H147.525V37H146.124L129.861 15.8341V37H128.101V12.5029H129.502L145.782 33.6688V12.5029ZM164.505 25.8106V27.3822H152.957V25.8106H164.505ZM185.825 12.5029L177.437 24.2219L186.525 37H184.424L176.378 25.6227L168.332 37H166.231L175.336 24.2219L166.931 12.5029H169.032L176.378 22.8381L183.724 12.5029H185.825Z" fill="white"/>
</svg>
