<svg width="78" height="78" viewBox="0 0 78 78" fill="none" xmlns="http://www.w3.org/2000/svg">
<circle cx="38.9901" cy="38.9901" r="38.0309" transform="matrix(0 -1 1 0 0 77.9802)" stroke="#000C49" stroke-width="1.91834"/>
<path d="M26.8086 38.0309C26.2789 38.0309 25.8494 38.4603 25.8494 38.9901C25.8494 39.5198 26.2789 39.9492 26.8086 39.9492V38.0309ZM51.8503 39.6683C52.2249 39.2937 52.2249 38.6864 51.8503 38.3118L45.7462 32.2077C45.3716 31.8331 44.7643 31.8331 44.3897 32.2077C44.0151 32.5823 44.0151 33.1896 44.3897 33.5642L49.8156 38.9901L44.3897 44.4159C44.0151 44.7905 44.0151 45.3978 44.3897 45.7724C44.7643 46.147 45.3716 46.147 45.7462 45.7724L51.8503 39.6683ZM26.8086 39.9492H51.1721V38.0309H26.8086V39.9492Z" fill="#000C49"/>
</svg>
