<svg width="20" height="20" viewBox="0 0 20 20" fill="none" xmlns="http://www.w3.org/2000/svg">
<mask id="mask0_5556_48682" style="mask-type:alpha" maskUnits="userSpaceOnUse" x="0" y="0" width="20" height="20">
<rect width="20" height="20" fill="#D9D9D9"/>
</mask>
<g mask="url(#mask0_5556_48682)">
<path d="M15.5413 10.617H2.7031C2.52602 10.617 2.37759 10.5571 2.25781 10.4372C2.13802 10.3174 2.07812 10.1689 2.07812 9.99173C2.07812 9.81456 2.13802 9.66615 2.25781 9.5465C2.37759 9.42685 2.52602 9.36702 2.7031 9.36702H15.5413L11.9275 5.74039C11.8138 5.62635 11.7545 5.4838 11.7493 5.31273C11.7441 5.14166 11.8035 4.99369 11.9275 4.86883C12.0411 4.75437 12.1856 4.69714 12.3612 4.69714C12.5368 4.69714 12.6822 4.75484 12.7976 4.87023L17.3922 9.46477C17.4702 9.54276 17.5252 9.62537 17.5572 9.71262C17.5893 9.79987 17.6053 9.89336 17.6053 9.99308C17.6053 10.0928 17.5892 10.1875 17.5569 10.2773C17.5246 10.367 17.4697 10.4503 17.3922 10.5272L12.7976 15.1218C12.6836 15.2372 12.541 15.2949 12.37 15.2949C12.1989 15.2949 12.0514 15.2372 11.9275 15.1218C11.7982 14.9979 11.7349 14.8494 11.7375 14.6763C11.7402 14.5032 11.8035 14.3547 11.9275 14.2308L15.5413 10.617Z" fill="#01080F"/>
</g>
</svg>
