<svg width="21" height="20" viewBox="0 0 21 20" fill="none" xmlns="http://www.w3.org/2000/svg">
<mask id="mask0_45_1092" style="mask-type:alpha" maskUnits="userSpaceOnUse" x="0" y="0" width="21" height="20">
<rect x="0.5" width="20" height="20" fill="#D9D9D9"/>
</mask>
<g mask="url(#mask0_45_1092)">
<path d="M16.0413 10.6171H3.2031C3.02602 10.6171 2.87759 10.5572 2.75781 10.4374C2.63802 10.3175 2.57812 10.169 2.57812 9.99185C2.57812 9.81468 2.63802 9.66627 2.75781 9.54662C2.87759 9.42697 3.02602 9.36714 3.2031 9.36714H16.0413L12.4275 5.74052C12.3138 5.62648 12.2545 5.48392 12.2493 5.31285C12.2441 5.14178 12.3035 4.99381 12.4275 4.86895C12.5411 4.7545 12.6856 4.69727 12.8612 4.69727C13.0368 4.69727 13.1822 4.75496 13.2976 4.87035L17.8922 9.46489C17.9702 9.54288 18.0252 9.6255 18.0572 9.71275C18.0893 9.8 18.1053 9.89348 18.1053 9.9932C18.1053 10.0929 18.0892 10.1876 18.0569 10.2774C18.0246 10.3671 17.9697 10.4505 17.8922 10.5274L13.2976 15.1219C13.1836 15.2373 13.041 15.295 12.87 15.295C12.6989 15.295 12.5514 15.2373 12.4275 15.1219C12.2982 14.998 12.2349 14.8495 12.2375 14.6764C12.2402 14.5034 12.3035 14.3549 12.4275 14.2309L16.0413 10.6171Z" fill="#F8F8F8"/>
</g>
</svg>
