<svg width="30" height="30" viewBox="0 0 30 30" fill="none" xmlns="http://www.w3.org/2000/svg">
<mask id="mask0_5907_42344" style="mask-type:alpha" maskUnits="userSpaceOnUse" x="0" y="0" width="30" height="30">
<rect width="30" height="30" fill="#D9D9D9"/>
</mask>
<g mask="url(#mask0_5907_42344)">
<path d="M7.8125 15.9374C7.54687 15.9374 7.32422 15.8476 7.14453 15.6678C6.96484 15.488 6.875 15.2653 6.875 14.9996C6.875 14.7338 6.96484 14.5112 7.14453 14.3317C7.32422 14.1522 7.54687 14.0625 7.8125 14.0625H22.1874C22.4531 14.0625 22.6757 14.1524 22.8554 14.3321C23.0351 14.5119 23.1249 14.7346 23.1249 15.0004C23.1249 15.2661 23.0351 15.4887 22.8554 15.6682C22.6757 15.8477 22.4531 15.9374 22.1874 15.9374H7.8125Z" fill="#01080F"/>
</g>
</svg>
