<svg width="1221" height="1209" viewBox="0 0 1221 1209" fill="none" xmlns="http://www.w3.org/2000/svg">
<path fill-rule="evenodd" clip-rule="evenodd" d="M618.457 1028.93C817.117 1085.64 1034.76 1090.49 1204.16 1055.57L1220.31 1133.93C1038.09 1171.49 807.37 1166.05 596.497 1105.85C385.934 1045.75 189.397 929.233 84.239 739.588C20.4086 624.474 9.70745 506.189 47.4959 419.374C66.4008 375.943 97.6429 340.429 139.913 319.57C139.562 307.26 139.937 295.01 140.932 282.839C146.245 217.867 169.615 154.88 189.447 101.427C192.678 92.7173 195.816 84.2606 198.766 76.0897C206.269 55.3113 229.195 44.5489 249.973 52.0514C270.752 59.5538 281.514 82.48 274.012 103.258C270.657 112.549 267.266 121.741 263.903 130.855C243.954 184.93 225.006 236.29 220.666 289.36C220.38 292.853 220.159 296.352 220.009 299.858C242.109 299.046 265.289 301.52 289.208 307.36C409.952 336.843 458.339 434.42 440.635 509.963C431.876 547.337 404.329 583.345 357.96 588.485C314.452 593.308 269.98 568.751 229.058 524.865C192.005 485.129 168.444 444.799 154.89 404.582C140.91 416.184 129.328 431.822 120.848 451.303C95.6411 509.213 98.8097 600.895 154.203 700.793C245.325 865.124 419.487 972.128 618.457 1028.93ZM230.935 379.725C241.051 409.362 258.857 439.517 287.567 470.306C321.564 506.765 342.723 509.684 349.145 508.972C352.706 508.578 359.387 506.039 362.745 491.71C369.275 463.848 353.445 405.396 270.231 385.077C256.083 381.622 242.992 379.938 230.935 379.725Z" fill="#FA917A"/>
<circle cx="2.5" cy="2.5" r="2.5" transform="matrix(-0.926579 -0.3761 -0.3761 0.926579 263.875 88.29)" fill="#01080F"/>
<circle cx="2.5" cy="2.5" r="2.5" transform="matrix(-0.926579 -0.3761 -0.3761 0.926579 253.68 84.1528)" fill="#01080F"/>
<path d="M248.81 93.6503C248.484 93.2173 247.827 93.3158 247.752 93.8523C247.627 94.7403 247.742 95.6534 248.097 96.4932C248.614 97.7147 249.594 98.6811 250.823 99.1799C252.051 99.6786 253.428 99.6688 254.649 99.1527C255.489 98.7978 256.208 98.2235 256.738 97.4999C257.058 97.0628 256.655 96.5338 256.12 96.6173C253.322 97.054 250.512 95.9132 248.81 93.6503Z" fill="#01080F"/>
</svg>
