<svg width="40" height="40" viewBox="0 0 40 40" fill="none" xmlns="http://www.w3.org/2000/svg">
<circle cx="20" cy="20" r="19.5" stroke="#676B6F"/>
<path d="M15.7625 13.3584C14.1225 13.3584 12.6933 14.425 11.7033 15.9525C10.5867 17.6734 10 19.9025 10 22.0409C10 22.6292 10.0583 23.1817 10.175 23.685C10.2323 23.9287 10.3061 24.1681 10.3958 24.4017C10.4818 24.621 10.5852 24.8331 10.705 25.0359C11.285 26.0017 12.22 26.6417 13.6992 26.6417C14.9467 26.6417 15.8933 26.0825 17.0033 24.605C17.6367 23.7617 17.9567 23.25 19.2225 21.005L19.8525 19.8892L20.0075 19.6184C20.0583 19.7017 20.1083 19.7817 20.16 19.8684L21.9533 22.8642C22.5567 23.8725 23.3408 24.9942 24.0117 25.6259C24.8833 26.4484 25.6717 26.6425 26.5617 26.6425C27.4575 26.6425 28.125 26.3467 28.6075 25.94C28.8769 25.7101 29.1052 25.4359 29.2825 25.1292C29.7342 24.3467 30 23.3567 30 22.0084C30 19.7417 29.4325 17.5442 28.2633 15.8C27.195 14.2067 25.7992 13.3584 24.3333 13.3584C23.4608 13.3584 22.5933 13.7475 21.7892 14.4484C21.2458 14.9234 20.7417 15.5234 20.2725 16.1567C19.6975 15.4275 19.16 14.8675 18.6408 14.4434C17.6558 13.6384 16.7117 13.3575 15.7625 13.3575V13.3584ZM24.2292 15.0692C25.185 15.0692 26.0525 15.7009 26.7225 16.735C27.6658 18.1917 28.095 20.2309 28.095 22.0684C28.095 23.3584 27.7883 24.485 26.5625 24.485C26.0792 24.485 25.7067 24.2934 25.1758 23.6484C24.7625 23.1475 24.0567 22.0834 22.8158 20.0167L22.3017 19.16C21.9675 18.601 21.6187 18.0508 21.2558 17.51C21.3142 17.4192 21.3733 17.3234 21.4317 17.2375C22.365 15.8484 23.1958 15.0692 24.2292 15.0692ZM15.7283 15.53C16.7825 15.53 17.4433 16.1892 17.9575 16.735C18.2133 17.0075 18.5717 17.4609 18.9858 18.0509L18.1358 19.3559C17.505 20.325 16.5675 21.87 15.7717 22.9709C14.7792 24.345 14.2633 24.485 13.7 24.485C13.2633 24.485 12.835 24.2875 12.5475 23.8234C12.3283 23.4684 12.1608 22.8817 12.1608 22.1184C12.1608 20.2675 12.6858 18.3392 13.5442 17.045C13.9225 16.4725 14.3475 16.0234 14.8217 15.7675C15.0991 15.6134 15.4109 15.5317 15.7283 15.53Z" fill="#F8F8F8"/>
</svg>
