<svg width="1221" height="1209" viewBox="0 0 1221 1209" fill="none" xmlns="http://www.w3.org/2000/svg">
<path fill-rule="evenodd" clip-rule="evenodd" d="M602.52 1028.93C403.859 1085.64 186.212 1090.49 16.8158 1055.57L0.665853 1133.93C182.887 1171.49 413.607 1166.05 624.479 1105.85C835.043 1045.75 1031.58 929.233 1136.74 739.588C1200.57 624.474 1211.27 506.189 1173.48 419.374C1154.58 375.943 1123.33 340.429 1081.06 319.57C1081.41 307.26 1081.04 295.01 1080.04 282.839C1074.73 217.867 1051.36 154.88 1031.53 101.427C1028.3 92.7173 1025.16 84.2606 1022.21 76.0897C1014.71 55.3113 991.782 44.5489 971.003 52.0514C950.225 59.5538 939.463 82.48 946.965 103.258C950.319 112.549 953.711 121.741 957.073 130.855C977.023 184.93 995.971 236.29 1000.31 289.36C1000.6 292.853 1000.82 296.352 1000.97 299.858C978.867 299.046 955.687 301.52 931.769 307.36C811.025 336.843 762.638 434.42 780.341 509.963C789.1 547.337 816.648 583.345 863.017 588.485C906.525 593.308 950.996 568.751 991.919 524.865C1028.97 485.129 1052.53 444.799 1066.09 404.582C1080.07 416.184 1091.65 431.822 1100.13 451.303C1125.34 509.213 1122.17 600.895 1066.77 700.793C975.652 865.124 801.49 972.128 602.52 1028.93ZM990.041 379.725C979.926 409.362 962.12 439.517 933.41 470.306C899.413 506.765 878.253 509.684 871.831 508.972C868.271 508.578 861.589 506.039 858.231 491.71C851.702 463.848 867.531 405.396 950.745 385.077C964.893 381.622 977.984 379.938 990.041 379.725Z" fill="#FFE766"/>
<circle cx="960.358" cy="89.6662" r="2.5" transform="rotate(-22.0923 960.358 89.6662)" fill="#01080F"/>
<circle cx="970.554" cy="85.5295" r="2.5" transform="rotate(-22.0923 970.554 85.5295)" fill="#01080F"/>
<path d="M972.167 93.6506C972.492 93.2176 973.15 93.3161 973.225 93.8526C973.35 94.7405 973.234 95.6536 972.879 96.4935C972.363 97.715 971.383 98.6814 970.154 99.1801C968.925 99.6789 967.549 99.6691 966.327 99.1529C965.487 98.798 964.768 98.2237 964.239 97.5002C963.919 97.063 964.322 96.534 964.857 96.6176C967.654 97.0542 970.465 95.9135 972.167 93.6506Z" fill="#01080F"/>
</svg>
