<svg width="1381" height="1438" viewBox="0 0 1381 1438" fill="none" xmlns="http://www.w3.org/2000/svg">
<path fill-rule="evenodd" clip-rule="evenodd" d="M1053.1 827.48C1010.66 831.081 953.291 816.61 888.102 765.583C838.045 726.402 805.567 662.755 789.082 588.052C844.694 579.057 903.361 580.217 963.621 594.199C1054.9 615.378 1105.18 651.478 1128.87 685.359C1151.99 718.433 1151.66 751.441 1138.42 776.598C1124.89 802.309 1095.62 823.871 1053.1 827.48ZM778.577 518.829C842.343 508.584 909.882 509.87 979.442 526.01C1081.12 549.603 1149.41 592.584 1186.24 645.248C1223.62 698.721 1226.41 759.722 1200.37 809.197C1174.62 858.117 1122.89 891.808 1059.02 897.229C995.052 902.658 920.628 879.937 844.956 820.705C778.688 768.834 740.061 689.607 721.049 604.458C668.553 621.375 619.679 647.223 575.86 679.381C533.066 710.786 495.491 747.932 464.404 788.129C524.618 847.263 566.466 927.893 544.491 1027.23C533.639 1076.28 512.283 1116.55 485.534 1144.8C459.377 1172.42 425.001 1191.35 389.005 1189.16C350.034 1186.78 320.327 1160.52 305.859 1120.86C291.979 1082.81 290.939 1030.99 304.037 966.435C315.405 910.402 338.323 854.067 370.605 801.088C335.545 776.468 296.424 757.186 259.974 743.917C221.469 729.9 188.317 723.45 167.696 723.278L168.28 653.281C199.767 653.544 241.24 662.603 283.918 678.139C325.174 693.157 369.766 715.027 410.427 743.517C445.4 698.642 487.267 657.57 534.445 622.947C586.613 584.662 645.744 553.935 709.785 534.663C708.744 524.646 707.936 514.628 707.349 504.641C700.254 384.098 724.501 258.27 769.436 174.661C778.587 157.634 799.808 151.25 816.835 160.4C833.861 169.551 840.246 190.772 831.095 207.799C793.599 277.568 770.715 389.871 777.228 500.528C777.589 506.665 778.038 512.767 778.577 518.829ZM424.554 847.325C467.591 893.355 490.177 948.671 476.144 1012.11C467.661 1050.45 451.622 1078.81 434.709 1096.66C417.206 1115.15 401.655 1119.8 393.259 1119.29C387.836 1118.96 378.683 1116.23 371.62 1096.87C363.97 1075.9 360.809 1038.66 372.639 980.354C381.623 936.075 399.381 890.774 424.554 847.325Z" fill="#ACEE78"/>
<path d="M817.235 199.848C817.77 199.759 818.178 200.284 817.862 200.724C817.339 201.453 816.625 202.034 815.789 202.397C814.572 202.925 813.196 202.948 811.963 202.461C810.729 201.974 809.74 201.016 809.212 199.8C808.849 198.964 808.725 198.052 808.841 197.162C808.911 196.625 809.568 196.521 809.898 196.95V196.95C811.621 199.197 814.442 200.311 817.235 199.848V199.848Z" fill="#01080F"/>
<path d="M813.586 191.19C813.928 191.133 814.189 191.469 813.987 191.751C813.653 192.217 813.196 192.588 812.661 192.82C811.883 193.158 811.003 193.173 810.214 192.861C809.425 192.55 808.792 191.937 808.455 191.159C808.223 190.624 808.143 190.041 808.217 189.472C808.262 189.129 808.682 189.062 808.893 189.337V189.337C809.995 190.774 811.8 191.486 813.586 191.19V191.19Z" fill="#01080F"/>
<path d="M822.141 193.817C822.483 193.76 822.744 194.096 822.542 194.378C822.208 194.844 821.751 195.215 821.216 195.447C820.438 195.785 819.558 195.8 818.769 195.488C817.98 195.176 817.347 194.564 817.009 193.786C816.777 193.251 816.698 192.668 816.772 192.099C816.817 191.756 817.237 191.689 817.448 191.964V191.964C818.55 193.401 820.355 194.113 822.141 193.817V193.817Z" fill="#01080F"/>
</svg>
