<svg width="102" height="30" viewBox="0 0 102 30" fill="none" xmlns="http://www.w3.org/2000/svg">
<g clip-path="url(#clip0_5694_39025)">
<path d="M17.0645 8.95121C17.1349 8.64723 17.1156 8.32934 17.0088 8.03616C16.902 7.74297 16.7124 7.4871 16.463 7.29961C15.4881 6.49395 13.5814 7.29961 12.7032 8.8035C12.2267 9.55399 11.9494 10.4136 11.8976 11.301C11.8728 11.7132 11.9145 12.1267 12.0211 12.5256C12.1274 12.8338 12.2775 13.125 12.4669 13.3904C12.8907 13.2092 13.3017 12.9992 13.6969 12.762C14.5166 12.294 15.2669 11.7137 15.9259 11.0379C16.5109 10.4759 16.9085 9.74729 17.0645 8.95121Z" fill="#BC75DB"/>
<path d="M5.2126 14.9987C7.00969 14.9877 8.79363 14.6913 10.4977 14.1206C10.3178 13.8227 10.1676 13.5079 10.0492 13.1806C9.85267 12.5519 9.76192 11.8948 9.78068 11.2363C9.80698 9.97244 10.1565 8.73634 10.7958 7.64578C11.4504 6.50328 12.4417 5.59072 13.6344 5.03276C14.2851 4.73494 14.9949 4.58893 15.7103 4.60576C16.4709 4.63609 17.209 4.87281 17.8453 5.29057C18.4926 5.72858 18.9999 6.34399 19.3062 7.06302C19.5832 7.75998 19.682 8.51502 19.5936 9.25978C19.4378 10.6938 18.6939 11.8943 17.8829 12.8074C17.0779 13.6979 16.1501 14.4692 15.1276 15.0981C15.0228 15.1652 14.9047 15.219 14.7972 15.2834C15.6644 15.6793 16.5924 15.9254 17.5418 16.0112C18.5037 16.0895 19.4718 15.9931 20.3992 15.7265C20.8626 15.5875 21.315 15.4143 21.7528 15.2082C21.9783 15.1008 22.2012 14.9907 22.4241 14.8698L22.451 14.8537C22.878 12.9953 23.3668 11.1531 23.9495 9.34303C24.4866 7.73171 25.0452 6.14188 25.7058 4.56817C23.6926 2.48865 21.12 1.03692 18.2991 0.388524C15.4783 -0.259872 12.53 -0.0771622 9.81081 0.914558C7.0916 1.90628 4.71794 3.66454 2.97684 5.97672C1.23574 8.2889 0.201787 11.056 0 13.9433C1.65433 14.6243 3.42366 14.9826 5.2126 14.9987Z" fill="#BC75DB"/>
<path d="M4.68234 25.4531C4.81462 24.438 5.08008 23.4447 5.47188 22.499C5.88859 21.5038 6.51197 20.6086 7.30072 19.8725C8.01587 19.2373 8.85026 18.7507 9.75529 18.4411C10.2071 18.2658 10.6774 18.1423 11.1571 18.0732C12.4256 17.9085 13.7112 18.2018 14.7826 18.9004C15.7251 19.5226 16.54 20.3193 17.1835 21.2475C17.821 22.1151 18.3336 23.0679 18.7061 24.0781C19.3023 25.7245 19.6568 27.4486 19.7589 29.1967C20.1053 29.0785 20.4517 28.9603 20.7847 28.8207C20.7821 26.8931 20.8807 24.9667 21.0802 23.0495C21.2789 21.0097 21.5809 18.9813 21.9852 16.9722C21.6278 17.133 21.262 17.2746 20.8895 17.3965C19.5299 17.8291 18.0917 17.9571 16.677 17.7714C15.2624 17.5858 13.906 17.091 12.704 16.3223C12.465 16.4163 12.226 16.5103 11.9816 16.6123C9.82279 17.4401 7.53877 17.8942 5.2275 17.9551C3.5008 17.9811 1.78021 17.7438 0.125 17.2515C0.623123 20.5487 2.21042 23.5843 4.634 25.8747C4.64742 25.735 4.66085 25.5954 4.68234 25.4531Z" fill="#BC75DB"/>
<path d="M11.4834 20.7917C11.1338 20.8314 10.7908 20.9163 10.4629 21.0442L10.3287 21.1006C10.2955 21.149 10.2685 21.2013 10.2481 21.2563C10.0373 21.8287 10.0221 22.4549 10.2051 23.0368C10.3095 23.2692 10.4746 23.4691 10.683 23.6156C10.8914 23.7621 11.1355 23.8498 11.3894 23.8693C11.6853 23.9091 11.9862 23.8845 12.2717 23.7974C12.5571 23.7103 12.8205 23.5626 13.0437 23.3645C13.4891 22.9226 13.7477 22.3265 13.7661 21.6994C13.6043 21.55 13.431 21.4135 13.2478 21.2912C12.7416 20.9125 12.1131 20.7346 11.4834 20.7917Z" fill="#BC75DB"/>
<path d="M15.9574 25.0913C15.8209 24.7036 15.6557 24.3266 15.4633 23.9634C15.2566 24.3628 14.9954 24.7315 14.6872 25.0591C14.2214 25.5137 13.6625 25.8617 13.0491 26.0792C12.4357 26.2967 11.7823 26.3783 11.1342 26.3186C10.4406 26.2644 9.77355 26.028 9.20059 25.6333C8.62764 25.2386 8.16908 24.6996 7.87132 24.0708C7.66765 23.6173 7.54321 23.1323 7.50341 22.6367C7.37018 22.8439 7.24825 23.0582 7.13817 23.2786C6.57346 24.4668 6.19485 25.7349 6.01562 27.0383C8.59652 28.9604 11.7297 29.9966 14.9477 29.9924C15.5674 29.9884 16.1862 29.9462 16.8007 29.8662C16.7735 28.24 16.4889 26.6284 15.9574 25.0913Z" fill="#BC75DB"/>
<path d="M27.0687 6.17676C26.6793 7.42284 26.3195 8.67698 26.0241 9.93649C25.4836 12.1222 25.0622 14.3356 24.7619 16.5671C24.4463 18.7851 24.2598 21.0197 24.2033 23.2594C24.155 24.4383 24.1684 25.6173 24.2033 26.7908C27.265 24.4001 29.2761 20.9117 29.8109 17.0641C30.3457 13.2166 29.3623 9.31193 27.0687 6.17676Z" fill="#01080F"/>
<path d="M56.3094 4.47168L55.7992 8.11325H48.7685V27.1617H44.614V8.11325H37.3281V4.47168H56.3094Z" fill="#01080F"/>
<path d="M65.673 14.7915C65.1455 14.6287 64.5948 14.5534 64.0429 14.5686C63.5127 14.5531 62.9861 14.6602 62.504 14.8814C62.0219 15.1027 61.5974 15.4322 61.2634 15.8442C60.5598 16.6875 60.0433 18.0303 59.7138 19.8725C59.3844 21.7148 59.2188 24.1488 59.217 27.1745H55.3499V16.7412L55.3203 11.0103H59.2197L59.029 15.5166C59.5822 13.7925 60.3539 12.5679 61.3439 11.8428C62.2599 11.1486 63.377 10.7715 64.5263 10.7686C64.847 10.7674 65.1674 10.7889 65.485 10.8331C65.7666 10.8727 66.0442 10.9365 66.3149 11.0237L65.673 14.7915Z" fill="#01080F"/>
<path d="M69.6046 8.46512C69.2683 8.48244 68.9321 8.42874 68.6179 8.30751C68.3037 8.18628 68.0186 8.00024 67.7811 7.76151C67.563 7.53779 67.3914 7.27311 67.2762 6.98272C67.161 6.69233 67.1044 6.382 67.1097 6.06963C67.1043 5.75685 67.1609 5.44609 67.2761 5.15526C67.3913 4.86443 67.563 4.59927 67.7811 4.37506C68.2801 3.92254 68.9296 3.67187 69.6032 3.67188C70.2769 3.67188 70.9264 3.92254 71.4254 4.37506C71.644 4.59892 71.816 4.86402 71.9312 5.15493C72.0465 5.44585 72.1027 5.75677 72.0968 6.06963C72.1028 6.3821 72.0466 6.69264 71.9313 6.98313C71.816 7.27362 71.644 7.53823 71.4254 7.76151C71.1882 7.9999 70.9035 8.18573 70.5898 8.30695C70.2761 8.42817 69.9404 8.48206 69.6046 8.46512ZM71.5543 11.011V27.151H67.6549V11.011H71.5543Z" fill="#01080F"/>
<path d="M75.0078 27.1614V3.5127H78.9072V11.0107L78.7783 13.9648C79.3071 12.9909 80.0845 12.1745 81.0315 11.5988C82.0089 11.0312 83.124 10.744 84.2541 10.769C85.5306 10.7263 86.79 11.0719 87.8661 11.7599C88.8564 12.4321 89.6329 13.3744 90.1032 14.475C90.6323 15.7171 90.894 17.0567 90.8712 18.4066C90.9057 20.0459 90.5436 21.6693 89.8158 23.1385C89.1602 24.4461 88.1554 25.5466 86.9128 26.3182C85.6678 27.0788 84.2331 27.4717 82.7744 27.4515C81.8182 27.4712 80.873 27.2446 80.0297 26.7935C79.2809 26.3943 78.6607 25.7909 78.2412 25.0533L77.8572 27.1614H75.0078ZM82.4467 24.0301C83.0635 24.0509 83.6763 23.9224 84.2327 23.6554C84.7891 23.3884 85.2728 22.9909 85.6425 22.4967C86.4302 21.4726 86.8241 20.1513 86.8241 18.5328C86.8241 17.1686 86.526 16.1087 85.9298 15.3532C85.6402 14.9813 85.2658 14.6841 84.8378 14.4865C84.4099 14.2889 83.9408 14.1965 83.4699 14.2172C82.6355 14.2044 81.8185 14.4564 81.1362 14.9369C80.424 15.452 79.8614 16.1471 79.5061 16.9511C79.0852 17.8893 78.8779 18.9093 78.8991 19.9374C78.8991 21.1969 79.2187 22.1905 79.8579 22.9264C80.1792 23.2925 80.5786 23.5817 81.0267 23.7728C81.4748 23.9638 81.9601 24.0518 82.4467 24.0301Z" fill="#01080F"/>
<path d="M98.2119 27.4488C96.6758 27.4488 95.5121 27.0334 94.7207 26.2027C93.9294 25.372 93.5355 24.1894 93.5391 22.6551V3.5127H97.4385V22.3355C97.4385 23.4849 97.9756 24.0605 99.0498 24.0623C99.5405 24.0688 100.023 23.9356 100.441 23.6783L101.4 26.5223C100.981 26.8158 100.516 27.0372 100.025 27.1775C99.4376 27.3594 98.8264 27.4508 98.2119 27.4488Z" fill="#01080F"/>
</g>
<defs>
<clipPath id="clip0_5694_39025">
<rect width="101.405" height="30" fill="white"/>
</clipPath>
</defs>
</svg>
