<svg width="174" height="177" viewBox="0 0 174 177" fill="none" xmlns="http://www.w3.org/2000/svg">
<ellipse cx="81.3322" cy="88.5004" rx="77.1056" ry="86.2875" fill="#8BD452"/>
<ellipse cx="96.8166" cy="88.5004" rx="77.1056" ry="86.2875" fill="#ACEE78"/>
<path d="M96.1293 0C93.0135 0 89.9465 0.231931 86.9284 0.640862C83.779 0.219724 80.7852 0 77.819 0C62.9174 0 48.9832 4.79731 37.1395 13.0919L37.1273 13.1011C31.1215 17.3094 25.6589 22.4241 20.8738 28.2681C20.7304 28.3993 20.6236 28.5519 20.5076 28.7076C15.9788 34.3166 12.0848 40.5971 8.9385 47.3902C8.85305 47.5428 8.78286 47.6954 8.72488 47.8632C6.55816 52.6117 4.74848 57.6013 3.3569 62.8014C3.21957 63.0944 3.15853 63.4148 3.11886 63.7505C1.10167 71.6087 0 79.9094 0 88.5C0 101.937 2.65805 114.675 7.39128 126.094C7.434 126.222 7.47673 126.341 7.53776 126.46C10.3698 133.217 13.9372 139.5 18.115 145.186C18.2279 145.341 18.3195 145.506 18.4599 145.637C22.6987 151.326 27.5601 156.392 32.9189 160.713C33.0746 160.887 33.2638 161.015 33.4561 161.149C46.0505 171.128 61.3397 177 77.819 177C80.7852 177 83.779 176.78 86.9284 176.359C89.9465 176.768 93.0135 177 96.1293 177C139.04 177 173.948 137.3 173.948 88.5C173.948 39.6999 139.04 0 96.1293 0ZM63.8817 7.98941C62.8869 8.50821 61.9012 9.04836 60.9277 9.61293C60.3662 9.93641 59.8016 10.2538 59.2492 10.5925C58.407 11.1083 57.583 11.6545 56.7621 12.2069H50.8875C55.3491 10.1195 60.0061 8.47464 64.8583 7.45231C64.5257 7.6171 64.2113 7.81852 63.8817 7.98941ZM33.1417 140.379H22.1952C19.5036 136.577 17.1141 132.491 15.0389 128.172H26.5988C27.0779 129.253 27.5693 130.324 28.085 131.38C28.3078 131.834 28.5397 132.28 28.7686 132.729C29.3942 133.955 30.0442 135.164 30.7187 136.354C30.9689 136.797 31.21 137.245 31.4663 137.682C32.0095 138.597 32.5741 139.488 33.1417 140.379ZM13.6351 51.8793H25.3141C24.78 53.2129 24.2734 54.5618 23.7943 55.9289C23.6631 56.3074 23.5288 56.6827 23.4006 57.0611C22.9612 58.3734 22.5522 59.6978 22.1647 61.0345H10.2446C11.2151 57.8882 12.3503 54.8364 13.6351 51.8793ZM6.10345 88.5C6.10345 86.4431 6.21331 84.4168 6.34148 82.3966H18.5087C18.5057 82.4454 18.5057 82.4942 18.5026 82.543C18.3897 84.5145 18.3103 86.495 18.3103 88.5C18.3103 89.5223 18.347 90.5355 18.3775 91.5517H6.22247C6.1889 90.5324 6.10345 89.5284 6.10345 88.5ZM18.7254 97.6552C18.8413 98.9399 18.9909 100.213 19.1557 101.482C19.1679 101.577 19.174 101.671 19.1862 101.766C19.412 103.466 19.6867 105.144 19.9949 106.81H7.9589C7.36381 103.814 6.89385 100.765 6.59172 97.6552H18.7254ZM20.6175 67.1379C20.5381 67.498 20.471 67.8642 20.3947 68.2274C20.3123 68.6272 20.2268 69.0269 20.1505 69.4298C19.7782 71.3463 19.4486 73.2749 19.1862 75.2342C19.174 75.3288 19.1679 75.4234 19.1557 75.518C19.1221 75.7743 19.1007 76.0368 19.0672 76.2931H6.95488C7.35771 73.1864 7.86735 70.1225 8.56619 67.1379H20.6175ZM21.3468 112.914C21.4414 113.286 21.5299 113.665 21.6276 114.034C21.6642 114.168 21.6947 114.308 21.7313 114.443C22.2349 116.301 22.7994 118.129 23.4037 119.936C23.5318 120.317 23.6661 120.693 23.7973 121.068C23.9103 121.404 24.0232 121.739 24.1422 122.069H12.3839C11.2273 119.106 10.2324 116.048 9.38405 112.914H21.3468ZM31.4694 39.3184C31.213 39.7548 30.972 40.2034 30.7217 40.6459C30.0473 41.8361 29.3973 43.0446 28.7717 44.2714C28.5428 44.72 28.3108 45.1655 28.0881 45.6202C28.0606 45.6721 28.0331 45.724 28.0087 45.7759H16.5678C18.878 41.4211 21.5391 37.347 24.4901 33.569H35.1803C34.808 34.103 34.4326 34.634 34.0725 35.1772C33.1722 36.5291 32.3025 37.9085 31.4694 39.3184ZM40.3804 18.3103H48.8123C48.0555 18.9726 47.2987 19.6378 46.5663 20.3275C45.9498 20.9074 45.3517 21.5116 44.7535 22.1158C44.1523 22.7201 43.5573 23.3335 42.9713 23.9591C42.4068 24.5633 41.8361 25.1615 41.2868 25.784C40.7985 26.3333 40.3316 26.9009 39.8586 27.4655H29.7818C33.0593 24.0567 36.5963 20.9837 40.3804 18.3103ZM26.9284 146.483H37.4019C37.7468 146.934 38.0886 147.386 38.4426 147.832C39.3642 148.988 40.3102 150.117 41.2837 151.216C41.833 151.839 42.4007 152.437 42.9683 153.041C43.5542 153.667 44.1493 154.28 44.7505 154.884C44.9977 155.131 45.2296 155.394 45.4799 155.638H36.3003C32.9495 152.894 29.8153 149.831 26.9284 146.483ZM64.8583 169.548C57.8607 168.074 51.2476 165.37 45.1167 161.741H52.4988C52.8864 162.04 53.2862 162.321 53.6768 162.614C54.3146 163.087 54.9493 163.563 55.5994 164.018C56.7956 164.851 58.0133 165.651 59.2492 166.411C59.8016 166.749 60.3662 167.064 60.9277 167.39C61.9012 167.955 62.8869 168.495 63.8817 169.014C64.2113 169.181 64.5257 169.383 64.8583 169.548ZM96.1293 170.897C93.7063 170.897 91.3106 170.753 88.9486 170.482L87.734 170.311C87.5845 170.289 87.435 170.265 87.2854 170.247C86.2265 170.097 85.1736 169.92 84.1269 169.719C84.0475 169.703 83.9682 169.685 83.8858 169.67C82.8696 169.468 81.8625 169.246 80.8615 168.998C80.7212 168.965 80.5838 168.922 80.4435 168.889C79.5096 168.65 78.5788 168.394 77.6603 168.113C77.3917 168.031 77.1293 167.936 76.8607 167.851C76.0734 167.601 75.286 167.344 74.5109 167.064C73.9006 166.841 73.2963 166.597 72.6921 166.356C72.2648 166.188 71.8315 166.029 71.4073 165.849C54.9951 158.903 41.3844 145.25 33.1051 127.797C33.041 127.666 32.9861 127.528 32.922 127.397C32.4642 126.421 32.0217 125.432 31.5976 124.431C31.4419 124.065 31.2985 123.689 31.149 123.32C30.8316 122.542 30.5203 121.764 30.2243 120.973C30.0442 120.491 29.8733 120.003 29.7024 119.518C29.4552 118.825 29.2142 118.132 28.9853 117.43C28.8052 116.881 28.6343 116.326 28.4634 115.77C28.262 115.114 28.0667 114.458 27.8806 113.796C27.7158 113.207 27.5571 112.615 27.4014 112.02C27.2336 111.373 27.0718 110.72 26.9162 110.067C26.7728 109.456 26.6324 108.843 26.5012 108.229C26.3608 107.576 26.2296 106.917 26.1045 106.258C25.9854 105.638 25.8664 105.019 25.7596 104.393C25.6436 103.713 25.5399 103.026 25.4392 102.337C25.3476 101.726 25.2561 101.116 25.1767 100.502C25.0821 99.767 25.0089 99.0254 24.9295 98.2838C24.8685 97.7101 24.8044 97.1364 24.7525 96.5596C24.6793 95.7112 24.6305 94.8537 24.5816 93.9962C24.5542 93.517 24.5145 93.041 24.4931 92.5588C24.4474 91.213 24.4138 89.8611 24.4138 88.5C24.4138 87.1389 24.4474 85.787 24.5023 84.4412C24.5237 83.959 24.5633 83.483 24.5908 83.0038C24.6396 82.1463 24.6885 81.2918 24.7617 80.4404C24.8105 79.8636 24.8777 79.2899 24.9387 78.7162C25.015 77.9746 25.0913 77.233 25.1859 76.4976C25.2652 75.8842 25.3568 75.2738 25.4483 74.6635C25.549 73.9768 25.6528 73.2902 25.7688 72.6066C25.8756 71.981 25.9946 71.3615 26.1136 70.742C26.2418 70.0828 26.37 69.4237 26.5103 68.7706C26.6416 68.1542 26.7819 67.5438 26.9254 66.9335C27.081 66.2804 27.2397 65.6273 27.4106 64.9804C27.5662 64.3853 27.7249 63.7932 27.8897 63.2043C28.0759 62.542 28.2712 61.8859 28.4726 61.2298C28.6374 60.6744 28.8083 60.119 28.9883 59.5697C29.2172 58.8678 29.4613 58.175 29.7055 57.4823C29.8764 56.9971 30.0473 56.5088 30.2273 56.0266C30.5233 55.2362 30.8346 54.458 31.152 53.6798C31.3015 53.3106 31.448 52.9352 31.6006 52.569C32.0248 51.568 32.4673 50.5793 32.9251 49.6027C32.9861 49.4684 33.0441 49.3342 33.1082 49.2029C41.3875 31.7471 54.9982 18.0967 71.4103 11.151C71.8345 10.974 72.2648 10.8153 72.6951 10.6444C73.2994 10.4033 73.9006 10.1592 74.514 9.93641C75.2891 9.65566 76.0764 9.39931 76.8638 9.14907C77.1293 9.06362 77.3948 8.96902 77.6633 8.88662C78.5819 8.60586 79.5127 8.34952 80.4465 8.11148C80.5869 8.07486 80.7242 8.03519 80.8646 8.00162C81.8656 7.75443 82.8726 7.53166 83.8889 7.33024C83.9682 7.31498 84.0475 7.29667 84.1299 7.28141C85.1736 7.08 86.2265 6.903 87.2885 6.75347C87.438 6.7321 87.5875 6.70769 87.7371 6.68938L88.9517 6.51848C91.3106 6.24688 93.7063 6.10345 96.1293 6.10345C135.674 6.10345 167.845 43.0659 167.845 88.5C167.845 133.934 135.674 170.897 96.1293 170.897Z" fill="#01080F"/>
<path d="M118.261 145.732C116.567 146.602 114.815 147.38 113.055 148.042C111.477 148.634 110.68 150.395 111.275 151.973C111.733 153.197 112.896 153.95 114.132 153.95C114.489 153.95 114.852 153.886 115.209 153.752C117.187 153.008 119.155 152.135 121.053 151.161C122.552 150.392 123.144 148.552 122.375 147.054C121.602 145.555 119.765 144.957 118.261 145.732Z" fill="#01080F"/>
<path d="M135.862 131.285C134.651 132.774 133.36 134.215 132.02 135.57C130.836 136.769 130.848 138.701 132.051 139.885C132.643 140.471 133.418 140.767 134.193 140.767C134.981 140.767 135.768 140.465 136.366 139.86C137.837 138.368 139.259 136.781 140.596 135.142C141.661 133.833 141.462 131.911 140.153 130.849C138.844 129.787 136.924 129.982 135.862 131.285Z" fill="#01080F"/>
<path d="M96.129 151.134C94.2339 151.134 92.3235 151.021 90.4619 150.798C88.7438 150.627 87.2668 151.796 87.0684 153.468C86.8701 155.14 88.0633 156.66 89.7356 156.862C91.8413 157.112 93.9958 157.24 96.132 157.24H96.3884C98.076 157.24 99.3119 155.873 99.3119 154.188C99.3119 152.504 97.8166 151.134 96.129 151.134Z" fill="#01080F"/>
<path d="M144.136 46.621C142.955 44.8784 141.679 43.1725 140.346 41.549C139.272 40.249 137.355 40.0628 136.049 41.1309C134.749 42.2021 134.563 44.1247 135.631 45.4278C136.846 46.9048 138.008 48.4581 139.082 50.045C139.671 50.9178 140.636 51.3847 141.612 51.3847C142.201 51.3847 142.796 51.2138 143.321 50.8598C144.716 49.9107 145.082 48.0156 144.136 46.621Z" fill="#01080F"/>
<path d="M150.76 109.2C149.17 108.666 147.431 109.52 146.894 111.116C146.277 112.941 145.576 114.757 144.81 116.518C144.135 118.062 144.846 119.863 146.39 120.534C146.787 120.708 147.202 120.787 147.605 120.787C148.786 120.787 149.906 120.101 150.406 118.953C151.24 117.034 152.002 115.053 152.674 113.063C153.217 111.47 152.359 109.74 150.76 109.2Z" fill="#01080F"/>
<path d="M153.603 85.3506C151.915 85.3506 150.551 86.8124 150.551 88.5C150.551 90.3859 150.481 92.2719 150.338 94.1121C150.206 95.7936 151.464 97.2615 153.145 97.3896C153.224 97.3957 153.307 97.3988 153.383 97.3988C154.964 97.3988 156.298 96.1842 156.423 94.5821C156.578 92.5862 156.655 90.5385 156.655 88.4969V88.3016C156.655 86.6201 155.29 85.3506 153.603 85.3506Z" fill="#01080F"/>
<path d="M54.106 46.7398C54.991 46.7398 55.8698 46.3583 56.471 45.6198C57.6887 44.1275 58.9826 42.6901 60.3193 41.3443C61.5064 40.148 61.5003 38.2163 60.301 37.0292C59.1047 35.8451 57.176 35.8482 55.9858 37.0475C54.5149 38.5306 53.0867 40.1175 51.7439 41.7593C50.6758 43.0655 50.8711 44.9881 52.1773 46.0531C52.7449 46.517 53.4315 46.7398 54.106 46.7398Z" fill="#01080F"/>
<path d="M72.7198 31.5459C73.1837 31.5459 73.6597 31.4391 74.1022 31.2132C75.8051 30.3465 77.5598 29.5714 79.3176 28.9153C80.8954 28.3263 81.6949 26.5654 81.1059 24.9877C80.5169 23.4069 78.7714 22.6043 77.1784 23.1994C75.2069 23.9379 73.2386 24.8046 71.3313 25.7781C69.8298 26.541 69.2317 28.3812 69.9977 29.8827C70.5378 30.9386 71.609 31.5459 72.7198 31.5459Z" fill="#01080F"/>
<path d="M74.2092 145.845C72.5247 144.99 70.8615 144.026 69.2715 142.982C67.8616 142.057 65.9696 142.457 65.0449 143.864C64.1233 145.274 64.517 147.166 65.9269 148.088C67.706 149.253 69.5615 150.328 71.4505 151.286C71.893 151.512 72.3629 151.615 72.8268 151.615C73.9407 151.615 75.0149 151.005 75.552 149.946C76.3149 148.445 75.7168 146.607 74.2092 145.845Z" fill="#01080F"/>
<path d="M41.705 88.5004C41.705 86.5991 41.7813 84.6674 41.9308 82.7631C42.0621 81.0816 40.8078 79.6137 39.1263 79.4795C37.4631 79.3696 35.9769 80.6025 35.8457 82.2809C35.684 84.3439 35.6016 86.4374 35.6016 88.4973V88.5614C35.6016 90.2459 36.9657 91.5795 38.6533 91.5795C40.3409 91.5795 41.705 90.1849 41.705 88.5004Z" fill="#01080F"/>
<path d="M43.8109 105.797C43.402 104.161 41.7449 103.163 40.1122 103.572C38.4765 103.978 37.4817 105.635 37.8875 107.271C38.3941 109.303 38.9953 111.339 39.6728 113.322C40.1061 114.592 41.2902 115.388 42.5597 115.388C42.8863 115.388 43.2189 115.333 43.5454 115.224C45.1384 114.677 45.9929 112.944 45.4467 111.348C44.8272 109.532 44.2778 107.664 43.8109 105.797Z" fill="#01080F"/>
<path d="M45.9323 56.3503C44.3789 55.6606 42.5876 56.3747 41.9131 57.9189C41.077 59.8292 40.3079 61.8098 39.6305 63.8056C39.0903 65.4017 39.9478 67.1351 41.5408 67.6783C41.8643 67.7881 42.197 67.84 42.5204 67.84C43.793 67.84 44.9801 67.0374 45.4104 65.7679C46.0299 63.9369 46.7349 62.1211 47.5039 60.3724C48.1783 58.8283 47.4764 57.0278 45.9323 56.3503Z" fill="#01080F"/>
<path d="M53.1035 126.851C52.1575 125.453 50.2654 125.087 48.8646 126.03C47.47 126.976 47.1038 128.871 48.0468 130.269C49.2431 132.036 50.5126 133.745 51.8248 135.347C52.4291 136.082 53.3019 136.464 54.1869 136.464C54.8674 136.464 55.551 136.238 56.1186 135.771C57.4247 134.7 57.6109 132.78 56.5458 131.474C55.3557 130.019 54.196 128.462 53.1035 126.851Z" fill="#01080F"/>
<path d="M148.423 71.081C148.768 72.4665 150.013 73.3911 151.38 73.3911C151.627 73.3911 151.874 73.3606 152.124 73.2996C153.76 72.8876 154.752 71.2305 154.343 69.5979C153.833 67.5685 153.232 65.533 152.552 63.5493C152.005 61.9563 150.272 61.1049 148.673 61.6542C147.08 62.2005 146.229 63.9369 146.775 65.533C147.4 67.3518 147.953 69.2194 148.423 71.081Z" fill="#01080F"/>
<path d="M96.1267 25.8661C97.976 25.8661 99.8467 25.976 101.675 26.1866C101.797 26.2018 101.916 26.2079 102.032 26.2079C103.561 26.2079 104.879 25.0635 105.059 23.5102C105.254 21.8379 104.055 20.3212 102.383 20.1259C100.32 19.8848 98.2995 19.7627 96.0351 19.7627L95.9955 22.8144V19.7627C94.3078 19.7627 93.0078 21.1268 93.0078 22.8144C93.0109 24.502 94.4391 25.8661 96.1267 25.8661Z" fill="#01080F"/>
<path d="M117.938 31.1032C119.622 31.9516 121.286 32.9098 122.882 33.9505C123.394 34.2862 123.971 34.4479 124.545 34.4479C125.54 34.4479 126.516 33.9596 127.105 33.0624C128.027 31.6525 127.627 29.7605 126.214 28.8388C124.429 27.6731 122.57 26.6019 120.684 25.6528C119.177 24.893 117.343 25.5003 116.586 27.0048C115.826 28.5093 116.43 30.3433 117.938 31.1032Z" fill="#01080F"/>
<path d="M126.109 110.39C125.367 110.39 124.653 110.723 123.966 111.41C118.55 117.08 111.286 119.957 102.378 119.957C95.2496 119.957 89.1431 117.891 84.2268 113.817C79.756 110.11 76.6554 105.209 74.9983 99.2271H99.406C101.237 99.2271 102.418 98.0461 102.418 96.2181C102.418 94.3902 101.234 93.2061 99.406 93.2061H73.8906C73.7532 91.9244 73.6831 90.4778 73.6831 88.8848C73.6831 87.2583 73.7563 85.7446 73.8997 84.3683H101.39C103.221 84.3683 104.402 83.1842 104.402 81.3562C104.402 79.5283 103.218 78.3472 101.39 78.3472H75.0014C76.6402 72.4086 79.6034 67.5106 83.8239 63.7722C88.4351 59.689 93.797 57.6169 99.757 57.6169C105.778 57.6169 111.433 59.4571 116.551 63.0734C118.656 64.5992 120.542 66.2777 122.157 68.066V74.4227C122.157 76.2538 123.341 77.4348 125.172 77.4348C127 77.4348 128.181 76.2507 128.181 74.4227V55.5966C128.181 53.7656 127 52.5846 125.172 52.5846C123.338 52.5846 122.157 53.7687 122.157 55.5966V59.6035C115.608 54.2874 108.36 51.5928 100.599 51.5928C92.4512 51.5928 85.4047 54.2234 79.6583 59.4143C74.2415 64.3124 70.6069 70.6752 68.8491 78.3442H62.7426C60.9116 78.3442 59.7306 79.5252 59.7306 81.3532C59.7306 83.1812 60.9116 84.3652 62.7426 84.3652H67.8604C67.7261 85.7568 67.6589 87.2705 67.6589 88.8818C67.6589 90.4565 67.723 91.8999 67.8512 93.203H60.7621C58.931 93.203 57.75 94.3871 57.75 96.2151C57.75 98.0431 58.931 99.2241 60.7621 99.2241H68.84C70.6161 107.036 74.4124 113.442 80.1405 118.285C86.1738 123.391 93.6566 125.979 102.381 125.979C112.528 125.979 121.22 122.497 128.227 115.63C129.008 114.855 129.173 114.071 129.173 113.552C129.173 112.542 128.465 111.718 127.937 111.19C127.271 110.531 126.576 110.39 126.109 110.39Z" fill="#01080F"/>
</svg>
