<svg width="78" height="78" viewBox="0 0 78 78" fill="none" xmlns="http://www.w3.org/2000/svg">
<rect width="78" height="78" rx="39" fill="#01080F"/>
<mask id="mask0_5874_46490" style="mask-type:alpha" maskUnits="userSpaceOnUse" x="24" y="24" width="30" height="30">
<rect x="24" y="24" width="30" height="30" fill="#D9D9D9"/>
</mask>
<g mask="url(#mask0_5874_46490)">
<path d="M32.7981 44.6732C31.2285 44.6732 29.8906 44.1202 28.7844 43.0141C27.6781 41.908 27.125 40.5702 27.125 39.0009C27.125 37.4315 27.6781 36.0936 28.7844 34.987C29.8906 33.8804 31.2285 33.3271 32.7981 33.3271H36.5721C36.8377 33.3271 37.0604 33.417 37.24 33.5968C37.4197 33.7766 37.5096 33.9993 37.5096 34.2651C37.5096 34.5308 37.4197 34.7534 37.24 34.9329C37.0604 35.1123 36.8377 35.2021 36.5721 35.2021H32.7966C31.7479 35.2021 30.8529 35.5727 30.1118 36.3139C29.3706 37.0551 29 37.9505 29 39.0002C29 40.0499 29.3706 40.9453 30.1118 41.6865C30.8529 42.4277 31.7479 42.7983 32.7966 42.7983H36.5721C36.8377 42.7983 37.0604 42.8881 37.24 43.0679C37.4197 43.2477 37.5096 43.4704 37.5096 43.7361C37.5096 44.0019 37.4197 44.2245 37.24 44.404C37.0604 44.5835 36.8377 44.6732 36.5721 44.6732H32.7981ZM35.25 39.9376C34.9843 39.9376 34.7617 39.8478 34.582 39.668C34.4023 39.4883 34.3125 39.2655 34.3125 38.9998C34.3125 38.734 34.4023 38.5114 34.582 38.3319C34.7617 38.1525 34.9843 38.0627 35.25 38.0627H42.75C43.0156 38.0627 43.2383 38.1526 43.4179 38.3323C43.5976 38.5121 43.6874 38.7349 43.6874 39.0006C43.6874 39.2663 43.5976 39.489 43.4179 39.6684C43.2383 39.8479 43.0156 39.9376 42.75 39.9376H35.25ZM41.4278 44.6732C41.1622 44.6732 40.9396 44.5833 40.7599 44.4036C40.5802 44.2238 40.4904 44.0011 40.4904 43.7353C40.4904 43.4696 40.5802 43.247 40.7599 43.0675C40.9396 42.888 41.1622 42.7983 41.4278 42.7983H45.2033C46.252 42.7983 47.147 42.4277 47.8882 41.6865C48.6294 40.9453 49 40.0499 49 39.0002C49 37.9505 48.6294 37.0551 47.8882 36.3139C47.147 35.5727 46.252 35.2021 45.2033 35.2021H41.4278C41.1622 35.2021 40.9396 35.1122 40.7599 34.9325C40.5802 34.7527 40.4904 34.5299 40.4904 34.2642C40.4904 33.9985 40.5802 33.7758 40.7599 33.5964C40.9396 33.4169 41.1622 33.3271 41.4278 33.3271H45.2019C46.7714 33.3271 48.1093 33.8802 49.2156 34.9863C50.3218 36.0924 50.8749 37.4301 50.8749 38.9995C50.8749 40.5688 50.3218 41.9068 49.2156 43.0134C48.1093 44.1199 46.7714 44.6732 45.2019 44.6732H41.4278Z" fill="#BC75DB"/>
</g>
</svg>
