<svg width="21" height="20" viewBox="0 0 21 20" fill="none" xmlns="http://www.w3.org/2000/svg">
<mask id="mask0_45_414" style="mask-type:alpha" maskUnits="userSpaceOnUse" x="0" y="0" width="21" height="20">
<rect x="0.5" width="20" height="20" fill="#D9D9D9"/>
</mask>
<g mask="url(#mask0_45_414)">
<path d="M9.8776 10.6251H5.71094C5.53385 10.6251 5.38542 10.5652 5.26563 10.4454C5.14583 10.3255 5.08594 10.177 5.08594 9.99987C5.08594 9.82271 5.14583 9.6743 5.26563 9.55464C5.38542 9.43499 5.53385 9.37516 5.71094 9.37516H9.8776V5.2085C9.8776 5.03141 9.93752 4.88298 10.0574 4.76318C10.1772 4.64339 10.3257 4.5835 10.5029 4.5835C10.68 4.5835 10.8284 4.64339 10.9481 4.76318C11.0677 4.88298 11.1276 5.03141 11.1276 5.2085V9.37516H15.2942C15.4713 9.37516 15.6198 9.43508 15.7395 9.55491C15.8593 9.67476 15.9192 9.82326 15.9192 10.0004C15.9192 10.1776 15.8593 10.326 15.7395 10.4456C15.6198 10.5653 15.4713 10.6251 15.2942 10.6251H11.1276V14.7918C11.1276 14.9689 11.0676 15.1173 10.9478 15.2371C10.828 15.3569 10.6795 15.4168 10.5023 15.4168C10.3251 15.4168 10.1767 15.3569 10.0571 15.2371C9.93743 15.1173 9.8776 14.9689 9.8776 14.7918V10.6251Z" fill="#F8F8F8"/>
</g>
</svg>
