<svg width="266" height="215" viewBox="0 0 266 215" fill="none" xmlns="http://www.w3.org/2000/svg">
<path d="M1.66012 3.02402V0.843898H13.1145V3.02402H8.67716V15.2004H6.09747V3.02402H1.66012ZM17.9509 15.4107C16.8994 15.4107 15.9881 15.1794 15.217 14.7167C14.4459 14.2541 13.8477 13.6068 13.4225 12.775C13.0019 11.9431 12.7916 10.9711 12.7916 9.8588C12.7916 8.74654 13.0019 7.77214 13.4225 6.93561C13.8477 6.09908 14.4459 5.44949 15.217 4.98683C15.9881 4.52416 16.8994 4.29283 17.9509 4.29283C19.0024 4.29283 19.9138 4.52416 20.6849 4.98683C21.456 5.44949 22.0518 6.09908 22.4724 6.93561C22.8977 7.77214 23.1103 8.74654 23.1103 9.8588C23.1103 10.9711 22.8977 11.9431 22.4724 12.775C22.0518 13.6068 21.456 14.2541 20.6849 14.7167C19.9138 15.1794 19.0024 15.4107 17.9509 15.4107ZM17.965 13.3778C18.5351 13.3778 19.0118 13.2213 19.395 12.9082C19.7782 12.5904 20.0633 12.1651 20.2502 11.6323C20.4418 11.0996 20.5376 10.5061 20.5376 9.85179C20.5376 9.19284 20.4418 8.59699 20.2502 8.06423C20.0633 7.52679 19.7782 7.09918 19.395 6.78139C19.0118 6.46361 18.5351 6.30471 17.965 6.30471C17.3808 6.30471 16.8948 6.46361 16.5069 6.78139C16.1237 7.09918 15.8362 7.52679 15.6446 8.06423C15.4577 8.59699 15.3642 9.19284 15.3642 9.85179C15.3642 10.5061 15.4577 11.0996 15.6446 11.6323C15.8362 12.1651 16.1237 12.5904 16.5069 12.9082C16.8948 13.2213 17.3808 13.3778 17.965 13.3778ZM24.8694 19.2382V4.43303H27.3649V6.21358H27.5121C27.643 5.95187 27.8276 5.67381 28.0659 5.37939C28.3043 5.08029 28.6267 4.82559 29.0333 4.61529C29.4399 4.40032 29.9586 4.29283 30.5895 4.29283C31.4214 4.29283 32.1715 4.50547 32.8398 4.93075C33.5127 5.35135 34.0455 5.97524 34.438 6.80242C34.8353 7.62493 35.0339 8.63438 35.0339 9.83076C35.0339 11.0131 34.84 12.0179 34.4521 12.8451C34.0642 13.6723 33.5361 14.3032 32.8678 14.7378C32.1995 15.1724 31.4424 15.3897 30.5965 15.3897C29.9797 15.3897 29.4679 15.2869 29.0613 15.0813C28.6548 14.8756 28.3276 14.628 28.0799 14.3382C27.8369 14.0438 27.6477 13.7657 27.5121 13.504H27.407V19.2382H24.8694ZM27.3579 9.81674C27.3579 10.5131 27.4561 11.1229 27.6523 11.6464C27.8533 12.1698 28.1407 12.5787 28.5146 12.8731C28.8931 13.1629 29.3511 13.3077 29.8885 13.3077C30.4493 13.3077 30.919 13.1582 31.2975 12.8591C31.6761 12.5553 31.9612 12.1417 32.1528 11.6183C32.3491 11.0902 32.4472 10.4897 32.4472 9.81674C32.4472 9.14845 32.3514 8.55493 32.1598 8.03619C31.9682 7.51745 31.6831 7.11086 31.3046 6.81644C30.926 6.52202 30.454 6.37481 29.8885 6.37481C29.3464 6.37481 28.8861 6.51735 28.5076 6.80242C28.129 7.0875 27.8416 7.48707 27.6453 8.00114C27.4537 8.51521 27.3579 9.12041 27.3579 9.81674ZM14.5796 28.6878H11.9579C11.8831 28.2579 11.7452 27.877 11.5443 27.5452C11.3433 27.2087 11.0933 26.9236 10.7942 26.69C10.4951 26.4563 10.1539 26.2811 9.77073 26.1642C9.39219 26.0427 8.98327 25.982 8.54397 25.982C7.76352 25.982 7.07187 26.1782 6.469 26.5708C5.86614 26.9587 5.39413 27.5288 5.05298 28.2812C4.71182 29.029 4.54125 29.9426 4.54125 31.0222C4.54125 32.1204 4.71182 33.0457 5.05298 33.7981C5.39881 34.5459 5.87081 35.1114 6.469 35.4946C7.07187 35.8731 7.76119 36.0624 8.53696 36.0624C8.96691 36.0624 9.36882 36.0063 9.74269 35.8941C10.1212 35.7773 10.46 35.6067 10.7591 35.3824C11.0629 35.1581 11.3176 34.8824 11.5232 34.5552C11.7335 34.2281 11.8784 33.8542 11.9579 33.4336L14.5796 33.4476C14.4815 34.1299 14.2688 34.7702 13.9417 35.3684C13.6192 35.9666 13.1963 36.4947 12.6729 36.9527C12.1495 37.406 11.5373 37.7611 10.8363 38.0182C10.1352 38.2705 9.35714 38.3967 8.50191 38.3967C7.24011 38.3967 6.11383 38.1046 5.12308 37.5205C4.13233 36.9363 3.35188 36.0928 2.78173 34.9898C2.21158 33.8869 1.9265 32.5644 1.9265 31.0222C1.9265 29.4753 2.21392 28.1527 2.78874 27.0545C3.36356 25.9516 4.14635 25.108 5.1371 24.5239C6.12785 23.9397 7.24945 23.6476 8.50191 23.6476C9.30106 23.6476 10.0441 23.7598 10.7311 23.9841C11.4181 24.2084 12.0303 24.5379 12.5677 24.9725C13.1052 25.4025 13.5468 25.9306 13.8926 26.5568C14.2431 27.1783 14.4721 27.8887 14.5796 28.6878ZM21.151 38.4107C20.0995 38.4107 19.1882 38.1794 18.4171 37.7167C17.646 37.2541 17.0478 36.6068 16.6225 35.775C16.2019 34.9431 15.9916 33.9711 15.9916 32.8588C15.9916 31.7465 16.2019 30.7721 16.6225 29.9356C17.0478 29.0991 17.646 28.4495 18.4171 27.9868C19.1882 27.5242 20.0995 27.2928 21.151 27.2928C22.2025 27.2928 23.1138 27.5242 23.8849 27.9868C24.656 28.4495 25.2519 29.0991 25.6725 29.9356C26.0978 30.7721 26.3104 31.7465 26.3104 32.8588C26.3104 33.9711 26.0978 34.9431 25.6725 35.775C25.2519 36.6068 24.656 37.2541 23.8849 37.7167C23.1138 38.1794 22.2025 38.4107 21.151 38.4107ZM21.165 36.3778C21.7352 36.3778 22.2119 36.2213 22.5951 35.9082C22.9783 35.5904 23.2634 35.1651 23.4503 34.6323C23.6419 34.0996 23.7377 33.5061 23.7377 32.8518C23.7377 32.1928 23.6419 31.597 23.4503 31.0642C23.2634 30.5268 22.9783 30.0992 22.5951 29.7814C22.2119 29.4636 21.7352 29.3047 21.165 29.3047C20.5809 29.3047 20.0948 29.4636 19.707 29.7814C19.3237 30.0992 19.0363 30.5268 18.8447 31.0642C18.6578 31.597 18.5643 32.1928 18.5643 32.8518C18.5643 33.5061 18.6578 34.0996 18.8447 34.6323C19.0363 35.1651 19.3237 35.5904 19.707 35.9082C20.0948 36.2213 20.5809 36.3778 21.165 36.3778ZM30.6071 31.8914V38.2004H28.0694V27.433H30.4949V29.2627H30.6211C30.8688 28.6598 31.2637 28.1808 31.8058 27.8256C32.3526 27.4704 33.0279 27.2928 33.8317 27.2928C34.5747 27.2928 35.222 27.4517 35.7735 27.7695C36.3296 28.0873 36.7595 28.5476 37.0633 29.1505C37.3717 29.7534 37.5236 30.4847 37.5189 31.3446V38.2004H34.9813V31.7372C34.9813 31.0175 34.7944 30.4544 34.4205 30.0478C34.0513 29.6412 33.5396 29.4379 32.8853 29.4379C32.4414 29.4379 32.0465 29.536 31.7006 29.7323C31.3595 29.9239 31.0908 30.202 30.8945 30.5665C30.7029 30.931 30.6071 31.3727 30.6071 31.8914ZM45.0805 27.433V29.3958H38.8907V27.433H45.0805ZM40.4189 24.8533H42.9565V34.9618C42.9565 35.303 43.0079 35.5647 43.1107 35.7469C43.2182 35.9245 43.3584 36.046 43.5313 36.1115C43.7042 36.1769 43.8958 36.2096 44.1061 36.2096C44.265 36.2096 44.4099 36.1979 44.5408 36.1745C44.6763 36.1512 44.7791 36.1301 44.8492 36.1115L45.2768 38.0953C45.1413 38.142 44.9473 38.1934 44.695 38.2495C44.4473 38.3056 44.1435 38.3383 43.7837 38.3477C43.1481 38.3663 42.5756 38.2705 42.0662 38.0602C41.5568 37.8453 41.1526 37.5135 40.8535 37.0648C40.5591 36.6162 40.4142 36.0554 40.4189 35.3824V24.8533ZM46.808 38.2004V27.433H49.2685V29.2276H49.3807C49.577 28.606 49.9135 28.127 50.3901 27.7905C50.8715 27.4494 51.4206 27.2788 52.0375 27.2788C52.1777 27.2788 52.3342 27.2858 52.5072 27.2998C52.6848 27.3092 52.832 27.3255 52.9488 27.3489V29.6833C52.8413 29.6459 52.6707 29.6132 52.4371 29.5851C52.2081 29.5524 51.9861 29.536 51.7711 29.536C51.3084 29.536 50.8925 29.6365 50.5233 29.8375C50.1588 30.0338 49.8714 30.3071 49.6611 30.6576C49.4508 31.0081 49.3456 31.4124 49.3456 31.8704V38.2004H46.808ZM54.2399 38.2004V27.433H56.7775V38.2004H54.2399ZM55.5157 25.9048C55.1138 25.9048 54.768 25.7717 54.4782 25.5053C54.1885 25.2342 54.0436 24.9094 54.0436 24.5309C54.0436 24.1477 54.1885 23.8229 54.4782 23.5565C54.768 23.2854 55.1138 23.1499 55.5157 23.1499C55.9223 23.1499 56.2681 23.2854 56.5532 23.5565C56.843 23.8229 56.9878 24.1477 56.9878 24.5309C56.9878 24.9094 56.843 25.2342 56.5532 25.5053C56.2681 25.7717 55.9223 25.9048 55.5157 25.9048ZM59.1044 38.2004V23.8439H61.642V29.2136H61.7472C61.878 28.9519 62.0626 28.6738 62.3009 28.3794C62.5393 28.0803 62.8617 27.8256 63.2683 27.6153C63.6749 27.4003 64.1937 27.2928 64.8246 27.2928C65.6564 27.2928 66.4065 27.5055 67.0748 27.9307C67.7477 28.3513 68.2805 28.9752 68.6731 29.8024C69.0703 30.6249 69.2689 31.6344 69.2689 32.8308C69.2689 34.0131 69.075 35.0179 68.6871 35.8451C68.2992 36.6723 67.7711 37.3032 67.1028 37.7378C66.4345 38.1724 65.6774 38.3897 64.8316 38.3897C64.2147 38.3897 63.703 38.2869 63.2964 38.0813C62.8898 37.8756 62.5627 37.628 62.315 37.3382C62.072 37.0438 61.8827 36.7657 61.7472 36.504H61.5999V38.2004H59.1044ZM61.5929 32.8167C61.5929 33.5131 61.6911 34.1229 61.8874 34.6464C62.0883 35.1698 62.3757 35.5787 62.7496 35.8731C63.1281 36.1629 63.5861 36.3077 64.1236 36.3077C64.6844 36.3077 65.154 36.1582 65.5326 35.8591C65.9111 35.5553 66.1962 35.1417 66.3878 34.6183C66.5841 34.0902 66.6822 33.4897 66.6822 32.8167C66.6822 32.1484 66.5864 31.5549 66.3948 31.0362C66.2032 30.5174 65.9181 30.1109 65.5396 29.8164C65.161 29.522 64.689 29.3748 64.1236 29.3748C63.5814 29.3748 63.1211 29.5173 62.7426 29.8024C62.364 30.0875 62.0766 30.4871 61.8803 31.0011C61.6887 31.5152 61.5929 32.1204 61.5929 32.8167ZM77.8943 33.672V27.433H80.4319V38.2004H77.9714V36.2867H77.8592C77.6162 36.8896 77.2166 37.3826 76.6605 37.7658C76.109 38.149 75.4291 38.3406 74.6206 38.3406C73.9149 38.3406 73.291 38.1841 72.7489 37.871C72.2115 37.5532 71.7909 37.0929 71.4871 36.49C71.1833 35.8825 71.0315 35.1487 71.0315 34.2888V27.433H73.5691V33.8963C73.5691 34.5786 73.756 35.1207 74.1299 35.5226C74.5038 35.9245 74.9945 36.1255 75.602 36.1255C75.9759 36.1255 76.338 36.0343 76.6885 35.8521C77.039 35.6698 77.3265 35.3988 77.5508 35.0389C77.7798 34.6744 77.8943 34.2187 77.8943 33.672ZM88.0233 27.433V29.3958H81.8334V27.433H88.0233ZM83.3616 24.8533H85.8992V34.9618C85.8992 35.303 85.9506 35.5647 86.0535 35.7469C86.1609 35.9245 86.3011 36.046 86.4741 36.1115C86.647 36.1769 86.8386 36.2096 87.0489 36.2096C87.2078 36.2096 87.3526 36.1979 87.4835 36.1745C87.619 36.1512 87.7218 36.1301 87.7919 36.1115L88.2196 38.0953C88.084 38.142 87.8901 38.1934 87.6377 38.2495C87.39 38.3056 87.0863 38.3383 86.7264 38.3477C86.0908 38.3663 85.5184 38.2705 85.009 38.0602C84.4996 37.8453 84.0953 37.5135 83.7962 37.0648C83.5018 36.6162 83.3569 36.0554 83.3616 35.3824V24.8533ZM94.3318 38.4107C93.2803 38.4107 92.369 38.1794 91.5979 37.7167C90.8268 37.2541 90.2286 36.6068 89.8033 35.775C89.3827 34.9431 89.1724 33.9711 89.1724 32.8588C89.1724 31.7465 89.3827 30.7721 89.8033 29.9356C90.2286 29.0991 90.8268 28.4495 91.5979 27.9868C92.369 27.5242 93.2803 27.2928 94.3318 27.2928C95.3833 27.2928 96.2946 27.5242 97.0657 27.9868C97.8368 28.4495 98.4327 29.0991 98.8533 29.9356C99.2786 30.7721 99.4912 31.7465 99.4912 32.8588C99.4912 33.9711 99.2786 34.9431 98.8533 35.775C98.4327 36.6068 97.8368 37.2541 97.0657 37.7167C96.2946 38.1794 95.3833 38.4107 94.3318 38.4107ZM94.3458 36.3778C94.916 36.3778 95.3927 36.2213 95.7759 35.9082C96.1591 35.5904 96.4442 35.1651 96.6311 34.6323C96.8227 34.0996 96.9185 33.5061 96.9185 32.8518C96.9185 32.1928 96.8227 31.597 96.6311 31.0642C96.4442 30.5268 96.1591 30.0992 95.7759 29.7814C95.3927 29.4636 94.916 29.3047 94.3458 29.3047C93.7617 29.3047 93.2756 29.4636 92.8877 29.7814C92.5045 30.0992 92.2171 30.5268 92.0255 31.0642C91.8386 31.597 91.7451 32.1928 91.7451 32.8518C91.7451 33.5061 91.8386 34.0996 92.0255 34.6323C92.2171 35.1651 92.5045 35.5904 92.8877 35.9082C93.2756 36.2213 93.7617 36.3778 94.3458 36.3778ZM101.25 38.2004V27.433H103.711V29.2276H103.823C104.019 28.606 104.356 28.127 104.832 27.7905C105.314 27.4494 105.863 27.2788 106.48 27.2788C106.62 27.2788 106.776 27.2858 106.949 27.2998C107.127 27.3092 107.274 27.3255 107.391 27.3489V29.6833C107.284 29.6459 107.113 29.6132 106.879 29.5851C106.65 29.5524 106.428 29.536 106.213 29.536C105.751 29.536 105.335 29.6365 104.966 29.8375C104.601 30.0338 104.314 30.3071 104.103 30.6576C103.893 31.0081 103.788 31.4124 103.788 31.8704V38.2004H101.25ZM117.192 30.2791L114.879 30.5315C114.814 30.2978 114.699 30.0782 114.535 29.8725C114.377 29.6669 114.162 29.501 113.891 29.3748C113.62 29.2486 113.288 29.1855 112.895 29.1855C112.367 29.1855 111.923 29.3 111.563 29.529C111.208 29.758 111.033 30.0548 111.037 30.4193C111.033 30.7324 111.147 30.9871 111.381 31.1834C111.619 31.3797 112.012 31.5409 112.559 31.6671L114.395 32.0597C115.414 32.2793 116.171 32.6275 116.667 33.1041C117.167 33.5808 117.419 34.2047 117.424 34.9758C117.419 35.6535 117.22 36.2517 116.828 36.7704C116.44 37.2845 115.9 37.6864 115.208 37.9761C114.517 38.2659 113.722 38.4107 112.825 38.4107C111.507 38.4107 110.446 38.135 109.642 37.5836C108.839 37.0274 108.36 36.254 108.205 35.2632L110.68 35.0249C110.792 35.5109 111.03 35.8778 111.395 36.1255C111.76 36.3732 112.234 36.497 112.818 36.497C113.421 36.497 113.905 36.3732 114.269 36.1255C114.638 35.8778 114.823 35.5717 114.823 35.2072C114.823 34.8987 114.704 34.644 114.465 34.4431C114.232 34.2421 113.867 34.0879 113.372 33.9804L111.535 33.5948C110.502 33.3799 109.738 33.0177 109.243 32.5083C108.748 31.9942 108.502 31.3446 108.507 30.5595C108.502 29.8959 108.682 29.3211 109.047 28.835C109.416 28.3443 109.928 27.9658 110.582 27.6994C111.241 27.4284 112 27.2928 112.86 27.2928C114.122 27.2928 115.115 27.5616 115.839 28.099C116.568 28.6364 117.019 29.3631 117.192 30.2791Z" fill="black"/>
<path d="M0.875 73.4508C0.875 67.2209 5.92529 62.1707 12.1551 62.1707H254.678C260.908 62.1707 265.958 67.2209 265.958 73.4508V95.9109C265.958 102.141 260.908 107.191 254.678 107.191H12.1551C5.92529 107.191 0.875 102.141 0.875 95.9109V73.4508Z" fill="#ACEE78"/>
<path d="M19.1488 90.6809V78.3753H21.0055V84.2517H21.1557L26.3171 78.3753H28.6544L23.6913 83.9152L28.6724 90.6809H26.4372L22.4595 85.183L21.0055 86.8534V90.6809H19.1488ZM30.4806 90.6809V81.4517H32.2772V90.6809H30.4806ZM31.3879 80.0277C31.0755 80.0277 30.8071 79.9235 30.5827 79.7152C30.3624 79.5029 30.2523 79.2506 30.2523 78.9581C30.2523 78.6617 30.3624 78.4093 30.5827 78.2011C30.8071 77.9887 31.0755 77.8826 31.3879 77.8826C31.7003 77.8826 31.9667 77.9887 32.187 78.2011C32.4114 78.4093 32.5235 78.6617 32.5235 78.9581C32.5235 79.2506 32.4114 79.5029 32.187 79.7152C31.9667 79.9235 31.7003 80.0277 31.3879 80.0277ZM36.1523 78.3753V90.6809H34.3557V78.3753H36.1523ZM38.2309 90.6809V81.4517H39.9553V82.9539H40.0695C40.2618 82.4451 40.5762 82.0486 41.0128 81.7642C41.4495 81.4757 41.9722 81.3315 42.5811 81.3315C43.198 81.3315 43.7147 81.4757 44.1313 81.7642C44.5519 82.0526 44.8623 82.4491 45.0626 82.9539H45.1588C45.3791 82.4611 45.7296 82.0686 46.2103 81.7762C46.691 81.4797 47.2638 81.3315 47.9287 81.3315C48.7659 81.3315 49.4489 81.5939 49.9777 82.1187C50.5104 82.6434 50.7768 83.4345 50.7768 84.4921V90.6809H48.9802V84.6603C48.9802 84.0354 48.81 83.5828 48.4695 83.3024C48.129 83.0219 47.7224 82.8817 47.2498 82.8817C46.6649 82.8817 46.2103 83.062 45.8858 83.4225C45.5613 83.779 45.3991 84.2377 45.3991 84.7985V90.6809H43.6085V84.5461C43.6085 84.0454 43.4523 83.6428 43.1399 83.3384C42.8274 83.034 42.4208 82.8817 41.9201 82.8817C41.5796 82.8817 41.2652 82.9719 40.9768 83.1521C40.6924 83.3284 40.462 83.5747 40.2858 83.8912C40.1135 84.2076 40.0274 84.5742 40.0274 84.9908V90.6809H38.2309ZM56.824 90.8672C55.9147 90.8672 55.1316 90.6729 54.4747 90.2843C53.8217 89.8918 53.317 89.341 52.9605 88.632C52.608 87.919 52.4317 87.0838 52.4317 86.1264C52.4317 85.181 52.608 84.3478 52.9605 83.6268C53.317 82.9058 53.8137 82.343 54.4506 81.9384C55.0916 81.5338 55.8406 81.3315 56.6979 81.3315C57.2186 81.3315 57.7233 81.4177 58.212 81.5899C58.7007 81.7621 59.1393 82.0325 59.5279 82.4011C59.9165 82.7696 60.2229 83.2483 60.4472 83.8371C60.6715 84.422 60.7837 85.133 60.7837 85.9702V86.6071H53.4472V85.2612H59.0232C59.0232 84.7885 58.927 84.3699 58.7348 84.0054C58.5425 83.6368 58.2721 83.3464 57.9236 83.1341C57.5791 82.9218 57.1745 82.8157 56.7099 82.8157C56.2051 82.8157 55.7645 82.9398 55.388 83.1882C55.0154 83.4325 54.727 83.753 54.5227 84.1496C54.3225 84.5421 54.2223 84.9687 54.2223 85.4294V86.4809C54.2223 87.0978 54.3305 87.6225 54.5468 88.0552C54.7671 88.4878 55.0735 88.8182 55.4661 89.0466C55.8587 89.2709 56.3173 89.3831 56.8421 89.3831C57.1825 89.3831 57.493 89.335 57.7734 89.2388C58.0538 89.1387 58.2961 88.9905 58.5004 88.7942C58.7047 88.5979 58.8609 88.3556 58.9691 88.0672L60.6695 88.3736C60.5333 88.8743 60.289 89.313 59.9365 89.6895C59.588 90.062 59.1494 90.3524 58.6206 90.5607C58.0959 90.765 57.497 90.8672 56.824 90.8672ZM62.4387 90.6809V81.4517H64.1751V82.9178H64.2713C64.4395 82.4211 64.7359 82.0305 65.1605 81.7461C65.5892 81.4577 66.0739 81.3135 66.6146 81.3135C66.7268 81.3135 66.859 81.3175 67.0112 81.3255C67.1674 81.3335 67.2896 81.3435 67.3777 81.3556V83.074C67.3056 83.054 67.1774 83.032 66.9932 83.0079C66.8089 82.9799 66.6246 82.9659 66.4404 82.9659C66.0158 82.9659 65.6372 83.056 65.3048 83.2363C64.9763 83.4125 64.7159 83.6589 64.5236 83.9753C64.3314 84.2878 64.2352 84.6443 64.2352 85.0448V90.6809H62.4387ZM72.8777 78.3753H75.131L79.0486 87.941H79.1928L83.1104 78.3753H85.3636V90.6809H83.5971V81.7762H83.4829L79.8537 90.6629H78.3876L74.7584 81.7702H74.6443V90.6809H72.8777V78.3753ZM90.2662 90.8852C89.6814 90.8852 89.1526 90.777 88.6799 90.5607C88.2073 90.3404 87.8327 90.022 87.5563 89.6054C87.2839 89.1888 87.1477 88.678 87.1477 88.0732C87.1477 87.5524 87.2479 87.1238 87.4482 86.7873C87.6485 86.4509 87.9188 86.1845 88.2593 85.9882C88.5998 85.7919 88.9804 85.6437 89.401 85.5436C89.8216 85.4434 90.2502 85.3673 90.6868 85.3152C91.2396 85.2511 91.6882 85.1991 92.0327 85.159C92.3772 85.1149 92.6276 85.0448 92.7838 84.9487C92.94 84.8526 93.0181 84.6963 93.0181 84.48V84.438C93.0181 83.9132 92.8699 83.5066 92.5735 83.2182C92.2811 82.9298 91.8445 82.7856 91.2636 82.7856C90.6588 82.7856 90.1821 82.9198 89.8336 83.1882C89.4891 83.4526 89.2508 83.747 89.1186 84.0715L87.4301 83.6869C87.6304 83.1261 87.9229 82.6735 88.3074 82.329C88.696 81.9805 89.1426 81.7281 89.6473 81.5719C90.152 81.4116 90.6828 81.3315 91.2396 81.3315C91.6081 81.3315 91.9987 81.3756 92.4113 81.4637C92.8279 81.5478 93.2164 81.7041 93.5769 81.9324C93.9415 82.1607 94.2399 82.4872 94.4722 82.9118C94.7046 83.3324 94.8207 83.8792 94.8207 84.5521V90.6809H93.0662V89.4191H92.9941C92.8779 89.6514 92.7037 89.8798 92.4714 90.1041C92.239 90.3284 91.9406 90.5147 91.5761 90.6629C91.2116 90.8111 90.7749 90.8852 90.2662 90.8852ZM90.6568 89.4431C91.1535 89.4431 91.5781 89.345 91.9306 89.1487C92.2871 88.9524 92.5575 88.6961 92.7417 88.3796C92.93 88.0592 93.0242 87.7167 93.0242 87.3521V86.1624C92.9601 86.2265 92.8359 86.2866 92.6516 86.3427C92.4714 86.3948 92.2651 86.4408 92.0327 86.4809C91.8004 86.517 91.5741 86.551 91.3538 86.583C91.1334 86.6111 90.9492 86.6351 90.801 86.6551C90.4525 86.6992 90.134 86.7733 89.8456 86.8775C89.5612 86.9816 89.3329 87.1318 89.1606 87.3281C88.9924 87.5204 88.9083 87.7768 88.9083 88.0972C88.9083 88.5418 89.0725 88.8783 89.401 89.1067C89.7294 89.331 90.148 89.4431 90.6568 89.4431ZM100.33 90.8612C99.5851 90.8612 98.9202 90.6709 98.3353 90.2903C97.7545 89.9058 97.2978 89.359 96.9654 88.65C96.6369 87.937 96.4727 87.0818 96.4727 86.0843C96.4727 85.0869 96.6389 84.2337 96.9714 83.5247C97.3079 82.8157 97.7685 82.2729 98.3534 81.8963C98.9382 81.5198 99.6011 81.3315 100.342 81.3315C100.915 81.3315 101.376 81.4277 101.724 81.6199C102.077 81.8082 102.349 82.0285 102.541 82.2809C102.738 82.5333 102.89 82.7556 102.998 82.9478H103.106V78.3753H104.903V90.6809H103.148V89.2449H102.998C102.89 89.4411 102.734 89.6655 102.529 89.9178C102.329 90.1702 102.053 90.3905 101.7 90.5788C101.348 90.767 100.891 90.8612 100.33 90.8612ZM100.727 89.329C101.243 89.329 101.68 89.1928 102.037 88.9204C102.397 88.644 102.67 88.2614 102.854 87.7727C103.042 87.284 103.136 86.7152 103.136 86.0663C103.136 85.4254 103.044 84.8646 102.86 84.3839C102.676 83.9032 102.405 83.5287 102.049 83.2603C101.692 82.9919 101.252 82.8577 100.727 82.8577C100.186 82.8577 99.7353 82.9979 99.3748 83.2783C99.0143 83.5587 98.7419 83.9413 98.5576 84.426C98.3774 84.9107 98.2873 85.4574 98.2873 86.0663C98.2873 86.6832 98.3794 87.238 98.5637 87.7307C98.7479 88.2234 99.0203 88.614 99.3808 88.9024C99.7453 89.1868 100.194 89.329 100.727 89.329ZM111.016 90.8672C110.151 90.8672 109.396 90.6689 108.751 90.2723C108.106 89.8758 107.605 89.321 107.249 88.6079C106.892 87.8949 106.714 87.0617 106.714 86.1084C106.714 85.151 106.892 84.3138 107.249 83.5968C107.605 82.8797 108.106 82.3229 108.751 81.9264C109.396 81.5298 110.151 81.3315 111.016 81.3315C111.881 81.3315 112.636 81.5298 113.281 81.9264C113.926 82.3229 114.427 82.8797 114.783 83.5968C115.14 84.3138 115.318 85.151 115.318 86.1084C115.318 87.0617 115.14 87.8949 114.783 88.6079C114.427 89.321 113.926 89.8758 113.281 90.2723C112.636 90.6689 111.881 90.8672 111.016 90.8672ZM111.022 89.359C111.583 89.359 112.048 89.2108 112.416 88.9144C112.785 88.618 113.057 88.2234 113.233 87.7307C113.413 87.238 113.504 86.6952 113.504 86.1024C113.504 85.5135 113.413 84.9727 113.233 84.48C113.057 83.9833 112.785 83.5848 112.416 83.2843C112.048 82.9839 111.583 82.8337 111.022 82.8337C110.457 82.8337 109.989 82.9839 109.616 83.2843C109.248 83.5848 108.973 83.9833 108.793 84.48C108.617 84.9727 108.528 85.5135 108.528 86.1024C108.528 86.6952 108.617 87.238 108.793 87.7307C108.973 88.2234 109.248 88.618 109.616 88.9144C109.989 89.2108 110.457 89.359 111.022 89.359ZM120.873 90.8672C119.979 90.8672 119.21 90.6649 118.565 90.2603C117.925 89.8517 117.432 89.2889 117.087 88.5719C116.743 87.8549 116.571 87.0337 116.571 86.1084C116.571 85.171 116.747 84.3438 117.099 83.6268C117.452 82.9058 117.949 82.343 118.589 81.9384C119.23 81.5338 119.985 81.3315 120.855 81.3315C121.556 81.3315 122.181 81.4617 122.729 81.7221C123.278 81.9785 123.721 82.339 124.057 82.8036C124.398 83.2683 124.6 83.8111 124.664 84.432H122.916C122.82 83.9993 122.599 83.6268 122.255 83.3144C121.914 83.0019 121.458 82.8457 120.885 82.8457C120.384 82.8457 119.945 82.9779 119.569 83.2423C119.196 83.5026 118.906 83.8752 118.698 84.3599C118.489 84.8406 118.385 85.4094 118.385 86.0663C118.385 86.7393 118.487 87.3201 118.692 87.8088C118.896 88.2975 119.184 88.676 119.557 88.9444C119.933 89.2128 120.376 89.347 120.885 89.347C121.225 89.347 121.534 89.2849 121.81 89.1607C122.09 89.0325 122.325 88.8503 122.513 88.614C122.705 88.3776 122.84 88.0932 122.916 87.7607H124.664C124.6 88.3576 124.406 88.8903 124.081 89.359C123.757 89.8277 123.322 90.1962 122.777 90.4646C122.237 90.733 121.602 90.8672 120.873 90.8672ZM127.899 87.5504L127.887 85.3573H128.2L131.877 81.4517H134.028L129.834 85.8981H129.552L127.899 87.5504ZM126.247 90.6809V78.3753H128.044V90.6809H126.247ZM132.075 90.6809L128.771 86.2946L130.008 85.0388L134.28 90.6809H132.075Z" fill="#01080F"/>
<path d="M212.568 82.3085L211.888 83.8016H202.586L203.14 82.3085H212.568ZM211.271 85.2036L210.549 86.7178H202.586L203.14 85.2036H211.271ZM214.335 78.488L213.353 80.577C213.129 80.3994 212.874 80.2265 212.589 80.0583C212.304 79.89 211.989 79.7498 211.643 79.6377C211.297 79.5255 210.918 79.4694 210.507 79.4694C209.811 79.4694 209.196 79.654 208.664 80.0232C208.131 80.3877 207.713 80.9439 207.409 81.6916C207.11 82.4347 206.96 83.3764 206.96 84.5167C206.96 85.657 207.11 86.5986 207.409 87.3417C207.713 88.0848 208.131 88.6362 208.664 88.9961C209.196 89.3559 209.811 89.5358 210.507 89.5358C210.918 89.5358 211.297 89.4821 211.643 89.3746C211.989 89.2671 212.299 89.1316 212.575 88.968C212.856 88.8045 213.096 88.6409 213.297 88.4773L214.293 90.5663C213.793 91.0009 213.215 91.3281 212.561 91.5477C211.912 91.7674 211.227 91.8772 210.507 91.8772C209.311 91.8772 208.25 91.5851 207.325 91.0009C206.404 90.4121 205.682 89.5686 205.159 88.4703C204.635 87.3674 204.373 86.0495 204.373 84.5167C204.373 82.9791 204.635 81.6589 205.159 80.556C205.682 79.4531 206.404 78.6072 207.325 78.0184C208.25 77.4248 209.311 77.1281 210.507 77.1281C211.255 77.1281 211.949 77.2473 212.589 77.4856C213.234 77.7193 213.816 78.0534 214.335 78.488ZM222.157 77.3244V91.6809H219.557V79.855H219.473L216.115 82.0001V79.6166L219.683 77.3244H222.157ZM230.511 91.8772C229.469 91.8772 228.544 91.7019 227.735 91.3514C226.931 91.0009 226.3 90.5219 225.842 89.9144C225.389 89.3022 225.165 88.6082 225.169 87.8324C225.165 87.2295 225.296 86.6757 225.562 86.171C225.828 85.6663 226.188 85.2457 226.642 84.9092C227.1 84.5681 227.609 84.3508 228.17 84.2573V84.1591C227.431 83.9956 226.833 83.6194 226.375 83.0305C225.922 82.437 225.698 81.7524 225.702 80.9766C225.698 80.2382 225.903 79.5793 226.319 78.9998C226.735 78.4203 227.305 77.9646 228.03 77.6328C228.754 77.2963 229.581 77.1281 230.511 77.1281C231.432 77.1281 232.252 77.2963 232.972 77.6328C233.696 77.9646 234.266 78.4203 234.682 78.9998C235.103 79.5793 235.313 80.2382 235.313 80.9766C235.313 81.7524 235.082 82.437 234.619 83.0305C234.161 83.6194 233.57 83.9956 232.845 84.1591V84.2573C233.406 84.3508 233.911 84.5681 234.36 84.9092C234.813 85.2457 235.173 85.6663 235.439 86.171C235.71 86.6757 235.846 87.2295 235.846 87.8324C235.846 88.6082 235.617 89.3022 235.159 89.9144C234.701 90.5219 234.07 91.0009 233.266 91.3514C232.467 91.7019 231.549 91.8772 230.511 91.8772ZM230.511 89.8723C231.049 89.8723 231.516 89.7812 231.913 89.5989C232.31 89.412 232.619 89.1503 232.838 88.8138C233.058 88.4773 233.17 88.0894 233.175 87.6501C233.17 87.1922 233.051 86.7879 232.817 86.4374C232.588 86.0822 232.273 85.8042 231.871 85.6032C231.474 85.4023 231.02 85.3018 230.511 85.3018C229.997 85.3018 229.539 85.4023 229.137 85.6032C228.735 85.8042 228.417 86.0822 228.184 86.4374C227.955 86.7879 227.843 87.1922 227.847 87.6501C227.843 88.0894 227.95 88.4773 228.17 88.8138C228.389 89.1456 228.698 89.405 229.095 89.5919C229.497 89.7789 229.969 89.8723 230.511 89.8723ZM230.511 83.332C230.95 83.332 231.338 83.2432 231.675 83.0656C232.016 82.888 232.285 82.6403 232.481 82.3225C232.677 82.0047 232.778 81.6379 232.782 81.2219C232.778 80.8107 232.68 80.4508 232.488 80.1424C232.296 79.8293 232.03 79.5886 231.689 79.4204C231.348 79.2475 230.955 79.161 230.511 79.161C230.058 79.161 229.658 79.2475 229.312 79.4204C228.971 79.5886 228.705 79.8293 228.513 80.1424C228.326 80.4508 228.235 80.8107 228.24 81.2219C228.235 81.6379 228.329 82.0047 228.52 82.3225C228.717 82.6356 228.985 82.8833 229.326 83.0656C229.672 83.2432 230.067 83.332 230.511 83.332ZM237.755 91.6809V89.8022L242.74 84.9162C243.216 84.4349 243.613 84.0073 243.931 83.6334C244.249 83.2595 244.487 82.8973 244.646 82.5468C244.805 82.1963 244.885 81.8225 244.885 81.4252C244.885 80.9719 244.782 80.584 244.576 80.2616C244.371 79.9344 244.088 79.6821 243.728 79.5045C243.368 79.3269 242.959 79.2381 242.501 79.2381C242.029 79.2381 241.616 79.3362 241.26 79.5325C240.905 79.7241 240.63 79.9975 240.433 80.3527C240.242 80.7079 240.146 81.1308 240.146 81.6215H237.671C237.671 80.7102 237.879 79.9181 238.295 79.2451C238.711 78.5722 239.284 78.0511 240.013 77.6819C240.746 77.3127 241.588 77.1281 242.536 77.1281C243.499 77.1281 244.345 77.308 245.074 77.6679C245.803 78.0277 246.368 78.5207 246.77 79.147C247.177 79.7732 247.38 80.4882 247.38 81.292C247.38 81.8295 247.277 82.3576 247.072 82.8763C246.866 83.3951 246.504 83.9699 245.985 84.6008C245.471 85.2317 244.749 85.9958 243.819 86.8931L241.345 89.4097V89.5078H247.598V91.6809H237.755Z" fill="#01080F"/>
<path d="M0.875 126.931C0.875 120.701 5.92529 115.651 12.1551 115.651H220.838C227.068 115.651 232.118 120.701 232.118 126.931V149.391C232.118 155.621 227.068 160.672 220.838 160.672H12.1551C5.92529 160.672 0.875 155.621 0.875 149.391V126.931Z" fill="#FFE766"/>
<g clip-path="url(#clip0_77_2625)">
<path d="M23.9317 131.856H25.7823V140.58C25.7823 141.369 25.6261 142.044 25.3136 142.605C25.0052 143.166 24.5706 143.595 24.0098 143.891C23.449 144.183 22.792 144.33 22.0389 144.33C21.346 144.33 20.7231 144.203 20.1703 143.951C19.6215 143.699 19.1869 143.332 18.8664 142.852C18.55 142.367 18.3917 141.778 18.3917 141.085H20.2364C20.2364 141.425 20.3145 141.72 20.4707 141.968C20.6309 142.217 20.8492 142.411 21.1256 142.551C21.406 142.687 21.7265 142.755 22.087 142.755C22.4796 142.755 22.8121 142.673 23.0844 142.509C23.3608 142.341 23.5711 142.094 23.7153 141.77C23.8595 141.445 23.9317 141.049 23.9317 140.58V131.856ZM31.8896 144.348C31.0244 144.348 30.2693 144.149 29.6244 143.753C28.9795 143.356 28.4787 142.801 28.1222 142.088C27.7657 141.375 27.5875 140.542 27.5875 139.589C27.5875 138.631 27.7657 137.794 28.1222 137.077C28.4787 136.36 28.9795 135.803 29.6244 135.407C30.2693 135.01 31.0244 134.812 31.8896 134.812C32.7549 134.812 33.5099 135.01 34.1549 135.407C34.7998 135.803 35.3005 136.36 35.657 137.077C36.0135 137.794 36.1918 138.631 36.1918 139.589C36.1918 140.542 36.0135 141.375 35.657 142.088C35.3005 142.801 34.7998 143.356 34.1549 143.753C33.5099 144.149 32.7549 144.348 31.8896 144.348ZM31.8956 142.839C32.4564 142.839 32.9211 142.691 33.2896 142.395C33.6581 142.098 33.9305 141.704 34.1068 141.211C34.287 140.718 34.3772 140.176 34.3772 139.583C34.3772 138.994 34.287 138.453 34.1068 137.961C33.9305 137.464 33.6581 137.065 33.2896 136.765C32.9211 136.464 32.4564 136.314 31.8956 136.314C31.3308 136.314 30.8621 136.464 30.4896 136.765C30.1211 137.065 29.8467 137.464 29.6664 137.961C29.4902 138.453 29.4021 138.994 29.4021 139.583C29.4021 140.176 29.4902 140.718 29.6664 141.211C29.8467 141.704 30.1211 142.098 30.4896 142.395C30.8621 142.691 31.3308 142.839 31.8956 142.839ZM39.6553 138.682V144.161H37.8587V131.856H39.6313V136.434H39.7454C39.9617 135.938 40.2922 135.543 40.7369 135.251C41.1815 134.958 41.7623 134.812 42.4794 134.812C43.1123 134.812 43.665 134.942 44.1377 135.203C44.6144 135.463 44.9829 135.851 45.2433 136.368C45.5077 136.881 45.6399 137.522 45.6399 138.291V144.161H43.8433V138.507C43.8433 137.83 43.6691 137.306 43.3206 136.933C42.9721 136.556 42.4874 136.368 41.8665 136.368C41.4419 136.368 41.0613 136.458 40.7248 136.639C40.3924 136.819 40.13 137.083 39.9377 137.432C39.7494 137.776 39.6553 138.193 39.6553 138.682ZM49.4955 138.682V144.161H47.6989V134.932H49.4234V136.434H49.5375C49.7498 135.946 50.0823 135.553 50.535 135.257C50.9916 134.96 51.5664 134.812 52.2594 134.812C52.8883 134.812 53.4391 134.944 53.9118 135.209C54.3845 135.469 54.751 135.857 55.0114 136.374C55.2717 136.891 55.4019 137.53 55.4019 138.291V144.161H53.6054V138.507C53.6054 137.838 53.4311 137.316 53.0826 136.939C52.7341 136.558 52.2554 136.368 51.6465 136.368C51.23 136.368 50.8594 136.458 50.535 136.639C50.2145 136.819 49.9601 137.083 49.7719 137.432C49.5876 137.776 49.4955 138.193 49.4955 138.682ZM65.7404 144.161H61.7567V131.856H65.8666C67.0723 131.856 68.1078 132.102 68.973 132.595C69.8382 133.084 70.5012 133.787 70.9618 134.704C71.4265 135.617 71.6588 136.713 71.6588 137.991C71.6588 139.272 71.4245 140.374 70.9558 141.295C70.4912 142.217 69.8182 142.926 68.9369 143.422C68.0557 143.915 66.9902 144.161 65.7404 144.161ZM63.6133 142.539H65.6382C66.5756 142.539 67.3547 142.363 67.9756 142.01C68.5965 141.654 69.0611 141.139 69.3696 140.466C69.678 139.789 69.8322 138.964 69.8322 137.991C69.8322 137.025 69.678 136.206 69.3696 135.533C69.0651 134.86 68.6105 134.349 68.0056 134.001C67.4007 133.652 66.6497 133.478 65.7524 133.478H63.6133V142.539ZM77.3726 144.348C76.5074 144.348 75.7523 144.149 75.1074 143.753C74.4624 143.356 73.9617 142.801 73.6052 142.088C73.2487 141.375 73.0704 140.542 73.0704 139.589C73.0704 138.631 73.2487 137.794 73.6052 137.077C73.9617 136.36 74.4624 135.803 75.1074 135.407C75.7523 135.01 76.5074 134.812 77.3726 134.812C78.2378 134.812 78.9929 135.01 79.6378 135.407C80.2828 135.803 80.7835 136.36 81.14 137.077C81.4965 137.794 81.6748 138.631 81.6748 139.589C81.6748 140.542 81.4965 141.375 81.14 142.088C80.7835 142.801 80.2828 143.356 79.6378 143.753C78.9929 144.149 78.2378 144.348 77.3726 144.348ZM77.3786 142.839C77.9394 142.839 78.4041 142.691 78.7726 142.395C79.1411 142.098 79.4135 141.704 79.5898 141.211C79.77 140.718 79.8602 140.176 79.8602 139.583C79.8602 138.994 79.77 138.453 79.5898 137.961C79.4135 137.464 79.1411 137.065 78.7726 136.765C78.4041 136.464 77.9394 136.314 77.3786 136.314C76.8138 136.314 76.3451 136.464 75.9726 136.765C75.6041 137.065 75.3297 137.464 75.1494 137.961C74.9732 138.453 74.885 138.994 74.885 139.583C74.885 140.176 74.9732 140.718 75.1494 141.211C75.3297 141.704 75.6041 142.098 75.9726 142.395C76.3451 142.691 76.8138 142.839 77.3786 142.839ZM87.3194 144.348C86.4101 144.348 85.627 144.153 84.97 143.765C84.3171 143.372 83.8124 142.821 83.4559 142.112C83.1034 141.399 82.9271 140.564 82.9271 139.607C82.9271 138.662 83.1034 137.828 83.4559 137.107C83.8124 136.386 84.3091 135.823 84.946 135.419C85.5869 135.014 86.336 134.812 87.1932 134.812C87.714 134.812 88.2187 134.898 88.7074 135.07C89.1961 135.243 89.6347 135.513 90.0233 135.882C90.4118 136.25 90.7183 136.729 90.9426 137.318C91.1669 137.902 91.2791 138.613 91.2791 139.451V140.088H83.9426V138.742H89.5186C89.5186 138.269 89.4224 137.85 89.2301 137.486C89.0379 137.117 88.7675 136.827 88.419 136.615C88.0745 136.402 87.6699 136.296 87.2052 136.296C86.7005 136.296 86.2599 136.42 85.8834 136.669C85.5108 136.913 85.2224 137.233 85.0181 137.63C84.8178 138.023 84.7177 138.449 84.7177 138.91V139.961C84.7177 140.578 84.8258 141.103 85.0421 141.536C85.2625 141.968 85.5689 142.299 85.9615 142.527C86.354 142.751 86.8127 142.864 87.3374 142.864C87.6779 142.864 87.9884 142.815 88.2688 142.719C88.5492 142.619 88.7915 142.471 88.9958 142.275C89.2001 142.078 89.3563 141.836 89.4645 141.548L91.1649 141.854C91.0287 142.355 90.7844 142.793 90.4319 143.17C90.0834 143.542 89.6447 143.833 89.116 144.041C88.5912 144.245 87.9924 144.348 87.3194 144.348Z" fill="#01080F"/>
</g>
<path d="M186.724 135.789L186.044 137.282H176.742L177.296 135.789H186.724ZM185.428 138.684L184.705 140.198H176.742L177.296 138.684H185.428ZM188.491 131.968L187.51 134.057C187.285 133.88 187.03 133.707 186.745 133.539C186.46 133.37 186.145 133.23 185.799 133.118C185.453 133.006 185.075 132.95 184.663 132.95C183.967 132.95 183.353 133.134 182.82 133.504C182.287 133.868 181.869 134.424 181.565 135.172C181.266 135.915 181.116 136.857 181.116 137.997C181.116 139.137 181.266 140.079 181.565 140.822C181.869 141.565 182.287 142.117 182.82 142.476C183.353 142.836 183.967 143.016 184.663 143.016C185.075 143.016 185.453 142.962 185.799 142.855C186.145 142.747 186.456 142.612 186.731 142.448C187.012 142.285 187.252 142.121 187.453 141.958L188.449 144.047C187.949 144.481 187.372 144.808 186.717 145.028C186.068 145.248 185.383 145.358 184.663 145.358C183.467 145.358 182.406 145.065 181.481 144.481C180.56 143.892 179.838 143.049 179.315 141.951C178.791 140.848 178.53 139.53 178.53 137.997C178.53 136.459 178.791 135.139 179.315 134.036C179.838 132.933 180.56 132.088 181.481 131.499C182.406 130.905 183.467 130.608 184.663 130.608C185.411 130.608 186.105 130.728 186.745 130.966C187.39 131.2 187.972 131.534 188.491 131.968ZM195.732 145.358C195.045 145.353 194.374 145.234 193.72 145C193.066 144.762 192.477 144.376 191.953 143.843C191.43 143.306 191.014 142.593 190.706 141.705C190.397 140.813 190.245 139.707 190.25 138.39C190.25 137.16 190.381 136.065 190.642 135.102C190.904 134.139 191.28 133.326 191.771 132.662C192.262 131.994 192.853 131.485 193.545 131.134C194.241 130.784 195.019 130.608 195.879 130.608C196.781 130.608 197.58 130.786 198.276 131.141C198.977 131.496 199.543 131.982 199.973 132.599C200.403 133.211 200.669 133.903 200.772 134.674H198.213C198.082 134.123 197.814 133.683 197.407 133.356C197.005 133.025 196.496 132.859 195.879 132.859C194.884 132.859 194.117 133.291 193.58 134.156C193.047 135.02 192.778 136.207 192.774 137.717H192.872C193.101 137.305 193.397 136.953 193.762 136.658C194.126 136.364 194.538 136.137 194.996 135.978C195.458 135.815 195.947 135.733 196.461 135.733C197.302 135.733 198.057 135.934 198.725 136.336C199.398 136.738 199.931 137.291 200.323 137.997C200.716 138.698 200.91 139.502 200.905 140.408C200.91 141.352 200.695 142.201 200.26 142.953C199.826 143.701 199.22 144.29 198.445 144.72C197.669 145.15 196.765 145.362 195.732 145.358ZM195.718 143.255C196.227 143.255 196.683 143.131 197.085 142.883C197.487 142.635 197.804 142.301 198.038 141.881C198.272 141.46 198.386 140.988 198.382 140.465C198.386 139.95 198.274 139.485 198.045 139.07C197.821 138.654 197.51 138.324 197.113 138.081C196.716 137.838 196.262 137.717 195.753 137.717C195.374 137.717 195.021 137.789 194.694 137.934C194.367 138.079 194.082 138.28 193.839 138.537C193.596 138.789 193.404 139.084 193.264 139.42C193.129 139.752 193.059 140.107 193.054 140.486C193.059 140.986 193.175 141.446 193.404 141.867C193.633 142.287 193.949 142.624 194.351 142.876C194.753 143.128 195.208 143.255 195.718 143.255ZM208.186 145.435C207.032 145.435 206.041 145.143 205.214 144.558C204.392 143.97 203.758 143.121 203.314 142.014C202.875 140.901 202.655 139.563 202.655 137.997C202.66 136.431 202.882 135.1 203.321 134.001C203.765 132.898 204.399 132.057 205.221 131.478C206.048 130.898 207.037 130.608 208.186 130.608C209.336 130.608 210.324 130.898 211.152 131.478C211.979 132.057 212.612 132.898 213.051 134.001C213.495 135.104 213.717 136.436 213.717 137.997C213.717 139.567 213.495 140.909 213.051 142.021C212.612 143.128 211.979 143.974 211.152 144.558C210.329 145.143 209.341 145.435 208.186 145.435ZM208.186 143.241C209.084 143.241 209.792 142.799 210.31 141.916C210.834 141.028 211.096 139.721 211.096 137.997C211.096 136.857 210.976 135.899 210.738 135.123C210.5 134.347 210.163 133.763 209.729 133.37C209.294 132.973 208.78 132.775 208.186 132.775C207.294 132.775 206.588 133.219 206.069 134.106C205.551 134.99 205.289 136.287 205.284 137.997C205.28 139.142 205.394 140.105 205.628 140.885C205.866 141.666 206.203 142.254 206.637 142.652C207.072 143.044 207.588 143.241 208.186 143.241Z" fill="#01080F"/>
<path d="M0.875 180.412C0.875 174.182 5.92529 169.132 12.1551 169.132H167.257C173.487 169.132 178.537 174.182 178.537 180.412V202.872C178.537 209.102 173.487 214.152 167.257 214.152H12.1551C5.92529 214.152 0.875 209.102 0.875 202.872V180.412Z" fill="#E4C8F1"/>
<g clip-path="url(#clip1_77_2625)">
<path d="M19.1488 185.336H21.402L25.3196 194.902H25.4638L29.3815 185.336H31.6347V197.642H29.8681V188.737H29.754L26.1248 197.624H24.6587L21.0295 188.731H20.9153V197.642H19.1488V185.336ZM33.8514 197.642V188.413H35.648V197.642H33.8514ZM34.7587 186.989C34.4463 186.989 34.1779 186.884 33.9536 186.676C33.7333 186.464 33.6231 186.211 33.6231 185.919C33.6231 185.623 33.7333 185.37 33.9536 185.162C34.1779 184.95 34.4463 184.844 34.7587 184.844C35.0712 184.844 35.3376 184.95 35.5579 185.162C35.7822 185.37 35.8943 185.623 35.8943 185.919C35.8943 186.211 35.7822 186.464 35.5579 186.676C35.3376 186.884 35.0712 186.989 34.7587 186.989ZM39.3789 194.511L39.3669 192.318H39.6793L43.3566 188.413H45.5077L41.3137 192.859H41.0313L39.3789 194.511ZM37.7265 197.642V185.336H39.5231V197.642H37.7265ZM43.5549 197.642L40.2502 193.256L41.4879 192L45.76 197.642H43.5549ZM50.4043 197.828C49.495 197.828 48.7118 197.634 48.0549 197.245C47.402 196.853 46.8973 196.302 46.5407 195.593C46.1882 194.88 46.012 194.045 46.012 193.087C46.012 192.142 46.1882 191.309 46.5407 190.588C46.8973 189.867 47.394 189.304 48.0309 188.899C48.6718 188.495 49.4209 188.292 50.2781 188.292C50.7988 188.292 51.3036 188.379 51.7923 188.551C52.281 188.723 52.7196 188.993 53.1081 189.362C53.4967 189.731 53.8031 190.209 54.0275 190.798C54.2518 191.383 54.3639 192.094 54.3639 192.931V193.568H47.0274V192.222H52.6034C52.6034 191.749 52.5073 191.331 52.315 190.966C52.1227 190.598 51.8523 190.307 51.5038 190.095C51.1594 189.883 50.7548 189.777 50.2901 189.777C49.7854 189.777 49.3448 189.901 48.9682 190.149C48.5957 190.393 48.3073 190.714 48.103 191.111C47.9027 191.503 47.8025 191.93 47.8025 192.39V193.442C47.8025 194.059 47.9107 194.583 48.127 195.016C48.3473 195.449 48.6538 195.779 49.0463 196.008C49.4389 196.232 49.8975 196.344 50.4223 196.344C50.7628 196.344 51.0732 196.296 51.3536 196.2C51.634 196.1 51.8764 195.951 52.0807 195.755C52.285 195.559 52.4412 195.317 52.5493 195.028L54.2498 195.335C54.1136 195.835 53.8692 196.274 53.5167 196.65C53.1682 197.023 52.7296 197.313 52.2008 197.522C51.6761 197.726 51.0772 197.828 50.4043 197.828Z" fill="#01080F"/>
</g>
<path d="M134.146 189.269L133.466 190.762H124.164L124.718 189.269H134.146ZM132.849 192.164L132.127 193.679H124.164L124.718 192.164H132.849ZM135.913 185.449L134.931 187.538C134.707 187.36 134.452 187.187 134.167 187.019C133.882 186.851 133.567 186.711 133.221 186.598C132.875 186.486 132.497 186.43 132.085 186.43C131.389 186.43 130.774 186.615 130.242 186.984C129.709 187.349 129.291 187.905 128.987 188.652C128.688 189.395 128.538 190.337 128.538 191.477C128.538 192.618 128.688 193.559 128.987 194.303C129.291 195.046 129.709 195.597 130.242 195.957C130.774 196.317 131.389 196.497 132.085 196.497C132.497 196.497 132.875 196.443 133.221 196.335C133.567 196.228 133.878 196.092 134.153 195.929C134.434 195.765 134.674 195.602 134.875 195.438L135.871 197.527C135.371 197.962 134.794 198.289 134.139 198.509C133.49 198.728 132.805 198.838 132.085 198.838C130.889 198.838 129.828 198.546 128.903 197.962C127.982 197.373 127.26 196.529 126.737 195.431C126.213 194.328 125.952 193.01 125.952 191.477C125.952 189.94 126.213 188.62 126.737 187.517C127.26 186.414 127.982 185.568 128.903 184.979C129.828 184.386 130.889 184.089 132.085 184.089C132.833 184.089 133.527 184.208 134.167 184.446C134.812 184.68 135.394 185.014 135.913 185.449ZM143.048 198.838C142.039 198.838 141.142 198.665 140.357 198.319C139.576 197.973 138.959 197.492 138.506 196.875C138.053 196.258 137.812 195.546 137.784 194.737H140.42C140.443 195.125 140.572 195.464 140.805 195.754C141.039 196.039 141.35 196.261 141.738 196.42C142.126 196.578 142.56 196.658 143.041 196.658C143.556 196.658 144.011 196.569 144.408 196.392C144.806 196.209 145.116 195.957 145.341 195.634C145.565 195.312 145.675 194.94 145.67 194.52C145.675 194.085 145.563 193.702 145.334 193.37C145.105 193.038 144.773 192.779 144.338 192.592C143.908 192.405 143.39 192.312 142.782 192.312H141.513V190.307H142.782C143.282 190.307 143.719 190.22 144.093 190.047C144.472 189.875 144.768 189.631 144.983 189.318C145.198 189.001 145.303 188.634 145.299 188.218C145.303 187.811 145.212 187.458 145.025 187.159C144.843 186.856 144.584 186.62 144.247 186.451C143.915 186.283 143.525 186.199 143.077 186.199C142.637 186.199 142.231 186.278 141.857 186.437C141.483 186.596 141.181 186.823 140.953 187.117C140.724 187.407 140.602 187.753 140.588 188.155H138.085C138.104 187.351 138.335 186.645 138.779 186.038C139.228 185.425 139.826 184.949 140.574 184.608C141.322 184.262 142.161 184.089 143.091 184.089C144.049 184.089 144.88 184.269 145.586 184.629C146.296 184.984 146.846 185.463 147.233 186.066C147.621 186.669 147.815 187.335 147.815 188.064C147.82 188.872 147.582 189.55 147.1 190.096C146.624 190.643 145.997 191.001 145.222 191.169V191.281C146.231 191.421 147.004 191.795 147.542 192.403C148.084 193.006 148.353 193.756 148.348 194.653C148.348 195.457 148.119 196.177 147.661 196.812C147.208 197.443 146.582 197.938 145.782 198.298C144.988 198.658 144.077 198.838 143.048 198.838ZM155.351 198.838C154.416 198.838 153.579 198.663 152.841 198.312C152.103 197.957 151.516 197.471 151.082 196.854C150.652 196.237 150.423 195.532 150.395 194.737H152.918C152.965 195.326 153.22 195.807 153.682 196.181C154.145 196.55 154.701 196.735 155.351 196.735C155.86 196.735 156.313 196.618 156.711 196.384C157.108 196.151 157.421 195.826 157.65 195.41C157.879 194.994 157.991 194.52 157.986 193.987C157.991 193.445 157.877 192.964 157.643 192.543C157.409 192.122 157.089 191.793 156.683 191.555C156.276 191.312 155.809 191.19 155.281 191.19C154.851 191.185 154.428 191.265 154.012 191.428C153.596 191.592 153.266 191.807 153.023 192.073L150.675 191.688L151.425 184.285H159.753V186.458H153.577L153.163 190.265H153.248C153.514 189.952 153.89 189.692 154.376 189.487C154.862 189.276 155.395 189.171 155.975 189.171C156.844 189.171 157.62 189.377 158.302 189.788C158.984 190.195 159.522 190.755 159.914 191.47C160.307 192.185 160.503 193.003 160.503 193.924C160.503 194.873 160.283 195.719 159.844 196.462C159.409 197.2 158.804 197.782 158.028 198.207C157.257 198.628 156.365 198.838 155.351 198.838Z" fill="#01080F"/>
<defs>
<clipPath id="clip0_77_2625">
<rect width="157.922" height="12" fill="white" transform="translate(17.7969 132.161)"/>
</clipPath>
<clipPath id="clip1_77_2625">
<rect width="157.922" height="12" fill="white" transform="translate(17.7969 185.642)"/>
</clipPath>
</defs>
</svg>
