<svg width="233" height="215" viewBox="0 0 233 215" fill="none" xmlns="http://www.w3.org/2000/svg">
<path d="M2.36134 15.2004V0.843898H4.96206V13.0203H11.2851V15.2004H2.36134ZM13.0354 15.2004V4.43303H15.573V15.2004H13.0354ZM14.3112 2.90485C13.9093 2.90485 13.5635 2.77166 13.2737 2.50528C12.984 2.23422 12.8391 1.90942 12.8391 1.53088C12.8391 1.14767 12.984 0.822868 13.2737 0.556486C13.5635 0.285432 13.9093 0.149905 14.3112 0.149905C14.7178 0.149905 15.0636 0.285432 15.3487 0.556486C15.6384 0.822868 15.7833 1.14767 15.7833 1.53088C15.7833 1.90942 15.6384 2.23422 15.3487 2.50528C15.0636 2.77166 14.7178 2.90485 14.3112 2.90485ZM20.3253 8.89141V15.2004H17.7877V4.43303H20.2132V6.26265H20.3393C20.587 5.65979 20.9819 5.18077 21.524 4.8256C22.0708 4.47042 22.7461 4.29283 23.5499 4.29283C24.293 4.29283 24.9402 4.45173 25.4917 4.76951C26.0478 5.0873 26.4778 5.54763 26.7815 6.15049C27.09 6.75335 27.2419 7.48473 27.2372 8.34463V15.2004H24.6996V8.73719C24.6996 8.0175 24.5126 7.45436 24.1388 7.04777C23.7696 6.64119 23.2578 6.4379 22.6036 6.4379C22.1596 6.4379 21.7647 6.53604 21.4189 6.73232C21.0777 6.92393 20.809 7.202 20.6127 7.56652C20.4211 7.93104 20.3253 8.37267 20.3253 8.89141ZM31.7354 11.8216L31.7284 8.75822H32.135L36.0045 4.43303H38.9697L34.2099 9.73262H33.6842L31.7354 11.8216ZM29.4221 15.2004V0.843898H31.9597V15.2004H29.4221ZM36.1798 15.2004L32.6747 10.3004L34.3852 8.51287L39.2151 15.2004H36.1798ZM14.6499 28.6878H12.0282C11.9534 28.2579 11.8155 27.877 11.6146 27.5452C11.4136 27.2087 11.1636 26.9236 10.8645 26.69C10.5654 26.4563 10.2243 26.2811 9.84104 26.1642C9.4625 26.0427 9.05358 25.982 8.61429 25.982C7.83384 25.982 7.14218 26.1782 6.53932 26.5708C5.93645 26.9587 5.46445 27.5288 5.12329 28.2812C4.78214 29.029 4.61156 29.9426 4.61156 31.0222C4.61156 32.1204 4.78214 33.0457 5.12329 33.7981C5.46912 34.5459 5.94113 35.1114 6.53932 35.4946C7.14218 35.8731 7.8315 36.0624 8.60728 36.0624C9.03722 36.0624 9.43913 36.0063 9.813 35.8941C10.1915 35.7773 10.5304 35.6067 10.8295 35.3824C11.1332 35.1581 11.3879 34.8824 11.5935 34.5552C11.8038 34.2281 11.9487 33.8542 12.0282 33.4336L14.6499 33.4476C14.5518 34.1299 14.3391 34.7702 14.012 35.3684C13.6895 35.9666 13.2666 36.4947 12.7432 36.9527C12.2198 37.406 11.6076 37.7611 10.9066 38.0182C10.2056 38.2705 9.42745 38.3967 8.57223 38.3967C7.31042 38.3967 6.18414 38.1046 5.19339 37.5205C4.20264 36.9363 3.42219 36.0928 2.85204 34.9898C2.28189 33.8869 1.99682 32.5644 1.99682 31.0222C1.99682 29.4753 2.28423 28.1527 2.85905 27.0545C3.43387 25.9516 4.21666 25.108 5.20741 24.5239C6.19816 23.9397 7.31977 23.6476 8.57223 23.6476C9.37137 23.6476 10.1144 23.7598 10.8014 23.9841C11.4884 24.2084 12.1006 24.5379 12.638 24.9725C13.1755 25.4025 13.6171 25.9306 13.9629 26.5568C14.3134 27.1783 14.5424 27.8887 14.6499 28.6878ZM19.0622 23.8439V38.2004H16.5246V23.8439H19.0622ZM21.2769 38.2004V27.433H23.8146V38.2004H21.2769ZM22.5527 25.9048C22.1508 25.9048 21.805 25.7717 21.5153 25.5053C21.2255 25.2342 21.0806 24.9094 21.0806 24.5309C21.0806 24.1477 21.2255 23.8229 21.5153 23.5565C21.805 23.2854 22.1508 23.1499 22.5527 23.1499C22.9593 23.1499 23.3052 23.2854 23.5902 23.5565C23.88 23.8229 24.0249 24.1477 24.0249 24.5309C24.0249 24.9094 23.88 25.2342 23.5902 25.5053C23.3052 25.7717 22.9593 25.9048 22.5527 25.9048ZM30.726 38.4107C29.6511 38.4107 28.7281 38.1747 27.957 37.7027C27.1906 37.2307 26.5994 36.5788 26.1835 35.7469C25.7722 34.9104 25.5666 33.9477 25.5666 32.8588C25.5666 31.7652 25.7769 30.8002 26.1975 29.9637C26.6181 29.1225 27.2116 28.4682 27.978 28.0008C28.7491 27.5288 29.6604 27.2928 30.7119 27.2928C31.5858 27.2928 32.3593 27.4541 33.0323 27.7765C33.7099 28.0943 34.2497 28.5453 34.6516 29.1295C35.0535 29.709 35.2825 30.3866 35.3386 31.1624H32.9131C32.8149 30.6436 32.5813 30.2113 32.2121 29.8655C31.8476 29.515 31.3592 29.3398 30.747 29.3398C30.2282 29.3398 29.7726 29.48 29.38 29.7604C28.9875 30.0361 28.6814 30.4333 28.4617 30.9521C28.2467 31.4708 28.1393 32.0924 28.1393 32.8167C28.1393 33.5505 28.2467 34.1814 28.4617 34.7094C28.6767 35.2329 28.9781 35.6371 29.366 35.9222C29.7586 36.2026 30.2189 36.3428 30.747 36.3428C31.1209 36.3428 31.455 36.2727 31.7494 36.1325C32.0485 35.9876 32.2985 35.7796 32.4995 35.5086C32.7004 35.2375 32.8383 34.9081 32.9131 34.5202H35.3386C35.2778 35.2819 35.0535 35.9572 34.6656 36.5461C34.2777 37.1302 33.7496 37.5882 33.0813 37.92C32.413 38.2472 31.6279 38.4107 30.726 38.4107ZM39.3408 34.8216L39.3338 31.7582H39.7404L43.6099 27.433H46.5751L41.8153 32.7326H41.2896L39.3408 34.8216ZM37.0275 38.2004V23.8439H39.5651V38.2004H37.0275ZM43.7851 38.2004L40.2801 33.3004L41.9906 31.5129L46.8205 38.2004H43.7851ZM56.3817 30.2791L54.0684 30.5315C54.0029 30.2978 53.8884 30.0782 53.7249 29.8725C53.566 29.6669 53.351 29.501 53.08 29.3748C52.8089 29.2486 52.4771 29.1855 52.0845 29.1855C51.5564 29.1855 51.1125 29.3 50.7526 29.529C50.3975 29.758 50.2222 30.0548 50.2269 30.4193C50.2222 30.7324 50.3367 30.9871 50.5704 31.1834C50.8087 31.3797 51.2013 31.5409 51.7481 31.6671L53.5847 32.0597C54.6035 32.2793 55.3606 32.6275 55.8559 33.1041C56.356 33.5808 56.6083 34.2047 56.613 34.9758C56.6083 35.6535 56.4097 36.2517 56.0172 36.7704C55.6293 37.2845 55.0895 37.6864 54.3978 37.9761C53.7062 38.2659 52.9117 38.4107 52.0144 38.4107C50.6965 38.4107 49.6357 38.135 48.8319 37.5836C48.0281 37.0274 47.549 36.254 47.3948 35.2632L49.8694 35.0249C49.9815 35.5109 50.2199 35.8778 50.5844 36.1255C50.9489 36.3732 51.4233 36.497 52.0074 36.497C52.6103 36.497 53.094 36.3732 53.4585 36.1255C53.8277 35.8778 54.0123 35.5717 54.0123 35.2072C54.0123 34.8987 53.8931 34.644 53.6548 34.4431C53.4211 34.2421 53.0566 34.0879 52.5612 33.9804L50.7246 33.5948C49.6918 33.3799 48.9277 33.0177 48.4323 32.5083C47.9369 31.9942 47.6916 31.3446 47.6963 30.5595C47.6916 29.8959 47.8715 29.3211 48.236 28.835C48.6052 28.3443 49.117 27.9658 49.7712 27.6994C50.4302 27.4284 51.1896 27.2928 52.0495 27.2928C53.3113 27.2928 54.3044 27.5616 55.0287 28.099C55.7578 28.6364 56.2088 29.3631 56.3817 30.2791Z" fill="black"/>
<g clip-path="url(#clip0_77_2624)">
<path d="M24.6828 147.018L0.945312 167.707V214.453H232.188V93.1913L222.293 101.816C218.698 104.949 214.091 106.675 209.322 106.675H116.634C111.866 106.675 107.258 108.401 103.664 111.534L74.1018 137.3C70.5072 140.433 65.8999 142.159 61.1315 142.159H37.6531C32.8847 142.159 28.2775 143.885 24.6828 147.018Z" fill="#F2E3F8"/>
<path d="M33.375 93.1913V214.453" stroke="white" stroke-width="1.41002"/>
<path d="M66.6484 93.1913V214.453" stroke="white" stroke-width="1.41002"/>
<path d="M99.9297 93.1913V214.453" stroke="white" stroke-width="1.41002"/>
<path d="M133.203 93.1914V214.453" stroke="white" stroke-width="1.41002"/>
<path d="M166.484 93.1913V214.453" stroke="white" stroke-width="1.41002"/>
<path d="M199.758 93.1913V214.453" stroke="white" stroke-width="1.41002"/>
<rect x="110.047" y="64.8147" width="79.3135" height="27.4953" rx="8.4601" fill="#01080F"/>
<path d="M123.952 73.0455V82.2747H122.555V74.4425H122.501L120.293 75.8845V74.5506L122.595 73.0455H123.952ZM129.313 82.4008C128.667 82.4008 128.096 82.2897 127.601 82.0674C127.108 81.845 126.722 81.5386 126.442 81.148C126.163 80.7575 126.025 80.3129 126.028 79.8141C126.025 79.4236 126.104 79.0646 126.267 78.7371C126.432 78.4066 126.656 78.1317 126.938 77.9124C127.221 77.6901 127.536 77.5489 127.884 77.4888V77.4347C127.425 77.3236 127.057 77.0772 126.78 76.6957C126.504 76.3141 126.367 75.8755 126.37 75.3798C126.367 74.9081 126.492 74.4875 126.744 74.118C127 73.7455 127.35 73.4525 127.794 73.2392C128.239 73.0259 128.745 72.9193 129.313 72.9193C129.875 72.9193 130.377 73.0274 130.818 73.2437C131.263 73.457 131.613 73.75 131.868 74.1225C132.124 74.492 132.253 74.9111 132.256 75.3798C132.253 75.8755 132.112 76.3141 131.832 76.6957C131.553 77.0772 131.189 77.3236 130.742 77.4347V77.4888C131.087 77.5489 131.398 77.6901 131.674 77.9124C131.954 78.1317 132.176 78.4066 132.341 78.7371C132.51 79.0646 132.595 79.4236 132.598 79.8141C132.595 80.3129 132.454 80.7575 132.175 81.148C131.895 81.5386 131.508 81.845 131.012 82.0674C130.519 82.2897 129.953 82.4008 129.313 82.4008ZM129.313 81.2607C129.695 81.2607 130.025 81.1976 130.304 81.0714C130.584 80.9423 130.8 80.7635 130.953 80.5352C131.107 80.3038 131.185 80.0335 131.188 79.724C131.185 79.4025 131.101 79.1186 130.935 78.8723C130.773 78.6259 130.552 78.4322 130.273 78.291C129.993 78.1498 129.674 78.0792 129.313 78.0792C128.949 78.0792 128.627 78.1498 128.344 78.291C128.062 78.4322 127.839 78.6259 127.677 78.8723C127.515 79.1186 127.435 79.4025 127.438 79.724C127.435 80.0335 127.509 80.3038 127.659 80.5352C127.812 80.7635 128.03 80.9423 128.313 81.0714C128.595 81.1976 128.928 81.2607 129.313 81.2607ZM129.313 76.9661C129.619 76.9661 129.891 76.9045 130.129 76.7813C130.366 76.6581 130.552 76.4869 130.687 76.2676C130.826 76.0482 130.896 75.7914 130.899 75.497C130.896 75.2085 130.827 74.9562 130.692 74.7399C130.56 74.5236 130.375 74.3568 130.138 74.2397C129.9 74.1195 129.625 74.0594 129.313 74.0594C128.995 74.0594 128.715 74.1195 128.475 74.2397C128.237 74.3568 128.053 74.5236 127.921 74.7399C127.788 74.9562 127.724 75.2085 127.727 75.497C127.724 75.7914 127.79 76.0482 127.925 76.2676C128.06 76.4869 128.246 76.6581 128.484 76.7813C128.724 76.9045 129.001 76.9661 129.313 76.9661ZM137.181 82.4008C136.769 82.3948 136.364 82.3197 135.964 82.1755C135.568 82.0313 135.207 81.791 134.883 81.4545C134.558 81.118 134.298 80.6659 134.103 80.098C133.911 79.5302 133.815 78.8212 133.815 77.971C133.815 77.1658 133.894 76.4508 134.053 75.8259C134.216 75.201 134.449 74.6738 134.752 74.2442C135.055 73.8115 135.422 73.4826 135.852 73.2573C136.281 73.0319 136.763 72.9193 137.298 72.9193C137.848 72.9193 138.336 73.0274 138.763 73.2437C139.189 73.46 139.535 73.759 139.799 74.1405C140.067 74.5221 140.236 74.9562 140.308 75.4429H138.934C138.841 75.0583 138.656 74.7444 138.38 74.501C138.103 74.2577 137.743 74.136 137.298 74.136C136.622 74.136 136.095 74.4304 135.716 75.0193C135.341 75.6081 135.152 76.4268 135.149 77.4753H135.216C135.375 77.2139 135.571 76.9916 135.802 76.8083C136.036 76.6221 136.298 76.4794 136.586 76.3802C136.878 76.2781 137.184 76.227 137.505 76.227C138.04 76.227 138.524 76.3577 138.956 76.6191C139.392 76.8774 139.739 77.2349 139.997 77.6916C140.256 78.1483 140.385 78.671 140.385 79.2598C140.385 79.8487 140.251 80.382 139.984 80.8596C139.72 81.3373 139.347 81.7159 138.866 81.9953C138.386 82.2717 137.824 82.4068 137.181 82.4008ZM137.176 81.2292C137.531 81.2292 137.848 81.142 138.127 80.9678C138.407 80.7935 138.628 80.5592 138.79 80.2648C138.952 79.9704 139.033 79.6414 139.033 79.2779C139.033 78.9234 138.953 78.6004 138.794 78.309C138.638 78.0176 138.422 77.7862 138.145 77.615C137.872 77.4437 137.559 77.3581 137.208 77.3581C136.941 77.3581 136.693 77.4092 136.464 77.5113C136.239 77.6135 136.041 77.7547 135.87 77.9349C135.698 78.1152 135.563 78.3225 135.464 78.5568C135.368 78.7882 135.32 79.033 135.32 79.2914C135.32 79.6369 135.399 79.9568 135.559 80.2513C135.721 80.5457 135.942 80.783 136.221 80.9633C136.503 81.1405 136.822 81.2292 137.176 81.2292ZM152.669 76.0467H151.263C151.209 75.7463 151.108 75.4819 150.961 75.2536C150.814 75.0253 150.634 74.8315 150.42 74.6723C150.207 74.5131 149.968 74.3929 149.704 74.3118C149.442 74.2306 149.164 74.1901 148.87 74.1901C148.338 74.1901 147.862 74.3238 147.442 74.5912C147.024 74.8585 146.693 75.2506 146.45 75.7673C146.21 76.2841 146.09 76.915 146.09 77.6601C146.09 78.4111 146.21 79.045 146.45 79.5618C146.693 80.0785 147.025 80.4691 147.446 80.7335C147.867 80.9978 148.34 81.13 148.866 81.13C149.157 81.13 149.433 81.091 149.695 81.0129C149.959 80.9317 150.198 80.8131 150.411 80.6568C150.625 80.5006 150.805 80.3098 150.952 80.0845C151.102 79.8562 151.206 79.5948 151.263 79.3004L152.669 79.3049C152.594 79.7586 152.448 80.1762 152.232 80.5577C152.019 80.9362 151.744 81.2637 151.407 81.5401C151.074 81.8135 150.692 82.0253 150.263 82.1755C149.833 82.3257 149.364 82.4008 148.857 82.4008C148.057 82.4008 147.345 82.2116 146.72 81.833C146.096 81.4515 145.603 80.9062 145.242 80.1972C144.885 79.4882 144.706 78.6425 144.706 77.6601C144.706 76.6746 144.886 75.8289 145.247 75.1229C145.607 74.4139 146.1 73.8701 146.725 73.4916C147.35 73.11 148.06 72.9193 148.857 72.9193C149.346 72.9193 149.803 72.9899 150.226 73.1311C150.653 73.2693 151.036 73.4736 151.376 73.744C151.715 74.0113 151.996 74.3388 152.218 74.7264C152.441 75.1109 152.591 75.551 152.669 76.0467ZM155.321 73.0455V82.2747H153.973V73.0455H155.321ZM156.88 82.2747V75.3528H158.227V82.2747H156.88ZM157.56 74.2847C157.326 74.2847 157.124 74.2066 156.956 74.0504C156.791 73.8912 156.708 73.7019 156.708 73.4826C156.708 73.2603 156.791 73.071 156.956 72.9148C157.124 72.7555 157.326 72.6759 157.56 72.6759C157.794 72.6759 157.994 72.7555 158.159 72.9148C158.328 73.071 158.412 73.2603 158.412 73.4826C158.412 73.7019 158.328 73.8912 158.159 74.0504C157.994 74.2066 157.794 74.2847 157.56 74.2847ZM162.702 82.4144C162.032 82.4144 161.455 82.2626 160.971 81.9592C160.49 81.6528 160.121 81.2307 159.863 80.6929C159.604 80.1551 159.475 79.5392 159.475 78.8453C159.475 78.1422 159.607 77.5219 159.872 76.9841C160.136 76.4433 160.509 76.0212 160.989 75.7178C161.47 75.4143 162.036 75.2626 162.688 75.2626C163.214 75.2626 163.683 75.3603 164.094 75.5555C164.506 75.7478 164.838 76.0182 165.09 76.3667C165.345 76.7152 165.497 77.1223 165.545 77.588H164.234C164.162 77.2635 163.996 76.9841 163.738 76.7498C163.483 76.5154 163.14 76.3983 162.711 76.3983C162.335 76.3983 162.006 76.4974 161.724 76.6957C161.444 76.891 161.227 77.1704 161.07 77.5339C160.914 77.8944 160.836 78.321 160.836 78.8137C160.836 79.3184 160.913 79.7541 161.066 80.1206C161.219 80.4871 161.435 80.771 161.715 80.9723C161.997 81.1736 162.329 81.2742 162.711 81.2742C162.966 81.2742 163.197 81.2277 163.405 81.1345C163.615 81.0384 163.791 80.9017 163.932 80.7244C164.076 80.5472 164.177 80.3339 164.234 80.0845H165.545C165.497 80.5322 165.351 80.9317 165.108 81.2832C164.865 81.6347 164.539 81.9111 164.13 82.1124C163.725 82.3137 163.248 82.4144 162.702 82.4144ZM167.972 79.9268L167.963 78.2819H168.197L170.955 75.3528H172.568L169.423 78.6875H169.211L167.972 79.9268ZM166.732 82.2747V73.0455H168.08V82.2747H166.732ZM171.104 82.2747L168.625 78.985L169.553 78.0431L172.757 82.2747H171.104ZM178.729 77.0427L177.508 77.259C177.457 77.1028 177.376 76.954 177.265 76.8128C177.157 76.6716 177.009 76.556 176.823 76.4658C176.637 76.3757 176.404 76.3307 176.125 76.3307C175.743 76.3307 175.425 76.4163 175.169 76.5875C174.914 76.7558 174.786 76.9736 174.786 77.241C174.786 77.4723 174.872 77.6586 175.043 77.7998C175.214 77.941 175.491 78.0566 175.872 78.1468L176.972 78.3991C177.609 78.5463 178.083 78.7731 178.396 79.0796C178.708 79.386 178.865 79.7841 178.865 80.2738C178.865 80.6884 178.744 81.0579 178.504 81.3824C178.267 81.7038 177.935 81.9562 177.508 82.1395C177.084 82.3227 176.593 82.4144 176.034 82.4144C175.259 82.4144 174.627 82.2491 174.137 81.9186C173.648 81.5852 173.347 81.112 173.236 80.4991L174.538 80.3008C174.619 80.6403 174.786 80.8972 175.039 81.0714C175.291 81.2427 175.62 81.3283 176.025 81.3283C176.467 81.3283 176.82 81.2367 177.084 81.0534C177.349 80.8671 177.481 80.6403 177.481 80.3729C177.481 80.1566 177.4 79.9749 177.238 79.8277C177.078 79.6804 176.834 79.5693 176.503 79.4942L175.331 79.2373C174.686 79.0901 174.208 78.8558 173.898 78.5343C173.592 78.2128 173.439 77.8058 173.439 77.3131C173.439 76.9045 173.553 76.547 173.781 76.2405C174.01 75.9341 174.325 75.6952 174.728 75.524C175.13 75.3498 175.591 75.2626 176.111 75.2626C176.859 75.2626 177.448 75.4249 177.878 75.7493C178.307 76.0708 178.591 76.5019 178.729 77.0427Z" fill="white"/>
<path d="M149.702 97.5976C147.939 97.5976 147.058 92.3101 144.414 92.3101H154.989C152.345 92.3101 151.464 97.5976 149.702 97.5976Z" fill="#01080F"/>
<path d="M0.481332 167.392C0.188173 167.648 0.158253 168.093 0.414503 168.386C0.670752 168.679 1.11614 168.709 1.40929 168.453L0.481332 167.392ZM232.188 93.2216C232.205 92.8326 231.903 92.5034 231.514 92.4863L225.175 92.208C224.786 92.191 224.457 92.4925 224.44 92.8815C224.423 93.2704 224.724 93.5996 225.113 93.6167L230.748 93.8641L230.501 99.4987C230.483 99.8877 230.785 100.217 231.174 100.234C231.563 100.251 231.892 99.9496 231.909 99.5606L232.188 93.2216ZM222.377 101.531L222.853 102.051L222.377 101.531ZM103.659 111.592L103.195 111.061L103.659 111.592ZM1.40929 168.453L25.1417 147.709L24.2137 146.647L0.481332 167.392L1.40929 168.453ZM37.6691 143.005H61.1155V141.595H37.6691V143.005ZM74.5709 137.954L104.123 112.123L103.195 111.061L73.643 136.892L74.5709 137.954ZM116.65 107.419H209.044V106.009H116.65V107.419ZM222.853 102.051L231.959 93.7106L231.007 92.6708L221.901 101.011L222.853 102.051ZM209.044 107.419C214.156 107.419 219.083 105.504 222.853 102.051L221.901 101.011C218.391 104.226 213.804 106.009 209.044 106.009V107.419ZM104.123 112.123C107.591 109.09 112.043 107.419 116.65 107.419V106.009C111.701 106.009 106.921 107.804 103.195 111.061L104.123 112.123ZM61.1155 143.005C66.0642 143.005 70.845 141.21 74.5709 137.954L73.643 136.892C70.174 139.924 65.7229 141.595 61.1155 141.595V143.005ZM25.1417 147.709C28.6107 144.676 33.0617 143.005 37.6691 143.005V141.595C32.7204 141.595 27.9397 143.39 24.2137 146.647L25.1417 147.709Z" fill="black"/>
<circle cx="149.705" cy="106.586" r="2.82003" fill="#F2E3F8" stroke="#01080F" stroke-width="1.41002"/>
</g>
<defs>
<clipPath id="clip0_77_2624">
<rect x="0.945312" y="62.1707" width="231.243" height="152.282" rx="16.9202" fill="white"/>
</clipPath>
</defs>
</svg>
