<svg width="232" height="215" viewBox="0 0 232 215" fill="none" xmlns="http://www.w3.org/2000/svg">
<path d="M13.7046 5.68783H11.0829C11.0081 5.25788 10.8702 4.877 10.6693 4.54519C10.4683 4.20871 10.2183 3.92364 9.91919 3.68997C9.6201 3.4563 9.27894 3.28105 8.89573 3.16422C8.51719 3.04271 8.10827 2.98196 7.66897 2.98196C6.88852 2.98196 6.19687 3.17824 5.594 3.5708C4.99114 3.95869 4.51913 4.52884 4.17798 5.28125C3.83682 6.02898 3.66625 6.94262 3.66625 8.02217C3.66625 9.12041 3.83682 10.0457 4.17798 10.7981C4.52381 11.5459 4.99581 12.1114 5.594 12.4946C6.19687 12.8731 6.88619 13.0624 7.66196 13.0624C8.09191 13.0624 8.49382 13.0063 8.86769 12.8941C9.24623 12.7773 9.58505 12.6067 9.88414 12.3824C10.1879 12.1581 10.4426 11.8824 10.6482 11.5552C10.8585 11.2281 11.0034 10.8542 11.0829 10.4336L13.7046 10.4476C13.6065 11.1299 13.3938 11.7702 13.0667 12.3684C12.7442 12.9666 12.3213 13.4947 11.7979 13.9527C11.2745 14.406 10.6623 14.7611 9.96125 15.0182C9.26025 15.2705 8.48214 15.3967 7.62691 15.3967C6.36511 15.3967 5.23883 15.1046 4.24808 14.5205C3.25733 13.9363 2.47688 13.0928 1.90673 11.9898C1.33658 10.8869 1.0515 9.56438 1.0515 8.02217C1.0515 6.47529 1.33892 5.15273 1.91374 4.05449C2.48856 2.95158 3.27135 2.10804 4.2621 1.52387C5.25285 0.939702 6.37445 0.647617 7.62691 0.647617C8.42606 0.647617 9.16912 0.759777 9.8561 0.984098C10.5431 1.20842 11.1553 1.53789 11.6927 1.97251C12.2302 2.40246 12.6718 2.93055 13.0176 3.55678C13.3681 4.17834 13.5971 4.88869 13.7046 5.68783ZM20.276 15.4107C19.2245 15.4107 18.3132 15.1794 17.5421 14.7167C16.771 14.2541 16.1728 13.6068 15.7475 12.775C15.3269 11.9431 15.1166 10.9711 15.1166 9.8588C15.1166 8.74654 15.3269 7.77214 15.7475 6.93561C16.1728 6.09908 16.771 5.44949 17.5421 4.98683C18.3132 4.52416 19.2245 4.29283 20.276 4.29283C21.3275 4.29283 22.2388 4.52416 23.0099 4.98683C23.781 5.44949 24.3769 6.09908 24.7975 6.93561C25.2228 7.77214 25.4354 8.74654 25.4354 9.8588C25.4354 10.9711 25.2228 11.9431 24.7975 12.775C24.3769 13.6068 23.781 14.2541 23.0099 14.7167C22.2388 15.1794 21.3275 15.4107 20.276 15.4107ZM20.29 13.3778C20.8602 13.3778 21.3369 13.2213 21.7201 12.9082C22.1033 12.5904 22.3884 12.1651 22.5753 11.6323C22.7669 11.0996 22.8627 10.5061 22.8627 9.85179C22.8627 9.19284 22.7669 8.59699 22.5753 8.06423C22.3884 7.52679 22.1033 7.09918 21.7201 6.78139C21.3369 6.46361 20.8602 6.30471 20.29 6.30471C19.7059 6.30471 19.2198 6.46361 18.832 6.78139C18.4487 7.09918 18.1613 7.52679 17.9697 8.06423C17.7828 8.59699 17.6893 9.19284 17.6893 9.85179C17.6893 10.5061 17.7828 11.0996 17.9697 11.6323C18.1613 12.1651 18.4487 12.5904 18.832 12.9082C19.2198 13.2213 19.7059 13.3778 20.29 13.3778ZM29.7321 8.89141V15.2004H27.1944V4.43303H29.6199V6.26265H29.7461C29.9938 5.65979 30.3887 5.18077 30.9308 4.8256C31.4776 4.47042 32.1529 4.29283 32.9567 4.29283C33.6997 4.29283 34.347 4.45173 34.8985 4.76951C35.4546 5.0873 35.8845 5.54763 36.1883 6.15049C36.4967 6.75335 36.6486 7.48473 36.6439 8.34463V15.2004H34.1063V8.73719C34.1063 8.0175 33.9194 7.45436 33.5455 7.04777C33.1763 6.64119 32.6646 6.4379 32.0103 6.4379C31.5664 6.4379 31.1715 6.53604 30.8256 6.73232C30.4845 6.92393 30.2158 7.202 30.0195 7.56652C29.8279 7.93104 29.7321 8.37267 29.7321 8.89141ZM44.2055 4.43303V6.39584H38.0157V4.43303H44.2055ZM39.5439 1.85334H42.0815V11.9618C42.0815 12.303 42.1329 12.5647 42.2357 12.7469C42.3432 12.9245 42.4834 13.046 42.6563 13.1115C42.8292 13.1769 43.0208 13.2096 43.2311 13.2096C43.39 13.2096 43.5349 13.1979 43.6658 13.1745C43.8013 13.1512 43.9041 13.1301 43.9742 13.1115L44.4018 15.0953C44.2663 15.142 44.0723 15.1934 43.82 15.2495C43.5723 15.3056 43.2685 15.3383 42.9087 15.3477C42.2731 15.3663 41.7006 15.2705 41.1912 15.0602C40.6818 14.8453 40.2776 14.5135 39.9785 14.0648C39.6841 13.6162 39.5392 13.0554 39.5439 12.3824V1.85334ZM45.933 15.2004V4.43303H48.3935V6.2276H48.5057C48.702 5.60605 49.0385 5.12703 49.5151 4.79055C49.9965 4.44939 50.5456 4.27881 51.1625 4.27881C51.3027 4.27881 51.4592 4.28582 51.6322 4.29984C51.8098 4.30919 51.957 4.32555 52.0738 4.34891V6.68325C51.9663 6.64587 51.7957 6.61315 51.5621 6.58511C51.3331 6.5524 51.1111 6.53604 50.8961 6.53604C50.4334 6.53604 50.0175 6.63652 49.6483 6.83747C49.2838 7.03375 48.9964 7.30715 48.7861 7.65765C48.5758 8.00815 48.4706 8.41239 48.4706 8.87038V15.2004H45.933ZM53.3649 15.2004V4.43303H55.9025V15.2004H53.3649ZM54.6407 2.90485C54.2388 2.90485 53.893 2.77166 53.6032 2.50528C53.3135 2.23422 53.1686 1.90942 53.1686 1.53088C53.1686 1.14767 53.3135 0.822868 53.6032 0.556486C53.893 0.285432 54.2388 0.149905 54.6407 0.149905C55.0473 0.149905 55.3931 0.285432 55.6782 0.556486C55.968 0.822868 56.1128 1.14767 56.1128 1.53088C56.1128 1.90942 55.968 2.23422 55.6782 2.50528C55.3931 2.77166 55.0473 2.90485 54.6407 2.90485ZM58.2294 15.2004V0.843898H60.767V6.21358H60.8722C61.003 5.95187 61.1876 5.67381 61.4259 5.37939C61.6643 5.08029 61.9867 4.82559 62.3933 4.61529C62.7999 4.40032 63.3187 4.29283 63.9496 4.29283C64.7814 4.29283 65.5315 4.50547 66.1998 4.93075C66.8727 5.35135 67.4055 5.97524 67.7981 6.80242C68.1953 7.62493 68.3939 8.63438 68.3939 9.83076C68.3939 11.0131 68.2 12.0179 67.8121 12.8451C67.4242 13.6723 66.8961 14.3032 66.2278 14.7378C65.5595 15.1724 64.8024 15.3897 63.9566 15.3897C63.3397 15.3897 62.828 15.2869 62.4214 15.0813C62.0148 14.8756 61.6877 14.628 61.44 14.3382C61.197 14.0438 61.0077 13.7657 60.8722 13.504H60.7249V15.2004H58.2294ZM60.7179 9.81674C60.7179 10.5131 60.8161 11.1229 61.0124 11.6464C61.2133 12.1698 61.5007 12.5787 61.8746 12.8731C62.2531 13.1629 62.7111 13.3077 63.2486 13.3077C63.8094 13.3077 64.279 13.1582 64.6576 12.8591C65.0361 12.5553 65.3212 12.1417 65.5128 11.6183C65.7091 11.0902 65.8072 10.4897 65.8072 9.81674C65.8072 9.14845 65.7114 8.55493 65.5198 8.03619C65.3282 7.51745 65.0431 7.11086 64.6646 6.81644C64.286 6.52202 63.814 6.37481 63.2486 6.37481C62.7064 6.37481 62.2461 6.51735 61.8676 6.80242C61.489 7.0875 61.2016 7.48707 61.0053 8.00114C60.8137 8.51521 60.7179 9.12041 60.7179 9.81674ZM77.0193 10.672V4.43303H79.5569V15.2004H77.0964V13.2867H76.9842C76.7412 13.8896 76.3416 14.3826 75.7855 14.7658C75.234 15.149 74.5541 15.3406 73.7456 15.3406C73.0399 15.3406 72.416 15.1841 71.8739 14.871C71.3365 14.5532 70.9159 14.0929 70.6121 13.49C70.3083 12.8825 70.1565 12.1487 70.1565 11.2888V4.43303H72.6941V10.8963C72.6941 11.5786 72.881 12.1207 73.2549 12.5226C73.6288 12.9245 74.1195 13.1255 74.727 13.1255C75.1009 13.1255 75.463 13.0343 75.8135 12.8521C76.164 12.6698 76.4515 12.3988 76.6758 12.0389C76.9048 11.6744 77.0193 11.2187 77.0193 10.672ZM87.1483 4.43303V6.39584H80.9584V4.43303H87.1483ZM82.4866 1.85334H85.0242V11.9618C85.0242 12.303 85.0756 12.5647 85.1785 12.7469C85.2859 12.9245 85.4261 13.046 85.5991 13.1115C85.772 13.1769 85.9636 13.2096 86.1739 13.2096C86.3328 13.2096 86.4776 13.1979 86.6085 13.1745C86.744 13.1512 86.8468 13.1301 86.9169 13.1115L87.3446 15.0953C87.209 15.142 87.0151 15.1934 86.7627 15.2495C86.515 15.3056 86.2113 15.3383 85.8514 15.3477C85.2158 15.3663 84.6434 15.2705 84.134 15.0602C83.6246 14.8453 83.2203 14.5135 82.9212 14.0648C82.6268 13.6162 82.4819 13.0554 82.4866 12.3824V1.85334ZM88.8757 15.2004V4.43303H91.4134V15.2004H88.8757ZM90.1516 2.90485C89.7497 2.90485 89.4038 2.77166 89.1141 2.50528C88.8243 2.23422 88.6795 1.90942 88.6795 1.53088C88.6795 1.14767 88.8243 0.822868 89.1141 0.556486C89.4038 0.285432 89.7497 0.149905 90.1516 0.149905C90.5582 0.149905 90.904 0.285432 91.1891 0.556486C91.4788 0.822868 91.6237 1.14767 91.6237 1.53088C91.6237 1.90942 91.4788 2.23422 91.1891 2.50528C90.904 2.77166 90.5582 2.90485 90.1516 2.90485ZM98.3248 15.4107C97.2733 15.4107 96.362 15.1794 95.5909 14.7167C94.8198 14.2541 94.2216 13.6068 93.7963 12.775C93.3757 11.9431 93.1654 10.9711 93.1654 9.8588C93.1654 8.74654 93.3757 7.77214 93.7963 6.93561C94.2216 6.09908 94.8198 5.44949 95.5909 4.98683C96.362 4.52416 97.2733 4.29283 98.3248 4.29283C99.3763 4.29283 100.288 4.52416 101.059 4.98683C101.83 5.44949 102.426 6.09908 102.846 6.93561C103.272 7.77214 103.484 8.74654 103.484 9.8588C103.484 10.9711 103.272 11.9431 102.846 12.775C102.426 13.6068 101.83 14.2541 101.059 14.7167C100.288 15.1794 99.3763 15.4107 98.3248 15.4107ZM98.3388 13.3778C98.909 13.3778 99.3856 13.2213 99.7688 12.9082C100.152 12.5904 100.437 12.1651 100.624 11.6323C100.816 11.0996 100.911 10.5061 100.911 9.85179C100.911 9.19284 100.816 8.59699 100.624 8.06423C100.437 7.52679 100.152 7.09918 99.7688 6.78139C99.3856 6.46361 98.909 6.30471 98.3388 6.30471C97.7546 6.30471 97.2686 6.46361 96.8807 6.78139C96.4975 7.09918 96.2101 7.52679 96.0185 8.06423C95.8315 8.59699 95.7381 9.19284 95.7381 9.85179C95.7381 10.5061 95.8315 11.0996 96.0185 11.6323C96.2101 12.1651 96.4975 12.5904 96.8807 12.9082C97.2686 13.2213 97.7546 13.3778 98.3388 13.3778ZM107.781 8.89141V15.2004H105.243V4.43303H107.669V6.26265H107.795C108.043 5.65979 108.437 5.18077 108.98 4.8256C109.526 4.47042 110.202 4.29283 111.005 4.29283C111.748 4.29283 112.396 4.45173 112.947 4.76951C113.503 5.0873 113.933 5.54763 114.237 6.15049C114.545 6.75335 114.697 7.48473 114.693 8.34463V15.2004H112.155V8.73719C112.155 8.0175 111.968 7.45436 111.594 7.04777C111.225 6.64119 110.713 6.4379 110.059 6.4379C109.615 6.4379 109.22 6.53604 108.874 6.73232C108.533 6.92393 108.265 7.202 108.068 7.56652C107.877 7.93104 107.781 8.37267 107.781 8.89141ZM1.41603 38.2004V23.8439H10.7534V26.024H4.01675V29.9216H10.2697V32.1017H4.01675V36.0203H10.8095V38.2004H1.41603ZM15.9981 38.4178C15.3158 38.4178 14.7013 38.2962 14.1545 38.0532C13.6124 37.8055 13.1825 37.441 12.8647 36.9597C12.5516 36.4783 12.395 35.8848 12.395 35.1791C12.395 34.5716 12.5072 34.0692 12.7315 33.672C12.9558 33.2747 13.2619 32.9569 13.6498 32.7186C14.0377 32.4803 14.4746 32.3003 14.9607 32.1788C15.4514 32.0526 15.9584 31.9615 16.4818 31.9054C17.1127 31.84 17.6245 31.7816 18.017 31.7302C18.4096 31.6741 18.6947 31.59 18.8723 31.4778C19.0545 31.361 19.1457 31.1811 19.1457 30.938V30.896C19.1457 30.3679 18.9891 29.959 18.676 29.6692C18.3629 29.3795 17.9119 29.2346 17.323 29.2346C16.7015 29.2346 16.2085 29.3701 15.8439 29.6412C15.4841 29.9122 15.2411 30.2324 15.1149 30.6016L12.7455 30.2651C12.9324 29.6108 13.2409 29.064 13.6708 28.6247C14.1008 28.1808 14.6265 27.849 15.2481 27.6293C15.8696 27.405 16.5566 27.2928 17.309 27.2928C17.8278 27.2928 18.3442 27.3536 18.8582 27.4751C19.3723 27.5966 19.842 27.7976 20.2673 28.078C20.6925 28.3537 21.0337 28.7299 21.2907 29.2066C21.5524 29.6833 21.6833 30.2791 21.6833 30.9941V38.2004H19.2438V36.7213H19.1597C19.0055 37.0204 18.7881 37.3008 18.5077 37.5625C18.232 37.8196 17.8838 38.0275 17.4632 38.1864C17.0473 38.3406 16.559 38.4178 15.9981 38.4178ZM16.6571 36.5531C17.1665 36.5531 17.6081 36.4526 17.982 36.2517C18.3559 36.046 18.6433 35.775 18.8442 35.4385C19.0498 35.102 19.1527 34.7351 19.1527 34.3379V33.0691C19.0732 33.1345 18.9377 33.1953 18.7461 33.2514C18.5591 33.3074 18.3488 33.3565 18.1152 33.3986C17.8815 33.4406 17.6502 33.478 17.4212 33.5107C17.1922 33.5434 16.9936 33.5715 16.8253 33.5948C16.4468 33.6463 16.108 33.7304 15.8089 33.8472C15.5098 33.964 15.2738 34.1276 15.1009 34.3379C14.928 34.5435 14.8415 34.8099 14.8415 35.1371C14.8415 35.6044 15.0121 35.9572 15.3532 36.1956C15.6944 36.4339 16.129 36.5531 16.6571 36.5531ZM23.8401 38.2004V27.433H26.3007V29.2276H26.4128C26.6091 28.606 26.9456 28.127 27.4223 27.7905C27.9036 27.4494 28.4527 27.2788 29.0696 27.2788C29.2098 27.2788 29.3664 27.2858 29.5393 27.2998C29.7169 27.3092 29.8641 27.3255 29.9809 27.3489V29.6833C29.8734 29.6459 29.7029 29.6132 29.4692 29.5851C29.2402 29.5524 29.0182 29.536 28.8032 29.536C28.3406 29.536 27.9246 29.6365 27.5554 29.8375C27.1909 30.0338 26.9035 30.3071 26.6932 30.6576C26.4829 31.0081 26.3778 31.4124 26.3778 31.8704V38.2004H23.8401ZM33.8097 31.8914V38.2004H31.272V27.433H33.6975V29.2627H33.8237C34.0714 28.6598 34.4663 28.1808 35.0084 27.8256C35.5552 27.4704 36.2305 27.2928 37.0343 27.2928C37.7773 27.2928 38.4246 27.4517 38.976 27.7695C39.5322 28.0873 39.9621 28.5476 40.2659 29.1505C40.5743 29.7534 40.7262 30.4847 40.7215 31.3446V38.2004H38.1839V31.7372C38.1839 31.0175 37.997 30.4544 37.6231 30.0478C37.2539 29.6412 36.7422 29.4379 36.0879 29.4379C35.6439 29.4379 35.249 29.536 34.9032 29.7323C34.5621 29.9239 34.2933 30.202 34.0971 30.5665C33.9055 30.931 33.8097 31.3727 33.8097 31.8914ZM42.9064 38.2004V27.433H45.4441V38.2004H42.9064ZM44.1823 25.9048C43.7803 25.9048 43.4345 25.7717 43.1448 25.5053C42.855 25.2342 42.7102 24.9094 42.7102 24.5309C42.7102 24.1477 42.855 23.8229 43.1448 23.5565C43.4345 23.2854 43.7803 23.1499 44.1823 23.1499C44.5888 23.1499 44.9347 23.2854 45.2197 23.5565C45.5095 23.8229 45.6544 24.1477 45.6544 24.5309C45.6544 24.9094 45.5095 25.2342 45.2197 25.5053C44.9347 25.7717 44.5888 25.9048 44.1823 25.9048ZM50.1964 31.8914V38.2004H47.6587V27.433H50.0842V29.2627H50.2104C50.4581 28.6598 50.853 28.1808 51.3951 27.8256C51.9419 27.4704 52.6172 27.2928 53.421 27.2928C54.164 27.2928 54.8113 27.4517 55.3628 27.7695C55.9189 28.0873 56.3488 28.5476 56.6526 29.1505C56.961 29.7534 57.1129 30.4847 57.1083 31.3446V38.2004H54.5706V31.7372C54.5706 31.0175 54.3837 30.4544 54.0098 30.0478C53.6406 29.6412 53.1289 29.4379 52.4746 29.4379C52.0307 29.4379 51.6358 29.536 51.2899 29.7323C50.9488 29.9239 50.6801 30.202 50.4838 30.5665C50.2922 30.931 50.1964 31.3727 50.1964 31.8914ZM63.9758 42.4625C63.0645 42.4625 62.2818 42.3387 61.6275 42.091C60.9732 41.848 60.4475 41.5209 60.0502 41.1096C59.653 40.6983 59.3773 40.2427 59.223 39.7426L61.5083 39.1889C61.6111 39.3992 61.7607 39.6071 61.957 39.8127C62.1532 40.023 62.4173 40.196 62.7491 40.3315C63.0856 40.4717 63.5085 40.5418 64.0179 40.5418C64.7376 40.5418 65.3335 40.3665 65.8055 40.016C66.2775 39.6702 66.5135 39.1001 66.5135 38.3056V36.2657H66.3873C66.2564 36.5274 66.0648 36.7961 65.8125 37.0718C65.5648 37.3476 65.2353 37.5789 64.8241 37.7658C64.4175 37.9528 63.9057 38.0462 63.2889 38.0462C62.4617 38.0462 61.7116 37.8523 61.0386 37.4644C60.3704 37.0718 59.8376 36.4877 59.4404 35.7119C59.0478 34.9314 58.8515 33.9547 58.8515 32.7817C58.8515 31.5993 59.0478 30.6016 59.4404 29.7884C59.8376 28.9706 60.3727 28.3513 61.0457 27.9307C61.7186 27.5055 62.4687 27.2928 63.2959 27.2928C63.9268 27.2928 64.4455 27.4003 64.8521 27.6153C65.2634 27.8256 65.5905 28.0803 65.8335 28.3794C66.0765 28.6738 66.2611 28.9519 66.3873 29.2136H66.5275V27.433H69.0301V38.3757C69.0301 39.2963 68.8104 40.0581 68.3711 40.661C67.9318 41.2638 67.3313 41.7148 66.5696 42.0139C65.8078 42.313 64.9432 42.4625 63.9758 42.4625ZM63.9969 36.0554C64.5343 36.0554 64.9923 35.9245 65.3708 35.6628C65.7494 35.4011 66.0368 35.0249 66.2331 34.5342C66.4294 34.0435 66.5275 33.4546 66.5275 32.7677C66.5275 32.09 66.4294 31.4965 66.2331 30.9871C66.0415 30.4777 65.7564 30.0828 65.3779 29.8024C65.004 29.5173 64.5437 29.3748 63.9969 29.3748C63.4314 29.3748 62.9594 29.522 62.5809 29.8164C62.2023 30.1109 61.9172 30.5151 61.7256 31.0292C61.534 31.5386 61.4382 32.1181 61.4382 32.7677C61.4382 33.4266 61.534 34.0038 61.7256 34.4991C61.9219 34.9898 62.2093 35.3731 62.5879 35.6488C62.9711 35.9198 63.4407 36.0554 63.9969 36.0554ZM79.7462 30.2791L77.4329 30.5315C77.3674 30.2978 77.2529 30.0782 77.0894 29.8725C76.9305 29.6669 76.7155 29.501 76.4444 29.3748C76.1734 29.2486 75.8416 29.1855 75.449 29.1855C74.9209 29.1855 74.477 29.3 74.1171 29.529C73.7619 29.758 73.5867 30.0548 73.5914 30.4193C73.5867 30.7324 73.7012 30.9871 73.9349 31.1834C74.1732 31.3797 74.5658 31.5409 75.1125 31.6671L76.9492 32.0597C77.968 32.2793 78.725 32.6275 79.2204 33.1041C79.7205 33.5808 79.9728 34.2047 79.9775 34.9758C79.9728 35.6535 79.7742 36.2517 79.3816 36.7704C78.9938 37.2845 78.454 37.6864 77.7623 37.9761C77.0707 38.2659 76.2762 38.4107 75.3789 38.4107C74.061 38.4107 73.0002 38.135 72.1964 37.5836C71.3926 37.0274 70.9135 36.254 70.7593 35.2632L73.2339 35.0249C73.346 35.5109 73.5844 35.8778 73.9489 36.1255C74.3134 36.3732 74.7877 36.497 75.3719 36.497C75.9748 36.497 76.4585 36.3732 76.823 36.1255C77.1922 35.8778 77.3768 35.5717 77.3768 35.2072C77.3768 34.8987 77.2576 34.644 77.0193 34.4431C76.7856 34.2421 76.4211 34.0879 75.9257 33.9804L74.0891 33.5948C73.0563 33.3799 72.2922 33.0177 71.7968 32.5083C71.3014 31.9942 71.0561 31.3446 71.0607 30.5595C71.0561 29.8959 71.236 29.3211 71.6005 28.835C71.9697 28.3443 72.4814 27.9658 73.1357 27.6994C73.7947 27.4284 74.5541 27.2928 75.414 27.2928C76.6758 27.2928 77.6689 27.5616 78.3932 28.099C79.1223 28.6364 79.5733 29.3631 79.7462 30.2791Z" fill="black"/>
<g clip-path="url(#clip0_77_2628)">
<path d="M29.3125 142.159H0V214.453H231.243L231.243 79.5002H205.16C200.921 79.5002 196.795 80.8645 193.392 83.3913L171.825 99.4046C165.823 103.861 157.82 104.545 151.149 101.171L124.102 87.4945C115.108 82.9465 104.132 85.9041 98.6413 94.3554L73.4195 133.174C69.7784 138.778 63.5493 142.159 56.8664 142.159H29.3125Z" fill="#ACEE78"/>
<path d="M32.2031 67.0002V214" stroke="white" stroke-width="1.41002"/>
<path d="M65.6016 67.0002V214" stroke="white" stroke-width="1.41002"/>
<path d="M99 67.0002V214" stroke="white" stroke-width="1.41002"/>
<path d="M132.406 67.0002V214" stroke="white" stroke-width="1.41002"/>
<path d="M165.805 67.0002V214" stroke="white" stroke-width="1.41002"/>
<path d="M199.203 67.0002V214" stroke="white" stroke-width="1.41002"/>
<rect x="23.3047" y="101.495" width="52" height="27" rx="8.4601" fill="#01080F"/>
<path d="M39.9968 112.776L39.5687 113.705H33.6427L33.9807 112.776H39.9968ZM39.1901 114.606L38.753 115.543H33.6427L33.9807 114.606H39.1901ZM41.0963 110.329L40.5646 111.469C40.3963 111.325 40.2131 111.194 40.0148 111.077C39.8165 110.96 39.6032 110.867 39.3749 110.798C39.1465 110.726 38.9017 110.69 38.6403 110.69C38.1596 110.69 37.7315 110.819 37.356 111.077C36.9804 111.336 36.6845 111.723 36.4682 112.24C36.2549 112.754 36.1483 113.394 36.1483 114.16C36.1483 114.926 36.2549 115.566 36.4682 116.079C36.6845 116.593 36.9804 116.979 37.356 117.238C37.7315 117.493 38.1596 117.621 38.6403 117.621C38.9047 117.621 39.1511 117.586 39.3794 117.517C39.6107 117.448 39.821 117.358 40.0103 117.247C40.2026 117.132 40.3753 117.012 40.5285 116.886L41.0738 118.022C40.7553 118.31 40.3858 118.528 39.9652 118.675C39.5446 118.822 39.103 118.896 38.6403 118.896C37.8862 118.896 37.2178 118.705 36.635 118.324C36.0551 117.942 35.6 117.398 35.2695 116.692C34.939 115.983 34.7738 115.139 34.7738 114.16C34.7738 113.177 34.939 112.332 35.2695 111.623C35.6 110.914 36.0551 110.368 36.635 109.987C37.2178 109.605 37.8862 109.414 38.6403 109.414C39.121 109.414 39.5687 109.494 39.9832 109.653C40.3978 109.809 40.7689 110.035 41.0963 110.329ZM42.4649 118.77V117.76L45.5878 114.525C45.9213 114.173 46.1962 113.865 46.4125 113.601C46.6318 113.333 46.7956 113.08 46.9037 112.839C47.0119 112.599 47.0659 112.344 47.0659 112.073C47.0659 111.767 46.9938 111.502 46.8496 111.28C46.7054 111.055 46.5086 110.882 46.2593 110.762C46.0099 110.639 45.729 110.577 45.4166 110.577C45.0861 110.577 44.7977 110.645 44.5513 110.78C44.305 110.915 44.1157 111.106 43.9835 111.352C43.8513 111.599 43.7852 111.887 43.7852 112.217H42.4558C42.4558 111.656 42.585 111.164 42.8434 110.744C43.1018 110.323 43.4563 109.997 43.9069 109.766C44.3576 109.532 44.8698 109.414 45.4436 109.414C46.0234 109.414 46.5342 109.53 46.9758 109.761C47.4204 109.99 47.7674 110.302 48.0168 110.699C48.2662 111.092 48.3908 111.537 48.3908 112.033C48.3908 112.375 48.3262 112.71 48.1971 113.038C48.0709 113.365 47.8501 113.73 47.5346 114.133C47.2192 114.532 46.7805 115.017 46.2187 115.588L44.3846 117.508V117.576H48.5395V118.77H42.4649ZM53.4952 109.541V118.77H52.0982V110.938H52.0441L49.836 112.38V111.046L52.1388 109.541H53.4952ZM55.5442 116.967V115.841L59.5324 109.541H60.4202V111.199H59.8569L57.0043 115.714V115.787H62.4706V116.967H55.5442ZM59.9199 118.77V116.625L59.929 116.111V109.541H61.2494V118.77H59.9199Z" fill="white"/>
<path d="M49.2016 133.597C47.4393 133.597 46.5576 128.31 43.9141 128.31H54.4892C51.8454 128.31 50.9639 133.597 49.2016 133.597Z" fill="#01080F"/>
<path d="M-0.296875 141.595C-0.686241 141.595 -1.00188 141.911 -1.00188 142.3C-1.00188 142.69 -0.686241 143.005 -0.296875 143.005V141.595ZM231.702 80.4988C231.977 80.2234 231.977 79.7771 231.702 79.5017L227.215 75.0151C226.94 74.7398 226.493 74.7398 226.218 75.0151C225.943 75.2904 225.943 75.7368 226.218 76.0121L230.206 80.0002L226.218 83.9884C225.943 84.2637 225.943 84.7101 226.218 84.9854C226.493 85.2607 226.94 85.2607 227.215 84.9854L231.702 80.4988ZM151.462 100.611L151.766 99.9745L151.462 100.611ZM171.082 99.1111L171.479 99.6938L171.082 99.1111ZM123.879 87.4407L123.575 88.0769L123.879 87.4407ZM-0.296875 143.005H29.3143V141.595H-0.296875V143.005ZM29.3143 143.005H56.9018V141.595H29.3143V143.005ZM74.0168 133.744L99.4388 94.8417L98.2584 94.0704L72.8364 132.973L74.0168 133.744ZM205.22 80.7053H231.203V79.2952H205.22V80.7053ZM123.575 88.0769L151.159 101.247L151.766 99.9745L124.182 86.8045L123.575 88.0769ZM171.479 99.6938L194.503 84.0089L193.709 82.8435L170.685 98.5284L171.479 99.6938ZM151.159 101.247C157.726 104.382 165.464 103.791 171.479 99.6938L170.685 98.5284C165.085 102.343 157.88 102.894 151.766 99.9745L151.159 101.247ZM205.22 79.2952C201.113 79.2952 197.102 80.5317 193.709 82.8435L194.503 84.0089C197.662 81.8564 201.397 80.7053 205.22 80.7053V79.2952ZM99.4388 94.8417C104.655 86.8602 114.971 83.9688 123.575 88.0769L124.182 86.8045C114.941 82.3921 103.861 85.4977 98.2584 94.0704L99.4388 94.8417ZM56.9018 143.005C63.8043 143.005 70.2408 139.522 74.0168 133.744L72.8364 132.973C69.3209 138.353 63.3283 141.595 56.9018 141.595V143.005Z" fill="black"/>
<circle cx="48.7594" cy="141.586" r="2.82003" fill="#F2E3F8" stroke="#01080F" stroke-width="1.41002"/>
<path d="M11.772 194.182H12.8374L14.6896 198.705H14.7578L16.6101 194.182H17.6754V200H16.8402V195.79H16.7862L15.0703 199.992H14.3771L12.6612 195.787H12.6072V200H11.772V194.182Z" fill="white"/>
<path d="M46.4851 194.938V194.182H50.9879V194.938H49.1726V200H48.2976V194.938H46.4851Z" fill="white"/>
<path d="M80.9112 200L79.2976 194.182H80.2209L81.3544 198.688H81.4084L82.5874 194.182H83.5021L84.6811 198.691H84.7351L85.8658 194.182H86.7919L85.1754 200H84.2919L83.0675 195.642H83.022L81.7976 200H80.9112Z" fill="white"/>
<path d="M114.485 194.938V194.182H118.988V194.938H117.173V200H116.298V194.938H114.485Z" fill="white"/>
<path d="M147.772 200V194.182H151.38V194.938H148.65V196.71H151.121V197.463H148.65V200H147.772Z" fill="white"/>
<path d="M182.945 195.71C182.915 195.442 182.79 195.233 182.57 195.085C182.351 194.936 182.074 194.861 181.741 194.861C181.502 194.861 181.296 194.899 181.121 194.975C180.947 195.049 180.812 195.151 180.715 195.281C180.621 195.41 180.573 195.557 180.573 195.722C180.573 195.86 180.605 195.979 180.67 196.08C180.736 196.18 180.822 196.264 180.928 196.333C181.036 196.399 181.152 196.455 181.275 196.5C181.398 196.544 181.516 196.58 181.63 196.608L182.198 196.756C182.384 196.801 182.574 196.863 182.769 196.941C182.964 197.018 183.145 197.121 183.312 197.247C183.478 197.374 183.613 197.531 183.715 197.719C183.819 197.906 183.871 198.131 183.871 198.392C183.871 198.722 183.786 199.014 183.616 199.27C183.447 199.526 183.202 199.728 182.88 199.875C182.56 200.023 182.173 200.097 181.718 200.097C181.282 200.097 180.906 200.028 180.587 199.889C180.269 199.751 180.02 199.555 179.84 199.301C179.66 199.046 179.561 198.743 179.542 198.392H180.423C180.44 198.603 180.508 198.778 180.627 198.918C180.748 199.056 180.903 199.159 181.09 199.228C181.28 199.294 181.487 199.327 181.712 199.327C181.96 199.327 182.181 199.288 182.374 199.21C182.569 199.131 182.723 199.021 182.835 198.881C182.946 198.739 183.002 198.573 183.002 198.384C183.002 198.211 182.953 198.07 182.854 197.96C182.758 197.851 182.626 197.76 182.46 197.688C182.295 197.616 182.108 197.552 181.9 197.497L181.212 197.31C180.746 197.183 180.377 196.996 180.104 196.75C179.834 196.504 179.698 196.178 179.698 195.773C179.698 195.438 179.789 195.145 179.971 194.895C180.153 194.645 180.399 194.451 180.71 194.313C181.02 194.173 181.371 194.103 181.761 194.103C182.155 194.103 182.502 194.172 182.803 194.31C183.106 194.448 183.345 194.639 183.519 194.881C183.693 195.121 183.784 195.398 183.792 195.71H182.945Z" fill="white"/>
<path d="M215.945 195.71C215.915 195.442 215.79 195.233 215.57 195.085C215.351 194.936 215.074 194.861 214.741 194.861C214.502 194.861 214.296 194.899 214.121 194.975C213.947 195.049 213.812 195.151 213.715 195.281C213.621 195.41 213.573 195.557 213.573 195.722C213.573 195.86 213.605 195.979 213.67 196.08C213.736 196.18 213.822 196.264 213.928 196.333C214.036 196.399 214.152 196.455 214.275 196.5C214.398 196.544 214.516 196.58 214.63 196.608L215.198 196.756C215.384 196.801 215.574 196.863 215.769 196.941C215.964 197.018 216.145 197.121 216.312 197.247C216.478 197.374 216.613 197.531 216.715 197.719C216.819 197.906 216.871 198.131 216.871 198.392C216.871 198.722 216.786 199.014 216.616 199.27C216.447 199.526 216.202 199.728 215.88 199.875C215.56 200.023 215.173 200.097 214.718 200.097C214.282 200.097 213.906 200.028 213.587 199.889C213.269 199.751 213.02 199.555 212.84 199.301C212.66 199.046 212.561 198.743 212.542 198.392H213.423C213.44 198.603 213.508 198.778 213.627 198.918C213.748 199.056 213.903 199.159 214.09 199.228C214.28 199.294 214.487 199.327 214.712 199.327C214.96 199.327 215.181 199.288 215.374 199.21C215.569 199.131 215.723 199.021 215.835 198.881C215.946 198.739 216.002 198.573 216.002 198.384C216.002 198.211 215.953 198.07 215.854 197.96C215.758 197.851 215.626 197.76 215.46 197.688C215.295 197.616 215.108 197.552 214.9 197.497L214.212 197.31C213.746 197.183 213.377 196.996 213.104 196.75C212.834 196.504 212.698 196.178 212.698 195.773C212.698 195.438 212.789 195.145 212.971 194.895C213.153 194.645 213.399 194.451 213.71 194.313C214.02 194.173 214.371 194.103 214.761 194.103C215.155 194.103 215.502 194.172 215.803 194.31C216.106 194.448 216.345 194.639 216.519 194.881C216.693 195.121 216.784 195.398 216.792 195.71H215.945Z" fill="white"/>
</g>
<defs>
<clipPath id="clip0_77_2628">
<rect y="62.1707" width="231.243" height="152.282" rx="16.9202" fill="white"/>
</clipPath>
</defs>
</svg>
