<svg width="241" height="215" viewBox="0 0 241 215" fill="none" xmlns="http://www.w3.org/2000/svg">
<path d="M4.57925 0.843898V15.2004H1.97853V0.843898H4.57925ZM9.42619 8.89141V15.2004H6.88856V4.43303H9.31403V6.26265H9.44021C9.6879 5.65979 10.0828 5.18077 10.6249 4.8256C11.1717 4.47042 11.847 4.29283 12.6508 4.29283C13.3939 4.29283 14.0411 4.45173 14.5926 4.76951C15.1487 5.0873 15.5787 5.54763 15.8824 6.15049C16.1909 6.75335 16.3428 7.48473 16.3381 8.34463V15.2004H13.8005V8.73719C13.8005 8.0175 13.6135 7.45436 13.2396 7.04777C12.8705 6.64119 12.3587 6.4379 11.7045 6.4379C11.2605 6.4379 10.8656 6.53604 10.5198 6.73232C10.1786 6.92393 9.90988 7.202 9.7136 7.56652C9.522 7.93104 9.42619 8.37267 9.42619 8.89141ZM25.0493 8.17639V10.2654H18.5861V8.17639H25.0493ZM32.0203 15.4107C30.9454 15.4107 30.0224 15.1747 29.2513 14.7027C28.4849 14.2307 27.8937 13.5788 27.4778 12.7469C27.0665 11.9104 26.8609 10.9477 26.8609 9.8588C26.8609 8.76523 27.0712 7.80018 27.4918 6.96365C27.9124 6.12245 28.5059 5.46818 29.2724 5.00085C30.0435 4.52884 30.9548 4.29283 32.0063 4.29283C32.8802 4.29283 33.6536 4.45406 34.3266 4.77652C35.0042 5.09431 35.544 5.54529 35.9459 6.12946C36.3478 6.70896 36.5768 7.38659 36.6329 8.16237H34.2074C34.1093 7.64363 33.8756 7.21134 33.5064 6.86551C33.1419 6.51501 32.6535 6.33976 32.0413 6.33976C31.5226 6.33976 31.0669 6.47996 30.6744 6.76036C30.2818 7.03609 29.9757 7.43333 29.756 7.95207C29.5411 8.47081 29.4336 9.09237 29.4336 9.81674C29.4336 10.5505 29.5411 11.1814 29.756 11.7094C29.971 12.2329 30.2725 12.6371 30.6603 12.9222C31.0529 13.2026 31.5132 13.3428 32.0413 13.3428C32.4152 13.3428 32.7493 13.2727 33.0438 13.1325C33.3428 12.9876 33.5929 12.7796 33.7938 12.5086C33.9948 12.2375 34.1326 11.9081 34.2074 11.5202H36.6329C36.5721 12.2819 36.3478 12.9572 35.9599 13.5461C35.572 14.1302 35.0439 14.5882 34.3757 14.92C33.7074 15.2472 32.9222 15.4107 32.0203 15.4107ZM43.0185 15.4107C41.967 15.4107 41.0557 15.1794 40.2846 14.7167C39.5135 14.2541 38.9153 13.6068 38.4901 12.775C38.0695 11.9431 37.8592 10.9711 37.8592 9.8588C37.8592 8.74654 38.0695 7.77214 38.4901 6.93561C38.9153 6.09908 39.5135 5.44949 40.2846 4.98683C41.0557 4.52416 41.967 4.29283 43.0185 4.29283C44.07 4.29283 44.9813 4.52416 45.7524 4.98683C46.5235 5.44949 47.1194 6.09908 47.54 6.93561C47.9653 7.77214 48.1779 8.74654 48.1779 9.8588C48.1779 10.9711 47.9653 11.9431 47.54 12.775C47.1194 13.6068 46.5235 14.2541 45.7524 14.7167C44.9813 15.1794 44.07 15.4107 43.0185 15.4107ZM43.0326 13.3778C43.6027 13.3778 44.0794 13.2213 44.4626 12.9082C44.8458 12.5904 45.1309 12.1651 45.3178 11.6323C45.5094 11.0996 45.6052 10.5061 45.6052 9.85179C45.6052 9.19284 45.5094 8.59699 45.3178 8.06423C45.1309 7.52679 44.8458 7.09918 44.4626 6.78139C44.0794 6.46361 43.6027 6.30471 43.0326 6.30471C42.4484 6.30471 41.9624 6.46361 41.5745 6.78139C41.1913 7.09918 40.9038 7.52679 40.7122 8.06423C40.5253 8.59699 40.4318 9.19284 40.4318 9.85179C40.4318 10.5061 40.5253 11.0996 40.7122 11.6323C40.9038 12.1651 41.1913 12.5904 41.5745 12.9082C41.9624 13.2213 42.4484 13.3778 43.0326 13.3778ZM49.9369 15.2004V4.43303H52.3624V6.26265H52.4886C52.7129 5.64577 53.0844 5.16441 53.6032 4.81859C54.1219 4.46808 54.7412 4.29283 55.4608 4.29283C56.1899 4.29283 56.8044 4.47042 57.3045 4.8256C57.8092 5.1761 58.1644 5.65512 58.37 6.26265H58.4822C58.7205 5.66446 59.1224 5.18778 59.6879 4.83261C60.258 4.47276 60.9333 4.29283 61.7138 4.29283C62.7045 4.29283 63.513 4.60595 64.1393 5.23218C64.7655 5.85841 65.0786 6.77205 65.0786 7.9731V15.2004H62.534V8.36566C62.534 7.69737 62.3564 7.20901 62.0012 6.90056C61.646 6.58745 61.2114 6.43089 60.6973 6.43089C60.0851 6.43089 59.6061 6.6225 59.2603 7.00571C58.9191 7.38426 58.7486 7.87729 58.7486 8.48483V15.2004H56.26V8.26051C56.26 7.70438 56.0918 7.26041 55.7553 6.9286C55.4235 6.5968 54.9888 6.43089 54.4514 6.43089C54.0869 6.43089 53.7551 6.52436 53.456 6.71129C53.1569 6.89355 52.9185 7.15293 52.741 7.48941C52.5634 7.82121 52.4746 8.2091 52.4746 8.65307V15.2004H49.9369ZM67.2582 15.2004V4.43303H69.7959V15.2004H67.2582ZM68.5341 2.90485C68.1322 2.90485 67.7863 2.77166 67.4966 2.50528C67.2068 2.23422 67.062 1.90942 67.062 1.53088C67.062 1.14767 67.2068 0.822868 67.4966 0.556486C67.7863 0.285432 68.1322 0.149905 68.5341 0.149905C68.9406 0.149905 69.2865 0.285432 69.5715 0.556486C69.8613 0.822868 70.0062 1.14767 70.0062 1.53088C70.0062 1.90942 69.8613 2.23422 69.5715 2.50528C69.2865 2.77166 68.9406 2.90485 68.5341 2.90485ZM74.5482 8.89141V15.2004H72.0105V4.43303H74.436V6.26265H74.5622C74.8099 5.65979 75.2048 5.18077 75.7469 4.8256C76.2937 4.47042 76.969 4.29283 77.7728 4.29283C78.5159 4.29283 79.1631 4.45173 79.7146 4.76951C80.2707 5.0873 80.7006 5.54763 81.0044 6.15049C81.3129 6.75335 81.4647 7.48473 81.4601 8.34463V15.2004H78.9224V8.73719C78.9224 8.0175 78.7355 7.45436 78.3616 7.04777C77.9924 6.64119 77.4807 6.4379 76.8264 6.4379C76.3825 6.4379 75.9876 6.53604 75.6417 6.73232C75.3006 6.92393 75.0319 7.202 74.8356 7.56652C74.644 7.93104 74.5482 8.37267 74.5482 8.89141ZM88.3277 19.4625C87.4163 19.4625 86.6336 19.3387 85.9793 19.091C85.325 18.848 84.7993 18.5209 84.402 18.1096C84.0048 17.6983 83.7291 17.2427 83.5749 16.7426L85.8601 16.1889C85.9629 16.3992 86.1125 16.6071 86.3088 16.8127C86.505 17.023 86.7691 17.196 87.1009 17.3315C87.4374 17.4717 87.8603 17.5418 88.3697 17.5418C89.0894 17.5418 89.6853 17.3665 90.1573 17.016C90.6293 16.6702 90.8653 16.1001 90.8653 15.3056V13.2657H90.7391C90.6082 13.5274 90.4166 13.7961 90.1643 14.0718C89.9166 14.3476 89.5871 14.5789 89.1759 14.7658C88.7693 14.9528 88.2576 15.0462 87.6407 15.0462C86.8135 15.0462 86.0634 14.8523 85.3905 14.4644C84.7222 14.0718 84.1894 13.4877 83.7922 12.7119C83.3996 11.9314 83.2033 10.9547 83.2033 9.78169C83.2033 8.59933 83.3996 7.60157 83.7922 6.7884C84.1894 5.97057 84.7245 5.35135 85.3975 4.93075C86.0704 4.50547 86.8205 4.29283 87.6477 4.29283C88.2786 4.29283 88.7973 4.40032 89.2039 4.61529C89.6152 4.82559 89.9423 5.08029 90.1853 5.37939C90.4283 5.67381 90.6129 5.95187 90.7391 6.21358H90.8793V4.43303H93.3819V15.3757C93.3819 16.2963 93.1622 17.0581 92.7229 17.661C92.2836 18.2638 91.6831 18.7148 90.9214 19.0139C90.1596 19.313 89.295 19.4625 88.3277 19.4625ZM88.3487 13.0554C88.8861 13.0554 89.3441 12.9245 89.7226 12.6628C90.1012 12.4011 90.3886 12.0249 90.5849 11.5342C90.7812 11.0435 90.8793 10.4546 90.8793 9.76767C90.8793 9.09003 90.7812 8.49651 90.5849 7.98712C90.3933 7.47772 90.1082 7.08282 89.7297 6.80242C89.3558 6.51735 88.8955 6.37481 88.3487 6.37481C87.7832 6.37481 87.3112 6.52202 86.9327 6.81644C86.5541 7.11086 86.269 7.51511 86.0774 8.02918C85.8858 8.53857 85.79 9.11807 85.79 9.76767C85.79 10.4266 85.8858 11.0038 86.0774 11.4991C86.2737 11.9898 86.5611 12.3731 86.9397 12.6488C87.3229 12.9198 87.7926 13.0554 88.3487 13.0554ZM1.34762 26.024V23.8439H12.802V26.024H8.36466V38.2004H5.78497V26.024H1.34762ZM13.3851 38.2004V27.433H15.8456V29.2276H15.9578C16.1541 28.606 16.4905 28.127 16.9672 27.7905C17.4486 27.4494 17.9977 27.2788 18.6146 27.2788C18.7548 27.2788 18.9113 27.2858 19.0843 27.2998C19.2618 27.3092 19.4091 27.3255 19.5259 27.3489V29.6833C19.4184 29.6459 19.2478 29.6132 19.0142 29.5851C18.7852 29.5524 18.5632 29.536 18.3482 29.536C17.8855 29.536 17.4696 29.6365 17.1004 29.8375C16.7359 30.0338 16.4485 30.3071 16.2382 30.6576C16.0279 31.0081 15.9227 31.4124 15.9227 31.8704V38.2004H13.3851ZM23.7227 38.4178C23.0403 38.4178 22.4258 38.2962 21.879 38.0532C21.3369 37.8055 20.907 37.441 20.5892 36.9597C20.2761 36.4783 20.1195 35.8848 20.1195 35.1791C20.1195 34.5716 20.2317 34.0692 20.456 33.672C20.6803 33.2747 20.9864 32.9569 21.3743 32.7186C21.7622 32.4803 22.1991 32.3003 22.6852 32.1788C23.1759 32.0526 23.6829 31.9615 24.2063 31.9054C24.8373 31.84 25.349 31.7816 25.7415 31.7302C26.1341 31.6741 26.4192 31.59 26.5968 31.4778C26.779 31.361 26.8702 31.1811 26.8702 30.938V30.896C26.8702 30.3679 26.7136 29.959 26.4005 29.6692C26.0874 29.3795 25.6364 29.2346 25.0476 29.2346C24.426 29.2346 23.933 29.3701 23.5684 29.6412C23.2086 29.9122 22.9656 30.2324 22.8394 30.6016L20.47 30.2651C20.6569 29.6108 20.9654 29.064 21.3953 28.6247C21.8253 28.1808 22.351 27.849 22.9726 27.6293C23.5941 27.405 24.2811 27.2928 25.0335 27.2928C25.5523 27.2928 26.0687 27.3536 26.5827 27.4751C27.0968 27.5966 27.5665 27.7976 27.9918 28.078C28.417 28.3537 28.7582 28.7299 29.0152 29.2066C29.2769 29.6833 29.4078 30.2791 29.4078 30.9941V38.2004H26.9683V36.7213H26.8842C26.73 37.0204 26.5126 37.3008 26.2322 37.5625C25.9565 37.8196 25.6084 38.0275 25.1878 38.1864C24.7718 38.3406 24.2835 38.4178 23.7227 38.4178ZM24.3816 36.5531C24.891 36.5531 25.3326 36.4526 25.7065 36.2517C26.0804 36.046 26.3678 35.775 26.5687 35.4385C26.7744 35.102 26.8772 34.7351 26.8772 34.3379V33.0691C26.7977 33.1345 26.6622 33.1953 26.4706 33.2514C26.2837 33.3074 26.0734 33.3565 25.8397 33.3986C25.606 33.4406 25.3747 33.478 25.1457 33.5107C24.9167 33.5434 24.7181 33.5715 24.5498 33.5948C24.1713 33.6463 23.8325 33.7304 23.5334 33.8472C23.2343 33.964 22.9983 34.1276 22.8254 34.3379C22.6525 34.5435 22.566 34.8099 22.566 35.1371C22.566 35.6044 22.7366 35.9572 23.0777 36.1956C23.4189 36.4339 23.8535 36.5531 24.3816 36.5531ZM37.0184 27.433V29.3958H30.6533V27.433H37.0184ZM32.2446 38.2004V26.4166C32.2446 25.6922 32.3942 25.0893 32.6933 24.608C32.997 24.1266 33.4036 23.7668 33.913 23.5284C34.4224 23.2901 34.9879 23.1709 35.6094 23.1709C36.0487 23.1709 36.4389 23.206 36.7801 23.2761C37.1213 23.3462 37.3736 23.4093 37.5372 23.4654L37.0325 25.4282C36.925 25.3955 36.7894 25.3627 36.6259 25.33C36.4623 25.2926 36.2801 25.2739 36.0791 25.2739C35.6071 25.2739 35.2729 25.3884 35.0767 25.6174C34.8851 25.8418 34.7893 26.1642 34.7893 26.5848V38.2004H32.2446ZM44.0648 27.433V29.3958H37.6997V27.433H44.0648ZM39.291 38.2004V26.4166C39.291 25.6922 39.4405 25.0893 39.7396 24.608C40.0434 24.1266 40.4499 23.7668 40.9593 23.5284C41.4687 23.2901 42.0342 23.1709 42.6558 23.1709C43.0951 23.1709 43.4853 23.206 43.8264 23.2761C44.1676 23.3462 44.42 23.4093 44.5835 23.4654L44.0788 25.4282C43.9713 25.3955 43.8358 25.3627 43.6722 25.33C43.5087 25.2926 43.3264 25.2739 43.1254 25.2739C42.6534 25.2739 42.3193 25.3884 42.123 25.6174C41.9314 25.8418 41.8356 26.1642 41.8356 26.5848V38.2004H39.291ZM45.6573 38.2004V27.433H48.195V38.2004H45.6573ZM46.9331 25.9048C46.5312 25.9048 46.1854 25.7717 45.8957 25.5053C45.6059 25.2342 45.461 24.9094 45.461 24.5309C45.461 24.1477 45.6059 23.8229 45.8957 23.5565C46.1854 23.2854 46.5312 23.1499 46.9331 23.1499C47.3397 23.1499 47.6856 23.2854 47.9706 23.5565C48.2604 23.8229 48.4053 24.1477 48.4053 24.5309C48.4053 24.9094 48.2604 25.2342 47.9706 25.5053C47.6856 25.7717 47.3397 25.9048 46.9331 25.9048ZM55.1064 38.4107C54.0315 38.4107 53.1085 38.1747 52.3374 37.7027C51.571 37.2307 50.9798 36.5788 50.5639 35.7469C50.1526 34.9104 49.947 33.9477 49.947 32.8588C49.947 31.7652 50.1573 30.8002 50.5779 29.9637C50.9985 29.1225 51.592 28.4682 52.3584 28.0008C53.1295 27.5288 54.0408 27.2928 55.0923 27.2928C55.9662 27.2928 56.7397 27.4541 57.4127 27.7765C58.0903 28.0943 58.6301 28.5453 59.032 29.1295C59.4339 29.709 59.6629 30.3866 59.719 31.1624H57.2935C57.1953 30.6436 56.9617 30.2113 56.5925 29.8655C56.228 29.515 55.7396 29.3398 55.1274 29.3398C54.6086 29.3398 54.153 29.48 53.7604 29.7604C53.3679 30.0361 53.0618 30.4333 52.8421 30.9521C52.6271 31.4708 52.5197 32.0924 52.5197 32.8167C52.5197 33.5505 52.6271 34.1814 52.8421 34.7094C53.0571 35.2329 53.3585 35.6371 53.7464 35.9222C54.139 36.2026 54.5993 36.3428 55.1274 36.3428C55.5013 36.3428 55.8354 36.2727 56.1298 36.1325C56.4289 35.9876 56.6789 35.7796 56.8799 35.5086C57.0808 35.2375 57.2187 34.9081 57.2935 34.5202H59.719C59.6582 35.2819 59.4339 35.9572 59.046 36.5461C58.6581 37.1302 58.13 37.5882 57.4617 37.92C56.7934 38.2472 56.0083 38.4107 55.1064 38.4107Z" fill="black"/>
<rect x="0.5625" y="214.453" width="111.391" height="51.4805" rx="5.64007" transform="rotate(-90 0.5625 214.453)" fill="#BC75DB"/>
<path d="M32.3047 195.017V199L19.9991 199V194.89C19.9991 193.685 20.2454 192.649 20.7381 191.784C21.2268 190.919 21.9298 190.256 22.8472 189.795C23.7605 189.331 24.856 189.098 26.1339 189.098C27.4157 189.098 28.5173 189.333 29.4386 189.801C30.3599 190.266 31.0689 190.939 31.5656 191.82C32.0583 192.701 32.3047 193.767 32.3047 195.017ZM30.6824 197.144V195.119C30.6824 194.181 30.5061 193.402 30.1536 192.781C29.7971 192.161 29.2824 191.696 28.6094 191.387C27.9324 191.079 27.1073 190.925 26.1339 190.925C25.1685 190.925 24.3493 191.079 23.6763 191.387C23.0034 191.692 22.4926 192.147 22.1441 192.751C21.7957 193.356 21.6214 194.107 21.6214 195.005V197.144H30.6824ZM32.491 183.294C32.491 184.204 32.2967 184.987 31.9081 185.644C31.5156 186.297 30.9648 186.801 30.2558 187.158C29.5427 187.51 28.7075 187.687 27.7502 187.687C26.8048 187.687 25.9716 187.51 25.2506 187.158C24.5296 186.801 23.9668 186.305 23.5622 185.668C23.1576 185.027 22.9553 184.278 22.9553 183.42C22.9553 182.9 23.0414 182.395 23.2137 181.906C23.3859 181.418 23.6563 180.979 24.0248 180.59C24.3934 180.202 24.8721 179.895 25.4609 179.671C26.0457 179.447 26.7567 179.335 27.5939 179.335H28.2309V186.671H26.8849V181.095C26.4123 181.095 25.9937 181.191 25.6291 181.384C25.2606 181.576 24.9702 181.846 24.7579 182.195C24.5456 182.539 24.4394 182.944 24.4394 183.408C24.4394 183.913 24.5636 184.354 24.812 184.73C25.0563 185.103 25.3768 185.391 25.7733 185.596C26.1659 185.796 26.5925 185.896 27.0532 185.896H28.1047C28.7216 185.896 29.2463 185.788 29.6789 185.572C30.1115 185.351 30.442 185.045 30.6703 184.652C30.8947 184.26 31.0068 183.801 31.0068 183.276C31.0068 182.936 30.9588 182.625 30.8626 182.345C30.7625 182.065 30.6143 181.822 30.418 181.618C30.2217 181.414 29.9794 181.257 29.6909 181.149L29.9974 179.449C30.4981 179.585 30.9367 179.829 31.3133 180.182C31.6858 180.53 31.9762 180.969 32.1845 181.498C32.3888 182.022 32.491 182.621 32.491 183.294ZM26.8248 175.883H32.3047V177.68H23.0755L23.0755 175.955H24.5776V175.841C24.0889 175.629 23.6964 175.296 23.3999 174.844C23.1035 174.387 22.9553 173.812 22.9553 173.119C22.9553 172.49 23.0875 171.939 23.3519 171.467C23.6123 170.994 24.0008 170.628 24.5175 170.367C25.0343 170.107 25.6732 169.977 26.4343 169.977H32.3047V171.773H26.6506C25.9816 171.773 25.4589 171.947 25.0824 172.296C24.7018 172.644 24.5115 173.123 24.5115 173.732C24.5115 174.149 24.6017 174.519 24.7819 174.844C24.9622 175.164 25.2266 175.418 25.5751 175.607C25.9196 175.791 26.3361 175.883 26.8248 175.883ZM32.3047 167.906H23.0755V166.181H24.5776V166.067C24.0689 165.875 23.6723 165.56 23.3879 165.124C23.0995 164.687 22.9553 164.164 22.9553 163.555C22.9553 162.939 23.0995 162.422 23.3879 162.005C23.6763 161.585 24.0729 161.274 24.5776 161.074V160.978C24.0849 160.757 23.6924 160.407 23.3999 159.926C23.1035 159.446 22.9553 158.873 22.9553 158.208C22.9553 157.371 23.2177 156.688 23.7424 156.159C24.2672 155.626 25.0583 155.36 26.1158 155.36H32.3047L32.3047 157.156H26.2841C25.6592 157.156 25.2065 157.326 24.9261 157.667C24.6457 158.007 24.5055 158.414 24.5055 158.887C24.5055 159.472 24.6858 159.926 25.0463 160.251C25.4028 160.575 25.8615 160.737 26.4223 160.737H32.3047V162.528H26.1699C25.6692 162.528 25.2666 162.684 24.9622 162.997C24.6577 163.309 24.5055 163.716 24.5055 164.216C24.5055 164.557 24.5957 164.871 24.7759 165.16C24.9522 165.444 25.1985 165.674 25.515 165.851C25.8314 166.023 26.1979 166.109 26.6145 166.109H32.3047V167.906ZM32.509 150.604C32.509 151.189 32.4008 151.718 32.1845 152.191C31.9642 152.663 31.6457 153.038 31.2291 153.314C30.8126 153.587 30.3018 153.723 29.697 153.723C29.1762 153.723 28.7476 153.623 28.4111 153.422C28.0746 153.222 27.8083 152.952 27.612 152.611C27.4157 152.271 27.2675 151.89 27.1673 151.47C27.0672 151.049 26.9911 150.62 26.939 150.184C26.8749 149.631 26.8228 149.182 26.7828 148.838C26.7387 148.493 26.6686 148.243 26.5725 148.087C26.4763 147.93 26.3201 147.852 26.1038 147.852H26.0618C25.537 147.852 25.1304 148.001 24.842 148.297C24.5536 148.589 24.4094 149.026 24.4094 149.607C24.4094 150.212 24.5436 150.688 24.812 151.037C25.0763 151.381 25.3708 151.62 25.6952 151.752L25.3107 153.44C24.7499 153.24 24.2972 152.948 23.9527 152.563C23.6042 152.175 23.3519 151.728 23.1957 151.223C23.0354 150.718 22.9553 150.188 22.9553 149.631C22.9553 149.262 22.9994 148.872 23.0875 148.459C23.1716 148.043 23.3278 147.654 23.5562 147.294C23.7845 146.929 24.111 146.631 24.5356 146.398C24.9562 146.166 25.503 146.05 26.1759 146.05H32.3047V147.804H31.0429V147.876C31.2752 147.993 31.5035 148.167 31.7279 148.399C31.9522 148.631 32.1384 148.93 32.2867 149.294C32.4349 149.659 32.509 150.096 32.509 150.604ZM31.0669 150.214C31.0669 149.717 30.9688 149.292 30.7725 148.94C30.5762 148.583 30.3198 148.313 30.0034 148.129C29.6829 147.94 29.3404 147.846 28.9759 147.846H27.7862C27.8503 147.91 27.9104 148.035 27.9665 148.219C28.0186 148.399 28.0646 148.605 28.1047 148.838C28.1407 149.07 28.1748 149.296 28.2068 149.517C28.2349 149.737 28.2589 149.921 28.2789 150.07C28.323 150.418 28.3971 150.736 28.5012 151.025C28.6054 151.309 28.7556 151.538 28.9519 151.71C29.1442 151.878 29.4005 151.962 29.721 151.962C30.1656 151.962 30.5021 151.798 30.7304 151.47C30.9548 151.141 31.0669 150.722 31.0669 150.214ZM32.3047 143.995H23.0755V142.259H24.5416V142.163C24.0449 141.994 23.6543 141.698 23.3699 141.273C23.0815 140.845 22.9373 140.36 22.9373 139.819C22.9373 139.707 22.9413 139.575 22.9493 139.423C22.9573 139.266 22.9673 139.144 22.9793 139.056H24.6978C24.6778 139.128 24.6557 139.256 24.6317 139.441C24.6037 139.625 24.5896 139.809 24.5896 139.994C24.5896 140.418 24.6798 140.797 24.86 141.129C25.0363 141.458 25.2826 141.718 25.5991 141.91C25.9115 142.103 26.268 142.199 26.6686 142.199H32.3047V143.995ZM29.1742 136.188L26.9811 136.2V135.887L23.0755 132.21V130.059L27.5218 134.253V134.535L29.1742 136.188ZM32.3047 137.84H19.9991V136.043H32.3047V137.84ZM32.3047 132.012L27.9184 135.316L26.6626 134.078L32.3047 129.806V132.012Z" fill="white"/>
<rect x="63.3203" y="214.453" width="152.282" height="51.4805" rx="5.64007" transform="rotate(-90 63.3203 214.453)" fill="#01080F"/>
<path d="M82.7569 191.087V189.224H90.8505C91.7117 189.224 92.4748 189.427 93.1397 189.831C93.8007 190.236 94.3214 190.805 94.702 191.538C95.0785 192.271 95.2668 193.13 95.2668 194.115C95.2668 195.097 95.0785 195.954 94.702 196.687C94.3214 197.42 93.8007 197.989 93.1397 198.393C92.4748 198.798 91.7117 199 90.8505 199L82.7569 199V197.144H90.7003C91.2571 197.144 91.7518 197.022 92.1844 196.777C92.617 196.529 92.9575 196.178 93.2058 195.726C93.4502 195.273 93.5724 194.736 93.5724 194.115C93.5724 193.49 93.4502 192.952 93.2058 192.499C92.9575 192.042 92.617 191.694 92.1844 191.454C91.7518 191.209 91.2571 191.087 90.7003 191.087H82.7569ZM95.0625 186.863L82.7569 186.863V185.007H88.6333V184.857L82.7569 179.695V177.358L88.2968 182.321L95.0625 177.34V179.575L89.5646 183.553L91.235 185.007H95.0625V186.863Z" fill="white"/>
<rect x="126.086" y="214.453" width="105.751" height="51.4805" rx="5.64007" transform="rotate(-90 126.086 214.453)" fill="#BC75DB"/>
<path d="M148.755 192.289C148.186 192.353 147.746 192.617 147.433 193.082C147.117 193.547 146.959 194.131 146.959 194.836C146.959 195.341 147.039 195.778 147.199 196.146C147.355 196.515 147.571 196.801 147.848 197.006C148.12 197.206 148.431 197.306 148.779 197.306C149.072 197.306 149.324 197.238 149.536 197.102C149.749 196.961 149.927 196.779 150.071 196.555C150.211 196.327 150.329 196.082 150.426 195.822C150.518 195.561 150.594 195.311 150.654 195.071L150.966 193.869C151.062 193.476 151.193 193.074 151.357 192.661C151.521 192.249 151.737 191.866 152.006 191.514C152.274 191.161 152.607 190.877 153.003 190.66C153.4 190.44 153.874 190.33 154.427 190.33C155.124 190.33 155.743 190.51 156.284 190.871C156.825 191.227 157.251 191.746 157.564 192.427C157.876 193.104 158.032 193.923 158.032 194.884C158.032 195.806 157.886 196.603 157.594 197.276C157.301 197.949 156.887 198.476 156.35 198.856C155.809 199.237 155.168 199.447 154.427 199.487V197.624C154.872 197.588 155.242 197.444 155.539 197.192C155.831 196.935 156.05 196.609 156.194 196.212C156.334 195.812 156.404 195.373 156.404 194.896C156.404 194.372 156.322 193.905 156.158 193.496C155.989 193.084 155.757 192.759 155.461 192.523C155.16 192.287 154.81 192.169 154.409 192.169C154.045 192.169 153.746 192.273 153.514 192.481C153.282 192.685 153.089 192.964 152.937 193.316C152.785 193.665 152.651 194.059 152.535 194.5L152.138 195.954C151.87 196.939 151.475 197.721 150.954 198.297C150.434 198.87 149.745 199.157 148.887 199.157C148.178 199.157 147.559 198.964 147.031 198.58C146.502 198.195 146.091 197.674 145.799 197.018C145.502 196.361 145.354 195.62 145.354 194.794C145.354 193.961 145.5 193.226 145.793 192.589C146.085 191.948 146.488 191.444 147.001 191.075C147.509 190.706 148.094 190.514 148.755 190.498V192.289ZM157.828 186.593L148.599 189.309V187.452L155.377 185.644V185.554L148.599 183.739V181.882L155.347 180.08V179.99L148.599 178.193V176.336L157.828 179.046V180.879L151.165 182.754V182.892L157.828 184.766V186.593ZM158.014 171.273C158.014 172.182 157.82 172.965 157.432 173.622C157.039 174.275 156.488 174.78 155.779 175.137C155.066 175.489 154.231 175.665 153.274 175.665C152.328 175.665 151.495 175.489 150.774 175.137C150.053 174.78 149.49 174.283 149.086 173.646C148.681 173.006 148.479 172.256 148.479 171.399C148.479 170.878 148.565 170.374 148.737 169.885C148.909 169.396 149.18 168.958 149.548 168.569C149.917 168.181 150.395 167.874 150.984 167.65C151.569 167.426 152.28 167.313 153.117 167.313H153.754V174.65H152.408V169.074C151.936 169.074 151.517 169.17 151.153 169.362C150.784 169.555 150.494 169.825 150.281 170.173C150.069 170.518 149.963 170.923 149.963 171.387C149.963 171.892 150.087 172.333 150.335 172.709C150.58 173.082 150.9 173.37 151.297 173.574C151.689 173.775 152.116 173.875 152.577 173.875H153.628C154.245 173.875 154.77 173.767 155.202 173.55C155.635 173.33 155.965 173.024 156.194 172.631C156.418 172.238 156.53 171.78 156.53 171.255C156.53 170.915 156.482 170.604 156.386 170.324C156.286 170.043 156.138 169.801 155.941 169.597C155.745 169.392 155.503 169.236 155.214 169.128L155.521 167.428C156.022 167.564 156.46 167.808 156.837 168.161C157.209 168.509 157.5 168.948 157.708 169.476C157.912 170.001 158.014 170.6 158.014 171.273ZM158.008 162.203C158.008 162.949 157.818 163.613 157.438 164.198C157.053 164.779 156.506 165.236 155.797 165.568C155.084 165.897 154.229 166.061 153.232 166.061C152.234 166.061 151.381 165.895 150.672 165.562C149.963 165.226 149.42 164.765 149.044 164.18C148.667 163.595 148.479 162.933 148.479 162.191C148.479 161.619 148.575 161.158 148.767 160.809C148.955 160.457 149.176 160.185 149.428 159.992C149.68 159.796 149.903 159.644 150.095 159.536V159.427H145.523V157.631H157.828V159.385H156.392V159.536C156.588 159.644 156.813 159.8 157.065 160.004C157.317 160.205 157.538 160.481 157.726 160.834C157.914 161.186 158.008 161.643 158.008 162.203ZM156.476 161.807C156.476 161.29 156.34 160.854 156.068 160.497C155.791 160.137 155.409 159.864 154.92 159.68C154.431 159.492 153.862 159.397 153.214 159.397C152.573 159.397 152.012 159.49 151.531 159.674C151.05 159.858 150.676 160.129 150.408 160.485C150.139 160.842 150.005 161.282 150.005 161.807C150.005 162.348 150.145 162.798 150.426 163.159C150.706 163.519 151.088 163.792 151.573 163.976C152.058 164.156 152.605 164.246 153.214 164.246C153.83 164.246 154.385 164.154 154.878 163.97C155.371 163.786 155.761 163.513 156.05 163.153C156.334 162.788 156.476 162.34 156.476 161.807ZM158.014 151.427C158.014 152.337 157.82 153.12 157.432 153.777C157.039 154.43 156.488 154.934 155.779 155.291C155.066 155.644 154.231 155.82 153.274 155.82C152.328 155.82 151.495 155.644 150.774 155.291C150.053 154.934 149.49 154.438 149.086 153.801C148.681 153.16 148.479 152.411 148.479 151.554C148.479 151.033 148.565 150.528 148.737 150.039C148.909 149.551 149.18 149.112 149.548 148.724C149.917 148.335 150.395 148.029 150.984 147.804C151.569 147.58 152.28 147.468 153.117 147.468H153.754V154.804H152.408V149.228C151.936 149.228 151.517 149.324 151.153 149.517C150.784 149.709 150.494 149.979 150.281 150.328C150.069 150.672 149.963 151.077 149.963 151.542C149.963 152.046 150.087 152.487 150.335 152.864C150.58 153.236 150.9 153.524 151.297 153.729C151.689 153.929 152.116 154.029 152.577 154.029H153.628C154.245 154.029 154.77 153.921 155.202 153.705C155.635 153.484 155.965 153.178 156.194 152.785C156.418 152.393 156.53 151.934 156.53 151.409C156.53 151.069 156.482 150.759 156.386 150.478C156.286 150.198 156.138 149.955 155.941 149.751C155.745 149.547 155.503 149.391 155.214 149.282L155.521 147.582C156.022 147.718 156.46 147.963 156.837 148.315C157.209 148.664 157.5 149.102 157.708 149.631C157.912 150.156 158.014 150.755 158.014 151.427ZM152.348 144.016H157.828V145.813H148.599V144.088H150.101V143.974C149.612 143.762 149.22 143.429 148.923 142.977C148.627 142.52 148.479 141.945 148.479 141.252C148.479 140.623 148.611 140.073 148.875 139.6C149.136 139.127 149.524 138.761 150.041 138.5C150.558 138.24 151.197 138.11 151.958 138.11H157.828V139.906H152.174C151.505 139.906 150.982 140.081 150.606 140.429C150.225 140.778 150.035 141.256 150.035 141.865C150.035 142.282 150.125 142.652 150.305 142.977C150.486 143.297 150.75 143.552 151.098 143.74C151.443 143.924 151.86 144.016 152.348 144.016Z" fill="white"/>
<rect x="188.844" y="214.453" width="129.722" height="51.4805" rx="5.64007" transform="rotate(-90 188.844 214.453)" fill="#BC75DB"/>
<path d="M220.586 199L208.28 199V191.369H209.879V197.144H213.628V191.916H215.22V197.144H220.586V199ZM220.586 189.569H211.357V187.772H220.586V189.569ZM209.933 188.661C209.933 188.974 209.829 189.242 209.62 189.467C209.408 189.687 209.156 189.797 208.863 189.797C208.567 189.797 208.314 189.687 208.106 189.467C207.894 189.242 207.788 188.974 207.788 188.661C207.788 188.349 207.894 188.083 208.106 187.862C208.314 187.638 208.567 187.526 208.863 187.526C209.156 187.526 209.408 187.638 209.62 187.862C209.829 188.083 209.933 188.349 209.933 188.661ZM215.106 183.897H220.586V185.694H211.357V183.969H212.859V183.855C212.37 183.643 211.978 183.31 211.681 182.858C211.385 182.401 211.237 181.826 211.237 181.133C211.237 180.504 211.369 179.953 211.633 179.481C211.894 179.008 212.282 178.642 212.799 178.381C213.316 178.121 213.954 177.991 214.716 177.991H220.586V179.787H214.932C214.263 179.787 213.74 179.961 213.364 180.31C212.983 180.658 212.793 181.137 212.793 181.746C212.793 182.163 212.883 182.533 213.063 182.858C213.243 183.178 213.508 183.432 213.856 183.621C214.201 183.805 214.617 183.897 215.106 183.897ZM208.28 174.123H220.586V175.92H208.28V174.123ZM220.79 169.359C220.79 169.943 220.682 170.472 220.466 170.945C220.245 171.418 219.927 171.792 219.51 172.069C219.094 172.341 218.583 172.477 217.978 172.477C217.457 172.477 217.029 172.377 216.692 172.177C216.356 171.976 216.09 171.706 215.893 171.366C215.697 171.025 215.549 170.644 215.449 170.224C215.348 169.803 215.272 169.375 215.22 168.938C215.156 168.385 215.104 167.937 215.064 167.592C215.02 167.248 214.95 166.997 214.854 166.841C214.758 166.685 214.601 166.607 214.385 166.607H214.343C213.818 166.607 213.412 166.755 213.123 167.051C212.835 167.344 212.691 167.78 212.691 168.361C212.691 168.966 212.825 169.443 213.093 169.791C213.358 170.136 213.652 170.374 213.976 170.506L213.592 172.195C213.031 171.994 212.578 171.702 212.234 171.317C211.885 170.929 211.633 170.482 211.477 169.978C211.317 169.473 211.237 168.942 211.237 168.385C211.237 168.017 211.281 167.626 211.369 167.214C211.453 166.797 211.609 166.408 211.837 166.048C212.066 165.683 212.392 165.385 212.817 165.153C213.237 164.92 213.784 164.804 214.457 164.804H220.586V166.559H219.324V166.631C219.556 166.747 219.785 166.921 220.009 167.153C220.233 167.386 220.42 167.684 220.568 168.049C220.716 168.413 220.79 168.85 220.79 169.359ZM219.348 168.968C219.348 168.471 219.25 168.047 219.054 167.694C218.857 167.338 218.601 167.067 218.285 166.883C217.964 166.695 217.622 166.601 217.257 166.601H216.067C216.132 166.665 216.192 166.789 216.248 166.973C216.3 167.153 216.346 167.36 216.386 167.592C216.422 167.824 216.456 168.051 216.488 168.271C216.516 168.491 216.54 168.676 216.56 168.824C216.604 169.172 216.678 169.491 216.782 169.779C216.887 170.064 217.037 170.292 217.233 170.464C217.425 170.632 217.682 170.717 218.002 170.717C218.447 170.717 218.783 170.552 219.012 170.224C219.236 169.895 219.348 169.477 219.348 168.968ZM215.106 160.953H220.586V162.75H211.357V161.025H212.859V160.911C212.37 160.699 211.978 160.366 211.681 159.914C211.385 159.457 211.237 158.882 211.237 158.189C211.237 157.56 211.369 157.009 211.633 156.537C211.894 156.064 212.282 155.698 212.799 155.437C213.316 155.177 213.954 155.047 214.716 155.047H220.586V156.843H214.932C214.263 156.843 213.74 157.017 213.364 157.366C212.983 157.714 212.793 158.193 212.793 158.802C212.793 159.219 212.883 159.589 213.063 159.914C213.243 160.234 213.508 160.488 213.856 160.677C214.201 160.861 214.617 160.953 215.106 160.953ZM220.766 149.521C220.766 150.266 220.576 150.931 220.195 151.515C219.811 152.096 219.264 152.553 218.555 152.885C217.842 153.214 216.987 153.378 215.989 153.378C214.992 153.378 214.139 153.212 213.43 152.879C212.721 152.543 212.178 152.082 211.801 151.497C211.425 150.913 211.237 150.25 211.237 149.509C211.237 148.936 211.333 148.475 211.525 148.127C211.713 147.774 211.934 147.502 212.186 147.309C212.438 147.113 212.661 146.961 212.853 146.853V146.745H208.28V144.948H220.586V146.703H219.15V146.853C219.346 146.961 219.57 147.117 219.823 147.321C220.075 147.522 220.296 147.798 220.484 148.151C220.672 148.503 220.766 148.96 220.766 149.521ZM219.234 149.124C219.234 148.607 219.098 148.171 218.825 147.814C218.549 147.454 218.166 147.181 217.678 146.997C217.189 146.809 216.62 146.715 215.971 146.715C215.33 146.715 214.77 146.807 214.289 146.991C213.808 147.175 213.434 147.446 213.165 147.802C212.897 148.159 212.763 148.599 212.763 149.124C212.763 149.665 212.903 150.115 213.183 150.476C213.464 150.836 213.846 151.109 214.331 151.293C214.816 151.473 215.362 151.564 215.971 151.564C216.588 151.564 217.143 151.471 217.636 151.287C218.128 151.103 218.519 150.83 218.807 150.47C219.092 150.105 219.234 149.657 219.234 149.124Z" fill="white"/>
</svg>
