<svg width="232" height="215" viewBox="0 0 232 215" fill="none" xmlns="http://www.w3.org/2000/svg">
<path d="M2.04884 15.2004V0.843898H7.43254C8.53545 0.843898 9.46078 1.04953 10.2085 1.46078C10.9609 1.87204 11.5287 2.43751 11.912 3.15721C12.2998 3.87223 12.4938 4.68539 12.4938 5.5967C12.4938 6.51735 12.2998 7.33519 11.912 8.05021C11.5241 8.76523 10.9516 9.32837 10.1945 9.73963C9.43741 10.1462 8.50508 10.3495 7.39749 10.3495H3.82939V8.21144H7.04699C7.69191 8.21144 8.22 8.09928 8.63126 7.87496C9.04251 7.65064 9.34628 7.3422 9.54256 6.94963C9.74351 6.55707 9.84399 6.10609 9.84399 5.5967C9.84399 5.0873 9.74351 4.63866 9.54256 4.25077C9.34628 3.86288 9.04018 3.56145 8.62425 3.34648C8.21299 3.12683 7.68257 3.01701 7.03297 3.01701H4.64956V15.2004H2.04884ZM14.2458 15.2004V4.43303H16.7063V6.2276H16.8185C17.0148 5.60605 17.3512 5.12703 17.8279 4.79055C18.3093 4.44939 18.8584 4.27881 19.4753 4.27881C19.6155 4.27881 19.772 4.28582 19.945 4.29984C20.1225 4.30919 20.2698 4.32555 20.3866 4.34891V6.68325C20.2791 6.64587 20.1085 6.61315 19.8749 6.58511C19.6459 6.5524 19.4239 6.53604 19.2089 6.53604C18.7462 6.53604 18.3303 6.63652 17.9611 6.83747C17.5966 7.03375 17.3092 7.30715 17.0989 7.65765C16.8886 8.00815 16.7834 8.41239 16.7834 8.87038V15.2004H14.2458ZM25.931 15.4107C24.8795 15.4107 23.9682 15.1794 23.1971 14.7167C22.426 14.2541 21.8278 13.6068 21.4025 12.775C20.9819 11.9431 20.7716 10.9711 20.7716 9.8588C20.7716 8.74654 20.9819 7.77214 21.4025 6.93561C21.8278 6.09908 22.426 5.44949 23.1971 4.98683C23.9682 4.52416 24.8795 4.29283 25.931 4.29283C26.9825 4.29283 27.8938 4.52416 28.6649 4.98683C29.436 5.44949 30.0319 6.09908 30.4525 6.93561C30.8778 7.77214 31.0904 8.74654 31.0904 9.8588C31.0904 10.9711 30.8778 11.9431 30.4525 12.775C30.0319 13.6068 29.436 14.2541 28.6649 14.7167C27.8938 15.1794 26.9825 15.4107 25.931 15.4107ZM25.945 13.3778C26.5152 13.3778 26.9919 13.2213 27.3751 12.9082C27.7583 12.5904 28.0434 12.1651 28.2303 11.6323C28.4219 11.0996 28.5177 10.5061 28.5177 9.85179C28.5177 9.19284 28.4219 8.59699 28.2303 8.06423C28.0434 7.52679 27.7583 7.09918 27.3751 6.78139C26.9919 6.46361 26.5152 6.30471 25.945 6.30471C25.3609 6.30471 24.8749 6.46361 24.487 6.78139C24.1037 7.09918 23.8163 7.52679 23.6247 8.06423C23.4378 8.59699 23.3443 9.19284 23.3443 9.85179C23.3443 10.5061 23.4378 11.0996 23.6247 11.6323C23.8163 12.1651 24.1037 12.5904 24.487 12.9082C24.8749 13.2213 25.3609 13.3778 25.945 13.3778ZM38.3032 4.43303V6.39584H31.9381V4.43303H38.3032ZM33.5294 15.2004V3.41658C33.5294 2.69221 33.679 2.08935 33.9781 1.60799C34.2818 1.12664 34.6884 0.766788 35.1978 0.528446C35.7072 0.290105 36.2727 0.170935 36.8942 0.170935C37.3335 0.170935 37.7237 0.205985 38.0649 0.276086C38.4061 0.346186 38.6584 0.409276 38.822 0.465357L38.3173 2.42816C38.2098 2.39545 38.0742 2.36274 37.9107 2.33002C37.7471 2.29264 37.5648 2.27394 37.3639 2.27394C36.8919 2.27394 36.5577 2.38844 36.3615 2.61744C36.1699 2.84176 36.074 3.16422 36.074 3.58482V15.2004H33.5294ZM39.8958 15.2004V4.43303H42.4334V15.2004H39.8958ZM41.1716 2.90485C40.7697 2.90485 40.4239 2.77166 40.1341 2.50528C39.8444 2.23422 39.6995 1.90942 39.6995 1.53088C39.6995 1.14767 39.8444 0.822868 40.1341 0.556486C40.4239 0.285432 40.7697 0.149905 41.1716 0.149905C41.5782 0.149905 41.924 0.285432 42.2091 0.556486C42.4988 0.822868 42.6437 1.14767 42.6437 1.53088C42.6437 1.90942 42.4988 2.23422 42.2091 2.50528C41.924 2.77166 41.5782 2.90485 41.1716 2.90485ZM47.1857 0.843898V15.2004H44.6481V0.843898H47.1857ZM54.1672 15.4107C53.0877 15.4107 52.1553 15.1864 51.3702 14.7378C50.5898 14.2845 49.9892 13.6442 49.5686 12.817C49.148 11.9852 48.9377 11.0061 48.9377 9.87983C48.9377 8.77224 49.148 7.80018 49.5686 6.96365C49.9939 6.12245 50.5874 5.46818 51.3492 5.00085C52.1109 4.52884 53.0059 4.29283 54.034 4.29283C54.6976 4.29283 55.3239 4.40032 55.9127 4.61529C56.5062 4.82559 57.0296 5.15273 57.483 5.5967C57.9409 6.04067 58.3008 6.60614 58.5625 7.29313C58.8242 7.97544 58.9551 8.7886 58.9551 9.73262V10.5107H50.1294V8.80028H56.5226C56.5179 8.31425 56.4128 7.88197 56.2071 7.50343C56.0015 7.12021 55.7141 6.81878 55.3449 6.59913C54.9804 6.37949 54.5551 6.26966 54.0691 6.26966C53.5503 6.26966 53.0947 6.39584 52.7021 6.6482C52.3096 6.89589 52.0035 7.22303 51.7838 7.62961C51.5688 8.03152 51.459 8.47315 51.4543 8.9545V10.4476C51.4543 11.0739 51.5688 11.6113 51.7978 12.0599C52.0268 12.5039 52.3469 12.8451 52.7582 13.0834C53.1695 13.3171 53.6508 13.4339 54.2023 13.4339C54.5715 13.4339 54.9056 13.3825 55.2047 13.2797C55.5038 13.1722 55.7632 13.0156 55.9828 12.81C56.2025 12.6044 56.3684 12.3497 56.4805 12.0459L58.8499 12.3123C58.7004 12.9385 58.4153 13.4853 57.9947 13.9527C57.5788 14.4153 57.046 14.7752 56.3964 15.0322C55.7468 15.2846 55.0037 15.4107 54.1672 15.4107ZM3.96959 23.8439L7.70593 35.1441H7.85314L11.5825 23.8439H14.4426L9.38133 38.2004H6.17074L1.1165 23.8439H3.96959ZM15.8266 38.2004V27.433H18.3642V38.2004H15.8266ZM17.1024 25.9048C16.7005 25.9048 16.3547 25.7717 16.0649 25.5053C15.7752 25.2342 15.6303 24.9094 15.6303 24.5309C15.6303 24.1477 15.7752 23.8229 16.0649 23.5565C16.3547 23.2854 16.7005 23.1499 17.1024 23.1499C17.509 23.1499 17.8548 23.2854 18.1399 23.5565C18.4296 23.8229 18.5745 24.1477 18.5745 24.5309C18.5745 24.9094 18.4296 25.2342 18.1399 25.5053C17.8548 25.7717 17.509 25.9048 17.1024 25.9048ZM25.3457 38.4107C24.2661 38.4107 23.3338 38.1864 22.5487 37.7378C21.7682 37.2845 21.1677 36.6442 20.7471 35.817C20.3265 34.9852 20.1162 34.0061 20.1162 32.8798C20.1162 31.7722 20.3265 30.8002 20.7471 29.9637C21.1724 29.1225 21.7659 28.4682 22.5277 28.0008C23.2894 27.5288 24.1844 27.2928 25.2125 27.2928C25.8761 27.2928 26.5023 27.4003 27.0912 27.6153C27.6847 27.8256 28.2081 28.1527 28.6614 28.5967C29.1194 29.0407 29.4793 29.6061 29.741 30.2931C30.0027 30.9754 30.1335 31.7886 30.1335 32.7326V33.5107H21.3079V31.8003H27.7011C27.6964 31.3143 27.5912 30.882 27.3856 30.5034C27.18 30.1202 26.8926 29.8188 26.5234 29.5991C26.1589 29.3795 25.7336 29.2697 25.2476 29.2697C24.7288 29.2697 24.2732 29.3958 23.8806 29.6482C23.488 29.8959 23.1819 30.223 22.9623 30.6296C22.7473 31.0315 22.6375 31.4731 22.6328 31.9545V33.4476C22.6328 34.0739 22.7473 34.6113 22.9763 35.0599C23.2053 35.5039 23.5254 35.8451 23.9367 36.0834C24.3479 36.3171 24.8293 36.4339 25.3807 36.4339C25.7499 36.4339 26.0841 36.3825 26.3832 36.2797C26.6823 36.1722 26.9416 36.0156 27.1613 35.81C27.3809 35.6044 27.5468 35.3497 27.659 35.0459L30.0284 35.3123C29.8788 35.9385 29.5938 36.4853 29.1732 36.9527C28.7572 37.4153 28.2245 37.7752 27.5749 38.0322C26.9253 38.2846 26.1822 38.4107 25.3457 38.4107ZM34.0499 38.2004L31.0076 27.433H33.5943L35.487 35.0039H35.5851L37.5199 27.433H40.0785L42.0133 34.9618H42.1184L43.9831 27.433H46.5768L43.5275 38.2004H40.8847L38.8658 30.924H38.7186L36.6997 38.2004H34.0499ZM56.464 30.2791L54.1507 30.5315C54.0852 30.2978 53.9707 30.0782 53.8072 29.8725C53.6483 29.6669 53.4333 29.501 53.1623 29.3748C52.8912 29.2486 52.5594 29.1855 52.1668 29.1855C51.6387 29.1855 51.1948 29.3 50.8349 29.529C50.4798 29.758 50.3045 30.0548 50.3092 30.4193C50.3045 30.7324 50.419 30.9871 50.6527 31.1834C50.891 31.3797 51.2836 31.5409 51.8304 31.6671L53.667 32.0597C54.6858 32.2793 55.4429 32.6275 55.9382 33.1041C56.4383 33.5808 56.6906 34.2047 56.6953 34.9758C56.6906 35.6535 56.492 36.2517 56.0995 36.7704C55.7116 37.2845 55.1718 37.6864 54.4801 37.9761C53.7885 38.2659 52.994 38.4107 52.0967 38.4107C50.7788 38.4107 49.718 38.135 48.9142 37.5836C48.1104 37.0274 47.6313 36.254 47.4771 35.2632L49.9517 35.0249C50.0638 35.5109 50.3022 35.8778 50.6667 36.1255C51.0312 36.3732 51.5056 36.497 52.0897 36.497C52.6926 36.497 53.1763 36.3732 53.5408 36.1255C53.91 35.8778 54.0946 35.5717 54.0946 35.2072C54.0946 34.8987 53.9754 34.644 53.7371 34.4431C53.5034 34.2421 53.1389 34.0879 52.6435 33.9804L50.8069 33.5948C49.7741 33.3799 49.01 33.0177 48.5146 32.5083C48.0192 31.9942 47.7739 31.3446 47.7786 30.5595C47.7739 29.8959 47.9538 29.3211 48.3183 28.835C48.6875 28.3443 49.1993 27.9658 49.8535 27.6994C50.5125 27.4284 51.2719 27.2928 52.1318 27.2928C53.3936 27.2928 54.3867 27.5616 55.111 28.099C55.8401 28.6364 56.2911 29.3631 56.464 30.2791Z" fill="black"/>
<g clip-path="url(#clip0_77_2626)">
<path d="M25.5862 139.83L0.632812 126.5V214.453H231.876L231.876 131L204.517 110.592C201.108 108.049 196.968 106.675 192.714 106.675H162.666H116.321C111.553 106.675 106.946 108.401 103.351 111.534L73.7893 137.3C70.1947 140.433 65.5874 142.159 60.819 142.159H34.8874C31.6427 142.159 28.4481 141.359 25.5862 139.83Z" fill="#FFE766"/>
<path d="M33.0625 93.1913V214.453" stroke="white" stroke-width="1.41002"/>
<path d="M66.3359 93.1913V214.453" stroke="white" stroke-width="1.41002"/>
<path d="M99.6172 93.1913V214.453" stroke="white" stroke-width="1.41002"/>
<path d="M132.891 93.1914V214.453" stroke="white" stroke-width="1.41002"/>
<path d="M166.172 93.1913V214.453" stroke="white" stroke-width="1.41002"/>
<path d="M199.445 93.1913V214.453" stroke="white" stroke-width="1.41002"/>
<rect x="19.7344" y="100.815" width="79.3135" height="27.4953" rx="8.4601" fill="#01080F"/>
<path d="M33.2562 118.401C32.6103 118.401 32.0395 118.29 31.5438 118.067C31.0511 117.845 30.665 117.539 30.3856 117.148C30.1062 116.758 29.968 116.313 29.971 115.814C29.968 115.424 30.0476 115.065 30.2099 114.737C30.3751 114.407 30.5989 114.132 30.8813 113.913C31.1637 113.69 31.4792 113.549 31.8277 113.489V113.435C31.368 113.324 31 113.077 30.7236 112.696C30.4472 112.314 30.3105 111.876 30.3135 111.38C30.3105 110.908 30.4352 110.488 30.6876 110.118C30.9429 109.746 31.2929 109.453 31.7376 109.239C32.1822 109.026 32.6884 108.919 33.2562 108.919C33.818 108.919 34.3198 109.028 34.7614 109.244C35.206 109.457 35.556 109.75 35.8114 110.123C36.0668 110.492 36.1959 110.911 36.1989 111.38C36.1959 111.876 36.0547 112.314 35.7753 112.696C35.4959 113.077 35.1324 113.324 34.6848 113.435V113.489C35.0303 113.549 35.3412 113.69 35.6176 113.913C35.897 114.132 36.1193 114.407 36.2846 114.737C36.4528 115.065 36.5384 115.424 36.5414 115.814C36.5384 116.313 36.3972 116.758 36.1178 117.148C35.8384 117.539 35.4509 117.845 34.9552 118.067C34.4625 118.29 33.8961 118.401 33.2562 118.401ZM33.2562 117.261C33.6378 117.261 33.9683 117.198 34.2477 117.072C34.5271 116.942 34.7434 116.764 34.8966 116.535C35.0498 116.304 35.1279 116.034 35.1309 115.724C35.1279 115.403 35.0438 115.119 34.8786 114.872C34.7163 114.626 34.4955 114.432 34.2161 114.291C33.9367 114.15 33.6167 114.079 33.2562 114.079C32.8927 114.079 32.5697 114.15 32.2873 114.291C32.0049 114.432 31.7826 114.626 31.6204 114.872C31.4582 115.119 31.3785 115.403 31.3815 115.724C31.3785 116.034 31.4522 116.304 31.6024 116.535C31.7556 116.764 31.9734 116.942 32.2558 117.072C32.5382 117.198 32.8717 117.261 33.2562 117.261ZM33.2562 112.966C33.5627 112.966 33.8346 112.905 34.0719 112.781C34.3092 112.658 34.4955 112.487 34.6307 112.268C34.7689 112.048 34.8395 111.792 34.8425 111.497C34.8395 111.209 34.7704 110.956 34.6352 110.74C34.503 110.524 34.3183 110.357 34.0809 110.24C33.8436 110.12 33.5687 110.06 33.2562 110.06C32.9378 110.06 32.6584 110.12 32.418 110.24C32.1807 110.357 31.9959 110.524 31.8637 110.74C31.7316 110.956 31.667 111.209 31.67 111.497C31.667 111.792 31.7331 112.048 31.8682 112.268C32.0034 112.487 32.1897 112.658 32.427 112.781C32.6674 112.905 32.9438 112.966 33.2562 112.966ZM41.1242 118.401C40.7126 118.395 40.307 118.32 39.9074 118.176C39.5109 118.031 39.1503 117.791 38.8259 117.455C38.5014 117.118 38.2415 116.666 38.0463 116.098C37.854 115.53 37.7579 114.821 37.7579 113.971C37.7579 113.166 37.8375 112.451 37.9967 111.826C38.1589 111.201 38.3918 110.674 38.6952 110.244C38.9986 109.812 39.3652 109.483 39.7948 109.257C40.2244 109.032 40.7066 108.919 41.2413 108.919C41.7911 108.919 42.2793 109.028 42.7059 109.244C43.1325 109.46 43.478 109.759 43.7424 110.141C44.0098 110.522 44.1795 110.956 44.2516 111.443H42.8772C42.784 111.058 42.5993 110.745 42.3229 110.501C42.0465 110.258 41.686 110.136 41.2413 110.136C40.5654 110.136 40.0381 110.431 39.6596 111.019C39.284 111.608 39.0948 112.427 39.0918 113.475H39.1594C39.3186 113.214 39.5139 112.992 39.7452 112.808C39.9795 112.622 40.2409 112.479 40.5293 112.38C40.8207 112.278 41.1272 112.227 41.4486 112.227C41.9834 112.227 42.4671 112.358 42.8997 112.619C43.3353 112.878 43.6823 113.235 43.9407 113.692C44.1991 114.148 44.3283 114.671 44.3283 115.26C44.3283 115.849 44.1946 116.382 43.9272 116.86C43.6628 117.337 43.2903 117.716 42.8096 117.995C42.3289 118.272 41.7671 118.407 41.1242 118.401ZM41.1197 117.229C41.4742 117.229 41.7911 117.142 42.0705 116.968C42.3499 116.794 42.5707 116.559 42.733 116.265C42.8952 115.97 42.9763 115.642 42.9763 115.278C42.9763 114.923 42.8967 114.601 42.7375 114.309C42.5813 114.018 42.3649 113.786 42.0886 113.615C41.8152 113.444 41.5027 113.358 41.1512 113.358C40.8838 113.358 40.636 113.409 40.4076 113.511C40.1823 113.614 39.984 113.755 39.8128 113.935C39.6416 114.115 39.5064 114.323 39.4072 114.557C39.3111 114.788 39.263 115.033 39.263 115.292C39.263 115.637 39.3426 115.957 39.5019 116.251C39.6641 116.546 39.8849 116.783 40.1643 116.963C40.4467 117.141 40.7652 117.229 41.1197 117.229ZM49.7534 109.046L52.3221 116.562H52.4257L54.9944 109.046H56.4995L53.1783 118.275H51.5695L48.2482 109.046H49.7534ZM57.4704 118.275V111.353H58.8178V118.275H57.4704ZM58.1508 110.285C57.9165 110.285 57.7152 110.207 57.547 110.051C57.3817 109.891 57.2991 109.702 57.2991 109.483C57.2991 109.26 57.3817 109.071 57.547 108.915C57.7152 108.756 57.9165 108.676 58.1508 108.676C58.3852 108.676 58.585 108.756 58.7502 108.915C58.9184 109.071 59.0026 109.26 59.0026 109.483C59.0026 109.702 58.9184 109.891 58.7502 110.051C58.585 110.207 58.3852 110.285 58.1508 110.285ZM63.36 118.414C62.678 118.414 62.0907 118.269 61.598 117.977C61.1083 117.683 60.7297 117.27 60.4623 116.738C60.198 116.203 60.0658 115.577 60.0658 114.859C60.0658 114.15 60.198 113.525 60.4623 112.984C60.7297 112.443 61.1022 112.021 61.5799 111.718C62.0606 111.414 62.6224 111.263 63.2653 111.263C63.6559 111.263 64.0344 111.327 64.401 111.457C64.7675 111.586 65.0965 111.788 65.3879 112.065C65.6793 112.341 65.9091 112.7 66.0774 113.142C66.2456 113.581 66.3297 114.114 66.3297 114.742V115.219H60.8274V114.21H65.0093C65.0093 113.855 64.9372 113.542 64.793 113.268C64.6488 112.992 64.446 112.774 64.1847 112.615C63.9263 112.455 63.6229 112.376 63.2744 112.376C62.8958 112.376 62.5653 112.469 62.2829 112.655C62.0035 112.839 61.7872 113.079 61.634 113.376C61.4838 113.671 61.4087 113.991 61.4087 114.336V115.125C61.4087 115.587 61.4898 115.981 61.652 116.305C61.8173 116.63 62.0471 116.878 62.3415 117.049C62.6359 117.217 62.9799 117.301 63.3735 117.301C63.6289 117.301 63.8617 117.265 64.072 117.193C64.2823 117.118 64.4641 117.007 64.6173 116.86C64.7705 116.713 64.8877 116.531 64.9688 116.314L66.2441 116.544C66.142 116.92 65.9587 117.249 65.6943 117.531C65.4329 117.811 65.104 118.028 64.7074 118.185C64.3138 118.338 63.8647 118.414 63.36 118.414ZM69.0592 118.275L67.0223 111.353H68.4148L69.7712 116.436H69.8388L71.1998 111.353H72.5923L73.9442 116.414H74.0118L75.3592 111.353H76.7517L74.7193 118.275H73.3448L71.9388 113.277H71.8352L70.4292 118.275H69.0592ZM82.9635 113.043L81.7423 113.259C81.6912 113.103 81.6101 112.954 81.4989 112.813C81.3908 112.672 81.2436 112.556 81.0573 112.466C80.871 112.376 80.6382 112.331 80.3588 112.331C79.9772 112.331 79.6588 112.416 79.4034 112.588C79.1481 112.756 79.0204 112.974 79.0204 113.241C79.0204 113.472 79.106 113.659 79.2772 113.8C79.4485 113.941 79.7249 114.057 80.1064 114.147L81.206 114.399C81.8429 114.546 82.3176 114.773 82.63 115.08C82.9425 115.386 83.0987 115.784 83.0987 116.274C83.0987 116.689 82.9785 117.058 82.7382 117.383C82.5009 117.704 82.1689 117.956 81.7423 118.14C81.3187 118.323 80.8275 118.414 80.2687 118.414C79.4936 118.414 78.8612 118.249 78.3715 117.919C77.8818 117.585 77.5813 117.112 77.4702 116.499L78.7725 116.301C78.8536 116.64 79.0204 116.897 79.2727 117.072C79.5251 117.243 79.8541 117.328 80.2597 117.328C80.7013 117.328 81.0543 117.237 81.3187 117.054C81.583 116.867 81.7152 116.64 81.7152 116.373C81.7152 116.157 81.6341 115.975 81.4719 115.828C81.3127 115.681 81.0678 115.569 80.7373 115.494L79.5657 115.237C78.9197 115.09 78.4421 114.856 78.1326 114.534C77.8262 114.213 77.673 113.806 77.673 113.313C77.673 112.905 77.7871 112.547 78.0154 112.241C78.2438 111.934 78.5592 111.695 78.9618 111.524C79.3644 111.35 79.8255 111.263 80.3453 111.263C81.0933 111.263 81.6822 111.425 82.1118 111.749C82.5414 112.071 82.8253 112.502 82.9635 113.043Z" fill="white"/>
<path d="M59.3891 133.598C57.6268 133.598 56.7451 128.31 54.1016 128.31H64.6767C62.0329 128.31 61.1514 133.598 59.3891 133.598Z" fill="#01080F"/>
<path d="M1.1013 125.88C0.758901 125.695 0.331046 125.822 0.145658 126.165C-0.0397306 126.507 0.0875515 126.935 0.42995 127.12L1.1013 125.88ZM231.365 131.198C231.751 131.145 232.02 130.788 231.966 130.403L231.089 124.119C231.035 123.733 230.679 123.464 230.293 123.518C229.908 123.572 229.639 123.928 229.692 124.313L230.472 129.899L224.886 130.679C224.5 130.733 224.231 131.089 224.285 131.474C224.339 131.86 224.695 132.129 225.081 132.075L231.365 131.198ZM205.047 110.701L205.472 110.138L205.047 110.701ZM103.348 111.592L102.884 111.061L103.348 111.592ZM73.7963 137.423L74.2603 137.954L73.7963 137.423ZM25.5493 139.919L25.2136 140.539L25.5493 139.919ZM0.42995 127.12L25.2136 140.539L25.885 139.299L1.1013 125.88L0.42995 127.12ZM34.9482 143.005H60.8048V141.595H34.9482V143.005ZM74.2603 137.954L103.812 112.122L102.884 111.061L73.3323 136.892L74.2603 137.954ZM116.339 107.419H193.152V106.009H116.339V107.419ZM204.622 111.264L230.843 131.063L231.692 129.938L205.472 110.138L204.622 111.264ZM193.152 107.419C197.291 107.419 201.319 108.769 204.622 111.264L205.472 110.138C201.924 107.459 197.598 106.009 193.152 106.009V107.419ZM103.812 112.122C107.281 109.09 111.732 107.419 116.339 107.419V106.009C111.391 106.009 106.61 107.804 102.884 111.061L103.812 112.122ZM60.8048 143.005C65.7536 143.005 70.5343 141.21 74.2603 137.954L73.3323 136.892C69.8633 139.924 65.4123 141.595 60.8048 141.595V143.005ZM25.2136 140.539C28.203 142.158 31.5488 143.005 34.9482 143.005V141.595C31.7832 141.595 28.6682 140.806 25.885 139.299L25.2136 140.539Z" fill="black"/>
<circle cx="59.3922" cy="141.586" r="2.82003" fill="#F2E3F8" stroke="#01080F" stroke-width="1.41002"/>
<path d="M12.4048 194.182H13.4702L15.3224 198.705H15.3906L17.2429 194.182H18.3082V200H17.473V195.79H17.419L15.7031 199.992H15.0099L13.294 195.787H13.2401V200H12.4048V194.182Z" fill="white"/>
<path d="M47.1179 194.938V194.182H51.6207V194.938H49.8054V200H48.9304V194.938H47.1179Z" fill="white"/>
<path d="M81.544 200L79.9304 194.182H80.8537L81.9872 198.688H82.0412L83.2202 194.182H84.1349L85.3139 198.691H85.3679L86.4986 194.182H87.4247L85.8082 200H84.9247L83.7003 195.642H83.6548L82.4304 200H81.544Z" fill="white"/>
<path d="M115.118 194.938V194.182H119.621V194.938H117.805V200H116.93V194.938H115.118Z" fill="white"/>
<path d="M148.405 200V194.182H152.013V194.938H149.283V196.71H151.754V197.463H149.283V200H148.405Z" fill="white"/>
<path d="M183.578 195.71C183.548 195.442 183.423 195.233 183.203 195.085C182.983 194.936 182.707 194.861 182.374 194.861C182.135 194.861 181.929 194.899 181.754 194.975C181.58 195.049 181.445 195.151 181.348 195.281C181.253 195.41 181.206 195.557 181.206 195.722C181.206 195.86 181.238 195.979 181.303 196.08C181.369 196.18 181.455 196.264 181.561 196.333C181.669 196.399 181.785 196.455 181.908 196.5C182.031 196.544 182.149 196.58 182.263 196.608L182.831 196.756C183.017 196.801 183.207 196.863 183.402 196.941C183.597 197.018 183.778 197.121 183.945 197.247C184.111 197.374 184.246 197.531 184.348 197.719C184.452 197.906 184.504 198.131 184.504 198.392C184.504 198.722 184.419 199.014 184.249 199.27C184.08 199.526 183.835 199.728 183.513 199.875C183.193 200.023 182.805 200.097 182.351 200.097C181.915 200.097 181.538 200.028 181.22 199.889C180.902 199.751 180.653 199.555 180.473 199.301C180.293 199.046 180.194 198.743 180.175 198.392H181.055C181.072 198.603 181.141 198.778 181.26 198.918C181.381 199.056 181.536 199.159 181.723 199.228C181.912 199.294 182.12 199.327 182.345 199.327C182.593 199.327 182.814 199.288 183.007 199.21C183.202 199.131 183.356 199.021 183.467 198.881C183.579 198.739 183.635 198.573 183.635 198.384C183.635 198.211 183.586 198.07 183.487 197.96C183.391 197.851 183.259 197.76 183.092 197.688C182.928 197.616 182.741 197.552 182.533 197.497L181.845 197.31C181.379 197.183 181.01 196.996 180.737 196.75C180.466 196.504 180.331 196.178 180.331 195.773C180.331 195.438 180.422 195.145 180.604 194.895C180.786 194.645 181.032 194.451 181.342 194.313C181.653 194.173 182.003 194.103 182.393 194.103C182.787 194.103 183.135 194.172 183.436 194.31C183.739 194.448 183.978 194.639 184.152 194.881C184.326 195.121 184.417 195.398 184.425 195.71H183.578Z" fill="white"/>
<path d="M216.578 195.71C216.548 195.442 216.423 195.233 216.203 195.085C215.983 194.936 215.707 194.861 215.374 194.861C215.135 194.861 214.929 194.899 214.754 194.975C214.58 195.049 214.445 195.151 214.348 195.281C214.253 195.41 214.206 195.557 214.206 195.722C214.206 195.86 214.238 195.979 214.303 196.08C214.369 196.18 214.455 196.264 214.561 196.333C214.669 196.399 214.785 196.455 214.908 196.5C215.031 196.544 215.149 196.58 215.263 196.608L215.831 196.756C216.017 196.801 216.207 196.863 216.402 196.941C216.597 197.018 216.778 197.121 216.945 197.247C217.111 197.374 217.246 197.531 217.348 197.719C217.452 197.906 217.504 198.131 217.504 198.392C217.504 198.722 217.419 199.014 217.249 199.27C217.08 199.526 216.835 199.728 216.513 199.875C216.193 200.023 215.805 200.097 215.351 200.097C214.915 200.097 214.538 200.028 214.22 199.889C213.902 199.751 213.653 199.555 213.473 199.301C213.293 199.046 213.194 198.743 213.175 198.392H214.055C214.072 198.603 214.141 198.778 214.26 198.918C214.381 199.056 214.536 199.159 214.723 199.228C214.912 199.294 215.12 199.327 215.345 199.327C215.593 199.327 215.814 199.288 216.007 199.21C216.202 199.131 216.356 199.021 216.467 198.881C216.579 198.739 216.635 198.573 216.635 198.384C216.635 198.211 216.586 198.07 216.487 197.96C216.391 197.851 216.259 197.76 216.092 197.688C215.928 197.616 215.741 197.552 215.533 197.497L214.845 197.31C214.379 197.183 214.01 196.996 213.737 196.75C213.466 196.504 213.331 196.178 213.331 195.773C213.331 195.438 213.422 195.145 213.604 194.895C213.786 194.645 214.032 194.451 214.342 194.313C214.653 194.173 215.003 194.103 215.393 194.103C215.787 194.103 216.135 194.172 216.436 194.31C216.739 194.448 216.978 194.639 217.152 194.881C217.326 195.121 217.417 195.398 217.425 195.71H216.578Z" fill="white"/>
</g>
<defs>
<clipPath id="clip0_77_2626">
<rect x="0.632812" y="62.1707" width="231.243" height="152.282" rx="16.9202" fill="white"/>
</clipPath>
</defs>
</svg>
