<svg width="266" height="215" viewBox="0 0 266 215" fill="none" xmlns="http://www.w3.org/2000/svg">
<path d="M10.0619 4.79055C9.99651 4.17834 9.72078 3.70165 9.23476 3.3605C8.7534 3.01934 8.12717 2.84877 7.35607 2.84877C6.81396 2.84877 6.34896 2.93055 5.96107 3.09412C5.57318 3.25768 5.27643 3.47967 5.0708 3.76007C4.86517 4.04047 4.76002 4.3606 4.75535 4.72045C4.75535 5.01954 4.82311 5.27891 4.95864 5.49856C5.09884 5.71821 5.28811 5.90514 5.52645 6.05936C5.76479 6.20891 6.02884 6.33509 6.31858 6.4379C6.60833 6.54072 6.90042 6.62717 7.19484 6.69727L8.54076 7.03375C9.08287 7.15993 9.60395 7.33051 10.104 7.54549C10.6087 7.76046 11.0597 8.03152 11.4569 8.35865C11.8588 8.68578 12.1766 9.08068 12.4103 9.54335C12.644 10.006 12.7608 10.5481 12.7608 11.1697C12.7608 12.0109 12.5458 12.7516 12.1159 13.3919C11.6859 14.0274 11.0644 14.5251 10.2512 14.885C9.44272 15.2402 8.46365 15.4178 7.31401 15.4178C6.19708 15.4178 5.22736 15.2448 4.40485 14.899C3.58701 14.5532 2.94676 14.0485 2.4841 13.3848C2.02611 12.7212 1.77842 11.9127 1.74103 10.9594H4.29969C4.33708 11.4594 4.4913 11.8753 4.76236 12.2072C5.03341 12.539 5.38625 12.7867 5.82087 12.9502C6.26017 13.1138 6.75087 13.1956 7.29298 13.1956C7.85845 13.1956 8.35383 13.1115 8.7791 12.9432C9.20905 12.7703 9.54553 12.532 9.78855 12.2282C10.0316 11.9197 10.1554 11.5599 10.1601 11.1486C10.1554 10.7748 10.0456 10.4663 9.83061 10.2233C9.61563 9.97563 9.3142 9.77 8.92631 9.60644C8.5431 9.43819 8.09446 9.28865 7.58039 9.15779L5.94705 8.73719C4.76469 8.43342 3.83002 7.9731 3.14304 7.35622C2.46073 6.73466 2.11958 5.90981 2.11958 4.88167C2.11958 4.0358 2.34857 3.29507 2.80656 2.6595C3.26922 2.02392 3.89779 1.53088 4.69226 1.18038C5.48673 0.825204 6.38635 0.647617 7.39112 0.647617C8.40991 0.647617 9.30252 0.825204 10.0689 1.18038C10.8401 1.53088 11.4453 2.01925 11.8845 2.64548C12.3238 3.26703 12.5505 3.98205 12.5645 4.79055H10.0619ZM19.2691 15.4107C18.2176 15.4107 17.3063 15.1794 16.5352 14.7167C15.7641 14.2541 15.1659 13.6068 14.7406 12.775C14.32 11.9431 14.1097 10.9711 14.1097 9.8588C14.1097 8.74654 14.32 7.77214 14.7406 6.93561C15.1659 6.09908 15.7641 5.44949 16.5352 4.98683C17.3063 4.52416 18.2176 4.29283 19.2691 4.29283C20.3206 4.29283 21.2319 4.52416 22.003 4.98683C22.7741 5.44949 23.37 6.09908 23.7906 6.93561C24.2159 7.77214 24.4285 8.74654 24.4285 9.8588C24.4285 10.9711 24.2159 11.9431 23.7906 12.775C23.37 13.6068 22.7741 14.2541 22.003 14.7167C21.2319 15.1794 20.3206 15.4107 19.2691 15.4107ZM19.2831 13.3778C19.8533 13.3778 20.33 13.2213 20.7132 12.9082C21.0964 12.5904 21.3815 12.1651 21.5684 11.6323C21.76 11.0996 21.8558 10.5061 21.8558 9.85179C21.8558 9.19284 21.76 8.59699 21.5684 8.06423C21.3815 7.52679 21.0964 7.09918 20.7132 6.78139C20.33 6.46361 19.8533 6.30471 19.2831 6.30471C18.699 6.30471 18.2129 6.46361 17.8251 6.78139C17.4418 7.09918 17.1544 7.52679 16.9628 8.06423C16.7759 8.59699 16.6824 9.19284 16.6824 9.85179C16.6824 10.5061 16.7759 11.0996 16.9628 11.6323C17.1544 12.1651 17.4418 12.5904 17.8251 12.9082C18.2129 13.2213 18.699 13.3778 19.2831 13.3778ZM30.8843 15.4107C29.8094 15.4107 28.8864 15.1747 28.1153 14.7027C27.3489 14.2307 26.7577 13.5788 26.3418 12.7469C25.9305 11.9104 25.7249 10.9477 25.7249 9.8588C25.7249 8.76523 25.9352 7.80018 26.3558 6.96365C26.7764 6.12245 27.3699 5.46818 28.1363 5.00085C28.9074 4.52884 29.8187 4.29283 30.8702 4.29283C31.7441 4.29283 32.5176 4.45406 33.1906 4.77652C33.8682 5.09431 34.408 5.54529 34.8099 6.12946C35.2118 6.70896 35.4408 7.38659 35.4969 8.16237H33.0714C32.9732 7.64363 32.7396 7.21134 32.3704 6.86551C32.0059 6.51501 31.5175 6.33976 30.9053 6.33976C30.3865 6.33976 29.9309 6.47996 29.5383 6.76036C29.1458 7.03609 28.8397 7.43333 28.62 7.95207C28.405 8.47081 28.2975 9.09237 28.2975 9.81674C28.2975 10.5505 28.405 11.1814 28.62 11.7094C28.835 12.2329 29.1364 12.6371 29.5243 12.9222C29.9169 13.2026 30.3772 13.3428 30.9053 13.3428C31.2791 13.3428 31.6133 13.2727 31.9077 13.1325C32.2068 12.9876 32.4568 12.7796 32.6578 12.5086C32.8587 12.2375 32.9966 11.9081 33.0714 11.5202H35.4969C35.4361 12.2819 35.2118 12.9572 34.8239 13.5461C34.436 14.1302 33.9079 14.5882 33.2396 14.92C32.5713 15.2472 31.7862 15.4107 30.8843 15.4107ZM37.1858 15.2004V4.43303H39.7234V15.2004H37.1858ZM38.4616 2.90485C38.0597 2.90485 37.7139 2.77166 37.4241 2.50528C37.1344 2.23422 36.9895 1.90942 36.9895 1.53088C36.9895 1.14767 37.1344 0.822868 37.4241 0.556486C37.7139 0.285432 38.0597 0.149905 38.4616 0.149905C38.8682 0.149905 39.214 0.285432 39.4991 0.556486C39.7888 0.822868 39.9337 1.14767 39.9337 1.53088C39.9337 1.90942 39.7888 2.23422 39.4991 2.50528C39.214 2.77166 38.8682 2.90485 38.4616 2.90485ZM45.0365 15.4178C44.3542 15.4178 43.7397 15.2962 43.1929 15.0532C42.6508 14.8055 42.2208 14.441 41.903 13.9597C41.5899 13.4783 41.4334 12.8848 41.4334 12.1791C41.4334 11.5716 41.5455 11.0692 41.7698 10.672C41.9942 10.2747 42.3003 9.95694 42.6882 9.7186C43.076 9.48026 43.513 9.30033 43.999 9.17882C44.4897 9.05264 44.9968 8.96151 45.5202 8.90543C46.1511 8.84001 46.6628 8.78159 47.0554 8.73018C47.448 8.6741 47.733 8.58998 47.9106 8.47782C48.0929 8.36099 48.184 8.18106 48.184 7.93805V7.89599C48.184 7.3679 48.0275 6.95898 47.7144 6.66923C47.4012 6.37949 46.9503 6.23461 46.3614 6.23461C45.7399 6.23461 45.2468 6.37014 44.8823 6.64119C44.5225 6.91225 44.2794 7.23237 44.1533 7.60157L41.7839 7.26509C41.9708 6.61082 42.2792 6.06403 42.7092 5.62474C43.1391 5.18077 43.6649 4.84896 44.2864 4.62931C44.908 4.40499 45.595 4.29283 46.3474 4.29283C46.8661 4.29283 47.3825 4.35359 47.8966 4.47509C48.4107 4.5966 48.8804 4.79755 49.3056 5.07796C49.7309 5.35368 50.0721 5.72989 50.3291 6.20657C50.5908 6.68325 50.7217 7.27911 50.7217 7.99413V15.2004H48.2822V13.7213H48.198C48.0438 14.0204 47.8265 14.3008 47.5461 14.5625C47.2704 14.8196 46.9222 15.0275 46.5016 15.1864C46.0857 15.3406 45.5973 15.4178 45.0365 15.4178ZM45.6955 13.5531C46.2049 13.5531 46.6465 13.4526 47.0204 13.2517C47.3942 13.046 47.6816 12.775 47.8826 12.4385C48.0882 12.102 48.191 11.7351 48.191 11.3379V10.0691C48.1116 10.1345 47.9761 10.1953 47.7845 10.2514C47.5975 10.3074 47.3872 10.3565 47.1535 10.3986C46.9199 10.4406 46.6885 10.478 46.4596 10.5107C46.2306 10.5434 46.0319 10.5715 45.8637 10.5948C45.4852 10.6463 45.1463 10.7304 44.8472 10.8472C44.5482 10.964 44.3121 11.1276 44.1392 11.3379C43.9663 11.5435 43.8799 11.8099 43.8799 12.1371C43.8799 12.6044 44.0504 12.9572 44.3916 13.1956C44.7328 13.4339 45.1674 13.5531 45.6955 13.5531ZM55.4161 0.843898V15.2004H52.8785V0.843898H55.4161ZM14.5484 28.6878H11.9266C11.8518 28.2579 11.714 27.877 11.513 27.5452C11.3121 27.2087 11.062 26.9236 10.7629 26.69C10.4638 26.4563 10.1227 26.2811 9.73948 26.1642C9.36094 26.0427 8.95202 25.982 8.51272 25.982C7.73227 25.982 7.04062 26.1782 6.43775 26.5708C5.83489 26.9587 5.36288 27.5288 5.02173 28.2812C4.68057 29.029 4.51 29.9426 4.51 31.0222C4.51 32.1204 4.68057 33.0457 5.02173 33.7981C5.36756 34.5459 5.83956 35.1114 6.43775 35.4946C7.04062 35.8731 7.72994 36.0624 8.50571 36.0624C8.93566 36.0624 9.33757 36.0063 9.71144 35.8941C10.09 35.7773 10.4288 35.6067 10.7279 35.3824C11.0317 35.1581 11.2864 34.8824 11.492 34.5552C11.7023 34.2281 11.8472 33.8542 11.9266 33.4336L14.5484 33.4476C14.4502 34.1299 14.2376 34.7702 13.9104 35.3684C13.588 35.9666 13.165 36.4947 12.6416 36.9527C12.1182 37.406 11.506 37.7611 10.805 38.0182C10.104 38.2705 9.32589 38.3967 8.47066 38.3967C7.20886 38.3967 6.08258 38.1046 5.09183 37.5205C4.10108 36.9363 3.32063 36.0928 2.75048 34.9898C2.18033 33.8869 1.89525 32.5644 1.89525 31.0222C1.89525 29.4753 2.18267 28.1527 2.75749 27.0545C3.33231 25.9516 4.1151 25.108 5.10585 24.5239C6.0966 23.9397 7.2182 23.6476 8.47066 23.6476C9.26981 23.6476 10.0129 23.7598 10.6999 23.9841C11.3868 24.2084 11.999 24.5379 12.5365 24.9725C13.0739 25.4025 13.5155 25.9306 13.8614 26.5568C14.2119 27.1783 14.4409 27.8887 14.5484 28.6878ZM21.1198 38.4107C20.0683 38.4107 19.157 38.1794 18.3859 37.7167C17.6148 37.2541 17.0166 36.6068 16.5913 35.775C16.1707 34.9431 15.9604 33.9711 15.9604 32.8588C15.9604 31.7465 16.1707 30.7721 16.5913 29.9356C17.0166 29.0991 17.6148 28.4495 18.3859 27.9868C19.157 27.5242 20.0683 27.2928 21.1198 27.2928C22.1713 27.2928 23.0826 27.5242 23.8537 27.9868C24.6248 28.4495 25.2206 29.0991 25.6412 29.9356C26.0665 30.7721 26.2792 31.7465 26.2792 32.8588C26.2792 33.9711 26.0665 34.9431 25.6412 35.775C25.2206 36.6068 24.6248 37.2541 23.8537 37.7167C23.0826 38.1794 22.1713 38.4107 21.1198 38.4107ZM21.1338 36.3778C21.7039 36.3778 22.1806 36.2213 22.5638 35.9082C22.9471 35.5904 23.2321 35.1651 23.4191 34.6323C23.6107 34.0996 23.7065 33.5061 23.7065 32.8518C23.7065 32.1928 23.6107 31.597 23.4191 31.0642C23.2321 30.5268 22.9471 30.0992 22.5638 29.7814C22.1806 29.4636 21.7039 29.3047 21.1338 29.3047C20.5496 29.3047 20.0636 29.4636 19.6757 29.7814C19.2925 30.0992 19.0051 30.5268 18.8135 31.0642C18.6265 31.597 18.5331 32.1928 18.5331 32.8518C18.5331 33.5061 18.6265 34.0996 18.8135 34.6323C19.0051 35.1651 19.2925 35.5904 19.6757 35.9082C20.0636 36.2213 20.5496 36.3778 21.1338 36.3778ZM30.5758 31.8914V38.2004H28.0382V27.433H30.4636V29.2627H30.5898C30.8375 28.6598 31.2324 28.1808 31.7745 27.8256C32.3213 27.4704 32.9966 27.2928 33.8004 27.2928C34.5435 27.2928 35.1907 27.4517 35.7422 27.7695C36.2983 28.0873 36.7283 28.5476 37.032 29.1505C37.3405 29.7534 37.4924 30.4847 37.4877 31.3446V38.2004H34.9501V31.7372C34.9501 31.0175 34.7631 30.4544 34.3893 30.0478C34.0201 29.6412 33.5083 29.4379 32.8541 29.4379C32.4101 29.4379 32.0152 29.536 31.6694 29.7323C31.3282 29.9239 31.0595 30.202 30.8632 30.5665C30.6716 30.931 30.5758 31.3727 30.5758 31.8914ZM48.9048 27.433L45.0703 38.2004H42.2663L38.4318 27.433H41.1377L43.6122 35.4315H43.7244L46.2059 27.433H48.9048ZM54.6665 38.4107C53.587 38.4107 52.6547 38.1864 51.8695 37.7378C51.0891 37.2845 50.4886 36.6442 50.068 35.817C49.6474 34.9852 49.4371 34.0061 49.4371 32.8798C49.4371 31.7722 49.6474 30.8002 50.068 29.9637C50.4932 29.1225 51.0868 28.4682 51.8485 28.0008C52.6103 27.5288 53.5052 27.2928 54.5334 27.2928C55.197 27.2928 55.8232 27.4003 56.412 27.6153C57.0056 27.8256 57.529 28.1527 57.9823 28.5967C58.4403 29.0407 58.8001 29.6061 59.0618 30.2931C59.3235 30.9754 59.4544 31.7886 59.4544 32.7326V33.5107H50.6288V31.8003H57.0219C57.0172 31.3143 56.9121 30.882 56.7065 30.5034C56.5008 30.1202 56.2134 29.8188 55.8442 29.5991C55.4797 29.3795 55.0544 29.2697 54.5684 29.2697C54.0497 29.2697 53.594 29.3958 53.2015 29.6482C52.8089 29.8959 52.5028 30.223 52.2831 30.6296C52.0682 31.0315 51.9583 31.4731 51.9537 31.9545V33.4476C51.9537 34.0739 52.0682 34.6113 52.2972 35.0599C52.5262 35.5039 52.8463 35.8451 53.2575 36.0834C53.6688 36.3171 54.1501 36.4339 54.7016 36.4339C55.0708 36.4339 55.4049 36.3825 55.704 36.2797C56.0031 36.1722 56.2625 36.0156 56.4821 35.81C56.7018 35.6044 56.8677 35.3497 56.9799 35.0459L59.3492 35.3123C59.1997 35.9385 58.9146 36.4853 58.494 36.9527C58.0781 37.4153 57.5453 37.7752 56.8957 38.0322C56.2461 38.2846 55.5031 38.4107 54.6665 38.4107ZM61.2064 38.2004V27.433H63.6669V29.2276H63.7791C63.9754 28.606 64.3119 28.127 64.7885 27.7905C65.2699 27.4494 65.819 27.2788 66.4359 27.2788C66.5761 27.2788 66.7327 27.2858 66.9056 27.2998C67.0832 27.3092 67.2304 27.3255 67.3472 27.3489V29.6833C67.2397 29.6459 67.0691 29.6132 66.8355 29.5851C66.6065 29.5524 66.3845 29.536 66.1695 29.536C65.7069 29.536 65.2909 29.6365 64.9217 29.8375C64.5572 30.0338 64.2698 30.3071 64.0595 30.6576C63.8492 31.0081 63.744 31.4124 63.744 31.8704V38.2004H61.2064ZM77.1485 30.2791L74.8352 30.5315C74.7697 30.2978 74.6552 30.0782 74.4917 29.8725C74.3328 29.6669 74.1178 29.501 73.8468 29.3748C73.5757 29.2486 73.2439 29.1855 72.8513 29.1855C72.3232 29.1855 71.8793 29.3 71.5194 29.529C71.1643 29.758 70.989 30.0548 70.9937 30.4193C70.989 30.7324 71.1035 30.9871 71.3372 31.1834C71.5755 31.3797 71.9681 31.5409 72.5149 31.6671L74.3515 32.0597C75.3703 32.2793 76.1274 32.6275 76.6227 33.1041C77.1228 33.5808 77.3751 34.2047 77.3798 34.9758C77.3751 35.6535 77.1765 36.2517 76.784 36.7704C76.3961 37.2845 75.8563 37.6864 75.1646 37.9761C74.473 38.2659 73.6785 38.4107 72.7812 38.4107C71.4633 38.4107 70.4025 38.135 69.5987 37.5836C68.7949 37.0274 68.3158 36.254 68.1616 35.2632L70.6362 35.0249C70.7483 35.5109 70.9867 35.8778 71.3512 36.1255C71.7157 36.3732 72.1901 36.497 72.7742 36.497C73.3771 36.497 73.8608 36.3732 74.2253 36.1255C74.5945 35.8778 74.7791 35.5717 74.7791 35.2072C74.7791 34.8987 74.6599 34.644 74.4216 34.4431C74.1879 34.2421 73.8234 34.0879 73.328 33.9804L71.4914 33.5948C70.4586 33.3799 69.6945 33.0177 69.1991 32.5083C68.7037 31.9942 68.4584 31.3446 68.4631 30.5595C68.4584 29.8959 68.6383 29.3211 69.0028 28.835C69.372 28.3443 69.8838 27.9658 70.538 27.6994C71.197 27.4284 71.9564 27.2928 72.8163 27.2928C74.0781 27.2928 75.0712 27.5616 75.7955 28.099C76.5246 28.6364 76.9756 29.3631 77.1485 30.2791ZM79.0775 38.2004V27.433H81.6151V38.2004H79.0775ZM80.3533 25.9048C79.9514 25.9048 79.6056 25.7717 79.3158 25.5053C79.0261 25.2342 78.8812 24.9094 78.8812 24.5309C78.8812 24.1477 79.0261 23.8229 79.3158 23.5565C79.6056 23.2854 79.9514 23.1499 80.3533 23.1499C80.7599 23.1499 81.1057 23.2854 81.3908 23.5565C81.6806 23.8229 81.8254 24.1477 81.8254 24.5309C81.8254 24.9094 81.6806 25.2342 81.3908 25.5053C81.1057 25.7717 80.7599 25.9048 80.3533 25.9048ZM88.5265 38.4107C87.475 38.4107 86.5637 38.1794 85.7926 37.7167C85.0215 37.2541 84.4233 36.6068 83.9981 35.775C83.5775 34.9431 83.3672 33.9711 83.3672 32.8588C83.3672 31.7465 83.5775 30.7721 83.9981 29.9356C84.4233 29.0991 85.0215 28.4495 85.7926 27.9868C86.5637 27.5242 87.475 27.2928 88.5265 27.2928C89.578 27.2928 90.4893 27.5242 91.2604 27.9868C92.0315 28.4495 92.6274 29.0991 93.048 29.9356C93.4733 30.7721 93.6859 31.7465 93.6859 32.8588C93.6859 33.9711 93.4733 34.9431 93.048 35.775C92.6274 36.6068 92.0315 37.2541 91.2604 37.7167C90.4893 38.1794 89.578 38.4107 88.5265 38.4107ZM88.5406 36.3778C89.1107 36.3778 89.5874 36.2213 89.9706 35.9082C90.3538 35.5904 90.6389 35.1651 90.8258 34.6323C91.0174 34.0996 91.1132 33.5061 91.1132 32.8518C91.1132 32.1928 91.0174 31.597 90.8258 31.0642C90.6389 30.5268 90.3538 30.0992 89.9706 29.7814C89.5874 29.4636 89.1107 29.3047 88.5406 29.3047C87.9564 29.3047 87.4704 29.4636 87.0825 29.7814C86.6993 30.0992 86.4118 30.5268 86.2202 31.0642C86.0333 31.597 85.9398 32.1928 85.9398 32.8518C85.9398 33.5061 86.0333 34.0996 86.2202 34.6323C86.4118 35.1651 86.6993 35.5904 87.0825 35.9082C87.4704 36.2213 87.9564 36.3778 88.5406 36.3778ZM97.9826 31.8914V38.2004H95.4449V27.433H97.8704V29.2627H97.9966C98.2443 28.6598 98.6392 28.1808 99.1813 27.8256C99.7281 27.4704 100.403 27.2928 101.207 27.2928C101.95 27.2928 102.598 27.4517 103.149 27.7695C103.705 28.0873 104.135 28.5476 104.439 29.1505C104.747 29.7534 104.899 30.4847 104.894 31.3446V38.2004H102.357V31.7372C102.357 31.0175 102.17 30.4544 101.796 30.0478C101.427 29.6412 100.915 29.4379 100.261 29.4379C99.8169 29.4379 99.422 29.536 99.0761 29.7323C98.735 29.9239 98.4663 30.202 98.27 30.5665C98.0784 30.931 97.9826 31.3727 97.9826 31.8914ZM115.59 30.2791L113.276 30.5315C113.211 30.2978 113.096 30.0782 112.933 29.8725C112.774 29.6669 112.559 29.501 112.288 29.3748C112.017 29.2486 111.685 29.1855 111.292 29.1855C110.764 29.1855 110.32 29.3 109.96 29.529C109.605 29.758 109.43 30.0548 109.435 30.4193C109.43 30.7324 109.545 30.9871 109.778 31.1834C110.017 31.3797 110.409 31.5409 110.956 31.6671L112.793 32.0597C113.811 32.2793 114.568 32.6275 115.064 33.1041C115.564 33.5808 115.816 34.2047 115.821 34.9758C115.816 35.6535 115.618 36.2517 115.225 36.7704C114.837 37.2845 114.297 37.6864 113.606 37.9761C112.914 38.2659 112.12 38.4107 111.222 38.4107C109.904 38.4107 108.844 38.135 108.04 37.5836C107.236 37.0274 106.757 36.254 106.603 35.2632L109.077 35.0249C109.189 35.5109 109.428 35.8778 109.792 36.1255C110.157 36.3732 110.631 36.497 111.215 36.497C111.818 36.497 112.302 36.3732 112.666 36.1255C113.036 35.8778 113.22 35.5717 113.22 35.2072C113.22 34.8987 113.101 34.644 112.863 34.4431C112.629 34.2421 112.264 34.0879 111.769 33.9804L109.932 33.5948C108.9 33.3799 108.136 33.0177 107.64 32.5083C107.145 31.9942 106.899 31.3446 106.904 30.5595C106.899 29.8959 107.079 29.3211 107.444 28.835C107.813 28.3443 108.325 27.9658 108.979 27.6994C109.638 27.4284 110.397 27.2928 111.257 27.2928C112.519 27.2928 113.512 27.5616 114.237 28.099C114.966 28.6364 115.417 29.3631 115.59 30.2791Z" fill="black"/>
<path d="M10.1166 174.727C15.0814 183.844 21.8579 191.849 30.0296 198.25C38.2014 204.652 47.5959 209.315 57.6359 211.953C67.6758 214.591 78.1491 215.148 88.4122 213.59C98.6754 212.032 108.512 208.392 117.316 202.893C126.121 197.395 133.708 190.154 139.612 181.615C145.516 173.077 149.612 163.422 151.647 153.242C153.683 143.063 153.616 132.575 151.449 122.423C149.283 112.271 145.064 102.669 139.051 94.2072L108.018 116.259C111.024 120.49 113.134 125.291 114.217 130.367C115.3 135.444 115.334 140.687 114.316 145.777C113.298 150.867 111.25 155.694 108.299 159.964C105.347 164.233 101.553 167.853 97.1505 170.602C92.7481 173.352 87.83 175.172 82.6985 175.951C77.5669 176.73 72.3303 176.451 67.3103 175.132C62.2903 173.813 57.5931 171.482 53.5072 168.281C49.4213 165.08 46.033 161.078 43.5507 156.519L10.1166 174.727Z" fill="#FFE766"/>
<path d="M7.92585 170.379C15.5351 186.766 28.7235 199.913 45.1341 207.471C61.5448 215.028 80.1082 216.504 97.5069 211.635L87.2458 174.973C78.5464 177.408 69.2647 176.67 61.0594 172.891C52.8541 169.112 46.2599 162.539 42.4553 154.345L7.92585 170.379Z" fill="#01080F"/>
<path d="M141.01 97.1023C135.256 88.1626 127.694 80.5269 118.81 74.6869C109.926 68.8469 99.9177 64.9321 89.4292 63.1945C78.9407 61.4569 68.2046 61.935 57.9121 64.5981C47.6196 67.2612 37.9988 72.0502 29.6693 78.6568C21.3398 85.2633 14.4862 93.541 9.54963 102.957C4.61311 112.373 1.70315 122.718 1.00711 133.327C0.311068 143.935 1.84438 154.572 5.50832 164.552C9.17227 174.532 14.8856 183.635 22.2805 191.273L49.6326 164.792C45.9352 160.973 43.0785 156.422 41.2465 151.432C39.4145 146.442 38.6479 141.123 38.9959 135.819C39.3439 130.515 40.7989 125.342 43.2672 120.634C45.7354 115.926 49.1623 111.787 53.327 108.484C57.4918 105.181 62.3021 102.786 67.4484 101.455C72.5946 100.123 77.9627 99.8843 83.2069 100.753C88.4512 101.622 93.4554 103.579 97.8973 106.499C102.339 109.419 106.12 113.237 108.997 117.707L141.01 97.1023Z" fill="#ACEE78"/>
<circle cx="202.479" cy="94.601" r="15.5102" fill="#ACEE78"/>
<path d="M207.257 87.0398H209.802L204.244 93.4584L210.806 102.162H205.65L201.633 96.8862L197.012 102.162H194.468L200.427 95.3067L194.133 87.0398H199.423L203.072 91.879L207.257 87.0398ZM206.353 100.616H207.76L198.653 88.4848H197.113L206.353 100.616Z" fill="#01080F"/>
<path d="M234.637 100.769C233.836 100.769 233.119 100.619 232.486 100.319C231.853 100.014 231.351 99.5976 230.978 99.0689C230.61 98.5401 230.413 97.9353 230.389 97.2543H232.552C232.592 97.759 232.811 98.1716 233.207 98.4921C233.604 98.8085 234.081 98.9667 234.637 98.9667C235.074 98.9667 235.462 98.8666 235.803 98.6663C236.143 98.466 236.412 98.1876 236.608 97.8311C236.804 97.4746 236.901 97.068 236.897 96.6114C236.901 96.1467 236.802 95.7341 236.602 95.3736C236.402 95.0131 236.127 94.7307 235.779 94.5264C235.43 94.3181 235.03 94.2139 234.577 94.2139C234.209 94.2099 233.846 94.278 233.49 94.4182C233.133 94.5584 232.851 94.7427 232.642 94.971L230.63 94.6405L231.272 88.2955H238.411V90.1581H233.117L232.763 93.4208H232.835C233.063 93.1524 233.386 92.9301 233.802 92.7538C234.219 92.5736 234.675 92.4835 235.172 92.4835C235.917 92.4835 236.582 92.6597 237.167 93.0122C237.752 93.3607 238.212 93.8414 238.549 94.4543C238.885 95.0672 239.054 95.7682 239.054 96.5573C239.054 97.3705 238.865 98.0955 238.489 98.7324C238.116 99.3653 237.598 99.864 236.933 100.229C236.272 100.589 235.507 100.769 234.637 100.769ZM240.728 100.601V98.9908L245 94.8028C245.409 94.3902 245.749 94.0237 246.022 93.7032C246.294 93.3827 246.498 93.0723 246.635 92.7719C246.771 92.4714 246.839 92.151 246.839 91.8105C246.839 91.4219 246.751 91.0895 246.574 90.8131C246.398 90.5327 246.156 90.3164 245.847 90.1641C245.539 90.0119 245.188 89.9358 244.796 89.9358C244.391 89.9358 244.037 90.0199 243.732 90.1882C243.428 90.3524 243.192 90.5867 243.023 90.8912C242.859 91.1956 242.777 91.5581 242.777 91.9787H240.656C240.656 91.1976 240.834 90.5186 241.191 89.9418C241.547 89.365 242.038 88.9184 242.663 88.6019C243.292 88.2855 244.013 88.1272 244.826 88.1272C245.651 88.1272 246.376 88.2814 247.001 88.5899C247.626 88.8983 248.111 89.3209 248.455 89.8577C248.804 90.3945 248.978 91.0073 248.978 91.6963C248.978 92.157 248.89 92.6096 248.714 93.0543C248.537 93.4989 248.227 93.9916 247.782 94.5324C247.342 95.0732 246.723 95.7281 245.926 96.4972L243.805 98.6543V98.7384H249.164V100.601H240.728ZM257.478 98.2938V97.6448C257.478 97.1682 257.578 96.7295 257.779 96.329C257.983 95.9284 258.279 95.6059 258.668 95.3616C259.056 95.1172 259.527 94.9951 260.08 94.9951C260.649 94.9951 261.125 95.1172 261.51 95.3616C261.894 95.6019 262.185 95.9224 262.381 96.323C262.581 96.7235 262.682 97.1642 262.682 97.6448V98.2938C262.682 98.7705 262.581 99.2091 262.381 99.6097C262.181 100.01 261.886 100.333 261.498 100.577C261.113 100.821 260.641 100.944 260.08 100.944C259.519 100.944 259.044 100.821 258.656 100.577C258.267 100.333 257.973 100.01 257.773 99.6097C257.576 99.2091 257.478 98.7705 257.478 98.2938ZM259.046 97.6448V98.2938C259.046 98.6102 259.123 98.9006 259.275 99.165C259.427 99.4294 259.695 99.5616 260.08 99.5616C260.468 99.5616 260.735 99.4314 260.879 99.171C261.027 98.9066 261.101 98.6142 261.101 98.2938V97.6448C261.101 97.3244 261.031 97.032 260.891 96.7676C260.751 96.4992 260.48 96.365 260.08 96.365C259.703 96.365 259.437 96.4992 259.281 96.7676C259.125 97.032 259.046 97.3244 259.046 97.6448ZM251.223 91.2517V90.6028C251.223 90.1221 251.325 89.6814 251.53 89.2809C251.734 88.8803 252.03 88.5598 252.419 88.3195C252.807 88.0752 253.278 87.953 253.831 87.953C254.396 87.953 254.87 88.0752 255.255 88.3195C255.644 88.5598 255.936 88.8803 256.132 89.2809C256.329 89.6814 256.427 90.1221 256.427 90.6028V91.2517C256.427 91.7324 256.327 92.173 256.126 92.5736C255.93 92.9702 255.638 93.2886 255.249 93.529C254.86 93.7693 254.388 93.8895 253.831 93.8895C253.266 93.8895 252.789 93.7693 252.401 93.529C252.016 93.2886 251.724 92.9682 251.524 92.5676C251.323 92.167 251.223 91.7284 251.223 91.2517ZM252.803 90.6028V91.2517C252.803 91.5722 252.878 91.8646 253.026 92.129C253.178 92.3893 253.446 92.5195 253.831 92.5195C254.215 92.5195 254.48 92.3893 254.624 92.129C254.772 91.8646 254.846 91.5722 254.846 91.2517V90.6028C254.846 90.2823 254.776 89.9899 254.636 89.7255C254.496 89.4571 254.228 89.3229 253.831 89.3229C253.45 89.3229 253.184 89.4571 253.032 89.7255C252.88 89.9939 252.803 90.2863 252.803 90.6028ZM251.908 100.601L260.368 88.2955H261.87L253.41 100.601H251.908Z" fill="#34393F"/>
<circle cx="202.479" cy="138.312" r="15.5102" fill="#FFE766"/>
<path d="M198.661 145.291V135.873H195.669V145.291H198.661ZM197.165 134.586C198.209 134.586 198.858 133.863 198.858 132.959C198.839 132.035 198.209 131.332 197.185 131.332C196.162 131.332 195.492 132.035 195.492 132.959C195.492 133.863 196.142 134.586 197.146 134.586H197.165H197.165ZM200.317 145.291H203.31V140.031C203.31 139.75 203.329 139.469 203.408 139.268C203.624 138.705 204.117 138.123 204.943 138.123C206.026 138.123 206.459 138.986 206.459 140.252V145.291H209.451V139.891C209.451 136.998 207.975 135.652 206.006 135.652C204.392 135.652 203.683 136.596 203.29 137.239H203.31V135.873H200.317C200.357 136.756 200.317 145.291 200.317 145.291L200.317 145.291Z" fill="#01080F"/>
<path d="M234.776 144.48C233.91 144.48 233.141 144.332 232.468 144.035C231.799 143.739 231.27 143.326 230.882 142.797C230.493 142.269 230.287 141.658 230.263 140.965H232.522C232.542 141.297 232.652 141.588 232.853 141.836C233.053 142.08 233.319 142.271 233.652 142.407C233.984 142.543 234.357 142.611 234.77 142.611C235.21 142.611 235.601 142.535 235.941 142.383C236.282 142.227 236.548 142.01 236.74 141.734C236.933 141.457 237.027 141.139 237.023 140.778C237.027 140.406 236.931 140.077 236.734 139.793C236.538 139.509 236.254 139.286 235.881 139.126C235.513 138.966 235.068 138.886 234.547 138.886H233.46V137.167H234.547C234.976 137.167 235.35 137.093 235.671 136.945C235.995 136.797 236.25 136.588 236.434 136.32C236.618 136.048 236.708 135.733 236.704 135.377C236.708 135.028 236.63 134.726 236.47 134.469C236.314 134.209 236.091 134.007 235.803 133.863C235.519 133.718 235.184 133.646 234.8 133.646C234.423 133.646 234.075 133.714 233.754 133.851C233.434 133.987 233.175 134.181 232.979 134.433C232.783 134.682 232.679 134.978 232.666 135.323H230.521C230.537 134.634 230.736 134.029 231.116 133.508C231.501 132.983 232.014 132.575 232.654 132.282C233.295 131.986 234.014 131.838 234.812 131.838C235.633 131.838 236.346 131.992 236.951 132.3C237.559 132.605 238.03 133.015 238.363 133.532C238.695 134.049 238.861 134.62 238.861 135.245C238.865 135.938 238.661 136.518 238.248 136.987C237.84 137.456 237.303 137.762 236.638 137.906V138.002C237.503 138.123 238.166 138.443 238.627 138.964C239.092 139.481 239.322 140.124 239.318 140.893C239.318 141.582 239.122 142.198 238.729 142.743C238.341 143.284 237.804 143.709 237.119 144.017C236.438 144.326 235.657 144.48 234.776 144.48ZM245.591 144.546C244.601 144.546 243.752 144.296 243.043 143.795C242.338 143.29 241.795 142.563 241.415 141.614C241.038 140.66 240.85 139.513 240.85 138.171C240.854 136.829 241.044 135.687 241.421 134.746C241.801 133.8 242.344 133.079 243.049 132.583C243.758 132.086 244.605 131.838 245.591 131.838C246.576 131.838 247.423 132.086 248.132 132.583C248.841 133.079 249.384 133.8 249.761 134.746C250.141 135.691 250.331 136.833 250.331 138.171C250.331 139.517 250.141 140.666 249.761 141.62C249.384 142.569 248.841 143.294 248.132 143.795C247.427 144.296 246.58 144.546 245.591 144.546ZM245.591 142.665C246.36 142.665 246.967 142.287 247.411 141.53C247.86 140.768 248.084 139.649 248.084 138.171C248.084 137.193 247.982 136.372 247.778 135.707C247.573 135.042 247.285 134.542 246.912 134.205C246.54 133.865 246.099 133.694 245.591 133.694C244.825 133.694 244.221 134.075 243.776 134.836C243.331 135.593 243.107 136.705 243.103 138.171C243.099 139.152 243.197 139.977 243.397 140.646C243.602 141.315 243.89 141.82 244.263 142.16C244.635 142.497 245.078 142.665 245.591 142.665ZM258.569 142.004V141.355C258.569 140.879 258.669 140.44 258.869 140.039C259.073 139.639 259.37 139.316 259.758 139.072C260.147 138.828 260.618 138.706 261.17 138.706C261.739 138.706 262.216 138.828 262.6 139.072C262.985 139.312 263.275 139.633 263.472 140.033C263.672 140.434 263.772 140.875 263.772 141.355V142.004C263.772 142.481 263.672 142.92 263.472 143.32C263.271 143.721 262.977 144.043 262.588 144.287C262.204 144.532 261.731 144.654 261.17 144.654C260.61 144.654 260.135 144.532 259.746 144.287C259.358 144.043 259.063 143.721 258.863 143.32C258.667 142.92 258.569 142.481 258.569 142.004ZM260.137 141.355V142.004C260.137 142.321 260.213 142.611 260.365 142.875C260.518 143.14 260.786 143.272 261.17 143.272C261.559 143.272 261.825 143.142 261.97 142.881C262.118 142.617 262.192 142.325 262.192 142.004V141.355C262.192 141.035 262.122 140.742 261.982 140.478C261.841 140.21 261.571 140.075 261.17 140.075C260.794 140.075 260.528 140.21 260.371 140.478C260.215 140.742 260.137 141.035 260.137 141.355ZM252.314 134.962V134.313C252.314 133.833 252.416 133.392 252.62 132.991C252.824 132.591 253.121 132.27 253.509 132.03C253.898 131.786 254.369 131.663 254.921 131.663C255.486 131.663 255.961 131.786 256.346 132.03C256.734 132.27 257.027 132.591 257.223 132.991C257.419 133.392 257.517 133.833 257.517 134.313V134.962C257.517 135.443 257.417 135.883 257.217 136.284C257.02 136.681 256.728 136.999 256.34 137.239C255.951 137.48 255.478 137.6 254.921 137.6C254.357 137.6 253.88 137.48 253.491 137.239C253.107 136.999 252.814 136.679 252.614 136.278C252.414 135.877 252.314 135.439 252.314 134.962ZM253.894 134.313V134.962C253.894 135.283 253.968 135.575 254.116 135.839C254.269 136.1 254.537 136.23 254.921 136.23C255.306 136.23 255.57 136.1 255.715 135.839C255.863 135.575 255.937 135.283 255.937 134.962V134.313C255.937 133.993 255.867 133.7 255.727 133.436C255.586 133.168 255.318 133.033 254.921 133.033C254.541 133.033 254.275 133.168 254.122 133.436C253.97 133.704 253.894 133.997 253.894 134.313ZM252.999 144.312L261.459 132.006H262.961L254.501 144.312H252.999Z" fill="#34393F"/>
<circle cx="202.479" cy="182.022" r="15.5102" fill="#01080F"/>
<g clip-path="url(#clip0_77_2623)">
<path d="M211.199 182.022C211.199 177.203 207.293 173.298 202.474 173.298C197.656 173.298 193.75 177.203 193.75 182.022C193.75 186.377 196.939 189.987 201.112 190.641V184.546H198.898V182.022H201.112V180.1C201.112 177.915 202.412 176.706 204.406 176.706C205.362 176.706 206.361 176.878 206.361 176.878V179.025H205.262C204.176 179.025 203.842 179.699 203.842 180.387V182.022H206.261L205.874 184.546H203.842V190.641C208.01 189.987 211.199 186.377 211.199 182.022Z" fill="#F8F8F8"/>
<path d="M205.865 184.546L206.253 182.022H203.834V180.387C203.834 179.699 204.173 179.025 205.254 179.025H206.353V176.878C206.353 176.878 205.354 176.706 204.398 176.706C202.405 176.706 201.104 177.916 201.104 180.1V182.022H198.891V184.546H201.104V190.641C201.549 190.713 202.003 190.747 202.467 190.747C202.93 190.747 203.384 190.708 203.829 190.641V184.546H205.865Z" fill="#01080F"/>
</g>
<path d="M235.364 175.717V188.022H233.135V177.886H233.063L230.185 179.724V177.681L233.243 175.717H235.364ZM242.525 188.19C241.631 188.19 240.838 188.04 240.145 187.74C239.456 187.439 238.916 187.029 238.523 186.508C238.134 185.983 237.942 185.388 237.946 184.723C237.942 184.207 238.054 183.732 238.283 183.299C238.511 182.867 238.819 182.506 239.208 182.218C239.6 181.925 240.037 181.739 240.518 181.659V181.575C239.885 181.435 239.372 181.112 238.98 180.608C238.591 180.099 238.399 179.512 238.403 178.847C238.399 178.214 238.575 177.649 238.932 177.153C239.288 176.656 239.777 176.265 240.398 175.981C241.019 175.693 241.728 175.548 242.525 175.548C243.314 175.548 244.017 175.693 244.634 175.981C245.255 176.265 245.743 176.656 246.1 177.153C246.46 177.649 246.641 178.214 246.641 178.847C246.641 179.512 246.442 180.099 246.046 180.608C245.653 181.112 245.146 181.435 244.526 181.575V181.659C245.006 181.739 245.439 181.925 245.823 182.218C246.212 182.506 246.52 182.867 246.749 183.299C246.981 183.732 247.097 184.207 247.097 184.723C247.097 185.388 246.901 185.983 246.508 186.508C246.116 187.029 245.575 187.439 244.886 187.74C244.201 188.04 243.414 188.19 242.525 188.19ZM242.525 186.472C242.985 186.472 243.386 186.394 243.726 186.238C244.067 186.077 244.331 185.853 244.52 185.565C244.708 185.276 244.804 184.944 244.808 184.567C244.804 184.175 244.702 183.828 244.502 183.528C244.305 183.223 244.035 182.985 243.69 182.813C243.35 182.641 242.961 182.554 242.525 182.554C242.084 182.554 241.691 182.641 241.347 182.813C241.002 182.985 240.73 183.223 240.53 183.528C240.334 183.828 240.237 184.175 240.241 184.567C240.237 184.944 240.33 185.276 240.518 185.565C240.706 185.849 240.97 186.071 241.311 186.232C241.655 186.392 242.06 186.472 242.525 186.472ZM242.525 180.866C242.901 180.866 243.234 180.79 243.522 180.638C243.815 180.485 244.045 180.273 244.213 180.001C244.381 179.728 244.467 179.414 244.471 179.057C244.467 178.705 244.383 178.396 244.219 178.132C244.055 177.864 243.827 177.657 243.534 177.513C243.242 177.365 242.905 177.291 242.525 177.291C242.136 177.291 241.794 177.365 241.497 177.513C241.205 177.657 240.976 177.864 240.812 178.132C240.652 178.396 240.574 178.705 240.578 179.057C240.574 179.414 240.654 179.728 240.818 180.001C240.986 180.269 241.217 180.481 241.509 180.638C241.806 180.79 242.144 180.866 242.525 180.866ZM255.314 185.715V185.066C255.314 184.589 255.414 184.151 255.614 183.75C255.818 183.35 256.115 183.027 256.503 182.783C256.892 182.538 257.362 182.416 257.915 182.416C258.484 182.416 258.961 182.538 259.345 182.783C259.73 183.023 260.02 183.344 260.217 183.744C260.417 184.145 260.517 184.585 260.517 185.066V185.715C260.517 186.192 260.417 186.63 260.217 187.031C260.016 187.431 259.722 187.754 259.333 187.998C258.949 188.243 258.476 188.365 257.915 188.365C257.354 188.365 256.88 188.243 256.491 187.998C256.103 187.754 255.808 187.431 255.608 187.031C255.412 186.63 255.314 186.192 255.314 185.715ZM256.882 185.066V185.715C256.882 186.031 256.958 186.322 257.11 186.586C257.262 186.851 257.531 186.983 257.915 186.983C258.304 186.983 258.57 186.853 258.714 186.592C258.863 186.328 258.937 186.035 258.937 185.715V185.066C258.937 184.746 258.867 184.453 258.726 184.189C258.586 183.92 258.316 183.786 257.915 183.786C257.539 183.786 257.272 183.92 257.116 184.189C256.96 184.453 256.882 184.746 256.882 185.066ZM249.059 178.673V178.024C249.059 177.543 249.161 177.103 249.365 176.702C249.569 176.301 249.866 175.981 250.254 175.741C250.643 175.496 251.114 175.374 251.666 175.374C252.231 175.374 252.706 175.496 253.09 175.741C253.479 175.981 253.771 176.301 253.968 176.702C254.164 177.103 254.262 177.543 254.262 178.024V178.673C254.262 179.154 254.162 179.594 253.962 179.995C253.765 180.391 253.473 180.71 253.084 180.95C252.696 181.19 252.223 181.311 251.666 181.311C251.102 181.311 250.625 181.19 250.236 180.95C249.852 180.71 249.559 180.389 249.359 179.989C249.159 179.588 249.059 179.15 249.059 178.673ZM250.639 178.024V178.673C250.639 178.993 250.713 179.286 250.861 179.55C251.013 179.81 251.282 179.941 251.666 179.941C252.051 179.941 252.315 179.81 252.459 179.55C252.608 179.286 252.682 178.993 252.682 178.673V178.024C252.682 177.703 252.612 177.411 252.471 177.147C252.331 176.878 252.063 176.744 251.666 176.744C251.286 176.744 251.019 176.878 250.867 177.147C250.715 177.415 250.639 177.707 250.639 178.024ZM249.744 188.022L258.204 175.717H259.706L251.246 188.022H249.744Z" fill="#34393F"/>
<defs>
<clipPath id="clip0_77_2623">
<rect width="17.449" height="17.449" fill="white" transform="translate(193.75 173.298)"/>
</clipPath>
</defs>
</svg>
