<svg width="40" height="40" viewBox="0 0 40 40" fill="none" xmlns="http://www.w3.org/2000/svg">
<circle cx="20" cy="20" r="20" fill="#F8F8F8"/>
<path d="M29 14.6583C28.3362 14.9388 27.6261 15.1308 26.8799 15.2144C27.6415 14.7765 28.2281 14.0826 28.506 13.2608C27.7907 13.6643 27.0034 13.9596 26.1595 14.117C25.4854 13.4281 24.5232 13 23.4631 13C21.4202 13 19.7684 14.5845 19.7684 16.5332C19.7684 16.8088 19.7993 17.0794 19.8662 17.3402C16.7942 17.1926 14.072 15.7852 12.2504 13.6496C11.9314 14.1712 11.7513 14.7765 11.7513 15.426C11.7513 16.6513 12.4048 17.7339 13.3928 18.3687C12.7856 18.349 12.2196 18.1916 11.7204 17.9258C11.7204 17.9406 11.7204 17.9554 11.7204 17.9701C11.7204 19.6826 12.9966 21.1097 14.6844 21.4344C14.3756 21.5132 14.0463 21.5575 13.7118 21.5575C13.4751 21.5575 13.2436 21.5329 13.0172 21.4935C13.4854 22.896 14.8542 23.9195 16.47 23.949C15.2041 24.8988 13.6141 25.4598 11.8799 25.4598C11.5815 25.4598 11.2882 25.445 11 25.4105C12.6364 26.4144 14.5763 27 16.6655 27C23.4631 27 27.1784 21.6165 27.1784 16.9466C27.1784 16.794 27.1732 16.6415 27.1681 16.4889C27.8782 15.987 28.506 15.367 29 14.6583Z" fill="#55ACEE"/>
</svg>
