<svg width="40" height="40" viewBox="0 0 40 40" fill="none" xmlns="http://www.w3.org/2000/svg">
<circle cx="20" cy="20" r="20" fill="#F8F8F8"/>
<g clip-path="url(#clip0_5515_45958)">
<path d="M20.0053 14.8956C19.8294 14.8956 19.6555 14.9046 19.4841 14.9221C19.3127 14.9397 19.1437 14.9658 18.9775 15C18.8114 15.0342 18.6482 15.0766 18.4883 15.1266L18.0189 15.2993L17.572 15.5154L17.1502 15.7725L16.7562 16.0678L16.3926 16.3987L16.0619 16.7626L15.7669 17.1569L15.51 17.579L15.294 18.0262C15.2291 18.1792 15.1714 18.336 15.1214 18.4961C15.0714 18.6562 15.0292 18.8196 14.9949 18.9859C14.9607 19.1521 14.9347 19.3212 14.9171 19.4928C14.8995 19.6644 14.8906 19.8385 14.8906 20.0145C14.8906 20.1905 14.8996 20.3646 14.9171 20.5361C14.9345 20.7064 14.9605 20.8756 14.9949 21.0432C15.0292 21.2101 15.0714 21.3728 15.1214 21.5329C15.1714 21.693 15.2291 21.8498 15.294 22.0028L15.51 22.45L15.7669 22.872L16.0619 23.2664L16.3926 23.6304L16.7562 23.9612L17.1502 24.2565L17.572 24.5136L18.0189 24.7298L18.4883 24.9024L18.9775 25.029C19.145 25.0635 19.314 25.0895 19.4841 25.1069C19.6573 25.1246 19.8312 25.1335 20.0053 25.1335C20.1812 25.1335 20.3552 25.1245 20.5265 25.1069C20.6965 25.0895 20.8656 25.0635 21.033 25.029L21.5224 24.9024L21.9918 24.7298L22.4386 24.5136L22.8604 24.2565L23.2545 23.9612L23.6181 23.6304L23.9488 23.2664L24.2438 22.872L24.5007 22.45L24.7167 22.0028L24.8893 21.5329C24.9393 21.3728 24.9815 21.2094 25.0158 21.0432L25.0936 20.5361C25.1112 20.3645 25.1201 20.1904 25.1201 20.0144C25.1201 19.8384 25.1112 19.6643 25.0936 19.4928C25.0762 19.3226 25.0502 19.1534 25.0158 18.9858C24.9815 18.8189 24.9393 18.6562 24.8893 18.496L24.7167 18.0262L24.5007 17.579L24.2438 17.1569L23.9488 16.7626L23.6181 16.3986L23.2545 16.0677L22.8604 15.7725L22.4386 15.5154L21.9918 15.2992L21.5224 15.1265L21.033 14.9999L20.5265 14.9221C20.3533 14.9044 20.1794 14.8955 20.0053 14.8955V14.8956ZM20.0053 16.6624C20.1216 16.6624 20.2364 16.6682 20.3494 16.6796L20.6826 16.7301L21.0044 16.8123L21.3126 16.9244L21.6056 17.065L21.8811 17.2322L22.1387 17.4246L22.3761 17.6404L22.5918 17.878L22.784 18.1358L22.9511 18.4122L23.0914 18.7055C23.1336 18.8059 23.171 18.9088 23.2035 19.014C23.2361 19.1192 23.2634 19.2268 23.2855 19.3363C23.3076 19.4458 23.324 19.5572 23.336 19.6704L23.3531 20.0148C23.3531 20.1312 23.3474 20.2461 23.336 20.3593C23.3246 20.4725 23.3078 20.584 23.2855 20.6934C23.2633 20.8028 23.2359 20.9104 23.2035 21.0156L23.0914 21.3241L22.9511 21.6175L22.784 21.8938L22.5918 22.1516L22.3761 22.3893L22.1387 22.6051L21.8811 22.7974L21.6056 22.9647L21.3126 23.1052L21.0044 23.2174L20.6826 23.2995L20.3494 23.35C20.235 23.3615 20.1202 23.3672 20.0053 23.3672C19.8903 23.3672 19.7754 23.3615 19.6611 23.35L19.3279 23.2995C19.2185 23.2773 19.1111 23.2498 19.006 23.2174L18.6978 23.1052L18.4048 22.9647L18.1293 22.7974L17.8717 22.6051L17.6342 22.3893L17.4186 22.1516L17.2264 21.8938L17.0593 21.6175L16.919 21.3241L16.8069 21.0156L16.7248 20.6934L16.6744 20.3593C16.663 20.2448 16.6572 20.1299 16.6572 20.0148C16.6572 19.8998 16.663 19.7848 16.6744 19.6704C16.6858 19.5572 16.7026 19.4457 16.7248 19.3363C16.7469 19.2276 16.7742 19.1201 16.8069 19.0141L16.919 18.7056L17.0594 18.4123L17.2265 18.1359L17.4187 17.8781L17.6343 17.6405L17.8717 17.4247L18.1293 17.2323L18.4048 17.0651L18.6978 16.9245C18.7987 16.8821 18.9016 16.8447 19.0061 16.8124L19.328 16.7302C19.4374 16.708 19.5487 16.6911 19.6612 16.6797C19.7756 16.6682 19.8904 16.6625 20.0054 16.6625L20.0053 16.6624Z" fill="url(#paint0_radial_5515_45958)"/>
<path d="M25.3274 13.4395C25.2868 13.4395 25.2462 13.4415 25.2058 13.4456C25.1654 13.4497 25.1252 13.4558 25.0854 13.464C25.0456 13.4721 25.0062 13.4822 24.9674 13.4943C24.9286 13.5064 24.8905 13.5205 24.8531 13.5364C24.8157 13.5524 24.7791 13.5703 24.7434 13.5899C24.7078 13.6095 24.6732 13.6309 24.6396 13.654C24.6061 13.6772 24.5738 13.702 24.5427 13.7284C24.5116 13.7547 24.4819 13.7826 24.4536 13.812C24.4253 13.8414 24.3985 13.8722 24.3733 13.9042C24.3481 13.9363 24.3244 13.9697 24.3025 14.0041C24.2806 14.0386 24.2604 14.0741 24.2419 14.1105C24.2235 14.147 24.2069 14.1844 24.1922 14.2226C24.1774 14.2608 24.1646 14.2997 24.1538 14.3391C24.1429 14.3786 24.134 14.4185 24.1271 14.4589C24.1202 14.4992 24.1153 14.5399 24.1124 14.5807C24.1104 14.6097 24.1094 14.6386 24.1094 14.6676C24.1094 14.7086 24.1114 14.7495 24.1155 14.7903C24.1195 14.831 24.1256 14.8716 24.1337 14.9117C24.1417 14.9518 24.1518 14.9915 24.1638 15.0306C24.1758 15.0698 24.1897 15.1082 24.2055 15.146C24.2214 15.1837 24.2391 15.2206 24.2585 15.2566C24.278 15.2925 24.2992 15.3275 24.3222 15.3613C24.3451 15.395 24.3697 15.4276 24.3958 15.459C24.422 15.4903 24.4497 15.5203 24.4788 15.5488C24.508 15.5773 24.5385 15.6044 24.5703 15.6298C24.6021 15.6553 24.6352 15.6791 24.6694 15.7013C24.7036 15.7234 24.7388 15.7438 24.775 15.7624C24.8112 15.781 24.8483 15.7977 24.8861 15.8126C24.924 15.8274 24.9625 15.8403 25.0017 15.8513C25.0408 15.8622 25.0804 15.8712 25.1204 15.8781C25.1605 15.8851 25.2008 15.89 25.2413 15.8929C25.27 15.895 25.2987 15.896 25.3275 15.896C25.3681 15.896 25.4087 15.894 25.4491 15.8899C25.4895 15.8858 25.5297 15.8797 25.5695 15.8716C25.6093 15.8634 25.6486 15.8533 25.6874 15.8412C25.7262 15.8291 25.7644 15.815 25.8018 15.7991C25.8392 15.7831 25.8758 15.7653 25.9114 15.7457C25.9471 15.726 25.9817 15.7046 26.0152 15.6815C26.0487 15.6584 26.0811 15.6336 26.1122 15.6072C26.1432 15.5808 26.1729 15.5529 26.2012 15.5235C26.2295 15.4942 26.2563 15.4634 26.2816 15.4313C26.3068 15.3992 26.3304 15.3659 26.3524 15.3314C26.3743 15.297 26.3945 15.2614 26.4129 15.2249C26.4314 15.1884 26.448 15.151 26.4627 15.1128C26.4774 15.0747 26.4902 15.0358 26.5011 14.9963C26.512 14.9569 26.5208 14.9169 26.5277 14.8766C26.5346 14.8362 26.5395 14.7956 26.5424 14.7547C26.5445 14.7258 26.5455 14.6968 26.5455 14.6678C26.5455 14.6269 26.5435 14.586 26.5394 14.5452C26.5354 14.5045 26.5293 14.464 26.5212 14.4238C26.5131 14.3837 26.5031 14.344 26.4911 14.3049C26.4791 14.2658 26.4651 14.2273 26.4493 14.1896C26.4335 14.1518 26.4158 14.1149 26.3963 14.079C26.3769 14.043 26.3556 14.0081 26.3327 13.9743C26.3098 13.9405 26.2851 13.9078 26.259 13.8765C26.2328 13.8452 26.2052 13.8152 26.176 13.7866C26.1469 13.7581 26.1164 13.7311 26.0846 13.7056C26.0527 13.6802 26.0197 13.6564 25.9855 13.6343C25.9513 13.6121 25.916 13.5917 25.8798 13.5732C25.8437 13.5546 25.8066 13.5378 25.7687 13.523C25.7309 13.5081 25.6923 13.4952 25.6532 13.4843C25.6141 13.4733 25.5744 13.4643 25.5344 13.4574C25.4944 13.4504 25.4541 13.4455 25.4136 13.4426C25.3849 13.4405 25.3562 13.4395 25.3274 13.4395V13.4395Z" fill="url(#paint1_radial_5515_45958)"/>
<path d="M19.0388 10.0002C18.4826 9.99929 17.9861 10.0016 17.5402 10.0079L16.3446 10.04C15.9904 10.0554 15.6774 10.0755 15.3965 10.1015C15.2561 10.1144 15.1236 10.1289 14.998 10.1449C14.8785 10.16 14.7593 10.1776 14.6406 10.1976C14.5275 10.2169 14.4201 10.2377 14.3172 10.2603C14.2143 10.2829 14.116 10.3073 14.0212 10.3335C13.9285 10.3591 13.8365 10.3872 13.7454 10.4179C13.6561 10.4481 13.5689 10.4801 13.4829 10.5142C13.3108 10.5825 13.1429 10.6591 12.97 10.745C12.837 10.8111 12.7141 10.8781 12.5974 10.949C12.4807 11.0198 12.3701 11.0947 12.2618 11.1762C12.1503 11.2605 12.0428 11.3501 11.9397 11.4446C11.8319 11.543 11.7218 11.6511 11.6075 11.772C11.4637 11.923 11.3389 12.0638 11.228 12.202C11.1726 12.2711 11.1207 12.3394 11.0718 12.4081C11.0235 12.4758 10.9772 12.545 10.9332 12.6155C10.8897 12.6855 10.8484 12.7568 10.8089 12.8301C10.7688 12.9046 10.731 12.9804 10.6953 13.0572C10.6224 13.214 10.5544 13.383 10.4864 13.5716C10.4361 13.711 10.3909 13.8523 10.3512 13.9951C10.3106 14.1411 10.2746 14.2938 10.2424 14.4589C10.2102 14.6241 10.1822 14.8017 10.1575 14.9981C10.1309 15.2134 10.1097 15.4293 10.0938 15.6457C10.0759 15.8836 10.061 16.1453 10.0488 16.4367L10.02 17.4054L10.0045 18.5863L10 20.0137L10.0131 22.0893L10.0541 23.662L10.0857 24.2762L10.1252 24.7853C10.1379 24.9225 10.1537 25.0593 10.1727 25.1958C10.19 25.317 10.2086 25.423 10.2285 25.5148C10.2691 25.7014 10.3171 25.8864 10.3723 26.0692C10.4252 26.2442 10.4857 26.4168 10.5537 26.5865C10.6204 26.7528 10.6935 26.9131 10.7729 27.0674C10.8524 27.2217 10.9382 27.37 11.0305 27.5124C11.1228 27.6549 11.2214 27.7915 11.3268 27.9222C11.432 28.053 11.5439 28.1782 11.6621 28.2973C11.7804 28.4167 11.9052 28.5303 12.0368 28.6383C12.1699 28.7475 12.3082 28.8501 12.4513 28.9458C12.5841 29.0347 12.7155 29.1162 12.8479 29.191C12.9803 29.2657 13.1138 29.3336 13.2511 29.3953C13.3883 29.457 13.529 29.5125 13.676 29.5624C13.823 29.6124 13.9761 29.6568 14.138 29.6962C14.2998 29.7356 14.4711 29.7702 14.6525 29.8004C14.8338 29.8305 15.0276 29.8564 15.2347 29.8787C15.4418 29.901 15.6627 29.9194 15.9001 29.9348C16.1375 29.9502 16.3912 29.9625 16.6638 29.9724C17.085 29.9877 17.7225 29.9966 18.4577 30L20.8377 29.9952L23.0914 29.9635L23.9483 29.9394L24.5066 29.9106C24.6264 29.9009 24.7436 29.8893 24.8568 29.8758C24.9699 29.8622 25.0816 29.8468 25.1902 29.8292C25.2989 29.8116 25.4051 29.792 25.5095 29.7701C25.6127 29.7486 25.7153 29.7246 25.8173 29.6981C25.9183 29.6724 26.0179 29.6432 26.1164 29.6122C26.215 29.5812 26.3125 29.5477 26.4094 29.5117C26.5069 29.4755 26.6035 29.437 26.6992 29.3961C26.7955 29.355 26.8916 29.3111 26.9881 29.2645C27.1363 29.193 27.2556 29.1334 27.3604 29.0752C27.4589 29.021 27.5538 28.9605 27.6445 28.8939C27.7339 28.8279 27.8229 28.7528 27.9254 28.6582C28.0279 28.5636 28.1441 28.4496 28.2879 28.3054C28.4143 28.1788 28.5209 28.0688 28.6129 27.9688C28.7048 27.8687 28.7823 27.7786 28.8502 27.6918C28.915 27.6095 28.9753 27.5237 29.0309 27.435C29.0852 27.3483 29.1351 27.2583 29.1861 27.1585C29.2627 27.0083 29.3309 26.8692 29.3919 26.735C29.4512 26.6056 29.5054 26.474 29.5543 26.3404C29.6025 26.2078 29.6442 26.0729 29.6793 25.9363C29.7155 25.7957 29.7466 25.6473 29.7735 25.4845C29.8004 25.3217 29.8232 25.1446 29.8429 24.9468C29.8626 24.7489 29.8794 24.5303 29.8942 24.2846L29.9332 23.46L29.9668 22.4345L29.9908 21.2919L30 20.0972L29.9786 17.7508L29.95 16.6999L29.9109 15.7975L29.8622 15.094C29.8445 14.8982 29.8254 14.744 29.8052 14.6398C29.7828 14.5246 29.7577 14.41 29.7301 14.2959C29.7032 14.185 29.6736 14.0747 29.6413 13.9652C29.6099 13.8585 29.5758 13.7526 29.5389 13.6476C29.5025 13.544 29.464 13.4425 29.4236 13.3432C29.3832 13.2439 29.3395 13.1469 29.294 13.052C29.2486 12.957 29.2009 12.8644 29.1508 12.7739C29.1008 12.6834 29.0486 12.5951 28.9941 12.5091C28.9396 12.423 28.8828 12.3391 28.8237 12.2574C28.7649 12.1761 28.7036 12.0965 28.6398 12.019C28.5764 11.9419 28.5105 11.8668 28.4423 11.7938C28.3742 11.7209 28.3039 11.6503 28.2313 11.5819C28.1587 11.5134 28.084 11.4472 28.0068 11.3831C27.9294 11.3189 27.85 11.257 27.7687 11.1977C27.6866 11.1378 27.6027 11.0803 27.517 11.0255C27.4303 10.9699 27.3418 10.9169 27.2519 10.8666C27.1604 10.8154 27.0675 10.7669 26.9732 10.721C26.8167 10.6448 26.672 10.5772 26.53 10.5173C26.3904 10.4578 26.248 10.4049 26.1034 10.3589C25.958 10.313 25.8066 10.2737 25.64 10.2397C25.4734 10.2058 25.2917 10.1775 25.0861 10.1534C24.8805 10.1293 24.6509 10.1099 24.3884 10.0937C24.1258 10.0775 23.8305 10.0648 23.4933 10.0546L22.3473 10.0289L20.8968 10.0117L19.0395 10.0003L19.0388 10.0002ZM20.0035 11.7655L22.6819 11.7808L23.6923 11.8003C23.9706 11.8081 24.1829 11.8173 24.3074 11.8279C24.4695 11.8416 24.624 11.8587 24.7716 11.8792C24.9134 11.8988 25.0544 11.9232 25.1945 11.9524C25.3291 11.9806 25.4574 12.0127 25.5802 12.0489C25.7031 12.0851 25.8204 12.1257 25.933 12.1705C26.0455 12.2154 26.1532 12.2648 26.2568 12.3188C26.3596 12.3724 26.4594 12.4315 26.556 12.4956C26.6521 12.5595 26.7448 12.6283 26.8347 12.7025C26.9247 12.7766 27.0119 12.8561 27.097 12.941C27.1869 13.0307 27.2699 13.1221 27.3463 13.2163C27.4224 13.3099 27.4929 13.4081 27.5573 13.5102C27.6224 13.6138 27.6811 13.7213 27.733 13.8321C27.786 13.9451 27.8337 14.0645 27.8765 14.1914C27.9193 14.3183 27.9574 14.4531 27.9912 14.5972C28.0266 14.75 28.0562 14.9041 28.08 15.0591C28.1056 15.2234 28.1275 15.3986 28.1461 15.5863C28.1647 15.7739 28.1801 15.974 28.1928 16.188C28.2029 16.3597 28.2117 16.5863 28.2192 16.8539L28.238 17.7664L28.2523 20.0014L28.236 22.2343L28.2164 23.1441L28.1894 23.8059C28.1707 24.1157 28.151 24.3762 28.1274 24.6029C28.1156 24.7163 28.1027 24.8211 28.0885 24.9195C28.0752 25.0125 28.0594 25.1051 28.0412 25.1972C28.0245 25.2813 28.0052 25.3647 27.9832 25.4476C27.9621 25.5266 27.9384 25.6049 27.9121 25.6823C27.8856 25.7601 27.8568 25.8371 27.8257 25.9131C27.7928 25.9934 27.7581 26.073 27.7216 26.1517C27.6891 26.222 27.6549 26.2903 27.6188 26.3569C27.5831 26.4228 27.5451 26.4875 27.505 26.5508C27.4653 26.6135 27.4236 26.6744 27.3801 26.7334C27.3367 26.7922 27.2913 26.8494 27.2438 26.9049C27.1965 26.9602 27.1472 27.0137 27.096 27.0654C27.0448 27.117 26.9916 27.1669 26.9365 27.215C26.8814 27.2632 26.8242 27.3094 26.7651 27.354C26.7059 27.3985 26.6448 27.4412 26.5815 27.4822C26.5183 27.5232 26.453 27.5624 26.3857 27.5999C26.3184 27.6374 26.2489 27.6732 26.1775 27.7073C26.1048 27.7419 26.0311 27.7743 25.9565 27.8045C25.8793 27.8357 25.8014 27.8647 25.7226 27.8915C25.5624 27.9462 25.3935 27.9942 25.2156 28.0356C25.0302 28.0785 24.8431 28.1135 24.6548 28.1407C24.5824 28.1513 24.416 28.1613 24.1777 28.1705L23.2694 28.1958L20.6943 28.2293L17.999 28.2335L16.9405 28.2222L16.2532 28.2008L15.7464 28.1651C15.589 28.1518 15.4427 28.1371 15.3056 28.1203C15.1684 28.1035 15.0408 28.0849 14.9206 28.0638C14.8068 28.0441 14.6936 28.0205 14.5813 27.9932C14.479 27.9683 14.3777 27.9392 14.2776 27.906C14.1812 27.8739 14.089 27.8386 13.9993 27.7998C13.9096 27.761 13.8225 27.7184 13.7362 27.6719C13.6499 27.6255 13.5644 27.575 13.4781 27.52C13.4129 27.4785 13.3499 27.4366 13.2893 27.3921C13.2287 27.3476 13.1701 27.3032 13.1138 27.2568C13.0574 27.2103 13.0032 27.1624 12.951 27.1131C12.8991 27.0641 12.849 27.0131 12.8008 26.9605C12.7528 26.908 12.7068 26.8539 12.6627 26.798C12.6185 26.7418 12.5763 26.684 12.5363 26.6246C12.4957 26.5644 12.4573 26.5028 12.4212 26.4398C12.3847 26.3762 12.3499 26.3105 12.3169 26.2427C12.2834 26.1736 12.2521 26.1035 12.2231 26.0324C12.1936 25.96 12.1657 25.8853 12.1394 25.8081C12.0869 25.6537 12.0407 25.4894 12.0006 25.3142C11.9605 25.1389 11.9263 24.9528 11.8973 24.7544C11.8684 24.5561 11.845 24.3458 11.8265 24.1223C11.8128 23.9577 11.8019 23.7012 11.7935 23.3777L11.7761 22.2271L11.7825 19.294L11.8329 16.4913L11.8714 15.5038L11.8932 15.1774C11.9007 15.0903 11.9085 15.0257 11.9166 14.9869C11.9429 14.8594 11.9695 14.7407 11.997 14.6296C12.0227 14.5248 12.0513 14.4207 12.0827 14.3174C12.1126 14.22 12.144 14.1287 12.1776 14.0423C12.2101 13.9585 12.2462 13.8762 12.286 13.7957C12.3248 13.7174 12.3665 13.6424 12.4118 13.5695C12.4571 13.4965 12.506 13.4257 12.5593 13.3553C12.6126 13.2848 12.6701 13.2153 12.7325 13.1448C12.795 13.0744 12.8625 13.0032 12.9356 12.9298C13.0209 12.8439 13.1097 12.7616 13.2018 12.683C13.2887 12.6089 13.3794 12.5393 13.4735 12.4745C13.5659 12.4103 13.6607 12.3531 13.7595 12.3006C13.8582 12.2481 13.9609 12.2007 14.0688 12.158C14.1768 12.1153 14.2902 12.0771 14.4103 12.0425C14.5365 12.007 14.6642 11.9767 14.7929 11.9518C14.9282 11.9252 15.0719 11.902 15.2253 11.8818C15.3788 11.8616 15.5421 11.8441 15.7166 11.829C15.8383 11.8185 16.0481 11.8091 16.3243 11.8012L17.3296 11.7813L20.0039 11.7649L20.0035 11.7655Z" fill="url(#paint2_radial_5515_45958)"/>
</g>
<defs>
<radialGradient id="paint0_radial_5515_45958" cx="0" cy="0" r="1" gradientUnits="userSpaceOnUse" gradientTransform="translate(13.1829 31.4579) rotate(-9.54789) scale(42.2718 25.7025)">
<stop stop-color="#FED576"/>
<stop offset="0.263" stop-color="#F47133"/>
<stop offset="0.609" stop-color="#BC3081"/>
<stop offset="1" stop-color="#4C63D2"/>
</radialGradient>
<radialGradient id="paint1_radial_5515_45958" cx="0" cy="0" r="1" gradientUnits="userSpaceOnUse" gradientTransform="translate(13.1828 31.458) rotate(-9.54789) scale(42.2718 25.7025)">
<stop stop-color="#FED576"/>
<stop offset="0.263" stop-color="#F47133"/>
<stop offset="0.609" stop-color="#BC3081"/>
<stop offset="1" stop-color="#4C63D2"/>
</radialGradient>
<radialGradient id="paint2_radial_5515_45958" cx="0" cy="0" r="1" gradientUnits="userSpaceOnUse" gradientTransform="translate(13.1863 31.4579) rotate(-9.54789) scale(42.2718 25.7025)">
<stop stop-color="#FED576"/>
<stop offset="0.263" stop-color="#F47133"/>
<stop offset="0.609" stop-color="#BC3081"/>
<stop offset="1" stop-color="#4C63D2"/>
</radialGradient>
<clipPath id="clip0_5515_45958">
<rect width="20" height="20" fill="white" transform="translate(10 10)"/>
</clipPath>
</defs>
</svg>
