<svg width="1086" height="652" viewBox="0 0 1086 652" fill="none" xmlns="http://www.w3.org/2000/svg">
<path d="M75.9994 322.5C53.1661 238.167 44.2994 69 191.499 67C375.499 64.5 389.999 145.091 501.999 140C556.999 137.5 786.499 50.5 534.499 6.5C378.336 -20.7666 263.999 52.5001 336.999 187.5C409.999 322.5 1090.5 279.5 1073.5 140C1056.5 0.500061 838.499 61.5 778.999 187.5C737.882 274.573 882.499 725 1051 558.5C1206.26 405.08 789.999 315.5 742.499 436.5C694.999 557.5 674.499 649.5 539.499 632C404.499 614.5 263.153 473.917 343.499 404.5C541.999 233 402.477 621.798 261.499 645C-57.502 697.5 -25.5003 403.5 54.4996 364.5C185.939 300.423 344.54 516.5 196.499 516.5C117.499 516.5 123.499 320.5 275.499 294.5C427.499 268.5 781.999 390 642.999 333C531.799 287.4 490.999 361.667 484.499 404.5" stroke="#A64157" stroke-opacity="0.3"/>
</svg>
