<svg width="375" height="1151" viewBox="0 0 375 1151" fill="none" xmlns="http://www.w3.org/2000/svg">
<path d="M-56.5 0.5C-45 73 -33.5 103 66 90.5C165.5 78 212.5 52 254.5 54.5C296.5 57 455.019 91.0253 322 165.5C155 259 534 175 371.5 265C283.975 313.475 239 246.5 179.5 240.5C120 234.5 176 145.5 85.0003 190C-15.4933 239.142 6.50031 364 58.0003 365.5C109.5 367 152 382.5 191.5 381.5C231 380.5 300.693 333.167 337 372.5C391 431 320 581 238.5 587C157 593 351.14 635.46 209 602.5C140.001 586.5 181.925 574.502 117.501 540.5C27.5007 493 -45.9993 715.5 73.0007 724C192.001 732.5 128.5 743 191.5 743C254.5 743 315 621.5 352.5 698.5C390 775.5 337.501 854 246.001 877.5C154.501 901 304.001 898.5 226.5 898.5C149 898.5 -27.1903 1052 129 1052C277 1052 274.5 862 140 850.5C-16.9274 837.082 -33 1141.16 73.0004 1149.5C162 1156.5 55.5006 1109 155 1109C254.5 1109 118 1125 191.5 1125C265 1125 235.5 1185 232 1120.5C228.5 1056 279.505 1148.84 322 1109C378 1056.5 384 874.5 322 869C272.401 864.6 251 918.667 226.5 920.5" stroke="#A64157" stroke-opacity="0.3"/>
</svg>
