<svg width="1200" height="504" viewBox="0 0 1200 504" fill="none" xmlns="http://www.w3.org/2000/svg">
<path d="M566.5 524.5C579 447.833 546.4 288.1 316 262.5C28 230.5 81.9911 364.133 194.791 431.5C338.791 517.5 475.791 409.72 267 229.5C77 65.5 62.5 177.5 -1 173C-64.5 168.5 -69.5 10.5 -130 -1" stroke="#FFEEE6" stroke-opacity="0.2"/>
<path d="M523.291 -180C510.791 -103.333 543.391 56.4 773.791 82C1061.79 114 1007.8 -19.6334 895 -87C751 -173 614 -65.2196 822.791 115C1012.79 279 1027.29 167 1090.79 171.5C1154.29 176 1159.29 334 1219.79 345.5" stroke="#FFEEE6" stroke-opacity="0.2"/>
</svg>
