<svg width="80" height="80" viewBox="0 0 80 80" fill="none" xmlns="http://www.w3.org/2000/svg">
<path d="M25.0013 20C29.4196 20 33.0348 23.4385 33.3169 27.7854L33.3335 28.4745C33.3015 40.3223 29.1995 50.5183 20.9856 59.2163C20.0376 60.2203 18.4554 60.2657 17.4515 59.3177C16.4477 58.3697 16.4024 56.7873 17.3503 55.7837C22.819 49.9923 26.2178 43.537 27.609 36.2533C26.7863 36.521 25.9108 36.6667 25.0013 36.6667C20.3989 36.6667 16.668 32.9357 16.668 28.3333C16.668 23.731 20.3989 20 25.0013 20ZM55.0013 20C59.4196 20 63.0346 23.4385 63.317 27.7854L63.3336 28.4745C63.3016 40.343 59.2096 50.52 50.9843 59.2177C50.0356 60.221 48.4533 60.265 47.4503 59.3163C46.447 58.3677 46.403 56.7853 47.3516 55.7823C52.829 49.9903 56.2243 43.5437 57.612 36.254C56.7863 36.521 55.911 36.6667 55.0013 36.6667C50.399 36.6667 46.668 32.9357 46.668 28.3333C46.668 23.731 50.399 20 55.0013 20Z" fill="#FFEEE6"/>
</svg>
