<svg width="1062" height="475" viewBox="0 0 1062 475" fill="none" xmlns="http://www.w3.org/2000/svg">
<path d="M199.001 266.5C39.0011 254.5 -24.9286 358.123 11.0011 421C59.287 505.5 422.501 505.5 346.001 292.5C314.356 204.389 337.001 106.5 396.501 60.0001C492.501 -15.0251 559.001 13.5 620.001 70.5003" stroke="#A64157" stroke-opacity="0.2"/>
<path d="M760.499 37.9999C809.205 26.4147 955.276 -31.304 984.499 26.5001C1021.03 98.7552 1115.02 319.25 1020.04 334.799C925.065 350.347 713.195 386.932 728.264 305.988C743.332 225.044 954.744 284.952 944.699 362.237C934.653 439.523 818.217 490.741 728.264 441.809C638.311 392.877 652.929 320.536 678.5 262C704.07 203.464 580.5 115.516 686.255 72.3023C731.916 53.644 739.952 30.2256 760.499 37.9999Z" stroke="#A64157" stroke-opacity="0.2"/>
</svg>
