<svg width="22" height="21" viewBox="0 0 22 21" fill="none" xmlns="http://www.w3.org/2000/svg">
<g clip-path="url(#clip0_53_395)">
<path d="M15.2782 1.46338H6.71802C4.13929 1.46338 2.04883 3.55385 2.04883 6.13257V14.6927C2.04883 17.2715 4.13929 19.3619 6.71802 19.3619H15.2782C17.8569 19.3619 19.9474 17.2715 19.9474 14.6927V6.13257C19.9474 3.55385 17.8569 1.46338 15.2782 1.46338Z" stroke="#FFEEE5" stroke-linecap="round" stroke-linejoin="round"/>
<path d="M16.0555 6.13257C16.4853 6.13257 16.8337 5.78416 16.8337 5.35437C16.8337 4.92458 16.4853 4.57617 16.0555 4.57617C15.6258 4.57617 15.2773 4.92458 15.2773 5.35437C15.2773 5.78416 15.6258 6.13257 16.0555 6.13257Z" fill="#FFEEE5"/>
<path d="M10.9984 14.304C13.1473 14.304 14.8894 12.5619 14.8894 10.413C14.8894 8.26403 13.1473 6.52197 10.9984 6.52197C8.84948 6.52197 7.10742 8.26403 7.10742 10.413C7.10742 12.5619 8.84948 14.304 10.9984 14.304Z" stroke="#FFEEE5" stroke-linecap="round" stroke-linejoin="round"/>
</g>
<defs>
<clipPath id="clip0_53_395">
<rect width="20.6522" height="20.6522" fill="white" transform="translate(0.671875 0.0864258)"/>
</clipPath>
</defs>
</svg>
