<svg width="84" height="84" viewBox="0 0 84 84" fill="none" xmlns="http://www.w3.org/2000/svg">
<path d="M42 0L42.8475 35.2913L52.445 1.31951L44.4893 35.7129L62.2337 5.19512L45.9746 36.5294L70.751 11.3833L47.2102 37.6897L77.4618 19.4953L48.1184 39.1209L81.9444 29.0213L48.6422 40.7329L83.9171 39.3628L48.7487 42.4246L83.2561 49.87L48.431 44.0896L80.0027 59.8827L47.7093 45.6233L74.3616 68.7718L46.6289 46.9293L66.687 75.9787L45.2576 47.9256L57.4612 81.0506L43.6816 48.5496L47.264 83.6688L42 48.762L36.736 83.6688L40.3184 48.5496L26.5388 81.0506L38.7424 47.9256L17.313 75.9787L37.3711 46.9293L9.63844 68.7718L36.2907 45.6233L3.99726 59.8827L35.569 44.0896L0.743935 49.87L35.2513 42.4246L0.0828781 39.3628L35.3578 40.7329L2.05563 29.0213L35.8816 39.1209L6.53823 19.4953L36.7898 37.6897L13.249 11.3833L38.0254 36.5294L21.7663 5.19512L39.5107 35.7129L31.555 1.31951L41.1525 35.2913L42 0Z" fill="#A64157"/>
</svg>
