<svg width="15" height="15" viewBox="0 0 15 15" fill="none" xmlns="http://www.w3.org/2000/svg">
<path d="M0.920205 15C0.684732 15 0.44926 14.9101 0.269554 14.7304C-0.0898514 14.3713 -0.0898514 13.7883 0.269554 13.4289L13.4289 0.269554C13.7883 -0.0898514 14.3705 -0.0898514 14.7304 0.269554C15.0899 0.628702 15.0899 1.21171 14.7304 1.57108L1.57108 14.7304C1.39112 14.9104 1.15565 15 0.920173 15H0.920205Z" fill="white"/>
<path d="M14.0796 15C13.8441 15 13.6086 14.9101 13.4289 14.7304L0.269554 1.57107C-0.0898514 1.21192 -0.0898514 0.628914 0.269554 0.269542C0.62896 -0.0898307 1.21118 -0.0898638 1.57108 0.269542L14.7298 13.4289C15.0892 13.7881 15.0892 14.3711 14.7298 14.7304C14.5501 14.9104 14.3146 15 14.0791 15H14.0796Z" fill="white"/>
</svg>
