<svg width="60" height="60" viewBox="0 0 60 60" fill="none" xmlns="http://www.w3.org/2000/svg">
<g clip-path="url(#clip0_117_3)">
<circle cx="14.9518" cy="42.9518" r="3.625" transform="rotate(-60 14.9518 42.9518)" fill="#00FFE6"/>
<circle cx="29.5895" cy="9.36517" r="3.625" transform="rotate(30 29.5895 9.36517)" fill="#00FFE6"/>
<circle cx="31.9518" cy="52.9518" r="3.625" transform="rotate(-60 31.9518 52.9518)" fill="#00FFE6"/>
<circle cx="49.7116" cy="40.1291" r="3.625" transform="rotate(-60 49.7116 40.1291)" fill="#00FFE6"/>
<circle cx="55.9515" cy="16.9518" r="3.625" transform="rotate(120 55.9515 16.9518)" fill="#00FFE6"/>
<circle cx="32.9518" cy="35.9518" r="3.625" transform="rotate(-60 32.9518 35.9518)" fill="#00FFE6"/>
<circle cx="4.95184" cy="23.9517" r="3.625" transform="rotate(-60 4.95184 23.9517)" fill="#00FFE6"/>
<path fill-rule="evenodd" clip-rule="evenodd" d="M33.9999 36L15.9999 44L15.5938 43.0862L33.5937 35.0862L33.9999 36Z" fill="#00FFE6" fill-opacity="0.5"/>
<path fill-rule="evenodd" clip-rule="evenodd" d="M30.0003 53L16.0003 44L16.541 43.1588L30.541 52.1588L30.0003 53Z" fill="#00FFE6" fill-opacity="0.5"/>
<path fill-rule="evenodd" clip-rule="evenodd" d="M51.2475 40.4988L31 53.0001L30.4746 52.1492L50.7222 39.6479L51.2475 40.4988Z" fill="#00FFE6" fill-opacity="0.5"/>
<path fill-rule="evenodd" clip-rule="evenodd" d="M32.1984 37.6706L29.2948 10.5994L30.2891 10.4928L33.1927 37.5639L32.1984 37.6706Z" fill="#00FFE6" fill-opacity="0.5"/>
<path fill-rule="evenodd" clip-rule="evenodd" d="M32.9399 36.7238L3.63713 24.158L4.03125 23.2389L33.334 35.8048L32.9399 36.7238Z" fill="#00FFE6" fill-opacity="0.5"/>
<path fill-rule="evenodd" clip-rule="evenodd" d="M29.2941 9.56834L4.9364 24.4885L4.41406 23.6357L28.7718 8.7156L29.2941 9.56834Z" fill="#00FFE6" fill-opacity="0.5"/>
<path fill-rule="evenodd" clip-rule="evenodd" d="M33.317 36.071L31.9999 53L31.0029 52.9225L32.32 35.9935L33.317 36.071Z" fill="#00FFE6" fill-opacity="0.5"/>
<path fill-rule="evenodd" clip-rule="evenodd" d="M35.2726 37.2019L49.9146 39.4678L49.7617 40.4561L35.1197 38.1902L35.2726 37.2019Z" fill="#00FFE6" fill-opacity="0.5"/>
<path fill-rule="evenodd" clip-rule="evenodd" d="M33.9918 34.1887L55.0704 16.7855L55.707 17.5566L34.6285 34.9598L33.9918 34.1887Z" fill="#00FFE6" fill-opacity="0.5"/>
<path fill-rule="evenodd" clip-rule="evenodd" d="M49.9147 39.4679L55.0698 16.7856L56.0449 17.0072L50.8898 39.6895L49.9147 39.4679Z" fill="#00FFE6" fill-opacity="0.5"/>
<path fill-rule="evenodd" clip-rule="evenodd" d="M55.0702 16.7856L30.3258 10.5995L30.5684 9.62939L55.3127 15.8155L55.0702 16.7856Z" fill="#00FFE6" fill-opacity="0.5"/>
<path fill-rule="evenodd" clip-rule="evenodd" d="M16.0002 44L4.94254 24.4921L5.8125 23.999L16.8701 43.5068L16.0002 44Z" fill="#00FFE6" fill-opacity="0.5"/>
</g>
<defs>
<clipPath id="clip0_117_3">
<rect width="60" height="60" fill="white"/>
</clipPath>
</defs>
</svg>
