<svg width="60" height="60" viewBox="0 0 60 60" fill="none" xmlns="http://www.w3.org/2000/svg">
<g clip-path="url(#clip0_117_2)">
<circle cx="24.5653" cy="10.2128" r="4.21278" fill="#00FFE6"/>
<circle cx="44.6513" cy="43.6893" r="4.21278" fill="#00FFE6"/>
<circle cx="4.47938" cy="43.6893" r="4.21278" fill="#00FFE6"/>
<path fill-rule="evenodd" clip-rule="evenodd" d="M43.1805 19.7558C41.198 17.2801 38.5355 15.6432 35.9195 15.3162L36.0435 14.3239C38.9716 14.6899 41.8532 16.4985 43.9611 19.1307C45.9939 21.6691 47.3351 25.0066 47.3084 28.6439L49.7283 29.1219L45.9272 33.4677L44.0643 28.003L46.3085 28.4463C46.2861 25.1341 45.0485 22.0884 43.1805 19.7558Z" fill="#00FFE6"/>
<path fill-rule="evenodd" clip-rule="evenodd" d="M22.5635 57.3689C18.9778 56.8713 15.8161 55.1923 13.9993 52.7923L13.202 53.3959C15.2122 56.0514 18.6383 57.8337 22.4261 58.3594C26.0942 58.8685 30.1461 58.2066 33.6614 55.9732L35.3097 57.7979L37.0851 52.3041L31.4396 53.5135L32.9808 55.2197C29.7189 57.2407 25.9713 57.8419 22.5635 57.3689Z" fill="#00FFE6"/>
<path fill-rule="evenodd" clip-rule="evenodd" d="M2.63528 24.2275C1.43168 27.2797 1.33549 30.5145 2.39576 33.0275L1.47441 33.4162C0.291275 30.612 0.427485 27.1003 1.705 23.8606C2.93834 20.7329 5.25034 17.8176 8.54226 15.9892L7.75685 13.653L13.4161 14.7959L9.59666 19.1255L8.86672 16.9543C5.88209 18.6645 3.77197 21.3449 2.63528 24.2275Z" fill="#00FFE6"/>
</g>
<defs>
<clipPath id="clip0_117_2">
<rect width="60" height="60" fill="white"/>
</clipPath>
</defs>
</svg>
