<svg width="227" height="294" viewBox="0 0 227 294" fill="none" xmlns="http://www.w3.org/2000/svg">
<path d="M88.905 135.359C85.0518 127.342 81.859 119.186 79.1681 110.75C76.6356 102.512 73.2157 94.4731 72.7409 85.9126C72.3715 54.9121 89.7924 24.6856 114.2 6.08528C123.876 12.9972 132.337 21.5656 139.052 31.3709C148.629 45.3813 154.706 62.1863 155.253 79.1811C155.263 86.9181 153.816 94.4922 151.306 101.87C147.833 113.999 143.545 126.072 137.588 137.302C143.366 129.639 148.166 121.09 152.156 112.349C157.333 102.141 160.171 90.702 160.186 79.1843C159.202 47.2916 140.466 17.4513 114.12 7.94234e-05C86.9944 19.2723 67.2665 52.3842 67.8149 86.1584C68.117 95.4386 71.8439 104.013 75.9113 112.066C79.635 120.095 83.8559 128.064 88.905 135.359Z" fill="white" fill-opacity="0.1"/>
<path d="M213.619 189.726C213.347 189.045 212.377 186.415 213.008 183.063C213.099 182.58 213.218 182.133 213.349 181.712C213.563 181.445 213.776 181.177 213.977 180.911C215.985 178.266 217.539 175.411 218.643 172.43C219.719 169.521 222.19 160.365 218.855 149.998C213.725 134.044 198.934 127.843 197.166 127.136C196.24 126.765 184.626 122.304 171.591 126.193C170.585 126.492 168.129 127.288 165.16 128.771C163.529 129.585 156.154 133.399 148.986 143.156C134.506 162.87 133.547 189.591 133.486 197.942C132.236 197.917 128.267 197.889 127.553 197.862C126.029 197.805 125.56 197.754 124.726 197.741C123.842 197.728 122.577 197.755 121.026 197.948C121.028 185.243 122.516 174.83 124.008 167.339C126.297 155.821 129.476 146.76 132.1 139.278C135.369 129.958 136.268 129.018 139.553 119.936C144.185 107.125 147.092 99.0883 148.285 90.5997C151.071 70.7593 143.659 54.3869 140.274 46.9149C132.283 29.2641 120.591 18.2364 113.643 12.63V12.5709C113.63 12.5805 113.617 12.5917 113.606 12.6012C113.593 12.5917 113.58 12.5805 113.569 12.5709V12.63C106.621 18.2364 94.9269 29.2641 86.9359 46.9149C83.5528 54.3869 76.139 70.7593 78.9258 90.5997C80.1185 99.0883 83.0252 107.125 87.657 119.936C90.9426 129.018 91.8427 129.958 95.1107 139.278C97.7344 146.76 100.913 155.821 103.204 167.339C104.694 174.83 106.183 185.243 106.186 197.948C104.635 197.755 103.37 197.728 102.486 197.741C101.652 197.754 101.183 197.805 99.6578 197.862C98.9431 197.889 94.9748 197.917 93.7245 197.942C93.6638 189.591 92.7061 162.87 78.2239 143.156C71.0564 133.399 63.681 129.585 62.0518 128.771C59.0827 127.288 56.6253 126.492 55.6213 126.193C42.586 122.304 30.9722 126.765 30.0448 127.136C28.2781 127.843 13.4874 134.044 8.35513 149.998C5.02157 160.365 7.49177 169.521 8.56938 172.43C9.67257 175.411 11.225 178.266 13.2332 180.911C13.4362 181.177 13.6472 181.445 13.8615 181.712C13.9926 182.133 14.1109 182.58 14.2021 183.063C14.8352 186.415 13.8631 189.045 13.5913 189.726C11.9845 193.766 8.57737 195.746 7.52215 196.309C9.3544 196.148 16.8593 195.291 23.1155 189.994C31.3862 195.352 39.8233 196.72 42.2231 197.053C37.8439 188.536 38.9439 179.289 44.77 173.954C48.3162 170.708 52.7162 169.73 55.1832 169.396C57.1737 169.197 61.3355 169.045 65.614 171.083C66.7108 171.605 69.699 173.169 72.9078 177.601C78.395 185.184 79.1113 193.689 79.1113 198.268H56.3615V219.846C72.4729 219.774 88.5843 219.702 104.694 219.631C104.542 221.645 103.669 230.25 96.6024 235.786C89.8378 241.086 78.3166 242.856 72.7207 237.018C70.0187 234.201 69.4879 230.436 69.3968 228.205C68.0602 230.436 65.4429 235.62 66.7028 241.849C69.1394 253.898 83.7175 258.133 84.8494 258.445C91.7324 260.336 97.7328 259.179 100.561 258.445C100.911 261.796 101.895 266.949 104.881 272.627C107.639 277.873 111.064 281.584 113.569 283.906V283.974C113.58 283.963 113.593 283.95 113.606 283.939C113.617 283.95 113.63 283.963 113.643 283.974V283.906C116.148 281.584 119.571 277.873 122.329 272.627C125.316 266.949 126.299 261.796 126.649 258.445C129.479 259.179 135.478 260.336 142.361 258.445C143.493 258.133 158.071 253.898 160.509 241.849C161.767 235.62 159.15 230.436 157.814 228.205C157.722 230.436 157.193 234.201 154.491 237.018C148.894 242.856 137.374 241.086 130.61 235.786C123.543 230.25 122.668 221.645 122.516 219.631C138.628 219.702 154.737 219.774 170.849 219.846V198.268H148.101C148.099 193.689 148.817 185.184 154.304 177.601C157.511 173.169 160.501 171.605 161.598 171.083C165.875 169.045 170.038 169.197 172.027 169.396C174.496 169.73 178.896 170.708 182.44 173.954C188.268 179.289 189.366 188.536 184.989 197.053C187.387 196.72 195.826 195.352 204.096 189.994C210.353 195.291 217.856 196.148 219.69 196.309C218.633 195.746 215.226 193.766 213.619 189.726Z" fill="white" fill-opacity="0.1"/>
<path d="M133.153 157.889C128.927 170.586 127.565 184.483 129.68 197.66C129.149 184.325 131.265 171.256 136.143 158.899C140.434 146.863 147.026 134.836 157.751 127.659C180.9 111.312 211.323 120.315 221.595 146.903C223.942 154.459 224.926 162.842 222.818 170.548C221.763 174.861 219.123 178.409 217.481 182.563C215.411 187.214 217.352 192.005 221.921 194.116C220.083 192.897 218.473 191.211 217.878 189.167C217.248 187.124 217.782 184.992 218.717 183.087C220.714 179.169 223.682 175.567 225.084 171.264C227.885 163.05 227.37 154.004 225.114 145.741C222.107 136.285 215.776 128.117 207.684 122.401C191.764 110.964 170.701 112.752 155.129 123.921C143.632 132.067 137.041 144.834 133.153 157.889Z" fill="white" fill-opacity="0.1"/>
<path d="M152.976 223.036C145.279 223.309 137.59 223.693 129.911 224.378C133.755 224.734 137.6 224.979 141.443 225.2C153.556 225.868 165.69 226.148 177.817 226.181C177.91 220.65 177.841 215.104 177.807 209.574C177.743 204.143 177.649 198.701 177.444 193.272C168.045 193.548 158.653 193.936 149.278 194.77C157.692 195.522 166.117 195.9 174.55 196.178C174.301 204.983 174.203 213.792 174.245 222.602C167.156 222.648 160.065 222.774 152.976 223.036Z" fill="white" fill-opacity="0.1"/>
<path d="M128.694 263.115C128.676 262.296 128.63 261.476 128.55 260.657C126.927 271.439 121.86 281.674 113.767 289C105.676 281.674 100.607 271.438 98.9844 260.657C98.9045 261.476 98.8597 262.296 98.8405 263.115C98.6599 262.296 98.4552 261.485 98.3097 260.657C97.3584 273.421 103.72 285.963 113.555 293.961C113.626 293.903 113.695 293.839 113.767 293.782C113.839 293.839 113.908 293.903 113.981 293.961C123.816 285.963 130.176 273.421 129.225 260.657C129.079 261.485 128.876 262.296 128.694 263.115Z" fill="white" fill-opacity="0.1"/>
<path d="M8.28252 183.087C9.21783 184.992 9.75184 187.124 9.1219 189.167C8.52714 191.211 6.91552 192.897 5.07687 194.116C9.64951 191.993 11.5921 187.234 9.51841 182.565C7.87641 178.409 5.23675 174.861 4.17992 170.548C2.07427 162.842 3.05595 154.459 5.40463 146.903C15.6755 120.316 46.0932 111.312 69.249 127.657C79.9724 134.834 86.5659 146.863 90.8556 158.901C95.7352 171.258 97.8488 184.323 97.3196 197.66C99.4349 184.483 98.0711 170.586 93.847 157.889C89.9586 144.833 83.3667 132.069 71.8711 123.921C56.3017 112.75 35.2308 110.967 19.3144 122.401C11.2228 128.117 4.893 136.285 1.88561 145.741C-0.36874 154.004 -0.88676 163.05 1.91598 171.264C3.31656 175.567 6.28558 179.169 8.28252 183.087Z" fill="white" fill-opacity="0.1"/>
<path d="M49.5562 193.272C49.35 198.701 49.2573 204.143 49.1933 209.574C49.1581 215.104 49.091 220.65 49.1837 226.181C61.3108 226.148 73.4427 225.868 85.557 225.2C89.4006 224.979 93.2442 224.734 97.0894 224.378C89.4102 223.693 81.7215 223.309 74.0247 223.036C66.9339 222.774 59.8447 222.648 52.7539 222.603C52.7971 213.794 52.6995 204.984 52.4501 196.178C60.8839 195.902 69.3082 195.522 77.7228 194.77C68.3473 193.936 58.9557 193.55 49.5562 193.272Z" fill="white" fill-opacity="0.1"/>
</svg>
