<svg width="241" height="312" viewBox="0 0 241 312" fill="none" xmlns="http://www.w3.org/2000/svg">
<path d="M94.361 143.665C90.2714 135.157 86.8826 126.5 84.0267 117.546C81.3387 108.802 77.709 100.27 77.205 91.1847C76.813 58.2818 95.3029 26.2004 121.208 6.45863C131.478 13.7947 140.458 22.8889 147.586 33.2959C157.75 48.1662 164.2 66.0023 164.781 84.0401C164.791 92.2518 163.255 100.291 160.591 108.121C156.905 120.995 152.354 133.809 146.031 145.728C152.164 137.594 157.258 128.52 161.494 119.243C166.988 108.409 170.001 96.2679 170.016 84.0435C168.972 50.1937 149.086 18.5222 121.124 0C92.3332 20.4549 71.3946 55.5987 71.9767 91.4456C72.2974 101.295 76.253 110.396 80.57 118.943C84.5222 127.465 89.0021 135.923 94.361 143.665Z" fill="black" fill-opacity="0.05"/>
<path d="M226.728 201.369C226.439 200.646 225.409 197.854 226.079 194.297C226.176 193.784 226.302 193.31 226.441 192.863C226.668 192.58 226.894 192.295 227.108 192.012C229.239 189.206 230.889 186.175 232.06 183.011C233.202 179.923 235.825 170.206 232.285 159.203C226.84 142.269 211.141 135.689 209.264 134.938C208.282 134.544 195.955 129.809 182.12 133.937C181.053 134.254 178.446 135.099 175.295 136.673C173.564 137.537 165.736 141.585 158.129 151.941C142.76 172.865 141.741 201.225 141.677 210.089C140.35 210.062 136.138 210.033 135.38 210.004C133.762 209.943 133.265 209.889 132.379 209.876C131.441 209.862 130.099 209.891 128.453 210.096C128.454 196.611 130.034 185.559 131.618 177.608C134.048 165.383 137.421 155.766 140.206 147.825C143.676 137.933 144.63 136.935 148.117 127.296C153.033 113.699 156.118 105.169 157.384 96.1594C160.342 75.1015 152.475 57.7244 148.882 49.7938C140.401 31.0599 127.991 19.3554 120.616 13.405V13.3423C120.603 13.3524 120.589 13.3643 120.577 13.3745C120.564 13.3643 120.55 13.3524 120.538 13.3423V13.405C113.163 19.3554 100.752 31.0599 92.2705 49.7938C88.6798 57.7244 80.8111 75.1015 83.7688 96.1594C85.0347 105.169 88.1198 113.699 93.0358 127.296C96.523 136.935 97.4784 137.933 100.947 147.825C103.732 155.766 107.105 165.383 109.537 177.608C111.118 185.559 112.698 196.611 112.702 210.096C111.056 209.891 109.713 209.862 108.775 209.876C107.889 209.889 107.392 209.943 105.773 210.004C105.015 210.033 100.803 210.062 99.4757 210.089C99.4112 201.225 98.3948 172.865 83.0239 151.941C75.4165 141.585 67.5885 137.537 65.8593 136.673C62.7081 135.099 60.0999 134.254 59.0342 133.937C45.199 129.809 32.8724 134.544 31.8882 134.938C30.0131 135.689 14.3147 142.269 8.86748 159.203C5.32936 170.206 7.95114 179.923 9.09488 183.011C10.2658 186.175 11.9135 189.206 14.0449 192.012C14.2604 192.295 14.4844 192.58 14.7118 192.863C14.8509 193.31 14.9765 193.784 15.0732 194.297C15.7452 197.854 14.7135 200.646 14.425 201.369C12.7195 205.656 9.10337 207.758 7.98338 208.356C9.92808 208.185 17.8935 207.276 24.5337 201.654C33.3119 207.34 42.2667 208.792 44.8138 209.146C40.1659 200.106 41.3334 190.291 47.517 184.629C51.2809 181.184 55.9509 180.145 58.5692 179.791C60.6819 179.58 65.0991 179.419 69.6401 181.582C70.8042 182.136 73.9758 183.796 77.3815 188.499C83.2054 196.548 83.9657 205.575 83.9657 210.435H59.8199V233.337C76.92 233.261 94.0201 233.185 111.118 233.108C110.957 235.246 110.031 244.379 102.53 250.255C95.3504 255.88 83.1223 257.759 77.183 251.563C74.3152 248.573 73.7518 244.577 73.655 242.209C72.2364 244.577 69.4585 250.079 70.7957 256.69C73.3818 269.479 88.8546 273.974 90.056 274.304C97.3613 276.312 103.73 275.084 106.732 274.304C107.103 277.861 108.147 283.331 111.317 289.358C114.244 294.925 117.879 298.863 120.538 301.328V301.401C120.55 301.389 120.564 301.375 120.577 301.364C120.589 301.375 120.603 301.389 120.616 301.401V301.328C123.275 298.863 126.908 294.925 129.836 289.358C133.006 283.331 134.049 277.861 134.421 274.304C137.424 275.084 143.791 276.312 151.097 274.304C152.298 273.974 167.771 269.479 170.359 256.69C171.694 250.079 168.916 244.577 167.498 242.209C167.401 244.577 166.839 248.573 163.971 251.563C158.03 257.759 145.804 255.88 138.624 250.255C131.124 244.379 130.195 235.246 130.034 233.108C147.134 233.185 164.233 233.261 181.333 233.337V210.435H157.189C157.187 205.575 157.949 196.548 163.773 188.499C167.177 183.796 170.35 182.136 171.514 181.582C176.054 179.419 180.472 179.58 182.583 179.791C185.204 180.145 189.874 181.184 193.636 184.629C199.821 190.291 200.987 200.106 196.341 209.146C198.886 208.792 207.842 207.34 216.621 201.654C223.261 207.276 231.225 208.185 233.171 208.356C232.049 207.758 228.433 205.656 226.728 201.369Z" fill="black" fill-opacity="0.05"/>
<path d="M141.324 167.578C136.839 181.054 135.393 195.804 137.638 209.79C137.075 195.636 139.32 181.765 144.497 168.65C149.052 155.875 156.048 143.11 167.431 135.493C192.001 118.143 224.291 127.698 235.194 155.917C237.685 163.938 238.728 172.835 236.492 181.013C235.372 185.592 232.57 189.357 230.827 193.766C228.63 198.702 230.69 203.787 235.54 206.028C233.588 204.734 231.879 202.945 231.248 200.775C230.58 198.607 231.146 196.344 232.139 194.322C234.259 190.163 237.408 186.34 238.896 181.774C241.869 173.056 241.323 163.455 238.929 154.684C235.737 144.648 229.017 135.979 220.428 129.912C203.532 117.774 181.176 119.671 164.648 131.526C152.446 140.171 145.451 153.722 141.324 167.578Z" fill="black" fill-opacity="0.05"/>
<path d="M162.364 236.722C154.195 237.012 146.034 237.42 137.884 238.147C141.963 238.525 146.044 238.786 150.124 239.019C162.98 239.729 175.858 240.025 188.729 240.061C188.828 234.19 188.755 228.304 188.719 222.435C188.651 216.671 188.551 210.895 188.334 205.132C178.358 205.425 168.39 205.837 158.439 206.723C167.37 207.521 176.311 207.922 185.262 208.217C184.998 217.562 184.894 226.912 184.938 236.262C177.414 236.311 169.888 236.445 162.364 236.722Z" fill="black" fill-opacity="0.05"/>
<path d="M136.592 279.261C136.573 278.392 136.524 277.522 136.439 276.653C134.716 288.096 129.339 298.959 120.749 306.735C112.161 298.959 106.781 288.095 105.059 276.653C104.974 277.522 104.927 278.392 104.906 279.261C104.714 278.392 104.497 277.532 104.343 276.653C103.333 290.2 110.085 303.512 120.523 312C120.6 311.939 120.672 311.871 120.749 311.81C120.825 311.871 120.898 311.939 120.976 312C131.414 303.512 138.165 290.2 137.155 276.653C137 277.532 136.785 278.392 136.592 279.261Z" fill="black" fill-opacity="0.05"/>
<path d="M8.79079 194.322C9.7835 196.344 10.3503 198.607 9.68168 200.775C9.05042 202.945 7.3399 204.734 5.38842 206.028C10.2417 203.775 12.3035 198.724 10.1025 193.768C8.35976 189.357 5.55811 185.592 4.43643 181.013C2.20156 172.835 3.24348 163.938 5.73629 155.917C16.6374 127.7 48.9218 118.143 73.4986 135.491C84.88 143.108 91.8782 155.875 96.4311 168.652C101.61 181.767 103.853 195.635 103.292 209.79C105.537 195.804 104.089 181.054 99.606 167.578C95.4791 153.72 88.4826 140.173 76.2816 131.526C59.7568 119.669 37.3927 117.777 20.4997 129.912C11.9115 135.979 5.19327 144.648 2.00132 154.684C-0.391368 163.455 -0.941178 173.056 2.03356 181.774C3.52008 186.34 6.67131 190.163 8.79079 194.322Z" fill="black" fill-opacity="0.05"/>
<path d="M52.5976 205.132C52.3787 210.895 52.2803 216.671 52.2124 222.435C52.1751 228.304 52.1038 234.19 52.2022 240.061C65.0735 240.025 77.9499 239.729 90.8077 239.019C94.8871 238.785 98.9666 238.525 103.048 238.147C94.8973 237.42 86.7367 237.012 78.5676 236.722C71.0417 236.445 63.5174 236.311 55.9915 236.263C56.0373 226.913 55.9338 217.563 55.6691 208.217C64.6204 207.924 73.5616 207.521 82.4926 206.723C72.5418 205.837 62.5739 205.427 52.5976 205.132Z" fill="black" fill-opacity="0.05"/>
</svg>
