<svg width="89" height="111" viewBox="0 0 89 111" fill="none" xmlns="http://www.w3.org/2000/svg">
<path d="M38.5738 33.4992C37.6202 31.5153 36.83 29.4966 36.1641 27.4088C35.5373 25.37 34.6909 23.3806 34.5734 21.262C34.482 13.5899 38.7934 6.10927 44.8339 1.50597C47.2286 3.21656 49.3226 5.33711 50.9845 7.76377C53.3546 11.2311 54.8586 15.3901 54.994 19.5961C54.9963 21.5108 54.6382 23.3853 54.017 25.2113C53.1576 28.213 52.0964 31.2009 50.622 33.9802C52.052 32.0836 53.2399 29.9678 54.2275 27.8046C55.5088 25.2784 56.2111 22.4473 56.2147 19.5969C55.9713 11.7039 51.3343 4.3189 44.8142 -2.28882e-05C38.101 4.76955 33.2186 12.9642 33.3543 21.3228C33.4291 23.6196 34.3515 25.7417 35.3581 27.7347C36.2796 29.7217 37.3242 31.6938 38.5738 33.4992Z" fill="white"/>
<path d="M69.4389 46.9544C69.3717 46.7857 69.1315 46.1348 69.2878 45.3054C69.3103 45.1857 69.3396 45.0751 69.3721 44.9709C69.4251 44.9049 69.4777 44.8385 69.5276 44.7726C70.0245 44.1181 70.4091 43.4115 70.6822 42.6738C70.9485 41.9537 71.5602 39.6878 70.7348 37.1222C69.465 33.1737 65.8046 31.6393 65.3669 31.4643C65.1378 31.3723 62.2636 30.2684 59.0375 31.2309C58.7887 31.3047 58.1809 31.5018 57.4461 31.8688C57.0425 32.0702 55.2172 33.0141 53.4433 35.4289C49.8596 40.3079 49.6222 46.9208 49.6072 48.9876C49.2977 48.9813 48.3157 48.9746 48.1388 48.9679C47.7617 48.9537 47.6458 48.941 47.4392 48.9379C47.2204 48.9347 46.9074 48.9414 46.5236 48.9892C46.524 45.8449 46.8924 43.2678 47.2615 41.4138C47.8282 38.5634 48.6148 36.3208 49.2641 34.4692C50.0733 32.1626 50.2957 31.93 51.1088 29.6822C52.2551 26.5119 52.9745 24.5228 53.2696 22.422C53.9593 17.5118 52.1249 13.4599 51.2873 11.6107C49.3096 7.24242 46.416 4.51322 44.6963 3.12572V3.1111C44.6932 3.11347 44.69 3.11623 44.6872 3.11861C44.684 3.11623 44.6809 3.11347 44.6781 3.1111V3.12572C42.9585 4.51322 40.0644 7.24242 38.0868 11.6107C37.2495 13.4599 35.4147 17.5118 36.1044 22.422C36.3996 24.5228 37.1189 26.5119 38.2652 29.6822C39.0784 31.93 39.3011 32.1626 40.1099 34.4692C40.7592 36.3208 41.5459 38.5634 42.1129 41.4138C42.4817 43.2678 42.85 45.8449 42.8508 48.9892C42.467 48.9414 42.154 48.9347 41.9352 48.9379C41.7287 48.941 41.6127 48.9537 41.2353 48.9679C41.0584 48.9746 40.0763 48.9813 39.7669 48.9876C39.7518 46.9208 39.5148 40.3079 35.9307 35.4289C34.1568 33.0141 32.3315 32.0702 31.9283 31.8688C31.1935 31.5018 30.5854 31.3047 30.3369 31.2309C27.1109 30.2684 24.2366 31.3723 24.0071 31.4643C23.5699 31.6393 19.9094 33.1737 18.6392 37.1222C17.8142 39.6878 18.4256 41.9537 18.6923 42.6738C18.9653 43.4115 19.3495 44.1181 19.8465 44.7726C19.8967 44.8385 19.949 44.9049 20.002 44.9709C20.0344 45.0751 20.0637 45.1857 20.0863 45.3054C20.243 46.1348 20.0024 46.7857 19.9351 46.9544C19.5374 47.954 18.6942 48.4442 18.4331 48.5836C18.8865 48.5437 20.7439 48.3316 22.2922 47.0207C24.3391 48.3466 26.4271 48.6851 27.021 48.7676C25.9373 46.6597 26.2095 44.3713 27.6514 43.0509C28.529 42.2476 29.6179 42.0055 30.2285 41.9229C30.7211 41.8736 31.7511 41.836 32.8099 42.3404C33.0814 42.4696 33.8209 42.8566 34.615 43.9534C35.973 45.8303 36.1503 47.9351 36.1503 49.0682H30.5201V54.4085C34.5074 54.3907 38.4947 54.373 42.4817 54.3552C42.4441 54.8536 42.228 56.9833 40.4791 58.3534C38.805 59.6651 35.9536 60.1031 34.5687 58.6583C33.9 57.9612 33.7687 57.0295 33.7461 56.4773C33.4153 57.0295 32.7676 58.3123 33.0794 59.8539C33.6824 62.8358 37.2903 63.8841 37.5704 63.9611C39.2738 64.4291 40.7589 64.1428 41.4588 63.9611C41.5455 64.7905 41.7888 66.0658 42.528 67.4711C43.2105 68.7694 44.0581 69.6876 44.6781 70.2623V70.2793C44.6809 70.2765 44.684 70.2734 44.6872 70.2706C44.69 70.2734 44.6932 70.2765 44.6963 70.2793V70.2623C45.3164 69.6876 46.1635 68.7694 46.8461 67.4711C47.5852 66.0658 47.8286 64.7905 47.9152 63.9611C48.6156 64.1428 50.1002 64.4291 51.8036 63.9611C52.0838 63.8841 55.6916 62.8358 56.295 59.8539C56.6064 58.3123 55.9587 57.0295 55.6279 56.4773C55.6054 57.0295 55.4744 57.9612 54.8057 58.6583C53.4204 60.1031 50.5695 59.6651 48.8953 58.3534C47.1464 56.9833 46.93 54.8536 46.8924 54.3552C50.8797 54.373 54.8666 54.3907 58.8539 54.4085V49.0682H53.2241C53.2237 47.9351 53.4014 45.8303 54.7594 43.9534C55.5531 42.8566 56.2931 42.4696 56.5645 42.3404C57.623 41.836 58.6533 41.8736 59.1456 41.9229C59.7565 42.0055 60.8454 42.2476 61.7227 43.0509C63.1649 44.3713 63.4368 46.6597 62.3534 48.7676C62.9469 48.6851 65.0353 48.3466 67.0822 47.0207C68.6305 48.3316 70.4875 48.5437 70.9413 48.5836C70.6798 48.4442 69.8366 47.954 69.4389 46.9544Z" fill="white"/>
<path d="M49.5246 39.0751C48.4788 42.2174 48.1417 45.6568 48.6652 48.918C48.5338 45.6177 49.0573 42.3833 50.2645 39.3251C51.3265 36.3463 52.9579 33.3699 55.6122 31.5937C61.3413 27.5481 68.8704 29.7761 71.4127 36.3562C71.9936 38.2263 72.2369 40.3011 71.7154 42.2079C71.4543 43.2755 70.801 44.1535 70.3946 45.1816C69.8822 46.3325 70.3626 47.5182 71.4934 48.0408C71.0384 47.739 70.6399 47.3219 70.4927 46.816C70.3368 46.3104 70.469 45.7828 70.7005 45.3112C71.1947 44.3415 71.9291 43.4501 72.2761 42.3853C72.9693 40.3524 72.8419 38.1138 72.2836 36.0686C71.5393 33.7285 69.9724 31.7071 67.9699 30.2923C64.03 27.462 58.8173 27.9044 54.9633 30.6687C52.1179 32.6846 50.4869 35.8443 49.5246 39.0751Z" fill="white"/>
<path d="M54.4303 55.1981C52.5255 55.2656 50.6226 55.3608 48.7222 55.5303C49.6734 55.6183 50.625 55.6792 51.5762 55.7337C54.574 55.8991 57.5768 55.9683 60.5781 55.9766C60.601 54.6076 60.584 53.2351 60.5757 51.8666C60.5599 50.5225 60.5365 49.1757 60.4859 47.832C58.1597 47.9004 55.8354 47.9963 53.5151 48.2029C55.5976 48.3889 57.6825 48.4825 59.7697 48.5513C59.708 50.7303 59.6838 52.9105 59.6941 55.0907C57.9397 55.1021 56.1848 55.1333 54.4303 55.1981Z" fill="white"/>
<path d="M48.4213 65.1169C48.4169 64.9143 48.4054 64.7113 48.3856 64.5086C47.984 67.177 46.7301 69.7099 44.7271 71.5232C42.7246 69.7099 41.4703 67.1766 41.0686 64.5086C41.0489 64.7113 41.0378 64.9143 41.033 65.1169C40.9883 64.9143 40.9377 64.7136 40.9017 64.5086C40.6662 67.6676 42.2407 70.7716 44.6745 72.7507C44.6923 72.7365 44.7093 72.7207 44.7271 72.7065C44.7449 72.7207 44.762 72.7365 44.7802 72.7507C47.214 70.7716 48.7881 67.6676 48.5526 64.5086C48.5166 64.7136 48.4664 64.9143 48.4213 65.1169Z" fill="white"/>
<path d="M18.6211 45.3112C18.8526 45.7828 18.9847 46.3104 18.8288 46.816C18.6816 47.3219 18.2828 47.739 17.8277 48.0408C18.9594 47.5155 19.4402 46.3377 18.927 45.182C18.5206 44.1535 17.8673 43.2755 17.6058 42.2079C17.0846 40.3011 17.3276 38.2263 17.9089 36.3562C20.4507 29.7765 27.9787 27.5481 33.7094 31.5933C36.3632 33.3695 37.995 36.3463 39.0567 39.3255C40.2643 42.3837 40.7874 45.6173 40.6564 48.918C41.1799 45.6568 40.8424 42.2174 39.797 39.0751C38.8347 35.8439 37.2033 32.685 34.3583 30.6687C30.5051 27.904 25.2904 27.4628 21.3513 30.2923C19.3488 31.7071 17.7822 33.7285 17.0379 36.0686C16.48 38.1138 16.3518 40.3524 17.0455 42.3853C17.3921 43.4501 18.1269 44.3415 18.6211 45.3112Z" fill="white"/>
<path d="M28.8358 47.832C28.7847 49.1757 28.7618 50.5225 28.7459 51.8666C28.7372 53.2351 28.7206 54.6076 28.7436 55.9766C31.7448 55.9683 34.7473 55.8991 37.7454 55.7337C38.6966 55.6792 39.6479 55.6183 40.5995 55.5303C38.699 55.3608 36.7962 55.2656 34.8913 55.1981C33.1365 55.1333 31.382 55.1021 29.6271 55.0911C29.6378 52.9109 29.6137 50.7307 29.5519 48.5513C31.6392 48.4829 33.7241 48.3889 35.8065 48.2029C33.4862 47.9963 31.162 47.9008 28.8358 47.832Z" fill="white"/>
<path d="M31.7538 91.5354C30.6419 91.5631 29.4948 91.0453 28.8989 90.2704C28.4189 89.6467 28.1352 88.3133 28.1325 88.2999L28.1119 88.202L27.7012 88.1952L27.8674 90.8032L27.8749 90.8684L27.9279 90.9027C27.9386 90.9094 27.9564 90.9237 27.9813 90.9438C29.2234 91.932 30.7942 92.1401 31.8946 92.1401H31.899C34.0931 92.139 35.1361 90.9229 35.3802 89.7858C35.6956 88.3177 34.8433 86.8109 33.3084 86.1217C32.8316 85.908 32.3556 85.7228 31.895 85.5439C30.399 84.9625 29.107 84.4605 28.9792 83.3637C28.9215 82.8593 29.0766 82.3581 29.407 81.9884C29.8438 81.4994 30.5616 81.2407 31.4827 81.2407C33.9328 81.2407 34.6684 83.5532 34.6985 83.6516L34.7309 83.7578L35.1321 83.6867L34.4797 81.281L34.4397 81.255C34.2494 81.1309 32.8154 80.4939 31.0483 80.6428C29.4786 80.7771 28.375 81.5524 28.0213 82.77C27.6996 83.8763 28.0882 85.079 28.9879 85.7619C29.574 86.207 30.372 86.5135 31.144 86.8105C32.6247 87.3796 34.0234 87.9172 34.1504 89.3391C34.1995 89.8865 34.0531 90.3541 33.7156 90.7289C33.1925 91.3091 32.3319 91.526 31.7538 91.5354Z" fill="white"/>
<path d="M40.9094 81.4238C42.0098 81.4238 42.8388 81.6943 43.3714 82.2279C43.8387 82.6959 44.0741 83.3689 44.0714 84.2284C44.0686 84.9251 43.8478 85.4658 43.4145 85.8355C42.6912 86.452 41.3716 86.6246 39.4921 86.3505L39.4838 81.4238H40.9094ZM39.5285 86.9983C40.6344 87.1424 43.2254 87.4793 44.5731 86.251C45.1832 85.6961 45.5144 84.5831 45.3795 83.5443C45.2438 82.5067 44.6843 81.6828 43.8027 81.2247C43.0485 80.8345 41.9212 80.8345 41.3791 80.8345L41.0266 80.8353C40.5517 80.8364 40.2031 80.8372 39.6527 80.8412L36.6072 80.859L36.6028 81.3503L36.7251 81.3538C37.1073 81.3665 37.5754 81.4151 37.6656 81.4719C37.8856 81.6094 38.0668 81.7607 38.0668 82.2263L38.0554 90.8014C38.0526 91.0142 37.9426 91.2303 37.8658 91.2907C37.7028 91.4183 37.0812 91.472 36.7282 91.476L36.581 91.4775L36.606 91.6221C36.6254 91.7354 36.6068 91.8294 36.6068 91.8294L36.5747 91.9799L40.9609 91.989L40.9375 91.4862L40.82 91.4843C40.4342 91.4775 39.8312 91.4203 39.6975 91.3148C39.5313 91.1841 39.4569 91.1086 39.4395 90.6923L39.4755 86.9912L39.5285 86.9983Z" fill="white"/>
<path d="M49.6431 87.2307L51.2571 82.7814C51.4545 83.283 51.6892 83.8743 51.9028 84.413L52.1339 84.9963C52.295 85.4055 52.4908 85.9115 52.6804 86.4008L53.0025 87.2307H49.6431ZM55.684 90.277C54.3747 87.1817 51.783 80.9211 51.7699 80.8895L51.7386 80.8117L51.4154 80.8082L48.0785 89.8623C48.0307 89.9697 47.9867 90.0756 47.944 90.1787C47.7596 90.6254 47.6002 91.0112 47.1661 91.236C46.768 91.4417 46.4376 91.4437 46.4321 91.4437L46.3047 91.4433L46.309 91.9185L49.6059 91.9351L49.5905 91.4575H49.4678C49.3436 91.4575 49.2336 91.452 49.1635 91.4425C49.006 91.4236 48.9134 91.3774 48.7651 91.281C48.5755 91.1586 48.4327 90.8303 48.5965 90.2821L49.4801 87.782L53.2106 87.7658C53.3851 88.1138 53.5877 88.5581 53.7725 89.0001C53.8603 89.2078 53.9462 89.4476 54.0352 89.6925C54.1306 89.9559 54.2291 90.2288 54.3316 90.4705L54.3466 90.51C54.4708 90.826 54.5595 91.1222 54.2857 91.2727C53.941 91.4639 53.5683 91.4591 53.5671 91.4575L53.4377 91.4548L53.4413 91.9343H57.2553V91.4524L57.1287 91.454C57.1196 91.4583 56.5779 91.4583 56.2649 91.1985C55.9444 90.9311 55.688 90.2861 55.684 90.277Z" fill="white"/>
<path d="M9.03145 108.418C8.61954 108.755 7.19982 109.598 5.57909 109.45C4.48502 109.35 3.79376 108.834 3.42221 108.557L3.39333 108.536C0.587127 106.447 1.49799 102.789 1.61116 102.379C2.11882 100.541 3.57416 99.4447 5.50708 99.4447H5.51974C6.59798 99.4467 7.29637 99.848 7.69205 100.184C8.38767 100.774 8.83519 101.875 8.83994 101.886L8.87753 101.981L9.27044 101.912L8.61479 99.4961L8.56217 99.4712C8.37659 99.3843 8.06202 99.2555 7.6149 99.137C6.95054 98.9605 6.24741 98.8704 5.52449 98.8697H5.51539C3.03682 98.8697 0.261082 100.507 0.0169439 104.107C-0.0748551 105.462 0.208455 106.761 0.815832 107.764C1.15968 108.333 2.50264 110.195 5.34445 110.281C5.40381 110.283 5.46237 110.284 5.52093 110.284C7.32288 110.284 8.57245 109.434 9.3108 108.708L9.40379 108.617L9.11613 108.348L9.03145 108.418Z" fill="white"/>
<path d="M18.7047 107.754C17.932 109.172 17.5149 109.588 16.242 109.61C14.2252 109.645 13.1687 109.589 13.0413 109.521C12.9266 109.458 12.8791 109.432 12.8625 108.982C12.8625 108.982 12.8458 108.664 12.8336 108.326C12.828 108.158 12.8181 107.876 12.8229 107.733C12.8268 107.021 12.8348 106.288 12.8415 105.575L12.8522 104.5L15.0035 104.506C16.3987 104.485 16.7833 104.981 16.9966 105.903L17.0187 106H17.4603L16.849 102.64H16.4442L16.4501 102.77C16.4695 103.223 16.3932 103.544 16.223 103.724C16.1051 103.847 15.9409 103.909 15.7225 103.911L12.8522 103.915C12.8557 103.208 12.8435 102.446 12.8312 101.707C12.8197 100.997 12.8082 100.264 12.8098 99.5617L16.1716 99.5558C16.187 99.5554 16.2012 99.5554 16.2163 99.5554C17.2142 99.5554 17.6878 100.284 18.1247 101.458L18.1551 101.539H18.5999L18.5576 101.381C18.3138 100.474 18.0578 99.2959 18.093 99.1395L18.1405 98.9776L10.5271 99.0546L10.5236 99.4855L10.6431 99.4922C10.812 99.5021 11.1206 99.5388 11.2271 99.5957C11.33 99.6506 11.44 99.8939 11.4404 100.412L11.4277 108.976C11.4226 109.224 11.3755 109.423 11.3585 109.457C11.2896 109.589 10.909 109.649 10.6644 109.649H10.6514L10.5026 109.647L10.5263 109.794C10.5449 109.909 10.5271 110.007 10.5267 110.008L10.499 110.157L18.4416 110.152L18.5686 110.15L18.5667 110.023C18.5651 109.892 18.8591 108.697 19.1618 107.858L19.2215 107.69L18.7408 107.688L18.7047 107.754Z" fill="white"/>
<path d="M24.5114 104.356C24.1216 104.356 23.2404 104.341 22.916 104.335V99.6176L24.7136 99.6113C25.6897 99.6113 26.4574 99.8894 26.933 100.416C27.3829 100.914 27.5645 101.616 27.4719 102.502C27.3603 103.611 25.8512 104.356 24.5114 104.356ZM28.9905 109.273C28.6202 108.984 28.1608 108.325 28.1548 108.317L25.6506 104.841C25.7934 104.826 25.9533 104.802 26.0751 104.783L26.2085 104.763C26.8621 104.673 27.7287 104.396 28.1897 103.98C28.7472 103.48 29.0546 102.474 28.9379 101.534C28.8255 100.626 28.3464 99.9063 27.589 99.5074C26.8455 99.1168 26.0411 99.0339 25.4915 99.0339C24.8125 99.0268 23.7592 99.039 23.0818 99.0457L20.4857 99.067L20.4821 99.5505H20.6087C20.7868 99.5505 21.0745 99.5663 21.1548 99.6022C21.3146 99.6725 21.4978 99.8119 21.4998 100.268L21.486 108.991C21.4832 109.193 21.3894 109.389 21.3036 109.485C21.1936 109.609 20.7571 109.668 20.4821 109.67L20.3349 109.671L20.3595 109.816C20.3784 109.93 20.3602 110.024 20.3602 110.025L20.3306 110.175L23.9914 110.161L23.9717 109.636L23.8423 109.645C23.7046 109.656 23.3117 109.658 23.1391 109.551C23.0038 109.469 22.9421 109.432 22.9263 109.021L22.9164 104.914C23.1712 104.926 23.7398 104.952 24.105 104.978L24.856 106.061C25.6905 107.266 26.84 108.924 27.3322 109.622C27.5771 109.978 27.923 110.166 28.3325 110.166C28.8524 110.162 29.1611 110.167 29.4685 110.173C29.7079 110.177 29.9477 110.181 30.2884 110.181C30.3857 110.181 30.4914 110.181 30.6077 110.18L30.7323 110.179V109.69L30.6002 109.697C30.5871 109.699 29.5963 109.749 28.9905 109.273Z" fill="white"/>
<path d="M40.089 107.754C39.3166 109.172 38.8996 109.588 37.6267 109.61C35.6103 109.645 34.553 109.589 34.4256 109.521C34.3108 109.458 34.2637 109.432 34.2471 108.982C34.2471 108.982 34.2301 108.664 34.2182 108.325C34.2127 108.157 34.2028 107.877 34.2072 107.733C34.2111 107.021 34.219 106.288 34.2258 105.575L34.2364 104.5L36.3882 104.506C37.7889 104.485 38.1684 104.981 38.3812 105.903L38.4034 106H38.845L38.2333 102.64H37.8285L37.8344 102.77C37.8542 103.223 37.7778 103.544 37.6073 103.723C37.4898 103.847 37.3256 103.909 37.1071 103.911L34.2364 103.915C34.2404 103.204 34.2281 102.436 34.2155 101.693C34.2044 100.988 34.1921 100.26 34.1941 99.5617L37.5558 99.5558C37.5713 99.5554 37.5859 99.5554 37.6006 99.5554C38.5989 99.5554 39.0725 100.284 39.5093 101.458L39.5398 101.539H39.9846L39.9422 101.381C39.6981 100.474 39.4421 99.2971 39.4777 99.1395L39.5256 98.9776L31.9114 99.0546L31.9078 99.4855L32.0273 99.4922C32.1963 99.5021 32.5049 99.5384 32.6118 99.5957C32.7146 99.6506 32.8246 99.8939 32.825 100.412L32.812 108.976C32.8068 109.224 32.7601 109.423 32.7431 109.457C32.6727 109.592 32.2924 109.659 32.0356 109.649L31.8869 109.647L31.9102 109.794C31.9288 109.909 31.911 110.007 31.911 110.008L31.8833 110.157L39.8263 110.152L39.9533 110.15L39.9513 110.023C39.9497 109.893 40.2433 108.699 40.5456 107.858L40.6058 107.69L40.1246 107.689L40.089 107.754Z" fill="white"/>
<path d="M52.0399 99.0477L51.9339 99.0192L48.1832 108.028L44.4574 99.0406L44.3707 99.0437C43.5026 99.0726 43.0527 99.0611 42.5328 99.0485C42.3329 99.0433 42.1209 99.0378 41.8688 99.0343L41.7422 99.0323V99.5185L41.868 99.5177C42.126 99.5122 42.5688 99.5362 42.6978 99.6006C42.9387 99.7211 43.1746 99.8949 43.1746 100.566L43.1714 108.83H43.1726C43.171 108.862 43.171 108.899 43.171 108.941C43.1718 109.124 43.1124 109.271 42.9898 109.386C42.7045 109.656 42.1327 109.688 41.9543 109.676L41.8197 109.668L41.8269 110.164L45.077 110.175L45.0727 110.046C45.0703 109.956 45.0671 109.935 45.0648 109.915C45.0624 109.899 45.0604 109.883 45.0584 109.81L45.0521 109.677L44.9191 109.689C44.8127 109.699 44.326 109.684 44.0475 109.432C43.9014 109.3 43.8298 109.125 43.8278 108.896C43.8271 108.837 43.8263 108.68 43.8263 108.621L43.8298 101.262L47.6462 110.253H47.7669L47.7863 110.128H47.8057H47.812L47.833 110.253H47.9707L51.6494 101.283L51.647 108.904C51.6454 109.152 51.5694 109.346 51.4222 109.478C51.1844 109.692 50.8077 109.703 50.7199 109.696L50.5838 109.68L50.5798 109.817C50.5774 109.896 50.5767 109.91 50.5755 109.926C50.5739 109.944 50.5719 109.962 50.5695 110.046L50.5652 110.176L54.2894 110.164L54.287 109.675L54.1548 109.683C53.9974 109.693 53.4838 109.662 53.2139 109.407C53.0869 109.287 53.0259 109.135 53.0267 108.939L53.026 108.667L53.0271 100.411C53.0271 99.9146 53.257 99.7318 53.5043 99.6081C53.6329 99.5438 54.027 99.5256 54.2435 99.5323L54.3717 99.5351V99.0327L53.6219 99.0441C52.9622 99.0548 52.1396 99.069 52.0399 99.0477Z" fill="white"/>
<path d="M63.8478 108.512C63.2704 109.227 62.4751 109.65 61.5488 109.733C59.2487 109.939 57.3771 108.042 57.0087 105.118C56.6419 102.205 58.0098 99.8639 60.2617 99.5523C60.4152 99.531 60.5675 99.5207 60.7187 99.5207C61.4444 99.5207 62.1404 99.7624 62.7537 100.232C63.8402 101.063 64.5877 102.52 64.8041 104.231C65.0186 105.933 64.6696 107.493 63.8478 108.512ZM61.0123 98.9405C59.589 98.8979 58.2599 99.3876 57.2703 100.326C56.2011 101.341 55.5949 102.821 55.5629 104.494C55.4988 107.806 57.6972 110.283 60.7911 110.383C60.852 110.385 60.9126 110.386 60.9731 110.386C62.3457 110.386 63.6131 109.896 64.5576 108.999C65.6295 107.978 66.2116 106.537 66.2401 104.829C66.2943 101.515 64.0954 99.0389 61.0123 98.9405Z" fill="white"/>
<path d="M75.2598 99.519L75.3856 99.5186H75.392C75.5328 99.5186 75.9788 99.5391 76.2265 99.7856C76.3432 99.9017 76.4006 100.051 76.4006 100.242V100.471C76.4002 101.544 76.4093 102.963 76.4184 104.379C76.4263 105.609 76.4346 106.837 76.4362 107.833L69.9738 99.0592L69.9078 99.0608C68.9929 99.0889 68.7065 99.0849 68.012 99.0746L67.4146 99.0667V99.5541L67.5408 99.5529C67.6682 99.549 68.0302 99.564 68.202 99.6386C68.5933 99.8093 68.7528 100.041 68.7528 100.438C68.7528 101.763 68.7551 103.163 68.7571 104.563C68.7591 105.963 68.7615 107.363 68.7615 108.688L68.7611 108.96C68.7619 109.156 68.7021 109.309 68.5775 109.428C68.2669 109.723 67.6547 109.694 67.6508 109.695L67.519 109.688V109.82C67.519 109.889 67.5166 109.909 67.5147 109.93C67.5123 109.955 67.5099 109.98 67.5099 110.064V110.19H70.6168L70.6121 110.06C70.6097 109.983 70.6097 109.964 70.6101 109.945C70.6105 109.924 70.6109 109.903 70.6073 109.816L70.6014 109.684L70.4692 109.697C70.4629 109.697 69.9208 109.728 69.6047 109.443C69.4583 109.311 69.3866 109.135 69.3847 108.905C69.3839 108.845 69.3827 108.689 69.3827 108.63C69.3827 107.323 69.3803 105.898 69.3783 104.472C69.3764 103.183 69.3744 101.894 69.3744 100.693L76.5474 110.287L76.5846 110.337H77.0669V110.212C77.0669 109.017 77.0661 101.308 77.0653 100.476V100.262C77.0641 100.058 77.1251 99.9001 77.2513 99.7785C77.5401 99.4996 78.0767 99.5166 78.0803 99.517L78.2108 99.5225V99.0608H75.2531L75.2598 99.519Z" fill="white"/>
<path d="M89.0001 99.0471H85.6815L85.6819 99.2628C85.6827 99.3366 85.6859 99.3489 85.6883 99.3623C85.6898 99.3722 85.6902 99.3915 85.6906 99.4516L85.691 99.6032L85.8402 99.574C85.8422 99.5736 85.8636 99.5697 85.8869 99.5657C86.1081 99.5578 86.5018 99.5918 86.6245 99.7186C86.6486 99.7435 86.6577 99.7676 86.6557 99.7991C86.6268 100.036 85.4113 102.456 84.6555 103.672L84.5277 103.877C84.3002 103.51 83.8788 102.806 83.4689 102.122C82.9636 101.278 82.4409 100.406 82.2529 100.115C82.1342 99.9342 82.1338 99.7399 82.1678 99.6854C82.192 99.6455 82.2462 99.6214 82.2877 99.6076C82.4702 99.5464 82.7325 99.578 82.7349 99.5788L82.8769 99.5961L82.873 99.0475L82.7495 99.0467C82.1584 99.0436 81.6582 99.0452 81.16 99.0467C80.6437 99.0487 80.1297 99.0507 79.5172 99.0467L79.3901 99.046L79.3941 99.6036L79.5263 99.5957C79.6303 99.5894 79.9405 99.5914 80.1198 99.6759C80.5451 99.8774 82.3439 102.875 83.4602 104.86L83.4582 108.831C83.457 108.875 83.4574 108.92 83.4574 108.964C83.4582 109.149 83.4586 109.308 83.3786 109.435C83.2647 109.614 82.8017 109.669 82.5422 109.66L82.389 109.655L82.4148 109.806C82.4349 109.924 82.4235 110.018 82.4235 110.019L82.4064 110.159H85.8232L85.7848 109.652L85.672 109.648C85.1802 109.633 85.05 109.588 85.0164 109.563C84.8672 109.45 84.8265 109.311 84.8087 108.858L84.7988 104.801C85.494 103.509 87.328 100.188 87.7035 99.8714C88.2456 99.4149 88.8435 99.5053 88.8494 99.5061L88.9914 99.5286L88.9946 99.3856C88.997 99.3078 88.9966 99.2908 88.9962 99.2738C88.9954 99.2588 88.995 99.2442 88.997 99.1751L89.0001 99.0471Z" fill="white"/>
</svg>
