<svg width="17" height="16" viewBox="0 0 17 16" fill="none" xmlns="http://www.w3.org/2000/svg">
<path d="M15.51 4.01221C14.5969 4.01221 13.7544 3.70971 13.0778 3.19939C12.3019 2.61439 11.7444 1.75627 11.5475 0.767207C11.4987 0.522832 11.4725 0.270645 11.47 0.012207H8.86154V7.13971L8.85841 11.0438C8.85841 12.0875 8.17873 12.9725 7.23654 13.2838C6.9631 13.3741 6.66779 13.4169 6.36029 13.4C5.96779 13.3785 5.59997 13.26 5.28029 13.0688C4.59997 12.6619 4.13872 11.9238 4.12622 11.0794C4.10654 9.75971 5.17341 8.68377 6.49216 8.68377C6.75247 8.68377 7.00248 8.72627 7.23654 8.80346V6.85533V6.15502C6.98966 6.11846 6.73841 6.0994 6.48435 6.0994C5.04091 6.0994 3.69091 6.6994 2.72591 7.78033C1.99654 8.59721 1.55904 9.63939 1.49154 10.7322C1.4031 12.1678 1.92841 13.5325 2.94716 14.5394C3.09685 14.6872 3.25404 14.8244 3.41841 14.951C4.29185 15.6231 5.35966 15.9875 6.48435 15.9875C6.73841 15.9875 6.98966 15.9688 7.23654 15.9322C8.28716 15.7766 9.25654 15.2956 10.0215 14.5394C10.9615 13.6103 11.4809 12.3769 11.4865 11.0641L11.4731 5.23408C11.9215 5.58002 12.4118 5.86627 12.9381 6.08846C13.7565 6.43377 14.6244 6.60877 15.5175 6.60846V4.7144V4.01158C15.5181 4.01221 15.5106 4.01221 15.51 4.01221Z" fill="white"/>
</svg>
