<svg width="20" height="20" viewBox="0 0 20 20" fill="none" xmlns="http://www.w3.org/2000/svg">
<path d="M9.48644 2C5.35853 2 2 5.35853 2 9.48644C2 13.6146 5.35853 16.9729 9.48644 16.9729C13.6146 16.9729 16.9729 13.6146 16.9729 9.48644C16.9729 5.35853 13.6146 2 9.48644 2ZM9.48644 15.5908C6.12054 15.5908 3.38211 12.8524 3.38211 9.48647C3.38211 6.12057 6.12054 3.38211 9.48644 3.38211C12.8523 3.38211 15.5908 6.12054 15.5908 9.48644C15.5908 12.8523 12.8523 15.5908 9.48644 15.5908Z" fill="white"/>
<path d="M18.7975 17.8204L14.8354 13.8583C14.5654 13.5883 14.1282 13.5883 13.8582 13.8583C13.5883 14.128 13.5883 14.5657 13.8582 14.8355L17.8203 18.7975C17.9553 18.9325 18.132 19 18.3089 19C18.4856 19 18.6625 18.9325 18.7975 18.7975C19.0674 18.5278 19.0674 18.0901 18.7975 17.8204Z" fill="white"/>
</svg>
