<svg width="13" height="12" viewBox="0 0 13 12" fill="none" xmlns="http://www.w3.org/2000/svg">
<g clip-path="url(#clip0_33_937)">
<path d="M11.5371 7.87663C10.8024 7.87663 10.0811 7.76172 9.39747 7.53581C9.0625 7.42156 8.65072 7.52638 8.44628 7.73634L7.097 8.75491C5.53222 7.91963 4.56834 6.95606 3.74447 5.40303L4.73306 4.08891C4.98991 3.83241 5.08203 3.45772 4.97166 3.10616C4.74478 2.41897 4.62953 1.69794 4.62953 0.962937C4.62956 0.431969 4.19759 0 3.66666 0H1.46291C0.931969 0 0.5 0.431969 0.5 0.962906C0.5 7.04884 5.45119 12 11.5371 12C12.0681 12 12.5 11.568 12.5 11.0371V8.8395C12.5 8.30859 12.068 7.87663 11.5371 7.87663Z" fill="white"/>
</g>
<defs>
<clipPath id="clip0_33_937">
<rect width="12" height="12" fill="white" transform="translate(0.5)"/>
</clipPath>
</defs>
</svg>
