<svg width="18" height="18" viewBox="0 0 18 18" fill="none" xmlns="http://www.w3.org/2000/svg">
<path d="M13.3873 16.875H4.61231C2.75605 16.875 1.2373 15.3563 1.2373 13.5V13.3875L1.5748 4.3875C1.63105 2.53125 3.14981 1.125 4.94981 1.125H13.0498C14.8498 1.125 16.3686 2.53125 16.4248 4.3875L16.7623 13.3875C16.8186 14.2875 16.4811 15.1313 15.8623 15.8063C15.2436 16.4813 14.3998 16.875 13.4998 16.875C13.4998 16.875 13.4436 16.875 13.3873 16.875ZM4.94981 2.25C3.71231 2.25 2.75605 3.20625 2.6998 4.3875L2.3623 13.5C2.3623 14.7375 3.3748 15.75 4.61231 15.75H13.4998C14.1186 15.75 14.6811 15.4688 15.0748 15.0188C15.4686 14.5688 15.6936 14.0063 15.6936 13.3875L15.3561 4.3875C15.2998 3.15 14.3436 2.25 13.1061 2.25H4.94981Z" fill="black"/>
<path d="M9 7.875C6.80625 7.875 5.0625 6.13125 5.0625 3.9375C5.0625 3.6 5.2875 3.375 5.625 3.375C5.9625 3.375 6.1875 3.6 6.1875 3.9375C6.1875 5.5125 7.425 6.75 9 6.75C10.575 6.75 11.8125 5.5125 11.8125 3.9375C11.8125 3.6 12.0375 3.375 12.375 3.375C12.7125 3.375 12.9375 3.6 12.9375 3.9375C12.9375 6.13125 11.1938 7.875 9 7.875Z" fill="black"/>
</svg>
