<svg width="42" height="52" viewBox="0 0 42 52" fill="none" xmlns="http://www.w3.org/2000/svg">
<path d="M16.6492 23.9442C15.9676 22.5262 15.4028 21.0833 14.9268 19.591C14.4788 18.1337 13.8739 16.7118 13.7899 15.1975C13.7245 9.71364 16.8062 4.36673 21.1238 1.07644C22.8354 2.29911 24.3321 3.81482 25.52 5.54932C27.2141 8.0277 28.2891 11.0004 28.3858 14.0067C28.3875 15.3753 28.1316 16.7151 27.6875 18.0203C27.0732 20.1658 26.3147 22.3014 25.2609 24.288C26.283 22.9324 27.1321 21.4201 27.838 19.8739C28.7538 18.0682 29.2558 16.0447 29.2583 14.0072C29.0844 8.36562 25.77 3.08703 21.1096 0C16.3112 3.40915 12.8215 9.26646 12.9185 15.2409C12.9719 16.8826 13.6312 18.3994 14.3507 19.8239C15.0094 21.2442 15.756 22.6538 16.6492 23.9442Z" fill="white"/>
<path d="M38.7105 33.5615C38.6624 33.441 38.4907 32.9757 38.6025 32.3829C38.6186 32.2973 38.6395 32.2183 38.6627 32.1438C38.7006 32.0966 38.7382 32.0492 38.7739 32.0021C39.1291 31.5343 39.404 31.0292 39.5991 30.5019C39.7895 29.9872 40.2267 28.3676 39.6368 26.5338C38.7292 23.7115 36.1128 22.6148 35.8 22.4897C35.6362 22.4239 33.5818 21.6349 31.2759 22.3229C31.098 22.3757 30.6636 22.5165 30.1384 22.7788C29.8499 22.9228 28.5452 23.5975 27.2773 25.3235C24.7158 28.8109 24.5461 33.5375 24.5354 35.0148C24.3142 35.0103 23.6122 35.0055 23.4858 35.0007C23.2163 34.9906 23.1334 34.9815 22.9858 34.9793C22.8294 34.977 22.6057 34.9818 22.3313 35.016C22.3316 32.7685 22.5949 30.9265 22.8588 29.6013C23.2638 27.5639 23.826 25.961 24.2902 24.6375C24.8685 22.9888 25.0275 22.8225 25.6087 21.2159C26.428 18.9499 26.9422 17.5282 27.1532 16.0266C27.6462 12.5169 26.335 9.62072 25.7362 8.29896C24.3227 5.17664 22.2544 3.22589 21.0252 2.23415V2.2237C21.023 2.2254 21.0207 2.22737 21.0187 2.22906C21.0165 2.22737 21.0142 2.2254 21.0122 2.2237V2.23415C19.7831 3.22589 17.7145 5.17664 16.301 8.29896C15.7025 9.62072 14.391 12.5169 14.884 16.0266C15.095 17.5282 15.6092 18.9499 16.4285 21.2159C17.0097 22.8225 17.1689 22.9888 17.747 24.6375C18.2111 25.961 18.7734 27.5639 19.1787 29.6013C19.4423 30.9265 19.7056 32.7685 19.7062 35.016C19.4318 34.9818 19.2081 34.977 19.0517 34.9793C18.9041 34.9815 18.8212 34.9906 18.5514 35.0007C18.425 35.0055 17.723 35.0103 17.5018 35.0148C17.4911 33.5375 17.3217 28.8109 14.7598 25.3235C13.4919 23.5975 12.1873 22.9228 11.8991 22.7788C11.3739 22.5165 10.9392 22.3757 10.7616 22.3229C8.4557 21.6349 6.40127 22.4239 6.23723 22.4897C5.92471 22.6148 3.3083 23.7115 2.40044 26.5338C1.81075 28.3676 2.24772 29.9872 2.43834 30.5019C2.63349 31.0292 2.90811 31.5343 3.26334 32.0021C3.29926 32.0492 3.33659 32.0966 3.37449 32.1438C3.39768 32.2183 3.41861 32.2973 3.43473 32.3829C3.54673 32.9757 3.37477 33.441 3.32669 33.5615C3.04245 34.276 2.43975 34.6264 2.25309 34.726C2.57721 34.6975 3.90478 34.5459 5.01147 33.6089C6.47452 34.5567 7.96698 34.7986 8.3915 34.8576C7.61685 33.3509 7.81143 31.7152 8.84204 30.7715C9.46934 30.1973 10.2477 30.0242 10.6841 29.9652C11.0362 29.9299 11.7724 29.9031 12.5292 30.2636C12.7232 30.3559 13.2518 30.6326 13.8195 31.4165C14.7901 32.7581 14.9168 34.2625 14.9168 35.0724H10.8925V38.8895C13.7425 38.8768 16.5925 38.8641 19.4423 38.8514C19.4154 39.2077 19.261 40.7299 18.0109 41.7092C16.8143 42.6467 14.7762 42.9598 13.7864 41.9271C13.3084 41.4289 13.2145 40.7629 13.1984 40.3682C12.9619 40.7629 12.499 41.6798 12.7218 42.7817C13.1528 44.9131 15.7316 45.6623 15.9319 45.7174C17.1494 46.0519 18.2109 45.8473 18.7112 45.7174C18.7731 46.3102 18.9471 47.2218 19.4754 48.2263C19.9632 49.1542 20.569 49.8106 21.0122 50.2213V50.2335C21.0142 50.2315 21.0165 50.2292 21.0187 50.2273C21.0207 50.2292 21.023 50.2315 21.0252 50.2335V50.2213C21.4684 49.8106 22.074 49.1542 22.5618 48.2263C23.0901 47.2218 23.2641 46.3102 23.326 45.7174C23.8266 45.8473 24.8878 46.0519 26.1053 45.7174C26.3056 45.6623 28.8844 44.9131 29.3157 42.7817C29.5382 41.6798 29.0753 40.7629 28.8388 40.3682C28.8227 40.7629 28.7291 41.4289 28.2511 41.9271C27.2609 42.9598 25.2232 42.6467 24.0266 41.7092C22.7765 40.7299 22.6218 39.2077 22.5949 38.8514C25.4449 38.8641 28.2947 38.8768 31.1447 38.8895V35.0724H27.1207C27.1204 34.2625 27.2474 32.7581 28.218 31.4165C28.7854 30.6326 29.3142 30.3559 29.5083 30.2636C30.2648 29.9031 31.0013 29.9299 31.3531 29.9652C31.7898 30.0242 32.5681 30.1973 33.1952 30.7715C34.226 31.7152 34.4203 33.3509 33.646 34.8576C34.0702 34.7986 35.563 34.5567 37.026 33.6089C38.1327 34.5459 39.46 34.6975 39.7844 34.726C39.5974 34.6264 38.9947 34.276 38.7105 33.5615Z" fill="white"/>
<path d="M24.4767 27.9296C23.7292 30.1757 23.4882 32.634 23.8624 34.965C23.7685 32.6061 24.1426 30.2942 25.0055 28.1083C25.7646 25.9792 26.9307 23.8517 28.8279 22.5822C32.9229 19.6905 38.3045 21.283 40.1216 25.9862C40.5368 27.323 40.7107 28.8059 40.338 30.1689C40.1513 30.932 39.6844 31.5595 39.3939 32.2944C39.0277 33.117 39.371 33.9645 40.1793 34.338C39.8541 34.1223 39.5693 33.8242 39.4641 33.4626C39.3526 33.1012 39.4471 32.7241 39.6125 32.387C39.9658 31.6939 40.4907 31.0568 40.7387 30.2957C41.2343 28.8426 41.1432 27.2425 40.7441 25.7807C40.2121 24.108 39.0921 22.6632 37.6608 21.652C34.8447 19.629 31.1188 19.9451 28.3641 21.921C26.3303 23.3619 25.1645 25.6204 24.4767 27.9296Z" fill="white"/>
<path d="M27.9828 39.4539C26.6213 39.5022 25.2612 39.5703 23.9028 39.6914C24.5827 39.7543 25.2629 39.7978 25.9428 39.8368C28.0855 39.955 30.2319 40.0044 32.3771 40.0104C32.3935 39.0319 32.3813 38.0509 32.3754 37.0727C32.3641 36.112 32.3474 35.1493 32.3112 34.1889C30.6485 34.2377 28.9872 34.3063 27.3287 34.454C28.8172 34.587 30.3074 34.6539 31.7993 34.703C31.7552 36.2605 31.7379 37.8188 31.7453 39.3772C30.4912 39.3853 29.2369 39.4076 27.9828 39.4539Z" fill="white"/>
<path d="M23.6878 46.5436C23.6847 46.3987 23.6765 46.2536 23.6623 46.1088C23.3753 48.0161 22.479 49.8265 21.0473 51.1226C19.616 49.8265 18.7194 48.0158 18.4323 46.1088C18.4182 46.2536 18.4103 46.3987 18.4069 46.5436C18.3749 46.3987 18.3387 46.2553 18.313 46.1088C18.1447 48.3667 19.2701 50.5854 21.0097 52C21.0224 51.9898 21.0346 51.9785 21.0473 51.9684C21.0601 51.9785 21.0722 51.9898 21.0852 52C22.8249 50.5854 23.95 48.3667 23.7817 46.1088C23.7559 46.2553 23.72 46.3987 23.6878 46.5436Z" fill="white"/>
<path d="M2.38749 32.3869C2.55295 32.724 2.64741 33.1012 2.53598 33.4625C2.43077 33.8242 2.14568 34.1223 1.82043 34.338C2.62931 33.9625 2.97294 33.1206 2.60612 32.2946C2.31566 31.5595 1.84872 30.9319 1.66177 30.1688C1.28929 28.8059 1.46294 27.3229 1.87841 25.9862C3.69527 21.2832 9.076 19.6904 13.1721 22.5818C15.069 23.8514 16.2354 25.9791 16.9942 28.1086C17.8574 30.2945 18.2313 32.6057 18.1377 34.965C18.5118 32.6339 18.2706 30.1756 17.5234 27.9296C16.8356 25.62 15.6695 23.3621 13.636 21.9209C10.8818 19.9448 7.15449 19.6295 4.33898 21.6519C2.90761 22.6631 1.78791 24.108 1.25592 25.7807C0.857135 27.2424 0.7655 28.8426 1.26129 30.2956C1.50904 31.0567 2.03425 31.6939 2.38749 32.3869Z" fill="white"/>
<path d="M9.68847 34.1888C9.65198 35.1493 9.63558 36.1119 9.62427 37.0726C9.61805 38.0508 9.60617 39.0318 9.62257 40.0103C11.7678 40.0044 13.9139 39.955 16.0568 39.8367C16.7367 39.7977 17.4166 39.7543 18.0968 39.6913C16.7384 39.5702 15.3783 39.5022 14.0168 39.4539C12.7625 39.4076 11.5084 39.3853 10.2541 39.3774C10.2618 37.819 10.2445 36.2607 10.2004 34.7029C11.6923 34.6541 13.1825 34.5869 14.671 34.4539C13.0125 34.3063 11.3512 34.238 9.68847 34.1888Z" fill="white"/>
</svg>
