<svg width="27" height="27" viewBox="0 0 27 27" fill="none" xmlns="http://www.w3.org/2000/svg">
<g clip-path="url(#clip0)">
<path d="M1.03675 14.9317L11.5152 4.44748C12.0685 3.89415 12.8082 3.58545 13.5887 3.58545C13.6528 3.58545 13.7169 3.58545 13.781 3.59127L21.3587 4.09219C22.18 4.14461 22.844 4.80861 22.8964 5.62988L23.077 8.32084C23.4614 8.0995 23.8284 7.81992 24.1604 7.48792C24.97 6.6783 25.4709 5.67065 25.5757 4.64552C25.6748 3.67281 25.3952 2.80495 24.7894 2.19919C23.5022 0.911959 21.1316 1.19736 19.4949 2.82825C19.2211 3.102 18.7785 3.102 18.5047 2.82825C18.2309 2.55449 18.2309 2.11182 18.5047 1.83807C20.6947 -0.334503 23.9565 -0.614083 25.7854 1.21484C26.6941 2.12347 27.1134 3.38741 26.9737 4.79114C26.8397 6.13662 26.1932 7.44715 25.1564 8.48392C24.5739 9.06638 23.8983 9.52653 23.1818 9.84105L23.4032 13.2135C23.4614 14.0581 23.1469 14.8851 22.547 15.4851L12.0627 25.9693C11.3987 26.6333 10.5192 26.9945 9.58143 26.9945C8.64367 26.9945 7.76415 26.6275 7.10015 25.9693L1.0251 19.8943C0.361101 19.2303 -2.28882e-05 18.3508 -2.28882e-05 17.413C0.00580025 16.4694 0.372749 15.5899 1.03675 14.9317ZM2.02111 18.8983L8.10198 24.9792C8.49805 25.3752 9.02809 25.5966 9.59308 25.5966C10.1581 25.5966 10.6881 25.3752 11.0842 24.9792L21.5684 14.4949C21.883 14.1804 22.046 13.7494 22.0169 13.3067L21.8131 10.2546C21.6966 10.2721 21.5801 10.2895 21.4636 10.3012C21.2889 10.3187 21.1141 10.3303 20.9452 10.3303C19.7512 10.3303 18.6853 9.91095 17.8931 9.1188C17.6194 8.84505 17.6194 8.40238 17.8931 8.12862C18.1669 7.85487 18.6095 7.85487 18.8833 8.12862C19.4891 8.73438 20.3569 9.01396 21.3296 8.91494C21.4636 8.9033 21.5917 8.88 21.7199 8.8567L21.5102 5.73472C21.5044 5.60658 21.3995 5.50756 21.2714 5.49591L13.6936 4.995C13.6586 4.995 13.6237 4.98917 13.5887 4.98917C13.181 4.98917 12.785 5.15226 12.4995 5.43766L2.02111 15.9161C1.62504 16.3122 1.4037 16.8422 1.4037 17.4072C1.4037 17.9722 1.62504 18.5022 2.02111 18.8983Z" fill="white"/>
</g>
<defs>
<clipPath id="clip0">
<rect width="27" height="27" fill="white" transform="matrix(-1 0 0 1 27 0)"/>
</clipPath>
</defs>
</svg>
