<svg width="41" height="40" viewBox="0 0 41 40" fill="none" xmlns="http://www.w3.org/2000/svg">
<g clip-path="url(#clip0)">
<path d="M34.4663 5.85789C30.6888 2.08031 25.6663 0 20.3242 0C14.9821 0 9.95961 2.08031 6.18211 5.85789C2.40453 9.63539 0.324219 14.6579 0.324219 20C0.324219 25.3421 2.40453 30.3646 6.18211 34.1421C9.95961 37.9197 14.9821 40 20.3242 40C25.6663 40 30.6888 37.9197 34.4663 34.1421C38.2438 30.3645 40.3242 25.3421 40.3242 20C40.3242 14.6579 38.2439 9.63539 34.4663 5.85789ZM20.3242 38.7369C9.99266 38.7369 1.58734 30.3316 1.58734 20C1.58734 9.66844 9.99266 1.26312 20.3242 1.26312C30.6558 1.26312 39.0611 9.66844 39.0611 20C39.0611 30.3316 30.6558 38.7369 20.3242 38.7369Z" fill="url(#paint0_linear)" fill-opacity="0.8"/>
<path d="M31.0941 11.0957H25.5845C25.1803 11.0957 24.8516 11.4245 24.8516 11.8286V13.8771C24.8516 14.2812 25.1803 14.61 25.5845 14.61H31.0941C31.4982 14.61 31.827 14.2812 31.827 13.8771V11.8286C31.827 11.4245 31.4982 11.0957 31.0941 11.0957ZM30.5638 13.3469H26.1148V12.3589H30.5638V13.3469Z" fill="url(#paint1_linear)" fill-opacity="0.8"/>
<path d="M28.3394 15.0244C24.4475 15.0244 21.2812 18.2293 21.2812 22.1686C21.2812 26.108 24.4476 29.3129 28.3394 29.3129C31.1046 29.3129 33.7215 27.556 34.8513 24.9411C34.8802 24.8742 34.9223 24.6315 34.9223 24.5761C34.9223 24.2273 34.6396 23.9446 34.2907 23.9446H30.9731C30.7408 23.9446 30.5273 24.0721 30.4171 24.2766C30.0786 24.9048 28.7802 25.0227 28.3534 25.0165C28.3488 25.0164 28.3441 25.0164 28.3394 25.0164C27.0499 25.0164 26.5698 24.1395 26.3913 23.4957H34.7217C34.723 23.4957 34.7244 23.4956 34.7258 23.4956C35.0475 23.4975 35.3237 23.2561 35.3579 22.93C35.3842 22.6783 35.3977 22.4221 35.3977 22.1686C35.3975 18.2293 32.2313 15.0244 28.3394 15.0244ZM34.1327 22.2329H25.6545C25.4842 22.2329 25.3211 22.3017 25.2023 22.4237C25.0834 22.5457 25.0187 22.7106 25.0232 22.8809C25.0254 22.9663 25.0561 23.7389 25.4512 24.5366C26.0069 25.6588 27.03 26.2776 28.3326 26.2797C28.348 26.28 28.3691 26.2802 28.3952 26.2802C28.8049 26.2802 30.4688 26.216 31.3049 25.2079H33.2913C32.2245 26.9361 30.3271 28.0499 28.3393 28.0499C25.1439 28.0499 22.5444 25.4116 22.5444 22.1688C22.5444 18.926 25.144 16.2877 28.3393 16.2877C31.5347 16.2877 34.1342 18.926 34.1342 22.1688C34.1343 22.19 34.1329 22.2115 34.1327 22.2329Z" fill="url(#paint2_linear)" fill-opacity="0.8"/>
<path d="M14.7734 13.5381H10.5183C10.1695 13.5381 9.88672 13.8209 9.88672 14.1696V17.4057C9.88672 17.7546 10.1695 18.0372 10.5183 18.0372H14.7734C15.9295 18.0372 16.87 17.0967 16.87 15.9406V15.6347C16.87 14.4786 15.9295 13.5381 14.7734 13.5381ZM15.6069 15.9407C15.6069 16.4003 15.233 16.7742 14.7734 16.7742H11.1498V14.8013H14.7734C15.233 14.8013 15.6069 15.1752 15.6069 15.6348V15.9407Z" fill="url(#paint3_linear)" fill-opacity="0.8"/>
<path d="M14.2084 20.4541H10.5183C10.1695 20.4541 9.88672 20.7369 9.88672 21.0857V25.1456C9.88672 25.4944 10.1695 25.7771 10.5183 25.7771H14.2084C15.6761 25.7771 16.87 24.5832 16.87 23.1156C16.87 21.648 15.6761 20.4541 14.2084 20.4541ZM14.2084 24.5141H11.1498V21.7173H14.2084C14.9795 21.7173 15.6069 22.3446 15.6069 23.1157C15.6069 23.8868 14.9795 24.5141 14.2084 24.5141Z" fill="url(#paint4_linear)" fill-opacity="0.8"/>
<path d="M31.1814 19.0929C30.7963 18.4142 29.9942 17.6058 28.3595 17.5995C28.1401 17.5877 26.8034 17.5539 25.8811 18.4075C25.312 18.9342 25.0234 19.6647 25.0234 20.5784C25.0235 20.9272 25.3063 21.2099 25.6551 21.2099H30.9732C31.1422 21.2099 31.3041 21.1422 31.4228 21.022C31.5415 20.9016 31.607 20.7388 31.6047 20.5698C31.6038 20.4932 31.583 19.8004 31.1814 19.0929ZM26.3681 19.9467C26.4409 19.7009 26.5625 19.4995 26.7347 19.3387C27.3102 18.8008 28.2843 18.8599 28.2911 18.8606C28.3073 18.8619 28.3236 18.8625 28.3398 18.8625C29.1693 18.8625 29.7328 19.1305 30.0626 19.6816C30.1156 19.7702 30.1587 19.8601 30.1935 19.9468H26.3681V19.9467Z" fill="url(#paint5_linear)" fill-opacity="0.8"/>
<path d="M18.548 19.058C19.7079 18.2741 20.4714 16.9462 20.4696 15.4435C20.4667 13.0519 18.4342 11.0957 16.0426 11.0957H6.86594C6.51711 11.0957 6.23438 11.3785 6.23438 11.7273V21.6184C6.23438 21.9673 6.51719 22.25 6.86594 22.25C7.21477 22.25 7.4975 21.9672 7.4975 21.6184V12.3589H16.0575C17.734 12.3589 19.1498 13.67 19.2048 15.3455C19.262 17.0902 17.8645 18.5287 16.1348 18.5388C15.7953 18.5409 15.5002 18.803 15.4855 19.1423C15.4697 19.504 15.7582 19.802 16.1165 19.802H16.3888C18.317 19.802 19.88 21.3651 19.88 23.2932V23.7312C19.88 25.6594 18.3169 27.2224 16.3888 27.2224H7.4975V20.7059C7.4975 20.357 7.21469 20.0743 6.86594 20.0743C6.51711 20.0743 6.23438 20.3571 6.23438 20.7059V27.8541C6.23438 28.2029 6.51719 28.4856 6.86594 28.4856H16.3888C19.0146 28.4856 21.1432 26.357 21.1432 23.7312V23.2933C21.1433 21.4484 20.0873 19.8459 18.548 19.058Z" fill="url(#paint6_linear)" fill-opacity="0.8"/>
</g>
<defs>
<linearGradient id="paint0_linear" x1="20.3242" y1="0" x2="20.3242" y2="40" gradientUnits="userSpaceOnUse">
<stop stop-color="#A6A7CF"/>
<stop offset="1" stop-color="#82B1FF"/>
</linearGradient>
<linearGradient id="paint1_linear" x1="28.3393" y1="11.0957" x2="28.3393" y2="14.61" gradientUnits="userSpaceOnUse">
<stop stop-color="#A6A7CF"/>
<stop offset="1" stop-color="#82B1FF"/>
</linearGradient>
<linearGradient id="paint2_linear" x1="28.3395" y1="15.0244" x2="28.3395" y2="29.3129" gradientUnits="userSpaceOnUse">
<stop stop-color="#A6A7CF"/>
<stop offset="1" stop-color="#82B1FF"/>
</linearGradient>
<linearGradient id="paint3_linear" x1="13.3784" y1="13.5381" x2="13.3784" y2="18.0372" gradientUnits="userSpaceOnUse">
<stop stop-color="#A6A7CF"/>
<stop offset="1" stop-color="#82B1FF"/>
</linearGradient>
<linearGradient id="paint4_linear" x1="13.3784" y1="20.4541" x2="13.3784" y2="25.7771" gradientUnits="userSpaceOnUse">
<stop stop-color="#A6A7CF"/>
<stop offset="1" stop-color="#82B1FF"/>
</linearGradient>
<linearGradient id="paint5_linear" x1="28.3141" y1="17.5957" x2="28.3141" y2="21.2099" gradientUnits="userSpaceOnUse">
<stop stop-color="#A6A7CF"/>
<stop offset="1" stop-color="#82B1FF"/>
</linearGradient>
<linearGradient id="paint6_linear" x1="13.6888" y1="11.0957" x2="13.6888" y2="28.4856" gradientUnits="userSpaceOnUse">
<stop stop-color="#A6A7CF"/>
<stop offset="1" stop-color="#82B1FF"/>
</linearGradient>
<clipPath id="clip0">
<rect width="40" height="40" fill="white" transform="translate(0.324219)"/>
</clipPath>
</defs>
</svg>
