<svg width="476" height="471" viewBox="0 0 476 471" fill="none" xmlns="http://www.w3.org/2000/svg">
<path opacity="0.31" d="M238.234 470.72C369.362 470.72 475.662 462.182 475.662 451.651C475.662 441.12 369.362 432.583 238.234 432.583C107.105 432.583 0.804688 441.12 0.804688 451.651C0.804688 462.182 107.105 470.72 238.234 470.72Z" fill="url(#paint0_linear)" fill-opacity="0.6"/>
<path d="M147.224 129.571H67.6753C66.1121 129.571 64.7227 128.357 64.7227 126.624V91.4342C64.7227 89.8741 65.9385 88.4873 67.6753 88.4873H147.05C148.613 88.4873 150.003 89.7007 150.003 91.4342V126.624C150.003 128.357 148.787 129.571 147.224 129.571Z" fill="url(#paint1_linear)"/>
<path d="M127.945 97.3281H72.7129V99.4083H127.945V97.3281Z" fill="white"/>
<path d="M142.187 104.608H72.7129V106.689H142.187V104.608Z" fill="white"/>
<path d="M142.187 111.716H72.7129V113.796H142.187V111.716Z" fill="white"/>
<path d="M142.187 118.823H72.7129V120.903H142.187V118.823Z" fill="white"/>
<path d="M135.588 129.571H145.488V142.052L135.588 129.571Z" fill="url(#paint2_linear)"/>
<path d="M335.671 45.1508H415.046C416.609 45.1508 417.999 43.9374 417.999 42.2039V7.0143C417.999 5.45416 416.783 4.06738 415.046 4.06738H335.671C334.108 4.06738 332.719 5.28082 332.719 7.0143V42.2039C332.892 43.764 334.108 45.1508 335.671 45.1508Z" fill="url(#paint3_linear)"/>
<path d="M395.941 12.9082H340.709V14.9884H395.941V12.9082Z" fill="white"/>
<path d="M410.183 20.0156H340.709V22.0958H410.183V20.0156Z" fill="white"/>
<path d="M410.183 27.123H340.709V29.2032H410.183V27.123Z" fill="white"/>
<path d="M410.183 34.4033H340.709V36.4835H410.183V34.4033Z" fill="white"/>
<path d="M347.308 45.1514H337.408V57.4591L347.308 45.1514Z" fill="url(#paint4_linear)"/>
<path d="M212.529 61.0993L222.777 47.5781L235.803 68.5532L212.529 61.0993Z" fill="url(#paint5_linear)"/>
<path d="M184.044 4.24084C168.239 12.0415 161.986 31.1098 169.802 46.8844C177.618 62.659 196.723 68.8996 212.529 61.0989C228.334 53.2983 234.587 34.23 226.771 18.4554C218.781 2.85406 199.676 -3.55981 184.044 4.24084Z" fill="url(#paint6_linear)"/>
<path d="M179.703 21.0552L178.313 23.8288C177.966 24.5222 178.313 25.2156 178.834 25.5622L181.266 26.7757C181.092 27.4691 181.092 28.3358 181.092 29.0292L178.487 29.8959C177.792 30.0693 177.445 30.936 177.618 31.6294L178.661 34.5763C178.834 35.2697 179.703 35.6164 180.397 35.4431L183.003 34.5763C183.35 35.2697 183.871 35.7898 184.566 36.3098L183.35 38.7367C183.003 39.4301 183.35 40.1235 183.871 40.4702L186.65 41.8569C187.345 42.2036 188.04 41.8569 188.387 41.3369L189.603 38.91C190.298 39.0834 191.166 39.0834 191.861 39.0834L192.729 41.6836C192.903 42.377 193.771 42.7237 194.466 42.5503L197.419 41.5102C198.113 41.3369 198.461 40.4702 198.287 39.7768L197.419 37.1765C198.113 36.8299 198.634 36.3098 199.156 35.6164L201.587 36.8299C202.282 37.1765 202.977 36.8299 203.324 36.3098L204.713 33.5362C205.061 32.8429 204.713 32.1495 204.192 31.8028L201.761 30.5893C201.935 29.8959 201.935 29.0292 201.935 28.3358L204.54 27.4691C205.235 27.2957 205.582 26.429 205.408 25.7356L204.366 22.7887C204.192 22.0953 203.324 21.7486 202.629 21.9219L200.024 22.7887C199.677 22.0953 199.156 21.5752 198.461 21.0552L199.677 18.6283C200.024 17.9349 199.677 17.2416 199.156 16.8949L196.377 15.5081C195.682 15.1614 194.987 15.5081 194.64 16.0281L193.424 18.455C192.729 18.2816 191.861 18.2816 191.166 18.2816L190.298 15.6814C190.124 14.988 189.255 14.6413 188.561 14.8147L185.608 15.8548C184.913 16.0281 184.566 16.8949 184.74 17.5882L185.608 20.1885C184.913 20.5352 184.392 21.0552 183.871 21.7486L181.44 20.5352C180.745 20.1885 180.05 20.3618 179.703 21.0552ZM186.476 26.2556C187.866 23.4821 191.166 22.442 193.945 23.8288C196.724 25.2156 197.766 28.5092 196.377 31.2827C194.987 34.0563 191.687 35.0964 188.908 33.7096C186.129 32.3228 185.087 29.0292 186.476 26.2556Z" fill="white"/>
<path d="M202.281 38.5637L201.413 40.4705C201.239 40.8172 201.413 41.3373 201.76 41.684L203.323 42.3774C203.149 42.8974 203.149 43.4175 203.149 43.7642L201.586 44.2842C201.065 44.4575 200.891 44.9776 201.065 45.3243L201.76 47.2311C201.934 47.7512 202.455 47.9245 202.802 47.7512L204.365 47.2311C204.713 47.5778 204.886 47.9245 205.407 48.2712L204.713 49.8313C204.539 50.178 204.713 50.6981 205.06 51.0448L206.97 51.9115C207.318 52.0849 207.839 51.9115 208.186 51.5648L208.881 50.0047C209.402 50.178 209.923 50.178 210.27 50.178L210.792 51.7382C210.965 52.2582 211.486 52.4315 211.834 52.2582L213.744 51.5648C214.265 51.3915 214.439 50.8714 214.265 50.5247L213.744 48.9646C214.092 48.6179 214.439 48.4445 214.786 47.9245L216.349 48.6179C216.697 48.7912 217.218 48.6179 217.565 48.2712L218.434 46.3644C218.607 46.0177 218.434 45.4976 218.086 45.1509L216.523 44.4575C216.697 43.9375 216.697 43.4175 216.697 43.0708L218.26 42.5507C218.781 42.3774 218.955 41.8573 218.781 41.5106L218.086 39.6038C217.913 39.0838 217.392 38.9104 217.044 39.0838L215.481 39.6038C215.134 39.2571 214.96 38.9104 214.439 38.5637L215.134 37.0036C215.307 36.6569 215.134 36.1369 214.786 35.7902L212.876 34.9234C212.528 34.7501 212.007 34.9234 211.66 35.2701L210.965 36.8302C210.444 36.6569 209.923 36.6569 209.576 36.6569L209.055 35.0968C208.881 34.5767 208.36 34.4034 208.013 34.5767L206.102 35.2701C205.581 35.4435 205.407 35.9635 205.581 36.3102L206.102 37.8703C205.755 38.217 205.407 38.3904 205.06 38.9104L203.497 38.217C202.976 37.8703 202.455 38.0437 202.281 38.5637ZM206.623 41.8573C207.492 40.1239 209.749 39.4305 211.486 40.2972C213.223 41.1639 213.918 43.4175 213.049 45.1509C212.181 46.8844 209.923 47.5778 208.186 46.7111C206.449 45.8443 205.755 43.5908 206.623 41.8573Z" fill="white"/>
<path d="M348.35 307.599C359.118 306.213 366.24 301.879 369.192 294.598C377.703 274.317 356.513 234.1 347.481 220.232L347.308 220.059C346.787 219.192 346.96 217.979 347.829 217.459L351.65 214.512C352.518 213.818 353.908 213.992 354.429 215.032C355.818 217.285 389.166 269.29 376.834 298.585C372.492 308.986 363.113 315.227 349.045 316.96C348.002 317.134 346.96 316.267 346.787 315.227L346.266 309.853C346.439 308.813 347.134 307.773 348.35 307.599Z" fill="url(#paint7_linear)"/>
<path d="M313.266 253.168H360.856C374.056 253.168 384.651 238.607 384.651 220.579V191.11C384.651 173.082 374.056 158.521 360.856 158.521H313.266C300.066 158.521 289.471 173.082 289.471 191.11V220.579C289.471 238.607 300.066 253.168 313.266 253.168Z" fill="url(#paint8_linear)"/>
<path d="M364.155 317.134H241.359V327.188H364.155V317.134Z" fill="url(#paint9_linear)"/>
<path d="M312.572 335.682H293.119V341.749H312.572V335.682Z" fill="url(#paint10_linear)"/>
<path d="M306.839 341.749H299.023V378.672H306.839V341.749Z" fill="url(#paint11_linear)"/>
<path d="M307.707 378.846H297.807V421.663H307.707V378.846Z" fill="url(#paint12_linear)"/>
<path d="M307.88 327.188H297.806H285.127L290.338 335.683H297.806H307.88H315.348L320.385 327.188H307.88Z" fill="url(#paint13_linear)"/>
<path d="M296.764 282.291C297.285 282.291 297.806 282.291 298.154 282.291C298.849 282.291 299.543 282.291 300.412 282.291C300.585 282.291 300.759 282.291 300.933 282.291C301.28 282.291 301.801 282.291 302.149 282.291C302.322 282.291 302.67 282.291 302.843 282.291C303.017 282.291 303.364 282.291 303.538 282.291C303.885 282.291 304.406 282.291 304.754 282.291C304.928 282.291 305.101 282.291 305.275 282.291C306.143 282.291 306.838 282.291 307.533 282.291C307.88 282.291 308.401 282.291 308.749 282.291H308.922C329.07 283.331 369.886 288.532 362.244 317.134H303.712H302.149H243.616C235.8 288.532 276.617 283.331 296.764 282.291Z" fill="url(#paint14_linear)"/>
<path d="M300.064 409.528C282.001 417.329 256.469 429.29 253.169 433.277C250.737 436.051 250.216 439.517 250.39 441.944L300.238 419.409V409.528H300.064Z" fill="url(#paint15_linear)"/>
<path d="M264.459 442.464C264.459 445.931 261.68 448.532 258.38 448.532C254.906 448.532 252.301 445.758 252.301 442.464C252.301 438.998 255.08 436.397 258.38 436.397C261.68 436.224 264.459 438.998 264.459 442.464Z" fill="url(#paint16_linear)"/>
<path d="M305.623 419.409L355.471 441.944C355.471 439.517 354.95 436.051 352.692 433.277C349.218 429.29 323.686 417.329 305.797 409.528V419.409H305.623Z" fill="url(#paint17_linear)"/>
<path d="M341.229 442.465C341.229 445.932 344.007 448.532 347.308 448.532C350.608 448.532 353.387 445.758 353.387 442.465C353.387 438.998 350.608 436.397 347.308 436.397C344.007 436.397 341.229 438.998 341.229 442.465Z" fill="url(#paint18_linear)"/>
<path d="M238.755 217.978C238.755 217.978 243.965 214.165 247.439 209.137C253.866 199.95 258.381 189.029 262.029 178.455C264.981 169.788 267.239 160.6 268.629 151.413C269.845 143.439 275.75 116.743 258.555 119.17C254.213 119.863 251.087 122.984 249.002 126.277C239.623 141.185 225.555 216.938 225.555 216.938L238.755 217.978Z" fill="url(#paint19_linear)"/>
<path d="M195.68 118.65L178.311 97.6748C178.311 97.6748 175.532 100.968 176.401 103.915C177.269 106.862 176.054 109.116 176.575 111.716C176.922 114.316 175.011 120.903 176.748 125.064C178.485 129.224 185.085 131.304 187.169 135.291C189.08 139.105 192.727 147.772 192.727 147.772L206.622 140.492L201.238 129.224C201.238 129.224 203.843 115.183 196.722 107.209L195.68 118.65Z" fill="url(#paint20_linear)"/>
<path d="M225.728 216.938C225.728 216.938 244.486 208.617 239.971 195.443C235.107 182.268 204.712 134.944 204.712 134.944L190.644 144.478C190.47 144.305 211.139 210.524 225.728 216.938Z" fill="url(#paint21_linear)"/>
<path d="M228.681 219.885C228.681 219.885 247.439 211.564 242.923 198.39C238.234 185.215 209.402 136.678 209.402 136.678L189.602 149.505C189.602 149.679 210.27 217.978 228.681 219.885Z" fill="url(#paint22_linear)"/>
<path d="M123.253 425.129L123.426 424.955C124.295 424.262 125.163 423.568 126.205 423.048C125.858 423.222 125.511 423.222 125.163 423.395C125.511 423.222 125.858 423.222 126.205 423.048C128.29 422.008 130.547 421.142 132.979 420.622C133.674 420.448 134.369 420.275 135.237 420.102C138.711 418.888 141.663 418.021 142.706 417.675C142.879 417.675 143.053 417.501 143.053 417.501C144.616 416.461 160.421 405.887 167.195 400.167C167.369 399.993 167.543 399.82 167.716 399.646C169.279 389.766 168.758 379.018 168.758 379.018L192.727 378.845C192.727 378.845 189.253 393.233 189.774 400.86C189.774 401.553 190.99 403.633 190.99 403.807C191.338 404.327 191.511 404.847 191.859 405.367C192.206 405.887 192.38 406.407 192.727 406.927C193.422 408.661 194.464 410.394 194.985 412.128C195.68 414.208 195.68 416.288 195.853 418.368C195.853 419.061 195.853 419.755 195.853 420.448C195.853 421.835 195.68 423.222 194.985 424.435C193.943 426.342 191.685 427.209 189.774 427.902C185.606 429.116 181.264 429.636 176.922 430.676C169.106 432.583 161.116 435.703 152.953 436.916C143.921 438.303 134.89 436.743 125.858 436.396C123.426 436.396 119.779 435.529 119.084 432.756C118.389 430.676 121.342 426.862 123.253 425.129Z" fill="url(#paint23_linear)"/>
<path d="M119.084 432.236C119.084 432.583 119.084 432.93 119.258 433.276C119.779 435.183 121.516 436.05 123.426 436.57C124.295 436.743 125.163 436.917 125.858 436.917C130.374 437.09 134.889 437.437 139.405 437.783C141.142 437.957 142.879 437.957 144.442 437.957C144.963 437.957 145.658 437.957 146.179 437.957C147.221 437.957 148.437 437.957 149.479 437.783C150 437.783 150.521 437.61 151.216 437.61C151.737 437.61 152.258 437.437 152.953 437.437C155.037 437.09 156.948 436.743 159.032 436.223C161.463 435.53 164.069 434.837 166.5 434.143C169.974 433.103 173.448 432.063 176.921 431.196C177.964 430.849 179.006 430.676 180.048 430.503C181.09 430.329 182.132 430.156 183.348 429.983C185.432 429.636 188.558 429.116 190.643 428.596C191.858 428.249 193.248 427.729 194.29 426.862C194.464 426.689 194.637 426.516 194.985 426.342C195.332 425.996 195.68 425.649 196.027 425.129C196.201 424.609 196.548 424.262 196.548 423.742C196.548 423.569 196.548 423.396 196.722 423.222C196.895 422.529 196.895 421.835 196.895 421.142C196.895 420.449 196.895 419.062 196.722 417.675C196.722 417.328 196.722 417.155 196.722 416.808C196.722 416.288 196.548 415.595 196.548 415.075C196.548 414.728 196.374 414.208 196.374 413.861C196.201 413.341 196.201 412.821 196.027 412.301C196.027 411.955 195.853 411.781 195.853 411.608C195.332 410.221 194.464 408.834 193.769 407.448C193.769 407.274 192.727 405.541 192.727 405.541C184.737 410.394 170.148 409.528 164.937 401.9C156.6 408.314 144.442 417.155 143.226 418.022H143.053C143.053 418.022 142.879 418.022 142.879 418.195C142.011 418.542 138.884 419.409 135.41 420.622C134.716 420.795 133.847 420.969 133.153 421.142C132.632 421.315 132.11 421.489 131.589 421.662C131.416 421.662 131.416 421.662 131.242 421.662C130.721 421.835 130.2 422.009 129.679 422.182C128.463 422.529 127.421 423.049 126.379 423.569C126.031 423.742 125.684 423.916 125.337 423.916C125.684 423.742 126.031 423.742 126.379 423.569C126.031 423.742 125.684 423.916 125.337 424.262C125.163 424.436 124.989 424.436 124.816 424.609C124.642 424.609 124.642 424.782 124.468 424.782C124.121 424.956 123.947 425.129 123.6 425.476L123.426 425.649C123.252 425.822 123.252 425.822 123.079 425.996C122.905 426.169 122.731 426.342 122.558 426.516C122.037 427.209 121.342 427.903 120.821 428.769C120.647 428.943 120.647 429.116 120.473 429.289C120.3 429.636 120.126 429.983 119.952 430.503C119.779 430.849 119.605 431.196 119.605 431.716C119.084 431.543 119.084 431.89 119.084 432.236ZM142.532 417.675C140.795 418.542 139.058 419.062 137.147 419.582H136.974C136.453 419.755 135.758 419.929 135.237 420.102C137.668 419.235 140.1 418.542 142.532 417.675Z" fill="url(#paint24_linear)"/>
<path d="M250.39 438.997C250.39 438.823 250.39 438.823 250.39 438.65C250.738 437.61 251.085 436.57 251.606 435.53C251.433 435.876 251.085 436.223 250.911 436.396C251.085 436.05 251.259 435.703 251.606 435.356C252.648 433.276 254.211 431.369 255.601 429.463C256.122 428.943 256.643 428.249 256.99 427.729C259.075 424.782 260.985 422.182 261.68 421.489C261.68 421.315 261.854 421.315 261.854 421.142C262.375 419.408 269.322 401.554 271.406 393.06C271.406 392.886 271.58 392.54 271.58 392.366C267.064 383.352 260.464 375.031 260.464 375.031L279.917 360.99C279.917 360.99 285.475 374.685 290.338 380.752C290.686 381.272 292.943 382.312 293.117 382.485C293.638 382.659 294.159 383.005 294.68 383.179C295.201 383.525 295.722 383.699 296.244 384.045C297.807 385.086 299.717 385.779 301.107 386.992C302.844 388.206 304.233 389.939 305.449 391.673C305.796 392.193 306.317 392.713 306.665 393.406C307.533 394.62 308.228 395.833 308.228 397.22C308.402 399.3 307.186 401.38 305.97 403.114C303.191 406.581 299.891 409.528 297.112 412.821C291.901 418.888 287.212 425.996 281.307 431.716C274.88 438.13 266.543 442.117 259.075 447.144C257.164 448.531 253.69 449.918 251.606 448.184C249.522 446.277 249.696 441.424 250.39 438.997Z" fill="url(#paint25_linear)"/>
<path d="M251.085 447.317C251.258 447.664 251.432 447.837 251.779 448.184C253.169 449.398 255.253 449.051 257.164 448.357C258.032 448.011 258.727 447.664 259.422 447.144C263.243 444.717 267.064 442.464 270.885 440.037C272.274 439.17 273.664 438.13 275.053 437.263C275.574 436.917 276.095 436.57 276.443 436.223C277.311 435.53 278.18 434.836 279.048 434.143C279.395 433.796 279.917 433.45 280.264 433.103C280.611 432.756 281.132 432.41 281.48 431.889C282.869 430.503 284.259 428.943 285.648 427.382C287.385 425.476 288.948 423.395 290.511 421.315C292.769 418.542 294.854 415.595 297.285 412.995C297.98 412.128 298.675 411.434 299.543 410.568C300.238 409.701 301.106 409.008 301.801 408.141C303.364 406.581 305.622 404.501 306.838 402.767C307.706 401.727 308.401 400.514 308.922 399.3C308.922 399.127 309.096 398.78 309.096 398.607C309.269 398.087 309.269 397.567 309.269 397.047C309.269 396.527 309.096 396.006 308.922 395.486C308.922 395.313 308.748 395.14 308.748 394.966C308.401 394.273 308.054 393.753 307.706 393.233C307.185 392.54 306.49 391.499 305.622 390.459C305.448 390.286 305.275 389.939 305.101 389.766C304.754 389.419 304.406 388.899 303.885 388.553C303.538 388.206 303.364 388.032 303.017 387.686C302.669 387.339 302.148 386.992 301.801 386.646C301.627 386.472 301.28 386.299 301.106 386.126C299.89 385.259 298.327 384.739 296.938 383.872C296.764 383.699 295.027 383.005 295.027 382.832C291.38 391.499 278.874 399.127 270.19 396.006C267.237 406.061 262.374 420.275 261.853 421.662C261.853 421.662 261.853 421.835 261.68 421.835C261.68 421.835 261.679 422.009 261.506 422.009C260.985 422.875 259.074 425.302 256.816 428.249C256.295 428.769 255.774 429.463 255.427 429.983C255.079 430.329 254.732 430.849 254.385 431.196L254.211 431.369C253.864 431.889 253.516 432.236 253.169 432.756C252.474 433.796 251.779 434.663 251.258 435.876C251.085 436.223 250.737 436.57 250.564 436.917C250.737 436.57 251.085 436.223 251.258 436.05C251.085 436.397 250.911 436.743 250.737 437.263C250.737 437.437 250.564 437.61 250.564 437.783C250.564 437.957 250.39 438.13 250.39 438.13C250.216 438.477 250.216 438.823 250.043 439.17C250.043 439.343 250.043 439.343 250.043 439.517C250.043 439.69 250.043 439.863 249.869 440.037C249.869 440.21 249.869 440.557 249.695 440.73C249.521 441.597 249.521 442.637 249.521 443.504C249.521 443.677 249.521 443.85 249.521 444.197C249.521 444.544 249.695 445.064 249.695 445.411C249.695 445.757 249.869 446.277 250.043 446.624C250.737 446.624 250.911 446.971 251.085 447.317C251.085 447.144 251.085 447.317 251.085 447.317ZM261.68 421.835C260.811 423.395 259.595 424.956 258.379 426.516C258.379 426.516 258.379 426.516 258.206 426.689C257.858 427.209 257.511 427.556 256.99 428.076C258.727 425.822 260.29 423.742 261.68 421.835Z" fill="url(#paint26_linear)"/>
<path d="M176.922 245.54C200.022 237.913 224.686 235.486 248.828 233.406C260.812 232.539 274.707 230.286 286.692 229.419C313.266 227.165 333.761 219.711 329.766 247.1C328.203 256.981 326.118 267.902 320.213 276.569C313.613 285.757 302.323 289.917 291.555 291.651C279.397 293.731 266.718 293.384 254.386 293.038C243.618 292.691 232.675 291.651 222.08 289.051C208.707 285.93 195.506 282.463 182.48 278.476C165.98 261.835 176.922 245.54 176.922 245.54Z" fill="url(#paint27_linear)"/>
<path d="M176.922 245.541C176.922 245.541 171.537 244.847 170.669 259.062C169.8 273.276 167.021 388.553 167.021 388.553L193.248 394.1C193.248 394.1 218.78 312.106 207.143 261.835C207.317 261.662 196.895 237.74 176.922 245.541Z" fill="url(#paint28_linear)"/>
<path d="M191.165 254.035C191.338 253.862 191.512 253.689 191.686 253.515C195.68 249.875 201.933 248.835 207.144 247.968C244.66 241.901 284.434 239.127 322.298 236.354C328.55 235.834 335.15 234.447 339.492 239.994C342.966 244.328 343.661 250.395 343.835 255.769C344.008 261.836 343.661 268.076 341.229 273.624C338.45 280.384 332.892 285.758 326.64 289.571C312.05 298.586 293.987 300.146 276.792 299.279C259.771 298.586 241.186 295.812 224.686 291.478C211.833 288.011 194.986 284.371 189.254 270.503C186.996 264.956 186.649 258.716 191.165 254.035Z" fill="url(#paint29_linear)"/>
<path d="M329.245 287.838C301.629 266.863 269.844 253.342 236.67 243.808C265.154 240.341 294.16 238.434 322.297 236.354C328.55 235.834 335.15 234.447 339.492 239.994C342.966 244.328 343.661 250.395 343.834 255.769C344.008 261.836 343.661 268.076 341.229 273.624C338.797 279.517 334.455 284.198 329.245 287.838Z" fill="url(#paint30_linear)"/>
<path d="M331.156 119.69C324.556 108.596 312.571 104.956 300.24 105.476C293.466 105.822 286.866 107.036 280.439 108.769C274.187 110.503 266.023 111.89 261.334 116.397C255.429 121.944 254.213 130.264 253.692 137.892C253.171 146.212 252.997 154.36 253.171 162.68C253.518 178.628 254.734 194.403 254.213 210.351C253.865 218.672 253.518 228.206 262.55 232.193C267.239 234.273 272.45 234.446 277.487 234.62C285.65 235.14 293.987 235.833 302.15 237.393C309.792 238.954 317.087 241.9 324.903 242.074C331.503 242.247 337.061 239.127 337.235 232.02C337.408 224.739 333.24 216.072 332.024 208.791C329.766 194.923 329.245 180.362 331.85 166.667C334.803 151.586 339.84 134.251 331.156 119.69Z" fill="url(#paint31_linear)"/>
<path d="M268.28 108.769C272.97 105.823 277.486 103.916 279.57 103.569L279.744 123.157L309.097 101.142C309.444 100.795 320.039 105.823 321.428 106.343C348.871 118.477 342.792 154.707 342.618 178.629C342.618 190.416 342.618 202.204 342.444 213.992C342.444 220.059 342.097 226.126 342.444 232.193C342.618 237.567 341.229 239.994 336.018 242.941C330.286 246.061 324.728 243.981 318.997 242.421C312.223 240.514 305.449 238.607 298.502 237.74C289.296 236.353 280.091 235.833 270.886 235.487C265.849 235.313 261.159 235.66 257.686 233.407V127.838C262.896 122.637 266.717 116.05 268.28 108.769Z" fill="url(#paint32_linear)"/>
<path d="M250.045 128.358C250.74 119.69 266.545 108.943 275.403 105.129C272.103 123.33 273.319 142.919 270.366 159.56C266.024 185.042 263.593 209.484 264.808 235.14C259.772 234.793 255.603 233.58 253.171 227.166C251.782 223.699 251.782 219.885 251.782 216.071C252.477 182.442 247.44 161.814 250.045 128.358Z" fill="url(#paint33_linear)"/>
<path d="M279.57 83.9805C279.57 87.6208 279.396 91.4345 279.396 95.0748C279.396 95.0748 278.702 111.543 280.786 113.796C284.781 117.957 304.06 113.796 304.06 100.969L303.365 71.6729L279.57 83.9805Z" fill="url(#paint34_linear)"/>
<path d="M311.704 101.142L296.767 126.451L283.566 115.356L305.103 95.9414L311.704 101.142Z" fill="url(#paint35_linear)"/>
<path d="M308.923 98.8883C308.054 98.5416 303.018 106.169 297.633 115.183C292.423 124.37 281.48 140.665 281.48 175.161C281.48 190.936 287.733 240.86 287.733 240.86C287.733 240.86 331.502 248.488 343.834 274.663C343.834 274.663 350.781 270.329 349.218 245.887C347.829 221.272 347.829 169.614 347.829 145.866C347.829 122.29 339.144 108.076 308.923 98.8883Z" fill="url(#paint36_linear)"/>
<path d="M306.318 101.662L307.36 126.277L295.549 131.651L301.454 148.119C301.454 148.119 273.317 195.617 273.491 195.443C273.665 195.27 298.502 147.773 298.502 147.773L291.902 130.785L305.276 124.717L304.407 104.262L306.318 101.662Z" fill="url(#paint37_linear)"/>
<path opacity="0.31" d="M286.865 208.618C292.076 192.15 306.144 149.68 314.829 137.025C317.26 133.559 319.692 118.651 324.555 118.131C343.834 116.05 337.408 156.267 335.671 164.934C333.587 174.815 330.808 184.523 327.16 193.884C322.645 205.325 317.087 216.765 309.618 226.473C305.623 231.673 299.718 235.66 299.718 235.66L287.039 218.499C287.039 215.379 287.039 212.085 286.865 208.618Z" fill="url(#paint38_linear)"/>
<path d="M273.492 118.13L279.05 136.505L287.734 118.65L282.177 118.477L279.745 123.157L279.919 118.303L273.492 118.13Z" fill="url(#paint39_linear)"/>
<path d="M278.008 131.131H281.308L285.65 208.444L276.444 217.631L268.281 207.404L278.008 131.131Z" fill="url(#paint40_linear)"/>
<path d="M302.672 46.1905L301.456 58.6716L299.545 77.5665L299.024 82.9403C283.045 100.622 263.071 98.7149 258.034 90.5676C252.997 82.5936 258.208 43.7637 258.208 43.7637L302.672 46.1905Z" fill="url(#paint41_linear)"/>
<path d="M263.418 60.0586L263.939 76.8733L254.387 77.0467L263.418 60.0586Z" fill="url(#paint42_linear)"/>
<path d="M296.591 47.7507C284.433 49.8309 249.522 57.2849 243.443 33.0162C237.364 8.74748 260.985 5.80056 272.101 18.6283C283.217 31.2827 293.986 9.44087 308.402 26.0823C308.402 26.0823 318.302 25.2155 321.602 34.923C326.639 50.0042 303.886 87.9674 303.886 87.9674L300.933 70.9793L297.633 70.1126L296.591 47.7507Z" fill="url(#paint43_linear)"/>
<path d="M285.651 21.7491C285.651 21.7491 308.577 20.3623 308.056 37.8704C307.535 55.3785 304.93 62.4858 304.93 62.4858L310.835 63.1792C310.835 63.1792 328.204 18.4555 292.772 17.4154C292.772 17.4154 289.124 16.8953 287.04 18.8021C284.782 20.8823 285.651 21.7491 285.651 21.7491Z" fill="url(#paint44_linear)"/>
<path d="M311.18 57.6318C314.48 62.4855 309.964 72.0196 299.891 74.9665L301.454 57.4584C302.67 55.0315 308.922 54.3382 311.18 57.6318Z" fill="url(#paint45_linear)"/>
<path d="M297.808 224.218C297.808 224.218 303.714 220.231 307.708 215.031C315.177 205.323 320.735 193.709 325.251 182.441C328.898 173.08 331.677 163.373 333.761 153.492C335.498 144.825 343.14 116.396 323.861 118.302C318.998 118.822 315.524 122.116 313.093 125.583C302.15 141.358 283.045 203.763 283.045 203.763L297.808 224.218Z" fill="url(#paint46_linear)"/>
<path d="M243.966 118.303L221.561 99.0615C221.561 99.0615 219.129 103.049 220.519 105.995C221.908 108.942 221.04 111.543 221.908 114.316C222.777 117.09 221.734 124.37 224.34 128.531C226.945 132.691 234.587 133.731 237.366 137.545C240.145 141.358 245.53 149.852 245.53 149.852L259.424 139.452L251.609 128.357C251.609 128.357 252.13 112.929 243.098 105.649L243.966 118.303Z" fill="url(#paint47_linear)"/>
<path d="M297.809 224.219C297.809 224.219 317.436 211.738 310.141 198.044C302.672 184.522 282.177 167.708 255.256 130.958L241.014 143.959C241.014 143.959 280.44 219.885 297.809 224.219Z" fill="url(#paint48_linear)"/>
<path d="M298.33 223.698C298.33 223.698 319.172 211.737 311.704 198.043C304.235 184.522 288.777 170.827 261.856 133.904L241.014 151.586C241.014 151.759 280.961 219.365 298.33 223.698Z" fill="url(#paint49_linear)"/>
<path d="M189.081 261.141C188.56 261.835 188.386 262.702 188.038 263.568C186.996 267.729 189.949 272.582 192.033 276.049C199.502 288.184 263.766 384.045 263.766 384.045L288.429 373.471C284.782 362.03 280.266 350.762 275.576 339.841C266.197 317.826 255.255 296.158 241.013 276.916C232.155 264.955 222.428 251.954 205.928 252.301C199.849 252.301 192.554 255.421 189.081 261.141Z" fill="url(#paint50_linear)"/>
<path d="M279.744 123.157L272.102 117.263L279.223 97.6748C279.223 97.6748 280.091 122.81 279.744 123.157Z" fill="url(#paint51_linear)"/>
<path d="M283.565 115.356L279.744 123.157L287.734 118.65L283.565 115.356Z" fill="url(#paint52_linear)"/>
<path d="M438.145 458.064L438.319 459.625H429.634L417.303 235.659H429.461L438.145 458.064Z" fill="url(#paint53_linear)"/>
<path d="M59.3365 235.659H71.4945L59.1628 459.625H50.4785L59.3365 235.659Z" fill="url(#paint54_linear)"/>
<path d="M448.046 229.592H40.0576C37.9733 229.592 36.4102 228.032 36.4102 225.952V219.538C36.4102 217.458 37.9733 215.897 40.0576 215.897H448.046C450.478 215.897 452.562 217.804 452.562 220.405V225.258C452.388 227.685 450.478 229.592 448.046 229.592Z" fill="url(#paint55_linear)"/>
<path d="M44.748 241.206H443.879V229.592H44.748V241.206Z" fill="url(#paint56_linear)"/>
<path d="M211.312 149.679L228.507 210.004L262.723 211.564V215.724H138.016L119.953 149.679H211.312Z" fill="url(#paint57_linear)"/>
<path d="M205.407 149.679L223.817 215.724H138.016L119.953 149.679H205.407Z" fill="url(#paint58_linear)"/>
<path d="M301.283 67.166C301.283 67.3394 292.599 84.3274 283.046 88.1411C277.662 90.2213 272.625 89.8746 269.498 89.1812C269.325 87.621 267.762 86.2343 266.198 86.2343C264.288 86.2343 262.725 87.7944 262.725 89.7012C262.725 91.6081 264.288 93.1682 266.198 93.1682C266.893 93.1682 267.588 92.9948 268.283 92.4748C269.846 92.8215 272.104 93.1682 274.535 93.1682C277.488 93.1682 280.962 92.6481 284.435 91.4347C295.204 87.2744 304.236 69.5929 304.583 68.8995L301.283 67.166Z" fill="url(#paint59_linear)"/>
<path d="M301.283 65.4326C301.283 65.606 292.599 82.594 283.046 86.4077C277.662 88.4879 272.625 88.1412 269.498 87.4478C269.325 85.8876 267.762 84.5009 266.198 84.5009C264.288 84.5009 262.725 86.061 262.725 87.9678C262.725 89.8747 264.288 91.4348 266.198 91.4348C266.893 91.4348 267.588 91.2614 268.283 90.7414C269.846 91.0881 272.104 91.4348 274.535 91.4348C277.488 91.4348 280.962 90.9147 284.435 89.7013C295.204 85.541 304.236 67.8595 304.583 67.1661L301.283 65.4326Z" fill="url(#paint60_linear)"/>
<path d="M296.244 79.8205C301.107 73.7533 304.234 67.5128 304.581 66.9927L301.455 65.4326C301.455 65.606 298.328 71.4998 293.986 77.2203C294.681 78.087 295.376 78.9537 296.244 79.8205Z" fill="url(#paint61_linear)"/>
<path d="M318.303 67.6859C317.261 75.6599 310.834 81.3804 304.061 80.3403C297.287 79.4735 292.597 72.1929 293.813 64.2189C294.855 56.2449 301.282 50.5244 308.055 51.5645C314.829 52.4313 319.345 59.7119 318.303 67.6859Z" fill="url(#paint62_linear)"/>
<path d="M315.697 67.8596C315.003 73.4068 310.487 77.3938 305.624 76.7004C300.934 76.007 297.634 70.9799 298.329 65.4328C299.023 59.8856 303.539 55.8986 308.403 56.592C313.266 57.1121 316.566 62.3125 315.697 67.8596Z" fill="white"/>
<path d="M314.482 67.6858C313.787 72.3662 310.139 75.6598 306.145 75.1397C302.15 74.6197 299.371 70.286 300.066 65.6056C300.76 60.9252 304.408 57.6316 308.403 58.1516C312.397 58.6717 315.003 63.0054 314.482 67.6858Z" fill="url(#paint63_linear)"/>
<defs>
<linearGradient id="paint0_linear" x1="238.308" y1="510.269" x2="238.308" y2="387.83" gradientUnits="userSpaceOnUse">
<stop stop-color="#D18AFC"/>
<stop offset="0.0390965" stop-color="#C483FB"/>
<stop offset="0.1651" stop-color="#A16FF9"/>
<stop offset="0.2987" stop-color="#845FF7"/>
<stop offset="0.4402" stop-color="#6D53F5"/>
<stop offset="0.5931" stop-color="#5D4AF4"/>
<stop offset="0.7658" stop-color="#5445F3"/>
<stop offset="1" stop-color="#5143F3"/>
</linearGradient>
<linearGradient id="paint1_linear" x1="102.489" y1="93.4263" x2="124.903" y2="164.713" gradientUnits="userSpaceOnUse">
<stop stop-color="#D18AFC"/>
<stop offset="0.0390965" stop-color="#C483FB"/>
<stop offset="0.1651" stop-color="#A16FF9"/>
<stop offset="0.2987" stop-color="#845FF7"/>
<stop offset="0.4402" stop-color="#6D53F5"/>
<stop offset="0.5931" stop-color="#5D4AF4"/>
<stop offset="0.7658" stop-color="#5445F3"/>
<stop offset="1" stop-color="#5143F3"/>
</linearGradient>
<linearGradient id="paint2_linear" x1="126.67" y1="85.8245" x2="149.084" y2="157.111" gradientUnits="userSpaceOnUse">
<stop stop-color="#D18AFC"/>
<stop offset="0.0390965" stop-color="#C483FB"/>
<stop offset="0.1651" stop-color="#A16FF9"/>
<stop offset="0.2987" stop-color="#845FF7"/>
<stop offset="0.4402" stop-color="#6D53F5"/>
<stop offset="0.5931" stop-color="#5D4AF4"/>
<stop offset="0.7658" stop-color="#5445F3"/>
<stop offset="1" stop-color="#5143F3"/>
</linearGradient>
<linearGradient id="paint3_linear" x1="380.437" y1="8.89806" x2="358.024" y2="80.1843" gradientUnits="userSpaceOnUse">
<stop stop-color="#D18AFC"/>
<stop offset="0.0390965" stop-color="#C483FB"/>
<stop offset="0.1651" stop-color="#A16FF9"/>
<stop offset="0.2987" stop-color="#845FF7"/>
<stop offset="0.4402" stop-color="#6D53F5"/>
<stop offset="0.5931" stop-color="#5D4AF4"/>
<stop offset="0.7658" stop-color="#5445F3"/>
<stop offset="1" stop-color="#5143F3"/>
</linearGradient>
<linearGradient id="paint4_linear" x1="356.257" y1="1.29612" x2="333.844" y2="72.5825" gradientUnits="userSpaceOnUse">
<stop stop-color="#D18AFC"/>
<stop offset="0.0390965" stop-color="#C483FB"/>
<stop offset="0.1651" stop-color="#A16FF9"/>
<stop offset="0.2987" stop-color="#845FF7"/>
<stop offset="0.4402" stop-color="#6D53F5"/>
<stop offset="0.5931" stop-color="#5D4AF4"/>
<stop offset="0.7658" stop-color="#5445F3"/>
<stop offset="1" stop-color="#5143F3"/>
</linearGradient>
<linearGradient id="paint5_linear" x1="230.235" y1="57.6247" x2="214.616" y2="65.4571" gradientUnits="userSpaceOnUse">
<stop stop-color="#A1AFFE"/>
<stop offset="1" stop-color="#C8D1FF"/>
</linearGradient>
<linearGradient id="paint6_linear" x1="226.675" y1="18.5151" x2="169.786" y2="47.0436" gradientUnits="userSpaceOnUse">
<stop stop-color="#A1AFFE"/>
<stop offset="1" stop-color="#C8D1FF"/>
</linearGradient>
<linearGradient id="paint7_linear" x1="363.11" y1="316.888" x2="363.11" y2="214.148" gradientUnits="userSpaceOnUse">
<stop stop-color="#07154B"/>
<stop offset="0.2641" stop-color="#0C174E"/>
<stop offset="0.5843" stop-color="#1B1D57"/>
<stop offset="0.9324" stop-color="#332767"/>
<stop offset="1" stop-color="#39296A"/>
</linearGradient>
<linearGradient id="paint8_linear" x1="331.168" y1="205.92" x2="375.595" y2="205.92" gradientUnits="userSpaceOnUse">
<stop stop-color="#740247"/>
<stop offset="1" stop-color="#FF4266"/>
</linearGradient>
<linearGradient id="paint9_linear" x1="241.405" y1="322.152" x2="364.243" y2="322.152" gradientUnits="userSpaceOnUse">
<stop stop-color="#07154B"/>
<stop offset="0.2641" stop-color="#0C174E"/>
<stop offset="0.5843" stop-color="#1B1D57"/>
<stop offset="0.9324" stop-color="#332767"/>
<stop offset="1" stop-color="#39296A"/>
</linearGradient>
<linearGradient id="paint10_linear" x1="293.057" y1="338.721" x2="312.594" y2="338.721" gradientUnits="userSpaceOnUse">
<stop stop-color="#07154B"/>
<stop offset="0.2641" stop-color="#0C174E"/>
<stop offset="0.5843" stop-color="#1B1D57"/>
<stop offset="0.9324" stop-color="#332767"/>
<stop offset="1" stop-color="#39296A"/>
</linearGradient>
<linearGradient id="paint11_linear" x1="298.94" y1="360.27" x2="306.709" y2="360.27" gradientUnits="userSpaceOnUse">
<stop stop-color="#07154B"/>
<stop offset="0.2641" stop-color="#0C174E"/>
<stop offset="0.5843" stop-color="#1B1D57"/>
<stop offset="0.9324" stop-color="#332767"/>
<stop offset="1" stop-color="#39296A"/>
</linearGradient>
<linearGradient id="paint12_linear" x1="297.843" y1="400.21" x2="307.804" y2="400.21" gradientUnits="userSpaceOnUse">
<stop stop-color="#740247"/>
<stop offset="1" stop-color="#FF4266"/>
</linearGradient>
<linearGradient id="paint13_linear" x1="285.193" y1="331.432" x2="320.454" y2="331.432" gradientUnits="userSpaceOnUse">
<stop stop-color="#07154B"/>
<stop offset="0.2641" stop-color="#0C174E"/>
<stop offset="0.5843" stop-color="#1B1D57"/>
<stop offset="0.9324" stop-color="#332767"/>
<stop offset="1" stop-color="#39296A"/>
</linearGradient>
<linearGradient id="paint14_linear" x1="302.824" y1="293.286" x2="302.824" y2="311.863" gradientUnits="userSpaceOnUse">
<stop stop-color="#740247"/>
<stop offset="1" stop-color="#FF4266"/>
</linearGradient>
<linearGradient id="paint15_linear" x1="250.239" y1="425.781" x2="300.025" y2="425.781" gradientUnits="userSpaceOnUse">
<stop stop-color="#07154B"/>
<stop offset="0.2641" stop-color="#0C174E"/>
<stop offset="0.5843" stop-color="#1B1D57"/>
<stop offset="0.9324" stop-color="#332767"/>
<stop offset="1" stop-color="#39296A"/>
</linearGradient>
<linearGradient id="paint16_linear" x1="252.167" y1="442.428" x2="264.453" y2="442.428" gradientUnits="userSpaceOnUse">
<stop stop-color="#740247"/>
<stop offset="1" stop-color="#FF4266"/>
</linearGradient>
<linearGradient id="paint17_linear" x1="305.622" y1="425.781" x2="355.408" y2="425.781" gradientUnits="userSpaceOnUse">
<stop stop-color="#07154B"/>
<stop offset="0.2641" stop-color="#0C174E"/>
<stop offset="0.5843" stop-color="#1B1D57"/>
<stop offset="0.9324" stop-color="#332767"/>
<stop offset="1" stop-color="#39296A"/>
</linearGradient>
<linearGradient id="paint18_linear" x1="341.195" y1="442.428" x2="353.48" y2="442.428" gradientUnits="userSpaceOnUse">
<stop stop-color="#740247"/>
<stop offset="1" stop-color="#FF4266"/>
</linearGradient>
<linearGradient id="paint19_linear" x1="225.806" y1="153.927" x2="248.524" y2="170.8" gradientUnits="userSpaceOnUse">
<stop stop-color="#071786"/>
<stop offset="0.1509" stop-color="#05136B"/>
<stop offset="0.3236" stop-color="#041055"/>
<stop offset="0.5107" stop-color="#030E45"/>
<stop offset="0.7204" stop-color="#020C3B"/>
<stop offset="1" stop-color="#020C38"/>
</linearGradient>
<linearGradient id="paint20_linear" x1="208.859" y1="126.272" x2="173.443" y2="120.612" gradientUnits="userSpaceOnUse">
<stop stop-color="#FFD1C1"/>
<stop offset="0.4889" stop-color="#FFCFBF"/>
<stop offset="0.665" stop-color="#FFCAB8"/>
<stop offset="0.7905" stop-color="#FFC0AD"/>
<stop offset="0.892" stop-color="#FFB29C"/>
<stop offset="0.9779" stop-color="#FFA086"/>
<stop offset="1" stop-color="#FF9A7F"/>
</linearGradient>
<linearGradient id="paint21_linear" x1="186.254" y1="171.298" x2="243.769" y2="180.489" gradientUnits="userSpaceOnUse">
<stop stop-color="#F9FBFC"/>
<stop offset="0.2923" stop-color="#F1F6FD"/>
<stop offset="0.733" stop-color="#DDE6FE"/>
<stop offset="0.9973" stop-color="#CDDBFF"/>
</linearGradient>
<linearGradient id="paint22_linear" x1="227.882" y1="193.313" x2="192.494" y2="146.408" gradientUnits="userSpaceOnUse">
<stop stop-color="#07154B"/>
<stop offset="0.2641" stop-color="#0C174E"/>
<stop offset="0.5843" stop-color="#1B1D57"/>
<stop offset="0.9324" stop-color="#332767"/>
<stop offset="1" stop-color="#39296A"/>
</linearGradient>
<linearGradient id="paint23_linear" x1="157.411" y1="437.921" x2="157.411" y2="379.065" gradientUnits="userSpaceOnUse">
<stop stop-color="#FFD1C1"/>
<stop offset="0.2806" stop-color="#FFCEBE"/>
<stop offset="0.5104" stop-color="#FFC6B4"/>
<stop offset="0.7222" stop-color="#FFB8A2"/>
<stop offset="0.9221" stop-color="#FFA48B"/>
<stop offset="1" stop-color="#FF9A7F"/>
</linearGradient>
<linearGradient id="paint24_linear" x1="196.737" y1="419.688" x2="119.009" y2="419.688" gradientUnits="userSpaceOnUse">
<stop stop-color="#07154B"/>
<stop offset="0.2641" stop-color="#0C174E"/>
<stop offset="0.5843" stop-color="#1B1D57"/>
<stop offset="0.9324" stop-color="#332767"/>
<stop offset="1" stop-color="#39296A"/>
</linearGradient>
<linearGradient id="paint25_linear" x1="279.28" y1="448.889" x2="279.278" y2="361.226" gradientUnits="userSpaceOnUse">
<stop stop-color="#FFD1C1"/>
<stop offset="0.2806" stop-color="#FFCEBE"/>
<stop offset="0.5104" stop-color="#FFC6B4"/>
<stop offset="0.7222" stop-color="#FFB8A2"/>
<stop offset="0.9221" stop-color="#FFA48B"/>
<stop offset="1" stop-color="#FF9A7F"/>
</linearGradient>
<linearGradient id="paint26_linear" x1="306.982" y1="391.945" x2="243.806" y2="437.139" gradientUnits="userSpaceOnUse">
<stop stop-color="#07154B"/>
<stop offset="0.2641" stop-color="#0C174E"/>
<stop offset="0.5843" stop-color="#1B1D57"/>
<stop offset="0.9324" stop-color="#332767"/>
<stop offset="1" stop-color="#39296A"/>
</linearGradient>
<linearGradient id="paint27_linear" x1="192.507" y1="218.405" x2="313.351" y2="288.311" gradientUnits="userSpaceOnUse">
<stop stop-color="#2A1200"/>
<stop offset="0.2286" stop-color="#2F1600"/>
<stop offset="0.5057" stop-color="#3E2000"/>
<stop offset="0.8069" stop-color="#563000"/>
<stop offset="1" stop-color="#6A3E00"/>
</linearGradient>
<linearGradient id="paint28_linear" x1="188.714" y1="243.916" x2="188.714" y2="394.043" gradientUnits="userSpaceOnUse">
<stop stop-color="#2A1200"/>
<stop offset="0.2286" stop-color="#2F1600"/>
<stop offset="0.5057" stop-color="#3E2000"/>
<stop offset="0.8069" stop-color="#563000"/>
<stop offset="1" stop-color="#6A3E00"/>
</linearGradient>
<linearGradient id="paint29_linear" x1="265.774" y1="299.595" x2="265.774" y2="235.895" gradientUnits="userSpaceOnUse">
<stop stop-color="#2A1200"/>
<stop offset="0.2286" stop-color="#2F1600"/>
<stop offset="0.5057" stop-color="#3E2000"/>
<stop offset="0.8069" stop-color="#563000"/>
<stop offset="1" stop-color="#6A3E00"/>
</linearGradient>
<linearGradient id="paint30_linear" x1="304.766" y1="233.308" x2="290.806" y2="256.195" gradientUnits="userSpaceOnUse">
<stop stop-color="#2A1200"/>
<stop offset="0.2286" stop-color="#2F1600" stop-opacity="0.7714"/>
<stop offset="0.5057" stop-color="#3E2000" stop-opacity="0.4943"/>
<stop offset="0.8069" stop-color="#563000" stop-opacity="0.1931"/>
<stop offset="1" stop-color="#6A3E00" stop-opacity="0"/>
</linearGradient>
<linearGradient id="paint31_linear" x1="295.069" y1="242.287" x2="295.069" y2="105.306" gradientUnits="userSpaceOnUse">
<stop stop-color="#FFD1C1"/>
<stop offset="0.2199" stop-color="#FFCCBB"/>
<stop offset="0.5082" stop-color="#FFBEAB"/>
<stop offset="0.8331" stop-color="#FFA890"/>
<stop offset="1" stop-color="#FF9A7F"/>
</linearGradient>
<linearGradient id="paint32_linear" x1="242.906" y1="209.92" x2="352.181" y2="146.707" gradientUnits="userSpaceOnUse">
<stop stop-color="#F9FBFC"/>
<stop offset="0.2923" stop-color="#F1F6FD"/>
<stop offset="0.733" stop-color="#DDE6FE"/>
<stop offset="0.9973" stop-color="#CDDBFF"/>
</linearGradient>
<linearGradient id="paint33_linear" x1="232.325" y1="191.626" x2="341.601" y2="128.413" gradientUnits="userSpaceOnUse">
<stop stop-color="#07154B"/>
<stop offset="0.2641" stop-color="#0C174E"/>
<stop offset="0.5843" stop-color="#1B1D57"/>
<stop offset="0.9324" stop-color="#332767"/>
<stop offset="1" stop-color="#39296A"/>
</linearGradient>
<linearGradient id="paint34_linear" x1="291.759" y1="71.5635" x2="291.759" y2="115.273" gradientUnits="userSpaceOnUse">
<stop stop-color="#FFD1C1"/>
<stop offset="0.2863" stop-color="#FFCEBE"/>
<stop offset="0.5141" stop-color="#FFC6B4"/>
<stop offset="0.7217" stop-color="#FFB8A3"/>
<stop offset="0.9163" stop-color="#FFA58C"/>
<stop offset="1" stop-color="#FF9A7F"/>
</linearGradient>
<linearGradient id="paint35_linear" x1="297.688" y1="126.373" x2="297.688" y2="96.0251" gradientUnits="userSpaceOnUse">
<stop stop-color="#F9FBFC"/>
<stop offset="0.3069" stop-color="#F0F5FD"/>
<stop offset="0.8031" stop-color="#D8E3FE"/>
<stop offset="0.9973" stop-color="#CDDBFF"/>
</linearGradient>
<linearGradient id="paint36_linear" x1="360.846" y1="209.769" x2="288.431" y2="160.706" gradientUnits="userSpaceOnUse">
<stop stop-color="#07154B"/>
<stop offset="0.2641" stop-color="#0C174E"/>
<stop offset="0.5843" stop-color="#1B1D57"/>
<stop offset="0.9324" stop-color="#332767"/>
<stop offset="1" stop-color="#39296A"/>
</linearGradient>
<linearGradient id="paint37_linear" x1="257.211" y1="167.42" x2="322.447" y2="129.682" gradientUnits="userSpaceOnUse">
<stop stop-color="#071786"/>
<stop offset="0.1973" stop-color="#07167E"/>
<stop offset="0.4984" stop-color="#051369"/>
<stop offset="0.8639" stop-color="#030E47"/>
<stop offset="1" stop-color="#020C38"/>
</linearGradient>
<linearGradient id="paint38_linear" x1="332.432" y1="183.163" x2="300.309" y2="172.328" gradientUnits="userSpaceOnUse">
<stop stop-color="#07154B"/>
<stop offset="0.2641" stop-color="#0C174E"/>
<stop offset="0.5843" stop-color="#1B1D57"/>
<stop offset="0.9324" stop-color="#332767"/>
<stop offset="1" stop-color="#39296A"/>
</linearGradient>
<linearGradient id="paint39_linear" x1="280.575" y1="136.436" x2="280.575" y2="118.188" gradientUnits="userSpaceOnUse">
<stop stop-color="#071786"/>
<stop offset="0.2038" stop-color="#071681"/>
<stop offset="0.4505" stop-color="#061472"/>
<stop offset="0.7194" stop-color="#04115A"/>
<stop offset="1" stop-color="#020C38"/>
</linearGradient>
<linearGradient id="paint40_linear" x1="256.256" y1="186.475" x2="299.021" y2="161.737" gradientUnits="userSpaceOnUse">
<stop stop-color="#071786"/>
<stop offset="0.1973" stop-color="#07167E"/>
<stop offset="0.4984" stop-color="#051369"/>
<stop offset="0.8639" stop-color="#030E47"/>
<stop offset="1" stop-color="#020C38"/>
</linearGradient>
<linearGradient id="paint41_linear" x1="302.744" y1="70.0522" x2="255.92" y2="70.0522" gradientUnits="userSpaceOnUse">
<stop stop-color="#FFD1C1"/>
<stop offset="0.4889" stop-color="#FFCFBF"/>
<stop offset="0.665" stop-color="#FFCAB8"/>
<stop offset="0.7905" stop-color="#FFC0AD"/>
<stop offset="0.892" stop-color="#FFB29C"/>
<stop offset="0.9779" stop-color="#FFA086"/>
<stop offset="1" stop-color="#FF9A7F"/>
</linearGradient>
<linearGradient id="paint42_linear" x1="242.673" y1="82.8895" x2="271.908" y2="62.6716" gradientUnits="userSpaceOnUse">
<stop stop-color="#EEA281"/>
<stop offset="0.246" stop-color="#EE9C7B"/>
<stop offset="0.5823" stop-color="#ED8A6C"/>
<stop offset="0.9693" stop-color="#EC6E52"/>
<stop offset="1" stop-color="#EC6B50"/>
</linearGradient>
<linearGradient id="paint43_linear" x1="322.338" y1="49.3493" x2="242.536" y2="49.3493" gradientUnits="userSpaceOnUse">
<stop stop-color="#071786"/>
<stop offset="0.1509" stop-color="#05136B"/>
<stop offset="0.3236" stop-color="#041055"/>
<stop offset="0.5107" stop-color="#030E45"/>
<stop offset="0.7204" stop-color="#020C3B"/>
<stop offset="1" stop-color="#020C38"/>
</linearGradient>
<linearGradient id="paint44_linear" x1="303.226" y1="17.1345" x2="297.81" y2="46.977" gradientUnits="userSpaceOnUse">
<stop stop-color="#D18AFC"/>
<stop offset="0.0390965" stop-color="#C483FB"/>
<stop offset="0.1651" stop-color="#A16FF9"/>
<stop offset="0.2987" stop-color="#845FF7"/>
<stop offset="0.4402" stop-color="#6D53F5"/>
<stop offset="0.5931" stop-color="#5D4AF4"/>
<stop offset="0.7658" stop-color="#5445F3"/>
<stop offset="1" stop-color="#5143F3"/>
</linearGradient>
<linearGradient id="paint45_linear" x1="298.68" y1="62.0953" x2="309.651" y2="68.4419" gradientUnits="userSpaceOnUse">
<stop stop-color="#FFD1C1"/>
<stop offset="0.2262" stop-color="#FFCDBC"/>
<stop offset="0.4949" stop-color="#FFC1AE"/>
<stop offset="0.7841" stop-color="#FFAD96"/>
<stop offset="1" stop-color="#FF9A7F"/>
</linearGradient>
<linearGradient id="paint46_linear" x1="328.712" y1="176.576" x2="296.589" y2="165.741" gradientUnits="userSpaceOnUse">
<stop stop-color="#07154B"/>
<stop offset="0.2641" stop-color="#0C174E"/>
<stop offset="0.5843" stop-color="#1B1D57"/>
<stop offset="0.9324" stop-color="#332767"/>
<stop offset="1" stop-color="#39296A"/>
</linearGradient>
<linearGradient id="paint47_linear" x1="259.474" y1="124.312" x2="220.195" y2="124.312" gradientUnits="userSpaceOnUse">
<stop stop-color="#FFD1C1"/>
<stop offset="0.4889" stop-color="#FFCFBF"/>
<stop offset="0.665" stop-color="#FFCAB8"/>
<stop offset="0.7905" stop-color="#FFC0AD"/>
<stop offset="0.892" stop-color="#FFB29C"/>
<stop offset="0.9779" stop-color="#FFA086"/>
<stop offset="1" stop-color="#FF9A7F"/>
</linearGradient>
<linearGradient id="paint48_linear" x1="241.045" y1="177.574" x2="311.761" y2="177.574" gradientUnits="userSpaceOnUse">
<stop stop-color="#F9FBFC"/>
<stop offset="0.2923" stop-color="#F1F6FD"/>
<stop offset="0.733" stop-color="#DDE6FE"/>
<stop offset="0.9973" stop-color="#CDDBFF"/>
</linearGradient>
<linearGradient id="paint49_linear" x1="277.985" y1="206.336" x2="276.083" y2="136.951" gradientUnits="userSpaceOnUse">
<stop stop-color="#07154B"/>
<stop offset="0.2641" stop-color="#0C174E"/>
<stop offset="0.5843" stop-color="#1B1D57"/>
<stop offset="0.9324" stop-color="#332767"/>
<stop offset="1" stop-color="#39296A"/>
</linearGradient>
<linearGradient id="paint50_linear" x1="250.925" y1="377.279" x2="213.52" y2="206.089" gradientUnits="userSpaceOnUse">
<stop stop-color="#2A1200"/>
<stop offset="0.2286" stop-color="#2F1600"/>
<stop offset="0.5057" stop-color="#3E2000"/>
<stop offset="0.8069" stop-color="#563000"/>
<stop offset="1" stop-color="#6A3E00"/>
</linearGradient>
<linearGradient id="paint51_linear" x1="276.009" y1="123.134" x2="276.009" y2="97.633" gradientUnits="userSpaceOnUse">
<stop stop-color="#E7E6FF"/>
<stop offset="0.3393" stop-color="#C9D2F8"/>
<stop offset="0.7637" stop-color="#AABDF1"/>
<stop offset="1" stop-color="#9EB5EE"/>
</linearGradient>
<linearGradient id="paint52_linear" x1="283.734" y1="123.134" x2="283.734" y2="115.332" gradientUnits="userSpaceOnUse">
<stop stop-color="#E7E6FF"/>
<stop offset="0.3393" stop-color="#C9D2F8"/>
<stop offset="0.7637" stop-color="#AABDF1"/>
<stop offset="1" stop-color="#9EB5EE"/>
</linearGradient>
<linearGradient id="paint53_linear" x1="438.281" y1="347.63" x2="417.244" y2="347.63" gradientUnits="userSpaceOnUse">
<stop stop-color="#07154B"/>
<stop offset="0.2641" stop-color="#0C174E"/>
<stop offset="0.5843" stop-color="#1B1D57"/>
<stop offset="0.9324" stop-color="#332767"/>
<stop offset="1" stop-color="#39296A"/>
</linearGradient>
<linearGradient id="paint54_linear" x1="71.5251" y1="347.63" x2="50.4884" y2="347.63" gradientUnits="userSpaceOnUse">
<stop stop-color="#07154B"/>
<stop offset="0.2641" stop-color="#0C174E"/>
<stop offset="0.5843" stop-color="#1B1D57"/>
<stop offset="0.9324" stop-color="#332767"/>
<stop offset="1" stop-color="#39296A"/>
</linearGradient>
<linearGradient id="paint55_linear" x1="244.386" y1="289.792" x2="244.386" y2="148.798" gradientUnits="userSpaceOnUse">
<stop offset="0.0774912" stop-color="#740247"/>
<stop offset="0.4359" stop-color="#FF4266"/>
</linearGradient>
<linearGradient id="paint56_linear" x1="244.387" y1="222.788" x2="244.387" y2="241.371" gradientUnits="userSpaceOnUse">
<stop stop-color="#740247"/>
<stop offset="1" stop-color="#FF4266"/>
</linearGradient>
<linearGradient id="paint57_linear" x1="143.332" y1="268.127" x2="221.371" y2="128.909" gradientUnits="userSpaceOnUse">
<stop stop-color="#1D262D"/>
<stop offset="0.1373" stop-color="#222B32"/>
<stop offset="0.304" stop-color="#303941"/>
<stop offset="0.4858" stop-color="#47505A"/>
<stop offset="0.6784" stop-color="#67717C"/>
<stop offset="0.8776" stop-color="#8F9AA7"/>
<stop offset="1" stop-color="#ACB7C6"/>
</linearGradient>
<linearGradient id="paint58_linear" x1="124.001" y1="218.017" x2="286.68" y2="97.6796" gradientUnits="userSpaceOnUse">
<stop stop-color="#1D262D"/>
<stop offset="0.1373" stop-color="#222B32"/>
<stop offset="0.304" stop-color="#303941"/>
<stop offset="0.4858" stop-color="#47505A"/>
<stop offset="0.6784" stop-color="#67717C"/>
<stop offset="0.8776" stop-color="#8F9AA7"/>
<stop offset="1" stop-color="#ACB7C6"/>
</linearGradient>
<linearGradient id="paint59_linear" x1="262.808" y1="80.1295" x2="304.473" y2="80.1295" gradientUnits="userSpaceOnUse">
<stop stop-color="#EEA281"/>
<stop offset="0.246" stop-color="#EE9C7B"/>
<stop offset="0.5823" stop-color="#ED8A6C"/>
<stop offset="0.9693" stop-color="#EC6E52"/>
<stop offset="1" stop-color="#EC6B50"/>
</linearGradient>
<linearGradient id="paint60_linear" x1="262.808" y1="78.4304" x2="304.473" y2="78.4304" gradientUnits="userSpaceOnUse">
<stop stop-color="#D18AFC"/>
<stop offset="0.0390965" stop-color="#C483FB"/>
<stop offset="0.1651" stop-color="#A16FF9"/>
<stop offset="0.2987" stop-color="#845FF7"/>
<stop offset="0.4402" stop-color="#6D53F5"/>
<stop offset="0.5931" stop-color="#5D4AF4"/>
<stop offset="0.7658" stop-color="#5445F3"/>
<stop offset="1" stop-color="#5143F3"/>
</linearGradient>
<linearGradient id="paint61_linear" x1="288.911" y1="86.1601" x2="298.997" y2="72.3422" gradientUnits="userSpaceOnUse">
<stop stop-color="#D18AFC"/>
<stop offset="0.0390965" stop-color="#C483FB"/>
<stop offset="0.1651" stop-color="#A16FF9"/>
<stop offset="0.2987" stop-color="#845FF7"/>
<stop offset="0.4402" stop-color="#6D53F5"/>
<stop offset="0.5931" stop-color="#5D4AF4"/>
<stop offset="0.7658" stop-color="#5445F3"/>
<stop offset="1" stop-color="#5143F3"/>
</linearGradient>
<linearGradient id="paint62_linear" x1="325.568" y1="78.2511" x2="305.396" y2="65.5182" gradientUnits="userSpaceOnUse">
<stop stop-color="#740247"/>
<stop offset="1" stop-color="#FF4266"/>
</linearGradient>
<linearGradient id="paint63_linear" x1="297.9" y1="60.6348" x2="314.802" y2="71.5777" gradientUnits="userSpaceOnUse">
<stop stop-color="#740247"/>
<stop offset="1" stop-color="#FF4266"/>
</linearGradient>
</defs>
</svg>
