<svg width="394" height="301" viewBox="0 0 394 301" fill="none" xmlns="http://www.w3.org/2000/svg">
<path d="M322.18 230.147C311.295 228.263 299.534 196.354 319.803 185.675C340.072 174.997 346.954 169.344 351.083 144.47C355.337 119.596 369.725 131.405 366.472 145.978C363.219 160.55 384.865 158.666 389.369 165.701C397.252 177.761 379.86 179.645 369.976 186.429C360.091 193.213 377.733 197.987 370.726 209.544C363.845 221.102 340.823 233.413 322.18 230.147Z" fill="#32B5C6"/>
<path d="M321.18 229.77L325.058 222.987L328.937 216.203C331.565 211.68 334.317 207.283 337.07 202.886C339.822 198.49 342.7 194.093 345.703 189.821C347.204 187.686 348.706 185.55 350.332 183.414C351.959 181.279 353.46 179.269 355.212 177.259C354.461 178.389 353.836 179.394 353.085 180.525L350.958 183.791C349.582 185.927 348.08 188.188 346.704 190.324L338.321 203.515C335.568 207.912 332.691 212.308 329.813 216.705C327.06 221.228 324.183 225.625 321.18 229.77Z" fill="white"/>
<path d="M332.314 211.806C336.568 210.173 340.948 209.042 345.452 208.037C349.831 207.032 354.335 206.153 358.84 205.65C354.586 207.284 350.206 208.414 345.702 209.419C341.323 210.424 336.944 211.304 332.314 211.806Z" fill="white"/>
<path d="M343.2 194.846C342.699 192.208 342.699 189.444 342.699 186.806C342.824 184.168 343.075 181.53 343.7 178.892C344.201 181.53 344.201 184.294 344.201 186.932C344.076 189.57 343.825 192.208 343.2 194.846Z" fill="white"/>
<path d="M325.684 246.102C325.684 246.102 319.553 234.167 330.063 226.504C340.448 218.841 345.078 208.916 339.197 199.871C333.191 190.826 317.927 196.479 311.546 192.083C305.04 187.811 307.917 178.515 302.537 168.465C295.405 155.023 281.767 158.54 278.514 160.676C275.261 162.812 269.631 169.093 277.013 181.279C284.52 193.464 279.015 197.736 273.009 207.283C267.128 216.831 277.513 220.6 294.404 223.74C311.295 227.007 314.173 247.735 314.173 247.735L325.684 246.102Z" fill="#4DD0E1"/>
<path d="M321.306 258.036C321.181 254.016 320.806 250.122 320.305 246.227C319.68 242.333 319.054 238.439 318.178 234.544C317.302 230.65 316.301 226.881 315.05 223.112L313.173 217.459L311.046 211.931C310.421 210.047 309.545 208.288 308.669 206.529C307.793 204.771 307.168 202.886 306.167 201.253L303.414 195.977C303.039 195.098 302.413 194.218 301.913 193.464L300.411 190.952C296.407 184.168 291.653 177.887 286.898 171.605C288.275 173.113 289.526 174.495 290.902 176.002C292.153 177.51 293.655 178.892 294.781 180.525C297.158 183.666 299.661 186.806 301.788 190.198C306.292 196.731 309.795 204.017 312.798 211.303C315.801 218.715 318.053 226.378 319.555 234.167C320.305 238.062 320.806 242.082 321.181 245.976C321.556 250.122 321.682 254.142 321.306 258.036Z" fill="white"/>
<path d="M314.174 219.217C311.922 217.207 309.544 215.448 306.917 214.066C304.289 212.685 301.662 211.554 298.909 210.674C297.533 210.298 296.157 209.795 294.655 209.669C293.905 209.544 293.279 209.293 292.528 209.293C291.777 209.167 291.027 209.041 290.401 209.041C289.65 208.916 288.9 208.916 288.149 208.79L285.897 208.539C284.395 208.413 282.894 208.413 281.393 208.288C282.894 208.036 284.395 207.785 285.897 207.534C287.398 207.534 288.9 207.283 290.401 207.408C293.404 207.408 296.532 208.036 299.41 208.79C302.288 209.795 305.165 211.051 307.668 212.81C310.295 214.443 312.672 216.579 314.174 219.217Z" fill="white"/>
<path d="M316.802 226.629C315.801 224.117 315.551 221.227 315.676 218.464C315.801 215.7 316.677 212.936 318.053 210.424L318.554 209.544C318.679 209.293 318.929 208.916 319.18 208.665C319.68 208.162 319.93 207.534 320.556 207.032L322.057 205.524C322.558 205.022 323.183 204.645 323.809 204.268C324.935 203.389 326.311 202.886 327.437 202.384C328.689 201.881 330.065 201.63 331.441 201.253C330.315 202.007 329.064 202.509 327.938 203.263C326.812 204.017 325.686 204.645 324.81 205.524C322.808 207.157 321.181 209.167 319.93 211.303C318.679 213.564 317.803 215.951 317.428 218.589C316.802 221.227 316.677 223.866 316.802 226.629Z" fill="white"/>
<path d="M362.22 239.946C381.488 244.845 381.988 227.886 370.227 218.464C362.845 212.559 377.985 209.419 383.74 203.64C393.75 193.841 377.609 181.404 369.351 190.072C360.968 198.74 355.838 201.379 349.708 202.132C343.577 202.886 326.436 203.012 327.937 214.067C328.813 220.851 322.932 226.755 323.808 233.664C341.575 227.509 352.085 237.308 362.22 239.946Z" fill="#60E3F4"/>
<path d="M323.682 233.539C330.688 227.383 338.321 221.981 346.078 216.831C349.957 214.318 353.96 211.931 358.089 209.67C362.218 207.409 366.347 205.399 370.726 203.766C366.723 206.153 362.719 208.539 358.84 211.052C354.961 213.564 350.958 215.951 347.079 218.464L335.443 226.001C331.564 228.64 327.56 231.152 323.682 233.539Z" fill="white"/>
<path d="M343.449 219.72C343.324 218.464 343.324 217.082 343.324 215.826C343.324 214.569 343.574 213.313 343.7 212.057C343.95 210.801 344.2 209.544 344.45 208.414C344.826 207.157 345.201 206.027 345.827 204.771C345.952 206.027 345.952 207.409 345.952 208.665C345.952 209.921 345.701 211.177 345.576 212.434C345.326 213.69 345.076 214.946 344.826 216.077C344.45 217.333 344.075 218.589 343.449 219.72Z" fill="white"/>
<path d="M338.195 223.238C340.447 222.861 342.825 222.61 345.077 222.484C347.329 222.358 349.706 222.358 351.958 222.358C354.211 222.358 356.588 222.484 358.84 222.61C361.092 222.735 363.469 222.987 365.721 223.363C363.469 223.74 361.092 223.992 358.84 224.117C356.588 224.243 354.211 224.243 351.958 224.243C349.706 224.243 347.329 224.117 345.077 223.992C342.825 223.866 340.447 223.615 338.195 223.238Z" fill="white"/>
<path d="M344.201 265.196H315.924L309.418 236.805H350.832L344.201 265.196Z" fill="#39306C"/>
<path d="M355.212 229.519H304.914V240.951H355.212V229.519Z" fill="#4B4583"/>
<g opacity="0.74">
<path opacity="0.74" d="M67.188 233.036C69.1899 228.011 74.0695 226.504 76.4468 221.981C80.7008 213.941 73.569 211.806 72.6932 206.404C71.5671 199.243 76.5719 199.871 79.1994 195.474C82.2022 190.324 77.0724 184.293 80.2003 179.394C88.0828 167.334 100.845 180.525 109.103 183.414C114.233 185.173 121.865 185.801 125.869 182.535C131.124 178.263 136.379 168.339 130.874 162.56C122.991 154.52 125.869 150.374 134.377 148.239C138.13 147.359 139.882 144.47 135.753 141.078C142.134 150.374 120.864 141.958 117.11 148.239C114.483 152.636 117.736 155.148 118.612 158.54C120.989 167.083 115.109 174.495 102.847 165.952C95.8402 161.053 96.3407 152.259 88.9587 149.998C81.952 147.862 73.8193 154.143 71.3169 162.56C68.8145 170.851 65.8116 175.123 56.8031 174.243C46.1679 173.113 38.0352 179.771 42.7897 189.319C47.0438 197.735 58.6799 192.962 64.5604 197.861C71.1918 203.263 69.0647 210.675 60.5566 217.584C57.9291 219.72 53.8002 222.986 54.9263 226.629C55.5519 229.016 59.8059 232.785 62.5585 232.911L67.188 233.036Z" fill="white"/>
</g>
<path d="M82.8272 236.428H80.5751V233.287C80.5751 232.031 79.5741 230.9 78.1978 230.9H51.2972C50.046 230.9 48.9199 231.905 48.9199 233.287V252.131C48.9199 259.292 54.6754 265.071 61.8072 265.071H67.6878C73.3181 265.071 78.1978 261.428 79.8243 256.277H82.8272C85.0793 256.277 86.9561 254.392 86.9561 252.131V240.448C86.9561 238.312 85.2045 236.428 82.8272 236.428ZM84.3286 252.257C84.3286 253.136 83.703 253.764 82.8272 253.764H80.4499C80.4499 253.262 80.5751 252.759 80.5751 252.257V239.066H82.8272C83.703 239.066 84.3286 239.694 84.3286 240.574V252.257Z" fill="#E02D76"/>
<path d="M77.1968 237.685C77.1968 235.298 76.6964 233.036 75.8205 231.026H51.2972C50.046 231.026 48.9199 232.031 48.9199 233.413V252.257C48.9199 254.518 49.5455 256.654 50.5465 258.538C50.9218 258.538 51.2972 258.538 51.6725 258.538C65.811 258.538 77.1968 249.242 77.1968 237.685Z" fill="#F7327A"/>
<path d="M365.096 293.588H24.5219C20.8935 293.588 17.8906 290.573 17.8906 286.93C17.8906 283.286 20.8935 280.271 24.5219 280.271H365.096C368.725 280.271 371.727 283.286 371.727 286.93C371.727 290.698 368.725 293.588 365.096 293.588Z" fill="#39306C"/>
<path d="M373.48 283.915H16.1397C11.0098 283.915 6.88086 279.769 6.88086 274.619C6.88086 269.468 11.0098 265.322 16.1397 265.322H373.48C378.61 265.322 382.739 269.468 382.739 274.619C382.739 279.644 378.61 283.915 373.48 283.915Z" fill="#221B4C"/>
<path d="M315.675 111.556C329.012 111.556 339.823 100.701 339.823 87.3103C339.823 73.9197 329.012 63.0645 315.675 63.0645C302.339 63.0645 291.527 73.9197 291.527 87.3103C291.527 100.701 302.339 111.556 315.675 111.556Z" fill="#4B4583"/>
<path d="M315.674 106.28C326.109 106.28 334.567 97.7869 334.567 87.3104C334.567 76.8338 326.109 68.3408 315.674 68.3408C305.24 68.3408 296.781 76.8338 296.781 87.3104C296.781 97.7869 305.24 106.28 315.674 106.28Z" fill="white"/>
<path d="M315.676 87.3109V75.8789" stroke="#4B4583" stroke-width="0.9782" stroke-miterlimit="10" stroke-linecap="round" stroke-linejoin="round"/>
<path d="M315.676 87.3105L322.557 94.22" stroke="#4B4583" stroke-width="0.9782" stroke-miterlimit="10" stroke-linecap="round" stroke-linejoin="round"/>
<path d="M315.676 104.019V101.758" stroke="#4B4583" stroke-width="0.6843" stroke-miterlimit="10" stroke-linecap="round" stroke-linejoin="round"/>
<path d="M324.058 101.757L322.932 99.873" stroke="#4B4583" stroke-width="0.6843" stroke-miterlimit="10" stroke-linecap="round" stroke-linejoin="round"/>
<path d="M330.189 95.6013L328.188 94.4707" stroke="#4B4583" stroke-width="0.6843" stroke-miterlimit="10" stroke-linecap="round" stroke-linejoin="round"/>
<path d="M332.316 87.3105H330.189" stroke="#4B4583" stroke-width="0.6843" stroke-miterlimit="10" stroke-linecap="round" stroke-linejoin="round"/>
<path d="M330.189 78.8936L328.188 80.0242" stroke="#4B4583" stroke-width="0.6843" stroke-miterlimit="10" stroke-linecap="round" stroke-linejoin="round"/>
<path d="M324.058 72.7373L322.932 74.6217" stroke="#4B4583" stroke-width="0.6843" stroke-miterlimit="10" stroke-linecap="round" stroke-linejoin="round"/>
<path d="M315.676 72.7378V70.4766" stroke="#4B4583" stroke-width="0.6843" stroke-miterlimit="10" stroke-linecap="round" stroke-linejoin="round"/>
<path d="M308.419 74.6217L307.293 72.7373" stroke="#4B4583" stroke-width="0.6843" stroke-miterlimit="10" stroke-linecap="round" stroke-linejoin="round"/>
<path d="M303.164 80.0242L301.162 78.8936" stroke="#4B4583" stroke-width="0.6843" stroke-miterlimit="10" stroke-linecap="round" stroke-linejoin="round"/>
<path d="M301.162 87.3105H298.91" stroke="#4B4583" stroke-width="0.6843" stroke-miterlimit="10" stroke-linecap="round" stroke-linejoin="round"/>
<path d="M303.164 94.4707L301.162 95.6013" stroke="#4B4583" stroke-width="0.6843" stroke-miterlimit="10" stroke-linecap="round" stroke-linejoin="round"/>
<path d="M308.419 99.873L307.293 101.757" stroke="#4B4583" stroke-width="0.6843" stroke-miterlimit="10" stroke-linecap="round" stroke-linejoin="round"/>
<path d="M315.675 88.441C316.297 88.441 316.801 87.9348 316.801 87.3103C316.801 86.6859 316.297 86.1797 315.675 86.1797C315.053 86.1797 314.549 86.6859 314.549 87.3103C314.549 87.9348 315.053 88.441 315.675 88.441Z" fill="#4B4583"/>
<path d="M140.509 61.1798C130.249 50.8785 113.483 51.0041 103.349 61.5567C94.0899 71.2299 93.5894 86.8075 102.473 96.8576C111.106 106.656 124.994 108.415 135.504 102.134C136.38 101.631 137.506 101.506 138.632 101.757L145.264 103.767C145.764 103.893 146.265 103.39 146.139 102.888L144.138 96.2295C143.887 95.2244 144.012 94.0938 144.513 93.0888C150.519 83.0387 149.142 69.848 140.509 61.1798Z" fill="#F7327A"/>
<path d="M107.354 68.2148H136.882" stroke="white" stroke-width="1.6653" stroke-miterlimit="10" stroke-linecap="round" stroke-linejoin="round"/>
<path d="M129.75 75.8779H136.882" stroke="white" stroke-width="1.6653" stroke-miterlimit="10" stroke-linecap="round" stroke-linejoin="round"/>
<path d="M107.354 75.8779H122.743" stroke="white" stroke-width="1.6653" stroke-miterlimit="10" stroke-linecap="round" stroke-linejoin="round"/>
<path d="M120.867 83.415H136.882" stroke="white" stroke-width="1.6653" stroke-miterlimit="10" stroke-linecap="round" stroke-linejoin="round"/>
<path d="M107.354 83.415H115.111" stroke="white" stroke-width="1.6653" stroke-miterlimit="10" stroke-linecap="round" stroke-linejoin="round"/>
<path d="M129.75 91.0791H136.882" stroke="white" stroke-width="1.6653" stroke-miterlimit="10" stroke-linecap="round" stroke-linejoin="round"/>
<path d="M107.354 91.0791H122.493" stroke="white" stroke-width="1.6653" stroke-miterlimit="10" stroke-linecap="round" stroke-linejoin="round"/>
<path d="M195.062 73.6171C195.062 73.6171 192.434 61.9339 203.57 51.8838C214.705 41.8337 232.097 42.7131 241.481 47.9894C253.743 54.7732 265.879 72.7377 254.744 98.3655C243.733 123.993 294.281 113.441 277.265 148.113C260.374 182.786 230.971 158.792 220.461 173.239C209.951 187.686 173.416 149.872 204.571 123.616C235.976 97.1092 197.314 97.2348 195.062 73.6171Z" fill="#221B4C"/>
<path d="M192.183 149.998C179.421 155.525 168.786 187.937 167.785 257.408H195.311C195.311 257.408 212.077 141.455 192.183 149.998Z" fill="#DD3178"/>
<path d="M226.342 139.697C241.481 138.189 266.13 140.702 274.888 150.5C276.89 152.636 276.89 156.782 275.764 162.309C272.01 182.158 255.119 221.354 264.128 265.197H185.428C185.428 265.197 192.935 231.027 188.681 220.223C183.926 207.912 179.798 196.731 184.427 186.429C195.062 162.937 185.553 153.264 192.309 149.872C201.818 145.099 213.58 140.953 226.342 139.697Z" fill="#F7327A"/>
<path d="M258.746 197.736C255.493 216.957 233.347 219.218 222.211 215.575C222.211 215.575 238.351 225.374 249.987 219.846C249.987 219.846 252.99 229.268 248.486 258.665H263C263 258.665 263 258.665 263 258.539C260.748 243.087 261.373 228.389 263.375 215.072C263.75 211.68 264.251 208.665 264.877 206.153C264.877 206.153 264.877 206.153 264.877 206.027C266.753 196.605 269.005 188.063 271.007 180.525C271.883 175.5 272.259 170.978 272.259 165.45C272.509 165.324 262.124 178.641 258.746 197.736Z" fill="#E02D76"/>
<path d="M259.622 238.941C259.622 238.941 245.859 255.901 239.228 251.253C230.47 245.223 223.213 245.223 217.332 248.74C211.326 252.383 208.949 258.665 208.949 258.665H256.119L269.882 246.73L259.622 238.941Z" fill="#F4AE98"/>
<path d="M275.388 151.254C275.388 151.254 287.525 183.037 297.909 209.042C306.292 230.021 255.744 258.664 255.744 258.664L247.361 247.357L276.514 214.946L258.747 177.258C258.747 177.258 248.362 156.656 264.127 149.369C272.761 145.224 275.388 151.254 275.388 151.254Z" fill="#F7327A"/>
<path d="M236.726 108.667C236.726 108.667 234.849 132.787 240.605 139.068C247.987 147.109 234.974 164.571 215.456 177.887C215.456 177.887 204.57 165.701 213.078 145.852C221.586 126.003 213.329 114.823 213.329 114.823L236.726 108.667Z" fill="#F4AE98"/>
<path d="M240.48 98.2398C240.48 114.697 228.844 128.139 219.085 128.139C209.325 128.139 197.064 117.209 195.437 96.8579C194.061 80.4009 202.944 68.3408 216.332 68.3408C229.72 68.3408 240.48 81.7828 240.48 98.2398Z" fill="#FFB99F"/>
<path d="M199.691 64.5719C198.315 65.3257 195.312 67.3357 191.809 69.597C188.055 72.1095 184.051 76.5064 182.55 81.2802C180.172 89.4459 186.178 99.8728 198.19 96.2297C210.201 92.5865 215.956 73.2401 225.591 84.4208C237.727 98.2397 242.106 90.5765 242.106 90.5765C242.106 90.5765 239.729 73.2401 227.467 65.5769C221.086 61.3056 211.202 57.9137 199.691 64.5719Z" fill="#221B4C"/>
<path d="M248.613 92.3359C248.613 97.7379 245.485 102.135 241.481 102.135C237.603 102.135 234.35 97.7379 234.35 92.3359C234.35 86.934 237.478 82.5371 241.481 82.5371C245.485 82.5371 248.613 86.934 248.613 92.3359Z" fill="#F7327A"/>
<path d="M219.21 59.7985C208.324 57.6629 197.814 61.8086 191.934 69.5974C198.44 65.0748 207.073 63.1904 215.831 64.8236C230.345 67.5873 240.605 79.3962 240.855 92.5869C241.105 91.7075 241.356 90.8282 241.481 89.9488C244.108 76.1299 234.224 62.6879 219.21 59.7985Z" fill="#F7327A"/>
<path d="M239.98 95.4766C239.98 95.4766 241.982 117.587 221.713 119.597" stroke="#F7327A" stroke-width="1.0522" stroke-miterlimit="10"/>
<path d="M220.462 121.858H217.334C216.333 121.858 215.457 120.978 215.457 119.973C215.457 118.968 216.333 118.089 217.334 118.089H220.462C221.463 118.089 222.339 118.968 222.339 119.973C222.339 120.978 221.463 121.858 220.462 121.858Z" fill="#F7327A"/>
<path d="M267.629 265.197H153.02C151.394 265.197 150.143 263.94 150.143 262.307V261.553C150.143 259.92 151.394 258.664 153.02 258.664H267.629C269.256 258.664 270.507 259.92 270.507 261.553V262.307C270.507 263.815 269.256 265.197 267.629 265.197Z" fill="#39306C"/>
<path d="M214.704 265.197H108.854C105.976 265.197 103.348 263.438 102.473 260.674L77.8242 192.585C76.1977 188.062 79.4508 183.414 84.2053 183.414H190.056C192.934 183.414 195.561 185.173 196.437 187.937L221.086 256.026C222.712 260.423 219.459 265.197 214.704 265.197Z" fill="#47417F"/>
<path d="M81.7031 183.791C82.0785 223.991 135.755 256.528 201.943 256.528C208.449 256.528 214.83 256.151 220.961 255.649L196.437 187.811C195.436 185.047 192.934 183.288 190.056 183.288H84.2055C83.3297 183.414 82.4538 183.539 81.7031 183.791Z" fill="#4B4583"/>
<path d="M155.898 222.986C155.898 227.383 152.27 231.026 147.89 231.026C143.511 231.026 139.883 227.383 139.883 222.986C139.883 218.589 143.511 214.946 147.89 214.946C152.27 214.946 155.898 218.464 155.898 222.986Z" fill="#5E5896"/>
<path d="M270.633 9.67319C278.14 2.13563 290.276 2.26125 297.533 9.92444C304.29 16.9595 304.54 28.2658 298.159 35.5522C291.903 42.7128 281.768 43.9691 274.136 39.3209C273.51 38.9441 272.634 38.8184 271.884 39.0697L267.129 40.4516C266.754 40.5772 266.379 40.2003 266.504 39.8234L267.88 35.0496C268.13 34.2959 268.005 33.4165 267.63 32.7884C263.376 25.5021 264.377 15.9545 270.633 9.67319Z" fill="#F7327A"/>
<path d="M273.511 26.1306C275.169 26.1306 276.514 24.7808 276.514 23.1156C276.514 21.4505 275.169 20.1006 273.511 20.1006C271.852 20.1006 270.508 21.4505 270.508 23.1156C270.508 24.7808 271.852 26.1306 273.511 26.1306Z" fill="white"/>
<path d="M284.02 26.1306C285.679 26.1306 287.023 24.7808 287.023 23.1156C287.023 21.4505 285.679 20.1006 284.02 20.1006C282.362 20.1006 281.018 21.4505 281.018 23.1156C281.018 24.7808 282.362 26.1306 284.02 26.1306Z" fill="white"/>
<path d="M294.405 26.1306C296.064 26.1306 297.408 24.7808 297.408 23.1156C297.408 21.4505 296.064 20.1006 294.405 20.1006C292.747 20.1006 291.402 21.4505 291.402 23.1156C291.402 24.7808 292.747 26.1306 294.405 26.1306Z" fill="white"/>
</svg>
