<svg width="38" height="38" viewBox="0 0 38 38" fill="none" xmlns="http://www.w3.org/2000/svg">
<path d="M28.6926 21.1277C28.395 20.7305 28.4594 20.4701 28.6873 20.072C28.9716 19.5758 29.5377 18.8182 30.137 18.0163C32.059 15.444 33.2994 13.6631 33.0426 12.3928C32.9625 11.9976 32.6134 11.714 32.2088 11.714C32.2065 11.714 28.0239 11.715 26.4802 11.7226C26.1055 11.7243 25.776 11.962 25.6694 12.3191C25.4837 12.9417 24.7585 14.6253 23.8796 16.1667C22.7398 18.1652 21.9931 18.7914 21.73 18.9014L21.6885 18.8885C21.6024 18.7829 21.4529 18.4976 21.3915 17.7592C21.3274 16.9867 21.3842 16.0524 21.4393 15.1489C21.5038 14.0925 21.5596 13.1801 21.4264 12.5294C21.3347 12.2914 21.4044 11.5094 20.6716 11.3453C19.6624 11.1192 18.2928 11.0436 17.3162 11.0333C15.0032 11.0106 14.3225 11.3423 13.989 11.6351C13.7615 11.8349 13.6582 12.1402 13.7186 12.436C13.7788 12.7318 13.993 12.9734 14.281 13.0695C14.7996 13.2428 14.9846 13.4627 15.1328 14.5009C15.2268 15.1634 15.2759 16.2759 15.1739 17.2686C15.0304 18.669 14.6886 18.9492 14.6551 18.972C14.5823 18.9482 14.0143 18.7033 12.9885 16.6348C12.1059 14.8554 11.3651 12.7176 11.019 11.8309C10.8921 11.5057 10.5771 11.2915 10.226 11.2915H5.14158C4.86121 11.2915 4.59879 11.4288 4.44 11.6586C4.28155 11.8883 4.247 12.1812 4.34832 12.4413C5.94115 16.54 7.76884 20.7381 10.3323 23.6759C12.9848 26.7159 16.2589 28.1935 20.3414 28.1935C20.8111 28.1935 21.1918 27.8152 21.1918 27.3484C21.1918 25.8906 21.3981 25.4578 21.72 24.8504C21.8984 24.515 22.0728 24.3711 22.1678 24.35C22.2538 24.3302 22.4056 24.3932 22.5744 24.5183C23.0581 24.8762 23.4421 25.3472 23.8483 25.8457C24.434 26.5641 25.0395 27.3072 26.0012 27.7944C26.5254 28.0588 27.4629 28.1929 28.001 28.1849H32.247C32.7303 28.1849 33.1167 27.7934 33.0967 27.3134C32.9928 24.8154 29.4699 22.0986 28.6926 21.1277V21.1277ZM27.995 26.5033C27.9904 26.5033 27.986 26.5033 27.9814 26.5033C27.6266 26.5119 26.9822 26.394 26.7722 26.2877C26.1338 25.9642 25.687 25.4162 25.1698 24.7821C24.7153 24.2242 24.2453 23.6475 23.5906 23.1629C22.3844 22.2692 21.0188 22.5511 20.2159 24.0618C19.7661 24.9095 19.5917 25.4681 19.5193 26.4809C16.306 26.3013 13.7784 25.0455 11.6172 22.5683C9.45668 20.0921 7.81734 16.5575 6.38761 12.9817H9.63772C10.9087 16.3836 12.5573 20.6639 14.6524 20.6639C15.1673 20.6639 15.629 20.447 15.9881 20.0363C17.367 18.4593 16.8226 14.3065 16.8166 14.2642C16.7439 13.7528 16.6395 13.2154 16.3868 12.7364C17.4667 12.6942 18.9147 12.7638 19.7641 12.8893C19.8461 13.3293 19.793 14.2021 19.7415 15.0466C19.6163 17.1026 19.4867 19.2249 20.5966 20.1931C20.6298 20.2222 21.246 20.5939 21.6263 20.6074C22.3179 20.6348 23.4487 20.2997 25.2777 17.1418C26.0235 15.854 26.7164 14.3712 27.0895 13.4023C28.3182 13.4 30.04 13.396 31.1704 13.397C30.6718 14.491 29.5692 15.9412 28.7713 17.0088C28.1133 17.8896 27.5449 18.6501 27.2094 19.2358C26.5852 20.3252 26.6902 21.2954 27.3399 22.1517C27.3433 22.1567 27.3469 22.1613 27.3506 22.1659C28.1575 23.1846 30.2519 24.7643 31.1245 26.5033H27.995Z" fill="url(#paint0_linear)"/>
<path d="M34.2891 0H3.71094C1.6647 0 0 1.6647 0 3.71094V34.2891C0 36.3353 1.6647 38 3.71094 38H34.2891C36.3353 38 38 36.3353 38 34.2891V3.71094C38 1.6647 36.3353 0 34.2891 0ZM36.5156 34.2891C36.5156 35.5169 35.5169 36.5156 34.2891 36.5156H3.71094C2.48314 36.5156 1.48438 35.5169 1.48438 34.2891V3.71094C1.48438 2.48314 2.48314 1.48438 3.71094 1.48438H34.2891C35.5169 1.48438 36.5156 2.48314 36.5156 3.71094V34.2891Z" fill="url(#paint1_linear)"/>
<defs>
<linearGradient id="paint0_linear" x1="18.6942" y1="11.0322" x2="18.6942" y2="28.1935" gradientUnits="userSpaceOnUse">
<stop stop-color="#A6A7CF"/>
<stop offset="1" stop-color="#82B1FF"/>
</linearGradient>
<linearGradient id="paint1_linear" x1="19" y1="0" x2="19" y2="38" gradientUnits="userSpaceOnUse">
<stop stop-color="#A6A7CF"/>
<stop offset="1" stop-color="#82B1FF"/>
</linearGradient>
</defs>
</svg>
