<svg width="30" height="30" viewBox="0 0 30 30" fill="none" xmlns="http://www.w3.org/2000/svg">
<path d="M19.8857 15.1537L29.9995 21.5475V8.48999L19.8857 15.1537Z" fill="#6F6456"/>
<path d="M0 8.48999V21.5475L10.1138 15.1537L0 8.48999Z" fill="#6F6456"/>
<path d="M28.1254 4.6875H1.87539C0.939766 4.6875 0.197266 5.385 0.0566406 6.28313L15.0004 16.1287L29.9441 6.28313C29.8035 5.385 29.061 4.6875 28.1254 4.6875Z" fill="#6F6456"/>
<path d="M18.1693 16.2862L15.5162 18.0337C15.3587 18.1368 15.1805 18.1874 15.0005 18.1874C14.8205 18.1874 14.6424 18.1368 14.4849 18.0337L11.8318 16.2843L0.0605469 23.7299C0.204922 24.6206 0.943672 25.3124 1.87555 25.3124H28.1255C29.0574 25.3124 29.7962 24.6206 29.9405 23.7299L18.1693 16.2862Z" fill="#6F6456"/>
</svg>
