<svg width="397" height="377" viewBox="0 0 397 377" fill="none" xmlns="http://www.w3.org/2000/svg">
<path d="M183.5 12C147.117 12 111.574 22.9345 81.482 43.3849C51.3903 63.8352 28.1392 92.8573 14.7457 126.685C1.35223 160.513 -1.56546 197.586 6.37126 233.093C14.308 268.6 32.7327 300.902 59.2548 325.808L183.5 193.5V12Z" fill="#8CB0E1" stroke="white" stroke-width="3"/>
<path d="M59.5506 325.808C91.7688 356.063 133.92 373.522 178.095 374.91C222.27 376.299 265.434 361.52 299.488 333.348L183.796 193.5L59.5506 325.808Z" fill="#D9AC6D" stroke="white" stroke-width="3"/>
<path d="M329.193 323.348C357.975 299.537 378.71 267.424 388.567 231.393C398.424 195.361 396.924 157.166 384.27 122.019C371.616 86.872 348.426 56.4854 317.864 35.0058C287.301 13.5262 250.856 2 213.5 2V183.5L329.193 323.348Z" fill="#D07565" stroke="white" stroke-width="3"/>
</svg>
