<svg width="100" height="100" viewBox="0 0 100 100" fill="none" xmlns="http://www.w3.org/2000/svg">
<g clip-path="url(#clip0)">
<path d="M85.3712 14.6302C65.8621 -4.87479 34.1347 -4.87479 14.6256 14.6302C-4.87519 34.1353 -4.87519 65.8709 14.6256 85.3759C24.3801 95.1264 37.1902 99.9994 50.0005 99.9994C62.8108 99.9994 75.6166 95.1262 85.3712 85.3759C104.876 65.8711 104.876 34.1353 85.3712 14.6302ZM70.6309 64.7412C72.2608 66.3711 72.2608 69.0057 70.6309 70.6356C69.818 71.4485 68.7509 71.8571 67.6836 71.8571C66.6165 71.8571 65.5492 71.4485 64.7364 70.6356L50.0003 55.8953L35.2684 70.6313C34.4515 71.4442 33.3842 71.8528 32.3212 71.8528C31.2541 71.8528 30.1868 71.4442 29.3739 70.6313C27.744 69.0014 27.744 66.3627 29.3739 64.7369L44.1058 50.0009L29.3698 35.2649C27.7399 33.635 27.7399 30.9963 29.3698 29.3706C30.9955 27.7407 33.6343 27.7407 35.2641 29.3706L50.0001 44.1066L64.7362 29.3706C66.366 27.7407 69.0007 27.7407 70.6305 29.3706C72.2604 30.9963 72.2604 33.635 70.6305 35.2649L55.8945 50.0009L70.6309 64.7412Z" fill="#D07565"/>
</g>
<defs>
<clipPath id="clip0">
<rect width="100" height="100" fill="white"/>
</clipPath>
</defs>
</svg>
