<svg width="140" height="25" viewBox="0 0 140 25" fill="none" xmlns="http://www.w3.org/2000/svg">
<path d="M20.1716 10.5272V22.7283C19.2551 23.2782 17.9834 23.7021 16.3566 24C14.7527 24.2979 13.355 24.4468 12.1635 24.4468C8.35994 24.4468 5.43854 23.3928 3.39929 21.2848C1.38295 19.1768 0.374777 16.2211 0.374777 12.4175C0.374777 8.59104 1.50897 5.6009 3.77735 3.44708C6.04573 1.27035 8.90985 0.181987 12.3697 0.181987C13.5383 0.181987 14.8558 0.353834 16.3222 0.697528C17.8115 1.01831 19.0145 1.48802 19.931 2.10667L18.075 6.33411C16.8377 5.89877 15.7837 5.62381 14.913 5.50925C14.0424 5.37177 13.2175 5.30303 12.4384 5.30303C11.0408 5.30303 9.75763 5.88731 8.58907 7.05587C7.42051 8.22443 6.83623 10.0002 6.83623 12.3831C6.83623 14.9036 7.38614 16.6908 8.48596 17.7448C9.58578 18.7988 10.8689 19.3258 12.3353 19.3258C12.6561 19.3258 12.9998 19.3143 13.3664 19.2914C13.7559 19.2456 14.1455 19.1883 14.535 19.1195V15.0983H10.5138L9.96385 10.5272H20.1716ZM31.0899 10.4006H28.6081V14.959H31.1406C31.8497 14.959 32.4321 14.748 32.888 14.3259C33.3438 13.8869 33.5717 13.3298 33.5717 12.6545C33.5717 11.8947 33.3523 11.3291 32.9133 10.9577C32.4743 10.5863 31.8665 10.4006 31.0899 10.4006ZM23.999 24V6.77911H31.2419C33.1497 6.77911 34.8042 7.2434 36.2055 8.17197C37.6237 9.08367 38.3328 10.5778 38.3328 12.6545C38.3328 13.7012 38.1133 14.6045 37.6744 15.3642C37.2523 16.124 36.6951 16.7402 36.0029 17.2129L39.8017 24H34.4581L31.6724 18.5805H28.6081V24H23.999ZM52.416 17.1876V6.77911H57.0251V17.4155C57.0251 19.661 56.3076 21.3831 54.8725 22.5818C53.4543 23.7636 51.5972 24.3545 49.301 24.3545C47.0049 24.3545 45.1393 23.7636 43.7042 22.5818C42.2861 21.3831 41.577 19.661 41.577 17.4155V6.77911H46.1861V17.1876C46.1861 18.2681 46.4731 19.0954 47.0471 19.6695C47.638 20.2266 48.3893 20.5052 49.301 20.5052C50.2127 20.5052 50.9556 20.2266 51.5296 19.6695C52.1205 19.0954 52.416 18.2681 52.416 17.1876ZM60.3292 24V6.77911H64.6091L71.2442 16.124V6.77911H75.8533V24H71.5481L64.9383 14.9337V24H60.3292ZM79.397 24V6.77911H86.9438C89.5945 6.77911 91.6121 7.5895 92.9965 9.21029C94.3809 10.8142 95.0731 12.8402 95.0731 15.2883C95.0731 17.9727 94.3049 20.1 92.7686 21.6701C91.2322 23.2234 89.2568 24 86.8425 24H79.397ZM86.7159 10.4006H84.0062V20.3785H86.5386C87.6023 20.3785 88.4971 19.9565 89.2231 19.1123C89.9491 18.2681 90.312 16.9935 90.312 15.2883C90.312 13.8701 89.9997 12.7051 89.375 11.7934C88.7672 10.8648 87.8809 10.4006 86.7159 10.4006ZM97.5993 24V6.77911H102.208V24H97.5993ZM112.852 10.4006H110.37V14.959H112.902C113.611 14.959 114.194 14.748 114.65 14.3259C115.105 13.8869 115.333 13.3298 115.333 12.6545C115.333 11.8947 115.114 11.3291 114.675 10.9577C114.236 10.5863 113.628 10.4006 112.852 10.4006ZM105.761 24V6.77911H113.003C114.911 6.77911 116.566 7.2434 117.967 8.17197C119.385 9.08367 120.094 10.5778 120.094 12.6545C120.094 13.7012 119.875 14.6045 119.436 15.3642C119.014 16.124 118.457 16.7402 117.765 17.2129L121.563 24H116.22L113.434 18.5805H110.37V24H105.761ZM139.141 11.9707C139.141 14.3512 138.365 16.3688 136.811 18.0233C135.258 19.6779 133.148 20.5052 130.48 20.5052C127.83 20.5052 125.728 19.6779 124.174 18.0233C122.621 16.3688 121.844 14.3512 121.844 11.9707C121.844 9.5564 122.621 7.52197 124.174 5.86741C125.728 4.19597 127.83 3.36025 130.48 3.36025C133.148 3.36025 135.258 4.19597 136.811 5.86741C138.365 7.52197 139.141 9.5564 139.141 11.9707ZM124.655 11.9454C124.655 13.6337 125.17 15.0434 126.2 16.1746C127.23 17.2889 128.657 17.8545 130.48 17.8714C132.287 17.8545 133.713 17.2889 134.76 16.1746C135.807 15.0434 136.33 13.6337 136.33 11.9454C136.33 10.2402 135.807 8.83042 134.76 7.71613C133.713 6.58495 132.287 6.01936 130.48 6.01936C128.657 6.01936 127.23 6.58495 126.2 7.71613C125.17 8.83042 124.655 10.2402 124.655 11.9454ZM130.202 9.46354H129.417V11.5402H130.202C130.573 11.5402 130.877 11.4558 131.113 11.2869C131.367 11.1012 131.493 10.8311 131.493 10.4765C131.493 10.0713 131.375 9.80121 131.139 9.66614C130.919 9.53107 130.607 9.46354 130.202 9.46354ZM126.757 16.4025V7.3869H130.531C131.51 7.3869 132.405 7.63171 133.215 8.12132C134.026 8.61094 134.431 9.39601 134.431 10.4765C134.431 11.0506 134.287 11.5486 134 11.9707C133.73 12.3759 133.384 12.7051 132.962 12.9584L134.431 16.4025H131.417L130.328 13.5662H129.417V16.4025H126.757Z" fill="white"/>
</svg>
