<svg width="17" height="17" viewBox="0 0 17 17" fill="none" xmlns="http://www.w3.org/2000/svg">
<g clip-path="url(#clip0)">
<path d="M16.787 8.30092C17.0952 7.962 17.0655 7.44253 16.7206 7.14096L9.12308 0.49309C8.77822 0.191519 8.22534 0.197836 7.88775 0.507332L0.264399 7.4954C-0.073193 7.8049 -0.0897623 8.3237 0.227714 8.6537L0.418842 8.85275C0.73593 9.18275 1.24847 9.22209 1.5629 8.94036L2.13262 8.43015V15.8997C2.13262 16.358 2.50396 16.729 2.96192 16.729H5.93352C6.39148 16.729 6.76282 16.358 6.76282 15.8997V10.674H10.5531V15.8997C10.5465 16.3577 10.8742 16.7287 11.3322 16.7287H14.4813C14.9393 16.7287 15.3106 16.3577 15.3106 15.8994V8.53533C15.3106 8.53533 15.468 8.6732 15.6621 8.84383C15.8559 9.01412 16.2629 8.87758 16.5711 8.53832L16.787 8.30092Z" fill="#6F6456"/>
</g>
<defs>
<clipPath id="clip0">
<rect width="17" height="17" fill="white"/>
</clipPath>
</defs>
</svg>
