<svg width="56" height="55" viewBox="0 0 56 55" fill="none" xmlns="http://www.w3.org/2000/svg">
<g clip-path="url(#clip0_135_1714)">
<path d="M40.0959 1.5H8.08049C3.89457 1.50252 0.502581 4.89457 0.5 9.08048V29.8188C0.50252 34.0047 3.89457 37.3967 8.08049 37.3992H10.3511V42.9384C10.3586 44.5437 11.6565 45.8441 13.2618 45.8542C13.922 45.8416 14.5596 45.6047 15.0687 45.1813L24.8672 37.3995H40.0959C44.2818 37.397 47.6738 34.0049 47.6764 29.819V9.08074C47.6739 4.89483 44.2818 1.50258 40.0959 1.5ZM24.0885 30.7407C23.4988 30.7407 22.9671 30.3828 22.7403 29.8385C22.516 29.2916 22.642 28.6641 23.0604 28.2483C23.4787 27.8325 24.1062 27.709 24.6505 27.9358C25.1949 28.1652 25.5502 28.6969 25.5477 29.2892C25.5426 30.0906 24.8925 30.7407 24.0885 30.7407ZM27.7503 19.9215V19.919C26.3289 20.9246 25.4695 22.5475 25.4317 24.2889V24.5711C25.4317 25.312 24.8319 25.9143 24.0885 25.9143C23.3451 25.9143 22.7453 25.312 22.7453 24.5711V24.2889C22.7781 21.6982 24.0407 19.2789 26.1449 17.7697C27.1202 17.0338 27.6318 15.8367 27.4881 14.6246C27.2891 13.052 26.0517 11.8121 24.4791 11.613C23.5064 11.5021 22.5336 11.8121 21.8028 12.4623C21.0745 13.1125 20.6562 14.0424 20.6536 15.0202C20.6536 15.7636 20.0539 16.3659 19.3104 16.3659C18.567 16.3659 17.9672 15.7636 17.9672 15.0202C17.9672 12.9007 19.066 10.9326 20.8704 9.81866C22.6748 8.70475 24.9253 8.60649 26.8204 9.55404C28.7181 10.5042 29.9856 12.369 30.1721 14.4808C30.3612 16.5927 29.4413 18.6491 27.7453 19.9192L27.7503 19.9215ZM55.4994 16.9024V37.6685C55.4817 41.8418 52.0947 45.2186 47.9189 45.2212H45.6483V50.7604C45.6483 51.8718 45.0107 52.8874 44.0102 53.3737C43.0072 53.8601 41.8152 53.7291 40.9432 53.0386L31.1325 45.2213H19.3714L25.8103 40.0879H40.0971C42.8189 40.0854 45.4296 39.0042 47.355 37.0788C49.2804 35.1535 50.364 32.5427 50.3666 29.8183V9.73813C53.431 10.7865 55.4925 13.6644 55.5 16.9025L55.4994 16.9024Z" fill="#FF000A"/>
</g>
<defs>
<clipPath id="clip0_135_1714">
<rect width="55" height="55" fill="white" transform="translate(0.5)"/>
</clipPath>
</defs>
</svg>
