<svg width="56" height="55" viewBox="0 0 56 55" fill="none" xmlns="http://www.w3.org/2000/svg">
<path fill-rule="evenodd" clip-rule="evenodd" d="M49.1863 39.6342C46.7803 36.4944 43.8697 34.4555 39.6994 33.2986L35.7919 46.9792C35.7919 48.2394 34.7602 49.271 33.5001 49.271C32.2405 49.271 31.2087 48.2394 31.2087 46.9792V36.0939C31.2087 34.5129 29.9251 33.2291 28.3439 33.2291C26.7629 33.2291 25.4794 34.5129 25.4794 36.0939V46.9792C25.4794 48.2394 24.4477 49.271 23.1879 49.271C21.9277 49.271 20.896 48.2394 20.896 46.9792L16.9885 33.2986C12.818 34.4667 9.90762 36.4944 7.5018 39.6342C6.55063 40.8717 6.0338 43.3581 6 44.6878C6.01135 45.0314 6 45.4326 6 45.8332V48.125V50.4169C6 52.9491 8.05117 55 10.5835 55H46.1042C48.6363 55 50.6879 52.9491 50.6879 50.4169V48.125V45.8332C50.6879 45.4326 50.6767 45.0314 50.6879 44.6878C50.6532 43.3581 50.137 40.8716 49.1863 39.6342ZM16.3126 12.1229C16.3126 18.8146 20.4843 28.6459 28.3439 28.6459C36.067 28.6459 40.375 18.8146 40.375 12.1229C40.375 5.43149 34.9896 0 28.3439 0C21.6983 0 16.3126 5.43149 16.3126 12.1229Z" fill="#E4383F"/>
</svg>
