<svg width="372" height="201" viewBox="0 0 372 201" fill="none" xmlns="http://www.w3.org/2000/svg">
<path d="M23.6631 -126.815C25.1668 -127.134 26.7555 -127.382 28.4839 -127.576C32.2015 -127.988 36.2899 -128.035 41.0763 -127.809C49.7392 -127.386 59.138 -126.002 68.8041 -124.457C76.0187 -123.312 85.3084 -121.898 94.0572 -120.987C103.498 -119.986 110.735 -119.778 116.199 -120.249C117.6 -120.353 118.928 -120.576 120.214 -120.835C120.323 -120.865 120.486 -120.91 120.638 -120.905C124.137 -121.675 126.439 -122.771 128.633 -123.836C130.706 -124.822 132.669 -125.778 135.634 -126.449C137.629 -126.902 140 -127.225 142.736 -127.368C145.362 -127.481 148.322 -127.5 151.537 -127.309C157.731 -127.002 164.854 -126.112 172.021 -124.768C179.77 -123.304 187.768 -121.396 195.53 -119.564L196.878 -119.234C202.71 -117.851 209.027 -116.368 215.326 -115.02C228.798 -112.143 243.191 -109.704 259.294 -107.593C268.535 -106.398 275.998 -105.647 282.786 -105.27C291.188 -104.823 298.315 -105.004 304.513 -105.768C307.297 -106.111 309.953 -106.558 312.524 -107.075C319.66 -108.562 325.965 -110.612 332.554 -112.787C334.718 -113.519 337.034 -114.245 339.35 -114.972C343.435 -116.275 347.401 -117.081 351.379 -117.518C353.575 -117.746 355.801 -117.889 357.99 -117.883C360.332 -117.872 362.692 -117.727 365.016 -117.432C371.144 -116.641 377.262 -114.964 383.163 -112.39C388.42 -110.105 393.564 -107.137 398.357 -103.562C403.502 -99.7568 408.109 -95.6182 412.545 -91.6193C416.81 -87.7601 421.204 -83.796 425.912 -80.2904C430.875 -76.5753 436.529 -73.1888 443.676 -69.6521C451.047 -65.9907 459.625 -62.4733 469.173 -59.1747C478.066 -56.1156 487.777 -53.2804 498.112 -50.709C500.127 -50.1898 502.209 -49.7353 504.236 -49.2659C506.651 -48.7166 509.024 -48.2022 511.354 -47.7227C518.084 -46.2593 524.383 -44.9108 530.58 -42.9295C536.346 -41.0629 541.914 -38.5835 547.252 -35.5759C552.225 -32.7479 556.981 -29.4415 561.338 -25.7467C565.482 -22.2263 569.196 -18.4022 572.461 -14.4088C575.599 -10.5202 578.148 -6.51715 580.091 -2.53436C582.686 2.75941 584.486 8.17739 586.28 13.411C587.585 17.2888 588.91 21.3012 590.561 25.2241C592.109 28.9426 594.015 32.6562 596.109 36.2254C598.288 39.8645 600.728 43.4787 603.452 46.9685C606.219 50.4932 609.344 54.013 612.699 57.4234C616.097 60.8686 619.907 64.2941 623.905 67.5752C631.444 73.7035 640.009 79.5981 647.437 84.5004C648.579 85.2585 649.721 86.0165 650.82 86.7396C665.088 96.24 679.836 106.075 688.063 116.529C693.263 123.065 696.206 130.078 697.723 139.204C697.975 140.903 698.184 142.568 698.357 143.963C699.69 155.327 699.655 165.388 699.628 176.053C699.635 182.985 699.54 190.132 699.956 197.697C700.144 201.136 699.878 204.559 699.152 208.202C698.479 211.411 697.533 214.695 696.114 218.248C693.549 224.86 689.838 231.366 686.326 237.679C683.449 242.841 680.481 248.167 678.065 253.528C675.341 259.532 673.672 264.968 672.942 270.101C672.32 274.367 672.304 278.652 672.324 282.789C672.305 288.565 672.359 294.042 670.683 299.294C669.646 302.742 667.852 306.165 665.377 309.448C663.102 312.537 660.124 315.585 656.648 318.584C650.429 323.868 642.383 328.908 632.057 334.106C630.718 334.798 629.203 335.585 627.579 336.401C621.914 339.394 614.854 343.093 607.101 345.865C603.58 347.155 600.185 348.13 596.971 348.776C596.383 348.891 595.795 349.005 595.261 349.104C591.004 349.85 586.989 350.017 583.324 349.577C580.546 349.267 578.003 348.613 575.502 347.994C573.767 347.584 571.988 347.14 570.186 346.795C567.261 346.246 564.21 346.01 561.14 346.058C556.749 346.096 552.31 346.752 548.315 347.891C544.429 349.001 541.053 350.529 538.527 352.337C534.469 355.216 530.917 360.003 527.736 364.736C524.845 369.11 520.704 373.175 515.586 376.856C510.468 380.536 504.329 383.797 497.292 386.56C489.182 389.756 479.456 391.625 469.088 393.624C460.059 395.349 450.703 397.163 442.18 399.96C440.246 400.582 438.355 401.239 436.573 401.866C432.681 403.21 428.68 404.584 424.479 405.733C419.732 407.031 415.19 407.901 410.648 408.353C405.529 408.869 399.761 408.911 393.548 408.469C387.791 408.043 381.578 407.183 374.897 405.939C368.111 404.072 360.676 401.731 351.255 398.537C348.803 397.719 346.308 396.865 343.856 396.047C314.981 386.261 285.171 376.125 255.172 368.043C238.991 363.719 224.263 360.349 210.155 357.785C202.491 356.391 194.876 355.217 187.601 354.321C179.98 353.381 172.354 352.675 165.111 352.282C162.848 352.157 160.585 352.031 158.419 351.925C142.47 351.076 125.915 350.206 109.548 346.864C99.2988 344.781 89.3206 341.787 79.8623 337.905C71.102 334.298 62.7285 329.933 54.9359 324.851C52.6401 323.385 50.5505 321.909 48.558 320.453C43.923 317.067 39.5055 313.202 34.9651 308.58C30.911 304.477 27.2084 300.185 23.6333 295.997C21.3655 293.359 19.0126 290.652 16.5932 288.01C14.7025 285.921 10.7207 281.518 4.93654 276.771C-1.60111 271.346 -8.96847 266.613 -16.9528 262.747C-22.8788 259.854 -29.5928 257.269 -36.773 255.138C-43.8986 252.992 -51.63 251.244 -59.7185 249.919C-63.79 249.265 -68.0492 248.754 -72.7996 248.378C-76.5975 248.068 -80.7227 247.846 -85.7274 247.68C-86.334 247.659 -86.8861 247.624 -87.4502 247.639C-97.5021 247.27 -107.869 246.942 -117.421 244.715C-121.906 243.661 -125.142 242.498 -127.729 240.972C-132.271 238.259 -134.699 234.595 -135.024 230.03C-135.175 227.279 -134.683 224.398 -133.386 220.925C-130.93 214.343 -127.521 208.245 -123.271 200.986C-122.062 198.933 -120.816 196.731 -120.178 194.509C-119.425 192.022 -119.459 189.844 -120.246 187.826C-120.819 186.4 -121.75 184.979 -123.026 183.514C-125.063 181.185 -127.93 179.131 -132.065 177.051C-135.696 175.205 -139.939 173.573 -144.407 171.817C-148.414 170.26 -152.506 168.634 -156.634 166.738C-161.309 164.573 -165.214 162.383 -168.561 159.995C-171.045 158.254 -173.19 156.374 -175.178 154.266C-176.88 152.451 -178.437 150.457 -179.976 148.178C-181.923 145.267 -183.628 142.196 -185.259 139.245C-188.936 132.526 -192.814 125.582 -200.057 119.279C-204.146 115.744 -208.939 112.587 -213.549 109.52C-219.708 105.48 -225.514 101.67 -229.108 97.3478C-230.688 95.4533 -231.76 93.559 -232.279 91.6999C-233.11 88.809 -232.879 85.9535 -231.471 83.288C-230.262 80.8167 -228.059 78.4455 -225.013 76.1695C-219.792 72.2747 -211.846 68.7052 -201.352 65.5555C-199.485 64.9982 -197.618 64.4409 -195.751 63.8836C-187.3 61.3858 -178.564 58.7636 -171.316 55.3382C-166.425 53.0231 -162.342 50.4635 -159.272 47.6691C-155.96 44.7154 -153.637 41.4273 -152.34 37.9544C-151.598 35.9364 -151.22 33.7388 -151.243 31.5111C-151.223 29.3183 -151.634 27.0107 -152.391 24.6581C-153.117 22.3903 -154.177 20.0276 -155.553 17.7046C-156.928 15.3816 -158.564 13.0834 -160.516 10.8249C-161.635 9.54859 -162.838 8.20246 -164.012 6.94107C-167.319 3.33141 -170.699 -0.397866 -172.671 -4.04677C-174.571 -7.57603 -175.056 -10.8405 -175.384 -13.9156C-175.797 -17.479 -175.852 -20.6287 -175.706 -23.5539C-175.348 -29.4693 -173.757 -34.791 -170.97 -39.3696C-167.675 -44.7852 -162.679 -49.2233 -156.086 -52.4695C-152.729 -54.1325 -148.813 -55.5759 -144.23 -56.8296C-142.102 -57.4117 -139.889 -57.924 -137.633 -58.4013C-131.467 -59.6693 -124.972 -60.6081 -118.532 -61.5321C-117.846 -61.6264 -117.161 -61.7208 -116.476 -61.8151C-88.9628 -65.8041 -60.6571 -70.7546 -40.0331 -79.9795C-30.8938 -84.0618 -22.4182 -89.4053 -14.0551 -96.3933C-6.33382 -102.833 0.536841 -109.972 6.36601 -116.174C6.51124 -116.353 6.65648 -116.532 6.8988 -116.692C8.34546 -118.251 9.85873 -119.875 11.6272 -121.289C13.5954 -122.898 15.6736 -124.118 17.9949 -125.079C19.4432 -125.801 21.4195 -126.388 23.6631 -126.815ZM120.256 -120.8C118.971 -120.541 117.6 -120.353 116.242 -120.214C110.777 -119.743 103.498 -119.986 94.0997 -120.952C85.3509 -121.863 75.9641 -123.298 68.8466 -124.422C59.126 -125.952 49.7817 -127.351 41.1188 -127.774C36.3869 -128.016 32.2866 -127.918 28.5265 -127.541C24.4511 -127.124 20.8314 -126.274 17.7887 -125.069C15.4794 -124.158 13.3891 -122.888 11.4209 -121.279C9.69501 -119.83 8.13926 -118.241 6.6926 -116.682C6.54737 -116.502 6.40213 -116.323 6.15981 -116.164C0.385201 -109.977 -6.48546 -102.839 -14.2613 -96.3834C-22.667 -89.4303 -31.1 -84.0519 -40.2393 -79.9697C-51.7786 -74.8121 -65.6922 -71.0061 -80.5536 -67.9182C-92.2984 -65.4967 -104.542 -63.5439 -116.737 -61.7904C-117.422 -61.696 -118.107 -61.6016 -118.792 -61.5073C-125.178 -60.5982 -131.727 -59.6445 -137.894 -58.3765C-140.149 -57.8991 -142.362 -57.3869 -144.49 -56.8048C-149.128 -55.5361 -153.032 -54.1425 -156.347 -52.4447C-162.897 -49.1636 -167.935 -44.7604 -171.231 -39.3448C-174.073 -34.7513 -175.663 -29.4296 -175.967 -23.5292C-176.113 -20.6039 -176.058 -17.4542 -175.645 -13.8907C-175.36 -10.8506 -174.874 -7.58613 -172.932 -4.02196C-170.959 -0.373058 -167.579 3.35622 -164.272 6.96588C-163.099 8.22727 -161.895 9.5734 -160.777 10.8497C-158.825 13.1082 -157.189 15.4064 -155.813 17.7294C-154.438 20.0524 -153.378 22.4151 -152.651 24.683C-151.895 27.0356 -151.526 29.3083 -151.503 31.5359C-151.493 33.8134 -151.859 35.9612 -152.601 37.9792C-153.856 41.487 -156.221 44.7402 -159.533 47.6939C-162.657 50.5032 -166.741 53.0628 -171.577 55.363C-178.879 58.8032 -187.603 61.3757 -196.012 63.9084C-197.824 64.4508 -199.746 65.023 -201.613 65.5803C-212.01 68.75 -219.955 72.3195 -225.219 76.1793C-228.265 78.4554 -230.469 80.8266 -231.677 83.2979C-232.988 85.9834 -233.261 88.804 -232.485 91.7098C-231.954 93.519 -230.883 95.4133 -229.259 97.3427C-225.666 101.665 -219.859 105.475 -213.7 109.515C-209.036 112.567 -204.243 115.724 -200.209 119.274C-192.923 125.612 -189.142 132.536 -185.411 139.24C-183.779 142.191 -182.075 145.262 -180.128 148.173C-178.589 150.451 -177.032 152.446 -175.33 154.26C-173.342 156.369 -171.197 158.249 -168.713 159.99C-165.311 162.363 -161.461 164.568 -156.786 166.733C-152.657 168.629 -148.566 170.255 -144.559 171.812C-140.091 173.568 -135.902 175.215 -132.217 177.046C-128.082 179.126 -125.215 181.18 -123.178 183.509C-121.901 184.974 -120.97 186.395 -120.397 187.821C-119.611 189.839 -119.576 192.017 -120.329 194.504C-121.011 196.691 -122.256 198.893 -123.422 200.981C-127.672 208.24 -131.081 214.338 -133.537 220.92C-134.834 224.393 -135.326 227.274 -135.175 230.025C-134.893 234.555 -132.466 238.219 -127.923 240.932C-125.336 242.458 -122.1 243.621 -117.616 244.675C-108.106 246.867 -97.7508 247.245 -87.6989 247.614C-87.0923 247.634 -86.5403 247.669 -85.9762 247.655C-81.026 247.836 -76.9008 248.058 -73.0484 248.353C-68.3526 248.744 -64.0387 249.24 -59.9672 249.894C-51.8788 251.219 -44.1473 252.967 -36.9672 255.098C-29.7445 257.264 -23.1276 259.829 -17.1469 262.707C-9.2172 266.588 -1.79532 271.306 4.78486 276.766C10.5144 281.528 14.5084 285.881 16.4415 288.005C18.861 290.647 21.1593 293.369 23.4816 295.992C27.0687 300.13 30.8139 304.457 34.8134 308.575C39.3112 313.162 43.7714 317.062 48.4064 320.448C50.3563 321.869 52.543 323.365 54.7843 324.846C62.5343 329.893 70.9503 334.293 79.7106 337.9C89.1689 341.782 99.1472 344.776 109.397 346.859C125.818 350.186 142.318 351.071 158.267 351.92C160.476 352.061 162.793 352.172 164.959 352.277C172.245 352.704 179.829 353.376 187.449 354.316C194.724 355.212 202.339 356.386 210.003 357.78C224.166 360.329 238.894 363.699 255.117 368.058C285.074 376.105 314.939 386.226 343.801 396.062C346.254 396.88 348.748 397.734 351.201 398.552C360.621 401.746 368.057 404.087 374.842 405.954C381.468 407.213 387.779 408.093 393.494 408.484C399.706 408.926 405.42 408.898 410.539 408.383C415.136 407.916 419.623 407.061 424.37 405.763C428.571 404.613 432.626 403.225 436.463 401.896C438.3 401.254 440.191 400.597 442.071 399.99C450.594 397.193 459.938 395.428 468.979 393.653C472.029 393.052 475.066 392.5 478.019 391.878C484.992 390.437 491.492 388.845 497.129 386.605C504.111 383.857 510.304 380.581 515.368 376.915C520.486 373.235 524.627 369.17 527.518 364.796C530.754 360.048 534.305 355.26 538.363 352.382C540.889 350.574 544.32 349.031 548.151 347.936C552.201 346.782 556.628 346.176 560.977 346.103C564.046 346.055 567.14 346.325 570.022 346.84C571.879 347.17 573.657 347.614 575.393 348.024C577.894 348.643 580.394 349.262 583.215 349.607C586.88 350.047 590.895 349.88 595.097 349.149C595.631 349.05 596.219 348.935 596.807 348.821C600.021 348.175 603.416 347.199 606.938 345.91C614.648 343.103 621.707 339.404 627.416 336.446C628.997 335.595 630.512 334.808 631.894 334.151C642.22 328.953 650.265 323.913 656.484 318.628C660.003 315.665 662.939 312.581 665.213 309.493C667.645 306.175 669.44 302.752 670.519 299.338C672.152 294.052 672.142 288.61 672.161 282.834C672.14 278.697 672.156 274.411 672.778 270.146C673.508 265.013 675.22 259.612 677.902 253.573C680.317 248.211 683.285 242.885 686.162 237.724C689.674 231.411 693.343 224.869 695.951 218.292C697.369 214.74 698.315 211.456 698.988 208.247C699.703 204.654 699.926 201.196 699.792 197.742C699.419 190.212 699.417 183.045 699.464 176.098C699.491 165.433 699.569 155.406 698.193 144.008C698.021 142.613 697.769 140.913 697.559 139.249C696.097 130.108 693.099 123.11 687.9 116.574C679.629 106.084 664.924 96.2848 650.657 86.7844C649.557 86.0613 648.373 85.2683 647.274 84.5452C639.857 79.593 631.238 73.7134 623.741 67.6199C619.7 64.304 615.933 60.9134 612.493 57.4332C609.138 54.0229 606.013 50.503 603.246 46.9784C600.521 43.4886 598.027 39.8893 595.903 36.2353C593.809 32.6661 591.903 28.9524 590.355 25.2339C588.703 21.3111 587.379 17.2987 586.073 13.4209C584.28 8.18727 582.48 2.76927 579.885 -2.52451C577.942 -6.50729 575.338 -10.4954 572.255 -14.399C569.044 -18.4073 565.276 -22.2165 561.174 -25.7019C556.818 -29.3968 552.104 -32.6682 547.088 -35.5311C541.75 -38.5387 536.183 -41.0182 530.459 -42.8498C524.316 -44.8461 518.017 -46.1946 511.287 -47.6579C509.012 -48.1524 506.584 -48.6519 504.169 -49.2012C502.142 -49.6706 500.018 -50.16 498.046 -50.6443C487.753 -53.1808 477.999 -56.0509 469.107 -59.11C459.601 -62.3737 450.98 -65.926 443.609 -69.5874C436.463 -73.1241 430.809 -76.5106 425.845 -80.2256C421.137 -83.7313 416.744 -87.6953 412.478 -91.5546C408.042 -95.5535 403.393 -99.7269 398.29 -103.497C393.497 -107.072 388.354 -110.04 383.139 -112.29C377.237 -114.864 371.12 -116.542 364.992 -117.332C356.388 -118.422 348.043 -117.629 339.38 -114.887C337.064 -114.16 334.846 -113.414 332.585 -112.702C323.668 -109.751 315.156 -107.004 304.544 -105.684C298.346 -104.919 291.219 -104.738 282.817 -105.185C276.028 -105.562 268.554 -106.263 259.325 -107.509C243.222 -109.619 228.829 -112.058 215.357 -114.935C209.058 -116.283 202.74 -117.766 196.908 -119.15L195.561 -119.479C187.853 -121.327 179.897 -123.199 172.051 -124.683C164.885 -126.027 157.804 -126.882 151.622 -127.239C148.407 -127.43 145.447 -127.411 142.821 -127.298C140.443 -127.16 138.248 -126.931 136.471 -126.539C136.253 -126.479 135.937 -126.439 135.719 -126.379C132.797 -125.673 130.791 -124.752 128.718 -123.766C126.525 -122.701 124.222 -121.606 120.723 -120.835C120.474 -120.86 120.365 -120.83 120.256 -120.8Z" stroke="black" stroke-opacity="0.03"/>
<path d="M56.9195 -40.0034C57.1225 -40.059 57.4159 -40.0959 57.6189 -40.1515C69.7859 -42.4414 84.6718 -39.4989 99.1061 -36.6494C100.602 -36.3658 102.138 -36.0497 103.633 -35.7661C109.928 -34.5435 119.331 -33.0459 128.202 -32.8748C132.356 -32.7986 136.012 -33.0195 139.03 -33.5422C139.424 -33.6069 139.769 -33.6577 140.124 -33.755C142.972 -34.3612 145.262 -35.2041 146.963 -36.3627C149.516 -38.1006 150.437 -40.3447 151.336 -42.4961C151.442 -42.7418 151.56 -43.0339 151.718 -43.2935C152.358 -44.768 153.184 -46.4232 154.903 -47.8461C156.159 -48.926 157.906 -49.8806 160.122 -50.6169C162.186 -51.3116 164.691 -51.8669 167.483 -52.2412C170.174 -52.5878 173.063 -52.7719 176.149 -52.7937C179.185 -52.8015 182.278 -52.6517 185.438 -52.3905C195.309 -51.4538 205.233 -49.3623 214.746 -47.3313C217.314 -46.7782 219.934 -46.239 222.553 -45.6998C231.133 -43.9336 239.702 -42.5105 247.926 -41.4261C262.674 -39.4854 277.427 -38.5417 291.72 -38.6417C305.872 -38.7464 319.655 -39.8762 332.685 -42.0126L332.787 -42.0404C335.946 -42.5583 339.206 -43.104 342.541 -43.3668C346.219 -43.6805 349.667 -43.6278 352.935 -43.2228C356.062 -42.8226 358.981 -42.1488 361.962 -41.1457C364.633 -40.2308 367.248 -39.0842 369.937 -37.6545C375.015 -34.93 379.536 -31.663 384.333 -28.1688C389.498 -24.4285 394.861 -20.5259 400.939 -17.4252C402.164 -16.8078 403.401 -16.2368 404.559 -15.7308C407.434 -14.482 410.585 -13.3953 414 -12.4245C417.066 -11.5744 420.346 -10.8262 424.032 -10.1892C430.891 -8.94776 438.194 -8.1745 445.215 -7.41068C454.319 -6.43719 463.654 -5.4404 472.461 -3.43289C480.466 -1.63907 487.818 0.896416 494.438 4.10866C500.758 7.18628 506.487 10.9453 511.377 15.2373C515.447 18.8008 518.931 22.8278 521.851 27.2255C524.432 31.0666 526.55 35.2506 528.201 39.606C530.079 44.5922 531.511 49.657 532.796 54.5456C534.393 60.3014 536.035 66.2614 538.428 72.0594C539.755 75.2043 541.109 78.0384 542.677 80.7707C544.45 83.8369 546.419 86.6759 548.693 89.4317C552.279 93.8204 556.774 98.1772 561.11 102.404C565.141 106.325 569.37 110.407 572.764 114.416C574.608 116.596 576.034 118.545 577.228 120.47C578.558 122.618 579.448 124.626 580.056 126.625C581.118 130.275 581.052 133.888 580.879 137.357C580.743 140.079 580.675 142.912 581.132 145.732C581.697 149.085 583.132 152.764 585.522 157.003C587.651 160.752 590.322 164.611 592.886 168.327C596.971 174.181 601.153 180.226 603.372 186.159C605.572 191.966 606.074 197.545 604.901 203.193C604.375 205.762 603.517 208.335 602.253 211.02C601.095 213.458 599.684 215.967 597.934 218.697C595.538 222.341 592.577 225.966 589.779 229.504C584.634 235.892 579.383 242.526 576.716 249.448C576.037 251.28 575.499 253.116 575.215 254.883C574.333 260.104 575.1 265.567 575.85 270.905C576.462 275.242 577.092 279.703 576.847 284.058C576.662 287.573 575.8 291.143 574.362 294.742C573.065 297.955 571.283 301.214 568.931 304.673C564.542 311.07 558.934 317.022 553.562 322.779L552.931 323.428C550.707 325.769 547.295 329.301 543.391 332.708C541.774 334.103 540.416 335.211 539.042 336.194C537.43 337.371 535.914 338.349 534.341 339.169C530.745 341.106 526.967 342.226 522.842 342.618C521.195 342.766 519.321 342.672 517.233 342.291C514.552 341.812 512.152 340.953 509.661 340.075C508.001 339.49 506.341 338.905 504.568 338.394C498.087 336.573 491.484 336.431 487.123 336.629C484.488 336.743 482.09 337.053 479.8 337.506C479.405 337.571 478.999 337.682 478.644 337.779C476.078 338.395 473.89 339.21 472.12 340.257C470.311 341.272 468.514 343.02 466.713 345.375C465.182 347.396 463.754 349.779 462.534 352.278C461.557 354.364 460.37 356.335 459.166 358.18C456.792 361.731 453.83 364.967 450.444 367.799C446.822 370.825 442.555 373.379 437.927 375.468C431.021 376.188 422.643 376.532 412.971 376.537C403.632 376.537 392.87 376.147 380.906 375.437C380.252 375.399 379.507 375.343 378.852 375.306C373.333 374.997 367.633 374.651 361.718 374.018L361.147 373.827C359.256 373.219 357.274 372.592 355.241 371.979C354.14 371.631 352.989 371.296 351.797 370.929C345.219 368.918 338.331 366.819 331.278 364.028C325.133 361.595 319.361 358.801 313.848 356.109C308.624 353.597 303.28 350.989 297.627 348.681C294.391 347.358 290.823 346.039 287.18 344.827C283.759 343.685 280.044 342.579 276.216 341.548C269.452 339.718 261.989 338.035 253.476 336.38C245.415 334.818 237.016 333.479 228.848 332.163C217.807 330.377 206.394 328.563 195.73 326.197C189.972 324.915 184.93 323.609 180.216 322.128C174.97 320.488 170.323 318.728 166.002 316.792C162.969 315.414 160.15 313.933 157.535 312.397C155.168 311.009 152.975 309.487 150.726 307.807C148.765 306.308 146.877 304.703 144.893 302.907C141.252 299.529 137.939 295.975 134.783 292.552C130.723 288.163 126.516 283.597 121.553 279.412C116.392 275.064 110.839 271.56 104.654 268.705C100.943 266.992 96.7758 265.404 92.3209 264.025C88.2668 262.752 83.756 261.605 78.9801 260.573C71.043 258.891 62.2601 257.569 51.226 256.345C45.7739 255.758 39.6783 255.087 33.9881 253.916C27.5752 252.596 22.7471 250.799 19.2326 248.469C15.5487 246.056 13.3875 243.226 12.5909 239.849C11.8681 236.756 12.3867 233.626 13.0247 230.983C13.7127 227.936 14.5531 224.848 15.3202 221.867C16.0874 218.885 16.8882 215.764 17.6158 212.75C18.0128 210.909 18.4769 208.79 18.2356 206.648C17.9488 204.301 16.9178 202.288 14.9956 200.432C12.6098 198.14 9.39551 196.334 5.13244 194.946C1.78976 193.868 -2.04334 193.055 -6.95951 192.408C-11.3226 191.826 -15.8319 191.458 -20.6234 191.08C-24.4385 190.781 -28.4343 190.446 -32.2666 190.022C-41.7712 188.941 -48.8 187.227 -54.2052 184.678C-58.6728 182.566 -61.8095 180.047 -63.9035 176.938C-65.9863 173.784 -66.6308 170.366 -67.1789 167.138C-67.2364 166.591 -67.3842 166.025 -67.4417 165.478C-67.8592 162.69 -68.305 159.824 -69.2472 157.05C-70.3425 153.929 -71.9333 151.289 -74.178 149.002C-75.8121 147.327 -77.9314 145.698 -80.7225 143.907C-83.1859 142.329 -85.9031 140.821 -88.4904 139.363C-92.9588 136.861 -97.5966 134.276 -101.135 131.26C-104.436 128.439 -106.581 125.345 -107.462 122.121C-108.269 119.181 -108.044 116.088 -106.769 112.967C-105.601 110.093 -103.536 107.232 -100.697 104.507C-98.0331 101.915 -94.7593 99.5472 -90.9377 97.4622C-86.7271 95.1407 -82.0649 92.9123 -77.4759 90.7904C-71.8045 88.1126 -65.9189 85.3328 -60.9649 82.2883C-58.2935 80.6479 -56.1072 79.0536 -54.2031 77.4499C-52.102 75.6191 -50.5256 73.8019 -49.2597 71.8965C-48.1909 70.2182 -47.4214 68.4053 -46.9737 66.5505C-46.5259 64.6957 -46.3999 62.799 -46.556 60.8929C-46.7517 58.9544 -47.2804 57.0202 -48.1135 55.1695C-48.9751 53.2399 -50.1807 51.3611 -51.6909 49.5657C-52.3187 48.8281 -53.0368 48.0718 -53.7662 47.3619C-55.7735 45.2695 -57.8204 43.1445 -57.9602 40.9741C-58.0184 40.0373 -57.6535 39.1146 -56.984 38.1086C-56.3369 37.1953 -55.4695 36.3517 -54.6641 35.5684C-47.3755 28.9401 -38.0258 23.0038 -26.7107 17.9589C-23.8354 16.6524 -20.74 15.4156 -17.6669 14.2716C-13.3421 12.6551 -8.66717 11.1594 -4.14451 9.70534C3.11308 7.32969 10.664 4.91706 17.0064 2.0123C20.4624 0.460348 23.3033 -1.09652 25.6926 -2.74636C28.3692 -4.60475 30.442 -6.5144 32.0856 -8.60979C34.8039 -12.2119 36.257 -16.4638 37.5861 -20.5952C38.9773 -24.7869 40.4527 -29.1315 43.239 -32.6223C44.7362 -34.5044 46.5276 -36.0339 48.7147 -37.2387C51.2742 -38.4154 53.868 -39.3417 56.9195 -40.0034ZM140.163 -33.7225C139.769 -33.6578 139.464 -33.5744 139.069 -33.5097C136.051 -32.9871 132.395 -32.7662 128.242 -32.8423C119.371 -33.0134 109.967 -34.5111 103.673 -35.7337C102.177 -36.0173 100.642 -36.3333 99.1457 -36.6169C84.7114 -39.4664 69.865 -42.3764 57.6584 -40.119C54.2853 -39.4992 51.4376 -38.5034 49.0252 -37.1504C46.8777 -35.9132 45.0976 -34.43 43.5495 -32.534C40.7125 -29.0293 39.2878 -24.6986 37.8967 -20.5069C36.5168 -16.3616 35.1144 -12.1236 32.3453 -8.50767C30.7525 -6.42618 28.6686 -4.47012 25.9524 -2.64421C23.5631 -0.994371 20.7222 0.562509 17.2662 2.11446C10.8842 4.98674 3.37287 7.43184 -3.88472 9.8075C-8.40738 11.2616 -13.0427 12.7898 -17.4071 14.3738C-20.4802 15.5178 -23.5757 16.7545 -26.4509 18.061C-37.7661 23.1059 -47.1553 29.0098 -54.4044 35.6705C-55.2098 36.4538 -56.1166 37.265 -56.7638 38.1783C-57.4333 39.1843 -57.7982 40.107 -57.7399 41.0438C-57.6398 43.1817 -55.5533 45.3392 -53.5855 47.3991C-52.9069 48.1229 -52.1888 48.8791 -51.5103 49.6029C-50.0001 51.3983 -48.7944 53.2771 -47.9329 55.2067C-47.0601 57.0899 -46.5315 59.024 -46.3754 60.9301C-46.2193 62.8362 -46.3453 64.7329 -46.793 66.5877C-47.2408 68.4425 -48.0498 70.2229 -49.0791 71.9337C-50.3054 73.8716 -51.9325 75.7026 -54.0225 77.4871C-55.887 79.1232 -58.1128 80.6851 -60.7843 82.3255C-65.7383 85.37 -71.6239 88.1498 -77.2952 90.8276C-81.794 92.968 -86.5465 95.1779 -90.7571 97.4993C-94.5392 99.6169 -97.813 101.985 -100.516 104.544C-103.355 107.269 -105.369 110.116 -106.588 113.004C-107.863 116.125 -108.128 119.185 -107.281 122.159C-106.4 125.382 -104.295 128.444 -100.954 131.297C-97.4556 134.281 -92.8176 136.866 -88.3097 139.4C-85.7224 140.858 -83.0052 142.366 -80.5418 143.944C-77.7903 145.703 -75.6822 147.378 -73.9974 149.039C-71.7527 151.326 -70.111 153.952 -69.0665 157.088C-68.1243 159.861 -67.6785 162.727 -67.2611 165.515C-67.2035 166.062 -67.0557 166.628 -66.9982 167.175C-66.5008 170.417 -65.8057 173.821 -63.7229 176.976C-61.6685 180.051 -58.4921 182.603 -54.0245 184.716C-48.5797 187.297 -41.6414 188.992 -32.086 190.059C-28.2537 190.483 -24.2579 190.818 -20.4427 191.117C-15.6512 191.495 -11.1419 191.863 -6.77885 192.445C-1.86268 193.092 2.02111 193.891 5.36378 194.969C9.62686 196.358 12.892 198.149 15.227 200.455C17.1493 202.311 18.1803 204.324 18.467 206.671C18.7083 208.814 18.2441 210.933 17.8471 212.774C17.1195 215.788 16.3696 218.894 15.5517 221.89C14.7845 224.871 13.9837 227.992 13.2561 231.006C12.6181 233.649 12.0995 236.779 12.8223 239.873C13.619 243.249 15.7801 246.079 19.464 248.492C23.018 250.855 27.8573 252.605 34.2194 253.939C39.859 255.124 46.0053 255.781 51.4574 256.368C62.452 257.56 71.3251 258.9 79.2623 260.582C84.0381 261.614 88.549 262.762 92.6538 264.02C97.1087 265.4 101.276 266.988 104.987 268.701C111.211 271.588 116.765 275.092 121.886 279.407C126.939 283.611 131.107 288.144 135.116 292.547C138.311 296.003 141.574 299.571 145.226 302.903C149.341 306.67 153.472 309.784 157.868 312.392C160.433 313.942 163.302 315.409 166.335 316.788C170.605 318.738 175.252 320.497 180.548 322.123C185.224 323.572 190.305 324.91 196.023 326.16C206.687 328.526 218.101 330.34 229.142 332.126C237.309 333.442 245.709 334.781 253.77 336.343C262.282 337.998 269.745 339.681 276.509 341.511C280.337 342.542 284.052 343.648 287.474 344.79C291.167 345.988 294.645 347.288 297.921 348.644C303.574 350.952 308.968 353.546 314.142 356.072C319.705 358.75 325.478 361.545 331.571 363.991C338.664 366.814 345.462 368.895 352.091 370.892C353.282 371.259 354.383 371.608 355.535 371.942C357.517 372.569 359.499 373.196 361.441 373.79L362.011 373.981C367.926 374.614 373.626 374.96 379.145 375.269C379.8 375.306 380.545 375.362 381.2 375.4C393.164 376.11 403.976 376.486 413.264 376.5C422.975 376.528 431.315 376.151 438.22 375.431C442.888 373.374 447.115 370.788 450.738 367.762C454.123 364.93 457.085 361.694 459.459 358.143C460.714 356.284 461.81 354.295 462.828 352.241C464.047 349.742 465.476 347.359 467.007 345.338C468.808 342.983 470.644 341.268 472.414 340.22C474.223 339.206 476.371 338.358 478.937 337.742C481.504 337.127 484.347 336.739 487.416 336.592C491.829 336.38 498.431 336.522 504.912 338.343C506.685 338.854 508.396 339.426 510.006 340.025C512.535 340.935 514.896 341.761 517.577 342.24C519.666 342.621 521.539 342.715 523.136 342.581C527.26 342.189 530.999 341.036 534.584 339.146C538.18 337.209 541.256 334.678 543.543 332.667C547.447 329.26 550.859 325.728 553.084 323.387L553.714 322.738C559.137 316.967 564.745 311.015 569.083 304.631C571.435 301.172 573.218 297.913 574.515 294.7C575.952 291.102 576.814 287.531 576.999 284.016C577.244 279.662 576.615 275.2 576.002 270.864C575.241 265.572 574.435 260.076 575.367 254.841C575.651 253.074 576.189 251.238 576.868 249.406C579.586 242.47 584.837 235.836 589.982 229.448C592.78 225.911 595.701 222.253 598.137 218.642C601.924 212.972 604.16 208.029 605.154 203.123C606.328 197.475 605.826 191.896 603.625 186.089C601.368 180.124 597.186 174.08 593.139 168.258C590.576 164.542 587.894 160.728 585.776 156.934C583.426 152.727 581.951 149.016 581.386 145.663C580.889 142.811 580.997 140.01 581.132 137.287C581.216 133.8 581.372 130.206 580.31 126.556C579.702 124.557 578.761 122.562 577.482 120.4C576.287 118.475 574.822 116.494 573.018 114.346C569.624 110.338 565.395 106.255 561.364 102.335C557.028 98.1077 552.493 93.7185 548.947 89.3622C546.673 86.6065 544.704 83.7674 542.931 80.7012C541.363 77.969 539.918 75.1162 538.642 71.9575C536.21 66.127 534.567 60.167 533.01 54.4436C531.635 49.5365 530.253 44.4578 528.415 39.5041C526.765 35.1487 524.635 31.011 522.065 27.1236C519.145 22.7259 515.61 18.7128 511.591 15.1354C506.701 10.8434 500.972 7.08436 494.652 4.00674C488.032 0.794498 480.68 -1.74101 472.675 -3.53482C463.908 -5.50986 454.482 -6.52522 445.429 -7.51259C438.408 -8.27642 431.105 -9.04967 424.246 -10.2911C420.521 -10.9606 417.28 -11.6763 414.215 -12.5264C410.748 -13.4834 407.688 -14.5514 404.773 -15.8327C403.576 -16.3712 402.339 -16.9422 401.153 -17.5271C395.075 -20.6278 389.752 -24.498 384.547 -28.2707C379.75 -31.765 375.229 -35.0319 370.151 -37.7565C367.422 -39.2186 364.807 -40.3652 362.176 -41.2476C359.195 -42.2507 356.276 -42.9245 353.149 -43.3248C349.881 -43.7297 346.484 -43.7963 342.755 -43.4687C339.42 -43.206 336.16 -42.6603 333.001 -42.1423L332.9 -42.1145C319.869 -39.9781 306.086 -38.8484 291.934 -38.7437C277.641 -38.6437 262.928 -39.5549 248.14 -41.5281C239.826 -42.631 231.308 -44.068 222.728 -45.8343C220.148 -46.3409 217.489 -46.9126 214.92 -47.4656C205.357 -49.4828 195.484 -51.5882 185.613 -52.525C182.464 -52.8325 179.32 -52.9684 176.324 -52.9281C173.237 -52.9063 170.298 -52.7083 167.658 -52.3757C164.865 -52.0013 162.412 -51.4599 160.348 -50.7652C158.132 -50.0289 156.384 -49.0744 155.128 -47.9944C153.5 -46.5529 152.623 -44.8838 151.943 -43.4419C151.786 -43.1822 151.719 -42.904 151.561 -42.6444C150.612 -40.4791 149.651 -38.2675 147.138 -36.4971C145.301 -35.1716 143.051 -34.2962 140.163 -33.7225Z" stroke="black" stroke-opacity="0.03"/>
<path d="M50.4393 58.2736C50.5931 58.2315 50.824 58.1683 51.0378 58.1754C67.8663 55.1478 89.3019 58.9311 109.976 62.5946C112.594 63.0596 115.35 63.5528 117.968 64.0177C127.971 65.7439 141.038 67.8791 153.263 68.735C159.338 69.1735 165.052 69.3167 169.996 69.0801C175.581 68.8649 180.55 68.2278 184.825 67.1898C191.16 65.654 196.339 63.2533 200.704 59.763C205.393 56.1184 208.694 51.672 211.885 47.3873C214.555 43.7698 217.32 40.061 220.837 36.8022C222.776 35.0254 224.783 33.5577 226.953 32.308C229.388 30.8546 232.046 29.6683 235.004 28.7281C236.791 28.1739 238.714 27.6478 240.758 27.2201C249.223 25.4955 259.735 25.1139 272.201 26.1667C278.96 26.7461 286.335 27.7473 293.977 29.1351C300.994 30.4313 308.294 32.0438 315.74 33.9445C316.758 34.1909 317.836 34.4865 318.855 34.7329C325.753 36.5209 332.985 38.4145 340.002 39.7106C347.917 41.1548 354.539 41.706 360.373 41.3574C365.778 40.9945 370.515 39.8303 375.037 38.6589C377.252 38.1189 379.406 37.5297 381.741 37.0881C381.818 37.067 381.818 37.067 381.895 37.046C385.597 36.2959 389.599 35.7918 393.825 35.5549C400.086 35.2205 406.869 35.3993 414.005 36.2037C421.004 36.9799 428.098 38.2551 435.073 40.022C442.125 41.7679 448.844 43.9985 455.188 46.5943C461.729 49.2675 467.483 52.2214 472.511 55.5052C483.2 62.4244 491 70.5931 495.046 79.1324C496.936 83.2087 498.031 87.3058 498.15 91.2759C498.269 95.246 497.489 99.0682 495.906 102.651C493.938 106.929 490.721 111.024 487.615 114.958C484.714 118.639 481.702 122.481 479.743 126.429C478.652 128.564 477.963 130.525 477.625 132.52C477.236 134.726 477.231 136.827 477.638 139.013C478.337 142.365 480.055 145.963 482.997 150.145C485.631 153.822 488.949 157.639 492.164 161.287C497.865 167.733 503.712 174.467 506.001 181.059C510.621 194.363 499.697 198.532 488.14 202.939C481.721 205.417 475.071 207.957 470.674 212.178C468.403 214.44 468.95 218.424 469.583 222.647C470.163 226.491 470.77 230.525 469.185 233.517C468.367 235.119 466.932 236.299 464.958 237.036C462.735 237.906 459.64 238.228 455.79 238.1C453.437 238.021 450.845 237.746 447.996 237.344C444.872 236.886 441.817 236.147 438.762 235.408C434.551 234.394 430.341 233.38 426.02 233.118C421.058 232.835 416.68 233.704 413.545 235.677C411.341 237.067 409.659 238.971 408.783 241.113C407.983 243.235 407.927 245.547 408.684 247.767C409.924 251.562 412.677 255.337 415.234 259.034C417.704 262.493 420.217 266.07 421.585 269.633C423.855 275.706 422.609 281.755 417.626 288.105C413.258 293.696 406.698 298.836 400.318 303.534C393.749 308.415 386.879 311.869 380.014 313.812C375.688 315.061 371.224 315.691 366.759 315.731C361.789 315.778 356.792 315.045 351.827 313.581C340.23 310.125 332.835 303.552 325.542 297.147C321.275 293.393 317.187 289.786 312.366 286.84C309.805 285.244 307.236 283.978 304.522 283.014C301.492 281.874 298.437 281.135 295.1 280.67C289.05 279.831 283.457 280.376 278.414 282.215C273.277 284.145 269.997 287.01 268.205 289.075C267.215 290.199 266.285 291.372 265.432 292.524C263.76 294.687 262.01 296.872 259.824 298.782C257.296 300.917 254.477 302.475 250.997 303.493C250.228 303.703 249.458 303.914 248.629 304.075C245.756 304.664 242.6 304.936 239.101 304.843C234.884 304.75 230.28 304.172 225.428 303.137C218.796 301.735 212.017 299.455 205.861 296.677C199.645 293.849 194.343 290.509 190.556 287.149C184.6 281.756 180.765 275.915 178.938 269.197C177.197 262.718 177.638 256.429 178.21 251.679C178.396 250.316 178.581 248.953 178.69 247.611C180.073 237.718 181.464 227.495 174.736 216.671C172.677 213.297 169.908 210.183 166.506 207.307C162.744 204.137 158.299 201.415 153.428 199.27C140.671 193.769 125.407 192.103 110.631 190.502C101.665 189.542 93.2628 188.624 85.3383 186.92C81.0338 185.998 77.4047 184.956 74.0405 183.711C70.2825 182.311 67.08 180.693 64.1763 178.731C61.2726 176.769 58.9245 174.59 57.4057 172.25C55.9131 170.099 55.0959 167.829 54.8773 165.461C54.2852 160.176 56.8852 155.659 59.078 152.829C60.8612 150.504 63.1322 148.242 65.2492 146.023C67.5541 143.621 70.0128 141.176 71.9238 138.62C74.0567 135.74 75.3431 133.091 75.834 130.463C76.6122 126.051 75.1228 121.209 71.4008 116.387C67.8157 111.593 62.2809 107.136 55.4731 103.486C52.1677 101.699 48.4606 100.088 44.8734 98.576C41.62 97.1691 38.2298 95.7341 35.1642 94.1446C31.7819 92.3794 29.3149 90.6918 27.4466 88.9062C24.9955 86.5581 23.7416 84.0139 23.5309 81.3155C23.3293 78.8772 24.1541 76.355 25.8513 73.7911C27.4206 71.4589 29.6316 69.1482 32.5441 66.908C35.1918 64.8715 38.4642 62.9267 41.8825 61.27C44.7713 60.0206 47.3354 58.9256 50.4393 58.2736ZM182.995 67.6247C179.139 68.4169 174.846 68.9348 170.056 69.1294C165.052 69.3167 159.475 69.2017 153.323 68.7843C141.038 67.8791 128.031 65.7932 118.028 64.067C115.41 63.602 112.654 63.1088 110.036 62.6438C89.2849 59.0014 67.8494 55.2181 51.0978 58.2247C50.944 58.2668 50.6531 58.2807 50.4992 58.3228C47.3954 58.9748 44.8913 60.119 42.2164 61.3755C38.798 63.0322 35.6026 64.956 32.8779 67.0136C29.9654 69.2537 27.7544 71.5645 26.1851 73.8966C24.4879 76.4605 23.6632 78.9827 23.8647 81.4211C24.0754 84.1194 25.3293 86.6637 27.7805 89.0117C29.5888 90.7482 32.1157 92.4849 35.4381 94.201C38.4436 95.7412 41.817 97.2465 45.1472 98.6323C48.7944 100.194 52.5015 101.805 55.747 103.542C62.4948 107.143 67.9526 111.621 71.6746 116.443C75.3197 121.286 76.8691 126.178 76.1079 130.52C75.6169 133.148 74.3905 135.845 72.2577 138.725C70.3466 141.282 67.8879 143.726 65.583 146.128C63.406 148.298 61.1951 150.609 59.4119 152.934C57.1421 155.786 54.619 160.282 55.2112 165.566C55.4297 167.934 56.3238 170.183 57.7395 172.355C59.3352 174.675 61.6064 176.875 64.5101 178.837C67.3539 180.749 70.6163 182.416 74.3743 183.816C77.7386 185.062 81.4276 186.152 85.6721 187.026C93.5966 188.73 102.075 189.626 110.965 190.607C125.741 192.209 141.082 193.853 153.839 199.354C158.787 201.479 163.232 204.2 167.054 207.42C170.395 210.246 173.147 213.431 175.284 216.783C181.935 227.629 180.544 237.852 179.237 247.724C179.052 249.087 178.867 250.45 178.758 251.792C178.186 256.542 177.745 262.83 179.486 269.31C181.252 275.979 185.011 281.841 191.043 287.212C194.831 290.573 200.133 293.913 206.348 296.74C212.504 299.519 219.284 301.799 225.916 303.2C230.768 304.235 235.312 304.764 239.529 304.858C244.037 304.937 248.022 304.503 251.425 303.507C254.828 302.511 257.647 300.952 260.175 298.817C262.361 296.907 264.05 294.673 265.783 292.559C266.636 291.407 267.566 290.234 268.556 289.11C270.425 287.024 273.704 284.159 278.841 282.229C283.825 280.341 289.478 279.845 295.527 280.684C298.865 281.149 301.98 281.938 304.95 283.028C307.587 284.013 310.156 285.279 312.793 286.854C317.615 289.801 321.643 293.358 325.97 297.162C333.202 303.517 340.734 310.119 352.255 313.595C357.219 315.059 362.216 315.792 367.186 315.745C371.575 315.726 375.979 315.047 380.441 313.826C387.383 311.862 394.254 308.408 400.746 303.549C407.066 298.801 413.686 293.71 418.054 288.119C422.96 281.79 424.266 275.79 421.935 269.669C420.628 266.155 418.055 262.528 415.584 259.07C412.951 255.393 410.275 251.598 409.035 247.803C408.278 245.582 408.333 243.27 409.073 241.099C409.89 238.907 411.572 237.004 413.776 235.614C416.971 233.69 421.289 232.771 426.328 233.034C430.588 233.247 434.936 234.288 439.07 235.323C442.125 236.063 445.18 236.802 448.303 237.26C451.076 237.683 453.685 237.888 456.098 238.015C459.87 238.165 463.043 237.822 465.266 236.952C467.317 236.194 468.675 235.035 469.493 233.433C471.078 230.441 470.454 226.477 469.891 222.563C469.258 218.34 468.651 214.306 470.982 212.094C475.379 207.873 482.029 205.332 488.448 202.855C494.312 200.595 499.851 198.49 503.505 195.259C505.367 193.503 506.62 191.586 507.146 189.408C507.74 186.949 507.47 184.201 506.369 181.024C504.08 174.432 498.216 167.768 492.532 161.252C489.317 157.604 486.059 153.836 483.365 150.11C480.423 145.928 478.645 142.28 478.005 138.978C477.599 136.792 477.603 134.691 477.992 132.485C478.331 130.49 479.02 128.529 480.11 126.394C482.07 122.446 485.082 118.604 487.983 114.923C491.089 110.989 494.306 106.894 496.273 102.616C497.917 99.0824 498.697 95.2603 498.578 91.2902C498.459 87.32 497.364 83.223 495.474 79.1466C491.428 70.6073 483.628 62.4387 472.938 55.5194C467.971 52.2848 462.08 49.3028 455.616 46.6086C449.272 44.0128 442.613 41.8314 435.501 40.0362C428.526 38.2693 421.432 36.9942 414.433 36.218C407.297 35.4136 400.513 35.2348 394.252 35.5691C390.027 35.8061 386.025 36.3101 382.322 37.0602C382.245 37.0813 382.245 37.0813 382.169 37.1023C379.894 37.5931 377.603 38.1542 375.465 38.6732C370.942 39.8445 366.206 41.0087 360.8 41.3716C355.027 41.7694 348.405 41.2183 340.43 39.7249C333.413 38.4287 326.241 36.5844 319.283 34.7472C318.264 34.5008 317.186 34.2051 316.167 33.9587C308.798 32.037 301.499 30.4245 294.405 29.1493C286.763 27.7615 279.464 26.7393 272.706 26.1599C257.22 24.8176 244.724 25.6761 235.586 28.7003C232.628 29.6405 229.97 30.8268 227.535 32.2802C225.348 33.6002 223.34 35.0678 221.419 36.7744C217.901 40.0331 215.06 43.763 212.407 47.3102C209.216 51.595 205.914 56.0413 201.225 59.686C196.801 63.127 191.682 65.5769 185.347 67.1128C184.209 67.3582 183.611 67.4563 182.995 67.6247Z" stroke="black" stroke-opacity="0.03"/>
<path d="M404.691 122.354C400.784 121.328 396.633 120.537 392.24 119.983C388.149 119.46 384.014 119.118 379.939 119.044C377.539 118.964 374.992 118.981 372.431 119.058C370.689 119.082 369.05 119.19 367.359 119.256C364.414 119.382 361.402 119.526 358.287 119.585C349.856 119.569 341.091 118.625 332.191 116.699C327.834 115.739 323.373 114.693 319.148 113.697C311.88 111.947 305.019 110.312 298.867 109.333C289.259 107.77 282.208 107.433 274.05 107.06C272.64 106.992 271.097 106.961 269.502 106.888C268.092 106.82 266.615 106.771 265.139 106.722C262.436 106.612 259.564 106.434 256.626 106.275C250.143 105.896 243.41 105.529 237.496 105.617C232.388 105.712 228.461 106.05 225.332 106.679C225.199 106.715 225 106.77 224.897 106.685C223.052 107.133 221.443 107.629 220.227 108.302C218.943 108.993 217.934 109.835 217.382 110.836C216.668 111.993 216.796 113.261 216.961 114.632C217.037 115.347 217.097 116.124 217.054 116.815C216.55 123.012 209.25 127.557 202.231 131.969C198.36 134.387 194.717 136.629 192.19 139.132C191.055 140.235 190.895 141.412 190.654 142.667C190.603 143.134 190.538 143.662 190.354 144.165C189.401 147.597 188.049 150.628 186.245 153.217C185.576 154.193 184.773 155.205 184.051 156.139C182.512 158.146 180.907 160.17 180.011 162.341C177.982 167.143 180.323 170.807 182.579 173.021C186.24 176.607 191.479 178.799 197.057 181.124C200.323 182.496 203.758 183.935 206.988 185.713C209.841 187.255 212.606 189.161 215.571 191.521C218.588 193.924 221.014 196.205 223.336 198.402C224.69 199.73 226.006 200.956 227.389 202.163C231.072 205.404 235.265 208.844 241.576 211.988C244.731 213.56 248.588 215.054 252.48 216.141C256.595 217.338 260.59 218.001 263.964 218.154C267.154 218.301 269.759 218.042 272.246 217.758C272.763 217.673 273.398 217.613 273.966 217.57C277.207 217.251 281.119 216.973 285.549 217.63C290.283 218.318 294.287 219.715 298.107 221.105C301.586 222.362 305.236 223.686 309.416 224.355C312.754 224.914 316.209 224.989 319.899 224.602M404.691 122.354C408.835 123.43 412.736 124.741 416.105 126.198M404.691 122.354C408.902 123.411 412.684 124.699 416.105 126.198M404.691 122.354C400.784 121.328 396.567 120.555 392.306 119.965C388.164 119.399 384.08 119.1 380.005 119.026C377.539 118.964 375.059 118.963 372.497 119.04C370.807 119.106 369.116 119.172 367.426 119.238C364.48 119.364 361.469 119.508 358.302 119.525C349.871 119.509 341.054 118.522 332.088 116.614C327.664 115.672 323.321 114.651 319.044 113.612C311.828 111.904 304.967 110.27 298.815 109.291C289.208 107.728 282.157 107.391 273.998 107.017C272.588 106.95 271.045 106.919 269.45 106.845C268.092 106.82 266.682 106.753 265.087 106.679C262.385 106.569 259.513 106.392 256.574 106.233C250.091 105.854 243.358 105.487 237.445 105.575C232.403 105.651 228.409 106.007 225.28 106.637C225.148 106.673 225.015 106.709 224.815 106.764C222.919 107.169 221.362 107.708 220.212 108.363C218.862 109.071 217.919 109.896 217.367 110.896C216.654 112.054 216.782 113.322 216.947 114.692C217.022 115.408 217.097 116.124 217.04 116.875C216.587 123.115 209.287 127.66 202.216 132.029C198.345 134.447 194.703 136.689 192.175 139.193C191.041 140.296 190.814 141.491 190.639 142.728C190.522 143.213 190.457 143.74 190.34 144.225C189.401 147.597 187.983 150.646 186.231 153.278C185.561 154.254 184.758 155.266 184.037 156.2C182.498 158.206 180.892 160.231 179.996 162.402C178.916 165.075 178.451 169.053 182.564 173.082C186.174 176.625 191.464 178.86 197.042 181.185C200.308 182.557 203.744 183.996 207.04 185.756C209.893 187.298 212.657 189.203 215.623 191.564C218.588 193.924 220.947 196.223 223.388 198.444C224.808 199.755 226.073 200.938 227.441 202.206C231.124 205.446 235.316 208.886 241.627 212.031C244.783 213.603 248.706 215.078 252.532 216.184C256.713 217.362 260.642 218.043 264.016 218.197C267.205 218.344 269.759 218.042 272.298 217.8C272.867 217.758 273.383 217.673 274.018 217.613C277.325 217.275 281.17 217.016 285.601 217.673C290.387 218.403 294.324 219.818 298.158 221.148C301.808 222.471 305.354 223.71 309.467 224.397C312.805 224.957 316.194 225.049 319.899 224.602M416.105 126.198C419.748 127.807 422.911 129.604 425.41 131.582C428.908 134.306 431.305 137.218 432.566 140.215M432.566 140.215C433.738 143.065 433.855 145.922 432.812 148.699M432.566 140.215C433.672 143.084 433.788 145.94 432.812 148.699M432.812 148.699C431.923 151.094 430.245 153.422 428.647 155.671C427.322 157.562 425.864 159.49 424.894 161.455C423.923 163.419 423.454 165.359 423 167.239C422.429 169.604 421.821 171.866 420.437 174C419.245 175.855 417.41 177.546 414.822 179.273C412.478 180.764 409.793 182.121 407.123 183.417C404.439 184.775 401.621 186.168 399.129 187.756C397.293 188.937 395.901 190.338 394.427 191.817C391.952 194.363 389.395 196.987 384.415 198.349L384.348 198.368C383.485 198.604 382.555 198.858 381.626 199.112C380.511 199.36 379.463 199.59 378.416 199.82C376.785 200.153 375.154 200.486 373.494 200.94C369.376 202.066 365.394 204.174 361.849 207.296C361.053 208.023 360.258 208.751 359.476 209.417C357.641 211.108 355.888 212.721 353.727 214.218C351.044 216.084 347.481 217.738 342.76 219.313C338.982 220.572 334.467 221.807 328.844 223.005C326.165 223.568 323.206 224.264 319.899 224.602M432.812 148.699C431.923 151.094 430.245 153.422 428.514 155.707C427.137 157.556 425.731 159.526 424.761 161.491C423.79 163.455 423.322 165.396 422.868 167.275C422.296 169.64 421.636 171.859 420.304 174.036C419.164 175.934 417.263 177.643 414.689 179.309C412.345 180.8 409.66 182.157 406.99 183.454C404.306 184.811 401.488 186.204 398.996 187.792C397.212 189.016 395.82 190.417 394.346 191.896C391.885 194.381 389.329 197.005 384.4 198.41L384.334 198.428C383.47 198.664 382.592 198.961 381.611 199.173C380.563 199.403 379.449 199.651 378.401 199.881C376.77 200.214 375.139 200.546 373.479 201.001C369.31 202.084 365.379 204.235 361.835 207.357C360.987 208.041 360.191 208.769 359.462 209.478C357.627 211.169 355.939 212.763 353.713 214.278C351.029 216.145 347.467 217.799 342.745 219.373C338.968 220.633 334.4 221.826 328.895 223.048C328.047 223.223 327.198 223.399 326.283 223.593C324.32 224.016 322.187 224.373 319.899 224.602" stroke="black" stroke-opacity="0.03"/>
<path d="M238.344 163.272C238.214 164.817 238.767 166.353 239.951 167.894C242.509 171.191 246.601 174.379 252.29 177.396C254.914 178.81 257.851 180.138 260.995 181.409C264.007 182.627 267.279 183.775 270.678 184.799C277.239 186.823 284.336 188.433 291.138 189.459C297.94 190.484 304.393 190.939 309.693 190.732C316.319 190.474 322.717 189.345 329.067 187.208C335.093 185.205 340.389 182.601 344.788 180.288C351.291 176.91 358.002 173.075 365.453 168.595C369.944 165.901 372.965 163.254 374.505 160.701C375.474 159.104 375.801 157.549 375.578 156.056C375.349 154.386 374.333 152.755 372.612 151.228C370.171 149.054 366.562 147.288 361.866 145.997C357.952 144.892 353.368 144.148 348.575 143.86C345.942 143.693 343.245 143.587 340.641 143.5C334.657 143.317 328.488 143.095 322.166 141.894C316.082 140.716 310.394 138.498 304.922 136.398C300.914 134.875 296.825 133.285 292.5 132.07C289.356 131.198 285.998 130.607 282.746 130.387C279.441 130.181 276.397 130.303 273.852 130.778C273.707 130.773 273.603 130.801 273.499 130.83C270.069 131.546 267.844 132.91 267.107 134.754C266.83 135.496 266.873 136.328 266.955 137.194C266.956 137.593 266.997 138.026 266.987 138.473C266.94 141.283 265.14 143.907 261.395 146.53C258.061 148.863 253.626 150.92 250.018 152.573C245.416 154.72 242.116 156.911 240.263 159.15M238.344 163.272C238.48 161.902 239.062 160.5 240.263 159.15M238.344 163.272C238.48 161.902 239.114 160.485 240.263 159.15M238.344 163.272C238.266 164.803 238.767 166.353 239.962 167.847C242.521 171.143 246.705 174.35 252.301 177.348C254.885 178.729 257.862 180.09 260.966 181.328C263.978 182.547 267.25 183.694 270.649 184.718C277.261 186.728 284.267 188.319 291.068 189.345C297.87 190.37 304.323 190.825 309.624 190.618C313.536 190.525 317.29 190.075 321.074 189.306C323.734 188.756 326.389 188.03 329.13 187.147C335.156 185.143 340.504 182.525 344.851 180.226C351.314 176.815 358.118 172.999 365.516 168.533C370.007 165.839 373.029 163.192 374.517 160.653C375.434 159.07 375.813 157.501 375.63 156.041C375.401 154.372 374.385 152.741 372.664 151.214C370.223 149.039 366.655 147.307 361.959 146.016C358.086 144.944 353.449 144.215 348.709 143.913C346.075 143.745 343.378 143.639 340.774 143.552C334.79 143.369 328.569 143.162 322.247 141.96C316.163 140.783 310.516 138.598 305.003 136.465C300.995 134.941 296.866 133.318 292.581 132.137C289.489 131.251 286.172 130.693 282.879 130.439C279.626 130.219 276.531 130.356 274.037 130.816C273.933 130.844 273.829 130.873 273.684 130.868C270.254 131.584 267.988 132.915 267.251 134.759C266.923 135.515 267.017 136.333 267.1 137.199C267.141 137.631 267.142 138.031 267.131 138.478C266.992 141.269 265.192 143.893 261.488 146.549C258.153 148.882 253.719 150.939 250.111 152.592C245.468 154.706 242.209 156.93 240.263 159.15" stroke="black" stroke-opacity="0.03"/>
</svg>
