<svg width="164" height="219" viewBox="0 0 164 219" fill="none" xmlns="http://www.w3.org/2000/svg">
<path d="M145.116 30.5323C147.615 31.963 149.639 35.5398 149.639 38.5205V47.701C149.639 50.5624 147.616 51.7547 144.997 50.324L109.759 29.6977L107.736 33.2745L105.712 27.4324L93.2122 20.398C90.7122 18.9672 88.6885 15.3904 88.6885 12.4097V3.22924C88.6885 0.367792 90.7122 -0.824479 93.3312 0.606246L145.116 30.5323Z" fill="#58AFFB"/>
<path d="M68.5714 92.2907C68.5714 92.2907 72.6189 91.5754 72.7379 87.1639L71.0713 85.0179C70.4761 84.3025 69.6428 84.1833 68.8094 84.6602C67.8571 85.2563 66.5476 86.3294 65.7143 88.5947C65.4762 89.31 65.7143 90.1446 66.3095 90.6215L68.5714 92.2907Z" fill="#C8F3FF"/>
<path d="M70.1181 86.0915C70.1181 86.0915 69.1658 79.8916 67.8563 79.4147C66.6658 78.9378 66.4277 80.3686 66.4277 81.4416C66.4277 82.3954 66.6658 83.3492 66.6658 83.3492C66.6658 83.3492 61.904 79.0571 60.8326 79.6532C59.8803 80.3686 58.4518 84.303 59.7612 85.853C60.9517 87.403 66.1896 89.4298 67.142 89.4298C68.0944 89.4298 69.9991 88.9529 70.1181 86.0915Z" fill="#FF8654"/>
<path d="M95.2363 74.1699C95.2363 74.1699 83.808 90.9809 82.4985 95.3924L72.1416 85.4965C72.1416 85.4965 69.5227 85.0196 67.737 88.358C65.9513 91.6963 67.737 92.7694 67.737 92.7694C67.737 92.7694 80.2367 106.004 83.0937 106.004C85.9508 106.004 97.6172 88.358 97.6172 87.7618C97.7362 87.0465 95.2363 74.1699 95.2363 74.1699Z" fill="#58AFFB"/>
<path d="M127.617 79.416C127.617 79.416 139.045 96.227 140.355 100.638L150.712 90.7426C150.712 90.7426 153.331 90.2657 155.116 93.604C156.902 96.9424 155.116 98.0155 155.116 98.0155C155.116 98.0155 142.498 111.25 139.641 111.25C136.784 111.25 125.117 93.604 125.117 93.0079C125.117 92.2925 127.617 79.416 127.617 79.416Z" fill="#58AFFB"/>
<path d="M92.7373 186.959C92.7373 186.959 91.4278 189.105 88.6898 190.655C85.9518 192.086 84.2852 193.636 84.2852 194.709C84.2852 195.901 86.0708 196.498 88.5708 196.378C91.0707 196.259 92.4992 193.398 94.2849 192.682C96.0705 191.967 98.0943 191.848 98.6895 190.894C99.2847 190.059 98.6895 186.482 98.6895 186.482L92.7373 186.959Z" fill="#113C7A"/>
<path d="M111.188 193.398C111.188 193.398 110.95 195.424 109.76 196.378C108.57 197.213 107.736 198.763 105.831 199.478C103.927 200.194 102.736 201.863 102.736 202.817C102.736 203.89 106.784 204.605 109.165 203.651C111.546 202.817 114.046 199.597 114.998 199.121C116.069 198.644 116.784 197.451 116.903 196.736C117.022 196.021 116.426 193.159 116.426 193.159L111.188 193.398Z" fill="#113C7A"/>
<path d="M123.331 122.815C123.331 122.815 122.616 133.188 121.426 139.984C120.236 146.78 118.45 191.967 116.902 193.756C115.355 195.544 113.212 195.306 111.188 193.398C109.164 191.49 107.26 135.692 107.26 135.692L101.188 123.054L123.331 122.815Z" fill="#113C7A"/>
<path d="M94.6409 117.688C94.6409 117.688 91.6648 173.128 92.0219 186.124C92.0219 189.939 97.8551 190.535 99.4027 186.72C100.831 182.905 107.022 128.537 106.426 121.503C105.831 114.349 95.4742 112.68 94.6409 117.688Z" fill="#113C7A"/>
<path d="M114.402 70.1156C114.402 70.1156 125.831 78.3422 127.021 80.9652C128.093 83.7075 128.45 91.2188 126.069 96.3455C123.688 101.472 124.521 119.953 123.688 123.649C122.855 127.225 113.093 128.418 107.022 127.225C100.95 126.033 93.6887 121.622 93.9268 114.587C94.1649 107.553 94.0458 94.3187 93.5697 91.0996C93.2125 87.8804 93.5697 79.8922 95.1172 74.527C95.4744 73.4539 99.2838 72.2617 99.2838 72.2617C99.2838 72.2617 103.093 69.6387 114.402 70.1156Z" fill="#C8F3FF"/>
<path d="M104.521 68.5664C104.521 68.5664 104.521 68.6856 104.521 68.9241C104.402 69.7587 103.926 71.9047 103.926 72.8586C103.807 73.6931 104.878 75.2431 107.14 75.1239C109.402 75.1239 113.33 74.0508 114.64 71.3086C114.521 70.8317 114.759 65.7049 114.997 63.2012L104.521 68.5664Z" fill="#E16B40"/>
<path d="M114.76 69.5205C114.76 69.5205 112.974 75.1242 106.665 75.005C106.546 75.005 106.427 75.005 106.308 75.005L109.522 80.1317C109.522 80.1317 114.284 77.2703 115.831 75.6011C117.379 73.9319 117.26 71.6666 117.26 71.6666L114.76 69.5205Z" fill="white"/>
<path d="M106.189 75.1231L102.856 78.3422C102.856 78.3422 100.356 76.3154 101.904 71.4271L103.928 70.5925C104.047 70.4732 103.69 73.3347 106.189 75.1231Z" fill="white"/>
<path d="M98.6895 51.9928C99.999 44.8392 105.594 40.9047 112.023 42.3354C112.023 42.3354 118.927 43.0508 122.022 49.1313C125.117 55.2119 120.594 60.2195 117.737 63.4386C116.546 64.7501 115.594 65.8231 114.999 66.4193C114.761 66.6577 114.642 66.8962 114.403 67.1346L114.284 67.2539C112.38 69.1615 110.118 70.3538 108.451 70.8307C105.713 71.6653 102.38 71.1884 100.594 69.2807C98.6896 67.3731 97.3801 59.0272 98.6895 51.9928Z" fill="#FF8654"/>
<path d="M117.022 71.667C117.022 71.667 118.688 73.3362 116.426 77.3899C114.165 81.5628 111.665 88.478 111.546 96.347C111.308 104.216 110.355 128.658 111.308 134.023C113.331 135.93 123.212 134.261 126.069 129.254C127.259 121.981 126.664 100.162 128.093 95.6317C129.521 91.101 129.164 82.8743 128.331 80.609C127.379 78.4629 119.403 72.2631 117.022 71.667Z" fill="#58AFFB"/>
<path d="M101.188 71.5469C101.188 71.5469 99.2835 78.5813 99.5216 86.6887C99.5216 94.7962 97.1407 128.418 96.7836 129.134C96.4265 129.849 91.5456 125.557 91.4266 120.668C91.3075 115.78 93.0932 85.3772 93.3313 82.2773C93.5694 79.2966 94.5218 74.1699 95.236 73.5737C95.9503 72.9776 100.355 71.6661 101.188 71.5469Z" fill="#58AFFB"/>
<path d="M103.569 76.674L104.998 79.8931L108.093 77.3893L106.188 75.124L103.569 76.674Z" fill="#58AFFB"/>
<path d="M104.402 77.8666C104.402 77.8666 101.902 105.289 101.902 106.839L103.926 110.296L106.545 107.435L107.021 77.3896L104.402 77.8666Z" fill="#58AFFB"/>
<path d="M120.237 44.9591C120.237 44.9591 118.213 41.1438 113.213 40.19C108.094 39.2362 103.213 43.0515 99.8799 43.1707C96.5467 43.2899 94.761 42.3361 95.4753 45.3168C96.1896 48.2975 96.7848 50.4436 100.951 50.8012C105.118 51.1589 111.308 51.1589 113.689 51.9935C115.951 52.8281 116.189 56.2857 115.118 59.3856C114.046 62.4855 113.808 65.7046 114.284 65.8239C114.76 65.9431 116.903 65.4662 119.046 63.3201C121.189 61.174 126.308 52.7089 124.522 49.9666C122.617 47.1052 120.237 44.9591 120.237 44.9591Z" fill="#113C7A"/>
<path d="M116.903 61.2931C116.903 61.2931 119.046 58.4317 120.474 59.147C122.022 59.8624 118.331 66.1814 116.069 66.0622C114.046 65.8238 116.903 61.2931 116.903 61.2931Z" fill="#FF8654"/>
<path d="M150.83 91.816C150.83 91.816 152.735 89.7892 153.33 89.9084C154.044 90.0276 156.782 91.5776 156.901 94.2006C156.901 95.2736 155.354 96.3467 155.354 96.3467C155.354 96.3467 152.854 96.9428 150.83 91.816Z" fill="#C8F3FF"/>
<path d="M153.092 90.9811C153.092 90.9811 154.044 84.7813 155.354 84.3044C156.544 83.8275 156.782 85.2582 156.782 86.3312C156.782 87.2851 156.544 88.2389 156.544 88.2389C156.544 88.2389 161.306 83.9467 162.377 84.5428C163.33 85.2582 164.758 89.1927 163.449 90.7427C162.258 92.2926 157.02 94.3195 156.068 94.3195C155.116 94.3195 153.211 93.9618 153.092 90.9811Z" fill="#FF8654"/>
<path d="M79.2841 88.2398L79.1651 88.0014L66.0702 84.7822L53.8086 97.778L54.5229 100.163L67.6178 103.262V103.382L67.7368 103.262V103.382V103.262L79.8793 90.3859L79.7603 90.2667L67.6178 103.143L67.0225 101.116L79.2841 88.2398Z" fill="#5C6BC0"/>
<path d="M79.1631 88.2393L67.0205 101.116L67.6157 103.143L79.7583 90.2661L79.1631 88.2393Z" fill="#F2F8FD"/>
<path d="M67.0218 101.117L67.6171 103.143L54.7603 100.043L54.165 98.0166L67.0218 101.117Z" fill="#EAEEEE"/>
<path d="M66.7842 98.3737C66.7842 98.3737 68.4508 95.393 68.3318 93.4854C68.927 92.0546 70.2365 90.5047 71.0698 90.9816C71.9031 91.4585 70.7126 94.3199 71.1888 95.0353C71.665 95.7507 74.6411 95.1545 75.1173 95.7507C75.7125 96.466 74.1649 98.8506 72.8555 99.5659C71.546 100.281 69.8793 101.95 69.8793 101.95L66.7842 98.3737Z" fill="#FF8654"/>
<path d="M7.2622 154.649C7.2622 154.649 10.5954 168.241 10.8335 172.652C11.0716 177.064 9.28595 183.86 10.3574 189.821C11.4288 195.782 11.1907 206.513 11.4288 208.54C11.6668 210.567 11.9049 212.236 13.2144 212.951C14.5239 213.666 15.8334 213.189 17.6191 211.878C19.4047 210.566 24.8808 208.301 25.1189 206.87C25.357 205.321 21.7856 205.321 20.7142 205.559C19.6428 205.797 17.8572 206.394 17.381 205.797C16.9048 205.082 18.4524 193.755 18.9286 185.767C19.4047 177.898 21.3095 162.637 20.9523 155.841C20.4761 149.045 15.0001 146.78 12.143 147.495C9.16691 148.091 7.02411 151.788 7.2622 154.649Z" fill="#FF8654"/>
<path d="M36.7844 89.6709C32.6178 82.9941 23.6895 81.0865 23.6895 81.0865C12.7374 78.8212 9.16606 82.8749 9.16606 82.8749C9.16606 82.8749 5.59473 87.0479 5.59473 92.7708C5.59473 96.7053 9.64224 107.913 9.99937 116.855C9.88033 123.054 8.09466 133.427 7.85657 134.977C7.49944 138.077 16.0706 146.9 35.1178 142.012C37.2606 140.819 38.2129 139.269 38.2129 139.269L38.451 116.139C38.5701 114.828 38.5701 113.516 38.6891 112.086C39.6415 96.9437 36.7844 89.6709 36.7844 89.6709Z" fill="#113C7A"/>
<path d="M9.16643 82.875C9.16643 82.875 1.19045 87.5249 0 108.509C1.0714 112.443 7.14267 114.47 11.7854 111.37C16.5472 108.27 11.6664 86.4518 9.16643 82.875Z" fill="#113C7A"/>
<path d="M15.1181 73.0985C15.1181 73.0985 16.0705 78.5829 15.1181 81.2059C14.9991 82.5174 20.4751 86.6904 25.3559 85.6173C28.213 85.0212 28.094 83.5905 28.094 83.5905C28.094 83.5905 25.7131 79.656 26.0702 75.8407C26.3083 71.9062 18.4514 72.2639 15.1181 73.0985Z" fill="#FF7C40"/>
<path d="M33.5716 61.8914C33.5716 69.1642 27.7385 75.0063 20.4767 75.0063C13.215 75.0063 7.38184 69.1642 7.38184 61.8914C7.38184 54.6185 13.215 48.7764 20.4767 48.7764C27.7385 48.8956 33.5716 54.7377 33.5716 61.8914Z" fill="#FF8654"/>
<path d="M33.57 62.7263C33.57 62.7263 33.9271 75.0067 31.1891 77.7489C28.3321 80.3719 23.6893 76.0798 16.7847 74.4106C9.76111 72.6222 22.4989 59.0303 22.4989 59.0303L33.57 62.7263Z" fill="#FF8654"/>
<path d="M30.5938 83.8296L27.1415 81.922C27.1415 81.922 18.4512 81.0874 15.3561 79.0605L13.6895 81.4451C13.6895 81.4451 15.8323 85.618 21.4273 86.2142C27.0224 86.8103 29.6414 84.545 29.6414 84.545L30.5938 83.8296Z" fill="white"/>
<path d="M24.0467 46.9874C24.0467 46.9874 34.6417 48.895 35.1179 58.4332C34.8798 65.8253 28.8085 67.4945 27.9752 68.2098C27.1419 69.0444 25.3562 65.5868 23.4515 69.0444C21.5468 72.502 24.2848 73.3366 25.3562 74.6481C25.8324 75.9596 23.8086 77.5096 21.6658 77.8672C19.523 78.1057 18.8088 80.4902 15.3565 79.1787C11.9042 77.8672 11.309 74.1712 8.68998 70.4751C6.071 66.7791 4.9996 59.0293 7.85667 53.5449C10.8328 47.822 20.5944 46.5105 24.0467 46.9874Z" fill="#303030"/>
<path d="M14.2851 77.9867C14.2851 77.9867 14.047 77.7483 11.428 83.5904C8.80901 89.4325 7.49952 92.294 10.3566 98.9707C13.2137 105.647 14.047 108.747 14.047 108.747C14.047 108.747 18.8088 104.813 17.4993 95.99C16.1898 87.2864 14.4041 83.4712 15.1184 81.0866C15.8326 78.8213 17.3802 77.9867 14.2851 77.9867Z" fill="#303030"/>
<path d="M38.8084 163.829C38.8084 163.829 37.0228 204.247 36.7847 210.447C36.7847 210.447 38.0942 211.52 40.9512 211.997C43.8083 212.474 46.4273 212.712 47.2606 214.024C48.0939 215.335 42.856 217.72 40.237 217.124C37.618 216.408 33.4514 217.958 31.1896 217.124C29.642 215.335 30.7134 210.805 30.7134 209.374C30.7134 208.063 27.1421 190.417 28.0944 184.575C28.9277 178.613 27.2611 161.087 26.5468 152.86C26.0707 144.753 38.2132 145.23 38.8084 163.829Z" fill="#FF8654"/>
<path d="M9.64282 121.266C9.64282 121.266 25.3567 128.658 38.4516 121.981C38.8087 122.696 38.8087 125.796 38.8087 125.796C38.8087 125.796 41.4277 147.615 38.9278 168.241C38.9278 168.241 31.1899 173.487 19.5235 170.506C7.85715 167.526 8.21428 163.234 8.21428 163.234C8.21428 163.234 2.85728 141.057 5.00008 134.381C7.14288 127.823 8.92855 124.366 8.92855 124.366L9.64282 121.266Z" fill="#5C6BC0"/>
<path d="M32.0231 85.1387C32.0231 85.1387 37.7372 87.7617 40.8324 92.8884C43.9275 97.896 49.1655 108.269 50.2369 109.223C51.3083 110.057 64.2842 98.2537 66.0698 97.2999C67.8555 96.5845 70.9506 99.0883 70.2364 102.307C69.5221 105.646 54.6415 118.165 50.475 119.715C46.3084 121.265 34.404 108.507 30.9517 102.784C27.3803 97.0614 27.0232 86.2117 32.0231 85.1387Z" fill="#113C7A"/>
<path d="M30.5945 212.236C30.5945 212.236 31.904 211.998 33.6897 212.952C35.5944 213.905 38.5705 214.621 40.1181 213.905C41.6657 213.19 41.5466 212.832 41.0705 212.117C41.0705 211.759 43.3323 211.998 44.5227 212.236C45.7132 212.475 47.6179 213.309 47.975 214.144C48.2131 214.859 45.9513 216.886 43.3323 217.363C40.7133 217.84 37.261 217.124 36.4277 217.244C35.5944 217.363 35.2373 218.555 34.404 218.555C33.5707 218.555 32.1421 218.794 31.5469 218.436C31.0707 218.078 30.3564 215.455 30.3564 214.144C30.4755 212.832 30.5945 212.236 30.5945 212.236Z" fill="#5C6BC0"/>
<path d="M11.4281 209.136C11.4281 209.136 14.2852 209.136 16.0709 210.328C17.3804 210.924 19.5232 209.613 19.9993 209.016C20.4755 208.42 21.1898 206.513 19.4041 205.917C18.6898 205.797 18.6898 205.797 18.6898 205.797C18.6898 205.797 20.3565 205.201 21.3088 205.201C22.2612 205.201 24.6421 205.201 25.4754 206.155C25.8325 206.632 24.8802 208.54 23.6897 209.374C22.4993 210.209 18.2137 211.52 17.6184 212.116C16.9042 212.712 16.9042 213.666 16.309 213.905C15.7137 214.143 13.69 214.382 12.7376 213.547C11.7853 212.712 11.3091 210.089 11.4281 209.136Z" fill="#5C6BC0"/>
</svg>
