<svg width="187" height="150" viewBox="0 0 187 150" fill="none" xmlns="http://www.w3.org/2000/svg">
<path d="M116.576 109.663H114.836V132.679H116.576V109.663Z" fill="#3E3577"/>
<path d="M113.968 132.678C113.968 132.678 104.715 137.66 100.365 140.27C96.0146 142.88 95.9355 148.417 95.9355 148.417H99.8901C99.8901 148.417 99.8901 143.355 102.737 141.457C105.585 139.638 115.708 132.678 115.708 132.678H113.968Z" fill="#3E3577"/>
<path d="M117.451 132.678C117.451 132.678 126.705 137.66 131.055 140.27C135.405 142.88 135.484 148.417 135.484 148.417H131.529C131.529 148.417 131.529 143.355 128.682 141.457C125.835 139.638 115.711 132.678 115.711 132.678H117.451Z" fill="#3E3577"/>
<path d="M114.681 132.678C114.681 132.678 109.303 137.66 106.772 140.27C104.241 142.88 104.162 148.417 104.162 148.417H106.456C106.456 148.417 106.456 143.355 108.117 141.457C109.778 139.638 115.63 132.678 115.63 132.678H114.681Z" fill="#27214B"/>
<path d="M116.342 132.678C116.342 132.678 121.72 137.66 124.251 140.27C126.782 142.88 126.861 148.417 126.861 148.417H124.567C124.567 148.417 124.567 143.355 122.906 141.457C121.245 139.638 115.393 132.678 115.393 132.678H116.342Z" fill="#27214B"/>
<path d="M125.199 39.4307C125.199 39.4307 133.899 38.4816 137.616 46.3116C141.334 54.1416 147.266 82.1399 135.402 97.3254C123.538 112.511 100.127 108.477 98.7828 98.9072C97.4382 89.3372 103.054 67.2707 107.641 56.5934C112.228 45.9161 116.499 39.9843 125.199 39.4307Z" fill="#BC9371"/>
<path d="M119.665 99.0658C119.665 99.0658 129.551 95.3485 133.268 85.9367C137.144 76.0503 136.827 61.3393 131.607 55.7239C126.387 50.1084 111.914 67.5875 113.1 82.1403C114.286 96.6931 115.315 98.9867 119.665 99.0658Z" fill="#C1AB8B"/>
<path d="M118.395 107.369H113.096V109.663H118.395V107.369Z" fill="#020D32"/>
<path d="M63.7478 126.465C63.7478 126.465 56.155 137.063 52.7541 141.176C49.4323 145.289 48.6414 147.266 49.195 148.689C49.7487 150.034 53.7032 150.35 57.1041 148.689C60.426 147.029 60.426 142.599 64.6178 140.78C68.7305 139.04 69.2842 130.578 69.2842 130.578C69.2842 130.578 65.3296 128.838 63.7478 126.465Z" fill="#3E3577"/>
<path d="M98.6242 132.792C98.6242 132.792 102.262 135.244 105.505 132.792C105.505 132.792 105.11 111.991 105.505 105.11C105.901 98.2294 104.952 88.343 103.844 85.2585C102.737 82.1739 96.2515 79.9594 91.6642 85.2585C87.0769 90.5576 91.506 107.958 92.6133 112.149C93.7997 116.262 98.6242 132.792 98.6242 132.792Z" fill="#655DB3"/>
<path d="M98.6265 132.793C98.6265 132.793 98.9429 136.273 98.6265 138.567C98.3101 140.781 93.4065 144.894 93.802 148.058C94.1974 151.221 103.451 149.798 106.14 148.532C108.829 147.267 105.507 132.872 105.507 132.872C105.507 132.872 103.372 135.008 98.6265 132.793Z" fill="#3E3577"/>
<path d="M107.406 78.2988C107.406 78.2988 90.4806 80.0388 85.9724 84.1516C81.4642 88.1852 72.3688 110.726 67.7024 118.319C63.036 125.912 62.0078 128.284 62.0078 128.284C62.0078 128.284 64.8551 132.318 70.0751 132.634C70.0751 132.634 77.9051 124.963 81.6224 121.799C90.5597 114.127 94.9097 97.7552 94.9097 97.7552C94.9097 97.7552 111.202 105.032 124.727 99.8907C138.252 94.7498 136.274 81.5416 135.088 78.2988H107.406V78.2988Z" fill="#8379E0"/>
<path d="M186.419 74.0742H3.56055V78.187H186.419V74.0742Z" fill="#3E3577"/>
<path d="M18.9819 78.1064L0 150H3.5591L23.411 78.1064H18.9819Z" fill="#3E3577"/>
<path d="M167.437 78.1064L186.419 150H182.86L163.008 78.1064H167.437Z" fill="#3E3577"/>
<path d="M186.336 74.0742H131.131V78.187H186.336V74.0742Z" fill="#2C2558"/>
<path d="M90.7181 7.32C90.7181 7.32 86.3681 10.4836 87.2381 18.7882C88.1081 27.0928 90.7181 41.4874 103.135 44.651C115.553 47.8147 130.105 55.1701 130.105 55.1701C130.105 55.1701 133.269 51.7692 130.105 41.171C126.942 30.4937 125.281 25.3528 123.304 17.8391C121.326 10.3255 115.79 2.65362 107.485 0.518158C99.0227 -1.69639 92.2208 3.6818 90.7181 7.32Z" fill="#3E3577"/>
<path d="M108.675 37.2158L102.426 40.9331L101.636 43.5431C101.636 43.5431 99.5792 45.9949 95.7037 43.5431C95.7037 43.5431 89.3764 55.0904 86.7664 59.1241C84.1564 63.2368 81.0719 74.0723 87.6364 74.3887C94.6756 74.705 106.223 74.3887 106.223 74.3887C106.223 74.3887 106.777 64.5023 106.223 59.5195C105.669 54.5368 103.296 54.2995 105.116 48.3677C107.014 42.4358 108.675 37.2158 108.675 37.2158Z" fill="#EFC260"/>
<path d="M102.428 45.6006C101.558 47.8151 100.53 50.0297 99.5805 52.2442C98.5523 54.4588 97.6032 56.5943 96.575 58.7297V58.5715C96.575 60.4697 96.4959 62.447 96.2586 64.3452C96.1004 65.2943 96.0214 66.2434 95.7841 67.1925C95.5468 68.1416 95.3095 69.0907 94.9141 69.9607C95.4677 68.1416 95.705 66.2434 95.8632 64.3452C96.0213 62.447 96.1004 60.5488 96.0214 58.6506V58.5715V58.4924C97.0495 56.2779 98.0777 54.1424 99.1059 52.007C100.213 49.8715 101.241 47.736 102.428 45.6006Z" fill="#E2B354"/>
<path d="M100.526 75.6553C100.684 73.7571 100.763 71.938 100.842 70.0398C100.842 68.2207 100.842 66.3225 100.605 64.5034C100.367 62.6843 99.8138 60.8652 99.2602 59.1252C99.0229 58.2552 98.7066 57.3061 98.5484 56.357C98.4693 55.408 98.5484 54.4589 98.6275 53.5098C98.6275 54.4589 98.6275 55.408 98.7857 56.278C98.9438 57.148 99.3393 58.018 99.6556 58.888C100.288 60.628 100.842 62.4471 101.158 64.3453C101.396 66.2434 101.396 68.1416 101.237 69.9607C101.079 71.938 100.921 73.8362 100.526 75.6553Z" fill="#E2B354"/>
<path d="M119.43 35.1602H117.215L108.674 37.2165C108.674 37.2165 107.013 42.4365 105.114 48.3684C103.295 54.3002 105.668 54.5375 106.222 59.5202C106.775 64.503 106.222 74.3894 106.222 74.3894L117.848 73.9939C117.848 73.9939 117.057 60.232 116.345 51.532C115.555 42.832 119.43 35.1602 119.43 35.1602Z" fill="#F7F7FB"/>
<path d="M119.431 35.1602C119.431 35.1602 127.261 35.7138 129.476 40.1429C131.691 44.572 137.069 66.3221 136.515 69.8812C135.962 73.4403 125.838 73.6775 117.771 73.9939C109.703 74.3103 106.144 74.3894 106.144 74.3894C106.144 74.3894 103.692 70.5139 104.325 67.9039C104.325 67.9039 113.421 66.9548 117.217 65.8475C117.217 65.8475 116.11 56.9102 116.189 51.532C116.347 46.1538 116.663 41.3293 119.431 35.1602Z" fill="#EFC260"/>
<path d="M122.831 49.3164C123.069 50.5028 123.306 51.6891 123.543 52.7964C123.78 53.9828 124.018 55.1691 124.176 56.2764C124.571 58.6492 124.967 60.9428 125.283 63.3155L125.362 63.6319H125.046C124.413 63.6319 123.701 63.7901 123.069 63.8692C122.436 64.0274 121.724 64.1855 121.091 64.3437C120.459 64.5019 119.826 64.7392 119.193 64.9764C118.56 65.2137 117.928 65.451 117.295 65.7674C118.481 65.0555 119.668 64.4228 120.933 64.0274C121.566 63.7901 122.199 63.5528 122.91 63.3946C123.622 63.2364 124.255 63.1574 124.967 63.0783L124.729 63.3946C124.334 61.0219 123.939 58.7282 123.622 56.3555C123.464 55.1691 123.306 53.9828 123.148 52.7964C123.069 51.6891 122.91 50.5028 122.831 49.3164Z" fill="#E2B354"/>
<path d="M132.085 64.5813C130.899 64.4232 129.712 64.1859 128.526 63.9486C127.972 63.8695 127.34 63.7113 126.786 63.6323C126.232 63.5532 125.6 63.4741 124.967 63.395C126.153 62.9995 127.419 63.0786 128.605 63.3159C129.87 63.6323 131.057 64.0277 132.085 64.5813Z" fill="#E2B354"/>
<path d="M96.258 43.7011C96.258 43.7011 96.9698 41.1702 95.5462 40.3793C94.2016 39.5883 92.1453 38.1647 90.8007 34.6847C89.4562 31.2047 90.8007 30.7301 90.8007 30.7301C90.8007 30.7301 89.8516 28.041 91.2753 27.171C92.6989 26.301 97.6816 32.9447 99.0262 34.2101C100.371 35.5547 102.427 37.3738 102.427 39.4302C102.427 41.4865 101.715 43.7011 101.715 43.7011C101.715 43.7011 99.6589 45.7575 96.258 43.7011Z" fill="#FFC7AE"/>
<path d="M91.1952 9.69238C91.1952 9.69238 89.5343 14.0424 89.8506 17.6806C90.167 21.3188 94.6752 32.8661 97.0479 34.0525C99.4206 35.2388 107.251 33.0243 107.251 33.0243L108.753 37.2161C108.753 37.2161 108.279 42.0407 111.126 41.0125C113.973 39.9843 114.764 38.6397 116.425 35.3179C116.425 35.3179 112.233 32.9452 112.392 27.0133C112.392 27.0133 115.081 24.0079 113.262 20.2115C111.442 16.4151 107.567 18.2342 108.121 21.0815C108.042 21.0024 99.737 19.3415 91.1952 9.69238Z" fill="#FFC7AE"/>
<path d="M104.483 67.9029C104.483 67.9029 100.37 67.4284 97.6019 67.1911C94.8337 66.9538 87.6364 72.4111 87.7155 74.4675C87.7155 74.4675 88.2691 74.7838 90.9582 74.7838C93.6473 74.7838 106.381 74.4675 106.381 74.4675C106.381 74.4675 104.008 72.0157 104.483 67.9029Z" fill="#FFC7AE"/>
<path d="M107.254 33.0252L110.497 31.3643L107.887 34.6861L107.254 33.0252Z" fill="#FFAE85"/>
<path d="M83.0464 71.6211H27.2871V73.9938H83.0464V71.6211Z" fill="#655DB2"/>
<path d="M18.0312 40.4609L27.2849 74.0747H62.2432L53.3059 40.4609H18.0312Z" fill="#655DB2"/>
<path d="M26.0215 69.2491L45.3197 40.46H47.6924L26.496 71.1473L26.0215 69.2491Z" fill="#8379E0"/>
<path d="M27.2871 74.0737L50.1444 40.46H51.8054L29.1853 74.0737H27.2871Z" fill="#8379E0"/>
<path d="M154.467 59.4404L155.811 74.1514H163.879L165.223 59.4404H154.467Z" fill="#E3E2E9"/>
<path d="M166.486 57.1475H153.119V59.362H166.486V57.1475Z" fill="#E3E2E9"/>
<path d="M163.242 55.0127H156.045V57.1482H163.242V55.0127Z" fill="#E3E2E9"/>
<path d="M165.219 63.3955H154.305V68.9319H165.219V63.3955Z" fill="#E2B354"/>
</svg>
