<svg width="117" height="151" viewBox="0 0 117 151" fill="none" xmlns="http://www.w3.org/2000/svg">
<path d="M22.7981 128.796L22.2654 133.235C22.2654 133.235 25.639 134.034 27.5921 134.922C28.3023 135.277 28.6574 136.076 28.5686 136.875L18.8031 136.964C18.8031 136.964 17.2939 136.52 17.3827 135.81C17.4715 135.099 18.3592 133.146 18.3592 133.146L18.7143 128.086L22.7981 128.796Z" fill="#3E3577"/>
<path d="M18.3666 133.055L18.7218 127.995L22.8943 128.705L22.3616 133.144C22.3616 133.144 25.7352 133.943 27.6883 134.831C27.6883 134.831 27.6883 134.831 27.7771 134.831C27.3332 135.275 26.623 135.719 25.2913 135.719C22.9831 135.63 18.5442 134.565 17.834 134.387C18.0115 133.766 18.3666 133.055 18.3666 133.055Z" fill="#EEBCC5"/>
<path d="M15.8679 127.819C15.8679 127.819 16.6669 128.351 16.4894 129.062C16.3118 129.683 15.424 130.393 14.5362 131.192C12.4944 132.968 9.20959 134.477 8.41059 134.122C7.07893 133.5 7.96671 131.192 8.05549 130.659C8.14426 130.127 14.625 126.398 15.8679 127.819Z" fill="#3E3577"/>
<path d="M12.1437 124.359L11.7886 128.531C11.7886 128.531 14.008 127.821 14.1856 128.176C14.3632 128.443 14.4519 129.33 12.5876 130.573C10.812 131.816 8.41503 132.349 8.1487 131.816C7.88237 131.284 8.05994 123.915 8.05994 123.915L12.1437 124.359Z" fill="#EEBCC5"/>
<path d="M11.6198 67.2734C8.06874 67.2734 3.71862 64.4325 1.67673 52.0924L1.58795 51.8261C1.32162 50.4056 2.12063 48.9852 3.54107 48.6301C4.96151 48.275 6.38196 49.1627 6.73707 50.5832C6.73707 50.672 6.82583 50.8495 6.82583 51.2046C8.06872 58.8395 10.2882 62.1243 11.7086 61.9467C15.7036 61.4141 19.1659 56.7088 20.1425 54.9333C20.8527 53.6904 22.5395 53.2465 23.7824 53.9567C25.0253 54.6669 25.4692 56.2649 24.7589 57.5966C24.5814 57.9517 19.7874 66.208 12.4188 67.1846C12.2413 67.2734 11.8862 67.2734 11.6198 67.2734Z" fill="#CFCCDF"/>
<path d="M12.2375 125.067L14.0131 101.985L14.5457 81.4776C14.2794 79.2581 12.1487 77.6601 9.92927 77.9265C7.70983 78.1928 5.22406 83.697 5.49039 85.9165L7.35473 101.896L7.97618 124.712C7.70985 127.021 12.0599 127.109 12.2375 125.067Z" fill="#3E3577"/>
<path d="M22.9791 130.038L25.3761 105.447L25.4648 87.3361C25.1097 85.1167 20.2269 79.6125 18.0075 79.9676C15.7881 80.3227 15.7881 82.986 16.232 85.2055L18.4514 105.979L18.3626 129.506L22.9791 130.038Z" fill="#3E3577"/>
<path d="M25.3662 77.6602C25.6325 83.6971 25.3662 89.3789 25.3662 89.3789L10.4515 87.1594L5.65749 86.1829C5.65749 86.1829 5.21362 77.2164 5.83506 75.8847C9.03106 75.2632 12.3158 74.7306 15.5118 74.1091C18.3527 73.4877 23.413 75.352 25.3662 77.6602Z" fill="#3E3577"/>
<path d="M21.7333 38.8649C22.7099 42.8599 20.4016 46.8549 16.4067 47.8315C12.4117 48.808 8.41665 46.4998 7.4401 42.5048C6.46354 38.5098 8.77176 34.5148 12.7668 33.5383C16.673 32.4729 20.668 34.8699 21.7333 38.8649Z" fill="#EEBCC5"/>
<path d="M4.59669 57.8613C4.59669 57.8613 1.13438 50.4927 4.50794 48.0957C7.08249 47.8294 10.2785 48.7172 10.2785 48.7172C10.2785 48.7172 18.9787 52.8897 23.5064 54.9316C27.0575 56.5296 24.039 65.1411 24.2166 72.3321C24.2166 73.8413 25.5482 74.9954 25.5482 76.5934C25.5482 78.1914 25.5482 80.2333 25.5482 80.2333C25.5482 80.2333 15.1613 82.0088 11.6102 80.766C8.05904 79.6118 4.86305 78.0138 5.39571 76.2383C5.92838 74.5515 8.14782 68.0707 7.08248 65.8513C6.01715 63.7206 4.59669 57.8613 4.59669 57.8613Z" fill="white"/>
<path d="M27.155 52.7122C27.155 54.1327 26.0009 55.2868 24.5804 55.2868C23.16 55.2868 22.0059 54.1327 22.0059 52.7122C22.0059 51.2918 23.16 50.1377 24.5804 50.1377C26.0009 50.1377 27.155 51.2918 27.155 52.7122Z" fill="#EEBCC5"/>
<path d="M11.4373 42.8594L10.2832 50.7606L16.0538 52.3586L17.4742 45.2564L11.4373 42.8594Z" fill="#EEBCC5"/>
<path d="M44.4604 44.2789L32.653 37.5318C32.4754 37.443 32.1203 37.3542 31.9428 37.443C31.5876 37.5318 31.3213 37.6206 31.3213 37.8869V48.8953L32.3866 49.5168C32.0315 49.6943 21.6445 54.7547 21.6445 54.7547V55.1986C21.6445 55.3761 21.7333 55.5537 21.9109 55.6424C23.6864 56.7078 34.0734 62.6559 34.0734 62.6559C34.4285 62.8334 34.8724 62.8334 35.1388 62.6559L44.9931 56.9741C45.0818 56.8853 45.1706 56.7966 45.1706 56.7078V45.3442C44.9931 44.9003 44.8155 44.4565 44.4604 44.2789Z" fill="#3E3577"/>
<path d="M44.6398 56.6189L31.2344 48.984V37.9755C31.2344 37.6204 31.5895 37.4429 31.8558 37.6204L44.2847 44.7227C44.551 44.9002 44.7286 45.1665 44.7286 45.4329L44.6398 56.6189Z" fill="#A194EF"/>
<path d="M31.7656 38.2402L44.017 45.2537L44.1057 55.6407L31.7656 48.5385V38.2402Z" fill="#FFF9FF"/>
<path d="M44.6337 56.6202L31.2282 48.8965L21.729 54.4007C21.4627 54.5783 21.4627 54.9334 21.729 55.1109L34.0691 62.3019C34.3355 62.4795 34.6906 62.4795 34.9569 62.3019L44.6337 56.6202Z" fill="#A194EF"/>
<path d="M33.7095 58.0374L29.093 55.374L26.4297 56.972L31.0461 59.6353L33.7095 58.0374Z" fill="#FFF9FF"/>
<path d="M28.659 73.3076C25.0191 73.3076 20.7578 70.4667 18.7159 58.1266L18.6271 57.8602C18.272 56.4398 19.1598 55.0194 20.5802 54.6642C22.0007 54.3091 23.4211 55.1969 23.7762 56.6174C23.7762 56.7061 23.865 56.8837 23.865 57.2388C25.1079 64.8737 27.3273 68.1585 28.7478 67.9809C33.453 67.3595 37.1817 61.0562 37.1817 61.0562C37.8919 59.8134 39.4899 59.2807 40.8216 60.0797C42.0644 60.7899 42.5971 62.3879 41.7981 63.7196C41.6206 64.0747 36.8265 72.331 29.458 73.3076C29.2804 73.3076 29.0141 73.3076 28.659 73.3076Z" fill="#CFCCDF"/>
<path d="M41.6257 59.3734C41.6257 60.7938 40.4716 61.9479 39.0511 61.9479C37.6307 61.9479 36.4766 60.7938 36.4766 59.3734C36.4766 57.9529 37.6307 56.7988 39.0511 56.7988C40.4716 56.7988 41.6257 57.9529 41.6257 59.3734Z" fill="#EEBCC5"/>
<path d="M17.3868 52.0914C14.1908 50.5822 11.1724 49.1618 10.3734 48.8066C9.39682 49.3393 8.77539 50.1383 8.77539 51.0261C8.77539 52.6241 10.7285 53.9557 13.2143 53.9557C15.1674 53.867 16.7654 53.1567 17.3868 52.0914Z" fill="#EEBCC5"/>
<path d="M19.6044 37.7116C20.581 41.7066 18.2727 45.7016 14.2777 46.6781C10.2827 47.6547 6.28775 45.3465 5.31119 41.3515C4.33464 37.3565 6.64286 33.3615 10.6379 32.3849C14.6329 31.3196 18.6279 33.7166 19.6044 37.7116Z" fill="#3E3577"/>
<path d="M10.3716 32.8292C11.0818 35.6701 9.39501 38.5109 6.55412 39.2212C3.71324 39.9314 0.872341 38.2446 0.16212 35.4037C-0.548102 32.5628 1.13869 29.722 3.97958 29.0117C6.73169 28.3015 9.57256 29.9883 10.3716 32.8292Z" fill="#3E3577"/>
<path d="M21.1115 41.5276C21.4666 42.7705 20.6676 44.0134 19.4247 44.2797C18.1819 44.6348 16.939 43.8358 16.6726 42.5929C16.3175 41.35 17.1165 40.1071 18.3594 39.8408C19.5135 39.5745 20.7564 40.2847 21.1115 41.5276Z" fill="#EEBCC5"/>
<path d="M60.8887 105.254C61.4214 105.254 61.599 105.875 61.6877 106.408C61.7765 107.029 61.7765 107.74 61.7765 108.361C61.7765 108.627 61.7765 108.983 61.599 109.249C61.4214 109.693 60.9775 109.959 60.5336 110.048C60.0897 110.225 59.6458 110.225 59.202 110.225C56.6274 110.492 54.0529 111.468 51.3895 111.202C50.9456 111.202 50.5905 111.113 50.2354 110.847C49.8803 110.669 49.614 110.225 49.7028 109.782C49.7915 109.338 50.2354 109.071 50.6793 108.805C52.5436 107.74 54.3192 107.385 56.3611 106.497C56.5386 106.408 57.604 105.52 57.7815 105.52C58.0479 105.52 57.6927 105.875 57.6927 106.142C58.1366 106.408 58.7581 106.497 59.202 106.319C59.7346 106.23 60.1785 105.875 60.4449 105.431C60.5336 105.52 60.6224 105.254 60.8887 105.254Z" fill="#3E3577"/>
<path d="M72.605 111.38C72.7826 111.38 73.0489 111.469 73.1377 111.647C73.2265 111.824 73.3153 112.002 73.3153 112.268C73.404 112.978 73.4928 113.688 73.4928 114.31C73.4928 114.754 73.2265 115.109 72.8714 115.287C72.2499 115.642 71.8948 116.263 71.4509 116.884C70.0305 118.66 67.9886 119.903 65.7692 120.347C65.1477 120.436 64.5263 120.08 64.4375 119.459C64.4375 119.193 64.4375 119.015 64.4375 118.749C64.5263 118.127 64.8814 117.595 65.1477 117.062C65.6804 116.263 68.8764 114.132 69.409 113.6C70.208 112.712 70.2968 111.469 71.3622 111.203C71.806 111.025 72.3387 111.114 72.605 111.38Z" fill="#3E3577"/>
<path d="M57.6914 103.124V107.474L57.8689 107.563C58.9343 108.184 60.3547 108.007 61.1537 107.03L61.3313 103.124H57.6914Z" fill="#A194EF"/>
<path d="M72.8762 112.712L72.965 108.806H70.2129L70.3016 112.623C70.3016 112.623 70.8343 114.399 72.8762 112.712Z" fill="#A194EF"/>
<path d="M48.0132 42.9322C45.2611 42.9322 40.9997 40.4465 36.0282 28.5503C35.4067 26.9523 36.117 25.1767 37.715 24.4665C39.313 23.7563 41.0885 24.5553 41.7987 26.1533C43.6631 30.5922 46.3264 35.1198 47.8356 36.4515C49.6999 34.4984 53.4286 27.3961 56.1807 20.1164C56.8022 18.5184 58.5777 17.7194 60.1757 18.3408C61.7737 18.9623 62.5727 20.7378 61.9513 22.3358C53.9613 42.9322 49.5224 42.9322 48.0132 42.9322Z" fill="#3E3577"/>
<path d="M71.1861 110.313C69.3218 110.313 67.7238 108.804 67.635 106.94C67.635 106.141 66.6585 86.2546 66.836 79.7738C67.1024 72.5828 67.3687 58.9111 67.3687 58.8223C67.3687 56.8692 69.0555 55.2712 71.0086 55.36C72.9617 55.36 74.5597 57.0468 74.4709 58.9999C74.4709 59.1774 74.2046 72.7604 73.9382 80.0402C73.7607 86.2546 74.6485 106.407 74.7372 106.585C74.826 108.538 73.3168 110.225 71.3637 110.313C71.2749 110.313 71.2749 110.313 71.1861 110.313Z" fill="#8379E0"/>
<path d="M59.377 104.454C57.6014 104.454 56.0922 103.123 55.8259 101.347C55.7371 100.459 52.985 80.4842 53.1625 73.9147C53.4289 66.4574 55.4708 53.0519 55.5595 52.5193C55.8259 50.5661 57.6902 49.2345 59.6433 49.5896C61.5964 49.8559 62.9281 51.7203 62.573 53.6734C62.573 53.8509 60.4423 67.2564 60.2647 74.2698C60.0872 79.2413 62.0403 94.955 62.8393 100.548C63.1056 102.501 61.774 104.277 59.8209 104.543C59.7321 104.454 59.5545 104.454 59.377 104.454Z" fill="#8379E0"/>
<path d="M75.6282 49.2362L74.119 64.062L54.8542 59.6231L54.5879 47.1055C54.6767 47.1055 73.32 47.5494 75.6282 49.2362Z" fill="#8379E0"/>
<path d="M66.0411 18.7826C66.0411 18.7826 68.6156 19.4929 68.7932 20.1143C69.0595 20.7358 67.1064 23.3991 65.1533 24.9083C63.1114 26.4175 60.8032 40.4444 60.8032 40.4444C60.8032 40.4444 59.5603 24.0205 59.6491 20.1143C59.7378 16.2081 66.0411 18.7826 66.0411 18.7826Z" fill="#F7F7FB"/>
<path d="M60.2634 18.9596C60.2634 18.9596 55.9132 19.4035 55.7357 23.9312C55.5581 27.7486 54.7591 44.8827 54.4928 50.4757C54.404 51.6298 55.0255 52.6951 55.9133 53.3165C58.4878 55.0033 63.9032 58.2881 67.3656 58.1106C72.1596 57.933 75.6219 56.335 75.6219 56.335C75.6219 56.335 76.0658 26.0618 75.0005 24.5526C73.9351 23.0434 66.3002 17.6279 64.6135 17.6279C62.8379 17.6279 60.2634 18.9596 60.2634 18.9596Z" fill="#3E3577"/>
<path d="M55.6496 9.37453C55.3833 13.192 58.313 16.4768 62.1304 16.7431C65.9479 17.0094 69.2326 14.0798 69.499 10.2623C69.7653 6.44487 66.8356 3.1601 63.0182 2.89377C59.2008 2.62744 55.8272 5.55709 55.6496 9.37453Z" fill="#EEBCC5"/>
<path d="M61.068 27.7483L58.7598 19.5808L60.269 18.3379L67.1049 19.5808L68.259 19.9359L61.068 27.7483Z" fill="#F7F7FB"/>
<path d="M59.2012 13.1948L61.5982 20.297C63.0186 21.4511 64.9717 21.7174 66.5697 20.8297C67.0136 20.5633 67.28 20.1194 67.1024 19.5868L65.3269 12.6621L59.2012 13.1948Z" fill="#EEBCC5"/>
<path d="M66.4807 10.3517C66.392 11.5058 67.2797 12.4824 68.4339 12.5711C69.588 12.6599 70.5645 11.7722 70.6533 10.618C70.7421 9.46393 69.8543 8.48738 68.7002 8.3986C67.5461 8.22105 66.5695 9.10881 66.4807 10.3517Z" fill="#EEBCC5"/>
<path d="M68.2556 19.9366C68.2556 19.9366 68.2556 17.0069 67.723 16.7406C67.1903 16.563 66.2138 16.1191 66.2138 16.1191L66.5689 17.7172C66.5689 17.7172 65.1484 19.2264 63.6392 19.4039C62.2188 19.5815 62.2188 19.5815 62.2188 19.5815L61.5973 20.2917L60.9759 18.0723L60.532 16.7406C60.532 16.7406 59.6442 16.6518 59.4667 17.0069C59.3779 17.362 60.8871 22.8663 60.8871 22.8663L62.7514 23.2214L65.326 22.156L68.2556 19.9366Z" fill="#F7F7FB"/>
<path d="M84.2352 35.5656C75.6237 35.5656 70.3859 29.0849 70.2083 28.8185C69.143 27.4869 69.3205 25.5337 70.7409 24.4684C72.0726 23.4031 74.0257 23.5806 75.0911 24.9123C75.1799 25.0011 78.4646 28.9073 83.525 29.2624C84.324 27.1317 84.5903 21.0061 84.1464 15.2355C84.0576 13.5487 85.3005 12.0395 86.9873 11.9508C88.6741 11.862 90.1833 13.1049 90.272 14.7916C90.6272 19.4081 91.0711 30.4165 87.7863 33.9676C86.8985 34.9442 85.7444 35.4769 84.4127 35.4769C84.4127 35.5656 84.3239 35.5656 84.2352 35.5656Z" fill="#3E3577"/>
<path d="M38.1618 29.6158C37.0964 29.6158 36.0311 29.0831 35.4096 28.0178L34.4331 26.2423C33.6341 24.733 34.1668 22.8687 35.5872 21.9809C37.0964 21.1819 38.9607 21.7146 39.8485 23.135L40.8251 24.9106C41.6241 26.4198 41.0914 28.2842 39.671 29.1719C39.2271 29.527 38.6944 29.6158 38.1618 29.6158Z" fill="#EEBCC5"/>
<path d="M69.3172 8.39821C68.8733 8.48698 68.3406 8.57575 68.0743 9.01963C67.8967 9.37474 67.8967 9.72987 67.8967 10.085C67.8967 10.6176 67.9855 11.0615 67.9855 11.5942C67.8967 11.683 67.7192 11.683 67.5416 11.5942C67.3641 11.5054 67.2753 11.4166 67.1865 11.2391C66.7426 10.5289 66.6539 9.72987 66.6539 8.8421C66.6539 8.39821 66.3875 8.04308 66.4763 7.68797C66.5651 7.24408 66.7426 6.88898 66.9202 6.53387C63.813 7.24409 60.5282 7.33287 57.3322 6.71142C56.9771 6.62265 56.622 6.53387 56.3556 6.26753C56.1781 6.08998 56.0893 5.91243 56.0005 5.64609C55.7342 5.02465 55.7342 2.36131 56.0005 1.73987C56.2669 1.02965 56.9771 0.408205 57.7761 0.230649C58.5751 -0.0356838 59.3741 -0.035681 60.1731 0.0530966C60.7057 0.141874 65.4997 1.47354 68.9621 2.45009C70.7376 2.98276 71.5366 5.11342 70.4713 6.62264C70.0274 7.51042 69.5835 8.13187 69.3172 8.39821Z" fill="#E2B354"/>
<path d="M85.5655 10.3474C85.0328 10.3474 84.6777 9.99224 84.6777 9.45958V7.06258C84.6777 6.52992 85.0328 6.1748 85.5655 6.1748C86.0982 6.1748 86.4533 6.52992 86.4533 7.06258V9.45958C86.4533 9.99224 86.0094 10.3474 85.5655 10.3474Z" fill="#EEBCC5"/>
<path d="M87.3435 17.4522C85.6568 17.4522 84.2363 16.0318 84.2363 14.345V11.948C84.2363 10.2613 85.6568 8.84082 87.3435 8.84082C89.0303 8.84082 90.4508 10.2613 90.4508 11.948V14.345C90.4508 16.0318 89.1191 17.4522 87.3435 17.4522Z" fill="#EEBCC5"/>
<path d="M95.7711 56.4396C100.282 56.4396 103.939 52.7829 103.939 48.272C103.939 43.7612 100.282 40.1045 95.7711 40.1045C91.2603 40.1045 87.6035 43.7612 87.6035 48.272C87.6035 52.7829 91.2603 56.4396 95.7711 56.4396Z" fill="#EEBCC5"/>
<path d="M112.201 139.448L112.645 142.289C112.645 142.289 112.734 142.999 112.29 143.176C111.935 143.354 111.136 143.798 110.159 143.62C109.183 143.443 106.963 142.377 106.963 142.377C106.963 142.377 106.342 141.49 106.253 141.578C106.164 141.578 105.454 141.578 105.454 141.578C105.454 141.578 101.37 139.714 100.66 138.826C100.039 137.939 100.927 136.784 100.927 136.784C100.927 136.784 102.081 135.719 105.809 137.317C109.538 139.004 112.201 139.448 112.201 139.448Z" fill="#3E3577"/>
<path d="M99.1545 146.196L99.5984 149.037C99.5984 149.037 99.6871 149.747 99.2432 149.924C98.8881 150.102 98.0891 150.546 97.1126 150.368C96.136 150.191 93.9166 149.125 93.9166 149.125C93.9166 149.125 93.2952 148.238 93.2064 148.326C93.1176 148.326 92.4074 148.326 92.4074 148.326C92.4074 148.326 88.3236 146.462 87.6134 145.574C86.9919 144.687 87.8797 143.532 87.8797 143.532C87.8797 143.532 89.0338 142.467 92.7625 144.065C96.4911 145.752 99.1545 146.196 99.1545 146.196Z" fill="#3E3577"/>
<path d="M99.952 50.6689L101.639 58.5702C101.017 60.4345 99.2418 61.6774 97.2887 61.7662C96.756 61.7662 96.2233 61.411 96.1346 60.8784L94.0039 53.5098L99.952 50.6689Z" fill="#EEBCC5"/>
<path d="M101.631 58.6582L104.117 58.3919C104.117 58.3919 107.135 58.1256 108.112 59.1909C109.177 60.2562 115.303 69.3115 116.368 74.1943C117.433 79.1659 108.378 81.3853 108.378 81.3853L104.205 79.6985L101.631 58.6582Z" fill="#E2B354"/>
<path d="M100.566 96.9233C100.743 96.8345 100.921 96.8345 101.098 96.7457C101.631 96.5682 102.075 96.3906 102.519 96.2131C103.051 96.0355 103.584 95.7691 104.028 95.5028C104.56 95.2365 108.467 93.7273 108.911 93.4609C108.911 93.4609 108.822 106.778 109.798 118.674C110.509 127.019 112.195 134.299 112.462 137.228C112.55 138.471 112.551 141.49 112.373 141.667C112.195 141.667 110.509 141.845 109.798 141.845C108.023 141.578 105.892 140.602 104.916 139.004L104.827 138.649L100.654 119.384L99.0563 103.67C98.9675 103.404 100.566 99.7641 100.566 96.9233Z" fill="#8379E0"/>
<path d="M69.7601 70.0227C69.4938 70.3778 69.2274 70.8217 69.1387 71.1768C69.405 71.4431 69.5826 71.6207 69.7601 71.9758H69.8489C70.6479 70.3778 72.4234 69.0461 73.8439 68.5135C74.0214 68.4247 74.199 68.4247 74.2878 68.3359C74.2878 68.3359 74.2878 68.3359 74.3766 68.3359C74.1102 68.1584 73.8439 67.8032 73.5776 67.5369C73.4888 67.4481 73.4888 67.4482 73.4 67.3594C73.0449 67.4482 72.7786 67.5369 72.4235 67.7145C71.4469 68.3359 70.4703 69.1349 69.7601 70.0227Z" fill="white"/>
<path d="M93.9955 97.2788C95.6823 97.4564 97.3691 97.2788 98.9671 96.9237C99.6773 96.7462 100.299 96.5686 100.92 96.391C100.92 99.2319 99.3222 109.53 99.1446 115.212C99.1446 115.478 98.8783 121.249 98.8783 121.515C98.7007 124.178 98.7007 146.639 97.9017 146.55C96.215 146.284 95.0609 147.261 93.5516 145.574C92.8414 139.182 90.3556 131.725 89.3791 123.735C88.225 113.88 88.5801 103.404 87.6035 94.8818C89.6454 96.3911 91.8649 97.1013 93.9955 97.2788Z" fill="#A194EF"/>
<path d="M93.9955 97.2779C91.8649 97.1004 89.6454 96.3902 87.6035 94.9697C88.0474 99.0535 88.4913 103.581 88.8464 108.198C92.3975 107.665 97.4579 104.646 100.831 102.427C100.92 99.6749 100.92 97.3667 100.92 96.3901C100.299 96.5677 99.6773 96.7453 98.9671 96.9228C97.3691 97.2779 95.6823 97.4555 93.9955 97.2779Z" fill="#8379E0"/>
<path d="M69.6758 72.5089C70.2972 70.7334 72.2503 69.2242 73.8483 68.6915C74.0259 68.6027 74.2034 68.6027 74.2922 68.5139C74.7361 68.7803 75.18 69.1354 75.5351 69.4905C75.7127 69.668 75.979 69.8456 76.1565 70.0232C76.3341 70.2007 76.6004 70.3783 76.778 70.6446L76.8668 70.7334C78.2872 72.065 79.6189 73.5743 81.0393 74.9059C80.2403 74.1069 85.3007 66.7384 86.0109 65.9394C90.0946 61.0566 98.1734 59.1923 104.122 58.5708C114.065 57.5055 110.425 92.3063 109.359 93.3717C109.182 93.5492 108.738 93.9043 107.939 94.3482C107.229 94.7921 104.21 97.1004 101.813 97.633C97.1969 98.5208 91.7814 98.432 87.6976 95.1472C87.5201 94.9697 87.3425 94.8809 87.165 94.7921C87.165 94.1707 88.3191 80.3214 88.2303 76.2376C87.4313 77.2141 84.9455 81.8306 84.1465 82.9847C83.7026 83.6949 82.9924 84.1388 82.1047 84.2276C81.4832 84.2276 80.9506 84.05 80.4179 83.6949C76.0678 80.1438 73.2269 76.4151 69.6758 72.5089Z" fill="#EFC260"/>
<path d="M69.8521 69.3125C71.1759 69.3125 72.2491 68.2394 72.2491 66.9156C72.2491 65.5917 71.1759 64.5186 69.8521 64.5186C68.5282 64.5186 67.4551 65.5917 67.4551 66.9156C67.4551 68.2394 68.5282 69.3125 69.8521 69.3125Z" fill="#EEBCC5"/>
<path d="M102.699 58.8386L101.722 55.6426L94.6199 58.3059L94.3535 61.058L102.699 58.8386Z" fill="white"/>
<path d="M103.941 48.2721C103.763 43.7444 100.301 40.1045 95.7731 40.1045C94.2639 40.1045 92.8434 40.5484 91.6005 41.2586C91.1566 42.4127 91.0679 43.5668 91.7781 43.9219C90.9791 43.6556 92.6659 50.8466 93.5536 50.7578L94.1751 50.4915C94.4414 49.5149 94.9741 48.272 95.418 50.669C95.418 50.7578 95.5067 51.1129 95.3292 51.4681C94.7077 52.9773 93.9975 55.3743 97.4598 55.3743C97.815 55.3743 104.118 54.9304 103.941 48.2721Z" fill="#3E3577"/>
<path d="M95.7775 51.4695C96.1326 50.2266 95.5111 48.8949 94.1795 48.451C92.9366 48.0959 91.6049 48.7174 91.161 50.0491C90.8059 51.292 91.4274 52.6236 92.759 53.0675C94.0019 53.4226 95.3336 52.7124 95.7775 51.4695Z" fill="#EEBCC5"/>
<path d="M92.4018 48.5397C92.313 49.1611 92.1355 49.7826 92.0467 50.404C91.9579 50.5816 91.9579 50.8479 91.7804 51.0255C91.6028 51.203 91.3365 51.2918 91.1589 51.1142C91.3365 49.9601 91.4253 48.7172 90.6263 47.8295C90.4487 47.6519 90.2711 47.4743 90.0936 47.208C89.7385 46.4978 90.3599 45.5213 89.916 44.811C89.6497 44.4559 89.117 44.3671 88.6731 44.1896C87.1639 43.6569 86.3649 41.7038 86.8976 40.1946C87.4302 38.6854 88.9395 37.62 90.5375 37.5312C90.3599 37.8864 90.4487 38.3303 90.715 38.5966C90.9813 38.8629 91.3365 39.0405 91.6916 39.1292C93.2008 39.5731 94.7988 39.3956 96.3968 39.4844C97.8172 39.5731 99.2377 39.8395 100.658 40.2834C101.28 40.4609 101.901 40.7273 102.167 41.2599C102.434 41.7038 102.434 42.3252 102.7 42.7691C103.144 43.5681 104.032 44.012 104.653 44.7223C105.718 45.9651 105.363 48.007 104.298 49.2499C103.233 50.4928 101.723 51.2918 100.214 52.002C99.7703 52.2683 99.1489 52.4459 98.705 52.1796C98.5274 52.002 98.3499 51.7357 98.2611 51.5581C97.906 50.6703 97.4621 49.7826 97.107 48.8948C96.9295 48.4509 96.6631 47.9182 96.308 47.5631C95.9529 47.208 95.4202 46.8529 94.8876 46.9417C94.5325 46.9417 94.1773 47.1192 93.8222 47.3856C93.4671 47.6519 92.8457 48.2733 92.4018 48.5397Z" fill="#3E3577"/>
</svg>
