<svg width="147" height="151" viewBox="0 0 147 151" fill="none" xmlns="http://www.w3.org/2000/svg">
<path d="M79.1152 78.6608L79.2971 87.8453C79.2971 87.8453 84.1167 91.2099 92.21 90.4824C100.485 89.755 105.396 86.1175 105.396 86.1175C105.123 82.7529 104.577 79.2064 103.577 76.0237C103.577 75.9327 87.7541 74.7505 79.1152 78.6608Z" fill="#3E3577"/>
<path d="M109.937 141.768C109.755 138.313 109.482 131.674 109.209 128.764C109.027 127.037 109.027 114.306 106.208 111.668C106.208 111.668 107.027 87.4795 103.571 77.4766L91.2949 80.5684L98.3879 115.397L105.39 142.95C107.209 142.95 108.3 142.859 109.937 141.768Z" fill="#3E3577"/>
<path d="M112.214 150.316H95.6641C97.6646 146.496 104.939 145.041 104.939 145.041L105.212 143.859L105.394 142.95C106.94 142.04 109.941 141.768 109.941 141.768L112.214 150.316Z" fill="#8379E0"/>
<path d="M109.03 146.041C107.484 144.768 104.938 145.041 104.938 145.041L105.21 143.858C108.484 144.04 109.03 146.041 109.03 146.041Z" fill="#8379E0"/>
<path d="M84.1142 150.408L69.5645 150.499C71.565 146.679 78.8399 145.224 78.8399 145.224L79.1127 144.042L79.4764 142.405C81.0224 141.496 85.5692 141.951 85.5692 141.951L84.1142 150.408Z" fill="#8379E0"/>
<path d="M83.0257 146.224C81.4798 144.951 78.9336 145.224 78.9336 145.224L79.2064 144.042C82.3891 144.224 83.0257 146.224 83.0257 146.224Z" fill="#8379E0"/>
<path d="M85.5652 142.224C86.2017 138.859 86.4745 133.767 86.8383 130.857C87.0201 129.129 89.2935 116.125 87.202 112.943C87.202 112.943 92.2944 87.9353 91.2032 77.3867L79.2906 87.8443L78.8359 114.852L79.5634 142.497C81.2912 142.951 83.6555 142.951 85.5652 142.224Z" fill="#3E3577"/>
<path d="M103.937 77.4753C99.9356 79.294 96.1163 80.8399 92.2061 80.658C89.7508 80.5671 87.8412 80.4761 84.2947 80.4761C82.5669 80.4761 80.93 80.3852 79.1113 79.8396L79.566 34.0989L85.3859 32.4621L93.2064 30.8252L101.663 31.8255L103.937 77.4753Z" fill="#A194EF"/>
<path d="M92.2024 80.5691C89.929 80.751 86.8372 81.0238 84.291 80.3873C84.382 73.3852 84.8366 42.7398 85.3822 32.3732L93.2027 30.7363C93.2027 30.8273 91.1112 65.8375 92.2024 80.5691Z" fill="#A194EF"/>
<path d="M87.8433 37.5586L85.9336 60.7472L88.5707 65.9305L90.6623 60.2925L88.4798 37.5586H87.8433Z" fill="#EEBCC5"/>
<path d="M86.2988 35.5563L88.1175 38.9209L89.9363 35.1016L87.8447 33.5557L86.2988 35.5563Z" fill="#EEBCC5"/>
<path d="M93.2012 30.9221C91.1096 33.1955 88.6544 33.832 85.9263 33.6502L85.3807 31.1949L84.7441 28.0122C84.7441 28.0122 85.3807 26.83 86.5629 25.6478C87.836 24.3747 89.7456 23.0107 91.9281 23.4654L93.2012 30.9221Z" fill="#EEBCC5"/>
<path d="M91.1144 24.5566C91.1144 24.5566 89.7504 29.74 85.4764 31.195L84.8398 28.0122C84.8398 28.0122 85.4764 26.83 86.6586 25.6479L91.1144 24.5566Z" fill="#EEBCC5"/>
<path d="M78.7408 9.45814L76.7402 25.19C76.4674 27.2816 78.0133 29.1912 80.1049 29.2822C84.106 29.464 90.2897 28.7365 93.4724 23.0985C98.383 14.2777 88.0163 4.18386 78.7408 9.45814Z" fill="#EEBCC5"/>
<path d="M77.925 15.8242L75.7425 20.0982C75.4697 20.6438 75.6516 21.1894 76.1972 21.4622L77.1066 21.9169C77.1066 21.9169 78.6525 20.8257 77.925 15.8242Z" fill="#EEBCC5"/>
<path d="M79.1988 10.8234C79.1988 10.8234 75.2885 9.18662 76.016 5.27638C77.3801 -1.99848 90.5657 4.18513 95.5672 7.18601C101.205 10.5506 97.6587 20.0989 95.9309 22.827C95.2035 23.9182 94.2941 24.7366 93.3848 25.1913C92.2935 25.8279 90.7476 24.9185 90.3839 23.7363C90.0201 22.5542 89.5655 21.1901 91.657 18.553C93.2029 16.5524 91.2932 13.5515 89.0198 15.3702C86.7464 17.1889 85.928 16.7343 86.7464 14.279C87.5649 11.6419 83.109 10.005 79.1988 10.8234Z" fill="#3E3577"/>
<path d="M86.5637 15.3691C86.5637 15.3691 84.1994 23.9171 81.6532 22.4621C79.107 21.0072 76.8336 22.1893 76.8336 22.1893C74.4692 30.6464 79.2888 30.7373 81.2894 30.1917C84.654 29.3733 85.1087 24.5537 85.4725 22.0984C85.8362 19.6431 88.2915 15.642 88.2915 15.642L86.5637 15.3691ZM78.1067 26.4633C77.3792 25.8268 77.2883 24.5537 77.3792 23.8262C77.3792 23.5534 77.5611 23.3715 77.7429 23.3715C78.3795 23.2806 79.6526 23.1896 80.1982 23.6443C80.6529 24.008 79.107 27.3727 78.1067 26.4633Z" fill="#3E3577"/>
<path d="M87.832 33.5598L91.3785 36.106C91.3785 36.106 95.2888 32.3776 94.6522 30.468C94.0157 28.6493 92.9244 29.1949 92.9244 29.1949C92.9244 29.1949 90.8329 32.4686 87.832 33.5598Z" fill="white"/>
<path d="M85.385 30.9189C85.385 30.9189 83.7481 32.4649 83.6572 33.738C83.5662 35.0111 85.6578 36.3751 85.6578 36.3751L87.8402 33.647C87.2946 33.738 86.6581 33.738 85.9306 33.647L85.385 30.9189Z" fill="white"/>
<path d="M79.5585 34.1016C79.5585 34.1016 72.5564 48.0147 69.6465 56.8355L76.1029 59.2908C76.1029 59.2908 84.9237 47.651 83.5597 38.6484C83.4687 38.7393 84.2871 36.375 79.5585 34.1016Z" fill="#8379E0"/>
<path d="M76.5652 58.2004C76.5652 58.2004 70.4725 55.7451 69.1994 56.9273C69.1994 56.9273 65.0164 61.565 61.6518 64.5659C59.4693 66.5665 57.6506 68.0215 56.4684 68.9308C55.65 69.5674 55.1953 69.8402 55.1953 69.8402L57.2868 73.8413C57.2868 73.8413 57.7415 73.5685 58.469 73.1138C62.5611 70.4767 75.474 62.2016 76.5652 58.2004Z" fill="#8379E0"/>
<path d="M58.469 73.0239L56.4684 68.8408C55.65 69.4774 55.1953 69.7502 55.1953 69.7502L57.2868 73.7513C57.2868 73.8423 57.7415 73.5695 58.469 73.0239Z" fill="white"/>
<path d="M55.1916 69.839C55.1916 69.839 53.4638 69.4752 52.0998 69.2934C50.7358 69.1115 49.9173 69.3843 49.3717 69.5662C48.8261 69.839 49.6445 70.7484 50.8267 70.7484C52.0088 70.6574 48.2805 71.9305 47.7349 72.7489C46.098 75.2042 48.1896 77.5685 49.8264 77.4776C52.0089 77.3867 57.3741 73.8402 57.3741 73.8402L55.1916 69.839Z" fill="#EEBCC5"/>
<path d="M141.949 81.0269L146.223 100.305C146.496 101.397 145.768 102.488 144.677 102.67L113.395 109.581C112.304 109.854 111.213 109.126 111.031 108.035L106.757 88.7565C106.484 87.6653 107.211 86.574 108.303 86.3922L139.585 79.481C140.585 79.2992 141.676 79.9357 141.949 81.0269Z" fill="#8379E0"/>
<path d="M117.211 84.4823L116.938 83.482C116.665 82.118 117.484 80.754 118.848 80.4811L127.123 78.6624C128.487 78.3896 129.851 79.208 130.124 80.5721L130.396 81.5724L131.942 81.2086L131.67 80.2083C131.215 77.935 128.941 76.5709 126.668 77.0256L118.393 78.8443C116.12 79.299 114.755 81.5724 115.21 83.8458L115.483 84.8461L117.211 84.4823Z" fill="#3E3577"/>
<path d="M143.856 90.0293L146.13 100.396C146.402 101.487 145.675 102.578 144.584 102.76L113.302 109.671C112.211 109.944 111.119 109.217 110.937 108.126L108.664 97.7588L143.856 90.0293Z" fill="#3E3577"/>
<path d="M118.939 97.304L118.03 97.4859C117.575 97.5768 117.121 97.304 117.03 96.8493L116.666 95.0306C116.575 94.576 116.848 94.1213 117.302 94.0303L118.212 93.8485C118.666 93.7575 119.121 94.0303 119.212 94.485L119.576 96.3037C119.667 96.7584 119.394 97.2131 118.939 97.304Z" fill="#EFC260"/>
<path d="M135.308 93.6673L134.399 93.8492C133.944 93.9401 133.49 93.6673 133.399 93.2126L133.035 91.3939C132.944 90.9392 133.217 90.4846 133.672 90.3936L134.581 90.2118C135.036 90.1208 135.49 90.3936 135.581 90.8483L135.945 92.667C136.036 93.1217 135.763 93.5764 135.308 93.6673Z" fill="#EFC260"/>
<path d="M101.663 31.8291C101.663 31.8291 114.849 40.468 118.122 49.2888C118.122 49.2888 115.849 52.6534 112.757 53.1081C112.757 53.1081 103.936 46.0151 102.208 41.2864C102.118 41.3774 100.026 36.4668 101.663 31.8291Z" fill="#8379E0"/>
<path d="M112.67 53.2001C112.67 53.2001 113.125 57.1104 115.216 61.93C116.853 65.7493 120.036 74.5701 120.036 74.5701L123.491 73.5698C123.491 73.5698 121.764 54.2914 118.126 49.3809C118.126 49.3809 114.58 49.5627 112.67 53.2001Z" fill="#8379E0"/>
<path d="M120.033 74.5697C120.033 74.5697 117.85 76.0247 118.123 77.5706C118.487 79.1165 119.214 79.2984 120.033 80.0259C120.033 80.0259 120.215 82.5721 122.761 82.2993C125.307 82.0265 126.398 80.8443 126.398 79.5712C126.398 76.0247 123.398 73.4785 123.398 73.4785L120.033 74.5697Z" fill="#EEBCC5"/>
<path d="M32.6486 34.1006C32.6486 34.1006 34.3764 49.5597 34.1036 58.9261H27.1925C27.1925 58.9261 22.9185 45.0129 27.3744 37.0105C27.3744 37.1015 27.4653 34.5553 32.6486 34.1006Z" fill="#312A5F"/>
<path d="M27.1002 57.7439C27.1002 57.7439 33.6476 57.562 34.466 59.1079C34.466 59.1079 36.8304 64.9278 38.831 68.8381C40.195 71.3843 41.3771 73.4758 42.1956 74.7489C42.7412 75.5673 43.1049 76.022 43.1049 76.022L39.8313 79.0229C39.8313 79.0229 39.4675 78.5682 38.9219 77.9317C36.012 74.1124 26.7365 61.9269 27.1002 57.7439Z" fill="#312A5F"/>
<path d="M38.9258 77.9308L42.1994 74.748C42.7451 75.5665 43.1088 76.0211 43.1088 76.0211L39.8351 79.022C39.8351 79.022 39.4714 78.6583 38.9258 77.9308Z" fill="white"/>
<path d="M43.1027 76.0234C43.1027 76.0234 44.8305 76.2963 46.2854 76.5691C47.6495 76.8419 48.286 77.3875 48.7407 77.8422C49.1954 78.2968 48.1042 78.8425 47.0129 78.4787C45.9217 78.024 49.0135 80.3884 49.2863 81.3886C50.0138 84.2077 47.1948 85.7536 45.7398 85.117C43.7392 84.2986 39.9199 79.1152 39.9199 79.1152L43.1027 76.0234Z" fill="#EEBCC5"/>
<path d="M33.1027 78.6588L32.9209 87.8434C32.9209 87.8434 28.1012 91.208 20.008 90.4805C11.7328 89.753 6.82227 86.1156 6.82227 86.1156C7.09507 82.751 7.64069 79.2045 8.64098 76.0217C8.64098 75.9308 24.3729 74.7486 33.1027 78.6588Z" fill="#8379E0"/>
<path d="M2.1875 141.768C2.36937 138.313 2.6422 131.674 2.915 128.764C3.09687 127.037 3.09686 114.306 5.91587 111.668C5.91587 111.668 5.09745 87.4795 8.55301 77.4766L20.8293 80.5684L13.7364 115.397L6.73429 142.95C4.91557 142.95 3.91528 142.859 2.1875 141.768Z" fill="#8379E0"/>
<path d="M0 150.317H16.5503C14.5497 146.497 7.27486 145.042 7.27486 145.042L7.00207 143.86L6.82018 142.951C5.27428 142.041 2.27339 141.769 2.27339 141.769L0 150.317Z" fill="#3E3577"/>
<path d="M3.08789 146.042C4.6338 144.769 7.18 145.042 7.18 145.042L6.90721 143.859C3.72445 144.041 3.08789 146.042 3.08789 146.042Z" fill="#3E3577"/>
<path d="M28.0975 150.408L42.6473 150.499C40.6467 146.679 33.3718 145.224 33.3718 145.224L33.099 144.042L32.7353 142.405C31.1894 141.496 26.6426 141.951 26.6426 141.951L28.0975 150.408Z" fill="#3E3577"/>
<path d="M29.1953 146.224C30.7412 144.951 33.2874 145.224 33.2874 145.224L33.0146 144.042C29.7409 144.224 29.1953 146.224 29.1953 146.224Z" fill="#3E3577"/>
<path d="M26.6448 142.223C26.0083 138.858 25.7355 133.766 25.3717 130.856C25.1898 129.128 22.9165 116.124 25.008 112.942C25.008 112.942 19.9156 87.9343 21.0068 77.3857L32.9194 87.7524L33.3741 114.76L32.6466 142.405C30.9188 142.95 28.4636 142.95 26.6448 142.223Z" fill="#8379E0"/>
<path d="M8.18164 77.4762C12.1828 79.295 16.0021 80.8409 19.9124 80.659C22.3676 80.5681 24.2773 80.4771 27.8238 80.4771C29.5516 80.4771 31.1884 80.3862 33.0071 79.8406L32.5525 34.0999L26.7325 32.463L18.9121 30.8262L10.455 31.8265L8.18164 77.4762Z" fill="#3E3577"/>
<path d="M19.9124 80.5701C22.1858 80.752 25.2776 81.0248 27.8238 80.3882C27.7329 73.3862 27.2782 42.7408 26.7326 32.3741L18.9121 30.7373C19.003 30.8282 21.0945 65.8385 19.9124 80.5701Z" fill="#3E3577"/>
<path d="M19 31.2827C21.1825 33.3742 23.7287 33.9198 26.3658 33.647L26.7295 31.1918L27.1842 28.009C27.1842 28.009 26.4568 26.8269 25.2746 25.7356C23.9106 24.4625 22.0009 23.2804 19.8184 23.826L19 31.2827Z" fill="#EEBCC5"/>
<path d="M20.8223 24.8252C20.8223 24.8252 22.4591 29.9176 26.824 31.1907L27.2787 28.0079C27.2787 28.0079 26.5512 26.8258 25.3691 25.7346L20.8223 24.8252Z" fill="#EEBCC5"/>
<path d="M32.3742 9.09141L35.1932 24.6414C35.5569 26.733 34.1019 28.6426 32.0104 28.8245C28.0092 29.1882 21.8256 28.8245 18.3701 23.3683C12.9139 14.9113 22.8259 4.27181 32.3742 9.09141Z" fill="#EEBCC5"/>
<path d="M33.5528 15.3662L35.9171 19.5493C36.1899 20.0039 36.008 20.6405 35.5534 20.9133L34.644 21.4589C34.644 21.4589 33.0071 20.4586 33.5528 15.3662Z" fill="#EEBCC5"/>
<path d="M15.4605 6.82018C10.0044 10.4576 14.0056 20.6424 15.9152 23.2796C16.7336 24.3708 17.643 25.0983 18.5523 25.553C19.6436 26.0986 21.0986 25.1892 21.4623 24.007C21.7351 22.8249 22.1898 21.4609 19.9164 18.9147C18.2795 17.005 20.0073 13.8222 22.3717 15.55C24.736 17.2778 25.5544 16.8231 24.5541 14.2769C23.6447 11.8217 28.0097 9.912 31.9199 10.4576C31.9199 10.4576 35.8302 9.73014 34.7389 5.09241C33.6477 0.454685 27.9187 0 27.9187 0C27.9187 0 30.1012 1.90965 27.8278 3.18275C25.7363 4.36492 19.2798 4.27398 15.4605 6.82018Z" fill="#E2B354"/>
<path d="M24.3746 33.5559L20.8281 36.1021C20.8281 36.1021 16.9179 32.3737 17.5544 30.4641C18.191 28.6454 19.2822 29.191 19.2822 29.191C19.2822 29.191 21.3737 32.4647 24.3746 33.5559Z" fill="white"/>
<path d="M26.8244 30.9199C26.8244 30.9199 28.4612 32.4658 28.5522 33.7389C28.6431 35.012 26.5516 36.3761 26.5516 36.3761L24.3691 33.648C24.9148 33.7389 25.5513 33.7389 26.2788 33.648L26.8244 30.9199Z" fill="white"/>
<path d="M10.4585 31.8262C10.4585 31.8262 22.8257 49.1949 27.0088 57.561L20.9161 60.8347C20.9161 60.8347 11.4587 51.3774 8.09412 42.4657C8.18506 42.5566 6.09354 34.7361 10.4585 31.8262Z" fill="#312A5F"/>
<path d="M20.2793 59.8352C20.2793 59.8352 25.9173 56.6525 27.4632 57.5618C27.4632 57.5618 32.2828 61.563 35.9202 64.1092C38.2846 65.746 40.3761 67.0191 41.6492 67.6557C42.5586 68.1104 43.0132 68.3832 43.0132 68.3832L41.5583 72.5662C41.5583 72.5662 41.1036 72.3844 40.2852 72.0206C35.9203 70.111 22.0071 63.6545 20.2793 59.8352Z" fill="#312A5F"/>
<path d="M40.2852 72.112L41.7401 67.7471C42.6495 68.2017 43.1041 68.4746 43.1041 68.4746L41.6492 72.6576C41.5583 72.6576 41.1036 72.4757 40.2852 72.112Z" fill="white"/>
<path d="M43.1064 68.4738C43.1064 68.4738 44.7433 67.8372 46.1073 67.4735C47.4714 67.1097 48.2898 67.2916 48.8354 67.3825C49.381 67.5644 48.7445 68.6556 47.5623 68.7466C46.3801 68.8375 50.1994 69.565 50.9269 70.2925C52.8366 72.4749 51.1088 75.1121 49.5629 75.294C47.4714 75.4758 41.5605 72.7477 41.5605 72.7477L43.1064 68.4738Z" fill="#EEBCC5"/>
</svg>
