<svg width="121" height="180" viewBox="0 0 121 180" fill="none" xmlns="http://www.w3.org/2000/svg">
<path d="M110.81 106.692C109.846 106.692 108.881 106.264 108.238 105.513C107.167 104.12 107.381 102.084 108.774 101.012C108.774 101.012 114.025 96.7259 113.489 91.7964C112.739 85.2593 110.274 77.222 110.274 77.1149C109.739 75.4002 110.703 73.5785 112.418 73.0426C114.132 72.5068 115.954 73.4713 116.49 75.1859C116.597 75.5074 119.169 83.9734 119.919 91.0462C120.884 99.5122 113.061 105.728 112.739 106.049C112.203 106.478 111.56 106.692 110.81 106.692Z" fill="#E2B354"/>
<path d="M105.664 166.061L102.235 138.305L101.592 113.55C101.913 110.871 104.485 108.942 107.164 109.264C109.843 109.585 109.629 112.907 109.308 115.586L110.272 138.198L109.522 165.739C109.951 168.525 105.986 168.632 105.664 166.061Z" fill="#EEBCC5"/>
<path d="M97.092 170.883L91.8409 144.842V115.801C92.2696 113.122 94.8415 111.3 97.5206 111.729C100.2 112.157 102.022 114.729 101.593 117.408L100.093 141.306L100.521 170.776C96.449 178.813 90.2335 176.456 89.4833 175.17C89.3762 175.062 90.555 174.848 92.0553 174.098C94.3057 173.134 97.092 171.097 97.092 170.883Z" fill="#EEBCC5"/>
<path d="M100.843 170.884C100.843 170.884 99.0212 170.884 97.628 172.491C96.2349 174.099 94.6274 176.242 92.8056 176.349C90.9839 176.456 90.2337 174.956 91.6268 174.42C91.6268 174.42 88.4119 174.527 87.8761 175.278C87.2331 176.028 89.1621 178.6 91.9483 178.6C94.8418 178.707 96.1277 178.6 96.5564 178.064C96.7707 177.849 98.8068 174.635 99.0212 174.635C99.2355 174.635 99.557 179.243 99.557 179.243H99.9856L100.843 175.17C100.736 175.063 102.879 172.384 100.843 170.884Z" fill="#A194EF"/>
<path d="M107.916 164.24C107.916 164.24 105.558 164.132 105.022 165.847C104.486 167.455 105.451 168.633 105.558 169.598C105.665 170.562 104.915 171.098 105.558 171.527C106.201 171.955 109.845 171.848 110.166 171.634C110.488 171.42 109.523 170.134 109.845 169.491C110.166 168.955 111.666 165.097 107.916 164.24Z" fill="#3E3577"/>
<path d="M108.023 164.24C107.916 164.24 104.058 163.811 105.129 167.991C105.129 167.991 105.558 166.491 106.522 166.598C107.487 166.598 107.38 167.562 107.38 167.562L107.594 173.992H107.808H108.13H108.344L108.559 167.562C108.559 167.562 108.451 166.598 109.416 166.598C110.38 166.598 110.38 167.884 110.38 167.884C111.452 163.704 108.023 164.24 108.023 164.24Z" fill="#A194EF"/>
<path d="M90.7691 108.622C90.4476 115.909 90.3404 139.271 90.7691 141.521C91.3049 144.415 110.38 144.843 111.237 141.521C113.274 141.2 110.487 120.303 111.452 118.695C112.523 116.874 112.738 115.373 112.845 113.23C112.952 111.087 112.952 108.515 112.202 106.907C108.344 106.157 104.379 105.514 100.521 104.764C97.0917 103.907 93.1267 105.836 90.7691 108.622Z" fill="#A194EF"/>
<path d="M90.877 64.6837C90.877 69.6132 94.842 73.5783 99.7716 73.5783C104.701 73.5783 108.666 69.6132 108.666 64.6837C108.666 59.7541 104.701 55.7891 99.7716 55.7891C94.842 55.7891 90.877 59.7541 90.877 64.6837Z" fill="#EEBCC5"/>
<path d="M113.703 85.0452C113.703 85.0452 117.561 74.9718 113.489 72.1855C110.381 71.864 106.63 73.6858 106.63 73.6858C106.63 73.6858 98.5928 78.8297 93.2346 81.5088C90.5555 82.9019 92.3773 89.3318 92.4844 95.7616C92.5916 102.084 90.877 108.514 90.877 108.514C90.877 108.514 99.2357 112.051 103.629 111.836C108.13 111.515 113.489 109.479 112.846 107.335C112.203 105.299 109.524 97.4762 110.809 94.7971C111.988 92.118 113.703 85.0452 113.703 85.0452Z" fill="#EFC260"/>
<path d="M105.449 66.9346L106.735 76.4722C105.771 78.6155 103.627 80.0086 101.27 79.9014H100.198L98.0547 69.828L105.449 66.9346Z" fill="#EEBCC5"/>
<path d="M93.8784 67.256C93.8784 65.9701 95.7002 65.0056 96.6647 65.7558C97.4148 66.2916 97.6292 67.4704 97.3077 68.3277C96.9862 69.185 96.4503 69.9351 95.8074 70.6853C98.5936 72.6142 101.701 74.1145 104.916 75.2934C106.202 73.3644 107.595 71.4355 108.881 69.5065C109.524 68.6492 110.06 67.7919 110.382 66.7202C111.025 64.3626 110.06 60.2904 108.56 58.4686C106.417 55.8967 103.416 54.7179 99.9868 54.5035C97.4148 54.2892 94.1999 56.111 92.4853 58.1471C90.342 60.8262 92.8068 64.3626 93.8784 67.256Z" fill="#3E3577"/>
<path d="M109.844 74.2221C113.916 77.7585 115.952 83.4382 114.988 88.7965C114.666 90.4039 114.13 92.0114 112.951 93.1902C110.701 95.5478 106.522 95.3335 104.486 92.9758C102.878 91.0469 102.664 88.2606 102.878 85.6887C103.092 83.0096 103.735 80.3305 103.735 77.6514C103.735 76.2582 103.521 74.7579 103.843 73.3648C104.164 72.2932 105.45 70.1499 106.736 70.9001C107.272 71.2215 107.593 72.2932 108.022 72.7218C108.558 73.2577 109.201 73.6863 109.844 74.2221Z" fill="#3E3577"/>
<path d="M104.271 72.8289C103.735 73.1504 103.199 73.5791 102.985 74.1149C102.878 74.3293 102.878 74.5436 102.985 74.7579C103.092 74.8651 103.199 74.9722 103.413 74.9722C104.806 75.2937 106.307 74.9722 107.486 74.1149C108.129 73.6863 109.522 71.6501 108.236 71.2215C107.271 71.0072 105.021 72.4003 104.271 72.8289Z" fill="#EFC260"/>
<path d="M93.3421 112.801C95.0585 112.801 96.4499 111.41 96.4499 109.694C96.4499 107.977 95.0585 106.586 93.3421 106.586C91.6258 106.586 90.2344 107.977 90.2344 109.694C90.2344 111.41 91.6258 112.801 93.3421 112.801Z" fill="#EEBCC5"/>
<path d="M89.3761 112.586C89.2689 112.586 89.1617 112.586 88.9474 112.586C87.34 112.372 79.4098 111.407 75.6591 106.799C74.2659 104.977 73.6229 102.834 73.8373 100.584C74.6946 92.7605 88.8402 84.0802 93.234 81.5083C95.0558 80.4367 97.3062 81.0796 98.3779 82.9014C99.4495 84.7232 98.8065 86.9737 96.9847 88.0453C88.9474 92.7605 81.5531 98.976 81.3388 101.441C81.3388 101.655 81.3388 101.762 81.5531 102.084C82.8391 103.691 87.2328 104.87 89.8047 105.084C91.8408 105.299 93.3411 107.121 93.1268 109.264C92.9125 111.193 91.305 112.586 89.3761 112.586Z" fill="#EFC260"/>
<path d="M42.7611 126.303C42.1181 126.303 41.9038 127.053 41.7966 127.696C41.6895 128.446 41.6895 129.303 41.6895 130.053C41.6895 130.375 41.6894 130.804 41.9038 131.125C42.1181 131.661 42.6539 131.982 43.1898 132.09C43.7256 132.304 44.2614 132.304 44.7972 132.304C47.905 132.625 51.0127 133.804 54.2277 133.483C54.7635 133.483 55.1921 133.376 55.6208 133.054C56.0494 132.84 56.3709 132.304 56.2638 131.768C56.1566 131.232 55.6208 130.911 55.085 130.589C52.8345 129.303 50.6912 128.875 48.2265 127.803C48.0121 127.696 46.7262 126.624 46.5118 126.624C46.1903 126.624 46.619 127.053 46.619 127.374C46.0832 127.696 45.333 127.803 44.7972 127.589C44.1542 127.482 43.6184 127.053 43.2969 126.517C43.1898 126.517 43.0826 126.303 42.7611 126.303Z" fill="#3E3577"/>
<path d="M28.6127 133.591C28.3983 133.591 28.0768 133.698 27.9697 133.912C27.8625 134.127 27.7553 134.341 27.7553 134.663C27.6482 135.52 27.541 136.377 27.541 137.127C27.541 137.663 27.8625 138.092 28.2912 138.306C29.0413 138.735 29.47 139.485 30.0058 140.235C31.7204 142.378 34.1852 143.879 36.8643 144.415C37.6144 144.522 38.3646 144.093 38.4718 143.343C38.4718 143.021 38.4718 142.807 38.4718 142.486C38.3646 141.735 37.9359 141.092 37.6144 140.449C36.9715 139.485 33.1136 136.913 32.4706 136.27C31.5061 135.198 31.3989 133.698 30.113 133.377C29.5771 133.269 28.9341 133.269 28.6127 133.591Z" fill="#3E3577"/>
<path d="M46.6183 123.731V128.982L46.404 129.09C45.118 129.84 43.4034 129.625 42.4389 128.447L42.2246 123.731H46.6183Z" fill="#A194EF"/>
<path d="M28.2908 135.305L28.1836 130.59H31.5057L31.3985 135.198C31.3985 135.198 30.7555 137.234 28.2908 135.305Z" fill="#A194EF"/>
<path d="M58.5147 51.8241C56.6929 51.8241 51.2275 51.8241 41.5827 27.0692C40.8326 25.1402 41.7971 22.997 43.726 22.2468C45.655 21.4967 47.7983 22.4611 48.5484 24.3901C51.9777 33.0704 56.3714 41.6435 58.6218 44.1083C60.4436 42.5008 63.6585 37.0355 65.909 31.6773C66.6591 29.7483 68.9096 28.891 70.8385 29.6411C72.7675 30.3913 73.6248 32.6417 72.8747 34.5707C66.9806 48.8235 61.8368 51.8241 58.5147 51.8241Z" fill="#8379E0"/>
<path d="M30.545 133.162C30.4378 133.162 30.4378 133.162 30.3306 133.162C27.973 133.055 26.1512 131.019 26.2584 128.661C26.2584 128.447 27.4372 104.013 27.2229 96.6191C26.9014 87.8317 26.5799 71.4355 26.5799 71.2212C26.5799 68.8636 28.4017 66.9347 30.7593 66.8275C33.1169 66.7203 35.0459 68.6493 35.153 71.0069C35.153 71.2212 35.4745 87.6173 35.796 96.2976C36.0103 104.121 34.9387 128.018 34.8315 129.09C34.7244 131.34 32.7954 133.162 30.545 133.162Z" fill="#8379E0"/>
<path d="M44.7965 126.089C44.5821 126.089 44.3678 126.089 44.2606 126.089C41.903 125.768 40.2956 123.625 40.6171 121.267C41.5815 114.516 43.9392 95.5476 43.7248 89.5465C43.4033 81.0805 40.9386 64.8987 40.9386 64.6844C40.6171 62.3268 42.2245 60.1835 44.475 59.7548C46.8326 59.4333 48.9759 61.0408 49.4045 63.2912C49.5117 63.9342 51.9765 80.116 52.298 89.1178C52.5123 97.1551 49.2974 121.267 49.083 122.232C48.7615 124.482 46.9398 126.089 44.7965 126.089Z" fill="#8379E0"/>
<path d="M25.1855 59.4323L27.0073 77.3287L50.262 71.9705L50.5834 56.8604C50.4763 56.8604 27.9718 57.3962 25.1855 59.4323Z" fill="#8379E0"/>
<path d="M36.7579 22.6748C36.7579 22.6748 33.6501 23.5321 33.4358 24.2822C33.1143 25.0324 35.4719 28.2473 37.8295 30.0691C40.2943 31.8909 43.0806 48.8228 43.0806 48.8228C43.0806 48.8228 44.5809 28.9975 44.4737 24.2822C44.4737 19.567 36.7579 22.6748 36.7579 22.6748Z" fill="#F7F7FB"/>
<path d="M43.8317 22.8897C43.8317 22.8897 49.0828 23.4255 49.2971 28.8909C49.5114 33.4989 50.4759 54.1816 50.7974 60.933C50.9046 62.3261 50.1544 63.612 49.0828 64.3622C45.975 66.3983 39.438 70.3634 35.2586 70.1491C29.4717 69.9347 25.2923 68.0058 25.2923 68.0058C25.2923 68.0058 24.7565 31.4628 26.0425 29.641C27.3285 27.8192 36.5446 21.2822 38.5807 21.2822C40.6168 21.2822 43.8317 22.8897 43.8317 22.8897Z" fill="#A194EF"/>
<path d="M49.2965 11.3169C49.618 15.925 46.0816 19.89 41.4735 20.2115C36.8655 20.533 32.9004 16.9966 32.5789 12.3886C32.2574 7.7805 35.7938 3.81542 40.4019 3.49393C45.1171 3.17244 49.0822 6.70886 49.2965 11.3169Z" fill="#EEBCC5"/>
<path d="M45.011 15.9242L42.1176 24.4974C40.4029 25.8905 38.0453 26.212 36.1164 25.1403C35.5805 24.8189 35.2591 24.283 35.4734 23.6401L37.6167 15.2812L45.011 15.9242Z" fill="#EEBCC5"/>
<path d="M36.2238 12.3875C36.331 13.7806 35.2593 14.9594 33.8662 15.0666C32.473 15.1737 31.2942 14.1021 31.1871 12.709C31.0799 11.3158 32.1516 10.137 33.5447 10.0299C34.9378 9.92269 36.1166 10.9943 36.2238 12.3875Z" fill="#EEBCC5"/>
<path d="M34.1875 24.069C34.1875 24.069 34.1875 20.5326 34.8305 20.2111C35.4735 19.9968 36.6523 19.4609 36.6523 19.4609L36.2236 21.3899C36.2236 21.3899 37.9382 23.2117 39.76 23.426C41.4747 23.6403 41.4747 23.6403 41.4747 23.6403L42.2248 24.4976L42.975 21.8185L43.5108 20.2111C43.5108 20.2111 44.5824 20.1039 44.7967 20.5326C44.9039 20.9612 43.0821 27.6054 43.0821 27.6054L40.8317 28.0341L37.7239 26.7481L34.1875 24.069Z" fill="#F7F7FB"/>
<path d="M35.5805 23.6398C35.5805 23.6398 34.4017 24.3899 34.5088 24.6043C34.616 24.8186 37.4023 32.2129 37.4023 32.2129L42.8676 46.8944L44.6894 39.0714L45.2253 28.4622C45.2253 28.4622 47.69 26.5332 45.8682 24.7114C44.0465 22.8896 44.0464 22.8896 44.0464 22.8896L42.439 26.2117L35.5805 23.6398Z" fill="#F7F7FB"/>
<path d="M42.2237 24.4971L41.0449 27.712L41.7951 29.9624L42.7595 29.8553L43.724 27.2833L42.2237 24.4971Z" fill="#EEBCC5"/>
<path d="M43.1869 48.8235C43.1869 48.8235 44.6872 35.9638 44.4729 34.9993C44.3657 34.0349 42.7583 29.8555 42.7583 29.8555L41.7938 29.9626L41.6866 30.0698L40.5078 35.6423L43.1869 48.8235Z" fill="#EEBCC5"/>
<path d="M43.1875 49.3592L46.1881 33.0703L45.3308 30.3912C45.3308 30.3912 47.9027 26.1046 47.5812 25.4616C47.2597 24.7115 44.6878 21.2822 44.6878 21.2822L44.3663 22.8897C44.3663 22.8897 44.795 25.033 44.795 25.6759C44.795 26.3189 43.9376 38.2141 43.8305 39.0715C43.7233 39.9288 43.2947 45.6085 43.2947 45.6085L43.1875 49.3592Z" fill="#8379E0"/>
<path d="M34.2932 21.2822L31.9355 25.033C31.9355 25.033 34.7218 26.8548 34.7218 27.1763C34.7218 27.4977 34.829 32.9631 34.829 33.2846C34.829 33.4989 43.1878 49.3592 43.1878 49.3592C43.1878 49.3592 40.2943 32.8559 39.9729 31.8915C39.5442 30.927 35.0433 24.39 35.0433 24.39L34.2932 21.2822Z" fill="#8379E0"/>
<path d="M21.7555 69.399C20.5767 69.399 19.5051 68.8632 18.7549 67.8987C17.1475 65.7554 9.21734 54.7175 7.71704 49.6808C7.18122 47.859 5.57375 42.2865 26.8994 29.2124C28.614 28.1408 30.9717 28.6766 32.0433 30.4984C33.1149 32.3202 32.5791 34.5706 30.7573 35.6423C23.363 40.1432 16.2902 45.8229 15.0042 48.0733C16.2902 51.2882 21.3269 58.7897 24.649 63.3978C25.8278 65.1124 25.5063 67.3629 23.7917 68.6488C23.2558 69.1846 22.5057 69.399 21.7555 69.399Z" fill="#8379E0"/>
<path d="M23.4704 72.5062C22.1844 72.5062 20.8984 71.8632 20.2555 70.6844L19.0766 68.6483C18.005 66.8265 18.648 64.576 20.3626 63.5044C22.1844 62.4327 24.4349 63.0757 25.5065 64.7903L26.6853 66.8265C27.7569 68.6483 27.114 70.8987 25.3993 71.9704C24.7563 72.2919 24.1134 72.5062 23.4704 72.5062Z" fill="#EEBCC5"/>
<path d="M70.4088 35.7501C69.7658 35.7501 69.1228 35.6429 68.587 35.3214C66.7652 34.3569 66.1222 31.9993 67.1938 30.1775L68.3727 28.0342C69.3371 26.2125 71.6947 25.5695 73.5165 26.6411C75.3383 27.6056 75.9813 29.9632 74.9097 31.785L73.7309 33.9283C72.9807 35.1071 71.6947 35.7501 70.4088 35.7501Z" fill="#EEBCC5"/>
<path d="M32.7945 10.1375C33.3303 10.2447 33.9733 10.3519 34.2948 10.8877C34.5091 11.3163 34.5091 11.745 34.5091 12.1736C34.5091 12.8166 34.4019 13.3524 34.4019 13.9954C34.5091 14.1026 34.7234 14.1026 34.9378 13.9954C35.1521 13.8883 35.2593 13.7811 35.3664 13.5668C35.9022 12.7095 36.0094 11.745 36.0094 10.6733C36.0094 10.1375 36.3309 9.70887 36.2237 9.28021C36.1166 8.74439 35.9022 8.31573 35.6879 7.88708C39.4387 8.74439 43.4037 8.85155 47.2616 8.1014C47.6903 7.99424 48.119 7.88707 48.4404 7.56558C48.6548 7.35125 48.7619 7.13693 48.8691 6.81544C49.1906 6.06529 49.1906 2.85035 48.8691 2.1002C48.5476 1.24289 47.6903 0.492746 46.7258 0.278418C45.7613 -0.0430741 44.7969 -0.0430708 43.8324 0.0640933C43.1894 0.171257 37.4025 1.77872 33.2231 2.95752C31.0799 3.60051 30.1154 6.17244 31.4014 7.99423C31.9372 9.06587 32.473 9.70886 32.7945 10.1375Z" fill="#3E3577"/>
<path d="M0 116.98V135.627L19.2895 146.879L22.5045 144.843V126.303L3.21492 115.158L0 116.98Z" fill="#8379E0"/>
<path d="M0 124.481L19.2895 135.627V128.125L22.5045 126.303L3.21492 115.158L0 116.98V124.481Z" fill="#3E3577"/>
<path d="M9.00106 128.34C9.75121 128.768 10.5014 129.947 10.5014 130.804C10.5014 131.769 9.85837 132.09 9.00106 131.662C8.25091 131.233 7.50076 130.054 7.60792 129.197C7.60792 128.232 8.25091 127.911 9.00106 128.34Z" fill="#EFC260"/>
<path d="M7.82293 119.338L7.28711 119.659L7.82293 119.338Z" fill="#3E3577"/>
<path d="M7.28711 119.659L7.82293 119.338L7.28711 119.659Z" fill="#3E3577"/>
<path d="M8.03726 118.695L8.57308 118.373L7.82293 119.338L7.28711 119.659L8.03726 118.695Z" fill="#3E3577"/>
<path d="M8.3586 118.481L8.89442 118.159C8.78726 118.266 8.68009 118.373 8.57293 118.481L8.03711 118.802C8.14427 118.588 8.25144 118.481 8.3586 118.481Z" fill="#3E3577"/>
<path d="M8.3586 118.481L8.89442 118.159C8.78726 118.266 8.68009 118.373 8.57293 118.481L8.03711 118.802C8.14427 118.588 8.25144 118.481 8.3586 118.481Z" fill="#3E3577"/>
<path d="M8.03711 117.838L8.57293 117.516C9.10875 117.195 9.75173 117.302 10.5019 117.73L9.96606 118.052C9.21591 117.516 8.46577 117.516 8.03711 117.838Z" fill="#3E3577"/>
<path d="M8.03711 117.836L8.57293 117.514C8.68009 117.514 8.68009 117.407 8.78726 117.407L8.25144 117.729C8.14427 117.729 8.03711 117.729 8.03711 117.836Z" fill="#3E3577"/>
<path d="M8.25 117.73L8.78582 117.408C8.89298 117.408 8.89299 117.408 9.00015 117.408L8.46433 117.73C8.35716 117.623 8.25 117.623 8.25 117.73Z" fill="#3E3577"/>
<path d="M8.35938 117.623L8.8952 117.302H9.00236L8.46654 117.623C8.46654 117.623 8.46654 117.623 8.35938 117.623Z" fill="#3E3577"/>
<path d="M8.57227 117.623L9.10809 117.302H9.21525L8.67943 117.623H8.57227Z" fill="#3E3577"/>
<path d="M8.67969 117.623L9.21551 117.302H9.32267L8.78685 117.623C8.78685 117.623 8.78685 117.623 8.67969 117.623Z" fill="#3E3577"/>
<path d="M8.89453 117.623L9.43035 117.302H9.53752L9.0017 117.623C8.89453 117.623 8.89453 117.623 8.89453 117.623Z" fill="#3E3577"/>
<path d="M9.00195 117.623L9.53777 117.302H9.64494L9.10912 117.623C9.00195 117.623 9.00195 117.623 9.00195 117.623Z" fill="#3E3577"/>
<path d="M9.10938 117.623L9.6452 117.302H9.75236L9.21654 117.623H9.10938Z" fill="#3E3577"/>
<path d="M9.21484 117.73L9.75066 117.408H9.85783L9.32201 117.73H9.21484Z" fill="#3E3577"/>
<path d="M9.32227 117.73L9.85809 117.408H9.96525L9.42943 117.73H9.32227Z" fill="#3E3577"/>
<path d="M9.43164 117.73L9.96746 117.408H10.0746L9.53881 117.73H9.43164Z" fill="#3E3577"/>
<path d="M9.53711 117.838L10.0729 117.517H10.1801L9.64427 117.838H9.53711Z" fill="#3E3577"/>
<path d="M9.64453 117.838L10.1804 117.517H10.2875L9.75169 117.838H9.64453Z" fill="#3E3577"/>
<path d="M9.75195 117.838L10.2878 117.517C10.2878 117.517 10.3949 117.517 10.3949 117.624L9.85912 117.945C9.85912 117.945 9.75195 117.945 9.75195 117.838Z" fill="#3E3577"/>
<path d="M9.85742 117.945L10.3932 117.623H10.5004L9.85742 117.945C9.96459 117.945 9.85742 117.945 9.85742 117.945Z" fill="#3E3577"/>
<path d="M9.9668 117.945L10.5026 117.73L12.9674 119.124L12.5387 119.445L9.9668 117.945Z" fill="#3E3577"/>
<path d="M15.9675 124.053L15.4316 124.374C15.5388 124.374 15.5388 124.16 15.4316 124.053L15.9675 123.731C16.0746 123.946 16.0746 124.053 15.9675 124.053Z" fill="#3E3577"/>
<path d="M15.4316 124.053L15.9675 123.731V123.839L15.5388 124.053H15.4316Z" fill="#3E3577"/>
<path d="M15.5371 124.053L16.0729 123.731L15.5371 124.053Z" fill="#3E3577"/>
<path d="M15.5371 124.053L16.0729 123.731L15.5371 124.053C15.5371 124.16 15.5371 124.16 15.5371 124.053Z" fill="#3E3577"/>
<path d="M15.5371 124.159L16.0729 123.838L15.5371 124.159Z" fill="#3E3577"/>
<path d="M15.5371 124.159L16.0729 123.838L15.5371 124.159Z" fill="#3E3577"/>
<path d="M15.5371 124.159L16.0729 123.838L15.5371 124.159Z" fill="#3E3577"/>
<path d="M15.5371 124.159L16.0729 123.838L15.5371 124.159Z" fill="#3E3577"/>
<path d="M15.5371 124.159L16.0729 123.838L15.5371 124.159Z" fill="#3E3577"/>
<path d="M15.5371 124.159L16.0729 123.838L15.5371 124.159Z" fill="#3E3577"/>
<path d="M15.5371 124.159L16.0729 123.838L15.5371 124.159Z" fill="#3E3577"/>
<path d="M15.5371 124.159L16.0729 123.838L15.5371 124.159C15.5371 124.267 15.5371 124.267 15.5371 124.159Z" fill="#3E3577"/>
<path d="M15.5391 124.268L16.0749 123.946L15.5391 124.268Z" fill="#3E3577"/>
<path d="M15.5391 124.268L16.0749 123.946L15.5391 124.268Z" fill="#3E3577"/>
<path d="M15.5391 124.268L16.0749 123.946L15.5391 124.268Z" fill="#3E3577"/>
<path d="M15.5391 124.268L16.0749 123.946L15.5391 124.268Z" fill="#3E3577"/>
<path d="M15.5391 124.268L16.0749 123.946L15.5391 124.268Z" fill="#3E3577"/>
<path d="M15.5391 124.268L16.0749 123.946L15.5391 124.268Z" fill="#3E3577"/>
<path d="M15.5391 124.268L16.0749 123.946L15.5391 124.268Z" fill="#3E3577"/>
<path d="M15.5391 124.268L16.0749 123.946L15.5391 124.268Z" fill="#3E3577"/>
<path d="M15.5391 124.374L16.0749 124.053L15.5391 124.374Z" fill="#3E3577"/>
<path d="M15.5391 124.374L16.0749 124.053L15.5391 124.374Z" fill="#3E3577"/>
<path d="M15.4316 124.374L15.9675 124.053L15.4316 124.374Z" fill="#3E3577"/>
<path d="M14.8965 122.553L15.4323 122.231L15.9681 123.732L15.4323 124.053L14.8965 122.553Z" fill="#3E3577"/>
<path d="M12.5391 119.446L13.0749 119.124C14.1465 119.767 15.0038 120.946 15.5397 122.232L15.0038 122.553C14.468 121.267 13.5035 120.088 12.5391 119.446Z" fill="#3E3577"/>
<path d="M12.5391 119.446L13.0749 119.124L12.5391 119.446Z" fill="#3E3577"/>
<path d="M12.5391 119.446L13.0749 119.124C13.0749 119.124 13.182 119.124 13.182 119.231L12.6462 119.553L12.5391 119.446Z" fill="#3E3577"/>
<path d="M12.6465 119.552L13.1823 119.23C13.1823 119.23 13.2895 119.23 13.2895 119.338L12.7537 119.659C12.7537 119.552 12.6465 119.552 12.6465 119.552Z" fill="#3E3577"/>
<path d="M12.7539 119.659L13.2897 119.338L13.3969 119.445L12.8611 119.767C12.8611 119.659 12.7539 119.659 12.7539 119.659Z" fill="#3E3577"/>
<path d="M12.8613 119.659L13.3971 119.338L13.5043 119.445L12.9685 119.767C12.9685 119.767 12.9685 119.767 12.8613 119.659Z" fill="#3E3577"/>
<path d="M12.9688 119.767L13.5046 119.445L13.6117 119.552L13.0759 119.874C13.0759 119.874 13.0759 119.874 12.9688 119.767Z" fill="#3E3577"/>
<path d="M13.0762 119.874L13.612 119.553L13.7192 119.66L13.1833 119.981C13.1833 119.981 13.1833 119.981 13.0762 119.874Z" fill="#3E3577"/>
<path d="M13.2891 119.981L13.8249 119.659L13.932 119.766L13.3962 120.088C13.2891 120.088 13.2891 120.088 13.2891 119.981Z" fill="#3E3577"/>
<path d="M13.3984 120.088L13.9343 119.767L14.0414 119.874L13.5056 120.195C13.3984 120.195 13.3984 120.195 13.3984 120.088Z" fill="#3E3577"/>
<path d="M13.5039 120.196L14.0397 119.874L14.1469 119.981L13.6111 120.303C13.6111 120.303 13.5039 120.303 13.5039 120.196Z" fill="#3E3577"/>
<path d="M13.6113 120.41L14.1471 120.089L14.2543 120.196L13.7185 120.518C13.7185 120.41 13.6113 120.41 13.6113 120.41Z" fill="#3E3577"/>
<path d="M13.7188 120.517L14.2546 120.195L14.3617 120.302L13.8259 120.624C13.8259 120.517 13.7188 120.517 13.7188 120.517Z" fill="#3E3577"/>
<path d="M13.8242 120.623L14.36 120.302L14.4672 120.409L13.9314 120.73L13.8242 120.623Z" fill="#3E3577"/>
<path d="M13.9336 120.732L14.4694 120.41L14.5766 120.517L14.0408 120.839C14.0408 120.839 13.9336 120.839 13.9336 120.732Z" fill="#3E3577"/>
<path d="M14.041 120.838L14.5768 120.517C14.684 120.624 14.684 120.624 14.7912 120.731L14.2553 121.052C14.1482 121.052 14.1482 120.945 14.041 120.838Z" fill="#3E3577"/>
<path d="M14.2539 121.159L14.7897 120.838C14.8969 120.945 14.8969 121.052 15.0041 121.159L14.4682 121.481C14.3611 121.374 14.2539 121.267 14.2539 121.159Z" fill="#3E3577"/>
<path d="M14.4688 121.482L15.0046 121.16C15.0046 121.267 15.1117 121.267 15.1117 121.374L14.5759 121.696C14.5759 121.696 14.4688 121.589 14.4688 121.482Z" fill="#3E3577"/>
<path d="M14.5762 121.696L15.112 121.374C15.112 121.481 15.2192 121.481 15.2192 121.588L14.6833 121.91C14.5762 121.803 14.5762 121.803 14.5762 121.696Z" fill="#3E3577"/>
<path d="M14.6836 121.909L15.2194 121.588C15.2194 121.588 15.2194 121.695 15.3266 121.695L14.7908 122.017C14.6836 122.017 14.6836 121.909 14.6836 121.909Z" fill="#3E3577"/>
<path d="M14.6836 122.018L15.2194 121.696C15.2194 121.696 15.2194 121.803 15.3266 121.803L14.7908 122.125C14.7908 122.125 14.7908 122.125 14.6836 122.018Z" fill="#3E3577"/>
<path d="M14.7891 122.124L15.3249 121.803C15.3249 121.803 15.3249 121.91 15.432 121.91L14.8962 122.231C14.7891 122.231 14.7891 122.231 14.7891 122.124Z" fill="#3E3577"/>
<path d="M14.7891 122.339L15.3249 122.018C15.3249 122.018 15.3249 122.125 15.432 122.125L14.8962 122.446C14.8962 122.339 14.8962 122.339 14.7891 122.339Z" fill="#3E3577"/>
<path d="M14.8965 122.446L15.4323 122.124V122.231L14.8965 122.553V122.446Z" fill="#3E3577"/>
<path d="M14.8965 122.554L15.4323 122.232L14.8965 122.554Z" fill="#3E3577"/>
<path d="M12.5385 119.445C13.6102 120.088 14.4675 121.267 15.0033 122.553L15.5391 124.053C15.6463 124.267 15.5391 124.375 15.432 124.375H15.3248C15.2176 124.267 15.1105 124.16 15.1105 124.053L14.5747 122.553C14.146 121.481 13.3959 120.517 12.5385 119.981L9.9666 118.481C9.21645 118.052 8.4663 118.052 8.03765 118.588L7.2875 119.445C7.2875 119.552 7.18033 119.552 7.07317 119.445L6.966 119.338C6.85884 119.231 6.75168 119.016 6.85884 118.909L7.60899 118.052C8.14481 117.409 9.00212 117.302 9.9666 117.945L12.5385 119.445Z" fill="#3E3577"/>
</svg>
