<svg width="149" height="150" viewBox="0 0 149 150" fill="none" xmlns="http://www.w3.org/2000/svg">
<path d="M104.485 131.257C105.149 131.257 105.371 132.033 105.482 132.697C105.593 133.473 105.593 134.359 105.593 135.135C105.593 135.468 105.593 135.911 105.371 136.243C105.149 136.797 104.595 137.13 104.041 137.24C103.487 137.462 102.933 137.462 102.379 137.462C99.1661 137.794 95.9528 139.013 92.6287 138.681C92.0747 138.681 91.6315 138.57 91.1883 138.238C90.745 138.016 90.4126 137.462 90.5234 136.908C90.6342 136.354 91.1883 136.022 91.7423 135.689C94.0691 134.359 96.2852 133.916 98.8337 132.808C99.0553 132.697 100.385 131.589 100.607 131.589C100.939 131.589 100.496 132.033 100.496 132.365C101.05 132.697 101.825 132.808 102.379 132.587C103.044 132.476 103.598 132.033 103.931 131.479C104.041 131.479 104.152 131.146 104.485 131.257Z" fill="#3E3577"/>
<path d="M119.112 138.793C119.333 138.793 119.666 138.904 119.777 139.125C119.887 139.347 119.998 139.568 119.998 139.901C120.109 140.787 120.22 141.674 120.22 142.449C120.22 143.003 119.887 143.446 119.444 143.668C118.669 144.111 118.225 144.887 117.671 145.663C115.899 147.879 113.35 149.43 110.58 149.984C109.804 150.095 109.029 149.651 108.918 148.876C108.918 148.543 108.918 148.322 108.918 147.989C109.029 147.214 109.472 146.549 109.804 145.884C110.469 144.887 114.458 142.228 115.123 141.563C116.12 140.455 116.231 138.904 117.561 138.571C118.115 138.46 118.669 138.46 119.112 138.793Z" fill="#3E3577"/>
<path d="M100.385 128.598V134.027L100.606 134.138C101.936 134.913 103.709 134.692 104.706 133.473L104.928 128.598H100.385Z" fill="#A194EF"/>
<path d="M119.33 140.564L119.441 135.688H116.006L116.117 140.453C116.117 140.453 116.892 142.558 119.33 140.564Z" fill="#A194EF"/>
<path d="M83.7639 42.2817C81.3262 42.2817 80.329 41.0629 79.6641 40.3981C77.4481 37.9604 76.6725 35.0795 77.1157 32.0878C77.3373 30.6474 79.2209 22.8912 92.6281 15.4674C94.5118 14.4701 96.8386 15.1349 97.9467 17.0186C98.9439 18.9022 98.279 21.2291 96.3954 22.3372C92.0741 24.7748 85.3151 29.9826 84.7611 33.4175C84.7611 33.7499 84.7611 34.0823 84.8719 34.4147C87.7528 33.5283 94.6226 28.8745 100.717 23.6668C102.379 22.2263 104.816 22.4479 106.146 24.11C107.587 25.772 107.365 28.2097 105.703 29.5394C93.6253 39.7332 87.3096 42.2817 83.7639 42.2817Z" fill="#8379E0"/>
<path d="M118.222 137.684C118.333 137.684 118.333 137.684 118.444 137.684C120.882 137.573 122.765 135.468 122.654 133.03C122.654 132.808 121.436 107.545 121.657 99.9C121.99 90.8141 122.322 73.8612 122.322 73.6396C122.322 71.2019 120.438 69.2075 118.001 69.0967H117.89C115.452 69.0967 113.458 70.9803 113.458 73.418C113.458 73.6396 113.125 90.5925 112.793 99.5675C112.571 107.656 113.679 132.365 113.79 133.473C113.901 135.8 115.895 137.684 118.222 137.684Z" fill="#3E3577"/>
<path d="M98.3897 16.9098C97.3924 16.9098 96.3952 16.5773 95.7304 15.8017C94.1792 14.3613 94.1792 11.8128 95.6196 10.3724L97.3925 8.59953C98.8329 7.04829 101.381 7.04831 102.822 8.48875C104.373 9.92919 104.373 12.4777 102.933 13.9181L101.16 15.691C100.495 16.4666 99.3869 16.9098 98.3897 16.9098Z" fill="#EEBCC5"/>
<path d="M103.488 130.259C103.709 130.259 103.931 130.259 104.042 130.259C106.479 129.927 108.141 127.711 107.809 125.273C106.812 118.293 104.374 98.6804 104.596 92.4755C104.928 83.722 107.476 66.9908 107.476 66.7692C107.809 64.3315 106.147 62.1154 103.82 61.6722C101.382 61.3398 99.1662 63.0019 98.723 65.3287C98.6122 65.9935 96.0637 82.7248 95.7313 92.0323C95.5097 100.343 98.8338 125.273 99.0554 126.27C99.4986 128.708 101.382 130.259 103.488 130.259Z" fill="#3E3577"/>
<path d="M123.874 61.4503L121.99 79.9544L97.9457 74.4143L97.6133 58.791C97.6133 58.791 120.882 59.345 123.874 61.4503Z" fill="#3E3577"/>
<path d="M111.798 23.3355C111.798 23.3355 115.011 24.2219 115.233 24.9975C115.565 25.7731 113.128 29.0972 110.69 30.9809C108.141 32.8645 105.261 50.3714 105.261 50.3714C105.261 50.3714 103.709 29.8728 103.82 24.9975C103.82 20.233 111.798 23.3355 111.798 23.3355Z" fill="#F7F7FB"/>
<path d="M97.7858 20.1965L108.719 10.4805L103.934 5.09682L93.0014 14.8129L97.7858 20.1965Z" fill="#3E3577"/>
<path d="M107.133 10.4117L103.82 6.68457L94.5439 14.9285L97.8562 18.6556L107.133 10.4117Z" fill="#E7EBF2"/>
<path d="M104.596 23.6669C104.596 23.6669 99.1662 24.221 98.9446 29.8719C98.723 34.6364 97.7257 56.0214 97.3933 63.002C97.2825 64.4425 98.0581 65.7721 99.1662 66.5477C102.379 68.653 109.138 72.7527 113.46 72.5311C119.443 72.3095 123.764 70.315 123.764 70.315C123.764 70.315 124.318 32.5312 122.989 30.6475C121.659 28.7639 112.13 22.0049 110.025 22.0049C107.809 22.0049 104.596 23.6669 104.596 23.6669Z" fill="#A194EF"/>
<path d="M98.8335 11.7005C98.5011 16.465 102.158 20.5647 106.922 20.8971C111.687 21.2295 115.786 17.573 116.119 12.8085C116.451 8.04395 112.795 3.94422 108.03 3.61181C103.266 3.2794 99.1659 6.93592 98.8335 11.7005Z" fill="#EEBCC5"/>
<path d="M103.264 16.4656L106.255 25.3299C108.028 26.7703 110.466 27.1027 112.46 25.9947C113.014 25.6623 113.347 25.1083 113.125 24.4434L110.909 15.8008L103.264 16.4656Z" fill="#EEBCC5"/>
<path d="M112.463 12.8086C112.352 14.249 113.46 15.4679 114.9 15.5787C116.341 15.6895 117.56 14.5814 117.67 13.141C117.781 11.7006 116.673 10.4817 115.233 10.3709C113.792 10.2601 112.463 11.3682 112.463 12.8086Z" fill="#EEBCC5"/>
<path d="M126.089 94.4053H148.582V82.1061H126.089V94.4053Z" fill="#F7F7FB"/>
<path d="M114.57 24.8866C114.57 24.8866 114.57 21.2301 113.905 20.8977C113.24 20.6761 112.021 20.1221 112.021 20.1221L112.465 22.1165C112.465 22.1165 110.692 24.0002 108.808 24.2218C107.035 24.4434 107.035 24.4434 107.035 24.4434L106.26 25.3298L105.484 22.5597L104.93 20.8977C104.93 20.8977 103.822 20.7869 103.6 21.2301C103.49 21.6733 105.373 28.5431 105.373 28.5431L107.7 28.9863L110.913 27.6567L114.57 24.8866Z" fill="#F7F7FB"/>
<path d="M106.258 25.3291L107.477 28.5424L106.591 30.9801L105.704 30.8693L104.707 28.21L106.258 25.3291Z" fill="#EEBCC5"/>
<path d="M105.148 50.4813C105.148 50.4813 103.597 37.1849 103.819 36.1877C103.929 35.1905 105.591 30.8691 105.591 30.8691L106.589 30.98L106.699 31.0908L107.918 36.8525L105.148 50.4813Z" fill="#EEBCC5"/>
<path d="M139.607 78.9586C137.724 78.9586 136.062 77.629 135.729 75.6345C133.956 64.2218 131.297 50.5931 130.078 48.377C128.749 45.8285 121.879 39.956 117.558 36.5211C115.895 35.1914 115.563 32.7538 116.893 31.0917C118.222 29.4297 120.66 29.0973 122.322 30.4269C124.317 31.9781 134.289 39.8451 136.837 44.7205C139.275 49.1526 142.377 68.6539 143.375 74.5265C143.707 76.6318 142.267 78.6262 140.161 78.9586C140.051 78.9586 139.829 78.9586 139.607 78.9586Z" fill="#8379E0"/>
<path d="M138.5 84.3881C137.836 84.3881 137.171 84.1665 136.506 83.8341C134.622 82.7261 134.068 80.3992 135.176 78.5156L136.395 76.4103C137.503 74.5267 139.83 73.9726 141.714 75.0807C143.597 76.1887 144.151 78.5156 143.043 80.3992L141.825 82.5045C141.049 83.7233 139.83 84.3881 138.5 84.3881Z" fill="#EEBCC5"/>
<path d="M115.895 10.4818C115.341 10.5926 114.676 10.7034 114.344 11.2574C114.122 11.7006 114.122 12.1438 114.122 12.587C114.122 13.2518 114.233 13.8059 114.233 14.4707C114.122 14.5815 113.901 14.5815 113.679 14.4707C113.457 14.3599 113.347 14.2491 113.236 14.0275C112.682 13.141 112.571 12.1438 112.571 11.0358C112.571 10.4818 112.239 10.0386 112.349 9.59534C112.46 9.04133 112.682 8.5981 112.903 8.15488C109.025 9.04131 104.926 9.15213 100.937 8.3765C100.494 8.2657 100.05 8.1549 99.7179 7.82249C99.4963 7.60088 99.3855 7.37926 99.2747 7.04685C98.9423 6.27123 98.9423 2.94715 99.2747 2.17153C99.6071 1.2851 100.494 0.509467 101.491 0.287861C102.488 -0.0445485 103.485 -0.0445282 104.482 0.0662748C105.147 0.177078 111.131 1.8391 115.452 3.05794C117.668 3.72276 118.665 6.38204 117.336 8.26569C116.782 9.26292 116.228 10.0385 115.895 10.4818Z" fill="#3E3577"/>
<path d="M113.127 13.1406C113.127 14.027 113.127 14.9135 112.794 15.7999C112.573 16.6863 112.019 17.462 111.132 17.7944C110.689 18.016 110.246 18.016 109.803 18.016C109.36 18.016 108.806 18.016 108.362 17.7944C107.476 17.3512 107.033 16.3539 106.257 15.7999C105.371 15.1351 104.041 15.1351 103.155 15.6891C102.268 14.9135 101.049 14.4703 99.9413 14.3595C99.8305 14.3595 99.6089 14.3595 99.4981 14.3595C99.2765 14.4703 99.2765 14.6919 99.2765 14.9135C99.1657 16.3539 99.1657 17.7944 99.2765 19.3456C99.2765 19.7888 99.3873 20.232 99.4981 20.6753C99.7197 21.1185 100.274 21.4509 100.828 21.6725C104.152 23.1129 108.141 22.6697 111.686 21.6725C112.13 21.5617 112.573 21.4509 112.905 21.1185C113.459 20.6752 113.57 19.8996 113.681 19.2348C113.902 17.9052 114.124 16.5755 114.346 15.3567C114.456 15.0243 114.456 14.6919 114.346 14.3595C114.235 13.9163 113.459 13.5838 113.127 13.1406Z" fill="#3E3577"/>
<path d="M31.1135 127.479C30.4829 127.479 30.2727 128.215 30.1676 128.846C30.0625 129.581 30.0625 130.422 30.0625 131.158C30.0625 131.473 30.0625 131.893 30.2727 132.209C30.4829 132.734 31.0084 133.05 31.5338 133.155C32.0593 133.365 32.5848 133.365 33.1103 133.365C36.158 133.68 39.2058 134.836 42.3586 134.521C42.8841 134.521 43.3045 134.416 43.7249 134.1C44.1452 133.89 44.4605 133.365 44.3554 132.839C44.2503 132.314 43.7249 131.999 43.1994 131.683C40.9924 130.422 38.6803 129.161 36.2631 128.215C36.0529 128.11 35.7376 128.005 35.4223 128.005C35.1071 128.005 34.8969 128.32 34.8969 128.53C34.3714 128.846 33.6357 128.951 33.1103 128.741C32.4797 128.636 31.9542 128.215 31.6389 127.69C31.5338 127.795 31.4287 127.479 31.1135 127.479Z" fill="#3E3577"/>
<path d="M30.7965 128.53C30.7965 129.371 31.0067 130.211 31.5321 130.737C31.9525 131.157 32.478 131.262 33.1086 131.473C35.2105 131.998 37.4175 132.313 39.6245 132.524C40.1499 132.524 40.9907 132.524 41.0958 131.893C41.2009 131.578 41.0958 131.262 40.7805 131.052C39.7295 130.317 38.3633 130.106 37.1022 129.581C35.841 129.055 34.5799 127.584 34.2646 126.323C34.1595 125.903 34.1595 125.377 33.9493 124.957C33.7391 124.326 33.1086 123.906 32.478 123.801C29.8506 123.275 30.6914 127.059 30.7965 128.53Z" fill="#EEBCC5"/>
<path d="M14.508 133.89C14.2978 133.89 13.9825 133.995 13.8774 134.206C13.7723 134.416 13.6672 134.626 13.6672 134.941C13.5621 135.782 13.457 136.623 13.457 137.358C13.457 137.884 13.7723 138.304 14.1927 138.514C14.9284 138.935 15.3487 139.67 15.8742 140.406C17.5557 142.508 19.9729 143.979 22.6003 144.505C23.336 144.61 24.0716 144.19 24.1767 143.454C24.1767 143.139 24.1767 142.928 24.1767 142.613C24.0716 141.877 23.6512 141.247 23.336 140.616C22.7054 139.67 21.8646 138.83 20.9188 138.199C20.1831 135.992 18.1863 134.311 15.9793 133.68C15.4538 133.575 14.9284 133.575 14.508 133.89Z" fill="#3E3577"/>
<path d="M14.2976 131.998C14.1925 132.944 14.1925 133.785 14.2976 134.731C14.718 137.463 17.03 139.46 19.237 141.142C19.7625 141.562 20.3931 141.877 20.9186 141.667C21.3389 141.457 21.5491 140.826 21.3389 140.406C21.2338 139.986 20.9186 139.565 20.6033 139.145C19.237 137.463 17.8708 135.677 17.6606 133.575C17.5555 132.524 17.7657 131.578 17.8708 130.527C17.9759 129.266 17.5555 125.483 15.4536 126.428C13.9823 127.059 14.2976 130.737 14.2976 131.998Z" fill="#EEBCC5"/>
<path d="M14.5096 13.8727C12.723 13.8727 10.7262 14.3982 9.57014 15.7644C8.62429 16.9204 8.4141 18.4969 8.83448 19.9682C9.04467 20.914 9.57014 21.8599 9.46505 22.8058C9.35995 23.8567 8.62429 24.6975 7.88862 25.4331C7.15296 26.1688 6.2071 26.6943 5.57653 27.535C4.21029 29.4268 4.31539 32.0541 5.47143 34.156C6.62748 36.2579 8.62429 37.6242 10.6211 38.6751C13.5638 40.3566 16.9268 41.5127 20.2898 41.7229C23.6529 42.0382 27.2261 41.5127 30.1688 39.9362C31.535 39.2006 32.7961 38.2547 33.6369 36.9936C34.7929 35.3121 35.0031 33.1051 34.5828 31.1083C34.3726 29.8471 33.8471 28.586 33.4267 27.3248C32.5859 24.3822 32.586 21.2293 33.5318 18.2867C33.8471 17.2357 34.2675 15.9746 33.8471 15.0287C33.6369 14.6084 33.2165 14.188 32.9012 13.8727C32.2707 13.2421 31.535 12.6115 30.9044 12.0861C30.1688 11.4555 29.5382 10.8249 28.6974 10.4045C26.2802 9.0383 22.6019 9.14342 20.0796 10.1944C18.9236 10.7198 18.7134 11.5606 18.1879 12.6115C17.4523 13.7676 15.9809 13.7676 14.5096 13.8727Z" fill="#3E3577"/>
<path d="M44.7746 55.3839C42.988 55.3839 37.6282 55.3839 28.1696 31.1069C27.434 29.2152 28.3798 27.1133 30.2715 26.3776C32.1632 25.642 34.2651 26.5878 35.0008 28.4795C38.3638 36.9922 42.6727 45.3998 44.8797 47.817C46.6664 46.2406 49.8192 40.8807 52.0262 35.626C52.7619 33.7343 54.9689 32.8935 56.8606 33.6292C58.7523 34.3648 59.593 36.5718 58.8574 38.4636C53.0772 52.4412 48.0326 55.3839 44.7746 55.3839Z" fill="#E2B354"/>
<path d="M12.9316 60.7438C13.9826 56.7502 15.9794 55.2789 15.4539 53.9126C11.6705 45.1898 13.4571 34.365 14.1928 33.4191C15.4539 31.6325 24.4921 25.2217 26.4889 25.2217C28.5908 25.2217 31.6386 26.7981 31.6386 26.7981L37.9443 34.5751C39.6258 36.5719 40.0462 39.4095 39.1003 41.8267L35.5271 52.4413L38.6799 66.8393C38.6799 66.8393 36.8933 66.6291 26.8042 67.0495C16.7151 67.4699 13.5622 69.1514 13.5622 69.1514L12.9316 60.7438Z" fill="#EFC260"/>
<path d="M39.3111 94.0596C39.3111 94.0596 41.6232 80.2922 40.4672 68.6266C39.206 55.8051 35.4226 52.3369 35.4226 52.3369C32.6901 57.1713 15.3495 53.8082 15.3495 53.8082C12.7221 56.4356 11.3559 65.7891 11.7762 72.1999C12.1966 78.6107 15.4546 97.6328 15.4546 97.6328C15.4546 97.6328 13.668 127.059 14.0883 129.582L17.7667 130.212C17.7667 130.212 25.0182 102.152 25.7539 96.687C26.4895 91.2221 26.3844 67.891 26.3844 67.891L28.3813 67.7859C28.3813 67.7859 29.4322 90.1711 29.8526 92.9036C30.0628 94.48 29.1169 98.9991 29.222 105.305C29.222 111.505 29.8526 120.333 30.3781 125.168L34.1615 125.588L39.3111 94.0596Z" fill="#8379E0"/>
<path d="M36.9987 15.4483C37.314 19.9674 33.8459 23.8559 29.3268 24.1711C24.8077 24.4864 20.9192 21.0183 20.6039 16.4992C20.2886 11.9801 23.7567 8.09161 28.2758 7.77632C32.7949 7.46104 36.7885 10.8241 36.9987 15.4483Z" fill="#EEBCC5"/>
<path d="M32.7962 19.863L29.9587 28.2706C28.2772 29.6368 25.9651 29.9521 24.0734 28.9011C23.5479 28.5859 23.2326 28.0604 23.4428 27.4298L25.5447 19.2324L32.7962 19.863Z" fill="#EEBCC5"/>
<path d="M24.5955 48.5527H4.20703V65.1577H24.5955V48.5527Z" fill="white"/>
<path d="M24.1752 16.4981C24.2803 17.8643 23.2294 19.0203 21.8631 19.1254C20.4969 19.2305 19.3409 18.1796 19.2358 16.8133C19.1307 15.4471 20.1816 14.2911 21.5479 14.186C22.9141 14.0809 24.0701 15.1318 24.1752 16.4981Z" fill="#EEBCC5"/>
<path d="M22.4939 48.5527H2.10547V65.1577H22.4939V48.5527Z" fill="#3E3577"/>
<path d="M54.6546 37.6228L48.1387 40.04L50.661 28.1643L57.0717 25.7471L54.6546 37.6228Z" fill="#3E3577"/>
<path d="M16.5045 67.2608C15.9791 67.2608 15.4536 67.1557 14.9281 66.9455C11.8804 65.5793 1.89633 60.4297 0.214806 54.7545C-1.46671 49.0794 7.04598 40.0412 14.5077 33.4202C15.9791 32.054 18.3962 32.1591 19.6574 33.7355C21.0236 35.2068 20.9185 37.624 19.3421 38.8852C13.3517 44.245 7.88675 50.6558 7.25618 52.8628C8.09694 54.5443 13.1415 58.0125 17.9759 60.2195C19.8676 61.0602 20.6032 63.2672 19.7625 65.1589C19.237 66.4201 17.8708 67.2608 16.5045 67.2608Z" fill="#E2B354"/>
<path d="M44.774 55.3837C42.7772 55.3837 41.0957 53.7022 41.0957 51.7054C41.0957 49.8137 42.567 48.2373 44.4587 48.0271C46.1403 47.0812 49.7135 41.1959 52.1307 35.4157C52.8663 33.524 55.0733 32.6832 56.965 33.4189C58.8568 34.1545 59.6975 36.3615 58.9619 38.2532C53.0765 52.4411 48.032 55.3837 44.774 55.3837Z" fill="#EEBCC5"/>
<path d="M16.5023 67.2601C15.9768 67.2601 15.4513 67.155 14.9259 66.9448C11.8781 65.5786 1.89409 60.4289 0.212569 54.7538C-0.312906 52.8621 0.738046 50.7602 2.73485 50.2347C4.62656 49.6041 6.72846 50.7602 7.35903 52.6519C7.77941 54.2283 13.1393 57.9066 18.1838 60.3238C20.0755 61.1646 20.8112 63.3716 19.9704 65.2633C19.2348 66.4193 17.8685 67.2601 16.5023 67.2601Z" fill="#EEBCC5"/>
<path d="M25.9633 25.2218H25.8582C25.7531 25.2218 25.648 25.3269 25.5429 25.3269H25.4378C25.2277 25.432 25.1226 25.432 24.9124 25.5371C24.9124 25.5371 24.9124 25.5371 24.8073 25.5371C24.8073 25.5371 24.8073 25.5371 24.7022 25.5371C24.492 25.6422 24.2818 25.7472 24.0716 25.8523C23.9665 25.8523 23.9665 25.9574 23.8614 25.9574C23.6512 26.0625 23.441 26.2727 23.1258 26.3778C23.0207 26.3778 22.9156 26.4829 22.8105 26.588C22.6003 26.6931 22.4952 26.7982 22.285 26.9033C22.1799 27.0084 21.9697 27.1135 21.8646 27.1135C21.8646 27.1135 21.7595 27.2186 21.6544 27.2186C21.5493 27.3237 21.3391 27.4288 21.234 27.4288C21.129 27.5339 20.9188 27.6389 20.8137 27.744L20.7086 27.8491C20.6035 27.8491 20.6035 27.9542 20.4984 27.9542C20.1831 28.1644 19.9729 28.3746 19.6576 28.4797C19.5525 28.4797 19.5525 28.5848 19.4474 28.5848C19.1321 28.795 18.7118 29.1103 18.3965 29.3205C19.2372 30.2663 20.3933 31.002 21.0239 31.6326C22.8105 33.4192 24.5971 34.9956 27.2245 35.416C27.9601 35.5211 28.8009 35.5211 29.5366 35.3109C30.9028 34.8905 31.9537 33.8396 32.5843 32.4733C33.2149 31.2122 33.32 29.7409 33.4251 28.3746L31.7435 26.2727C31.7435 26.2727 28.6958 24.6963 26.5939 24.6963C26.3837 25.1167 26.1735 25.2218 25.9633 25.2218Z" fill="#EEBCC5"/>
<path d="M34.8967 10.8239C35.3171 11.6646 35.212 12.2952 34.4763 12.7156C33.7407 13.1359 32.7948 13.241 31.8489 13.241C30.798 13.241 29.642 13.3461 28.6961 13.8716C26.8044 14.9226 25.7534 17.4448 23.6515 17.7601C22.9159 16.499 21.6547 15.448 20.7089 14.3971C19.763 13.3461 18.1866 11.4544 18.7121 10.1933C19.1324 9.24743 20.0783 8.61684 20.814 7.77608C21.97 6.40984 22.1802 4.51816 23.6515 3.46721C24.7025 2.73154 26.0687 2.73151 27.2248 3.0468C28.3808 3.36208 29.5369 4.20284 30.798 4.09775C38.0496 3.25699 39.9413 8.51176 40.0464 9.66781C40.4667 13.5563 37.8394 13.6614 36.9986 14.3971C36.5782 13.7665 36.7884 12.1901 34.8967 10.8239Z" fill="#3E3577"/>
<path d="M21.7592 17.5505C21.7592 17.8658 21.549 18.1811 21.1286 18.1811C20.8133 18.1811 20.498 17.9709 20.498 17.5505C20.498 17.2352 20.7082 16.9199 21.1286 16.9199C21.4439 16.9199 21.7592 17.2352 21.7592 17.5505Z" fill="#F9FBFC"/>
</svg>
