<svg width="153" height="150" viewBox="0 0 153 150" fill="none" xmlns="http://www.w3.org/2000/svg">
<path opacity="0.1" d="M152.344 144.621C152.344 147.586 131.103 150 104.896 150C81.9307 150 62.8273 148.207 58.3446 145.724C54.8963 145.793 51.2412 145.862 47.517 145.862C21.2413 145.862 0 143.448 0 140.483C0 137.517 21.2413 135.104 47.517 135.104C70.4135 135.104 89.5169 136.966 93.9996 139.379C97.5168 139.31 101.103 139.241 104.896 139.241C131.103 139.31 152.344 141.655 152.344 144.621Z" fill="#A6B7E2"/>
<path d="M22.8231 16.5518L6.27148 138.827" stroke="#7266B9" stroke-width="4" stroke-miterlimit="10" stroke-linecap="round" stroke-linejoin="round"/>
<path d="M49.4431 16.5518L32.1328 144.62" stroke="#7266B9" stroke-width="4" stroke-miterlimit="10" stroke-linecap="round" stroke-linejoin="round"/>
<path d="M71.791 16.5518L89.1013 144.62" stroke="#7266B9" stroke-width="4" stroke-miterlimit="10" stroke-linecap="round" stroke-linejoin="round"/>
<path d="M91.2382 82.2755H22.8247L14.5488 0H82.9623L91.2382 82.2755Z" fill="#F7F7FB"/>
<path d="M93.7897 82.2744H19.2383V89.102H93.7897V82.2744Z" fill="#3E3577"/>
<path d="M91.3754 112.137H36.548L5.51367 107.792" stroke="#7266B9" stroke-width="4" stroke-miterlimit="10" stroke-linecap="round" stroke-linejoin="round"/>
<path d="M42.7525 48.5527H35.6491L32.6836 20.208H39.787L42.7525 48.5527Z" fill="#4EAF9D"/>
<path d="M54.4095 48.5527H47.306L45.375 28.5527H52.4784L54.4095 48.5527Z" fill="#EEBCC5"/>
<path d="M66.0662 48.5513H58.9628L56.7559 26.4824H63.8593L66.0662 48.5513Z" fill="#BC9371"/>
<path d="M77.6528 48.5511H70.5494L69.377 34.0684H76.4804L77.6528 48.5511Z" fill="#A6B7E2"/>
<path d="M26.7559 13.3809L30.5489 48.6221H81.3073" stroke="#3E3577" stroke-miterlimit="10"/>
<path d="M42.4805 52.8955H66.8252" stroke="#3E3577" stroke-miterlimit="10"/>
<path d="M42.9629 54.9648H53.4456" stroke="#3E3577" stroke-miterlimit="10"/>
<path d="M55.7207 54.9648H67.3069" stroke="#3E3577" stroke-miterlimit="10"/>
<path d="M43.9297 61.3779H62.8951" stroke="#3E3577" stroke-miterlimit="10"/>
<path d="M43.2383 59.3096H64.5486" stroke="#3E3577" stroke-miterlimit="10"/>
<path d="M44.5469 65.1025H56.6847" stroke="#3E3577" stroke-miterlimit="10"/>
<path d="M58.8242 65.1025H65.8587" stroke="#3E3577" stroke-miterlimit="10"/>
<path d="M44.5469 67.1729H60.4089" stroke="#3E3577" stroke-miterlimit="10"/>
<path d="M44.9609 71.2402H69.3057" stroke="#3E3577" stroke-miterlimit="10"/>
<path d="M45.4473 73.3096H59.7231" stroke="#3E3577" stroke-miterlimit="10"/>
<path d="M61.7207 73.3096H69.7896" stroke="#3E3577" stroke-miterlimit="10"/>
<path d="M57.584 13.5859H81.9287" stroke="#3E3577" stroke-miterlimit="10"/>
<path d="M58.8242 17.5859H69.9966" stroke="#3E3577" stroke-miterlimit="10"/>
<path d="M58.0664 15.6553H72.3422" stroke="#3E3577" stroke-miterlimit="10"/>
<path d="M74.3418 15.6553H82.4107" stroke="#3E3577" stroke-miterlimit="10"/>
<path d="M40.2729 56.0681H36.9626L36.5488 52.7578H39.8592L40.2729 56.0681Z" fill="#4EAF9D"/>
<path d="M40.894 62.1375H37.5837L37.1699 58.8271H40.4802L40.894 62.1375Z" fill="#EEBCC5"/>
<path d="M41.5171 68.2078H38.2068L37.793 64.8975H41.1033L41.5171 68.2078Z" fill="#BC9371"/>
<path d="M42.1343 74.2752H38.824L38.4102 70.9648H41.6515L42.1343 74.2752Z" fill="#A6B7E2"/>
<path d="M81.1706 36.484C78.8258 32.1392 73.1707 32.484 69.9983 35.7254C69.8603 35.8633 70.0672 36.0702 70.2051 35.9323C72.3431 34.0702 75.0327 32.8978 77.8603 34.0012C80.412 35.0357 81.5844 37.7254 81.7223 40.346C81.9292 45.0357 78.8258 49.3115 74.2051 50.2081C69.5844 51.0357 65.1707 48.1391 64.2052 43.5184C63.1017 38.415 67.3086 33.7943 71.3776 31.3116C71.5155 31.2426 71.3775 31.0357 71.2396 31.1047C67.6534 33.3116 63.9293 36.9667 63.5845 41.3805C63.3086 45.1736 65.6534 48.8977 69.1707 50.277C72.9637 51.7253 77.5155 50.5529 79.9982 47.3805C82.412 44.415 83.0327 39.8633 81.1706 36.484Z" fill="white"/>
<path d="M118.965 139.308C118.965 139.308 114.964 141.17 113.24 142.204C111.723 143.17 110.344 144.135 110.619 144.549C111.24 145.377 124.413 144.273 124.826 143.446C125.102 142.894 124.757 141.79 124.619 140.618C124.55 139.997 123.655 138.826 123.793 138.274C120.483 115.654 119.103 99.9292 119.31 97.5844C119.517 95.2395 128.068 75.3769 121.171 61.1011C119.033 56.6184 110.344 55.9977 108.206 64.1356C105.24 75.5149 116.482 97.2395 116.207 99.9981C115.931 102.688 119.103 138.688 118.965 139.308Z" fill="#E0BC99"/>
<path d="M110.617 144.619C111.238 145.446 124.411 144.343 124.824 143.515C125.1 142.963 124.755 141.86 124.617 140.688C122.686 141.653 113.376 144.343 113.169 142.894C113.169 142.687 113.169 142.481 113.238 142.274C111.721 143.17 110.342 144.205 110.617 144.619Z" fill="#3E3577"/>
<path d="M121.723 60.2736C126.067 65.8598 124.412 82.067 120.067 97.5838C119.792 98.8941 123.654 125.377 123.102 133.446C123.102 133.446 122.758 135.17 118.62 134.481C118.62 134.481 108.964 103.239 108.205 97.3079C107.447 91.3769 104.688 72.4805 106.964 63.9288C109.171 55.3771 117.378 54.5495 121.723 60.2736Z" fill="#8379E0"/>
<path d="M88.2729 140.687C88.2729 140.687 83.7901 142.893 82.2039 144.066C80.7556 145.1 79.4453 146.204 79.7901 146.618C80.4798 147.376 94.8245 145.169 95.1693 144.273C95.3762 143.721 94.9624 142.618 94.7555 141.514C94.6176 140.893 94.1349 140.687 93.7901 139.653C93.859 109.585 104.342 101.17 104.342 98.8247C104.411 96.4799 119.79 72.2041 111.859 58.48C109.376 54.2042 100.687 54.2042 99.1693 62.4111C97.0314 73.9972 93.1004 97.2391 92.7556 99.9977C92.1349 104.205 88.3418 139.998 88.2729 140.687Z" fill="#E0BC99"/>
<path d="M79.79 146.618C80.4797 147.377 94.8244 145.17 95.1693 144.273C95.3761 143.722 94.9623 142.618 94.7554 141.515C92.8934 142.618 82.4797 146.204 82.2038 144.756C82.1348 144.549 82.2038 144.342 82.2727 144.135C80.7555 145.101 79.4452 146.204 79.79 146.618Z" fill="#3E3577"/>
<path d="M99.0323 60.6192C103.446 52.3433 112.963 52.0675 116.136 66.4122C118.825 78.6881 106.826 91.7229 106.55 93.7918C106.274 95.8608 98.9639 115.447 93.7915 135.171C93.7915 135.171 91.3777 136.205 88.6191 134.826C88.6191 134.826 91.7226 103.723 92.0674 98.6194C92.2743 94.4815 97.4461 63.5847 99.0323 60.6192Z" fill="#8379E0"/>
<path d="M112.613 30.7581C114.406 40.827 113.509 49.4477 112.75 52.0684C109.648 54.8273 91.0266 55.9307 88.6128 55.1721C86.199 54.3445 85.5092 52.3442 86.8885 50.758C90.3382 49.3101 102.269 49.8618 102.752 48.9653C103.028 48.4825 103.302 37.4478 103.44 31.034C103.647 25.9306 111.44 23.9306 112.613 30.7581Z" fill="#EEBCC5"/>
<path d="M90.5453 55.3159C90.0625 55.3159 88.6151 55.8612 85.8564 55.5163C84.822 55.1715 84.6143 54.5806 83.235 54.052C82.4764 53.7877 80.7522 54.7128 79.9936 54.911C79.7867 54.9771 79.5798 54.845 79.235 54.7128C79.166 54.6467 79.166 54.6467 79.0971 54.5806C78.8902 54.4485 78.6833 54.2502 78.4764 54.052C78.4074 53.9859 78.4074 53.9859 78.3384 53.9198C78.1315 53.7216 77.9936 53.5233 77.8557 53.3251C77.7867 53.259 77.7867 53.259 77.7867 53.1929C77.6488 52.9947 77.5798 52.7964 77.7178 52.6643C77.9936 52.2678 81.166 49.2941 83.9246 49.6906C85.3729 49.8888 88.9591 50.1532 89.166 50.2192C89.3039 50.2853 90.5453 55.3159 90.5453 55.3159Z" fill="#EEBCC5"/>
<path d="M80.7493 51.2106C79.7148 51.8715 78.7493 52.5984 77.7838 53.3253C77.7148 53.2592 77.7148 53.2592 77.7148 53.1931C78.5424 52.334 79.5769 51.6732 80.6803 51.1446C80.7493 51.0785 80.8183 51.1446 80.7493 51.2106Z" fill="#BC9371"/>
<path d="M81.302 51.9378C80.2675 52.5986 79.371 53.2595 78.4055 53.9864C78.3366 53.9203 78.3365 53.9203 78.2676 53.8542C79.0952 52.9951 80.1296 52.3343 81.2331 51.8057C81.302 51.8057 81.371 51.9378 81.302 51.9378Z" fill="#BC9371"/>
<path d="M81.9922 52.6663C81.0267 53.2611 80.1301 53.988 79.2336 54.6488C79.1646 54.5827 79.1647 54.5827 79.0957 54.5166C79.9233 53.6576 80.8888 53.0628 81.9922 52.5342C81.9922 52.5342 82.0612 52.6663 81.9922 52.6663Z" fill="#BC9371"/>
<path d="M85.8556 55.5181C85.5108 55.2537 83.9871 55.0495 83.0906 55.1817C82.194 55.3138 81.8492 55.1156 82.1941 54.5208C82.5389 53.9922 83.7802 53.7939 83.7802 53.7939L85.8556 55.5181Z" fill="#EEBCC5"/>
<path d="M102.684 31.378C102.615 34.4124 102.615 45.24 102.408 45.5158C102.27 45.7917 99.9254 46.6883 98.8909 47.24C97.8564 47.7917 102.27 54.2744 106.408 55.5848C107.167 55.8606 111.856 54.4124 113.374 52.6193C116.408 49.0331 114.684 32.2056 113.443 28.9642C111.029 22.9642 102.96 22.8263 102.684 31.378Z" fill="#FFE6C5"/>
<path d="M109.167 54.0677C109.443 54.2746 105.236 57.1022 104.616 57.1022C104.064 57.1022 98.6156 52.4125 98.1328 47.516C98.1328 47.2401 101.443 44.5505 101.719 44.6195C102.133 44.6884 105.098 51.3091 109.167 54.0677Z" fill="#FFE6C5"/>
<path d="M108.823 53.654C105.927 51.5161 104.203 48.4816 102.547 45.3782C102.478 45.3092 102.34 45.3782 102.409 45.4471C103.789 48.6885 105.513 52.0678 108.754 53.8609C108.823 53.8609 108.961 53.723 108.823 53.654Z" fill="#EFC18F"/>
<path d="M108.824 18.1383C108.686 19.7935 108.755 24.3452 108.548 25.5866C108.41 26.3452 103.721 29.5176 101.858 29.7245C98.6861 30.0693 101.376 26.3452 101.307 25.7935V25.7245C101.238 25.3797 101.169 25.0349 101.169 24.69C101.1 23.8625 101.1 23.1728 101.1 22.9659C101.1 22.9659 95.1688 24.759 93.5137 20.3452C92.2723 17.1039 92.5482 9.1039 95.1688 6.62116C98.1344 3.79358 106.203 4.62116 108.134 6.55219C109.721 8.13839 109.031 15.2418 108.824 18.1383Z" fill="#EEBCC5"/>
<path d="M92.8246 12.8955C92.8246 12.8955 91.3764 17.7231 91.9281 17.792C92.4798 17.861 93.3763 17.5162 93.3763 17.5162L92.8246 12.8955Z" fill="#EEBCC5"/>
<path d="M108.825 19.1722C106.48 19.5171 103.377 19.1033 101.239 14.6895C101.239 14.6895 98.1357 13.5861 96.6874 9.44815C96.6874 9.44815 96.9633 10.8275 96.2736 10.9654C95.584 11.1033 92.5495 8.89643 93.0322 6.13782C93.446 3.86197 98.2736 0.620603 105.17 4.34472C105.17 4.34472 109.791 5.17231 110.894 8.06885C112.136 11.5171 110.136 18.9654 108.825 19.1722Z" fill="#3E3577"/>
<path d="M120.067 58.3425C120.067 58.3425 123.929 33.6529 112.067 23.9978C108.688 21.2392 104.067 23.584 101.447 25.9288C98.826 28.2736 95.1709 39.377 94.964 41.1701C94.4122 45.446 98.1364 47.7218 98.1364 47.7218L99.3777 60.4804C99.3088 60.4114 106.964 65.6528 120.067 58.3425Z" fill="#EFC260"/>
<path d="M98.6867 50.2056C98.6177 49.447 98.6177 48.4815 98.2729 47.7918C97.7901 46.7574 96.6177 46.3436 95.997 45.3781C92.7557 40.4126 97.5142 33.9298 99.2384 29.2402C99.2384 29.1712 99.1694 29.1712 99.1694 29.2402C97.7211 31.7919 96.4108 34.4816 95.3074 37.2402C94.4798 39.3781 93.997 41.6539 94.6177 43.9298C94.8246 44.7574 95.2384 45.516 95.7901 46.2057C96.1349 46.6194 96.5487 46.8953 96.8936 47.2401C97.7901 48.2056 97.928 48.9643 98.1349 50.2056C98.5487 53.378 98.8936 56.6194 99.4453 59.7918C99.4453 59.9297 99.7211 59.9297 99.7211 59.7228C99.5142 56.5504 99.0315 53.378 98.6867 50.2056Z" fill="#E2B354"/>
<path d="M70.2015 38.3436C70.2705 38.3436 70.4084 38.3436 70.4774 38.2747L81.0291 33.1712C81.3049 33.0333 81.4428 32.6885 81.3049 32.3436C81.167 32.0678 80.8222 31.9299 80.4774 32.0678L69.9257 37.1712C69.6498 37.3091 69.5119 37.654 69.6498 37.9988C69.7877 38.2057 69.9946 38.3436 70.2015 38.3436Z" fill="#544B43"/>
<path d="M108.273 36.6876C103.445 42.4807 93.6519 47.9289 91.1692 48.6876C87.8588 49.722 75.9968 42.6186 75.4451 40.3428C74.8244 38.0669 78.0658 35.0325 79.7899 35.929C81.514 36.8945 87.7898 41.6533 88.6174 41.3775C89.8588 40.8947 97.8588 33.0325 102.755 29.7911C106.617 27.1014 112.824 31.2394 108.273 36.6876Z" fill="#EEBCC5"/>
<path d="M79.9282 36.1362C79.1696 35.7914 77.0317 33.5845 75.9972 33.1707C74.9627 32.688 70.8248 33.5156 70.5489 33.5156C70.2731 33.5156 68.7559 35.3776 68.7559 35.7224C68.7559 36.0673 69.9283 37.4466 70.1352 37.5155C70.3421 37.6535 71.5834 37.7914 71.7903 38.4121C71.9972 38.9638 75.0317 40.7569 76.342 41.5845C77.5834 42.481 79.9282 36.1362 79.9282 36.1362Z" fill="#EEBCC5"/>
<path d="M92.3398 36.3432C91.7191 36.6191 93.7191 43.3777 98.8915 45.3087C99.2363 45.4466 106.34 40.3432 109.305 36.0674C112.271 31.7226 108.34 26.5502 102.34 29.5157C96.3398 32.4812 92.3398 36.3432 92.3398 36.3432Z" fill="#EFC260"/>
<path d="M101.443 44.0672C101.719 44.2741 97.4434 47.0328 96.8917 47.0328C96.34 47.0328 90.9607 42.2742 90.5469 37.3776C90.5469 37.1018 93.8572 34.4121 94.202 34.55C94.5469 34.55 97.4434 41.2397 101.443 44.0672Z" fill="#EFC260"/>
<path d="M108.968 38.688C108.002 39.1018 107.175 39.6535 106.209 40.0673C106.83 39.5156 107.382 38.9639 108.002 38.3432C108.14 38.2053 107.933 37.9984 107.796 38.1363C106.347 39.2398 105.106 40.6191 103.589 41.7225C102.14 42.8259 100.554 43.8604 99.2439 45.1708C99.1749 45.2397 99.2439 45.3777 99.3818 45.3087C101.865 43.9984 104.002 42.2053 106.002 40.2742C107.037 39.9294 108.209 39.5156 109.037 38.826C109.175 38.757 109.106 38.6191 108.968 38.688Z" fill="#E2B354"/>
<path d="M103.102 29.1702C101.171 29.8598 99.2404 30.8253 97.5852 32.0667C97.5162 32.1357 97.5852 32.2046 97.6542 32.1357C99.5162 31.2391 101.309 30.2046 103.171 29.3081C103.24 29.2391 103.24 29.1012 103.102 29.1702Z" fill="#EFC18F"/>
<path d="M100.689 43.1014C98.2757 40.7566 96.3446 38.1359 94.9653 35.0325C94.8964 34.9635 94.7584 35.0325 94.8274 35.1014C95.9308 38.3428 97.8619 41.2393 100.551 43.3083C100.689 43.3773 100.827 43.2393 100.689 43.1014Z" fill="#E2B354"/>
<path d="M101.031 2.82632C104.548 1.72287 111.583 3.92976 112.686 7.37802C113.859 10.8263 118.066 31.24 118.548 36.6193C119.031 41.9986 116.135 49.7916 109.79 48.4813C100.962 46.6882 101.238 34.6883 101.721 22.4814C102.204 10.2746 101.031 2.82632 101.031 2.82632Z" fill="#3E3577"/>
<path d="M100.271 14.2742C100.271 14.2742 101.03 12.9639 102.685 12.9639C104.616 12.9639 105.858 15.8604 103.651 17.3087C102.685 17.9294 101.306 17.6535 101.306 17.6535L100.271 14.2742Z" fill="#EEBCC5"/>
</svg>
