<svg width="547" height="430" viewBox="0 0 547 430" fill="none" xmlns="http://www.w3.org/2000/svg">
<path opacity="0.27" d="M299.972 415.85C414.745 415.85 507.787 410.846 507.787 404.672C507.787 398.499 414.745 393.494 299.972 393.494C185.199 393.494 92.1572 398.499 92.1572 404.672C92.1572 410.846 185.199 415.85 299.972 415.85Z" fill="#2A0661"/>
<path d="M277.606 50.6543L264.299 54.8991V80.2265L277.606 75.9817V50.6543Z" fill="url(#paint0_linear)"/>
<path d="M300.255 34.3828L287.09 38.4861V73.0106L300.255 68.9073V34.3828Z" fill="url(#paint1_linear)"/>
<path d="M324.18 18.5352L310.873 22.6385V65.6526L324.18 61.4078V18.5352Z" fill="url(#paint2_linear)"/>
<path d="M521.094 30.4209L461.779 18.8184L468.291 40.0424L109.004 154.37L112.826 166.68L472.113 52.3524L478.767 73.718L521.094 30.4209Z" fill="white"/>
<path d="M355.89 228.795C348.387 218.466 337.487 212.099 325.879 210.118C314.27 208.137 301.813 210.684 291.479 218.183C281.145 225.683 274.774 236.578 272.792 248.18C270.811 259.783 273.359 272.234 280.862 282.563C288.364 292.892 299.265 299.259 310.873 301.24C322.481 303.08 334.939 300.674 345.273 293.175C355.607 285.676 361.977 274.781 363.959 263.178C365.941 251.576 363.393 239.125 355.89 228.795Z" fill="url(#paint3_radial)"/>
<path d="M311.156 201.629C299.548 199.648 287.09 202.195 276.756 209.694L303.794 247.19L296.292 292.751C307.9 294.732 320.357 292.185 330.691 284.686C341.026 277.187 347.396 266.292 349.378 254.689C351.36 243.087 348.811 230.635 341.309 220.306C333.806 209.836 322.905 203.61 311.156 201.629Z" fill="url(#paint4_linear)"/>
<path d="M258.07 239.832C256.088 251.434 258.636 263.886 266.139 274.215C273.642 284.544 284.542 290.911 296.15 292.892L303.653 247.331L276.615 209.835C266.422 217.193 260.052 228.088 258.07 239.832Z" fill="url(#paint5_linear)"/>
<path d="M160.816 56.3147L152.18 49.0985C150.623 47.825 149.915 45.9856 150.057 44.0047C150.198 43.1557 150.198 42.1653 150.198 41.3163C150.198 22.9221 134.626 8.20674 116.082 9.48018C100.368 10.6121 87.6274 23.3466 86.4949 39.0524C85.2208 57.7296 99.9434 73.1525 118.347 73.1525C128.539 73.1525 137.741 68.3417 143.545 60.8425C144.536 59.569 145.81 58.7201 147.367 58.5786L160.816 56.3147Z" fill="url(#paint6_linear)"/>
<path d="M106.173 36.9299C105.606 36.9299 105.04 36.3639 105.04 35.798C105.04 35.232 105.606 34.666 106.173 34.666H132.503C133.07 34.666 133.636 35.232 133.636 35.798C133.636 36.3639 133.07 36.9299 132.503 36.9299H106.173Z" fill="#762BE0"/>
<path d="M106.173 50.3723C105.606 50.3723 105.04 49.8063 105.04 49.2403C105.04 48.6744 105.606 48.1084 106.173 48.1084H132.503C133.07 48.1084 133.636 48.6744 133.636 49.2403C133.636 49.8063 133.07 50.3723 132.503 50.3723H106.173Z" fill="#762BE0"/>
<path d="M110.986 43.8635C110.42 43.8635 109.854 43.2975 109.854 42.7316C109.854 42.1656 110.42 41.5996 110.986 41.5996H126.841C127.407 41.5996 127.974 42.1656 127.974 42.7316C127.974 43.2975 127.407 43.8635 126.841 43.8635H110.986Z" fill="#762BE0"/>
<path opacity="0.85" d="M103.483 202.478V190.734L91.8749 187.055C91.0255 183.942 89.7515 180.971 88.1943 178.141L93.8568 167.246L85.5046 158.898L74.6042 164.558C71.7729 163.001 68.8001 161.728 65.6857 160.879L62.0051 149.276H50.2553L46.5747 160.879C43.4603 161.728 40.3459 163.001 37.6562 164.558L26.7559 158.898L18.4036 167.246L24.0662 178.141C22.509 180.971 21.2349 183.942 20.3855 187.055L8.77734 190.734V202.478L20.5271 206.157C21.3765 209.27 22.6505 212.241 24.2077 215.071L18.5452 225.966L26.8974 234.314L37.7978 228.654C40.4875 230.211 43.4603 231.484 46.7163 232.333L50.3969 244.077H62.1467L65.8273 232.333C68.9417 231.484 71.9145 230.211 74.7458 228.654L85.6461 234.314L93.9984 225.966L88.3358 215.071C89.893 212.383 91.1671 209.411 92.0165 206.157L103.483 202.478ZM56.0594 218.75C43.7434 218.75 33.834 208.845 33.834 196.535C33.834 184.225 43.7434 174.321 56.0594 174.321C68.3754 174.321 78.2849 184.225 78.2849 196.535C78.2849 208.845 68.3754 218.75 56.0594 218.75Z" fill="white"/>
<path opacity="0.85" d="M530.579 143.899V135.41L522.085 132.721C521.519 130.458 520.528 128.335 519.396 126.213L523.501 118.289L517.555 112.346L509.769 116.45C507.787 115.318 505.664 114.327 503.257 113.761L500.568 105.413H492.074L489.384 113.761C487.119 114.327 484.854 115.318 482.872 116.45L475.086 112.346L469.141 118.289L473.246 126.213C472.113 128.194 471.123 130.316 470.556 132.721L462.062 135.41V143.899L470.556 146.588C471.123 148.852 472.113 150.974 473.246 152.955L469.141 160.879L475.086 166.821L483.014 162.718C484.996 163.85 487.119 164.699 489.384 165.407L492.074 173.896H500.568L503.257 165.407C505.522 164.841 507.646 163.85 509.628 162.718L517.555 166.821L523.501 160.879L519.396 152.955C520.528 150.974 521.519 148.852 522.085 146.588L530.579 143.899ZM496.179 155.643C487.261 155.643 480.183 148.427 480.183 139.655C480.183 130.74 487.402 123.666 496.179 123.666C505.098 123.666 512.176 130.882 512.176 139.655C512.317 148.427 505.098 155.643 496.179 155.643Z" fill="white"/>
<path opacity="0.85" d="M536.1 211.533V206.156L530.862 204.459C530.437 203.044 529.871 201.629 529.163 200.355L531.711 195.403L527.889 191.583L522.934 194.129C521.66 193.422 520.244 192.856 518.829 192.432L517.13 187.196H511.751L510.052 192.432C508.636 192.856 507.221 193.422 505.947 194.129L500.992 191.583L497.17 195.403L499.718 200.355C499.01 201.629 498.444 202.902 498.019 204.459L492.781 206.156V211.533L498.161 213.231C498.585 214.646 499.152 216.061 499.859 217.193L497.311 222.145L501.133 225.966L506.088 223.419C507.362 224.126 508.636 224.692 510.052 225.117L511.751 230.493H517.13L518.829 225.117C520.244 224.692 521.66 224.126 522.793 223.419L527.747 225.966L531.57 222.145L529.021 217.193C529.729 215.92 530.295 214.646 530.72 213.231L536.1 211.533ZM514.582 218.891C509.061 218.891 504.531 214.363 504.531 208.845C504.531 203.327 509.061 198.799 514.582 198.799C520.103 198.799 524.633 203.327 524.633 208.845C524.633 214.363 520.103 218.891 514.582 218.891Z" fill="white"/>
<path d="M85.7874 334.775C79.5586 328.549 77.0104 319.493 74.887 311.004C72.7636 302.373 70.7817 293.317 65.1191 286.525C80.2664 287.091 96.4046 287.94 108.862 296.571C115.799 301.382 121.178 308.457 123.868 316.522C125.283 320.908 125.991 325.578 125.142 330.106C121.603 348.075 95.8383 344.821 85.7874 334.775Z" fill="url(#paint7_linear)"/>
<path d="M124.575 342.84C124.575 342.84 124.717 342.699 124.575 342.84C124.717 342.699 124.717 342.557 124.717 342.557C121.744 338.878 119.055 335.624 116.506 332.653L116.365 332.511L116.506 332.37C116.506 332.37 116.506 332.37 116.506 332.228C117.073 327.983 116.365 323.455 115.657 319.069C115.515 318.362 115.515 317.796 115.374 317.088C114.808 313.268 114.241 309.731 113.534 306.335C113.534 306.335 113.534 306.193 113.392 306.193H113.25C113.25 306.193 113.25 306.193 113.25 306.335C113.817 309.589 114.383 312.985 114.949 316.664C115.091 317.371 115.091 317.937 115.232 318.645C115.94 322.889 116.648 327.417 116.223 331.662V332.228L115.799 331.804C111.269 326.568 107.022 321.899 102.916 317.654V317.513C102.492 311.428 101.925 305.203 99.8019 299.685C99.8019 299.543 99.6604 299.543 99.6604 299.543H99.5188C101.642 304.92 102.208 311.146 102.492 316.522V317.23L102.067 316.805C101.359 316.098 100.793 315.532 100.085 314.824C91.5913 306.476 82.1065 298.836 71.914 291.902C71.914 291.902 71.914 291.902 71.7724 291.902C71.7724 291.902 71.6309 291.902 71.6309 292.044C71.6309 292.185 71.6309 292.185 71.6309 292.185C80.5493 298.27 88.9016 304.92 96.546 311.994L97.2538 312.702L96.2628 312.419C95.8382 312.277 95.2719 312.277 94.8472 312.136C94.7057 312.136 94.4225 312.136 94.281 311.994C92.0159 311.57 89.8925 311.287 87.7691 311.146C84.6547 310.863 81.5403 310.58 78.4259 310.297C78.2843 310.297 78.2843 310.438 78.2843 310.438C78.2843 310.438 78.2843 310.58 78.4259 310.58C81.2572 310.721 84.0884 311.004 87.0612 311.287C89.1847 311.57 91.4497 311.711 93.7147 312.136C93.9978 312.136 94.1394 312.136 94.4225 312.277C95.555 312.419 96.9707 312.702 97.9616 313.268H98.1032C98.811 313.975 99.5188 314.541 100.227 315.249C104.615 319.635 109.145 324.446 113.817 329.823L114.1 330.106L113.675 330.247C113.392 330.247 112.967 330.389 112.684 330.389C109.145 330.813 105.606 330.672 102.067 330.389C101.359 330.389 100.651 330.247 99.9435 330.247C96.4044 330.106 93.1485 329.823 90.0341 329.54C89.8925 329.54 89.8925 329.681 89.8925 329.681C89.8925 329.681 89.8925 329.823 90.0341 329.823C93.29 330.106 96.6875 330.389 100.368 330.53C101.076 330.53 101.642 330.672 102.35 330.672C105.889 330.813 109.428 331.096 112.826 330.672C113.25 330.672 113.817 330.53 114.241 330.389H114.383L114.524 330.53C117.639 334.351 120.895 338.171 124.575 342.84Z" fill="#6F21C1"/>
<path d="M125.142 311.004C126.982 302.373 133.211 295.298 139.298 288.931C145.385 282.564 151.897 275.913 154.587 267.424C162.373 280.441 170.442 294.449 169.876 309.589C169.593 318.079 166.478 326.427 161.241 332.936C158.409 336.614 154.729 339.727 150.482 341.425C133.494 348.358 122.311 325.012 125.142 311.004Z" fill="url(#paint8_linear)"/>
<path d="M139.581 347.934H139.723C139.864 347.934 139.864 347.793 139.864 347.793C141.422 343.265 142.696 339.303 143.828 335.483V335.2H144.111C144.111 335.2 144.111 335.2 144.253 335.2C148.075 333.36 151.614 330.248 154.87 327.276C155.436 326.852 155.861 326.427 156.286 326.003C159.259 323.456 161.807 321.05 164.355 318.645C164.355 318.645 164.496 318.504 164.355 318.504H164.213C164.213 318.504 164.213 318.504 164.072 318.504C161.665 320.767 159.117 323.173 156.286 325.578C155.861 326.003 155.295 326.427 154.87 326.852C151.614 329.682 148.217 332.794 144.394 334.634L143.828 334.917L143.97 334.351C145.952 327.701 147.509 321.616 148.924 315.815V315.674H149.066C153.879 312.136 158.975 308.174 162.373 303.364C162.514 303.222 162.373 303.222 162.373 303.081H162.231C158.834 307.75 153.879 311.57 149.632 314.825L149.066 315.249L149.208 314.542C149.349 313.693 149.632 312.702 149.774 311.853C152.18 300.251 153.454 288.082 153.738 275.772C153.738 275.772 153.738 275.772 153.738 275.631H153.596C153.454 275.631 153.454 275.772 153.454 275.772C153.313 286.526 152.18 297.279 150.34 307.467L150.198 308.457L149.915 307.608C149.774 307.184 149.632 306.76 149.349 306.335C149.208 306.194 149.208 306.052 149.066 305.769C148.217 303.647 147.226 301.666 146.235 299.826C144.819 296.996 143.403 294.308 141.846 291.62C141.705 291.478 141.705 291.62 141.705 291.62C141.705 291.62 141.563 291.761 141.705 291.761C143.12 294.167 144.394 296.713 145.81 299.402C146.801 301.241 147.792 303.364 148.783 305.486C148.924 305.628 148.924 305.911 149.066 306.052C149.632 307.184 150.199 308.316 150.057 309.589V309.731C149.915 310.721 149.632 311.57 149.491 312.561C148.217 318.645 146.659 325.012 144.536 331.945L144.394 332.37L144.111 332.087C143.828 331.804 143.687 331.521 143.403 331.379C141.138 328.691 139.298 325.578 137.599 322.465C137.316 321.899 136.892 321.192 136.608 320.626C134.91 317.513 133.211 314.683 131.795 311.995C131.795 311.853 131.654 311.995 131.654 311.995C131.654 311.995 131.512 312.136 131.654 312.136C133.211 315.108 134.768 317.938 136.608 321.192C136.892 321.758 137.316 322.324 137.599 322.89C139.298 325.861 141.138 329.116 143.262 331.662C143.545 332.087 143.97 332.37 144.253 332.794L144.394 332.936V333.077C142.979 337.605 141.422 342.416 139.581 347.934Z" fill="#6F21C1"/>
<path d="M130.521 343.123C130.521 343.123 158.551 307.891 141.422 301.524C128.54 296.713 144.112 278.885 135.193 277.328C126.275 275.772 126.133 280.158 124.859 268.556C123.585 256.812 113.817 257.095 106.739 247.332C99.6607 237.568 85.646 247.19 92.5826 262.613C99.5192 278.036 88.7604 262.896 86.0707 271.527C83.381 280.017 109.712 299.684 102.492 299.826C95.2723 299.967 92.0163 306.617 97.1126 313.692C108.579 329.681 130.521 343.123 130.521 343.123Z" fill="url(#paint9_linear)"/>
<path d="M132.22 351.613C132.22 351.613 132.361 351.471 132.22 351.471C130.238 338.312 127.265 321.05 122.594 304.212V304.071V303.929C125.142 299.401 127.124 294.449 128.822 289.638C129.389 288.082 130.096 286.525 130.663 284.969C130.663 284.827 130.663 284.827 130.663 284.827C130.521 284.827 130.38 284.827 130.238 284.827C130.238 284.827 130.238 284.827 130.238 284.969C129.672 286.525 128.964 288.082 128.398 289.638C126.699 294.025 125 298.694 122.594 302.939L122.169 303.646L121.886 302.939C119.904 295.864 117.497 288.789 114.524 281.149L114.383 281.007L114.524 280.866C114.524 280.866 114.524 280.866 114.524 280.724C115.799 275.347 116.648 269.688 116.931 264.169C116.931 264.028 116.931 264.028 116.789 264.028C116.648 264.028 116.506 264.028 116.506 264.028V264.169C116.223 269.263 115.515 274.357 114.383 279.309L114.1 280.3L113.675 279.309C110.844 272.234 107.729 264.877 104.19 257.095C104.19 256.953 104.049 256.953 104.049 256.953C103.907 256.953 103.907 256.953 103.766 257.095C103.624 257.236 103.624 257.236 103.766 257.378C108.72 268.131 112.826 278.036 116.223 287.516L116.506 288.082L115.94 287.94C109.003 285.959 102.633 282.705 96.9706 278.319H96.8291C96.8291 278.319 96.6875 278.46 96.6875 278.602C96.6875 278.743 96.6875 278.743 96.8291 278.743C102.633 283.412 109.287 286.667 116.506 288.648H116.648V288.789C118.488 294.166 120.187 299.118 121.603 304.071V304.212V304.354C121.603 304.495 121.603 304.495 121.603 304.495V304.637C122.877 309.023 124.009 313.692 125.142 318.786L125.283 319.635L124.575 319.069C117.922 314.258 110.985 309.872 103.907 305.769C103.766 305.769 103.766 305.769 103.624 305.769C103.624 305.769 103.483 305.91 103.483 306.052C103.483 306.052 103.483 306.193 103.624 306.193C111.127 310.438 118.347 315.107 125.283 320.201L125.425 320.342V320.484C127.407 329.54 129.247 339.444 131.087 351.754C131.087 351.896 131.087 351.896 131.229 351.896C131.937 351.613 132.078 351.613 132.22 351.613Z" fill="#6F21C1"/>
<path d="M148.5 333.077H96.9708C91.3083 333.077 86.9199 337.746 87.9108 342.982L96.5462 390.665C97.254 394.768 101.076 397.74 105.606 397.74H139.723C144.253 397.74 148.075 394.768 148.783 390.665L157.418 342.982C158.551 337.746 154.162 333.077 148.5 333.077Z" fill="url(#paint10_linear)"/>
<path opacity="0.45" d="M148.499 333.077H129.955C135.617 333.077 140.006 337.746 139.015 342.982L130.379 390.665C129.672 394.768 125.849 397.74 121.319 397.74H139.864C144.394 397.74 148.216 394.768 148.924 390.665L157.56 342.982C158.55 337.746 154.162 333.077 148.499 333.077Z" fill="#E5CCE2"/>
<path d="M297.425 151.823C297.425 151.823 311.015 143.758 309.599 147.012C308.184 150.266 306.485 151.257 306.485 151.257C306.485 151.257 319.226 151.964 319.084 157.483C318.942 163.001 297.991 160.454 297.991 160.454L297.425 151.823Z" fill="url(#paint11_linear)"/>
<path d="M205.267 82.3486C205.267 82.3486 215.318 91.6872 218.574 97.064C221.122 101.167 233.013 126.636 238.251 137.248C239.95 140.644 243.206 142.908 246.887 143.474L297.283 151.681L297.708 160.312L241.082 161.019C237.968 161.019 234.995 160.17 232.306 158.614L195.924 136.824L205.267 82.3486Z" fill="url(#paint12_linear)"/>
<path d="M155.436 385.005C159.683 393.494 179.502 397.598 179.502 397.598C179.502 397.598 180.918 400.145 178.653 403.257C176.388 406.512 155.578 404.672 152.888 404.106C150.199 403.54 148.5 401.418 148.5 401.418C148.5 401.418 146.801 403.399 145.81 403.823C144.819 404.248 139.44 403.257 139.44 403.257C138.166 399.862 139.298 386.844 139.581 384.863H155.436V385.005Z" fill="url(#paint13_linear)"/>
<path d="M159.684 270.112C162.09 281.997 144.536 358.121 138.024 385.854H157.985C169.876 357.272 201.303 277.469 203.285 271.527C205.692 264.31 206.116 176.867 206.116 176.867C206.116 176.867 158.976 181.678 160.958 183.659C161.099 183.517 153.455 238.842 159.684 270.112Z" fill="url(#paint14_linear)"/>
<path d="M232.164 385.005C236.411 393.494 256.23 397.598 256.23 397.598C256.23 397.598 257.645 400.145 255.38 403.257C253.115 406.512 232.305 404.672 229.616 404.106C226.926 403.54 225.227 401.418 225.227 401.418C225.227 401.418 223.529 403.399 222.538 403.823C221.547 404.248 216.167 403.257 216.167 403.257C214.893 399.862 216.026 386.844 216.309 384.863H232.164V385.005Z" fill="url(#paint15_linear)"/>
<path d="M201.02 288.789C202.294 293.034 211.637 367.035 214.468 385.854H234.429C235.136 366.186 236.977 285.818 236.552 281.149C236.127 275.913 218.29 180.688 218.29 180.688L166.337 178.707C166.337 178.707 163.506 195.969 170.159 214.222C176.954 232.616 199.604 283.979 201.02 288.789Z" fill="url(#paint16_linear)"/>
<path d="M217.583 57.5881C217.158 66.3607 209.655 69.4736 200.029 69.6151L201.303 81.7836L182.192 79.8027C182.192 79.8027 183.041 71.1715 181.201 66.2192C189.695 67.0682 190.827 59.569 190.827 59.569C185.731 57.3051 187.288 51.7869 188.987 50.5134C190.686 49.0985 193.092 51.0794 193.092 51.0794C193.092 51.0794 195.641 60.2765 196.207 56.7392C196.773 53.6263 196.773 44.5707 201.02 44.1462C208.098 43.2972 210.08 42.0238 210.08 42.0238C211.779 41.1748 213.053 40.0429 214.044 38.6279C215.318 42.1653 217.866 50.6549 217.583 57.5881Z" fill="url(#paint17_linear)"/>
<path d="M193.092 51.079C193.092 51.079 190.686 49.0981 188.987 50.513C187.288 51.9279 185.731 57.3047 190.827 59.5686C190.827 59.5686 189.553 67.3508 180.776 66.2188C180.776 66.2188 169.593 42.7308 180.918 32.4018C192.526 21.9312 209.372 26.0346 213.194 17.5449C213.194 17.5449 221.547 36.5051 210.222 42.0234C210.222 42.0234 208.24 43.2968 201.162 44.1458C196.915 44.5703 196.915 53.6259 196.348 56.7387C195.641 60.2761 193.092 51.079 193.092 51.079Z" fill="url(#paint18_linear)"/>
<path d="M182.192 77.8213C182.192 77.8213 166.62 79.2362 169.168 116.308C171.716 153.379 158.692 190.592 158.692 190.592H221.405C221.405 190.592 221.405 126.495 218.149 107.677C214.893 88.9993 202.86 80.2267 202.86 80.2267L182.192 77.8213Z" fill="url(#paint19_linear)"/>
<path d="M200.312 94.5176C198.755 84.4715 187.572 79.3778 178.936 84.613C173.84 87.7259 158.693 102.441 149.067 136.4C148.5 138.381 148.642 140.645 149.633 142.484L183.042 216.768L196.915 214.221L176.388 142.201C176.388 142.343 203.851 116.308 200.312 94.5176Z" fill="url(#paint20_linear)"/>
<path opacity="0.45" d="M185.023 143.757C185.023 143.757 197.339 129.75 204.559 112.346C211.779 95.0835 194.508 84.1885 194.508 84.1885L194.225 84.7545C197.339 86.8769 199.746 90.1312 200.453 94.376C203.993 116.166 176.529 142.201 176.529 142.201L189.695 190.45H195.64L185.023 143.757Z" fill="#E5CCE2"/>
<path opacity="0.45" d="M232.588 158.756L220.98 151.823C220.555 134.702 219.706 116.45 218.29 107.819C216.025 94.3767 209.089 86.0286 205.408 82.4912C206.399 83.3402 207.532 84.4721 208.806 85.7456C212.062 88.9999 216.733 93.8107 218.715 97.2066C219.423 98.3385 220.697 100.885 222.254 104.14C224.519 113.903 230.182 145.315 232.588 158.756Z" fill="#E5CCE2"/>
<path d="M183.041 216.91C183.041 216.91 184.174 235.021 194.083 231.626C203.992 228.23 196.914 214.363 196.914 214.363L183.041 216.91Z" fill="url(#paint21_linear)"/>
<path d="M434.74 78.5293C434.74 78.5293 449.463 89.1413 455.833 104.14C462.203 119.138 439.412 170.642 439.412 170.642L434.74 78.5293Z" fill="url(#paint22_linear)"/>
<path opacity="0.45" d="M434.74 78.5293C434.74 78.5293 449.463 89.1413 455.833 104.14C462.203 119.138 439.412 170.642 439.412 170.642L434.74 78.5293Z" fill="#E5CCE2"/>
<path d="M438.562 386.986C434.315 395.617 414.213 399.721 414.213 399.721C414.213 399.721 412.798 402.268 415.063 405.522C417.328 408.776 438.421 406.937 441.11 406.371C443.8 405.805 445.64 403.682 445.64 403.682C445.64 403.682 447.339 405.663 448.33 406.088C449.321 406.512 454.7 405.522 454.7 405.522C455.974 402.126 454.842 388.967 454.559 386.845H438.562V386.986Z" fill="url(#paint23_linear)"/>
<path d="M452.294 272.375C449.888 284.402 449.604 359.677 456.258 387.693H436.014C424.123 358.828 411.241 278.035 409.259 272.092C406.852 264.876 406.286 176.442 406.286 176.442C406.286 176.442 453.851 181.253 452.011 183.234C452.011 183.234 458.665 240.822 452.294 272.375Z" fill="url(#paint24_linear)"/>
<path d="M396.801 386.986C392.555 395.617 372.453 399.721 372.453 399.721C372.453 399.721 371.037 402.268 373.302 405.522C375.567 408.776 396.66 406.937 399.35 406.371C402.039 405.805 403.88 403.682 403.88 403.682C403.88 403.682 405.578 405.663 406.569 406.088C407.56 406.512 412.94 405.522 412.94 405.522C414.214 402.126 413.081 388.967 412.798 386.845H396.801V386.986Z" fill="url(#paint25_linear)"/>
<path d="M411.665 289.638C410.391 293.883 417.469 368.733 414.638 387.693H394.536C393.828 367.743 375.284 286.525 375.708 281.856C376.133 276.479 394.112 180.405 394.112 180.405L446.631 178.424C446.631 178.424 449.604 195.969 442.809 214.363C436.014 232.757 413.081 284.827 411.665 289.638Z" fill="url(#paint26_linear)"/>
<path d="M392.412 62.5396C393.686 71.3123 401.189 71.8782 410.816 71.1708L410.532 83.4807L429.643 79.8019C429.643 79.8019 428.086 71.1708 429.36 66.077C420.867 67.7749 419.026 60.2757 419.026 60.2757C423.981 57.4458 421.857 52.2106 420.017 50.9371C418.177 49.6637 415.912 51.9276 415.912 51.9276C415.912 51.9276 414.213 61.4077 413.222 58.0118C412.373 54.899 411.523 45.8433 407.135 45.7018C399.915 45.5604 397.792 44.4284 397.792 44.4284C395.951 43.7209 394.536 42.7305 393.545 41.457C392.979 44.9944 391.563 55.4649 392.412 62.5396Z" fill="url(#paint27_linear)"/>
<path d="M416.195 51.9281C416.195 51.9281 418.46 49.6642 420.3 50.9376C422.141 52.2111 424.264 57.5878 419.31 60.2762C419.31 60.2762 421.291 68.0584 430.068 66.0775C430.068 66.0775 440.119 38.9106 427.096 30.421C394.961 9.19691 384.06 39.3351 395.952 43.8629C395.952 43.8629 400.199 45.4194 407.418 45.7023C411.807 45.8438 412.515 54.8995 413.505 58.0123C414.496 61.4082 416.195 51.9281 416.195 51.9281Z" fill="url(#paint28_linear)"/>
<path d="M430.777 76.4062C430.777 76.4062 446.49 77.8212 443.942 115.317C441.394 152.813 460.505 203.468 460.505 203.468C440.403 209.411 418.885 209.411 398.783 203.468L388.874 200.638C388.874 200.638 391.281 125.505 394.537 106.544C397.793 87.5843 409.967 78.8116 409.967 78.8116L430.777 76.4062Z" fill="url(#paint29_linear)"/>
<path d="M419.169 83.4808C428.512 79.519 438.846 86.0277 438.988 96.2153C438.988 102.158 434.741 122.816 411.241 149.134C409.826 150.69 407.844 151.681 405.862 151.822L325.171 163.425L321.065 150.124L391.564 129.183C391.564 129.325 398.784 92.2534 419.169 83.4808Z" fill="url(#paint30_linear)"/>
<path d="M321.915 152.813C321.915 152.813 308.325 146.304 310.165 149.559C312.005 152.813 313.704 153.662 313.704 153.662C313.704 153.662 301.105 155.784 301.813 161.303C302.521 166.962 324.463 161.727 324.463 161.727L321.915 152.813Z" fill="url(#paint31_linear)"/>
<path opacity="0.45" d="M439.413 112.912C434.175 137.108 420.868 161.728 420.868 161.728L391.281 157.2C391.281 156.068 391.281 155.077 391.281 153.946L405.579 151.965C407.703 151.823 409.684 150.833 410.959 149.276C434.6 122.817 438.988 102.3 438.846 96.216C438.846 92.3957 437.289 89.1413 435.024 86.5944C435.166 86.4529 435.166 86.3114 435.166 86.1699C435.166 86.3114 444.651 88.7168 439.413 112.912Z" fill="#E5CCE2"/>
<defs>
<linearGradient id="paint0_linear" x1="264.312" y1="65.4466" x2="277.609" y2="65.4466" gradientUnits="userSpaceOnUse">
<stop stop-color="white"/>
<stop offset="0.5286" stop-color="#F9EAF7"/>
</linearGradient>
<linearGradient id="paint1_linear" x1="287.027" y1="53.7006" x2="300.324" y2="53.7006" gradientUnits="userSpaceOnUse">
<stop stop-color="white"/>
<stop offset="0.5286" stop-color="#F9EAF7"/>
</linearGradient>
<linearGradient id="paint2_linear" x1="310.851" y1="42.0776" x2="324.148" y2="42.0776" gradientUnits="userSpaceOnUse">
<stop stop-color="white"/>
<stop offset="0.5286" stop-color="#F9EAF7"/>
</linearGradient>
<radialGradient id="paint3_radial" cx="0" cy="0" r="1" gradientUnits="userSpaceOnUse" gradientTransform="translate(318.388 255.729) scale(46.228 46.2054)">
<stop stop-color="#2A0661"/>
<stop offset="1" stop-color="white"/>
</radialGradient>
<linearGradient id="paint4_linear" x1="276.72" y1="247.228" x2="349.924" y2="247.228" gradientUnits="userSpaceOnUse">
<stop stop-color="white"/>
<stop offset="0.5286" stop-color="#F9EAF7"/>
</linearGradient>
<linearGradient id="paint5_linear" x1="206.735" y1="218.734" x2="377.422" y2="289.888" gradientUnits="userSpaceOnUse">
<stop stop-color="#8114C6"/>
<stop offset="1" stop-color="#2A0661"/>
</linearGradient>
<linearGradient id="paint6_linear" x1="152.974" y1="94.6459" x2="73.3116" y2="-28.0937" gradientUnits="userSpaceOnUse">
<stop stop-color="white"/>
<stop offset="1" stop-color="#F9EAF7"/>
</linearGradient>
<linearGradient id="paint7_linear" x1="117.13" y1="345.401" x2="70.3962" y2="269.686" gradientUnits="userSpaceOnUse">
<stop stop-color="#9B36F2"/>
<stop offset="1" stop-color="#FC0BE5"/>
</linearGradient>
<linearGradient id="paint8_linear" x1="140.757" y1="333.453" x2="161.199" y2="270.236" gradientUnits="userSpaceOnUse">
<stop stop-color="#FC0BE5"/>
<stop offset="1" stop-color="#9B36F2"/>
</linearGradient>
<linearGradient id="paint9_linear" x1="142.919" y1="362.771" x2="102.033" y2="257.848" gradientUnits="userSpaceOnUse">
<stop stop-color="#FC0BE5"/>
<stop offset="1" stop-color="#EE8DFF"/>
</linearGradient>
<linearGradient id="paint10_linear" x1="176.527" y1="425.968" x2="91.0138" y2="321.283" gradientUnits="userSpaceOnUse">
<stop stop-color="white"/>
<stop offset="0.5286" stop-color="#F9EAF7"/>
</linearGradient>
<linearGradient id="paint11_linear" x1="312.097" y1="157.706" x2="298.448" y2="150.7" gradientUnits="userSpaceOnUse">
<stop stop-color="#F7B17C"/>
<stop offset="1" stop-color="#FFD3B6"/>
</linearGradient>
<linearGradient id="paint12_linear" x1="276.111" y1="209.166" x2="200.176" y2="40.7521" gradientUnits="userSpaceOnUse">
<stop stop-color="white"/>
<stop offset="1" stop-color="#F9EAF7"/>
</linearGradient>
<linearGradient id="paint13_linear" x1="159.49" y1="413.81" x2="159.49" y2="353.773" gradientUnits="userSpaceOnUse">
<stop stop-color="#2A0661"/>
<stop offset="1" stop-color="#8114C6"/>
</linearGradient>
<linearGradient id="paint14_linear" x1="124.426" y1="310.55" x2="213.668" y2="244.536" gradientUnits="userSpaceOnUse">
<stop stop-color="#8114C6"/>
<stop offset="1" stop-color="#2A0661"/>
</linearGradient>
<linearGradient id="paint15_linear" x1="236.158" y1="413.81" x2="236.158" y2="353.773" gradientUnits="userSpaceOnUse">
<stop stop-color="#2A0661"/>
<stop offset="1" stop-color="#8114C6"/>
</linearGradient>
<linearGradient id="paint16_linear" x1="159.033" y1="325.981" x2="301.89" y2="174.981" gradientUnits="userSpaceOnUse">
<stop stop-color="#8114C6"/>
<stop offset="1" stop-color="#2A0661"/>
</linearGradient>
<linearGradient id="paint17_linear" x1="178.434" y1="82.6777" x2="214.387" y2="47.0636" gradientUnits="userSpaceOnUse">
<stop stop-color="#F7B17C"/>
<stop offset="1" stop-color="#FFD3B6"/>
</linearGradient>
<linearGradient id="paint18_linear" x1="146.954" y1="75.9334" x2="212.805" y2="27.5509" gradientUnits="userSpaceOnUse">
<stop stop-color="#8114C6"/>
<stop offset="1" stop-color="#2A0661"/>
</linearGradient>
<linearGradient id="paint19_linear" x1="226.478" y1="231.545" x2="150.543" y2="63.1313" gradientUnits="userSpaceOnUse">
<stop stop-color="white"/>
<stop offset="1" stop-color="#F9EAF7"/>
</linearGradient>
<linearGradient id="paint20_linear" x1="226.241" y1="231.652" x2="150.306" y2="63.2383" gradientUnits="userSpaceOnUse">
<stop stop-color="white"/>
<stop offset="1" stop-color="#F9EAF7"/>
</linearGradient>
<linearGradient id="paint21_linear" x1="209.135" y1="237.619" x2="177.808" y2="209.126" gradientUnits="userSpaceOnUse">
<stop stop-color="#F7B17C"/>
<stop offset="1" stop-color="#FFD3B6"/>
</linearGradient>
<linearGradient id="paint22_linear" x1="434.723" y1="124.528" x2="456.99" y2="124.528" gradientUnits="userSpaceOnUse">
<stop stop-color="white"/>
<stop offset="0.5286" stop-color="#F9EAF7"/>
</linearGradient>
<linearGradient id="paint23_linear" x1="434.135" y1="405.368" x2="437.529" y2="371.41" gradientUnits="userSpaceOnUse">
<stop stop-color="#2A0661"/>
<stop offset="1" stop-color="#8114C6"/>
</linearGradient>
<linearGradient id="paint24_linear" x1="440.756" y1="284.091" x2="407.681" y2="271.363" gradientUnits="userSpaceOnUse">
<stop stop-color="#8114C6"/>
<stop offset="1" stop-color="#2A0661"/>
</linearGradient>
<linearGradient id="paint25_linear" x1="392.348" y1="405.368" x2="395.742" y2="371.41" gradientUnits="userSpaceOnUse">
<stop stop-color="#2A0661"/>
<stop offset="1" stop-color="#8114C6"/>
</linearGradient>
<linearGradient id="paint26_linear" x1="346.397" y1="276.826" x2="427.067" y2="283.633" gradientUnits="userSpaceOnUse">
<stop stop-color="#2A0661"/>
<stop offset="1" stop-color="#8114C6"/>
</linearGradient>
<linearGradient id="paint27_linear" x1="409.438" y1="82.7042" x2="413.781" y2="37.6847" gradientUnits="userSpaceOnUse">
<stop stop-color="#F7B17C"/>
<stop offset="0.1846" stop-color="#F7AF79"/>
<stop offset="1" stop-color="#FFD3B6"/>
</linearGradient>
<linearGradient id="paint28_linear" x1="440.905" y1="60.4587" x2="386.375" y2="17.7391" gradientUnits="userSpaceOnUse">
<stop stop-color="#8114C6"/>
<stop offset="1" stop-color="#2A0661"/>
</linearGradient>
<linearGradient id="paint29_linear" x1="455.365" y1="226.732" x2="378.897" y2="70.003" gradientUnits="userSpaceOnUse">
<stop stop-color="white"/>
<stop offset="0.5286" stop-color="#F9EAF7"/>
</linearGradient>
<linearGradient id="paint30_linear" x1="434.905" y1="236.714" x2="358.437" y2="79.9848" gradientUnits="userSpaceOnUse">
<stop stop-color="white"/>
<stop offset="0.5286" stop-color="#F9EAF7"/>
</linearGradient>
<linearGradient id="paint31_linear" x1="326.449" y1="169.528" x2="311.501" y2="157.946" gradientUnits="userSpaceOnUse">
<stop stop-color="#F7B17C"/>
<stop offset="1" stop-color="#FFD3B6"/>
</linearGradient>
</defs>
</svg>
