<svg width="170" height="150" viewBox="0 0 170 150" fill="none" xmlns="http://www.w3.org/2000/svg">
<path d="M59.2029 57.1914H57.0371V137.084H59.2029V57.1914Z" fill="#3E3577"/>
<path d="M58.6634 135.233L19.832 145.275L20.3141 147.139L59.1455 137.097L58.6634 135.233Z" fill="#3E3577"/>
<path d="M57.0065 137.033L95.8379 147.076L96.3199 145.212L57.4885 135.17L57.0065 137.033Z" fill="#3E3577"/>
<path d="M58.0722 74.5974C56.7887 74.5974 55.8262 73.5546 55.8262 72.3514C55.8262 71.068 56.869 70.1055 58.0722 70.1055C59.3556 70.1055 60.3181 71.1482 60.3181 72.3514C60.3181 73.5546 59.3556 74.5974 58.0722 74.5974ZM58.0722 71.068C57.4304 71.068 56.869 71.6295 56.869 72.2712C56.869 72.9129 57.4304 73.4744 58.0722 73.4744C58.7139 73.4744 59.2754 72.9129 59.2754 72.2712C59.2754 71.6295 58.7139 71.068 58.0722 71.068Z" fill="#3E3577"/>
<path d="M114.55 2.16406H1.60938V71.0676H114.55V2.16406Z" fill="#F7F7FB"/>
<path d="M116.23 0H0V4.33154H116.23V0Z" fill="#3E3577"/>
<path d="M5.6167 63.3714C5.45628 63.3714 5.37606 63.2912 5.21564 63.211C4.975 62.9704 4.975 62.6495 5.21564 62.4891L28.3974 39.3074C28.638 39.0667 28.9589 39.0667 29.1193 39.3074L40.0283 50.2164L61.6058 28.639C61.7662 28.4785 62.1673 28.4785 62.3277 28.639L73.5576 39.8689L93.1297 20.2967C93.3704 20.0561 93.6912 20.0561 93.8517 20.2967L98.6645 25.1096L105.242 18.532C105.483 18.2914 105.803 18.2914 105.964 18.532C106.205 18.7727 106.205 19.0935 105.964 19.254L99.0656 26.1523C98.8249 26.393 98.5041 26.393 98.3436 26.1523L93.5308 21.3395L73.9587 40.9116C73.7181 41.1523 73.3972 41.1523 73.2368 40.9116L62.0069 29.6817L40.4294 51.2592C40.1888 51.4998 39.8679 51.4998 39.7075 51.2592L28.7984 40.3501L5.93756 63.211C5.85735 63.3715 5.69692 63.3714 5.6167 63.3714Z" fill="#4EAF9D"/>
<path d="M110.132 14.3594C108.768 17.2471 107.485 21.2577 107.325 24.3059L105.079 19.4128L100.186 17.1669C103.234 17.0064 107.244 15.723 110.132 14.3594Z" fill="#4EAF9D"/>
<path d="M110.847 65.374H6.24805V65.9355H110.847V65.374Z" fill="#989B9B"/>
<path d="M9.78025 64.0107H9.21875V67.1391H9.78025V64.0107Z" fill="#989B9B"/>
<path d="M15.5537 64.0098H14.9922V67.1381H15.5537V64.0098Z" fill="#989B9B"/>
<path d="M21.3271 64.0098H20.7656V67.1381H21.3271V64.0098Z" fill="#989B9B"/>
<path d="M27.0986 64.0098H26.5371V67.1381H27.0986V64.0098Z" fill="#989B9B"/>
<path d="M32.8857 64.0098H32.3242V67.1381H32.8857V64.0098Z" fill="#989B9B"/>
<path d="M38.6572 64.0098H38.0957V67.1381H38.6572V64.0098Z" fill="#989B9B"/>
<path d="M44.4287 64.0098H43.8672V67.1381H44.4287V64.0098Z" fill="#989B9B"/>
<path d="M50.208 64.0098H49.6465V67.1381H50.208V64.0098Z" fill="#989B9B"/>
<path d="M55.8994 64.0098H55.3379V67.1381H55.8994V64.0098Z" fill="#989B9B"/>
<path d="M61.6709 64.0098H61.1094V67.1381H61.6709V64.0098Z" fill="#989B9B"/>
<path d="M67.456 64.0098H66.8945V67.1381H67.456V64.0098Z" fill="#989B9B"/>
<path d="M73.2295 64.0098H72.668V67.1381H73.2295V64.0098Z" fill="#989B9B"/>
<path d="M79.0029 64.0098H78.4414V67.1381H79.0029V64.0098Z" fill="#989B9B"/>
<path d="M84.7783 64.0098H84.2168V67.1381H84.7783V64.0098Z" fill="#989B9B"/>
<path d="M90.5537 64.0098H89.9922V67.1381H90.5537V64.0098Z" fill="#989B9B"/>
<path d="M96.3271 64.0098H95.7656V67.1381H96.3271V64.0098Z" fill="#989B9B"/>
<path d="M102.099 64.0098H101.537V67.1381H102.099V64.0098Z" fill="#989B9B"/>
<path d="M107.882 64.0098H107.32V67.1381H107.882V64.0098Z" fill="#989B9B"/>
<path d="M5.85447 8.25879H5.29297V57.1891H5.85447V8.25879Z" fill="#989B9B"/>
<path d="M7.69845 55.0273H3.52734V55.5888H7.69845V55.0273Z" fill="#989B9B"/>
<path d="M7.69845 51.2578H3.52734V51.8193H7.69845V51.2578Z" fill="#989B9B"/>
<path d="M7.69845 47.4873H3.52734V48.0488H7.69845V47.4873Z" fill="#989B9B"/>
<path d="M7.69845 43.7188H3.52734V44.2802H7.69845V43.7188Z" fill="#989B9B"/>
<path d="M7.69845 39.9453H3.52734V40.5068H7.69845V39.9453Z" fill="#989B9B"/>
<path d="M7.69845 36.1768H3.52734V36.7383H7.69845V36.1768Z" fill="#989B9B"/>
<path d="M7.69845 32.4102H3.52734V32.9716H7.69845V32.4102Z" fill="#989B9B"/>
<path d="M7.69845 28.6377H3.52734V29.1992H7.69845V28.6377Z" fill="#989B9B"/>
<path d="M7.69845 24.8672H3.52734V25.4287H7.69845V24.8672Z" fill="#989B9B"/>
<path d="M7.69845 21.0977H3.52734V21.6592H7.69845V21.0977Z" fill="#989B9B"/>
<path d="M7.69845 17.3291H3.52734V17.8906H7.69845V17.3291Z" fill="#989B9B"/>
<path d="M7.69845 13.5557H3.52734V14.1172H7.69845V13.5557Z" fill="#989B9B"/>
<path d="M7.69845 9.78613H3.52734V10.3476H7.69845V9.78613Z" fill="#989B9B"/>
<path d="M57.1133 136.122L57.755 144.865H58.7978L59.1988 136.122H57.1133Z" fill="#3E3577"/>
<path d="M169.082 77.9668C169.162 78.5283 169.243 79.0898 169.082 79.6513C168.922 80.2128 168.36 80.6139 167.879 80.5336C167.558 80.4534 167.318 80.293 167.077 80.3732C166.756 80.4534 166.596 80.8545 166.355 81.1754C165.954 81.7369 165.072 81.7368 164.51 81.3358C164.35 81.1754 164.109 81.0149 163.949 81.0951C163.467 81.0951 163.307 81.8973 162.745 81.8973C162.344 81.8973 162.104 81.416 161.783 81.416C161.542 81.416 161.382 81.5764 161.221 81.5764C160.9 81.6566 160.58 81.416 160.339 81.1754C160.179 80.8545 160.098 80.5336 160.018 80.2128C159.938 79.6513 159.858 79.17 159.777 78.6085C159.697 78.2877 159.697 77.9668 159.697 77.646C159.858 77.0043 160.499 76.523 161.061 76.2021C162.184 75.5604 163.387 75.0791 164.67 74.9187C165.713 74.7583 166.916 74.8385 167.879 75.4C168.761 75.801 168.922 77.0845 169.082 77.9668Z" fill="#EEB399"/>
<path d="M134.83 43.6348C133.065 41.8701 130.258 41.7899 128.493 43.5546L117.023 54.7845L103.707 43.314C101.06 48.207 97.8516 50.1321 97.8516 50.1321L114.295 64.3299C115.178 65.0519 116.22 65.4529 117.263 65.4529C118.386 65.4529 119.509 65.0519 120.392 64.1695L134.83 49.9717C136.595 48.2872 136.595 45.4797 134.83 43.6348Z" fill="#A194EF"/>
<path d="M134.832 43.6348C133.068 41.8701 130.26 41.7899 128.496 43.5546L120.715 51.1749C121.517 53.9824 122.319 58.1535 122.239 62.3246L134.832 49.9717C136.597 48.2872 136.597 45.4797 134.832 43.6348Z" fill="#8379E0"/>
<path d="M99.4554 51.7381C99.3751 51.7381 99.3751 51.7381 99.2949 51.6579C99.2949 51.5777 99.2949 51.4975 99.3751 51.4975C103.947 49.8932 105.471 45.0804 105.471 45.0002C105.471 44.9199 105.552 44.8397 105.632 44.9199C105.712 44.9199 105.792 45.0002 105.712 45.0804C105.712 45.1606 104.188 50.1338 99.4554 51.7381Z" fill="#8379E0"/>
<path d="M127.291 78.3686C127.291 78.3686 117.103 124.411 120.071 147.513C120.071 147.513 124.002 150.24 129.537 147.513C129.537 147.513 133.949 98.6626 141.248 88.1546L150.873 146.871C150.873 146.871 151.435 150.24 159.617 146.229L153.681 75.8018L127.291 78.3686Z" fill="#3E3577"/>
<path d="M141.326 88.2338L140.524 88.1536C140.444 88.1536 140.444 88.1536 140.444 88.0734C139 84.9451 138.84 80.6938 138.84 80.6135C138.84 80.5333 138.92 80.4531 139 80.4531C139.08 80.4531 139.161 80.5333 139.161 80.6135C139.161 80.6938 139.321 84.7847 140.685 87.8328L141.166 87.913C141.086 86.9504 140.685 82.6991 141.006 80.6135C141.006 80.5333 141.086 80.4531 141.166 80.4531C141.246 80.4531 141.326 80.5333 141.326 80.6135C141.006 82.9397 141.487 87.9932 141.487 88.0734C141.487 88.1536 141.487 88.1536 141.407 88.2338C141.407 88.2338 141.326 88.2338 141.326 88.2338Z" fill="#45596D"/>
<path d="M125.128 49.8912L127.294 78.2868C127.294 78.2868 133.711 81.8162 142.775 80.6932C151.839 79.6505 153.845 75.6398 153.845 75.6398C153.845 75.6398 152.24 47.7254 152 47.4848C151.759 47.2442 150.636 38.0196 137.561 39.9447C124.486 41.8698 125.128 49.8912 125.128 49.8912Z" fill="#A194EF"/>
<path d="M148.227 52.8596C148.227 52.8596 151.676 63.8489 153.601 71.6296C153.28 66.2553 152.719 56.8703 152.398 51.5762L148.227 52.8596Z" fill="#8379E0"/>
<path d="M168.606 76.2807L165.157 57.3503C164.997 56.3075 164.435 55.3449 163.633 54.7032L149.836 43.2327C147.911 41.6284 145.104 41.8691 143.499 43.7942C141.895 45.7193 142.136 48.5268 144.061 50.1311L156.574 60.5588L159.702 77.885C159.702 77.885 163.232 76.3609 168.606 76.2807Z" fill="#A194EF"/>
<path d="M140.608 32.0049V39.946L136.918 43.2348L133.389 41.069V36.3364L140.608 32.0049Z" fill="#EEBCC5"/>
<path d="M139.647 36.0146L133.471 38.1002V40.5868C136.84 40.1055 139.647 36.0146 139.647 36.0146Z" fill="#EEBCC5"/>
<path d="M121.032 146.79L118.305 149.116C118.305 149.116 126.166 150.801 133.064 149.517L129.134 146.95L121.032 146.79Z" fill="#3E3577"/>
<path d="M151.436 145.586L148.709 148.714C148.709 148.714 153.361 150.399 160.26 149.115L159.538 145.746L151.436 145.586Z" fill="#3E3577"/>
<path d="M136.918 43.2354L135.635 45.722L137.56 47.5669L139.244 45.4011L136.918 43.2354Z" fill="#EEBCC5"/>
<path d="M136.84 46.924L137 75.48L139.487 77.9666L141.091 75.3998L138.123 46.8438L136.84 46.924Z" fill="#EEBCC5"/>
<path d="M135.156 46.763C135.076 46.763 135.076 46.763 135.076 46.6828L131.948 42.7524C131.948 42.6721 131.868 42.6721 131.948 42.5919C131.948 42.5117 132.509 41.3085 133.311 40.747C133.392 40.6668 133.472 40.747 133.552 40.8272C133.632 40.9074 133.552 40.9877 133.472 41.0679C132.83 41.4689 132.349 42.4315 132.269 42.6721L135.156 46.362L136.841 43.1534C136.841 43.0732 136.921 43.0732 136.921 43.0732C137.001 43.0732 137.001 43.0732 137.081 43.0732L140.049 45.8807L141.974 41.2283C141.894 40.9877 141.413 40.1855 140.531 39.8647C140.45 39.8647 140.45 39.7844 140.45 39.7042C140.45 39.624 140.531 39.624 140.611 39.624C141.814 40.0251 142.215 41.1481 142.295 41.2283V41.3085L140.21 46.2817C140.21 46.362 140.13 46.362 140.13 46.362C140.049 46.362 140.049 46.362 139.969 46.362L137.001 43.4743L135.317 46.763C135.317 46.763 135.237 46.763 135.156 46.763C135.237 46.763 135.237 46.763 135.156 46.763Z" fill="#F7F7FB"/>
<path d="M135.555 39.2228H132.266C129.459 39.2228 127.213 36.9768 127.213 34.1694V25.1052C127.213 22.2977 129.459 20.0518 132.266 20.0518H135.555C138.363 20.0518 140.609 22.2977 140.609 25.1052V34.0891C140.609 36.8966 138.282 39.2228 135.555 39.2228Z" fill="#EEBCC5"/>
<path d="M134.436 18.6084C133.714 18.6084 133.072 19.0095 132.671 19.571C131.628 19.0897 130.425 18.6084 129.543 19.2501C129.462 19.3303 129.382 19.4105 129.222 19.4105C129.142 19.4105 129.061 19.4105 128.981 19.4105C128.099 19.2501 127.216 19.0897 126.334 19.1699C125.452 19.3303 124.569 19.8918 124.409 20.7742C124.329 21.2554 124.409 21.6565 124.65 22.0576C125.452 23.7421 127.698 24.3838 129.543 23.9025C129.302 24.3036 129.543 24.8651 129.944 25.1859C130.345 25.4266 130.826 25.5068 131.307 25.4266C132.511 25.3463 133.794 25.0255 134.837 24.464C134.596 25.1859 135.238 25.9881 135.96 26.0683C136.281 26.0683 136.601 25.9078 137.003 25.9078C137.323 25.8276 137.724 25.9881 137.885 26.3089C137.965 26.4693 137.965 26.5495 137.965 26.71C137.965 27.6725 137.965 28.6351 137.885 29.5977C137.885 29.9185 137.885 30.3196 138.206 30.5602C138.607 30.8009 139.008 30.3998 139.249 30.0789C139.489 29.7581 139.97 29.357 140.291 29.5977C140.532 29.6779 140.612 29.9987 140.612 30.3196C140.612 30.5602 140.452 30.8009 140.291 31.1217C139.97 31.8436 139.73 32.6458 139.65 33.4479C139.65 33.7688 139.65 34.2501 139.89 34.4907C140.371 34.8918 141.093 34.5709 141.494 34.1698C142.377 33.3677 143.099 32.4051 143.339 31.2821C143.58 30.1592 143.42 28.8757 142.698 27.9934C142.537 27.833 142.457 27.6725 142.377 27.5121C142.297 27.2715 142.377 26.9506 142.377 26.6298C142.457 26.0683 142.377 25.587 142.216 25.0255C142.056 24.6244 141.896 24.2233 141.815 23.8223C141.815 23.5014 141.896 23.1806 141.896 22.7795C141.896 21.7367 141.013 20.8544 140.211 20.1325C139.97 19.8918 139.65 19.6512 139.329 19.6512C139.008 19.571 138.607 19.8116 138.527 20.1325C138.286 19.7314 138.045 19.3303 137.644 19.0897C137.243 18.849 136.842 18.6084 136.361 18.7688C135.96 18.849 135.719 19.2501 135.719 19.571C135.719 18.9293 135.077 18.6084 134.436 18.6084Z" fill="#171C27"/>
<path d="M142.132 31.1245C142.132 32.0068 141.41 32.7287 140.528 32.7287C139.646 32.7287 138.924 32.0068 138.924 31.1245C138.924 30.2421 139.646 29.5202 140.528 29.5202C141.41 29.44 142.132 30.2421 142.132 31.1245Z" fill="#EEBCC5"/>
<path d="M159.299 75.8812C159.219 75.8812 159.219 75.8812 159.139 75.801C159.139 75.7208 159.139 75.6405 159.219 75.6405C159.299 75.6405 164.112 73.555 168.203 74.1165C168.283 74.1165 168.363 74.1967 168.363 74.2769C168.363 74.3571 168.283 74.4373 168.203 74.4373C164.192 73.7956 159.46 75.8812 159.299 75.8812C159.379 75.8812 159.379 75.8812 159.299 75.8812Z" fill="#8379E0"/>
<path d="M144.535 89.4364H144.455C141.968 87.6717 136.674 88.0727 136.594 88.0727C136.514 88.0727 136.434 87.9925 136.434 87.9123C136.434 87.8321 136.514 87.7519 136.594 87.7519C136.835 87.7519 142.049 87.2706 144.615 89.1155C144.696 89.1957 144.696 89.2759 144.615 89.3562C144.615 89.4364 144.615 89.4364 144.535 89.4364Z" fill="#45596D"/>
<path d="M99.859 40.4256C99.5381 40.185 99.2172 40.0245 98.8964 39.9443C98.4953 39.9443 98.0942 40.185 98.0942 40.5058C98.014 41.0673 98.736 41.3882 98.9766 41.9497C99.137 42.3507 98.9766 42.832 98.736 43.1529C98.4953 43.4737 98.1745 43.7946 97.8536 44.0352C96.4098 45.4791 96.3296 48.0459 97.613 49.6502C97.8536 49.971 98.1745 50.2117 98.5755 50.2919C99.0568 50.3721 99.4579 50.0512 99.859 49.7304C100.902 48.9283 101.864 48.0459 102.666 47.0833C103.388 46.1208 104.431 44.5165 103.549 43.4737C102.506 42.2705 101.062 41.2278 99.859 40.4256Z" fill="#EEB399"/>
<path d="M100.902 42.1114C100.822 42.1114 100.742 42.1114 100.662 42.0312L82.1324 21.9778C82.0522 21.8174 82.0522 21.657 82.1324 21.5768C82.2929 21.4965 82.4533 21.4965 82.5335 21.5768L101.063 41.6302C101.143 41.7906 101.143 41.951 101.063 42.0312C101.063 42.0312 100.983 42.1114 100.902 42.1114Z" fill="#171C27"/>
<path d="M99.4625 48.691C99.3822 48.691 99.302 48.691 99.2218 48.691C99.1416 48.691 99.0614 48.6108 99.1416 48.5306C99.1416 48.4504 99.2218 48.3702 99.302 48.4504C99.5427 48.5306 99.7031 48.4504 99.8635 48.3702C100.104 48.1295 100.104 47.6482 100.024 47.4076C100.024 47.3274 100.024 47.3274 100.024 47.3274L100.104 47.2472C100.425 47.2472 100.666 47.0867 100.746 46.9263C100.906 46.6857 100.746 46.2846 100.746 46.2846C100.746 46.2044 100.746 46.2044 100.746 46.1242C100.746 46.044 100.826 46.044 100.906 46.044C101.147 46.1242 101.307 46.044 101.468 45.9637C101.628 45.8835 101.628 45.7231 101.628 45.7231C101.789 44.199 98.6603 43.3969 98.6603 43.3969C98.5801 43.3969 98.4999 43.3167 98.5801 43.2365C98.5801 43.1563 98.6603 43.0761 98.7405 43.1563C98.901 43.1563 102.109 44.0386 101.949 45.8033C101.949 45.8033 101.949 46.1242 101.708 46.2846C101.548 46.3648 101.388 46.445 101.147 46.445C101.227 46.6055 101.227 46.8461 101.067 47.0867C100.906 47.3274 100.666 47.4878 100.345 47.568C100.345 47.8087 100.345 48.2899 100.024 48.6108C99.9437 48.6108 99.7031 48.691 99.4625 48.691Z" fill="#B57359"/>
<path d="M100.906 46.2819H100.826C100.826 46.2819 98.4196 44.6776 97.5373 44.437C97.457 44.437 97.3768 44.3567 97.4571 44.2765C97.4571 44.1963 97.5373 44.1161 97.6175 44.1963C98.4998 44.437 100.906 46.0412 100.986 46.0412C101.067 46.1214 101.067 46.2017 101.067 46.2819C100.986 46.2819 100.986 46.2819 100.906 46.2819Z" fill="#B57359"/>
<path d="M100.183 47.4028C100.103 47.4028 100.103 47.4028 100.183 47.4028C100.103 47.4028 97.6166 45.7986 96.8947 45.6381C96.8145 45.6381 96.7343 45.5579 96.8145 45.4777C96.8145 45.3975 96.8947 45.3173 96.9749 45.3975C97.8573 45.5579 100.183 47.082 100.344 47.1622C100.424 47.2424 100.424 47.3226 100.424 47.4028C100.264 47.4028 100.183 47.4028 100.183 47.4028Z" fill="#B57359"/>
<path d="M99.2195 48.6885H99.1393C99.1393 48.6885 97.8558 47.5656 96.5724 47.1645C96.4922 47.1645 96.412 47.0843 96.4922 47.0041C96.4922 46.9238 96.5724 46.8436 96.6526 46.9239C98.0163 47.4051 99.2997 48.4479 99.2997 48.5281C99.3799 48.6083 99.3799 48.6886 99.2997 48.7688C99.2997 48.6083 99.2997 48.6885 99.2195 48.6885Z" fill="#B57359"/>
<path d="M101.625 44.9989C101.545 44.9989 101.545 44.9989 101.465 44.9186C101.385 44.7582 101.304 44.5176 101.385 44.2769C100.984 44.1165 100.583 43.9561 100.262 43.7956C99.8606 43.555 99.5397 43.2342 99.2991 42.9133C99.2189 42.7529 99.1387 42.5122 99.1387 42.3518C99.1387 42.1112 99.3793 41.8705 99.62 41.7101C99.8606 41.6299 100.181 41.6299 100.342 41.6299C101.064 41.7101 101.706 41.8705 102.267 42.1914C102.347 42.2716 102.347 42.3518 102.347 42.432C102.267 42.5122 102.187 42.5122 102.107 42.5122C101.545 42.1914 100.903 42.031 100.262 42.031C100.101 42.031 99.8606 42.0309 99.62 42.1112C99.4595 42.1914 99.2991 42.3518 99.2991 42.5122C99.2991 42.5924 99.2991 42.7529 99.3793 42.8331C99.5397 43.1539 99.8606 43.3946 100.181 43.6352C100.502 43.7957 100.903 43.9561 101.304 44.1165C101.385 44.1165 101.465 44.1967 101.465 44.2769C101.465 44.3571 101.465 44.4374 101.465 44.5176C101.385 44.678 101.465 44.7582 101.465 44.9186C101.866 44.8384 101.786 44.9186 101.625 44.9989C101.706 44.9989 101.706 44.9989 101.625 44.9989Z" fill="#B57359"/>
<path d="M140.374 39.7061L136.764 42.9146L133.555 40.9093L131.951 42.5135L135.16 46.5242L137.165 43.3157L139.973 46.1231L141.978 41.3103C141.978 41.3103 142.379 40.9093 141.176 40.1071C140.884 39.9129 140.374 39.7061 140.374 39.7061Z" fill="#F7F7FB"/>
</svg>
