<svg width="1200" height="448" viewBox="0 0 1200 448" fill="none" xmlns="http://www.w3.org/2000/svg">
<rect width="1200" height="448" rx="20" fill="#181818"/>
<line x1="1200" y1="374.5" y2="374.5" stroke="white" stroke-opacity="0.1"/>
<line x1="1200" y1="174.5" y2="174.5" stroke="white" stroke-opacity="0.1"/>
<line x1="1200" y1="274.5" y2="274.5" stroke="white" stroke-opacity="0.1"/>
<line x1="1200" y1="74.5" y2="74.5" stroke="white" stroke-opacity="0.1"/>
<line x1="562.5" y1="2.15669e-08" x2="562.5" y2="448" stroke="white" stroke-opacity="0.1"/>
<line x1="162.5" y1="2.15669e-08" x2="162.5" y2="448" stroke="white" stroke-opacity="0.1"/>
<line x1="762.5" y1="2.15669e-08" x2="762.5" y2="448" stroke="white" stroke-opacity="0.1"/>
<line x1="362.5" y1="2.15669e-08" x2="362.5" y2="448" stroke="white" stroke-opacity="0.1"/>
<line x1="962.5" y1="2.15669e-08" x2="962.5" y2="448" stroke="white" stroke-opacity="0.1"/>
<line x1="1162.5" y1="2.15669e-08" x2="1162.5" y2="448" stroke="white" stroke-opacity="0.1"/>
<line x1="62.5" y1="2.15669e-08" x2="62.5" y2="448" stroke="white" stroke-opacity="0.1"/>
<line x1="262.5" y1="2.15669e-08" x2="262.5" y2="448" stroke="white" stroke-opacity="0.1"/>
<line x1="462.5" y1="2.15669e-08" x2="462.5" y2="448" stroke="white" stroke-opacity="0.1"/>
<line x1="662.5" y1="2.15669e-08" x2="662.5" y2="448" stroke="white" stroke-opacity="0.1"/>
<line x1="862.5" y1="2.15669e-08" x2="862.5" y2="448" stroke="white" stroke-opacity="0.1"/>
<line x1="1062.5" y1="2.15669e-08" x2="1062.5" y2="448" stroke="white" stroke-opacity="0.1"/>
<rect width="1200" height="448" rx="20" fill="url(#paint0_radial_84_643)"/>
<defs>
<radialGradient id="paint0_radial_84_643" cx="0" cy="0" r="1" gradientUnits="userSpaceOnUse" gradientTransform="translate(600 224) rotate(90) scale(224 600)">
<stop stop-color="#181818" stop-opacity="0"/>
<stop offset="0.65" stop-color="#181818" stop-opacity="0.5"/>
<stop offset="1" stop-color="#181818"/>
</radialGradient>
</defs>
</svg>
