<svg width="142" height="15" viewBox="0 0 142 15" fill="none" xmlns="http://www.w3.org/2000/svg">
<path d="M17.208 14.5H13.23L12.105 11.899H5.13L4.005 14.5H0.018L6.165 0.999999H11.07L17.208 14.5ZM8.613 3.844L6.426 8.902H10.809L8.613 3.844ZM25.634 7.516H32.789V14.5H30.152L29.972 12.691C29.39 13.351 28.658 13.867 27.776 14.239C26.9 14.611 25.883 14.797 24.725 14.797C23.303 14.797 22.013 14.521 20.855 13.969C19.697 13.411 18.782 12.601 18.11 11.539C17.438 10.477 17.102 9.214 17.102 7.75C17.102 6.28 17.441 5.017 18.119 3.961C18.797 2.899 19.727 2.092 20.909 1.54C22.097 0.981999 23.438 0.702999 24.932 0.702999C26.378 0.702999 27.647 0.927999 28.739 1.378C29.837 1.828 30.716 2.452 31.376 3.25C32.042 4.048 32.474 4.969 32.672 6.013H28.91C28.79 5.563 28.547 5.173 28.181 4.843C27.821 4.513 27.362 4.261 26.804 4.087C26.252 3.907 25.631 3.817 24.941 3.817C24.095 3.817 23.366 3.967 22.754 4.267C22.142 4.561 21.671 5.002 21.341 5.59C21.011 6.178 20.846 6.898 20.846 7.75C20.846 8.614 21.023 9.346 21.377 9.946C21.737 10.546 22.247 10.999 22.907 11.305C23.573 11.611 24.362 11.764 25.274 11.764C26.198 11.764 27.008 11.626 27.704 11.35C28.406 11.068 28.946 10.666 29.324 10.144H25.634V7.516ZM44.3246 14.5L40.7066 9.64H38.7536V14.5H35.0186V0.999999H43.0376C44.0576 0.999999 44.9546 1.18 45.7286 1.54C46.5086 1.9 47.1116 2.41 47.5376 3.07C47.9696 3.724 48.1856 4.48 48.1856 5.338C48.1856 6.016 48.0476 6.634 47.7716 7.192C47.4956 7.744 47.0996 8.212 46.5836 8.596C46.0736 8.98 45.4706 9.259 44.7746 9.433L48.6536 14.5H44.3246ZM38.7536 3.772V6.904H42.5246C43.1126 6.904 43.5746 6.766 43.9106 6.49C44.2466 6.214 44.4146 5.83 44.4146 5.338C44.4146 4.846 44.2466 4.462 43.9106 4.186C43.5806 3.91 43.1186 3.772 42.5246 3.772H38.7536ZM54.2895 9.109L53.9115 11.476H62.4615V14.5H49.9065L50.9325 7.75L49.9065 0.999999H62.3715V4.024H53.9115L54.2895 6.391H61.8495V9.109H54.2895ZM72.3566 7.516H79.5116V14.5H76.8746L76.6946 12.691C76.1126 13.351 75.3806 13.867 74.4986 14.239C73.6226 14.611 72.6056 14.797 71.4476 14.797C70.0256 14.797 68.7356 14.521 67.5776 13.969C66.4196 13.411 65.5046 12.601 64.8326 11.539C64.1606 10.477 63.8246 9.214 63.8246 7.75C63.8246 6.28 64.1636 5.017 64.8416 3.961C65.5196 2.899 66.4496 2.092 67.6316 1.54C68.8196 0.981999 70.1606 0.702999 71.6546 0.702999C73.1006 0.702999 74.3696 0.927999 75.4616 1.378C76.5596 1.828 77.4386 2.452 78.0986 3.25C78.7646 4.048 79.1966 4.969 79.3946 6.013H75.6326C75.5126 5.563 75.2696 5.173 74.9036 4.843C74.5436 4.513 74.0846 4.261 73.5266 4.087C72.9746 3.907 72.3536 3.817 71.6636 3.817C70.8176 3.817 70.0886 3.967 69.4766 4.267C68.8646 4.561 68.3936 5.002 68.0636 5.59C67.7336 6.178 67.5686 6.898 67.5686 7.75C67.5686 8.614 67.7456 9.346 68.0996 9.946C68.4596 10.546 68.9696 10.999 69.6296 11.305C70.2956 11.611 71.0846 11.764 71.9966 11.764C72.9206 11.764 73.7306 11.626 74.4266 11.35C75.1286 11.068 75.6686 10.666 76.0466 10.144H72.3566V7.516ZM97.4346 14.5H93.4566L92.3316 11.899H85.3566L84.2316 14.5H80.2446L86.3916 0.999999H91.2966L97.4346 14.5ZM88.8396 3.844L86.6526 8.902H91.0356L88.8396 3.844ZM95.633 0.999999H109.664V4.321H104.516V14.5H100.781V4.321H95.633V0.999999ZM118.144 14.797C116.56 14.797 115.162 14.503 113.95 13.915C112.738 13.327 111.796 12.502 111.124 11.44C110.458 10.372 110.125 9.142 110.125 7.75C110.125 6.358 110.458 5.131 111.124 4.069C111.796 3.001 112.738 2.173 113.95 1.585C115.162 0.996999 116.56 0.702999 118.144 0.702999C119.728 0.702999 121.126 0.996999 122.338 1.585C123.55 2.173 124.489 3.001 125.155 4.069C125.827 5.131 126.163 6.358 126.163 7.75C126.163 9.142 125.827 10.372 125.155 11.44C124.489 12.502 123.55 13.327 122.338 13.915C121.126 14.503 119.728 14.797 118.144 14.797ZM118.144 11.458C119.008 11.458 119.758 11.308 120.394 11.008C121.036 10.708 121.528 10.279 121.87 9.721C122.218 9.163 122.392 8.506 122.392 7.75C122.392 6.994 122.218 6.337 121.87 5.779C121.528 5.221 121.036 4.792 120.394 4.492C119.758 4.192 119.008 4.042 118.144 4.042C117.28 4.042 116.527 4.192 115.885 4.492C115.249 4.792 114.757 5.221 114.409 5.779C114.067 6.337 113.896 6.994 113.896 7.75C113.896 8.506 114.067 9.163 114.409 9.721C114.757 10.279 115.249 10.708 115.885 11.008C116.527 11.308 117.28 11.458 118.144 11.458ZM137.383 14.5L133.765 9.64H131.812V14.5H128.077V0.999999H136.096C137.116 0.999999 138.013 1.18 138.787 1.54C139.567 1.9 140.17 2.41 140.596 3.07C141.028 3.724 141.244 4.48 141.244 5.338C141.244 6.016 141.106 6.634 140.83 7.192C140.554 7.744 140.158 8.212 139.642 8.596C139.132 8.98 138.529 9.259 137.833 9.433L141.712 14.5H137.383ZM131.812 3.772V6.904H135.583C136.171 6.904 136.633 6.766 136.969 6.49C137.305 6.214 137.473 5.83 137.473 5.338C137.473 4.846 137.305 4.462 136.969 4.186C136.639 3.91 136.177 3.772 135.583 3.772H131.812Z" fill="#B8DF53"/>
</svg>
