<svg width="25" height="24" viewBox="0 0 25 24" fill="none" xmlns="http://www.w3.org/2000/svg">
<g clip-path="url(#clip0_42_587)">
<path d="M15.8788 6.66667C15.8788 6.66667 17.1706 6.0303 12.4849 6.0303C10.8067 6.0303 9.16625 6.52793 7.77092 7.46026C6.3756 8.39259 5.28807 9.71774 4.64587 11.2681C4.00368 12.8185 3.83565 14.5246 4.16304 16.1705C4.49043 17.8164 5.29853 19.3282 6.48516 20.5148C7.67178 21.7015 9.18364 22.5096 10.8295 22.837C12.4754 23.1644 14.1815 22.9963 15.7319 22.3541C17.2823 21.7119 18.6074 20.6244 19.5397 19.2291C20.4721 17.8338 20.9697 16.1933 20.9697 14.5152" stroke="black" stroke-width="2.2" stroke-miterlimit="10" stroke-linecap="square"/>
<path d="M12.4848 2L16.7273 6.24242L12.4848 10.4848" stroke="black" stroke-width="2.2" stroke-miterlimit="10" stroke-linecap="square"/>
</g>
<defs>
<clipPath id="clip0_42_587">
<rect width="24" height="24" fill="white" transform="translate(0.5)"/>
</clipPath>
</defs>
</svg>
