<svg width="1440" height="394" viewBox="0 0 1440 394" fill="none" xmlns="http://www.w3.org/2000/svg">
<g clip-path="url(#clip0_37_322)">
<rect x="672" width="714" height="107" fill="black"/>
<rect width="1440" height="394" rx="20" fill="black"/>
<line x1="1440" y1="74.5" y2="74.5" stroke="white" stroke-opacity="0.1"/>
<line x1="1440" y1="234.5" y2="234.5" stroke="white" stroke-opacity="0.1"/>
<line x1="1440" y1="154.5" y2="154.5" stroke="white" stroke-opacity="0.1"/>
<line x1="1440" y1="314.5" y2="314.5" stroke="white" stroke-opacity="0.1"/>
<line x1="202.5" y1="2.39739e-08" x2="202.5" y2="494" stroke="white" stroke-opacity="0.1"/>
<line x1="1082.5" y1="2.39739e-08" x2="1082.5" y2="494" stroke="white" stroke-opacity="0.1"/>
<line x1="522.5" y1="2.39739e-08" x2="522.5" y2="494" stroke="white" stroke-opacity="0.1"/>
<line x1="1402.5" y1="2.39739e-08" x2="1402.5" y2="494" stroke="white" stroke-opacity="0.1"/>
<line x1="842.5" y1="2.39739e-08" x2="842.5" y2="494" stroke="white" stroke-opacity="0.1"/>
<line x1="282.5" y1="2.39739e-08" x2="282.5" y2="494" stroke="white" stroke-opacity="0.1"/>
<line x1="1162.5" y1="2.39739e-08" x2="1162.5" y2="494" stroke="white" stroke-opacity="0.1"/>
<line x1="602.5" y1="2.39739e-08" x2="602.5" y2="494" stroke="white" stroke-opacity="0.1"/>
<line x1="42.4998" y1="2.39739e-08" x2="42.4997" y2="494" stroke="white" stroke-opacity="0.1"/>
<line x1="362.5" y1="2.39739e-08" x2="362.5" y2="494" stroke="white" stroke-opacity="0.1"/>
<line x1="682.5" y1="2.39739e-08" x2="682.5" y2="494" stroke="white" stroke-opacity="0.1"/>
<line x1="922.5" y1="2.39739e-08" x2="922.5" y2="494" stroke="white" stroke-opacity="0.1"/>
<line x1="1242.5" y1="2.39739e-08" x2="1242.5" y2="494" stroke="white" stroke-opacity="0.1"/>
<line x1="122.5" y1="2.39739e-08" x2="122.5" y2="494" stroke="white" stroke-opacity="0.1"/>
<line x1="442.5" y1="2.39739e-08" x2="442.5" y2="494" stroke="white" stroke-opacity="0.1"/>
<line x1="1322.5" y1="2.39739e-08" x2="1322.5" y2="494" stroke="white" stroke-opacity="0.1"/>
<line x1="762.5" y1="2.39739e-08" x2="762.5" y2="494" stroke="white" stroke-opacity="0.1"/>
<line x1="1002.5" y1="2.39739e-08" x2="1002.5" y2="494" stroke="white" stroke-opacity="0.1"/>
<rect width="1440" height="394" rx="20" fill="url(#paint0_radial_37_322)"/>
<rect width="1440" height="394" rx="20" fill="url(#paint1_radial_37_322)"/>
<path d="M1152.5 313L1158.31 328.693L1174 334.5L1158.31 340.307L1152.5 356L1146.69 340.307L1131 334.5L1146.69 328.693L1152.5 313Z" fill="white" fill-opacity="0.1"/>
<path d="M352.5 123L358.307 138.693L374 144.5L358.307 150.307L352.5 166L346.693 150.307L331 144.5L346.693 138.693L352.5 123Z" fill="white" fill-opacity="0.4"/>
<path d="M149 181L176.279 254.721L250 282L176.279 309.279L149 383L121.721 309.279L48 282L121.721 254.721L149 181Z" fill="white" fill-opacity="0.05"/>
<path d="M1230.53 120.032C1230.89 117.797 1234.11 117.797 1234.47 120.032L1237.73 139.87C1237.95 141.239 1239.47 141.969 1240.68 141.291L1258.22 131.467C1260.19 130.36 1262.2 132.872 1260.68 134.553L1247.2 149.466C1246.27 150.495 1246.64 152.135 1247.93 152.659L1266.54 160.246C1268.64 161.1 1267.93 164.234 1265.66 164.094L1245.6 162.852C1244.22 162.766 1243.17 164.082 1243.56 165.413L1249.23 184.698C1249.87 186.871 1246.98 188.266 1245.68 186.411L1234.14 169.949C1233.34 168.813 1231.66 168.813 1230.86 169.949L1219.32 186.411C1218.02 188.266 1215.13 186.871 1215.77 184.698L1221.44 165.413C1221.83 164.082 1220.78 162.766 1219.4 162.852L1199.34 164.094C1197.07 164.234 1196.36 161.1 1198.46 160.246L1217.07 152.659C1218.36 152.135 1218.73 150.495 1217.8 149.466L1204.32 134.553C1202.8 132.872 1204.81 130.36 1206.78 131.467L1224.32 141.291C1225.53 141.969 1227.05 141.239 1227.27 139.87L1230.53 120.032Z" fill="#D9D9D9" fill-opacity="0.1"/>
<path d="M454.413 292.362C454.708 290.546 457.292 290.546 457.587 292.362L461.286 315.152C461.466 316.264 462.685 316.858 463.658 316.307L483.594 305.02C485.183 304.121 486.794 306.163 485.573 307.528L470.25 324.66C469.501 325.496 469.803 326.829 470.836 327.255L491.996 335.97C493.682 336.665 493.107 339.211 491.29 339.098L468.483 337.671C467.37 337.601 466.526 338.67 466.841 339.752L473.292 361.906C473.806 363.672 471.478 364.805 470.433 363.298L457.317 344.388C456.677 343.464 455.323 343.464 454.683 344.388L441.567 363.298C440.522 364.805 438.194 363.672 438.708 361.906L445.159 339.752C445.474 338.67 444.63 337.601 443.517 337.671L420.71 339.098C418.893 339.211 418.318 336.665 420.004 335.97L441.164 327.255C442.197 326.829 442.499 325.496 441.75 324.66L426.427 307.528C425.206 306.163 426.817 304.121 428.406 305.02L448.342 316.307C449.315 316.858 450.534 316.264 450.714 315.152L454.413 292.362Z" fill="#D9D9D9" fill-opacity="0.1"/>
<path d="M1335.06 270.821C1335.23 269.726 1336.77 269.726 1336.94 270.821L1339.14 284.557C1339.25 285.228 1339.98 285.585 1340.55 285.253L1352.41 278.451C1353.35 277.908 1354.31 279.139 1353.58 279.962L1344.47 290.288C1344.03 290.792 1344.21 291.596 1344.82 291.852L1357.4 297.105C1358.41 297.524 1358.06 299.059 1356.98 298.99L1343.42 298.13C1342.76 298.088 1342.26 298.733 1342.45 299.385L1346.28 312.738C1346.59 313.802 1345.2 314.485 1344.58 313.577L1336.78 302.179C1336.4 301.622 1335.6 301.622 1335.22 302.179L1327.42 313.577C1326.8 314.485 1325.41 313.802 1325.72 312.738L1329.55 299.385C1329.74 298.733 1329.24 298.088 1328.58 298.13L1315.02 298.99C1313.94 299.059 1313.59 297.524 1314.6 297.105L1327.18 291.852C1327.79 291.596 1327.97 290.792 1327.53 290.288L1318.42 279.962C1317.69 279.139 1318.65 277.908 1319.59 278.451L1331.45 285.253C1332.02 285.585 1332.75 285.228 1332.86 284.557L1335.06 270.821Z" fill="#D9D9D9" fill-opacity="0.4"/>
</g>
<defs>
<radialGradient id="paint0_radial_37_322" cx="0" cy="0" r="1" gradientUnits="userSpaceOnUse" gradientTransform="translate(720 197) rotate(180) scale(720 1647.15)">
<stop stop-opacity="0"/>
<stop offset="0.394025" stop-opacity="0.5"/>
<stop offset="1"/>
</radialGradient>
<radialGradient id="paint1_radial_37_322" cx="0" cy="0" r="1" gradientUnits="userSpaceOnUse" gradientTransform="translate(720 197) rotate(90) scale(192.253 702.442)">
<stop stop-opacity="0"/>
<stop offset="0.686481" stop-opacity="0.5"/>
<stop offset="1"/>
</radialGradient>
<clipPath id="clip0_37_322">
<rect width="1440" height="394" fill="white"/>
</clipPath>
</defs>
</svg>
