<svg width="70" height="70" viewBox="0 0 70 70" fill="none" xmlns="http://www.w3.org/2000/svg">
<path d="M9.66332 19.1949C14.2171 15.5464 19.8804 13.5625 25.7155 13.5718C31.7872 13.5718 37.3675 15.6748 41.7677 19.1949L45.9193 15.0433L49.9595 19.0835L45.8078 23.2351C48.83 27.0186 50.7225 31.5785 51.2675 36.39C51.8126 41.2015 50.988 46.0692 48.8888 50.4328C46.7895 54.7964 43.5009 58.4786 39.4013 61.0557C35.3017 63.6328 30.5578 65 25.7155 65C20.8732 65 16.1293 63.6328 12.0297 61.0557C7.9301 58.4786 4.64145 54.7964 2.54219 50.4328C0.442938 46.0692 -0.381611 41.2015 0.163437 36.39C0.708485 31.5785 2.60098 27.0186 5.62313 23.2351L1.47151 19.0864L5.5117 15.0462L9.66332 19.1949ZM28.5728 36.43V23.558L14.2864 42.1446H22.8582V55.0023L37.1446 36.43H28.5728ZM14.2864 5H37.1446V10.7146H14.2864V5Z" fill="white" fill-opacity="0.6"/>
</svg>
