<svg width="71" height="70" viewBox="0 0 71 70" fill="none" xmlns="http://www.w3.org/2000/svg">
<g clip-path="url(#clip0_20_54)">
<path d="M61.3333 67.6667C61.3335 67.9731 61.2733 68.2766 61.1561 68.5598C61.0389 68.843 60.867 69.1003 60.6503 69.317C60.4336 69.5337 60.1763 69.7055 59.8931 69.8227C59.61 69.9399 59.3065 70.0002 59 70H12.3333C12.0269 70.0002 11.7234 69.9399 11.4402 69.8227C11.157 69.7055 10.8997 69.5337 10.683 69.317C10.4663 69.1003 10.2945 68.843 10.1773 68.5598C10.0601 68.2766 9.99983 67.9731 10 67.6667C10 60.8594 12.7042 54.331 17.5176 49.5176C22.331 44.7042 28.8594 42 35.6667 42C42.4739 42 49.0023 44.7042 53.8157 49.5176C58.6292 54.331 61.3333 60.8594 61.3333 67.6667ZM35.6667 9.33333C32.8977 9.33333 30.191 10.1544 27.8887 11.6928C25.5864 13.2311 23.792 15.4176 22.7324 17.9758C21.6727 20.5339 21.3955 23.3489 21.9357 26.0646C22.4759 28.7803 23.8092 31.2749 25.7672 33.2328C27.7251 35.1908 30.2197 36.5241 32.9354 37.0643C35.6511 37.6045 38.4661 37.3273 41.0242 36.2677C43.5824 35.208 45.7689 33.4136 47.3072 31.1113C48.8456 28.809 49.6667 26.1023 49.6667 23.3333C49.6626 19.6215 48.1863 16.063 45.5617 13.4383C42.937 10.8137 39.3784 9.33739 35.6667 9.33333ZM14.6667 30.3333C15.9039 30.3317 17.0899 29.8396 17.9647 28.9647C18.8395 28.0899 19.3317 26.9039 19.3333 25.6667V21C19.3333 19.7623 18.8417 18.5753 17.9665 17.7002C17.0913 16.825 15.9043 16.3333 14.6667 16.3333C13.429 16.3333 12.242 16.825 11.3668 17.7002C10.4917 18.5753 10 19.7623 10 21V25.6667C10.0016 26.9039 10.4938 28.0899 11.3686 28.9647C12.2434 29.8396 13.4295 30.3317 14.6667 30.3333ZM35.6667 4.66667C38.8031 4.66986 41.888 5.46384 44.6363 6.97517C47.3845 8.4865 49.7073 10.6664 51.3899 13.3133C52.7276 12.4071 54.279 11.8665 55.8902 11.7451C53.8548 8.17762 50.9118 5.21202 47.36 3.14926C43.8083 1.0865 39.774 0 35.6667 0C31.5593 0 27.5251 1.0865 23.9733 3.14926C20.4215 5.21202 17.4786 8.17762 15.4431 11.7451C17.0543 11.8665 18.6057 12.4071 19.9434 13.3133C21.626 10.6664 23.9488 8.4865 26.6971 6.97517C29.4453 5.46384 32.5303 4.66986 35.6667 4.66667ZM56.6667 16.3333C55.4295 16.3349 54.2434 16.8271 53.3686 17.7019C52.4938 18.5768 52.0016 19.7628 52 21V25.6667C52.0013 26.4454 52.1977 27.2113 52.5712 27.8946C52.9447 28.5778 53.4835 29.1566 54.1384 29.578C53.7821 31.1169 52.9158 32.4901 51.6804 33.4745C50.445 34.4588 48.913 34.9965 47.3333 35C46.7145 35 46.121 35.2458 45.6834 35.6834C45.2458 36.121 45 36.7145 45 37.3333C45 37.9522 45.2458 38.5457 45.6834 38.9833C46.121 39.4208 46.7145 39.6667 47.3333 39.6667C50.112 39.659 52.7966 38.6588 54.9027 36.8462C57.0089 35.0337 58.3981 32.5283 58.8198 29.7818C59.5747 29.3908 60.208 28.8006 60.6511 28.0752C61.0943 27.3497 61.3302 26.5167 61.3333 25.6667V21C61.3317 19.7628 60.8395 18.5768 59.9647 17.7019C59.0899 16.8271 57.9038 16.3349 56.6667 16.3333Z" fill="white" fill-opacity="0.6"/>
</g>
<defs>
<clipPath id="clip0_20_54">
<rect width="70" height="70" fill="white" transform="translate(0.333496)"/>
</clipPath>
</defs>
</svg>
