<svg width="20" height="20" viewBox="0 0 20 20" fill="none" xmlns="http://www.w3.org/2000/svg">
<path d="M10 6.94446C8.31336 6.94446 6.94336 8.31446 6.94336 10.0011C6.94336 11.6878 8.31336 13.0611 10 13.0611C11.6867 13.0611 13.06 11.6878 13.06 10.0011C13.06 8.31446 11.6867 6.94446 10 6.94446Z" fill="black"/>
<path d="M14.6127 1.66669H5.38602C3.33602 1.66669 1.66602 3.33669 1.66602 5.38669V14.6134C1.66602 16.6667 3.33602 18.3334 5.38602 18.3334H14.6127C16.666 18.3334 18.3327 16.6667 18.3327 14.6134V5.38669C18.3327 3.33669 16.666 1.66669 14.6127 1.66669ZM9.99935 15.4C7.02268 15.4 4.59935 12.9767 4.59935 10C4.59935 7.02335 7.02268 4.60335 9.99935 4.60335C12.976 4.60335 15.3993 7.02335 15.3993 10C15.3993 12.9767 12.976 15.4 9.99935 15.4ZM15.5127 5.58335C14.8827 5.58335 14.3693 5.07335 14.3693 4.44335C14.3693 3.81335 14.8827 3.30002 15.5127 3.30002C16.1427 3.30002 16.656 3.81335 16.656 4.44335C16.656 5.07335 16.1427 5.58335 15.5127 5.58335Z" fill="black"/>
</svg>
