<svg width="23" height="22" viewBox="0 0 23 22" fill="none" xmlns="http://www.w3.org/2000/svg">
<path d="M18.8338 6.26392H16.2365V5.50003C16.2365 2.89058 14.1099 0.763916 11.5004 0.763916C8.89099 0.763916 6.76432 2.89058 6.76432 5.50003V6.26392H4.1671C3.58043 6.26392 3.09766 6.74669 3.09766 7.33336V20.1667C3.09766 20.7534 3.58043 21.2361 4.1671 21.2361H18.8338C19.4204 21.2361 19.9032 20.7534 19.9032 20.1667V7.33336C19.9032 6.74669 19.4204 6.26392 18.8338 6.26392ZM7.68099 5.50003C7.68099 3.39169 9.3921 1.68058 11.5004 1.68058C13.6088 1.68058 15.3199 3.39169 15.3199 5.50003V6.26392H7.68099V5.50003ZM18.9865 20.1667C18.9865 20.2522 18.9193 20.3195 18.8338 20.3195H4.1671C4.08155 20.3195 4.01432 20.2522 4.01432 20.1667V7.33336C4.01432 7.2478 4.08155 7.18058 4.1671 7.18058H6.76432V8.55558C6.76432 8.80614 6.9721 9.01392 7.22266 9.01392C7.47321 9.01392 7.68099 8.80614 7.68099 8.55558V7.18058H15.3199V8.55558C15.3199 8.80614 15.5277 9.01392 15.7782 9.01392C16.0288 9.01392 16.2365 8.80614 16.2365 8.55558V7.18058H18.8338C18.9193 7.18058 18.9865 7.2478 18.9865 7.33336V20.1667Z" fill="white"/>
<path d="M11.2448 16.8609V14.8829H9.2998V14.0296H11.2448V12.1001H12.1253V14.0296H14.0606V14.8829H12.1253V16.8609H11.2448Z" fill="white"/>
</svg>
