<svg width="20" height="21" viewBox="0 0 20 21" fill="none" xmlns="http://www.w3.org/2000/svg">
<path d="M16.6649 6.19444H14.3038V5.5C14.3038 3.12778 12.3705 1.19444 9.99826 1.19444C7.62604 1.19444 5.69271 3.12778 5.69271 5.5V6.19444H3.3316C2.79826 6.19444 2.35938 6.63333 2.35938 7.16666V18.8333C2.35938 19.3667 2.79826 19.8056 3.3316 19.8056H16.6649C17.1983 19.8056 17.6372 19.3667 17.6372 18.8333V7.16666C17.6372 6.63333 17.1983 6.19444 16.6649 6.19444ZM6.52604 5.5C6.52604 3.58333 8.0816 2.02778 9.99826 2.02778C11.9149 2.02778 13.4705 3.58333 13.4705 5.5V6.19444H6.52604V5.5ZM16.8038 18.8333C16.8038 18.9111 16.7427 18.9722 16.6649 18.9722H3.3316C3.25382 18.9722 3.19271 18.9111 3.19271 18.8333V7.16666C3.19271 7.08889 3.25382 7.02778 3.3316 7.02778H5.69271V8.27778C5.69271 8.50555 5.8816 8.69444 6.10937 8.69444C6.33715 8.69444 6.52604 8.50555 6.52604 8.27778V7.02778H13.4705V8.27778C13.4705 8.50555 13.6594 8.69444 13.8872 8.69444C14.1149 8.69444 14.3038 8.50555 14.3038 8.27778V7.02778H16.6649C16.7427 7.02778 16.8038 7.08889 16.8038 7.16666V18.8333Z" fill="black"/>
</svg>
