<svg width="20" height="21" viewBox="0 0 20 21" fill="none" xmlns="http://www.w3.org/2000/svg">
<path d="M16.6669 6.19444H14.3058V5.5C14.3058 3.12778 12.3724 1.19444 10.0002 1.19444C7.62799 1.19444 5.69466 3.12778 5.69466 5.5V6.19444H3.33355C2.80022 6.19444 2.36133 6.63333 2.36133 7.16666V18.8333C2.36133 19.3667 2.80022 19.8056 3.33355 19.8056H16.6669C17.2002 19.8056 17.6391 19.3667 17.6391 18.8333V7.16666C17.6391 6.63333 17.2002 6.19444 16.6669 6.19444ZM6.52799 5.5C6.52799 3.58333 8.08355 2.02778 10.0002 2.02778C11.9169 2.02778 13.4724 3.58333 13.4724 5.5V6.19444H6.52799V5.5ZM16.8058 18.8333C16.8058 18.9111 16.7447 18.9722 16.6669 18.9722H3.33355C3.25577 18.9722 3.19466 18.9111 3.19466 18.8333V7.16666C3.19466 7.08889 3.25577 7.02778 3.33355 7.02778H5.69466V8.27778C5.69466 8.50555 5.88355 8.69444 6.11133 8.69444C6.33911 8.69444 6.52799 8.50555 6.52799 8.27778V7.02778H13.4724V8.27778C13.4724 8.50555 13.6613 8.69444 13.8891 8.69444C14.1169 8.69444 14.3058 8.50555 14.3058 8.27778V7.02778H16.6669C16.7447 7.02778 16.8058 7.08889 16.8058 7.16666V18.8333Z" fill="white"/>
</svg>
