<svg width="20" height="21" viewBox="0 0 20 21" fill="none" xmlns="http://www.w3.org/2000/svg">
<path fill-rule="evenodd" clip-rule="evenodd" d="M10.4996 2C7.94732 2 5.875 4.07232 5.875 6.62458C5.875 9.17683 7.94732 11.2492 10.4996 11.2492C13.0518 11.2492 15.1242 9.17683 15.1242 6.62458C15.1242 4.07232 13.0518 2 10.4996 2ZM10.4996 3.02768C12.4845 3.02768 14.0965 4.63961 14.0965 6.62458C14.0965 8.60955 12.4845 10.2215 10.4996 10.2215C8.51461 10.2215 6.90268 8.60955 6.90268 6.62458C6.90268 4.63961 8.51461 3.02768 10.4996 3.02768Z" fill="black"/>
<path fill-rule="evenodd" clip-rule="evenodd" d="M3.00613 18.7615C3.44906 17.277 5.78858 14.162 7.41695 14.162H13.5831C15.2114 14.162 17.5509 17.277 17.9939 18.7615C18.0751 19.0334 18.3613 19.188 18.6331 19.1068C18.9049 19.0256 19.0596 18.7394 18.9784 18.4676C18.4091 16.5592 15.677 13.1343 13.5831 13.1343C11.65 13.1343 9.35002 13.1343 7.41695 13.1343C5.32304 13.1343 2.59095 16.5592 2.02161 18.4676C1.94042 18.7394 2.09509 19.0256 2.36691 19.1068C2.63873 19.188 2.92494 19.0334 3.00613 18.7615Z" fill="black"/>
</svg>
