<svg width="20" height="21" viewBox="0 0 20 21" fill="none" xmlns="http://www.w3.org/2000/svg">
<path d="M17.8546 18.1527L15.0434 15.3416C16.2336 13.9844 16.8903 12.2671 16.8903 10.4452C16.8903 8.45639 16.1157 6.58686 14.7096 5.18071C13.3035 3.77457 11.4339 3 9.44516 3C7.45639 3 5.58686 3.77457 4.18071 5.18071C2.77457 6.58686 2 8.45639 2 10.4452C2 12.4339 2.77457 14.3035 4.18071 15.7096C5.58686 17.1157 7.45639 17.8903 9.44516 17.8903C11.2671 17.8903 12.9844 17.2336 14.3416 16.0434L17.1527 18.8546C17.2497 18.9515 17.3767 19 17.5037 19C17.6307 19 17.7576 18.9515 17.8546 18.8546C18.0485 18.6607 18.0485 18.3466 17.8546 18.1527ZM4.88258 15.0077C3.66401 13.7889 2.99269 12.1685 2.99269 10.4452C2.99269 8.72177 3.66401 7.10138 4.88258 5.88258C6.10138 4.66401 7.72177 3.99269 9.44516 3.99269C11.1685 3.99269 12.7889 4.66401 14.0077 5.88258C15.2263 7.10138 15.8976 8.72177 15.8976 10.4452C15.8976 12.1685 15.2263 13.7889 14.0077 15.0077C12.7889 16.2263 11.1685 16.8976 9.44516 16.8976C7.72177 16.8976 6.10138 16.2263 4.88258 15.0077Z" fill="black"/>
</svg>
