<svg width="124" height="23" viewBox="0 0 124 23" fill="none" xmlns="http://www.w3.org/2000/svg">
<g clip-path="url(#clip0_1_15)">
<path d="M6.31944 22.3788L-0.321289 6.39887H4.23797L8.59556 18.1252L12.9795 6.3919H17.5282L10.9015 22.3788H6.31944Z" fill="white"/>
<path d="M30.6797 22.3788V6.39886H43.8945V9.73281H34.4954V12.8595H43.8226V15.8503H34.4954V19.0449H43.8945V22.3788H30.6797Z" fill="white"/>
<path d="M58.0508 22.3788V6.39886H61.8648V19.0449H70.3923V22.3788H58.0508Z" fill="white"/>
<path d="M86.5235 22.3788L79.8828 6.39887H84.4333L88.7997 18.1252L93.1836 6.3919H97.7376L91.0968 22.3719L86.5235 22.3788Z" fill="white"/>
<path d="M110.886 22.3788V6.39886H124.099V9.73281H114.7V12.8595H124.027V15.8503H114.7V19.0449H124.099V22.3788H110.886Z" fill="white"/>
<path d="M119.596 2.08076C119.593 2.2088 119.571 2.33565 119.529 2.457C119.345 3.00305 119.009 3.48614 118.56 3.8505C117.823 4.45144 116.778 4.91304 115.81 4.70402C115.677 4.68676 115.553 4.6254 115.459 4.52983C115.41 4.4524 115.381 4.36333 115.377 4.27159C115.373 4.17985 115.394 4.08868 115.437 4.00727C115.572 3.67806 115.74 3.36103 115.882 3.03356C116.043 2.6608 116.203 2.2863 116.385 1.92225C116.615 1.46239 116.875 0.929379 117.341 0.659389C117.807 0.389398 118.491 0.485198 118.919 0.776091C119.131 0.922187 119.303 1.11746 119.421 1.34488C119.539 1.57229 119.599 1.82494 119.596 2.08076Z" fill="white"/>
</g>
<defs>
<clipPath id="clip0_1_15">
<rect width="124" height="23" fill="white"/>
</clipPath>
</defs>
</svg>
