<svg width="110" height="22" viewBox="0 0 110 22" fill="none" xmlns="http://www.w3.org/2000/svg">
<path d="M4.09473 17.8063V2.37192H9.67847C12.3533 2.37192 14.1421 3.43755 14.1421 6.37661C14.1421 7.7688 13.7075 8.90317 12.4871 9.53911V9.59067C14.6269 9.84848 15.5464 11.3438 15.5464 13.5094C15.5464 16.7407 12.8548 17.8063 10.1131 17.8063H4.09473ZM7.98997 8.42192H8.42463C9.46114 8.42192 10.5311 8.23286 10.5311 6.92661C10.5311 5.51723 9.31068 5.4313 8.25746 5.4313H7.97325V8.42192H7.98997ZM7.98997 14.7297H8.49151C9.64503 14.7297 11.601 14.7985 11.601 13.0969C11.601 11.2407 9.66175 11.4125 8.3912 11.4125H7.98997V14.7297ZM20.311 2.35474H24.992L27.8006 6.54849L30.6091 2.35474H35.2901L29.7565 10.3813V17.7891H25.8446V10.3813L20.311 2.35474ZM55.0506 17.8063H50.1857L46.5078 11.8594H46.4743V17.8063H42.5624V2.37192H48.3969C51.3726 2.37192 53.6128 3.83286 53.6128 7.11567C53.6128 9.24692 52.4593 11.086 50.3194 11.4813L55.0506 17.8063ZM46.4576 9.2813H46.8254C48.096 9.2813 49.5337 9.04067 49.5337 7.3563C49.5337 5.67192 48.096 5.4313 46.8254 5.4313H46.4576V9.2813ZM62.4733 2.35474H68.0068C72.1863 2.35474 75.6302 5.74068 75.6302 10.0719C75.6302 14.4032 72.1696 17.7891 68.0068 17.7891H62.4733V2.35474ZM66.3685 14.4032H67.2378C69.5616 14.4032 71.551 13.0969 71.551 10.0891C71.551 7.32193 69.7789 5.77505 67.2713 5.77505H66.3685V14.4032ZM87.3326 17.8063H83.4206V2.37192H87.3326V17.8063ZM99.7706 5.75786V8.33599H104.167V11.7391H99.7706V14.4032H104.401V17.8063H95.8587V2.37192H104.401V5.77505H99.7706V5.75786Z" fill="black"/>
</svg>
