<svg width="38" height="50" viewBox="0 0 38 50" fill="none" xmlns="http://www.w3.org/2000/svg">
<path d="M0.898438 14.9207V20.0573L14.1913 25.0142L0.898438 29.9441V35.0807L19.0015 27.5825L37.1023 35.0807V29.9441L23.8116 24.9872L37.1023 20.0573V14.9207L19.0015 22.4189L0.898438 14.9207Z" fill="black"/>
<path d="M33.3267 0V10.6126H29.7079V0H26.3197V10.6126H22.777V0H19.0015H15.2259V10.6126H11.6832V0H8.29506V10.6126H4.67401V0H0.898438V14.9201H19.0015H37.1023V0H33.3267Z" fill="black"/>
<path d="M0.898438 35.08V50H4.67401V39.3875H8.29506V50H11.6832V39.3875H15.2259V50H19.0015H22.777V39.3875H26.3197V50H29.7079V39.3875H33.3267V50H37.1023V35.08H19.0015H0.898438Z" fill="black"/>
</svg>
