<svg width="48" height="49" viewBox="0 0 48 49" fill="none" xmlns="http://www.w3.org/2000/svg">
<path d="M48 29.4985C48 28.2965 47.522 27.1765 46.698 26.3505C47.632 25.3285 48.108 23.9584 47.978 22.5325C47.744 19.9905 45.4539 17.9985 42.762 17.9985H30.408C31.02 16.1404 32 12.7345 32 9.9985C32 5.6605 28.314 1.99854 26 1.99854C23.924 1.99854 22.4379 3.16854 22.376 3.21654C22.1379 3.40657 21.9999 3.69457 21.9999 3.9985V10.7805L16.238 23.2585L15.9999 23.3805V22.9984C15.9999 22.4464 15.5519 21.9984 14.9999 21.9984H4.99997C2.24203 21.9985 0 24.2405 0 26.9985V42.9985C0 45.7565 2.24203 47.9985 4.99997 47.9985H11C13.1619 47.9985 15.0099 46.6185 15.7059 44.6925C17.37 45.5485 19.61 45.9985 21 45.9985H39.358C41.536 45.9985 43.4421 44.5305 43.89 42.5065C44.12 41.4625 43.986 40.4125 43.53 39.5005C45.006 38.7585 46 37.2325 46 35.4985C46 34.7905 45.838 34.1125 45.532 33.5005C47.008 32.7565 48 31.2325 48 29.4985ZM43.782 31.9665C43.396 32.0125 43.07 32.2744 42.946 32.6445C42.8241 33.0145 42.9261 33.4204 43.21 33.6885C43.7181 34.1665 44.0001 34.8105 44.0001 35.4985C44.0001 36.7605 43.0461 37.8205 41.7841 37.9665C41.3981 38.0125 41.0721 38.2744 40.9481 38.6445C40.8262 39.0145 40.9282 39.4204 41.2121 39.6885C41.8702 40.3084 42.1342 41.1784 41.9362 42.0745C41.6902 43.1905 40.6061 43.9985 39.3581 43.9985H21C19.376 43.9985 16.652 43.2365 15.708 42.2905C15.422 42.0065 14.99 41.9225 14.618 42.0745C14.244 42.2285 14 42.5945 14 42.9985C14 44.6525 12.654 45.9985 11 45.9985H4.99997C3.34594 45.9985 1.99997 44.6525 1.99997 42.9985V26.9985C1.99997 25.3444 3.34594 23.9985 4.99997 23.9985H14V24.9985C14 25.3445 14.18 25.6665 14.4759 25.8505C14.768 26.0265 15.1359 26.0445 15.4479 25.8925L17.4479 24.8925C17.6499 24.7924 17.8119 24.6244 17.9079 24.4185L23.9079 11.4184C23.9679 11.2864 23.9999 11.1424 23.9999 10.9984V4.54047C24.416 4.3105 25.138 3.9985 26 3.9985C27.096 3.9985 30 6.7225 30 9.9985C30 13.5185 28.084 18.5925 28.066 18.6425C27.9501 18.9485 27.99 19.2946 28.176 19.5665C28.364 19.8365 28.672 19.9985 29 19.9985H42.762C44.43 19.9985 45.846 21.1925 45.986 22.7165C46.092 23.8565 45.5439 24.9406 44.562 25.5466C44.256 25.7345 44.074 26.0746 44.088 26.4365C44.102 26.7985 44.31 27.1225 44.63 27.2885C45.476 27.7186 45.9999 28.5665 45.9999 29.4985C46 30.7605 45.046 31.8205 43.782 31.9665Z" fill="#16354A"/>
<path d="M15 23.9985C14.448 23.9985 14 24.4466 14 24.9986V42.9986C14 43.5506 14.448 43.9986 15 43.9986C15.552 43.9986 16.0001 43.5506 16.0001 42.9986V24.9986C16.0001 24.4466 15.552 23.9985 15 23.9985Z" fill="#16354A"/>
</svg>
