<svg width="48" height="49" viewBox="0 0 48 49" fill="none" xmlns="http://www.w3.org/2000/svg">
<g clip-path="url(#clip0)">
<path d="M45 24.9985H3C1.346 24.9985 0 23.6525 0 21.9985V13.9985C0 12.3445 1.346 10.9985 3 10.9985H45C46.654 10.9985 48 12.3445 48 13.9985V21.9985C48 23.6525 46.654 24.9985 45 24.9985ZM3 12.9985C2.45 12.9985 2 13.4465 2 13.9985V21.9985C2 22.5505 2.45 22.9985 3 22.9985H45C45.55 22.9985 46 22.5505 46 21.9985V13.9985C46 13.4465 45.55 12.9985 45 12.9985H3Z" fill="#16354A"/>
<path d="M39 48.9985H9C6.242 48.9985 4 46.7545 4 43.9985V23.9985C4 23.4465 4.448 22.9985 5 22.9985C5.552 22.9985 6 23.4465 6 23.9985V43.9985C6 45.6525 7.346 46.9985 9 46.9985H39C40.654 46.9985 42 45.6525 42 43.9985V23.9985C42 23.4465 42.448 22.9985 43 22.9985C43.552 22.9985 44 23.4465 44 23.9985V43.9985C44 46.7545 41.758 48.9985 39 48.9985Z" fill="#16354A"/>
<path d="M24 48.9985C23.448 48.9985 23 48.5505 23 47.9985V23.9985C23 23.4465 23.448 22.9985 24 22.9985C24.552 22.9985 25 23.4465 25 23.9985V47.9985C25 48.5505 24.552 48.9985 24 48.9985Z" fill="#16354A"/>
<path d="M24 12.9985C23.928 12.9985 23.856 12.9905 23.784 12.9745C22.524 12.6945 16.15 11.2165 14.466 9.5325C13.52 8.5905 13 7.3345 13 5.9985C13 4.6625 13.52 3.4065 14.464 2.4625C16.414 0.5125 19.586 0.5125 21.534 2.4625C23.218 4.1445 24.696 10.5205 24.976 11.7825C25.05 12.1165 24.948 12.4645 24.706 12.7045C24.518 12.8945 24.262 12.9985 24 12.9985ZM18 3.0005C17.232 3.0005 16.462 3.2925 15.878 3.8765C15.312 4.4445 15 5.1965 15 5.9985C15 6.8005 15.312 7.5525 15.878 8.1205C16.656 8.8985 19.908 9.94849 22.648 10.6485C21.946 7.9085 20.898 4.6565 20.12 3.8785C19.538 3.2925 18.768 3.0005 18 3.0005Z" fill="#16354A"/>
<path d="M24.0017 12.9984C23.7397 12.9984 23.4837 12.8944 23.2937 12.7064C23.0517 12.4644 22.9497 12.1164 23.0237 11.7844C23.3037 10.5224 24.7817 4.14845 26.4657 2.46445C28.4157 0.512454 31.5877 0.516454 33.5357 2.46445C34.4817 3.40645 35.0017 4.66245 35.0017 5.99845C35.0017 7.33445 34.4817 8.59045 33.5377 9.53445C31.8537 11.2184 25.4797 12.6964 24.2197 12.9764C24.1457 12.9904 24.0737 12.9984 24.0017 12.9984ZM30.0017 3.00045C29.2337 3.00045 28.4637 3.29245 27.8797 3.87645C27.1017 4.65445 26.0537 7.90645 25.3517 10.6464C28.0917 9.94645 31.3437 8.89645 32.1217 8.11845C32.6897 7.55245 33.0017 6.80045 33.0017 5.99845C33.0017 5.19645 32.6897 4.44445 32.1237 3.87645C31.5397 3.29245 30.7697 3.00045 30.0017 3.00045ZM27.1737 3.17045H27.1937H27.1737Z" fill="#16354A"/>
</g>
<defs>
<clipPath id="clip0">
<rect width="48" height="48" fill="white" transform="translate(0 0.998535)"/>
</clipPath>
</defs>
</svg>
