<svg width="48" height="49" viewBox="0 0 48 49" fill="none" xmlns="http://www.w3.org/2000/svg">
<g clip-path="url(#clip0)">
<path d="M27 48.9985H21C19.6 48.9985 18 47.7985 18 45.3985V41.1985C18 39.1985 17 37.3985 15.4 35.9985C11.8 33.1985 10 29.1985 10 24.7985C10.2 17.1985 16.4 11.1985 23.8 10.9985C27.6 10.9985 31.2 12.3985 33.8 14.9985C36.4 17.5985 38 21.1985 38 24.9985C38 29.1985 36.2 33.1985 32.8 35.7985C31 37.1985 30 39.3985 30 41.3985V45.9985C30 47.5985 28.6 48.9985 27 48.9985ZM24 12.9985C17.6 12.9985 12.2 18.3985 12 24.7985C12 28.5985 13.6 32.1985 16.6 34.3985C18.8 36.1985 20 38.5985 20 41.1985V45.3985C20 45.7985 20 46.9985 21 46.9985H27C27.6 46.9985 28 46.5985 28 45.9985V41.3985C28 38.7985 29.4 35.9985 31.6 34.1985C34.4 31.9985 36 28.5985 36 24.9985C36 21.7985 34.8 18.7985 32.4 16.3985C30.2 14.1985 27.2 12.9985 24 12.9985Z" fill="#16354A"/>
<path d="M29 42.9985H19C18.4 42.9985 18 42.5985 18 41.9985C18 41.3985 18.4 40.9985 19 40.9985H29C29.6 40.9985 30 41.3985 30 41.9985C30 42.5985 29.6 42.9985 29 42.9985Z" fill="#16354A"/>
<path d="M24 6.99854C23.4 6.99854 23 6.59854 23 5.99854V1.99854C23 1.39854 23.4 0.998535 24 0.998535C24.6 0.998535 25 1.39854 25 1.99854V5.99854C25 6.59854 24.6 6.99854 24 6.99854Z" fill="#16354A"/>
<path d="M37.4008 12.5984C37.2008 12.5984 36.8008 12.5984 36.6008 12.3984C36.2008 11.9984 36.2008 11.3984 36.6008 10.9984L39.4008 8.19844C39.8008 7.79844 40.4008 7.79844 40.8008 8.19844C41.2008 8.59844 41.2008 9.19844 40.8008 9.59844L38.0008 12.3984C38.0008 12.3984 37.6008 12.5984 37.4008 12.5984Z" fill="#16354A"/>
<path d="M47 25.9985H43C42.4 25.9985 42 25.5985 42 24.9985C42 24.3985 42.4 23.9985 43 23.9985H47C47.6 23.9985 48 24.3985 48 24.9985C48 25.5985 47.6 25.9985 47 25.9985Z" fill="#16354A"/>
<path d="M40.2008 42.1985C40.0008 42.1985 39.6008 42.1985 39.4008 41.9985L36.6008 39.1985C36.2008 38.7985 36.2008 38.1985 36.6008 37.7985C37.0008 37.3985 37.6008 37.3985 38.0008 37.7985L40.8008 40.5985C41.2008 40.9985 41.2008 41.5985 40.8008 41.9985C40.8008 42.1985 40.6008 42.1985 40.2008 42.1985Z" fill="#16354A"/>
<path d="M7.79922 42.1985C7.59922 42.1985 7.19922 42.1985 6.99922 41.9985C6.59922 41.5985 6.59922 40.9985 6.99922 40.5985L9.79922 37.7985C10.1992 37.3985 10.7992 37.3985 11.1992 37.7985C11.5992 38.1985 11.5992 38.7985 11.1992 39.1985L8.39922 41.9985C8.19922 42.1985 7.99922 42.1985 7.79922 42.1985Z" fill="#16354A"/>
<path d="M5 25.9985H1C0.4 25.9985 0 25.5985 0 24.9985C0 24.3985 0.4 23.9985 1 23.9985H5C5.6 23.9985 6 24.3985 6 24.9985C6 25.5985 5.6 25.9985 5 25.9985Z" fill="#16354A"/>
<path d="M10.5992 12.5987C10.3992 12.5987 9.99922 12.5987 9.79922 12.3987L6.99922 9.39873C6.59922 8.99873 6.59922 8.39873 6.99922 7.99873C7.39922 7.59873 7.99922 7.59873 8.39922 7.99873L11.1992 10.7987C11.5992 11.1987 11.5992 11.7987 11.1992 12.1987C10.9992 12.3987 10.7992 12.5987 10.5992 12.5987Z" fill="#16354A"/>
<path d="M32 25.9985C31.4 25.9985 31 25.5985 31 24.9985C31 21.1985 27.8 17.9985 24 17.9985C23.4 17.9985 23 17.5985 23 16.9985C23 16.3985 23.4 15.9985 24 15.9985C29 15.9985 33 19.9985 33 24.9985C33 25.5985 32.6 25.9985 32 25.9985Z" fill="#16354A"/>
</g>
<defs>
<clipPath id="clip0">
<rect width="48" height="48" fill="white" transform="translate(0 0.998535)"/>
</clipPath>
</defs>
</svg>
