<svg width="80" height="79" viewBox="0 0 80 79" fill="none" xmlns="http://www.w3.org/2000/svg">
<circle cx="8.97497" cy="7.97558" r="2.95935" fill="#CDDDE8"/>
<circle cx="8.97497" cy="24.9918" r="2.95935" fill="#CDDDE8"/>
<circle cx="25.9906" cy="7.97558" r="2.95935" fill="#CDDDE8"/>
<circle cx="25.9906" cy="24.9918" r="2.95935" fill="#CDDDE8"/>
<circle cx="8.97497" cy="42.0081" r="2.95935" fill="#CDDDE8"/>
<circle cx="8.97497" cy="59.0243" r="2.95935" fill="#CDDDE8"/>
<circle cx="8.97497" cy="76.0405" r="2.95935" fill="#CDDDE8"/>
<circle cx="25.9906" cy="42.0081" r="2.95935" fill="#CDDDE8"/>
<circle cx="25.9906" cy="59.0243" r="2.95935" fill="#CDDDE8"/>
<circle cx="25.9906" cy="76.0405" r="2.95935" fill="#CDDDE8"/>
<circle cx="43.0062" cy="7.97558" r="2.95935" fill="#CDDDE8"/>
<circle cx="43.0062" cy="24.9918" r="2.95935" fill="#CDDDE8"/>
<circle cx="60.0219" cy="7.97558" r="2.95935" fill="#CDDDE8"/>
<circle cx="60.0219" cy="24.9918" r="2.95935" fill="#CDDDE8"/>
<circle cx="77.0375" cy="7.97558" r="2.95935" fill="#CDDDE8"/>
<circle cx="77.0375" cy="24.9918" r="2.95935" fill="#CDDDE8"/>
<circle cx="43.0062" cy="42.0083" r="2.95935" fill="#CDDDE8"/>
<circle cx="43.0062" cy="59.0244" r="2.95935" fill="#CDDDE8"/>
<circle cx="43.0062" cy="76.0406" r="2.95935" fill="#CDDDE8"/>
<circle cx="60.0219" cy="42.0082" r="2.95935" fill="#CDDDE8"/>
<circle cx="60.0219" cy="59.0244" r="2.95935" fill="#CDDDE8"/>
<circle cx="60.0219" cy="76.0406" r="2.95935" fill="#CDDDE8"/>
<circle cx="77.0375" cy="42.0082" r="2.95935" fill="#CDDDE8"/>
<circle cx="77.0375" cy="59.0244" r="2.95935" fill="#CDDDE8"/>
<circle cx="77.0375" cy="76.0406" r="2.95935" fill="#CDDDE8"/>
</svg>
