<svg width="80" height="80" viewBox="0 0 80 80" fill="none" xmlns="http://www.w3.org/2000/svg">
<g clip-path="url(#clip0)">
<path d="M23.3599 26.2459V33.9303H10.5526L5.42969 74.9136L6.71042 76.8347L9.27188 78.7558H64.9837L66.9047 74.9136L61.1415 33.9303H49.6149L47.6938 24.3248L42.5709 18.5615L34.2461 17.2808L27.2021 20.4826L23.3599 26.2459Z" fill="white"/>
<path d="M67.6129 74.0694H67.6075L62.8389 34.0177C62.7752 33.4808 62.3198 33.0764 61.7791 33.0764H50.0391V29.8746C50.0391 22.2118 43.8273 16 36.1645 16C28.5018 16 22.2899 22.2118 22.2899 29.8746V33.0764H10.5499C10.0092 33.0764 9.55388 33.4808 9.49011 34.0177L4.72152 74.0694C4.37319 76.996 6.46318 79.6507 9.38978 79.9992C9.5995 80.0241 9.81042 80.0366 10.0216 80.0365H62.3128C65.2599 80.0372 67.6497 77.6485 67.6502 74.7012C67.6503 74.49 67.6378 74.2791 67.6129 74.0694ZM24.4245 29.8746C24.4245 23.3907 29.6807 18.1346 36.1645 18.1346C42.6484 18.1346 47.9046 23.3907 47.9046 29.8746V33.0764H24.4245V29.8746ZM64.7024 76.8261C64.0958 77.5092 63.2264 77.9006 62.3128 77.902H10.0216C8.25327 77.9025 6.81938 76.4695 6.81872 74.7012C6.81872 74.5746 6.82619 74.4481 6.84113 74.3223L11.4977 35.211H22.2899V42.6819C22.2899 43.2713 22.7678 43.7492 23.3572 43.7492C23.9466 43.7492 24.4245 43.2713 24.4245 42.6819V35.211H47.9046V42.6819C47.9046 43.2713 48.3824 43.7492 48.9718 43.7492C49.5612 43.7492 50.0391 43.2713 50.0391 42.6819V35.211H60.8314L65.4879 74.3223C65.5958 75.2308 65.3099 76.1422 64.7024 76.8261Z" fill="#16354A"/>
<path fill-rule="evenodd" clip-rule="evenodd" d="M62.9769 42.3518C63.2769 42.7161 63.2248 43.2546 62.8605 43.5546L19.3156 79.4151C18.9514 79.715 18.4129 79.6629 18.1129 79.2987C17.8129 78.9344 17.865 78.3959 18.2293 78.0959L61.7741 42.2354C62.1384 41.9354 62.6769 41.9875 62.9769 42.3518Z" fill="#16354A"/>
<path fill-rule="evenodd" clip-rule="evenodd" d="M64.9046 55.1687C65.1994 55.5372 65.1396 56.0749 64.7711 56.3697L35.9547 79.4229C35.5862 79.7177 35.0485 79.6579 34.7537 79.2894C34.4589 78.9209 34.5186 78.3832 34.8871 78.0884L63.7036 55.0353C64.0721 54.7405 64.6098 54.8002 64.9046 55.1687Z" fill="#16354A"/>
<g clip-path="url(#clip1)">
<path d="M66.25 26.5L61.25 31.5L30 62.75L26.25 72.75L37.5 67.75L68.75 36.5L73.75 31.5V27.75L70 25.25L66.25 26.5Z" fill="white"/>
<path d="M73.3897 25.5667C71.3355 23.5126 67.7543 23.5126 65.7003 25.5667L29.4716 61.7787C29.3737 61.8787 29.2924 61.9974 29.2424 62.1287L25.0758 72.5452C24.9196 72.9307 25.0091 73.3723 25.305 73.6681C25.505 73.8661 25.7717 73.9723 26.0425 73.9723C26.1717 73.9723 26.305 73.9473 26.4279 73.8973L36.8445 69.7307C37.0695 69.639 37.2549 69.4745 37.3695 69.2662C38.032 68.4641 43.7569 62.5705 73.3876 33.2875C74.4231 32.2646 74.9959 30.9001 75.0001 29.4438C75.0042 27.9855 74.4375 26.6126 73.3897 25.5667ZM71.921 31.8042C44.2485 59.1559 37.5528 65.9078 35.934 67.8515L27.9112 71.0598L31.0966 63.0995L67.1731 27.0375C68.4418 25.7708 70.6335 25.7563 71.9313 27.0521C72.5709 27.6896 72.9188 28.5375 72.9168 29.4375C72.9147 30.3334 72.5605 31.1751 71.921 31.8042Z" fill="#16354A"/>
<path d="M38.2345 66.9876L31.9846 60.7378C31.5784 60.3315 30.918 60.3315 30.5117 60.7378C30.1055 61.144 30.1055 61.8045 30.5117 62.2107L36.7616 68.4606C36.9658 68.6626 37.2324 68.7648 37.4991 68.7648C37.7658 68.7648 38.0324 68.6627 38.2345 68.4606C38.6408 68.0542 38.6408 67.3939 38.2345 66.9876Z" fill="#16354A"/>
<path d="M67.4025 37.8214L61.1526 31.5715C60.7464 31.1653 60.0859 31.1653 59.6797 31.5715C59.2734 31.9778 59.2734 32.6382 59.6797 33.0445L65.9296 39.2944C66.1338 39.4964 66.4004 39.5986 66.6671 39.5986C66.9338 39.5986 67.2004 39.4965 67.4025 39.2944C67.8088 38.8881 67.8088 38.2277 67.4025 37.8214Z" fill="#16354A"/>
</g>
</g>
<defs>
<clipPath id="clip0">
<rect width="80" height="80" fill="white"/>
</clipPath>
<clipPath id="clip1">
<rect width="50" height="50" fill="white" transform="translate(25 24)"/>
</clipPath>
</defs>
</svg>
