<svg width="80" height="80" viewBox="0 0 80 80" fill="none" xmlns="http://www.w3.org/2000/svg">
<path d="M9.02028 75.0032H3.24514C2.95842 75.0032 2.68345 74.8893 2.4807 74.6866C2.27796 74.4839 2.16406 74.2089 2.16406 73.9222V43.7265C2.16406 43.4397 2.27796 43.1648 2.4807 42.962C2.68345 42.7593 2.95842 42.6454 3.24514 42.6454H9.02028C10.4534 42.6471 11.8272 43.2172 12.8406 44.2305C13.8539 45.2438 14.424 46.6177 14.4257 48.0508V69.5978C14.424 71.0309 13.8539 72.4048 12.8406 73.4181C11.8272 74.4315 10.4534 75.0015 9.02028 75.0032ZM4.32622 72.8411H9.02028C9.88044 72.8411 10.7054 72.4994 11.3136 71.8911C11.9218 71.2829 12.2635 70.458 12.2635 69.5978V48.0508C12.2635 47.1906 11.9218 46.3657 11.3136 45.7575C10.7054 45.1492 9.88044 44.8075 9.02028 44.8075H4.32622V72.8411Z" fill="#16354A"/>
<path d="M48.2477 63.6443H29.1893C28.9026 63.6443 28.6276 63.5304 28.4248 63.3277C28.2221 63.1249 28.1082 62.85 28.1082 62.5632C28.1082 62.2765 28.2221 62.0015 28.4248 61.7988C28.6276 61.5961 28.9026 61.4822 29.1893 61.4822H48.2477C49.0489 61.4822 49.8173 61.1639 50.3839 60.5973C50.9505 60.0307 51.2687 59.2623 51.2687 58.4611C51.2687 57.6598 50.9505 56.8914 50.3839 56.3249C49.8173 55.7583 49.0489 55.44 48.2477 55.44H38.1936C38.0397 55.44 37.8875 55.4071 37.7473 55.3435C37.6071 55.2799 37.4821 55.1871 37.3806 55.0714C35.9571 53.4466 34.203 52.1447 32.2357 51.2528C30.2683 50.3609 28.1332 49.8995 25.9731 49.8995H13.3428C13.0561 49.8995 12.7811 49.7856 12.5784 49.5828C12.3756 49.3801 12.2617 49.1051 12.2617 48.8184C12.2617 48.5317 12.3756 48.2567 12.5784 48.0539C12.7811 47.8512 13.0561 47.7373 13.3428 47.7373H25.9709C28.3552 47.7373 30.7138 48.2294 32.8991 49.1828C35.0845 50.1361 37.0496 51.5302 38.6714 53.2778H48.2466C49.6213 53.2778 50.9396 53.8239 51.9117 54.796C52.8837 55.768 53.4298 57.0864 53.4298 58.4611C53.4298 59.8358 52.8837 61.1541 51.9117 62.1262C50.9396 63.0982 49.6213 63.6443 48.2466 63.6443H48.2477Z" fill="#16354A"/>
<path d="M39.1889 77.8378C36.4607 77.8374 33.7563 77.3312 31.2127 76.3448L12.9521 69.268C12.6848 69.1644 12.4695 68.9588 12.3537 68.6964C12.238 68.4341 12.2312 68.1365 12.3348 67.8691C12.4385 67.6018 12.6441 67.3865 12.9064 67.2707C13.1688 67.155 13.4664 67.1482 13.7337 67.2518L31.9943 74.3297C34.655 75.3613 37.5066 75.8083 40.3553 75.6404C43.2041 75.4725 45.9834 74.6937 48.5046 73.3567L75.4008 59.1156C74.1589 57.9289 72.6102 57.1126 70.9293 56.7588C69.2484 56.4051 67.5021 56.5279 65.8873 57.1135L51.5402 62.3556C51.4068 62.4044 51.2652 62.4264 51.1233 62.4204C50.9814 62.4144 50.8421 62.3805 50.7133 62.3207C50.5845 62.2609 50.4687 62.1763 50.3726 62.0717C50.2765 61.9671 50.202 61.8447 50.1532 61.7113C50.1044 61.5779 50.0824 61.4362 50.0884 61.2943C50.0944 61.1525 50.1283 61.0131 50.1881 60.8843C50.2479 60.7555 50.3325 60.6398 50.4371 60.5437C50.5417 60.4476 50.6641 60.373 50.7975 60.3243L65.1413 55.0821C67.1739 54.3441 69.3746 54.2 71.4861 54.6668C73.5975 55.1335 75.5324 56.1918 77.0646 57.7178L77.3273 57.9805C77.5211 58.1742 77.6667 58.4109 77.7523 58.6712C77.8379 58.9316 77.8612 59.2084 77.8201 59.4794C77.7791 59.7504 77.675 60.008 77.5161 60.2314C77.3573 60.4547 77.1482 60.6376 76.9056 60.7653L49.5143 75.2713C46.3334 76.9564 42.7885 77.8375 39.1889 77.8378Z" fill="#16354A"/>
<path d="M64.2157 45.4054H37.4048C36.5496 45.4087 35.7242 45.0908 35.0922 44.5146C34.4601 43.9384 34.0675 43.1459 33.9919 42.294L31.8405 19.0724C31.8267 18.9223 31.8443 18.7709 31.8924 18.6281C31.9405 18.4852 32.0179 18.354 32.1197 18.2428C32.2215 18.1316 32.3455 18.043 32.4836 17.9825C32.6217 17.9221 32.7709 17.8912 32.9216 17.8919H68.7054C68.8561 17.8912 69.0053 17.9221 69.1434 17.9825C69.2815 18.043 69.4054 18.1316 69.5073 18.2428C69.6091 18.354 69.6865 18.4852 69.7346 18.6281C69.7827 18.7709 69.8003 18.9223 69.7865 19.0724L67.6308 42.294C67.5552 43.1463 67.1622 43.9391 66.5297 44.5154C65.8972 45.0916 65.0713 45.4093 64.2157 45.4054ZM34.1032 20.054L36.1443 42.094C36.172 42.4088 36.3169 42.7016 36.5504 42.9145C36.7839 43.1274 37.0889 43.2447 37.4048 43.2432H64.2157C64.5314 43.2444 64.8361 43.127 65.0694 42.9141C65.3027 42.7013 65.4475 42.4086 65.4751 42.094L67.5173 20.054H34.1032Z" fill="#16354A"/>
<path d="M70.6902 20.054H30.928C30.4663 20.0525 30.0239 19.8683 29.6977 19.5415C29.3715 19.2147 29.1881 18.7719 29.1875 18.3102V12.521C29.1881 12.0593 29.3715 11.6165 29.6977 11.2897C30.0239 10.9629 30.4663 10.7787 30.928 10.7772H70.6902C71.1519 10.7787 71.5943 10.9629 71.9205 11.2897C72.2467 11.6165 72.4302 12.0593 72.4307 12.521V18.3102C72.4302 18.7719 72.2467 19.2147 71.9205 19.5415C71.5943 19.8683 71.1519 20.0525 70.6902 20.054ZM31.3497 17.8918H70.2686V12.9394H31.3497V17.8918Z" fill="#16354A"/>
<path d="M60.0161 12.9405C59.7624 12.9412 59.5166 12.8526 59.3216 12.6903C59.1266 12.528 58.9949 12.3023 58.9496 12.0527C58.9042 11.8031 58.9481 11.5455 59.0735 11.325C59.1989 11.1045 59.3979 10.9351 59.6356 10.8464C59.7721 10.7986 59.9023 10.7348 60.0237 10.6562C60.4108 10.4096 60.7449 10.0882 61.0064 9.71098C61.2679 9.33372 61.4516 8.90812 61.5467 8.45905C61.6417 8.00999 61.6463 7.54647 61.5601 7.09561C61.474 6.64475 61.2987 6.2156 61.0448 5.83326C60.7908 5.45091 60.4631 5.12304 60.0809 4.86882C59.6987 4.6146 59.2697 4.43914 58.8189 4.35269C58.368 4.26625 57.9045 4.27055 57.4554 4.36535C57.0063 4.46015 56.5806 4.64355 56.2032 4.90482C55.4745 5.39239 53.9329 7.59239 51.7967 12.3048C51.738 12.4342 51.6545 12.5507 51.5508 12.6477C51.4472 12.7448 51.3254 12.8205 51.1925 12.8705C51.0596 12.9204 50.9181 12.9438 50.7762 12.9391C50.6343 12.9344 50.4947 12.9018 50.3653 12.8432C50.236 12.7846 50.1195 12.701 50.0224 12.5974C49.9254 12.4937 49.8497 12.3719 49.7997 12.239C49.7497 12.1061 49.7264 11.9647 49.7311 11.8227C49.7357 11.6808 49.7683 11.5412 49.827 11.4118C51.921 6.79779 53.6615 4.0032 55.0021 3.10806C56.2406 2.28145 57.7567 1.98067 59.217 2.27191C60.6772 2.56315 61.9619 3.42255 62.7886 4.66103C63.6152 5.89952 63.916 7.41566 63.6247 8.87591C63.3335 10.3362 62.4741 11.6209 61.2356 12.4475C60.9739 12.6216 60.6923 12.7635 60.3967 12.8702C60.2751 12.9163 60.1462 12.9402 60.0161 12.9405Z" fill="#16354A"/>
<path d="M41.6054 12.9405C41.4754 12.9405 41.3465 12.9171 41.2249 12.8713C40.9256 12.7619 40.6407 12.6167 40.3762 12.4389C39.1385 11.6111 38.2802 10.3255 37.9903 8.86499C37.7004 7.40444 38.0025 5.88853 38.8303 4.65076C39.658 3.41299 40.9436 2.55474 42.4042 2.26482C43.8647 1.9749 45.3806 2.27705 46.6184 3.10482C47.9589 4.00103 49.7006 6.79455 51.7935 11.4086C51.9119 11.6698 51.9217 11.9673 51.8208 12.2358C51.7198 12.5042 51.5163 12.7215 51.2551 12.84C50.9939 12.9584 50.6964 12.9682 50.428 12.8672C50.1595 12.7662 49.9422 12.5628 49.8238 12.3016C47.6854 7.58914 46.1481 5.38914 45.4173 4.90157C44.6549 4.39379 43.722 4.20966 42.8239 4.3897C41.9257 4.56973 41.1359 5.09918 40.6281 5.86157C40.1203 6.62396 39.9362 7.55684 40.1162 8.45499C40.2963 9.35314 40.8257 10.143 41.5881 10.6508C41.7125 10.7316 41.846 10.7973 41.986 10.8464C42.2237 10.9351 42.4226 11.1045 42.5481 11.325C42.6735 11.5455 42.7173 11.8031 42.672 12.0527C42.6266 12.3023 42.4949 12.528 42.2999 12.6903C42.105 12.8526 41.8591 12.9412 41.6054 12.9405Z" fill="#16354A"/>
<path d="M54.332 45.3925H47.292C47.0053 45.3925 46.7303 45.2786 46.5276 45.0759C46.3248 44.8731 46.2109 44.5981 46.2109 44.3114V18.973C46.2109 18.6863 46.3248 18.4114 46.5276 18.2086C46.7303 18.0059 47.0053 17.892 47.292 17.892H54.332C54.6187 17.892 54.8937 18.0059 55.0965 18.2086C55.2992 18.4114 55.4131 18.6863 55.4131 18.973V44.3114C55.4131 44.5981 55.2992 44.8731 55.0965 45.0759C54.8937 45.2786 54.6187 45.3925 54.332 45.3925ZM48.3731 43.2303H53.2509V20.0541H48.3731V43.2303Z" fill="#16354A"/>
</svg>
