<svg width="80" height="80" viewBox="0 0 80 80" fill="none" xmlns="http://www.w3.org/2000/svg">
<path d="M49.2364 44.155H30.75V45.5836H49.2364V44.155Z" fill="#16354A"/>
<path d="M49.2364 34.5378H30.75V35.9664H49.2364V34.5378Z" fill="#16354A"/>
<path d="M67.7421 24.9199H30.75V26.3485H67.7421V24.9199Z" fill="#16354A"/>
<path d="M67.7421 15.2828H30.75V16.7114H67.7421V15.2828Z" fill="#16354A"/>
<path d="M36.4286 51H32.8571C32.6677 51 32.486 51.0806 32.3521 51.224C32.2181 51.3674 32.1429 51.5619 32.1429 51.7647V57.1176H30.7143C30.5248 57.1176 30.3432 57.1982 30.2092 57.3416C30.0753 57.485 30 57.6795 30 57.8824C30 58.0852 30.0753 58.2797 30.2092 58.4231C30.3432 58.5665 30.5248 58.6471 30.7143 58.6471H32.1429V60.1765H30.7143C30.5248 60.1765 30.3432 60.257 30.2092 60.4004C30.0753 60.5439 30 60.7384 30 60.9412C30 61.144 30.0753 61.3385 30.2092 61.4819C30.3432 61.6253 30.5248 61.7059 30.7143 61.7059H32.1429V63.2353C32.1429 63.4381 32.2181 63.6326 32.3521 63.776C32.486 63.9194 32.6677 64 32.8571 64C33.0466 64 33.2283 63.9194 33.3622 63.776C33.4962 63.6326 33.5714 63.4381 33.5714 63.2353V61.7059H35.7143C35.9037 61.7059 36.0854 61.6253 36.2194 61.4819C36.3533 61.3385 36.4286 61.144 36.4286 60.9412C36.4286 60.7384 36.3533 60.5439 36.2194 60.4004C36.0854 60.257 35.9037 60.1765 35.7143 60.1765H33.5714V58.6471H36.4286C37.3758 58.6471 38.2842 58.2442 38.954 57.5272C39.6237 56.8101 40 55.8376 40 54.8235C40 53.8095 39.6237 52.8369 38.954 52.1199C38.2842 51.4028 37.3758 51 36.4286 51ZM36.4286 57.1176H33.5714V52.5294H36.4286C36.9969 52.5294 37.5419 52.7711 37.9438 53.2013C38.3457 53.6316 38.5714 54.2151 38.5714 54.8235C38.5714 55.432 38.3457 56.0155 37.9438 56.4457C37.5419 56.8759 36.9969 57.1176 36.4286 57.1176Z" fill="#16354A"/>
<path d="M68.2674 0.542114H11.736C6.24096 0.542114 1.76953 5.00426 1.76953 10.4893V32.7414C1.76953 35.3457 3.8881 37.4643 6.49167 37.4643H20.2545V72.0735L27.9352 79.7543L35.0217 72.6478L42.1067 79.7543L49.2131 72.6471L56.301 79.755L63.3888 72.6471L70.4945 79.7535L78.2345 72.0135V10.4893C78.2338 5.00426 73.7631 0.542114 68.2674 0.542114ZM6.49167 36.0357C4.67525 36.0357 3.1981 34.5578 3.1981 32.7414V10.4893C3.1981 5.79211 7.0281 1.97069 11.736 1.97069C16.4331 1.97069 20.2545 5.79211 20.2545 10.4893V36.0357H6.49167ZM76.8052 71.4221L70.4938 77.7336L63.3867 70.6257L56.3002 77.7321L49.2138 70.6257L42.1074 77.7328L35.021 70.625L27.9331 77.7328L21.6824 71.4821V10.4893C21.6824 6.87997 19.751 3.71497 16.8674 1.97069H68.2674C72.9752 1.97069 76.8052 5.79211 76.8052 10.4893V71.4221Z" fill="#16354A"/>
</svg>
