<svg width="80" height="80" viewBox="0 0 80 80" fill="none" xmlns="http://www.w3.org/2000/svg">
<path d="M70.2698 28.5589H68.1077V22.973C68.1071 22.6148 67.9646 22.2714 67.7113 22.0181C67.4579 21.7648 67.1146 21.6222 66.7563 21.6216H59.459V28.5589H57.2969V19.4595H66.7563C67.6878 19.4606 68.5808 19.8312 69.2395 20.4898C69.8982 21.1485 70.2687 22.0415 70.2698 22.973V28.5589Z" fill="#16354A"/>
<path d="M22.7034 28.5589H20.5413V21.6216H13.244C12.8858 21.6222 12.5424 21.7648 12.2891 22.0181C12.0358 22.2714 11.8932 22.6148 11.8926 22.973V28.5589H9.73047V22.973C9.73161 22.0415 10.1022 21.1485 10.7608 20.4898C11.4195 19.8312 12.3125 19.4606 13.244 19.4595H22.7034V28.5589Z" fill="#16354A"/>
<path d="M73.5154 62.0724H57.6127V59.9102H73.5154C74.0889 59.9102 74.6388 59.6824 75.0443 59.2769C75.4498 58.8715 75.6776 58.3215 75.6776 57.7481V31.8021C75.6776 31.2287 75.4498 30.6787 75.0443 30.2732C74.6388 29.8677 74.0889 29.6399 73.5154 29.6399H6.48839C5.91495 29.6399 5.36499 29.8677 4.95951 30.2732C4.55402 30.6787 4.32622 31.2287 4.32622 31.8021V57.7481C4.32622 58.3215 4.55402 58.8715 4.95951 59.2769C5.36499 59.6824 5.91495 59.9102 6.48839 59.9102H22.3911V62.0724H6.48839C5.3415 62.0724 4.2416 61.6168 3.43063 60.8058C2.61966 59.9949 2.16406 58.8949 2.16406 57.7481V31.8021C2.16406 30.6552 2.61966 29.5553 3.43063 28.7443C4.2416 27.9334 5.3415 27.4778 6.48839 27.4778H73.5154C74.6623 27.4778 75.7622 27.9334 76.5732 28.7443C77.3841 29.5553 77.8397 30.6552 77.8397 31.8021V57.7481C77.8397 58.8949 77.3841 59.9949 76.5732 60.8058C75.7622 61.6168 74.6623 62.0724 73.5154 62.0724Z" fill="#16354A"/>
<path d="M57.6117 77.8379H22.3858C22.099 77.8379 21.8241 77.724 21.6213 77.5212C21.4186 77.3185 21.3047 77.0435 21.3047 76.7568V50.1806C21.3047 49.8938 21.4186 49.6189 21.6213 49.4161C21.8241 49.2134 22.099 49.0995 22.3858 49.0995C22.6725 49.0995 22.9475 49.2134 23.1502 49.4161C23.353 49.6189 23.4669 49.8938 23.4669 50.1806V75.6757H56.5306V50.1806C56.5306 49.8938 56.6445 49.6189 56.8473 49.4161C57.05 49.2134 57.325 49.0995 57.6117 49.0995C57.8984 49.0995 58.1734 49.2134 58.3762 49.4161C58.5789 49.6189 58.6928 49.8938 58.6928 50.1806V76.7568C58.6928 77.0435 58.5789 77.3185 58.3762 77.5212C58.1734 77.724 57.8984 77.8379 57.6117 77.8379Z" fill="#16354A"/>
<path d="M64.5049 62.0725C64.2182 62.0725 63.9432 61.9586 63.7404 61.7558C63.5377 61.5531 63.4238 61.2781 63.4238 60.9914V51.2616H16.5762V60.9914C16.5762 61.2781 16.4623 61.5531 16.2596 61.7558C16.0568 61.9586 15.7819 62.0725 15.4951 62.0725C15.2084 62.0725 14.9334 61.9586 14.7307 61.7558C14.528 61.5531 14.4141 61.2781 14.4141 60.9914V50.1806C14.4141 49.8938 14.528 49.6189 14.7307 49.4161C14.9334 49.2134 15.2084 49.0995 15.4951 49.0995H64.5049C64.7916 49.0995 65.0666 49.2134 65.2693 49.4161C65.4721 49.6189 65.586 49.8938 65.586 50.1806V60.9914C65.586 61.2781 65.4721 61.5531 65.2693 61.7558C65.0666 61.9586 64.7916 62.0725 64.5049 62.0725Z" fill="#16354A"/>
<path d="M58.3769 29.6399C58.0902 29.6399 57.8152 29.5261 57.6125 29.3233C57.4097 29.1206 57.2958 28.8456 57.2958 28.5589V4.32427H22.7012V28.5589C22.7012 28.8456 22.5873 29.1206 22.3846 29.3233C22.1818 29.5261 21.9069 29.6399 21.6201 29.6399C21.3334 29.6399 21.0584 29.5261 20.8557 29.3233C20.653 29.1206 20.5391 28.8456 20.5391 28.5589V3.24319C20.5391 2.95647 20.653 2.68149 20.8557 2.47875C21.0584 2.27601 21.3334 2.16211 21.6201 2.16211H58.3769C58.6636 2.16211 58.9386 2.27601 59.1413 2.47875C59.3441 2.68149 59.458 2.95647 59.458 3.24319V28.5589C59.458 28.8456 59.3441 29.1206 59.1413 29.3233C58.9386 29.5261 58.6636 29.6399 58.3769 29.6399Z" fill="#16354A"/>
<path d="M68.786 41.934C68.0071 41.934 67.2457 41.703 66.598 41.2703C65.9503 40.8375 65.4455 40.2224 65.1474 39.5028C64.8494 38.7831 64.7714 37.9913 64.9233 37.2273C65.0753 36.4633 65.4504 35.7616 66.0012 35.2108C66.552 34.66 67.2537 34.2849 68.0177 34.1329C68.7817 33.981 69.5735 34.059 70.2932 34.357C71.0128 34.6551 71.6279 35.1599 72.0607 35.8076C72.4934 36.4552 72.7244 37.2167 72.7244 37.9956C72.723 39.0397 72.3076 40.0406 71.5693 40.7789C70.831 41.5172 69.8301 41.9326 68.786 41.934ZM68.786 36.2194C68.4347 36.2194 68.0913 36.3236 67.7992 36.5188C67.5071 36.7139 67.2795 36.9913 67.145 37.3159C67.0106 37.6405 66.9754 37.9976 67.0439 38.3422C67.1125 38.6867 67.2817 39.0032 67.5301 39.2516C67.7785 39.5 68.095 39.6692 68.4395 39.7377C68.7841 39.8063 69.1412 39.7711 69.4658 39.6366C69.7903 39.5022 70.0677 39.2745 70.2629 38.9824C70.4581 38.6903 70.5623 38.3469 70.5623 37.9956C70.5623 37.5243 70.3752 37.0721 70.0422 36.7385C69.7092 36.4049 69.2574 36.217 68.786 36.2162V36.2194Z" fill="#16354A"/>
<path d="M57.9931 41.934C57.2141 41.934 56.4527 41.703 55.805 41.2703C55.1574 40.8375 54.6526 40.2224 54.3545 39.5028C54.0564 38.7831 53.9784 37.9913 54.1304 37.2273C54.2823 36.4633 54.6574 35.7616 55.2082 35.2108C55.759 34.66 56.4608 34.2849 57.2247 34.1329C57.9887 33.981 58.7806 34.059 59.5002 34.357C60.2199 34.6551 60.835 35.1599 61.2677 35.8076C61.7005 36.4552 61.9314 37.2167 61.9314 37.9956C61.9303 39.0398 61.515 40.0409 60.7767 40.7792C60.0383 41.5176 59.0372 41.9329 57.9931 41.934ZM57.9931 36.2194C57.6418 36.2194 57.2984 36.3236 57.0063 36.5188C56.7142 36.7139 56.4865 36.9913 56.3521 37.3159C56.2176 37.6405 56.1824 37.9976 56.251 38.3422C56.3195 38.6867 56.4887 39.0032 56.7371 39.2516C56.9855 39.5 57.302 39.6692 57.6465 39.7377C57.9911 39.8063 58.3482 39.7711 58.6728 39.6366C58.9974 39.5022 59.2748 39.2745 59.4699 38.9824C59.6651 38.6903 59.7693 38.3469 59.7693 37.9956C59.7696 37.5242 59.5826 37.0719 59.2496 36.7382C58.9165 36.4045 58.4645 36.2167 57.9931 36.2162V36.2194Z" fill="#16354A"/>
</svg>
