<svg width="80" height="80" viewBox="0 0 80 80" fill="none" xmlns="http://www.w3.org/2000/svg">
<g clip-path="url(#clip0)">
<path d="M55.2358 50.9701H55.2311L51.0455 15.815C50.9896 15.3437 50.5899 14.9887 50.1153 14.9887H39.8106V12.1783C39.8106 5.45238 34.3582 0 27.6322 0C20.9063 0 15.4539 5.45238 15.4539 12.1783V14.9887H5.14913C4.67452 14.9887 4.27486 15.3437 4.21889 15.815L0.0332898 50.9701C-0.272457 53.5389 1.56202 55.8691 4.13083 56.1749C4.31491 56.1968 4.50005 56.2078 4.68541 56.2077H50.5837C53.1705 56.2083 55.2681 54.1116 55.2686 51.5247C55.2687 51.3393 55.2577 51.1542 55.2358 50.9701ZM17.3275 12.1783C17.3275 6.48719 21.9411 1.87359 27.6322 1.87359C33.3234 1.87359 37.937 6.48719 37.937 12.1783V14.9887H17.3275V12.1783ZM52.6812 53.3898C52.1487 53.9894 51.3856 54.333 50.5837 54.3341H4.68541C3.13326 54.3346 1.87468 53.0768 1.87409 51.5247C1.87409 51.4135 1.88065 51.3025 1.89377 51.1921L5.981 16.8623H15.4539V23.4199C15.4539 23.9372 15.8733 24.3567 16.3907 24.3567C16.908 24.3567 17.3275 23.9372 17.3275 23.4199V16.8623H37.937V23.4199C37.937 23.9372 38.3564 24.3567 38.8738 24.3567C39.3911 24.3567 39.8106 23.9372 39.8106 23.4199V16.8623H49.2834L53.3707 51.1921C53.4654 51.9896 53.2145 52.7895 52.6812 53.3898Z" fill="#16354A"/>
<path d="M16.8613 51.711C16.6372 51.711 16.4212 51.6328 16.2529 51.4908C15.6171 50.9552 15.0041 50.4518 14.4633 50.0079L14.4605 50.0056C12.875 48.7038 11.5058 47.5796 10.5531 46.4722C9.48821 45.2342 8.99219 44.0603 8.99219 42.778C8.99219 41.5321 9.43562 40.3827 10.2407 39.5413C11.0554 38.69 12.1733 38.2212 13.3888 38.2212C14.2972 38.2212 15.1292 38.4979 15.8615 39.0436C16.2311 39.319 16.5661 39.6561 16.8613 40.0493C17.1565 39.6561 17.4914 39.319 17.8611 39.0436C18.5934 38.4979 19.4254 38.2212 20.3339 38.2212C21.5493 38.2212 22.6673 38.69 23.482 39.5413C24.287 40.3827 24.7303 41.5321 24.7303 42.778C24.7303 44.0603 24.2344 45.2342 23.1695 46.4721C22.2169 47.5796 20.8478 48.7037 19.2625 50.0053C18.7207 50.45 18.1068 50.9541 17.4696 51.491C17.3013 51.6328 17.0852 51.711 16.8613 51.711ZM13.3888 39.1094C12.4338 39.1094 11.5566 39.4766 10.9184 40.1434C10.2707 40.8202 9.91399 41.7558 9.91399 42.778C9.91399 43.8565 10.33 44.8211 11.2629 45.9055C12.1645 46.9536 13.5056 48.0547 15.0584 49.3296L15.0613 49.3319C15.6041 49.7777 16.2195 50.283 16.8599 50.8225C17.5043 50.2819 18.1206 49.7758 18.6645 49.3294C20.2172 48.0545 21.5581 46.9536 22.4598 45.9055C23.3925 44.8211 23.8085 43.8565 23.8085 42.778C23.8085 41.7558 23.4518 40.8202 22.8041 40.1434C22.1661 39.4766 21.2887 39.1094 20.3339 39.1094C19.6343 39.1094 18.9921 39.3236 18.425 39.7461C17.9196 40.1228 17.5675 40.5989 17.3611 40.9321C17.255 41.1034 17.0682 41.2057 16.8613 41.2057C16.6544 41.2057 16.4675 41.1034 16.3614 40.9321C16.1551 40.5989 15.8031 40.1228 15.2976 39.7461C14.7305 39.3236 14.0882 39.1094 13.3888 39.1094Z" fill="#16354A" stroke="#16354A" stroke-width="0.5"/>
<path d="M41.1249 29.228V35.9729H29.8833L25.3867 71.9458L26.5109 73.6321L28.7592 75.3183H77.6599L79.3461 71.9458L74.2874 35.9729H64.17L62.4838 27.5417L57.9872 22.483L50.6802 21.3589L44.4973 24.1693L41.1249 29.228Z" fill="white"/>
<path d="M79.9663 71.2048H79.9616L75.776 36.0497C75.72 35.5784 75.3204 35.2235 74.8458 35.2235H64.541V32.4131C64.541 25.6871 59.0886 20.2347 52.3627 20.2347C45.6367 20.2347 40.1843 25.6871 40.1843 32.4131V35.2235H29.8796C29.405 35.2235 29.0053 35.5784 28.9494 36.0497L24.7638 71.2048C24.458 73.7736 26.2925 76.1038 28.8613 76.4097C29.0454 76.4316 29.2305 76.4426 29.4159 76.4425H75.3142C77.901 76.443 79.9986 74.3464 79.9991 71.7594C79.9992 71.574 79.9882 71.3889 79.9663 71.2048ZM42.0579 32.4131C42.0579 26.7219 46.6715 22.1083 52.3627 22.1083C58.0538 22.1083 62.6674 26.7219 62.6674 32.4131V35.2235H42.0579V32.4131ZM77.4117 73.6246C76.8792 74.2241 76.1161 74.5677 75.3142 74.5689H29.4159C27.8637 74.5693 26.6051 73.3116 26.6046 71.7594C26.6046 71.6483 26.6111 71.5373 26.6242 71.4268L30.7115 37.0971H40.1843V43.6546C40.1843 44.172 40.6038 44.5914 41.1211 44.5914C41.6385 44.5914 42.0579 44.172 42.0579 43.6546V37.0971H62.6674V43.6546C62.6674 44.172 63.0869 44.5914 63.6042 44.5914C64.1216 44.5914 64.541 44.172 64.541 43.6546V37.0971H74.0139L78.1011 71.4268C78.1959 72.2243 77.9449 73.0242 77.4117 73.6246Z" fill="#16354A"/>
<path fill-rule="evenodd" clip-rule="evenodd" d="M75.8979 43.3652C76.1612 43.6849 76.1154 44.1576 75.7957 44.4209L37.5745 75.8972C37.2547 76.1605 36.782 76.1148 36.5187 75.795C36.2554 75.4753 36.3012 75.0026 36.6209 74.7393L74.8421 43.263C75.1619 42.9997 75.6346 43.0454 75.8979 43.3652Z" fill="#16354A"/>
<path fill-rule="evenodd" clip-rule="evenodd" d="M77.5901 54.615C77.8488 54.9384 77.7964 55.4104 77.473 55.6692L52.1795 75.9039C51.856 76.1627 51.3841 76.1103 51.1253 75.7868C50.8666 75.4634 50.919 74.9914 51.2424 74.7326L76.5359 54.4979C76.8594 54.2391 77.3313 54.2916 77.5901 54.615Z" fill="#16354A"/>
</g>
<defs>
<clipPath id="clip0">
<rect width="80" height="80" fill="white"/>
</clipPath>
</defs>
</svg>
