<svg width="168" height="168" viewBox="0 0 168 168" fill="none" xmlns="http://www.w3.org/2000/svg">
<g filter="url(#filter0_d)">
<circle cx="79" cy="75" r="50" fill="white"/>
<circle cx="79" cy="75" r="49.5" stroke="#F6F5FF"/>
</g>
<g clip-path="url(#clip0)">
<path d="M75.2831 71.2829H73.877V74.0952H75.2831C76.0593 74.0952 76.6893 73.4652 76.6893 72.689C76.6893 71.9128 76.0593 71.2829 75.2831 71.2829Z" fill="#1E4BFF"/>
<path d="M99.9319 75.5011L101.906 70.3518C102.123 69.7837 101.954 69.1397 101.479 68.7544L97.1983 65.284L96.3321 59.8366C96.2365 59.2347 95.764 58.7651 95.1622 58.6695L89.7148 57.8033L86.2472 53.5201C85.8647 53.0449 85.2066 52.8761 84.6526 53.0927L79.5005 55.0697L74.3511 53.0955C73.7802 52.8761 73.1418 53.0505 72.7566 53.5229L69.2862 57.8061L63.8387 58.6723C63.2397 58.7679 62.7672 59.2404 62.6716 59.8394L61.8054 65.2868L57.5223 68.7572C57.0498 69.1397 56.8783 69.7837 57.0948 70.3518L59.0691 75.5011L57.0948 80.6505C56.8755 81.2186 57.0498 81.8626 57.5223 82.245L61.8054 85.7126L62.6716 91.1601C62.7672 91.7619 63.2369 92.2344 63.8387 92.33L69.2862 93.1962L72.7566 97.4765C73.1418 97.9546 73.7859 98.1233 74.354 97.904L79.5005 95.9325L84.6498 97.9068C84.8129 97.9687 84.9817 97.9996 85.1532 97.9996C85.5666 97.9996 85.9744 97.8168 86.2472 97.4765L89.7148 93.1962L95.1622 92.33C95.764 92.2344 96.2365 91.7619 96.3321 91.1601L97.1983 85.7126L101.479 82.245C101.954 81.8598 102.123 81.2186 101.906 80.6505L99.9319 75.5011ZM66.8451 74.095C67.6213 74.095 68.2512 74.7249 68.2512 75.5011C68.2512 76.2773 67.6213 76.9073 66.8451 76.9073H65.4389V81.1257C65.4389 81.9019 64.809 82.5319 64.0328 82.5319C63.2566 82.5319 62.6266 81.9019 62.6266 81.1257V69.8765C62.6266 69.1003 63.2566 68.4704 64.0328 68.4704H66.8451C67.6213 68.4704 68.2512 69.1003 68.2512 69.8765C68.2512 70.6527 67.6213 71.2827 66.8451 71.2827H65.4389V74.095H66.8451ZM76.5307 76.6964L79.2192 80.2821C79.6861 80.9036 79.5595 81.7838 78.938 82.2507C78.6849 82.4391 78.3896 82.5319 78.0971 82.5319C77.6697 82.5319 77.2478 82.3379 76.9722 81.9694L73.8759 77.8438V81.1257C73.8759 81.9019 73.2459 82.5319 72.4697 82.5319C71.6935 82.5319 71.0636 81.9019 71.0636 81.1257V69.8765C71.0636 69.1003 71.6935 68.4704 72.4697 68.4704H75.282C77.6078 68.4704 79.5005 70.363 79.5005 72.6888C79.5005 74.5787 78.2434 76.162 76.5307 76.6964ZM86.5312 74.095C87.3074 74.095 87.9374 74.7249 87.9374 75.5011C87.9374 76.2773 87.3074 76.9073 86.5312 76.9073H85.1251V79.7196H86.5312C87.3074 79.7196 87.9374 80.3495 87.9374 81.1257C87.9374 81.9019 87.3074 82.5319 86.5312 82.5319H83.7189C82.9427 82.5319 82.3128 81.9019 82.3128 81.1257V69.8765C82.3128 69.1003 82.9427 68.4704 83.7189 68.4704H86.5312C87.3074 68.4704 87.9374 69.1003 87.9374 69.8765C87.9374 70.6527 87.3074 71.2827 86.5312 71.2827H85.1251V74.095H86.5312ZM94.9682 74.095C95.7444 74.095 96.3743 74.7249 96.3743 75.5011C96.3743 76.2773 95.7444 76.9073 94.9682 76.9073H93.562V79.7196H94.9682C95.7444 79.7196 96.3743 80.3495 96.3743 81.1257C96.3743 81.9019 95.7444 82.5319 94.9682 82.5319H92.1559C91.3797 82.5319 90.7497 81.9019 90.7497 81.1257V69.8765C90.7497 69.1003 91.3797 68.4704 92.1559 68.4704H94.9682C95.7444 68.4704 96.3743 69.1003 96.3743 69.8765C96.3743 70.6527 95.7444 71.2827 94.9682 71.2827H93.562V74.095H94.9682Z" fill="#1E4BFF"/>
</g>
<defs>
<filter id="filter0_d" x="0" y="0" width="168" height="168" filterUnits="userSpaceOnUse" color-interpolation-filters="sRGB">
<feFlood flood-opacity="0" result="BackgroundImageFix"/>
<feColorMatrix in="SourceAlpha" type="matrix" values="0 0 0 0 0 0 0 0 0 0 0 0 0 0 0 0 0 0 127 0"/>
<feOffset dx="5" dy="9"/>
<feGaussianBlur stdDeviation="17"/>
<feColorMatrix type="matrix" values="0 0 0 0 0.0705882 0 0 0 0 0.207843 0 0 0 0 0.294118 0 0 0 0.06 0"/>
<feBlend mode="normal" in2="BackgroundImageFix" result="effect1_dropShadow"/>
<feBlend mode="normal" in="SourceGraphic" in2="effect1_dropShadow" result="shape"/>
</filter>
<clipPath id="clip0">
<rect width="45" height="45" fill="white" transform="translate(57 53)"/>
</clipPath>
</defs>
</svg>
