<svg width="168" height="168" viewBox="0 0 168 168" fill="none" xmlns="http://www.w3.org/2000/svg">
<g filter="url(#filter0_d)">
<circle cx="79" cy="75" r="50" fill="white"/>
<circle cx="79" cy="75" r="49.5" stroke="#F6F5FF"/>
</g>
<path d="M79.5001 80C86.9559 80 93.0001 73.9558 93.0001 66.5C93.0001 59.0441 86.9559 53 79.5001 53C72.0443 53 66.0001 59.0441 66.0001 66.5C66.0001 73.9559 72.0443 80 79.5001 80ZM73.4111 64.8492H74.0391C74.8104 61.4063 77.8916 58.8248 81.5671 58.8248C82.5012 58.8248 83.2584 59.5788 83.2584 60.5089C83.2584 61.439 82.5012 62.1929 81.5671 62.1929C79.7737 62.1929 78.2315 63.2899 77.5736 64.8491H81.5671C82.5012 64.8491 83.2584 65.603 83.2584 66.5331C83.2584 67.4632 82.5012 68.2172 81.5671 68.2172H77.5736C78.2315 69.7764 79.7737 70.8733 81.5671 70.8733C82.5012 70.8733 83.2584 71.6273 83.2584 72.5574C83.2584 73.4875 82.5012 74.2414 81.5671 74.2414C77.8916 74.2414 74.8104 71.66 74.0391 68.2171H73.4111C72.477 68.2171 71.7198 67.4631 71.7198 66.533C71.7198 65.6029 72.477 64.8492 73.4111 64.8492Z" fill="#1E4BFF"/>
<path d="M60.8523 83.1846C59.1391 83.1846 57.7501 84.5794 57.7501 86.3001V94.1344C57.7501 95.8551 59.1391 97.25 60.8523 97.25C62.5656 97.25 63.9545 95.8551 64.0081 94.1307V86.2964C63.9545 84.5794 62.5656 83.1846 60.8523 83.1846Z" fill="#1E4BFF"/>
<path d="M99.6754 83.1037C99.6421 83.0774 99.6079 83.0528 99.5742 83.0279C98.3476 82.1234 97.2431 82.4069 96.5649 83.2686L91.251 90.0208C91.0132 90.3229 90.6617 90.4975 90.2912 90.4975H78.3961C78.162 90.4975 77.9357 90.3918 77.7876 90.1989C76.9338 89.0868 77.6605 87.8367 78.6617 87.8367L88.0769 87.8371C89.1446 87.8371 90.0102 86.9169 90.0102 85.7818C90.0102 84.6467 89.1446 83.7265 88.0769 83.7265H82.0557C81.6352 83.7265 81.2158 83.6416 80.834 83.4543C80.8312 83.4528 80.8283 83.4515 80.8256 83.4501L78.571 82.3358C77.2036 81.66 75.7102 81.3948 74.2451 81.5374C72.7394 81.6839 71.3225 82.3606 70.1852 83.4197L68.7677 84.7397C68.2991 85.1761 67.6958 85.4141 67.0729 85.4086L66.0363 85.3993C66.1091 85.749 66.1519 86.108 66.1626 86.4727C66.1634 86.4987 66.1638 86.5248 66.1638 86.5509V94.4383C66.1638 94.4642 66.1634 94.4901 66.1626 94.5162C66.1503 94.937 66.0943 95.3499 66.0001 95.75H90.1724C91.8079 95.75 93.3554 94.9619 94.3804 93.6071L99.8339 86.5791C100.712 85.447 100.784 83.9786 99.6754 83.1037Z" fill="#1E4BFF"/>
<ellipse cx="79.5" cy="66.5" rx="10.5" ry="9" fill="#1E4BFF"/>
<path d="M82.6126 68.4066L85 69.478C84.0506 71.1593 82.452 72 80.2042 72C78.6544 72 77.377 71.5989 76.3717 70.7967C75.3805 69.9945 74.7452 68.9066 74.466 67.533H73V66.2473H74.3194V66V65.6044H73V64.3352H74.4869C74.7801 62.9945 75.4223 61.9396 76.4136 61.1703C77.4049 60.3901 78.6684 60 80.2042 60C82.3682 60 83.9459 60.8022 84.9372 62.4066L82.5288 63.4945C82.0122 62.6374 81.2373 62.2088 80.2042 62.2088C78.7382 62.2088 77.8028 62.9176 77.3979 64.3352H81.6911V65.6044H77.1885V66V66.2473H81.6911V67.533H77.356C77.7469 69.0275 78.6963 69.7747 80.2042 69.7747C81.2653 69.7747 82.0681 69.3187 82.6126 68.4066Z" fill="white"/>
<defs>
<filter id="filter0_d" x="0" y="0" width="168" height="168" filterUnits="userSpaceOnUse" color-interpolation-filters="sRGB">
<feFlood flood-opacity="0" result="BackgroundImageFix"/>
<feColorMatrix in="SourceAlpha" type="matrix" values="0 0 0 0 0 0 0 0 0 0 0 0 0 0 0 0 0 0 127 0"/>
<feOffset dx="5" dy="9"/>
<feGaussianBlur stdDeviation="17"/>
<feColorMatrix type="matrix" values="0 0 0 0 0.0705882 0 0 0 0 0.207843 0 0 0 0 0.294118 0 0 0 0.06 0"/>
<feBlend mode="normal" in2="BackgroundImageFix" result="effect1_dropShadow"/>
<feBlend mode="normal" in="SourceGraphic" in2="effect1_dropShadow" result="shape"/>
</filter>
</defs>
</svg>
