<svg width="168" height="168" viewBox="0 0 168 168" fill="none" xmlns="http://www.w3.org/2000/svg">
<g filter="url(#filter0_d)">
<circle cx="79" cy="75" r="50" fill="white"/>
<circle cx="79" cy="75" r="49.5" stroke="#F6F5FF"/>
</g>
<g clip-path="url(#clip0)">
<path d="M94.4782 62.6927C91.2322 59.3349 87.031 57.1998 82.4716 56.5502L83.7711 55.2507C84.286 54.7358 84.286 53.9011 83.7711 53.3863C83.2563 52.8715 82.4216 52.8715 81.9067 53.3863L78.568 56.7249C78.0531 57.2397 78.0531 58.0744 78.568 58.5893L81.9066 61.9279C82.164 62.1854 82.5014 62.3141 82.8388 62.3141C83.1761 62.3141 83.5136 62.1854 83.7709 61.9279C84.2858 61.4131 84.2858 60.5784 83.7709 60.0635L83.0243 59.3169C86.6465 60.0257 89.9687 61.8217 92.5823 64.5252C95.8787 67.935 97.694 72.4255 97.694 77.1694C97.6942 87.2016 89.5323 95.3634 79.5002 95.3634C69.4681 95.3634 61.3063 87.2016 61.3063 77.1695C61.3063 73.3414 62.4811 69.6795 64.7039 66.5798C66.8805 63.5443 69.8811 61.2793 73.3815 60.0297C74.0672 59.7848 74.4246 59.0305 74.1798 58.3447C73.935 57.659 73.1806 57.3016 72.4948 57.5464C68.4868 58.9773 65.0517 61.5698 62.561 65.0433C60.0152 68.5937 58.6696 72.7869 58.6696 77.1696C58.6696 82.7337 60.8363 87.9646 64.7707 91.8991C68.7052 95.8332 73.9362 98.0001 79.5002 98.0001C85.0643 98.0001 90.2953 95.8333 94.2297 91.899C98.1642 87.9646 100.331 82.7336 100.331 77.1695C100.331 71.738 98.2523 66.5967 94.4782 62.6927Z" fill="#1E4BFF"/>
<path d="M65.9539 77.1694C65.9539 84.6383 72.0303 90.7147 79.4992 90.7147C86.9681 90.7147 93.0445 84.6383 93.0445 77.1694C93.0445 69.7006 86.9681 63.624 79.4992 63.624C72.0302 63.624 65.9539 69.7005 65.9539 77.1694ZM80.3085 78.3429C78.4108 77.672 77.3113 77.1432 76.5136 76.5175C75.5318 75.7475 75.0824 74.4177 75.3407 73.047C75.6209 71.5601 76.6578 70.3764 78.0469 69.9579C78.0662 69.9521 78.0851 69.9475 78.1042 69.9418V69.411C78.1042 68.6829 78.6945 68.0926 79.4226 68.0926C80.1507 68.0926 80.7409 68.6829 80.7409 69.411V69.8579C81.6614 70.0735 82.3039 70.4942 82.5636 70.6884C83.1468 71.1244 83.2661 71.9505 82.8302 72.5337C82.3942 73.117 81.5682 73.2362 80.9848 72.8003C80.7057 72.5917 79.9352 72.1427 78.8074 72.4825C78.1411 72.6832 77.9688 73.339 77.9318 73.5352C77.8587 73.9228 77.9427 74.2877 78.1407 74.4429C78.8304 74.9837 80.0677 75.4612 81.1872 75.8569C83.235 76.5807 84.3737 78.4779 84.0207 80.5775C83.8474 81.6083 83.3289 82.5649 82.5604 83.271C82.0319 83.7565 81.416 84.1017 80.7409 84.2965V84.9277C80.7409 85.6558 80.1507 86.2461 79.4226 86.2461C78.6945 86.2461 78.1042 85.6558 78.1042 84.9277V84.4261C77.2272 84.323 76.4953 84.0529 75.511 83.4091C74.9017 83.0105 74.7309 82.1933 75.1295 81.584C75.528 80.9746 76.3453 80.8039 76.9545 81.2025C77.8671 81.7995 78.2121 81.8544 79.4138 81.846C80.5969 81.8381 81.2833 80.9563 81.4205 80.1403C81.4876 79.7418 81.5134 78.7688 80.3085 78.3429Z" fill="#1E4BFF"/>
<ellipse cx="79.4996" cy="77.1875" rx="10.125" ry="10.125" fill="#1E4BFF"/>
<path d="M82.2852 79.5068L84.5413 80.5193C83.6441 82.1081 82.1334 82.9025 80.0093 82.9025C78.5448 82.9025 77.3375 82.5235 76.3876 81.7654C75.4508 81.0073 74.8505 79.9793 74.5866 78.6812H73.2013V77.4662H74.4481V77.2325V76.8587H73.2013V75.6593H74.6064C74.8835 74.3923 75.4904 73.3954 76.4272 72.6685C77.3639 71.9312 78.5579 71.5625 80.0093 71.5625C82.0543 71.5625 83.5452 72.3206 84.4819 73.8368L82.206 74.8648C81.7178 74.0548 80.9856 73.6498 80.0093 73.6498C78.6239 73.6498 77.7399 74.3196 77.3573 75.6593H81.4144V76.8587H77.1594V77.2325V77.4662H81.4144V78.6812H77.3177C77.6872 80.0935 78.5843 80.7996 80.0093 80.7996C81.012 80.7996 81.7706 80.3687 82.2852 79.5068Z" fill="white"/>
</g>
<defs>
<filter id="filter0_d" x="0" y="0" width="168" height="168" filterUnits="userSpaceOnUse" color-interpolation-filters="sRGB">
<feFlood flood-opacity="0" result="BackgroundImageFix"/>
<feColorMatrix in="SourceAlpha" type="matrix" values="0 0 0 0 0 0 0 0 0 0 0 0 0 0 0 0 0 0 127 0"/>
<feOffset dx="5" dy="9"/>
<feGaussianBlur stdDeviation="17"/>
<feColorMatrix type="matrix" values="0 0 0 0 0.0705882 0 0 0 0 0.207843 0 0 0 0 0.294118 0 0 0 0.06 0"/>
<feBlend mode="normal" in2="BackgroundImageFix" result="effect1_dropShadow"/>
<feBlend mode="normal" in="SourceGraphic" in2="effect1_dropShadow" result="shape"/>
</filter>
<clipPath id="clip0">
<rect width="45" height="45" fill="white" transform="translate(57 53)"/>
</clipPath>
</defs>
</svg>
