<svg width="25" height="25" viewBox="0 0 25 25" fill="none" xmlns="http://www.w3.org/2000/svg">
<path d="M12.4996 0C7.50718 0 3.44556 4.06162 3.44556 9.054C3.44556 15.2497 11.548 24.3454 11.893 24.7295C12.217 25.0904 12.7828 25.0898 13.1062 24.7295C13.4512 24.3454 21.5537 15.2497 21.5537 9.054C21.5536 4.06162 17.492 0 12.4996 0ZM12.4996 13.6093C9.98779 13.6093 7.94434 11.5658 7.94434 9.054C7.94434 6.54219 9.98784 4.49873 12.4996 4.49873C15.0114 4.49873 17.0548 6.54224 17.0548 9.05405C17.0548 11.5659 15.0114 13.6093 12.4996 13.6093Z" fill="white"/>
</svg>
