<svg width="70" height="70" viewBox="0 0 70 70" fill="none" xmlns="http://www.w3.org/2000/svg">
<g clip-path="url(#clip0)">
<path d="M20.7623 57.5587H14.059C25.8834 68.5234 44.1186 68.5218 55.9414 57.5587H49.2394C40.5421 63.0489 29.4878 63.0667 20.7623 57.5587Z" fill="#1E4BFF"/>
<path d="M49.2392 12.4415H55.9425C44.1191 1.4777 25.8788 1.47702 14.0574 12.4415H20.7593C29.4541 6.9511 40.5135 6.93333 49.2392 12.4415Z" fill="#1E4BFF"/>
<path d="M16.5186 50.5811L26.454 40.6458C21.9779 33.8999 26.7963 24.7115 35.0172 24.7115C37.1089 24.7115 39.0556 25.3414 40.6803 26.4195L50.5567 16.5431H16.543V18.5939C16.543 26.5095 10.1031 32.9493 2.1875 32.9493H0V37.0509H2.1875C9.82611 37.0508 16.0896 43.0479 16.5186 50.5811ZM14.4922 32.9492H18.5938C19.7263 32.9492 20.6445 33.8674 20.6445 35C20.6445 36.1326 19.7263 37.0508 18.5938 37.0508H14.4922C13.3596 37.0508 12.4414 36.1326 12.4414 35C12.4414 33.8674 13.3596 32.9492 14.4922 32.9492Z" fill="#1E4BFF"/>
<path d="M40.5809 32.3186L32.3528 40.5469C37.5642 43.052 43.0967 37.5519 40.5809 32.3186Z" fill="#1E4BFF"/>
<path d="M29.4536 37.6466L37.6818 29.4183C32.4609 26.9087 26.9403 32.4185 29.4536 37.6466Z" fill="#1E4BFF"/>
<path d="M53.5141 19.3862L43.5808 29.3195C48.0568 36.0654 43.2384 45.2538 35.0175 45.2538C32.9259 45.2538 30.9791 44.624 29.3545 43.5458L19.4434 53.4569H53.4919V51.4062C53.4919 43.4906 59.9318 37.0507 67.8474 37.0507H70.0002V32.9491H67.8474C60.1977 32.9493 53.9268 26.9347 53.5141 19.3862ZM55.508 37.0508H51.4064C50.2738 37.0508 49.3556 36.1326 49.3556 35.0001C49.3556 33.8675 50.2738 32.9493 51.4064 32.9493H55.508C56.6406 32.9493 57.5588 33.8675 57.5588 35.0001C57.5588 36.1326 56.6406 37.0508 55.508 37.0508Z" fill="#1E4BFF"/>
<path d="M12.4414 18.5939V16.5431H2.05078C0.918203 16.5431 0 17.4613 0 18.5939V28.8478H2.1875C7.8415 28.8478 12.4414 24.2479 12.4414 18.5939Z" fill="#1E4BFF"/>
<path d="M2.1875 41.1525H0V51.4064C0 52.5389 0.918203 53.4572 2.05078 53.4572H12.4414V51.4064C12.4414 45.7522 7.8415 41.1525 2.1875 41.1525Z" fill="#1E4BFF"/>
<path d="M67.9493 16.5431H57.5934V18.5939C57.5934 24.2479 62.1933 28.8478 67.8473 28.8478H70.0001V18.5939C70.0001 17.4613 69.0819 16.5431 67.9493 16.5431Z" fill="#1E4BFF"/>
<path d="M57.5934 51.4064V53.4572H67.9493C69.0819 53.4572 70.0001 52.5389 70.0001 51.4064V41.1525H67.8473C62.1933 41.1525 57.5934 45.7522 57.5934 51.4064Z" fill="#1E4BFF"/>
<rect x="47.25" y="32.375" width="11.375" height="5.25" fill="#1E4BFF"/>
<rect x="10.5" y="32.375" width="11.375" height="5.25" fill="#1E4BFF"/>
</g>
<defs>
<clipPath id="clip0">
<rect width="70" height="70" fill="white"/>
</clipPath>
</defs>
</svg>
