<svg width="19" height="22" viewBox="0 0 19 22" fill="none" xmlns="http://www.w3.org/2000/svg">
<path d="M15.2199 15.4121L19 17.3764C17.4968 20.4588 14.9657 22 11.4066 22C8.95288 22 6.93019 21.2646 5.33857 19.794C3.76905 18.3233 2.76323 16.3288 2.32112 13.8104H0V11.4533H2.08901V11V10.2747H0V7.9478H2.35428C2.8185 5.48993 3.83537 3.55586 5.40489 2.14561C6.9744 0.715202 8.97498 0 11.4066 0C14.833 0 17.331 1.4707 18.9005 4.41209L15.0873 6.40659C14.2693 4.83516 13.0425 4.04945 11.4066 4.04945C9.08551 4.04945 7.60442 5.3489 6.96335 7.9478H13.7609V10.2747H6.63176V11V11.4533H13.7609V13.8104H6.89703C7.516 16.5504 9.0192 17.9203 11.4066 17.9203C13.0867 17.9203 14.3578 17.0842 15.2199 15.4121Z" fill="white"/>
</svg>
