<svg width="25" height="25" viewBox="0 0 25 25" fill="none" xmlns="http://www.w3.org/2000/svg">
<g clip-path="url(#clip0)">
<path d="M15.2535 12.5015L24.6006 3.15394C24.8577 2.89663 24.9996 2.55334 25 2.18728C25 1.82102 24.8581 1.47732 24.6006 1.22041L23.7815 0.401506C23.524 0.143579 23.1807 0.00231934 22.8142 0.00231934C22.4484 0.00231934 22.1051 0.143579 21.8476 0.401506L12.5004 9.74846L3.15285 0.401506C2.89573 0.143579 2.55224 0.00231934 2.18598 0.00231934C1.82012 0.00231934 1.47663 0.143579 1.21951 0.401506L0.4 1.22041C-0.133333 1.75374 -0.133333 2.62122 0.4 3.15394L9.74736 12.5015L0.4 21.8487C0.142683 22.1064 0.00101626 22.4497 0.00101626 22.8157C0.00101626 23.1818 0.142683 23.5251 0.4 23.7826L1.21931 24.6015C1.47642 24.8592 1.82012 25.0007 2.18577 25.0007C2.55203 25.0007 2.89553 24.8592 3.15264 24.6015L12.5002 15.2543L21.8474 24.6015C22.1049 24.8592 22.4482 25.0007 22.814 25.0007H22.8144C23.1805 25.0007 23.5238 24.8592 23.7813 24.6015L24.6004 23.7826C24.8575 23.5253 24.9994 23.1818 24.9994 22.8157C24.9994 22.4497 24.8575 22.1064 24.6004 21.8489L15.2535 12.5015Z" fill="#1E4BFF"/>
</g>
<defs>
<clipPath id="clip0">
<rect width="25" height="25" fill="white"/>
</clipPath>
</defs>
</svg>
