<svg width="86" height="86" viewBox="0 0 86 86" fill="none" xmlns="http://www.w3.org/2000/svg">
<rect width="86" height="86" rx="43" fill="white"/>
<g clip-path="url(#clip0)">
<path d="M42.7862 42.4511C44.7715 42.4511 46.4907 41.7391 47.8953 40.3342C49.3 38.9296 50.012 37.2109 50.012 35.2253C50.012 33.2405 49.3 31.5216 47.8951 30.1165C46.4902 28.7121 44.7713 28 42.7862 28C40.8007 28 39.082 28.7121 37.6774 30.1167C36.2727 31.5213 35.5604 33.2402 35.5604 35.2253C35.5604 37.2109 36.2727 38.9298 37.6776 40.3344C39.0825 41.7389 40.8014 42.4511 42.7862 42.4511Z" fill="#1E4BFF"/>
<path d="M55.4294 51.0686C55.3889 50.484 55.307 49.8463 55.1864 49.173C55.0646 48.4946 54.9078 47.8532 54.7201 47.2671C54.5263 46.6612 54.2626 46.0629 53.9367 45.4896C53.5984 44.8945 53.201 44.3763 52.7552 43.9499C52.2889 43.5038 51.7181 43.1451 51.058 42.8835C50.4002 42.6233 49.6712 42.4914 48.8914 42.4914C48.5852 42.4914 48.289 42.6171 47.717 42.9895C47.365 43.2191 46.9532 43.4846 46.4937 43.7782C46.1007 44.0286 45.5683 44.2632 44.9107 44.4756C44.2691 44.6832 43.6178 44.7885 42.9748 44.7885C42.3319 44.7885 41.6807 44.6832 41.0385 44.4756C40.3816 44.2634 39.8492 44.0288 39.4567 43.7784C39.0014 43.4875 38.5894 43.222 38.2322 42.9893C37.6609 42.6169 37.3645 42.4912 37.0582 42.4912C36.2782 42.4912 35.5494 42.6233 34.8919 42.8837C34.2322 43.1449 33.6612 43.5036 33.1945 43.9501C32.7488 44.3767 32.3513 44.8947 32.0134 45.4896C31.6877 46.0629 31.4241 46.661 31.23 47.2673C31.0425 47.8535 30.8857 48.4946 30.764 49.173C30.6434 49.8454 30.5614 50.4833 30.5209 51.0692C30.4811 51.6433 30.4609 52.2391 30.4609 52.8408C30.4609 54.4068 30.9588 55.6746 31.9404 56.6096C32.91 57.5322 34.1929 58.0002 35.7529 58.0002H50.1981C51.7582 58.0002 53.0406 57.5324 54.0104 56.6096C54.9923 55.6753 55.4901 54.4073 55.4901 52.8406C55.4899 52.2361 55.4695 51.6398 55.4294 51.0686Z" fill="#1E4BFF"/>
</g>
<defs>
<clipPath id="clip0">
<rect width="30" height="30.0001" fill="white" transform="translate(28 28)"/>
</clipPath>
</defs>
</svg>
