<svg width="86" height="86" viewBox="0 0 86 86" fill="none" xmlns="http://www.w3.org/2000/svg">
<rect width="86" height="86" rx="43" fill="white"/>
<path d="M58 34.5625V37.375H28V34.5625C28 33.8166 28.2963 33.1012 28.8238 32.5738C29.3512 32.0463 30.0666 31.75 30.8125 31.75H32.6875V30.3438C32.6875 29.7221 32.9344 29.126 33.374 28.6865C33.8135 28.2469 34.4096 28 35.0312 28C35.6529 28 36.249 28.2469 36.6885 28.6865C37.1281 29.126 37.375 29.7221 37.375 30.3438V31.75H48.625V30.3438C48.625 29.7221 48.8719 29.126 49.3115 28.6865C49.751 28.2469 50.3471 28 50.9688 28C51.5904 28 52.1865 28.2469 52.626 28.6865C53.0656 29.126 53.3125 29.7221 53.3125 30.3438V31.75H55.1875C55.9334 31.75 56.6488 32.0463 57.1762 32.5738C57.7037 33.1012 58 33.8166 58 34.5625ZM28 40.6562H58V55.1875C58 55.9334 57.7037 56.6488 57.1762 57.1762C56.6488 57.7037 55.9334 58 55.1875 58H30.8125C30.0666 58 29.3512 57.7037 28.8238 57.1762C28.2963 56.6488 28 55.9334 28 55.1875V40.6562ZM47.6875 46.75C47.6875 46.9986 47.7863 47.2371 47.9621 47.4129C48.1379 47.5887 48.3764 47.6875 48.625 47.6875H50.5C50.7486 47.6875 50.9871 47.5887 51.1629 47.4129C51.3387 47.2371 51.4375 46.9986 51.4375 46.75V44.875C51.4375 44.6264 51.3387 44.3879 51.1629 44.2121C50.9871 44.0363 50.7486 43.9375 50.5 43.9375H48.625C48.3764 43.9375 48.1379 44.0363 47.9621 44.2121C47.7863 44.3879 47.6875 44.6264 47.6875 44.875V46.75ZM41.125 46.75C41.125 46.9986 41.2238 47.2371 41.3996 47.4129C41.5754 47.5887 41.8139 47.6875 42.0625 47.6875H43.9375C44.1861 47.6875 44.4246 47.5887 44.6004 47.4129C44.7762 47.2371 44.875 46.9986 44.875 46.75V44.875C44.875 44.6264 44.7762 44.3879 44.6004 44.2121C44.4246 44.0363 44.1861 43.9375 43.9375 43.9375H42.0625C41.8139 43.9375 41.5754 44.0363 41.3996 44.2121C41.2238 44.3879 41.125 44.6264 41.125 44.875V46.75ZM41.125 53.3125C41.125 53.5611 41.2238 53.7996 41.3996 53.9754C41.5754 54.1512 41.8139 54.25 42.0625 54.25H43.9375C44.1861 54.25 44.4246 54.1512 44.6004 53.9754C44.7762 53.7996 44.875 53.5611 44.875 53.3125V51.4375C44.875 51.1889 44.7762 50.9504 44.6004 50.7746C44.4246 50.5988 44.1861 50.5 43.9375 50.5H42.0625C41.8139 50.5 41.5754 50.5988 41.3996 50.7746C41.2238 50.9504 41.125 51.1889 41.125 51.4375V53.3125ZM34.5625 46.75C34.5625 46.9986 34.6613 47.2371 34.8371 47.4129C35.0129 47.5887 35.2514 47.6875 35.5 47.6875H37.375C37.6236 47.6875 37.8621 47.5887 38.0379 47.4129C38.2137 47.2371 38.3125 46.9986 38.3125 46.75V44.875C38.3125 44.6264 38.2137 44.3879 38.0379 44.2121C37.8621 44.0363 37.6236 43.9375 37.375 43.9375H35.5C35.2514 43.9375 35.0129 44.0363 34.8371 44.2121C34.6613 44.3879 34.5625 44.6264 34.5625 44.875V46.75ZM34.5625 53.3125C34.5625 53.5611 34.6613 53.7996 34.8371 53.9754C35.0129 54.1512 35.2514 54.25 35.5 54.25H37.375C37.6236 54.25 37.8621 54.1512 38.0379 53.9754C38.2137 53.7996 38.3125 53.5611 38.3125 53.3125V51.4375C38.3125 51.1889 38.2137 50.9504 38.0379 50.7746C37.8621 50.5988 37.6236 50.5 37.375 50.5H35.5C35.2514 50.5 35.0129 50.5988 34.8371 50.7746C34.6613 50.9504 34.5625 51.1889 34.5625 51.4375V53.3125Z" fill="#1E4BFF"/>
<rect x="30" y="42" width="24" height="14" fill="#1E4BFF"/>
</svg>
