<svg width="20" height="20" viewBox="0 0 20 20" fill="none" xmlns="http://www.w3.org/2000/svg">
<path d="M18.2735 16.8692L16.8427 14.4842C16.1818 13.3834 15.8327 12.1225 15.8327 10.8392V8.75C15.8327 6.1125 14.0727 3.88168 11.666 3.1625V1.66668C11.666 0.7475 10.9185 0 9.99929 0C9.08011 0 8.33261 0.7475 8.33261 1.66668V3.1625C5.92597 3.88168 4.16597 6.1125 4.16597 8.75V10.8392C4.16597 12.1225 3.81679 13.3825 3.15679 14.4834L1.72597 16.8684C1.64847 16.9975 1.64679 17.1575 1.72097 17.2884C1.79515 17.4192 1.93265 17.5 2.08265 17.5H17.916C18.066 17.5 18.2043 17.4192 18.2785 17.2892C18.3527 17.1592 18.3502 16.9975 18.2735 16.8692Z" fill="#1E4BFF"/>
<path d="M7.37573 18.333C7.84573 19.3147 8.84073 19.9997 9.99987 19.9997C11.159 19.9997 12.1541 19.3147 12.6241 18.333H7.37573Z" fill="#1E4BFF"/>
</svg>
