<svg width="20" height="20" viewBox="0 0 20 20" fill="none" xmlns="http://www.w3.org/2000/svg">
<g clip-path="url(#clip0)">
<path d="M12.2028 10.0017L19.6805 2.52362C19.8862 2.31777 19.9997 2.04313 20 1.75029C20 1.45728 19.8865 1.18232 19.6805 0.976791L19.0252 0.321669C18.8192 0.115327 18.5446 0.00231934 18.2514 0.00231934C17.9587 0.00231934 17.6841 0.115327 17.478 0.321669L10.0003 7.79923L2.52228 0.321669C2.31659 0.115327 2.04179 0.00231934 1.74878 0.00231934C1.4561 0.00231934 1.1813 0.115327 0.97561 0.321669L0.32 0.976791C-0.106667 1.40346 -0.106667 2.09744 0.32 2.52362L7.79789 10.0017L0.32 17.4794C0.114146 17.6856 0.000813008 17.9602 0.000813008 18.253C0.000813008 18.5459 0.114146 18.8205 0.32 19.0265L0.975447 19.6817C1.18114 19.8878 1.4561 20.001 1.74862 20.001C2.04163 20.001 2.31642 19.8878 2.52211 19.6817L10.0002 12.2039L17.4779 19.6817C17.6839 19.8878 17.9585 20.001 18.2512 20.001H18.2515C18.5444 20.001 18.819 19.8878 19.025 19.6817L19.6803 19.0265C19.886 18.8207 19.9995 18.5459 19.9995 18.253C19.9995 17.9602 19.886 17.6856 19.6803 17.4796L12.2028 10.0017Z" fill="#FF3434"/>
</g>
<defs>
<clipPath id="clip0">
<rect width="20" height="20" fill="white"/>
</clipPath>
</defs>
</svg>
