<svg width="90" height="90" viewBox="0 0 90 90" fill="none" xmlns="http://www.w3.org/2000/svg">
<circle cx="45" cy="45" r="44.5" fill="white" stroke="#F6F5FF"/>
<g clip-path="url(#clip0)">
<path d="M45.4527 49.5002C52.163 49.5002 57.6027 44.0604 57.6027 37.3502C57.6027 30.6399 52.163 25.2002 45.4527 25.2002C38.7425 25.2002 33.3027 30.6399 33.3027 37.3502C33.3027 44.0605 38.7425 49.5002 45.4527 49.5002ZM39.9727 35.8644H40.5378C41.232 32.7658 44.0051 30.4425 47.313 30.4425C48.1537 30.4425 48.8352 31.1211 48.8352 31.9582C48.8352 32.7953 48.1537 33.4738 47.313 33.4738C45.699 33.4738 44.311 34.4611 43.7189 35.8644H47.313C48.1537 35.8644 48.8352 36.5429 48.8352 37.38C48.8352 38.2171 48.1537 38.8957 47.313 38.8957H43.7189C44.311 40.2989 45.699 41.2862 47.313 41.2862C48.1537 41.2862 48.8352 41.9648 48.8352 42.8018C48.8352 43.6389 48.1537 44.3175 47.313 44.3175C44.0051 44.3175 41.232 41.9942 40.5378 38.8956H39.9727C39.132 38.8956 38.4505 38.217 38.4505 37.3799C38.4505 36.5428 39.132 35.8644 39.9727 35.8644Z" fill="#1E4BFF"/>
<path d="M28.6699 52.3662C27.128 52.3662 25.8779 53.6216 25.8779 55.1702V62.2211C25.8779 63.7697 27.128 65.0251 28.6699 65.0251C30.2119 65.0251 31.4619 63.7697 31.5101 62.2178V55.1669C31.4619 53.6216 30.2118 52.3662 28.6699 52.3662Z" fill="#1E4BFF"/>
<path d="M63.6105 52.2934C63.5805 52.2698 63.5497 52.2476 63.5194 52.2252C62.4154 51.4112 61.4214 51.6664 60.8111 52.4419L56.0286 58.5188C55.8145 58.7907 55.4982 58.9478 55.1647 58.9478H44.4591C44.2484 58.9478 44.0447 58.8528 43.9115 58.6791C43.1431 57.6783 43.7971 56.5531 44.6982 56.5531L53.1718 56.5535C54.1328 56.5535 54.9118 55.7253 54.9118 54.7037C54.9118 53.6821 54.1328 52.854 53.1718 52.854H47.7527C47.3743 52.854 46.9969 52.7775 46.6532 52.6089C46.6507 52.6077 46.6481 52.6065 46.6457 52.6052L44.6165 51.6023C43.3859 50.9941 42.0418 50.7554 40.7232 50.8838C39.3681 51.0156 38.0929 51.6246 37.0693 52.5778L35.7935 53.7658C35.3718 54.1586 34.8289 54.3728 34.2682 54.3678L33.3353 54.3594C33.4008 54.6742 33.4394 54.9973 33.449 55.3255C33.4496 55.3489 33.45 55.3724 33.45 55.3959V62.4946C33.45 62.5179 33.4497 62.5412 33.449 62.5647C33.4379 62.9434 33.3875 63.315 33.3027 63.6751H55.0578C56.5297 63.6751 57.9225 62.9659 58.845 61.7465L63.7532 55.4213C64.5437 54.4024 64.6082 53.0809 63.6105 52.2934Z" fill="#1E4BFF"/>
<ellipse cx="45.4529" cy="37.3502" rx="9.45" ry="8.1" fill="#1E4BFF"/>
<path d="M48.2548 39.0662L50.4035 40.0305C49.5491 41.5437 48.1103 42.3003 46.0873 42.3003C44.6925 42.3003 43.5428 41.9393 42.6381 41.2173C41.7459 40.4953 41.1742 39.5162 40.9229 38.2799H39.6035V37.1228H40.791V36.9002V36.5442H39.6035V35.4019H40.9417C41.2056 34.1953 41.7836 33.2458 42.6758 32.5535C43.5679 31.8513 44.7051 31.5002 46.0873 31.5002C48.0349 31.5002 49.4548 32.2222 50.347 33.6662L48.1794 34.6453C47.7145 33.8739 47.0171 33.4882 46.0873 33.4882C44.7679 33.4882 43.926 34.1261 43.5616 35.4019H47.4255V36.5442H43.3732V36.9002V37.1228H47.4255V38.2799H43.5239C43.8758 39.625 44.7302 40.2975 46.0873 40.2975C47.0423 40.2975 47.7648 39.8871 48.2548 39.0662Z" fill="white"/>
</g>
<defs>
<clipPath id="clip0">
<rect width="40.5" height="40.5" fill="white" transform="translate(25.2031 25.2002)"/>
</clipPath>
</defs>
</svg>
