<svg width="90" height="90" viewBox="0 0 90 90" fill="none" xmlns="http://www.w3.org/2000/svg">
<circle cx="45" cy="45" r="44.5" fill="white" stroke="#F6F5FF"/>
<g clip-path="url(#clip0)">
<path d="M36.0004 42.4875C35.7362 41.8684 35.4637 41.2409 35.1996 40.63L34.1759 38.2524C33.1769 36.0234 33.9777 33.5219 36.0747 32.3083L36.182 32.2505C36.8424 31.9038 37.5937 31.7222 38.3367 31.7222C39.9383 31.7222 41.4161 32.5395 42.2912 33.9182C42.9516 34.9336 43.5625 35.9325 44.2065 36.9893L44.6358 37.691L44.644 37.6993C45.2137 36.5435 45.5439 35.2473 45.5439 33.8686C45.5439 29.0804 41.6637 25.2002 36.8755 25.2002C32.0872 25.2002 28.207 29.0804 28.207 33.8686C28.207 38.3597 31.6249 42.05 36.0004 42.4875Z" fill="#1E4BFF"/>
<path d="M62.5676 58.6768C62.8731 59.362 62.6254 60.1546 62.0392 60.5839L54.9559 65.2153C53.7836 65.9583 52.2233 65.851 51.1831 64.8685C48.0211 61.8635 43.8603 60.5508 43.8603 60.5508C42.8036 60.2206 41.8707 59.7913 40.9791 58.9905C40.3847 58.4374 39.4683 57.8512 38.8656 57.3476C37.264 56.035 35.5386 54.8709 33.6646 54.0206C32.8307 53.6574 32.6739 53.096 33.0867 52.2704C33.2931 51.8576 33.8379 51.3705 34.292 51.1972C35.3157 50.8174 36.3311 50.9825 37.2805 51.2467C37.8667 51.3623 40.3104 52.9309 41.4496 53.4923C42.4321 53.9793 42.688 53.0795 42.6962 51.9897C42.6962 51.4448 42.5394 50.9413 42.3743 50.4294C40.558 45.9879 38.6345 41.5876 36.7109 37.1378C36.2733 36.1636 36.5871 35.2225 37.4622 34.7106C38.329 34.2566 39.3857 34.5373 39.9471 35.4124C40.7397 36.6425 41.4827 37.8643 42.2752 39.1439C42.9687 40.308 43.7199 41.4225 44.4134 42.5865L45.2968 43.99C45.2968 43.99 51.5711 42.3141 58.2334 44.6587C58.5966 44.8073 58.9021 45.055 59.0177 45.4512C59.6203 46.929 61.1972 51.0156 61.3375 54.8462C61.5026 55.8451 61.7916 56.6954 61.9484 57.2568L62.5676 58.6768Z" fill="#1E4BFF"/>
</g>
<defs>
<clipPath id="clip0">
<rect width="40.5" height="40.5" fill="white" transform="translate(25.2031 25.2002)"/>
</clipPath>
</defs>
</svg>
