<svg width="90" height="90" viewBox="0 0 90 90" fill="none" xmlns="http://www.w3.org/2000/svg">
<circle cx="45" cy="45" r="44.5" fill="white" stroke="#F6F5FF"/>
<g clip-path="url(#clip0)">
<path d="M58.9339 33.9237C56.0124 30.9017 52.2313 28.9801 48.1279 28.3955L49.2975 27.2259C49.7608 26.7625 49.7608 26.0113 49.2975 25.5479C48.8342 25.0846 48.0829 25.0846 47.6195 25.5479L44.6147 28.5527C44.1513 29.016 44.1513 29.7673 44.6147 30.2306L47.6194 33.2354C47.8511 33.4671 48.1548 33.583 48.4584 33.583C48.7619 33.583 49.0657 33.4671 49.2973 33.2354C49.7607 32.7721 49.7607 32.0208 49.2973 31.5574L48.6253 30.8854C51.8854 31.5234 54.8753 33.1398 57.2276 35.5729C60.1943 38.6418 61.8281 42.6832 61.8281 46.9527C61.8283 55.9817 54.4826 63.3273 45.4537 63.3273C36.4248 63.3273 29.0791 55.9817 29.0791 46.9528C29.0791 43.5075 30.1365 40.2118 32.1369 37.4221C34.0959 34.6902 36.7964 32.6516 39.9468 31.527C40.5639 31.3066 40.8856 30.6277 40.6653 30.0105C40.445 29.3934 39.766 29.0717 39.1488 29.292C35.5415 30.5799 32.45 32.9131 30.2084 36.0392C27.9171 39.2346 26.7061 43.0085 26.7061 46.9529C26.7061 51.9606 28.6561 56.6684 32.1971 60.2094C35.7381 63.7502 40.446 65.7003 45.4537 65.7003C50.4614 65.7003 55.1693 63.7502 58.7102 60.2093C62.2512 56.6684 64.2013 51.9605 64.2013 46.9528C64.2013 42.0645 62.3306 37.4373 58.9339 33.9237Z" fill="#1E4BFF"/>
<path d="M33.2617 46.9529C33.2617 53.6748 38.7305 59.1436 45.4525 59.1436C52.1745 59.1436 57.6433 53.6748 57.6433 46.9529C57.6433 40.2309 52.1745 34.762 45.4525 34.762C38.7304 34.762 33.2617 40.2308 33.2617 46.9529ZM46.1809 48.0089C44.4729 47.4052 43.4834 46.9293 42.7655 46.3662C41.8819 45.6732 41.4774 44.4763 41.7098 43.2427C41.962 41.9044 42.8953 40.8391 44.1455 40.4625C44.1628 40.4573 44.1798 40.4531 44.197 40.448V39.9702C44.197 39.315 44.7283 38.7837 45.3836 38.7837C46.0388 38.7837 46.5701 39.315 46.5701 39.9702V40.3725C47.3985 40.5665 47.9768 40.9452 48.2105 41.1199C48.7353 41.5123 48.8428 42.2558 48.4504 42.7807C48.058 43.3056 47.3147 43.4129 46.7896 43.0206C46.5384 42.8329 45.845 42.4288 44.8299 42.7346C44.2303 42.9153 44.0751 43.5055 44.0418 43.6821C43.9761 44.0309 44.0517 44.3593 44.2299 44.499C44.8506 44.9857 45.9642 45.4154 46.9717 45.7716C48.8148 46.423 49.8396 48.1304 49.5219 50.0201C49.3659 50.9479 48.8992 51.8087 48.2076 52.4443C47.7319 52.8812 47.1777 53.1919 46.5701 53.3672V53.9353C46.5701 54.5906 46.0388 55.1218 45.3836 55.1218C44.7283 55.1218 44.197 54.5906 44.197 53.9353V53.4839C43.4077 53.3911 42.749 53.148 41.8631 52.5685C41.3147 52.2098 41.161 51.4744 41.5198 50.926C41.8785 50.3775 42.614 50.2239 43.1623 50.5826C43.9836 51.1199 44.2942 51.1693 45.3757 51.1618C46.4404 51.1547 47.0582 50.361 47.1817 49.6267C47.2421 49.268 47.2653 48.3923 46.1809 48.0089Z" fill="#1E4BFF"/>
<ellipse cx="45.4523" cy="46.9689" rx="9.1125" ry="9.1125" fill="#1E4BFF"/>
<path d="M47.9597 49.0563L49.9902 49.9676C49.1827 51.3975 47.8231 52.1125 45.9113 52.1125C44.5933 52.1125 43.5068 51.7714 42.6518 51.0891C41.8088 50.4068 41.2685 49.4816 41.031 48.3133H39.7842V47.2198H40.9063V47.0095V46.673H39.7842V45.5936H41.0488C41.2982 44.4533 41.8444 43.5561 42.6875 42.9019C43.5305 42.2383 44.6052 41.9065 45.9113 41.9065C47.7519 41.9065 49.0937 42.5888 49.9367 43.9533L47.8884 44.8786C47.4491 44.1496 46.79 43.7851 45.9113 43.7851C44.6645 43.7851 43.869 44.3879 43.5246 45.5936H47.176V46.673H43.3465V47.0095V47.2198H47.176V48.3133H43.489C43.8215 49.5844 44.6289 50.2199 45.9113 50.2199C46.8138 50.2199 47.4966 49.832 47.9597 49.0563Z" fill="white"/>
</g>
<defs>
<clipPath id="clip0">
<rect width="40.5" height="40.5" fill="white" transform="translate(25.2031 25.2002)"/>
</clipPath>
</defs>
</svg>
