<svg width="90" height="90" viewBox="0 0 90 90" fill="none" xmlns="http://www.w3.org/2000/svg">
<circle cx="45" cy="45" r="44.5" fill="white" stroke="#F6F5FF"/>
<g clip-path="url(#clip0)">
<path d="M41.6581 41.6548H40.3926V44.1859H41.6581C42.3567 44.1859 42.9237 43.6189 42.9237 42.9203C42.9237 42.2217 42.3567 41.6548 41.6581 41.6548Z" fill="#1E4BFF"/>
<path d="M63.8419 45.4511L65.6188 40.8167C65.8136 40.3055 65.6618 39.7258 65.234 39.3791L61.3817 36.2557L60.6022 31.353C60.5161 30.8114 60.0909 30.3887 59.5492 30.3026L54.6465 29.5231L51.5257 25.6682C51.1815 25.2405 50.5892 25.0886 50.0906 25.2835L45.4537 27.0629L40.8193 25.286C40.3054 25.0886 39.7309 25.2455 39.3841 25.6708L36.2608 29.5256L31.3581 30.3052C30.819 30.3912 30.3937 30.8164 30.3077 31.3556L29.5281 36.2583L25.6733 39.3816C25.2481 39.7258 25.0937 40.3055 25.2886 40.8167L27.0654 45.4511L25.2886 50.0856C25.0911 50.5968 25.2481 51.1764 25.6733 51.5207L29.5281 54.6415L30.3077 59.5442C30.3937 60.0858 30.8164 60.5111 31.3581 60.5971L36.2608 61.3767L39.3841 65.229C39.7309 65.6593 40.3105 65.8111 40.8218 65.6137L45.4537 63.8394L50.0881 65.6163C50.2349 65.6719 50.3867 65.6998 50.5411 65.6998C50.9132 65.6998 51.2802 65.5353 51.5257 65.229L54.6465 61.3767L59.5492 60.5971C60.0909 60.5111 60.5161 60.0858 60.6022 59.5442L61.3817 54.6415L65.234 51.5207C65.6618 51.1739 65.8136 50.5968 65.6188 50.0856L63.8419 45.4511ZM34.0638 44.1856C34.7624 44.1856 35.3293 44.7526 35.3293 45.4511C35.3293 46.1497 34.7624 46.7167 34.0638 46.7167H32.7983V50.5133C32.7983 51.2119 32.2313 51.7788 31.5327 51.7788C30.8341 51.7788 30.2672 51.2119 30.2672 50.5133V40.389C30.2672 39.6904 30.8341 39.1234 31.5327 39.1234H34.0638C34.7624 39.1234 35.3293 39.6904 35.3293 40.389C35.3293 41.0876 34.7624 41.6545 34.0638 41.6545H32.7983V44.1856H34.0638ZM42.7808 46.5269L45.2005 49.754C45.6207 50.3133 45.5068 51.1056 44.9474 51.5257C44.7196 51.6953 44.4539 51.7788 44.1906 51.7788C43.8059 51.7788 43.4263 51.6042 43.1782 51.2726L40.3915 47.5595V50.5133C40.3915 51.2119 39.8245 51.7788 39.126 51.7788C38.4274 51.7788 37.8604 51.2119 37.8604 50.5133V40.389C37.8604 39.6904 38.4274 39.1234 39.126 39.1234H41.657C43.7502 39.1234 45.4537 40.8269 45.4537 42.9201C45.4537 44.621 44.3223 46.0459 42.7808 46.5269ZM51.7814 44.1856C52.4799 44.1856 53.0469 44.7526 53.0469 45.4511C53.0469 46.1497 52.4799 46.7167 51.7814 46.7167H50.5158V49.2478H51.7814C52.4799 49.2478 53.0469 49.8147 53.0469 50.5133C53.0469 51.2119 52.4799 51.7788 51.7814 51.7788H49.2503C48.5517 51.7788 47.9847 51.2119 47.9847 50.5133V40.389C47.9847 39.6904 48.5517 39.1234 49.2503 39.1234H51.7814C52.4799 39.1234 53.0469 39.6904 53.0469 40.389C53.0469 41.0876 52.4799 41.6545 51.7814 41.6545H50.5158V44.1856H51.7814ZM59.3746 44.1856C60.0732 44.1856 60.6401 44.7526 60.6401 45.4511C60.6401 46.1497 60.0732 46.7167 59.3746 46.7167H58.109V49.2478H59.3746C60.0732 49.2478 60.6401 49.8147 60.6401 50.5133C60.6401 51.2119 60.0732 51.7788 59.3746 51.7788H56.8435C56.1449 51.7788 55.578 51.2119 55.578 50.5133V40.389C55.578 39.6904 56.1449 39.1234 56.8435 39.1234H59.3746C60.0732 39.1234 60.6401 39.6904 60.6401 40.389C60.6401 41.0876 60.0732 41.6545 59.3746 41.6545H58.109V44.1856H59.3746Z" fill="#1E4BFF"/>
</g>
<defs>
<clipPath id="clip0">
<rect width="40.5" height="40.5" fill="white" transform="translate(25.2031 25.2002)"/>
</clipPath>
</defs>
</svg>
