<svg width="100" height="100" viewBox="0 0 100 100" fill="none" xmlns="http://www.w3.org/2000/svg">
<rect width="100" height="100" rx="50" fill="white"/>
<g clip-path="url(#clip0)">
<path d="M50.002 42.8258C47.1868 42.8258 44.8964 40.5354 44.8964 37.7201C44.8964 34.9008 47.1823 32.5464 50.002 32.5464C52.8212 32.5464 55.1077 34.9004 55.1077 37.7201C55.1077 40.5354 52.8173 42.8258 50.002 42.8258Z" fill="#1E4BFF"/>
<path d="M57.1496 50.9952H42.8538V49.9741C42.8538 46.0327 46.0603 42.8262 50.0017 42.8262C53.9431 42.8262 57.1496 46.0327 57.1496 49.9741V50.9952Z" fill="#1E4BFF"/>
<path d="M50.0026 67.4129L43.2571 61.3419H46.9392V59.1635H39.1105V62.6499L32.5608 56.1L39.1105 49.5503V53.0366H60.8947V49.5503L67.4444 56.1L60.8947 62.6498V59.1634H53.066V61.3419H56.7481L50.0026 67.4129Z" fill="#1E4BFF"/>
</g>
<defs>
<clipPath id="clip0">
<rect width="34.8837" height="34.8837" fill="white" transform="translate(32.5608 32.5381)"/>
</clipPath>
</defs>
</svg>
