<svg width="100" height="100" viewBox="0 0 100 100" fill="none" xmlns="http://www.w3.org/2000/svg">
<rect width="100" height="100" rx="50" fill="white"/>
<g clip-path="url(#clip0)">
<path d="M46.7309 46.7119H45.6409V48.892H46.7309C47.3326 48.892 47.821 48.4037 47.821 47.802C47.821 47.2003 47.3326 46.7119 46.7309 46.7119Z" fill="#1E4BFF"/>
<path d="M65.8389 49.9817L67.3693 45.9899C67.5371 45.5495 67.4063 45.0503 67.0379 44.7516L63.7198 42.0614L63.0484 37.8386C62.9742 37.3721 62.608 37.008 62.1414 36.9339L57.9186 36.2624L55.2306 32.9421C54.9341 32.5737 54.4239 32.4429 53.9945 32.6108L50.0006 34.1434L46.0088 32.6129C45.5663 32.4429 45.0714 32.5781 44.7727 32.9443L42.0825 36.2646L37.8597 36.936C37.3953 37.0102 37.0291 37.3764 36.9549 37.8408L36.2835 42.0636L32.9632 44.7538C32.5969 45.0503 32.464 45.5495 32.6318 45.9899L34.1622 49.9817L32.6318 53.9734C32.4618 54.4138 32.5969 54.913 32.9632 55.2095L36.2835 57.8975L36.9549 62.1204C37.0291 62.5869 37.3931 62.9532 37.8597 63.0273L42.0825 63.6987L44.7727 67.0168C45.0714 67.3874 45.5706 67.5183 46.011 67.3482L50.0006 65.82L53.9923 67.3504C54.1187 67.3983 54.2495 67.4223 54.3825 67.4223C54.703 67.4223 55.0191 67.2806 55.2306 67.0168L57.9186 63.6987L62.1414 63.0273C62.608 62.9532 62.9742 62.5869 63.0484 62.1204L63.7198 57.8975L67.0379 55.2095C67.4063 54.9108 67.5371 54.4138 67.3693 53.9734L65.8389 49.9817ZM40.1902 48.8916C40.7919 48.8916 41.2802 49.38 41.2802 49.9817C41.2802 50.5834 40.7919 51.0717 40.1902 51.0717H39.1001V54.3418C39.1001 54.9435 38.6118 55.4319 38.0101 55.4319C37.4084 55.4319 36.9201 54.9435 36.9201 54.3418V45.6215C36.9201 45.0198 37.4084 44.5315 38.0101 44.5315H40.1902C40.7919 44.5315 41.2802 45.0198 41.2802 45.6215C41.2802 46.2232 40.7919 46.7115 40.1902 46.7115H39.1001V48.8916H40.1902ZM47.6984 50.9082L49.7825 53.6878C50.1444 54.1696 50.0463 54.852 49.5645 55.2139C49.3683 55.3599 49.1394 55.4319 48.9127 55.4319C48.5813 55.4319 48.2543 55.2814 48.0407 54.9959L45.6404 51.7977V54.3418C45.6404 54.9435 45.152 55.4319 44.5503 55.4319C43.9486 55.4319 43.4603 54.9435 43.4603 54.3418V45.6215C43.4603 45.0198 43.9486 44.5315 44.5503 44.5315H46.7304C48.5334 44.5315 50.0006 45.9986 50.0006 47.8016C50.0006 49.2666 49.0261 50.494 47.6984 50.9082ZM55.4508 48.8916C56.0525 48.8916 56.5408 49.38 56.5408 49.9817C56.5408 50.5834 56.0525 51.0717 55.4508 51.0717H54.3607V53.2518H55.4508C56.0525 53.2518 56.5408 53.7401 56.5408 54.3418C56.5408 54.9435 56.0525 55.4319 55.4508 55.4319H53.2707C52.669 55.4319 52.1806 54.9435 52.1806 54.3418V45.6215C52.1806 45.0198 52.669 44.5315 53.2707 44.5315H55.4508C56.0525 44.5315 56.5408 45.0198 56.5408 45.6215C56.5408 46.2232 56.0525 46.7115 55.4508 46.7115H54.3607V48.8916H55.4508ZM61.991 48.8916C62.5927 48.8916 63.0811 49.38 63.0811 49.9817C63.0811 50.5834 62.5927 51.0717 61.991 51.0717H60.901V53.2518H61.991C62.5927 53.2518 63.0811 53.7401 63.0811 54.3418C63.0811 54.9435 62.5927 55.4319 61.991 55.4319H59.8109C59.2092 55.4319 58.7209 54.9435 58.7209 54.3418V45.6215C58.7209 45.0198 59.2092 44.5315 59.8109 44.5315H61.991C62.5927 44.5315 63.0811 45.0198 63.0811 45.6215C63.0811 46.2232 62.5927 46.7115 61.991 46.7115H60.901V48.8916H61.991Z" fill="#1E4BFF"/>
</g>
<defs>
<clipPath id="clip0">
<rect width="34.8837" height="34.8837" fill="white" transform="translate(32.5581 32.5391)"/>
</clipPath>
</defs>
</svg>
