<svg width="100" height="100" viewBox="0 0 100 100" fill="none" xmlns="http://www.w3.org/2000/svg">
<rect width="100" height="100" rx="50" fill="white"/>
<g clip-path="url(#clip0)">
<path d="M59.4449 58.4293C58.8126 58.4293 58.2007 58.5602 57.6384 58.8069L55.7863 56.9546L51.4503 61.2906L56.2441 66.0843C56.2441 66.084 56.2441 66.0838 56.2441 66.0832C56.2512 66.0907 56.2579 66.0984 56.2654 66.1056C57.1146 66.9551 58.2439 67.4227 59.4449 67.4227C60.646 67.4227 61.7753 66.9551 62.6245 66.1056C64.3779 64.3525 64.3779 61.4998 62.6245 59.7464C61.7753 58.8969 60.646 58.4293 59.4449 58.4293ZM61.1794 64.6605C60.716 65.1238 60.1002 65.3788 59.4452 65.3788C58.79 65.3788 58.1741 65.1238 57.7108 64.6605C56.7545 63.7042 56.7545 62.1478 57.7108 61.1916C58.1739 60.7282 58.79 60.4732 59.4452 60.4732C60.1002 60.4732 60.716 60.7282 61.1794 61.1916C62.1356 62.1478 62.1356 63.7042 61.1794 64.6605Z" fill="#1E4BFF"/>
<path d="M59.9885 50.5163C61.1247 49.4789 61.7695 48.0606 61.8044 46.5228C61.8392 44.9848 61.2596 43.5386 60.1716 42.4509L59.449 41.728L42.3702 58.8069C41.8081 58.5602 41.1962 58.4292 40.5639 58.4292C39.3628 58.4292 38.2333 58.8968 37.384 59.7463C35.6309 61.4994 35.6309 64.3522 37.384 66.1055C38.2333 66.9551 39.3625 67.4227 40.5636 67.4227C41.7567 67.4227 42.8785 66.9609 43.7256 66.1223L52.4468 57.4022L59.9885 50.5163ZM42.2981 64.6604C41.8347 65.1237 41.2189 65.3787 40.5636 65.3787C39.9086 65.3787 39.2925 65.1237 38.8294 64.6604C37.8729 63.7041 37.8729 62.1477 38.8294 61.1915C39.2925 60.7281 39.9084 60.4732 40.5636 60.4732C41.2189 60.4732 41.8347 60.7281 42.2981 61.1915C43.2543 62.1477 43.2543 63.7041 42.2981 64.6604ZM49.9989 56.5215C49.4344 56.5215 48.9769 56.064 48.9769 55.4995C48.9769 54.935 49.4344 54.4775 49.9989 54.4775C50.5634 54.4775 51.0209 54.935 51.0209 55.4995C51.0209 56.064 50.5634 56.5215 49.9989 56.5215Z" fill="#1E4BFF"/>
<path d="M48.8372 54.0508L50.5814 52.3066L53.4884 52.888L52.3256 55.795L48.2558 58.1206L47.6744 56.9578L48.8372 54.0508Z" fill="#1E4BFF"/>
<path d="M63.6945 32.5391H36.3053C34.6148 32.5391 33.2394 33.9145 33.2394 35.605V37.9896H66.7605V35.605C66.7605 33.9145 65.385 32.5391 63.6945 32.5391Z" fill="#1E4BFF"/>
<path d="M44.2188 54.0689L58.254 40.0337H33.2394V51.003C33.2394 52.6935 34.6148 54.0689 36.3053 54.0689H44.2188Z" fill="#1E4BFF"/>
<path d="M60.8952 40.2831L61.618 41.0056C63.1044 42.492 63.8965 44.4681 63.8488 46.5693C63.8009 48.6708 62.92 50.6086 61.3676 52.026L59.1301 54.0689H63.6945C65.385 54.0689 66.7604 52.6935 66.7604 51.003V40.0337H60.6461L60.8952 40.2831Z" fill="#1E4BFF"/>
</g>
<defs>
<clipPath id="clip0">
<rect width="34.8837" height="34.8837" fill="white" transform="translate(32.5581 32.5391)"/>
</clipPath>
</defs>
</svg>
