<svg width="100" height="100" viewBox="0 0 100 100" fill="none" xmlns="http://www.w3.org/2000/svg">
<rect width="100" height="100" rx="50" fill="white"/>
<g clip-path="url(#clip0)">
<path d="M62.3975 37.484L51.0664 32.7517C50.3893 32.4689 49.6125 32.4688 48.9353 32.7517L37.6042 37.484C36.7925 37.823 36.2718 38.6105 36.2776 39.4902L36.365 52.6034C36.3912 56.5413 38.3845 60.1638 41.6969 62.2936C50.038 67.6566 49.534 67.4217 50.0008 67.4217C50.4675 67.4217 49.9637 67.6566 58.3048 62.2936C58.3048 62.2636 63.5918 59.3196 63.6367 52.6034L63.7241 39.4903C63.7301 38.6107 63.2094 37.8232 62.3975 37.484ZM59.5049 52.0885C59.4864 54.8524 58.0878 57.3942 55.7635 58.8887C50.238 62.4413 50.4637 62.3829 50.0008 62.3829C49.5346 62.3829 49.7559 62.4364 44.2382 58.8887C41.9139 57.3942 40.5152 54.8524 40.4969 52.0892L40.4383 42.6052C40.4334 41.8663 40.8712 41.2042 41.5535 40.9192L49.1449 37.7486C49.6889 37.5215 50.3128 37.5215 50.8567 37.7486L58.4481 40.9192C59.1307 41.2043 59.5685 41.8664 59.5636 42.6059L59.5049 52.0885Z" fill="#1E4BFF"/>
<path d="M42.6725 42.8716L42.7293 52.0743C42.7426 54.0794 43.7578 55.9244 45.445 57.0091L49.9994 59.9374L54.5538 57.0091C54.5538 56.9938 57.2467 55.4944 57.2695 52.0736L57.3263 42.8716L49.9994 39.8115L42.6725 42.8716Z" fill="#1E4BFF"/>
</g>
<defs>
<clipPath id="clip0">
<rect width="34.8837" height="34.8837" fill="white" transform="translate(32.5581 32.5391)"/>
</clipPath>
</defs>
</svg>
