<svg width="56" height="55" viewBox="0 0 56 55" fill="none" xmlns="http://www.w3.org/2000/svg">
<g clip-path="url(#clip0_135_1439)">
<path d="M50.3736 21.086H49.9053C49.8623 19.6402 49.6475 18.2308 49.3338 16.8666V16.7785C49.3123 16.7119 49.2908 16.6733 49.2672 16.6088C46.8417 7.07218 38.2352 0 27.9445 0C18.8099 0 10.9447 5.60483 7.62337 13.5691V13.5906C6.64375 15.9108 6.08943 18.4458 5.98416 21.0862H5.51582C3.02376 21.0862 1 23.11 1 25.602V36.0406C1 38.5091 3.02376 40.5565 5.51582 40.5565H8.19911C10.6912 40.5565 12.7149 38.5112 12.7149 36.0406V25.602C12.7149 23.11 10.6912 21.0862 8.19911 21.0862H7.83604C7.92412 19.0625 8.30438 17.1268 8.94672 15.2944C11.224 16.3621 17.2289 18.7876 24.3461 18.7876C28.7953 18.7876 33.7024 17.8316 38.3816 14.9765C39.2774 16.4889 41.703 18.7876 47.7098 17.9584C47.9246 18.981 48.0277 20.0272 48.0728 21.0885H47.6883C45.1962 21.0885 43.1725 23.1123 43.1725 25.6044V36.0429C43.1725 38.5114 45.1962 40.5588 47.6883 40.5588H48.0062C47.5164 44.0735 44.2337 47.3285 39.1252 49.3584C38.5258 47.7644 37.0134 46.63 35.2259 46.63H30.4351C28.1149 46.63 26.2394 48.5056 26.2394 50.8043C26.2394 53.1245 28.1149 55 30.4351 55H35.2259C37.3979 55 39.1467 53.3393 39.3572 51.2275C45.4735 48.9502 49.3663 44.9627 49.8629 40.559H50.3742C52.8663 40.559 54.9116 38.5137 54.9116 36.0432V25.6024C54.9116 23.1103 52.8706 21.0866 50.3742 21.0866L50.3736 21.086Z" fill="#FF000A"/>
</g>
<defs>
<clipPath id="clip0_135_1439">
<rect width="55" height="55" fill="white" transform="translate(0.5)"/>
</clipPath>
</defs>
</svg>
