<svg width="71" height="70" viewBox="0 0 71 70" fill="none" xmlns="http://www.w3.org/2000/svg">
<path d="M12.5805 17.3465L25.7052 25.0026C25.8708 25.1009 26.0595 25.1537 26.2521 25.1557C26.3466 25.1664 26.442 25.1664 26.5365 25.1557C26.8154 25.074 27.0535 24.8906 27.2036 24.6416L35.166 10.7841L38.8737 16.9637L34.5972 18.6699C34.3819 18.7556 34.1994 18.9074 34.076 19.1034C33.9526 19.2995 33.8946 19.5297 33.9104 19.7608C33.9262 19.9919 34.015 20.2121 34.164 20.3895C34.313 20.5669 34.5145 20.6924 34.7394 20.748L52.239 25.1229C52.3249 25.1444 52.413 25.1554 52.5015 25.1557C52.7162 25.1555 52.9261 25.0922 53.105 24.9735C53.284 24.8549 53.424 24.6862 53.5077 24.4885L60.0701 9.17636C60.1562 8.9758 60.1804 8.75405 60.1395 8.53965C60.0985 8.32524 59.9944 8.12799 59.8404 7.97326C59.6848 7.81707 59.4856 7.71156 59.2689 7.67057C59.0523 7.62958 58.8283 7.65503 58.6264 7.74358L54.4702 9.54823L50.5437 2.73432C50.0638 1.903 49.3735 1.21266 48.5421 0.732693C47.7108 0.252722 46.7678 2.51775e-05 45.8079 7.91711e-07H30.627C30.4339 3.44576e-05 30.2443 0.0511628 30.0775 0.148192C29.9106 0.245221 29.7723 0.384694 29.6768 0.552443C29.5812 0.720191 29.5318 0.910238 29.5335 1.10328C29.5352 1.29632 29.5879 1.48547 29.6864 1.65153L33.9082 8.6295L25.8583 22.5636L14.6148 16.0012L21.5053 3.84992C21.7916 3.34512 22.2067 2.92529 22.7082 2.63324C23.2096 2.34118 23.7796 2.18736 24.3599 2.18745H28.4395V7.91711e-07H24.3599C23.3931 -0.000519392 22.4434 0.255304 21.6076 0.741399C20.7718 1.22749 20.0799 1.92648 19.6022 2.76713L12.1758 15.8918C12.0434 16.1398 12.0115 16.4293 12.0869 16.7002C12.1622 16.9711 12.339 17.2025 12.5805 17.3465ZM45.8079 2.18745C46.3842 2.18708 46.9505 2.33852 47.4497 2.62652C47.9489 2.91452 48.3634 3.32893 48.6516 3.82804L53.0265 11.4841C53.1602 11.7161 53.3743 11.891 53.6283 11.9756C53.8823 12.0603 54.1585 12.0489 54.4046 11.9435L56.9311 10.8498L51.8234 22.7714L38.5018 19.4902L40.8315 18.5605C40.9793 18.5021 41.1127 18.4122 41.2222 18.2969C41.3318 18.1817 41.4149 18.044 41.4658 17.8934C41.5158 17.7439 41.5329 17.5854 41.5159 17.4287C41.4989 17.272 41.4482 17.1209 41.3674 16.9856L32.5629 2.18745H45.8079Z" fill="#D52228"/>
<path d="M30.6261 47.0302H15.3796L18.8905 40.7084L22.5107 43.5521C22.697 43.6865 22.9208 43.7588 23.1505 43.7588C23.3802 43.7588 23.6041 43.6865 23.7904 43.5521C23.9846 43.4238 24.1328 43.2369 24.2134 43.0185C24.2941 42.8002 24.3029 42.5618 24.2388 42.3381L19.2733 25.0463C19.2001 24.798 19.0413 24.5837 18.825 24.4415C18.6087 24.2993 18.349 24.2385 18.092 24.2697L1.55491 26.2494C1.33618 26.2739 1.12996 26.3639 0.963185 26.5075C0.796415 26.6512 0.67686 26.8418 0.620149 27.0545C0.563438 27.2671 0.572209 27.492 0.645316 27.6996C0.718422 27.9072 0.852463 28.0879 1.02992 28.2181L4.67202 30.9086L0.734611 37.7116C0.254638 38.543 0.00195312 39.486 0.00195312 40.4459C0.00195312 41.4059 0.254638 42.3489 0.734611 43.1803L8.32507 56.305C8.4205 56.4703 8.55753 56.6077 8.72255 56.7037C8.88756 56.7996 9.0748 56.8507 9.26567 56.8518H9.17818C9.37121 56.8485 9.55991 56.7941 9.72511 56.6942C9.89032 56.5943 10.0261 56.4525 10.1188 56.2831L14.0562 49.2176H29.5324L29.4668 62.3423L16.003 62.4408C16.003 62.4408 13.6625 61.9705 13.0937 61.0517L11.3656 57.7706L9.35317 58.6893L11.1141 61.9705C12.1094 63.5782 15.9812 64.4642 15.9812 64.4642H30.5277C31.1511 64.4642 31.7199 63.3704 31.7199 63.3704V48.1239C31.668 47.8462 31.5601 47.5819 31.4027 47.3473C31.3037 47.2417 31.1831 47.1587 31.049 47.104C30.915 47.0492 30.7708 47.0241 30.6261 47.0302V47.0302ZM9.25474 53.516L2.62676 42.0537C2.33877 41.5549 2.18716 40.9891 2.18716 40.4131C2.18716 39.8372 2.33877 39.2713 2.62676 38.7725L7.00166 31.1165C7.13804 30.8833 7.18333 30.608 7.1288 30.3434C7.07428 30.0789 6.9238 29.8439 6.70636 29.6837L4.5189 28.0431L17.403 26.5119L21.1982 39.7022L19.2295 38.1491C19.1054 38.0529 18.9621 37.9846 18.8092 37.9487C18.6563 37.9128 18.4975 37.9103 18.3436 37.9413C18.1882 37.9715 18.0413 38.0351 17.9129 38.1276C17.7845 38.2201 17.6777 38.3394 17.5999 38.4772L9.25474 53.516Z" fill="#D52228"/>
<path d="M69.2448 37.6124L61.5887 24.6299C61.4433 24.3959 61.215 24.2254 60.9494 24.1524C60.6838 24.0794 60.4004 24.1093 60.1559 24.2362L46.9437 31.7719C46.8182 31.8437 46.7081 31.9395 46.6199 32.0541C46.5316 32.1686 46.467 32.2995 46.4296 32.4391C46.3923 32.5781 46.3828 32.723 46.4015 32.8656C46.4203 33.0083 46.467 33.1458 46.539 33.2703L54.6873 47.0294H47.0312L47.8734 42.5123C47.9015 42.2861 47.8583 42.0568 47.7497 41.8564C47.6411 41.656 47.4727 41.4945 47.2679 41.3945C47.063 41.2945 46.8321 41.261 46.6073 41.2986C46.3825 41.3363 46.1751 41.4432 46.014 41.6045L33.3377 54.6855C33.1581 54.8689 33.0487 55.1097 33.0287 55.3656C33.0087 55.6216 33.0794 55.8764 33.2284 56.0855L42.8532 69.4727C42.9515 69.6239 43.0838 69.7502 43.2395 69.8413C43.3952 69.9324 43.57 69.986 43.75 69.9977C43.9972 69.9589 44.2293 69.8541 44.4218 69.6943C44.6143 69.5345 44.7601 69.3257 44.8437 69.0899L45.7297 64.529H53.7904C54.7503 64.529 55.6933 64.2763 56.5247 63.7963C57.356 63.3164 58.0463 62.626 58.5263 61.7947L66.7183 47.6419C66.8247 47.4693 66.8811 47.2705 66.8811 47.0677C66.8811 46.8649 66.8247 46.6661 66.7183 46.4935C66.6145 46.3226 66.4684 46.1814 66.294 46.0837C66.1196 45.986 65.9229 45.935 65.723 45.9357H56.9732L48.978 33.1282L60.2762 26.6752L67.3636 38.7062C67.6645 39.2184 67.8232 39.8018 67.8232 40.396C67.8232 40.9901 67.6645 41.5735 67.3636 42.0858L65.7339 45.4654L67.7026 46.406L69.2666 43.1248C69.7515 42.2864 70.0049 41.3342 70.0011 40.3657C69.9972 39.3971 69.7362 38.447 69.2448 37.6124V37.6124ZM53.9435 62.3416H44.8437C44.5879 62.3364 44.3383 62.4212 44.1384 62.581C43.9386 62.7409 43.8011 62.9658 43.75 63.2166L43.1375 66.2353L35.4814 55.5058L45.325 45.367L44.9531 47.97C44.9312 48.1262 44.9433 48.2852 44.9886 48.4362C45.0339 48.5873 45.1114 48.7267 45.2156 48.845C45.3205 48.9645 45.4502 49.0596 45.5957 49.1239C45.7411 49.1881 45.8988 49.2198 46.0578 49.2169H63.4371L56.7763 60.701C56.4891 61.1985 56.0762 61.6119 55.5791 61.8998C55.082 62.1877 54.518 62.34 53.9435 62.3416V62.3416Z" fill="#D52228"/>
</svg>
