<svg width="80" height="80" viewBox="0 0 80 80" fill="none" xmlns="http://www.w3.org/2000/svg">
<g clip-path="url(#clip0)">
<path d="M40.0004 -0.0996094C17.8004 -0.0996094 -0.0996094 17.9004 -0.0996094 40.0004C-0.0996094 62.2004 17.9004 80.1004 40.0004 80.1004C62.1004 80.1004 80.1004 62.1004 80.1004 40.0004C80.1004 17.8004 62.2004 -0.0996094 40.0004 -0.0996094ZM51.8004 22.8004C51.8004 23.2004 51.5004 23.4004 51.2004 23.4004H46.0004C44.7004 23.4004 43.7004 24.4004 43.7004 25.7004V31.0004H50.9004C51.3004 31.0004 51.6004 31.3004 51.5004 31.7004L50.9004 39.2004C50.9004 39.5004 50.6004 39.8004 50.3004 39.8004H43.7004V64.8004C43.7004 65.2004 43.4004 65.4004 43.1004 65.4004H34.0004C33.6004 65.4004 33.4004 65.1004 33.4004 64.8004V40.2004V39.8004H28.8004C28.4004 39.8004 28.2004 39.5004 28.2004 39.2004V31.7004C28.2004 31.3004 28.5004 31.1004 28.8004 31.1004H33.4004V23.8004C33.4004 18.7004 37.5004 14.6004 42.6004 14.6004H51.2004C51.6004 14.6004 51.8004 14.9004 51.8004 15.2004V22.8004Z" fill="white"/>
</g>
<defs>
<clipPath id="clip0">
<rect width="80" height="80" fill="white"/>
</clipPath>
</defs>
</svg>
