<svg width="80" height="80" viewBox="0 0 80 80" fill="none" xmlns="http://www.w3.org/2000/svg">
<g clip-path="url(#clip0)">
<path d="M36.3004 33.0994C35.8004 32.7994 35.4004 33.1994 35.4004 33.6994V46.3994C35.4004 46.9994 35.8004 47.2994 36.3004 46.9994L47.6004 40.7994C48.1004 40.4994 48.2004 39.7994 47.7004 39.4994L36.3004 33.0994Z" fill="white"/>
<path d="M40.0004 -0.0996094C17.8004 -0.0996094 -0.0996094 17.9004 -0.0996094 40.0004C-0.0996094 62.2004 17.9004 80.1004 40.0004 80.1004C62.1004 80.1004 80.1004 62.1004 80.1004 40.0004C80.1004 17.8004 62.2004 -0.0996094 40.0004 -0.0996094ZM65.4004 46.8004C65.4004 52.8004 60.5004 57.7004 54.5004 57.7004H26.3004C20.3004 57.7004 15.4004 52.8004 15.4004 46.8004V33.6004C15.4004 27.6004 20.3004 22.7004 26.3004 22.7004H54.5004C60.5004 22.7004 65.4004 27.6004 65.4004 33.6004V46.8004Z" fill="white"/>
</g>
<defs>
<clipPath id="clip0">
<rect width="80" height="80" fill="white"/>
</clipPath>
</defs>
</svg>
