<svg width="87" height="28" viewBox="0 0 87 28" fill="none" xmlns="http://www.w3.org/2000/svg">
<path d="M86.4354 24.1283C86.4354 26.1999 84.7363 27.8799 82.6404 27.8799H4.36039C2.26415 27.8799 0.564453 26.1999 0.564453 24.1283V3.87237C0.564453 1.80096 2.26432 0.121094 4.36039 0.121094H82.6404C84.7363 0.121094 86.4354 1.80096 86.4354 3.87237V24.1283Z" fill="black"/>
<path d="M16.598 14.8643L7.00586 5.46484V14.8641V24.2632L16.598 14.8643Z" fill="url(#paint0_linear)"/>
<path d="M7.00586 5.46484L16.598 14.8643L19.1742 12.3396L15.3024 10.1303L7.00586 5.39648V5.46484Z" fill="url(#paint1_linear)"/>
<path d="M19.1742 17.3894L16.598 14.8652L7.00586 24.2642V24.3325L15.3024 19.5986L19.1742 17.3894Z" fill="url(#paint2_linear)"/>
<path d="M23.5987 14.8644L19.1739 12.3398L16.5977 14.8645L19.1739 17.3887L23.5987 14.8644Z" fill="url(#paint3_linear)"/>
<path d="M67.3942 18.5393C67.0339 18.5393 66.7052 18.4736 66.4075 18.3424C66.1099 18.2109 65.8597 18.0089 65.6577 17.7364H65.5973C65.6376 18.0556 65.6577 18.3583 65.6577 18.6441V20.8938H64.8203V12.9728H65.5016L65.6174 13.721H65.6577C65.8733 13.4216 66.1241 13.2057 66.41 13.0726C66.696 12.9396 67.0242 12.873 67.394 12.873C68.1277 12.873 68.694 13.1209 69.0926 13.6163C69.4913 14.1117 69.6907 14.8069 69.6907 15.7012C69.6907 16.5991 69.4879 17.2964 69.0828 17.794C68.6774 18.2909 68.1146 18.5393 67.3942 18.5393V18.5393ZM67.2732 13.5762C66.7079 13.5762 66.2991 13.731 66.0467 14.0401C65.7944 14.3493 65.6648 14.8416 65.6579 15.5167V15.701C65.6579 16.4694 65.7875 17.0189 66.0467 17.3499C66.306 17.6809 66.7216 17.8459 67.2933 17.8459C67.7714 17.8459 68.1458 17.655 68.4168 17.2725C68.6874 16.8903 68.8229 16.3632 68.8229 15.6911C68.8229 15.0097 68.6874 14.4864 68.4168 14.1224C68.1458 13.7582 67.7644 13.5762 67.2732 13.5762V13.5762Z" fill="#F9F9F9"/>
<path d="M71.6307 18.4391H70.793V10.6777H71.6307V18.4391Z" fill="#F9F9F9"/>
<path d="M76.4487 18.4395L76.282 17.6614H76.2417C75.9657 18.0042 75.6907 18.2363 75.4164 18.3573C75.1422 18.4789 74.7997 18.5394 74.3894 18.5394C73.8409 18.5394 73.4111 18.3997 73.0997 18.1205C72.7883 17.8413 72.6328 17.4441 72.6328 16.9284C72.6328 15.8246 73.5263 15.2459 75.313 15.1925L76.2521 15.1624V14.8233C76.2521 14.3943 76.1586 14.0774 75.9718 13.8731C75.7852 13.6684 75.4861 13.5662 75.0759 13.5662C74.6147 13.5662 74.0931 13.7059 73.5112 13.9851L73.2537 13.3517C73.5265 13.2053 73.8248 13.0907 74.1498 13.0076C74.4745 12.9245 74.7999 12.8828 75.1264 12.8828C75.7859 12.8828 76.2746 13.0273 76.5928 13.3167C76.9106 13.606 77.0696 14.0699 77.0696 14.7085V18.4394H76.4487V18.4395ZM74.5561 17.8562C75.0774 17.8562 75.4871 17.7148 75.7851 17.4323C76.0826 17.1497 76.2318 16.7539 76.2318 16.2449V15.7511L75.3936 15.7858C74.7274 15.8095 74.2474 15.9114 73.9526 16.0931C73.6583 16.2742 73.511 16.5561 73.511 16.9385C73.511 17.2377 73.6025 17.4656 73.7862 17.6216C73.9695 17.7781 74.2259 17.8562 74.5561 17.8562Z" fill="#F9F9F9"/>
<path d="M77.5547 12.9727H78.4529L79.6644 16.0903C79.9301 16.8021 80.0952 17.3157 80.1593 17.6318H80.1996C80.2434 17.4619 80.3352 17.1721 80.4746 16.7609C80.6143 16.3501 81.0713 15.0877 81.8449 12.9727H82.7438L80.3661 19.1979C80.1308 19.8131 79.8556 20.2496 79.5406 20.5077C79.2262 20.7652 78.8399 20.8938 78.3827 20.8938C78.1269 20.8938 77.8745 20.8656 77.6252 20.8092V20.1459C77.8102 20.1857 78.0174 20.2058 78.2462 20.2058C78.8217 20.2058 79.2319 19.8866 79.4778 19.248L79.7856 18.47L77.5547 12.9727V12.9727Z" fill="#F9F9F9"/>
<path d="M51.8725 13.4798C52.1385 13.6973 52.6938 14.1543 52.6938 15.0238C52.6938 15.8695 52.2078 16.2705 51.7218 16.6473C51.5713 16.7958 51.3977 16.9564 51.3977 17.2082C51.3977 17.4592 51.5712 17.5966 51.6989 17.6996L52.1156 18.0192C52.6247 18.4424 53.087 18.8315 53.087 19.6207C53.087 20.6955 52.034 21.7814 50.0442 21.7814C48.3662 21.7814 47.5566 20.9927 47.5566 20.146C47.5566 19.7346 47.764 19.1517 48.4476 18.751C49.1645 18.3165 50.1371 18.2599 50.6575 18.2247C50.495 18.0192 50.3103 17.8018 50.3103 17.448C50.3103 17.2538 50.3684 17.1394 50.426 17.0015C50.2982 17.0131 50.1712 17.0245 50.0553 17.0245C48.8292 17.0245 48.135 16.1212 48.135 15.2297C48.135 14.7036 48.3783 14.1201 48.8752 13.6975C49.535 13.1601 50.3218 13.0684 50.9471 13.0684H53.3301L52.5896 13.48H51.8725V13.4798ZM51.0509 18.5571C50.9584 18.5451 50.9003 18.5451 50.7851 18.5451C50.681 18.5451 50.0553 18.5685 49.57 18.729C49.3154 18.8197 48.5747 19.0941 48.5747 19.9064C48.5747 20.7179 49.3735 21.3019 50.6117 21.3019C51.7218 21.3019 52.3126 20.7748 52.3126 20.0665C52.3124 19.4822 51.9305 19.1748 51.0509 18.5571V18.5571ZM51.3867 16.3843C51.6524 16.121 51.6753 15.7555 51.6753 15.5494C51.6753 14.7263 51.178 13.4456 50.2178 13.4456C49.9166 13.4456 49.593 13.5941 49.4078 13.8231C49.2113 14.0632 49.1529 14.3716 49.1529 14.6693C49.1529 15.4353 49.6042 16.7047 50.5998 16.7047C50.889 16.7045 51.2006 16.5673 51.3867 16.3843V16.3843Z" fill="#F9F9F9"/>
<path d="M44.588 18.3746C42.7515 18.3746 41.7695 16.9588 41.7695 15.68C41.7695 14.1843 43.0054 12.9062 44.762 12.9062C46.4593 12.9062 47.5222 14.2186 47.5222 15.6003C47.5224 16.9469 46.4716 18.3746 44.588 18.3746ZM46.0319 17.4499C46.3096 17.0843 46.3789 16.6278 46.3789 16.1822C46.3789 15.1773 45.8937 13.2596 44.4611 13.2596C44.08 13.2596 43.6989 13.4083 43.4217 13.6485C42.9711 14.0476 42.8898 14.5501 42.8898 15.0415C42.8898 16.1709 43.456 18.0313 44.8541 18.0313C45.3046 18.0313 45.7668 17.8149 46.0319 17.4499Z" fill="#F9F9F9"/>
<path d="M38.3268 18.3746C36.49 18.3746 35.5078 16.9588 35.5078 15.68C35.5078 14.1843 36.7441 12.9062 38.5002 12.9062C40.1981 12.9062 41.2608 14.2186 41.2608 15.6003C41.2608 16.9469 40.2098 18.3746 38.3268 18.3746ZM39.7708 17.4499C40.048 17.0843 40.1175 16.6278 40.1175 16.1822C40.1175 15.1773 39.632 13.2596 38.1994 13.2596C37.8185 13.2596 37.437 13.4083 37.16 13.6485C36.7094 14.0476 36.6286 14.5501 36.6286 15.0415C36.6286 16.1709 37.1944 18.0313 38.5927 18.0313C39.0434 18.0313 39.5052 17.8149 39.7708 17.4499Z" fill="#F9F9F9"/>
<path d="M34.6252 18.1958L32.9642 18.5746C32.2903 18.6781 31.6865 18.7692 31.0481 18.7692C27.8421 18.7692 26.623 16.4391 26.623 14.6141C26.623 12.3877 28.3533 10.3223 31.3153 10.3223C31.9427 10.3223 32.5461 10.4138 33.0919 10.5632C33.9629 10.8042 34.3694 11.1024 34.6251 11.2748L33.6607 12.1815L33.2544 12.2729L33.5447 11.8137C33.15 11.4352 32.4293 10.7352 31.0593 10.7352C29.2241 10.7352 27.8417 12.1131 27.8417 14.1215C27.8417 16.2787 29.4216 18.3103 31.953 18.3103C32.6971 18.3103 33.0795 18.1613 33.4282 18.0233V16.1757L31.6748 16.2674L32.6035 15.7733H35.0659L34.7643 16.0602C34.6823 16.1294 34.6711 16.1526 34.6479 16.2435C34.6358 16.347 34.6249 16.6802 34.6249 16.7948V18.1958H34.6252Z" fill="#F9F9F9"/>
<path d="M55.5431 17.8651C55.1597 17.8306 55.0794 17.7621 55.0794 17.314V17.1875V10.8177C55.0818 10.7929 55.0833 10.7676 55.0856 10.7437C55.1325 10.3422 55.2485 10.2733 55.6089 10.0664H53.9475L53.0762 10.4797H53.9641V10.4848L53.9635 10.4807V17.1875V17.5666C53.9635 17.7958 53.9176 17.8306 53.6502 18.1745H55.7061L56.1359 17.9227C55.9387 17.8993 55.7409 17.888 55.5431 17.8651V17.8651Z" fill="#F9F9F9"/>
<path d="M60.2684 17.971C60.142 18.0395 60.015 18.1196 59.8886 18.1762C59.5073 18.3471 59.1153 18.3929 58.7686 18.3929C58.4005 18.3929 57.8233 18.3693 57.2345 17.9481C56.4162 17.3777 56.0586 16.3975 56.0586 15.5429C56.0586 13.7764 57.5118 12.9102 58.6998 12.9102C59.1152 12.9102 59.5424 13.0125 59.8884 13.2295C60.4646 13.605 60.6146 14.0951 60.6948 14.3574L57.9849 15.4407L57.0966 15.509C57.3846 16.9566 58.3765 17.7994 59.4726 17.7994C60.0607 17.7994 60.4876 17.5947 60.8797 17.4012L60.2684 17.971V17.971ZM59.1847 14.5739C59.4034 14.4945 59.5188 14.4258 59.5188 14.2663C59.5188 13.8107 59 13.2861 58.3766 13.2861C57.9148 13.2861 57.0503 13.6397 57.0503 14.8704C57.0503 15.0642 57.0735 15.2693 57.0854 15.4752L59.1847 14.5739V14.5739Z" fill="#F9F9F9"/>
<path d="M61.3834 12.9881V13.7402H61.2909V12.9881H61.0391V12.9102H61.6351V12.9881H61.3834Z" fill="#F9F9F9"/>
<path d="M62.4214 13.7402V12.9812H62.4172L62.1828 13.7402H62.1105L61.8741 12.9812H61.8711V13.7402H61.7871V12.9102H61.931L62.1449 13.5811H62.1479L62.3586 12.9102H62.5045V13.7402H62.4214V13.7402Z" fill="#F9F9F9"/>
<path d="M28.9295 8.08608H28.3523C28.3523 8.0076 28.2976 7.78545 28.1882 7.41944H27.3549C27.2419 7.77947 27.1854 8.00163 27.1854 8.08608H26.6426C26.6426 8.03979 26.7829 7.65951 27.0636 6.94543C27.3444 6.23134 27.4847 5.83796 27.4847 5.76562H28.1665C28.1665 5.83332 28.2936 6.22089 28.5479 6.92851C28.8023 7.63612 28.9295 8.02187 28.9295 8.08608V8.08608ZM28.0963 7.07915C27.8907 6.46611 27.7879 6.13462 27.7879 6.08468H27.759C27.759 6.13097 27.6526 6.46246 27.4399 7.07915H28.0963Z" fill="#F9F9FA"/>
<path d="M31.2554 8.08591H30.81C30.81 8.03713 30.6446 7.77997 30.314 7.31425C29.9677 6.82348 29.7706 6.48801 29.7226 6.30733H29.6937C29.7237 6.56748 29.7389 6.80274 29.7389 7.01312C29.7389 7.30662 29.7473 7.66433 29.764 8.08608H29.3203C29.3383 7.71775 29.3473 7.31326 29.3473 6.87243C29.3473 6.43873 29.3383 6.06974 29.3203 5.76562H29.8559C29.8559 5.82867 30.0043 6.08003 30.3013 6.51953C30.6174 6.98641 30.7991 7.30313 30.8459 7.46954H30.8729C30.8441 7.20458 30.8296 6.967 30.8296 6.75662C30.8296 6.43475 30.8212 6.10425 30.8044 5.76562H31.2554C31.2384 6.06029 31.2302 6.42927 31.2302 6.87243C31.2302 7.3189 31.2384 7.72339 31.2554 8.08591V8.08591Z" fill="#F9F9FA"/>
<path d="M33.8687 6.84657C33.8687 7.18404 33.7592 7.4787 33.5405 7.73055C33.3215 7.98257 33.015 8.10834 32.6206 8.10834C32.4427 8.10834 32.1974 8.1012 31.8848 8.08693C31.9004 7.72806 31.9083 7.3234 31.9083 6.87328C31.9083 6.44091 31.9004 6.07192 31.8848 5.76648H32.2004C32.2521 5.76648 32.329 5.76465 32.4312 5.76117C32.5333 5.75769 32.6001 5.75586 32.6314 5.75586C33.0654 5.75586 33.38 5.86287 33.5756 6.07673C33.771 6.29059 33.8687 6.54726 33.8687 6.84657V6.84657ZM33.3763 6.92322C33.3763 6.69509 33.309 6.50296 33.1743 6.34651C33.0397 6.19038 32.834 6.11224 32.5575 6.11224C32.5058 6.11224 32.4349 6.11755 32.3446 6.12833C32.3565 6.36608 32.3626 6.61429 32.3626 6.87328C32.3626 7.15732 32.3686 7.43888 32.3805 7.71811C32.4586 7.73354 32.5368 7.74134 32.6149 7.74134C32.8735 7.74134 33.0648 7.66186 33.1893 7.50325C33.3137 7.34464 33.3763 7.15135 33.3763 6.92322V6.92322Z" fill="#F9F9FA"/>
<path d="M36.2796 8.08693H35.7457C35.6062 7.66634 35.4992 7.40669 35.4247 7.30813C35.3501 7.20942 35.2299 7.16014 35.0641 7.16014C34.9942 7.16014 34.9276 7.16081 34.8639 7.16197C34.8639 7.46741 34.8693 7.77568 34.8802 8.08693H34.3789C34.3945 7.72806 34.4024 7.3234 34.4024 6.87328C34.4024 6.44091 34.3945 6.07192 34.3789 5.76648H34.6908C34.7269 5.76648 34.8023 5.76465 34.9172 5.76117C35.032 5.75769 35.1381 5.75586 35.2355 5.75586C35.7873 5.75586 36.0633 5.94234 36.0633 6.31548C36.0633 6.6113 35.9058 6.81737 35.5909 6.93401V6.96071C35.7123 6.9939 35.8187 7.08764 35.91 7.24127C36.0012 7.39508 36.1244 7.67696 36.2796 8.08693V8.08693ZM35.6033 6.44722C35.6033 6.21079 35.4494 6.09249 35.1416 6.09249C35.0286 6.09249 34.9287 6.10079 34.8423 6.11738C34.8555 6.30154 34.8621 6.54162 34.8621 6.83744C34.9282 6.83993 34.9841 6.84093 35.0298 6.84093C35.4121 6.84109 35.6033 6.70985 35.6033 6.44722Z" fill="#F9F9FA"/>
<path d="M38.8642 6.88374C38.8642 7.24841 38.7512 7.55087 38.5251 7.79094C38.2989 8.03085 38.0194 8.15098 37.6865 8.15098C37.369 8.15098 37.1032 8.04081 36.8894 7.82031C36.6753 7.59998 36.5684 7.31975 36.5684 6.98013C36.5684 6.61545 36.6813 6.31299 36.9075 6.07292C37.1335 5.83301 37.413 5.71289 37.7461 5.71289C38.0636 5.71289 38.3292 5.82272 38.5432 6.04256C38.7571 6.26239 38.8642 6.54262 38.8642 6.88374ZM38.3664 6.93533C38.3664 6.68696 38.3021 6.48554 38.1735 6.33108C38.0448 6.17661 37.8861 6.09946 37.6974 6.09946C37.5218 6.09946 37.3727 6.17728 37.2502 6.33291C37.1276 6.48853 37.0661 6.68514 37.0661 6.92289C37.0661 7.16993 37.1308 7.37102 37.2601 7.52615C37.3893 7.68127 37.5476 7.75876 37.7353 7.75876C37.9108 7.75876 38.06 7.68061 38.1826 7.52432C38.3052 7.3682 38.3664 7.17176 38.3664 6.93533V6.93533Z" fill="#F9F9FA"/>
<path d="M39.8834 8.08608H39.373C39.3887 7.71775 39.3965 7.31326 39.3965 6.87243C39.3965 6.43873 39.3887 6.06974 39.373 5.76562H39.8834C39.8678 6.0651 39.8599 6.43392 39.8599 6.87243C39.8601 7.32039 39.8678 7.72488 39.8834 8.08608Z" fill="#F9F9FA"/>
<path d="M42.4976 6.84657C42.4976 7.18404 42.3881 7.4787 42.1694 7.73055C41.9505 7.98257 41.6439 8.10834 41.2495 8.10834C41.0716 8.10834 40.8263 8.1012 40.5137 8.08693C40.5293 7.72806 40.5372 7.3234 40.5372 6.87328C40.5372 6.44091 40.5293 6.07192 40.5137 5.76648H40.8293C40.881 5.76648 40.9579 5.76465 41.0601 5.76117C41.1622 5.75769 41.229 5.75586 41.2603 5.75586C41.6943 5.75586 42.0089 5.86287 42.2045 6.07673C42.3999 6.29059 42.4976 6.54726 42.4976 6.84657V6.84657ZM42.0052 6.92322C42.0052 6.69509 41.9379 6.50296 41.8032 6.34651C41.6686 6.19038 41.4629 6.11224 41.1864 6.11224C41.1347 6.11224 41.0638 6.11755 40.9735 6.12833C40.9854 6.36608 40.9915 6.61429 40.9915 6.87328C40.9915 7.15732 40.9975 7.43888 41.0094 7.71811C41.0875 7.73354 41.1657 7.74134 41.2438 7.74134C41.5024 7.74134 41.6938 7.66186 41.8182 7.50325C41.9426 7.34464 42.0052 7.15135 42.0052 6.92322V6.92322Z" fill="#F9F9FA"/>
<path d="M45.9666 8.08608H45.3895C45.3895 8.0076 45.3347 7.78545 45.2251 7.41944H44.3919C44.2789 7.77947 44.2223 8.00163 44.2223 8.08608H43.6797C43.6797 8.03979 43.82 7.65951 44.1007 6.94543C44.3815 6.23134 44.5218 5.83796 44.5218 5.76562H45.2036C45.2036 5.83332 45.3309 6.22089 45.585 6.92851C45.8392 7.63612 45.9666 8.02187 45.9666 8.08608V8.08608ZM45.1336 7.07915C44.9279 6.46611 44.825 6.13462 44.825 6.08468H44.7961C44.7961 6.13097 44.6899 6.46246 44.4772 7.07915H45.1336Z" fill="#F9F9FA"/>
<path d="M48.0709 6.37405C48.0709 6.65809 47.9641 6.86781 47.7507 7.00319C47.5373 7.13857 47.2756 7.20643 46.9653 7.20643C46.9088 7.20643 46.8686 7.20527 46.8445 7.20295C46.8445 7.42643 46.851 7.72092 46.8643 8.08693H46.3574C46.373 7.74365 46.3809 7.33899 46.3809 6.87328C46.3809 6.44556 46.373 6.07657 46.3574 5.76648H46.6712C46.7157 5.76648 46.801 5.76465 46.9272 5.76117C47.0535 5.75768 47.1628 5.75586 47.2555 5.75586C47.4838 5.75586 47.6768 5.80696 47.8343 5.90916C47.9918 6.01136 48.0709 6.16616 48.0709 6.37405V6.37405ZM47.6055 6.47193C47.6055 6.21776 47.4348 6.0905 47.0933 6.0905C47.0078 6.0905 46.9177 6.09946 46.8228 6.11721C46.8361 6.34186 46.8426 6.59604 46.8426 6.88008C46.8727 6.88257 46.9076 6.88357 46.9472 6.88357C47.3862 6.88373 47.6055 6.74652 47.6055 6.47193V6.47193Z" fill="#F9F9FA"/>
<path d="M50.233 6.37405C50.233 6.65809 50.1262 6.86781 49.913 7.00319C49.6996 7.13857 49.4377 7.20643 49.1275 7.20643C49.0709 7.20643 49.0307 7.20527 49.0066 7.20295C49.0066 7.42643 49.0131 7.72092 49.0264 8.08693H48.5195C48.5351 7.74365 48.543 7.33899 48.543 6.87328C48.543 6.44556 48.5351 6.07657 48.5195 5.76648H48.8333C48.8778 5.76648 48.9631 5.76465 49.0893 5.76117C49.2156 5.75768 49.3249 5.75586 49.4176 5.75586C49.6459 5.75586 49.839 5.80696 49.9964 5.90916C50.1539 6.01136 50.233 6.16616 50.233 6.37405V6.37405ZM49.7678 6.47193C49.7678 6.21776 49.597 6.0905 49.2556 6.0905C49.1701 6.0905 49.0799 6.09946 48.9851 6.11721C48.9983 6.34186 49.0049 6.59604 49.0049 6.88008C49.0349 6.88257 49.0699 6.88357 49.1095 6.88357C49.5483 6.88373 49.7678 6.74652 49.7678 6.47193V6.47193Z" fill="#F9F9FA"/>
<path d="M53.7685 6.88374C53.7685 7.24841 53.6555 7.55087 53.4294 7.79094C53.2032 8.03102 52.9237 8.15098 52.5908 8.15098C52.2733 8.15098 52.0075 8.04081 51.7937 7.82031C51.5798 7.59998 51.4727 7.31975 51.4727 6.98013C51.4727 6.61545 51.5856 6.31299 51.8118 6.07292C52.0379 5.83284 52.3175 5.71289 52.6504 5.71289C52.9679 5.71289 53.2336 5.82272 53.4475 6.04256C53.6614 6.26239 53.7685 6.54262 53.7685 6.88374ZM53.2707 6.93533C53.2707 6.68696 53.2064 6.48554 53.0778 6.33108C52.9492 6.17661 52.7904 6.09946 52.6017 6.09946C52.4261 6.09946 52.277 6.17728 52.1544 6.33291C52.0319 6.48853 51.9704 6.68514 51.9704 6.92289C51.9704 7.16993 52.0351 7.37102 52.1644 7.52615C52.2936 7.68127 52.4519 7.75876 52.6395 7.75876C52.8151 7.75876 52.9642 7.68061 53.0867 7.52432C53.2095 7.3682 53.2707 7.17176 53.2707 6.93533V6.93533Z" fill="#F9F9FA"/>
<path d="M56.2144 8.08591H55.769C55.769 8.03713 55.6038 7.77997 55.273 7.31425C54.9267 6.82348 54.7296 6.48801 54.6816 6.30733H54.6527C54.6827 6.56748 54.6978 6.80274 54.6978 7.01312C54.6978 7.30662 54.7062 7.66433 54.723 8.08608H54.2793C54.2973 7.71775 54.3063 7.31326 54.3063 6.87243C54.3063 6.43873 54.2973 6.06974 54.2793 5.76562H54.8149C54.8149 5.82867 54.9634 6.08003 55.2603 6.51953C55.5766 6.98641 55.758 7.30313 55.8049 7.46954H55.8319C55.803 7.20458 55.7886 6.967 55.7886 6.75662C55.7886 6.43475 55.7802 6.10425 55.7634 5.76562H56.2144C56.1974 6.06029 56.1892 6.42927 56.1892 6.87243C56.1892 7.3189 56.1976 7.72339 56.2144 8.08591V8.08591Z" fill="#F9F9FA"/>
<defs>
<linearGradient id="paint0_linear" x1="11.8019" y1="5.46488" x2="11.8019" y2="24.2632" gradientUnits="userSpaceOnUse">
<stop stop-color="#257CB0"/>
<stop offset="0.2863" stop-color="#4A93B5"/>
<stop offset="0.767" stop-color="#78BCBB"/>
<stop offset="1" stop-color="#89CFBD"/>
</linearGradient>
<linearGradient id="paint1_linear" x1="7.00586" y1="10.1303" x2="19.1743" y2="10.1303" gradientUnits="userSpaceOnUse">
<stop stop-color="#52C1AD"/>
<stop offset="1" stop-color="#DEE89A"/>
</linearGradient>
<linearGradient id="paint2_linear" x1="13.09" y1="14.8652" x2="13.09" y2="24.3325" gradientUnits="userSpaceOnUse">
<stop stop-color="#EC413D"/>
<stop offset="0.1668" stop-color="#DA4452"/>
<stop offset="0.5748" stop-color="#B0487A"/>
<stop offset="0.8619" stop-color="#954A92"/>
<stop offset="1" stop-color="#8A4A9D"/>
</linearGradient>
<linearGradient id="paint3_linear" x1="20.0983" y1="12.3398" x2="20.0983" y2="17.3888" gradientUnits="userSpaceOnUse">
<stop stop-color="#F58879"/>
<stop offset="0.1194" stop-color="#F69079"/>
<stop offset="0.7128" stop-color="#FCB877"/>
<stop offset="1" stop-color="#FEC874"/>
</linearGradient>
</defs>
</svg>
