<?xml version="1.0" encoding="utf-8"?>
<!-- Generator: Adobe Illustrator 23.1.0, SVG Export Plug-In . SVG Version: 6.00 Build 0)  -->
<svg version="1.1"
	 id="Layer_1" xmlns:cc="http://creativecommons.org/ns#" xmlns:dc="http://purl.org/dc/elements/1.1/" xmlns:inkscape="http://www.inkscape.org/namespaces/inkscape" xmlns:rdf="http://www.w3.org/1999/02/22-rdf-syntax-ns#" xmlns:sodipodi="http://sodipodi.sourceforge.net/DTD/sodipodi-0.dtd" xmlns:svg="http://www.w3.org/2000/svg"
	 xmlns="http://www.w3.org/2000/svg" xmlns:xlink="http://www.w3.org/1999/xlink" x="0px" y="0px" viewBox="0 0 512 512"
	 style="enable-background:new 0 0 512 512;" xml:space="preserve">
<style type="text/css">
	.st0{fill:none;stroke:#FFFFFF;stroke-width:18;stroke-miterlimit:10;}
</style>
<g id="g5991">
	<rect id="rect2987" y="0" width="512" height="512"/>
	<path class="st0" d="M274.2,56.2v272.5c0,30.1-24.4,54.5-54.5,54.5l0,0c-30.1,0-54.5-24.4-54.5-54.5l0,0
		c0-30.1,24.4-54.5,54.5-54.5l0,0v-72.7l0,0c-70.2,0-127.2,56.9-127.2,127.2l0,0c0,70.2,56.9,127.2,127.2,127.2l0,0
		c70.2,0,127.2-56.9,127.2-127.2V201.5l3.8,1.9c21.4,10.7,44.9,16.3,68.8,16.3l0,0V147l-2.2-0.5c-41.4-10.3-70.5-47.6-70.5-90.3l0,0
		C346.8,56.2,274.2,56.2,274.2,56.2z"/>
</g>
</svg>
