<svg width="33" height="30" viewBox="0 0 33 30" fill="none" xmlns="http://www.w3.org/2000/svg">
<g clip-path="url(#clip0_0_75)">
<path d="M1.34183 13.7035L7.75 2.12627L7.75 9.84443L1.34183 13.7035ZM0.969201 15.0952L7.75 11.0118V19.1787L0.969201 15.0952ZM8.75 19.7809L8.75 10.4095L12.1887 8.33873L15.9285 15.0952L12.1887 21.8518L8.75 19.7809ZM1.34183 16.487L7.75 20.3461L7.75 28.0642L1.34183 16.487ZM22.9505 29.5H10.0495L16.5 25.6154L22.9505 29.5ZM23.4082 28.6083L17.4692 25.0317L20.4387 23.2435L23.4082 28.6083ZM19.9541 22.368L16.5 24.4481L13.0459 22.368L16.5 16.1277L19.9541 22.368ZM24.75 28.9675L21.2959 22.7273L31.6582 16.487L24.75 28.9675ZM32.3291 14.9156L20.8113 21.8518L17.0715 15.0952L24.75 1.22295L32.3291 14.9156ZM9.09824 0.690483H22.9505L12.5613 6.94699L9.09824 0.690483ZM16.5 14.0628L13.0459 7.82249L23.4082 1.58221L16.5 14.0628ZM11.7041 7.46323L8.75 9.24222V2.12627L11.7041 7.46323ZM12.5613 23.2435L15.5308 25.0317L9.59183 28.6083L12.5613 23.2435ZM8.75 20.9483L11.7041 22.7273L8.75 28.0642V20.9483Z" stroke="#F7CB00"/>
<path d="M24.4553 0.499992L32.3291 14.7251L20.8113 21.6613L9.09824 0.499992H24.4553ZM8.25 1.03246L19.9541 22.1775L8.43631 29.1136L0.571485 14.9047L8.25 1.03246ZM10.0495 29.3095L20.4387 23.053L23.9018 29.3095H10.0495ZM24.75 28.777L21.2959 22.5368L31.6582 16.2965L24.75 28.777Z" stroke="white"/>
</g>
<defs>
<clipPath id="clip0_0_75">
<rect width="33" height="30" fill="white"/>
</clipPath>
</defs>
</svg>
