<svg width="21" height="21" viewBox="0 0 21 21" fill="none" xmlns="http://www.w3.org/2000/svg">
<g clip-path="url(#clip0_18_1035)">
<path d="M18.094 14.6161C16.8254 13.5311 15.538 12.8738 14.2849 13.9572L13.5367 14.612C12.9893 15.0873 11.9714 17.3082 8.03615 12.7812C4.10167 8.25998 6.44302 7.55602 6.99127 7.0848L7.74358 6.42919C8.99006 5.34334 8.51966 3.97639 7.62066 2.56929L7.07814 1.717C6.17504 0.313173 5.19162 -0.608778 3.94187 0.475436L3.26659 1.06549C2.71424 1.46787 1.17027 2.77581 0.795758 5.26057C0.345026 8.24195 1.76688 11.656 5.02444 15.402C8.2779 19.1497 11.4633 21.0321 14.4808 20.9993C16.9885 20.9723 18.503 19.6266 18.9766 19.1374L19.6544 18.5465C20.9009 17.4631 20.1264 16.36 18.857 15.2725L18.094 14.6161Z" fill="white"/>
</g>
<defs>
<clipPath id="clip0_18_1035">
<rect width="21" height="21" fill="white"/>
</clipPath>
</defs>
</svg>
