<svg width="21" height="21" viewBox="0 0 21 21" fill="none" xmlns="http://www.w3.org/2000/svg">
<path d="M9.61706 12.0868L0.553968 5.49502C0.536427 5.50395 0.542566 5.50082 0.525024 5.50976V15.4848C0.525024 16.5866 1.41822 17.4798 2.52002 17.4798H18.48C19.5818 17.4798 20.475 16.5866 20.475 15.4848V5.48586C20.4718 5.48422 20.4729 5.4848 20.4697 5.48315L11.3832 12.0871C10.8567 12.4698 10.1435 12.4697 9.61706 12.0868Z" fill="white"/>
<path d="M11.3832 9.62374L19.4323 3.7703C19.1504 3.61602 18.8258 3.52026 18.48 3.52026H2.52003C2.17423 3.52026 1.85503 3.61602 1.56775 3.7703L9.61682 9.62374C10.1434 10.0067 10.8567 10.0067 11.3832 9.62374Z" fill="white"/>
</svg>
