<svg width="21" height="21" viewBox="0 0 21 21" fill="none" xmlns="http://www.w3.org/2000/svg">
<g clip-path="url(#clip0_18_1070)">
<path d="M19.6128 6.6357C19.1635 6.186 18.4491 6.15774 17.966 6.55137C17.8962 6.6083 17.9503 6.55814 16.8866 7.6218L19.6476 10.3828L20.6399 9.40294C21.1197 8.92318 21.1197 8.14257 20.6399 7.66277L19.6128 6.6357Z" fill="white"/>
<path d="M11.2246 13.3362L9.60045 16.8165C9.49107 17.051 9.54 17.3288 9.72293 17.5117C9.90586 17.6947 10.1838 17.7436 10.4181 17.6342L13.8985 16.01C14.0362 15.9458 13.6193 16.3359 18.772 11.2475L16.0165 8.49194C10.9077 13.6008 11.2901 13.1958 11.2246 13.3362Z" fill="white"/>
<path d="M14.935 16.766C14.7843 16.9148 14.6107 17.0356 14.4188 17.1251L10.9385 18.7493C10.2541 19.0687 9.41801 18.947 8.85293 18.3818C8.30615 17.8351 8.15846 16.997 8.48543 16.2962L10.1096 12.8157C10.2008 12.6203 10.3245 12.4439 10.477 12.2913L15.7092 7.05904V1.8457C15.7092 0.827982 14.8812 0 13.8635 0H1.84595C0.828227 0 0.000244141 0.827982 0.000244141 1.8457V19.1543C0.000244141 20.172 0.828227 21 1.84595 21H13.8635C14.8812 21 15.7092 20.172 15.7092 19.1543V16.0014L14.935 16.766ZM3.28154 3.97852H12.469C12.8088 3.97852 13.0843 4.25398 13.0843 4.59375C13.0843 4.93352 12.8088 5.20898 12.469 5.20898H3.28154C2.94176 5.20898 2.6663 4.93352 2.6663 4.59375C2.6663 4.25398 2.94176 3.97852 3.28154 3.97852ZM3.28154 7.25977H10.5003C10.8401 7.25977 11.1155 7.53523 11.1155 7.875C11.1155 8.21477 10.8401 8.49023 10.5003 8.49023H3.28154C2.94176 8.49023 2.6663 8.21477 2.6663 7.875C2.6663 7.53523 2.94176 7.25977 3.28154 7.25977ZM2.6663 11.1562C2.6663 10.8165 2.94176 10.541 3.28154 10.541H8.53154C8.87131 10.541 9.14677 10.8165 9.14677 11.1562C9.14677 11.496 8.87131 11.7715 8.53154 11.7715H3.28154C2.94176 11.7715 2.6663 11.496 2.6663 11.1562Z" fill="white"/>
</g>
<defs>
<clipPath id="clip0_18_1070">
<rect width="21" height="21" fill="white"/>
</clipPath>
</defs>
</svg>
