<svg width="42" height="42" viewBox="0 0 42 42" fill="none" xmlns="http://www.w3.org/2000/svg">
<circle cx="21" cy="21" r="21" fill="white"/>
<g clip-path="url(#clip0_18_1563)">
<path d="M21.0011 21.347C23.5725 21.347 25.6746 19.2449 25.6746 16.6735C25.6746 14.102 23.5725 12 21.0011 12C18.4296 12 16.3276 14.102 16.3276 16.6735C16.3276 19.2449 18.4297 21.347 21.0011 21.347Z" fill="#0094FE"/>
<path d="M29.0216 25.0816C28.8991 24.7755 28.7359 24.4898 28.5522 24.2245C27.6134 22.8367 26.1645 21.9184 24.5318 21.6939C24.3278 21.6735 24.1033 21.7143 23.94 21.8367C23.0828 22.4694 22.0625 22.7959 21.0012 22.7959C19.94 22.7959 18.9196 22.4694 18.0624 21.8367C17.8991 21.7143 17.6746 21.6531 17.4706 21.6939C15.8379 21.9184 14.3685 22.8367 13.4502 24.2245C13.2665 24.4898 13.1032 24.7959 12.9808 25.0816C12.9196 25.2041 12.94 25.347 13.0012 25.4694C13.1645 25.7551 13.3685 26.0409 13.5522 26.2857C13.8379 26.6735 14.1441 27.0204 14.491 27.347C14.7767 27.6327 15.1032 27.898 15.4298 28.1633C17.042 29.3674 18.9808 30 20.9808 30C22.9808 30 24.9196 29.3673 26.5318 28.1633C26.8583 27.9184 27.1849 27.6327 27.4706 27.347C27.7971 27.0204 28.1237 26.6735 28.4094 26.2857C28.6135 26.0204 28.7972 25.7551 28.9604 25.4694C29.0624 25.347 29.0828 25.2041 29.0216 25.0816Z" fill="#0094FE"/>
</g>
<defs>
<clipPath id="clip0_18_1563">
<rect width="18" height="18" fill="white" transform="translate(12 12)"/>
</clipPath>
</defs>
</svg>
