<svg width="21" height="21" viewBox="0 0 21 21" fill="none" xmlns="http://www.w3.org/2000/svg">
<g clip-path="url(#clip0_11_440)">
<path d="M0.845833 0.874939C0.378692 0.874939 0 1.26669 0 1.74994C0 2.23319 0.378692 2.62494 0.845833 2.62494H2.35082C2.47397 2.62494 2.594 2.66503 2.6939 2.73952C2.79381 2.81401 2.86852 2.91913 2.90745 3.04L5.69616 11.6962C5.82 12.0806 5.83574 12.4944 5.74076 12.8874L5.51113 13.8393C5.1742 15.2335 6.22329 16.6249 7.6125 16.6249H17.7625C18.2296 16.6249 18.6083 16.2332 18.6083 15.7499C18.6083 15.2667 18.2296 14.8749 17.7625 14.8749H7.6125C7.28314 14.8749 7.07171 14.5954 7.15159 14.2648L7.32476 13.5493C7.3541 13.4281 7.42176 13.3205 7.517 13.2436C7.61224 13.1667 7.72958 13.1249 7.85039 13.1249H16.9167C17.2809 13.1251 17.6043 12.8842 17.7195 12.5268L19.9746 5.52679C20.1572 4.95998 19.7492 4.37467 19.1717 4.37494H5.54417C5.42102 4.37494 5.30099 4.33485 5.20109 4.26036C5.10118 4.18587 5.02646 4.08075 4.98752 3.95989L4.18621 1.47308C4.07096 1.1157 3.74752 0.874742 3.38333 0.874939H0.845833ZM6.76667 17.4999C5.83239 17.4999 5.075 18.2834 5.075 19.2499C5.075 20.2164 5.83239 20.9999 6.76667 20.9999C7.70095 20.9999 8.45833 20.2164 8.45833 19.2499C8.45833 18.2834 7.70095 17.4999 6.76667 17.4999ZM16.9167 17.4999C15.9824 17.4999 15.225 18.2834 15.225 19.2499C15.225 20.2164 15.9824 20.9999 16.9167 20.9999C17.8509 20.9999 18.6083 20.2164 18.6083 19.2499C18.6083 18.2834 17.8509 17.4999 16.9167 17.4999Z" fill="white"/>
</g>
<defs>
<clipPath id="clip0_11_440">
<rect width="20.3" height="21" fill="white"/>
</clipPath>
</defs>
</svg>
