<svg width="42" height="42" viewBox="0 0 42 42" fill="none" xmlns="http://www.w3.org/2000/svg">
<circle cx="21" cy="21" r="21" fill="white"/>
<path d="M20.2431 22.3602L12.4748 16.7101C12.4597 16.7177 12.465 16.7151 12.45 16.7227V25.2727C12.45 26.2171 13.2155 26.9827 14.16 26.9827H27.84C28.7844 26.9827 29.55 26.2171 29.55 25.2727V16.7022C29.5472 16.7008 29.5482 16.7013 29.5454 16.6999L21.757 22.3604C21.3056 22.6885 20.6943 22.6884 20.2431 22.3602Z" fill="#0094FE"/>
<path d="M21.757 20.2488L28.6562 15.2316C28.4146 15.0994 28.1364 15.0173 27.84 15.0173H14.16C13.8636 15.0173 13.59 15.0994 13.3438 15.2316L20.243 20.2488C20.6943 20.577 21.3057 20.577 21.757 20.2488Z" fill="#0094FE"/>
</svg>
