<svg width="38" height="43" viewBox="0 0 38 43" fill="none" xmlns="http://www.w3.org/2000/svg">
<path d="M34.6654 24.0525C32.7588 22.6783 33.0683 20.1031 34.4301 18.6423C35.1977 17.9366 36.1139 17.6518 36.77 16.3642C38.1195 13.7643 37.2529 10.3226 34.5787 8.86167C31.9045 7.38839 28.537 8.37883 27.0761 11.053C25.9495 13.1082 26.2714 15.5719 27.6951 17.268C28.2399 17.7632 28.5742 18.048 29.2675 18.5556C31.1864 19.7565 30.4931 23.1364 29.6141 23.7801C29.3913 23.9411 29.1932 24.0897 28.9951 24.2259C28.3142 24.4982 27.3485 24.6716 26.3952 24.1887C24.9714 23.4706 23.2258 21.1803 22.0868 19.3108C20.9478 17.429 20.7249 16.1662 20.304 14.5319C19.8088 12.6501 20.6506 11.2511 22.2972 10.3473C23.2629 9.81497 24.1048 7.88361 24.1048 6.26177C24.1048 3.20379 21.6287 0.727692 18.5707 0.727692C16.2184 0.727692 14.2128 2.18859 13.4204 4.25613C13.2471 4.9742 13.1604 5.40752 13.049 6.24939C12.9128 8.51502 9.90439 9.80259 8.60444 9.35689C7.34163 8.76263 7.11878 8.50264 5.53407 8.42835C2.64942 8.37883 0 10.9044 0 13.9624C0 17.0204 2.47609 19.4965 5.53407 19.4965C8.59205 19.4965 10.6967 17.6766 10.9815 13.9624C11.1548 11.7339 14.1137 10.075 15.8223 11.0406C16.9489 11.5606 17.3451 12.3158 17.0603 14.631C16.5651 18.5556 13.5195 22.9135 11.3653 24.0525C10.4615 24.5354 9.19869 24.7458 8.59205 24.4487C6.75974 23.5449 4.59316 23.3345 2.73608 24.4735C0.136182 26.0829 -0.668549 29.4876 0.940914 32.0875C2.17896 34.0807 4.45697 35.0835 6.63594 34.6874C7.25496 34.6378 7.77494 34.2912 8.5673 33.994C10.9815 33.0779 13.1852 35.2692 13.1976 36.4206C13.21 37.572 13.5566 38.9091 14.1385 39.751C15.9213 42.3137 19.6107 43.1185 22.1487 41.249C24.7238 39.3424 25.1076 35.4797 23.3372 33.3998C20.6011 30.1561 17.5927 31.1961 15.9832 31.9141C13.829 32.8674 11.2786 31.1713 11.1672 29.4504C11.0682 27.9524 11.5757 27.6676 12.5786 26.8258C13.569 25.9839 16.9241 25.2039 19.2269 25.3525C21.6658 25.3525 24.5629 26.3429 25.4419 27.0734C25.8876 27.4448 26.4695 28.1876 26.4199 28.6704C26.2466 30.3294 27.4723 32.9912 29.6017 34.0188C32.0283 35.195 35.5939 33.895 36.8567 31.8027C38.5528 28.9552 37.0672 25.7858 34.6654 24.0525Z" fill="#091726"/>
</svg>
