<svg width="280" height="280" viewBox="0 0 280 280" fill="none" xmlns="http://www.w3.org/2000/svg">
<g filter="url(#filter0_d)">
<path d="M182.715 160.266L147.764 100.106C146.157 97.3941 143.847 95.7871 141.437 95.7871C138.926 95.7871 136.616 97.3941 135.109 100.106L100.359 160.266C98.7522 162.977 98.5514 165.79 99.857 167.899C101.062 170.008 103.573 171.213 106.787 171.213H176.287C179.401 171.213 181.912 170.008 183.217 167.899C184.422 165.79 184.222 162.977 182.715 160.266ZM179.401 165.79C178.899 166.593 177.794 166.995 176.187 166.995H106.687C105.08 166.995 103.874 166.493 103.473 165.79C102.971 164.986 103.171 163.781 103.975 162.375L138.725 102.215C139.528 100.809 140.533 100.005 141.437 100.005C142.341 100.005 143.345 100.809 144.148 102.215L178.899 162.375C179.702 163.781 179.903 164.986 179.401 165.79Z" fill="#FF6B00"/>
<path d="M141.5 122C140.071 122 139 122.675 139 123.575V144.425C139 145.325 140.071 146 141.5 146C142.929 146 144 145.325 144 144.425V123.575C144 122.675 142.929 122 141.5 122Z" fill="#FF6B00"/>
<path d="M141.435 158.864C143.487 158.864 145.151 157.2 145.151 155.148C145.151 153.095 143.487 151.432 141.435 151.432C139.382 151.432 137.719 153.095 137.719 155.148C137.719 157.2 139.382 158.864 141.435 158.864Z" fill="#FF6B00"/>
<path d="M141.039 225.922C94.1168 225.922 56.0786 187.884 56.0786 140.961C56.0786 94.0387 94.1168 56.0005 141.039 56.0005C187.962 56.0005 226 94.0387 226 140.961C226 187.884 187.962 225.922 141.039 225.922Z" stroke="#FF6B00" stroke-width="4"/>
<path d="M142.901 245.245C84.763 245.245 37.6328 198.114 37.6328 139.976C37.6328 81.8382 84.763 34.708 142.901 34.708" stroke="#FF6B00" stroke-width="4"/>
<path d="M248.169 140.015C248.169 198.153 201.039 245.283 142.901 245.283C84.763 245.283 37.6328 198.153 37.6328 140.015" stroke="#FF6B00" stroke-width="4"/>
<path d="M28.2601 89.707C1.60691 151.987 30.488 224.081 92.7679 250.734" stroke="#FF6B00" stroke-width="4"/>
</g>
<defs>
<filter id="filter0_d" x="2.33594" y="18.708" width="261.833" height="247.865" filterUnits="userSpaceOnUse" color-interpolation-filters="sRGB">
<feFlood flood-opacity="0" result="BackgroundImageFix"/>
<feColorMatrix in="SourceAlpha" type="matrix" values="0 0 0 0 0 0 0 0 0 0 0 0 0 0 0 0 0 0 127 0"/>
<feOffset/>
<feGaussianBlur stdDeviation="7"/>
<feColorMatrix type="matrix" values="0 0 0 0 0.795833 0 0 0 0 0.402067 0 0 0 0 0.117386 0 0 0 1 0"/>
<feBlend mode="normal" in2="BackgroundImageFix" result="effect1_dropShadow"/>
<feBlend mode="normal" in="SourceGraphic" in2="effect1_dropShadow" result="shape"/>
</filter>
</defs>
</svg>
