<svg width="280" height="280" viewBox="0 0 280 280" fill="none" xmlns="http://www.w3.org/2000/svg">
<g filter="url(#filter0_d)">
<g opacity="0.85">
<path opacity="0.85" d="M174.984 108.002L158.072 102.94C157.681 102.823 157.26 102.859 156.894 103.04C156.527 103.221 156.243 103.534 156.099 103.916L153.459 110.844V110.849L150.688 118.118C150.547 118.487 150.546 118.895 150.685 119.265C150.825 119.635 151.095 119.941 151.445 120.124L155.779 122.404L145.988 138.74L149.555 125.309C149.649 124.958 149.621 124.585 149.476 124.251C149.331 123.918 149.078 123.643 148.758 123.471L144.131 120.984L146.666 108.791C146.666 108.78 146.666 108.77 146.666 108.758L148.169 101.52C148.251 101.124 148.181 100.711 147.973 100.364C147.766 100.017 147.435 99.7597 147.047 99.6443L141.943 98.1184C141.642 98.0282 141.321 98.0282 141.019 98.1184L107.979 108.002C107.645 108.102 107.353 108.306 107.145 108.585C106.937 108.864 106.825 109.203 106.824 109.551V144.882C106.824 152.903 110.64 161.537 117.569 169.196C124.053 176.362 132.604 181.887 141.03 184.351C141.327 184.438 141.642 184.438 141.938 184.351C150.361 181.882 158.91 176.359 165.4 169.196C172.328 161.53 176.144 152.901 176.144 144.882V109.551C176.143 109.202 176.03 108.863 175.821 108.584C175.612 108.305 175.319 108.101 174.984 108.002ZM146.1 125.716L139.911 148.993C139.804 149.372 139.84 149.777 140.011 150.131C140.182 150.486 140.476 150.766 140.839 150.919C141.202 151.072 141.608 151.088 141.982 150.962C142.355 150.837 142.67 150.58 142.867 150.239L159.428 122.593C159.541 122.404 159.614 122.194 159.643 121.976C159.673 121.759 159.657 121.537 159.598 121.325C159.538 121.114 159.436 120.917 159.298 120.746C159.16 120.575 158.988 120.434 158.794 120.331L154.215 117.923L155.942 113.397L165.514 116.261V144.882C165.514 156.088 152.94 168.977 141.48 173.31C130.022 168.977 117.447 156.088 117.447 144.882V116.26L141.481 109.068L143.198 109.582L140.722 121.507C140.65 121.849 140.691 122.204 140.838 122.521C140.985 122.837 141.231 123.097 141.538 123.262L146.1 125.716ZM172.904 144.882C172.904 152.098 169.386 159.962 162.997 167.028C157.18 173.523 149.761 178.379 141.481 181.112C126.522 176.519 110.057 160.658 110.057 144.882V110.752L141.481 101.354L144.706 102.317L143.857 106.405L141.946 105.832C141.643 105.74 141.32 105.74 141.017 105.832L115.367 113.508C115.034 113.608 114.742 113.812 114.534 114.091C114.326 114.37 114.214 114.709 114.214 115.056V144.882C114.214 157.948 128.298 172.06 140.94 176.554C141.29 176.679 141.672 176.679 142.022 176.554C154.663 172.06 168.748 157.952 168.748 144.882V115.056C168.748 114.708 168.635 114.37 168.428 114.091C168.22 113.812 167.928 113.607 167.595 113.507L157.097 110.367L158.584 106.468L172.904 110.752V144.882Z" fill="#C92A2A"/>
</g>
<path d="M140.96 225.92C187.882 225.92 225.92 187.882 225.92 140.96C225.92 94.0378 187.882 56 140.96 56C94.0378 56 56 94.0378 56 140.96C56 187.882 94.0378 225.92 140.96 225.92Z" stroke="#C92A2A" stroke-width="4"/>
<path d="M139.098 245.298C197.235 245.298 244.366 197.237 244.366 139.099C244.366 80.9617 197.237 33.832 139.099 33.832" stroke="#C92A2A" stroke-width="4"/>
<path d="M33.8555 140.021C33.8555 198.159 80.9852 245.289 139.122 245.289C197.26 245.289 244.39 198.159 244.39 140.021" stroke="#C92A2A" stroke-width="4"/>
<path d="M253.737 89.7085C280.39 151.988 251.509 224.081 189.23 250.734" stroke="#C92A2A" stroke-width="4"/>
</g>
<defs>
<filter id="filter0_d" x="17.8555" y="17.832" width="261.808" height="248.741" filterUnits="userSpaceOnUse" color-interpolation-filters="sRGB">
<feFlood flood-opacity="0" result="BackgroundImageFix"/>
<feColorMatrix in="SourceAlpha" type="matrix" values="0 0 0 0 0 0 0 0 0 0 0 0 0 0 0 0 0 0 127 0"/>
<feOffset/>
<feGaussianBlur stdDeviation="7"/>
<feColorMatrix type="matrix" values="0 0 0 0 1 0 0 0 0 0.201667 0 0 0 0 0.201667 0 0 0 1 0"/>
<feBlend mode="normal" in2="BackgroundImageFix" result="effect1_dropShadow"/>
<feBlend mode="normal" in="SourceGraphic" in2="effect1_dropShadow" result="shape"/>
</filter>
</defs>
</svg>
