<svg width="169" height="59" viewBox="0 0 169 59" fill="none" xmlns="http://www.w3.org/2000/svg">
<g clip-path="url(#clip0)">
<path d="M59.2296 32.1586L58.2419 34.926H58.1596C57.995 34.302 57.6932 33.3524 57.1994 32.2128L51.9042 19.0539H46.7188V40.0268H50.1483V27.0849C50.1483 26.271 50.1483 25.3485 50.1208 24.2089C50.0934 23.6392 50.0385 23.2051 50.0111 22.8795H50.0934C50.258 23.6934 50.4501 24.2903 50.5872 24.6702L56.9524 39.9725H59.3668L65.6771 24.5345C65.8143 24.1818 65.9515 23.4764 66.0887 22.8795H66.171C66.0887 24.426 66.0338 25.8097 66.0063 26.6508V39.9454H69.6554V18.9996H64.662L59.2296 32.1586V32.1586ZM73.1123 24.9144H76.679V39.9454H73.1123V24.9144ZM74.9231 18.5655C74.3195 18.5655 73.8256 18.7826 73.4141 19.1624C73.0026 19.5423 72.7831 20.0306 72.7831 20.6275C72.7831 21.1973 73.0026 21.6857 73.4141 22.0655C73.8256 22.4454 74.3195 22.6353 74.9231 22.6353C75.5267 22.6353 76.048 22.4182 76.4321 22.0655C76.8436 21.6857 77.0631 21.1973 77.0631 20.6275C77.0631 20.0578 76.8436 19.5694 76.4321 19.1624C76.0754 18.7826 75.5541 18.5655 74.9231 18.5655V18.5655ZM89.3271 24.7787C88.6686 24.643 87.9827 24.5617 87.3242 24.5617C85.7055 24.5617 84.2239 24.9144 82.9893 25.6198C81.7547 26.3252 80.767 27.302 80.136 28.5229C79.4775 29.771 79.1483 31.2089 79.1483 32.864C79.1483 34.302 79.4775 35.5772 80.1085 36.7438C80.7395 37.8834 81.6175 38.8058 82.7973 39.4299C83.9221 40.0539 85.2391 40.3795 86.7206 40.3795C88.4217 40.3795 89.8758 40.0268 91.0281 39.3756L91.0555 39.3485V36.0927L90.9184 36.2012C90.3971 36.581 89.7935 36.9066 89.1899 37.0965C88.5588 37.3136 87.9827 37.4221 87.4888 37.4221C86.0622 37.4221 84.9373 37.0151 84.1416 36.1198C83.3185 35.2516 82.907 34.0578 82.907 32.5655C82.907 31.019 83.3185 29.7981 84.1691 28.9027C85.0196 28.0074 86.1445 27.5461 87.5163 27.5461C88.6686 27.5461 89.8483 27.926 90.9184 28.6857L91.0555 28.7942V25.3485L91.0281 25.3213C90.5617 25.1314 90.0404 24.9144 89.3271 24.7787V24.7787ZM101.097 24.6702C100.219 24.6702 99.3961 24.9415 98.6828 25.5113C98.0792 25.9996 97.6676 26.7051 97.311 27.5461H97.2835V24.9144H93.7168V39.9454H97.2835V32.2671C97.2835 30.9648 97.5579 29.8795 98.1615 29.0927C98.7651 28.2787 99.5333 27.8717 100.466 27.8717C100.795 27.8717 101.125 27.9531 101.536 28.0074C101.92 28.1159 102.195 28.2244 102.387 28.3601L102.524 28.4686V24.9415L102.442 24.9144C102.195 24.7516 101.701 24.6702 101.097 24.6702V24.6702ZM110.81 24.5888C108.313 24.5888 106.31 25.3213 104.911 26.7593C103.484 28.1973 102.798 30.1779 102.798 32.6741C102.798 35.0074 103.512 36.9066 104.883 38.2903C106.255 39.6469 108.121 40.3524 110.453 40.3524C112.895 40.3524 114.843 39.6198 116.242 38.1547C117.669 36.6896 118.354 34.7361 118.354 32.3213C118.354 29.9337 117.696 28.0345 116.352 26.6508C115.062 25.2671 113.169 24.5888 110.81 24.5888V24.5888ZM113.663 36.1469C113.004 36.988 111.962 37.395 110.672 37.395C109.383 37.395 108.34 36.988 107.6 36.0927C106.859 35.2516 106.502 34.0306 106.502 32.4841C106.502 30.8834 106.886 29.6624 107.6 28.7942C108.34 27.926 109.355 27.4919 110.645 27.4919C111.907 27.4919 112.895 27.8989 113.608 28.7399C114.321 29.581 114.705 30.802 114.705 32.4027C114.651 34.0306 114.349 35.3058 113.663 36.1469V36.1469ZM126.311 31.1547C125.186 30.6934 124.473 30.3407 124.144 30.0423C123.869 29.771 123.732 29.3911 123.732 28.9027C123.732 28.4958 123.897 28.0888 124.308 27.8175C124.72 27.5461 125.186 27.4105 125.872 27.4105C126.476 27.4105 127.107 27.519 127.71 27.6818C128.314 27.8446 128.863 28.0888 129.302 28.4144L129.439 28.5229V25.2128L129.356 25.1857C128.945 25.0229 128.396 24.8601 127.738 24.7244C127.079 24.6159 126.476 24.5617 125.982 24.5617C124.281 24.5617 122.881 24.9686 121.784 25.864C120.687 26.7051 120.165 27.8446 120.165 29.1741C120.165 29.8795 120.275 30.5035 120.522 31.019C120.769 31.5345 121.126 32.0229 121.619 32.4299C122.113 32.8097 122.827 33.2438 123.814 33.6508C124.637 34.0035 125.268 34.2748 125.652 34.4919C126.037 34.7089 126.284 34.9531 126.476 35.143C126.613 35.3601 126.695 35.6314 126.695 35.9841C126.695 36.988 125.927 37.4764 124.363 37.4764C123.759 37.4764 123.128 37.3679 122.388 37.1237C121.647 36.8795 120.961 36.5268 120.385 36.1198L120.248 36.0113V39.457L120.33 39.4841C120.851 39.7283 121.482 39.8911 122.25 40.081C123.019 40.2167 123.705 40.3252 124.308 40.3252C126.146 40.3252 127.655 39.9182 128.725 39.0229C129.823 38.1547 130.399 37.0423 130.399 35.6043C130.399 34.6004 130.125 33.7051 129.521 33.0268C128.725 32.3756 127.738 31.6973 126.311 31.1547V31.1547ZM139.81 24.5888C137.313 24.5888 135.31 25.3213 133.911 26.7593C132.512 28.1973 131.798 30.1779 131.798 32.6741C131.798 35.0074 132.512 36.9066 133.883 38.2903C135.255 39.6469 137.121 40.3524 139.453 40.3524C141.895 40.3524 143.843 39.6198 145.242 38.1547C146.669 36.6896 147.354 34.7361 147.354 32.3213C147.354 29.9337 146.696 28.0345 145.352 26.6508C144.062 25.2671 142.169 24.5888 139.81 24.5888V24.5888ZM142.635 36.1469C141.977 36.988 140.934 37.395 139.645 37.395C138.328 37.395 137.313 36.988 136.572 36.0927C135.831 35.2516 135.475 34.0306 135.475 32.4841C135.475 30.8834 135.859 29.6624 136.572 28.7942C137.313 27.926 138.328 27.4919 139.617 27.4919C140.852 27.4919 141.867 27.8989 142.581 28.7399C143.294 29.581 143.678 30.802 143.678 32.4027C143.678 34.0306 143.321 35.3058 142.635 36.1469V36.1469ZM166.423 27.8175V24.9144H162.828V20.4648L162.719 20.4919L159.317 21.4958L159.234 21.5229V24.9144H153.857V23.0151C153.857 22.1469 154.076 21.4686 154.46 21.0345C154.845 20.6004 155.421 20.3834 156.134 20.3834C156.628 20.3834 157.149 20.4919 157.725 20.7361L157.863 20.8175V17.7516L157.78 17.7244C157.286 17.5617 156.628 17.4531 155.777 17.4531C154.707 17.4531 153.775 17.6973 152.924 18.1043C152.073 18.5655 151.442 19.1896 150.976 20.0306C150.51 20.8446 150.263 21.7671 150.263 22.8252V24.9144H147.766V27.7903H150.263V39.9454H153.857V27.8175H159.234V35.55C159.234 38.7244 160.743 40.3252 163.761 40.3252C164.255 40.3252 164.776 40.2438 165.27 40.1624C165.792 40.0539 166.176 39.9182 166.395 39.8097L166.423 39.7826V36.8795L166.285 36.988C166.066 37.1237 165.874 37.2322 165.545 37.3136C165.27 37.395 165.023 37.4221 164.831 37.4221C164.118 37.4221 163.624 37.2593 163.267 36.8524C162.938 36.4725 162.774 35.8485 162.774 34.926V27.8175H166.423V27.8175Z" fill="#5F5F5F"/>
<path d="M0.734375 12H17.5527V28.6318H0.734375V12Z" fill="#5F5F5F"/>
<path d="M19.3086 12H36.127V28.6318H19.3086V12Z" fill="#5F5F5F"/>
<path d="M0.734375 30.3682H17.5527V47H0.734375V30.3682Z" fill="#5F5F5F"/>
<path d="M19.3086 30.3682H36.127V47H19.3086V30.3682Z" fill="#5F5F5F"/>
</g>
<defs>
<clipPath id="clip0">
<rect width="165.714" height="35" fill="white" transform="translate(0.734375 12)"/>
</clipPath>
</defs>
</svg>
