<svg width="134" height="59" viewBox="0 0 134 59" fill="none" xmlns="http://www.w3.org/2000/svg">
<path d="M38.2011 11L38.3889 39.4615H42.6582V11H38.2011ZM91.0428 11V39.4729H96.1801C96.1801 39.4729 96.2228 29.1983 96.2797 29.2097C96.3366 29.2097 103.939 39.8628 104.007 39.8258C104.084 39.8059 108.564 38.195 108.564 38.1495C108.564 38.1153 100.927 28.3558 100.927 28.3445C100.927 28.3217 107.331 21.1949 107.274 21.138C107.098 20.9729 103.628 19.473 103.529 19.5271C103.483 19.5612 96.1801 27.4878 96.1801 27.4878V11H91.0428ZM5.93708 19.6808C4.08992 20.0707 2.35662 21.2518 1.64508 22.618C1.3223 23.2779 1.15641 24.0036 1.16036 24.7382C1.16431 25.4728 1.33799 26.1966 1.66785 26.8531C2.12323 27.7325 3.44669 28.9564 5.50162 30.3994C7.72731 31.979 8.56977 32.7674 8.78323 33.5131C9.10485 34.6145 8.61531 35.6477 7.548 36.16C7.01577 36.4162 6.77954 36.4475 5.83462 36.4048C4.60223 36.3478 3.75692 36.0348 2.50177 35.1354C2.10046 34.8593 1.73331 34.6572 1.68777 34.7028C1.64508 34.7483 1.24377 35.3488 0.79977 36.0376L0 37.27L0.298846 37.5034C0.478154 37.6258 1.01038 37.9502 1.49992 38.2263C4.88116 40.1048 9.88185 39.8059 12.4178 37.5717C13.0806 37.0035 13.5863 36.2745 13.8863 35.4546C14.1863 34.6348 14.2707 33.7516 14.1312 32.8898C13.8864 31.2333 12.9728 30.1461 10.1038 28.0655C7.84969 26.4318 6.78239 25.5325 6.53762 25.0543C6.05946 24.1179 6.39246 23.2185 7.40285 22.6948C7.91516 22.4302 8.12577 22.4074 9.139 22.4501C10.1266 22.4842 10.4283 22.5639 11.2508 22.951L12.2072 23.4178L12.95 22.2508C13.3627 21.6076 13.6615 21.0384 13.6302 20.9843C13.4965 20.7851 11.9282 20.1276 10.9492 19.8743C9.64846 19.5271 7.13531 19.4275 5.93708 19.6836V19.6808ZM28.5156 22.1968C30.7641 23.2498 31.9623 26.5514 31.4756 30.3112C31.3049 31.646 30.8295 33.2569 30.3855 34.0026C29.9387 34.7711 29.0735 35.605 28.3819 35.9266C27.1153 36.5243 25.2369 36.2938 24.0472 35.3915C22.4021 34.1364 21.4999 31.0568 21.8442 27.8549C22.1687 24.9205 23.2246 23.062 25.0689 22.2053C26.0252 21.7613 27.5735 21.7613 28.5156 22.1968ZM26.4692 18.9265C25.1259 19.2282 24.0585 19.8288 22.903 20.9274L21.8556 21.9292V19.5385H17.0428V48H21.8556V36.3934L22.7806 37.2928C24.4684 38.9492 26.4493 39.6181 28.7604 39.2936C30.2717 39.083 31.339 38.6959 32.4632 37.9388C35.6225 35.827 37.3672 31.6118 36.889 27.2088C36.4336 23.0307 34.2876 20.139 30.8267 19.0404C29.9387 18.7501 27.5166 18.6932 26.4721 18.9265H26.4692ZM46.2386 19.5385C46.2386 19.5385 46.3952 34.5804 46.4948 35.0158C46.8819 36.6723 47.9947 38.2491 49.2413 38.9293C50.3855 39.5498 51.3076 39.7405 53.0324 39.7405C55.4886 39.7291 56.9772 39.1399 58.8016 37.4607L59.7351 36.6154V39.4615H64.6931L64.6276 19.5385H59.7351C59.7351 19.5385 59.8006 31.9135 59.7351 32.3462C59.4448 34.0823 58.1014 35.5054 56.7324 35.9608C55.9212 36.2368 54.4982 36.4588 53.6415 36.3251C52.7649 36.1828 51.2849 35.2151 51.1966 33.7692V19.6039L46.2386 19.5385ZM87.4623 39.4615C87.4623 39.4615 87.3058 24.4196 87.2062 23.9842C86.8191 22.3277 85.7063 20.7509 84.4596 20.0707C83.3155 19.4502 82.3933 19.2595 80.6686 19.2595C78.2123 19.2709 76.7238 19.8601 74.8994 21.5393L73.9659 22.3846V19.5385H69.0079L69.0733 39.4615H73.9659C73.9659 39.4615 73.9004 27.0865 73.9659 26.6538C74.2562 24.9177 75.5996 23.4946 76.9686 23.0392C77.7797 22.7632 78.847 22.5525 80.0595 22.6749C81.2691 22.8058 82.5926 23.9073 82.5043 25.2308V39.3961L87.4623 39.4615Z" fill="#5F5F5F"/>
<path fill-rule="evenodd" clip-rule="evenodd" d="M113.812 18.1152V22.3845L130.889 28.0768L113.812 35.4825V39.4614L133.736 30.9229V25.2306L113.812 18.1152Z" fill="#5F5F5F"/>
</svg>
