<svg width="67" height="26" viewBox="0 0 67 26" fill="none" xmlns="http://www.w3.org/2000/svg">
<g clip-path="url(#clip0)">
<path fill-rule="evenodd" clip-rule="evenodd" d="M63.7413 0.990749C62.3878 0.588577 60.1925 0.237717 58.1968 0.237717C46.2329 0.237717 43.1875 8.59458 43.1875 13.3458C43.1875 18.9554 46.2842 24.504 53.2806 25.6328L53.2584 20.4878C50.912 19.5018 48.6016 17.8515 48.6016 13.0739C48.6016 9.83438 50.446 4.78365 58.4451 4.78365C59.3521 4.78365 61.6916 4.87379 63.7413 5.40771V0.990749Z" fill="#242323"/>
<path fill-rule="evenodd" clip-rule="evenodd" d="M65.8019 21.2033L65.7936 12.9587H56.9638L53.1016 16.882L61.3752 16.8889L61.3766 25.6133L65.8019 21.2033Z" fill="#242323"/>
<path fill-rule="evenodd" clip-rule="evenodd" d="M38.5976 0.906298H22.293V25.4707H38.9859L38.9997 21.2063H27.4907V14.8908H38.1469V10.8316H27.4907V5.15684H38.5976V0.906298Z" fill="#242323"/>
<path fill-rule="evenodd" clip-rule="evenodd" d="M6.20345 0.903114L0.421875 0.907274V25.4717H17.3727L17.345 20.8314H6.20345V0.903114Z" fill="#242323"/>
</g>
<defs>
<clipPath id="clip0">
<rect width="66.2269" height="25.8699" fill="white"/>
</clipPath>
</defs>
</svg>
