<svg width="165" height="26" viewBox="0 0 165 26" fill="none" xmlns="http://www.w3.org/2000/svg">
<path fill-rule="evenodd" clip-rule="evenodd" d="M0 25.0075V0.863243H28.046V8.20633H12.5918V10.6265H28.046V16.1643H12.5918V18.6342H28.046V25.0075H0ZM31.0454 25.0075V0.862305H51.9182C59.313 0.862305 64.7654 3.74152 64.7654 11.7671C64.7654 15.8554 63.1122 20.2695 59.5852 22.6033C56.3305 24.785 52.2412 25.0075 48.425 25.0075H31.0454ZM66.214 25.0075V0.863243H94.2778V8.20633H78.8227V10.6265H94.2778V16.1643H78.8227V18.6342H94.2778V25.0075H66.214ZM97.2922 25.0075V0.863243H109.816V10.2003L116.07 0.863243H131.029L120.704 13.1302L129.445 24.1035L137.146 0.863243H157.201L164.988 25.0075H151.851L150.949 21.8542H142.769L141.968 25.0075H116.07L109.816 16.9144V25.0075H97.2922Z" fill="#242323"/>
<path fill-rule="evenodd" clip-rule="evenodd" d="M43.5508 17.6637H46.3455C49.2933 17.6637 51.2695 15.9768 51.2695 12.9446C51.2695 10.0139 48.9864 8.97465 46.3455 8.97465H43.5508V17.6637ZM146.809 6.79395L144.491 15.3131H149.175L146.809 6.79395Z" fill="#0C0C0C"/>
</svg>
