<svg width="194" height="26" viewBox="0 0 194 26" fill="none" xmlns="http://www.w3.org/2000/svg">
<path fill-rule="evenodd" clip-rule="evenodd" d="M42.0948 4.62598C35.8115 4.62598 31.8588 8.9993 31.8588 15.1132C31.8588 21.0073 36.2248 24.9725 42.0948 24.9725C47.2888 24.9725 51.3503 22.009 51.9147 16.8567H45.7088C45.4058 18.8966 44.2763 20.1545 42.0568 20.1545C39.3467 20.1545 38.2567 17.5992 38.2567 15.1132C38.2567 12.4476 38.821 9.4432 42.3956 9.4432C44.0121 9.4432 45.4803 10.5968 45.5204 12.2256H51.7249C51.2766 7.14703 46.95 4.62598 42.0948 4.62598ZM110.651 4.62525C107.882 4.62525 105.935 5.87884 104.77 7.89611H104.692V5.18232H98.4865V24.4176H104.881V14.4298C104.881 11.6218 106.11 9.81044 108.342 9.81117C111.661 9.81117 111.542 12.4819 111.542 15.1117V24.4176H117.939V12.0738C117.939 9.29353 117.162 4.62525 110.651 4.62525ZM129.323 4.62525C127.101 4.62525 124.845 4.99761 123.113 5.9628C121.382 6.96012 120.178 8.59263 120.066 11.1122H126.049C126.351 9.4819 127.479 8.7058 129.247 8.7058C130.566 8.7058 132.332 9.25629 132.332 10.7019C132.332 11.892 131.73 12.2592 130.639 12.4833C126.2 13.3704 119.276 12.8907 119.276 19.1514C119.276 23.1195 122.211 24.971 125.933 24.971C128.27 24.971 130.717 24.3044 132.371 22.6011C132.447 23.2312 132.52 23.8218 132.746 24.4176H139.182C138.43 22.8983 138.43 21.1175 138.43 19.4858V11.0721C138.43 5.62768 133.948 4.62525 129.322 4.62525H129.323ZM132.258 15.4103C132.409 19.3777 131.39 21.0796 128.344 21.0796C126.914 21.0796 125.673 20.448 125.673 18.8958C125.673 17.3736 126.879 16.78 128.308 16.4478C129.702 16.0776 131.356 15.9689 132.257 15.4111L132.258 15.4103ZM140.518 0.895159V24.4191H146.914V0.894429L140.518 0.895159ZM162.14 0.895159V7.25946H162.061C160.745 5.51744 158.901 4.62744 156.493 4.62744C150.96 4.62744 148.253 9.37092 148.253 14.3736C148.253 19.7844 150.85 24.9725 156.982 24.9725C159.24 24.9725 161.122 24.0095 162.364 22.193H162.437V24.4183H168.535V0.895159H162.14ZM158.562 9.44466C161.347 9.44466 162.364 12.0037 162.364 14.7817C162.364 17.2261 161.686 20.1545 158.562 20.1545C155.627 20.1545 154.651 17.2268 154.651 14.5963C154.651 12.1519 155.627 9.44466 158.562 9.44466ZM169.87 0.895159V7.258H172.864L175.853 0.895159H169.87ZM53.2522 0.895159V24.4191H63.5219C70.7791 24.4191 75.2276 20.267 75.2276 12.5607C75.2276 5.27651 70.8448 0.895159 63.5219 0.895159H53.2522ZM60.0685 6.34903H62.9422C66.6591 6.34903 68.3252 8.79633 68.3252 12.5425C68.3252 16.6632 66.9818 18.9674 62.9422 18.9674H60.0685V6.34903ZM4.93403 0.862305L0 24.4183H7.04476L8.86053 15.0635C9.05478 14.0299 9.22009 12.991 9.35627 11.9482H9.42709C9.53806 12.5994 9.82499 13.8888 10.1134 14.9891L12.6731 24.4183H19.6748L22.2302 14.9891C22.5215 13.8888 22.8069 12.5994 22.9165 11.9482H22.9917C23.0537 12.4483 23.2501 13.8589 23.4859 15.0635L25.3017 24.4183H32.345L27.4117 0.862305H19.9457L16.9544 12.6936C16.704 13.6106 16.3952 15.0957 16.2083 15.8703H16.1382C15.9484 15.0957 15.6417 13.6106 15.392 12.6936L12.3993 0.862305L4.93403 0.862305ZM86.8384 4.62598C80.5332 4.62598 76.5615 9.03799 76.5615 14.8168C76.5615 20.597 80.5318 25.0075 86.837 25.0075C93.1429 25.0075 97.111 20.5977 97.111 14.8168C97.111 9.03799 93.1436 4.62598 86.8384 4.62598ZM86.837 9.4432C89.6019 9.4432 90.7116 11.7379 90.7116 14.8168C90.7116 17.8985 89.6026 20.1903 86.8377 20.1903C84.0706 20.1903 82.9608 17.8985 82.9608 14.8168C82.9608 11.7372 84.0699 9.4432 86.837 9.4432ZM183.461 4.62379C179.675 4.62379 174.495 5.88322 174.495 10.5172C174.495 15.706 179.637 15.8148 183.611 16.8165C184.723 17.0779 186.694 17.3721 186.693 18.8557C186.693 20.3772 184.947 20.8956 183.721 20.8956C182.829 20.8956 182.06 20.6729 181.467 20.2275C180.835 19.7442 180.428 19.0382 180.428 18.0774H174.325C174.512 23.4539 179.191 24.971 183.76 24.971C188.105 24.971 193.173 23.2655 193.173 18.1154C193.173 16.5215 192.173 13.7041 188.272 12.9236C185.375 12.2972 180.976 11.9642 180.976 10.1477C180.976 8.81166 182.648 8.70069 183.685 8.70069C184.466 8.70069 185.087 8.84963 185.607 9.18255C186.127 9.51694 186.425 10.0346 186.425 10.8501H192.338C192.116 5.84745 187.696 4.62379 183.461 4.62379Z" fill="#242323"/>
</svg>
