<svg width="111" height="111" viewBox="0 0 111 111" fill="none" xmlns="http://www.w3.org/2000/svg">
<g clip-path="url(#clip0)">
<path d="M0 9.84839V84.4863H53.5862H107.172V9.84839H0Z" fill="#DCD6CD"/>
<path d="M59.2606 52.1566C56.1277 54.9546 51.0466 54.9546 47.9118 52.1566L43.9177 48.6295C31.4226 59.7831 0 84.4863 0 84.4863H41.3513H65.823H107.172C107.172 84.4863 75.7498 59.7812 63.2547 48.6295L59.2606 52.1566Z" fill="#E8E3D9"/>
<path d="M0 9.84839L47.9118 52.1566C51.0447 54.9546 56.1258 54.9546 59.2606 52.1566L107.172 9.84839H0Z" fill="#EFEBDE"/>
<path d="M69.9798 82.9839L69.9664 82.9973L66.1617 96.9488L75.0532 88.0554L69.9798 82.9839Z" fill="#EDDCC7"/>
<path d="M106.82 56.2884L104.434 53.9019C102.95 52.4188 100.545 52.4188 99.0616 53.9019L92.2064 60.7572L97.2799 65.8306L106.82 56.2884Z" fill="#D75A4A"/>
<path d="M97.2797 65.8289L92.2064 60.7556L69.9808 82.9813L75.0541 88.0546L97.2797 65.8289Z" fill="#F29C21"/>
<path d="M80.7927 93.8237L80.8061 93.8103L75.0532 88.0555L66.1617 96.9489L65.9053 97.8829L80.7927 93.8237Z" fill="#D6C4B1"/>
<path d="M103.033 71.5834L109.888 64.7282C111.371 63.245 111.371 60.8394 109.888 59.3562L106.822 56.2903L97.282 65.8305L103.033 71.5834Z" fill="#A34740"/>
<path d="M75.0528 88.059L80.8054 93.8116L103.031 71.586L97.2784 65.8334L75.0528 88.059Z" fill="#E18C25"/>
<path d="M64.5522 101.152C64.0623 101.152 63.5723 100.964 63.1992 100.591C62.4509 99.8425 62.4509 98.633 63.1992 97.8847L67.4229 93.661C68.1712 92.9127 69.3807 92.9127 70.129 93.661C70.8773 94.4092 70.8773 95.6188 70.129 96.3671L65.9053 100.591C65.5321 100.964 65.0421 101.152 64.5522 101.152Z" fill="#5E5E5E"/>
</g>
<defs>
<clipPath id="clip0">
<rect width="111" height="111" fill="white"/>
</clipPath>
</defs>
</svg>
