<svg width="83" height="83" viewBox="0 0 83 83" fill="none" xmlns="http://www.w3.org/2000/svg">
<path fill-rule="evenodd" clip-rule="evenodd" d="M83 40.7575C83 35.3061 78.5258 30.8727 73.0244 30.8727C70.6434 30.8727 68.4568 31.7053 66.7398 33.091C60.6574 29.3029 52.9384 27.0204 44.6644 26.5373L48.9804 13.0161L60.8416 15.7843C61.1528 20.0633 64.7633 23.4507 69.1598 23.4507C73.7585 23.4507 77.5013 19.7423 77.5013 15.1825C77.5013 10.6259 73.7585 6.91687 69.1598 6.91687C65.9435 6.91687 63.1474 8.7312 61.7546 11.3814L47.9714 8.16576C46.8172 7.89601 45.65 8.55417 45.2921 9.67467L39.9334 26.4575C31.0187 26.6735 22.6383 28.9631 16.1098 32.973C14.4161 31.6599 12.2866 30.8734 9.97556 30.8734C4.47422 30.8727 0 35.3061 0 40.7575C0 44.1268 1.71187 47.1057 4.31859 48.8896C4.20966 49.6735 4.15259 50.4627 4.15259 51.2616C4.15259 58.0747 8.14956 64.4125 15.4069 69.1059C22.3633 73.6061 31.5711 76.0837 41.3314 76.0837C51.0917 76.0837 60.2995 73.6061 67.2559 69.1059C74.5133 64.4132 78.5102 58.0753 78.5102 51.2616C78.5102 50.534 78.4609 49.8123 78.3702 49.0951C81.1507 47.3392 83 44.2578 83 40.7575ZM69.1598 11.4092C71.2607 11.4092 72.97 13.103 72.97 15.1819C72.97 17.2633 71.2607 18.9571 69.1598 18.9571C67.0588 18.9571 65.3495 17.2633 65.3495 15.1819C65.3495 13.103 67.0588 11.4092 69.1598 11.4092ZM23.5357 46.8716C23.5357 43.8006 26.1372 41.2225 29.2368 41.2225C32.3389 41.2225 34.8548 43.8 34.8548 46.8716C34.8548 49.9452 32.3389 52.4385 29.2368 52.4385C26.1372 52.4385 23.5357 49.9452 23.5357 46.8716ZM55.1639 63.2434C52.2744 66.1036 47.8184 67.4945 41.5415 67.4945C41.5285 67.4945 41.513 67.492 41.4974 67.492C41.4844 67.492 41.4689 67.4945 41.4533 67.4945C35.1764 67.4945 30.723 66.1043 27.8361 63.2434C26.9491 62.3641 26.9491 60.9434 27.8361 60.0667C28.7206 59.19 30.1549 59.19 31.042 60.0667C33.034 62.0405 36.4396 63.0015 41.4533 63.0015C41.4689 63.0015 41.4844 63.0041 41.4974 63.0041C41.513 63.0041 41.5285 63.0015 41.5415 63.0015C46.5552 63.0015 49.9634 62.0405 51.958 60.0667C52.8451 59.1874 54.2794 59.19 55.1639 60.0667C56.0483 60.9453 56.0483 62.3667 55.1639 63.2434ZM53.8463 52.4385C50.7441 52.4385 48.1374 49.9452 48.1374 46.8716C48.1374 43.798 50.7441 41.2225 53.8463 41.2225C56.9484 41.2225 59.4643 43.7974 59.4643 46.8716C59.4643 49.9452 56.9484 52.4385 53.8463 52.4385Z" fill="#FF5700"/>
</svg>
