<?xml version="1.0" encoding="utf-8"?>
<!-- Generator: Adobe Illustrator 23.0.3, SVG Export Plug-In . SVG Version: 6.00 Build 0)  -->
<svg version="1.1" id="Слой_1" xmlns="http://www.w3.org/2000/svg" xmlns:xlink="http://www.w3.org/1999/xlink" x="0px" y="0px"
	 viewBox="0 0 42 42" style="enable-background:new 0 0 42 42;" xml:space="preserve">
<style type="text/css">
	.st0{fill:#FFFFFF;}
</style>
<path class="st0" d="M28.1,7.5c1.7,0,3.4,0.7,4.6,2l0.5,0.5l0.7-0.1c0.3-0.1,0.7-0.1,1-0.2c-0.1,0.1-0.4,0.5-0.9,0.8
	c-0.3,0.3-1.4,1.3-1.4,1.3s1,0.3,1.6,0.4c0.6,0.1,1.4,0,1.5-0.1c-0.2,0.2-0.6,0.5-0.8,0.6l-0.5,0.4l0,0.7c0,0.3,0,0.6,0,0.9
	c0,2.3-0.5,4.8-1.3,7.1c-0.9,2.4-2.2,4.6-3.9,6.5c-1.8,2-3.9,3.6-6.3,4.7c-2.6,1.2-5.5,1.8-8.7,1.8c-2.2,0-4.5-0.4-6.6-1.1
	c0.8-0.1,1.5-0.4,2.3-0.6c1.7-0.6,3.3-1.5,4.7-2.6l2.7-2.2l-3.5-0.1c-2,0-3.9-1-5-2.6c0.6,0,1.1-0.1,1.7-0.3l4.7-1.6L10.5,23
	c-2.3-0.5-4.1-2.2-4.8-4.3c0.6,0.2,1.2,0.2,1.9,0.3c0,0,2.5,0.1,4.3,0c-1-0.5-3.6-2.3-3.6-2.3c-1.7-1.2-2.8-3.1-2.8-5.2
	c0-0.5,0.1-1,0.2-1.5c1.7,1.7,3.6,3.2,5.8,4.3c2.9,1.5,6,2.3,9.2,2.5l1.6,0.1L22,15.2c-0.1-0.5-0.2-0.9-0.2-1.4
	C21.8,10.3,24.6,7.5,28.1,7.5z M28.1,6.3c-4.2,0-7.5,3.4-7.5,7.5c0,0.6,0.1,1.2,0.2,1.7C14.5,15.2,9,12.2,5.3,7.6
	c-0.6,1.1-1,2.4-1,3.8c0,2.6,1.3,4.9,3.3,6.3c-1.2,0-2.4-0.4-3.4-0.9c0,0,0,0.1,0,0.1c0,3.6,2.6,6.7,6,7.4c-0.6,0.2-1.3,0.3-2,0.3
	c-0.5,0-1,0-1.4-0.1c1,3,3.7,5.2,7,5.2c-2.6,2-5.8,3.2-9.3,3.2c-0.6,0-1.2,0-1.8-0.1c3.3,2.2,7.3,3.4,11.5,3.4
	c13.8,0,21.4-11.5,21.4-21.4c0-0.3,0-0.7,0-1c1.5-1.1,2.7-2.4,3.8-3.9c-1.4,0.6-2.8,1-4.3,1.2c1.6-0.9,2.7-2.4,3.3-4.2
	c-1.5,0.9-3.1,1.5-4.8,1.8C32.2,7.2,30.2,6.3,28.1,6.3z"/>
</svg>
