<?xml version="1.0" encoding="utf-8"?>
<!-- Generator: Adobe Illustrator 23.0.3, SVG Export Plug-In . SVG Version: 6.00 Build 0)  -->
<svg version="1.1" id="Слой_1" xmlns="http://www.w3.org/2000/svg" xmlns:xlink="http://www.w3.org/1999/xlink" x="0px" y="0px"
	 viewBox="0 0 34 33" style="enable-background:new 0 0 34 33;" xml:space="preserve">
<style type="text/css">
	.st0{clip-path:url(#SVGID_2_);}
	.st1{fill:#FFFFFF;}
</style>
<g>
	<defs>
		<rect id="SVGID_1_" x="3.6" y="3.3" width="26.2" height="26.2"/>
	</defs>
	<clipPath id="SVGID_2_">
		<use xlink:href="#SVGID_1_"  style="overflow:visible;"/>
	</clipPath>
	<g class="st0">
		<path class="st1" d="M7.5,29.5H26c2.1,0,3.8-1.7,3.8-3.8V7.1c0-2.1-1.7-3.8-3.8-3.8H7.5C5.3,3.3,3.6,5,3.6,7.1v18.5
			C3.6,27.8,5.3,29.5,7.5,29.5z M5.2,7.1c0-1.3,1-2.3,2.3-2.3H26c1.3,0,2.3,1,2.3,2.3v18.5c0,1.3-1,2.3-2.3,2.3H7.5
			c-1.3,0-2.3-1-2.3-2.3V7.1z"/>
		<path class="st1" d="M16.7,23.3c3.8,0,6.9-3.1,6.9-6.9c0-3.8-3.1-6.9-6.9-6.9s-6.9,3.1-6.9,6.9C9.8,20.2,12.9,23.3,16.7,23.3z
			 M16.7,11c3,0,5.4,2.4,5.4,5.4s-2.4,5.4-5.4,5.4s-5.4-2.4-5.4-5.4S13.8,11,16.7,11z"/>
		<path class="st1" d="M24.4,11c1.3,0,2.3-1,2.3-2.3s-1-2.3-2.3-2.3c-1.3,0-2.3,1-2.3,2.3S23.1,11,24.4,11z M24.4,7.9
			c0.4,0,0.8,0.3,0.8,0.8s-0.3,0.8-0.8,0.8c-0.4,0-0.8-0.3-0.8-0.8S24,7.9,24.4,7.9z"/>
	</g>
</g>
</svg>
