<svg width="83" height="67" viewBox="0 0 83 67" fill="none" xmlns="http://www.w3.org/2000/svg">
<path fill-rule="evenodd" clip-rule="evenodd" d="M82.1304 7.90124C79.1087 9.24151 75.8614 10.1472 72.4531 10.5543C75.9314 8.46888 78.6035 5.16697 79.8615 1.23206C76.6056 3.163 72.9995 4.5654 69.1613 5.32088C66.0878 2.04593 61.7086 0 56.8622 0C47.5567 0 40.0119 7.54413 40.0119 16.8496C40.0119 18.1702 40.1608 19.4562 40.4483 20.6895C26.4444 19.9867 14.0283 13.2786 5.71782 3.08407C4.26739 5.57265 3.43637 8.46692 3.43637 11.5551C3.43637 17.4009 6.41099 22.5584 10.9323 25.5802C8.17015 25.4925 5.57194 24.7347 3.30031 23.4725C3.2987 23.543 3.2987 23.6132 3.2987 23.6846C3.2987 31.8485 9.10705 38.6584 16.8153 40.2069C15.4014 40.5919 13.9128 40.7981 12.3761 40.7981C11.2903 40.7981 10.2348 40.6922 9.2058 40.4958C11.3501 47.1896 17.5727 52.0616 24.9463 52.1973C19.1796 56.717 11.9142 59.4104 4.01955 59.4104C2.65946 59.4104 1.3183 59.3307 0 59.1747C7.45699 63.9556 16.3141 66.7456 25.8295 66.7456C56.8227 66.7456 73.7714 41.0699 73.7714 18.8032C73.7714 18.0727 73.7549 17.3461 73.7226 16.6233C77.0151 14.2478 79.8717 11.2801 82.1304 7.90124Z" fill="#2CA7E0"/>
</svg>
