<svg width="612" height="443" viewBox="0 0 612 443" fill="none" xmlns="http://www.w3.org/2000/svg">
<path d="M0 0V442.06H610.241V0H0ZM500.41 407.239C480.752 410.922 459.132 406.624 414.896 411.256C379.724 414.939 350.451 455.157 177.55 428.571C107.509 417.799 52.8213 363.598 59.5379 316.187C69.2897 247.346 15.5153 268.96 6.66458 182.171C2.0584 136.987 49.8751 72.6176 98.5454 33.9362C172.144 -24.5579 216.279 23.6414 268.209 34.7532C280.119 37.3025 292.533 36.7271 304.14 33.1076C333.087 24.0846 400.005 0.704099 508.342 45.5313C641.666 100.711 651.477 378.939 500.41 407.239Z" fill="white"/>
</svg>
