<svg width="61" height="61" viewBox="0 0 61 61" fill="none" xmlns="http://www.w3.org/2000/svg">
<g filter="url(#filter0_b_22_386)">
<rect width="61" height="61" rx="10" fill="#38CC6D"/>
</g>
<g clip-path="url(#clip0_22_386)">
<path d="M33.9527 33.0814C33.4184 33.0814 32.9824 33.5174 32.9824 34.0518V38.9877C32.9824 39.2408 33.0809 39.4799 33.2637 39.6768C33.4465 39.8596 33.6855 39.958 33.9387 39.958H41.3355C41.8699 39.958 42.3059 39.5221 42.3059 38.9877V34.0377C42.3059 33.5033 41.8699 33.0674 41.3355 33.0674H33.9527V33.0814ZM40.8855 38.5236H34.4309V34.5158H40.8855V38.5236Z" fill="white"/>
<path d="M35.5986 41.6602H28.2018C27.9486 41.6602 27.7096 41.7586 27.5127 41.9414C27.3299 42.1242 27.2314 42.3633 27.2314 42.6164V47.5664C27.2314 47.8195 27.3299 48.0727 27.5127 48.2555C27.6955 48.4383 27.9346 48.5367 28.2018 48.5367H35.5986C36.133 48.5367 36.5689 48.1008 36.5689 47.5664V42.6164C36.5689 42.082 36.133 41.6602 35.5986 41.6602ZM35.1346 47.1023H28.6658V43.0945H35.1346V47.1023Z" fill="white"/>
<path d="M47.1016 41.6602H39.7047C39.1703 41.6602 38.7344 42.0961 38.7344 42.6164V47.5664C38.7344 47.8195 38.8328 48.0727 39.0156 48.2555C39.1984 48.4383 39.4375 48.5367 39.7047 48.5367H47.1016C47.6359 48.5367 48.0719 48.1008 48.0719 47.5664V42.6164C48.0578 42.082 47.6359 41.6602 47.1016 41.6602ZM46.6234 47.1023H40.1547V43.0945H46.6234V47.1023Z" fill="white"/>
<path d="M28.764 29.6643C28.3984 29.5237 27.9765 29.7065 27.8359 30.0721L22.0562 44.908C22.0141 45.0205 21.9719 45.119 21.9156 45.2174C21.5078 46.019 20.8047 46.6237 19.9328 46.919C19.0609 47.2143 18.1187 47.144 17.2891 46.7362C16.4594 46.3143 15.8406 45.6112 15.5453 44.7393C15.2219 43.769 15.3344 42.7002 15.8687 41.8284L25.0797 26.894C25.2906 26.5565 25.1781 26.1205 24.8406 25.9096C24.5031 25.6987 24.0672 25.8112 23.8562 26.1487L14.6594 41.083C13.9 42.3205 13.7312 43.8252 14.2094 45.1893C14.6172 46.4268 15.5031 47.4252 16.6703 48.0159C17.3594 48.3534 18.0906 48.5362 18.8359 48.5362C19.3562 48.5362 19.8906 48.4518 20.3969 48.283C21.6203 47.8752 22.6047 47.0174 23.1953 45.8784C23.2656 45.7377 23.3359 45.583 23.3922 45.4284L29.1719 30.5924C29.3265 30.2127 29.1437 29.8049 28.764 29.6643Z" fill="white"/>
<path d="M16.2489 20.3552L16.3051 20.327C19.3848 18.2598 26.6551 24.9114 29.2004 27.6536L29.2848 27.752L35.1067 30.7052C35.3739 30.8317 35.6551 30.902 35.9364 30.902C36.1332 30.902 36.3301 30.8739 36.527 30.8036C37.0051 30.6489 37.3848 30.3114 37.6098 29.8614L41.1676 22.7458C41.6176 21.8317 41.252 20.7067 40.3239 20.2427L28.9754 14.5895C26.4582 13.338 23.6036 13.1411 20.9317 14.027C18.2598 14.927 16.1082 16.7973 14.8567 19.3286C14.6879 19.6661 14.8286 20.088 15.0536 20.2989C15.1801 20.3973 15.602 20.7208 16.2489 20.3552ZM21.4098 15.377C23.7161 14.6036 26.177 14.7723 28.3567 15.8552L39.6911 21.5083C39.902 21.6208 40.0004 21.888 39.8879 22.0989L36.3442 29.2145C36.2879 29.313 36.2036 29.3973 36.0911 29.4255C35.9786 29.4677 35.8661 29.4536 35.7536 29.3973L30.1707 26.5567C28.9332 25.2489 21.7192 17.8098 17.0082 18.527C18.1051 17.0786 19.6239 15.9817 21.4098 15.377Z" fill="white"/>
</g>
<defs>
<filter id="filter0_b_22_386" x="-2" y="-2" width="65" height="65" filterUnits="userSpaceOnUse" color-interpolation-filters="sRGB">
<feFlood flood-opacity="0" result="BackgroundImageFix"/>
<feGaussianBlur in="BackgroundImageFix" stdDeviation="1"/>
<feComposite in2="SourceAlpha" operator="in" result="effect1_backgroundBlur_22_386"/>
<feBlend mode="normal" in="SourceGraphic" in2="effect1_backgroundBlur_22_386" result="shape"/>
</filter>
<clipPath id="clip0_22_386">
<rect width="36" height="36" fill="white" transform="translate(13 13)"/>
</clipPath>
</defs>
</svg>
