<svg width="61" height="61" viewBox="0 0 61 61" fill="none" xmlns="http://www.w3.org/2000/svg">
<g filter="url(#filter0_b_14_258)">
<rect width="60.4831" height="61" rx="10" fill="#38CC6D"/>
</g>
<g clip-path="url(#clip0_14_258)">
<path d="M48.5678 48.3008L45.2214 34.8008C45.1912 34.6792 45.1216 34.5712 45.0235 34.4941C44.9255 34.4169 44.8048 34.375 44.6804 34.375H36.3144C36.1665 34.375 36.0246 34.4343 35.92 34.5398C35.8155 34.6452 35.7567 34.7883 35.7567 34.9375C35.7567 35.0867 35.8155 35.2298 35.92 35.3352C36.0246 35.4407 36.1665 35.5 36.3144 35.5H37.2732L36.4366 38.875H32.968C32.8201 38.875 32.6782 38.9343 32.5736 39.0398C32.4691 39.1452 32.4103 39.2883 32.4103 39.4375C32.4103 39.5867 32.4691 39.7298 32.5736 39.8352C32.6782 39.9407 32.8201 40 32.968 40H36.8722C36.9965 40 37.1173 39.9581 37.2153 39.8809C37.3133 39.8038 37.3829 39.6958 37.4132 39.5742L38.4227 35.5H41.7356L40.793 39.3008C40.7724 39.3838 40.7708 39.4703 40.7884 39.554C40.806 39.6376 40.8422 39.7161 40.8943 39.7836C40.9465 39.851 41.0132 39.9055 41.0894 39.943C41.1656 39.9805 41.2492 40 41.334 40H45.3603L46.1969 43.375H40.2186C40.0942 43.375 39.9735 43.4169 39.8754 43.4941C39.7774 43.5712 39.7078 43.6792 39.6776 43.8008L38.6681 47.875H35.3551L36.2977 44.0742C36.3183 43.9912 36.3199 43.9047 36.3023 43.821C36.2848 43.7374 36.2485 43.6589 36.1964 43.5914C36.1442 43.524 36.0775 43.4695 36.0013 43.432C35.9251 43.3945 35.8415 43.375 35.7567 43.375H15.2773L16.1139 40H28.5062C28.6541 40 28.7959 39.9407 28.9005 39.8352C29.0051 39.7298 29.0639 39.5867 29.0639 39.4375C29.0639 39.2883 29.0051 39.1452 28.9005 39.0398C28.7959 38.9343 28.6541 38.875 28.5062 38.875H16.3928L17.2294 35.5H25.1598C25.3077 35.5 25.4495 35.4407 25.5541 35.3352C25.6587 35.2298 25.7175 35.0867 25.7175 34.9375C25.7175 34.7883 25.6587 34.6452 25.5541 34.5398C25.4495 34.4343 25.3077 34.375 25.1598 34.375H16.7938C16.6694 34.375 16.5487 34.4169 16.4506 34.4941C16.3526 34.5712 16.283 34.6792 16.2528 34.8008L12.9064 48.3008C12.8858 48.3838 12.8842 48.4703 12.9017 48.554C12.9193 48.6376 12.9555 48.7161 13.0077 48.7836C13.0598 48.851 13.1266 48.9055 13.2027 48.943C13.2789 48.9805 13.3626 49 13.4474 49H48.0268C48.1116 49 48.1953 48.9805 48.2715 48.943C48.3476 48.9055 48.4143 48.851 48.4665 48.7836C48.5187 48.7161 48.5549 48.6376 48.5724 48.554C48.59 48.4703 48.5884 48.3838 48.5678 48.3008ZM42.0485 38.875L42.8851 35.5H44.2448L45.0814 38.875H42.0485ZM14.9984 44.5H35.0422L34.2056 47.875H14.1618L14.9984 44.5ZM39.8175 47.875L40.6541 44.5H46.4758L47.3124 47.875H39.8175Z" fill="white"/>
<path d="M30.7373 40C30.8186 40 30.8989 39.9821 30.9726 39.9475C31.0463 39.9129 31.1116 39.8625 31.164 39.7998C31.5338 39.3571 40.2188 28.8827 40.2188 22.5625C40.2188 20.0264 39.2198 17.5941 37.4417 15.8008C35.6636 14.0075 33.252 13 30.7373 13C28.2227 13 25.811 14.0075 24.0329 15.8008C22.2548 17.5941 21.2559 20.0264 21.2559 22.5625C21.2559 28.8827 29.9409 39.3571 30.3107 39.7998C30.363 39.8625 30.4283 39.9129 30.502 39.9475C30.5757 39.9821 30.656 40 30.7373 40ZM30.7373 14.125C32.9554 14.1275 35.0818 15.0173 36.6502 16.5991C38.2186 18.1809 39.1008 20.3255 39.1033 22.5625C39.1033 27.7116 32.4981 36.3398 30.7373 38.5482C28.976 36.3398 22.3713 27.7139 22.3713 22.5625C22.3738 20.3255 23.2561 18.1809 24.8244 16.5991C26.3928 15.0173 28.5193 14.1275 30.7373 14.125Z" fill="white"/>
<path d="M36.8717 22.5625C36.8717 21.3387 36.5119 20.1424 35.8377 19.1249C35.1636 18.1074 34.2055 17.3143 33.0844 16.846C31.9634 16.3777 30.7298 16.2551 29.5397 16.4939C28.3497 16.7326 27.2565 17.3219 26.3985 18.1873C25.5405 19.0526 24.9562 20.1551 24.7194 21.3554C24.4827 22.5556 24.6042 23.7997 25.0686 24.9304C25.5329 26.061 26.3193 27.0273 27.3282 27.7072C28.3371 28.3871 29.5232 28.75 30.7366 28.75C32.3632 28.7481 33.9225 28.0956 35.0727 26.9356C36.2228 25.7756 36.8698 24.2029 36.8717 22.5625ZM25.717 22.5625C25.717 21.5612 26.0114 20.5825 26.563 19.7499C27.1145 18.9174 27.8985 18.2685 28.8157 17.8854C29.7329 17.5022 30.7422 17.4019 31.7159 17.5973C32.6896 17.7926 33.584 18.2748 34.286 18.9828C34.988 19.6908 35.4661 20.5928 35.6598 21.5749C35.8535 22.5569 35.7541 23.5748 35.3741 24.4998C34.9942 25.4249 34.3508 26.2155 33.5254 26.7718C32.6999 27.3281 31.7294 27.625 30.7366 27.625C29.4058 27.6235 28.1299 27.0897 27.1889 26.1406C26.2478 25.1915 25.7185 23.9047 25.717 22.5625Z" fill="white"/>
</g>
<defs>
<filter id="filter0_b_14_258" x="-2" y="-2" width="64.4834" height="65" filterUnits="userSpaceOnUse" color-interpolation-filters="sRGB">
<feFlood flood-opacity="0" result="BackgroundImageFix"/>
<feGaussianBlur in="BackgroundImageFix" stdDeviation="1"/>
<feComposite in2="SourceAlpha" operator="in" result="effect1_backgroundBlur_14_258"/>
<feBlend mode="normal" in="SourceGraphic" in2="effect1_backgroundBlur_14_258" result="shape"/>
</filter>
<clipPath id="clip0_14_258">
<rect width="35.6949" height="36" fill="white" transform="translate(12.8896 13)"/>
</clipPath>
</defs>
</svg>
