<svg width="61" height="61" viewBox="0 0 61 61" fill="none" xmlns="http://www.w3.org/2000/svg">
<g filter="url(#filter0_b_22_278)">
<rect width="60.4831" height="61" rx="10" fill="#38CC6D"/>
</g>
<g clip-path="url(#clip0_22_278)">
<path d="M48.3291 24.465L37.4299 17.373V14.375H43.0072V17.5V17.8281V18.625V20.875C43.0072 21.0242 43.066 21.1673 43.1706 21.2727C43.2752 21.3782 43.417 21.4375 43.565 21.4375C43.7129 21.4375 43.8548 21.3782 43.9593 21.2727C44.0639 21.1673 44.1227 21.0242 44.1227 20.875V14.375V14.5V13C44.1227 13 43.8368 13 43.6889 13H36.7482C36.6003 13 36.3144 13 36.3144 13V14.125V14.375V16.6474L31.0394 13.2161C30.9493 13.1575 30.8443 13.1263 30.7371 13.1263C30.6299 13.1263 30.5249 13.1575 30.4348 13.2161L13.1451 24.4661C13.0669 24.517 13.0026 24.5867 12.958 24.6691C12.9134 24.7514 12.8899 24.8437 12.8896 24.9375V32.4375C12.8897 32.5386 12.9167 32.6378 12.9679 32.7246C13.0191 32.8115 13.0926 32.8829 13.1806 32.9313C13.2686 32.9796 13.3679 33.0031 13.468 32.9994C13.5682 32.9957 13.6655 32.9648 13.7497 32.91L15.6783 31.6551V48.4375C15.6783 48.5867 15.7371 48.7298 15.8417 48.8352C15.9463 48.9407 16.0881 49 16.236 49H45.2382C45.3861 49 45.528 48.9407 45.6325 48.8352C45.7371 48.7298 45.7959 48.5867 45.7959 48.4375V31.6551L47.7245 32.91C47.8088 32.9648 47.9061 32.9957 48.0062 32.9994C48.1063 33.0031 48.2056 32.9796 48.2936 32.9313C48.3816 32.8829 48.4551 32.8115 48.5063 32.7246C48.5575 32.6378 48.5845 32.5386 48.5846 32.4375V24.9375C48.5845 24.8435 48.5611 24.751 48.5165 24.6684C48.4719 24.5859 48.4075 24.516 48.3291 24.465ZM36.3144 14.125H44.1227C44.1227 13.7833 44.1227 13.5917 44.1227 13.25H36.3144V14.125ZM25.7175 47.875V38.3125C25.7175 37.8649 25.8938 37.4357 26.2076 37.1193C26.5214 36.8028 26.9469 36.625 27.3907 36.625H34.0835C34.5273 36.625 34.9529 36.8028 35.2666 37.1193C35.5804 37.4357 35.7567 37.8649 35.7567 38.3125V47.875H25.7175ZM44.6804 47.875H36.8722V38.3125C36.8713 37.5669 36.5772 36.852 36.0544 36.3247C35.5316 35.7975 34.8228 35.5009 34.0835 35.5H27.3907C26.6514 35.5009 25.9426 35.7975 25.4198 36.3247C24.897 36.852 24.6029 37.5669 24.602 38.3125V47.875H16.7938V30.9294L30.7371 21.8569L44.6804 30.9294V47.875ZM47.4691 31.4053L31.0394 20.7178C30.9493 20.6592 30.8443 20.628 30.7371 20.628C30.6299 20.628 30.5249 20.6592 30.4348 20.7178L14.0051 31.4053V25.2441L30.7371 14.3569L47.4691 25.2441V31.4053Z" fill="white"/>
</g>
<defs>
<filter id="filter0_b_22_278" x="-2" y="-2" width="64.4834" height="65" filterUnits="userSpaceOnUse" color-interpolation-filters="sRGB">
<feFlood flood-opacity="0" result="BackgroundImageFix"/>
<feGaussianBlur in="BackgroundImageFix" stdDeviation="1"/>
<feComposite in2="SourceAlpha" operator="in" result="effect1_backgroundBlur_22_278"/>
<feBlend mode="normal" in="SourceGraphic" in2="effect1_backgroundBlur_22_278" result="shape"/>
</filter>
<clipPath id="clip0_22_278">
<rect width="35.6949" height="36" fill="white" transform="translate(12.8896 13)"/>
</clipPath>
</defs>
</svg>
