<svg width="20" height="20" viewBox="0 0 20 20" fill="none" xmlns="http://www.w3.org/2000/svg">
<path d="M18.5008 8.19961C16.781 8.20372 15.1035 7.6674 13.7051 6.66641V13.6477C13.7046 14.9407 13.3094 16.2027 12.5723 17.265C11.8352 18.3274 10.7913 19.1393 9.58031 19.5924C8.36928 20.0455 7.04879 20.118 5.79542 19.8003C4.54205 19.4826 3.41554 18.7899 2.56651 17.8147C1.71749 16.8395 1.18642 15.6283 1.04433 14.3431C0.902227 13.058 1.15587 11.76 1.77134 10.6229C2.38681 9.48578 3.33477 8.56366 4.48846 7.97983C5.64216 7.39601 6.94659 7.17832 8.22735 7.35586V10.8672C7.64127 10.6828 7.01193 10.6884 6.4292 10.8831C5.84647 11.0777 5.34015 11.4515 4.98254 11.9511C4.62493 12.4507 4.43433 13.0505 4.43795 13.6649C4.44157 14.2793 4.63922 14.8768 5.00269 15.3721C5.36616 15.8675 5.87685 16.2353 6.46183 16.4231C7.04682 16.6109 7.67618 16.609 8.26004 16.4178C8.84391 16.2265 9.35241 15.8557 9.71294 15.3582C10.0735 14.8607 10.2676 14.262 10.2676 13.6477V0H13.7051C13.7027 0.290289 13.727 0.580182 13.7777 0.866016C13.8972 1.50409 14.1456 2.1111 14.5076 2.6499C14.8697 3.1887 15.3379 3.64796 15.8836 3.99961C16.6599 4.51293 17.5701 4.78652 18.5008 4.78633V8.19961Z" fill="white"/>
</svg>
