<svg width="16" height="17" viewBox="0 0 16 17" fill="none" xmlns="http://www.w3.org/2000/svg">
<g clip-path="url(#clip0_145_1966)">
<path fill-rule="evenodd" clip-rule="evenodd" d="M1.6045 3.90462H0.666667C0.29848 3.90462 0 3.60614 0 3.23796C0 2.86977 0.29848 2.57129 0.666667 2.57129H1.6045C1.88569 1.70087 2.70265 1.07129 3.66667 1.07129C4.63068 1.07129 5.44767 1.70087 5.72887 2.57129H15.3333C15.7015 2.57129 16 2.86977 16 3.23796C16 3.60614 15.7015 3.90462 15.3333 3.90462H5.72887C5.44767 4.77504 4.63068 5.40462 3.66667 5.40462C2.70265 5.40462 1.88569 4.77504 1.6045 3.90462ZM2.5 3.23796C2.5 2.59362 3.02233 2.07129 3.66667 2.07129C4.311 2.07129 4.83333 2.59362 4.83333 3.23796C4.83333 3.88229 4.311 4.40462 3.66667 4.40462C3.02233 4.40462 2.5 3.88229 2.5 3.23796Z" fill="#38CC6D"/>
<path fill-rule="evenodd" clip-rule="evenodd" d="M0.666667 9.23763H10.2972C10.5784 10.108 11.3953 10.7376 12.3594 10.7376C13.3234 10.7376 14.1403 10.108 14.4215 9.23763H15.3333C15.7015 9.23763 16 8.93916 16 8.57096C16 8.20276 15.7015 7.9043 15.3333 7.9043H14.4215C14.1403 7.0339 13.3234 6.4043 12.3594 6.4043C11.3953 6.4043 10.5784 7.0339 10.2972 7.9043H0.666667C0.29848 7.9043 0 8.20276 0 8.57096C0 8.93916 0.29848 9.23763 0.666667 9.23763ZM12.3594 7.4043C11.7151 7.4043 11.1927 7.92663 11.1927 8.57096C11.1927 9.2153 11.7151 9.73763 12.3594 9.73763C13.0037 9.73763 13.5261 9.2153 13.5261 8.57096C13.5261 7.92663 13.0037 7.4043 12.3594 7.4043Z" fill="#38CC6D"/>
<path fill-rule="evenodd" clip-rule="evenodd" d="M5.60447 14.5716H0.666667C0.29848 14.5716 0 14.2731 0 13.9049C0 13.5367 0.29848 13.2383 0.666667 13.2383H5.60447C5.88567 12.3679 6.70267 11.7383 7.66667 11.7383C8.63067 11.7383 9.44767 12.3679 9.72887 13.2383H15.3333C15.7015 13.2383 16 13.5367 16 13.9049C16 14.2731 15.7015 14.5716 15.3333 14.5716H9.72887C9.44767 15.442 8.63067 16.0716 7.66667 16.0716C6.70267 16.0716 5.88567 15.442 5.60447 14.5716ZM6.5 13.9049C6.5 13.2606 7.02233 12.7383 7.66667 12.7383C8.311 12.7383 8.83333 13.2606 8.83333 13.9049C8.83333 14.5493 8.311 15.0716 7.66667 15.0716C7.02233 15.0716 6.5 14.5493 6.5 13.9049Z" fill="#38CC6D"/>
<rect x="2" y="1.73828" width="3.33333" height="2.66667" rx="1.33333" fill="#38CC6D"/>
<rect x="10.666" y="7.07129" width="3.33333" height="2.66667" rx="1.33333" fill="#38CC6D"/>
<rect x="6" y="12.4043" width="3.33333" height="2.66667" rx="1.33333" fill="#38CC6D"/>
</g>
<defs>
<clipPath id="clip0_145_1966">
<rect width="16" height="16" fill="white" transform="translate(0 0.5)"/>
</clipPath>
</defs>
</svg>
