<svg width="15" height="15" viewBox="0 0 15 15" fill="none" xmlns="http://www.w3.org/2000/svg">
<g clip-path="url(#clip0_6_197)">
<path d="M0.148709 0.000805527C0.106351 0.00888774 0.0682094 0.0316735 0.0410169 0.0651412C0.0138244 0.0986089 -0.000671106 0.140607 8.87618e-05 0.183722V4.08214C-0.000254033 4.10638 0.00422392 4.13044 0.0132625 4.15293C0.0223011 4.17543 0.0357201 4.1959 0.0527395 4.21316C0.0697589 4.23042 0.0900393 4.24413 0.112402 4.25348C0.134765 4.26284 0.158764 4.26766 0.183006 4.26766C0.207247 4.26766 0.231246 4.26284 0.253609 4.25348C0.275972 4.24413 0.296252 4.23042 0.313272 4.21316C0.330291 4.1959 0.34371 4.17543 0.352749 4.15293C0.361787 4.13044 0.366265 4.10638 0.365922 4.08214V0.366639H4.08714C4.11137 0.366982 4.13544 0.362504 4.15793 0.353465C4.18042 0.344427 4.2009 0.331008 4.21816 0.313988C4.23542 0.296969 4.24913 0.276689 4.25848 0.254326C4.26784 0.231963 4.27266 0.207963 4.27266 0.183722C4.27266 0.159481 4.26784 0.135482 4.25848 0.113119C4.24913 0.090756 4.23542 0.0704757 4.21816 0.0534563C4.2009 0.0364369 4.18042 0.0230179 4.15793 0.0139793C4.13544 0.00494069 4.11137 0.000462732 4.08714 0.000805527H0.183006C0.171598 -0.000268509 0.160116 -0.000268509 0.148709 0.000805527ZM10.8779 0.000805527C10.8294 0.00535358 10.7847 0.0289869 10.7536 0.0665064C10.7225 0.104026 10.7076 0.152358 10.7122 0.200871C10.7167 0.249383 10.7403 0.294102 10.7779 0.32519C10.8154 0.356277 10.8637 0.371187 10.9122 0.366639H14.6334V4.08214C14.6331 4.10638 14.6376 4.13044 14.6466 4.15293C14.6556 4.17543 14.6691 4.1959 14.6861 4.21316C14.7031 4.23042 14.7234 4.24413 14.7457 4.25348C14.7681 4.26284 14.7921 4.26766 14.8163 4.26766C14.8406 4.26766 14.8646 4.26284 14.887 4.25348C14.9093 4.24413 14.9296 4.23042 14.9466 4.21316C14.9636 4.1959 14.9771 4.17543 14.9861 4.15293C14.9951 4.13044 14.9996 4.10638 14.9993 4.08214V0.183722C14.9993 0.135211 14.98 0.0886886 14.9457 0.0543861C14.9114 0.0200836 14.8649 0.000810377 14.8163 0.000805527H10.9122C10.9008 -0.000268509 10.8893 -0.000268509 10.8779 0.000805527ZM0.183006 10.7243C0.158497 10.7243 0.134236 10.7292 0.111663 10.7388C0.0890911 10.7483 0.0686677 10.7623 0.051606 10.7799C0.0345442 10.7975 0.021192 10.8183 0.0123422 10.8412C0.00349236 10.864 -0.000674616 10.8884 8.87618e-05 10.9129V14.8171C9.36122e-05 14.8656 0.0193668 14.9121 0.0536693 14.9464C0.0879718 14.9807 0.134494 15 0.183006 15H4.08714C4.11137 15.0003 4.13544 14.9958 4.15793 14.9868C4.18042 14.9778 4.2009 14.9644 4.21816 14.9473C4.23542 14.9303 4.24913 14.91 4.25848 14.8877C4.26784 14.8653 4.27266 14.8413 4.27266 14.8171C4.27266 14.7928 4.26784 14.7688 4.25848 14.7465C4.24913 14.7241 4.23542 14.7038 4.21816 14.6868C4.2009 14.6698 4.18042 14.6564 4.15793 14.6473C4.13544 14.6383 4.11137 14.6338 4.08714 14.6341H0.365922V10.9129C0.366686 10.8884 0.362519 10.864 0.353669 10.8412C0.344819 10.8183 0.331467 10.7975 0.314405 10.7799C0.297343 10.7623 0.27692 10.7483 0.254348 10.7388C0.231775 10.7292 0.207514 10.7243 0.183006 10.7243ZM14.8163 10.7243C14.7918 10.7243 14.7676 10.7292 14.745 10.7388C14.7224 10.7483 14.702 10.7623 14.6849 10.7799C14.6679 10.7975 14.6545 10.8183 14.6457 10.8412C14.6368 10.864 14.6327 10.8884 14.6334 10.9129V14.6341H10.9122C10.888 14.6338 10.8639 14.6383 10.8414 14.6473C10.8189 14.6564 10.7985 14.6698 10.7812 14.6868C10.7639 14.7038 10.7502 14.7241 10.7409 14.7465C10.7315 14.7688 10.7267 14.7928 10.7267 14.8171C10.7267 14.8413 10.7315 14.8653 10.7409 14.8877C10.7502 14.91 10.7639 14.9303 10.7812 14.9473C10.7985 14.9644 10.8189 14.9778 10.8414 14.9868C10.8639 14.9958 10.888 15.0003 10.9122 15H14.8163C14.8649 15 14.9114 14.9807 14.9457 14.9464C14.98 14.9121 14.9993 14.8656 14.9993 14.8171V10.9129C15 10.8884 14.9959 10.864 14.987 10.8412C14.9782 10.8183 14.9648 10.7975 14.9477 10.7799C14.9307 10.7623 14.9103 10.7483 14.8877 10.7388C14.8651 10.7292 14.8409 10.7243 14.8163 10.7243Z" fill="#38CC6D" stroke="#38CC6D" stroke-width="4"/>
</g>
<defs>
<clipPath id="clip0_6_197">
<rect width="15" height="15" fill="white"/>
</clipPath>
</defs>
</svg>
