<svg width="17" height="16" viewBox="0 0 17 16" fill="none" xmlns="http://www.w3.org/2000/svg">
<path d="M4.02083 6.99583C5.22083 9.35417 7.15 11.2833 9.5125 12.4833L11.3458 10.6458C11.575 10.4167 11.9042 10.35 12.1917 10.4417C13.125 10.75 14.1292 10.9167 15.1667 10.9167C15.6292 10.9167 16 11.2875 16 11.75V14.6667C16 15.1292 15.6292 15.5 15.1667 15.5C7.34167 15.5 1 9.15833 1 1.33333C1 0.870833 1.375 0.5 1.83333 0.5H4.75C5.2125 0.5 5.58333 0.870833 5.58333 1.33333C5.58333 2.37083 5.75 3.375 6.05833 4.30833C6.15 4.59583 6.08333 4.925 5.85417 5.15417L4.02083 6.99583Z" fill="white" stroke="white" stroke-width="0.7"/>
</svg>
