<svg width="30" height="31" viewBox="0 0 30 31" fill="none" xmlns="http://www.w3.org/2000/svg">
<rect y="0.5" width="30" height="30" rx="15" fill="#38CC6D" fill-opacity="0.15"/>
<g clip-path="url(#clip0_65_503)">
<path d="M22.9261 19.8303L19.6527 10.6637C19.475 10.1663 19.0037 9.83398 18.4756 9.83398H16.3324V11.9173C16.3324 12.1474 16.1459 12.334 15.9157 12.334H15.0824C14.8523 12.334 14.6657 12.1474 14.6657 11.9173V9.83398H12.5251C11.9967 9.83398 11.5256 10.166 11.348 10.6637L8.07458 19.8303C7.78223 20.6428 8.38578 21.4996 9.2501 21.4996H14.6657V19.4163C14.6657 19.1871 14.8532 18.9996 15.0824 18.9996H15.9157C16.1459 18.9996 16.3324 19.1862 16.3324 19.4163V21.4996H21.7256C22.6136 21.4996 23.2152 20.6428 22.9261 19.8303ZM16.3324 16.9163C16.3324 17.1464 16.1459 17.3329 15.9157 17.3329H15.0824C14.8532 17.3329 14.6657 17.1454 14.6657 16.9163V14.4163C14.6657 14.1871 14.8532 13.9996 15.0824 13.9996H15.9157C16.1449 13.9996 16.3324 14.1871 16.3324 14.4163V16.9163Z" fill="#38CC6D"/>
</g>
<defs>
<clipPath id="clip0_65_503">
<rect width="15" height="13.3333" fill="white" transform="translate(8 9)"/>
</clipPath>
</defs>
</svg>
