<svg width="30" height="31" viewBox="0 0 30 31" fill="none" xmlns="http://www.w3.org/2000/svg">
<rect y="0.5" width="30" height="30" rx="15" fill="#38CC6D" fill-opacity="0.15"/>
<path d="M13.8154 21.3092C13.8154 21.4937 13.8686 21.6737 13.9702 21.8275L14.4724 22.5801C14.6262 22.8108 14.9754 22.9985 15.2529 22.9985H17.0596C17.3361 22.9985 17.6854 22.8109 17.8392 22.5801L18.3396 21.8278C18.4256 21.6977 18.4963 21.4654 18.4963 21.3092L18.5 20.1608H13.8125L13.8154 21.3092ZM16.1387 8.00002C13.1516 8.00918 11 10.4304 11 13.1295C11 14.4297 11.4816 15.6151 12.2762 16.5221C12.7604 17.0741 13.5166 18.2281 13.8061 19.2013C13.807 19.2086 13.8088 19.2164 13.8097 19.2242H18.5031C18.504 19.2164 18.5058 19.2091 18.5067 19.2013C18.796 18.2281 19.5523 17.0741 20.0366 16.5221C20.832 15.6403 21.3125 14.4567 21.3125 13.1295C21.3125 10.3027 18.9951 7.99133 16.1387 8.00002ZM16.1562 10.8124C14.8634 10.8124 13.8125 11.8639 13.8125 13.1298C13.8125 13.4137 13.6016 13.6246 13.3438 13.6246C13.0859 13.6246 12.875 13.4137 12.875 13.1559C12.875 11.3465 14.3472 9.901 16.1562 9.901C16.4154 9.901 16.625 10.1107 16.625 10.3698C16.625 10.6288 16.4141 10.8124 16.1562 10.8124Z" fill="#38CC6D"/>
</svg>
