<svg width="30" height="31" viewBox="0 0 30 31" fill="none" xmlns="http://www.w3.org/2000/svg">
<rect y="0.5" width="30" height="30" rx="15" fill="#38CC6D" fill-opacity="0.15"/>
<path d="M18.8438 8C19.6201 8 20.25 8.62959 20.25 9.40625V21.5938C20.25 22.3701 19.6201 23 18.8438 23H16.0312V20.6562C16.0312 19.8799 15.4014 19.25 14.625 19.25C13.8486 19.25 13.2188 19.8799 13.2188 20.6562V23H10.4062C9.62959 23 9 22.3701 9 21.5938V9.40625C9 8.62959 9.62959 8 10.4062 8H18.8438ZM10.875 15.9688C10.875 16.2266 11.0848 16.4375 11.3438 16.4375H12.2812C12.5391 16.4375 12.75 16.2266 12.75 15.9688V15.0312C12.75 14.7734 12.5391 14.5625 12.2812 14.5625H11.3438C11.0848 14.5625 10.875 14.7734 10.875 15.0312V15.9688ZM14.1562 14.5625C13.8984 14.5625 13.6875 14.7734 13.6875 15.0312V15.9688C13.6875 16.2266 13.8984 16.4375 14.1562 16.4375H15.0938C15.3516 16.4375 15.5625 16.2266 15.5625 15.9688V15.0312C15.5625 14.7734 15.3516 14.5625 15.0938 14.5625H14.1562ZM16.5 15.9688C16.5 16.2266 16.7109 16.4375 16.9688 16.4375H17.9062C18.1641 16.4375 18.375 16.2266 18.375 15.9688V15.0312C18.375 14.7734 18.1641 14.5625 17.9062 14.5625H16.9688C16.7109 14.5625 16.5 14.7734 16.5 15.0312V15.9688ZM11.3438 10.8125C11.0848 10.8125 10.875 11.0234 10.875 11.2812V12.2188C10.875 12.4766 11.0848 12.6875 11.3438 12.6875H12.2812C12.5391 12.6875 12.75 12.4766 12.75 12.2188V11.2812C12.75 11.0234 12.5391 10.8125 12.2812 10.8125H11.3438ZM13.6875 12.2188C13.6875 12.4766 13.8984 12.6875 14.1562 12.6875H15.0938C15.3516 12.6875 15.5625 12.4766 15.5625 12.2188V11.2812C15.5625 11.0234 15.3516 10.8125 15.0938 10.8125H14.1562C13.8984 10.8125 13.6875 11.0234 13.6875 11.2812V12.2188ZM16.9688 10.8125C16.7109 10.8125 16.5 11.0234 16.5 11.2812V12.2188C16.5 12.4766 16.7109 12.6875 16.9688 12.6875H17.9062C18.1641 12.6875 18.375 12.4766 18.375 12.2188V11.2812C18.375 11.0234 18.1641 10.8125 17.9062 10.8125H16.9688Z" fill="#38CC6D"/>
</svg>
