<svg width="30" height="31" viewBox="0 0 30 31" fill="none" xmlns="http://www.w3.org/2000/svg">
<rect y="0.5" width="30" height="30" rx="15" fill="#38CC6D" fill-opacity="0.15"/>
<g clip-path="url(#clip0_65_495)">
<path d="M17.375 17.8438C17.375 18.1027 17.1652 18.3125 16.9062 18.3125H14.0938C13.8348 18.3125 13.625 18.1027 13.625 17.8438V16.4375H8V20.6562C8 21.4062 8.65625 22.0625 9.40625 22.0625H21.5938C22.3438 22.0625 23 21.4062 23 20.6562V16.4375H17.375V17.8438ZM21.5938 11.75H19.25V10.3438C19.25 9.59375 18.5938 8.9375 17.8438 8.9375H13.1562C12.4062 8.9375 11.75 9.59375 11.75 10.3438V11.75H9.40625C8.65625 11.75 8 12.4062 8 13.1562V15.5H23V13.1562C23 12.4062 22.3438 11.75 21.5938 11.75ZM17.375 11.75H13.625V10.8125H17.375V11.75Z" fill="#38CC6D"/>
</g>
<defs>
<clipPath id="clip0_65_495">
<rect width="15" height="15" fill="white" transform="translate(8 8)"/>
</clipPath>
</defs>
</svg>
