<svg width="30" height="31" viewBox="0 0 30 31" fill="none" xmlns="http://www.w3.org/2000/svg">
<rect y="0.5" width="30" height="30" rx="15" fill="#38CC6D" fill-opacity="0.15"/>
<g clip-path="url(#clip0_65_487)">
<path d="M9.12888 9.0007C9.09217 9.0077 9.05911 9.02745 9.03555 9.05646C9.01198 9.08546 8.99942 9.12186 9.00008 9.15923V12.5379C8.99978 12.5589 9.00366 12.5797 9.01149 12.5992C9.01933 12.6187 9.03096 12.6364 9.04571 12.6514C9.06046 12.6664 9.07803 12.6782 9.09742 12.6864C9.1168 12.6945 9.1376 12.6986 9.1586 12.6986C9.17961 12.6986 9.20041 12.6945 9.21979 12.6864C9.23918 12.6782 9.25675 12.6664 9.2715 12.6514C9.28625 12.6364 9.29788 12.6187 9.30572 12.5992C9.31355 12.5797 9.31743 12.5589 9.31713 12.5379V9.31775H12.5422C12.5632 9.31805 12.584 9.31417 12.6035 9.30634C12.623 9.2985 12.6408 9.28687 12.6557 9.27212C12.6707 9.25737 12.6826 9.2398 12.6907 9.22042C12.6988 9.20103 12.703 9.18023 12.703 9.15923C12.703 9.13822 12.6988 9.11742 12.6907 9.09804C12.6826 9.07866 12.6707 9.06108 12.6557 9.04633C12.6408 9.03158 12.623 9.01995 12.6035 9.01212C12.584 9.00428 12.5632 9.0004 12.5422 9.0007H9.1586C9.14872 8.99977 9.13877 8.99977 9.12888 9.0007ZM18.4275 9.0007C18.3855 9.00464 18.3467 9.02512 18.3198 9.05764C18.2928 9.09016 18.2799 9.13204 18.2839 9.17409C18.2878 9.21613 18.3083 9.25489 18.3408 9.28183C18.3733 9.30877 18.4152 9.3217 18.4573 9.31775H21.6823V12.5379C21.682 12.5589 21.6859 12.5797 21.6937 12.5992C21.7016 12.6187 21.7132 12.6364 21.7279 12.6514C21.7427 12.6664 21.7603 12.6782 21.7796 12.6864C21.799 12.6945 21.8198 12.6986 21.8408 12.6986C21.8618 12.6986 21.8826 12.6945 21.902 12.6864C21.9214 12.6782 21.939 12.6664 21.9537 12.6514C21.9685 12.6364 21.9801 12.6187 21.9879 12.5992C21.9958 12.5797 21.9997 12.5589 21.9994 12.5379V9.15923C21.9994 9.11718 21.9827 9.07686 21.9529 9.04713C21.9232 9.01741 21.8829 9.0007 21.8408 9.0007H18.4573C18.4474 8.99977 18.4374 8.99977 18.4275 9.0007ZM9.1586 18.2944C9.13736 18.2944 9.11634 18.2986 9.09677 18.3069C9.07721 18.3152 9.05951 18.3273 9.04473 18.3426C9.02994 18.3578 9.01837 18.3759 9.0107 18.3957C9.00303 18.4155 8.99942 18.4366 9.00008 18.4579V21.8415C9.00008 21.8835 9.01678 21.9238 9.04651 21.9535C9.07624 21.9833 9.11656 22 9.1586 22H12.5422C12.5632 22.0003 12.584 21.9964 12.6035 21.9886C12.623 21.9807 12.6408 21.9691 12.6557 21.9544C12.6707 21.9396 12.6826 21.922 12.6907 21.9026C12.6988 21.8833 12.703 21.8625 12.703 21.8415C12.703 21.8204 12.6988 21.7996 12.6907 21.7803C12.6826 21.7609 12.6707 21.7433 12.6557 21.7286C12.6408 21.7138 12.623 21.7022 12.6035 21.6943C12.584 21.6865 12.5632 21.6826 12.5422 21.6829H9.31713V18.4579C9.31779 18.4366 9.31418 18.4155 9.30651 18.3957C9.29884 18.3759 9.28727 18.3578 9.27248 18.3426C9.2577 18.3273 9.24 18.3152 9.22043 18.3069C9.20087 18.2986 9.17985 18.2944 9.1586 18.2944ZM21.8408 18.2944C21.8196 18.2944 21.7986 18.2986 21.779 18.3069C21.7594 18.3152 21.7417 18.3273 21.727 18.3426C21.7122 18.3578 21.7006 18.3759 21.6929 18.3957C21.6853 18.4155 21.6816 18.4366 21.6823 18.4579V21.6829H18.4573C18.4362 21.6826 18.4154 21.6865 18.3959 21.6943C18.3764 21.7022 18.3587 21.7138 18.3437 21.7286C18.3287 21.7433 18.3169 21.7609 18.3088 21.7803C18.3006 21.7996 18.2965 21.8204 18.2965 21.8415C18.2965 21.8625 18.3006 21.8833 18.3088 21.9026C18.3169 21.922 18.3287 21.9396 18.3437 21.9544C18.3587 21.9691 18.3764 21.9807 18.3959 21.9886C18.4154 21.9964 18.4362 22.0003 18.4573 22H21.8408C21.8829 22 21.9232 21.9833 21.9529 21.9535C21.9827 21.9238 21.9994 21.8835 21.9994 21.8415V18.4579C22 18.4366 21.9964 18.4155 21.9887 18.3957C21.9811 18.3759 21.9695 18.3578 21.9547 18.3426C21.9399 18.3273 21.9222 18.3152 21.9027 18.3069C21.8831 18.2986 21.8621 18.2944 21.8408 18.2944Z" fill="#38CC6D" stroke="#38CC6D" stroke-width="4"/>
</g>
<defs>
<clipPath id="clip0_65_487">
<rect width="13" height="13" fill="white" transform="translate(9 9)"/>
</clipPath>
</defs>
</svg>
