<svg width="30" height="31" viewBox="0 0 30 31" fill="none" xmlns="http://www.w3.org/2000/svg">
<rect y="0.5" width="30" height="30" rx="15" fill="#38CC6D" fill-opacity="0.15"/>
<path fill-rule="evenodd" clip-rule="evenodd" d="M16.3785 13.6748L17.6015 8.98407C17.6197 8.92645 17.6289 8.86521 17.6289 8.80166C17.6289 8.47012 17.3612 8.19922 17.0294 8.19922C16.8411 8.19922 16.6735 8.2844 16.5641 8.42144L10.4588 16.3395C10.3768 16.4429 10.3281 16.5739 10.3281 16.7168C10.3281 17.0513 10.6019 17.3252 10.9365 17.3252H14.6201L13.3974 22.016C13.379 22.0739 13.37 22.1349 13.37 22.1984C13.37 22.5303 13.6378 22.8008 13.9693 22.8008C14.1579 22.8008 14.3252 22.7159 14.4347 22.5786L20.5398 14.6605C20.6221 14.5571 20.6708 14.4264 20.6708 14.2832C20.6708 13.9487 20.3969 13.6748 20.0625 13.6748H16.3785Z" fill="#38CC6D"/>
</svg>
