<svg width="941" height="866" viewBox="0 0 941 866" fill="none" xmlns="http://www.w3.org/2000/svg">
<path d="M0 -62C0 -117.228 44.7715 -162 100 -162H969C1024.23 -162 1069 -117.228 1069 -62V725C1069 780.229 1024.23 825 969 825H100C44.7715 825 0 780.228 0 725V-62Z" fill="url(#paint0_linear_206_15)" fill-opacity="0.1"/>
<g clip-path="url(#clip0_206_15)">
<g opacity="0.5" filter="url(#filter0_f_206_15)">
<path d="M112.131 554.831C92.7887 554.831 74.5683 550.469 60.8095 542.518C46.7517 534.393 38.9999 523.525 38.9999 511.885C38.9999 500.345 46.6021 489.552 60.4855 481.476C74.1695 473.525 92.34 469.138 111.682 469.138C131.024 469.138 149.244 473.5 163.003 481.451C177.061 489.577 184.813 500.444 184.838 512.059C184.838 523.6 177.211 534.393 163.352 542.468C149.668 550.419 131.498 554.781 112.156 554.781L112.131 554.831ZM111.657 472.005C92.8136 472.005 75.1166 476.242 61.8813 483.944C48.9202 491.471 41.7916 501.391 41.8165 511.91C41.8165 522.503 49.0697 532.498 62.2054 540.075C75.5404 547.777 93.2872 552.015 112.131 552.015C130.974 552.015 148.671 547.777 161.906 540.075C174.868 532.548 182.021 522.603 181.996 512.109C181.996 501.541 174.718 491.521 161.582 483.944C148.247 476.242 130.526 472.005 111.657 472.005Z" fill="#F55F6A"/>
<path d="M608.293 796.482C588.951 796.482 570.73 792.12 556.972 784.169C542.914 776.068 535.187 765.175 535.162 753.56C535.162 742.02 542.764 731.202 556.648 723.151C570.332 715.2 588.502 710.813 607.844 710.813C627.186 710.813 645.406 715.175 659.19 723.127C673.248 731.252 681 742.12 681.025 753.735C681.025 765.275 673.398 776.068 659.539 784.144C645.855 792.095 627.685 796.457 608.343 796.457L608.293 796.482ZM607.819 713.655C588.976 713.655 571.279 717.892 558.043 725.594C545.082 733.122 537.954 743.042 537.979 753.56C537.979 764.153 545.232 774.149 558.367 781.751C571.702 789.453 589.449 793.69 608.293 793.69C627.136 793.69 644.833 789.453 658.068 781.751C671.03 774.223 678.183 764.278 678.158 753.785C678.158 743.216 670.88 733.196 657.744 725.619C644.409 717.917 626.688 713.68 607.819 713.68V713.655Z" fill="#F55F6A"/>
<path d="M551.289 728.71L549.295 729.857L492.216 696.905L494.21 695.759L551.289 728.71Z" fill="#F55F6A"/>
<path d="M545.156 635.564L334.837 514.129C319.957 505.554 295.854 505.529 281.073 514.129L107.693 614.876C92.9123 623.476 92.9871 637.434 107.867 646.033L318.187 767.469C333.067 776.043 357.17 776.043 371.951 767.469L545.306 666.721C560.111 658.122 560.012 644.164 545.131 635.564H545.156ZM543.337 665.55L369.982 766.297C356.298 774.249 333.965 774.249 320.181 766.297L109.862 644.862C96.0779 636.91 96.0031 623.974 109.712 616.023L283.067 515.275C296.751 507.324 319.084 507.324 332.868 515.275L543.187 636.711C556.971 644.662 557.046 657.598 543.337 665.55Z" fill="#F55F6A"/>
</g>
<path d="M112.131 554.831C92.7887 554.831 74.5683 550.469 60.8095 542.518C46.7517 534.393 38.9999 523.525 38.9999 511.885C38.9999 500.345 46.6021 489.552 60.4855 481.476C74.1695 473.525 92.34 469.138 111.682 469.138C131.024 469.138 149.244 473.5 163.003 481.451C177.061 489.577 184.813 500.444 184.838 512.059C184.838 523.6 177.211 534.393 163.352 542.468C149.668 550.419 131.498 554.781 112.156 554.781L112.131 554.831ZM111.657 472.005C92.8136 472.005 75.1166 476.242 61.8813 483.944C48.9202 491.471 41.7916 501.391 41.8165 511.91C41.8165 522.503 49.0697 532.498 62.2054 540.075C75.5404 547.777 93.2872 552.015 112.131 552.015C130.974 552.015 148.671 547.777 161.906 540.075C174.868 532.548 182.021 522.603 181.996 512.109C181.996 501.541 174.718 491.521 161.582 483.944C148.247 476.242 130.526 472.005 111.657 472.005Z" fill="#F55F6A"/>
<path d="M608.293 796.482C588.951 796.482 570.73 792.12 556.972 784.169C542.914 776.068 535.187 765.175 535.162 753.56C535.162 742.02 542.764 731.202 556.648 723.151C570.332 715.2 588.502 710.813 607.844 710.813C627.186 710.813 645.406 715.175 659.19 723.127C673.248 731.252 681 742.12 681.025 753.735C681.025 765.275 673.398 776.068 659.539 784.144C645.855 792.095 627.685 796.457 608.343 796.457L608.293 796.482ZM607.819 713.655C588.976 713.655 571.279 717.892 558.043 725.594C545.082 733.122 537.954 743.042 537.979 753.56C537.979 764.153 545.232 774.149 558.367 781.751C571.702 789.453 589.449 793.69 608.293 793.69C627.136 793.69 644.833 789.453 658.068 781.751C671.03 774.223 678.183 764.278 678.158 753.785C678.158 743.216 670.88 733.196 657.744 725.619C644.409 717.917 626.688 713.68 607.819 713.68V713.655Z" fill="#F55F6A"/>
<path d="M551.289 728.71L549.295 729.857L492.216 696.905L494.21 695.759L551.289 728.71Z" fill="#F55F6A"/>
<path d="M545.156 635.564L334.837 514.129C319.957 505.554 295.854 505.529 281.073 514.129L107.693 614.876C92.9123 623.476 92.9871 637.434 107.867 646.033L318.187 767.469C333.067 776.043 357.17 776.043 371.951 767.469L545.306 666.721C560.111 658.122 560.012 644.164 545.131 635.564H545.156ZM543.337 665.55L369.982 766.297C356.298 774.249 333.965 774.249 320.181 766.297L109.862 644.862C96.0779 636.91 96.0031 623.974 109.712 616.023L283.067 515.275C296.751 507.324 319.084 507.324 332.868 515.275L543.187 636.711C556.971 644.662 557.046 657.598 543.337 665.55Z" fill="#F55F6A"/>
<path d="M176.787 476.167V502.388C176.762 511.561 170.73 520.733 158.667 527.762C134.389 541.87 94.9327 541.87 70.481 527.762C58.1929 520.658 52.0613 511.336 52.0862 502.039V475.818C52.0613 485.115 58.1929 494.437 70.481 501.541C94.9327 515.648 134.389 515.648 158.667 501.541C170.73 494.537 176.762 485.364 176.787 476.192V476.167Z" fill="url(#paint1_linear_206_15)"/>
<path d="M158.367 451.715C182.819 465.823 182.944 488.679 158.666 502.787C134.414 516.895 94.9325 516.895 70.4808 502.787C46.0541 488.679 45.9294 465.798 70.1817 451.715C94.4589 437.607 133.941 437.607 158.367 451.715Z" fill="white"/>
<path d="M158.367 450.444C182.819 464.552 182.944 487.408 158.666 501.516C134.414 515.624 94.9325 515.624 70.4808 501.516C46.0541 487.408 45.9294 464.527 70.1817 450.444C94.4589 436.336 133.941 436.336 158.367 450.444Z" fill="url(#paint2_linear_206_15)"/>
<g style="mix-blend-mode:multiply">
<path d="M158.368 450.444C146.703 443.714 131.598 440.224 116.344 439.925L79.3047 491.919L118.761 511.984C133.293 511.436 147.575 507.971 158.642 501.516C182.919 487.408 182.794 464.551 158.343 450.444H158.368Z" fill="#E3EDF4"/>
</g>
<path d="M164.25 450.718V471.68C164.25 479.008 159.415 486.336 149.769 491.944C130.377 503.211 98.8463 503.211 79.3049 491.944C69.4844 486.286 64.5741 478.834 64.599 471.381V450.419C64.5741 457.847 69.4844 465.299 79.3049 470.982C98.8463 482.249 130.377 482.249 149.769 470.982C159.415 465.374 164.25 458.046 164.25 450.718Z" fill="url(#paint3_linear_206_15)"/>
<path d="M149.544 431.177C169.061 442.443 169.185 460.713 149.769 472.004C130.377 483.271 98.8463 483.271 79.3049 472.004C59.7884 460.738 59.6887 442.468 79.0806 431.202C98.4974 419.911 130.028 419.935 149.544 431.202V431.177Z" fill="#39D8FB"/>
<path d="M149.544 430.155C169.061 441.421 169.185 459.691 149.769 470.982C130.377 482.249 98.8463 482.249 79.3049 470.982C59.7884 459.716 59.6887 441.421 79.0806 430.155C98.4974 418.864 130.028 418.889 149.544 430.155Z" fill="url(#paint4_linear_206_15)"/>
<path d="M176.787 421.88V448.101C176.762 457.274 170.73 466.446 158.667 473.45C134.389 487.558 94.9327 487.558 70.481 473.45C58.1929 466.346 52.0613 457.024 52.0862 447.727V421.506C52.0613 430.803 58.1929 440.125 70.481 447.229C94.9327 461.336 134.389 461.336 158.667 447.229C170.73 440.225 176.762 431.052 176.787 421.855V421.88Z" fill="url(#paint5_linear_206_15)"/>
<path d="M158.367 397.428C182.819 411.536 182.944 434.392 158.666 448.5C134.414 462.607 94.9325 462.607 70.4808 448.5C46.0541 434.392 45.9294 411.511 70.1817 397.428C94.4589 383.32 133.941 383.32 158.367 397.428Z" fill="white"/>
<path d="M158.367 396.157C182.819 410.265 182.944 433.121 158.666 447.229C134.414 461.337 94.9325 461.337 70.4808 447.229C46.0541 433.121 45.9294 410.24 70.1817 396.157C94.4589 382.049 133.941 382.049 158.367 396.157Z" fill="url(#paint6_linear_206_15)"/>
<g style="mix-blend-mode:multiply">
<path d="M158.368 396.157C146.703 389.427 131.598 385.938 116.344 385.639L79.3047 437.658L118.761 457.698C133.293 457.149 147.575 453.685 158.642 447.229C182.919 433.121 182.794 410.265 158.343 396.157H158.368Z" fill="#E3EDF4"/>
</g>
<path d="M164.25 396.431V417.393C164.25 424.746 159.415 432.049 149.769 437.657C130.377 448.924 98.8463 448.924 79.3049 437.657C69.4844 431.974 64.5741 424.547 64.599 417.094V396.132C64.5741 403.56 69.4844 411.012 79.3049 416.695C98.8463 427.961 130.377 427.961 149.769 416.695C159.415 411.087 164.25 403.759 164.25 396.431Z" fill="url(#paint7_linear_206_15)"/>
<path d="M149.544 376.89C169.061 388.181 169.185 406.427 149.769 417.718C130.377 428.984 98.8463 428.984 79.3049 417.718C59.7884 406.452 59.6887 388.181 79.0806 376.89C98.4974 365.599 130.028 365.624 149.544 376.89Z" fill="#39D8FB"/>
<path d="M149.544 375.868C169.061 387.134 169.185 405.404 149.769 416.695C130.377 427.962 98.8463 427.962 79.3049 416.695C59.7884 405.429 59.6887 387.134 79.0806 375.868C98.4974 364.577 130.028 364.601 149.544 375.868Z" fill="url(#paint8_linear_206_15)"/>
<path d="M176.787 367.592V393.813C176.762 402.986 170.73 412.158 158.667 419.162C134.389 433.27 94.9327 433.27 70.481 419.162C58.1929 412.058 52.0613 402.736 52.0862 393.439V367.218C52.0613 376.515 58.1929 385.837 70.481 392.941C94.9327 407.048 134.389 407.048 158.667 392.941C170.73 385.937 176.762 376.764 176.787 367.567V367.592Z" fill="url(#paint9_linear_206_15)"/>
<path d="M158.367 343.14C182.819 357.248 182.944 380.105 158.666 394.212C134.414 408.32 94.9325 408.32 70.4808 394.212C46.0541 380.105 45.9294 357.248 70.1817 343.14C94.4589 329.033 133.941 329.033 158.367 343.14Z" fill="white"/>
<path d="M158.367 341.869C182.819 355.977 182.944 378.834 158.666 392.941C134.414 407.049 94.9325 407.049 70.4808 392.941C46.0541 378.834 45.9294 355.952 70.1817 341.869C94.4589 327.762 133.941 327.762 158.367 341.869Z" fill="url(#paint10_linear_206_15)"/>
<g style="mix-blend-mode:multiply">
<path d="M158.368 341.87C146.703 335.14 131.598 331.65 116.344 331.351L79.3047 383.37L118.761 403.435C133.293 402.887 147.575 399.397 158.642 392.966C182.919 378.859 182.794 356.002 158.343 341.894L158.368 341.87Z" fill="#E3EDF4"/>
</g>
<path d="M164.25 342.144V363.106C164.25 370.459 159.415 377.762 149.769 383.37C130.377 394.636 98.8463 394.636 79.3049 383.37C69.4844 377.687 64.5741 370.26 64.599 362.807V341.845C64.5741 349.272 69.4844 356.725 79.3049 362.408C98.8463 373.674 130.377 373.674 149.769 362.408C159.415 356.8 164.25 349.472 164.25 342.144Z" fill="url(#paint11_linear_206_15)"/>
<path d="M149.544 322.603C169.061 333.869 169.185 352.139 149.769 363.431C130.377 374.697 98.8463 374.697 79.3049 363.431C59.7884 352.164 59.6887 333.894 79.0806 322.603C98.4974 311.337 130.028 311.337 149.544 322.603Z" fill="#39D8FB"/>
<path d="M149.544 321.581C169.061 332.847 169.185 351.117 149.769 362.408C130.377 373.674 98.8463 373.674 79.3049 362.408C59.7884 351.142 59.6887 332.872 79.0806 321.581C98.4974 310.314 130.028 310.314 149.544 321.581Z" fill="url(#paint12_linear_206_15)"/>
<path d="M176.787 313.48V339.726C176.762 348.899 170.731 358.071 158.667 365.075C134.389 379.183 94.9328 379.183 70.4811 365.075C58.1929 357.971 52.0613 348.649 52.0863 339.352V313.131C52.0613 322.428 58.1929 331.75 70.4811 338.854C94.9328 352.961 134.389 352.961 158.667 338.854C170.731 331.85 176.762 322.677 176.787 313.48Z" fill="url(#paint13_linear_206_15)"/>
<path d="M158.367 289.053C182.819 303.161 182.944 326.017 158.666 340.125C134.414 354.232 94.9325 354.232 70.4808 340.125C46.0541 326.017 45.9294 303.161 70.1817 289.053C94.4589 274.945 133.941 274.945 158.367 289.053Z" fill="white"/>
<path d="M158.367 287.757C182.819 301.864 182.944 324.721 158.666 338.828C134.414 352.936 94.9325 352.936 70.4808 338.828C46.0541 324.721 45.9294 301.839 70.1817 287.757C94.4589 273.649 133.941 273.649 158.367 287.757Z" fill="url(#paint14_linear_206_15)"/>
<path d="M114.624 335.314C100.417 335.314 86.6831 332.099 76.9374 326.466C69.3601 322.079 64.9982 316.795 64.9982 311.984C64.9982 307.223 69.2604 302.039 76.6881 297.702C86.3342 292.094 100.043 288.878 114.226 288.878C128.408 288.878 142.167 292.094 151.913 297.727C159.515 302.114 163.877 307.398 163.877 312.208C163.877 316.944 159.614 322.154 152.162 326.491C142.516 332.099 128.807 335.314 114.624 335.314Z" fill="white"/>
<path d="M114.624 335.714C100.417 335.714 86.6831 332.498 76.9374 326.865C69.3601 322.478 64.9982 317.219 64.9982 312.384C64.9982 307.623 69.2604 302.438 76.6881 298.101C86.3342 292.493 100.043 289.278 114.226 289.278C128.408 289.278 142.167 292.518 151.913 298.126C159.515 302.513 163.877 307.797 163.877 312.608C163.877 317.344 159.614 322.553 152.162 326.89C142.516 332.498 128.807 335.714 114.624 335.714Z" fill="url(#paint15_linear_206_15)"/>
<path d="M76.6627 304.432C86.3087 298.824 100.018 295.609 114.2 295.609C128.383 295.609 142.141 298.824 151.887 304.457C157.844 307.897 161.782 311.91 163.228 315.773C163.627 314.702 163.851 313.655 163.851 312.608C163.851 307.797 159.489 302.513 151.887 298.126C142.141 292.518 128.407 289.278 114.2 289.278C99.9927 289.278 86.3087 292.493 76.6627 298.101C69.2349 302.413 64.9478 307.623 64.9727 312.384C64.9727 313.406 65.222 314.477 65.5958 315.524C67.0166 311.711 70.8551 307.797 76.6627 304.432Z" fill="#2485FF"/>
<g style="mix-blend-mode:screen" opacity="0.5">
<path d="M163.877 311.865C163.877 307.055 159.515 301.77 151.913 297.384C142.167 291.751 128.433 288.535 114.226 288.535C100.018 288.535 86.3343 291.751 76.6882 297.359C69.2605 301.696 64.9734 306.88 64.9983 311.641V312.383C64.9983 317.194 69.3602 322.478 76.9375 326.865C86.6833 332.498 100.417 335.713 114.624 335.713C128.832 335.713 142.516 332.498 152.162 326.889C159.615 322.552 163.877 317.343 163.877 312.607V311.865Z" fill="url(#paint16_linear_206_15)"/>
</g>
<path d="M122.774 403.285V632.822L182.346 667.418L182.321 437.906L122.774 403.285Z" fill="url(#paint17_linear_206_15)"/>
<path opacity="0.5" d="M146.104 521.494C146.104 520.56 145.607 519.697 144.799 519.23L140.859 516.949C139.115 515.94 136.932 517.199 136.933 519.214L136.956 620.627C136.957 621.557 137.451 622.417 138.255 622.886L142.171 625.17C143.915 626.186 146.104 624.929 146.104 622.91V521.494Z" fill="#3E80E2"/>
<path d="M157.122 492.653C157.122 491.721 156.626 490.859 155.82 490.391L151.903 488.118C150.16 487.106 147.975 488.364 147.975 490.38V626.852C147.975 627.786 148.472 628.649 149.28 629.116L153.22 631.397C154.964 632.406 157.147 631.148 157.146 629.132L157.122 492.653Z" fill="#3E80E2"/>
<path opacity="0.2" d="M168.173 533.817C168.173 532.883 167.675 532.021 166.867 531.553L162.927 529.273C161.183 528.263 159.001 529.522 159.001 531.537L159.025 632.95C159.025 633.88 159.519 634.74 160.323 635.209L164.239 637.493C165.983 638.51 168.173 637.252 168.173 635.233V533.817Z" fill="#3E80E2"/>
<path d="M182.322 437.906L182.346 667.418L378.159 554.382L378.134 324.845L182.322 437.906Z" fill="url(#paint18_linear_206_15)"/>
<path d="M182.321 441.196L378.134 328.135L378.159 554.382L378.134 324.845L182.321 437.906L122.774 403.285V406.575L182.321 441.196Z" fill="url(#paint19_linear_206_15)"/>
<path d="M122.775 403.285L182.321 437.906L378.134 324.845L318.587 290.249L122.775 403.285Z" fill="url(#paint20_linear_206_15)"/>
<path d="M200.865 403.311V678.186L260.412 712.808V437.907L200.865 403.311Z" fill="url(#paint21_linear_206_15)"/>
<path d="M207.195 514.776V657.324L254.08 684.542V542.02L207.195 514.776Z" fill="white"/>
<path d="M207.195 515.399V657.922L254.08 685.165V542.643L207.195 515.399Z" fill="white"/>
<path d="M214.325 605.928C215.172 606.427 215.87 605.953 215.87 604.906C215.87 603.834 215.172 602.588 214.325 602.09C213.477 601.591 212.779 602.065 212.779 603.112C212.779 604.183 213.477 605.43 214.325 605.928Z" fill="#3E80E2"/>
<path d="M214.325 609.019C213.477 608.52 212.779 608.994 212.779 610.041C212.779 611.113 213.477 612.359 214.325 612.857C215.172 613.356 215.87 612.882 215.87 611.835C215.87 610.764 215.172 609.517 214.325 609.019Z" fill="#3E80E2"/>
<path d="M214.301 615.973C213.453 615.474 212.755 615.948 212.755 616.995C212.755 618.067 213.453 619.313 214.301 619.811C215.148 620.31 215.846 619.836 215.846 618.79C215.846 617.718 215.173 616.471 214.301 615.973Z" fill="#3E80E2"/>
<path d="M214.275 622.927C213.428 622.429 212.73 622.902 212.73 623.949C212.73 625.021 213.428 626.267 214.275 626.766C215.122 627.264 215.82 626.791 215.82 625.744C215.82 624.672 215.122 623.426 214.275 622.927Z" fill="#3E80E2"/>
<path d="M214.251 629.882C213.403 629.383 212.705 629.857 212.705 630.904C212.705 631.975 213.403 633.222 214.251 633.72C215.098 634.219 215.796 633.745 215.796 632.673C215.796 631.602 215.098 630.355 214.251 629.857V629.882Z" fill="#3E80E2"/>
<path d="M214.251 636.835C213.403 636.337 212.705 636.81 212.705 637.857C212.705 638.929 213.403 640.175 214.251 640.674C215.098 641.172 215.796 640.699 215.796 639.652C215.796 638.58 215.098 637.334 214.251 636.835Z" fill="#3E80E2"/>
<path d="M219.36 607.698L245.731 622.927C246.105 623.152 246.429 622.977 246.429 622.554C246.429 622.105 246.13 621.582 245.756 621.382L219.385 606.153C219.012 605.928 218.688 606.103 218.688 606.552C218.688 607 218.987 607.499 219.36 607.723V607.698Z" fill="#DEDEDE"/>
<path d="M245.73 628.312L219.359 613.082C218.985 612.858 218.661 613.058 218.661 613.481C218.661 613.905 218.96 614.428 219.334 614.653L245.705 629.882C246.079 630.106 246.403 629.932 246.403 629.508C246.403 629.084 246.104 628.536 245.73 628.312Z" fill="#DEDEDE"/>
<path d="M245.682 642.22L219.311 626.99C218.937 626.766 218.638 626.94 218.638 627.364C218.638 627.813 218.937 628.336 219.311 628.561L245.682 643.79C246.055 644.014 246.38 643.84 246.38 643.391C246.38 642.967 246.08 642.444 245.707 642.22H245.682Z" fill="#DEDEDE"/>
<path d="M245.68 649.173L219.309 633.944C218.935 633.72 218.611 633.894 218.611 634.318C218.611 634.767 218.91 635.29 219.284 635.489L245.655 650.719C246.029 650.943 246.353 650.769 246.353 650.32C246.353 649.896 246.054 649.348 245.68 649.148V649.173Z" fill="#DEDEDE"/>
<path d="M245.707 635.265L219.336 620.036C218.962 619.812 218.638 619.986 218.638 620.435C218.638 620.859 218.937 621.407 219.311 621.606L245.682 636.836C246.055 637.06 246.38 636.886 246.38 636.437C246.38 635.988 246.08 635.465 245.707 635.265Z" fill="#DEDEDE"/>
<path d="M245.656 656.103L219.285 640.874C218.911 640.65 218.612 640.824 218.587 641.273C218.587 641.697 218.886 642.22 219.26 642.444L245.631 657.674C246.005 657.898 246.329 657.723 246.329 657.3C246.329 656.876 246.03 656.328 245.656 656.128V656.103Z" fill="#DEDEDE"/>
<g opacity="0.5" filter="url(#filter1_f_206_15)">
<path d="M230.626 572.952C231.324 573.351 231.872 573.027 231.872 572.254L231.922 554.906C231.922 554.133 231.373 553.186 230.675 552.787C229.978 552.389 229.454 552.713 229.454 553.485L229.404 570.833C229.404 571.606 229.928 572.553 230.626 572.952Z" fill="#F55F6A"/>
<path d="M235.511 560.439C235.337 560.265 235.187 560.115 235.012 560.041C234.539 559.766 234.09 559.816 233.891 560.24C233.592 560.788 233.891 561.785 234.514 562.483C237.854 566.097 240.147 571.257 240.147 575.694C240.147 578.685 239.05 580.778 237.355 581.8C235.636 582.772 233.268 582.623 230.651 581.102C228.033 579.582 225.666 577.015 223.971 574.073C222.251 571.082 221.204 567.767 221.204 564.776C221.204 560.34 223.572 557.872 226.887 558.096C227.51 558.121 227.809 557.448 227.51 556.551C227.311 555.903 226.862 555.355 226.388 555.08C226.214 554.981 226.039 554.931 225.89 554.906C221.702 554.607 218.736 557.723 218.736 563.356C218.711 570.933 224.07 580.18 230.651 583.994C237.256 587.807 242.615 584.717 242.64 577.164C242.64 571.531 239.723 565.026 235.561 560.489L235.511 560.439Z" fill="#F55F6A"/>
</g>
<path d="M230.626 572.952C231.324 573.351 231.872 573.027 231.872 572.254L231.922 554.906C231.922 554.133 231.373 553.186 230.675 552.787C229.978 552.389 229.454 552.713 229.454 553.485L229.404 570.833C229.404 571.606 229.928 572.553 230.626 572.952Z" fill="#F55F6A"/>
<path d="M235.511 560.439C235.337 560.265 235.187 560.115 235.012 560.041C234.539 559.766 234.09 559.816 233.891 560.24C233.592 560.788 233.891 561.785 234.514 562.483C237.854 566.097 240.147 571.257 240.147 575.694C240.147 578.685 239.05 580.778 237.355 581.8C235.636 582.772 233.268 582.623 230.651 581.102C228.033 579.582 225.666 577.015 223.971 574.073C222.251 571.082 221.204 567.767 221.204 564.776C221.204 560.34 223.572 557.872 226.887 558.096C227.51 558.121 227.809 557.448 227.51 556.551C227.311 555.903 226.862 555.355 226.388 555.08C226.214 554.981 226.039 554.931 225.89 554.906C221.702 554.607 218.736 557.723 218.736 563.356C218.711 570.933 224.07 580.18 230.651 583.994C237.256 587.807 242.615 584.717 242.64 577.164C242.64 571.531 239.723 565.026 235.561 560.489L235.511 560.439Z" fill="#F55F6A"/>
<path d="M208.267 657.224L208.242 515.998L207.195 515.399V657.922L254.08 685.165V683.844L208.267 657.224Z" fill="#7DA8ED"/>
<path d="M260.411 437.907V712.807L456.249 599.746L456.224 324.846L260.411 437.907Z" fill="url(#paint22_linear_206_15)"/>
<path d="M260.412 441.197L456.225 328.136L456.25 599.746L456.225 324.846L260.412 437.907L200.865 403.31V406.576L260.412 441.197Z" fill="white"/>
<path d="M200.865 403.31L260.412 437.907L456.225 324.846L396.678 290.25L200.865 403.31Z" fill="url(#paint23_linear_206_15)"/>
<path d="M278.931 494.039L278.956 723.575L338.502 758.172L338.477 528.66L278.931 494.039Z" fill="url(#paint24_linear_206_15)"/>
<path opacity="0.5" d="M302.261 614.786C302.261 613.854 301.766 612.993 300.96 612.525L297.02 610.234C295.276 609.219 293.089 610.478 293.09 612.495L293.113 713.919C293.113 714.851 293.61 715.713 294.416 716.181L298.332 718.454C300.076 719.466 302.261 718.208 302.261 716.192V614.786Z" fill="#3E80E2"/>
<path d="M313.28 585.924C313.279 584.992 312.783 584.13 311.977 583.662L308.06 581.389C306.317 580.377 304.132 581.635 304.132 583.651V720.127C304.132 721.058 304.627 721.92 305.433 722.388L309.373 724.679C311.117 725.693 313.304 724.435 313.303 722.418L313.28 585.924Z" fill="#3E80E2"/>
<path opacity="0.2" d="M324.319 688.219C324.319 687.289 323.825 686.428 323.021 685.96L319.105 683.676C317.361 682.659 315.172 683.917 315.172 685.936L315.172 726.356C315.172 727.288 315.668 728.15 316.475 728.618L320.391 730.891C322.134 731.903 324.319 730.645 324.319 728.629L324.319 688.219Z" fill="#3E80E2"/>
<path d="M338.478 528.66L338.502 758.171L534.315 645.11L534.29 415.599L338.478 528.66Z" fill="url(#paint25_linear_206_15)"/>
<path d="M358.318 623.825L358.343 728.785L521.155 634.767L521.13 529.832L358.318 623.825Z" fill="white"/>
<path d="M358.318 624.348L358.343 729.308L521.155 635.315L521.13 530.354L358.318 624.348Z" fill="white"/>
<path d="M521.129 530.354L518.836 531.676L518.861 634.243L358.343 726.915V729.308L521.154 635.315L521.129 530.354Z" fill="#7DA8ED"/>
<path d="M338.477 531.95L534.29 418.889L534.315 645.11L534.29 415.599L338.477 528.66L278.931 494.038V497.329L338.477 531.95Z" fill="white"/>
<path d="M278.931 494.039L338.477 528.66L534.29 415.599L474.744 381.002L278.931 494.039Z" fill="url(#paint26_linear_206_15)"/>
<path d="M469.56 576.192L368.338 634.617V637.782L469.56 579.333V576.192Z" fill="#DEDEDE"/>
<path d="M368.437 672.902V676.043L445.207 631.726L445.182 628.585L368.437 672.902Z" fill="#DEDEDE"/>
<path d="M445.182 620.933L368.412 665.25L368.437 668.39L445.182 624.073V620.933Z" fill="#DEDEDE"/>
<path d="M445.107 597.977L368.362 642.294V645.434L445.107 601.117V597.977Z" fill="#DEDEDE"/>
<path d="M445.157 613.28L368.388 657.572L368.413 660.738L445.157 616.421V613.28Z" fill="#DEDEDE"/>
<path d="M445.132 605.629L368.362 649.946L368.387 653.087L445.132 608.77V605.629Z" fill="#DEDEDE"/>
<path d="M499.894 616.82C497.302 618.316 496.055 621.531 494.859 624.622C493.762 627.488 492.715 630.155 490.671 631.352C488.628 632.523 487.581 631.053 486.459 629.482C485.263 627.787 483.991 626.018 481.399 627.513C478.807 629.009 477.561 632.224 476.364 635.315C475.243 638.156 474.196 640.873 472.177 642.02C470.133 643.191 469.086 641.721 467.965 640.15C466.743 638.455 465.497 636.686 462.905 638.181C460.312 639.677 459.066 642.892 457.87 645.983C456.748 648.824 455.726 651.516 453.682 652.713C451.663 653.859 450.592 652.389 449.47 650.843C448.249 649.148 447.002 647.379 444.41 648.874C441.818 650.37 440.572 653.585 439.375 656.676C438.279 659.542 437.232 662.209 435.188 663.406C433.169 664.577 432.097 663.107 431 661.511C429.779 659.816 428.533 658.047 425.941 659.542C423.323 661.038 422.102 664.253 420.906 667.344C419.809 670.21 418.737 672.902 416.718 674.074C414.699 675.245 413.627 673.75 412.506 672.204C411.284 670.509 410.038 668.74 407.446 670.235C404.854 671.731 403.632 674.921 402.411 678.037C401.314 680.878 400.267 683.57 398.249 684.742C396.205 685.913 395.158 684.443 394.036 682.872C392.815 681.177 391.569 679.408 388.976 680.903C386.384 682.399 385.163 685.589 383.941 688.705C382.845 691.546 381.798 694.263 379.779 695.41C377.735 696.581 376.688 695.086 375.567 693.54C374.345 691.845 373.099 690.076 370.507 691.571V692.718C372.526 691.546 373.597 693.017 374.719 694.612C375.94 696.307 377.187 698.077 379.779 696.581C382.371 695.086 383.617 691.87 384.814 688.78C385.911 685.913 386.957 683.221 388.976 682.05C390.995 680.878 392.067 682.349 393.189 683.944C394.41 685.639 395.656 687.409 398.249 685.913C400.841 684.418 402.062 681.227 403.283 678.112C404.38 675.245 405.427 672.553 407.446 671.382C409.49 670.21 410.537 671.681 411.658 673.276C412.88 674.971 414.101 676.741 416.718 675.245C419.31 673.75 420.557 670.534 421.753 667.444C422.85 664.577 423.897 661.885 425.916 660.714C427.935 659.542 429.006 661.038 430.103 662.633C431.324 664.328 432.571 666.098 435.163 664.602C437.78 663.082 439.001 659.891 440.198 656.8C441.294 653.934 442.366 651.217 444.385 650.071C446.429 648.899 447.476 650.37 448.598 651.965C449.819 653.66 451.065 655.43 453.657 653.934C456.275 652.439 457.496 649.223 458.692 646.157C459.789 643.291 460.861 640.574 462.88 639.428C464.899 638.281 465.97 639.752 467.092 641.322C468.313 643.017 469.56 644.786 472.152 643.291C474.744 641.795 475.99 638.58 477.187 635.489C478.308 632.623 479.355 629.906 481.374 628.759C483.418 627.588 484.465 629.059 485.587 630.654C486.808 632.349 488.054 634.118 490.671 632.598C493.289 631.102 494.51 627.887 495.706 624.796C496.828 621.93 497.875 619.213 499.894 618.067V616.92V616.82Z" fill="#4388EE"/>
<path d="M491.718 573.326C482.795 578.909 475.616 591.122 474.993 601.666L491.768 592.593L491.718 573.326Z" fill="#3E80E2"/>
<path d="M474.943 603.411C475.068 614.428 482.944 618.84 492.591 613.256C497.95 610.166 502.735 604.632 505.926 598.451L492.267 594.064L474.943 603.411Z" fill="#F55F6A"/>
<path d="M493.214 572.453L493.264 592.194L506.823 596.556C508.892 592.044 510.113 587.284 510.113 582.872C510.088 572.005 502.586 567.468 493.214 572.428V572.453Z" fill="#FCAA17"/>
<path style="mix-blend-mode:overlay" opacity="0.4" d="M422 690.345L518.358 634.725L518.334 532L454.859 568.665L422 690.345Z" fill="url(#paint27_linear_206_15)"/>
<path d="M672.949 717.817V744.039C672.924 753.211 666.892 762.384 654.828 769.413C630.551 783.52 591.094 783.52 566.643 769.413C554.355 762.309 548.223 752.987 548.248 743.69V717.468C548.223 726.765 554.355 736.087 566.643 743.191C591.094 757.299 630.551 757.299 654.828 743.191C666.892 736.187 672.924 727.015 672.949 717.842V717.817Z" fill="url(#paint28_linear_206_15)"/>
<path d="M654.529 693.39C678.981 707.498 679.105 730.354 654.828 744.462C630.576 758.57 591.094 758.57 566.642 744.462C542.216 730.354 542.091 707.473 566.343 693.39C590.621 679.283 630.102 679.283 654.529 693.39Z" fill="white"/>
<path d="M654.529 692.119C678.981 706.227 679.105 729.084 654.828 743.191C630.576 757.299 591.094 757.299 566.643 743.191C542.216 729.084 542.091 706.202 566.343 692.119C590.621 678.012 630.102 678.012 654.529 692.119Z" fill="url(#paint29_linear_206_15)"/>
<g style="mix-blend-mode:multiply">
<path d="M654.529 692.119C642.863 685.389 627.759 681.9 612.505 681.601L575.466 733.62L614.922 753.684C629.479 753.136 643.736 749.671 654.803 743.216C679.08 729.108 678.955 706.252 654.504 692.144L654.529 692.119Z" fill="#E3EDF4"/>
</g>
<path d="M660.412 692.369V713.331C660.412 720.684 655.576 727.987 645.93 733.595C626.538 744.862 595.008 744.862 575.466 733.595C565.646 727.912 560.735 720.485 560.76 713.032V692.07C560.735 699.498 565.646 706.95 575.466 712.633C595.008 723.899 626.538 723.899 645.93 712.633C655.576 707.025 660.387 699.697 660.412 692.369Z" fill="url(#paint30_linear_206_15)"/>
<path d="M645.705 672.827C665.221 684.118 665.321 702.364 645.929 713.655C626.537 724.921 595.007 724.921 575.465 713.655C555.949 702.389 555.849 684.118 575.241 672.852C594.658 661.561 626.188 661.586 645.705 672.852V672.827Z" fill="#39D8FB"/>
<path d="M645.705 671.83C665.221 683.096 665.321 701.367 645.929 712.658C626.537 723.924 595.007 723.924 575.465 712.658C555.949 701.391 555.849 683.096 575.241 671.83C594.658 660.539 626.188 660.564 645.705 671.83Z" fill="url(#paint31_linear_206_15)"/>
<path d="M672.949 663.53V689.752C672.924 698.924 666.892 708.096 654.828 715.1C630.551 729.208 591.094 729.208 566.643 715.1C554.355 707.997 548.223 698.7 548.248 689.378V663.156C548.223 672.453 554.355 681.775 566.643 688.879C591.094 702.987 630.551 702.962 654.828 688.879C666.892 681.875 672.924 672.703 672.949 663.505V663.53Z" fill="url(#paint32_linear_206_15)"/>
<path d="M654.529 639.103C678.981 653.21 679.105 676.067 654.828 690.175C630.576 704.282 591.094 704.282 566.642 690.175C542.216 676.067 542.091 653.186 566.343 639.103C590.621 624.995 630.102 624.995 654.529 639.103Z" fill="white"/>
<path d="M654.529 637.832C678.981 651.939 679.105 674.796 654.828 688.904C630.576 702.986 591.094 703.011 566.643 688.904C542.216 674.796 542.091 651.915 566.343 637.832C590.621 623.724 630.102 623.724 654.529 637.832Z" fill="url(#paint33_linear_206_15)"/>
<g style="mix-blend-mode:multiply">
<path d="M654.529 637.832C642.863 631.102 627.759 627.613 612.505 627.313L575.466 679.332L614.922 699.397C629.479 698.849 643.736 695.384 654.803 688.929C679.08 674.821 678.955 651.965 654.504 637.857L654.529 637.832Z" fill="#E3EDF4"/>
</g>
<path d="M660.412 638.081V659.043C660.412 666.371 655.576 673.7 645.93 679.308C626.538 690.574 595.008 690.574 575.466 679.308C565.646 673.625 560.735 666.197 560.76 658.744V637.782C560.735 645.21 565.646 652.663 575.466 658.346C595.008 669.612 626.538 669.612 645.93 658.346C655.576 652.737 660.387 645.409 660.412 638.081Z" fill="url(#paint34_linear_206_15)"/>
<path d="M645.705 618.54C665.221 629.806 665.321 648.077 645.929 659.368C626.537 670.634 595.007 670.634 575.465 659.368C555.949 648.101 555.849 629.831 575.241 618.54C594.658 607.249 626.188 607.274 645.705 618.54Z" fill="#39D8FB"/>
<path d="M645.705 617.543C665.221 628.809 665.321 647.079 645.929 658.371C626.537 669.637 595.007 669.637 575.465 658.371C555.949 647.104 555.849 628.834 575.241 617.543C594.658 606.252 626.188 606.277 645.705 617.543Z" fill="url(#paint35_linear_206_15)"/>
<path d="M672.949 609.242V635.463C672.924 644.636 666.892 653.808 654.828 660.812C630.551 674.92 591.094 674.92 566.643 660.812C554.355 653.709 548.223 644.387 548.248 635.09V608.868C548.223 618.165 554.355 627.487 566.643 634.591C591.094 648.699 630.551 648.699 654.828 634.591C666.892 627.587 672.924 618.415 672.949 609.217V609.242Z" fill="url(#paint36_linear_206_15)"/>
<path d="M654.529 584.816C678.981 598.923 679.105 621.78 654.828 635.887C630.576 649.995 591.094 649.995 566.642 635.887C542.216 621.78 542.091 598.923 566.343 584.816C590.621 570.708 630.102 570.708 654.529 584.816Z" fill="white"/>
<path d="M654.529 583.519C678.981 597.627 679.105 620.483 654.828 634.591C630.576 648.699 591.094 648.699 566.643 634.591C542.216 620.483 542.091 597.602 566.344 583.519C590.621 569.412 630.102 569.412 654.529 583.519Z" fill="url(#paint37_linear_206_15)"/>
<g style="mix-blend-mode:multiply">
<path d="M654.529 583.519C642.863 576.789 627.759 573.3 612.505 573L575.466 624.995L614.922 645.059C629.479 644.511 643.736 641.046 654.803 634.591C679.08 620.483 678.955 597.627 654.504 583.519H654.529Z" fill="#E3EDF4"/>
</g>
<path d="M660.412 583.794V604.756C660.412 612.084 655.576 619.412 645.93 625.02C626.538 636.286 595.008 636.286 575.466 625.02C565.646 619.362 560.735 611.909 560.76 604.457V583.495C560.735 590.922 565.646 598.375 575.466 604.058C595.008 615.324 626.538 615.324 645.93 604.058C655.576 598.45 660.387 591.122 660.412 583.794Z" fill="url(#paint38_linear_206_15)"/>
<path d="M645.705 564.252C665.221 575.544 665.321 593.789 645.929 605.08C626.537 616.346 595.007 616.346 575.465 605.08C555.949 593.814 555.849 575.544 575.241 564.252C594.658 552.986 626.188 552.986 645.705 564.252Z" fill="#39D8FB"/>
<path d="M645.706 563.23C665.222 574.497 665.322 592.767 645.93 604.058C626.538 615.324 595.008 615.324 575.466 604.058C555.95 592.792 555.85 574.522 575.242 563.23C594.659 551.939 626.189 551.964 645.706 563.23Z" fill="url(#paint39_linear_206_15)"/>
<path d="M672.949 555.13V581.351C672.924 590.524 666.892 599.696 654.828 606.7C630.551 620.808 591.095 620.808 566.643 606.7C554.355 599.596 548.223 590.299 548.248 580.977V554.756C548.223 564.053 554.355 573.375 566.643 580.479C591.095 594.586 630.551 594.586 654.828 580.479C666.892 573.475 672.924 564.302 672.949 555.13Z" fill="url(#paint40_linear_206_15)"/>
<path d="M654.529 530.703C678.981 544.811 679.105 567.667 654.828 581.775C630.576 595.882 591.094 595.882 566.643 581.775C542.216 567.667 542.091 544.786 566.343 530.703C590.621 516.595 630.102 516.595 654.529 530.703Z" fill="white"/>
<path d="M654.529 529.432C678.981 543.54 679.106 566.396 654.828 580.504C630.576 594.611 591.094 594.611 566.643 580.504C542.216 566.396 542.091 543.515 566.344 529.432C590.621 515.324 630.103 515.324 654.529 529.432Z" fill="url(#paint41_linear_206_15)"/>
<path d="M610.785 576.964C596.578 576.964 582.844 573.749 573.098 568.116C565.521 563.729 561.159 558.47 561.159 553.634C561.159 548.873 565.421 543.689 572.849 539.352C582.52 533.744 596.204 530.528 610.386 530.528C624.569 530.528 638.353 533.744 648.073 539.377C655.676 543.764 660.038 549.048 660.038 553.858C660.038 558.619 655.775 563.804 648.323 568.141C638.652 573.749 624.968 576.964 610.785 576.964Z" fill="white"/>
<path d="M610.785 577.363C596.578 577.363 582.844 574.148 573.098 568.515C565.521 564.128 561.159 558.844 561.159 554.033C561.159 549.272 565.421 544.088 572.849 539.751C582.52 534.143 596.204 530.902 610.386 530.902C624.569 530.902 638.353 534.118 648.073 539.751C655.676 544.138 660.038 549.422 660.038 554.232C660.038 558.968 655.775 564.178 648.323 568.515C638.652 574.123 624.968 577.338 610.785 577.338V577.363Z" fill="url(#paint42_linear_206_15)"/>
<path d="M572.824 546.081C582.495 540.473 596.179 537.258 610.361 537.258C624.544 537.258 638.327 540.473 648.048 546.106C654.005 549.546 657.943 553.559 659.389 557.422C659.788 556.351 660.012 555.304 660.012 554.257C660.012 549.446 655.65 544.162 648.048 539.775C638.302 534.142 624.569 530.927 610.361 530.927C596.154 530.927 582.47 534.142 572.824 539.775C565.396 544.087 561.109 549.297 561.134 554.057C561.134 555.079 561.383 556.151 561.757 557.198C563.178 553.384 567.016 549.471 572.824 546.106V546.081Z" fill="#2485FF"/>
<g style="mix-blend-mode:screen" opacity="0.5">
<path d="M660.039 553.586C660.039 548.775 655.677 543.491 648.075 539.104C638.329 533.496 624.595 530.256 610.388 530.256C596.18 530.256 582.496 533.471 572.85 539.079C565.422 543.391 561.135 548.601 561.16 553.362V554.058C561.16 558.868 565.522 564.153 573.099 568.539C582.845 574.148 596.579 577.388 610.786 577.388C624.994 577.388 638.678 574.173 648.324 568.564C655.777 564.227 660.039 559.018 660.039 554.282V553.586Z" fill="url(#paint43_linear_206_15)"/>
</g>
<path d="M324.664 205.44C325.081 204.569 326.367 204.737 326.548 205.685L328.069 213.66C328.129 213.972 328.333 214.237 328.619 214.374L335.94 217.884C336.81 218.301 336.643 219.587 335.695 219.768L327.72 221.289C327.408 221.348 327.143 221.552 327.006 221.839L323.496 229.16C323.079 230.03 321.793 229.863 321.612 228.915L320.091 220.94C320.032 220.628 319.827 220.363 319.541 220.225L312.22 216.716C311.35 216.298 311.517 215.012 312.465 214.832L320.44 213.311C320.752 213.251 321.017 213.047 321.155 212.761L324.664 205.44Z" fill="#F56373"/>
<path d="M594.118 412.474C594.002 411.516 595.176 410.965 595.838 411.666L601.665 417.838C601.883 418.069 602.198 418.183 602.513 418.145L610.939 417.118C611.897 417.002 612.448 418.176 611.746 418.838L605.575 424.665C605.344 424.883 605.23 425.198 605.268 425.513L606.294 433.939C606.411 434.897 605.237 435.448 604.575 434.746L598.748 428.574C598.53 428.344 598.215 428.23 597.9 428.268L589.474 429.294C588.516 429.411 587.965 428.237 588.667 427.575L594.838 421.748C595.069 421.53 595.183 421.215 595.145 420.9L594.118 412.474Z" fill="#F56373"/>
</g>
<circle opacity="0.5" cx="551" cy="498" r="4" stroke="#F56272" stroke-width="2"/>
<circle cx="21.5" cy="428.5" r="4.5" stroke="#F56272" stroke-width="2"/>
<path d="M54.9748 731.97C54.6876 729.089 58.2446 727.513 60.1858 729.661L64.7134 734.671C65.3522 735.378 66.2888 735.74 67.2368 735.645L73.9561 734.975C76.8371 734.688 78.4133 738.245 76.2653 740.186L71.2553 744.713C70.5485 745.352 70.1871 746.289 70.2816 747.237L70.9516 753.956C71.2389 756.837 67.6819 758.413 65.7407 756.265L61.2131 751.255C60.5743 750.549 59.6377 750.187 58.6896 750.282L51.9703 750.952C49.0894 751.239 47.5131 747.682 49.6612 745.741L54.6711 741.213C55.378 740.574 55.7394 739.638 55.6449 738.69L54.9748 731.97Z" fill="#3E80E2"/>
<path d="M768.505 667.335C770.227 665.008 773.922 666.229 773.917 669.124L773.902 679.548C773.9 680.501 774.352 681.398 775.117 681.964L783.497 688.164C785.825 689.886 784.604 693.58 781.709 693.576L771.285 693.56C770.332 693.559 769.435 694.01 768.869 694.776L762.669 703.156C760.947 705.484 757.253 704.263 757.257 701.367L757.272 690.943C757.274 689.991 756.823 689.094 756.057 688.527L747.677 682.327C745.349 680.605 746.57 676.911 749.465 676.916L759.89 676.931C760.842 676.933 761.739 676.481 762.306 675.715L768.505 667.335Z" fill="#3E80E2"/>
<circle opacity="0.2" cx="131.5" cy="860.5" r="4.5" stroke="#3E80E2" stroke-width="2"/>
<circle opacity="0.2" cx="398.5" cy="261.5" r="4.5" stroke="#3E80E2" stroke-width="2"/>
<circle opacity="0.2" cx="725.5" cy="600.5" r="6.5" stroke="#3E80E2" stroke-width="2"/>
<defs>
<filter id="filter0_f_206_15" x="31.932" y="462.07" width="656.16" height="341.479" filterUnits="userSpaceOnUse" color-interpolation-filters="sRGB">
<feFlood flood-opacity="0" result="BackgroundImageFix"/>
<feBlend mode="normal" in="SourceGraphic" in2="BackgroundImageFix" result="shape"/>
<feGaussianBlur stdDeviation="3.53394" result="effect1_foregroundBlur_206_15"/>
</filter>
<filter id="filter1_f_206_15" x="214.024" y="547.904" width="33.3273" height="42.437" filterUnits="userSpaceOnUse" color-interpolation-filters="sRGB">
<feFlood flood-opacity="0" result="BackgroundImageFix"/>
<feBlend mode="normal" in="SourceGraphic" in2="BackgroundImageFix" result="shape"/>
<feGaussianBlur stdDeviation="2.35596" result="effect1_foregroundBlur_206_15"/>
</filter>
<linearGradient id="paint0_linear_206_15" x1="28" y1="978" x2="450.5" y2="9.99998" gradientUnits="userSpaceOnUse">
<stop stop-color="#3E80E2"/>
<stop offset="1" stop-color="#3E80E2" stop-opacity="0"/>
</linearGradient>
<linearGradient id="paint1_linear_206_15" x1="44.0603" y1="506.875" x2="187.131" y2="507.423" gradientUnits="userSpaceOnUse">
<stop stop-color="white"/>
<stop offset="1" stop-color="#9FC1DA"/>
</linearGradient>
<linearGradient id="paint2_linear_206_15" x1="39.6234" y1="517.917" x2="135.037" y2="464.427" gradientUnits="userSpaceOnUse">
<stop stop-color="#E7EFF6"/>
<stop offset="1" stop-color="#9FC1DA"/>
</linearGradient>
<linearGradient id="paint3_linear_206_15" x1="52.3153" y1="500.043" x2="111.089" y2="551.069" gradientUnits="userSpaceOnUse">
<stop stop-color="#BAD6FF"/>
<stop offset="0.892892" stop-color="#2865DB"/>
</linearGradient>
<linearGradient id="paint4_linear_206_15" x1="54.6538" y1="484.068" x2="130.9" y2="441.321" gradientUnits="userSpaceOnUse">
<stop stop-color="#24DEFF"/>
<stop offset="1" stop-color="#2478FF"/>
</linearGradient>
<linearGradient id="paint5_linear_206_15" x1="44.0603" y1="452.588" x2="187.131" y2="453.111" gradientUnits="userSpaceOnUse">
<stop stop-color="white"/>
<stop offset="1" stop-color="#9FC1DA"/>
</linearGradient>
<linearGradient id="paint6_linear_206_15" x1="39.6234" y1="463.63" x2="135.037" y2="410.14" gradientUnits="userSpaceOnUse">
<stop stop-color="#E7EFF6"/>
<stop offset="1" stop-color="#9FC1DA"/>
</linearGradient>
<linearGradient id="paint7_linear_206_15" x1="52.3153" y1="445.755" x2="111.089" y2="496.781" gradientUnits="userSpaceOnUse">
<stop stop-color="#BAD6FF"/>
<stop offset="0.892892" stop-color="#2865DB"/>
</linearGradient>
<linearGradient id="paint8_linear_206_15" x1="54.6538" y1="429.781" x2="130.9" y2="387.034" gradientUnits="userSpaceOnUse">
<stop stop-color="#24DEFF"/>
<stop offset="1" stop-color="#2478FF"/>
</linearGradient>
<linearGradient id="paint9_linear_206_15" x1="44.0603" y1="398.3" x2="187.131" y2="398.823" gradientUnits="userSpaceOnUse">
<stop stop-color="white"/>
<stop offset="1" stop-color="#9FC1DA"/>
</linearGradient>
<linearGradient id="paint10_linear_206_15" x1="39.6234" y1="409.342" x2="135.037" y2="355.852" gradientUnits="userSpaceOnUse">
<stop stop-color="#E7EFF6"/>
<stop offset="1" stop-color="#9FC1DA"/>
</linearGradient>
<linearGradient id="paint11_linear_206_15" x1="52.3153" y1="391.468" x2="111.089" y2="442.494" gradientUnits="userSpaceOnUse">
<stop stop-color="#BAD6FF"/>
<stop offset="0.892892" stop-color="#2865DB"/>
</linearGradient>
<linearGradient id="paint12_linear_206_15" x1="54.6538" y1="375.494" x2="130.9" y2="332.747" gradientUnits="userSpaceOnUse">
<stop stop-color="#24DEFF"/>
<stop offset="1" stop-color="#2478FF"/>
</linearGradient>
<linearGradient id="paint13_linear_206_15" x1="44.0603" y1="344.188" x2="187.131" y2="344.736" gradientUnits="userSpaceOnUse">
<stop stop-color="white"/>
<stop offset="1" stop-color="#9FC1DA"/>
</linearGradient>
<linearGradient id="paint14_linear_206_15" x1="52.0611" y1="313.305" x2="176.787" y2="313.305" gradientUnits="userSpaceOnUse">
<stop stop-color="white"/>
<stop offset="1" stop-color="#9FC1DA"/>
</linearGradient>
<linearGradient id="paint15_linear_206_15" x1="41.1251" y1="301.372" x2="108.514" y2="386.227" gradientUnits="userSpaceOnUse">
<stop offset="0.146797" stop-color="#E0EDFF"/>
<stop offset="0.731431" stop-color="#2865DB"/>
</linearGradient>
<linearGradient id="paint16_linear_206_15" x1="114.159" y1="351.176" x2="140.528" y2="156.9" gradientUnits="userSpaceOnUse">
<stop stop-color="#E0EDFF"/>
<stop offset="1" stop-color="#3E80E2"/>
</linearGradient>
<linearGradient id="paint17_linear_206_15" x1="152.548" y1="391.735" x2="152.548" y2="666.674" gradientUnits="userSpaceOnUse">
<stop stop-color="white"/>
<stop offset="1" stop-color="#C1E0F6"/>
</linearGradient>
<linearGradient id="paint18_linear_206_15" x1="155.078" y1="344.511" x2="255.053" y2="465.623" gradientUnits="userSpaceOnUse">
<stop stop-color="white"/>
<stop offset="1" stop-color="#9FC1DA"/>
</linearGradient>
<linearGradient id="paint19_linear_206_15" x1="143.113" y1="235.688" x2="273.223" y2="393.29" gradientUnits="userSpaceOnUse">
<stop stop-color="white"/>
<stop offset="1" stop-color="#9FC1DA"/>
</linearGradient>
<linearGradient id="paint20_linear_206_15" x1="84.5891" y1="364.078" x2="323.996" y2="364.078" gradientUnits="userSpaceOnUse">
<stop stop-color="white"/>
<stop offset="1" stop-color="#9FC1DA"/>
</linearGradient>
<linearGradient id="paint21_linear_206_15" x1="230.626" y1="389.776" x2="230.626" y2="711.935" gradientUnits="userSpaceOnUse">
<stop stop-color="white"/>
<stop offset="1" stop-color="#C1E0F6"/>
</linearGradient>
<linearGradient id="paint22_linear_206_15" x1="192.814" y1="348.674" x2="343.512" y2="503.61" gradientUnits="userSpaceOnUse">
<stop stop-color="white"/>
<stop offset="1" stop-color="#9FC1DA"/>
</linearGradient>
<linearGradient id="paint23_linear_206_15" x1="185.013" y1="444.088" x2="479.33" y2="280.005" gradientUnits="userSpaceOnUse">
<stop stop-color="white"/>
<stop offset="1" stop-color="#9FC1DA"/>
</linearGradient>
<linearGradient id="paint24_linear_206_15" x1="308.704" y1="482.488" x2="308.704" y2="757.427" gradientUnits="userSpaceOnUse">
<stop stop-color="white"/>
<stop offset="1" stop-color="#C1E0F6"/>
</linearGradient>
<linearGradient id="paint25_linear_206_15" x1="280.352" y1="655.105" x2="538.054" y2="542.443" gradientUnits="userSpaceOnUse">
<stop stop-color="white"/>
<stop offset="1" stop-color="#9FC1DA"/>
</linearGradient>
<linearGradient id="paint26_linear_206_15" x1="285.137" y1="521.581" x2="605.501" y2="345.534" gradientUnits="userSpaceOnUse">
<stop stop-color="white"/>
<stop offset="1" stop-color="#9FC1DA"/>
</linearGradient>
<linearGradient id="paint27_linear_206_15" x1="422" y1="611.185" x2="518.358" y2="611.185" gradientUnits="userSpaceOnUse">
<stop stop-color="white"/>
<stop offset="1" stop-color="#2580C4" stop-opacity="0"/>
</linearGradient>
<linearGradient id="paint28_linear_206_15" x1="540.222" y1="748.525" x2="683.293" y2="749.073" gradientUnits="userSpaceOnUse">
<stop stop-color="white"/>
<stop offset="1" stop-color="#9FC1DA"/>
</linearGradient>
<linearGradient id="paint29_linear_206_15" x1="535.785" y1="759.567" x2="631.199" y2="706.078" gradientUnits="userSpaceOnUse">
<stop stop-color="#E7EFF6"/>
<stop offset="1" stop-color="#9FC1DA"/>
</linearGradient>
<linearGradient id="paint30_linear_206_15" x1="548.477" y1="741.693" x2="607.251" y2="792.719" gradientUnits="userSpaceOnUse">
<stop stop-color="#BAD6FF"/>
<stop offset="0.892892" stop-color="#2865DB"/>
</linearGradient>
<linearGradient id="paint31_linear_206_15" x1="550.814" y1="725.718" x2="627.061" y2="682.997" gradientUnits="userSpaceOnUse">
<stop stop-color="#24DEFF"/>
<stop offset="1" stop-color="#2478FF"/>
</linearGradient>
<linearGradient id="paint32_linear_206_15" x1="540.222" y1="694.238" x2="683.293" y2="694.786" gradientUnits="userSpaceOnUse">
<stop stop-color="white"/>
<stop offset="1" stop-color="#9FC1DA"/>
</linearGradient>
<linearGradient id="paint33_linear_206_15" x1="535.785" y1="705.28" x2="631.199" y2="651.79" gradientUnits="userSpaceOnUse">
<stop stop-color="#E7EFF6"/>
<stop offset="1" stop-color="#9FC1DA"/>
</linearGradient>
<linearGradient id="paint34_linear_206_15" x1="548.477" y1="687.406" x2="607.251" y2="738.432" gradientUnits="userSpaceOnUse">
<stop stop-color="#BAD6FF"/>
<stop offset="0.892892" stop-color="#2865DB"/>
</linearGradient>
<linearGradient id="paint35_linear_206_15" x1="550.814" y1="671.431" x2="627.061" y2="628.71" gradientUnits="userSpaceOnUse">
<stop stop-color="#24DEFF"/>
<stop offset="1" stop-color="#2478FF"/>
</linearGradient>
<linearGradient id="paint36_linear_206_15" x1="540.222" y1="639.95" x2="683.293" y2="640.498" gradientUnits="userSpaceOnUse">
<stop stop-color="white"/>
<stop offset="1" stop-color="#9FC1DA"/>
</linearGradient>
<linearGradient id="paint37_linear_206_15" x1="535.785" y1="650.992" x2="631.199" y2="597.502" gradientUnits="userSpaceOnUse">
<stop stop-color="#E7EFF6"/>
<stop offset="1" stop-color="#9FC1DA"/>
</linearGradient>
<linearGradient id="paint38_linear_206_15" x1="548.477" y1="633.118" x2="607.251" y2="684.144" gradientUnits="userSpaceOnUse">
<stop stop-color="#BAD6FF"/>
<stop offset="0.892892" stop-color="#2865DB"/>
</linearGradient>
<linearGradient id="paint39_linear_206_15" x1="550.815" y1="617.144" x2="627.062" y2="574.422" gradientUnits="userSpaceOnUse">
<stop stop-color="#24DEFF"/>
<stop offset="1" stop-color="#2478FF"/>
</linearGradient>
<linearGradient id="paint40_linear_206_15" x1="540.222" y1="585.838" x2="683.293" y2="586.386" gradientUnits="userSpaceOnUse">
<stop stop-color="white"/>
<stop offset="1" stop-color="#9FC1DA"/>
</linearGradient>
<linearGradient id="paint41_linear_206_15" x1="548.248" y1="554.955" x2="672.949" y2="554.955" gradientUnits="userSpaceOnUse">
<stop stop-color="white"/>
<stop offset="1" stop-color="#9FC1DA"/>
</linearGradient>
<linearGradient id="paint42_linear_206_15" x1="537.286" y1="543.003" x2="604.719" y2="627.869" gradientUnits="userSpaceOnUse">
<stop offset="0.146797" stop-color="#E0EDFF"/>
<stop offset="0.731431" stop-color="#2865DB"/>
</linearGradient>
<linearGradient id="paint43_linear_206_15" x1="610.321" y1="594.834" x2="643.722" y2="376.721" gradientUnits="userSpaceOnUse">
<stop stop-color="#E0EDFF"/>
<stop offset="1" stop-color="#3E80E2"/>
</linearGradient>
<clipPath id="clip0_206_15">
<rect width="642" height="709.946" fill="white" transform="translate(39 86.5352)"/>
</clipPath>
</defs>
</svg>
