<svg width="77" height="77" viewBox="0 0 77 77" fill="none" xmlns="http://www.w3.org/2000/svg">
<path d="M35.6502 2.66523C36.5547 -0.0850897 40.4453 -0.0850906 41.3498 2.66523L49.0398 26.0476C49.3375 26.9526 50.0474 27.6625 50.9524 27.9602L74.3348 35.6502C77.0851 36.5547 77.0851 40.4453 74.3348 41.3498L50.9524 49.0398C50.0474 49.3375 49.3375 50.0474 49.0398 50.9524L41.3498 74.3348C40.4453 77.0851 36.5547 77.0851 35.6502 74.3348L27.9602 50.9524C27.6625 50.0474 26.9526 49.3375 26.0476 49.0398L2.66523 41.3498C-0.0850897 40.4453 -0.0850906 36.5547 2.66523 35.6502L26.0476 27.9602C26.9526 27.6625 27.6625 26.9526 27.9602 26.0476L35.6502 2.66523Z" fill="#3E80E2"/>
</svg>
