<svg width="24" height="25" viewBox="0 0 24 25" fill="none" xmlns="http://www.w3.org/2000/svg">
<g clip-path="url(#clip0_41_26109)">
<path d="M15.5511 13.4961L13.541 15.5129C12.7259 16.3309 11.2917 16.3485 10.459 15.5129L8.44887 13.4961L1.22937 20.739C1.4981 20.8633 1.7944 20.9375 2.1094 20.9375H21.8907C22.2057 20.9375 22.5019 20.8634 22.7705 20.7391L15.5511 13.4961Z" fill="#3E80E2"/>
<path d="M21.8907 4.0625H2.10943C1.79443 4.0625 1.49813 4.13666 1.22949 4.26092L8.94404 12.0011C8.94455 12.0016 8.94516 12.0017 8.94568 12.0022C8.9462 12.0027 8.94629 12.0034 8.94629 12.0034L11.4547 14.5201C11.7211 14.7866 12.2791 14.7866 12.5455 14.5201L15.0534 12.0038C15.0534 12.0038 15.054 12.0027 15.0545 12.0022C15.0545 12.0022 15.0556 12.0016 15.0562 12.0011L22.7705 4.26088C22.5019 4.13656 22.2057 4.0625 21.8907 4.0625Z" fill="#3E80E2"/>
<path d="M0.224344 5.24414C0.0853125 5.5253 0 5.83739 0 6.1717V18.828C0 19.1623 0.0852187 19.4744 0.224297 19.7555L7.45631 12.5001L0.224344 5.24414Z" fill="#3E80E2"/>
<path d="M23.7756 5.24414L16.5437 12.5002L23.7756 19.7557C23.9147 19.4745 24 19.1625 24 18.828V6.1718C24 5.83739 23.9147 5.5253 23.7756 5.24414Z" fill="#3E80E2"/>
</g>
<defs>
<clipPath id="clip0_41_26109">
<rect width="24" height="24" fill="white" transform="translate(0 0.5)"/>
</clipPath>
</defs>
</svg>
