<svg width="23" height="24" viewBox="0 0 23 24" fill="none" xmlns="http://www.w3.org/2000/svg">
<g clip-path="url(#clip0_41_28556)">
<path d="M15.769 0.613281C15.822 0.613281 15.875 0.613281 15.931 0.613281C16.061 2.21928 15.448 3.41928 14.703 4.28828C13.972 5.15128 12.971 5.98828 11.352 5.86128C11.244 4.27828 11.858 3.16728 12.602 2.30028C13.292 1.49228 14.557 0.773281 15.769 0.613281Z" fill="black"/>
<path d="M20.67 17.3295C20.67 17.3455 20.67 17.3595 20.67 17.3745C20.215 18.7525 19.566 19.9335 18.774 21.0295C18.051 22.0245 17.165 23.3635 15.583 23.3635C14.216 23.3635 13.308 22.4845 11.907 22.4605C10.425 22.4365 9.61 23.1955 8.255 23.3865C8.1 23.3865 7.945 23.3865 7.793 23.3865C6.798 23.2425 5.995 22.4545 5.41 21.7445C3.685 19.6465 2.352 16.9365 2.104 13.4685C2.104 13.1285 2.104 12.7895 2.104 12.4495C2.209 9.96748 3.415 7.94948 5.018 6.97148C5.864 6.45148 7.027 6.00848 8.322 6.20648C8.877 6.29248 9.444 6.48248 9.941 6.67048C10.412 6.85148 11.001 7.17248 11.559 7.15548C11.937 7.14448 12.313 6.94748 12.694 6.80848C13.81 6.40548 14.904 5.94348 16.346 6.16048C18.079 6.42248 19.309 7.19248 20.069 8.38048C18.603 9.31348 17.444 10.7195 17.642 13.1205C17.818 15.3015 19.086 16.5775 20.67 17.3295Z" fill="black"/>
</g>
<defs>
<clipPath id="clip0_41_28556">
<rect width="22.773" height="22.773" fill="white" transform="translate(0 0.613281)"/>
</clipPath>
</defs>
</svg>
