<svg width="164" height="64" viewBox="0 0 164 64" fill="none" xmlns="http://www.w3.org/2000/svg">
<rect x="0.5" width="163.5" height="64" rx="12" fill="#EFF4FB"/>
<g clip-path="url(#clip0_68_9510)">
<path d="M58.522 23.041C58.251 23.041 58.0209 23.2377 57.9785 23.5056L54.8421 43.396C54.8307 43.4687 54.8352 43.5429 54.8552 43.6137C54.8752 43.6845 54.9104 43.75 54.9582 43.8059C55.006 43.8618 55.0653 43.9067 55.1321 43.9375C55.1989 43.9683 55.2716 43.9842 55.3451 43.9842H59.0647C59.3353 43.9842 59.5658 43.7871 59.6082 43.5196L60.5295 37.6787C60.5715 37.4112 60.802 37.2141 61.073 37.2141H64.4547C68.406 37.2141 71.7602 34.3311 72.3728 30.4246C72.9906 26.485 69.9128 23.0496 65.5506 23.041H58.522ZM62.1378 27.4813H64.8435C67.071 27.4813 67.7964 28.7957 67.5671 30.2492C67.3377 31.7059 66.2111 32.7788 64.0563 32.7788H61.3023L62.1378 27.4813ZM79.9379 28.8334C78.9987 28.8369 77.918 29.0293 76.7047 29.5347C73.9216 30.6947 72.5851 33.0922 72.0175 34.84C72.0175 34.84 70.211 40.1725 74.2925 43.1021C74.2925 43.1021 78.0777 45.9225 82.3388 42.9284L82.2654 43.396C82.254 43.4686 82.2584 43.5428 82.2784 43.6135C82.2984 43.6842 82.3335 43.7498 82.3812 43.8056C82.4289 43.8615 82.4882 43.9064 82.5549 43.9372C82.6216 43.9681 82.6941 43.9841 82.7676 43.9842H86.2986C86.5696 43.9842 86.7998 43.7871 86.8421 43.5196L88.99 29.8986C89.0015 29.8259 88.9971 29.7517 88.9772 29.6808C88.9573 29.61 88.9222 29.5444 88.8745 29.4884C88.8267 29.4325 88.7675 29.3875 88.7007 29.3566C88.6339 29.3258 88.5613 29.3097 88.4877 29.3096H84.9567C84.6857 29.3096 84.4552 29.5067 84.4132 29.7742L84.2978 30.5074C84.2978 30.5074 82.756 28.8229 79.9379 28.8334ZM80.0534 33.1357C80.4588 33.1357 80.8297 33.1917 81.1625 33.2986C82.686 33.7877 83.5498 35.2513 83.2998 36.8378C82.9915 38.7913 81.3895 40.2296 79.335 40.2296C78.9299 40.2296 78.559 40.174 78.2258 40.0671C76.7027 39.5781 75.8335 38.1144 76.0834 36.528C76.3917 34.5745 77.9988 33.1357 80.0534 33.1357Z" fill="#003087"/>
<path d="M109.369 23.041C109.098 23.041 108.868 23.2377 108.826 23.5056L105.689 43.396C105.678 43.4687 105.682 43.5429 105.702 43.6137C105.723 43.6845 105.758 43.75 105.805 43.8059C105.853 43.8618 105.913 43.9067 105.979 43.9375C106.046 43.9683 106.119 43.9842 106.192 43.9842H109.912C110.183 43.9842 110.413 43.7871 110.455 43.5196L111.377 37.6787C111.419 37.4112 111.649 37.2141 111.92 37.2141H115.302C119.253 37.2141 122.607 34.3311 123.219 30.4246C123.837 26.485 120.76 23.0496 116.398 23.041H109.369ZM112.985 27.4813H115.691C117.918 27.4813 118.644 28.7957 118.414 30.2492C118.185 31.7059 117.059 32.7788 114.904 32.7788H112.15L112.985 27.4813ZM130.785 28.8334C129.846 28.8369 128.765 29.0293 127.552 29.5347C124.769 30.6947 123.432 33.0922 122.864 34.84C122.864 34.84 121.059 40.1725 125.14 43.1021C125.14 43.1021 128.925 45.9225 133.186 42.9284L133.113 43.396C133.101 43.4687 133.106 43.5429 133.126 43.6137C133.146 43.6845 133.181 43.75 133.229 43.8059C133.277 43.8618 133.336 43.9067 133.403 43.9375C133.469 43.9683 133.542 43.9842 133.616 43.9842H137.146C137.417 43.9842 137.647 43.7871 137.69 43.5196L139.838 29.8986C139.85 29.8259 139.846 29.7515 139.826 29.6807C139.806 29.6098 139.771 29.5441 139.723 29.4881C139.675 29.4322 139.615 29.3872 139.549 29.3564C139.482 29.3256 139.409 29.3096 139.335 29.3096H135.804C135.533 29.3096 135.303 29.5067 135.261 29.7742L135.145 30.5074C135.145 30.5074 133.603 28.8229 130.785 28.8334ZM130.9 33.1357C131.306 33.1357 131.677 33.1917 132.009 33.2986C133.533 33.7877 134.397 35.2513 134.147 36.8378C133.838 38.7913 132.236 40.2296 130.182 40.2296C129.777 40.2296 129.406 40.174 129.073 40.0671C127.55 39.5781 126.68 38.1144 126.93 36.528C127.239 34.5745 128.846 33.1357 130.9 33.1357Z" fill="#0070E0"/>
<path d="M90.6639 29.309C90.384 29.309 90.185 29.5823 90.2705 29.8486L94.1417 41.8614L90.6414 47.5224C90.4715 47.7972 90.669 48.1521 90.992 48.1521H95.1291C95.2474 48.152 95.3637 48.1214 95.4668 48.0633C95.5698 48.0051 95.6561 47.9214 95.7173 47.8201L106.529 29.9349C106.695 29.66 106.497 29.3086 106.175 29.3086H102.039C101.919 29.3087 101.802 29.3399 101.698 29.3991C101.594 29.4584 101.508 29.5436 101.447 29.6464L97.1914 36.8313L95.0312 29.6997C94.9608 29.4676 94.7466 29.3086 94.5044 29.3086L90.6639 29.309Z" fill="#003087"/>
<path d="M143.851 23.041C143.581 23.041 143.35 23.2381 143.308 23.5056L140.171 43.3952C140.159 43.468 140.164 43.5423 140.184 43.6132C140.204 43.684 140.239 43.7497 140.286 43.8057C140.334 43.8617 140.394 43.9066 140.461 43.9374C140.527 43.9683 140.6 43.9842 140.674 43.9842H144.393C144.664 43.9842 144.894 43.7871 144.937 43.5196L148.073 23.6292C148.085 23.5566 148.08 23.4824 148.06 23.4117C148.04 23.341 148.005 23.2754 147.957 23.2196C147.91 23.1637 147.85 23.1188 147.784 23.088C147.717 23.0572 147.644 23.0411 147.571 23.041H143.851Z" fill="#0070E0"/>
<path d="M27.5119 23.041C27.2722 23.0412 27.0406 23.1269 26.8584 23.2825C26.6763 23.4382 26.5557 23.6538 26.5182 23.8904L24.8672 34.3618C24.9442 33.8728 25.3656 33.5124 25.8608 33.5124H30.6988C35.5679 33.5124 39.6996 29.9604 40.4545 25.1469C40.5107 24.7875 40.5425 24.4248 40.5498 24.0611C39.3124 23.4123 37.8588 23.041 36.2661 23.041H27.5119Z" fill="#001C64"/>
<path d="M40.5492 24.0605C40.5419 24.4242 40.5101 24.787 40.4539 25.1463C39.6989 29.9598 35.5669 33.5119 30.6982 33.5119H25.8602C25.3653 33.5119 24.9435 33.8718 24.8666 34.3613L23.3485 43.9837L22.3976 50.0202C22.379 50.1368 22.386 50.2561 22.418 50.3697C22.45 50.4834 22.5063 50.5888 22.583 50.6786C22.6597 50.7684 22.7549 50.8405 22.8622 50.8899C22.9695 50.9393 23.0862 50.9649 23.2043 50.9648H28.4555C28.6951 50.9646 28.9268 50.879 29.1089 50.7233C29.291 50.5676 29.4117 50.3521 29.4491 50.1154L30.8323 41.3425C30.8698 41.1057 30.9906 40.89 31.1729 40.7343C31.3551 40.5786 31.587 40.4931 31.8268 40.4931H34.9185C39.7876 40.4931 43.9192 36.941 44.6742 32.1275C45.2103 28.7112 43.4897 25.6023 40.5492 24.0605Z" fill="#0070E0"/>
<path d="M21.5459 16.0605C21.0511 16.0605 20.6293 16.4205 20.5523 16.9092L16.4315 43.0395C16.3534 43.5355 16.7367 43.9841 17.239 43.9841H23.3497L24.8671 34.3618L26.5181 23.8904C26.5555 23.6537 26.6762 23.4382 26.8583 23.2825C27.0404 23.1268 27.2721 23.0412 27.5117 23.041H36.266C37.8591 23.041 39.3123 23.4126 40.5497 24.061C40.6344 19.6787 37.0182 16.0605 32.0465 16.0605H21.5459Z" fill="#003087"/>
</g>
<defs>
<clipPath id="clip0_68_9510">
<rect width="131.657" height="32" fill="white" transform="translate(16.4214 16)"/>
</clipPath>
</defs>
</svg>
