<svg width="164" height="64" viewBox="0 0 164 64" fill="none" xmlns="http://www.w3.org/2000/svg">
<rect width="163.5" height="64" rx="12" fill="#EFF4FB"/>
<g clip-path="url(#clip0_68_9520)">
<path d="M76.6912 43.9569H70.5439L74.3889 20.1826H80.5358L76.6912 43.9569Z" fill="#00579F"/>
<path d="M98.9749 20.7631C97.7624 20.2821 95.8393 19.751 93.4613 19.751C87.3907 19.751 83.1158 22.9882 83.0896 27.6163C83.0391 31.031 86.1503 32.9276 88.4771 34.0662C90.8554 35.2296 91.6639 35.989 91.6639 37.026C91.6397 38.6187 89.7421 39.3529 87.9722 39.3529C85.518 39.3529 84.2029 38.9744 82.2045 38.0883L81.395 37.7084L80.5348 43.0452C81.9766 43.7021 84.6329 44.2849 87.3907 44.3105C93.8408 44.3105 98.0401 41.1234 98.0898 36.1913C98.1144 33.4849 96.4716 31.4112 92.9298 29.7166C90.7798 28.6288 89.4631 27.8954 89.4631 26.7823C89.4883 25.7705 90.5768 24.7341 93.0038 24.7341C95.0022 24.6834 96.4706 25.1638 97.5829 25.6445L98.1389 25.8969L98.9749 20.7631Z" fill="#00579F"/>
<path d="M107.146 35.5345C107.652 34.1687 109.6 28.8827 109.6 28.8827C109.574 28.9334 110.105 27.4916 110.409 26.6065L110.838 28.6551C110.838 28.6551 112.002 34.3459 112.255 35.5345C111.294 35.5345 108.36 35.5345 107.146 35.5345ZM114.734 20.1826H109.979C108.512 20.1826 107.398 20.6122 106.766 22.1552L97.6348 43.9565H104.085C104.085 43.9565 105.147 41.0222 105.375 40.3903C106.083 40.3903 112.357 40.3903 113.268 40.3903C113.444 41.2249 114.001 43.9565 114.001 43.9565H119.693L114.734 20.1826Z" fill="#00579F"/>
<path d="M65.4093 20.1826L59.3891 36.3944L58.7312 33.1064C57.6182 29.3126 54.1275 25.1907 50.2322 23.1411L55.7465 43.9317H62.247L71.9095 20.1826H65.4093Z" fill="#00579F"/>
<path d="M53.7987 20.1826H43.9083L43.8071 20.663C51.5222 22.6359 56.6318 27.3915 58.7311 33.1075L56.581 22.1811C56.2271 20.6626 55.1393 20.2327 53.7987 20.1826Z" fill="#FAA61A"/>
</g>
<defs>
<clipPath id="clip0_68_9520">
<rect width="75.8857" height="32" fill="white" transform="translate(43.8071 16)"/>
</clipPath>
</defs>
</svg>
