<svg width="234" height="77" viewBox="0 0 234 77" fill="none" xmlns="http://www.w3.org/2000/svg">
<rect width="233.143" height="77" rx="12" fill="#EFF4FB"/>
<g clip-path="url(#clip0_41_23262)">
<path d="M83.204 25.9014C82.823 25.9014 82.4994 26.178 82.4398 26.5547L78.0292 54.5256C78.0131 54.6278 78.0194 54.7322 78.0476 54.8317C78.0758 54.9312 78.1252 55.0234 78.1924 55.102C78.2596 55.1806 78.3431 55.2437 78.437 55.287C78.5309 55.3303 78.6331 55.3527 78.7366 55.3527H83.9672C84.3477 55.3527 84.6719 55.0756 84.7315 54.6994L86.0271 46.4855C86.0861 46.1094 86.4103 45.8323 86.7914 45.8323H91.5469C97.1034 45.8323 101.82 41.7781 102.682 36.2845C103.55 30.7444 99.2224 25.9134 93.088 25.9014H83.204ZM88.2887 32.1456H92.0936C95.2261 32.1456 96.2462 33.9939 95.9237 36.0379C95.6011 38.0863 94.0169 39.5952 90.9866 39.5952H87.1139L88.2887 32.1456ZM113.32 34.0469C111.999 34.0518 110.48 34.3224 108.773 35.0331C104.86 36.6644 102.98 40.0358 102.182 42.4937C102.182 42.4937 99.6417 49.9925 105.381 54.1123C105.381 54.1123 110.704 58.0785 116.696 53.8679L116.593 54.5256C116.577 54.6277 116.583 54.732 116.612 54.8314C116.64 54.9309 116.689 55.023 116.756 55.1016C116.823 55.1802 116.906 55.2433 117 55.2867C117.094 55.33 117.196 55.3525 117.299 55.3527H122.265C122.646 55.3527 122.97 55.0756 123.029 54.6994L126.05 35.5448C126.066 35.4427 126.06 35.3382 126.032 35.2386C126.004 35.1391 125.954 35.0468 125.887 34.9681C125.82 34.8893 125.737 34.8261 125.643 34.7827C125.549 34.7393 125.447 34.7167 125.343 34.7166H120.378C119.997 34.7166 119.673 34.9938 119.614 35.3699L119.451 36.4009C119.451 36.4009 117.283 34.0322 113.32 34.0469ZM113.483 40.097C114.053 40.097 114.574 40.1758 115.042 40.3261C117.185 41.0138 118.399 43.0721 118.048 45.3031C117.614 48.0502 115.361 50.0729 112.472 50.0729C111.903 50.0729 111.381 49.9947 110.913 49.8444C108.771 49.1566 107.548 47.0984 107.9 44.8674C108.333 42.1203 110.593 40.097 113.483 40.097Z" fill="#003087"/>
<path d="M154.708 25.9014C154.327 25.9014 154.003 26.178 153.944 26.5547L149.533 54.5256C149.517 54.6278 149.523 54.7322 149.552 54.8317C149.58 54.9312 149.629 55.0234 149.696 55.102C149.764 55.1806 149.847 55.2437 149.941 55.287C150.035 55.3303 150.137 55.3527 150.24 55.3527H155.471C155.852 55.3527 156.176 55.0756 156.235 54.6994L157.531 46.4855C157.59 46.1094 157.914 45.8323 158.295 45.8323H163.051C168.607 45.8323 173.324 41.7781 174.185 36.2845C175.054 30.7444 170.726 25.9134 164.592 25.9014H154.708ZM159.793 32.1456H163.598C166.73 32.1456 167.75 33.9939 167.428 36.0379C167.105 38.0863 165.521 39.5952 162.491 39.5952H158.618L159.793 32.1456ZM184.824 34.0469C183.503 34.0518 181.983 34.3224 180.277 35.0331C176.363 36.6644 174.484 40.0358 173.685 42.4937C173.685 42.4937 171.146 49.9925 176.886 54.1123C176.886 54.1123 182.208 58.0785 188.2 53.8679L188.097 54.5256C188.081 54.6278 188.087 54.7322 188.115 54.8317C188.144 54.9312 188.193 55.0234 188.26 55.102C188.328 55.1806 188.411 55.2437 188.505 55.287C188.599 55.3303 188.701 55.3527 188.804 55.3527H193.769C194.15 55.3527 194.474 55.0756 194.534 54.6994L197.555 35.5448C197.571 35.4426 197.565 35.338 197.537 35.2384C197.509 35.1387 197.46 35.0464 197.392 34.9676C197.325 34.8889 197.242 34.8257 197.148 34.7824C197.054 34.739 196.951 34.7166 196.848 34.7166H191.882C191.501 34.7166 191.177 34.9938 191.118 35.3699L190.956 36.4009C190.956 36.4009 188.786 34.0322 184.824 34.0469ZM184.986 40.097C185.556 40.097 186.078 40.1758 186.546 40.3261C188.688 41.0138 189.903 43.0721 189.551 45.3031C189.118 48.0502 186.865 50.0729 183.976 50.0729C183.406 50.0729 182.884 49.9947 182.416 49.8444C180.274 49.1566 179.052 47.0984 179.403 44.8674C179.837 42.1203 182.097 40.097 184.986 40.097Z" fill="#0070E0"/>
<path d="M128.404 34.7154C128.01 34.7154 127.73 35.0997 127.85 35.4742L133.294 52.3672L128.372 60.3279C128.133 60.7144 128.411 61.2136 128.865 61.2136H134.683C134.849 61.2134 135.013 61.1704 135.158 61.0886C135.303 61.0068 135.424 60.8891 135.51 60.7467L150.714 35.5955C150.947 35.209 150.668 34.7148 150.217 34.7148H144.4C144.232 34.715 144.066 34.7589 143.921 34.8422C143.775 34.9255 143.653 35.0453 143.568 35.1899L137.583 45.2937L134.545 35.2648C134.446 34.9384 134.145 34.7148 133.804 34.7148L128.404 34.7154Z" fill="#003087"/>
<path d="M203.198 25.9014C202.818 25.9014 202.494 26.1785 202.434 26.5547L198.022 54.5245C198.006 54.6268 198.012 54.7313 198.041 54.8309C198.069 54.9306 198.118 55.023 198.185 55.1017C198.253 55.1804 198.336 55.2436 198.43 55.287C198.524 55.3303 198.626 55.3527 198.73 55.3527H203.961C204.341 55.3527 204.665 55.0756 204.725 54.6994L209.135 26.7285C209.151 26.6264 209.145 26.5221 209.117 26.4226C209.089 26.3232 209.04 26.231 208.973 26.1525C208.905 26.0739 208.822 26.0108 208.728 25.9674C208.635 25.9241 208.532 25.9015 208.429 25.9014H203.198Z" fill="#0070E0"/>
<path d="M39.596 25.9014C39.2591 25.9016 38.9333 26.0221 38.6772 26.241C38.421 26.46 38.2514 26.7631 38.1987 27.0959L35.877 41.8213C35.9852 41.1335 36.5778 40.6268 37.2743 40.6268H44.0777C50.9249 40.6268 56.735 35.6317 57.7966 28.8627C57.8757 28.3574 57.9204 27.8473 57.9306 27.3359C56.1905 26.4234 54.1465 25.9014 51.9067 25.9014H39.596Z" fill="#001C64"/>
<path d="M57.9297 27.335C57.9195 27.8464 57.8747 28.3565 57.7957 28.8618C56.7341 35.6308 50.9234 40.6259 44.0768 40.6259H37.2733C36.5774 40.6259 35.9843 41.1321 35.876 41.8204L33.7412 55.3518L32.4041 63.8407C32.378 64.0047 32.3877 64.1724 32.4327 64.3323C32.4778 64.4921 32.5569 64.6403 32.6648 64.7666C32.7726 64.8929 32.9066 64.9943 33.0574 65.0638C33.2082 65.1333 33.3724 65.1692 33.5384 65.1691H40.923C41.2599 65.1688 41.5857 65.0484 41.8418 64.8295C42.098 64.6105 42.2676 64.3074 42.3203 63.9746L44.2654 51.6377C44.3181 51.3047 44.4879 51.0014 44.7443 50.7825C45.0006 50.5635 45.3267 50.4432 45.6638 50.4432H50.0116C56.8587 50.4432 62.6689 45.4481 63.7305 38.6791C64.4844 33.8749 62.0648 29.5031 57.9297 27.335Z" fill="#0070E0"/>
<path d="M31.2064 16.085C30.5105 16.085 29.9173 16.5912 29.8091 17.2784L24.0143 54.0241C23.9044 54.7217 24.4434 55.3525 25.1497 55.3525H33.743L35.8767 41.8211L38.1984 27.0957C38.2511 26.7629 38.4208 26.4598 38.6769 26.2408C38.933 26.0219 39.2588 25.9014 39.5958 25.9012H51.9065C54.1468 25.9012 56.1903 26.4238 57.9304 27.3357C58.0496 21.1729 52.9643 16.085 45.9728 16.085H31.2064Z" fill="#003087"/>
</g>
<defs>
<clipPath id="clip0_41_23262">
<rect width="185.143" height="45" fill="white" transform="translate(24 16)"/>
</clipPath>
</defs>
</svg>
