<svg width="160" height="64" viewBox="0 0 160 64" fill="none" xmlns="http://www.w3.org/2000/svg">
<rect width="160" height="64" rx="12" fill="#EFF4FB"/>
<g clip-path="url(#clip0_68_9535)">
<path d="M55.2781 19.9557C54.3674 21.0365 52.9102 21.8891 51.4531 21.7673C51.2709 20.3058 51.9843 18.753 52.8191 17.7939C53.7299 16.6826 55.3236 15.891 56.6138 15.8301C56.7656 17.3524 56.1736 18.8444 55.2781 19.9557ZM56.5986 22.0565C54.4888 21.9347 52.6825 23.2592 51.6808 23.2592C50.6638 23.2592 49.1308 22.1174 47.4611 22.1479C45.2906 22.1783 43.2718 23.4114 42.1638 25.3753C39.887 29.303 41.5718 35.1184 43.7727 38.3153C44.8504 39.8986 46.1406 41.6341 47.8406 41.5732C49.4495 41.5123 50.087 40.5228 52.0299 40.5228C53.9879 40.5228 54.5495 41.5732 56.2495 41.5427C58.0102 41.5123 59.1183 39.9595 60.1959 38.3762C61.4254 36.5798 61.9263 34.8291 61.9566 34.7378C61.9263 34.7073 58.5566 33.4133 58.5263 29.5161C58.4959 26.2582 61.1825 24.7054 61.304 24.6141C59.7861 22.361 57.4183 22.1174 56.5986 22.0565ZM68.787 17.6417V41.3753H72.4602V33.2611H77.545C82.1897 33.2611 85.4531 30.0641 85.4531 25.4362C85.4531 20.8082 82.2504 17.6417 77.6665 17.6417H68.787ZM72.4602 20.7473H76.695C79.8825 20.7473 81.704 22.4523 81.704 25.4514C81.704 28.4504 79.8825 30.1707 76.6799 30.1707H72.4602V20.7473ZM92.162 41.558C94.4691 41.558 96.6093 40.3857 97.5807 38.5285H97.6566V41.3753H101.057V29.5618C101.057 26.1365 98.3245 23.929 94.12 23.929C90.2191 23.929 87.3352 26.1669 87.229 29.2421H90.5379C90.8111 27.7806 92.162 26.8215 94.0138 26.8215C96.2602 26.8215 97.52 27.8719 97.52 29.8053V31.1146L92.9361 31.3886C88.6709 31.6474 86.3638 33.3981 86.3638 36.4428C86.3638 39.518 88.7468 41.558 92.162 41.558ZM93.1486 38.7416C91.1906 38.7416 89.9459 37.7977 89.9459 36.3515C89.9459 34.8596 91.145 33.9918 93.437 33.8548L97.52 33.596V34.9357C97.52 37.1583 95.6379 38.7416 93.1486 38.7416ZM105.595 47.8301C109.177 47.8301 110.862 46.46 112.334 42.3039L118.785 24.1574H115.051L110.725 38.1783H110.649L106.324 24.1574H102.483L108.707 41.4362L108.373 42.4866C107.811 44.2678 106.9 44.9528 105.276 44.9528C104.988 44.9528 104.426 44.9224 104.199 44.8919V47.7387C104.411 47.7996 105.322 47.8301 105.595 47.8301Z" fill="black"/>
</g>
<defs>
<clipPath id="clip0_68_9535">
<rect width="77.7143" height="32" fill="white" transform="translate(41.1428 16)"/>
</clipPath>
</defs>
</svg>
