<svg width="162" height="77" viewBox="0 0 162 77" fill="none" xmlns="http://www.w3.org/2000/svg">
<rect width="161.607" height="77" rx="12" fill="#EFF4FB"/>
<g clip-path="url(#clip0_41_23290)">
<path d="M77.6775 37.9854V51.1922H73.4172V18.5303H84.4939C87.192 18.5303 89.7482 19.5243 91.7363 21.3704C93.7244 23.0745 94.7185 25.6307 94.7185 28.3288C94.7185 31.027 93.7244 33.4411 91.7363 35.2872C89.7482 37.1333 87.334 38.1274 84.4939 38.1274L77.6775 37.9854ZM77.6775 22.5065V33.8672H84.7779C86.34 33.8672 87.9021 33.2991 88.8961 32.1631C91.1683 30.0329 91.1683 26.4827 89.0381 24.3526L88.8961 24.2106C87.7601 23.0745 86.34 22.3645 84.7779 22.5065H77.6775Z" fill="#5F6368"/>
<path d="M104.518 28.1855C107.642 28.1855 110.057 29.0376 111.903 30.7417C113.749 32.4458 114.601 34.7179 114.601 37.5581V51.1909H110.625V48.0667H110.483C108.779 50.6228 106.364 51.9009 103.524 51.9009C101.11 51.9009 98.98 51.1909 97.2759 49.7708C95.7138 48.3507 94.7197 46.3626 94.7197 44.2325C94.7197 41.9603 95.5718 40.1142 97.2759 38.6942C98.98 37.2741 101.394 36.706 104.234 36.706C106.79 36.706 108.779 37.1321 110.341 38.1261V37.1321C110.341 35.712 109.773 34.2919 108.637 33.4399C107.5 32.4458 106.08 31.8778 104.518 31.8778C102.104 31.8778 100.258 32.8718 98.98 34.8599L95.2878 32.5878C97.5599 29.6056 100.542 28.1855 104.518 28.1855ZM99.122 44.3745C99.122 45.5106 99.69 46.5046 100.542 47.0726C101.536 47.7827 102.672 48.2087 103.808 48.2087C105.512 48.2087 107.216 47.4987 108.495 46.2206C109.915 44.9425 110.625 43.3804 110.625 41.6763C109.347 40.6823 107.5 40.1142 105.086 40.1142C103.382 40.1142 101.962 40.5403 100.826 41.3923C99.69 42.1024 99.122 43.0964 99.122 44.3745Z" fill="#5F6368"/>
<path d="M137.606 28.8945L123.547 61.1304H119.287L124.541 49.9117L115.311 29.0365H119.855L126.529 45.0835H126.671L133.204 29.0365H137.606V28.8945Z" fill="#5F6368"/>
<path d="M60.7811 35.1448C60.7811 33.8667 60.6391 32.5886 60.4971 31.3105H42.7461V38.553H52.8287C52.4027 40.8251 51.1246 42.9552 49.1365 44.2333V48.9196H55.2428C58.793 45.6534 60.7811 40.8251 60.7811 35.1448Z" fill="#4285F4"/>
<path d="M42.7462 53.4644C47.8585 53.4644 52.1188 51.7603 55.2429 48.9201L49.1366 44.2339C47.4325 45.3699 45.3024 46.08 42.7462 46.08C37.9179 46.08 33.6577 42.8138 32.2376 38.2695H25.9893V43.0978C29.2554 49.4882 35.6458 53.4644 42.7462 53.4644Z" fill="#34A853"/>
<path d="M32.2378 38.2699C31.3857 35.9978 31.3857 33.4416 32.2378 31.0275V26.1992H25.9894C23.2913 31.4535 23.2913 37.7019 25.9894 43.0982L32.2378 38.2699Z" fill="#FBBC04"/>
<path d="M42.7458 23.3579C45.444 23.3579 48.0001 24.3519 49.9882 26.1981L55.3846 20.8017C51.9764 17.6776 47.4321 15.8315 42.8878 15.9735C35.7874 15.9735 29.255 19.9497 26.1309 26.3401L32.3792 31.1683C33.6573 26.6241 37.9175 23.3579 42.7458 23.3579Z" fill="#EA4335"/>
</g>
<defs>
<clipPath id="clip0_41_23290">
<rect width="113.607" height="45" fill="white" transform="translate(24 16)"/>
</clipPath>
</defs>
</svg>
