<svg width="155" height="77" viewBox="0 0 155 77" fill="none" xmlns="http://www.w3.org/2000/svg">
<rect width="154.714" height="77" rx="12" fill="#EFF4FB"/>
<g clip-path="url(#clip0_41_23272)">
<path d="M70.2432 55.3134H61.5986L67.0056 21.8809H75.6497L70.2432 55.3134Z" fill="#00579F"/>
<path d="M101.58 22.6978C99.8746 22.0213 97.1702 21.2744 93.8262 21.2744C85.2894 21.2744 79.2778 25.8267 79.2409 32.3351C79.17 37.137 83.545 39.804 86.8172 41.4051C90.1617 43.0412 91.2986 44.1091 91.2986 45.5674C91.2645 47.8072 88.596 48.8396 86.1072 48.8396C82.6558 48.8396 80.8066 48.3073 77.9962 47.0612L76.8579 46.527L75.6483 54.0319C77.6757 54.9556 81.4112 55.7753 85.2893 55.8112C94.3599 55.8112 100.265 51.3294 100.335 44.3937C100.37 40.5878 98.0594 37.6716 93.0788 35.2886C90.0553 33.7589 88.2037 32.7274 88.2037 31.1623C88.2391 29.7394 89.7698 28.282 93.1828 28.282C95.9931 28.2106 98.058 28.8861 99.6222 29.5621L100.404 29.9171L101.58 22.6978Z" fill="#00579F"/>
<path d="M113.07 43.4694C113.782 41.5488 116.521 34.1153 116.521 34.1153C116.485 34.1867 117.232 32.1592 117.658 30.9145L118.263 33.7953C118.263 33.7953 119.9 41.7979 120.255 43.4694C118.904 43.4694 114.777 43.4694 113.07 43.4694ZM123.74 21.8809H117.054C114.992 21.8809 113.425 22.485 112.536 24.6548L99.6952 55.3129H108.766C108.766 55.3129 110.259 51.1866 110.58 50.2979C111.575 50.2979 120.399 50.2979 121.679 50.2979C121.927 51.4716 122.71 55.3129 122.71 55.3129H130.715L123.74 21.8809Z" fill="#00579F"/>
<path d="M54.3779 21.8809L45.912 44.6787L44.9869 40.055C43.4217 34.7199 38.513 28.9234 33.0352 26.0413L40.7896 55.278H49.9311L63.5189 21.8809H54.3779Z" fill="#00579F"/>
<path d="M38.0506 21.8809H24.1423L24 22.5564C34.8494 25.3308 42.0347 32.0183 44.9868 40.0564L41.9633 24.6912C41.4655 22.5559 39.9358 21.9513 38.0506 21.8809Z" fill="#FAA61A"/>
</g>
<defs>
<clipPath id="clip0_41_23272">
<rect width="106.714" height="45" fill="white" transform="translate(24 16)"/>
</clipPath>
</defs>
</svg>
