<svg width="164" height="64" viewBox="0 0 164 64" fill="none" xmlns="http://www.w3.org/2000/svg">
<rect x="0.5" width="163.5" height="64" rx="12" fill="#EFF4FB"/>
<path d="M65.2919 52.2245V49.4825C65.2919 48.4336 64.653 47.7468 63.5562 47.7468C63.0078 47.7468 62.4115 47.9278 62.0015 48.5241C61.6821 48.0236 61.2242 47.7468 60.5373 47.7468C60.0795 47.7468 59.6216 47.8852 59.2595 48.3857V47.8373H58.3011V52.2245H59.2595V49.8019C59.2595 49.0246 59.6695 48.6572 60.3084 48.6572C60.9473 48.6572 61.2668 49.0672 61.2668 49.8019V52.2245H62.2251V49.8019C62.2251 49.0246 62.683 48.6572 63.274 48.6572C63.9129 48.6572 64.2324 49.0672 64.2324 49.8019V52.2245H65.2919ZM79.5077 47.8373H77.953V46.5115H76.9946V47.8373H76.1268V48.7051H76.9946V50.7177C76.9946 51.724 77.4046 52.315 78.5014 52.315C78.9114 52.315 79.3692 52.1765 79.6887 51.9955L79.4118 51.1703C79.135 51.3513 78.8155 51.3992 78.5866 51.3992C78.1287 51.3992 77.9477 51.1223 77.9477 50.6698V48.7051H79.5023V47.8373H79.5077ZM87.6431 47.7414C87.0947 47.7414 86.7274 48.0183 86.4984 48.3803V47.8319H85.5401V52.2191H86.4984V49.7487C86.4984 49.0193 86.8179 48.604 87.4142 48.604C87.5952 48.604 87.8242 48.6519 88.0105 48.6945L88.2874 47.7787C88.0957 47.7414 87.8242 47.7414 87.6431 47.7414ZM75.3494 48.1993C74.8915 47.8799 74.2526 47.7414 73.5658 47.7414C72.469 47.7414 71.7396 48.2898 71.7396 49.1577C71.7396 49.8871 72.288 50.3024 73.2463 50.4355L73.7042 50.4834C74.2047 50.5739 74.4816 50.7124 74.4816 50.9413C74.4816 51.2608 74.1142 51.4897 73.4753 51.4897C72.8364 51.4897 72.3306 51.2608 72.0111 51.0318L71.5532 51.7612C72.0537 52.1286 72.7405 52.3097 73.4274 52.3097C74.7052 52.3097 75.4399 51.7133 75.4399 50.8934C75.4399 50.1161 74.8436 49.7061 73.9332 49.5677L73.4753 49.5197C73.0653 49.4718 72.7459 49.3813 72.7459 49.1098C72.7459 48.7903 73.0653 48.6093 73.5711 48.6093C74.1195 48.6093 74.6679 48.8382 74.9448 48.9767L75.3494 48.1993ZM100.847 47.7414C100.299 47.7414 99.9315 48.0183 99.7026 48.3803V47.8319H98.7442V52.2191H99.7026V49.7487C99.7026 49.0193 100.022 48.604 100.618 48.604C100.799 48.604 101.028 48.6519 101.215 48.6945L101.492 47.7894C101.305 47.7414 101.034 47.7414 100.847 47.7414ZM88.6015 50.0309C88.6015 51.3566 89.5173 52.315 90.9335 52.315C91.5724 52.315 92.0303 52.1765 92.4882 51.8145L92.0303 51.0372C91.663 51.314 91.3009 51.4471 90.8856 51.4471C90.1083 51.4471 89.5599 50.8987 89.5599 50.0309C89.5599 49.2056 90.1083 48.6572 90.8856 48.6146C91.2956 48.6146 91.663 48.753 92.0303 49.0246L92.4882 48.2472C92.0303 47.8799 91.5724 47.7468 90.9335 47.7468C89.5173 47.7414 88.6015 48.7051 88.6015 50.0309ZM97.4664 50.0309V47.8373H96.508V48.3857C96.1886 47.9757 95.7307 47.7468 95.1344 47.7468C93.8991 47.7468 92.9408 48.7051 92.9408 50.0309C92.9408 51.3566 93.8991 52.315 95.1344 52.315C95.7733 52.315 96.2312 52.086 96.508 51.6761V52.2245H97.4664V50.0309ZM93.9471 50.0309C93.9471 49.2535 94.4475 48.6146 95.2728 48.6146C96.0501 48.6146 96.5985 49.2109 96.5985 50.0309C96.5985 50.8082 96.0501 51.4471 95.2728 51.4471C94.4529 51.3992 93.9471 50.8029 93.9471 50.0309ZM82.4786 47.7414C81.2008 47.7414 80.285 48.6572 80.285 50.0255C80.285 51.3992 81.2008 52.3097 82.5265 52.3097C83.1654 52.3097 83.8043 52.1286 84.3102 51.7133L83.8523 51.0265C83.4849 51.3034 83.027 51.4844 82.5744 51.4844C81.9781 51.4844 81.3871 51.2075 81.2487 50.4355H84.4912C84.4912 50.2971 84.4912 50.2066 84.4912 50.0681C84.5338 48.6572 83.7085 47.7414 82.4786 47.7414ZM82.4786 48.5667C83.0749 48.5667 83.4849 48.9341 83.5754 49.6156H81.2913C81.3818 49.0246 81.7918 48.5667 82.4786 48.5667ZM106.289 50.0309V46.1016H105.33V48.3857C105.011 47.9757 104.553 47.7468 103.957 47.7468C102.721 47.7468 101.763 48.7051 101.763 50.0309C101.763 51.3566 102.721 52.315 103.957 52.315C104.596 52.315 105.053 52.086 105.33 51.6761V52.2245H106.289V50.0309ZM102.769 50.0309C102.769 49.2535 103.27 48.6146 104.095 48.6146C104.872 48.6146 105.421 49.2109 105.421 50.0309C105.421 50.8082 104.872 51.4471 104.095 51.4471C103.27 51.3992 102.769 50.8029 102.769 50.0309ZM70.6854 50.0309V47.8373H69.727V48.3857C69.4076 47.9757 68.9497 47.7468 68.3533 47.7468C67.1181 47.7468 66.1598 48.7051 66.1598 50.0309C66.1598 51.3566 67.1181 52.315 68.3533 52.315C68.9923 52.315 69.4501 52.086 69.727 51.6761V52.2245H70.6854V50.0309ZM67.1234 50.0309C67.1234 49.2535 67.6239 48.6146 68.4492 48.6146C69.2265 48.6146 69.7749 49.2109 69.7749 50.0309C69.7749 50.8082 69.2265 51.4471 68.4492 51.4471C67.6239 51.3992 67.1234 50.8029 67.1234 50.0309Z" fill="black"/>
<path d="M89.4262 14.5195H75.0294V40.3848H89.4262V14.5195Z" fill="#FF5A00"/>
<path d="M75.9887 27.452C75.9887 22.1969 78.4592 17.5329 82.25 14.5193C79.4601 12.3257 75.9408 11 72.102 11C63.0082 11 55.65 18.3581 55.65 27.452C55.65 36.5458 63.0082 43.9039 72.102 43.9039C75.9408 43.9039 79.4601 42.5782 82.25 40.3846C78.4538 37.4136 75.9887 32.707 75.9887 27.452Z" fill="#EB001B"/>
<path d="M108.85 27.452C108.85 36.5458 101.492 43.9039 92.3978 43.9039C88.559 43.9039 85.0397 42.5782 82.2498 40.3846C86.0885 37.3657 88.5111 32.707 88.5111 27.452C88.5111 22.1969 86.0406 17.5329 82.2498 14.5193C85.0343 12.3257 88.5537 11 92.3925 11C101.492 11 108.85 18.406 108.85 27.452Z" fill="#F79E1B"/>
</svg>
