<svg width="337" height="343" viewBox="0 0 337 343" fill="none" xmlns="http://www.w3.org/2000/svg">
<path d="M322.996 265.02C322.996 268.074 321.311 271.137 317.941 272.482L284.641 285.77L192.417 322.574C179.626 327.678 165.358 327.678 152.567 322.574L60.3429 285.77L27.0423 272.482C23.6724 271.137 21.9874 268.074 21.9874 265.02C21.9874 261.965 23.6724 258.902 27.0423 257.558L152.567 207.457C165.358 202.353 179.626 202.353 192.417 207.457L317.941 257.558C321.311 258.902 322.996 261.965 322.996 265.02Z" fill="url(#paint0_linear_68_9643)"/>
<path d="M322.996 265.019V281.619C322.996 284.682 321.311 287.736 317.941 289.081L192.417 339.173C179.626 344.278 165.358 344.278 152.567 339.173L27.0423 289.081C23.6724 287.736 21.9874 284.682 21.9874 281.619V265.019C21.9874 268.073 23.6724 271.136 27.0423 272.48L60.3429 285.769L152.567 322.572C165.358 327.677 179.626 327.677 192.417 322.572L284.641 285.769L317.941 272.48C321.311 271.136 322.996 268.073 322.996 265.019Z" fill="white"/>
<path d="M172.488 340.976C165.889 340.976 159.44 339.739 153.314 337.29L27.7896 287.198C25.009 286.086 24.0129 283.588 24.0129 281.621V273.121C24.6936 273.619 25.4572 274.034 26.2789 274.366L151.804 324.458C158.411 327.098 165.366 328.434 172.48 328.434C179.593 328.434 186.548 327.098 193.155 324.458L285.38 287.655L318.68 274.366C319.502 274.034 320.266 273.619 320.954 273.121V281.621C320.954 283.588 319.958 286.086 317.178 287.198L191.653 337.29C185.528 339.739 179.078 340.976 172.48 340.976H172.488Z" fill="url(#paint1_linear_68_9643)"/>
<path style="mix-blend-mode:color-dodge" d="M303.415 243.14L190.424 198.044C178.903 193.446 166.063 193.446 154.55 198.044L41.5589 243.14C38.5293 244.352 37.0104 247.107 37.0104 249.855C37.0104 252.602 38.5293 255.358 41.5589 256.57L71.5311 268.53L154.542 301.657C166.054 306.255 178.895 306.255 190.416 301.657L273.426 268.53L303.407 256.57C306.445 255.358 307.956 252.61 307.956 249.855C307.956 247.099 306.437 244.352 303.407 243.14H303.415ZM302.66 253.772L272.679 265.733L189.669 298.868C184.182 301.059 178.397 302.171 172.487 302.171C166.577 302.171 160.792 301.059 155.306 298.868L42.3225 253.772C39.9072 252.81 39.0522 250.643 39.0522 248.942C39.0522 247.24 39.9072 245.074 42.3225 244.111L155.306 199.016C160.792 196.824 166.577 195.712 172.487 195.712C178.397 195.712 184.182 196.824 189.669 199.016L302.66 244.111C305.067 245.074 305.93 247.24 305.93 248.942C305.93 250.643 305.067 252.81 302.66 253.772Z" fill="url(#paint2_linear_68_9643)"/>
<path d="M305.93 248.941C305.93 250.643 305.067 252.809 302.66 253.772L272.68 265.733L189.669 298.867C184.182 301.059 178.397 302.171 172.487 302.171C166.577 302.171 160.792 301.059 155.306 298.867L42.3227 253.772C39.9073 252.809 39.0524 250.643 39.0524 248.941C39.0524 247.24 39.9073 245.074 42.3227 244.111L155.306 199.015C160.792 196.824 166.577 195.712 172.487 195.712C178.397 195.712 184.182 196.824 189.669 199.015L302.66 244.111C305.067 245.074 305.93 247.24 305.93 248.941Z" fill="url(#paint3_linear_68_9643)"/>
<path d="M307.965 249.854V261.209C307.965 263.965 306.454 266.712 303.416 267.924L190.425 313.019C178.913 317.618 166.072 317.618 154.551 313.019L41.5683 267.924C38.5387 266.712 37.0198 263.965 37.0198 261.209V249.854C37.0198 252.602 38.5387 255.358 41.5683 256.569L71.5405 268.53L154.551 301.665C166.064 306.263 178.904 306.263 190.425 301.665L273.436 268.53L303.416 256.569C306.454 255.358 307.965 252.602 307.965 249.854Z" fill="url(#paint4_linear_68_9643)"/>
<g clip-path="url(#clip0_68_9643)">
<mask id="mask0_68_9643" style="mask-type:luminance" maskUnits="userSpaceOnUse" x="97" y="141" width="161" height="108">
<path d="M250.385 243.16C250.114 246.385 247.279 248.781 244.055 248.51L103.077 236.648C99.8531 236.377 97.457 233.542 97.7282 230.317L104.749 146.899C105.02 143.675 107.855 141.279 111.079 141.55L252.057 153.412C255.281 153.683 257.677 156.518 257.406 159.742L250.385 243.16Z" fill="white"/>
</mask>
<g mask="url(#mask0_68_9643)">
<rect x="27.6078" y="12.543" width="282.083" height="282.083" fill="#F55F6A"/>
</g>
<g opacity="0.46">
<path style="mix-blend-mode:screen" d="M252.042 153.362L144.698 144.33L193.205 244.18L244.04 248.46C247.264 248.731 250.099 246.34 250.37 243.11L257.391 159.692C257.662 156.468 255.266 153.633 252.042 153.362Z" fill="url(#paint5_linear_68_9643)"/>
</g>
<g opacity="0.5">
<path d="M116.205 186.262C116.077 187.776 117.206 189.107 118.714 189.235L119.557 189.304L119.996 184.078L116.412 183.777L116.205 186.262Z" fill="white"/>
<path d="M120.036 173.457C119.306 173.398 118.596 173.625 118.039 174.098C117.477 174.572 117.137 175.237 117.073 175.972L116.92 177.771L120.504 178.072L120.884 173.531L120.041 173.462C120.041 173.462 120.036 173.462 120.031 173.462L120.036 173.457Z" fill="white"/>
<path d="M123.004 183.579C123.068 182.8 123.408 182.071 123.965 181.509C123.512 180.863 123.295 180.089 123.364 179.31C123.383 179.098 123.423 178.891 123.477 178.694L120.849 178.472L120.406 183.737L123.014 183.954C123.014 183.831 122.994 183.707 123.009 183.579H123.004Z" fill="white"/>
<path d="M116.887 178.134L116.444 183.4L120.03 183.702L120.473 178.436L116.887 178.134Z" fill="white"/>
<path d="M129.96 178.866L132.973 179.118L133.352 174.577L127.476 174.084L127.288 176.307C128.634 176.549 129.665 177.575 129.956 178.866H129.96Z" fill="white"/>
<path d="M126.923 176.253L127.11 174.055L121.258 173.562L120.879 178.102L123.615 178.334C124.147 177.032 125.454 176.155 126.928 176.253H126.923Z" fill="white"/>
<path d="M134.003 184.88L134.447 179.615L130.039 179.245C130.059 179.452 130.069 179.659 130.049 179.871C129.985 180.65 129.645 181.38 129.088 181.942C129.541 182.588 129.758 183.362 129.689 184.141C129.679 184.269 129.645 184.387 129.62 184.511L134.008 184.88H134.003Z" fill="white"/>
<path d="M132.401 190.382L133.22 190.451C133.22 190.451 133.224 190.451 133.229 190.451C133.959 190.51 134.669 190.284 135.226 189.81C135.788 189.337 136.133 188.671 136.192 187.937L136.399 185.452L132.84 185.151L132.401 190.377V190.382Z" fill="white"/>
<path d="M123.028 184.333L120.371 184.111L119.932 189.337L125.784 189.83L126.006 187.198C124.448 187.04 123.245 185.832 123.033 184.338L123.028 184.333Z" fill="white"/>
<path d="M134.819 179.649L134.376 184.915L136.434 185.088L136.877 179.822L134.819 179.649Z" fill="white"/>
<path d="M134.545 174.679L133.727 174.61L133.347 179.151L136.907 179.452L137.06 177.652C137.119 176.918 136.892 176.208 136.419 175.646C135.946 175.084 135.28 174.743 134.545 174.679Z" fill="white"/>
<path d="M126.376 187.198L126.154 189.855L132.031 190.348L132.47 185.122L129.536 184.876C129.103 186.232 127.835 187.178 126.381 187.193L126.376 187.198Z" fill="white"/>
<path d="M129.314 184.112C129.379 183.372 129.152 182.633 128.688 182.036L128.58 181.903L128.708 181.79C129.265 181.277 129.61 180.587 129.674 179.847C129.812 178.21 128.59 176.766 126.953 176.628C125.316 176.49 123.872 177.712 123.733 179.349C123.669 180.089 123.896 180.828 124.36 181.425L124.463 181.558L124.335 181.671C123.778 182.184 123.433 182.874 123.369 183.614C123.231 185.251 124.453 186.695 126.09 186.833C127.727 186.971 129.171 185.749 129.309 184.112H129.314Z" fill="white"/>
</g>
<path d="M140.112 179.62C139.988 179.611 139.865 179.655 139.776 179.754C139.629 179.916 139.638 180.173 139.806 180.321C140.447 180.902 140.787 181.809 140.708 182.741C140.629 183.688 140.141 184.526 139.402 184.984C139.214 185.103 139.155 185.349 139.274 185.542C139.387 185.724 139.643 185.783 139.831 185.67C140.782 185.078 141.413 184.008 141.512 182.81C141.61 181.627 141.177 180.468 140.348 179.724C140.279 179.665 140.195 179.63 140.112 179.62Z" fill="#E9E9F4"/>
<path d="M142.326 178.461C142.326 178.461 142.296 178.461 142.281 178.461C142.173 178.461 142.074 178.51 142 178.584C141.847 178.747 141.852 179.003 142.015 179.156C142.996 180.083 143.504 181.508 143.386 182.967C143.257 184.51 142.454 185.871 141.236 186.601C141.142 186.655 141.078 186.744 141.054 186.847C141.029 186.951 141.044 187.059 141.098 187.153C141.206 187.335 141.463 187.404 141.65 187.291C143.085 186.428 144.036 184.836 144.189 183.036C144.332 181.335 143.726 179.664 142.572 178.569C142.503 178.505 142.419 178.466 142.33 178.461H142.326Z" fill="#E9E9F4"/>
<path d="M144.539 177.303C144.539 177.303 144.514 177.303 144.499 177.303C144.391 177.303 144.292 177.347 144.218 177.426C144.144 177.505 144.1 177.603 144.105 177.712C144.105 177.82 144.149 177.919 144.228 177.998C145.54 179.275 146.225 181.222 146.057 183.199C145.875 185.344 144.756 187.222 143.06 188.223C142.966 188.277 142.902 188.366 142.872 188.47C142.848 188.573 142.863 188.682 142.917 188.775C143.025 188.958 143.282 189.027 143.469 188.918C145.392 187.784 146.659 185.669 146.861 183.268C147.048 181.05 146.274 178.866 144.79 177.421C144.721 177.357 144.637 177.318 144.544 177.308L144.539 177.303Z" fill="#E9E9F4"/>
<g style="mix-blend-mode:overlay">
<path fill-rule="evenodd" clip-rule="evenodd" d="M250.385 243.16C250.114 246.385 247.279 248.781 244.055 248.51L103.077 236.648C99.8531 236.377 97.457 233.542 97.7282 230.317L104.749 146.899C105.02 143.675 107.855 141.279 111.079 141.55L252.057 153.412C255.281 153.683 257.677 156.518 257.406 159.742L250.385 243.16Z" stroke="url(#paint6_linear_68_9643)" stroke-width="0.320459" stroke-miterlimit="10"/>
</g>
<g style="mix-blend-mode:soft-light" opacity="0.6">
<g style="mix-blend-mode:color-burn">
<path d="M253.998 200.194L151.417 191.882C150.559 191.813 149.918 191.058 149.987 190.201L151.012 177.57C151.082 176.712 151.836 176.071 152.694 176.14L255.275 184.452L253.998 200.189V200.194Z" fill="#912350"/>
</g>
<g style="mix-blend-mode:color-burn">
<path d="M111.428 188.642L101.174 187.809L102.451 172.072L112.705 172.905C113.563 172.974 114.204 173.729 114.135 174.587L113.11 187.218C113.041 188.076 112.286 188.716 111.428 188.647V188.642Z" fill="#912350"/>
</g>
</g>
<path d="M214.77 211.741L99.9912 202.443L100.854 191.784L215.633 201.082C216.51 201.151 217.161 201.921 217.087 202.793L216.481 210.282C216.412 211.16 215.643 211.81 214.77 211.736V211.741Z" fill="url(#paint7_linear_68_9643)"/>
<path d="M200.556 204.992C200.767 205.009 200.952 205.066 201.113 205.163C201.275 205.256 201.396 205.382 201.478 205.539C201.56 205.697 201.593 205.873 201.577 206.069C201.559 206.276 201.492 206.455 201.375 206.605C201.258 206.752 201.107 206.861 200.923 206.931C200.739 207.002 200.537 207.028 200.317 207.01C199.878 206.973 199.547 206.806 199.326 206.511C199.108 206.216 199.021 205.812 199.064 205.299C199.094 204.939 199.186 204.638 199.338 204.396C199.491 204.15 199.69 203.972 199.937 203.86C200.186 203.746 200.466 203.702 200.778 203.728C200.942 203.742 201.095 203.773 201.235 203.822C201.379 203.868 201.502 203.929 201.603 204.005L201.345 204.435C201.195 204.318 200.997 204.249 200.749 204.229C200.441 204.203 200.192 204.277 200.002 204.452C199.812 204.626 199.702 204.892 199.672 205.249L199.672 205.254C199.776 205.152 199.903 205.08 200.054 205.037C200.206 204.991 200.373 204.976 200.556 204.992ZM200.324 206.54C200.511 206.555 200.666 206.519 200.79 206.431C200.914 206.34 200.984 206.213 200.997 206.048C201.012 205.88 200.965 205.742 200.857 205.635C200.749 205.527 200.598 205.465 200.402 205.449C200.21 205.433 200.048 205.471 199.918 205.565C199.79 205.659 199.719 205.785 199.706 205.944C199.693 206.099 199.74 206.234 199.847 206.347C199.958 206.458 200.117 206.522 200.324 206.54ZM204.025 205.579C204.186 205.669 204.306 205.784 204.383 205.922C204.464 206.058 204.497 206.213 204.482 206.387C204.466 206.582 204.397 206.749 204.274 206.886C204.155 207.024 203.993 207.124 203.788 207.186C203.583 207.246 203.349 207.265 203.087 207.243C202.824 207.221 202.597 207.163 202.405 207.07C202.217 206.974 202.075 206.849 201.98 206.693C201.886 206.537 201.847 206.362 201.863 206.167C201.878 205.993 201.935 205.845 202.034 205.725C202.134 205.601 202.269 205.508 202.44 205.445C202.318 205.364 202.227 205.264 202.166 205.145C202.109 205.024 202.086 204.888 202.099 204.739C202.114 204.559 202.176 204.405 202.285 204.279C202.397 204.154 202.546 204.062 202.732 204.003C202.919 203.945 203.129 203.926 203.364 203.946C203.602 203.966 203.808 204.02 203.982 204.109C204.156 204.197 204.288 204.313 204.377 204.455C204.467 204.598 204.504 204.76 204.489 204.94C204.476 205.089 204.43 205.218 204.35 205.325C204.271 205.432 204.162 205.516 204.025 205.579ZM203.325 204.413C203.139 204.397 202.987 204.425 202.871 204.495C202.757 204.565 202.695 204.672 202.683 204.815C202.671 204.953 202.715 205.067 202.815 205.159C202.918 205.247 203.063 205.299 203.249 205.315C203.438 205.331 203.591 205.304 203.708 205.234C203.825 205.161 203.889 205.055 203.9 204.918C203.913 204.774 203.865 204.658 203.759 204.569C203.656 204.481 203.511 204.429 203.325 204.413ZM203.126 206.776C203.346 206.794 203.524 206.763 203.66 206.682C203.796 206.601 203.87 206.48 203.884 206.318C203.897 206.16 203.844 206.029 203.723 205.927C203.603 205.824 203.433 205.764 203.213 205.745C202.993 205.727 202.817 205.758 202.684 205.839C202.551 205.92 202.478 206.04 202.465 206.199C202.451 206.361 202.503 206.493 202.62 206.595C202.738 206.697 202.906 206.757 203.126 206.776ZM207.411 204.286C207.85 204.323 208.179 204.489 208.397 204.784C208.618 205.08 208.707 205.484 208.664 205.997C208.634 206.357 208.542 206.66 208.389 206.905C208.237 207.147 208.036 207.325 207.786 207.44C207.54 207.551 207.261 207.594 206.95 207.568C206.785 207.554 206.631 207.524 206.487 207.478C206.347 207.429 206.226 207.367 206.125 207.291L206.382 206.861C206.532 206.978 206.731 207.047 206.978 207.067C207.287 207.093 207.536 207.019 207.726 206.844C207.916 206.67 208.026 206.404 208.056 206.047L208.056 206.042C207.952 206.144 207.824 206.218 207.673 206.264C207.522 206.306 207.355 206.32 207.172 206.304C206.961 206.287 206.775 206.231 206.614 206.138C206.453 206.041 206.331 205.914 206.249 205.756C206.167 205.599 206.135 205.423 206.151 205.227C206.168 205.02 206.236 204.842 206.353 204.695C206.47 204.545 206.62 204.435 206.805 204.365C206.989 204.294 207.191 204.268 207.411 204.286ZM207.325 205.847C207.518 205.863 207.678 205.824 207.806 205.731C207.936 205.637 208.008 205.511 208.022 205.352C208.035 205.197 207.986 205.063 207.876 204.953C207.768 204.839 207.611 204.774 207.403 204.756C207.217 204.74 207.062 204.778 206.937 204.869C206.813 204.957 206.744 205.083 206.73 205.248C206.716 205.416 206.763 205.554 206.871 205.661C206.979 205.769 207.13 205.831 207.325 205.847ZM210.095 205.808C210.547 205.846 210.874 205.963 211.076 206.158C211.278 206.35 211.366 206.597 211.341 206.9C211.324 207.092 211.262 207.262 211.155 207.41C211.047 207.557 210.895 207.669 210.698 207.745C210.501 207.82 210.263 207.846 209.986 207.823C209.757 207.804 209.538 207.753 209.33 207.671C209.122 207.586 208.949 207.479 208.813 207.351L209.103 206.91C209.214 207.017 209.35 207.107 209.509 207.179C209.673 207.248 209.843 207.29 210.02 207.305C210.231 207.323 210.399 207.294 210.525 207.218C210.655 207.14 210.726 207.025 210.739 206.872C210.753 206.707 210.697 206.578 210.573 206.485C210.452 206.388 210.234 206.327 209.92 206.301L209.146 206.235L209.458 204.505L211.34 204.663L211.298 205.162L209.92 205.046L209.788 205.782L210.095 205.808Z" fill="#F4F4F9"/>
<mask id="mask1_68_9643" style="mask-type:luminance" maskUnits="userSpaceOnUse" x="75" y="54" width="162" height="111">
<path d="M80.722 69.9262L221.354 54.4997C224.569 54.1471 227.462 56.4732 227.815 59.6831L236.943 142.903C237.296 146.118 234.97 149.011 231.76 149.363L91.128 164.79C87.9131 165.143 85.0145 162.817 84.6619 159.602L75.5342 76.3924C75.1816 73.1775 77.5071 70.2789 80.722 69.9262Z" fill="white"/>
</mask>
<g mask="url(#mask1_68_9643)">
<rect x="27.6077" y="12.54" width="282.083" height="282.083" fill="url(#paint8_linear_68_9643)"/>
</g>
<g opacity="0.46">
<path style="mix-blend-mode:screen" d="M221.326 54.4451L114.244 66.1986L181.027 154.877L231.739 149.311C234.958 148.956 237.28 146.067 236.925 142.848L227.79 59.6316C227.435 56.4123 224.541 54.0951 221.326 54.4451Z" fill="url(#paint9_linear_68_9643)"/>
</g>
<g opacity="0.5">
<path fill-rule="evenodd" clip-rule="evenodd" d="M198.683 137.341L198.964 139.86L200.724 138.391L198.683 137.341Z" fill="white"/>
<path d="M189.894 137.135L189.194 139.337L188.975 139.361L187.815 137.363L188.055 137.337L189.059 139.072L189.669 137.16L189.894 137.135ZM191.619 138.503L190.45 138.631L190.259 139.22L190.028 139.245L190.758 137.04L190.977 137.016L192.167 139.01L191.933 139.036L191.619 138.503ZM191.519 138.332L190.891 137.259L190.511 138.442L191.519 138.332ZM192.284 136.873L192.506 136.849L192.715 138.756L193.891 138.627L193.912 138.819L192.514 138.972L192.284 136.873ZM194.05 136.679L194.272 136.655L194.502 138.754L194.28 138.779L194.05 136.679ZM194.955 136.58L195.81 136.486C196.032 136.462 196.233 136.485 196.413 136.557C196.592 136.626 196.738 136.735 196.849 136.885C196.961 137.033 197.027 137.209 197.05 137.412C197.072 137.616 197.045 137.804 196.969 137.974C196.892 138.142 196.774 138.281 196.614 138.389C196.453 138.496 196.262 138.561 196.04 138.586L195.185 138.679L194.955 136.58ZM196.007 138.395C196.191 138.375 196.348 138.321 196.478 138.234C196.608 138.145 196.704 138.032 196.766 137.896C196.828 137.758 196.849 137.604 196.831 137.437C196.812 137.269 196.758 137.125 196.668 137.005C196.578 136.883 196.46 136.794 196.314 136.737C196.168 136.679 196.003 136.659 195.819 136.679L195.198 136.747L195.386 138.463L196.007 138.395Z" fill="white"/>
<path d="M188.784 140.041L187.98 140.129L187.957 139.92L189.807 139.717L189.83 139.926L189.026 140.015L189.254 142.093L189.012 142.12L188.784 140.041ZM192.105 139.465L192.356 141.753L192.118 141.779L192.002 140.723L190.57 140.881L190.686 141.936L190.444 141.963L190.193 139.675L190.435 139.648L190.547 140.668L191.979 140.511L191.867 139.491L192.105 139.465ZM194.666 141.5L194.062 140.822C194.004 140.835 193.943 140.845 193.88 140.852L193.266 140.919L193.345 141.645L193.103 141.671L192.852 139.383L193.709 139.289C194.001 139.257 194.237 139.302 194.418 139.423C194.599 139.544 194.703 139.727 194.73 139.971C194.749 140.15 194.72 140.306 194.642 140.44C194.566 140.572 194.447 140.675 194.286 140.748L194.931 141.471L194.666 141.5ZM193.851 140.646C194.078 140.621 194.245 140.552 194.354 140.439C194.463 140.326 194.508 140.178 194.488 139.998C194.467 139.812 194.392 139.677 194.261 139.592C194.131 139.505 193.952 139.474 193.725 139.499L193.117 139.566L193.243 140.713L193.851 140.646ZM196.389 141.331C196.093 141.363 195.853 141.303 195.669 141.152C195.484 141 195.374 140.762 195.339 140.437L195.195 139.126L195.437 139.1L195.58 140.401C195.609 140.666 195.69 140.858 195.825 140.976C195.959 141.093 196.139 141.14 196.366 141.115C196.595 141.09 196.762 141.005 196.867 140.861C196.973 140.717 197.011 140.513 196.982 140.247L196.839 138.946L197.074 138.92L197.218 140.231C197.254 140.555 197.198 140.812 197.051 141C196.906 141.188 196.686 141.298 196.389 141.331Z" fill="white"/>
<path d="M204.116 140.733C203.74 140.774 203.393 140.711 203.074 140.544C202.76 140.377 202.5 140.117 202.292 139.765C202.089 139.407 201.959 138.975 201.904 138.47C201.848 137.965 201.881 137.518 202.003 137.129C202.129 136.735 202.327 136.423 202.597 136.191C202.872 135.959 203.197 135.823 203.572 135.781C203.948 135.74 204.293 135.803 204.607 135.971C204.925 136.137 205.189 136.399 205.397 136.757C205.604 137.109 205.736 137.538 205.791 138.044C205.847 138.549 205.811 138.998 205.686 139.392C205.56 139.782 205.359 140.092 205.084 140.324C204.814 140.555 204.491 140.692 204.116 140.733ZM204.065 140.274C204.348 140.243 204.587 140.137 204.783 139.956C204.984 139.774 205.128 139.526 205.216 139.212C205.303 138.897 205.323 138.527 205.277 138.1C205.23 137.673 205.13 137.316 204.976 137.028C204.822 136.74 204.628 136.529 204.393 136.395C204.162 136.261 203.906 136.209 203.623 136.24C203.34 136.271 203.098 136.378 202.898 136.559C202.702 136.74 202.56 136.988 202.473 137.303C202.385 137.617 202.365 137.988 202.411 138.414C202.458 138.841 202.558 139.198 202.712 139.486C202.866 139.774 203.058 139.986 203.288 140.12C203.523 140.254 203.782 140.305 204.065 140.274ZM207.74 137.386C208.444 137.309 208.971 137.38 209.319 137.6C209.671 137.815 209.871 138.15 209.921 138.604C209.952 138.887 209.913 139.147 209.803 139.384C209.697 139.621 209.52 139.819 209.27 139.977C209.019 140.132 208.701 140.23 208.317 140.272C207.969 140.31 207.631 140.291 207.304 140.214C206.981 140.132 206.713 140.007 206.503 139.838L206.702 139.415C206.883 139.564 207.111 139.677 207.387 139.755C207.663 139.828 207.953 139.847 208.259 139.814C208.663 139.77 208.963 139.645 209.161 139.44C209.364 139.235 209.449 138.982 209.416 138.681C209.379 138.347 209.226 138.108 208.957 137.964C208.693 137.819 208.266 137.779 207.677 137.844L206.641 137.957L206.624 135.489L209.287 135.197L209.336 135.642L207.111 135.886L207.114 137.455L207.74 137.386ZM211.831 133.918L212.283 133.869L210.707 140.671L210.255 140.721L211.831 133.918ZM216.319 138.902L216.368 139.347L212.953 139.721L212.914 139.367L214.72 137.163C214.948 136.884 215.096 136.65 215.164 136.459C215.236 136.264 215.262 136.073 215.242 135.888C215.211 135.6 215.087 135.389 214.87 135.253C214.657 135.112 214.368 135.062 214.002 135.102C213.431 135.164 213.009 135.394 212.733 135.79L212.345 135.523C212.51 135.28 212.733 135.082 213.012 134.929C213.295 134.776 213.622 134.679 213.993 134.638C214.489 134.584 214.894 134.659 215.207 134.864C215.525 135.064 215.706 135.368 215.751 135.776C215.778 136.026 215.749 136.273 215.663 136.517C215.577 136.761 215.396 137.051 215.118 137.386L213.641 139.195L216.319 138.902ZM217.96 136.265C218.665 136.188 219.191 136.259 219.539 136.479C219.891 136.694 220.092 137.028 220.142 137.483C220.173 137.766 220.134 138.026 220.023 138.263C219.918 138.5 219.74 138.697 219.49 138.856C219.24 139.01 218.922 139.109 218.537 139.151C218.19 139.189 217.852 139.17 217.525 139.093C217.201 139.011 216.934 138.886 216.723 138.716L216.923 138.293C217.104 138.442 217.332 138.556 217.608 138.633C217.883 138.706 218.174 138.726 218.48 138.693C218.883 138.648 219.184 138.524 219.382 138.319C219.585 138.114 219.67 137.861 219.637 137.559C219.6 137.226 219.447 136.987 219.178 136.843C218.913 136.698 218.487 136.658 217.898 136.723L216.862 136.836L216.844 134.368L219.508 134.076L219.557 134.521L217.331 134.765L217.335 136.334L217.96 136.265Z" fill="white"/>
</g>
<path opacity="0.5" d="M93.7641 92.3597C93.4694 92.3921 93.1953 92.358 92.9418 92.2576C92.6907 92.1541 92.4839 91.997 92.3214 91.7863C92.1614 91.5725 92.0657 91.3224 92.0343 91.0359C92.0028 90.7495 92.0422 90.486 92.1524 90.2453C92.265 90.0016 92.4328 89.8034 92.6558 89.6507C92.8812 89.495 93.1426 89.4008 93.4401 89.3682C93.6907 89.3407 93.9214 89.36 94.1321 89.4261C94.3456 89.4919 94.5303 89.5998 94.6861 89.75L94.3 90.1937C94.0796 89.9893 93.8249 89.903 93.5357 89.9347C93.3567 89.9543 93.2013 90.0118 93.0696 90.1071C92.9376 90.1996 92.8394 90.3205 92.7749 90.4697C92.7132 90.6186 92.6922 90.7826 92.7118 90.9616C92.7314 91.1406 92.7875 91.2962 92.88 91.4282C92.9753 91.5599 93.0976 91.658 93.2468 91.7224C93.3957 91.7841 93.5597 91.8052 93.7387 91.7855C94.0279 91.7538 94.2577 91.6129 94.4282 91.3629L94.9014 91.7123C94.7821 91.8955 94.6254 92.0423 94.4312 92.1528C94.2371 92.2632 94.0147 92.3322 93.7641 92.3597ZM97.2471 91.9275L96.601 91.1831L96.568 91.1867L95.9855 91.2506L96.0738 92.0562L95.4046 92.1296L95.0873 89.2377L96.3391 89.1004C96.5953 89.0723 96.8217 89.0906 97.0183 89.1555C97.2177 89.22 97.377 89.3252 97.4961 89.471C97.6152 89.6168 97.6866 89.7971 97.7102 90.012C97.7337 90.2268 97.7018 90.4184 97.6143 90.5869C97.5294 90.7523 97.3964 90.8868 97.2154 90.9902L97.966 91.8486L97.2471 91.9275ZM97.0326 90.0863C97.0148 89.9238 96.9489 89.8056 96.8348 89.7317C96.7205 89.655 96.5628 89.6277 96.3618 89.6498L95.8164 89.7096L95.927 90.7176L96.4723 90.6578C96.6734 90.6358 96.8214 90.5749 96.9164 90.4753C97.0114 90.3757 97.0501 90.246 97.0326 90.0863ZM100.623 91.0137L100.682 91.5507L98.4425 91.7964L98.1253 88.9044L100.311 88.6647L100.37 89.2018L98.8494 89.3685L98.9182 89.9965L100.261 89.8492L100.318 90.3698L98.9753 90.517L99.0488 91.1863L100.623 91.0137ZM100.897 88.6004L102.211 88.4563C102.525 88.4218 102.808 88.4521 103.061 88.547C103.316 88.6388 103.522 88.7863 103.678 88.9894C103.837 89.1921 103.932 89.4381 103.964 89.7273C103.996 90.0165 103.956 90.2773 103.845 90.5097C103.737 90.7418 103.568 90.9317 103.339 91.0795C103.112 91.2242 102.842 91.3138 102.528 91.3482L101.214 91.4923L100.897 88.6004ZM102.435 90.8024C102.724 90.7706 102.945 90.6655 103.098 90.4871C103.254 90.3055 103.317 90.0771 103.287 89.8016C103.256 89.5262 103.146 89.3181 102.955 89.1774C102.766 89.0337 102.527 88.9776 102.238 89.0094L101.627 89.0764L101.823 90.8694L102.435 90.8024ZM104.31 88.226L104.979 88.1526L105.297 91.0445L104.627 91.1179L104.31 88.226ZM106.325 88.5569L105.399 88.6584L105.339 88.1131L107.86 87.8366L107.919 88.382L106.994 88.4835L107.251 90.8301L106.582 90.9035L106.325 88.5569ZM111.096 90.4585C110.802 90.4908 110.527 90.4568 110.274 90.3564C110.023 90.2529 109.816 90.0958 109.654 89.8851C109.494 89.6713 109.398 89.4211 109.366 89.1347C109.335 88.8483 109.374 88.5847 109.485 88.3441C109.597 88.1004 109.765 87.9022 109.988 87.7495C110.213 87.5938 110.475 87.4996 110.772 87.4669C111.023 87.4395 111.254 87.4587 111.464 87.5248C111.678 87.5906 111.863 87.6986 112.018 87.8487L111.632 88.2925C111.412 88.0881 111.157 88.0017 110.868 88.0334C110.689 88.0531 110.534 88.1105 110.402 88.2058C110.27 88.2983 110.172 88.4192 110.107 88.5685C110.045 88.7174 110.024 88.8814 110.044 89.0604C110.064 89.2394 110.12 89.3949 110.212 89.5269C110.308 89.6586 110.43 89.7567 110.579 89.8212C110.728 89.8829 110.892 89.9039 111.071 89.8843C111.36 89.8526 111.59 89.7117 111.76 89.4616L112.234 89.8111C112.114 89.9942 111.958 90.141 111.763 90.2515C111.569 90.362 111.347 90.431 111.096 90.4585ZM114.517 89.4059L113.174 89.5532L112.986 90.201L112.3 90.2762L113.272 87.2429L113.933 87.1704L115.543 89.9205L114.841 89.9975L114.517 89.4059ZM114.25 88.9209L113.67 87.864L113.333 89.0215L114.25 88.9209ZM117.686 89.6855L117.04 88.941L117.007 88.9447L116.424 89.0086L116.513 89.8142L115.843 89.8876L115.526 86.9957L116.778 86.8583C117.034 86.8302 117.26 86.8486 117.457 86.9134C117.657 86.978 117.816 87.0832 117.935 87.229C118.054 87.3748 118.125 87.5551 118.149 87.7699C118.173 87.9848 118.141 88.1764 118.053 88.3449C117.968 88.5103 117.835 88.6447 117.654 88.7482L118.405 89.6066L117.686 89.6855ZM117.471 87.8443C117.454 87.6818 117.388 87.5636 117.274 87.4897C117.159 87.413 117.002 87.3857 116.801 87.4078L116.255 87.4676L116.366 88.4756L116.911 88.4158C117.112 88.3937 117.26 88.3329 117.355 88.2333C117.45 88.1337 117.489 88.004 117.471 87.8443ZM118.564 86.6624L119.878 86.5183C120.192 86.4839 120.475 86.5141 120.728 86.609C120.984 86.7008 121.189 86.8483 121.345 87.0514C121.504 87.2542 121.599 87.5001 121.631 87.7893C121.663 88.0785 121.623 88.3393 121.512 88.5717C121.404 88.8038 121.235 88.9937 121.006 89.1415C120.779 89.2862 120.509 89.3758 120.195 89.4102L118.881 89.5543L118.564 86.6624ZM120.102 88.8644C120.391 88.8327 120.612 88.7276 120.765 88.5491C120.921 88.3676 120.984 88.1391 120.954 87.8637C120.923 87.5882 120.813 87.3802 120.622 87.2395C120.433 87.0957 120.194 87.0397 119.905 87.0714L119.294 87.1385L119.49 88.9315L120.102 88.8644Z" fill="white"/>
<path d="M98.7235 146.899L101.195 146.628C101.786 146.563 102.319 146.62 102.795 146.798C103.275 146.971 103.662 147.248 103.956 147.631C104.255 148.012 104.434 148.475 104.494 149.019C104.553 149.563 104.479 150.054 104.27 150.491C104.066 150.927 103.749 151.285 103.318 151.563C102.891 151.835 102.383 152.004 101.792 152.068L99.3203 152.34L98.7235 146.899ZM101.616 151.041C102.16 150.982 102.577 150.784 102.865 150.448C103.158 150.107 103.276 149.677 103.219 149.159C103.162 148.641 102.954 148.249 102.595 147.984C102.24 147.714 101.79 147.608 101.246 147.668L100.096 147.794L100.466 151.168L101.616 151.041ZM109.525 149.12C109.527 149.135 109.531 149.245 109.537 149.449L106.374 149.796C106.459 150.049 106.616 150.239 106.845 150.366C107.074 150.493 107.347 150.539 107.663 150.504C107.881 150.48 108.069 150.428 108.228 150.348C108.391 150.262 108.538 150.141 108.668 149.985L109.39 150.614C109.045 151.108 108.495 151.396 107.738 151.479C107.267 151.531 106.84 151.486 106.457 151.344C106.074 151.198 105.766 150.972 105.533 150.667C105.301 150.362 105.162 150.002 105.116 149.588C105.071 149.178 105.127 148.8 105.283 148.453C105.443 148.099 105.682 147.814 105.999 147.595C106.32 147.371 106.691 147.236 107.111 147.19C107.52 147.145 107.9 147.193 108.251 147.332C108.602 147.472 108.889 147.698 109.112 148.009C109.339 148.314 109.477 148.685 109.525 149.12ZM107.219 148.106C106.944 148.137 106.722 148.24 106.553 148.415C106.383 148.591 106.293 148.816 106.281 149.09L108.34 148.864C108.27 148.605 108.133 148.407 107.929 148.272C107.725 148.132 107.488 148.077 107.219 148.106ZM109.927 145.339L111.14 145.206L111.772 150.974L110.56 151.107L109.927 145.339ZM112.439 146.669L113.651 146.536L114.11 150.717L112.898 150.85L112.439 146.669ZM112.981 146.019C112.758 146.044 112.57 145.999 112.416 145.884C112.262 145.77 112.174 145.617 112.153 145.426C112.132 145.234 112.184 145.066 112.31 144.921C112.436 144.776 112.61 144.691 112.833 144.667C113.056 144.642 113.244 144.685 113.397 144.794C113.551 144.903 113.638 145.05 113.658 145.237C113.681 145.439 113.629 145.615 113.504 145.765C113.378 145.91 113.204 145.995 112.981 146.019ZM120.136 150.151C119.582 150.211 119.066 150.147 118.589 149.958C118.117 149.764 117.728 149.468 117.422 149.072C117.121 148.669 116.941 148.199 116.882 147.66C116.823 147.121 116.897 146.625 117.104 146.173C117.316 145.714 117.632 145.341 118.051 145.054C118.475 144.761 118.967 144.584 119.527 144.522C119.998 144.471 120.432 144.507 120.829 144.631C121.23 144.755 121.578 144.958 121.871 145.241L121.144 146.075C120.73 145.691 120.251 145.528 119.706 145.588C119.37 145.625 119.077 145.733 118.83 145.912C118.581 146.087 118.396 146.314 118.275 146.595C118.159 146.875 118.119 147.183 118.156 147.52C118.193 147.857 118.299 148.15 118.473 148.398C118.652 148.646 118.882 148.83 119.163 148.952C119.443 149.068 119.752 149.107 120.088 149.07C120.633 149.011 121.065 148.746 121.386 148.275L122.276 148.933C122.051 149.277 121.757 149.553 121.391 149.761C121.026 149.969 120.608 150.099 120.136 150.151ZM124.328 145.301C124.976 145.23 125.49 145.331 125.871 145.604C126.252 145.872 126.476 146.316 126.545 146.938L126.806 149.324L125.672 149.449L125.614 148.928C125.429 149.342 125.026 149.583 124.404 149.651C124.082 149.686 123.797 149.662 123.546 149.58C123.301 149.497 123.106 149.366 122.961 149.188C122.815 149.01 122.729 148.799 122.702 148.555C122.66 148.167 122.771 147.845 123.037 147.59C123.308 147.335 123.749 147.174 124.361 147.107L125.324 147.001C125.295 146.737 125.193 146.544 125.017 146.422C124.84 146.294 124.592 146.248 124.27 146.283C124.047 146.308 123.831 146.368 123.622 146.464C123.416 146.555 123.245 146.668 123.108 146.804L122.58 146.004C122.79 145.819 123.049 145.665 123.355 145.542C123.667 145.419 123.991 145.338 124.328 145.301ZM124.617 148.802C124.825 148.779 125.003 148.712 125.154 148.601C125.304 148.485 125.402 148.33 125.449 148.136L125.402 147.709L124.57 147.8C124.073 147.854 123.842 148.045 123.878 148.371C123.895 148.527 123.968 148.645 124.098 148.725C124.232 148.799 124.405 148.825 124.617 148.802ZM128.664 145.447C128.787 145.229 128.964 145.055 129.196 144.925C129.434 144.794 129.713 144.711 130.034 144.675L130.157 145.795C130.021 145.799 129.93 145.804 129.883 145.809C129.536 145.847 129.275 145.975 129.1 146.194C128.924 146.407 128.857 146.708 128.9 147.097L129.116 149.071L127.904 149.204L127.445 145.022L128.603 144.895L128.664 145.447ZM132.65 148.746C132.302 148.785 131.959 148.78 131.618 148.734C131.277 148.682 131 148.602 130.789 148.494L131.098 147.579C131.297 147.678 131.534 147.752 131.806 147.801C132.079 147.844 132.342 147.852 132.596 147.824C133.109 147.768 133.351 147.613 133.323 147.359C133.31 147.24 133.231 147.162 133.085 147.125C132.94 147.089 132.72 147.068 132.426 147.064C132.078 147.05 131.789 147.021 131.559 146.978C131.329 146.935 131.121 146.837 130.937 146.685C130.757 146.531 130.65 146.297 130.616 145.98C130.587 145.716 130.636 145.475 130.764 145.256C130.897 145.032 131.102 144.847 131.38 144.701C131.663 144.555 132.004 144.459 132.403 144.416C132.698 144.383 132.995 144.385 133.292 144.42C133.594 144.45 133.847 144.512 134.052 144.605L133.742 145.512C133.352 145.345 132.939 145.285 132.503 145.333C132.244 145.361 132.054 145.419 131.932 145.506C131.811 145.592 131.756 145.693 131.769 145.807C131.783 145.936 131.863 146.019 132.008 146.056C132.154 146.092 132.382 146.117 132.693 146.13C133.041 146.15 133.328 146.181 133.553 146.225C133.777 146.263 133.979 146.359 134.159 146.512C134.338 146.665 134.445 146.895 134.478 147.201C134.507 147.46 134.454 147.699 134.321 147.918C134.188 148.137 133.977 148.32 133.689 148.467C133.405 148.608 133.059 148.702 132.65 148.746ZM137.362 148.23C136.921 148.278 136.515 148.231 136.143 148.088C135.775 147.939 135.475 147.713 135.242 147.408C135.009 147.103 134.87 146.743 134.825 146.329C134.779 145.914 134.837 145.533 134.998 145.185C135.159 144.837 135.404 144.553 135.731 144.334C136.063 144.109 136.449 143.972 136.889 143.924C137.33 143.875 137.734 143.925 138.102 144.074C138.469 144.217 138.769 144.441 139.001 144.746C139.234 145.051 139.373 145.41 139.419 145.825C139.464 146.24 139.406 146.621 139.245 146.969C139.084 147.317 138.84 147.603 138.513 147.828C138.186 148.047 137.802 148.181 137.362 148.23ZM137.253 147.235C137.564 147.201 137.806 147.069 137.98 146.84C138.159 146.606 138.229 146.312 138.19 145.96C138.152 145.607 138.02 145.339 137.795 145.154C137.575 144.963 137.309 144.884 136.999 144.918C136.688 144.953 136.443 145.087 136.264 145.321C136.085 145.551 136.014 145.842 136.053 146.194C136.092 146.547 136.224 146.818 136.449 147.008C136.674 147.193 136.942 147.269 137.253 147.235ZM142.534 143.304C143.053 143.247 143.487 143.357 143.837 143.633C144.192 143.909 144.404 144.353 144.471 144.964L144.733 147.358L143.521 147.491L143.279 145.284C143.242 144.952 143.143 144.714 142.98 144.569C142.817 144.419 142.598 144.359 142.323 144.389C142.017 144.423 141.784 144.546 141.624 144.757C141.463 144.964 141.403 145.253 141.444 145.626L141.671 147.694L140.458 147.827L140 143.645L141.158 143.518L141.211 144.008C141.353 143.814 141.538 143.657 141.766 143.538C141.993 143.413 142.249 143.336 142.534 143.304Z" fill="#EDEDED"/>
<path d="M101.788 120.565L101.887 121.473L99.7501 128.184L98.2991 128.343L100.369 121.883L97.4982 122.198L97.6345 123.44L96.3714 123.579L96.1092 121.188L101.788 120.565ZM107.563 123.439C107.965 123.571 108.283 123.776 108.518 124.053C108.758 124.322 108.901 124.655 108.944 125.052C108.993 125.497 108.91 125.901 108.697 126.262C108.49 126.623 108.17 126.919 107.737 127.149C107.304 127.373 106.788 127.517 106.19 127.583C105.591 127.649 105.056 127.619 104.585 127.495C104.12 127.363 103.747 127.143 103.467 126.836C103.187 126.529 103.022 126.152 102.973 125.707C102.93 125.31 102.993 124.955 103.163 124.64C103.332 124.319 103.594 124.051 103.951 123.835C103.641 123.707 103.392 123.523 103.204 123.283C103.022 123.036 102.912 122.741 102.875 122.4C102.83 121.99 102.902 121.619 103.091 121.289C103.287 120.957 103.581 120.686 103.973 120.473C104.365 120.261 104.83 120.126 105.365 120.067C105.908 120.008 106.394 120.039 106.823 120.161C107.252 120.283 107.598 120.484 107.861 120.765C108.124 121.046 108.279 121.392 108.324 121.803C108.361 122.144 108.314 122.452 108.182 122.727C108.05 123.002 107.844 123.239 107.563 123.439ZM105.482 121.132C105.058 121.179 104.73 121.306 104.499 121.514C104.276 121.722 104.182 121.989 104.218 122.317C104.252 122.63 104.401 122.867 104.665 123.028C104.936 123.181 105.283 123.235 105.708 123.188C106.139 123.141 106.47 123.013 106.701 122.805C106.931 122.589 107.029 122.325 106.994 122.012C106.958 121.685 106.802 121.445 106.524 121.292C106.254 121.139 105.907 121.085 105.482 121.132ZM106.073 126.518C106.574 126.463 106.959 126.315 107.229 126.075C107.498 125.834 107.612 125.529 107.572 125.16C107.532 124.798 107.355 124.529 107.04 124.352C106.725 124.176 106.316 124.115 105.815 124.17C105.314 124.225 104.933 124.372 104.67 124.612C104.408 124.852 104.296 125.153 104.336 125.515C104.377 125.884 104.551 126.157 104.859 126.335C105.167 126.512 105.572 126.573 106.073 126.518ZM111.849 122.324C112.879 122.212 113.664 122.33 114.202 122.679C114.74 123.022 115.046 123.537 115.122 124.226C115.17 124.665 115.105 125.073 114.929 125.452C114.752 125.83 114.459 126.148 114.051 126.404C113.642 126.66 113.121 126.823 112.488 126.892C111.966 126.949 111.453 126.932 110.95 126.839C110.446 126.739 110.013 126.576 109.65 126.348L110.108 125.23C110.404 125.423 110.747 125.565 111.137 125.656C111.534 125.74 111.934 125.759 112.338 125.715C112.818 125.662 113.183 125.524 113.433 125.299C113.689 125.067 113.798 124.776 113.76 124.428C113.719 124.053 113.538 123.787 113.218 123.632C112.905 123.469 112.39 123.427 111.673 123.506L109.909 123.699L109.848 119.681L114.138 119.211L114.263 120.348L111.121 120.693L111.15 122.401L111.849 122.324ZM117.801 118.703C118.803 118.593 119.614 118.821 120.232 119.387C120.857 119.952 121.234 120.82 121.363 121.989C121.453 122.81 121.38 123.529 121.145 124.147C120.909 124.757 120.537 125.245 120.027 125.611C119.524 125.969 118.918 126.187 118.208 126.265C117.832 126.306 117.473 126.307 117.131 126.267C116.794 126.219 116.496 126.132 116.236 126.006L116.625 124.928C117.012 125.125 117.488 125.192 118.052 125.13C118.755 125.053 119.281 124.777 119.63 124.302C119.98 123.827 120.11 123.183 120.02 122.368L120.019 122.358C119.831 122.632 119.577 122.854 119.257 123.023C118.937 123.184 118.568 123.288 118.151 123.334C117.671 123.387 117.229 123.344 116.827 123.205C116.423 123.059 116.095 122.827 115.842 122.51C115.589 122.193 115.438 121.811 115.389 121.366C115.337 120.893 115.41 120.466 115.607 120.085C115.804 119.697 116.094 119.383 116.476 119.144C116.858 118.905 117.3 118.758 117.801 118.703ZM118.295 122.241C118.733 122.193 119.075 122.035 119.321 121.769C119.573 121.502 119.679 121.187 119.64 120.826C119.601 120.471 119.433 120.193 119.136 119.993C118.846 119.786 118.464 119.708 117.991 119.76C117.567 119.806 117.235 119.959 116.995 120.218C116.755 120.469 116.656 120.783 116.697 121.159C116.739 121.542 116.905 121.83 117.193 122.024C117.482 122.217 117.849 122.29 118.295 122.241ZM127.375 120.621C128.405 120.508 129.189 120.627 129.727 120.976C130.265 121.319 130.572 121.834 130.647 122.523C130.695 122.962 130.631 123.37 130.454 123.749C130.277 124.127 129.985 124.445 129.576 124.701C129.167 124.957 128.647 125.12 128.013 125.189C127.491 125.246 126.979 125.229 126.476 125.136C125.972 125.036 125.538 124.873 125.175 124.645L125.634 123.527C125.929 123.72 126.272 123.862 126.663 123.953C127.059 124.037 127.459 124.056 127.863 124.012C128.343 123.959 128.708 123.821 128.958 123.596C129.214 123.364 129.324 123.073 129.285 122.725C129.244 122.35 129.064 122.084 128.744 121.929C128.43 121.766 127.915 121.724 127.198 121.803L125.434 121.996L125.373 117.978L129.664 117.507L129.789 118.645L126.647 118.99L126.675 120.698L127.375 120.621ZM133.42 119.958C134.45 119.845 135.234 119.964 135.772 120.313C136.31 120.655 136.617 121.171 136.692 121.86C136.74 122.299 136.676 122.707 136.499 123.086C136.322 123.464 136.03 123.782 135.621 124.038C135.212 124.294 134.692 124.457 134.058 124.526C133.536 124.583 133.024 124.566 132.521 124.473C132.017 124.373 131.583 124.209 131.22 123.982L131.679 122.864C131.974 123.057 132.317 123.199 132.708 123.29C133.104 123.374 133.504 123.393 133.908 123.349C134.388 123.296 134.753 123.157 135.003 122.933C135.259 122.7 135.369 122.41 135.33 122.062C135.289 121.687 135.109 121.421 134.789 121.266C134.475 121.103 133.96 121.061 133.243 121.14L131.479 121.333L131.418 117.315L135.709 116.844L135.834 117.982L132.692 118.327L132.72 120.035L133.42 119.958ZM140.546 119.145C141.026 119.092 141.468 119.139 141.871 119.285C142.274 119.424 142.602 119.652 142.855 119.969C143.108 120.287 143.259 120.668 143.308 121.113C143.36 121.587 143.287 122.017 143.09 122.405C142.893 122.786 142.603 123.096 142.22 123.335C141.838 123.574 141.396 123.721 140.895 123.776C139.893 123.886 139.079 123.658 138.454 123.093C137.836 122.527 137.462 121.659 137.334 120.49C137.244 119.669 137.317 118.953 137.553 118.343C137.788 117.726 138.157 117.238 138.66 116.88C139.169 116.514 139.779 116.292 140.488 116.214C140.864 116.173 141.22 116.176 141.556 116.224C141.899 116.264 142.2 116.347 142.461 116.473L142.072 117.551C141.684 117.354 141.208 117.287 140.645 117.349C139.942 117.426 139.416 117.702 139.066 118.177C138.717 118.652 138.587 119.296 138.676 120.111L138.677 120.121C138.866 119.847 139.12 119.629 139.44 119.467C139.76 119.298 140.128 119.191 140.546 119.145ZM140.705 122.719C141.13 122.673 141.462 122.524 141.702 122.272C141.942 122.013 142.041 121.696 141.999 121.32C141.957 120.937 141.792 120.649 141.503 120.456C141.214 120.262 140.847 120.189 140.402 120.238C139.963 120.286 139.618 120.444 139.365 120.711C139.12 120.978 139.017 121.292 139.057 121.654C139.096 122.008 139.26 122.29 139.551 122.497C139.847 122.697 140.232 122.771 140.705 122.719ZM149.432 121.572L149.558 122.72L144.172 123.311L144.072 122.403L146.672 119.329C146.964 118.98 147.154 118.684 147.24 118.442C147.332 118.193 147.366 117.953 147.341 117.724C147.303 117.383 147.16 117.134 146.91 116.978C146.661 116.823 146.313 116.769 145.868 116.818C145.123 116.9 144.581 117.216 144.24 117.768L143.21 117.141C143.453 116.727 143.803 116.39 144.26 116.128C144.724 115.859 145.255 115.692 145.853 115.626C146.647 115.539 147.301 115.657 147.815 115.981C148.329 116.305 148.622 116.791 148.693 117.438C148.737 117.834 148.694 118.216 148.565 118.582C148.436 118.948 148.16 119.38 147.735 119.878L145.987 121.95L149.432 121.572ZM159.558 119.944L158.263 120.085L158.445 121.745L157.13 121.89L156.948 120.23L152.94 120.669L152.836 119.73L155.921 114.627L157.372 114.468L154.473 119.339L156.864 119.077L156.702 117.605L157.976 117.465L158.137 118.937L159.432 118.795L159.558 119.944ZM164.73 117.168C165.132 117.3 165.451 117.505 165.685 117.782C165.926 118.051 166.068 118.384 166.112 118.781C166.161 119.226 166.078 119.63 165.864 119.991C165.657 120.352 165.337 120.648 164.905 120.878C164.472 121.102 163.956 121.246 163.357 121.312C162.759 121.378 162.224 121.348 161.753 121.224C161.287 121.092 160.915 120.872 160.634 120.565C160.354 120.258 160.19 119.881 160.141 119.436C160.097 119.039 160.16 118.684 160.33 118.369C160.499 118.048 160.762 117.78 161.119 117.564C160.809 117.436 160.56 117.252 160.371 117.012C160.189 116.765 160.08 116.47 160.042 116.129C159.997 115.719 160.069 115.348 160.258 115.018C160.454 114.686 160.749 114.415 161.141 114.203C161.533 113.99 161.997 113.855 162.533 113.796C163.076 113.737 163.562 113.768 163.991 113.89C164.419 114.012 164.766 114.213 165.029 114.494C165.292 114.775 165.446 115.121 165.491 115.532C165.529 115.873 165.481 116.181 165.35 116.456C165.218 116.731 165.011 116.968 164.73 117.168ZM162.65 114.861C162.225 114.908 161.898 115.035 161.667 115.243C161.443 115.451 161.349 115.718 161.385 116.046C161.42 116.359 161.569 116.596 161.833 116.757C162.103 116.911 162.451 116.964 162.875 116.917C163.307 116.87 163.638 116.742 163.869 116.534C164.098 116.318 164.196 116.054 164.162 115.741C164.126 115.414 163.969 115.174 163.692 115.021C163.422 114.868 163.074 114.814 162.65 114.861ZM163.241 120.247C163.742 120.192 164.127 120.044 164.396 119.804C164.666 119.563 164.78 119.258 164.74 118.889C164.7 118.527 164.523 118.258 164.207 118.081C163.892 117.905 163.484 117.844 162.983 117.899C162.482 117.954 162.1 118.101 161.838 118.341C161.575 118.581 161.464 118.882 161.504 119.244C161.544 119.613 161.718 119.886 162.027 120.064C162.335 120.241 162.74 120.302 163.241 120.247ZM169.017 116.054C170.047 115.941 170.831 116.059 171.37 116.408C171.907 116.751 172.214 117.266 172.289 117.955C172.337 118.394 172.273 118.802 172.096 119.181C171.919 119.559 171.627 119.877 171.218 120.133C170.81 120.389 170.289 120.552 169.655 120.621C169.134 120.678 168.621 120.661 168.118 120.568C167.614 120.468 167.18 120.305 166.817 120.077L167.276 118.96C167.572 119.152 167.915 119.294 168.305 119.385C168.702 119.469 169.102 119.488 169.505 119.444C169.985 119.391 170.35 119.253 170.6 119.028C170.857 118.796 170.966 118.505 170.928 118.158C170.886 117.782 170.706 117.516 170.386 117.361C170.072 117.198 169.557 117.156 168.84 117.235L167.076 117.428L167.016 113.41L171.306 112.94L171.431 114.077L168.289 114.422L168.318 116.13L169.017 116.054ZM174.969 112.432C175.971 112.322 176.781 112.55 177.4 113.116C178.025 113.681 178.402 114.549 178.53 115.718C178.62 116.539 178.548 117.258 178.313 117.876C178.077 118.486 177.704 118.974 177.195 119.34C176.692 119.698 176.085 119.916 175.376 119.994C175 120.035 174.641 120.036 174.298 119.996C173.962 119.948 173.664 119.861 173.403 119.735L173.792 118.657C174.18 118.854 174.656 118.921 175.22 118.859C175.922 118.782 176.448 118.506 176.798 118.031C177.147 117.556 177.277 116.912 177.188 116.097L177.187 116.087C176.998 116.361 176.745 116.583 176.425 116.752C176.105 116.913 175.736 117.017 175.318 117.063C174.838 117.116 174.397 117.073 173.994 116.934C173.591 116.788 173.263 116.556 173.009 116.239C172.756 115.922 172.605 115.54 172.556 115.095C172.504 114.622 172.577 114.195 172.775 113.814C172.972 113.426 173.262 113.112 173.644 112.873C174.026 112.634 174.468 112.487 174.969 112.432ZM175.462 115.97C175.901 115.922 176.243 115.764 176.488 115.498C176.741 115.231 176.847 114.916 176.807 114.555C176.768 114.2 176.601 113.922 176.304 113.722C176.014 113.515 175.632 113.437 175.159 113.489C174.734 113.535 174.402 113.688 174.163 113.947C173.923 114.198 173.824 114.512 173.865 114.888C173.907 115.271 174.072 115.559 174.361 115.753C174.65 115.946 175.017 116.019 175.462 115.97ZM185.572 114.206C186.053 114.153 186.494 114.2 186.898 114.346C187.3 114.485 187.628 114.713 187.881 115.03C188.134 115.347 188.285 115.729 188.334 116.174C188.386 116.647 188.314 117.078 188.117 117.466C187.919 117.847 187.629 118.157 187.247 118.396C186.865 118.635 186.423 118.782 185.922 118.837C184.92 118.947 184.106 118.719 183.481 118.154C182.862 117.588 182.489 116.72 182.361 115.551C182.271 114.73 182.343 114.014 182.579 113.404C182.814 112.786 183.183 112.299 183.687 111.941C184.196 111.575 184.805 111.353 185.515 111.275C185.891 111.234 186.247 111.237 186.583 111.285C186.926 111.325 187.227 111.408 187.487 111.534L187.098 112.612C186.711 112.415 186.235 112.348 185.671 112.41C184.968 112.487 184.442 112.763 184.093 113.238C183.744 113.713 183.614 114.357 183.703 115.172L183.704 115.182C183.892 114.908 184.147 114.69 184.467 114.528C184.786 114.359 185.155 114.252 185.572 114.206ZM185.732 117.78C186.157 117.734 186.489 117.584 186.729 117.333C186.968 117.074 187.067 116.757 187.026 116.381C186.984 115.998 186.819 115.71 186.53 115.516C186.241 115.323 185.874 115.25 185.428 115.299C184.99 115.347 184.644 115.505 184.392 115.772C184.147 116.038 184.044 116.353 184.083 116.714C184.122 117.069 184.287 117.351 184.577 117.558C184.874 117.758 185.259 117.832 185.732 117.78ZM194.459 116.633L194.584 117.781L189.198 118.372L189.099 117.464L191.698 114.39C191.991 114.041 192.18 113.745 192.267 113.503C192.359 113.254 192.392 113.014 192.367 112.784C192.33 112.443 192.186 112.195 191.937 112.039C191.687 111.883 191.34 111.83 190.895 111.879C190.15 111.961 189.607 112.277 189.266 112.829L188.236 112.202C188.48 111.788 188.83 111.45 189.287 111.189C189.751 110.92 190.282 110.752 190.88 110.687C191.673 110.6 192.327 110.718 192.842 111.042C193.356 111.366 193.649 111.851 193.72 112.499C193.763 112.895 193.721 113.277 193.592 113.643C193.463 114.009 193.186 114.441 192.762 114.938L191.014 117.011L194.459 116.633ZM197.163 112.966C198.192 112.853 198.977 112.971 199.515 113.321C200.053 113.663 200.359 114.179 200.435 114.868C200.483 115.306 200.419 115.715 200.242 116.093C200.065 116.472 199.772 116.789 199.364 117.045C198.955 117.302 198.434 117.464 197.801 117.534C197.279 117.591 196.766 117.573 196.263 117.481C195.759 117.381 195.326 117.217 194.963 116.989L195.421 115.872C195.717 116.065 196.06 116.207 196.45 116.298C196.847 116.381 197.247 116.401 197.651 116.357C198.131 116.304 198.496 116.165 198.746 115.941C199.002 115.708 199.111 115.418 199.073 115.07C199.032 114.694 198.851 114.429 198.531 114.274C198.218 114.111 197.703 114.069 196.986 114.148L195.222 114.341L195.161 110.323L199.451 109.852L199.576 110.99L196.434 111.335L196.463 113.043L197.163 112.966ZM207.795 114.652L206.501 114.794L206.683 116.454L205.368 116.598L205.186 114.938L201.177 115.378L201.074 114.439L204.159 109.336L205.61 109.177L202.711 114.048L205.101 113.786L204.94 112.314L206.214 112.174L206.375 113.646L207.669 113.504L207.795 114.652Z" fill="#EDEDED"/>
<path d="M94.6835 84.3008C94.9269 84.3494 95.1249 84.4547 95.2776 84.6165C95.4298 84.7744 95.5199 84.9807 95.5479 85.2356C95.5874 85.5963 95.4768 85.8901 95.216 86.1171C94.9587 86.3398 94.5615 86.4805 94.0244 86.5395L91.8955 86.773L91.444 82.6564L93.4552 82.4357C93.9571 82.3807 94.3518 82.4346 94.6395 82.5975C94.9311 82.7599 95.0949 83.0058 95.1311 83.3351C95.153 83.5351 95.1236 83.7188 95.0428 83.8864C94.9659 84.0535 94.8461 84.1917 94.6835 84.3008ZM92.4695 83.27L92.5759 84.2403L93.5228 84.1365C93.758 84.1106 93.9319 84.0499 94.0444 83.9542C94.1569 83.8586 94.2043 83.7304 94.1867 83.5696C94.169 83.4089 94.0952 83.296 93.965 83.2309C93.8344 83.1619 93.6515 83.1403 93.4163 83.1661L92.4695 83.27ZM93.8751 85.8297C94.1261 85.8022 94.3097 85.7404 94.4262 85.6443C94.5465 85.5478 94.5972 85.4133 94.5783 85.2408C94.5409 84.8997 94.2693 84.7569 93.7635 84.8123L92.6521 84.9343L92.7637 85.9517L93.8751 85.8297ZM99.0067 85.1002L97.0954 85.3098L96.8275 86.232L95.8513 86.3391L97.2346 82.0212L98.1755 81.9179L100.468 85.8327L99.4681 85.9423L99.0067 85.1002ZM98.6274 84.4097L97.8017 82.9053L97.3218 84.5529L98.6274 84.4097ZM104.219 81.255L104.67 85.3716L103.888 85.4574L101.562 83.1832L101.836 85.6826L100.895 85.7858L100.443 81.6692L101.231 81.5827L103.552 83.8576L103.278 81.3582L104.219 81.255ZM106.967 83.4831L106.477 84.12L106.591 85.1609L105.644 85.2648L105.193 81.1482L106.14 81.0443L106.351 82.9674L107.963 80.8443L109.021 80.7282L107.517 82.7501L109.573 84.8339L108.461 84.9558L106.967 83.4831ZM114.987 80.0738L115.439 84.1904L114.657 84.2762L112.33 82.002L112.604 84.5014L111.663 84.6046L111.212 80.488L112 80.4015L114.32 82.6764L114.046 80.177L114.987 80.0738ZM119.027 82.9041L117.116 83.1137L116.848 84.0359L115.872 84.1429L117.255 79.825L118.196 79.7218L120.488 83.6365L119.488 83.7462L119.027 82.9041ZM118.648 82.2136L117.822 80.7091L117.342 82.3568L118.648 82.2136ZM124.661 83.1788L124.385 80.7094L123.396 82.8771L122.967 82.9242L121.544 81.0746L121.809 83.4916L120.915 83.5897L120.464 79.4731L121.252 79.3866L123.073 81.7758L124.31 79.0512L125.092 78.9654L125.555 83.0807L124.661 83.1788ZM129.636 81.8594L129.719 82.6239L126.532 82.9736L126.08 78.8569L129.191 78.5157L129.275 79.2802L127.111 79.5176L127.209 80.4115L129.12 80.2018L129.202 80.9428L127.29 81.1525L127.395 82.1052L129.636 81.8594Z" fill="#EDEDED"/>
<g opacity="0.5">
<path d="M94.3421 112.825C94.5097 114.333 95.8705 115.423 97.3742 115.26L98.2172 115.167L97.6453 109.955L94.071 110.35L94.3421 112.825Z" fill="white"/>
<path d="M95.6388 99.5236C94.914 99.6074 94.2583 99.9624 93.7998 100.534C93.3413 101.106 93.1293 101.826 93.2131 102.556L93.4103 104.35L96.9847 103.956L96.4868 99.425L95.6437 99.5187C95.6437 99.5187 95.6388 99.5187 95.6338 99.5187L95.6388 99.5236Z" fill="white"/>
<path d="M100.495 108.89C100.411 108.111 100.603 107.332 101.042 106.677C100.47 106.13 100.11 105.41 100.027 104.631C100.002 104.419 100.007 104.207 100.022 104.005L97.3988 104.291L97.9756 109.541L100.574 109.255C100.544 109.132 100.51 109.014 100.495 108.89Z" fill="white"/>
<path d="M97.0289 104.335L93.4513 104.727L94.0276 109.981L97.6052 109.588L97.0289 104.335Z" fill="white"/>
<path d="M106.421 102.925L109.428 102.595L108.93 98.0639L103.068 98.7098L103.31 100.928C104.676 100.909 105.889 101.712 106.421 102.925Z" fill="white"/>
<path d="M102.936 100.943L102.694 98.7495L96.8567 99.3904L97.3546 103.921L100.086 103.62C100.357 102.24 101.476 101.131 102.936 100.943Z" fill="white"/>
<path d="M111.539 108.053L110.962 102.802L106.564 103.285C106.623 103.482 106.673 103.684 106.692 103.896C106.776 104.675 106.584 105.454 106.145 106.11C106.717 106.657 107.077 107.377 107.161 108.156C107.175 108.284 107.161 108.408 107.161 108.531L111.534 108.053H111.539Z" fill="white"/>
<path d="M111.026 113.762L111.844 113.673C111.844 113.673 111.849 113.673 111.854 113.673C112.584 113.589 113.234 113.229 113.693 112.662C114.151 112.09 114.363 111.37 114.285 110.641L114.013 108.166L110.464 108.555L111.036 113.767L111.026 113.762Z" fill="white"/>
<path d="M100.667 109.621L98.0151 109.911L98.587 115.123L104.424 114.482L104.138 111.854C102.58 111.997 101.165 111.045 100.667 109.616V109.621Z" fill="white"/>
<path d="M113.386 102.538L111.332 102.763L111.909 108.017L113.962 107.792L113.386 102.538Z" fill="white"/>
<path d="M110.114 97.9359L109.295 98.0246L109.793 102.555L113.343 102.166L113.146 100.371C113.067 99.6417 112.707 98.986 112.13 98.5275C111.558 98.069 110.838 97.857 110.109 97.9408L110.114 97.9359Z" fill="white"/>
<path d="M104.503 111.789L104.794 114.442L110.656 113.796L110.084 108.585L107.156 108.905C106.988 110.32 105.928 111.494 104.503 111.789Z" fill="white"/>
<path d="M106.791 108.201C106.712 107.461 106.347 106.781 105.775 106.283L105.647 106.169L105.751 106.031C106.199 105.42 106.406 104.681 106.323 103.941C106.145 102.309 104.666 101.121 103.034 101.303C101.402 101.481 100.214 102.96 100.397 104.592C100.475 105.331 100.84 106.012 101.412 106.51L101.54 106.623L101.437 106.761C100.988 107.372 100.781 108.117 100.865 108.851C101.042 110.483 102.521 111.671 104.153 111.489C105.785 111.312 106.973 109.833 106.791 108.201Z" fill="white"/>
</g>
<path d="M116.527 101.717C116.404 101.732 116.295 101.796 116.226 101.909C116.113 102.101 116.172 102.348 116.364 102.461C117.109 102.91 117.612 103.733 117.715 104.665C117.819 105.607 117.498 106.524 116.867 107.115C116.705 107.268 116.695 107.525 116.848 107.687C116.995 107.845 117.257 107.855 117.419 107.707C118.238 106.943 118.652 105.774 118.519 104.581C118.391 103.398 117.74 102.348 116.783 101.776C116.705 101.727 116.616 101.712 116.532 101.722L116.527 101.717Z" fill="#E9E9F4"/>
<path d="M118.475 100.154C118.475 100.154 118.445 100.154 118.43 100.164C118.327 100.189 118.238 100.253 118.179 100.342C118.06 100.529 118.115 100.78 118.302 100.899C119.441 101.623 120.22 102.92 120.378 104.379C120.545 105.923 120.018 107.407 118.968 108.358C118.889 108.432 118.839 108.531 118.834 108.639C118.83 108.748 118.864 108.851 118.938 108.93C119.081 109.088 119.347 109.103 119.51 108.96C120.752 107.835 121.378 106.095 121.181 104.296C120.994 102.6 120.082 101.076 118.736 100.223C118.657 100.174 118.568 100.154 118.475 100.164V100.154Z" fill="#E9E9F4"/>
<path d="M120.423 98.5913C120.423 98.5913 120.398 98.5913 120.383 98.5962C120.28 98.6209 120.186 98.6801 120.127 98.7688C120.068 98.8575 120.048 98.966 120.068 99.0745C120.087 99.178 120.151 99.2717 120.24 99.3308C121.773 100.332 122.819 102.111 123.036 104.083C123.267 106.223 122.533 108.279 121.059 109.59C120.98 109.664 120.93 109.763 120.925 109.867C120.92 109.975 120.955 110.079 121.024 110.157C121.167 110.315 121.433 110.335 121.591 110.192C123.257 108.708 124.096 106.391 123.834 103.995C123.593 101.786 122.409 99.7893 120.679 98.6554C120.6 98.6012 120.506 98.5814 120.413 98.5913H120.423Z" fill="#E9E9F4"/>
<g style="mix-blend-mode:overlay">
<path d="M80.722 69.9262L221.354 54.4997C224.569 54.1471 227.462 56.4732 227.815 59.6831L236.943 142.903C237.296 146.118 234.97 149.011 231.76 149.363L91.128 164.79C87.9131 165.143 85.0145 162.817 84.6619 159.602L75.5342 76.3924C75.1816 73.1775 77.5071 70.2789 80.722 69.9262Z" stroke="url(#paint10_linear_68_9643)" stroke-width="0.320459" stroke-miterlimit="10"/>
</g>
<g style="mix-blend-mode:soft-light" opacity="0.3">
<g style="mix-blend-mode:color-burn">
<path d="M232.134 100.912L129.809 111.946C128.951 112.04 128.187 111.419 128.093 110.566L126.737 97.9691C126.644 97.1112 127.265 96.3471 128.118 96.2534L230.443 85.2197L232.134 100.917V100.912Z" fill="#912350"/>
</g>
<g style="mix-blend-mode:color-burn">
<path d="M90.3127 116.246L80.0826 117.35L78.3916 101.653L88.6217 100.548C89.4795 100.455 90.2437 101.076 90.3373 101.929L91.6931 114.525C91.7868 115.383 91.1656 116.147 90.3127 116.241V116.246Z" fill="#912350"/>
</g>
</g>
</g>
<path d="M295.569 110.833C296.539 109.521 298.62 110.209 298.618 111.841L298.609 117.714C298.608 118.251 298.862 118.756 299.294 119.075L304.016 122.569C305.327 123.539 304.639 125.62 303.008 125.618L297.134 125.609C296.598 125.608 296.092 125.862 295.773 126.294L292.28 131.016C291.31 132.327 289.228 131.639 289.231 130.008L289.239 124.134C289.24 123.598 288.986 123.092 288.554 122.773L283.833 119.28C282.521 118.31 283.209 116.228 284.841 116.231L290.714 116.239C291.251 116.24 291.756 115.986 292.075 115.554L295.569 110.833Z" fill="#3E80E2"/>
<path d="M44.2532 72.1282C44.4883 71.6378 45.2129 71.7321 45.3148 72.2662L46.1717 76.7596C46.2053 76.9354 46.3203 77.0848 46.4816 77.1622L50.6066 79.1396C51.0969 79.3747 51.0027 80.0993 50.4685 80.2012L45.9751 81.0581C45.7993 81.0916 45.6499 81.2067 45.5726 81.368L43.5951 85.493C43.36 85.9833 42.6354 85.8891 42.5336 85.3549L41.6766 80.8615C41.6431 80.6857 41.5281 80.5363 41.3667 80.459L37.2418 78.4815C36.7515 78.2464 36.8457 77.5218 37.3798 77.42L41.8733 76.563C42.049 76.5295 42.1984 76.4145 42.2758 76.2531L44.2532 72.1282Z" fill="#3E80E2"/>
<path d="M52.3872 185.118C52.4013 184.866 52.7288 184.778 52.867 184.989L54.0293 186.765C54.0748 186.834 54.1505 186.878 54.2334 186.883L56.3526 187.002C56.6045 187.016 56.6922 187.343 56.4811 187.481L54.7052 188.644C54.6357 188.689 54.592 188.765 54.5874 188.848L54.4687 190.967C54.4546 191.219 54.1271 191.307 53.9889 191.095L52.8266 189.32C52.7811 189.25 52.7054 189.206 52.6225 189.202L50.5033 189.083C50.2514 189.069 50.1637 188.741 50.3748 188.603L52.1507 187.441C52.2201 187.395 52.2639 187.32 52.2685 187.237L52.3872 185.118Z" fill="#3E80E2"/>
<path d="M263.811 2.63046C263.826 2.37856 264.153 2.29081 264.291 2.50191L266.863 6.43081C266.908 6.50028 266.984 6.54402 267.067 6.54866L271.755 6.81119C272.007 6.8253 272.095 7.15278 271.884 7.29095L267.955 9.86245C267.885 9.90791 267.841 9.98367 267.837 10.0666L267.574 14.7548C267.56 15.0067 267.233 15.0945 267.095 14.8834L264.523 10.9545C264.478 10.885 264.402 10.8413 264.319 10.8366L259.631 10.5741C259.379 10.56 259.291 10.2325 259.502 10.0944L263.431 7.52286C263.5 7.47739 263.544 7.40163 263.549 7.31874L263.811 2.63046Z" fill="#F56373"/>
<circle opacity="0.5" cx="140.535" cy="46.5355" r="2.53547" stroke="#F56272" stroke-width="1.12687"/>
<circle cx="303.535" cy="218.535" r="2.53547" stroke="#F56272" stroke-width="1.12687"/>
<path d="M7.95486 168.338C7.88912 167.798 8.55056 167.487 8.92385 167.883L12.207 171.36C12.3298 171.49 12.5072 171.554 12.6848 171.533L17.4322 170.955C17.972 170.889 18.2825 171.55 17.8871 171.924L14.4096 175.207C14.2795 175.33 14.2155 175.507 14.2371 175.685L14.8153 180.432C14.881 180.972 14.2196 181.282 13.8463 180.887L10.5631 177.409C10.4403 177.279 10.263 177.215 10.0853 177.237L5.33795 177.815C4.79817 177.881 4.48765 177.219 4.88303 176.846L8.3605 173.563C8.49061 173.44 8.55464 173.263 8.53301 173.085L7.95486 168.338Z" fill="#F56373"/>
<circle opacity="0.2" cx="326.254" cy="44.2537" r="2.25375" stroke="#3E80E2" stroke-width="1.12687"/>
<circle opacity="0.2" cx="22.5135" cy="232.065" r="2.53547" stroke="#3E80E2" stroke-width="1.12687"/>
<circle opacity="0.2" cx="332.662" cy="186.662" r="3.66234" stroke="#3E80E2" stroke-width="1.12687"/>
<g opacity="0.2" filter="url(#filter0_f_68_9643)">
<ellipse cx="169.848" cy="257.344" rx="69.6915" ry="4.97431" transform="rotate(4.90172 169.848 257.344)" fill="#373E48"/>
</g>
<defs>
<filter id="filter0_f_68_9643" x="86.3239" y="235.51" width="167.048" height="43.6679" filterUnits="userSpaceOnUse" color-interpolation-filters="sRGB">
<feFlood flood-opacity="0" result="BackgroundImageFix"/>
<feBlend mode="normal" in="SourceGraphic" in2="BackgroundImageFix" result="shape"/>
<feGaussianBlur stdDeviation="7.04296" result="effect1_foregroundBlur_68_9643"/>
</filter>
<linearGradient id="paint0_linear_68_9643" x1="29.3033" y1="320.516" x2="335.275" y2="82.15" gradientUnits="userSpaceOnUse">
<stop stop-color="white"/>
<stop offset="1" stop-color="#A0BAE1"/>
</linearGradient>
<linearGradient id="paint1_linear_68_9643" x1="-45.7576" y1="369.731" x2="-2.76321" y2="208.972" gradientUnits="userSpaceOnUse">
<stop offset="0.241255" stop-color="#A0BAE1"/>
<stop offset="1" stop-color="white"/>
</linearGradient>
<linearGradient id="paint2_linear_68_9643" x1="55.4784" y1="232.059" x2="292.525" y2="268.107" gradientUnits="userSpaceOnUse">
<stop stop-color="white"/>
<stop offset="0.03" stop-color="#DEDEDE"/>
<stop offset="0.12" stop-color="#808080"/>
<stop offset="0.19" stop-color="#3B3B3B"/>
<stop offset="0.24" stop-color="#101010"/>
<stop offset="0.27"/>
<stop offset="0.39" stop-color="#030303"/>
<stop offset="0.49" stop-color="#0C0C0C"/>
<stop offset="0.58" stop-color="#1D1D1D"/>
<stop offset="0.66" stop-color="#343434"/>
<stop offset="0.73" stop-color="#515151"/>
<stop offset="0.81" stop-color="#767676"/>
<stop offset="0.88" stop-color="#A2A2A2"/>
<stop offset="0.95" stop-color="#D3D3D3"/>
<stop offset="1" stop-color="white"/>
</linearGradient>
<linearGradient id="paint3_linear_68_9643" x1="45.5387" y1="297.067" x2="312.237" y2="84.6259" gradientUnits="userSpaceOnUse">
<stop stop-color="white"/>
<stop offset="1" stop-color="#A0BAE1"/>
</linearGradient>
<linearGradient id="paint4_linear_68_9643" x1="-26.6425" y1="344.698" x2="18.2967" y2="188.521" gradientUnits="userSpaceOnUse">
<stop offset="0.241255" stop-color="#A0BAE1"/>
<stop offset="1" stop-color="white"/>
</linearGradient>
<linearGradient id="paint5_linear_68_9643" x1="148.32" y1="124.949" x2="256.603" y2="231.165" gradientUnits="userSpaceOnUse">
<stop/>
<stop offset="0.09" stop-color="#050505"/>
<stop offset="0.2" stop-color="#151515"/>
<stop offset="0.32" stop-color="#303030"/>
<stop offset="0.45" stop-color="#555555"/>
<stop offset="0.6" stop-color="#858585"/>
<stop offset="0.74" stop-color="#BEBEBE"/>
<stop offset="0.89" stop-color="white"/>
</linearGradient>
<linearGradient id="paint6_linear_68_9643" x1="93.802" y1="217.879" x2="261.34" y2="172.188" gradientUnits="userSpaceOnUse">
<stop stop-color="#BBBBBB"/>
<stop offset="1" stop-color="white" stop-opacity="0.8"/>
</linearGradient>
<linearGradient id="paint7_linear_68_9643" x1="100.422" y1="197.121" x2="216.787" y2="206.545" gradientUnits="userSpaceOnUse">
<stop stop-color="white"/>
<stop offset="0.12" stop-color="white" stop-opacity="0.98"/>
<stop offset="0.26" stop-color="white" stop-opacity="0.92"/>
<stop offset="0.41" stop-color="white" stop-opacity="0.83"/>
<stop offset="0.57" stop-color="white" stop-opacity="0.7"/>
<stop offset="0.74" stop-color="white" stop-opacity="0.53"/>
<stop offset="0.9" stop-color="white" stop-opacity="0.33"/>
<stop offset="1" stop-color="white" stop-opacity="0.2"/>
</linearGradient>
<linearGradient id="paint8_linear_68_9643" x1="99.0062" y1="100.395" x2="350.69" y2="178.292" gradientUnits="userSpaceOnUse">
<stop stop-color="#F55F6A"/>
<stop offset="1" stop-color="#FFECEE"/>
</linearGradient>
<linearGradient id="paint9_linear_68_9643" x1="261.91" y1="137.975" x2="103.609" y2="49.5341" gradientUnits="userSpaceOnUse">
<stop/>
<stop offset="0.15" stop-color="#030303"/>
<stop offset="0.27" stop-color="#0C0C0C"/>
<stop offset="0.37" stop-color="#1D1D1D"/>
<stop offset="0.47" stop-color="#343434"/>
<stop offset="0.57" stop-color="#525252"/>
<stop offset="0.65" stop-color="#767676"/>
<stop offset="0.74" stop-color="#A2A2A2"/>
<stop offset="0.82" stop-color="#D3D3D3"/>
<stop offset="0.89" stop-color="white"/>
</linearGradient>
<linearGradient id="paint10_linear_68_9643" x1="78.4156" y1="148.147" x2="234.058" y2="71.1426" gradientUnits="userSpaceOnUse">
<stop stop-color="#BBBBBB"/>
<stop offset="1" stop-color="white" stop-opacity="0.8"/>
</linearGradient>
<clipPath id="clip0_68_9643">
<rect width="182.248" height="194.386" fill="white" transform="translate(75.3385 54.3008)"/>
</clipPath>
</defs>
</svg>
