<svg width="1410" height="731" viewBox="0 0 1410 731" fill="none" xmlns="http://www.w3.org/2000/svg">
<path opacity="0.2" d="M1409 731C1409 352.133 1093.81 45 705 45C316.192 45 1 352.133 1 731" stroke="#3E80E2" stroke-width="2" stroke-dasharray="15 15"/>
<circle opacity="0.2" cx="1240" cy="16" r="15" stroke="#3E80E2" stroke-width="2"/>
<circle opacity="0.5" cx="47" cy="151" r="7" stroke="#F56272" stroke-width="2"/>
<path d="M953.803 583.99C953.803 589.411 950.813 594.847 944.832 597.233L885.729 620.819L722.048 686.138C699.346 695.198 674.023 695.198 651.322 686.138L487.641 620.819L428.538 597.233C422.557 594.847 419.566 589.411 419.566 583.99C419.566 578.569 422.557 573.133 428.538 570.746L651.322 481.827C674.023 472.767 699.346 472.767 722.048 481.827L944.832 570.746C950.813 573.133 953.803 578.569 953.803 583.99Z" fill="url(#paint0_linear_208_30)"/>
<path d="M953.803 583.988V613.451C953.803 618.887 950.813 624.308 944.832 626.695L722.048 715.599C699.346 724.659 674.023 724.659 651.322 715.599L428.538 626.695C422.557 624.308 419.566 618.887 419.566 613.451V583.988C419.566 589.409 422.557 594.845 428.538 597.232L487.641 620.817L651.322 686.136C674.023 695.196 699.346 695.196 722.048 686.136L885.729 620.817L944.832 597.232C950.813 594.845 953.803 589.409 953.803 583.988Z" fill="white"/>
<path d="M686.678 718.798C674.966 718.798 663.52 716.603 652.648 712.257L429.864 623.353C424.929 621.379 423.161 616.945 423.161 613.453V598.368C424.369 599.252 425.724 599.989 427.183 600.578L649.967 689.482C661.693 694.167 674.038 696.539 686.663 696.539C699.288 696.539 711.633 694.167 723.359 689.482L887.04 624.163L946.143 600.578C947.601 599.989 948.957 599.252 950.179 598.368V613.453C950.179 616.945 948.412 621.379 943.477 623.353L720.693 712.257C709.821 716.603 698.374 718.798 686.663 718.798H686.678Z" fill="url(#paint1_linear_208_30)"/>
<path style="mix-blend-mode:color-dodge" d="M919.051 545.157L718.511 465.121C698.064 456.96 675.274 456.96 654.842 465.121L454.302 545.157C448.925 547.308 446.229 552.199 446.229 557.075C446.229 561.951 448.925 566.842 454.302 568.993L507.498 590.221L654.827 649.014C675.26 657.175 698.049 657.175 718.496 649.014L865.826 590.221L919.036 568.993C924.428 566.842 927.109 561.966 927.109 557.075C927.109 552.184 924.413 547.308 919.036 545.157H919.051ZM917.71 564.028L864.5 585.256L717.171 644.064C707.433 647.953 697.165 649.927 686.677 649.927C676.188 649.927 665.92 647.953 656.182 644.064L455.658 564.028C451.371 562.319 449.853 558.474 449.853 555.454C449.853 552.434 451.371 548.589 455.658 546.881L656.182 466.844C665.92 462.955 676.188 460.981 686.677 460.981C697.165 460.981 707.433 462.955 717.171 466.844L917.71 546.881C921.982 548.589 923.514 552.434 923.514 555.454C923.514 558.474 921.982 562.319 917.71 564.028Z" fill="url(#paint2_linear_208_30)"/>
<path d="M923.514 555.454C923.514 558.474 921.982 562.319 917.71 564.028L864.5 585.256L717.171 644.064C707.433 647.953 697.165 649.927 686.677 649.927C676.188 649.927 665.92 647.953 656.182 644.064L455.658 564.028C451.371 562.319 449.854 558.474 449.854 555.454C449.854 552.434 451.371 548.589 455.658 546.881L656.182 466.845C665.92 462.955 676.188 460.981 686.677 460.981C697.165 460.981 707.433 462.955 717.171 466.845L917.71 546.881C921.982 548.589 923.514 552.434 923.514 555.454Z" fill="url(#paint3_linear_208_30)"/>
<path d="M927.125 557.075V577.228C927.125 582.119 924.444 586.995 919.053 589.146L718.513 669.182C698.081 677.343 675.291 677.343 654.844 669.182L454.319 589.146C448.942 586.995 446.246 582.119 446.246 577.228V557.075C446.246 561.951 448.942 566.842 454.319 568.993L507.514 590.221L654.844 649.029C675.276 657.19 698.066 657.19 718.513 649.029L865.842 590.221L919.053 568.993C924.444 566.842 927.125 561.951 927.125 557.075Z" fill="url(#paint4_linear_208_30)"/>
<g clip-path="url(#clip0_208_30)">
<mask id="mask0_208_30" style="mask-type:luminance" maskUnits="userSpaceOnUse" x="553" y="364" width="285" height="191">
<path d="M824.932 545.192C824.451 550.914 819.419 555.167 813.697 554.686L563.487 533.633C557.764 533.152 553.512 528.12 553.993 522.398L566.453 374.345C566.934 368.623 571.966 364.37 577.688 364.852L827.898 385.904C833.621 386.386 837.873 391.417 837.392 397.14L824.932 545.192Z" fill="white"/>
</mask>
<g mask="url(#mask0_208_30)">
<rect x="429.542" y="135.887" width="500.647" height="500.647" fill="#F55F6A"/>
</g>
<g opacity="0.46">
<path style="mix-blend-mode:screen" d="M827.872 385.815L637.355 369.785L723.448 547.001L813.67 554.597C819.393 555.078 824.424 550.834 824.905 545.103L837.366 397.051C837.847 391.328 833.594 386.297 827.872 385.815Z" fill="url(#paint5_linear_208_30)"/>
</g>
<g opacity="0.5">
<path d="M586.786 444.208C586.558 446.894 588.562 449.257 591.24 449.484L592.736 449.607L593.515 440.332L587.153 439.798L586.786 444.208Z" fill="white"/>
<path d="M593.585 421.483C592.29 421.378 591.03 421.781 590.041 422.621C589.043 423.461 588.44 424.642 588.326 425.946L588.055 429.14L594.416 429.673L595.09 421.614L593.593 421.492C593.593 421.492 593.585 421.492 593.576 421.492L593.585 421.483Z" fill="white"/>
<path d="M598.852 439.448C598.966 438.065 599.57 436.77 600.559 435.773C599.754 434.627 599.369 433.253 599.491 431.87C599.526 431.494 599.596 431.127 599.692 430.777L595.028 430.383L594.241 439.728L598.87 440.113C598.87 439.894 598.835 439.675 598.861 439.448H598.852Z" fill="white"/>
<path d="M587.996 429.784L587.21 439.131L593.575 439.666L594.361 430.319L587.996 429.784Z" fill="white"/>
<path d="M611.199 431.082L616.546 431.529L617.219 423.47L606.789 422.595L606.457 426.541C608.846 426.97 610.674 428.79 611.191 431.082H611.199Z" fill="white"/>
<path d="M605.808 426.445L606.141 422.542L595.755 421.667L595.081 429.726L599.937 430.137C600.882 427.827 603.201 426.27 605.817 426.445H605.808Z" fill="white"/>
<path d="M618.374 441.756L619.162 432.411L611.339 431.755C611.374 432.122 611.391 432.49 611.356 432.866C611.243 434.249 610.639 435.544 609.65 436.541C610.455 437.687 610.84 439.061 610.718 440.444C610.7 440.671 610.639 440.881 610.595 441.1L618.383 441.756H618.374Z" fill="white"/>
<path d="M615.531 451.522L616.984 451.645C616.984 451.645 616.992 451.645 617.001 451.645C618.296 451.75 619.556 451.347 620.545 450.507C621.542 449.667 622.155 448.486 622.26 447.182L622.627 442.772L616.31 442.238L615.531 451.513V451.522Z" fill="white"/>
<path d="M598.896 440.786L594.18 440.393L593.401 449.668L603.788 450.543L604.181 445.87C601.416 445.59 599.281 443.446 598.905 440.795L598.896 440.786Z" fill="white"/>
<path d="M619.822 432.47L619.036 441.817L622.689 442.125L623.476 432.778L619.822 432.47Z" fill="white"/>
<path d="M619.337 423.653L617.884 423.53L617.211 431.589L623.528 432.123L623.8 428.929C623.905 427.625 623.502 426.365 622.662 425.368C621.822 424.37 620.641 423.767 619.337 423.653Z" fill="white"/>
<path d="M604.838 445.869L604.444 450.586L614.874 451.461L615.653 442.186L610.447 441.748C609.677 444.154 607.428 445.834 604.847 445.861L604.838 445.869Z" fill="white"/>
<path d="M610.053 440.391C610.166 439.079 609.764 437.766 608.941 436.708L608.749 436.471L608.976 436.27C609.965 435.36 610.578 434.135 610.691 432.823C610.936 429.918 608.766 427.354 605.861 427.109C602.956 426.864 600.393 429.034 600.148 431.939C600.034 433.251 600.436 434.564 601.259 435.623L601.443 435.859L601.215 436.06C600.226 436.97 599.614 438.195 599.5 439.508C599.255 442.413 601.425 444.976 604.33 445.221C607.235 445.466 609.799 443.296 610.044 440.391H610.053Z" fill="white"/>
</g>
<path d="M629.216 432.419C628.997 432.402 628.778 432.481 628.621 432.656C628.358 432.944 628.376 433.399 628.673 433.662C629.811 434.694 630.415 436.304 630.275 437.958C630.135 439.638 629.268 441.126 627.956 441.94C627.623 442.15 627.518 442.587 627.728 442.928C627.93 443.252 628.385 443.357 628.717 443.156C630.406 442.106 631.526 440.207 631.701 438.081C631.876 435.981 631.106 433.924 629.636 432.603C629.513 432.498 629.365 432.437 629.216 432.419Z" fill="#E9E9F4"/>
<path d="M633.145 430.362C633.145 430.362 633.092 430.362 633.066 430.362C632.874 430.362 632.699 430.45 632.567 430.581C632.296 430.87 632.305 431.325 632.594 431.596C634.335 433.241 635.236 435.77 635.026 438.36C634.799 441.099 633.372 443.514 631.211 444.809C631.045 444.905 630.931 445.063 630.887 445.246C630.844 445.43 630.87 445.623 630.966 445.789C631.159 446.113 631.614 446.235 631.946 446.034C634.493 444.503 636.181 441.676 636.453 438.482C636.706 435.464 635.63 432.497 633.582 430.555C633.46 430.441 633.311 430.371 633.154 430.362H633.145Z" fill="#E9E9F4"/>
<path d="M637.073 428.307C637.073 428.307 637.03 428.307 637.003 428.307C636.811 428.307 636.636 428.385 636.505 428.525C636.373 428.665 636.295 428.84 636.303 429.033C636.303 429.225 636.382 429.4 636.522 429.54C638.85 431.807 640.066 435.263 639.768 438.772C639.445 442.578 637.458 445.912 634.448 447.688C634.282 447.784 634.168 447.942 634.116 448.126C634.072 448.309 634.098 448.502 634.194 448.668C634.387 448.992 634.842 449.114 635.174 448.922C638.587 446.909 640.836 443.156 641.195 438.894C641.527 434.957 640.153 431.08 637.52 428.517C637.397 428.403 637.248 428.333 637.082 428.315L637.073 428.307Z" fill="#E9E9F4"/>
<g style="mix-blend-mode:overlay">
<path fill-rule="evenodd" clip-rule="evenodd" d="M824.932 545.192C824.451 550.914 819.419 555.167 813.697 554.686L563.487 533.633C557.764 533.152 553.512 528.12 553.993 522.398L566.453 374.345C566.934 368.623 571.966 364.37 577.688 364.852L827.898 385.904C833.621 386.386 837.873 391.417 837.392 397.14L824.932 545.192Z" stroke="url(#paint6_linear_208_30)" stroke-width="0.568758" stroke-miterlimit="10"/>
</g>
<g style="mix-blend-mode:soft-light" opacity="0.6">
<g style="mix-blend-mode:color-burn">
<path d="M831.345 468.932L649.281 454.18C647.758 454.057 646.621 452.718 646.743 451.196L648.563 428.778C648.686 427.255 650.024 426.118 651.547 426.24L833.611 440.993L831.345 468.924V468.932Z" fill="#912350"/>
</g>
<g style="mix-blend-mode:color-burn">
<path d="M578.308 448.431L560.108 446.952L562.374 419.021L580.575 420.5C582.097 420.623 583.235 421.962 583.112 423.484L581.292 445.902C581.17 447.424 579.831 448.562 578.308 448.439V448.431Z" fill="#912350"/>
</g>
</g>
<path d="M761.721 489.426L558.009 472.924L559.541 454.006L763.252 470.509C764.81 470.631 765.965 471.996 765.834 473.545L764.757 486.836C764.635 488.394 763.27 489.549 761.721 489.418V489.426Z" fill="url(#paint7_linear_208_30)"/>
<path d="M736.567 476.577C736.941 476.608 737.271 476.71 737.556 476.881C737.842 477.047 738.058 477.27 738.204 477.549C738.349 477.829 738.408 478.142 738.379 478.489C738.348 478.857 738.228 479.175 738.02 479.441C737.813 479.702 737.546 479.895 737.219 480.02C736.892 480.145 736.533 480.191 736.143 480.159C735.363 480.093 734.777 479.798 734.384 479.274C733.997 478.75 733.842 478.034 733.919 477.123C733.972 476.484 734.135 475.949 734.405 475.519C734.677 475.084 735.031 474.767 735.468 474.569C735.91 474.367 736.408 474.288 736.96 474.335C737.253 474.36 737.524 474.415 737.773 474.501C738.028 474.583 738.245 474.691 738.425 474.826L737.968 475.59C737.702 475.382 737.349 475.26 736.91 475.223C736.363 475.177 735.921 475.309 735.584 475.619C735.247 475.928 735.052 476.4 734.998 477.034L734.998 477.042C735.182 476.861 735.408 476.733 735.676 476.657C735.945 476.576 736.242 476.55 736.567 476.577ZM736.156 479.325C736.486 479.353 736.762 479.289 736.982 479.133C737.203 478.971 737.326 478.744 737.35 478.452C737.376 478.154 737.292 477.909 737.101 477.719C736.91 477.528 736.641 477.418 736.294 477.389C735.953 477.36 735.666 477.429 735.434 477.595C735.207 477.761 735.082 477.985 735.058 478.267C735.035 478.543 735.118 478.782 735.309 478.984C735.505 479.18 735.787 479.294 736.156 479.325ZM742.723 477.619C743.01 477.779 743.222 477.983 743.359 478.229C743.503 478.47 743.562 478.745 743.536 479.054C743.506 479.401 743.383 479.696 743.166 479.939C742.955 480.183 742.667 480.361 742.303 480.472C741.94 480.578 741.525 480.611 741.059 480.572C740.593 480.533 740.19 480.431 739.849 480.266C739.514 480.096 739.263 479.873 739.095 479.597C738.927 479.321 738.858 479.009 738.887 478.663C738.913 478.354 739.014 478.092 739.191 477.878C739.367 477.658 739.608 477.493 739.912 477.382C739.695 477.238 739.532 477.061 739.424 476.85C739.323 476.634 739.283 476.394 739.305 476.128C739.332 475.808 739.442 475.537 739.636 475.313C739.834 475.09 740.099 474.926 740.43 474.823C740.76 474.72 741.134 474.686 741.551 474.721C741.974 474.757 742.34 474.853 742.648 475.01C742.957 475.167 743.191 475.372 743.349 475.625C743.508 475.879 743.574 476.165 743.547 476.485C743.525 476.75 743.443 476.978 743.301 477.168C743.16 477.358 742.967 477.508 742.723 477.619ZM741.482 475.55C741.151 475.522 740.882 475.571 740.676 475.695C740.474 475.82 740.363 476.01 740.341 476.264C740.321 476.508 740.399 476.711 740.576 476.873C740.76 477.031 741.016 477.123 741.347 477.151C741.683 477.179 741.954 477.131 742.161 477.007C742.368 476.877 742.482 476.69 742.503 476.446C742.524 476.192 742.441 475.985 742.252 475.828C742.069 475.67 741.812 475.578 741.482 475.55ZM741.129 479.743C741.519 479.776 741.834 479.721 742.076 479.577C742.317 479.434 742.45 479.219 742.474 478.932C742.497 478.65 742.402 478.418 742.189 478.237C741.975 478.055 741.673 477.948 741.283 477.915C740.893 477.882 740.58 477.938 740.344 478.081C740.108 478.225 739.978 478.438 739.955 478.72C739.93 479.007 740.023 479.241 740.231 479.422C740.439 479.603 740.739 479.711 741.129 479.743ZM748.733 475.326C749.513 475.391 750.096 475.686 750.483 476.209C750.876 476.733 751.034 477.451 750.957 478.361C750.903 479 750.741 479.537 750.47 479.973C750.199 480.403 749.842 480.719 749.399 480.922C748.963 481.12 748.468 481.196 747.915 481.149C747.623 481.125 747.349 481.072 747.094 480.99C746.845 480.904 746.63 480.793 746.451 480.658L746.908 479.894C747.174 480.102 747.527 480.224 747.966 480.261C748.513 480.307 748.955 480.175 749.292 479.866C749.629 479.556 749.824 479.084 749.877 478.45L749.878 478.442C749.694 478.623 749.467 478.754 749.199 478.835C748.93 478.91 748.634 478.934 748.309 478.907C747.935 478.876 747.605 478.777 747.319 478.611C747.033 478.44 746.817 478.214 746.672 477.935C746.526 477.655 746.468 477.342 746.497 476.995C746.528 476.627 746.647 476.312 746.855 476.051C747.063 475.785 747.33 475.589 747.657 475.464C747.984 475.339 748.343 475.293 748.733 475.326ZM748.582 478.095C748.923 478.124 749.207 478.055 749.434 477.889C749.666 477.723 749.794 477.499 749.818 477.217C749.841 476.941 749.754 476.705 749.558 476.508C749.368 476.306 749.088 476.19 748.72 476.159C748.389 476.131 748.114 476.198 747.893 476.36C747.672 476.516 747.55 476.74 747.525 477.033C747.5 477.331 747.583 477.575 747.775 477.766C747.966 477.956 748.235 478.066 748.582 478.095ZM753.497 478.026C754.299 478.094 754.879 478.301 755.237 478.647C755.596 478.988 755.753 479.427 755.708 479.963C755.679 480.305 755.569 480.607 755.378 480.869C755.187 481.131 754.916 481.329 754.567 481.463C754.217 481.598 753.796 481.644 753.303 481.603C752.896 481.568 752.508 481.478 752.139 481.333C751.77 481.182 751.464 480.992 751.221 480.764L751.737 479.981C751.934 480.172 752.174 480.332 752.458 480.459C752.748 480.582 753.05 480.656 753.364 480.683C753.738 480.714 754.037 480.663 754.261 480.529C754.491 480.39 754.617 480.185 754.64 479.915C754.664 479.622 754.566 479.393 754.346 479.227C754.131 479.056 753.744 478.947 753.186 478.9L751.813 478.785L752.366 475.713L755.706 475.994L755.632 476.88L753.186 476.674L752.953 477.98L753.497 478.026Z" fill="#F4F4F9"/>
<mask id="mask1_208_30" style="mask-type:luminance" maskUnits="userSpaceOnUse" x="514" y="210" width="288" height="197">
<path d="M523.81 237.736L773.406 210.356C779.112 209.73 784.248 213.859 784.873 219.556L801.075 367.256C801.7 372.962 797.572 378.098 791.875 378.723L542.278 406.102C536.573 406.728 531.428 402.6 530.802 396.895L514.602 249.212C513.976 243.506 518.104 238.362 523.81 237.736Z" fill="white"/>
</mask>
<g mask="url(#mask1_208_30)">
<rect x="429.541" y="135.885" width="500.647" height="500.647" fill="url(#paint8_linear_208_30)"/>
</g>
<g opacity="0.46">
<path style="mix-blend-mode:screen" d="M773.357 210.26L583.305 231.121L701.834 388.509L791.838 378.63C797.552 378 801.673 372.873 801.043 367.159L784.829 219.465C784.199 213.752 779.063 209.639 773.357 210.26Z" fill="url(#paint9_linear_208_30)"/>
</g>
<g opacity="0.5">
<path fill-rule="evenodd" clip-rule="evenodd" d="M733.169 357.383L733.668 361.854L736.792 359.247L733.169 357.383Z" fill="white"/>
<path d="M717.535 356.695L716.293 360.602L715.905 360.645L713.846 357.1L714.272 357.053L716.053 360.133L717.135 356.739L717.535 356.695ZM720.598 359.123L718.522 359.35L718.184 360.395L717.774 360.44L719.068 356.527L719.457 356.484L721.569 360.023L721.154 360.069L720.598 359.123ZM720.419 358.819L719.305 356.916L718.63 359.015L720.419 358.819ZM721.777 356.23L722.171 356.186L722.542 359.572L724.629 359.343L724.666 359.684L722.186 359.956L721.777 356.23ZM724.911 355.886L725.305 355.843L725.714 359.569L725.32 359.612L724.911 355.886ZM726.518 355.71L728.035 355.543C728.429 355.5 728.785 355.542 729.104 355.668C729.423 355.791 729.682 355.986 729.879 356.251C730.077 356.513 730.196 356.825 730.235 357.187C730.275 357.549 730.227 357.881 730.091 358.184C729.955 358.482 729.745 358.728 729.461 358.921C729.177 359.11 728.837 359.226 728.444 359.269L726.926 359.436L726.518 355.71ZM728.385 358.931C728.711 358.895 728.99 358.8 729.221 358.645C729.451 358.487 729.622 358.287 729.731 358.045C729.841 357.8 729.879 357.528 729.847 357.23C729.814 356.932 729.718 356.677 729.558 356.464C729.398 356.248 729.188 356.09 728.93 355.989C728.67 355.885 728.377 355.85 728.051 355.886L726.949 356.007L727.283 359.052L728.385 358.931Z" fill="white"/>
<path d="M715.674 362.846L714.246 363.002L714.206 362.631L717.489 362.271L717.53 362.642L716.103 362.799L716.508 366.489L716.078 366.536L715.674 362.846ZM721.569 361.823L722.014 365.884L721.591 365.931L721.385 364.057L718.844 364.336L719.05 366.21L718.621 366.257L718.175 362.196L718.604 362.149L718.803 363.959L721.344 363.68L721.146 361.87L721.569 361.823ZM726.113 365.435L725.042 364.231C724.939 364.254 724.831 364.272 724.719 364.284L723.628 364.404L723.769 365.692L723.34 365.739L722.895 361.678L724.415 361.511C724.933 361.454 725.352 361.534 725.674 361.749C725.995 361.964 726.179 362.288 726.227 362.722C726.261 363.039 726.21 363.316 726.071 363.555C725.936 363.789 725.725 363.97 725.438 364.1L726.583 365.383L726.113 365.435ZM724.667 363.92C725.069 363.876 725.367 363.753 725.56 363.552C725.753 363.351 725.832 363.09 725.797 362.769C725.761 362.44 725.627 362.2 725.395 362.049C725.163 361.895 724.846 361.84 724.444 361.884L723.365 362.002L723.588 364.038L724.667 363.92ZM729.172 365.134C728.646 365.192 728.22 365.086 727.893 364.817C727.566 364.547 727.371 364.125 727.307 363.548L727.052 361.222L727.482 361.175L727.735 363.484C727.787 363.956 727.932 364.296 728.17 364.505C728.408 364.713 728.728 364.796 729.13 364.752C729.536 364.707 729.833 364.557 730.02 364.302C730.208 364.046 730.275 363.683 730.224 363.211L729.97 360.902L730.388 360.856L730.643 363.182C730.707 363.759 730.608 364.214 730.347 364.548C730.09 364.881 729.698 365.077 729.172 365.134Z" fill="white"/>
<path d="M742.765 362.982C742.099 363.055 741.483 362.944 740.917 362.648C740.36 362.351 739.897 361.889 739.529 361.264C739.168 360.629 738.938 359.863 738.84 358.966C738.741 358.069 738.8 357.276 739.016 356.586C739.239 355.887 739.59 355.332 740.07 354.921C740.558 354.51 741.135 354.267 741.801 354.194C742.468 354.121 743.08 354.233 743.637 354.53C744.202 354.826 744.67 355.291 745.039 355.925C745.407 356.551 745.641 357.312 745.739 358.209C745.837 359.106 745.775 359.904 745.552 360.603C745.328 361.294 744.972 361.845 744.484 362.256C744.005 362.667 743.432 362.909 742.765 362.982ZM742.676 362.168C743.178 362.112 743.603 361.924 743.95 361.603C744.307 361.281 744.562 360.841 744.717 360.282C744.873 359.724 744.909 359.066 744.826 358.309C744.743 357.552 744.565 356.918 744.292 356.407C744.02 355.895 743.675 355.521 743.257 355.284C742.848 355.045 742.393 354.954 741.891 355.009C741.389 355.064 740.96 355.253 740.604 355.575C740.256 355.896 740.004 356.336 739.849 356.894C739.694 357.452 739.658 358.11 739.741 358.867C739.824 359.624 740.002 360.258 740.274 360.77C740.547 361.281 740.888 361.656 741.297 361.894C741.714 362.131 742.174 362.223 742.676 362.168ZM749.197 357.043C750.448 356.906 751.382 357.032 752 357.422C752.624 357.804 752.981 358.397 753.069 359.204C753.124 359.706 753.054 360.167 752.859 360.588C752.672 361.009 752.356 361.36 751.913 361.641C751.468 361.915 750.904 362.089 750.221 362.164C749.604 362.232 749.005 362.198 748.424 362.062C747.85 361.916 747.376 361.694 747.002 361.393L747.356 360.642C747.677 360.907 748.082 361.108 748.572 361.246C749.061 361.376 749.577 361.411 750.12 361.351C750.836 361.272 751.369 361.052 751.721 360.688C752.081 360.324 752.231 359.874 752.172 359.34C752.107 358.747 751.836 358.323 751.358 358.067C750.889 357.811 750.132 357.74 749.087 357.854L747.248 358.056L747.217 353.675L751.944 353.157L752.03 353.947L748.081 354.38L748.087 357.165L749.197 357.043ZM756.459 350.888L757.261 350.8L754.464 362.873L753.661 362.961L756.459 350.888ZM764.424 359.732L764.51 360.522L758.45 361.187L758.381 360.557L761.587 356.646C761.991 356.152 762.253 355.736 762.374 355.398C762.503 355.05 762.549 354.712 762.513 354.383C762.457 353.873 762.237 353.497 761.852 353.256C761.475 353.006 760.961 352.917 760.311 352.988C759.299 353.099 758.549 353.506 758.06 354.21L757.371 353.736C757.665 353.304 758.059 352.952 758.554 352.681C759.057 352.41 759.638 352.238 760.296 352.166C761.176 352.069 761.895 352.203 762.451 352.566C763.014 352.921 763.336 353.46 763.415 354.184C763.464 354.628 763.412 355.067 763.26 355.5C763.108 355.933 762.785 356.448 762.292 357.043L759.672 360.253L764.424 359.732ZM767.337 355.053C768.588 354.916 769.522 355.042 770.14 355.433C770.764 355.814 771.121 356.408 771.209 357.214C771.264 357.716 771.194 358.177 770.999 358.598C770.812 359.019 770.496 359.37 770.053 359.652C769.608 359.925 769.044 360.099 768.361 360.174C767.744 360.242 767.145 360.208 766.564 360.072C765.99 359.927 765.516 359.704 765.142 359.403L765.496 358.652C765.817 358.917 766.222 359.118 766.712 359.256C767.201 359.386 767.717 359.421 768.26 359.361C768.975 359.283 769.509 359.062 769.861 358.698C770.22 358.334 770.371 357.885 770.312 357.35C770.247 356.757 769.976 356.333 769.498 356.078C769.029 355.821 768.272 355.75 767.227 355.865L765.388 356.066L765.357 351.685L770.084 351.167L770.17 351.957L766.221 352.39L766.227 355.175L767.337 355.053Z" fill="white"/>
</g>
<path opacity="0.5" d="M546.946 277.451C546.423 277.509 545.937 277.448 545.487 277.27C545.041 277.086 544.674 276.808 544.386 276.434C544.102 276.054 543.932 275.61 543.876 275.102C543.82 274.593 543.89 274.126 544.086 273.699C544.286 273.266 544.584 272.914 544.979 272.643C545.379 272.367 545.843 272.2 546.371 272.142C546.816 272.093 547.226 272.127 547.6 272.245C547.978 272.361 548.306 272.553 548.583 272.819L547.897 273.607C547.506 273.244 547.054 273.091 546.541 273.147C546.223 273.182 545.947 273.284 545.714 273.453C545.479 273.617 545.305 273.832 545.191 274.097C545.081 274.361 545.044 274.652 545.079 274.97C545.113 275.288 545.213 275.564 545.377 275.798C545.546 276.032 545.763 276.206 546.028 276.32C546.292 276.43 546.584 276.467 546.901 276.432C547.415 276.376 547.822 276.126 548.125 275.682L548.965 276.302C548.753 276.627 548.475 276.888 548.13 277.084C547.786 277.28 547.391 277.402 546.946 277.451ZM553.128 276.684L551.981 275.363L551.923 275.369L550.889 275.483L551.046 276.913L549.858 277.043L549.295 271.91L551.517 271.666C551.971 271.617 552.373 271.649 552.722 271.764C553.076 271.879 553.359 272.065 553.57 272.324C553.781 272.583 553.908 272.903 553.95 273.284C553.992 273.666 553.935 274.006 553.78 274.305C553.629 274.598 553.393 274.837 553.072 275.021L554.404 276.544L553.128 276.684ZM552.747 273.416C552.716 273.128 552.599 272.918 552.396 272.787C552.193 272.651 551.914 272.602 551.557 272.642L550.589 272.748L550.785 274.537L551.753 274.431C552.11 274.392 552.372 274.284 552.541 274.107C552.71 273.93 552.778 273.7 552.747 273.416ZM559.119 275.062L559.224 276.015L555.25 276.451L554.687 271.319L558.565 270.893L558.67 271.846L555.972 272.142L556.094 273.257L558.477 272.996L558.578 273.919L556.195 274.181L556.326 275.369L559.119 275.062ZM559.606 270.779L561.938 270.523C562.495 270.462 562.998 270.516 563.447 270.684C563.9 270.847 564.265 271.109 564.542 271.469C564.824 271.829 564.993 272.266 565.049 272.779C565.106 273.292 565.035 273.755 564.838 274.168C564.646 274.58 564.346 274.917 563.94 275.179C563.538 275.436 563.058 275.595 562.501 275.656L560.169 275.912L559.606 270.779ZM562.335 274.687C562.848 274.631 563.241 274.444 563.513 274.128C563.789 273.805 563.901 273.4 563.847 272.911C563.793 272.422 563.597 272.053 563.258 271.803C562.923 271.548 562.499 271.449 561.986 271.505L560.901 271.624L561.25 274.806L562.335 274.687ZM565.664 270.115L566.852 269.984L567.415 275.117L566.227 275.247L565.664 270.115ZM569.239 270.702L567.597 270.882L567.49 269.914L571.963 269.424L572.069 270.391L570.427 270.572L570.884 274.736L569.696 274.867L569.239 270.702ZM577.708 274.077C577.185 274.134 576.698 274.074 576.248 273.896C575.803 273.712 575.436 273.433 575.147 273.059C574.863 272.68 574.693 272.236 574.638 271.727C574.582 271.219 574.652 270.751 574.847 270.324C575.047 269.892 575.345 269.54 575.741 269.269C576.141 268.993 576.605 268.825 577.133 268.767C577.578 268.719 577.987 268.753 578.361 268.87C578.74 268.987 579.068 269.179 579.344 269.445L578.659 270.233C578.268 269.87 577.816 269.717 577.303 269.773C576.985 269.808 576.709 269.91 576.475 270.079C576.241 270.243 576.067 270.458 575.952 270.722C575.843 270.987 575.805 271.278 575.84 271.595C575.875 271.913 575.975 272.189 576.139 272.424C576.308 272.657 576.525 272.831 576.79 272.946C577.054 273.055 577.345 273.093 577.663 273.058C578.176 273.001 578.584 272.751 578.887 272.308L579.726 272.928C579.515 273.253 579.237 273.513 578.892 273.71C578.547 273.906 578.153 274.028 577.708 274.077ZM583.779 272.209L581.396 272.47L581.062 273.62L579.845 273.753L581.569 268.37L582.742 268.241L585.601 273.122L584.354 273.259L583.779 272.209ZM583.306 271.348L582.276 269.472L581.678 271.526L583.306 271.348ZM589.403 272.705L588.257 271.384L588.198 271.39L587.164 271.504L587.321 272.933L586.133 273.064L585.57 267.931L587.792 267.687C588.246 267.637 588.648 267.67 588.997 267.785C589.351 267.9 589.634 268.086 589.845 268.345C590.057 268.604 590.183 268.924 590.225 269.305C590.267 269.686 590.21 270.027 590.055 270.326C589.904 270.619 589.668 270.858 589.347 271.041L590.679 272.565L589.403 272.705ZM589.023 269.437C588.991 269.149 588.874 268.939 588.672 268.808C588.469 268.672 588.189 268.623 587.832 268.662L586.864 268.769L587.06 270.558L588.028 270.451C588.385 270.412 588.648 270.304 588.816 270.128C588.985 269.951 589.054 269.721 589.023 269.437ZM590.962 267.34L593.294 267.084C593.851 267.023 594.354 267.076 594.803 267.245C595.256 267.408 595.621 267.669 595.898 268.03C596.18 268.39 596.349 268.826 596.405 269.34C596.462 269.853 596.391 270.316 596.194 270.728C596.002 271.14 595.702 271.477 595.296 271.739C594.894 271.996 594.414 272.155 593.857 272.216L591.525 272.472L590.962 267.34ZM593.691 271.248C594.204 271.191 594.597 271.005 594.869 270.688C595.145 270.366 595.256 269.96 595.203 269.472C595.149 268.983 594.953 268.613 594.614 268.364C594.279 268.109 593.855 268.009 593.342 268.065L592.257 268.184L592.606 271.367L593.691 271.248Z" fill="white"/>
<path d="M555.628 373.155L560.015 372.674C561.063 372.559 562.01 372.66 562.854 372.977C563.707 373.283 564.394 373.776 564.915 374.454C565.445 375.131 565.764 375.952 565.87 376.918C565.975 377.884 565.843 378.754 565.472 379.53C565.11 380.305 564.547 380.94 563.782 381.433C563.025 381.916 562.123 382.215 561.074 382.33L556.688 382.812L555.628 373.155ZM560.763 380.508C561.728 380.402 562.467 380.051 562.979 379.455C563.499 378.849 563.708 378.086 563.607 377.166C563.506 376.246 563.137 375.552 562.499 375.082C561.869 374.602 561.072 374.415 560.106 374.521L558.064 374.745L558.721 380.732L560.763 380.508ZM574.799 377.097C574.802 377.125 574.809 377.32 574.821 377.681L569.206 378.297C569.358 378.746 569.637 379.083 570.043 379.308C570.449 379.534 570.933 379.615 571.494 379.554C571.88 379.512 572.215 379.419 572.497 379.276C572.787 379.124 573.048 378.909 573.278 378.632L574.559 379.748C573.948 380.625 572.971 381.137 571.628 381.284C570.791 381.376 570.033 381.296 569.354 381.045C568.674 380.785 568.128 380.384 567.715 379.843C567.301 379.302 567.055 378.663 566.974 377.928C566.894 377.201 566.993 376.53 567.269 375.913C567.554 375.286 567.978 374.779 568.541 374.391C569.111 373.994 569.769 373.754 570.514 373.672C571.24 373.592 571.915 373.677 572.538 373.925C573.161 374.173 573.67 374.573 574.066 375.125C574.47 375.667 574.714 376.325 574.799 377.097ZM570.706 375.298C570.219 375.352 569.825 375.535 569.524 375.847C569.223 376.159 569.062 376.558 569.041 377.045L572.697 376.644C572.572 376.183 572.328 375.833 571.967 375.593C571.605 375.344 571.184 375.246 570.706 375.298ZM575.513 370.388L577.665 370.151L578.787 380.387L576.635 380.623L575.513 370.388ZM579.971 372.747L582.123 372.51L582.937 379.932L580.785 380.168L579.971 372.747ZM580.933 371.594C580.538 371.637 580.203 371.558 579.93 371.355C579.656 371.152 579.501 370.881 579.463 370.54C579.426 370.2 579.519 369.902 579.742 369.644C579.965 369.387 580.274 369.237 580.67 369.194C581.065 369.15 581.399 369.225 581.672 369.419C581.944 369.612 582.099 369.874 582.135 370.206C582.174 370.564 582.083 370.877 581.861 371.143C581.638 371.4 581.329 371.55 580.933 371.594ZM593.632 378.926C592.648 379.034 591.733 378.921 590.886 378.585C590.048 378.24 589.357 377.715 588.815 377.012C588.28 376.298 587.961 375.463 587.856 374.506C587.751 373.55 587.882 372.67 588.25 371.866C588.626 371.052 589.187 370.391 589.931 369.881C590.684 369.361 591.557 369.046 592.55 368.937C593.387 368.846 594.157 368.91 594.861 369.131C595.574 369.35 596.19 369.711 596.711 370.212L595.421 371.694C594.686 371.011 593.835 370.723 592.869 370.829C592.272 370.895 591.753 371.086 591.313 371.405C590.872 371.714 590.544 372.117 590.329 372.615C590.123 373.113 590.053 373.66 590.118 374.258C590.184 374.856 590.371 375.375 590.68 375.816C590.998 376.256 591.406 376.583 591.905 376.798C592.402 377.004 592.949 377.075 593.547 377.009C594.513 376.903 595.28 376.433 595.85 375.598L597.43 376.765C597.031 377.376 596.508 377.866 595.86 378.235C595.211 378.604 594.469 378.835 593.632 378.926ZM601.071 370.32C602.221 370.194 603.134 370.373 603.811 370.857C604.486 371.332 604.885 372.122 605.006 373.225L605.47 377.46L603.456 377.681L603.355 376.757C603.026 377.491 602.31 377.919 601.206 378.04C600.636 378.102 600.129 378.06 599.684 377.914C599.249 377.766 598.903 377.534 598.645 377.218C598.387 376.902 598.234 376.528 598.187 376.095C598.111 375.406 598.309 374.835 598.781 374.383C599.261 373.93 600.044 373.644 601.13 373.525L602.84 373.337C602.789 372.868 602.607 372.525 602.295 372.308C601.981 372.082 601.539 372 600.969 372.063C600.574 372.106 600.19 372.213 599.818 372.384C599.454 372.545 599.15 372.746 598.907 372.987L597.969 371.568C598.343 371.238 598.801 370.965 599.345 370.747C599.898 370.528 600.474 370.386 601.071 370.32ZM601.585 376.532C601.953 376.492 602.27 376.373 602.537 376.177C602.803 375.971 602.978 375.695 603.061 375.351L602.978 374.593L601.502 374.754C600.619 374.851 600.209 375.189 600.273 375.769C600.303 376.045 600.433 376.254 600.663 376.396C600.901 376.528 601.208 376.574 601.585 376.532ZM608.767 370.579C608.985 370.192 609.3 369.883 609.712 369.652C610.133 369.419 610.629 369.272 611.199 369.209L611.417 371.196C611.176 371.204 611.014 371.212 610.931 371.221C610.315 371.289 609.852 371.516 609.541 371.904C609.228 372.283 609.11 372.817 609.186 373.507L609.57 377.011L607.418 377.247L606.604 369.825L608.659 369.6L608.767 370.579ZM615.841 376.434C615.225 376.502 614.615 376.494 614.01 376.412C613.404 376.32 612.914 376.178 612.539 375.987L613.087 374.363C613.441 374.538 613.861 374.669 614.345 374.756C614.828 374.833 615.295 374.847 615.745 374.798C616.656 374.698 617.086 374.422 617.037 373.972C617.014 373.76 616.873 373.622 616.615 373.557C616.356 373.493 615.966 373.456 615.444 373.448C614.827 373.423 614.314 373.372 613.905 373.296C613.497 373.22 613.129 373.046 612.801 372.775C612.483 372.503 612.293 372.086 612.231 371.525C612.18 371.056 612.268 370.628 612.495 370.24C612.731 369.842 613.095 369.513 613.588 369.254C614.09 368.995 614.695 368.826 615.403 368.748C615.927 368.691 616.453 368.693 616.981 368.756C617.518 368.809 617.967 368.918 618.33 369.083L617.78 370.693C617.087 370.397 616.354 370.291 615.581 370.376C615.122 370.426 614.784 370.529 614.568 370.683C614.352 370.837 614.255 371.015 614.278 371.217C614.303 371.447 614.445 371.594 614.703 371.659C614.961 371.724 615.366 371.768 615.918 371.791C616.536 371.825 617.045 371.881 617.444 371.959C617.843 372.027 618.201 372.197 618.519 372.469C618.838 372.741 619.027 373.148 619.086 373.691C619.137 374.151 619.044 374.575 618.807 374.964C618.571 375.353 618.197 375.678 617.685 375.939C617.182 376.19 616.568 376.355 615.841 376.434ZM624.204 375.517C623.423 375.603 622.701 375.519 622.041 375.266C621.388 375.002 620.856 374.6 620.442 374.059C620.029 373.518 619.783 372.879 619.702 372.144C619.621 371.408 619.724 370.731 620.01 370.114C620.296 369.496 620.729 368.992 621.31 368.603C621.899 368.203 622.584 367.96 623.366 367.875C624.148 367.789 624.865 367.878 625.517 368.141C626.169 368.395 626.701 368.793 627.114 369.334C627.527 369.875 627.774 370.514 627.855 371.249C627.935 371.985 627.833 372.662 627.547 373.28C627.261 373.897 626.828 374.405 626.248 374.804C625.667 375.194 624.986 375.431 624.204 375.517ZM624.011 373.751C624.562 373.691 624.993 373.457 625.302 373.051C625.619 372.635 625.744 372.114 625.675 371.488C625.606 370.863 625.373 370.386 624.974 370.058C624.583 369.719 624.112 369.58 623.56 369.64C623.008 369.701 622.573 369.939 622.256 370.356C621.938 370.763 621.813 371.279 621.881 371.905C621.95 372.53 622.184 373.012 622.584 373.349C622.983 373.678 623.459 373.812 624.011 373.751ZM633.385 366.776C634.305 366.675 635.075 366.869 635.697 367.36C636.327 367.849 636.702 368.636 636.821 369.721L637.287 373.97L635.135 374.206L634.706 370.288C634.641 369.7 634.464 369.277 634.176 369.02C633.886 368.754 633.497 368.648 633.01 368.701C632.467 368.761 632.054 368.979 631.769 369.354C631.484 369.72 631.377 370.235 631.45 370.897L631.852 374.566L629.7 374.802L628.886 367.381L630.942 367.155L631.037 368.024C631.288 367.68 631.616 367.402 632.02 367.191C632.424 366.969 632.879 366.831 633.385 366.776Z" fill="#EDEDED"/>
<path d="M561.225 327.859L561.402 329.471L557.609 341.381L555.033 341.663L558.707 330.198L553.612 330.757L553.854 332.961L551.612 333.207L551.147 328.965L561.225 327.859ZM571.475 332.96C572.188 333.194 572.753 333.557 573.169 334.049C573.597 334.527 573.849 335.118 573.926 335.822C574.013 336.612 573.867 337.329 573.487 337.97C573.12 338.61 572.552 339.135 571.785 339.544C571.016 339.941 570.1 340.198 569.038 340.314C567.976 340.431 567.026 340.379 566.19 340.158C565.364 339.924 564.702 339.534 564.205 338.988C563.708 338.443 563.416 337.775 563.329 336.984C563.252 336.28 563.364 335.649 563.665 335.091C563.965 334.521 564.432 334.045 565.065 333.663C564.515 333.436 564.073 333.109 563.739 332.683C563.415 332.244 563.221 331.722 563.154 331.116C563.074 330.388 563.202 329.73 563.538 329.143C563.886 328.555 564.408 328.073 565.104 327.696C565.8 327.32 566.624 327.08 567.575 326.975C568.538 326.87 569.4 326.925 570.162 327.141C570.923 327.358 571.537 327.716 572.004 328.214C572.472 328.713 572.745 329.327 572.825 330.055C572.891 330.661 572.808 331.207 572.574 331.695C572.34 332.184 571.974 332.605 571.475 332.96ZM567.782 328.865C567.029 328.948 566.447 329.174 566.038 329.544C565.641 329.912 565.474 330.387 565.538 330.967C565.599 331.523 565.864 331.944 566.333 332.23C566.812 332.502 567.429 332.597 568.182 332.515C568.948 332.431 569.536 332.204 569.945 331.834C570.353 331.452 570.527 330.983 570.466 330.427C570.402 329.846 570.124 329.421 569.632 329.15C569.152 328.877 568.535 328.782 567.782 328.865ZM568.831 338.425C569.72 338.327 570.404 338.065 570.882 337.637C571.36 337.21 571.563 336.669 571.491 336.014C571.421 335.372 571.106 334.894 570.546 334.58C569.987 334.267 569.263 334.159 568.373 334.256C567.484 334.354 566.807 334.616 566.341 335.042C565.875 335.468 565.678 336.002 565.748 336.644C565.82 337.299 566.129 337.784 566.676 338.099C567.223 338.414 567.941 338.522 568.831 338.425ZM579.083 330.981C580.911 330.781 582.303 330.991 583.258 331.611C584.212 332.219 584.756 333.134 584.891 334.357C584.976 335.135 584.862 335.86 584.548 336.532C584.234 337.204 583.715 337.767 582.99 338.222C582.264 338.676 581.34 338.965 580.216 339.088C579.29 339.19 578.38 339.158 577.487 338.994C576.593 338.817 575.823 338.526 575.179 338.122L575.993 336.139C576.518 336.482 577.126 336.733 577.819 336.895C578.523 337.043 579.233 337.077 579.949 336.999C580.801 336.905 581.449 336.659 581.893 336.261C582.348 335.848 582.541 335.333 582.474 334.716C582.401 334.049 582.08 333.578 581.512 333.302C580.956 333.013 580.041 332.939 578.769 333.078L575.638 333.422L575.531 326.29L583.145 325.455L583.367 327.474L577.79 328.086L577.842 331.118L579.083 330.981ZM589.646 324.554C591.425 324.359 592.863 324.764 593.96 325.768C595.07 326.772 595.739 328.311 595.967 330.386C596.127 331.843 595.998 333.12 595.581 334.215C595.162 335.299 594.501 336.165 593.597 336.814C592.704 337.45 591.628 337.836 590.368 337.975C589.701 338.048 589.064 338.049 588.456 337.978C587.859 337.894 587.33 337.739 586.868 337.515L587.558 335.602C588.246 335.951 589.091 336.071 590.091 335.961C591.339 335.824 592.272 335.335 592.892 334.492C593.512 333.649 593.743 332.505 593.585 331.059L593.583 331.041C593.248 331.528 592.798 331.921 592.231 332.22C591.662 332.508 591.008 332.692 590.266 332.773C589.414 332.867 588.631 332.79 587.916 332.544C587.2 332.285 586.618 331.874 586.169 331.31C585.719 330.747 585.451 330.07 585.365 329.28C585.272 328.44 585.402 327.682 585.753 327.006C586.102 326.318 586.616 325.761 587.295 325.337C587.973 324.913 588.757 324.652 589.646 324.554ZM590.522 330.833C591.3 330.748 591.907 330.468 592.343 329.996C592.791 329.522 592.98 328.963 592.909 328.321C592.84 327.691 592.542 327.199 592.016 326.844C591.501 326.476 590.823 326.337 589.983 326.43C589.23 326.512 588.641 326.783 588.216 327.242C587.79 327.689 587.614 328.246 587.687 328.913C587.761 329.592 588.055 330.104 588.568 330.447C589.08 330.791 589.732 330.92 590.522 330.833ZM606.638 327.959C608.466 327.758 609.857 327.968 610.813 328.588C611.767 329.196 612.311 330.111 612.445 331.334C612.531 332.112 612.416 332.837 612.103 333.509C611.789 334.181 611.269 334.744 610.544 335.199C609.819 335.653 608.895 335.942 607.771 336.066C606.844 336.167 605.935 336.136 605.042 335.971C604.147 335.794 603.378 335.504 602.734 335.099L603.547 333.117C604.072 333.459 604.681 333.711 605.374 333.872C606.078 334.02 606.788 334.055 607.504 333.976C608.356 333.883 609.004 333.637 609.448 333.238C609.903 332.826 610.096 332.311 610.028 331.693C609.955 331.026 609.635 330.555 609.067 330.28C608.511 329.991 607.596 329.916 606.324 330.056L603.193 330.399L603.086 323.267L610.7 322.432L610.922 324.452L605.345 325.063L605.396 328.095L606.638 327.959ZM617.366 326.782C619.194 326.581 620.586 326.791 621.542 327.411C622.496 328.019 623.04 328.935 623.174 330.157C623.259 330.935 623.145 331.66 622.831 332.332C622.518 333.004 621.998 333.567 621.273 334.022C620.548 334.477 619.623 334.765 618.499 334.889C617.573 334.99 616.663 334.959 615.77 334.794C614.876 334.617 614.107 334.327 613.462 333.923L614.276 331.94C614.801 332.282 615.41 332.534 616.103 332.695C616.806 332.843 617.516 332.878 618.233 332.799C619.085 332.706 619.733 332.46 620.177 332.061C620.632 331.649 620.825 331.134 620.757 330.516C620.684 329.849 620.364 329.378 619.796 329.103C619.239 328.814 618.325 328.739 617.053 328.879L613.922 329.222L613.814 322.09L621.429 321.255L621.65 323.275L616.074 323.886L616.125 326.918L617.366 326.782ZM630.014 325.338C630.866 325.245 631.65 325.328 632.366 325.587C633.081 325.833 633.662 326.238 634.112 326.801C634.561 327.365 634.829 328.041 634.916 328.832C635.008 329.672 634.879 330.436 634.53 331.124C634.179 331.8 633.664 332.35 632.986 332.775C632.307 333.199 631.523 333.46 630.634 333.558C628.856 333.753 627.411 333.349 626.301 332.345C625.204 331.341 624.541 329.801 624.313 327.726C624.153 326.269 624.283 324.998 624.702 323.915C625.119 322.819 625.774 321.954 626.667 321.318C627.57 320.669 628.652 320.275 629.912 320.137C630.579 320.064 631.211 320.07 631.808 320.154C632.415 320.225 632.95 320.373 633.412 320.597L632.722 322.51C632.034 322.161 631.19 322.041 630.189 322.15C628.942 322.287 628.008 322.777 627.388 323.62C626.768 324.463 626.537 325.607 626.696 327.052L626.698 327.071C627.032 326.584 627.483 326.197 628.052 325.91C628.619 325.61 629.273 325.42 630.014 325.338ZM630.297 331.682C631.051 331.6 631.64 331.335 632.066 330.888C632.491 330.429 632.667 329.866 632.593 329.199C632.519 328.52 632.225 328.008 631.713 327.664C631.2 327.321 630.548 327.192 629.758 327.279C628.98 327.364 628.367 327.644 627.919 328.118C627.483 328.591 627.301 329.148 627.371 329.791C627.44 330.421 627.732 330.92 628.248 331.288C628.774 331.643 629.457 331.774 630.297 331.682ZM645.785 329.646L646.009 331.684L636.449 332.732L636.272 331.12L640.886 325.664C641.405 325.045 641.742 324.521 641.895 324.091C642.058 323.648 642.118 323.223 642.073 322.816C642.007 322.21 641.752 321.77 641.31 321.493C640.867 321.217 640.25 321.122 639.46 321.209C638.138 321.354 637.175 321.915 636.57 322.894L634.741 321.782C635.173 321.047 635.795 320.448 636.607 319.984C637.429 319.506 638.372 319.209 639.434 319.093C640.842 318.938 642.002 319.148 642.915 319.723C643.828 320.298 644.348 321.16 644.474 322.308C644.551 323.012 644.475 323.69 644.247 324.34C644.018 324.99 643.527 325.756 642.774 326.639L639.671 330.316L645.785 329.646ZM663.756 326.756L661.459 327.008L661.782 329.953L659.448 330.209L659.125 327.264L652.01 328.044L651.828 326.377L657.303 317.32L659.878 317.038L654.733 325.683L658.975 325.218L658.689 322.605L660.949 322.357L661.235 324.97L663.533 324.718L663.756 326.756ZM672.937 321.83C673.65 322.064 674.215 322.427 674.632 322.919C675.059 323.397 675.311 323.988 675.389 324.692C675.475 325.483 675.329 326.199 674.949 326.84C674.582 327.481 674.015 328.005 673.247 328.415C672.478 328.811 671.562 329.068 670.5 329.185C669.438 329.301 668.489 329.249 667.652 329.028C666.826 328.794 666.165 328.404 665.667 327.858C665.17 327.313 664.878 326.645 664.791 325.855C664.714 325.151 664.826 324.52 665.127 323.962C665.427 323.391 665.894 322.915 666.527 322.533C665.977 322.306 665.535 321.979 665.201 321.554C664.878 321.114 664.683 320.592 664.616 319.986C664.536 319.258 664.664 318.6 665 318.013C665.348 317.425 665.87 316.943 666.566 316.566C667.262 316.19 668.086 315.95 669.037 315.845C670 315.74 670.863 315.795 671.624 316.012C672.385 316.228 672.999 316.586 673.467 317.084C673.934 317.583 674.207 318.197 674.287 318.926C674.354 319.531 674.27 320.077 674.036 320.566C673.802 321.054 673.436 321.475 672.937 321.83ZM669.244 317.735C668.491 317.818 667.91 318.044 667.5 318.414C667.103 318.782 666.936 319.257 667 319.837C667.061 320.393 667.326 320.814 667.795 321.1C668.275 321.373 668.891 321.467 669.645 321.385C670.41 321.301 670.998 321.074 671.407 320.704C671.816 320.322 671.989 319.853 671.928 319.297C671.864 318.716 671.586 318.291 671.094 318.02C670.614 317.747 669.998 317.652 669.244 317.735ZM670.293 327.295C671.182 327.197 671.866 326.935 672.344 326.507C672.822 326.08 673.025 325.539 672.954 324.884C672.883 324.242 672.568 323.764 672.009 323.45C671.449 323.137 670.725 323.029 669.836 323.126C668.946 323.224 668.269 323.486 667.803 323.912C667.337 324.338 667.14 324.872 667.21 325.514C667.282 326.169 667.591 326.654 668.139 326.969C668.686 327.284 669.404 327.392 670.293 327.295ZM680.545 319.852C682.373 319.651 683.765 319.861 684.72 320.481C685.675 321.089 686.219 322.004 686.353 323.227C686.438 324.005 686.324 324.73 686.01 325.402C685.696 326.074 685.177 326.637 684.452 327.092C683.727 327.546 682.802 327.835 681.678 327.958C680.752 328.06 679.842 328.029 678.949 327.864C678.055 327.687 677.285 327.397 676.641 326.992L677.455 325.009C677.98 325.352 678.589 325.604 679.281 325.765C679.985 325.913 680.695 325.948 681.412 325.869C682.264 325.775 682.912 325.529 683.356 325.131C683.81 324.718 684.004 324.203 683.936 323.586C683.863 322.919 683.542 322.448 682.975 322.173C682.418 321.884 681.504 321.809 680.231 321.948L677.1 322.292L676.993 315.16L684.608 314.325L684.829 316.344L679.253 316.956L679.304 319.988L680.545 319.852ZM691.108 313.424C692.887 313.229 694.325 313.634 695.423 314.638C696.533 315.642 697.202 317.181 697.429 319.256C697.589 320.713 697.46 321.99 697.043 323.086C696.624 324.169 695.963 325.035 695.059 325.684C694.167 326.32 693.09 326.707 691.831 326.845C691.164 326.918 690.526 326.919 689.918 326.848C689.322 326.764 688.792 326.609 688.33 326.385L689.02 324.472C689.709 324.821 690.553 324.941 691.553 324.831C692.801 324.695 693.735 324.205 694.355 323.362C694.975 322.519 695.205 321.375 695.047 319.93L695.045 319.911C694.711 320.398 694.26 320.791 693.693 321.091C693.125 321.378 692.47 321.562 691.729 321.644C690.876 321.737 690.093 321.66 689.379 321.414C688.663 321.155 688.08 320.744 687.631 320.181C687.182 319.617 686.914 318.941 686.827 318.15C686.735 317.31 686.864 316.552 687.215 315.876C687.564 315.188 688.078 314.632 688.757 314.207C689.435 313.783 690.219 313.522 691.108 313.424ZM691.985 319.703C692.763 319.618 693.37 319.339 693.805 318.866C694.253 318.392 694.442 317.833 694.372 317.191C694.302 316.561 694.005 316.069 693.478 315.714C692.963 315.346 692.285 315.208 691.445 315.3C690.692 315.382 690.103 315.653 689.678 316.112C689.252 316.559 689.076 317.116 689.149 317.783C689.224 318.462 689.517 318.974 690.03 319.317C690.543 319.661 691.194 319.79 691.985 319.703ZM709.928 316.572C710.78 316.479 711.564 316.561 712.28 316.82C712.995 317.067 713.577 317.472 714.026 318.035C714.475 318.598 714.743 319.275 714.83 320.066C714.922 320.906 714.793 321.67 714.444 322.358C714.093 323.034 713.578 323.584 712.9 324.009C712.221 324.433 711.438 324.694 710.548 324.792C708.77 324.987 707.326 324.583 706.215 323.579C705.118 322.575 704.455 321.035 704.228 318.96C704.068 317.503 704.197 316.232 704.616 315.149C705.033 314.053 705.688 313.187 706.581 312.552C707.485 311.903 708.566 311.509 709.826 311.371C710.493 311.298 711.125 311.304 711.722 311.388C712.33 311.459 712.864 311.606 713.327 311.831L712.636 313.744C711.948 313.394 711.104 313.275 710.103 313.384C708.856 313.521 707.922 314.011 707.302 314.854C706.682 315.697 706.451 316.841 706.61 318.286L706.612 318.305C706.946 317.818 707.397 317.431 707.966 317.144C708.533 316.844 709.187 316.654 709.928 316.572ZM710.211 322.916C710.965 322.833 711.555 322.569 711.98 322.122C712.405 321.663 712.581 321.1 712.508 320.433C712.433 319.754 712.14 319.242 711.627 318.898C711.114 318.555 710.463 318.426 709.672 318.513C708.894 318.598 708.281 318.878 707.833 319.352C707.397 319.825 707.215 320.382 707.285 321.025C707.354 321.654 707.647 322.154 708.162 322.522C708.688 322.877 709.372 323.008 710.211 322.916ZM725.699 320.88L725.923 322.918L716.363 323.966L716.186 322.354L720.8 316.898C721.32 316.279 721.656 315.754 721.809 315.325C721.973 314.882 722.032 314.457 721.988 314.049C721.921 313.444 721.667 313.003 721.224 312.727C720.781 312.451 720.164 312.356 719.374 312.442C718.052 312.587 717.089 313.149 716.484 314.128L714.656 313.016C715.088 312.281 715.709 311.682 716.521 311.218C717.343 310.74 718.286 310.443 719.348 310.327C720.756 310.172 721.917 310.382 722.83 310.957C723.743 311.532 724.262 312.394 724.388 313.542C724.465 314.246 724.39 314.923 724.161 315.573C723.932 316.224 723.441 316.99 722.688 317.872L719.585 321.55L725.699 320.88ZM730.498 314.372C732.326 314.172 733.718 314.381 734.674 315.002C735.628 315.609 736.172 316.525 736.306 317.747C736.391 318.525 736.277 319.251 735.963 319.922C735.65 320.594 735.13 321.158 734.405 321.612C733.68 322.067 732.755 322.356 731.631 322.479C730.705 322.58 729.795 322.549 728.902 322.384C728.008 322.208 727.239 321.917 726.594 321.513L727.408 319.53C727.933 319.872 728.542 320.124 729.235 320.286C729.938 320.433 730.648 320.468 731.365 320.389C732.217 320.296 732.865 320.05 733.309 319.651C733.763 319.239 733.957 318.724 733.889 318.106C733.816 317.439 733.496 316.968 732.928 316.693C732.371 316.404 731.457 316.329 730.185 316.469L727.054 316.812L726.946 309.681L734.561 308.845L734.782 310.865L729.206 311.476L729.257 314.508L730.498 314.372ZM749.37 317.364L747.072 317.616L747.395 320.562L745.061 320.818L744.738 317.872L737.624 318.653L737.441 316.985L742.916 307.929L745.491 307.646L740.346 316.292L744.589 315.826L744.302 313.214L746.562 312.966L746.849 315.578L749.146 315.326L749.37 317.364Z" fill="#EDEDED"/>
<path d="M548.518 262.601C548.95 262.688 549.302 262.874 549.573 263.162C549.843 263.442 550.003 263.808 550.052 264.26C550.122 264.9 549.926 265.422 549.463 265.825C549.007 266.22 548.302 266.47 547.348 266.574L543.57 266.989L542.769 259.683L546.338 259.291C547.229 259.193 547.929 259.289 548.44 259.578C548.958 259.866 549.248 260.303 549.313 260.887C549.351 261.242 549.299 261.568 549.156 261.866C549.019 262.162 548.807 262.408 548.518 262.601ZM544.589 260.772L544.778 262.494L546.458 262.31C546.876 262.264 547.184 262.156 547.384 261.986C547.583 261.816 547.668 261.589 547.636 261.304C547.605 261.018 547.474 260.818 547.243 260.702C547.011 260.58 546.687 260.542 546.269 260.587L544.589 260.772ZM547.083 265.315C547.529 265.266 547.855 265.156 548.061 264.986C548.275 264.814 548.365 264.576 548.331 264.269C548.265 263.664 547.783 263.411 546.885 263.509L544.913 263.725L545.111 265.531L547.083 265.315ZM556.191 264.02L552.799 264.392L552.323 266.029L550.591 266.219L553.046 258.555L554.716 258.372L558.784 265.32L557.01 265.515L556.191 264.02ZM555.518 262.795L554.052 260.124L553.201 263.049L555.518 262.795ZM565.442 257.195L566.243 264.502L564.855 264.654L560.726 260.618L561.212 265.054L559.542 265.237L558.741 257.931L560.139 257.777L564.258 261.815L563.772 257.379L565.442 257.195ZM570.319 261.15L569.45 262.28L569.652 264.128L567.972 264.312L567.17 257.006L568.851 256.822L569.225 260.235L572.086 256.467L573.965 256.261L571.296 259.849L574.944 263.547L572.971 263.764L570.319 261.15ZM584.553 255.099L585.355 262.405L583.967 262.558L579.837 258.521L580.324 262.957L578.654 263.14L577.853 255.834L579.251 255.681L583.37 259.718L582.883 255.282L584.553 255.099ZM591.724 260.122L588.331 260.494L587.856 262.131L586.123 262.321L588.578 254.658L590.248 254.474L594.317 261.422L592.542 261.617L591.724 260.122ZM591.05 258.897L589.585 256.227L588.733 259.151L591.05 258.897ZM601.724 260.61L601.232 256.227L599.478 260.074L598.716 260.158L596.191 256.875L596.661 261.165L595.075 261.339L594.273 254.033L595.672 253.879L598.905 258.12L601.099 253.284L602.488 253.132L603.31 260.436L601.724 260.61ZM610.552 258.268L610.701 259.625L605.043 260.246L604.242 252.939L609.763 252.334L609.912 253.691L606.071 254.112L606.245 255.698L609.638 255.326L609.782 256.641L606.39 257.014L606.575 258.704L610.552 258.268Z" fill="#EDEDED"/>
<g opacity="0.5">
<path d="M547.983 313.869C548.28 316.547 550.695 318.481 553.364 318.192L554.86 318.026L553.845 308.777L547.502 309.477L547.983 313.869Z" fill="white"/>
<path d="M550.284 290.262C548.998 290.411 547.834 291.041 547.02 292.056C546.207 293.071 545.83 294.348 545.979 295.643L546.329 298.828L552.673 298.128L551.789 290.087L550.293 290.253C550.293 290.253 550.284 290.253 550.275 290.253L550.284 290.262Z" fill="white"/>
<path d="M558.903 306.886C558.754 305.504 559.096 304.121 559.874 302.958C558.859 301.986 558.221 300.709 558.072 299.326C558.028 298.95 558.037 298.574 558.063 298.215L553.408 298.723L554.432 308.041L559.043 307.534C558.991 307.315 558.929 307.105 558.903 306.886Z" fill="white"/>
<path d="M552.751 298.801L546.402 299.498L547.425 308.822L553.774 308.125L552.751 298.801Z" fill="white"/>
<path d="M569.421 296.299L574.758 295.713L573.874 287.671L563.471 288.818L563.899 292.755C566.323 292.72 568.476 294.146 569.421 296.299Z" fill="white"/>
<path d="M563.235 292.782L562.806 288.888L552.446 290.026L553.33 298.067L558.177 297.533C558.658 295.083 560.645 293.114 563.235 292.782Z" fill="white"/>
<path d="M578.504 305.399L577.48 296.08L569.675 296.938C569.78 297.288 569.867 297.647 569.902 298.023C570.051 299.405 569.71 300.788 568.931 301.952C569.946 302.923 570.585 304.201 570.733 305.583C570.76 305.811 570.733 306.029 570.733 306.248L578.495 305.399H578.504Z" fill="white"/>
<path d="M577.593 315.532L579.046 315.374C579.046 315.374 579.055 315.374 579.063 315.374C580.358 315.226 581.513 314.587 582.327 313.581C583.141 312.566 583.517 311.288 583.377 309.993L582.896 305.6L576.596 306.292L577.611 315.541L577.593 315.532Z" fill="white"/>
<path d="M559.209 308.182L554.502 308.698L555.517 317.947L565.877 316.81L565.369 312.146C562.604 312.4 560.093 310.711 559.209 308.173V308.182Z" fill="white"/>
<path d="M581.782 295.612L578.137 296.012L579.16 305.336L582.805 304.937L581.782 295.612Z" fill="white"/>
<path d="M575.974 287.444L574.522 287.602L575.406 295.643L581.706 294.952L581.356 291.767C581.216 290.472 580.577 289.308 579.553 288.494C578.538 287.68 577.261 287.304 575.966 287.453L575.974 287.444Z" fill="white"/>
<path d="M566.017 312.031L566.533 316.739L576.937 315.593L575.922 306.344L570.725 306.913C570.427 309.424 568.546 311.506 566.017 312.031Z" fill="white"/>
<path d="M570.077 305.662C569.937 304.35 569.29 303.142 568.275 302.258L568.047 302.057L568.231 301.812C569.027 300.727 569.395 299.415 569.246 298.102C568.931 295.206 566.306 293.097 563.41 293.421C560.513 293.736 558.405 296.361 558.728 299.257C558.868 300.57 559.516 301.777 560.531 302.661L560.758 302.862L560.575 303.107C559.778 304.192 559.411 305.513 559.56 306.817C559.875 309.713 562.5 311.822 565.396 311.498C568.292 311.183 570.401 308.558 570.077 305.662Z" fill="white"/>
</g>
<path d="M587.357 294.155C587.139 294.182 586.946 294.295 586.824 294.497C586.622 294.838 586.727 295.275 587.069 295.477C588.39 296.273 589.282 297.734 589.466 299.388C589.65 301.059 589.081 302.687 587.961 303.737C587.672 304.008 587.655 304.463 587.926 304.752C588.189 305.032 588.652 305.049 588.941 304.787C590.394 303.43 591.129 301.357 590.892 299.239C590.665 297.139 589.51 295.275 587.812 294.26C587.672 294.173 587.515 294.147 587.366 294.164L587.357 294.155Z" fill="#E9E9F4"/>
<path d="M590.814 291.382C590.814 291.382 590.761 291.382 590.735 291.399C590.551 291.443 590.394 291.557 590.289 291.714C590.079 292.047 590.175 292.493 590.507 292.703C592.529 293.989 593.911 296.291 594.191 298.881C594.489 301.619 593.553 304.253 591.689 305.942C591.549 306.073 591.461 306.248 591.453 306.441C591.444 306.633 591.505 306.817 591.636 306.957C591.89 307.237 592.363 307.263 592.651 307.01C594.856 305.015 595.968 301.926 595.618 298.732C595.285 295.722 593.666 293.018 591.277 291.504C591.137 291.417 590.98 291.382 590.814 291.399V291.382Z" fill="#E9E9F4"/>
<path d="M594.271 288.608C594.271 288.608 594.227 288.608 594.201 288.617C594.017 288.66 593.851 288.765 593.746 288.923C593.641 289.08 593.606 289.273 593.641 289.465C593.676 289.649 593.79 289.815 593.947 289.92C596.669 291.697 598.524 294.855 598.909 298.355C599.32 302.153 598.016 305.802 595.4 308.129C595.26 308.261 595.172 308.436 595.164 308.619C595.155 308.812 595.216 308.996 595.339 309.136C595.592 309.416 596.065 309.451 596.345 309.197C599.302 306.563 600.79 302.451 600.326 298.198C599.897 294.278 597.797 290.734 594.726 288.722C594.586 288.625 594.42 288.59 594.254 288.608H594.271Z" fill="#E9E9F4"/>
<g style="mix-blend-mode:overlay">
<path d="M523.81 237.736L773.406 210.356C779.112 209.73 784.248 213.859 784.873 219.556L801.075 367.256C801.7 372.962 797.572 378.098 791.875 378.723L542.278 406.102C536.573 406.728 531.428 402.6 530.802 396.895L514.602 249.212C513.976 243.506 518.104 238.362 523.81 237.736Z" stroke="url(#paint10_linear_208_30)" stroke-width="0.568758" stroke-miterlimit="10"/>
</g>
<g style="mix-blend-mode:soft-light" opacity="0.3">
<g style="mix-blend-mode:color-burn">
<path d="M792.539 292.73L610.93 312.312C609.407 312.479 608.051 311.376 607.885 309.862L605.479 287.506C605.312 285.983 606.415 284.627 607.929 284.461L789.537 264.878L792.539 292.738V292.73Z" fill="#912350"/>
</g>
<g style="mix-blend-mode:color-burn">
<path d="M540.832 319.944L522.675 321.904L519.674 294.044L537.83 292.084C539.353 291.918 540.709 293.02 540.875 294.534L543.282 316.891C543.448 318.413 542.345 319.769 540.832 319.936V319.944Z" fill="#912350"/>
</g>
</g>
</g>
<path d="M969.506 351.677C971.228 349.349 974.922 350.57 974.917 353.465L974.902 363.89C974.901 364.842 975.352 365.739 976.118 366.306L984.498 372.505C986.825 374.227 985.604 377.922 982.709 377.917L972.285 377.902C971.332 377.9 970.435 378.352 969.869 379.117L963.669 387.497C961.947 389.825 958.253 388.604 958.257 385.709L958.273 375.285C958.274 374.332 957.823 373.435 957.057 372.869L948.677 366.669C946.349 364.947 947.57 361.253 950.466 361.257L960.89 361.272C961.843 361.274 962.739 360.823 963.306 360.057L969.506 351.677Z" fill="#3E80E2"/>
<path d="M459.084 241.64C459.502 240.77 460.788 240.937 460.968 241.885L462.489 249.86C462.549 250.172 462.753 250.437 463.039 250.575L470.36 254.084C471.231 254.502 471.063 255.788 470.115 255.968L462.14 257.489C461.828 257.549 461.563 257.753 461.426 258.039L457.916 265.36C457.499 266.231 456.213 266.063 456.032 265.115L454.511 257.14C454.452 256.828 454.248 256.563 453.961 256.426L446.64 252.916C445.77 252.499 445.937 251.213 446.885 251.032L454.86 249.511C455.172 249.452 455.437 249.248 455.575 248.961L459.084 241.64Z" fill="#3E80E2"/>
<path d="M473.52 442.176C473.545 441.729 474.127 441.574 474.372 441.948L476.435 445.1C476.515 445.223 476.65 445.301 476.797 445.309L480.558 445.52C481.005 445.545 481.161 446.126 480.786 446.371L477.634 448.434C477.511 448.515 477.434 448.65 477.425 448.797L477.215 452.558C477.19 453.005 476.608 453.161 476.363 452.786L474.3 449.634C474.22 449.511 474.085 449.433 473.938 449.425L470.177 449.214C469.73 449.189 469.574 448.608 469.949 448.363L473.101 446.3C473.224 446.219 473.302 446.085 473.31 445.938L473.52 442.176Z" fill="#3E80E2"/>
<path d="M813.089 162.669C813.114 162.222 813.695 162.066 813.941 162.441L818.504 169.414C818.585 169.537 818.72 169.615 818.867 169.623L827.188 170.089C827.635 170.114 827.79 170.695 827.416 170.94L820.443 175.504C820.319 175.585 820.242 175.719 820.233 175.866L819.768 184.187C819.742 184.634 819.161 184.79 818.916 184.415L814.352 177.442C814.271 177.319 814.137 177.241 813.99 177.233L805.669 176.767C805.222 176.742 805.066 176.161 805.441 175.916L812.414 171.352C812.537 171.271 812.615 171.137 812.623 170.99L813.089 162.669Z" fill="#F56373"/>
<circle opacity="0.5" cx="388.5" cy="374.5" r="4.5" stroke="#F56272" stroke-width="2"/>
<circle cx="1083.5" cy="550.5" r="4.5" stroke="#F56272" stroke-width="2"/>
<path d="M320.118 564.474C320.002 563.516 321.176 562.965 321.838 563.666L327.665 569.838C327.883 570.069 328.198 570.183 328.513 570.145L336.939 569.118C337.897 569.002 338.448 570.176 337.746 570.838L331.575 576.665C331.344 576.883 331.23 577.198 331.268 577.513L332.294 585.939C332.411 586.897 331.237 587.448 330.575 586.746L324.748 580.574C324.53 580.344 324.215 580.23 323.9 580.268L315.474 581.294C314.516 581.411 313.965 580.237 314.667 579.575L320.838 573.748C321.069 573.53 321.183 573.215 321.145 572.9L320.118 564.474Z" fill="#F56373"/>
<circle opacity="0.2" cx="954" cy="254" r="4" stroke="#3E80E2" stroke-width="2"/>
<circle opacity="0.2" cx="420.5" cy="525.5" r="4.5" stroke="#3E80E2" stroke-width="2"/>
<circle opacity="0.2" cx="879.5" cy="478.5" r="6.5" stroke="#3E80E2" stroke-width="2"/>
<g opacity="0.2" filter="url(#filter0_f_208_30)">
<ellipse cx="681.992" cy="570.365" rx="123.69" ry="8.82851" transform="rotate(4.90172 681.992 570.365)" fill="#373E48"/>
</g>
<defs>
<filter id="filter0_f_208_30" x="533.752" y="531.614" width="296.48" height="77.502" filterUnits="userSpaceOnUse" color-interpolation-filters="sRGB">
<feFlood flood-opacity="0" result="BackgroundImageFix"/>
<feBlend mode="normal" in="SourceGraphic" in2="BackgroundImageFix" result="shape"/>
<feGaussianBlur stdDeviation="12.5" result="effect1_foregroundBlur_208_30"/>
</filter>
<linearGradient id="paint0_linear_208_30" x1="432.551" y1="682.486" x2="975.596" y2="259.429" gradientUnits="userSpaceOnUse">
<stop stop-color="white"/>
<stop offset="1" stop-color="#A0BAE1"/>
</linearGradient>
<linearGradient id="paint1_linear_208_30" x1="299.331" y1="769.834" x2="375.638" y2="484.515" gradientUnits="userSpaceOnUse">
<stop offset="0.241255" stop-color="#A0BAE1"/>
<stop offset="1" stop-color="white"/>
</linearGradient>
<linearGradient id="paint2_linear_208_30" x1="479.007" y1="525.49" x2="899.723" y2="589.469" gradientUnits="userSpaceOnUse">
<stop stop-color="white"/>
<stop offset="0.03" stop-color="#DEDEDE"/>
<stop offset="0.12" stop-color="#808080"/>
<stop offset="0.19" stop-color="#3B3B3B"/>
<stop offset="0.24" stop-color="#101010"/>
<stop offset="0.27"/>
<stop offset="0.39" stop-color="#030303"/>
<stop offset="0.49" stop-color="#0C0C0C"/>
<stop offset="0.58" stop-color="#1D1D1D"/>
<stop offset="0.66" stop-color="#343434"/>
<stop offset="0.73" stop-color="#515151"/>
<stop offset="0.81" stop-color="#767676"/>
<stop offset="0.88" stop-color="#A2A2A2"/>
<stop offset="0.95" stop-color="#D3D3D3"/>
<stop offset="1" stop-color="white"/>
</linearGradient>
<linearGradient id="paint3_linear_208_30" x1="461.366" y1="640.869" x2="934.708" y2="263.824" gradientUnits="userSpaceOnUse">
<stop stop-color="white"/>
<stop offset="1" stop-color="#A0BAE1"/>
</linearGradient>
<linearGradient id="paint4_linear_208_30" x1="333.257" y1="725.405" x2="413.016" y2="448.22" gradientUnits="userSpaceOnUse">
<stop offset="0.241255" stop-color="#A0BAE1"/>
<stop offset="1" stop-color="white"/>
</linearGradient>
<linearGradient id="paint5_linear_208_30" x1="643.784" y1="335.388" x2="835.968" y2="523.902" gradientUnits="userSpaceOnUse">
<stop/>
<stop offset="0.09" stop-color="#050505"/>
<stop offset="0.2" stop-color="#151515"/>
<stop offset="0.32" stop-color="#303030"/>
<stop offset="0.45" stop-color="#555555"/>
<stop offset="0.6" stop-color="#858585"/>
<stop offset="0.74" stop-color="#BEBEBE"/>
<stop offset="0.89" stop-color="white"/>
</linearGradient>
<linearGradient id="paint6_linear_208_30" x1="547.025" y1="500.321" x2="844.375" y2="419.228" gradientUnits="userSpaceOnUse">
<stop stop-color="#BBBBBB"/>
<stop offset="1" stop-color="white" stop-opacity="0.8"/>
</linearGradient>
<linearGradient id="paint7_linear_208_30" x1="558.774" y1="463.477" x2="765.301" y2="480.203" gradientUnits="userSpaceOnUse">
<stop stop-color="white"/>
<stop offset="0.12" stop-color="white" stop-opacity="0.98"/>
<stop offset="0.26" stop-color="white" stop-opacity="0.92"/>
<stop offset="0.41" stop-color="white" stop-opacity="0.83"/>
<stop offset="0.57" stop-color="white" stop-opacity="0.7"/>
<stop offset="0.74" stop-color="white" stop-opacity="0.53"/>
<stop offset="0.9" stop-color="white" stop-opacity="0.33"/>
<stop offset="1" stop-color="white" stop-opacity="0.2"/>
</linearGradient>
<linearGradient id="paint8_linear_208_30" x1="556.261" y1="291.812" x2="1002.95" y2="430.064" gradientUnits="userSpaceOnUse">
<stop stop-color="#F55F6A"/>
<stop offset="1" stop-color="#FFECEE"/>
</linearGradient>
<linearGradient id="paint9_linear_208_30" x1="845.386" y1="358.511" x2="564.431" y2="201.544" gradientUnits="userSpaceOnUse">
<stop/>
<stop offset="0.15" stop-color="#030303"/>
<stop offset="0.27" stop-color="#0C0C0C"/>
<stop offset="0.37" stop-color="#1D1D1D"/>
<stop offset="0.47" stop-color="#343434"/>
<stop offset="0.57" stop-color="#525252"/>
<stop offset="0.65" stop-color="#767676"/>
<stop offset="0.74" stop-color="#A2A2A2"/>
<stop offset="0.82" stop-color="#D3D3D3"/>
<stop offset="0.89" stop-color="white"/>
</linearGradient>
<linearGradient id="paint10_linear_208_30" x1="519.716" y1="376.564" x2="795.954" y2="239.894" gradientUnits="userSpaceOnUse">
<stop stop-color="#BBBBBB"/>
<stop offset="1" stop-color="white" stop-opacity="0.8"/>
</linearGradient>
<clipPath id="clip0_208_30">
<rect width="323.457" height="345" fill="white" transform="translate(514.255 210)"/>
</clipPath>
</defs>
</svg>
