<svg width="158" height="77" viewBox="0 0 158 77" fill="none" xmlns="http://www.w3.org/2000/svg">
<rect width="157.286" height="77" rx="12" fill="#EFF4FB"/>
<g clip-path="url(#clip0_41_23287)">
<path d="M43.8775 21.5633C42.5968 23.0833 40.5477 24.2822 38.4986 24.1109C38.2425 22.0557 39.2457 19.8721 40.4197 18.5234C41.7004 16.9606 43.9416 15.8474 45.7559 15.7617C45.9693 17.9025 45.1369 20.0005 43.8775 21.5633ZM45.7345 24.5177C42.7676 24.3464 40.2276 26.2089 38.8188 26.2089C37.3887 26.2089 35.2329 24.6033 32.8849 24.6461C29.8326 24.6889 26.9937 26.423 25.4356 29.1846C22.2338 34.708 24.6031 42.8859 27.6981 47.3816C29.2136 49.6081 31.0279 52.0486 33.4185 51.963C35.6811 51.8773 36.5776 50.4858 39.3097 50.4858C42.0632 50.4858 42.853 51.963 45.2436 51.9201C47.7196 51.8773 49.2778 49.6937 50.7933 47.4672C52.5222 44.9411 53.2266 42.4791 53.2693 42.3507C53.2266 42.3079 48.488 40.4882 48.4453 35.0077C48.4026 30.4263 52.1807 28.2427 52.3514 28.1142C50.217 24.9458 46.8872 24.6033 45.7345 24.5177ZM62.8745 18.3093V51.6847H68.0399V40.2741H75.1904C81.722 40.2741 86.3111 35.7784 86.3111 29.2703C86.3111 22.7622 81.8074 18.3093 75.3612 18.3093H62.8745ZM68.0399 22.6766H73.9951C78.4776 22.6766 81.0389 25.0743 81.0389 29.2917C81.0389 33.5091 78.4776 35.9282 73.9738 35.9282H68.0399V22.6766ZM95.7456 51.9415C98.99 51.9415 102 50.2931 103.366 47.6813H103.472V51.6847H108.254V35.0719C108.254 30.2551 104.412 27.1509 98.499 27.1509C93.0134 27.1509 88.9579 30.2979 88.8085 34.6223H93.4616C93.8459 32.5671 95.7455 31.2184 98.3496 31.2184C101.509 31.2184 103.28 32.6956 103.28 35.4144V37.2555L96.8341 37.6409C90.8362 38.0048 87.5918 40.4668 87.5918 44.7484C87.5918 49.0728 90.943 51.9415 95.7456 51.9415ZM97.133 47.981C94.3795 47.981 92.6292 46.6537 92.6292 44.6199C92.6292 42.5219 94.3154 41.3017 97.5385 41.109L103.28 40.7451V42.629C103.28 45.7546 100.634 47.981 97.133 47.981ZM114.636 60.7617C119.673 60.7617 122.042 58.835 124.113 52.9905L133.184 27.472H127.934L121.85 47.1889H121.744L115.66 27.472H110.26L119.011 51.7703L118.542 53.2474C117.752 55.7522 116.471 56.7156 114.188 56.7156C113.782 56.7156 112.992 56.6728 112.672 56.6299V60.6333C112.971 60.7189 114.252 60.7617 114.636 60.7617Z" fill="black"/>
</g>
<defs>
<clipPath id="clip0_41_23287">
<rect width="109.286" height="45" fill="white" transform="translate(24 16)"/>
</clipPath>
</defs>
</svg>
