<svg width="164" height="64" viewBox="0 0 164 64" fill="none" xmlns="http://www.w3.org/2000/svg">
<rect width="163.5" height="64" rx="12" fill="#EFF4FB"/>
<g clip-path="url(#clip0_68_9538)">
<path d="M79.5272 31.6336V41.0251H76.4977V17.7988H84.3744C86.2931 17.7988 88.1108 18.5057 89.5246 19.8185C90.9383 21.0303 91.6452 22.848 91.6452 24.7667C91.6452 26.6854 90.9383 28.4021 89.5246 29.7149C88.1108 31.0277 86.3941 31.7346 84.3744 31.7346L79.5272 31.6336ZM79.5272 20.6264V28.7051H84.5764C85.6872 28.7051 86.798 28.3011 87.5049 27.4933C89.1206 25.9785 89.1206 23.4539 87.6059 21.9392L87.5049 21.8382C86.697 21.0303 85.6872 20.5254 84.5764 20.6264H79.5272Z" fill="#5F6368"/>
<path d="M98.614 24.665C100.836 24.665 102.552 25.2709 103.865 26.4827C105.178 27.6945 105.784 29.3103 105.784 31.33V41.0244H102.956V38.8027H102.855C101.643 40.6205 99.9268 41.5293 97.9071 41.5293C96.1904 41.5293 94.6756 41.0244 93.4638 40.0145C92.353 39.0047 91.6461 37.5909 91.6461 36.0762C91.6461 34.4605 92.252 33.1477 93.4638 32.1378C94.6756 31.128 96.3923 30.7241 98.412 30.7241C100.23 30.7241 101.643 31.027 102.754 31.7339V31.027C102.754 30.0172 102.35 29.0073 101.543 28.4014C100.735 27.6945 99.7248 27.2906 98.614 27.2906C96.8973 27.2906 95.5845 27.9975 94.6756 29.4113L92.0501 27.7955C93.6658 25.6749 95.7864 24.665 98.614 24.665ZM94.7766 36.1772C94.7766 36.985 95.1805 37.6919 95.7864 38.0959C96.4933 38.6008 97.3012 38.9037 98.1091 38.9037C99.3209 38.9037 100.533 38.3988 101.442 37.49C102.451 36.5811 102.956 35.4703 102.956 34.2585C102.047 33.5516 100.735 33.1477 99.0179 33.1477C97.8061 33.1477 96.7963 33.4506 95.9884 34.0565C95.1805 34.5614 94.7766 35.2683 94.7766 36.1772Z" fill="#5F6368"/>
<path d="M122.143 25.1699L112.146 48.0932H109.116L112.853 40.1155L106.289 25.2709H109.52L114.266 36.6821H114.367L119.013 25.2709H122.143V25.1699Z" fill="#5F6368"/>
<path d="M67.5121 29.6143C67.5121 28.7054 67.4111 27.7965 67.3101 26.8877H54.6871V32.0379H61.857C61.554 33.6536 60.6452 35.1684 59.2314 36.0772V39.4097H63.5737C66.0983 37.087 67.5121 33.6536 67.5121 29.6143Z" fill="#4285F4"/>
<path d="M54.6872 42.6412C58.3226 42.6412 61.3521 41.4294 63.5737 39.4097L59.2315 36.0773C58.0196 36.8851 56.5049 37.39 54.6872 37.39C51.2537 37.39 48.2242 35.0674 47.2144 31.8359H42.7711V35.2694C45.0937 39.8136 49.638 42.6412 54.6872 42.6412Z" fill="#34A853"/>
<path d="M47.2146 31.8365C46.6087 30.2208 46.6087 28.4031 47.2146 26.6864V23.2529H42.7713C40.8526 26.9893 40.8526 31.4326 42.7713 35.27L47.2146 31.8365Z" fill="#FBBC04"/>
<path d="M54.6869 21.2322C56.6056 21.2322 58.4233 21.9391 59.8371 23.2518L63.6745 19.4145C61.2508 17.1928 58.0194 15.88 54.7879 15.981C49.7387 15.981 45.0935 18.8086 42.8718 23.3528L47.3151 26.7863C48.224 23.5548 51.2535 21.2322 54.6869 21.2322Z" fill="#EA4335"/>
</g>
<defs>
<clipPath id="clip0_68_9538">
<rect width="80.7869" height="32" fill="white" transform="translate(41.3566 16)"/>
</clipPath>
</defs>
</svg>
