<svg width="118" height="77" viewBox="0 0 118 77" fill="none" xmlns="http://www.w3.org/2000/svg">
<rect width="117.667" height="77" rx="12" fill="#EFF4FB"/>
<path d="M36.6262 64.9849V61.3942C36.6262 60.0206 35.7896 59.1212 34.3533 59.1212C33.6351 59.1212 32.8543 59.3583 32.3174 60.1392C31.8991 59.4838 31.2994 59.1212 30.4 59.1212C29.8004 59.1212 29.2008 59.3025 28.7267 59.9579V59.2398H27.4717V64.9849H28.7267V61.8125C28.7267 60.7946 29.2635 60.3135 30.1002 60.3135C30.9369 60.3135 31.3552 60.8503 31.3552 61.8125V64.9849H32.6102V61.8125C32.6102 60.7946 33.2098 60.3135 33.9838 60.3135C34.8204 60.3135 35.2388 60.8503 35.2388 61.8125V64.9849H36.6262ZM55.2421 59.2398H53.2062V57.5037H51.9512V59.2398H50.8148V60.3762H51.9512V63.0117C51.9512 64.3295 52.4881 65.1034 53.9244 65.1034C54.4612 65.1034 55.0609 64.9221 55.4792 64.6851L55.1166 63.6044C54.7541 63.8414 54.3357 63.9042 54.0359 63.9042C53.4363 63.9042 53.1993 63.5416 53.1993 62.949V60.3762H55.2352V59.2398H55.2421ZM65.8957 59.1142C65.1776 59.1142 64.6965 59.4768 64.3967 59.9509V59.2328H63.1417V64.9779H64.3967V61.7428C64.3967 60.7876 64.815 60.2438 65.5959 60.2438C65.833 60.2438 66.1328 60.3065 66.3768 60.3623L66.7394 59.1631C66.4884 59.1142 66.1328 59.1142 65.8957 59.1142ZM49.7968 59.7139C49.1972 59.2955 48.3605 59.1142 47.4611 59.1142C46.0248 59.1142 45.0696 59.8324 45.0696 60.9689C45.0696 61.9241 45.7878 62.4679 47.0428 62.6422L47.6424 62.705C48.2978 62.8235 48.6603 63.0048 48.6603 63.3046C48.6603 63.7229 48.1792 64.0227 47.3426 64.0227C46.5059 64.0227 45.8435 63.7229 45.4252 63.4231L44.8256 64.3783C45.481 64.8594 46.3804 65.0964 47.2798 65.0964C48.9532 65.0964 49.9153 64.3155 49.9153 63.2418C49.9153 62.2239 49.1344 61.687 47.9422 61.5057L47.3426 61.443C46.8057 61.3802 46.3874 61.2617 46.3874 60.9061C46.3874 60.4878 46.8057 60.2507 47.4681 60.2507C48.1862 60.2507 48.9044 60.5505 49.2669 60.7318L49.7968 59.7139ZM83.1869 59.1142C82.4687 59.1142 81.9877 59.4768 81.6879 59.9509V59.2328H80.4328V64.9779H81.6879V61.7428C81.6879 60.7876 82.1062 60.2438 82.8871 60.2438C83.1241 60.2438 83.4239 60.3065 83.668 60.3623L84.0305 59.177C83.7865 59.1142 83.4309 59.1142 83.1869 59.1142ZM67.1507 62.1123C67.1507 63.8484 68.3499 65.1034 70.2046 65.1034C71.0412 65.1034 71.6409 64.9221 72.2405 64.448L71.6408 63.4301C71.1598 63.7926 70.6856 63.9669 70.1418 63.9669C69.1239 63.9669 68.4057 63.2488 68.4057 62.1123C68.4057 61.0316 69.1239 60.3135 70.1418 60.2577C70.6787 60.2577 71.1598 60.439 71.6408 60.7946L72.2405 59.7766C71.6409 59.2955 71.0412 59.1212 70.2046 59.1212C68.3499 59.1142 67.1507 60.3762 67.1507 62.1123ZM78.7595 62.1123V59.2398H77.5045V59.9579C77.0862 59.421 76.4866 59.1212 75.7057 59.1212C74.0881 59.1212 72.8331 60.3762 72.8331 62.1123C72.8331 63.8484 74.0881 65.1034 75.7057 65.1034C76.5423 65.1034 77.142 64.8036 77.5045 64.2667V64.9849H78.7595V62.1123ZM74.1509 62.1123C74.1509 61.0944 74.8062 60.2577 75.8869 60.2577C76.9049 60.2577 77.623 61.0386 77.623 62.1123C77.623 63.1303 76.9049 63.9669 75.8869 63.9669C74.8132 63.9042 74.1509 63.1233 74.1509 62.1123ZM59.1326 59.1142C57.4593 59.1142 56.2601 60.3135 56.2601 62.1053C56.2601 63.9042 57.4593 65.0964 59.1954 65.0964C60.0321 65.0964 60.8687 64.8594 61.5311 64.3155L60.9315 63.4161C60.4504 63.7787 59.8508 64.0157 59.2581 64.0157C58.4773 64.0157 57.7033 63.6532 57.5221 62.6422H61.7682C61.7682 62.4609 61.7682 62.3424 61.7682 62.1611C61.8239 60.3135 60.7432 59.1142 59.1326 59.1142ZM59.1326 60.1949C59.9135 60.1949 60.4504 60.676 60.5689 61.5685H57.5778C57.6964 60.7946 58.2332 60.1949 59.1326 60.1949ZM90.3125 62.1123V56.9668H89.0575V59.9579C88.6392 59.421 88.0396 59.1212 87.2587 59.1212C85.6411 59.1212 84.3861 60.3762 84.3861 62.1123C84.3861 63.8484 85.6411 65.1034 87.2587 65.1034C88.0953 65.1034 88.695 64.8036 89.0575 64.2667V64.9849H90.3125V62.1123ZM85.7039 62.1123C85.7039 61.0944 86.3593 60.2577 87.44 60.2577C88.4579 60.2577 89.176 61.0386 89.176 62.1123C89.176 63.1303 88.4579 63.9669 87.44 63.9669C86.3593 63.9042 85.7039 63.1233 85.7039 62.1123ZM43.6891 62.1123V59.2398H42.4341V59.9579C42.0158 59.421 41.4162 59.1212 40.6353 59.1212C39.0177 59.1212 37.7627 60.3762 37.7627 62.1123C37.7627 63.8484 39.0177 65.1034 40.6353 65.1034C41.4719 65.1034 42.0716 64.8036 42.4341 64.2667V64.9849H43.6891V62.1123ZM39.0247 62.1123C39.0247 61.0944 39.6801 60.2577 40.7608 60.2577C41.7787 60.2577 42.4969 61.0386 42.4969 62.1123C42.4969 63.1303 41.7787 63.9669 40.7608 63.9669C39.6801 63.9042 39.0247 63.1233 39.0247 62.1123Z" fill="black"/>
<path d="M68.2308 15.6084H49.3778V49.4796H68.2308V15.6084Z" fill="#FF5A00"/>
<path d="M50.634 32.5442C50.634 25.6626 53.8691 19.5549 58.8333 15.6087C55.1799 12.7361 50.5712 11 45.5442 11C33.6356 11 24 20.6356 24 32.5442C24 44.4528 33.6356 54.0885 45.5442 54.0885C50.5712 54.0885 55.1799 52.3524 58.8333 49.4798C53.8621 45.5893 50.634 39.4258 50.634 32.5442Z" fill="#EB001B"/>
<path d="M93.6663 32.5442C93.6663 44.4528 84.0307 54.0885 72.1221 54.0885C67.0951 54.0885 62.4865 52.3524 58.833 49.4798C63.86 45.5266 67.0324 39.4258 67.0324 32.5442C67.0324 25.6626 63.7972 19.5549 58.833 15.6087C62.4795 12.7361 67.0881 11 72.1151 11C84.0307 11 93.6663 20.6984 93.6663 32.5442Z" fill="#F79E1B"/>
</svg>
