<svg width="594" height="447" viewBox="0 0 594 447" fill="none" xmlns="http://www.w3.org/2000/svg">
<circle cx="476.5" cy="124.5" r="8.5" stroke="#F56272" stroke-width="2"/>
<circle cx="364.5" cy="5.5" r="4.5" stroke="#F56272" stroke-width="2"/>
<circle opacity="0.2" cx="588.5" cy="108.5" r="4.5" stroke="#3E80E2" stroke-width="2"/>
<circle cx="195.5" cy="441.5" r="4.5" stroke="#3E80E2" stroke-width="2"/>
<circle opacity="0.5" cx="76.5" cy="153.5" r="4.5" stroke="#3E80E2" stroke-width="2"/>
<path d="M343.679 364.553C341.132 364.553 338.584 363.998 336.642 362.863C334.7 361.728 333.615 360.215 333.615 358.601C333.615 356.986 334.675 355.473 336.642 354.338C340.526 352.093 346.832 352.093 350.716 354.338C352.659 355.473 353.743 356.986 353.743 358.601C353.743 360.215 352.684 361.728 350.716 362.863C348.774 363.973 346.227 364.553 343.679 364.553ZM343.679 353.354C341.258 353.354 338.836 353.884 336.995 354.943C335.28 355.927 334.321 357.239 334.321 358.601C334.321 359.963 335.28 361.274 336.995 362.258C340.678 364.377 346.681 364.377 350.363 362.258C352.078 361.274 353.037 359.963 353.037 358.601C353.037 357.239 352.078 355.927 350.363 354.943C348.522 353.884 346.101 353.354 343.679 353.354Z" fill="#3A55CA"/>
<path d="M363.707 353.027C361.159 353.027 358.611 352.472 356.669 351.337C354.727 350.202 353.643 348.689 353.643 347.074C353.643 345.46 354.702 343.947 356.669 342.812C360.554 340.567 366.859 340.567 370.744 342.812C372.686 343.947 373.77 345.46 373.77 347.074C373.77 348.689 372.711 350.202 370.744 351.337C368.802 352.447 366.254 353.027 363.707 353.027ZM363.707 341.828C361.285 341.828 358.864 342.358 357.022 343.417C355.307 344.401 354.349 345.712 354.349 347.074C354.349 348.436 355.307 349.748 357.022 350.732C360.705 352.85 366.708 352.85 370.391 350.732C372.106 349.748 373.064 348.436 373.064 347.074C373.064 345.712 372.106 344.401 370.391 343.417C368.549 342.358 366.128 341.828 363.707 341.828Z" fill="#3A55CA"/>
<path d="M383.682 341.475C381.135 341.475 378.587 340.92 376.645 339.785C374.703 338.65 373.618 337.136 373.618 335.522C373.618 333.908 374.678 332.394 376.645 331.259C380.529 329.014 386.835 329.014 390.719 331.259C392.662 332.394 393.721 333.908 393.721 335.522C393.721 337.136 392.662 338.65 390.719 339.785C388.777 340.894 386.23 341.475 383.682 341.475ZM383.682 330.276C381.261 330.276 378.839 330.805 376.998 331.865C375.283 332.848 374.325 334.16 374.325 335.522C374.325 336.884 375.283 338.196 376.998 339.179C380.681 341.298 386.684 341.298 390.366 339.179C392.082 338.196 393.04 336.884 393.04 335.522C393.04 334.16 392.082 332.848 390.366 331.865C388.525 330.805 386.104 330.276 383.682 330.276Z" fill="#3A55CA"/>
<g style="mix-blend-mode:color-dodge">
<path d="M362.298 252.513L368.401 249.007L365.097 238.086L346.18 236.169L340.076 239.7L358.943 241.567L362.298 252.513Z" fill="url(#paint0_linear_206_65)"/>
<path d="M348.4 260.534L354.504 257.028L351.2 246.106L332.283 244.189L326.179 247.721L345.046 249.587L348.4 260.534Z" fill="url(#paint1_linear_206_65)"/>
<path d="M334.501 268.554L340.605 265.049L337.3 254.127L318.383 252.21L312.279 255.741L331.146 257.633L334.501 268.554Z" fill="url(#paint2_linear_206_65)"/>
<path d="M320.604 276.601L326.708 273.069L323.404 262.148L304.487 260.231L298.383 263.762L317.25 265.654L320.604 276.601Z" fill="url(#paint3_linear_206_65)"/>
<path d="M306.705 284.622L312.809 281.091L309.505 270.169L290.587 268.277L284.483 271.783L303.35 273.675L306.705 284.622Z" fill="url(#paint4_linear_206_65)"/>
<path d="M292.808 292.642L298.912 289.111L295.608 278.19L276.691 276.298L270.587 279.804L289.454 281.696L292.808 292.642Z" fill="url(#paint5_linear_206_65)"/>
<path d="M278.909 300.664L285.013 297.133L281.709 286.236L262.791 284.319L256.687 287.825L275.554 289.717L278.909 300.664Z" fill="url(#paint6_linear_206_65)"/>
<path d="M265.012 308.684L271.116 305.153L267.812 294.257L248.895 292.34L242.791 295.871L261.658 297.738L265.012 308.684Z" fill="url(#paint7_linear_206_65)"/>
<path d="M251.114 316.705L257.218 313.199L253.914 302.278L234.996 300.361L228.893 303.892L247.759 305.759L251.114 316.705Z" fill="url(#paint8_linear_206_65)"/>
<path d="M237.216 324.726L243.32 321.22L240.016 310.299L221.099 308.382L214.995 311.913L233.862 313.78L237.216 324.726Z" fill="url(#paint9_linear_206_65)"/>
</g>
<g filter="url(#filter0_f_206_65)">
<rect width="304.288" height="304.288" rx="22.2217" transform="matrix(0.866041 -0.499972 0.866041 0.499972 0 277.094)" stroke="#9FC1DA" stroke-width="0.925904"/>
</g>
<rect width="304.288" height="304.288" rx="22.2217" transform="matrix(0.866041 -0.499972 0.866041 0.499972 0 277.094)" stroke="#9FC1DA" stroke-width="0.925904"/>
<path d="M281.034 415.303C291.711 421.611 309.288 421.611 319.965 415.303L545.077 282.311C550.046 279.376 552.828 275.434 552.828 271.33L552.828 254.377L541.298 261.029L300.499 399.95L59.6959 261.031L48.1709 254.377L48.171 271.33C48.171 275.434 50.9529 279.376 55.9218 282.311L281.034 415.303Z" fill="url(#paint10_linear_206_65)"/>
<rect width="304.288" height="304.288" rx="22.2217" transform="matrix(0.866041 -0.499972 0.866041 0.499972 37.0361 254.872)" fill="url(#paint11_linear_206_65)"/>
<path style="mix-blend-mode:color-dodge" d="M256.85 213.704C283.208 228.914 283.208 253.582 256.85 268.791C230.492 284.001 187.765 284.001 161.432 268.791C135.074 253.582 135.074 228.914 161.432 213.704C187.79 198.495 230.518 198.495 256.85 213.704Z" fill="url(#paint12_linear_206_65)"/>
<path d="M261.112 229.116C259.75 231.991 257.631 234.791 254.781 237.389C252.663 239.331 250.191 241.173 247.265 242.862C226.204 255.02 192.052 255.02 170.965 242.862C168.039 241.173 165.568 239.331 163.449 237.389C160.624 234.791 158.505 231.991 157.118 229.116C155.832 226.417 155.151 223.617 155.151 220.843V237.389C155.151 240.189 155.832 242.963 157.118 245.662C159.514 250.707 164.105 255.449 170.94 259.409C192.001 271.566 226.153 271.566 247.24 259.409C254.1 255.449 258.666 250.707 261.062 245.662C262.348 242.963 263.029 240.164 263.029 237.389V220.843C263.029 223.643 262.348 226.417 261.062 229.116H261.112Z" fill="url(#paint13_linear_206_65)"/>
<path d="M261.112 212.57C259.75 215.446 257.631 218.246 254.781 220.844C252.663 222.786 250.191 224.627 247.265 226.317C245.474 227.351 243.557 228.259 241.59 229.117C222.42 237.491 195.81 237.491 176.641 229.117C174.673 228.259 172.756 227.351 170.965 226.317C168.039 224.627 165.568 222.786 163.449 220.844C160.624 218.246 158.505 215.446 157.118 212.57C155.832 209.872 155.151 207.072 155.151 204.297V220.844C155.151 223.643 155.832 226.418 157.118 229.117C158.48 231.992 160.599 234.792 163.449 237.39C165.568 239.332 168.039 241.173 170.965 242.863C192.027 255.021 226.178 255.021 247.265 242.863C250.191 241.173 252.663 239.332 254.781 237.39C257.606 234.792 259.725 231.992 261.112 229.117C262.399 226.418 263.08 223.618 263.08 220.844V204.297C263.08 207.097 262.399 209.872 261.112 212.57Z" fill="url(#paint14_linear_206_65)"/>
<path d="M261.112 195.999C259.75 198.874 257.631 201.674 254.781 204.272C252.663 206.214 250.191 208.055 247.265 209.745C245.474 210.779 243.557 211.687 241.59 212.545C222.42 220.919 195.81 220.919 176.641 212.545C174.673 211.687 172.756 210.779 170.965 209.745C168.039 208.055 165.568 206.214 163.449 204.272C160.624 201.674 158.505 198.874 157.118 195.999C155.832 193.3 155.151 190.5 155.151 187.726V204.272C155.151 207.072 155.832 209.846 157.118 212.545C158.48 215.42 160.599 218.22 163.449 220.818C165.568 222.76 168.039 224.602 170.965 226.292C172.756 227.326 174.673 228.234 176.641 229.091C195.81 237.465 222.395 237.465 241.59 229.091C243.557 228.234 245.474 227.326 247.265 226.292C250.191 224.602 252.663 222.76 254.781 220.818C257.606 218.22 259.725 215.42 261.112 212.545C262.399 209.846 263.08 207.046 263.08 204.272V187.726C263.08 190.525 262.399 193.3 261.112 195.999Z" fill="url(#paint15_linear_206_65)"/>
<path d="M261.112 179.452C259.75 182.327 257.631 185.127 254.781 187.725C252.663 189.667 250.191 191.508 247.265 193.198C245.474 194.232 243.557 195.141 241.59 195.998C222.42 204.372 195.81 204.372 176.641 195.998C174.673 195.141 172.756 194.232 170.965 193.198C168.039 191.508 165.568 189.667 163.449 187.725C160.624 185.127 158.505 182.327 157.118 179.452C155.832 176.753 155.151 173.953 155.151 171.179V187.725C155.151 190.525 155.832 193.299 157.118 195.998C158.48 198.874 160.599 201.673 163.449 204.271C165.568 206.213 168.039 208.055 170.965 209.745C172.756 210.779 174.673 211.687 176.641 212.544C195.81 220.918 222.395 220.918 241.59 212.544C243.557 211.687 245.474 210.779 247.265 209.745C250.191 208.055 252.663 206.213 254.781 204.271C257.606 201.673 259.725 198.874 261.112 195.998C262.399 193.299 263.08 190.499 263.08 187.725V171.179C263.08 173.978 262.399 176.753 261.112 179.452Z" fill="url(#paint16_linear_206_65)"/>
<path d="M261.112 162.905C259.75 165.781 257.631 168.581 254.781 171.179C252.663 173.121 250.191 174.962 247.265 176.652C245.474 177.686 243.557 178.594 241.59 179.452C222.42 187.826 195.835 187.826 176.641 179.452C174.673 178.594 172.756 177.686 170.965 176.652C168.039 174.962 165.568 173.121 163.449 171.179C160.624 168.581 158.505 165.781 157.118 162.905C155.832 160.207 155.151 157.407 155.151 154.632V171.179C155.151 173.978 155.832 176.753 157.118 179.452C158.48 182.327 160.599 185.127 163.449 187.725C165.568 189.667 168.039 191.508 170.965 193.198C172.756 194.232 174.673 195.14 176.641 195.998C195.81 204.372 222.395 204.372 241.59 195.998C243.557 195.14 245.474 194.232 247.265 193.198C250.191 191.508 252.663 189.667 254.781 187.725C257.606 185.127 259.725 182.327 261.112 179.452C262.399 176.753 263.08 173.953 263.08 171.179V154.632C263.08 157.432 262.399 160.207 261.112 162.905Z" fill="url(#paint17_linear_206_65)"/>
<path d="M261.112 146.335C259.75 149.211 257.631 152.01 254.781 154.608C252.663 156.55 250.191 158.392 247.265 160.082C245.474 161.116 243.557 162.024 241.59 162.881C222.42 171.255 195.81 171.255 176.641 162.881C174.673 162.024 172.756 161.116 170.965 160.082C168.039 158.392 165.568 156.55 163.449 154.608C160.624 152.01 158.505 149.211 157.118 146.335C155.832 143.636 155.151 140.837 155.151 138.062V154.608C155.151 157.408 155.832 160.183 157.118 162.881C158.48 165.757 160.599 168.557 163.449 171.155C165.568 173.097 168.039 174.938 170.965 176.628C172.756 177.662 174.673 178.57 176.641 179.428C195.81 187.802 222.395 187.802 241.59 179.428C243.557 178.57 245.474 177.662 247.265 176.628C250.191 174.938 252.663 173.097 254.781 171.155C257.606 168.557 259.725 165.757 261.112 162.881C262.399 160.183 263.08 157.383 263.08 154.608V138.062C263.08 140.862 262.399 143.636 261.112 146.335Z" fill="url(#paint18_linear_206_65)"/>
<path d="M262.929 73.8179C262.702 75.9366 262.071 78.0301 261.087 80.0732C259.725 82.9738 257.632 85.7736 254.782 88.3967C252.663 90.3389 250.216 92.1802 247.29 93.8701C245.5 94.9043 243.583 95.8123 241.615 96.6699C222.446 105.044 195.836 105.044 176.666 96.6699C174.699 95.8123 172.782 94.9043 170.991 93.8701C168.065 92.1802 165.593 90.3389 163.5 88.3967C160.65 85.7736 158.556 82.9738 157.194 80.0732C156.235 78.0301 155.58 75.9366 155.353 73.8179H155.201V88.4219C155.201 91.2217 155.882 93.9962 157.169 96.6951C158.531 99.5705 160.65 102.37 163.5 104.968C165.618 106.91 168.09 108.752 171.016 110.442C172.807 111.476 174.724 112.384 176.691 113.241C195.861 121.615 222.446 121.615 241.64 113.241C243.608 112.384 245.525 111.476 247.316 110.442C250.241 108.752 252.713 106.91 254.832 104.968C257.657 102.37 259.776 99.5705 261.163 96.6951C262.449 93.9962 263.13 91.1965 263.13 88.4219V73.8431H262.979L262.929 73.8179Z" fill="url(#paint19_linear_206_65)"/>
<path d="M262.929 73.8179C262.803 75.1042 262.45 76.3654 262.046 77.6265V87.3626C262.046 90.1623 261.365 92.9369 260.079 95.6357C258.717 98.5111 256.598 101.311 253.748 103.909C251.629 105.851 249.157 107.692 246.231 109.382C244.441 110.416 242.524 111.324 240.556 112.182C221.387 120.556 194.777 120.556 175.607 112.182C173.64 111.324 171.723 110.416 169.932 109.382C167.006 107.692 164.534 105.851 162.415 103.909C162.088 103.606 161.785 103.278 161.457 102.95C162.088 103.631 162.743 104.287 163.475 104.943C165.594 106.885 168.065 108.726 170.991 110.416C172.782 111.451 174.699 112.359 176.666 113.216C195.836 121.59 222.421 121.59 241.616 113.216C243.583 112.359 245.5 111.451 247.291 110.416C250.217 108.726 252.688 106.885 254.807 104.943C257.632 102.345 259.751 99.5453 261.138 96.6699C262.425 93.971 263.106 91.1713 263.106 88.3967V73.8179H262.954H262.929Z" fill="url(#paint20_linear_206_65)"/>
<path d="M262.929 140.028C262.803 141.315 262.45 142.576 262.046 143.837V153.573C262.046 156.373 261.365 159.147 260.079 161.846C258.717 164.722 256.598 167.521 253.748 170.119C251.629 172.061 249.157 173.903 246.231 175.593C244.441 176.627 242.524 177.535 240.556 178.392C221.387 186.766 194.777 186.766 175.607 178.392C173.64 177.535 171.723 176.627 169.932 175.593C167.006 173.903 164.534 172.061 162.415 170.119C162.088 169.817 161.785 169.489 161.457 169.161C162.088 169.842 162.743 170.498 163.475 171.153C165.594 173.096 168.065 174.937 170.991 176.627C172.782 177.661 174.699 178.569 176.666 179.427C195.836 187.801 222.421 187.801 241.616 179.427C243.583 178.569 245.5 177.661 247.291 176.627C250.217 174.937 252.688 173.096 254.807 171.153C257.632 168.555 259.751 165.756 261.138 162.88C262.425 160.181 263.106 157.382 263.106 154.607V140.028H262.954H262.929Z" fill="url(#paint21_linear_206_65)"/>
<path d="M262.929 156.575C262.803 157.862 262.45 159.123 262.046 160.384V170.12C262.046 172.92 261.365 175.694 260.079 178.393C258.717 181.268 256.598 184.068 253.748 186.666C251.629 188.608 249.157 190.45 246.231 192.14C244.441 193.174 242.524 194.082 240.556 194.939C221.387 203.313 194.777 203.313 175.607 194.939C173.64 194.082 171.723 193.174 169.932 192.14C167.006 190.45 164.534 188.608 162.415 186.666C162.088 186.363 161.785 186.036 161.457 185.708C162.088 186.389 162.743 187.045 163.475 187.7C165.594 189.642 168.065 191.484 170.991 193.174C172.782 194.208 174.699 195.116 176.666 195.973C195.836 204.347 222.421 204.347 241.616 195.973C243.583 195.116 245.5 194.208 247.291 193.174C250.217 191.484 252.688 189.642 254.807 187.7C257.632 185.102 259.751 182.303 261.138 179.427C262.425 176.728 263.106 173.929 263.106 171.154V156.575H262.954H262.929Z" fill="url(#paint22_linear_206_65)"/>
<path d="M262.929 173.146C262.803 174.433 262.45 175.694 262.046 176.955V186.691C262.046 189.491 261.365 192.266 260.079 194.964C258.717 197.84 256.598 200.64 253.748 203.237C251.629 205.18 249.157 207.021 246.231 208.711C244.441 209.745 242.524 210.653 240.556 211.511C221.387 219.885 194.777 219.885 175.607 211.511C173.64 210.653 171.723 209.745 169.932 208.711C167.006 207.021 164.534 205.18 162.415 203.237C162.088 202.935 161.785 202.607 161.457 202.279C162.088 202.96 162.743 203.616 163.475 204.272C165.594 206.214 168.065 208.055 170.991 209.745C172.782 210.779 174.699 211.687 176.666 212.545C195.836 220.919 222.421 220.919 241.616 212.545C243.583 211.687 245.5 210.779 247.291 209.745C250.217 208.055 252.688 206.214 254.807 204.272C257.632 201.674 259.751 198.874 261.138 195.998C262.425 193.3 263.106 190.5 263.106 187.725V173.146H262.954H262.929Z" fill="url(#paint23_linear_206_65)"/>
<path d="M261.112 129.789C259.75 132.664 257.631 135.464 254.781 138.062C252.663 140.004 250.191 141.845 247.265 143.535C245.474 144.569 243.557 145.477 241.59 146.335C222.42 154.709 195.81 154.709 176.641 146.335C174.673 145.477 172.756 144.569 170.965 143.535C168.039 141.845 165.568 140.004 163.449 138.062C160.624 135.464 158.505 132.664 157.118 129.789C155.832 127.09 155.151 124.29 155.151 121.516V138.062C155.151 140.862 155.832 143.636 157.118 146.335C158.48 149.21 160.599 152.01 163.449 154.608C165.568 156.55 168.039 158.392 170.965 160.082C172.756 161.116 174.673 162.024 176.641 162.881C195.81 171.255 222.395 171.255 241.59 162.881C243.557 162.024 245.474 161.116 247.265 160.082C250.191 158.392 252.663 156.55 254.781 154.608C257.606 152.01 259.725 149.21 261.112 146.335C262.399 143.636 263.08 140.836 263.08 138.062V121.516C263.08 124.315 262.399 127.09 261.112 129.789Z" fill="url(#paint24_linear_206_65)"/>
<path d="M261.112 113.242C259.75 116.117 257.631 118.917 254.781 121.515C252.663 123.457 250.191 125.298 247.265 126.988C245.474 128.023 243.557 128.931 241.59 129.788C222.42 138.162 195.835 138.162 176.641 129.788C174.673 128.931 172.756 128.023 170.965 126.988C168.039 125.298 165.568 123.457 163.449 121.515C160.624 118.917 158.505 116.117 157.118 113.242C155.832 110.543 155.151 107.743 155.151 104.969V121.515C155.151 124.315 155.832 127.089 157.118 129.788C158.48 132.664 160.599 135.463 163.449 138.061C165.568 140.003 168.039 141.845 170.965 143.535C172.756 144.569 174.673 145.477 176.641 146.334C195.81 154.708 222.395 154.708 241.59 146.334C243.557 145.477 245.474 144.569 247.265 143.535C250.191 141.845 252.663 140.003 254.781 138.061C257.606 135.463 259.725 132.664 261.112 129.788C262.399 127.089 263.08 124.29 263.08 121.515V104.969C263.08 107.768 262.399 110.543 261.112 113.242Z" fill="url(#paint25_linear_206_65)"/>
<path d="M261.112 96.6955C259.75 99.5709 257.631 102.371 254.781 104.969C252.663 106.911 250.191 108.752 247.265 110.442C245.474 111.476 243.557 112.384 241.59 113.242C222.42 121.616 195.81 121.616 176.641 113.242C174.673 112.384 172.756 111.476 170.965 110.442C168.039 108.752 165.568 106.911 163.449 104.969C160.624 102.371 158.505 99.5709 157.118 96.6955C155.832 93.9966 155.151 91.1969 155.151 88.4224V104.969C155.151 107.768 155.832 110.543 157.118 113.242C158.48 116.117 160.599 118.917 163.449 121.515C165.568 123.457 168.039 125.298 170.965 126.988C172.756 128.022 174.673 128.93 176.641 129.788C195.81 138.162 222.395 138.162 241.59 129.788C243.557 128.93 245.474 128.022 247.265 126.988C250.191 125.298 252.663 123.457 254.781 121.515C257.606 118.917 259.725 116.117 261.112 113.242C262.399 110.543 263.08 107.743 263.08 104.969V88.4224C263.08 91.2221 262.399 93.9966 261.112 96.6955Z" fill="url(#paint26_linear_206_65)"/>
<path d="M262.929 90.3647C262.803 91.6511 262.45 92.9123 262.046 94.1734V103.909C262.046 106.709 261.365 109.484 260.079 112.183C258.717 115.058 256.598 117.858 253.748 120.456C251.629 122.398 249.157 124.239 246.231 125.929C244.441 126.963 242.524 127.871 240.556 128.729C221.387 137.103 194.777 137.103 175.607 128.729C173.64 127.871 171.723 126.963 169.932 125.929C167.006 124.239 164.534 122.398 162.415 120.456C162.088 120.153 161.785 119.825 161.457 119.497C162.088 120.178 162.743 120.834 163.475 121.49C165.594 123.432 168.065 125.273 170.991 126.963C172.782 127.997 174.699 128.905 176.666 129.763C195.836 138.137 222.421 138.137 241.616 129.763C243.583 128.905 245.5 127.997 247.291 126.963C250.217 125.273 252.688 123.432 254.807 121.49C257.632 118.892 259.751 116.092 261.138 113.217C262.425 110.518 263.106 107.718 263.106 104.944V90.3647H262.954H262.929Z" fill="url(#paint27_linear_206_65)"/>
<path d="M262.929 106.937C262.803 108.223 262.45 109.484 262.046 110.745V120.481C262.046 123.281 261.365 126.056 260.079 128.754C258.717 131.63 256.598 134.43 253.748 137.028C251.629 138.97 249.157 140.811 246.231 142.501C244.441 143.535 242.524 144.443 240.556 145.301C221.387 153.675 194.777 153.675 175.607 145.301C173.64 144.443 171.723 143.535 169.932 142.501C167.006 140.811 164.534 138.97 162.415 137.028C162.088 136.725 161.785 136.397 161.457 136.069C162.088 136.75 162.743 137.406 163.475 138.062C165.594 140.004 168.065 141.845 170.991 143.535C172.782 144.569 174.699 145.477 176.666 146.335C195.836 154.709 222.421 154.709 241.616 146.335C243.583 145.477 245.5 144.569 247.291 143.535C250.217 141.845 252.688 140.004 254.807 138.062C257.632 135.464 259.751 132.664 261.138 129.789C262.425 127.09 263.106 124.29 263.106 121.515V106.937H262.954H262.929Z" fill="url(#paint28_linear_206_65)"/>
<path d="M262.929 123.482C262.803 124.769 262.45 126.03 262.046 127.291V137.027C262.046 139.827 261.365 142.601 260.079 145.3C258.717 148.176 256.598 150.975 253.748 153.573C251.629 155.516 249.157 157.357 246.231 159.047C244.441 160.081 242.524 160.989 240.556 161.847C221.387 170.221 194.777 170.221 175.607 161.847C173.64 160.989 171.723 160.081 169.932 159.047C167.006 157.357 164.534 155.516 162.415 153.573C162.088 153.271 161.785 152.943 161.457 152.615C162.088 153.296 162.743 153.952 163.475 154.608C165.594 156.55 168.065 158.391 170.991 160.081C172.782 161.115 174.699 162.023 176.666 162.881C195.836 171.255 222.421 171.255 241.616 162.881C243.583 162.023 245.5 161.115 247.291 160.081C250.217 158.391 252.688 156.55 254.807 154.608C257.632 152.01 259.751 149.21 261.138 146.334C262.425 143.636 263.106 140.836 263.106 138.061V123.482H262.954H262.929Z" fill="url(#paint29_linear_206_65)"/>
<path d="M262.929 189.693C262.803 190.979 262.45 192.24 262.046 193.502V203.238C262.046 206.037 261.365 208.812 260.079 211.511C258.717 214.386 256.598 217.186 253.748 219.784C251.629 221.726 249.157 223.567 246.231 225.257C244.441 226.291 242.524 227.199 240.556 228.057C221.387 236.431 194.777 236.431 175.607 228.057C173.64 227.199 171.723 226.291 169.932 225.257C167.006 223.567 164.534 221.726 162.415 219.784C162.088 219.481 161.785 219.153 161.457 218.825C162.088 219.506 162.743 220.162 163.475 220.818C165.594 222.76 168.065 224.601 170.991 226.291C172.782 227.326 174.699 228.234 176.666 229.091C195.836 237.465 222.421 237.465 241.616 229.091C243.583 228.234 245.5 227.326 247.291 226.291C250.217 224.601 252.688 222.76 254.807 220.818C257.632 218.22 259.751 215.42 261.138 212.545C262.425 209.846 263.106 207.046 263.106 204.272V189.693H262.954H262.929Z" fill="url(#paint30_linear_206_65)"/>
<path d="M262.929 206.238C262.803 207.525 262.45 208.786 262.046 210.047V219.783C262.046 222.583 261.365 225.357 260.079 228.056C258.717 230.932 256.598 233.731 253.748 236.329C251.629 238.271 249.157 240.113 246.231 241.803C244.441 242.837 242.524 243.745 240.556 244.602C221.387 252.976 194.777 252.976 175.607 244.602C173.64 243.745 171.723 242.837 169.932 241.803C167.006 240.113 164.534 238.271 162.415 236.329C162.088 236.027 161.785 235.699 161.457 235.371C162.088 236.052 162.743 236.708 163.475 237.363C165.594 239.306 168.065 241.147 170.991 242.837C172.782 243.871 174.699 244.779 176.666 245.636C195.836 254.011 222.421 254.011 241.616 245.636C243.583 244.779 245.5 243.871 247.291 242.837C250.217 241.147 252.688 239.306 254.807 237.363C257.632 234.765 259.751 231.966 261.138 229.09C262.425 226.391 263.106 223.592 263.106 220.817V206.238H262.954H262.929Z" fill="url(#paint31_linear_206_65)"/>
<path d="M262.929 222.811C262.803 224.097 262.45 225.358 262.046 226.619V236.355C262.046 239.155 261.365 241.93 260.079 244.628C258.717 247.504 256.598 250.304 253.748 252.902C251.629 254.844 249.157 256.685 246.231 258.375C244.441 259.409 242.524 260.317 240.556 261.175C221.387 269.549 194.777 269.549 175.607 261.175C173.64 260.317 171.723 259.409 169.932 258.375C167.006 256.685 164.534 254.844 162.415 252.902C162.088 252.599 161.785 252.271 161.457 251.943C162.088 252.624 162.743 253.28 163.475 253.936C165.594 255.878 168.065 257.719 170.991 259.409C172.782 260.443 174.699 261.351 176.666 262.209C195.836 270.583 222.421 270.583 241.616 262.209C243.583 261.351 245.5 260.443 247.291 259.409C250.217 257.719 252.688 255.878 254.807 253.936C257.632 251.338 259.751 248.538 261.138 245.663C262.425 242.964 263.106 240.164 263.106 237.389V222.811H262.954H262.929Z" fill="url(#paint32_linear_206_65)"/>
<path d="M209.127 103.001C238.924 103.001 263.079 89.0549 263.079 71.851C263.079 54.6471 238.924 40.7007 209.127 40.7007C179.33 40.7007 155.175 54.6471 155.175 71.851C155.175 89.0549 179.33 103.001 209.127 103.001Z" fill="url(#paint33_linear_206_65)"/>
<path style="mix-blend-mode:screen" d="M169.932 51.9245C190.993 39.767 225.145 39.767 246.232 51.9245C260.155 59.9706 264.821 71.321 260.331 81.6119C266.486 70.7913 262.172 58.432 247.291 49.831C226.23 37.6735 192.078 37.6735 170.991 49.831C163.853 53.9423 159.212 58.9365 156.892 64.2081C159.439 59.7184 163.752 55.5061 169.932 51.9497V51.9245Z" fill="url(#paint34_linear_206_65)"/>
<path d="M239.346 54.4217C256.018 64.0569 256.018 79.6699 239.346 89.305C222.674 98.9402 195.635 98.9402 178.937 89.305C162.265 79.6699 162.265 64.0569 178.937 54.4217C195.609 44.7865 222.648 44.7865 239.346 54.4217Z" fill="url(#paint35_linear_206_65)"/>
<path d="M178.937 56.5152C195.609 46.88 222.648 46.88 239.346 56.5152C247.215 61.0553 251.326 66.9323 251.755 72.9101C252.234 66.2513 248.148 59.5167 239.346 54.4217C222.673 44.7865 195.634 44.7865 178.937 54.4217C170.134 59.4915 166.022 66.2513 166.527 72.9101C166.956 66.9575 171.067 61.0806 178.937 56.5152Z" fill="url(#paint36_linear_206_65)"/>
<path d="M233.921 87.2118C233.643 87.7162 232.861 88.3468 231.6 89.0783C230.894 89.4818 230.238 89.6836 229.658 89.6836C229.078 89.6836 228.372 89.4314 227.59 88.9774L224.033 86.9091C220.78 88.7251 218.005 89.9863 215.76 90.6673C213.49 91.3483 211.523 91.197 209.833 90.2385C208.345 89.3809 207.613 88.2459 207.689 86.8587C211.926 86.0515 215.584 85.0426 218.636 83.7815L208.168 77.7279C203.805 79.1152 200.046 79.771 196.894 79.6953C193.741 79.6196 190.84 78.8378 188.217 77.3244C184.686 75.2813 183.147 73.0365 183.601 70.5646C184.055 68.0928 185.896 65.8479 189.074 63.8049L183.979 60.879C184.635 60.1475 185.341 59.5674 186.123 59.1134C187.082 58.5585 187.839 58.3063 188.393 58.3567C188.948 58.4072 189.478 58.6089 190.008 58.9116L193.741 61.0555C197.02 59.2647 199.592 58.1045 201.408 57.6C203.225 57.0956 204.94 57.2721 206.478 58.1801C207.966 59.0377 208.748 60.1223 208.824 61.4339C205.015 62.2663 201.812 63.1995 199.189 64.2084L209.253 70.0097C213.188 68.7738 216.87 68.0423 220.25 67.7649C223.655 67.4874 227.06 68.345 230.541 70.3376C233.896 72.2798 235.308 74.4489 234.804 76.8956C234.274 79.317 232.231 81.7384 228.624 84.1093L233.946 87.1865L233.921 87.2118ZM195.103 65.9236C193.261 67.0334 192.278 68.0423 192.152 68.9756C192.026 69.9088 192.631 70.7664 193.942 71.5231C195.38 72.3555 196.919 72.7338 198.508 72.6581C200.122 72.5825 202.19 72.2041 204.763 71.4978L195.077 65.8984L195.103 65.9236ZM212.633 76.3659L222.419 82.0159C224.714 80.6286 225.976 79.5188 226.253 78.6612C226.531 77.8036 225.95 76.946 224.538 76.1389C222.873 75.1804 220.981 74.8273 218.812 75.1048C216.668 75.357 214.6 75.7858 212.607 76.3911L212.633 76.3659Z" fill="#976711"/>
<path d="M233.921 85.1182C233.643 85.6226 232.861 86.2532 231.6 86.9846C230.894 87.3882 230.238 87.59 229.658 87.59C229.078 87.59 228.372 87.3378 227.59 86.8838L224.033 84.8407C220.78 86.6568 218.005 87.9179 215.76 88.599C213.49 89.28 211.523 89.1286 209.833 88.1701C208.345 87.3125 207.613 86.1775 207.689 84.7903C211.926 83.9831 215.584 82.9742 218.636 81.7131L208.168 75.6596C203.805 77.0468 200.046 77.7026 196.894 77.627C193.741 77.5513 190.84 76.7694 188.217 75.256C184.686 73.2129 183.147 70.9681 183.601 68.4963C184.055 66.0244 185.896 63.7795 189.074 61.7365L183.979 58.8106C184.635 58.0791 185.341 57.499 186.123 57.045C187.082 56.4901 187.839 56.2379 188.393 56.2883C188.948 56.3388 189.478 56.5405 190.008 56.8432L193.741 58.9872C197.02 57.1964 199.592 56.0361 201.408 55.5317C203.225 55.0272 204.94 55.2037 206.478 56.1118C207.966 56.9694 208.748 58.0539 208.824 59.3655C205.015 60.1979 201.812 61.1311 199.189 62.1401L209.253 67.9413C213.188 66.7054 216.87 65.974 220.25 65.6965C223.655 65.419 227.06 66.2766 230.541 68.2692C233.896 70.2114 235.308 72.3806 234.804 74.8272C234.274 77.2486 232.231 79.67 228.624 82.041L233.946 85.1182H233.921ZM195.103 63.83C193.261 64.9398 192.278 65.9487 192.152 66.882C192.026 67.8152 192.631 68.6728 193.942 69.4295C195.38 70.2618 196.919 70.6402 198.508 70.5645C200.122 70.4888 202.19 70.1105 204.763 69.4043L195.077 63.8048L195.103 63.83ZM212.633 74.2723L222.419 79.9222C224.714 78.535 225.976 77.4252 226.253 76.5676C226.531 75.71 225.95 74.8524 224.538 74.0453C222.873 73.0868 220.981 72.7337 218.812 73.0111C216.668 73.2634 214.6 73.6922 212.607 74.2975L212.633 74.2723Z" fill="white"/>
<path d="M234.78 74.8272C235.285 72.4058 233.872 70.2114 230.517 68.2692C227.062 66.2766 223.632 65.419 220.226 65.6965C216.847 65.974 213.164 66.7306 209.229 67.9413L199.165 62.1401C201.788 61.1311 204.992 60.1979 208.8 59.3655C208.7 58.0539 207.918 56.9694 206.455 56.1118C204.891 55.2037 203.201 55.0272 201.385 55.5317C199.544 56.0361 196.996 57.1964 193.717 58.9872L189.984 56.8432C189.454 56.5405 188.9 56.3388 188.37 56.2883C187.815 56.2379 187.083 56.4901 186.1 57.045C185.343 57.499 184.612 58.0791 183.956 58.8106L189.051 61.7365C185.873 63.7795 184.057 66.0244 183.577 68.4963C183.123 70.9681 184.637 73.2129 188.193 75.256C190.816 76.7694 193.717 77.5765 196.87 77.6269C200.023 77.7026 203.781 77.0468 208.145 75.6596L218.612 81.7131C215.56 82.949 211.903 83.9831 207.665 84.7903C207.59 86.1775 208.296 87.2873 209.809 88.1701C211.499 89.1538 213.492 89.3052 215.737 88.5989C217.982 87.9179 220.756 86.6568 224.01 84.8407L227.566 86.8838C228.348 87.3378 229.029 87.5648 229.635 87.59C230.215 87.59 230.871 87.3882 231.577 86.9846C232.838 86.2532 233.62 85.6226 233.897 85.1182L228.575 82.041C232.182 79.67 234.25 77.2738 234.755 74.8272H234.78ZM198.535 70.5645C196.92 70.6402 195.407 70.2618 193.969 69.4295C192.658 68.6728 192.052 67.8152 192.179 66.882C192.305 65.9487 193.288 64.9146 195.13 63.83L204.815 69.4295C202.242 70.1357 200.149 70.5141 198.56 70.5897L198.535 70.5645ZM226.28 76.5423C226.002 77.3999 224.716 78.535 222.446 79.897L212.66 74.2471C214.652 73.667 216.695 73.2381 218.864 72.9607C221.008 72.7085 222.925 73.0364 224.59 73.9948C226.028 74.8272 226.583 75.6596 226.305 76.5171L226.28 76.5423Z" fill="url(#paint37_linear_206_65)"/>
<path d="M201.383 56.591C203.199 56.0866 204.915 56.2631 206.453 57.1711C207.538 57.8017 208.244 58.5584 208.572 59.416C208.648 59.416 208.723 59.3907 208.799 59.3655C208.698 58.0539 207.916 56.9694 206.453 56.1118C204.889 55.2037 203.199 55.0272 201.383 55.5317C199.542 56.0361 196.995 57.1964 193.716 58.9872L189.983 56.8432C189.453 56.5405 188.898 56.3388 188.368 56.2883C187.813 56.2379 187.082 56.4901 186.098 57.045C185.342 57.499 184.61 58.0791 183.954 58.8106L184.635 59.2142C185.089 58.7854 185.569 58.407 186.098 58.1044C187.057 57.5495 187.813 57.2972 188.368 57.3477C188.923 57.3981 189.453 57.5999 189.983 57.9026L193.716 60.0465C196.995 58.2557 199.567 57.0955 201.383 56.591ZM183.601 68.4963C183.526 68.8494 183.601 69.1773 183.601 69.5052C184.08 67.0585 185.896 64.8137 189.049 62.7958L188.242 62.3418C185.594 64.2336 184.005 66.2766 183.576 68.4963H183.601ZM198.533 70.5645C196.919 70.6402 195.406 70.2618 193.968 69.4295C193.035 68.8998 192.48 68.2945 192.278 67.6639C192.278 67.7396 192.202 67.8404 192.177 67.9161C192.051 68.8493 192.656 69.707 193.968 70.4636C195.406 71.296 196.944 71.6743 198.533 71.5987C200.147 71.523 202.216 71.1446 204.788 70.4384L203.502 69.6817C201.56 70.161 199.845 70.4889 198.533 70.5393V70.5645ZM199.164 63.1994L209.228 69.0007C213.162 67.7648 216.845 67.0333 220.225 66.7559C223.63 66.4784 227.035 67.336 230.516 69.3286C233.013 70.7663 234.425 72.3553 234.779 74.0705C234.879 71.9518 233.517 70.0096 230.516 68.2692C227.06 66.2766 223.63 65.419 220.225 65.6965C216.845 65.974 213.162 66.7306 209.228 67.9413L200.274 62.7706C199.895 62.8967 199.517 63.0481 199.164 63.1742V63.1994ZM228.574 83.1003L233.265 85.7992C233.543 85.547 233.795 85.32 233.896 85.1182L229.356 82.495C229.078 82.6967 228.851 82.8986 228.549 83.0751L228.574 83.1003ZM222.419 79.9222L213.894 75.0037C213.465 75.1046 213.036 75.2055 212.633 75.3317L222.419 80.9816C224.715 79.5943 225.976 78.4845 226.253 77.627C226.354 77.3243 226.304 76.9964 226.178 76.6937C225.824 77.5261 224.589 78.6107 222.419 79.9222ZM207.639 84.8155C207.639 85.1686 207.639 85.5217 207.74 85.8496C211.927 85.0425 215.559 84.0336 218.585 82.7977L217.476 82.1671C214.651 83.2265 211.397 84.1093 207.639 84.8407V84.8155Z" fill="url(#paint38_linear_206_65)"/>
<path style="mix-blend-mode:color-dodge" d="M351.109 289.93C388.373 289.93 418.581 272.482 418.581 250.96C418.581 229.438 388.373 211.991 351.109 211.991C313.846 211.991 283.638 229.438 283.638 250.96C283.638 272.482 313.846 289.93 351.109 289.93Z" fill="url(#paint39_linear_206_65)"/>
<path d="M403.094 238.853C401.732 241.729 399.614 244.528 396.763 247.126C394.645 249.069 392.173 250.91 389.247 252.6C368.186 264.757 334.034 264.757 312.948 252.6C310.022 250.91 307.55 249.069 305.431 247.126C302.606 244.528 300.487 241.729 299.1 238.853C297.814 236.154 297.133 233.355 297.133 230.58V247.126C297.133 249.926 297.814 252.701 299.1 255.4C301.496 260.444 306.087 265.186 312.922 269.146C333.984 281.303 368.135 281.303 389.222 269.146C396.082 265.186 400.648 260.444 403.044 255.4C404.33 252.701 405.011 249.901 405.011 247.126V230.58C405.011 233.38 404.33 236.154 403.044 238.853H403.094Z" fill="url(#paint40_linear_206_65)"/>
<path d="M403.094 222.282C401.732 225.157 399.614 227.957 396.763 230.555C394.645 232.497 392.173 234.338 389.247 236.028C387.456 237.063 385.539 237.971 383.572 238.828C364.402 247.202 337.792 247.202 318.623 238.828C316.655 237.971 314.738 237.063 312.948 236.028C310.022 234.338 307.55 232.497 305.431 230.555C302.606 227.957 300.487 225.157 299.1 222.282C297.814 219.583 297.133 216.783 297.133 214.009V230.555C297.133 233.355 297.814 236.129 299.1 238.828C300.462 241.704 302.581 244.503 305.431 247.101C307.55 249.043 310.022 250.885 312.948 252.575C334.009 264.732 368.161 264.732 389.247 252.575C392.173 250.885 394.645 249.043 396.763 247.101C399.588 244.503 401.707 241.704 403.094 238.828C404.381 236.129 405.062 233.33 405.062 230.555V214.009C405.062 216.809 404.381 219.583 403.094 222.282Z" fill="url(#paint41_linear_206_65)"/>
<path d="M403.094 205.736C401.732 208.611 399.614 211.411 396.763 214.009C394.645 215.951 392.173 217.792 389.247 219.482C387.456 220.516 385.539 221.424 383.572 222.282C364.402 230.656 337.792 230.656 318.623 222.282C316.655 221.424 314.738 220.516 312.948 219.482C310.022 217.792 307.55 215.951 305.431 214.009C302.606 211.411 300.487 208.611 299.1 205.736C297.814 203.037 297.133 200.237 297.133 197.462V214.009C297.133 216.808 297.814 219.583 299.1 222.282C300.462 225.157 302.581 227.957 305.431 230.555C307.55 232.497 310.022 234.338 312.948 236.028C314.738 237.062 316.655 237.97 318.623 238.828C337.792 247.202 364.377 247.202 383.572 238.828C385.539 237.97 387.456 237.062 389.247 236.028C392.173 234.338 394.645 232.497 396.763 230.555C399.588 227.957 401.707 225.157 403.094 222.282C404.381 219.583 405.062 216.783 405.062 214.009V197.462C405.062 200.262 404.381 203.037 403.094 205.736Z" fill="url(#paint42_linear_206_65)"/>
<path d="M403.094 189.189C401.732 192.065 399.614 194.864 396.763 197.462C394.645 199.404 392.173 201.246 389.247 202.936C387.456 203.97 385.539 204.878 383.572 205.735C364.402 214.109 337.792 214.109 318.623 205.735C316.655 204.878 314.738 203.97 312.948 202.936C310.022 201.246 307.55 199.404 305.431 197.462C302.606 194.864 300.487 192.065 299.1 189.189C297.814 186.49 297.133 183.691 297.133 180.916V197.462C297.133 200.262 297.814 203.037 299.1 205.735C300.462 208.611 302.581 211.411 305.431 214.009C307.55 215.951 310.022 217.792 312.948 219.482C314.738 220.516 316.655 221.424 318.623 222.282C337.792 230.656 364.377 230.656 383.572 222.282C385.539 221.424 387.456 220.516 389.247 219.482C392.173 217.792 394.645 215.951 396.763 214.009C399.588 211.411 401.707 208.611 403.094 205.735C404.381 203.037 405.062 200.237 405.062 197.462V180.916C405.062 183.716 404.381 186.49 403.094 189.189Z" fill="url(#paint43_linear_206_65)"/>
<path d="M403.094 172.618C401.732 175.493 399.614 178.293 396.763 180.891C394.645 182.833 392.173 184.674 389.247 186.364C387.456 187.398 385.539 188.307 383.572 189.164C364.402 197.538 337.817 197.538 318.623 189.164C316.655 188.307 314.738 187.398 312.948 186.364C310.022 184.674 307.55 182.833 305.431 180.891C302.606 178.293 300.487 175.493 299.1 172.618C297.814 169.919 297.133 167.119 297.133 164.345V180.891C297.133 183.691 297.814 186.465 299.1 189.164C300.462 192.04 302.581 194.839 305.431 197.437C307.55 199.379 310.022 201.221 312.948 202.911C314.738 203.945 316.655 204.853 318.623 205.71C337.792 214.084 364.377 214.084 383.572 205.71C385.539 204.853 387.456 203.945 389.247 202.911C392.173 201.221 394.645 199.379 396.763 197.437C399.588 194.839 401.707 192.04 403.094 189.164C404.381 186.465 405.062 183.666 405.062 180.891V164.345C405.062 167.144 404.381 169.919 403.094 172.618Z" fill="url(#paint44_linear_206_65)"/>
<path d="M403.094 156.071C401.732 158.946 399.614 161.746 396.763 164.344C394.645 166.286 392.173 168.128 389.247 169.818C387.456 170.852 385.539 171.76 383.572 172.617C364.402 180.991 337.792 180.991 318.623 172.617C316.655 171.76 314.738 170.852 312.948 169.818C310.022 168.128 307.55 166.286 305.431 164.344C302.606 161.746 300.487 158.946 299.1 156.071C297.814 153.372 297.133 150.572 297.133 147.798V164.344C297.133 167.144 297.814 169.918 299.1 172.617C300.462 175.493 302.581 178.292 305.431 180.89C307.55 182.833 310.022 184.674 312.948 186.364C314.738 187.398 316.655 188.306 318.623 189.164C337.792 197.538 364.377 197.538 383.572 189.164C385.539 188.306 387.456 187.398 389.247 186.364C392.173 184.674 394.645 182.833 396.763 180.89C399.588 178.292 401.707 175.493 403.094 172.617C404.381 169.918 405.062 167.119 405.062 164.344V147.798C405.062 150.598 404.381 153.372 403.094 156.071Z" fill="url(#paint45_linear_206_65)"/>
<path d="M404.91 133.194C404.683 135.313 404.052 137.406 403.069 139.449C401.707 142.35 399.613 145.15 396.763 147.773C394.644 149.715 392.198 151.556 389.272 153.246C387.481 154.28 385.564 155.188 383.597 156.046C364.427 164.42 337.817 164.42 318.648 156.046C316.68 155.188 314.763 154.28 312.972 153.246C310.047 151.556 307.575 149.715 305.481 147.773C302.631 145.15 300.537 142.35 299.175 139.449C298.217 137.406 297.561 135.313 297.334 133.194H297.183V147.798C297.183 150.598 297.864 153.372 299.15 156.071C300.512 158.947 302.631 161.746 305.481 164.344C307.6 166.286 310.072 168.128 312.998 169.818C314.788 170.852 316.705 171.76 318.673 172.617C337.842 180.991 364.427 180.991 383.622 172.617C385.589 171.76 387.506 170.852 389.297 169.818C392.223 168.128 394.695 166.286 396.813 164.344C399.638 161.746 401.757 158.947 403.144 156.071C404.431 153.372 405.112 150.572 405.112 147.798V133.219H404.96L404.91 133.194Z" fill="url(#paint46_linear_206_65)"/>
<path d="M404.91 133.194C404.784 134.48 404.431 135.741 404.028 137.003V146.739C404.028 149.538 403.347 152.313 402.06 155.012C400.698 157.887 398.579 160.687 395.729 163.285C393.611 165.227 391.139 167.068 388.213 168.758C386.422 169.792 384.505 170.7 382.538 171.558C363.368 179.932 336.758 179.932 317.589 171.558C315.621 170.7 313.704 169.792 311.913 168.758C308.987 167.068 306.516 165.227 304.397 163.285C304.069 162.982 303.766 162.654 303.438 162.326C304.069 163.007 304.725 163.663 305.456 164.319C307.575 166.261 310.047 168.102 312.973 169.792C314.764 170.826 316.68 171.735 318.648 172.592C337.817 180.966 364.402 180.966 383.597 172.592C385.564 171.735 387.481 170.826 389.272 169.792C392.198 168.102 394.67 166.261 396.789 164.319C399.614 161.721 401.732 158.921 403.12 156.046C404.406 153.347 405.087 150.547 405.087 147.773V133.194H404.936H404.91Z" fill="url(#paint47_linear_206_65)"/>
<path d="M404.91 149.766C404.784 151.052 404.431 152.313 404.028 153.574V163.31C404.028 166.11 403.347 168.885 402.06 171.583C400.698 174.459 398.579 177.259 395.729 179.857C393.611 181.799 391.139 183.64 388.213 185.33C386.422 186.364 384.505 187.272 382.538 188.13C363.368 196.504 336.758 196.504 317.589 188.13C315.621 187.272 313.704 186.364 311.913 185.33C308.987 183.64 306.516 181.799 304.397 179.857C304.069 179.554 303.766 179.226 303.438 178.898C304.069 179.579 304.725 180.235 305.456 180.891C307.575 182.833 310.047 184.674 312.973 186.364C314.764 187.398 316.68 188.306 318.648 189.164C337.817 197.538 364.402 197.538 383.597 189.164C385.564 188.306 387.481 187.398 389.272 186.364C392.198 184.674 394.67 182.833 396.789 180.891C399.614 178.293 401.732 175.493 403.12 172.618C404.406 169.919 405.087 167.119 405.087 164.344V149.766H404.936H404.91Z" fill="url(#paint48_linear_206_65)"/>
<path d="M404.91 166.312C404.784 167.598 404.431 168.86 404.028 170.121V179.857C404.028 182.656 403.347 185.431 402.06 188.13C400.698 191.005 398.579 193.805 395.729 196.403C393.611 198.345 391.139 200.186 388.213 201.876C386.422 202.91 384.505 203.819 382.538 204.676C363.368 213.05 336.758 213.05 317.589 204.676C315.621 203.819 313.704 202.91 311.913 201.876C308.987 200.186 306.516 198.345 304.397 196.403C304.069 196.1 303.766 195.772 303.438 195.444C304.069 196.126 304.725 196.781 305.456 197.437C307.575 199.379 310.047 201.221 312.973 202.911C314.764 203.945 316.68 204.853 318.648 205.71C337.817 214.084 364.402 214.084 383.597 205.71C385.564 204.853 387.481 203.945 389.272 202.911C392.198 201.221 394.67 199.379 396.789 197.437C399.614 194.839 401.732 192.039 403.12 189.164C404.406 186.465 405.087 183.665 405.087 180.891V166.312H404.936H404.91Z" fill="url(#paint49_linear_206_65)"/>
<path d="M404.91 182.859C404.784 184.145 404.431 185.406 404.028 186.668V196.404C404.028 199.203 403.347 201.978 402.06 204.677C400.698 207.552 398.579 210.352 395.729 212.95C393.611 214.892 391.139 216.733 388.213 218.423C386.422 219.457 384.505 220.365 382.538 221.223C363.368 229.597 336.758 229.597 317.589 221.223C315.621 220.365 313.704 219.457 311.913 218.423C308.987 216.733 306.516 214.892 304.397 212.95C304.069 212.647 303.766 212.319 303.438 211.991C304.069 212.672 304.725 213.328 305.456 213.984C307.575 215.926 310.047 217.767 312.973 219.457C314.764 220.492 316.68 221.4 318.648 222.257C337.817 230.631 364.402 230.631 383.597 222.257C385.564 221.4 387.481 220.492 389.272 219.457C392.198 217.767 394.67 215.926 396.789 213.984C399.614 211.386 401.732 208.586 403.12 205.711C404.406 203.012 405.087 200.212 405.087 197.438V182.859H404.936H404.91Z" fill="url(#paint50_linear_206_65)"/>
<path d="M404.91 199.429C404.784 200.716 404.431 201.977 404.028 203.238V212.974C404.028 215.774 403.347 218.548 402.06 221.247C400.698 224.122 398.579 226.922 395.729 229.52C393.611 231.462 391.139 233.304 388.213 234.994C386.422 236.028 384.505 236.936 382.538 237.793C363.368 246.167 336.758 246.167 317.589 237.793C315.621 236.936 313.704 236.028 311.913 234.994C308.987 233.304 306.516 231.462 304.397 229.52C304.069 229.218 303.766 228.89 303.438 228.562C304.069 229.243 304.725 229.899 305.456 230.554C307.575 232.497 310.047 234.338 312.973 236.028C314.764 237.062 316.68 237.97 318.648 238.827C337.817 247.202 364.402 247.202 383.597 238.827C385.564 237.97 387.481 237.062 389.272 236.028C392.198 234.338 394.67 232.497 396.789 230.554C399.614 227.956 401.732 225.157 403.12 222.281C404.406 219.582 405.087 216.783 405.087 214.008V199.429H404.936H404.91Z" fill="url(#paint51_linear_206_65)"/>
<path d="M404.91 215.976C404.784 217.262 404.431 218.523 404.028 219.784V229.52C404.028 232.32 403.347 235.095 402.06 237.793C400.698 240.669 398.579 243.469 395.729 246.067C393.611 248.009 391.139 249.85 388.213 251.54C386.422 252.574 384.505 253.482 382.538 254.34C363.368 262.714 336.758 262.714 317.589 254.34C315.621 253.482 313.704 252.574 311.913 251.54C308.987 249.85 306.516 248.009 304.397 246.067C304.069 245.764 303.766 245.436 303.438 245.108C304.069 245.789 304.725 246.445 305.456 247.101C307.575 249.043 310.047 250.884 312.973 252.574C314.764 253.608 316.68 254.516 318.648 255.374C337.817 263.748 364.402 263.748 383.597 255.374C385.564 254.516 387.481 253.608 389.272 252.574C392.198 250.884 394.67 249.043 396.789 247.101C399.614 244.503 401.732 241.703 403.12 238.828C404.406 236.129 405.087 233.329 405.087 230.554V215.976H404.936H404.91Z" fill="url(#paint52_linear_206_65)"/>
<path d="M404.91 232.522C404.784 233.808 404.431 235.07 404.028 236.331V246.067C404.028 248.866 403.347 251.641 402.06 254.34C400.698 257.215 398.579 260.015 395.729 262.613C393.611 264.555 391.139 266.396 388.213 268.086C386.422 269.12 384.505 270.028 382.538 270.886C363.368 279.26 336.758 279.26 317.589 270.886C315.621 270.028 313.704 269.12 311.913 268.086C308.987 266.396 306.516 264.555 304.397 262.613C304.069 262.31 303.766 261.982 303.438 261.654C304.069 262.335 304.725 262.991 305.456 263.647C307.575 265.589 310.047 267.431 312.973 269.121C314.764 270.155 316.68 271.063 318.648 271.92C337.817 280.294 364.402 280.294 383.597 271.92C385.564 271.063 387.481 270.155 389.272 269.121C392.198 267.431 394.67 265.589 396.789 263.647C399.614 261.049 401.732 258.249 403.12 255.374C404.406 252.675 405.087 249.875 405.087 247.101V232.522H404.936H404.91Z" fill="url(#paint53_linear_206_65)"/>
<path d="M351.109 162.377C380.906 162.377 405.061 148.43 405.061 131.227C405.061 114.023 380.906 100.076 351.109 100.076C321.312 100.076 297.157 114.023 297.157 131.227C297.157 148.43 321.312 162.377 351.109 162.377Z" fill="url(#paint54_linear_206_65)"/>
<path style="mix-blend-mode:screen" d="M311.913 111.325C332.974 99.1679 367.126 99.1679 388.213 111.325C402.136 119.372 406.802 130.722 402.312 141.013C408.467 130.192 404.154 117.833 389.272 109.232C368.211 97.0744 334.059 97.0744 312.973 109.232C305.835 113.343 301.194 118.337 298.873 123.609C301.421 119.119 305.734 114.907 311.913 111.351V111.325Z" fill="url(#paint55_linear_206_65)"/>
<path d="M381.327 113.798C398 123.433 398 139.046 381.327 148.681C364.655 158.316 337.616 158.316 320.918 148.681C304.246 139.046 304.246 123.433 320.918 113.798C337.591 104.162 364.63 104.162 381.327 113.798Z" fill="url(#paint56_linear_206_65)"/>
<path d="M320.917 115.891C337.589 106.256 364.628 106.256 381.326 115.891C389.195 120.431 393.307 126.308 393.735 132.286C394.215 125.627 390.129 118.893 381.326 113.798C364.653 104.162 337.614 104.162 320.917 113.798C312.114 118.867 308.003 125.627 308.507 132.286C308.936 126.333 313.047 120.457 320.917 115.891Z" fill="url(#paint57_linear_206_65)"/>
<path d="M375.903 146.587C375.626 147.092 374.844 147.722 373.583 148.454C372.876 148.857 372.221 149.059 371.64 149.059C371.06 149.059 370.354 148.807 369.572 148.353L366.016 146.31C362.762 148.126 359.987 149.387 357.743 150.068C355.472 150.749 353.505 150.598 351.815 149.639C350.327 148.782 349.596 147.647 349.671 146.26C353.909 145.452 357.566 144.443 360.618 143.182L350.15 137.129C345.787 138.516 342.029 139.172 338.876 139.096C335.723 139.021 332.822 138.239 330.199 136.725C326.668 134.682 325.129 132.437 325.583 129.965C326.037 127.494 327.879 125.249 331.057 123.206L325.962 120.28C326.617 119.548 327.324 118.968 328.106 118.514C329.064 117.959 329.821 117.707 330.376 117.758C330.931 117.808 331.46 118.01 331.99 118.312L335.723 120.456C339.002 118.666 341.575 117.505 343.391 117.001C345.207 116.496 346.922 116.673 348.46 117.581C349.949 118.439 350.731 119.523 350.806 120.835C346.998 121.667 343.794 122.6 341.171 123.609L351.235 129.411C355.17 128.175 358.852 127.443 362.232 127.166C365.637 126.888 369.042 127.746 372.523 129.738C375.878 131.681 377.29 133.85 376.786 136.296C376.256 138.718 374.213 141.139 370.606 143.51L375.928 146.587H375.903ZM337.085 125.299C335.244 126.409 334.26 127.418 334.134 128.351C334.008 129.284 334.613 130.142 335.925 130.899C337.362 131.731 338.901 132.109 340.49 132.034C342.104 131.958 344.173 131.58 346.745 130.874L337.06 125.274L337.085 125.299ZM354.615 135.742L364.401 141.391C366.697 140.004 367.958 138.894 368.235 138.037C368.513 137.179 367.933 136.322 366.52 135.515C364.855 134.556 362.964 134.203 360.795 134.48C358.651 134.733 356.582 135.161 354.59 135.767L354.615 135.742Z" fill="#976711"/>
<path d="M375.903 144.494C375.626 144.998 374.844 145.629 373.583 146.36C372.876 146.764 372.221 146.966 371.64 146.966C371.06 146.966 370.354 146.713 369.572 146.259L366.016 144.216C362.762 146.032 359.987 147.293 357.743 147.974C355.472 148.655 353.505 148.504 351.815 147.546C350.327 146.688 349.596 145.553 349.671 144.166C353.909 143.359 357.566 142.35 360.618 141.089L350.15 135.035C345.787 136.422 342.029 137.078 338.876 137.002C335.723 136.927 332.822 136.145 330.199 134.632C326.668 132.588 325.129 130.344 325.583 127.872C326.037 125.4 327.879 123.155 331.057 121.112L325.962 118.186C326.617 117.455 327.324 116.875 328.106 116.421C329.064 115.866 329.821 115.613 330.376 115.664C330.931 115.714 331.46 115.916 331.99 116.219L335.723 118.363C339.002 116.572 341.575 115.412 343.391 114.907C345.207 114.403 346.922 114.579 348.46 115.487C349.949 116.345 350.731 117.429 350.806 118.741C346.998 119.573 343.794 120.507 341.171 121.516L351.235 127.317C355.17 126.081 358.852 125.349 362.232 125.072C365.637 124.795 369.042 125.652 372.523 127.645C375.878 129.587 377.29 131.756 376.786 134.203C376.256 136.624 374.213 139.045 370.606 141.416L375.928 144.494H375.903ZM337.085 123.205C335.244 124.315 334.26 125.324 334.134 126.257C334.008 127.191 334.613 128.048 335.925 128.805C337.362 129.637 338.901 130.016 340.49 129.94C342.104 129.864 344.173 129.486 346.745 128.78L337.06 123.18L337.085 123.205ZM354.615 133.648L364.401 139.298C366.697 137.91 367.958 136.801 368.235 135.943C368.513 135.086 367.933 134.253 366.52 133.421C364.855 132.462 362.964 132.109 360.795 132.387C358.651 132.639 356.582 133.068 354.59 133.673L354.615 133.648Z" fill="white"/>
<path d="M376.762 134.229C377.266 131.807 375.853 129.613 372.499 127.671C369.043 125.678 365.613 124.82 362.208 125.098C358.828 125.375 355.145 126.132 351.211 127.343L341.147 121.541C343.77 120.533 346.973 119.599 350.782 118.767C350.681 117.455 349.899 116.371 348.436 115.513C346.872 114.605 345.182 114.429 343.366 114.933C341.525 115.437 338.978 116.598 335.699 118.389L331.966 116.245C331.436 115.942 330.881 115.74 330.351 115.69C329.796 115.639 329.065 115.891 328.081 116.446C327.325 116.9 326.593 117.481 325.937 118.212L331.032 121.138C327.854 123.181 326.038 125.426 325.559 127.898C325.105 130.369 326.618 132.614 330.175 134.657C332.798 136.171 335.699 136.978 338.851 137.028C342.004 137.104 345.762 136.448 350.126 135.061L360.594 141.114C357.542 142.35 353.884 143.385 349.647 144.192C349.571 145.579 350.277 146.689 351.791 147.572C353.481 148.555 355.473 148.707 357.718 148C359.963 147.319 362.738 146.058 365.991 144.242L369.548 146.31C370.33 146.764 371.011 146.991 371.616 147.017C372.196 147.017 372.852 146.815 373.558 146.411C374.819 145.68 375.601 145.049 375.879 144.545L370.557 141.468C374.164 139.097 376.232 136.7 376.736 134.254L376.762 134.229ZM340.516 129.966C338.902 130.042 337.388 129.663 335.951 128.831C334.639 128.074 334.034 127.217 334.16 126.283C334.286 125.35 335.27 124.316 337.111 123.231L346.797 128.831C344.224 129.537 342.13 129.915 340.541 129.991L340.516 129.966ZM368.261 135.944C367.984 136.801 366.698 137.936 364.427 139.298L354.641 133.648C356.634 133.068 358.677 132.64 360.846 132.362C362.99 132.11 364.907 132.438 366.571 133.396C368.009 134.229 368.564 135.061 368.287 135.919L368.261 135.944Z" fill="url(#paint58_linear_206_65)"/>
<path d="M343.366 115.967C345.182 115.462 346.897 115.639 348.435 116.547C349.52 117.177 350.226 117.934 350.554 118.791C350.63 118.791 350.705 118.766 350.781 118.741C350.68 117.429 349.898 116.345 348.435 115.487C346.872 114.579 345.182 114.403 343.366 114.907C341.524 115.412 338.977 116.572 335.698 118.363L331.965 116.219C331.435 115.916 330.88 115.714 330.351 115.664C329.796 115.613 329.064 115.866 328.08 116.421C327.324 116.875 326.592 117.455 325.937 118.186L326.618 118.59C327.072 118.161 327.551 117.783 328.08 117.48C329.039 116.925 329.796 116.673 330.351 116.723C330.905 116.774 331.435 116.975 331.965 117.278L335.698 119.422C338.977 117.631 341.55 116.471 343.366 115.967ZM325.583 127.872C325.508 128.225 325.583 128.553 325.583 128.881C326.063 126.434 327.879 124.189 331.032 122.171L330.224 121.717C327.576 123.609 325.987 125.652 325.558 127.872H325.583ZM340.515 129.94C338.901 130.016 337.388 129.637 335.95 128.805C335.017 128.275 334.462 127.67 334.26 127.039C334.26 127.115 334.184 127.216 334.159 127.292C334.033 128.225 334.638 129.082 335.95 129.839C337.388 130.671 338.926 131.05 340.515 130.974C342.13 130.898 344.198 130.52 346.771 129.814L345.484 129.057C343.542 129.536 341.827 129.864 340.515 129.915V129.94ZM341.146 122.575L351.21 128.376C355.145 127.14 358.827 126.409 362.207 126.131C365.612 125.854 369.017 126.711 372.498 128.704C374.995 130.142 376.408 131.731 376.761 133.446C376.862 131.327 375.5 129.385 372.498 127.645C369.043 125.652 365.612 124.795 362.207 125.072C358.827 125.349 355.145 126.106 351.21 127.317L342.256 122.146C341.877 122.272 341.499 122.424 341.146 122.55V122.575ZM370.556 142.476L375.247 145.175C375.525 144.922 375.777 144.695 375.878 144.494L371.338 141.87C371.06 142.072 370.833 142.274 370.531 142.451L370.556 142.476ZM364.402 139.298L355.876 134.379C355.447 134.48 355.019 134.581 354.615 134.707L364.402 140.357C366.697 138.97 367.958 137.86 368.235 137.002C368.336 136.7 368.286 136.372 368.16 136.069C367.807 136.902 366.571 137.986 364.402 139.298ZM349.621 144.191C349.621 144.544 349.621 144.897 349.722 145.225C353.909 144.418 357.541 143.409 360.568 142.173L359.458 141.543C356.633 142.602 353.379 143.485 349.621 144.216V144.191Z" fill="url(#paint59_linear_206_65)"/>
<path style="mix-blend-mode:color-dodge" d="M409.041 383.577C476.937 383.577 531.978 351.799 531.978 312.599C531.978 273.4 476.937 241.622 409.041 241.622C341.145 241.622 286.105 273.4 286.105 312.599C286.105 351.799 341.145 383.577 409.041 383.577Z" fill="url(#paint60_radial_206_65)"/>
<path d="M455.25 286.216C459.034 288.411 459.034 291.942 455.25 294.136C451.467 296.33 445.313 296.33 441.529 294.136C437.746 291.942 437.746 288.411 441.529 286.216C445.313 284.022 451.467 284.022 455.25 286.216Z" fill="url(#paint61_radial_206_65)"/>
<g style="mix-blend-mode:color-dodge" filter="url(#filter1_f_206_65)">
<path d="M435.374 297.415C439.158 299.61 439.158 303.141 435.374 305.335C431.591 307.53 425.437 307.53 421.653 305.335C417.87 303.141 417.87 299.61 421.653 297.415C425.437 295.221 431.591 295.221 435.374 297.415Z" fill="url(#paint62_radial_206_65)"/>
</g>
<g style="mix-blend-mode:color-dodge">
<path d="M435.374 297.415C439.158 299.61 439.158 303.141 435.374 305.335C431.591 307.53 425.437 307.53 421.653 305.335C417.87 303.141 417.87 299.61 421.653 297.415C425.437 295.221 431.591 295.221 435.374 297.415Z" fill="url(#paint63_radial_206_65)"/>
</g>
<path d="M415.499 308.639C419.283 310.834 419.283 314.365 415.499 316.559C411.716 318.754 405.562 318.754 401.778 316.559C397.995 314.365 397.995 310.834 401.778 308.639C405.562 306.445 411.716 306.445 415.499 308.639Z" fill="url(#paint64_radial_206_65)"/>
<path d="M395.622 319.839C399.406 322.034 399.406 325.565 395.622 327.759C391.839 329.954 385.685 329.954 381.901 327.759C378.118 325.565 378.118 322.034 381.901 319.839C385.685 317.645 391.839 317.645 395.622 319.839Z" fill="url(#paint65_radial_206_65)"/>
<path d="M375.747 331.038C379.531 333.232 379.531 336.764 375.747 338.958C371.964 341.152 365.81 341.152 362.026 338.958C358.243 336.764 358.243 333.232 362.026 331.038C365.81 328.843 371.964 328.843 375.747 331.038Z" fill="url(#paint66_radial_206_65)"/>
<defs>
<filter id="filter0_f_206_65" x="7.00279" y="127.436" width="513.047" height="299.316" filterUnits="userSpaceOnUse" color-interpolation-filters="sRGB">
<feFlood flood-opacity="0" result="BackgroundImageFix"/>
<feBlend mode="normal" in="SourceGraphic" in2="BackgroundImageFix" result="shape"/>
<feGaussianBlur stdDeviation="1.85181" result="effect1_foregroundBlur_206_65"/>
</filter>
<filter id="filter1_f_206_65" x="413.26" y="290.214" width="30.5073" height="22.3223" filterUnits="userSpaceOnUse" color-interpolation-filters="sRGB">
<feFlood flood-opacity="0" result="BackgroundImageFix"/>
<feBlend mode="normal" in="SourceGraphic" in2="BackgroundImageFix" result="shape"/>
<feGaussianBlur stdDeviation="2.77771" result="effect1_foregroundBlur_206_65"/>
</filter>
<linearGradient id="paint0_linear_206_65" x1="364.744" y1="238.136" x2="192.32" y2="340.062" gradientUnits="userSpaceOnUse">
<stop stop-color="#55D1FF"/>
<stop offset="0.11" stop-color="#4AB7DF" stop-opacity="0.88"/>
<stop offset="0.56" stop-color="#235868" stop-opacity="0.41"/>
<stop offset="0.86" stop-color="#0A1B1D" stop-opacity="0.12"/>
<stop offset="1" stop-color="#010400" stop-opacity="0"/>
</linearGradient>
<linearGradient id="paint1_linear_206_65" x1="364.644" y1="237.985" x2="192.22" y2="339.91" gradientUnits="userSpaceOnUse">
<stop stop-color="#55D1FF"/>
<stop offset="0.11" stop-color="#4AB7DF" stop-opacity="0.88"/>
<stop offset="0.56" stop-color="#235868" stop-opacity="0.41"/>
<stop offset="0.86" stop-color="#0A1B1D" stop-opacity="0.12"/>
<stop offset="1" stop-color="#010400" stop-opacity="0"/>
</linearGradient>
<linearGradient id="paint2_linear_206_65" x1="364.566" y1="237.858" x2="192.142" y2="339.784" gradientUnits="userSpaceOnUse">
<stop stop-color="#55D1FF"/>
<stop offset="0.11" stop-color="#4AB7DF" stop-opacity="0.88"/>
<stop offset="0.56" stop-color="#235868" stop-opacity="0.41"/>
<stop offset="0.86" stop-color="#0A1B1D" stop-opacity="0.12"/>
<stop offset="1" stop-color="#010400" stop-opacity="0"/>
</linearGradient>
<linearGradient id="paint3_linear_206_65" x1="364.492" y1="237.707" x2="192.068" y2="339.633" gradientUnits="userSpaceOnUse">
<stop stop-color="#55D1FF"/>
<stop offset="0.11" stop-color="#4AB7DF" stop-opacity="0.88"/>
<stop offset="0.56" stop-color="#235868" stop-opacity="0.41"/>
<stop offset="0.86" stop-color="#0A1B1D" stop-opacity="0.12"/>
<stop offset="1" stop-color="#010400" stop-opacity="0"/>
</linearGradient>
<linearGradient id="paint4_linear_206_65" x1="364.39" y1="237.556" x2="191.966" y2="339.482" gradientUnits="userSpaceOnUse">
<stop stop-color="#55D1FF"/>
<stop offset="0.11" stop-color="#4AB7DF" stop-opacity="0.88"/>
<stop offset="0.56" stop-color="#235868" stop-opacity="0.41"/>
<stop offset="0.86" stop-color="#0A1B1D" stop-opacity="0.12"/>
<stop offset="1" stop-color="#010400" stop-opacity="0"/>
</linearGradient>
<linearGradient id="paint5_linear_206_65" x1="364.315" y1="237.429" x2="191.891" y2="339.355" gradientUnits="userSpaceOnUse">
<stop stop-color="#55D1FF"/>
<stop offset="0.11" stop-color="#4AB7DF" stop-opacity="0.88"/>
<stop offset="0.56" stop-color="#235868" stop-opacity="0.41"/>
<stop offset="0.86" stop-color="#0A1B1D" stop-opacity="0.12"/>
<stop offset="1" stop-color="#010400" stop-opacity="0"/>
</linearGradient>
<linearGradient id="paint6_linear_206_65" x1="364.238" y1="237.278" x2="191.814" y2="339.204" gradientUnits="userSpaceOnUse">
<stop stop-color="#55D1FF"/>
<stop offset="0.11" stop-color="#4AB7DF" stop-opacity="0.88"/>
<stop offset="0.56" stop-color="#235868" stop-opacity="0.41"/>
<stop offset="0.86" stop-color="#0A1B1D" stop-opacity="0.12"/>
<stop offset="1" stop-color="#010400" stop-opacity="0"/>
</linearGradient>
<linearGradient id="paint7_linear_206_65" x1="364.139" y1="237.127" x2="191.714" y2="339.053" gradientUnits="userSpaceOnUse">
<stop stop-color="#55D1FF"/>
<stop offset="0.11" stop-color="#4AB7DF" stop-opacity="0.88"/>
<stop offset="0.56" stop-color="#235868" stop-opacity="0.41"/>
<stop offset="0.86" stop-color="#0A1B1D" stop-opacity="0.12"/>
<stop offset="1" stop-color="#010400" stop-opacity="0"/>
</linearGradient>
<linearGradient id="paint8_linear_206_65" x1="364.062" y1="237.001" x2="191.638" y2="338.927" gradientUnits="userSpaceOnUse">
<stop stop-color="#55D1FF"/>
<stop offset="0.11" stop-color="#4AB7DF" stop-opacity="0.88"/>
<stop offset="0.56" stop-color="#235868" stop-opacity="0.41"/>
<stop offset="0.86" stop-color="#0A1B1D" stop-opacity="0.12"/>
<stop offset="1" stop-color="#010400" stop-opacity="0"/>
</linearGradient>
<linearGradient id="paint9_linear_206_65" x1="363.987" y1="236.85" x2="191.563" y2="338.776" gradientUnits="userSpaceOnUse">
<stop stop-color="#55D1FF"/>
<stop offset="0.11" stop-color="#4AB7DF" stop-opacity="0.88"/>
<stop offset="0.56" stop-color="#235868" stop-opacity="0.41"/>
<stop offset="0.86" stop-color="#0A1B1D" stop-opacity="0.12"/>
<stop offset="1" stop-color="#010400" stop-opacity="0"/>
</linearGradient>
<linearGradient id="paint10_linear_206_65" x1="247.216" y1="470.783" x2="233.009" y2="153.162" gradientUnits="userSpaceOnUse">
<stop offset="0.241255" stop-color="#A0BAE1"/>
<stop offset="1" stop-color="white"/>
</linearGradient>
<linearGradient id="paint11_linear_206_65" x1="7.39558" y1="289.7" x2="458.842" y2="146.253" gradientUnits="userSpaceOnUse">
<stop stop-color="white"/>
<stop offset="1" stop-color="#A0BAE1"/>
</linearGradient>
<linearGradient id="paint12_linear_206_65" x1="279.602" y1="283.95" x2="148.417" y2="204.422" gradientUnits="userSpaceOnUse">
<stop stop-color="#55D1FF"/>
<stop offset="0.11" stop-color="#4AB7DF" stop-opacity="0.88"/>
<stop offset="0.56" stop-color="#235868" stop-opacity="0.41"/>
<stop offset="0.86" stop-color="#0A1B1D" stop-opacity="0.12"/>
<stop offset="1" stop-color="#010400" stop-opacity="0"/>
</linearGradient>
<linearGradient id="paint13_linear_206_65" x1="141.853" y1="268.191" x2="198.487" y2="323.977" gradientUnits="userSpaceOnUse">
<stop stop-color="#885A08"/>
<stop offset="0.48304" stop-color="#FCAA17"/>
<stop offset="1" stop-color="#FFF2DA"/>
</linearGradient>
<linearGradient id="paint14_linear_206_65" x1="141.847" y1="251.646" x2="198.481" y2="307.458" gradientUnits="userSpaceOnUse">
<stop stop-color="#885A08"/>
<stop offset="0.48304" stop-color="#FCAA17"/>
<stop offset="1" stop-color="#FFF2DA"/>
</linearGradient>
<linearGradient id="paint15_linear_206_65" x1="141.847" y1="235.037" x2="198.437" y2="290.849" gradientUnits="userSpaceOnUse">
<stop stop-color="#885A08"/>
<stop offset="0.48304" stop-color="#FCAA17"/>
<stop offset="1" stop-color="#FFF2DA"/>
</linearGradient>
<linearGradient id="paint16_linear_206_65" x1="141.847" y1="218.49" x2="198.437" y2="274.302" gradientUnits="userSpaceOnUse">
<stop stop-color="#885A08"/>
<stop offset="0.48304" stop-color="#FCAA17"/>
<stop offset="1" stop-color="#FFF2DA"/>
</linearGradient>
<linearGradient id="paint17_linear_206_65" x1="141.847" y1="201.943" x2="198.437" y2="257.756" gradientUnits="userSpaceOnUse">
<stop stop-color="#885A08"/>
<stop offset="0.48304" stop-color="#FCAA17"/>
<stop offset="1" stop-color="#FFF2DA"/>
</linearGradient>
<linearGradient id="paint18_linear_206_65" x1="141.847" y1="185.373" x2="198.437" y2="241.185" gradientUnits="userSpaceOnUse">
<stop stop-color="#885A08"/>
<stop offset="0.48304" stop-color="#FCAA17"/>
<stop offset="1" stop-color="#FFF2DA"/>
</linearGradient>
<linearGradient id="paint19_linear_206_65" x1="141.897" y1="119.2" x2="196.165" y2="174.997" gradientUnits="userSpaceOnUse">
<stop stop-color="#885A08"/>
<stop offset="0.48304" stop-color="#FCAA17"/>
<stop offset="1" stop-color="#FFF2DA"/>
</linearGradient>
<linearGradient id="paint20_linear_206_65" x1="164.358" y1="96.6699" x2="260.987" y2="96.6699" gradientUnits="userSpaceOnUse">
<stop stop-color="#5F4414"/>
<stop offset="0.52" stop-color="#E2BC79"/>
<stop offset="1" stop-color="white"/>
</linearGradient>
<linearGradient id="paint21_linear_206_65" x1="164.358" y1="162.88" x2="260.987" y2="162.88" gradientUnits="userSpaceOnUse">
<stop stop-color="#5F4414"/>
<stop offset="0.52" stop-color="#E2BC79"/>
<stop offset="1" stop-color="white"/>
</linearGradient>
<linearGradient id="paint22_linear_206_65" x1="164.358" y1="179.427" x2="260.987" y2="179.427" gradientUnits="userSpaceOnUse">
<stop stop-color="#5F4414"/>
<stop offset="0.52" stop-color="#E2BC79"/>
<stop offset="1" stop-color="white"/>
</linearGradient>
<linearGradient id="paint23_linear_206_65" x1="164.358" y1="195.998" x2="260.987" y2="195.998" gradientUnits="userSpaceOnUse">
<stop stop-color="#5F4414"/>
<stop offset="0.52" stop-color="#E2BC79"/>
<stop offset="1" stop-color="white"/>
</linearGradient>
<linearGradient id="paint24_linear_206_65" x1="141.847" y1="168.827" x2="198.437" y2="224.639" gradientUnits="userSpaceOnUse">
<stop stop-color="#885A08"/>
<stop offset="0.48304" stop-color="#FCAA17"/>
<stop offset="1" stop-color="#FFF2DA"/>
</linearGradient>
<linearGradient id="paint25_linear_206_65" x1="141.847" y1="152.28" x2="198.437" y2="208.092" gradientUnits="userSpaceOnUse">
<stop stop-color="#885A08"/>
<stop offset="0.48304" stop-color="#FCAA17"/>
<stop offset="1" stop-color="#FFF2DA"/>
</linearGradient>
<linearGradient id="paint26_linear_206_65" x1="141.847" y1="135.733" x2="198.437" y2="191.546" gradientUnits="userSpaceOnUse">
<stop stop-color="#885A08"/>
<stop offset="0.48304" stop-color="#FCAA17"/>
<stop offset="1" stop-color="#FFF2DA"/>
</linearGradient>
<linearGradient id="paint27_linear_206_65" x1="164.358" y1="113.217" x2="260.987" y2="113.217" gradientUnits="userSpaceOnUse">
<stop stop-color="#5F4414"/>
<stop offset="0.52" stop-color="#E2BC79"/>
<stop offset="1" stop-color="white"/>
</linearGradient>
<linearGradient id="paint28_linear_206_65" x1="164.358" y1="129.789" x2="260.987" y2="129.789" gradientUnits="userSpaceOnUse">
<stop stop-color="#5F4414"/>
<stop offset="0.52" stop-color="#E2BC79"/>
<stop offset="1" stop-color="white"/>
</linearGradient>
<linearGradient id="paint29_linear_206_65" x1="164.358" y1="146.334" x2="260.987" y2="146.334" gradientUnits="userSpaceOnUse">
<stop stop-color="#5F4414"/>
<stop offset="0.52" stop-color="#E2BC79"/>
<stop offset="1" stop-color="white"/>
</linearGradient>
<linearGradient id="paint30_linear_206_65" x1="164.358" y1="212.545" x2="260.987" y2="212.545" gradientUnits="userSpaceOnUse">
<stop stop-color="#5F4414"/>
<stop offset="0.52" stop-color="#E2BC79"/>
<stop offset="1" stop-color="white"/>
</linearGradient>
<linearGradient id="paint31_linear_206_65" x1="164.358" y1="229.09" x2="260.987" y2="229.09" gradientUnits="userSpaceOnUse">
<stop stop-color="#5F4414"/>
<stop offset="0.52" stop-color="#E2BC79"/>
<stop offset="1" stop-color="white"/>
</linearGradient>
<linearGradient id="paint32_linear_206_65" x1="164.358" y1="245.663" x2="260.987" y2="245.663" gradientUnits="userSpaceOnUse">
<stop stop-color="#5F4414"/>
<stop offset="0.52" stop-color="#E2BC79"/>
<stop offset="1" stop-color="white"/>
</linearGradient>
<linearGradient id="paint33_linear_206_65" x1="119.481" y1="103.524" x2="210.855" y2="172.428" gradientUnits="userSpaceOnUse">
<stop stop-color="#FFF6E6"/>
<stop offset="1" stop-color="#FCAA17"/>
</linearGradient>
<linearGradient id="paint34_linear_206_65" x1="159.565" y1="75.2557" x2="254" y2="56.3638" gradientUnits="userSpaceOnUse">
<stop stop-color="#3E80E2"/>
<stop offset="0.61" stop-color="#ABCDFF"/>
<stop offset="1" stop-color="white"/>
</linearGradient>
<linearGradient id="paint35_linear_206_65" x1="222.363" y1="52.6201" x2="188.104" y2="91.0451" gradientUnits="userSpaceOnUse">
<stop stop-color="#FFC969"/>
<stop offset="1" stop-color="#F0A928"/>
</linearGradient>
<linearGradient id="paint36_linear_206_65" x1="222.363" y1="98.4523" x2="232.548" y2="35.0279" gradientUnits="userSpaceOnUse">
<stop stop-color="white" stop-opacity="0"/>
<stop offset="1" stop-color="#C16F21"/>
</linearGradient>
<linearGradient id="paint37_linear_206_65" x1="198.752" y1="92.8721" x2="230.175" y2="76.1806" gradientUnits="userSpaceOnUse">
<stop stop-color="#FFF2DC"/>
<stop offset="1" stop-color="#FFBD45"/>
</linearGradient>
<linearGradient id="paint38_linear_206_65" x1="201.409" y1="85.6226" x2="215.962" y2="59.2646" gradientUnits="userSpaceOnUse">
<stop offset="0.03" stop-color="white" stop-opacity="0"/>
<stop offset="0.77" stop-color="white"/>
</linearGradient>
<linearGradient id="paint39_linear_206_65" x1="421.582" y1="293.688" x2="290.398" y2="214.16" gradientUnits="userSpaceOnUse">
<stop stop-color="#55D1FF"/>
<stop offset="0.11" stop-color="#4AB7DF" stop-opacity="0.88"/>
<stop offset="0.56" stop-color="#235868" stop-opacity="0.41"/>
<stop offset="0.86" stop-color="#0A1B1D" stop-opacity="0.12"/>
<stop offset="1" stop-color="#010400" stop-opacity="0"/>
</linearGradient>
<linearGradient id="paint40_linear_206_65" x1="283.835" y1="277.929" x2="340.469" y2="333.714" gradientUnits="userSpaceOnUse">
<stop stop-color="#885A08"/>
<stop offset="0.48304" stop-color="#FCAA17"/>
<stop offset="1" stop-color="#FFF2DA"/>
</linearGradient>
<linearGradient id="paint41_linear_206_65" x1="283.829" y1="261.357" x2="340.463" y2="317.169" gradientUnits="userSpaceOnUse">
<stop stop-color="#885A08"/>
<stop offset="0.48304" stop-color="#FCAA17"/>
<stop offset="1" stop-color="#FFF2DA"/>
</linearGradient>
<linearGradient id="paint42_linear_206_65" x1="283.829" y1="244.773" x2="340.419" y2="300.586" gradientUnits="userSpaceOnUse">
<stop stop-color="#885A08"/>
<stop offset="0.48304" stop-color="#FCAA17"/>
<stop offset="1" stop-color="#FFF2DA"/>
</linearGradient>
<linearGradient id="paint43_linear_206_65" x1="283.829" y1="228.227" x2="340.419" y2="284.039" gradientUnits="userSpaceOnUse">
<stop stop-color="#885A08"/>
<stop offset="0.48304" stop-color="#FCAA17"/>
<stop offset="1" stop-color="#FFF2DA"/>
</linearGradient>
<linearGradient id="paint44_linear_206_65" x1="283.829" y1="211.656" x2="340.419" y2="267.468" gradientUnits="userSpaceOnUse">
<stop stop-color="#885A08"/>
<stop offset="0.48304" stop-color="#FCAA17"/>
<stop offset="1" stop-color="#FFF2DA"/>
</linearGradient>
<linearGradient id="paint45_linear_206_65" x1="283.829" y1="195.109" x2="340.419" y2="250.921" gradientUnits="userSpaceOnUse">
<stop stop-color="#885A08"/>
<stop offset="0.48304" stop-color="#FCAA17"/>
<stop offset="1" stop-color="#FFF2DA"/>
</linearGradient>
<linearGradient id="paint46_linear_206_65" x1="283.879" y1="178.576" x2="338.147" y2="234.373" gradientUnits="userSpaceOnUse">
<stop stop-color="#885A08"/>
<stop offset="0.48304" stop-color="#FCAA17"/>
<stop offset="1" stop-color="#FFF2DA"/>
</linearGradient>
<linearGradient id="paint47_linear_206_65" x1="306.339" y1="156.046" x2="402.968" y2="156.046" gradientUnits="userSpaceOnUse">
<stop stop-color="#5F4414"/>
<stop offset="0.52" stop-color="#E2BC79"/>
<stop offset="1" stop-color="white"/>
</linearGradient>
<linearGradient id="paint48_linear_206_65" x1="306.339" y1="172.618" x2="402.968" y2="172.618" gradientUnits="userSpaceOnUse">
<stop stop-color="#5F4414"/>
<stop offset="0.52" stop-color="#E2BC79"/>
<stop offset="1" stop-color="white"/>
</linearGradient>
<linearGradient id="paint49_linear_206_65" x1="306.339" y1="189.164" x2="402.968" y2="189.164" gradientUnits="userSpaceOnUse">
<stop stop-color="#5F4414"/>
<stop offset="0.52" stop-color="#E2BC79"/>
<stop offset="1" stop-color="white"/>
</linearGradient>
<linearGradient id="paint50_linear_206_65" x1="306.339" y1="205.711" x2="402.968" y2="205.711" gradientUnits="userSpaceOnUse">
<stop stop-color="#5F4414"/>
<stop offset="0.52" stop-color="#E2BC79"/>
<stop offset="1" stop-color="white"/>
</linearGradient>
<linearGradient id="paint51_linear_206_65" x1="306.339" y1="222.281" x2="402.968" y2="222.281" gradientUnits="userSpaceOnUse">
<stop stop-color="#5F4414"/>
<stop offset="0.52" stop-color="#E2BC79"/>
<stop offset="1" stop-color="white"/>
</linearGradient>
<linearGradient id="paint52_linear_206_65" x1="306.339" y1="238.828" x2="402.968" y2="238.828" gradientUnits="userSpaceOnUse">
<stop stop-color="#5F4414"/>
<stop offset="0.52" stop-color="#E2BC79"/>
<stop offset="1" stop-color="white"/>
</linearGradient>
<linearGradient id="paint53_linear_206_65" x1="306.339" y1="255.374" x2="402.968" y2="255.374" gradientUnits="userSpaceOnUse">
<stop stop-color="#5F4414"/>
<stop offset="0.52" stop-color="#E2BC79"/>
<stop offset="1" stop-color="white"/>
</linearGradient>
<linearGradient id="paint54_linear_206_65" x1="261.463" y1="162.9" x2="352.837" y2="231.804" gradientUnits="userSpaceOnUse">
<stop stop-color="#FFF6E6"/>
<stop offset="1" stop-color="#FCAA17"/>
</linearGradient>
<linearGradient id="paint55_linear_206_65" x1="301.547" y1="134.657" x2="395.981" y2="115.765" gradientUnits="userSpaceOnUse">
<stop stop-color="#3E80E2"/>
<stop offset="0.61" stop-color="#ABCDFF"/>
<stop offset="1" stop-color="white"/>
</linearGradient>
<linearGradient id="paint56_linear_206_65" x1="364.344" y1="111.996" x2="330.085" y2="150.421" gradientUnits="userSpaceOnUse">
<stop stop-color="#FFC969"/>
<stop offset="1" stop-color="#F0A928"/>
</linearGradient>
<linearGradient id="paint57_linear_206_65" x1="355.547" y1="157.828" x2="374.528" y2="94.4039" gradientUnits="userSpaceOnUse">
<stop stop-color="white" stop-opacity="0"/>
<stop offset="1" stop-color="#C16F21"/>
</linearGradient>
<linearGradient id="paint58_linear_206_65" x1="340.734" y1="152.274" x2="372.157" y2="135.582" gradientUnits="userSpaceOnUse">
<stop stop-color="#FFF2DC"/>
<stop offset="1" stop-color="#FFBD45"/>
</linearGradient>
<linearGradient id="paint59_linear_206_65" x1="343.391" y1="144.998" x2="357.944" y2="118.665" gradientUnits="userSpaceOnUse">
<stop offset="0.03" stop-color="white" stop-opacity="0"/>
<stop offset="0.77" stop-color="white"/>
</linearGradient>
<radialGradient id="paint60_radial_206_65" cx="0" cy="0" r="1" gradientUnits="userSpaceOnUse" gradientTransform="translate(175.349 469.022) rotate(-33.6) scale(92.7398 57.9624)">
<stop stop-color="#1B2062"/>
<stop offset="0.24" stop-color="#1A1F5E" stop-opacity="0.97"/>
<stop offset="0.43" stop-color="#171C54" stop-opacity="0.86"/>
<stop offset="0.61" stop-color="#121743" stop-opacity="0.69"/>
<stop offset="0.78" stop-color="#0C102B" stop-opacity="0.44"/>
<stop offset="0.95" stop-color="#04070C" stop-opacity="0.12"/>
<stop offset="1" stop-color="#010400" stop-opacity="0"/>
</radialGradient>
<radialGradient id="paint61_radial_206_65" cx="0" cy="0" r="1" gradientUnits="userSpaceOnUse" gradientTransform="translate(448.601 290.694) scale(9.72199 5.85105)">
<stop stop-color="#3E80E2"/>
<stop offset="0.152124" stop-color="#3E80E2" stop-opacity="0.99"/>
<stop offset="0.27858" stop-color="#3E80E2" stop-opacity="0.95"/>
<stop offset="0.378286" stop-color="#3E80E2" stop-opacity="0.88"/>
<stop offset="0.487719" stop-color="#3E80E2" stop-opacity="0.78"/>
<stop offset="0.609311" stop-color="#3E80E2" stop-opacity="0.66"/>
<stop offset="0.718744" stop-color="#3E80E2" stop-opacity="0.51"/>
<stop offset="0.794131" stop-color="#3E80E2" stop-opacity="0.23"/>
<stop offset="0.888973" stop-color="#3E80E2" stop-opacity="0.07"/>
<stop offset="0.981383" stop-color="#3E80E2" stop-opacity="0"/>
</radialGradient>
<radialGradient id="paint62_radial_206_65" cx="0" cy="0" r="1" gradientUnits="userSpaceOnUse" gradientTransform="translate(428.725 301.894) scale(9.72199 5.85105)">
<stop stop-color="#4C8AE4"/>
<stop offset="0.152124" stop-color="#508BE4"/>
<stop offset="0.27858" stop-color="#4D89E3"/>
<stop offset="0.378286" stop-color="#6196E7"/>
<stop offset="0.487719" stop-color="#6A9CE7"/>
<stop offset="0.609311" stop-opacity="0.66"/>
<stop offset="0.718744" stop-opacity="0.51"/>
<stop offset="0.794131" stop-opacity="0.23"/>
<stop offset="0.888973" stop-opacity="0.07"/>
<stop offset="0.981383" stop-opacity="0"/>
</radialGradient>
<radialGradient id="paint63_radial_206_65" cx="0" cy="0" r="1" gradientUnits="userSpaceOnUse" gradientTransform="translate(428.725 301.894) scale(9.72199 5.85105)">
<stop stop-color="#4C8AE4"/>
<stop offset="0.152124" stop-color="#508BE4"/>
<stop offset="0.27858" stop-color="#4D89E3"/>
<stop offset="0.378286" stop-color="#6196E7"/>
<stop offset="0.487719" stop-color="#6A9CE7"/>
<stop offset="0.609311" stop-opacity="0.66"/>
<stop offset="0.718744" stop-opacity="0.51"/>
<stop offset="0.794131" stop-opacity="0.23"/>
<stop offset="0.888973" stop-opacity="0.07"/>
<stop offset="0.981383" stop-opacity="0"/>
</radialGradient>
<radialGradient id="paint64_radial_206_65" cx="0" cy="0" r="1" gradientUnits="userSpaceOnUse" gradientTransform="translate(408.85 313.118) scale(9.72199 5.85109)">
<stop stop-color="#3E80E2"/>
<stop offset="0.152124" stop-color="#3E80E2" stop-opacity="0.99"/>
<stop offset="0.27858" stop-color="#3E80E2" stop-opacity="0.95"/>
<stop offset="0.378286" stop-color="#3E80E2" stop-opacity="0.88"/>
<stop offset="0.487719" stop-color="#3E80E2" stop-opacity="0.78"/>
<stop offset="0.609311" stop-color="#3E80E2" stop-opacity="0.66"/>
<stop offset="0.718744" stop-color="#3E80E2" stop-opacity="0.51"/>
<stop offset="0.794131" stop-color="#3E80E2" stop-opacity="0.23"/>
<stop offset="0.888973" stop-color="#3E80E2" stop-opacity="0.07"/>
<stop offset="0.981383" stop-color="#3E80E2" stop-opacity="0"/>
</radialGradient>
<radialGradient id="paint65_radial_206_65" cx="0" cy="0" r="1" gradientUnits="userSpaceOnUse" gradientTransform="translate(388.973 324.318) scale(9.72199 5.85109)">
<stop stop-color="#3E80E2"/>
<stop offset="0.152124" stop-color="#3E80E2" stop-opacity="0.99"/>
<stop offset="0.27858" stop-color="#3E80E2" stop-opacity="0.95"/>
<stop offset="0.378286" stop-color="#3E80E2" stop-opacity="0.88"/>
<stop offset="0.487719" stop-color="#3E80E2" stop-opacity="0.78"/>
<stop offset="0.609311" stop-color="#3E80E2" stop-opacity="0.66"/>
<stop offset="0.718744" stop-color="#3E80E2" stop-opacity="0.51"/>
<stop offset="0.794131" stop-color="#3E80E2" stop-opacity="0.23"/>
<stop offset="0.888973" stop-color="#3E80E2" stop-opacity="0.07"/>
<stop offset="0.981383" stop-color="#3E80E2" stop-opacity="0"/>
</radialGradient>
<radialGradient id="paint66_radial_206_65" cx="0" cy="0" r="1" gradientUnits="userSpaceOnUse" gradientTransform="translate(369.098 335.516) scale(9.72199 5.85109)">
<stop stop-color="#3E80E2"/>
<stop offset="0.152124" stop-color="#3E80E2" stop-opacity="0.99"/>
<stop offset="0.27858" stop-color="#3E80E2" stop-opacity="0.95"/>
<stop offset="0.378286" stop-color="#3E80E2" stop-opacity="0.88"/>
<stop offset="0.487719" stop-color="#3E80E2" stop-opacity="0.78"/>
<stop offset="0.609311" stop-color="#3E80E2" stop-opacity="0.66"/>
<stop offset="0.718744" stop-color="#3E80E2" stop-opacity="0.51"/>
<stop offset="0.794131" stop-color="#3E80E2" stop-opacity="0.23"/>
<stop offset="0.888973" stop-color="#3E80E2" stop-opacity="0.07"/>
<stop offset="0.981383" stop-color="#3E80E2" stop-opacity="0"/>
</radialGradient>
</defs>
</svg>
