<svg width="70" height="65" viewBox="0 0 70 65" fill="none" xmlns="http://www.w3.org/2000/svg">
<circle cx="35.3334" cy="32" r="32" fill="#3E80E2" fill-opacity="0.1"/>
<path d="M53.5108 37.7474C53.821 37.6775 54.0974 37.5024 54.293 37.2517C54.4885 37.001 54.5911 36.6902 54.5834 36.3724V35.2174C54.5834 34.1234 54.1488 33.0742 53.3752 32.3006C52.6016 31.527 51.5524 31.0924 50.4584 31.0924H45.1509V33.6568C45.163 33.7471 45.1573 33.8389 45.134 33.9269C45.1107 34.015 45.0703 34.0976 45.0151 34.1701C44.9599 34.2425 44.8909 34.3034 44.8122 34.3492C44.7334 34.395 44.6464 34.4249 44.5562 34.4371C44.3738 34.4617 44.1892 34.4129 44.0428 34.3013C43.8965 34.1898 43.8005 34.0247 43.7759 33.8424C43.7277 33.7118 43.7759 31.0924 43.7759 31.0924H20.4559C19.8937 31.0586 19.3306 31.1403 18.8012 31.3324C18.2718 31.5245 17.7873 31.823 17.3777 32.2095C16.968 32.5959 16.6419 33.0622 16.4193 33.5795C16.1967 34.0968 16.0823 34.6542 16.0834 35.2174V36.3586C16.0794 36.6892 16.1946 37.0102 16.408 37.2627C16.6214 37.5152 16.9186 37.6824 17.2452 37.7336C17.9317 37.845 18.5561 38.1971 19.0068 38.7267C19.4574 39.2564 19.7049 39.9291 19.7049 40.6246C19.7049 41.32 19.4574 41.9928 19.0068 42.5224C18.5561 43.0521 17.9317 43.4041 17.2452 43.5155C16.9186 43.5667 16.6214 43.7339 16.408 43.9865C16.1946 44.239 16.0794 44.5599 16.0834 44.8905V46.0249C16.0834 47.1189 16.5179 48.1681 17.2915 48.9417C18.0651 49.7153 19.1143 50.1499 20.2084 50.1499H43.7759C43.7759 50.1499 43.7346 47.5168 43.7759 47.3999C43.8211 47.2623 43.9085 47.1426 44.0258 47.0577C44.1431 46.9728 44.2842 46.9271 44.429 46.9271C44.5738 46.9271 44.7149 46.9728 44.8321 47.0577C44.9494 47.1426 45.0369 47.2623 45.0821 47.3999C45.1715 47.6061 45.1165 50.1499 45.1165 50.1499H50.4584C51.5524 50.1499 52.6016 49.7153 53.3752 48.9417C54.1488 48.1681 54.5834 47.1189 54.5834 46.0249V44.7943C54.5816 44.4835 54.4747 44.1824 54.2799 43.9402C54.0851 43.698 53.814 43.5289 53.5108 43.4605C52.8677 43.3082 52.2949 42.9433 51.8849 42.4249C51.475 41.9064 51.2519 41.2649 51.2519 40.604C51.2519 39.943 51.475 39.3015 51.8849 38.7831C52.2949 38.2647 52.8677 37.8997 53.5108 37.7474ZM45.1509 44.1686C45.1509 44.351 45.0784 44.5258 44.9495 44.6548C44.8206 44.7837 44.6457 44.8561 44.4634 44.8561C44.281 44.8561 44.1061 44.7837 43.9772 44.6548C43.8483 44.5258 43.7759 44.351 43.7759 44.1686V42.3124C43.7759 42.1301 43.8483 41.9552 43.9772 41.8263C44.1061 41.6973 44.281 41.6249 44.4634 41.6249C44.6457 41.6249 44.8206 41.6973 44.9495 41.8263C45.0784 41.9552 45.1509 42.1301 45.1509 42.3124V44.1686ZM45.1509 38.9093C45.1509 39.0916 45.0784 39.2665 44.9495 39.3954C44.8206 39.5243 44.6457 39.5968 44.4634 39.5968C44.281 39.5968 44.1061 39.5243 43.9772 39.3954C43.8483 39.2665 43.7759 39.0916 43.7759 38.9093V37.0393C43.7759 36.8569 43.8483 36.6821 43.9772 36.5531C44.1061 36.4242 44.281 36.3518 44.4634 36.3518C44.6457 36.3518 44.8206 36.4242 44.9495 36.5531C45.0784 36.6821 45.1509 36.8569 45.1509 37.0393V38.9093Z" fill="#3E80E2"/>
<path d="M41.6309 29.7177C41.3009 29.3808 40.634 28.7208 40.304 28.3908C40.1745 28.2622 40.1014 28.0875 40.1008 27.9051C40.1001 27.7227 40.172 27.5474 40.3005 27.418C40.4291 27.2885 40.6038 27.2154 40.7862 27.2148C40.9687 27.2141 41.1439 27.286 41.2734 27.4145L42.834 28.9752L45.7902 26.0189C46.4397 25.3658 46.8043 24.4822 46.8043 23.5611C46.8043 22.64 46.4397 21.7564 45.7902 21.1033L45.1784 20.4845C44.9585 20.277 44.6764 20.1476 44.3756 20.1165C44.0749 20.0855 43.7722 20.1544 43.5146 20.3127C43.0851 20.5703 42.5818 20.6771 42.0846 20.6162C41.5875 20.5552 41.1249 20.33 40.7703 19.9762C40.4157 19.6224 40.1895 19.1604 40.1274 18.6633C40.0653 18.1663 40.171 17.6628 40.4277 17.2327C40.5991 16.9646 40.6722 16.6454 40.6346 16.3295C40.597 16.0136 40.451 15.7205 40.2215 15.5002L39.6096 14.8883C38.9544 14.2401 38.07 13.8765 37.1484 13.8765C36.2267 13.8765 35.3423 14.2401 34.6871 14.8883L31.724 17.8445L33.2709 19.4327C33.3994 19.5621 33.4713 19.7374 33.4706 19.9198C33.47 20.1022 33.3969 20.2769 33.2674 20.4055C33.138 20.534 32.9627 20.6059 32.7803 20.6052C32.5979 20.6046 32.4231 20.5315 32.2946 20.402L30.734 18.8414L19.8577 29.7314L41.6309 29.7177ZM37.279 24.3964C37.3429 24.332 37.4189 24.2808 37.5027 24.2459C37.5865 24.211 37.6763 24.1931 37.7671 24.1931C37.8579 24.1931 37.9477 24.211 38.0315 24.2459C38.1153 24.2808 38.1913 24.332 38.2552 24.3964L39.3277 25.4758C39.4558 25.6046 39.5276 25.7789 39.5276 25.9605C39.5276 26.1421 39.4558 26.3164 39.3277 26.4452C39.1989 26.5732 39.0247 26.6451 38.843 26.6451C38.6614 26.6451 38.4872 26.5732 38.3584 26.4452L37.279 25.3658C37.1509 25.237 37.0791 25.0627 37.0791 24.8811C37.0791 24.6995 37.1509 24.5252 37.279 24.3964ZM34.2609 21.3783C34.3248 21.3139 34.4008 21.2627 34.4846 21.2278C34.5684 21.1929 34.6582 21.1749 34.749 21.1749C34.8397 21.1749 34.9296 21.1929 35.0134 21.2278C35.0972 21.2627 35.1732 21.3139 35.2371 21.3783L36.3096 22.4508C36.4391 22.5803 36.5118 22.7558 36.5118 22.9389C36.5118 23.122 36.4391 23.2976 36.3096 23.427C36.1801 23.5565 36.0046 23.6292 35.8215 23.6292C35.6384 23.6292 35.4628 23.5565 35.3334 23.427L34.2609 22.3752C34.1932 22.3109 34.1394 22.2336 34.1026 22.1479C34.0658 22.0623 34.0469 21.97 34.0469 21.8767C34.0469 21.7835 34.0658 21.6912 34.1026 21.6055C34.1394 21.5198 34.1932 21.4425 34.2609 21.3783Z" fill="#F56373"/>
<circle opacity="0.2" cx="15.8334" cy="4.5" r="2" stroke="#3E80E2"/>
<circle opacity="0.2" cx="17.8334" cy="58.5" r="2" stroke="#3E80E2"/>
<circle opacity="0.2" cx="64.8334" cy="32.5" r="2" stroke="#3E80E2"/>
<path d="M47.583 56.4802L49.7486 59.3118L53.3128 59.2496L50.4812 61.4152L50.5434 64.9794L48.3778 62.1479L44.8136 62.21L47.6451 60.0444L47.583 56.4802Z" fill="#FCAA17"/>
<path d="M60.7996 11.3226L61.2551 13.5254L63.2983 14.4664L61.0954 14.9218L60.1545 16.965L59.699 14.7622L57.6558 13.8212L59.8587 13.3657L60.7996 11.3226Z" fill="#FCAA17"/>
<path d="M3.79961 34.3226L4.25508 36.5254L6.29825 37.4664L4.09542 37.9218L3.15446 39.965L2.69899 37.7622L0.655819 36.8212L2.85865 36.3657L3.79961 34.3226Z" fill="#F56373"/>
</svg>
