<svg width="67" height="64" viewBox="0 0 67 64" fill="none" xmlns="http://www.w3.org/2000/svg">
<circle cx="32" cy="32" r="32" fill="#3E80E2" fill-opacity="0.1"/>
<path fill-rule="evenodd" clip-rule="evenodd" d="M28.5096 22.9582C28.5096 22.8438 28.555 22.7341 28.6359 22.6531C28.7168 22.5723 28.8266 22.5268 28.941 22.5268H31.1257C31.2401 22.5268 31.3498 22.5723 31.4308 22.6531C31.5116 22.7341 31.5571 22.8438 31.5571 22.9582V33.086C31.5571 33.2004 31.5116 33.3101 31.4308 33.391C31.3498 33.4719 31.2401 33.5173 31.1257 33.5173H28.941C28.8266 33.5173 28.7168 33.4719 28.6359 33.391C28.555 33.3101 28.5096 33.2004 28.5096 33.086V22.9582ZM34.1684 25.0361C34.1684 24.7979 34.3615 24.6047 34.5998 24.6047H36.7845C36.8989 24.6047 37.0087 24.6502 37.0896 24.7311C37.1705 24.812 37.2159 24.9217 37.2159 25.0361V33.086C37.2159 33.2004 37.1705 33.3101 37.0896 33.391C37.0087 33.4719 36.8989 33.5173 36.7845 33.5173H34.5998C34.3615 33.5173 34.1684 33.3242 34.1684 33.086V25.0361ZM39.8292 18.9589C39.8292 18.8445 39.8747 18.7348 39.9556 18.6539C40.0365 18.573 40.1462 18.5276 40.2606 18.5276H42.4454C42.5598 18.5276 42.6695 18.573 42.7504 18.6539C42.8313 18.7348 42.8767 18.8445 42.8767 18.9589V33.086C42.8767 33.2004 42.8313 33.3101 42.7504 33.391C42.6695 33.4719 42.5598 33.5173 42.4454 33.5173H40.2606C40.1462 33.5173 40.0365 33.4719 39.9556 33.391C39.8747 33.3101 39.8292 33.2004 39.8292 33.086V18.9589ZM22.8488 28.1015C22.8488 27.9871 22.8942 27.8774 22.9751 27.7965C23.056 27.7155 23.1658 27.6702 23.2802 27.6702H25.4669C25.5813 27.6702 25.691 27.7155 25.7719 27.7965C25.8528 27.8774 25.8982 27.9871 25.8982 28.1015V33.086C25.8982 33.2004 25.8528 33.3101 25.7719 33.391C25.691 33.4719 25.5813 33.5173 25.4669 33.5173H23.2802C23.1658 33.5173 23.056 33.4719 22.9751 33.391C22.8942 33.3101 22.8488 33.2004 22.8488 33.086V28.1015ZM26.4576 20.3638C26.5775 20.64 26.644 20.9444 26.644 21.2638C26.644 22.5147 25.6243 23.5323 24.3735 23.5323C23.1226 23.5323 22.103 22.5147 22.103 21.2638C22.103 20.0132 23.1229 18.9934 24.3735 18.9934C24.8039 18.9934 25.2068 19.1141 25.5503 19.3234L27.9502 17.2329C27.8304 16.9572 27.7638 16.6533 27.7638 16.3346C27.7638 15.0838 28.7844 14.0642 30.0323 14.0642C31.283 14.0642 32.3028 15.084 32.3028 16.3346C32.3028 16.4493 32.2942 16.5621 32.2775 16.6723L34.0602 17.5515C34.4736 17.123 35.0532 16.8559 35.6932 16.8559C36.0508 16.8559 36.3894 16.9393 36.6906 17.0876L39.3588 14.3025C39.1833 13.9804 39.0835 13.6114 39.0835 13.2197C39.0835 11.9688 40.1012 10.9492 41.352 10.9492C42.6026 10.9492 43.6225 11.9691 43.6225 13.2197C43.6225 14.4703 42.6026 15.4902 41.352 15.4902C40.9943 15.4902 40.6558 15.4068 40.3546 15.2585L37.6864 18.0436C37.8618 18.3656 37.9617 18.7347 37.9617 19.1264C37.9617 20.3746 36.9442 21.3948 35.6932 21.3948C34.4423 21.3948 33.4227 20.3744 33.4227 19.1264C33.4227 19.0117 33.4313 18.8988 33.4479 18.7886L31.6641 17.9089C31.2509 18.3364 30.6718 18.6031 30.0323 18.6031C29.603 18.6031 29.2007 18.4825 28.8576 18.2732L26.4576 20.3638ZM41.352 14.1098C41.8423 14.1098 42.2421 13.7099 42.2421 13.2197C42.2421 12.7294 41.8423 12.3296 41.352 12.3296C40.8619 12.3296 40.4639 12.7297 40.4639 13.2197C40.4639 13.7097 40.8619 14.1098 41.352 14.1098ZM30.0323 17.2228C30.5224 17.2228 30.9224 16.8236 30.9224 16.3346C30.9224 15.8443 30.5226 15.4446 30.0323 15.4446C29.5434 15.4446 29.1442 15.8446 29.1442 16.3346C29.1442 16.8233 29.5437 17.2228 30.0323 17.2228ZM35.6932 20.0144C36.1829 20.0144 36.5813 19.6151 36.5813 19.1264C36.5813 18.6364 36.1832 18.2363 35.6932 18.2363C35.2029 18.2363 34.8031 18.6361 34.8031 19.1264C34.8031 19.6153 35.2031 20.0144 35.6932 20.0144ZM24.3735 22.1519C24.8636 22.1519 25.2636 21.7538 25.2636 21.2638C25.2636 20.7736 24.8638 20.3738 24.3735 20.3738C23.8832 20.3738 23.4834 20.7736 23.4834 21.2638C23.4834 21.7538 23.8835 22.1519 24.3735 22.1519Z" fill="#F56373"/>
<path d="M26.1587 43.3174C29.4274 43.3174 32.4175 42.1259 34.7185 40.1535L38.7535 44.0901L38.6063 44.2418C38.146 44.7134 38.1572 45.4768 38.6325 45.9334L45.8556 52.9469C46.3309 53.4034 47.0906 53.3922 47.5472 52.9207L50.1558 50.2335C50.616 49.7583 50.6048 48.9985 50.1332 48.542L42.9065 41.5284C42.4349 41.0719 41.6714 41.0831 41.2149 41.5546L41.0655 41.7084L36.9495 37.6917C37.6402 36.7042 38.1987 35.6173 38.5995 34.4569C38.4486 34.2703 38.3368 34.0566 38.2696 33.8284C38.1847 34.1165 38.0288 34.3817 37.8127 34.5978C37.4729 34.9377 37.0121 35.1285 36.5315 35.1285H34.9418C33.2082 38.1857 29.9244 40.2485 26.1587 40.2485C20.586 40.2485 16.0689 35.7312 16.0689 30.1587C16.0689 26.6904 17.8186 23.6309 20.4836 21.8148C20.4744 21.7093 20.4696 21.6025 20.4696 21.4946C20.4696 19.4837 22.1096 17.8438 24.1205 17.8438C24.4336 17.8438 24.7377 17.8835 25.028 17.9581L26.128 17C18.8742 17.0165 13 22.9008 13 30.1587C13 37.4266 18.8907 43.3174 26.1587 43.3174Z" fill="#3E80E2"/>
<circle opacity="0.2" cx="2.8335" cy="24.5" r="2" stroke="#3E80E2"/>
<circle opacity="0.2" cx="36.8335" cy="4.5" r="2" stroke="#3E80E2"/>
<circle opacity="0.2" cx="57.8335" cy="13.5" r="2" stroke="#3E80E2"/>
<circle opacity="0.2" cx="5.8335" cy="55.5" r="2" stroke="#3E80E2"/>
<path d="M59.5831 31.4802L61.7487 34.3118L65.3129 34.2496L62.4814 36.4152L62.5435 39.9794L60.3779 37.1479L56.8137 37.21L59.6452 35.0444L59.5831 31.4802Z" fill="#FCAA17"/>
<path d="M9.13064 7.64369L10.7627 9.19174L12.9772 8.79718L11.4292 10.4292L11.8237 12.6437L10.1917 11.0957L7.97716 11.4903L9.52521 9.85825L9.13064 7.64369Z" fill="#FCAA17"/>
<path d="M32.7997 56.3226L33.2552 58.5254L35.2984 59.4664L33.0955 59.9218L32.1546 61.965L31.6991 59.7622L29.6559 58.8212L31.8588 58.3657L32.7997 56.3226Z" fill="#FCAA17"/>
</svg>
