<svg width="71" height="64" viewBox="0 0 71 64" fill="none" xmlns="http://www.w3.org/2000/svg">
<circle cx="36.3333" cy="32" r="32" fill="#3E80E2" fill-opacity="0.1"/>
<path fill-rule="evenodd" clip-rule="evenodd" d="M47.6668 34.2915C52.4738 34.2915 56.3752 38.1928 56.3752 42.9998C56.3752 47.8068 52.4738 51.7082 47.6668 51.7082C42.8598 51.7082 38.9585 47.8068 38.9585 42.9998C38.9585 38.1928 42.8598 34.2915 47.6668 34.2915ZM43.3952 43.9715L45.5952 46.1715C46.1323 46.7087 47.0013 46.7087 47.5385 46.1715L51.9385 41.7715C52.4757 41.2362 52.4757 40.3635 51.9385 39.8282C51.4032 39.291 50.5305 39.291 49.9952 39.8282L46.5668 43.2547L45.3385 42.0282C44.8032 41.491 43.9305 41.491 43.3952 42.0282C42.858 42.5635 42.858 43.4362 43.3952 43.9715Z" fill="#FCAA17"/>
<path fill-rule="evenodd" clip-rule="evenodd" d="M16.9585 21.4582V18.2498C16.9585 14.959 19.626 12.2915 22.9168 12.2915H50.4168C53.7077 12.2915 56.3752 14.959 56.3752 18.2498V21.4582H16.9585ZM56.3752 24.2082V37.0598C54.4758 34.2823 51.2822 32.4582 47.6668 32.4582C41.8478 32.4582 37.1252 37.1808 37.1252 42.9998C37.1252 46.6152 38.9493 49.8088 41.7268 51.7082H22.9168C19.626 51.7082 16.9585 49.0407 16.9585 45.7498V24.2082H56.3752ZM47.6668 28.7915H23.8335C23.0745 28.7915 22.4585 29.4075 22.4585 30.1665C22.4585 30.9255 23.0745 31.5415 23.8335 31.5415H47.6668C48.4258 31.5415 49.0418 30.9255 49.0418 30.1665C49.0418 29.4075 48.4258 28.7915 47.6668 28.7915ZM33.0002 36.1248H23.8335C23.0745 36.1248 22.4585 36.7408 22.4585 37.4998C22.4585 38.2588 23.0745 38.8748 23.8335 38.8748H33.0002C33.7592 38.8748 34.3752 38.2588 34.3752 37.4998C34.3752 36.7408 33.7592 36.1248 33.0002 36.1248ZM33.9168 15.9582C33.1578 15.9582 32.5418 16.5742 32.5418 17.3332C32.5418 18.0922 33.1578 18.7082 33.9168 18.7082C34.6758 18.7082 35.2918 18.0922 35.2918 17.3332C35.2918 16.5742 34.6758 15.9582 33.9168 15.9582ZM29.3335 15.9582C28.5745 15.9582 27.9585 16.5742 27.9585 17.3332C27.9585 18.0922 28.5745 18.7082 29.3335 18.7082C30.0925 18.7082 30.7085 18.0922 30.7085 17.3332C30.7085 16.5742 30.0925 15.9582 29.3335 15.9582ZM24.7502 15.9582C23.9912 15.9582 23.3752 16.5742 23.3752 17.3332C23.3752 18.0922 23.9912 18.7082 24.7502 18.7082C25.5092 18.7082 26.1252 18.0922 26.1252 17.3332C26.1252 16.5742 25.5092 15.9582 24.7502 15.9582Z" fill="#3E80E2"/>
<circle opacity="0.2" cx="9.50031" cy="23.5" r="2" stroke="#3E80E2"/>
<circle opacity="0.2" cx="68.5003" cy="12.5" r="2" stroke="#3E80E2"/>
<circle opacity="0.2" cx="10.5003" cy="58.5" r="2" stroke="#3E80E2"/>
<path d="M61.2499 44.4802L63.4155 47.3118L66.9797 47.2496L64.1482 49.4152L64.2103 52.9794L62.0447 50.1479L58.4805 50.21L61.3121 48.0444L61.2499 44.4802Z" fill="#F56373"/>
<path d="M52.4665 3.32257L52.922 5.52541L54.9652 6.46637L52.7623 6.92184L51.8214 8.96501L51.3659 6.76217L49.3228 5.82122L51.5256 5.36574L52.4665 3.32257Z" fill="#F56373"/>
<path d="M3.46654 41.3226L3.92202 43.5254L5.96518 44.4664L3.76235 44.9218L2.82139 46.965L2.36592 44.7622L0.322751 43.8212L2.52558 43.3657L3.46654 41.3226Z" fill="#F56373"/>
</svg>
