<svg width="70" height="67" viewBox="0 0 70 67" fill="none" xmlns="http://www.w3.org/2000/svg">
<circle cx="36" cy="34" r="32" fill="#3E80E2" fill-opacity="0.1"/>
<path d="M15.375 51.875H56.625V54.625H15.375V51.875Z" fill="#3E80E2"/>
<path d="M21.5625 28.5C21.0155 28.5 20.4909 28.7173 20.1041 29.1041C19.7173 29.4909 19.5 30.0155 19.5 30.5625V49.125H27.75V30.5625C27.75 30.0155 27.5327 29.4909 27.1459 29.1041C26.7591 28.7173 26.2345 28.5 25.6875 28.5H21.5625Z" fill="#3E80E2"/>
<path d="M33.9375 39.5C33.3905 39.5 32.8659 39.7173 32.4791 40.1041C32.0923 40.4909 31.875 41.0155 31.875 41.5625V49.125H40.125V41.5625C40.125 41.0155 39.9077 40.4909 39.5209 40.1041C39.1341 39.7173 38.6095 39.5 38.0625 39.5H33.9375Z" fill="#3E80E2"/>
<path d="M46.3125 43.625C45.7655 43.625 45.2409 43.8423 44.8541 44.2291C44.4673 44.6159 44.25 45.1405 44.25 45.6875V49.125H52.5V45.6875C52.5 45.1405 52.2827 44.6159 51.8959 44.2291C51.5091 43.8423 50.9845 43.625 50.4375 43.625H46.3125Z" fill="#3E80E2"/>
<path d="M32.2875 31.36C32.7445 32.8809 33.5755 34.263 34.7044 35.38C35.8334 36.4969 37.2243 37.313 38.75 37.7538C39.6457 38.0012 40.5708 38.1261 41.5 38.125C44.0527 38.125 46.5009 37.111 48.3059 35.3059C50.1109 33.5009 51.125 31.0527 51.125 28.5C51.125 28.1353 50.9801 27.7856 50.7223 27.5277C50.4644 27.2699 50.1147 27.125 49.75 27.125H44.9375C44.3905 27.125 43.8659 26.9077 43.4791 26.5209C43.0923 26.1341 42.875 25.6095 42.875 25.0625V20.25C42.875 19.8853 42.7301 19.5356 42.4723 19.2777C42.2144 19.0199 41.8647 18.875 41.5 18.875C40.0644 18.8722 38.6463 19.1905 37.3497 19.8067C36.0531 20.4229 34.9107 21.3214 34.0062 22.4363C33.0155 23.6717 32.3412 25.1302 32.0417 26.6853C31.7422 28.2403 31.8265 29.845 32.2875 31.36Z" fill="#F56373"/>
<path d="M47 24.375H55.25C55.6147 24.375 55.9644 24.2301 56.2223 23.9723C56.4801 23.7144 56.625 23.3647 56.625 23C56.625 20.4473 55.6109 17.9991 53.8059 16.1941C52.0009 14.3891 49.5527 13.375 47 13.375C46.6353 13.375 46.2856 13.5199 46.0277 13.7777C45.7699 14.0356 45.625 14.3853 45.625 14.75V22.3263C45.625 23.7563 46.2437 24.375 47 24.375Z" fill="#FCAA17"/>
<path opacity="0.5" d="M15.375 13.375H34.625V16.125H15.375V13.375Z" fill="#3E80E2"/>
<path opacity="0.5" d="M15.375 18.875H27.75V21.625H15.375V18.875Z" fill="#3E80E2"/>
<circle opacity="0.2" cx="9.5" cy="30.5" r="2" stroke="#3E80E2"/>
<circle opacity="0.2" cx="54.5" cy="5.5" r="2" stroke="#3E80E2"/>
<circle opacity="0.2" cx="65.5" cy="34.5" r="2" stroke="#3E80E2"/>
<path d="M48.2496 58.4802L50.4152 61.3118L53.9794 61.2496L51.1479 63.4152L51.21 66.9794L49.0444 64.1479L45.4802 64.21L48.3117 62.0444L48.2496 58.4802Z" fill="#F56373"/>
<path d="M3.46624 41.3226L3.92171 43.5254L5.96488 44.4664L3.76204 44.9218L2.82109 46.965L2.36561 44.7622L0.322445 43.8212L2.52528 43.3657L3.46624 41.3226Z" fill="#F56373"/>
<path d="M21.4662 0.322574L21.9217 2.52541L23.9649 3.46637L21.762 3.92184L20.8211 5.96501L20.3656 3.76217L18.3224 2.82122L20.5253 2.36574L21.4662 0.322574Z" fill="#FCAA17"/>
</svg>
