<svg width="69" height="65" viewBox="0 0 69 65" fill="none" xmlns="http://www.w3.org/2000/svg">
<circle cx="35" cy="32" r="32" fill="#3E80E2" fill-opacity="0.1"/>
<path d="M42.0208 27.5165L39.2403 30.2954C37.9372 34.6665 33.8802 37.8634 29.0911 37.8634C26.2853 37.8634 23.7442 36.7706 21.855 34.997L29.1322 27.7198L32.9871 31.5748C33.4446 32.0323 34.1864 32.0325 34.6441 31.5752L45.5342 20.6923L47.0417 22.1999C47.7783 22.9366 49.0413 22.4134 49.0423 21.3724L49.0501 13.1732C49.0504 12.8619 48.9268 12.5631 48.7066 12.3431C48.3308 11.9676 47.8851 12.0019 47.8764 12.0001L39.683 12.0138C38.6417 12.0155 38.1207 13.2786 38.8563 14.0143L40.3426 15.5006L33.7796 22.0636L29.8645 18.1484C29.4071 17.691 28.6648 17.6907 28.2072 18.1484L18.5185 27.8369C18.0742 19.4026 27.2124 13.9268 34.4075 18.1212L36.1138 16.415C27.7814 11.0157 16.4758 16.7519 16.1661 26.8751C15.9508 34.208 21.8416 40.207 29.0911 40.207C36.1411 40.2071 41.8927 34.536 42.0208 27.5165Z" fill="#3E80E2"/>
<path d="M53.4966 46.6851L42.0943 35.2827C40.8468 37.3009 39.1432 39.0083 37.1279 40.2601L48.5247 51.6568C48.9822 52.1144 49.7243 52.1145 50.182 51.6568L53.4966 48.3422C53.954 47.885 53.9542 47.1426 53.4966 46.6851Z" fill="#FCAA17"/>
<circle opacity="0.2" cx="15.5" cy="4.5" r="2" stroke="#3E80E2"/>
<circle opacity="0.2" cx="17.5" cy="58.5" r="2" stroke="#3E80E2"/>
<circle opacity="0.2" cx="64.5" cy="32.5" r="2" stroke="#3E80E2"/>
<path d="M47.2496 56.4802L49.4152 59.3118L52.9794 59.2496L50.1479 61.4152L50.21 64.9794L48.0444 62.1479L44.4802 62.21L47.3117 60.0444L47.2496 56.4802Z" fill="#F56373"/>
<path d="M60.4662 11.3226L60.9217 13.5254L62.9649 14.4664L60.762 14.9218L59.8211 16.965L59.3656 14.7622L57.3224 13.8212L59.5253 13.3657L60.4662 11.3226Z" fill="#FCAA17"/>
<path d="M3.46624 34.3226L3.92171 36.5254L5.96488 37.4664L3.76204 37.9218L2.82109 39.965L2.36561 37.7622L0.322445 36.8212L2.52528 36.3657L3.46624 34.3226Z" fill="#F56373"/>
</svg>
