<svg width="73" height="70" viewBox="0 0 73 70" fill="none" xmlns="http://www.w3.org/2000/svg">
<circle cx="37" cy="38" r="32" fill="#3E80E2" fill-opacity="0.1"/>
<path d="M48.989 34.6499C48.8403 34.8132 48.6942 34.979 48.5507 35.1466C48.054 35.731 47.8219 36.3575 47.8219 37.1249V38.3718C47.8219 40.6303 45.9777 42.4745 43.7193 42.4745H42.7525C40.494 42.4745 38.6524 40.6303 38.6524 38.3718V37.1249C38.6524 36.3575 38.4212 35.7318 37.9219 35.1466C37.3857 34.5184 36.809 33.9289 36.314 33.2637C35.2544 31.8389 34.8376 30.3822 34.8376 28.6111C34.8376 27.3882 35.098 26.2263 35.5681 25.1787C28.584 25.2887 21.4563 29.595 20.7886 36.9616C20.5763 39.3171 21.4563 40.5039 18.0429 44.8859C16.3645 47.5998 18.8954 47.6187 20.0796 47.6531C18.8567 48.7058 19.9945 49.6288 20.6811 49.8282C19.3268 50.3807 19.7212 51.6234 20.9295 52.035C18.9418 56.7049 22.4566 56.8733 27.4118 55.8644L28.1646 58.9676C28.3133 59.5786 28.8469 59.998 29.4777 59.998H43.5259C43.9891 59.998 44.3879 59.784 44.6465 59.399C44.9043 59.0114 44.949 58.5611 44.7729 58.1323C40.164 46.9802 49.1797 47.1504 49.4375 37.5649C49.374 36.5233 49.2184 35.5539 48.989 34.6499ZM33.3182 29.308H31.3254C30.9378 29.308 30.6258 28.9961 30.6258 28.6111C30.6258 28.2235 30.9378 27.9115 31.3254 27.9115H33.3182C33.7032 27.9115 34.0152 28.2235 34.0152 28.6111C34.0152 28.9961 33.7032 29.308 33.3182 29.308Z" fill="#3E80E2"/>
<path d="M40.0518 38.0095H46.4267V37.1252C46.4267 37.0959 46.4292 37.0667 46.4292 37.0375H40.0518V38.0095Z" fill="#FCAA17"/>
<path d="M46.2221 39.4077H40.2589C40.6654 40.3848 41.6348 41.0766 42.7563 41.0766H43.7231C44.8454 41.0766 45.8131 40.3848 46.2221 39.4077Z" fill="#FCAA17"/>
<path d="M36.237 28.6122C36.237 24.7433 39.3729 21.6083 43.241 21.6083C47.1064 21.6083 50.2414 24.7433 50.2406 28.6122C50.2406 31.5598 48.8742 32.622 47.4906 34.242C47.1185 34.6777 46.8477 35.1434 46.6699 35.6427H39.8077C39.6324 35.1434 39.36 34.6777 38.987 34.242C37.606 32.622 36.237 31.5598 36.237 28.6122Z" fill="#FCAA17"/>
<path d="M52.1561 20.6802C52.4285 20.4095 52.4285 19.966 52.1561 19.6936C51.8837 19.4203 51.4428 19.4203 51.1695 19.6936L49.7593 21.1013C49.4869 21.3745 49.486 21.818 49.7593 22.0904C50.0326 22.3628 50.476 22.3628 50.7485 22.0904L52.1561 20.6802Z" fill="#FCAA17"/>
<path d="M42.5414 16.697V18.6898C42.5414 19.0766 42.8534 19.3885 43.241 19.3894C43.626 19.3894 43.9379 19.0774 43.9379 18.6898V16.697C43.9379 16.312 43.626 16 43.241 16C42.8534 16 42.5414 16.312 42.5414 16.697Z" fill="#FCAA17"/>
<path d="M34.3224 19.6936C34.0499 19.966 34.0499 20.4095 34.3224 20.6802L35.7326 22.0904C36.0033 22.3628 36.4467 22.3637 36.7192 22.0904C36.9916 21.8171 36.9916 21.3737 36.7192 21.1013L35.3115 19.6936C35.0382 19.4212 34.5948 19.4212 34.3224 19.6936Z" fill="#FCAA17"/>
<path d="M55.1528 29.3083C55.5378 29.3083 55.8497 28.9963 55.8497 28.6113C55.8497 28.2246 55.5378 27.9127 55.1528 27.9118H53.1599C52.7749 27.9118 52.4603 28.2238 52.4603 28.6113C52.4603 28.9963 52.7749 29.3083 53.1599 29.3083H55.1528Z" fill="#FCAA17"/>
<circle opacity="0.2" cx="57.833" cy="61.5" r="2" stroke="#3E80E2"/>
<circle opacity="0.2" cx="9.33301" cy="58.5" r="2" stroke="#3E80E2"/>
<circle opacity="0.2" cx="65.333" cy="20.6538" r="2" stroke="#3E80E2"/>
<path d="M31.2712 0.000538591L32.3853 3.38674L35.7717 4.5001L32.3855 5.61412L31.2721 9.00054L30.1581 5.61434L26.7717 4.50098L30.1579 3.38695L31.2712 0.000538591Z" fill="#F56373"/>
<path d="M3.30071 20.9764L3.75618 23.1792L5.79935 24.1202L3.59652 24.5756L2.65556 26.6188L2.20009 24.416L0.156918 23.475L2.35975 23.0196L3.30071 20.9764Z" fill="#FCAA17"/>
<path d="M70.2994 46.7166L70.7548 48.9195L72.798 49.8604L70.5952 50.3159L69.6542 52.3591L69.1987 50.1562L67.1556 49.2153L69.3584 48.7598L70.2994 46.7166Z" fill="#F56373"/>
</svg>
