<svg width="66" height="64" viewBox="0 0 66 64" fill="none" xmlns="http://www.w3.org/2000/svg">
<circle cx="32" cy="32" r="32" fill="#3E80E2" fill-opacity="0.1"/>
<path d="M26.5 43.6873V38.8748C26.5004 38.6501 26.4457 38.4287 26.3407 38.23C26.2357 38.0313 26.0836 37.8615 25.8976 37.7353C25.7117 37.6091 25.4977 37.5304 25.2743 37.5061C25.0509 37.4818 24.8249 37.5127 24.6163 37.596L17.9819 40.2498H12.75C12.3857 40.2508 12.0365 40.3961 11.7789 40.6537C11.5213 40.9113 11.3761 41.2604 11.375 41.6248V48.4998C11.3761 48.8641 11.5213 49.2132 11.7789 49.4709C12.0365 49.7285 12.3857 49.8737 12.75 49.8748H14.125V51.2498C14.125 51.6144 14.2699 51.9642 14.5277 52.222C14.7856 52.4799 15.1353 52.6248 15.5 52.6248C15.8647 52.6248 16.2144 52.4799 16.4723 52.222C16.7301 51.9642 16.875 51.6144 16.875 51.2498V49.8748H17.9819L24.6163 52.5285C24.7787 52.5909 24.951 52.6235 25.125 52.6248C25.399 52.6235 25.6666 52.5423 25.895 52.391C26.0806 52.2639 26.2327 52.0937 26.3381 51.8949C26.4434 51.6961 26.499 51.4748 26.5 51.2498V46.4373C26.8647 46.4373 27.2144 46.2924 27.4723 46.0345C27.7301 45.7767 27.875 45.4269 27.875 45.0623C27.875 44.6976 27.7301 44.3479 27.4723 44.09C27.2144 43.8321 26.8647 43.6873 26.5 43.6873ZM16.875 46.6248C16.875 46.9009 16.6511 47.1248 16.375 47.1248H14.625C14.3489 47.1248 14.125 46.9009 14.125 46.6248V43.4998C14.125 43.2236 14.3489 42.9998 14.625 42.9998H16.375C16.6511 42.9998 16.875 43.2236 16.875 43.4998V46.6248Z" fill="#F56373"/>
<path d="M22.375 18.25C22.0105 18.2505 21.661 18.3955 21.4033 18.6533C21.1455 18.911 21.0005 19.2605 21 19.625V20.3125H23.75V19.625C23.7495 19.2605 23.6045 18.911 23.3467 18.6533C23.089 18.3955 22.7395 18.2505 22.375 18.25Z" fill="#3E80E2"/>
<path d="M30.625 18.25V25.125H32.4032C32.661 25.125 32.9081 25.0226 33.0904 24.8404C33.2726 24.6581 33.375 24.411 33.375 24.1532V19.2218C33.375 18.964 33.2726 18.7169 33.0904 18.5346C32.9081 18.3524 32.661 18.25 32.4032 18.25H30.625Z" fill="#3E80E2"/>
<path d="M48.5 11.375H15.5C14.4063 11.3759 13.3575 11.8108 12.5841 12.5841C11.8108 13.3575 11.3759 14.4063 11.375 15.5V27.875C11.3759 28.9688 11.8108 30.0175 12.5841 30.7909C13.3575 31.5642 14.4063 31.9991 15.5 32H25.125V34.75C25.1253 35.0216 25.2057 35.2872 25.3561 35.5134C25.5065 35.7396 25.7203 35.9165 25.9706 36.0219C26.1389 36.0897 26.3186 36.1247 26.5 36.125C26.6805 36.1258 26.8594 36.0903 27.0259 36.0206C27.1924 35.9509 27.3432 35.8485 27.4694 35.7194L31.1956 32H48.5C49.5938 31.9991 50.6425 31.5642 51.4159 30.7909C52.1892 30.0175 52.6241 28.9688 52.625 27.875V15.5C52.6241 14.4063 52.1892 13.3575 51.4159 12.5841C50.6425 11.8108 49.5938 11.3759 48.5 11.375ZM26.5 26.5C26.5 26.8647 26.3551 27.2144 26.0973 27.4723C25.8394 27.7301 25.4897 27.875 25.125 27.875C24.7603 27.875 24.4106 27.7301 24.1527 27.4723C23.8949 27.2144 23.75 26.8647 23.75 26.5V23.0625H21V26.5C21 26.8647 20.8551 27.2144 20.5973 27.4723C20.3394 27.7301 19.9897 27.875 19.625 27.875C19.2603 27.875 18.9106 27.7301 18.6527 27.4723C18.3949 27.2144 18.25 26.8647 18.25 26.5V19.625C18.25 18.531 18.6846 17.4818 19.4582 16.7082C20.2318 15.9346 21.281 15.5 22.375 15.5C23.469 15.5 24.5182 15.9346 25.2918 16.7082C26.0654 17.4818 26.5 18.531 26.5 19.625V26.5ZM36.125 25.125C36.125 25.4897 35.9801 25.8394 35.7222 26.0972L34.3472 27.4722C34.0894 27.7301 33.7397 27.875 33.375 27.875H29.25C28.8853 27.875 28.5356 27.7301 28.2777 27.4723C28.0199 27.2144 27.875 26.8647 27.875 26.5V16.875C27.875 16.5103 28.0199 16.1606 28.2777 15.9027C28.5356 15.6449 28.8853 15.5 29.25 15.5H33.375C33.7397 15.5 34.0894 15.6449 34.3472 15.9028L35.7222 17.2778C35.9801 17.5356 36.125 17.8853 36.125 18.25V25.125ZM41.2812 20.3125H41.9688C42.9716 20.3125 43.9334 20.7109 44.6425 21.42C45.3516 22.1291 45.75 23.0909 45.75 24.0938C45.75 25.0966 45.3516 26.0584 44.6425 26.7675C43.9334 27.4766 42.9716 27.875 41.9688 27.875H38.875C38.5103 27.875 38.1606 27.7301 37.9027 27.4723C37.6449 27.2144 37.5 26.8647 37.5 26.5C37.5 26.1353 37.6449 25.7856 37.9027 25.5277C38.1606 25.2699 38.5103 25.125 38.875 25.125H41.9688C42.2423 25.125 42.5046 25.0163 42.698 24.823C42.8914 24.6296 43 24.3673 43 24.0938C43 23.8202 42.8914 23.5579 42.698 23.3645C42.5046 23.1712 42.2423 23.0625 41.9688 23.0625H41.2812C40.2784 23.0625 39.3166 22.6641 38.6075 21.955C37.8984 21.2459 37.5 20.2841 37.5 19.2812C37.5 18.2784 37.8984 17.3166 38.6075 16.6075C39.3166 15.8984 40.2784 15.5 41.2812 15.5H44.375C44.7397 15.5 45.0894 15.6449 45.3473 15.9027C45.6051 16.1606 45.75 16.5103 45.75 16.875C45.75 17.2397 45.6051 17.5894 45.3473 17.8473C45.0894 18.1051 44.7397 18.25 44.375 18.25H41.2812C41.0077 18.25 40.7454 18.3586 40.552 18.552C40.3586 18.7454 40.25 19.0077 40.25 19.2812C40.25 19.5548 40.3586 19.8171 40.552 20.0105C40.7454 20.2039 41.0077 20.3125 41.2812 20.3125Z" fill="#3E80E2"/>
<circle opacity="0.2" cx="4.5" cy="24.5" r="2" stroke="#3E80E2"/>
<circle opacity="0.2" cx="63.5" cy="13.5" r="2" stroke="#3E80E2"/>
<circle opacity="0.2" cx="40.5" cy="53.5" r="2" stroke="#3E80E2"/>
<path d="M56.2496 45.4802L58.4152 48.3118L61.9794 48.2496L59.1479 50.4152L59.21 53.9794L57.0444 51.1479L53.4802 51.21L56.3117 49.0444L56.2496 45.4802Z" fill="#FCAA17"/>
</svg>
