<svg width="68" height="66" viewBox="0 0 68 66" fill="none" xmlns="http://www.w3.org/2000/svg">
<circle cx="34" cy="32" r="32" fill="#3E80E2" fill-opacity="0.1"/>
<g clip-path="url(#clip0_206_58)">
<path d="M45.7597 51.9272C44.6268 51.4224 43.6274 50.6601 42.8408 49.7012C42.0543 48.7422 41.5024 47.6129 41.2291 46.4031C41.2034 46.2932 41.1432 46.1944 41.0572 46.1213C40.2088 45.3875 39.4976 44.5087 38.9569 43.5259C38.7433 43.1492 38.641 42.7196 38.6618 42.2871C38.6826 41.8545 38.8257 41.4367 39.0744 41.0822C39.3231 40.7277 39.6672 40.451 40.0669 40.2842C40.4665 40.1174 40.9053 40.0674 41.3322 40.14C41.6088 40.1902 41.8903 40.2075 42.1709 40.1916C42.2466 40.187 42.3203 40.1659 42.3868 40.1297C42.4534 40.0934 42.5111 40.043 42.5559 39.9819C43.6419 38.4963 45.2232 37.4478 47.0144 37.0256C47.1262 36.9987 47.2257 36.9349 47.2969 36.8445C47.368 36.754 47.4065 36.6422 47.4062 36.5272V32.7666C47.4061 32.6422 47.3613 32.522 47.2799 32.4279C47.1984 32.3339 47.0859 32.2723 46.9628 32.2544C46.6637 32.2097 46.3991 32.1616 46.155 32.1031C45.1336 31.8563 44.1648 31.4278 43.295 30.8381C43.2003 30.7703 43.0845 30.7386 42.9684 30.7488C41.7065 30.8216 40.4417 30.6656 39.2353 30.2881C37.3382 29.7976 36.916 27.0727 38.5753 26.0291C38.894 25.8135 39.1829 25.5569 39.4347 25.2659C39.4839 25.2103 39.5203 25.1445 39.5411 25.0732C39.5619 25.0019 39.5666 24.9268 39.555 24.8534C39.3221 23.223 39.5533 21.5599 40.2219 20.0547C40.8163 18.7012 41.7472 17.5222 42.9258 16.6299C44.1045 15.7376 45.4919 15.1617 46.9559 14.9569C47.0828 14.9382 47.1982 14.873 47.2796 14.7738C47.3609 14.6746 47.4024 14.5487 47.3959 14.4206C47.342 13.2293 46.8305 12.1047 45.9679 11.2811C45.1053 10.4576 43.9582 9.99869 42.7656 10H25.2344C24.0042 10.0018 22.8249 10.4913 21.955 11.3612C21.0851 12.2311 20.5956 13.4104 20.5938 14.6406V22.3063C20.5945 22.3784 20.6102 22.4495 20.64 22.5152C20.6697 22.5809 20.7127 22.6397 20.7664 22.6879C20.8201 22.736 20.8832 22.7725 20.9517 22.795C21.0202 22.8175 21.0926 22.8254 21.1644 22.8184C21.5583 22.7766 21.9541 22.7548 22.3503 22.7531C24.5241 22.7552 26.6514 23.3828 28.4782 24.561C30.305 25.7392 31.7541 27.4183 32.6525 29.3978C32.682 29.4641 32.7251 29.5234 32.779 29.572C32.8328 29.6206 32.8963 29.6572 32.9653 29.6797C33.6278 29.8969 34.3203 30.0082 35.0175 30.0097C35.5245 30.0121 36.0205 30.1577 36.4482 30.4298C36.876 30.7019 37.2182 31.0894 37.4352 31.5475C37.6523 32.0057 37.7354 32.5159 37.675 33.0193C37.6145 33.5227 37.4131 33.9987 37.0938 34.3925C36.0216 35.7535 34.6939 36.8921 33.1853 37.7441C33.075 37.8017 32.9904 37.8986 32.9481 38.0156C32.1421 40.1793 30.6927 42.0443 28.795 43.3594C26.8972 44.6746 24.6421 45.3769 22.3331 45.3719C21.9426 45.3688 21.5525 45.3458 21.1644 45.3031C21.0926 45.2962 21.0202 45.3043 20.9518 45.3268C20.8833 45.3493 20.8203 45.3858 20.7666 45.434C20.713 45.4821 20.6699 45.5409 20.6402 45.6065C20.6104 45.6721 20.5946 45.7432 20.5938 45.8153V49.3594C20.5956 50.5896 21.0851 51.7689 21.955 52.6388C22.8249 53.5087 24.0042 53.9982 25.2344 54H42.7656C43.9262 54.0002 45.0443 53.5633 45.8972 52.7763C45.9598 52.7185 46.0072 52.6461 46.035 52.5656C46.0628 52.485 46.0703 52.3989 46.0566 52.3148C46.043 52.2307 46.0088 52.1512 45.9569 52.0836C45.9051 52.016 45.8374 51.9622 45.7597 51.9272ZM30.7687 13.7813C30.3742 13.7689 29.9904 13.6499 29.6581 13.4368C29.3258 13.2238 29.0574 12.9246 28.8816 12.5713L28.0566 11.0313H39.9469L39.1184 12.5713C38.9426 12.9246 38.6742 13.2238 38.3419 13.4368C38.0096 13.6499 37.6258 13.7689 37.2313 13.7813H30.7687ZM37.6094 49.5313H30.3906C30.2539 49.5313 30.1227 49.4769 30.026 49.3802C29.9293 49.2835 29.875 49.1524 29.875 49.0156C29.875 48.8789 29.9293 48.7477 30.026 48.651C30.1227 48.5543 30.2539 48.5 30.3906 48.5H37.6094C37.7461 48.5 37.8773 48.5543 37.974 48.651C38.0707 48.7477 38.125 48.8789 38.125 49.0156C38.125 49.1524 38.0707 49.2835 37.974 49.3802C37.8773 49.4769 37.7461 49.5313 37.6094 49.5313Z" fill="#3E80E2"/>
<path d="M48.2598 45.4062H49.6217L49.9902 44.0312H48.6283L48.2598 45.4062Z" fill="#FCAA17"/>
<path d="M46.3125 38.3249C44.967 38.8654 43.8314 39.8248 43.0737 41.0611C43.0623 41.0792 43.0472 41.0946 43.0294 41.1064C43.0117 41.1183 42.9916 41.1263 42.9706 41.1299C42.371 41.2515 41.7541 41.2609 41.1511 41.1577C40.9173 41.118 40.6771 41.1455 40.4583 41.2369C40.2395 41.3283 40.0511 41.4799 39.9151 41.6742C39.779 41.8684 39.7009 42.0972 39.6897 42.3341C39.6786 42.5709 39.7349 42.8061 39.8521 43.0123C40.4023 44.0307 41.1641 44.9195 42.0865 45.6189C42.1025 45.6301 42.1162 45.6443 42.1267 45.6607C42.1372 45.6772 42.1443 45.6956 42.1476 45.7148C42.6313 49.0299 45.7519 51.6531 49.0092 51.6173C50.2563 51.6032 51.476 51.2498 52.5375 50.595C53.599 49.9403 54.4622 49.009 55.0345 47.9009C55.6069 46.7928 55.8668 45.5498 55.7864 44.3053C55.7059 43.0607 55.2882 41.8615 54.578 40.8363C53.6865 39.5456 52.3842 38.5948 50.8833 38.1388C49.3824 37.6827 47.7714 37.7483 46.3125 38.3249ZM52.047 44.0311H51.058L50.6898 45.4061H51.7032C51.84 45.4061 51.9711 45.4605 52.0678 45.5572C52.1645 45.6539 52.2188 45.785 52.2188 45.9218C52.2188 46.0585 52.1645 46.1897 52.0678 46.2864C51.9711 46.3831 51.84 46.4374 51.7032 46.4374H50.4135L50.0838 47.667C50.0663 47.7324 50.036 47.7938 49.9947 47.8476C49.9535 47.9013 49.9021 47.9464 49.8434 47.9803C49.7847 48.0142 49.7199 48.0362 49.6527 48.045C49.5855 48.0539 49.5173 48.0494 49.4518 48.0319C49.3864 48.0143 49.325 47.9841 49.2712 47.9428C49.2175 47.9016 49.1724 47.8501 49.1385 47.7914C49.1046 47.7328 49.0826 47.668 49.0738 47.6008C49.0649 47.5336 49.0694 47.4653 49.0869 47.3999L49.3447 46.4374H47.9828L47.6494 47.6821C47.6318 47.7476 47.6016 47.8089 47.5603 47.8627C47.5191 47.9164 47.4676 47.9616 47.4089 47.9954C47.3502 48.0293 47.2855 48.0513 47.2183 48.0602C47.1511 48.069 47.0828 48.0645 47.0174 48.047C46.9519 48.0295 46.8906 47.9992 46.8368 47.9579C46.783 47.9167 46.7379 47.8653 46.704 47.8066C46.6702 47.7479 46.6482 47.6831 46.6393 47.6159C46.6305 47.5487 46.6349 47.4805 46.6525 47.415L46.9144 46.4374H46.2032C46.0664 46.4374 45.9353 46.3831 45.8386 46.2864C45.7419 46.1897 45.6876 46.0585 45.6876 45.9218C45.6876 45.785 45.7419 45.6539 45.8386 45.5572C45.9353 45.4605 46.0664 45.4061 46.2032 45.4061H47.1922L47.5603 44.0311H46.5469C46.4102 44.0311 46.279 43.9768 46.1823 43.8801C46.0856 43.7834 46.0313 43.6523 46.0313 43.5155C46.0313 43.3788 46.0856 43.2476 46.1823 43.1509C46.279 43.0542 46.4102 42.9999 46.5469 42.9999H47.8367L48.1664 41.7703C48.2018 41.6381 48.2883 41.5254 48.4068 41.457C48.5253 41.3885 48.6661 41.37 48.7983 41.4054C48.9305 41.4408 49.0432 41.5273 49.1117 41.6458C49.1801 41.7643 49.1986 41.9052 49.1632 42.0374L48.9054 42.9999H50.2674L50.6008 41.7552C50.6183 41.6897 50.6486 41.6283 50.6898 41.5746C50.7311 41.5208 50.7825 41.4757 50.8412 41.4418C50.8999 41.4079 50.9647 41.386 51.0319 41.3771C51.0991 41.3683 51.1673 41.3727 51.2328 41.3903C51.2982 41.4078 51.3596 41.4381 51.4134 41.4793C51.4671 41.5206 51.5122 41.572 51.5461 41.6307C51.58 41.6894 51.602 41.7542 51.6108 41.8213C51.6197 41.8885 51.6152 41.9568 51.5977 42.0223L51.3344 42.9999H52.047C52.1837 42.9999 52.3149 43.0542 52.4116 43.1509C52.5083 43.2476 52.5626 43.3788 52.5626 43.5155C52.5626 43.6523 52.5083 43.7834 52.4116 43.8801C52.3149 43.9768 52.1837 44.0311 52.047 44.0311Z" fill="#FCAA17"/>
<path d="M41.1666 20.4714C40.5016 21.9598 40.327 23.6211 40.6681 25.2152C40.6751 25.2491 40.675 25.2842 40.6678 25.3181C40.6605 25.352 40.6464 25.384 40.6262 25.4122C40.2316 25.9896 39.7332 26.4889 39.1563 26.8844C38.9463 27.0291 38.7813 27.2301 38.6803 27.4643C38.5792 27.6984 38.5462 27.9563 38.585 28.2084C38.6238 28.4604 38.7328 28.6965 38.8996 28.8894C39.0664 29.0824 39.2841 29.2244 39.5279 29.2993C40.7563 29.6971 42.0562 29.8245 43.3384 29.6726C43.3675 29.6683 43.3972 29.6698 43.4257 29.677C43.4543 29.6842 43.4811 29.6969 43.5048 29.7145C44.8617 30.7481 46.5184 31.3116 48.2241 31.3199C53.8743 31.3456 57.6714 25.1633 55.0603 20.0902C52.127 14.3936 43.7663 14.5864 41.1666 20.4714ZM48.7377 27.0632C48.5938 27.1448 48.4311 27.1877 48.2657 27.1877C48.1002 27.1877 47.9376 27.1448 47.7937 27.0632C45.7769 25.9168 44.6312 24.4933 44.68 22.689C44.6788 22.4233 44.7299 22.1599 44.8305 21.914C44.931 21.668 45.0791 21.4443 45.2661 21.2556C45.4531 21.0668 45.6755 20.9167 45.9205 20.8139C46.1655 20.7111 46.4284 20.6576 46.6941 20.6564C46.9966 20.6562 47.2953 20.7247 47.5675 20.8568C47.8397 20.9888 48.0785 21.1808 48.2657 21.4185C48.4529 21.1808 48.6917 20.9888 48.9639 20.8568C49.2361 20.7247 49.5348 20.6562 49.8373 20.6564C50.103 20.6576 50.3659 20.7111 50.6109 20.8139C50.8559 20.9167 51.0783 21.0668 51.2653 21.2556C51.4523 21.4443 51.6003 21.668 51.7009 21.914C51.8014 22.1599 51.8526 22.4233 51.8513 22.689C51.9019 24.4933 50.7544 25.9158 48.7377 27.0632Z" fill="#FCAA17"/>
<path d="M32.1094 37.291C32.1304 37.2299 32.1632 37.1736 32.206 37.1253C32.2489 37.077 32.3008 37.0376 32.359 37.0095C33.8923 36.2154 35.2356 35.0989 36.2966 33.7366C36.4918 33.494 36.6147 33.2013 36.6511 32.892C36.6875 32.5827 36.6361 32.2695 36.5026 31.9881C36.3692 31.7067 36.1591 31.4687 35.8966 31.3012C35.634 31.1337 35.3296 31.0437 35.0182 31.0413C34.0458 31.0362 33.0828 30.8507 32.1782 30.4941C32.1104 30.4685 32.0486 30.4294 31.9965 30.3791C31.9444 30.3288 31.9032 30.2684 31.8753 30.2015C31.0591 28.1862 29.6236 26.4823 27.7761 25.3357C20.5096 20.7811 11.1905 26.8269 12.1506 35.3069C12.7181 40.3188 17.3546 44.4589 22.3538 44.3544C26.5716 44.4465 30.8276 41.4294 32.1094 37.291ZM19.9063 38.4354C19.7499 38.527 19.5719 38.5753 19.3907 38.5753H18.0157C17.7422 38.5753 17.4799 38.4666 17.2865 38.2732C17.0931 38.0798 16.9844 37.8175 16.9844 37.544V32.3878C16.9844 32.1143 17.0931 31.852 17.2865 31.6586C17.4799 31.4652 17.7422 31.3565 18.0157 31.3565H19.3907C19.5716 31.3562 19.7495 31.4036 19.9063 31.494V38.4354ZM20.9375 37.9734V31.7976C21.9475 30.8605 22.5972 28.9527 23.0299 28.0534C23.7917 26.4694 25.3262 28.5941 24.9512 29.7378C24.8216 30.1338 24.5469 31.3534 24.5469 31.3534C25.3674 31.3534 26.1543 31.6794 26.7345 32.2596C27.3147 32.8398 27.6407 33.6267 27.6407 34.4472V35.4784C27.6407 36.2989 27.3147 37.0858 26.7345 37.666C26.1543 38.2462 25.3674 38.5722 24.5469 38.5722H22.6274C22.3072 38.5721 21.9915 38.4975 21.7051 38.3542L20.9375 37.9734Z" fill="#FCAA17"/>
</g>
<circle opacity="0.2" cx="2.5" cy="14.5" r="2" stroke="#3E80E2"/>
<circle opacity="0.2" cx="60.5" cy="12.5" r="2" stroke="#3E80E2"/>
<circle opacity="0.2" cx="65.5" cy="40.5" r="2" stroke="#3E80E2"/>
<path d="M24.2496 57.4802L26.4152 60.3118L29.9794 60.2496L27.1479 62.4152L27.21 65.9794L25.0444 63.1479L21.4802 63.21L24.3117 61.0444L24.2496 57.4802Z" fill="#F56373"/>
<path d="M50.4662 3.32257L50.9217 5.52541L52.9649 6.46637L50.762 6.92184L49.8211 8.96501L49.3656 6.76217L47.3224 5.82122L49.5253 5.36574L50.4662 3.32257Z" fill="#F56373"/>
<path d="M7.46624 36.3226L7.92171 38.5254L9.96488 39.4664L7.76204 39.9218L6.82109 41.965L6.36561 39.7622L4.32245 38.8212L6.52528 38.3657L7.46624 36.3226Z" fill="#F56373"/>
<defs>
<clipPath id="clip0_206_58">
<rect width="44" height="44" fill="white" transform="translate(12 10)"/>
</clipPath>
</defs>
</svg>
