<svg width="68" height="66" viewBox="0 0 68 66" fill="none" xmlns="http://www.w3.org/2000/svg">
<circle cx="34" cy="32" r="32" fill="#3E80E2" fill-opacity="0.1"/>
<path fill-rule="evenodd" clip-rule="evenodd" d="M46.7906 28.3451V17.1047C46.7906 13.7332 44.0573 11 40.6859 11H21.151C17.7796 11 15.0464 13.7332 15.0464 17.1047V39.8953C15.0464 43.2667 17.7796 46 21.151 46H29.4991C28.1154 44.1578 27.2288 41.9209 27.0385 39.4884H22.7789C22.105 39.4884 21.558 38.9414 21.558 38.2674C21.558 37.5935 22.105 37.0465 22.7789 37.0465H27.0836C27.2511 35.6003 27.6654 34.2293 28.2833 32.9767H22.7789C22.105 32.9767 21.558 32.4298 21.558 31.7558C21.558 31.0819 22.105 30.5349 22.7789 30.5349H29.8659C31.4639 28.6043 33.631 27.162 36.1101 26.4651H22.7789C22.105 26.4651 21.558 25.9181 21.558 25.2442C21.558 24.5702 22.105 24.0233 22.7789 24.0233H39.058C39.732 24.0233 40.2789 24.5702 40.2789 25.2442C40.2789 25.5342 40.1777 25.8006 40.0086 26.0102C42.5342 26.1112 44.8669 26.9616 46.7906 28.3451ZM22.7789 17.5116H30.9185C31.5924 17.5116 32.1394 18.0586 32.1394 18.7326C32.1394 19.4065 31.5924 19.9535 30.9185 19.9535H22.7789C22.105 19.9535 21.558 19.4065 21.558 18.7326C21.558 18.0586 22.105 17.5116 22.7789 17.5116Z" fill="#3E80E2"/>
<g clip-path="url(#clip0_206_53)">
<path fill-rule="evenodd" clip-rule="evenodd" d="M39.6083 28.043C33.7495 28.043 29 32.7924 29 38.6512C29 44.51 33.7495 49.2595 39.6083 49.2595C45.467 49.2595 50.2165 44.51 50.2165 38.6512C50.2165 32.7924 45.467 28.043 39.6083 28.043ZM53.5628 52.501C52.9725 53.1017 52.0015 53.1102 51.4008 52.52L47.1604 48.3533C47.9671 47.7244 48.6932 46.9971 49.3209 46.1895L53.5438 50.3391C54.1445 50.9293 54.1531 51.9003 53.5628 52.501ZM39.6083 30.9966C43.8358 30.9966 47.2628 34.4237 47.2628 38.6512C47.2628 42.8787 43.8357 46.3058 39.6083 46.3058C35.3807 46.3058 31.9537 42.8787 31.9537 38.6512C31.9537 34.4237 35.3808 30.9966 39.6083 30.9966Z" fill="#FCAA17"/>
</g>
<circle opacity="0.2" cx="2.5" cy="14.5" r="2" stroke="#3E80E2"/>
<circle opacity="0.2" cx="60.5" cy="12.5" r="2" stroke="#3E80E2"/>
<circle opacity="0.2" cx="65.5" cy="40.5" r="2" stroke="#3E80E2"/>
<path d="M24.2496 57.4802L26.4152 60.3118L29.9794 60.2496L27.1479 62.4152L27.21 65.9794L25.0444 63.1479L21.4802 63.21L24.3117 61.0444L24.2496 57.4802Z" fill="#F56373"/>
<path d="M50.4662 3.32257L50.9217 5.52541L52.9649 6.46637L50.762 6.92184L49.8211 8.96501L49.3656 6.76217L47.3224 5.82122L49.5253 5.36574L50.4662 3.32257Z" fill="#F56373"/>
<path d="M7.46624 36.3226L7.92171 38.5254L9.96488 39.4664L7.76204 39.9218L6.82109 41.965L6.36561 39.7622L4.32245 38.8212L6.52528 38.3657L7.46624 36.3226Z" fill="#F56373"/>
<defs>
<clipPath id="clip0_206_53">
<rect width="25" height="25" fill="white" transform="translate(29 28)"/>
</clipPath>
</defs>
</svg>
