<svg width="71" height="64" viewBox="0 0 71 64" fill="none" xmlns="http://www.w3.org/2000/svg">
<circle cx="36" cy="32" r="32" fill="#3E80E2" fill-opacity="0.1"/>
<path d="M22.855 20.1998C23.4656 20.1998 23.9605 19.7048 23.9605 19.0943C23.9605 18.4837 23.4656 17.9888 22.855 17.9888C22.2445 17.9888 21.7495 18.4837 21.7495 19.0943C21.7495 19.7048 22.2445 20.1998 22.855 20.1998Z" fill="#FCAA17"/>
<path d="M26.7489 20.1998C27.3595 20.1998 27.8544 19.7048 27.8544 19.0943C27.8544 18.4837 27.3595 17.9888 26.7489 17.9888C26.1384 17.9888 25.6434 18.4837 25.6434 19.0943C25.6434 19.7048 26.1384 20.1998 26.7489 20.1998Z" fill="#FCAA17"/>
<path d="M30.643 20.1998C31.2535 20.1998 31.7485 19.7048 31.7485 19.0943C31.7485 18.4837 31.2535 17.9888 30.643 17.9888C30.0324 17.9888 29.5375 18.4837 29.5375 19.0943C29.5375 19.7048 30.0324 20.1998 30.643 20.1998Z" fill="#FCAA17"/>
<path d="M41.5976 37.7626L45.2042 49.6178C45.5534 50.766 47.1704 50.7907 47.5541 49.6522L49.2426 44.6417C49.3663 44.276 49.6523 43.99 50.0181 43.8662L55.0286 42.1777C56.1657 41.7941 56.1423 40.1771 54.9942 39.8278L43.1389 36.2212C42.1943 35.9352 41.3116 36.818 41.5976 37.7626Z" fill="#FCAA17"/>
<path d="M39.6259 38.3623C39.3179 37.3531 39.5021 36.2874 40.1291 35.4418C40.7506 34.6044 41.7379 34.1039 42.7732 34.1039C43.0991 34.1039 43.4236 34.1521 43.7399 34.2483L54.3989 37.4892V18.6228C54.3989 15.8041 52.1026 13.5078 49.2839 13.5078H21.2462C18.4275 13.5078 16.1312 15.8041 16.1312 18.6228V41.5166C16.1312 44.3491 18.4275 46.6453 21.26 46.6453H42.1435L39.6259 38.3623ZM18.6062 22.2253V18.6242C18.6062 17.1681 19.7901 15.9842 21.2462 15.9842H49.2825C50.7386 15.9842 51.9225 17.1681 51.9225 18.6242V22.2253H18.6062Z" fill="#3E80E2"/>
<circle opacity="0.2" cx="9.5" cy="23.5" r="2" stroke="#3E80E2"/>
<circle opacity="0.2" cx="68.5" cy="12.5" r="2" stroke="#3E80E2"/>
<circle opacity="0.2" cx="10.5" cy="58.5" r="2" stroke="#3E80E2"/>
<path d="M61.2496 44.4802L63.4152 47.3118L66.9794 47.2496L64.1479 49.4152L64.21 52.9794L62.0444 50.1479L58.4802 50.21L61.3117 48.0444L61.2496 44.4802Z" fill="#F56373"/>
<path d="M52.4662 3.32257L52.9217 5.52541L54.9649 6.46637L52.762 6.92184L51.8211 8.96501L51.3656 6.76217L49.3224 5.82122L51.5253 5.36574L52.4662 3.32257Z" fill="#F56373"/>
<path d="M3.46624 41.3226L3.92171 43.5254L5.96488 44.4664L3.76204 44.9218L2.82109 46.965L2.36561 44.7622L0.322445 43.8212L2.52528 43.3657L3.46624 41.3226Z" fill="#F56373"/>
</svg>
