<svg width="26" height="70" viewBox="0 0 26 70" fill="none" xmlns="http://www.w3.org/2000/svg">
<rect x="1" y="45" width="24" height="24" rx="4" stroke="#C3C9D3"/>
<rect x="1" y="1" width="24" height="24" rx="4" stroke="#C3C9D3"/>
<g clip-path="url(#clip0_208_46)">
<path d="M5.57683 15.2853C5.20325 14.9266 5.01015 14.4493 5.00038 13.9688C4.99074 13.4885 5.16458 13.0037 5.52318 12.6301C5.88152 12.2568 6.35875 12.0636 6.8391 12.054C7.31971 12.0441 7.80422 12.2174 8.17806 12.5764L11.4056 15.682L17.8314 7.51934L18.0616 7.69499L17.8312 7.51856C17.8495 7.49473 17.8704 7.47441 17.8935 7.45788C18.2758 7.12675 18.7557 6.97727 19.2247 7.00279V7.00227L19.2476 7.00435C19.7194 7.0356 20.1802 7.24524 20.5204 7.62494C20.8665 8.01102 21.0234 8.50139 20.9973 8.9807H20.9978L20.9957 9.00362C20.965 9.46691 20.7625 9.91966 20.3955 10.2578L12.6839 19.6448L12.6844 19.6453C12.67 19.6636 12.6537 19.6794 12.636 19.6932C12.2749 20.0103 11.8189 20.1657 11.3655 20.1579C10.9083 20.15 10.4521 19.9762 10.0971 19.635L5.57683 15.2853Z" fill="#3E80E2"/>
</g>
<defs>
<clipPath id="clip0_208_46">
<rect width="16" height="13.1581" fill="white" transform="translate(5 7)"/>
</clipPath>
</defs>
</svg>
