<svg width="259" height="69" viewBox="0 0 259 69" fill="none" xmlns="http://www.w3.org/2000/svg">
<path d="M10.5673 12.1378L12.0587 13.7881L14.2722 13.5674L12.6218 15.0589L12.8426 17.2723L11.3511 15.622L9.13764 15.8427L10.788 14.3512L10.5673 12.1378Z" fill="#F56373"/>
<path d="M73.1086 55.2732L72.6539 57.4506L74.1364 59.109L71.9589 58.6543L70.3006 60.1369L70.7552 57.9594L69.2727 56.301L71.4502 56.7557L73.1086 55.2732Z" fill="#F56373"/>
<path d="M256.24 40.404L255.786 42.5815L257.268 44.2399L255.091 43.7852L253.432 45.2677L253.887 43.0902L252.405 41.4318L254.582 41.8865L256.24 40.404Z" fill="#F56373"/>
<circle opacity="0.2" cx="225.5" cy="9.5" r="2" stroke="#3E80E2"/>
<circle opacity="0.2" cx="2.5" cy="40.5" r="2" stroke="#3E80E2"/>
<circle opacity="0.2" cx="51.5" cy="66.5" r="2" stroke="#3E80E2"/>
<circle opacity="0.2" cx="60.5" cy="2.5" r="2" stroke="#3E80E2"/>
</svg>
