<svg width="48" height="48" viewBox="0 0 48 48" fill="none" xmlns="http://www.w3.org/2000/svg">
<circle cx="24" cy="24" r="24" fill="white"/>
<g clip-path="url(#clip0_206_17)">
<path d="M44.7319 18.5171C44.5995 18.5489 44.485 18.6318 44.4135 18.7478C44.342 18.8637 44.3193 19.0032 44.3503 19.1358C44.7262 20.7311 44.9165 22.3644 44.9175 24.0033C44.9109 29.5489 42.705 34.8654 38.7837 38.7867C34.8624 42.708 29.5459 44.9139 24.0003 44.9205C19.4456 44.9365 15.0132 43.4477 11.3916 40.6855C11.8779 39.9605 12.0721 39.0784 11.9355 38.2162C11.7989 37.3539 11.3415 36.5752 10.6549 36.036C9.9683 35.4968 9.1033 35.237 8.23324 35.3086C7.36318 35.3803 6.55235 35.7781 5.96323 36.4223C5.3741 37.0666 5.05023 37.9097 5.0565 38.7827C5.06278 39.6557 5.39874 40.494 5.99706 41.1297C6.59538 41.7655 7.41185 42.1516 8.28285 42.2107C9.15385 42.2699 10.015 41.9976 10.6938 41.4486C14.507 44.3842 19.1881 45.9684 24.0003 45.9518C27.3155 45.9482 30.587 45.1945 33.5695 43.7471C36.5521 42.2997 39.1685 40.1961 41.2226 37.594C43.2768 34.9919 44.7155 31.9587 45.431 28.7216C46.1465 25.4846 46.1202 22.1275 45.3541 18.9021C45.3387 18.8358 45.3104 18.7733 45.2708 18.718C45.2311 18.6627 45.181 18.6159 45.1231 18.5801C45.0653 18.5443 45.0009 18.5203 44.9338 18.5095C44.8667 18.4987 44.798 18.5012 44.7319 18.5171Z" fill="#FCAA17"/>
<path d="M3.0828 24.0037C3.08302 20.283 4.07562 16.6297 5.95824 13.4204C7.84087 10.2112 10.5454 7.56213 13.793 5.74641C17.0405 3.93068 20.7136 3.014 24.4335 3.09086C28.1534 3.16773 31.7855 4.23536 34.9553 6.18369C34.6281 6.88366 34.5758 7.68097 34.8086 8.41772C35.0414 9.15446 35.5424 9.7769 36.2124 10.1617C36.8824 10.5466 37.6725 10.6658 38.4262 10.4957C39.1799 10.3256 39.8423 9.87872 40.2821 9.24344C40.7219 8.60817 40.907 7.8309 40.8009 7.06557C40.6948 6.30023 40.3051 5.60266 39.7091 5.11102C39.113 4.61938 38.3541 4.36952 37.5825 4.41093C36.811 4.45235 36.0831 4.78201 35.5431 5.33463C32.2182 3.27924 28.4048 2.14902 24.4969 2.06077C20.589 1.97252 16.7285 2.92944 13.3142 4.83264C9.89993 6.73584 7.05584 9.51627 5.07584 12.8866C3.09584 16.2569 2.05178 20.0948 2.05155 24.0037C2.0497 25.3435 2.17168 26.6807 2.41592 27.9981C2.43689 28.1168 2.49907 28.2242 2.5915 28.3016C2.68394 28.3789 2.80071 28.4212 2.92124 28.4209C2.95246 28.4209 2.98358 28.4174 3.01405 28.4106C3.14846 28.3863 3.26775 28.3097 3.34573 28.1975C3.42371 28.0854 3.45402 27.9469 3.42999 27.8124C3.19827 26.5561 3.08206 25.2812 3.0828 24.0037Z" fill="#FCAA17"/>
<path d="M20.906 20.5969V20.9063H27.0935V20.5969C27.0454 16.4169 20.9541 16.4169 20.906 20.5969Z" fill="#3E80E2"/>
<path d="M38.4206 13.2889C32.6181 13.3473 27.0356 9.76199 24.9009 8.21512C24.6388 8.02575 24.3237 7.92383 24.0003 7.92383C23.677 7.92383 23.3618 8.02575 23.0997 8.21512C20.965 9.76199 15.3688 13.3336 9.58001 13.2889C9.37442 13.2868 9.17047 13.3255 8.97988 13.4026C8.78929 13.4797 8.61584 13.5937 8.46951 13.7381C8.32318 13.8826 8.20686 14.0545 8.12724 14.244C8.04763 14.4336 8.0063 14.637 8.00563 14.8426C8.00907 22.7798 9.59719 34.1339 23.3025 41.0707C23.5186 41.1809 23.7577 41.2383 24.0003 41.2383C24.2429 41.2383 24.482 41.1809 24.6981 41.0707C38.4034 34.1339 39.9916 22.7798 39.995 14.8426C39.9919 14.4279 39.8244 14.0314 39.5292 13.7401C39.234 13.4488 38.8353 13.2865 38.4206 13.2889ZM29.6722 28.9845C29.6722 29.6683 29.4006 30.324 28.9171 30.8075C28.4336 31.291 27.7778 31.5626 27.0941 31.5626H20.9066C20.2228 31.5626 19.5671 31.291 19.0836 30.8075C18.6001 30.324 18.3284 29.6683 18.3284 28.9845V23.4845C18.3287 22.9831 18.4752 22.4926 18.7499 22.0732C19.0247 21.6537 19.4158 21.3235 19.8753 21.1229V20.5901C19.9372 15.0729 28.0634 15.0729 28.1253 20.5901V21.1229C28.5849 21.3235 28.976 21.6537 29.2507 22.0732C29.5255 22.4926 29.6719 22.9831 29.6722 23.4845V28.9845Z" fill="#3E80E2"/>
<path d="M24.844 25.6425C24.8363 25.5964 24.8385 25.5492 24.8503 25.5039C24.8622 25.4586 24.8834 25.4164 24.9127 25.3799C25.0279 25.2134 25.0953 25.0186 25.1076 24.8165C25.12 24.6144 25.0768 24.4128 24.9828 24.2335C24.8888 24.0542 24.7475 23.9041 24.5743 23.7993C24.4011 23.6945 24.2025 23.6392 24 23.6392C23.7976 23.6392 23.599 23.6945 23.4258 23.7993C23.2526 23.9041 23.1113 24.0542 23.0173 24.2335C22.9233 24.4128 22.8801 24.6144 22.8925 24.8165C22.9048 25.0186 22.9722 25.2134 23.0874 25.3799C23.1165 25.416 23.1377 25.4578 23.1496 25.5027C23.1614 25.5475 23.1637 25.5944 23.1561 25.6401C23.0754 26.0427 22.8468 27.1935 22.6855 27.9924C22.6659 28.0921 22.6687 28.1948 22.6935 28.2933C22.7183 28.3917 22.7647 28.4835 22.8292 28.5619C22.8937 28.6403 22.9748 28.7035 23.0667 28.7468C23.1585 28.7902 23.2588 28.8126 23.3603 28.8126H24.6391C24.7408 28.8126 24.8413 28.7901 24.9333 28.7466C25.0252 28.7031 25.1064 28.6398 25.1709 28.5611C25.2354 28.4825 25.2817 28.3905 25.3063 28.2918C25.331 28.1931 25.3335 28.0901 25.3135 27.9904L24.844 25.6425Z" fill="#3E80E2"/>
</g>
<defs>
<clipPath id="clip0_206_17">
<rect width="44" height="44" fill="white" transform="translate(2 2)"/>
</clipPath>
</defs>
</svg>
