<svg width="48" height="48" viewBox="0 0 48 48" fill="none" xmlns="http://www.w3.org/2000/svg">
<circle cx="24" cy="24" r="24" fill="white"/>
<g clip-path="url(#clip0_206_18)">
<path d="M28.125 2H7.04167C4.255 2 2 4.255 2 7.04167V35.4583C2 38.245 4.255 40.5 7.04167 40.5H21.9833C20.4433 38.0617 19.4167 35.1833 19.4167 31.8833V27.41C19.1417 27.575 18.83 27.6667 18.5 27.6667H9.33333C8.325 27.6667 7.5 26.8417 7.5 25.8333C7.5 24.825 8.325 24 9.33333 24H18.5C18.8483 24 19.16 24.0917 19.435 24.2567C19.5083 22.6983 20.2417 21.2683 21.3967 20.3333H9.33333C8.325 20.3333 7.5 19.5083 7.5 18.5C7.5 17.4917 8.325 16.6667 9.33333 16.6667H25.8333C26.6033 16.6667 27.2633 17.1433 27.5383 17.8217L32.7633 16.0433C32.8917 15.9883 33.02 15.9517 33.1667 15.9333V7.04167C33.1667 4.255 30.9117 2 28.125 2ZM16.6667 13H9.33333C8.325 13 7.5 12.175 7.5 11.1667C7.5 10.1583 8.325 9.33333 9.33333 9.33333H16.6667C17.675 9.33333 18.5 10.1583 18.5 11.1667C18.5 12.175 17.675 13 16.6667 13Z" fill="#3E80E2"/>
<path d="M44.757 22.788L35.132 19.5136C34.7489 19.3835 34.3327 19.3835 33.9495 19.5136L24.3245 22.788C23.582 23.041 23.0815 23.7395 23.0815 24.5241V31.8905C23.0815 41.18 33.383 45.668 33.8212 45.855C34.0522 45.9521 34.2979 45.9998 34.5417 45.9998C34.7855 45.9998 35.0312 45.9521 35.2604 45.8531C35.6985 45.6661 46 41.18 46 31.8905V24.5241C46 23.7376 45.5014 23.041 44.757 22.788ZM41.05 29.6831L35.55 37.0165C35.231 37.4418 34.7452 37.7076 34.2135 37.7443C34.1695 37.748 34.1255 37.7498 34.0834 37.7498C33.5975 37.7498 33.1319 37.5591 32.7872 37.2126L29.1205 33.546C28.4037 32.8291 28.4037 31.6705 29.1205 30.9536C29.8374 30.2368 30.996 30.2368 31.7129 30.9536L33.8854 33.1261L38.1167 27.4831C38.7235 26.6746 39.873 26.5078 40.6815 27.1165C41.4937 27.7233 41.6587 28.8728 41.05 29.6831Z" fill="#FCAA17"/>
</g>
<defs>
<clipPath id="clip0_206_18">
<rect width="44" height="44" fill="white" transform="translate(2 2)"/>
</clipPath>
</defs>
</svg>
