<svg width="48" height="48" viewBox="0 0 48 48" fill="none" xmlns="http://www.w3.org/2000/svg">
<circle cx="24" cy="24" r="24" fill="white"/>
<path fill-rule="evenodd" clip-rule="evenodd" d="M26.6059 3.50424L29.2258 5.46534C29.9423 6.00167 30.6965 6.27616 31.5902 6.32592L34.8576 6.50767C36.8141 6.61647 38.4032 7.94979 38.8501 9.85777L39.5965 13.0441C39.8006 13.9155 40.202 14.6105 40.8546 15.223L43.2408 17.4626C44.6696 18.8036 45.0298 20.8464 44.1458 22.5953L42.6695 25.5158C42.2658 26.3146 42.1264 27.105 42.2326 27.9937L42.621 31.2431C42.8536 33.1889 41.8164 34.9852 40.0151 35.7567L37.0068 37.045C36.184 37.3974 35.5693 37.9133 35.0794 38.6623L33.2882 41.4011C32.2157 43.0411 30.2665 43.7505 28.3908 43.1836L25.2582 42.237C24.4015 41.978 23.5989 41.978 22.7421 42.237L19.6095 43.1836C17.7339 43.7505 15.7846 43.0411 14.7121 41.4011L12.9209 38.6623C12.431 37.9133 11.8162 37.3974 10.9935 37.045L7.98503 35.7565C6.18378 34.985 5.1466 33.1887 5.37915 31.243L5.76758 27.9935C5.8738 27.1048 5.73441 26.3145 5.33068 25.5157L3.85436 22.5951C2.9704 20.8463 3.33057 18.8035 4.75937 17.4625L7.14559 15.2229C7.7982 14.6104 8.19944 13.9153 8.40354 13.0439L9.15 9.8576C9.59687 7.9497 11.1859 6.61638 13.1425 6.5075L16.4099 6.32574C17.3036 6.27607 18.0578 6.0015 18.7743 5.46517L21.3942 3.50407C22.9628 2.32999 25.0372 2.32999 26.6059 3.50424ZM24 8.94521C20.119 8.94521 16.6052 10.5184 14.0618 13.0618C11.5184 15.6053 9.94526 19.1189 9.94526 22.9999C9.94526 26.881 11.5184 30.3947 14.0618 32.9381C16.6052 35.4815 20.119 37.0547 24 37.0547C27.881 37.0547 31.3948 35.4815 33.9382 32.9381C36.4816 30.3947 38.0547 26.881 38.0547 22.9999C38.0547 19.1189 36.4816 15.6052 33.9382 13.0618C31.3948 10.5184 27.881 8.94521 24 8.94521ZM32.9659 14.034C30.6714 11.7395 27.5014 10.3202 24 10.3202C20.4986 10.3202 17.3286 11.7395 15.0341 14.034C12.7395 16.3285 11.3203 19.4985 11.3203 22.9999C11.3203 26.5014 12.7395 29.6714 15.0341 31.9659C17.3286 34.2604 20.4986 35.6797 24 35.6797C27.5014 35.6797 30.6714 34.2604 32.9659 31.966C35.2605 29.6714 36.6796 26.5015 36.6796 23C36.6797 19.4985 35.2605 16.3285 32.9659 14.034Z" fill="#3E80E2"/>
<path d="M19.4854 21.2792L22.3286 24.1224L28.5158 17.8735C29.2482 17.1338 30.443 17.1317 31.1806 17.8652C31.918 18.5985 31.9203 19.7899 31.1887 20.5283C28.6798 23.0605 26.1878 25.6094 23.6672 28.13C22.9304 28.8669 21.7351 28.8668 20.9982 28.13L16.8164 23.9483C16.0794 23.2114 16.0794 22.0162 16.8164 21.2792C17.5532 20.5423 18.7485 20.5423 19.4854 21.2792Z" fill="white"/>
</svg>
