<svg width="224" height="69" viewBox="0 0 224 69" fill="none" xmlns="http://www.w3.org/2000/svg">
<path d="M4.24958 39.4802L6.41518 42.3118L9.97938 42.2496L7.14785 44.4152L7.21002 47.9794L5.04442 45.1479L1.48022 45.21L4.31175 43.0444L4.24958 39.4802Z" fill="#FCAA17"/>
<path d="M216.676 12.1647L216.876 15.7239L219.858 17.676L216.299 17.8753L214.347 20.858L214.148 17.2989L211.165 15.3467L214.724 15.1474L216.676 12.1647Z" fill="#FCAA17"/>
<path d="M75.7818 6.62756L72.6111 6.80511L70.872 9.46221L70.6945 6.29155L68.0374 4.55246L71.2081 4.37491L72.9471 1.71782L73.1247 4.88848L75.7818 6.62756Z" fill="#F56373"/>
<circle opacity="0.2" cx="21.5" cy="66.5" r="2" stroke="#3E80E2"/>
<circle opacity="0.2" cx="221.5" cy="55.5" r="2" stroke="#3E80E2"/>
<circle opacity="0.2" cx="171.5" cy="11.5" r="2" stroke="#3E80E2"/>
<circle opacity="0.2" cx="25.5" cy="11.5" r="2" stroke="#3E80E2"/>
</svg>
