<svg width="234" height="60" viewBox="0 0 234 60" fill="none" xmlns="http://www.w3.org/2000/svg">
<path d="M6.48836 43.2941L7.01538 46.8197L10.1655 48.4882L6.63997 49.0152L4.97147 52.1653L4.44445 48.6398L1.29429 46.9713L4.81986 46.4442L6.48836 43.2941Z" fill="#3E80E2"/>
<path d="M216.952 33.7584L217.479 37.284L220.629 38.9525L217.104 39.4795L215.435 42.6297L214.908 39.1041L211.758 37.4356L215.284 36.9086L216.952 33.7584Z" fill="#3E80E2"/>
<path d="M62.5486 10.5625L60.3277 10.6868L59.1095 12.5481L58.9851 10.3271L57.1239 9.10891L59.3448 8.98454L60.563 7.12332L60.6874 9.34428L62.5486 10.5625Z" fill="#F56373"/>
<path d="M233.151 9.16598L230.93 9.29035L229.712 11.1516L229.588 8.93062L227.726 7.71243L229.947 7.58806L231.166 5.72684L231.29 7.9478L233.151 9.16598Z" fill="#F56373"/>
<circle opacity="0.2" cx="56.5" cy="57.5" r="2" stroke="#3E80E2"/>
<circle opacity="0.2" cx="205.5" cy="7.5" r="2" stroke="#3E80E2"/>
<circle opacity="0.2" cx="20.5" cy="2.5" r="2" stroke="#3E80E2"/>
</svg>
