<svg width="48" height="48" viewBox="0 0 48 48" fill="none" xmlns="http://www.w3.org/2000/svg">
<circle cx="24" cy="24" r="24" fill="white"/>
<path fill-rule="evenodd" clip-rule="evenodd" d="M24.5003 7.93086C21.3734 7.82672 18.2142 8.67983 15.4867 10.5005C12.4233 12.5474 10.2825 15.5702 9.29638 18.9494C9.02407 18.9162 8.69798 18.9309 8.31078 19.0404C6.86513 19.4505 5.77784 20.6351 5.28895 21.6784C4.65487 23.038 4.38744 24.8361 4.66953 26.6925C4.94967 28.5429 5.7314 30.0682 6.70918 31.0152C7.68989 31.9627 8.79722 32.2707 9.89722 32.0394C11.535 31.6899 12.347 31.4283 12.1178 29.9025L11.0075 22.5061C11.2314 18.5031 13.3038 14.7347 16.77 12.4174C21.4096 9.31832 27.4923 9.51681 31.9178 12.9141C34.9963 15.2745 36.7837 18.8111 36.99 22.5237L36.2136 27.6976C34.482 32.4364 30.189 35.7188 25.2214 36.1847H21.9136C21.06 36.1847 20.3726 36.8721 20.3726 37.7247V38.5373C20.3726 39.3904 21.06 40.0777 21.9136 40.0777H26.0843C26.9374 40.0777 27.6219 39.3904 27.6219 38.5373V38.1124C31.3678 37.1982 34.6374 34.896 36.7666 31.6855L38.1027 32.0399C39.19 32.322 40.3105 31.9627 41.2907 31.0157C42.2685 30.0682 43.0498 28.5434 43.3304 26.6929C43.6134 24.8366 43.3382 23.0414 42.7114 21.6789C42.0822 20.3164 41.145 19.451 40.0631 19.1406C39.6099 19.0101 39.1181 18.9621 38.6962 18.9494C37.8045 15.8939 35.9687 13.115 33.3228 11.0861C30.7214 9.09001 27.6273 8.03352 24.5003 7.93086Z" fill="#FCAA17"/>
<path fill-rule="evenodd" clip-rule="evenodd" d="M29.3819 21.2377C30.4844 21.2377 31.3781 22.1314 31.3805 23.2368C31.3781 24.3392 30.4844 25.2354 29.3819 25.2354C28.2765 25.2354 27.3804 24.3392 27.3804 23.2368C27.3804 22.1319 28.277 21.2377 29.3819 21.2377ZM23.9993 21.2377C25.1041 21.2377 25.9978 22.1314 25.9978 23.2368C25.9978 24.3392 25.1041 25.2354 23.9993 25.2354C22.8934 25.2354 21.9997 24.3392 21.9997 23.2368C21.9997 22.1319 22.8934 21.2377 23.9993 21.2377ZM18.6185 21.2377C19.721 21.2377 20.6171 22.1314 20.6171 23.2368C20.6171 24.3392 19.721 25.2354 18.6185 25.2354C17.5137 25.2354 16.6195 24.3392 16.6195 23.2368C16.6195 22.1319 17.5137 21.2377 18.6185 21.2377ZM23.9993 12.6519C18.1375 12.6519 13.4138 17.22 13.4138 23.2368C13.4138 26.1266 14.5065 28.6806 16.2865 30.5545L15.6549 33.3861C15.4466 34.3179 16.0929 34.9447 16.9304 34.4783L19.6956 32.9359C21.0097 33.5064 22.4632 33.8217 23.9993 33.8217C29.863 33.8217 34.5837 29.2565 34.5837 23.2368C34.5837 17.22 29.863 12.6519 23.9993 12.6519Z" fill="#3E80E2"/>
</svg>
