<svg width="48" height="48" viewBox="0 0 48 48" fill="none" xmlns="http://www.w3.org/2000/svg">
<circle cx="24" cy="24" r="24" fill="white"/>
<path d="M31.2324 27.4836L32.355 22.8227C32.3586 22.8081 32.3622 22.7936 32.3661 22.779C32.6632 21.6692 33.5374 20.7952 34.6475 20.4978L38.053 19.5852C37.4942 18.9188 36.6562 18.4943 35.7206 18.4943H34.716C34.4596 17.688 34.1339 16.9022 33.7443 16.1498L34.4551 15.4392C35.642 14.2522 35.642 12.3208 34.4551 11.134L32.3064 8.98512C31.7313 8.41026 30.9668 8.09357 30.1537 8.09357C29.3407 8.09357 28.5762 8.41036 28.0011 8.98532L27.2903 9.696C26.5378 9.3065 25.7519 8.98072 24.946 8.72419V7.7198C24.946 6.04128 23.5804 4.67578 21.9019 4.67578H18.8628C17.1843 4.67578 15.8187 6.04128 15.8187 7.7198V8.72429C15.0127 8.98083 14.2268 9.3065 13.4743 9.6961L12.7635 8.98522C12.1884 8.41036 11.4239 8.09367 10.6109 8.09367C9.7979 8.09367 9.03339 8.41046 8.45823 8.98542L6.30964 11.1341C5.12275 12.3209 5.12275 14.2523 6.30964 15.4393L7.02032 16.1499C6.63072 16.9023 6.30505 17.6882 6.04861 18.4944H5.04402C3.3656 18.4945 2 19.86 2 21.5386V24.5776C2 26.2562 3.3656 27.6217 5.04412 27.6217H6.04871C6.30515 28.4279 6.63082 29.2136 7.02043 29.9661L6.30964 30.6768C5.12265 31.8638 5.12265 33.795 6.30964 34.9822L8.45844 37.1307C9.0336 37.7058 9.7981 38.0225 10.6111 38.0225C11.4241 38.0225 12.1886 37.7057 12.7636 37.1307L13.4744 36.4201C14.2266 36.8097 15.0125 37.1351 15.8188 37.3917V38.3964C15.8188 40.0749 17.1844 41.4406 18.8629 41.4406H21.4987C21.2548 40.8594 21.1265 40.2302 21.1264 39.581C21.1262 38.2971 21.626 37.0901 22.5338 36.1824L31.2324 27.4836ZM20.3824 31.2279C15.8775 31.2279 12.2124 27.5629 12.2124 23.0581C12.2124 18.5531 15.8775 14.888 20.3824 14.888C24.8873 14.888 28.5523 18.5531 28.5523 23.0581C28.5523 27.5629 24.8873 31.2279 20.3824 31.2279Z" fill="#3E80E2"/>
<path d="M45.43 24.3378L45.3974 24.3052C45.3015 24.2091 45.1739 24.1593 45.0358 24.1551C44.9004 24.1551 44.7705 24.2088 44.6747 24.3047L42.4692 26.5102C42.1318 26.8477 41.683 27.0336 41.2054 27.0336C40.7279 27.0336 40.279 26.8477 39.9412 26.5098C39.6035 26.1723 39.4175 25.7234 39.4175 25.2458C39.4176 24.7683 39.6035 24.3194 39.941 23.9818L42.1465 21.7764C42.2424 21.6805 42.2961 21.5504 42.296 21.4149C42.2959 21.2793 42.2419 21.1494 42.1459 21.0537L42.1138 21.0218C41.7457 20.6536 41.2561 20.4507 40.7352 20.4507C40.5652 20.4507 40.3957 20.473 40.2312 20.5171L35.7022 21.7308C35.0314 21.9105 34.5031 22.4387 34.3237 23.1091C34.3226 23.1133 34.3215 23.1172 34.3205 23.1214L33.1137 28.132L24.1608 37.0848C23.4941 37.7513 23.1271 38.6378 23.1272 39.5807C23.1274 40.5235 23.4946 41.4097 24.1613 42.0765L24.3745 42.2897C25.0412 42.9565 25.9277 43.3237 26.8708 43.3237C27.8135 43.3237 28.6997 42.9567 29.3664 42.2901L38.3193 33.3373L43.3296 32.1306C43.3338 32.1296 43.338 32.1284 43.3421 32.1275C44.0123 31.9479 44.5405 31.4199 44.7204 30.7492L45.934 26.2198C46.1134 25.5494 45.9201 24.8281 45.43 24.3378ZM28.2724 39.623C28.0796 39.8159 27.8232 39.9222 27.5503 39.9222C27.2775 39.9222 27.021 39.8159 26.8281 39.6228C26.6354 39.4303 26.5291 39.1737 26.5291 38.9009C26.529 38.6281 26.6354 38.3714 26.8284 38.1787C27.021 37.986 27.2775 37.8797 27.5503 37.8797C27.8232 37.8797 28.0797 37.986 28.2725 38.1789C28.4652 38.3714 28.5715 38.6279 28.5715 38.9007C28.5715 39.1736 28.4652 39.4302 28.2724 39.623ZM34.291 33.2432L30.0657 37.4686C29.9211 37.6132 29.7287 37.6929 29.5242 37.6929C29.3196 37.6929 29.1272 37.6132 28.9826 37.4686C28.8379 37.3239 28.7582 37.1316 28.7582 36.927C28.7582 36.7223 28.8379 36.53 28.9826 36.3854L33.2079 32.16C33.3526 32.0152 33.5449 31.9357 33.7494 31.9357C33.954 31.9357 34.1464 32.0152 34.291 32.16C34.4357 32.3046 34.5154 32.4969 34.5154 32.7016C34.5154 32.9063 34.4357 33.0986 34.291 33.2432Z" fill="#F56373"/>
</svg>
