<svg width="274" height="68" viewBox="0 0 274 68" fill="none" xmlns="http://www.w3.org/2000/svg">
<path d="M66.2496 9.48023L68.4152 12.3118L71.9794 12.2496L69.1479 14.4152L69.21 17.9794L67.0444 15.1479L63.4802 15.21L66.3117 13.0444L66.2496 9.48023Z" fill="#FCAA17"/>
<path d="M272.782 11.9474L269.611 12.1249L267.872 14.782L267.694 11.6114L265.037 9.87229L268.208 9.69474L269.947 7.03764L270.125 10.2083L272.782 11.9474Z" fill="#F56373"/>
<path d="M4.49935 37.0765L5.67032 40.4434L9.07503 41.4995L5.7081 42.6705L4.65201 46.0752L3.48104 42.7083L0.0763266 41.6522L3.44326 40.4812L4.49935 37.0765Z" fill="#FCAA17"/>
<circle opacity="0.2" cx="253.5" cy="53.5" r="2" stroke="#3E80E2"/>
<circle opacity="0.2" cx="53.5" cy="60.5" r="2" stroke="#3E80E2"/>
<circle opacity="0.2" cx="22.5" cy="2.81982" r="2" stroke="#3E80E2"/>
<circle opacity="0.2" cx="25.5" cy="65.5" r="2" stroke="#3E80E2"/>
</svg>
