<svg width="734" height="531" viewBox="0 0 734 531" fill="none" xmlns="http://www.w3.org/2000/svg">
<path d="M216 75.5L182.776 13.2059C178.605 5.38516 170.463 0.5 161.6 0.5L2.5 0.5" stroke="url(#paint0_linear_206_47)" stroke-linecap="round"/>
<circle cx="375" cy="269" r="146" fill="white"/>
<circle cx="375" cy="269" r="239" stroke="#3E80E2" stroke-linecap="round" stroke-dasharray="10 10"/>
<path d="M533.5 75.5L557.465 15.5866C561.11 6.4748 569.935 0.5 579.749 0.5H728.5" stroke="url(#paint1_linear_206_47)" stroke-linecap="round"/>
<path d="M216 468L183.09 519.011C178.67 525.862 171.075 530 162.923 530H1.5" stroke="url(#paint2_linear_206_47)" stroke-linecap="round"/>
<path d="M120 268.5L0.5 268.5" stroke="url(#paint3_linear_206_47)" stroke-linecap="round"/>
<path d="M630 268.5H733" stroke="url(#paint4_linear_206_47)" stroke-linecap="round"/>
<path d="M536.5 467.5L557.693 515.666C561.526 524.377 570.144 530 579.66 530L733.5 530" stroke="url(#paint5_linear_206_47)" stroke-linecap="round"/>
<circle cx="215.5" cy="75.5" r="5.5" fill="#3E80E2"/>
<circle cx="533.5" cy="75.5" r="5.5" fill="#3E80E2"/>
<circle cx="119.5" cy="268.5" r="5.5" fill="#3E80E2"/>
<circle cx="629.5" cy="268.5" r="5.5" fill="#3E80E2"/>
<circle cx="215.5" cy="467.5" r="5.5" fill="#3E80E2"/>
<circle cx="536.5" cy="467.5" r="5.5" fill="#3E80E2"/>
<path d="M272.106 269.161C273.142 269.404 273.96 269.905 274.559 270.666C275.174 271.427 275.482 272.309 275.482 273.313C275.482 274.786 274.988 275.936 274 276.762C273.029 277.587 271.629 278 269.799 278H261.81V260.831H269.605C271.353 260.831 272.705 261.212 273.66 261.973C274.615 262.734 275.093 263.818 275.093 265.227C275.093 266.263 274.818 267.129 274.267 267.825C273.717 268.505 272.997 268.95 272.106 269.161ZM265.962 267.849H268.682C270.123 267.849 270.843 267.234 270.843 266.004C270.843 264.773 270.107 264.158 268.634 264.158H265.962V267.849ZM268.925 274.625C270.463 274.625 271.232 273.993 271.232 272.73C271.232 272.115 271.03 271.638 270.625 271.298C270.22 270.941 269.645 270.763 268.901 270.763H265.962V274.625H268.925ZM277.286 260.637C277.286 260.006 277.513 259.488 277.966 259.083C278.42 258.662 279.019 258.452 279.763 258.452C280.508 258.452 281.107 258.662 281.56 259.083C282.014 259.488 282.24 260.006 282.24 260.637C282.24 261.252 282.014 261.77 281.56 262.191C281.107 262.596 280.508 262.798 279.763 262.798C279.019 262.798 278.42 262.596 277.966 262.191C277.513 261.77 277.286 261.252 277.286 260.637ZM281.827 264.45V278H277.675V264.45H281.827ZM289.843 264.28C290.879 264.28 291.769 264.514 292.514 264.984C293.259 265.453 293.809 266.093 294.165 266.902V264.45H298.293V277.927C298.293 279.19 298.051 280.323 297.565 281.327C297.079 282.347 296.335 283.156 295.331 283.755C294.327 284.354 293.08 284.654 291.591 284.654C289.551 284.654 287.916 284.168 286.686 283.197C285.472 282.242 284.743 280.938 284.5 279.287H288.604C288.734 279.837 289.025 280.266 289.478 280.574C289.948 280.882 290.555 281.035 291.3 281.035C292.158 281.035 292.846 280.785 293.364 280.283C293.898 279.797 294.165 279.012 294.165 277.927V275.547C293.809 276.357 293.259 276.996 292.514 277.466C291.769 277.935 290.879 278.17 289.843 278.17C288.726 278.17 287.722 277.895 286.831 277.344C285.957 276.778 285.261 275.968 284.743 274.916C284.241 273.864 283.99 272.633 283.99 271.225C283.99 269.8 284.241 268.57 284.743 267.534C285.261 266.481 285.957 265.68 286.831 265.13C287.722 264.563 288.726 264.28 289.843 264.28ZM291.178 267.922C290.288 267.922 289.567 268.214 289.017 268.796C288.483 269.379 288.216 270.189 288.216 271.225C288.216 272.261 288.483 273.07 289.017 273.653C289.567 274.236 290.288 274.527 291.178 274.527C292.052 274.527 292.765 274.228 293.315 273.629C293.882 273.03 294.165 272.229 294.165 271.225C294.165 270.205 293.882 269.404 293.315 268.821C292.765 268.222 292.052 267.922 291.178 267.922ZM320.458 260.953V278H316.306V267.339L312.614 278H309.02L305.305 267.315V278H301.152V260.953H306.228L310.866 272.828L315.407 260.953H320.458ZM328.474 264.28C329.51 264.28 330.4 264.514 331.145 264.984C331.89 265.453 332.44 266.093 332.796 266.902V264.45H336.925V278H332.796V275.547C332.44 276.357 331.89 276.996 331.145 277.466C330.4 277.935 329.51 278.17 328.474 278.17C327.357 278.17 326.353 277.895 325.463 277.344C324.588 276.778 323.892 275.968 323.374 274.916C322.872 273.864 322.621 272.633 322.621 271.225C322.621 269.8 322.872 268.57 323.374 267.534C323.892 266.481 324.588 265.68 325.463 265.13C326.353 264.563 327.357 264.28 328.474 264.28ZM329.809 267.922C328.919 267.922 328.199 268.214 327.648 268.796C327.114 269.379 326.847 270.189 326.847 271.225C326.847 272.261 327.114 273.07 327.648 273.653C328.199 274.236 328.919 274.527 329.809 274.527C330.684 274.527 331.396 274.228 331.946 273.629C332.513 273.03 332.796 272.229 332.796 271.225C332.796 270.205 332.513 269.404 331.946 268.821C331.396 268.222 330.684 267.922 329.809 267.922ZM357.341 264.304C359.008 264.304 360.32 264.822 361.275 265.858C362.23 266.878 362.708 268.303 362.708 270.132V278H358.579V270.618C358.579 269.76 358.345 269.096 357.875 268.626C357.422 268.141 356.799 267.898 356.005 267.898C355.18 267.898 354.524 268.157 354.038 268.675C353.569 269.177 353.334 269.889 353.334 270.812V278H349.182V270.618C349.182 269.76 348.955 269.096 348.502 268.626C348.048 268.141 347.425 267.898 346.632 267.898C345.806 267.898 345.15 268.149 344.665 268.651C344.179 269.153 343.936 269.873 343.936 270.812V278H339.784V264.45H343.936V266.757C344.292 265.996 344.835 265.397 345.563 264.96C346.308 264.522 347.174 264.304 348.162 264.304C349.198 264.304 350.112 264.547 350.906 265.032C351.699 265.502 352.298 266.182 352.703 267.072C353.172 266.23 353.812 265.559 354.621 265.057C355.447 264.555 356.353 264.304 357.341 264.304ZM370.615 264.28C371.651 264.28 372.541 264.514 373.286 264.984C374.031 265.453 374.581 266.093 374.937 266.902V264.45H379.066V278H374.937V275.547C374.581 276.357 374.031 276.996 373.286 277.466C372.541 277.935 371.651 278.17 370.615 278.17C369.498 278.17 368.494 277.895 367.604 277.344C366.729 276.778 366.033 275.968 365.515 274.916C365.013 273.864 364.762 272.633 364.762 271.225C364.762 269.8 365.013 268.57 365.515 267.534C366.033 266.481 366.729 265.68 367.604 265.13C368.494 264.563 369.498 264.28 370.615 264.28ZM371.95 267.922C371.06 267.922 370.34 268.214 369.789 268.796C369.255 269.379 368.988 270.189 368.988 271.225C368.988 272.261 369.255 273.07 369.789 273.653C370.34 274.236 371.06 274.527 371.95 274.527C372.825 274.527 373.537 274.228 374.087 273.629C374.654 273.03 374.937 272.229 374.937 271.225C374.937 270.205 374.654 269.404 374.087 268.821C373.537 268.222 372.825 267.922 371.95 267.922ZM402.036 278H397.884L390.939 267.461V278H386.786V260.831H390.939L397.884 271.468V260.831H402.036V278ZM417.775 270.861C417.775 271.201 417.734 271.573 417.653 271.978H408.255C408.304 272.998 408.563 273.734 409.032 274.187C409.502 274.625 410.101 274.843 410.829 274.843C411.445 274.843 411.955 274.689 412.359 274.382C412.764 274.074 413.031 273.677 413.161 273.192H417.556C417.378 274.147 416.989 275.005 416.39 275.766C415.791 276.511 415.031 277.101 414.108 277.539C413.185 277.96 412.157 278.17 411.024 278.17C409.696 278.17 408.514 277.895 407.478 277.344C406.458 276.778 405.657 275.968 405.074 274.916C404.491 273.864 404.2 272.633 404.2 271.225C404.2 269.8 404.483 268.57 405.05 267.534C405.633 266.481 406.442 265.68 407.478 265.13C408.514 264.563 409.696 264.28 411.024 264.28C412.367 264.28 413.549 264.555 414.569 265.105C415.589 265.656 416.374 266.433 416.925 267.437C417.491 268.424 417.775 269.565 417.775 270.861ZM413.574 270.229C413.59 269.339 413.347 268.675 412.845 268.238C412.359 267.785 411.752 267.558 411.024 267.558C410.263 267.558 409.631 267.785 409.13 268.238C408.628 268.691 408.344 269.355 408.28 270.229H413.574ZM427.613 274.43V278H425.743C424.157 278 422.918 277.611 422.028 276.834C421.154 276.041 420.716 274.738 420.716 272.925V267.946H418.895V264.45H420.716V261.123H424.869V264.45H427.589V267.946H424.869V272.998C424.869 273.532 424.974 273.904 425.185 274.115C425.411 274.325 425.784 274.43 426.302 274.43H427.613ZM449.763 264.45L446.29 278H441.652L439.199 268.918L436.722 278H432.084L428.611 264.45H432.764L434.561 274.212L437.086 264.45H441.506L444.104 274.236L445.901 264.45H449.763ZM457.605 264.28C458.948 264.28 460.146 264.563 461.199 265.13C462.267 265.68 463.101 266.481 463.7 267.534C464.315 268.586 464.623 269.816 464.623 271.225C464.623 272.633 464.315 273.864 463.7 274.916C463.101 275.968 462.267 276.778 461.199 277.344C460.146 277.895 458.948 278.17 457.605 278.17C456.261 278.17 455.055 277.895 453.986 277.344C452.918 276.778 452.076 275.968 451.461 274.916C450.862 273.864 450.562 272.633 450.562 271.225C450.562 269.816 450.862 268.586 451.461 267.534C452.076 266.481 452.918 265.68 453.986 265.13C455.055 264.563 456.261 264.28 457.605 264.28ZM457.605 267.874C456.811 267.874 456.139 268.165 455.589 268.748C455.055 269.314 454.788 270.14 454.788 271.225C454.788 272.309 455.055 273.135 455.589 273.702C456.139 274.268 456.811 274.552 457.605 274.552C458.398 274.552 459.062 274.268 459.596 273.702C460.13 273.135 460.397 272.309 460.397 271.225C460.397 270.14 460.13 269.314 459.596 268.748C459.062 268.165 458.398 267.874 457.605 267.874ZM470.928 266.999C471.446 266.174 472.11 265.518 472.92 265.032C473.745 264.547 474.636 264.304 475.591 264.304V268.748H474.401C473.3 268.748 472.442 268.983 471.827 269.452C471.228 269.922 470.928 270.715 470.928 271.832V278H466.776V264.45H470.928V266.999ZM485.537 278L481.481 272.245V278H477.329V260.03H481.481V269.889L485.537 264.45H490.418L484.954 271.225L490.539 278H485.537Z" fill="#3E80E2"/>
<defs>
<linearGradient id="paint0_linear_206_47" x1="195.596" y1="38" x2="2.99767" y2="38" gradientUnits="userSpaceOnUse">
<stop stop-color="#1D1D1D"/>
<stop offset="1" stop-color="#1D1D1D" stop-opacity="0"/>
</linearGradient>
<linearGradient id="paint1_linear_206_47" x1="709.864" y1="38" x2="533.955" y2="38" gradientUnits="userSpaceOnUse">
<stop stop-color="#1D1D1D" stop-opacity="0"/>
<stop offset="1" stop-color="#1D1D1D"/>
</linearGradient>
<linearGradient id="paint2_linear_206_47" x1="195.5" y1="499" x2="2" y2="499" gradientUnits="userSpaceOnUse">
<stop stop-color="#1D1D1D"/>
<stop offset="1" stop-color="#1D1D1D" stop-opacity="0"/>
</linearGradient>
<linearGradient id="paint3_linear_206_47" x1="108.579" y1="268.5" x2="0.778555" y2="268.5" gradientUnits="userSpaceOnUse">
<stop stop-color="#1D1D1D"/>
<stop offset="1" stop-color="#1D1D1D" stop-opacity="0"/>
</linearGradient>
<linearGradient id="paint4_linear_206_47" x1="723.156" y1="269" x2="630.24" y2="269" gradientUnits="userSpaceOnUse">
<stop stop-color="#1D1D1D" stop-opacity="0"/>
<stop offset="1" stop-color="#1D1D1D"/>
</linearGradient>
<linearGradient id="paint5_linear_206_47" x1="714.434" y1="495.75" x2="534.465" y2="495.75" gradientUnits="userSpaceOnUse">
<stop stop-color="#1D1D1D" stop-opacity="0"/>
<stop offset="1" stop-color="#1D1D1D"/>
</linearGradient>
</defs>
</svg>
