<svg width="277" height="101" viewBox="0 0 277 101" fill="none" xmlns="http://www.w3.org/2000/svg">
<path d="M20.6094 63.4844C12.396 63.4844 5.52627 61.5832 0 57.7807V43.7876C2.12938 45.7649 5.17136 47.4888 9.12593 48.959C12.9284 50.3787 16.5788 51.0884 20.077 51.0884C25.5019 51.0884 28.2143 49.6942 28.2143 46.9057C28.2143 45.7901 27.5299 44.751 26.161 43.7876C25.8568 43.5343 24.7161 43.078 22.7388 42.4187L17.9477 40.9738L14.0691 39.8331L10.5709 38.4642C8.99917 37.8558 7.83309 37.2982 7.07259 36.7911C4.33482 34.763 2.61102 33.1407 1.90123 31.9239C0.633734 29.4903 0 26.8794 0 24.0908C0 19.0208 1.85052 15.0918 5.55161 12.3032C9.30336 9.5147 14.424 8.12048 20.9136 8.12048C27.4031 8.12048 33.4109 9.59075 38.9373 12.5313V25.6879C36.5545 24.2177 33.7407 23.0009 30.4958 22.0375C27.1496 21.0236 24.0063 20.5165 21.0657 20.5165C16.4013 20.5165 14.0691 21.6825 14.0691 24.0148C14.0691 25.0287 14.8043 25.84 16.2746 26.4484L18.7081 27.2849C19.2658 27.4878 20.4573 27.8425 22.2825 28.3496C24.1077 28.8567 25.3498 29.2114 26.0089 29.4143C31.0789 31.0874 35.084 33.1915 38.0247 35.7264C40.9146 38.2108 42.3595 41.7595 42.3595 46.3733C42.3595 51.5447 40.3314 55.7021 36.2756 58.8454C32.2702 61.9382 27.0482 63.4844 20.6094 63.4844ZM63.1773 38.236V62.4197H49.7166V9.18517H63.1773V28.1215C66.5235 24.5724 70.4276 22.798 74.8889 22.798C79.1477 22.798 82.4939 24.2429 84.9275 27.1328C87.4119 29.9719 88.6539 33.8252 88.6539 38.6923V62.4197H75.1931V41.202C75.1931 39.0218 74.6864 37.4247 73.6722 36.4108C72.6583 35.3462 71.3146 34.8138 69.6415 34.8138C67.0054 34.8138 64.8504 35.9545 63.1773 38.236ZM110.328 63.4084C106.069 63.4084 102.698 61.9887 100.213 59.1496C97.7798 56.2597 96.563 52.3812 96.563 47.514V23.7866H110.024V45.0044C110.024 47.1846 110.531 48.8069 111.545 49.8716C112.559 50.8855 113.902 51.3926 115.575 51.3926C118.212 51.3926 120.366 50.2518 122.04 47.9703V23.7866H135.5V62.4197H122.04V58.0849C118.693 61.634 114.79 63.4084 110.328 63.4084ZM158.239 62.4197H144.778V9.18517H158.239V37.4755L169.723 23.7866H185.617L170.331 41.1259L188.126 62.4197H171.32L158.239 46.4494V62.4197ZM207.323 63.6331C202.221 63.6331 198.052 62.1708 194.817 59.2464C191.643 56.3842 190.057 52.5886 190.057 47.8597C190.119 42.8197 192.017 38.9931 195.75 36.3797C199.483 33.7042 203.746 32.4286 208.537 32.5531C213.203 32.5531 217.217 33.362 220.577 34.9797V34.3264C220.577 30.9042 219.27 28.7575 216.657 27.8864C214.603 27.1397 212.239 26.7664 209.563 26.7664C204.523 26.7664 199.919 27.9175 195.75 30.2197V17.2464C200.603 14.9442 206.546 13.7931 213.577 13.7931C220.483 13.7931 226.115 15.5353 230.47 19.0197C234.763 22.442 236.91 27.0775 236.91 32.9264V47.2997C236.91 48.9797 237.843 49.8197 239.71 49.8197C240.83 49.8197 241.732 49.6331 242.417 49.2597V61.0197C240.301 62.6375 237.501 63.4464 234.017 63.4464C228.417 63.4464 224.559 61.642 222.443 58.0331C218.648 61.7664 213.608 63.6331 207.323 63.6331ZM212.923 52.5264C216.221 52.5264 218.772 51.1575 220.577 48.4197V43.4731C218.772 42.1042 216.47 41.4197 213.67 41.4197C211.555 41.4197 209.781 41.9486 208.35 43.0064C206.981 44.0642 206.297 45.4331 206.297 47.1131C206.297 48.7308 206.919 50.0375 208.163 51.0331C209.408 52.0286 210.995 52.5264 212.923 52.5264ZM263.728 62.4197H250.267V23.7866H263.728V62.4197ZM256.959 20.2884C254.83 20.2884 253.005 19.5531 251.484 18.0829C250.013 16.562 249.278 14.7115 249.278 12.5313C249.278 10.3512 250.013 8.52606 251.484 7.05579C253.005 5.5348 254.83 4.77431 256.959 4.77431C259.139 4.77431 260.964 5.5348 262.435 7.05579C263.956 8.52606 264.716 10.3512 264.716 12.5313C264.716 14.7115 263.956 16.562 262.435 18.0829C260.964 19.5531 259.139 20.2884 256.959 20.2884Z" fill="#FFDE2D"/>
<path d="M243.582 11.6264C228.35 -3.61211 203.38 -3.61211 187.898 11.6264C172.666 26.8649 172.666 51.8461 187.898 67.3346C201.631 81.074 222.856 82.5728 238.089 71.8312C238.338 73.3301 239.088 74.8289 240.336 76.0779L262.56 98.3113C265.806 101.559 271.05 101.559 274.296 98.3113C277.542 95.0636 277.542 89.8176 274.296 86.5699L252.072 64.3369C250.824 63.0876 249.325 62.3382 247.827 62.0882C258.564 46.6001 257.066 25.3661 243.582 11.6264ZM236.341 60.3398C224.854 71.8312 206.376 71.8312 194.89 60.3398C183.403 48.8484 183.403 30.3622 194.89 18.8711C206.376 7.37962 224.854 7.37962 236.341 18.8711C247.827 30.1126 247.827 48.8484 236.341 60.3398Z" fill="url(#paint0_linear)"/>
<defs>
<linearGradient id="paint0_linear" x1="226.602" y1="0.197518" x2="226.602" y2="100.747" gradientUnits="userSpaceOnUse">
<stop stop-color="#6F97FF"/>
<stop offset="1" stop-color="#326CFF"/>
</linearGradient>
</defs>
</svg>
