<svg width="48" height="48" viewBox="0 0 48 48" fill="none" xmlns="http://www.w3.org/2000/svg">
<circle cx="24" cy="24" r="24" fill="url(#paint0_linear)"/>
<path d="M27.726 15.5074C24.3836 12.1642 18.9041 12.1642 15.5068 15.5074C12.1644 18.8507 12.1644 24.3314 15.5068 27.7295C18.5205 30.7439 23.1781 31.0727 26.5205 28.716C26.5753 29.0449 26.7397 29.3737 27.0137 29.6477L31.8904 34.5256C32.6027 35.2381 33.7534 35.2381 34.4658 34.5256C35.1781 33.8131 35.1781 32.6622 34.4658 31.9497L29.589 27.0718C29.3151 26.7978 28.9863 26.6333 28.6575 26.5785C31.0137 23.1805 30.6849 18.5218 27.726 15.5074ZM26.137 26.1949C23.6164 28.716 19.5616 28.716 17.0411 26.1949C14.5205 23.6737 14.5205 19.618 17.0411 17.0968C19.5616 14.5757 23.6164 14.5757 26.137 17.0968C28.6575 19.5632 28.6575 23.6737 26.137 26.1949Z" fill="white"/>
<defs>
<linearGradient id="paint0_linear" x1="24" y1="-1.52588e-05" x2="24" y2="48" gradientUnits="userSpaceOnUse">
<stop offset="0.265625" stop-color="#7CA1FF"/>
<stop offset="1" stop-color="#326CFF"/>
</linearGradient>
</defs>
</svg>
