<svg width="555" height="476" viewBox="0 0 555 476" fill="none" xmlns="http://www.w3.org/2000/svg">
<path d="M547.444 226.809C552.01 233.571 552.01 242.429 547.444 249.191L422.197 434.698C418.479 440.206 412.267 443.507 405.622 443.507L149.378 443.507C142.733 443.507 136.521 440.206 132.803 434.698L7.55584 249.191C2.99022 242.429 2.99022 233.571 7.5559 226.809L132.803 41.3015C136.521 35.7937 142.733 32.4927 149.378 32.4927L405.622 32.4927C412.267 32.4927 418.479 35.7937 422.197 41.3015L547.444 226.809Z" fill="#FF4D54"/>
<path d="M530.292 226.809C534.857 233.571 534.857 242.429 530.292 249.191L413.621 421.996C409.902 427.504 403.691 430.805 397.045 430.805L157.955 430.805C151.309 430.805 145.097 427.504 141.379 421.996L24.7082 249.191C20.1426 242.429 20.1426 233.571 24.7082 226.809L141.379 54.0039C145.098 48.4961 151.309 45.1951 157.955 45.1951L397.045 45.1952C403.691 45.1952 409.902 48.4961 413.621 54.0039L530.292 226.809Z" fill="#FF000A"/>
<g clip-path="url(#clip0_135_510)">
<path d="M739.103 31.0674C739.773 32.219 740.348 33.4161 740.859 34.7012C741.951 37.4644 742.544 40.4126 742.814 43.801C743.283 49.9308 742.401 56.3742 741.314 62.9739C740.515 67.9017 739.574 74.26 739.321 80.3423C739.02 86.9015 739.631 92.0548 741.034 96.0863C741.369 97.1162 741.874 98.1204 742.426 99.1018C742.484 99.1869 742.573 99.3145 742.584 99.4223C744.187 102.108 746.126 104.008 748.005 105.822C749.749 107.532 751.435 109.156 752.821 111.437C753.754 112.971 754.541 114.747 755.105 116.745C755.61 118.657 756.015 120.788 756.138 123.055C756.466 127.437 756.037 132.356 754.932 137.205C753.722 142.445 751.877 147.765 750.114 152.933L749.791 153.827C748.457 157.708 747.035 161.916 745.813 166.14C743.21 175.176 741.382 184.972 740.265 196.071C739.647 202.443 739.47 207.637 739.769 212.43C740.168 218.367 741.348 223.528 743.286 228.152C744.155 230.229 745.165 232.237 746.269 234.2C749.411 239.66 753.293 244.648 757.398 249.869C758.772 251.587 760.158 253.414 761.544 255.24C764.022 258.467 765.737 261.497 766.899 264.453C767.522 266.081 768.021 267.712 768.291 269.284C768.573 270.964 768.655 272.627 768.508 274.231C768.102 278.457 766.363 282.478 763.249 286.142C760.488 289.409 756.688 292.441 751.93 295.086C746.872 297.932 741.245 300.316 735.806 302.609C730.554 304.811 725.162 307.081 720.498 309.68C715.552 312.416 711.188 315.721 706.788 320.065C702.229 324.542 698.041 329.919 694.304 336.042C690.844 341.747 687.824 348.091 685.28 354.942C684.757 356.273 684.34 357.667 683.893 359.019C683.376 360.631 682.906 362.221 682.483 363.788C681.143 368.296 679.921 372.521 677.736 376.53C675.668 380.256 672.654 383.702 668.818 386.865C665.206 389.806 660.847 392.484 655.854 394.788C651.096 396.978 645.827 398.791 640.247 400.245C634.808 401.63 629.122 402.566 623.389 403.072C615.771 403.752 607.865 403.834 600.235 403.953C594.579 404.024 588.723 404.078 583.043 404.388C577.657 404.669 572.324 405.208 567.231 405.914C562.044 406.666 556.928 407.61 552.035 408.788C547.096 409.987 542.209 411.446 537.515 413.094C532.775 414.765 528.117 416.736 523.7 418.875C515.459 422.922 507.699 427.758 501.284 431.999C500.292 432.65 499.299 433.301 498.353 433.929C485.906 442.056 473.018 450.453 458.369 454.027C449.217 456.301 439.062 456.848 425.552 455.897C423.032 455.698 420.56 455.477 418.486 455.289C401.594 453.705 386.481 451.431 370.464 449.026C360.056 447.482 349.313 445.815 338.007 444.422C332.867 443.789 327.693 442.832 322.13 441.496C317.226 440.294 312.175 438.881 306.66 437.067C296.405 433.746 286.161 429.624 276.235 425.689C268.118 422.468 259.743 419.145 251.385 416.21C242.023 412.911 233.647 410.495 225.847 408.823C219.363 407.422 212.925 406.453 206.717 405.542C198.042 404.237 189.825 403.051 181.725 400.672C176.416 399.157 171.047 397.102 165.802 394.59C160.875 392.265 155.918 389.443 150.972 386.275C142.245 380.625 133.652 373.718 124.532 365.136C123.322 364.019 121.947 362.755 120.514 361.405C115.299 356.665 108.845 350.766 103.694 344.576C101.31 341.757 99.413 339.1 98.033 336.646C97.7863 336.198 97.5397 335.75 97.3224 335.344C95.6605 332.119 94.8973 329.197 95.0914 326.662C95.2033 324.735 95.8613 323.054 96.4724 321.396C96.8661 320.24 97.3067 319.062 97.5947 317.844C98.0472 315.866 98.0122 313.726 97.5484 311.51C96.9321 308.346 95.3818 305.01 93.1619 301.884C91.0008 298.844 88.2757 296.077 85.2393 293.858C80.3998 290.298 72.7586 286.676 65.2466 283.332C58.3101 280.277 51.6792 276.393 45.5006 271.892C39.3221 267.392 33.6428 262.252 28.598 256.578C22.7663 250.037 18.7202 242.631 14.3981 234.734C10.6573 227.861 6.74044 220.733 1.45494 213.984C0.274509 212.455 -0.952894 210.95 -2.12159 209.529C-4.63515 206.432 -7.20746 203.251 -9.46844 199.975C-12.023 196.274 -13.9081 192.816 -15.1646 189.451C-16.5915 185.658 -17.3898 181.504 -17.5186 177.139C-17.6121 173.098 -17.1123 168.826 -16.0956 164.304C-14.1568 159.846 -11.5894 155.027 -7.99402 148.973C-7.07754 147.394 -6.11406 145.792 -5.19759 144.213C5.81772 125.655 17.2384 106.503 25.5519 86.7553C29.9819 76.0965 33.1666 66.2677 35.2176 56.704C36.3342 51.5091 37.1278 46.3004 37.5454 41.2737C37.9866 36.0086 38.0753 30.6871 37.7411 25.5703C37.6414 23.9726 37.5418 22.3748 37.4245 20.8424C36.6681 9.57305 35.8648 -2.12764 38.797 -13.1397C40.6187 -20.0381 43.8441 -26.5378 48.4674 -32.4657C52.7675 -37.9534 58.2541 -42.9938 64.8919 -47.4565C66.801 -48.7782 68.7512 -49.9495 70.6838 -51.0555C75.1774 -53.6286 80.417 -55.9386 86.7785 -58.1674C92.4233 -60.1627 98.397 -61.8632 104.23 -63.4955C107.901 -64.5352 111.666 -65.6204 115.325 -66.7679C118.221 -67.6592 124.324 -69.5358 130.715 -72.6303C138.028 -76.1145 144.196 -80.3497 148.984 -85.222C152.573 -88.8329 155.598 -93.079 157.884 -97.7614C160.199 -102.401 161.838 -107.565 162.796 -113.081C163.26 -115.86 163.484 -118.806 163.443 -122.135C163.426 -124.794 163.232 -127.709 162.845 -131.267C162.798 -131.699 162.781 -132.088 162.687 -132.496C161.959 -139.636 161.132 -147.011 163.259 -153.377C164.27 -156.363 165.603 -158.428 167.565 -159.946C171.06 -162.603 176.253 -163.528 183.066 -162.74C187.178 -162.234 191.565 -161.236 196.945 -159.528C207.141 -156.291 216.733 -152.478 228.174 -147.801C231.41 -146.474 234.876 -145.087 238.294 -144.131C242.123 -143.034 245.389 -142.572 248.32 -142.685C250.388 -142.778 252.402 -143.129 254.441 -143.719C257.677 -144.662 260.397 -146.262 262.993 -148.768C265.302 -150.965 267.211 -153.649 269.279 -156.466C271.106 -158.997 273.027 -161.573 275.347 -164.115C278.003 -166.99 280.793 -169.306 283.953 -171.177C286.25 -172.573 288.799 -173.694 291.713 -174.65C294.221 -175.467 297.017 -176.14 300.241 -176.737C304.365 -177.484 308.758 -178.022 312.982 -178.535C322.603 -179.674 332.535 -180.908 341.076 -184.703C345.863 -186.85 349.993 -189.588 354.011 -192.214C359.292 -195.736 364.273 -199.056 370.305 -200.672C372.949 -201.384 375.656 -201.73 378.382 -201.687C382.617 -201.638 386.934 -200.833 391.116 -199.226C394.98 -197.805 398.821 -195.692 402.627 -192.994C409.141 -188.372 415.513 -181.865 421.579 -173.621C422.654 -172.154 423.729 -170.688 424.803 -169.222C429.631 -162.592 434.681 -155.729 440.748 -149.755C444.847 -145.723 449.211 -142.217 453.798 -139.387C458.655 -136.346 463.889 -133.942 469.269 -132.234C472.393 -131.249 475.741 -130.486 479.083 -130.004C482.378 -129.5 485.791 -129.279 489.227 -129.297C492.54 -129.312 495.952 -129.545 499.265 -130.014C502.578 -130.483 505.82 -131.145 508.963 -132.042C510.737 -132.56 512.605 -133.124 514.349 -133.685C519.348 -135.254 524.517 -136.849 529.745 -137.45C534.802 -138.026 539.642 -137.645 544.217 -137.193C549.515 -136.693 554.238 -136.028 558.649 -135.269C567.576 -133.689 575.77 -131.356 583 -128.329C591.552 -124.751 598.852 -120.169 604.567 -114.706C607.491 -111.922 610.158 -108.786 612.624 -105.212C613.769 -103.553 614.82 -101.849 615.825 -100.121C618.514 -95.4072 620.752 -90.5309 622.959 -85.697C623.188 -85.1836 623.417 -84.6701 623.646 -84.1566C633.142 -63.4965 644.182 -42.0519 660.661 -25.1709C667.955 -17.6915 677.059 -10.407 688.617 -2.83549C699.271 4.15227 710.865 10.685 720.92 16.26C721.208 16.4044 721.496 16.5489 721.766 16.7586C724.291 18.1467 726.923 19.5971 729.272 21.184C731.938 22.9579 734.035 24.7239 735.773 26.6066C737.042 27.8086 738.175 29.3599 739.103 31.0674ZM742.379 99.1245C741.827 98.1431 741.369 97.1162 740.987 96.1091C739.584 92.0776 739.02 86.9015 739.274 80.3651C739.527 74.2828 740.485 67.8591 741.267 62.9967C742.325 56.3544 743.236 49.9536 742.767 43.8238C742.527 40.4779 741.857 37.5099 740.812 34.724C739.667 31.7026 737.929 28.9117 735.732 26.4562C734.07 24.5933 731.897 22.8075 729.231 21.0336C726.835 19.4694 724.25 17.9963 721.725 16.6082C721.437 16.4638 721.149 16.3193 720.879 16.1096C710.853 10.5771 699.26 4.04444 688.576 -2.98586C677.065 -10.5801 667.914 -17.8419 660.62 -25.3212C651.405 -34.7654 643.918 -45.6134 637.388 -56.9818C632.255 -65.9619 627.763 -75.1953 623.576 -84.3495C623.347 -84.863 623.118 -85.3765 622.889 -85.8899C620.71 -90.6812 618.444 -95.6002 615.754 -100.314C614.75 -102.042 613.699 -103.746 612.554 -105.405C610.058 -109.021 607.468 -112.138 604.496 -114.899C598.735 -120.339 591.481 -124.944 582.93 -128.522C575.67 -131.591 567.477 -133.924 558.578 -135.462C554.167 -136.221 549.445 -136.886 544.147 -137.385C539.618 -137.86 534.778 -138.241 529.674 -137.643C524.446 -137.042 519.277 -135.447 514.279 -133.878C512.534 -133.317 510.666 -132.753 508.892 -132.235C505.75 -131.338 502.508 -130.676 499.195 -130.207C495.882 -129.738 492.469 -129.505 489.157 -129.49C485.72 -129.472 482.355 -129.716 479.013 -130.197C475.594 -130.699 472.323 -131.442 469.198 -132.427C463.771 -134.112 458.585 -136.539 453.728 -139.58C449.111 -142.453 444.748 -145.959 440.678 -149.948C434.582 -155.964 429.607 -162.807 424.733 -169.415C423.688 -170.839 422.584 -172.347 421.509 -173.814C415.425 -181.992 409.053 -188.499 402.586 -193.144C398.78 -195.842 394.939 -197.955 391.074 -199.376C386.875 -200.919 382.605 -201.746 378.341 -201.838C375.692 -201.861 372.984 -201.514 370.294 -200.779C364.261 -199.164 359.28 -195.844 353.999 -192.322C350.011 -189.653 345.881 -186.916 341.064 -184.81C332.477 -180.993 322.562 -179.825 312.97 -178.643C308.747 -178.13 304.353 -177.592 300.23 -176.844C297.005 -176.248 294.209 -175.575 291.701 -174.758C288.787 -173.801 286.238 -172.681 283.941 -171.285C280.81 -169.371 277.991 -167.098 275.336 -164.223C273.015 -161.681 271.094 -159.105 269.267 -156.574C267.199 -153.756 265.261 -151.115 262.982 -148.876C260.385 -146.37 257.665 -144.77 254.429 -143.827C252.391 -143.237 250.376 -142.886 248.308 -142.793C245.377 -142.679 242.112 -143.142 238.282 -144.239C234.911 -145.217 231.446 -146.604 228.162 -147.909C216.721 -152.586 207.13 -156.399 196.933 -159.635C191.553 -161.344 187.166 -162.341 183.054 -162.848C176.288 -163.658 171.095 -162.733 167.6 -160.076C165.638 -158.559 164.305 -156.494 163.294 -153.507C161.214 -147.165 161.965 -139.809 162.693 -132.669C162.74 -132.238 162.757 -131.849 162.851 -131.441C163.209 -127.924 163.402 -125.01 163.449 -122.308C163.46 -119.022 163.266 -116.033 162.802 -113.254C161.844 -107.739 160.205 -102.574 157.919 -97.8919C155.587 -93.1868 152.579 -89.006 149.019 -85.3525C144.202 -80.5228 138.064 -76.2451 130.703 -72.7381C124.283 -69.6862 118.257 -67.7898 115.314 -66.8757C111.654 -65.7282 107.86 -64.6856 104.218 -63.6033C98.4616 -61.9513 92.4409 -60.228 86.7667 -58.2752C80.4523 -56.0692 75.1657 -53.7365 70.672 -51.1633C68.7865 -50.0801 66.8186 -48.8435 64.8802 -47.5643C58.2894 -43.1244 52.7558 -38.0612 48.4556 -32.5736C43.8323 -26.6457 40.607 -20.1459 38.7853 -13.2475C35.8824 -2.19291 36.6564 9.46518 37.4127 20.7345C37.483 22.2897 37.6121 23.93 37.7294 25.4625C38.0166 30.602 37.9748 35.9008 37.5337 41.1659C37.1161 46.1926 36.3225 51.4013 35.2059 56.5962C33.1842 66.2024 29.9996 76.0312 25.5226 86.7128C17.256 106.438 5.8647 125.632 -5.22696 144.171C-6.14344 145.75 -7.10692 147.351 -8.02339 148.93C-11.6188 154.985 -14.1861 159.804 -16.125 164.261C-17.171 168.741 -17.6884 173.078 -17.5479 177.097C-17.4192 181.462 -16.6502 185.573 -15.2234 189.366C-13.9374 192.774 -12.0818 196.189 -9.52717 199.89C-7.26619 203.165 -4.66452 206.39 -2.18032 209.444C-0.982261 210.907 0.245142 212.413 1.39621 213.899C6.68171 220.648 10.5223 227.756 14.3393 234.649C15.6313 236.975 16.8468 239.281 18.1564 241.542C21.2101 246.874 24.4283 251.9 28.5099 256.451C33.5254 262.082 39.234 267.264 45.3832 271.722C51.5618 276.223 58.1927 280.107 65.1291 283.162C72.6705 286.549 80.3117 290.171 85.1512 293.73C88.1876 295.949 90.942 298.759 93.0738 301.757C95.3231 304.925 96.797 308.241 97.4603 311.382C97.9241 313.598 97.9121 315.761 97.5066 317.717C97.248 318.977 96.8073 320.155 96.4136 321.311C95.8026 322.969 95.1915 324.627 95.0327 326.577C94.8386 329.111 95.6018 332.034 97.2343 335.217C97.4516 335.622 97.6982 336.07 97.9449 336.519C99.3249 338.972 101.222 341.629 103.606 344.448C108.804 350.616 115.258 356.515 120.426 361.278C121.906 362.604 123.281 363.869 124.444 365.008C133.564 373.59 142.157 380.498 150.884 386.148C155.783 389.338 160.787 392.137 165.714 394.462C171.006 396.951 176.374 399.006 181.637 400.545C189.784 402.901 197.954 404.11 206.629 405.415C212.837 406.325 219.275 407.295 225.759 408.696C233.559 410.368 241.888 412.806 251.297 416.083C259.655 419.017 268.03 422.34 276.147 425.562C286.073 429.496 296.364 433.595 306.572 436.939C312.087 438.753 317.138 440.167 322.042 441.368C327.528 442.685 332.75 443.619 337.919 444.295C349.178 445.711 359.939 447.312 370.376 448.899C386.393 451.303 401.459 453.6 418.398 455.161C420.472 455.349 422.991 455.548 425.464 455.77C439.003 456.763 449.129 456.174 458.281 453.899C472.977 450.303 485.818 441.928 498.265 433.801C499.211 433.173 500.25 432.499 501.196 431.871C507.687 427.65 515.417 422.772 523.612 418.747C528.076 416.586 532.687 414.637 537.474 412.943C542.167 411.295 547.054 409.837 551.994 408.637C556.887 407.46 561.974 406.473 567.19 405.763C572.282 405.057 577.616 404.518 583.002 404.237C588.682 403.928 594.538 403.873 600.194 403.802C607.824 403.684 615.73 403.602 623.348 402.921C629.081 402.416 634.738 401.437 640.206 400.094C645.816 398.684 651.055 396.828 655.766 394.66C660.759 392.356 665.071 389.701 668.73 386.737C672.566 383.574 675.58 380.129 677.601 376.426C679.816 372.458 681.038 368.234 682.377 363.726C682.83 362.201 683.271 360.569 683.788 358.956C684.234 357.605 684.698 356.188 685.174 354.879C687.671 348.051 690.738 341.685 694.199 335.98C697.888 329.88 702.123 324.48 706.682 320.003C711.082 315.659 715.446 312.353 720.392 309.618C725.056 307.019 730.449 304.749 735.7 302.547C741.139 300.254 746.813 297.847 751.824 295.023C756.582 292.379 760.383 289.347 763.097 286.103C766.21 282.438 767.949 278.418 768.355 274.192C768.896 268.254 766.641 262.08 761.42 255.243C760.034 253.417 758.631 251.656 757.274 249.872C751.707 242.805 746.498 236.076 743.162 228.155C741.225 223.531 740.045 218.37 739.646 212.433C739.347 207.64 739.447 202.426 740.141 196.074C741.258 184.975 743.086 175.179 745.689 166.143C746.912 161.918 748.334 157.711 749.667 153.83L749.991 152.936C751.783 147.811 753.581 142.513 754.809 137.208C755.914 132.359 756.296 127.463 756.044 123.101C755.921 120.833 755.516 118.702 755.011 116.79C754.5 115.051 753.878 113.422 753.061 112.058C752.944 111.888 752.844 111.652 752.727 111.482C751.294 109.225 749.655 107.577 747.911 105.868C746.032 104.053 744.093 102.154 742.49 99.4678C742.496 99.2947 742.437 99.2096 742.379 99.1245Z" stroke="white" stroke-opacity="0.3"/>
<path d="M607.661 37.686C607.771 37.845 607.864 38.0651 607.974 38.2242C612.986 47.5224 610.453 57.6084 608.004 67.3892C607.767 68.4054 607.487 69.443 607.251 70.4593C606.213 74.7287 605.158 81.1815 606.036 87.5473C606.453 90.5286 607.254 93.2177 608.429 95.5139C608.577 95.8135 608.697 96.0734 608.89 96.3517C610.169 98.5443 611.733 100.386 613.699 101.875C616.647 104.108 620.149 105.277 623.51 106.409C623.894 106.542 624.349 106.692 624.761 106.864C627.067 107.658 629.669 108.626 632.036 110.186C633.825 111.336 635.489 112.811 636.883 114.577C638.195 116.223 639.354 118.156 640.276 120.256C641.143 122.276 641.791 124.403 642.218 126.636C642.619 128.83 642.789 131.029 642.8 133.252C642.651 140.168 640.767 146.863 638.921 153.274C638.416 155.004 637.938 156.774 637.46 158.544C635.895 164.342 634.845 170.208 634.263 175.902C633.224 186.114 633.689 196.552 635.67 206.893C637.64 217.134 641.109 227.338 645.999 237.226L646.054 237.305C647.24 239.702 648.481 242.178 649.304 244.645C650.248 247.371 650.61 249.848 650.418 252.117C650.214 254.284 649.572 256.24 648.44 258.167C647.402 259.89 646.008 261.52 644.196 263.14C640.736 266.194 636.388 268.724 631.731 271.403C626.751 274.292 621.551 277.287 617.653 280.978C616.878 281.725 616.176 282.489 615.561 283.212C614.045 285.007 612.809 287.037 611.783 289.285C610.893 291.308 610.184 293.507 609.695 296.025C608.701 300.698 608.47 305.797 608.217 310.694C607.914 317.048 607.606 323.564 605.705 329.471C604.025 334.847 601.142 339.586 597.144 343.643C593.311 347.515 588.375 350.807 582.527 353.373C577.674 355.511 572.046 357.122 565.787 358.242C560.323 359.243 554.284 359.832 547.926 360.046C540.646 360.282 533.19 360.178 525.981 360.008C517.503 359.868 508.724 359.715 500.285 360.14C495.712 360.392 491.61 360.733 487.69 361.252C483.292 361.842 479.262 362.626 475.397 363.649C469.236 365.252 463.241 367.519 457.42 369.7C452.023 371.73 446.406 373.866 440.795 375.416C437.742 376.257 434.986 376.849 432.235 377.279C429.166 377.757 426.25 377.948 423.313 377.938C417.943 377.885 412.486 377.026 407.232 376.121C403.108 375.412 398.826 374.727 394.631 374.423C389.646 374.078 384.282 374.288 378.193 375.061C372.812 375.756 367.332 376.818 362.056 377.834C353.749 379.469 345.167 381.13 336.503 381.399C328.026 381.684 319.675 380.793 311.006 378.677C307.064 377.721 303.072 376.523 298.861 375.008C295.035 373.624 291.071 372.042 286.728 370.166C280.925 367.617 275.078 364.665 269.385 361.851C259.091 356.702 248.413 351.421 237.63 347.941C234.78 347.039 231.942 346.238 229.241 345.636C221.252 343.827 213.11 343.154 205.154 342.496C198.692 341.964 192.043 341.417 185.444 340.262C180.118 339.339 174.623 337.914 169.012 336.069C163.999 334.41 158.855 332.392 153.337 329.917C143.125 325.312 133.43 319.926 124.058 314.754L122.999 314.153C119.183 312.022 113.419 308.765 107.78 305.181C105.469 303.701 103.624 302.472 101.966 301.259C99.9845 299.831 98.3156 298.517 96.8773 297.197C93.4955 294.166 91.3216 291.186 90.2019 288.121C89.7683 286.898 89.6697 285.567 89.9773 284.144C90.3563 282.316 91.3448 280.777 92.3498 279.176C93.0197 278.109 93.6897 277.042 94.2334 275.876C96.15 271.606 95.5192 266.871 94.663 263.678C94.1527 261.75 93.3787 259.95 92.4016 258.195C92.2534 257.895 92.0338 257.577 91.8417 257.299C90.5846 255.308 89.0749 253.545 87.2688 252.032C85.5065 250.498 82.6407 248.809 78.858 246.979C75.6133 245.42 71.8361 243.854 67.9106 242.412C64.6384 241.237 61.5145 239.938 58.5773 238.655C52.917 236.143 47.6574 233.278 42.9525 230.198C37.9236 226.903 33.5262 223.249 29.7822 219.438C27.8117 214.291 26.2202 208.165 24.9747 201.181C23.7786 194.439 22.9889 186.757 22.5287 178.279C22.5013 177.815 22.4903 177.29 22.4629 176.826C22.2218 172.91 22.0136 168.873 22.2118 164.745L22.4259 164.376C23.1014 163.147 23.7934 161.857 24.4579 160.527C24.8423 159.811 25.1992 159.054 25.6001 158.276C27.7913 153.979 30.0759 149.478 33.3816 145.012C36.2646 141.123 39.7404 137.583 43.0955 134.208C46.2144 131 49.4651 127.729 52.2218 124.166C53.8032 122.127 55.3353 119.846 56.6973 117.489C57.9823 115.275 59.174 112.842 60.2394 110.31C62.1342 105.838 63.716 100.828 65.1222 95.0536C66.4461 89.5848 67.3911 83.8219 68.3306 78.2208C69.6108 70.651 70.8855 62.8186 73.088 55.6511C74.2853 51.7821 75.6089 48.4355 77.2399 45.3645C79.0412 41.9458 81.1005 38.9858 83.4672 36.3014C85.1584 34.4214 87.0309 32.719 89.0131 31.1757C90.8031 29.7785 92.8183 28.5375 95.064 27.2911C97.0736 26.2119 99.2535 25.2096 101.708 24.1804C106.336 22.3107 111.273 20.7166 116.033 19.2075C122.133 17.262 128.48 15.2499 134.158 12.6072C140.055 9.85805 144.629 6.63544 148.143 2.81176C150.252 0.51755 152.113 -2.13451 153.623 -5.0409C155.024 -7.68189 156.177 -10.6808 157.122 -13.8969C158.643 -19.2492 159.511 -25.2933 159.946 -32.9842C160.133 -36.7885 160.364 -41.0386 161.402 -44.8836C162.572 -49.2168 164.665 -52.2989 167.729 -54.3129C170.897 -56.4305 174.888 -57.3551 179.879 -57.1719C184.453 -56.9989 189.24 -55.9215 193.309 -54.8673C197.992 -53.6863 202.757 -52.386 207.353 -51.1625C211.948 -49.939 216.757 -48.66 221.397 -47.4577C224.224 -46.7577 227.48 -45.9467 230.681 -45.6396C234.184 -45.3196 237.088 -45.6117 239.641 -46.5826C242.793 -47.7902 245.105 -49.7053 246.653 -52.4711C247.851 -54.6424 248.587 -57.227 248.933 -60.6309C249.252 -63.6501 249.23 -66.8228 249.187 -70.1972C249.148 -72.8844 249.143 -75.6938 249.292 -78.3653C249.704 -84.9845 251.39 -89.6738 254.542 -93.0037C257.156 -95.7547 260.555 -97.4533 264.975 -98.267C269.466 -99.0622 274.539 -98.7597 279.338 -98.4304C280.156 -98.349 280.99 -98.3287 281.808 -98.2473C285.959 -97.9226 290.225 -97.6007 294.288 -97.658C298.856 -97.7476 302.634 -98.3032 305.796 -99.4101C308.113 -100.214 310.299 -101.378 312.643 -102.99C314.708 -104.415 316.635 -106.037 318.502 -107.578C321.703 -110.242 325.009 -113.01 329.105 -114.887C332.938 -116.636 337.33 -117.49 342.079 -117.402C346.411 -117.324 351.105 -116.467 355.975 -114.846C360.461 -113.357 365.04 -111.223 369.514 -108.562C373.763 -106.057 377.754 -103.161 381.389 -99.9338C385.429 -96.3726 389.387 -92.5062 393.175 -88.7166C397.941 -84.0208 402.887 -79.1473 408.113 -74.887C410.93 -72.5899 413.614 -70.6535 416.277 -68.9187C419.307 -66.9906 422.25 -65.4443 425.286 -64.1025C427.954 -62.9539 430.787 -61.9912 433.642 -61.2514C436.497 -60.5116 439.374 -59.9946 442.229 -59.6792C445.128 -59.3851 447.978 -59.3323 450.662 -59.5181C453.463 -59.7067 456.142 -60.1552 458.657 -60.8422C459.689 -61.1297 460.738 -61.4783 461.715 -61.8454C464.614 -62.8247 467.557 -63.8252 470.813 -63.4386C472.218 -63.2702 473.657 -62.7995 475.26 -62.0902C476.72 -61.4179 478.104 -60.6023 479.388 -59.8449C490.319 -53.0942 500.47 -45.0109 509.528 -35.7089C511.867 -33.3397 514.129 -30.8272 516.248 -28.3516C519.239 -24.8663 522.094 -21.1553 524.866 -17.5636C529.379 -11.7904 533.985 -5.79714 539.178 -0.565847C541.961 2.27775 544.673 4.67838 547.468 6.77387C550.613 9.12367 553.759 11.049 557.13 12.7062C562.911 15.4777 569.51 17.4818 575.912 19.3693C582.413 21.315 589.155 23.356 594.776 26.1516C597.807 27.6552 600.343 29.2921 602.44 31.1416C604.543 33.2537 606.272 35.3344 607.661 37.686ZM608.846 96.373C608.697 96.0733 608.533 95.8347 608.385 95.5351C607.21 93.239 606.409 90.5499 605.992 87.5686C605.114 81.2027 606.169 74.75 607.207 70.4805C607.443 69.4642 607.723 68.4267 607.96 67.4105C610.409 57.6296 612.898 47.5649 607.93 38.2454C606.563 35.671 604.697 33.3915 602.347 31.3459C600.206 29.5177 597.741 27.8994 594.683 26.356C589.034 23.5206 582.319 21.5194 575.819 19.5736C569.39 17.6464 562.818 15.6821 557.009 12.8708C553.666 11.2534 550.449 9.30955 547.347 6.93848C544.552 4.84299 541.84 2.44233 539.057 -0.401262C533.908 -5.65382 529.258 -11.6258 524.745 -17.399C521.973 -20.9907 519.075 -24.6804 516.127 -28.187C514.008 -30.6626 511.746 -33.1751 509.407 -35.5443C500.349 -44.8463 490.242 -52.9508 479.268 -59.6803C477.983 -60.4377 476.643 -61.2746 475.183 -61.9469C473.58 -62.6562 472.141 -63.1269 470.736 -63.2952C467.524 -63.7031 464.537 -62.6813 461.682 -61.7234C460.677 -61.396 459.629 -61.0475 458.624 -60.7201C456.109 -60.0331 453.43 -59.5846 450.629 -59.396C447.901 -59.189 445.051 -59.2417 442.196 -59.5571C439.341 -59.8725 436.464 -60.3895 433.609 -61.1293C430.754 -61.8692 427.965 -62.8531 425.253 -63.9804C422.173 -65.301 419.203 -66.887 416.244 -68.7966C413.537 -70.5102 410.897 -72.4679 408.08 -74.765C402.854 -79.0253 397.908 -83.8987 393.143 -88.5946C389.338 -92.3232 385.396 -96.2506 381.356 -99.8118C377.678 -103.018 373.686 -105.913 369.481 -108.44C365.007 -111.101 360.455 -113.195 355.942 -114.723C351.073 -116.345 346.422 -117.223 342.046 -117.28C337.297 -117.368 332.949 -116.536 329.072 -114.765C325.02 -112.909 321.714 -110.141 318.469 -107.456C316.602 -105.915 314.675 -104.292 312.61 -102.868C310.31 -101.277 308.053 -100.131 305.763 -99.288C302.601 -98.1812 298.851 -97.5857 294.255 -97.5359C290.192 -97.4786 285.926 -97.8005 281.776 -98.1252C280.957 -98.2066 280.123 -98.2269 279.305 -98.3083C274.479 -98.6774 269.433 -98.9401 264.942 -98.145C260.566 -97.3525 257.123 -95.6326 254.509 -92.8816C251.314 -89.5304 249.644 -84.9022 249.259 -78.2433C249.11 -75.5717 249.115 -72.7624 249.154 -70.0751C249.197 -66.7008 249.219 -63.528 248.9 -60.5088C248.554 -57.1049 247.845 -54.4806 246.648 -52.3093C245.099 -49.5435 242.815 -47.5886 239.636 -46.4208C237.083 -45.4499 234.178 -45.1577 230.675 -45.4777C227.474 -45.7848 224.219 -46.5959 221.391 -47.2959C216.752 -48.4982 211.97 -49.7374 207.347 -51.0007C202.752 -52.2242 197.942 -53.5032 193.303 -54.7054C189.235 -55.7597 184.447 -56.8371 179.874 -57.0101C174.883 -57.1933 170.891 -56.2687 167.723 -54.1511C164.615 -52.1159 162.594 -49.0153 161.397 -44.7218C160.331 -40.9165 160.128 -36.6267 159.941 -32.8224C159.55 -25.1527 158.665 -19.0476 157.144 -13.6954C156.199 -10.4792 155.046 -7.4803 153.673 -4.79954C152.162 -1.89315 150.301 0.758901 148.192 3.05311C144.634 6.89806 140.06 10.1207 134.207 12.8485C128.513 15.5523 122.21 17.5431 116.082 19.4489C111.278 20.9792 106.314 22.5335 101.757 24.4217C96.6014 26.5467 92.4339 28.8297 89.0625 31.417C87.0528 32.9206 85.2078 34.6628 83.5166 36.5427C81.1224 39.1874 79.0631 42.1474 77.2893 45.6058C75.7022 48.6556 74.3347 52.0234 73.1813 55.8712C70.9788 63.0387 69.7041 70.8711 68.4239 78.4409C67.4844 84.042 66.5394 89.8049 65.2155 95.2737C63.8093 101.048 62.2275 106.058 60.3327 110.53C59.2673 113.062 58.0756 115.495 56.7906 117.709C55.4561 120.106 53.9405 122.325 52.3151 124.386C49.5585 127.949 46.3352 131.26 43.1888 134.428C39.8612 137.843 36.3853 141.383 33.475 145.232C30.1253 149.719 27.8572 154.16 25.6934 158.497C25.2925 159.274 24.9081 159.991 24.5512 160.747C23.8592 162.037 23.1673 163.327 22.5193 164.596L22.3051 164.965C22.107 169.093 22.3151 173.13 22.5563 177.046C22.5837 177.51 22.5946 178.035 22.622 178.499C23.0822 186.977 23.8993 194.699 25.068 201.401C26.2696 208.406 27.9051 214.511 29.8755 219.658C33.5756 223.49 38.017 227.123 43.0458 230.418C47.7508 233.498 53.0103 236.363 58.6706 238.875C61.6353 240.198 64.7757 241.436 68.0039 242.632C71.9294 244.074 75.7067 245.64 78.9513 247.199C82.734 249.029 85.5559 250.739 87.3621 252.252C89.1243 253.786 90.6779 255.528 91.935 257.519C93.1921 259.51 94.1417 261.65 94.7563 263.898C95.6399 267.131 96.2708 271.866 94.3541 276.136C93.8104 277.301 93.1679 278.408 92.4705 279.436C91.4216 281.058 90.4771 282.576 90.0981 284.404C89.7904 285.826 89.8891 287.158 90.2953 288.341C91.4149 291.406 93.6327 294.365 96.9431 297.377C100.325 300.409 104.536 303.198 107.863 305.301C113.501 308.884 119.266 312.141 123.081 314.273L124.141 314.874C133.54 320.085 143.235 325.471 153.419 330.036C158.937 332.511 164.081 334.53 169.094 336.188C174.705 338.034 180.201 339.458 185.526 340.381C192.126 341.536 198.775 342.084 205.237 342.615C213.121 343.255 221.307 343.907 229.323 345.755C232.024 346.357 234.863 347.158 237.712 348.06C248.522 351.58 259.201 356.861 269.495 362.01C275.188 364.824 281.079 367.755 286.838 370.325C295.875 374.332 303.616 377.056 311.143 378.876C319.812 380.992 328.163 381.883 336.64 381.598C345.348 381.308 353.93 379.646 362.193 378.033C367.47 377.017 372.878 375.937 378.33 375.26C384.375 374.508 389.783 374.277 394.768 374.622C399.007 374.904 403.246 375.611 407.369 376.32C412.639 377.164 418.08 378.084 423.45 378.137C426.387 378.147 429.275 377.916 432.372 377.478C435.123 377.048 437.923 376.435 440.932 375.614C446.543 374.065 452.16 371.929 457.558 369.899C463.378 367.718 469.417 365.43 475.534 363.848C479.399 362.825 483.429 362.041 487.827 361.45C491.748 360.932 495.866 360.529 500.467 360.318C508.949 359.871 517.729 360.024 526.162 360.185C533.387 360.294 540.871 360.438 548.107 360.224C554.465 360.01 560.433 359.402 565.968 358.42C572.227 357.299 577.827 355.649 582.709 353.55C588.556 350.984 593.493 347.693 597.325 343.821C601.323 339.763 604.206 335.025 605.887 329.649C607.743 323.763 608.068 317.186 608.398 310.872C608.651 305.975 608.882 300.876 609.877 296.203C610.409 293.664 611.074 291.485 611.964 289.463C612.963 287.175 614.182 285.205 615.742 283.389C616.401 282.646 617.104 281.881 617.834 281.156C621.733 277.465 626.888 274.491 631.913 271.581C636.569 268.902 640.917 266.372 644.377 263.318C646.233 261.676 647.627 260.046 648.621 258.345C649.753 256.417 650.395 254.462 650.599 252.294C650.791 250.026 650.457 247.588 649.485 244.822C648.662 242.356 647.421 239.88 646.236 237.483L646.181 237.403C641.29 227.516 637.821 217.311 635.851 207.071C633.87 196.73 633.361 186.312 634.444 176.079C635.043 170.325 636.12 164.498 637.685 158.7C638.119 156.952 638.641 155.16 639.146 153.43C640.964 146.979 642.876 140.324 643.025 133.408C643.086 131.204 642.888 128.965 642.444 126.793C642.016 124.559 641.341 122.393 640.501 120.412C639.579 118.312 638.448 116.419 637.136 114.773C635.741 113.008 634.078 111.532 632.288 110.382C629.906 108.883 627.276 107.875 625.014 107.06C624.602 106.888 624.174 106.777 623.762 106.605C620.375 105.434 616.916 104.243 613.924 102.031C611.689 100.408 610.081 98.5868 608.846 96.373Z" stroke="white" stroke-opacity="0.3"/>
<path d="M454.734 11.9397C454.817 12.0593 454.941 12.2387 454.957 12.3903C461.626 25.1174 458.686 39.6257 455.827 53.6153C455.464 55.3869 455.076 57.2504 454.712 59.022C453.399 65.8013 451.862 74.6832 452.134 83.248C452.249 87.5005 452.76 91.5612 453.742 95.1545C454.774 99.2027 456.358 102.903 458.455 106.196C461.558 111.076 465.81 115.32 471.588 119.224C477.639 123.394 484.714 126.75 491.533 129.99C497.287 132.709 503.19 135.516 508.515 138.761C511.421 140.546 513.872 142.31 516.019 144.143C518.503 146.211 520.617 148.379 522.4 150.707C523.456 152.11 524.488 153.605 525.388 155.164C529.044 161.611 530.951 169.225 530.958 177.918C530.949 182.629 530.387 187.688 529.28 192.852C528.231 197.588 526.744 202.457 524.845 207.365C524.605 208.04 524.3 208.746 524.06 209.421C522.26 213.962 520.344 218.72 519.295 223.456C518.139 228.803 518.155 233.423 519.417 237.678C520.647 241.63 522.991 245.282 525.319 248.782C526.408 250.489 527.564 252.163 528.522 253.933C528.563 253.993 528.563 253.993 528.604 254.053C530.197 256.872 531.46 259.85 532.351 262.929C533.647 267.488 534.241 272.306 533.943 277.237C533.67 282.077 532.662 286.873 530.903 291.475C529.185 296.136 526.7 300.451 523.62 304.416C520.449 308.504 516.758 311.966 512.481 314.835C503.482 320.948 492.245 324.714 479.977 325.708C474.115 326.153 468.121 326.023 462.194 325.223C456.266 324.424 450.446 323.014 444.881 321.08C438.227 318.718 431.689 315.501 425.407 312.4C419.529 309.502 413.395 306.488 407.237 304.204C403.901 302.947 400.88 302.017 397.85 301.33C394.498 300.559 391.353 300.088 388.133 299.892C383.204 299.645 378.036 300.074 372.149 301.249C366.981 302.315 361.689 303.841 356.636 305.33C347.711 307.976 338.373 310.662 328.797 310.832C309.469 311.175 301.842 302.422 293.777 293.163C289.254 288.014 284.606 282.685 277.729 278.595C274.056 276.464 268.161 275.968 261.92 275.479C256.24 275.039 250.279 274.574 245.598 272.772C243.097 271.829 241.149 270.538 239.795 268.96C238.21 267.174 237.335 264.885 237.038 262.157C236.857 260.489 236.939 258.694 237.179 256.743C237.468 254.608 238.187 252.585 238.905 250.562C239.888 247.772 240.871 244.983 240.714 241.947C240.508 238.456 238.651 235.127 235.3 232.442C232.939 230.553 229.876 228.925 226.557 227.819C223.28 226.773 219.812 226.219 216.584 226.266C211.061 226.307 205.761 227.438 200.551 228.445C195.688 229.443 190.652 230.445 185.492 230.63C176.691 230.903 167.478 228.662 157.34 223.678C148.416 219.303 139.889 213.459 132.046 207.842C123.906 202.05 117.864 196.36 114.083 191.01C111.665 187.633 110.154 184.296 109.527 181.089C108.826 177.519 109.289 174.104 110.849 170.875C114.549 163.339 123.449 159.508 132.11 155.714C137.188 153.494 142.067 151.371 145.865 148.574C147.929 147.096 149.498 145.539 150.596 143.81C151.918 141.894 152.636 139.871 152.909 137.584C153.396 133.439 151.87 129.312 148.477 125.29C144.936 121.18 140.23 118.193 136.911 116.449C135.103 115.49 133.229 114.562 131.397 113.694C127.946 112.015 124.454 110.275 121.317 108.283C117.8 105.997 115.109 103.63 113.145 100.911C112.732 100.313 112.319 99.7155 111.972 99.0855C110.726 96.8967 109.917 94.5757 109.612 92.0907C109.216 89.0911 109.497 85.9233 110.431 82.6789C111.686 78.2415 114.237 73.8945 117.615 70.1051C121.058 66.2837 125.384 63.2314 129.933 61.2679C137.249 58.2046 145.505 56.7599 155.329 56.9492C164.807 57.1469 174.276 58.8645 181.459 60.3331C183.522 60.7698 185.586 61.2065 187.609 61.5834C202.593 64.7794 218.073 68.0547 233.421 65.6492C238.209 64.9262 242.519 63.6372 246.391 61.842C250.66 59.8548 254.169 57.2781 256.761 54.2675C263.375 46.3577 263.93 35.7973 264.451 25.5721C264.749 19.3644 265.055 13.5516 266.6 8.25614C267.434 5.37896 268.532 3.01213 269.969 0.88034C271.587 -1.49898 273.602 -3.43192 276.17 -5.07419C278.737 -6.71646 281.701 -7.9123 285.012 -8.47821C288.042 -9.06777 291.336 -9.14699 294.853 -8.77562C302.688 -8.02174 309.779 -5.15275 314.295 -2.9513C318.002 -1.15592 321.675 0.974613 325.266 2.98553C329.155 5.17167 333.126 7.4774 337.195 9.41601C341.777 11.5855 345.905 13.0972 349.901 14.0345C356.604 15.5755 363.663 15.5882 370.408 13.9974C377.129 12.4985 383.098 9.52825 387.697 5.46633C389.951 3.49726 391.892 1.20138 393.7 -1.03054C395.393 -3.0469 397.11 -5.15505 399.1 -6.9962C401.313 -9.02507 403.526 -10.4156 405.961 -11.3556C409.165 -12.5877 412.814 -12.9185 416.826 -12.4679C420.45 -12.0687 424.331 -10.9158 428.384 -9.12877C432.074 -7.48498 435.814 -5.38645 439.537 -2.8012C442.922 -0.450978 446.248 2.32615 449.162 5.14362C451.399 7.49104 453.364 9.57145 454.734 11.9397ZM457.572 104.789C455.896 101.85 454.575 98.6603 453.676 95.1865C452.76 91.5612 452.224 87.5923 452.067 83.28C451.862 74.6832 453.333 65.8333 454.646 59.054C455.01 57.2824 455.398 55.4189 455.761 53.6473C458.578 39.5979 461.519 25.0896 454.891 12.4223C454.809 12.3027 454.751 12.0913 454.668 11.9717C453.298 9.60342 451.267 7.55501 449.047 5.35917C446.133 2.5417 442.847 -0.175651 439.421 -2.58567C435.698 -5.17092 431.959 -7.26943 428.268 -8.91323C424.215 -10.7003 420.335 -11.8532 416.711 -12.2524C412.698 -12.703 409.049 -12.3721 405.846 -11.1401C403.476 -10.2321 401.197 -8.80951 399.051 -6.81262C397.127 -5.00346 395.302 -2.92313 393.651 -0.846963C391.776 1.41693 389.836 3.71282 387.648 5.64991C383.115 9.67983 377.104 12.5903 370.359 14.181C363.572 15.7119 356.447 15.7312 349.851 14.2181C345.855 13.2807 341.662 11.801 337.08 9.63156C333.01 7.69295 329.039 5.38722 325.151 3.20108C321.626 1.15818 317.886 -0.940368 314.18 -2.73574C309.623 -4.99699 302.572 -7.80618 294.738 -8.56006C291.221 -8.93144 287.968 -8.79247 284.897 -8.2627C281.627 -7.63699 278.622 -6.5009 276.054 -4.85863C273.552 -3.24834 271.472 -1.28343 269.853 1.09589C268.416 3.22768 267.252 5.62649 266.484 8.47169C264.939 13.7671 264.675 19.6397 264.335 25.7877C263.814 36.0129 263.301 46.6331 256.687 54.5428C254.136 57.6132 250.626 60.19 246.292 62.2091C242.486 63.9723 238.069 65.2335 233.321 66.0163C217.932 68.362 202.453 65.0867 187.51 61.9506C185.446 61.5139 183.382 61.0772 181.359 60.7003C174.177 59.2316 164.708 57.514 155.23 57.3163C145.472 57.095 137.174 58.4799 129.9 61.6031C125.351 63.5665 121.025 66.6189 117.582 70.4402C114.204 74.2296 111.653 78.5766 110.397 83.0141C109.464 86.2584 109.249 89.3943 109.645 92.3938C110.099 95.6048 111.254 98.5557 113.178 101.215C115.101 103.874 117.792 106.24 121.309 108.527C124.446 110.518 128.004 112.226 131.389 113.938C133.221 114.806 135.095 115.733 136.903 116.693C140.263 118.496 144.969 121.484 148.51 125.593C151.969 129.583 153.429 133.742 152.942 137.888C152.669 140.174 151.885 142.229 150.629 144.113C149.49 145.782 147.921 147.34 145.898 148.878C142.1 151.674 137.287 153.765 132.143 156.017C123.548 159.78 114.623 163.702 110.882 171.178C109.322 174.407 108.859 177.823 109.56 181.392C110.146 184.539 111.722 187.845 114.116 191.313C117.938 196.723 123.981 202.413 132.079 208.146C139.988 213.73 148.449 219.606 157.373 223.981C167.47 228.906 176.617 231.178 185.484 230.874C190.578 230.721 195.68 229.686 200.543 228.688C205.711 227.621 211.053 226.551 216.576 226.509C219.804 226.462 223.271 227.017 226.615 228.031C230 229.104 233.062 230.733 235.423 232.621C238.709 235.339 240.632 238.636 240.879 242.186C241.102 245.19 240.094 248.071 239.07 250.801C238.352 252.824 237.633 254.848 237.344 256.982C237.063 258.874 237.088 260.697 237.203 262.396C237.459 265.065 238.375 267.413 239.96 269.199C241.355 270.837 243.262 272.068 245.763 273.011C250.444 274.813 256.298 275.25 262.085 275.719C268.326 276.207 274.287 276.671 277.895 278.834C284.771 282.924 289.419 288.253 293.942 293.402C298.07 298.106 301.925 302.542 307.225 305.879C310.089 307.604 313.119 308.929 316.446 309.791C320.202 310.765 324.281 311.184 328.896 311.103C338.472 310.934 347.703 308.219 356.735 305.601C361.788 304.112 367.014 302.618 372.248 301.52C378.135 300.345 383.369 299.885 388.232 300.163C391.452 300.359 394.597 300.831 397.949 301.601C400.979 302.288 404 303.218 407.336 304.476C413.494 306.759 419.628 309.773 425.506 312.671C431.788 315.772 438.327 318.989 444.98 321.352C450.479 323.317 456.299 324.727 462.227 325.527C468.154 326.326 474.148 326.456 480.01 326.011C492.278 325.017 503.515 321.251 512.514 315.138C516.725 312.302 520.441 308.747 523.653 304.719C526.733 300.754 529.152 296.471 530.936 291.778C532.695 287.176 533.703 282.38 533.976 277.541C534.274 272.609 533.68 267.791 532.384 263.232C531.493 260.154 530.23 257.175 528.637 254.356C528.596 254.296 528.596 254.296 528.555 254.236C527.531 252.498 526.4 250.732 525.352 249.085C523.024 245.585 520.68 241.933 519.45 237.981C518.122 233.758 518.106 229.138 519.328 223.759C520.377 219.023 522.227 214.298 524.093 209.724C524.333 209.049 524.638 208.343 524.878 207.669C526.819 202.819 528.305 197.951 529.313 193.155C530.42 187.991 531.023 182.992 531.032 178.281C531.075 167.489 528.203 158.349 522.515 151.13C520.732 148.802 518.619 146.634 516.134 144.566C513.881 142.705 511.429 140.941 508.63 139.184C503.306 135.938 497.362 133.072 491.715 130.381C484.896 127.141 477.821 123.785 471.77 119.615C466.057 115.679 461.74 111.467 458.636 106.587C458.125 105.718 457.902 105.267 457.572 104.789Z" stroke="white" stroke-opacity="0.3"/>
<path d="M403.678 249.833C404.699 247.31 405.342 244.564 405.608 241.596C405.868 238.834 405.854 236.002 405.456 233.152C405.274 231.483 404.932 229.688 404.499 227.87C404.247 226.64 403.884 225.464 403.576 224.261C403.024 222.162 402.437 220.013 401.962 217.809C400.935 211.885 401.229 205.928 402.95 200.092C403.817 197.238 404.797 194.33 405.734 191.577C407.399 186.85 408.944 182.383 409.616 178.272C410.715 171.858 410.331 166.974 409.863 161.319C409.786 160.343 409.64 159.264 409.549 158.159C409.472 157.182 409.36 156.155 409.249 155.127C409.074 153.251 408.977 151.271 408.844 149.239C408.593 144.764 408.293 140.109 407.426 135.932C406.651 132.319 405.665 129.484 404.351 127.147C404.281 127.045 404.176 126.893 404.288 126.839C403.4 125.444 402.471 124.204 401.331 123.201C400.157 122.148 398.793 121.254 397.255 120.647C395.465 119.891 393.619 119.704 391.627 119.52C390.585 119.416 389.452 119.289 388.431 119.108C379.265 117.396 371.68 111.269 364.325 105.368C360.291 102.116 356.544 99.0644 352.552 96.7394C350.79 95.7001 349.042 95.33 347.168 94.8858C346.476 94.7479 345.693 94.5864 344.931 94.3472C339.771 92.926 335.149 91.3115 331.122 89.4767C329.605 88.7921 328.018 88.0061 326.557 87.2943C323.418 85.773 320.244 84.201 316.943 83.0957C309.637 80.6186 304.547 81.4621 301.575 82.5637C296.764 84.3535 294.198 87.5573 291.478 90.9708C289.869 92.9668 288.184 95.0677 285.974 96.9494C284.065 98.6179 281.611 100.145 278.513 101.713C275.36 103.309 272.311 104.515 269.374 105.667C267.591 106.328 265.955 106.986 264.354 107.694C260.053 109.574 255.522 111.769 251.69 115.519C249.774 117.393 248.061 119.778 246.949 122.278C245.704 124.909 245.228 127.573 245.424 129.912C245.605 132.122 246.311 134.011 247.038 135.822C247.227 136.204 247.394 136.664 247.527 137.073C248.401 139.421 249.295 142.233 248.883 145.204C248.463 148.382 246.91 150.892 245.344 153.273C243.931 155.445 242.441 157.721 241.979 160.514C241.574 162.739 241.895 165.152 242.922 167.831M403.678 249.833C402.614 252.511 401.174 254.967 399.454 257.017M403.678 249.833C402.649 252.562 401.23 254.939 399.454 257.017M403.678 249.833C404.699 247.31 405.307 244.514 405.643 241.647C405.958 238.858 405.889 236.052 405.491 233.203C405.274 231.483 404.967 229.739 404.534 227.921C404.226 226.717 403.919 225.514 403.611 224.311C403.059 222.213 402.472 220.063 402.053 217.833C401.026 211.908 401.376 205.925 403.062 200.038C403.894 197.133 404.853 194.303 405.846 191.523C407.455 186.823 409 182.356 409.672 178.245C410.771 171.831 410.387 166.947 409.919 161.292C409.842 160.315 409.696 159.237 409.605 158.132C409.472 157.182 409.395 156.205 409.305 155.1C409.13 153.224 409.032 151.243 408.9 149.212C408.649 144.737 408.349 140.082 407.482 135.905C406.742 132.343 405.721 129.457 404.407 127.119C404.337 127.018 404.267 126.917 404.162 126.765C403.33 125.343 402.345 124.13 401.24 123.178C400.031 122.074 398.702 121.23 397.164 120.623C395.374 119.868 393.528 119.68 391.536 119.496C390.494 119.393 389.452 119.289 388.341 119.084C379.118 117.4 371.533 111.272 364.234 105.344C360.2 102.093 356.453 99.0408 352.461 96.7159C350.699 95.6765 348.916 95.2558 347.077 94.8622C346.35 94.6736 345.567 94.5122 344.84 94.3236C339.771 92.926 335.114 91.2608 331.031 89.4532C329.514 88.7685 327.927 87.9825 326.466 87.2708C323.327 85.7494 320.153 84.1775 316.853 83.0721C312.79 81.7275 306.889 80.5301 301.484 82.5402C296.73 84.3028 294.107 87.5337 291.387 90.9472C289.778 92.9433 288.093 95.0442 285.918 96.9765C284.009 98.645 281.555 100.172 278.457 101.74C275.36 103.309 272.276 104.464 269.318 105.694C267.57 106.406 265.99 107.036 264.298 107.721C259.997 109.601 255.466 111.797 251.634 115.546C249.718 117.421 248.04 119.856 246.893 122.305C245.683 124.986 245.172 127.6 245.368 129.939C245.549 132.15 246.311 134.011 246.982 135.849C247.115 136.258 247.303 136.64 247.471 137.1C248.38 139.499 249.24 142.26 248.827 145.231C248.351 148.436 246.763 150.896 245.288 153.3C243.798 155.577 242.42 157.799 241.924 160.541C241.518 162.766 241.804 165.128 242.922 167.831M399.454 257.017C397.544 259.226 395.3 261.057 392.706 262.382C389.139 264.244 385.161 265.293 380.917 265.524M380.917 265.524C376.875 265.724 372.694 265.181 368.485 263.84M380.917 265.524C376.84 265.673 372.659 265.13 368.485 263.84M368.485 263.84C364.857 262.691 361.228 261.001 357.725 259.385C354.782 258.039 351.768 256.592 348.762 255.48C345.756 254.367 342.847 253.613 340.029 252.883C336.485 251.963 333.087 251.041 329.78 249.601C326.906 248.356 324.193 246.696 321.334 244.498C318.852 242.523 316.524 240.339 314.287 238.177C311.959 235.993 309.561 233.707 306.918 231.607C304.954 230.057 302.724 228.772 300.367 227.412C296.319 225.114 292.146 222.742 289.524 218.942L289.489 218.891C289.035 218.232 288.545 217.523 288.056 216.814C287.553 215.976 287.084 215.189 286.616 214.401C285.924 213.182 285.232 211.962 284.358 210.696C282.191 207.554 278.598 204.292 273.571 201.117C272.403 200.398 271.236 199.679 270.159 198.984C267.446 197.323 264.859 195.737 262.392 193.891C259.315 191.595 256.442 188.728 253.541 185.064C251.22 182.132 248.843 178.686 246.383 174.47C245.222 172.464 243.831 170.231 242.922 167.831M368.485 263.84C364.857 262.691 361.228 261.001 357.655 259.284C354.768 257.911 351.699 256.491 348.692 255.379C345.686 254.266 342.777 253.512 339.96 252.781C336.415 251.862 333.073 250.912 329.71 249.499C326.78 248.282 324.033 246.571 321.264 244.397C318.782 242.422 316.454 240.237 314.217 238.076C311.889 235.891 309.491 233.605 306.848 231.506C304.828 229.983 302.598 228.697 300.242 227.338C296.284 225.063 292.111 222.691 289.433 218.918L289.398 218.867C288.944 218.209 288.399 217.526 287.965 216.79C287.497 216.003 286.993 215.165 286.525 214.378C285.833 213.158 285.141 211.939 284.267 210.672C282.156 207.503 278.507 204.269 273.48 201.093C272.368 200.347 271.201 199.628 270.068 198.96C267.355 197.3 264.804 195.764 262.301 193.867C259.225 191.572 256.351 188.705 253.45 185.04C251.129 182.108 248.808 178.636 246.327 174.497C245.963 173.862 245.6 173.227 245.201 172.541C244.334 171.068 243.544 169.491 242.922 167.831" stroke="white" stroke-opacity="0.3"/>
<path d="M323.357 124.708C321.083 124.281 318.907 124.333 316.803 124.826C312.304 125.898 308.154 128.067 304.451 131.39C302.712 132.919 301.136 134.685 299.668 136.608C298.261 138.45 296.991 140.49 295.916 142.645C293.773 146.795 292.3 151.41 291.645 155.946C290.99 160.482 291.126 164.899 292.085 168.652C293.284 173.345 295.726 178.067 299.635 182.975C303.309 187.628 307.769 191.9 311.695 195.482C317.436 200.769 323.869 206.299 331.339 212.488C335.831 216.217 340.073 218.907 343.993 220.541C346.447 221.567 348.759 222.134 350.913 222.303C353.323 222.506 355.58 222.151 357.598 221.278C360.472 220.044 362.604 217.904 363.907 214.899C365.037 212.401 365.555 209.355 365.381 206.064C365.299 204.258 365.12 202.394 364.924 200.591C364.45 196.444 364.009 192.175 364.98 188.014C365.946 184.013 368.482 180.516 370.87 177.144C372.599 174.672 374.415 172.157 375.654 169.395C376.537 167.385 376.985 165.165 376.903 162.937C376.794 160.669 376.239 158.513 375.23 156.629C375.219 156.528 375.165 156.449 375.11 156.37C373.638 153.814 371.37 151.96 368.584 151.043C367.466 150.688 366.256 150.536 365.001 150.406C364.418 150.319 363.791 150.254 363.137 150.149C359.025 149.505 354.969 147.674 350.672 144.482C346.85 141.641 343.296 138.09 340.433 135.206C336.726 131.518 333.117 128.732 329.616 126.948M323.357 124.708C325.374 125.102 327.495 125.814 329.616 126.948M323.357 124.708C325.374 125.102 327.523 125.854 329.616 126.948M323.357 124.708C321.11 124.32 318.907 124.333 316.874 124.844C312.375 125.916 308.209 128.146 304.522 131.409C302.826 132.916 301.206 134.703 299.783 136.605C298.376 138.447 297.105 140.487 296.031 142.642C293.914 146.831 292.458 151.387 291.803 155.922C291.148 160.458 291.284 164.875 292.243 168.629C292.864 171.386 293.987 174.111 295.579 176.926C296.713 178.907 298.103 180.923 299.733 183.033C303.407 187.686 307.894 191.998 311.793 195.54C317.577 200.805 323.994 206.397 331.437 212.546C335.929 216.275 340.171 218.965 344.064 220.559C346.49 221.546 348.83 222.152 350.94 222.343C353.35 222.546 355.607 222.19 357.625 221.318C360.499 220.084 362.587 217.964 363.891 214.96C364.977 212.483 365.468 209.397 365.321 206.146C365.239 204.34 365.06 202.476 364.864 200.673C364.39 196.526 363.922 192.218 364.893 188.056C365.858 184.055 368.351 180.58 370.783 177.187C372.512 174.714 374.372 172.178 375.566 169.438C376.477 167.467 376.881 165.268 376.843 163.018C376.762 160.79 376.179 158.595 375.197 156.75C375.143 156.671 375.088 156.592 375.077 156.492C373.605 153.935 371.381 152.06 368.595 151.143C367.45 150.749 366.266 150.636 365.012 150.506C364.385 150.441 363.802 150.354 363.148 150.249C359.053 149.544 354.996 147.713 350.656 144.543C346.834 141.702 343.279 138.151 340.417 135.267C336.753 131.558 333.1 128.793 329.616 126.948" stroke="white" stroke-opacity="0.3"/>
</g>
<defs>
<clipPath id="clip0_135_510">
<rect width="381.355" height="400.629" fill="white" transform="translate(471.688 47.8462) rotate(90)"/>
</clipPath>
</defs>
</svg>
