<svg width="93" height="93" viewBox="0 0 93 93" fill="none" xmlns="http://www.w3.org/2000/svg">
<g clip-path="url(#clip0)">
<path d="M42.625 53.2812C42.625 51.6809 41.3153 50.375 39.7188 50.375H25.1875V62C25.1875 64.139 23.4515 65.875 21.3125 65.875C19.1735 65.875 17.4375 64.139 17.4375 62V50.375H2.90625C1.30588 50.375 0 51.6809 0 53.2812V90.0937C0 91.6941 1.30588 93 2.90625 93H39.7188C41.3153 93 42.625 91.6941 42.625 90.0937V53.2812Z" fill="#D93F87"/>
<path d="M93 53.2812C93 51.6809 91.6902 50.375 90.0937 50.375H75.5625V62C75.5625 64.139 73.8265 65.875 71.6875 65.875C69.5485 65.875 67.8125 64.139 67.8125 62V50.375H53.2812C51.6809 50.375 50.375 51.6809 50.375 53.2812V90.0937C50.375 91.6941 51.6809 93 53.2812 93H90.0937C91.6902 93 93 91.6941 93 90.0937V53.2812Z" fill="#D93F87"/>
<path d="M67.8125 2.90625C67.8125 1.30975 66.5027 0 64.9062 0H50.375V11.625C50.375 13.764 48.639 15.5 46.5 15.5C44.361 15.5 42.625 13.764 42.625 11.625V0H28.0937C26.4934 0 25.1875 1.30975 25.1875 2.90625V39.7188C25.1875 41.3191 26.4934 42.625 28.0937 42.625H64.9062C66.5027 42.625 67.8125 41.3191 67.8125 39.7188V2.90625Z" fill="#D93F87"/>
</g>
<defs>
<clipPath id="clip0">
<rect width="93" height="93" fill="white"/>
</clipPath>
</defs>
</svg>
