<svg width="93" height="93" viewBox="0 0 93 93" fill="none" xmlns="http://www.w3.org/2000/svg">
<path d="M13.8047 43.5938C16.0028 43.5938 17.9924 42.7118 19.4625 41.2956L27.5278 45.3279C27.4873 45.6564 27.4277 45.9792 27.4277 46.3184C27.4277 50.8253 31.0946 54.4922 35.6016 54.4922C40.1085 54.4922 43.7754 50.8253 43.7754 46.3184C43.7754 45.0604 43.466 43.8825 42.9559 42.8168L53.8969 31.8758C54.9626 32.386 56.1404 32.6953 57.3984 32.6953C61.9054 32.6953 65.5723 29.0284 65.5723 24.5215C65.5723 23.6729 65.4055 22.8704 65.1643 22.1006L74.6706 14.9726C75.9676 15.8389 77.5222 16.3477 79.1953 16.3477C83.7023 16.3477 87.3691 12.6808 87.3691 8.17383C87.3691 3.66687 83.7023 0 79.1953 0C74.6884 0 71.0215 3.66687 71.0215 8.17383C71.0215 9.02243 71.1882 9.82491 71.4295 10.5948L61.9231 17.7227C60.6261 16.8564 59.0715 16.3477 57.3984 16.3477C52.8915 16.3477 49.2246 20.0145 49.2246 24.5215C49.2246 25.7795 49.534 26.9573 50.0441 28.023L39.1031 38.964C38.0374 38.4539 36.8596 38.1445 35.6016 38.1445C33.4034 38.1445 31.4139 39.0265 29.9437 40.4427L21.8785 36.4104C21.9189 36.0819 21.9785 35.7591 21.9785 35.4199C21.9785 30.913 18.3116 27.2461 13.8047 27.2461C9.29773 27.2461 5.63086 30.913 5.63086 35.4199C5.63086 39.9269 9.29773 43.5938 13.8047 43.5938Z" fill="#D93F87"/>
<path d="M90.2754 87.5508H87.3691V29.9707C87.3691 28.4651 86.1502 27.2461 84.6445 27.2461H73.7461C72.2405 27.2461 71.0215 28.4651 71.0215 29.9707V87.5508H65.5723V46.3184C65.5723 44.8127 64.3533 43.5938 62.8477 43.5938H51.9492C50.4436 43.5938 49.2246 44.8127 49.2246 46.3184V87.5508H43.7754V68.1152C43.7754 66.6096 42.5564 65.3906 41.0508 65.3906H30.1523C28.6467 65.3906 27.4277 66.6096 27.4277 68.1152V87.5508H21.9785V57.2168C21.9785 55.7112 20.7595 54.4922 19.2539 54.4922H8.35547C6.84984 54.4922 5.63086 55.7112 5.63086 57.2168V87.5508H2.72461C1.21898 87.5508 0 88.7698 0 90.2754C0 91.781 1.21898 93 2.72461 93H90.2754C91.781 93 93 91.781 93 90.2754C93 88.7698 91.781 87.5508 90.2754 87.5508Z" fill="#D93F87"/>
</svg>
