<svg width="23" height="23" viewBox="0 0 23 23" fill="none" xmlns="http://www.w3.org/2000/svg">
<path d="M22.3733 16.8797L19.1636 13.67C18.0172 12.5236 16.0685 12.9822 15.61 14.4724C15.2661 15.5041 14.1197 16.0773 13.088 15.848C10.7954 15.2748 7.70029 12.2944 7.12712 9.88708C6.78323 8.85534 7.47102 7.70901 8.50272 7.36516C9.99294 6.90663 10.4515 4.95787 9.30515 3.81154L6.09543 0.601822C5.17837 -0.200607 3.80277 -0.200607 3.00034 0.601822L0.822321 2.77985C-1.3557 5.0725 1.05159 11.148 6.43933 16.5358C11.8271 21.9235 17.9026 24.4455 20.1953 22.1528L22.3733 19.9748C23.1758 19.0577 23.1758 17.6821 22.3733 16.8797Z" fill="#D93F87"/>
</svg>
