<svg width="36" height="36" viewBox="0 0 36 36" fill="none" xmlns="http://www.w3.org/2000/svg">
<path d="M21.0002 9.75009C21.0002 13.8922 17.6422 17.2499 13.5001 17.2499C9.35797 17.2499 6 13.8922 6 9.75009C6 5.60797 9.35797 2.25 13.5001 2.25C17.6422 2.25 21.0002 5.60797 21.0002 9.75009Z" fill="#D93F87"/>
<path d="M19.8751 20.25H7.12491C3.19647 20.25 0 23.4465 0 27.3749V32.625C0 33.246 0.503998 33.75 1.125 33.75H25.875C26.496 33.75 27 33.246 27 32.625V27.3749C27 23.4465 23.8035 20.25 19.8751 20.25V20.25Z" fill="#D93F87"/>
<path d="M35.6415 14.9244L30.3914 10.0495C30.1799 9.85287 29.9039 9.75098 29.6265 9.75098C28.8824 9.75098 28.4998 10.3841 28.4998 10.8746V14.2496H22.4999C21.6704 14.2496 21 14.9214 21 15.7495C21 16.5776 21.6704 17.2494 22.4999 17.2494H28.4998V20.6244C28.4998 21.2484 29.0068 21.7494 29.6248 21.7494C29.9039 21.7494 30.1785 21.6461 30.3914 21.4495L35.6415 16.5746C35.8694 16.3615 35.9999 16.0615 35.9999 15.7495C35.9999 15.4375 35.8694 15.1376 35.6415 14.9244V14.9244Z" fill="#D93F87"/>
</svg>
