<svg width="224" height="53" viewBox="0 0 224 53" fill="none" xmlns="http://www.w3.org/2000/svg">
<path d="M53.2374 49.0906C51.4786 49.0906 50.0488 48.5044 48.948 47.3318C47.8473 46.1593 47.2969 44.6816 47.2969 42.8988C47.2969 41.1161 47.8473 39.6384 48.948 38.4659C50.0488 37.2933 51.4786 36.707 53.2374 36.707C54.9843 36.707 56.4081 37.2933 57.5089 38.4659C58.6216 39.6384 59.178 41.1161 59.178 42.8988C59.178 44.6816 58.6216 46.1593 57.5089 47.3318C56.4081 48.5044 54.9843 49.0906 53.2374 49.0906ZM53.2374 47.7625C54.5536 47.7625 55.6124 47.3079 56.4141 46.3986C57.2277 45.4773 57.6345 44.3107 57.6345 42.8988C57.6345 41.475 57.2277 40.3084 56.4141 39.3991C55.6124 38.4898 54.5536 38.0351 53.2374 38.0351C51.9093 38.0351 50.8445 38.4898 50.0428 39.3991C49.2412 40.3084 48.8403 41.475 48.8403 42.8988C48.8403 44.3107 49.2412 45.4773 50.0428 46.3986C50.8445 47.3079 51.9093 47.7625 53.2374 47.7625Z" fill="#948D9D"/>
<path d="M64.2328 39.9914C65.2139 39.9914 66.0036 40.4999 66.6018 41.5169V36.9045H67.9479V41.499C68.2111 41.0443 68.5461 40.6794 68.9529 40.4042C69.3717 40.129 69.8204 39.9914 70.299 39.9914C71.2322 39.9914 71.986 40.4042 72.5603 41.2297C73.1346 42.0434 73.4218 43.1441 73.4218 44.532C73.4218 45.92 73.1286 47.0267 72.5424 47.8523C71.9681 48.6779 71.2202 49.0906 70.299 49.0906C69.3178 49.0906 68.5341 48.5821 67.9479 47.5651V52.1776H66.6018V47.5831C66.3386 48.0377 65.9976 48.4027 65.5788 48.6779C65.1601 48.953 64.7114 49.0906 64.2328 49.0906C63.2995 49.0906 62.5457 48.6838 61.9714 47.8702C61.3971 47.0447 61.11 45.9379 61.11 44.55C61.11 43.1621 61.3971 42.0553 61.9714 41.2297C62.5577 40.4042 63.3115 39.9914 64.2328 39.9914ZM64.6097 41.1938C63.9516 41.1938 63.4311 41.5109 63.0483 42.1451C62.6654 42.7672 62.4739 43.5689 62.4739 44.55C62.4739 45.5311 62.6654 46.3327 63.0483 46.9549C63.4311 47.5771 63.9516 47.8882 64.6097 47.8882C65.0165 47.8882 65.4053 47.7566 65.7762 47.4933C66.1472 47.2301 66.4223 46.9011 66.6018 46.5062V42.5937C66.4104 42.1989 66.1292 41.8699 65.7583 41.6066C65.3874 41.3314 65.0045 41.1938 64.6097 41.1938ZM69.9221 47.8882C70.5801 47.8882 71.1006 47.5771 71.4835 46.9549C71.8664 46.3208 72.0578 45.5132 72.0578 44.532C72.0578 43.5509 71.8664 42.7493 71.4835 42.1271C71.1006 41.5049 70.5801 41.1938 69.9221 41.1938C69.5272 41.1938 69.1444 41.3314 68.7734 41.6066C68.4025 41.8699 68.1273 42.1929 67.9479 42.5758V46.4883C68.1393 46.8831 68.4145 47.2181 68.7734 47.4933C69.1444 47.7566 69.5272 47.8882 69.9221 47.8882Z" fill="#948D9D"/>
<path d="M77.0624 48.8753H75.7702V40.2067H77.1163V46.8293L81.6569 40.2067H82.985V48.8753H81.639V42.1271L77.0624 48.8753Z" fill="#948D9D"/>
<path d="M89.4955 49.0906C88.2153 49.0906 87.1743 48.6599 86.3727 47.7984C85.571 46.925 85.1702 45.8362 85.1702 44.532C85.1702 43.2279 85.571 42.1451 86.3727 41.2836C87.1743 40.4221 88.2153 39.9914 89.4955 39.9914C90.8356 39.9914 91.8945 40.4939 92.6722 41.499L91.7748 42.3245C91.2244 41.5707 90.4886 41.1938 89.5673 41.1938C88.658 41.1938 87.9281 41.5049 87.3777 42.1271C86.8393 42.7493 86.5701 43.5509 86.5701 44.532C86.5701 45.5132 86.8393 46.3208 87.3777 46.9549C87.9281 47.5771 88.658 47.8882 89.5673 47.8882C90.4766 47.8882 91.2125 47.5113 91.7748 46.7575L92.6722 47.5831C91.8945 48.5881 90.8356 49.0906 89.4955 49.0906Z" fill="#948D9D"/>
<path d="M108.841 48.8753H106.975C106.616 48.5642 106.179 48.1454 105.665 47.619C104.684 48.6001 103.535 49.0906 102.219 49.0906C101.13 49.0906 100.233 48.8035 99.5268 48.2292C98.8328 47.6429 98.4858 46.8173 98.4858 45.7525C98.4858 44.9029 98.7191 44.209 99.1858 43.6706C99.6524 43.1322 100.299 42.6416 101.124 42.1989C100.514 41.158 100.209 40.2606 100.209 39.5068C100.209 38.7171 100.496 38.0591 101.07 37.5326C101.657 36.9942 102.374 36.725 103.224 36.725C104.026 36.725 104.678 36.9344 105.18 37.3531C105.683 37.7599 105.934 38.3342 105.934 39.0761C105.934 39.5068 105.856 39.8957 105.701 40.2426C105.545 40.5777 105.294 40.8887 104.947 41.1759C104.6 41.4511 104.295 41.6665 104.032 41.822C103.78 41.9775 103.397 42.1869 102.883 42.4502C103.266 42.9766 103.726 43.5449 104.265 44.1551C104.696 44.6696 105.168 45.2021 105.683 45.7525C106.209 44.9747 106.64 44.0654 106.975 43.0245L108.141 43.527C107.555 44.891 107.011 45.92 106.508 46.6139C107.107 47.2361 107.884 47.9899 108.841 48.8753ZM102.344 47.9779C103.23 47.9779 104.067 47.5831 104.857 46.7934C104.067 45.9678 103.517 45.3636 103.206 44.9807C102.656 44.3466 102.153 43.7124 101.698 43.0783C101.136 43.4253 100.699 43.8022 100.388 44.209C100.089 44.6038 99.9396 45.0884 99.9396 45.6627C99.9396 46.3806 100.173 46.9489 100.64 47.3677C101.118 47.7745 101.686 47.9779 102.344 47.9779ZM101.609 39.5248C101.609 40.0871 101.848 40.7751 102.327 41.5887C103.104 41.2058 103.691 40.8349 104.085 40.476C104.492 40.117 104.696 39.6683 104.696 39.1299C104.696 38.6992 104.564 38.3701 104.301 38.1428C104.038 37.9035 103.697 37.7839 103.278 37.7839C102.811 37.7839 102.416 37.9514 102.093 38.2864C101.77 38.6094 101.609 39.0222 101.609 39.5248Z" fill="#948D9D"/>
<path d="M125.343 48.8753H123.853V43.3834H116.854V48.8753H115.364V36.9045H116.854V42.0553H123.853V36.9045H125.343V48.8753Z" fill="#948D9D"/>
<path d="M133.597 49.0906C131.838 49.0906 130.408 48.5044 129.308 47.3318C128.207 46.1593 127.656 44.6816 127.656 42.8988C127.656 41.1161 128.207 39.6384 129.308 38.4659C130.408 37.2933 131.838 36.707 133.597 36.707C135.344 36.707 136.768 37.2933 137.868 38.4659C138.981 39.6384 139.538 41.1161 139.538 42.8988C139.538 44.6816 138.981 46.1593 137.868 47.3318C136.768 48.5044 135.344 49.0906 133.597 49.0906ZM133.597 47.7625C134.913 47.7625 135.972 47.3079 136.774 46.3986C137.587 45.4773 137.994 44.3107 137.994 42.8988C137.994 41.475 137.587 40.3084 136.774 39.3991C135.972 38.4898 134.913 38.0351 133.597 38.0351C132.269 38.0351 131.204 38.4898 130.402 39.3991C129.601 40.3084 129.2 41.475 129.2 42.8988C129.2 44.3107 129.601 45.4773 130.402 46.3986C131.204 47.3079 132.269 47.7625 133.597 47.7625Z" fill="#948D9D"/>
<path d="M150.551 48.8753H148.792L145.741 44.1193H143.354V48.8753H141.864V36.9045H146.674C147.787 36.9045 148.69 37.2335 149.384 37.8915C150.078 38.5496 150.425 39.423 150.425 40.5119C150.425 41.5408 150.126 42.3604 149.528 42.9706C148.93 43.5808 148.194 43.9218 147.32 43.9936L150.551 48.8753ZM146.495 42.8091C147.201 42.8091 147.775 42.5937 148.218 42.163C148.66 41.7323 148.882 41.1819 148.882 40.5119C148.882 39.8418 148.66 39.2974 148.218 38.8786C147.775 38.4479 147.201 38.2325 146.495 38.2325H143.354V42.8091H146.495Z" fill="#948D9D"/>
<path d="M160.626 48.8753H152.783V36.9045H160.626V38.2325H154.273V42.0912H160.501V43.4193H154.273V47.5472H160.626V48.8753Z" fill="#948D9D"/>
<path d="M168.673 49.0906C166.926 49.0906 165.46 48.5163 164.276 47.3677C163.103 46.2071 162.517 44.7175 162.517 42.8988C162.517 41.0802 163.103 39.5965 164.276 38.4479C165.46 37.2873 166.926 36.707 168.673 36.707C170.587 36.707 172.101 37.4967 173.213 39.0761L171.957 39.776C171.61 39.2615 171.144 38.8428 170.557 38.5197C169.971 38.1967 169.343 38.0351 168.673 38.0351C167.357 38.0351 166.256 38.4958 165.371 39.4171C164.497 40.3264 164.06 41.487 164.06 42.8988C164.06 44.3107 164.497 45.4773 165.371 46.3986C166.256 47.3079 167.357 47.7625 168.673 47.7625C169.343 47.7625 169.971 47.607 170.557 47.2959C171.144 46.9729 171.61 46.5481 171.957 46.0217L173.231 46.7216C172.071 48.301 170.551 49.0906 168.673 49.0906Z" fill="#948D9D"/>
<path d="M185.325 48.8753H183.62L182.561 46.2191H176.603L175.544 48.8753H173.839L178.649 36.9045H180.497L185.325 48.8753ZM182.113 44.891L179.582 38.4479L177.034 44.891H182.113Z" fill="#948D9D"/>
<path d="M60.7482 11.2388C61.8878 11.5564 62.7659 12.1356 63.3824 12.9763C64.0176 13.817 64.3352 14.8445 64.3352 16.0589C64.3352 17.7403 63.728 19.0574 62.5137 20.0102C61.318 20.963 59.6646 21.4394 57.5535 21.4394H50.3234C49.7816 21.4394 49.3519 21.2899 49.0343 20.991C48.7354 20.6921 48.5859 20.2717 48.5859 19.7299V3.39219C48.5859 2.8504 48.7354 2.43005 49.0343 2.13113C49.3519 1.83221 49.7816 1.68275 50.3234 1.68275H57.2732C59.3283 1.68275 60.935 2.14047 62.0933 3.05591C63.2703 3.95266 63.8588 5.21372 63.8588 6.83909C63.8588 7.8853 63.5786 8.7914 63.0181 9.55738C62.4763 10.3234 61.7197 10.8838 60.7482 11.2388ZM52.1169 10.0058H56.6848C59.1695 10.0058 60.4119 9.08098 60.4119 7.23142C60.4119 6.2973 60.1036 5.60605 59.4871 5.15768C58.8706 4.7093 57.9365 4.48511 56.6848 4.48511H52.1169V10.0058ZM57.1612 18.637C58.4689 18.637 59.4217 18.4035 60.0196 17.9364C60.6174 17.4694 60.9163 16.7408 60.9163 15.7506C60.9163 14.7604 60.6081 14.0225 59.9915 13.5367C59.3937 13.051 58.4502 12.8081 57.1612 12.8081H52.1169V18.637H57.1612Z" fill="#44318D"/>
<path d="M69.1445 21.6075C68.6401 21.6075 68.2197 21.4674 67.8835 21.1872C67.5659 20.8882 67.4071 20.4679 67.4071 19.9261V9.109C67.4071 8.56721 67.5659 8.1562 67.8835 7.87596C68.2197 7.59573 68.6401 7.45561 69.1445 7.45561C69.6489 7.45561 70.0693 7.59573 70.4056 7.87596C70.7419 8.1562 70.91 8.56721 70.91 9.109V19.9261C70.91 20.4679 70.7419 20.8882 70.4056 21.1872C70.0693 21.4674 69.6489 21.6075 69.1445 21.6075ZM69.1445 4.96151C68.5093 4.96151 68.0049 4.79337 67.6312 4.45709C67.2576 4.10212 67.0708 3.6444 67.0708 3.08393C67.0708 2.52346 67.2576 2.07508 67.6312 1.7388C68.0049 1.40252 68.5093 1.23438 69.1445 1.23438C69.761 1.23438 70.2561 1.40252 70.6298 1.7388C71.0221 2.07508 71.2183 2.52346 71.2183 3.08393C71.2183 3.6444 71.0314 4.10212 70.6578 4.45709C70.2841 4.79337 69.7797 4.96151 69.1445 4.96151Z" fill="#44318D"/>
<path d="M90.8041 7.39956C92.2987 7.39956 93.4383 7.84794 94.223 8.7447C95.0263 9.62277 95.428 11.052 95.428 13.0323V19.9261C95.428 20.4679 95.2599 20.8882 94.9236 21.1872C94.606 21.4674 94.1856 21.6075 93.6625 21.6075C93.1581 21.6075 92.7378 21.4674 92.4015 21.1872C92.0839 20.8882 91.9251 20.4679 91.9251 19.9261V13.0323C91.9251 12.0048 91.7382 11.2762 91.3646 10.8465C91.0096 10.3981 90.4585 10.1739 89.7112 10.1739C88.7958 10.1739 88.0672 10.4915 87.5254 11.1267C86.9836 11.7432 86.7127 12.5933 86.7127 13.6768V19.9261C86.7127 20.4679 86.5445 20.8882 86.2083 21.1872C85.8907 21.4674 85.4796 21.6075 84.9752 21.6075C84.4708 21.6075 84.0504 21.4674 83.7142 21.1872C83.3779 20.8882 83.2097 20.4679 83.2097 19.9261V13.0323C83.2097 12.0048 83.0229 11.2762 82.6493 10.8465C82.2943 10.3981 81.7432 10.1739 80.9959 10.1739C80.0804 10.1739 79.3518 10.4915 78.81 11.1267C78.2869 11.7432 78.0254 12.5933 78.0254 13.6768V19.9261C78.0254 20.4679 77.8572 20.8882 77.5209 21.1872C77.1847 21.4674 76.7643 21.6075 76.2599 21.6075C75.7555 21.6075 75.3351 21.4674 74.9988 21.1872C74.6812 20.8882 74.5224 20.4679 74.5224 19.9261V9.08098C74.5224 8.55787 74.6906 8.1562 75.0268 7.87596C75.3631 7.59573 75.7835 7.45561 76.2879 7.45561C76.7736 7.45561 77.166 7.59573 77.4649 7.87596C77.7825 8.13752 77.9413 8.52051 77.9413 9.02493V9.6975C78.371 8.9502 78.9408 8.38039 79.6507 7.98806C80.3793 7.59573 81.2107 7.39956 82.1448 7.39956C84.1999 7.39956 85.5731 8.25895 86.2643 9.97773C86.6753 9.19307 87.2825 8.56721 88.0858 8.10015C88.8892 7.63309 89.7953 7.39956 90.8041 7.39956Z" fill="#44318D"/>
<path d="M111.459 11.2388C112.598 11.5564 113.477 12.1356 114.093 12.9763C114.728 13.817 115.046 14.8445 115.046 16.0589C115.046 17.7403 114.439 19.0574 113.224 20.0102C112.029 20.963 110.375 21.4394 108.264 21.4394H101.034C100.492 21.4394 100.063 21.2899 99.745 20.991C99.446 20.6921 99.2966 20.2717 99.2966 19.7299V3.39219C99.2966 2.8504 99.446 2.43005 99.745 2.13113C100.063 1.83221 100.492 1.68275 101.034 1.68275H107.984C110.039 1.68275 111.646 2.14047 112.804 3.05591C113.981 3.95266 114.569 5.21372 114.569 6.83909C114.569 7.8853 114.289 8.7914 113.729 9.55738C113.187 10.3234 112.43 10.8838 111.459 11.2388ZM102.828 10.0058H107.395C109.88 10.0058 111.123 9.08098 111.123 7.23142C111.123 6.2973 110.814 5.60605 110.198 5.15768C109.581 4.7093 108.647 4.48511 107.395 4.48511H102.828V10.0058ZM107.872 18.637C109.18 18.637 110.132 18.4035 110.73 17.9364C111.328 17.4694 111.627 16.7408 111.627 15.7506C111.627 14.7604 111.319 14.0225 110.702 13.5367C110.104 13.051 109.161 12.8081 107.872 12.8081H102.828V18.637H107.872Z" fill="#44318D"/>
<path d="M124.059 7.39956C125.964 7.39956 127.375 7.87596 128.29 8.82877C129.224 9.76289 129.691 11.1921 129.691 13.1164V19.9541C129.691 20.4586 129.542 20.8602 129.243 21.1591C128.944 21.4394 128.533 21.5795 128.01 21.5795C127.524 21.5795 127.123 21.43 126.805 21.1311C126.506 20.8322 126.357 20.4399 126.357 19.9541V19.3376C126.039 20.0662 125.535 20.636 124.843 21.047C124.171 21.4581 123.386 21.6636 122.489 21.6636C121.574 21.6636 120.743 21.4767 119.995 21.1031C119.248 20.7294 118.659 20.2157 118.23 19.5618C117.8 18.9079 117.585 18.1793 117.585 17.376C117.585 16.3671 117.837 15.5731 118.342 14.994C118.865 14.4148 119.706 13.9944 120.864 13.7329C122.022 13.4713 123.62 13.3406 125.656 13.3406H126.357V12.696C126.357 11.7806 126.16 11.1174 125.768 10.7063C125.376 10.2767 124.741 10.0618 123.863 10.0618C123.321 10.0618 122.77 10.1459 122.209 10.314C121.649 10.4635 120.985 10.6877 120.219 10.9866C119.734 11.2295 119.379 11.3509 119.155 11.3509C118.818 11.3509 118.538 11.2295 118.314 10.9866C118.108 10.7437 118.006 10.4261 118.006 10.0338C118.006 9.71618 118.08 9.44528 118.23 9.2211C118.398 8.97822 118.669 8.75404 119.042 8.54853C119.696 8.19356 120.472 7.91333 121.368 7.70782C122.284 7.50232 123.181 7.39956 124.059 7.39956ZM123.19 19.1414C124.124 19.1414 124.881 18.8332 125.46 18.2167C126.058 17.5815 126.357 16.7688 126.357 15.7786V15.1901H125.852C124.6 15.1901 123.629 15.2462 122.938 15.3583C122.247 15.4704 121.751 15.6665 121.453 15.9468C121.154 16.227 121.004 16.61 121.004 17.0957C121.004 17.6936 121.21 18.1886 121.621 18.581C122.05 18.9546 122.573 19.1414 123.19 19.1414Z" fill="#44318D"/>
<path d="M141.126 7.39956C142.322 7.39956 143.377 7.68914 144.293 8.26829C145.208 8.84745 145.918 9.66947 146.423 10.7344C146.946 11.7993 147.207 13.0416 147.207 14.4615C147.207 15.8814 146.946 17.1424 146.423 18.2447C145.918 19.3283 145.199 20.169 144.265 20.7668C143.349 21.3646 142.303 21.6636 141.126 21.6636C140.136 21.6636 139.249 21.4487 138.464 21.019C137.698 20.5893 137.109 19.9915 136.698 19.2255V19.9261C136.698 20.4305 136.54 20.8322 136.222 21.1311C135.904 21.43 135.484 21.5795 134.961 21.5795C134.438 21.5795 134.018 21.43 133.7 21.1311C133.401 20.8322 133.252 20.4305 133.252 19.9261V3.168C133.252 2.68226 133.41 2.28993 133.728 1.99101C134.064 1.69209 134.494 1.54263 135.017 1.54263C135.54 1.54263 135.96 1.68275 136.278 1.96299C136.596 2.24322 136.754 2.62621 136.754 3.11195V9.72552C137.165 8.97823 137.754 8.40841 138.52 8.01608C139.286 7.60507 140.155 7.39956 141.126 7.39956ZM140.201 18.9453C141.304 18.9453 142.163 18.5529 142.78 17.7683C143.396 16.9836 143.704 15.8814 143.704 14.4615C143.704 13.0603 143.396 11.9861 142.78 11.2388C142.182 10.4915 141.322 10.1179 140.201 10.1179C139.08 10.1179 138.212 10.5008 137.595 11.2668C136.997 12.0141 136.698 13.0977 136.698 14.5176C136.698 15.9374 136.997 17.0303 137.595 17.7963C138.212 18.5623 139.08 18.9453 140.201 18.9453Z" fill="#44318D"/>
<path d="M156.331 21.6636C154.93 21.6636 153.697 21.374 152.632 20.7948C151.586 20.2157 150.773 19.3843 150.194 18.3007C149.615 17.2172 149.325 15.9561 149.325 14.5176C149.325 13.079 149.615 11.8273 150.194 10.7624C150.773 9.67882 151.586 8.84745 152.632 8.26829C153.697 7.68914 154.93 7.39956 156.331 7.39956C157.733 7.39956 158.956 7.68914 160.002 8.26829C161.067 8.84745 161.88 9.67882 162.44 10.7624C163.02 11.8273 163.309 13.079 163.309 14.5176C163.309 15.9561 163.02 17.2172 162.44 18.3007C161.88 19.3843 161.067 20.2157 160.002 20.7948C158.956 21.374 157.733 21.6636 156.331 21.6636ZM156.303 18.9453C157.443 18.9453 158.312 18.5716 158.91 17.8243C159.507 17.077 159.806 15.9748 159.806 14.5176C159.806 13.079 159.507 11.9861 158.91 11.2388C158.312 10.4728 157.452 10.0898 156.331 10.0898C155.21 10.0898 154.342 10.4728 153.725 11.2388C153.127 11.9861 152.828 13.079 152.828 14.5176C152.828 15.9748 153.127 17.077 153.725 17.8243C154.323 18.5716 155.182 18.9453 156.303 18.9453Z" fill="#44318D"/>
<path d="M167.476 21.4375C166.878 21.4375 166.383 21.2413 165.991 20.849C165.599 20.4379 165.402 19.9335 165.402 19.3357C165.402 18.7378 165.599 18.2428 165.991 17.8504C166.383 17.4394 166.878 17.2339 167.476 17.2339C168.074 17.2339 168.569 17.4394 168.961 17.8504C169.354 18.2428 169.55 18.7378 169.55 19.3357C169.55 19.9335 169.354 20.4379 168.961 20.849C168.569 21.2413 168.074 21.4375 167.476 21.4375Z" fill="#D93F87"/>
<path d="M178.499 21.4935C177.135 21.4935 175.93 21.2039 174.884 20.6248C173.857 20.0456 173.063 19.2236 172.502 18.1587C171.942 17.0938 171.661 15.8514 171.661 14.4316C171.661 13.0117 171.951 11.76 172.53 10.6764C173.128 9.57413 173.959 8.72408 175.024 8.12625C176.089 7.52841 177.313 7.22949 178.695 7.22949C179.424 7.22949 180.153 7.33225 180.881 7.53775C181.629 7.74326 182.282 8.02349 182.843 8.37846C183.441 8.77079 183.74 9.26587 183.74 9.86371C183.74 10.2747 183.637 10.611 183.431 10.8726C183.245 11.1154 182.992 11.2369 182.675 11.2369C182.469 11.2369 182.254 11.1902 182.03 11.0967C181.806 11.0033 181.582 10.8912 181.358 10.7605C180.947 10.5176 180.554 10.3308 180.181 10.2C179.807 10.0505 179.377 9.9758 178.892 9.9758C177.733 9.9758 176.836 10.3588 176.201 11.1248C175.585 11.8721 175.276 12.9556 175.276 14.3755C175.276 15.7767 175.585 16.8603 176.201 17.6262C176.836 18.3735 177.733 18.7472 178.892 18.7472C179.359 18.7472 179.77 18.6818 180.125 18.551C180.498 18.4016 180.909 18.2054 181.358 17.9625C181.638 17.7944 181.881 17.6729 182.086 17.5982C182.292 17.5048 182.497 17.4581 182.703 17.4581C183.002 17.4581 183.254 17.5889 183.459 17.8504C183.665 18.112 183.768 18.4389 183.768 18.8313C183.768 19.1489 183.693 19.4291 183.543 19.672C183.413 19.8962 183.188 20.1017 182.871 20.2885C182.292 20.6621 181.619 20.961 180.853 21.1852C180.087 21.3907 179.303 21.4935 178.499 21.4935Z" fill="#D93F87"/>
<path d="M192.351 21.4935C190.95 21.4935 189.717 21.2039 188.652 20.6248C187.605 20.0456 186.793 19.2142 186.214 18.1307C185.634 17.0471 185.345 15.786 185.345 14.3475C185.345 12.9089 185.634 11.6572 186.214 10.5923C186.793 9.50874 187.605 8.67738 188.652 8.09822C189.717 7.51907 190.95 7.22949 192.351 7.22949C193.752 7.22949 194.976 7.51907 196.022 8.09822C197.087 8.67738 197.899 9.50874 198.46 10.5923C199.039 11.6572 199.329 12.9089 199.329 14.3475C199.329 15.786 199.039 17.0471 198.46 18.1307C197.899 19.2142 197.087 20.0456 196.022 20.6248C194.976 21.2039 193.752 21.4935 192.351 21.4935ZM192.323 18.7752C193.462 18.7752 194.331 18.4016 194.929 17.6543C195.527 16.907 195.826 15.8047 195.826 14.3475C195.826 12.9089 195.527 11.816 194.929 11.0687C194.331 10.3027 193.472 9.91976 192.351 9.91976C191.23 9.91976 190.361 10.3027 189.745 11.0687C189.147 11.816 188.848 12.9089 188.848 14.3475C188.848 15.8047 189.147 16.907 189.745 17.6543C190.342 18.4016 191.202 18.7752 192.323 18.7752Z" fill="#D93F87"/>
<path d="M218.502 7.22949C219.997 7.22949 221.136 7.67787 221.921 8.57463C222.724 9.4527 223.126 10.8819 223.126 12.8622V19.756C223.126 20.2978 222.958 20.7182 222.622 21.0171C222.304 21.2973 221.884 21.4375 221.361 21.4375C220.856 21.4375 220.436 21.2973 220.1 21.0171C219.782 20.7182 219.623 20.2978 219.623 19.756V12.8622C219.623 11.8347 219.436 11.1061 219.063 10.6764C218.708 10.228 218.157 10.0038 217.409 10.0038C216.494 10.0038 215.765 10.3214 215.223 10.9566C214.682 11.5731 214.411 12.4232 214.411 13.5068V19.756C214.411 20.2978 214.243 20.7182 213.906 21.0171C213.589 21.2973 213.178 21.4375 212.673 21.4375C212.169 21.4375 211.749 21.2973 211.412 21.0171C211.076 20.7182 210.908 20.2978 210.908 19.756V12.8622C210.908 11.8347 210.721 11.1061 210.347 10.6764C209.992 10.228 209.441 10.0038 208.694 10.0038C207.779 10.0038 207.05 10.3214 206.508 10.9566C205.985 11.5731 205.723 12.4232 205.723 13.5068V19.756C205.723 20.2978 205.555 20.7182 205.219 21.0171C204.883 21.2973 204.462 21.4375 203.958 21.4375C203.454 21.4375 203.033 21.2973 202.697 21.0171C202.379 20.7182 202.221 20.2978 202.221 19.756V8.91091C202.221 8.3878 202.389 7.98613 202.725 7.70589C203.061 7.42566 203.482 7.28554 203.986 7.28554C204.472 7.28554 204.864 7.42566 205.163 7.70589C205.481 7.96745 205.639 8.35044 205.639 8.85486V9.52743C206.069 8.78013 206.639 8.21032 207.349 7.81799C208.077 7.42566 208.909 7.22949 209.843 7.22949C211.898 7.22949 213.271 8.08888 213.962 9.80766C214.373 9.023 214.981 8.39714 215.784 7.93008C216.587 7.46302 217.493 7.22949 218.502 7.22949Z" fill="#D93F87"/>
<path fill-rule="evenodd" clip-rule="evenodd" d="M21.8041 21.358C28.3798 22.3963 33.4723 28.1315 33.4723 35.0038V35.1521C33.4723 42.7661 27.2427 48.9957 19.6287 48.9957H10.2843C17.8983 48.9957 24.1279 42.7661 24.1279 35.1521V35.0038C24.1279 28.1315 19.0354 22.3963 12.4597 21.358C15.8217 19.3804 18.096 15.7217 18.096 11.5192V11.4203C18.096 6.32786 14.6846 1.97704 10.0371 0.543241C10.4326 0.394917 10.9271 0.197152 11.3226 0.0488281H16.0195C22.2985 0.0488281 27.4404 5.19072 27.4404 11.4698V11.5686C27.4404 15.6723 25.1661 19.3804 21.8041 21.358Z" fill="#44318D"/>
<path fill-rule="evenodd" clip-rule="evenodd" d="M10.9265 0H16.0684C8.00948 2.47206 11.767 16.8595 10.9265 38.0203C10.6793 44.0027 6.03183 48.9468 0 48.9468V10.9265C0 4.94412 4.94413 0 10.9265 0Z" fill="#D93F87"/>
</svg>
