<svg width="23" height="22" viewBox="0 0 23 22" fill="none" xmlns="http://www.w3.org/2000/svg">
<g clip-path="url(#clip0)">
<path d="M19.0267 11.942C18.6617 11.4928 18.7661 11.293 19.0267 10.8915C19.0314 10.8869 22.0442 6.82976 22.3546 5.45384L22.3565 5.45292C22.5108 4.95151 22.3565 4.58301 21.6106 4.58301H19.1424C18.514 4.58301 18.2243 4.89926 18.0691 5.25309C18.0691 5.25309 16.8124 8.18459 15.0346 10.0848C14.4608 10.6339 14.1956 10.8099 13.8824 10.8099C13.7281 10.8099 13.4882 10.6339 13.4882 10.1325V5.45292C13.4882 4.85159 13.3123 4.58301 12.7922 4.58301H8.9111C8.51697 4.58301 8.28275 4.86351 8.28275 5.12476C8.28275 5.69492 9.17165 5.82601 9.26384 7.43018V10.9108C9.26384 11.6734 9.1218 11.8137 8.80669 11.8137C7.96764 11.8137 5.93117 8.87026 4.72433 5.50151C4.48071 4.84792 4.24273 4.58392 3.60968 4.58392H1.14052C0.435981 4.58392 0.293945 4.90017 0.293945 5.25401C0.293945 5.87917 1.13299 8.98759 4.1957 13.0943C6.23687 15.8974 9.11145 17.4163 11.7264 17.4163C13.2982 17.4163 13.4901 17.079 13.4901 16.4988C13.4901 13.8203 13.3481 13.5673 14.1354 13.5673C14.5003 13.5673 15.1287 13.7433 16.5961 15.0953C18.2732 16.6986 18.5488 17.4163 19.4876 17.4163H21.9558C22.6594 17.4163 23.0159 17.079 22.8109 16.4135C22.3415 15.0138 19.1697 12.1345 19.0267 11.942V11.942Z" fill="white"/>
</g>
<defs>
<clipPath id="clip0">
<rect width="22.5752" height="22" fill="white" transform="translate(0.293945)"/>
</clipPath>
</defs>
</svg>
