<svg width="27" height="27" viewBox="0 0 27 27" fill="none" xmlns="http://www.w3.org/2000/svg">
<path d="M5.55364 11.7967L5.07096 12.068C3.80043 12.782 2.81368 13.8977 2.25 15.2041L18.75 15.1846C18.1864 13.8781 17.2092 12.782 15.9387 12.068L15.456 11.7967V9.98438H5.55364V11.7967Z" fill="#D93F87"/>
<path d="M23.89 0.868113C23.0814 0.308285 22.0206 0 20.903 0C19.7855 0 18.7247 0.308285 17.9161 0.868113C17.2913 1.30069 16.8559 1.86579 16.6535 2.48363H12.9521V1.15905H8.05858V5.29833H7.20312V8.4028H13.8075V5.29833H12.9521V4.06566H16.6535C16.8559 4.68345 17.2913 5.2486 17.9161 5.68118C18.7247 6.24096 19.7855 6.54924 20.903 6.54924C22.0206 6.54924 23.0814 6.24096 23.89 5.68118C24.7743 5.06899 25.2815 4.1918 25.2815 3.27465C25.2815 2.35744 24.7743 1.48031 23.89 0.868113Z" fill="#D93F87"/>
<path d="M2.24987 15.2049C1.96375 17.1215 2.62549 18.9878 3.82033 20.4592L5.91879 23.0435V25.3639H15.2173V23.0435L17.3158 20.4593C18.5107 18.9878 19.0269 17.0533 18.7408 15.1367L2.24987 15.2049Z" fill="#D93F87"/>
</svg>
