<svg width="27" height="30" viewBox="0 0 27 30" fill="none" xmlns="http://www.w3.org/2000/svg">
<g clip-path="url(#clip0)">
<path d="M12.7469 21.0083C12.1963 20.3125 11.6314 19.58 11.0663 18.8242L10.3924 20.2461C9.34811 19.8656 8.21477 19.9217 7.20508 20.4039C6.19539 20.886 5.37878 21.761 4.90853 22.8647C4.43829 23.9683 4.34673 25.2247 4.65105 26.3981C4.95538 27.5714 5.63466 28.581 6.56138 29.2373C7.48811 29.8937 8.59858 30.1516 9.68434 29.9628C10.7701 29.774 11.7565 29.1513 12.4584 28.2117C13.1603 27.2721 13.5294 26.0802 13.4965 24.8596C13.4636 23.6391 13.0309 22.4739 12.2796 21.5827C12.4324 21.3969 12.5874 21.2063 12.7469 21.0083ZM8.99908 27.5C8.55407 27.5 8.11905 27.3534 7.74904 27.0787C7.37903 26.804 7.09064 26.4135 6.92035 25.9567C6.75005 25.4999 6.70549 24.9972 6.79231 24.5123C6.87913 24.0273 7.09342 23.5819 7.40809 23.2322C7.72275 22.8826 8.12367 22.6445 8.56012 22.548C8.99658 22.4516 9.44898 22.5011 9.86011 22.6903C10.2712 22.8795 10.6227 23.2 10.8699 23.6111C11.1171 24.0222 11.2491 24.5055 11.2491 25C11.2484 25.6628 11.0111 26.2982 10.5893 26.7669C10.1675 27.2356 9.5956 27.4992 8.99908 27.5Z" fill="#D93F87"/>
<path d="M19.6065 11.1028C23.1242 4.58863 20.8171 0.601129 20.7174 0.434566C20.6633 0.344393 20.589 0.2714 20.5019 0.222754C20.4147 0.174107 20.3177 0.151478 20.2203 0.157088C20.1229 0.162698 20.0285 0.196354 19.9463 0.254753C19.8641 0.313152 19.797 0.394286 19.7516 0.490191L14.1348 12.3475L16.1316 16.5635C17.3927 14.8267 18.5533 13.0028 19.6065 11.1028Z" fill="#D93F87"/>
<path d="M24.939 25.5568C24.6909 25.97 24.2019 26.6636 23.7119 26.6661H23.7084C23.256 26.6661 22.7372 26.1403 22.4487 25.755C22.5651 24.9112 22.485 24.0483 22.2161 23.2486C21.9473 22.4489 21.4985 21.7391 20.9127 21.1867C20.3269 20.6344 19.6236 20.2579 18.8697 20.0933C18.1158 19.9286 17.3365 19.9812 16.6061 20.2461L7.24782 0.490191C7.2024 0.394286 7.13531 0.313152 7.05315 0.254753C6.97099 0.196354 6.87657 0.162698 6.77916 0.157088C6.68175 0.151478 6.58471 0.174107 6.49755 0.222754C6.41039 0.2714 6.33611 0.344393 6.28201 0.434566C6.18203 0.601129 3.87493 4.58863 7.39295 11.1028C9.37478 14.773 12.4574 18.813 14.7195 21.5835C14.3073 22.0718 13.9877 22.6472 13.7795 23.2755C13.5714 23.9038 13.479 24.5721 13.5078 25.2408C13.5366 25.9096 13.6861 26.565 13.9473 27.1683C14.2085 27.7717 14.5762 28.3105 15.0285 28.7528C15.4808 29.1952 16.0084 29.5321 16.5802 29.7434C17.1519 29.9548 17.756 30.0364 18.3567 29.9833C18.9573 29.9302 19.5422 29.7436 20.0767 29.4344C20.6112 29.1253 21.0843 28.7 21.468 28.1838C22.0292 28.6947 22.7943 29.1668 23.7091 29.1668C24.8826 29.1668 25.9266 28.4186 26.8117 26.9435L24.939 25.5568ZM13.5 18.125C13.3609 18.125 13.225 18.0792 13.1094 17.9934C12.9937 17.9075 12.9036 17.7855 12.8504 17.6428C12.7972 17.5 12.7833 17.3429 12.8104 17.1914C12.8375 17.0398 12.9045 16.9006 13.0028 16.7914C13.1012 16.6821 13.2264 16.6077 13.3628 16.5775C13.4992 16.5474 13.6406 16.5629 13.7691 16.622C13.8976 16.6811 14.0074 16.7813 14.0846 16.9097C14.1619 17.0382 14.2031 17.1893 14.2031 17.3438C14.2031 17.551 14.1291 17.7497 13.9972 17.8962C13.8653 18.0427 13.6865 18.125 13.5 18.125ZM18 27.5C17.555 27.5 17.12 27.3534 16.75 27.0787C16.38 26.804 16.0916 26.4136 15.9213 25.9567C15.751 25.4999 15.7064 24.9973 15.7932 24.5123C15.8801 24.0274 16.0944 23.5819 16.409 23.2323C16.7237 22.8826 17.1246 22.6445 17.5611 22.5481C17.9975 22.4516 18.4499 22.5011 18.8611 22.6903C19.2722 22.8796 19.6236 23.2 19.8708 23.6111C20.1181 24.0222 20.25 24.5056 20.25 25C20.2493 25.6628 20.012 26.2983 19.5902 26.7669C19.1684 27.2356 18.5965 27.4993 18 27.5Z" fill="#D93F87"/>
</g>
<defs>
<clipPath id="clip0">
<rect width="27" height="30" fill="white"/>
</clipPath>
</defs>
</svg>
