<svg width="88" height="57" viewBox="0 0 88 57" fill="none" xmlns="http://www.w3.org/2000/svg">
<g clip-path="url(#clip0_83_902)">
<path d="M36.852 0.78516C37.0935 1.36198 37.3189 1.93879 37.5604 2.51561C41.0378 10.8955 44.5152 19.2593 48.0087 27.6232C48.4273 28.6326 48.8942 29.61 49.3611 30.5874C49.7153 31.3244 50.1982 31.9974 50.7295 32.6223C51.454 33.4715 52.3877 33.9361 53.4986 34.0643C54.5128 34.1765 55.5271 34.1284 56.5091 33.9201C57.958 33.6317 59.2138 32.9267 60.3246 31.9653C61.3711 31.052 62.2243 29.9785 62.9971 28.8409C64.2206 27.0464 64.9934 25.0596 65.4442 22.9446C65.8788 20.9738 65.9915 18.987 65.8949 16.9681C65.7822 14.5006 65.3315 12.0972 64.4621 9.7739C63.802 7.99538 62.9005 6.34504 61.6609 4.88697C60.6949 3.74936 59.5841 2.83607 58.1995 2.25925C57.2336 1.85868 56.2193 1.65039 55.1729 1.57027C54.1103 1.49016 53.0478 1.53823 51.9852 1.71448C50.2465 2.01891 48.7654 2.788 47.5097 4.00572C46.1251 5.33561 45.1109 6.90583 44.3381 8.65231C44.1771 9.00481 44.0483 9.37333 43.9035 9.74185C43.8713 9.82197 43.8391 9.90208 43.7747 10.0463C43.179 8.60424 42.5994 7.22629 42.0198 5.83231C42.0842 5.76822 42.1325 5.70413 42.1969 5.65606C44.8372 3.2847 47.88 1.71448 51.3735 1.04152C52.0013 0.913342 52.6292 0.881296 53.2732 0.801183C53.3537 0.78516 53.4503 0.769137 53.5308 0.753115C54.1103 0.753115 54.6899 0.753115 55.2856 0.753115C55.5432 0.78516 55.7847 0.817206 56.0422 0.849251C57.9741 1.0255 59.8255 1.55425 61.5643 2.38743C65.573 4.32618 68.5513 7.29038 70.4027 11.3281C71.1111 12.8823 71.5136 14.5326 71.6423 16.231C72.0287 21.3263 70.3544 25.6844 66.8126 29.3376C65.1061 31.1001 63.0937 32.446 60.8237 33.3914C60.0026 33.7278 59.1816 34.0483 58.3444 34.3047C57.5556 34.529 56.7345 34.6411 55.9134 34.6892C55.2212 34.7373 54.5128 34.7533 53.8045 34.7533C48.8298 34.7533 43.8713 34.7533 38.8966 34.7533C38.7839 34.7533 38.6551 34.7533 38.5263 34.7533C38.5263 34.561 38.5263 34.3848 38.5263 34.1925C38.7517 34.1605 38.9932 34.1444 39.2186 34.0964C39.766 34.0002 40.3133 33.9041 40.8446 33.7599C41.1505 33.6798 41.4564 33.5195 41.7301 33.3433C42.8892 32.5742 43.3239 31.4847 43.1146 30.1227C43.0019 29.4017 42.7604 28.7127 42.4867 28.0398C41.5691 25.7966 40.6514 23.5534 39.7338 21.3102C39.7016 21.2301 39.6694 21.166 39.6372 21.0859C35.9666 21.0859 32.312 21.0859 28.6253 21.0859C28.5448 21.2782 28.4804 21.4705 28.416 21.6467C27.756 23.3291 27.0959 25.0275 26.4519 26.7099C26.1139 27.5751 25.8402 28.4564 25.6792 29.3697C25.5504 30.1548 25.5343 30.9239 25.8241 31.6769C26.2909 32.8947 27.1925 33.6317 28.4482 33.9682C28.8185 34.0643 29.1888 34.1124 29.5913 34.1925C29.5913 34.3527 29.5913 34.529 29.5913 34.7212C25.8563 34.7212 22.1374 34.7212 18.4023 34.7212C18.4023 34.545 18.4023 34.3687 18.4023 34.1765C18.5955 34.1444 18.7726 34.1284 18.9658 34.0964C20.1572 33.9361 21.1553 33.3753 21.9603 32.5101C22.6364 31.7891 23.1999 30.988 23.6668 30.1227C24.3429 28.889 24.8903 27.5911 25.4055 26.2933C26.9671 22.3517 28.5126 18.3941 30.0421 14.4365C31.7808 9.96617 33.5356 5.49584 35.2743 1.0255C35.3065 0.929365 35.3387 0.817206 35.3548 0.721069C35.87 0.78516 36.3529 0.78516 36.852 0.78516ZM39.2347 20.1085C37.4799 15.7984 35.7412 11.5364 33.9864 7.24231C33.9381 7.33845 33.922 7.38651 33.8898 7.43458C32.2798 11.6165 30.6699 15.8145 29.06 19.9964C29.06 20.0124 29.06 20.0284 29.06 20.0445C29.06 20.0605 29.06 20.0605 29.06 20.0765L29.0761 20.0925C32.4569 20.1085 35.8217 20.1085 39.2347 20.1085Z" fill="#2C2210"/>
<path d="M1.46532 56.6883C2.04489 56.6723 2.51177 56.4159 2.88205 55.9673C3.18793 55.6148 3.42942 55.2142 3.60651 54.7816C4.07339 53.66 4.52416 52.5384 4.97494 51.4008C5.7799 49.3339 6.58486 47.267 7.38982 45.184C7.42202 45.0879 7.47031 44.9917 7.51861 44.8636C7.6796 44.8636 7.8406 44.8636 8.03379 44.8636C8.06598 44.9437 8.11428 45.0238 8.14648 45.1199C9.45051 48.2604 10.7706 51.4168 12.0747 54.5573C12.2196 54.9098 12.3967 55.2463 12.5738 55.5827C12.944 56.3198 13.588 56.6242 14.3608 56.6242C15.2462 56.6242 15.8902 56.1435 16.019 55.2142C16.0673 54.9098 16.0834 54.6054 16.0834 54.2849C16.0834 51.9937 16.0834 49.7184 16.0834 47.4272C16.0834 47.0587 16.0512 46.6901 15.9868 46.3216C15.8741 45.6487 15.4394 45.2641 14.7793 45.1199C14.6345 45.0879 14.4896 45.0719 14.3447 45.0558C14.2159 45.0398 14.1998 44.9597 14.2481 44.8475C15.5038 44.8475 16.7756 44.8475 18.0797 44.8475C19.3354 47.9399 20.6072 51.0643 21.8952 54.2368C23.2314 51.0643 24.5516 47.9559 25.8556 44.8475C27.0791 44.8475 28.2705 44.8475 29.4618 44.8475C29.494 44.9597 29.5101 45.0398 29.3491 45.0558C29.2042 45.0719 29.0593 45.0879 28.9144 45.1199C28.3832 45.2161 27.7714 45.6647 27.707 46.4178C27.6748 46.8664 27.6265 47.299 27.6265 47.7476C27.6104 49.8306 27.6265 51.8975 27.6265 53.9805C27.6265 54.381 27.6587 54.7976 27.6909 55.1982C27.7875 56.0955 28.3832 56.464 29.0593 56.5922C29.1881 56.6082 29.3169 56.6402 29.4457 56.6563C29.4779 56.7684 29.494 56.8485 29.333 56.8485C29.2847 56.8485 29.2364 56.8485 29.2042 56.8485C27.5138 56.8485 25.8073 56.8485 24.1169 56.8485C24.0203 56.8485 23.9398 56.8485 23.8432 56.8485C23.8432 56.7684 23.8432 56.7204 23.8271 56.6563C23.9881 56.6402 24.1169 56.6082 24.2618 56.5922C25.0345 56.48 25.5175 55.9833 25.6141 55.2142C25.6463 54.9418 25.6785 54.6534 25.6785 54.381C25.6785 51.7854 25.6785 49.1737 25.6785 46.578C25.6785 46.5299 25.6785 46.4658 25.6785 46.4178C25.6624 46.4178 25.6463 46.4017 25.6302 46.4017C25.598 46.4819 25.5497 46.562 25.5175 46.6421C24.1008 49.9588 22.6679 53.2755 21.2512 56.5922C21.219 56.6563 21.2029 56.7364 21.1707 56.7844C21.1063 56.8966 20.9936 56.8966 20.9131 56.7844C20.8809 56.7364 20.8648 56.6723 20.8326 56.6082C19.4159 53.3396 18.0153 50.087 16.5986 46.8183C16.5664 46.7222 16.5181 46.6421 16.4215 46.562C16.4215 46.6421 16.4215 46.7382 16.4215 46.8183C16.4215 49.3179 16.4215 51.8174 16.4215 54.333C16.4215 54.6374 16.4376 54.9258 16.4859 55.2302C16.5825 55.9993 17.0654 56.496 17.8382 56.6082C17.9509 56.6242 18.0475 56.6402 18.1602 56.6563C18.2729 56.6723 18.289 56.7364 18.2568 56.8325C18.0636 56.8806 8.96754 56.8966 8.61336 56.8485C8.61336 56.8005 8.61336 56.7524 8.59726 56.6883C8.80655 56.6563 9.01584 56.6242 9.22513 56.5762C9.37002 56.5441 9.51491 56.496 9.6437 56.432C10.0945 56.1916 10.3199 55.743 10.2233 55.2463C10.175 55.038 10.1267 54.8137 10.0462 54.6214C9.7242 53.8202 9.38612 53.0031 9.06413 52.202C9.04803 52.1539 9.01584 52.1058 8.98364 52.0578C7.6957 52.0578 6.40777 52.0578 5.13593 52.0578C5.11983 52.0898 5.08763 52.1058 5.08763 52.1379C4.79785 52.8749 4.50806 53.628 4.23438 54.381C4.15388 54.6054 4.10558 54.8457 4.05729 55.086C3.94459 55.8231 4.36317 56.4319 5.08763 56.6082C5.20033 56.6402 5.31302 56.6563 5.44182 56.6723C5.44182 56.7364 5.44182 56.7844 5.44182 56.8646C5.34522 56.8646 5.24863 56.8646 5.15203 56.8646C4.02509 56.8646 2.89815 56.8646 1.7551 56.8646C1.65851 56.8646 1.56191 56.8646 1.44922 56.8806C1.46532 56.8325 1.46532 56.7524 1.46532 56.6883ZM5.28083 51.6572C5.796 51.7053 8.62946 51.6892 8.83874 51.6251C8.24307 50.1511 7.63131 48.6609 7.00344 47.1388C6.42387 48.693 5.8604 50.1671 5.28083 51.6572Z" fill="#2C2210"/>
<path d="M37.1092 50.84C37.1897 50.8881 37.2219 50.9202 37.2702 50.9362C37.7532 51.1445 38.1074 51.513 38.3327 51.9937C38.703 52.7307 39.0572 53.4838 39.4436 54.2048C39.7173 54.7496 40.0071 55.2783 40.329 55.8071C40.4578 56.0314 40.6349 56.2397 40.8281 56.416C41.0857 56.6563 41.2467 56.6883 41.5365 56.4961C41.7619 56.3519 41.9712 56.1756 42.1643 55.9833C42.5024 55.6148 42.7439 55.1662 42.9371 54.7175C43.3557 53.7241 43.7582 52.7147 44.1445 51.7213C44.9978 49.5422 45.8511 47.3471 46.7043 45.152C46.7365 45.0719 46.7687 44.9918 46.817 44.8956C46.978 44.8956 47.139 44.8956 47.3161 44.8956C47.3483 44.9757 47.3966 45.0559 47.4288 45.152C48.7167 48.2604 50.0047 51.3688 51.3087 54.4772C51.4858 54.9098 51.6951 55.3264 51.9044 55.727C52.1619 56.2077 52.5644 56.5121 53.1118 56.6242C54.0294 56.8005 54.8505 56.2557 54.9632 55.3104C55.0115 54.9258 55.0276 54.5253 55.0276 54.1407C55.0276 51.8655 55.0276 49.5903 55.0276 47.3151C55.0276 46.9786 54.9954 46.6421 54.931 46.3216C54.8022 45.6968 54.3997 45.3282 53.788 45.184C53.6431 45.152 53.4821 45.136 53.3372 45.1199C53.2245 45.1039 53.2245 45.1039 53.2084 44.9277C53.2728 44.9116 53.3211 44.9116 53.3855 44.9116C55.3657 44.9116 57.3459 44.9116 59.3261 44.9277C59.7769 44.9277 60.2276 44.9757 60.6462 45.0719C62.1756 45.4084 63.206 46.8504 63.0611 48.4046C62.9323 49.7505 62.1273 50.6318 60.7589 50.8881C60.3242 50.9682 59.8896 50.9843 59.4549 51.0003C58.7465 51.0163 58.0542 51.0003 57.3459 51.0003C57.2493 51.0003 57.1527 51.0003 57.04 51.0003C57.0239 51.0804 57.0078 51.1445 57.0078 51.1926C57.0078 52.3302 57.0078 53.4678 57.0078 54.5894C57.0078 54.8297 57.04 55.0861 57.0722 55.3264C57.1688 56.0474 57.6518 56.5441 58.3923 56.6563C58.5372 56.6883 58.6982 56.7044 58.8592 56.7204C58.8592 56.7845 58.8592 56.8325 58.8592 56.9127C58.7626 56.9127 58.666 56.9127 58.5855 56.9127C55.1242 56.9127 51.679 56.9127 48.2176 56.9127C48.1693 56.9127 48.1049 56.9127 48.0566 56.9127C47.9279 56.9127 47.9279 56.8325 47.9601 56.7204C48.0566 56.7044 48.1854 56.6883 48.2981 56.6563C48.4752 56.6242 48.6362 56.5922 48.7972 56.5441C49.3768 56.3519 49.6827 55.8391 49.5539 55.2463C49.5056 55.038 49.4573 54.8457 49.3768 54.6535C49.0548 53.8523 48.7167 53.0352 48.3947 52.234C48.3786 52.186 48.3625 52.1539 48.3303 52.1058C47.0424 52.1058 45.7706 52.1058 44.4665 52.1058C44.4504 52.1539 44.4182 52.202 44.386 52.2661C44.1445 52.8749 43.887 53.4998 43.6777 54.1247C43.565 54.4612 43.4523 54.7977 43.404 55.1502C43.2752 55.8872 43.7099 56.4961 44.4343 56.6723C44.547 56.7044 44.6436 56.7204 44.7724 56.7364C44.7724 56.8005 44.7724 56.8486 44.7885 56.9287C42.7439 56.9287 40.7315 56.9287 38.6869 56.9287C38.6386 56.8486 38.5903 56.7524 38.5581 56.6563C38.1073 55.6629 37.6566 54.6535 37.1736 53.66C36.9321 53.1473 36.6262 52.6666 36.3364 52.202C36.1754 51.9616 35.9823 51.7373 35.7891 51.529C35.5154 51.2406 35.1612 51.0964 34.7587 51.0804C34.5172 51.0644 34.2918 51.0804 34.0343 51.0804C34.0343 51.1765 34.0182 51.2566 34.0182 51.3368C34.0182 52.3622 34.0021 53.3877 34.0182 54.4131C34.0182 54.7816 34.0504 55.1341 34.1148 55.4866C34.2435 56.1596 34.7265 56.5762 35.4027 56.6883C35.5476 56.7044 35.6925 56.7364 35.8535 56.7524C35.8535 56.8165 35.8535 56.8646 35.8696 56.9447C35.7569 56.9447 35.6764 56.9447 35.5798 56.9447C33.8894 56.9447 32.1829 56.9447 30.4924 56.9447C30.4441 56.9447 30.3797 56.9447 30.3314 56.9447C30.2027 56.9447 30.2187 56.8646 30.2348 56.7524C30.3636 56.7364 30.5085 56.7044 30.6534 56.6883C31.394 56.5762 31.8931 56.0955 31.9897 55.3585C32.038 55.038 32.0541 54.7336 32.0541 54.4131C32.0541 52.1058 32.0541 49.7826 32.0541 47.4753C32.0541 47.1869 32.0219 46.8985 32.0058 46.6101C31.9414 45.873 31.4584 45.2641 30.4924 45.168C30.4119 45.168 30.3314 45.152 30.2348 45.136C30.2348 45.0719 30.2348 45.0078 30.2188 44.9277C30.3314 44.9277 30.4119 44.9277 30.5085 44.9277C32.2472 44.9277 33.986 44.9277 35.7247 44.9277C36.4169 44.9277 37.0931 45.0078 37.7532 45.2001C38.7513 45.5205 39.4919 46.1294 39.7656 47.1709C40.1841 48.7731 39.4114 50.1511 37.9464 50.6478C37.6405 50.6798 37.399 50.7439 37.1092 50.84ZM56.9756 50.6638C57.0561 50.6638 57.1366 50.6798 57.201 50.6798C57.6518 50.6638 58.1186 50.6638 58.5694 50.6478C59.5998 50.5837 60.3886 50.0069 60.7106 49.0295C61.0004 48.1162 60.936 47.2189 60.4691 46.3697C60.0988 45.7128 59.5354 45.3122 58.7787 45.2001C58.4245 45.152 58.0703 45.168 57.7162 45.152C57.4747 45.152 57.2332 45.152 56.9756 45.152C56.9756 46.9946 56.9756 48.8212 56.9756 50.6638ZM33.9699 50.824C34.4689 50.808 34.9358 50.776 35.4188 50.7599C35.9984 50.7279 36.4652 50.4715 36.8516 50.071C37.9786 48.9173 37.8659 47.0747 36.9804 46.0172C36.6423 45.6167 36.2076 45.3282 35.6925 45.2642C35.1934 45.2001 34.6943 45.184 34.1952 45.152C34.1309 45.152 34.0504 45.168 33.9699 45.168C33.9699 47.0427 33.9699 48.9013 33.9699 50.824ZM46.2857 47.1388C45.6901 48.677 45.1266 50.1671 44.547 51.6572C45.7545 51.6572 46.9136 51.6572 48.121 51.6572C47.5254 50.1671 46.9136 48.693 46.2857 47.1388Z" fill="#2C2210"/>
<path d="M71.6577 44.8635C71.7704 44.8635 71.867 44.8635 71.9636 44.8635C74.958 44.8635 77.9364 44.8635 80.9308 44.8635C81.6392 44.8635 82.3315 44.9276 83.0076 45.1359C84.0541 45.4563 84.7946 46.1133 85.0361 47.2188C85.3742 48.741 84.6497 50.0709 83.2008 50.5836C82.9593 50.6637 82.7017 50.7438 82.412 50.8239C82.4764 50.872 82.5247 50.9041 82.573 50.9201C83.0398 51.1284 83.3779 51.4809 83.6033 51.9295C83.9414 52.6185 84.2795 53.3075 84.6336 53.9964C84.8912 54.5092 85.1649 55.0059 85.4386 55.5026C85.5513 55.7109 85.6962 55.9031 85.825 56.0954C86.0343 56.3838 86.2919 56.5761 86.646 56.6242C86.7587 56.6402 86.8714 56.6722 86.7909 56.8485C85.8411 56.8485 84.8912 56.8485 83.9253 56.8485C83.8931 56.7684 83.8448 56.6883 83.7965 56.5921C83.3457 55.5987 82.8949 54.5893 82.4281 53.5959C82.1866 53.0831 81.8807 52.6185 81.5909 52.1378C81.4621 51.9135 81.285 51.7212 81.1079 51.5129C80.802 51.1764 80.3996 51.0002 79.9488 50.9842C79.7395 50.9842 79.5141 50.9842 79.2887 50.9842C79.2887 51.0803 79.2726 51.1444 79.2726 51.2085C79.2726 52.282 79.2726 53.3715 79.2887 54.4451C79.2887 54.7014 79.3209 54.9738 79.3531 55.2302C79.4497 55.9833 79.9488 56.48 80.7055 56.5921C80.8342 56.6081 80.9791 56.6242 81.124 56.6562C81.1723 56.7684 81.1723 56.8485 81.0113 56.8485C80.963 56.8485 80.9147 56.8485 80.8825 56.8485C79.176 56.8485 77.4695 56.8485 75.763 56.8485C75.6825 56.8485 75.602 56.8485 75.5054 56.8325C75.4732 56.7363 75.4571 56.6402 75.5859 56.6242C75.6986 56.6081 75.8274 56.5921 75.9401 56.5761C76.6807 56.4639 77.1797 55.9512 77.2763 55.1981C77.3085 54.9258 77.3407 54.6373 77.3407 54.365C77.3407 51.9616 77.3407 49.5581 77.3407 47.1547C77.3407 46.8343 77.3085 46.5138 77.228 46.2094C77.0992 45.6486 76.7289 45.2961 76.1816 45.1359C75.8113 45.0237 75.441 45.0237 75.0707 45.1199C74.3946 45.3121 74.0404 45.7768 73.9438 46.4497C73.8955 46.7702 73.8794 47.1067 73.8794 47.4271C73.8794 49.43 73.8794 51.4328 73.8633 53.4356C73.8633 53.8042 73.815 54.1727 73.7667 54.5412C73.7023 55.102 73.4286 55.5506 73.0261 55.9352C72.4144 56.496 71.6738 56.8325 70.8688 56.9767C69.5648 57.233 68.2608 57.201 66.9728 56.8485C66.7314 56.7844 66.4899 56.6883 66.2645 56.5761C65.2019 56.0634 64.6546 55.1981 64.5902 54.0285C64.5741 53.7401 64.5741 53.4677 64.5741 53.1793C64.5741 51.3527 64.5741 49.5261 64.5741 47.7155C64.5741 47.347 64.558 46.9785 64.5258 46.5939C64.4614 45.6807 63.9462 45.1519 63.0285 45.0397C62.9319 45.0237 62.8515 45.0237 62.7388 45.0077C62.7388 44.9436 62.7227 44.8955 62.7227 44.8154C64.6063 44.8154 66.4738 44.8154 68.3413 44.8154C68.3896 44.9436 68.3735 45.0077 68.2286 45.0237C68.0837 45.0397 67.9388 45.0558 67.7939 45.0878C67.166 45.216 66.6992 45.6646 66.6026 46.2895C66.5382 46.7221 66.506 47.1547 66.506 47.5874C66.506 49.478 66.506 51.3847 66.506 53.2754C66.506 53.7721 66.5221 54.2688 66.6509 54.7655C66.9567 55.9192 67.8422 56.6722 69.0174 56.8004C69.9512 56.9126 70.8527 56.7684 71.7221 56.4159C71.7704 56.3998 71.8026 56.3838 71.8509 56.3678C72.9134 55.9031 73.493 55.118 73.493 53.9323C73.493 53.5318 73.5091 53.1312 73.5091 52.7306C73.5091 50.9041 73.5091 49.0775 73.5091 47.2669C73.5091 46.9945 73.493 46.7221 73.4447 46.4497C73.3481 45.6326 72.8168 45.1519 71.9475 45.0397C71.8992 45.0397 71.8348 45.0237 71.7865 45.0237C71.6416 45.0878 71.6255 45.0077 71.6577 44.8635ZM79.2887 50.8239C79.8039 50.7919 80.2708 50.7759 80.7537 50.7598C81.2689 50.7278 81.7197 50.5035 82.09 50.151C83.3296 48.9813 83.2008 47.0266 82.251 45.953C81.929 45.5845 81.5265 45.3442 81.0435 45.2641C80.6893 45.2 80.3191 45.1839 79.9649 45.1519C79.7556 45.1359 79.5302 45.1519 79.3048 45.1519C79.2887 47.0426 79.2887 48.9012 79.2887 50.8239Z" fill="#2C2210"/>
</g>
<defs>
<clipPath id="clip0_83_902">
<rect width="87" height="57" fill="white" transform="translate(0.5)"/>
</clipPath>
</defs>
</svg>
