<svg width="20" height="20" viewBox="0 0 20 20" fill="none" xmlns="http://www.w3.org/2000/svg">
<g clip-path="url(#clip0_47_929)">
<path d="M10.0002 9.14506C10.8486 9.14506 11.6184 8.79895 12.175 8.24069C12.7296 7.68476 13.0726 6.91786 13.0726 6.07261C13.0726 4.37831 11.6945 3 10.0003 3C8.30604 3 6.92773 4.37812 6.92773 6.07261C6.92773 6.91816 7.27106 7.68446 7.82565 8.24069C8.38214 8.79895 9.15156 9.14506 10.0002 9.14506H10.0002Z" fill="white"/>
<path d="M18.0413 8.47192C17.4938 9.08096 16.7006 9.46494 15.819 9.46494C15.3097 9.46494 14.832 9.33362 14.4121 9.10812C15.5063 10.3615 16.1328 12.0412 16.1328 13.8358C16.1328 14.0758 16.1174 14.2969 16.0903 14.504C18.2736 14.5182 20.0006 14.6558 20.0006 12.4542C20.0012 10.7758 19.2183 9.30381 18.0414 8.47204L18.0413 8.47192Z" fill="white"/>
<path d="M15.817 8.84223C16.4705 8.84223 17.0631 8.57564 17.4918 8.14576C17.9188 7.71765 18.1828 7.12724 18.1828 6.47595C18.1828 5.17133 17.1216 4.11011 15.817 4.11011C14.5124 4.11011 13.4512 5.17163 13.4512 6.47595C13.4512 7.12724 13.7153 7.71734 14.1425 8.14576C14.5709 8.57563 15.1635 8.84223 15.817 8.84223Z" fill="white"/>
<path d="M5.5899 9.10763C5.16967 9.33358 4.69183 9.46504 4.18225 9.46504C3.3009 9.46504 2.50744 9.08106 1.95989 8.47217C0.782905 9.30394 0 10.7758 0 12.4543C0 14.4705 1.73216 14.5034 3.91828 14.503C3.886 14.2926 3.86825 14.071 3.86825 13.836C3.8684 12.0411 4.49547 10.3612 5.58986 9.1075L5.5899 9.10763Z" fill="white"/>
<path d="M4.1842 8.84223C4.83767 8.84223 5.43029 8.57564 5.859 8.14576C6.28595 7.71765 6.55004 7.12724 6.55004 6.47595C6.55004 5.17133 5.48881 4.11011 4.1842 4.11011C2.87973 4.11011 1.81836 5.17163 1.81836 6.47595C1.81836 7.12724 2.08245 7.71734 2.50969 8.14576C2.93825 8.57563 3.53073 8.84223 4.1842 8.84223Z" fill="white"/>
<path d="M13.1358 8.85172C13.0545 8.78701 12.9725 8.72393 12.8879 8.66406C12.1764 9.45489 11.1463 9.95343 10.0016 9.95343C8.85685 9.95343 7.82677 9.45515 7.11575 8.66406C7.03139 8.72363 6.94908 8.78701 6.8675 8.85172C5.47852 9.95711 4.57031 11.7763 4.57031 13.8356C4.57031 14.0807 4.58997 14.303 4.62798 14.5049C4.99389 16.4486 7.05737 16.496 9.60809 16.496C9.73779 16.496 9.86896 16.4957 10.0012 16.4957C10.5273 16.4957 11.036 16.5056 11.5168 16.5056C13.552 16.5056 15.0902 16.3255 15.3787 14.5027C15.411 14.2997 15.432 14.0816 15.432 13.8357C15.4326 11.7765 14.5245 9.95726 13.1357 8.85186L13.1358 8.85172Z" fill="white"/>
</g>
<defs>
<clipPath id="clip0_47_929">
<rect width="20" height="20" fill="white"/>
</clipPath>
</defs>
</svg>
