<svg width="20" height="20" viewBox="0 0 20 20" fill="none" xmlns="http://www.w3.org/2000/svg">
<path d="M19.9999 7.55787V2.39963C19.9999 1.63984 19.3601 1 18.6003 1L8.80392 1.00028C8.04413 1.00028 7.4043 1.64011 7.4043 2.39991V7.55786C7.4043 8.31766 8.04412 8.95749 8.80392 8.95749H9.48363V10.9568C9.48363 11.5564 10.2032 11.8763 10.6431 11.4365L13.1622 8.91735H18.6002C19.36 8.95724 19.9995 8.31741 19.9995 7.55792L19.9999 7.55787ZM10.4435 5.9184C9.92356 5.9184 9.48374 5.47855 9.48374 4.95869C9.48374 4.43882 9.92359 3.99897 10.4435 3.99897C10.9633 3.99897 11.4032 4.43882 11.4032 4.95869C11.4032 5.51847 11.0032 5.9184 10.4435 5.9184ZM13.7224 5.9184C13.2025 5.9184 12.7627 5.47855 12.7627 4.95869C12.7627 4.43882 13.2025 3.99897 13.7224 3.99897C14.2422 3.99897 14.6821 4.43882 14.6821 4.95869C14.6419 5.51847 14.2422 5.9184 13.7224 5.9184ZM16.9611 5.9184C16.4412 5.9184 16.0014 5.47855 16.0014 4.95869C16.0014 4.43882 16.4412 3.99897 16.9611 3.99897C17.481 3.99897 17.9208 4.43882 17.9208 4.95869C17.8807 5.51847 17.481 5.9184 16.9611 5.9184Z" fill="white"/>
<path d="M12.6027 15.5148L10.6434 13.9554C10.2434 13.6355 9.64376 13.7155 9.32388 14.0753C8.96408 14.4753 8.72422 14.755 8.68405 14.8351C8.08439 15.4348 6.8446 14.5551 5.56522 13.2757C4.28555 11.996 3.40617 10.7566 4.0058 10.1569C4.08585 10.0768 4.32572 9.83694 4.76559 9.51703C5.16555 9.19711 5.20544 8.59744 4.88552 8.19752L3.3261 6.23819C3.04607 5.91827 2.60652 5.79834 2.20652 5.95816C1.68663 6.19802 0.727145 6.95778 0.487306 7.23782C-0.912314 8.63744 0.847107 11.8762 3.92602 14.9549C7.00495 18.0338 10.2437 19.7933 11.6431 18.3936C11.883 18.1538 12.6827 17.194 12.9228 16.6744C13.0427 16.2349 12.9228 15.795 12.6029 15.515L12.6027 15.5148Z" fill="white"/>
</svg>
