<svg width="274" height="221" viewBox="0 0 274 221" fill="none" xmlns="http://www.w3.org/2000/svg">
<g opacity="0.1">
<circle r="84.9623" transform="matrix(1 0 0 -1 109.962 112.038)" stroke="white" stroke-width="4"/>
<path d="M108.098 7.20583C166.237 7.20583 213.368 54.3369 213.368 112.476C213.368 170.615 166.237 217.746 108.098 217.746" stroke="white" stroke-width="4"/>
<path d="M2.83083 112.561C2.83082 54.4215 49.9619 7.29042 108.101 7.29042C166.24 7.29041 213.371 54.4215 213.371 112.561" stroke="white" stroke-width="4"/>
<path d="M222.738 162.869C249.391 100.588 220.51 28.493 158.229 1.83945" stroke="white" stroke-width="4"/>
<g clip-path="url(#clip0)">
<path d="M154.19 101.854L110.688 79.3531C110.257 79.1297 109.743 79.1297 109.311 79.3531L65.8101 101.854C65.3128 102.112 65 102.625 65 103.185C65 103.746 65.3128 104.26 65.8101 104.518L85.9991 114.961V131.686C85.9991 137.673 96.3163 142.186 110 142.186C123.683 142.186 134 137.673 134 131.686V114.961L143.001 110.311V118.468C141.211 119.101 140.011 120.788 140.001 122.686V143.686C140.001 144.515 140.672 145.186 141.501 145.186H147.501C148.329 145.186 149.001 144.515 149.001 143.686V122.686C148.994 120.786 147.792 119.095 146.001 118.462V108.754L154.19 104.518C154.688 104.26 155 103.746 155 103.185C155 102.625 154.688 102.112 154.19 101.854ZM146.001 142.186H143.001V122.686C143.001 121.857 143.672 121.186 144.501 121.186C145.329 121.186 146.001 121.857 146.001 122.686V142.186ZM131 131.686C131 135.227 122.02 139.186 110 139.186C97.9804 139.186 88.9992 135.227 88.9992 131.686V116.514L109.311 127.014C109.743 127.239 110.257 127.239 110.688 127.014L131 116.514V131.686ZM144.466 106.169L110.193 101.698C109.371 101.591 108.619 102.17 108.512 102.992C108.405 103.814 108.985 104.567 109.806 104.674L139.796 108.586L131.816 112.714L110 123.997L88.1877 112.714H88.1789L69.7645 103.185L110 82.3737L150.234 103.185L144.466 106.169Z" fill="white"/>
</g>
</g>
<defs>
<clipPath id="clip0">
<rect width="90" height="90" fill="white" transform="translate(65 67)"/>
</clipPath>
</defs>
</svg>
