<svg width="302" height="250" viewBox="0 0 302 250" fill="none" xmlns="http://www.w3.org/2000/svg">
<g filter="url(#filter0_d)">
<g opacity="0.85" clip-path="url(#clip0)">
<path d="M157.984 91.0029L141.072 85.941C140.681 85.8242 140.26 85.8599 139.894 86.0411C139.527 86.2222 139.243 86.5353 139.099 86.9174L136.459 93.8451V93.8497L133.688 101.119C133.547 101.488 133.546 101.896 133.685 102.266C133.825 102.636 134.095 102.941 134.445 103.125L138.779 105.405L128.988 121.741L132.555 108.31C132.649 107.959 132.621 107.586 132.476 107.252C132.331 106.919 132.078 106.644 131.758 106.472L127.131 103.984L129.666 91.7917C129.666 91.7806 129.666 91.7705 129.666 91.7594L131.169 84.5213C131.251 84.125 131.181 83.7123 130.973 83.3649C130.766 83.0175 130.435 82.7607 130.047 82.6453L124.943 81.1194C124.642 81.0292 124.321 81.0292 124.019 81.1194L90.9788 91.0029C90.6454 91.1026 90.353 91.3071 90.145 91.5862C89.937 91.8652 89.8245 92.2039 89.8242 92.5519V127.883C89.8242 135.904 93.64 144.538 100.569 152.196C107.053 159.363 115.604 164.888 124.03 167.352C124.327 167.439 124.642 167.439 124.938 167.352C133.361 164.883 141.91 159.36 148.4 152.197C155.328 144.531 159.144 135.902 159.144 127.883V92.5519C159.143 92.2033 159.03 91.8641 158.821 91.5849C158.612 91.3058 158.319 91.1016 157.984 91.0029ZM129.1 108.716L122.911 131.994C122.804 132.373 122.84 132.778 123.011 133.132C123.182 133.487 123.476 133.767 123.839 133.92C124.202 134.073 124.608 134.089 124.982 133.963C125.355 133.838 125.67 133.581 125.867 133.24L142.428 105.593C142.541 105.405 142.614 105.195 142.643 104.977C142.673 104.76 142.657 104.538 142.598 104.326C142.538 104.115 142.436 103.918 142.298 103.747C142.16 103.576 141.988 103.435 141.794 103.332L137.215 100.924L138.942 96.3982L148.514 99.2616V127.883C148.514 139.089 135.94 151.978 124.48 156.311C113.022 151.978 100.447 139.089 100.447 127.883V99.2607L124.481 92.0688L126.198 92.5833L123.722 104.508C123.65 104.85 123.691 105.205 123.838 105.521C123.985 105.838 124.231 106.098 124.538 106.263L129.1 108.716ZM155.904 127.883C155.904 135.099 152.386 142.963 145.997 150.029C140.18 156.524 132.761 161.38 124.481 164.113C109.522 159.52 93.0571 143.659 93.0571 127.883V93.7527L124.481 84.3551L127.706 85.3176L126.857 89.4058L124.946 88.8331C124.643 88.7412 124.32 88.7412 124.017 88.8331L98.3665 96.509C98.0335 96.6089 97.7415 96.8134 97.5339 97.0922C97.3262 97.3711 97.214 97.7094 97.2137 98.0571V127.883C97.2137 140.949 111.298 155.061 123.94 159.555C124.29 159.68 124.672 159.68 125.022 159.555C137.663 155.061 151.748 140.953 151.748 127.883V98.0571C151.748 97.7093 151.635 97.3707 151.428 97.0917C151.22 96.8127 150.928 96.608 150.595 96.5081L140.097 93.3675L141.584 89.4686L155.904 93.7527V127.883Z" fill="#C92A2A"/>
</g>
<circle cx="123.96" cy="123.96" r="84.9598" stroke="#C92A2A" stroke-width="4"/>
<path d="M122.098 228.298C180.235 228.298 227.366 180.237 227.366 122.099C227.366 63.9617 180.237 16.832 122.099 16.832" stroke="#C92A2A" stroke-width="4"/>
<path d="M16.8563 123.021C16.8563 181.159 63.986 228.289 122.123 228.289C180.261 228.289 227.391 181.159 227.391 123.021" stroke="#C92A2A" stroke-width="4"/>
<path d="M236.739 72.7083C263.392 134.988 234.511 207.081 172.232 233.734" stroke="#C92A2A" stroke-width="4"/>
</g>
<defs>
<filter id="filter0_d" x="0.855469" y="0.832031" width="300.769" height="248.741" filterUnits="userSpaceOnUse" color-interpolation-filters="sRGB">
<feFlood flood-opacity="0" result="BackgroundImageFix"/>
<feColorMatrix in="SourceAlpha" type="matrix" values="0 0 0 0 0 0 0 0 0 0 0 0 0 0 0 0 0 0 127 0"/>
<feOffset/>
<feGaussianBlur stdDeviation="7"/>
<feColorMatrix type="matrix" values="0 0 0 0 1 0 0 0 0 0.201667 0 0 0 0 0.201667 0 0 0 1 0"/>
<feBlend mode="normal" in2="BackgroundImageFix" result="effect1_dropShadow"/>
<feBlend mode="normal" in="SourceGraphic" in2="effect1_dropShadow" result="shape"/>
</filter>
<clipPath id="clip0">
<rect width="86.4685" height="86.4685" fill="white" transform="translate(81 81)"/>
</clipPath>
</defs>
</svg>
