<svg width="274" height="222" viewBox="0 0 274 222" fill="none" xmlns="http://www.w3.org/2000/svg">
<g opacity="0.1">
<g opacity="0.85" clip-path="url(#clip0)">
<path d="M143.984 77.0029L127.072 71.941C126.681 71.8242 126.26 71.8599 125.894 72.0411C125.527 72.2222 125.243 72.5353 125.099 72.9174L122.459 79.8451V79.8497L119.688 87.1191C119.547 87.4883 119.546 87.8964 119.685 88.2661C119.825 88.6358 120.095 88.9415 120.445 89.1254L124.779 91.4051L114.988 107.741L118.555 94.3101C118.649 93.9587 118.621 93.586 118.476 93.2524C118.331 92.9188 118.078 92.6438 117.758 92.4719L113.131 89.9844L115.666 77.7917C115.666 77.7806 115.666 77.7705 115.666 77.7594L117.169 70.5213C117.251 70.125 117.181 69.7123 116.973 69.3649C116.766 69.0175 116.435 68.7607 116.047 68.6453L110.943 67.1194C110.642 67.0292 110.321 67.0292 110.019 67.1194L76.9788 77.0029C76.6454 77.1026 76.353 77.3071 76.145 77.5862C75.937 77.8652 75.8245 78.2039 75.8242 78.5519V113.883C75.8242 121.904 79.64 130.538 86.5686 138.196C93.0529 145.363 101.604 150.888 110.03 153.352C110.327 153.439 110.642 153.439 110.938 153.352C119.361 150.883 127.91 145.36 134.4 138.197C141.328 130.531 145.144 121.902 145.144 113.883V78.5519C145.143 78.2033 145.03 77.8641 144.821 77.5849C144.612 77.3058 144.319 77.1016 143.984 77.0029ZM115.1 94.7165L108.911 117.994C108.804 118.373 108.84 118.778 109.011 119.132C109.182 119.487 109.476 119.767 109.839 119.92C110.202 120.073 110.608 120.089 110.982 119.963C111.355 119.838 111.67 119.581 111.867 119.24L128.428 91.5935C128.541 91.4049 128.614 91.1952 128.643 90.9774C128.673 90.7595 128.657 90.538 128.598 90.3264C128.538 90.1148 128.436 89.9175 128.298 89.7466C128.16 89.5757 127.988 89.4347 127.794 89.3323L123.215 86.9242L124.942 82.3982L134.514 85.2616V113.883C134.514 125.089 121.94 137.978 110.48 142.311C99.0218 137.978 86.4467 125.089 86.4467 113.883V85.2607L110.481 78.0688L112.198 78.5833L109.722 90.5082C109.65 90.8496 109.691 91.2051 109.838 91.5215C109.985 91.8379 110.231 92.098 110.538 92.2632L115.1 94.7165ZM141.904 113.883C141.904 121.099 138.386 128.963 131.997 136.029C126.18 142.524 118.761 147.38 110.481 150.113C95.5219 145.52 79.0571 129.659 79.0571 113.883V79.7527L110.481 70.3551L113.706 71.3176L112.857 75.4058L110.946 74.8331C110.643 74.7412 110.32 74.7412 110.017 74.8331L84.3665 82.509C84.0335 82.6089 83.7415 82.8134 83.5339 83.0922C83.3262 83.3711 83.214 83.7094 83.2137 84.0571V113.883C83.2137 126.949 97.2982 141.061 109.94 145.555C110.29 145.68 110.672 145.68 111.022 145.555C123.663 141.061 137.748 126.953 137.748 113.883V84.0571C137.748 83.7093 137.635 83.3707 137.428 83.0917C137.22 82.8127 136.928 82.608 136.595 82.5081L126.097 79.3675L127.584 75.4686L141.904 79.7527V113.883Z" fill="white"/>
</g>
<circle cx="109.96" cy="109.96" r="84.9598" stroke="white" stroke-width="4"/>
<path d="M108.098 214.298C166.235 214.298 213.366 166.237 213.366 108.099C213.366 49.9617 166.237 2.83203 108.099 2.83203" stroke="white" stroke-width="4"/>
<path d="M2.85634 109.021C2.85633 167.159 49.986 214.289 108.123 214.289C166.261 214.289 213.391 167.159 213.391 109.021" stroke="white" stroke-width="4"/>
<path d="M222.739 58.7083C249.392 120.988 220.511 193.081 158.232 219.734" stroke="white" stroke-width="4"/>
</g>
<defs>
<clipPath id="clip0">
<rect width="86.4685" height="86.4685" fill="white" transform="translate(67 67)"/>
</clipPath>
</defs>
</svg>
