<svg width="274" height="221" viewBox="0 0 274 221" fill="none" xmlns="http://www.w3.org/2000/svg">
<g opacity="0.1">
<g clip-path="url(#clip0)">
<path d="M205.715 128.266L170.764 68.1058C169.157 65.3941 166.847 63.7871 164.437 63.7871C161.926 63.7871 159.616 65.3941 158.109 68.1058L123.359 128.266C121.752 130.977 121.551 133.79 122.857 135.899C124.062 138.008 126.573 139.213 129.787 139.213H199.287C202.401 139.213 204.912 138.008 206.217 135.899C207.422 133.79 207.222 130.977 205.715 128.266ZM202.401 133.79C201.899 134.593 200.794 134.995 199.187 134.995H129.687C128.08 134.995 126.874 134.493 126.473 133.79C125.97 132.986 126.171 131.781 126.975 130.375L161.725 70.2149C162.528 68.8088 163.533 68.0053 164.437 68.0053C165.341 68.0053 166.345 68.8088 167.148 70.2149L201.899 130.375C202.702 131.781 202.903 132.986 202.401 133.79Z" fill="white"/>
<path d="M164.5 90C163.071 90 162 90.675 162 91.575V112.425C162 113.325 163.071 114 164.5 114C165.929 114 167 113.325 167 112.425V91.575C167 90.675 165.929 90 164.5 90Z" fill="white"/>
<path d="M164.435 126.864C166.487 126.864 168.151 125.2 168.151 123.148C168.151 121.095 166.487 119.432 164.435 119.432C162.382 119.432 160.719 121.095 160.719 123.148C160.719 125.2 162.382 126.864 164.435 126.864Z" fill="white"/>
</g>
<circle r="84.9607" transform="matrix(-1 0 0 1 164.039 108.961)" stroke="white" stroke-width="4"/>
<path d="M165.902 213.245C107.764 213.245 60.6341 166.114 60.6341 107.976C60.6341 49.8382 107.764 2.70801 165.902 2.70801" stroke="white" stroke-width="4"/>
<path d="M271.169 108.015C271.169 166.153 224.039 213.283 165.901 213.283C107.763 213.283 60.6328 166.153 60.6328 108.015" stroke="white" stroke-width="4"/>
<path d="M51.2596 57.7068C24.6064 119.987 53.4875 192.081 115.767 218.734" stroke="white" stroke-width="4"/>
</g>
<defs>
<clipPath id="clip0">
<rect width="85" height="85" fill="white" transform="translate(122 59)"/>
</clipPath>
</defs>
</svg>
