<svg width="302" height="248" viewBox="0 0 302 248" fill="none" xmlns="http://www.w3.org/2000/svg">
<g filter="url(#filter0_d)">
<circle r="84.9623" transform="matrix(1 0 0 -1 123.962 126.038)" stroke="#2AE2B3" stroke-width="4"/>
<path d="M122.098 21.2058C180.237 21.2058 227.368 68.3369 227.368 126.476C227.368 184.615 180.237 231.746 122.098 231.746" stroke="#2AE2B3" stroke-width="4"/>
<path d="M16.8308 126.561C16.8308 68.4215 63.9619 21.2904 122.101 21.2904C180.24 21.2904 227.371 68.4215 227.371 126.561" stroke="#2AE2B3" stroke-width="4"/>
<path d="M236.738 176.869C263.391 114.588 234.51 42.493 172.229 15.8395" stroke="#2AE2B3" stroke-width="4"/>
<g clip-path="url(#clip0)">
<path d="M168.19 115.854L124.688 93.3531C124.257 93.1297 123.743 93.1297 123.311 93.3531L79.8101 115.854C79.3128 116.112 79 116.625 79 117.185C79 117.746 79.3128 118.26 79.8101 118.518L99.9991 128.961V145.686C99.9991 151.673 110.316 156.186 124 156.186C137.683 156.186 148 151.673 148 145.686V128.961L157.001 124.311V132.468C155.211 133.101 154.011 134.788 154.001 136.686V157.686C154.001 158.515 154.672 159.186 155.501 159.186H161.501C162.329 159.186 163.001 158.515 163.001 157.686V136.686C162.994 134.786 161.792 133.095 160.001 132.462V122.754L168.19 118.518C168.688 118.26 169 117.746 169 117.185C169 116.625 168.688 116.112 168.19 115.854ZM160.001 156.186H157.001V136.686C157.001 135.857 157.672 135.186 158.501 135.186C159.329 135.186 160.001 135.857 160.001 136.686V156.186ZM145 145.686C145 149.227 136.02 153.186 124 153.186C111.98 153.186 102.999 149.227 102.999 145.686V130.514L123.311 141.014C123.743 141.239 124.257 141.239 124.688 141.014L145 130.514V145.686ZM158.466 120.169L124.193 115.698C123.371 115.591 122.619 116.17 122.512 116.992C122.405 117.814 122.985 118.567 123.806 118.674L153.796 122.586L145.816 126.714L124 137.997L102.188 126.714H102.179L83.7645 117.185L124 96.3737L164.234 117.185L158.466 120.169Z" fill="#2AE2B3"/>
</g>
</g>
<defs>
<filter id="filter0_d" x="0.832031" y="0.000976562" width="300.792" height="247.745" filterUnits="userSpaceOnUse" color-interpolation-filters="sRGB">
<feFlood flood-opacity="0" result="BackgroundImageFix"/>
<feColorMatrix in="SourceAlpha" type="matrix" values="0 0 0 0 0 0 0 0 0 0 0 0 0 0 0 0 0 0 127 0"/>
<feOffset/>
<feGaussianBlur stdDeviation="7"/>
<feColorMatrix type="matrix" values="0 0 0 0 0.11124 0 0 0 0 0.754167 0 0 0 0 0.589941 0 0 0 1 0"/>
<feBlend mode="normal" in2="BackgroundImageFix" result="effect1_dropShadow"/>
<feBlend mode="normal" in="SourceGraphic" in2="effect1_dropShadow" result="shape"/>
</filter>
<clipPath id="clip0">
<rect width="90" height="90" fill="white" transform="translate(79 81)"/>
</clipPath>
</defs>
</svg>
