<svg width="302" height="249" viewBox="0 0 302 249" fill="none" xmlns="http://www.w3.org/2000/svg">
<g filter="url(#filter0_d)">
<g clip-path="url(#clip0)">
<path d="M219.715 142.266L184.764 82.1058C183.157 79.3941 180.847 77.7871 178.437 77.7871C175.926 77.7871 173.616 79.3941 172.109 82.1058L137.359 142.266C135.752 144.977 135.551 147.79 136.857 149.899C138.062 152.008 140.573 153.213 143.787 153.213H213.287C216.401 153.213 218.912 152.008 220.217 149.899C221.422 147.79 221.222 144.977 219.715 142.266ZM216.401 147.79C215.899 148.593 214.794 148.995 213.187 148.995H143.687C142.08 148.995 140.874 148.493 140.473 147.79C139.97 146.986 140.171 145.781 140.975 144.375L175.725 84.2149C176.528 82.8088 177.533 82.0053 178.437 82.0053C179.341 82.0053 180.345 82.8088 181.148 84.2149L215.899 144.375C216.702 145.781 216.903 146.986 216.401 147.79Z" fill="#FF6B00"/>
<path d="M178.5 104C177.071 104 176 104.675 176 105.575V126.425C176 127.325 177.071 128 178.5 128C179.929 128 181 127.325 181 126.425V105.575C181 104.675 179.929 104 178.5 104Z" fill="#FF6B00"/>
<path d="M178.435 140.864C180.487 140.864 182.151 139.2 182.151 137.148C182.151 135.095 180.487 133.432 178.435 133.432C176.382 133.432 174.719 135.095 174.719 137.148C174.719 139.2 176.382 140.864 178.435 140.864Z" fill="#FF6B00"/>
</g>
<circle r="84.9607" transform="matrix(-1 0 0 1 178.039 122.961)" stroke="#FF6B00" stroke-width="4"/>
<path d="M179.902 227.245C121.764 227.245 74.6341 180.114 74.6341 121.976C74.6341 63.8382 121.764 16.708 179.902 16.708" stroke="#FF6B00" stroke-width="4"/>
<path d="M285.169 122.015C285.169 180.153 238.039 227.283 179.901 227.283C121.763 227.283 74.6328 180.153 74.6328 122.015" stroke="#FF6B00" stroke-width="4"/>
<path d="M65.2596 71.7068C38.6064 133.987 67.4875 206.081 129.767 232.734" stroke="#FF6B00" stroke-width="4"/>
</g>
<defs>
<filter id="filter0_d" x="0.375" y="0.708008" width="300.794" height="247.865" filterUnits="userSpaceOnUse" color-interpolation-filters="sRGB">
<feFlood flood-opacity="0" result="BackgroundImageFix"/>
<feColorMatrix in="SourceAlpha" type="matrix" values="0 0 0 0 0 0 0 0 0 0 0 0 0 0 0 0 0 0 127 0"/>
<feOffset/>
<feGaussianBlur stdDeviation="7"/>
<feColorMatrix type="matrix" values="0 0 0 0 0.795833 0 0 0 0 0.402067 0 0 0 0 0.117386 0 0 0 1 0"/>
<feBlend mode="normal" in2="BackgroundImageFix" result="effect1_dropShadow"/>
<feBlend mode="normal" in="SourceGraphic" in2="effect1_dropShadow" result="shape"/>
</filter>
<clipPath id="clip0">
<rect width="85" height="85" fill="white" transform="translate(136 73)"/>
</clipPath>
</defs>
</svg>
