<svg width="285" height="86" viewBox="0 0 285 86" fill="none" xmlns="http://www.w3.org/2000/svg">
<g clip-path="url(#clip0)">
<path d="M118.495 45.1586L117.508 47.926H117.425C117.261 47.302 116.959 46.3524 116.465 45.2128L111.17 32.0539H105.984V53.0268H109.414V40.0849C109.414 39.271 109.414 38.3485 109.386 37.2089C109.359 36.6392 109.304 36.2051 109.277 35.8795H109.359C109.524 36.6934 109.716 37.2903 109.853 37.6702L116.218 52.9725H118.632L124.943 37.5345C125.08 37.1818 125.217 36.4764 125.354 35.8795H125.437C125.354 37.426 125.299 38.8097 125.272 39.6508V52.9454H128.921V31.9996H123.928L118.495 45.1586ZM132.378 37.9144H135.945V52.9454H132.378V37.9144ZM134.189 31.5655C133.585 31.5655 133.091 31.7826 132.68 32.1624C132.268 32.5423 132.049 33.0306 132.049 33.6275C132.049 34.1973 132.268 34.6857 132.68 35.0655C133.091 35.4454 133.585 35.6353 134.189 35.6353C134.792 35.6353 135.314 35.4182 135.698 35.0655C136.109 34.6857 136.329 34.1973 136.329 33.6275C136.329 33.0578 136.109 32.5694 135.698 32.1624C135.341 31.7826 134.82 31.5655 134.189 31.5655ZM148.593 37.7787C147.934 37.643 147.248 37.5617 146.59 37.5617C144.971 37.5617 143.49 37.9144 142.255 38.6198C141.02 39.3252 140.033 40.302 139.402 41.5229C138.743 42.771 138.414 44.2089 138.414 45.864C138.414 47.302 138.743 48.5772 139.374 49.7438C140.005 50.8834 140.883 51.8058 142.063 52.4299C143.188 53.0539 144.505 53.3795 145.986 53.3795C147.687 53.3795 149.141 53.0268 150.294 52.3756L150.321 52.3485V49.0927L150.184 49.2012C149.663 49.581 149.059 49.9066 148.456 50.0965C147.824 50.3136 147.248 50.4221 146.754 50.4221C145.328 50.4221 144.203 50.0151 143.407 49.1198C142.584 48.2516 142.173 47.0578 142.173 45.5655C142.173 44.019 142.584 42.7981 143.435 41.9027C144.285 41.0074 145.41 40.5461 146.782 40.5461C147.934 40.5461 149.114 40.926 150.184 41.6857L150.321 41.7942V38.3485L150.294 38.3213C149.827 38.1314 149.306 37.9144 148.593 37.7787ZM160.363 37.6702C159.485 37.6702 158.662 37.9415 157.948 38.5113C157.345 38.9996 156.933 39.7051 156.577 40.5461H156.549V37.9144H152.982V52.9454H156.549V45.2671C156.549 43.9648 156.824 42.8795 157.427 42.0927C158.031 41.2787 158.799 40.8717 159.732 40.8717C160.061 40.8717 160.39 40.9531 160.802 41.0074C161.186 41.1159 161.46 41.2244 161.652 41.3601L161.789 41.4686V37.9415L161.707 37.9144C161.46 37.7516 160.966 37.6702 160.363 37.6702ZM170.075 37.5888C167.578 37.5888 165.576 38.3213 164.176 39.7593C162.75 41.1973 162.064 43.1779 162.064 45.6741C162.064 48.0074 162.777 49.9066 164.149 51.2903C165.521 52.6469 167.386 53.3524 169.719 53.3524C172.16 53.3524 174.108 52.6198 175.508 51.1547C176.934 49.6896 177.62 47.7361 177.62 45.3213C177.62 42.9337 176.962 41.0345 175.617 39.6508C174.328 38.2671 172.435 37.5888 170.075 37.5888ZM172.929 49.1469C172.27 49.988 171.227 50.395 169.938 50.395C168.649 50.395 167.606 49.988 166.865 49.0927C166.124 48.2516 165.768 47.0306 165.768 45.4841C165.768 43.8834 166.152 42.6624 166.865 41.7942C167.606 40.926 168.621 40.4919 169.911 40.4919C171.173 40.4919 172.16 40.8989 172.874 41.7399C173.587 42.581 173.971 43.802 173.971 45.4027C173.916 47.0306 173.614 48.3058 172.929 49.1469ZM185.577 44.1547C184.452 43.6934 183.738 43.3407 183.409 43.0423C183.135 42.771 182.998 42.3911 182.998 41.9027C182.998 41.4958 183.162 41.0888 183.574 40.8175C183.985 40.5461 184.452 40.4105 185.138 40.4105C185.741 40.4105 186.372 40.519 186.976 40.6818C187.579 40.8446 188.128 41.0888 188.567 41.4144L188.704 41.5229V38.2128L188.622 38.1857C188.21 38.0229 187.662 37.8601 187.003 37.7244C186.345 37.6159 185.741 37.5617 185.247 37.5617C183.546 37.5617 182.147 37.9686 181.05 38.864C179.952 39.7051 179.431 40.8446 179.431 42.1741C179.431 42.8795 179.541 43.5035 179.788 44.019C180.034 44.5345 180.391 45.0229 180.885 45.4299C181.379 45.8097 182.092 46.2438 183.08 46.6508C183.903 47.0035 184.534 47.2748 184.918 47.4919C185.302 47.7089 185.549 47.9531 185.741 48.143C185.878 48.3601 185.961 48.6314 185.961 48.9841C185.961 49.988 185.192 50.4764 183.629 50.4764C183.025 50.4764 182.394 50.3679 181.653 50.1237C180.912 49.8795 180.227 49.5268 179.65 49.1198L179.513 49.0113V52.457L179.596 52.4841C180.117 52.7283 180.748 52.8911 181.516 53.081C182.284 53.2167 182.97 53.3252 183.574 53.3252C185.412 53.3252 186.921 52.9182 187.991 52.0229C189.088 51.1547 189.665 50.0423 189.665 48.6043C189.665 47.6004 189.39 46.7051 188.787 46.0268C187.991 45.3756 187.003 44.6973 185.577 44.1547ZM199.075 37.5888C196.578 37.5888 194.576 38.3213 193.176 39.7593C191.777 41.1973 191.064 43.1779 191.064 45.6741C191.064 48.0074 191.777 49.9066 193.149 51.2903C194.521 52.6469 196.386 53.3524 198.718 53.3524C201.16 53.3524 203.108 52.6198 204.508 51.1547C205.934 49.6896 206.62 47.7361 206.62 45.3213C206.62 42.9337 205.962 41.0345 204.617 39.6508C203.328 38.2671 201.435 37.5888 199.075 37.5888ZM201.901 49.1469C201.243 49.988 200.2 50.395 198.911 50.395C197.594 50.395 196.578 49.988 195.838 49.0927C195.097 48.2516 194.74 47.0306 194.74 45.4841C194.74 43.8834 195.124 42.6624 195.838 41.7942C196.578 40.926 197.594 40.4919 198.883 40.4919C200.118 40.4919 201.133 40.8989 201.846 41.7399C202.56 42.581 202.944 43.802 202.944 45.4027C202.944 47.0306 202.587 48.3058 201.901 49.1469ZM225.688 40.8175V37.9144H222.094V33.4648L221.984 33.4919L218.582 34.4958L218.5 34.5229V37.9144H213.122V36.0151C213.122 35.1469 213.342 34.4686 213.726 34.0345C214.11 33.6004 214.686 33.3834 215.4 33.3834C215.894 33.3834 216.415 33.4919 216.991 33.7361L217.128 33.8175V30.7516L217.046 30.7244C216.552 30.5617 215.894 30.4531 215.043 30.4531C213.973 30.4531 213.04 30.6973 212.19 31.1043C211.339 31.5655 210.708 32.1896 210.242 33.0306C209.775 33.8446 209.528 34.7671 209.528 35.8252V37.9144H207.032V40.7903H209.528V52.9454H213.122V40.8175H218.5V48.55C218.5 51.7244 220.009 53.3252 223.027 53.3252C223.521 53.3252 224.042 53.2438 224.536 53.1624C225.057 53.0539 225.441 52.9182 225.661 52.8097L225.688 52.7826V49.8795L225.551 49.988C225.332 50.1237 225.139 50.2322 224.81 50.3136C224.536 50.395 224.289 50.4221 224.097 50.4221C223.384 50.4221 222.89 50.2593 222.533 49.8524C222.204 49.4725 222.039 48.8485 222.039 47.926V40.8175H225.688Z" fill="#5F5F5F"/>
<path d="M60 25H76.8184V41.6318H60V25Z" fill="#5F5F5F"/>
<path d="M78.5742 25H95.3926V41.6318H78.5742V25Z" fill="#5F5F5F"/>
<path d="M60 43.3682H76.8184V60H60V43.3682Z" fill="#5F5F5F"/>
<path d="M78.5742 43.3682H95.3926V60H78.5742V43.3682Z" fill="#5F5F5F"/>
</g>
<defs>
<clipPath id="clip0">
<rect width="165.714" height="35" fill="white" transform="translate(60 25)"/>
</clipPath>
</defs>
</svg>
