<svg width="148" height="59" viewBox="0 0 148 59" fill="none" xmlns="http://www.w3.org/2000/svg">
<path d="M72.5586 26.2058C72.5586 34.7201 77.7158 39.4284 84.2509 39.4284C87.5184 39.4284 90.1955 38.0944 92.282 35.701L89.7624 32.9152C88.3058 34.5239 86.613 35.4656 84.3296 35.4656C80.0385 35.4656 77.2434 31.9343 77.2434 26.0881C77.2434 20.3203 80.2747 16.789 84.4871 16.789C86.4555 16.789 87.9121 17.613 89.2506 18.9078L91.7702 16.0828C90.1561 14.3564 87.5972 12.8262 84.4477 12.8262C77.8339 12.8262 72.5586 17.8092 72.5586 26.2058Z" fill="#5F5F5F"/>
<path d="M96.5039 38.9576H101.071V13.297H96.5039V38.9576Z" fill="#5F5F5F"/>
<path d="M105.728 35.6617C108.169 38.0552 111.515 39.4284 114.979 39.4284C120.766 39.4284 124.231 35.9756 124.231 31.8166C124.231 28.0891 122.105 26.1665 119.034 24.8717L115.57 23.42C113.444 22.5568 111.475 21.8113 111.475 19.8102C111.475 17.9269 113.05 16.789 115.491 16.789C117.696 16.789 119.467 17.613 121.081 18.9863L123.443 16.0828C121.436 14.0817 118.522 12.8262 115.491 12.8262C110.491 12.8262 106.869 15.9651 106.869 20.0457C106.869 23.8124 109.507 25.8134 112.066 26.8728L115.57 28.403C117.932 29.3839 119.585 30.0509 119.585 32.1697C119.585 34.1708 117.971 35.4656 115.097 35.4656C112.696 35.4656 110.216 34.2885 108.365 32.5621L105.728 35.6617Z" fill="#5F5F5F"/>
<path d="M133.167 28.4422L134.072 25.3033C134.899 22.596 135.647 19.6925 136.356 16.8283H136.513C137.261 19.6533 138.049 22.596 138.836 25.3033L139.741 28.4422H133.167ZM142.773 38.9576H147.615L139.23 13.297H133.876L125.451 38.9576H130.136L132.143 32.0128H140.765L142.773 38.9576Z" fill="#5F5F5F"/>
<path d="M73.5078 44.6816C73.5078 46.2206 74.404 47.0287 75.5016 47.0287C76.0277 47.0287 76.4953 46.7968 76.8459 46.3541L76.3199 45.7287C76.1121 45.9746 75.8653 46.1363 75.5146 46.1363C74.8976 46.1363 74.4885 45.5881 74.4885 44.6465C74.4885 43.7259 74.9496 43.1708 75.5406 43.1708C75.8393 43.1708 76.0406 43.3043 76.255 43.5151L76.781 42.8756C76.4953 42.5594 76.0536 42.2783 75.5276 42.2783C74.4365 42.2783 73.5078 43.1638 73.5078 44.6816Z" fill="#5F5F5F"/>
<path d="M78.1023 46.9444H79.057V45.3141L80.3364 42.3626H79.3363L78.9596 43.4167C78.8427 43.7611 78.7193 44.0773 78.6024 44.4287H78.5764C78.453 44.0773 78.3426 43.7611 78.2322 43.4167L77.849 42.3626H76.8294L78.1023 45.3141V46.9444Z" fill="#5F5F5F"/>
<path d="M80.7807 46.9444H82.3524C83.2746 46.9444 84.0019 46.5298 84.0019 45.5952C84.0019 44.9838 83.6837 44.6395 83.0797 44.52V44.4919C83.5733 44.3514 83.7941 43.9086 83.7941 43.5011C83.7941 42.6227 83.1122 42.3626 82.229 42.3626H80.7807V46.9444ZM81.7419 44.2108V43.1638H82.1965C82.6381 43.1638 82.8589 43.3043 82.8589 43.6486C82.8589 43.993 82.6511 44.2108 82.1835 44.2108H81.7419ZM81.7419 46.1433V44.9416H82.2744C82.8005 44.9416 83.0667 45.1173 83.0667 45.5179C83.0667 45.9325 82.794 46.1433 82.2744 46.1433H81.7419Z" fill="#5F5F5F"/>
<path d="M84.7002 46.9444H87.4214V46.073H85.6614V45.0189H87.1031V44.1546H85.6614V43.234H87.3564V42.3626H84.7002V46.9444Z" fill="#5F5F5F"/>
<path d="M89.2067 43.1848H89.6938C90.1938 43.1848 90.4666 43.3394 90.4666 43.7892C90.4666 44.2389 90.1938 44.4708 89.6938 44.4708H89.2067V43.1848ZM91.6096 46.9444L90.6549 45.1103C91.103 44.8924 91.4083 44.4638 91.4083 43.7892C91.4083 42.7 90.6679 42.3626 89.7717 42.3626H88.2455V46.9444H89.2067V45.293H89.7262L90.538 46.9444H91.6096Z" fill="#5F5F5F"/>
<path d="M93.1114 46.2838H93.8127V44.9908H94.9558V44.26H93.8127V42.967H93.1114V44.26H91.9683V44.9908H93.1114V46.2838Z" fill="#5F5F5F"/>
<path d="M95.6722 46.9444H96.6334V42.3626H95.6722V46.9444Z" fill="#5F5F5F"/>
<path d="M97.6193 46.9444H98.535V45.3211C98.535 44.78 98.4571 44.1686 98.4116 43.6627H98.4376L98.8532 44.6605L99.9573 46.9444H100.938V42.3626H100.029V43.9789C100.029 44.52 100.107 45.1665 100.152 45.6514H100.126L99.704 44.6395L98.6 42.3626H97.6193V46.9444Z" fill="#5F5F5F"/>
<path d="M101.932 46.9444H102.893V45.1665H104.354V44.2951H102.893V43.234H104.608V42.3626H101.932V46.9444Z" fill="#5F5F5F"/>
<path d="M106.293 43.1848H106.78C107.28 43.1848 107.553 43.3394 107.553 43.7892C107.553 44.2389 107.28 44.4708 106.78 44.4708H106.293V43.1848ZM108.696 46.9444L107.741 45.1103C108.189 44.8924 108.494 44.4638 108.494 43.7892C108.494 42.7 107.754 42.3626 106.858 42.3626H105.331V46.9444H106.293V45.293H106.812L107.624 46.9444H108.696Z" fill="#5F5F5F"/>
<path d="M110.153 45.047L110.257 44.6254C110.374 44.1686 110.491 43.6346 110.588 43.1497H110.614C110.731 43.6275 110.842 44.1686 110.959 44.6254L111.063 45.047H110.153ZM111.517 46.9444H112.53L111.199 42.3626H110.056L108.725 46.9444H109.699L109.959 45.8552H111.257L111.517 46.9444Z" fill="#5F5F5F"/>
<path d="M112.701 46.3682C113.136 46.8039 113.721 47.0287 114.273 47.0287C115.279 47.0287 115.864 46.3682 115.864 45.6092C115.864 44.9627 115.539 44.5903 115.026 44.3654L114.487 44.1265C114.117 43.9649 113.838 43.8665 113.838 43.5854C113.838 43.3254 114.052 43.1708 114.377 43.1708C114.714 43.1708 114.981 43.3043 115.26 43.5362L115.74 42.8827C115.377 42.4891 114.864 42.2783 114.377 42.2783C113.5 42.2783 112.87 42.8827 112.87 43.6416C112.87 44.3092 113.286 44.7027 113.727 44.8924L114.273 45.1454C114.643 45.3141 114.883 45.4054 114.883 45.6936C114.883 45.9676 114.688 46.1363 114.292 46.1363C113.941 46.1363 113.552 45.9395 113.253 45.6584L112.701 46.3682Z" fill="#5F5F5F"/>
<path d="M117.274 46.9444H118.229V43.234H119.391V42.3626H116.105V43.234H117.274V46.9444Z" fill="#5F5F5F"/>
<path d="M121.007 43.1848H121.494C121.994 43.1848 122.266 43.3394 122.266 43.7892C122.266 44.2389 121.994 44.4708 121.494 44.4708H121.007V43.1848ZM123.409 46.9444L122.455 45.1103C122.903 44.8924 123.208 44.4638 123.208 43.7892C123.208 42.7 122.468 42.3626 121.572 42.3626H120.045V46.9444H121.007V45.293H121.526L122.338 46.9444H123.409Z" fill="#5F5F5F"/>
<path d="M124.021 44.8222C124.021 46.3611 124.612 47.0287 125.71 47.0287C126.808 47.0287 127.386 46.3611 127.386 44.8222V42.3626H126.463V44.9276C126.463 45.8271 126.184 46.1363 125.71 46.1363C125.236 46.1363 124.976 45.8271 124.976 44.9276V42.3626H124.021V44.8222Z" fill="#5F5F5F"/>
<path d="M128.146 44.6816C128.146 46.2206 129.042 47.0287 130.14 47.0287C130.666 47.0287 131.133 46.7968 131.484 46.3541L130.958 45.7287C130.75 45.9746 130.503 46.1363 130.153 46.1363C129.536 46.1363 129.127 45.5881 129.127 44.6465C129.127 43.7259 129.588 43.1708 130.179 43.1708C130.478 43.1708 130.679 43.3043 130.893 43.5151L131.419 42.8756C131.133 42.5594 130.692 42.2783 130.166 42.2783C129.075 42.2783 128.146 43.1638 128.146 44.6816Z" fill="#5F5F5F"/>
<path d="M132.87 46.9444H133.824V43.234H134.987V42.3626H131.701V43.234H132.87V46.9444Z" fill="#5F5F5F"/>
<path d="M135.621 44.8222C135.621 46.3611 136.212 47.0287 137.31 47.0287C138.408 47.0287 138.986 46.3611 138.986 44.8222V42.3626H138.063V44.9276C138.063 45.8271 137.784 46.1363 137.31 46.1363C136.836 46.1363 136.576 45.8271 136.576 44.9276V42.3626H135.621V44.8222Z" fill="#5F5F5F"/>
<path d="M140.908 43.1848H141.396C141.896 43.1848 142.168 43.3394 142.168 43.7892C142.168 44.2389 141.896 44.4708 141.396 44.4708H140.908V43.1848ZM143.311 46.9444L142.357 45.1103C142.805 44.8924 143.11 44.4638 143.11 43.7892C143.11 42.7 142.37 42.3626 141.473 42.3626H139.947V46.9444H140.908V45.293H141.428L142.24 46.9444H143.311Z" fill="#5F5F5F"/>
<path d="M143.943 46.9444H146.664V46.073H144.904V45.0189H146.346V44.1546H144.904V43.234H146.599V42.3626H143.943V46.9444Z" fill="#5F5F5F"/>
<g clip-path="url(#clip0)">
<path fill-rule="evenodd" clip-rule="evenodd" d="M30.293 57.0049C45.4808 57.0049 57.793 44.6927 57.793 29.5049C57.793 14.3171 45.4808 2.00488 30.293 2.00488C15.1051 2.00488 2.79297 14.3171 2.79297 29.5049C2.79297 44.6927 15.1051 57.0049 30.293 57.0049ZM59.793 29.5049C59.793 45.7973 46.5854 59.0049 30.293 59.0049C14.0006 59.0049 0.792969 45.7973 0.792969 29.5049C0.792969 13.2125 14.0006 0.00488281 30.293 0.00488281C46.5854 0.00488281 59.793 13.2125 59.793 29.5049Z" fill="#5F5F5F"/>
<path d="M52.0398 23.9936C51.9873 24.2052 51.9311 24.4224 51.7681 24.5815C51.5716 24.016 51.4369 23.4301 51.2852 22.8515C51.3732 22.8347 51.5491 22.8009 51.6392 22.7841C51.6542 22.889 51.6879 23.0968 51.7028 23.2016C52.7606 22.945 53.813 22.6661 54.8708 22.4078C54.869 22.2636 54.867 21.9772 54.867 21.833C54.9344 21.8685 55.0731 21.9397 55.1403 21.9754C55.4417 22.7636 55.4305 23.6679 55.9248 24.3793C55.9961 24.8081 55.2883 24.6864 55.0168 24.7856L54.8595 24.5085C55.586 24.3811 55.086 23.6659 54.9849 23.2297C54.5898 23.342 54.1929 23.4469 53.7978 23.5536C53.8446 23.7933 53.8914 24.033 53.9402 24.2726C54.178 24.3307 54.4399 24.3738 54.5204 24.6453C54.1047 24.7689 53.6853 24.8756 53.268 24.9785C53.2397 24.8813 53.1875 24.6828 53.1592 24.5834C53.2623 24.5591 53.4644 24.5122 53.5654 24.488C53.4924 24.2183 53.4176 23.9487 53.3464 23.6792C52.9086 23.7802 52.4742 23.8869 52.0398 23.9936Z" fill="#5F5F5F"/>
<path d="M52.4271 32.5794C52.8615 32.9557 53.251 33.3847 53.7154 33.7215C54.2302 33.922 54.7957 33.9537 55.3348 34.0757C55.3987 33.8324 55.552 33.6825 55.7955 33.628C55.715 34.1935 55.6345 34.7606 55.4885 35.3113C55.4155 35.3469 55.2713 35.4143 55.2001 35.448C55.1965 35.3074 55.189 35.0285 55.1851 34.888C54.691 34.8151 54.1983 34.7289 53.7096 34.6205C53.0919 34.8845 52.4589 35.1185 51.8523 35.4125C51.7663 35.6128 51.6221 35.755 51.418 35.8374C51.4777 35.2588 51.547 34.6766 51.7137 34.1187C51.7887 34.0924 51.9363 34.0403 52.0095 34.0138C52.0095 34.1243 52.0113 34.349 52.0113 34.4595C52.4101 34.2966 52.8126 34.1393 53.2172 33.9876C52.9101 33.6655 52.5823 33.364 52.2417 33.0776C52.2249 33.1843 52.1931 33.3941 52.178 33.4989C52.092 33.4933 51.9216 33.4802 51.8355 33.4727C51.9947 32.9729 51.8638 32.2838 52.3316 31.9355C52.3561 32.0964 52.4029 32.4185 52.4271 32.5794Z" fill="#5F5F5F"/>
<path d="M51.5751 36.5115C51.4795 36.7793 51.3859 37.0472 51.2905 37.3149C52.262 37.6987 53.2489 38.0508 54.2262 38.425C54.2131 38.2303 54.7689 37.6218 54.7128 38.1272C54.4787 38.751 54.4021 39.5408 53.8347 39.962C53.8553 39.7841 53.8984 39.4248 53.9191 39.2467C52.9681 38.8235 51.97 38.5204 51.0132 38.1102C50.8972 38.3875 50.7831 38.6646 50.6687 38.9433C50.7923 39.0071 51.0376 39.1361 51.1594 39.1998C50.9139 39.7785 50.3242 39.2184 49.918 39.1417C50.1464 38.8402 50.3842 38.5387 50.5003 38.1719C50.7548 37.4173 51.1648 36.6909 51.1556 35.8711C51.5001 35.9852 51.8427 36.1011 52.1872 36.2153C52.161 36.3165 52.1049 36.5189 52.0787 36.6199C51.9514 36.5925 51.7005 36.5377 51.5751 36.5115Z" fill="#5F5F5F"/>
<path d="M51.5277 21.8255C50.6945 21.4772 50.1832 20.5186 50.3894 19.6311C50.5336 18.8672 51.1777 18.24 51.9248 18.0546C53.2878 17.6053 54.7968 18.9983 54.3868 20.3913C54.1377 21.6289 52.6623 22.3067 51.5277 21.8255ZM50.8405 20.4044C50.8744 20.8144 51.2842 21.0635 51.6531 21.1347C52.4882 21.26 53.3662 20.8238 53.7986 20.1049C53.9466 19.8053 54.0458 19.3222 53.7107 19.1125C53.2615 18.7306 52.6062 18.7793 52.0857 18.9647C51.494 19.2193 50.8724 19.7078 50.8405 20.4044Z" fill="#5F5F5F"/>
<path d="M49.4094 13.2451C49.6791 12.9698 49.9917 12.7433 50.3061 12.5205C50.7611 13.6027 51.5156 14.5763 52.4237 15.3176C52.0791 15.4824 51.5996 16.2837 51.2629 15.6883C51.3675 15.606 51.5775 15.4412 51.6822 15.3606C51.4894 15.1248 51.2965 14.8888 51.1035 14.6529C50.2872 15.2876 49.4672 15.9111 48.6433 16.5327C48.7557 16.7667 48.9634 17.0214 48.72 17.2685C48.3325 16.8061 47.9374 16.3418 47.6641 15.7988C47.8083 15.7988 48.0947 15.7968 48.2371 15.795C49.0009 15.1603 49.8097 14.5799 50.5924 13.9695C50.4295 13.743 50.2665 13.5182 50.1056 13.2917C49.8663 13.3312 49.5405 13.6608 49.4094 13.2451Z" fill="#5F5F5F"/>
<path d="M18.0186 46.397C13.8676 43.4145 10.872 38.8593 9.84044 33.849C8.71884 28.6178 9.71868 22.9841 12.5721 18.457C12.9128 18.5899 13.2555 18.7191 13.6 18.8446C11.0668 22.7539 9.96958 27.5807 10.6287 32.1959C11.2447 36.884 13.6487 41.2953 17.2135 44.3937C20.1436 46.9552 23.8432 48.6307 27.7095 49.1027C33.0192 49.8065 38.5799 48.1832 42.6952 44.7588C46.1646 41.9244 48.6153 37.8691 49.4954 33.4746C50.5157 28.6291 49.5628 23.4504 47.0016 19.2246C47.3535 19.1292 47.7056 19.0336 48.0556 18.9363C50.6337 23.235 51.5024 28.4774 50.5924 33.3941C49.6919 38.2768 46.9525 42.7871 43.0472 45.8485C39.9392 48.3143 36.1103 49.8571 32.1579 50.2165C27.1908 50.7127 22.0571 49.3346 18.0186 46.397Z" fill="#5F5F5F"/>
<path d="M49.5189 40.9858C49.4477 41.0718 49.3055 41.2422 49.2343 41.3283L49.0117 41.2195C49.2531 40.6319 49.5078 40.0028 50.0132 39.5889C49.9983 39.7498 49.9664 40.0719 49.9495 40.2312C50.8764 40.7386 51.8069 41.2383 52.7337 41.7475C52.8648 41.6804 53.1268 41.5473 53.2579 41.48C53.0854 42.0211 52.7859 42.5133 52.4939 42.9985C52.1119 43.1689 52.2767 42.7101 52.3347 42.5133C51.4062 41.9874 50.4626 41.4839 49.5189 40.9858Z" fill="#5F5F5F"/>
<path d="M48.7531 43.1847C48.3601 42.9281 48.0491 43.3476 47.8169 43.6078C48.2007 43.8983 48.5845 44.1901 48.9611 44.4916C49.3765 44.1061 49.3354 43.3777 48.7531 43.1847ZM47.3246 44.3268C47.1166 44.4224 46.9087 44.5158 46.6992 44.6039C47.0382 43.8305 47.5997 43.1698 48.1559 42.5441C48.959 41.8629 50.2022 42.8736 49.858 43.825C50.5357 43.825 51.3613 44.1824 51.8987 43.6171C52.1852 44.0328 51.6009 44.4875 51.2997 44.7309C50.6053 44.7664 49.9123 44.6728 49.2215 44.6373C49.5959 44.9369 49.9778 45.2271 50.3617 45.5173C50.4496 45.4258 50.6277 45.2404 50.7156 45.1466L50.8711 45.39C50.6013 45.8787 50.2513 46.3207 49.8863 46.7417C49.8133 46.7062 49.6671 46.635 49.5943 46.5995C49.6617 46.5059 49.7984 46.3204 49.866 46.2268C49.0339 45.572 48.1783 44.9503 47.3246 44.3268Z" fill="#5F5F5F"/>
<path d="M45.844 33.0144L45.7617 32.9265C45.9882 32.7205 46.2185 32.5201 46.4675 32.3403C46.5386 32.3367 46.6828 32.3308 46.7537 32.327C46.9693 31.9863 47.1696 31.6324 47.4261 31.3179L47.7406 31.4489C47.7724 31.271 47.8043 31.0951 47.8342 30.9175C48.2668 30.7378 48.6973 30.5486 49.1392 30.3857C48.8639 30.8182 48.5624 31.23 48.2554 31.6401C48.1879 31.5971 48.057 31.5092 47.9896 31.4661C47.6395 31.7134 47.4053 32.0408 47.3773 32.4398L47.2275 32.4378C46.7689 32.6344 46.3102 32.8309 45.844 33.0144Z" fill="#5F5F5F"/>
<path d="M44.002 47.6006C43.8054 47.636 43.6088 47.6699 43.4141 47.7018C43.6838 47.1231 44.266 46.7487 44.7678 46.38L44.852 46.6176C44.7959 46.7022 44.6835 46.8707 44.6273 46.9566C45.292 47.6119 45.8049 48.4468 46.5989 48.9525C47.4039 49.1453 48.1509 48.005 47.5444 47.3592C47.0593 46.7749 46.5277 46.2304 46.011 45.6759C45.8517 45.732 45.5316 45.8425 45.3725 45.8987C45.6458 45.4419 46.0522 45.0877 46.4715 44.7676C46.6981 44.938 46.6661 45.1273 46.3799 45.3386C46.9527 46.0183 47.6308 46.6139 48.1247 47.3569C48.7296 48.6134 47.0275 50.1634 45.8162 49.4707C45.1272 48.9337 44.6759 48.151 44.002 47.6006Z" fill="#5F5F5F"/>
<path d="M44.3185 12.0349C45 11.2484 45.7714 10.5352 46.393 9.70196C46.3069 9.5391 46.2113 9.38182 46.1084 9.23011C46.1421 9.16644 46.2115 9.0373 46.247 8.97168C46.5616 9.23944 46.8704 9.51096 47.1812 9.78233C47.0802 10.8476 46.9229 11.9036 46.7936 12.9652C47.3066 12.411 47.814 11.8512 48.314 11.2838C48.2261 11.2089 48.05 11.0573 47.9601 10.9805C48.0444 10.9056 48.1287 10.829 48.213 10.754C48.5782 11.0779 48.9843 11.3719 49.2596 11.7838L49.0144 11.8868C48.9208 11.8249 48.7373 11.7015 48.6455 11.6396C48.1606 12.1357 47.7393 12.6974 47.2226 13.1599C46.8033 13.3733 46.3239 13.4352 45.8745 13.555C46.0036 12.5908 46.1159 11.6229 46.2228 10.6548C45.7023 11.2165 45.1948 11.7895 44.6836 12.3586C44.8185 12.4653 45.0936 12.9503 44.7192 12.8959C44.3278 12.5833 43.8111 12.2763 43.7344 11.7352C43.9309 11.8327 44.1257 11.9319 44.3185 12.0349Z" fill="#5F5F5F"/>
<path d="M43.7889 35.0159C44.7195 34.8434 45.2717 33.9581 46.0748 33.5218C46.6478 33.4246 46.893 32.8421 47.2244 32.4378L47.3742 32.4398C47.3667 32.5521 47.376 32.6699 47.4023 32.7938C47.4737 32.6157 47.5446 32.4381 47.6158 32.2581C48.0519 32.1403 48.4828 32.0092 48.9171 31.8818C48.5894 32.3198 48.2113 32.713 47.8198 33.0933L47.7675 32.7676C47.4811 32.9527 47.2058 33.1627 47.0804 33.492C46.8257 33.5745 46.5637 33.6306 46.2977 33.6493C45.7192 34.6044 44.5791 34.9807 43.7159 35.6282L43.5941 35.5776L43.4688 35.5197C43.6242 35.4108 43.9313 35.1937 44.0866 35.0851L43.7889 35.0159Z" fill="#5F5F5F"/>
<path d="M43.7966 34.3936C43.7853 34.0511 44.0888 33.8339 44.2816 33.594C45.0155 32.8414 45.6727 32.0118 46.4346 31.2892C46.5075 31.293 46.6556 31.3003 46.7286 31.3043C46.9269 30.8943 47.133 30.488 47.3425 30.0854C46.94 30.3363 46.543 30.5966 46.1423 30.8493C46.1647 30.9635 46.1854 31.0777 46.2081 31.19C45.3898 32.1206 44.3938 32.9463 43.7742 34.0192C43.6861 33.8562 43.6019 33.6933 43.5195 33.5285C44.0662 33.3787 44.2853 32.7066 44.6822 32.3247C45.4218 31.5177 45.9197 30.4655 46.8485 29.8551C47.1068 29.5258 47.2135 29.1062 47.384 28.728L47.5713 28.7168C47.5956 29.1736 47.605 29.6324 47.5996 30.0893C47.7531 29.9376 47.9084 29.7877 48.0657 29.6381C47.9871 29.597 47.8279 29.5162 47.7492 29.4753C48.2212 29.2168 48.6778 28.9324 49.1384 28.6553C48.9268 29.1402 48.6721 29.6045 48.4156 30.0669C48.3557 30.0221 48.2376 29.9284 48.1778 29.8833C47.9793 30.1193 47.779 30.3553 47.5768 30.589C47.6986 31.4465 46.6461 31.5421 46.1071 31.9052L46.3693 32.0889C45.6521 32.7048 44.9912 33.3863 44.2629 33.9912L44.3397 34.2254L44.2835 34.1411L44.1806 34.1951C44.085 34.2439 43.8922 34.3431 43.7966 34.3936Z" fill="#5F5F5F"/>
<path d="M43.6979 35.9161C44.4899 35.3788 45.3099 34.8808 46.0981 34.334C46.1955 34.3451 46.3883 34.3657 46.4837 34.377C46.6541 34.1767 46.8283 33.9783 47.0024 33.7816C47.1184 33.8155 47.3468 33.8808 47.4612 33.9127C47.4312 33.821 47.3675 33.6354 47.3376 33.5418C47.8299 33.407 48.3188 33.2571 48.8148 33.1318C48.5022 33.5117 48.1669 33.8711 47.8337 34.2325C47.7587 34.1931 47.6111 34.1126 47.536 34.0733C47.2699 34.234 47.0078 34.4009 46.7533 34.577C46.3283 34.6594 45.8958 34.7792 45.6168 35.1369C44.9652 35.5112 44.2724 35.8931 43.5703 36.1198C43.6024 36.0698 43.666 35.9667 43.6979 35.9161Z" fill="#5F5F5F"/>
<path d="M43.2419 11.6776C42.4031 11.1534 41.5662 10.6272 40.7461 10.075C40.9034 10.0488 41.2217 9.99447 41.379 9.96632C42.0099 9.15011 42.5062 8.2326 43.079 7.37319C42.9892 7.24962 42.8112 7.00052 42.7214 6.87695C43.725 6.93686 44.3466 8.03031 45.3764 8.08841C45.2304 8.41231 45.0599 8.72492 44.8784 9.03015C44.7847 8.97401 44.5993 8.86354 44.5057 8.8074C44.5638 8.7195 44.678 8.5434 44.736 8.4555C44.4214 8.25698 44.1068 8.06042 43.7942 7.86581C43.564 8.21589 43.3319 8.56598 43.0941 8.91245C43.3094 9.05664 43.5247 9.19887 43.7419 9.34126C43.9029 9.2064 44.3335 8.91622 44.3054 9.34502C44.1443 9.68954 43.9122 9.99462 43.7099 10.3167C43.6201 10.2624 43.4384 10.1557 43.3468 10.1013C43.3991 10.017 43.5003 9.84863 43.5527 9.76434C43.3224 9.61458 43.0921 9.46482 42.8618 9.31687C42.6184 9.69315 42.3769 10.0694 42.1315 10.4458C42.4554 10.6517 42.7813 10.8558 43.1108 11.0544C43.18 10.9794 43.3167 10.8297 43.386 10.7548C44.0019 10.8275 43.3373 11.3912 43.2419 11.6776Z" fill="#5F5F5F"/>
<path d="M43.5941 33.1878C43.579 32.7256 44.0547 32.3715 44.2326 31.9502C44.3375 31.9726 44.5491 32.0176 44.6538 32.0402C44.2813 32.4428 43.963 32.89 43.6204 33.317L43.5941 33.1878Z" fill="#5F5F5F"/>
<path d="M43.1876 33.7054C43.1838 33.4601 43.2923 33.2749 43.5095 33.1494L43.5938 33.1888C43.575 33.2749 43.5377 33.4452 43.5189 33.5296C43.4365 33.5743 43.2717 33.6624 43.1876 33.7054Z" fill="#5F5F5F"/>
<path d="M43.5946 35.5773C43.6115 35.8246 43.2782 36.0418 43.048 36.0194C43.0255 35.7664 43.355 35.5176 43.5946 35.5773Z" fill="#5F5F5F"/>
<path d="M41.137 49.0239C41.5469 48.3442 42.4831 48.3424 42.8951 47.6758C43.1067 48.0092 43.3126 48.348 43.5129 48.6887C43.4268 48.7316 43.2545 48.8195 43.1684 48.8626C42.8538 48.254 42.0656 48.6491 41.7717 49.076C41.0153 50.1509 42.1685 51.8449 43.4379 51.6503C43.8386 51.579 44.1195 51.2685 44.3666 50.9705C44.2505 50.7346 44.0407 50.3058 44.4957 50.3413C44.6681 50.566 44.8159 50.8114 44.9658 51.0529C44.318 51.8168 43.3406 52.4966 42.2903 52.2289C40.9235 51.9465 40.2813 50.1174 41.137 49.0239Z" fill="#5F5F5F"/>
<path d="M18.6923 13.499C18.2991 13.3548 17.9116 13.1975 17.5352 13.014C21.0288 10.3779 25.3557 8.79027 29.748 8.79027C34.9286 8.6068 40.1373 10.5446 43.9792 14.014C43.5597 14.1338 43.1386 14.2425 42.7136 14.3379C39.1301 11.3292 34.4268 9.69288 29.75 9.82382C25.8013 9.87229 21.9013 11.2111 18.6923 13.499Z" fill="#5F5F5F"/>
<path d="M43.0494 36.019C43.2422 36.1838 43.0494 36.5994 42.8005 36.416C42.5908 36.2661 42.8247 35.8859 43.0494 36.019Z" fill="#5F5F5F"/>
<path d="M41.832 36.9663C41.8826 36.6948 42.5548 36.197 42.6915 36.545C42.4648 36.7622 42.1484 36.9496 41.832 36.9663Z" fill="#5F5F5F"/>
<path d="M38.1431 26.5841C37.8285 26.4661 37.5159 26.3445 37.2031 26.2209C37.2162 25.4176 37.2368 24.6145 37.265 23.8113C37.9727 23.3152 38.7571 22.7646 38.9968 21.8828C39.3787 20.6526 38.8714 19.387 38.9369 18.1382C39.0099 17.3201 39.755 16.8351 40.3766 16.4195C42.8462 14.7812 46.0777 14.8749 48.478 13.1074C48.4369 13.5737 48.4274 14.0717 48.1559 14.4742C47.8282 15.0115 47.2086 15.2287 46.6636 15.4721C46.7348 15.8746 47.1841 16.1461 47.3901 16.5019C46.6412 16.8575 45.825 17.0279 44.9993 17.0692C45.2502 17.3669 45.4935 17.6682 45.7313 17.9754C44.9544 18.3237 44.1267 18.5464 43.2843 18.6625C43.6644 19.0314 44.0258 19.4207 44.3572 19.8345C43.5783 20.1266 42.7508 20.2238 41.9288 20.295C42.4156 20.6788 42.85 21.1227 43.2207 21.6188C42.4979 21.9932 41.691 22.173 40.8784 22.1973C41.2154 22.598 41.4701 23.0567 41.6536 23.5473C40.9907 23.6165 40.3223 23.6445 39.6596 23.5754C39.991 24.1595 40.2306 24.7998 40.2719 25.4777C39.5997 25.4664 38.9406 25.326 38.319 25.0733C38.3602 25.5843 38.291 26.0936 38.1431 26.5841Z" fill="#5F5F5F"/>
<path d="M37.2132 35.472C37.3556 35.3766 37.4978 35.2828 37.6401 35.1873C37.2167 34.8915 36.8237 34.5602 36.4492 34.2046C36.5746 33.6877 36.6702 33.1615 36.7412 32.6336C36.7563 32.5306 36.7674 32.4277 36.7805 32.3247C37.0576 32.4876 37.3366 32.6469 37.6193 32.8002C37.756 32.0848 37.6381 31.3641 37.419 30.6787C37.7522 31.3024 38.2559 31.8229 38.9299 32.0663C38.9898 31.3921 38.8643 30.7237 38.6959 30.0741C39.162 30.6434 39.7425 31.1172 40.4483 31.3566C40.482 30.6321 40.3209 29.9241 40.0869 29.2427C40.6224 29.6939 41.2421 30.0424 41.9368 30.1769C41.9574 29.3889 41.6766 28.6473 41.3939 27.9265C41.9669 28.4751 42.6465 28.9357 43.444 29.0705C43.3823 28.2803 43.0827 27.5352 42.6558 26.8743C43.2717 27.4116 44.0095 27.7936 44.8388 27.8442C44.7827 27.0054 44.3895 26.2471 43.809 25.6535C44.556 26.1402 45.4416 26.3631 46.331 26.2658C46.168 25.4008 45.5277 24.7829 44.8385 24.2998C45.5145 24.414 46.1903 24.5469 46.8775 24.5695C47.276 25.9194 47.4934 27.3142 47.5683 28.7167L47.3811 28.7278C47.033 28.9637 46.6942 29.2128 46.3606 29.4655C46.2484 30.4034 45.2898 30.9409 44.8837 31.7591C44.8162 31.643 44.7508 31.5268 44.6871 31.411C44.7807 31.1732 44.8688 30.9353 44.9473 30.6938C44.629 30.9426 44.3257 31.2105 44.028 31.4838C44.131 32.0867 43.5431 32.5154 43.2866 33.0115C42.8673 33.5262 42.637 34.2452 42.1146 34.6365C42.1015 34.3334 42.2999 34.0842 42.4216 33.8202C42.9103 32.841 43.4215 31.8712 43.8707 30.8735C44.4735 30.7085 44.2883 29.8905 44.4773 29.4165C44.1365 29.8097 43.7958 30.2048 43.4513 30.5943C43.5298 30.5962 43.6871 30.5979 43.7658 30.5979C42.8372 32.5676 41.8112 34.4902 40.8956 36.4654C40.8206 36.6227 40.7478 36.78 40.6765 36.9372C39.673 36.6713 38.5214 36.9637 37.6489 36.2541C37.8062 36.2055 38.119 36.1079 38.2743 36.0592C37.9304 35.8484 37.5746 35.6574 37.2132 35.472Z" fill="#5F5F5F"/>
<path d="M43.791 35.0152C43.1525 35.4908 42.5347 35.9926 41.9224 36.4981L41.8906 36.343C42.2239 35.6818 42.9559 35.1615 43.4072 34.523L43.5121 34.6782C43.5214 34.7438 43.5402 34.8767 43.5514 34.9422C43.8453 34.8017 44.1636 34.5453 44.1805 34.1952L44.2554 34.2924L44.3397 34.2251C44.8472 33.83 45.289 33.3602 45.7608 32.9258L45.8432 33.0137C45.8975 33.068 46.0042 33.1785 46.0566 33.2328C45.2888 33.8114 44.5381 34.4103 43.791 35.0152Z" fill="#5F5F5F"/>
<path d="M41.5322 36.3956C41.4479 36.3002 41.3636 36.2065 41.2812 36.1108C41.3973 35.8863 41.5115 35.6617 41.622 35.4352L41.856 35.5625L41.7775 35.1149C41.8112 35.0851 41.8767 35.027 41.9104 34.997C41.9179 35.1059 41.931 35.3193 41.9385 35.426C42.3449 34.9072 42.6688 34.3307 43.0619 33.8027C43.2079 33.9635 43.3634 34.1173 43.5169 34.2725C43.2155 34.3286 43.0657 34.6095 42.8691 34.8081C42.4384 35.351 41.871 35.7815 41.5322 36.3956Z" fill="#5F5F5F"/>
<path d="M37.4825 51.023C37.2429 51.0639 37.0162 51.038 36.8516 50.8505C37.7034 50.4084 38.7069 50.2588 39.4409 49.6055C39.5794 49.8994 40.1187 50.6523 39.5346 50.6767C39.4689 50.594 39.338 50.4333 39.2706 50.3528C38.9391 50.4801 38.6077 50.6091 38.2782 50.7441C38.4355 51.1523 38.6041 51.5565 38.7969 51.95C39.0179 51.8433 39.2388 51.7365 39.4598 51.6316C39.4205 51.3697 39.5254 51.1804 39.7668 51.0775C39.9503 51.5154 40.1337 51.9592 40.1712 52.4385C40.0346 52.3469 39.7593 52.1652 39.6226 52.0734C39.3868 52.1578 39.1527 52.2438 38.9205 52.3318C39.0683 52.7644 39.2388 53.1893 39.4259 53.6071C39.7591 53.4664 40.0943 53.3298 40.4275 53.1876C40.3452 52.8994 40.465 52.6991 40.7159 52.5773C40.8208 52.8675 40.9238 53.1593 41.0156 53.4554C40.1337 53.7587 39.2931 54.1762 38.3981 54.4402L38.2071 54.2621C38.3138 54.1891 38.5254 54.0395 38.6321 53.9644C38.2501 52.9834 37.855 52.0078 37.4825 51.023Z" fill="#5F5F5F"/>
<path d="M36.4278 7.86013C36.7854 6.84734 37.2236 5.86241 37.5661 4.8439C37.437 4.76534 37.1823 4.6061 37.0532 4.52753C37.4632 4.22982 37.8975 4.64553 38.302 4.74472C38.3637 5.74079 38.5247 6.72739 38.5715 7.72542C39.2774 7.04948 39.9552 6.34554 40.6535 5.66027C41.0522 5.87189 41.7095 5.85127 41.8143 6.38859C41.6645 6.36421 41.3668 6.31363 41.217 6.28745C40.8539 7.29285 40.4645 8.28893 40.0599 9.27929C40.3033 9.36914 40.4606 9.53952 40.5336 9.79042C39.9026 9.55638 38.9946 9.52266 38.6669 8.86373C38.8187 8.89187 39.1239 8.94982 39.2755 8.97797C39.5432 8.28893 39.8147 7.59989 40.0637 6.90168C39.3746 7.59628 38.6913 8.29646 37.9535 8.93868C37.8244 8.00251 37.7907 7.0552 37.6465 6.12083C37.3133 6.71053 37.1241 7.36585 36.8656 7.98942C37.0511 8.14294 37.2046 8.3246 37.3264 8.5305C36.8358 8.42755 36.3434 8.28532 35.9052 8.03442C35.8997 7.95766 35.8884 7.80233 35.8828 7.72542C36.0646 7.77027 36.2463 7.81512 36.4278 7.86013Z" fill="#5F5F5F"/>
<path d="M36.2019 40.2805C36.6101 40.0635 37.1436 40.0615 37.4225 39.6403L36.7709 39.8629C36.8102 39.745 36.887 39.509 36.9263 39.3909C37.297 39.3197 37.677 39.1851 37.8773 38.8329C37.9184 38.9737 37.9335 39.1159 37.9184 39.2619C37.8454 39.2902 37.6957 39.3499 37.6227 39.3799L37.5721 39.5241L37.6602 39.5652C37.7256 39.4902 37.8548 39.3365 37.9184 39.2616C38.1319 39.1756 38.349 39.0987 38.57 39.033C38.4071 38.9451 38.2423 38.8606 38.0906 38.756C38.4369 38.7205 38.789 38.6588 39.0829 38.46C39.0455 38.5536 38.9725 38.739 38.935 38.8328L39.3749 38.8028C39.1952 39.3401 38.7926 39.7537 38.3639 40.1041C37.8697 40.5066 37.5476 41.0645 37.1787 41.5757C36.9653 41.4708 36.7518 41.3678 36.5384 41.265C37.0739 40.7706 37.5139 40.1528 38.171 39.8046C38.435 39.668 38.6185 39.4303 38.7906 39.1961C38.0437 39.6079 37.4145 40.1997 36.6545 40.5927C36.1882 40.823 35.825 41.2012 35.4599 41.5608C35.2708 41.3961 35.0798 41.2315 34.8906 41.0685C35.3369 40.8216 35.7562 40.5296 36.2019 40.2805Z" fill="#5F5F5F"/>
<path d="M31.409 30.0994C31.0234 30.0974 30.6881 29.8652 30.3455 29.7174C30.3324 29.1353 30.3324 28.5529 30.3475 27.9688C32.4519 27.9856 34.5657 28.199 36.6195 28.6689C36.6064 28.8655 36.5934 29.064 36.5785 29.2606C36.1609 29.4817 35.7996 29.7979 35.367 29.989C34.5226 30.2116 33.9367 29.2588 33.1015 29.375C32.4761 29.4499 31.993 29.9066 31.409 30.0994Z" fill="#5F5F5F"/>
<path d="M31.4442 32.5006C31.0473 32.5381 30.7045 32.2928 30.3545 32.1466C30.3356 31.5907 30.3338 31.0363 30.332 30.4805C30.8263 30.6412 31.3918 30.8663 31.8916 30.5984C32.3859 30.398 32.8389 29.9357 33.4082 30.0368C34.0072 30.2502 34.5316 30.7257 35.2018 30.6995C35.7147 30.6396 36.1229 30.2988 36.5236 30.0029C36.4936 30.5722 36.4787 31.1412 36.4543 31.7105C36.091 31.9502 35.7615 32.2497 35.3571 32.4162C34.5838 32.6278 34.0502 31.8041 33.3106 31.7926C32.605 31.7499 32.079 32.2984 31.4442 32.5006Z" fill="#5F5F5F"/>
<path d="M35.8324 52.0925C35.8493 51.3829 34.7053 51.3735 34.666 52.0454C34.8683 52.6054 35.5966 52.6033 36.0516 52.8729C36.7986 53.1276 37.1169 54.1649 36.5814 54.766C36.104 55.324 35.2971 55.1423 34.6717 55.393C34.6735 54.9868 34.1719 54.3204 34.7784 54.176C34.8177 54.749 35.4449 54.9343 35.8905 54.6593C36.2107 54.5433 36.2331 54.0673 35.9598 53.8897C35.4899 53.5603 34.8982 53.474 34.4115 53.1745C33.8143 52.7477 33.8311 51.6843 34.5031 51.3339C34.9599 51.1316 35.4655 51.0775 35.9336 50.8994C35.9542 51.2724 36.3848 51.9464 35.8324 52.0925Z" fill="#5F5F5F"/>
<path d="M34.1224 4.24118C33.8546 4.19422 33.5906 4.13627 33.3191 4.11761C33.13 4.25427 33.0476 4.81417 32.75 4.46032C32.7518 4.06719 32.8642 3.68324 33.0477 3.33691C33.1526 3.43053 33.3605 3.62153 33.4652 3.71515C34.261 3.79748 35.0454 3.96228 35.8374 4.08028C35.9441 4.04476 36.1595 3.97538 36.2662 3.93986C36.3017 4.34985 36.4497 5.08569 35.8487 5.1176C35.8487 4.96408 35.8467 4.65704 35.8467 4.50352C35.5472 4.47537 35.2495 4.44362 34.9536 4.41547C34.7795 5.43397 34.6335 6.4582 34.4332 7.47098C34.6634 7.58522 34.9929 7.59831 35.0528 7.91664C34.3826 7.84545 33.6917 7.8006 33.0533 7.57769C33.014 7.51779 32.9335 7.39798 32.894 7.33808C33.0682 7.34365 33.4183 7.35298 33.5942 7.3587C33.7796 6.32138 33.9651 5.28226 34.1224 4.24118Z" fill="#5F5F5F"/>
<path d="M30.332 32.8925C30.6972 33.0013 31.0623 33.1733 31.4536 33.1471C32.079 33.0311 32.5602 32.5422 33.1816 32.415C33.835 32.4692 34.3126 33.0686 34.981 33.0797C35.5109 33.1546 35.9545 32.8195 36.3964 32.5874C36.2859 33.3268 36.1903 34.1432 35.6774 34.729C34.9959 35.246 34.2938 34.5476 33.6535 34.3172C32.824 34.0082 32.1425 34.7367 31.4086 34.9782C31.0193 34.9802 30.6878 34.7517 30.3489 34.5983C30.332 34.0288 30.332 33.4617 30.332 32.8925Z" fill="#5F5F5F"/>
<path d="M34.8159 35.5861C33.3985 36.3596 31.6817 36.4138 30.3281 37.3236C30.3375 36.6647 30.3375 36.0056 30.3299 35.3465C31.0977 35.7699 31.9607 35.5655 32.6404 35.0787C33.3967 34.5602 34.1177 35.3465 34.8159 35.5861Z" fill="#5F5F5F"/>
<path d="M35.2046 27.3078C35.2103 27.1055 35.2702 26.8903 35.1653 26.7031C35.0025 26.7162 34.8396 26.733 34.6766 26.7555C34.6804 26.8828 34.6879 27.1355 34.6917 27.261C34.8208 27.2722 35.0773 27.2965 35.2046 27.3078ZM35.9554 25.999C35.9591 25.7874 35.9611 25.5758 35.9573 25.3625C35.7738 25.3962 35.5904 25.4317 35.4049 25.4654C35.4143 25.5852 35.4293 25.8268 35.4367 25.9466C35.5678 25.9597 35.8262 25.9859 35.9554 25.999ZM35.2758 24.6117C35.3375 24.5256 35.4593 24.3533 35.521 24.2692C35.3655 24.198 35.2102 24.125 35.0567 24.0538C34.9817 24.0856 34.8301 24.153 34.7534 24.1867C34.7945 24.3422 34.8357 24.4975 34.877 24.6548C34.9761 24.6435 35.1765 24.6229 35.2758 24.6117ZM34.3115 25.473C34.3938 25.4523 34.5606 25.4093 34.6447 25.3887C34.4799 25.3082 34.3152 25.2294 34.1504 25.1509C34.0175 25.2108 33.8771 25.2352 33.7329 25.2258C33.8079 25.3831 33.8827 25.5404 33.9576 25.6995C34.1187 25.7163 34.276 25.7443 34.4351 25.7744C34.4051 25.6995 34.3414 25.5497 34.3115 25.473ZM32.0686 24.2466C32.048 24.052 32.0273 23.8572 32.0049 23.6625C31.8363 23.7186 31.6679 23.7748 31.5012 23.8328C31.5742 23.9788 31.5779 24.1248 31.5105 24.271C31.6959 24.2615 31.8832 24.2541 32.0686 24.2466ZM32.7818 25.5515C32.81 25.4262 32.8642 25.1771 32.8905 25.0535C32.662 25.0329 32.4318 25.0497 32.2052 25.0684C32.2913 25.2314 32.398 25.4036 32.2463 25.5682C32.4242 25.5591 32.6039 25.5535 32.7818 25.5515ZM33.192 27.1093C33.2874 27.0906 33.4804 27.0551 33.5776 27.0363C33.6468 26.879 33.7349 26.7348 33.8416 26.5982C33.763 26.6244 33.6057 26.6749 33.527 26.7013C33.5064 26.6227 33.4634 26.4635 33.4427 26.3829C33.3192 26.4522 33.0758 26.587 32.954 26.6545C33.117 26.761 33.1956 26.9127 33.192 27.1093ZM33.3735 24.3009C33.4352 24.359 33.557 24.4751 33.6187 24.533C33.6824 24.3309 33.7498 24.1268 33.8172 23.9245C33.6038 23.9189 33.3904 23.917 33.1787 23.9207C33.1845 24.078 33.1994 24.3926 33.2049 24.5499C33.2481 24.4882 33.3323 24.3626 33.3735 24.3009ZM31.1904 25.5422C31.2354 25.383 31.2802 25.2257 31.3252 25.0666C31.2334 24.9785 31.0499 24.8044 30.9583 24.7183C30.9396 24.8006 30.9021 24.9692 30.8833 25.0535C30.7897 25.0198 30.6025 24.9523 30.507 24.9206C30.7897 25.0573 30.7673 25.3512 30.7542 25.6208C30.8591 25.3905 31.0106 25.37 31.1904 25.5422ZM31.5255 27.0944C31.7015 26.9764 31.9336 26.9221 32.0648 26.7443C32.0142 26.5813 31.9468 26.426 31.8869 26.2687C31.8064 26.3286 31.6473 26.4504 31.5686 26.5101C31.5537 26.7049 31.5404 26.8996 31.5255 27.0944ZM30.5988 23.8497C30.3872 23.7823 30.2674 23.627 30.2038 23.4229C30.1869 23.67 30.0484 23.7991 29.7882 23.8122C29.865 23.9695 29.9417 24.1268 30.0185 24.2859C30.0766 24.2448 30.1926 24.1641 30.2506 24.123L30.3759 24.3757C30.3966 24.1774 30.3966 23.96 30.5988 23.8497ZM29.9098 26.9127C30.0483 26.9127 30.3236 26.9147 30.462 26.9165C30.4527 26.7348 30.5164 26.5833 30.653 26.4653C30.4827 26.4298 30.3329 26.3566 30.2036 26.2425C30.0894 26.3118 29.8629 26.4504 29.7506 26.5196C29.8236 26.542 29.9715 26.587 30.0445 26.6114C30.0108 26.6862 29.9435 26.836 29.9098 26.9127ZM28.7096 23.9901C28.7826 23.9677 28.9268 23.9265 28.9998 23.904C28.8313 23.8161 28.6646 23.7281 28.5 23.6382C28.4046 23.7749 28.2772 23.8572 28.1144 23.8909C28.163 23.9846 28.2586 24.1718 28.3072 24.2672C28.442 24.2746 28.7096 24.2916 28.8445 24.299C28.8108 24.2222 28.7434 24.0669 28.7096 23.9901ZM28.9324 27.0587C28.8556 26.8078 28.8574 26.5363 29.1627 26.469C28.9493 26.4934 28.7563 26.4447 28.5897 26.3173C28.5241 26.3641 28.3969 26.4577 28.3313 26.5046C28.3725 26.6337 28.4136 26.7628 28.4548 26.8921C28.6291 26.9052 28.7882 26.9595 28.9324 27.0587ZM29.2133 25.3924C29.3648 25.4486 29.5146 25.5047 29.6663 25.5628C29.61 25.3157 29.6851 25.1229 29.8928 24.9861C29.7075 25.0011 29.5259 24.9973 29.4547 24.7933C29.3668 24.8644 29.1887 25.0086 29.0989 25.0797C29.1365 25.1846 29.1758 25.2895 29.2133 25.3924ZM27.2343 27.0681C27.2869 26.9669 27.3936 26.7666 27.4478 26.6656C27.3111 26.5906 27.1762 26.5139 27.0415 26.4391C26.89 26.5402 26.7383 26.6432 26.5865 26.7443H26.8805C26.8617 26.8211 26.8224 26.9708 26.8019 27.0476C26.9104 27.0514 27.1257 27.0625 27.2343 27.0681ZM27.665 25.2239C27.6481 25.2969 27.6144 25.4392 27.5975 25.5103C27.7828 25.5289 27.9682 25.5478 28.1555 25.5682C28.1162 25.4167 28.1199 25.265 28.1686 25.1152C28.0731 25.0777 27.8821 25.0047 27.7866 24.9692C27.6349 25.0384 27.4833 25.1077 27.3316 25.1771C27.4141 25.1902 27.5807 25.2127 27.665 25.2239ZM25.6279 24.636C25.4649 24.5049 25.4482 24.3514 25.5754 24.1792C25.4068 24.1211 25.2402 24.0612 25.0738 24.0013L25.0587 24.2746C24.9802 24.2502 24.8191 24.2016 24.7404 24.1792C24.8752 24.3196 25.0081 24.4618 25.1391 24.608C25.3021 24.6135 25.4649 24.6247 25.6279 24.636ZM25.787 27.3003C25.7795 27.1618 25.7646 26.8828 25.7553 26.7443C25.57 26.7386 25.3566 26.6469 25.1993 26.7874C25.2086 26.9502 25.2217 27.1131 25.2423 27.2761C25.3789 27.2815 25.6504 27.2947 25.787 27.3003ZM26.0492 25.7969C26.1897 25.7088 26.3394 25.662 26.5005 25.7312C26.5155 25.6077 26.5435 25.3568 26.5586 25.2314C26.3207 25.1977 26.0829 25.2257 25.849 25.2576C25.9949 25.4093 26.0622 25.589 26.0492 25.7969ZM26.7288 24.1268C26.6988 24.1998 26.6389 24.344 26.607 24.417C26.8129 24.4225 27.017 24.4301 27.2229 24.4432C27.0543 24.2635 27.1948 24.0594 27.2641 23.8777C27.1049 23.9302 26.9609 23.9001 26.8335 23.786C26.68 23.904 26.5303 24.0238 26.3805 24.1437L26.7288 24.1268ZM36.6482 28.2907C32.3887 27.4163 27.9645 27.4013 23.707 28.2944C23.5721 26.7442 23.5515 25.1883 23.4805 23.6361C24.4428 23.4471 25.4127 23.2842 26.3882 23.1587C28.3653 22.9078 30.361 22.818 32.3476 23.0052C33.1696 23.0594 33.9877 23.1512 34.8003 23.2748C35.4856 23.3777 36.1671 23.5032 36.8449 23.6474C36.8485 25.1977 36.6781 26.7424 36.6482 28.2907ZM24.4802 25.9559C24.6374 25.9559 24.9558 25.9579 25.1131 25.9597C25.0494 25.9073 24.9202 25.8044 24.8546 25.7538C24.9127 25.692 25.027 25.5684 25.0849 25.5067C24.881 25.4504 24.6769 25.3924 24.4728 25.3343C24.4726 25.5422 24.4746 25.7481 24.4802 25.9559Z" fill="#5F5F5F"/>
<path d="M30.8243 4.85264C31.0433 4.32465 30.5603 3.88456 30.0603 3.88456L30.0585 3.54004C30.3937 3.54004 30.7307 3.54937 31.0639 3.59061C32.0095 3.89569 31.9121 5.42729 30.9572 5.67262C31.2399 6.14823 31.5396 6.61436 31.8484 7.07312C31.9926 7.1124 32.2772 7.19111 32.4194 7.2304C32.1049 7.616 31.5414 7.45135 31.1145 7.42516C30.6502 6.9065 30.3638 6.2569 29.9407 5.70648L29.9219 5.39192C30.2908 5.36377 30.7458 5.28897 30.8243 4.85264Z" fill="#5F5F5F"/>
<path d="M24.2524 34.0549C24.1794 33.8469 24.1119 33.6334 24.0596 33.42C24.009 33.2048 23.9753 32.9855 23.9697 32.7647C23.8967 31.3884 23.7394 30.0161 23.7694 28.6363C25.8157 28.2169 27.9033 27.9679 29.9928 27.9697C29.9891 29.4714 30.0077 30.9732 29.9835 32.4745C29.5866 32.1992 29.2777 31.832 29.0231 31.4258C28.7029 31.1618 28.3416 30.9504 28.0064 30.7071C27.8247 30.9691 27.529 31.0702 27.2425 31.1618C26.9224 31.6601 26.4599 32.0192 25.9882 32.3582C25.6887 32.7644 25.4378 33.2156 25.0389 33.5398C24.9604 33.4873 24.8049 33.3806 24.7262 33.3282C24.5687 33.5698 24.4114 33.8115 24.2524 34.0549Z" fill="#5F5F5F"/>
<path d="M29.915 7.12256C30.0142 7.12632 30.2145 7.13189 30.3137 7.13385C30.3137 7.21617 30.3137 7.37903 30.3137 7.45955C29.752 7.45955 29.1903 7.45955 28.6306 7.46151C28.6286 7.37918 28.6286 7.21813 28.6286 7.13761C28.7391 7.13189 28.9618 7.12075 29.0723 7.11518C29.0723 6.02925 29.0743 4.94332 29.0705 3.85739C28.9638 3.85739 28.7484 3.85934 28.6417 3.85934C28.636 3.78258 28.6267 3.62726 28.6211 3.55035C29.0985 3.5654 29.5777 3.54282 30.0571 3.54102L30.0589 3.88553C30.0121 3.88553 29.9653 3.8893 29.9185 3.89682C29.9165 4.39486 29.9165 4.8929 29.9203 5.39274L29.9391 5.70731C29.9168 6.17886 29.915 6.65071 29.915 7.12256Z" fill="#5F5F5F"/>
<path d="M29.984 18.3637C29.6694 18.489 29.3511 18.6033 29.0329 18.7175C28.8344 18.5995 28.636 18.4835 28.4375 18.3674C28.9486 18.3113 29.486 18.1671 29.984 18.3637Z" fill="#5F5F5F"/>
<path d="M27.4268 55.0619C27.5466 53.9927 27.498 52.9162 27.5466 51.8432C27.4418 51.8398 27.234 51.8301 27.131 51.8247C27.131 51.7442 27.131 51.5814 27.131 51.499C28.2225 51.5792 29.5518 51.2763 30.3962 52.156C31.4129 53.1126 30.928 55.0786 29.5649 55.4194C28.67 55.5526 27.7525 55.4851 26.8594 55.3598C27.0111 55.1968 27.2001 55.0992 27.4268 55.0619ZM29.4956 54.7851C30.546 53.9088 29.943 51.6697 28.4059 51.9599C28.3515 52.9974 28.3478 54.0383 28.2654 55.0753C28.6849 55.0359 29.1866 55.1442 29.4956 54.7851Z" fill="#5F5F5F"/>
<path d="M26.4106 6.13748C26.1765 5.7293 25.9332 5.32503 25.6747 4.92994C25.598 5.38117 25.5138 5.83044 25.4369 6.28167C25.761 6.2311 26.0867 6.18249 26.4106 6.13748ZM24.66 7.65041C24.9521 6.36791 25.2124 5.07789 25.497 3.79359C25.6074 3.78049 25.8302 3.75431 25.9407 3.74121C26.7215 4.97871 27.315 6.36235 28.3335 7.42961C27.7906 7.55695 27.2382 7.65237 26.6803 7.67856C26.787 7.50999 26.9106 7.35466 27.0529 7.21423C26.9294 6.99148 26.8058 6.76872 26.684 6.54401C26.2217 6.60196 25.7629 6.68068 25.3042 6.7612C25.2443 7.05514 25.1824 7.3509 25.1151 7.64499C25.2593 7.6468 25.5457 7.65252 25.6881 7.65433C25.4578 8.20474 24.7182 7.98575 24.2539 8.12617C24.3398 7.9275 24.4747 7.76826 24.66 7.65041Z" fill="#5F5F5F"/>
<path d="M25.4688 35.5176C24.9615 35.2162 24.6338 34.7126 24.3398 34.2163C26.1822 34.1864 28.0264 34.2463 29.8706 34.1846C29.9081 34.3397 29.9343 34.497 29.9567 34.6564C30.0654 35.5121 29.9625 36.3957 29.9174 37.2551C28.5898 36.3286 26.8525 36.3321 25.4688 35.5176Z" fill="#5F5F5F"/>
<path d="M23.2125 51.098C23.0215 50.9293 22.6508 50.8825 22.647 50.5754C23.087 50.5098 23.5082 50.6767 23.9295 50.772C24.3508 51.7475 24.6915 52.753 25.1352 53.719C25.283 52.9738 25.4647 52.236 25.6426 51.4966C25.5284 51.4871 25.3001 51.4646 25.1858 51.4535C25.2102 51.3635 25.257 51.1803 25.2812 51.0884C25.7249 51.2982 26.5338 51.1277 26.6592 51.7231C26.5114 51.71 26.2155 51.6856 26.0675 51.6745C25.8035 52.8561 25.5115 54.0318 25.2269 55.2093C25.1146 55.1905 24.8899 55.153 24.7776 55.1344C24.3114 54.099 23.9745 53.0093 23.4596 51.9964C23.3117 52.7414 23.1244 53.4774 22.956 54.2169C23.1994 54.2805 23.3604 54.4285 23.439 54.6625C22.9373 54.6175 22.4374 54.522 21.9581 54.3611C21.827 53.9941 22.5085 54.2134 22.546 53.9062C22.7856 52.9738 22.986 52.0322 23.2125 51.098Z" fill="#5F5F5F"/>
<path d="M11.9766 14.5269C11.913 14.0158 12.6319 13.9016 12.9671 13.6677C12.3981 13.1772 12.1172 12.4431 12.2408 11.6943C13.102 12.2523 13.9894 12.7803 14.9575 13.1341C16.9328 13.9336 19.2282 14.3174 20.7053 15.9931C21.2633 16.5417 21.325 17.4047 21.0778 18.1162C20.7988 18.9605 20.4207 19.8536 20.6641 20.7561C20.9412 22.0198 21.9672 22.9429 23.0307 23.5871C23.07 24.4689 23.1186 25.3507 23.1955 26.2306C22.8978 26.3542 22.5983 26.4722 22.2968 26.5882C22.149 26.0977 22.0816 25.5866 22.1246 25.0736C21.5011 25.3245 20.8402 25.465 20.168 25.4781C20.2091 24.8003 20.4488 24.1599 20.7803 23.574C20.1174 23.6451 19.449 23.617 18.7862 23.5478C18.9678 23.061 19.2187 22.6023 19.5595 22.2072C18.7488 22.1622 17.94 22.0011 17.2192 21.6155C17.5937 21.1194 18.0298 20.67 18.5241 20.2937C17.7115 20.2263 16.8951 20.1214 16.1238 19.8407C16.4328 19.4418 16.7585 19.0562 17.0917 18.6762C16.2942 18.4983 15.4647 18.3654 14.7421 17.9628C14.9331 17.6351 15.1951 17.358 15.4686 17.0998C14.6242 17.1035 13.8098 16.8583 13.0514 16.4988C13.3004 16.1729 13.5606 15.8547 13.8378 15.5533C13.1468 15.362 12.4897 15.0343 11.9766 14.5269Z" fill="#5F5F5F"/>
<path d="M22.669 6.84177C23.0583 6.49921 23.2289 5.97679 22.9105 5.52375C22.7663 5.08185 22.2496 5.1979 21.8994 5.24847C22.0942 5.80265 22.1598 6.4691 22.669 6.84177ZM21.3041 5.05551C21.9107 4.88514 22.5398 4.52376 23.1839 4.72966C23.858 4.97303 24.0844 5.89039 23.6969 6.46534C23.4498 6.89038 22.948 7.02885 22.5136 7.16928C22.6485 7.53442 22.7719 7.90316 22.8862 8.27387C23.1559 8.21758 23.388 8.27568 23.5865 8.44801C22.9518 8.68386 22.3171 8.95914 21.6336 9.01348C21.7572 8.83377 21.9069 8.67649 22.0829 8.54344C21.7721 7.53803 21.4089 6.54767 21.0999 5.54031C20.9557 5.54964 20.6637 5.57026 20.5195 5.58155C20.5833 5.1979 21.012 5.18104 21.3041 5.05551Z" fill="#5F5F5F"/>
<path d="M24.5011 23.0213C23.3328 22.8003 22.3106 21.881 21.8875 20.782C21.3446 19.3254 22.6008 17.9399 22.1777 16.4795C22.0597 15.7399 21.47 15.2381 20.957 14.7533C26.6955 11.0931 34.5853 11.3027 40.1329 15.2401C39.2961 15.7268 38.3131 16.2306 37.9874 17.2134C37.6804 18.4041 38.3 19.6005 38.1316 20.8026C38.0362 21.8211 37.2835 22.7611 36.3098 23.0661C35.8268 23.0269 35.3457 22.9614 34.8625 22.892C34.0612 22.776 33.2579 22.6431 32.4473 22.5925C32.3013 21.5234 32.2358 20.4375 31.9419 19.3946C32.3669 19.3254 32.7769 19.1869 33.1569 18.979C32.2731 18.9622 31.6517 18.3519 30.9888 17.8669C30.1704 17.601 29.2083 17.6329 28.4201 17.9887C28.4013 18.0672 28.3639 18.2208 28.3451 18.2995C27.9988 18.4193 27.6055 18.4661 27.3211 18.7152C26.9803 18.9717 27.1693 19.4491 27.1225 19.8105C27.7029 19.1589 28.8975 19.3798 29.2438 20.1718C29.4591 20.5538 29.3954 21.0874 29.0229 21.3476C28.5716 21.7034 28.1972 22.1303 27.8677 22.5946C27.3566 22.6396 26.8473 22.6975 26.3399 22.765C25.7256 22.8434 25.1134 22.9332 24.5011 23.0213Z" fill="#5F5F5F"/>
<path d="M20.3851 37.7002C20.6435 37.5784 20.7314 37.653 20.6529 37.9247C20.3925 38.0481 20.3026 37.9732 20.3851 37.7002Z" fill="#5F5F5F"/>
<path d="M18.7399 10.1249C18.3149 9.16257 17.7738 8.25454 17.3263 7.30151C17.1897 7.33719 16.9164 7.41018 16.7797 7.4457C16.7404 7.03571 17.2029 6.96076 17.4594 6.77924C18.0717 6.49839 18.6614 6.16878 19.1894 5.76074C19.3617 6.0884 19.7193 6.45535 19.4814 6.84667C19.311 6.7231 19.1426 6.59758 18.974 6.47401C18.6894 6.64062 18.403 6.80724 18.1165 6.97205C18.3075 7.34652 18.4966 7.72279 18.6913 8.09531C18.9198 7.97731 19.1481 7.8575 19.3766 7.73769C19.2306 7.42689 19.3111 7.24537 19.6162 7.19285C19.8483 7.5935 20.1442 8.00906 20.0899 8.49596C19.8989 8.38925 19.7079 8.27697 19.5206 8.16273C19.309 8.26749 19.0956 8.37239 18.8841 8.47534C19.0939 8.876 19.2979 9.28042 19.502 9.68484C19.8409 9.51251 20.1797 9.34228 20.5167 9.16799C20.3725 8.904 20.4213 8.67928 20.6984 8.53886C20.8388 8.80857 20.9755 9.07814 21.1121 9.34951C20.2658 9.81955 19.3971 10.2464 18.5359 10.6845C18.5115 10.606 18.4666 10.4505 18.444 10.3737C18.517 10.3102 18.665 10.1866 18.7399 10.1249Z" fill="#5F5F5F"/>
<path d="M19.3673 51.4895C19.665 51.6224 19.9645 51.7535 20.266 51.8789C20.2904 51.4351 20.3184 50.9914 20.339 50.5495C20 50.8471 19.6761 51.16 19.3673 51.4895ZM18.7531 52.8057C18.2663 52.9666 17.6447 52.5941 17.375 52.1859C17.5061 52.1859 17.7701 52.1859 17.9012 52.1859C18.9159 51.3397 19.8184 50.3641 20.8014 49.4805C20.895 49.5198 21.0822 49.5965 21.1758 49.634C21.1272 50.5026 21.1102 51.3734 21.0447 52.2422C21.0166 52.8505 20.8537 53.4946 21.1739 54.062C20.6272 53.8992 20.1066 53.6635 19.6181 53.373C19.7809 53.197 19.9757 53.1595 20.2004 53.2628C20.2059 52.9688 20.2154 52.6787 20.2266 52.3865C19.809 52.1842 19.386 51.9916 18.9552 51.8191C18.7662 52.0175 18.577 52.2161 18.3879 52.4147C18.4797 52.5137 18.6632 52.7083 18.7531 52.8057Z" fill="#5F5F5F"/>
<path d="M18.2932 34.0605C18.0574 34.6278 17.8008 35.1858 17.5687 35.755C17.5107 35.0959 17.8684 34.5249 18.2932 34.0605Z" fill="#5F5F5F"/>
<path d="M16.9501 52.0536C16.205 51.5669 15.458 51.0856 14.7277 50.5782C14.2915 50.3198 14.9562 50.1214 15.1415 50.3743C15.72 49.5093 16.349 48.6705 16.8583 47.7643C16.7947 47.6201 16.6673 47.3336 16.6037 47.1895C17.2009 47.4647 17.9461 47.7439 18.2194 48.3914C18.0696 48.3484 17.7701 48.2623 17.6184 48.2191C17.0493 49.0972 16.4501 49.9585 15.8866 50.8422C16.1917 51.0406 16.4914 51.2502 16.8153 51.419C16.9182 51.3329 17.1243 51.1643 17.2253 51.078C17.5362 51.4396 17.0999 51.7447 16.9501 52.0536Z" fill="#5F5F5F"/>
<path d="M16.9354 35.8523C16.6601 35.1335 16.7408 34.3096 17.1395 33.6543C17.0123 34.3805 16.9411 35.1144 16.9354 35.8523Z" fill="#5F5F5F"/>
<path d="M15.5188 35.1442C15.442 34.5001 15.4233 33.8392 15.6255 33.2139C15.7546 33.8374 15.6648 34.4775 15.6816 35.1106L15.5188 35.1442Z" fill="#5F5F5F"/>
<path d="M15.5134 9.04143C15.064 8.86549 14.6671 9.23424 14.274 9.39152C14.8264 10.3051 15.5116 11.1271 16.1275 11.9958C16.4364 11.7338 16.8297 11.4829 16.8914 11.0447C17.0318 10.1593 16.3727 9.25305 15.5134 9.04143ZM13.5699 9.94209C13.3939 10.0188 13.216 10.0938 13.0381 10.1686C12.937 9.83342 13.2722 9.70052 13.4632 9.52638C13.9743 9.17253 14.4444 8.74372 15.019 8.49282C15.6293 8.32997 16.3464 8.36173 16.865 8.75501C17.7395 9.38595 17.9436 10.7883 17.2357 11.6121C16.7883 12.0727 16.2397 12.4153 15.7099 12.7673C14.9143 11.891 14.272 10.8912 13.5699 9.94209Z" fill="#5F5F5F"/>
<path d="M39.7433 38.6887C40.1159 38.539 40.3256 38.1871 40.5634 37.8891C40.2246 37.7637 39.8819 37.6458 39.5449 37.5164C39.5392 37.5801 39.528 37.7056 39.5225 37.7673C39.6647 37.7653 39.9531 37.758 40.0973 37.7542C40.0091 38.0766 39.8799 38.3836 39.7433 38.6887ZM34.7874 40.3178C34.9147 40.4095 35.173 40.591 35.3023 40.6812C35.7385 40.4113 36.1691 40.1267 36.581 39.8197L36.699 40.0144C36.7046 39.8066 36.7103 39.6007 36.7179 39.3948C36.0773 39.7074 35.4333 40.0165 34.7874 40.3178ZM36.2028 40.2802C35.7571 40.5292 35.3378 40.8215 34.8922 41.0684C35.0814 41.2313 35.2722 41.3961 35.4614 41.5608C35.8265 41.2012 36.1897 40.8233 36.656 40.5927C37.4161 40.1997 38.0452 39.6079 38.7922 39.1961C38.62 39.4303 38.4365 39.6679 38.1725 39.8046C37.5154 40.1527 37.0753 40.7706 36.54 41.265C36.7534 41.3681 36.9668 41.4708 37.1802 41.5757C37.5491 41.0645 37.8711 40.5064 38.3655 40.1041C38.7943 39.754 39.1968 39.3401 39.3765 38.8028L38.9365 38.8328C38.974 38.739 39.047 38.5537 39.0845 38.4599C38.7905 38.6585 38.4385 38.7202 38.0922 38.756C38.2439 38.8606 38.4087 38.945 38.5715 39.0329C38.3506 39.0987 38.1334 39.1752 37.92 39.2616C37.935 39.1156 37.92 38.9733 37.8789 38.8328C37.6786 39.1848 37.2985 39.3195 36.9278 39.3907C36.8885 39.5086 36.8118 39.7447 36.7725 39.8626L37.424 39.6398C37.1445 40.0611 36.611 40.063 36.2028 40.2802ZM20.9325 38.2264C20.704 38.7 21.159 38.938 21.4174 39.2244C22.1027 39.889 22.5296 40.7783 22.713 41.7069C22.9639 41.8005 23.2129 41.8905 23.4638 41.9841C23.1193 40.4807 22.2261 39.0838 20.9325 38.2264ZM20.6553 37.9249C20.7338 37.6532 20.6459 37.5786 20.3875 37.7003C20.3052 37.9734 20.395 38.0483 20.6553 37.9249ZM17.0287 37.9193C16.4184 38.6102 16.1338 39.5653 16.3434 40.4733C16.424 39.5856 16.7161 38.7468 17.0287 37.9193ZM16.5194 37.3651C15.8416 37.7321 15.4241 38.4156 15.1958 39.1324C15.6451 38.5485 16.0757 37.9532 16.5194 37.3651ZM14.928 37.9961C14.5311 37.852 14.0799 38.0953 13.668 38.1066C13.7465 37.9026 13.8346 37.7003 13.9395 37.5075L14.1622 37.5545C14.692 37.3299 15.2051 37.0172 15.7966 36.9854C15.8752 36.9479 15.9539 36.9104 16.0325 36.8751C16.07 36.8563 16.1055 36.8396 16.143 36.8225L16.2834 37.1373C16.3657 37.0658 16.5287 36.9235 16.611 36.8523C16.6186 36.8356 16.6241 36.8206 16.6279 36.8037L16.9181 36.8337C16.832 37.019 17.0042 37.3055 17.2533 37.2381C17.478 37.2064 17.5097 37.0155 17.4385 36.8674L17.6295 36.8393C17.7119 36.8787 17.7944 36.9011 17.8729 36.905L17.8523 37.259C17.725 37.2325 17.5958 37.2721 17.5264 37.4142C17.3448 37.5882 17.5657 37.8522 17.5602 38.0566C17.8204 37.9873 18.1724 37.9837 18.1911 37.6276L18.5281 37.6671C18.4999 37.8432 18.6348 38.0677 18.7659 38.255C18.8183 38.3317 18.8707 38.4026 18.9101 38.4607C19.043 38.7491 19.2471 38.989 19.5466 39.1105C19.79 39.3391 20.1008 39.4548 20.4116 39.5597C20.9096 38.9885 20.288 38.4062 20.0802 37.8615C19.9677 37.871 19.7432 37.8898 19.6309 37.897C19.7526 38.1516 19.8649 38.4342 20.1926 38.4473C20.1476 38.5129 20.0615 38.6401 20.0166 38.7038C20.481 38.6326 20.7057 39.0447 20.2225 39.2599C19.9698 39.2036 19.8256 39.0445 19.79 38.7879C19.6682 38.7823 19.423 38.7712 19.2995 38.7656C19.249 38.5484 19.2977 38.3444 19.4474 38.1534C19.2958 38.1666 18.9944 38.1946 18.8427 38.2077C18.8502 38.0579 18.8633 37.7599 18.8688 37.6103C19.0055 37.6367 19.277 37.6908 19.4137 37.719C19.4268 37.5617 19.4418 37.4064 19.4567 37.2527C20.0877 36.9679 20.7918 37.0185 21.4602 37.099C21.6024 37.2974 21.6549 37.5897 21.8908 37.702C22.488 37.6197 23.0515 37.3913 23.6152 37.189C23.6039 37.3368 23.5815 37.6309 23.5703 37.7787C23.9821 37.5447 24.3923 37.3069 24.8136 37.0879C24.7798 37.2357 24.7124 37.5355 24.6787 37.6832C25.3658 37.3707 26.0661 36.7828 26.8486 37.1966C26.3992 37.8126 25.9967 38.4697 25.77 39.2036C26.0416 39.1625 26.3149 39.1213 26.5864 39.0763C26.4684 39.5311 26.3861 39.9955 26.3393 40.4637C26.6407 40.3346 26.9403 40.2017 27.238 40.0706C27.2211 40.5537 27.2435 41.0403 27.2979 41.5216C27.618 41.3026 27.927 41.0686 28.221 40.816C28.3219 41.3065 28.4494 41.7912 28.6103 42.2651C28.8761 42.0106 29.1252 41.7411 29.3499 41.4488C29.5483 41.9244 29.7805 42.3868 30.0876 42.8044C30.3591 42.3624 30.5876 41.8982 30.7635 41.4115C31.035 41.7072 31.3084 41.999 31.5986 42.2782C31.7576 41.8008 31.8812 41.3123 31.9768 40.818C32.2763 41.0689 32.5815 41.3142 32.8904 41.5538C32.9522 41.0632 32.9727 40.569 32.9709 40.0749C33.2779 40.2098 33.585 40.3424 33.894 40.4718C33.8117 40.0055 33.7198 39.5411 33.6225 39.0769C33.8263 39.1142 34.2346 39.1856 34.4387 39.223C34.2233 38.5113 33.8789 37.8432 33.3789 37.2887C34.1334 36.7214 34.9272 37.3207 35.6145 37.6818C35.5976 37.5397 35.5639 37.255 35.547 37.1129C35.9683 37.3227 36.3783 37.5548 36.7902 37.787C36.7659 37.6333 36.7153 37.3283 36.6911 37.1747C37.3127 37.3433 37.9361 37.5099 38.5596 37.6746C38.7657 37.4708 38.9285 37.227 39.1083 37.0006C39.6868 36.9368 40.2878 36.8846 40.7783 37.2477C40.8888 37.0119 40.9543 36.7628 40.9767 36.5026C41.2538 36.6186 41.5366 36.6767 41.7968 36.4595L41.7949 36.6189C41.5309 36.8808 41.0291 36.9952 40.9598 37.4014C41.1508 37.4837 41.2913 37.6166 41.3755 37.7983C41.2482 38.1261 40.9281 38.0417 40.6528 38.0117C40.7726 38.1842 40.8345 38.3714 40.8345 38.5734C40.6922 38.577 40.4076 38.5867 40.2634 38.5921C40.3384 39.2923 39.4808 39.0433 39.5351 38.4685C39.5145 38.744 39.5145 39.0209 39.5613 39.2942C39.0763 39.8278 39.0371 40.6762 38.4099 41.0784C38.1215 41.5895 37.8595 42.1158 37.5804 42.6325C37.7902 42.7016 37.9999 42.773 38.2096 42.8439C38.5204 42.3272 38.8274 41.7823 38.9341 41.1794C39.0389 40.5259 39.4284 39.9718 39.6567 39.3614C40.2765 39.2191 40.842 38.8222 41.2052 38.3052C41.559 38.0262 41.5945 37.62 41.4224 37.227C41.486 37.137 41.6133 36.9553 41.677 36.8657L41.6677 37.3973C43.1075 36.6934 44.5417 35.9782 45.9551 35.2217C45.9964 35.2836 46.0769 35.4053 46.1181 35.4649C46.3409 35.235 46.5749 34.9856 46.9288 35.1581L46.897 34.8716C47.3952 34.7256 47.9081 34.643 48.423 34.5684C48.0468 34.937 47.646 35.2798 47.2415 35.6149L47.1181 35.3509C46.9122 35.4481 46.708 35.5476 46.5019 35.6448C45.0904 39.4622 42.2911 42.7465 38.7395 44.7365C34.9837 46.882 30.4116 47.5113 26.2064 46.5282C22.7014 45.7303 19.4718 43.7891 17.1052 41.0874C16.8356 40.872 17.2269 40.5856 17.2793 40.3479C17.6107 39.8329 17.3991 39.2209 17.2811 38.6777C17.369 39.6532 17.0883 40.625 16.4068 41.34C15.9611 40.7897 15.8937 40.0779 15.8788 39.3966C15.5531 39.4977 15.231 39.6064 14.9091 39.7131C14.7239 39.1363 15.1228 38.5429 14.928 37.9961Z" fill="#5F5F5F"/>
<path d="M12.5797 48.2506C12.8343 48.5035 13.0888 48.7524 13.3473 49.0032C13.5794 48.949 13.864 48.6608 14.0343 49.022C13.8378 49.2333 13.643 49.4452 13.4483 49.6567C12.7311 48.9415 11.782 48.3891 11.3008 47.4792C11.5047 47.556 11.7088 47.6365 11.9111 47.7207C12.6206 46.9455 13.3247 46.1704 14.0492 45.41C13.9499 45.2249 13.8507 45.0374 13.7553 44.8486C14.7494 45.1147 15.2157 46.2436 16.1967 46.5881C15.9609 46.8483 15.7286 47.1122 15.4722 47.3558C15.4123 47.2886 15.2943 47.1519 15.2344 47.0825L15.4309 46.7193C15.1669 46.4836 14.9085 46.2458 14.6465 46.0097C14.3525 46.328 14.0641 46.6501 13.7851 46.9815C14.0903 47.2399 14.4123 47.648 14.7905 47.2288C15.1257 47.7512 14.3224 48.0542 14.109 48.4534C13.8244 48.2771 13.9331 48.0057 14.034 47.7547C13.8506 47.6087 13.6707 47.4534 13.4648 47.3375C13.1396 47.6103 12.8662 47.9377 12.5797 48.2506Z" fill="#5F5F5F"/>
<path d="M14.8056 35.3372C14.3431 35.1163 13.8246 35.0958 13.3265 35.0339L13.319 35.0957C13.8133 35.1855 14.3038 35.3015 14.8056 35.3372ZM14.0679 36.0092C13.291 35.8952 12.4841 35.6912 11.9391 35.0827C12.3247 34.9536 12.718 34.8413 13.1131 34.7457C12.5064 34.6128 12.0123 34.214 11.707 33.6804C12.2257 33.5531 12.7611 33.54 13.2928 33.5439C13.2684 33.5251 13.2442 33.5084 13.2179 33.4912L13.4931 33.495C13.5774 33.549 13.746 33.6557 13.8319 33.7084L14.1409 33.8636C14.0904 33.9724 14.1485 34.1014 14.2458 34.1819L14.1278 34.3934C13.6709 34.1389 13.1992 33.9197 12.6619 33.9011C13.3115 34.2456 14.156 34.3371 14.5715 35.0132C14.7344 34.9047 14.901 34.7979 15.0676 34.6966C15.2997 34.9364 15.5244 35.1852 15.7491 35.4343C15.9308 35.1404 16.1087 34.8425 16.2378 34.5224C16.3164 34.4754 16.4737 34.3818 16.5524 34.3351C16.528 34.7432 16.5506 35.1553 16.6329 35.5577C16.5149 35.7317 16.3971 35.9058 16.2771 36.0801C16.4306 36.1586 16.5842 36.2374 16.7378 36.3158C16.9531 36.054 17.1216 35.7261 17.4231 35.554C17.6833 35.9283 17.5709 36.4113 17.631 36.8383L17.44 36.8664C17.3763 36.7374 17.2359 36.6399 17.073 36.7073C16.9963 36.7314 16.9457 36.7785 16.9195 36.8327L16.6293 36.8027C16.7061 36.4806 15.9627 36.3029 16.0228 36.8514C15.9498 36.6247 15.8954 36.3946 15.843 36.1625C15.6895 36.1661 15.3825 36.1736 15.229 36.1756C15.3151 36.0032 15.4013 35.831 15.4892 35.6587C15.3095 35.5819 15.1316 35.505 14.9519 35.4284C14.9088 35.5782 14.864 35.7263 14.817 35.8741C14.8956 35.9527 15.0529 36.1083 15.1316 36.1887C14.5362 36.2242 13.9427 36.3363 13.4222 36.6379C14.0738 36.5106 14.7141 36.3253 15.3676 36.2055C15.5792 36.3778 15.7403 36.6024 15.918 36.8083C15.2589 36.8327 14.6167 37.063 14.1637 37.5535L13.9409 37.5065C14.0458 37.3154 14.1694 37.1339 14.3154 36.9692C13.8155 36.9916 13.3231 36.8908 12.8401 36.7802C13.1224 36.3557 13.626 36.2024 14.0679 36.0092Z" fill="#5F5F5F"/>
<path d="M15.3953 30.593C14.4816 31.0143 13.9817 32.0197 14.0809 33.0061C14.594 32.5814 14.4479 31.7236 14.9366 31.2202C14.7305 31.8362 14.6988 32.5459 14.2775 33.0644C14.2624 33.1955 14.2344 33.4595 14.2194 33.5906C14.6351 33.2177 15.0919 32.8585 15.3559 32.3547C15.6256 31.8043 15.5264 31.1678 15.3953 30.593ZM13.4014 30.1701C13.5249 29.8347 13.6523 29.5018 13.8058 29.1797C13.7441 29.571 13.6354 29.9511 13.5325 30.3329C13.5904 30.6663 13.6447 30.9994 13.6973 31.3344C14.4387 30.5817 14.5884 29.4472 14.2739 28.4679C13.7421 28.7787 13.3845 29.2823 13.1356 29.8328C13.2029 29.917 13.3339 30.0856 13.4014 30.1701ZM13.4538 31.2652C13.4294 30.5387 12.8883 29.949 12.3285 29.5408C12.7161 30.1043 13.0456 30.7372 13.4538 31.2652ZM13.9331 31.7295C13.8151 31.5743 13.6709 31.473 13.5006 31.4244C13.4387 31.5949 13.3957 31.767 13.3677 31.945C13.4762 31.9768 13.6935 32.0365 13.802 32.0683C13.8338 31.984 13.8994 31.8139 13.9331 31.7295ZM11.9447 32.0252C12.4747 32.4184 13.0812 32.7031 13.5718 33.1506C13.5529 33.2367 13.5118 33.4092 13.4912 33.4951L13.2159 33.4915C12.8359 33.2408 12.3472 33.2033 11.9878 32.913C11.6357 32.5948 11.4935 32.1229 11.3438 31.6904C11.896 31.6868 12.4334 31.8159 12.9483 32.0085C12.9483 31.3738 12.2444 31.1231 12.0891 30.5575C11.9243 29.9733 11.9036 29.3611 11.7876 28.7656C12.0984 28.9603 12.4092 29.1532 12.722 29.3426C12.7874 27.7229 12.9878 26.096 13.4765 24.5455C14.1167 24.5605 14.7572 24.5024 15.3806 24.3564C14.8038 24.9106 14.3058 25.5547 14.0812 26.3373C14.9424 26.3972 15.7701 26.1164 16.4965 25.6746C16.019 26.3056 15.6632 27.019 15.4873 27.7941C16.2793 27.7548 16.9626 27.3429 17.6235 26.9478C17.3146 27.6088 17.015 28.2753 16.8315 28.9849C17.6047 28.8295 18.3498 28.5056 18.9116 27.9383C18.6513 28.6592 18.4135 29.3987 18.3687 30.1701C19.0764 30.071 19.6942 29.7021 20.2279 29.245C20.0107 29.9472 19.9133 30.6791 19.9395 31.4151C20.6772 31.1491 21.2502 30.6062 21.677 29.9639C21.4824 30.6493 21.3831 31.3645 21.4842 32.0757C22.1433 31.8249 22.5721 31.2575 22.9315 30.6791C22.7499 31.3473 22.6469 32.0367 22.7237 32.7292C23.0045 32.6002 23.2816 32.4673 23.5569 32.3267C23.585 32.718 23.6392 33.1055 23.7235 33.4876C23.7741 33.7233 23.8358 33.9554 23.9088 34.186C23.5381 34.5586 23.1186 34.877 22.645 35.1053C22.8042 35.2286 22.9633 35.3541 23.1224 35.4795C22.7572 35.6632 22.3978 35.8559 22.0477 36.0637C22.2013 36.1124 22.5063 36.206 22.6599 36.2529C22.0027 36.7171 21.2107 36.9511 20.4057 36.8988C19.8852 36.8204 19.4395 37.1047 19.0744 37.4436C18.9865 37.2899 18.9003 37.1366 18.8142 36.9829L19.1099 36.9192C18.8179 36.8012 18.4978 36.6852 18.4228 37.1327C18.5613 37.2261 18.6999 37.3199 18.8404 37.4155C18.6363 37.4623 18.5484 37.5539 18.5276 37.6662L18.1906 37.6268C18.1906 37.6248 18.1906 37.6248 18.1906 37.6232C18.1849 37.4472 18.0202 37.2939 17.8517 37.2582L17.8723 36.904C18.0034 36.9134 18.1287 36.8742 18.2486 36.7842C18.5276 36.3724 17.8929 36.1869 17.6589 35.9472C18.6774 35.4849 18.9826 34.3315 19.0463 33.3109C18.5052 33.5148 18.0315 33.8466 17.6083 34.2376C17.6083 33.7433 17.6045 33.2471 17.5934 32.753C17.1066 33.1891 16.6665 33.7227 16.5935 34.4005C16.586 34.378 16.5786 34.3535 16.5729 34.3291C16.367 33.6383 16.5318 32.8425 16.0207 32.2454C15.4908 32.7846 15.1557 33.4942 15.193 34.26C15.0433 34.4208 14.8973 34.5857 14.7418 34.7409C14.5359 34.6286 14.3338 34.5069 14.1259 34.3928L14.2439 34.1813C14.3619 34.2749 14.5341 34.3011 14.6502 34.1438C14.8711 33.9137 14.5117 33.5915 14.2719 33.7393C14.2045 33.7731 14.1615 33.8162 14.139 33.8627L13.83 33.7075C13.8451 33.6289 13.8768 33.4679 13.8937 33.3874C13.4538 32.6937 12.7591 32.1752 11.9447 32.0252Z" fill="#5F5F5F"/>
<path d="M11.3061 16.5582C11.7162 16.1706 12.2928 16.7809 11.9352 17.2004C11.5008 17.5487 10.9298 16.9719 11.3061 16.5582Z" fill="#5F5F5F"/>
<path d="M9.92319 45.2959C10.5297 44.9458 11.0765 44.5004 11.6157 44.0566C11.5802 44.0643 11.5445 44.0716 11.509 44.0789L11.4153 43.6445C11.8834 43.5473 12.3515 43.4442 12.8177 43.334C13.0985 43.6726 13.3625 44.0284 13.6152 44.3916C13.3381 44.6087 13.162 44.3672 12.9936 44.1631C12.1342 44.7903 11.2672 45.4098 10.4155 46.0466C10.4604 46.2077 10.5522 46.5278 10.5972 46.689C9.96067 46.3577 9.65724 45.6481 9.27344 45.0749C9.50567 45.0937 9.72286 45.1664 9.92319 45.2959Z" fill="#5F5F5F"/>
<path d="M9.51888 20.6143C9.92706 20.7753 9.86716 21.5223 9.36912 21.485C9.26617 21.4532 9.06208 21.3895 8.96094 21.3596C8.96094 21.2023 8.96094 20.8915 8.96094 20.736C9.1426 20.6686 9.32803 20.6274 9.51888 20.6143Z" fill="#5F5F5F"/>
<path d="M9.20229 36.5695C8.95711 36.534 8.79411 36.3936 8.71359 36.1445C7.69313 36.4142 6.66529 36.6651 5.6337 36.8972C5.62798 37.0301 5.61308 37.2923 5.60555 37.4252L5.38837 37.3898C5.17494 36.8338 5.07199 36.2422 4.97266 35.6578C5.18427 35.7515 5.36022 35.888 5.5026 36.0697C5.93321 35.9705 6.36202 35.8599 6.79082 35.7476C6.71963 35.4556 6.64859 35.1614 6.5792 34.8674L7.008 34.7643C7.07724 35.0563 7.14843 35.3486 7.22143 35.6388C7.66333 35.5357 8.10522 35.433 8.54893 35.3393C8.54336 35.1897 8.53207 34.888 8.5265 34.7363C9.13486 35.1091 9.00573 35.9666 9.20229 36.5695Z" fill="#5F5F5F"/>
<path d="M8.37909 43.2457C8.45961 43.4441 8.53637 43.6426 8.61313 43.8447C8.05143 43.7755 7.87548 43.1295 7.52344 42.7683C7.56468 42.6933 7.6452 42.5437 7.68629 42.4688C7.81543 42.6072 7.94291 42.746 8.07205 42.8846C8.93507 42.2517 9.81134 41.6357 10.6708 40.9954C10.5902 40.8005 10.5115 40.6039 10.4367 40.4092C10.9123 40.4298 11.0752 40.9408 11.3503 41.2462C10.9403 42.1581 10.4405 43.0231 10.0079 43.9236C10.4798 43.8354 10.9478 43.7439 11.4158 43.6445L11.5094 44.0789C10.6032 44.2792 9.69515 44.474 8.77779 44.6257C9.20464 43.7383 9.69711 42.8828 10.0978 41.984C9.5323 42.4143 8.95569 42.828 8.37909 43.2457Z" fill="#5F5F5F"/>
<path d="M8.7498 16.4632C8.70299 16.5475 8.61133 16.7177 8.56452 16.802C8.39415 16.7401 8.22377 16.6766 8.05159 16.6147C7.69397 16.8994 7.41508 17.6033 8.05715 17.7306C8.63948 17.5789 9.12442 17.1746 9.71412 17.0435C10.3825 16.8845 11.1295 17.448 11.1015 18.1481C11.1708 18.8352 10.4537 19.2079 10.3639 19.8519C10.0269 19.6254 9.12442 19.5224 9.46894 18.9625C10.0606 19.4981 10.9144 18.5488 10.4519 17.9909C9.84356 17.6969 9.30428 18.3262 8.73882 18.4869C8.10035 18.8296 7.1717 18.3354 7.16042 17.5995C7.07809 16.9797 7.65093 16.5566 7.72769 15.9688C8.09072 16.083 8.4259 16.2666 8.7498 16.4632Z" fill="#5F5F5F"/>
<path d="M6.57841 34.8679C6.50722 34.5796 6.43798 34.2912 6.36875 34.0028C5.91376 34.1076 5.44567 34.1809 5.0113 34.3606C5.00573 34.4917 4.99263 34.7519 4.98511 34.883C4.92144 34.8491 4.79411 34.7797 4.73045 34.7463C4.5414 34.2183 4.45336 33.6624 4.32422 33.1192C4.57512 33.1156 4.72864 33.2426 4.78478 33.4991C5.82586 33.2691 6.85369 32.9917 7.88905 32.7465C7.9041 32.5218 7.89282 32.2728 8.11376 32.1416C8.28971 32.7351 8.49937 33.3303 8.54061 33.9539L8.33471 33.9145C8.03144 33.2706 7.30312 33.8791 6.80508 33.8883C6.87055 34.1803 6.93798 34.4724 7.00721 34.7644L6.57841 34.8679Z" fill="#5F5F5F"/>
<path d="M9.62255 38.7489C9.37165 37.9776 8.33072 38.0149 7.71845 38.2845C7.11746 38.5561 6.48457 39.1233 6.54628 39.8404C7.32155 41.1621 9.67132 40.1586 9.62255 38.7489ZM7.85707 41.2593C6.72809 41.2351 5.83873 40.0593 6.07834 38.9675C6.2001 38.1927 6.83285 37.5709 7.57065 37.3591C8.72025 36.9567 10.1507 37.8797 10.1039 39.1361C10.2535 40.357 9.04038 41.4112 7.85707 41.2593Z" fill="#5F5F5F"/>
<path d="M5.97146 20.7395C6.78211 20.9924 7.6209 21.1701 8.40536 21.4997C9.77034 22.185 8.99144 24.7913 7.44119 24.516C6.6474 24.3605 5.89093 24.0572 5.10828 23.8551C4.951 24.0086 4.79176 24.1602 4.62891 24.3099C4.7168 23.6603 4.75624 22.8515 5.30289 22.4153C5.29913 22.5651 5.2898 22.8608 5.28603 23.0088C6.19782 23.2896 7.10405 23.5911 8.04007 23.7782C8.61682 23.4187 8.92943 22.4732 8.29097 22.0201C7.54203 21.5745 6.63777 21.4939 5.83449 21.1737C5.78588 21.3029 5.6885 21.5613 5.63988 21.6924C5.21861 21.6063 5.46755 21.1944 5.50322 20.9397C5.60993 20.6327 5.63431 20.2227 6.02007 20.1328C6.00893 20.2847 5.98275 20.588 5.97146 20.7395Z" fill="#5F5F5F"/>
</g>
<defs>
<clipPath id="clip0">
<rect width="59" height="59" fill="white" transform="translate(0.734375)"/>
</clipPath>
</defs>
</svg>
