<svg width="285" height="86" viewBox="0 0 285 86" fill="none" xmlns="http://www.w3.org/2000/svg">
<path d="M140.824 39.2058C140.824 47.7201 145.981 52.4284 152.517 52.4284C155.784 52.4284 158.461 51.0944 160.548 48.701L158.028 45.9152C156.571 47.5239 154.879 48.4656 152.595 48.4656C148.304 48.4656 145.509 44.9343 145.509 39.0881C145.509 33.3203 148.54 29.789 152.753 29.789C154.721 29.789 156.178 30.613 157.516 31.9078L160.036 29.0828C158.422 27.3564 155.863 25.8262 152.713 25.8262C146.1 25.8262 140.824 30.8092 140.824 39.2058Z" fill="#5F5F5F"/>
<path d="M164.77 51.9576H169.336V26.297H164.77V51.9576Z" fill="#5F5F5F"/>
<path d="M173.993 48.6617C176.434 51.0552 179.78 52.4284 183.245 52.4284C189.032 52.4284 192.496 48.9756 192.496 44.8166C192.496 41.0891 190.37 39.1665 187.3 37.8717L183.835 36.42C181.709 35.5568 179.741 34.8113 179.741 32.8102C179.741 30.9269 181.316 29.789 183.757 29.789C185.961 29.789 187.733 30.613 189.347 31.9863L191.709 29.0828C189.701 27.0817 186.788 25.8262 183.757 25.8262C178.757 25.8262 175.135 28.9651 175.135 33.0457C175.135 36.8124 177.773 38.8134 180.332 39.8728L183.835 41.403C186.197 42.3839 187.851 43.0509 187.851 45.1697C187.851 47.1708 186.237 48.4656 183.363 48.4656C180.961 48.4656 178.481 47.2885 176.631 45.5621L173.993 48.6617Z" fill="#5F5F5F"/>
<path d="M201.433 41.4422L202.338 38.3033C203.165 35.596 203.913 32.6925 204.621 29.8283H204.779C205.527 32.6533 206.314 35.596 207.102 38.3033L208.007 41.4422H201.433ZM211.038 51.9576H215.881L207.495 26.297H202.141L193.716 51.9576H198.401L200.409 45.0128H209.031L211.038 51.9576Z" fill="#5F5F5F"/>
<path d="M141.773 57.6816C141.773 59.2206 142.67 60.0287 143.767 60.0287C144.293 60.0287 144.761 59.7968 145.112 59.3541L144.586 58.7287C144.378 58.9746 144.131 59.1363 143.78 59.1363C143.163 59.1363 142.754 58.5881 142.754 57.6465C142.754 56.7259 143.215 56.1708 143.806 56.1708C144.105 56.1708 144.306 56.3043 144.521 56.5151L145.047 55.8756C144.761 55.5594 144.319 55.2783 143.793 55.2783C142.702 55.2783 141.773 56.1638 141.773 57.6816Z" fill="#5F5F5F"/>
<path d="M146.368 59.9444H147.323V58.3141L148.602 55.3626H147.602L147.225 56.4167C147.108 56.7611 146.985 57.0773 146.868 57.4287H146.842C146.719 57.0773 146.608 56.7611 146.498 56.4167L146.115 55.3626H145.095L146.368 58.3141V59.9444Z" fill="#5F5F5F"/>
<path d="M149.046 59.9444H150.618C151.54 59.9444 152.268 59.5298 152.268 58.5952C152.268 57.9838 151.949 57.6395 151.345 57.52V57.4919C151.839 57.3514 152.06 56.9086 152.06 56.5011C152.06 55.6227 151.378 55.3626 150.495 55.3626H149.046V59.9444ZM150.008 57.2108V56.1638H150.462C150.904 56.1638 151.125 56.3043 151.125 56.6486C151.125 56.993 150.917 57.2108 150.449 57.2108H150.008ZM150.008 59.1433V57.9416H150.54C151.066 57.9416 151.332 58.1173 151.332 58.5179C151.332 58.9325 151.06 59.1433 150.54 59.1433H150.008Z" fill="#5F5F5F"/>
<path d="M152.966 59.9444H155.687V59.073H153.927V58.0189H155.369V57.1546H153.927V56.234H155.622V55.3626H152.966V59.9444Z" fill="#5F5F5F"/>
<path d="M157.472 56.1848H157.959C158.459 56.1848 158.732 56.3394 158.732 56.7892C158.732 57.2389 158.459 57.4708 157.959 57.4708H157.472V56.1848ZM159.875 59.9444L158.921 58.1103C159.369 57.8924 159.674 57.4638 159.674 56.7892C159.674 55.7 158.934 55.3626 158.037 55.3626H156.511V59.9444H157.472V58.293H157.992L158.804 59.9444H159.875Z" fill="#5F5F5F"/>
<path d="M161.377 59.2838H162.078V57.9908H163.221V57.26H162.078V55.967H161.377V57.26H160.234V57.9908H161.377V59.2838Z" fill="#5F5F5F"/>
<path d="M163.938 59.9444H164.899V55.3626H163.938V59.9444Z" fill="#5F5F5F"/>
<path d="M165.885 59.9444H166.801V58.3211C166.801 57.78 166.723 57.1686 166.677 56.6627H166.703L167.119 57.6605L168.223 59.9444H169.204V55.3626H168.294V56.9789C168.294 57.52 168.372 58.1665 168.418 58.6514H168.392L167.97 57.6395L166.866 55.3626H165.885V59.9444Z" fill="#5F5F5F"/>
<path d="M170.198 59.9444H171.159V58.1665H172.62V57.2951H171.159V56.234H172.873V55.3626H170.198V59.9444Z" fill="#5F5F5F"/>
<path d="M174.558 56.1848H175.045C175.545 56.1848 175.818 56.3394 175.818 56.7892C175.818 57.2389 175.545 57.4708 175.045 57.4708H174.558V56.1848ZM176.961 59.9444L176.006 58.1103C176.455 57.8924 176.76 57.4638 176.76 56.7892C176.76 55.7 176.019 55.3626 175.123 55.3626H173.597V59.9444H174.558V58.293H175.078L175.89 59.9444H176.961Z" fill="#5F5F5F"/>
<path d="M178.419 58.047L178.523 57.6254C178.64 57.1686 178.757 56.6346 178.854 56.1497H178.88C178.997 56.6275 179.107 57.1686 179.224 57.6254L179.328 58.047H178.419ZM179.783 59.9444H180.796L179.465 55.3626H178.322L176.99 59.9444H177.964L178.224 58.8552H179.523L179.783 59.9444Z" fill="#5F5F5F"/>
<path d="M180.967 59.3682C181.402 59.8039 181.986 60.0287 182.538 60.0287C183.545 60.0287 184.129 59.3682 184.129 58.6092C184.129 57.9627 183.805 57.5903 183.292 57.3654L182.753 57.1265C182.382 56.9649 182.103 56.8665 182.103 56.5854C182.103 56.3254 182.318 56.1708 182.642 56.1708C182.98 56.1708 183.246 56.3043 183.525 56.5362L184.006 55.8827C183.642 55.4891 183.129 55.2783 182.642 55.2783C181.765 55.2783 181.136 55.8827 181.136 56.6416C181.136 57.3092 181.551 57.7027 181.993 57.8924L182.538 58.1454C182.908 58.3141 183.149 58.4054 183.149 58.6936C183.149 58.9676 182.954 59.1363 182.558 59.1363C182.207 59.1363 181.817 58.9395 181.519 58.6584L180.967 59.3682Z" fill="#5F5F5F"/>
<path d="M185.54 59.9444H186.495V56.234H187.657V55.3626H184.371V56.234H185.54V59.9444Z" fill="#5F5F5F"/>
<path d="M189.272 56.1848H189.759C190.259 56.1848 190.532 56.3394 190.532 56.7892C190.532 57.2389 190.259 57.4708 189.759 57.4708H189.272V56.1848ZM191.675 59.9444L190.72 58.1103C191.169 57.8924 191.474 57.4638 191.474 56.7892C191.474 55.7 190.733 55.3626 189.837 55.3626H188.311V59.9444H189.272V58.293H189.792L190.604 59.9444H191.675Z" fill="#5F5F5F"/>
<path d="M192.287 57.8222C192.287 59.3611 192.878 60.0287 193.976 60.0287C195.073 60.0287 195.651 59.3611 195.651 57.8222V55.3626H194.729V57.9276C194.729 58.8271 194.45 59.1363 193.976 59.1363C193.502 59.1363 193.242 58.8271 193.242 57.9276V55.3626H192.287V57.8222Z" fill="#5F5F5F"/>
<path d="M196.412 57.6816C196.412 59.2206 197.308 60.0287 198.405 60.0287C198.931 60.0287 199.399 59.7968 199.75 59.3541L199.224 58.7287C199.016 58.9746 198.769 59.1363 198.418 59.1363C197.801 59.1363 197.392 58.5881 197.392 57.6465C197.392 56.7259 197.853 56.1708 198.444 56.1708C198.743 56.1708 198.944 56.3043 199.159 56.5151L199.685 55.8756C199.399 55.5594 198.957 55.2783 198.431 55.2783C197.34 55.2783 196.412 56.1638 196.412 57.6816Z" fill="#5F5F5F"/>
<path d="M201.135 59.9444H202.09V56.234H203.253V55.3626H199.966V56.234H201.135V59.9444Z" fill="#5F5F5F"/>
<path d="M203.887 57.8222C203.887 59.3611 204.478 60.0287 205.576 60.0287C206.673 60.0287 207.251 59.3611 207.251 57.8222V55.3626H206.329V57.9276C206.329 58.8271 206.05 59.1363 205.576 59.1363C205.101 59.1363 204.842 58.8271 204.842 57.9276V55.3626H203.887V57.8222Z" fill="#5F5F5F"/>
<path d="M209.174 56.1848H209.661C210.161 56.1848 210.434 56.3394 210.434 56.7892C210.434 57.2389 210.161 57.4708 209.661 57.4708H209.174V56.1848ZM211.577 59.9444L210.622 58.1103C211.07 57.8924 211.376 57.4638 211.376 56.7892C211.376 55.7 210.635 55.3626 209.739 55.3626H208.213V59.9444H209.174V58.293H209.694L210.505 59.9444H211.577Z" fill="#5F5F5F"/>
<path d="M212.208 59.9444H214.93V59.073H213.17V58.0189H214.611V57.1546H213.17V56.234H214.865V55.3626H212.208V59.9444Z" fill="#5F5F5F"/>
<g clip-path="url(#clip0)">
<path fill-rule="evenodd" clip-rule="evenodd" d="M98.5586 70.0049C113.746 70.0049 126.059 57.6927 126.059 42.5049C126.059 27.3171 113.746 15.0049 98.5586 15.0049C83.3708 15.0049 71.0586 27.3171 71.0586 42.5049C71.0586 57.6927 83.3708 70.0049 98.5586 70.0049ZM128.059 42.5049C128.059 58.7973 114.851 72.0049 98.5586 72.0049C82.2662 72.0049 69.0586 58.7973 69.0586 42.5049C69.0586 26.2125 82.2662 13.0049 98.5586 13.0049C114.851 13.0049 128.059 26.2125 128.059 42.5049Z" fill="#5F5F5F"/>
<path d="M120.305 36.9936C120.253 37.2052 120.197 37.4224 120.034 37.5815C119.837 37.016 119.702 36.4301 119.551 35.8515C119.639 35.8347 119.815 35.8009 119.905 35.7841C119.92 35.889 119.954 36.0968 119.968 36.2016C121.026 35.945 122.079 35.6661 123.136 35.4078C123.135 35.2636 123.133 34.9772 123.133 34.833C123.2 34.8685 123.339 34.9397 123.406 34.9754C123.707 35.7636 123.696 36.6679 124.19 37.3793C124.262 37.8081 123.554 37.6864 123.282 37.7856L123.125 37.5085C123.852 37.3811 123.352 36.6659 123.25 36.2297C122.855 36.342 122.458 36.4469 122.063 36.5536C122.11 36.7933 122.157 37.033 122.206 37.2726C122.444 37.3307 122.705 37.3738 122.786 37.6453C122.37 37.7689 121.951 37.8756 121.534 37.9785C121.505 37.8813 121.453 37.6828 121.425 37.5834C121.528 37.5591 121.73 37.5122 121.831 37.488C121.758 37.2183 121.683 36.9487 121.612 36.6792C121.174 36.7802 120.74 36.8869 120.305 36.9936Z" fill="#5F5F5F"/>
<path d="M120.693 45.5794C121.127 45.9557 121.517 46.3847 121.981 46.7215C122.496 46.922 123.061 46.9537 123.6 47.0757C123.664 46.8324 123.818 46.6825 124.061 46.628C123.981 47.1935 123.9 47.7606 123.754 48.3113C123.681 48.3469 123.537 48.4143 123.466 48.448C123.462 48.3074 123.455 48.0285 123.451 47.888C122.957 47.8151 122.464 47.7289 121.975 47.6205C121.358 47.8845 120.725 48.1185 120.118 48.4125C120.032 48.6128 119.888 48.755 119.684 48.8374C119.743 48.2588 119.813 47.6766 119.979 47.1187C120.054 47.0924 120.202 47.0403 120.275 47.0138C120.275 47.1243 120.277 47.349 120.277 47.4595C120.676 47.2966 121.078 47.1393 121.483 46.9876C121.176 46.6655 120.848 46.364 120.507 46.0776C120.49 46.1843 120.459 46.3941 120.444 46.4989C120.358 46.4933 120.187 46.4802 120.101 46.4727C120.26 45.9729 120.129 45.2838 120.597 44.9355C120.622 45.0964 120.669 45.4185 120.693 45.5794Z" fill="#5F5F5F"/>
<path d="M119.841 49.5115C119.745 49.7793 119.652 50.0472 119.556 50.3149C120.528 50.6987 121.515 51.0508 122.492 51.425C122.479 51.2303 123.035 50.6218 122.978 51.1272C122.744 51.751 122.668 52.5408 122.1 52.962C122.121 52.7841 122.164 52.4248 122.185 52.2467C121.234 51.8235 120.236 51.5204 119.279 51.1102C119.163 51.3875 119.049 51.6646 118.934 51.9433C119.058 52.0071 119.303 52.1361 119.425 52.1998C119.18 52.7785 118.59 52.2184 118.184 52.1417C118.412 51.8402 118.65 51.5387 118.766 51.1719C119.02 50.4173 119.43 49.6909 119.421 48.8711C119.766 48.9852 120.108 49.1011 120.453 49.2153C120.427 49.3165 120.371 49.5189 120.344 49.6199C120.217 49.5925 119.966 49.5377 119.841 49.5115Z" fill="#5F5F5F"/>
<path d="M119.793 34.8255C118.96 34.4772 118.449 33.5186 118.655 32.6311C118.799 31.8672 119.443 31.24 120.19 31.0546C121.553 30.6053 123.062 31.9983 122.652 33.3913C122.403 34.6289 120.928 35.3067 119.793 34.8255ZM119.106 33.4044C119.14 33.8144 119.55 34.0635 119.919 34.1347C120.754 34.26 121.632 33.8238 122.064 33.1049C122.212 32.8053 122.311 32.3222 121.976 32.1125C121.527 31.7306 120.872 31.7793 120.351 31.9647C119.76 32.2193 119.138 32.7078 119.106 33.4044Z" fill="#5F5F5F"/>
<path d="M117.675 26.2451C117.945 25.9698 118.257 25.7433 118.572 25.5205C119.027 26.6027 119.781 27.5763 120.689 28.3176C120.345 28.4824 119.865 29.2837 119.529 28.6883C119.633 28.606 119.843 28.4412 119.948 28.3606C119.755 28.1248 119.562 27.8888 119.369 27.6529C118.553 28.2876 117.733 28.9111 116.909 29.5327C117.021 29.7667 117.229 30.0214 116.986 30.2685C116.598 29.8061 116.203 29.3418 115.93 28.7988C116.074 28.7988 116.36 28.7968 116.503 28.795C117.267 28.1603 118.075 27.5799 118.858 26.9695C118.695 26.743 118.532 26.5182 118.371 26.2917C118.132 26.3312 117.806 26.6608 117.675 26.2451Z" fill="#5F5F5F"/>
<path d="M86.2842 59.397C82.1333 56.4145 79.1377 51.8593 78.1061 46.849C76.9845 41.6178 77.9843 35.9841 80.8377 31.457C81.1784 31.5899 81.5211 31.7191 81.8657 31.8446C79.3324 35.7539 78.2352 40.5807 78.8943 45.1959C79.5103 49.884 81.9143 54.2953 85.4791 57.3937C88.4092 59.9552 92.1088 61.6307 95.9751 62.1027C101.285 62.8065 106.846 61.1832 110.961 57.7588C114.43 54.9244 116.881 50.8691 117.761 46.4746C118.781 41.6291 117.828 36.4504 115.267 32.2246C115.619 32.1292 115.971 32.0336 116.321 31.9363C118.899 36.235 119.768 41.4774 118.858 46.3941C117.958 51.2768 115.218 55.7871 111.313 58.8485C108.205 61.3143 104.376 62.8571 100.424 63.2165C95.4564 63.7127 90.3227 62.3346 86.2842 59.397Z" fill="#5F5F5F"/>
<path d="M117.785 53.9858C117.713 54.0718 117.571 54.2422 117.5 54.3283L117.277 54.2195C117.519 53.6319 117.773 53.0028 118.279 52.5889C118.264 52.7498 118.232 53.0719 118.215 53.2312C119.142 53.7386 120.072 54.2383 120.999 54.7475C121.13 54.6804 121.392 54.5473 121.524 54.48C121.351 55.0211 121.052 55.5133 120.76 55.9985C120.378 56.1689 120.542 55.7101 120.6 55.5133C119.672 54.9874 118.728 54.4839 117.785 53.9858Z" fill="#5F5F5F"/>
<path d="M117.019 56.1847C116.626 55.9281 116.315 56.3476 116.083 56.6078C116.466 56.8983 116.85 57.1901 117.227 57.4916C117.642 57.1061 117.601 56.3777 117.019 56.1847ZM115.59 57.3268C115.382 57.4224 115.174 57.5158 114.965 57.6039C115.304 56.8305 115.865 56.1698 116.421 55.5441C117.225 54.8629 118.468 55.8736 118.124 56.825C118.801 56.825 119.627 57.1824 120.164 56.6171C120.451 57.0328 119.867 57.4875 119.565 57.7309C118.871 57.7664 118.178 57.6728 117.487 57.6373C117.862 57.9369 118.243 58.2271 118.627 58.5173C118.715 58.4258 118.893 58.2404 118.981 58.1466L119.137 58.39C118.867 58.8787 118.517 59.3207 118.152 59.7417C118.079 59.7062 117.933 59.635 117.86 59.5995C117.927 59.5059 118.064 59.3204 118.132 59.2268C117.3 58.572 116.444 57.9503 115.59 57.3268Z" fill="#5F5F5F"/>
<path d="M114.11 46.0144L114.027 45.9265C114.254 45.7205 114.484 45.5201 114.733 45.3403C114.804 45.3367 114.948 45.3308 115.019 45.327C115.235 44.9863 115.435 44.6324 115.692 44.3179L116.006 44.4489C116.038 44.271 116.07 44.0951 116.1 43.9175C116.532 43.7378 116.963 43.5486 117.405 43.3857C117.13 43.8182 116.828 44.23 116.521 44.6401C116.454 44.5971 116.323 44.5092 116.255 44.4661C115.905 44.7134 115.671 45.0408 115.643 45.4398L115.493 45.4378C115.035 45.6344 114.576 45.8309 114.11 46.0144Z" fill="#5F5F5F"/>
<path d="M112.268 60.6006C112.071 60.636 111.874 60.6699 111.68 60.7018C111.949 60.1231 112.532 59.7487 113.033 59.38L113.118 59.6176C113.062 59.7022 112.949 59.8707 112.893 59.9566C113.558 60.6119 114.071 61.4468 114.864 61.9525C115.67 62.1453 116.417 61.005 115.81 60.3592C115.325 59.7749 114.793 59.2304 114.277 58.6759C114.117 58.732 113.797 58.8425 113.638 58.8987C113.911 58.4419 114.318 58.0877 114.737 57.7676C114.964 57.938 114.932 58.1273 114.645 58.3386C115.218 59.0183 115.896 59.6139 116.39 60.3569C116.995 61.6134 115.293 63.1634 114.082 62.4707C113.393 61.9337 112.942 61.151 112.268 60.6006Z" fill="#5F5F5F"/>
<path d="M112.584 25.0349C113.266 24.2484 114.037 23.5352 114.659 22.702C114.573 22.5391 114.477 22.3818 114.374 22.2301C114.408 22.1664 114.477 22.0373 114.513 21.9717C114.827 22.2394 115.136 22.511 115.447 22.7823C115.346 23.8476 115.189 24.9036 115.059 25.9652C115.572 25.411 116.08 24.8512 116.58 24.2838C116.492 24.2089 116.316 24.0573 116.226 23.9805C116.31 23.9056 116.394 23.829 116.479 23.754C116.844 24.0779 117.25 24.3719 117.525 24.7838L117.28 24.8868C117.186 24.8249 117.003 24.7015 116.911 24.6396C116.426 25.1357 116.005 25.6974 115.488 26.1599C115.069 26.3733 114.59 26.4352 114.14 26.555C114.269 25.5908 114.382 24.6229 114.488 23.6548C113.968 24.2165 113.46 24.7895 112.949 25.3586C113.084 25.4653 113.359 25.9503 112.985 25.8959C112.593 25.5833 112.077 25.2763 112 24.7352C112.197 24.8327 112.391 24.9319 112.584 25.0349Z" fill="#5F5F5F"/>
<path d="M112.055 48.0159C112.985 47.8434 113.537 46.9581 114.34 46.5218C114.913 46.4246 115.159 45.8421 115.49 45.4378L115.64 45.4398C115.632 45.5521 115.642 45.6699 115.668 45.7938C115.739 45.6157 115.81 45.4381 115.881 45.2581C116.318 45.1403 116.748 45.0092 117.183 44.8818C116.855 45.3198 116.477 45.713 116.085 46.0933L116.033 45.7676C115.747 45.9527 115.471 46.1627 115.346 46.492C115.091 46.5745 114.829 46.6306 114.563 46.6493C113.985 47.6044 112.845 47.9807 111.982 48.6282L111.86 48.5776L111.734 48.5197C111.89 48.4108 112.197 48.1937 112.352 48.0851L112.055 48.0159Z" fill="#5F5F5F"/>
<path d="M112.062 47.3936C112.051 47.0511 112.354 46.8339 112.547 46.594C113.281 45.8414 113.938 45.0118 114.7 44.2892C114.773 44.293 114.921 44.3003 114.994 44.3043C115.193 43.8943 115.399 43.488 115.608 43.0854C115.206 43.3363 114.809 43.5966 114.408 43.8493C114.43 43.9635 114.451 44.0777 114.474 44.19C113.655 45.1206 112.659 45.9463 112.04 47.0192C111.952 46.8562 111.867 46.6933 111.785 46.5285C112.332 46.3787 112.551 45.7066 112.948 45.3247C113.687 44.5177 114.185 43.4655 115.114 42.8551C115.372 42.5258 115.479 42.1062 115.65 41.728L115.837 41.7168C115.861 42.1736 115.871 42.6324 115.865 43.0893C116.019 42.9376 116.174 42.7877 116.331 42.6381C116.253 42.597 116.094 42.5162 116.015 42.4753C116.487 42.2168 116.943 41.9324 117.404 41.6553C117.192 42.1402 116.938 42.6045 116.681 43.0669C116.621 43.0221 116.503 42.9284 116.443 42.8833C116.245 43.1193 116.045 43.3553 115.842 43.589C115.964 44.4465 114.912 44.5421 114.373 44.9052L114.635 45.0889C113.918 45.7048 113.257 46.3863 112.529 46.9912L112.605 47.2254L112.549 47.1411L112.446 47.1951C112.351 47.2439 112.158 47.3431 112.062 47.3936Z" fill="#5F5F5F"/>
<path d="M111.964 48.9161C112.756 48.3788 113.576 47.8808 114.364 47.334C114.461 47.3451 114.654 47.3657 114.749 47.377C114.92 47.1767 115.094 46.9783 115.268 46.7816C115.384 46.8155 115.612 46.8808 115.727 46.9127C115.697 46.821 115.633 46.6354 115.603 46.5418C116.096 46.407 116.584 46.2571 117.08 46.1318C116.768 46.5117 116.433 46.8711 116.099 47.2325C116.024 47.1931 115.877 47.1126 115.802 47.0733C115.535 47.234 115.273 47.4009 115.019 47.577C114.594 47.6594 114.161 47.7792 113.882 48.1369C113.231 48.5112 112.538 48.8931 111.836 49.1198C111.868 49.0698 111.932 48.9667 111.964 48.9161Z" fill="#5F5F5F"/>
<path d="M111.507 24.6776C110.669 24.1534 109.832 23.6272 109.012 23.075C109.169 23.0488 109.487 22.9945 109.645 22.9663C110.276 22.1501 110.772 21.2326 111.345 20.3732C111.255 20.2496 111.077 20.0005 110.987 19.877C111.991 19.9369 112.612 21.0303 113.642 21.0884C113.496 21.4123 113.325 21.7249 113.144 22.0302C113.05 21.974 112.865 21.8635 112.771 21.8074C112.829 21.7195 112.944 21.5434 113.002 21.4555C112.687 21.257 112.372 21.0604 112.06 20.8658C111.83 21.2159 111.597 21.566 111.36 21.9125C111.575 22.0566 111.79 22.1989 112.007 22.3413C112.169 22.2064 112.599 21.9162 112.571 22.345C112.41 22.6895 112.178 22.9946 111.976 23.3167C111.886 23.2624 111.704 23.1557 111.612 23.1013C111.665 23.017 111.766 22.8486 111.818 22.7643C111.588 22.6146 111.358 22.4648 111.127 22.3169C110.884 22.6931 110.642 23.0694 110.397 23.4458C110.721 23.6517 111.047 23.8558 111.376 24.0544C111.446 23.9794 111.582 23.8297 111.652 23.7548C112.268 23.8275 111.603 24.3912 111.507 24.6776Z" fill="#5F5F5F"/>
<path d="M111.86 46.1878C111.845 45.7256 112.32 45.3715 112.498 44.9502C112.603 44.9726 112.815 45.0176 112.919 45.0402C112.547 45.4428 112.229 45.89 111.886 46.317L111.86 46.1878Z" fill="#5F5F5F"/>
<path d="M111.453 46.7054C111.449 46.4601 111.558 46.2749 111.775 46.1494L111.859 46.1888C111.841 46.2749 111.803 46.4452 111.784 46.5296C111.702 46.5743 111.537 46.6624 111.453 46.7054Z" fill="#5F5F5F"/>
<path d="M111.86 48.5773C111.877 48.8246 111.544 49.0418 111.314 49.0194C111.291 48.7664 111.621 48.5176 111.86 48.5773Z" fill="#5F5F5F"/>
<path d="M109.403 62.0239C109.813 61.3442 110.749 61.3424 111.161 60.6758C111.372 61.0092 111.578 61.348 111.779 61.6887C111.692 61.7316 111.52 61.8195 111.434 61.8626C111.119 61.254 110.331 61.6491 110.037 62.076C109.281 63.1509 110.434 64.8449 111.704 64.6503C112.104 64.579 112.385 64.2685 112.632 63.9705C112.516 63.7346 112.306 63.3058 112.761 63.3413C112.934 63.566 113.081 63.8114 113.231 64.0529C112.584 64.8168 111.606 65.4966 110.556 65.2289C109.189 64.9465 108.547 63.1174 109.403 62.0239Z" fill="#5F5F5F"/>
<path d="M86.9579 26.499C86.5648 26.3548 86.1772 26.1975 85.8008 26.014C89.2944 23.3779 93.6213 21.7903 98.0136 21.7903C103.194 21.6068 108.403 23.5446 112.245 27.014C111.825 27.1338 111.404 27.2425 110.979 27.3379C107.396 24.3292 102.692 22.6929 98.0156 22.8238C94.067 22.8723 90.1669 24.2111 86.9579 26.499Z" fill="#5F5F5F"/>
<path d="M111.315 49.019C111.508 49.1838 111.315 49.5994 111.066 49.416C110.856 49.2661 111.09 48.8859 111.315 49.019Z" fill="#5F5F5F"/>
<path d="M110.098 49.9663C110.148 49.6948 110.82 49.197 110.957 49.545C110.73 49.7622 110.414 49.9496 110.098 49.9663Z" fill="#5F5F5F"/>
<path d="M106.409 39.5841C106.094 39.4661 105.782 39.3445 105.469 39.2209C105.482 38.4176 105.502 37.6145 105.531 36.8113C106.238 36.3152 107.023 35.7646 107.262 34.8828C107.644 33.6526 107.137 32.387 107.202 31.1382C107.275 30.3201 108.021 29.8351 108.642 29.4195C111.112 27.7812 114.343 27.8749 116.744 26.1074C116.703 26.5737 116.693 27.0717 116.422 27.4742C116.094 28.0115 115.474 28.2287 114.929 28.4721C115 28.8746 115.45 29.1461 115.656 29.5019C114.907 29.8575 114.091 30.0279 113.265 30.0692C113.516 30.3669 113.759 30.6682 113.997 30.9754C113.22 31.3237 112.392 31.5464 111.55 31.6625C111.93 32.0314 112.291 32.4207 112.623 32.8345C111.844 33.1266 111.016 33.2238 110.194 33.295C110.681 33.6788 111.116 34.1227 111.486 34.6188C110.764 34.9932 109.957 35.173 109.144 35.1973C109.481 35.598 109.736 36.0567 109.919 36.5473C109.256 36.6165 108.588 36.6445 107.925 36.5754C108.257 37.1595 108.496 37.7998 108.538 38.4777C107.865 38.4664 107.206 38.326 106.585 38.0733C106.626 38.5843 106.557 39.0936 106.409 39.5841Z" fill="#5F5F5F"/>
<path d="M105.479 48.472C105.621 48.3766 105.763 48.2828 105.906 48.1873C105.482 47.8915 105.089 47.5602 104.715 47.2046C104.84 46.6877 104.936 46.1615 105.007 45.6336C105.022 45.5306 105.033 45.4277 105.046 45.3247C105.323 45.4876 105.602 45.6469 105.885 45.8002C106.022 45.0848 105.904 44.3641 105.685 43.6787C106.018 44.3024 106.522 44.8229 107.196 45.0663C107.255 44.3921 107.13 43.7237 106.962 43.0741C107.428 43.6434 108.008 44.1172 108.714 44.3566C108.748 43.6321 108.587 42.9241 108.353 42.2427C108.888 42.6939 109.508 43.0424 110.202 43.1769C110.223 42.3889 109.942 41.6473 109.66 40.9265C110.233 41.4751 110.912 41.9357 111.71 42.0705C111.648 41.2803 111.348 40.5352 110.921 39.8743C111.537 40.4116 112.275 40.7936 113.104 40.8442C113.048 40.0054 112.655 39.2471 112.075 38.6535C112.822 39.1402 113.707 39.3631 114.597 39.2658C114.434 38.4008 113.793 37.7829 113.104 37.2998C113.78 37.414 114.456 37.5469 115.143 37.5695C115.542 38.9194 115.759 40.3142 115.834 41.7167L115.647 41.7278C115.299 41.9637 114.96 42.2128 114.626 42.4655C114.514 43.4034 113.555 43.9409 113.149 44.7591C113.082 44.643 113.016 44.5268 112.953 44.411C113.046 44.1732 113.134 43.9353 113.213 43.6938C112.895 43.9426 112.591 44.2105 112.294 44.4838C112.397 45.0867 111.809 45.5154 111.552 46.0115C111.133 46.5262 110.903 47.2452 110.38 47.6365C110.367 47.3334 110.565 47.0842 110.687 46.8202C111.176 45.841 111.687 44.8712 112.136 43.8735C112.739 43.7085 112.554 42.8905 112.743 42.4165C112.402 42.8097 112.061 43.2048 111.717 43.5943C111.795 43.5962 111.953 43.5979 112.031 43.5979C111.103 45.5676 110.077 47.4902 109.161 49.4654C109.086 49.6227 109.013 49.78 108.942 49.9372C107.939 49.6713 106.787 49.9637 105.915 49.2541C106.072 49.2055 106.385 49.1079 106.54 49.0592C106.196 48.8484 105.84 48.6574 105.479 48.472Z" fill="#5F5F5F"/>
<path d="M112.057 48.0152C111.418 48.4908 110.8 48.9926 110.188 49.4981L110.156 49.343C110.489 48.6818 111.222 48.1615 111.673 47.523L111.778 47.6782C111.787 47.7438 111.806 47.8767 111.817 47.9422C112.111 47.8017 112.429 47.5453 112.446 47.1952L112.521 47.2924L112.605 47.2251C113.113 46.83 113.555 46.3602 114.026 45.9258L114.109 46.0137C114.163 46.068 114.27 46.1785 114.322 46.2328C113.554 46.8114 112.804 47.4103 112.057 48.0152Z" fill="#5F5F5F"/>
<path d="M109.798 49.3956C109.713 49.3002 109.629 49.2065 109.547 49.1108C109.663 48.8863 109.777 48.6617 109.888 48.4352L110.122 48.5625L110.043 48.1149C110.077 48.0851 110.142 48.027 110.176 47.997C110.184 48.1059 110.197 48.3193 110.204 48.426C110.611 47.9072 110.934 47.3307 111.328 46.8027C111.474 46.9635 111.629 47.1173 111.783 47.2725C111.481 47.3286 111.331 47.6095 111.135 47.8081C110.704 48.351 110.137 48.7815 109.798 49.3956Z" fill="#5F5F5F"/>
<path d="M105.748 64.023C105.509 64.0639 105.282 64.038 105.117 63.8505C105.969 63.4084 106.973 63.2588 107.707 62.6055C107.845 62.8994 108.384 63.6523 107.8 63.6767C107.735 63.594 107.604 63.4333 107.536 63.3528C107.205 63.4801 106.873 63.6091 106.544 63.7441C106.701 64.1523 106.87 64.5565 107.063 64.95C107.283 64.8433 107.504 64.7365 107.725 64.6316C107.686 64.3697 107.791 64.1804 108.032 64.0775C108.216 64.5154 108.399 64.9592 108.437 65.4385C108.3 65.3469 108.025 65.1652 107.888 65.0734C107.652 65.1578 107.418 65.2438 107.186 65.3318C107.334 65.7644 107.504 66.1893 107.692 66.6071C108.025 66.4664 108.36 66.3298 108.693 66.1876C108.611 65.8994 108.731 65.6991 108.982 65.5773C109.086 65.8675 109.189 66.1593 109.281 66.4554C108.399 66.7587 107.559 67.1762 106.664 67.4402L106.473 67.2621C106.579 67.1891 106.791 67.0395 106.898 66.9644C106.516 65.9834 106.121 65.0078 105.748 64.023Z" fill="#5F5F5F"/>
<path d="M104.693 20.8601C105.051 19.8473 105.489 18.8624 105.832 17.8439C105.703 17.7653 105.448 17.6061 105.319 17.5275C105.729 17.2298 106.163 17.6455 106.568 17.7447C106.629 18.7408 106.79 19.7274 106.837 20.7254C107.543 20.0495 108.221 19.3455 108.919 18.6603C109.318 18.8719 109.975 18.8513 110.08 19.3886C109.93 19.3642 109.632 19.3136 109.483 19.2874C109.119 20.2929 108.73 21.2889 108.326 22.2793C108.569 22.3691 108.726 22.5395 108.799 22.7904C108.168 22.5564 107.26 22.5227 106.933 21.8637C107.084 21.8919 107.39 21.9498 107.541 21.978C107.809 21.2889 108.08 20.5999 108.329 19.9017C107.64 20.5963 106.957 21.2965 106.219 21.9387C106.09 21.0025 106.056 20.0552 105.912 19.1208C105.579 19.7105 105.39 20.3659 105.131 20.9894C105.317 21.1429 105.47 21.3246 105.592 21.5305C105.101 21.4275 104.609 21.2853 104.171 21.0344C104.165 20.9577 104.154 20.8023 104.148 20.7254C104.33 20.7703 104.512 20.8151 104.693 20.8601Z" fill="#5F5F5F"/>
<path d="M104.467 53.2805C104.876 53.0635 105.409 53.0615 105.688 52.6403L105.037 52.8629C105.076 52.745 105.153 52.509 105.192 52.3909C105.563 52.3197 105.943 52.1851 106.143 51.8329C106.184 51.9737 106.199 52.1159 106.184 52.2619C106.111 52.2902 105.961 52.3499 105.888 52.3799L105.838 52.5241L105.926 52.5652C105.991 52.4902 106.12 52.3365 106.184 52.2616C106.397 52.1756 106.615 52.0987 106.836 52.033C106.673 51.9451 106.508 51.8606 106.356 51.756C106.703 51.7205 107.055 51.6588 107.349 51.46C107.311 51.5536 107.238 51.739 107.201 51.8328L107.641 51.8028C107.461 52.3401 107.058 52.7537 106.63 53.1041C106.135 53.5066 105.813 54.0645 105.444 54.5757C105.231 54.4708 105.017 54.3678 104.804 54.265C105.34 53.7706 105.779 53.1528 106.437 52.8046C106.701 52.668 106.884 52.4303 107.056 52.1961C106.309 52.6079 105.68 53.1997 104.92 53.5927C104.454 53.823 104.091 54.2012 103.725 54.5608C103.536 54.3961 103.345 54.2315 103.156 54.0685C103.603 53.8216 104.022 53.5296 104.467 53.2805Z" fill="#5F5F5F"/>
<path d="M99.6747 43.0994C99.289 43.0974 98.9537 42.8652 98.6112 42.7174C98.5981 42.1353 98.5981 41.5529 98.6131 40.9688C100.718 40.9856 102.831 41.199 104.885 41.6689C104.872 41.8655 104.859 42.064 104.844 42.2606C104.427 42.4817 104.065 42.7979 103.633 42.989C102.788 43.2116 102.202 42.2588 101.367 42.375C100.742 42.4499 100.259 42.9066 99.6747 43.0994Z" fill="#5F5F5F"/>
<path d="M99.7098 45.5006C99.3129 45.5381 98.9702 45.2928 98.6201 45.1466C98.6013 44.5907 98.5995 44.0363 98.5977 43.4805C99.0919 43.6412 99.6574 43.8663 100.157 43.5984C100.652 43.398 101.105 42.9357 101.674 43.0368C102.273 43.2502 102.797 43.7257 103.467 43.6995C103.98 43.6396 104.389 43.2988 104.789 43.0029C104.759 43.5722 104.744 44.1412 104.72 44.7105C104.357 44.9502 104.027 45.2497 103.623 45.4162C102.849 45.6278 102.316 44.8041 101.576 44.7926C100.871 44.7499 100.345 45.2984 99.7098 45.5006Z" fill="#5F5F5F"/>
<path d="M104.098 65.0925C104.115 64.3829 102.971 64.3735 102.932 65.0454C103.134 65.6054 103.862 65.6033 104.317 65.8729C105.064 66.1276 105.383 67.1649 104.847 67.766C104.37 68.324 103.563 68.1423 102.937 68.393C102.939 67.9868 102.437 67.3204 103.044 67.176C103.083 67.749 103.711 67.9343 104.156 67.6593C104.476 67.5433 104.499 67.0673 104.225 66.8897C103.756 66.5603 103.164 66.474 102.677 66.1745C102.08 65.7477 102.097 64.6843 102.769 64.3339C103.226 64.1316 103.731 64.0775 104.199 63.8994C104.22 64.2724 104.65 64.9464 104.098 65.0925Z" fill="#5F5F5F"/>
<path d="M102.388 17.2412C102.12 17.1942 101.856 17.1363 101.585 17.1176C101.396 17.2543 101.313 17.8142 101.016 17.4603C101.017 17.0672 101.13 16.6832 101.313 16.3369C101.418 16.4305 101.626 16.6215 101.731 16.7151C102.527 16.7975 103.311 16.9623 104.103 17.0803C104.21 17.0448 104.425 16.9754 104.532 16.9399C104.567 17.3498 104.715 18.0857 104.114 18.1176C104.114 17.9641 104.112 17.657 104.112 17.5035C103.813 17.4754 103.515 17.4436 103.219 17.4155C103.045 18.434 102.899 19.4582 102.699 20.471C102.929 20.5852 103.259 20.5983 103.318 20.9166C102.648 20.8454 101.957 20.8006 101.319 20.5777C101.28 20.5178 101.199 20.398 101.16 20.3381C101.334 20.3436 101.684 20.353 101.86 20.3587C102.045 19.3214 102.231 18.2823 102.388 17.2412Z" fill="#5F5F5F"/>
<path d="M98.5977 45.8925C98.9628 46.0013 99.3279 46.1733 99.7193 46.1471C100.345 46.0311 100.826 45.5422 101.447 45.415C102.101 45.4692 102.578 46.0686 103.247 46.0797C103.777 46.1546 104.22 45.8195 104.662 45.5874C104.552 46.3268 104.456 47.1432 103.943 47.729C103.262 48.246 102.559 47.5476 101.919 47.3172C101.09 47.0082 100.408 47.7367 99.6743 47.9782C99.2849 47.9802 98.9535 47.7517 98.6145 47.5983C98.5977 47.0288 98.5977 46.4617 98.5977 45.8925Z" fill="#5F5F5F"/>
<path d="M103.082 48.5861C101.664 49.3596 99.9473 49.4138 98.5938 50.3236C98.6031 49.6647 98.6031 49.0056 98.5956 48.3465C99.3633 48.7699 100.226 48.5655 100.906 48.0787C101.662 47.5602 102.383 48.3465 103.082 48.5861Z" fill="#5F5F5F"/>
<path d="M103.47 40.3078C103.476 40.1055 103.536 39.8903 103.431 39.7031C103.268 39.7162 103.105 39.733 102.942 39.7555C102.946 39.8828 102.954 40.1355 102.957 40.261C103.086 40.2722 103.343 40.2965 103.47 40.3078ZM104.221 38.999C104.225 38.7874 104.227 38.5758 104.223 38.3625C104.039 38.3962 103.856 38.4317 103.671 38.4654C103.68 38.5852 103.695 38.8268 103.702 38.9466C103.833 38.9597 104.092 38.9859 104.221 38.999ZM103.541 37.6117C103.603 37.5256 103.725 37.3533 103.787 37.2692C103.631 37.198 103.476 37.125 103.322 37.0538C103.247 37.0856 103.096 37.153 103.019 37.1867C103.06 37.3422 103.101 37.4975 103.143 37.6548C103.242 37.6435 103.442 37.6229 103.541 37.6117ZM102.577 38.473C102.659 38.4523 102.826 38.4093 102.91 38.3887C102.746 38.3082 102.581 38.2294 102.416 38.1509C102.283 38.2108 102.143 38.2352 101.999 38.2258C102.074 38.3831 102.148 38.5404 102.223 38.6995C102.384 38.7163 102.542 38.7443 102.701 38.7744C102.671 38.6995 102.607 38.5497 102.577 38.473ZM100.334 37.2466C100.314 37.052 100.293 36.8572 100.271 36.6625C100.102 36.7186 99.9335 36.7748 99.7668 36.8328C99.8398 36.9788 99.8435 37.1248 99.7761 37.271C99.9615 37.2615 100.149 37.2541 100.334 37.2466ZM101.047 38.5515C101.076 38.4262 101.13 38.1771 101.156 38.0535C100.928 38.0329 100.697 38.0497 100.471 38.0684C100.557 38.2314 100.664 38.4036 100.512 38.5682C100.69 38.5591 100.87 38.5535 101.047 38.5515ZM101.458 40.1093C101.553 40.0906 101.746 40.0551 101.843 40.0363C101.912 39.879 102.001 39.7348 102.107 39.5982C102.029 39.6244 101.871 39.6749 101.793 39.7013C101.772 39.6227 101.729 39.4635 101.708 39.3829C101.585 39.4522 101.341 39.587 101.22 39.6545C101.383 39.761 101.461 39.9127 101.458 40.1093ZM101.639 37.3009C101.701 37.359 101.823 37.4751 101.884 37.533C101.948 37.3309 102.015 37.1268 102.083 36.9245C101.869 36.9189 101.656 36.917 101.444 36.9207C101.45 37.078 101.465 37.3926 101.471 37.5499C101.514 37.4882 101.598 37.3626 101.639 37.3009ZM99.456 38.5422C99.501 38.383 99.5458 38.2257 99.5908 38.0666C99.499 37.9785 99.3156 37.8044 99.2239 37.7183C99.2052 37.8006 99.1678 37.9692 99.1489 38.0535C99.0553 38.0198 98.8681 37.9523 98.7727 37.9206C99.0553 38.0573 99.0329 38.3512 99.0198 38.6208C99.1247 38.3905 99.2763 38.37 99.456 38.5422ZM99.7912 40.0944C99.9671 39.9764 100.199 39.9221 100.33 39.7443C100.28 39.5813 100.212 39.426 100.153 39.2687C100.072 39.3286 99.9129 39.4504 99.8342 39.5101C99.8193 39.7049 99.8061 39.8996 99.7912 40.0944ZM98.8645 36.8497C98.6529 36.7823 98.5331 36.627 98.4694 36.4229C98.4525 36.67 98.3141 36.7991 98.0538 36.8122C98.1306 36.9695 98.2073 37.1268 98.2841 37.2859C98.3422 37.2448 98.4582 37.1641 98.5162 37.123L98.6416 37.3757C98.6622 37.1774 98.6622 36.96 98.8645 36.8497ZM98.1754 39.9127C98.3139 39.9127 98.5892 39.9147 98.7277 39.9165C98.7183 39.7348 98.782 39.5833 98.9187 39.4653C98.7483 39.4298 98.5985 39.3566 98.4692 39.2425C98.355 39.3118 98.1285 39.4504 98.0162 39.5196C98.0892 39.542 98.2371 39.587 98.3101 39.6114C98.2764 39.6862 98.2092 39.836 98.1754 39.9127ZM96.9753 36.9901C97.0483 36.9677 97.1925 36.9265 97.2655 36.904C97.0969 36.8161 96.9303 36.7281 96.7656 36.6382C96.6702 36.7749 96.5429 36.8572 96.38 36.8909C96.4286 36.9846 96.5242 37.1718 96.5728 37.2672C96.7077 37.2746 96.9753 37.2916 97.1101 37.299C97.0764 37.2222 97.009 37.0669 96.9753 36.9901ZM97.198 40.0587C97.1213 39.8078 97.1231 39.5363 97.4283 39.469C97.2149 39.4934 97.0219 39.4447 96.8553 39.3173C96.7897 39.3641 96.6625 39.4577 96.5969 39.5046C96.6381 39.6337 96.6792 39.7628 96.7205 39.8921C96.8947 39.9052 97.0538 39.9595 97.198 40.0587ZM97.4789 38.3924C97.6304 38.4486 97.7802 38.5047 97.9319 38.5628C97.8756 38.3157 97.9507 38.1229 98.1584 37.9861C97.9732 38.0011 97.7915 37.9973 97.7203 37.7933C97.6324 37.8644 97.4543 38.0086 97.3645 38.0797C97.4021 38.1846 97.4414 38.2895 97.4789 38.3924ZM95.5 40.0681C95.5525 39.9669 95.6592 39.7666 95.7134 39.6656C95.5767 39.5906 95.4419 39.5139 95.3072 39.4391C95.1556 39.5402 95.0039 39.6432 94.8522 39.7443H95.1461C95.1273 39.8211 95.088 39.9708 95.0676 40.0476C95.1761 40.0514 95.3913 40.0625 95.5 40.0681ZM95.9306 38.2239C95.9137 38.2969 95.88 38.4392 95.8632 38.5103C96.0484 38.5289 96.2339 38.5478 96.4211 38.5682C96.3818 38.4167 96.3856 38.265 96.4342 38.1152C96.3388 38.0777 96.1478 38.0047 96.0522 37.9692C95.9005 38.0384 95.7489 38.1077 95.5972 38.1771C95.6797 38.1902 95.8463 38.2127 95.9306 38.2239ZM93.8936 37.636C93.7306 37.5049 93.7139 37.3514 93.841 37.1792C93.6725 37.1211 93.5059 37.0612 93.3394 37.0013L93.3243 37.2746C93.2458 37.2502 93.0847 37.2016 93.006 37.1792C93.1409 37.3196 93.2738 37.4618 93.4047 37.608C93.5677 37.6135 93.7306 37.6247 93.8936 37.636ZM94.0527 40.3003C94.0451 40.1618 94.0302 39.8828 94.0209 39.7443C93.8356 39.7386 93.6222 39.6469 93.4649 39.7874C93.4743 39.9502 93.4873 40.1131 93.508 40.2761C93.6445 40.2815 93.916 40.2947 94.0527 40.3003ZM94.3149 38.7969C94.4553 38.7088 94.605 38.662 94.7661 38.7312C94.7811 38.6077 94.8091 38.3568 94.8242 38.2314C94.5864 38.1977 94.3486 38.2257 94.1147 38.2576C94.2605 38.4093 94.3278 38.589 94.3149 38.7969ZM94.9944 37.1268C94.9645 37.1998 94.9046 37.344 94.8726 37.417C95.0785 37.4225 95.2826 37.4301 95.4885 37.4432C95.32 37.2635 95.4604 37.0594 95.5298 36.8777C95.3705 36.9302 95.2265 36.9001 95.0992 36.786C94.9456 36.904 94.7959 37.0238 94.6461 37.1437L94.9944 37.1268ZM104.914 41.2907C100.654 40.4163 96.2301 40.4013 91.9726 41.2944C91.8378 39.7442 91.8171 38.1883 91.7461 36.6361C92.7085 36.4471 93.6783 36.2842 94.6538 36.1587C96.6309 35.9078 98.6267 35.818 100.613 36.0052C101.435 36.0594 102.253 36.1512 103.066 36.2748C103.751 36.3777 104.433 36.5032 105.11 36.6474C105.114 38.1977 104.944 39.7424 104.914 41.2907ZM92.7458 38.9559C92.9031 38.9559 93.2214 38.9579 93.3787 38.9597C93.315 38.9073 93.1859 38.8044 93.1203 38.7538C93.1783 38.692 93.2926 38.5684 93.3505 38.5067C93.1466 38.4504 92.9425 38.3924 92.7384 38.3343C92.7383 38.5422 92.7402 38.7481 92.7458 38.9559Z" fill="#5F5F5F"/>
<path d="M99.09 17.8526C99.309 17.3246 98.826 16.8846 98.326 16.8846L98.3242 16.54C98.6594 16.54 98.9963 16.5494 99.3296 16.5906C100.275 16.8957 100.178 18.4273 99.2229 18.6726C99.5055 19.1482 99.8052 19.6144 100.114 20.0731C100.258 20.1124 100.543 20.1911 100.685 20.2304C100.371 20.616 99.807 20.4513 99.3801 20.4252C98.9158 19.9065 98.6294 19.2569 98.2063 18.7065L98.1875 18.3919C98.5564 18.3638 99.0114 18.289 99.09 17.8526Z" fill="#5F5F5F"/>
<path d="M92.518 47.0549C92.445 46.8469 92.3776 46.6334 92.3252 46.42C92.2746 46.2048 92.2409 45.9855 92.2353 45.7647C92.1623 44.3884 92.005 43.0161 92.035 41.6363C94.0813 41.2169 96.1689 40.9679 98.2584 40.9697C98.2547 42.4714 98.2733 43.9732 98.2491 45.4745C97.8522 45.1992 97.5434 44.832 97.2887 44.4258C96.9686 44.1618 96.6072 43.9504 96.272 43.7071C96.0903 43.9691 95.7946 44.0702 95.5082 44.1618C95.188 44.6601 94.7255 45.0192 94.2538 45.3582C93.9543 45.7644 93.7034 46.2156 93.3045 46.5398C93.226 46.4873 93.0705 46.3806 92.9918 46.3282C92.8344 46.5698 92.6771 46.8115 92.518 47.0549Z" fill="#5F5F5F"/>
<path d="M98.1806 20.1226C98.2798 20.1263 98.4802 20.1319 98.5793 20.1338C98.5793 20.2162 98.5793 20.379 98.5793 20.4595C98.0176 20.4595 97.4559 20.4595 96.8962 20.4615C96.8942 20.3792 96.8942 20.2181 96.8942 20.1376C97.0047 20.1319 97.2275 20.1208 97.3379 20.1152C97.3379 19.0293 97.3399 17.9433 97.3361 16.8574C97.2294 16.8574 97.014 16.8593 96.9073 16.8593C96.9016 16.7826 96.8923 16.6273 96.8867 16.5503C97.3641 16.5654 97.8434 16.5428 98.3227 16.541L98.3245 16.8855C98.2777 16.8855 98.2309 16.8893 98.1841 16.8968C98.1822 17.3949 98.1822 17.8929 98.1859 18.3927L98.2047 18.7073C98.1825 19.1789 98.1806 19.6507 98.1806 20.1226Z" fill="#5F5F5F"/>
<path d="M98.2496 31.3637C97.935 31.489 97.6167 31.6033 97.2985 31.7175C97.1 31.5995 96.9016 31.4835 96.7031 31.3674C97.2143 31.3113 97.7516 31.1671 98.2496 31.3637Z" fill="#5F5F5F"/>
<path d="M95.6924 68.0619C95.8122 66.9927 95.7636 65.9162 95.8122 64.8432C95.7075 64.8398 95.4996 64.8301 95.3967 64.8247C95.3967 64.7442 95.3967 64.5814 95.3967 64.499C96.4882 64.5792 97.8175 64.2763 98.6618 65.156C99.6785 66.1126 99.1936 68.0786 97.8306 68.4194C96.9356 68.5526 96.0181 68.4851 95.125 68.3598C95.2767 68.1968 95.4658 68.0992 95.6924 68.0619ZM97.7612 67.7851C98.8116 66.9088 98.2086 64.6697 96.6715 64.9599C96.6172 65.9974 96.6134 67.0383 96.5311 68.0753C96.9505 68.0359 97.4522 68.1442 97.7612 67.7851Z" fill="#5F5F5F"/>
<path d="M94.6762 19.1375C94.4422 18.7293 94.1988 18.325 93.9404 17.9299C93.8636 18.3812 93.7795 18.8304 93.7025 19.2817C94.0266 19.2311 94.3523 19.1825 94.6762 19.1375ZM92.9256 20.6504C93.2177 19.3679 93.478 18.0779 93.7626 16.7936C93.8731 16.7805 94.0958 16.7543 94.2063 16.7412C94.9872 17.9787 95.5806 19.3623 96.5991 20.4296C96.0562 20.5569 95.5039 20.6524 94.9459 20.6786C95.0526 20.51 95.1762 20.3547 95.3186 20.2142C95.195 19.9915 95.0714 19.7687 94.9497 19.544C94.4873 19.602 94.0285 19.6807 93.5698 19.7612C93.5099 20.0551 93.448 20.3509 93.3808 20.645C93.5249 20.6468 93.8114 20.6525 93.9537 20.6543C93.7235 21.2047 92.9839 20.9857 92.5195 21.1262C92.6055 20.9275 92.7403 20.7683 92.9256 20.6504Z" fill="#5F5F5F"/>
<path d="M93.7344 48.5176C93.2271 48.2162 92.8994 47.7126 92.6055 47.2163C94.4479 47.1864 96.2921 47.2463 98.1363 47.1846C98.1737 47.3397 98.1999 47.497 98.2224 47.6564C98.331 48.5121 98.2281 49.3957 98.1831 50.2551C96.8554 49.3286 95.1181 49.3321 93.7344 48.5176Z" fill="#5F5F5F"/>
<path d="M91.4781 64.098C91.2871 63.9293 90.9164 63.8825 90.9126 63.5754C91.3526 63.5098 91.7739 63.6767 92.1951 63.772C92.6164 64.7475 92.9572 65.753 93.4009 66.719C93.5487 65.9738 93.7303 65.236 93.9082 64.4966C93.794 64.4871 93.5657 64.4646 93.4514 64.4535C93.4758 64.3635 93.5226 64.1803 93.5469 64.0884C93.9906 64.2982 94.7994 64.1277 94.9248 64.7231C94.777 64.71 94.4811 64.6856 94.3331 64.6745C94.0691 65.8561 93.7771 67.0318 93.4925 68.2093C93.3803 68.1905 93.1555 68.153 93.0433 68.1344C92.577 67.099 92.2401 66.0093 91.7252 64.9964C91.5773 65.7414 91.3901 66.4774 91.2216 67.2169C91.465 67.2805 91.6261 67.4285 91.7046 67.6625C91.203 67.6175 90.703 67.522 90.2238 67.3611C90.0927 66.9941 90.7742 67.2134 90.8116 66.9062C91.0513 65.9738 91.2516 65.0322 91.4781 64.098Z" fill="#5F5F5F"/>
<path d="M80.2422 27.5269C80.1786 27.0158 80.8976 26.9016 81.2328 26.6677C80.6637 26.1772 80.3828 25.4431 80.5064 24.6943C81.3676 25.2523 82.255 25.7803 83.2231 26.1341C85.1984 26.9336 87.4938 27.3174 88.9709 28.9931C89.5289 29.5417 89.5906 30.4047 89.3434 31.1162C89.0644 31.9605 88.6863 32.8536 88.9297 33.7561C89.2068 35.0198 90.2328 35.9429 91.2963 36.5871C91.3356 37.4689 91.3842 38.3507 91.4611 39.2306C91.1634 39.3542 90.8639 39.4722 90.5624 39.5882C90.4146 39.0977 90.3472 38.5866 90.3902 38.0736C89.7667 38.3245 89.1058 38.465 88.4336 38.4781C88.4747 37.8003 88.7145 37.1599 89.0459 36.574C88.383 36.6451 87.7146 36.617 87.0518 36.5478C87.2334 36.061 87.4843 35.6023 87.8251 35.2072C87.0145 35.1622 86.2056 35.0011 85.4848 34.6155C85.8593 34.1194 86.2955 33.67 86.7897 33.2937C85.9771 33.2263 85.1608 33.1214 84.3894 32.8407C84.6984 32.4418 85.0241 32.0562 85.3573 31.6762C84.5598 31.4983 83.7303 31.3654 83.0077 30.9628C83.1987 30.6351 83.4608 30.358 83.7342 30.0998C82.8899 30.1035 82.0755 29.8583 81.317 29.4988C81.566 29.1729 81.8262 28.8547 82.1035 28.5533C81.4125 28.362 80.7553 28.0343 80.2422 27.5269Z" fill="#5F5F5F"/>
<path d="M90.9346 19.8418C91.324 19.4992 91.4945 18.9768 91.1762 18.5238C91.032 18.0819 90.5153 18.1979 90.165 18.2485C90.3598 18.8026 90.4254 19.4691 90.9346 19.8418ZM89.5698 18.0555C90.1763 17.8851 90.8055 17.5238 91.4495 17.7297C92.1236 17.973 92.35 18.8904 91.9626 19.4653C91.7154 19.8904 91.2136 20.0289 90.7793 20.1693C90.9141 20.5344 91.0375 20.9032 91.1518 21.2739C91.4215 21.2176 91.6536 21.2757 91.8521 21.448C91.2174 21.6839 90.5827 21.9591 89.8992 22.0135C90.0228 21.8338 90.1726 21.6765 90.3485 21.5434C90.0377 20.538 89.6745 19.5477 89.3655 18.5403C89.2213 18.5496 88.9293 18.5703 88.7852 18.5815C88.849 18.1979 89.2776 18.181 89.5698 18.0555Z" fill="#5F5F5F"/>
<path d="M92.7667 36.0213C91.5985 35.8003 90.5762 34.881 90.1531 33.782C89.6102 32.3254 90.8664 30.9399 90.4433 29.4795C90.3253 28.7399 89.7356 28.2381 89.2227 27.7533C94.9612 24.0931 102.851 24.3027 108.399 28.2401C107.562 28.7268 106.579 29.2306 106.253 30.2134C105.946 31.4041 106.566 32.6005 106.397 33.8026C106.302 34.8211 105.549 35.7611 104.575 36.0661C104.092 36.0269 103.611 35.9614 103.128 35.892C102.327 35.776 101.524 35.6431 100.713 35.5925C100.567 34.5234 100.501 33.4375 100.207 32.3946C100.633 32.3254 101.043 32.1869 101.423 31.979C100.539 31.9622 99.9173 31.3519 99.2545 30.8669C98.436 30.601 97.4739 30.6329 96.6857 30.9887C96.6669 31.0672 96.6296 31.2208 96.6108 31.2995C96.2644 31.4193 95.8711 31.4661 95.5867 31.7152C95.2459 31.9717 95.435 32.4491 95.3882 32.8105C95.9685 32.1589 97.1631 32.3798 97.5094 33.1718C97.7247 33.5538 97.661 34.0874 97.2885 34.3476C96.8373 34.7034 96.4628 35.1303 96.1333 35.5946C95.6222 35.6396 95.1129 35.6975 94.6055 35.765C93.9913 35.8434 93.379 35.9332 92.7667 36.0213Z" fill="#5F5F5F"/>
<path d="M88.6507 50.7002C88.9092 50.5784 88.9971 50.653 88.9185 50.9247C88.6581 51.0481 88.5682 50.9732 88.6507 50.7002Z" fill="#5F5F5F"/>
<path d="M87.0056 23.1249C86.5805 22.1626 86.0394 21.2545 85.592 20.3015C85.4553 20.3372 85.182 20.4102 85.0453 20.4457C85.006 20.0357 85.4686 19.9608 85.725 19.7792C86.3373 19.4984 86.927 19.1688 87.455 18.7607C87.6273 19.0884 87.9849 19.4553 87.747 19.8467C87.5766 19.7231 87.4082 19.5976 87.2396 19.474C86.955 19.6406 86.6686 19.8072 86.3822 19.972C86.5732 20.3465 86.7622 20.7228 86.957 21.0953C87.1854 20.9773 87.4138 20.8575 87.6422 20.7377C87.4962 20.4269 87.5768 20.2454 87.8818 20.1928C88.1139 20.5935 88.4098 21.0091 88.3555 21.496C88.1645 21.3893 87.9735 21.277 87.7863 21.1627C87.5746 21.2675 87.3612 21.3724 87.1498 21.4753C87.3596 21.876 87.5635 22.2804 87.7676 22.6848C88.1066 22.5125 88.4454 22.3423 88.7823 22.168C88.6382 21.904 88.6869 21.6793 88.964 21.5389C89.1044 21.8086 89.2411 22.0781 89.3778 22.3495C88.5314 22.8195 87.6627 23.2464 86.8015 23.6845C86.7771 23.606 86.7322 23.4505 86.7097 23.3737C86.7827 23.3102 86.9306 23.1866 87.0056 23.1249Z" fill="#5F5F5F"/>
<path d="M87.6329 64.4895C87.9306 64.6224 88.2302 64.7535 88.5316 64.8789C88.556 64.4351 88.584 63.9914 88.6046 63.5495C88.2657 63.8471 87.9418 64.16 87.6329 64.4895ZM87.0187 65.8057C86.5319 65.9666 85.9103 65.5941 85.6406 65.1859C85.7717 65.1859 86.0357 65.1859 86.1668 65.1859C87.1815 64.3397 88.084 63.3641 89.067 62.4805C89.1606 62.5198 89.3478 62.5965 89.4415 62.634C89.3928 63.5026 89.3758 64.3734 89.3104 65.2422C89.2822 65.8505 89.1194 66.4946 89.4395 67.062C88.8928 66.8992 88.3722 66.6635 87.8837 66.373C88.0465 66.197 88.2413 66.1595 88.466 66.2628C88.4716 65.9688 88.4811 65.6787 88.4922 65.3865C88.0747 65.1842 87.6516 64.9916 87.2208 64.8191C87.0318 65.0175 86.8426 65.2161 86.6536 65.4147C86.7454 65.5137 86.9288 65.7083 87.0187 65.8057Z" fill="#5F5F5F"/>
<path d="M86.5589 47.0605C86.323 47.6278 86.0664 48.1858 85.8343 48.755C85.7764 48.0959 86.134 47.5249 86.5589 47.0605Z" fill="#5F5F5F"/>
<path d="M85.2158 65.0536C84.4706 64.5669 83.7236 64.0856 82.9933 63.5782C82.5571 63.3198 83.2218 63.1214 83.4071 63.3743C83.9856 62.5093 84.6146 61.6705 85.124 60.7643C85.0603 60.6201 84.933 60.3336 84.8693 60.1895C85.4665 60.4647 86.2117 60.7439 86.485 61.3914C86.3353 61.3484 86.0357 61.2623 85.884 61.2191C85.3149 62.0972 84.7158 62.9585 84.1523 63.8422C84.4573 64.0406 84.757 64.2502 85.0809 64.419C85.1839 64.3329 85.3899 64.1643 85.4909 64.078C85.8018 64.4396 85.3655 64.7447 85.2158 65.0536Z" fill="#5F5F5F"/>
<path d="M85.201 48.8523C84.9257 48.1335 85.0064 47.3096 85.4051 46.6543C85.2779 47.3805 85.2067 48.1144 85.201 48.8523Z" fill="#5F5F5F"/>
<path d="M83.7844 48.1442C83.7076 47.5001 83.689 46.8392 83.8911 46.2139C84.0202 46.8374 83.9304 47.4775 83.9472 48.1106L83.7844 48.1442Z" fill="#5F5F5F"/>
<path d="M83.7791 22.0414C83.3296 21.8655 82.9327 22.2342 82.5396 22.3915C83.092 23.3051 83.7773 24.1271 84.3931 24.9958C84.702 24.7338 85.0953 24.4829 85.157 24.0447C85.2974 23.1593 84.6383 22.2531 83.7791 22.0414ZM81.8355 22.9421C81.6596 23.0188 81.4817 23.0938 81.3038 23.1686C81.2026 22.8334 81.5378 22.7005 81.7288 22.5264C82.2399 22.1725 82.71 21.7437 83.2846 21.4928C83.895 21.33 84.612 21.3617 85.1306 21.755C86.0051 22.386 86.2092 23.7883 85.5014 24.6121C85.0539 25.0727 84.5053 25.4153 83.9755 25.7673C83.1799 24.891 82.5377 23.8912 81.8355 22.9421Z" fill="#5F5F5F"/>
<path d="M108.009 51.6887C108.382 51.539 108.591 51.1871 108.829 50.8891C108.49 50.7637 108.148 50.6458 107.811 50.5164C107.805 50.5801 107.794 50.7056 107.788 50.7673C107.93 50.7653 108.219 50.758 108.363 50.7542C108.275 51.0766 108.146 51.3836 108.009 51.6887ZM103.053 53.3178C103.18 53.4095 103.439 53.591 103.568 53.6812C104.004 53.4113 104.435 53.1267 104.847 52.8197L104.965 53.0144C104.97 52.8066 104.976 52.6007 104.983 52.3948C104.343 52.7074 103.699 53.0165 103.053 53.3178ZM104.468 53.2802C104.023 53.5292 103.603 53.8215 103.158 54.0684C103.347 54.2313 103.538 54.3961 103.727 54.5608C104.092 54.2012 104.455 53.8233 104.922 53.5927C105.682 53.1997 106.311 52.6079 107.058 52.1961C106.886 52.4303 106.702 52.6679 106.438 52.8046C105.781 53.1527 105.341 53.7706 104.806 54.265C105.019 54.3681 105.232 54.4708 105.446 54.5757C105.815 54.0645 106.137 53.5064 106.631 53.1041C107.06 52.754 107.462 52.3401 107.642 51.8028L107.202 51.8328C107.24 51.739 107.313 51.5537 107.35 51.4599C107.056 51.6585 106.704 51.7202 106.358 51.756C106.51 51.8606 106.674 51.945 106.837 52.0329C106.616 52.0987 106.399 52.1752 106.186 52.2616C106.201 52.1156 106.186 51.9733 106.145 51.8328C105.944 52.1848 105.564 52.3195 105.193 52.3907C105.154 52.5086 105.077 52.7447 105.038 52.8626L105.69 52.6398C105.41 53.0611 104.877 53.063 104.468 53.2802ZM89.1981 51.2264C88.9696 51.7 89.4246 51.938 89.6831 52.2244C90.3683 52.889 90.7952 53.7783 90.9787 54.7069C91.2296 54.8005 91.4785 54.8905 91.7294 54.9841C91.3849 53.4807 90.4918 52.0838 89.1981 51.2264ZM88.9209 50.9249C88.9994 50.6532 88.9115 50.5786 88.6531 50.7003C88.5708 50.9734 88.6606 51.0483 88.9209 50.9249ZM85.2943 50.9193C84.684 51.6102 84.3994 52.5653 84.6091 53.4733C84.6896 52.5856 84.9817 51.7468 85.2943 50.9193ZM84.785 50.3651C84.1073 50.7321 83.6897 51.4156 83.4614 52.1324C83.9107 51.5485 84.3413 50.9532 84.785 50.3651ZM83.1937 50.9961C82.7968 50.852 82.3455 51.0953 81.9336 51.1066C82.0122 50.9026 82.1002 50.7003 82.2051 50.5075L82.4279 50.5545C82.9577 50.3299 83.4708 50.0172 84.0623 49.9854C84.1408 49.9479 84.2195 49.9104 84.2981 49.8751C84.3356 49.8563 84.3711 49.8396 84.4086 49.8225L84.549 50.1373C84.6313 50.0658 84.7943 49.9235 84.8767 49.8523C84.8842 49.8356 84.8898 49.8206 84.8935 49.8037L85.1837 49.8337C85.0976 50.019 85.2698 50.3055 85.5189 50.2381C85.7436 50.2064 85.7754 50.0155 85.7042 49.8674L85.8952 49.8393C85.9775 49.8787 86.06 49.9011 86.1385 49.905L86.1179 50.259C85.9906 50.2325 85.8615 50.2721 85.7921 50.4142C85.6104 50.5882 85.8314 50.8522 85.8258 51.0566C86.086 50.9873 86.4381 50.9837 86.4567 50.6276L86.7937 50.6671C86.7656 50.8432 86.9004 51.0677 87.0315 51.255C87.0839 51.3317 87.1363 51.4026 87.1757 51.4607C87.3086 51.7491 87.5127 51.989 87.8122 52.1105C88.0556 52.3391 88.3664 52.4548 88.6772 52.5597C89.1752 51.9885 88.5536 51.4062 88.3458 50.8615C88.2333 50.871 88.0088 50.8898 87.8965 50.897C88.0183 51.1516 88.1305 51.4342 88.4582 51.4473C88.4132 51.5129 88.3271 51.6401 88.2823 51.7038C88.7466 51.6326 88.9713 52.0447 88.4882 52.2599C88.2355 52.2036 88.0913 52.0445 88.0556 51.7879C87.9338 51.7823 87.6887 51.7712 87.5651 51.7656C87.5147 51.5484 87.5633 51.3444 87.713 51.1534C87.5615 51.1666 87.26 51.1946 87.1083 51.2077C87.1158 51.0579 87.1289 50.7599 87.1345 50.6103C87.2711 50.6367 87.5427 50.6908 87.6793 50.719C87.6924 50.5617 87.7075 50.4064 87.7224 50.2527C88.3533 49.9679 89.0574 50.0185 89.7258 50.099C89.868 50.2974 89.9206 50.5897 90.1564 50.702C90.7536 50.6197 91.3172 50.3913 91.8808 50.189C91.8695 50.3368 91.8471 50.6309 91.836 50.7787C92.2478 50.5447 92.6579 50.3069 93.0792 50.0879C93.0455 50.2357 92.978 50.5355 92.9443 50.6832C93.6314 50.3707 94.3317 49.7828 95.1142 50.1966C94.6648 50.8126 94.2623 51.4697 94.0357 52.2036C94.3072 52.1625 94.5805 52.1213 94.852 52.0763C94.734 52.5311 94.6517 52.9955 94.6049 53.4637C94.9064 53.3346 95.2059 53.2017 95.5036 53.0706C95.4867 53.5537 95.5092 54.0403 95.5635 54.5216C95.8836 54.3026 96.1926 54.0686 96.4866 53.816C96.5876 54.3065 96.7151 54.7912 96.8759 55.2651C97.1417 55.0106 97.3908 54.7411 97.6156 54.4488C97.8139 54.9244 98.0462 55.3868 98.3532 55.8044C98.6247 55.3624 98.8532 54.8982 99.0291 54.4115C99.3007 54.7072 99.574 54.999 99.8642 55.2782C100.023 54.8008 100.147 54.3123 100.242 53.818C100.542 54.0689 100.847 54.3142 101.156 54.5538C101.218 54.0632 101.238 53.569 101.237 53.0749C101.544 53.2098 101.851 53.3424 102.16 53.4718C102.077 53.0055 101.985 52.5411 101.888 52.0769C102.092 52.1142 102.5 52.1856 102.704 52.223C102.489 51.5113 102.145 50.8432 101.645 50.2887C102.399 49.7214 103.193 50.3207 103.88 50.6818C103.863 50.5397 103.83 50.255 103.813 50.1129C104.234 50.3227 104.644 50.5548 105.056 50.787C105.031 50.6333 104.981 50.3283 104.957 50.1747C105.578 50.3433 106.202 50.5099 106.825 50.6746C107.031 50.4708 107.194 50.227 107.374 50.0006C107.952 49.9368 108.553 49.8846 109.044 50.2477C109.154 50.0119 109.22 49.7628 109.242 49.5026C109.519 49.6186 109.802 49.6767 110.062 49.4595L110.06 49.6189C109.796 49.8808 109.295 49.9952 109.225 50.4014C109.416 50.4837 109.557 50.6166 109.641 50.7983C109.514 51.1261 109.194 51.0417 108.918 51.0117C109.038 51.1842 109.1 51.3714 109.1 51.5734C108.958 51.577 108.673 51.5867 108.529 51.5921C108.604 52.2923 107.746 52.0433 107.801 51.4685C107.78 51.744 107.78 52.0209 107.827 52.2942C107.342 52.8278 107.303 53.6762 106.676 54.0784C106.387 54.5895 106.125 55.1158 105.846 55.6325C106.056 55.7016 106.266 55.773 106.475 55.8439C106.786 55.3272 107.093 54.7823 107.2 54.1794C107.304 53.5259 107.694 52.9718 107.922 52.3614C108.542 52.2191 109.108 51.8222 109.471 51.3052C109.825 51.0262 109.86 50.62 109.688 50.227C109.752 50.137 109.879 49.9553 109.943 49.8657L109.933 50.3973C111.373 49.6934 112.807 48.9782 114.221 48.2217C114.262 48.2836 114.343 48.4053 114.384 48.4649C114.606 48.235 114.841 47.9856 115.194 48.1581L115.163 47.8716C115.661 47.7256 116.174 47.643 116.689 47.5684C116.312 47.937 115.912 48.2798 115.507 48.6149L115.384 48.3509C115.178 48.4481 114.974 48.5476 114.768 48.6448C113.356 52.4622 110.557 55.7465 107.005 57.7365C103.249 59.882 98.6773 60.5113 94.472 59.5282C90.9671 58.7303 87.7374 56.7891 85.3708 54.0874C85.1012 53.872 85.4926 53.5856 85.5449 53.3479C85.8764 52.8329 85.6647 52.2209 85.5467 51.6777C85.6346 52.6532 85.3539 53.625 84.6724 54.34C84.2268 53.7897 84.1593 53.0779 84.1444 52.3966C83.8187 52.4977 83.4966 52.6064 83.1747 52.7131C82.9896 52.1363 83.3884 51.5429 83.1937 50.9961Z" fill="#5F5F5F"/>
<path d="M80.8453 61.2506C81.1 61.5035 81.3545 61.7524 81.6129 62.0032C81.845 61.949 82.1296 61.6608 82.3 62.022C82.1034 62.2333 81.9086 62.4452 81.7139 62.6567C80.9967 61.9415 80.0476 61.3891 79.5664 60.4792C79.7703 60.556 79.9744 60.6365 80.1767 60.7207C80.8862 59.9455 81.5903 59.1704 82.3149 58.41C82.2155 58.2249 82.1163 58.0374 82.0209 57.8486C83.015 58.1147 83.4813 59.2436 84.4623 59.5881C84.2265 59.8483 83.9943 60.1122 83.7378 60.3558C83.6779 60.2886 83.5599 60.1519 83.5 60.0825L83.6966 59.7193C83.4326 59.4836 83.1741 59.2458 82.9121 59.0097C82.6181 59.328 82.3298 59.6501 82.0507 59.9815C82.356 60.2399 82.6779 60.648 83.0561 60.2288C83.3913 60.7512 82.588 61.0542 82.3746 61.4534C82.09 61.2771 82.1987 61.0057 82.2997 60.7547C82.1162 60.6087 81.9363 60.4534 81.7304 60.3375C81.4052 60.6103 81.1319 60.9377 80.8453 61.2506Z" fill="#5F5F5F"/>
<path d="M83.0712 48.3372C82.6087 48.1163 82.0902 48.0958 81.5921 48.0339L81.5846 48.0957C82.0789 48.1855 82.5694 48.3015 83.0712 48.3372ZM82.3336 49.0092C81.5566 48.8952 80.7497 48.6912 80.2047 48.0827C80.5903 47.9536 80.9836 47.8413 81.3787 47.7457C80.772 47.6128 80.2779 47.214 79.9727 46.6804C80.4913 46.5531 81.0267 46.54 81.5584 46.5439C81.534 46.5251 81.5098 46.5084 81.4835 46.4912L81.7588 46.495C81.843 46.549 82.0116 46.6557 82.0976 46.7084L82.4066 46.8636C82.356 46.9724 82.4141 47.1014 82.5115 47.1819L82.3935 47.3934C81.9365 47.1389 81.4648 46.9197 80.9275 46.9011C81.5771 47.2456 82.4216 47.3371 82.8372 48.0132C83 47.9047 83.1666 47.7979 83.3332 47.6966C83.5653 47.9364 83.79 48.1852 84.0148 48.4343C84.1964 48.1404 84.3743 47.8425 84.5035 47.5224C84.582 47.4754 84.7393 47.3818 84.818 47.3351C84.7936 47.7432 84.8162 48.1553 84.8986 48.5577C84.7806 48.7317 84.6627 48.9058 84.5427 49.0801C84.6963 49.1586 84.8498 49.2374 85.0035 49.3158C85.2187 49.054 85.3873 48.7261 85.6887 48.554C85.949 48.9283 85.8365 49.4113 85.8966 49.8383L85.7056 49.8664C85.6419 49.7374 85.5015 49.6399 85.3386 49.7073C85.2619 49.7314 85.2113 49.7785 85.1851 49.8327L84.8949 49.8027C84.9717 49.4806 84.2283 49.3029 84.2884 49.8514C84.2154 49.6247 84.1611 49.3946 84.1087 49.1625C83.9552 49.1661 83.6481 49.1736 83.4946 49.1756C83.5807 49.0032 83.6669 48.831 83.7548 48.6587C83.5751 48.5819 83.3972 48.505 83.2175 48.4284C83.1745 48.5782 83.1296 48.7263 83.0826 48.8741C83.1612 48.9527 83.3185 49.1083 83.3972 49.1887C82.8018 49.2242 82.2083 49.3363 81.6879 49.6379C82.3394 49.5106 82.9797 49.3253 83.6332 49.2055C83.8448 49.3778 84.0059 49.6024 84.1836 49.8083C83.5245 49.8327 82.8823 50.063 82.4293 50.5535L82.2065 50.5065C82.3114 50.3154 82.435 50.1339 82.581 49.9692C82.0812 49.9916 81.5887 49.8908 81.1057 49.7802C81.3881 49.3557 81.8917 49.2024 82.3336 49.0092Z" fill="#5F5F5F"/>
<path d="M83.661 43.593C82.7472 44.0143 82.2474 45.0197 82.3466 46.0061C82.8596 45.5814 82.7135 44.7236 83.2022 44.2202C82.9962 44.8362 82.9644 45.5459 82.5431 46.0644C82.5281 46.1955 82.5001 46.4595 82.485 46.5906C82.9007 46.2177 83.3575 45.8585 83.6215 45.3547C83.8912 44.8043 83.7921 44.1678 83.661 43.593ZM81.667 43.1701C81.7906 42.8347 81.9179 42.5018 82.0714 42.1797C82.0097 42.571 81.901 42.9511 81.7981 43.3329C81.856 43.6663 81.9104 43.9994 81.9629 44.3344C82.7043 43.5817 82.8541 42.4472 82.5395 41.4679C82.0078 41.7787 81.6501 42.2823 81.4012 42.8328C81.4685 42.917 81.5996 43.0856 81.667 43.1701ZM81.7194 44.2652C81.695 43.5387 81.1539 42.949 80.5942 42.5408C80.9817 43.1043 81.3112 43.7372 81.7194 44.2652ZM82.1988 44.7295C82.0808 44.5743 81.9366 44.473 81.7662 44.4244C81.7043 44.5949 81.6613 44.767 81.6333 44.945C81.7418 44.9768 81.9591 45.0365 82.0677 45.0683C82.0994 44.984 82.165 44.8139 82.1988 44.7295ZM80.2104 45.0252C80.7403 45.4184 81.3469 45.7031 81.8374 46.1506C81.8186 46.2367 81.7775 46.4092 81.7569 46.4951L81.4816 46.4915C81.1015 46.2408 80.6128 46.2033 80.2534 45.913C79.9014 45.5948 79.7591 45.1229 79.6094 44.6904C80.1616 44.6868 80.6991 44.8159 81.214 45.0085C81.214 44.3738 80.51 44.1231 80.3547 43.5575C80.1899 42.9733 80.1693 42.3611 80.0532 41.7656C80.364 41.9603 80.6748 42.1532 80.9876 42.3426C81.0531 40.7229 81.2534 39.096 81.7421 37.5455C82.3824 37.5605 83.0228 37.5024 83.6462 37.3564C83.0695 37.9106 82.5714 38.5547 82.3469 39.3373C83.2081 39.3972 84.0357 39.1164 84.7621 38.6746C84.2847 39.3056 83.9289 40.019 83.7529 40.7941C84.5449 40.7548 85.2282 40.3429 85.8891 39.9478C85.5803 40.6088 85.2806 41.2753 85.0971 41.9849C85.8703 41.8295 86.6155 41.5056 87.1772 40.9383C86.9169 41.6592 86.6791 42.3987 86.6343 43.1701C87.342 43.071 87.9598 42.7021 88.4935 42.245C88.2764 42.9472 88.179 43.6791 88.2052 44.4151C88.9428 44.1491 89.5158 43.6062 89.9427 42.9639C89.748 43.6493 89.6487 44.3645 89.7498 45.0757C90.4089 44.8249 90.8377 44.2575 91.1972 43.6791C91.0155 44.3473 90.9125 45.0367 90.9893 45.7292C91.2702 45.6002 91.5472 45.4673 91.8225 45.3267C91.8507 45.718 91.9049 46.1055 91.9891 46.4876C92.0397 46.7233 92.1014 46.9554 92.1744 47.186C91.8037 47.5586 91.3842 47.877 90.9106 48.1053C91.0698 48.2286 91.2289 48.3541 91.388 48.4795C91.0229 48.6632 90.6634 48.8559 90.3134 49.0637C90.4669 49.1124 90.772 49.206 90.9255 49.2529C90.2684 49.7171 89.4764 49.9511 88.6713 49.8988C88.1508 49.8204 87.7052 50.1047 87.34 50.4436C87.2521 50.2899 87.1659 50.1366 87.0798 49.9829L87.3755 49.9192C87.0836 49.8012 86.7634 49.6852 86.6885 50.1327C86.8269 50.2261 86.9656 50.3199 87.106 50.4155C86.9019 50.4623 86.814 50.5539 86.7932 50.6662L86.4562 50.6268C86.4562 50.6248 86.4562 50.6248 86.4562 50.6232C86.4505 50.4472 86.2859 50.2939 86.1173 50.2582L86.1379 49.904C86.269 49.9134 86.3944 49.8742 86.5142 49.7842C86.7932 49.3724 86.1585 49.1869 85.9245 48.9472C86.943 48.4849 87.2482 47.3315 87.3119 46.3109C86.7708 46.5148 86.2971 46.8466 85.8739 47.2376C85.8739 46.7433 85.8701 46.2471 85.859 45.753C85.3723 46.1891 84.9322 46.7227 84.8592 47.4005C84.8516 47.378 84.8443 47.3535 84.8386 47.3291C84.6327 46.6383 84.7975 45.8425 84.2863 45.2454C83.7564 45.7846 83.4213 46.4942 83.4587 47.26C83.3089 47.4208 83.1629 47.5857 83.0074 47.7409C82.8015 47.6286 82.5994 47.5069 82.3916 47.3928L82.5096 47.1813C82.6276 47.2749 82.7997 47.3011 82.9158 47.1438C83.1367 46.9137 82.7773 46.5915 82.5376 46.7393C82.4701 46.7731 82.4271 46.8162 82.4046 46.8627L82.0957 46.7075C82.1107 46.6289 82.1425 46.4679 82.1593 46.3874C81.7194 45.6937 81.0248 45.1752 80.2104 45.0252Z" fill="#5F5F5F"/>
<path d="M79.5717 29.5582C79.9818 29.1706 80.5585 29.7809 80.2008 30.2004C79.7665 30.5487 79.1954 29.9719 79.5717 29.5582Z" fill="#5F5F5F"/>
<path d="M78.1888 58.2959C78.7954 57.9458 79.3422 57.5004 79.8813 57.0566C79.8458 57.0643 79.8101 57.0716 79.7746 57.0789L79.681 56.6445C80.1491 56.5473 80.6171 56.4442 81.0833 56.334C81.3641 56.6726 81.6281 57.0284 81.8808 57.3916C81.6037 57.6087 81.4276 57.3672 81.2592 57.1631C80.3998 57.7903 79.5329 58.4098 78.6811 59.0466C78.726 59.2077 78.8178 59.5278 78.8628 59.689C78.2263 59.3577 77.9229 58.6481 77.5391 58.0749C77.7713 58.0937 77.9885 58.1664 78.1888 58.2959Z" fill="#5F5F5F"/>
<path d="M77.7845 33.6143C78.1927 33.7753 78.1328 34.5223 77.6347 34.485C77.5318 34.4532 77.3277 34.3895 77.2266 34.3596C77.2266 34.2023 77.2266 33.8915 77.2266 33.736C77.4082 33.6686 77.5937 33.6274 77.7845 33.6143Z" fill="#5F5F5F"/>
<path d="M77.4679 49.5695C77.2227 49.534 77.0597 49.3936 76.9792 49.1445C75.9588 49.4142 74.9309 49.6651 73.8993 49.8972C73.8936 50.0301 73.8787 50.2923 73.8712 50.4252L73.654 50.3898C73.4406 49.8338 73.3376 49.2422 73.2383 48.6578C73.4499 48.7515 73.6258 48.888 73.7682 49.0697C74.1988 48.9705 74.6276 48.8599 75.0564 48.7476C74.9853 48.4556 74.9142 48.1614 74.8448 47.8674L75.2736 47.7643C75.3429 48.0563 75.4141 48.3486 75.4871 48.6388C75.929 48.5357 76.3708 48.433 76.8146 48.3393C76.809 48.1897 76.7977 47.888 76.7921 47.7363C77.4005 48.1091 77.2714 48.9666 77.4679 49.5695Z" fill="#5F5F5F"/>
<path d="M76.6447 56.2457C76.7252 56.4441 76.802 56.6426 76.8788 56.8447C76.3171 56.7755 76.1411 56.1295 75.7891 55.7683C75.8303 55.6933 75.9108 55.5437 75.9519 55.4688C76.0811 55.6072 76.2085 55.746 76.3377 55.8846C77.2007 55.2517 78.077 54.6357 78.9364 53.9954C78.8559 53.8005 78.7771 53.6039 78.7023 53.4092C79.178 53.4298 79.3408 53.9408 79.6159 54.2462C79.2059 55.1581 78.7061 56.0231 78.2735 56.9236C78.7454 56.8354 79.2135 56.7439 79.6814 56.6445L79.775 57.0789C78.8688 57.2792 77.9608 57.474 77.0434 57.6257C77.4703 56.7383 77.9627 55.8828 78.3634 54.984C77.7979 55.4143 77.2213 55.828 76.6447 56.2457Z" fill="#5F5F5F"/>
<path d="M77.0154 29.4632C76.9686 29.5475 76.877 29.7177 76.8301 29.802C76.6598 29.7401 76.4894 29.6766 76.3172 29.6147C75.9596 29.8994 75.6807 30.6033 76.3228 30.7306C76.9051 30.5789 77.39 30.1746 77.9797 30.0435C78.6482 29.8845 79.3951 30.448 79.3671 31.1481C79.4364 31.8352 78.7194 32.2079 78.6295 32.8519C78.2925 32.6254 77.39 32.5224 77.7346 31.9625C78.3262 32.4981 79.1801 31.5488 78.7175 30.9909C78.1092 30.6969 77.5699 31.3262 77.0044 31.4869C76.366 31.8296 75.4373 31.3354 75.426 30.5995C75.3437 29.9797 75.9166 29.5566 75.9933 28.9688C76.3563 29.083 76.6915 29.2666 77.0154 29.4632Z" fill="#5F5F5F"/>
<path d="M74.844 47.8679C74.7728 47.5796 74.7036 47.2912 74.6344 47.0028C74.1794 47.1076 73.7113 47.1809 73.2769 47.3606C73.2714 47.4917 73.2583 47.7519 73.2507 47.883C73.1871 47.8491 73.0597 47.7797 72.9961 47.7463C72.807 47.2183 72.719 46.6624 72.5898 46.1192C72.8407 46.1156 72.9943 46.2426 73.0504 46.4991C74.0915 46.2691 75.1193 45.9917 76.1547 45.7465C76.1697 45.5218 76.1584 45.2728 76.3794 45.1416C76.5553 45.7351 76.765 46.3303 76.8062 46.9539L76.6003 46.9145C76.2971 46.2706 75.5687 46.8791 75.0707 46.8883C75.1362 47.1803 75.2036 47.4724 75.2728 47.7644L74.844 47.8679Z" fill="#5F5F5F"/>
<path d="M77.8882 51.7489C77.6373 50.9776 76.5963 51.0149 75.9841 51.2845C75.3831 51.5561 74.7502 52.1233 74.8119 52.8404C75.5872 54.1621 77.9369 53.1586 77.8882 51.7489ZM76.1227 54.2593C74.9937 54.2351 74.1044 53.0593 74.344 51.9675C74.4657 51.1927 75.0985 50.5709 75.8363 50.3591C76.9859 49.9567 78.4163 50.8797 78.3695 52.1361C78.5191 53.357 77.306 54.4112 76.1227 54.2593Z" fill="#5F5F5F"/>
<path d="M74.2371 33.7395C75.0477 33.9924 75.8865 34.1701 76.671 34.4997C78.036 35.185 77.2571 37.7913 75.7068 37.516C74.913 37.3605 74.1566 37.0572 73.3739 36.8551C73.2166 37.0086 73.0574 37.1602 72.8945 37.3099C72.9824 36.6603 73.0219 35.8515 73.5685 35.4153C73.5648 35.5651 73.5554 35.8608 73.5517 36.0088C74.4634 36.2896 75.3697 36.5911 76.3057 36.7782C76.8824 36.4187 77.1951 35.4732 76.5566 35.0201C75.8077 34.5745 74.9034 34.4939 74.1001 34.1737C74.0515 34.3029 73.9541 34.5613 73.9055 34.6924C73.4842 34.6063 73.7332 34.1944 73.7688 33.9397C73.8756 33.6327 73.8999 33.2227 74.2857 33.1328C74.2746 33.2847 74.2484 33.588 74.2371 33.7395Z" fill="#5F5F5F"/>
</g>
<defs>
<clipPath id="clip0">
<rect width="59" height="59" fill="white" transform="translate(69 13)"/>
</clipPath>
</defs>
</svg>
