<svg width="285" height="86" viewBox="0 0 285 86" fill="none" xmlns="http://www.w3.org/2000/svg">
<path d="M114.467 24L114.655 52.4615H118.924V24H114.467ZM167.308 24V52.4729H172.446C172.446 52.4729 172.488 42.1983 172.545 42.2097C172.602 42.2097 180.204 52.8628 180.273 52.8258C180.35 52.8059 184.829 51.195 184.829 51.1495C184.829 51.1153 177.193 41.3558 177.193 41.3445C177.193 41.3217 183.597 34.1949 183.54 34.138C183.364 33.9729 179.894 32.473 179.795 32.5271C179.749 32.5612 172.446 40.4878 172.446 40.4878V24H167.308ZM82.2027 32.6808C80.3555 33.0707 78.6222 34.2518 77.9107 35.618C77.5879 36.2779 77.422 37.0036 77.426 37.7382C77.4299 38.4728 77.6036 39.1966 77.9335 39.8531C78.3889 40.7325 79.7123 41.9564 81.7672 43.3994C83.9929 44.979 84.8354 45.7674 85.0489 46.5131C85.3705 47.6145 84.8809 48.6477 83.8136 49.16C83.2814 49.4162 83.0452 49.4475 82.1002 49.4048C80.8679 49.3478 80.0225 49.0348 78.7674 48.1354C78.3661 47.8593 77.9989 47.6572 77.9534 47.7028C77.9107 47.7483 77.5094 48.3488 77.0654 49.0376L76.2656 50.27L76.5645 50.5034C76.7438 50.6258 77.276 50.9502 77.7655 51.2263C81.1468 53.1048 86.1475 52.8059 88.6834 50.5717C89.3462 50.0035 89.8519 49.2745 90.1519 48.4546C90.452 47.6348 90.5363 46.7516 90.3968 45.8898C90.152 44.2333 89.2384 43.1461 86.3695 41.0655C84.1153 39.4318 83.048 38.5325 82.8032 38.0543C82.3251 37.1179 82.6581 36.2185 83.6685 35.6948C84.1808 35.4302 84.3914 35.4074 85.4046 35.4501C86.3922 35.4842 86.6939 35.5639 87.5165 35.951L88.4728 36.4178L89.2156 35.2508C89.6283 34.6076 89.9272 34.0384 89.8959 33.9843C89.7621 33.7851 88.1939 33.1276 87.2148 32.8743C85.9141 32.5271 83.4009 32.4275 82.2027 32.6836V32.6808ZM104.781 35.1968C107.03 36.2498 108.228 39.5514 107.741 43.3112C107.57 44.646 107.095 46.2569 106.651 47.0026C106.204 47.7711 105.339 48.605 104.647 48.9266C103.381 49.5243 101.502 49.2938 100.313 48.3915C98.6677 47.1364 97.7655 44.0568 98.1099 40.8549C98.4343 37.9205 99.4902 36.062 101.335 35.2053C102.291 34.7613 103.839 34.7613 104.781 35.1968ZM102.735 31.9265C101.391 32.2282 100.324 32.8288 99.1686 33.9274L98.1212 34.9292V32.5385H93.3084V61H98.1212V49.3934L99.0462 50.2928C100.734 51.9492 102.715 52.6181 105.026 52.2936C106.537 52.083 107.605 51.6959 108.729 50.9388C111.888 48.827 113.633 44.6118 113.155 40.2088C112.699 36.0307 110.553 33.139 107.092 32.0404C106.204 31.7501 103.782 31.6932 102.738 31.9265H102.735ZM122.504 32.5385C122.504 32.5385 122.661 47.5804 122.76 48.0158C123.147 49.6723 124.26 51.2491 125.507 51.9293C126.651 52.5498 127.573 52.7405 129.298 52.7405C131.754 52.7291 133.243 52.1399 135.067 50.4607L136.001 49.6154V52.4615H140.959L140.893 32.5385H136.001C136.001 32.5385 136.066 44.9135 136.001 45.3462C135.71 47.0823 134.367 48.5054 132.998 48.9608C132.187 49.2368 130.764 49.4588 129.907 49.3251C129.03 49.1828 127.55 48.2151 127.462 46.7692V32.6039L122.504 32.5385ZM163.728 52.4615C163.728 52.4615 163.571 37.4196 163.472 36.9842C163.085 35.3277 161.972 33.7509 160.725 33.0707C159.581 32.4502 158.659 32.2595 156.934 32.2595C154.478 32.2709 152.989 32.8601 151.165 34.5393L150.231 35.3846V32.5385H145.273L145.339 52.4615H150.231C150.231 52.4615 150.166 40.0865 150.231 39.6538C150.522 37.9177 151.865 36.4946 153.234 36.0392C154.045 35.7632 155.113 35.5525 156.325 35.6749C157.535 35.8058 158.858 36.9073 158.77 38.2308V52.3961L163.728 52.4615Z" fill="#5F5F5F"/>
<path fill-rule="evenodd" clip-rule="evenodd" d="M190.078 31.1152V35.3845L207.155 41.0768L190.078 48.4825V52.4614L210.001 43.9229V38.2306L190.078 31.1152Z" fill="#5F5F5F"/>
</svg>
