<svg width="286" height="86" viewBox="0 0 286 86" fill="none" xmlns="http://www.w3.org/2000/svg">
<path d="M109 61.6799V48.5328H109.965C110.112 52.2839 110.772 55.2896 111.945 57.5623C113.13 59.8349 114.584 60.9712 116.307 60.9712C117.199 60.9712 117.932 60.6413 118.506 59.9693C119.068 59.2973 119.361 58.442 119.361 57.379C119.361 56.1571 118.995 54.7031 118.249 53.0414C117.504 51.3675 116.27 49.2293 114.523 46.6023C112.385 43.3766 110.992 40.8352 110.332 38.9657C109.684 37.0963 109.354 35.1658 109.354 33.1742C109.354 30.7183 109.855 28.7511 110.845 27.2482C111.835 25.7575 113.105 25 114.669 25C115.439 25 116.197 25.2199 116.918 25.6476C117.651 26.0752 118.298 26.6862 118.86 27.4559L119.923 25.0489H120.889V36.9497H119.923C119.655 33.5407 119.056 30.8649 118.103 28.9221C117.162 26.9916 116.013 26.0141 114.657 26.0141C113.777 26.0141 113.081 26.3318 112.568 26.955C112.055 27.5903 111.798 28.4456 111.798 29.5331C111.798 31.0726 112.959 33.4918 115.268 36.7786C116.136 38.0371 116.808 39.0146 117.272 39.7233C119.239 42.729 120.595 45.1972 121.328 47.1155C122.074 49.0338 122.44 50.9276 122.44 52.7848C122.44 55.5584 121.891 57.77 120.803 59.4439C119.703 61.1179 118.274 61.9487 116.49 61.9487C115.5 61.9487 114.584 61.7288 113.765 61.2767C112.934 60.8246 112.103 60.1159 111.273 59.1385L109.953 61.6921H109V61.6799Z" fill="#5F5F5F"/>
<path d="M126.765 56.4616C126.716 56.7548 126.691 57.0481 126.667 57.3169C126.655 57.5979 126.643 57.8667 126.643 58.16C126.643 58.9297 126.85 59.4796 127.253 59.7972C127.657 60.1149 128.365 60.2982 129.355 60.3226V61.3857H122.012V60.3226C123.49 60.0416 124.492 58.5021 125.03 55.7163C125.066 55.5452 125.079 55.423 125.103 55.3375L130.699 25.5488H134.976L141.024 60.3349H142.612V61.3979H133.057V60.3349H135.562L134.12 51.2932H127.632L126.765 56.4616ZM127.877 50.0347H133.876L130.931 32.0002L127.877 50.0347Z" fill="#5F5F5F"/>
<path d="M142.297 61.3979V60.3349C143.348 60.2249 144.069 59.8461 144.46 59.1985C144.851 58.551 145.034 57.2436 145.034 55.252V26.6241H142.725V25.561H149.64L158.401 47.2244V31.2182C158.401 29.6176 158.132 28.4446 157.607 27.7115C157.081 26.9784 156.226 26.6118 155.041 26.6118V25.5488H162.543V26.6118H162.409C161.419 26.6118 160.747 26.8806 160.38 27.406C160.014 27.9314 159.843 29.0433 159.843 30.7417V61.3979H158.78L146.549 31.7192V54.9709C146.549 56.877 146.83 58.2211 147.404 59.003C147.966 59.785 148.956 60.2249 150.373 60.3226V61.3857H142.297V61.3979Z" fill="#5F5F5F"/>
<path d="M164.266 61.6799V48.5328H165.231C165.378 52.2839 166.037 55.2896 167.21 57.5623C168.395 59.8349 169.849 60.9712 171.572 60.9712C172.464 60.9712 173.197 60.6413 173.772 59.9693C174.334 59.2973 174.627 58.442 174.627 57.379C174.627 56.1571 174.26 54.7031 173.515 53.0414C172.77 51.3675 171.536 49.2293 169.788 46.6023C167.65 43.3766 166.257 40.8352 165.597 38.9657C164.938 37.0963 164.62 35.1658 164.62 33.1742C164.62 30.7183 165.121 28.7511 166.111 27.2482C167.1 25.7575 168.371 25 169.935 25C170.705 25 171.462 25.2199 172.183 25.6476C172.916 26.0752 173.564 26.6862 174.126 27.4559L175.189 25.0489H176.154V36.9497H175.189C174.92 33.5407 174.321 30.8649 173.368 28.9221C172.428 26.9916 171.279 26.0141 169.923 26.0141C169.043 26.0141 168.347 26.3318 167.833 26.955C167.32 27.5903 167.064 28.4456 167.064 29.5331C167.064 31.0726 168.224 33.4918 170.534 36.7786C171.401 38.0371 172.073 39.0146 172.538 39.7233C174.505 42.729 175.861 45.1972 176.594 47.1155C177.339 49.0338 177.706 50.9276 177.706 52.7848C177.706 55.5584 177.156 57.77 176.069 59.4439C174.969 61.1179 173.539 61.9487 171.756 61.9487C170.766 61.9487 169.849 61.7288 169.031 61.2767C168.2 60.8246 167.369 60.1159 166.538 59.1385L165.219 61.6921H164.266V61.6799Z" fill="#5F5F5F"/>
<path d="M175.453 50.0361H126.836V51.2946H175.453V50.0361Z" fill="#5F5F5F"/>
</svg>
