<svg width="1400" height="787" viewBox="0 0 1400 787" fill="none" xmlns="http://www.w3.org/2000/svg">
<rect width="1400" height="786" fill="#0C0C0C"/>
<g opacity="0.06">
<path d="M971.088 -133.207C959.953 -85.499 945.957 -38.4608 929.199 7.57531C921.749 28.0393 913.481 48.7653 899.096 65.1158C862.324 106.911 797.974 108.216 743.05 99.1363C692.463 90.7728 642.878 76.3674 595.683 56.3242C548.915 36.4618 503.685 10.8343 453.574 2.41917C403.465 -5.99599 345.183 7.53286 318.182 50.5757C302.118 76.1847 299.56 108.6 305.836 138.173C312.113 167.746 326.5 194.96 342.468 220.628C360.753 250.019 381.984 279.774 384.729 314.278C387.569 349.997 367.832 386.529 336.399 403.73C291.682 428.201 236.935 412.852 186.788 403.704C123.08 392.082 54.7416 392.187 -3.46141 420.581C-61.6663 448.975 -106.658 510.68 -100.686 575.165" stroke="white" stroke-miterlimit="10"/>
<path d="M959.79 -142.855C948.941 -96.2159 935.177 -50.2628 918.629 -5.34691C911.274 14.6207 903.107 34.8207 889.09 50.8372C853.261 91.7689 790.998 94.0221 737.595 86.2307C724.915 84.3816 712.292 82.1413 699.75 79.5171C663.633 71.9582 628.184 61.2104 593.957 47.4361C548.261 29.0445 503.97 5.03734 455.006 -2.68948C406.048 -10.4181 350.816 3.69386 322.303 43.7083C311.575 58.7615 304.251 74.9847 301.15 92.496C299.032 104.425 298.576 116.806 299.818 129.117C300.381 134.747 301.278 140.379 302.499 146.028C307.403 168.613 317.84 190.732 329.264 211.74C330.397 213.824 331.539 215.902 332.687 217.972C350.552 250.227 369.418 283.205 370.45 319.272C371.443 354.012 353.11 389.337 322.494 406.291C278.935 430.416 225.805 416.598 177.283 408.888C173.458 408.28 169.617 407.716 165.764 407.201C107.524 399.413 46.6267 402.591 -5.33697 429.462C-60.7386 458.107 -103.058 518.471 -96.3554 581.129" stroke="#F9F9F9" stroke-miterlimit="10"/>
<path d="M948.489 -152.506C937.928 -106.933 924.393 -62.0687 908.057 -18.2693C900.796 1.20187 892.733 20.876 879.08 36.5585C844.198 76.6264 784.019 79.8283 732.138 73.325C719.818 71.7822 707.546 69.8593 695.344 67.5617C660.205 60.9458 625.653 51.2204 592.229 38.546C547.604 21.6234 504.255 -0.761662 456.433 -7.80013C408.627 -14.8423 356.119 -0.208029 326.417 36.839C314.438 51.7796 304.644 66.5153 299.425 83.5191C295.856 95.1029 293.852 107.419 293.793 120.057C293.756 125.84 294.109 131.711 294.873 137.688C297.966 161.564 308.339 185.721 319.546 208.54C320.659 210.802 321.775 213.059 322.897 215.312C340.344 250.433 356.892 286.487 356.163 324.261C355.513 357.944 338.382 392.141 308.584 408.85C266.182 432.628 214.668 420.34 167.77 414.067C164.074 413.573 160.363 413.122 156.643 412.718C100.405 406.619 42.117 411.229 -7.22063 438.342C-59.8209 467.239 -99.4682 526.262 -92.0311 587.091" stroke="#F4F4F4" stroke-miterlimit="10"/>
<path d="M937.189 -162.155C926.916 -117.651 913.614 -73.8717 897.486 -31.1906C890.319 -12.2177 882.358 6.93413 869.072 22.2807C835.133 61.4851 777.041 65.6373 726.681 60.4202C714.721 59.1856 702.799 57.5783 690.937 55.6074C656.774 49.9308 623.121 41.2296 590.497 29.6569C546.945 14.2051 504.535 -6.55965 457.859 -12.9098C411.204 -19.2654 361.108 -4.20304 330.531 29.9688C317.22 44.8467 305.039 58.0452 297.701 74.5415C292.684 85.7801 289.127 98.0301 287.769 110.998C287.134 116.937 286.941 123.043 287.249 129.347C288.531 154.515 298.838 180.707 309.831 205.336C310.922 207.776 312.016 210.214 313.109 212.65C330.138 250.634 344.428 289.649 341.877 329.25C339.779 361.82 323.655 394.943 294.673 411.406C253.429 434.84 203.531 424.079 158.259 419.244C154.69 418.864 151.109 418.524 147.522 418.233C93.2848 413.822 37.6081 419.866 -9.10155 447.219C-58.9005 476.367 -95.8755 534.046 -87.7058 593.05" stroke="#EEEEEE" stroke-miterlimit="10"/>
<path d="M925.902 -171.806C915.914 -128.37 902.845 -85.6776 886.93 -44.1148C879.854 -25.6384 871.996 -7.01244 859.078 8.00014C826.084 46.3408 770.077 51.4397 721.24 47.5126C709.639 46.5844 698.068 45.2963 686.545 43.6501C653.361 38.9166 620.605 31.2378 588.784 20.765C546.302 6.78215 504.835 -12.3605 459.301 -18.0223C413.8 -23.6914 365.83 -8.32269 334.662 23.0976C319.94 37.9404 305.449 49.574 295.993 65.5628C289.525 76.4564 284.421 88.6418 281.761 101.938C280.527 108.03 279.789 114.374 279.643 121.007C279.115 147.467 289.355 175.696 300.133 202.136C301.201 204.754 302.271 207.371 303.338 209.99C319.949 250.84 332.057 292.719 327.609 334.239C324.245 365.659 308.945 397.748 280.781 413.965C240.695 437.053 192.413 427.821 148.765 424.423C145.323 424.156 141.874 423.931 138.418 423.75C86.1808 421.028 33.1136 428.504 -10.9682 456.096C-57.9658 485.498 -92.2686 541.833 -83.3663 599.01" stroke="#E9E9E9" stroke-miterlimit="10"/>
<path d="M914.607 -181.454C904.907 -139.085 892.069 -97.4815 876.364 -57.0352C869.383 -39.0552 861.627 -20.9552 849.078 -6.27848C817.026 31.1985 763.106 37.2478 715.79 34.607C704.549 33.9851 693.329 33.0144 682.146 31.695C649.939 27.9026 618.08 21.2461 587.062 11.8769C545.652 -0.635141 505.125 -18.1575 460.736 -23.1309C416.387 -28.1136 370.295 -12.5732 338.785 16.2302C322.575 31.0472 305.851 41.1085 294.277 56.588C286.358 67.1365 279.705 79.2554 275.745 92.8802C273.911 99.127 272.628 105.708 272.024 112.667C269.686 140.418 279.86 170.685 290.423 198.935C291.472 201.731 292.516 204.529 293.555 207.33C309.747 251.045 319.758 295.719 313.331 339.229C308.861 369.479 294.225 400.552 266.878 416.523C227.95 439.264 181.283 431.563 139.261 429.601C135.948 429.448 132.628 429.334 129.304 429.265C79.07 428.232 28.6122 437.142 -12.8417 464.974C-57.0379 494.629 -88.6686 549.621 -79.0336 604.971" stroke="#E3E3E3" stroke-miterlimit="10"/>
<path d="M903.303 -191.105C893.889 -149.805 881.283 -109.286 865.789 -69.9604C858.902 -52.4786 851.247 -34.9027 839.065 -20.56C807.958 16.0533 756.124 23.0512 710.33 21.6985C699.449 21.3829 688.579 20.7296 677.737 19.7368C646.509 16.8856 615.548 11.2515 585.331 2.98397C544.994 -8.05724 505.407 -23.9593 462.162 -28.2444C418.964 -32.5406 374.539 -16.9688 342.899 9.35624C325.131 24.14 306.247 32.6345 292.552 47.6065C283.183 57.8117 274.98 69.8642 269.722 83.8175C267.29 90.2175 265.461 97.0345 264.403 104.324C260.255 133.365 270.362 165.672 280.712 195.732C281.738 198.705 282.758 201.685 283.771 204.666C299.546 251.246 307.559 298.668 299.05 344.213C293.619 373.284 279.503 403.35 252.973 419.077C215.202 441.473 170.154 435.3 129.754 434.776C126.568 434.735 123.379 434.735 120.189 434.778C71.9546 435.433 24.1082 445.775 -14.7197 473.849C-56.1145 503.754 -85.073 557.405 -74.7035 610.928" stroke="#DEDEDE" stroke-miterlimit="10"/>
<path d="M892.003 -200.755C882.877 -160.521 870.502 -121.091 855.218 -82.8817C848.423 -65.8964 840.873 -48.8446 829.057 -34.8378C798.894 0.911911 749.144 8.85835 704.873 8.79376C694.354 8.78637 683.831 8.44865 673.331 7.78245C643.08 5.87243 613.016 1.26255 583.602 -5.90511C544.337 -15.4774 505.69 -29.7573 463.59 -33.354C421.544 -36.9637 373.85 -26.7234 347.016 2.48792C325.316 13.5384 306.643 24.1662 290.83 38.6307C280.01 48.4908 270.259 60.4769 263.7 74.7587C260.668 81.3118 258.295 88.3669 256.782 95.9848C250.823 126.318 260.866 160.662 270.997 192.53C272.001 195.682 272.999 198.842 273.985 202.007C289.341 251.451 295.466 301.595 284.766 349.206C278.497 377.099 264.776 406.157 239.064 421.637C202.452 443.688 159.018 439.043 120.244 439.958C117.186 440.03 114.128 440.143 111.07 440.298C64.8386 442.642 19.5997 454.417 -16.5984 482.732C-55.1919 512.89 -81.4782 565.197 -70.3761 616.893" stroke="#D8D8D8" stroke-miterlimit="10"/>
<path d="M880.705 -210.404C871.868 -171.239 859.723 -132.896 844.649 -95.8049C837.949 -79.316 830.501 -62.7902 819.052 -49.1174C789.833 -14.2314 742.171 -5.33638 699.42 -4.11286C689.261 -3.8139 679.089 -3.83419 668.928 -4.17375C639.655 -5.1426 610.488 -8.73013 581.877 -14.7961C543.684 -22.8975 505.978 -35.5571 465.02 -38.4655C424.128 -41.3887 377.946 -31.6172 351.133 -4.3823C327.698 6.07022 307.041 15.696 289.109 29.653C276.838 39.168 265.539 51.0895 257.679 65.6998C254.047 72.4079 251.13 79.6992 249.159 87.6438C241.389 119.269 251.366 155.65 261.283 189.329C262.267 192.658 263.239 195.998 264.197 199.344C279.136 251.655 283.489 304.515 270.481 354.192C263.483 380.92 250.05 408.957 225.155 424.193C189.701 445.901 147.883 442.786 110.735 445.139C107.806 445.325 104.877 445.55 101.951 445.816C57.7193 449.848 15.0917 463.056 -18.4804 491.612C-54.2725 522.021 -77.8848 572.986 -66.0519 622.856" stroke="#D2D2D2" stroke-miterlimit="10"/>
<path d="M869.416 -220.055C860.864 -181.956 848.952 -144.7 834.089 -108.727C827.482 -92.7366 820.135 -76.7349 809.053 -63.3961C780.78 -29.3737 735.201 -19.5302 693.972 -17.0167C684.173 -16.4114 674.352 -16.1143 664.53 -16.1273C636.236 -16.1549 607.966 -18.7182 580.157 -23.6843C543.035 -30.3149 506.27 -41.3561 466.458 -43.5743C426.717 -45.811 382.048 -36.51 355.26 -11.2498C330.09 -1.39517 307.447 7.22851 287.396 20.678C273.677 29.848 260.826 41.703 251.667 56.6418C247.435 63.5031 243.973 71.0324 241.548 79.3055C231.969 112.222 241.879 150.641 251.582 186.13C252.544 189.638 253.492 193.157 254.424 196.686C268.944 251.861 271.657 307.452 256.21 359.183C248.574 384.757 235.337 411.763 211.259 426.752C176.962 448.111 136.761 446.526 101.237 450.314C98.4353 450.613 95.6358 450.951 92.8437 451.328C50.6147 457.048 10.5947 471.69 -20.3477 500.484C-53.3384 531.146 -74.2785 580.77 -61.7111 628.81" stroke="#CDCDCD" stroke-miterlimit="10"/>
<path d="M858.106 -229.704C849.842 -192.674 838.16 -156.505 823.508 -121.65C816.993 -106.156 809.75 -90.6805 799.035 -77.6757C771.704 -44.5152 728.213 -33.7231 688.507 -29.9234C679.068 -29.0117 669.597 -28.3972 660.115 -28.0835C632.799 -27.17 605.427 -28.7109 578.42 -32.5734C542.369 -37.7351 506.544 -47.1541 467.876 -48.6858C429.287 -50.236 386.131 -41.4038 359.367 -18.1218C332.463 -8.86515 307.833 -1.24166 285.664 11.6985C270.495 20.5252 256.095 32.3138 245.635 47.581C240.806 54.5974 236.797 62.3629 233.917 70.9626C222.527 105.17 232.37 145.627 241.857 182.927C242.797 186.612 243.721 190.314 244.626 194.023C258.726 252.064 259.939 310.418 241.915 364.172C233.719 388.613 220.6 414.567 197.338 429.31C164.2 450.324 125.614 450.267 91.7151 455.493C89.041 455.906 86.3725 456.355 83.7133 456.844C43.4847 464.253 6.07601 480.327 -22.2403 509.363C-52.4297 540.276 -70.6976 588.558 -57.3976 634.771" stroke="#C7C7C7" stroke-miterlimit="10"/>
<path d="M846.815 -239.354C838.837 -203.393 827.388 -168.311 812.946 -134.573C806.525 -119.575 799.384 -104.625 789.036 -91.9544C762.65 -59.6594 721.244 -47.9188 683.059 -42.8291C673.979 -41.6092 664.859 -40.6791 655.719 -40.0388C629.381 -38.1841 602.906 -38.7027 576.699 -41.4634C541.721 -45.1543 506.837 -52.9531 469.314 -53.7946C431.875 -54.6583 390.233 -46.2966 363.491 -24.9893C334.852 -16.3305 308.239 -9.70912 283.949 2.72355C267.329 11.2051 251.381 22.9273 239.62 38.5231C234.191 45.6926 229.638 53.6962 226.302 62.6244C213.101 98.1231 222.88 140.618 232.152 179.726C233.069 183.591 233.971 187.471 234.848 191.363C248.532 252.268 248.392 313.441 227.64 369.161C218.951 392.491 205.884 417.37 183.44 431.867C151.459 452.534 114.489 454.007 82.2143 460.671C79.6694 461.197 77.1301 461.76 74.6037 462.359C36.3775 471.457 1.57818 488.965 -24.1102 518.241C-51.4982 549.406 -67.094 596.345 -53.0613 640.731" stroke="#C2C2C2" stroke-miterlimit="10"/>
<path d="M835.515 -249.004C827.825 -214.109 816.607 -180.114 802.375 -147.494C796.049 -132.993 789.008 -118.567 779.028 -106.232C753.587 -74.8008 714.266 -62.1116 677.603 -55.7338C668.884 -54.2077 660.114 -52.9602 651.313 -51.9931C625.953 -49.1973 600.376 -48.6917 574.972 -50.3526C541.065 -52.5745 507.121 -58.7511 470.742 -58.9061C434.457 -59.0814 394.326 -51.1904 367.608 -31.8595C337.234 -23.7968 308.635 -18.1793 282.229 -6.25415C264.159 1.88235 246.66 13.5399 233.6 29.466C227.571 36.7905 222.474 45.0285 218.682 54.287C203.671 91.0775 213.383 135.608 222.441 176.528C223.338 180.57 224.214 184.632 225.065 188.706C238.33 252.475 237.001 316.539 213.359 374.154C204.232 396.398 191.161 420.177 169.534 434.429C138.712 454.751 103.357 457.753 72.7081 465.853C70.2906 466.493 67.8823 467.167 65.4869 467.879C29.2611 478.666 -2.92874 497.606 -25.9892 527.123C-50.5759 558.542 -63.4995 604.137 -48.7323 646.696" stroke="#BCBCBC" stroke-miterlimit="10"/>
<path d="M824.215 -258.652C816.811 -224.826 805.826 -191.918 791.804 -160.416C785.57 -146.413 778.635 -132.512 769.02 -120.511C744.524 -89.9431 707.289 -76.3054 672.148 -68.6394C663.788 -66.8069 655.37 -65.242 646.908 -63.9484C622.526 -60.2114 597.846 -58.6834 573.244 -59.2425C540.408 -59.9936 507.407 -64.55 472.172 -64.0166C437.039 -63.5055 401.023 -51.2001 371.727 -38.7306C341.394 -25.8162 309.032 -26.6467 280.507 -15.229C260.986 -7.43759 241.94 4.15354 227.578 20.4081C220.95 27.8858 215.308 36.3618 211.06 45.947C194.239 84.0293 203.885 130.597 212.726 173.328C213.601 177.548 214.454 181.789 215.277 186.047C228.125 252.681 225.775 319.731 199.076 379.143C189.552 400.334 176.436 422.981 155.627 436.986C125.962 456.963 92.2254 461.494 63.1986 471.033C60.9084 471.786 58.6312 472.574 56.3687 473.397C22.1433 485.872 -7.43526 506.245 -27.8679 536.001C-49.6532 567.67 -59.9045 611.924 -44.4048 652.656" stroke="#B7B7B7" stroke-miterlimit="10"/>
<path d="M812.922 -268.303C805.806 -235.543 795.051 -203.724 781.24 -173.339C775.1 -159.832 768.267 -146.456 759.019 -134.79C735.466 -105.085 700.318 -90.4992 666.698 -81.5452C658.698 -79.4045 650.628 -77.5221 642.508 -75.9037C619.104 -71.2255 595.322 -68.6733 571.522 -68.1307C539.758 -67.4129 507.696 -70.3471 473.605 -69.1254C439.623 -67.9278 404.645 -56.4898 375.847 -45.598C343.548 -33.3813 309.435 -35.116 278.792 -24.2058C257.822 -16.7595 237.226 -5.23292 221.563 11.3483C214.337 18.9791 208.149 27.6932 203.445 37.6069C184.813 76.981 194.393 125.586 203.021 170.125C203.873 174.523 204.702 178.945 205.499 183.385C217.928 252.884 214.741 323.036 184.801 384.133C174.916 404.301 161.72 425.784 141.726 439.545C113.218 459.175 81.0985 465.236 53.6975 476.212C51.5365 477.08 49.3884 477.978 47.2588 478.914C15.0357 493.078 -11.9334 514.883 -29.7399 544.881C-48.7239 576.803 -56.3031 619.713 -40.0706 658.618" stroke="#B1B1B1" stroke-miterlimit="10"/>
<path d="M801.623 -277.952C794.795 -246.261 784.271 -215.527 770.67 -186.262C764.624 -173.252 757.892 -160.402 749.012 -149.069C726.403 -120.229 693.341 -104.694 661.243 -94.4518C653.603 -92.0047 645.884 -89.805 638.103 -87.8599C615.678 -82.2406 592.792 -78.666 569.795 -77.0217C539.103 -74.833 507.982 -76.147 475.035 -74.2369C442.205 -72.3528 408.279 -61.8578 379.966 -52.4682C345.676 -41.0948 309.834 -43.5862 277.071 -33.1835C254.65 -26.0804 232.503 -14.6203 215.542 2.28938C207.716 10.0753 200.984 19.0256 195.824 29.2677C175.382 69.9318 184.895 120.576 193.308 166.926C194.141 171.502 194.945 176.105 195.713 180.726C207.723 253.091 203.888 326.484 170.517 389.123C160.299 408.303 146.994 428.589 127.818 442.103C100.468 461.388 69.9635 468.977 44.1865 481.391C42.1528 482.371 40.1358 483.384 38.139 484.43C7.91641 500.283 -16.4433 523.522 -31.6201 553.759C-47.8027 585.933 -52.7097 627.501 -35.7428 664.579" stroke="#ABABAB" stroke-miterlimit="10"/>
<path d="M790.328 -287.602C783.786 -256.977 773.494 -227.332 760.103 -199.183C754.152 -186.671 747.521 -174.344 739.008 -163.347C717.345 -135.37 686.367 -118.887 655.79 -107.357C648.51 -104.603 641.141 -102.086 633.702 -99.8143C612.255 -93.2538 590.266 -88.6568 568.071 -85.9108C538.452 -82.2513 508.27 -81.945 476.468 -79.3466C444.789 -76.7759 411.948 -67.2922 384.088 -59.3384C347.795 -48.9764 310.233 -52.0564 275.353 -42.1612C251.482 -35.4014 227.787 -24.0077 209.525 -6.7695C201.098 1.16954 193.822 10.3579 188.206 20.9267C165.954 62.8844 175.401 115.564 183.598 163.724C184.408 168.478 185.189 173.261 185.931 178.065C197.524 253.294 193.235 330.094 156.238 394.112C145.704 412.341 132.273 431.393 113.915 444.661C87.7225 463.601 58.8341 472.719 34.683 486.569C32.7785 487.664 30.8906 488.788 29.0249 489.946C0.804546 507.487 -20.9457 532.159 -33.4965 562.638C-46.8777 595.064 -49.1107 635.289 -31.413 670.54" stroke="#A6A6A6" stroke-miterlimit="10"/>
<path d="M779.031 -297.252C772.777 -267.696 762.716 -239.136 749.535 -212.107C743.676 -200.092 737.149 -188.29 729.005 -177.627C708.285 -150.516 679.394 -133.082 650.34 -120.264C643.42 -117.204 636.401 -114.37 629.302 -111.771C608.832 -104.268 587.741 -98.6486 566.349 -94.8027C537.802 -89.6742 508.561 -87.7458 477.903 -84.4591C447.378 -81.2019 415.662 -72.7904 388.209 -66.2096C349.917 -57.0304 310.637 -60.5257 273.636 -51.1398C248.315 -44.7269 223.071 -33.3997 203.508 -15.8312C194.484 -7.73897 186.661 1.68564 180.589 12.5847C156.527 55.8324 165.909 110.551 173.89 160.522C174.678 165.455 175.435 170.417 176.149 175.403C187.323 253.498 182.782 333.891 141.959 399.101C131.119 416.417 117.551 434.196 100.01 447.219C74.9771 465.811 47.7035 476.46 25.1764 491.747C23.3992 492.954 21.6424 494.192 19.9095 495.462C-6.31038 514.691 -25.4493 540.795 -35.3722 571.514C-45.9521 604.191 -45.5128 643.074 -27.0825 676.499" stroke="#A0A0A0" stroke-miterlimit="10"/>
<path d="M767.729 -306.901C761.761 -278.412 751.932 -250.941 738.962 -225.029C733.197 -213.51 726.773 -202.234 718.995 -191.905C699.219 -165.656 672.414 -147.275 644.88 -133.169C638.32 -129.801 631.652 -126.651 624.892 -123.724C605.401 -115.281 585.207 -108.638 564.617 -103.69C537.14 -97.0907 508.841 -93.5419 479.327 -89.5669C449.953 -85.6232 419.426 -78.3374 392.322 -73.0761C352.046 -65.257 311.029 -68.9922 271.91 -60.1138C245.138 -54.046 218.344 -42.7834 197.482 -24.8882C187.858 -16.641 179.491 -6.97831 172.963 4.24744C147.09 48.7869 156.406 105.543 164.173 157.322C164.941 162.432 165.674 167.575 166.36 172.744C177.115 253.703 172.52 337.905 127.673 404.091C116.53 420.536 102.824 437.001 86.1006 449.779C62.2245 468.026 36.5674 480.202 15.6661 496.928C14.0163 498.249 12.3905 499.598 10.7905 500.98C-13.4271 521.898 -29.9585 549.436 -37.2535 580.394C-45.032 613.324 -41.9206 650.864 -22.7558 682.462" stroke="#9B9B9B" stroke-miterlimit="10"/>
<path d="M756.428 -316.551C750.748 -289.13 741.15 -262.745 728.391 -237.952C722.72 -226.931 716.397 -216.18 708.986 -206.187C690.155 -180.803 665.436 -161.472 639.424 -146.077C633.226 -142.403 626.907 -138.935 620.487 -135.684C601.973 -126.298 582.678 -118.632 562.889 -112.583C536.485 -104.515 509.126 -99.3436 480.756 -94.6802C452.534 -90.05 423.264 -83.9361 396.44 -79.9482C354.209 -73.67 311.427 -77.4642 270.189 -69.0933C241.965 -63.367 213.623 -52.1707 191.459 -33.9471C181.235 -25.5449 172.324 -15.6478 165.341 -4.09357C137.657 41.7377 146.907 100.531 154.46 154.121C155.206 159.41 155.914 164.732 156.575 170.084C166.913 253.909 162.46 342.152 113.392 409.08C101.943 424.696 88.1021 439.804 72.1945 452.335C49.4773 470.237 25.435 483.942 6.15947 502.106C4.63883 503.54 3.14219 505.004 1.67507 506.496C-20.5421 529.105 -34.4621 558.074 -39.1292 589.273C-44.1064 622.456 -38.3228 658.652 -18.4254 688.423" stroke="#959595" stroke-miterlimit="10"/>
<path d="M745.136 -326.202C739.742 -299.849 730.377 -274.55 717.828 -250.875C712.249 -240.351 706.03 -230.125 698.986 -220.466C681.1 -195.946 658.466 -175.667 633.975 -158.984C628.136 -155.003 622.168 -151.218 616.087 -147.64C598.55 -137.313 580.153 -128.625 561.165 -121.474C535.833 -111.935 509.414 -105.144 482.188 -99.7918C455.118 -94.4752 427.182 -89.5718 400.559 -86.8203C356.42 -82.2584 311.826 -85.9364 268.469 -78.073C238.798 -72.6935 208.906 -61.5638 185.441 -43.0098C174.618 -34.4544 165.162 -24.3193 157.723 -12.4365C128.231 34.6847 137.414 95.5156 144.75 150.917C145.473 156.383 146.158 161.888 146.791 167.421C156.71 254.11 152.585 346.657 99.1103 414.066C87.3456 428.898 73.3776 442.604 58.2875 454.891C36.7273 472.447 14.3035 487.682 -3.34988 507.283C-4.74318 508.831 -6.1088 510.405 -7.44489 512.011C-27.6597 536.306 -38.9704 566.709 -41.0114 598.15C-43.1872 631.584 -34.7314 666.438 -14.1014 694.382" stroke="#909090" stroke-miterlimit="10"/>
<path d="M733.829 -335.851C719.321 -263.999 672.279 -200.832 611.677 -159.592C551.075 -118.352 477.85 -97.9543 404.673 -93.6858C358.685 -91.0026 312.219 -94.4018 266.744 -87.046C221.267 -79.6882 175.111 -59.4586 150.098 -20.7729C118.794 27.6402 127.912 90.5084 135.033 147.72C146.745 241.802 146.58 347.127 84.8248 419.061C54.0652 454.892 10.5407 478.861 -16.5631 517.532C-54.1435 571.145 -51.2277 649.668 -9.77379 700.348" stroke="#8A8A8A" stroke-miterlimit="10"/>
<path d="M349.594 896.672C378.287 856.963 409.362 818.977 442.594 782.984C457.367 766.982 472.998 751.058 492.581 741.53C542.641 717.176 602.503 740.819 649.661 770.403C693.095 797.651 733.272 830.087 769.066 866.798C804.537 903.179 836.363 944.284 879.338 971.395C922.31 998.506 981.298 1008.53 1022.82 979.253C1047.53 961.832 1062.41 932.919 1068.04 903.217C1073.66 873.515 1070.9 842.855 1066.08 813.011C1060.57 778.841 1052.47 743.194 1063.26 710.307C1074.43 676.263 1106.75 650.185 1142.39 646.455C1193.08 641.15 1237.66 676.447 1280.38 704.248C1334.66 739.57 1397.74 765.86 1462.39 762.143C1527.05 758.427 1592.38 718.879 1611.77 657.09" stroke="white" stroke-miterlimit="10"/>
<path d="M356.289 909.937C384.46 870.876 415.132 833.637 448.009 798.495C462.623 782.873 478.08 767.364 497.324 757.989C535.98 739.159 580.49 748.729 620.387 767.266C631.26 772.312 641.792 778.02 651.77 784.001C694.687 809.746 734.528 840.652 770.175 875.816C805.494 910.662 837.19 950.409 879.716 976.52C903.557 991.158 931.807 1001.18 959.632 1002.99C983.868 1004.54 1007.91 999.719 1028.01 985.972C1031.61 983.518 1035 980.825 1038.21 977.919C1057.93 960.005 1069.92 934.246 1075.16 907.864C1076.84 899.39 1077.89 890.84 1078.46 882.272C1079.93 859.89 1078.2 837.238 1075.63 815.109C1071.6 780 1066.22 744.038 1078.36 711.221C1090.43 678.627 1121.41 653.285 1156.2 649.467C1205.7 644.034 1249.37 677.296 1291.15 703.145C1294.45 705.182 1297.77 707.185 1301.13 709.148C1351.84 738.821 1409.24 759.403 1467.55 754.682C1529.72 749.652 1592.07 710.311 1610.08 649.925" stroke="#F9F9F9" stroke-miterlimit="10"/>
<path d="M362.992 923.201C390.639 884.789 420.909 848.295 453.431 814.005C467.885 798.766 483.17 783.672 502.079 774.449C540.043 755.928 583.661 764.561 622.923 781.893C633.636 786.608 644.025 791.967 653.891 797.598C696.292 821.839 735.795 851.218 771.297 884.833C806.468 918.143 838.052 956.497 880.108 981.641C904.857 996.437 933.845 1006.89 962.517 1009.14C987.436 1011.08 1012.37 1006.53 1033.22 992.689C1036.95 990.214 1040.49 987.485 1043.82 984.521C1064.37 966.264 1076.65 939.716 1082.29 912.509C1084.1 903.784 1085.29 894.981 1086.01 886.178C1087.89 863.181 1086.85 839.882 1085.19 817.207C1082.64 781.157 1079.93 744.929 1093.47 712.136C1106.34 681 1136.09 656.387 1170.02 652.48C1218.32 646.918 1261.09 678.147 1301.93 702.041C1305.15 703.925 1308.4 705.773 1311.67 707.583C1361.2 734.925 1416.74 753.178 1472.72 747.219C1532.4 740.875 1591.76 701.74 1608.39 642.755" stroke="#F4F4F4" stroke-miterlimit="10"/>
<path d="M369.68 936.463C396.802 898.698 426.672 862.952 458.84 829.513C473.133 814.653 488.247 799.975 506.815 790.905C544.089 772.696 586.813 780.389 625.443 796.518C635.996 800.903 646.241 805.912 655.995 811.193C697.878 833.931 737.046 861.784 772.401 893.848C807.419 925.623 838.921 962.555 880.48 986.76C906.146 1001.71 935.863 1012.59 965.385 1015.29C990.984 1017.61 1016.81 1013.35 1038.4 999.403C1042.28 996.908 1045.95 994.142 1049.42 991.123C1070.8 972.523 1083.36 945.184 1089.41 917.15C1091.34 908.176 1092.66 899.121 1093.54 890.082C1095.84 866.467 1095.47 842.525 1094.73 819.302C1093.66 782.312 1093.56 745.858 1108.57 713.046C1122.14 683.364 1150.74 659.484 1183.83 655.487C1230.93 649.797 1272.8 678.99 1312.69 700.932C1315.84 702.662 1319.01 704.356 1322.21 706.011C1370.54 731.022 1424.23 746.946 1477.88 739.751C1535.07 732.092 1591.45 693.163 1606.7 635.582" stroke="#EEEEEE" stroke-miterlimit="10"/>
<path d="M376.375 949.726C402.975 912.609 432.441 877.609 464.254 845.024C478.387 830.545 493.331 816.283 511.562 807.362C548.144 789.465 589.976 796.22 627.972 811.144C638.361 815.198 648.467 819.858 658.108 824.787C699.475 846.022 738.305 872.346 773.513 902.862C808.381 933.099 839.818 968.583 880.864 991.878C907.455 1006.97 937.893 1018.3 968.262 1021.44C994.542 1024.14 1021.26 1020.16 1043.6 1006.12C1047.61 1003.6 1051.42 1000.8 1055.03 997.722C1077.23 978.777 1090.09 950.651 1096.54 921.79C1098.6 912.565 1100.05 903.257 1101.08 893.981C1103.79 869.751 1104.11 845.162 1104.28 821.391C1104.69 783.462 1107.15 746.812 1123.67 713.952C1137.85 685.717 1165.41 662.575 1197.65 658.492C1243.54 652.673 1284.51 679.832 1323.46 699.822C1326.54 701.398 1329.63 702.937 1332.75 704.439C1379.88 727.119 1431.72 740.715 1483.04 732.283C1537.74 723.309 1591.14 684.588 1605.01 628.409" stroke="#E9E9E9" stroke-miterlimit="10"/>
<path d="M383.074 962.993C409.15 926.521 438.216 892.27 469.673 860.536C483.646 846.437 498.417 832.591 516.309 823.823C552.2 806.238 593.138 812.053 630.502 825.772C640.731 829.496 650.695 833.805 660.221 838.385C701.073 858.117 739.565 882.914 774.627 911.88C809.343 940.582 840.733 974.589 881.246 997C908.769 1012.23 939.922 1024 971.137 1027.6C998.101 1030.67 1025.71 1026.97 1048.79 1012.83C1052.95 1010.3 1056.9 1007.46 1060.63 1004.33C1083.65 985.038 1096.81 956.122 1103.66 926.435C1105.85 916.96 1107.43 907.397 1108.63 897.888C1111.74 873.039 1112.7 847.804 1113.83 823.489C1115.64 784.615 1120.69 747.793 1138.77 714.865C1153.49 688.062 1180.07 665.675 1211.47 661.503C1256.16 655.557 1296.23 680.68 1334.23 698.716C1337.23 700.137 1340.25 701.523 1343.29 702.87C1389.23 723.219 1439.21 734.486 1488.2 724.818C1540.42 714.529 1590.83 676.015 1603.31 621.237" stroke="#E3E3E3" stroke-miterlimit="10"/>
<path d="M389.766 976.257C415.317 940.433 443.983 906.927 475.084 876.046C488.897 862.327 503.496 848.896 521.051 840.282C556.253 823.006 596.297 827.884 633.027 840.4C643.093 843.793 652.915 847.754 662.33 851.983C702.666 870.213 740.82 893.48 775.736 920.897C810.302 948.064 841.662 980.569 881.625 1002.12C910.089 1017.47 941.944 1029.71 974.011 1033.75C1001.66 1037.2 1030.16 1033.78 1053.99 1019.55C1058.28 1016.99 1062.37 1014.12 1066.24 1010.93C1090.08 991.3 1103.53 961.595 1110.79 931.08C1113.1 921.355 1114.82 911.539 1116.16 901.795C1119.7 876.33 1121.33 850.448 1123.38 825.588C1126.66 785.771 1134.15 748.789 1153.87 715.781C1169.03 690.39 1194.73 668.778 1225.28 664.517C1268.77 658.442 1307.94 681.532 1345 697.615C1347.92 698.883 1350.87 700.114 1353.82 701.308C1398.57 719.328 1446.7 728.264 1493.36 717.359C1543.09 705.757 1590.52 667.45 1601.62 614.074" stroke="#DEDEDE" stroke-miterlimit="10"/>
<path d="M396.465 989.522C421.494 954.346 449.755 921.588 480.502 891.557C494.155 878.219 508.582 865.205 525.8 856.742C560.31 839.778 599.46 843.717 635.557 855.027C645.463 858.091 655.143 861.702 664.444 865.581C704.262 882.306 742.081 904.047 776.85 929.917C811.266 955.548 842.611 986.529 882.009 1007.25C911.421 1022.71 943.975 1035.42 976.888 1039.91C1005.21 1043.74 1034.61 1040.6 1059.18 1026.27C1063.61 1023.69 1067.84 1020.78 1071.85 1017.54C1096.52 997.563 1110.26 967.067 1117.92 935.728C1120.35 925.753 1122.2 915.683 1123.71 905.705C1127.65 879.623 1129.96 853.093 1132.93 827.689C1137.69 786.929 1147.56 749.782 1168.97 716.697C1184.5 692.696 1209.4 671.881 1239.1 667.531C1281.38 661.329 1319.65 682.384 1355.78 696.512C1358.62 697.625 1361.49 698.705 1364.37 699.742C1407.92 715.431 1454.2 722.038 1498.52 709.897C1545.77 696.981 1590.21 658.88 1599.93 606.907" stroke="#D8D8D8" stroke-miterlimit="10"/>
<path d="M403.16 1002.78C427.666 968.255 455.526 936.242 485.917 907.066C499.409 894.107 513.665 881.508 530.545 873.197C564.364 856.545 602.601 859.618 638.085 869.65C647.825 872.403 657.368 875.644 666.557 879.174C705.859 894.395 743.339 914.608 777.963 938.929C812.227 963.025 843.57 992.459 882.391 1012.36C912.757 1027.93 946.003 1041.12 979.765 1046.06C1008.77 1050.26 1039.06 1047.41 1064.38 1032.98C1068.95 1030.38 1073.32 1027.43 1077.45 1024.14C1102.95 1003.82 1116.98 972.534 1125.04 940.367C1127.6 930.141 1129.59 919.818 1131.25 909.603C1135.61 882.905 1138.6 855.728 1142.48 829.777C1148.72 788.074 1160.89 750.752 1184.07 717.603C1199.9 694.961 1224.07 674.973 1252.91 670.533C1294 664.202 1331.37 683.222 1366.54 695.399C1369.32 696.358 1372.11 697.283 1374.91 698.167C1417.27 711.526 1461.69 715.804 1503.68 702.426C1548.44 688.196 1589.9 650.3 1598.24 599.731" stroke="#D2D2D2" stroke-miterlimit="10"/>
<path d="M409.852 1016.05C433.833 982.167 461.291 950.901 491.327 922.576C504.661 909.997 518.745 897.816 535.285 889.655C568.413 873.316 605.759 875.455 640.608 884.276C650.186 886.701 659.586 889.591 668.662 892.769C707.448 906.487 744.592 925.171 779.069 947.943C813.183 970.502 844.534 998.371 882.765 1017.48C914.095 1033.14 948.023 1046.82 982.633 1052.21C1012.32 1056.79 1043.5 1054.22 1069.56 1039.69C1074.27 1037.08 1078.78 1034.09 1083.05 1030.74C1109.37 1010.08 1123.69 978.003 1132.16 945.009C1134.84 934.532 1136.96 923.958 1138.79 913.507C1143.55 886.191 1147.22 858.368 1152.02 831.873C1159.74 789.227 1174.15 751.704 1199.17 718.514C1215.23 697.201 1238.72 678.071 1266.72 673.542C1306.61 667.083 1343.08 684.069 1377.31 694.291C1380.01 695.095 1382.72 695.865 1385.44 696.596C1426.61 707.624 1469.17 709.573 1508.84 694.959C1551.11 679.415 1589.59 641.725 1596.54 592.558" stroke="#CDCDCD" stroke-miterlimit="10"/>
<path d="M416.547 1029.31C440.006 996.076 467.062 965.559 496.742 938.086C509.915 925.887 523.827 914.121 540.03 906.114C572.467 890.084 608.92 891.289 643.134 898.903C652.552 901 661.81 903.537 670.773 906.366C709.042 918.581 745.849 935.738 780.18 956.961C814.143 977.984 845.512 1004.27 883.146 1022.6C915.444 1038.34 950.05 1052.53 985.508 1058.37C1015.88 1063.33 1047.94 1061.04 1074.76 1046.41C1079.61 1043.77 1084.26 1040.75 1088.66 1037.34C1115.8 1016.34 1130.42 983.474 1139.29 949.653C1142.09 938.927 1144.35 928.098 1146.33 917.413C1151.5 889.481 1155.86 861.011 1161.57 833.97C1170.77 790.381 1187.34 752.618 1214.27 719.428C1230.51 699.409 1253.39 681.172 1280.54 676.555C1319.22 669.967 1354.79 684.918 1388.08 693.188C1390.71 693.839 1393.34 694.454 1395.98 695.031C1435.95 703.729 1476.67 703.349 1514 687.498C1553.78 670.64 1589.28 633.158 1594.85 585.393" stroke="#C7C7C7" stroke-miterlimit="10"/>
<path d="M423.246 1042.58C446.181 1009.99 472.836 980.218 502.16 953.596C515.173 941.778 528.914 930.427 544.779 922.573C576.524 906.855 612.087 907.123 645.667 913.53C654.923 915.296 664.04 917.485 672.889 919.963C710.641 930.674 747.112 946.305 781.295 965.977C815.107 985.465 846.503 1010.15 883.53 1027.73C916.806 1043.52 952.078 1058.24 988.385 1064.52C1019.44 1069.86 1052.4 1067.85 1079.95 1053.13C1084.95 1050.47 1089.73 1047.41 1094.27 1043.94C1122.23 1022.59 1137.14 988.944 1146.41 954.297C1149.34 943.321 1151.73 932.239 1153.87 921.32C1159.46 892.771 1164.5 863.654 1171.12 836.066C1181.81 791.536 1200.46 753.478 1229.37 720.339C1245.73 701.58 1268.05 684.27 1294.35 679.564C1331.83 672.849 1366.5 685.765 1398.85 692.082C1401.4 692.578 1403.96 693.042 1406.52 693.462C1445.3 699.831 1484.16 697.118 1519.16 680.033C1556.45 661.859 1588.97 624.585 1593.16 578.223" stroke="#C2C2C2" stroke-miterlimit="10"/>
<path d="M429.934 1055.84C452.345 1023.9 478.598 994.876 507.567 969.106C520.419 957.668 533.988 946.734 549.516 939.031C580.571 923.626 615.242 922.954 648.185 928.156C657.281 929.592 666.256 931.43 674.992 933.558C712.227 942.766 748.363 956.867 782.398 974.993C816.059 992.946 847.49 1016.01 883.902 1032.85C918.162 1048.69 954.097 1063.94 991.253 1070.68C1022.99 1076.39 1056.84 1074.66 1085.14 1059.84C1090.27 1057.16 1095.19 1054.07 1099.86 1050.55C1128.65 1028.86 1143.85 994.415 1153.53 958.942C1156.59 947.714 1159.11 936.379 1161.4 925.224C1167.4 896.059 1173.18 866.31 1180.66 838.162C1192.92 792.713 1213.49 754.271 1244.46 721.252C1260.91 703.715 1282.71 687.37 1308.16 682.574C1344.44 675.731 1378.21 686.612 1409.61 690.974C1412.09 691.317 1414.57 691.626 1417.05 691.893C1454.64 695.931 1491.64 690.889 1524.31 672.566C1559.12 653.078 1588.65 616.011 1591.46 571.049" stroke="#BCBCBC" stroke-miterlimit="10"/>
<path d="M436.633 1069.1C458.521 1037.81 484.372 1009.53 512.986 984.618C525.677 973.56 539.076 963.041 554.264 955.491C584.627 940.398 618.41 938.787 650.718 942.786C659.655 943.891 668.483 945.38 677.107 947.157C713.826 954.862 749.623 967.437 783.515 984.013C817.026 1000.43 848.498 1021.86 884.29 1037.97C919.543 1053.84 956.131 1069.65 994.134 1076.84C1026.55 1082.93 1061.29 1081.48 1090.34 1066.56C1095.61 1063.86 1100.67 1060.73 1105.48 1057.15C1135.09 1035.12 1150.58 999.887 1160.66 963.587C1163.84 952.111 1166.5 940.521 1168.95 929.131C1175.36 899.348 1181.82 868.956 1190.22 840.261C1203.96 793.872 1226.46 754.982 1259.57 722.166C1276.07 705.812 1297.38 690.471 1321.98 685.586C1357.06 678.614 1389.93 687.461 1420.39 689.871C1422.79 690.059 1425.2 690.213 1427.6 690.327C1463.99 692.034 1499.14 684.663 1529.48 665.104C1561.8 644.302 1588.35 607.44 1589.78 563.882" stroke="#B7B7B7" stroke-miterlimit="10"/>
<path d="M443.332 1082.37C464.697 1051.72 490.145 1024.19 518.404 1000.13C530.936 989.448 544.163 979.346 559.013 971.946C588.686 957.164 621.578 954.61 653.248 957.407C662.025 958.182 670.711 959.321 679.222 960.75C715.424 966.952 750.886 977.997 784.63 993.024C817.989 1007.91 849.509 1027.68 884.674 1043.09C920.926 1058.97 958.161 1075.35 997.011 1082.99C1030.11 1089.45 1065.74 1088.29 1095.53 1073.27C1100.95 1070.55 1106.15 1067.39 1111.08 1063.75C1141.52 1041.37 1157.31 1005.35 1167.79 968.227C1171.09 956.5 1173.88 944.657 1176.49 933.033C1183.32 902.633 1190.46 871.595 1199.77 842.354C1214.99 795.026 1239.35 755.589 1274.67 723.077C1291.19 707.865 1312.05 693.568 1335.8 688.595C1369.68 681.495 1401.65 688.307 1431.16 688.763C1433.49 688.798 1435.82 688.796 1438.14 688.757C1473.34 688.133 1506.64 678.434 1534.64 657.638C1564.48 635.522 1588.04 598.866 1588.09 556.711" stroke="#B1B1B1" stroke-miterlimit="10"/>
<path d="M450.027 1095.63C470.868 1065.63 495.916 1038.85 523.819 1015.64C536.191 1005.34 549.245 995.653 563.758 988.406C592.738 973.935 624.742 970.437 655.774 972.036C664.391 972.479 672.935 973.27 681.332 974.348C717.019 979.046 752.141 988.565 785.739 1002.04C818.947 1015.39 850.519 1033.5 885.053 1048.21C922.312 1064.08 960.185 1081.06 999.884 1089.14C1033.66 1095.99 1070.19 1095.1 1100.72 1079.99C1106.28 1077.25 1111.62 1074.05 1116.69 1070.36C1147.95 1047.63 1164.03 1010.82 1174.91 972.873C1178.34 960.897 1181.27 948.8 1184.03 936.939C1191.27 905.923 1199.09 874.239 1209.31 844.45C1226.02 796.183 1252.16 756.085 1289.77 723.988C1306.3 709.879 1326.71 696.666 1349.61 691.604C1382.29 684.375 1413.36 689.153 1441.93 687.657C1444.18 687.537 1446.43 687.384 1448.68 687.188C1482.68 684.233 1514.12 672.205 1539.8 650.172C1567.15 626.743 1587.73 590.294 1586.4 549.539" stroke="#ABABAB" stroke-miterlimit="10"/>
<path d="M456.719 1108.89C477.037 1079.54 501.683 1053.51 529.229 1031.15C541.441 1021.23 554.324 1011.96 568.498 1004.86C596.789 990.703 627.901 986.259 658.299 986.659C666.755 986.77 675.155 987.213 683.441 987.942C718.611 991.136 753.398 999.127 786.848 1011.06C819.905 1022.86 851.534 1039.3 885.431 1053.33C923.703 1069.16 962.208 1086.76 1002.76 1095.29C1037.22 1102.52 1074.63 1101.91 1105.91 1086.7C1111.61 1083.94 1117.09 1080.7 1122.29 1076.96C1154.37 1053.89 1170.75 1016.29 1182.03 977.513C1185.59 965.286 1188.65 952.938 1191.57 940.841C1199.22 909.208 1207.72 876.878 1218.86 846.543C1237.04 797.335 1264.9 756.446 1304.86 724.898C1321.39 711.853 1341.36 699.763 1363.42 694.613C1394.89 687.257 1425.06 690.001 1452.69 686.55C1454.87 686.277 1457.05 685.969 1459.21 685.62C1492.02 680.336 1521.61 665.977 1544.95 642.708C1569.82 617.964 1587.41 581.722 1584.7 542.37" stroke="#A6A6A6" stroke-miterlimit="10"/>
<path d="M463.41 1122.16C483.204 1093.46 507.448 1068.17 534.64 1046.66C546.691 1037.12 559.404 1028.26 573.239 1021.32C600.839 1007.47 631.06 1002.08 660.821 1001.29C669.117 1001.07 677.375 1001.16 685.546 1001.54C720.2 1003.23 754.649 1009.69 787.953 1020.07C820.861 1030.35 852.547 1045.09 885.805 1058.45C925.1 1074.23 964.229 1092.47 1005.63 1101.45C1040.77 1109.05 1079.07 1108.73 1111.1 1093.42C1116.94 1090.63 1122.55 1087.36 1127.89 1083.56C1160.79 1060.15 1177.46 1021.76 1189.15 982.158C1192.83 969.679 1196.03 957.078 1199.11 944.747C1207.17 912.497 1216.36 879.524 1228.4 848.641C1248.07 798.493 1277.58 756.665 1319.96 725.811C1336.48 713.788 1356.03 702.863 1377.24 697.622C1407.51 690.137 1436.78 690.846 1463.46 685.442C1465.57 685.016 1467.66 684.553 1469.75 684.049C1501.36 676.435 1529.1 659.746 1550.11 635.241C1572.49 609.183 1587.1 573.148 1583.01 535.198" stroke="#A0A0A0" stroke-miterlimit="10"/>
<path d="M470.113 1135.42C489.383 1107.37 513.226 1082.83 540.062 1062.17C551.953 1053.01 564.494 1044.57 577.992 1037.78C604.9 1024.25 634.227 1017.85 663.356 1015.92C671.49 1015.35 679.607 1015.11 687.666 1015.14C721.802 1015.33 755.915 1020.26 789.074 1029.09C821.83 1037.83 853.577 1050.87 886.195 1063.57C926.52 1079.27 966.265 1098.17 1008.51 1107.6C1044.33 1115.58 1083.53 1115.54 1116.3 1100.14C1122.28 1097.33 1128.03 1094.02 1133.5 1090.17C1167.23 1066.41 1184.2 1027.23 1196.29 986.802C1200.09 974.075 1203.42 961.219 1206.66 948.652C1215.13 915.785 1225 882.167 1237.96 850.737C1259.11 799.65 1290.21 756.72 1335.07 726.724C1351.58 715.683 1370.7 705.961 1391.06 700.633C1420.13 693.021 1448.5 691.696 1474.24 684.338C1476.27 683.757 1478.29 683.141 1480.3 682.484C1510.71 672.539 1536.6 653.521 1555.28 627.779C1575.17 600.406 1586.8 564.577 1581.32 528.03" stroke="#9B9B9B" stroke-miterlimit="10"/>
<path d="M476.809 1148.69C495.556 1121.28 518.995 1097.48 545.477 1077.68C557.208 1068.9 569.577 1060.88 582.736 1054.24C608.954 1041.01 637.389 1033.68 665.884 1030.54C673.856 1029.64 681.832 1029.05 689.777 1028.73C723.397 1027.42 757.172 1030.82 790.185 1038.11C822.79 1045.31 854.598 1056.64 886.575 1068.69C927.937 1084.28 968.291 1103.88 1011.38 1113.76C1047.89 1122.11 1087.98 1122.36 1121.5 1106.85C1127.61 1104.02 1133.51 1100.68 1139.11 1096.77C1173.66 1072.67 1190.92 1032.7 1203.41 991.444C1207.34 978.465 1210.8 965.357 1214.2 952.555C1223.08 919.072 1233.63 884.808 1247.51 852.83C1270.14 800.804 1302.79 756.598 1350.17 727.632C1366.69 717.534 1385.36 709.058 1404.87 703.64C1432.74 695.898 1460.21 692.54 1485.01 683.228C1486.96 682.493 1488.91 681.722 1490.84 680.91C1520.06 668.634 1544.09 647.286 1560.44 620.309C1577.85 591.622 1586.49 556 1579.63 520.855" stroke="#959595" stroke-miterlimit="10"/>
<path d="M483.5 1161.95C501.724 1135.19 524.762 1112.14 550.888 1093.19C562.459 1084.79 574.655 1077.18 587.477 1070.7C613.003 1057.78 640.544 1049.51 668.407 1045.17C676.218 1043.94 684.05 1043 691.884 1042.33C724.987 1039.51 758.427 1041.39 791.292 1047.12C823.746 1052.79 855.616 1062.39 886.952 1073.81C929.358 1089.26 970.313 1109.59 1014.25 1119.91C1051.44 1128.64 1092.42 1129.17 1126.68 1113.57C1132.94 1110.72 1138.97 1107.34 1144.71 1103.37C1180.09 1078.93 1197.63 1038.17 1210.53 996.089C1214.58 982.859 1218.18 969.498 1221.73 956.462C1231.02 922.362 1242.26 887.452 1257.05 854.928C1281.16 801.961 1315.32 756.297 1365.26 728.547C1381.81 719.352 1400.02 712.158 1418.68 706.653C1445.35 698.784 1471.92 693.39 1495.77 682.126C1497.65 681.236 1499.52 680.312 1501.37 679.346C1529.4 664.74 1551.57 641.063 1565.6 612.85C1580.51 582.849 1586.17 547.433 1577.93 513.691" stroke="#909090" stroke-miterlimit="10"/>
<path d="M490.203 1175.21C531.332 1114.54 599.117 1074.43 670.943 1059.79C742.769 1045.15 818.19 1054.61 887.342 1078.93C930.8 1094.21 972.348 1115.29 1017.14 1126.06C1061.93 1136.84 1112.32 1136 1150.33 1109.97C1197.9 1077.4 1213.76 1015.89 1229.28 960.366C1254.81 869.06 1295.63 771.968 1380.37 729.458C1422.58 708.284 1471.98 702.98 1511.92 677.775C1567.29 642.83 1594.92 569.273 1576.25 506.518" stroke="#8A8A8A" stroke-miterlimit="10"/>
<path d="M-304 -149.557C-268.616 -183.44 -231.2 -215.199 -192.019 -244.608C-174.602 -257.683 -156.356 -270.527 -135.377 -276.368C-81.7456 -291.296 -27.1301 -257.244 13.9197 -219.64C51.727 -185.005 85.3969 -145.856 113.983 -103.291C142.312 -61.1097 166.203 -14.9388 203.582 19.4803C240.961 53.8976 297.173 74.3966 343.298 53.0855C370.741 40.4074 390.589 14.6508 401.482 -13.5493C412.376 -41.7493 415.188 -72.4037 415.83 -102.628C416.567 -137.234 415.033 -173.755 431.579 -204.158C448.707 -235.63 485.195 -255.452 520.918 -252.693C571.742 -248.768 609.219 -206.011 646.231 -170.959C693.25 -126.429 750.551 -89.1916 814.814 -81.188C879.078 -73.1843 950.468 -100.301 980.685 -157.58" stroke="#8A8A8A" stroke-miterlimit="10"/>
<path d="M-299.801 -135.304C-265.048 -168.644 -228.163 -199.741 -189.486 -228.377C-172.296 -241.104 -154.294 -253.572 -133.673 -259.324C-92.2544 -270.875 -50.2008 -253.434 -14.3016 -228.006C-4.51715 -221.083 4.81334 -213.567 13.5496 -205.886C51.1226 -172.822 84.7353 -135.238 113.456 -94.2211C141.914 -53.5773 165.919 -8.76657 203.04 24.5859C223.851 43.2838 249.829 58.2373 276.872 65.0285C300.431 70.9339 324.949 70.5224 347.202 60.6272C351.177 58.8611 355.002 56.8256 358.677 54.5428C381.313 40.4806 397.742 17.3057 407.66 -7.69807C410.843 -15.7294 413.417 -23.9508 415.518 -32.2755C421.002 -54.0239 423.39 -76.6157 424.852 -98.8457C427.214 -134.108 428.408 -170.448 446.274 -200.538C464.017 -230.421 499.066 -249.761 533.972 -247.242C583.636 -243.66 620.595 -203.066 657.031 -170.107C659.902 -167.509 662.813 -164.94 665.758 -162.402C710.292 -124.071 763.038 -93.4718 821.245 -87.6015C883.299 -81.3381 951.718 -108.791 980.324 -164.938" stroke="#909090" stroke-miterlimit="10"/>
<path d="M-295.613 -121.05C-261.493 -153.847 -225.136 -184.281 -186.964 -212.144C-169.998 -224.528 -152.242 -236.616 -131.981 -242.28C-91.2983 -253.649 -49.9533 -237.291 -14.4601 -213.162C-4.77343 -206.593 4.47957 -199.447 13.1679 -192.13C50.5009 -160.64 84.0582 -124.617 112.915 -85.1524C141.501 -46.0458 165.652 -2.62472 202.483 29.6906C224.158 48.7078 250.785 64.2149 278.581 71.6003C302.742 78.0003 328.087 78.028 351.09 68.1697C355.205 66.4091 359.177 64.3626 362.991 62.0484C386.498 47.798 403.36 23.8978 413.822 -1.84593C417.173 -10.1005 419.925 -18.5471 422.222 -27.0748C428.224 -49.3547 431.398 -72.4595 433.858 -95.0623C437.848 -130.982 441.714 -167.104 460.954 -196.917C479.222 -225.222 512.921 -244.068 547.01 -241.789C595.516 -238.55 631.955 -200.119 667.816 -169.25C670.643 -166.816 673.505 -164.414 676.401 -162.042C720.18 -126.219 771.523 -98.2457 827.66 -94.0104C887.505 -89.4873 952.951 -117.276 979.946 -172.294" stroke="#959595" stroke-miterlimit="10"/>
<path d="M-291.418 -106.795C-257.929 -139.049 -222.102 -168.824 -184.433 -195.911C-167.695 -207.949 -150.18 -219.66 -130.281 -225.235C-90.3343 -236.424 -49.698 -221.149 -14.6108 -198.319C-5.0238 -192.104 4.15354 -185.329 12.7938 -178.376C49.8907 -148.456 83.3926 -113.998 112.384 -76.0834C141.099 -38.5141 165.422 3.49344 201.936 34.7975C224.485 54.1284 251.751 70.1947 280.302 78.1743C305.064 85.0689 331.236 85.5339 354.99 75.7143C359.248 73.9593 363.361 71.8999 367.318 69.5562C391.698 55.1157 408.987 30.4921 419.995 4.00833C423.515 -4.46958 426.443 -13.1413 428.938 -21.872C435.456 -44.6852 439.417 -68.3012 442.873 -91.2768C448.489 -127.853 454.97 -163.727 475.644 -193.296C494.346 -220.044 526.789 -238.374 560.058 -236.337C607.406 -233.44 643.328 -197.175 678.61 -168.397C681.391 -166.129 684.206 -163.891 687.053 -161.685C730.078 -128.368 780.019 -103.021 834.084 -100.423C891.721 -97.6417 954.196 -125.764 979.578 -179.651" stroke="#9B9B9B" stroke-miterlimit="10"/>
<path d="M-287.223 -92.5401C-254.365 -124.252 -219.069 -153.364 -181.902 -179.678C-165.389 -191.37 -148.12 -202.705 -128.578 -208.19C-89.3685 -219.196 -49.4408 -205.008 -14.7596 -183.476C-5.27042 -177.614 3.82755 -171.209 12.4217 -164.621C49.2824 -136.273 82.7271 -103.378 111.855 -67.0123C140.698 -30.984 165.22 9.58782 201.39 39.9027C224.823 59.5418 252.719 76.171 282.022 84.7448C307.388 92.1339 334.385 93.0363 358.89 83.2556C363.29 81.5043 367.545 79.4355 371.644 77.0623C396.895 62.4317 414.617 37.0847 426.171 9.86279C429.858 1.15974 432.964 -7.73523 435.656 -16.669C442.689 -40.0155 447.439 -64.1408 451.892 -87.491C459.136 -124.724 468.169 -160.33 490.337 -189.673C509.383 -214.885 540.658 -232.678 573.108 -230.881C619.297 -228.327 654.7 -194.225 689.407 -167.538C692.143 -165.435 694.91 -163.362 697.706 -161.323C739.975 -130.514 788.512 -107.793 840.509 -106.831C895.936 -105.792 955.438 -134.249 979.209 -187.006" stroke="#A0A0A0" stroke-miterlimit="10"/>
<path d="M-283.031 -78.2872C-250.804 -109.457 -216.038 -137.906 -179.375 -163.446C-163.089 -174.794 -146.063 -185.75 -126.882 -191.146C-88.4066 -201.97 -49.1894 -188.867 -14.9124 -168.634C-5.5228 -163.127 3.4995 -157.091 12.0438 -150.868C48.6664 -124.093 82.0558 -92.7609 111.319 -57.9469C140.29 -23.4539 165.034 15.6563 200.839 45.0078C225.165 64.9477 253.681 82.1471 283.737 91.3171C309.704 99.1989 337.528 100.541 362.783 90.7985C367.324 89.0527 371.722 86.9729 375.963 84.5683C402.087 69.7495 420.238 43.6791 432.337 15.7153C436.192 6.78896 439.477 -2.33115 442.365 -11.4679C449.915 -35.3459 455.403 -59.9953 460.902 -83.7072C469.694 -121.616 481.298 -156.925 505.021 -186.053C524.332 -209.761 554.517 -226.986 586.15 -225.431C631.18 -223.22 666.064 -191.281 700.196 -166.687C702.886 -164.749 705.606 -162.841 708.352 -160.968C749.869 -132.667 797.001 -112.572 846.928 -113.245C900.146 -113.946 956.677 -142.739 978.835 -194.367" stroke="#A6A6A6" stroke-miterlimit="10"/>
<path d="M-278.844 -64.0362C-247.25 -94.6629 -213.014 -122.45 -176.852 -147.217C-160.792 -158.22 -144.009 -168.798 -125.19 -174.105C-87.4505 -184.748 -48.9419 -172.728 -15.0708 -153.794C-5.78095 -148.64 3.16569 -142.974 11.662 -137.115C48.0484 -111.912 81.3824 -82.1435 110.78 -48.8778C139.881 -15.9221 164.864 21.7043 200.283 50.1111C225.512 70.3444 254.641 88.1233 285.45 97.8874C312.019 106.264 340.669 108.043 366.675 98.3395C371.359 96.5975 375.9 94.5084 380.279 92.0725C407.274 77.0636 425.858 50.2698 438.501 21.566C442.524 12.4163 445.986 3.07105 449.071 -6.26868C457.138 -30.68 463.409 -55.8425 469.91 -79.9253C480.322 -118.497 494.36 -153.523 519.703 -182.433C539.199 -204.673 568.377 -221.295 599.19 -219.979C643.061 -218.111 677.427 -188.335 710.982 -165.832C713.629 -164.059 716.299 -162.316 718.995 -160.609C759.757 -134.816 805.487 -117.345 853.344 -119.657C904.354 -122.099 957.914 -151.227 978.459 -201.724" stroke="#ABABAB" stroke-miterlimit="10"/>
<path d="M-274.645 -49.7818C-243.682 -79.8679 -209.975 -106.992 -174.318 -130.984C-158.484 -141.642 -141.945 -151.842 -123.483 -157.06C-86.4808 -167.522 -48.6808 -156.588 -15.2158 -138.953C-6.0237 -134.153 2.84545 -128.857 11.2938 -123.363C47.444 -99.7303 80.7208 -71.5266 110.255 -39.811C139.483 -8.39438 164.727 27.7318 199.742 55.2158C225.882 75.7333 255.612 94.1008 287.175 104.457C314.347 113.328 343.822 115.545 370.579 105.88C375.405 104.144 380.088 102.044 384.61 99.5762C412.477 84.3773 431.489 56.86 444.678 27.4162C448.869 18.0432 452.509 8.47285 455.792 -1.06987C464.373 -26.0127 471.43 -51.6919 478.93 -76.1438C490.964 -115.376 507.37 -150.135 534.398 -178.814C554.005 -199.622 582.248 -215.603 612.242 -214.529C654.954 -213.003 688.801 -185.391 721.781 -164.981C724.381 -163.372 727.005 -161.796 729.652 -160.255C769.659 -136.967 813.986 -122.125 859.773 -126.072C908.573 -130.256 959.16 -159.716 978.095 -209.083" stroke="#B1B1B1" stroke-miterlimit="10"/>
<path d="M-270.449 -35.5272C-240.118 -65.0707 -206.942 -91.5324 -171.787 -114.752C-156.178 -125.064 -139.883 -134.885 -121.783 -140.016C-85.515 -150.295 -48.4587 -140.377 -15.3665 -124.11C-6.28324 -119.646 2.51944 -114.737 10.9198 -109.608C46.8319 -87.5481 80.0534 -60.9074 109.722 -30.742C139.079 -0.860824 164.598 33.7447 199.193 60.3226C226.254 81.1114 256.576 100.081 288.892 111.031C316.665 120.397 346.967 123.051 374.475 113.425C379.441 111.694 384.269 109.581 388.932 107.084C417.671 91.6967 437.115 63.4561 450.848 33.2704C455.207 23.6742 459.024 13.8786 462.504 4.13107C471.602 -21.3451 479.445 -47.5355 487.943 -72.3602C501.603 -112.255 520.308 -146.768 549.084 -175.195C568.74 -194.611 596.11 -209.913 625.286 -209.077C666.839 -207.894 700.168 -182.446 732.572 -164.126C735.128 -162.683 737.704 -161.271 740.299 -159.894C779.553 -139.115 822.476 -126.896 866.192 -132.481C912.784 -138.406 960.399 -168.203 977.722 -216.438" stroke="#B7B7B7" stroke-miterlimit="10"/>
<path d="M-266.262 -21.274C-236.563 -50.275 -203.916 -76.0741 -169.264 -98.5201C-153.882 -108.487 -137.831 -117.93 -120.091 -122.972C-84.5588 -133.07 -48.213 -124.231 -15.5249 -109.268C-6.54136 -105.154 2.18568 -100.618 10.5381 -95.8534C46.214 -75.3654 79.3782 -50.2879 109.184 -21.6727C138.67 6.66947 164.48 39.7359 198.639 65.4261C226.631 86.4788 257.534 106.055 290.606 117.6C318.983 127.458 350.11 130.551 378.367 120.963C383.476 119.235 388.445 117.113 393.251 114.587C422.863 99.0092 442.736 70.0452 457.016 39.1195C461.543 29.2981 465.536 19.2793 469.213 9.32874C478.827 -16.6789 487.456 -43.3841 496.953 -68.5798C512.239 -109.135 533.177 -143.443 563.769 -171.577C583.413 -189.644 609.971 -204.223 638.328 -203.627C678.722 -202.787 711.532 -179.501 743.36 -163.274C745.87 -161.995 748.398 -160.75 750.945 -159.539C789.444 -141.268 830.963 -131.675 872.611 -138.896C916.993 -146.562 961.636 -176.692 977.348 -223.801" stroke="#BCBCBC" stroke-miterlimit="10"/>
<path d="M-262.066 -7.01851C-232.999 -35.4769 -200.883 -60.6135 -166.733 -82.2844C-151.577 -91.9065 -135.771 -100.971 -118.39 -105.924C-83.5948 -115.84 -47.9559 -108.082 -15.6756 -94.4218C-6.78988 -90.6608 1.8578 -86.4957 10.1641 -82.0962C45.6019 -63.1805 78.7126 -39.666 108.653 -12.5991C138.266 14.2058 164.381 45.7165 198.092 70.5376C227.022 91.8357 258.5 112.034 292.323 124.175C321.302 134.528 353.255 138.058 382.264 128.508C387.514 126.786 392.628 124.653 397.573 122.095C428.056 106.328 448.362 76.6404 463.186 44.9746C467.881 34.93 472.051 24.686 475.927 14.5324C486.056 -12.0086 495.475 -39.2268 505.969 -64.7934C522.882 -106.007 545.989 -140.164 578.459 -167.955C598.043 -184.717 623.838 -198.528 651.375 -198.174C690.611 -197.677 722.903 -176.556 754.155 -162.419C756.62 -161.304 759.101 -160.224 761.596 -159.18C799.34 -143.416 839.456 -136.448 879.033 -145.306C921.207 -154.712 962.879 -185.178 976.978 -231.155" stroke="#C2C2C2" stroke-miterlimit="10"/>
<path d="M-257.871 7.23469C-229.435 -20.6811 -197.848 -45.1571 -164.204 -66.0529C-149.275 -75.3299 -133.711 -84.0163 -116.69 -88.8827C-82.6309 -98.6173 -47.6987 -91.9406 -15.8263 -79.5817C-7.04022 -76.1751 1.5318 -72.379 9.7901 -68.3449C44.9917 -50.9997 78.0452 -29.0502 108.12 -3.53339C137.863 21.7324 164.293 51.6727 197.544 75.6393C227.425 97.1773 259.466 118.01 294.044 130.744C323.626 141.591 356.404 145.559 386.164 136.048C391.556 134.331 396.812 132.187 401.9 129.598C433.255 113.642 453.991 83.2295 469.359 50.8237C474.222 40.5558 478.57 30.0866 482.641 19.7301C493.287 -7.34237 503.494 -35.0736 514.982 -61.013C533.527 -102.886 558.734 -136.956 593.147 -164.337C612.628 -179.837 637.701 -192.838 664.421 -192.723C702.498 -192.568 734.271 -173.612 764.948 -161.567C767.367 -160.618 769.801 -159.703 772.246 -158.825C809.238 -145.569 847.95 -141.226 885.458 -151.721C925.423 -162.87 964.121 -193.67 976.609 -238.518" stroke="#C7C7C7" stroke-miterlimit="10"/>
<path d="M-253.672 21.4874C-225.869 -5.88592 -194.812 -29.6993 -161.67 -49.8219C-146.965 -58.7538 -131.646 -67.0619 -114.986 -71.8397C-81.663 -81.3917 -47.4376 -75.7982 -15.973 -64.7404C-7.28476 -61.6862 1.20976 -58.2611 9.41824 -54.5924C44.3818 -38.8195 77.3817 -18.433 107.591 5.5336C137.463 29.2621 164.22 57.6153 196.999 80.7423C227.84 102.504 260.436 123.988 295.764 137.316C325.948 148.658 359.554 153.063 390.064 143.59C395.599 141.878 400.996 139.724 406.226 137.104C438.453 120.958 459.62 89.8236 475.533 56.676C480.564 46.1848 485.089 35.4905 489.358 24.9309C500.521 -2.67487 511.567 -30.8933 524 -57.2295C544.255 -99.7205 571.42 -133.824 607.838 -160.716C627.182 -174.999 651.569 -187.144 677.47 -187.271C714.389 -187.46 745.642 -170.666 775.742 -160.712C778.118 -159.928 780.502 -159.178 782.897 -158.466C819.134 -147.716 856.443 -146.002 891.881 -158.132C929.637 -171.021 965.364 -202.157 976.239 -245.873" stroke="#CDCDCD" stroke-miterlimit="10"/>
<path d="M-249.488 35.7398C-222.316 8.90913 -191.789 -14.2418 -159.151 -33.5911C-144.673 -42.1779 -129.598 -50.1077 -113.297 -54.797C-80.7089 -64.1681 -47.1904 -59.6597 -16.1355 -49.901C-7.545 -47.2012 0.872025 -44.1452 9.03252 -40.8418C43.7598 -26.6412 76.7026 -7.81784 107.047 14.5986C137.05 36.7918 164.143 63.5449 196.441 85.847C228.255 107.815 261.39 129.964 297.475 143.886C328.261 155.722 362.693 160.565 393.952 151.131C399.629 149.424 405.169 147.259 410.541 144.607C443.641 128.272 465.236 96.4139 481.695 62.5281C486.892 51.8136 491.598 40.8941 496.062 30.1316C507.74 1.9943 519.574 -26.7372 533.006 -53.4461C554.889 -96.596 584.035 -130.79 622.518 -157.097C641.698 -170.208 665.426 -181.453 690.507 -181.82C726.268 -182.351 757.004 -167.721 786.527 -159.859C788.856 -159.239 791.194 -158.656 793.54 -158.11C829.022 -149.868 864.926 -150.778 898.296 -164.545C933.842 -179.175 966.599 -210.645 975.861 -253.232" stroke="#D2D2D2" stroke-miterlimit="10"/>
<path d="M-245.293 49.9953C-218.752 23.7072 -188.755 1.2169 -156.62 -17.3574C-142.368 -25.599 -127.536 -33.1505 -111.595 -37.7512C-79.7431 -46.9396 -46.9295 -43.52 -16.2843 -35.0569C-7.79158 -32.7113 0.547899 -30.0244 8.66041 -27.0846C43.1515 -14.4545 76.0371 2.80396 106.518 23.6702C136.647 44.3243 164.084 69.4609 195.894 90.9528C228.687 113.109 262.355 135.943 299.194 150.459C330.583 162.79 365.84 168.07 397.851 158.675C403.667 156.973 409.353 154.795 414.864 152.114C448.834 135.59 470.861 103.007 487.867 68.3814C493.234 57.4416 498.115 46.2989 502.776 35.3334C514.971 6.66277 527.594 -22.5781 542.021 -49.6616C565.53 -93.4684 596.603 -127.864 637.208 -153.474C656.205 -165.457 679.292 -175.76 703.555 -176.365C738.157 -177.24 768.374 -164.772 797.322 -159.002C799.606 -158.548 801.897 -158.129 804.192 -157.748C838.921 -152.015 873.422 -155.551 904.72 -170.954C938.058 -187.325 967.841 -219.131 975.493 -260.587" stroke="#D8D8D8" stroke-miterlimit="10"/>
<path d="M-241.098 64.2498C-215.188 38.5042 -185.722 16.6764 -154.089 -1.12461C-140.064 -9.02121 -125.476 -16.1944 -109.895 -20.7065C-78.7791 -29.714 -46.6705 -27.3814 -16.4331 -20.2138C-8.03826 -18.2244 0.223726 -15.9047 8.28826 -13.3303C42.5413 -2.27247 75.3733 13.4229 105.989 32.739C136.247 51.854 164.033 75.3648 195.348 96.0576C229.135 118.385 263.325 141.92 300.914 157.031C332.905 169.855 368.989 175.574 401.751 166.217C407.71 164.519 413.537 162.333 419.19 159.622C454.034 142.908 476.491 109.603 494.041 74.2354C499.573 63.0724 504.633 51.7027 509.492 40.536C522.204 11.3339 535.613 -18.42 551.037 -45.8763C576.173 -90.3401 609.12 -125.064 651.897 -149.853C670.7 -160.749 693.157 -170.066 716.601 -170.913C750.044 -172.131 779.743 -161.827 808.114 -158.147C810.353 -157.857 812.595 -157.604 814.841 -157.39C848.815 -154.164 881.913 -160.324 911.143 -177.365C942.272 -195.478 969.084 -227.618 975.122 -267.944" stroke="#DEDEDE" stroke-miterlimit="10"/>
<path d="M-236.902 78.5031C-211.625 53.3 -182.687 32.1348 -151.559 15.107C-137.758 7.55549 -123.416 0.758762 -108.195 -3.66289C-77.8152 -12.4896 -46.4097 -11.2476 -16.5838 -5.37175C-8.28675 -3.7367 -0.102263 -1.78608 7.91429 0.422902C41.9311 9.90841 74.7059 24.0407 105.458 41.8067C135.843 59.3844 163.99 81.2546 194.801 101.163C229.591 123.64 264.291 147.897 302.635 163.601C335.227 176.92 372.138 183.076 405.651 173.759C411.752 172.066 417.722 169.868 423.516 167.126C459.231 150.222 482.12 116.194 500.214 80.0864C505.915 68.7001 511.152 57.1053 516.209 45.7356C529.435 16.0002 543.632 -14.2649 560.054 -42.0958C586.817 -87.2166 621.594 -122.411 666.589 -146.235C685.195 -156.086 707.024 -164.376 729.651 -165.463C761.935 -167.022 791.115 -158.882 818.911 -157.295C821.105 -157.171 823.299 -157.083 825.495 -157.033C858.715 -156.313 890.41 -165.101 917.569 -183.779C946.489 -203.632 970.328 -236.108 974.757 -275.305" stroke="#E3E3E3" stroke-miterlimit="10"/>
<path d="M-232.715 92.7578C-208.069 68.0973 -179.662 47.5946 -149.036 31.3401C-135.462 24.1337 -121.362 17.7152 -106.502 13.3822C-76.8572 4.73817 -46.1584 4.8858 -16.7423 9.4717C-8.54301 10.7506 -0.437893 12.3339 7.53252 14.1794C41.3131 22.0926 74.0308 34.6618 104.918 50.8795C135.432 66.9199 163.94 87.1366 194.244 106.272C230.049 128.88 265.247 153.878 304.344 170.177C337.54 183.99 375.275 190.586 409.539 181.305C415.782 179.619 421.894 177.41 427.831 174.636C464.419 157.543 487.738 122.79 506.376 85.9426C512.245 74.333 517.659 62.5131 522.913 50.9404C536.656 20.6716 551.641 -10.1028 569.06 -38.3065C597.45 -84.0842 634.019 -119.906 681.27 -142.61C699.683 -151.457 720.882 -158.678 742.689 -160.007C773.814 -161.91 802.476 -155.934 829.696 -156.436C831.844 -156.477 833.992 -156.554 836.136 -156.671C868.603 -158.459 898.894 -169.873 923.982 -190.185C950.693 -211.781 971.561 -244.591 974.378 -282.656" stroke="#E9E9E9" stroke-miterlimit="10"/>
<path d="M-228.516 107.009C-204.501 82.8911 -176.624 63.049 -146.501 47.5695C-133.153 40.7082 -119.298 34.6681 -104.796 30.4236C-75.8875 21.9605 -45.8881 20.9621 -16.8872 24.3115C-8.78392 25.2195 -0.758146 26.4504 7.16429 27.9305C40.7068 34.2732 73.371 45.2775 104.393 59.945C135.036 74.4482 163.91 93.0003 193.704 111.373C230.535 134.087 266.22 159.851 306.071 176.744C339.868 191.052 378.43 198.085 413.445 188.841C419.83 187.158 426.084 184.94 432.163 182.135C469.622 164.852 493.371 129.376 512.558 91.7879C518.594 79.9531 524.186 67.9099 529.637 56.1342C543.897 25.3339 559.668 -5.95349 578.085 -34.5318C608.101 -80.9665 646.436 -117.584 695.969 -138.998C714.202 -146.88 734.759 -152.994 755.747 -154.562C785.713 -156.808 813.855 -152.996 840.5 -155.59C842.602 -155.795 844.702 -156.039 846.798 -156.321C878.51 -160.617 907.397 -174.655 930.417 -196.605C954.918 -219.942 972.813 -253.086 974.019 -290.022" stroke="#EEEEEE" stroke-miterlimit="10"/>
<path d="M-224.316 121.264C-200.935 97.6872 -173.587 78.5095 -143.966 63.8033C-130.845 57.2871 -117.233 51.6253 -103.092 47.4694C-74.9196 39.1889 -45.6289 37.1054 -17.034 39.1557C-9.03035 39.7093 -1.08023 40.5712 6.79422 41.6858C40.1005 46.4562 72.7075 55.8975 103.864 69.0148C134.636 81.9789 163.879 98.8591 193.159 116.481C231.031 139.274 267.188 165.832 307.791 183.319C342.192 198.121 381.579 205.591 417.343 196.386C423.871 194.709 430.269 192.48 436.488 189.645C474.819 172.172 498.998 135.974 518.729 97.6448C524.934 85.5867 530.703 73.3183 536.351 61.3396C551.128 30.0061 567.685 -1.79252 587.099 -30.7436C618.741 -77.8353 658.827 -115.427 710.656 -135.374C728.727 -142.328 748.622 -147.297 768.791 -149.108C797.598 -151.697 825.222 -150.047 851.291 -154.733C853.348 -155.104 855.401 -155.511 857.445 -155.96C888.402 -162.764 915.886 -179.428 936.836 -203.015C959.128 -228.092 974.053 -261.572 973.645 -297.377" stroke="#F4F4F4" stroke-miterlimit="10"/>
<path d="M-220.133 135.52C-197.382 112.485 -170.565 93.97 -141.447 80.0389C-128.551 73.8677 -115.183 68.5843 -101.403 64.5169C-73.9673 56.4173 -45.3853 53.2506 -17.1964 54.0017C-9.29053 54.201 -1.41792 54.6937 6.40855 55.443C39.4768 58.6411 72.0284 66.5211 103.321 78.0864C134.221 89.5133 163.837 104.707 192.6 121.589C231.523 144.435 268.142 171.81 309.5 189.892C344.502 205.187 384.716 213.096 421.232 203.93C427.899 202.258 434.441 200.016 440.803 197.152C480.005 179.491 504.616 142.568 524.891 103.498C531.264 91.2166 537.21 78.723 543.056 66.5414C558.347 34.6763 575.694 2.36651 596.105 -26.9592C629.374 -74.7097 671.208 -113.464 725.337 -131.752C743.272 -137.812 762.478 -141.605 781.829 -143.653C809.477 -146.584 836.583 -147.099 862.076 -153.877C864.087 -154.412 866.091 -154.986 868.088 -155.6C898.292 -164.913 924.372 -184.201 943.25 -209.424C963.334 -236.242 975.285 -270.058 973.266 -304.733" stroke="#F9F9F9" stroke-miterlimit="10"/>
<path d="M-215.934 149.772C-164.537 97.5079 -90.6307 70.2878 -17.3432 68.841C55.9444 67.3942 128.424 90.3015 192.056 126.692C232.045 149.562 269.112 177.786 311.223 196.462C353.334 215.138 403.05 223.4 445.129 204.655C497.792 181.196 524.492 123.554 549.772 71.7402C591.346 -13.4671 649.009 -101.603 740.029 -128.133C785.366 -141.346 834.915 -137.655 878.741 -155.244C939.503 -179.63 979.946 -246.999 972.9 -312.093" stroke="white" stroke-miterlimit="10"/>
<path d="M105.446 906.377C97.6809 843.627 159.625 790.606 222.098 780.855C284.569 771.103 347.238 791.222 409.138 804.116C471.037 817.01 540.682 821.273 592.389 784.881C658.494 738.358 673.787 640.487 741.793 596.789C794.8 562.73 863.797 572.921 918.104 598.26C948.81 612.586 974.917 636.688 1004.27 653.476C1137.37 729.609 1146.34 885.195 1259.42 908.396C1381.86 933.518 1448.29 873.822 1471.4 832.42C1501 779.387 1550.35 641.779 1429.42 546.151C1380.29 507.303 1331.79 465.899 1295.64 414.745C1241.53 338.162 1241.9 221.078 1311.1 157.795C1358.52 114.424 1431.36 98.5657 1463.58 42.9573C1485.23 5.58183 1482.27 -42.6042 1463.66 -81.5834C1445.04 -120.563 1412.62 -151.389 1377.39 -176.389" stroke="#8A8A8A" stroke-miterlimit="10"/>
<path d="M108.252 909.509C102.891 844.958 164.497 789.185 228.834 778.089C291.63 767.258 355.333 787.218 417.24 801.454C478.416 815.521 546.335 821.901 597.878 788.822C663.715 746.493 682.231 653.592 750.153 610.468C804.26 576.3 872.162 582.65 927.765 604.801C959.706 617.525 988.011 640.242 1018.75 657.27C1149.05 729.46 1159.77 879.991 1270.39 902.873C1389.37 927.436 1455.44 870.941 1479.45 830.202C1509.88 778.576 1556.97 645.991 1442.7 551.455C1395.59 512.479 1348.87 470.28 1313.31 419.442C1260.79 344.674 1260.31 231.758 1325.62 169.026C1370.81 125.624 1441.03 107.941 1473.11 53.0503C1495.13 15.5253 1493.78 -31.9724 1477.51 -71.2432C1461.1 -110.879 1431.16 -143.457 1397.31 -170.293" stroke="#909090" stroke-miterlimit="10"/>
<path d="M111.06 912.644C108.103 846.291 169.368 787.79 235.573 775.325C298.696 763.443 363.428 783.202 425.346 798.794C485.798 814.017 551.994 822.532 603.373 792.767C668.945 754.633 690.582 666.548 758.518 624.153C813.648 589.749 880.599 592.344 937.429 611.348C970.645 622.456 1001.09 643.809 1033.23 661.071C1160.62 729.49 1173.2 874.792 1281.36 897.356C1396.89 921.362 1462.58 868.067 1487.51 827.988C1518.74 777.765 1563.6 650.12 1455.98 556.762C1410.87 517.631 1365.95 474.666 1330.97 424.142C1280.05 351.19 1278.73 242.406 1340.15 180.261C1383.11 136.803 1450.71 117.317 1482.65 63.1462C1505.03 25.4717 1505.3 -21.3708 1491.37 -60.8981C1477.16 -101.224 1449.7 -135.52 1417.23 -164.192" stroke="#959595" stroke-miterlimit="10"/>
<path d="M113.863 915.776C113.311 847.622 174.235 786.409 242.309 772.559C305.757 759.648 371.518 779.166 433.447 796.129C493.175 812.489 557.647 823.159 608.861 796.705C674.167 762.767 698.986 679.588 766.876 637.83C823.075 603.261 889.088 601.977 947.088 617.886C981.61 627.355 1014.16 647.376 1047.71 664.863C1172.07 729.675 1186.62 869.586 1292.33 891.831C1404.4 915.279 1469.7 865.185 1495.56 825.768C1527.58 776.946 1570.23 654.143 1469.25 562.064C1426.13 522.743 1383.17 478.949 1348.63 428.835C1299.51 357.559 1297.13 253.004 1354.68 191.488C1395.41 147.949 1460.25 126.61 1492.18 73.2351C1514.84 35.3558 1516.83 -10.8077 1505.22 -50.5638C1493.23 -91.6135 1468.23 -127.592 1437.14 -158.103" stroke="#9B9B9B" stroke-miterlimit="10"/>
<path d="M116.664 918.905C118.517 848.953 179.101 785.049 249.04 769.789C312.817 755.875 379.603 775.113 441.545 793.462C500.545 810.94 563.295 823.785 614.345 800.641C679.384 770.898 707.394 692.637 775.23 651.504C832.503 616.777 897.619 611.554 956.743 624.423C992.601 632.227 1027.2 650.953 1062.19 668.654C1183.43 730.002 1200.04 864.379 1303.29 886.304C1411.91 909.193 1476.8 862.297 1503.6 823.545C1536.4 776.117 1576.89 658.058 1482.53 567.362C1441.38 527.814 1400.29 483.297 1366.29 433.526C1318.82 364.031 1315.52 263.556 1369.2 202.714C1407.7 159.066 1469.88 135.959 1501.71 83.3221C1524.71 45.2786 1528.38 -0.275851 1519.07 -40.2294C1509.31 -82.034 1486.76 -119.666 1457.04 -152.013" stroke="#A0A0A0" stroke-miterlimit="10"/>
<path d="M119.48 922.038C123.736 850.284 183.982 783.708 255.788 767.024C319.894 752.128 387.703 771.047 449.659 790.8C507.936 809.38 569.001 824.516 619.847 804.582C684.671 779.167 715.826 705.698 783.603 665.184C841.952 630.303 906.208 621.078 966.417 630.966C1003.63 637.076 1040.25 654.547 1076.68 672.451C1194.72 730.47 1213.48 859.175 1314.27 880.784C1419.43 903.115 1483.91 859.415 1511.66 821.329C1545.21 775.291 1583.6 661.862 1495.81 572.667C1456.63 532.853 1417.42 487.655 1383.96 438.222C1338.13 370.509 1333.92 274.063 1383.73 213.945C1420.02 170.154 1479.53 145.317 1511.25 93.4122C1534.6 55.2044 1539.98 10.2331 1532.93 -29.8902C1525.44 -72.4772 1505.31 -111.733 1476.96 -145.918" stroke="#A6A6A6" stroke-miterlimit="10"/>
<path d="M122.281 925.172C128.941 851.617 188.851 782.391 262.519 764.26C326.96 748.4 395.789 766.967 457.756 788.138C515.31 807.803 574.648 825.164 625.331 808.524C689.888 787.327 724.246 718.772 791.957 678.866C851.389 643.84 914.801 630.547 976.071 637.51C1014.66 641.895 1053.27 658.158 1091.15 676.251C1205.92 731.062 1226.9 853.977 1325.23 875.264C1426.94 897.037 1490.98 856.529 1519.71 819.113C1553.99 774.459 1590.33 665.544 1509.09 577.973C1471.86 537.849 1434.53 492.016 1401.62 442.92C1357.43 376.998 1352.28 284.523 1398.25 225.178C1432.32 181.214 1489.18 154.679 1520.78 103.507C1544.47 65.1368 1551.6 20.7246 1546.78 -19.5482C1541.58 -62.9398 1523.84 -103.799 1496.87 -139.822" stroke="#ABABAB" stroke-miterlimit="10"/>
<path d="M125.086 928.302C134.151 852.945 193.727 781.086 269.255 761.49C334.031 744.683 403.881 762.864 465.859 785.471C522.695 806.203 580.298 825.805 630.821 812.46C695.108 795.481 732.675 731.845 800.316 692.541C860.833 657.374 923.419 639.951 985.732 644.046C1025.71 646.672 1066.29 661.777 1105.63 680.041C1217.06 731.758 1240.33 848.769 1336.19 869.737C1434.45 890.952 1498.05 853.628 1527.76 816.891C1562.76 773.61 1597.13 669.085 1522.36 583.271C1487.09 542.788 1451.64 496.373 1419.28 447.61C1376.72 383.481 1370.62 294.919 1412.78 236.402C1444.61 192.226 1498.83 164.033 1530.31 113.592C1554.36 75.0614 1563.25 31.1937 1560.63 -9.21569C1557.76 -53.4267 1542.38 -95.8734 1516.79 -133.732" stroke="#B1B1B1" stroke-miterlimit="10"/>
<path d="M127.895 931.433C139.364 854.275 198.611 779.799 275.996 758.723C341.112 740.988 411.982 758.747 473.966 782.807C530.086 804.591 585.951 826.446 636.314 816.4C700.327 803.631 741.116 744.932 808.679 706.218C870.287 670.919 932.05 649.307 995.394 650.586C1036.76 651.422 1079.29 665.421 1120.12 683.835C1228.15 732.558 1253.76 843.564 1347.16 864.213C1441.96 884.871 1505.1 850.725 1535.81 814.672C1571.51 772.757 1604 672.489 1535.64 588.574C1502.33 547.677 1468.75 500.739 1436.94 452.305C1396.01 389.976 1388.92 305.263 1427.31 247.632C1456.89 203.207 1508.49 173.398 1539.84 123.684C1564.24 84.9965 1574.94 41.6584 1574.48 1.12353C1573.97 -43.9197 1560.91 -87.9425 1536.7 -127.638" stroke="#B7B7B7" stroke-miterlimit="10"/>
<path d="M130.691 934.566C144.565 855.608 203.488 778.533 282.724 755.958C348.185 737.308 420.075 754.617 482.061 780.146C537.469 802.965 591.588 827.087 641.798 820.342C705.534 811.781 749.551 758.027 817.033 719.9C879.735 684.474 940.671 658.617 1005.05 657.13C1047.8 656.143 1092.27 669.09 1134.59 687.633C1239.18 733.457 1267.18 838.362 1358.12 858.693C1449.47 878.792 1512.14 847.818 1543.85 812.456C1580.23 771.895 1610.95 675.752 1548.91 593.88C1517.57 552.514 1485.85 505.109 1454.6 457.002C1415.28 396.478 1407.18 315.552 1441.82 258.864C1469.15 214.149 1518.15 182.766 1549.37 133.777C1574.12 94.9324 1586.65 52.1184 1588.33 11.4636C1590.21 -34.4156 1579.44 -80.0088 1556.6 -121.544" stroke="#BCBCBC" stroke-miterlimit="10"/>
<path d="M133.496 937.697C149.773 856.939 208.376 777.281 289.459 753.191C355.267 733.639 428.18 750.469 490.162 777.481C544.865 801.32 597.231 827.717 647.286 824.279C710.741 819.92 757.993 771.127 825.392 733.576C889.194 698.029 949.293 667.879 1014.71 663.669C1058.85 660.827 1105.24 672.782 1149.07 691.426C1250.18 734.438 1280.6 833.157 1369.09 853.169C1456.99 872.71 1519.17 844.896 1551.91 810.237C1588.95 771.018 1618.01 678.863 1562.19 599.181C1532.84 557.286 1502.95 509.478 1472.26 461.696C1434.55 402.982 1425.4 325.78 1456.35 270.092C1481.39 225.047 1527.82 192.134 1558.9 143.867C1584.02 104.867 1598.41 62.5794 1602.18 21.8009C1606.5 -24.9143 1597.98 -72.0799 1576.52 -115.451" stroke="#C2C2C2" stroke-miterlimit="10"/>
<path d="M136.312 940.83C154.994 858.271 213.282 776.046 296.208 750.426C362.369 729.984 436.306 746.305 498.277 774.819C552.278 799.666 602.885 828.349 652.788 828.222C715.962 828.061 766.455 784.24 833.763 747.257C898.667 711.598 957.917 677.107 1024.38 670.212C1069.9 665.49 1118.22 676.505 1163.57 695.224C1261.15 735.504 1294.04 827.956 1380.07 847.649C1464.51 866.631 1526.19 841.968 1559.97 808.02C1597.67 770.131 1625.21 681.829 1575.48 604.486C1548.16 561.996 1520.05 513.856 1489.93 466.392C1453.83 409.494 1443.57 335.955 1470.89 281.323C1493.6 235.907 1537.5 201.508 1568.45 153.957C1593.93 114.806 1610.21 73.044 1616.05 32.1381C1622.83 -15.4057 1616.52 -64.149 1596.44 -109.358" stroke="#C7C7C7" stroke-miterlimit="10"/>
<path d="M139.117 943.961C160.203 859.601 218.181 774.824 302.943 747.657C369.46 726.339 444.427 742.122 506.38 772.153C559.689 797.993 608.528 828.972 658.277 832.159C721.172 836.19 774.907 797.353 842.123 760.935C908.132 725.169 966.518 686.296 1034.04 676.752C1080.94 670.123 1131.16 680.26 1178.05 699.019C1272.08 736.642 1307.43 822.923 1391.04 842.126C1471.98 860.717 1533.19 839.024 1568.02 805.803C1606.36 769.23 1632.54 684.654 1588.76 609.789C1563.52 566.641 1537.14 518.235 1507.6 471.088C1473.08 416.011 1461.67 346.08 1485.41 292.553C1505.75 246.728 1547.18 210.884 1577.98 164.049C1603.83 124.748 1622.02 83.5197 1629.9 42.4774C1639.19 -5.884 1635.06 -56.2181 1616.36 -103.264" stroke="#CDCDCD" stroke-miterlimit="10"/>
<path d="M141.914 947.093C165.405 860.932 223.08 773.619 309.671 744.891C376.548 722.704 452.548 737.929 514.473 769.489C567.096 796.309 614.162 829.591 663.757 836.098C726.373 844.314 783.354 810.476 850.473 774.612C917.593 738.748 975.093 695.458 1043.69 683.291C1091.95 674.732 1144.08 684.053 1192.52 702.812C1282.97 737.846 1320.84 817.72 1401.99 836.602C1479.48 854.634 1540.17 836.067 1576.06 803.582C1615.02 768.31 1640.02 687.344 1602.02 615.089C1578.95 571.214 1554.21 522.619 1525.25 475.78C1492.32 422.53 1479.67 356.159 1499.93 303.78C1517.83 257.508 1556.85 220.26 1587.5 174.137C1613.73 134.689 1633.84 94.0045 1643.74 52.8127C1655.56 3.6467 1653.59 -48.2911 1636.26 -97.1729" stroke="#D2D2D2" stroke-miterlimit="10"/>
<path d="M144.723 950.225C170.616 862.262 227.996 772.426 316.41 742.125C383.651 719.079 460.69 733.719 522.578 766.826C574.522 794.614 619.81 830.207 669.249 840.038C731.588 852.433 791.817 823.606 858.834 788.29C927.067 752.333 983.661 704.594 1053.35 689.831C1102.96 679.323 1157 687.893 1207 706.606C1293.86 739.116 1334.27 812.511 1412.96 831.078C1487 848.547 1547.16 833.093 1584.11 801.363C1623.69 767.377 1647.7 689.919 1615.3 620.393C1594.49 575.726 1571.28 527.006 1542.91 480.476C1511.55 429.058 1497.6 366.207 1514.45 315.011C1529.84 268.264 1566.53 229.641 1597.04 184.229C1623.63 144.635 1645.69 104.508 1657.59 63.1519C1671.97 13.2016 1672.12 -40.3583 1656.17 -91.0781" stroke="#D8D8D8" stroke-miterlimit="10"/>
<path d="M147.527 953.358C175.825 863.595 232.914 771.251 323.148 739.358C390.757 715.464 468.843 729.493 530.683 764.163C581.958 792.909 625.461 830.82 674.743 843.98C736.808 860.552 800.282 836.744 867.199 801.97C936.55 765.931 992.216 713.712 1063.02 696.375C1113.96 683.9 1169.91 691.787 1221.48 710.404C1304.73 740.451 1347.7 807.303 1423.93 825.558C1494.52 842.461 1554.13 830.109 1592.16 799.147C1632.35 766.433 1655.58 692.409 1628.58 625.696C1610.16 580.181 1588.35 531.402 1560.57 485.172C1530.78 435.593 1515.45 376.237 1528.98 326.242C1541.77 279.001 1576.22 239.025 1606.57 194.322C1633.55 154.586 1657.56 115.029 1671.45 73.4921C1688.4 22.7759 1690.66 -32.4264 1676.08 -84.9824" stroke="#DEDEDE" stroke-miterlimit="10"/>
<path d="M150.328 956.49C181.031 864.926 237.833 770.087 329.879 736.592C397.861 711.856 476.999 725.256 538.78 761.5C589.395 791.193 631.105 831.431 680.227 847.92C742.021 868.664 808.743 849.887 875.553 815.651C946.024 779.536 1000.74 722.814 1072.67 702.917C1124.94 688.458 1182.78 695.74 1235.96 714.2C1315.58 741.841 1361.12 802.09 1434.9 820.037C1502.03 836.367 1561.09 827.107 1600.21 796.931C1640.99 765.472 1663.67 694.841 1641.85 631.002C1625.99 584.59 1605.4 535.806 1578.23 489.869C1550 442.134 1533.19 386.261 1543.5 337.474C1553.6 289.729 1585.91 248.413 1616.1 204.415C1643.46 164.54 1669.44 125.567 1685.3 83.8323C1704.85 32.3706 1709.19 -24.4927 1695.99 -78.8867" stroke="#E3E3E3" stroke-miterlimit="10"/>
<path d="M153.145 959.621C186.252 866.255 242.777 768.933 336.626 733.825C404.985 708.253 485.184 721.001 546.895 758.834C596.858 789.465 636.81 831.943 685.728 851.857C747.305 876.654 817.223 863.035 883.924 829.326C955.519 793.145 1009.27 731.898 1082.35 709.454C1135.93 692.999 1195.66 699.757 1250.45 717.991C1326.44 743.279 1374.6 796.73 1445.88 814.511C1509.59 830.145 1568.05 824.081 1608.27 794.708C1649.65 764.487 1672 697.258 1655.15 636.301C1642.05 588.962 1622.45 540.208 1595.91 494.559C1569.22 448.673 1550.85 396.294 1558.04 348.698C1565.33 300.459 1595.62 257.798 1625.65 214.501C1653.39 174.49 1681.35 136.114 1699.16 94.1656C1721.33 41.9787 1727.74 -16.5676 1715.92 -72.7979" stroke="#E9E9E9" stroke-miterlimit="10"/>
<path d="M155.945 962.753C191.457 867.586 247.709 767.792 343.36 731.059C412.1 704.658 493.369 716.737 554.994 756.172C604.315 787.732 642.46 832.572 691.214 855.797C752.523 884.789 825.689 876.189 892.279 843.005C965.004 806.764 1017.76 740.974 1092 715.995C1146.88 697.531 1208.49 703.857 1264.93 721.787C1337.27 744.772 1388.02 791.528 1456.84 808.99C1517.09 824.065 1575 821.044 1616.32 792.491C1658.28 763.492 1680.55 699.725 1668.42 641.605C1658.34 593.34 1639.47 544.622 1613.56 499.256C1588.41 455.224 1568.41 406.368 1572.56 359.93C1576.92 311.22 1605.31 267.192 1635.17 224.594C1663.31 184.45 1693.23 146.685 1713.01 104.506C1737.8 51.6158 1746.27 -8.63384 1735.83 -66.7021" stroke="#EEEEEE" stroke-miterlimit="10"/>
<path d="M158.746 965.885C196.66 868.918 252.651 766.665 350.091 728.293C419.218 701.071 501.564 712.459 563.091 753.509C611.779 785.992 648.108 833.2 696.698 859.737C757.741 892.924 834.22 889.48 900.633 856.683C974.559 820.535 1026.23 750.041 1101.66 722.537C1157.82 702.056 1221.31 708.056 1279.4 725.584C1348.11 746.315 1401.44 786.326 1467.8 803.468C1524.6 817.986 1581.93 817.986 1624.36 790.273C1666.91 762.479 1689.31 702.3 1681.69 646.909C1674.92 597.758 1656.48 549.046 1631.22 503.953C1607.59 461.779 1585.87 416.5 1587.08 371.161C1588.39 322.027 1615.09 276.642 1644.7 234.686C1673.31 194.465 1705.13 157.274 1726.85 114.846C1754.28 61.2731 1764.8 -0.701937 1755.73 -60.6064" stroke="#F4F4F4" stroke-miterlimit="10"/>
<path d="M161.555 969.016C201.874 870.249 257.661 765.687 356.831 725.525C426.385 697.583 509.782 708.169 571.198 750.844C619.264 784.243 653.766 833.826 702.192 863.678C762.969 901.06 842.668 902.585 908.998 870.364C984.024 834.105 1034.7 759.102 1111.32 729.079C1168.76 706.574 1234.11 712.369 1293.89 729.38C1358.98 747.904 1414.87 781.122 1478.77 797.947C1532.12 811.906 1588.88 814.912 1632.42 788.057C1675.55 761.452 1698.29 705.063 1694.97 652.213C1691.83 602.272 1673.48 553.477 1648.88 508.648C1626.77 468.34 1603.28 426.705 1601.61 382.391C1599.74 332.9 1624.76 286.015 1654.23 244.777C1683.21 204.407 1717.04 167.875 1740.71 125.184C1770.78 70.9489 1783.34 7.22987 1775.65 -54.5127" stroke="#F9F9F9" stroke-miterlimit="10"/>
<path d="M164.359 972.15C207.083 871.581 262.564 764.443 363.568 722.76C433.477 693.911 518.012 703.871 579.301 748.181C626.756 782.49 659.42 834.455 707.684 867.617C768.193 909.195 851.112 915.691 917.36 884.042C993.487 847.672 1043.14 768.158 1120.98 735.619C1179.68 711.082 1246.89 716.813 1308.37 733.174C1369.85 749.536 1428.3 775.918 1489.74 792.422C1539.63 805.823 1595.82 811.812 1640.47 785.835C1684.19 760.402 1707.43 708.087 1708.25 657.513C1709.06 606.939 1690.45 557.914 1666.54 513.341C1645.93 474.901 1620.62 437.007 1616.14 393.619C1610.99 343.858 1634.43 295.385 1663.77 254.864C1693.11 214.344 1728.95 178.488 1754.56 135.519C1787.28 80.6392 1801.88 15.1559 1795.56 -48.4229" stroke="white" stroke-miterlimit="10"/>
<path d="M896.025 1346.73C842.251 1313.47 839.732 1231.97 871.272 1177.17C902.811 1122.37 957.753 1086.13 1006.58 1045.96C1055.41 1005.79 1102.37 954.181 1106.4 891.081C1111.55 810.409 1044.85 737.174 1053.39 656.792C1060.06 594.142 1111.22 546.747 1165 520.293C1195.4 505.336 1230.54 500.086 1262.01 487.727C1404.74 431.683 1531.63 522.161 1620.56 448.561C1716.84 368.868 1711.94 279.69 1694.14 235.739C1671.35 179.444 1595.02 54.7648 1444.72 89.1138C1383.66 103.067 1321 114.933 1258.49 111.056C1164.9 105.252 1073.87 31.6139 1067.9 -61.9661C1063.8 -126.102 1097.08 -192.809 1073.92 -252.758C1058.35 -293.051 1018.94 -320.932 976.897 -330.843C934.855 -340.757 890.514 -334.796 848.961 -323.004" stroke="white" stroke-miterlimit="10"/>
<path d="M900.225 1346.5C846.554 1310.24 841.679 1227.28 873.337 1170.19C904.237 1114.45 959.703 1077.31 1009.58 1037.98C1058.87 999.108 1106.4 950.166 1112.91 889.268C1121.16 811.433 1060.35 738.801 1069.29 658.844C1076.56 595.265 1124.05 546.319 1176.15 516.858C1206.08 499.934 1241.52 492.106 1274.04 478.815C1411.95 422.478 1535.99 508.434 1623.12 436.549C1716.81 359.2 1714.17 272.309 1697.46 228.071C1676.28 172.012 1602.45 52.2455 1457.17 82.0843C1397.28 94.3859 1335.12 104.364 1273.21 100.229C1182.04 94.3195 1093.73 23.9495 1085.75 -66.257C1080.23 -128.668 1110.44 -194.479 1087.76 -253.871C1072.3 -294.542 1034.43 -323.242 993.635 -335.169C952.458 -347.207 908.31 -344.282 866.186 -334.712" stroke="#FBFBFB" stroke-miterlimit="10"/>
<path d="M904.423 1346.28C850.854 1307.02 843.639 1222.61 875.4 1163.2C905.684 1106.56 961.639 1068.48 1012.58 1029.99C1062.32 992.414 1110.43 946.154 1119.42 887.46C1130.77 812.462 1075.67 740.411 1085.19 660.9C1092.92 596.377 1136.88 545.818 1187.3 513.43C1216.76 494.5 1252.48 484.145 1286.07 469.911C1419.21 413.487 1540.34 494.714 1625.69 424.547C1716.78 349.541 1716.39 264.95 1700.77 220.413C1681.2 164.601 1609.81 49.6718 1469.62 75.0649C1410.86 85.7075 1349.23 93.8034 1287.94 89.4113C1199.17 83.397 1113.55 16.2732 1103.6 -70.5359C1096.64 -131.241 1123.8 -196.138 1101.59 -254.972C1086.25 -296.023 1049.9 -325.572 1010.37 -339.481C970.036 -353.671 926.1 -353.752 883.408 -346.407" stroke="#F6F6F6" stroke-miterlimit="10"/>
<path d="M908.62 1346.06C855.154 1303.79 845.611 1217.96 877.463 1156.22C907.151 1098.68 963.562 1059.65 1015.58 1022.01C1065.75 985.707 1114.46 942.142 1125.93 885.649C1140.39 813.488 1091.11 742.031 1101.09 662.954C1109.35 597.495 1149.71 545.238 1198.45 509.997C1227.46 489.022 1263.45 476.198 1298.1 461.001C1426.53 404.677 1544.7 480.987 1628.26 412.538C1716.74 339.874 1718.61 257.594 1704.09 212.746C1686.1 157.197 1617.11 47.0176 1482.07 68.037C1424.41 77.0132 1363.36 83.0607 1302.66 78.5855C1216.33 72.2188 1133.35 8.56802 1121.45 -74.8215C1113.03 -133.842 1137.02 -197.749 1115.43 -256.08C1100.1 -297.473 1065.37 -327.946 1027.11 -343.802C987.598 -360.175 943.895 -363.231 900.632 -358.11" stroke="#F2F2F2" stroke-miterlimit="10"/>
<path d="M912.82 1345.83C859.458 1300.56 847.605 1213.31 879.529 1149.24C908.64 1090.81 965.474 1050.81 1018.58 1014.02C1069.17 978.986 1118.49 938.124 1132.44 883.835C1150 814.508 1106.55 743.647 1116.99 665.004C1125.81 598.609 1162.53 544.583 1209.6 506.563C1238.15 483.504 1274.42 468.267 1310.14 452.09C1433.91 396.027 1549.05 467.261 1630.83 400.526C1716.72 330.206 1720.82 250.246 1707.41 205.079C1690.99 149.803 1624.34 44.2753 1494.53 61.0078C1437.92 68.3028 1377.48 72.4402 1317.39 67.7584C1233.48 61.22 1153.11 0.839383 1139.31 -79.112C1129.41 -136.47 1150.36 -199.408 1129.27 -257.192C1114.03 -298.956 1080.82 -330.36 1043.85 -348.126C1005.15 -366.717 961.693 -372.715 917.862 -369.817" stroke="#EEEEEE" stroke-miterlimit="10"/>
<path d="M917.024 1345.61C863.763 1297.34 849.618 1208.67 881.597 1142.25C910.15 1082.95 967.379 1041.95 1021.59 1006.04C1072.58 972.256 1122.63 934.144 1138.95 882.024C1159.76 815.575 1122.01 745.266 1132.89 667.057C1142.26 599.726 1175.33 543.863 1220.75 503.129C1248.83 477.95 1285.39 460.352 1322.17 443.179C1441.34 387.526 1553.41 453.533 1633.4 388.517C1716.69 320.539 1723.02 242.907 1710.73 197.413C1695.86 142.421 1631.5 41.4376 1506.98 53.9791C1451.4 59.5763 1391.61 61.824 1332.12 56.9299C1250.63 50.2273 1172.82 -6.90902 1157.17 -83.4003C1145.77 -139.116 1163.69 -201.065 1143.11 -258.303C1127.96 -300.438 1096.28 -332.81 1060.59 -352.449C1022.7 -373.293 979.49 -382.196 935.091 -381.522" stroke="#E9E9E9" stroke-miterlimit="10"/>
<path d="M921.213 1345.39C868.055 1294.11 851.631 1204.05 883.653 1135.27C911.663 1075.11 969.255 1033.09 1024.58 998.055C1075.97 965.514 1126.67 930.143 1145.45 880.215C1169.38 816.618 1137.47 746.888 1148.79 669.112C1158.72 600.846 1188.09 543.092 1231.9 499.7C1259.49 472.369 1296.36 452.462 1334.19 434.272C1448.81 379.162 1557.76 439.812 1635.95 376.512C1716.65 310.877 1725.19 235.58 1714.03 189.751C1700.7 135.052 1638.58 38.4918 1519.42 46.955C1464.83 50.8341 1405.72 51.2161 1346.83 46.1079C1267.77 39.2485 1192.46 -14.6695 1175.01 -87.6839C1162.08 -141.775 1177.02 -202.721 1156.94 -259.409C1141.88 -301.916 1111.72 -335.293 1077.31 -356.766C1040.24 -379.9 997.276 -391.671 952.305 -393.223" stroke="#E5E5E5" stroke-miterlimit="10"/>
<path d="M925.421 1345.16C872.365 1290.88 853.68 1199.43 885.726 1128.28C913.21 1067.27 971.14 1024.21 1027.59 990.07C1079.36 958.76 1130.72 926.143 1151.97 878.403C1179.01 817.659 1152.95 748.509 1164.69 671.165C1175.2 601.963 1200.83 542.269 1243.06 496.266C1270.15 466.754 1307.34 444.589 1346.23 425.361C1456.35 370.913 1562.13 426.084 1638.53 364.502C1716.62 301.212 1727.38 228.256 1717.35 182.085C1705.55 127.691 1643.99 20.2466 1531.88 39.9281C1479 49.2143 1419.85 40.6109 1361.56 35.2832C1284.92 28.2761 1212.07 -22.4474 1192.87 -91.9703C1178.38 -144.454 1190.38 -204.379 1170.78 -260.517C1155.82 -303.398 1127.2 -337.815 1094.06 -361.088C1057.8 -386.549 1015.08 -401.152 969.538 -404.926" stroke="#E1E1E1" stroke-miterlimit="10"/>
<path d="M929.622 1344.94C876.67 1287.66 855.739 1194.82 887.792 1121.3C914.765 1059.44 973.007 1015.33 1030.59 982.089C1082.73 951.995 1134.76 922.144 1158.49 876.595C1188.64 818.702 1168.44 750.135 1180.59 673.221C1191.68 603.087 1213.53 541.409 1254.21 492.837C1280.77 461.12 1318.33 436.742 1358.26 416.455C1463.92 362.777 1566.48 412.364 1641.1 352.496C1716.59 291.547 1729.54 220.943 1720.67 174.423C1710.37 120.339 1651.21 15.7622 1544.34 32.9044C1492.26 41.2586 1433.97 30.0126 1376.29 24.4615C1302.07 17.316 1231.6 -30.2333 1210.73 -96.2536C1194.64 -147.145 1203.73 -206.038 1184.62 -261.623C1169.76 -304.878 1142.68 -340.367 1110.8 -365.404C1075.37 -393.226 1032.88 -410.626 986.766 -416.624" stroke="#DCDCDC" stroke-miterlimit="10"/>
<path d="M933.815 1344.71C880.965 1284.43 857.805 1190.22 889.851 1114.32C916.326 1051.61 974.855 1006.42 1033.59 974.102C1086.09 945.212 1138.79 918.141 1164.99 874.783C1198.25 819.743 1183.93 751.759 1196.49 675.273C1208.16 604.206 1226.18 540.514 1265.36 489.403C1291.37 455.46 1329.32 428.914 1370.29 407.544C1471.53 354.731 1570.84 398.636 1643.66 340.486C1716.55 281.881 1731.67 213.631 1723.98 166.756C1715.16 112.989 1658.49 11.424 1556.78 25.8755C1505.4 33.176 1448.08 19.4165 1391.01 13.6348C1319.21 6.36011 1251.06 -38.028 1228.57 -100.542C1210.84 -149.852 1217.08 -207.704 1198.46 -262.733C1183.69 -306.365 1158.17 -342.952 1127.53 -369.728C1092.95 -399.941 1050.66 -420.108 1003.99 -428.331" stroke="#D8D8D8" stroke-miterlimit="10"/>
<path d="M938.015 1344.49C885.267 1281.21 859.894 1185.62 891.916 1107.33C917.905 1043.79 976.703 997.505 1036.59 966.117C1089.44 938.418 1142.82 914.139 1171.5 872.971C1207.86 820.783 1199.43 753.384 1212.39 677.326C1224.65 605.328 1238.81 539.596 1276.51 485.972C1301.95 449.786 1340.33 421.116 1382.32 398.635C1479.19 346.776 1575.19 384.912 1646.23 328.479C1716.52 272.215 1733.8 206.324 1727.3 159.092C1719.94 105.647 1665.84 7.25774 1569.24 18.8507C1518.45 24.9462 1462.21 8.83006 1405.74 2.81211C1336.35 -4.58253 1270.45 -45.815 1246.43 -104.826C1227.01 -152.56 1230.44 -209.368 1212.3 -263.84C1197.64 -307.849 1173.69 -345.559 1144.27 -374.045C1110.56 -406.68 1068.46 -429.583 1021.21 -440.03" stroke="#D4D4D4" stroke-miterlimit="10"/>
<path d="M942.203 1344.26C889.558 1277.98 861.988 1181.03 893.971 1100.35C919.487 1035.98 978.53 988.57 1039.58 958.132C1092.78 931.607 1146.84 910.134 1178 871.159C1217.46 821.817 1214.93 755.009 1228.28 679.378C1241.15 606.45 1251.38 538.66 1287.65 482.537C1312.49 444.096 1351.34 413.342 1394.34 389.723C1486.88 338.896 1579.54 371.183 1648.79 316.466C1716.48 262.547 1735.9 199.018 1730.6 151.422C1724.69 98.3014 1673.12 21.5131 1581.68 11.819C1531.45 6.49309 1476.32 -1.75782 1420.45 -8.01752C1353.49 -15.5229 1289.74 -53.5996 1264.27 -109.118C1243.1 -155.27 1243.8 -211.041 1226.12 -264.953C1211.57 -309.343 1189.22 -348.191 1161 -378.371C1128.19 -413.448 1086.25 -439.07 1038.43 -451.74" stroke="#CFCFCF" stroke-miterlimit="10"/>
<path d="M946.411 1344.04C893.868 1274.75 864.116 1176.45 896.044 1093.36C921.099 1028.16 980.369 979.622 1042.59 950.147C1096.12 924.785 1150.87 906.126 1184.52 869.347C1227.07 822.849 1230.46 756.637 1244.19 681.43C1257.66 607.574 1263.94 537.714 1298.81 479.105C1323.02 438.4 1362.39 405.605 1406.38 380.813C1494.62 331.088 1584.01 357.596 1651.36 304.459C1716.56 253.016 1738 191.716 1733.92 143.759C1729.44 90.9646 1679.92 17.57 1594.14 4.79409C1544.7 -2.56918 1490.44 -12.3315 1435.18 -18.8422C1370.63 -26.4472 1308.98 -61.359 1282.13 -113.404C1259.15 -157.962 1257.17 -212.71 1239.97 -266.062C1225.53 -310.832 1204.79 -350.835 1177.74 -382.691C1145.86 -420.229 1104.05 -448.547 1055.66 -463.441" stroke="#CBCBCB" stroke-miterlimit="10"/>
<path d="M950.602 1343.81C898.162 1271.52 866.242 1171.87 898.099 1086.38C922.704 1020.36 982.185 970.657 1045.58 942.164C1099.45 917.952 1154.88 902.118 1191.02 867.538C1236.66 823.881 1245.98 758.268 1260.08 683.486C1274.17 608.702 1276.46 536.765 1309.95 475.674C1333.51 432.699 1373.44 397.906 1418.4 371.907C1502.38 323.348 1588.36 343.875 1653.92 292.454C1716.52 243.353 1740.07 184.417 1737.23 136.098C1734.15 83.6325 1686.71 13.4194 1606.58 -2.22989C1557.93 -11.732 1504.55 -22.895 1449.9 -29.664C1387.77 -37.3595 1328.11 -69.0824 1299.98 -117.687C1275.13 -160.625 1270.54 -214.377 1253.8 -267.167C1239.48 -312.319 1220.37 -353.484 1194.47 -387.009C1163.55 -427.022 1121.83 -458.023 1072.88 -475.144" stroke="#C7C7C7" stroke-miterlimit="10"/>
<path d="M954.809 1343.59C902.472 1268.3 868.398 1167.3 900.173 1079.4C924.337 1012.55 984.013 961.676 1048.59 934.181C1102.79 911.104 1158.91 898.105 1197.54 865.729C1246.26 824.906 1261.52 759.902 1275.99 685.541C1290.71 609.832 1288.96 535.812 1321.11 472.244C1344 426.996 1384.53 390.246 1430.44 363C1510.2 315.665 1592.72 330.151 1656.49 280.447C1716.49 233.685 1742.14 177.115 1740.56 128.433C1738.86 76.2922 1693.53 9.05025 1619.04 -9.25642C1571.19 -21.0155 1518.68 -33.4519 1464.63 -40.4885C1404.92 -48.2633 1347.19 -76.7641 1317.84 -121.973C1291.04 -163.254 1283.93 -216.048 1267.64 -268.274C1253.45 -313.808 1235.99 -356.142 1211.21 -391.327C1181.28 -433.825 1139.63 -467.501 1090.11 -486.843" stroke="#C2C2C2" stroke-miterlimit="10"/>
<path d="M959 1343.37C906.765 1265.07 870.556 1162.72 902.229 1072.41C925.961 1004.75 985.816 952.677 1051.58 926.195C1106.11 904.24 1162.91 894.085 1204.04 863.916C1255.84 825.924 1277.05 761.533 1291.87 687.592C1307.23 610.961 1301.41 534.859 1332.25 468.809C1354.44 421.286 1395.64 382.626 1442.46 354.088C1518.03 308.028 1597.06 316.419 1659.05 268.436C1716.44 224.011 1744.16 169.809 1743.86 120.767C1743.54 68.9487 1700.4 4.46568 1631.48 -16.2843C1584.47 -30.4406 1532.78 -44.0009 1479.35 -51.3143C1422.04 -59.1592 1366.17 -84.39 1335.68 -126.261C1306.88 -165.827 1297.3 -217.724 1281.47 -269.385C1267.4 -315.305 1251.62 -358.805 1227.94 -395.651C1199.03 -440.639 1157.42 -476.983 1107.33 -498.549" stroke="#BEBEBE" stroke-miterlimit="10"/>
<path d="M963.203 1343.14C911.072 1261.85 872.737 1158.16 904.297 1065.43C927.607 996.946 987.631 943.658 1054.59 918.211C1109.44 897.363 1166.93 890.061 1210.56 862.106C1265.44 826.938 1292.61 763.171 1307.78 689.647C1323.78 612.095 1313.85 533.911 1343.4 465.379C1364.88 415.582 1406.79 375.064 1454.5 345.181C1525.92 300.44 1601.41 302.688 1661.62 256.431C1716.41 214.338 1746.19 162.504 1747.18 113.105C1748.21 61.6085 1707.37 -0.316806 1643.94 -23.3072C1597.83 -40.0212 1546.9 -54.5318 1494.08 -62.135C1439.18 -70.0371 1385.1 -91.9387 1353.54 -130.543C1322.65 -168.323 1310.69 -219.393 1295.31 -270.488C1281.37 -316.793 1267.27 -361.46 1244.68 -399.965C1216.82 -447.446 1175.22 -486.455 1124.55 -510.246" stroke="#BABABA" stroke-miterlimit="10"/>
<path d="M967.399 1342.92C915.369 1258.62 874.927 1153.59 906.36 1058.44C929.254 989.143 989.436 934.622 1057.59 910.225C1112.76 890.474 1170.9 885.945 1217.07 860.294C1274.97 827.834 1308.16 764.805 1323.67 691.699C1340.33 613.227 1326.26 532.966 1354.55 461.944C1375.29 409.874 1417.98 367.553 1466.53 336.269C1533.84 292.886 1605.67 288.836 1664.19 244.418C1716.29 204.557 1748.19 155.186 1750.49 105.435C1752.86 54.2501 1714.46 -5.29081 1656.39 -30.3388C1611.29 -49.7915 1561.01 -65.0588 1508.8 -72.9646C1456.32 -80.9128 1403.99 -99.4133 1371.39 -134.834C1338.36 -170.735 1324.09 -221.073 1309.15 -271.601C1295.35 -318.292 1282.95 -364.122 1261.42 -404.291C1234.63 -454.262 1193.01 -495.939 1141.78 -521.954" stroke="#B5B5B5" stroke-miterlimit="10"/>
<path d="M971.601 1342.69C919.675 1255.39 877.136 1149.03 908.427 1051.46C930.915 981.345 991.244 925.568 1060.59 902.242C1116.09 883.574 1174.93 881.933 1223.58 858.483C1284.59 828.86 1323.72 766.446 1339.58 693.754C1356.89 614.366 1338.66 532.032 1365.71 458.516C1385.7 404.175 1429.23 360.115 1478.56 327.363C1541.8 285.374 1610.03 275.113 1666.76 232.413C1716.26 194.894 1750.18 147.869 1753.81 97.7745C1757.5 46.8979 1721.74 -10.4046 1668.85 -37.3608C1624.92 -59.7458 1575.12 -75.5612 1523.53 -83.7844C1473.45 -91.7678 1422.84 -106.786 1389.25 -139.116C1354.01 -173.029 1337.48 -222.745 1322.99 -272.705C1309.33 -319.785 1298.64 -366.77 1278.15 -408.606C1252.46 -461.064 1210.81 -505.414 1159 -533.652" stroke="#B1B1B1" stroke-miterlimit="10"/>
<path d="M975.8 1342.47C923.974 1252.17 879.354 1144.46 910.492 1044.48C932.582 973.542 993.049 916.495 1063.59 894.255C1119.41 876.657 1178.96 877.916 1230.09 856.669C1294.2 829.883 1339.43 768.116 1355.47 695.805C1373.61 615.538 1351.04 531.102 1376.86 455.08C1396.08 398.475 1440.53 352.749 1490.59 318.45C1549.8 277.882 1614.39 261.383 1669.32 220.402C1716.23 185.226 1752.14 140.537 1757.13 90.1052C1762.12 39.5257 1729.25 -15.6324 1681.3 -44.3915C1638.75 -69.9102 1589.23 -86.054 1538.25 -94.615C1490.58 -102.62 1441.68 -114.064 1407.1 -143.408C1369.62 -175.209 1350.98 -224.454 1336.83 -273.819C1323.4 -321.313 1314.35 -369.422 1294.89 -412.933C1270.32 -467.874 1228.6 -514.899 1176.23 -545.361" stroke="#ADADAD" stroke-miterlimit="10"/>
<path d="M979.995 1342.24C928.273 1248.94 881.726 1139.95 912.552 1037.5C934.35 965.779 994.849 907.407 1066.58 886.274C1122.73 869.733 1182.99 873.906 1236.6 854.863C1303.81 830.911 1354.93 769.748 1371.37 697.863C1390.11 616.669 1363.4 530.187 1388.01 451.651C1406.45 392.783 1451.91 345.476 1502.62 309.543C1557.83 270.417 1618.74 247.662 1671.89 208.397C1716.19 175.563 1754.09 133.205 1760.44 82.4447C1766.73 32.1549 1737.02 -20.8939 1693.75 -51.4154C1652.86 -80.2577 1603.32 -96.5215 1552.98 -105.437C1507.7 -113.453 1460.54 -121.228 1424.95 -147.692C1385.21 -177.246 1364.34 -226.117 1350.66 -274.925C1337.35 -322.797 1330.07 -372.055 1311.62 -417.25C1288.19 -474.665 1246.39 -524.373 1193.45 -557.062" stroke="#A8A8A8" stroke-miterlimit="10"/>
<path d="M984.201 1342.02C932.581 1245.71 883.834 1135.35 914.623 1030.51C935.934 957.946 996.659 898.298 1069.59 878.288C1126.06 862.796 1187.03 869.891 1243.11 853.05C1313.43 831.935 1370.44 771.375 1387.28 699.914C1406.62 617.793 1375.76 529.275 1399.16 448.218C1416.81 387.095 1463.39 338.302 1514.66 300.633C1565.92 262.964 1623.11 233.936 1674.46 196.387C1716.17 165.897 1756.03 125.856 1763.76 74.7784C1771.33 24.7673 1745.12 -26.1242 1706.21 -58.4432C1667.3 -90.7622 1617.43 -106.971 1567.71 -116.262C1524.83 -124.275 1479.44 -128.291 1442.81 -151.979C1400.81 -179.147 1377.71 -227.782 1364.51 -276.034C1351.3 -324.287 1345.81 -374.685 1328.37 -421.572C1306.09 -481.455 1264.2 -533.856 1210.69 -568.766" stroke="#A4A4A4" stroke-miterlimit="10"/>
</g>
</svg>
