<svg width="1400" height="787" viewBox="0 0 1400 787" fill="none" xmlns="http://www.w3.org/2000/svg">
<g opacity="0.1" clip-path="url(#clip0)">
<path d="M-197.047 -24.4364C400.904 -416.605 667.293 587.235 1454.48 -547.791" stroke="#0C033E" stroke-miterlimit="10" stroke-linecap="round" stroke-linejoin="round" stroke-dasharray="1 11"/>
<path d="M-193.316 -7.56727C425.247 -422.361 691.439 582.67 1462.14 -518.021" stroke="#140B44" stroke-width="1.0645" stroke-miterlimit="10" stroke-linecap="round" stroke-linejoin="round" stroke-dasharray="1 11"/>
<path d="M-189.586 9.10391C449.786 -428.116 715.586 578.106 1469.99 -488.648" stroke="#1C134A" stroke-width="1.129" stroke-miterlimit="10" stroke-linecap="round" stroke-linejoin="round" stroke-dasharray="1 11"/>
<path d="M-186.055 25.7752C473.929 -434.07 739.533 573.342 1477.45 -459.275" stroke="#241B51" stroke-width="1.1935" stroke-miterlimit="10" stroke-linecap="round" stroke-linejoin="round" stroke-dasharray="1 11"/>
<path d="M-182.324 42.6446C498.468 -439.627 763.679 568.778 1485.3 -429.704" stroke="#2B2457" stroke-width="1.2581" stroke-miterlimit="10" stroke-linecap="round" stroke-linejoin="round" stroke-dasharray="1 11"/>
<path d="M-178.594 59.3157C522.811 -445.581 787.826 564.014 1493.16 -400.133" stroke="#332C5D" stroke-width="1.3226" stroke-miterlimit="10" stroke-linecap="round" stroke-linejoin="round" stroke-dasharray="1 11"/>
<path d="M-175.062 76.1862C547.151 -451.138 811.969 559.451 1500.81 -370.561" stroke="#3B3463" stroke-width="1.3871" stroke-miterlimit="10" stroke-linecap="round" stroke-linejoin="round" stroke-dasharray="1 11"/>
<path d="M-171.332 92.8564C571.494 -457.093 835.919 554.687 1508.47 -341.188" stroke="#433C6A" stroke-width="1.4516" stroke-miterlimit="10" stroke-linecap="round" stroke-linejoin="round" stroke-dasharray="1 11"/>
<path d="M-167.602 109.727C595.836 -462.649 860.065 550.122 1516.12 -311.616" stroke="#4B4470" stroke-width="1.5161" stroke-miterlimit="10" stroke-linecap="round" stroke-linejoin="round" stroke-dasharray="1 11"/>
<path d="M-163.871 126.398C620.375 -468.404 884.212 545.558 1523.98 -282.045" stroke="#534C76" stroke-width="1.5806" stroke-miterlimit="10" stroke-linecap="round" stroke-linejoin="round" stroke-dasharray="1 11"/>
<path d="M-160.34 143.267C644.519 -474.16 908.159 540.993 1531.63 -252.474" stroke="#5A547C" stroke-width="1.6452" stroke-miterlimit="10" stroke-linecap="round" stroke-linejoin="round" stroke-dasharray="1 11"/>
<path d="M-156.609 159.939C669.058 -480.114 932.502 536.23 1539.29 -223.101" stroke="#625C82" stroke-width="1.7097" stroke-miterlimit="10" stroke-linecap="round" stroke-linejoin="round" stroke-dasharray="1 11"/>
<path d="M-152.879 176.609C693.401 -485.869 956.648 531.466 1547.14 -193.529" stroke="#6A6589" stroke-width="1.7742" stroke-miterlimit="10" stroke-linecap="round" stroke-linejoin="round" stroke-dasharray="1 11"/>
<path d="M-149.148 193.479C717.939 -491.427 980.794 526.902 1554.8 -163.958" stroke="#726D8F" stroke-width="1.8387" stroke-miterlimit="10" stroke-linecap="round" stroke-linejoin="round" stroke-dasharray="1 11"/>
<path d="M-145.613 210.15C742.087 -497.381 1004.75 522.337 1562.45 -134.585" stroke="#7A7595" stroke-width="1.9032" stroke-miterlimit="10" stroke-linecap="round" stroke-linejoin="round" stroke-dasharray="1 11"/>
<path d="M-141.887 227.02C766.622 -503.136 1028.89 517.772 1570.3 -105.014" stroke="#827D9B" stroke-width="1.9677" stroke-miterlimit="10" stroke-linecap="round" stroke-linejoin="round" stroke-dasharray="1 11"/>
<path d="M-138.156 243.691C790.965 -508.892 1053.03 513.009 1577.96 -75.4424" stroke="#8985A2" stroke-width="2.0323" stroke-miterlimit="10" stroke-linecap="round" stroke-linejoin="round" stroke-dasharray="1 11"/>
<path d="M-134.426 260.56C815.307 -514.647 1076.98 508.444 1585.62 -45.8711" stroke="#918DA8" stroke-width="2.0968" stroke-miterlimit="10" stroke-linecap="round" stroke-linejoin="round" stroke-dasharray="1 11"/>
<path d="M-130.891 277.231C839.651 -520.403 1101.13 503.681 1593.47 -16.4981" stroke="#9995AE" stroke-width="2.1613" stroke-miterlimit="10" stroke-linecap="round" stroke-linejoin="round" stroke-dasharray="1 11"/>
<path d="M-127.16 294.101C864.19 -525.96 1125.28 499.116 1601.13 13.0732" stroke="#A19DB4" stroke-width="2.2258" stroke-miterlimit="10" stroke-linecap="round" stroke-linejoin="round" stroke-dasharray="1 11"/>
<path d="M-123.434 310.773C888.529 -531.914 1149.42 494.552 1608.78 42.6451" stroke="#A9A6BB" stroke-width="2.2903" stroke-miterlimit="10" stroke-linecap="round" stroke-linejoin="round" stroke-dasharray="1 11"/>
<path d="M-119.898 327.642C912.873 -537.47 1173.37 489.987 1616.44 72.2166" stroke="#B1AEC1" stroke-width="2.3548" stroke-miterlimit="10" stroke-linecap="round" stroke-linejoin="round" stroke-dasharray="1 11"/>
<path d="M-116.168 344.313C937.215 -543.227 1197.52 485.223 1624.29 101.589" stroke="#B8B6C7" stroke-width="2.4193" stroke-miterlimit="10" stroke-linecap="round" stroke-linejoin="round" stroke-dasharray="1 11"/>
<path d="M-112.438 360.984C961.754 -549.18 1221.66 480.461 1632.14 130.962" stroke="#C0BECD" stroke-width="2.4839" stroke-miterlimit="10" stroke-linecap="round" stroke-linejoin="round" stroke-dasharray="1 11"/>
<path d="M-108.707 377.854C986.097 -554.936 1245.81 475.896 1639.8 160.732" stroke="#C8C6D3" stroke-width="2.5484" stroke-miterlimit="10" stroke-linecap="round" stroke-linejoin="round" stroke-dasharray="1 11"/>
<path d="M-105.176 394.525C1010.44 -560.691 1269.76 471.133 1647.45 190.105" stroke="#D0CEDA" stroke-width="2.6129" stroke-miterlimit="10" stroke-linecap="round" stroke-linejoin="round" stroke-dasharray="1 11"/>
<path d="M-101.445 411.395C1034.78 -566.248 1293.9 466.568 1655.11 219.677" stroke="#D8D6E0" stroke-width="2.6774" stroke-miterlimit="10" stroke-linecap="round" stroke-linejoin="round" stroke-dasharray="1 11"/>
<path d="M-97.7148 428.066C1059.32 -572.202 1318.05 462.003 1662.96 249.248" stroke="#E0DEE6" stroke-width="2.7419" stroke-miterlimit="10" stroke-linecap="round" stroke-linejoin="round" stroke-dasharray="1 11"/>
<path d="M-93.9844 444.936C1083.66 -577.759 1342.2 457.439 1670.82 278.82" stroke="#E7E7EC" stroke-width="2.8064" stroke-miterlimit="10" stroke-linecap="round" stroke-linejoin="round" stroke-dasharray="1 11"/>
<path d="M-90.4531 461.606C1108 -583.714 1366.34 452.675 1678.27 308.192" stroke="#EFEFF3" stroke-width="2.871" stroke-miterlimit="10" stroke-linecap="round" stroke-linejoin="round" stroke-dasharray="1 11"/>
<path d="M-86.7227 478.476C1132.34 -589.27 1390.49 448.111 1686.13 337.764" stroke="#F7F7F9" stroke-width="2.9355" stroke-miterlimit="10" stroke-linecap="round" stroke-linejoin="round" stroke-dasharray="1 11"/>
<path d="M-82.9922 495.147C1156.88 -595.225 1414.63 443.347 1693.98 367.335" stroke="white" stroke-width="3" stroke-miterlimit="10" stroke-linecap="round" stroke-linejoin="round" stroke-dasharray="1 11"/>
<path d="M-369.406 89.4832C226.974 -214.17 290.185 1524.39 1603.28 9.10449" stroke="white" stroke-miterlimit="10" stroke-linecap="round" stroke-linejoin="round"/>
<path d="M-367.836 113.895C247.783 -237.787 326.698 1507.92 1608.58 40.8594" stroke="#FEFEFF" stroke-width="0.9758" stroke-miterlimit="10" stroke-linecap="round" stroke-linejoin="round"/>
<path d="M-366.266 138.504C268.788 -261.405 363.408 1491.45 1613.69 72.6133" stroke="#FDFDFE" stroke-width="0.9516" stroke-miterlimit="10" stroke-linecap="round" stroke-linejoin="round"/>
<path d="M-364.891 162.916C289.597 -285.022 399.921 1474.97 1618.79 104.368" stroke="#FCFDFE" stroke-width="0.9274" stroke-miterlimit="10" stroke-linecap="round" stroke-linejoin="round"/>
<path d="M-363.32 187.327C310.405 -308.639 436.434 1458.5 1623.9 136.123" stroke="#FBFCFE" stroke-width="0.9032" stroke-miterlimit="10" stroke-linecap="round" stroke-linejoin="round"/>
<path d="M-361.945 211.738C331.215 -332.455 472.948 1442.03 1628.8 167.877" stroke="#FAFBFD" stroke-width="0.879" stroke-miterlimit="10" stroke-linecap="round" stroke-linejoin="round"/>
<path d="M-360.375 236.348C352.219 -355.874 509.658 1425.75 1634.1 199.83" stroke="#F9FAFD" stroke-width="0.8548" stroke-miterlimit="10" stroke-linecap="round" stroke-linejoin="round"/>
<path d="M-358.805 260.76C373.224 -379.69 546.367 1409.28 1639.21 231.585" stroke="#F8F9FD" stroke-width="0.8306" stroke-miterlimit="10" stroke-linecap="round" stroke-linejoin="round"/>
<path d="M-357.434 285.171C394.03 -403.308 582.877 1392.81 1644.31 263.339" stroke="#F6F9FC" stroke-width="0.8065" stroke-miterlimit="10" stroke-linecap="round" stroke-linejoin="round"/>
<path d="M-355.859 309.78C414.842 -426.727 619.394 1376.34 1649.42 295.093" stroke="#F5F8FC" stroke-width="0.7823" stroke-miterlimit="10" stroke-linecap="round" stroke-linejoin="round"/>
<path d="M-354.293 334.191C435.646 -450.543 655.903 1359.86 1654.52 326.848" stroke="#F4F7FC" stroke-width="0.7581" stroke-miterlimit="10" stroke-linecap="round" stroke-linejoin="round"/>
<path d="M-352.918 358.603C456.456 -474.16 692.417 1343.39 1659.42 358.603" stroke="#F3F6FB" stroke-width="0.7339" stroke-miterlimit="10" stroke-linecap="round" stroke-linejoin="round"/>
<path d="M-351.348 383.014C477.46 -497.777 729.126 1326.92 1664.73 390.357" stroke="#F2F5FB" stroke-width="0.7097" stroke-miterlimit="10" stroke-linecap="round" stroke-linejoin="round"/>
<path d="M-349.777 407.624C498.465 -521.395 765.835 1310.64 1669.83 422.31" stroke="#F1F5FB" stroke-width="0.6855" stroke-miterlimit="10" stroke-linecap="round" stroke-linejoin="round"/>
<path d="M-348.402 432.035C519.078 -545.012 802.153 1294.17 1674.74 453.867" stroke="#F0F4FA" stroke-width="0.6613" stroke-miterlimit="10" stroke-linecap="round" stroke-linejoin="round"/>
<path d="M-346.832 456.446C540.083 -568.63 838.862 1277.7 1680.04 485.621" stroke="#EFF3FA" stroke-width="0.6371" stroke-miterlimit="10" stroke-linecap="round" stroke-linejoin="round"/>
<path d="M-345.258 481.056C561.091 -592.247 875.575 1261.42 1685.15 517.574" stroke="#EEF2FA" stroke-width="0.6129" stroke-miterlimit="10" stroke-linecap="round" stroke-linejoin="round"/>
<path d="M-343.887 505.468C581.701 -615.864 911.889 1244.75 1690.05 549.329" stroke="#EDF1FA" stroke-width="0.5887" stroke-miterlimit="10" stroke-linecap="round" stroke-linejoin="round"/>
<path d="M-342.316 529.879C602.705 -639.681 948.598 1228.28 1695.35 581.083" stroke="#ECF0F9" stroke-width="0.5645" stroke-miterlimit="10" stroke-linecap="round" stroke-linejoin="round"/>
<path d="M-340.746 554.29C623.71 -663.298 985.307 1211.81 1700.45 612.639" stroke="#EBF0F9" stroke-width="0.5403" stroke-miterlimit="10" stroke-linecap="round" stroke-linejoin="round"/>
<path d="M-339.371 578.9C644.323 -686.716 1021.63 1195.53 1705.36 644.592" stroke="#EAEFF9" stroke-width="0.5161" stroke-miterlimit="10" stroke-linecap="round" stroke-linejoin="round"/>
<path d="M-337.801 603.311C665.328 -710.533 1058.33 1179.06 1710.66 676.347" stroke="#E9EEF8" stroke-width="0.4919" stroke-miterlimit="10" stroke-linecap="round" stroke-linejoin="round"/>
<path d="M-336.23 627.723C686.333 -734.15 1095.04 1162.59 1715.77 708.102" stroke="#E8EDF8" stroke-width="0.4677" stroke-miterlimit="10" stroke-linecap="round" stroke-linejoin="round"/>
<path d="M-334.855 652.332C707.142 -757.569 1131.56 1146.31 1720.67 740.054" stroke="#E7ECF8" stroke-width="0.4435" stroke-miterlimit="10" stroke-linecap="round" stroke-linejoin="round"/>
<path d="M-333.285 676.744C727.95 -781.385 1168.07 1129.64 1725.97 771.61" stroke="#E5ECF7" stroke-width="0.4194" stroke-miterlimit="10" stroke-linecap="round" stroke-linejoin="round"/>
<path d="M-331.715 701.155C748.955 -805.002 1204.78 1113.17 1731.08 803.365" stroke="#E4EBF7" stroke-width="0.3952" stroke-miterlimit="10" stroke-linecap="round" stroke-linejoin="round"/>
<path d="M-330.34 725.567C769.764 -828.818 1241.29 1096.7 1735.99 835.12" stroke="#E3EAF7" stroke-width="0.371" stroke-miterlimit="10" stroke-linecap="round" stroke-linejoin="round"/>
<path d="M-328.77 750.176C790.573 -852.238 1277.81 1080.42 1741.29 867.072" stroke="#E2E9F6" stroke-width="0.3468" stroke-miterlimit="10" stroke-linecap="round" stroke-linejoin="round"/>
<path d="M-327.199 774.587C811.578 -875.855 1314.52 1063.95 1746.39 898.827" stroke="#E1E8F6" stroke-width="0.3226" stroke-miterlimit="10" stroke-linecap="round" stroke-linejoin="round"/>
<path d="M-325.828 798.998C832.383 -899.671 1351.03 1047.48 1751.3 930.383" stroke="#E0E8F6" stroke-width="0.2984" stroke-miterlimit="10" stroke-linecap="round" stroke-linejoin="round"/>
<path d="M-324.254 823.608C853.195 -923.09 1387.54 1031.2 1756.6 962.336" stroke="#DFE7F5" stroke-width="0.2742" stroke-miterlimit="10" stroke-linecap="round" stroke-linejoin="round"/>
<path d="M-322.684 848.02C874.2 -946.707 1424.25 1014.73 1761.7 994.091" stroke="#DEE6F5" stroke-width="0.25" stroke-miterlimit="10" stroke-linecap="round" stroke-linejoin="round"/>
<path d="M1560.1 830.158C816.093 1166.36 737.767 514.994 -132.266 883.744" stroke="#DEE6F5" stroke-width="2.6774" stroke-miterlimit="10" stroke-linecap="round" stroke-linejoin="round" stroke-dasharray="1 11"/>
<path d="M1562.45 811.899C798.816 1167.95 713.226 495.742 -134.035 850.401" stroke="#D8E1F3" stroke-width="2.6129" stroke-miterlimit="10" stroke-linecap="round" stroke-linejoin="round" stroke-dasharray="1 11"/>
<path d="M1564.81 793.838C781.542 1169.73 688.492 476.69 -135.801 817.059" stroke="#D1DCF1" stroke-width="2.5484" stroke-miterlimit="10" stroke-linecap="round" stroke-linejoin="round" stroke-dasharray="1 11"/>
<path d="M1566.97 775.778C764.269 1171.52 663.76 457.637 -137.762 783.915" stroke="#CBD6EF" stroke-width="2.4839" stroke-miterlimit="10" stroke-linecap="round" stroke-linejoin="round" stroke-dasharray="1 11"/>
<path d="M1569.32 757.718C746.991 1173.3 639.022 438.585 -139.531 750.573" stroke="#C4D1ED" stroke-width="2.4193" stroke-miterlimit="10" stroke-linecap="round" stroke-linejoin="round" stroke-dasharray="1 11"/>
<path d="M1571.48 739.459C729.718 1174.89 614.29 419.333 -141.492 717.23" stroke="#BECCEB" stroke-width="2.3548" stroke-miterlimit="10" stroke-linecap="round" stroke-linejoin="round" stroke-dasharray="1 11"/>
<path d="M1573.84 721.398C712.44 1176.68 589.552 400.281 -143.262 684.087" stroke="#B7C7E9" stroke-width="2.2903" stroke-miterlimit="10" stroke-linecap="round" stroke-linejoin="round" stroke-dasharray="1 11"/>
<path d="M1576.19 703.338C695.168 1178.46 564.82 381.228 -145.223 650.744" stroke="#B0C2E7" stroke-width="2.2258" stroke-miterlimit="10" stroke-linecap="round" stroke-linejoin="round" stroke-dasharray="1 11"/>
<path d="M1578.35 685.278C677.891 1180.05 540.083 362.176 -147.188 617.601" stroke="#AABDE5" stroke-width="2.1613" stroke-miterlimit="10" stroke-linecap="round" stroke-linejoin="round" stroke-dasharray="1 11"/>
<path d="M1580.71 667.019C660.617 1181.84 515.35 342.924 -148.953 584.258" stroke="#A3B8E3" stroke-width="2.0968" stroke-miterlimit="10" stroke-linecap="round" stroke-linejoin="round" stroke-dasharray="1 11"/>
<path d="M1583.06 648.959C643.343 1183.43 490.616 323.871 -150.719 550.916" stroke="#9DB3E1" stroke-width="2.0323" stroke-miterlimit="10" stroke-linecap="round" stroke-linejoin="round" stroke-dasharray="1 11"/>
<path d="M1585.22 630.898C625.87 1185.21 465.88 304.819 -152.684 517.773" stroke="#96AEDE" stroke-width="1.9677" stroke-miterlimit="10" stroke-linecap="round" stroke-linejoin="round" stroke-dasharray="1 11"/>
<path d="M1587.58 612.837C608.792 1187 441.342 285.567 -154.449 484.43" stroke="#90A9DC" stroke-width="1.9032" stroke-miterlimit="10" stroke-linecap="round" stroke-linejoin="round" stroke-dasharray="1 11"/>
<path d="M1589.74 594.777C591.515 1188.59 416.606 266.515 -156.414 451.287" stroke="#89A4DA" stroke-width="1.8387" stroke-miterlimit="10" stroke-linecap="round" stroke-linejoin="round" stroke-dasharray="1 11"/>
<path d="M1592.09 576.518C574.242 1190.37 391.872 247.462 -158.18 417.944" stroke="#839FD8" stroke-width="1.7742" stroke-miterlimit="10" stroke-linecap="round" stroke-linejoin="round" stroke-dasharray="1 11"/>
<path d="M1594.45 558.458C556.772 1192.16 367.14 228.409 -160.141 384.602" stroke="#7C9AD6" stroke-width="1.7097" stroke-miterlimit="10" stroke-linecap="round" stroke-linejoin="round" stroke-dasharray="1 11"/>
<path d="M1596.61 540.398C539.495 1193.75 342.402 209.158 -161.91 351.458" stroke="#7595D4" stroke-width="1.6452" stroke-miterlimit="10" stroke-linecap="round" stroke-linejoin="round" stroke-dasharray="1 11"/>
<path d="M1598.97 522.337C522.222 1195.53 317.67 190.105 -163.871 318.116" stroke="#6F90D2" stroke-width="1.5806" stroke-miterlimit="10" stroke-linecap="round" stroke-linejoin="round" stroke-dasharray="1 11"/>
<path d="M1601.32 504.079C504.944 1197.32 292.932 171.053 -165.641 284.973" stroke="#688BD0" stroke-width="1.5161" stroke-miterlimit="10" stroke-linecap="round" stroke-linejoin="round" stroke-dasharray="1 11"/>
<path d="M1603.48 486.018C487.671 1198.91 268.2 152 -167.602 251.63" stroke="#6285CE" stroke-width="1.4516" stroke-miterlimit="10" stroke-linecap="round" stroke-linejoin="round" stroke-dasharray="1 11"/>
<path d="M1605.83 467.957C470.393 1200.69 243.463 132.748 -169.371 218.287" stroke="#5B80CC" stroke-width="1.3871" stroke-miterlimit="10" stroke-linecap="round" stroke-linejoin="round" stroke-dasharray="1 11"/>
<path d="M1607.99 449.898C453.121 1202.48 218.73 113.696 -171.332 185.144" stroke="#557BCA" stroke-width="1.3226" stroke-miterlimit="10" stroke-linecap="round" stroke-linejoin="round" stroke-dasharray="1 11"/>
<path d="M1610.35 431.638C435.847 1204.07 193.996 94.4449 -173.098 151.802" stroke="#4E76C8" stroke-width="1.2581" stroke-miterlimit="10" stroke-linecap="round" stroke-linejoin="round" stroke-dasharray="1 11"/>
<path d="M1612.71 413.578C418.57 1205.85 169.456 75.3921 -175.062 118.459" stroke="#4871C6" stroke-width="1.1935" stroke-miterlimit="10" stroke-linecap="round" stroke-linejoin="round" stroke-dasharray="1 11"/>
<path d="M1614.87 395.518C401.296 1207.64 144.723 56.3398 -176.828 85.3159" stroke="#416CC4" stroke-width="1.129" stroke-miterlimit="10" stroke-linecap="round" stroke-linejoin="round" stroke-dasharray="1 11"/>
<path d="M1617.22 377.457C384.019 1209.23 119.986 37.2866 -178.793 51.973" stroke="#3B67C2" stroke-width="1.0645" stroke-miterlimit="10" stroke-linecap="round" stroke-linejoin="round" stroke-dasharray="1 11"/>
<path d="M1619.58 359.397C366.745 1211.01 95.2527 18.2339 -180.559 18.8293" stroke="#3462C0" stroke-miterlimit="10" stroke-linecap="round" stroke-linejoin="round" stroke-dasharray="1 11"/>
</g>
<defs>
<clipPath id="clip0">
<rect width="1510" height="824" fill="white" transform="translate(-40 -37)"/>
</clipPath>
</defs>
</svg>
