<svg width="154" height="26" viewBox="0 0 154 26" fill="none" xmlns="http://www.w3.org/2000/svg">
<path fill-rule="evenodd" clip-rule="evenodd" d="M21.7169 24.1697H28.4745V1.46892H21.7169V24.1697ZM33.8621 24.1697H51.3529V19.6566H40.6196V15.0105H50.028V10.6289H40.6196V5.98278H51.3529V1.46892H33.8621V24.1697ZM69.84 14.944L63.8769 1.46892H55.0654V24.1697H60.4981V10.6289L66.4612 24.1697H70.9001L77.3264 10.297V24.1697H84.0841V1.46892H76.0671L69.84 14.944ZM127.011 15.4081L118.53 1.46892H111.109V24.1697H115.879V10.1648L124.425 24.1697H131.781V1.46892H127.011V15.4081ZM89.3945 24.1697H106.885V19.6566H96.1521V15.0105H105.56V10.6289H96.1521V5.98278H106.885V1.46892H89.3945V24.1697ZM14.4321 11.8906C12.5111 11.0281 9.52995 9.50105 7.47529 8.57199C5.54607 7.69879 5.48786 3.12907 16.618 6.51426V2.20001C14.2993 1.40321 7.93935 -0.12387 3.16919 2.53188C-1.60098 5.1868 -0.474437 11.7584 3.16919 13.9492C4.75897 14.8117 6.94563 15.6085 9.72837 16.8029C12.0339 17.7928 13.4384 22.8439 0.253632 19.3921V23.8395C2.96995 24.8351 12.9079 25.8972 15.8227 22.6442C19.463 18.583 17.8109 13.2846 14.4321 11.8906ZM149.964 11.8906C148.043 11.0281 145.062 9.50105 143.008 8.57199C141.078 7.69879 141.021 3.12907 152.15 6.51426V2.20001C149.832 1.40321 143.473 -0.12387 138.702 2.53188C133.932 5.1868 135.058 11.7584 138.702 13.9492C140.292 14.8117 142.478 15.6085 145.262 16.8029C147.566 17.7928 148.972 22.8439 135.786 19.3921V23.8395C138.503 24.8351 148.442 25.8972 151.356 22.6442C154.995 18.583 153.343 13.2846 149.964 11.8906Z" fill="#242323"/>
</svg>
