<svg width="115" height="26" viewBox="0 0 115 26" fill="none" xmlns="http://www.w3.org/2000/svg">
<path fill-rule="evenodd" clip-rule="evenodd" d="M64.7605 0V25.1457H70.2483V13.9706C70.2483 11.8752 71.3469 10.3786 73.1422 10.3786C74.9388 10.3786 76.0361 11.5757 76.0361 13.8714V25.1464H81.5252V11.5757C81.5252 8.98123 80.3275 6.18711 76.1366 5.98748C71.9457 5.78786 70.947 7.68431 70.2489 8.28254V0H64.7605ZM100.584 6.28692V25.1464H106.072V17.9612H111.46V13.8708H106.072V10.378H114.653V6.28692H100.584ZM49.8929 6.28692V25.1464H55.3813V17.9612H60.7686V13.8708H55.3813V10.378H63.962V6.28692H49.8929ZM48.8706 18.7603C48.8706 23.1828 45.2845 25.8699 40.8621 25.8699C36.439 25.8699 32.8535 23.1828 32.8535 18.7603L32.8288 6.28692H38.2976V18.5105C38.2976 18.8996 38.3743 19.285 38.5232 19.6445C38.6721 20.004 38.8904 20.3307 39.1656 20.6059C39.4408 20.8811 39.7674 21.0994 40.127 21.2483C40.4865 21.3972 40.8719 21.4739 41.261 21.4739C41.6502 21.4739 42.0355 21.3972 42.3951 21.2483C42.7546 21.0994 43.0813 20.8811 43.3565 20.6059C43.6316 20.3307 43.8499 20.004 43.9989 19.6445C44.1478 19.285 44.2244 18.8996 44.2244 18.5105V6.28692H48.8948L48.8706 18.7603ZM19.5582 25.1464L20.5583 21.8539H27.0422L28.1395 25.1464H33.8269L27.4415 6.28692H20.6561L15.6987 21.8995L11.1758 13.0723L15.9655 6.28692H10.9768L5.48842 14.27V6.28692H0V25.1464H5.48842V21.0547L7.68366 18.0616L11.2763 25.1464H19.5582ZM91.2534 6.04033C86.4611 6.04033 82.5749 8.92773 82.5749 13.7207V17.9116C82.5749 22.7052 86.4611 25.592 91.2534 25.592C96.0471 25.592 99.9332 22.7046 99.9332 17.9116V13.7207C99.9332 8.92773 96.0464 6.04033 91.2534 6.04033Z" fill="#242323"/>
<path fill-rule="evenodd" clip-rule="evenodd" d="M23.6475 11.6755L25.6432 17.663H21.8516L23.6475 11.6755ZM91.2517 21.9152C90.4284 21.9149 89.6389 21.5875 89.0568 21.0052C88.4747 20.4229 88.1477 19.6333 88.1477 18.8099V12.8224C88.1477 11.999 88.4748 11.2093 89.0571 10.6271C89.6393 10.0449 90.429 9.71777 91.2524 9.71777C92.0758 9.71777 92.8655 10.0449 93.4477 10.6271C94.0299 11.2093 94.357 11.999 94.357 12.8224V18.8099C94.357 19.6335 94.0299 20.4233 93.4475 21.0057C92.8652 21.588 92.0753 21.9152 91.2517 21.9152Z" fill="#0C0C0C"/>
</svg>
