<svg width="121" height="26" viewBox="0 0 121 26" fill="none" xmlns="http://www.w3.org/2000/svg">
<path d="M12.3127 19.1257L19.9646 0.442408H24.4167L13.5996 25.5916H10.9214L0 0.442408H4.59117L12.3127 19.1257Z" fill="#0C0C0C"/>
<path d="M38.4155 26C34.659 26 31.5171 24.7635 28.9896 22.2906C26.4622 19.8176 25.1985 16.7661 25.1985 13.1361C25.1985 9.48342 26.497 6.38656 29.094 3.84555C31.7142 1.28185 34.8561 0 38.5198 0C42.2298 0 45.3834 1.27051 47.9804 3.81152C50.5774 6.35253 51.8759 9.4267 51.8759 13.034C51.8759 16.6414 50.5774 19.7042 47.9804 22.2225C45.3834 24.7408 42.1951 26 38.4155 26ZM31.9809 19.534C33.7663 21.281 35.946 22.1545 38.5198 22.1545C41.0936 22.1545 43.2617 21.2923 45.024 19.5681C46.8094 17.8211 47.7021 15.6545 47.7021 13.0681C47.7021 10.4363 46.8094 8.24695 45.024 6.5C43.2385 4.75305 41.0705 3.87958 38.5198 3.87958C35.946 3.87958 33.7779 4.7644 32.0156 6.53403C30.2534 8.25829 29.3722 10.4363 29.3722 13.0681C29.3722 15.6545 30.2418 17.8098 31.9809 19.534Z" fill="#0C0C0C"/>
<path d="M74.9897 25.5916H70.155L63.8943 15.7225H60.4857V25.5916H56.4859V0.442408H65.5639C68.2304 0.442408 70.2826 1.1911 71.7202 2.68848C73.1578 4.20855 73.8766 6.01222 73.8766 8.09948C73.8766 9.80105 73.3665 11.3211 72.3463 12.6597C71.3492 13.9756 69.9463 14.8717 68.1377 15.3482L74.9897 25.5916ZM65.5639 4.15183H60.4857V12.0812H64.9378C66.4914 12.0812 67.6739 11.7182 68.4855 10.9921C69.3203 10.2435 69.7376 9.26789 69.7376 8.06544C69.7376 6.93106 69.3666 6.00087 68.6246 5.27487C67.8826 4.52618 66.8624 4.15183 65.5639 4.15183Z" fill="#0C0C0C"/>
<path d="M88.5664 25.5916H79.1754V0.442408H88.8795C92.6127 0.442408 95.5343 1.57679 97.6444 3.84555C99.8009 6.11431 100.879 9.18848 100.879 13.0681C100.879 16.9023 99.7777 19.9538 97.5749 22.2225C95.372 24.4686 92.3692 25.5916 88.5664 25.5916ZM83.1753 4.18586V21.8482H88.7403C91.2446 21.8482 93.1924 21.0201 94.5836 19.3639C95.9981 17.7077 96.7053 15.575 96.7053 12.966C96.7053 10.425 95.9981 8.32635 94.5836 6.67016C93.1924 5.01396 91.2562 4.18586 88.7751 4.18586H83.1753Z" fill="#0C0C0C"/>
<path d="M109.418 25.5916V4.25393H101.905V0.442408H121V4.25393H113.487V25.5916H109.418Z" fill="#0C0C0C"/>
</svg>
