<svg width="20" height="20" viewBox="0 0 20 20" fill="none" xmlns="http://www.w3.org/2000/svg">
<path d="M11.3086 6.53856H16.4455L11.3086 1.40161V6.53856Z" fill="white"/>
<path d="M6.46155 1C5.54346 1 4.66308 1.3647 4.0139 2.01389C3.36471 2.66309 3 3.54346 3 4.46154V15.5385C3 16.4565 3.3647 17.3369 4.0139 17.9861C4.66309 18.6353 5.54346 19 6.46155 19H13.3846C14.3027 19 15.1831 18.6353 15.8323 17.9861C16.4815 17.3369 16.8462 16.4565 16.8462 15.5385V7.92308H10.6154C10.4318 7.92308 10.2556 7.85014 10.1258 7.72033C9.99603 7.59052 9.92309 7.41435 9.92309 7.23077V1H6.46155ZM12.6923 16.9231H7.15385C6.90645 16.9231 6.6779 16.7911 6.55428 16.5769C6.43065 16.3627 6.43065 16.0988 6.55428 15.8846C6.6779 15.6704 6.90645 15.5385 7.15385 15.5385H12.6923C12.9397 15.5385 13.1683 15.6704 13.2919 15.8846C13.4155 16.0988 13.4155 16.3627 13.2919 16.5769C13.1683 16.7911 12.9397 16.9231 12.6923 16.9231ZM12.6923 14.1538H7.15385C6.90645 14.1538 6.6779 14.0219 6.55428 13.8077C6.43065 13.5935 6.43065 13.3296 6.55428 13.1154C6.6779 12.9012 6.90645 12.7692 7.15385 12.7692H12.6923C12.9397 12.7692 13.1683 12.9012 13.2919 13.1154C13.4155 13.3296 13.4155 13.5935 13.2919 13.8077C13.1683 14.0219 12.9397 14.1538 12.6923 14.1538ZM12.6923 10C12.9397 10 13.1683 10.132 13.2919 10.3462C13.4155 10.5603 13.4155 10.8243 13.2919 11.0385C13.1683 11.2526 12.9397 11.3846 12.6923 11.3846H7.15385C6.90645 11.3846 6.6779 11.2526 6.55428 11.0385C6.43065 10.8243 6.43065 10.5603 6.55428 10.3462C6.6779 10.132 6.90645 10 7.15385 10H12.6923Z" fill="white"/>
</svg>
