<svg width="20" height="20" viewBox="0 0 20 20" fill="none" xmlns="http://www.w3.org/2000/svg">
<path d="M17.5749 2.42597C17.0069 1.85801 16.0863 1.85801 15.5182 2.42597C15.2971 2.64779 10.7512 7.19297 8.60939 9.33477L6.36523 7.09049V13.6356H12.9103L10.666 11.3913C12.8077 9.24965 17.3529 4.70378 17.5749 4.4825C18.1428 3.91466 18.1428 2.99402 17.5749 2.42597Z" fill="white"/>
<path d="M15.8173 10.7269C15.4151 10.7269 15.0901 11.0519 15.0901 11.4541V16.5446H3.4545V4.90897H8.54501C8.94641 4.90897 9.2722 4.5839 9.2722 4.18178C9.2722 3.77966 8.94641 3.45459 8.54501 3.45459H3.4545C2.65158 3.45459 2 4.10545 2 4.9091V16.5447C2 17.3484 2.65158 17.9992 3.4545 17.9992H15.0901C15.893 17.9992 16.5446 17.3484 16.5446 16.5447V11.4542C16.5445 11.0519 16.2194 10.7269 15.8173 10.7269Z" fill="white"/>
</svg>
