<svg width="20" height="20" viewBox="0 0 20 20" fill="none" xmlns="http://www.w3.org/2000/svg">
<path d="M9.99967 0.052002C4.50551 0.052002 0.0517578 4.50575 0.0517578 9.99992C0.0517578 15.4941 4.50551 19.9478 9.99967 19.9478C15.4938 19.9478 19.9476 15.4941 19.9476 9.99992C19.9476 4.50575 15.4938 0.052002 9.99967 0.052002ZM9.99967 18.2899C5.42134 18.2899 1.70967 14.5783 1.70967 9.99992C1.70967 5.42159 5.42134 1.70992 9.99967 1.70992C14.578 1.70992 18.2897 5.42159 18.2897 9.99992C18.2897 14.5783 14.578 18.2899 9.99967 18.2899Z" fill="white"/>
<path d="M10.5082 6.76398C10.7465 6.76398 10.9653 6.67981 11.1624 6.51148C11.3578 6.34314 11.4778 6.13898 11.5207 5.90064C11.5615 5.66064 11.5107 5.45814 11.3624 5.28981C11.2149 5.11981 11.0215 5.03564 10.7824 5.03564C10.5424 5.03564 10.324 5.11981 10.1286 5.28981C9.93112 5.45773 9.81112 5.66064 9.77029 5.90064C9.7407 6.13939 9.79779 6.34314 9.9382 6.51148C10.079 6.67981 10.2699 6.76398 10.5082 6.76398Z" fill="white"/>
<path d="M12.3421 12.6666C12.32 12.6978 12.2987 12.7249 12.2771 12.7566C12.1471 12.9216 11.6625 13.5045 11.0338 13.8533C11.0296 13.8549 11.0258 13.8566 11.0237 13.8591C10.9688 13.8883 10.9125 13.9103 10.8567 13.9362C10.6908 13.9958 10.5354 14.0108 10.4854 14.0145C10.3442 13.9962 10.2675 13.8974 10.2675 13.7103C10.2675 13.5558 10.3129 13.2503 10.4046 12.7916L10.51 12.3287L10.9412 10.2587C11.0113 9.90618 11.0487 9.71035 11.0571 9.6716L11.1512 9.18743C11.2067 8.88785 11.235 8.68993 11.235 8.59327C11.235 8.40827 11.1892 8.26785 11.1154 8.15368C11.1087 8.13702 11.1 8.12035 11.0879 8.10285C11.0771 8.08952 11.0654 8.07785 11.0538 8.06576C11.0408 8.0516 11.0346 8.03952 11.0171 8.02493C10.8333 7.87493 10.6617 7.8316 10.5433 7.82202L10.5454 7.81868C10.5454 7.81868 9.7675 7.75993 8.615 8.51952C8.59833 8.53035 8.58833 8.53826 8.57292 8.54868C8.26083 8.74618 8.01125 8.9441 7.83833 9.10368C7.70583 9.21702 7.60375 9.32243 7.52792 9.42118L7.52458 9.42576L7.525 9.42535C7.42667 9.55493 7.375 9.67243 7.375 9.7766C7.375 9.85868 7.44167 9.94077 7.57333 10.0228C7.57333 10.0228 8.06833 9.38368 8.90042 8.96785C8.96292 8.94077 9.12292 8.87452 9.26375 8.83785C9.32917 8.82285 9.45333 8.81118 9.5325 8.8766C9.58917 8.93577 9.62667 9.01785 9.62667 9.14577C9.62667 9.26202 9.60917 9.40326 9.57375 9.57201L9.48958 9.97077L9.385 10.4691L8.97417 12.4391C8.76417 13.4566 8.65875 14.0653 8.65875 14.2637C8.65875 14.7316 8.915 14.9658 9.42667 14.9658C9.65875 14.9658 9.89708 14.9237 10.1417 14.8487C10.1433 14.8487 10.1442 14.8495 10.1458 14.8503C10.1625 14.8445 10.1779 14.8383 10.1942 14.8324C10.2346 14.8195 10.2754 14.8041 10.3158 14.7887C11.4704 14.3591 12.2304 13.4937 12.46 13.2037C12.4804 13.1791 12.4979 13.1562 12.5142 13.1341C12.5271 13.1162 12.5354 13.1041 12.5354 13.1041H12.5346C12.5929 13.0183 12.625 12.947 12.625 12.8937C12.6242 12.8191 12.5279 12.7445 12.3421 12.6666Z" fill="white"/>
</svg>
