<svg width="20" height="20" viewBox="0 0 20 20" fill="none" xmlns="http://www.w3.org/2000/svg">
<path d="M16.3799 2.52002H3.61992C2.39992 2.52002 1.41992 3.50002 1.41992 4.72002V15.3C1.41992 16.52 2.39992 17.5 3.61992 17.5H16.3599C17.5799 17.5 18.5599 16.52 18.5599 15.3V4.72002C18.5799 3.50002 17.5799 2.52002 16.3799 2.52002ZM9.09992 4.56002C9.59992 4.56002 9.99992 4.96002 9.99992 5.46002C9.99992 5.96002 9.59992 6.36002 9.09992 6.36002C8.59992 6.36002 8.19992 5.96002 8.19992 5.46002C8.17992 4.96002 8.59992 4.56002 9.09992 4.56002ZM6.55992 4.56002C7.05992 4.56002 7.45992 4.96002 7.45992 5.46002C7.45992 5.96002 7.05992 6.36002 6.55992 6.36002C6.05992 6.36002 5.65992 5.96002 5.65992 5.46002C5.63992 4.96002 6.05992 4.56002 6.55992 4.56002ZM4.19992 4.56002C4.69992 4.56002 5.09992 4.96002 5.09992 5.46002C5.09992 5.96002 4.69992 6.36002 4.19992 6.36002C3.69992 6.36002 3.29992 5.96002 3.29992 5.46002C3.29992 4.96002 3.69992 4.56002 4.19992 4.56002ZM17.3799 15.28C17.3799 15.84 16.9399 16.28 16.3799 16.28H3.61992C3.05992 16.28 2.61992 15.84 2.61992 15.28V8.78002H17.3599V15.28H17.3799Z" fill="white"/>
</svg>
