<svg width="20" height="20" viewBox="0 0 20 20" fill="none" xmlns="http://www.w3.org/2000/svg">
<path d="M19 11.8149V8.17741L17.0875 7.93363C16.9337 7.41245 16.7274 6.9136 16.4687 6.44864L17.6462 4.91868L15.0737 2.34621L13.555 3.52748C13.0863 3.26499 12.5876 3.06252 12.0588 2.90873L11.815 1H8.18123L7.93744 2.90873C7.40866 3.06254 6.91377 3.26501 6.44867 3.52748L4.92237 2.34621L2.34989 4.91868L3.52738 6.44499C3.26868 6.91374 3.06242 7.41245 2.90482 7.93376L1 8.17742V11.8149L2.90495 12.0623C3.06242 12.5873 3.26866 13.086 3.52751 13.5511L2.35002 15.0736L4.9225 17.6499L6.44881 16.4686C6.91377 16.7273 7.4088 16.9336 7.93758 17.0874L8.18137 18.9961H11.8152L12.0589 17.0836C12.5877 16.9336 13.0864 16.7273 13.5552 16.4686L15.0739 17.6499L17.6464 15.0736L16.4689 13.5511C16.7276 13.0861 16.9338 12.5875 17.0876 12.0623L19 11.8149ZM11.2787 15.2347C10.87 15.336 10.4425 15.3885 10 15.3885C9.56883 15.3885 9.14508 15.3361 8.7438 15.2423C6.3701 14.6761 4.60745 12.5423 4.60745 9.99604C4.60745 7.02231 7.02246 4.60713 9.99971 4.60713C12.9734 4.60713 15.3886 7.02214 15.3886 9.99604C15.3886 12.531 13.6373 14.6611 11.2787 15.2346L11.2787 15.2347Z" fill="white"/>
<path d="M10.1232 9.81402C10.9805 9.81402 11.6746 9.11994 11.6746 8.2626C11.6746 7.40881 10.9805 6.7146 10.1232 6.7146C9.26941 6.7146 8.5752 7.40868 8.5752 8.2626C8.5752 9.11991 9.26927 9.81402 10.1232 9.81402Z" fill="white"/>
<path d="M9.99409 10.3281C8.36837 10.3281 7.04102 11.6471 7.04102 13.2812H12.9553C12.9553 11.647 11.6281 10.3281 9.99395 10.3281H9.99409Z" fill="white"/>
</svg>
