<svg width="20" height="19" viewBox="0 0 20 19" fill="none" xmlns="http://www.w3.org/2000/svg">
<g clip-path="url(#clip0_144_922)">
<path fill-rule="evenodd" clip-rule="evenodd" d="M17.2448 10.9604C17.875 11.5758 18.5403 12.1547 19.1055 12.8321C19.3552 13.1331 19.5916 13.4437 19.7725 13.7931C20.0287 14.2897 19.7966 14.8362 19.3514 14.8658L16.5834 14.8646C15.8695 14.9238 15.3 14.6364 14.8211 14.1483C14.4379 13.7579 14.083 13.3425 13.7145 12.939C13.5634 12.774 13.4053 12.6188 13.2164 12.4962C12.8385 12.2509 12.5105 12.326 12.2946 12.7201C12.0747 13.1209 12.0248 13.5648 12.0032 14.0115C11.9735 14.6633 11.7765 14.8347 11.1218 14.8645C9.72257 14.9305 8.39464 14.7188 7.16104 14.0129C6.07345 13.3907 5.23007 12.5122 4.49601 11.5177C3.06676 9.58119 1.97224 7.45328 0.988535 5.26574C0.767109 4.77289 0.929042 4.50833 1.47284 4.49896C2.37583 4.48142 3.2787 4.48267 4.18275 4.49771C4.54976 4.50308 4.79272 4.71358 4.93442 5.0603C5.42297 6.26156 6.02076 7.40446 6.77112 8.46383C6.97095 8.74587 7.17471 9.02791 7.46487 9.22643C7.78586 9.44623 8.03026 9.37338 8.18127 9.0158C8.27709 8.78907 8.31904 8.54486 8.34064 8.30202C8.41218 7.46657 8.42161 6.63256 8.29613 5.80005C8.2191 5.28048 7.92644 4.94412 7.408 4.8458C7.14343 4.79567 7.18283 4.69723 7.31092 4.54622C7.53341 4.28578 7.74266 4.12366 8.15979 4.12366H11.288C11.7805 4.22085 11.8899 4.44209 11.9573 4.93763L11.96 8.41245C11.9546 8.60429 12.0558 9.17355 12.4013 9.30053C12.6779 9.39092 12.8602 9.16968 13.0261 8.99433C13.7751 8.19939 14.3096 7.25994 14.7872 6.28716C14.9991 5.85941 15.1814 5.41519 15.358 4.97134C15.4888 4.64198 15.6941 4.47992 16.0651 4.4871L19.0759 4.48979C19.1651 4.48979 19.2555 4.4911 19.3419 4.50589C19.8493 4.59235 19.9883 4.81059 19.8316 5.30601C19.5847 6.08327 19.1043 6.73101 18.6346 7.38174C18.1325 8.07648 17.5956 8.74743 17.0976 9.44629C16.6402 10.0845 16.6765 10.4062 17.2448 10.9604Z" fill="white"/>
</g>
<defs>
<clipPath id="clip0_144_922">
<rect width="19" height="19" fill="white" transform="translate(0.892578)"/>
</clipPath>
</defs>
</svg>
