<svg width="18" height="17" viewBox="0 0 18 17" fill="none" xmlns="http://www.w3.org/2000/svg">
<g clip-path="url(#clip0_144_931)">
<path d="M17.7819 16.9996V16.999H17.7859V11.131C17.7859 8.26039 17.1679 6.04907 13.8119 6.04907C12.1986 6.04907 11.1159 6.9344 10.674 7.77372H10.6273V6.31707H7.44531V16.999H10.7586V11.7097C10.7586 10.317 11.0226 8.97038 12.7473 8.97038C14.4466 8.97038 14.4719 10.5597 14.4719 11.799V16.9996H17.7819Z" fill="white"/>
<path d="M2.04883 6.31799H5.36613V16.9999H2.04883V6.31799Z" fill="white"/>
<path d="M3.70647 1C2.64582 1 1.78516 1.86066 1.78516 2.92132C1.78516 3.98198 2.64582 4.86063 3.70647 4.86063C4.76713 4.86063 5.62779 3.98198 5.62779 2.92132C5.62712 1.86066 4.76646 1 3.70647 1V1Z" fill="white"/>
</g>
<defs>
<clipPath id="clip0_144_931">
<rect width="17" height="17" fill="white" transform="translate(0.785156)"/>
</clipPath>
</defs>
</svg>
