<svg width="20" height="20" viewBox="0 0 20 20" fill="none" xmlns="http://www.w3.org/2000/svg">
<g clip-path="url(#clip0_601_2668)">
<path d="M16.6997 5.17199L17.9719 3.95488V3.68848H13.5646L10.4235 11.5066L6.84991 3.68848H2.22864V3.95488L3.71481 5.744C3.85964 5.87621 3.93538 6.06953 3.91611 6.26419V13.2951C3.96195 13.5482 3.87957 13.8086 3.70152 13.9927L2.02734 16.0216V16.2847H6.77417V16.0183L5.09999 13.9927C4.91863 13.808 4.83292 13.5522 4.86946 13.2951V7.21356L9.03631 16.288H9.52063L13.1035 7.21356V14.4424C13.1035 14.6331 13.1035 14.6723 12.9786 14.7972L11.6898 16.0442V16.3113H17.9427V16.0449L16.7003 14.8284C16.5914 14.746 16.5349 14.6079 16.5582 14.4737V5.52675C16.5349 5.39189 16.5907 5.2537 16.6997 5.17199V5.17199Z" fill="white"/>
</g>
<defs>
<clipPath id="clip0_601_2668">
<rect width="15.9446" height="15.9446" fill="white" transform="translate(2.02734 2.02783)"/>
</clipPath>
</defs>
</svg>
