<svg width="101" height="100" viewBox="0 0 101 100" fill="none" xmlns="http://www.w3.org/2000/svg">
<path d="M67.6758 10.1562H48.4049C47.3262 10.1562 46.4518 11.0308 46.4518 12.1094C46.4518 13.1879 47.3262 14.0625 48.4049 14.0625H67.6758C68.7545 14.0625 69.6289 13.1879 69.6289 12.1094C69.6289 11.0308 68.7545 10.1562 67.6758 10.1562Z" fill="url(#paint0_linear)"/>
<path d="M34.8672 10.1562C34.3536 10.1562 33.8497 10.365 33.4864 10.7285C33.1231 11.0918 32.9141 11.5957 32.9141 12.1094C32.9141 12.623 33.1231 13.1269 33.4864 13.49C33.8497 13.8533 34.3536 14.0625 34.8672 14.0625C35.3809 14.0625 35.8848 13.8535 36.2481 13.49C36.6114 13.1269 36.8204 12.623 36.8204 12.1094C36.8204 11.5957 36.6114 11.0918 36.2481 10.7285C35.8848 10.3652 35.3809 10.1562 34.8672 10.1562Z" fill="url(#paint1_linear)"/>
<path d="M11.4256 10.1562C10.9119 10.1562 10.408 10.365 10.0447 10.7285C9.68145 11.0918 9.47247 11.5957 9.47247 12.1094C9.47247 12.623 9.68145 13.1269 10.0447 13.49C10.408 13.8533 10.9119 14.0625 11.4256 14.0625C11.9393 14.0625 12.4432 13.8535 12.8065 13.49C13.1697 13.1269 13.3787 12.623 13.3787 12.1094C13.3787 11.5957 13.1697 11.0918 12.8065 10.7285C12.4432 10.3652 11.9393 10.1562 11.4256 10.1562Z" fill="url(#paint2_linear)"/>
<path d="M23.1464 10.1562C22.6327 10.1562 22.1288 10.365 21.7656 10.7285C21.4023 11.092 21.1933 11.5957 21.1933 12.1094C21.1933 12.623 21.4023 13.1269 21.7656 13.49C22.1288 13.8533 22.6327 14.0625 23.1464 14.0625C23.6601 14.0625 24.164 13.8535 24.5273 13.49C24.8906 13.1269 25.0995 12.623 25.0995 12.1094C25.0995 11.5957 24.8906 11.0918 24.5273 10.7285C24.164 10.365 23.6601 10.1562 23.1464 10.1562Z" fill="url(#paint3_linear)"/>
<path d="M14.8678 74.2205H53.5156C54.5944 74.2205 55.4688 73.3459 55.4688 72.2674C55.4688 71.1889 54.5944 70.3142 53.5156 70.3142H14.8678C13.7891 70.3142 12.9147 71.1889 12.9147 72.2674C12.9147 73.3459 13.7891 74.2205 14.8678 74.2205Z" fill="url(#paint4_linear)"/>
<path d="M14.8678 61.7213H20.5891C21.6678 61.7213 22.5422 60.8467 22.5422 59.7682C22.5422 58.6896 21.6678 57.815 20.5891 57.815H14.8678C13.7891 57.815 12.9147 58.6896 12.9147 59.7682C12.9147 60.8467 13.7891 61.7213 14.8678 61.7213Z" fill="url(#paint5_linear)"/>
<path d="M14.8678 86.7195H53.5156C54.5944 86.7195 55.4688 85.8449 55.4688 84.7664C55.4688 83.6879 54.5944 82.8133 53.5156 82.8133H14.8678C13.7891 82.8133 12.9147 83.6879 12.9147 84.7664C12.9147 85.8449 13.7891 86.7195 14.8678 86.7195Z" fill="url(#paint6_linear)"/>
<path d="M45.331 57.815H31.5269C30.4482 57.815 29.5738 58.6896 29.5738 59.7682C29.5738 60.8467 30.4482 61.7213 31.5269 61.7213H45.331C46.4097 61.7213 47.2841 60.8467 47.2841 59.7682C47.2841 58.6896 46.4097 57.815 45.331 57.815Z" fill="url(#paint7_linear)"/>
<path d="M14.8678 49.2195H45.3309C46.4096 49.2195 47.284 48.3449 47.284 47.2664C47.284 46.1879 46.4096 45.3133 45.3309 45.3133H14.8678C13.7891 45.3133 12.9147 46.1879 12.9147 47.2664C12.9147 48.3449 13.7891 49.2195 14.8678 49.2195Z" fill="url(#paint8_linear)"/>
<path d="M14.8678 36.7205H20.5891C21.6678 36.7205 22.5422 35.8459 22.5422 34.7674C22.5422 33.6889 21.6678 32.8143 20.5891 32.8143H14.8678C13.7891 32.8143 12.9147 33.6889 12.9147 34.7674C12.9147 35.8459 13.7891 36.7205 14.8678 36.7205Z" fill="url(#paint9_linear)"/>
<path d="M53.5158 36.7205C54.5945 36.7205 55.4689 35.8459 55.4689 34.7674C55.4689 33.6889 54.5945 32.8143 53.5158 32.8143H32.1129C31.0342 32.8143 30.1598 33.6889 30.1598 34.7674C30.1598 35.8459 31.0342 36.7205 32.1129 36.7205H53.5158Z" fill="url(#paint10_linear)"/>
<path d="M1.95313 61.7207C2.4668 61.7207 2.9707 61.5137 3.33398 61.1484C3.69727 60.7852 3.90625 60.2813 3.90625 59.7676C3.90625 59.2539 3.69727 58.75 3.33398 58.3867C2.9707 58.0236 2.4668 57.8145 1.95313 57.8145C1.43945 57.8145 0.935547 58.0234 0.572266 58.3867C0.208984 58.75 0 59.2539 0 59.7676C0 60.2813 0.208984 60.7852 0.572266 61.1484C0.935547 61.5137 1.43945 61.7207 1.95313 61.7207Z" fill="url(#paint11_linear)"/>
<path d="M76.9532 37.5C68.9837 37.5 62.5001 43.9836 62.5001 51.9531C62.5001 59.9227 68.9837 66.4063 76.9532 66.4063C84.9228 66.4063 91.4063 59.9227 91.4063 51.9531C91.4063 43.9836 84.9228 37.5 76.9532 37.5ZM76.9532 62.5C71.1376 62.5 66.4063 57.7686 66.4063 51.9531C66.4063 46.1377 71.1376 41.4063 76.9532 41.4063C82.7689 41.4063 87.5001 46.1377 87.5001 51.9531C87.5001 57.7686 82.7689 62.5 76.9532 62.5Z" fill="url(#paint12_linear)"/>
<path d="M99.4924 49.9428C101.079 45.0408 98.9007 39.7818 94.3126 37.4377C93.0815 36.8088 92.0985 35.8256 91.4694 34.5943C89.1255 30.0063 83.8661 27.8279 78.9641 29.4146C78.9452 29.4207 78.9258 29.4248 78.9069 29.4309V1.95312C78.9069 0.874609 78.0325 0 76.9538 0H1.95396C0.875254 0 0.000839992 0.874609 0.000839992 1.95312V50.9791C0.000839992 52.0576 0.875254 52.9322 1.95396 52.9322C3.03268 52.9322 3.90709 52.0576 3.90709 50.9791V24.2188H75.0008V29.4309C74.9819 29.4248 74.9626 29.4209 74.9436 29.4146C70.0413 27.8271 64.7827 30.0059 62.4383 34.5943C61.8094 35.8256 60.8262 36.8088 59.5952 37.4377C55.0071 39.7818 52.8286 45.041 54.4155 49.9428C54.8413 51.2578 54.8413 52.6484 54.4155 53.9635C52.8288 58.8654 55.0073 64.1244 59.5954 66.4686C60.8264 67.0975 61.8094 68.0807 62.4385 69.3119C63.3696 71.1344 64.7614 72.5756 66.4071 73.5527V89.4477C66.4071 90.1566 66.7913 90.8098 67.4106 91.1543C68.0303 91.4994 68.7878 91.4809 69.3901 91.1072L75.0008 87.6252V96.0938H3.90709V68.5572C3.90709 67.4787 3.03268 66.6041 1.95396 66.6041C0.875254 66.6041 0.000839992 67.4787 0.000839992 68.5572V98.0469C0.000839992 99.1254 0.875254 100 1.95396 100H76.954C78.0327 100 78.9071 99.1254 78.9071 98.0469V87.6252L84.5178 91.107C84.8327 91.3023 85.1899 91.4006 85.5477 91.4006C85.8743 91.4006 86.2016 91.3188 86.4971 91.1541C87.1165 90.8094 87.5006 90.1564 87.5006 89.4475V73.5516C89.1463 72.5744 90.5381 71.1342 91.4694 69.3117C92.0983 68.0805 93.0815 67.0973 94.3126 66.4684C98.9007 64.1242 101.079 58.865 99.4922 53.9633C99.0667 52.6484 99.0667 51.2578 99.4924 49.9428ZM3.90709 20.3125V3.90625H75.0008V20.3125H3.90709ZM83.5946 85.9369L77.9838 82.4551C77.3532 82.0637 76.5549 82.0637 75.9241 82.4551L70.3133 85.9369V74.9131C70.7706 74.9748 71.2338 75.0066 71.7004 75.0066C72.7754 75.0064 73.8682 74.8397 74.9434 74.4914C76.2589 74.0656 77.6493 74.066 78.9643 74.4914C80.5065 74.9906 82.0836 75.1166 83.5946 74.9127V85.9369ZM95.776 55.1666C96.7688 58.2332 95.4059 61.5234 92.5354 62.99C90.5676 63.9953 88.9962 65.5668 87.9909 67.5348C86.5245 70.4051 83.234 71.7674 80.1672 70.7754C78.0653 70.0949 75.843 70.0949 73.7405 70.7754C70.6743 71.7686 67.3837 70.4051 65.9171 67.5348C64.9118 65.567 63.3403 63.9955 61.3725 62.99C58.502 61.5234 57.1393 58.2334 58.1319 55.1666C58.8126 53.0643 58.8126 50.8418 58.1319 48.7396C57.1391 45.673 58.502 42.3828 61.3725 40.9162C63.3403 39.9109 64.9118 38.3395 65.9171 36.3715C67.062 34.1307 69.318 32.8088 71.7116 32.8088C72.3842 32.8088 73.068 32.9133 73.7407 33.1309C75.8428 33.8113 78.0653 33.8113 80.1672 33.1309C83.2338 32.1385 86.5245 33.5012 87.9909 36.3715C88.9962 38.3393 90.5676 39.9107 92.5354 40.9162C95.4059 42.3828 96.7686 45.6729 95.776 48.7396C95.0956 50.842 95.0956 53.0645 95.776 55.1666Z" fill="url(#paint13_linear)"/>
<path d="M79.813 47.9027L75.8556 51.8603L74.0937 50.0984C73.331 49.3359 72.0943 49.3359 71.3314 50.0984C70.5687 50.8611 70.5687 52.0979 71.3314 52.8607L74.4745 56.0039C74.8407 56.3701 75.3376 56.576 75.8556 56.576C76.3736 56.576 76.8704 56.3701 77.2366 56.0039L82.5751 50.6652C83.3378 49.9025 83.3378 48.6658 82.5751 47.9029C81.8122 47.14 80.5757 47.14 79.813 47.9027Z" fill="url(#paint14_linear)"/>
<defs>
<linearGradient id="paint0_linear" x1="50.0037" y1="0" x2="50.0037" y2="100" gradientUnits="userSpaceOnUse">
<stop stop-color="#018AD2"/>
<stop offset="1" stop-color="#005F92"/>
</linearGradient>
<linearGradient id="paint1_linear" x1="50.0037" y1="0" x2="50.0037" y2="100" gradientUnits="userSpaceOnUse">
<stop stop-color="#018AD2"/>
<stop offset="1" stop-color="#005F92"/>
</linearGradient>
<linearGradient id="paint2_linear" x1="50.0037" y1="0" x2="50.0037" y2="100" gradientUnits="userSpaceOnUse">
<stop stop-color="#018AD2"/>
<stop offset="1" stop-color="#005F92"/>
</linearGradient>
<linearGradient id="paint3_linear" x1="50.0037" y1="0" x2="50.0037" y2="100" gradientUnits="userSpaceOnUse">
<stop stop-color="#018AD2"/>
<stop offset="1" stop-color="#005F92"/>
</linearGradient>
<linearGradient id="paint4_linear" x1="50.0037" y1="0" x2="50.0037" y2="100" gradientUnits="userSpaceOnUse">
<stop stop-color="#018AD2"/>
<stop offset="1" stop-color="#005F92"/>
</linearGradient>
<linearGradient id="paint5_linear" x1="50.0037" y1="0" x2="50.0037" y2="100" gradientUnits="userSpaceOnUse">
<stop stop-color="#018AD2"/>
<stop offset="1" stop-color="#005F92"/>
</linearGradient>
<linearGradient id="paint6_linear" x1="50.0037" y1="0" x2="50.0037" y2="100" gradientUnits="userSpaceOnUse">
<stop stop-color="#018AD2"/>
<stop offset="1" stop-color="#005F92"/>
</linearGradient>
<linearGradient id="paint7_linear" x1="50.0037" y1="0" x2="50.0037" y2="100" gradientUnits="userSpaceOnUse">
<stop stop-color="#018AD2"/>
<stop offset="1" stop-color="#005F92"/>
</linearGradient>
<linearGradient id="paint8_linear" x1="50.0037" y1="0" x2="50.0037" y2="100" gradientUnits="userSpaceOnUse">
<stop stop-color="#018AD2"/>
<stop offset="1" stop-color="#005F92"/>
</linearGradient>
<linearGradient id="paint9_linear" x1="50.0037" y1="0" x2="50.0037" y2="100" gradientUnits="userSpaceOnUse">
<stop stop-color="#018AD2"/>
<stop offset="1" stop-color="#005F92"/>
</linearGradient>
<linearGradient id="paint10_linear" x1="50.0037" y1="0" x2="50.0037" y2="100" gradientUnits="userSpaceOnUse">
<stop stop-color="#018AD2"/>
<stop offset="1" stop-color="#005F92"/>
</linearGradient>
<linearGradient id="paint11_linear" x1="50.0037" y1="0" x2="50.0037" y2="100" gradientUnits="userSpaceOnUse">
<stop stop-color="#018AD2"/>
<stop offset="1" stop-color="#005F92"/>
</linearGradient>
<linearGradient id="paint12_linear" x1="50.0037" y1="0" x2="50.0037" y2="100" gradientUnits="userSpaceOnUse">
<stop stop-color="#018AD2"/>
<stop offset="1" stop-color="#005F92"/>
</linearGradient>
<linearGradient id="paint13_linear" x1="50.0037" y1="0" x2="50.0037" y2="100" gradientUnits="userSpaceOnUse">
<stop stop-color="#018AD2"/>
<stop offset="1" stop-color="#005F92"/>
</linearGradient>
<linearGradient id="paint14_linear" x1="50.0037" y1="0" x2="50.0037" y2="100" gradientUnits="userSpaceOnUse">
<stop stop-color="#018AD2"/>
<stop offset="1" stop-color="#005F92"/>
</linearGradient>
</defs>
</svg>
