<svg width="18" height="18" viewBox="0 0 18 18" fill="none" xmlns="http://www.w3.org/2000/svg">
<path d="M9 0C4.02944 0 0 4.02944 0 9C0 13.9706 4.02944 18 9 18C13.9706 18 18 13.9706 18 9C17.9947 4.03166 13.9684 0.00531111 9 0ZM9 16.7143C4.73951 16.7143 1.2857 13.2605 1.2857 9C1.2857 4.73951 4.73951 1.2857 9 1.2857C13.2605 1.2857 16.7143 4.73951 16.7143 9C16.7097 13.2586 13.2586 16.7097 9 16.7143Z" fill="#E6AF6F"/>
<path d="M13.9387 5.33123C13.6896 5.09061 13.2946 5.09061 13.0455 5.33123L7.07143 11.3053L4.95448 9.18834C4.70783 8.93295 4.30083 8.92591 4.04549 9.17255C3.7901 9.4192 3.78306 9.8262 4.0297 10.0815C4.03486 10.0869 4.04014 10.0922 4.04549 10.0973L6.61693 12.6688C6.86795 12.9198 7.27491 12.9198 7.52592 12.6688L13.9545 6.24018C14.2012 5.98483 14.1941 5.57787 13.9387 5.33123Z" fill="#E6AF6F"/>
</svg>
