<svg width="100" height="100" viewBox="0 0 100 100" fill="none" xmlns="http://www.w3.org/2000/svg">
<path d="M99.4277 18.343L81.6543 0.57207C81.2881 0.205859 80.7914 0 80.2734 0H22.2656C19.0348 0 16.4062 2.62852 16.4062 5.85938V9.58281C6.81152 13.3465 0 22.6982 0 33.6115C0 34.69 0.874609 35.5646 1.95312 35.5646H25.799C26.8775 35.5646 27.7521 34.69 27.7521 33.6115V9.76562C27.7521 8.68711 26.8775 7.8125 25.799 7.8125C23.9166 7.8125 22.0814 8.01699 20.3125 8.40176V5.85938C20.3125 4.78242 21.1887 3.90625 22.2656 3.90625H78.3203V15.8203C78.3203 19.0512 80.9488 21.6797 84.1797 21.6797H96.0938V94.1406C96.0938 95.2176 95.2176 96.0938 94.1406 96.0938H22.2656C21.1887 96.0938 20.3125 95.2176 20.3125 94.1406V77.4088C20.3125 76.3303 19.4379 75.4557 18.3594 75.4557C17.2809 75.4557 16.4062 76.3303 16.4062 77.4088V94.1406C16.4062 97.3715 19.0348 100 22.2656 100H94.1406C97.3715 100 100 97.3715 100 94.1406V19.724C100 19.2061 99.7941 18.7092 99.4277 18.343ZM23.8457 11.8053V31.6584H3.99258C4.92637 21.1412 13.3287 12.7391 23.8457 11.8053ZM84.1797 17.7734C83.1027 17.7734 82.2266 16.8973 82.2266 15.8203V6.66797L93.3336 17.7734H84.1797Z" fill="url(#paint0_linear)"/>
<path d="M19.74 68.9316C19.377 68.5682 18.873 68.3594 18.3594 68.3594C17.8457 68.3594 17.3418 68.5682 16.9785 68.9316C16.6152 69.2949 16.4062 69.7988 16.4062 70.3125C16.4062 70.8262 16.615 71.3301 16.9785 71.6932C17.3418 72.0566 17.8457 72.2656 18.3594 72.2656C18.873 72.2656 19.377 72.0566 19.74 71.6932C20.1035 71.3301 20.3125 70.8262 20.3125 70.3125C20.3125 69.7988 20.1035 69.2949 19.74 68.9316Z" fill="url(#paint1_linear)"/>
<path d="M32.7947 14.8084C31.7162 14.8084 30.8416 15.683 30.8416 16.7615V38.6541H8.94899C7.87048 38.6541 6.99587 39.5287 6.99587 40.6072C6.99587 54.8328 18.5691 66.4062 32.7947 66.4062C47.0203 66.4062 58.5937 54.8328 58.5937 40.6072C58.5937 26.3816 47.0203 14.8084 32.7947 14.8084ZM34.7478 18.8012C39.3201 19.207 43.4922 21.0254 46.8252 23.8148L34.7478 35.892V18.8012ZM32.7947 62.5C21.3812 62.5 11.9795 53.7209 10.9886 42.5604H32.7947C33.3338 42.5604 33.8217 42.342 34.1752 41.9889C34.1748 41.9893 34.1754 41.9887 34.1752 41.9889L49.5879 26.5766C52.7697 30.3787 54.6875 35.2732 54.6875 40.6072C54.6875 52.6789 44.8664 62.5 32.7947 62.5Z" fill="url(#paint2_linear)"/>
<path d="M85.5611 61.6416C82.3302 61.6416 79.7017 64.2701 79.7017 67.501C79.7017 68.3107 79.867 69.0824 80.1652 69.7846L68.9127 81.0371C68.1394 80.6604 67.2714 80.4484 66.355 80.4484C65.4603 80.4484 64.6123 80.6508 63.8531 81.0107L56.3808 73.5385C56.6398 72.8775 56.7836 72.159 56.7836 71.407C56.7836 68.1762 54.155 65.5477 50.9242 65.5477C47.6933 65.5477 45.0648 68.1762 45.0648 71.407C45.0648 72.2824 45.2591 73.1129 45.6048 73.8596L38.4379 81.0266C37.6744 80.6613 36.8201 80.4565 35.9189 80.4565C32.688 80.4565 30.0595 83.085 30.0595 86.3158C30.0595 89.5467 32.688 92.1752 35.9189 92.1752C39.1498 92.1752 41.7783 89.5467 41.7783 86.3158C41.7783 85.4102 41.5716 84.552 41.2033 83.7857L48.3302 76.6588C49.1128 77.0471 49.9933 77.2664 50.9246 77.2664C51.9763 77.2664 52.9632 76.9865 53.8173 76.4994L61.0789 83.7609C60.7054 84.5314 60.4957 85.3955 60.4957 86.3078C60.4957 89.5387 63.1242 92.1672 66.355 92.1672C69.5859 92.1672 72.2144 89.5387 72.2144 86.3078C72.2144 85.4176 72.014 84.5734 71.6572 83.8172L82.8046 72.6697C83.6267 73.11 84.5652 73.3604 85.5611 73.3604C88.7919 73.3604 91.4205 70.7318 91.4205 67.501C91.4205 64.2701 88.7919 61.6416 85.5611 61.6416ZM35.9187 88.2691C34.8418 88.2691 33.9656 87.393 33.9656 86.316C33.9656 85.2391 34.8418 84.3629 35.9187 84.3629C36.4431 84.3629 36.9187 84.5717 37.2699 84.9092C37.2777 84.9174 37.2845 84.9262 37.2925 84.9342C37.3019 84.9436 37.3121 84.9514 37.3216 84.9604C37.6615 85.3119 37.8718 85.7896 37.8718 86.316C37.8718 87.3928 36.9957 88.2691 35.9187 88.2691ZM50.9242 73.3602C49.8472 73.3602 48.9711 72.484 48.9711 71.407C48.9711 70.3301 49.8472 69.4539 50.9242 69.4539C52.0011 69.4539 52.8773 70.3301 52.8773 71.407C52.8773 72.484 52.0011 73.3602 50.9242 73.3602ZM66.3546 88.2609C65.2777 88.2609 64.4015 87.3848 64.4015 86.3078C64.4015 85.2309 65.2777 84.3547 66.3546 84.3547C67.4316 84.3547 68.3078 85.2309 68.3078 86.3078C68.3078 87.3848 67.4316 88.2609 66.3546 88.2609ZM85.5607 69.4539C84.4837 69.4539 83.6076 68.5777 83.6076 67.5008C83.6076 66.4238 84.4839 65.5477 85.5607 65.5477C86.6376 65.5477 87.5138 66.4238 87.5138 67.5008C87.5138 68.5777 86.6376 69.4539 85.5607 69.4539Z" fill="url(#paint3_linear)"/>
<path d="M75.7988 45.8984H65.4904C64.4119 45.8984 63.5373 46.773 63.5373 47.8516C63.5373 48.9301 64.4117 49.8047 65.4904 49.8047H75.7988C76.8773 49.8047 77.752 48.9301 77.752 47.8516C77.752 46.773 76.8773 45.8984 75.7988 45.8984Z" fill="url(#paint4_linear)"/>
<path d="M86.0721 46.4707C85.709 46.1074 85.2051 45.8984 84.6914 45.8984C84.1778 45.8984 83.6739 46.1072 83.3106 46.4707C82.9473 46.834 82.7383 47.3379 82.7383 47.8516C82.7383 48.3652 82.9471 48.8691 83.3106 49.2322C83.6739 49.5955 84.1758 49.8047 84.6914 49.8047C85.2051 49.8047 85.709 49.5957 86.0721 49.2322C86.4354 48.8691 86.6446 48.3652 86.6446 47.8516C86.6446 47.3379 86.4356 46.834 86.0721 46.4707Z" fill="url(#paint5_linear)"/>
<path d="M89.3486 27.1484H65.4904C64.4119 27.1484 63.5373 28.023 63.5373 29.1016C63.5373 30.1801 64.4117 31.0547 65.4904 31.0547H89.3486C90.4272 31.0547 91.3018 30.1801 91.3018 29.1016C91.3018 28.023 90.4272 27.1484 89.3486 27.1484Z" fill="url(#paint6_linear)"/>
<path d="M89.3486 36.5234H65.4904C64.4119 36.5234 63.5373 37.398 63.5373 38.4766C63.5373 39.5551 64.4117 40.4297 65.4904 40.4297H89.3486C90.4272 40.4297 91.3018 39.5551 91.3018 38.4766C91.3018 37.398 90.4272 36.5234 89.3486 36.5234Z" fill="url(#paint7_linear)"/>
<defs>
<linearGradient id="paint0_linear" x1="50" y1="0" x2="50" y2="100" gradientUnits="userSpaceOnUse">
<stop stop-color="#018AD2"/>
<stop offset="1" stop-color="#005F92"/>
</linearGradient>
<linearGradient id="paint1_linear" x1="50" y1="0" x2="50" y2="100" gradientUnits="userSpaceOnUse">
<stop stop-color="#018AD2"/>
<stop offset="1" stop-color="#005F92"/>
</linearGradient>
<linearGradient id="paint2_linear" x1="50" y1="0" x2="50" y2="100" gradientUnits="userSpaceOnUse">
<stop stop-color="#018AD2"/>
<stop offset="1" stop-color="#005F92"/>
</linearGradient>
<linearGradient id="paint3_linear" x1="50" y1="0" x2="50" y2="100" gradientUnits="userSpaceOnUse">
<stop stop-color="#018AD2"/>
<stop offset="1" stop-color="#005F92"/>
</linearGradient>
<linearGradient id="paint4_linear" x1="50" y1="0" x2="50" y2="100" gradientUnits="userSpaceOnUse">
<stop stop-color="#018AD2"/>
<stop offset="1" stop-color="#005F92"/>
</linearGradient>
<linearGradient id="paint5_linear" x1="50" y1="0" x2="50" y2="100" gradientUnits="userSpaceOnUse">
<stop stop-color="#018AD2"/>
<stop offset="1" stop-color="#005F92"/>
</linearGradient>
<linearGradient id="paint6_linear" x1="50" y1="0" x2="50" y2="100" gradientUnits="userSpaceOnUse">
<stop stop-color="#018AD2"/>
<stop offset="1" stop-color="#005F92"/>
</linearGradient>
<linearGradient id="paint7_linear" x1="50" y1="0" x2="50" y2="100" gradientUnits="userSpaceOnUse">
<stop stop-color="#018AD2"/>
<stop offset="1" stop-color="#005F92"/>
</linearGradient>
</defs>
</svg>
