<svg width="112" height="100" viewBox="0 0 112 100" fill="none" xmlns="http://www.w3.org/2000/svg">
<path d="M55.6525 4.39912C56.8529 4.39912 57.8264 3.42564 57.8264 2.22521V2.17391C57.8264 0.973259 56.8529 0 55.6525 0C54.4518 0 53.4786 0.973259 53.4786 2.17391V2.22521C53.4786 3.42586 54.4518 4.39912 55.6525 4.39912Z" fill="url(#paint0_linear)"/>
<path d="M30.6523 25.6639C30.6523 24.466 29.6758 23.4895 28.478 23.4895C27.2806 23.4895 26.3036 24.466 26.3036 25.6639C26.3036 26.8617 27.2806 27.8382 28.478 27.8382C29.6758 27.8382 30.6523 26.8617 30.6523 25.6639Z" fill="url(#paint1_linear)"/>
<path d="M82.8266 23.4895C81.6287 23.4895 80.6531 24.466 80.6531 25.6639C80.6531 26.8617 81.6287 27.8382 82.8266 27.8382C84.0239 27.8382 85.0005 26.8617 85.0005 25.6639C85.0005 24.466 84.0239 23.4895 82.8266 23.4895Z" fill="url(#paint2_linear)"/>
<path d="M2.22521 95.6522H2.17391C0.973259 95.6522 0 96.6257 0 97.8261C0 99.0267 0.973259 100 2.17391 100H2.22521C3.42543 100 4.39912 99.0267 4.39912 97.8261C4.39912 96.6257 3.42564 95.6522 2.22521 95.6522Z" fill="url(#paint3_linear)"/>
<path d="M109.13 95.6522H109.079C107.878 95.6522 106.905 96.6257 106.905 97.8261C106.905 99.0267 107.878 100 109.079 100H109.13C110.331 100 111.304 99.0267 111.304 97.8261C111.304 96.6257 110.331 95.6522 109.13 95.6522Z" fill="url(#paint4_linear)"/>
<path d="M102.833 95.6522H101.305V93.4785C101.305 89.8826 98.3796 86.957 94.7833 86.957H66.5216V80.6929C75.5905 77.3927 82.8885 70.0653 85.9711 60.5879H86.087C87.2874 60.5879 88.2609 59.6144 88.2609 58.414V55.1527C88.2609 52.1562 85.8229 49.7184 82.8266 49.7184H62.1738V44.0645C66.4455 42.2871 69.8966 38.8095 71.5781 34.3597H73.0438C74.2444 34.3597 75.2177 33.3862 75.2177 32.1858V28.9252C75.2177 25.9282 72.7796 23.49 69.7825 23.49H66.5225V17.7106C66.5225 13.8148 69.6916 10.6454 73.5877 10.6454C77.4833 10.6454 80.6524 13.8148 80.6524 17.7106V19.3763C80.6524 20.5767 81.6257 21.5502 82.8263 21.5502C84.0268 21.5502 85.0003 20.5767 85.0003 19.3763V17.7106C85.0003 11.4176 79.8805 6.29759 73.5868 6.29759C67.2944 6.29759 62.1746 11.4176 62.1746 17.7106V23.49H57.8264V8.47129C57.8264 7.27085 56.8529 6.29738 55.6525 6.29738C54.4518 6.29738 53.4786 7.27085 53.4786 8.47129V23.49H49.1299V17.7106C49.1299 11.4176 44.0101 6.29759 37.7169 6.29759C31.4241 6.29759 26.3043 11.4176 26.3043 17.7106V19.3763C26.3043 20.5767 27.2775 21.5502 28.4782 21.5502C29.6784 21.5502 30.6521 20.5767 30.6521 19.3763V17.7106C30.6521 13.8148 33.8217 10.6454 37.7173 10.6454C41.613 10.6454 44.7821 13.8148 44.7821 17.7106V23.49H41.5212C38.5249 23.49 36.0869 25.9282 36.0869 28.9252V32.1858C36.0869 33.3862 37.0606 34.3597 38.2608 34.3597H39.7256C41.4073 38.8095 44.8588 42.2871 49.1303 44.0643V49.7184H28.478C25.4812 49.7184 23.0432 52.1562 23.0432 55.1527V58.414C23.0432 59.6144 24.0165 60.5879 25.2171 60.5879H25.3339C28.416 70.0651 35.7138 77.3927 44.7829 80.6929V86.957H16.5215C12.9252 86.957 9.99976 89.8826 9.99976 93.4785V95.6522H8.47085C7.27064 95.6522 6.29694 96.6257 6.29694 97.8261C6.29694 99.0267 7.27064 100 8.47085 100H102.833C104.034 100 105.007 99.0267 105.007 97.8261C105.007 96.6257 104.034 95.6522 102.833 95.6522ZM40.4345 30.0119V28.9252C40.4345 28.3358 40.9321 27.8378 41.521 27.8378H69.7825C70.3718 27.8378 70.8699 28.3358 70.8699 28.9252V30.0119H40.4345ZM44.4934 34.3597H66.8105C64.634 38.389 60.3801 41.0219 55.6527 41.0219C50.9247 41.0219 46.6708 38.389 44.4934 34.3597ZM57.826 45.2299V49.7182H53.4781V45.2299C54.1923 45.3219 54.9179 45.3699 55.6525 45.3699C56.3866 45.3699 57.1123 45.3219 57.826 45.2299ZM27.391 55.1527C27.391 54.5638 27.8886 54.0662 28.478 54.0662H82.8266C83.4155 54.0662 83.9131 54.5638 83.9131 55.1527V56.2401H27.391V55.1527ZM29.9493 60.5879H81.3555C77.3124 71.1214 67.1238 78.2607 55.6527 78.2607C44.1806 78.2607 33.9921 71.1214 29.9493 60.5879ZM62.1738 81.9333V86.957H49.1308V81.9331C51.2458 82.3761 53.4282 82.6085 55.6525 82.6085C57.8764 82.6085 60.059 82.3763 62.1738 81.9333ZM96.957 95.6522H14.3476V93.4785C14.3476 92.2798 15.3228 91.3048 16.5215 91.3048H94.7831C95.9818 91.3048 96.957 92.2798 96.957 93.4785V95.6522Z" fill="url(#paint5_linear)"/>
<defs>
<linearGradient id="paint0_linear" x1="55.6521" y1="0" x2="55.6521" y2="100" gradientUnits="userSpaceOnUse">
<stop stop-color="#018AD2"/>
<stop offset="1" stop-color="#005F92"/>
</linearGradient>
<linearGradient id="paint1_linear" x1="55.6521" y1="0" x2="55.6521" y2="100" gradientUnits="userSpaceOnUse">
<stop stop-color="#018AD2"/>
<stop offset="1" stop-color="#005F92"/>
</linearGradient>
<linearGradient id="paint2_linear" x1="55.6521" y1="0" x2="55.6521" y2="100" gradientUnits="userSpaceOnUse">
<stop stop-color="#018AD2"/>
<stop offset="1" stop-color="#005F92"/>
</linearGradient>
<linearGradient id="paint3_linear" x1="55.6521" y1="0" x2="55.6521" y2="100" gradientUnits="userSpaceOnUse">
<stop stop-color="#018AD2"/>
<stop offset="1" stop-color="#005F92"/>
</linearGradient>
<linearGradient id="paint4_linear" x1="55.6521" y1="0" x2="55.6521" y2="100" gradientUnits="userSpaceOnUse">
<stop stop-color="#018AD2"/>
<stop offset="1" stop-color="#005F92"/>
</linearGradient>
<linearGradient id="paint5_linear" x1="55.6521" y1="0" x2="55.6521" y2="100" gradientUnits="userSpaceOnUse">
<stop stop-color="#018AD2"/>
<stop offset="1" stop-color="#005F92"/>
</linearGradient>
</defs>
</svg>
