<svg width="108" height="100" viewBox="0 0 108 100" fill="none" xmlns="http://www.w3.org/2000/svg">
<path d="M94.95 50.5453L83.3067 32.5653C82.4043 31.1717 80.8743 30.3396 79.214 30.3396H27.8428C26.185 30.3396 24.6565 31.1697 23.7537 32.5597L12.0743 50.542C10.8807 52.3793 11.0651 54.8053 12.5226 56.4411L49.8673 98.3671C50.7916 99.4047 52.1184 100 53.508 100C53.5078 100 53.5082 100 53.508 100C54.8974 100 56.2249 99.4049 57.1492 98.3673L94.4981 56.4388C95.9535 54.8048 96.1393 52.3814 94.95 50.5453ZM76.8554 34.5199L67.0634 49.6616L57.2657 34.5199H76.8554ZM63.2218 51.4199H43.7943L53.508 36.408L63.2218 51.4199ZM49.7504 34.5203L39.9796 49.6204L30.2121 34.5203H49.7504ZM26.347 36.2416L36.1649 51.4199H16.4888L26.347 36.2416ZM17.3718 55.6004H38.409L49.5324 91.7061L17.3718 55.6004ZM53.508 90.4118L42.7832 55.6004H64.2328L53.508 90.4118ZM57.4835 91.7074L68.6073 55.6006H89.6464L57.4835 91.7074ZM70.9051 51.4199L80.714 36.2521L90.5358 51.4199H70.9051Z" fill="url(#paint0_linear)"/>
<path d="M6.34032 51.4199H2.09024C0.936009 51.4199 0 52.3557 0 53.5101C0 54.6646 0.936009 55.6004 2.09024 55.6004H6.34032C7.49455 55.6004 8.43056 54.6646 8.43056 53.5101C8.43056 52.3557 7.49455 51.4199 6.34032 51.4199Z" fill="url(#paint1_linear)"/>
<path d="M104.93 51.4199H100.68C99.5257 51.4199 98.5897 52.3557 98.5897 53.5101C98.5897 54.6646 99.5257 55.6004 100.68 55.6004H104.93C106.084 55.6004 107.02 54.6646 107.02 53.5101C107.02 52.3557 106.084 51.4199 104.93 51.4199Z" fill="url(#paint2_linear)"/>
<path d="M91.374 15.6837C90.5576 14.8675 89.2345 14.8675 88.4178 15.6837L81.4747 22.6268C80.6584 23.4431 80.6584 24.7666 81.4747 25.5829C81.8831 25.9911 82.418 26.1951 82.9529 26.1951C83.488 26.1951 84.0227 25.9909 84.4309 25.5829L91.374 18.6397C92.1903 17.8235 92.1903 16.5001 91.374 15.6837Z" fill="url(#paint3_linear)"/>
<path d="M25.636 22.5896L18.693 15.6463C17.877 14.83 16.5539 14.83 15.7368 15.6463C14.9206 16.4625 14.9206 17.7861 15.7368 18.6023L22.68 25.5454C23.0882 25.9537 23.6231 26.1577 24.158 26.1577C24.6929 26.1577 25.2278 25.9535 25.636 25.5454C26.4522 24.7294 26.4522 23.4057 25.636 22.5896Z" fill="url(#paint4_linear)"/>
<path d="M53.5632 0C52.409 0 51.473 0.9358 51.473 2.09024V15.7119C51.473 16.8664 52.4088 17.8022 53.5632 17.8022C54.7174 17.8022 55.6535 16.8664 55.6535 15.7119V2.09024C55.6535 0.936009 54.7174 0 53.5632 0Z" fill="url(#paint5_linear)"/>
<path d="M55.04 21.3052C54.6514 20.9164 54.1121 20.6927 53.5624 20.6927C53.0127 20.6927 52.4734 20.9164 52.0846 21.3052C51.6958 21.694 51.4722 22.2333 51.4722 22.783C51.4722 23.3348 51.6956 23.872 52.0846 24.2608C52.4734 24.6517 53.0127 24.8732 53.5624 24.8732C54.1121 24.8732 54.6514 24.6517 55.04 24.2608C55.4309 23.872 55.6526 23.3327 55.6526 22.783C55.6526 22.2333 55.4309 21.6942 55.04 21.3052Z" fill="url(#paint6_linear)"/>
<defs>
<linearGradient id="paint0_linear" x1="53.5101" y1="0" x2="53.5101" y2="100" gradientUnits="userSpaceOnUse">
<stop stop-color="#018AD2"/>
<stop offset="1" stop-color="#005F92"/>
</linearGradient>
<linearGradient id="paint1_linear" x1="53.5101" y1="0" x2="53.5101" y2="100" gradientUnits="userSpaceOnUse">
<stop stop-color="#018AD2"/>
<stop offset="1" stop-color="#005F92"/>
</linearGradient>
<linearGradient id="paint2_linear" x1="53.5101" y1="0" x2="53.5101" y2="100" gradientUnits="userSpaceOnUse">
<stop stop-color="#018AD2"/>
<stop offset="1" stop-color="#005F92"/>
</linearGradient>
<linearGradient id="paint3_linear" x1="53.5101" y1="0" x2="53.5101" y2="100" gradientUnits="userSpaceOnUse">
<stop stop-color="#018AD2"/>
<stop offset="1" stop-color="#005F92"/>
</linearGradient>
<linearGradient id="paint4_linear" x1="53.5101" y1="0" x2="53.5101" y2="100" gradientUnits="userSpaceOnUse">
<stop stop-color="#018AD2"/>
<stop offset="1" stop-color="#005F92"/>
</linearGradient>
<linearGradient id="paint5_linear" x1="53.5101" y1="0" x2="53.5101" y2="100" gradientUnits="userSpaceOnUse">
<stop stop-color="#018AD2"/>
<stop offset="1" stop-color="#005F92"/>
</linearGradient>
<linearGradient id="paint6_linear" x1="53.5101" y1="0" x2="53.5101" y2="100" gradientUnits="userSpaceOnUse">
<stop stop-color="#018AD2"/>
<stop offset="1" stop-color="#005F92"/>
</linearGradient>
</defs>
</svg>
