<svg width="72" height="80" viewBox="0 0 72 80" fill="none" xmlns="http://www.w3.org/2000/svg">
<path d="M39.0625 37.9688C38.2 37.9688 37.5 38.6688 37.5 39.5312C37.5 40.3937 38.2 41.0938 39.0625 41.0938C39.925 41.0938 40.625 40.3937 40.625 39.5312C40.625 38.6688 39.925 37.9688 39.0625 37.9688Z" fill="url(#paint0_linear)"/>
<path d="M10.9375 15.625C10.0759 15.625 9.37498 14.9241 9.37498 14.0625C9.37498 13.2009 10.0759 12.5 10.9375 12.5C11.4909 12.5 12.0754 12.7825 12.6275 13.3167C13.2476 13.9169 14.237 13.9003 14.8369 13.2805C15.4369 12.6602 15.4206 11.6711 14.8004 11.0709C14.0075 10.3036 13.214 9.86969 12.4998 9.63266V7.8125C12.4998 6.94969 11.8003 6.25 10.9373 6.25C10.0744 6.25 9.37482 6.94969 9.37482 7.8125V9.64375C7.55639 10.2887 6.24998 12.0256 6.24998 14.0625C6.24998 16.6472 8.35279 18.75 10.9375 18.75C11.799 18.75 12.5 19.4509 12.5 20.3125C12.5 21.1741 11.799 21.875 10.9375 21.875C10.2698 21.875 9.5492 21.4552 8.90842 20.6931C8.35311 20.0323 7.36748 19.9472 6.70701 20.5025C6.04639 21.0578 5.96123 22.0434 6.51654 22.7039C7.35186 23.6977 8.33404 24.39 9.37498 24.7391V26.5625C9.37498 27.4253 10.0745 28.125 10.9375 28.125C11.8004 28.125 12.5 27.4253 12.5 26.5625V24.7313C14.3186 24.0863 15.625 22.3495 15.625 20.3125C15.625 17.7278 13.5222 15.625 10.9375 15.625Z" fill="url(#paint1_linear)"/>
<path d="M39.0625 51.4062H32.8125C31.9495 51.4062 31.25 52.1059 31.25 52.9688V59.2188C31.25 60.0816 31.9495 60.7812 32.8125 60.7812H39.0625C39.9253 60.7812 40.625 60.0816 40.625 59.2188V52.9688C40.625 52.1059 39.9253 51.4062 39.0625 51.4062ZM37.5 57.6562H34.375V54.5312H37.5V57.6562Z" fill="url(#paint2_linear)"/>
<path d="M51.5625 51.4062H45.3125C44.4497 51.4062 43.75 52.1059 43.75 52.9688V59.2188C43.75 60.0816 44.4497 60.7812 45.3125 60.7812H51.5625C52.4253 60.7812 53.125 60.0816 53.125 59.2188V52.9688C53.125 52.1059 52.4253 51.4062 51.5625 51.4062ZM50 57.6562H46.875V54.5312H50V57.6562Z" fill="url(#paint3_linear)"/>
<path d="M39.0625 63.9062H32.8125C31.9495 63.9062 31.25 64.6059 31.25 65.4688V71.7188C31.25 72.5816 31.9495 73.2812 32.8125 73.2812H39.0625C39.9253 73.2812 40.625 72.5816 40.625 71.7188V65.4688C40.625 64.6059 39.9253 63.9062 39.0625 63.9062ZM37.5 70.1562H34.375V67.0312H37.5V70.1562Z" fill="url(#paint4_linear)"/>
<path d="M51.5625 63.9062H45.3125C44.4497 63.9062 43.75 64.6059 43.75 65.4688V71.7188C43.75 72.5816 44.4497 73.2812 45.3125 73.2812H51.5625C52.4253 73.2812 53.125 72.5816 53.125 71.7188V65.4688C53.125 64.6059 52.4253 63.9062 51.5625 63.9062ZM50 70.1562H46.875V67.0312H50V70.1562Z" fill="url(#paint5_linear)"/>
<path d="M64.0625 51.4062H57.8125C56.9497 51.4062 56.25 52.1059 56.25 52.9688V71.7188C56.25 72.5816 56.9497 73.2812 57.8125 73.2812H64.0625C64.9253 73.2812 65.625 72.5816 65.625 71.7188V52.9688C65.625 52.1059 64.9253 51.4062 64.0625 51.4062ZM62.5 70.1562H59.375V54.5312H62.5V70.1562Z" fill="url(#paint6_linear)"/>
<path d="M64.0625 31.7188H32.8125C31.9495 31.7188 31.25 32.4184 31.25 33.2812V46.7188C31.25 47.5816 31.9495 48.2812 32.8125 48.2812H64.0625C64.9253 48.2812 65.625 47.5816 65.625 46.7188V33.2812C65.625 32.4184 64.9253 31.7188 64.0625 31.7188ZM62.5 45.1562H34.375V34.8438H62.5V45.1562Z" fill="url(#paint7_linear)"/>
<path d="M67.1875 25H53.125V15.5609C53.125 14.3377 52.6569 13.1805 51.8081 12.3034L41.303 1.42937C40.8512 0.962187 40.2961 0.589687 39.6998 0.348437C39.6786 0.338906 39.657 0.330156 39.6353 0.321563L39.6309 0.319687C39.088 0.1075 38.5161 0 37.9313 0H4.6875C2.10281 0 0 2.10281 0 4.6875V65.4688C0 68.0534 2.10281 70.1562 4.6875 70.1562H25V75.3125C25 77.8972 27.1028 80 29.6875 80H67.1875C69.7722 80 71.875 77.8972 71.875 75.3125V29.6875C71.875 27.1028 69.7722 25 67.1875 25ZM40.625 5.22531L49.5617 14.4759C49.8444 14.768 50 15.1531 50 15.5609V15.625H42.1875C41.3259 15.625 40.625 14.9241 40.625 14.0625V5.22531ZM25 29.6875V67.0312H4.6875C3.82594 67.0312 3.125 66.3303 3.125 65.4688V4.6875C3.125 3.82594 3.82594 3.125 4.6875 3.125H37.5V14.0625C37.5 16.6472 39.6028 18.75 42.1875 18.75H50V25H29.6875C27.1028 25 25 27.1028 25 29.6875ZM68.75 75.3125C68.75 76.1741 68.0491 76.875 67.1875 76.875H29.6875C28.8259 76.875 28.125 76.1741 28.125 75.3125V29.6875C28.125 28.8259 28.8259 28.125 29.6875 28.125H67.1875C68.0491 28.125 68.75 28.8259 68.75 29.6875V75.3125Z" fill="url(#paint8_linear)"/>
<path d="M57.8125 37.9688H45.3125C44.4497 37.9688 43.75 38.6684 43.75 39.5312C43.75 40.3941 44.4497 41.0938 45.3125 41.0938H57.8125C58.6753 41.0938 59.375 40.3941 59.375 39.5312C59.375 38.6684 58.6753 37.9688 57.8125 37.9688Z" fill="url(#paint9_linear)"/>
<path d="M32.8125 18.75H20.3125C19.4495 18.75 18.75 19.4497 18.75 20.3125C18.75 21.1753 19.4495 21.875 20.3125 21.875H32.8125C33.6753 21.875 34.375 21.1753 34.375 20.3125C34.375 19.4497 33.6753 18.75 32.8125 18.75Z" fill="url(#paint10_linear)"/>
<path d="M32.8125 12.5H20.3125C19.4495 12.5 18.75 13.1997 18.75 14.0625C18.75 14.9253 19.4495 15.625 20.3125 15.625H32.8125C33.6753 15.625 34.375 14.9253 34.375 14.0625C34.375 13.1997 33.6753 12.5 32.8125 12.5Z" fill="url(#paint11_linear)"/>
<path d="M20.3125 31.7188H7.8125C6.94953 31.7188 6.25 32.4184 6.25 33.2812C6.25 34.1441 6.94953 34.8438 7.8125 34.8438H20.3125C21.1755 34.8438 21.875 34.1441 21.875 33.2812C21.875 32.4184 21.1755 31.7188 20.3125 31.7188Z" fill="url(#paint12_linear)"/>
<path d="M10.9375 37.9688H7.8125C6.94953 37.9688 6.25 38.6684 6.25 39.5312C6.25 40.3941 6.94953 41.0938 7.8125 41.0938H10.9375C11.8005 41.0938 12.5 40.3941 12.5 39.5312C12.5 38.6684 11.8005 37.9688 10.9375 37.9688Z" fill="url(#paint13_linear)"/>
<path d="M20.3125 37.9688H17.1875C16.3245 37.9688 15.625 38.6684 15.625 39.5312C15.625 40.3941 16.3245 41.0938 17.1875 41.0938H20.3125C21.1755 41.0938 21.875 40.3941 21.875 39.5312C21.875 38.6684 21.1755 37.9688 20.3125 37.9688Z" fill="url(#paint14_linear)"/>
<path d="M10.9375 45.1562H7.8125C6.94953 45.1562 6.25 45.8559 6.25 46.7188C6.25 47.5816 6.94953 48.2812 7.8125 48.2812H10.9375C11.8005 48.2812 12.5 47.5816 12.5 46.7188C12.5 45.8559 11.8005 45.1562 10.9375 45.1562Z" fill="url(#paint15_linear)"/>
<path d="M20.3125 45.1562H17.1875C16.3245 45.1562 15.625 45.8559 15.625 46.7188C15.625 47.5816 16.3245 48.2812 17.1875 48.2812H20.3125C21.1755 48.2812 21.875 47.5816 21.875 46.7188C21.875 45.8559 21.1755 45.1562 20.3125 45.1562Z" fill="url(#paint16_linear)"/>
<path d="M10.9375 51.4062H7.8125C6.94953 51.4062 6.25 52.1059 6.25 52.9688C6.25 53.8316 6.94953 54.5312 7.8125 54.5312H10.9375C11.8005 54.5312 12.5 53.8316 12.5 52.9688C12.5 52.1059 11.8005 51.4062 10.9375 51.4062Z" fill="url(#paint17_linear)"/>
<path d="M20.3125 51.4062H17.1875C16.3245 51.4062 15.625 52.1059 15.625 52.9688C15.625 53.8316 16.3245 54.5312 17.1875 54.5312H20.3125C21.1755 54.5312 21.875 53.8316 21.875 52.9688C21.875 52.1059 21.1755 51.4062 20.3125 51.4062Z" fill="url(#paint18_linear)"/>
<path d="M10.9375 57.6562H7.8125C6.94953 57.6562 6.25 58.3559 6.25 59.2188C6.25 60.0816 6.94953 60.7812 7.8125 60.7812H10.9375C11.8005 60.7812 12.5 60.0816 12.5 59.2188C12.5 58.3559 11.8005 57.6562 10.9375 57.6562Z" fill="url(#paint19_linear)"/>
<path d="M20.3125 57.6562H17.1875C16.3245 57.6562 15.625 58.3559 15.625 59.2188C15.625 60.0816 16.3245 60.7812 17.1875 60.7812H20.3125C21.1755 60.7812 21.875 60.0816 21.875 59.2188C21.875 58.3559 21.1755 57.6562 20.3125 57.6562Z" fill="url(#paint20_linear)"/>
<defs>
<linearGradient id="paint0_linear" x1="35.9375" y1="0" x2="35.9375" y2="80" gradientUnits="userSpaceOnUse">
<stop stop-color="#018AD2"/>
<stop offset="1" stop-color="#005F92"/>
</linearGradient>
<linearGradient id="paint1_linear" x1="35.9375" y1="0" x2="35.9375" y2="80" gradientUnits="userSpaceOnUse">
<stop stop-color="#018AD2"/>
<stop offset="1" stop-color="#005F92"/>
</linearGradient>
<linearGradient id="paint2_linear" x1="35.9375" y1="0" x2="35.9375" y2="80" gradientUnits="userSpaceOnUse">
<stop stop-color="#018AD2"/>
<stop offset="1" stop-color="#005F92"/>
</linearGradient>
<linearGradient id="paint3_linear" x1="35.9375" y1="0" x2="35.9375" y2="80" gradientUnits="userSpaceOnUse">
<stop stop-color="#018AD2"/>
<stop offset="1" stop-color="#005F92"/>
</linearGradient>
<linearGradient id="paint4_linear" x1="35.9375" y1="0" x2="35.9375" y2="80" gradientUnits="userSpaceOnUse">
<stop stop-color="#018AD2"/>
<stop offset="1" stop-color="#005F92"/>
</linearGradient>
<linearGradient id="paint5_linear" x1="35.9375" y1="0" x2="35.9375" y2="80" gradientUnits="userSpaceOnUse">
<stop stop-color="#018AD2"/>
<stop offset="1" stop-color="#005F92"/>
</linearGradient>
<linearGradient id="paint6_linear" x1="35.9375" y1="0" x2="35.9375" y2="80" gradientUnits="userSpaceOnUse">
<stop stop-color="#018AD2"/>
<stop offset="1" stop-color="#005F92"/>
</linearGradient>
<linearGradient id="paint7_linear" x1="35.9375" y1="0" x2="35.9375" y2="80" gradientUnits="userSpaceOnUse">
<stop stop-color="#018AD2"/>
<stop offset="1" stop-color="#005F92"/>
</linearGradient>
<linearGradient id="paint8_linear" x1="35.9375" y1="0" x2="35.9375" y2="80" gradientUnits="userSpaceOnUse">
<stop stop-color="#018AD2"/>
<stop offset="1" stop-color="#005F92"/>
</linearGradient>
<linearGradient id="paint9_linear" x1="35.9375" y1="0" x2="35.9375" y2="80" gradientUnits="userSpaceOnUse">
<stop stop-color="#018AD2"/>
<stop offset="1" stop-color="#005F92"/>
</linearGradient>
<linearGradient id="paint10_linear" x1="35.9375" y1="0" x2="35.9375" y2="80" gradientUnits="userSpaceOnUse">
<stop stop-color="#018AD2"/>
<stop offset="1" stop-color="#005F92"/>
</linearGradient>
<linearGradient id="paint11_linear" x1="35.9375" y1="0" x2="35.9375" y2="80" gradientUnits="userSpaceOnUse">
<stop stop-color="#018AD2"/>
<stop offset="1" stop-color="#005F92"/>
</linearGradient>
<linearGradient id="paint12_linear" x1="35.9375" y1="0" x2="35.9375" y2="80" gradientUnits="userSpaceOnUse">
<stop stop-color="#018AD2"/>
<stop offset="1" stop-color="#005F92"/>
</linearGradient>
<linearGradient id="paint13_linear" x1="35.9375" y1="0" x2="35.9375" y2="80" gradientUnits="userSpaceOnUse">
<stop stop-color="#018AD2"/>
<stop offset="1" stop-color="#005F92"/>
</linearGradient>
<linearGradient id="paint14_linear" x1="35.9375" y1="0" x2="35.9375" y2="80" gradientUnits="userSpaceOnUse">
<stop stop-color="#018AD2"/>
<stop offset="1" stop-color="#005F92"/>
</linearGradient>
<linearGradient id="paint15_linear" x1="35.9375" y1="0" x2="35.9375" y2="80" gradientUnits="userSpaceOnUse">
<stop stop-color="#018AD2"/>
<stop offset="1" stop-color="#005F92"/>
</linearGradient>
<linearGradient id="paint16_linear" x1="35.9375" y1="0" x2="35.9375" y2="80" gradientUnits="userSpaceOnUse">
<stop stop-color="#018AD2"/>
<stop offset="1" stop-color="#005F92"/>
</linearGradient>
<linearGradient id="paint17_linear" x1="35.9375" y1="0" x2="35.9375" y2="80" gradientUnits="userSpaceOnUse">
<stop stop-color="#018AD2"/>
<stop offset="1" stop-color="#005F92"/>
</linearGradient>
<linearGradient id="paint18_linear" x1="35.9375" y1="0" x2="35.9375" y2="80" gradientUnits="userSpaceOnUse">
<stop stop-color="#018AD2"/>
<stop offset="1" stop-color="#005F92"/>
</linearGradient>
<linearGradient id="paint19_linear" x1="35.9375" y1="0" x2="35.9375" y2="80" gradientUnits="userSpaceOnUse">
<stop stop-color="#018AD2"/>
<stop offset="1" stop-color="#005F92"/>
</linearGradient>
<linearGradient id="paint20_linear" x1="35.9375" y1="0" x2="35.9375" y2="80" gradientUnits="userSpaceOnUse">
<stop stop-color="#018AD2"/>
<stop offset="1" stop-color="#005F92"/>
</linearGradient>
</defs>
</svg>
