<svg width="100" height="65" viewBox="0 0 100 65" fill="none" xmlns="http://www.w3.org/2000/svg">
<path d="M11.94 48.126C9.14917 48.126 6.87866 50.3982 6.87866 53.1912C6.87866 55.9842 9.14917 58.2566 11.94 58.2566C14.7306 58.2566 17.0013 55.9844 17.0013 53.1912C17.0013 50.3982 14.7308 48.126 11.94 48.126ZM11.94 55.3268C10.7646 55.3268 9.80855 54.3687 9.80855 53.1912C9.80855 52.0137 10.7648 51.0559 11.94 51.0559C13.1152 51.0559 14.0714 52.0137 14.0714 53.1912C14.0716 54.3687 13.1152 55.3268 11.94 55.3268Z" fill="url(#paint0_linear)"/>
<path d="M32.1858 48.126C29.395 48.126 27.1245 50.3982 27.1245 53.1912C27.1245 55.9842 29.395 58.2566 32.1858 58.2566C34.9765 58.2566 37.2472 55.9844 37.2472 53.1912C37.247 50.3982 34.9765 48.126 32.1858 48.126ZM32.1858 55.3268C31.0104 55.3268 30.0544 54.3687 30.0544 53.1912C30.0544 52.0137 31.0106 51.0559 32.1858 51.0559C33.361 51.0559 34.3173 52.0137 34.3173 53.1912C34.3173 54.3687 33.361 55.3268 32.1858 55.3268Z" fill="url(#paint1_linear)"/>
<path d="M52.4312 48.126C49.6406 48.126 47.3699 50.3982 47.3699 53.1912C47.3699 55.9842 49.6404 58.2566 52.4312 58.2566C55.222 58.2566 57.4925 55.9844 57.4925 53.1912C57.4923 50.3982 55.2218 48.126 52.4312 48.126ZM52.4312 55.3268C51.256 55.3268 50.2998 54.3687 50.2998 53.1912C50.2998 52.0137 51.256 51.0559 52.4312 51.0559C53.6066 51.0559 54.5626 52.0137 54.5626 53.1912C54.5626 54.3687 53.6064 55.3268 52.4312 55.3268Z" fill="url(#paint2_linear)"/>
<path d="M72.6768 48.126C69.886 48.126 67.6155 50.3982 67.6155 53.1912C67.6155 55.9842 69.886 58.2566 72.6768 58.2566C75.4674 58.2566 77.7381 55.9844 77.7381 53.1912C77.7381 50.3982 75.4674 48.126 72.6768 48.126ZM72.6768 55.3268C71.5014 55.3268 70.5454 54.3687 70.5454 53.1912C70.5454 52.0137 71.5016 51.0559 72.6768 51.0559C73.852 51.0559 74.8082 52.0137 74.8082 53.1912C74.8082 54.3687 73.852 55.3268 72.6768 55.3268Z" fill="url(#paint3_linear)"/>
<path d="M23.6307 51.7271H20.2832C19.4742 51.7271 18.8184 52.3827 18.8184 53.1919C18.8184 54.0011 19.4742 54.6567 20.2832 54.6567H23.6307C24.4396 54.6567 25.0955 54.0011 25.0955 53.1919C25.0955 52.3827 24.4396 51.7271 23.6307 51.7271Z" fill="url(#paint4_linear)"/>
<path d="M43.9822 51.7271H40.6348C39.8258 51.7271 39.1699 52.3827 39.1699 53.1919C39.1699 54.0011 39.8258 54.6567 40.6348 54.6567H43.9822C44.7912 54.6567 45.4471 54.0011 45.4471 53.1919C45.4471 52.3827 44.7912 51.7271 43.9822 51.7271Z" fill="url(#paint5_linear)"/>
<path d="M64.3335 51.7271H60.9861C60.1771 51.7271 59.5212 52.3827 59.5212 53.1919C59.5212 54.0011 60.1771 54.6567 60.9861 54.6567H64.3335C65.1425 54.6567 65.7984 54.0011 65.7984 53.1919C65.7984 52.3827 65.1425 51.7271 64.3335 51.7271Z" fill="url(#paint6_linear)"/>
<path d="M56.711 27.7411C55.9831 27.3877 55.1069 27.6918 54.7538 28.42L52.2557 33.5719C51.9028 34.3 52.2067 35.1762 52.9346 35.5291C53.1405 35.6291 53.3583 35.6764 53.5727 35.6764C54.1165 35.6764 54.6387 35.3723 54.8919 34.8504L57.3899 29.6985C57.7428 28.9702 57.4389 28.094 56.711 27.7411Z" fill="url(#paint7_linear)"/>
<path d="M61.7235 27.7411C60.9955 27.3877 60.1194 27.6918 59.7662 28.42L57.2682 33.5719C56.9153 34.3 57.2192 35.1762 57.9471 35.5291C58.153 35.6291 58.3707 35.6764 58.5852 35.6764C59.1289 35.6764 59.6512 35.3723 59.9043 34.8504L62.4024 29.6985C62.7553 28.9702 62.4514 28.094 61.7235 27.7411Z" fill="url(#paint8_linear)"/>
<path d="M21.4592 32.7456H18.0618C17.2528 32.7456 16.5969 33.4013 16.5969 34.2104C16.5969 35.0196 17.2528 35.6753 18.0618 35.6753H21.4592C22.2682 35.6753 22.9241 35.0196 22.9241 34.2104C22.9243 33.4015 22.2682 32.7456 21.4592 32.7456Z" fill="url(#paint9_linear)"/>
<path d="M41.3428 11.409C40.852 10.3773 39.7971 9.71094 38.6555 9.71094H22.357C20.716 9.71094 19.3809 11.0469 19.3809 12.6889V21.0822C19.3809 21.6393 19.5363 22.1836 19.8305 22.6561L24.3039 29.8455C24.851 30.7246 25.7955 31.2494 26.8305 31.2494H45.7086C47.3496 31.2494 48.6848 29.9135 48.6848 28.2715V27.5154C48.6848 27.0752 48.5848 26.6324 48.3959 26.2355L41.3428 11.409ZM45.7086 28.3193H26.8305C26.8145 28.3193 26.7998 28.3111 26.7912 28.2975L22.3178 21.108C22.3131 21.1004 22.3105 21.0914 22.3105 21.082V12.6887C22.3105 12.6619 22.3314 12.6404 22.357 12.6404H38.6555C38.6734 12.6404 38.6895 12.6508 38.6973 12.6674L45.7506 27.4939C45.7537 27.5004 45.7553 27.5076 45.7553 27.5148V28.2711C45.7551 28.2979 45.7342 28.3193 45.7086 28.3193Z" fill="url(#paint10_linear)"/>
<path d="M99.5963 59.8676L96.2748 54.4943C95.8494 53.8062 94.9467 53.5934 94.2586 54.0184C93.5705 54.4439 93.3574 55.3467 93.7828 56.0346L96.8008 60.9168L83.7969 57.8469C83.8367 57.7602 83.8715 57.6717 83.909 57.5842C83.9244 57.5484 83.9398 57.5127 83.9549 57.4766C84.0137 57.3361 84.0693 57.1945 84.1225 57.052C84.1379 57.0107 84.1527 56.9693 84.1678 56.9279C84.218 56.7879 84.266 56.6473 84.3109 56.5055C84.3258 56.4588 84.3396 56.4117 84.3537 56.3648C84.3957 56.226 84.4359 56.0867 84.4727 55.9463C84.4865 55.8932 84.499 55.8396 84.5121 55.7863C84.5457 55.65 84.5783 55.5133 84.607 55.3756C84.6197 55.3145 84.6303 55.2525 84.6422 55.191C84.6674 55.059 84.6926 54.9269 84.7133 54.7939C84.7246 54.7217 84.7328 54.6482 84.7428 54.5756C84.7596 54.4514 84.7773 54.3273 84.7902 54.2022C84.7998 54.1102 84.8053 54.0168 84.8125 53.9242C84.8211 53.8164 84.8316 53.7092 84.8371 53.601C84.8457 53.4344 84.849 53.2662 84.8506 53.0979C84.851 53.0631 84.8533 53.0285 84.8533 52.9938C84.8533 52.9926 84.8533 52.9912 84.8533 52.99C84.8533 52.9895 84.8533 52.9889 84.8533 52.9881C84.8533 52.9861 84.8531 52.9844 84.8531 52.9824C84.8529 52.8023 84.8484 52.6203 84.8391 52.4268C84.8363 52.3703 84.8316 52.3145 84.8281 52.2582L84.826 52.2291C84.8221 52.1684 84.8166 52.1082 84.8121 52.0478C84.7949 51.8348 84.7725 51.6234 84.7439 51.4139C84.7387 51.3725 84.7342 51.3314 84.7281 51.2898C84.7281 51.2896 84.7281 51.2894 84.7279 51.2891C84.7166 51.2117 84.7031 51.135 84.6902 51.058L84.6896 51.0547C84.6721 50.9498 84.6539 50.8447 84.6332 50.7393C84.6328 50.7373 84.6324 50.7352 84.6318 50.733C84.6178 50.6617 84.6025 50.591 84.5873 50.5201C84.5855 50.5117 84.5838 50.5039 84.582 50.4953C84.56 50.3953 84.5373 50.2955 84.5131 50.1973C84.5117 50.192 84.5104 50.1867 84.509 50.1814C84.492 50.1129 84.4742 50.0445 84.4561 49.9764C84.4539 49.9686 84.4521 49.9607 84.45 49.9527C84.4238 49.8559 84.3967 49.7596 84.3684 49.6645C84.3646 49.6518 84.3604 49.6391 84.3566 49.6264C84.3391 49.5684 84.3215 49.5104 84.3031 49.4527C84.2996 49.4416 84.2963 49.4303 84.2928 49.4191C84.2629 49.3262 84.2316 49.2342 84.1992 49.1424C84.1908 49.1186 84.1822 49.0955 84.1738 49.0719C84.1582 49.0283 84.143 48.9846 84.127 48.9414C84.1219 48.9277 84.1172 48.9137 84.1121 48.9002C84.0785 48.8105 84.043 48.7221 84.0068 48.6322L83.9908 48.5928C83.9777 48.5604 83.9639 48.5277 83.9506 48.4951C83.9434 48.4781 83.9367 48.4609 83.9295 48.4439C83.9219 48.426 83.915 48.408 83.9072 48.3898C83.8762 48.3176 83.8436 48.2465 83.8107 48.175L83.7721 48.0904C83.742 48.0242 83.7117 47.9582 83.6809 47.8951C83.6506 47.833 83.6191 47.7717 83.5873 47.7107L83.5353 47.6096C83.5012 47.5426 83.4668 47.4754 83.4326 47.4131C83.4113 47.3736 83.3889 47.3352 83.3664 47.2965L83.348 47.2647C83.2281 47.0525 83.0998 46.8414 82.9662 46.6361L82.9506 46.6115C82.9305 46.5799 82.9104 46.5482 82.8912 46.5195C82.8332 46.433 82.773 46.348 82.7125 46.2631L82.6617 46.1918C82.6363 46.1555 82.6109 46.1195 82.5852 46.0846C82.5162 45.991 82.4447 45.8994 82.374 45.8094L82.3492 45.7775C82.3195 45.7391 82.2896 45.7008 82.2615 45.6664C82.1881 45.5756 82.1127 45.4869 82.0357 45.3973L82.0168 45.3752C81.9848 45.3381 81.9527 45.3006 81.9215 45.2652C81.8422 45.1758 81.7611 45.0881 81.6789 45.0008C81.6412 44.9607 81.6033 44.9207 81.5652 44.8814C81.4797 44.7932 81.3926 44.7064 81.3055 44.6221C81.2684 44.5861 81.2311 44.5506 81.1959 44.5176C81.1027 44.4297 81.0084 44.3428 80.9139 44.2596L80.8162 44.1748C80.7141 44.0863 80.6109 43.9994 80.5025 43.9119L80.432 43.8564C80.3168 43.7648 80.2004 43.6752 80.0885 43.5932L80.0609 43.5732C79.4932 43.159 78.8904 42.8002 78.2619 42.4971C78.2566 42.4945 78.2516 42.492 78.2463 42.4895C77.9205 42.333 77.5879 42.1914 77.2488 42.066C77.2 42.0479 77.1504 42.0312 77.1012 42.0137C77.0324 41.9893 76.9643 41.9637 76.8949 41.9404C76.8885 41.9381 76.8709 41.9322 76.8644 41.9299C76.8307 41.9188 76.7951 41.9092 76.7609 41.8982C76.6814 41.8727 76.6012 41.8486 76.5209 41.8248C76.4771 41.8119 76.4353 41.7977 76.3908 41.785L76.3809 41.782L78.7486 31.7141L90.6527 50.9713C91.0781 51.6592 91.9807 51.8721 92.6689 51.4473C93.357 51.0217 93.5701 50.1191 93.1447 49.4311L80.9346 29.6787C80.3604 28.7496 79.2924 28.2621 78.2158 28.4383C77.1379 28.6137 76.2799 29.4141 76.0299 30.4775L73.4734 41.3484C73.3846 41.3465 73.2965 41.3416 73.207 41.3416H72.6021V26.9578C72.6021 24.1906 70.3525 21.9391 67.5873 21.9391H52.8633L45.9514 7.40977H50.434C51.71 7.40977 52.7482 6.37168 52.7482 5.09551V2.31426C52.7482 1.03828 51.7102 0 50.434 0H25.3912C24.5822 0 23.9264 0.655664 23.9264 1.46484C23.9264 2.27402 24.5822 2.92969 25.3912 2.92969H49.8182V4.48008H43.632H15.2404H13.6459V2.92969H19.4912C20.3002 2.92969 20.9561 2.27402 20.9561 1.46484C20.9561 0.655664 20.3002 0 19.4912 0H13.0303C11.7541 0 10.716 1.03809 10.716 2.31426V5.09551C10.716 6.37149 11.7541 7.40977 13.0303 7.40977H13.7754V28.735H11.5156V21.0871C11.5156 19.9881 10.6215 19.0941 9.52246 19.0941H9.51719V15.6779C9.51719 14.3992 8.47676 13.3588 7.19805 13.3588H5.7873C4.97832 13.3588 4.32246 14.0145 4.32246 14.8236C4.32246 15.6328 4.97832 16.2885 5.7873 16.2885H6.5875V19.0941H6.58223C5.4832 19.0941 4.58906 19.9881 4.58906 21.0871V28.735H4.47129C3.28711 28.735 2.32344 29.6984 2.32344 30.8826V42.1225C2.32344 43.1443 3.04121 44.0002 3.99844 44.2166C1.55098 46.3549 0 49.4969 0 52.9996C0 59.4217 5.2248 64.6463 11.6467 64.6463H73.2064C76.7885 64.6463 79.9971 63.0195 82.1352 60.4654L96.6926 63.9019C96.8994 63.9508 97.1076 63.9744 97.3135 63.9744C98.1648 63.9744 98.9771 63.5695 99.4906 62.8564C100.129 61.9701 100.171 60.7971 99.5963 59.8676ZM7.51875 22.024H8.58594V28.7195H7.51875V22.024ZM5.25332 31.6648H13.9887C15.4865 31.6648 16.7053 30.4463 16.7053 28.9482V7.41016H42.7068L50.6148 24.0334C50.8576 24.5438 51.3725 24.8689 51.9377 24.8689H67.5869C68.7365 24.8689 69.6719 25.8061 69.6719 26.9578V41.3416H5.25332V31.6648ZM81.9227 53.0162C81.9225 53.1432 81.9187 53.2693 81.9131 53.3951C81.9109 53.4414 81.908 53.4875 81.9053 53.5336C81.8998 53.6228 81.893 53.7117 81.885 53.8002C81.8807 53.8477 81.8766 53.8951 81.8715 53.9424C81.8592 54.0564 81.8447 54.1701 81.8281 54.2828C81.8238 54.3121 81.8193 54.3414 81.8146 54.3707C81.7967 54.4836 81.7766 54.5957 81.7545 54.707C81.7459 54.7506 81.7361 54.7938 81.727 54.8373C81.7078 54.926 81.6875 55.0145 81.6656 55.1021C81.6555 55.143 81.6455 55.184 81.6348 55.2246C81.6055 55.3354 81.5744 55.4451 81.541 55.5539C81.5367 55.5682 81.5328 55.5824 81.5285 55.5967C81.4891 55.7229 81.4465 55.8477 81.4016 55.9711C81.3918 55.9977 81.3814 56.024 81.3715 56.0506C81.335 56.1482 81.2967 56.2451 81.2566 56.3412C81.2436 56.3728 81.2301 56.4045 81.2166 56.4359C81.1742 56.5344 81.1301 56.6316 81.0844 56.7281C81.074 56.7498 81.0643 56.7719 81.0537 56.7936C80.9951 56.9143 80.9344 57.0334 80.8705 57.151C80.8693 57.1529 80.8682 57.1551 80.8672 57.157C80.8063 57.2689 80.7424 57.3789 80.6768 57.4877C80.6609 57.5139 80.6445 57.5398 80.6285 57.5658C80.574 57.6539 80.5182 57.7412 80.4607 57.8272C80.4441 57.852 80.4277 57.8768 80.4109 57.9016C78.84 60.2021 76.1971 61.7164 73.2064 61.7164H11.6467C6.84004 61.7164 2.92969 57.8061 2.92969 52.9881C2.92969 48.1816 6.84004 44.2711 11.6467 44.2711H73.2064C73.6264 44.2711 74.0389 44.3027 74.4432 44.3604C74.4961 44.3678 74.549 44.3756 74.6004 44.384C74.6953 44.3992 74.7896 44.4164 74.8836 44.4348C74.9314 44.4441 74.9783 44.4535 75.024 44.4633C75.107 44.4811 75.1895 44.5006 75.2717 44.5205C75.3426 44.5377 75.4121 44.5557 75.4805 44.574C75.5824 44.6016 75.6844 44.6295 75.7848 44.6607C75.7936 44.6635 75.8018 44.6662 75.8105 44.6689C75.9227 44.7041 76.0332 44.7424 76.1434 44.7818C76.1697 44.7912 76.1963 44.8002 76.2225 44.81C78.0467 45.4852 79.584 46.7551 80.6012 48.384C80.6396 48.4455 80.6773 48.5076 80.7145 48.5705C81.1209 49.259 81.4367 50.0072 81.6428 50.8C81.6459 50.8121 81.649 50.8242 81.6521 50.8363C81.6836 50.9592 81.7119 51.083 81.7379 51.208C81.7418 51.2262 81.7457 51.2441 81.7492 51.2621C81.7734 51.3822 81.7949 51.5035 81.8141 51.6254C81.8178 51.6473 81.8213 51.6688 81.8246 51.69C81.8426 51.8096 81.8574 51.9301 81.8705 52.051C81.8736 52.0756 81.8766 52.1002 81.8791 52.1252C81.8898 52.2336 81.8973 52.3432 81.9041 52.4527L81.9119 52.5615C81.9191 52.7059 81.9229 52.8512 81.9229 52.9973C81.923 53.0039 81.9227 53.01 81.9227 53.0162Z" fill="url(#paint11_linear)"/>
<defs>
<linearGradient id="paint0_linear" x1="11.94" y1="48.126" x2="11.94" y2="58.2566" gradientUnits="userSpaceOnUse">
<stop stop-color="#018AD2"/>
<stop offset="1" stop-color="#005F92"/>
</linearGradient>
<linearGradient id="paint1_linear" x1="32.1858" y1="48.126" x2="32.1858" y2="58.2566" gradientUnits="userSpaceOnUse">
<stop stop-color="#018AD2"/>
<stop offset="1" stop-color="#005F92"/>
</linearGradient>
<linearGradient id="paint2_linear" x1="52.4312" y1="48.126" x2="52.4312" y2="58.2566" gradientUnits="userSpaceOnUse">
<stop stop-color="#018AD2"/>
<stop offset="1" stop-color="#005F92"/>
</linearGradient>
<linearGradient id="paint3_linear" x1="72.6768" y1="48.126" x2="72.6768" y2="58.2566" gradientUnits="userSpaceOnUse">
<stop stop-color="#018AD2"/>
<stop offset="1" stop-color="#005F92"/>
</linearGradient>
<linearGradient id="paint4_linear" x1="21.9569" y1="51.7271" x2="21.9569" y2="54.6567" gradientUnits="userSpaceOnUse">
<stop stop-color="#018AD2"/>
<stop offset="1" stop-color="#005F92"/>
</linearGradient>
<linearGradient id="paint5_linear" x1="42.3085" y1="51.7271" x2="42.3085" y2="54.6567" gradientUnits="userSpaceOnUse">
<stop stop-color="#018AD2"/>
<stop offset="1" stop-color="#005F92"/>
</linearGradient>
<linearGradient id="paint6_linear" x1="62.6598" y1="51.7271" x2="62.6598" y2="54.6567" gradientUnits="userSpaceOnUse">
<stop stop-color="#018AD2"/>
<stop offset="1" stop-color="#005F92"/>
</linearGradient>
<linearGradient id="paint7_linear" x1="54.8228" y1="27.5938" x2="54.8228" y2="35.6764" gradientUnits="userSpaceOnUse">
<stop stop-color="#018AD2"/>
<stop offset="1" stop-color="#005F92"/>
</linearGradient>
<linearGradient id="paint8_linear" x1="59.8353" y1="27.5938" x2="59.8353" y2="35.6764" gradientUnits="userSpaceOnUse">
<stop stop-color="#018AD2"/>
<stop offset="1" stop-color="#005F92"/>
</linearGradient>
<linearGradient id="paint9_linear" x1="19.7605" y1="32.7456" x2="19.7605" y2="35.6753" gradientUnits="userSpaceOnUse">
<stop stop-color="#018AD2"/>
<stop offset="1" stop-color="#005F92"/>
</linearGradient>
<linearGradient id="paint10_linear" x1="34.0328" y1="9.71094" x2="34.0328" y2="31.2494" gradientUnits="userSpaceOnUse">
<stop stop-color="#018AD2"/>
<stop offset="1" stop-color="#005F92"/>
</linearGradient>
<linearGradient id="paint11_linear" x1="50" y1="0" x2="50" y2="64.6463" gradientUnits="userSpaceOnUse">
<stop stop-color="#018AD2"/>
<stop offset="1" stop-color="#005F92"/>
</linearGradient>
</defs>
</svg>
