<svg width="80" height="80" viewBox="0 0 80 80" fill="none" xmlns="http://www.w3.org/2000/svg">
<path d="M4.6875 0C3.825 0 3.125 0.7 3.125 1.5625C3.125 2.425 3.825 3.125 4.6875 3.125C5.55 3.125 6.25 2.425 6.25 1.5625C6.25 0.7 5.55 0 4.6875 0Z" fill="url(#paint0_linear)"/>
<path d="M78.4375 73.2812H73.75V14.0625C73.75 13.1995 73.0503 12.5 72.1875 12.5H59.2188C58.3559 12.5 57.6562 13.1995 57.6562 14.0625V73.2812H51.4062V27.0312C51.4062 26.1683 50.7066 25.4688 49.8438 25.4688H36.875C36.012 25.4688 35.3125 26.1683 35.3125 27.0312V73.2812H29.0625V39.5312C29.0625 38.6683 28.363 37.9688 27.5 37.9688H14.5312C13.6683 37.9688 12.9688 38.6683 12.9688 39.5312V73.2812H6.25V7.8125C6.25 6.94953 5.55047 6.25 4.6875 6.25C3.82453 6.25 3.125 6.94953 3.125 7.8125V9.375H1.5625C0.699531 9.375 0 10.0745 0 10.9375C0 11.8005 0.699531 12.5 1.5625 12.5H3.125V22.3438H1.5625C0.699531 22.3438 0 23.0433 0 23.9062C0 24.7692 0.699531 25.4688 1.5625 25.4688H3.125V34.8438H1.5625C0.699531 34.8438 0 35.5433 0 36.4062C0 37.2692 0.699531 37.9688 1.5625 37.9688H3.125V47.3438H1.5625C0.699531 47.3438 0 48.0433 0 48.9062C0 49.7692 0.699531 50.4688 1.5625 50.4688H3.125V60.3125H1.5625C0.699531 60.3125 0 61.012 0 61.875C0 62.738 0.699531 63.4375 1.5625 63.4375H3.125V73.2812H1.5625C0.699531 73.2812 0 73.9808 0 74.8438C0 75.7067 0.699531 76.4062 1.5625 76.4062H3.125V78.4375C3.125 79.3005 3.82453 80 4.6875 80C5.55047 80 6.25 79.3005 6.25 78.4375V76.4062H16.0938V78.4375C16.0938 79.3005 16.7933 80 17.6562 80C18.5192 80 19.2188 79.3005 19.2188 78.4375V76.4062H29.0625V78.4375C29.0625 79.3005 29.762 80 30.625 80C31.488 80 32.1875 79.3005 32.1875 78.4375V76.4062H41.5625V78.4375C41.5625 79.3005 42.2622 80 43.125 80C43.9878 80 44.6875 79.3005 44.6875 78.4375V76.4062H54.5312V78.4375C54.5312 79.3005 55.2309 80 56.0938 80C56.9566 80 57.6562 79.3005 57.6562 78.4375V76.4062H67.5V78.4375C67.5 79.3005 68.1997 80 69.0625 80C69.9253 80 70.625 79.3005 70.625 78.4375V76.4062H78.4375C79.3003 76.4062 80 75.7067 80 74.8438C80 73.9808 79.3003 73.2812 78.4375 73.2812ZM25.9375 73.2812H16.0938V41.0938H25.9375V73.2812ZM48.2812 73.2812H38.4375V28.5938H48.2812V73.2812ZM70.625 73.2812H60.7812V15.625H70.625V73.2812Z" fill="url(#paint1_linear)"/>
<defs>
<linearGradient id="paint0_linear" x1="40" y1="0" x2="40" y2="80" gradientUnits="userSpaceOnUse">
<stop stop-color="#018AD2"/>
<stop offset="1" stop-color="#005F92"/>
</linearGradient>
<linearGradient id="paint1_linear" x1="40" y1="0" x2="40" y2="80" gradientUnits="userSpaceOnUse">
<stop stop-color="#018AD2"/>
<stop offset="1" stop-color="#005F92"/>
</linearGradient>
</defs>
</svg>
