<svg width="100" height="101" viewBox="0 0 100 101" fill="none" xmlns="http://www.w3.org/2000/svg">
<path d="M12.3789 84.1294C9.17197 84.1294 6.56274 86.7435 6.56274 89.9566C6.56274 93.1696 9.17177 95.7837 12.3789 95.7837C15.5858 95.7837 18.1948 93.1696 18.1948 89.9566C18.1948 86.7435 15.5858 84.1294 12.3789 84.1294ZM12.3789 92.8277C10.802 92.8277 9.51879 91.5397 9.51879 89.9566C9.51879 88.3734 10.8016 87.0854 12.3789 87.0854C13.9557 87.0854 15.2387 88.3734 15.2387 89.9566C15.2387 91.5397 13.9557 92.8277 12.3789 92.8277Z" fill="url(#paint0_linear)"/>
<path d="M77.968 95.7837C81.1747 95.7837 83.7839 93.1696 83.7839 89.9566C83.7839 86.7435 81.1749 84.1294 77.968 84.1294C74.7611 84.1294 72.1519 86.7435 72.1519 89.9566C72.1519 93.1696 74.7611 95.7837 77.968 95.7837ZM77.968 87.0854C79.545 87.0854 80.8279 88.3734 80.8279 89.9566C80.8279 91.5395 79.545 92.8277 77.968 92.8277C76.3909 92.8277 75.1079 91.5397 75.1079 89.9566C75.1079 88.3734 76.3909 87.0854 77.968 87.0854Z" fill="url(#paint1_linear)"/>
<path d="M19.2663 86.3722C18.9876 86.7502 18.9052 87.2381 19.0444 87.6866C19.271 88.4181 19.3861 89.1817 19.3861 89.9565C19.3861 90.7309 19.2712 91.4945 19.0444 92.2266C18.9054 92.6749 18.9878 93.1628 19.2663 93.5409C19.5449 93.9189 19.9865 94.142 20.4561 94.142H69.891C70.3606 94.142 70.802 93.9189 71.0807 93.5409C71.3593 93.163 71.4417 92.6751 71.3027 92.2266C71.0761 91.4945 70.961 90.7309 70.961 89.9565C70.961 89.182 71.0759 88.4184 71.3027 87.6864C71.4417 87.2379 71.3593 86.75 71.0807 86.372C70.8022 85.9941 70.3606 85.771 69.891 85.771H20.4559C19.9865 85.7708 19.5447 85.9939 19.2663 86.3722ZM22.2714 88.7268H68.0755C68.0286 89.1334 68.005 89.5438 68.005 89.9561C68.005 90.3683 68.0286 90.7786 68.0755 91.1853H22.2714C22.3183 90.7788 22.3419 90.3683 22.3419 89.9561C22.3419 89.5438 22.3185 89.1336 22.2714 88.7268Z" fill="url(#paint2_linear)"/>
<path d="M41.5575 62.9248C40.7413 62.9248 40.0796 63.5863 40.0796 64.4027C40.0796 65.2191 40.7413 65.8807 41.5575 65.8807H45.1818C45.998 65.8807 46.6597 65.2191 46.6597 64.4027C46.6597 63.5863 45.998 62.9248 45.1818 62.9248H41.5575Z" fill="url(#paint3_linear)"/>
<path d="M8.78356 68.3309C9.33098 68.3309 9.85712 68.0252 10.1133 67.4999L13.79 59.9554C14.1474 59.2217 13.8426 58.3368 13.1088 57.9793C12.3747 57.6218 11.4901 57.9263 11.1325 58.6605L7.4558 66.205C7.09834 66.9387 7.40318 67.8236 8.13702 68.1811C8.3457 68.2828 8.56621 68.3309 8.78356 68.3309Z" fill="url(#paint4_linear)"/>
<path d="M16.1488 68.3309C16.6962 68.3309 17.2224 68.0252 17.4785 67.4999L21.1552 59.9554C21.5127 59.2217 21.2078 58.3368 20.474 57.9793C19.74 57.6218 18.8556 57.9263 18.4977 58.6605L14.821 66.205C14.4636 66.9387 14.7684 67.8236 15.5023 68.1811C15.7109 68.2828 15.9314 68.3309 16.1488 68.3309Z" fill="url(#paint5_linear)"/>
<path d="M23.514 68.3309C24.0615 68.3309 24.5876 68.0252 24.8438 67.4999L28.5204 59.9554C28.8779 59.2217 28.5731 58.3368 27.8392 57.9793C27.1054 57.6218 26.2208 57.9263 25.8629 58.6605L22.1863 66.205C21.8288 66.9387 22.1337 67.8236 22.8675 68.1811C23.0762 68.2828 23.2967 68.3309 23.514 68.3309Z" fill="url(#paint6_linear)"/>
<path d="M61.2602 60.6793C62.3211 60.6793 63.1844 59.8156 63.1844 58.7539V53.3632C63.1844 53.0733 63.1174 52.7823 62.9901 52.52L59.3903 45.1286C59.0703 44.4716 58.3914 44.0474 57.6611 44.0474H41.7543C40.6934 44.0474 39.8301 44.9111 39.8301 45.9728V53.3147C39.8301 53.8249 40.038 54.3235 40.4008 54.6829L45.8935 60.1222C46.2561 60.4815 46.7369 60.6793 47.2473 60.6793H61.2602ZM42.7861 52.8849V47.0034H57.0154L60.2284 53.6011V57.7233H47.6721L42.7861 52.8849Z" fill="url(#paint7_linear)"/>
<path d="M79.866 65.7929C79.866 71.3562 84.3819 75.8822 89.933 75.8822C95.4841 75.8822 100 71.3562 100 65.7929C100 60.7331 96.2638 56.5322 91.4111 55.8134V43.2904H93.212C94.3685 43.2904 95.3814 42.4683 95.62 41.3352L97.2568 33.5653C97.4105 32.8348 97.229 32.0836 96.759 31.5041C96.3531 31.0038 95.7771 30.6891 95.1473 30.6128L80.6562 16.9542C80.0622 16.3948 79.127 16.422 78.5666 17.0159C78.0067 17.61 78.0345 18.5453 78.6282 19.1055L90.817 30.5939H85.8104L61.3848 10.77L58.347 8.30425C58.2534 8.22523 58.1673 8.1407 58.0853 8.05301C58.0619 8.02778 58.0404 8.00118 58.0179 7.97537C57.9592 7.90817 57.903 7.8392 57.8508 7.76727C57.8317 7.74107 57.8132 7.71446 57.7951 7.68766C57.7365 7.60096 57.6814 7.51189 57.6321 7.41908C57.6264 7.40863 57.6203 7.39838 57.6145 7.38774C57.5566 7.27542 57.5048 7.15896 57.4603 7.03797C57.4573 7.02969 57.453 7.0222 57.4498 7.01412C57.3485 6.72997 57.2882 6.42847 57.2746 6.11574C57.2374 5.25323 57.5523 4.44274 58.162 3.83364C59.3343 2.66292 61.2441 2.65997 62.4194 3.82772C62.4286 3.83698 62.4379 3.84605 62.4474 3.85492L74.3005 15.027C74.8946 15.5867 75.8298 15.5593 76.3901 14.9653C76.9499 14.3712 76.9221 13.4358 76.3284 12.8758L64.4881 1.71587C62.1597 -0.581216 58.3892 -0.571363 56.0732 1.74208C54.8875 2.92658 54.2488 4.56747 54.3213 6.24363C54.3322 6.4935 54.3606 6.74061 54.4019 6.98476L11.2302 41.1699C9.06361 41.1886 7.30665 42.9584 7.30665 45.1323V51.8793H3.52199C1.58 51.8793 0 53.4615 0 55.4066V60.0832C0 60.8996 0.661715 61.5611 1.47792 61.5611C2.29413 61.5611 2.95585 60.8996 2.95585 60.0832V55.4066C2.95585 55.0915 3.20965 54.8354 3.52179 54.8354H8.78438H24.7735H33.5433C35.4853 54.8354 37.0653 53.2532 37.0653 51.3083V42.4451C37.0653 42.13 37.3193 41.874 37.6313 41.874H59.9853C60.5109 41.874 60.9996 42.1806 61.2307 42.6553L65.8428 52.1258C65.9353 52.3154 65.9841 52.5274 65.9841 52.7387V71.0949C65.9841 71.8636 65.362 72.4893 64.5972 72.4893H59.8121H30.5345H3.52199C3.21005 72.4893 2.95604 72.2329 2.95604 71.918V66.0855C2.95604 65.2691 2.29433 64.6076 1.47812 64.6076C0.661912 64.6076 0.000197042 65.2691 0.000197042 66.0855V71.918C0.000197042 73.8631 1.58 75.4453 3.52219 75.4453H29.0566V79.0197H10.9244C4.90079 79.0197 0.000197042 83.9201 0.000197042 89.9439V89.9684C-1.42919e-08 95.992 4.90079 100.893 10.9244 100.893H79.4224C85.446 100.893 90.3466 95.9924 90.3466 89.9686V89.9441C90.3466 83.9205 85.4462 79.0199 79.4224 79.0199H61.2902V75.4455H64.5974C66.9921 75.4455 68.9404 73.4939 68.9404 71.0951V52.7389C68.9404 52.0817 68.7884 51.4222 68.5009 50.8314L63.8888 41.361C63.1662 39.877 61.6341 38.9179 59.9855 38.9179H37.6315C35.6895 38.9179 34.1095 40.5001 34.1095 42.4451V51.3083C34.1095 51.6234 33.8557 51.8793 33.5435 51.8793H26.2519V49.8701C26.2519 48.8547 26.0757 47.8801 25.7553 46.9734L61.5417 14.7043L82.8106 31.9668C82.5678 32.4571 82.4943 33.0171 82.6096 33.5657L84.2463 41.3356C84.485 42.4683 85.4976 43.2906 86.6544 43.2906H88.4553V55.8136C83.6025 56.5322 79.866 60.7329 79.866 65.7929ZM32.0126 75.4455H58.3344V79.0199H32.0126V75.4455ZM79.4226 81.9757C83.8159 81.9759 87.3906 85.5504 87.3906 89.9439V89.9684C87.3906 94.3621 83.8159 97.9367 79.4224 97.9367H10.9246C6.53104 97.9367 2.95644 94.3621 2.95644 89.9684V89.9439C2.95644 85.5504 6.53104 81.9757 10.9246 81.9757H30.5349H59.8125H79.4226ZM23.2958 51.8791H10.2625V45.1325C10.2625 44.5766 10.712 44.1244 11.2643 44.1244H11.8291H17.568C17.6884 44.1244 17.808 44.1295 17.927 44.1368C17.9631 44.139 17.9987 44.1421 18.0346 44.1451C18.1213 44.1522 18.2074 44.1612 18.2933 44.1721C18.3298 44.1768 18.3662 44.1807 18.4025 44.186C18.5119 44.202 18.6204 44.2209 18.728 44.243C18.7724 44.2523 18.8159 44.2635 18.8597 44.2735C18.9239 44.2883 18.988 44.3039 19.0516 44.3208C19.1105 44.3368 19.1691 44.3533 19.2272 44.3709C19.2688 44.3835 19.3099 44.3973 19.3511 44.4107C19.5904 44.4895 19.8233 44.5825 20.0475 44.6909C20.0483 44.6913 20.0493 44.6917 20.0501 44.6921C20.8649 45.0868 21.5722 45.6703 22.1174 46.3846C22.1395 46.4138 22.1619 46.4429 22.1834 46.4725C22.2213 46.5241 22.2585 46.5763 22.2948 46.6293C22.3446 46.7029 22.3935 46.7771 22.4402 46.8534C22.4603 46.8859 22.4798 46.9188 22.4993 46.9517C22.549 47.0361 22.5967 47.122 22.6424 47.2095C23.0587 48.0056 23.2956 48.9101 23.2956 49.8699V51.8791H23.2958ZM24.2689 44.3333C23.1945 43.0226 21.7676 42.0665 20.1646 41.5658C20.1545 41.5626 20.1443 41.5593 20.1342 41.5561C20.0184 41.5205 19.9017 41.4872 19.7841 41.4562C19.7484 41.4468 19.7127 41.4377 19.6769 41.4288C19.5764 41.4038 19.4757 41.3802 19.374 41.3587C19.3184 41.3469 19.2625 41.3364 19.2067 41.3256C19.119 41.3088 19.0313 41.2923 18.9428 41.2783C18.8695 41.2665 18.7954 41.2572 18.7215 41.2472C18.6467 41.2373 18.572 41.2265 18.4965 41.2184C18.4017 41.2081 18.3059 41.2014 18.2104 41.1943C18.1526 41.1902 18.0953 41.1841 18.0374 41.1811C17.8821 41.1729 17.7258 41.1681 17.5684 41.1681H15.9945L55.6558 9.76286C55.668 9.77784 55.682 9.79124 55.6944 9.80602C55.7987 9.93214 55.9073 10.0549 56.0219 10.1725C56.0361 10.1871 56.0511 10.2009 56.0655 10.2153C56.1898 10.3402 56.3189 10.461 56.4549 10.5753C56.4612 10.5806 56.4673 10.5858 56.4738 10.5909L59.2186 12.819L24.2689 44.3333ZM87.0562 40.3346L85.6271 33.5501H94.2387L92.8096 40.3346H87.0562ZM89.933 58.6598C93.8538 58.6598 97.044 61.8596 97.044 65.7929C97.044 69.7261 93.8538 72.9261 89.933 72.9261C86.0121 72.9261 82.822 69.7261 82.822 65.7929C82.822 61.8596 86.0121 58.6598 89.933 58.6598Z" fill="url(#paint8_linear)"/>
<defs>
<linearGradient id="paint0_linear" x1="12.3788" y1="84.1294" x2="12.3788" y2="95.7837" gradientUnits="userSpaceOnUse">
<stop stop-color="#018AD2"/>
<stop offset="1" stop-color="#005F92"/>
</linearGradient>
<linearGradient id="paint1_linear" x1="77.9679" y1="84.1294" x2="77.9679" y2="95.7837" gradientUnits="userSpaceOnUse">
<stop stop-color="#018AD2"/>
<stop offset="1" stop-color="#005F92"/>
</linearGradient>
<linearGradient id="paint2_linear" x1="45.1735" y1="85.771" x2="45.1735" y2="94.142" gradientUnits="userSpaceOnUse">
<stop stop-color="#018AD2"/>
<stop offset="1" stop-color="#005F92"/>
</linearGradient>
<linearGradient id="paint3_linear" x1="43.3696" y1="62.9248" x2="43.3696" y2="65.8807" gradientUnits="userSpaceOnUse">
<stop stop-color="#018AD2"/>
<stop offset="1" stop-color="#005F92"/>
</linearGradient>
<linearGradient id="paint4_linear" x1="10.6229" y1="57.8296" x2="10.6229" y2="68.3309" gradientUnits="userSpaceOnUse">
<stop stop-color="#018AD2"/>
<stop offset="1" stop-color="#005F92"/>
</linearGradient>
<linearGradient id="paint5_linear" x1="17.9881" y1="57.8296" x2="17.9881" y2="68.3309" gradientUnits="userSpaceOnUse">
<stop stop-color="#018AD2"/>
<stop offset="1" stop-color="#005F92"/>
</linearGradient>
<linearGradient id="paint6_linear" x1="25.3534" y1="57.8296" x2="25.3534" y2="68.3309" gradientUnits="userSpaceOnUse">
<stop stop-color="#018AD2"/>
<stop offset="1" stop-color="#005F92"/>
</linearGradient>
<linearGradient id="paint7_linear" x1="51.5072" y1="44.0474" x2="51.5072" y2="60.6793" gradientUnits="userSpaceOnUse">
<stop stop-color="#018AD2"/>
<stop offset="1" stop-color="#005F92"/>
</linearGradient>
<linearGradient id="paint8_linear" x1="50" y1="0" x2="50" y2="100.893" gradientUnits="userSpaceOnUse">
<stop stop-color="#018AD2"/>
<stop offset="1" stop-color="#005F92"/>
</linearGradient>
</defs>
</svg>
