<svg width="80" height="80" viewBox="0 0 80 80" fill="none" xmlns="http://www.w3.org/2000/svg">
<path d="M9.9994 45.8755C10.4103 45.8755 10.8135 45.7099 11.1039 45.4177C11.3946 45.1271 11.5619 44.724 11.5619 44.313C11.5619 43.9021 11.3947 43.5005 11.1039 43.2085C10.8135 42.9179 10.4103 42.7505 9.9994 42.7505C9.58846 42.7505 9.18534 42.9177 8.89471 43.2085C8.60408 43.499 8.4369 43.9021 8.4369 44.313C8.4369 44.724 8.60393 45.1271 8.89471 45.4177C9.18534 45.7099 9.58846 45.8755 9.9994 45.8755Z" fill="url(#paint0_linear)"/>
<path d="M80 46.0724C80 38.5404 73.8724 32.4128 66.3403 32.4128H62.3473L57.8495 21.4343L70.7205 2.43938C71.2047 1.72501 71.0178 0.753448 70.3034 0.269387C69.5891 -0.214519 68.6177 -0.0279565 68.1334 0.686417L55.1311 19.8753C51.4886 19.6858 47.9717 18.295 45.1828 15.9581L52.3225 2.2861C52.722 1.5211 52.4256 0.577198 51.6608 0.177824C50.8955 -0.221706 49.9517 0.0746995 49.5525 0.839542L42.4928 14.3584C42.0605 14.4489 41.6838 14.717 41.4603 15.1028L33.4375 28.9603L31.8342 31.4004C31.1342 32.4656 30.9383 33.7203 31.1866 34.8804H16.4064C15.5436 34.8804 14.8439 35.5799 14.8439 36.4429C14.8439 37.3059 15.5436 38.0054 16.4064 38.0054H33.5256L40.6798 42.7507H16.2502C15.3873 42.7507 14.6877 43.4504 14.6877 44.3132C14.6877 45.176 15.3873 45.8757 16.2502 45.8757H45.3911L52.5452 50.6208H25.573C24.7102 50.6208 24.0105 51.3205 24.0105 52.1833C24.0105 53.0462 24.7102 53.7458 25.573 53.7458H38.4375V60.625H31.3956C30.5328 60.625 29.8331 61.3247 29.8331 62.1875C29.8331 63.0504 30.5328 63.75 31.3956 63.75H38.4375V70.9356C38.4375 71.7985 39.1372 72.4981 40 72.4981C40.8628 72.4981 41.5625 71.7985 41.5625 70.9356V53.7501H76.875V76.875H3.125V63.75H18.9189C19.7817 63.75 20.4814 63.0504 20.4814 62.1875C20.4814 61.3247 19.7817 60.625 18.9189 60.625H1.5625C0.699688 60.625 0 61.3247 0 62.1875V78.4375C0 79.3003 0.699688 80 1.5625 80H78.4375C79.3003 80 80 79.3003 80 78.4375V52.1876C80 51.7152 79.7894 51.2927 79.4581 51.0062C79.8037 50.3269 80 49.5596 80 48.7468V46.0724ZM75.0009 50.621H58.1984L34.8716 35.1485C34.8716 35.1485 34.8689 35.1468 34.8675 35.1459L34.86 35.1409C34.1902 34.6965 34.0042 33.7884 34.4458 33.1165L35.2091 31.9548L58.9084 47.3818C59.162 47.5469 59.4583 47.6348 59.7608 47.6348H76.8748V48.7468C76.875 49.7802 76.0342 50.621 75.0009 50.621ZM43.1848 18.3609C46.5275 21.1568 50.7497 22.8086 55.1152 23.0034L59.853 34.5674C60.0934 35.1543 60.6647 35.5376 61.2989 35.5376H66.3403C71.6183 35.5376 76.0023 39.4392 76.7594 44.5098H60.2247L36.8538 29.2965L43.1848 18.3609Z" fill="url(#paint1_linear)"/>
<path d="M26.2618 63.2921C26.5523 63.0017 26.7196 62.5985 26.7196 62.1876C26.7196 61.7767 26.5524 61.3735 26.2618 61.0829C25.9696 60.7923 25.5681 60.6251 25.1571 60.6251C24.7446 60.6251 24.3431 60.7921 24.0524 61.0829C23.7602 61.3735 23.5946 61.7751 23.5946 62.1876C23.5946 62.5985 23.7602 63.0017 24.0524 63.2921C24.3431 63.5828 24.7448 63.7501 25.1571 63.7501C25.5681 63.75 25.9696 63.5828 26.2618 63.2921Z" fill="url(#paint2_linear)"/>
<defs>
<linearGradient id="paint0_linear" x1="40" y1="0" x2="40" y2="80" gradientUnits="userSpaceOnUse">
<stop stop-color="#018AD2"/>
<stop offset="1" stop-color="#005F92"/>
</linearGradient>
<linearGradient id="paint1_linear" x1="40" y1="0" x2="40" y2="80" gradientUnits="userSpaceOnUse">
<stop stop-color="#018AD2"/>
<stop offset="1" stop-color="#005F92"/>
</linearGradient>
<linearGradient id="paint2_linear" x1="40" y1="0" x2="40" y2="80" gradientUnits="userSpaceOnUse">
<stop stop-color="#018AD2"/>
<stop offset="1" stop-color="#005F92"/>
</linearGradient>
</defs>
</svg>
