<svg width="80" height="80" viewBox="0 0 80 80" fill="none" xmlns="http://www.w3.org/2000/svg">
<path d="M42.3429 50.4195C41.6312 50.8306 40.8211 51.0479 39.9997 51.0479C39.1782 51.0479 38.3681 50.8306 37.6564 50.4195C36.9092 49.9876 35.9536 50.2437 35.5219 50.9908C35.0901 51.7381 35.3459 52.6936 36.0933 53.1254C37.2793 53.8106 38.6301 54.1728 39.9997 54.1728C41.3692 54.1728 42.72 53.8106 43.9061 53.1254C44.6533 52.6936 44.9092 51.7381 44.4775 50.9908C44.0458 50.2437 43.0901 49.9878 42.3429 50.4195Z" fill="url(#paint0_linear)"/>
<path d="M73.9109 76.8744H72.774C72.254 65.9367 66.3007 56.0066 56.8715 50.3264C58.7901 47.4587 59.9743 44.1213 60.2485 40.625H60.3116C63.7581 40.625 66.5618 37.8217 66.5618 34.3756C66.5618 31.4686 64.5668 29.0189 61.8741 28.3231V23.4377C61.8741 18.4822 60.1709 13.6278 57.0777 9.76844C54.2938 6.29469 50.4837 3.73609 46.2493 2.47141V1.5625C46.2493 0.699531 45.5496 0 44.6868 0H35.3121C34.4493 0 33.7496 0.699531 33.7496 1.5625V2.47125C29.5151 3.73594 25.7051 6.29453 22.9212 9.76828C19.8281 13.6277 18.1248 18.4822 18.1248 23.4375V28.323C15.4321 29.0187 13.4371 31.4684 13.4371 34.3755C13.4371 37.8216 16.2409 40.6248 19.6873 40.6248H19.7509C20.0251 44.1209 21.2091 47.4586 23.1279 50.3263C13.6982 56.0063 7.74508 65.9367 7.22508 76.8744H6.08821C5.22539 76.8744 4.52571 77.5742 4.52571 78.4369C4.52571 79.2998 5.22539 79.9994 6.08821 79.9994H8.73758C8.74149 79.9994 8.74555 80 8.74961 80C8.75368 80 8.75774 79.9994 8.76164 79.9994H18.1126C18.1165 79.9994 18.1206 80 18.1246 80C18.1287 80 18.1327 79.9994 18.1366 79.9994H61.8623C61.8663 79.9994 61.8702 80 61.8743 80C61.8784 80 61.8823 79.9994 61.8863 79.9994H71.2374C71.2413 79.9994 71.2454 80 71.2495 80C71.2535 80 71.2576 79.9994 71.2615 79.9994H73.9109C74.7737 79.9994 75.4734 79.2998 75.4734 78.4369C75.4734 77.5742 74.7737 76.8744 73.9109 76.8744ZM60.312 31.2503C62.0349 31.2506 63.4366 32.6527 63.4366 34.3756C63.4366 36.0983 62.0349 37.4997 60.312 37.5V31.2503ZM19.6871 37.5C17.964 37.5 16.562 36.0983 16.562 34.3756C16.562 32.6523 17.964 31.2503 19.6871 31.2503V37.5ZM16.562 76.8744H10.3532C10.6759 70.7444 12.8862 64.97 16.562 60.2503V76.8744ZM46.2491 5.75656C53.699 8.36891 58.749 15.3761 58.749 23.4377V23.8866C55.6915 22.3494 50.8382 21.5272 46.2491 21.1544V5.75656ZM36.8746 3.125H43.1243V20.9639C42.0245 20.9188 40.9715 20.898 39.9995 20.898C39.0274 20.898 37.9745 20.9188 36.8746 20.9639V3.125ZM21.2496 23.4377C21.2496 15.3761 26.2996 8.36891 33.7495 5.75656V21.1544C29.1602 21.5273 24.307 22.3494 21.2496 23.8866V23.4377ZM21.2496 27.7089C21.383 27.383 22.6085 26.3072 26.5895 25.3636C30.2351 24.4991 34.9976 24.023 39.9993 24.023C45.001 24.023 49.7634 24.4991 53.409 25.3633C57.3899 26.3072 58.6155 27.383 58.749 27.7089V28.1255H21.2496V27.7089ZM22.8121 39.0625V31.2503H57.187V39.0625C57.187 44.1941 54.847 49.0456 50.9366 52.2914V48.4111C50.9366 45.8409 48.8462 43.7502 46.2766 43.7502H33.7223C31.1526 43.7502 29.062 45.8409 29.062 48.4111V52.2911C25.152 49.0455 22.8121 44.1934 22.8121 39.0625ZM38.4373 76.8744H19.687V56.8261C21.3073 55.3063 23.1113 53.9538 25.0781 52.8036C26.2749 54.105 27.6476 55.2598 29.1727 56.2269C29.851 61.0203 33.647 64.8234 38.4374 65.5119L38.4373 76.8744ZM39.9993 62.5002C35.6915 62.5002 32.187 58.9958 32.187 54.688V48.4111C32.187 47.5642 32.8757 46.8752 33.7223 46.8752H46.2766C47.123 46.8752 47.8116 47.5642 47.8116 48.4111V54.688C47.8116 58.9958 44.307 62.5002 39.9993 62.5002ZM60.3116 76.8744H41.562V65.5119C46.3521 64.8234 50.1481 61.0203 50.8263 56.2269C52.3515 55.2595 53.7241 54.105 54.9209 52.8034C56.8877 53.9538 58.6915 55.3063 60.3118 56.8261L60.3116 76.8744ZM63.4366 76.8744V60.2502C67.1124 64.97 69.3231 70.7445 69.6456 76.8744H63.4366Z" fill="url(#paint1_linear)"/>
<path d="M1.59891 76.8743H1.5625C0.699531 76.8743 0 77.5741 0 78.4368C0 79.2998 0.699531 79.9993 1.5625 79.9993H1.59891C2.46172 79.9993 3.16141 79.2998 3.16141 78.4368C3.16141 77.5741 2.46172 76.8743 1.59891 76.8743Z" fill="url(#paint2_linear)"/>
<path d="M78.4372 76.8743H78.4003C77.5375 76.8743 76.8378 77.5741 76.8378 78.4368C76.8378 79.2998 77.5375 79.9993 78.4003 79.9993H78.4372C79.3 79.9993 79.9997 79.2998 79.9997 78.4368C79.9996 77.5741 79.3 76.8743 78.4372 76.8743Z" fill="url(#paint3_linear)"/>
<path d="M29.0673 70.6246H24.3746C23.5118 70.6246 22.8121 71.3243 22.8121 72.1871C22.8121 73.0501 23.5118 73.7496 24.3746 73.7496H29.0673C29.9303 73.7496 30.6298 73.0501 30.6298 72.1871C30.6298 71.3243 29.9303 70.6246 29.0673 70.6246Z" fill="url(#paint4_linear)"/>
<path d="M33.6123 73.7496H33.6863C34.5491 73.7496 35.2488 73.0501 35.2488 72.1871C35.2488 71.3243 34.5491 70.6246 33.6863 70.6246H33.6123C32.7494 70.6246 32.0498 71.3243 32.0498 72.1871C32.0498 73.0501 32.7493 73.7496 33.6123 73.7496Z" fill="url(#paint5_linear)"/>
<path d="M44.618 70.6246H44.5442C43.6814 70.6246 42.9817 71.3243 42.9817 72.1871C42.9817 73.0501 43.6814 73.7496 44.5442 73.7496H44.618C45.4808 73.7496 46.1805 73.0501 46.1805 72.1871C46.1805 71.3243 45.4809 70.6246 44.618 70.6246Z" fill="url(#paint6_linear)"/>
<path d="M30.6262 38.3384C30.6432 39.1866 31.3349 39.8689 32.187 39.8689C33.039 39.8689 33.7307 39.1866 33.7478 38.3384H35.3121C36.1749 38.3384 36.8746 37.6389 36.8746 36.7759C36.8746 35.9133 36.1749 35.2134 35.3121 35.2134H29.0621C28.1993 35.2134 27.4996 35.9133 27.4996 36.7759C27.4996 37.6391 28.1992 38.3384 29.0621 38.3384H30.6262Z" fill="url(#paint7_linear)"/>
<path d="M44.6873 38.3384H46.2514C46.2684 39.1866 46.9601 39.8689 47.8122 39.8689C48.6642 39.8689 49.3559 39.1866 49.3729 38.3384H50.9372C51.8 38.3384 52.4997 37.6389 52.4997 36.7759C52.4997 35.9133 51.8 35.2134 50.9372 35.2134H44.6873C43.8245 35.2134 43.1248 35.9133 43.1248 36.7759C43.1248 37.6391 43.8243 38.3384 44.6873 38.3384Z" fill="url(#paint8_linear)"/>
<defs>
<linearGradient id="paint0_linear" x1="39.9999" y1="0" x2="39.9999" y2="80" gradientUnits="userSpaceOnUse">
<stop stop-color="#018AD2"/>
<stop offset="1" stop-color="#005F92"/>
</linearGradient>
<linearGradient id="paint1_linear" x1="39.9999" y1="0" x2="39.9999" y2="80" gradientUnits="userSpaceOnUse">
<stop stop-color="#018AD2"/>
<stop offset="1" stop-color="#005F92"/>
</linearGradient>
<linearGradient id="paint2_linear" x1="39.9999" y1="0" x2="39.9999" y2="80" gradientUnits="userSpaceOnUse">
<stop stop-color="#018AD2"/>
<stop offset="1" stop-color="#005F92"/>
</linearGradient>
<linearGradient id="paint3_linear" x1="39.9999" y1="0" x2="39.9999" y2="80" gradientUnits="userSpaceOnUse">
<stop stop-color="#018AD2"/>
<stop offset="1" stop-color="#005F92"/>
</linearGradient>
<linearGradient id="paint4_linear" x1="39.9999" y1="0" x2="39.9999" y2="80" gradientUnits="userSpaceOnUse">
<stop stop-color="#018AD2"/>
<stop offset="1" stop-color="#005F92"/>
</linearGradient>
<linearGradient id="paint5_linear" x1="39.9999" y1="0" x2="39.9999" y2="80" gradientUnits="userSpaceOnUse">
<stop stop-color="#018AD2"/>
<stop offset="1" stop-color="#005F92"/>
</linearGradient>
<linearGradient id="paint6_linear" x1="39.9999" y1="0" x2="39.9999" y2="80" gradientUnits="userSpaceOnUse">
<stop stop-color="#018AD2"/>
<stop offset="1" stop-color="#005F92"/>
</linearGradient>
<linearGradient id="paint7_linear" x1="39.9999" y1="0" x2="39.9999" y2="80" gradientUnits="userSpaceOnUse">
<stop stop-color="#018AD2"/>
<stop offset="1" stop-color="#005F92"/>
</linearGradient>
<linearGradient id="paint8_linear" x1="39.9999" y1="0" x2="39.9999" y2="80" gradientUnits="userSpaceOnUse">
<stop stop-color="#018AD2"/>
<stop offset="1" stop-color="#005F92"/>
</linearGradient>
</defs>
</svg>
