<svg width="63" height="80" viewBox="0 0 63 80" fill="none" xmlns="http://www.w3.org/2000/svg">
<path d="M57.8124 7.81248H51.1394C50.598 6.88014 49.591 6.25014 48.4374 6.25014H38.9056C38.1798 2.68859 35.0229 0 31.2499 0C27.477 0 24.3201 2.68859 23.5942 6.25014H14.0625C12.9089 6.25014 11.9019 6.88014 11.3604 7.81248H4.68749C2.10281 7.81248 0 9.91529 0 12.5V75.3127C0 77.8972 2.10281 80 4.68749 80H57.8124C60.3971 80 62.4999 77.8972 62.4999 75.3127V12.5C62.4999 9.91529 60.3971 7.81248 57.8124 7.81248ZM24.2182 15.625H14.0625V9.37514H24.9998C25.8628 9.37514 26.5623 8.67545 26.5623 7.81264C26.5623 5.2278 28.6653 3.12499 31.2499 3.12499C33.8346 3.12499 35.9376 5.2278 35.9376 7.81264C35.9376 8.67545 36.6373 9.37514 37.5001 9.37514H48.4374V15.625H38.2807C37.4179 15.625 36.7182 16.3247 36.7182 17.1875C36.7182 18.0503 37.4179 18.75 38.2807 18.75H48.4374C49.5912 18.75 50.5982 18.12 51.1396 17.1875H53.1249V70.625H9.37498V17.1875H11.3603C11.9017 18.12 12.9087 18.75 14.0625 18.75H24.2182C25.0812 18.75 25.7807 18.0503 25.7807 17.1875C25.7807 16.3247 25.0812 15.625 24.2182 15.625ZM59.3749 75.3127C59.3749 76.1742 58.674 76.875 57.8124 76.875H4.68749C3.82593 76.875 3.12499 76.1742 3.12499 75.3127V12.5C3.12499 11.6384 3.82593 10.9375 4.68749 10.9375H10.9375V14.0625H7.81249C6.94952 14.0625 6.24999 14.7622 6.24999 15.625V72.1875C6.24999 73.0503 6.94952 73.75 7.81249 73.75H54.6874C55.5502 73.75 56.2499 73.0503 56.2499 72.1875V15.625C56.2499 14.7622 55.5502 14.0625 54.6874 14.0625H51.5624V10.9375H57.8124C58.674 10.9375 59.3749 11.6384 59.3749 12.5V75.3127Z" fill="url(#paint0_linear)"/>
<path d="M31.2507 9.37518C32.1136 9.37518 32.8131 8.67549 32.8131 7.81268C32.8131 6.94986 32.1136 6.25018 31.2507 6.25018H31.2496C30.3866 6.25018 29.6877 6.94986 29.6877 7.81268C29.6877 8.67549 30.3877 9.37518 31.2507 9.37518Z" fill="url(#paint1_linear)"/>
<path d="M20.7707 21.968L17.7088 25.0297L16.7304 24.0513C16.1202 23.4413 15.1308 23.4413 14.5205 24.0513C13.9104 24.6614 13.9104 25.6508 14.5205 26.2611L16.6038 28.3444C16.9089 28.6496 17.3088 28.8021 17.7086 28.8021C18.1085 28.8021 18.5085 28.6494 18.8135 28.3444L22.9802 24.1779C23.5905 23.5677 23.5905 22.5783 22.9802 21.968C22.37 21.358 21.3807 21.3579 20.7707 21.968Z" fill="url(#paint2_linear)"/>
<path d="M28.125 26.7189H46.875C47.7378 26.7189 48.4375 26.0192 48.4375 25.1564C48.4375 24.2936 47.7378 23.5939 46.875 23.5939H28.125C27.262 23.5939 26.5625 24.2936 26.5625 25.1564C26.5625 26.0192 27.262 26.7189 28.125 26.7189Z" fill="url(#paint3_linear)"/>
<path d="M20.7707 31.3433L17.7088 34.405L16.7304 33.4266C16.1202 32.8166 15.1308 32.8166 14.5205 33.4266C13.9104 34.0368 13.9104 35.0261 14.5205 35.6365L16.6038 37.7197C16.9089 38.0249 17.3088 38.1774 17.7086 38.1774C18.1085 38.1774 18.5085 38.0247 18.8135 37.7197L22.9802 33.5532C23.5905 32.943 23.5905 31.9536 22.9802 31.3433C22.37 30.7333 21.3807 30.7333 20.7707 31.3433Z" fill="url(#paint4_linear)"/>
<path d="M28.125 36.0939H46.875C47.7378 36.0939 48.4375 35.3942 48.4375 34.5314C48.4375 33.6686 47.7378 32.9689 46.875 32.9689H28.125C27.262 32.9689 26.5625 33.6686 26.5625 34.5314C26.5625 35.3942 27.262 36.0939 28.125 36.0939Z" fill="url(#paint5_linear)"/>
<path d="M20.7705 40.7184L17.7088 43.7802L16.7304 42.8018C16.1202 42.1918 15.1308 42.1918 14.5205 42.8018C13.9103 43.412 13.9103 44.4013 14.5205 45.0116L16.6038 47.0949C16.8968 47.3879 17.2943 47.5526 17.7086 47.5526C18.123 47.5526 18.5205 47.3879 18.8135 47.0949L22.9802 42.9282C23.5903 42.3181 23.5903 41.3287 22.9802 40.7184C22.37 40.1082 21.3807 40.1082 20.7705 40.7184Z" fill="url(#paint6_linear)"/>
<path d="M28.125 45.4689H46.875C47.7378 45.4689 48.4375 44.7692 48.4375 43.9064C48.4375 43.0436 47.7378 42.3439 46.875 42.3439H28.125C27.262 42.3439 26.5625 43.0436 26.5625 43.9064C26.5625 44.7692 27.262 45.4689 28.125 45.4689Z" fill="url(#paint7_linear)"/>
<path d="M20.7705 50.0934L17.7088 53.1552L16.7304 52.1768C16.1202 51.5668 15.1308 51.5668 14.5205 52.1768C13.9103 52.787 13.9103 53.7763 14.5205 54.3866L16.6038 56.4699C16.8968 56.7629 17.2943 56.9276 17.7086 56.9276C18.123 56.9276 18.5205 56.7629 18.8135 56.4699L22.9802 52.3032C23.5903 51.6931 23.5903 50.7037 22.9802 50.0934C22.37 49.4832 21.3807 49.4832 20.7705 50.0934Z" fill="url(#paint8_linear)"/>
<path d="M28.125 54.8439H46.875C47.7378 54.8439 48.4375 54.1442 48.4375 53.2814C48.4375 52.4186 47.7378 51.7189 46.875 51.7189H28.125C27.262 51.7189 26.5625 52.4186 26.5625 53.2814C26.5625 54.1442 27.262 54.8439 28.125 54.8439Z" fill="url(#paint9_linear)"/>
<path d="M20.7704 59.4684L17.7087 62.5302L16.7303 61.5516C16.1203 60.9418 15.1309 60.9416 14.5206 61.5516C13.9104 62.1618 13.9103 63.151 14.5206 63.7615L16.6039 65.8449C16.8968 66.1379 17.2943 66.3026 17.7087 66.3026C18.1231 66.3026 18.5206 66.1379 18.8136 65.8449L22.9803 61.6782C23.5904 61.0681 23.5904 60.0787 22.9803 59.4684C22.37 58.8582 21.3806 58.8582 20.7704 59.4684Z" fill="url(#paint10_linear)"/>
<path d="M28.125 64.2188H46.875C47.7378 64.2188 48.4375 63.5191 48.4375 62.6562C48.4375 61.7934 47.7378 61.0938 46.875 61.0938H28.125C27.262 61.0938 26.5625 61.7934 26.5625 62.6562C26.5625 63.5191 27.262 64.2188 28.125 64.2188Z" fill="url(#paint11_linear)"/>
<path d="M31.2499 18.75C32.1129 18.75 32.8124 18.0503 32.8124 17.1875C32.8124 16.3247 32.1129 15.625 31.2499 15.625H31.2488C30.3859 15.625 29.687 16.3247 29.687 17.1875C29.687 18.0503 30.3871 18.75 31.2499 18.75Z" fill="url(#paint12_linear)"/>
<defs>
<linearGradient id="paint0_linear" x1="31.2499" y1="0" x2="31.2499" y2="80" gradientUnits="userSpaceOnUse">
<stop stop-color="#018AD2"/>
<stop offset="1" stop-color="#005F92"/>
</linearGradient>
<linearGradient id="paint1_linear" x1="31.2499" y1="0" x2="31.2499" y2="80" gradientUnits="userSpaceOnUse">
<stop stop-color="#018AD2"/>
<stop offset="1" stop-color="#005F92"/>
</linearGradient>
<linearGradient id="paint2_linear" x1="31.2499" y1="0" x2="31.2499" y2="80" gradientUnits="userSpaceOnUse">
<stop stop-color="#018AD2"/>
<stop offset="1" stop-color="#005F92"/>
</linearGradient>
<linearGradient id="paint3_linear" x1="31.2499" y1="0" x2="31.2499" y2="80" gradientUnits="userSpaceOnUse">
<stop stop-color="#018AD2"/>
<stop offset="1" stop-color="#005F92"/>
</linearGradient>
<linearGradient id="paint4_linear" x1="31.2499" y1="0" x2="31.2499" y2="80" gradientUnits="userSpaceOnUse">
<stop stop-color="#018AD2"/>
<stop offset="1" stop-color="#005F92"/>
</linearGradient>
<linearGradient id="paint5_linear" x1="31.2499" y1="0" x2="31.2499" y2="80" gradientUnits="userSpaceOnUse">
<stop stop-color="#018AD2"/>
<stop offset="1" stop-color="#005F92"/>
</linearGradient>
<linearGradient id="paint6_linear" x1="31.2499" y1="0" x2="31.2499" y2="80" gradientUnits="userSpaceOnUse">
<stop stop-color="#018AD2"/>
<stop offset="1" stop-color="#005F92"/>
</linearGradient>
<linearGradient id="paint7_linear" x1="31.2499" y1="0" x2="31.2499" y2="80" gradientUnits="userSpaceOnUse">
<stop stop-color="#018AD2"/>
<stop offset="1" stop-color="#005F92"/>
</linearGradient>
<linearGradient id="paint8_linear" x1="31.2499" y1="0" x2="31.2499" y2="80" gradientUnits="userSpaceOnUse">
<stop stop-color="#018AD2"/>
<stop offset="1" stop-color="#005F92"/>
</linearGradient>
<linearGradient id="paint9_linear" x1="31.2499" y1="0" x2="31.2499" y2="80" gradientUnits="userSpaceOnUse">
<stop stop-color="#018AD2"/>
<stop offset="1" stop-color="#005F92"/>
</linearGradient>
<linearGradient id="paint10_linear" x1="31.2499" y1="0" x2="31.2499" y2="80" gradientUnits="userSpaceOnUse">
<stop stop-color="#018AD2"/>
<stop offset="1" stop-color="#005F92"/>
</linearGradient>
<linearGradient id="paint11_linear" x1="31.2499" y1="0" x2="31.2499" y2="80" gradientUnits="userSpaceOnUse">
<stop stop-color="#018AD2"/>
<stop offset="1" stop-color="#005F92"/>
</linearGradient>
<linearGradient id="paint12_linear" x1="31.2499" y1="0" x2="31.2499" y2="80" gradientUnits="userSpaceOnUse">
<stop stop-color="#018AD2"/>
<stop offset="1" stop-color="#005F92"/>
</linearGradient>
</defs>
</svg>
