<svg width="45" height="32" viewBox="0 0 45 32" fill="none" xmlns="http://www.w3.org/2000/svg">
<path d="M43.1539 17.8464H2.5383C1.51922 17.8464 0.692139 17.0193 0.692139 16.0002C0.692139 14.9811 1.51922 14.1541 2.5383 14.1541H43.1539C44.173 14.1541 45 14.9811 45 16.0002C45 17.0193 44.173 17.8464 43.1539 17.8464Z" fill="white"/>
<path d="M43.1539 3.69233H2.5383C1.51922 3.69233 0.692139 2.86525 0.692139 1.84616C0.692139 0.827077 1.51922 0 2.5383 0H43.1539C44.173 0 45 0.827077 45 1.84616C45 2.86525 44.173 3.69233 43.1539 3.69233Z" fill="white"/>
<path d="M43.1539 31.9999H2.5383C1.51922 31.9999 0.692139 31.1729 0.692139 30.1538C0.692139 29.1347 1.51922 28.3076 2.5383 28.3076H43.1539C44.173 28.3076 45 29.1347 45 30.1538C45 31.1729 44.173 31.9999 43.1539 31.9999Z" fill="white"/>
</svg>
