<svg width="105" height="101" viewBox="0 0 105 101" fill="none" xmlns="http://www.w3.org/2000/svg">
<path d="M103.976 54.8128C103.041 45.4045 98.8379 36.5349 92.1408 29.8375C86.4174 24.1144 79.4122 20.4366 72.0411 18.8012V13.6314C75.0518 12.8824 77.2896 10.1572 77.2896 6.91813C77.2896 3.10339 74.1862 0 70.3714 0H55.7213C51.9065 0 48.8031 3.10339 48.8031 6.91813C48.8031 10.157 51.041 12.8822 54.0514 13.6314V18.8157C46.7029 20.4579 39.7209 24.1306 34.0138 29.8377C32.7649 31.0866 31.6132 32.3968 30.559 33.7584C30.5079 33.7546 30.4569 33.7507 30.4048 33.7507H15.905C14.7814 33.7507 13.8702 34.6617 13.8702 35.7855C13.8702 36.9092 14.7814 37.8202 15.905 37.8202H27.7903C26.2985 40.3179 25.0955 42.9408 24.1799 45.6409H2.03474C0.911159 45.6409 0 46.5519 0 47.6757C0 48.7995 0.911159 49.7104 2.03474 49.7104H23.0301C22.4436 52.2846 22.1071 54.9043 22.0202 57.5314H13.0224C11.8988 57.5314 10.9876 58.4423 10.9876 59.5661C10.9876 60.6899 11.8988 61.6009 13.0224 61.6009H22.0851C22.2568 64.2346 22.6803 66.8546 23.3556 69.4218H10.1737C9.05014 69.4218 8.13898 70.3328 8.13898 71.4566C8.13898 72.5804 9.05014 73.4913 10.1737 73.4913H24.6542C26.6503 78.7717 29.7697 83.7208 34.0138 87.9649C40.7175 94.6685 49.5963 98.8727 59.0143 99.8032C60.3585 99.9359 61.7036 100.002 63.047 100.002C70.9869 100.002 78.826 97.7038 85.4776 93.3722C86.4193 92.7589 86.6856 91.4984 86.0723 90.5567C85.4591 89.615 84.1985 89.3487 83.2569 89.962C68.6968 99.4433 49.1973 97.3932 36.8913 85.0873C22.4524 70.6484 22.4524 47.1546 36.8913 32.7154C51.3301 18.2767 74.8239 18.2767 89.263 32.7154C101.553 45.0053 103.614 64.4882 94.1639 79.0411C93.5519 79.9836 93.8198 81.2439 94.7621 81.8557C95.705 82.4678 96.9649 82.1998 97.5768 81.2573C102.626 73.4815 104.899 64.0902 103.976 54.8128ZM52.8726 6.91833C52.8726 5.34751 54.1505 4.06969 55.7213 4.06969H70.3714C71.9423 4.06969 73.2201 5.34751 73.2201 6.91833C73.2201 8.48916 71.9423 9.76698 70.3714 9.76698H70.0064H56.0861H55.7213C54.1505 9.76698 52.8726 8.48895 52.8726 6.91833ZM58.1208 18.1161V13.8365H67.9717V18.1088C64.7006 17.7198 61.3913 17.7222 58.1208 18.1161Z" fill="#E6AF6F"/>
<path d="M90.7028 84.4904C90.1656 84.4904 89.6427 84.7081 89.2645 85.0865C88.884 85.465 88.6681 85.9899 88.6681 86.5251C88.6681 87.0602 88.884 87.5852 89.2645 87.9636C89.6427 88.3441 90.1658 88.5598 90.7028 88.5598C91.2379 88.5598 91.7609 88.3441 92.1413 87.9636C92.5198 87.5852 92.7375 87.0602 92.7375 86.5251C92.7375 85.9899 92.52 85.465 92.1413 85.0865C91.7609 84.7081 91.2377 84.4904 90.7028 84.4904Z" fill="#E6AF6F"/>
<path d="M63.0772 27.3362C45.6724 27.3362 31.5125 41.496 31.5125 58.901C31.5125 76.306 45.6724 90.4658 63.0772 90.4658C80.482 90.4658 94.642 76.306 94.642 58.901C94.642 41.496 80.482 27.3362 63.0772 27.3362ZM63.0772 86.3963C47.9162 86.3963 35.5819 74.0619 35.5819 58.901C35.5819 43.7401 47.9162 31.4057 63.0772 31.4057C78.2383 31.4057 90.5725 43.7401 90.5725 58.901C90.5725 74.0619 78.2383 86.3963 63.0772 86.3963Z" fill="#E6AF6F"/>
<path d="M75.9482 43.1525L65.8702 53.2304C65.0274 52.8137 64.0794 52.5783 63.0773 52.5783C62.075 52.5783 61.1272 52.8137 60.2844 53.2304L55.774 48.72C54.9792 47.9254 53.6912 47.9254 52.8962 48.72C52.1017 49.5145 52.1017 50.8029 52.8962 51.5975L57.4066 56.1079C56.9897 56.9507 56.7545 57.8987 56.7545 58.9008C56.7545 62.3871 59.5907 65.2236 63.0773 65.2236C66.5638 65.2236 69.4 62.3871 69.4 58.9008C69.4 57.8987 69.1646 56.9507 68.7479 56.1079L78.5301 46.3257L78.8258 46.03C79.6203 45.2355 79.6203 43.9471 78.8258 43.1525C78.0312 42.3579 76.7432 42.3579 75.9482 43.1525ZM63.0773 61.1543C61.8349 61.1543 60.824 60.1434 60.824 58.901C60.824 57.6586 61.8349 56.6477 63.0773 56.6477C64.3197 56.6477 65.3305 57.6586 65.3305 58.901C65.3305 60.1434 64.3197 61.1543 63.0773 61.1543Z" fill="#E6AF6F"/>
<path d="M84.8325 56.8911H82.9473C81.8237 56.8911 80.9126 57.8021 80.9126 58.9258C80.9126 60.0496 81.8237 60.9605 82.9473 60.9605H84.8325C85.956 60.9605 86.8672 60.0496 86.8672 58.9258C86.8672 57.8021 85.956 56.8911 84.8325 56.8911Z" fill="#E6AF6F"/>
<path d="M43.2069 56.8414H41.3219C40.1984 56.8414 39.2872 57.7524 39.2872 58.8761C39.2872 59.9999 40.1984 60.9109 41.3219 60.9109H43.2069C44.3305 60.9109 45.2416 59.9999 45.2416 58.8761C45.2416 57.7524 44.3305 56.8414 43.2069 56.8414Z" fill="#E6AF6F"/>
<path d="M63.1021 41.0653C64.2257 41.0653 65.1368 40.1544 65.1368 39.0306V37.1457C65.1368 36.0219 64.2257 35.111 63.1021 35.111C61.9785 35.111 61.0674 36.0219 61.0674 37.1457V39.0306C61.0674 40.1544 61.9785 41.0653 63.1021 41.0653Z" fill="#E6AF6F"/>
<path d="M63.0524 76.7366C61.9288 76.7366 61.0177 77.6475 61.0177 78.7713V80.6562C61.0177 81.78 61.9288 82.691 63.0524 82.691C64.176 82.691 65.0871 81.78 65.0871 80.6562V78.7713C65.0871 77.6475 64.176 76.7366 63.0524 76.7366Z" fill="#E6AF6F"/>
<path d="M2.03471 69.421C1.49958 69.421 0.974627 69.6387 0.596171 70.0172C0.217714 70.3956 0 70.9206 0 71.4557C0 71.9929 0.217511 72.5158 0.596171 72.8943C0.974831 73.2727 1.49958 73.4904 2.03471 73.4904C2.56984 73.4904 3.0948 73.2727 3.47305 72.8943C3.85151 72.5158 4.06943 71.9909 4.06943 71.4557C4.06943 70.9206 3.85171 70.3956 3.47305 70.0172C3.0948 69.6387 2.56984 69.421 2.03471 69.421Z" fill="#E6AF6F"/>
</svg>
