<svg width="90" height="100" viewBox="0 0 90 100" fill="none" xmlns="http://www.w3.org/2000/svg">
<path d="M83.5938 0H24.2188C20.9879 0 18.3594 2.62852 18.3594 5.85938V12.6687C18.1404 12.7645 17.9352 12.8965 17.7596 13.0721L0.57207 30.2596C0.199024 30.6328 0.00527347 31.1318 0.00468753 31.6395C0.00312503 31.6398 0.0015625 31.6402 0 31.6408V94.1408C0 97.3717 2.62852 100 5.85938 100H65.2344C68.4652 100 71.0938 97.3717 71.0938 94.1408V87.5002H83.5938C86.8246 87.5002 89.4531 84.8717 89.4531 81.6408V5.85938C89.4531 2.62852 86.8246 0 83.5938 0ZM53.8334 12.5H49.3205C48.3363 10.6434 46.3842 9.375 44.1406 9.375C40.9098 9.375 38.2812 12.0035 38.2812 15.2344V26.749C38.2812 27.8275 39.1559 28.7021 40.2344 28.7021C41.3129 28.7021 42.1875 27.8275 42.1875 26.749V15.2344C42.1875 14.1574 43.0637 13.2812 44.1406 13.2812C45.2176 13.2812 46.0938 14.1574 46.0938 15.2344V28.3115C46.0938 31.5424 43.4652 34.1709 40.2344 34.1709C37.0035 34.1709 34.375 31.5424 34.375 28.3115V13.6719C34.375 8.28711 38.7559 3.90625 44.1406 3.90625C49.1287 3.90625 53.2523 7.66602 53.8334 12.5ZM24.2188 3.90625H34.5854C32.31 6.1332 30.8086 9.14512 30.5223 12.5H22.2656V5.85938C22.2656 4.78242 23.1418 3.90625 24.2188 3.90625ZM17.1875 19.1686V26.2695C17.1875 28.1541 15.6541 29.6875 13.7695 29.6875H6.66855L17.1875 19.1686ZM85.5469 81.6406C85.5469 82.7176 84.6707 83.5938 83.5938 83.5938H71.0938V45.7361C71.0938 44.6576 70.2191 43.783 69.1406 43.783C68.0621 43.783 67.1875 44.6576 67.1875 45.7361V94.1406C67.1875 95.2176 66.3113 96.0938 65.2344 96.0938H5.85938C4.78242 96.0938 3.90625 95.2176 3.90625 94.1406V33.5938H13.7695C17.8082 33.5938 21.0938 30.3082 21.0938 26.2695V16.4062H30.4688V28.3115C30.4688 33.6963 34.8496 38.0771 40.2344 38.0771C45.6191 38.0771 50 33.6963 50 28.3115V16.4062H65.2344C66.3113 16.4062 67.1875 17.2824 67.1875 18.3594V30.1111C67.1875 31.1896 68.0621 32.0643 69.1406 32.0643C70.2191 32.0643 71.0938 31.1896 71.0938 30.1111V18.3594C71.0938 15.1285 68.4652 12.5 65.2344 12.5H57.7588C57.4725 9.14512 55.9711 6.1332 53.6957 3.90625H83.5938C84.6707 3.90625 85.5469 4.78242 85.5469 5.85938V81.6406Z" fill="#E6AF6F"/>
<path d="M15.442 66.3094H55.6516C56.7301 66.3094 57.6047 65.4348 57.6047 64.3563C57.6047 63.2778 56.7301 62.4032 55.6516 62.4032H53.3326V54.7739C53.3326 53.6953 52.458 52.8207 51.3795 52.8207H43.9577V48.3088C43.9577 47.2303 43.083 46.3557 42.0045 46.3557H34.5826V43.1186C34.5826 42.0401 33.708 41.1655 32.6295 41.1655H23.2545C22.176 41.1655 21.3014 42.0401 21.3014 43.1186V62.403H17.3951V43.1186C17.3951 42.0401 16.5205 41.1655 15.442 41.1655C14.3635 41.1655 13.4889 42.0401 13.4889 43.1186V64.3561C13.4889 65.4348 14.3635 66.3094 15.442 66.3094ZM49.4264 56.727V62.4032H43.9577V56.727H49.4264ZM40.0514 50.2621V54.7741V62.4034H34.5826V50.2623H40.0514V50.2621ZM25.2076 45.0719H30.6764V48.309V62.4032H25.2076V45.0719Z" fill="#E6AF6F"/>
<path d="M55.7556 79.6815H15.3383C14.2597 79.6815 13.3851 80.5561 13.3851 81.6346C13.3851 82.7131 14.2597 83.5877 15.3383 83.5877H55.7556C56.8341 83.5877 57.7087 82.7131 57.7087 81.6346C57.7087 80.5561 56.8341 79.6815 55.7556 79.6815Z" fill="#E6AF6F"/>
<path d="M55.7557 71.869H23.2545C22.176 71.869 21.3014 72.7436 21.3014 73.8221C21.3014 74.9006 22.176 75.7752 23.2545 75.7752H55.7555C56.834 75.7752 57.7086 74.9006 57.7086 73.8221C57.7086 72.7436 56.8342 71.869 55.7557 71.869Z" fill="#E6AF6F"/>
<path d="M15.3379 75.7754C15.8516 75.7754 16.3555 75.5664 16.7186 75.2031C17.0818 74.8398 17.291 74.3359 17.291 73.8223C17.291 73.3086 17.082 72.8047 16.7186 72.4414C16.3555 72.0783 15.8516 71.8691 15.3379 71.8691C14.824 71.8691 14.3201 72.0781 13.957 72.4414C13.5938 72.8047 13.3848 73.3086 13.3848 73.8223C13.3848 74.3359 13.5936 74.8398 13.957 75.2031C14.3201 75.5662 14.824 75.7754 15.3379 75.7754Z" fill="#E6AF6F"/>
<path d="M55.7557 87.494H15.3381C14.2596 87.494 13.385 88.3686 13.385 89.4471C13.385 90.5256 14.2596 91.4002 15.3381 91.4002H55.7557C56.8342 91.4002 57.7088 90.5256 57.7088 89.4471C57.7088 88.3686 56.8342 87.494 55.7557 87.494Z" fill="#E6AF6F"/>
<path d="M69.1406 35.9707C68.627 35.9707 68.123 36.1797 67.7598 36.543C67.3965 36.9063 67.1875 37.4102 67.1875 37.9238C67.1875 38.4375 67.3963 38.9414 67.7598 39.3047C68.123 39.6678 68.627 39.877 69.1406 39.877C69.6543 39.877 70.1582 39.668 70.5213 39.3047C70.8846 38.9414 71.0938 38.4375 71.0938 37.9238C71.0938 37.4102 70.8848 36.9063 70.5213 36.543C70.1582 36.1797 69.6543 35.9707 69.1406 35.9707Z" fill="#E6AF6F"/>
</svg>
