<svg width="90" height="100" viewBox="0 0 90 100" fill="none" xmlns="http://www.w3.org/2000/svg">
<path d="M83.5938 0H5.85938C2.62852 0 0 2.62852 0 5.85938V94.1406C0 97.3715 2.62852 100 5.85938 100H83.5938C86.8246 100 89.4531 97.3715 89.4531 94.1406V5.85938C89.4531 2.62852 86.8246 0 83.5938 0ZM85.5469 94.1406C85.5469 95.2176 84.6707 96.0938 83.5938 96.0938H5.85938C4.78242 96.0938 3.90625 95.2176 3.90625 94.1406V5.85938C3.90625 4.78242 4.78242 3.90625 5.85938 3.90625H83.5938C84.6707 3.90625 85.5469 4.78242 85.5469 5.85938V94.1406Z" fill="#E6AF6F"/>
<path d="M78.125 9.375H11.3281C10.2494 9.375 9.375 10.2494 9.375 11.3281V88.6719C9.375 89.7504 10.2494 90.625 11.3281 90.625H18.1477C19.2264 90.625 20.1008 89.7504 20.1008 88.6719C20.1008 87.5934 19.2264 86.7188 18.1477 86.7188H13.2812V13.2812H76.1719V86.7188H33.7727C32.6939 86.7188 31.8195 87.5934 31.8195 88.6719C31.8195 89.7504 32.6939 90.625 33.7727 90.625H78.125C79.2037 90.625 80.0781 89.7504 80.0781 88.6719V11.3281C80.0781 10.2494 79.2037 9.375 78.125 9.375Z" fill="#E6AF6F"/>
<path d="M62.7606 69.3639C61.9095 68.7016 60.6821 68.8545 60.0198 69.7061L55.8563 75.0568L55.7065 74.8398C55.2206 73.9213 54.3604 73.299 53.3692 73.1606C52.3391 73.017 51.3102 73.419 50.6157 74.2367L48.688 76.507L47.9884 75.683C47.3565 74.9387 46.4544 74.5022 45.5134 74.4848C44.577 74.4744 43.6624 74.8686 43.0075 75.5848L40.9007 77.8895C40.1729 78.6856 40.2284 79.9209 41.0245 80.6488C41.3991 80.9914 41.8712 81.1604 42.3417 81.1604C42.871 81.1604 43.3985 80.9465 43.7839 80.525L45.4384 78.715L46.0368 79.4197C46.7145 80.2182 47.6809 80.676 48.688 80.676C49.695 80.676 50.6614 80.218 51.3389 79.4199L52.8735 77.6123L54.1542 79.4678C54.5077 79.9799 55.0839 80.293 55.7057 80.3106C56.3276 80.3307 56.9208 80.0486 57.303 79.5576L63.1022 72.1047C63.7651 71.2533 63.612 70.0262 62.7606 69.3639Z" fill="#E6AF6F"/>
<path d="M25.9602 64.4531H55.6805C56.7592 64.4531 57.6336 63.5785 57.6336 62.5C57.6336 61.4215 56.7592 60.5469 55.6805 60.5469H25.9602C24.8815 60.5469 24.0071 61.4215 24.0071 62.5C24.0071 63.5785 24.8815 64.4531 25.9602 64.4531Z" fill="#E6AF6F"/>
<path d="M65.4453 62.5C65.4453 61.9863 65.2383 61.4824 64.875 61.1191C64.5098 60.7559 64.0059 60.5469 63.4922 60.5469C62.9785 60.5469 62.4746 60.7557 62.1113 61.1191C61.7481 61.4826 61.5391 61.9863 61.5391 62.5C61.5391 63.0137 61.7481 63.5176 62.1113 63.8807C62.4746 64.2439 62.9785 64.4531 63.4922 64.4531C64.0078 64.4531 64.5098 64.2441 64.875 63.8807C65.2383 63.5176 65.4453 63.0137 65.4453 62.5Z" fill="#E6AF6F"/>
<path d="M63.493 51.9531H25.9602C24.8815 51.9531 24.0071 52.8277 24.0071 53.9062C24.0071 54.9848 24.8815 55.8594 25.9602 55.8594H63.493C64.5717 55.8594 65.4461 54.9848 65.4461 53.9062C65.4461 52.8277 64.5717 51.9531 63.493 51.9531Z" fill="#E6AF6F"/>
<path d="M25.9602 47.2656H32.6249C33.7036 47.2656 34.578 46.3912 34.578 45.3125C34.578 44.2338 33.7036 43.3594 32.6249 43.3594H25.9602C24.8815 43.3594 24.0071 44.2338 24.0071 45.3125C24.0071 46.3912 24.8815 47.2656 25.9602 47.2656Z" fill="#E6AF6F"/>
<path d="M41.3085 34.733V30.4687H48.1444V34.733C48.1444 35.8117 49.0189 36.6861 50.0976 36.6861H66.6015C67.3913 36.6861 68.1036 36.2102 68.406 35.4805C68.7083 34.7508 68.5411 33.9105 67.9827 33.352L65.0669 30.4361L67.9827 27.5203C68.5413 26.9617 68.7083 26.1215 68.406 25.3918C68.1036 24.6619 67.3915 24.1861 66.6015 24.1861H57.6171V19.9219C57.6171 18.8432 56.7427 17.9688 55.664 17.9688H33.789C32.7103 17.9688 31.8358 18.8432 31.8358 19.9219V24.1861H22.8515C22.0616 24.1861 21.3493 24.6621 21.047 25.3918C20.7446 26.1215 20.9118 26.9617 21.4702 27.5203L24.386 30.4361L21.4702 33.352C20.9116 33.9105 20.7446 34.7508 21.047 35.4805C21.3493 36.2104 22.0614 36.6861 22.8515 36.6861H39.3554C40.4341 36.6861 41.3085 35.8117 41.3085 34.733ZM61.8862 28.0924L60.9235 29.0551C60.1608 29.8178 60.1608 31.0545 60.9235 31.8174L61.8862 32.7801H52.0507V30.4687H55.664C56.7427 30.4687 57.6171 29.5943 57.6171 28.5156V28.0924H61.8862ZM35.7421 21.875H53.7108V26.5625H35.7421V21.875ZM27.5667 32.7799L28.5294 31.8172C29.2921 31.0545 29.2921 29.8178 28.5294 29.0549L27.5667 28.0922H31.8358V28.5156C31.8358 29.5943 32.7103 30.4687 33.789 30.4687H37.4023V32.7799H27.5667Z" fill="#E6AF6F"/>
<path d="M25.9609 86.7188C25.4453 86.7188 24.9434 86.9275 24.5801 87.291C24.2148 87.6543 24.0078 88.1582 24.0078 88.6719C24.0078 89.1855 24.2148 89.6895 24.5801 90.0525C24.9434 90.4158 25.4453 90.625 25.9609 90.625C26.4746 90.625 26.9785 90.416 27.3418 90.0525C27.7051 89.6895 27.9141 89.1855 27.9141 88.6719C27.9141 88.1582 27.7051 87.6543 27.3418 87.291C26.9766 86.9275 26.4746 86.7188 25.9609 86.7188Z" fill="#E6AF6F"/>
</svg>
