<svg width="36" height="37" viewBox="0 0 36 37" fill="none" xmlns="http://www.w3.org/2000/svg">
<path d="M21.2982 18.0295L35.3159 4.01139C36.2281 3.09957 36.2281 1.62529 35.3159 0.713467C34.404 -0.198353 32.9297 -0.198353 32.0179 0.713467L17.9998 14.7316L3.98211 0.713467C3.06987 -0.198353 1.59601 -0.198353 0.684186 0.713467C-0.228062 1.62529 -0.228062 3.09957 0.684186 4.01139L14.7019 18.0295L0.684186 32.0476C-0.228062 32.9594 -0.228062 34.4337 0.684186 35.3455C1.1386 35.8004 1.73609 36.0289 2.33315 36.0289C2.93021 36.0289 3.52727 35.8004 3.98211 35.3455L17.9998 21.3274L32.0179 35.3455C32.4728 35.8004 33.0698 36.0289 33.6669 36.0289C34.264 36.0289 34.861 35.8004 35.3159 35.3455C36.2281 34.4337 36.2281 32.9594 35.3159 32.0476L21.2982 18.0295Z" fill="#2B303A"/>
</svg>
