<svg width="15" height="15" viewBox="0 0 15 15" fill="none" xmlns="http://www.w3.org/2000/svg">
<path d="M6.21184 8.78879C4.7802 7.35705 4.45694 5.92531 4.38401 5.35168C4.36363 5.19307 4.41821 5.03401 4.53167 4.92133L5.69023 3.76322C5.86066 3.59289 5.8909 3.32743 5.76316 3.12312L3.91852 0.258607C3.77719 0.032376 3.48701 -0.0492731 3.24847 0.0700708L0.287156 1.46483C0.0942504 1.55982 -0.0192141 1.76479 0.00268822 1.97871C0.157852 3.45287 0.800491 7.0767 4.36151 10.6382C7.92253 14.1997 11.5456 14.8421 13.0205 14.9973C13.2344 15.0192 13.4393 14.9057 13.5343 14.7128L14.929 11.7513C15.0479 11.5133 14.9668 11.2239 14.7415 11.0823L11.8771 9.23802C11.673 9.11014 11.4075 9.14017 11.2371 9.31044L10.0791 10.4691C9.96638 10.5825 9.80733 10.6371 9.64873 10.6167C9.07514 10.5438 7.64349 10.2205 6.21184 8.78879Z" fill="#E6AF6F"/>
<path d="M11.8967 8.01733C11.6111 8.01733 11.3795 7.78575 11.3795 7.50008C11.3771 5.35857 9.64175 3.62315 7.50038 3.62072C7.21473 3.62072 6.98317 3.38914 6.98317 3.10348C6.98317 2.81781 7.21473 2.58623 7.50038 2.58623C10.2128 2.58922 12.4109 4.78748 12.4139 7.50008C12.4139 7.78575 12.1824 8.01733 11.8967 8.01733Z" fill="#E6AF6F"/>
<path d="M14.4828 8.01733C14.1971 8.01733 13.9656 7.78575 13.9656 7.50009C13.9616 3.93089 11.0694 1.03849 7.50038 1.03449C7.21473 1.03449 6.98317 0.802915 6.98317 0.517247C6.98317 0.23158 7.21473 0 7.50038 0C11.6404 0.00456105 14.9954 3.35979 15 7.50009C15 7.63727 14.9455 7.76883 14.8485 7.86584C14.7515 7.96284 14.62 8.01733 14.4828 8.01733Z" fill="#E6AF6F"/>
</svg>
