<svg width="15" height="11" viewBox="0 0 15 11" fill="none" xmlns="http://www.w3.org/2000/svg">
<path d="M9.94312 5.23312L15 8.43V1.90125L9.94312 5.23312Z" fill="#E6AF6F"/>
<path d="M0 1.90125V8.43L5.05688 5.23312L0 1.90125Z" fill="#E6AF6F"/>
<path d="M14.0625 0H0.9375C0.469687 0 0.0984375 0.34875 0.028125 0.797813L7.5 5.72063L14.9719 0.797813C14.9016 0.34875 14.5303 0 14.0625 0Z" fill="#E6AF6F"/>
<path d="M9.08437 5.79938L7.75781 6.67313C7.67906 6.72469 7.59 6.75 7.5 6.75C7.41 6.75 7.32094 6.72469 7.24219 6.67313L5.91563 5.79844L0.03 9.52125C0.102187 9.96656 0.471563 10.3125 0.9375 10.3125H14.0625C14.5284 10.3125 14.8978 9.96656 14.97 9.52125L9.08437 5.79938Z" fill="#E6AF6F"/>
</svg>
