<svg width="12" height="15" viewBox="0 0 12 15" fill="none" xmlns="http://www.w3.org/2000/svg">
<path d="M11.1502 3.89906C10.6217 2.1914 9.23256 0.80182 7.52491 0.273333C5.71752 -0.286531 3.79453 0.0246317 2.32673 1.10616C0.869736 2.18021 0 3.90076 0 5.70849C0 6.95557 0.394512 8.14037 1.14062 9.13459L5.71459 15L10.2886 9.13415C11.4052 7.6454 11.7194 5.73726 11.1502 3.89906ZM5.71459 8.78554C4.01807 8.78554 2.63751 7.40499 2.63751 5.70846C2.63751 4.01194 4.01807 2.63138 5.71459 2.63138C7.41112 2.63138 8.79167 4.01194 8.79167 5.70846C8.79167 7.40499 7.41112 8.78554 5.71459 8.78554Z" fill="#E6AF6F"/>
<path d="M5.71459 3.51641C4.50273 3.51641 3.51668 4.4966 3.51668 5.70846C3.51668 6.92033 4.50273 7.90637 5.71459 7.90637C6.92646 7.90637 7.9125 6.92033 7.9125 5.70846C7.91253 4.4966 6.92646 3.51641 5.71459 3.51641Z" fill="#E6AF6F"/>
</svg>
