<svg width="16" height="20" viewBox="0 0 16 20" fill="none" xmlns="http://www.w3.org/2000/svg">
<path d="M14.8662 5.24079C14.1532 2.9372 12.3011 1.06982 10.0326 0.36728C7.61695 -0.380805 5.09855 0.0252884 3.12324 1.48142C2.17676 2.17912 1.39137 3.09939 0.85203 4.14263C0.294609 5.22087 0 6.43478 0 7.65317C0 9.3152 0.525742 10.8947 1.52043 12.2208L7.61909 20L13.7102 12.2307L13.7178 12.2208C15.2063 10.2361 15.6249 7.69192 14.8662 5.24079ZM12.7837 11.5127L7.61909 18.1008L2.45449 11.5127C1.61562 10.392 1.17219 9.05751 1.17219 7.65317C1.17219 5.60111 2.16156 3.64661 3.81879 2.42497C5.49121 1.19212 7.62968 0.850288 9.68589 1.48701C11.5903 2.07677 13.1462 3.64794 13.7466 5.58735C14.3922 7.67337 14.0412 9.83274 12.7837 11.5127Z" fill="white"/>
<path d="M7.61905 3.55054C5.35691 3.55054 3.51648 5.39097 3.51648 7.65311C3.51648 9.91526 5.35691 11.7557 7.61905 11.7557C9.8812 11.7557 11.7216 9.91526 11.7216 7.65311C11.7216 5.39097 9.8812 3.55054 7.61905 3.55054ZM7.61905 10.5835C6.00323 10.5835 4.68863 9.26897 4.68863 7.65311C4.68863 6.03729 6.00319 4.72268 7.61905 4.72268C9.23491 4.72268 10.5495 6.03725 10.5495 7.65311C10.5495 9.26893 9.23487 10.5835 7.61905 10.5835Z" fill="white"/>
</svg>
