<svg width="24" height="24" viewBox="0 0 24 24" fill="none" xmlns="http://www.w3.org/2000/svg">
<path d="M16.4653 0H6.74108C3.02403 0 0 3.02403 0 6.74108V16.4653C0 20.1823 3.02403 23.2063 6.74108 23.2063H16.4653C20.1823 23.2063 23.2063 20.1823 23.2063 16.4653V6.74108C23.2063 3.02403 20.1823 0 16.4653 0ZM21.3934 16.4653C21.3934 19.1826 19.1826 21.3934 16.4653 21.3934H6.74108C4.02372 21.3934 1.813 19.1826 1.813 16.4653V6.74108C1.813 4.02372 4.02372 1.813 6.74108 1.813H16.4653C19.1826 1.813 21.3934 4.02372 21.3934 6.74108V16.4653Z" fill="white"/>
<path d="M11.603 5.34827C8.15403 5.34827 5.34814 8.15415 5.34814 11.6031C5.34814 15.0521 8.15403 17.8579 11.603 17.8579C15.0519 17.8579 17.8578 15.0521 17.8578 11.6031C17.8578 8.15415 15.0519 5.34827 11.603 5.34827ZM11.603 16.0449C9.15376 16.0449 7.16114 14.0523 7.16114 11.6031C7.16114 9.15388 9.15376 7.16126 11.603 7.16126C14.0522 7.16126 16.0448 9.15388 16.0448 11.6031C16.0448 14.0523 14.0522 16.0449 11.603 16.0449Z" fill="white"/>
<path d="M17.9485 6.16419C18.4491 6.16419 18.855 5.75834 18.855 5.25769C18.855 4.75705 18.4491 4.3512 17.9485 4.3512C17.4478 4.3512 17.042 4.75705 17.042 5.25769C17.042 5.75834 17.4478 6.16419 17.9485 6.16419Z" fill="white"/>
</svg>
