<svg width="743" height="502" viewBox="0 0 743 502" fill="none" xmlns="http://www.w3.org/2000/svg">
<g opacity="0.1">
<path d="M743 61.6727V85.1908C741.739 85.1861 740.488 84.9682 739.3 84.5461L667.364 58.6025L568.61 85.1601V286.799C568.607 288.879 568.035 290.918 566.956 292.696C565.876 294.474 564.33 295.923 562.486 296.884C560.641 297.846 558.569 298.285 556.493 298.152C554.417 298.019 552.417 297.321 550.71 296.132L437.94 217.242L347.168 282.47L317.203 303.961V484.891C317.197 486.459 316.868 488.009 316.236 489.444C315.604 490.879 314.683 492.168 313.531 493.231C312.378 494.295 311.019 495.109 309.538 495.623C308.056 496.137 306.485 496.341 304.922 496.22C293.316 495.284 275.754 499.122 269.875 500.672C268.921 500.941 267.934 501.075 266.943 501.071C265.448 501.073 263.967 500.781 262.585 500.21C261.203 499.639 259.947 498.801 258.889 497.745C257.831 496.688 256.992 495.434 256.419 494.053C255.847 492.672 255.552 491.191 255.552 489.696V383.435H0V360.684H266.912C269.926 360.692 272.815 361.893 274.947 364.025C277.078 366.156 278.279 369.045 278.287 372.059V475.604C283.629 474.631 289.021 473.949 294.437 473.562V298.174C294.434 296.373 294.861 294.597 295.684 292.995C296.506 291.393 297.7 290.01 299.165 288.963L329.407 267.21V87.601H271.717C269.467 87.6012 267.267 86.9342 265.397 85.6842C263.526 84.4343 262.068 82.6577 261.207 80.579C260.346 78.5003 260.12 76.213 260.559 74.0062C260.998 71.7995 262.082 69.7725 263.673 68.1817L328.517 3.33803C330.093 1.76398 332.096 0.685506 334.278 0.235446C336.46 -0.214614 338.727 -0.0166115 340.798 0.805074L505.056 66.2781C506.444 66.8315 507.709 67.6528 508.78 68.6953C509.85 69.7377 510.705 70.9807 511.295 72.3535C511.885 73.7262 512.199 75.2018 512.219 76.6959C512.239 78.19 511.965 79.6734 511.411 81.0614C510.858 82.4493 510.036 83.7147 508.994 84.7853C507.952 85.8559 506.709 86.7106 505.336 87.3008C503.963 87.8909 502.488 88.2049 500.993 88.2248C499.499 88.2447 498.016 87.9701 496.628 87.4168L339.262 24.8298L299.196 64.8351H340.798C343.814 64.8351 346.708 66.0336 348.841 68.1668C350.974 70.3001 352.173 73.1935 352.173 76.2104V250.861L431.216 194.062C433.141 192.698 435.443 191.965 437.802 191.965C440.161 191.965 442.463 192.698 444.388 194.062L545.859 265.046V76.502C545.854 73.9971 546.676 71.5605 548.197 69.5703C549.718 67.5801 551.853 66.1476 554.272 65.4952L664.908 35.7906C667.15 35.1825 669.524 35.2789 671.709 36.0669L743 61.6727Z" fill="white"/>
</g>
</svg>
