<svg width="137" height="92" viewBox="0 0 137 92" fill="none" xmlns="http://www.w3.org/2000/svg">
<g opacity="0.4">
<path d="M136.42 11.3235V15.6416C136.188 15.6407 135.959 15.6007 135.74 15.5232L122.533 10.7598L104.401 15.636V52.6581C104.4 53.04 104.295 53.4145 104.097 53.741C103.899 54.0674 103.615 54.3334 103.276 54.5099C102.937 54.6865 102.557 54.767 102.176 54.7427C101.795 54.7183 101.427 54.5901 101.114 54.3718L80.4087 39.8871L63.7424 51.8633L58.2405 55.8093V89.0292C58.2394 89.3171 58.179 89.6016 58.063 89.8651C57.947 90.1286 57.7779 90.3653 57.5663 90.5605C57.3547 90.7557 57.1051 90.9052 56.8331 90.9996C56.5612 91.0941 56.2727 91.1314 55.9856 91.1093C53.8548 90.9374 50.6303 91.642 49.5508 91.9267C49.3756 91.9761 49.1944 92.0008 49.0124 92C48.7379 92.0004 48.466 91.9466 48.2123 91.8418C47.9586 91.737 47.728 91.5832 47.5338 91.3893C47.3395 91.1953 47.1854 90.9649 47.0803 90.7113C46.9752 90.4577 46.921 90.1859 46.921 89.9114V70.4011H0V66.224H49.0068C49.5603 66.2255 50.0906 66.446 50.482 66.8374C50.8734 67.2287 51.0939 67.7591 51.0954 68.3126V87.324C52.0762 87.1453 53.0661 87.0202 54.0605 86.9491V54.7467C54.06 54.416 54.1385 54.09 54.2895 53.7958C54.4405 53.5017 54.6596 53.2478 54.9287 53.0555L60.4813 49.0616V16.0841H49.889C49.4759 16.0842 49.0721 15.9617 48.7286 15.7322C48.3851 15.5027 48.1173 15.1765 47.9592 14.7948C47.8012 14.4132 47.7598 13.9932 47.8404 13.588C47.921 13.1829 48.1199 12.8107 48.4121 12.5186L60.3178 0.612884C60.6073 0.323878 60.9751 0.125863 61.3757 0.0432294C61.7764 -0.0394046 62.1924 -0.00304997 62.5727 0.147817L92.7316 12.1691C92.9864 12.2707 93.2187 12.4215 93.4153 12.6129C93.6119 12.8043 93.7688 13.0325 93.8772 13.2846C93.9855 13.5366 94.0432 13.8075 94.0468 14.0819C94.0505 14.3562 94.0001 14.6286 93.8985 14.8834C93.7969 15.1382 93.646 15.3706 93.4547 15.5671C93.2633 15.7637 93.035 15.9206 92.783 16.029C92.5309 16.1374 92.26 16.195 91.9857 16.1987C91.7114 16.2023 91.439 16.1519 91.1842 16.0503L62.2908 4.55891L54.9343 11.9042H62.5727C63.1266 11.9042 63.6578 12.1242 64.0495 12.5159C64.4412 12.9076 64.6612 13.4388 64.6612 13.9927V46.0598L79.1742 35.631C79.5276 35.3806 79.9501 35.246 80.3833 35.246C80.8165 35.246 81.2391 35.3806 81.5925 35.631L100.223 48.6642V14.0463C100.222 13.5864 100.373 13.139 100.653 12.7736C100.932 12.4082 101.324 12.1451 101.768 12.0253L122.082 6.57138C122.493 6.45973 122.929 6.47744 123.33 6.62212L136.42 11.3235Z" fill="#018AD2"/>
</g>
</svg>
