<svg width="60" height="60" viewBox="0 0 60 60" fill="none" xmlns="http://www.w3.org/2000/svg">
<circle cx="29.9999" cy="30" r="29.1667" fill="white"/>
<path d="M27.5946 32.4056C24.922 29.733 24.3186 27.0605 24.1824 25.9897C24.1444 25.6937 24.2463 25.3968 24.4581 25.1864L26.6209 23.0246C26.939 22.7067 26.9955 22.2112 26.757 21.8298L23.3135 16.4828C23.0497 16.0605 22.508 15.9081 22.0627 16.1308L16.5346 18.7344C16.1745 18.9117 15.9627 19.2943 16.0036 19.6936C16.2932 22.4453 17.4929 29.2097 24.1404 35.8578C30.788 42.5059 37.5515 43.705 40.3047 43.9947C40.704 44.0356 41.0866 43.8238 41.2639 43.4637L43.8674 37.9356C44.0894 37.4912 43.938 36.951 43.5174 36.6867L38.1704 33.2441C37.7892 33.0054 37.2937 33.0615 36.9756 33.3793L34.8138 35.5421C34.6034 35.7539 34.3065 35.8558 34.0104 35.8177C32.9397 35.6816 30.2671 35.0781 27.5946 32.4056Z" fill="#E6AF6F"/>
<path d="M38.2071 30.9654C37.6738 30.9654 37.2416 30.5332 37.2416 29.9999C37.237 26.0025 33.9976 22.7631 30.0002 22.7585C29.4669 22.7585 29.0347 22.3263 29.0347 21.793C29.0347 21.2598 29.4669 20.8275 30.0002 20.8275C35.0637 20.8331 39.167 24.9365 39.1726 29.9999C39.1726 30.5332 38.7403 30.9654 38.2071 30.9654Z" fill="#E6AF6F"/>
<path d="M43.0347 30.9655C42.5014 30.9655 42.0692 30.5332 42.0692 30C42.0617 23.3376 36.6626 17.9385 30.0002 17.931C29.4669 17.931 29.0347 17.4988 29.0347 16.9655C29.0347 16.4323 29.4669 16 30.0002 16C37.7286 16.0085 43.9917 22.2715 44.0002 30C44.0002 30.2561 43.8985 30.5017 43.7174 30.6827C43.5363 30.8638 43.2907 30.9655 43.0347 30.9655Z" fill="#E6AF6F"/>
</svg>
