<svg width="70" height="70" viewBox="0 0 70 70" fill="none" xmlns="http://www.w3.org/2000/svg">
<circle cx="34.9999" cy="35" r="29.1667" fill="white"/>
<path d="M32.5945 37.4056C29.9219 34.733 29.3185 32.0605 29.1823 30.9897C29.1443 30.6937 29.2462 30.3968 29.458 30.1864L31.6207 28.0246C31.9389 27.7067 31.9953 27.2112 31.7569 26.8298L28.3134 21.4828C28.0495 21.0605 27.5078 20.9081 27.0625 21.1308L21.5345 23.7344C21.1744 23.9117 20.9625 24.2943 21.0034 24.6936C21.2931 27.4453 22.4927 34.2097 29.1403 40.8578C35.7879 47.5059 42.5514 48.705 45.3045 48.9947C45.7038 49.0356 46.0865 48.8238 46.2638 48.4637L48.8673 42.9356C49.0892 42.4912 48.9378 41.951 48.5173 41.6867L43.1703 38.2441C42.7891 38.0054 42.2936 38.0615 41.9754 38.3793L39.8136 40.5421C39.6033 40.7539 39.3064 40.8558 39.0103 40.8177C37.9396 40.6816 35.267 40.0781 32.5945 37.4056Z" fill="#E6AF6F"/>
<path d="M43.207 35.9654C42.6737 35.9654 42.2414 35.5332 42.2414 34.9999C42.2369 31.0025 38.9975 27.7631 35.0001 27.7585C34.4668 27.7585 34.0345 27.3263 34.0345 26.793C34.0345 26.2598 34.4668 25.8275 35.0001 25.8275C40.0635 25.8331 44.1669 29.9365 44.1725 34.9999C44.1725 35.5332 43.7402 35.9654 43.207 35.9654Z" fill="#E6AF6F"/>
<path d="M48.0345 35.9655C47.5013 35.9655 47.069 35.5332 47.069 35C47.0616 28.3376 41.6625 22.9385 35.0001 22.931C34.4668 22.931 34.0345 22.4988 34.0345 21.9655C34.0345 21.4323 34.4668 21 35.0001 21C42.7285 21.0085 48.9915 27.2715 49.0001 35C49.0001 35.2561 48.8983 35.5017 48.7173 35.6827C48.5362 35.8638 48.2906 35.9655 48.0345 35.9655Z" fill="#E6AF6F"/>
<circle cx="35" cy="35" r="34.5" stroke="white"/>
</svg>
