<svg width="375" height="806" viewBox="0 0 375 806" fill="none" xmlns="http://www.w3.org/2000/svg">
<rect y="308" width="375" height="498" fill="#E4EFF4"/>
<rect width="375" height="308" fill="white"/>
<path d="M358 564.471V575.328C357.418 575.326 356.841 575.225 356.292 575.03L323.083 563.053L277.494 575.313V668.398C277.493 669.359 277.229 670.3 276.731 671.121C276.232 671.942 275.519 672.61 274.667 673.054C273.816 673.498 272.859 673.701 271.901 673.639C270.942 673.578 270.019 673.256 269.231 672.707L217.172 636.288L175.267 666.4L161.434 676.321V759.846C161.431 760.57 161.279 761.285 160.988 761.948C160.696 762.61 160.271 763.206 159.739 763.696C159.207 764.187 158.579 764.563 157.896 764.8C157.212 765.038 156.486 765.132 155.765 765.076C150.407 764.644 142.3 766.416 139.586 767.131C139.145 767.255 138.69 767.317 138.232 767.316C137.542 767.316 136.858 767.181 136.22 766.918C135.582 766.654 135.003 766.268 134.514 765.78C134.026 765.292 133.638 764.713 133.374 764.075C133.11 763.438 132.974 762.754 132.974 762.064V713.01H15V702.507H138.218C139.609 702.511 140.943 703.065 141.927 704.049C142.911 705.033 143.465 706.367 143.469 707.758V755.559C145.935 755.109 148.424 754.795 150.924 754.616V673.65C150.923 672.818 151.12 671.998 151.5 671.259C151.88 670.519 152.431 669.881 153.107 669.398L167.068 659.356V576.44H140.436C139.397 576.44 138.382 576.132 137.518 575.555C136.655 574.978 135.981 574.158 135.584 573.199C135.186 572.239 135.082 571.183 135.285 570.164C135.488 569.146 135.988 568.21 136.722 567.476L166.657 537.541C167.385 536.814 168.31 536.316 169.317 536.109C170.324 535.901 171.37 535.992 172.326 536.372L248.155 566.597C248.796 566.852 249.38 567.231 249.874 567.713C250.368 568.194 250.763 568.768 251.035 569.401C251.308 570.035 251.453 570.716 251.462 571.406C251.471 572.096 251.344 572.781 251.089 573.421C250.833 574.062 250.454 574.646 249.973 575.14C249.492 575.635 248.918 576.029 248.284 576.302C247.651 576.574 246.969 576.719 246.28 576.728C245.59 576.737 244.905 576.611 244.264 576.355L171.618 547.462L153.121 565.931H172.326C173.719 565.931 175.055 566.484 176.04 567.469C177.024 568.453 177.578 569.789 177.578 571.182V651.808L214.068 625.587C214.956 624.957 216.019 624.619 217.108 624.619C218.197 624.619 219.259 624.957 220.148 625.587L266.992 658.356V571.317C266.989 570.16 267.368 569.035 268.071 568.117C268.773 567.198 269.759 566.537 270.875 566.235L321.95 552.522C322.984 552.242 324.08 552.286 325.089 552.65L358 564.471Z" fill="white"/>
</svg>
