<svg width="768" height="1437" viewBox="0 0 768 1437" fill="none" xmlns="http://www.w3.org/2000/svg">
<rect y="0.578125" width="768" height="630.784" fill="white"/>
<rect y="416.307" width="768" height="1019.9" fill="#E4EFF4"/>
<path d="M733.183 941.559V963.794C731.991 963.789 730.808 963.583 729.685 963.184L661.674 938.656L568.307 963.765V1154.4C568.304 1156.37 567.764 1158.3 566.743 1159.98C565.722 1161.66 564.261 1163.03 562.517 1163.94C560.773 1164.85 558.814 1165.26 556.851 1165.14C554.889 1165.01 552.998 1164.35 551.384 1163.23L444.766 1088.64L358.946 1150.31L330.616 1170.63V1341.69C330.61 1343.17 330.299 1344.64 329.702 1345.99C329.104 1347.35 328.234 1348.57 327.144 1349.57C326.054 1350.58 324.769 1351.35 323.369 1351.83C321.968 1352.32 320.483 1352.51 319.005 1352.4C308.032 1351.51 291.429 1355.14 285.87 1356.61C284.968 1356.86 284.035 1356.99 283.098 1356.99C281.684 1356.99 280.284 1356.71 278.978 1356.17C277.671 1355.63 276.484 1354.84 275.484 1353.84C274.484 1352.84 273.69 1351.66 273.149 1350.35C272.607 1349.04 272.329 1347.64 272.329 1346.23V1245.77H30.7188V1224.26H283.069C285.919 1224.26 288.65 1225.4 290.665 1227.42C292.68 1229.43 293.816 1232.16 293.823 1235.01V1332.91C298.874 1331.99 303.971 1331.34 309.092 1330.98V1165.16C309.089 1163.45 309.493 1161.78 310.271 1160.26C311.048 1158.75 312.177 1157.44 313.562 1156.45L342.154 1135.88V966.073H287.612C285.484 966.073 283.405 965.442 281.636 964.26C279.867 963.079 278.489 961.399 277.675 959.434C276.861 957.468 276.648 955.306 277.063 953.22C277.478 951.133 278.502 949.217 280.006 947.713L341.312 886.407C342.803 884.919 344.697 883.899 346.76 883.473C348.823 883.048 350.965 883.235 352.923 884.012L508.22 945.913C509.532 946.436 510.729 947.213 511.741 948.198C512.753 949.184 513.561 950.359 514.119 951.657C514.677 952.955 514.974 954.35 514.993 955.762C515.012 957.175 514.752 958.577 514.229 959.89C513.706 961.202 512.929 962.398 511.944 963.41C510.958 964.423 509.783 965.231 508.485 965.789C507.187 966.347 505.792 966.644 504.379 966.662C502.967 966.681 501.564 966.422 500.252 965.898L351.472 906.726L313.591 944.549H352.923C355.776 944.549 358.511 945.682 360.528 947.699C362.545 949.716 363.678 952.451 363.678 955.303V1120.43L438.409 1066.73C440.229 1065.44 442.405 1064.74 444.636 1064.74C446.866 1064.74 449.042 1065.44 450.862 1066.73L546.798 1133.84V955.579C546.793 953.211 547.569 950.907 549.007 949.026C550.446 947.144 552.465 945.79 554.751 945.173L659.351 917.089C661.471 916.514 663.715 916.605 665.781 917.35L733.183 941.559Z" fill="white"/>
</svg>
