<svg width="1440" height="550" viewBox="0 0 1440 550" fill="none" xmlns="http://www.w3.org/2000/svg">
<rect x="535" width="905" height="550" fill="#E4EFF4"/>
<rect width="535" height="550" fill="white"/>
<path d="M1359 85.6727V109.191C1357.74 109.186 1356.49 108.968 1355.3 108.546L1283.36 82.6025L1184.61 109.16V310.799C1184.61 312.879 1184.04 314.918 1182.96 316.696C1181.88 318.474 1180.33 319.923 1178.49 320.884C1176.64 321.846 1174.57 322.285 1172.49 322.152C1170.42 322.019 1168.42 321.321 1166.71 320.132L1053.94 241.242L963.168 306.47L933.203 327.961V508.891C933.197 510.459 932.868 512.009 932.236 513.444C931.604 514.879 930.683 516.168 929.531 517.231C928.378 518.295 927.019 519.109 925.538 519.623C924.056 520.137 922.485 520.341 920.922 520.22C909.316 519.284 891.754 523.122 885.875 524.672C884.921 524.941 883.934 525.075 882.943 525.071C881.448 525.073 879.967 524.781 878.585 524.21C877.203 523.639 875.947 522.801 874.889 521.745C873.831 520.688 872.992 519.434 872.419 518.053C871.847 516.672 871.552 515.191 871.552 513.696V407.435H616V384.684H882.912C885.926 384.692 888.815 385.893 890.947 388.025C893.078 390.156 894.279 393.045 894.287 396.059V499.604C899.629 498.631 905.021 497.949 910.437 497.562V322.174C910.434 320.373 910.861 318.597 911.684 316.995C912.506 315.393 913.7 314.01 915.165 312.963L945.407 291.21V111.601H887.717C885.467 111.601 883.267 110.934 881.397 109.684C879.526 108.434 878.068 106.658 877.207 104.579C876.346 102.5 876.12 100.213 876.559 98.0062C876.998 95.7995 878.082 93.7725 879.673 92.1817L944.517 27.338C946.093 25.764 948.096 24.6855 950.278 24.2354C952.46 23.7854 954.727 23.9834 956.798 24.8051L1121.06 90.2781C1122.44 90.8315 1123.71 91.6528 1124.78 92.6953C1125.85 93.7377 1126.71 94.9807 1127.3 96.3535C1127.89 97.7262 1128.2 99.2018 1128.22 100.696C1128.24 102.19 1127.96 103.673 1127.41 105.061C1126.86 106.449 1126.04 107.715 1124.99 108.785C1123.95 109.856 1122.71 110.711 1121.34 111.301C1119.96 111.891 1118.49 112.205 1116.99 112.225C1115.5 112.245 1114.02 111.97 1112.63 111.417L955.262 48.8298L915.196 88.8351H956.798C959.814 88.8351 962.708 90.0336 964.841 92.1668C966.974 94.3001 968.173 97.1935 968.173 100.21V274.861L1047.22 218.062C1049.14 216.698 1051.44 215.965 1053.8 215.965C1056.16 215.965 1058.46 216.698 1060.39 218.062L1161.86 289.046V100.502C1161.85 97.9971 1162.68 95.5605 1164.2 93.5703C1165.72 91.5801 1167.85 90.1476 1170.27 89.4952L1280.91 59.7906C1283.15 59.1825 1285.52 59.2789 1287.71 60.0669L1359 85.6727Z" fill="white"/>
</svg>
