<svg width="194" height="179" viewBox="0 0 194 179" fill="none" xmlns="http://www.w3.org/2000/svg">
<g filter="url(#filter0_d)">
<path d="M174 10H20V149C85.4847 131.208 149.952 141.587 174 149V10Z" fill="white"/>
</g>
<path d="M115.506 66.2265L117.602 65.8037C117.672 65.7904 117.744 65.8178 117.786 65.8752L121.249 70.634C121.283 70.6803 121.32 70.724 121.361 70.7646L124.306 73.7098C124.773 74.176 125.385 74.4091 125.998 74.4091C126.61 74.4091 127.223 74.1759 127.689 73.7098L133.299 68.0997C133.751 67.648 134 67.0472 134 66.4084C134 65.7696 133.751 65.1688 133.299 64.7169L130.354 61.7719C130.313 61.7314 130.27 61.6942 130.224 61.6604L125.653 58.3343C125.811 57.6353 125.618 56.872 125.075 56.3287L123.858 55.1115C123.429 54.6826 122.733 54.6825 122.304 55.1117C121.875 55.5407 121.875 56.2364 122.304 56.6653L123.494 57.8547L117.741 63.6066C117.551 63.5981 117.359 63.611 117.167 63.6497L115.072 64.0724C114.358 64.2161 113.628 64.0608 113.041 63.6549C113.037 63.6519 113.033 63.6482 113.029 63.6451C112.968 63.6028 112.91 63.5581 112.854 63.5121C112.847 63.506 112.84 63.5001 112.832 63.4938C112.778 63.4475 112.725 63.3999 112.676 63.3505C112.675 63.3498 112.674 63.3491 112.673 63.3482L107.263 57.9384C106.943 57.6186 106.943 57.0981 107.263 56.7784L110.478 53.5635C111.642 52.3995 111.645 50.5065 110.485 49.3434C108.111 46.9639 104.539 46.2297 101.435 47.4333L101.137 47.135C104.934 44.3162 110.3 44.6621 113.708 48.07L119.17 53.5311C119.599 53.96 120.295 53.9602 120.724 53.531C121.153 53.1019 121.153 52.4062 120.724 51.9773L115.262 46.5163C110.823 42.0778 103.68 41.8709 98.9987 46.0456C98.7167 46.2971 98.5486 46.6578 98.538 47.035C98.5273 47.411 98.6736 47.7792 98.9396 48.0453L100.275 49.3806C100.684 49.7889 101.311 49.8974 101.834 49.6512C104.218 48.5313 107.07 49.0315 108.93 50.8956C109.23 51.1964 109.228 51.7066 108.924 52.0096L105.709 55.2245C104.596 56.3373 104.538 58.1095 105.53 59.2938L96.434 67.9796L70.9885 42.5372C70.9443 42.4931 70.8983 42.4515 70.8505 42.4125C70.8427 42.4062 70.8344 42.4009 70.8265 42.3946C70.7858 42.3624 70.7444 42.3312 70.7014 42.3028C70.6995 42.3015 70.6974 42.3006 70.6955 42.2993C70.3996 42.1049 70.0536 42 69.6914 42C69.3282 42 68.9815 42.1053 68.685 42.3006C68.6839 42.3013 68.6825 42.3021 68.6812 42.3028C68.6382 42.3313 68.5967 42.3625 68.5558 42.3948C68.5479 42.4009 68.5397 42.4062 68.5319 42.4125C68.4842 42.4515 68.4381 42.4931 68.394 42.5372L61.1736 49.7569C60.4582 50.4724 60.4582 51.6365 61.1736 52.3519L70.0068 61.184C70.436 61.6129 71.1315 61.6131 71.5605 61.1839C71.9896 60.7548 71.9894 60.0592 71.5605 59.6303L67.2703 55.3405L69.4881 53.123C69.9171 52.6939 69.9171 51.9983 69.4881 51.5694C69.0589 51.1402 68.3635 51.1403 67.9343 51.5692L65.7164 53.7869L62.9836 51.0543L67.0063 47.032L127.332 107.352L123.309 111.374L120.576 108.642L122.794 106.424C123.223 105.995 123.223 105.299 122.794 104.87C122.365 104.441 121.669 104.441 121.24 104.87L119.022 107.088L107.25 95.3164L109.467 93.0986C109.896 92.6695 109.896 91.9739 109.467 91.545C109.038 91.1159 108.343 91.1158 107.914 91.5448L105.696 93.7627L93.9231 81.991L96.1409 79.7733C96.5699 79.3443 96.5699 78.6486 96.1409 78.2197C95.7118 77.7907 95.0162 77.7905 94.5871 78.2196L92.3692 80.4374L80.5966 68.6657L82.8145 66.4481C83.2435 66.019 83.2435 65.3234 82.8145 64.8945C82.3853 64.4653 81.6899 64.4654 81.2607 64.8943L79.0428 67.1121L74.7019 62.7716C74.2727 62.3427 73.5772 62.3426 73.1481 62.7718C72.7191 63.2008 72.7192 63.8965 73.1481 64.3254L86.3926 77.5686L59.9617 102.807C59.3513 103.39 59.0099 104.176 59.0002 105.02C58.9905 105.864 59.3138 106.657 59.9105 107.253L64.4228 111.765C65.0099 112.352 65.7905 112.676 66.6208 112.676C67.3604 112.676 68.0802 112.407 68.6395 111.931C68.7194 111.863 68.7961 111.791 68.869 111.714L94.1102 85.2857L122.011 113.184C122.369 113.542 122.839 113.72 123.308 113.72C123.778 113.72 124.248 113.542 124.606 113.184L131.826 105.964C132.542 105.249 132.542 104.085 131.826 103.369L103.7 75.2451L112.607 65.9181C113.506 66.3108 114.515 66.427 115.506 66.2265ZM124.351 60.1049L128.861 63.3867L131.746 66.2708C131.793 66.318 131.803 66.3718 131.803 66.4085C131.803 66.4453 131.793 66.4989 131.746 66.5459L126.135 72.156C126.059 72.2322 125.936 72.2323 125.86 72.156L122.975 69.2717L119.693 64.7624L124.351 60.1049ZM61.4641 105.7C61.311 105.547 61.2193 105.349 61.2007 105.137C61.1981 105.106 61.1969 105.076 61.1972 105.045C61.2 104.798 61.3002 104.567 61.479 104.396L83.8355 83.0484L84.3123 83.5252L61.7141 105.95L61.4641 105.7ZM64.1729 108.408L63.268 107.503L85.8662 85.079L86.5992 85.812L64.1729 108.408ZM67.2801 110.197C67.1499 110.333 66.9857 110.423 66.8056 110.46C66.7456 110.472 66.6838 110.479 66.6209 110.479C66.3776 110.478 66.1486 110.384 65.9765 110.211L65.7268 109.962L88.1531 87.3656L88.63 87.8424L67.2801 110.197ZM90.1481 86.2531L85.4251 81.5307L87.9468 79.1227L92.5563 83.7316L90.1481 86.2531ZM130.017 104.667L128.885 105.798L68.5601 45.4784L69.6912 44.3473L95.6392 70.2927C95.639 70.2926 95.6393 70.2929 95.6392 70.2927L130.017 104.667ZM102.146 73.6912L97.9882 69.5342L107.074 60.8578L110.823 64.6059L102.146 73.6912Z" fill="url(#paint0_linear)"/>
<defs>
<filter id="filter0_d" x="0" y="0" width="194" height="179" filterUnits="userSpaceOnUse" color-interpolation-filters="sRGB">
<feFlood flood-opacity="0" result="BackgroundImageFix"/>
<feColorMatrix in="SourceAlpha" type="matrix" values="0 0 0 0 0 0 0 0 0 0 0 0 0 0 0 0 0 0 127 0"/>
<feOffset dy="10"/>
<feGaussianBlur stdDeviation="10"/>
<feColorMatrix type="matrix" values="0 0 0 0 0 0 0 0 0 0 0 0 0 0 0 0 0 0 0.05 0"/>
<feBlend mode="normal" in2="BackgroundImageFix" result="effect1_dropShadow"/>
<feBlend mode="normal" in="SourceGraphic" in2="effect1_dropShadow" result="shape"/>
</filter>
<linearGradient id="paint0_linear" x1="96.5" y1="42" x2="96.5" y2="113.72" gradientUnits="userSpaceOnUse">
<stop stop-color="#018AD2"/>
<stop offset="1" stop-color="#005F92"/>
</linearGradient>
</defs>
</svg>
