<svg width="194" height="179" viewBox="0 0 194 179" fill="none" xmlns="http://www.w3.org/2000/svg">
<g filter="url(#filter0_d)">
<path d="M174 10H20V149C85.4847 131.208 149.952 141.587 174 149V10Z" fill="white"/>
</g>
<path d="M115.497 74.6491C115.497 73.7277 114.748 72.978 113.826 72.978H108.054C107.133 72.978 106.383 73.7277 106.383 74.6491V78.3654C106.383 79.2869 107.133 80.0366 108.054 80.0366H113.826C114.748 80.0366 115.497 79.2869 115.497 78.3654V74.6491ZM113.274 77.8139H108.606V75.201H113.274V77.8139Z" fill="url(#paint0_linear)"/>
<path d="M125.751 74.6491C125.751 73.7277 125.001 72.978 124.08 72.978H118.308C117.387 72.978 116.637 73.7277 116.637 74.6491V78.3654C116.637 79.2869 117.387 80.0366 118.308 80.0366H124.08C125.001 80.0366 125.751 79.2869 125.751 78.3654V74.6491ZM123.528 77.8139H118.86V75.201H123.528V77.8139Z" fill="url(#paint1_linear)"/>
<path d="M115.497 85.4359C115.497 84.5145 114.748 83.7648 113.826 83.7648H108.054C107.133 83.7648 106.383 84.5145 106.383 85.4359V89.1523C106.383 90.0737 107.133 90.8234 108.054 90.8234H113.826C114.748 90.8234 115.497 90.0737 115.497 89.1523V85.4359ZM113.274 88.6005H108.606V85.9876H113.274V88.6005Z" fill="url(#paint2_linear)"/>
<path d="M125.751 85.4359C125.751 84.5145 125.001 83.7648 124.08 83.7648H118.308C117.387 83.7648 116.637 84.5145 116.637 85.4359V89.1523C116.637 90.0737 117.387 90.8234 118.308 90.8234H124.08C125.001 90.8234 125.751 90.0737 125.751 89.1523V85.4359ZM123.528 88.6005H118.86V85.9876H123.528V88.6005Z" fill="url(#paint3_linear)"/>
<path d="M113.826 92.9511H108.054C107.133 92.9511 106.383 93.7008 106.383 94.6223V98.3386C106.383 99.2601 107.133 100.01 108.054 100.01H113.826C114.748 100.01 115.497 99.2601 115.497 98.3386V94.6223C115.497 93.7007 114.748 92.9511 113.826 92.9511ZM113.274 97.7869H108.606V95.174H113.274V97.7869Z" fill="url(#paint4_linear)"/>
<path d="M125.751 94.6223C125.751 93.7008 125.001 92.9511 124.08 92.9511H118.308C117.387 92.9511 116.637 93.7008 116.637 94.6223V98.3386C116.637 99.2601 117.387 100.01 118.308 100.01H124.08C125.001 100.01 125.751 99.2601 125.751 98.3386V94.6223ZM123.528 97.7869H118.86V95.174H123.528V97.7869Z" fill="url(#paint5_linear)"/>
<path d="M118.308 101.742C117.387 101.742 116.637 102.492 116.637 103.413V107.13C116.637 108.051 117.387 108.801 118.308 108.801H124.08C125.001 108.801 125.751 108.051 125.751 107.13V103.413C125.751 102.492 125.001 101.742 124.08 101.742H118.308ZM123.528 106.578H118.86V103.965H123.528V106.578Z" fill="url(#paint6_linear)"/>
<path d="M70.8493 56.5584H75.8994C77.0199 56.5584 77.9314 55.6469 77.9314 54.5263V47.7092C77.9314 46.5887 77.0199 45.6772 75.8994 45.6772H70.8493C69.7289 45.6772 68.8174 46.5887 68.8174 47.7092V54.5263C68.8174 55.6467 69.7289 56.5584 70.8493 56.5584ZM71.0402 47.9001H75.7085V54.3356H71.0402V47.9001Z" fill="url(#paint7_linear)"/>
<path d="M82.5114 56.5584H87.5614C88.6819 56.5584 89.5934 55.6469 89.5934 54.5263V47.7092C89.5934 46.5887 88.6819 45.6772 87.5614 45.6772H82.5114C81.3908 45.6772 80.4792 46.5887 80.4792 47.7092V54.5263C80.4792 55.6467 81.3909 56.5584 82.5114 56.5584ZM82.7021 47.9001H87.3706V54.3356H82.7021V47.9001Z" fill="url(#paint8_linear)"/>
<path d="M94.1734 56.5584H99.2235C100.344 56.5584 101.255 55.6469 101.255 54.5263V47.7092C101.255 46.5887 100.344 45.6772 99.2235 45.6772H94.1734C93.0528 45.6772 92.1413 46.5887 92.1413 47.7092V54.5263C92.1413 55.6467 93.0529 56.5584 94.1734 56.5584ZM94.3641 47.9001H99.0326V54.3356H94.3641V47.9001Z" fill="url(#paint9_linear)"/>
<path d="M68.8174 71.0903C68.8174 72.2108 69.7289 73.1223 70.8493 73.1223H75.8994C77.0199 73.1223 77.9314 72.2108 77.9314 71.0903V64.2732C77.9314 63.1528 77.0199 62.2412 75.8994 62.2412H70.8493C69.7289 62.2412 68.8174 63.1528 68.8174 64.2732V71.0903ZM71.0402 64.464H75.7085V70.8994H71.0402V64.464Z" fill="url(#paint10_linear)"/>
<path d="M80.4792 71.0903C80.4792 72.2108 81.3908 73.1223 82.5114 73.1223H87.5614C88.6819 73.1223 89.5934 72.2108 89.5934 71.0903V64.2732C89.5934 63.1528 88.6819 62.2412 87.5614 62.2412H82.5114C81.3908 62.2412 80.4792 63.1528 80.4792 64.2732V71.0903ZM82.7021 64.464H87.3706V70.8994H82.7021V64.464Z" fill="url(#paint11_linear)"/>
<path d="M92.1413 71.0903C92.1413 72.2108 93.0528 73.1223 94.1734 73.1223H99.2235C100.344 73.1223 101.255 72.2108 101.255 71.0903V64.2732C101.255 63.1528 100.344 62.2412 99.2235 62.2412H94.1734C93.0528 62.2412 92.1413 63.1528 92.1413 64.2732V71.0903ZM94.3641 64.464H99.0326V70.8994H94.3641V64.464Z" fill="url(#paint12_linear)"/>
<path d="M68.8174 87.6542C68.8174 88.7747 69.7289 89.6862 70.8493 89.6862H75.8994C77.0199 89.6862 77.9314 88.7747 77.9314 87.6542V80.8371C77.9314 79.7166 77.0199 78.8051 75.8994 78.8051H70.8493C69.7289 78.8051 68.8174 79.7166 68.8174 80.8371V87.6542ZM71.0402 81.0278H75.7085V87.4633H71.0402V81.0278Z" fill="url(#paint13_linear)"/>
<path d="M80.4792 87.6542C80.4792 88.7747 81.3908 89.6862 82.5114 89.6862H87.5614C88.6819 89.6862 89.5934 88.7747 89.5934 87.6542V80.8371C89.5934 79.7166 88.6819 78.8051 87.5614 78.8051H82.5114C81.3908 78.8051 80.4792 79.7166 80.4792 80.8371V87.6542ZM82.7021 81.0278H87.3706V87.4633H82.7021V81.0278Z" fill="url(#paint14_linear)"/>
<path d="M92.1413 87.6542C92.1413 88.7747 93.0528 89.6862 94.1734 89.6862H99.2235C100.344 89.6862 101.255 88.7747 101.255 87.6542V80.8371C101.255 79.7166 100.344 78.8051 99.2235 78.8051H94.1734C93.0528 78.8051 92.1413 79.7166 92.1413 80.8371V87.6542ZM94.3641 81.0278H99.0326V87.4633H94.3641V81.0278Z" fill="url(#paint15_linear)"/>
<path d="M68.8174 104.218C68.8174 105.339 69.7289 106.25 70.8493 106.25H75.8994C77.0199 106.25 77.9314 105.339 77.9314 104.218V97.4011C77.9314 96.2807 77.0199 95.3692 75.8994 95.3692H70.8493C69.7289 95.3692 68.8174 96.2807 68.8174 97.4011V104.218ZM71.0402 97.5919H75.7085V104.027H71.0402V97.5919Z" fill="url(#paint16_linear)"/>
<path d="M92.1413 104.218C92.1413 105.339 93.0528 106.25 94.1734 106.25H99.2235C100.344 106.25 101.255 105.339 101.255 104.218V97.4011C101.255 96.2807 100.344 95.3692 99.2235 95.3692H94.1734C93.0528 95.3692 92.1413 96.2807 92.1413 97.4011V104.218ZM94.3641 97.5919H99.0326V104.027H94.3641V97.5919Z" fill="url(#paint17_linear)"/>
<path d="M133.762 110.174H129.206V84.3679C129.206 83.7541 128.708 83.2565 128.094 83.2565C127.48 83.2565 126.983 83.7541 126.983 84.3679V110.174H115.07V103.413C115.07 102.492 114.321 101.742 113.399 101.742H109.083C108.162 101.742 107.412 102.492 107.412 103.413V110.174H105.151V71.0223H126.611C126.816 71.0223 126.983 71.1891 126.983 71.3944V79.9262C126.983 80.54 127.48 81.0376 128.094 81.0376C128.708 81.0376 129.206 80.54 129.206 79.9262V71.3944C129.206 69.9636 128.042 68.7994 126.611 68.7994H121.093V65.966C121.093 64.9407 120.258 64.1064 119.233 64.1064H112.324C111.299 64.1064 110.464 64.9405 110.464 65.966V68.7996H105.152V44.2697C105.152 42.4666 103.685 41 101.883 41H67.9368C66.1344 41 64.668 42.4668 64.668 44.2697V74.1133C64.668 74.7271 65.1656 75.2247 65.7794 75.2247C66.3932 75.2247 66.8909 74.7271 66.8909 74.1133V44.2697C66.8909 43.6923 67.36 43.2229 67.9368 43.2229H101.883C102.459 43.2229 102.929 43.6925 102.929 44.2697V110.174H89.5936V96.4803C89.5936 95.8665 89.0959 95.3689 88.4821 95.3689H81.5908C80.977 95.3689 80.4794 95.8665 80.4794 96.4803V110.174H66.8909V78.5825C66.8909 77.9687 66.3932 77.4711 65.7794 77.4711C65.1656 77.4711 64.668 77.9687 64.668 78.5825V110.174H60.1114C59.4976 110.174 59 110.672 59 111.285V114.889C59 115.502 59.4976 116 60.1114 116H133.762C134.376 116 134.874 115.502 134.874 114.889V111.285C134.874 110.672 134.376 110.174 133.762 110.174ZM112.687 66.3292H118.87V68.7994H112.687V66.3292ZM109.635 103.965H112.847V110.174H109.635V103.965ZM82.7021 97.5919H87.3706V110.174H82.7021V97.5919ZM132.651 113.777H61.2229V112.397H132.651V113.777Z" fill="url(#paint18_linear)"/>
<defs>
<filter id="filter0_d" x="0" y="0" width="194" height="179" filterUnits="userSpaceOnUse" color-interpolation-filters="sRGB">
<feFlood flood-opacity="0" result="BackgroundImageFix"/>
<feColorMatrix in="SourceAlpha" type="matrix" values="0 0 0 0 0 0 0 0 0 0 0 0 0 0 0 0 0 0 127 0"/>
<feOffset dy="10"/>
<feGaussianBlur stdDeviation="10"/>
<feColorMatrix type="matrix" values="0 0 0 0 0 0 0 0 0 0 0 0 0 0 0 0 0 0 0.05 0"/>
<feBlend mode="normal" in2="BackgroundImageFix" result="effect1_dropShadow"/>
<feBlend mode="normal" in="SourceGraphic" in2="effect1_dropShadow" result="shape"/>
</filter>
<linearGradient id="paint0_linear" x1="96.9369" y1="41" x2="96.9369" y2="116" gradientUnits="userSpaceOnUse">
<stop stop-color="#018AD2"/>
<stop offset="1" stop-color="#005F92"/>
</linearGradient>
<linearGradient id="paint1_linear" x1="96.9369" y1="41" x2="96.9369" y2="116" gradientUnits="userSpaceOnUse">
<stop stop-color="#018AD2"/>
<stop offset="1" stop-color="#005F92"/>
</linearGradient>
<linearGradient id="paint2_linear" x1="96.9369" y1="41" x2="96.9369" y2="116" gradientUnits="userSpaceOnUse">
<stop stop-color="#018AD2"/>
<stop offset="1" stop-color="#005F92"/>
</linearGradient>
<linearGradient id="paint3_linear" x1="96.9369" y1="41" x2="96.9369" y2="116" gradientUnits="userSpaceOnUse">
<stop stop-color="#018AD2"/>
<stop offset="1" stop-color="#005F92"/>
</linearGradient>
<linearGradient id="paint4_linear" x1="96.9369" y1="41" x2="96.9369" y2="116" gradientUnits="userSpaceOnUse">
<stop stop-color="#018AD2"/>
<stop offset="1" stop-color="#005F92"/>
</linearGradient>
<linearGradient id="paint5_linear" x1="96.9369" y1="41" x2="96.9369" y2="116" gradientUnits="userSpaceOnUse">
<stop stop-color="#018AD2"/>
<stop offset="1" stop-color="#005F92"/>
</linearGradient>
<linearGradient id="paint6_linear" x1="96.9369" y1="41" x2="96.9369" y2="116" gradientUnits="userSpaceOnUse">
<stop stop-color="#018AD2"/>
<stop offset="1" stop-color="#005F92"/>
</linearGradient>
<linearGradient id="paint7_linear" x1="96.9369" y1="41" x2="96.9369" y2="116" gradientUnits="userSpaceOnUse">
<stop stop-color="#018AD2"/>
<stop offset="1" stop-color="#005F92"/>
</linearGradient>
<linearGradient id="paint8_linear" x1="96.9369" y1="41" x2="96.9369" y2="116" gradientUnits="userSpaceOnUse">
<stop stop-color="#018AD2"/>
<stop offset="1" stop-color="#005F92"/>
</linearGradient>
<linearGradient id="paint9_linear" x1="96.9369" y1="41" x2="96.9369" y2="116" gradientUnits="userSpaceOnUse">
<stop stop-color="#018AD2"/>
<stop offset="1" stop-color="#005F92"/>
</linearGradient>
<linearGradient id="paint10_linear" x1="96.9369" y1="41" x2="96.9369" y2="116" gradientUnits="userSpaceOnUse">
<stop stop-color="#018AD2"/>
<stop offset="1" stop-color="#005F92"/>
</linearGradient>
<linearGradient id="paint11_linear" x1="96.9369" y1="41" x2="96.9369" y2="116" gradientUnits="userSpaceOnUse">
<stop stop-color="#018AD2"/>
<stop offset="1" stop-color="#005F92"/>
</linearGradient>
<linearGradient id="paint12_linear" x1="96.9369" y1="41" x2="96.9369" y2="116" gradientUnits="userSpaceOnUse">
<stop stop-color="#018AD2"/>
<stop offset="1" stop-color="#005F92"/>
</linearGradient>
<linearGradient id="paint13_linear" x1="96.9369" y1="41" x2="96.9369" y2="116" gradientUnits="userSpaceOnUse">
<stop stop-color="#018AD2"/>
<stop offset="1" stop-color="#005F92"/>
</linearGradient>
<linearGradient id="paint14_linear" x1="96.9369" y1="41" x2="96.9369" y2="116" gradientUnits="userSpaceOnUse">
<stop stop-color="#018AD2"/>
<stop offset="1" stop-color="#005F92"/>
</linearGradient>
<linearGradient id="paint15_linear" x1="96.9369" y1="41" x2="96.9369" y2="116" gradientUnits="userSpaceOnUse">
<stop stop-color="#018AD2"/>
<stop offset="1" stop-color="#005F92"/>
</linearGradient>
<linearGradient id="paint16_linear" x1="96.9369" y1="41" x2="96.9369" y2="116" gradientUnits="userSpaceOnUse">
<stop stop-color="#018AD2"/>
<stop offset="1" stop-color="#005F92"/>
</linearGradient>
<linearGradient id="paint17_linear" x1="96.9369" y1="41" x2="96.9369" y2="116" gradientUnits="userSpaceOnUse">
<stop stop-color="#018AD2"/>
<stop offset="1" stop-color="#005F92"/>
</linearGradient>
<linearGradient id="paint18_linear" x1="96.9369" y1="41" x2="96.9369" y2="116" gradientUnits="userSpaceOnUse">
<stop stop-color="#018AD2"/>
<stop offset="1" stop-color="#005F92"/>
</linearGradient>
</defs>
</svg>
