<svg width="194" height="179" viewBox="0 0 194 179" fill="none" xmlns="http://www.w3.org/2000/svg">
<g filter="url(#filter0_d)">
<path d="M174 10H20V149C85.4847 131.208 149.952 141.587 174 149V10Z" fill="white"/>
</g>
<path d="M65.7438 75.2336C66.3507 75.2336 66.8424 74.7419 66.8424 74.135V49.9373H126.157V74.1286C126.157 74.7355 126.649 75.2272 127.256 75.2272C127.863 75.2272 128.355 74.7355 128.355 74.1286V49.8943C128.355 48.7065 127.388 47.74 126.201 47.74H66.7994C65.6115 47.74 64.6452 48.7065 64.6452 49.8943V74.135C64.6452 74.7419 65.137 75.2336 65.7438 75.2336Z" fill="url(#paint0_linear)"/>
<path d="M94.5953 55.8289C94.5953 54.3923 93.4265 53.2236 91.9901 53.2236H73.1385C71.7019 53.2236 70.5332 54.3924 70.5332 55.8289V72.1711C70.5332 73.6077 71.702 74.7763 73.1385 74.7763H91.9901C93.4267 74.7763 94.5953 73.6075 94.5953 72.1711V55.8289ZM92.3981 72.1711C92.3981 72.3961 92.2151 72.5791 91.9901 72.5791H73.1385C72.9135 72.5791 72.7305 72.3961 72.7305 72.1711V55.8289C72.7305 55.6039 72.9135 55.4209 73.1385 55.4209H91.9901C92.2151 55.4209 92.3981 55.6039 92.3981 55.8289V72.1711Z" fill="url(#paint1_linear)"/>
<path d="M122.467 55.8289C122.467 54.3923 121.298 53.2236 119.862 53.2236H101.01C99.5734 53.2236 98.4048 54.3924 98.4048 55.8289V72.1711C98.4048 73.6077 99.5736 74.7763 101.01 74.7763H119.862C121.298 74.7763 122.467 73.6075 122.467 72.1711V55.8289ZM119.862 72.5791H101.01C100.785 72.5791 100.602 72.3961 100.602 72.1711V55.8289C100.602 55.6039 100.785 55.4209 101.01 55.4209H119.862C120.087 55.4209 120.27 55.6039 120.27 55.8289V72.1711C120.27 72.3961 120.087 72.5791 119.862 72.5791Z" fill="url(#paint2_linear)"/>
<path d="M91.9901 77.2677H73.1385C71.7019 77.2677 70.5332 78.4364 70.5332 79.8728V96.215C70.5332 97.6516 71.702 98.8203 73.1385 98.8203H91.9901C93.4267 98.8203 94.5953 97.6515 94.5953 96.215V79.8728C94.5953 78.4362 93.4267 77.2677 91.9901 77.2677ZM92.3981 96.215C92.3981 96.44 92.2151 96.623 91.9901 96.623H73.1385C72.9135 96.623 72.7305 96.44 72.7305 96.215V79.8728C72.7305 79.648 72.9135 79.465 73.1385 79.465H91.9901C92.2151 79.465 92.3981 79.648 92.3981 79.8728V96.215Z" fill="url(#paint3_linear)"/>
<path d="M101.01 77.2677C99.5734 77.2677 98.4048 78.4364 98.4048 79.8728V96.215C98.4048 97.6516 99.5736 98.8203 101.01 98.8203H119.862C121.298 98.8203 122.467 97.6515 122.467 96.215V79.873C122.467 78.4364 121.298 77.2677 119.862 77.2677H101.01ZM120.27 79.873V96.215C120.27 96.44 120.087 96.623 119.862 96.623H101.01C100.785 96.623 100.602 96.44 100.602 96.215V79.8728C100.602 79.648 100.785 79.465 101.01 79.465H119.862C120.087 79.465 120.27 79.648 120.27 79.873Z" fill="url(#paint4_linear)"/>
<path d="M131.846 102.107H128.355V78.5745C128.355 77.9676 127.863 77.4759 127.256 77.4759C126.649 77.4759 126.158 77.9676 126.158 78.5745V102.107H66.8425V78.5723C66.8425 77.9654 66.3507 77.4737 65.7438 77.4737C65.137 77.4737 64.6452 77.9654 64.6452 78.5723V102.107H61.1543C59.9665 102.107 59 103.073 59 104.261V109.106C59 110.294 59.9665 111.26 61.1543 111.26H131.846C133.034 111.26 134 110.294 134 109.106V104.261C134 103.073 133.034 102.107 131.846 102.107ZM131.803 109.063H61.1973V104.304H131.803V109.063Z" fill="url(#paint5_linear)"/>
<defs>
<filter id="filter0_d" x="0" y="0" width="194" height="179" filterUnits="userSpaceOnUse" color-interpolation-filters="sRGB">
<feFlood flood-opacity="0" result="BackgroundImageFix"/>
<feColorMatrix in="SourceAlpha" type="matrix" values="0 0 0 0 0 0 0 0 0 0 0 0 0 0 0 0 0 0 127 0"/>
<feOffset dy="10"/>
<feGaussianBlur stdDeviation="10"/>
<feColorMatrix type="matrix" values="0 0 0 0 0 0 0 0 0 0 0 0 0 0 0 0 0 0 0.05 0"/>
<feBlend mode="normal" in2="BackgroundImageFix" result="effect1_dropShadow"/>
<feBlend mode="normal" in="SourceGraphic" in2="effect1_dropShadow" result="shape"/>
</filter>
<linearGradient id="paint0_linear" x1="96.5" y1="47.74" x2="96.5" y2="111.26" gradientUnits="userSpaceOnUse">
<stop stop-color="#018AD2"/>
<stop offset="1" stop-color="#005F92"/>
</linearGradient>
<linearGradient id="paint1_linear" x1="96.5" y1="47.74" x2="96.5" y2="111.26" gradientUnits="userSpaceOnUse">
<stop stop-color="#018AD2"/>
<stop offset="1" stop-color="#005F92"/>
</linearGradient>
<linearGradient id="paint2_linear" x1="96.5" y1="47.74" x2="96.5" y2="111.26" gradientUnits="userSpaceOnUse">
<stop stop-color="#018AD2"/>
<stop offset="1" stop-color="#005F92"/>
</linearGradient>
<linearGradient id="paint3_linear" x1="96.5" y1="47.74" x2="96.5" y2="111.26" gradientUnits="userSpaceOnUse">
<stop stop-color="#018AD2"/>
<stop offset="1" stop-color="#005F92"/>
</linearGradient>
<linearGradient id="paint4_linear" x1="96.5" y1="47.74" x2="96.5" y2="111.26" gradientUnits="userSpaceOnUse">
<stop stop-color="#018AD2"/>
<stop offset="1" stop-color="#005F92"/>
</linearGradient>
<linearGradient id="paint5_linear" x1="96.5" y1="47.74" x2="96.5" y2="111.26" gradientUnits="userSpaceOnUse">
<stop stop-color="#018AD2"/>
<stop offset="1" stop-color="#005F92"/>
</linearGradient>
</defs>
</svg>
