<svg width="194" height="179" viewBox="0 0 194 179" fill="none" xmlns="http://www.w3.org/2000/svg">
<g filter="url(#filter0_d)">
<path d="M174 10H20V149C85.4847 131.208 149.952 141.587 174 149V10Z" fill="white"/>
</g>
<path d="M91.8932 72.2177C92.2033 72.397 92.5558 72.4918 92.9129 72.4918C93.6402 72.4918 94.3178 72.1002 94.6804 71.4702L100.757 60.9236C101.318 59.9495 100.984 58.6992 100.011 58.1367L90.7647 52.7873C90.4547 52.6081 90.1022 52.5132 89.7449 52.5132C89.0177 52.5132 88.3402 52.9046 87.9772 53.5348L81.9006 64.0814C81.3394 65.0553 81.6741 66.3057 82.6467 66.8683L91.8932 72.2177ZM89.8528 54.9572L98.5883 60.0112L92.8054 70.0478L84.0699 64.9941L89.8528 54.9572Z" fill="url(#paint0_linear)"/>
<path d="M105.265 89.363C105.628 89.9931 106.305 90.3846 107.032 90.3846C107.389 90.3846 107.742 90.2898 108.052 90.1104L118.577 84.0214C119.55 83.4588 119.885 82.2084 119.323 81.2345L113.985 71.969C113.622 71.3388 112.944 70.9474 112.217 70.9474C111.86 70.9474 111.507 71.0423 111.197 71.2216L100.672 77.3106C99.6995 77.8733 99.3649 79.1236 99.9262 80.0975L105.265 89.363ZM112.11 73.3914L117.154 82.1466L107.14 87.9403L102.095 79.1849L112.11 73.3914Z" fill="url(#paint1_linear)"/>
<path d="M131.313 94.1248H109.596L128.301 83.3036C130.392 82.094 131.112 79.4056 129.905 77.3107L122.869 65.1005C122.089 63.7461 120.634 62.9049 119.071 62.9049C118.306 62.9049 117.549 63.1086 116.883 63.4937L98.0774 74.373L108.875 55.6331C110.082 53.5383 109.363 50.8498 107.271 49.6401L95.0863 42.5906C94.0731 42.0041 92.8924 41.848 91.7621 42.1512C90.6305 42.4543 89.6849 43.1809 89.0994 44.1972L78.1641 63.1762C77.8422 63.7348 78.0342 64.4487 78.5928 64.7706C79.1515 65.093 79.8652 64.9006 80.1874 64.3419L91.1227 45.3629C91.3963 44.8878 91.8381 44.5485 92.3664 44.4067C92.8936 44.2657 93.444 44.3382 93.9169 44.6119L106.102 51.6614C107.081 52.2275 107.417 53.4863 106.852 54.4673L94.0352 76.7116L90.4737 78.7721L91.507 76.9786C92.0682 76.0046 91.7335 74.7542 90.7609 74.1916L81.5144 68.8424C81.2045 68.6632 80.8519 68.5682 80.4947 68.5682C79.7676 68.5682 79.0902 68.9597 78.727 69.5898L72.6503 80.1364C72.0892 81.1104 72.4239 82.3608 73.3964 82.9234L78.3472 85.7875L76.0752 87.1021L72.2642 84.8971C71.9542 84.718 71.6017 84.623 71.2444 84.623C70.5172 84.623 69.8398 85.0147 69.4768 85.6446L64.9178 93.5565L62.5726 94.9132L77.8175 68.4545C78.1394 67.8958 77.9475 67.1818 77.3888 66.86C76.8301 66.5378 76.1163 66.7299 75.7942 67.2887L57.526 98.9947C54.8973 103.557 55.7749 109.197 59.312 112.769C59.2354 112.675 59.2521 112.696 59.3372 112.8C61.4344 115.361 64.6191 117 68.1803 117H131.313C133.731 117 135.698 115.033 135.698 112.615V98.5095C135.698 96.0917 133.731 94.1248 131.313 94.1248ZM74.8193 81.0489L80.6022 71.0121L89.3377 76.0658L86.4312 81.1104L80.6785 84.4384L74.8193 81.0489ZM71.3517 87.0672L73.7434 88.4509L68.96 91.2182L71.3517 87.0672ZM118.052 65.515C118.363 65.335 118.715 65.2398 119.071 65.2398C119.801 65.2398 120.481 65.633 120.846 66.266L127.881 78.4763C128.447 79.4574 128.11 80.7164 127.132 81.2822L104.933 94.1247H101.113L102.555 93.2908C103.527 92.7281 103.862 91.4778 103.301 90.5039L97.9624 81.2383C97.5994 80.6082 96.9221 80.2168 96.1949 80.2168C95.8376 80.2168 95.4847 80.3116 95.1748 80.491L84.6497 86.58C83.677 87.1425 83.3423 88.393 83.9036 89.3669L86.645 94.1247H84.0241L81.94 90.5078C81.5768 89.8776 80.8997 89.4862 80.1725 89.4862C79.8152 89.4862 79.4625 89.5811 79.1526 89.7604L71.6084 94.125H68.5988L118.052 65.515ZM96.4501 94.1248H89.3398L86.0728 88.4544L96.0873 82.6609L101.132 91.4163L96.4501 94.1248ZM81.3293 94.1248H76.2713L80.0648 91.9302L81.3293 94.1248ZM133.363 112.615C133.363 113.746 132.444 114.665 131.313 114.665H68.1804C63.1669 114.665 59.0882 110.586 59.0882 105.573V105.552C59.0882 100.539 63.1671 96.4599 68.1804 96.4599H131.313C132.443 96.4599 133.363 97.3794 133.363 98.5098V112.615Z" fill="url(#paint2_linear)"/>
<path d="M85.4795 98.172H73.3278C72.2028 98.172 71.2874 99.0873 71.2874 100.212V110.913C71.2874 112.038 72.2027 112.953 73.3278 112.953H85.4795C86.6046 112.953 87.5199 112.038 87.5199 110.913V100.212C87.5201 99.0873 86.6046 98.172 85.4795 98.172ZM85.185 110.618H73.6228V100.507H85.185V110.618Z" fill="url(#paint3_linear)"/>
<path d="M103.981 98.172H91.8288C90.7036 98.172 89.7884 99.0873 89.7884 100.212V110.913C89.7884 112.038 90.7036 112.953 91.8288 112.953H103.981C105.106 112.953 106.021 112.038 106.021 110.913V100.212C106.021 99.0873 105.106 98.172 103.981 98.172ZM103.686 110.618H92.1236V100.507H103.686V110.618Z" fill="url(#paint4_linear)"/>
<path d="M122.887 98.172H110.735C109.61 98.172 108.695 99.0873 108.695 100.212V110.913C108.695 112.038 109.61 112.953 110.735 112.953H122.887C124.012 112.953 124.927 112.038 124.927 110.913V107.561C124.927 106.916 124.405 106.393 123.76 106.393C123.115 106.393 122.592 106.916 122.592 107.561V110.618H111.03V100.507H122.592V102.762C122.592 103.407 123.115 103.929 123.76 103.929C124.405 103.929 124.927 103.407 124.927 102.762V100.212C124.927 99.0873 124.012 98.172 122.887 98.172Z" fill="url(#paint5_linear)"/>
<defs>
<filter id="filter0_d" x="0" y="0" width="194" height="179" filterUnits="userSpaceOnUse" color-interpolation-filters="sRGB">
<feFlood flood-opacity="0" result="BackgroundImageFix"/>
<feColorMatrix in="SourceAlpha" type="matrix" values="0 0 0 0 0 0 0 0 0 0 0 0 0 0 0 0 0 0 127 0"/>
<feOffset dy="10"/>
<feGaussianBlur stdDeviation="10"/>
<feColorMatrix type="matrix" values="0 0 0 0 0 0 0 0 0 0 0 0 0 0 0 0 0 0 0.05 0"/>
<feBlend mode="normal" in2="BackgroundImageFix" result="effect1_dropShadow"/>
<feBlend mode="normal" in="SourceGraphic" in2="effect1_dropShadow" result="shape"/>
</filter>
<linearGradient id="paint0_linear" x1="95.849" y1="42" x2="95.849" y2="117" gradientUnits="userSpaceOnUse">
<stop stop-color="#018AD2"/>
<stop offset="1" stop-color="#005F92"/>
</linearGradient>
<linearGradient id="paint1_linear" x1="95.849" y1="42" x2="95.849" y2="117" gradientUnits="userSpaceOnUse">
<stop stop-color="#018AD2"/>
<stop offset="1" stop-color="#005F92"/>
</linearGradient>
<linearGradient id="paint2_linear" x1="95.849" y1="42" x2="95.849" y2="117" gradientUnits="userSpaceOnUse">
<stop stop-color="#018AD2"/>
<stop offset="1" stop-color="#005F92"/>
</linearGradient>
<linearGradient id="paint3_linear" x1="95.849" y1="42" x2="95.849" y2="117" gradientUnits="userSpaceOnUse">
<stop stop-color="#018AD2"/>
<stop offset="1" stop-color="#005F92"/>
</linearGradient>
<linearGradient id="paint4_linear" x1="95.849" y1="42" x2="95.849" y2="117" gradientUnits="userSpaceOnUse">
<stop stop-color="#018AD2"/>
<stop offset="1" stop-color="#005F92"/>
</linearGradient>
<linearGradient id="paint5_linear" x1="95.849" y1="42" x2="95.849" y2="117" gradientUnits="userSpaceOnUse">
<stop stop-color="#018AD2"/>
<stop offset="1" stop-color="#005F92"/>
</linearGradient>
</defs>
</svg>
