<svg width="194" height="179" viewBox="0 0 194 179" fill="none" xmlns="http://www.w3.org/2000/svg">
<g filter="url(#filter0_d)">
<path d="M174 10H20V149C85.4847 131.208 149.952 141.587 174 149V10Z" fill="white"/>
</g>
<path d="M80.982 106.06H124.989C125.636 106.06 126.161 105.535 126.161 104.888C126.161 104.241 125.636 103.716 124.989 103.716H80.982C80.3346 103.716 79.8101 104.241 79.8101 104.888C79.8101 105.536 80.3348 106.06 80.982 106.06Z" fill="url(#paint0_linear)"/>
<path d="M80.982 66.7547H84.838C85.4854 66.7547 86.0099 66.23 86.0099 65.5828C86.0099 64.9356 85.4854 64.4109 84.838 64.4109H80.982C80.3346 64.4109 79.8101 64.9356 79.8101 65.5828C79.8101 66.2301 80.3348 66.7547 80.982 66.7547Z" fill="url(#paint1_linear)"/>
<path d="M80.982 76.581H84.838C85.4854 76.581 86.0099 76.0563 86.0099 75.4091C86.0099 74.762 85.4854 74.2373 84.838 74.2373H80.982C80.3346 74.2373 79.8101 74.762 79.8101 75.4091C79.8101 76.0565 80.3348 76.581 80.982 76.581Z" fill="url(#paint2_linear)"/>
<path d="M80.982 86.4076H84.838C85.4854 86.4076 86.0099 85.8829 86.0099 85.2357C86.0099 84.5885 85.4854 84.0638 84.838 84.0638H80.982C80.3346 84.0638 79.8101 84.5885 79.8101 85.2357C79.8101 85.8827 80.3348 86.4076 80.982 86.4076Z" fill="url(#paint3_linear)"/>
<path d="M80.982 96.234H84.838C85.4854 96.234 86.0099 95.7093 86.0099 95.0621C86.0099 94.4149 85.4854 93.8902 84.838 93.8902H80.982C80.3346 93.8902 79.8101 94.4149 79.8101 95.0621C79.8101 95.7093 80.3348 96.234 80.982 96.234Z" fill="url(#paint4_linear)"/>
<path d="M94.8489 96.234H119.368C120.584 96.234 121.574 95.2443 121.574 94.0275V75.6748H123.038C123.704 75.6748 124.285 75.2476 124.484 74.6118C124.682 73.9757 124.448 73.2934 123.901 72.914L107.97 61.8761C107.462 61.5234 106.755 61.5234 106.246 61.8761L90.3163 72.914C89.7688 73.2935 89.5344 73.9759 89.7335 74.612C89.9321 75.2476 90.5128 75.6746 91.1786 75.6746H92.6428V94.0275C92.6427 95.2443 93.6324 96.234 94.8489 96.234ZM109.967 93.8902H104.249V83.983H109.967V93.8902ZM119.231 93.8902H112.311V83.7934C112.311 82.6057 111.345 81.6395 110.157 81.6395H104.06C102.872 81.6395 101.906 82.6057 101.906 83.7934V93.8904H94.9866V75.6748H119.231V93.8902ZM107.108 64.1301L120.387 73.331H93.8297L107.108 64.1301Z" fill="url(#paint5_linear)"/>
<path d="M133.828 61.0304C134.475 61.0304 135 60.5057 135 59.8586V55.5798C135 53.245 133.104 51.3455 130.773 51.3455H73.5451V51.2933C73.5451 46.1691 69.3856 42 64.2726 42C59.1597 42 55.0002 46.1691 55.0002 51.2933V87.953C55.0002 88.6002 55.5247 89.1249 56.172 89.1249C56.8194 89.1249 57.3439 88.6002 57.3439 87.953V51.2933C57.3439 47.4614 60.4522 44.3437 64.2726 44.3437C68.0931 44.3437 71.2014 47.4612 71.2014 51.2933V101.508C71.0403 101.328 70.8714 101.152 70.6948 100.982C69.0806 99.428 67.0156 98.5321 64.8083 98.408C64.7628 98.4054 64.7167 98.4049 64.6711 98.403C64.5555 98.3982 64.4398 98.3941 64.3236 98.3935C64.3065 98.3933 64.2898 98.3921 64.2726 98.3921C64.2233 98.3921 64.1747 98.3954 64.1253 98.3961C64.0544 98.3972 63.9837 98.3963 63.9125 98.399C63.8839 98.4 63.8559 98.4029 63.8273 98.4043C63.7645 98.4072 63.7022 98.4118 63.6395 98.416C63.5412 98.4227 63.4433 98.4304 63.3458 98.4402C63.2805 98.4468 63.2155 98.4541 63.1505 98.4621C63.0597 98.4732 62.9695 98.4857 62.8795 98.4994C62.8084 98.5102 62.7375 98.5213 62.667 98.5336C62.5894 98.5474 62.5122 98.5629 62.4351 98.5785C62.3539 98.5949 62.2728 98.6111 62.1923 98.6297C62.1386 98.6422 62.0856 98.6565 62.0322 98.6697C60.192 99.1293 58.5664 100.138 57.3437 101.516V92.7057C57.3437 92.0585 56.8192 91.5338 56.1719 91.5338C55.5245 91.5338 55 92.0585 55 92.7057V107.685C55 107.699 55.0016 107.713 55.0022 107.728C55.0117 110.134 55.9247 112.397 57.6 114.137C59.3636 115.968 61.7333 116.977 64.2725 116.977H130.773C133.104 116.977 135 115.078 135 112.743V64.7398C135 64.0926 134.475 63.5679 133.828 63.5679C133.181 63.5679 132.656 64.0926 132.656 64.7398V112.743C132.656 113.785 131.812 114.633 130.773 114.633H64.2726C62.3762 114.633 60.6062 113.88 59.2884 112.511C57.9866 111.159 57.3006 109.383 57.3486 107.502C57.3497 107.463 57.3498 107.423 57.3516 107.383C57.3544 107.315 57.3594 107.247 57.3642 107.18C57.3677 107.132 57.3708 107.083 57.3752 107.036C57.3811 106.971 57.3889 106.907 57.3966 106.843C57.4023 106.794 57.4081 106.746 57.415 106.698C57.4244 106.632 57.4353 106.566 57.4466 106.5C57.4541 106.457 57.4616 106.413 57.4698 106.37C57.4834 106.299 57.4984 106.229 57.5142 106.159C57.5222 106.123 57.5302 106.088 57.5386 106.053C57.5575 105.975 57.5777 105.897 57.5992 105.82C57.6061 105.795 57.613 105.771 57.62 105.747C57.6453 105.66 57.672 105.573 57.7006 105.488C57.7047 105.476 57.7087 105.464 57.7128 105.452C58.3712 103.52 59.8608 101.963 61.7467 101.216C61.7558 101.212 61.7648 101.209 61.774 101.205C61.858 101.172 61.943 101.141 62.0284 101.112C62.0525 101.104 62.0765 101.095 62.1008 101.087C62.1742 101.063 62.2483 101.04 62.3226 101.018C62.3601 101.007 62.3978 100.996 62.4356 100.985C62.4994 100.968 62.5636 100.951 62.6281 100.935C62.6776 100.923 62.7275 100.911 62.7775 100.9C62.833 100.888 62.8886 100.876 62.9445 100.865C63.0039 100.853 63.0636 100.843 63.1234 100.833C63.1726 100.824 63.222 100.816 63.2715 100.809C63.3375 100.799 63.4037 100.791 63.4701 100.783C63.5162 100.778 63.5623 100.772 63.6087 100.768C63.6765 100.761 63.7448 100.757 63.8131 100.752C63.8606 100.749 63.9078 100.746 63.9556 100.743C64.0183 100.741 64.0812 100.74 64.1444 100.739C64.2003 100.738 64.2564 100.736 64.3122 100.736C64.3809 100.737 64.4492 100.739 64.5173 100.741C64.5645 100.743 64.6117 100.744 64.6587 100.747C64.7434 100.751 64.8276 100.758 64.9115 100.766C64.9398 100.768 64.9684 100.771 64.9965 100.773C65.1061 100.785 65.215 100.798 65.3229 100.815C65.3244 100.815 65.3256 100.815 65.327 100.816C68.4175 101.291 70.8417 103.822 71.1645 106.968C71.1884 107.204 71.2006 107.443 71.2006 107.685C71.2006 107.694 71.2023 107.702 71.2026 107.711C71.2036 107.752 71.2067 107.793 71.2118 107.833C71.2142 107.852 71.217 107.87 71.2201 107.887C71.2272 107.927 71.2361 107.967 71.247 108.005C71.2501 108.016 71.2525 108.027 71.2559 108.038C71.2698 108.082 71.287 108.125 71.3059 108.166C71.3126 108.181 71.32 108.196 71.3273 108.211C71.3453 108.246 71.3648 108.281 71.3862 108.314C71.3929 108.325 71.3992 108.335 71.4061 108.346C71.4311 108.382 71.4587 108.417 71.4876 108.45C71.499 108.463 71.5106 108.476 71.5226 108.489C71.5508 108.518 71.5801 108.547 71.6111 108.573C71.6209 108.582 71.6307 108.59 71.6409 108.598C71.6751 108.626 71.7112 108.651 71.7486 108.675C71.7612 108.683 71.7737 108.69 71.7867 108.698C71.83 108.723 71.8745 108.746 71.9211 108.765C71.9223 108.766 71.9234 108.767 71.9247 108.767C71.929 108.769 71.9336 108.77 71.9379 108.772C71.9809 108.789 72.0253 108.803 72.0707 108.815C72.0834 108.819 72.0959 108.822 72.1086 108.825C72.1572 108.836 72.2065 108.845 72.2573 108.85C72.2651 108.851 72.2728 108.851 72.2806 108.851C72.3112 108.854 72.342 108.856 72.3734 108.856C72.3861 108.856 72.3982 108.855 72.4107 108.854C72.4254 108.854 72.44 108.853 72.4547 108.852C72.5023 108.849 72.5495 108.843 72.5954 108.835C72.5981 108.834 72.6009 108.834 72.6036 108.833C72.655 108.823 72.7048 108.809 72.7536 108.792C72.7631 108.789 72.7723 108.785 72.7817 108.782C72.8276 108.765 72.8725 108.745 72.9154 108.723C72.9186 108.721 72.9218 108.72 72.925 108.718C72.9706 108.694 73.0139 108.666 73.0556 108.636C73.065 108.629 73.0742 108.622 73.0834 108.615C73.1248 108.583 73.165 108.55 73.2017 108.513C73.2015 108.513 73.2018 108.513 73.2017 108.513C73.2045 108.51 73.2073 108.507 73.2101 108.504C73.234 108.48 73.2572 108.454 73.2789 108.428C73.2859 108.419 73.2918 108.41 73.2986 108.402C73.3153 108.38 73.332 108.359 73.3472 108.336C73.3525 108.328 73.3568 108.32 73.362 108.312C73.3775 108.287 73.3928 108.263 73.4064 108.237C73.4093 108.232 73.4118 108.226 73.4147 108.22C73.4293 108.192 73.4432 108.163 73.4556 108.133C73.4572 108.13 73.4582 108.126 73.4598 108.122C73.4725 108.09 73.4843 108.058 73.4943 108.026C73.4956 108.021 73.4964 108.017 73.4976 108.013C73.507 107.981 73.5156 107.948 73.5223 107.915C73.5243 107.905 73.5251 107.895 73.5268 107.885C73.5317 107.857 73.5365 107.83 73.5393 107.801C73.5432 107.762 73.5453 107.723 73.5453 107.684V53.689H130.773C131.812 53.689 132.656 54.5372 132.656 55.5797V59.8584C132.656 60.5059 133.181 61.0304 133.828 61.0304Z" fill="url(#paint6_linear)"/>
<defs>
<filter id="filter0_d" x="0" y="0" width="194" height="179" filterUnits="userSpaceOnUse" color-interpolation-filters="sRGB">
<feFlood flood-opacity="0" result="BackgroundImageFix"/>
<feColorMatrix in="SourceAlpha" type="matrix" values="0 0 0 0 0 0 0 0 0 0 0 0 0 0 0 0 0 0 127 0"/>
<feOffset dy="10"/>
<feGaussianBlur stdDeviation="10"/>
<feColorMatrix type="matrix" values="0 0 0 0 0 0 0 0 0 0 0 0 0 0 0 0 0 0 0.05 0"/>
<feBlend mode="normal" in2="BackgroundImageFix" result="effect1_dropShadow"/>
<feBlend mode="normal" in="SourceGraphic" in2="effect1_dropShadow" result="shape"/>
</filter>
<linearGradient id="paint0_linear" x1="95" y1="42" x2="95" y2="116.977" gradientUnits="userSpaceOnUse">
<stop stop-color="#018AD2"/>
<stop offset="1" stop-color="#005F92"/>
</linearGradient>
<linearGradient id="paint1_linear" x1="95" y1="42" x2="95" y2="116.977" gradientUnits="userSpaceOnUse">
<stop stop-color="#018AD2"/>
<stop offset="1" stop-color="#005F92"/>
</linearGradient>
<linearGradient id="paint2_linear" x1="95" y1="42" x2="95" y2="116.977" gradientUnits="userSpaceOnUse">
<stop stop-color="#018AD2"/>
<stop offset="1" stop-color="#005F92"/>
</linearGradient>
<linearGradient id="paint3_linear" x1="95" y1="42" x2="95" y2="116.977" gradientUnits="userSpaceOnUse">
<stop stop-color="#018AD2"/>
<stop offset="1" stop-color="#005F92"/>
</linearGradient>
<linearGradient id="paint4_linear" x1="95" y1="42" x2="95" y2="116.977" gradientUnits="userSpaceOnUse">
<stop stop-color="#018AD2"/>
<stop offset="1" stop-color="#005F92"/>
</linearGradient>
<linearGradient id="paint5_linear" x1="95" y1="42" x2="95" y2="116.977" gradientUnits="userSpaceOnUse">
<stop stop-color="#018AD2"/>
<stop offset="1" stop-color="#005F92"/>
</linearGradient>
<linearGradient id="paint6_linear" x1="95" y1="42" x2="95" y2="116.977" gradientUnits="userSpaceOnUse">
<stop stop-color="#018AD2"/>
<stop offset="1" stop-color="#005F92"/>
</linearGradient>
</defs>
</svg>
