<svg width="905" height="550" viewBox="0 0 905 550" fill="none" xmlns="http://www.w3.org/2000/svg">
<rect width="905" height="550" fill="#E4EFF4"/>
<path d="M824 85.6727V109.191C822.739 109.186 821.488 108.968 820.3 108.546L748.364 82.6025L649.61 109.16V310.799C649.607 312.879 649.035 314.918 647.956 316.696C646.876 318.474 645.33 319.923 643.486 320.884C641.641 321.846 639.569 322.285 637.493 322.152C635.417 322.019 633.417 321.321 631.71 320.132L518.94 241.242L428.168 306.47L398.203 327.961V508.891C398.197 510.459 397.868 512.009 397.236 513.444C396.604 514.879 395.683 516.168 394.531 517.231C393.378 518.295 392.019 519.109 390.538 519.623C389.056 520.137 387.485 520.341 385.922 520.22C374.316 519.284 356.754 523.122 350.875 524.672C349.921 524.941 348.934 525.075 347.943 525.071C346.448 525.073 344.967 524.781 343.585 524.21C342.203 523.639 340.947 522.801 339.889 521.745C338.831 520.688 337.992 519.434 337.419 518.053C336.847 516.672 336.552 515.191 336.552 513.696V407.435H81V384.684H347.912C350.926 384.692 353.815 385.893 355.947 388.025C358.078 390.156 359.279 393.045 359.287 396.059V499.604C364.629 498.631 370.021 497.949 375.437 497.562V322.174C375.434 320.373 375.861 318.597 376.684 316.995C377.506 315.393 378.7 314.01 380.165 312.963L410.407 291.21V111.601H352.717C350.467 111.601 348.267 110.934 346.397 109.684C344.526 108.434 343.068 106.658 342.207 104.579C341.346 102.5 341.12 100.213 341.559 98.0062C341.998 95.7995 343.082 93.7725 344.673 92.1817L409.517 27.338C411.093 25.764 413.096 24.6855 415.278 24.2354C417.46 23.7854 419.727 23.9834 421.798 24.8051L586.056 90.2781C587.444 90.8315 588.709 91.6528 589.78 92.6953C590.85 93.7377 591.705 94.9807 592.295 96.3535C592.885 97.7262 593.199 99.2018 593.219 100.696C593.239 102.19 592.965 103.673 592.411 105.061C591.858 106.449 591.036 107.715 589.994 108.785C588.952 109.856 587.709 110.711 586.336 111.301C584.963 111.891 583.488 112.205 581.993 112.225C580.499 112.245 579.016 111.97 577.628 111.417L420.262 48.8298L380.196 88.8351H421.798C424.814 88.8351 427.708 90.0336 429.841 92.1668C431.974 94.3001 433.173 97.1935 433.173 100.21V274.861L512.216 218.062C514.141 216.698 516.443 215.965 518.802 215.965C521.161 215.965 523.463 216.698 525.388 218.062L626.859 289.046V100.502C626.854 97.9971 627.676 95.5605 629.197 93.5703C630.718 91.5801 632.853 90.1476 635.272 89.4952L745.908 59.7906C748.15 59.1825 750.524 59.2789 752.709 60.0669L824 85.6727Z" fill="white"/>
</svg>
