<svg width="50" height="50" viewBox="0 0 50 50" fill="none" xmlns="http://www.w3.org/2000/svg">
<path d="M9.76357 4.01397H15.1007V2.425C15.1007 1.75781 15.372 1.15166 15.8121 0.711426C16.2495 0.274023 16.8557 0 17.5257 0C18.1928 0 18.7991 0.274121 19.2364 0.711426C19.6766 1.15166 19.9506 1.75781 19.9506 2.425V4.01397H25.285V2.425C25.285 1.75781 25.5591 1.15166 25.9964 0.711426C26.4365 0.274023 27.0428 0 27.7099 0C28.377 0 28.9833 0.274121 29.4235 0.711426C29.8637 1.15166 30.135 1.75781 30.135 2.425V4.01397H35.472V2.44434C35.472 1.77725 35.7433 1.1709 36.1834 0.730762C36.6207 0.293457 37.227 0.0194336 37.8971 0.0194336C38.5642 0.0194336 39.1704 0.293457 39.6078 0.730762C40.048 1.1709 40.3221 1.77725 40.3221 2.44434V4.01397H41.1249C42.2571 4.01397 43.2841 4.47617 44.0287 5.21816C44.7733 5.96279 45.2356 6.98984 45.2356 8.12187V15.754C45.2356 16.1582 44.9062 16.4876 44.502 16.4876C44.0979 16.4876 43.7685 16.1582 43.7685 15.754V13.6418H24.2772C23.8703 13.6418 23.5437 13.3151 23.5437 12.911C23.5437 12.5041 23.8703 12.1774 24.2772 12.1774H43.7685V8.12197C43.7685 7.39394 43.4723 6.73516 42.9933 6.25615C42.5115 5.77451 41.8527 5.47832 41.1247 5.47832H40.3219V7.04521C40.3219 7.7123 40.0479 8.31855 39.6076 8.75869C39.1702 9.19883 38.5641 9.47012 37.8969 9.47012C37.2269 9.47012 36.6206 9.19883 36.1832 8.75869C35.7431 8.31855 35.4718 7.7123 35.4718 7.04521V5.47832H30.1348V7.02578C30.1348 7.69297 29.8635 8.29912 29.4233 8.73936C28.9831 9.17676 28.3769 9.45078 27.7097 9.45078C27.0426 9.45078 26.4363 9.17666 25.9962 8.73936C25.5588 8.29912 25.2848 7.69297 25.2848 7.02578V5.47832H19.9504V7.02578C19.9504 7.69297 19.6764 8.29912 19.2362 8.73936C18.7988 9.17676 18.1926 9.45078 17.5255 9.45078C16.8556 9.45078 16.2493 9.17666 15.8119 8.73936C15.3718 8.29912 15.1005 7.69297 15.1005 7.02578V5.47832H9.76357V7.02578C9.76357 7.69297 9.48945 8.29912 9.05215 8.73936C8.61201 9.17676 8.00576 9.45078 7.33857 9.45078C6.67148 9.45078 6.06514 9.17666 5.625 8.73936C5.1876 8.29912 4.91357 7.69297 4.91357 7.02578V5.47832H4.10801C3.38271 5.47832 2.72109 5.77451 2.24229 6.25615C1.76338 6.73506 1.46436 7.39385 1.46436 8.12197V12.1775H20.9584C21.3626 12.1775 21.692 12.5042 21.692 12.9111C21.692 13.3153 21.3626 13.6419 20.9584 13.6419H1.46445V35.2701C1.46445 35.6743 1.13779 36.001 0.733691 36.001C0.329492 36.001 9.76563e-05 35.6742 9.76563e-05 35.2701V8.12197C0 6.98984 0.462305 5.96279 1.20693 5.21816C1.95156 4.47617 2.97861 4.01397 4.10801 4.01397H4.91357V2.425C4.91357 1.75781 5.18486 1.15166 5.625 0.711426C6.06514 0.274023 6.67148 0 7.33857 0C8.00576 0 8.61191 0.274121 9.05215 0.711426C9.48955 1.15166 9.76357 1.75781 9.76357 2.425V4.01397ZM38.952 32.4825C38.952 32.0783 39.2786 31.7518 39.6827 31.7518C40.0896 31.7518 40.4163 32.0784 40.4163 32.4825V38.9325C40.4163 39.1318 40.3388 39.309 40.2087 39.442L35.7324 44.707C35.4722 45.0172 35.0127 45.0559 34.7026 44.7929C34.3954 44.5327 34.3565 44.0732 34.6168 43.7631L38.952 38.6668V32.4825ZM34.4868 31.7655C34.1573 32.0036 33.7006 31.9289 33.4653 31.6022C33.2272 31.2755 33.2992 30.8188 33.6286 30.5808C34.4924 29.9523 35.4584 29.4568 36.4993 29.1191C37.5043 28.7924 38.5756 28.6152 39.6829 28.6152C41.1362 28.6152 42.5176 28.9143 43.7688 29.4568V19.0704C43.7688 18.6662 44.0982 18.3396 44.5024 18.3396C44.9066 18.3396 45.236 18.6663 45.236 19.0704V30.2347C45.8672 30.6389 46.4513 31.1095 46.98 31.6382C48.8457 33.504 50 36.084 50 38.9325C50 41.7811 48.8457 44.361 46.9798 46.2269C45.1112 48.0955 42.5341 49.2498 39.6827 49.2498C36.8342 49.2498 34.2569 48.0955 32.3884 46.2269C31.6798 45.5182 31.0735 44.7069 30.5946 43.8157H3.80908C2.75996 43.8157 1.80762 43.3895 1.11836 42.7001C0.429102 42.0081 0 41.0585 0 40.0094V38.5865C0 38.1823 0.329492 37.8559 0.733594 37.8559C1.1377 37.8559 1.46436 38.1824 1.46436 38.5865V40.0094C1.46436 40.6516 1.73008 41.2385 2.15371 41.662C2.57998 42.0883 3.16416 42.3514 3.80908 42.3514H29.9469C29.5704 41.2828 29.3655 40.1314 29.3655 38.9325C29.3655 37.8807 29.5262 36.8618 29.8224 35.8986C30.1296 34.9048 30.5809 33.9747 31.1511 33.1358C31.378 32.8009 31.8348 32.715 32.1669 32.9422C32.4991 33.1691 32.5849 33.6259 32.3579 33.9581C31.868 34.6806 31.4805 35.4778 31.2174 36.3277C30.9683 37.1472 30.8327 38.022 30.8327 38.9326C30.8327 41.3771 31.8236 43.5916 33.4236 45.1916C35.0265 46.7944 37.2383 47.7854 39.6827 47.7854C42.1271 47.7854 44.3416 46.7944 45.9443 45.1916C47.5445 43.5916 48.5355 41.3771 48.5355 38.9326C48.5355 36.4883 47.5445 34.2736 45.9443 32.6736C44.3416 31.0708 42.1271 30.0798 39.6827 30.0798C38.7277 30.0798 37.8087 30.2321 36.9504 30.5089C36.0591 30.7995 35.2286 31.2258 34.4868 31.7655ZM31.2812 16.7506H39.9291C40.3333 16.7506 40.6628 17.0772 40.6628 17.4813V26.1294C40.6628 26.5363 40.3333 26.863 39.9291 26.863H31.2812C30.877 26.863 30.5476 26.5363 30.5476 26.1294V17.4813C30.5477 17.0772 30.8771 16.7506 31.2812 16.7506ZM39.1983 18.2149H32.0147V25.3986H39.1983V18.2149ZM18.2925 29.1303H26.9405C27.3475 29.1303 27.6741 29.4597 27.6741 29.8639V38.5118C27.6741 38.916 27.3475 39.2454 26.9405 39.2454H18.2925C17.8883 39.2454 17.5617 38.916 17.5617 38.5118V29.8639C17.5617 29.4597 17.8884 29.1303 18.2925 29.1303ZM26.2098 30.5974H19.0262V37.7811H26.2098V30.5974ZM18.2925 16.7506H26.9405C27.3475 16.7506 27.6741 17.0772 27.6741 17.4813V26.1294C27.6741 26.5363 27.3475 26.863 26.9405 26.863H18.2925C17.8883 26.863 17.5617 26.5363 17.5617 26.1294V17.4813C17.5617 17.0772 17.8884 16.7506 18.2925 16.7506ZM26.2098 18.2149H19.0262V25.3986H26.2098V18.2149ZM5.30391 29.1303H13.9546C14.3588 29.1303 14.6854 29.4597 14.6854 29.8639V38.5118C14.6854 38.916 14.3588 39.2454 13.9546 39.2454H5.30391C4.89971 39.2454 4.57314 38.916 4.57314 38.5118V29.8639C4.57314 29.4597 4.89981 29.1303 5.30391 29.1303ZM13.2211 30.5974H6.0375V37.7811H13.2211V30.5974ZM5.30391 16.7506H13.9546C14.3588 16.7506 14.6854 17.0772 14.6854 17.4813V26.1294C14.6854 26.5363 14.3588 26.863 13.9546 26.863H5.30391C4.89971 26.863 4.57314 26.5363 4.57314 26.1294V17.4813C4.57314 17.0772 4.89981 16.7506 5.30391 16.7506ZM13.2211 18.2149H6.0375V25.3986H13.2211V18.2149ZM37.8973 1.48652C37.6343 1.48652 37.3934 1.59443 37.2189 1.76885C37.0446 1.94326 36.9366 2.18145 36.9366 2.44434V7.04531C36.9366 7.3082 37.0445 7.54902 37.2189 7.72344C37.3934 7.89785 37.6343 8.00586 37.8973 8.00586C38.1602 8.00586 38.3983 7.89795 38.5727 7.72344C38.7471 7.54902 38.8551 7.3082 38.8551 7.04531V2.44434C38.8551 2.18145 38.7472 1.94326 38.5727 1.76885C38.3983 1.59453 38.1603 1.48652 37.8973 1.48652ZM8.01689 1.74678C7.84248 1.57246 7.60166 1.46445 7.33867 1.46445C7.07578 1.46445 6.83486 1.57236 6.66045 1.74678C6.48604 1.92119 6.37812 2.16201 6.37812 2.425V7.02588C6.37812 7.28887 6.48604 7.52969 6.66045 7.7041C6.83486 7.87842 7.07578 7.98643 7.33867 7.98643C7.60166 7.98643 7.84248 7.87852 8.01689 7.7041C8.19131 7.52969 8.29922 7.28887 8.29922 7.02588V2.425C8.29922 2.16191 8.19121 1.92119 8.01689 1.74678ZM17.5258 1.46445C17.26 1.46445 17.022 1.57236 16.8476 1.74678C16.6731 1.92119 16.5652 2.16201 16.5652 2.425V7.02588C16.5652 7.28887 16.6731 7.52969 16.8476 7.7041C17.022 7.87842 17.2601 7.98643 17.5258 7.98643C17.7887 7.98643 18.0268 7.87852 18.2012 7.7041C18.3756 7.52969 18.4836 7.28887 18.4836 7.02588V2.425C18.4836 2.16201 18.3757 1.92119 18.2012 1.74678C18.0268 1.57236 17.7887 1.46445 17.5258 1.46445ZM27.7101 1.46445C27.4472 1.46445 27.2063 1.57236 27.0319 1.74678C26.8575 1.92119 26.7495 2.16201 26.7495 2.425V7.02588C26.7495 7.28887 26.8574 7.52969 27.0319 7.7041C27.2063 7.87842 27.4472 7.98643 27.7101 7.98643C27.973 7.98643 28.2139 7.87852 28.3883 7.7041C28.5627 7.52969 28.6707 7.28887 28.6707 7.02588V2.425C28.6707 2.16201 28.5628 1.92119 28.3883 1.74678C28.2139 1.57236 27.973 1.46445 27.7101 1.46445Z" fill="url(#paint0_linear)"/>
<defs>
<linearGradient id="paint0_linear" x1="25" y1="0" x2="25" y2="49.2498" gradientUnits="userSpaceOnUse">
<stop stop-color="#018AD2"/>
<stop offset="1" stop-color="#005F92"/>
</linearGradient>
</defs>
</svg>
