<svg width="41" height="41" viewBox="0 0 41 41" fill="none" xmlns="http://www.w3.org/2000/svg">
<circle cx="20.5" cy="20.5" r="20.5" fill="white"/>
<path d="M25.4653 10H15.7411C12.024 10 9 13.024 9 16.7411V26.4653C9 30.1823 12.024 33.2063 15.7411 33.2063H25.4653C29.1823 33.2063 32.2063 30.1823 32.2063 26.4653V16.7411C32.2063 13.024 29.1823 10 25.4653 10ZM30.3934 26.4653C30.3934 29.1826 28.1826 31.3934 25.4653 31.3934H15.7411C13.0237 31.3934 10.813 29.1826 10.813 26.4653V16.7411C10.813 14.0237 13.0237 11.813 15.7411 11.813H25.4653C28.1826 11.813 30.3934 14.0237 30.3934 16.7411V26.4653Z" fill="#018AD2"/>
<path d="M20.603 15.3483C17.154 15.3483 14.3481 18.1541 14.3481 21.6031C14.3481 25.0521 17.154 27.8579 20.603 27.8579C24.0519 27.8579 26.8578 25.0521 26.8578 21.6031C26.8578 18.1541 24.0519 15.3483 20.603 15.3483ZM20.603 26.0449C18.1538 26.0449 16.1611 24.0523 16.1611 21.6031C16.1611 19.1539 18.1538 17.1613 20.603 17.1613C23.0522 17.1613 25.0448 19.1539 25.0448 21.6031C25.0448 24.0523 23.0522 26.0449 20.603 26.0449Z" fill="#018AD2"/>
<path d="M26.9485 16.1642C27.4491 16.1642 27.855 15.7583 27.855 15.2577C27.855 14.757 27.4491 14.3512 26.9485 14.3512C26.4478 14.3512 26.042 14.757 26.042 15.2577C26.042 15.7583 26.4478 16.1642 26.9485 16.1642Z" fill="#018AD2"/>
</svg>
