<svg width="50" height="50" viewBox="0 0 50 50" fill="none" xmlns="http://www.w3.org/2000/svg">
<path d="M37.8649 7.43563C38.4042 7.43563 38.8415 6.99842 38.8415 6.45906C38.8415 5.91971 38.4042 5.4825 37.8649 5.4825H37.8594C37.3201 5.4825 36.8855 5.91971 36.8855 6.45906C36.8855 6.99842 37.3257 7.43563 37.8649 7.43563Z" fill="url(#paint0_linear)"/>
<path d="M43.1354 7.43563C43.6746 7.43563 44.1119 6.99842 44.1119 6.45906C44.1119 5.91971 43.6746 5.4825 43.1354 5.4825H43.1298C42.5905 5.4825 42.156 5.91971 42.156 6.45906C42.156 6.99842 42.5961 7.43563 43.1354 7.43563Z" fill="url(#paint1_linear)"/>
<path d="M32.5946 7.43563C33.1339 7.43563 33.5712 6.99842 33.5712 6.45906C33.5712 5.91971 33.1339 5.4825 32.5946 5.4825H32.5891C32.0498 5.4825 31.6152 5.91971 31.6152 6.45906C31.6152 6.99842 32.0553 7.43563 32.5946 7.43563Z" fill="url(#paint2_linear)"/>
<path d="M6.86179 7.43563H21.5358C22.0751 7.43563 22.5124 6.99842 22.5124 6.45906C22.5124 5.91971 22.0751 5.4825 21.5358 5.4825H6.86179C6.32254 5.4825 5.88523 5.91971 5.88523 6.45906C5.88523 6.99842 6.32244 7.43563 6.86179 7.43563Z" fill="url(#paint3_linear)"/>
<path d="M32.4055 24.3431C31.9923 23.9963 31.3765 24.0503 31.0297 24.4635L17.4712 40.6238C17.1245 41.037 17.1785 41.6529 17.5916 41.9996C17.7746 42.1531 17.9972 42.228 18.2188 42.228C18.4975 42.228 18.7743 42.1094 18.9675 41.8791L32.5259 25.7188C32.8726 25.3057 32.8186 24.6898 32.4055 24.3431Z" fill="url(#paint4_linear)"/>
<path d="M30.1582 34.3368C28.3498 34.3368 26.8786 35.808 26.8786 37.6164V39.4932C26.8786 41.3016 28.3498 42.7728 30.1582 42.7728C31.9667 42.7728 33.4379 41.3016 33.4379 39.4932V37.6164C33.4379 35.8081 31.9667 34.3368 30.1582 34.3368ZM31.4847 39.4933C31.4847 40.2247 30.8896 40.8197 30.1582 40.8197C29.4268 40.8197 28.8317 40.2246 28.8317 39.4933V37.6165C28.8317 36.8851 29.4268 36.2901 30.1582 36.2901C30.8896 36.2901 31.4847 36.8852 31.4847 37.6165V39.4933Z" fill="url(#paint5_linear)"/>
<path d="M19.8388 32.0022C21.6472 32.0022 23.1184 30.531 23.1184 28.7226V26.8458C23.1184 25.0374 21.6472 23.5662 19.8388 23.5662C18.0303 23.5662 16.5591 25.0374 16.5591 26.8458V28.7226C16.5591 30.5309 18.0304 32.0022 19.8388 32.0022ZM18.5123 26.8457C18.5123 26.1143 19.1074 25.5193 19.8388 25.5193C20.5702 25.5193 21.1653 26.1144 21.1653 26.8457V28.7225C21.1653 29.4539 20.5702 30.049 19.8388 30.049C19.1074 30.049 18.5123 29.4538 18.5123 28.7225V26.8457Z" fill="url(#paint6_linear)"/>
<path d="M46.8671 0.341797H3.13291C1.40547 0.341797 0 1.74727 0 3.47471V39.6347C0 41.3622 1.40547 42.7677 3.13291 42.7677H11.7157C12.2433 43.5158 12.8406 44.2294 13.5095 44.8982C16.5791 47.9678 20.6598 49.6582 24.9996 49.6582C29.3396 49.6582 33.4196 47.9677 36.4878 44.8982C37.153 44.233 37.7529 43.5204 38.2855 42.7677H46.8671C48.5945 42.7677 50 41.3622 50 39.6347V3.47471C50 1.74727 48.5945 0.341797 46.8671 0.341797ZM3.13291 2.29492H46.8671C47.5176 2.29492 48.0469 2.82412 48.0469 3.47471V10.6254H1.95312V3.47471C1.95312 2.82412 2.48242 2.29492 3.13291 2.29492ZM46.8671 40.8146H39.4691C40.2887 39.215 40.8377 37.4802 41.0911 35.6571C41.5647 32.2489 40.9307 28.7133 39.3059 25.7014C39.0498 25.2267 38.4574 25.0495 37.9827 25.3056C37.5081 25.5616 37.3309 26.154 37.5869 26.6287C40.5598 32.1393 39.5398 39.084 35.1066 43.5173C32.4072 46.2179 28.8179 47.7051 24.9996 47.7051C21.1813 47.7051 17.5913 46.2178 14.8905 43.5171C14.1859 42.8125 13.5707 42.0518 13.0443 41.2495C13.0431 41.2476 13.0419 41.2456 13.0406 41.2437C9.4083 35.7018 10.0246 28.1694 14.8905 23.3013C19.3233 18.8684 26.2694 17.8486 31.7821 20.8212C32.2569 21.0772 32.8493 20.8999 33.1052 20.4251C33.3611 19.9504 33.1839 19.358 32.7091 19.1021C29.6958 17.4772 26.1588 16.8431 22.751 17.3168C19.227 17.8064 16.0312 19.3982 13.5093 21.9203C8.40625 27.0257 7.41602 34.7088 10.5362 40.8145H3.13291C2.48242 40.8145 1.95312 40.2852 1.95312 39.6346V12.5785H48.0469V39.6348C48.0469 40.2853 47.5176 40.8146 46.8671 40.8146Z" fill="url(#paint7_linear)"/>
<path d="M36.4851 21.9176C36.1038 21.5363 35.4868 21.5376 35.1055 21.919C34.7241 22.3003 34.7254 22.9201 35.1068 23.3015C35.2976 23.4922 35.5475 23.5876 35.7974 23.5876C36.0473 23.5876 36.2972 23.4922 36.4879 23.3015C36.8692 22.9202 36.8692 22.3018 36.4879 21.9204L36.4851 21.9176Z" fill="url(#paint8_linear)"/>
<defs>
<linearGradient id="paint0_linear" x1="25" y1="0.341797" x2="25" y2="49.6582" gradientUnits="userSpaceOnUse">
<stop stop-color="#018AD2"/>
<stop offset="1" stop-color="#005F92"/>
</linearGradient>
<linearGradient id="paint1_linear" x1="25" y1="0.341797" x2="25" y2="49.6582" gradientUnits="userSpaceOnUse">
<stop stop-color="#018AD2"/>
<stop offset="1" stop-color="#005F92"/>
</linearGradient>
<linearGradient id="paint2_linear" x1="25" y1="0.341797" x2="25" y2="49.6582" gradientUnits="userSpaceOnUse">
<stop stop-color="#018AD2"/>
<stop offset="1" stop-color="#005F92"/>
</linearGradient>
<linearGradient id="paint3_linear" x1="25" y1="0.341797" x2="25" y2="49.6582" gradientUnits="userSpaceOnUse">
<stop stop-color="#018AD2"/>
<stop offset="1" stop-color="#005F92"/>
</linearGradient>
<linearGradient id="paint4_linear" x1="25" y1="0.341797" x2="25" y2="49.6582" gradientUnits="userSpaceOnUse">
<stop stop-color="#018AD2"/>
<stop offset="1" stop-color="#005F92"/>
</linearGradient>
<linearGradient id="paint5_linear" x1="25" y1="0.341797" x2="25" y2="49.6582" gradientUnits="userSpaceOnUse">
<stop stop-color="#018AD2"/>
<stop offset="1" stop-color="#005F92"/>
</linearGradient>
<linearGradient id="paint6_linear" x1="25" y1="0.341797" x2="25" y2="49.6582" gradientUnits="userSpaceOnUse">
<stop stop-color="#018AD2"/>
<stop offset="1" stop-color="#005F92"/>
</linearGradient>
<linearGradient id="paint7_linear" x1="25" y1="0.341797" x2="25" y2="49.6582" gradientUnits="userSpaceOnUse">
<stop stop-color="#018AD2"/>
<stop offset="1" stop-color="#005F92"/>
</linearGradient>
<linearGradient id="paint8_linear" x1="25" y1="0.341797" x2="25" y2="49.6582" gradientUnits="userSpaceOnUse">
<stop stop-color="#018AD2"/>
<stop offset="1" stop-color="#005F92"/>
</linearGradient>
</defs>
</svg>
