<svg width="50" height="50" viewBox="0 0 50 50" fill="none" xmlns="http://www.w3.org/2000/svg">
<path d="M45.1172 3.90625C44.5782 3.90625 44.1406 4.3438 44.1406 4.88281C44.1406 5.42183 44.5782 5.85938 45.1172 5.85938C45.6562 5.85938 46.0938 5.42183 46.0938 4.88281C46.0938 4.3438 45.6562 3.90625 45.1172 3.90625Z" fill="url(#paint0_linear)"/>
<path d="M45.1172 44.1406C44.5782 44.1406 44.1406 44.5782 44.1406 45.1172C44.1406 45.6562 44.5782 46.0938 45.1172 46.0938C45.6562 46.0938 46.0938 45.6562 46.0938 45.1172C46.0938 44.5782 45.6562 44.1406 45.1172 44.1406Z" fill="url(#paint1_linear)"/>
<path d="M4.88281 5.85938C5.42183 5.85938 5.85938 5.42183 5.85938 4.88281C5.85938 4.3438 5.42183 3.90625 4.88281 3.90625C4.3438 3.90625 3.90625 4.3438 3.90625 4.88281C3.90625 5.42183 4.3438 5.85938 4.88281 5.85938Z" fill="url(#paint2_linear)"/>
<path d="M4.88281 44.1406C4.3438 44.1406 3.90625 44.5782 3.90625 45.1172C3.90625 45.6562 4.3438 46.0938 4.88281 46.0938C5.42183 46.0938 5.85938 45.6562 5.85938 45.1172C5.85938 44.5782 5.42183 44.1406 4.88281 44.1406Z" fill="url(#paint3_linear)"/>
<path d="M5.46875 25.9766H5.49316C6.0215 25.9628 6.44531 25.5314 6.44531 25C6.44531 24.4686 6.0215 24.0372 5.49316 24.0234C5.48553 24.0234 5.47638 24.0234 5.46875 24.0234C4.92973 24.0234 4.49219 24.461 4.49219 25C4.49219 25.539 4.92973 25.9766 5.46875 25.9766Z" fill="url(#paint4_linear)"/>
<path d="M45.1172 0H4.88281C2.1904 0 0 2.1904 0 4.88281V45.1172C0 47.8096 2.1904 50 4.88281 50H45.1172C47.8096 50 50 47.8096 50 45.1172V4.88281C50 2.1904 47.8096 0 45.1172 0ZM48.0469 45.1172C48.0469 46.7327 46.7327 48.0469 45.1172 48.0469H4.88281C3.26729 48.0469 1.95312 46.7327 1.95312 45.1172V4.88281C1.95312 3.26729 3.26729 1.95312 4.88281 1.95312H45.1172C46.7327 1.95312 48.0469 3.26729 48.0469 4.88281V45.1172Z" fill="url(#paint5_linear)"/>
<path d="M25 4.49219C15.0368 4.49219 6.81572 11.5372 4.89845 20.9167C4.79088 21.4451 5.13153 21.9612 5.65987 22.0692C6.1882 22.1767 6.70433 21.8361 6.81229 21.3078C8.57239 12.6961 16.2212 6.44531 25 6.44531C35.231 6.44531 43.5547 14.769 43.5547 25C43.5547 35.231 35.231 43.5547 25 43.5547C16.1667 43.5547 8.68645 37.4393 6.81038 28.6831C6.69746 28.1559 6.1779 27.8198 5.65071 27.9327C5.12352 28.0457 4.78745 28.5648 4.90036 29.0924C6.9088 38.4644 14.8846 45.5078 25 45.5078C36.3617 45.5078 45.5078 36.3701 45.5078 25C45.5078 13.6921 36.3079 4.49219 25 4.49219Z" fill="url(#paint6_linear)"/>
<path d="M35.7422 17.1875C35.7422 12.3413 31.7993 8.39844 26.9531 8.39844H25C24.4606 8.39844 24.0234 8.8356 24.0234 9.375V17.5186C22.3942 15.5056 19.91 14.2578 17.1875 14.2578C12.3413 14.2578 8.39844 18.2007 8.39844 23.0469V25C8.39844 25.5394 8.8356 25.9754 9.375 25.9754H17.5186C15.5056 27.6051 14.2578 30.09 14.2578 32.8125C14.2578 37.6587 18.2007 41.6016 23.0469 41.6016H25C25.5394 41.6016 25.9766 41.1644 25.9766 40.625V32.4814C27.6058 34.4944 30.09 35.7422 32.8125 35.7422C37.6587 35.7422 41.6016 31.7993 41.6016 26.9531V25C41.6016 24.4606 41.1644 24.0234 40.625 24.0234H32.4814C34.4944 22.3942 35.7422 19.91 35.7422 17.1875ZM26.9531 10.3516C30.7224 10.3516 33.7891 13.4182 33.7891 17.1875C33.7891 19.9612 32.1255 22.4171 29.6383 23.4756C29.0947 21.8231 27.6939 20.5669 25.9766 20.2164V10.3516H26.9531ZM25.1858 27.9236C23.5287 28.0235 22.1733 26.759 22.0764 25.1858C21.9734 23.4772 23.3269 22.0703 25 22.0703C26.6033 22.0703 27.9297 23.3707 27.9297 25C27.9297 26.5446 26.7235 27.829 25.1858 27.9236ZM10.3516 23.0469C10.3516 19.2776 13.4182 16.2109 17.1875 16.2109C19.9612 16.2109 22.4171 17.8745 23.4756 20.3617C21.8231 20.9053 20.5669 22.3061 20.2164 24.0234H10.3516V23.0469ZM23.0469 39.6484C19.2776 39.6484 16.2109 36.5818 16.2109 32.8125C16.2109 30.0388 17.8745 27.5829 20.3617 26.5244C20.9053 28.1769 22.3061 29.4331 24.0234 29.7836V39.6484H23.0469ZM39.6484 26.9531C39.6484 30.7224 36.5818 33.7891 32.8125 33.7891C30.0388 33.7891 27.5829 32.1255 26.5244 29.6383C28.1769 29.0947 29.4331 27.6939 29.7836 25.9766H39.6484V26.9531Z" fill="url(#paint7_linear)"/>
<defs>
<linearGradient id="paint0_linear" x1="25" y1="0" x2="25" y2="50" gradientUnits="userSpaceOnUse">
<stop stop-color="#018AD2"/>
<stop offset="1" stop-color="#005F92"/>
</linearGradient>
<linearGradient id="paint1_linear" x1="25" y1="0" x2="25" y2="50" gradientUnits="userSpaceOnUse">
<stop stop-color="#018AD2"/>
<stop offset="1" stop-color="#005F92"/>
</linearGradient>
<linearGradient id="paint2_linear" x1="25" y1="0" x2="25" y2="50" gradientUnits="userSpaceOnUse">
<stop stop-color="#018AD2"/>
<stop offset="1" stop-color="#005F92"/>
</linearGradient>
<linearGradient id="paint3_linear" x1="25" y1="0" x2="25" y2="50" gradientUnits="userSpaceOnUse">
<stop stop-color="#018AD2"/>
<stop offset="1" stop-color="#005F92"/>
</linearGradient>
<linearGradient id="paint4_linear" x1="25" y1="0" x2="25" y2="50" gradientUnits="userSpaceOnUse">
<stop stop-color="#018AD2"/>
<stop offset="1" stop-color="#005F92"/>
</linearGradient>
<linearGradient id="paint5_linear" x1="25" y1="0" x2="25" y2="50" gradientUnits="userSpaceOnUse">
<stop stop-color="#018AD2"/>
<stop offset="1" stop-color="#005F92"/>
</linearGradient>
<linearGradient id="paint6_linear" x1="25" y1="0" x2="25" y2="50" gradientUnits="userSpaceOnUse">
<stop stop-color="#018AD2"/>
<stop offset="1" stop-color="#005F92"/>
</linearGradient>
<linearGradient id="paint7_linear" x1="25" y1="0" x2="25" y2="50" gradientUnits="userSpaceOnUse">
<stop stop-color="#018AD2"/>
<stop offset="1" stop-color="#005F92"/>
</linearGradient>
</defs>
</svg>
