<svg width="47" height="50" viewBox="0 0 47 50" fill="none" xmlns="http://www.w3.org/2000/svg">
<path d="M43.5484 6.45161C42.6931 6.45257 41.8732 6.79274 41.2684 7.39749C40.6637 8.00223 40.3235 8.82217 40.3226 9.67741V16.129H39.5161V14.5161C39.5161 14.3022 39.4311 14.0971 39.2799 13.9459C39.1287 13.7946 38.9235 13.7097 38.7097 13.7097C38.4958 13.7097 38.2906 13.7946 38.1394 13.9459C37.9882 14.0971 37.9032 14.3022 37.9032 14.5161V24.1935C37.9032 24.4074 37.9882 24.6125 38.1394 24.7638C38.2906 24.915 38.4958 25 38.7097 25C38.9235 25 39.1287 24.915 39.2799 24.7638C39.4311 24.6125 39.5161 24.4074 39.5161 24.1935V17.7419H40.3226V44.3548C40.3227 44.48 40.3516 44.6035 40.4072 44.7157L42.8266 49.5544C42.8937 49.6883 42.9968 49.8009 43.1242 49.8796C43.2517 49.9583 43.3986 50 43.5484 50C43.6982 50 43.845 49.9583 43.9725 49.8796C44.0999 49.8009 44.203 49.6883 44.2701 49.5544L46.6895 44.7157C46.7451 44.6035 46.774 44.48 46.7742 44.3548V9.67741C46.7732 8.82217 46.433 8.00223 45.8283 7.39749C45.2235 6.79274 44.4036 6.45257 43.5484 6.45161ZM45.1613 44.1643L43.5484 47.3901L41.9355 44.1643V43.5484H45.1613V44.1643ZM45.1613 41.9355H41.9355V13.7097H45.1613V41.9355ZM45.1613 12.0968H41.9355V9.67741C41.9355 9.24964 42.1054 8.8394 42.4079 8.53692C42.7103 8.23444 43.1206 8.06451 43.5484 8.06451C43.9761 8.06451 44.3864 8.23444 44.6889 8.53692C44.9913 8.8394 45.1613 9.24964 45.1613 9.67741V12.0968Z" fill="url(#paint0_linear)"/>
<path d="M36.2903 0H0.806451C0.592567 0 0.387443 0.0849651 0.236204 0.236204C0.0849651 0.387443 0 0.592567 0 0.806451V49.1935C0 49.4074 0.0849651 49.6125 0.236204 49.7638C0.387443 49.915 0.592567 50 0.806451 50H28.2258C28.4397 50 28.6449 49.9152 28.7964 49.7641L36.8609 41.6996C37.012 41.5482 37.0968 41.3429 37.0967 41.129V0.806451C37.0967 0.592567 37.0118 0.387443 36.8605 0.236204C36.7093 0.0849651 36.5042 0 36.2903 0ZM29.0322 47.2469V41.9355H34.3437L29.0322 47.2469ZM35.4838 40.3226H28.2258C28.0119 40.3226 27.8068 40.4075 27.6555 40.5588C27.5043 40.71 27.4193 40.9151 27.4193 41.129V48.3871H1.6129V1.6129H35.4838V40.3226Z" fill="url(#paint1_linear)"/>
<path d="M4.83871 4.83871H13.7097C13.9236 4.83871 14.1287 4.75374 14.2799 4.6025C14.4312 4.45126 14.5161 4.24614 14.5161 4.03226C14.5161 3.81837 14.4312 3.61325 14.2799 3.46201C14.1287 3.31077 13.9236 3.2258 13.7097 3.2258H4.83871C4.62482 3.2258 4.4197 3.31077 4.26846 3.46201C4.11722 3.61325 4.03226 3.81837 4.03226 4.03226C4.03226 4.24614 4.11722 4.45126 4.26846 4.6025C4.4197 4.75374 4.62482 4.83871 4.83871 4.83871Z" fill="url(#paint2_linear)"/>
<path d="M4.83871 7.25806H7.25806C7.47194 7.25806 7.67707 7.17309 7.82831 7.02186C7.97955 6.87062 8.06451 6.66549 8.06451 6.45161C8.06451 6.23772 7.97955 6.0326 7.82831 5.88136C7.67707 5.73012 7.47194 5.64516 7.25806 5.64516H4.83871C4.62482 5.64516 4.4197 5.73012 4.26846 5.88136C4.11722 6.0326 4.03226 6.23772 4.03226 6.45161C4.03226 6.66549 4.11722 6.87062 4.26846 7.02186C4.4197 7.17309 4.62482 7.25806 4.83871 7.25806Z" fill="url(#paint3_linear)"/>
<path d="M11.2903 26.6129H4.83871C4.62482 26.6129 4.4197 26.6979 4.26846 26.8491C4.11722 27.0003 4.03226 27.2055 4.03226 27.4193V33.8709C4.03226 34.0848 4.11722 34.29 4.26846 34.4412C4.4197 34.5924 4.62482 34.6774 4.83871 34.6774H11.2903C11.5042 34.6774 11.7093 34.5924 11.8606 34.4412C12.0118 34.29 12.0968 34.0848 12.0968 33.8709V27.4193C12.0968 27.2055 12.0118 27.0003 11.8606 26.8491C11.7093 26.6979 11.5042 26.6129 11.2903 26.6129ZM10.4839 33.0645H5.64516V28.2258H10.4839V33.0645Z" fill="url(#paint4_linear)"/>
<path d="M21.7742 26.6129H15.3226C15.1087 26.6129 14.9036 26.6979 14.7523 26.8491C14.6011 27.0003 14.5161 27.2055 14.5161 27.4193V33.8709C14.5161 34.0848 14.6011 34.29 14.7523 34.4412C14.9036 34.5924 15.1087 34.6774 15.3226 34.6774H21.7742C21.9881 34.6774 22.1932 34.5924 22.3444 34.4412C22.4957 34.29 22.5806 34.0848 22.5806 33.8709V27.4193C22.5806 27.2055 22.4957 27.0003 22.3444 26.8491C22.1932 26.6979 21.9881 26.6129 21.7742 26.6129ZM20.9677 33.0645H16.129V28.2258H20.9677V33.0645Z" fill="url(#paint5_linear)"/>
<path d="M32.258 26.6129H25.8064C25.5926 26.6129 25.3874 26.6979 25.2362 26.8491C25.0849 27.0003 25 27.2055 25 27.4193V33.8709C25 34.0848 25.0849 34.29 25.2362 34.4412C25.3874 34.5924 25.5926 34.6774 25.8064 34.6774H32.258C32.4719 34.6774 32.6771 34.5924 32.8283 34.4412C32.9795 34.29 33.0645 34.0848 33.0645 33.8709V27.4193C33.0645 27.2055 32.9795 27.0003 32.8283 26.8491C32.6771 26.6979 32.4719 26.6129 32.258 26.6129ZM31.4516 33.0645H26.6129V28.2258H31.4516V33.0645Z" fill="url(#paint6_linear)"/>
<path d="M4.83871 20.9677H32.258C32.4719 20.9677 32.6771 20.8828 32.8283 20.7315C32.9795 20.5803 33.0645 20.3752 33.0645 20.1613V8.87096C33.0645 8.65708 32.9795 8.45195 32.8283 8.30072C32.6771 8.14948 32.4719 8.06451 32.258 8.06451H4.83871C4.62482 8.06451 4.4197 8.14948 4.26846 8.30072C4.11722 8.45195 4.03226 8.65708 4.03226 8.87096V20.1613C4.03226 20.3752 4.11722 20.5803 4.26846 20.7315C4.4197 20.8828 4.62482 20.9677 4.83871 20.9677ZM5.64516 9.67741H31.4516V19.3548H5.64516V9.67741Z" fill="url(#paint7_linear)"/>
<path d="M9.67741 5.64516C9.46353 5.64516 9.2584 5.73012 9.10717 5.88136C8.95593 6.0326 8.87096 6.23772 8.87096 6.45161C8.87096 6.66549 8.95593 6.87062 9.10717 7.02186C9.2584 7.17309 9.46353 7.25806 9.67741 7.25806H10.4839C10.6977 7.25806 10.9029 7.17309 11.0541 7.02186C11.2054 6.87062 11.2903 6.66549 11.2903 6.45161C11.2903 6.23772 11.2054 6.0326 11.0541 5.88136C10.9029 5.73012 10.6977 5.64516 10.4839 5.64516H9.67741Z" fill="url(#paint8_linear)"/>
<path d="M4.83871 23.3871H32.258C32.4719 23.3871 32.6771 23.3021 32.8283 23.1509C32.9795 22.9996 33.0645 22.7945 33.0645 22.5806C33.0645 22.3667 32.9795 22.1616 32.8283 22.0104C32.6771 21.8591 32.4719 21.7742 32.258 21.7742H4.83871C4.62482 21.7742 4.4197 21.8591 4.26846 22.0104C4.11722 22.1616 4.03226 22.3667 4.03226 22.5806C4.03226 22.7945 4.11722 22.9996 4.26846 23.1509C4.4197 23.3021 4.62482 23.3871 4.83871 23.3871Z" fill="url(#paint9_linear)"/>
<path d="M24.1935 24.1935H4.83871C4.62482 24.1935 4.4197 24.2785 4.26846 24.4297C4.11722 24.581 4.03226 24.7861 4.03226 25C4.03226 25.2139 4.11722 25.419 4.26846 25.5702C4.4197 25.7215 4.62482 25.8064 4.83871 25.8064H24.1935C24.4074 25.8064 24.6125 25.7215 24.7638 25.5702C24.915 25.419 25 25.2139 25 25C25 24.7861 24.915 24.581 24.7638 24.4297C24.6125 24.2785 24.4074 24.1935 24.1935 24.1935Z" fill="url(#paint10_linear)"/>
<path d="M27.4193 25.8064C27.6332 25.8064 27.8383 25.7215 27.9896 25.5702C28.1408 25.419 28.2258 25.2139 28.2258 25C28.2258 24.7861 28.1408 24.581 27.9896 24.4297C27.8383 24.2785 27.6332 24.1935 27.4193 24.1935H26.6129C26.399 24.1935 26.1939 24.2785 26.0426 24.4297C25.8914 24.581 25.8064 24.7861 25.8064 25C25.8064 25.2139 25.8914 25.419 26.0426 25.5702C26.1939 25.7215 26.399 25.8064 26.6129 25.8064H27.4193Z" fill="url(#paint11_linear)"/>
<path d="M11.2903 35.4838H4.83871C4.62482 35.4838 4.4197 35.5688 4.26846 35.7201C4.11722 35.8713 4.03226 36.0764 4.03226 36.2903C4.03226 36.5042 4.11722 36.7093 4.26846 36.8605C4.4197 37.0118 4.62482 37.0967 4.83871 37.0967H11.2903C11.5042 37.0967 11.7093 37.0118 11.8606 36.8605C12.0118 36.7093 12.0968 36.5042 12.0968 36.2903C12.0968 36.0764 12.0118 35.8713 11.8606 35.7201C11.7093 35.5688 11.5042 35.4838 11.2903 35.4838Z" fill="url(#paint12_linear)"/>
<path d="M11.2903 37.9032H4.83871C4.62482 37.9032 4.4197 37.9882 4.26846 38.1394C4.11722 38.2906 4.03226 38.4958 4.03226 38.7097C4.03226 38.9235 4.11722 39.1287 4.26846 39.2799C4.4197 39.4311 4.62482 39.5161 4.83871 39.5161H11.2903C11.5042 39.5161 11.7093 39.4311 11.8606 39.2799C12.0118 39.1287 12.0968 38.9235 12.0968 38.7097C12.0968 38.4958 12.0118 38.2906 11.8606 38.1394C11.7093 37.9882 11.5042 37.9032 11.2903 37.9032Z" fill="url(#paint13_linear)"/>
<path d="M11.2903 40.3226H4.83871C4.62482 40.3226 4.4197 40.4075 4.26846 40.5588C4.11722 40.71 4.03226 40.9151 4.03226 41.129C4.03226 41.3429 4.11722 41.548 4.26846 41.6993C4.4197 41.8505 4.62482 41.9355 4.83871 41.9355H11.2903C11.5042 41.9355 11.7093 41.8505 11.8606 41.6993C12.0118 41.548 12.0968 41.3429 12.0968 41.129C12.0968 40.9151 12.0118 40.71 11.8606 40.5588C11.7093 40.4075 11.5042 40.3226 11.2903 40.3226Z" fill="url(#paint14_linear)"/>
<path d="M21.7742 35.4838H15.3226C15.1087 35.4838 14.9036 35.5688 14.7523 35.7201C14.6011 35.8713 14.5161 36.0764 14.5161 36.2903C14.5161 36.5042 14.6011 36.7093 14.7523 36.8605C14.9036 37.0118 15.1087 37.0967 15.3226 37.0967H21.7742C21.9881 37.0967 22.1932 37.0118 22.3444 36.8605C22.4957 36.7093 22.5806 36.5042 22.5806 36.2903C22.5806 36.0764 22.4957 35.8713 22.3444 35.7201C22.1932 35.5688 21.9881 35.4838 21.7742 35.4838Z" fill="url(#paint15_linear)"/>
<path d="M21.7742 37.9032H15.3226C15.1087 37.9032 14.9036 37.9882 14.7523 38.1394C14.6011 38.2906 14.5161 38.4958 14.5161 38.7097C14.5161 38.9235 14.6011 39.1287 14.7523 39.2799C14.9036 39.4311 15.1087 39.5161 15.3226 39.5161H21.7742C21.9881 39.5161 22.1932 39.4311 22.3444 39.2799C22.4957 39.1287 22.5806 38.9235 22.5806 38.7097C22.5806 38.4958 22.4957 38.2906 22.3444 38.1394C22.1932 37.9882 21.9881 37.9032 21.7742 37.9032Z" fill="url(#paint16_linear)"/>
<path d="M21.7742 40.3226H15.3226C15.1087 40.3226 14.9036 40.4075 14.7523 40.5588C14.6011 40.71 14.5161 40.9151 14.5161 41.129C14.5161 41.3429 14.6011 41.548 14.7523 41.6993C14.9036 41.8505 15.1087 41.9355 15.3226 41.9355H21.7742C21.9881 41.9355 22.1932 41.8505 22.3444 41.6993C22.4957 41.548 22.5806 41.3429 22.5806 41.129C22.5806 40.9151 22.4957 40.71 22.3444 40.5588C22.1932 40.4075 21.9881 40.3226 21.7742 40.3226Z" fill="url(#paint17_linear)"/>
<path d="M32.258 35.4838H25.8064C25.5926 35.4838 25.3874 35.5688 25.2362 35.7201C25.0849 35.8713 25 36.0764 25 36.2903C25 36.5042 25.0849 36.7093 25.2362 36.8605C25.3874 37.0118 25.5926 37.0967 25.8064 37.0967H32.258C32.4719 37.0967 32.6771 37.0118 32.8283 36.8605C32.9795 36.7093 33.0645 36.5042 33.0645 36.2903C33.0645 36.0764 32.9795 35.8713 32.8283 35.7201C32.6771 35.5688 32.4719 35.4838 32.258 35.4838Z" fill="url(#paint18_linear)"/>
<path d="M32.258 39.5161C32.4719 39.5161 32.6771 39.4311 32.8283 39.2799C32.9795 39.1287 33.0645 38.9235 33.0645 38.7097C33.0645 38.4958 32.9795 38.2906 32.8283 38.1394C32.6771 37.9882 32.4719 37.9032 32.258 37.9032H25.8064C25.5926 37.9032 25.3874 37.9882 25.2362 38.1394C25.0849 38.2906 25 38.4958 25 38.7097C25 38.9235 25.0849 39.1287 25.2362 39.2799C25.3874 39.4311 25.5926 39.5161 25.8064 39.5161H32.258Z" fill="url(#paint19_linear)"/>
<defs>
<linearGradient id="paint0_linear" x1="23.3871" y1="0" x2="23.3871" y2="50" gradientUnits="userSpaceOnUse">
<stop stop-color="#018AD2"/>
<stop offset="1" stop-color="#005F92"/>
</linearGradient>
<linearGradient id="paint1_linear" x1="23.3871" y1="0" x2="23.3871" y2="50" gradientUnits="userSpaceOnUse">
<stop stop-color="#018AD2"/>
<stop offset="1" stop-color="#005F92"/>
</linearGradient>
<linearGradient id="paint2_linear" x1="23.3871" y1="0" x2="23.3871" y2="50" gradientUnits="userSpaceOnUse">
<stop stop-color="#018AD2"/>
<stop offset="1" stop-color="#005F92"/>
</linearGradient>
<linearGradient id="paint3_linear" x1="23.3871" y1="0" x2="23.3871" y2="50" gradientUnits="userSpaceOnUse">
<stop stop-color="#018AD2"/>
<stop offset="1" stop-color="#005F92"/>
</linearGradient>
<linearGradient id="paint4_linear" x1="23.3871" y1="0" x2="23.3871" y2="50" gradientUnits="userSpaceOnUse">
<stop stop-color="#018AD2"/>
<stop offset="1" stop-color="#005F92"/>
</linearGradient>
<linearGradient id="paint5_linear" x1="23.3871" y1="0" x2="23.3871" y2="50" gradientUnits="userSpaceOnUse">
<stop stop-color="#018AD2"/>
<stop offset="1" stop-color="#005F92"/>
</linearGradient>
<linearGradient id="paint6_linear" x1="23.3871" y1="0" x2="23.3871" y2="50" gradientUnits="userSpaceOnUse">
<stop stop-color="#018AD2"/>
<stop offset="1" stop-color="#005F92"/>
</linearGradient>
<linearGradient id="paint7_linear" x1="23.3871" y1="0" x2="23.3871" y2="50" gradientUnits="userSpaceOnUse">
<stop stop-color="#018AD2"/>
<stop offset="1" stop-color="#005F92"/>
</linearGradient>
<linearGradient id="paint8_linear" x1="23.3871" y1="0" x2="23.3871" y2="50" gradientUnits="userSpaceOnUse">
<stop stop-color="#018AD2"/>
<stop offset="1" stop-color="#005F92"/>
</linearGradient>
<linearGradient id="paint9_linear" x1="23.3871" y1="0" x2="23.3871" y2="50" gradientUnits="userSpaceOnUse">
<stop stop-color="#018AD2"/>
<stop offset="1" stop-color="#005F92"/>
</linearGradient>
<linearGradient id="paint10_linear" x1="23.3871" y1="0" x2="23.3871" y2="50" gradientUnits="userSpaceOnUse">
<stop stop-color="#018AD2"/>
<stop offset="1" stop-color="#005F92"/>
</linearGradient>
<linearGradient id="paint11_linear" x1="23.3871" y1="0" x2="23.3871" y2="50" gradientUnits="userSpaceOnUse">
<stop stop-color="#018AD2"/>
<stop offset="1" stop-color="#005F92"/>
</linearGradient>
<linearGradient id="paint12_linear" x1="23.3871" y1="0" x2="23.3871" y2="50" gradientUnits="userSpaceOnUse">
<stop stop-color="#018AD2"/>
<stop offset="1" stop-color="#005F92"/>
</linearGradient>
<linearGradient id="paint13_linear" x1="23.3871" y1="0" x2="23.3871" y2="50" gradientUnits="userSpaceOnUse">
<stop stop-color="#018AD2"/>
<stop offset="1" stop-color="#005F92"/>
</linearGradient>
<linearGradient id="paint14_linear" x1="23.3871" y1="0" x2="23.3871" y2="50" gradientUnits="userSpaceOnUse">
<stop stop-color="#018AD2"/>
<stop offset="1" stop-color="#005F92"/>
</linearGradient>
<linearGradient id="paint15_linear" x1="23.3871" y1="0" x2="23.3871" y2="50" gradientUnits="userSpaceOnUse">
<stop stop-color="#018AD2"/>
<stop offset="1" stop-color="#005F92"/>
</linearGradient>
<linearGradient id="paint16_linear" x1="23.3871" y1="0" x2="23.3871" y2="50" gradientUnits="userSpaceOnUse">
<stop stop-color="#018AD2"/>
<stop offset="1" stop-color="#005F92"/>
</linearGradient>
<linearGradient id="paint17_linear" x1="23.3871" y1="0" x2="23.3871" y2="50" gradientUnits="userSpaceOnUse">
<stop stop-color="#018AD2"/>
<stop offset="1" stop-color="#005F92"/>
</linearGradient>
<linearGradient id="paint18_linear" x1="23.3871" y1="0" x2="23.3871" y2="50" gradientUnits="userSpaceOnUse">
<stop stop-color="#018AD2"/>
<stop offset="1" stop-color="#005F92"/>
</linearGradient>
<linearGradient id="paint19_linear" x1="23.3871" y1="0" x2="23.3871" y2="50" gradientUnits="userSpaceOnUse">
<stop stop-color="#018AD2"/>
<stop offset="1" stop-color="#005F92"/>
</linearGradient>
</defs>
</svg>
