<svg width="50" height="50" viewBox="0 0 50 50" fill="none" xmlns="http://www.w3.org/2000/svg">
<path d="M45.4643 40.8575C46.2633 40.1204 46.7732 39.0738 46.7732 37.9035V36.2906C46.7732 34.0674 44.9642 32.2584 42.741 32.2584C40.7942 32.2584 39.1652 33.6465 38.79 35.4842H36.1411C35.8072 34.5478 34.92 33.8713 33.8703 33.8713C32.8201 33.8713 31.9329 34.5478 31.599 35.4842H28.9501C28.6284 33.9067 27.3829 32.6617 25.8059 32.3399V30.531C27.1935 30.1707 28.2252 28.9189 28.2252 27.4198H29.0316C29.4774 27.4198 29.8381 27.0595 29.8381 26.6134V24.1941H31.4509V22.5812H29.8381V22.5726C29.8381 21.0298 30.5693 19.5134 31.8443 18.4152C34.1565 16.4207 35.4831 13.5305 35.4831 10.4847C35.4831 7.6043 34.3384 4.91881 32.2605 2.9228C30.1838 0.926798 27.4389 -0.115109 24.5671 0.0101089C19.1237 0.229437 14.6147 4.84281 14.5174 10.2937C14.4615 13.3789 15.7625 16.3176 18.0865 18.3565C19.3655 19.4772 20.1089 21.0105 20.1526 22.5812H18.548V24.1941H20.1609V26.6134C20.1609 27.0595 20.5212 27.4198 20.9673 27.4198H21.7737C21.7737 28.9189 22.805 30.1707 24.193 30.531V32.3399C22.6156 32.6617 21.3705 33.9067 21.0484 35.4842H18.3995C18.0656 34.5478 17.1785 33.8713 16.1287 33.8713C15.0785 33.8713 14.1914 34.5478 13.8574 35.4842H11.2086C10.8333 33.6465 9.20509 32.2584 7.25791 32.2584C5.03431 32.2584 3.22574 34.0674 3.22574 36.2906V37.9035C3.22574 39.0738 3.73527 40.1204 4.53423 40.8575C1.87866 41.9372 0 44.542 0 47.5807V49.1936C0 49.6397 0.360297 50 0.806435 50H13.7094C14.1551 50 14.5158 49.6397 14.5158 49.1936V47.5807C14.5158 44.542 12.6368 41.9372 9.9812 40.8575C10.7802 40.1204 11.2901 39.0738 11.2901 37.9035V37.097H13.8574C14.1914 38.0334 15.0785 38.7099 16.1287 38.7099C17.1785 38.7099 18.0656 38.0334 18.3995 37.097H20.9673V37.9035C20.9673 39.0738 21.4768 40.1204 22.2758 40.8575C19.6202 41.9372 17.7416 44.542 17.7416 47.5807V49.1936C17.7416 49.6397 18.1019 50 18.548 50H31.4509C31.8967 50 32.2574 49.6397 32.2574 49.1936V47.5807C32.2574 44.542 30.3783 41.9372 27.7228 40.8575C28.5217 40.1204 29.0316 39.0738 29.0316 37.9035V37.097H31.599C31.9329 38.0334 32.8201 38.7099 33.8703 38.7099C34.92 38.7099 35.8072 38.0334 36.1411 37.097H38.7089V37.9035C38.7089 39.0738 39.2184 40.1204 40.0173 40.8575C37.3618 41.9372 35.4831 44.542 35.4831 47.5807V49.1936C35.4831 49.6397 35.8434 50 36.2896 50H49.1925C49.6383 50 49.9989 49.6397 49.9989 49.1936V47.5807C49.9989 44.542 48.1199 41.9372 45.4643 40.8575ZM12.903 47.5807V48.3871H11.2901V46.7743H9.67721V48.3871H4.83861V46.7743H3.22574V48.3871H1.61287V47.5807C1.61287 44.4688 4.14558 41.9357 7.25791 41.9357C10.3699 41.9357 12.903 44.4688 12.903 47.5807ZM4.83861 37.9035V36.2906C4.83861 34.9569 5.92383 33.8713 7.25791 33.8713C8.5916 33.8713 9.67721 34.9569 9.67721 36.2906V37.9035C9.67721 39.2372 8.5916 40.3228 7.25791 40.3228C5.92383 40.3228 4.83861 39.2372 4.83861 37.9035ZM16.1287 37.097C15.6833 37.097 15.3223 36.736 15.3223 36.2906C15.3223 35.8457 15.6833 35.4842 16.1287 35.4842C16.5736 35.4842 16.9351 35.8457 16.9351 36.2906C16.9351 36.736 16.5736 37.097 16.1287 37.097ZM19.1493 17.1433C17.1832 15.4186 16.0826 12.9324 16.1303 10.3217C16.2134 5.70989 20.027 1.80687 24.6317 1.62101C27.0919 1.53162 29.3864 2.3987 31.1426 4.08638C32.9016 5.77446 33.8703 8.04768 33.8703 10.4847C33.8703 13.0611 32.7476 15.5064 30.791 17.1925C29.1604 18.5991 28.2252 20.5596 28.2252 22.5726V22.5812H21.7655C21.7218 20.5466 20.7783 18.5707 19.1493 17.1433ZM28.2252 24.1941V25.807H21.7737V24.1941H28.2252ZM23.3866 27.4198H26.6123C26.6123 28.3093 25.8886 29.0327 24.9995 29.0327C24.11 29.0327 23.3866 28.3093 23.3866 27.4198ZM30.6445 47.5807V48.3871H29.0316V46.7743H27.4188V48.3871H22.5802V46.7743H20.9673V48.3871H19.3544V47.5807C19.3544 44.4688 21.8871 41.9357 24.9995 41.9357C28.1114 41.9357 30.6445 44.4688 30.6445 47.5807ZM22.5802 37.9035V36.2906C22.5802 34.9569 23.6654 33.8713 24.9995 33.8713C26.3332 33.8713 27.4188 34.9569 27.4188 36.2906V37.9035C27.4188 39.2372 26.3332 40.3228 24.9995 40.3228C23.6654 40.3228 22.5802 39.2372 22.5802 37.9035ZM33.8703 37.097C33.4249 37.097 33.0638 36.736 33.0638 36.2906C33.0638 35.8457 33.4249 35.4842 33.8703 35.4842C34.3152 35.4842 34.6767 35.8457 34.6767 36.2906C34.6767 36.736 34.3152 37.097 33.8703 37.097ZM40.3217 37.9035V36.2906C40.3217 34.9569 41.4069 33.8713 42.741 33.8713C44.0747 33.8713 45.1603 34.9569 45.1603 36.2906V37.9035C45.1603 39.2372 44.0747 40.3228 42.741 40.3228C41.4069 40.3228 40.3217 39.2372 40.3217 37.9035ZM48.3861 48.3871H46.7732V46.7743H45.1603V48.3871H40.3217V46.7743H38.7089V48.3871H37.096V47.5807C37.096 44.4688 39.6287 41.9357 42.741 41.9357C45.853 41.9357 48.3861 44.4688 48.3861 47.5807V48.3871Z" fill="url(#paint0_linear)"/>
<path d="M23.3866 19.3555H26.6124V20.9684H23.3866V19.3555Z" fill="url(#paint1_linear)"/>
<path d="M24.193 14.4354V16.1297H25.8059V14.4354C26.3194 14.3306 26.797 14.1259 27.2195 13.8451L28.4615 15.087L29.6014 13.9467L28.3599 12.7048C28.6402 12.2822 28.845 11.805 28.9501 11.2911H30.6445V9.67827H28.9501C28.845 9.1644 28.6402 8.68716 28.3599 8.26464L29.6014 7.0227L28.4615 5.88235L27.2195 7.1243C26.797 6.84354 26.3194 6.63878 25.8059 6.53404V4.83966H24.193V6.53404C23.6792 6.63878 23.2019 6.84354 22.779 7.1243L21.5371 5.88235L20.3971 7.0227L21.6391 8.26464C21.3583 8.68716 21.1536 9.1644 21.0484 9.67827H19.3544V11.2911H21.0484C21.1536 11.805 21.3583 12.2822 21.6391 12.7048L20.3971 13.9467L21.5371 15.087L22.779 13.8451C23.2019 14.1259 23.6792 14.3306 24.193 14.4354ZM24.9995 8.0654C26.3332 8.0654 27.4188 9.15101 27.4188 10.4847C27.4188 11.8184 26.3332 12.904 24.9995 12.904C23.6654 12.904 22.5802 11.8184 22.5802 10.4847C22.5802 9.15101 23.6654 8.0654 24.9995 8.0654Z" fill="url(#paint2_linear)"/>
<defs>
<linearGradient id="paint0_linear" x1="24.9995" y1="0" x2="24.9995" y2="50" gradientUnits="userSpaceOnUse">
<stop stop-color="#018AD2"/>
<stop offset="1" stop-color="#005F92"/>
</linearGradient>
<linearGradient id="paint1_linear" x1="24.9995" y1="0" x2="24.9995" y2="50" gradientUnits="userSpaceOnUse">
<stop stop-color="#018AD2"/>
<stop offset="1" stop-color="#005F92"/>
</linearGradient>
<linearGradient id="paint2_linear" x1="24.9995" y1="0" x2="24.9995" y2="50" gradientUnits="userSpaceOnUse">
<stop stop-color="#018AD2"/>
<stop offset="1" stop-color="#005F92"/>
</linearGradient>
</defs>
</svg>
