<svg width="50" height="50" viewBox="0 0 50 50" fill="none" xmlns="http://www.w3.org/2000/svg">
<path d="M23.024 28.4729H20.0939C20.2202 28.1403 20.2896 27.7805 20.2896 27.4044V16.2006C20.2896 12.492 17.5861 9.40475 14.0465 8.80165C14.7652 7.92847 15.197 6.81152 15.197 5.5954V5.05219C15.197 2.26631 12.9307 0 10.1452 0C7.35931 0 5.093 2.26631 5.093 5.05219V5.5954C5.093 6.81152 5.52521 7.92847 6.24352 8.80127C2.70386 9.40437 0 12.492 0 16.2006V27.4044C0 29.0707 1.35574 30.426 3.02162 30.426C3.39813 30.426 3.75786 30.3566 4.0905 30.2303V47.9435C4.0905 49.0776 5.01289 50 6.14662 50H9.06525C9.46159 50 9.83086 49.8852 10.1452 49.6902C10.4595 49.8852 10.8288 50 11.2247 50H14.1434C15.2775 50 16.1999 49.0776 16.1999 47.9435V38.2385H23.024C23.563 38.2385 24.0005 37.8014 24.0005 37.262V29.4495C24.0005 28.9101 23.5634 28.4729 23.024 28.4729ZM7.04613 5.05219C7.04613 3.3432 8.43658 1.95312 10.1452 1.95312C11.8538 1.95312 13.2439 3.3432 13.2439 5.05219V5.5954C13.2439 7.28416 11.8862 8.66051 10.2055 8.69293H10.1505C10.1486 8.69293 10.1467 8.69293 10.1448 8.69293C10.1429 8.69293 10.141 8.69293 10.1391 8.69293H10.0849C8.40416 8.66051 7.04613 7.28416 7.04613 5.5954V5.05219ZM3.02162 28.4729C2.43263 28.4729 1.95312 27.9934 1.95312 27.4044V16.2006C1.95312 13.1378 4.44489 10.6461 7.50809 10.6461H9.16862V13.8672C9.16862 14.4066 9.60579 14.8438 10.1452 14.8438C10.6846 14.8438 11.1217 14.4066 11.1217 13.8672V10.6461H12.7819C15.8447 10.6461 18.3365 13.1378 18.3365 16.2006V27.4044C18.3365 27.9934 17.8574 28.4729 17.268 28.4729C16.6821 28.4729 16.2056 27.9991 16.1999 27.4147V25.0126C16.1999 25.0088 16.1995 25.0053 16.1995 25.0019V18.7283C16.1995 18.1892 15.7619 17.7517 15.2229 17.7517C14.6835 17.7517 14.2464 18.1892 14.2464 18.7283V24.036H6.04362V18.7283C6.04362 18.1892 5.60646 17.7517 5.06706 17.7517C4.52766 17.7517 4.0905 18.1892 4.0905 18.7283V27.4044C4.0905 27.9934 3.61099 28.4729 3.02162 28.4729ZM14.1434 48.0469H11.2247C11.1679 48.0469 11.1217 48.0007 11.1217 47.9435V32.0885C11.1217 31.5491 10.6846 31.1119 10.1452 31.1119C9.60579 31.1119 9.16862 31.5491 9.16862 32.0885V47.9435C9.16862 48.0007 9.12209 48.0469 9.06525 48.0469H6.14662C6.08978 48.0469 6.04362 48.0007 6.04362 47.9435V25.9892H14.2464L14.2467 47.9435C14.2467 48.0007 14.2002 48.0469 14.1434 48.0469ZM22.0474 36.2854H16.1999V30.426H22.0474V36.2854Z" fill="url(#paint0_linear)"/>
<path d="M32.2266 6.64062H28.3203C27.7809 6.64062 27.3438 7.07779 27.3438 7.61719V12.5C27.3438 13.0394 27.7809 13.4766 28.3203 13.4766C28.8597 13.4766 29.2969 13.0394 29.2969 12.5V8.59375H32.2266C32.766 8.59375 33.2031 8.15659 33.2031 7.61719C33.2031 7.07779 32.766 6.64062 32.2266 6.64062Z" fill="url(#paint1_linear)"/>
<path d="M32.2266 25.9766C32.766 25.9766 33.2031 25.5394 33.2031 25C33.2031 24.4606 32.766 24.0234 32.2266 24.0234H29.2969V20.3125C29.2969 19.7731 28.8597 19.3359 28.3203 19.3359C27.7809 19.3359 27.3438 19.7731 27.3438 20.3125V42.3828C27.3438 42.9222 27.7809 43.3594 28.3203 43.3594H32.2266C32.766 43.3594 33.2031 42.9222 33.2031 42.3828C33.2031 41.8434 32.766 41.4062 32.2266 41.4062H29.2969V25.9766H32.2266Z" fill="url(#paint2_linear)"/>
<path d="M28.3203 17.3828C28.577 17.3828 28.8292 17.2783 29.0108 17.0967C29.1924 16.9151 29.2969 16.663 29.2969 16.4062C29.2969 16.1495 29.1924 15.8974 29.0108 15.7158C28.8292 15.5342 28.577 15.4297 28.3203 15.4297C28.0636 15.4297 27.8114 15.5342 27.6299 15.7158C27.4483 15.8974 27.3438 16.1495 27.3438 16.4062C27.3438 16.663 27.4483 16.9151 27.6299 17.0967C27.8114 17.2783 28.0636 17.3828 28.3203 17.3828Z" fill="url(#paint3_linear)"/>
<path d="M47.0703 17.7734H38.4766C36.861 17.7734 35.5469 19.0876 35.5469 20.7031V29.2969C35.5469 30.9124 36.861 32.2266 38.4766 32.2266H47.0703C48.6858 32.2266 50 30.9124 50 29.2969V20.7031C50 19.0876 48.6858 17.7734 47.0703 17.7734ZM48.0469 29.2969C48.0469 29.8355 47.6089 30.2734 47.0703 30.2734H38.4766C37.9379 30.2734 37.5 29.8355 37.5 29.2969V20.7031C37.5 20.1645 37.9379 19.7266 38.4766 19.7266H47.0703C47.6089 19.7266 48.0469 20.1645 48.0469 20.7031V29.2969Z" fill="url(#paint4_linear)"/>
<path d="M47.0703 35.5469H38.4766C36.861 35.5469 35.5469 36.861 35.5469 38.4766V47.0703C35.5469 48.6858 36.861 50 38.4766 50H47.0703C48.6858 50 50 48.6858 50 47.0703V38.4766C50 36.861 48.6858 35.5469 47.0703 35.5469ZM48.0469 47.0703C48.0469 47.6089 47.6089 48.0469 47.0703 48.0469H38.4766C37.9379 48.0469 37.5 47.6089 37.5 47.0703V38.4766C37.5 37.9379 37.9379 37.5 38.4766 37.5H47.0703C47.6089 37.5 48.0469 37.9379 48.0469 38.4766V47.0703Z" fill="url(#paint5_linear)"/>
<path d="M47.0703 0H38.4766C36.861 0 35.5469 1.31416 35.5469 2.92969V11.5234C35.5469 13.139 36.861 14.4531 38.4766 14.4531H47.0703C48.6858 14.4531 50 13.139 50 11.5234V2.92969C50 1.31416 48.6858 0 47.0703 0ZM48.0469 11.5234C48.0469 12.0621 47.6089 12.5 47.0703 12.5H38.4766C37.9379 12.5 37.5 12.0621 37.5 11.5234V2.92969C37.5 2.39105 37.9379 1.95312 38.4766 1.95312H47.0703C47.6089 1.95312 48.0469 2.39105 48.0469 2.92969V11.5234Z" fill="url(#paint6_linear)"/>
<defs>
<linearGradient id="paint0_linear" x1="25" y1="0" x2="25" y2="50" gradientUnits="userSpaceOnUse">
<stop stop-color="#018AD2"/>
<stop offset="1" stop-color="#005F92"/>
</linearGradient>
<linearGradient id="paint1_linear" x1="25" y1="0" x2="25" y2="50" gradientUnits="userSpaceOnUse">
<stop stop-color="#018AD2"/>
<stop offset="1" stop-color="#005F92"/>
</linearGradient>
<linearGradient id="paint2_linear" x1="25" y1="0" x2="25" y2="50" gradientUnits="userSpaceOnUse">
<stop stop-color="#018AD2"/>
<stop offset="1" stop-color="#005F92"/>
</linearGradient>
<linearGradient id="paint3_linear" x1="25" y1="0" x2="25" y2="50" gradientUnits="userSpaceOnUse">
<stop stop-color="#018AD2"/>
<stop offset="1" stop-color="#005F92"/>
</linearGradient>
<linearGradient id="paint4_linear" x1="25" y1="0" x2="25" y2="50" gradientUnits="userSpaceOnUse">
<stop stop-color="#018AD2"/>
<stop offset="1" stop-color="#005F92"/>
</linearGradient>
<linearGradient id="paint5_linear" x1="25" y1="0" x2="25" y2="50" gradientUnits="userSpaceOnUse">
<stop stop-color="#018AD2"/>
<stop offset="1" stop-color="#005F92"/>
</linearGradient>
<linearGradient id="paint6_linear" x1="25" y1="0" x2="25" y2="50" gradientUnits="userSpaceOnUse">
<stop stop-color="#018AD2"/>
<stop offset="1" stop-color="#005F92"/>
</linearGradient>
</defs>
</svg>
