<svg width="768" height="1410" viewBox="0 0 768 1410" fill="none" xmlns="http://www.w3.org/2000/svg">
<path d="M1171.5 1410C1364 1410 1490.5 1352.5 1685 1219L1685 1076L-235 1076L-235 1389C-140.333 1349.33 87.5 1318.5 255 1318.5C465.652 1318.5 885.526 1410 1171.5 1410Z" fill="#FEF1D3"/>
<path d="M278.5 0.000199249C86 0.000232908 -40.5 57.5009 -235 191.001L-235 334.001L1685 334.001L1685 21.0007C1590.33 60.6673 1362.5 91.5009 1195 91.501C984.348 91.501 564.474 0.000149246 278.5 0.000199249Z" fill="#FEF1D3"/>
<path fill-rule="evenodd" clip-rule="evenodd" d="M-93.5548 132C30.4087 64.8485 136.497 39 278.5 39C432.393 39 625.063 59.706 803.037 78.8328C955.785 95.2485 1097.71 110.501 1195 110.501C1362.5 110.501 1590.33 79.6671 1685 40.0005V132V353.001V1185C1490.5 1318.5 1364 1366 1171.5 1366C1017.61 1366 824.937 1345.29 646.963 1326.17C494.215 1309.75 352.292 1294.5 255 1294.5C87.5 1294.5 -140.333 1325.33 -235 1365L-235 353.001L-235 220.001L-235 132L-93.5548 132Z" fill="#FFFDE7"/>
</svg>
