<svg width="375" height="1587" viewBox="0 0 375 1587" fill="none" xmlns="http://www.w3.org/2000/svg">
<path d="M-598.5 1587C-791 1587 -917.5 1529.5 -1112 1396L-1112 1253L808 1253L808 1566C713.333 1526.33 485.5 1495.5 318 1495.5C107.348 1495.5 -312.526 1587 -598.5 1587Z" fill="#FEF1D3"/>
<path d="M294.5 0.000138214C487 0.000171873 613.5 57.5009 808 191.001L808 334.001L-1112 334.001L-1112 21.0007C-1017.33 60.6673 -789.5 91.5009 -622 91.5009C-411.348 91.5009 8.52576 8.82107e-05 294.5 0.000138214Z" fill="#FEF1D3"/>
<path fill-rule="evenodd" clip-rule="evenodd" d="M808 221.004C613.5 87.5037 487 40.003 294.5 40.0029C140.607 40.0029 -52.0632 60.709 -230.037 79.8357C-382.785 96.2514 -524.708 111.504 -622 111.504C-789.5 111.504 -1017.33 80.6701 -1112 41.0034V241V354.004V1364C-917.5 1497.5 -791 1545 -598.5 1545C-444.606 1545 -251.937 1524.3 -73.963 1505.17C78.785 1488.75 220.708 1473.5 318 1473.5C485.5 1473.5 713.333 1504.33 808 1544L808 354.004L808 221.004Z" fill="#FFFDE7"/>
</svg>
