<svg width="80" height="80" viewBox="0 0 80 80" fill="none" xmlns="http://www.w3.org/2000/svg">
<path d="M17 14.5C16.6 14.9 14.8333 17.6667 14 19L16.5 22.5L20.5 25L22 26L24 25H27.5L31.5 26L33 24L36.5 22L37.5 19L36.5 16L34.5 13L35.5 11.5L37.5 9L42.5 6.5L48.5 5L47.5 4L44.5 3L38.5 1.5L31.5 3L24 6.5L19.5 10.5C18.8333 11.6667 17.4 14.1 17 14.5Z" fill="#FFD493"/>
<path d="M1.5 77.5V71.5H73.5V77.5H1.5Z" fill="#FFD493"/>
<path d="M30.8184 27.5007C30.573 27.5007 30.328 27.4272 30.1162 27.2775C30.0972 27.264 28.1816 25.9404 25.2425 25.6738C22.9616 25.4628 22.2692 26.6626 22.2061 26.7912C22.0383 27.1305 21.7164 27.3881 21.3462 27.4622C20.9719 27.5388 20.5823 27.4473 20.2999 27.1981L12.7092 20.518C12.4573 20.2962 12.3089 19.9815 12.2975 19.6449C12.2868 19.3112 12.4157 18.9854 12.651 18.7483C12.6801 18.7196 15.5783 15.7777 17.8776 10.8908C19.8223 6.76021 29.4044 0.634277 38.6607 0.634277C43.3018 0.634277 47.273 2.11455 50.4647 5.03594C50.8325 5.37213 50.9569 5.90067 50.7777 6.36649C50.5996 6.83334 50.1525 7.14284 49.6534 7.14631L48.135 7.15844C48.0307 7.15463 47.8813 7.14631 47.6276 7.14631C45.6978 7.14631 39.3154 7.57642 36.1379 12.9558L39.1927 19.0637C39.4346 19.5482 39.3261 20.1361 38.9268 20.5031L31.6398 27.1825C31.4073 27.3926 31.1137 27.5007 30.8184 27.5007ZM24.7164 23.2193C24.9517 23.2193 25.2009 23.2307 25.4619 23.254C27.8364 23.4699 29.6581 24.2483 30.6604 24.7814L36.6082 19.3299L33.6774 13.4694C33.5024 13.1218 33.5059 12.7115 33.6857 12.3663C36.7416 6.49056 42.6887 5.1011 45.9719 4.79748C43.8272 3.64508 41.3807 3.06351 38.6582 3.06351C30.188 3.06351 21.5379 8.81166 20.0735 11.9257C18.3548 15.5777 16.3529 18.1941 15.2345 19.5067L20.9455 24.5325C21.7299 23.8355 22.9582 23.2193 24.7164 23.2193Z" fill="#FFA927"/>
<path d="M15.03 35.3879C14.7438 35.3879 14.463 35.286 14.2429 35.0992L6.04476 28.1155C5.79695 27.9027 5.64375 27.6012 5.62053 27.2774C5.59627 26.952 5.70475 26.6311 5.92068 26.3881L10.4752 21.226C10.6894 20.9848 10.9888 20.8375 11.3108 20.8167C11.6352 20.799 11.9482 20.9058 12.1904 21.1193L20.085 28.1027C20.5754 28.5349 20.634 29.2797 20.2171 29.785L15.9662 34.9467C15.7599 35.1984 15.4608 35.3561 15.1354 35.3838C15.1018 35.3869 15.0657 35.3879 15.03 35.3879ZM8.55994 27.0657L14.8768 32.4475L17.5979 29.1438L11.4921 23.7429L8.55994 27.0657Z" fill="#FFA927"/>
<path d="M69.9516 68.7719C69.2782 68.7719 68.6789 68.6246 68.1712 68.3307C68.0682 68.2715 67.9757 68.1966 67.8925 68.1089L31.9805 29.7198C31.7545 29.4797 31.6384 29.1577 31.6537 28.8284C31.671 28.4992 31.8204 28.1921 32.0696 27.9744L40.4196 20.6871C40.8951 20.2733 41.6115 20.2927 42.0648 20.7332L58.6899 36.9545L79.4463 56.867C79.5638 56.9796 79.656 57.1138 79.7205 57.2635C80.6064 59.3167 79.3361 62.5642 76.5572 65.3442C74.4409 67.4577 71.9098 68.7719 69.9516 68.7719ZM69.5107 66.281C70.3671 66.5704 72.6598 65.8041 74.8385 63.6241C76.9544 61.5085 77.7304 59.3458 77.5453 58.4076L57.0024 38.6999L41.1713 23.2549L34.6139 28.9788L69.5107 66.281Z" fill="#FFA927"/>
<path d="M8.04604 55.0748C7.80343 55.0748 7.56151 55.0027 7.35287 54.8592L3.861 52.43C3.42638 52.1264 3.23645 51.576 3.39553 51.0682C3.55496 50.5629 4.02459 50.2167 4.55417 50.2167H11.5379C12.0685 50.2167 12.5378 50.5629 12.6965 51.0682C12.8553 51.576 12.6678 52.1264 12.2318 52.43L8.73991 54.8592C8.53057 55.0027 8.28934 55.0748 8.04604 55.0748Z" fill="#FFA927"/>
<path d="M8.04647 72.5339C7.37513 72.5339 6.83203 71.9922 6.83203 71.3194V53.8604C6.83203 53.1891 7.37513 52.646 8.04647 52.646C8.71816 52.646 9.26092 53.1891 9.26092 53.8604V71.3194C9.26126 71.9922 8.71851 72.5339 8.04647 72.5339Z" fill="#FFA927"/>
<path d="M73.48 79.3658H1.21444C0.543102 79.3658 0 78.8241 0 78.1514V71.3194C0 70.6481 0.543102 70.105 1.21444 70.105H73.48C74.1517 70.105 74.6944 70.6481 74.6944 71.3194V78.1514C74.6944 78.8241 74.1513 79.3658 73.48 79.3658ZM2.42923 76.9366H72.2656V72.5339H2.42923V76.9366Z" fill="#FFA927"/>
</svg>
