<svg width="80" height="80" viewBox="0 0 80 80" fill="none" xmlns="http://www.w3.org/2000/svg">
<path fill-rule="evenodd" clip-rule="evenodd" d="M9.49932 18L14.4993 20L19.4993 18L20.9993 15L21.9993 12H25.9993V14L27.4993 17L29.9993 18L32.9993 19H35.4993L38.4993 17L41.4993 20L39.9993 22.5L38.4993 25L39.9993 28.5L41.4993 31L43.9993 32.5H46.9993V35L45.4993 36.5L42.9993 37.5L41.4993 39L39.9993 41L38.4993 44L39.9993 48L41.4993 49.5L39.9993 50.5L38.4993 52L36.4993 50.5H32.9993H29.9993L27.4993 53.5L25.9993 56L23.9993 57.5L20.9993 53.5L17.9993 50.5L14.4993 49.5L10.4993 50.5H8.76367L7 49.5L8.76367 46.5V42.5L7 39L4 36.5H1.5V33.5L6 31L8.76367 27.5V25V22.5L7 20L9.49932 18ZM24 42C27.866 42 31 38.866 31 35C31 31.134 27.866 28 24 28C20.134 28 17 31.134 17 35C17 38.866 20.134 42 24 42Z" fill="#FFD493"/>
<path fill-rule="evenodd" clip-rule="evenodd" d="M53.2744 5.9561L56.5711 7.2748L59.8679 5.9561L60.8569 3.97805L61.5162 2H64.1536V3.3187L65.1427 5.29675L66.791 5.9561L68.7691 6.61545H70.4175L72.3955 5.29675L74.3736 7.2748L73.3846 8.92318L72.3955 10.5716L73.3846 12.8793L74.3736 14.5277L76.0219 15.5167H78V17.1651L77.011 18.1541L75.3626 18.8134L74.3736 19.8025L73.3846 21.1212L72.3955 23.0992L73.3846 25.7366L74.3736 26.7256L73.3846 27.385L72.3955 28.374L71.0768 27.385H68.7691H66.791L65.1427 29.363L64.1536 31.0114L62.8349 32.0005L60.8569 29.363L58.8788 27.385L56.5711 26.7256L53.9337 27.385H52.7893L51.6264 26.7256L52.7893 24.7476V22.1102L51.6264 19.8025L49.6484 18.1541H48V16.176L50.9671 14.5277L52.7893 12.2199V10.5716V8.92318L51.6264 7.2748L53.2744 5.9561ZM62.836 21.7805C65.3851 21.7805 67.4515 19.7141 67.4515 17.1651C67.4515 14.616 65.3851 12.5496 62.836 12.5496C60.287 12.5496 58.2206 14.616 58.2206 17.1651C58.2206 19.7141 60.287 21.7805 62.836 21.7805Z" fill="#FFD493"/>
<path fill-rule="evenodd" clip-rule="evenodd" d="M48.5049 45.8791L52.5709 47.5055L56.6368 45.8791L57.8566 43.4396L58.6698 41H61.9225V42.6264L63.1423 45.0659L65.1753 45.8791L67.6148 46.6923H69.6478L72.0874 45.0659L74.5269 47.5055L73.3072 49.5385L72.0874 51.5714L73.3072 54.4176L74.5269 56.4506L76.5599 57.6703H78.9995V59.7033L77.7797 60.9231L75.7467 61.7363L74.5269 62.9561L73.3072 64.5824L72.0874 67.022L73.3072 70.2747L74.5269 71.4945L73.3072 72.3077L72.0874 73.5275L70.461 72.3077H67.6148H65.1753L63.1423 74.7473L61.9225 76.7802L60.2962 78L57.8566 74.7473L55.417 72.3077L52.5709 71.4945L49.3181 72.3077H47.9067L46.4725 71.4945L47.9067 69.055V65.8022L46.4725 62.9561L44.033 60.9231H42V58.4835L45.6593 56.4506L47.9067 53.6044V51.5714V49.5385L46.4725 47.5055L48.5049 45.8791ZM60.2966 65.3956C63.4404 65.3956 65.989 62.8471 65.989 59.7033C65.989 56.5596 63.4404 54.011 60.2966 54.011C57.1529 54.011 54.6043 56.5596 54.6043 59.7033C54.6043 62.8471 57.1529 65.3956 60.2966 65.3956Z" fill="#FFD493"/>
<path d="M46.8306 31.7786L45.9906 31.6733C43.8333 31.4027 42.0439 30.0439 41.3213 28.1253C41.1959 27.7947 41.0598 27.4653 40.9159 27.1386C40.0519 25.1974 40.3759 22.8853 41.7612 21.1053L42.1853 20.56C42.5973 20.028 42.5494 19.2733 42.0747 18.7986L39.8641 16.588C39.3881 16.1133 38.632 16.0666 38.1014 16.4786L37.5573 16.9013C35.7773 18.2866 33.4653 18.6107 31.5241 17.7466C31.1987 17.6013 30.8681 17.4666 30.5361 17.3413C28.6187 16.6199 27.2587 14.8307 26.9894 12.6719L26.8841 11.8319C26.8014 11.1639 26.2334 10.6639 25.5614 10.6639H22.4347C21.7627 10.6639 21.1947 11.1653 21.112 11.8319L21.0067 12.6719C20.7361 14.8293 19.3773 16.6186 17.46 17.3413C17.1267 17.4666 16.7973 17.6013 16.472 17.7466C14.5306 18.6066 12.2173 18.2852 10.4387 16.9013L9.89469 16.4772C9.36406 16.0625 8.60797 16.1105 8.13328 16.5866L5.92266 18.7972C5.44672 19.2732 5.39859 20.0278 5.81203 20.5586L6.23734 21.1039C7.62266 22.8853 7.94531 25.196 7.08266 27.1386C6.93734 27.4639 6.80266 27.7933 6.67734 28.1253C5.95469 30.0427 4.16531 31.4013 2.00797 31.6721L1.16797 31.7774C0.501406 31.86 0 32.428 0 33.1V36.2268C0 36.8988 0.501406 37.4668 1.16797 37.5494L2.00656 37.6547C4.16516 37.9253 5.95453 39.2841 6.67719 41.2027C6.8025 41.5333 6.93719 41.8627 7.0825 42.1894C7.94656 44.1308 7.6225 46.4427 6.23719 48.2227L5.81453 48.768C5.4025 49.3 5.44922 50.0547 5.92516 50.5294L8.13578 52.74C8.61172 53.2174 9.36641 53.2641 9.89719 52.8507L10.4412 52.428C12.2212 51.0427 14.5333 50.7186 16.4745 51.5827C16.8012 51.728 17.1305 51.8627 17.4625 51.988C19.3798 52.7094 20.7384 54.4986 21.0092 56.6574L21.1145 57.4974C21.1972 58.1653 21.7652 58.6653 22.4372 58.6653H25.5639C26.2372 58.6653 26.8039 58.1653 26.8866 57.4986L26.9919 56.6586C27.2612 54.5013 28.6213 52.7119 30.5386 51.9893C30.8719 51.8639 31.2013 51.7293 31.5266 51.5839C33.468 50.7213 35.7812 51.0425 37.5612 52.4293L38.1027 52.8519C38.6333 53.2639 39.388 53.216 39.8641 52.7413L42.0747 50.5307C42.5506 50.0547 42.5987 49.3 42.1853 48.7693L41.7612 48.2239C40.3759 46.4425 40.0519 44.1319 40.9159 42.1893C41.0612 41.8639 41.1959 41.5346 41.3213 41.2025C42.0439 39.2852 43.8333 37.9266 45.9906 37.6558L46.8306 37.5505C47.4986 37.4678 47.9986 36.8999 47.9986 36.2278V33.1011C47.9986 32.4294 47.4973 31.8614 46.8306 31.7786ZM45.3333 35.0574C42.3373 35.5453 39.8612 37.516 38.828 40.2627C38.7212 40.548 38.6053 40.8294 38.4813 41.108C37.2812 43.8066 37.6266 46.968 39.368 49.4694L38.8039 50.0335C36.3025 48.2921 33.1413 47.9468 30.4412 49.1468C30.1639 49.2708 29.8825 49.3853 29.5986 49.4921C26.8506 50.5268 24.8813 53.0014 24.3933 55.9988H23.608C23.1213 53.0014 21.1506 50.5268 18.4039 49.4921C18.1198 49.3853 17.8386 49.2707 17.5598 49.1468C14.8598 47.9453 11.6998 48.2921 9.19844 50.0335L8.63313 49.4694C10.3745 46.968 10.7211 43.8068 9.52109 41.1094C9.39703 40.8294 9.2825 40.548 9.17437 40.2641C8.13969 37.5174 5.665 35.5468 2.66766 35.0588V34.2747C5.665 33.7868 8.13969 31.8161 9.17437 29.0694C9.28109 28.7841 9.39703 28.5027 9.52109 28.2241C10.7197 25.5255 10.3744 22.3641 8.63313 19.8627L9.19719 19.2986C11.6986 21.04 14.8598 21.3853 17.5586 20.1853C17.8372 20.0613 18.1172 19.9468 18.4012 19.84C21.1492 18.8053 23.1198 16.3307 23.6066 13.3333H24.3919C24.8786 16.3293 26.8492 18.8053 29.5972 19.84C29.8813 19.9468 30.1625 20.0613 30.4412 20.1853C33.1398 21.3853 36.3013 21.0386 38.8027 19.2986L39.368 19.8627C37.6253 22.3641 37.28 25.5253 38.48 28.2227C38.6041 28.5027 38.72 28.7841 38.8267 29.068C39.8614 31.8147 42.3361 33.7853 45.3334 34.2733V35.0574H45.3333Z" fill="#FFA927"/>
<path d="M78.8328 57.3894L78.1407 57.3027C76.4514 57.0906 75.0501 56.0294 74.486 54.5333C74.382 54.2546 74.2687 53.98 74.1475 53.7053C73.4728 52.1867 73.7275 50.3747 74.8142 48.9774L75.1635 48.5294C75.5768 47.9988 75.5289 47.2427 75.0542 46.768L73.2328 44.948C72.7581 44.4721 72.0034 44.4253 71.4728 44.8374L71.0234 45.1867C69.6261 46.2735 67.814 46.5281 66.294 45.8535C66.0207 45.7321 65.7446 45.6202 65.4673 45.5149C63.97 44.9508 62.9087 43.5508 62.6979 41.8616L62.6112 41.1696C62.5286 40.5016 61.9606 40.0016 61.2886 40.0016H58.7139C58.0406 40.0016 57.4725 40.5016 57.3898 41.1696L57.3045 41.8616C57.0925 43.551 56.0312 44.9522 54.5339 45.5163C54.2565 45.6216 53.9818 45.7336 53.7086 45.8549C52.1872 46.5281 50.3765 46.2749 48.9779 45.1869L48.53 44.8389C47.9993 44.4269 47.2447 44.4763 46.77 44.9496L44.95 46.7696C44.474 47.2442 44.4259 48.0002 44.8394 48.531L45.1887 48.9789C46.2767 50.3763 46.5314 52.1883 45.8554 53.7083C45.7354 53.9816 45.6222 54.2563 45.5181 54.5336C44.9528 56.031 43.5528 57.0922 41.8622 57.3042L41.1701 57.391C40.5022 57.4736 40.0022 58.0416 40.0022 58.7136V61.2883C40.0022 61.9603 40.5036 62.5283 41.1701 62.611L41.8622 62.6977C43.5528 62.9097 44.9528 63.971 45.5169 65.4671C45.6209 65.7458 45.7342 66.0203 45.8554 66.295C46.5314 67.8136 46.2754 69.6256 45.1887 71.023L44.8394 71.471C44.4273 72.0016 44.474 72.7577 44.95 73.2324L46.77 75.0524C47.2459 75.5271 47.9993 75.575 48.53 75.163L48.9793 74.8136C50.3767 73.7269 52.1887 73.4722 53.7087 74.1469C53.9808 74.2683 54.2567 74.3802 54.534 74.4855C56.0314 75.0495 57.0926 76.4496 57.3047 78.1388L57.39 78.8308C57.474 79.4988 58.042 79.9988 58.714 79.9988H61.2887C61.9607 79.9988 62.5273 79.4988 62.6128 78.8321L62.6981 78.14C62.9101 76.4494 63.9714 75.048 65.4701 74.4841C65.7475 74.3788 66.0234 74.2667 66.2954 74.1455C67.814 73.4696 69.6261 73.7241 71.0248 74.8135L71.4728 75.1614C72.0034 75.5735 72.7581 75.5255 73.2328 75.0508L75.0542 73.2308C75.5289 72.7561 75.5768 72.0002 75.1635 71.4694L74.8142 71.0214C73.7275 69.6241 73.4715 67.8121 74.1475 66.2921C74.2689 66.0188 74.3821 65.7441 74.486 65.4667C75.0501 63.9694 76.4501 62.9081 78.1407 62.6961L78.8328 62.6094C79.4995 62.5267 79.9995 61.9588 79.9995 61.2867V58.7121C79.9995 58.04 79.4995 57.4721 78.8328 57.3894ZM77.3328 60.1241C74.8714 60.5921 72.8487 62.2455 71.9887 64.5267C71.9034 64.7561 71.8101 64.9841 71.7101 65.2081C70.7142 67.4481 70.9675 70.0588 72.3514 72.1602L72.1607 72.3508C70.0607 70.9667 67.4487 70.7135 65.2087 71.7096C64.9834 71.8096 64.7554 71.9028 64.5273 71.9881C62.2459 72.8481 60.594 74.8695 60.1259 77.3322H59.8753C59.4073 74.8695 57.7553 72.8481 55.4726 71.9896C55.242 71.9028 55.0153 71.8096 54.79 71.7096C52.55 70.7136 49.9379 70.9669 47.8379 72.3508L47.6473 72.1602C49.0314 70.0602 49.2847 67.4481 48.2886 65.2096C48.1886 64.9842 48.0953 64.7563 48.0086 64.5255C47.1486 62.2441 45.1259 60.5922 42.6645 60.1241V59.8735C45.1272 59.4055 47.1486 57.7521 48.0086 55.4708C48.0953 55.2414 48.1886 55.0135 48.2886 54.7894C49.2845 52.5494 49.0312 49.9388 47.6473 47.8374L47.8379 47.6467C49.9379 49.0308 52.55 49.2841 54.79 48.2881C55.0153 48.1896 55.2433 48.0961 55.4726 48.0094C57.754 47.1494 59.4059 45.1281 59.874 42.6653H60.1247C60.5926 45.1267 62.2461 47.1494 64.5261 48.008C64.7554 48.0947 64.9834 48.188 65.2087 48.288C67.4487 49.2839 70.0607 49.0306 72.1607 47.6466L72.3514 47.8372C70.9673 49.9372 70.714 52.5492 71.7101 54.7878C71.8101 55.0131 71.9034 55.2411 71.9901 55.4719C72.8487 57.7533 74.8714 59.4052 77.3328 59.8733V60.1241Z" fill="#FFA927"/>
<path d="M24.0006 25.332C18.8539 25.332 14.6673 29.5188 14.6673 34.6653C14.6673 39.812 18.854 43.9986 24.0006 43.9986C29.1472 43.9986 33.3339 39.8119 33.3339 34.6653C33.3339 29.5186 29.1472 25.332 24.0006 25.332ZM24.0006 41.332C20.3247 41.332 17.3339 38.3414 17.3339 34.6653C17.3339 30.9894 20.3245 27.9986 24.0006 27.9986C27.6765 27.9986 30.6673 30.9892 30.6673 34.6653C30.6672 38.3414 27.6765 41.332 24.0006 41.332Z" fill="#FFA927"/>
<path d="M78.8314 14.9068L78.2381 14.8321C76.8808 14.6615 75.7128 13.7774 75.2608 12.5788C75.1687 12.3374 75.0714 12.0974 74.9661 11.8615C74.4154 10.6229 74.6247 9.14412 75.5128 8.00287L75.8128 7.61881C76.2261 7.08818 76.1795 6.3335 75.7034 5.8574L74.1434 4.2974C73.6675 3.82146 72.9128 3.77475 72.382 4.18678L71.9967 4.48678C70.854 5.37475 69.3753 5.58678 68.1381 5.03475C67.8995 4.92803 67.6595 4.82943 67.4195 4.74006C66.2022 4.28146 65.3383 3.14006 65.1662 1.76271L65.0929 1.16943C65.0089 0.502715 64.4409 0.00146484 63.7689 0.00146484H61.5622C60.8901 0.00146484 60.3222 0.502715 60.2395 1.16943L60.1662 1.76146C59.9956 3.11881 59.1115 4.28818 57.9156 4.73881C57.6715 4.83084 57.4315 4.92818 57.1942 5.03475C55.9569 5.58412 54.4769 5.37615 53.3342 4.48678L52.9489 4.18818C52.4183 3.77615 51.6636 3.82412 51.1889 4.29881L49.6289 5.85881C49.1529 6.33475 49.1062 7.08943 49.5195 7.62021L49.8181 8.00428C50.7061 9.14693 50.9167 10.6257 50.3661 11.8629C50.2608 12.1002 50.1634 12.3388 50.0714 12.5815C49.6208 13.7788 48.4528 14.6641 47.094 14.8335L46.5008 14.9082C45.8328 14.9908 45.3328 15.5588 45.3328 16.2308V18.4376C45.3328 19.1096 45.834 19.6776 46.5008 19.7602L47.094 19.8349C48.4526 20.0055 49.6208 20.8896 50.0726 22.0882C50.1647 22.3294 50.262 22.5696 50.3673 22.8055C50.918 24.0441 50.7073 25.5229 49.8194 26.6641L49.5208 27.0482C49.1075 27.5788 49.154 28.3335 49.6301 28.8096L51.1901 30.3696C51.6661 30.8455 52.4208 30.8936 52.9515 30.4802L53.3369 30.1802C54.4795 29.2922 55.9583 29.0829 57.1954 29.6322C57.434 29.739 57.674 29.8376 57.914 29.9269C59.1314 30.3855 59.994 31.5269 60.1661 32.9043L60.2408 33.4976C60.3234 34.1643 60.8914 34.6655 61.5634 34.6655H63.7701C64.4434 34.6655 65.0115 34.1641 65.0901 33.4976L65.1634 32.9055C65.3367 31.5269 66.1994 30.3855 67.414 29.9282C67.6581 29.8361 67.8981 29.7388 68.1355 29.6322C69.374 29.0816 70.854 29.2908 71.9954 30.1802L72.3808 30.4788C72.9114 30.8908 73.6675 30.8429 74.1422 30.3682L75.7022 28.8082C76.1781 28.3322 76.2248 27.5776 75.8115 27.0468L75.5129 26.6627C74.625 25.5201 74.4144 24.0413 74.965 22.8041C75.0703 22.5668 75.169 22.3282 75.2597 22.0855C75.7117 20.8882 76.8797 20.0029 78.2383 19.8335L78.8315 19.7588C79.4983 19.6761 79.9983 19.1082 79.9983 18.4361V16.2294C79.9981 15.5574 79.4981 14.9894 78.8314 14.9068ZM72.7673 21.1441C72.6953 21.3374 72.6153 21.5294 72.5314 21.7201C71.6928 23.6041 71.8554 25.7854 72.9273 27.5907C71.1206 26.5187 68.9406 26.356 67.054 27.1947C66.8661 27.2788 66.6754 27.3574 66.4808 27.4307C64.5767 28.1493 63.1675 29.7813 62.6675 31.7907C62.1675 29.7801 60.7581 28.148 58.8515 27.4293C58.6595 27.3572 58.4689 27.2786 58.2795 27.1946C57.4742 26.8372 56.6154 26.6613 55.7542 26.6613C54.5995 26.6613 53.4422 26.9772 52.4089 27.5907C53.4809 25.784 53.6436 23.604 52.8048 21.7186C52.7195 21.528 52.6422 21.3372 52.5689 21.144C51.8515 19.2386 50.2195 17.8307 48.2089 17.3307C50.2195 16.8321 51.8515 15.4227 52.5689 13.5187C52.6409 13.3254 52.7195 13.1333 52.8048 12.9427C53.6434 11.0587 53.4808 8.8774 52.4089 7.07209C54.2142 8.14537 56.3956 8.30537 58.2822 7.46803C58.4701 7.38396 58.6608 7.30537 58.8554 7.23209C60.7595 6.5135 62.1675 4.88146 62.6675 2.87209C63.1675 4.88271 64.5769 6.51475 66.4834 7.2335C66.6754 7.30553 66.8661 7.38412 67.0554 7.46818C68.9395 8.30678 71.1208 8.14287 72.9261 7.07225C71.854 8.87896 71.6928 11.059 72.5301 12.9443C72.6154 13.1349 72.6942 13.3255 72.7661 13.519C73.4847 15.4243 75.1167 16.8322 77.1275 17.3322C75.1167 17.8307 73.4847 19.2401 72.7673 21.1441Z" fill="#FFA927"/>
<path d="M60.0017 51.9985C55.5911 51.9985 52.0017 55.5865 52.0017 59.9985C52.0017 64.4106 55.5911 67.9985 60.0017 67.9985C64.4124 67.9985 68.0017 64.4106 68.0017 59.9985C68.0017 55.5867 64.4136 51.9985 60.0017 51.9985ZM60.0017 65.332C57.0603 65.332 54.6685 62.9399 54.6685 59.9987C54.6685 57.0573 57.0605 54.6654 60.0017 54.6654C62.9417 54.6654 65.335 57.0574 65.335 59.9987C65.335 62.9399 62.943 65.332 60.0017 65.332Z" fill="#FFA927"/>
<path d="M62.6685 11.9985C59.7271 11.9985 57.3352 14.3906 57.3352 17.3318C57.3352 20.2731 59.7272 22.6651 62.6685 22.6651C65.6085 22.6651 68.0017 20.2731 68.0017 17.3318C68.0017 14.3906 65.6099 11.9985 62.6685 11.9985ZM62.6685 19.9985C61.1978 19.9985 60.0017 18.8026 60.0017 17.3318C60.0017 15.8612 61.1977 14.6651 62.6685 14.6651C64.1391 14.6651 65.3352 15.861 65.3352 17.3318C65.3352 18.8026 64.1391 19.9985 62.6685 19.9985Z" fill="#FFA927"/>
</svg>
