<svg width="80" height="80" viewBox="0 0 80 80" fill="none" xmlns="http://www.w3.org/2000/svg">
<path d="M26 14.5V4.5H53.5V14.5H26Z" fill="#FFD493"/>
<path fill-rule="evenodd" clip-rule="evenodd" d="M18.5 34.5V67H60.5V34.5H18.5ZM40.5 39.5L36 45L31 51V55L33 59.5L38.5 62.5L46 61.5L48.5 56.5V51L46 46.5L42 41.5L40.5 39.5Z" fill="#FFD493"/>
<path d="M60.1812 28.707L53.5935 22.7864V16.25H54.1077C54.2705 16.247 54.431 16.2116 54.58 16.146C54.7289 16.0804 54.8633 15.9859 54.9754 15.8678C55.0875 15.7498 55.175 15.6107 55.2328 15.4585C55.2907 15.3064 55.3177 15.1442 55.3123 14.9816V4.42062C55.3123 3.73016 54.798 3.125 54.1077 3.125H25.8918C25.2015 3.125 24.6873 3.73016 24.6873 4.42062V14.9816C24.6819 15.1442 24.7089 15.3064 24.7667 15.4585C24.8245 15.6107 24.912 15.7498 25.0241 15.8678C25.1362 15.9859 25.2706 16.0804 25.4196 16.146C25.5685 16.2116 25.7291 16.247 25.8918 16.25H26.406V22.7858L19.8184 28.7062C19.1347 29.3229 18.5887 30.0768 18.2161 30.9188C17.8435 31.7607 17.6527 32.6718 17.656 33.5925V68.5027C17.656 73.0808 21.3591 76.875 25.9402 76.875H54.0623C58.6404 76.875 62.3435 73.0806 62.3435 68.4991V33.5938C62.3469 32.673 62.1561 31.7618 61.7835 30.9198C61.4109 30.0778 60.8649 29.3238 60.1812 28.707ZM59.8435 35.4688V65.7812H20.156V35.4688H59.8435ZM27.1873 5.625H52.8123V13.75H27.1873V5.625ZM21.4607 30.5938L28.4874 24.2881C28.619 24.1684 28.7242 24.0226 28.7962 23.86C28.8683 23.6974 28.9057 23.5216 28.906 23.3438V16.25H51.0935V23.3448C51.094 23.5207 51.1316 23.6945 51.2037 23.855C51.2758 24.0154 51.3809 24.1588 51.5121 24.2759L58.5376 30.5938C59.2306 31.2121 59.6881 32.0513 59.8324 32.9688H20.167C20.3109 32.0514 20.7681 31.2122 21.4607 30.5938ZM54.0593 74.375H25.9438C22.7363 74.375 20.156 71.7031 20.156 68.4991V68.2812H59.8435V68.4953C59.8435 71.7031 57.2632 74.375 54.0593 74.375Z" fill="#FFA927"/>
<path d="M30.9644 58.745C31.8716 60.3438 33.1867 61.6732 34.7755 62.5977C36.3643 63.5223 38.1699 64.0087 40.0081 64.0076C41.8463 64.0064 43.6513 63.5176 45.2389 62.591C46.8265 61.6645 48.1399 60.3334 49.0451 58.7335C50.7701 55.7233 50.7855 52.1955 49.0868 49.2959C49.0673 49.2627 49.0465 49.2304 49.0243 49.1991L41.0158 38.0312C40.9007 37.8687 40.7485 37.7357 40.572 37.6434C40.3954 37.551 40.1995 37.5019 40.0002 37.5C39.8013 37.502 39.6056 37.5511 39.4293 37.6432C39.2529 37.7354 39.1009 37.868 38.9857 38.0302L30.9776 49.1628C30.9541 49.1953 30.9322 49.2314 30.9121 49.2659C29.2116 52.1833 29.2313 55.7286 30.9644 58.745ZM33.0425 50.5775L39.9982 40.9125L46.9577 50.6094C48.1882 52.7467 48.1593 55.2517 46.876 57.4913C46.1896 58.7095 45.1919 59.7234 43.9848 60.4293C42.7778 61.1351 41.4049 61.5076 40.0067 61.5085C38.6084 61.5094 37.235 61.1388 36.0271 60.4345C34.8192 59.7302 33.8201 58.7176 33.1321 57.5003C31.8411 55.2527 31.8091 52.7324 33.0425 50.5775Z" fill="#FFA927"/>
<path d="M39.9386 59.8438C41.5549 59.8453 43.1059 59.2056 44.2512 58.065C45.3965 56.9245 46.0427 55.3762 46.048 53.7599C46.048 53.4284 45.9163 53.1104 45.6818 52.876C45.4474 52.6416 45.1295 52.5099 44.798 52.5099C44.4664 52.5099 44.1485 52.6416 43.9141 52.876C43.6796 53.1104 43.548 53.4284 43.548 53.7599C43.5434 54.7134 43.1609 55.6263 42.4843 56.2981C41.8076 56.97 40.8921 57.346 39.9386 57.3438C39.6071 57.3438 39.2891 57.4755 39.0547 57.7099C38.8203 57.9443 38.6886 58.2623 38.6886 58.5938C38.6886 58.9253 38.8203 59.2433 39.0547 59.4777C39.2891 59.7121 39.6071 59.8438 39.9386 59.8438Z" fill="#FFA927"/>
</svg>
