<svg width="80" height="80" viewBox="0 0 80 80" fill="none" xmlns="http://www.w3.org/2000/svg">
<g clip-path="url(#clip0)">
<path d="M13.5 3.5L7.5 8.5L2.5 16.5V77.5H21.5V20.5H77.5V2H57.5H26L13.5 3.5Z" fill="#FFD493"/>
<path d="M77.6562 0H21.0944C9.46289 0 0 9.46289 0 21.0944V77.6562C0 78.9508 1.04919 80 2.34375 80H21.0938C22.3883 80 23.4375 78.9508 23.4375 77.6562V23.4375H77.6562C78.9508 23.4375 80 22.3883 80 21.0938V2.34375C80 1.04919 78.9508 0 77.6562 0ZM75.3125 18.75H21.0938C19.7992 18.75 18.75 19.7992 18.75 21.0938V75.3125H4.6875V21.0944C4.6875 12.0477 12.0477 4.6875 21.0944 4.6875H75.3125V18.75Z" fill="#FFA927"/>
</g>
<defs>
<clipPath id="clip0">
<rect width="80" height="80" fill="white"/>
</clipPath>
</defs>
</svg>
