<svg width="35" height="35" viewBox="0 0 35 35" fill="none" xmlns="http://www.w3.org/2000/svg">
<circle cx="17.5" cy="17.5" r="17.5" fill="white" fill-opacity="0.5"/>
<path d="M17.5005 15.1153C16.1855 15.1153 15.1157 16.1851 15.1157 17.5C15.1157 18.815 16.1855 19.8848 17.5005 19.8848C18.8154 19.8848 19.8853 18.815 19.8853 17.5C19.8853 16.1851 18.8155 15.1153 17.5005 15.1153Z" fill="#F39400"/>
<path d="M22.2071 10H12.793C11.2529 10 10 11.2529 10 12.793V22.207C10 23.7471 11.2529 25 12.793 25H22.2071C23.7471 25 25 23.7471 25 22.207V12.793C25 11.2529 23.7471 10 22.2071 10ZM17.5 20.7637C15.7004 20.7637 14.2363 19.2996 14.2363 17.5C14.2363 15.7004 15.7004 14.2363 17.5 14.2363C19.2996 14.2363 20.7637 15.7004 20.7637 17.5C20.7637 19.2996 19.2996 20.7637 17.5 20.7637ZM22.047 13.5745C21.9653 13.6562 21.8522 13.7031 21.7364 13.7031C21.6207 13.7031 21.5073 13.6562 21.4256 13.5745C21.3438 13.4927 21.297 13.3794 21.297 13.2636C21.297 13.1479 21.3438 13.0348 21.4256 12.9531C21.5073 12.871 21.6207 12.8242 21.7364 12.8242C21.8518 12.8242 21.9653 12.8711 22.047 12.9531C22.129 13.0348 22.1759 13.1479 22.1759 13.2636C22.1759 13.3794 22.129 13.4927 22.047 13.5745Z" fill="#F39400"/>
</svg>
