<svg width="86" height="81" viewBox="0 0 86 81" fill="none" xmlns="http://www.w3.org/2000/svg">
<path d="M3.89374 65.9941V19.4941L7.64374 21.4941L10.858 22.4941H77.2866L78.358 39.4941H73.0009H65.5009L60.6794 39.9941L56.9294 41.9941L55.3223 45.4941V49.9941C55.3223 50.7941 57.4652 53.3275 58.5366 54.4941L63.358 55.4941L69.2509 54.4941L77.2866 55.4941V62.9941V73.9941H15.1437L9.78659 72.9941L6.03659 70.4941L3.89374 65.9941Z" fill="#FFD493"/>
<path d="M77.9392 41.047C77.5742 41.047 77.2242 40.9117 76.9662 40.6709C76.7081 40.43 76.5631 40.1033 76.5631 39.7627V23.6546H62.8002C62.4352 23.6546 62.0852 23.5193 61.8272 23.2784C61.5691 23.0376 61.4241 22.7109 61.4241 22.3703C61.4241 22.0296 61.5691 21.703 61.8272 21.4621C62.0852 21.2213 62.4352 21.0859 62.8002 21.0859H77.9392C78.3042 21.0859 78.6542 21.2213 78.9122 21.4621C79.1703 21.703 79.3153 22.0296 79.3153 22.3703V39.7649C79.3146 40.1051 79.1694 40.4312 78.9114 40.6716C78.6534 40.912 78.3038 41.047 77.9392 41.047Z" fill="#FFA927"/>
<path d="M77.9387 75.0342H13.9414C10.8397 75.031 7.86602 73.8796 5.67279 71.8326C3.47956 69.7856 2.24593 67.0102 2.24255 64.1153V15.3034C2.24255 14.9627 2.38753 14.6361 2.64559 14.3952C2.90365 14.1544 3.25366 14.019 3.61862 14.019C3.98357 14.019 4.33358 14.1544 4.59164 14.3952C4.8497 14.6361 4.99468 14.9627 4.99468 15.3034V64.1163C4.99713 66.3303 5.94052 68.4529 7.61782 70.0183C9.29512 71.5838 11.5693 72.4643 13.9414 72.4666H76.5626V55.178C76.5626 54.8373 76.7076 54.5107 76.9657 54.2698C77.2237 54.029 77.5737 53.8936 77.9387 53.8936C78.3036 53.8936 78.6537 54.029 78.9117 54.2698C79.1698 54.5107 79.3148 54.8373 79.3148 55.178V73.7509C79.3144 74.0914 79.1693 74.4178 78.9113 74.6584C78.6533 74.899 78.3035 75.0342 77.9387 75.0342Z" fill="#FFA927"/>
<path d="M81.0068 56.4624H63.0173C60.4623 56.4624 58.0119 55.5151 56.2053 53.8289C54.3986 52.1427 53.3837 49.8557 53.3837 47.4711C53.3837 45.0864 54.3986 42.7994 56.2053 41.1132C58.0119 39.427 60.4623 38.4797 63.0173 38.4797H81.0068C81.7364 38.4806 82.4359 38.7515 82.9519 39.233C83.4678 39.7146 83.758 40.3674 83.759 41.0484V53.8938C83.758 54.5748 83.4678 55.2276 82.9519 55.7092C82.4359 56.1907 81.7364 56.4616 81.0068 56.4624ZM81.0068 41.0484H63.0173C61.1922 41.0484 59.4418 41.7251 58.1513 42.9296C56.8608 44.134 56.1358 45.7677 56.1358 47.4711C56.1358 49.1745 56.8608 50.8081 58.1513 52.0126C59.4418 53.2171 61.1922 53.8938 63.0173 53.8938H81.0068V41.0484Z" fill="#FFA927"/>
<path d="M62.7997 23.6525H11.1881C8.8156 23.6525 6.54027 22.7728 4.86265 21.2071C3.18503 19.6413 2.24255 17.5176 2.24255 15.3033C2.24255 13.0889 3.18503 10.9653 4.86265 9.39952C6.54027 7.83375 8.8156 6.9541 11.1881 6.9541H61.4178C62.1499 6.95582 62.8514 7.22845 63.3684 7.71221C63.8854 8.19597 64.1758 8.85136 64.1758 9.53464V22.3681C64.1758 22.7088 64.0308 23.0354 63.7727 23.2763C63.5147 23.5172 63.1646 23.6525 62.7997 23.6525ZM11.1881 9.52275C9.54551 9.52275 7.97019 10.1318 6.80869 11.2158C5.6472 12.2999 4.99468 13.7702 4.99468 15.3033C4.99468 16.8364 5.6472 18.3067 6.80869 19.3907C7.97019 20.4748 9.54551 21.0838 11.1881 21.0838H61.4178V9.53464L11.1881 9.52275Z" fill="#FFA927"/>
<path d="M62.8002 16.5877H17.1631C16.7982 16.5877 16.4481 16.4524 16.1901 16.2115C15.932 15.9707 15.787 15.644 15.787 15.3034C15.787 14.9627 15.932 14.6361 16.1901 14.3952C16.4481 14.1544 16.7982 14.019 17.1631 14.019H62.8002C63.1651 14.019 63.5151 14.1544 63.7732 14.3952C64.0313 14.6361 64.1762 14.9627 64.1762 15.3034C64.1762 15.644 64.0313 15.9707 63.7732 16.2115C63.5151 16.4524 63.1651 16.5877 62.8002 16.5877Z" fill="#FFA927"/>
<path d="M64.2302 51.4353C63.3205 51.4351 62.4313 51.1831 61.675 50.7112C60.9187 50.2393 60.3294 49.5687 59.9815 48.7842C59.6335 47.9997 59.5427 47.1365 59.7204 46.3038C59.8981 45.471 60.3364 44.7062 60.9798 44.106C61.6232 43.5058 62.4429 43.0971 63.3352 42.9316C64.2275 42.7662 65.1523 42.8514 65.9927 43.1766C66.833 43.5017 67.5513 44.0521 68.0565 44.7582C68.5617 45.4643 68.8312 46.2944 68.831 47.1434C68.8295 48.2816 68.3442 49.3728 67.4816 50.1774C66.6191 50.9821 65.4498 51.4345 64.2302 51.4353ZM64.2302 45.1164C63.8009 45.116 63.381 45.2344 63.0238 45.4567C62.6665 45.679 62.388 45.9952 62.2233 46.3653C62.0586 46.7354 62.0152 47.1427 62.0986 47.5359C62.182 47.929 62.3884 48.2902 62.6918 48.5738C62.9952 48.8573 63.3818 49.0506 63.8029 49.1291C64.2239 49.2075 64.6605 49.1677 65.0573 49.0146C65.454 48.8615 65.7933 48.602 66.032 48.2689C66.2708 47.9358 66.3983 47.5442 66.3986 47.1434C66.3983 46.6065 66.1698 46.0915 65.7634 45.7116C65.3569 45.3316 64.8055 45.1175 64.2302 45.1164Z" fill="#FFA927"/>
</svg>
