<svg width="768" height="997" viewBox="0 0 768 997" fill="none" xmlns="http://www.w3.org/2000/svg">
<path d="M-401.5 996.01C-594 996.01 -720.5 938.509 -915 805.009L-915 662.009L1005 662.009L1005 975.009C910.333 935.342 682.5 904.509 515 904.509C304.348 904.509 -115.526 996.01 -401.5 996.01Z" fill="#FEF1D3"/>
<path d="M491.5 -4.48916e-05C684 -1.12326e-05 810.5 57.5007 1005 191.001L1005 334.001L-915 334.001L-915 21.0005C-820.333 60.6671 -592.5 91.5007 -425 91.5007C-214.348 91.5008 205.526 -9.48947e-05 491.5 -4.48916e-05Z" fill="#FEF1D3"/>
<path fill-rule="evenodd" clip-rule="evenodd" d="M1005 212.998C810.5 79.4983 684 31.9976 491.5 31.9976C337.607 31.9975 144.937 52.7036 -33.037 71.8303C-185.785 88.246 -327.708 103.498 -425 103.498C-592.5 103.498 -820.333 72.6647 -915 32.9981V337.005V345.998V770.005C-720.5 903.505 -594 951.006 -401.5 951.006C-247.606 951.006 -54.9368 930.3 123.037 911.173C275.785 894.757 417.708 879.505 515 879.505C682.5 879.505 910.333 910.338 1005 950.005L1005 345.999L1005 212.998Z" fill="#FFFDE7"/>
</svg>
