<svg width="139" height="41" viewBox="0 0 139 41" fill="none" xmlns="http://www.w3.org/2000/svg">
<path d="M1.40979 15.6604C-0.469933 16.6003 -0.469933 19.6549 1.40979 20.5947C15.9777 28.5836 30.7805 35.8675 46.7582 40.0969C49.1079 40.5668 51.4575 37.9822 50.0477 35.8675C46.7582 31.1682 42.7638 27.1738 38.0645 23.6493C70.9597 24.5891 105.03 29.0535 137.455 21.2996C139.805 20.8297 139.335 16.8356 136.985 17.0706C103.385 21.2996 70.0195 18.0101 36.4193 17.5405C39.9438 13.5461 43.4683 9.5517 46.9928 5.79225C48.6376 4.14749 47.6977 0.62261 44.8781 0.857576C29.3707 2.73769 14.8029 7.90694 1.40979 15.6604ZM29.3707 18.2451C27.256 19.6549 27.726 23.6493 31.0155 23.6493C31.2505 23.6493 31.4854 23.6493 31.4854 23.6493C34.305 26.4689 37.1246 29.0535 39.9442 32.108C29.1358 28.3486 19.0322 23.6493 8.92871 18.2454C18.0924 13.5461 27.491 10.0216 37.5945 8.14191C35.2449 10.7265 32.8952 13.5461 30.3106 16.1311C29.3707 16.6003 29.1358 17.5405 29.3707 18.2451Z" fill="#FF493E"/>
</svg>
