<svg width="375" height="1083" viewBox="0 0 375 1083" fill="none" xmlns="http://www.w3.org/2000/svg">
<path d="M-610.5 1082C-803 1082 -929.5 1024.5 -1124 891.004L-1124 748.004L796 748.004L796 1061C701.333 1021.34 473.5 990.504 306 990.504C95.348 990.504 -324.526 1082 -610.5 1082Z" fill="#FEF1D3"/>
<path d="M282.5 -4.48916e-05C475 -1.12326e-05 601.5 57.5007 796 191.001L796 334.001L-1124 334.001L-1124 21.0005C-1029.33 60.6671 -801.5 91.5007 -634 91.5007C-423.348 91.5008 -3.47424 -9.48947e-05 282.5 -4.48916e-05Z" fill="#FEF1D3"/>
<path fill-rule="evenodd" clip-rule="evenodd" d="M796 212.998C601.5 79.4983 475 31.9976 282.5 31.9976C128.607 31.9975 -64.0632 52.7036 -242.037 71.8303C-394.785 88.246 -536.708 103.498 -634 103.498C-801.5 103.498 -1029.33 72.6647 -1124 32.9981V423V715.998V856C-929.5 989.5 -803 1037 -610.5 1037C-456.606 1037 -263.937 1016.29 -85.963 997.168C66.785 980.752 208.708 965.5 306 965.5C473.5 965.5 701.333 996.334 796 1036L796 715.999L796 212.998Z" fill="#FFFDE7"/>
</svg>
