<svg width="60" height="60" viewBox="0 0 60 60" fill="none" xmlns="http://www.w3.org/2000/svg">
<circle cx="29.9999" cy="30.0001" r="30" transform="rotate(-180 29.9999 30.0001)" fill="#FFCC78"/>
<g clip-path="url(#clip0)">
<path d="M19.4427 31.6846C19.5409 31.7005 19.6403 31.7079 19.7397 31.7066L36.6713 31.7066L36.3021 31.8783C35.9412 32.0491 35.6129 32.2816 35.3318 32.5652L30.5838 37.3132C29.9585 37.9102 29.8534 38.8704 30.3348 39.5885C30.8951 40.3537 31.9696 40.5198 32.7348 39.9595C32.7966 39.9142 32.8554 39.8648 32.9106 39.8117L41.4966 31.2258C42.1675 30.5555 42.1681 29.4683 41.4979 28.7973C41.4975 28.7969 41.497 28.7964 41.4966 28.796L32.9106 20.21C32.2391 19.5404 31.1518 19.5419 30.4821 20.2134C30.4294 20.2663 30.3802 20.3225 30.3348 20.3817C29.8534 21.0998 29.9585 22.0601 30.5838 22.657L35.3233 27.4136C35.5752 27.6658 35.8649 27.8773 36.1819 28.0404L36.697 28.2722L19.8342 28.2722C18.957 28.2396 18.1874 28.8524 18.0226 29.7147C17.8708 30.6508 18.5066 31.5327 19.4427 31.6846Z" fill="white"/>
</g>
<defs>
<clipPath id="clip0">
<rect x="41.9999" y="42.0001" width="24" height="24" rx="12" transform="rotate(-180 41.9999 42.0001)" fill="white"/>
</clipPath>
</defs>
</svg>
