<svg width="35" height="35" viewBox="0 0 35 35" fill="none" xmlns="http://www.w3.org/2000/svg">
<circle opacity="0.5" cx="17.5" cy="17.5" r="17.5" fill="white"/>
<g clip-path="url(#clip0)">
<path d="M24.5914 21.0085L22.4981 18.9152C21.7505 18.1676 20.4795 18.4667 20.1805 19.4385C19.9562 20.1114 19.2086 20.4852 18.5358 20.3356C17.0406 19.9618 15.022 18.0181 14.6482 16.4481C14.4239 15.7752 14.8725 15.0276 15.5453 14.8034C16.5172 14.5043 16.8163 13.2334 16.0687 12.4858L13.9754 10.3925C13.3773 9.86917 12.4802 9.86917 11.9568 10.3925L10.5364 11.8129C9.11594 13.3082 10.6859 17.2705 14.1997 20.7842C17.7134 24.298 21.6757 25.9427 23.1709 24.4475L24.5914 23.027C25.1147 22.4289 25.1147 21.5318 24.5914 21.0085Z" fill="#F39400"/>
</g>
<defs>
<clipPath id="clip0">
<rect width="15" height="15" fill="white" transform="translate(10 10)"/>
</clipPath>
</defs>
</svg>
