<svg width="35" height="35" viewBox="0 0 35 35" fill="none" xmlns="http://www.w3.org/2000/svg">
<circle cx="17.5" cy="17.5" r="17.5" fill="white" fill-opacity="0.5"/>
<g clip-path="url(#clip0)">
<path d="M26.8993 21.8699C26.8763 21.8203 26.8548 21.7792 26.8349 21.7462C26.5053 21.1525 25.8753 20.4238 24.9454 19.5598L24.9258 19.54L24.9159 19.5303L24.906 19.5204H24.896C24.474 19.1181 24.2067 18.8476 24.0948 18.7091C23.8901 18.4453 23.8442 18.1782 23.9561 17.9076C24.0352 17.7032 24.3322 17.2715 24.8464 16.6119C25.1169 16.2623 25.3312 15.9821 25.4894 15.7711C26.6304 14.2541 27.1251 13.2848 26.9733 12.8627L26.9144 12.764C26.8748 12.7046 26.7726 12.6503 26.6079 12.6007C26.4428 12.5513 26.2318 12.5431 25.9746 12.5761L23.1256 12.5958C23.0794 12.5794 23.0135 12.5809 22.9277 12.6007C22.8419 12.6206 22.799 12.6305 22.799 12.6305L22.7494 12.6553L22.7101 12.685C22.6771 12.7047 22.6408 12.7393 22.6012 12.7888C22.5618 12.8381 22.5289 12.896 22.5025 12.9619C22.1924 13.7599 21.8397 14.5019 21.4439 15.1877C21.1999 15.5967 20.9758 15.9511 20.7711 16.2512C20.5667 16.5512 20.3952 16.7722 20.2568 16.9139C20.1182 17.0557 19.9932 17.1693 19.8808 17.2551C19.7687 17.341 19.6831 17.3773 19.6238 17.364C19.5643 17.3507 19.5084 17.3376 19.4554 17.3244C19.3631 17.265 19.2889 17.1842 19.233 17.082C19.1768 16.9798 19.1389 16.8512 19.1191 16.6962C19.0995 16.5411 19.0878 16.4077 19.0845 16.2955C19.0814 16.1835 19.0828 16.0251 19.0895 15.8206C19.0964 15.6161 19.0995 15.4777 19.0995 15.4052C19.0995 15.1545 19.1044 14.8825 19.1142 14.589C19.1241 14.2955 19.1322 14.063 19.139 13.8917C19.1457 13.7202 19.1488 13.5388 19.1488 13.3475C19.1488 13.1563 19.1372 13.0063 19.1142 12.8974C19.0914 12.7887 19.0565 12.6831 19.0106 12.5808C18.9643 12.4786 18.8966 12.3995 18.8078 12.3434C18.7187 12.2873 18.6081 12.2429 18.4764 12.2098C18.1268 12.1307 17.6817 12.0879 17.1408 12.0813C15.9142 12.0681 15.126 12.1473 14.7765 12.3188C14.638 12.3912 14.5126 12.4902 14.4006 12.6154C14.2818 12.7606 14.2653 12.8398 14.351 12.8528C14.7468 12.9121 15.0269 13.0539 15.1918 13.2781L15.2513 13.3969C15.2975 13.4827 15.3436 13.6344 15.3898 13.852C15.4359 14.0696 15.4657 14.3103 15.4788 14.574C15.5117 15.0555 15.5117 15.4677 15.4788 15.8106C15.4458 16.1536 15.4146 16.4207 15.3848 16.6119C15.3551 16.8032 15.3106 16.9582 15.2513 17.0768C15.1918 17.1955 15.1523 17.2681 15.1325 17.2944C15.1127 17.3208 15.0962 17.3374 15.0831 17.3439C14.9974 17.3767 14.9082 17.3935 14.816 17.3935C14.7236 17.3935 14.6115 17.3472 14.4796 17.2549C14.3478 17.1625 14.211 17.0356 14.0691 16.874C13.9273 16.7124 13.7674 16.4865 13.5892 16.1963C13.4113 15.9062 13.2266 15.5633 13.0353 15.1676L12.8771 14.8806C12.7782 14.696 12.643 14.4272 12.4715 14.0744C12.3 13.7215 12.1483 13.3802 12.0165 13.0504C11.9638 12.9119 11.8846 12.8065 11.7791 12.7339L11.7296 12.7042C11.6967 12.6778 11.6438 12.6499 11.5713 12.6201C11.4987 12.5903 11.423 12.569 11.3438 12.5558L8.63324 12.5755C8.35626 12.5755 8.16832 12.6383 8.06937 12.7636L8.02976 12.8229C8.00998 12.8559 8 12.9086 8 12.9812C8 13.0538 8.01978 13.1428 8.05939 13.2483C8.45508 14.1782 8.88538 15.0751 9.3503 15.9391C9.81522 16.803 10.2192 17.4989 10.5621 18.0262C10.905 18.5539 11.2545 19.0519 11.6107 19.52C11.9668 19.9883 12.2026 20.2884 12.3179 20.4202C12.4334 20.5523 12.5241 20.651 12.5901 20.717L12.8374 20.9544C12.9957 21.1127 13.2281 21.3023 13.5348 21.5232C13.8416 21.7442 14.1812 21.9618 14.5538 22.1763C14.9265 22.3904 15.36 22.5652 15.8547 22.7004C16.3493 22.8357 16.8307 22.89 17.299 22.8638H18.4367C18.6674 22.8439 18.8422 22.7713 18.961 22.6461L19.0004 22.5965C19.0268 22.5571 19.0516 22.496 19.0745 22.4137C19.0976 22.3313 19.1091 22.2405 19.1091 22.1417C19.1024 21.8581 19.124 21.6026 19.1733 21.3751C19.2226 21.1477 19.2788 20.9762 19.3417 20.8607C19.4045 20.7453 19.4754 20.648 19.5543 20.569C19.6333 20.4899 19.6897 20.442 19.7227 20.4255C19.7556 20.4089 19.7818 20.3977 19.8016 20.3909C19.9599 20.3382 20.1461 20.3892 20.3607 20.5444C20.5751 20.6993 20.7761 20.8907 20.9642 21.1181C21.1522 21.3458 21.378 21.6012 21.6418 21.8847C21.9057 22.1684 22.1364 22.3792 22.3342 22.5179L22.532 22.6366C22.6641 22.7158 22.8356 22.7884 23.0466 22.8543C23.2573 22.9202 23.4419 22.9367 23.6005 22.9037L26.1328 22.8642C26.3833 22.8642 26.5782 22.8228 26.7165 22.7405C26.855 22.658 26.9373 22.5672 26.9638 22.4684C26.9903 22.3696 26.9917 22.2574 26.9689 22.1319C26.9454 22.0068 26.9223 21.9193 26.8993 21.8699Z" fill="#F39400"/>
</g>
<defs>
<clipPath id="clip0">
<rect width="19" height="19" fill="white" transform="translate(8 8)"/>
</clipPath>
</defs>
</svg>
