<svg width="768" height="1072" viewBox="0 0 768 1072" fill="none" xmlns="http://www.w3.org/2000/svg">
<path d="M156.5 1071.01C-36 1071.01 -162.5 1013.5 -357 880.005L-357 737.004L1563 737.004L1563 1050C1468.33 1010.34 1240.5 979.504 1073 979.504C862.348 979.504 442.474 1071.01 156.5 1071.01Z" fill="#FEF1D3"/>
<path d="M1049.5 -4.48916e-05C1242 -1.12326e-05 1368.5 57.5007 1563 191.001L1563 334.001L-357 334.001L-357 21.0005C-262.333 60.6671 -34.5 91.5007 133 91.5007C343.652 91.5008 763.526 -9.48947e-05 1049.5 -4.48916e-05Z" fill="#FEF1D3"/>
<path fill-rule="evenodd" clip-rule="evenodd" d="M1563 222.998C1368.5 89.4983 1242 41.9976 1049.5 41.9976C895.607 41.9975 702.937 62.7036 524.963 81.8303C372.215 98.246 230.292 113.498 133 113.498C-34.5 113.498 -262.333 82.6647 -357 42.9981V302V355.998V845C-162.5 978.5 -36 1026 156.5 1026C310.394 1026 503.063 1005.29 681.037 986.168C833.785 969.752 975.708 954.5 1073 954.5C1240.5 954.5 1468.33 985.334 1563 1025L1563 355.999L1563 222.998Z" fill="#FFFDE7"/>
</svg>
