<svg width="375" height="1042" viewBox="0 0 375 1042" fill="none" xmlns="http://www.w3.org/2000/svg">
<path d="M146.5 1041.01C-46 1041.01 -172.5 983.505 -367 850.005L-367 707.004L1553 707.004L1553 1020C1458.33 980.338 1230.5 949.504 1063 949.504C852.348 949.504 432.474 1041.01 146.5 1041.01Z" fill="#FEF1D3"/>
<path d="M1039.5 0.000199249C1232 0.000232908 1358.5 57.5009 1553 191.001L1553 334.001L-367 334.001L-367 21.0007C-272.333 60.6673 -44.5 91.5009 123 91.501C333.652 91.501 753.526 0.000149246 1039.5 0.000199249Z" fill="#FEF1D3"/>
<path fill-rule="evenodd" clip-rule="evenodd" d="M1491.08 182C1329.86 79.6195 1210.82 41.9976 1039.5 41.9976C885.607 41.9975 692.937 62.7036 514.963 81.8303C362.215 98.246 220.292 113.498 123 113.498C-44.5 113.498 -272.333 82.6647 -367 42.9981V182V355.998V815C-172.5 948.5 -46 996.001 146.5 996.001C300.394 996.001 493.063 975.295 671.037 956.168C823.785 939.752 965.708 924.5 1063 924.5C1230.5 924.5 1458.33 955.334 1553 995L1553 355.999L1553 222.998L1553 182H1491.08Z" fill="#FFFDE7"/>
</svg>
