<svg width="49" height="8" viewBox="0 0 49 8" fill="none" xmlns="http://www.w3.org/2000/svg">
<path d="M1.2749 5.41895H3.61963V6H0.519531V5.41895C0.945638 4.97005 1.3182 4.57357 1.63721 4.22949C1.95622 3.88542 2.17611 3.64274 2.29688 3.50146C2.52474 3.22347 2.67855 2.99902 2.7583 2.82812C2.83805 2.65495 2.87793 2.47835 2.87793 2.29834C2.87793 2.01351 2.79362 1.7902 2.625 1.62842C2.45866 1.46663 2.22965 1.38574 1.93799 1.38574C1.73063 1.38574 1.51302 1.42334 1.28516 1.49854C1.05729 1.57373 0.815755 1.68766 0.560547 1.84033V1.14307C0.795247 1.03141 1.02539 0.947103 1.25098 0.890137C1.47884 0.833171 1.70329 0.804688 1.92432 0.804688C2.42334 0.804688 2.82438 0.937988 3.12744 1.20459C3.43278 1.46891 3.58545 1.81641 3.58545 2.24707C3.58545 2.46582 3.53418 2.68457 3.43164 2.90332C3.33138 3.12207 3.16732 3.36361 2.93945 3.62793C2.81185 3.77604 2.62614 3.98112 2.38232 4.24316C2.14079 4.50521 1.77165 4.89714 1.2749 5.41895ZM7.60498 1.00977V1.64551C7.46143 1.5612 7.30876 1.4974 7.14697 1.4541C6.98519 1.40853 6.81657 1.38574 6.64111 1.38574C6.20361 1.38574 5.87207 1.55094 5.64648 1.88135C5.4209 2.20947 5.30811 2.69368 5.30811 3.33398C5.41748 3.10612 5.56901 2.9318 5.7627 2.81104C5.95638 2.68799 6.17855 2.62646 6.4292 2.62646C6.92139 2.62646 7.30192 2.77799 7.5708 3.08105C7.84196 3.38184 7.97754 3.80908 7.97754 4.36279C7.97754 4.91423 7.83854 5.34147 7.56055 5.64453C7.28255 5.94759 6.89176 6.09912 6.38818 6.09912C5.79574 6.09912 5.36165 5.88721 5.08594 5.46338C4.81022 5.03727 4.67236 4.36735 4.67236 3.45361C4.67236 2.59229 4.83757 1.93604 5.16797 1.48486C5.50065 1.03141 5.98145 0.804688 6.61035 0.804688C6.77897 0.804688 6.94759 0.822917 7.11621 0.859375C7.28483 0.893555 7.44775 0.943685 7.60498 1.00977ZM6.37451 3.1665C6.08057 3.1665 5.84928 3.27246 5.68066 3.48438C5.51204 3.69629 5.42773 3.9891 5.42773 4.36279C5.42773 4.73649 5.51204 5.0293 5.68066 5.24121C5.84928 5.45312 6.08057 5.55908 6.37451 5.55908C6.67985 5.55908 6.90999 5.45882 7.06494 5.2583C7.21989 5.0555 7.29736 4.757 7.29736 4.36279C7.29736 3.96631 7.21989 3.66781 7.06494 3.46729C6.90999 3.26676 6.67985 3.1665 6.37451 3.1665Z" fill="white" fill-opacity="0.3"/>
<path d="M41.4961 0.34668H42.043C42.387 0.88444 42.6434 1.41081 42.812 1.92578C42.9806 2.44076 43.0649 2.95231 43.0649 3.46045C43.0649 3.97314 42.9806 4.48698 42.812 5.00195C42.6434 5.51693 42.387 6.04329 42.043 6.58105H41.4961C41.7992 6.05241 42.0247 5.52946 42.1729 5.01221C42.3232 4.49495 42.3984 3.9777 42.3984 3.46045C42.3984 2.94092 42.3232 2.42253 42.1729 1.90527C42.0247 1.38802 41.7992 0.86849 41.4961 0.34668ZM46.0352 4.76611H47.1016V5.67188L46.4282 6.97754H45.6968L46.0352 5.67188V4.76611ZM45.9907 2.17529H47.0571V3.40918H45.9907V2.17529Z" fill="white"/>
</svg>
