<svg width="134" height="8" viewBox="0 0 134 8" fill="none" xmlns="http://www.w3.org/2000/svg">
<path d="M1.2749 5.41895H3.61963V6H0.519531V5.41895C0.945638 4.97005 1.3182 4.57357 1.63721 4.22949C1.95622 3.88542 2.17611 3.64274 2.29688 3.50146C2.52474 3.22347 2.67855 2.99902 2.7583 2.82812C2.83805 2.65495 2.87793 2.47835 2.87793 2.29834C2.87793 2.01351 2.79362 1.7902 2.625 1.62842C2.45866 1.46663 2.22965 1.38574 1.93799 1.38574C1.73063 1.38574 1.51302 1.42334 1.28516 1.49854C1.05729 1.57373 0.815755 1.68766 0.560547 1.84033V1.14307C0.795247 1.03141 1.02539 0.947103 1.25098 0.890137C1.47884 0.833171 1.70329 0.804688 1.92432 0.804688C2.42334 0.804688 2.82438 0.937988 3.12744 1.20459C3.43278 1.46891 3.58545 1.81641 3.58545 2.24707C3.58545 2.46582 3.53418 2.68457 3.43164 2.90332C3.33138 3.12207 3.16732 3.36361 2.93945 3.62793C2.81185 3.77604 2.62614 3.98112 2.38232 4.24316C2.14079 4.50521 1.77165 4.89714 1.2749 5.41895ZM6.87012 3.26904C7.20508 3.35791 7.46143 3.51628 7.63916 3.74414C7.81689 3.96973 7.90576 4.25228 7.90576 4.5918C7.90576 5.0612 7.7474 5.43034 7.43066 5.69922C7.11621 5.96582 6.67985 6.09912 6.12158 6.09912C5.88688 6.09912 5.64762 6.07747 5.40381 6.03418C5.15999 5.99089 4.92074 5.92822 4.68604 5.84619V5.15918C4.91846 5.27995 5.14746 5.36995 5.37305 5.4292C5.59863 5.48844 5.82308 5.51807 6.04639 5.51807C6.42464 5.51807 6.71517 5.43262 6.91797 5.26172C7.12077 5.09082 7.22217 4.84473 7.22217 4.52344C7.22217 4.22721 7.12077 3.99251 6.91797 3.81934C6.71517 3.64388 6.44059 3.55615 6.09424 3.55615H5.56787V2.98877H6.09424C6.41097 2.98877 6.6582 2.91927 6.83594 2.78027C7.01367 2.64128 7.10254 2.44759 7.10254 2.19922C7.10254 1.93717 7.01937 1.73665 6.85303 1.59766C6.68896 1.45638 6.45426 1.38574 6.14893 1.38574C5.94613 1.38574 5.73649 1.40853 5.52002 1.4541C5.30355 1.49967 5.07682 1.56803 4.83984 1.65918V1.02344C5.11556 0.950521 5.36051 0.895833 5.57471 0.859375C5.79118 0.822917 5.98258 0.804688 6.14893 0.804688C6.64567 0.804688 7.04215 0.930013 7.33838 1.18066C7.63688 1.42904 7.78613 1.75944 7.78613 2.17188C7.78613 2.45215 7.70752 2.68571 7.55029 2.87256C7.39535 3.05941 7.16862 3.19157 6.87012 3.26904Z" fill="white" fill-opacity="0.3"/>
<path d="M86.7671 0.914062H87.7104L89.7065 5.10107V0.914062H90.4414V6H89.498L87.502 1.81299V6H86.7671V0.914062ZM94.748 3.77148V4.0791H92.0239V4.09961C92.0057 4.62142 92.1048 4.99626 92.3213 5.22412C92.54 5.45199 92.8477 5.56592 93.2441 5.56592C93.4447 5.56592 93.6543 5.53402 93.873 5.47021C94.0918 5.40641 94.3254 5.30957 94.5737 5.17969V5.80518C94.3345 5.90316 94.1032 5.97607 93.8799 6.02393C93.6589 6.07406 93.4447 6.09912 93.2373 6.09912C92.6426 6.09912 92.1777 5.92139 91.8428 5.56592C91.5078 5.20817 91.3403 4.71598 91.3403 4.08936C91.3403 3.47868 91.5044 2.99105 91.8325 2.62646C92.1606 2.26188 92.5981 2.07959 93.145 2.07959C93.6326 2.07959 94.0166 2.24479 94.2969 2.5752C94.5794 2.9056 94.7298 3.30436 94.748 3.77148ZM94.1191 3.58691C94.0918 3.32259 93.995 3.09473 93.8286 2.90332C93.6646 2.70964 93.4276 2.61279 93.1177 2.61279C92.8146 2.61279 92.5651 2.71305 92.3691 2.91357C92.1732 3.1141 92.0661 3.33968 92.0479 3.59033L94.1191 3.58691ZM95.1377 2.17188H95.7598L96.4263 5.26514L96.9731 3.28955H97.5098L98.0635 5.26514L98.73 2.17188H99.3521L98.4565 6H97.855L97.2432 3.90137L96.6348 6H96.0332L95.1377 2.17188ZM104.308 0.896973H105.002V5.41895H107.466V6H104.308V0.896973ZM108.871 2.18555H110.481V5.51123H111.729V6H108.604V5.51123H109.852V2.67432H108.871V2.18555ZM109.852 0.69873H110.481V1.4917H109.852V0.69873ZM115.334 2.30518V2.92041C115.154 2.81559 114.973 2.73698 114.791 2.68457C114.609 2.63216 114.423 2.60596 114.234 2.60596C113.949 2.60596 113.736 2.65267 113.595 2.74609C113.456 2.83724 113.386 2.97738 113.386 3.1665C113.386 3.3374 113.439 3.46501 113.543 3.54932C113.648 3.63363 113.909 3.71566 114.326 3.79541L114.579 3.84326C114.891 3.90251 115.127 4.021 115.287 4.19873C115.448 4.37646 115.529 4.60775 115.529 4.89258C115.529 5.27083 115.395 5.56706 115.126 5.78125C114.857 5.99316 114.483 6.09912 114.005 6.09912C113.816 6.09912 113.618 6.07861 113.41 6.0376C113.203 5.99886 112.978 5.93962 112.737 5.85986V5.21045C112.972 5.33122 113.196 5.42236 113.41 5.48389C113.624 5.54313 113.827 5.57275 114.019 5.57275C114.297 5.57275 114.512 5.51693 114.665 5.40527C114.817 5.29134 114.894 5.13298 114.894 4.93018C114.894 4.63851 114.614 4.43685 114.056 4.3252L114.029 4.31836L113.793 4.27051C113.431 4.19987 113.166 4.08138 113 3.91504C112.834 3.74642 112.75 3.51742 112.75 3.22803C112.75 2.86117 112.875 2.57861 113.123 2.38037C113.371 2.17985 113.726 2.07959 114.186 2.07959C114.391 2.07959 114.588 2.09896 114.777 2.1377C114.966 2.17415 115.152 2.22998 115.334 2.30518ZM118.325 1.08496V2.17188H119.754V2.66064H118.325V4.73877C118.325 5.02132 118.379 5.21842 118.486 5.33008C118.593 5.44173 118.78 5.49756 119.046 5.49756H119.754V6H118.985C118.513 6 118.181 5.90544 117.987 5.71631C117.793 5.52718 117.696 5.20133 117.696 4.73877V2.66064H116.674V2.17188H117.696V1.08496H118.325ZM121.524 2.18555H123.134V5.51123H124.382V6H121.258V5.51123H122.505V2.67432H121.524V2.18555ZM122.505 0.69873H123.134V1.4917H122.505V0.69873ZM128.254 3.62793V6H127.622V3.62793C127.622 3.28385 127.562 3.03092 127.441 2.86914C127.32 2.70736 127.131 2.62646 126.874 2.62646C126.58 2.62646 126.353 2.73128 126.193 2.94092C126.036 3.14827 125.958 3.44678 125.958 3.83643V6H125.329V2.17188H125.958V2.74609C126.069 2.52734 126.221 2.36214 126.412 2.25049C126.604 2.13656 126.83 2.07959 127.092 2.07959C127.482 2.07959 127.772 2.20833 127.964 2.46582C128.158 2.72103 128.254 3.1084 128.254 3.62793ZM131.812 4.05518C131.812 3.5835 131.735 3.22575 131.58 2.98193C131.427 2.73584 131.204 2.61279 130.91 2.61279C130.603 2.61279 130.368 2.73584 130.206 2.98193C130.044 3.22575 129.963 3.5835 129.963 4.05518C129.963 4.52686 130.044 4.88688 130.206 5.13525C130.37 5.38135 130.607 5.50439 130.917 5.50439C131.206 5.50439 131.427 5.38021 131.58 5.13184C131.735 4.88346 131.812 4.52458 131.812 4.05518ZM132.441 5.75391C132.441 6.32812 132.306 6.76335 132.035 7.05957C131.764 7.35579 131.365 7.50391 130.838 7.50391C130.665 7.50391 130.484 7.48796 130.295 7.45605C130.106 7.42415 129.917 7.37744 129.728 7.31592V6.69385C129.951 6.79867 130.154 6.87614 130.336 6.92627C130.518 6.9764 130.686 7.00146 130.838 7.00146C131.178 7.00146 131.425 6.90918 131.58 6.72461C131.735 6.54004 131.812 6.24723 131.812 5.84619V5.81885V5.3916C131.712 5.60579 131.576 5.7653 131.402 5.87012C131.229 5.97493 131.018 6.02734 130.77 6.02734C130.323 6.02734 129.967 5.84847 129.7 5.49072C129.434 5.13298 129.3 4.65446 129.3 4.05518C129.3 3.45361 129.434 2.97396 129.7 2.61621C129.967 2.25846 130.323 2.07959 130.77 2.07959C131.016 2.07959 131.225 2.12858 131.396 2.22656C131.566 2.32454 131.705 2.47607 131.812 2.68115V2.18555H132.441V5.75391Z" fill="white"/>
</svg>
