<svg width="79" height="8" viewBox="0 0 79 8" fill="none" xmlns="http://www.w3.org/2000/svg">
<path d="M2.03711 3.7373C2.33105 3.7373 2.5612 3.63135 2.72754 3.41943C2.89616 3.20752 2.98047 2.91471 2.98047 2.54102C2.98047 2.16732 2.89616 1.87451 2.72754 1.6626C2.5612 1.45068 2.33105 1.34473 2.03711 1.34473C1.73177 1.34473 1.50163 1.44613 1.34668 1.64893C1.19173 1.84945 1.11426 2.14681 1.11426 2.54102C1.11426 2.9375 1.19059 3.236 1.34326 3.43652C1.49821 3.63704 1.72949 3.7373 2.03711 3.7373ZM0.806641 5.89404V5.2583C0.950195 5.34261 1.10286 5.40755 1.26465 5.45312C1.42643 5.49642 1.59505 5.51807 1.77051 5.51807C2.20801 5.51807 2.53841 5.354 2.76172 5.02588C2.9873 4.69548 3.1001 4.21012 3.1001 3.56982C2.993 3.79769 2.84261 3.97314 2.64893 4.09619C2.45524 4.21696 2.23307 4.27734 1.98242 4.27734C1.49023 4.27734 1.10856 4.12581 0.837402 3.82275C0.568522 3.51969 0.434082 3.09017 0.434082 2.53418C0.434082 1.98503 0.57194 1.56006 0.847656 1.25928C1.12565 0.956217 1.51758 0.804688 2.02344 0.804688C2.61589 0.804688 3.04997 1.01774 3.32568 1.44385C3.6014 1.86995 3.73926 2.53988 3.73926 3.45361C3.73926 4.31266 3.57292 4.96891 3.24023 5.42236C2.90983 5.87354 2.42904 6.09912 1.79785 6.09912C1.63151 6.09912 1.46403 6.08089 1.29541 6.04443C1.12679 6.01025 0.963867 5.96012 0.806641 5.89404Z" fill="white" fill-opacity="0.3"/>
<path d="M61.3091 2.71533L58.4038 3.80908L61.3091 4.89258V5.51807L57.6963 4.08936V3.52197L61.3091 2.09326V2.71533ZM74.5674 2.71533V2.09326L78.1802 3.52197V4.08936L74.5674 5.51807V4.89258L77.4727 3.80908L74.5674 2.71533Z" fill="white"/>
<path d="M64.5459 2.66064V0.681641H65.1748V6H64.5459V5.51807C64.4411 5.70719 64.3009 5.85189 64.1255 5.95215C63.9523 6.05013 63.7518 6.09912 63.5239 6.09912C63.0614 6.09912 62.6968 5.92025 62.4302 5.5625C62.1659 5.20247 62.0337 4.70687 62.0337 4.07568C62.0337 3.45361 62.167 2.96598 62.4336 2.61279C62.7002 2.25732 63.0636 2.07959 63.5239 2.07959C63.7541 2.07959 63.9569 2.12972 64.1323 2.22998C64.3078 2.32796 64.4456 2.47152 64.5459 2.66064ZM62.6968 4.08936C62.6968 4.57699 62.7743 4.94499 62.9292 5.19336C63.0841 5.44173 63.3132 5.56592 63.6162 5.56592C63.9193 5.56592 64.1494 5.44059 64.3066 5.18994C64.4661 4.93929 64.5459 4.57243 64.5459 4.08936C64.5459 3.604 64.4661 3.23714 64.3066 2.98877C64.1494 2.73812 63.9193 2.61279 63.6162 2.61279C63.3132 2.61279 63.0841 2.73698 62.9292 2.98535C62.7743 3.23372 62.6968 3.60173 62.6968 4.08936ZM66.9111 2.18555H68.521V5.51123H69.7686V6H66.6445V5.51123H67.8921V2.67432H66.9111V2.18555ZM67.8921 0.69873H68.521V1.4917H67.8921V0.69873ZM70.3906 2.17188H71.0435L72.1543 5.38477L73.2686 2.17188H73.9214L72.561 6H71.751L70.3906 2.17188Z" fill="#00FFD1"/>
</svg>
