<svg width="180" height="8" viewBox="0 0 180 8" fill="none" xmlns="http://www.w3.org/2000/svg">
<path d="M1.2749 5.41895H3.61963V6H0.519531V5.41895C0.945638 4.97005 1.3182 4.57357 1.63721 4.22949C1.95622 3.88542 2.17611 3.64274 2.29688 3.50146C2.52474 3.22347 2.67855 2.99902 2.7583 2.82812C2.83805 2.65495 2.87793 2.47835 2.87793 2.29834C2.87793 2.01351 2.79362 1.7902 2.625 1.62842C2.45866 1.46663 2.22965 1.38574 1.93799 1.38574C1.73063 1.38574 1.51302 1.42334 1.28516 1.49854C1.05729 1.57373 0.815755 1.68766 0.560547 1.84033V1.14307C0.795247 1.03141 1.02539 0.947103 1.25098 0.890137C1.47884 0.833171 1.70329 0.804688 1.92432 0.804688C2.42334 0.804688 2.82438 0.937988 3.12744 1.20459C3.43278 1.46891 3.58545 1.81641 3.58545 2.24707C3.58545 2.46582 3.53418 2.68457 3.43164 2.90332C3.33138 3.12207 3.16732 3.36361 2.93945 3.62793C2.81185 3.77604 2.62614 3.98112 2.38232 4.24316C2.14079 4.50521 1.77165 4.89714 1.2749 5.41895ZM6.32324 0.821777C6.86784 0.821777 7.27913 1.04395 7.55713 1.48828C7.8374 1.93262 7.97754 2.59001 7.97754 3.46045C7.97754 4.33089 7.8374 4.98828 7.55713 5.43262C7.27913 5.87695 6.86784 6.09912 6.32324 6.09912C5.77865 6.09912 5.36735 5.87695 5.08936 5.43262C4.81136 4.98828 4.67236 4.33089 4.67236 3.46045C4.67236 2.59001 4.81136 1.93262 5.08936 1.48828C5.36735 1.04395 5.77865 0.821777 6.32324 0.821777ZM6.32324 5.55225C6.64681 5.55225 6.88721 5.38021 7.04443 5.03613C7.20394 4.69206 7.28369 4.16683 7.28369 3.46045C7.28369 3.08447 7.2609 2.74495 7.21533 2.44189L5.58838 4.98828C5.75928 5.36426 6.00423 5.55225 6.32324 5.55225ZM6.32324 1.36865C6.00195 1.36865 5.76156 1.54069 5.60205 1.88477C5.44482 2.22884 5.36621 2.75407 5.36621 3.46045C5.36621 3.78174 5.38786 4.08252 5.43115 4.36279L7.02393 1.82324C6.85075 1.52018 6.61719 1.36865 6.32324 1.36865Z" fill="white" fill-opacity="0.3"/>
<path d="M124.963 4.29102H128.576V4.86865H124.963V4.29102ZM124.963 2.68115H128.576V3.25879H124.963V2.68115ZM132.407 6.17432V6.6665H132.188C131.621 6.6665 131.241 6.58219 131.047 6.41357C130.855 6.24495 130.76 5.90885 130.76 5.40527V4.72168C130.76 4.47331 130.689 4.25911 130.548 4.0791C130.409 3.89909 130.192 3.80908 129.898 3.80908H129.481V3.32031H129.898C130.22 3.32031 130.443 3.24398 130.568 3.09131C130.696 2.93864 130.76 2.71419 130.76 2.41797V1.5293C130.76 1.02572 130.855 0.690755 131.047 0.524414C131.241 0.355794 131.621 0.271484 132.188 0.271484H132.407V0.760254H132.168C131.849 0.760254 131.64 0.810384 131.542 0.910645C131.447 1.00863 131.399 1.2194 131.399 1.54297V2.45898C131.399 2.86003 131.32 3.13005 131.163 3.26904C131.006 3.40576 130.699 3.50488 130.244 3.56641C130.686 3.61882 130.989 3.72021 131.153 3.87061C131.317 4.01872 131.399 4.2876 131.399 4.67725V5.3916C131.399 5.71745 131.447 5.92936 131.542 6.02734C131.64 6.12533 131.849 6.17432 132.168 6.17432H132.407ZM176.263 6.17432C176.582 6.17432 176.79 6.12533 176.885 6.02734C176.983 5.92936 177.032 5.71745 177.032 5.3916V4.67725C177.032 4.2876 177.114 4.01872 177.278 3.87061C177.442 3.72021 177.745 3.61882 178.188 3.56641C177.732 3.50488 177.425 3.40576 177.268 3.26904C177.111 3.13005 177.032 2.86003 177.032 2.45898V1.54297C177.032 1.2194 176.983 1.00863 176.885 0.910645C176.79 0.810384 176.582 0.760254 176.263 0.760254H176.024V0.271484H176.243C176.81 0.271484 177.189 0.355794 177.381 0.524414C177.575 0.690755 177.671 1.02572 177.671 1.5293V2.41797C177.671 2.71419 177.734 2.93864 177.859 3.09131C177.987 3.24398 178.211 3.32031 178.533 3.32031H178.95V3.80908H178.533C178.239 3.80908 178.021 3.89909 177.88 4.0791C177.741 4.25911 177.671 4.47331 177.671 4.72168V5.40527C177.671 5.90885 177.575 6.24495 177.381 6.41357C177.189 6.58219 176.81 6.6665 176.243 6.6665H176.024V6.17432H176.263Z" fill="white"/>
<path d="M90.3286 5.80518C90.16 5.90316 89.9857 5.97607 89.8057 6.02393C89.6279 6.07406 89.4456 6.09912 89.2588 6.09912C88.6663 6.09912 88.2026 5.92139 87.8677 5.56592C87.535 5.21045 87.3687 4.71826 87.3687 4.08936C87.3687 3.46045 87.535 2.96826 87.8677 2.61279C88.2026 2.25732 88.6663 2.07959 89.2588 2.07959C89.4434 2.07959 89.6234 2.10352 89.7988 2.15137C89.9743 2.19922 90.1509 2.27327 90.3286 2.37354V3.0332C90.1623 2.88509 89.9948 2.77799 89.8262 2.71191C89.6598 2.64583 89.4707 2.61279 89.2588 2.61279C88.8646 2.61279 88.5615 2.7404 88.3496 2.99561C88.1377 3.25081 88.0317 3.6154 88.0317 4.08936C88.0317 4.56104 88.1377 4.92562 88.3496 5.18311C88.5638 5.43831 88.8669 5.56592 89.2588 5.56592C89.4775 5.56592 89.6735 5.53288 89.8467 5.4668C90.0199 5.39844 90.1805 5.29362 90.3286 5.15234V5.80518ZM93.3774 4.61572C93.3774 4.89827 93.4287 5.11133 93.5312 5.25488C93.6361 5.39844 93.7899 5.47021 93.9927 5.47021H94.7275V6H93.9312C93.5552 6 93.2635 5.88037 93.0562 5.64111C92.8511 5.39958 92.7485 5.05778 92.7485 4.61572V1.15332H91.7402V0.661133H93.3774V4.61572ZM97.5371 4.07568H97.3286C96.9618 4.07568 96.6849 4.14062 96.498 4.27051C96.3135 4.39811 96.2212 4.58952 96.2212 4.84473C96.2212 5.07487 96.2907 5.25374 96.4297 5.38135C96.5687 5.50895 96.7612 5.57275 97.0073 5.57275C97.3537 5.57275 97.626 5.45312 97.8242 5.21387C98.0225 4.97233 98.1227 4.63965 98.125 4.21582V4.07568H97.5371ZM98.7573 3.81592V6H98.125V5.43262C97.9906 5.66048 97.8208 5.8291 97.6157 5.93848C97.4129 6.04557 97.1657 6.09912 96.874 6.09912C96.4844 6.09912 96.1733 5.98975 95.9409 5.771C95.7085 5.54997 95.5923 5.25488 95.5923 4.88574C95.5923 4.45964 95.7347 4.13607 96.0195 3.91504C96.3066 3.69401 96.7271 3.5835 97.2808 3.5835H98.125V3.48438C98.1227 3.17904 98.0452 2.95801 97.8926 2.82129C97.7399 2.68229 97.4961 2.61279 97.1611 2.61279C96.9469 2.61279 96.7305 2.64355 96.5117 2.70508C96.293 2.7666 96.0799 2.85661 95.8726 2.9751V2.34619C96.105 2.25732 96.3271 2.19124 96.5391 2.14795C96.7533 2.10238 96.9606 2.07959 97.1611 2.07959C97.4779 2.07959 97.7479 2.1263 97.9712 2.21973C98.1968 2.31315 98.3791 2.45329 98.5181 2.64014C98.6047 2.75407 98.6662 2.89535 98.7026 3.06396C98.7391 3.23031 98.7573 3.48096 98.7573 3.81592ZM102.681 2.30518V2.92041C102.501 2.81559 102.32 2.73698 102.138 2.68457C101.955 2.63216 101.77 2.60596 101.581 2.60596C101.296 2.60596 101.083 2.65267 100.941 2.74609C100.802 2.83724 100.733 2.97738 100.733 3.1665C100.733 3.3374 100.785 3.46501 100.89 3.54932C100.995 3.63363 101.256 3.71566 101.673 3.79541L101.926 3.84326C102.238 3.90251 102.474 4.021 102.633 4.19873C102.795 4.37646 102.876 4.60775 102.876 4.89258C102.876 5.27083 102.742 5.56706 102.473 5.78125C102.204 5.99316 101.83 6.09912 101.352 6.09912C101.162 6.09912 100.964 6.07861 100.757 6.0376C100.549 5.99886 100.325 5.93962 100.083 5.85986V5.21045C100.318 5.33122 100.543 5.42236 100.757 5.48389C100.971 5.54313 101.174 5.57275 101.365 5.57275C101.643 5.57275 101.859 5.51693 102.011 5.40527C102.164 5.29134 102.24 5.13298 102.24 4.93018C102.24 4.63851 101.961 4.43685 101.403 4.3252L101.375 4.31836L101.14 4.27051C100.777 4.19987 100.513 4.08138 100.347 3.91504C100.18 3.74642 100.097 3.51742 100.097 3.22803C100.097 2.86117 100.221 2.57861 100.47 2.38037C100.718 2.17985 101.072 2.07959 101.533 2.07959C101.738 2.07959 101.935 2.09896 102.124 2.1377C102.313 2.17415 102.499 2.22998 102.681 2.30518ZM106.899 2.30518V2.92041C106.719 2.81559 106.538 2.73698 106.355 2.68457C106.173 2.63216 105.987 2.60596 105.798 2.60596C105.514 2.60596 105.3 2.65267 105.159 2.74609C105.02 2.83724 104.951 2.97738 104.951 3.1665C104.951 3.3374 105.003 3.46501 105.108 3.54932C105.213 3.63363 105.474 3.71566 105.891 3.79541L106.144 3.84326C106.456 3.90251 106.692 4.021 106.851 4.19873C107.013 4.37646 107.094 4.60775 107.094 4.89258C107.094 5.27083 106.959 5.56706 106.69 5.78125C106.422 5.99316 106.048 6.09912 105.569 6.09912C105.38 6.09912 105.182 6.07861 104.975 6.0376C104.767 5.99886 104.543 5.93962 104.301 5.85986V5.21045C104.536 5.33122 104.76 5.42236 104.975 5.48389C105.189 5.54313 105.392 5.57275 105.583 5.57275C105.861 5.57275 106.076 5.51693 106.229 5.40527C106.382 5.29134 106.458 5.13298 106.458 4.93018C106.458 4.63851 106.179 4.43685 105.621 4.3252L105.593 4.31836L105.357 4.27051C104.995 4.19987 104.731 4.08138 104.564 3.91504C104.398 3.74642 104.315 3.51742 104.315 3.22803C104.315 2.86117 104.439 2.57861 104.688 2.38037C104.936 2.17985 105.29 2.07959 105.75 2.07959C105.956 2.07959 106.153 2.09896 106.342 2.1377C106.531 2.17415 106.717 2.22998 106.899 2.30518ZM107.856 0.914062H108.799L110.795 5.10107V0.914062H111.53V6H110.587L108.591 1.81299V6H107.856V0.914062ZM114.408 4.07568H114.2C113.833 4.07568 113.556 4.14062 113.369 4.27051C113.185 4.39811 113.092 4.58952 113.092 4.84473C113.092 5.07487 113.162 5.25374 113.301 5.38135C113.44 5.50895 113.632 5.57275 113.878 5.57275C114.225 5.57275 114.497 5.45312 114.695 5.21387C114.894 4.97233 114.994 4.63965 114.996 4.21582V4.07568H114.408ZM115.628 3.81592V6H114.996V5.43262C114.862 5.66048 114.692 5.8291 114.487 5.93848C114.284 6.04557 114.037 6.09912 113.745 6.09912C113.355 6.09912 113.044 5.98975 112.812 5.771C112.58 5.54997 112.463 5.25488 112.463 4.88574C112.463 4.45964 112.606 4.13607 112.891 3.91504C113.178 3.69401 113.598 3.5835 114.152 3.5835H114.996V3.48438C114.994 3.17904 114.916 2.95801 114.764 2.82129C114.611 2.68229 114.367 2.61279 114.032 2.61279C113.818 2.61279 113.602 2.64355 113.383 2.70508C113.164 2.7666 112.951 2.85661 112.744 2.9751V2.34619C112.976 2.25732 113.198 2.19124 113.41 2.14795C113.624 2.10238 113.832 2.07959 114.032 2.07959C114.349 2.07959 114.619 2.1263 114.842 2.21973C115.068 2.31315 115.25 2.45329 115.389 2.64014C115.476 2.75407 115.537 2.89535 115.574 3.06396C115.61 3.23031 115.628 3.48096 115.628 3.81592ZM118.537 2.56152C118.615 2.39746 118.713 2.27669 118.831 2.19922C118.952 2.11947 119.097 2.07959 119.265 2.07959C119.573 2.07959 119.789 2.19922 119.915 2.43848C120.042 2.67546 120.106 3.12321 120.106 3.78174V6H119.532V3.80908C119.532 3.26904 119.501 2.93408 119.439 2.8042C119.38 2.67204 119.271 2.60596 119.111 2.60596C118.929 2.60596 118.804 2.6766 118.735 2.81787C118.669 2.95687 118.636 3.28727 118.636 3.80908V6H118.062V3.80908C118.062 3.26221 118.029 2.92497 117.963 2.79736C117.899 2.66976 117.783 2.60596 117.614 2.60596C117.448 2.60596 117.332 2.6766 117.266 2.81787C117.202 2.95687 117.17 3.28727 117.17 3.80908V6H116.599V2.17188H117.17V2.5C117.245 2.36328 117.339 2.2596 117.45 2.18896C117.564 2.11605 117.693 2.07959 117.836 2.07959C118.01 2.07959 118.153 2.11947 118.267 2.19922C118.383 2.27897 118.473 2.39974 118.537 2.56152ZM124.272 3.77148V4.0791H121.548V4.09961C121.53 4.62142 121.629 4.99626 121.846 5.22412C122.064 5.45199 122.372 5.56592 122.769 5.56592C122.969 5.56592 123.179 5.53402 123.397 5.47021C123.616 5.40641 123.85 5.30957 124.098 5.17969V5.80518C123.859 5.90316 123.628 5.97607 123.404 6.02393C123.183 6.07406 122.969 6.09912 122.762 6.09912C122.167 6.09912 121.702 5.92139 121.367 5.56592C121.032 5.20817 120.865 4.71598 120.865 4.08936C120.865 3.47868 121.029 2.99105 121.357 2.62646C121.685 2.26188 122.123 2.07959 122.669 2.07959C123.157 2.07959 123.541 2.24479 123.821 2.5752C124.104 2.9056 124.254 3.30436 124.272 3.77148ZM123.644 3.58691C123.616 3.32259 123.519 3.09473 123.353 2.90332C123.189 2.70964 122.952 2.61279 122.642 2.61279C122.339 2.61279 122.09 2.71305 121.894 2.91357C121.698 3.1141 121.59 3.33968 121.572 3.59033L123.644 3.58691Z" fill="#77B7D7"/>
<path d="M136.423 2.30518V2.92041C136.243 2.81559 136.062 2.73698 135.88 2.68457C135.698 2.63216 135.512 2.60596 135.323 2.60596C135.038 2.60596 134.825 2.65267 134.684 2.74609C134.545 2.83724 134.475 2.97738 134.475 3.1665C134.475 3.3374 134.528 3.46501 134.632 3.54932C134.737 3.63363 134.998 3.71566 135.415 3.79541L135.668 3.84326C135.98 3.90251 136.216 4.021 136.375 4.19873C136.537 4.37646 136.618 4.60775 136.618 4.89258C136.618 5.27083 136.484 5.56706 136.215 5.78125C135.946 5.99316 135.572 6.09912 135.094 6.09912C134.905 6.09912 134.706 6.07861 134.499 6.0376C134.292 5.99886 134.067 5.93962 133.826 5.85986V5.21045C134.06 5.33122 134.285 5.42236 134.499 5.48389C134.713 5.54313 134.916 5.57275 135.107 5.57275C135.385 5.57275 135.601 5.51693 135.753 5.40527C135.906 5.29134 135.982 5.13298 135.982 4.93018C135.982 4.63851 135.703 4.43685 135.145 4.3252L135.118 4.31836L134.882 4.27051C134.52 4.19987 134.255 4.08138 134.089 3.91504C133.923 3.74642 133.839 3.51742 133.839 3.22803C133.839 2.86117 133.964 2.57861 134.212 2.38037C134.46 2.17985 134.815 2.07959 135.275 2.07959C135.48 2.07959 135.677 2.09896 135.866 2.1377C136.055 2.17415 136.241 2.22998 136.423 2.30518ZM139.414 1.08496V2.17188H140.843V2.66064H139.414V4.73877C139.414 5.02132 139.468 5.21842 139.575 5.33008C139.682 5.44173 139.869 5.49756 140.135 5.49756H140.843V6H140.074C139.602 6 139.269 5.90544 139.076 5.71631C138.882 5.52718 138.785 5.20133 138.785 4.73877V2.66064H137.763V2.17188H138.785V1.08496H139.414ZM144.466 4.76953C144.361 5.03613 144.228 5.38704 144.066 5.82227C143.84 6.42383 143.689 6.79069 143.611 6.92285C143.507 7.10059 143.375 7.23389 143.218 7.32275C143.061 7.41162 142.878 7.45605 142.668 7.45605H142.162V6.92969H142.535C142.719 6.92969 142.864 6.87614 142.969 6.76904C143.074 6.66195 143.207 6.38509 143.369 5.93848L141.889 2.17188H142.555L143.69 5.16602L144.808 2.17188H145.474L144.466 4.76953ZM148.208 4.61572C148.208 4.89827 148.26 5.11133 148.362 5.25488C148.467 5.39844 148.621 5.47021 148.824 5.47021H149.559V6H148.762C148.386 6 148.095 5.88037 147.887 5.64111C147.682 5.39958 147.58 5.05778 147.58 4.61572V1.15332H146.571V0.661133H148.208V4.61572ZM153.797 3.77148V4.0791H151.073V4.09961C151.055 4.62142 151.154 4.99626 151.37 5.22412C151.589 5.45199 151.896 5.56592 152.293 5.56592C152.493 5.56592 152.703 5.53402 152.922 5.47021C153.141 5.40641 153.374 5.30957 153.623 5.17969V5.80518C153.383 5.90316 153.152 5.97607 152.929 6.02393C152.708 6.07406 152.493 6.09912 152.286 6.09912C151.691 6.09912 151.227 5.92139 150.892 5.56592C150.557 5.20817 150.389 4.71598 150.389 4.08936C150.389 3.47868 150.553 2.99105 150.881 2.62646C151.209 2.26188 151.647 2.07959 152.194 2.07959C152.681 2.07959 153.065 2.24479 153.346 2.5752C153.628 2.9056 153.779 3.30436 153.797 3.77148ZM153.168 3.58691C153.141 3.32259 153.044 3.09473 152.877 2.90332C152.713 2.70964 152.476 2.61279 152.167 2.61279C151.863 2.61279 151.614 2.71305 151.418 2.91357C151.222 3.1141 151.115 3.33968 151.097 3.59033L153.168 3.58691ZM157.512 2.30518V2.92041C157.332 2.81559 157.151 2.73698 156.969 2.68457C156.786 2.63216 156.601 2.60596 156.412 2.60596C156.127 2.60596 155.914 2.65267 155.772 2.74609C155.633 2.83724 155.564 2.97738 155.564 3.1665C155.564 3.3374 155.616 3.46501 155.721 3.54932C155.826 3.63363 156.087 3.71566 156.504 3.79541L156.757 3.84326C157.069 3.90251 157.305 4.021 157.464 4.19873C157.626 4.37646 157.707 4.60775 157.707 4.89258C157.707 5.27083 157.573 5.56706 157.304 5.78125C157.035 5.99316 156.661 6.09912 156.183 6.09912C155.993 6.09912 155.795 6.07861 155.588 6.0376C155.381 5.99886 155.156 5.93962 154.915 5.85986V5.21045C155.149 5.33122 155.374 5.42236 155.588 5.48389C155.802 5.54313 156.005 5.57275 156.196 5.57275C156.474 5.57275 156.69 5.51693 156.842 5.40527C156.995 5.29134 157.071 5.13298 157.071 4.93018C157.071 4.63851 156.792 4.43685 156.234 4.3252L156.207 4.31836L155.971 4.27051C155.608 4.19987 155.344 4.08138 155.178 3.91504C155.011 3.74642 154.928 3.51742 154.928 3.22803C154.928 2.86117 155.052 2.57861 155.301 2.38037C155.549 2.17985 155.903 2.07959 156.364 2.07959C156.569 2.07959 156.766 2.09896 156.955 2.1377C157.144 2.17415 157.33 2.22998 157.512 2.30518ZM159.734 4.61914H160.937V6H159.734V4.61914ZM165.76 4.08936C165.76 3.60173 165.682 3.23372 165.527 2.98535C165.372 2.73698 165.143 2.61279 164.84 2.61279C164.535 2.61279 164.304 2.73812 164.146 2.98877C163.989 3.23714 163.911 3.604 163.911 4.08936C163.911 4.57243 163.989 4.93929 164.146 5.18994C164.304 5.44059 164.535 5.56592 164.84 5.56592C165.143 5.56592 165.372 5.44173 165.527 5.19336C165.682 4.94499 165.76 4.57699 165.76 4.08936ZM163.911 2.66064C164.011 2.4738 164.149 2.33024 164.324 2.22998C164.502 2.12972 164.707 2.07959 164.939 2.07959C165.4 2.07959 165.762 2.25732 166.026 2.61279C166.291 2.96598 166.423 3.45361 166.423 4.07568C166.423 4.70687 166.29 5.20247 166.023 5.5625C165.759 5.92025 165.395 6.09912 164.933 6.09912C164.705 6.09912 164.503 6.05013 164.328 5.95215C164.154 5.85189 164.015 5.70719 163.911 5.51807V6H163.282V0.681641H163.911V2.66064ZM168.938 1.08496V2.17188H170.367V2.66064H168.938V4.73877C168.938 5.02132 168.992 5.21842 169.099 5.33008C169.206 5.44173 169.393 5.49756 169.66 5.49756H170.367V6H169.598C169.126 6 168.794 5.90544 168.6 5.71631C168.406 5.52718 168.31 5.20133 168.31 4.73877V2.66064H167.288V2.17188H168.31V1.08496H168.938ZM174.65 3.62793V6H174.018V3.62793C174.018 3.28385 173.957 3.03092 173.836 2.86914C173.716 2.70736 173.527 2.62646 173.269 2.62646C172.975 2.62646 172.748 2.73128 172.589 2.94092C172.432 3.14827 172.353 3.44678 172.353 3.83643V6H171.724V2.17188H172.353V2.74609C172.465 2.52734 172.616 2.36214 172.808 2.25049C172.999 2.13656 173.226 2.07959 173.488 2.07959C173.877 2.07959 174.168 2.20833 174.359 2.46582C174.553 2.72103 174.65 3.1084 174.65 3.62793Z" fill="#FF9900"/>
</svg>
