<svg width="83" height="8" viewBox="0 0 83 8" fill="none" xmlns="http://www.w3.org/2000/svg">
<path d="M1.2749 5.41895H3.61963V6H0.519531V5.41895C0.945638 4.97005 1.3182 4.57357 1.63721 4.22949C1.95622 3.88542 2.17611 3.64274 2.29688 3.50146C2.52474 3.22347 2.67855 2.99902 2.7583 2.82812C2.83805 2.65495 2.87793 2.47835 2.87793 2.29834C2.87793 2.01351 2.79362 1.7902 2.625 1.62842C2.45866 1.46663 2.22965 1.38574 1.93799 1.38574C1.73063 1.38574 1.51302 1.42334 1.28516 1.49854C1.05729 1.57373 0.815755 1.68766 0.560547 1.84033V1.14307C0.795247 1.03141 1.02539 0.947103 1.25098 0.890137C1.47884 0.833171 1.70329 0.804688 1.92432 0.804688C2.42334 0.804688 2.82438 0.937988 3.12744 1.20459C3.43278 1.46891 3.58545 1.81641 3.58545 2.24707C3.58545 2.46582 3.53418 2.68457 3.43164 2.90332C3.33138 3.12207 3.16732 3.36361 2.93945 3.62793C2.81185 3.77604 2.62614 3.98112 2.38232 4.24316C2.14079 4.50521 1.77165 4.89714 1.2749 5.41895ZM5.49268 5.41895H7.8374V6H4.7373V5.41895C5.16341 4.97005 5.53597 4.57357 5.85498 4.22949C6.17399 3.88542 6.39388 3.64274 6.51465 3.50146C6.74251 3.22347 6.89632 2.99902 6.97607 2.82812C7.05583 2.65495 7.0957 2.47835 7.0957 2.29834C7.0957 2.01351 7.01139 1.7902 6.84277 1.62842C6.67643 1.46663 6.44743 1.38574 6.15576 1.38574C5.9484 1.38574 5.73079 1.42334 5.50293 1.49854C5.27507 1.57373 5.03353 1.68766 4.77832 1.84033V1.14307C5.01302 1.03141 5.24316 0.947103 5.46875 0.890137C5.69661 0.833171 5.92106 0.804688 6.14209 0.804688C6.64111 0.804688 7.04215 0.937988 7.34521 1.20459C7.65055 1.46891 7.80322 1.81641 7.80322 2.24707C7.80322 2.46582 7.75195 2.68457 7.64941 2.90332C7.54915 3.12207 7.38509 3.36361 7.15723 3.62793C7.02962 3.77604 6.84391 3.98112 6.6001 4.24316C6.35856 4.50521 5.98942 4.89714 5.49268 5.41895Z" fill="white" fill-opacity="0.3"/>
<path d="M78.5674 2.71533V2.09326L82.1802 3.52197V4.08936L78.5674 5.51807V4.89258L81.4727 3.80908L78.5674 2.71533Z" fill="white"/>
</svg>
