<svg width="142" height="8" viewBox="0 0 142 8" fill="none" xmlns="http://www.w3.org/2000/svg">
<path d="M0.922852 5.42236H1.99609V1.56689L0.710938 2.18555V1.52246L1.98926 0.914062H2.67969V5.42236H3.73926V6H0.922852V5.42236ZM4.69287 0.896973H7.90576V1.19092L6.08057 6H5.35938L7.13672 1.47803H4.69287V0.896973Z" fill="white" fill-opacity="0.3"/>
<path d="M82.1802 2.71533L79.2749 3.80908L82.1802 4.89258V5.51807L78.5674 4.08936V3.52197L82.1802 2.09326V2.71533ZM136.136 0.896973H136.786L134.099 6.64941H133.446L136.136 0.896973ZM137.616 2.71533V2.09326L141.229 3.52197V4.08936L137.616 5.51807V4.89258L140.521 3.80908L137.616 2.71533Z" fill="white"/>
<path d="M83.8481 1.46436V3.38184H84.6479C84.967 3.38184 85.2153 3.29753 85.3931 3.12891C85.5731 2.96029 85.6631 2.72445 85.6631 2.42139C85.6631 2.11833 85.5742 1.88363 85.3965 1.71729C85.2188 1.54867 84.9692 1.46436 84.6479 1.46436H83.8481ZM83.1577 0.896973H84.6479C85.2176 0.896973 85.6494 1.02686 85.9434 1.28662C86.2373 1.54411 86.3843 1.92236 86.3843 2.42139C86.3843 2.92497 86.2373 3.3055 85.9434 3.56299C85.6517 3.82048 85.2199 3.94922 84.6479 3.94922H83.8481V6H83.1577V0.896973ZM90.6499 2.96143C90.5155 2.85661 90.3787 2.78027 90.2397 2.73242C90.1007 2.68457 89.9481 2.66064 89.7817 2.66064C89.3898 2.66064 89.0902 2.78369 88.8828 3.02979C88.6755 3.27588 88.5718 3.63135 88.5718 4.09619V6H87.9395V2.17188H88.5718V2.92041C88.6766 2.64925 88.8372 2.44189 89.0537 2.29834C89.2725 2.15251 89.5311 2.07959 89.8296 2.07959C89.9845 2.07959 90.1292 2.09896 90.2637 2.1377C90.3981 2.17643 90.5269 2.23682 90.6499 2.31885V2.96143ZM94.748 3.77148V4.0791H92.0239V4.09961C92.0057 4.62142 92.1048 4.99626 92.3213 5.22412C92.54 5.45199 92.8477 5.56592 93.2441 5.56592C93.4447 5.56592 93.6543 5.53402 93.873 5.47021C94.0918 5.40641 94.3254 5.30957 94.5737 5.17969V5.80518C94.3345 5.90316 94.1032 5.97607 93.8799 6.02393C93.6589 6.07406 93.4447 6.09912 93.2373 6.09912C92.6426 6.09912 92.1777 5.92139 91.8428 5.56592C91.5078 5.20817 91.3403 4.71598 91.3403 4.08936C91.3403 3.47868 91.5044 2.99105 91.8325 2.62646C92.1606 2.26188 92.5981 2.07959 93.145 2.07959C93.6326 2.07959 94.0166 2.24479 94.2969 2.5752C94.5794 2.9056 94.7298 3.30436 94.748 3.77148ZM94.1191 3.58691C94.0918 3.32259 93.995 3.09473 93.8286 2.90332C93.6646 2.70964 93.4276 2.61279 93.1177 2.61279C92.8146 2.61279 92.5651 2.71305 92.3691 2.91357C92.1732 3.1141 92.0661 3.33968 92.0479 3.59033L94.1191 3.58691ZM98.771 0.681641V1.20459H98.0566C97.8311 1.20459 97.6738 1.2513 97.585 1.34473C97.4984 1.43587 97.4551 1.5988 97.4551 1.8335V2.17188H98.771V2.66064H97.4551V6H96.8262V2.66064H95.8042V2.17188H96.8262V1.90527C96.8262 1.486 96.9219 1.17725 97.1133 0.979004C97.307 0.780762 97.6077 0.681641 98.0156 0.681641H98.771ZM103.184 3.77148V4.0791H100.459V4.09961C100.441 4.62142 100.54 4.99626 100.757 5.22412C100.976 5.45199 101.283 5.56592 101.68 5.56592C101.88 5.56592 102.09 5.53402 102.309 5.47021C102.527 5.40641 102.761 5.30957 103.009 5.17969V5.80518C102.77 5.90316 102.539 5.97607 102.315 6.02393C102.094 6.07406 101.88 6.09912 101.673 6.09912C101.078 6.09912 100.613 5.92139 100.278 5.56592C99.9434 5.20817 99.7759 4.71598 99.7759 4.08936C99.7759 3.47868 99.9399 2.99105 100.268 2.62646C100.596 2.26188 101.034 2.07959 101.581 2.07959C102.068 2.07959 102.452 2.24479 102.732 2.5752C103.015 2.9056 103.165 3.30436 103.184 3.77148ZM102.555 3.58691C102.527 3.32259 102.431 3.09473 102.264 2.90332C102.1 2.70964 101.863 2.61279 101.553 2.61279C101.25 2.61279 101.001 2.71305 100.805 2.91357C100.609 3.1141 100.502 3.33968 100.483 3.59033L102.555 3.58691ZM107.521 2.96143C107.387 2.85661 107.25 2.78027 107.111 2.73242C106.972 2.68457 106.819 2.66064 106.653 2.66064C106.261 2.66064 105.961 2.78369 105.754 3.02979C105.547 3.27588 105.443 3.63135 105.443 4.09619V6H104.811V2.17188H105.443V2.92041C105.548 2.64925 105.708 2.44189 105.925 2.29834C106.144 2.15251 106.402 2.07959 106.701 2.07959C106.856 2.07959 107 2.09896 107.135 2.1377C107.269 2.17643 107.398 2.23682 107.521 2.31885V2.96143ZM111.619 3.77148V4.0791H108.895V4.09961C108.877 4.62142 108.976 4.99626 109.192 5.22412C109.411 5.45199 109.719 5.56592 110.115 5.56592C110.316 5.56592 110.525 5.53402 110.744 5.47021C110.963 5.40641 111.196 5.30957 111.445 5.17969V5.80518C111.206 5.90316 110.974 5.97607 110.751 6.02393C110.53 6.07406 110.316 6.09912 110.108 6.09912C109.514 6.09912 109.049 5.92139 108.714 5.56592C108.379 5.20817 108.211 4.71598 108.211 4.08936C108.211 3.47868 108.375 2.99105 108.704 2.62646C109.032 2.26188 109.469 2.07959 110.016 2.07959C110.504 2.07959 110.888 2.24479 111.168 2.5752C111.451 2.9056 111.601 3.30436 111.619 3.77148ZM110.99 3.58691C110.963 3.32259 110.866 3.09473 110.7 2.90332C110.536 2.70964 110.299 2.61279 109.989 2.61279C109.686 2.61279 109.436 2.71305 109.24 2.91357C109.044 3.1141 108.937 3.33968 108.919 3.59033L110.99 3.58691ZM115.601 3.62793V6H114.969V3.62793C114.969 3.28385 114.908 3.03092 114.788 2.86914C114.667 2.70736 114.478 2.62646 114.22 2.62646C113.926 2.62646 113.7 2.73128 113.54 2.94092C113.383 3.14827 113.304 3.44678 113.304 3.83643V6H112.675V2.17188H113.304V2.74609C113.416 2.52734 113.567 2.36214 113.759 2.25049C113.95 2.13656 114.177 2.07959 114.439 2.07959C114.829 2.07959 115.119 2.20833 115.311 2.46582C115.504 2.72103 115.601 3.1084 115.601 3.62793ZM119.853 5.80518C119.684 5.90316 119.51 5.97607 119.33 6.02393C119.152 6.07406 118.97 6.09912 118.783 6.09912C118.191 6.09912 117.727 5.92139 117.392 5.56592C117.059 5.21045 116.893 4.71826 116.893 4.08936C116.893 3.46045 117.059 2.96826 117.392 2.61279C117.727 2.25732 118.191 2.07959 118.783 2.07959C118.968 2.07959 119.148 2.10352 119.323 2.15137C119.499 2.19922 119.675 2.27327 119.853 2.37354V3.0332C119.687 2.88509 119.519 2.77799 119.351 2.71191C119.184 2.64583 118.995 2.61279 118.783 2.61279C118.389 2.61279 118.086 2.7404 117.874 2.99561C117.662 3.25081 117.556 3.6154 117.556 4.08936C117.556 4.56104 117.662 4.92562 117.874 5.18311C118.088 5.43831 118.391 5.56592 118.783 5.56592C119.002 5.56592 119.198 5.53288 119.371 5.4668C119.544 5.39844 119.705 5.29362 119.853 5.15234V5.80518ZM124.272 3.77148V4.0791H121.548V4.09961C121.53 4.62142 121.629 4.99626 121.846 5.22412C122.064 5.45199 122.372 5.56592 122.769 5.56592C122.969 5.56592 123.179 5.53402 123.397 5.47021C123.616 5.40641 123.85 5.30957 124.098 5.17969V5.80518C123.859 5.90316 123.628 5.97607 123.404 6.02393C123.183 6.07406 122.969 6.09912 122.762 6.09912C122.167 6.09912 121.702 5.92139 121.367 5.56592C121.032 5.20817 120.865 4.71598 120.865 4.08936C120.865 3.47868 121.029 2.99105 121.357 2.62646C121.685 2.26188 122.123 2.07959 122.669 2.07959C123.157 2.07959 123.541 2.24479 123.821 2.5752C124.104 2.9056 124.254 3.30436 124.272 3.77148ZM123.644 3.58691C123.616 3.32259 123.519 3.09473 123.353 2.90332C123.189 2.70964 122.952 2.61279 122.642 2.61279C122.339 2.61279 122.09 2.71305 121.894 2.91357C121.698 3.1141 121.59 3.33968 121.572 3.59033L123.644 3.58691ZM127.988 2.30518V2.92041C127.808 2.81559 127.627 2.73698 127.444 2.68457C127.262 2.63216 127.076 2.60596 126.887 2.60596C126.602 2.60596 126.389 2.65267 126.248 2.74609C126.109 2.83724 126.04 2.97738 126.04 3.1665C126.04 3.3374 126.092 3.46501 126.197 3.54932C126.302 3.63363 126.562 3.71566 126.979 3.79541L127.232 3.84326C127.545 3.90251 127.78 4.021 127.94 4.19873C128.102 4.37646 128.183 4.60775 128.183 4.89258C128.183 5.27083 128.048 5.56706 127.779 5.78125C127.51 5.99316 127.137 6.09912 126.658 6.09912C126.469 6.09912 126.271 6.07861 126.063 6.0376C125.856 5.99886 125.632 5.93962 125.39 5.85986V5.21045C125.625 5.33122 125.849 5.42236 126.063 5.48389C126.278 5.54313 126.48 5.57275 126.672 5.57275C126.95 5.57275 127.165 5.51693 127.318 5.40527C127.471 5.29134 127.547 5.13298 127.547 4.93018C127.547 4.63851 127.268 4.43685 126.709 4.3252L126.682 4.31836L126.446 4.27051C126.084 4.19987 125.82 4.08138 125.653 3.91504C125.487 3.74642 125.404 3.51742 125.404 3.22803C125.404 2.86117 125.528 2.57861 125.776 2.38037C126.025 2.17985 126.379 2.07959 126.839 2.07959C127.044 2.07959 127.242 2.09896 127.431 2.1377C127.62 2.17415 127.806 2.22998 127.988 2.30518Z" fill="#FF9900"/>
</svg>
