<svg width="252" height="8" viewBox="0 0 252 8" fill="none" xmlns="http://www.w3.org/2000/svg">
<path d="M0.922852 5.42236H1.99609V1.56689L0.710938 2.18555V1.52246L1.98926 0.914062H2.67969V5.42236H3.73926V6H0.922852V5.42236Z" fill="white" fill-opacity="0.3"/>
<path d="M12.0801 2.18555H13.6899V5.51123H14.9375V6H11.8135V5.51123H13.061V2.67432H12.0801V2.18555ZM13.061 0.69873H13.6899V1.4917H13.061V0.69873ZM17.5283 2.56152C17.6058 2.39746 17.7038 2.27669 17.8223 2.19922C17.943 2.11947 18.0877 2.07959 18.2563 2.07959C18.564 2.07959 18.7804 2.19922 18.9058 2.43848C19.0334 2.67546 19.0972 3.12321 19.0972 3.78174V6H18.5229V3.80908C18.5229 3.26904 18.4922 2.93408 18.4307 2.8042C18.3714 2.67204 18.262 2.60596 18.1025 2.60596C17.9202 2.60596 17.7949 2.6766 17.7266 2.81787C17.6605 2.95687 17.6274 3.28727 17.6274 3.80908V6H17.0532V3.80908C17.0532 3.26221 17.0202 2.92497 16.9541 2.79736C16.8903 2.66976 16.7741 2.60596 16.6055 2.60596C16.4391 2.60596 16.3229 2.6766 16.2568 2.81787C16.193 2.95687 16.1611 3.28727 16.1611 3.80908V6H15.5903V2.17188H16.1611V2.5C16.2363 2.36328 16.3298 2.2596 16.4414 2.18896C16.5553 2.11605 16.6841 2.07959 16.8276 2.07959C17.0008 2.07959 17.1444 2.11947 17.2583 2.19922C17.3745 2.27897 17.4645 2.39974 17.5283 2.56152ZM20.7173 5.51807V7.45605H20.085V2.17188H20.7173V2.66064C20.8221 2.47152 20.9611 2.32796 21.1343 2.22998C21.3097 2.12972 21.5114 2.07959 21.7393 2.07959C22.2018 2.07959 22.5641 2.25846 22.8262 2.61621C23.0905 2.97396 23.2227 3.46956 23.2227 4.10303C23.2227 4.7251 23.0905 5.21387 22.8262 5.56934C22.5618 5.92253 22.1995 6.09912 21.7393 6.09912C21.5068 6.09912 21.3029 6.05013 21.1274 5.95215C20.9543 5.85189 20.8175 5.70719 20.7173 5.51807ZM22.563 4.08936C22.563 3.60173 22.4855 3.23372 22.3306 2.98535C22.1779 2.73698 21.95 2.61279 21.647 2.61279C21.3416 2.61279 21.1104 2.73812 20.9531 2.98877C20.7959 3.23714 20.7173 3.604 20.7173 4.08936C20.7173 4.57243 20.7959 4.93929 20.9531 5.18994C21.1104 5.44059 21.3416 5.56592 21.647 5.56592C21.95 5.56592 22.1779 5.44173 22.3306 5.19336C22.4855 4.94499 22.563 4.57699 22.563 4.08936ZM25.7588 2.61279C25.4398 2.61279 25.1982 2.73698 25.0342 2.98535C24.8701 3.23372 24.7881 3.60173 24.7881 4.08936C24.7881 4.57471 24.8701 4.94271 25.0342 5.19336C25.1982 5.44173 25.4398 5.56592 25.7588 5.56592C26.0801 5.56592 26.3228 5.44173 26.4868 5.19336C26.6509 4.94271 26.7329 4.57471 26.7329 4.08936C26.7329 3.60173 26.6509 3.23372 26.4868 2.98535C26.3228 2.73698 26.0801 2.61279 25.7588 2.61279ZM25.7588 2.07959C26.2897 2.07959 26.6953 2.25163 26.9756 2.5957C27.2581 2.93978 27.3994 3.43766 27.3994 4.08936C27.3994 4.74333 27.2593 5.24235 26.979 5.58643C26.6987 5.92822 26.292 6.09912 25.7588 6.09912C25.2279 6.09912 24.8223 5.92822 24.542 5.58643C24.2617 5.24235 24.1216 4.74333 24.1216 4.08936C24.1216 3.43766 24.2617 2.93978 24.542 2.5957C24.8223 2.25163 25.2279 2.07959 25.7588 2.07959ZM31.8188 2.96143C31.6844 2.85661 31.5477 2.78027 31.4087 2.73242C31.2697 2.68457 31.117 2.66064 30.9507 2.66064C30.5588 2.66064 30.2591 2.78369 30.0518 3.02979C29.8444 3.27588 29.7407 3.63135 29.7407 4.09619V6H29.1084V2.17188H29.7407V2.92041C29.8455 2.64925 30.0062 2.44189 30.2227 2.29834C30.4414 2.15251 30.7 2.07959 30.9985 2.07959C31.1535 2.07959 31.2982 2.09896 31.4326 2.1377C31.5671 2.17643 31.6958 2.23682 31.8188 2.31885V2.96143ZM34.1875 1.08496V2.17188H35.6162V2.66064H34.1875V4.73877C34.1875 5.02132 34.241 5.21842 34.3481 5.33008C34.4552 5.44173 34.6421 5.49756 34.9087 5.49756H35.6162V6H34.8472C34.3755 6 34.0428 5.90544 33.8491 5.71631C33.6554 5.52718 33.5586 5.20133 33.5586 4.73877V2.66064H32.5366V2.17188H33.5586V1.08496H34.1875ZM44.0518 6.17432V6.6665H43.833C43.2656 6.6665 42.8851 6.58219 42.6914 6.41357C42.5 6.24495 42.4043 5.90885 42.4043 5.40527V4.72168C42.4043 4.47331 42.3337 4.25911 42.1924 4.0791C42.0534 3.89909 41.8369 3.80908 41.543 3.80908H41.126V3.32031H41.543C41.8643 3.32031 42.0876 3.24398 42.2129 3.09131C42.3405 2.93864 42.4043 2.71419 42.4043 2.41797V1.5293C42.4043 1.02572 42.5 0.690755 42.6914 0.524414C42.8851 0.355794 43.2656 0.271484 43.833 0.271484H44.0518V0.760254H43.8125C43.4935 0.760254 43.285 0.810384 43.187 0.910645C43.0913 1.00863 43.0435 1.2194 43.0435 1.54297V2.45898C43.0435 2.86003 42.9648 3.13005 42.8076 3.26904C42.6504 3.40576 42.3439 3.50488 41.8882 3.56641C42.3302 3.61882 42.6333 3.72021 42.7974 3.87061C42.9614 4.01872 43.0435 4.2876 43.0435 4.67725V5.3916C43.0435 5.71745 43.0913 5.92936 43.187 6.02734C43.285 6.12533 43.4935 6.17432 43.8125 6.17432H44.0518ZM100.561 6.17432C100.88 6.17432 101.087 6.12533 101.183 6.02734C101.281 5.92936 101.33 5.71745 101.33 5.3916V4.67725C101.33 4.2876 101.412 4.01872 101.576 3.87061C101.74 3.72021 102.043 3.61882 102.485 3.56641C102.03 3.50488 101.723 3.40576 101.566 3.26904C101.409 3.13005 101.33 2.86003 101.33 2.45898V1.54297C101.33 1.2194 101.281 1.00863 101.183 0.910645C101.087 0.810384 100.88 0.760254 100.561 0.760254H100.322V0.271484H100.541C101.108 0.271484 101.487 0.355794 101.679 0.524414C101.872 0.690755 101.969 1.02572 101.969 1.5293V2.41797C101.969 2.71419 102.032 2.93864 102.157 3.09131C102.285 3.24398 102.509 3.32031 102.831 3.32031H103.248V3.80908H102.831C102.537 3.80908 102.319 3.89909 102.178 4.0791C102.039 4.25911 101.969 4.47331 101.969 4.72168V5.40527C101.969 5.90885 101.872 6.24495 101.679 6.41357C101.487 6.58219 101.108 6.6665 100.541 6.6665H100.322V6.17432H100.561ZM111.642 0.681641V1.20459H110.928C110.702 1.20459 110.545 1.2513 110.456 1.34473C110.369 1.43587 110.326 1.5988 110.326 1.8335V2.17188H111.642V2.66064H110.326V6H109.697V2.66064H108.675V2.17188H109.697V1.90527C109.697 1.486 109.793 1.17725 109.984 0.979004C110.178 0.780762 110.479 0.681641 110.887 0.681641H111.642ZM116.174 2.96143C116.04 2.85661 115.903 2.78027 115.764 2.73242C115.625 2.68457 115.472 2.66064 115.306 2.66064C114.914 2.66064 114.615 2.78369 114.407 3.02979C114.2 3.27588 114.096 3.63135 114.096 4.09619V6H113.464V2.17188H114.096V2.92041C114.201 2.64925 114.362 2.44189 114.578 2.29834C114.797 2.15251 115.056 2.07959 115.354 2.07959C115.509 2.07959 115.654 2.09896 115.788 2.1377C115.923 2.17643 116.051 2.23682 116.174 2.31885V2.96143ZM118.55 2.61279C118.231 2.61279 117.989 2.73698 117.825 2.98535C117.661 3.23372 117.579 3.60173 117.579 4.08936C117.579 4.57471 117.661 4.94271 117.825 5.19336C117.989 5.44173 118.231 5.56592 118.55 5.56592C118.871 5.56592 119.114 5.44173 119.278 5.19336C119.442 4.94271 119.524 4.57471 119.524 4.08936C119.524 3.60173 119.442 3.23372 119.278 2.98535C119.114 2.73698 118.871 2.61279 118.55 2.61279ZM118.55 2.07959C119.081 2.07959 119.486 2.25163 119.767 2.5957C120.049 2.93978 120.19 3.43766 120.19 4.08936C120.19 4.74333 120.05 5.24235 119.77 5.58643C119.49 5.92822 119.083 6.09912 118.55 6.09912C118.019 6.09912 117.613 5.92822 117.333 5.58643C117.053 5.24235 116.913 4.74333 116.913 4.08936C116.913 3.43766 117.053 2.93978 117.333 2.5957C117.613 2.25163 118.019 2.07959 118.55 2.07959ZM122.973 2.56152C123.05 2.39746 123.148 2.27669 123.267 2.19922C123.387 2.11947 123.532 2.07959 123.701 2.07959C124.008 2.07959 124.225 2.19922 124.35 2.43848C124.478 2.67546 124.542 3.12321 124.542 3.78174V6H123.967V3.80908C123.967 3.26904 123.937 2.93408 123.875 2.8042C123.816 2.67204 123.706 2.60596 123.547 2.60596C123.365 2.60596 123.239 2.6766 123.171 2.81787C123.105 2.95687 123.072 3.28727 123.072 3.80908V6H122.498V3.80908C122.498 3.26221 122.465 2.92497 122.398 2.79736C122.335 2.66976 122.218 2.60596 122.05 2.60596C121.883 2.60596 121.767 2.6766 121.701 2.81787C121.637 2.95687 121.605 3.28727 121.605 3.80908V6H121.035V2.17188H121.605V2.5C121.681 2.36328 121.774 2.2596 121.886 2.18896C122 2.11605 122.128 2.07959 122.272 2.07959C122.445 2.07959 122.589 2.11947 122.703 2.19922C122.819 2.27897 122.909 2.39974 122.973 2.56152Z" fill="#77B7D7"/>
<path d="M49.6948 0.896973H50.3887V5.41895H52.853V6H49.6948V0.896973ZM54.2578 2.18555H55.8677V5.51123H57.1152V6H53.9912V5.51123H55.2388V2.67432H54.2578V2.18555ZM55.2388 0.69873H55.8677V1.4917H55.2388V0.69873ZM60.7212 2.30518V2.92041C60.5412 2.81559 60.36 2.73698 60.1777 2.68457C59.9954 2.63216 59.8097 2.60596 59.6206 2.60596C59.3358 2.60596 59.1227 2.65267 58.9814 2.74609C58.8424 2.83724 58.7729 2.97738 58.7729 3.1665C58.7729 3.3374 58.8254 3.46501 58.9302 3.54932C59.035 3.63363 59.2959 3.71566 59.7129 3.79541L59.9658 3.84326C60.278 3.90251 60.5138 4.021 60.6733 4.19873C60.8351 4.37646 60.916 4.60775 60.916 4.89258C60.916 5.27083 60.7816 5.56706 60.5127 5.78125C60.2438 5.99316 59.8701 6.09912 59.3916 6.09912C59.2025 6.09912 59.0042 6.07861 58.7969 6.0376C58.5895 5.99886 58.3651 5.93962 58.1235 5.85986V5.21045C58.3582 5.33122 58.5827 5.42236 58.7969 5.48389C59.0111 5.54313 59.2139 5.57275 59.4053 5.57275C59.6833 5.57275 59.8986 5.51693 60.0513 5.40527C60.2039 5.29134 60.2803 5.13298 60.2803 4.93018C60.2803 4.63851 60.0011 4.43685 59.4429 4.3252L59.4155 4.31836L59.1797 4.27051C58.8174 4.19987 58.5531 4.08138 58.3867 3.91504C58.2204 3.74642 58.1372 3.51742 58.1372 3.22803C58.1372 2.86117 58.2614 2.57861 58.5098 2.38037C58.7581 2.17985 59.1125 2.07959 59.5728 2.07959C59.7778 2.07959 59.9749 2.09896 60.1641 2.1377C60.3532 2.17415 60.5389 2.22998 60.7212 2.30518ZM63.7119 1.08496V2.17188H65.1406V2.66064H63.7119V4.73877C63.7119 5.02132 63.7655 5.21842 63.8726 5.33008C63.9797 5.44173 64.1665 5.49756 64.4331 5.49756H65.1406V6H64.3716C63.8999 6 63.5672 5.90544 63.3735 5.71631C63.1799 5.52718 63.083 5.20133 63.083 4.73877V2.66064H62.061V2.17188H63.083V1.08496H63.7119ZM66.9111 2.18555H68.521V5.51123H69.7686V6H66.6445V5.51123H67.8921V2.67432H66.9111V2.18555ZM67.8921 0.69873H68.521V1.4917H67.8921V0.69873ZM73.6411 3.62793V6H73.0088V3.62793C73.0088 3.28385 72.9484 3.03092 72.8276 2.86914C72.7069 2.70736 72.5177 2.62646 72.2603 2.62646C71.9663 2.62646 71.7396 2.73128 71.5801 2.94092C71.4229 3.14827 71.3442 3.44678 71.3442 3.83643V6H70.7153V2.17188H71.3442V2.74609C71.4559 2.52734 71.6074 2.36214 71.7988 2.25049C71.9902 2.13656 72.217 2.07959 72.479 2.07959C72.8687 2.07959 73.1592 2.20833 73.3506 2.46582C73.5443 2.72103 73.6411 3.1084 73.6411 3.62793ZM77.1992 4.05518C77.1992 3.5835 77.1217 3.22575 76.9668 2.98193C76.8141 2.73584 76.5908 2.61279 76.2969 2.61279C75.9893 2.61279 75.7546 2.73584 75.5928 2.98193C75.431 3.22575 75.3501 3.5835 75.3501 4.05518C75.3501 4.52686 75.431 4.88688 75.5928 5.13525C75.7568 5.38135 75.9938 5.50439 76.3037 5.50439C76.5931 5.50439 76.8141 5.38021 76.9668 5.13184C77.1217 4.88346 77.1992 4.52458 77.1992 4.05518ZM77.8281 5.75391C77.8281 6.32812 77.6925 6.76335 77.4214 7.05957C77.1502 7.35579 76.7515 7.50391 76.2251 7.50391C76.0519 7.50391 75.8708 7.48796 75.6816 7.45605C75.4925 7.42415 75.3034 7.37744 75.1143 7.31592V6.69385C75.3376 6.79867 75.5404 6.87614 75.7227 6.92627C75.9049 6.9764 76.0724 7.00146 76.2251 7.00146C76.5646 7.00146 76.8118 6.90918 76.9668 6.72461C77.1217 6.54004 77.1992 6.24723 77.1992 5.84619V5.81885V5.3916C77.099 5.60579 76.9622 5.7653 76.7891 5.87012C76.6159 5.97493 76.4051 6.02734 76.1567 6.02734C75.7101 6.02734 75.3535 5.84847 75.0869 5.49072C74.8203 5.13298 74.687 4.65446 74.687 4.05518C74.687 3.45361 74.8203 2.97396 75.0869 2.61621C75.3535 2.25846 75.7101 2.07959 76.1567 2.07959C76.4028 2.07959 76.6113 2.12858 76.7822 2.22656C76.9531 2.32454 77.0921 2.47607 77.1992 2.68115V2.18555H77.8281V5.75391ZM81.8101 2.30518V2.92041C81.63 2.81559 81.4489 2.73698 81.2666 2.68457C81.0843 2.63216 80.8986 2.60596 80.7095 2.60596C80.4246 2.60596 80.2116 2.65267 80.0703 2.74609C79.9313 2.83724 79.8618 2.97738 79.8618 3.1665C79.8618 3.3374 79.9142 3.46501 80.019 3.54932C80.1239 3.63363 80.3848 3.71566 80.8018 3.79541L81.0547 3.84326C81.3669 3.90251 81.6027 4.021 81.7622 4.19873C81.924 4.37646 82.0049 4.60775 82.0049 4.89258C82.0049 5.27083 81.8704 5.56706 81.6016 5.78125C81.3327 5.99316 80.959 6.09912 80.4805 6.09912C80.2913 6.09912 80.0931 6.07861 79.8857 6.0376C79.6784 5.99886 79.4539 5.93962 79.2124 5.85986V5.21045C79.4471 5.33122 79.6715 5.42236 79.8857 5.48389C80.0999 5.54313 80.3027 5.57275 80.4941 5.57275C80.7721 5.57275 80.9875 5.51693 81.1401 5.40527C81.2928 5.29134 81.3691 5.13298 81.3691 4.93018C81.3691 4.63851 81.09 4.43685 80.5317 4.3252L80.5044 4.31836L80.2686 4.27051C79.9062 4.19987 79.6419 4.08138 79.4756 3.91504C79.3092 3.74642 79.2261 3.51742 79.2261 3.22803C79.2261 2.86117 79.3503 2.57861 79.5986 2.38037C79.847 2.17985 80.2013 2.07959 80.6616 2.07959C80.8667 2.07959 81.0638 2.09896 81.2529 2.1377C81.4421 2.17415 81.6278 2.22998 81.8101 2.30518ZM83.1704 0.896973H83.8643V2.85205H85.7544V0.896973H86.4482V6H85.7544V3.43311H83.8643V6H83.1704V0.896973ZM90.8677 2.96143C90.7332 2.85661 90.5965 2.78027 90.4575 2.73242C90.3185 2.68457 90.1659 2.66064 89.9995 2.66064C89.6076 2.66064 89.3079 2.78369 89.1006 3.02979C88.8932 3.27588 88.7896 3.63135 88.7896 4.09619V6H88.1572V2.17188H88.7896V2.92041C88.8944 2.64925 89.055 2.44189 89.2715 2.29834C89.4902 2.15251 89.7489 2.07959 90.0474 2.07959C90.2023 2.07959 90.347 2.09896 90.4814 2.1377C90.6159 2.17643 90.7446 2.23682 90.8677 2.31885V2.96143ZM94.4634 2.30518V2.92041C94.2834 2.81559 94.1022 2.73698 93.9199 2.68457C93.7376 2.63216 93.5519 2.60596 93.3628 2.60596C93.078 2.60596 92.8649 2.65267 92.7236 2.74609C92.5846 2.83724 92.5151 2.97738 92.5151 3.1665C92.5151 3.3374 92.5675 3.46501 92.6724 3.54932C92.7772 3.63363 93.0381 3.71566 93.4551 3.79541L93.708 3.84326C94.0202 3.90251 94.256 4.021 94.4155 4.19873C94.5773 4.37646 94.6582 4.60775 94.6582 4.89258C94.6582 5.27083 94.5238 5.56706 94.2549 5.78125C93.986 5.99316 93.6123 6.09912 93.1338 6.09912C92.9447 6.09912 92.7464 6.07861 92.5391 6.0376C92.3317 5.99886 92.1073 5.93962 91.8657 5.85986V5.21045C92.1004 5.33122 92.3249 5.42236 92.5391 5.48389C92.7533 5.54313 92.9561 5.57275 93.1475 5.57275C93.4255 5.57275 93.6408 5.51693 93.7935 5.40527C93.9461 5.29134 94.0225 5.13298 94.0225 4.93018C94.0225 4.63851 93.7433 4.43685 93.1851 4.3252L93.1577 4.31836L92.9219 4.27051C92.5596 4.19987 92.2952 4.08138 92.1289 3.91504C91.9626 3.74642 91.8794 3.51742 91.8794 3.22803C91.8794 2.86117 92.0036 2.57861 92.252 2.38037C92.5003 2.17985 92.8547 2.07959 93.3149 2.07959C93.52 2.07959 93.7171 2.09896 93.9062 2.1377C94.0954 2.17415 94.2811 2.22998 94.4634 2.30518ZM132.328 0.712402V2.8042H131.562V0.712402H132.328ZM130.506 0.712402V2.8042H129.74V0.712402H130.506ZM246.208 0.712402V2.8042H245.442V0.712402H246.208ZM244.386 0.712402V2.8042H243.62V0.712402H244.386ZM248.706 4.76611H249.772V5.67188L249.099 6.97754H248.368L248.706 5.67188V4.76611ZM248.662 2.17529H249.728V3.40918H248.662V2.17529Z" fill="white"/>
<path d="M134.645 4.61914H135.848V6H134.645V4.61914ZM140.572 0.896973H141.221L138.535 6.64941H137.882L140.572 0.896973ZM144.208 4.61572C144.208 4.89827 144.26 5.11133 144.362 5.25488C144.467 5.39844 144.621 5.47021 144.824 5.47021H145.559V6H144.762C144.386 6 144.095 5.88037 143.887 5.64111C143.682 5.39958 143.58 5.05778 143.58 4.61572V1.15332H142.571V0.661133H144.208V4.61572ZM147.049 2.18555H148.659V5.51123H149.906V6H146.782V5.51123H148.03V2.67432H147.049V2.18555ZM148.03 0.69873H148.659V1.4917H148.03V0.69873ZM153.512 2.30518V2.92041C153.332 2.81559 153.151 2.73698 152.969 2.68457C152.786 2.63216 152.601 2.60596 152.412 2.60596C152.127 2.60596 151.914 2.65267 151.772 2.74609C151.633 2.83724 151.564 2.97738 151.564 3.1665C151.564 3.3374 151.616 3.46501 151.721 3.54932C151.826 3.63363 152.087 3.71566 152.504 3.79541L152.757 3.84326C153.069 3.90251 153.305 4.021 153.464 4.19873C153.626 4.37646 153.707 4.60775 153.707 4.89258C153.707 5.27083 153.573 5.56706 153.304 5.78125C153.035 5.99316 152.661 6.09912 152.183 6.09912C151.993 6.09912 151.795 6.07861 151.588 6.0376C151.381 5.99886 151.156 5.93962 150.915 5.85986V5.21045C151.149 5.33122 151.374 5.42236 151.588 5.48389C151.802 5.54313 152.005 5.57275 152.196 5.57275C152.474 5.57275 152.69 5.51693 152.842 5.40527C152.995 5.29134 153.071 5.13298 153.071 4.93018C153.071 4.63851 152.792 4.43685 152.234 4.3252L152.207 4.31836L151.971 4.27051C151.608 4.19987 151.344 4.08138 151.178 3.91504C151.011 3.74642 150.928 3.51742 150.928 3.22803C150.928 2.86117 151.052 2.57861 151.301 2.38037C151.549 2.17985 151.903 2.07959 152.364 2.07959C152.569 2.07959 152.766 2.09896 152.955 2.1377C153.144 2.17415 153.33 2.22998 153.512 2.30518ZM156.503 1.08496V2.17188H157.932V2.66064H156.503V4.73877C156.503 5.02132 156.556 5.21842 156.664 5.33008C156.771 5.44173 156.958 5.49756 157.224 5.49756H157.932V6H157.163C156.691 6 156.358 5.90544 156.165 5.71631C155.971 5.52718 155.874 5.20133 155.874 4.73877V2.66064H154.852V2.17188H155.874V1.08496H156.503ZM159.702 2.18555H161.312V5.51123H162.56V6H159.436V5.51123H160.683V2.67432H159.702V2.18555ZM160.683 0.69873H161.312V1.4917H160.683V0.69873ZM166.432 3.62793V6H165.8V3.62793C165.8 3.28385 165.739 3.03092 165.619 2.86914C165.498 2.70736 165.309 2.62646 165.051 2.62646C164.757 2.62646 164.531 2.73128 164.371 2.94092C164.214 3.14827 164.135 3.44678 164.135 3.83643V6H163.506V2.17188H164.135V2.74609C164.247 2.52734 164.398 2.36214 164.59 2.25049C164.781 2.13656 165.008 2.07959 165.27 2.07959C165.66 2.07959 165.95 2.20833 166.142 2.46582C166.335 2.72103 166.432 3.1084 166.432 3.62793ZM169.99 4.05518C169.99 3.5835 169.913 3.22575 169.758 2.98193C169.605 2.73584 169.382 2.61279 169.088 2.61279C168.78 2.61279 168.546 2.73584 168.384 2.98193C168.222 3.22575 168.141 3.5835 168.141 4.05518C168.141 4.52686 168.222 4.88688 168.384 5.13525C168.548 5.38135 168.785 5.50439 169.095 5.50439C169.384 5.50439 169.605 5.38021 169.758 5.13184C169.913 4.88346 169.99 4.52458 169.99 4.05518ZM170.619 5.75391C170.619 6.32812 170.484 6.76335 170.212 7.05957C169.941 7.35579 169.542 7.50391 169.016 7.50391C168.843 7.50391 168.662 7.48796 168.473 7.45605C168.284 7.42415 168.094 7.37744 167.905 7.31592V6.69385C168.129 6.79867 168.331 6.87614 168.514 6.92627C168.696 6.9764 168.863 7.00146 169.016 7.00146C169.356 7.00146 169.603 6.90918 169.758 6.72461C169.913 6.54004 169.99 6.24723 169.99 5.84619V5.81885V5.3916C169.89 5.60579 169.753 5.7653 169.58 5.87012C169.407 5.97493 169.196 6.02734 168.948 6.02734C168.501 6.02734 168.145 5.84847 167.878 5.49072C167.611 5.13298 167.478 4.65446 167.478 4.05518C167.478 3.45361 167.611 2.97396 167.878 2.61621C168.145 2.25846 168.501 2.07959 168.948 2.07959C169.194 2.07959 169.402 2.12858 169.573 2.22656C169.744 2.32454 169.883 2.47607 169.99 2.68115V2.18555H170.619V5.75391ZM174.601 2.30518V2.92041C174.421 2.81559 174.24 2.73698 174.058 2.68457C173.875 2.63216 173.69 2.60596 173.5 2.60596C173.216 2.60596 173.003 2.65267 172.861 2.74609C172.722 2.83724 172.653 2.97738 172.653 3.1665C172.653 3.3374 172.705 3.46501 172.81 3.54932C172.915 3.63363 173.176 3.71566 173.593 3.79541L173.846 3.84326C174.158 3.90251 174.394 4.021 174.553 4.19873C174.715 4.37646 174.796 4.60775 174.796 4.89258C174.796 5.27083 174.661 5.56706 174.393 5.78125C174.124 5.99316 173.75 6.09912 173.271 6.09912C173.082 6.09912 172.884 6.07861 172.677 6.0376C172.469 5.99886 172.245 5.93962 172.003 5.85986V5.21045C172.238 5.33122 172.463 5.42236 172.677 5.48389C172.891 5.54313 173.094 5.57275 173.285 5.57275C173.563 5.57275 173.778 5.51693 173.931 5.40527C174.084 5.29134 174.16 5.13298 174.16 4.93018C174.16 4.63851 173.881 4.43685 173.323 4.3252L173.295 4.31836L173.06 4.27051C172.697 4.19987 172.433 4.08138 172.267 3.91504C172.1 3.74642 172.017 3.51742 172.017 3.22803C172.017 2.86117 172.141 2.57861 172.39 2.38037C172.638 2.17985 172.992 2.07959 173.453 2.07959C173.658 2.07959 173.855 2.09896 174.044 2.1377C174.233 2.17415 174.419 2.22998 174.601 2.30518ZM175.842 3.52539H179.465V4.10303H175.842V3.52539ZM183.303 3.62793V6H182.671V3.62793C182.671 3.28385 182.611 3.03092 182.49 2.86914C182.369 2.70736 182.18 2.62646 181.922 2.62646C181.628 2.62646 181.402 2.73128 181.242 2.94092C181.085 3.14827 181.006 3.44678 181.006 3.83643V6H180.377V0.681641H181.006V2.74609C181.118 2.52734 181.27 2.36214 181.461 2.25049C181.652 2.13656 181.879 2.07959 182.141 2.07959C182.531 2.07959 182.821 2.20833 183.013 2.46582C183.206 2.72103 183.303 3.1084 183.303 3.62793ZM187.876 2.96143C187.742 2.85661 187.605 2.78027 187.466 2.73242C187.327 2.68457 187.175 2.66064 187.008 2.66064C186.616 2.66064 186.317 2.78369 186.109 3.02979C185.902 3.27588 185.798 3.63135 185.798 4.09619V6H185.166V2.17188H185.798V2.92041C185.903 2.64925 186.064 2.44189 186.28 2.29834C186.499 2.15251 186.758 2.07959 187.056 2.07959C187.211 2.07959 187.356 2.09896 187.49 2.1377C187.625 2.17643 187.753 2.23682 187.876 2.31885V2.96143ZM191.472 2.30518V2.92041C191.292 2.81559 191.111 2.73698 190.929 2.68457C190.746 2.63216 190.561 2.60596 190.372 2.60596C190.087 2.60596 189.874 2.65267 189.732 2.74609C189.593 2.83724 189.524 2.97738 189.524 3.1665C189.524 3.3374 189.576 3.46501 189.681 3.54932C189.786 3.63363 190.047 3.71566 190.464 3.79541L190.717 3.84326C191.029 3.90251 191.265 4.021 191.424 4.19873C191.586 4.37646 191.667 4.60775 191.667 4.89258C191.667 5.27083 191.533 5.56706 191.264 5.78125C190.995 5.99316 190.621 6.09912 190.143 6.09912C189.953 6.09912 189.755 6.07861 189.548 6.0376C189.34 5.99886 189.116 5.93962 188.875 5.85986V5.21045C189.109 5.33122 189.334 5.42236 189.548 5.48389C189.762 5.54313 189.965 5.57275 190.156 5.57275C190.434 5.57275 190.65 5.51693 190.802 5.40527C190.955 5.29134 191.031 5.13298 191.031 4.93018C191.031 4.63851 190.752 4.43685 190.194 4.3252L190.167 4.31836L189.931 4.27051C189.568 4.19987 189.304 4.08138 189.138 3.91504C188.971 3.74642 188.888 3.51742 188.888 3.22803C188.888 2.86117 189.012 2.57861 189.261 2.38037C189.509 2.17985 189.863 2.07959 190.324 2.07959C190.529 2.07959 190.726 2.09896 190.915 2.1377C191.104 2.17415 191.29 2.22998 191.472 2.30518ZM195.403 0.896973H196.052L193.366 6.64941H192.713L195.403 0.896973ZM197.317 0.896973H198.011V5.41895H200.475V6H197.317V0.896973ZM201.88 2.18555H203.49V5.51123H204.737V6H201.613V5.51123H202.861V2.67432H201.88V2.18555ZM202.861 0.69873H203.49V1.4917H202.861V0.69873ZM208.343 2.30518V2.92041C208.163 2.81559 207.982 2.73698 207.8 2.68457C207.618 2.63216 207.432 2.60596 207.243 2.60596C206.958 2.60596 206.745 2.65267 206.604 2.74609C206.465 2.83724 206.395 2.97738 206.395 3.1665C206.395 3.3374 206.447 3.46501 206.552 3.54932C206.657 3.63363 206.918 3.71566 207.335 3.79541L207.588 3.84326C207.9 3.90251 208.136 4.021 208.295 4.19873C208.457 4.37646 208.538 4.60775 208.538 4.89258C208.538 5.27083 208.404 5.56706 208.135 5.78125C207.866 5.99316 207.492 6.09912 207.014 6.09912C206.825 6.09912 206.626 6.07861 206.419 6.0376C206.212 5.99886 205.987 5.93962 205.746 5.85986V5.21045C205.98 5.33122 206.205 5.42236 206.419 5.48389C206.633 5.54313 206.836 5.57275 207.027 5.57275C207.305 5.57275 207.521 5.51693 207.673 5.40527C207.826 5.29134 207.902 5.13298 207.902 4.93018C207.902 4.63851 207.623 4.43685 207.065 4.3252L207.038 4.31836L206.802 4.27051C206.439 4.19987 206.175 4.08138 206.009 3.91504C205.842 3.74642 205.759 3.51742 205.759 3.22803C205.759 2.86117 205.883 2.57861 206.132 2.38037C206.38 2.17985 206.735 2.07959 207.195 2.07959C207.4 2.07959 207.597 2.09896 207.786 2.1377C207.975 2.17415 208.161 2.22998 208.343 2.30518ZM211.334 1.08496V2.17188H212.763V2.66064H211.334V4.73877C211.334 5.02132 211.388 5.21842 211.495 5.33008C211.602 5.44173 211.789 5.49756 212.055 5.49756H212.763V6H211.994C211.522 6 211.189 5.90544 210.996 5.71631C210.802 5.52718 210.705 5.20133 210.705 4.73877V2.66064H209.683V2.17188H210.705V1.08496H211.334ZM214.533 2.18555H216.143V5.51123H217.391V6H214.267V5.51123H215.514V2.67432H214.533V2.18555ZM215.514 0.69873H216.143V1.4917H215.514V0.69873ZM221.263 3.62793V6H220.631V3.62793C220.631 3.28385 220.57 3.03092 220.45 2.86914C220.329 2.70736 220.14 2.62646 219.882 2.62646C219.588 2.62646 219.362 2.73128 219.202 2.94092C219.045 3.14827 218.966 3.44678 218.966 3.83643V6H218.337V2.17188H218.966V2.74609C219.078 2.52734 219.229 2.36214 219.421 2.25049C219.612 2.13656 219.839 2.07959 220.101 2.07959C220.491 2.07959 220.781 2.20833 220.973 2.46582C221.166 2.72103 221.263 3.1084 221.263 3.62793ZM224.821 4.05518C224.821 3.5835 224.744 3.22575 224.589 2.98193C224.436 2.73584 224.213 2.61279 223.919 2.61279C223.611 2.61279 223.377 2.73584 223.215 2.98193C223.053 3.22575 222.972 3.5835 222.972 4.05518C222.972 4.52686 223.053 4.88688 223.215 5.13525C223.379 5.38135 223.616 5.50439 223.926 5.50439C224.215 5.50439 224.436 5.38021 224.589 5.13184C224.744 4.88346 224.821 4.52458 224.821 4.05518ZM225.45 5.75391C225.45 6.32812 225.315 6.76335 225.043 7.05957C224.772 7.35579 224.374 7.50391 223.847 7.50391C223.674 7.50391 223.493 7.48796 223.304 7.45605C223.115 7.42415 222.925 7.37744 222.736 7.31592V6.69385C222.96 6.79867 223.162 6.87614 223.345 6.92627C223.527 6.9764 223.694 7.00146 223.847 7.00146C224.187 7.00146 224.434 6.90918 224.589 6.72461C224.744 6.54004 224.821 6.24723 224.821 5.84619V5.81885V5.3916C224.721 5.60579 224.584 5.7653 224.411 5.87012C224.238 5.97493 224.027 6.02734 223.779 6.02734C223.332 6.02734 222.976 5.84847 222.709 5.49072C222.442 5.13298 222.309 4.65446 222.309 4.05518C222.309 3.45361 222.442 2.97396 222.709 2.61621C222.976 2.25846 223.332 2.07959 223.779 2.07959C224.025 2.07959 224.233 2.12858 224.404 2.22656C224.575 2.32454 224.714 2.47607 224.821 2.68115V2.18555H225.45V5.75391ZM229.432 2.30518V2.92041C229.252 2.81559 229.071 2.73698 228.889 2.68457C228.706 2.63216 228.521 2.60596 228.332 2.60596C228.047 2.60596 227.834 2.65267 227.692 2.74609C227.553 2.83724 227.484 2.97738 227.484 3.1665C227.484 3.3374 227.536 3.46501 227.641 3.54932C227.746 3.63363 228.007 3.71566 228.424 3.79541L228.677 3.84326C228.989 3.90251 229.225 4.021 229.384 4.19873C229.546 4.37646 229.627 4.60775 229.627 4.89258C229.627 5.27083 229.493 5.56706 229.224 5.78125C228.955 5.99316 228.581 6.09912 228.103 6.09912C227.913 6.09912 227.715 6.07861 227.508 6.0376C227.3 5.99886 227.076 5.93962 226.834 5.85986V5.21045C227.069 5.33122 227.294 5.42236 227.508 5.48389C227.722 5.54313 227.925 5.57275 228.116 5.57275C228.394 5.57275 228.61 5.51693 228.762 5.40527C228.915 5.29134 228.991 5.13298 228.991 4.93018C228.991 4.63851 228.712 4.43685 228.154 4.3252L228.126 4.31836L227.891 4.27051C227.528 4.19987 227.264 4.08138 227.098 3.91504C226.931 3.74642 226.848 3.51742 226.848 3.22803C226.848 2.86117 226.972 2.57861 227.221 2.38037C227.469 2.17985 227.823 2.07959 228.284 2.07959C228.489 2.07959 228.686 2.09896 228.875 2.1377C229.064 2.17415 229.25 2.22998 229.432 2.30518ZM230.792 0.896973H231.486V2.85205H233.376V0.896973H234.07V6H233.376V3.43311H231.486V6H230.792V0.896973ZM238.49 2.96143C238.355 2.85661 238.219 2.78027 238.08 2.73242C237.941 2.68457 237.788 2.66064 237.622 2.66064C237.23 2.66064 236.93 2.78369 236.723 3.02979C236.515 3.27588 236.412 3.63135 236.412 4.09619V6H235.779V2.17188H236.412V2.92041C236.516 2.64925 236.677 2.44189 236.894 2.29834C237.112 2.15251 237.371 2.07959 237.669 2.07959C237.824 2.07959 237.969 2.09896 238.104 2.1377C238.238 2.17643 238.367 2.23682 238.49 2.31885V2.96143ZM242.085 2.30518V2.92041C241.905 2.81559 241.724 2.73698 241.542 2.68457C241.36 2.63216 241.174 2.60596 240.985 2.60596C240.7 2.60596 240.487 2.65267 240.346 2.74609C240.207 2.83724 240.137 2.97738 240.137 3.1665C240.137 3.3374 240.19 3.46501 240.294 3.54932C240.399 3.63363 240.66 3.71566 241.077 3.79541L241.33 3.84326C241.642 3.90251 241.878 4.021 242.038 4.19873C242.199 4.37646 242.28 4.60775 242.28 4.89258C242.28 5.27083 242.146 5.56706 241.877 5.78125C241.608 5.99316 241.234 6.09912 240.756 6.09912C240.567 6.09912 240.368 6.07861 240.161 6.0376C239.954 5.99886 239.729 5.93962 239.488 5.85986V5.21045C239.722 5.33122 239.947 5.42236 240.161 5.48389C240.375 5.54313 240.578 5.57275 240.77 5.57275C241.048 5.57275 241.263 5.51693 241.416 5.40527C241.568 5.29134 241.645 5.13298 241.645 4.93018C241.645 4.63851 241.365 4.43685 240.807 4.3252L240.78 4.31836L240.544 4.27051C240.182 4.19987 239.917 4.08138 239.751 3.91504C239.585 3.74642 239.501 3.51742 239.501 3.22803C239.501 2.86117 239.626 2.57861 239.874 2.38037C240.122 2.17985 240.477 2.07959 240.937 2.07959C241.142 2.07959 241.339 2.09896 241.528 2.1377C241.717 2.17415 241.903 2.22998 242.085 2.30518Z" fill="#977CDC"/>
</svg>
