<svg width="142" height="8" viewBox="0 0 142 8" fill="none" xmlns="http://www.w3.org/2000/svg">
<path d="M0.922852 5.42236H1.99609V1.56689L0.710938 2.18555V1.52246L1.98926 0.914062H2.67969V5.42236H3.73926V6H0.922852V5.42236ZM6.72998 1.52588L5.12012 4.22266H6.72998V1.52588ZM6.61719 0.896973H7.41699V4.22266H8.09717V4.7832H7.41699V6H6.72998V4.7832H4.56641V4.13037L6.61719 0.896973Z" fill="white" fill-opacity="0.3"/>
<path d="M82.1802 2.71533L79.2749 3.80908L82.1802 4.89258V5.51807L78.5674 4.08936V3.52197L82.1802 2.09326V2.71533ZM136.136 0.896973H136.786L134.099 6.64941H133.446L136.136 0.896973ZM137.616 2.71533V2.09326L141.229 3.52197V4.08936L137.616 5.51807V4.89258L140.521 3.80908L137.616 2.71533Z" fill="white"/>
<path d="M83.2192 0.896973H83.9131V5.41895H86.3774V6H83.2192V0.896973ZM87.7822 2.18555H89.3921V5.51123H90.6396V6H87.5156V5.51123H88.7632V2.67432H87.7822V2.18555ZM88.7632 0.69873H89.3921V1.4917H88.7632V0.69873ZM94.2456 2.30518V2.92041C94.0656 2.81559 93.8844 2.73698 93.7021 2.68457C93.5199 2.63216 93.3341 2.60596 93.145 2.60596C92.8602 2.60596 92.6471 2.65267 92.5059 2.74609C92.3669 2.83724 92.2974 2.97738 92.2974 3.1665C92.2974 3.3374 92.3498 3.46501 92.4546 3.54932C92.5594 3.63363 92.8203 3.71566 93.2373 3.79541L93.4902 3.84326C93.8024 3.90251 94.0382 4.021 94.1978 4.19873C94.3595 4.37646 94.4404 4.60775 94.4404 4.89258C94.4404 5.27083 94.306 5.56706 94.0371 5.78125C93.7682 5.99316 93.3945 6.09912 92.916 6.09912C92.7269 6.09912 92.5286 6.07861 92.3213 6.0376C92.1139 5.99886 91.8895 5.93962 91.6479 5.85986V5.21045C91.8826 5.33122 92.1071 5.42236 92.3213 5.48389C92.5355 5.54313 92.7383 5.57275 92.9297 5.57275C93.2077 5.57275 93.423 5.51693 93.5757 5.40527C93.7284 5.29134 93.8047 5.13298 93.8047 4.93018C93.8047 4.63851 93.5256 4.43685 92.9673 4.3252L92.9399 4.31836L92.7041 4.27051C92.3418 4.19987 92.0775 4.08138 91.9111 3.91504C91.7448 3.74642 91.6616 3.51742 91.6616 3.22803C91.6616 2.86117 91.7858 2.57861 92.0342 2.38037C92.2826 2.17985 92.6369 2.07959 93.0972 2.07959C93.3022 2.07959 93.4993 2.09896 93.6885 2.1377C93.8776 2.17415 94.0633 2.22998 94.2456 2.30518ZM97.2363 1.08496V2.17188H98.665V2.66064H97.2363V4.73877C97.2363 5.02132 97.2899 5.21842 97.397 5.33008C97.5041 5.44173 97.6909 5.49756 97.9575 5.49756H98.665V6H97.896C97.4243 6 97.0916 5.90544 96.8979 5.71631C96.7043 5.52718 96.6074 5.20133 96.6074 4.73877V2.66064H95.5854V2.17188H96.6074V1.08496H97.2363ZM100.436 2.18555H102.045V5.51123H103.293V6H100.169V5.51123H101.417V2.67432H100.436V2.18555ZM101.417 0.69873H102.045V1.4917H101.417V0.69873ZM107.166 3.62793V6H106.533V3.62793C106.533 3.28385 106.473 3.03092 106.352 2.86914C106.231 2.70736 106.042 2.62646 105.785 2.62646C105.491 2.62646 105.264 2.73128 105.104 2.94092C104.947 3.14827 104.869 3.44678 104.869 3.83643V6H104.24V2.17188H104.869V2.74609C104.98 2.52734 105.132 2.36214 105.323 2.25049C105.515 2.13656 105.741 2.07959 106.003 2.07959C106.393 2.07959 106.684 2.20833 106.875 2.46582C107.069 2.72103 107.166 3.1084 107.166 3.62793ZM110.724 4.05518C110.724 3.5835 110.646 3.22575 110.491 2.98193C110.339 2.73584 110.115 2.61279 109.821 2.61279C109.514 2.61279 109.279 2.73584 109.117 2.98193C108.955 3.22575 108.875 3.5835 108.875 4.05518C108.875 4.52686 108.955 4.88688 109.117 5.13525C109.281 5.38135 109.518 5.50439 109.828 5.50439C110.118 5.50439 110.339 5.38021 110.491 5.13184C110.646 4.88346 110.724 4.52458 110.724 4.05518ZM111.353 5.75391C111.353 6.32812 111.217 6.76335 110.946 7.05957C110.675 7.35579 110.276 7.50391 109.75 7.50391C109.576 7.50391 109.395 7.48796 109.206 7.45605C109.017 7.42415 108.828 7.37744 108.639 7.31592V6.69385C108.862 6.79867 109.065 6.87614 109.247 6.92627C109.429 6.9764 109.597 7.00146 109.75 7.00146C110.089 7.00146 110.336 6.90918 110.491 6.72461C110.646 6.54004 110.724 6.24723 110.724 5.84619V5.81885V5.3916C110.623 5.60579 110.487 5.7653 110.313 5.87012C110.14 5.97493 109.93 6.02734 109.681 6.02734C109.235 6.02734 108.878 5.84847 108.611 5.49072C108.345 5.13298 108.211 4.65446 108.211 4.05518C108.211 3.45361 108.345 2.97396 108.611 2.61621C108.878 2.25846 109.235 2.07959 109.681 2.07959C109.927 2.07959 110.136 2.12858 110.307 2.22656C110.478 2.32454 110.617 2.47607 110.724 2.68115V2.18555H111.353V5.75391ZM115.334 2.30518V2.92041C115.154 2.81559 114.973 2.73698 114.791 2.68457C114.609 2.63216 114.423 2.60596 114.234 2.60596C113.949 2.60596 113.736 2.65267 113.595 2.74609C113.456 2.83724 113.386 2.97738 113.386 3.1665C113.386 3.3374 113.439 3.46501 113.543 3.54932C113.648 3.63363 113.909 3.71566 114.326 3.79541L114.579 3.84326C114.891 3.90251 115.127 4.021 115.287 4.19873C115.448 4.37646 115.529 4.60775 115.529 4.89258C115.529 5.27083 115.395 5.56706 115.126 5.78125C114.857 5.99316 114.483 6.09912 114.005 6.09912C113.816 6.09912 113.618 6.07861 113.41 6.0376C113.203 5.99886 112.978 5.93962 112.737 5.85986V5.21045C112.972 5.33122 113.196 5.42236 113.41 5.48389C113.624 5.54313 113.827 5.57275 114.019 5.57275C114.297 5.57275 114.512 5.51693 114.665 5.40527C114.817 5.29134 114.894 5.13298 114.894 4.93018C114.894 4.63851 114.614 4.43685 114.056 4.3252L114.029 4.31836L113.793 4.27051C113.431 4.19987 113.166 4.08138 113 3.91504C112.834 3.74642 112.75 3.51742 112.75 3.22803C112.75 2.86117 112.875 2.57861 113.123 2.38037C113.371 2.17985 113.726 2.07959 114.186 2.07959C114.391 2.07959 114.588 2.09896 114.777 2.1377C114.966 2.17415 115.152 2.22998 115.334 2.30518ZM116.695 0.896973H117.389V2.85205H119.279V0.896973H119.973V6H119.279V3.43311H117.389V6H116.695V0.896973ZM124.392 2.96143C124.258 2.85661 124.121 2.78027 123.982 2.73242C123.843 2.68457 123.69 2.66064 123.524 2.66064C123.132 2.66064 122.832 2.78369 122.625 3.02979C122.418 3.27588 122.314 3.63135 122.314 4.09619V6H121.682V2.17188H122.314V2.92041C122.419 2.64925 122.579 2.44189 122.796 2.29834C123.015 2.15251 123.273 2.07959 123.572 2.07959C123.727 2.07959 123.871 2.09896 124.006 2.1377C124.14 2.17643 124.269 2.23682 124.392 2.31885V2.96143ZM127.988 2.30518V2.92041C127.808 2.81559 127.627 2.73698 127.444 2.68457C127.262 2.63216 127.076 2.60596 126.887 2.60596C126.602 2.60596 126.389 2.65267 126.248 2.74609C126.109 2.83724 126.04 2.97738 126.04 3.1665C126.04 3.3374 126.092 3.46501 126.197 3.54932C126.302 3.63363 126.562 3.71566 126.979 3.79541L127.232 3.84326C127.545 3.90251 127.78 4.021 127.94 4.19873C128.102 4.37646 128.183 4.60775 128.183 4.89258C128.183 5.27083 128.048 5.56706 127.779 5.78125C127.51 5.99316 127.137 6.09912 126.658 6.09912C126.469 6.09912 126.271 6.07861 126.063 6.0376C125.856 5.99886 125.632 5.93962 125.39 5.85986V5.21045C125.625 5.33122 125.849 5.42236 126.063 5.48389C126.278 5.54313 126.48 5.57275 126.672 5.57275C126.95 5.57275 127.165 5.51693 127.318 5.40527C127.471 5.29134 127.547 5.13298 127.547 4.93018C127.547 4.63851 127.268 4.43685 126.709 4.3252L126.682 4.31836L126.446 4.27051C126.084 4.19987 125.82 4.08138 125.653 3.91504C125.487 3.74642 125.404 3.51742 125.404 3.22803C125.404 2.86117 125.528 2.57861 125.776 2.38037C126.025 2.17985 126.379 2.07959 126.839 2.07959C127.044 2.07959 127.242 2.09896 127.431 2.1377C127.62 2.17415 127.806 2.22998 127.988 2.30518Z" fill="#FF9900"/>
</svg>
