<svg width="129" height="8" viewBox="0 0 129 8" fill="none" xmlns="http://www.w3.org/2000/svg">
<path d="M0.922852 5.42236H1.99609V1.56689L0.710938 2.18555V1.52246L1.98926 0.914062H2.67969V5.42236H3.73926V6H0.922852V5.42236ZM4.92529 0.896973H7.50928V1.47803H5.5542V2.73242C5.65218 2.69596 5.75016 2.66976 5.84814 2.65381C5.9484 2.63558 6.04867 2.62646 6.14893 2.62646C6.67757 2.62646 7.09684 2.78255 7.40674 3.09473C7.71663 3.4069 7.87158 3.82959 7.87158 4.36279C7.87158 4.90055 7.70866 5.32438 7.38281 5.63428C7.05924 5.94417 6.61605 6.09912 6.05322 6.09912C5.78206 6.09912 5.53369 6.08089 5.30811 6.04443C5.0848 6.00798 4.88428 5.95329 4.70654 5.88037V5.17969C4.91618 5.29362 5.12695 5.37907 5.33887 5.43604C5.55078 5.49072 5.76725 5.51807 5.98828 5.51807C6.36882 5.51807 6.66162 5.41781 6.8667 5.21729C7.07406 5.01676 7.17773 4.73193 7.17773 4.36279C7.17773 3.99821 7.07064 3.71452 6.85645 3.51172C6.64453 3.30892 6.34831 3.20752 5.96777 3.20752C5.7832 3.20752 5.60319 3.22917 5.42773 3.27246C5.25228 3.31348 5.0848 3.37614 4.92529 3.46045V0.896973Z" fill="white" fill-opacity="0.3"/>
<path d="M82.1802 2.71533L79.2749 3.80908L82.1802 4.89258V5.51807L78.5674 4.08936V3.52197L82.1802 2.09326V2.71533ZM123.483 0.896973H124.132L121.446 6.64941H120.793L123.483 0.896973ZM124.963 2.71533V2.09326L128.576 3.52197V4.08936L124.963 5.51807V4.89258L127.868 3.80908L124.963 2.71533Z" fill="white"/>
<path d="M82.645 0.896973H86.5381V1.47803H84.9419V6H84.248V1.47803H82.645V0.896973ZM89.1016 4.07568H88.8931C88.5262 4.07568 88.2493 4.14062 88.0625 4.27051C87.8779 4.39811 87.7856 4.58952 87.7856 4.84473C87.7856 5.07487 87.8551 5.25374 87.9941 5.38135C88.1331 5.50895 88.3257 5.57275 88.5718 5.57275C88.9181 5.57275 89.1904 5.45312 89.3887 5.21387C89.5869 4.97233 89.6872 4.63965 89.6895 4.21582V4.07568H89.1016ZM90.3218 3.81592V6H89.6895V5.43262C89.555 5.66048 89.3853 5.8291 89.1802 5.93848C88.9774 6.04557 88.7301 6.09912 88.4385 6.09912C88.0488 6.09912 87.7378 5.98975 87.5054 5.771C87.2729 5.54997 87.1567 5.25488 87.1567 4.88574C87.1567 4.45964 87.2992 4.13607 87.584 3.91504C87.8711 3.69401 88.2915 3.5835 88.8452 3.5835H89.6895V3.48438C89.6872 3.17904 89.6097 2.95801 89.457 2.82129C89.3044 2.68229 89.0605 2.61279 88.7256 2.61279C88.5114 2.61279 88.2949 2.64355 88.0762 2.70508C87.8574 2.7666 87.6444 2.85661 87.437 2.9751V2.34619C87.6694 2.25732 87.8916 2.19124 88.1035 2.14795C88.3177 2.10238 88.5251 2.07959 88.7256 2.07959C89.0423 2.07959 89.3123 2.1263 89.5356 2.21973C89.7612 2.31315 89.9435 2.45329 90.0825 2.64014C90.1691 2.75407 90.2306 2.89535 90.2671 3.06396C90.3035 3.23031 90.3218 3.48096 90.3218 3.81592ZM93.8525 4.05518C93.8525 3.5835 93.7751 3.22575 93.6201 2.98193C93.4674 2.73584 93.2441 2.61279 92.9502 2.61279C92.6426 2.61279 92.4079 2.73584 92.2461 2.98193C92.0843 3.22575 92.0034 3.5835 92.0034 4.05518C92.0034 4.52686 92.0843 4.88688 92.2461 5.13525C92.4102 5.38135 92.6471 5.50439 92.957 5.50439C93.2464 5.50439 93.4674 5.38021 93.6201 5.13184C93.7751 4.88346 93.8525 4.52458 93.8525 4.05518ZM94.4814 5.75391C94.4814 6.32812 94.3459 6.76335 94.0747 7.05957C93.8035 7.35579 93.4048 7.50391 92.8784 7.50391C92.7052 7.50391 92.5241 7.48796 92.335 7.45605C92.1458 7.42415 91.9567 7.37744 91.7676 7.31592V6.69385C91.9909 6.79867 92.1937 6.87614 92.376 6.92627C92.5583 6.9764 92.7257 7.00146 92.8784 7.00146C93.2179 7.00146 93.4652 6.90918 93.6201 6.72461C93.7751 6.54004 93.8525 6.24723 93.8525 5.84619V5.81885V5.3916C93.7523 5.60579 93.6156 5.7653 93.4424 5.87012C93.2692 5.97493 93.0584 6.02734 92.8101 6.02734C92.3634 6.02734 92.0068 5.84847 91.7402 5.49072C91.4736 5.13298 91.3403 4.65446 91.3403 4.05518C91.3403 3.45361 91.4736 2.97396 91.7402 2.61621C92.0068 2.25846 92.3634 2.07959 92.8101 2.07959C93.0562 2.07959 93.2646 2.12858 93.4355 2.22656C93.6064 2.32454 93.7454 2.47607 93.8525 2.68115V2.18555H94.4814V5.75391ZM98.231 3.45361C98.231 2.70394 98.1535 2.16846 97.9985 1.84717C97.8459 1.52588 97.5941 1.36523 97.2432 1.36523C96.8945 1.36523 96.6427 1.52588 96.4878 1.84717C96.3351 2.16846 96.2588 2.70394 96.2588 3.45361C96.2588 4.20101 96.3351 4.73535 96.4878 5.05664C96.6427 5.37793 96.8945 5.53857 97.2432 5.53857C97.5941 5.53857 97.8459 5.37907 97.9985 5.06006C98.1535 4.73877 98.231 4.20329 98.231 3.45361ZM98.9521 3.45361C98.9521 4.34229 98.8109 5.00537 98.5283 5.44287C98.248 5.88037 97.8197 6.09912 97.2432 6.09912C96.6667 6.09912 96.2383 5.88151 95.958 5.44629C95.6777 5.01107 95.5376 4.34684 95.5376 3.45361C95.5376 2.56266 95.6777 1.89844 95.958 1.46094C96.2406 1.02344 96.6689 0.804688 97.2432 0.804688C97.8197 0.804688 98.248 1.02344 98.5283 1.46094C98.8109 1.89844 98.9521 2.56266 98.9521 3.45361ZM102.948 3.62793V6H102.315V3.62793C102.315 3.28385 102.255 3.03092 102.134 2.86914C102.014 2.70736 101.824 2.62646 101.567 2.62646C101.273 2.62646 101.046 2.73128 100.887 2.94092C100.729 3.14827 100.651 3.44678 100.651 3.83643V6H100.022V2.17188H100.651V2.74609C100.763 2.52734 100.914 2.36214 101.105 2.25049C101.297 2.13656 101.524 2.07959 101.786 2.07959C102.175 2.07959 102.466 2.20833 102.657 2.46582C102.851 2.72103 102.948 3.1084 102.948 3.62793ZM103.734 0.896973H107.627V1.47803H106.031V6H105.337V1.47803H103.734V0.896973ZM109.896 2.61279C109.577 2.61279 109.336 2.73698 109.172 2.98535C109.008 3.23372 108.926 3.60173 108.926 4.08936C108.926 4.57471 109.008 4.94271 109.172 5.19336C109.336 5.44173 109.577 5.56592 109.896 5.56592C110.218 5.56592 110.46 5.44173 110.625 5.19336C110.789 4.94271 110.871 4.57471 110.871 4.08936C110.871 3.60173 110.789 3.23372 110.625 2.98535C110.46 2.73698 110.218 2.61279 109.896 2.61279ZM109.896 2.07959C110.427 2.07959 110.833 2.25163 111.113 2.5957C111.396 2.93978 111.537 3.43766 111.537 4.08936C111.537 4.74333 111.397 5.24235 111.117 5.58643C110.836 5.92822 110.43 6.09912 109.896 6.09912C109.366 6.09912 108.96 5.92822 108.68 5.58643C108.399 5.24235 108.259 4.74333 108.259 4.08936C108.259 3.43766 108.399 2.93978 108.68 2.5957C108.96 2.25163 109.366 2.07959 109.896 2.07959ZM113.291 5.51807V7.45605H112.658V2.17188H113.291V2.66064C113.395 2.47152 113.534 2.32796 113.708 2.22998C113.883 2.12972 114.085 2.07959 114.312 2.07959C114.775 2.07959 115.137 2.25846 115.399 2.61621C115.664 2.97396 115.796 3.46956 115.796 4.10303C115.796 4.7251 115.664 5.21387 115.399 5.56934C115.135 5.92253 114.773 6.09912 114.312 6.09912C114.08 6.09912 113.876 6.05013 113.701 5.95215C113.528 5.85189 113.391 5.70719 113.291 5.51807ZM115.136 4.08936C115.136 3.60173 115.059 3.23372 114.904 2.98535C114.751 2.73698 114.523 2.61279 114.22 2.61279C113.915 2.61279 113.684 2.73812 113.526 2.98877C113.369 3.23714 113.291 3.604 113.291 4.08936C113.291 4.57243 113.369 4.93929 113.526 5.18994C113.684 5.44059 113.915 5.56592 114.22 5.56592C114.523 5.56592 114.751 5.44173 114.904 5.19336C115.059 4.94499 115.136 4.57699 115.136 4.08936Z" fill="#FF9900"/>
</svg>
