<svg width="75" height="8" viewBox="0 0 75 8" fill="none" xmlns="http://www.w3.org/2000/svg">
<path d="M2.10547 3.57666C1.79785 3.57666 1.55973 3.66325 1.39111 3.83643C1.22477 4.00732 1.1416 4.25 1.1416 4.56445C1.1416 4.87891 1.22591 5.12386 1.39453 5.29932C1.56543 5.47249 1.80241 5.55908 2.10547 5.55908C2.41536 5.55908 2.65348 5.47363 2.81982 5.30273C2.98844 5.12956 3.07275 4.88346 3.07275 4.56445C3.07275 4.25228 2.9873 4.0096 2.81641 3.83643C2.64779 3.66325 2.41081 3.57666 2.10547 3.57666ZM1.50391 3.28955C1.20996 3.21436 0.979818 3.07422 0.813477 2.86914C0.649414 2.66406 0.567383 2.41683 0.567383 2.12744C0.567383 1.72184 0.705241 1.40055 0.980957 1.16357C1.25667 0.924316 1.63151 0.804688 2.10547 0.804688C2.58171 0.804688 2.95768 0.924316 3.2334 1.16357C3.50911 1.40055 3.64697 1.72184 3.64697 2.12744C3.64697 2.41683 3.5638 2.66406 3.39746 2.86914C3.2334 3.07422 3.00439 3.21436 2.71045 3.28955C3.05225 3.36475 3.31315 3.51628 3.49316 3.74414C3.67546 3.97201 3.7666 4.26709 3.7666 4.62939C3.7666 5.08968 3.61963 5.44971 3.32568 5.70947C3.03174 5.96924 2.625 6.09912 2.10547 6.09912C1.58594 6.09912 1.1792 5.97038 0.885254 5.71289C0.593587 5.45312 0.447754 5.09424 0.447754 4.63623C0.447754 4.27165 0.53776 3.97542 0.717773 3.74756C0.900065 3.51742 1.16211 3.36475 1.50391 3.28955ZM1.25439 2.19238C1.25439 2.46582 1.32731 2.67432 1.47314 2.81787C1.61898 2.96143 1.82975 3.0332 2.10547 3.0332C2.38346 3.0332 2.59538 2.96143 2.74121 2.81787C2.88704 2.67432 2.95996 2.46582 2.95996 2.19238C2.95996 1.91439 2.88704 1.70247 2.74121 1.55664C2.59766 1.41081 2.38574 1.33789 2.10547 1.33789C1.82975 1.33789 1.61898 1.41195 1.47314 1.56006C1.32731 1.70589 1.25439 1.91667 1.25439 2.19238Z" fill="white" fill-opacity="0.3"/>
<path d="M72.9712 0.34668C72.6681 0.866211 72.4414 1.3846 72.291 1.90186C72.1429 2.41683 72.0688 2.93636 72.0688 3.46045C72.0688 3.98226 72.1429 4.50179 72.291 5.01904C72.4414 5.5363 72.6681 6.05697 72.9712 6.58105H72.4243C72.0802 6.03874 71.8239 5.51123 71.6553 4.99854C71.4867 4.48356 71.4023 3.97087 71.4023 3.46045C71.4023 2.95231 71.4867 2.44076 71.6553 1.92578C71.8239 1.41081 72.0802 0.88444 72.4243 0.34668H72.9712Z" fill="white"/>
<path d="M44.4722 2.96143C44.3377 2.85661 44.201 2.78027 44.062 2.73242C43.923 2.68457 43.7703 2.66064 43.604 2.66064C43.2121 2.66064 42.9124 2.78369 42.7051 3.02979C42.4977 3.27588 42.394 3.63135 42.394 4.09619V6H41.7617V2.17188H42.394V2.92041C42.4989 2.64925 42.6595 2.44189 42.876 2.29834C43.0947 2.15251 43.3534 2.07959 43.6519 2.07959C43.8068 2.07959 43.9515 2.09896 44.0859 2.1377C44.2204 2.17643 44.3491 2.23682 44.4722 2.31885V2.96143ZM48.5703 3.77148V4.0791H45.8462V4.09961C45.828 4.62142 45.9271 4.99626 46.1436 5.22412C46.3623 5.45199 46.6699 5.56592 47.0664 5.56592C47.2669 5.56592 47.4766 5.53402 47.6953 5.47021C47.9141 5.40641 48.1476 5.30957 48.396 5.17969V5.80518C48.1567 5.90316 47.9255 5.97607 47.7021 6.02393C47.4811 6.07406 47.2669 6.09912 47.0596 6.09912C46.4648 6.09912 46 5.92139 45.665 5.56592C45.3301 5.20817 45.1626 4.71598 45.1626 4.08936C45.1626 3.47868 45.3267 2.99105 45.6548 2.62646C45.9829 2.26188 46.4204 2.07959 46.9673 2.07959C47.4549 2.07959 47.8389 2.24479 48.1191 2.5752C48.4017 2.9056 48.5521 3.30436 48.5703 3.77148ZM47.9414 3.58691C47.9141 3.32259 47.8172 3.09473 47.6509 2.90332C47.4868 2.70964 47.2498 2.61279 46.9399 2.61279C46.6369 2.61279 46.3874 2.71305 46.1914 2.91357C45.9954 3.1141 45.8883 3.33968 45.8701 3.59033L47.9414 3.58691ZM51.0586 1.08496V2.17188H52.4873V2.66064H51.0586V4.73877C51.0586 5.02132 51.1121 5.21842 51.2192 5.33008C51.3263 5.44173 51.5132 5.49756 51.7798 5.49756H52.4873V6H51.7183C51.2466 6 50.9139 5.90544 50.7202 5.71631C50.5265 5.52718 50.4297 5.20133 50.4297 4.73877V2.66064H49.4077V2.17188H50.4297V1.08496H51.0586ZM53.8442 4.55078V2.17871H54.4731V4.55078C54.4731 4.89486 54.5335 5.14779 54.6543 5.30957C54.7773 5.47135 54.9665 5.55225 55.2217 5.55225C55.5179 5.55225 55.7446 5.44857 55.9019 5.24121C56.0591 5.03158 56.1377 4.73193 56.1377 4.34229V2.17871H56.77V6H56.1377V5.42578C56.026 5.64681 55.8734 5.81429 55.6797 5.92822C55.4883 6.04215 55.2638 6.09912 55.0063 6.09912C54.6144 6.09912 54.3228 5.97152 54.1313 5.71631C53.9399 5.45882 53.8442 5.07031 53.8442 4.55078ZM61.3433 2.96143C61.2088 2.85661 61.0721 2.78027 60.9331 2.73242C60.7941 2.68457 60.6414 2.66064 60.4751 2.66064C60.0832 2.66064 59.7835 2.78369 59.5762 3.02979C59.3688 3.27588 59.2651 3.63135 59.2651 4.09619V6H58.6328V2.17188H59.2651V2.92041C59.37 2.64925 59.5306 2.44189 59.7471 2.29834C59.9658 2.15251 60.2244 2.07959 60.5229 2.07959C60.6779 2.07959 60.8226 2.09896 60.957 2.1377C61.0915 2.17643 61.2202 2.23682 61.3433 2.31885V2.96143ZM65.2056 3.62793V6H64.5732V3.62793C64.5732 3.28385 64.5129 3.03092 64.3921 2.86914C64.2713 2.70736 64.0822 2.62646 63.8247 2.62646C63.5308 2.62646 63.304 2.73128 63.1445 2.94092C62.9873 3.14827 62.9087 3.44678 62.9087 3.83643V6H62.2798V2.17188H62.9087V2.74609C63.0203 2.52734 63.1719 2.36214 63.3633 2.25049C63.5547 2.13656 63.7814 2.07959 64.0435 2.07959C64.4331 2.07959 64.7236 2.20833 64.915 2.46582C65.1087 2.72103 65.2056 3.1084 65.2056 3.62793Z" fill="#77B7D7"/>
</svg>
