<svg width="248" height="8" viewBox="0 0 248 8" fill="none" xmlns="http://www.w3.org/2000/svg">
<path d="M2.65234 3.26904C2.9873 3.35791 3.24365 3.51628 3.42139 3.74414C3.59912 3.96973 3.68799 4.25228 3.68799 4.5918C3.68799 5.0612 3.52962 5.43034 3.21289 5.69922C2.89844 5.96582 2.46208 6.09912 1.90381 6.09912C1.66911 6.09912 1.42985 6.07747 1.18604 6.03418C0.94222 5.99089 0.702962 5.92822 0.468262 5.84619V5.15918C0.700684 5.27995 0.929688 5.36995 1.15527 5.4292C1.38086 5.48844 1.60531 5.51807 1.82861 5.51807C2.20687 5.51807 2.4974 5.43262 2.7002 5.26172C2.90299 5.09082 3.00439 4.84473 3.00439 4.52344C3.00439 4.22721 2.90299 3.99251 2.7002 3.81934C2.4974 3.64388 2.22282 3.55615 1.87646 3.55615H1.3501V2.98877H1.87646C2.1932 2.98877 2.44043 2.91927 2.61816 2.78027C2.7959 2.64128 2.88477 2.44759 2.88477 2.19922C2.88477 1.93717 2.8016 1.73665 2.63525 1.59766C2.47119 1.45638 2.23649 1.38574 1.93115 1.38574C1.72835 1.38574 1.51872 1.40853 1.30225 1.4541C1.08577 1.49967 0.859049 1.56803 0.62207 1.65918V1.02344C0.897786 0.950521 1.14274 0.895833 1.35693 0.859375C1.5734 0.822917 1.76481 0.804688 1.93115 0.804688C2.4279 0.804688 2.82438 0.930013 3.12061 1.18066C3.41911 1.42904 3.56836 1.75944 3.56836 2.17188C3.56836 2.45215 3.48975 2.68571 3.33252 2.87256C3.17757 3.05941 2.95085 3.19157 2.65234 3.26904Z" fill="white" fill-opacity="0.3"/>
<path d="M12.0801 2.18555H13.6899V5.51123H14.9375V6H11.8135V5.51123H13.061V2.67432H12.0801V2.18555ZM13.061 0.69873H13.6899V1.4917H13.061V0.69873ZM17.5283 2.56152C17.6058 2.39746 17.7038 2.27669 17.8223 2.19922C17.943 2.11947 18.0877 2.07959 18.2563 2.07959C18.564 2.07959 18.7804 2.19922 18.9058 2.43848C19.0334 2.67546 19.0972 3.12321 19.0972 3.78174V6H18.5229V3.80908C18.5229 3.26904 18.4922 2.93408 18.4307 2.8042C18.3714 2.67204 18.262 2.60596 18.1025 2.60596C17.9202 2.60596 17.7949 2.6766 17.7266 2.81787C17.6605 2.95687 17.6274 3.28727 17.6274 3.80908V6H17.0532V3.80908C17.0532 3.26221 17.0202 2.92497 16.9541 2.79736C16.8903 2.66976 16.7741 2.60596 16.6055 2.60596C16.4391 2.60596 16.3229 2.6766 16.2568 2.81787C16.193 2.95687 16.1611 3.28727 16.1611 3.80908V6H15.5903V2.17188H16.1611V2.5C16.2363 2.36328 16.3298 2.2596 16.4414 2.18896C16.5553 2.11605 16.6841 2.07959 16.8276 2.07959C17.0008 2.07959 17.1444 2.11947 17.2583 2.19922C17.3745 2.27897 17.4645 2.39974 17.5283 2.56152ZM20.7173 5.51807V7.45605H20.085V2.17188H20.7173V2.66064C20.8221 2.47152 20.9611 2.32796 21.1343 2.22998C21.3097 2.12972 21.5114 2.07959 21.7393 2.07959C22.2018 2.07959 22.5641 2.25846 22.8262 2.61621C23.0905 2.97396 23.2227 3.46956 23.2227 4.10303C23.2227 4.7251 23.0905 5.21387 22.8262 5.56934C22.5618 5.92253 22.1995 6.09912 21.7393 6.09912C21.5068 6.09912 21.3029 6.05013 21.1274 5.95215C20.9543 5.85189 20.8175 5.70719 20.7173 5.51807ZM22.563 4.08936C22.563 3.60173 22.4855 3.23372 22.3306 2.98535C22.1779 2.73698 21.95 2.61279 21.647 2.61279C21.3416 2.61279 21.1104 2.73812 20.9531 2.98877C20.7959 3.23714 20.7173 3.604 20.7173 4.08936C20.7173 4.57243 20.7959 4.93929 20.9531 5.18994C21.1104 5.44059 21.3416 5.56592 21.647 5.56592C21.95 5.56592 22.1779 5.44173 22.3306 5.19336C22.4855 4.94499 22.563 4.57699 22.563 4.08936ZM25.7588 2.61279C25.4398 2.61279 25.1982 2.73698 25.0342 2.98535C24.8701 3.23372 24.7881 3.60173 24.7881 4.08936C24.7881 4.57471 24.8701 4.94271 25.0342 5.19336C25.1982 5.44173 25.4398 5.56592 25.7588 5.56592C26.0801 5.56592 26.3228 5.44173 26.4868 5.19336C26.6509 4.94271 26.7329 4.57471 26.7329 4.08936C26.7329 3.60173 26.6509 3.23372 26.4868 2.98535C26.3228 2.73698 26.0801 2.61279 25.7588 2.61279ZM25.7588 2.07959C26.2897 2.07959 26.6953 2.25163 26.9756 2.5957C27.2581 2.93978 27.3994 3.43766 27.3994 4.08936C27.3994 4.74333 27.2593 5.24235 26.979 5.58643C26.6987 5.92822 26.292 6.09912 25.7588 6.09912C25.2279 6.09912 24.8223 5.92822 24.542 5.58643C24.2617 5.24235 24.1216 4.74333 24.1216 4.08936C24.1216 3.43766 24.2617 2.93978 24.542 2.5957C24.8223 2.25163 25.2279 2.07959 25.7588 2.07959ZM31.8188 2.96143C31.6844 2.85661 31.5477 2.78027 31.4087 2.73242C31.2697 2.68457 31.117 2.66064 30.9507 2.66064C30.5588 2.66064 30.2591 2.78369 30.0518 3.02979C29.8444 3.27588 29.7407 3.63135 29.7407 4.09619V6H29.1084V2.17188H29.7407V2.92041C29.8455 2.64925 30.0062 2.44189 30.2227 2.29834C30.4414 2.15251 30.7 2.07959 30.9985 2.07959C31.1535 2.07959 31.2982 2.09896 31.4326 2.1377C31.5671 2.17643 31.6958 2.23682 31.8188 2.31885V2.96143ZM34.1875 1.08496V2.17188H35.6162V2.66064H34.1875V4.73877C34.1875 5.02132 34.241 5.21842 34.3481 5.33008C34.4552 5.44173 34.6421 5.49756 34.9087 5.49756H35.6162V6H34.8472C34.3755 6 34.0428 5.90544 33.8491 5.71631C33.6554 5.52718 33.5586 5.20133 33.5586 4.73877V2.66064H32.5366V2.17188H33.5586V1.08496H34.1875ZM44.0518 6.17432V6.6665H43.833C43.2656 6.6665 42.8851 6.58219 42.6914 6.41357C42.5 6.24495 42.4043 5.90885 42.4043 5.40527V4.72168C42.4043 4.47331 42.3337 4.25911 42.1924 4.0791C42.0534 3.89909 41.8369 3.80908 41.543 3.80908H41.126V3.32031H41.543C41.8643 3.32031 42.0876 3.24398 42.2129 3.09131C42.3405 2.93864 42.4043 2.71419 42.4043 2.41797V1.5293C42.4043 1.02572 42.5 0.690755 42.6914 0.524414C42.8851 0.355794 43.2656 0.271484 43.833 0.271484H44.0518V0.760254H43.8125C43.4935 0.760254 43.285 0.810384 43.187 0.910645C43.0913 1.00863 43.0435 1.2194 43.0435 1.54297V2.45898C43.0435 2.86003 42.9648 3.13005 42.8076 3.26904C42.6504 3.40576 42.3439 3.50488 41.8882 3.56641C42.3302 3.61882 42.6333 3.72021 42.7974 3.87061C42.9614 4.01872 43.0435 4.2876 43.0435 4.67725V5.3916C43.0435 5.71745 43.0913 5.92936 43.187 6.02734C43.285 6.12533 43.4935 6.17432 43.8125 6.17432H44.0518ZM100.561 6.17432C100.88 6.17432 101.087 6.12533 101.183 6.02734C101.281 5.92936 101.33 5.71745 101.33 5.3916V4.67725C101.33 4.2876 101.412 4.01872 101.576 3.87061C101.74 3.72021 102.043 3.61882 102.485 3.56641C102.03 3.50488 101.723 3.40576 101.566 3.26904C101.409 3.13005 101.33 2.86003 101.33 2.45898V1.54297C101.33 1.2194 101.281 1.00863 101.183 0.910645C101.087 0.810384 100.88 0.760254 100.561 0.760254H100.322V0.271484H100.541C101.108 0.271484 101.487 0.355794 101.679 0.524414C101.872 0.690755 101.969 1.02572 101.969 1.5293V2.41797C101.969 2.71419 102.032 2.93864 102.157 3.09131C102.285 3.24398 102.509 3.32031 102.831 3.32031H103.248V3.80908H102.831C102.537 3.80908 102.319 3.89909 102.178 4.0791C102.039 4.25911 101.969 4.47331 101.969 4.72168V5.40527C101.969 5.90885 101.872 6.24495 101.679 6.41357C101.487 6.58219 101.108 6.6665 100.541 6.6665H100.322V6.17432H100.561ZM111.642 0.681641V1.20459H110.928C110.702 1.20459 110.545 1.2513 110.456 1.34473C110.369 1.43587 110.326 1.5988 110.326 1.8335V2.17188H111.642V2.66064H110.326V6H109.697V2.66064H108.675V2.17188H109.697V1.90527C109.697 1.486 109.793 1.17725 109.984 0.979004C110.178 0.780762 110.479 0.681641 110.887 0.681641H111.642ZM116.174 2.96143C116.04 2.85661 115.903 2.78027 115.764 2.73242C115.625 2.68457 115.472 2.66064 115.306 2.66064C114.914 2.66064 114.615 2.78369 114.407 3.02979C114.2 3.27588 114.096 3.63135 114.096 4.09619V6H113.464V2.17188H114.096V2.92041C114.201 2.64925 114.362 2.44189 114.578 2.29834C114.797 2.15251 115.056 2.07959 115.354 2.07959C115.509 2.07959 115.654 2.09896 115.788 2.1377C115.923 2.17643 116.051 2.23682 116.174 2.31885V2.96143ZM118.55 2.61279C118.231 2.61279 117.989 2.73698 117.825 2.98535C117.661 3.23372 117.579 3.60173 117.579 4.08936C117.579 4.57471 117.661 4.94271 117.825 5.19336C117.989 5.44173 118.231 5.56592 118.55 5.56592C118.871 5.56592 119.114 5.44173 119.278 5.19336C119.442 4.94271 119.524 4.57471 119.524 4.08936C119.524 3.60173 119.442 3.23372 119.278 2.98535C119.114 2.73698 118.871 2.61279 118.55 2.61279ZM118.55 2.07959C119.081 2.07959 119.486 2.25163 119.767 2.5957C120.049 2.93978 120.19 3.43766 120.19 4.08936C120.19 4.74333 120.05 5.24235 119.77 5.58643C119.49 5.92822 119.083 6.09912 118.55 6.09912C118.019 6.09912 117.613 5.92822 117.333 5.58643C117.053 5.24235 116.913 4.74333 116.913 4.08936C116.913 3.43766 117.053 2.93978 117.333 2.5957C117.613 2.25163 118.019 2.07959 118.55 2.07959ZM122.973 2.56152C123.05 2.39746 123.148 2.27669 123.267 2.19922C123.387 2.11947 123.532 2.07959 123.701 2.07959C124.008 2.07959 124.225 2.19922 124.35 2.43848C124.478 2.67546 124.542 3.12321 124.542 3.78174V6H123.967V3.80908C123.967 3.26904 123.937 2.93408 123.875 2.8042C123.816 2.67204 123.706 2.60596 123.547 2.60596C123.365 2.60596 123.239 2.6766 123.171 2.81787C123.105 2.95687 123.072 3.28727 123.072 3.80908V6H122.498V3.80908C122.498 3.26221 122.465 2.92497 122.398 2.79736C122.335 2.66976 122.218 2.60596 122.05 2.60596C121.883 2.60596 121.767 2.6766 121.701 2.81787C121.637 2.95687 121.605 3.28727 121.605 3.80908V6H121.035V2.17188H121.605V2.5C121.681 2.36328 121.774 2.2596 121.886 2.18896C122 2.11605 122.128 2.07959 122.272 2.07959C122.445 2.07959 122.589 2.11947 122.703 2.19922C122.819 2.27897 122.909 2.39974 122.973 2.56152Z" fill="#77B7D7"/>
<path d="M50.3237 1.46436V3.38184H51.1235C51.4425 3.38184 51.6909 3.29753 51.8687 3.12891C52.0487 2.96029 52.1387 2.72445 52.1387 2.42139C52.1387 2.11833 52.0498 1.88363 51.8721 1.71729C51.6943 1.54867 51.4448 1.46436 51.1235 1.46436H50.3237ZM49.6333 0.896973H51.1235C51.6932 0.896973 52.125 1.02686 52.4189 1.28662C52.7129 1.54411 52.8599 1.92236 52.8599 2.42139C52.8599 2.92497 52.7129 3.3055 52.4189 3.56299C52.1273 3.82048 51.6955 3.94922 51.1235 3.94922H50.3237V6H49.6333V0.896973ZM57.1255 2.96143C56.991 2.85661 56.8543 2.78027 56.7153 2.73242C56.5763 2.68457 56.4237 2.66064 56.2573 2.66064C55.8654 2.66064 55.5658 2.78369 55.3584 3.02979C55.151 3.27588 55.0474 3.63135 55.0474 4.09619V6H54.415V2.17188H55.0474V2.92041C55.1522 2.64925 55.3128 2.44189 55.5293 2.29834C55.748 2.15251 56.0067 2.07959 56.3052 2.07959C56.4601 2.07959 56.6048 2.09896 56.7393 2.1377C56.8737 2.17643 57.0024 2.23682 57.1255 2.31885V2.96143ZM61.2236 3.77148V4.0791H58.4995V4.09961C58.4813 4.62142 58.5804 4.99626 58.7969 5.22412C59.0156 5.45199 59.3232 5.56592 59.7197 5.56592C59.9202 5.56592 60.1299 5.53402 60.3486 5.47021C60.5674 5.40641 60.8009 5.30957 61.0493 5.17969V5.80518C60.8101 5.90316 60.5788 5.97607 60.3555 6.02393C60.1344 6.07406 59.9202 6.09912 59.7129 6.09912C59.1182 6.09912 58.6533 5.92139 58.3184 5.56592C57.9834 5.20817 57.8159 4.71598 57.8159 4.08936C57.8159 3.47868 57.98 2.99105 58.3081 2.62646C58.6362 2.26188 59.0737 2.07959 59.6206 2.07959C60.1082 2.07959 60.4922 2.24479 60.7725 2.5752C61.055 2.9056 61.2054 3.30436 61.2236 3.77148ZM60.5947 3.58691C60.5674 3.32259 60.4705 3.09473 60.3042 2.90332C60.1401 2.70964 59.9032 2.61279 59.5933 2.61279C59.2902 2.61279 59.0407 2.71305 58.8447 2.91357C58.6488 3.1141 58.5417 3.33968 58.5234 3.59033L60.5947 3.58691ZM65.2466 0.681641V1.20459H64.5322C64.3066 1.20459 64.1494 1.2513 64.0605 1.34473C63.974 1.43587 63.9307 1.5988 63.9307 1.8335V2.17188H65.2466V2.66064H63.9307V6H63.3018V2.66064H62.2798V2.17188H63.3018V1.90527C63.3018 1.486 63.3975 1.17725 63.5889 0.979004C63.7826 0.780762 64.0833 0.681641 64.4912 0.681641H65.2466ZM69.6592 3.77148V4.0791H66.9351V4.09961C66.9168 4.62142 67.016 4.99626 67.2324 5.22412C67.4512 5.45199 67.7588 5.56592 68.1553 5.56592C68.3558 5.56592 68.5654 5.53402 68.7842 5.47021C69.0029 5.40641 69.2365 5.30957 69.4849 5.17969V5.80518C69.2456 5.90316 69.0143 5.97607 68.791 6.02393C68.57 6.07406 68.3558 6.09912 68.1484 6.09912C67.5537 6.09912 67.0889 5.92139 66.7539 5.56592C66.4189 5.20817 66.2515 4.71598 66.2515 4.08936C66.2515 3.47868 66.4155 2.99105 66.7437 2.62646C67.0718 2.26188 67.5093 2.07959 68.0562 2.07959C68.5438 2.07959 68.9277 2.24479 69.208 2.5752C69.4906 2.9056 69.641 3.30436 69.6592 3.77148ZM69.0303 3.58691C69.0029 3.32259 68.9061 3.09473 68.7397 2.90332C68.5757 2.70964 68.3387 2.61279 68.0288 2.61279C67.7257 2.61279 67.4762 2.71305 67.2803 2.91357C67.0843 3.1141 66.9772 3.33968 66.959 3.59033L69.0303 3.58691ZM73.9966 2.96143C73.8621 2.85661 73.7254 2.78027 73.5864 2.73242C73.4474 2.68457 73.2948 2.66064 73.1284 2.66064C72.7365 2.66064 72.4368 2.78369 72.2295 3.02979C72.0221 3.27588 71.9185 3.63135 71.9185 4.09619V6H71.2861V2.17188H71.9185V2.92041C72.0233 2.64925 72.1839 2.44189 72.4004 2.29834C72.6191 2.15251 72.8778 2.07959 73.1763 2.07959C73.3312 2.07959 73.4759 2.09896 73.6104 2.1377C73.7448 2.17643 73.8735 2.23682 73.9966 2.31885V2.96143ZM78.0947 3.77148V4.0791H75.3706V4.09961C75.3524 4.62142 75.4515 4.99626 75.668 5.22412C75.8867 5.45199 76.1943 5.56592 76.5908 5.56592C76.7913 5.56592 77.001 5.53402 77.2197 5.47021C77.4385 5.40641 77.672 5.30957 77.9204 5.17969V5.80518C77.6812 5.90316 77.4499 5.97607 77.2266 6.02393C77.0055 6.07406 76.7913 6.09912 76.584 6.09912C75.9893 6.09912 75.5244 5.92139 75.1895 5.56592C74.8545 5.20817 74.687 4.71598 74.687 4.08936C74.687 3.47868 74.8511 2.99105 75.1792 2.62646C75.5073 2.26188 75.9448 2.07959 76.4917 2.07959C76.9793 2.07959 77.3633 2.24479 77.6436 2.5752C77.9261 2.9056 78.0765 3.30436 78.0947 3.77148ZM77.4658 3.58691C77.4385 3.32259 77.3416 3.09473 77.1753 2.90332C77.0112 2.70964 76.7743 2.61279 76.4644 2.61279C76.1613 2.61279 75.9118 2.71305 75.7158 2.91357C75.5199 3.1141 75.4128 3.33968 75.3945 3.59033L77.4658 3.58691ZM82.0767 3.62793V6H81.4443V3.62793C81.4443 3.28385 81.384 3.03092 81.2632 2.86914C81.1424 2.70736 80.9533 2.62646 80.6958 2.62646C80.4019 2.62646 80.1751 2.73128 80.0156 2.94092C79.8584 3.14827 79.7798 3.44678 79.7798 3.83643V6H79.1509V2.17188H79.7798V2.74609C79.8914 2.52734 80.043 2.36214 80.2344 2.25049C80.4258 2.13656 80.6525 2.07959 80.9146 2.07959C81.3042 2.07959 81.5947 2.20833 81.7861 2.46582C81.9798 2.72103 82.0767 3.1084 82.0767 3.62793ZM86.3286 5.80518C86.16 5.90316 85.9857 5.97607 85.8057 6.02393C85.6279 6.07406 85.4456 6.09912 85.2588 6.09912C84.6663 6.09912 84.2026 5.92139 83.8677 5.56592C83.535 5.21045 83.3687 4.71826 83.3687 4.08936C83.3687 3.46045 83.535 2.96826 83.8677 2.61279C84.2026 2.25732 84.6663 2.07959 85.2588 2.07959C85.4434 2.07959 85.6234 2.10352 85.7988 2.15137C85.9743 2.19922 86.1509 2.27327 86.3286 2.37354V3.0332C86.1623 2.88509 85.9948 2.77799 85.8262 2.71191C85.6598 2.64583 85.4707 2.61279 85.2588 2.61279C84.8646 2.61279 84.5615 2.7404 84.3496 2.99561C84.1377 3.25081 84.0317 3.6154 84.0317 4.08936C84.0317 4.56104 84.1377 4.92562 84.3496 5.18311C84.5638 5.43831 84.8669 5.56592 85.2588 5.56592C85.4775 5.56592 85.6735 5.53288 85.8467 5.4668C86.0199 5.39844 86.1805 5.29362 86.3286 5.15234V5.80518ZM90.748 3.77148V4.0791H88.0239V4.09961C88.0057 4.62142 88.1048 4.99626 88.3213 5.22412C88.54 5.45199 88.8477 5.56592 89.2441 5.56592C89.4447 5.56592 89.6543 5.53402 89.873 5.47021C90.0918 5.40641 90.3254 5.30957 90.5737 5.17969V5.80518C90.3345 5.90316 90.1032 5.97607 89.8799 6.02393C89.6589 6.07406 89.4447 6.09912 89.2373 6.09912C88.6426 6.09912 88.1777 5.92139 87.8428 5.56592C87.5078 5.20817 87.3403 4.71598 87.3403 4.08936C87.3403 3.47868 87.5044 2.99105 87.8325 2.62646C88.1606 2.26188 88.5981 2.07959 89.145 2.07959C89.6326 2.07959 90.0166 2.24479 90.2969 2.5752C90.5794 2.9056 90.7298 3.30436 90.748 3.77148ZM90.1191 3.58691C90.0918 3.32259 89.995 3.09473 89.8286 2.90332C89.6646 2.70964 89.4276 2.61279 89.1177 2.61279C88.8146 2.61279 88.5651 2.71305 88.3691 2.91357C88.1732 3.1141 88.0661 3.33968 88.0479 3.59033L90.1191 3.58691ZM94.4634 2.30518V2.92041C94.2834 2.81559 94.1022 2.73698 93.9199 2.68457C93.7376 2.63216 93.5519 2.60596 93.3628 2.60596C93.078 2.60596 92.8649 2.65267 92.7236 2.74609C92.5846 2.83724 92.5151 2.97738 92.5151 3.1665C92.5151 3.3374 92.5675 3.46501 92.6724 3.54932C92.7772 3.63363 93.0381 3.71566 93.4551 3.79541L93.708 3.84326C94.0202 3.90251 94.256 4.021 94.4155 4.19873C94.5773 4.37646 94.6582 4.60775 94.6582 4.89258C94.6582 5.27083 94.5238 5.56706 94.2549 5.78125C93.986 5.99316 93.6123 6.09912 93.1338 6.09912C92.9447 6.09912 92.7464 6.07861 92.5391 6.0376C92.3317 5.99886 92.1073 5.93962 91.8657 5.85986V5.21045C92.1004 5.33122 92.3249 5.42236 92.5391 5.48389C92.7533 5.54313 92.9561 5.57275 93.1475 5.57275C93.4255 5.57275 93.6408 5.51693 93.7935 5.40527C93.9461 5.29134 94.0225 5.13298 94.0225 4.93018C94.0225 4.63851 93.7433 4.43685 93.1851 4.3252L93.1577 4.31836L92.9219 4.27051C92.5596 4.19987 92.2952 4.08138 92.1289 3.91504C91.9626 3.74642 91.8794 3.51742 91.8794 3.22803C91.8794 2.86117 92.0036 2.57861 92.252 2.38037C92.5003 2.17985 92.8547 2.07959 93.3149 2.07959C93.52 2.07959 93.7171 2.09896 93.9062 2.1377C94.0954 2.17415 94.2811 2.22998 94.4634 2.30518ZM132.328 0.712402V2.8042H131.562V0.712402H132.328ZM130.506 0.712402V2.8042H129.74V0.712402H130.506ZM241.99 0.712402V2.8042H241.224V0.712402H241.99ZM240.168 0.712402V2.8042H239.402V0.712402H240.168ZM244.488 4.76611H245.555V5.67188L244.881 6.97754H244.15L244.488 5.67188V4.76611ZM244.444 2.17529H245.51V3.40918H244.444V2.17529Z" fill="white"/>
<path d="M134.645 4.61914H135.848V6H134.645V4.61914ZM140.572 0.896973H141.221L138.535 6.64941H137.882L140.572 0.896973ZM143.033 5.51807V7.45605H142.4V2.17188H143.033V2.66064C143.138 2.47152 143.277 2.32796 143.45 2.22998C143.625 2.12972 143.827 2.07959 144.055 2.07959C144.517 2.07959 144.88 2.25846 145.142 2.61621C145.406 2.97396 145.538 3.46956 145.538 4.10303C145.538 4.7251 145.406 5.21387 145.142 5.56934C144.877 5.92253 144.515 6.09912 144.055 6.09912C143.822 6.09912 143.618 6.05013 143.443 5.95215C143.27 5.85189 143.133 5.70719 143.033 5.51807ZM144.878 4.08936C144.878 3.60173 144.801 3.23372 144.646 2.98535C144.493 2.73698 144.265 2.61279 143.962 2.61279C143.657 2.61279 143.426 2.73812 143.269 2.98877C143.111 3.23714 143.033 3.604 143.033 4.08936C143.033 4.57243 143.111 4.93929 143.269 5.18994C143.426 5.44059 143.657 5.56592 143.962 5.56592C144.265 5.56592 144.493 5.44173 144.646 5.19336C144.801 4.94499 144.878 4.57699 144.878 4.08936ZM149.917 2.96143C149.782 2.85661 149.645 2.78027 149.506 2.73242C149.367 2.68457 149.215 2.66064 149.048 2.66064C148.656 2.66064 148.357 2.78369 148.149 3.02979C147.942 3.27588 147.838 3.63135 147.838 4.09619V6H147.206V2.17188H147.838V2.92041C147.943 2.64925 148.104 2.44189 148.32 2.29834C148.539 2.15251 148.798 2.07959 149.096 2.07959C149.251 2.07959 149.396 2.09896 149.53 2.1377C149.665 2.17643 149.793 2.23682 149.917 2.31885V2.96143ZM154.015 3.77148V4.0791H151.291V4.09961C151.272 4.62142 151.371 4.99626 151.588 5.22412C151.807 5.45199 152.114 5.56592 152.511 5.56592C152.711 5.56592 152.921 5.53402 153.14 5.47021C153.358 5.40641 153.592 5.30957 153.84 5.17969V5.80518C153.601 5.90316 153.37 5.97607 153.146 6.02393C152.925 6.07406 152.711 6.09912 152.504 6.09912C151.909 6.09912 151.444 5.92139 151.109 5.56592C150.774 5.20817 150.607 4.71598 150.607 4.08936C150.607 3.47868 150.771 2.99105 151.099 2.62646C151.427 2.26188 151.865 2.07959 152.412 2.07959C152.899 2.07959 153.283 2.24479 153.563 2.5752C153.846 2.9056 153.996 3.30436 154.015 3.77148ZM153.386 3.58691C153.358 3.32259 153.262 3.09473 153.095 2.90332C152.931 2.70964 152.694 2.61279 152.384 2.61279C152.081 2.61279 151.832 2.71305 151.636 2.91357C151.44 3.1141 151.333 3.33968 151.314 3.59033L153.386 3.58691ZM158.038 0.681641V1.20459H157.323C157.098 1.20459 156.94 1.2513 156.852 1.34473C156.765 1.43587 156.722 1.5988 156.722 1.8335V2.17188H158.038V2.66064H156.722V6H156.093V2.66064H155.071V2.17188H156.093V1.90527C156.093 1.486 156.188 1.17725 156.38 0.979004C156.574 0.780762 156.874 0.681641 157.282 0.681641H158.038ZM162.45 3.77148V4.0791H159.726V4.09961C159.708 4.62142 159.807 4.99626 160.023 5.22412C160.242 5.45199 160.55 5.56592 160.946 5.56592C161.147 5.56592 161.356 5.53402 161.575 5.47021C161.794 5.40641 162.028 5.30957 162.276 5.17969V5.80518C162.037 5.90316 161.805 5.97607 161.582 6.02393C161.361 6.07406 161.147 6.09912 160.939 6.09912C160.345 6.09912 159.88 5.92139 159.545 5.56592C159.21 5.20817 159.042 4.71598 159.042 4.08936C159.042 3.47868 159.207 2.99105 159.535 2.62646C159.863 2.26188 160.3 2.07959 160.847 2.07959C161.335 2.07959 161.719 2.24479 161.999 2.5752C162.282 2.9056 162.432 3.30436 162.45 3.77148ZM161.821 3.58691C161.794 3.32259 161.697 3.09473 161.531 2.90332C161.367 2.70964 161.13 2.61279 160.82 2.61279C160.517 2.61279 160.267 2.71305 160.071 2.91357C159.875 3.1141 159.768 3.33968 159.75 3.59033L161.821 3.58691ZM166.788 2.96143C166.653 2.85661 166.516 2.78027 166.377 2.73242C166.238 2.68457 166.086 2.66064 165.919 2.66064C165.528 2.66064 165.228 2.78369 165.021 3.02979C164.813 3.27588 164.709 3.63135 164.709 4.09619V6H164.077V2.17188H164.709V2.92041C164.814 2.64925 164.975 2.44189 165.191 2.29834C165.41 2.15251 165.669 2.07959 165.967 2.07959C166.122 2.07959 166.267 2.09896 166.401 2.1377C166.536 2.17643 166.665 2.23682 166.788 2.31885V2.96143ZM170.886 3.77148V4.0791H168.162V4.09961C168.143 4.62142 168.243 4.99626 168.459 5.22412C168.678 5.45199 168.985 5.56592 169.382 5.56592C169.582 5.56592 169.792 5.53402 170.011 5.47021C170.229 5.40641 170.463 5.30957 170.711 5.17969V5.80518C170.472 5.90316 170.241 5.97607 170.018 6.02393C169.797 6.07406 169.582 6.09912 169.375 6.09912C168.78 6.09912 168.315 5.92139 167.98 5.56592C167.646 5.20817 167.478 4.71598 167.478 4.08936C167.478 3.47868 167.642 2.99105 167.97 2.62646C168.298 2.26188 168.736 2.07959 169.283 2.07959C169.77 2.07959 170.154 2.24479 170.435 2.5752C170.717 2.9056 170.868 3.30436 170.886 3.77148ZM170.257 3.58691C170.229 3.32259 170.133 3.09473 169.966 2.90332C169.802 2.70964 169.565 2.61279 169.255 2.61279C168.952 2.61279 168.703 2.71305 168.507 2.91357C168.311 3.1141 168.204 3.33968 168.186 3.59033L170.257 3.58691ZM174.868 3.62793V6H174.235V3.62793C174.235 3.28385 174.175 3.03092 174.054 2.86914C173.933 2.70736 173.744 2.62646 173.487 2.62646C173.193 2.62646 172.966 2.73128 172.807 2.94092C172.649 3.14827 172.571 3.44678 172.571 3.83643V6H171.942V2.17188H172.571V2.74609C172.682 2.52734 172.834 2.36214 173.025 2.25049C173.217 2.13656 173.444 2.07959 173.706 2.07959C174.095 2.07959 174.386 2.20833 174.577 2.46582C174.771 2.72103 174.868 3.1084 174.868 3.62793ZM179.12 5.80518C178.951 5.90316 178.777 5.97607 178.597 6.02393C178.419 6.07406 178.237 6.09912 178.05 6.09912C177.457 6.09912 176.994 5.92139 176.659 5.56592C176.326 5.21045 176.16 4.71826 176.16 4.08936C176.16 3.46045 176.326 2.96826 176.659 2.61279C176.994 2.25732 177.457 2.07959 178.05 2.07959C178.234 2.07959 178.414 2.10352 178.59 2.15137C178.765 2.19922 178.942 2.27327 179.12 2.37354V3.0332C178.953 2.88509 178.786 2.77799 178.617 2.71191C178.451 2.64583 178.262 2.61279 178.05 2.61279C177.656 2.61279 177.353 2.7404 177.141 2.99561C176.929 3.25081 176.823 3.6154 176.823 4.08936C176.823 4.56104 176.929 4.92562 177.141 5.18311C177.355 5.43831 177.658 5.56592 178.05 5.56592C178.269 5.56592 178.465 5.53288 178.638 5.4668C178.811 5.39844 178.972 5.29362 179.12 5.15234V5.80518ZM183.539 3.77148V4.0791H180.815V4.09961C180.797 4.62142 180.896 4.99626 181.112 5.22412C181.331 5.45199 181.639 5.56592 182.035 5.56592C182.236 5.56592 182.445 5.53402 182.664 5.47021C182.883 5.40641 183.116 5.30957 183.365 5.17969V5.80518C183.125 5.90316 182.894 5.97607 182.671 6.02393C182.45 6.07406 182.236 6.09912 182.028 6.09912C181.434 6.09912 180.969 5.92139 180.634 5.56592C180.299 5.20817 180.131 4.71598 180.131 4.08936C180.131 3.47868 180.295 2.99105 180.624 2.62646C180.952 2.26188 181.389 2.07959 181.936 2.07959C182.424 2.07959 182.808 2.24479 183.088 2.5752C183.37 2.9056 183.521 3.30436 183.539 3.77148ZM182.91 3.58691C182.883 3.32259 182.786 3.09473 182.62 2.90332C182.456 2.70964 182.219 2.61279 181.909 2.61279C181.606 2.61279 181.356 2.71305 181.16 2.91357C180.964 3.1141 180.857 3.33968 180.839 3.59033L182.91 3.58691ZM187.254 2.30518V2.92041C187.074 2.81559 186.893 2.73698 186.711 2.68457C186.529 2.63216 186.343 2.60596 186.154 2.60596C185.869 2.60596 185.656 2.65267 185.515 2.74609C185.376 2.83724 185.306 2.97738 185.306 3.1665C185.306 3.3374 185.359 3.46501 185.463 3.54932C185.568 3.63363 185.829 3.71566 186.246 3.79541L186.499 3.84326C186.811 3.90251 187.047 4.021 187.207 4.19873C187.368 4.37646 187.449 4.60775 187.449 4.89258C187.449 5.27083 187.315 5.56706 187.046 5.78125C186.777 5.99316 186.403 6.09912 185.925 6.09912C185.736 6.09912 185.537 6.07861 185.33 6.0376C185.123 5.99886 184.898 5.93962 184.657 5.85986V5.21045C184.891 5.33122 185.116 5.42236 185.33 5.48389C185.544 5.54313 185.747 5.57275 185.938 5.57275C186.216 5.57275 186.432 5.51693 186.584 5.40527C186.737 5.29134 186.813 5.13298 186.813 4.93018C186.813 4.63851 186.534 4.43685 185.976 4.3252L185.949 4.31836L185.713 4.27051C185.351 4.19987 185.086 4.08138 184.92 3.91504C184.754 3.74642 184.67 3.51742 184.67 3.22803C184.67 2.86117 184.795 2.57861 185.043 2.38037C185.291 2.17985 185.646 2.07959 186.106 2.07959C186.311 2.07959 186.508 2.09896 186.697 2.1377C186.886 2.17415 187.072 2.22998 187.254 2.30518ZM191.185 0.896973H191.834L189.148 6.64941H188.495L191.185 0.896973ZM193.728 1.46436V3.38184H194.528C194.847 3.38184 195.095 3.29753 195.273 3.12891C195.453 2.96029 195.543 2.72445 195.543 2.42139C195.543 2.11833 195.454 1.88363 195.276 1.71729C195.099 1.54867 194.849 1.46436 194.528 1.46436H193.728ZM193.038 0.896973H194.528C195.097 0.896973 195.529 1.02686 195.823 1.28662C196.117 1.54411 196.264 1.92236 196.264 2.42139C196.264 2.92497 196.117 3.3055 195.823 3.56299C195.532 3.82048 195.1 3.94922 194.528 3.94922H193.728V6H193.038V0.896973ZM200.53 2.96143C200.395 2.85661 200.259 2.78027 200.12 2.73242C199.981 2.68457 199.828 2.66064 199.662 2.66064C199.27 2.66064 198.97 2.78369 198.763 3.02979C198.555 3.27588 198.452 3.63135 198.452 4.09619V6H197.819V2.17188H198.452V2.92041C198.556 2.64925 198.717 2.44189 198.934 2.29834C199.152 2.15251 199.411 2.07959 199.709 2.07959C199.864 2.07959 200.009 2.09896 200.144 2.1377C200.278 2.17643 200.407 2.23682 200.53 2.31885V2.96143ZM204.628 3.77148V4.0791H201.904V4.09961C201.886 4.62142 201.985 4.99626 202.201 5.22412C202.42 5.45199 202.728 5.56592 203.124 5.56592C203.325 5.56592 203.534 5.53402 203.753 5.47021C203.972 5.40641 204.205 5.30957 204.454 5.17969V5.80518C204.214 5.90316 203.983 5.97607 203.76 6.02393C203.539 6.07406 203.325 6.09912 203.117 6.09912C202.522 6.09912 202.058 5.92139 201.723 5.56592C201.388 5.20817 201.22 4.71598 201.22 4.08936C201.22 3.47868 201.384 2.99105 201.712 2.62646C202.041 2.26188 202.478 2.07959 203.025 2.07959C203.513 2.07959 203.896 2.24479 204.177 2.5752C204.459 2.9056 204.61 3.30436 204.628 3.77148ZM203.999 3.58691C203.972 3.32259 203.875 3.09473 203.708 2.90332C203.544 2.70964 203.307 2.61279 202.998 2.61279C202.694 2.61279 202.445 2.71305 202.249 2.91357C202.053 3.1141 201.946 3.33968 201.928 3.59033L203.999 3.58691ZM208.651 0.681641V1.20459H207.937C207.711 1.20459 207.554 1.2513 207.465 1.34473C207.378 1.43587 207.335 1.5988 207.335 1.8335V2.17188H208.651V2.66064H207.335V6H206.706V2.66064H205.684V2.17188H206.706V1.90527C206.706 1.486 206.802 1.17725 206.993 0.979004C207.187 0.780762 207.488 0.681641 207.896 0.681641H208.651ZM213.063 3.77148V4.0791H210.339V4.09961C210.321 4.62142 210.42 4.99626 210.637 5.22412C210.855 5.45199 211.163 5.56592 211.56 5.56592C211.76 5.56592 211.97 5.53402 212.188 5.47021C212.407 5.40641 212.641 5.30957 212.889 5.17969V5.80518C212.65 5.90316 212.419 5.97607 212.195 6.02393C211.974 6.07406 211.76 6.09912 211.553 6.09912C210.958 6.09912 210.493 5.92139 210.158 5.56592C209.823 5.20817 209.656 4.71598 209.656 4.08936C209.656 3.47868 209.82 2.99105 210.148 2.62646C210.476 2.26188 210.914 2.07959 211.46 2.07959C211.948 2.07959 212.332 2.24479 212.612 2.5752C212.895 2.9056 213.045 3.30436 213.063 3.77148ZM212.435 3.58691C212.407 3.32259 212.31 3.09473 212.144 2.90332C211.98 2.70964 211.743 2.61279 211.433 2.61279C211.13 2.61279 210.881 2.71305 210.685 2.91357C210.489 3.1141 210.382 3.33968 210.363 3.59033L212.435 3.58691ZM217.401 2.96143C217.266 2.85661 217.13 2.78027 216.991 2.73242C216.852 2.68457 216.699 2.66064 216.533 2.66064C216.141 2.66064 215.841 2.78369 215.634 3.02979C215.426 3.27588 215.323 3.63135 215.323 4.09619V6H214.69V2.17188H215.323V2.92041C215.428 2.64925 215.588 2.44189 215.805 2.29834C216.023 2.15251 216.282 2.07959 216.581 2.07959C216.736 2.07959 216.88 2.09896 217.015 2.1377C217.149 2.17643 217.278 2.23682 217.401 2.31885V2.96143ZM221.499 3.77148V4.0791H218.775V4.09961C218.757 4.62142 218.856 4.99626 219.072 5.22412C219.291 5.45199 219.599 5.56592 219.995 5.56592C220.196 5.56592 220.405 5.53402 220.624 5.47021C220.843 5.40641 221.076 5.30957 221.325 5.17969V5.80518C221.085 5.90316 220.854 5.97607 220.631 6.02393C220.41 6.07406 220.196 6.09912 219.988 6.09912C219.394 6.09912 218.929 5.92139 218.594 5.56592C218.259 5.20817 218.091 4.71598 218.091 4.08936C218.091 3.47868 218.255 2.99105 218.583 2.62646C218.912 2.26188 219.349 2.07959 219.896 2.07959C220.384 2.07959 220.768 2.24479 221.048 2.5752C221.33 2.9056 221.481 3.30436 221.499 3.77148ZM220.87 3.58691C220.843 3.32259 220.746 3.09473 220.58 2.90332C220.416 2.70964 220.179 2.61279 219.869 2.61279C219.566 2.61279 219.316 2.71305 219.12 2.91357C218.924 3.1141 218.817 3.33968 218.799 3.59033L220.87 3.58691ZM225.481 3.62793V6H224.849V3.62793C224.849 3.28385 224.788 3.03092 224.667 2.86914C224.547 2.70736 224.358 2.62646 224.1 2.62646C223.806 2.62646 223.579 2.73128 223.42 2.94092C223.263 3.14827 223.184 3.44678 223.184 3.83643V6H222.555V2.17188H223.184V2.74609C223.296 2.52734 223.447 2.36214 223.639 2.25049C223.83 2.13656 224.057 2.07959 224.319 2.07959C224.708 2.07959 224.999 2.20833 225.19 2.46582C225.384 2.72103 225.481 3.1084 225.481 3.62793ZM229.733 5.80518C229.564 5.90316 229.39 5.97607 229.21 6.02393C229.032 6.07406 228.85 6.09912 228.663 6.09912C228.071 6.09912 227.607 5.92139 227.272 5.56592C226.939 5.21045 226.773 4.71826 226.773 4.08936C226.773 3.46045 226.939 2.96826 227.272 2.61279C227.607 2.25732 228.071 2.07959 228.663 2.07959C228.848 2.07959 229.028 2.10352 229.203 2.15137C229.379 2.19922 229.555 2.27327 229.733 2.37354V3.0332C229.567 2.88509 229.399 2.77799 229.23 2.71191C229.064 2.64583 228.875 2.61279 228.663 2.61279C228.269 2.61279 227.966 2.7404 227.754 2.99561C227.542 3.25081 227.436 3.6154 227.436 4.08936C227.436 4.56104 227.542 4.92562 227.754 5.18311C227.968 5.43831 228.271 5.56592 228.663 5.56592C228.882 5.56592 229.078 5.53288 229.251 5.4668C229.424 5.39844 229.585 5.29362 229.733 5.15234V5.80518ZM234.152 3.77148V4.0791H231.428V4.09961C231.41 4.62142 231.509 4.99626 231.726 5.22412C231.944 5.45199 232.252 5.56592 232.648 5.56592C232.849 5.56592 233.059 5.53402 233.277 5.47021C233.496 5.40641 233.73 5.30957 233.978 5.17969V5.80518C233.739 5.90316 233.507 5.97607 233.284 6.02393C233.063 6.07406 232.849 6.09912 232.642 6.09912C232.047 6.09912 231.582 5.92139 231.247 5.56592C230.912 5.20817 230.745 4.71598 230.745 4.08936C230.745 3.47868 230.909 2.99105 231.237 2.62646C231.565 2.26188 232.002 2.07959 232.549 2.07959C233.037 2.07959 233.421 2.24479 233.701 2.5752C233.984 2.9056 234.134 3.30436 234.152 3.77148ZM233.523 3.58691C233.496 3.32259 233.399 3.09473 233.233 2.90332C233.069 2.70964 232.832 2.61279 232.522 2.61279C232.219 2.61279 231.969 2.71305 231.773 2.91357C231.577 3.1141 231.47 3.33968 231.452 3.59033L233.523 3.58691ZM237.868 2.30518V2.92041C237.688 2.81559 237.507 2.73698 237.324 2.68457C237.142 2.63216 236.956 2.60596 236.767 2.60596C236.482 2.60596 236.269 2.65267 236.128 2.74609C235.989 2.83724 235.919 2.97738 235.919 3.1665C235.919 3.3374 235.972 3.46501 236.077 3.54932C236.181 3.63363 236.442 3.71566 236.859 3.79541L237.112 3.84326C237.424 3.90251 237.66 4.021 237.82 4.19873C237.982 4.37646 238.062 4.60775 238.062 4.89258C238.062 5.27083 237.928 5.56706 237.659 5.78125C237.39 5.99316 237.017 6.09912 236.538 6.09912C236.349 6.09912 236.151 6.07861 235.943 6.0376C235.736 5.99886 235.512 5.93962 235.27 5.85986V5.21045C235.505 5.33122 235.729 5.42236 235.943 5.48389C236.158 5.54313 236.36 5.57275 236.552 5.57275C236.83 5.57275 237.045 5.51693 237.198 5.40527C237.35 5.29134 237.427 5.13298 237.427 4.93018C237.427 4.63851 237.148 4.43685 236.589 4.3252L236.562 4.31836L236.326 4.27051C235.964 4.19987 235.7 4.08138 235.533 3.91504C235.367 3.74642 235.284 3.51742 235.284 3.22803C235.284 2.86117 235.408 2.57861 235.656 2.38037C235.905 2.17985 236.259 2.07959 236.719 2.07959C236.924 2.07959 237.121 2.09896 237.311 2.1377C237.5 2.17415 237.685 2.22998 237.868 2.30518Z" fill="#977CDC"/>
</svg>
