<svg width="218" height="8" viewBox="0 0 218 8" fill="none" xmlns="http://www.w3.org/2000/svg">
<path d="M0.922852 5.42236H1.99609V1.56689L0.710938 2.18555V1.52246L1.98926 0.914062H2.67969V5.42236H3.73926V6H0.922852V5.42236ZM6.87012 3.26904C7.20508 3.35791 7.46143 3.51628 7.63916 3.74414C7.81689 3.96973 7.90576 4.25228 7.90576 4.5918C7.90576 5.0612 7.7474 5.43034 7.43066 5.69922C7.11621 5.96582 6.67985 6.09912 6.12158 6.09912C5.88688 6.09912 5.64762 6.07747 5.40381 6.03418C5.15999 5.99089 4.92074 5.92822 4.68604 5.84619V5.15918C4.91846 5.27995 5.14746 5.36995 5.37305 5.4292C5.59863 5.48844 5.82308 5.51807 6.04639 5.51807C6.42464 5.51807 6.71517 5.43262 6.91797 5.26172C7.12077 5.09082 7.22217 4.84473 7.22217 4.52344C7.22217 4.22721 7.12077 3.99251 6.91797 3.81934C6.71517 3.64388 6.44059 3.55615 6.09424 3.55615H5.56787V2.98877H6.09424C6.41097 2.98877 6.6582 2.91927 6.83594 2.78027C7.01367 2.64128 7.10254 2.44759 7.10254 2.19922C7.10254 1.93717 7.01937 1.73665 6.85303 1.59766C6.68896 1.45638 6.45426 1.38574 6.14893 1.38574C5.94613 1.38574 5.73649 1.40853 5.52002 1.4541C5.30355 1.49967 5.07682 1.56803 4.83984 1.65918V1.02344C5.11556 0.950521 5.36051 0.895833 5.57471 0.859375C5.79118 0.822917 5.98258 0.804688 6.14893 0.804688C6.64567 0.804688 7.04215 0.930013 7.33838 1.18066C7.63688 1.42904 7.78613 1.75944 7.78613 2.17188C7.78613 2.45215 7.70752 2.68571 7.55029 2.87256C7.39535 3.05941 7.16862 3.19157 6.87012 3.26904Z" fill="white" fill-opacity="0.3"/>
<path d="M80.7241 4.61572C80.7241 4.89827 80.7754 5.11133 80.8779 5.25488C80.9827 5.39844 81.1366 5.47021 81.3394 5.47021H82.0742V6H81.2778C80.9019 6 80.6102 5.88037 80.4028 5.64111C80.1978 5.39958 80.0952 5.05778 80.0952 4.61572V1.15332H79.0869V0.661133H80.7241V4.61572ZM83.5645 2.18555H85.1743V5.51123H86.4219V6H83.2979V5.51123H84.5454V2.67432H83.5645V2.18555ZM84.5454 0.69873H85.1743V1.4917H84.5454V0.69873ZM90.0278 2.30518V2.92041C89.8478 2.81559 89.6667 2.73698 89.4844 2.68457C89.3021 2.63216 89.1164 2.60596 88.9272 2.60596C88.6424 2.60596 88.4294 2.65267 88.2881 2.74609C88.1491 2.83724 88.0796 2.97738 88.0796 3.1665C88.0796 3.3374 88.132 3.46501 88.2368 3.54932C88.3416 3.63363 88.6025 3.71566 89.0195 3.79541L89.2725 3.84326C89.5846 3.90251 89.8205 4.021 89.98 4.19873C90.1418 4.37646 90.2227 4.60775 90.2227 4.89258C90.2227 5.27083 90.0882 5.56706 89.8193 5.78125C89.5505 5.99316 89.1768 6.09912 88.6982 6.09912C88.5091 6.09912 88.3109 6.07861 88.1035 6.0376C87.8962 5.99886 87.6717 5.93962 87.4302 5.85986V5.21045C87.6649 5.33122 87.8893 5.42236 88.1035 5.48389C88.3177 5.54313 88.5205 5.57275 88.7119 5.57275C88.9899 5.57275 89.2052 5.51693 89.3579 5.40527C89.5106 5.29134 89.5869 5.13298 89.5869 4.93018C89.5869 4.63851 89.3078 4.43685 88.7495 4.3252L88.7222 4.31836L88.4863 4.27051C88.124 4.19987 87.8597 4.08138 87.6934 3.91504C87.527 3.74642 87.4438 3.51742 87.4438 3.22803C87.4438 2.86117 87.568 2.57861 87.8164 2.38037C88.0648 2.17985 88.4191 2.07959 88.8794 2.07959C89.0845 2.07959 89.2816 2.09896 89.4707 2.1377C89.6598 2.17415 89.8455 2.22998 90.0278 2.30518ZM93.0186 1.08496V2.17188H94.4473V2.66064H93.0186V4.73877C93.0186 5.02132 93.0721 5.21842 93.1792 5.33008C93.2863 5.44173 93.4731 5.49756 93.7397 5.49756H94.4473V6H93.6782C93.2065 6 92.8739 5.90544 92.6802 5.71631C92.4865 5.52718 92.3896 5.20133 92.3896 4.73877V2.66064H91.3677V2.17188H92.3896V1.08496H93.0186ZM96.2178 2.18555H97.8276V5.51123H99.0752V6H95.9512V5.51123H97.1987V2.67432H96.2178V2.18555ZM97.1987 0.69873H97.8276V1.4917H97.1987V0.69873ZM102.948 3.62793V6H102.315V3.62793C102.315 3.28385 102.255 3.03092 102.134 2.86914C102.014 2.70736 101.824 2.62646 101.567 2.62646C101.273 2.62646 101.046 2.73128 100.887 2.94092C100.729 3.14827 100.651 3.44678 100.651 3.83643V6H100.022V2.17188H100.651V2.74609C100.763 2.52734 100.914 2.36214 101.105 2.25049C101.297 2.13656 101.524 2.07959 101.786 2.07959C102.175 2.07959 102.466 2.20833 102.657 2.46582C102.851 2.72103 102.948 3.1084 102.948 3.62793ZM106.506 4.05518C106.506 3.5835 106.428 3.22575 106.273 2.98193C106.121 2.73584 105.897 2.61279 105.604 2.61279C105.296 2.61279 105.061 2.73584 104.899 2.98193C104.738 3.22575 104.657 3.5835 104.657 4.05518C104.657 4.52686 104.738 4.88688 104.899 5.13525C105.063 5.38135 105.3 5.50439 105.61 5.50439C105.9 5.50439 106.121 5.38021 106.273 5.13184C106.428 4.88346 106.506 4.52458 106.506 4.05518ZM107.135 5.75391C107.135 6.32812 106.999 6.76335 106.728 7.05957C106.457 7.35579 106.058 7.50391 105.532 7.50391C105.359 7.50391 105.177 7.48796 104.988 7.45605C104.799 7.42415 104.61 7.37744 104.421 7.31592V6.69385C104.644 6.79867 104.847 6.87614 105.029 6.92627C105.212 6.9764 105.379 7.00146 105.532 7.00146C105.871 7.00146 106.118 6.90918 106.273 6.72461C106.428 6.54004 106.506 6.24723 106.506 5.84619V5.81885V5.3916C106.406 5.60579 106.269 5.7653 106.096 5.87012C105.923 5.97493 105.712 6.02734 105.463 6.02734C105.017 6.02734 104.66 5.84847 104.394 5.49072C104.127 5.13298 103.994 4.65446 103.994 4.05518C103.994 3.45361 104.127 2.97396 104.394 2.61621C104.66 2.25846 105.017 2.07959 105.463 2.07959C105.709 2.07959 105.918 2.12858 106.089 2.22656C106.26 2.32454 106.399 2.47607 106.506 2.68115V2.18555H107.135V5.75391ZM114.114 2.61279C113.795 2.61279 113.554 2.73698 113.39 2.98535C113.226 3.23372 113.144 3.60173 113.144 4.08936C113.144 4.57471 113.226 4.94271 113.39 5.19336C113.554 5.44173 113.795 5.56592 114.114 5.56592C114.436 5.56592 114.678 5.44173 114.842 5.19336C115.006 4.94271 115.088 4.57471 115.088 4.08936C115.088 3.60173 115.006 3.23372 114.842 2.98535C114.678 2.73698 114.436 2.61279 114.114 2.61279ZM114.114 2.07959C114.645 2.07959 115.051 2.25163 115.331 2.5957C115.614 2.93978 115.755 3.43766 115.755 4.08936C115.755 4.74333 115.615 5.24235 115.334 5.58643C115.054 5.92822 114.647 6.09912 114.114 6.09912C113.583 6.09912 113.178 5.92822 112.897 5.58643C112.617 5.24235 112.477 4.74333 112.477 4.08936C112.477 3.43766 112.617 2.93978 112.897 2.5957C113.178 2.25163 113.583 2.07959 114.114 2.07959ZM119.819 3.62793V6H119.187V3.62793C119.187 3.28385 119.126 3.03092 119.005 2.86914C118.885 2.70736 118.695 2.62646 118.438 2.62646C118.144 2.62646 117.917 2.73128 117.758 2.94092C117.601 3.14827 117.522 3.44678 117.522 3.83643V6H116.893V2.17188H117.522V2.74609C117.634 2.52734 117.785 2.36214 117.977 2.25049C118.168 2.13656 118.395 2.07959 118.657 2.07959C119.046 2.07959 119.337 2.20833 119.528 2.46582C119.722 2.72103 119.819 3.1084 119.819 3.62793ZM125.37 0.896973H127.954V1.47803H125.999V2.73242C126.097 2.69596 126.194 2.66976 126.292 2.65381C126.393 2.63558 126.493 2.62646 126.593 2.62646C127.122 2.62646 127.541 2.78255 127.851 3.09473C128.161 3.4069 128.316 3.82959 128.316 4.36279C128.316 4.90055 128.153 5.32438 127.827 5.63428C127.504 5.94417 127.06 6.09912 126.498 6.09912C126.226 6.09912 125.978 6.08089 125.752 6.04443C125.529 6.00798 125.329 5.95329 125.151 5.88037V5.17969C125.361 5.29362 125.571 5.37907 125.783 5.43604C125.995 5.49072 126.212 5.51807 126.433 5.51807C126.813 5.51807 127.106 5.41781 127.311 5.21729C127.518 5.01676 127.622 4.73193 127.622 4.36279C127.622 3.99821 127.515 3.71452 127.301 3.51172C127.089 3.30892 126.793 3.20752 126.412 3.20752C126.228 3.20752 126.048 3.22917 125.872 3.27246C125.697 3.31348 125.529 3.37614 125.37 3.46045V0.896973ZM136.724 5.80518C136.556 5.90316 136.381 5.97607 136.201 6.02393C136.023 6.07406 135.841 6.09912 135.654 6.09912C135.062 6.09912 134.598 5.92139 134.263 5.56592C133.931 5.21045 133.764 4.71826 133.764 4.08936C133.764 3.46045 133.931 2.96826 134.263 2.61279C134.598 2.25732 135.062 2.07959 135.654 2.07959C135.839 2.07959 136.019 2.10352 136.194 2.15137C136.37 2.19922 136.546 2.27327 136.724 2.37354V3.0332C136.558 2.88509 136.39 2.77799 136.222 2.71191C136.055 2.64583 135.866 2.61279 135.654 2.61279C135.26 2.61279 134.957 2.7404 134.745 2.99561C134.533 3.25081 134.427 3.6154 134.427 4.08936C134.427 4.56104 134.533 4.92562 134.745 5.18311C134.959 5.43831 135.262 5.56592 135.654 5.56592C135.873 5.56592 136.069 5.53288 136.242 5.4668C136.415 5.39844 136.576 5.29362 136.724 5.15234V5.80518ZM141.263 2.96143C141.129 2.85661 140.992 2.78027 140.853 2.73242C140.714 2.68457 140.561 2.66064 140.395 2.66064C140.003 2.66064 139.703 2.78369 139.496 3.02979C139.289 3.27588 139.185 3.63135 139.185 4.09619V6H138.553V2.17188H139.185V2.92041C139.29 2.64925 139.451 2.44189 139.667 2.29834C139.886 2.15251 140.144 2.07959 140.443 2.07959C140.598 2.07959 140.743 2.09896 140.877 2.1377C141.011 2.17643 141.14 2.23682 141.263 2.31885V2.96143ZM144.466 4.76953C144.361 5.03613 144.228 5.38704 144.066 5.82227C143.84 6.42383 143.689 6.79069 143.611 6.92285C143.507 7.10059 143.375 7.23389 143.218 7.32275C143.061 7.41162 142.878 7.45605 142.668 7.45605H142.162V6.92969H142.535C142.719 6.92969 142.864 6.87614 142.969 6.76904C143.074 6.66195 143.207 6.38509 143.369 5.93848L141.889 2.17188H142.555L143.69 5.16602L144.808 2.17188H145.474L144.466 4.76953ZM147.033 5.51807V7.45605H146.4V2.17188H147.033V2.66064C147.138 2.47152 147.277 2.32796 147.45 2.22998C147.625 2.12972 147.827 2.07959 148.055 2.07959C148.517 2.07959 148.88 2.25846 149.142 2.61621C149.406 2.97396 149.538 3.46956 149.538 4.10303C149.538 4.7251 149.406 5.21387 149.142 5.56934C148.877 5.92253 148.515 6.09912 148.055 6.09912C147.822 6.09912 147.618 6.05013 147.443 5.95215C147.27 5.85189 147.133 5.70719 147.033 5.51807ZM148.878 4.08936C148.878 3.60173 148.801 3.23372 148.646 2.98535C148.493 2.73698 148.265 2.61279 147.962 2.61279C147.657 2.61279 147.426 2.73812 147.269 2.98877C147.111 3.23714 147.033 3.604 147.033 4.08936C147.033 4.57243 147.111 4.93929 147.269 5.18994C147.426 5.44059 147.657 5.56592 147.962 5.56592C148.265 5.56592 148.493 5.44173 148.646 5.19336C148.801 4.94499 148.878 4.57699 148.878 4.08936ZM152.067 1.08496V2.17188H153.496V2.66064H152.067V4.73877C152.067 5.02132 152.121 5.21842 152.228 5.33008C152.335 5.44173 152.522 5.49756 152.789 5.49756H153.496V6H152.727C152.255 6 151.923 5.90544 151.729 5.71631C151.535 5.52718 151.438 5.20133 151.438 4.73877V2.66064H150.417V2.17188H151.438V1.08496H152.067ZM156.292 2.61279C155.973 2.61279 155.731 2.73698 155.567 2.98535C155.403 3.23372 155.321 3.60173 155.321 4.08936C155.321 4.57471 155.403 4.94271 155.567 5.19336C155.731 5.44173 155.973 5.56592 156.292 5.56592C156.613 5.56592 156.856 5.44173 157.02 5.19336C157.184 4.94271 157.266 4.57471 157.266 4.08936C157.266 3.60173 157.184 3.23372 157.02 2.98535C156.856 2.73698 156.613 2.61279 156.292 2.61279ZM156.292 2.07959C156.823 2.07959 157.229 2.25163 157.509 2.5957C157.791 2.93978 157.933 3.43766 157.933 4.08936C157.933 4.74333 157.792 5.24235 157.512 5.58643C157.232 5.92822 156.825 6.09912 156.292 6.09912C155.761 6.09912 155.355 5.92822 155.075 5.58643C154.795 5.24235 154.655 4.74333 154.655 4.08936C154.655 3.43766 154.795 2.93978 155.075 2.5957C155.355 2.25163 155.761 2.07959 156.292 2.07959ZM166.45 3.77148V4.0791H163.726V4.09961C163.708 4.62142 163.807 4.99626 164.023 5.22412C164.242 5.45199 164.55 5.56592 164.946 5.56592C165.147 5.56592 165.356 5.53402 165.575 5.47021C165.794 5.40641 166.028 5.30957 166.276 5.17969V5.80518C166.037 5.90316 165.805 5.97607 165.582 6.02393C165.361 6.07406 165.147 6.09912 164.939 6.09912C164.345 6.09912 163.88 5.92139 163.545 5.56592C163.21 5.20817 163.042 4.71598 163.042 4.08936C163.042 3.47868 163.207 2.99105 163.535 2.62646C163.863 2.26188 164.3 2.07959 164.847 2.07959C165.335 2.07959 165.719 2.24479 165.999 2.5752C166.282 2.9056 166.432 3.30436 166.45 3.77148ZM165.821 3.58691C165.794 3.32259 165.697 3.09473 165.531 2.90332C165.367 2.70964 165.13 2.61279 164.82 2.61279C164.517 2.61279 164.267 2.71305 164.071 2.91357C163.875 3.1141 163.768 3.33968 163.75 3.59033L165.821 3.58691ZM170.661 2.17188L169.291 4.00391L170.794 6H170.066L168.945 4.46533L167.828 6H167.1L168.604 4.00391L167.233 2.17188H167.93L168.945 3.55615L169.954 2.17188H170.661ZM174.684 5.80518C174.515 5.90316 174.341 5.97607 174.161 6.02393C173.983 6.07406 173.801 6.09912 173.614 6.09912C173.022 6.09912 172.558 5.92139 172.223 5.56592C171.89 5.21045 171.724 4.71826 171.724 4.08936C171.724 3.46045 171.89 2.96826 172.223 2.61279C172.558 2.25732 173.022 2.07959 173.614 2.07959C173.799 2.07959 173.979 2.10352 174.154 2.15137C174.33 2.19922 174.506 2.27327 174.684 2.37354V3.0332C174.518 2.88509 174.35 2.77799 174.182 2.71191C174.015 2.64583 173.826 2.61279 173.614 2.61279C173.22 2.61279 172.917 2.7404 172.705 2.99561C172.493 3.25081 172.387 3.6154 172.387 4.08936C172.387 4.56104 172.493 4.92562 172.705 5.18311C172.919 5.43831 173.222 5.56592 173.614 5.56592C173.833 5.56592 174.029 5.53288 174.202 5.4668C174.375 5.39844 174.536 5.29362 174.684 5.15234V5.80518ZM178.868 3.62793V6H178.235V3.62793C178.235 3.28385 178.175 3.03092 178.054 2.86914C177.933 2.70736 177.744 2.62646 177.487 2.62646C177.193 2.62646 176.966 2.73128 176.807 2.94092C176.649 3.14827 176.571 3.44678 176.571 3.83643V6H175.942V0.681641H176.571V2.74609C176.682 2.52734 176.834 2.36214 177.025 2.25049C177.217 2.13656 177.444 2.07959 177.706 2.07959C178.095 2.07959 178.386 2.20833 178.577 2.46582C178.771 2.72103 178.868 3.1084 178.868 3.62793ZM181.893 4.07568H181.684C181.317 4.07568 181.04 4.14062 180.854 4.27051C180.669 4.39811 180.577 4.58952 180.577 4.84473C180.577 5.07487 180.646 5.25374 180.785 5.38135C180.924 5.50895 181.117 5.57275 181.363 5.57275C181.709 5.57275 181.981 5.45312 182.18 5.21387C182.378 4.97233 182.478 4.63965 182.48 4.21582V4.07568H181.893ZM183.113 3.81592V6H182.48V5.43262C182.346 5.66048 182.176 5.8291 181.971 5.93848C181.768 6.04557 181.521 6.09912 181.229 6.09912C180.84 6.09912 180.529 5.98975 180.296 5.771C180.064 5.54997 179.948 5.25488 179.948 4.88574C179.948 4.45964 180.09 4.13607 180.375 3.91504C180.662 3.69401 181.083 3.5835 181.636 3.5835H182.48V3.48438C182.478 3.17904 182.401 2.95801 182.248 2.82129C182.095 2.68229 181.852 2.61279 181.517 2.61279C181.302 2.61279 181.086 2.64355 180.867 2.70508C180.648 2.7666 180.435 2.85661 180.228 2.9751V2.34619C180.46 2.25732 180.683 2.19124 180.895 2.14795C181.109 2.10238 181.316 2.07959 181.517 2.07959C181.833 2.07959 182.103 2.1263 182.327 2.21973C182.552 2.31315 182.735 2.45329 182.874 2.64014C182.96 2.75407 183.022 2.89535 183.058 3.06396C183.095 3.23031 183.113 3.48096 183.113 3.81592ZM187.303 3.62793V6H186.671V3.62793C186.671 3.28385 186.611 3.03092 186.49 2.86914C186.369 2.70736 186.18 2.62646 185.922 2.62646C185.628 2.62646 185.402 2.73128 185.242 2.94092C185.085 3.14827 185.006 3.44678 185.006 3.83643V6H184.377V2.17188H185.006V2.74609C185.118 2.52734 185.27 2.36214 185.461 2.25049C185.652 2.13656 185.879 2.07959 186.141 2.07959C186.531 2.07959 186.821 2.20833 187.013 2.46582C187.206 2.72103 187.303 3.1084 187.303 3.62793ZM190.861 4.05518C190.861 3.5835 190.784 3.22575 190.629 2.98193C190.476 2.73584 190.253 2.61279 189.959 2.61279C189.651 2.61279 189.417 2.73584 189.255 2.98193C189.093 3.22575 189.012 3.5835 189.012 4.05518C189.012 4.52686 189.093 4.88688 189.255 5.13525C189.419 5.38135 189.656 5.50439 189.966 5.50439C190.255 5.50439 190.476 5.38021 190.629 5.13184C190.784 4.88346 190.861 4.52458 190.861 4.05518ZM191.49 5.75391C191.49 6.32812 191.355 6.76335 191.083 7.05957C190.812 7.35579 190.414 7.50391 189.887 7.50391C189.714 7.50391 189.533 7.48796 189.344 7.45605C189.155 7.42415 188.965 7.37744 188.776 7.31592V6.69385C189 6.79867 189.202 6.87614 189.385 6.92627C189.567 6.9764 189.735 7.00146 189.887 7.00146C190.227 7.00146 190.474 6.90918 190.629 6.72461C190.784 6.54004 190.861 6.24723 190.861 5.84619V5.81885V5.3916C190.761 5.60579 190.624 5.7653 190.451 5.87012C190.278 5.97493 190.067 6.02734 189.819 6.02734C189.372 6.02734 189.016 5.84847 188.749 5.49072C188.482 5.13298 188.349 4.65446 188.349 4.05518C188.349 3.45361 188.482 2.97396 188.749 2.61621C189.016 2.25846 189.372 2.07959 189.819 2.07959C190.065 2.07959 190.273 2.12858 190.444 2.22656C190.615 2.32454 190.754 2.47607 190.861 2.68115V2.18555H191.49V5.75391ZM195.975 3.77148V4.0791H193.25V4.09961C193.232 4.62142 193.331 4.99626 193.548 5.22412C193.767 5.45199 194.074 5.56592 194.471 5.56592C194.671 5.56592 194.881 5.53402 195.1 5.47021C195.318 5.40641 195.552 5.30957 195.8 5.17969V5.80518C195.561 5.90316 195.33 5.97607 195.106 6.02393C194.885 6.07406 194.671 6.09912 194.464 6.09912C193.869 6.09912 193.404 5.92139 193.069 5.56592C192.734 5.20817 192.567 4.71598 192.567 4.08936C192.567 3.47868 192.731 2.99105 193.059 2.62646C193.387 2.26188 193.825 2.07959 194.372 2.07959C194.859 2.07959 195.243 2.24479 195.523 2.5752C195.806 2.9056 195.956 3.30436 195.975 3.77148ZM195.346 3.58691C195.318 3.32259 195.222 3.09473 195.055 2.90332C194.891 2.70964 194.654 2.61279 194.344 2.61279C194.041 2.61279 193.792 2.71305 193.596 2.91357C193.4 3.1141 193.293 3.33968 193.274 3.59033L195.346 3.58691ZM199.69 2.30518V2.92041C199.51 2.81559 199.329 2.73698 199.146 2.68457C198.964 2.63216 198.778 2.60596 198.589 2.60596C198.305 2.60596 198.091 2.65267 197.95 2.74609C197.811 2.83724 197.742 2.97738 197.742 3.1665C197.742 3.3374 197.794 3.46501 197.899 3.54932C198.004 3.63363 198.265 3.71566 198.682 3.79541L198.935 3.84326C199.247 3.90251 199.483 4.021 199.642 4.19873C199.804 4.37646 199.885 4.60775 199.885 4.89258C199.885 5.27083 199.75 5.56706 199.481 5.78125C199.213 5.99316 198.839 6.09912 198.36 6.09912C198.171 6.09912 197.973 6.07861 197.766 6.0376C197.558 5.99886 197.334 5.93962 197.092 5.85986V5.21045C197.327 5.33122 197.551 5.42236 197.766 5.48389C197.98 5.54313 198.183 5.57275 198.374 5.57275C198.652 5.57275 198.867 5.51693 199.02 5.40527C199.173 5.29134 199.249 5.13298 199.249 4.93018C199.249 4.63851 198.97 4.43685 198.412 4.3252L198.384 4.31836L198.148 4.27051C197.786 4.19987 197.522 4.08138 197.355 3.91504C197.189 3.74642 197.106 3.51742 197.106 3.22803C197.106 2.86117 197.23 2.57861 197.479 2.38037C197.727 2.17985 198.081 2.07959 198.542 2.07959C198.747 2.07959 198.944 2.09896 199.133 2.1377C199.322 2.17415 199.508 2.22998 199.69 2.30518ZM204.496 2.71533L201.59 3.80908L204.496 4.89258V5.51807L200.883 4.08936V3.52197L204.496 2.09326V2.71533ZM207.838 0.896973H208.488L205.801 6.64941H205.148L207.838 0.896973ZM213.536 2.71533V2.09326L217.149 3.52197V4.08936L213.536 5.51807V4.89258L216.441 3.80908L213.536 2.71533Z" fill="white"/>
<path d="M210.299 5.51807V7.45605H209.667V2.17188H210.299V2.66064C210.404 2.47152 210.543 2.32796 210.716 2.22998C210.892 2.12972 211.093 2.07959 211.321 2.07959C211.784 2.07959 212.146 2.25846 212.408 2.61621C212.673 2.97396 212.805 3.46956 212.805 4.10303C212.805 4.7251 212.673 5.21387 212.408 5.56934C212.144 5.92253 211.782 6.09912 211.321 6.09912C211.089 6.09912 210.885 6.05013 210.709 5.95215C210.536 5.85189 210.4 5.70719 210.299 5.51807ZM212.145 4.08936C212.145 3.60173 212.068 3.23372 211.913 2.98535C211.76 2.73698 211.532 2.61279 211.229 2.61279C210.924 2.61279 210.692 2.73812 210.535 2.98877C210.378 3.23714 210.299 3.604 210.299 4.08936C210.299 4.57243 210.378 4.93929 210.535 5.18994C210.692 5.44059 210.924 5.56592 211.229 5.56592C211.532 5.56592 211.76 5.44173 211.913 5.19336C212.068 4.94499 212.145 4.57699 212.145 4.08936Z" fill="#00FFD1"/>
</svg>
