<svg width="138" height="8" viewBox="0 0 138 8" fill="none" xmlns="http://www.w3.org/2000/svg">
<path d="M0.475098 0.896973H3.68799V1.19092L1.86279 6H1.1416L2.91895 1.47803H0.475098V0.896973Z" fill="white" fill-opacity="0.3"/>
<path d="M14.8281 3.77148V4.0791H12.104V4.09961C12.0858 4.62142 12.1849 4.99626 12.4014 5.22412C12.6201 5.45199 12.9277 5.56592 13.3242 5.56592C13.5247 5.56592 13.7344 5.53402 13.9531 5.47021C14.1719 5.40641 14.4054 5.30957 14.6538 5.17969V5.80518C14.4146 5.90316 14.1833 5.97607 13.96 6.02393C13.7389 6.07406 13.5247 6.09912 13.3174 6.09912C12.7227 6.09912 12.2578 5.92139 11.9229 5.56592C11.5879 5.20817 11.4204 4.71598 11.4204 4.08936C11.4204 3.47868 11.5845 2.99105 11.9126 2.62646C12.2407 2.26188 12.6782 2.07959 13.2251 2.07959C13.7127 2.07959 14.0967 2.24479 14.377 2.5752C14.6595 2.9056 14.8099 3.30436 14.8281 3.77148ZM14.1992 3.58691C14.1719 3.32259 14.075 3.09473 13.9087 2.90332C13.7446 2.70964 13.5076 2.61279 13.1978 2.61279C12.8947 2.61279 12.6452 2.71305 12.4492 2.91357C12.2533 3.1141 12.1462 3.33968 12.1279 3.59033L14.1992 3.58691ZM19.0391 2.17188L17.6685 4.00391L19.1724 6H18.4443L17.3232 4.46533L16.2056 6H15.4775L16.9814 4.00391L15.6108 2.17188H16.3081L17.3232 3.55615L18.3315 2.17188H19.0391ZM20.7173 5.51807V7.45605H20.085V2.17188H20.7173V2.66064C20.8221 2.47152 20.9611 2.32796 21.1343 2.22998C21.3097 2.12972 21.5114 2.07959 21.7393 2.07959C22.2018 2.07959 22.5641 2.25846 22.8262 2.61621C23.0905 2.97396 23.2227 3.46956 23.2227 4.10303C23.2227 4.7251 23.0905 5.21387 22.8262 5.56934C22.5618 5.92253 22.1995 6.09912 21.7393 6.09912C21.5068 6.09912 21.3029 6.05013 21.1274 5.95215C20.9543 5.85189 20.8175 5.70719 20.7173 5.51807ZM22.563 4.08936C22.563 3.60173 22.4855 3.23372 22.3306 2.98535C22.1779 2.73698 21.95 2.61279 21.647 2.61279C21.3416 2.61279 21.1104 2.73812 20.9531 2.98877C20.7959 3.23714 20.7173 3.604 20.7173 4.08936C20.7173 4.57243 20.7959 4.93929 20.9531 5.18994C21.1104 5.44059 21.3416 5.56592 21.647 5.56592C21.95 5.56592 22.1779 5.44173 22.3306 5.19336C22.4855 4.94499 22.563 4.57699 22.563 4.08936ZM25.7588 2.61279C25.4398 2.61279 25.1982 2.73698 25.0342 2.98535C24.8701 3.23372 24.7881 3.60173 24.7881 4.08936C24.7881 4.57471 24.8701 4.94271 25.0342 5.19336C25.1982 5.44173 25.4398 5.56592 25.7588 5.56592C26.0801 5.56592 26.3228 5.44173 26.4868 5.19336C26.6509 4.94271 26.7329 4.57471 26.7329 4.08936C26.7329 3.60173 26.6509 3.23372 26.4868 2.98535C26.3228 2.73698 26.0801 2.61279 25.7588 2.61279ZM25.7588 2.07959C26.2897 2.07959 26.6953 2.25163 26.9756 2.5957C27.2581 2.93978 27.3994 3.43766 27.3994 4.08936C27.3994 4.74333 27.2593 5.24235 26.979 5.58643C26.6987 5.92822 26.292 6.09912 25.7588 6.09912C25.2279 6.09912 24.8223 5.92822 24.542 5.58643C24.2617 5.24235 24.1216 4.74333 24.1216 4.08936C24.1216 3.43766 24.2617 2.93978 24.542 2.5957C24.8223 2.25163 25.2279 2.07959 25.7588 2.07959ZM31.8188 2.96143C31.6844 2.85661 31.5477 2.78027 31.4087 2.73242C31.2697 2.68457 31.117 2.66064 30.9507 2.66064C30.5588 2.66064 30.2591 2.78369 30.0518 3.02979C29.8444 3.27588 29.7407 3.63135 29.7407 4.09619V6H29.1084V2.17188H29.7407V2.92041C29.8455 2.64925 30.0062 2.44189 30.2227 2.29834C30.4414 2.15251 30.7 2.07959 30.9985 2.07959C31.1535 2.07959 31.2982 2.09896 31.4326 2.1377C31.5671 2.17643 31.6958 2.23682 31.8188 2.31885V2.96143ZM34.1875 1.08496V2.17188H35.6162V2.66064H34.1875V4.73877C34.1875 5.02132 34.241 5.21842 34.3481 5.33008C34.4552 5.44173 34.6421 5.49756 34.9087 5.49756H35.6162V6H34.8472C34.3755 6 34.0428 5.90544 33.8491 5.71631C33.6554 5.52718 33.5586 5.20133 33.5586 4.73877V2.66064H32.5366V2.17188H33.5586V1.08496H34.1875ZM44.1509 5.80518C43.9823 5.90316 43.8079 5.97607 43.6279 6.02393C43.4502 6.07406 43.2679 6.09912 43.0811 6.09912C42.4886 6.09912 42.0249 5.92139 41.6899 5.56592C41.3573 5.21045 41.1909 4.71826 41.1909 4.08936C41.1909 3.46045 41.3573 2.96826 41.6899 2.61279C42.0249 2.25732 42.4886 2.07959 43.0811 2.07959C43.2656 2.07959 43.4456 2.10352 43.6211 2.15137C43.7965 2.19922 43.9731 2.27327 44.1509 2.37354V3.0332C43.9845 2.88509 43.8171 2.77799 43.6484 2.71191C43.4821 2.64583 43.293 2.61279 43.0811 2.61279C42.6868 2.61279 42.3838 2.7404 42.1719 2.99561C41.96 3.25081 41.854 3.6154 41.854 4.08936C41.854 4.56104 41.96 4.92562 42.1719 5.18311C42.3861 5.43831 42.6891 5.56592 43.0811 5.56592C43.2998 5.56592 43.4958 5.53288 43.6689 5.4668C43.8421 5.39844 44.0028 5.29362 44.1509 5.15234V5.80518ZM46.8477 2.61279C46.5286 2.61279 46.2871 2.73698 46.123 2.98535C45.959 3.23372 45.877 3.60173 45.877 4.08936C45.877 4.57471 45.959 4.94271 46.123 5.19336C46.2871 5.44173 46.5286 5.56592 46.8477 5.56592C47.1689 5.56592 47.4116 5.44173 47.5757 5.19336C47.7397 4.94271 47.8218 4.57471 47.8218 4.08936C47.8218 3.60173 47.7397 3.23372 47.5757 2.98535C47.4116 2.73698 47.1689 2.61279 46.8477 2.61279ZM46.8477 2.07959C47.3786 2.07959 47.7842 2.25163 48.0645 2.5957C48.347 2.93978 48.4883 3.43766 48.4883 4.08936C48.4883 4.74333 48.3481 5.24235 48.0679 5.58643C47.7876 5.92822 47.3809 6.09912 46.8477 6.09912C46.3167 6.09912 45.9111 5.92822 45.6309 5.58643C45.3506 5.24235 45.2104 4.74333 45.2104 4.08936C45.2104 3.43766 45.3506 2.93978 45.6309 2.5957C45.9111 2.25163 46.3167 2.07959 46.8477 2.07959ZM52.5522 3.62793V6H51.9199V3.62793C51.9199 3.28385 51.8595 3.03092 51.7388 2.86914C51.618 2.70736 51.4289 2.62646 51.1714 2.62646C50.8774 2.62646 50.6507 2.73128 50.4912 2.94092C50.334 3.14827 50.2554 3.44678 50.2554 3.83643V6H49.6265V2.17188H50.2554V2.74609C50.367 2.52734 50.5186 2.36214 50.71 2.25049C50.9014 2.13656 51.1281 2.07959 51.3901 2.07959C51.7798 2.07959 52.0703 2.20833 52.2617 2.46582C52.4554 2.72103 52.5522 3.1084 52.5522 3.62793ZM56.5034 2.30518V2.92041C56.3234 2.81559 56.1423 2.73698 55.96 2.68457C55.7777 2.63216 55.592 2.60596 55.4028 2.60596C55.118 2.60596 54.9049 2.65267 54.7637 2.74609C54.6247 2.83724 54.5552 2.97738 54.5552 3.1665C54.5552 3.3374 54.6076 3.46501 54.7124 3.54932C54.8172 3.63363 55.0781 3.71566 55.4951 3.79541L55.748 3.84326C56.0602 3.90251 56.2961 4.021 56.4556 4.19873C56.6174 4.37646 56.6982 4.60775 56.6982 4.89258C56.6982 5.27083 56.5638 5.56706 56.2949 5.78125C56.026 5.99316 55.6523 6.09912 55.1738 6.09912C54.9847 6.09912 54.7865 6.07861 54.5791 6.0376C54.3717 5.99886 54.1473 5.93962 53.9058 5.85986V5.21045C54.1405 5.33122 54.3649 5.42236 54.5791 5.48389C54.7933 5.54313 54.9961 5.57275 55.1875 5.57275C55.4655 5.57275 55.6808 5.51693 55.8335 5.40527C55.9862 5.29134 56.0625 5.13298 56.0625 4.93018C56.0625 4.63851 55.7834 4.43685 55.2251 4.3252L55.1978 4.31836L54.9619 4.27051C54.5996 4.19987 54.3353 4.08138 54.1689 3.91504C54.0026 3.74642 53.9194 3.51742 53.9194 3.22803C53.9194 2.86117 54.0436 2.57861 54.292 2.38037C54.5404 2.17985 54.8947 2.07959 55.355 2.07959C55.5601 2.07959 55.7572 2.09896 55.9463 2.1377C56.1354 2.17415 56.3211 2.22998 56.5034 2.30518ZM59.4941 1.08496V2.17188H60.9229V2.66064H59.4941V4.73877C59.4941 5.02132 59.5477 5.21842 59.6548 5.33008C59.7619 5.44173 59.9487 5.49756 60.2153 5.49756H60.9229V6H60.1538C59.6821 6 59.3494 5.90544 59.1558 5.71631C58.9621 5.52718 58.8652 5.20133 58.8652 4.73877V2.66064H57.8433V2.17188H58.8652V1.08496H59.4941ZM120.963 4.29102H124.576V4.86865H120.963V4.29102ZM120.963 2.68115H124.576V3.25879H120.963V2.68115ZM125.181 2.71533V2.09326L128.793 3.52197V4.08936L125.181 5.51807V4.89258L128.086 3.80908L125.181 2.71533ZM136.843 6.17432V6.6665H136.624C136.057 6.6665 135.676 6.58219 135.482 6.41357C135.291 6.24495 135.195 5.90885 135.195 5.40527V4.72168C135.195 4.47331 135.125 4.25911 134.983 4.0791C134.844 3.89909 134.628 3.80908 134.334 3.80908H133.917V3.32031H134.334C134.655 3.32031 134.879 3.24398 135.004 3.09131C135.132 2.93864 135.195 2.71419 135.195 2.41797V1.5293C135.195 1.02572 135.291 0.690755 135.482 0.524414C135.676 0.355794 136.057 0.271484 136.624 0.271484H136.843V0.760254H136.604C136.285 0.760254 136.076 0.810384 135.978 0.910645C135.882 1.00863 135.834 1.2194 135.834 1.54297V2.45898C135.834 2.86003 135.756 3.13005 135.599 3.26904C135.441 3.40576 135.135 3.50488 134.679 3.56641C135.121 3.61882 135.424 3.72021 135.588 3.87061C135.752 4.01872 135.834 4.2876 135.834 4.67725V5.3916C135.834 5.71745 135.882 5.92936 135.978 6.02734C136.076 6.12533 136.285 6.17432 136.604 6.17432H136.843Z" fill="#77B7D7"/>
<path d="M99.874 4.29102H103.487V4.86865H99.874V4.29102ZM99.874 2.68115H103.487V3.25879H99.874V2.68115ZM110.931 0.34668C110.628 0.866211 110.401 1.3846 110.251 1.90186C110.103 2.41683 110.029 2.93636 110.029 3.46045C110.029 3.98226 110.103 4.50179 110.251 5.01904C110.401 5.5363 110.628 6.05697 110.931 6.58105H110.384C110.04 6.03874 109.784 5.51123 109.615 4.99854C109.447 4.48356 109.362 3.97087 109.362 3.46045C109.362 2.95231 109.447 2.44076 109.615 1.92578C109.784 1.41081 110.04 0.88444 110.384 0.34668H110.931ZM113.416 0.34668H113.963C114.307 0.88444 114.563 1.41081 114.732 1.92578C114.901 2.44076 114.985 2.95231 114.985 3.46045C114.985 3.97314 114.901 4.48698 114.732 5.00195C114.563 5.51693 114.307 6.04329 113.963 6.58105H113.416C113.719 6.05241 113.945 5.52946 114.093 5.01221C114.243 4.49495 114.318 3.9777 114.318 3.46045C114.318 2.94092 114.243 2.42253 114.093 1.90527C113.945 1.38802 113.719 0.86849 113.416 0.34668Z" fill="white"/>
<path d="M67.3213 5.43262C67.9023 5.43262 68.3079 5.2902 68.5381 5.00537C68.7682 4.71826 68.8833 4.20101 68.8833 3.45361C68.8833 2.69938 68.7682 2.17985 68.5381 1.89502C68.3102 1.60791 67.9046 1.46436 67.3213 1.46436H66.9932V5.43262H67.3213ZM67.335 0.896973C68.1143 0.896973 68.6885 1.10433 69.0576 1.51904C69.4268 1.93376 69.6113 2.57861 69.6113 3.45361C69.6113 4.32406 69.4268 4.96663 69.0576 5.38135C68.6885 5.79378 68.1143 6 67.335 6H66.2993V0.896973H67.335ZM71.1289 2.18555H72.7388V5.51123H73.9863V6H70.8623V5.51123H72.1099V2.67432H71.1289V2.18555ZM72.1099 0.69873H72.7388V1.4917H72.1099V0.69873ZM77.5923 2.30518V2.92041C77.4123 2.81559 77.2311 2.73698 77.0488 2.68457C76.8665 2.63216 76.6808 2.60596 76.4917 2.60596C76.2069 2.60596 75.9938 2.65267 75.8525 2.74609C75.7135 2.83724 75.644 2.97738 75.644 3.1665C75.644 3.3374 75.6965 3.46501 75.8013 3.54932C75.9061 3.63363 76.167 3.71566 76.584 3.79541L76.8369 3.84326C77.1491 3.90251 77.3849 4.021 77.5444 4.19873C77.7062 4.37646 77.7871 4.60775 77.7871 4.89258C77.7871 5.27083 77.6527 5.56706 77.3838 5.78125C77.1149 5.99316 76.7412 6.09912 76.2627 6.09912C76.0736 6.09912 75.8753 6.07861 75.668 6.0376C75.4606 5.99886 75.2362 5.93962 74.9946 5.85986V5.21045C75.2293 5.33122 75.4538 5.42236 75.668 5.48389C75.8822 5.54313 76.085 5.57275 76.2764 5.57275C76.5544 5.57275 76.7697 5.51693 76.9224 5.40527C77.075 5.29134 77.1514 5.13298 77.1514 4.93018C77.1514 4.63851 76.8722 4.43685 76.314 4.3252L76.2866 4.31836L76.0508 4.27051C75.6885 4.19987 75.4242 4.08138 75.2578 3.91504C75.0915 3.74642 75.0083 3.51742 75.0083 3.22803C75.0083 2.86117 75.1325 2.57861 75.3809 2.38037C75.6292 2.17985 75.9836 2.07959 76.4438 2.07959C76.6489 2.07959 76.846 2.09896 77.0352 2.1377C77.2243 2.17415 77.41 2.22998 77.5923 2.30518ZM79.7661 5.51807V7.45605H79.1338V2.17188H79.7661V2.66064C79.8709 2.47152 80.0099 2.32796 80.1831 2.22998C80.3586 2.12972 80.5602 2.07959 80.7881 2.07959C81.2507 2.07959 81.613 2.25846 81.875 2.61621C82.1393 2.97396 82.2715 3.46956 82.2715 4.10303C82.2715 4.7251 82.1393 5.21387 81.875 5.56934C81.6107 5.92253 81.2484 6.09912 80.7881 6.09912C80.5557 6.09912 80.3517 6.05013 80.1763 5.95215C80.0031 5.85189 79.8664 5.70719 79.7661 5.51807ZM81.6118 4.08936C81.6118 3.60173 81.5343 3.23372 81.3794 2.98535C81.2267 2.73698 80.9989 2.61279 80.6958 2.61279C80.3905 2.61279 80.1592 2.73812 80.002 2.98877C79.8447 3.23714 79.7661 3.604 79.7661 4.08936C79.7661 4.57243 79.8447 4.93929 80.002 5.18994C80.1592 5.44059 80.3905 5.56592 80.6958 5.56592C80.9989 5.56592 81.2267 5.44173 81.3794 5.19336C81.5343 4.94499 81.6118 4.57699 81.6118 4.08936ZM85.1597 4.61572C85.1597 4.89827 85.2109 5.11133 85.3135 5.25488C85.4183 5.39844 85.5721 5.47021 85.7749 5.47021H86.5098V6H85.7134C85.3374 6 85.0457 5.88037 84.8384 5.64111C84.6333 5.39958 84.5308 5.05778 84.5308 4.61572V1.15332H83.5225V0.661133H85.1597V4.61572ZM89.3193 4.07568H89.1108C88.744 4.07568 88.4671 4.14062 88.2803 4.27051C88.0957 4.39811 88.0034 4.58952 88.0034 4.84473C88.0034 5.07487 88.0729 5.25374 88.2119 5.38135C88.3509 5.50895 88.5435 5.57275 88.7896 5.57275C89.1359 5.57275 89.4082 5.45312 89.6064 5.21387C89.8047 4.97233 89.9049 4.63965 89.9072 4.21582V4.07568H89.3193ZM90.5396 3.81592V6H89.9072V5.43262C89.7728 5.66048 89.603 5.8291 89.3979 5.93848C89.1951 6.04557 88.9479 6.09912 88.6562 6.09912C88.2666 6.09912 87.9556 5.98975 87.7231 5.771C87.4907 5.54997 87.3745 5.25488 87.3745 4.88574C87.3745 4.45964 87.5169 4.13607 87.8018 3.91504C88.0889 3.69401 88.5093 3.5835 89.063 3.5835H89.9072V3.48438C89.9049 3.17904 89.8275 2.95801 89.6748 2.82129C89.5221 2.68229 89.2783 2.61279 88.9434 2.61279C88.7292 2.61279 88.5127 2.64355 88.2939 2.70508C88.0752 2.7666 87.8621 2.85661 87.6548 2.9751V2.34619C87.8872 2.25732 88.1094 2.19124 88.3213 2.14795C88.5355 2.10238 88.7428 2.07959 88.9434 2.07959C89.2601 2.07959 89.5301 2.1263 89.7534 2.21973C89.979 2.31315 90.1613 2.45329 90.3003 2.64014C90.3869 2.75407 90.4484 2.89535 90.4849 3.06396C90.5213 3.23031 90.5396 3.48096 90.5396 3.81592ZM94.0703 4.76953C93.9655 5.03613 93.8322 5.38704 93.6704 5.82227C93.4448 6.42383 93.2933 6.79069 93.2158 6.92285C93.111 7.10059 92.98 7.23389 92.8228 7.32275C92.6655 7.41162 92.4821 7.45605 92.2725 7.45605H91.7666V6.92969H92.1392C92.3237 6.92969 92.4684 6.87614 92.5732 6.76904C92.6781 6.66195 92.8114 6.38509 92.9731 5.93848L91.4932 2.17188H92.1597L93.2944 5.16602L94.4121 2.17188H95.0786L94.0703 4.76953Z" fill="#00FFD1"/>
</svg>
