<svg width="5" height="8" viewBox="0 0 5 8" fill="none" xmlns="http://www.w3.org/2000/svg">
<path d="M3.38721 1.00977V1.64551C3.24365 1.5612 3.09098 1.4974 2.9292 1.4541C2.76742 1.40853 2.5988 1.38574 2.42334 1.38574C1.98584 1.38574 1.6543 1.55094 1.42871 1.88135C1.20312 2.20947 1.09033 2.69368 1.09033 3.33398C1.19971 3.10612 1.35124 2.9318 1.54492 2.81104C1.73861 2.68799 1.96077 2.62646 2.21143 2.62646C2.70361 2.62646 3.08415 2.77799 3.35303 3.08105C3.62419 3.38184 3.75977 3.80908 3.75977 4.36279C3.75977 4.91423 3.62077 5.34147 3.34277 5.64453C3.06478 5.94759 2.67399 6.09912 2.17041 6.09912C1.57796 6.09912 1.14388 5.88721 0.868164 5.46338C0.592448 5.03727 0.45459 4.36735 0.45459 3.45361C0.45459 2.59229 0.619792 1.93604 0.950195 1.48486C1.28288 1.03141 1.76367 0.804688 2.39258 0.804688C2.5612 0.804688 2.72982 0.822917 2.89844 0.859375C3.06706 0.893555 3.22998 0.943685 3.38721 1.00977ZM2.15674 3.1665C1.86279 3.1665 1.63151 3.27246 1.46289 3.48438C1.29427 3.69629 1.20996 3.9891 1.20996 4.36279C1.20996 4.73649 1.29427 5.0293 1.46289 5.24121C1.63151 5.45312 1.86279 5.55908 2.15674 5.55908C2.46208 5.55908 2.69222 5.45882 2.84717 5.2583C3.00212 5.0555 3.07959 4.757 3.07959 4.36279C3.07959 3.96631 3.00212 3.66781 2.84717 3.46729C2.69222 3.26676 2.46208 3.1665 2.15674 3.1665Z" fill="white" fill-opacity="0.3"/>
</svg>
