<svg width="210" height="8" viewBox="0 0 210 8" fill="none" xmlns="http://www.w3.org/2000/svg">
<path d="M1.2749 5.41895H3.61963V6H0.519531V5.41895C0.945638 4.97005 1.3182 4.57357 1.63721 4.22949C1.95622 3.88542 2.17611 3.64274 2.29688 3.50146C2.52474 3.22347 2.67855 2.99902 2.7583 2.82812C2.83805 2.65495 2.87793 2.47835 2.87793 2.29834C2.87793 2.01351 2.79362 1.7902 2.625 1.62842C2.45866 1.46663 2.22965 1.38574 1.93799 1.38574C1.73063 1.38574 1.51302 1.42334 1.28516 1.49854C1.05729 1.57373 0.815755 1.68766 0.560547 1.84033V1.14307C0.795247 1.03141 1.02539 0.947103 1.25098 0.890137C1.47884 0.833171 1.70329 0.804688 1.92432 0.804688C2.42334 0.804688 2.82438 0.937988 3.12744 1.20459C3.43278 1.46891 3.58545 1.81641 3.58545 2.24707C3.58545 2.46582 3.53418 2.68457 3.43164 2.90332C3.33138 3.12207 3.16732 3.36361 2.93945 3.62793C2.81185 3.77604 2.62614 3.98112 2.38232 4.24316C2.14079 4.50521 1.77165 4.89714 1.2749 5.41895Z" fill="white" fill-opacity="0.3"/>
<path d="M12.0801 2.18555H13.6899V5.51123H14.9375V6H11.8135V5.51123H13.061V2.67432H12.0801V2.18555ZM13.061 0.69873H13.6899V1.4917H13.061V0.69873ZM17.5283 2.56152C17.6058 2.39746 17.7038 2.27669 17.8223 2.19922C17.943 2.11947 18.0877 2.07959 18.2563 2.07959C18.564 2.07959 18.7804 2.19922 18.9058 2.43848C19.0334 2.67546 19.0972 3.12321 19.0972 3.78174V6H18.5229V3.80908C18.5229 3.26904 18.4922 2.93408 18.4307 2.8042C18.3714 2.67204 18.262 2.60596 18.1025 2.60596C17.9202 2.60596 17.7949 2.6766 17.7266 2.81787C17.6605 2.95687 17.6274 3.28727 17.6274 3.80908V6H17.0532V3.80908C17.0532 3.26221 17.0202 2.92497 16.9541 2.79736C16.8903 2.66976 16.7741 2.60596 16.6055 2.60596C16.4391 2.60596 16.3229 2.6766 16.2568 2.81787C16.193 2.95687 16.1611 3.28727 16.1611 3.80908V6H15.5903V2.17188H16.1611V2.5C16.2363 2.36328 16.3298 2.2596 16.4414 2.18896C16.5553 2.11605 16.6841 2.07959 16.8276 2.07959C17.0008 2.07959 17.1444 2.11947 17.2583 2.19922C17.3745 2.27897 17.4645 2.39974 17.5283 2.56152ZM20.7173 5.51807V7.45605H20.085V2.17188H20.7173V2.66064C20.8221 2.47152 20.9611 2.32796 21.1343 2.22998C21.3097 2.12972 21.5114 2.07959 21.7393 2.07959C22.2018 2.07959 22.5641 2.25846 22.8262 2.61621C23.0905 2.97396 23.2227 3.46956 23.2227 4.10303C23.2227 4.7251 23.0905 5.21387 22.8262 5.56934C22.5618 5.92253 22.1995 6.09912 21.7393 6.09912C21.5068 6.09912 21.3029 6.05013 21.1274 5.95215C20.9543 5.85189 20.8175 5.70719 20.7173 5.51807ZM22.563 4.08936C22.563 3.60173 22.4855 3.23372 22.3306 2.98535C22.1779 2.73698 21.95 2.61279 21.647 2.61279C21.3416 2.61279 21.1104 2.73812 20.9531 2.98877C20.7959 3.23714 20.7173 3.604 20.7173 4.08936C20.7173 4.57243 20.7959 4.93929 20.9531 5.18994C21.1104 5.44059 21.3416 5.56592 21.647 5.56592C21.95 5.56592 22.1779 5.44173 22.3306 5.19336C22.4855 4.94499 22.563 4.57699 22.563 4.08936ZM25.7588 2.61279C25.4398 2.61279 25.1982 2.73698 25.0342 2.98535C24.8701 3.23372 24.7881 3.60173 24.7881 4.08936C24.7881 4.57471 24.8701 4.94271 25.0342 5.19336C25.1982 5.44173 25.4398 5.56592 25.7588 5.56592C26.0801 5.56592 26.3228 5.44173 26.4868 5.19336C26.6509 4.94271 26.7329 4.57471 26.7329 4.08936C26.7329 3.60173 26.6509 3.23372 26.4868 2.98535C26.3228 2.73698 26.0801 2.61279 25.7588 2.61279ZM25.7588 2.07959C26.2897 2.07959 26.6953 2.25163 26.9756 2.5957C27.2581 2.93978 27.3994 3.43766 27.3994 4.08936C27.3994 4.74333 27.2593 5.24235 26.979 5.58643C26.6987 5.92822 26.292 6.09912 25.7588 6.09912C25.2279 6.09912 24.8223 5.92822 24.542 5.58643C24.2617 5.24235 24.1216 4.74333 24.1216 4.08936C24.1216 3.43766 24.2617 2.93978 24.542 2.5957C24.8223 2.25163 25.2279 2.07959 25.7588 2.07959ZM31.8188 2.96143C31.6844 2.85661 31.5477 2.78027 31.4087 2.73242C31.2697 2.68457 31.117 2.66064 30.9507 2.66064C30.5588 2.66064 30.2591 2.78369 30.0518 3.02979C29.8444 3.27588 29.7407 3.63135 29.7407 4.09619V6H29.1084V2.17188H29.7407V2.92041C29.8455 2.64925 30.0062 2.44189 30.2227 2.29834C30.4414 2.15251 30.7 2.07959 30.9985 2.07959C31.1535 2.07959 31.2982 2.09896 31.4326 2.1377C31.5671 2.17643 31.6958 2.23682 31.8188 2.31885V2.96143ZM34.1875 1.08496V2.17188H35.6162V2.66064H34.1875V4.73877C34.1875 5.02132 34.241 5.21842 34.3481 5.33008C34.4552 5.44173 34.6421 5.49756 34.9087 5.49756H35.6162V6H34.8472C34.3755 6 34.0428 5.90544 33.8491 5.71631C33.6554 5.52718 33.5586 5.20133 33.5586 4.73877V2.66064H32.5366V2.17188H33.5586V1.08496H34.1875ZM44.0518 6.17432V6.6665H43.833C43.2656 6.6665 42.8851 6.58219 42.6914 6.41357C42.5 6.24495 42.4043 5.90885 42.4043 5.40527V4.72168C42.4043 4.47331 42.3337 4.25911 42.1924 4.0791C42.0534 3.89909 41.8369 3.80908 41.543 3.80908H41.126V3.32031H41.543C41.8643 3.32031 42.0876 3.24398 42.2129 3.09131C42.3405 2.93864 42.4043 2.71419 42.4043 2.41797V1.5293C42.4043 1.02572 42.5 0.690755 42.6914 0.524414C42.8851 0.355794 43.2656 0.271484 43.833 0.271484H44.0518V0.760254H43.8125C43.4935 0.760254 43.285 0.810384 43.187 0.910645C43.0913 1.00863 43.0435 1.2194 43.0435 1.54297V2.45898C43.0435 2.86003 42.9648 3.13005 42.8076 3.26904C42.6504 3.40576 42.3439 3.50488 41.8882 3.56641C42.3302 3.61882 42.6333 3.72021 42.7974 3.87061C42.9614 4.01872 43.0435 4.2876 43.0435 4.67725V5.3916C43.0435 5.71745 43.0913 5.92936 43.187 6.02734C43.285 6.12533 43.4935 6.17432 43.8125 6.17432H44.0518ZM87.9077 6.17432C88.2267 6.17432 88.4341 6.12533 88.5298 6.02734C88.6278 5.92936 88.6768 5.71745 88.6768 5.3916V4.67725C88.6768 4.2876 88.7588 4.01872 88.9229 3.87061C89.0869 3.72021 89.39 3.61882 89.832 3.56641C89.3763 3.50488 89.0698 3.40576 88.9126 3.26904C88.7554 3.13005 88.6768 2.86003 88.6768 2.45898V1.54297C88.6768 1.2194 88.6278 1.00863 88.5298 0.910645C88.4341 0.810384 88.2267 0.760254 87.9077 0.760254H87.6685V0.271484H87.8872C88.4546 0.271484 88.834 0.355794 89.0254 0.524414C89.2191 0.690755 89.3159 1.02572 89.3159 1.5293V2.41797C89.3159 2.71419 89.3786 2.93864 89.5039 3.09131C89.6315 3.24398 89.856 3.32031 90.1772 3.32031H90.5942V3.80908H90.1772C89.8833 3.80908 89.6657 3.89909 89.5244 4.0791C89.3854 4.25911 89.3159 4.47331 89.3159 4.72168V5.40527C89.3159 5.90885 89.2191 6.24495 89.0254 6.41357C88.834 6.58219 88.4546 6.6665 87.8872 6.6665H87.6685V6.17432H87.9077ZM98.9888 0.681641V1.20459H98.2744C98.0488 1.20459 97.8916 1.2513 97.8027 1.34473C97.7161 1.43587 97.6729 1.5988 97.6729 1.8335V2.17188H98.9888V2.66064H97.6729V6H97.0439V2.66064H96.022V2.17188H97.0439V1.90527C97.0439 1.486 97.1396 1.17725 97.3311 0.979004C97.5247 0.780762 97.8255 0.681641 98.2334 0.681641H98.9888ZM103.521 2.96143C103.387 2.85661 103.25 2.78027 103.111 2.73242C102.972 2.68457 102.819 2.66064 102.653 2.66064C102.261 2.66064 101.961 2.78369 101.754 3.02979C101.547 3.27588 101.443 3.63135 101.443 4.09619V6H100.811V2.17188H101.443V2.92041C101.548 2.64925 101.708 2.44189 101.925 2.29834C102.144 2.15251 102.402 2.07959 102.701 2.07959C102.856 2.07959 103 2.09896 103.135 2.1377C103.269 2.17643 103.398 2.23682 103.521 2.31885V2.96143ZM105.896 2.61279C105.577 2.61279 105.336 2.73698 105.172 2.98535C105.008 3.23372 104.926 3.60173 104.926 4.08936C104.926 4.57471 105.008 4.94271 105.172 5.19336C105.336 5.44173 105.577 5.56592 105.896 5.56592C106.218 5.56592 106.46 5.44173 106.625 5.19336C106.789 4.94271 106.871 4.57471 106.871 4.08936C106.871 3.60173 106.789 3.23372 106.625 2.98535C106.46 2.73698 106.218 2.61279 105.896 2.61279ZM105.896 2.07959C106.427 2.07959 106.833 2.25163 107.113 2.5957C107.396 2.93978 107.537 3.43766 107.537 4.08936C107.537 4.74333 107.397 5.24235 107.117 5.58643C106.836 5.92822 106.43 6.09912 105.896 6.09912C105.366 6.09912 104.96 5.92822 104.68 5.58643C104.399 5.24235 104.259 4.74333 104.259 4.08936C104.259 3.43766 104.399 2.93978 104.68 2.5957C104.96 2.25163 105.366 2.07959 105.896 2.07959ZM110.319 2.56152C110.397 2.39746 110.495 2.27669 110.613 2.19922C110.734 2.11947 110.879 2.07959 111.047 2.07959C111.355 2.07959 111.571 2.19922 111.697 2.43848C111.824 2.67546 111.888 3.12321 111.888 3.78174V6H111.314V3.80908C111.314 3.26904 111.283 2.93408 111.222 2.8042C111.162 2.67204 111.053 2.60596 110.894 2.60596C110.711 2.60596 110.586 2.6766 110.518 2.81787C110.451 2.95687 110.418 3.28727 110.418 3.80908V6H109.844V3.80908C109.844 3.26221 109.811 2.92497 109.745 2.79736C109.681 2.66976 109.565 2.60596 109.396 2.60596C109.23 2.60596 109.114 2.6766 109.048 2.81787C108.984 2.95687 108.952 3.28727 108.952 3.80908V6H108.381V2.17188H108.952V2.5C109.027 2.36328 109.121 2.2596 109.232 2.18896C109.346 2.11605 109.475 2.07959 109.619 2.07959C109.792 2.07959 109.935 2.11947 110.049 2.19922C110.166 2.27897 110.256 2.39974 110.319 2.56152Z" fill="#77B7D7"/>
<path d="M49.6948 0.896973H50.3887V5.41895H52.853V6H49.6948V0.896973ZM54.2578 2.18555H55.8677V5.51123H57.1152V6H53.9912V5.51123H55.2388V2.67432H54.2578V2.18555ZM55.2388 0.69873H55.8677V1.4917H55.2388V0.69873ZM60.7212 2.30518V2.92041C60.5412 2.81559 60.36 2.73698 60.1777 2.68457C59.9954 2.63216 59.8097 2.60596 59.6206 2.60596C59.3358 2.60596 59.1227 2.65267 58.9814 2.74609C58.8424 2.83724 58.7729 2.97738 58.7729 3.1665C58.7729 3.3374 58.8254 3.46501 58.9302 3.54932C59.035 3.63363 59.2959 3.71566 59.7129 3.79541L59.9658 3.84326C60.278 3.90251 60.5138 4.021 60.6733 4.19873C60.8351 4.37646 60.916 4.60775 60.916 4.89258C60.916 5.27083 60.7816 5.56706 60.5127 5.78125C60.2438 5.99316 59.8701 6.09912 59.3916 6.09912C59.2025 6.09912 59.0042 6.07861 58.7969 6.0376C58.5895 5.99886 58.3651 5.93962 58.1235 5.85986V5.21045C58.3582 5.33122 58.5827 5.42236 58.7969 5.48389C59.0111 5.54313 59.2139 5.57275 59.4053 5.57275C59.6833 5.57275 59.8986 5.51693 60.0513 5.40527C60.2039 5.29134 60.2803 5.13298 60.2803 4.93018C60.2803 4.63851 60.0011 4.43685 59.4429 4.3252L59.4155 4.31836L59.1797 4.27051C58.8174 4.19987 58.5531 4.08138 58.3867 3.91504C58.2204 3.74642 58.1372 3.51742 58.1372 3.22803C58.1372 2.86117 58.2614 2.57861 58.5098 2.38037C58.7581 2.17985 59.1125 2.07959 59.5728 2.07959C59.7778 2.07959 59.9749 2.09896 60.1641 2.1377C60.3532 2.17415 60.5389 2.22998 60.7212 2.30518ZM63.7119 1.08496V2.17188H65.1406V2.66064H63.7119V4.73877C63.7119 5.02132 63.7655 5.21842 63.8726 5.33008C63.9797 5.44173 64.1665 5.49756 64.4331 5.49756H65.1406V6H64.3716C63.8999 6 63.5672 5.90544 63.3735 5.71631C63.1799 5.52718 63.083 5.20133 63.083 4.73877V2.66064H62.061V2.17188H63.083V1.08496H63.7119ZM66.9111 2.18555H68.521V5.51123H69.7686V6H66.6445V5.51123H67.8921V2.67432H66.9111V2.18555ZM67.8921 0.69873H68.521V1.4917H67.8921V0.69873ZM73.6411 3.62793V6H73.0088V3.62793C73.0088 3.28385 72.9484 3.03092 72.8276 2.86914C72.7069 2.70736 72.5177 2.62646 72.2603 2.62646C71.9663 2.62646 71.7396 2.73128 71.5801 2.94092C71.4229 3.14827 71.3442 3.44678 71.3442 3.83643V6H70.7153V2.17188H71.3442V2.74609C71.4559 2.52734 71.6074 2.36214 71.7988 2.25049C71.9902 2.13656 72.217 2.07959 72.479 2.07959C72.8687 2.07959 73.1592 2.20833 73.3506 2.46582C73.5443 2.72103 73.6411 3.1084 73.6411 3.62793ZM77.1992 4.05518C77.1992 3.5835 77.1217 3.22575 76.9668 2.98193C76.8141 2.73584 76.5908 2.61279 76.2969 2.61279C75.9893 2.61279 75.7546 2.73584 75.5928 2.98193C75.431 3.22575 75.3501 3.5835 75.3501 4.05518C75.3501 4.52686 75.431 4.88688 75.5928 5.13525C75.7568 5.38135 75.9938 5.50439 76.3037 5.50439C76.5931 5.50439 76.8141 5.38021 76.9668 5.13184C77.1217 4.88346 77.1992 4.52458 77.1992 4.05518ZM77.8281 5.75391C77.8281 6.32812 77.6925 6.76335 77.4214 7.05957C77.1502 7.35579 76.7515 7.50391 76.2251 7.50391C76.0519 7.50391 75.8708 7.48796 75.6816 7.45605C75.4925 7.42415 75.3034 7.37744 75.1143 7.31592V6.69385C75.3376 6.79867 75.5404 6.87614 75.7227 6.92627C75.9049 6.9764 76.0724 7.00146 76.2251 7.00146C76.5646 7.00146 76.8118 6.90918 76.9668 6.72461C77.1217 6.54004 77.1992 6.24723 77.1992 5.84619V5.81885V5.3916C77.099 5.60579 76.9622 5.7653 76.7891 5.87012C76.6159 5.97493 76.4051 6.02734 76.1567 6.02734C75.7101 6.02734 75.3535 5.84847 75.0869 5.49072C74.8203 5.13298 74.687 4.65446 74.687 4.05518C74.687 3.45361 74.8203 2.97396 75.0869 2.61621C75.3535 2.25846 75.7101 2.07959 76.1567 2.07959C76.4028 2.07959 76.6113 2.12858 76.7822 2.22656C76.9531 2.32454 77.0921 2.47607 77.1992 2.68115V2.18555H77.8281V5.75391ZM81.8101 2.30518V2.92041C81.63 2.81559 81.4489 2.73698 81.2666 2.68457C81.0843 2.63216 80.8986 2.60596 80.7095 2.60596C80.4246 2.60596 80.2116 2.65267 80.0703 2.74609C79.9313 2.83724 79.8618 2.97738 79.8618 3.1665C79.8618 3.3374 79.9142 3.46501 80.019 3.54932C80.1239 3.63363 80.3848 3.71566 80.8018 3.79541L81.0547 3.84326C81.3669 3.90251 81.6027 4.021 81.7622 4.19873C81.924 4.37646 82.0049 4.60775 82.0049 4.89258C82.0049 5.27083 81.8704 5.56706 81.6016 5.78125C81.3327 5.99316 80.959 6.09912 80.4805 6.09912C80.2913 6.09912 80.0931 6.07861 79.8857 6.0376C79.6784 5.99886 79.4539 5.93962 79.2124 5.85986V5.21045C79.4471 5.33122 79.6715 5.42236 79.8857 5.48389C80.0999 5.54313 80.3027 5.57275 80.4941 5.57275C80.7721 5.57275 80.9875 5.51693 81.1401 5.40527C81.2928 5.29134 81.3691 5.13298 81.3691 4.93018C81.3691 4.63851 81.09 4.43685 80.5317 4.3252L80.5044 4.31836L80.2686 4.27051C79.9062 4.19987 79.6419 4.08138 79.4756 3.91504C79.3092 3.74642 79.2261 3.51742 79.2261 3.22803C79.2261 2.86117 79.3503 2.57861 79.5986 2.38037C79.847 2.17985 80.2013 2.07959 80.6616 2.07959C80.8667 2.07959 81.0638 2.09896 81.2529 2.1377C81.4421 2.17415 81.6278 2.22998 81.8101 2.30518ZM119.674 0.712402V2.8042H118.909V0.712402H119.674ZM117.853 0.712402V2.8042H117.087V0.712402H117.853ZM204.03 0.712402V2.8042H203.264V0.712402H204.03ZM202.208 0.712402V2.8042H201.442V0.712402H202.208ZM206.528 4.76611H207.595V5.67188L206.921 6.97754H206.19L206.528 5.67188V4.76611ZM206.484 2.17529H207.55V3.40918H206.484V2.17529Z" fill="white"/>
<path d="M121.992 4.61914H123.195V6H121.992V4.61914ZM127.918 0.896973H128.568L125.881 6.64941H125.229L127.918 0.896973ZM131.555 4.61572C131.555 4.89827 131.606 5.11133 131.709 5.25488C131.814 5.39844 131.968 5.47021 132.17 5.47021H132.905V6H132.109C131.733 6 131.441 5.88037 131.234 5.64111C131.029 5.39958 130.926 5.05778 130.926 4.61572V1.15332H129.918V0.661133H131.555V4.61572ZM134.396 2.18555H136.005V5.51123H137.253V6H134.129V5.51123H135.376V2.67432H134.396V2.18555ZM135.376 0.69873H136.005V1.4917H135.376V0.69873ZM140.859 2.30518V2.92041C140.679 2.81559 140.498 2.73698 140.315 2.68457C140.133 2.63216 139.947 2.60596 139.758 2.60596C139.473 2.60596 139.26 2.65267 139.119 2.74609C138.98 2.83724 138.911 2.97738 138.911 3.1665C138.911 3.3374 138.963 3.46501 139.068 3.54932C139.173 3.63363 139.434 3.71566 139.851 3.79541L140.104 3.84326C140.416 3.90251 140.652 4.021 140.811 4.19873C140.973 4.37646 141.054 4.60775 141.054 4.89258C141.054 5.27083 140.919 5.56706 140.65 5.78125C140.382 5.99316 140.008 6.09912 139.529 6.09912C139.34 6.09912 139.142 6.07861 138.935 6.0376C138.727 5.99886 138.503 5.93962 138.261 5.85986V5.21045C138.496 5.33122 138.72 5.42236 138.935 5.48389C139.149 5.54313 139.352 5.57275 139.543 5.57275C139.821 5.57275 140.036 5.51693 140.189 5.40527C140.342 5.29134 140.418 5.13298 140.418 4.93018C140.418 4.63851 140.139 4.43685 139.581 4.3252L139.553 4.31836L139.317 4.27051C138.955 4.19987 138.691 4.08138 138.524 3.91504C138.358 3.74642 138.275 3.51742 138.275 3.22803C138.275 2.86117 138.399 2.57861 138.647 2.38037C138.896 2.17985 139.25 2.07959 139.71 2.07959C139.916 2.07959 140.113 2.09896 140.302 2.1377C140.491 2.17415 140.677 2.22998 140.859 2.30518ZM143.85 1.08496V2.17188H145.278V2.66064H143.85V4.73877C143.85 5.02132 143.903 5.21842 144.01 5.33008C144.117 5.44173 144.304 5.49756 144.571 5.49756H145.278V6H144.509C144.038 6 143.705 5.90544 143.511 5.71631C143.318 5.52718 143.221 5.20133 143.221 4.73877V2.66064H142.199V2.17188H143.221V1.08496H143.85ZM147.049 2.18555H148.659V5.51123H149.906V6H146.782V5.51123H148.03V2.67432H147.049V2.18555ZM148.03 0.69873H148.659V1.4917H148.03V0.69873ZM153.779 3.62793V6H153.146V3.62793C153.146 3.28385 153.086 3.03092 152.965 2.86914C152.845 2.70736 152.655 2.62646 152.398 2.62646C152.104 2.62646 151.877 2.73128 151.718 2.94092C151.561 3.14827 151.482 3.44678 151.482 3.83643V6H150.853V2.17188H151.482V2.74609C151.594 2.52734 151.745 2.36214 151.937 2.25049C152.128 2.13656 152.355 2.07959 152.617 2.07959C153.006 2.07959 153.297 2.20833 153.488 2.46582C153.682 2.72103 153.779 3.1084 153.779 3.62793ZM157.337 4.05518C157.337 3.5835 157.259 3.22575 157.104 2.98193C156.952 2.73584 156.729 2.61279 156.435 2.61279C156.127 2.61279 155.892 2.73584 155.73 2.98193C155.569 3.22575 155.488 3.5835 155.488 4.05518C155.488 4.52686 155.569 4.88688 155.73 5.13525C155.895 5.38135 156.132 5.50439 156.441 5.50439C156.731 5.50439 156.952 5.38021 157.104 5.13184C157.259 4.88346 157.337 4.52458 157.337 4.05518ZM157.966 5.75391C157.966 6.32812 157.83 6.76335 157.559 7.05957C157.288 7.35579 156.889 7.50391 156.363 7.50391C156.19 7.50391 156.008 7.48796 155.819 7.45605C155.63 7.42415 155.441 7.37744 155.252 7.31592V6.69385C155.475 6.79867 155.678 6.87614 155.86 6.92627C156.043 6.9764 156.21 7.00146 156.363 7.00146C156.702 7.00146 156.95 6.90918 157.104 6.72461C157.259 6.54004 157.337 6.24723 157.337 5.84619V5.81885V5.3916C157.237 5.60579 157.1 5.7653 156.927 5.87012C156.754 5.97493 156.543 6.02734 156.294 6.02734C155.848 6.02734 155.491 5.84847 155.225 5.49072C154.958 5.13298 154.825 4.65446 154.825 4.05518C154.825 3.45361 154.958 2.97396 155.225 2.61621C155.491 2.25846 155.848 2.07959 156.294 2.07959C156.541 2.07959 156.749 2.12858 156.92 2.22656C157.091 2.32454 157.23 2.47607 157.337 2.68115V2.18555H157.966V5.75391ZM161.948 2.30518V2.92041C161.768 2.81559 161.587 2.73698 161.404 2.68457C161.222 2.63216 161.036 2.60596 160.847 2.60596C160.562 2.60596 160.349 2.65267 160.208 2.74609C160.069 2.83724 160 2.97738 160 3.1665C160 3.3374 160.052 3.46501 160.157 3.54932C160.262 3.63363 160.522 3.71566 160.939 3.79541L161.192 3.84326C161.505 3.90251 161.74 4.021 161.9 4.19873C162.062 4.37646 162.143 4.60775 162.143 4.89258C162.143 5.27083 162.008 5.56706 161.739 5.78125C161.47 5.99316 161.097 6.09912 160.618 6.09912C160.429 6.09912 160.231 6.07861 160.023 6.0376C159.816 5.99886 159.592 5.93962 159.35 5.85986V5.21045C159.585 5.33122 159.809 5.42236 160.023 5.48389C160.238 5.54313 160.44 5.57275 160.632 5.57275C160.91 5.57275 161.125 5.51693 161.278 5.40527C161.431 5.29134 161.507 5.13298 161.507 4.93018C161.507 4.63851 161.228 4.43685 160.669 4.3252L160.642 4.31836L160.406 4.27051C160.044 4.19987 159.78 4.08138 159.613 3.91504C159.447 3.74642 159.364 3.51742 159.364 3.22803C159.364 2.86117 159.488 2.57861 159.736 2.38037C159.985 2.17985 160.339 2.07959 160.799 2.07959C161.004 2.07959 161.201 2.09896 161.391 2.1377C161.58 2.17415 161.765 2.22998 161.948 2.30518ZM165.878 0.896973H166.528L163.841 6.64941H163.188L165.878 0.896973ZM167.792 0.896973H168.486V5.41895H170.951V6H167.792V0.896973ZM172.355 2.18555H173.965V5.51123H175.213V6H172.089V5.51123H173.336V2.67432H172.355V2.18555ZM173.336 0.69873H173.965V1.4917H173.336V0.69873ZM178.819 2.30518V2.92041C178.639 2.81559 178.458 2.73698 178.275 2.68457C178.093 2.63216 177.907 2.60596 177.718 2.60596C177.433 2.60596 177.22 2.65267 177.079 2.74609C176.94 2.83724 176.871 2.97738 176.871 3.1665C176.871 3.3374 176.923 3.46501 177.028 3.54932C177.133 3.63363 177.394 3.71566 177.811 3.79541L178.063 3.84326C178.376 3.90251 178.611 4.021 178.771 4.19873C178.933 4.37646 179.014 4.60775 179.014 4.89258C179.014 5.27083 178.879 5.56706 178.61 5.78125C178.341 5.99316 177.968 6.09912 177.489 6.09912C177.3 6.09912 177.102 6.07861 176.895 6.0376C176.687 5.99886 176.463 5.93962 176.221 5.85986V5.21045C176.456 5.33122 176.68 5.42236 176.895 5.48389C177.109 5.54313 177.312 5.57275 177.503 5.57275C177.781 5.57275 177.996 5.51693 178.149 5.40527C178.302 5.29134 178.378 5.13298 178.378 4.93018C178.378 4.63851 178.099 4.43685 177.541 4.3252L177.513 4.31836L177.277 4.27051C176.915 4.19987 176.651 4.08138 176.484 3.91504C176.318 3.74642 176.235 3.51742 176.235 3.22803C176.235 2.86117 176.359 2.57861 176.607 2.38037C176.856 2.17985 177.21 2.07959 177.67 2.07959C177.875 2.07959 178.073 2.09896 178.262 2.1377C178.451 2.17415 178.637 2.22998 178.819 2.30518ZM181.81 1.08496V2.17188H183.238V2.66064H181.81V4.73877C181.81 5.02132 181.863 5.21842 181.97 5.33008C182.077 5.44173 182.264 5.49756 182.531 5.49756H183.238V6H182.469C181.998 6 181.665 5.90544 181.471 5.71631C181.278 5.52718 181.181 5.20133 181.181 4.73877V2.66064H180.159V2.17188H181.181V1.08496H181.81ZM185.009 2.18555H186.619V5.51123H187.866V6H184.742V5.51123H185.99V2.67432H185.009V2.18555ZM185.99 0.69873H186.619V1.4917H185.99V0.69873ZM191.739 3.62793V6H191.106V3.62793C191.106 3.28385 191.046 3.03092 190.925 2.86914C190.805 2.70736 190.615 2.62646 190.358 2.62646C190.064 2.62646 189.837 2.73128 189.678 2.94092C189.521 3.14827 189.442 3.44678 189.442 3.83643V6H188.813V2.17188H189.442V2.74609C189.554 2.52734 189.705 2.36214 189.896 2.25049C190.088 2.13656 190.315 2.07959 190.577 2.07959C190.966 2.07959 191.257 2.20833 191.448 2.46582C191.642 2.72103 191.739 3.1084 191.739 3.62793ZM195.297 4.05518C195.297 3.5835 195.219 3.22575 195.064 2.98193C194.912 2.73584 194.688 2.61279 194.395 2.61279C194.087 2.61279 193.852 2.73584 193.69 2.98193C193.529 3.22575 193.448 3.5835 193.448 4.05518C193.448 4.52686 193.529 4.88688 193.69 5.13525C193.854 5.38135 194.091 5.50439 194.401 5.50439C194.691 5.50439 194.912 5.38021 195.064 5.13184C195.219 4.88346 195.297 4.52458 195.297 4.05518ZM195.926 5.75391C195.926 6.32812 195.79 6.76335 195.519 7.05957C195.248 7.35579 194.849 7.50391 194.323 7.50391C194.15 7.50391 193.968 7.48796 193.779 7.45605C193.59 7.42415 193.401 7.37744 193.212 7.31592V6.69385C193.435 6.79867 193.638 6.87614 193.82 6.92627C194.003 6.9764 194.17 7.00146 194.323 7.00146C194.662 7.00146 194.91 6.90918 195.064 6.72461C195.219 6.54004 195.297 6.24723 195.297 5.84619V5.81885V5.3916C195.197 5.60579 195.06 5.7653 194.887 5.87012C194.714 5.97493 194.503 6.02734 194.254 6.02734C193.808 6.02734 193.451 5.84847 193.185 5.49072C192.918 5.13298 192.785 4.65446 192.785 4.05518C192.785 3.45361 192.918 2.97396 193.185 2.61621C193.451 2.25846 193.808 2.07959 194.254 2.07959C194.5 2.07959 194.709 2.12858 194.88 2.22656C195.051 2.32454 195.19 2.47607 195.297 2.68115V2.18555H195.926V5.75391ZM199.908 2.30518V2.92041C199.728 2.81559 199.547 2.73698 199.364 2.68457C199.182 2.63216 198.996 2.60596 198.807 2.60596C198.522 2.60596 198.309 2.65267 198.168 2.74609C198.029 2.83724 197.959 2.97738 197.959 3.1665C197.959 3.3374 198.012 3.46501 198.117 3.54932C198.222 3.63363 198.482 3.71566 198.899 3.79541L199.152 3.84326C199.465 3.90251 199.7 4.021 199.86 4.19873C200.022 4.37646 200.103 4.60775 200.103 4.89258C200.103 5.27083 199.968 5.56706 199.699 5.78125C199.43 5.99316 199.057 6.09912 198.578 6.09912C198.389 6.09912 198.191 6.07861 197.983 6.0376C197.776 5.99886 197.552 5.93962 197.31 5.85986V5.21045C197.545 5.33122 197.769 5.42236 197.983 5.48389C198.198 5.54313 198.4 5.57275 198.592 5.57275C198.87 5.57275 199.085 5.51693 199.238 5.40527C199.39 5.29134 199.467 5.13298 199.467 4.93018C199.467 4.63851 199.188 4.43685 198.629 4.3252L198.602 4.31836L198.366 4.27051C198.004 4.19987 197.74 4.08138 197.573 3.91504C197.407 3.74642 197.324 3.51742 197.324 3.22803C197.324 2.86117 197.448 2.57861 197.696 2.38037C197.945 2.17985 198.299 2.07959 198.759 2.07959C198.964 2.07959 199.161 2.09896 199.351 2.1377C199.54 2.17415 199.725 2.22998 199.908 2.30518Z" fill="#977CDC"/>
</svg>
