<svg width="83" height="8" viewBox="0 0 83 8" fill="none" xmlns="http://www.w3.org/2000/svg">
<path d="M1.2749 5.41895H3.61963V6H0.519531V5.41895C0.945638 4.97005 1.3182 4.57357 1.63721 4.22949C1.95622 3.88542 2.17611 3.64274 2.29688 3.50146C2.52474 3.22347 2.67855 2.99902 2.7583 2.82812C2.83805 2.65495 2.87793 2.47835 2.87793 2.29834C2.87793 2.01351 2.79362 1.7902 2.625 1.62842C2.45866 1.46663 2.22965 1.38574 1.93799 1.38574C1.73063 1.38574 1.51302 1.42334 1.28516 1.49854C1.05729 1.57373 0.815755 1.68766 0.560547 1.84033V1.14307C0.795247 1.03141 1.02539 0.947103 1.25098 0.890137C1.47884 0.833171 1.70329 0.804688 1.92432 0.804688C2.42334 0.804688 2.82438 0.937988 3.12744 1.20459C3.43278 1.46891 3.58545 1.81641 3.58545 2.24707C3.58545 2.46582 3.53418 2.68457 3.43164 2.90332C3.33138 3.12207 3.16732 3.36361 2.93945 3.62793C2.81185 3.77604 2.62614 3.98112 2.38232 4.24316C2.14079 4.50521 1.77165 4.89714 1.2749 5.41895ZM4.92529 0.896973H7.50928V1.47803H5.5542V2.73242C5.65218 2.69596 5.75016 2.66976 5.84814 2.65381C5.9484 2.63558 6.04867 2.62646 6.14893 2.62646C6.67757 2.62646 7.09684 2.78255 7.40674 3.09473C7.71663 3.4069 7.87158 3.82959 7.87158 4.36279C7.87158 4.90055 7.70866 5.32438 7.38281 5.63428C7.05924 5.94417 6.61605 6.09912 6.05322 6.09912C5.78206 6.09912 5.53369 6.08089 5.30811 6.04443C5.0848 6.00798 4.88428 5.95329 4.70654 5.88037V5.17969C4.91618 5.29362 5.12695 5.37907 5.33887 5.43604C5.55078 5.49072 5.76725 5.51807 5.98828 5.51807C6.36882 5.51807 6.66162 5.41781 6.8667 5.21729C7.07406 5.01676 7.17773 4.73193 7.17773 4.36279C7.17773 3.99821 7.07064 3.71452 6.85645 3.51172C6.64453 3.30892 6.34831 3.20752 5.96777 3.20752C5.7832 3.20752 5.60319 3.22917 5.42773 3.27246C5.25228 3.31348 5.0848 3.37614 4.92529 3.46045V0.896973Z" fill="white" fill-opacity="0.3"/>
<path d="M61.0913 2.71533L58.186 3.80908L61.0913 4.89258V5.51807L57.4785 4.08936V3.52197L61.0913 2.09326V2.71533ZM64.4341 0.896973H65.0835L62.397 6.64941H61.7441L64.4341 0.896973ZM78.5674 2.71533V2.09326L82.1802 3.52197V4.08936L78.5674 5.51807V4.89258L81.4727 3.80908L78.5674 2.71533Z" fill="white"/>
<path d="M68.5459 2.66064V0.681641H69.1748V6H68.5459V5.51807C68.4411 5.70719 68.3009 5.85189 68.1255 5.95215C67.9523 6.05013 67.7518 6.09912 67.5239 6.09912C67.0614 6.09912 66.6968 5.92025 66.4302 5.5625C66.1659 5.20247 66.0337 4.70687 66.0337 4.07568C66.0337 3.45361 66.167 2.96598 66.4336 2.61279C66.7002 2.25732 67.0636 2.07959 67.5239 2.07959C67.7541 2.07959 67.9569 2.12972 68.1323 2.22998C68.3078 2.32796 68.4456 2.47152 68.5459 2.66064ZM66.6968 4.08936C66.6968 4.57699 66.7743 4.94499 66.9292 5.19336C67.0841 5.44173 67.3132 5.56592 67.6162 5.56592C67.9193 5.56592 68.1494 5.44059 68.3066 5.18994C68.4661 4.93929 68.5459 4.57243 68.5459 4.08936C68.5459 3.604 68.4661 3.23714 68.3066 2.98877C68.1494 2.73812 67.9193 2.61279 67.6162 2.61279C67.3132 2.61279 67.0841 2.73698 66.9292 2.98535C66.7743 3.23372 66.6968 3.60173 66.6968 4.08936ZM70.9111 2.18555H72.521V5.51123H73.7686V6H70.6445V5.51123H71.8921V2.67432H70.9111V2.18555ZM71.8921 0.69873H72.521V1.4917H71.8921V0.69873ZM74.3906 2.17188H75.0435L76.1543 5.38477L77.2686 2.17188H77.9214L76.561 6H75.751L74.3906 2.17188Z" fill="#00FFD1"/>
</svg>
