<svg width="193" height="8" viewBox="0 0 193 8" fill="none" xmlns="http://www.w3.org/2000/svg">
<path d="M0.70752 0.896973H3.2915V1.47803H1.33643V2.73242C1.43441 2.69596 1.53239 2.66976 1.63037 2.65381C1.73063 2.63558 1.83089 2.62646 1.93115 2.62646C2.4598 2.62646 2.87907 2.78255 3.18896 3.09473C3.49886 3.4069 3.65381 3.82959 3.65381 4.36279C3.65381 4.90055 3.49089 5.32438 3.16504 5.63428C2.84147 5.94417 2.39827 6.09912 1.83545 6.09912C1.56429 6.09912 1.31592 6.08089 1.09033 6.04443C0.867025 6.00798 0.666504 5.95329 0.48877 5.88037V5.17969C0.698405 5.29362 0.90918 5.37907 1.12109 5.43604C1.33301 5.49072 1.54948 5.51807 1.77051 5.51807C2.15104 5.51807 2.44385 5.41781 2.64893 5.21729C2.85628 5.01676 2.95996 4.73193 2.95996 4.36279C2.95996 3.99821 2.85286 3.71452 2.63867 3.51172C2.42676 3.30892 2.13053 3.20752 1.75 3.20752C1.56543 3.20752 1.38542 3.22917 1.20996 3.27246C1.03451 3.31348 0.867025 3.37614 0.70752 3.46045V0.896973Z" fill="white" fill-opacity="0.3"/>
<path d="M12.0801 2.18555H13.6899V5.51123H14.9375V6H11.8135V5.51123H13.061V2.67432H12.0801V2.18555ZM13.061 0.69873H13.6899V1.4917H13.061V0.69873ZM17.5283 2.56152C17.6058 2.39746 17.7038 2.27669 17.8223 2.19922C17.943 2.11947 18.0877 2.07959 18.2563 2.07959C18.564 2.07959 18.7804 2.19922 18.9058 2.43848C19.0334 2.67546 19.0972 3.12321 19.0972 3.78174V6H18.5229V3.80908C18.5229 3.26904 18.4922 2.93408 18.4307 2.8042C18.3714 2.67204 18.262 2.60596 18.1025 2.60596C17.9202 2.60596 17.7949 2.6766 17.7266 2.81787C17.6605 2.95687 17.6274 3.28727 17.6274 3.80908V6H17.0532V3.80908C17.0532 3.26221 17.0202 2.92497 16.9541 2.79736C16.8903 2.66976 16.7741 2.60596 16.6055 2.60596C16.4391 2.60596 16.3229 2.6766 16.2568 2.81787C16.193 2.95687 16.1611 3.28727 16.1611 3.80908V6H15.5903V2.17188H16.1611V2.5C16.2363 2.36328 16.3298 2.2596 16.4414 2.18896C16.5553 2.11605 16.6841 2.07959 16.8276 2.07959C17.0008 2.07959 17.1444 2.11947 17.2583 2.19922C17.3745 2.27897 17.4645 2.39974 17.5283 2.56152ZM20.7173 5.51807V7.45605H20.085V2.17188H20.7173V2.66064C20.8221 2.47152 20.9611 2.32796 21.1343 2.22998C21.3097 2.12972 21.5114 2.07959 21.7393 2.07959C22.2018 2.07959 22.5641 2.25846 22.8262 2.61621C23.0905 2.97396 23.2227 3.46956 23.2227 4.10303C23.2227 4.7251 23.0905 5.21387 22.8262 5.56934C22.5618 5.92253 22.1995 6.09912 21.7393 6.09912C21.5068 6.09912 21.3029 6.05013 21.1274 5.95215C20.9543 5.85189 20.8175 5.70719 20.7173 5.51807ZM22.563 4.08936C22.563 3.60173 22.4855 3.23372 22.3306 2.98535C22.1779 2.73698 21.95 2.61279 21.647 2.61279C21.3416 2.61279 21.1104 2.73812 20.9531 2.98877C20.7959 3.23714 20.7173 3.604 20.7173 4.08936C20.7173 4.57243 20.7959 4.93929 20.9531 5.18994C21.1104 5.44059 21.3416 5.56592 21.647 5.56592C21.95 5.56592 22.1779 5.44173 22.3306 5.19336C22.4855 4.94499 22.563 4.57699 22.563 4.08936ZM25.7588 2.61279C25.4398 2.61279 25.1982 2.73698 25.0342 2.98535C24.8701 3.23372 24.7881 3.60173 24.7881 4.08936C24.7881 4.57471 24.8701 4.94271 25.0342 5.19336C25.1982 5.44173 25.4398 5.56592 25.7588 5.56592C26.0801 5.56592 26.3228 5.44173 26.4868 5.19336C26.6509 4.94271 26.7329 4.57471 26.7329 4.08936C26.7329 3.60173 26.6509 3.23372 26.4868 2.98535C26.3228 2.73698 26.0801 2.61279 25.7588 2.61279ZM25.7588 2.07959C26.2897 2.07959 26.6953 2.25163 26.9756 2.5957C27.2581 2.93978 27.3994 3.43766 27.3994 4.08936C27.3994 4.74333 27.2593 5.24235 26.979 5.58643C26.6987 5.92822 26.292 6.09912 25.7588 6.09912C25.2279 6.09912 24.8223 5.92822 24.542 5.58643C24.2617 5.24235 24.1216 4.74333 24.1216 4.08936C24.1216 3.43766 24.2617 2.93978 24.542 2.5957C24.8223 2.25163 25.2279 2.07959 25.7588 2.07959ZM31.8188 2.96143C31.6844 2.85661 31.5477 2.78027 31.4087 2.73242C31.2697 2.68457 31.117 2.66064 30.9507 2.66064C30.5588 2.66064 30.2591 2.78369 30.0518 3.02979C29.8444 3.27588 29.7407 3.63135 29.7407 4.09619V6H29.1084V2.17188H29.7407V2.92041C29.8455 2.64925 30.0062 2.44189 30.2227 2.29834C30.4414 2.15251 30.7 2.07959 30.9985 2.07959C31.1535 2.07959 31.2982 2.09896 31.4326 2.1377C31.5671 2.17643 31.6958 2.23682 31.8188 2.31885V2.96143ZM34.1875 1.08496V2.17188H35.6162V2.66064H34.1875V4.73877C34.1875 5.02132 34.241 5.21842 34.3481 5.33008C34.4552 5.44173 34.6421 5.49756 34.9087 5.49756H35.6162V6H34.8472C34.3755 6 34.0428 5.90544 33.8491 5.71631C33.6554 5.52718 33.5586 5.20133 33.5586 4.73877V2.66064H32.5366V2.17188H33.5586V1.08496H34.1875ZM73.6821 0.681641V1.20459H72.9678C72.7422 1.20459 72.585 1.2513 72.4961 1.34473C72.4095 1.43587 72.3662 1.5988 72.3662 1.8335V2.17188H73.6821V2.66064H72.3662V6H71.7373V2.66064H70.7153V2.17188H71.7373V1.90527C71.7373 1.486 71.833 1.17725 72.0244 0.979004C72.2181 0.780762 72.5189 0.681641 72.9268 0.681641H73.6821ZM78.2144 2.96143C78.0799 2.85661 77.9432 2.78027 77.8042 2.73242C77.6652 2.68457 77.5125 2.66064 77.3462 2.66064C76.9543 2.66064 76.6546 2.78369 76.4473 3.02979C76.2399 3.27588 76.1362 3.63135 76.1362 4.09619V6H75.5039V2.17188H76.1362V2.92041C76.241 2.64925 76.4017 2.44189 76.6182 2.29834C76.8369 2.15251 77.0955 2.07959 77.394 2.07959C77.549 2.07959 77.6937 2.09896 77.8281 2.1377C77.9626 2.17643 78.0913 2.23682 78.2144 2.31885V2.96143ZM80.5898 2.61279C80.2708 2.61279 80.0293 2.73698 79.8652 2.98535C79.7012 3.23372 79.6191 3.60173 79.6191 4.08936C79.6191 4.57471 79.7012 4.94271 79.8652 5.19336C80.0293 5.44173 80.2708 5.56592 80.5898 5.56592C80.9111 5.56592 81.1538 5.44173 81.3179 5.19336C81.4819 4.94271 81.564 4.57471 81.564 4.08936C81.564 3.60173 81.4819 3.23372 81.3179 2.98535C81.1538 2.73698 80.9111 2.61279 80.5898 2.61279ZM80.5898 2.07959C81.1208 2.07959 81.5264 2.25163 81.8066 2.5957C82.0892 2.93978 82.2305 3.43766 82.2305 4.08936C82.2305 4.74333 82.0903 5.24235 81.8101 5.58643C81.5298 5.92822 81.123 6.09912 80.5898 6.09912C80.0589 6.09912 79.6533 5.92822 79.373 5.58643C79.0928 5.24235 78.9526 4.74333 78.9526 4.08936C78.9526 3.43766 79.0928 2.93978 79.373 2.5957C79.6533 2.25163 80.0589 2.07959 80.5898 2.07959ZM85.0127 2.56152C85.0902 2.39746 85.1882 2.27669 85.3066 2.19922C85.4274 2.11947 85.5721 2.07959 85.7407 2.07959C86.0483 2.07959 86.2648 2.19922 86.3901 2.43848C86.5177 2.67546 86.5815 3.12321 86.5815 3.78174V6H86.0073V3.80908C86.0073 3.26904 85.9766 2.93408 85.915 2.8042C85.8558 2.67204 85.7464 2.60596 85.5869 2.60596C85.4046 2.60596 85.2793 2.6766 85.2109 2.81787C85.1449 2.95687 85.1118 3.28727 85.1118 3.80908V6H84.5376V3.80908C84.5376 3.26221 84.5046 2.92497 84.4385 2.79736C84.3747 2.66976 84.2585 2.60596 84.0898 2.60596C83.9235 2.60596 83.8073 2.6766 83.7412 2.81787C83.6774 2.95687 83.6455 3.28727 83.6455 3.80908V6H83.0747V2.17188H83.6455V2.5C83.7207 2.36328 83.8141 2.2596 83.9258 2.18896C84.0397 2.11605 84.1685 2.07959 84.312 2.07959C84.4852 2.07959 84.6287 2.11947 84.7427 2.19922C84.8589 2.27897 84.9489 2.39974 85.0127 2.56152Z" fill="#77B7D7"/>
<path d="M43.8501 2.30518V2.92041C43.6701 2.81559 43.4889 2.73698 43.3066 2.68457C43.1243 2.63216 42.9386 2.60596 42.7495 2.60596C42.4647 2.60596 42.2516 2.65267 42.1104 2.74609C41.9714 2.83724 41.9019 2.97738 41.9019 3.1665C41.9019 3.3374 41.9543 3.46501 42.0591 3.54932C42.1639 3.63363 42.4248 3.71566 42.8418 3.79541L43.0947 3.84326C43.4069 3.90251 43.6427 4.021 43.8022 4.19873C43.964 4.37646 44.0449 4.60775 44.0449 4.89258C44.0449 5.27083 43.9105 5.56706 43.6416 5.78125C43.3727 5.99316 42.999 6.09912 42.5205 6.09912C42.3314 6.09912 42.1331 6.07861 41.9258 6.0376C41.7184 5.99886 41.494 5.93962 41.2524 5.85986V5.21045C41.4871 5.33122 41.7116 5.42236 41.9258 5.48389C42.14 5.54313 42.3428 5.57275 42.5342 5.57275C42.8122 5.57275 43.0275 5.51693 43.1802 5.40527C43.3328 5.29134 43.4092 5.13298 43.4092 4.93018C43.4092 4.63851 43.13 4.43685 42.5718 4.3252L42.5444 4.31836L42.3086 4.27051C41.9463 4.19987 41.682 4.08138 41.5156 3.91504C41.3493 3.74642 41.2661 3.51742 41.2661 3.22803C41.2661 2.86117 41.3903 2.57861 41.6387 2.38037C41.887 2.17985 42.2414 2.07959 42.7017 2.07959C42.9067 2.07959 43.1038 2.09896 43.293 2.1377C43.4821 2.17415 43.6678 2.22998 43.8501 2.30518ZM46.8408 1.08496V2.17188H48.2695V2.66064H46.8408V4.73877C46.8408 5.02132 46.8944 5.21842 47.0015 5.33008C47.1086 5.44173 47.2954 5.49756 47.562 5.49756H48.2695V6H47.5005C47.0288 6 46.6961 5.90544 46.5024 5.71631C46.3088 5.52718 46.2119 5.20133 46.2119 4.73877V2.66064H45.1899V2.17188H46.2119V1.08496H46.8408ZM51.8926 4.76953C51.7878 5.03613 51.6545 5.38704 51.4927 5.82227C51.2671 6.42383 51.1156 6.79069 51.0381 6.92285C50.9333 7.10059 50.8022 7.23389 50.645 7.32275C50.4878 7.41162 50.3044 7.45605 50.0947 7.45605H49.5889V6.92969H49.9614C50.146 6.92969 50.2907 6.87614 50.3955 6.76904C50.5003 6.66195 50.6336 6.38509 50.7954 5.93848L49.3154 2.17188H49.9819L51.1167 5.16602L52.2344 2.17188H52.9009L51.8926 4.76953ZM55.6353 4.61572C55.6353 4.89827 55.6865 5.11133 55.7891 5.25488C55.8939 5.39844 56.0477 5.47021 56.2505 5.47021H56.9854V6H56.189C55.813 6 55.5213 5.88037 55.314 5.64111C55.1089 5.39958 55.0063 5.05778 55.0063 4.61572V1.15332H53.998V0.661133H55.6353V4.61572ZM61.2236 3.77148V4.0791H58.4995V4.09961C58.4813 4.62142 58.5804 4.99626 58.7969 5.22412C59.0156 5.45199 59.3232 5.56592 59.7197 5.56592C59.9202 5.56592 60.1299 5.53402 60.3486 5.47021C60.5674 5.40641 60.8009 5.30957 61.0493 5.17969V5.80518C60.8101 5.90316 60.5788 5.97607 60.3555 6.02393C60.1344 6.07406 59.9202 6.09912 59.7129 6.09912C59.1182 6.09912 58.6533 5.92139 58.3184 5.56592C57.9834 5.20817 57.8159 4.71598 57.8159 4.08936C57.8159 3.47868 57.98 2.99105 58.3081 2.62646C58.6362 2.26188 59.0737 2.07959 59.6206 2.07959C60.1082 2.07959 60.4922 2.24479 60.7725 2.5752C61.055 2.9056 61.2054 3.30436 61.2236 3.77148ZM60.5947 3.58691C60.5674 3.32259 60.4705 3.09473 60.3042 2.90332C60.1401 2.70964 59.9032 2.61279 59.5933 2.61279C59.2902 2.61279 59.0407 2.71305 58.8447 2.91357C58.6488 3.1141 58.5417 3.33968 58.5234 3.59033L60.5947 3.58691ZM64.939 2.30518V2.92041C64.759 2.81559 64.5778 2.73698 64.3955 2.68457C64.2132 2.63216 64.0275 2.60596 63.8384 2.60596C63.5535 2.60596 63.3405 2.65267 63.1992 2.74609C63.0602 2.83724 62.9907 2.97738 62.9907 3.1665C62.9907 3.3374 63.0431 3.46501 63.1479 3.54932C63.2528 3.63363 63.5137 3.71566 63.9307 3.79541L64.1836 3.84326C64.4958 3.90251 64.7316 4.021 64.8911 4.19873C65.0529 4.37646 65.1338 4.60775 65.1338 4.89258C65.1338 5.27083 64.9993 5.56706 64.7305 5.78125C64.4616 5.99316 64.0879 6.09912 63.6094 6.09912C63.4202 6.09912 63.222 6.07861 63.0146 6.0376C62.8073 5.99886 62.5828 5.93962 62.3413 5.85986V5.21045C62.576 5.33122 62.8005 5.42236 63.0146 5.48389C63.2288 5.54313 63.4316 5.57275 63.623 5.57275C63.901 5.57275 64.1164 5.51693 64.269 5.40527C64.4217 5.29134 64.498 5.13298 64.498 4.93018C64.498 4.63851 64.2189 4.43685 63.6606 4.3252L63.6333 4.31836L63.3975 4.27051C63.0352 4.19987 62.7708 4.08138 62.6045 3.91504C62.4382 3.74642 62.355 3.51742 62.355 3.22803C62.355 2.86117 62.4792 2.57861 62.7275 2.38037C62.9759 2.17985 63.3302 2.07959 63.7905 2.07959C63.9956 2.07959 64.1927 2.09896 64.3818 2.1377C64.571 2.17415 64.7567 2.22998 64.939 2.30518ZM94.3677 0.712402V2.8042H93.6021V0.712402H94.3677ZM92.5459 0.712402V2.8042H91.7803V0.712402H92.5459ZM187.159 0.712402V2.8042H186.393V0.712402H187.159ZM185.337 0.712402V2.8042H184.571V0.712402H185.337ZM189.657 4.76611H190.724V5.67188L190.05 6.97754H189.319L189.657 5.67188V4.76611ZM189.613 2.17529H190.679V3.40918H189.613V2.17529Z" fill="white"/>
<path d="M96.6851 4.61914H97.8882V6H96.6851V4.61914ZM102.612 0.896973H103.261L100.575 6.64941H99.9219L102.612 0.896973ZM106.724 2.66064V0.681641H107.353V6H106.724V5.51807C106.619 5.70719 106.479 5.85189 106.303 5.95215C106.13 6.05013 105.93 6.09912 105.702 6.09912C105.239 6.09912 104.875 5.92025 104.608 5.5625C104.344 5.20247 104.211 4.70687 104.211 4.07568C104.211 3.45361 104.345 2.96598 104.611 2.61279C104.878 2.25732 105.241 2.07959 105.702 2.07959C105.932 2.07959 106.135 2.12972 106.31 2.22998C106.486 2.32796 106.623 2.47152 106.724 2.66064ZM104.875 4.08936C104.875 4.57699 104.952 4.94499 105.107 5.19336C105.262 5.44173 105.491 5.56592 105.794 5.56592C106.097 5.56592 106.327 5.44059 106.484 5.18994C106.644 4.93929 106.724 4.57243 106.724 4.08936C106.724 3.604 106.644 3.23714 106.484 2.98877C106.327 2.73812 106.097 2.61279 105.794 2.61279C105.491 2.61279 105.262 2.73698 105.107 2.98535C104.952 3.23372 104.875 3.60173 104.875 4.08936ZM109.089 2.18555H110.699V5.51123H111.946V6H108.822V5.51123H110.07V2.67432H109.089V2.18555ZM110.07 0.69873H110.699V1.4917H110.07V0.69873ZM115.552 2.30518V2.92041C115.372 2.81559 115.191 2.73698 115.009 2.68457C114.826 2.63216 114.641 2.60596 114.452 2.60596C114.167 2.60596 113.954 2.65267 113.812 2.74609C113.674 2.83724 113.604 2.97738 113.604 3.1665C113.604 3.3374 113.656 3.46501 113.761 3.54932C113.866 3.63363 114.127 3.71566 114.544 3.79541L114.797 3.84326C115.109 3.90251 115.345 4.021 115.504 4.19873C115.666 4.37646 115.747 4.60775 115.747 4.89258C115.747 5.27083 115.613 5.56706 115.344 5.78125C115.075 5.99316 114.701 6.09912 114.223 6.09912C114.034 6.09912 113.835 6.07861 113.628 6.0376C113.421 5.99886 113.196 5.93962 112.955 5.85986V5.21045C113.189 5.33122 113.414 5.42236 113.628 5.48389C113.842 5.54313 114.045 5.57275 114.236 5.57275C114.514 5.57275 114.73 5.51693 114.882 5.40527C115.035 5.29134 115.111 5.13298 115.111 4.93018C115.111 4.63851 114.832 4.43685 114.274 4.3252L114.247 4.31836L114.011 4.27051C113.648 4.19987 113.384 4.08138 113.218 3.91504C113.051 3.74642 112.968 3.51742 112.968 3.22803C112.968 2.86117 113.092 2.57861 113.341 2.38037C113.589 2.17985 113.944 2.07959 114.404 2.07959C114.609 2.07959 114.806 2.09896 114.995 2.1377C115.184 2.17415 115.37 2.22998 115.552 2.30518ZM117.726 5.51807V7.45605H117.094V2.17188H117.726V2.66064C117.831 2.47152 117.97 2.32796 118.143 2.22998C118.319 2.12972 118.52 2.07959 118.748 2.07959C119.211 2.07959 119.573 2.25846 119.835 2.61621C120.099 2.97396 120.231 3.46956 120.231 4.10303C120.231 4.7251 120.099 5.21387 119.835 5.56934C119.571 5.92253 119.208 6.09912 118.748 6.09912C118.516 6.09912 118.312 6.05013 118.136 5.95215C117.963 5.85189 117.826 5.70719 117.726 5.51807ZM119.572 4.08936C119.572 3.60173 119.494 3.23372 119.339 2.98535C119.187 2.73698 118.959 2.61279 118.656 2.61279C118.35 2.61279 118.119 2.73812 117.962 2.98877C117.805 3.23714 117.726 3.604 117.726 4.08936C117.726 4.57243 117.805 4.93929 117.962 5.18994C118.119 5.44059 118.35 5.56592 118.656 5.56592C118.959 5.56592 119.187 5.44173 119.339 5.19336C119.494 4.94499 119.572 4.57699 119.572 4.08936ZM123.12 4.61572C123.12 4.89827 123.171 5.11133 123.273 5.25488C123.378 5.39844 123.532 5.47021 123.735 5.47021H124.47V6H123.673C123.297 6 123.006 5.88037 122.798 5.64111C122.593 5.39958 122.491 5.05778 122.491 4.61572V1.15332H121.482V0.661133H123.12V4.61572ZM127.279 4.07568H127.071C126.704 4.07568 126.427 4.14062 126.24 4.27051C126.056 4.39811 125.963 4.58952 125.963 4.84473C125.963 5.07487 126.033 5.25374 126.172 5.38135C126.311 5.50895 126.503 5.57275 126.75 5.57275C127.096 5.57275 127.368 5.45312 127.566 5.21387C127.765 4.97233 127.865 4.63965 127.867 4.21582V4.07568H127.279ZM128.5 3.81592V6H127.867V5.43262C127.733 5.66048 127.563 5.8291 127.358 5.93848C127.155 6.04557 126.908 6.09912 126.616 6.09912C126.227 6.09912 125.916 5.98975 125.683 5.771C125.451 5.54997 125.334 5.25488 125.334 4.88574C125.334 4.45964 125.477 4.13607 125.762 3.91504C126.049 3.69401 126.469 3.5835 127.023 3.5835H127.867V3.48438C127.865 3.17904 127.787 2.95801 127.635 2.82129C127.482 2.68229 127.238 2.61279 126.903 2.61279C126.689 2.61279 126.473 2.64355 126.254 2.70508C126.035 2.7666 125.822 2.85661 125.615 2.9751V2.34619C125.847 2.25732 126.069 2.19124 126.281 2.14795C126.495 2.10238 126.703 2.07959 126.903 2.07959C127.22 2.07959 127.49 2.1263 127.713 2.21973C127.939 2.31315 128.121 2.45329 128.26 2.64014C128.347 2.75407 128.408 2.89535 128.445 3.06396C128.481 3.23031 128.5 3.48096 128.5 3.81592ZM132.03 4.76953C131.925 5.03613 131.792 5.38704 131.63 5.82227C131.405 6.42383 131.253 6.79069 131.176 6.92285C131.071 7.10059 130.94 7.23389 130.783 7.32275C130.625 7.41162 130.442 7.45605 130.232 7.45605H129.727V6.92969H130.099C130.284 6.92969 130.428 6.87614 130.533 6.76904C130.638 6.66195 130.771 6.38509 130.933 5.93848L129.453 2.17188H130.12L131.254 5.16602L132.372 2.17188H133.039L132.03 4.76953ZM134.645 4.61914H135.848V6H134.645V4.61914ZM139.844 2.56152C139.921 2.39746 140.019 2.27669 140.138 2.19922C140.258 2.11947 140.403 2.07959 140.572 2.07959C140.879 2.07959 141.096 2.19922 141.221 2.43848C141.349 2.67546 141.413 3.12321 141.413 3.78174V6H140.838V3.80908C140.838 3.26904 140.808 2.93408 140.746 2.8042C140.687 2.67204 140.577 2.60596 140.418 2.60596C140.236 2.60596 140.11 2.6766 140.042 2.81787C139.976 2.95687 139.943 3.28727 139.943 3.80908V6H139.369V3.80908C139.369 3.26221 139.336 2.92497 139.27 2.79736C139.206 2.66976 139.09 2.60596 138.921 2.60596C138.755 2.60596 138.638 2.6766 138.572 2.81787C138.508 2.95687 138.477 3.28727 138.477 3.80908V6H137.906V2.17188H138.477V2.5C138.552 2.36328 138.645 2.2596 138.757 2.18896C138.871 2.11605 139 2.07959 139.143 2.07959C139.316 2.07959 139.46 2.11947 139.574 2.19922C139.69 2.27897 139.78 2.39974 139.844 2.56152ZM143.856 2.61279C143.537 2.61279 143.296 2.73698 143.132 2.98535C142.968 3.23372 142.886 3.60173 142.886 4.08936C142.886 4.57471 142.968 4.94271 143.132 5.19336C143.296 5.44173 143.537 5.56592 143.856 5.56592C144.178 5.56592 144.42 5.44173 144.584 5.19336C144.749 4.94271 144.831 4.57471 144.831 4.08936C144.831 3.60173 144.749 3.23372 144.584 2.98535C144.42 2.73698 144.178 2.61279 143.856 2.61279ZM143.856 2.07959C144.387 2.07959 144.793 2.25163 145.073 2.5957C145.356 2.93978 145.497 3.43766 145.497 4.08936C145.497 4.74333 145.357 5.24235 145.077 5.58643C144.796 5.92822 144.39 6.09912 143.856 6.09912C143.326 6.09912 142.92 5.92822 142.64 5.58643C142.359 5.24235 142.219 4.74333 142.219 4.08936C142.219 3.43766 142.359 2.93978 142.64 2.5957C142.92 2.25163 143.326 2.07959 143.856 2.07959ZM148.901 2.66064V0.681641H149.53V6H148.901V5.51807C148.797 5.70719 148.656 5.85189 148.481 5.95215C148.308 6.05013 148.107 6.09912 147.879 6.09912C147.417 6.09912 147.052 5.92025 146.786 5.5625C146.521 5.20247 146.389 4.70687 146.389 4.07568C146.389 3.45361 146.522 2.96598 146.789 2.61279C147.056 2.25732 147.419 2.07959 147.879 2.07959C148.11 2.07959 148.312 2.12972 148.488 2.22998C148.663 2.32796 148.801 2.47152 148.901 2.66064ZM147.052 4.08936C147.052 4.57699 147.13 4.94499 147.285 5.19336C147.44 5.44173 147.669 5.56592 147.972 5.56592C148.275 5.56592 148.505 5.44059 148.662 5.18994C148.822 4.93929 148.901 4.57243 148.901 4.08936C148.901 3.604 148.822 3.23714 148.662 2.98877C148.505 2.73812 148.275 2.61279 147.972 2.61279C147.669 2.61279 147.44 2.73698 147.285 2.98535C147.13 3.23372 147.052 3.60173 147.052 4.08936ZM150.853 4.55078V2.17871H151.482V4.55078C151.482 4.89486 151.542 5.14779 151.663 5.30957C151.786 5.47135 151.975 5.55225 152.23 5.55225C152.527 5.55225 152.753 5.44857 152.911 5.24121C153.068 5.03158 153.146 4.73193 153.146 4.34229V2.17871H153.779V6H153.146V5.42578C153.035 5.64681 152.882 5.81429 152.688 5.92822C152.497 6.04215 152.273 6.09912 152.015 6.09912C151.623 6.09912 151.332 5.97152 151.14 5.71631C150.949 5.45882 150.853 5.07031 150.853 4.55078ZM156.862 4.61572C156.862 4.89827 156.913 5.11133 157.016 5.25488C157.12 5.39844 157.274 5.47021 157.477 5.47021H158.212V6H157.416C157.04 6 156.748 5.88037 156.541 5.64111C156.335 5.39958 156.233 5.05778 156.233 4.61572V1.15332H155.225V0.661133H156.862V4.61572ZM162.45 3.77148V4.0791H159.726V4.09961C159.708 4.62142 159.807 4.99626 160.023 5.22412C160.242 5.45199 160.55 5.56592 160.946 5.56592C161.147 5.56592 161.356 5.53402 161.575 5.47021C161.794 5.40641 162.028 5.30957 162.276 5.17969V5.80518C162.037 5.90316 161.805 5.97607 161.582 6.02393C161.361 6.07406 161.147 6.09912 160.939 6.09912C160.345 6.09912 159.88 5.92139 159.545 5.56592C159.21 5.20817 159.042 4.71598 159.042 4.08936C159.042 3.47868 159.207 2.99105 159.535 2.62646C159.863 2.26188 160.3 2.07959 160.847 2.07959C161.335 2.07959 161.719 2.24479 161.999 2.5752C162.282 2.9056 162.432 3.30436 162.45 3.77148ZM161.821 3.58691C161.794 3.32259 161.697 3.09473 161.531 2.90332C161.367 2.70964 161.13 2.61279 160.82 2.61279C160.517 2.61279 160.267 2.71305 160.071 2.91357C159.875 3.1141 159.768 3.33968 159.75 3.59033L161.821 3.58691ZM164.169 4.61914H165.373V6H164.169V4.61914ZM170.383 2.30518V2.92041C170.203 2.81559 170.022 2.73698 169.84 2.68457C169.658 2.63216 169.472 2.60596 169.283 2.60596C168.998 2.60596 168.785 2.65267 168.644 2.74609C168.505 2.83724 168.435 2.97738 168.435 3.1665C168.435 3.3374 168.487 3.46501 168.592 3.54932C168.697 3.63363 168.958 3.71566 169.375 3.79541L169.628 3.84326C169.94 3.90251 170.176 4.021 170.335 4.19873C170.497 4.37646 170.578 4.60775 170.578 4.89258C170.578 5.27083 170.444 5.56706 170.175 5.78125C169.906 5.99316 169.532 6.09912 169.054 6.09912C168.865 6.09912 168.666 6.07861 168.459 6.0376C168.252 5.99886 168.027 5.93962 167.786 5.85986V5.21045C168.02 5.33122 168.245 5.42236 168.459 5.48389C168.673 5.54313 168.876 5.57275 169.067 5.57275C169.345 5.57275 169.561 5.51693 169.713 5.40527C169.866 5.29134 169.942 5.13298 169.942 4.93018C169.942 4.63851 169.663 4.43685 169.105 4.3252L169.078 4.31836L168.842 4.27051C168.479 4.19987 168.215 4.08138 168.049 3.91504C167.882 3.74642 167.799 3.51742 167.799 3.22803C167.799 2.86117 167.924 2.57861 168.172 2.38037C168.42 2.17985 168.775 2.07959 169.235 2.07959C169.44 2.07959 169.637 2.09896 169.826 2.1377C170.015 2.17415 170.201 2.22998 170.383 2.30518ZM174.902 5.80518C174.733 5.90316 174.559 5.97607 174.379 6.02393C174.201 6.07406 174.019 6.09912 173.832 6.09912C173.24 6.09912 172.776 5.92139 172.441 5.56592C172.108 5.21045 171.942 4.71826 171.942 4.08936C171.942 3.46045 172.108 2.96826 172.441 2.61279C172.776 2.25732 173.24 2.07959 173.832 2.07959C174.017 2.07959 174.197 2.10352 174.372 2.15137C174.548 2.19922 174.724 2.27327 174.902 2.37354V3.0332C174.736 2.88509 174.568 2.77799 174.399 2.71191C174.233 2.64583 174.044 2.61279 173.832 2.61279C173.438 2.61279 173.135 2.7404 172.923 2.99561C172.711 3.25081 172.605 3.6154 172.605 4.08936C172.605 4.56104 172.711 4.92562 172.923 5.18311C173.137 5.43831 173.44 5.56592 173.832 5.56592C174.051 5.56592 174.247 5.53288 174.42 5.4668C174.593 5.39844 174.754 5.29362 174.902 5.15234V5.80518ZM178.819 2.30518V2.92041C178.639 2.81559 178.458 2.73698 178.275 2.68457C178.093 2.63216 177.907 2.60596 177.718 2.60596C177.433 2.60596 177.22 2.65267 177.079 2.74609C176.94 2.83724 176.871 2.97738 176.871 3.1665C176.871 3.3374 176.923 3.46501 177.028 3.54932C177.133 3.63363 177.394 3.71566 177.811 3.79541L178.063 3.84326C178.376 3.90251 178.611 4.021 178.771 4.19873C178.933 4.37646 179.014 4.60775 179.014 4.89258C179.014 5.27083 178.879 5.56706 178.61 5.78125C178.341 5.99316 177.968 6.09912 177.489 6.09912C177.3 6.09912 177.102 6.07861 176.895 6.0376C176.687 5.99886 176.463 5.93962 176.221 5.85986V5.21045C176.456 5.33122 176.68 5.42236 176.895 5.48389C177.109 5.54313 177.312 5.57275 177.503 5.57275C177.781 5.57275 177.996 5.51693 178.149 5.40527C178.302 5.29134 178.378 5.13298 178.378 4.93018C178.378 4.63851 178.099 4.43685 177.541 4.3252L177.513 4.31836L177.277 4.27051C176.915 4.19987 176.651 4.08138 176.484 3.91504C176.318 3.74642 176.235 3.51742 176.235 3.22803C176.235 2.86117 176.359 2.57861 176.607 2.38037C176.856 2.17985 177.21 2.07959 177.67 2.07959C177.875 2.07959 178.073 2.09896 178.262 2.1377C178.451 2.17415 178.637 2.22998 178.819 2.30518ZM183.037 2.30518V2.92041C182.857 2.81559 182.675 2.73698 182.493 2.68457C182.311 2.63216 182.125 2.60596 181.936 2.60596C181.651 2.60596 181.438 2.65267 181.297 2.74609C181.158 2.83724 181.088 2.97738 181.088 3.1665C181.088 3.3374 181.141 3.46501 181.246 3.54932C181.35 3.63363 181.611 3.71566 182.028 3.79541L182.281 3.84326C182.593 3.90251 182.829 4.021 182.989 4.19873C183.151 4.37646 183.231 4.60775 183.231 4.89258C183.231 5.27083 183.097 5.56706 182.828 5.78125C182.559 5.99316 182.186 6.09912 181.707 6.09912C181.518 6.09912 181.32 6.07861 181.112 6.0376C180.905 5.99886 180.681 5.93962 180.439 5.85986V5.21045C180.674 5.33122 180.898 5.42236 181.112 5.48389C181.326 5.54313 181.529 5.57275 181.721 5.57275C181.999 5.57275 182.214 5.51693 182.367 5.40527C182.519 5.29134 182.596 5.13298 182.596 4.93018C182.596 4.63851 182.317 4.43685 181.758 4.3252L181.731 4.31836L181.495 4.27051C181.133 4.19987 180.868 4.08138 180.702 3.91504C180.536 3.74642 180.453 3.51742 180.453 3.22803C180.453 2.86117 180.577 2.57861 180.825 2.38037C181.074 2.17985 181.428 2.07959 181.888 2.07959C182.093 2.07959 182.29 2.09896 182.479 2.1377C182.669 2.17415 182.854 2.22998 183.037 2.30518Z" fill="#977CDC"/>
</svg>
