<svg width="117" height="8" viewBox="0 0 117 8" fill="none" xmlns="http://www.w3.org/2000/svg">
<path d="M1.2749 5.41895H3.61963V6H0.519531V5.41895C0.945638 4.97005 1.3182 4.57357 1.63721 4.22949C1.95622 3.88542 2.17611 3.64274 2.29688 3.50146C2.52474 3.22347 2.67855 2.99902 2.7583 2.82812C2.83805 2.65495 2.87793 2.47835 2.87793 2.29834C2.87793 2.01351 2.79362 1.7902 2.625 1.62842C2.45866 1.46663 2.22965 1.38574 1.93799 1.38574C1.73063 1.38574 1.51302 1.42334 1.28516 1.49854C1.05729 1.57373 0.815755 1.68766 0.560547 1.84033V1.14307C0.795247 1.03141 1.02539 0.947103 1.25098 0.890137C1.47884 0.833171 1.70329 0.804688 1.92432 0.804688C2.42334 0.804688 2.82438 0.937988 3.12744 1.20459C3.43278 1.46891 3.58545 1.81641 3.58545 2.24707C3.58545 2.46582 3.53418 2.68457 3.43164 2.90332C3.33138 3.12207 3.16732 3.36361 2.93945 3.62793C2.81185 3.77604 2.62614 3.98112 2.38232 4.24316C2.14079 4.50521 1.77165 4.89714 1.2749 5.41895ZM6.72998 1.52588L5.12012 4.22266H6.72998V1.52588ZM6.61719 0.896973H7.41699V4.22266H8.09717V4.7832H7.41699V6H6.72998V4.7832H4.56641V4.13037L6.61719 0.896973Z" fill="white" fill-opacity="0.3"/>
<path d="M82.1802 2.71533L79.2749 3.80908L82.1802 4.89258V5.51807L78.5674 4.08936V3.52197L82.1802 2.09326V2.71533ZM85.5229 0.896973H86.1724L83.4858 6.64941H82.833L85.5229 0.896973ZM112.31 2.71533V2.09326L115.922 3.52197V4.08936L112.31 5.51807V4.89258L115.215 3.80908L112.31 2.71533Z" fill="white"/>
<path d="M87.9634 3.42627V5.43262H88.7803C89.1813 5.43262 89.4673 5.36312 89.6382 5.22412C89.8091 5.08285 89.8945 4.85156 89.8945 4.53027C89.8945 4.10645 89.8045 3.81706 89.6245 3.66211C89.4445 3.50488 89.1631 3.42627 88.7803 3.42627H87.9634ZM87.9634 1.46436V2.86572H88.7666C89.0993 2.86572 89.3397 2.80192 89.4878 2.67432C89.6382 2.54671 89.7134 2.38607 89.7134 2.19238C89.7134 1.9349 89.6393 1.74919 89.4912 1.63525C89.3454 1.52132 89.1038 1.46436 88.7666 1.46436H87.9634ZM87.2695 0.896973H88.7803C89.3021 0.896973 89.7043 1.00977 89.9868 1.23535C90.2694 1.46094 90.4106 1.77995 90.4106 2.19238C90.4106 2.41341 90.3354 2.61393 90.1851 2.79395C90.0369 2.97396 89.8136 3.08675 89.5151 3.13232C89.8501 3.18245 90.1121 3.32601 90.3013 3.56299C90.4927 3.79769 90.5884 4.1429 90.5884 4.59863C90.5884 5.0612 90.4368 5.41097 90.1338 5.64795C89.8307 5.88265 89.3796 6 88.7803 6H87.2695V0.896973ZM91.5864 4.55078V2.17871H92.2153V4.55078C92.2153 4.89486 92.2757 5.14779 92.3965 5.30957C92.5195 5.47135 92.7087 5.55225 92.9639 5.55225C93.2601 5.55225 93.4868 5.44857 93.644 5.24121C93.8013 5.03158 93.8799 4.73193 93.8799 4.34229V2.17871H94.5122V6H93.8799V5.42578C93.7682 5.64681 93.6156 5.81429 93.4219 5.92822C93.2305 6.04215 93.006 6.09912 92.7485 6.09912C92.3566 6.09912 92.0649 5.97152 91.8735 5.71631C91.6821 5.45882 91.5864 5.07031 91.5864 4.55078ZM97.2363 1.08496V2.17188H98.665V2.66064H97.2363V4.73877C97.2363 5.02132 97.2899 5.21842 97.397 5.33008C97.5041 5.44173 97.6909 5.49756 97.9575 5.49756H98.665V6H97.896C97.4243 6 97.0916 5.90544 96.8979 5.71631C96.7043 5.52718 96.6074 5.20133 96.6074 4.73877V2.66064H95.5854V2.17188H96.6074V1.08496H97.2363ZM101.454 1.08496V2.17188H102.883V2.66064H101.454V4.73877C101.454 5.02132 101.508 5.21842 101.615 5.33008C101.722 5.44173 101.909 5.49756 102.175 5.49756H102.883V6H102.114C101.642 6 101.309 5.90544 101.116 5.71631C100.922 5.52718 100.825 5.20133 100.825 4.73877V2.66064H99.8032V2.17188H100.825V1.08496H101.454ZM105.679 2.61279C105.36 2.61279 105.118 2.73698 104.954 2.98535C104.79 3.23372 104.708 3.60173 104.708 4.08936C104.708 4.57471 104.79 4.94271 104.954 5.19336C105.118 5.44173 105.36 5.56592 105.679 5.56592C106 5.56592 106.243 5.44173 106.407 5.19336C106.571 4.94271 106.653 4.57471 106.653 4.08936C106.653 3.60173 106.571 3.23372 106.407 2.98535C106.243 2.73698 106 2.61279 105.679 2.61279ZM105.679 2.07959C106.21 2.07959 106.615 2.25163 106.896 2.5957C107.178 2.93978 107.319 3.43766 107.319 4.08936C107.319 4.74333 107.179 5.24235 106.899 5.58643C106.619 5.92822 106.212 6.09912 105.679 6.09912C105.148 6.09912 104.742 5.92822 104.462 5.58643C104.182 5.24235 104.042 4.74333 104.042 4.08936C104.042 3.43766 104.182 2.93978 104.462 2.5957C104.742 2.25163 105.148 2.07959 105.679 2.07959ZM111.383 3.62793V6H110.751V3.62793C110.751 3.28385 110.691 3.03092 110.57 2.86914C110.449 2.70736 110.26 2.62646 110.002 2.62646C109.708 2.62646 109.482 2.73128 109.322 2.94092C109.165 3.14827 109.086 3.44678 109.086 3.83643V6H108.458V2.17188H109.086V2.74609C109.198 2.52734 109.35 2.36214 109.541 2.25049C109.732 2.13656 109.959 2.07959 110.221 2.07959C110.611 2.07959 110.901 2.20833 111.093 2.46582C111.286 2.72103 111.383 3.1084 111.383 3.62793Z" fill="#FF9900"/>
</svg>
