<svg width="172" height="8" viewBox="0 0 172 8" fill="none" xmlns="http://www.w3.org/2000/svg">
<path d="M1.2749 5.41895H3.61963V6H0.519531V5.41895C0.945638 4.97005 1.3182 4.57357 1.63721 4.22949C1.95622 3.88542 2.17611 3.64274 2.29688 3.50146C2.52474 3.22347 2.67855 2.99902 2.7583 2.82812C2.83805 2.65495 2.87793 2.47835 2.87793 2.29834C2.87793 2.01351 2.79362 1.7902 2.625 1.62842C2.45866 1.46663 2.22965 1.38574 1.93799 1.38574C1.73063 1.38574 1.51302 1.42334 1.28516 1.49854C1.05729 1.57373 0.815755 1.68766 0.560547 1.84033V1.14307C0.795247 1.03141 1.02539 0.947103 1.25098 0.890137C1.47884 0.833171 1.70329 0.804688 1.92432 0.804688C2.42334 0.804688 2.82438 0.937988 3.12744 1.20459C3.43278 1.46891 3.58545 1.81641 3.58545 2.24707C3.58545 2.46582 3.53418 2.68457 3.43164 2.90332C3.33138 3.12207 3.16732 3.36361 2.93945 3.62793C2.81185 3.77604 2.62614 3.98112 2.38232 4.24316C2.14079 4.50521 1.77165 4.89714 1.2749 5.41895ZM5.14062 5.42236H6.21387V1.56689L4.92871 2.18555V1.52246L6.20703 0.914062H6.89746V5.42236H7.95703V6H5.14062V5.42236Z" fill="white" fill-opacity="0.3"/>
<path d="M116.527 4.29102H120.14V4.86865H116.527V4.29102ZM116.527 2.68115H120.14V3.25879H116.527V2.68115ZM123.972 6.17432V6.6665H123.753C123.186 6.6665 122.805 6.58219 122.611 6.41357C122.42 6.24495 122.324 5.90885 122.324 5.40527V4.72168C122.324 4.47331 122.254 4.25911 122.112 4.0791C121.973 3.89909 121.757 3.80908 121.463 3.80908H121.046V3.32031H121.463C121.784 3.32031 122.007 3.24398 122.133 3.09131C122.26 2.93864 122.324 2.71419 122.324 2.41797V1.5293C122.324 1.02572 122.42 0.690755 122.611 0.524414C122.805 0.355794 123.186 0.271484 123.753 0.271484H123.972V0.760254H123.732C123.413 0.760254 123.205 0.810384 123.107 0.910645C123.011 1.00863 122.963 1.2194 122.963 1.54297V2.45898C122.963 2.86003 122.885 3.13005 122.728 3.26904C122.57 3.40576 122.264 3.50488 121.808 3.56641C122.25 3.61882 122.553 3.72021 122.717 3.87061C122.881 4.01872 122.963 4.2876 122.963 4.67725V5.3916C122.963 5.71745 123.011 5.92936 123.107 6.02734C123.205 6.12533 123.413 6.17432 123.732 6.17432H123.972ZM126.768 2.61279C126.449 2.61279 126.207 2.73698 126.043 2.98535C125.879 3.23372 125.797 3.60173 125.797 4.08936C125.797 4.57471 125.879 4.94271 126.043 5.19336C126.207 5.44173 126.449 5.56592 126.768 5.56592C127.089 5.56592 127.332 5.44173 127.496 5.19336C127.66 4.94271 127.742 4.57471 127.742 4.08936C127.742 3.60173 127.66 3.23372 127.496 2.98535C127.332 2.73698 127.089 2.61279 126.768 2.61279ZM126.768 2.07959C127.299 2.07959 127.704 2.25163 127.984 2.5957C128.267 2.93978 128.408 3.43766 128.408 4.08936C128.408 4.74333 128.268 5.24235 127.988 5.58643C127.708 5.92822 127.301 6.09912 126.768 6.09912C126.237 6.09912 125.831 5.92822 125.551 5.58643C125.271 5.24235 125.13 4.74333 125.13 4.08936C125.13 3.43766 125.271 2.93978 125.551 2.5957C125.831 2.25163 126.237 2.07959 126.768 2.07959ZM132.472 3.62793V6H131.84V3.62793C131.84 3.28385 131.779 3.03092 131.659 2.86914C131.538 2.70736 131.349 2.62646 131.091 2.62646C130.797 2.62646 130.571 2.73128 130.411 2.94092C130.254 3.14827 130.175 3.44678 130.175 3.83643V6H129.546V2.17188H130.175V2.74609C130.287 2.52734 130.438 2.36214 130.63 2.25049C130.821 2.13656 131.048 2.07959 131.31 2.07959C131.7 2.07959 131.99 2.20833 132.182 2.46582C132.375 2.72103 132.472 3.1084 132.472 3.62793ZM136.557 1.07129V1.77197C136.347 1.63753 136.136 1.53613 135.924 1.46777C135.715 1.39941 135.503 1.36523 135.289 1.36523C134.963 1.36523 134.705 1.44157 134.516 1.59424C134.327 1.74463 134.232 1.94857 134.232 2.20605C134.232 2.43164 134.294 2.60368 134.417 2.72217C134.542 2.84066 134.775 2.93978 135.114 3.01953L135.477 3.10156C135.955 3.21322 136.304 3.38867 136.522 3.62793C136.741 3.86719 136.851 4.19303 136.851 4.60547C136.851 5.09082 136.7 5.4611 136.399 5.71631C136.099 5.97152 135.661 6.09912 135.087 6.09912C134.848 6.09912 134.607 6.07292 134.366 6.02051C134.124 5.97038 133.882 5.89404 133.638 5.7915V5.05664C133.9 5.22298 134.147 5.34489 134.379 5.42236C134.614 5.49984 134.85 5.53857 135.087 5.53857C135.436 5.53857 135.707 5.4611 135.9 5.30615C136.094 5.14893 136.191 4.93018 136.191 4.6499C136.191 4.39469 136.124 4.19987 135.989 4.06543C135.857 3.93099 135.626 3.82731 135.295 3.75439L134.926 3.66895C134.452 3.56185 134.108 3.40007 133.894 3.18359C133.68 2.96712 133.573 2.6766 133.573 2.31201C133.573 1.85628 133.725 1.4917 134.031 1.21826C134.338 0.942546 134.746 0.804688 135.254 0.804688C135.45 0.804688 135.657 0.827474 135.873 0.873047C136.09 0.916341 136.317 0.982422 136.557 1.07129ZM141.144 3.77148V4.0791H138.419V4.09961C138.401 4.62142 138.5 4.99626 138.717 5.22412C138.936 5.45199 139.243 5.56592 139.64 5.56592C139.84 5.56592 140.05 5.53402 140.269 5.47021C140.487 5.40641 140.721 5.30957 140.969 5.17969V5.80518C140.73 5.90316 140.499 5.97607 140.275 6.02393C140.054 6.07406 139.84 6.09912 139.633 6.09912C139.038 6.09912 138.573 5.92139 138.238 5.56592C137.903 5.20817 137.736 4.71598 137.736 4.08936C137.736 3.47868 137.9 2.99105 138.228 2.62646C138.556 2.26188 138.994 2.07959 139.541 2.07959C140.028 2.07959 140.412 2.24479 140.692 2.5752C140.975 2.9056 141.125 3.30436 141.144 3.77148ZM140.515 3.58691C140.487 3.32259 140.39 3.09473 140.224 2.90332C140.06 2.70964 139.823 2.61279 139.513 2.61279C139.21 2.61279 138.961 2.71305 138.765 2.91357C138.569 3.1141 138.462 3.33968 138.443 3.59033L140.515 3.58691ZM143.632 1.08496V2.17188H145.061V2.66064H143.632V4.73877C143.632 5.02132 143.685 5.21842 143.792 5.33008C143.9 5.44173 144.086 5.49756 144.353 5.49756H145.061V6H144.292C143.82 6 143.487 5.90544 143.293 5.71631C143.1 5.52718 143.003 5.20133 143.003 4.73877V2.66064H141.981V2.17188H143.003V1.08496H143.632ZM145.874 0.914062H146.797L147.679 3.50488L148.567 0.914062H149.494V6H148.854V1.50537L147.945 4.18506H147.422L146.51 1.50537V6H145.874V0.914062ZM151.049 2.18555H152.659V5.51123H153.906V6H150.782V5.51123H152.03V2.67432H151.049V2.18555ZM152.03 0.69873H152.659V1.4917H152.03V0.69873ZM156.644 4.61572C156.644 4.89827 156.695 5.11133 156.798 5.25488C156.903 5.39844 157.056 5.47021 157.259 5.47021H157.994V6H157.198C156.822 6 156.53 5.88037 156.323 5.64111C156.118 5.39958 156.015 5.05778 156.015 4.61572V1.15332H155.007V0.661133H156.644V4.61572ZM162.232 3.77148V4.0791H159.508V4.09961C159.49 4.62142 159.589 4.99626 159.806 5.22412C160.024 5.45199 160.332 5.56592 160.729 5.56592C160.929 5.56592 161.139 5.53402 161.357 5.47021C161.576 5.40641 161.81 5.30957 162.058 5.17969V5.80518C161.819 5.90316 161.588 5.97607 161.364 6.02393C161.143 6.07406 160.929 6.09912 160.722 6.09912C160.127 6.09912 159.662 5.92139 159.327 5.56592C158.992 5.20817 158.825 4.71598 158.825 4.08936C158.825 3.47868 158.989 2.99105 159.317 2.62646C159.645 2.26188 160.083 2.07959 160.629 2.07959C161.117 2.07959 161.501 2.24479 161.781 2.5752C162.064 2.9056 162.214 3.30436 162.232 3.77148ZM161.604 3.58691C161.576 3.32259 161.479 3.09473 161.313 2.90332C161.149 2.70964 160.912 2.61279 160.602 2.61279C160.299 2.61279 160.049 2.71305 159.854 2.91357C159.658 3.1141 159.55 3.33968 159.532 3.59033L161.604 3.58691ZM165.948 2.30518V2.92041C165.768 2.81559 165.587 2.73698 165.404 2.68457C165.222 2.63216 165.036 2.60596 164.847 2.60596C164.562 2.60596 164.349 2.65267 164.208 2.74609C164.069 2.83724 164 2.97738 164 3.1665C164 3.3374 164.052 3.46501 164.157 3.54932C164.262 3.63363 164.522 3.71566 164.939 3.79541L165.192 3.84326C165.505 3.90251 165.74 4.021 165.9 4.19873C166.062 4.37646 166.143 4.60775 166.143 4.89258C166.143 5.27083 166.008 5.56706 165.739 5.78125C165.47 5.99316 165.097 6.09912 164.618 6.09912C164.429 6.09912 164.231 6.07861 164.023 6.0376C163.816 5.99886 163.592 5.93962 163.35 5.85986V5.21045C163.585 5.33122 163.809 5.42236 164.023 5.48389C164.238 5.54313 164.44 5.57275 164.632 5.57275C164.91 5.57275 165.125 5.51693 165.278 5.40527C165.431 5.29134 165.507 5.13298 165.507 4.93018C165.507 4.63851 165.228 4.43685 164.669 4.3252L164.642 4.31836L164.406 4.27051C164.044 4.19987 163.78 4.08138 163.613 3.91504C163.447 3.74642 163.364 3.51742 163.364 3.22803C163.364 2.86117 163.488 2.57861 163.736 2.38037C163.985 2.17985 164.339 2.07959 164.799 2.07959C165.004 2.07959 165.201 2.09896 165.391 2.1377C165.58 2.17415 165.765 2.22998 165.948 2.30518ZM167.828 6.17432C168.147 6.17432 168.354 6.12533 168.45 6.02734C168.548 5.92936 168.597 5.71745 168.597 5.3916V4.67725C168.597 4.2876 168.679 4.01872 168.843 3.87061C169.007 3.72021 169.31 3.61882 169.752 3.56641C169.296 3.50488 168.99 3.40576 168.833 3.26904C168.675 3.13005 168.597 2.86003 168.597 2.45898V1.54297C168.597 1.2194 168.548 1.00863 168.45 0.910645C168.354 0.810384 168.147 0.760254 167.828 0.760254H167.588V0.271484H167.807C168.375 0.271484 168.754 0.355794 168.945 0.524414C169.139 0.690755 169.236 1.02572 169.236 1.5293V2.41797C169.236 2.71419 169.299 2.93864 169.424 3.09131C169.551 3.24398 169.776 3.32031 170.097 3.32031H170.514V3.80908H170.097C169.803 3.80908 169.586 3.89909 169.444 4.0791C169.305 4.25911 169.236 4.47331 169.236 4.72168V5.40527C169.236 5.90885 169.139 6.24495 168.945 6.41357C168.754 6.58219 168.375 6.6665 167.807 6.6665H167.588V6.17432H167.828Z" fill="white"/>
<path d="M88.8076 2.61279C88.4886 2.61279 88.2471 2.73698 88.083 2.98535C87.9189 3.23372 87.8369 3.60173 87.8369 4.08936C87.8369 4.57471 87.9189 4.94271 88.083 5.19336C88.2471 5.44173 88.4886 5.56592 88.8076 5.56592C89.1289 5.56592 89.3716 5.44173 89.5356 5.19336C89.6997 4.94271 89.7817 4.57471 89.7817 4.08936C89.7817 3.60173 89.6997 3.23372 89.5356 2.98535C89.3716 2.73698 89.1289 2.61279 88.8076 2.61279ZM88.8076 2.07959C89.3385 2.07959 89.7441 2.25163 90.0244 2.5957C90.307 2.93978 90.4482 3.43766 90.4482 4.08936C90.4482 4.74333 90.3081 5.24235 90.0278 5.58643C89.7476 5.92822 89.3408 6.09912 88.8076 6.09912C88.2767 6.09912 87.8711 5.92822 87.5908 5.58643C87.3105 5.24235 87.1704 4.74333 87.1704 4.08936C87.1704 3.43766 87.3105 2.93978 87.5908 2.5957C87.8711 2.25163 88.2767 2.07959 88.8076 2.07959ZM94.5122 3.62793V6H93.8799V3.62793C93.8799 3.28385 93.8195 3.03092 93.6987 2.86914C93.578 2.70736 93.3888 2.62646 93.1313 2.62646C92.8374 2.62646 92.6107 2.73128 92.4512 2.94092C92.2939 3.14827 92.2153 3.44678 92.2153 3.83643V6H91.5864V2.17188H92.2153V2.74609C92.327 2.52734 92.4785 2.36214 92.6699 2.25049C92.8613 2.13656 93.0881 2.07959 93.3501 2.07959C93.7397 2.07959 94.0303 2.20833 94.2217 2.46582C94.4154 2.72103 94.5122 3.1084 94.5122 3.62793ZM98.8052 5.81885C98.6297 5.91227 98.4497 5.98177 98.2651 6.02734C98.0806 6.0752 97.8846 6.09912 97.6772 6.09912C97.0233 6.09912 96.5151 5.86784 96.1528 5.40527C95.7928 4.94271 95.6128 4.29215 95.6128 3.45361C95.6128 2.61963 95.7939 1.97021 96.1562 1.50537C96.5208 1.03825 97.0278 0.804688 97.6772 0.804688C97.8846 0.804688 98.0806 0.828613 98.2651 0.876465C98.4497 0.922038 98.6297 0.991536 98.8052 1.08496V1.79248C98.6366 1.65348 98.4554 1.54753 98.2617 1.47461C98.068 1.40169 97.8732 1.36523 97.6772 1.36523C97.2284 1.36523 96.8923 1.53841 96.6689 1.88477C96.4456 2.23112 96.334 2.75407 96.334 3.45361C96.334 4.15088 96.4456 4.67269 96.6689 5.01904C96.8923 5.3654 97.2284 5.53857 97.6772 5.53857C97.8778 5.53857 98.0737 5.50212 98.2651 5.4292C98.4588 5.35628 98.6388 5.25033 98.8052 5.11133V5.81885ZM101.813 4.61572C101.813 4.89827 101.864 5.11133 101.967 5.25488C102.072 5.39844 102.225 5.47021 102.428 5.47021H103.163V6H102.367C101.991 6 101.699 5.88037 101.492 5.64111C101.287 5.39958 101.184 5.05778 101.184 4.61572V1.15332H100.176V0.661133H101.813V4.61572ZM104.653 2.18555H106.263V5.51123H107.511V6H104.387V5.51123H105.634V2.67432H104.653V2.18555ZM105.634 0.69873H106.263V1.4917H105.634V0.69873ZM111.417 5.80518C111.249 5.90316 111.075 5.97607 110.895 6.02393C110.717 6.07406 110.535 6.09912 110.348 6.09912C109.755 6.09912 109.292 5.92139 108.957 5.56592C108.624 5.21045 108.458 4.71826 108.458 4.08936C108.458 3.46045 108.624 2.96826 108.957 2.61279C109.292 2.25732 109.755 2.07959 110.348 2.07959C110.532 2.07959 110.712 2.10352 110.888 2.15137C111.063 2.19922 111.24 2.27327 111.417 2.37354V3.0332C111.251 2.88509 111.084 2.77799 110.915 2.71191C110.749 2.64583 110.56 2.61279 110.348 2.61279C109.953 2.61279 109.65 2.7404 109.438 2.99561C109.227 3.25081 109.121 3.6154 109.121 4.08936C109.121 4.56104 109.227 4.92562 109.438 5.18311C109.653 5.43831 109.956 5.56592 110.348 5.56592C110.566 5.56592 110.762 5.53288 110.936 5.4668C111.109 5.39844 111.269 5.29362 111.417 5.15234V5.80518ZM112.815 0.681641H113.465V3.76123L115.116 2.17188H115.881L114.374 3.61426L116.117 6H115.348L113.933 4.02441L113.465 4.46533V6H112.815V0.681641Z" fill="#77B7D7"/>
</svg>
