<svg width="256" height="8" viewBox="0 0 256 8" fill="none" xmlns="http://www.w3.org/2000/svg">
<path d="M0.922852 5.42236H1.99609V1.56689L0.710938 2.18555V1.52246L1.98926 0.914062H2.67969V5.42236H3.73926V6H0.922852V5.42236ZM6.32324 0.821777C6.86784 0.821777 7.27913 1.04395 7.55713 1.48828C7.8374 1.93262 7.97754 2.59001 7.97754 3.46045C7.97754 4.33089 7.8374 4.98828 7.55713 5.43262C7.27913 5.87695 6.86784 6.09912 6.32324 6.09912C5.77865 6.09912 5.36735 5.87695 5.08936 5.43262C4.81136 4.98828 4.67236 4.33089 4.67236 3.46045C4.67236 2.59001 4.81136 1.93262 5.08936 1.48828C5.36735 1.04395 5.77865 0.821777 6.32324 0.821777ZM6.32324 5.55225C6.64681 5.55225 6.88721 5.38021 7.04443 5.03613C7.20394 4.69206 7.28369 4.16683 7.28369 3.46045C7.28369 3.08447 7.2609 2.74495 7.21533 2.44189L5.58838 4.98828C5.75928 5.36426 6.00423 5.55225 6.32324 5.55225ZM6.32324 1.36865C6.00195 1.36865 5.76156 1.54069 5.60205 1.88477C5.44482 2.22884 5.36621 2.75407 5.36621 3.46045C5.36621 3.78174 5.38786 4.08252 5.43115 4.36279L7.02393 1.82324C6.85075 1.52018 6.61719 1.36865 6.32324 1.36865Z" fill="white" fill-opacity="0.3"/>
<path d="M82.1802 2.71533L79.2749 3.80908L82.1802 4.89258V5.51807L78.5674 4.08936V3.52197L82.1802 2.09326V2.71533ZM133.398 4.29102H137.011V4.86865H133.398V4.29102ZM133.398 2.68115H137.011V3.25879H133.398V2.68115ZM140.843 6.17432V6.6665H140.624C140.057 6.6665 139.676 6.58219 139.482 6.41357C139.291 6.24495 139.195 5.90885 139.195 5.40527V4.72168C139.195 4.47331 139.125 4.25911 138.983 4.0791C138.844 3.89909 138.628 3.80908 138.334 3.80908H137.917V3.32031H138.334C138.655 3.32031 138.879 3.24398 139.004 3.09131C139.132 2.93864 139.195 2.71419 139.195 2.41797V1.5293C139.195 1.02572 139.291 0.690755 139.482 0.524414C139.676 0.355794 140.057 0.271484 140.624 0.271484H140.843V0.760254H140.604C140.285 0.760254 140.076 0.810384 139.978 0.910645C139.882 1.00863 139.834 1.2194 139.834 1.54297V2.45898C139.834 2.86003 139.756 3.13005 139.599 3.26904C139.441 3.40576 139.135 3.50488 138.679 3.56641C139.121 3.61882 139.424 3.72021 139.588 3.87061C139.752 4.01872 139.834 4.2876 139.834 4.67725V5.3916C139.834 5.71745 139.882 5.92936 139.978 6.02734C140.076 6.12533 140.285 6.17432 140.604 6.17432H140.843ZM193.134 6.17432C193.453 6.17432 193.661 6.12533 193.756 6.02734C193.854 5.92936 193.903 5.71745 193.903 5.3916V4.67725C193.903 4.2876 193.985 4.01872 194.149 3.87061C194.313 3.72021 194.617 3.61882 195.059 3.56641C194.603 3.50488 194.296 3.40576 194.139 3.26904C193.982 3.13005 193.903 2.86003 193.903 2.45898V1.54297C193.903 1.2194 193.854 1.00863 193.756 0.910645C193.661 0.810384 193.453 0.760254 193.134 0.760254H192.895V0.271484H193.114C193.681 0.271484 194.061 0.355794 194.252 0.524414C194.446 0.690755 194.542 1.02572 194.542 1.5293V2.41797C194.542 2.71419 194.605 2.93864 194.73 3.09131C194.858 3.24398 195.083 3.32031 195.404 3.32031H195.821V3.80908H195.404C195.11 3.80908 194.892 3.89909 194.751 4.0791C194.612 4.25911 194.542 4.47331 194.542 4.72168V5.40527C194.542 5.90885 194.446 6.24495 194.252 6.41357C194.061 6.58219 193.681 6.6665 193.114 6.6665H192.895V6.17432H193.134ZM196.665 2.71533V2.09326L200.278 3.52197V4.08936L196.665 5.51807V4.89258L199.57 3.80908L196.665 2.71533ZM200.743 0.896973H204.636V1.47803H203.04V6H202.346V1.47803H200.743V0.896973ZM205.473 0.896973H208.501V1.47803H206.164V2.85205H208.399V3.43311H206.164V5.41895H208.566V6H205.473V0.896973ZM209.178 0.896973H213.071V1.47803H211.475V6H210.781V1.47803H209.178V0.896973ZM215.833 3.59033C216.011 3.6359 216.162 3.72249 216.288 3.8501C216.413 3.97542 216.569 4.22721 216.756 4.60547L217.45 6H216.708L216.1 4.71143C215.924 4.34456 215.766 4.10872 215.625 4.00391C215.486 3.89681 215.303 3.84326 215.078 3.84326H214.418V6H213.724V0.896973H215.146C215.707 0.896973 216.136 1.02344 216.435 1.27637C216.733 1.5293 216.882 1.89502 216.882 2.37354C216.882 2.71077 216.79 2.98649 216.605 3.20068C216.423 3.4126 216.166 3.54248 215.833 3.59033ZM214.418 1.46436V3.27588H215.173C215.504 3.27588 215.75 3.20182 215.912 3.05371C216.073 2.9056 216.154 2.67887 216.154 2.37354C216.154 2.07959 216.068 1.85514 215.895 1.7002C215.724 1.54297 215.474 1.46436 215.146 1.46436H214.418ZM225.338 5.81885C225.163 5.91227 224.983 5.98177 224.798 6.02734C224.614 6.0752 224.418 6.09912 224.21 6.09912C223.556 6.09912 223.048 5.86784 222.686 5.40527C222.326 4.94271 222.146 4.29215 222.146 3.45361C222.146 2.61963 222.327 1.97021 222.689 1.50537C223.054 1.03825 223.561 0.804688 224.21 0.804688C224.418 0.804688 224.614 0.828613 224.798 0.876465C224.983 0.922038 225.163 0.991536 225.338 1.08496V1.79248C225.17 1.65348 224.989 1.54753 224.795 1.47461C224.601 1.40169 224.406 1.36523 224.21 1.36523C223.762 1.36523 223.425 1.53841 223.202 1.88477C222.979 2.23112 222.867 2.75407 222.867 3.45361C222.867 4.15088 222.979 4.67269 223.202 5.01904C223.425 5.3654 223.762 5.53857 224.21 5.53857C224.411 5.53857 224.607 5.50212 224.798 5.4292C224.992 5.35628 225.172 5.25033 225.338 5.11133V5.81885ZM227.994 2.61279C227.675 2.61279 227.434 2.73698 227.27 2.98535C227.105 3.23372 227.023 3.60173 227.023 4.08936C227.023 4.57471 227.105 4.94271 227.27 5.19336C227.434 5.44173 227.675 5.56592 227.994 5.56592C228.315 5.56592 228.558 5.44173 228.722 5.19336C228.886 4.94271 228.968 4.57471 228.968 4.08936C228.968 3.60173 228.886 3.23372 228.722 2.98535C228.558 2.73698 228.315 2.61279 227.994 2.61279ZM227.994 2.07959C228.525 2.07959 228.931 2.25163 229.211 2.5957C229.493 2.93978 229.635 3.43766 229.635 4.08936C229.635 4.74333 229.495 5.24235 229.214 5.58643C228.934 5.92822 228.527 6.09912 227.994 6.09912C227.463 6.09912 227.058 5.92822 226.777 5.58643C226.497 5.24235 226.357 4.74333 226.357 4.08936C226.357 3.43766 226.497 2.93978 226.777 2.5957C227.058 2.25163 227.463 2.07959 227.994 2.07959ZM231.187 2.18555H232.796V5.51123H234.044V6H230.92V5.51123H232.167V2.67432H231.187V2.18555ZM232.167 0.69873H232.796V1.4917H232.167V0.69873ZM237.917 3.62793V6H237.284V3.62793C237.284 3.28385 237.224 3.03092 237.103 2.86914C236.982 2.70736 236.793 2.62646 236.536 2.62646C236.242 2.62646 236.015 2.73128 235.855 2.94092C235.698 3.14827 235.62 3.44678 235.62 3.83643V6H234.991V2.17188H235.62V2.74609C235.731 2.52734 235.883 2.36214 236.074 2.25049C236.266 2.13656 236.492 2.07959 236.754 2.07959C237.144 2.07959 237.435 2.20833 237.626 2.46582C237.82 2.72103 237.917 3.1084 237.917 3.62793ZM242.456 2.71533L239.55 3.80908L242.456 4.89258V5.51807L238.843 4.08936V3.52197L242.456 2.09326V2.71533ZM245.798 0.896973H246.448L243.761 6.64941H243.108L245.798 0.896973Z" fill="white"/>
<path d="M86.0767 3.62793V6H85.4443V3.62793C85.4443 3.28385 85.384 3.03092 85.2632 2.86914C85.1424 2.70736 84.9533 2.62646 84.6958 2.62646C84.4019 2.62646 84.1751 2.73128 84.0156 2.94092C83.8584 3.14827 83.7798 3.44678 83.7798 3.83643V6H83.1509V0.681641H83.7798V2.74609C83.8914 2.52734 84.043 2.36214 84.2344 2.25049C84.4258 2.13656 84.6525 2.07959 84.9146 2.07959C85.3042 2.07959 85.5947 2.20833 85.7861 2.46582C85.9798 2.72103 86.0767 3.1084 86.0767 3.62793ZM89.2144 1.52588L87.6045 4.22266H89.2144V1.52588ZM89.1016 0.896973H89.9014V4.22266H90.5815V4.7832H89.9014V6H89.2144V4.7832H87.0508V4.13037L89.1016 0.896973ZM250.57 3.62793V6H249.938V3.62793C249.938 3.28385 249.877 3.03092 249.756 2.86914C249.636 2.70736 249.446 2.62646 249.189 2.62646C248.895 2.62646 248.668 2.73128 248.509 2.94092C248.352 3.14827 248.273 3.44678 248.273 3.83643V6H247.644V0.681641H248.273V2.74609C248.385 2.52734 248.536 2.36214 248.728 2.25049C248.919 2.13656 249.146 2.07959 249.408 2.07959C249.797 2.07959 250.088 2.20833 250.279 2.46582C250.473 2.72103 250.57 3.1084 250.57 3.62793ZM253.708 1.52588L252.098 4.22266H253.708V1.52588ZM253.595 0.896973H254.395V4.22266H255.075V4.7832H254.395V6H253.708V4.7832H251.544V4.13037L253.595 0.896973Z" fill="#00FFD1"/>
<path d="M98.7642 5.80518C98.5955 5.90316 98.4212 5.97607 98.2412 6.02393C98.0635 6.07406 97.8812 6.09912 97.6943 6.09912C97.1019 6.09912 96.6382 5.92139 96.3032 5.56592C95.9705 5.21045 95.8042 4.71826 95.8042 4.08936C95.8042 3.46045 95.9705 2.96826 96.3032 2.61279C96.6382 2.25732 97.1019 2.07959 97.6943 2.07959C97.8789 2.07959 98.0589 2.10352 98.2344 2.15137C98.4098 2.19922 98.5864 2.27327 98.7642 2.37354V3.0332C98.5978 2.88509 98.4303 2.77799 98.2617 2.71191C98.0954 2.64583 97.9062 2.61279 97.6943 2.61279C97.3001 2.61279 96.9971 2.7404 96.7852 2.99561C96.5732 3.25081 96.4673 3.6154 96.4673 4.08936C96.4673 4.56104 96.5732 4.92562 96.7852 5.18311C96.9993 5.43831 97.3024 5.56592 97.6943 5.56592C97.9131 5.56592 98.109 5.53288 98.2822 5.4668C98.4554 5.39844 98.616 5.29362 98.7642 5.15234V5.80518ZM101.813 4.61572C101.813 4.89827 101.864 5.11133 101.967 5.25488C102.072 5.39844 102.225 5.47021 102.428 5.47021H103.163V6H102.367C101.991 6 101.699 5.88037 101.492 5.64111C101.287 5.39958 101.184 5.05778 101.184 4.61572V1.15332H100.176V0.661133H101.813V4.61572ZM105.973 4.07568H105.764C105.397 4.07568 105.12 4.14062 104.934 4.27051C104.749 4.39811 104.657 4.58952 104.657 4.84473C104.657 5.07487 104.726 5.25374 104.865 5.38135C105.004 5.50895 105.197 5.57275 105.443 5.57275C105.789 5.57275 106.062 5.45312 106.26 5.21387C106.458 4.97233 106.558 4.63965 106.561 4.21582V4.07568H105.973ZM107.193 3.81592V6H106.561V5.43262C106.426 5.66048 106.256 5.8291 106.051 5.93848C105.848 6.04557 105.601 6.09912 105.31 6.09912C104.92 6.09912 104.609 5.98975 104.376 5.771C104.144 5.54997 104.028 5.25488 104.028 4.88574C104.028 4.45964 104.17 4.13607 104.455 3.91504C104.742 3.69401 105.163 3.5835 105.716 3.5835H106.561V3.48438C106.558 3.17904 106.481 2.95801 106.328 2.82129C106.175 2.68229 105.932 2.61279 105.597 2.61279C105.382 2.61279 105.166 2.64355 104.947 2.70508C104.729 2.7666 104.515 2.85661 104.308 2.9751V2.34619C104.541 2.25732 104.763 2.19124 104.975 2.14795C105.189 2.10238 105.396 2.07959 105.597 2.07959C105.913 2.07959 106.183 2.1263 106.407 2.21973C106.632 2.31315 106.815 2.45329 106.954 2.64014C107.04 2.75407 107.102 2.89535 107.138 3.06396C107.175 3.23031 107.193 3.48096 107.193 3.81592ZM111.117 2.30518V2.92041C110.937 2.81559 110.756 2.73698 110.573 2.68457C110.391 2.63216 110.205 2.60596 110.016 2.60596C109.731 2.60596 109.518 2.65267 109.377 2.74609C109.238 2.83724 109.168 2.97738 109.168 3.1665C109.168 3.3374 109.221 3.46501 109.326 3.54932C109.431 3.63363 109.691 3.71566 110.108 3.79541L110.361 3.84326C110.674 3.90251 110.909 4.021 111.069 4.19873C111.231 4.37646 111.312 4.60775 111.312 4.89258C111.312 5.27083 111.177 5.56706 110.908 5.78125C110.639 5.99316 110.266 6.09912 109.787 6.09912C109.598 6.09912 109.4 6.07861 109.192 6.0376C108.985 5.99886 108.761 5.93962 108.519 5.85986V5.21045C108.754 5.33122 108.978 5.42236 109.192 5.48389C109.407 5.54313 109.609 5.57275 109.801 5.57275C110.079 5.57275 110.294 5.51693 110.447 5.40527C110.599 5.29134 110.676 5.13298 110.676 4.93018C110.676 4.63851 110.397 4.43685 109.838 4.3252L109.811 4.31836L109.575 4.27051C109.213 4.19987 108.949 4.08138 108.782 3.91504C108.616 3.74642 108.533 3.51742 108.533 3.22803C108.533 2.86117 108.657 2.57861 108.905 2.38037C109.154 2.17985 109.508 2.07959 109.968 2.07959C110.173 2.07959 110.37 2.09896 110.56 2.1377C110.749 2.17415 110.934 2.22998 111.117 2.30518ZM115.334 2.30518V2.92041C115.154 2.81559 114.973 2.73698 114.791 2.68457C114.609 2.63216 114.423 2.60596 114.234 2.60596C113.949 2.60596 113.736 2.65267 113.595 2.74609C113.456 2.83724 113.386 2.97738 113.386 3.1665C113.386 3.3374 113.439 3.46501 113.543 3.54932C113.648 3.63363 113.909 3.71566 114.326 3.79541L114.579 3.84326C114.891 3.90251 115.127 4.021 115.287 4.19873C115.448 4.37646 115.529 4.60775 115.529 4.89258C115.529 5.27083 115.395 5.56706 115.126 5.78125C114.857 5.99316 114.483 6.09912 114.005 6.09912C113.816 6.09912 113.618 6.07861 113.41 6.0376C113.203 5.99886 112.978 5.93962 112.737 5.85986V5.21045C112.972 5.33122 113.196 5.42236 113.41 5.48389C113.624 5.54313 113.827 5.57275 114.019 5.57275C114.297 5.57275 114.512 5.51693 114.665 5.40527C114.817 5.29134 114.894 5.13298 114.894 4.93018C114.894 4.63851 114.614 4.43685 114.056 4.3252L114.029 4.31836L113.793 4.27051C113.431 4.19987 113.166 4.08138 113 3.91504C112.834 3.74642 112.75 3.51742 112.75 3.22803C112.75 2.86117 112.875 2.57861 113.123 2.38037C113.371 2.17985 113.726 2.07959 114.186 2.07959C114.391 2.07959 114.588 2.09896 114.777 2.1377C114.966 2.17415 115.152 2.22998 115.334 2.30518ZM116.292 0.914062H117.235L119.231 5.10107V0.914062H119.966V6H119.022L117.026 1.81299V6H116.292V0.914062ZM122.844 4.07568H122.635C122.268 4.07568 121.992 4.14062 121.805 4.27051C121.62 4.39811 121.528 4.58952 121.528 4.84473C121.528 5.07487 121.597 5.25374 121.736 5.38135C121.875 5.50895 122.068 5.57275 122.314 5.57275C122.66 5.57275 122.933 5.45312 123.131 5.21387C123.329 4.97233 123.429 4.63965 123.432 4.21582V4.07568H122.844ZM124.064 3.81592V6H123.432V5.43262C123.297 5.66048 123.127 5.8291 122.922 5.93848C122.72 6.04557 122.472 6.09912 122.181 6.09912C121.791 6.09912 121.48 5.98975 121.248 5.771C121.015 5.54997 120.899 5.25488 120.899 4.88574C120.899 4.45964 121.041 4.13607 121.326 3.91504C121.613 3.69401 122.034 3.5835 122.587 3.5835H123.432V3.48438C123.429 3.17904 123.352 2.95801 123.199 2.82129C123.047 2.68229 122.803 2.61279 122.468 2.61279C122.254 2.61279 122.037 2.64355 121.818 2.70508C121.6 2.7666 121.387 2.85661 121.179 2.9751V2.34619C121.412 2.25732 121.634 2.19124 121.846 2.14795C122.06 2.10238 122.267 2.07959 122.468 2.07959C122.785 2.07959 123.055 2.1263 123.278 2.21973C123.503 2.31315 123.686 2.45329 123.825 2.64014C123.911 2.75407 123.973 2.89535 124.009 3.06396C124.046 3.23031 124.064 3.48096 124.064 3.81592ZM126.973 2.56152C127.05 2.39746 127.148 2.27669 127.267 2.19922C127.387 2.11947 127.532 2.07959 127.701 2.07959C128.008 2.07959 128.225 2.19922 128.35 2.43848C128.478 2.67546 128.542 3.12321 128.542 3.78174V6H127.967V3.80908C127.967 3.26904 127.937 2.93408 127.875 2.8042C127.816 2.67204 127.706 2.60596 127.547 2.60596C127.365 2.60596 127.239 2.6766 127.171 2.81787C127.105 2.95687 127.072 3.28727 127.072 3.80908V6H126.498V3.80908C126.498 3.26221 126.465 2.92497 126.398 2.79736C126.335 2.66976 126.218 2.60596 126.05 2.60596C125.883 2.60596 125.767 2.6766 125.701 2.81787C125.637 2.95687 125.605 3.28727 125.605 3.80908V6H125.035V2.17188H125.605V2.5C125.681 2.36328 125.774 2.2596 125.886 2.18896C126 2.11605 126.128 2.07959 126.272 2.07959C126.445 2.07959 126.589 2.11947 126.703 2.19922C126.819 2.27897 126.909 2.39974 126.973 2.56152ZM132.708 3.77148V4.0791H129.984V4.09961C129.966 4.62142 130.065 4.99626 130.281 5.22412C130.5 5.45199 130.808 5.56592 131.204 5.56592C131.405 5.56592 131.614 5.53402 131.833 5.47021C132.052 5.40641 132.285 5.30957 132.534 5.17969V5.80518C132.294 5.90316 132.063 5.97607 131.84 6.02393C131.619 6.07406 131.405 6.09912 131.197 6.09912C130.603 6.09912 130.138 5.92139 129.803 5.56592C129.468 5.20817 129.3 4.71598 129.3 4.08936C129.3 3.47868 129.464 2.99105 129.792 2.62646C130.121 2.26188 130.558 2.07959 131.105 2.07959C131.593 2.07959 131.977 2.24479 132.257 2.5752C132.539 2.9056 132.69 3.30436 132.708 3.77148ZM132.079 3.58691C132.052 3.32259 131.955 3.09473 131.789 2.90332C131.625 2.70964 131.388 2.61279 131.078 2.61279C130.775 2.61279 130.525 2.71305 130.329 2.91357C130.133 3.1141 130.026 3.33968 130.008 3.59033L132.079 3.58691Z" fill="#77B7D7"/>
<path d="M144.859 2.30518V2.92041C144.679 2.81559 144.498 2.73698 144.315 2.68457C144.133 2.63216 143.947 2.60596 143.758 2.60596C143.473 2.60596 143.26 2.65267 143.119 2.74609C142.98 2.83724 142.911 2.97738 142.911 3.1665C142.911 3.3374 142.963 3.46501 143.068 3.54932C143.173 3.63363 143.434 3.71566 143.851 3.79541L144.104 3.84326C144.416 3.90251 144.652 4.021 144.811 4.19873C144.973 4.37646 145.054 4.60775 145.054 4.89258C145.054 5.27083 144.919 5.56706 144.65 5.78125C144.382 5.99316 144.008 6.09912 143.529 6.09912C143.34 6.09912 143.142 6.07861 142.935 6.0376C142.727 5.99886 142.503 5.93962 142.261 5.85986V5.21045C142.496 5.33122 142.72 5.42236 142.935 5.48389C143.149 5.54313 143.352 5.57275 143.543 5.57275C143.821 5.57275 144.036 5.51693 144.189 5.40527C144.342 5.29134 144.418 5.13298 144.418 4.93018C144.418 4.63851 144.139 4.43685 143.581 4.3252L143.553 4.31836L143.317 4.27051C142.955 4.19987 142.691 4.08138 142.524 3.91504C142.358 3.74642 142.275 3.51742 142.275 3.22803C142.275 2.86117 142.399 2.57861 142.647 2.38037C142.896 2.17985 143.25 2.07959 143.71 2.07959C143.916 2.07959 144.113 2.09896 144.302 2.1377C144.491 2.17415 144.677 2.22998 144.859 2.30518ZM147.85 1.08496V2.17188H149.278V2.66064H147.85V4.73877C147.85 5.02132 147.903 5.21842 148.01 5.33008C148.117 5.44173 148.304 5.49756 148.571 5.49756H149.278V6H148.509C148.038 6 147.705 5.90544 147.511 5.71631C147.318 5.52718 147.221 5.20133 147.221 4.73877V2.66064H146.199V2.17188H147.221V1.08496H147.85ZM152.901 4.76953C152.797 5.03613 152.663 5.38704 152.501 5.82227C152.276 6.42383 152.124 6.79069 152.047 6.92285C151.942 7.10059 151.811 7.23389 151.654 7.32275C151.497 7.41162 151.313 7.45605 151.104 7.45605H150.598V6.92969H150.97C151.155 6.92969 151.299 6.87614 151.404 6.76904C151.509 6.66195 151.642 6.38509 151.804 5.93848L150.324 2.17188H150.991L152.125 5.16602L153.243 2.17188H153.91L152.901 4.76953ZM156.644 4.61572C156.644 4.89827 156.695 5.11133 156.798 5.25488C156.903 5.39844 157.056 5.47021 157.259 5.47021H157.994V6H157.198C156.822 6 156.53 5.88037 156.323 5.64111C156.118 5.39958 156.015 5.05778 156.015 4.61572V1.15332H155.007V0.661133H156.644V4.61572ZM162.232 3.77148V4.0791H159.508V4.09961C159.49 4.62142 159.589 4.99626 159.806 5.22412C160.024 5.45199 160.332 5.56592 160.729 5.56592C160.929 5.56592 161.139 5.53402 161.357 5.47021C161.576 5.40641 161.81 5.30957 162.058 5.17969V5.80518C161.819 5.90316 161.588 5.97607 161.364 6.02393C161.143 6.07406 160.929 6.09912 160.722 6.09912C160.127 6.09912 159.662 5.92139 159.327 5.56592C158.992 5.20817 158.825 4.71598 158.825 4.08936C158.825 3.47868 158.989 2.99105 159.317 2.62646C159.645 2.26188 160.083 2.07959 160.629 2.07959C161.117 2.07959 161.501 2.24479 161.781 2.5752C162.064 2.9056 162.214 3.30436 162.232 3.77148ZM161.604 3.58691C161.576 3.32259 161.479 3.09473 161.313 2.90332C161.149 2.70964 160.912 2.61279 160.602 2.61279C160.299 2.61279 160.049 2.71305 159.854 2.91357C159.658 3.1141 159.55 3.33968 159.532 3.59033L161.604 3.58691ZM165.948 2.30518V2.92041C165.768 2.81559 165.587 2.73698 165.404 2.68457C165.222 2.63216 165.036 2.60596 164.847 2.60596C164.562 2.60596 164.349 2.65267 164.208 2.74609C164.069 2.83724 164 2.97738 164 3.1665C164 3.3374 164.052 3.46501 164.157 3.54932C164.262 3.63363 164.522 3.71566 164.939 3.79541L165.192 3.84326C165.505 3.90251 165.74 4.021 165.9 4.19873C166.062 4.37646 166.143 4.60775 166.143 4.89258C166.143 5.27083 166.008 5.56706 165.739 5.78125C165.47 5.99316 165.097 6.09912 164.618 6.09912C164.429 6.09912 164.231 6.07861 164.023 6.0376C163.816 5.99886 163.592 5.93962 163.35 5.85986V5.21045C163.585 5.33122 163.809 5.42236 164.023 5.48389C164.238 5.54313 164.44 5.57275 164.632 5.57275C164.91 5.57275 165.125 5.51693 165.278 5.40527C165.431 5.29134 165.507 5.13298 165.507 4.93018C165.507 4.63851 165.228 4.43685 164.669 4.3252L164.642 4.31836L164.406 4.27051C164.044 4.19987 163.78 4.08138 163.613 3.91504C163.447 3.74642 163.364 3.51742 163.364 3.22803C163.364 2.86117 163.488 2.57861 163.736 2.38037C163.985 2.17985 164.339 2.07959 164.799 2.07959C165.004 2.07959 165.201 2.09896 165.391 2.1377C165.58 2.17415 165.765 2.22998 165.948 2.30518ZM168.169 4.61914H169.373V6H168.169V4.61914ZM173.156 1.08496V2.17188H174.585V2.66064H173.156V4.73877C173.156 5.02132 173.21 5.21842 173.317 5.33008C173.424 5.44173 173.611 5.49756 173.877 5.49756H174.585V6H173.816C173.344 6 173.012 5.90544 172.818 5.71631C172.624 5.52718 172.527 5.20133 172.527 4.73877V2.66064H171.505V2.17188H172.527V1.08496H173.156ZM176.355 2.18555H177.965V5.51123H179.213V6H176.089V5.51123H177.336V2.67432H176.355V2.18555ZM177.336 0.69873H177.965V1.4917H177.336V0.69873ZM181.592 1.08496V2.17188H183.021V2.66064H181.592V4.73877C181.592 5.02132 181.645 5.21842 181.752 5.33008C181.86 5.44173 182.046 5.49756 182.313 5.49756H183.021V6H182.251C181.78 6 181.447 5.90544 181.253 5.71631C181.06 5.52718 180.963 5.20133 180.963 4.73877V2.66064H179.941V2.17188H180.963V1.08496H181.592ZM186.168 4.61572C186.168 4.89827 186.22 5.11133 186.322 5.25488C186.427 5.39844 186.581 5.47021 186.784 5.47021H187.519V6H186.722C186.346 6 186.055 5.88037 185.847 5.64111C185.642 5.39958 185.54 5.05778 185.54 4.61572V1.15332H184.531V0.661133H186.168V4.61572ZM191.757 3.77148V4.0791H189.033V4.09961C189.014 4.62142 189.114 4.99626 189.33 5.22412C189.549 5.45199 189.856 5.56592 190.253 5.56592C190.453 5.56592 190.663 5.53402 190.882 5.47021C191.101 5.40641 191.334 5.30957 191.583 5.17969V5.80518C191.343 5.90316 191.112 5.97607 190.889 6.02393C190.668 6.07406 190.453 6.09912 190.246 6.09912C189.651 6.09912 189.187 5.92139 188.852 5.56592C188.517 5.20817 188.349 4.71598 188.349 4.08936C188.349 3.47868 188.513 2.99105 188.841 2.62646C189.169 2.26188 189.607 2.07959 190.154 2.07959C190.641 2.07959 191.025 2.24479 191.306 2.5752C191.588 2.9056 191.739 3.30436 191.757 3.77148ZM191.128 3.58691C191.101 3.32259 191.004 3.09473 190.837 2.90332C190.673 2.70964 190.436 2.61279 190.126 2.61279C189.823 2.61279 189.574 2.71305 189.378 2.91357C189.182 3.1141 189.075 3.33968 189.057 3.59033L191.128 3.58691Z" fill="#FF9900"/>
</svg>
