<svg width="52" height="52" viewBox="0 0 52 52" fill="none" xmlns="http://www.w3.org/2000/svg">
<rect width="52" height="52" rx="16" fill="white" fill-opacity="0.3"/>
<g clip-path="url(#clip0_1099_64023)">
<path d="M34.7639 21.9438C34.4749 21.8447 34.1831 21.7517 33.8884 21.665C33.9377 21.4633 33.9827 21.265 34.0235 21.07C34.6865 17.8528 34.253 15.2611 32.7732 14.4077C31.3554 13.59 29.034 14.44 26.6906 16.48C26.4594 16.6812 26.2327 16.8883 26.0106 17.1014C25.8627 16.9597 25.7125 16.8209 25.5601 16.6849C23.1061 14.5072 20.6454 13.59 19.1655 14.44C17.7477 15.2645 17.3304 17.7006 17.9254 20.7504C17.9821 21.0525 18.0489 21.3528 18.126 21.6514C17.7775 21.75 17.4409 21.8554 17.1196 21.9676C14.2398 22.9715 12.4004 24.5457 12.4004 26.1777C12.4004 27.8632 14.3749 29.5539 17.3746 30.579C17.6177 30.6617 17.8628 30.7385 18.1098 30.8093C18.0294 31.1306 17.9583 31.4542 17.8965 31.78C17.3278 34.7763 17.7715 37.1554 19.1859 37.9706C20.6462 38.813 23.0959 37.9468 25.4836 35.8609C25.6774 35.6909 25.8667 35.5166 26.0514 35.3382C26.29 35.5688 26.535 35.7923 26.7866 36.0088C29.0986 37.9978 31.3817 38.8011 32.7936 37.9833C34.2522 37.1384 34.7265 34.5833 34.1111 31.474C34.0624 31.2304 34.008 30.9881 33.9479 30.7473C34.1179 30.6963 34.2879 30.6436 34.4579 30.5892C37.5714 29.5556 39.6004 27.8853 39.6004 26.1777C39.6004 24.5397 37.7023 22.9553 34.7639 21.9447V21.9438ZM34.0839 29.4859C33.9354 29.5352 33.783 29.5828 33.6266 29.6287C33.2464 28.4501 32.7863 27.2988 32.2496 26.1828C32.766 25.0817 33.2082 23.9472 33.573 22.787C33.8513 22.8675 34.1207 22.9525 34.3814 23.042C36.8982 23.9082 38.4342 25.19 38.4342 26.1768C38.4384 27.2291 36.7801 28.5942 34.0881 29.485L34.0839 29.4859ZM32.967 31.6959C33.2305 32.8742 33.2749 34.091 33.0979 35.2854C33.0729 35.6129 32.9809 35.9318 32.8277 36.2223C32.6744 36.5128 32.4632 36.7688 32.2071 36.9744C31.3503 37.4708 29.5168 36.8256 27.5397 35.1248C27.3063 34.9231 27.0796 34.7151 26.8597 34.5009C27.6839 33.5897 28.4455 32.6239 29.1394 31.61C30.379 31.5055 31.6099 31.3158 32.8233 31.0422C32.88 31.2604 32.929 31.4797 32.9704 31.7001L32.967 31.6959ZM21.6739 36.8928C21.3777 37.0345 21.0557 37.1139 20.7276 37.1262C20.3995 37.1384 20.0724 37.0833 19.7665 36.9642C18.9088 36.4695 18.5518 34.5587 19.038 31.9968C19.0947 31.6942 19.161 31.3933 19.2369 31.0941C20.4453 31.3536 21.6698 31.5308 22.9021 31.6245C23.6159 32.6361 24.3954 33.5998 25.2354 34.5094C25.0654 34.6726 24.8926 34.8318 24.7169 34.9871C23.8275 35.8037 22.7954 36.4497 21.6722 36.8928H21.6739ZM17.7503 29.4799C16.5984 29.1175 15.5231 28.5461 14.5781 27.7944C14.3075 27.6088 14.0779 27.3698 13.9033 27.092C13.7288 26.8143 13.613 26.5037 13.5632 26.1794C13.5632 25.1891 15.0396 23.926 17.5029 23.0667C17.8021 22.963 18.1149 22.8644 18.4379 22.7717C18.8037 23.9447 19.2467 25.0921 19.7639 26.2066C19.2403 27.3375 18.792 28.5017 18.4218 29.6916C18.1951 29.627 17.9713 29.557 17.7503 29.4816V29.4799ZM19.0652 20.5269C18.5552 17.9148 18.8952 15.9437 19.7452 15.449C20.6556 14.922 22.6675 15.6734 24.7883 17.5561C24.9266 17.6791 25.0626 17.8046 25.1963 17.9327C24.3615 18.8362 23.5874 19.7939 22.8792 20.7997C21.6584 20.9093 20.4461 21.0979 19.2497 21.3641C19.1806 21.0865 19.1182 20.8071 19.0627 20.526L19.0652 20.5269ZM30.7952 23.4237C30.5295 22.9641 30.2538 22.5108 29.9682 22.0637C30.836 22.1733 31.6682 22.3187 32.4485 22.4972C32.1979 23.2922 31.9074 24.074 31.5781 24.8398C31.3282 24.3627 31.0681 23.8909 30.7978 23.4245L30.7952 23.4237ZM26.0131 18.764C26.5794 19.3806 27.1142 20.0255 27.6154 20.696C26.5444 20.6456 25.4728 20.6456 24.4007 20.696C24.9277 19.999 25.4691 19.3513 26.0131 18.764ZM21.1979 23.4322C20.931 23.8952 20.676 24.3641 20.4329 24.8389C20.0929 24.0365 19.8047 23.2477 19.5684 22.4853C20.3445 22.3153 21.1724 22.1699 22.0334 22.0603C21.745 22.5102 21.4671 22.967 21.1996 23.4305L21.1979 23.4322ZM22.0564 30.3758C21.2145 30.2846 20.3778 30.1501 19.5497 29.9729C19.7903 29.1977 20.0861 28.3911 20.4312 27.5717C20.6771 28.0466 20.9341 28.5158 21.2021 28.9793C21.4781 29.4553 21.7629 29.9208 22.0564 30.3758ZM26.0454 33.673C25.4946 33.078 24.9455 32.4218 24.4092 31.718C24.93 31.7384 25.4604 31.7486 26.0004 31.7486C26.5546 31.7486 27.102 31.7364 27.6426 31.712C27.144 32.3925 26.6109 33.047 26.0454 33.673ZM31.5917 27.53C31.9372 28.3113 32.242 29.1099 32.5046 29.9228C31.667 30.1111 30.82 30.2555 29.9673 30.3554C30.2546 29.9021 30.5329 29.4408 30.802 28.9716C31.0712 28.5024 31.3341 28.0208 31.5908 27.5266L31.5917 27.53ZM29.7965 28.3911C29.3845 29.1068 28.9496 29.8086 28.4917 30.4965C27.6627 30.5532 26.8323 30.5815 26.0004 30.5815C25.1504 30.5815 24.331 30.5552 23.5354 30.5042C23.0656 29.8185 22.6225 29.1156 22.206 28.3953C21.7918 27.6796 21.405 26.9492 21.0457 26.204C21.4039 25.4589 21.7895 24.7279 22.2026 24.011C22.6157 23.2948 23.0554 22.5949 23.5218 21.9115C24.331 21.8503 25.1597 21.8189 25.9987 21.8189C26.841 21.8189 27.6715 21.8512 28.4798 21.9124C28.9411 22.5924 29.378 23.29 29.7905 24.0051C30.2031 24.7202 30.5938 25.4478 30.9627 26.1879C30.5995 26.9353 30.2099 27.6692 29.7939 28.3894L29.7965 28.3911ZM32.1935 15.4158C33.1047 15.9411 33.4583 18.0593 32.8862 20.8371C32.85 21.0145 32.8092 21.1947 32.7638 21.3777C31.5655 21.1061 30.3504 20.9141 29.1267 20.8031C28.427 19.7961 27.6603 18.8374 26.8317 17.9335C27.0357 17.7369 27.2442 17.5457 27.4573 17.3598C29.4658 15.6122 31.3418 14.922 32.1969 15.4158H32.1935ZM26.0004 23.7484C26.4807 23.7484 26.9502 23.8908 27.3496 24.1577C27.7489 24.4245 28.0602 24.8038 28.244 25.2475C28.4278 25.6913 28.4759 26.1795 28.3822 26.6506C28.2885 27.1217 28.0572 27.5544 27.7176 27.894C27.3779 28.2336 26.9452 28.4649 26.4742 28.5586C26.0031 28.6523 25.5148 28.6042 25.0711 28.4204C24.6273 28.2366 24.2481 27.9254 23.9812 27.526C23.7144 27.1267 23.5719 26.6571 23.5719 26.1768C23.5722 25.5329 23.8281 24.9153 24.2835 24.4599C24.7388 24.0045 25.3564 23.7486 26.0004 23.7484Z" fill="white" fill-opacity="0.7"/>
</g>
<defs>
<clipPath id="clip0_1099_64023">
<rect width="34" height="34" fill="white" transform="translate(9 9)"/>
</clipPath>
</defs>
</svg>
