<svg width="81" height="78" viewBox="0 0 81 78" fill="none" xmlns="http://www.w3.org/2000/svg">
<path d="M80.3937 73.3924C80.6111 73.175 80.6111 72.8225 80.3937 72.605L76.8506 69.0622C76.6331 68.8448 76.2806 68.8448 76.0632 69.0622C75.8458 69.2796 75.8458 69.6321 76.0633 69.8495L79.2127 72.9987L76.0635 76.1482C75.8461 76.3656 75.8461 76.7181 76.0635 76.9355C76.2809 77.1529 76.6334 77.1529 76.8508 76.9355L80.3937 73.3924ZM80.3642 5.38756C80.5783 5.16682 80.5728 4.81436 80.3521 4.60032L76.755 1.11231C76.5342 0.898272 76.1818 0.903699 75.9678 1.12444C75.7537 1.34517 75.7591 1.69763 75.9799 1.91167L79.1773 5.01212L76.0769 8.20955C75.8628 8.43029 75.8682 8.78274 76.089 8.99679C76.3097 9.21083 76.6622 9.2054 76.8762 8.98466L80.3642 5.38756ZM0.785801 5.86461L4.0189 9.0599L7.2142 5.82681L3.9811 2.63151L0.785801 5.86461ZM41.9975 5.58463L42.0061 6.14129L41.9975 5.58463ZM41.9971 65.0025L41.4404 65.0027L41.9971 65.0025ZM49.9974 73.5565L80 73.5555L80 72.442L49.9974 72.443L49.9974 73.5565ZM42.0061 6.14129L79.9731 5.55666L79.956 4.44334L41.9889 5.02797L42.0061 6.14129ZM42.5539 65.0023L42.5336 5.62221L41.4201 5.62259L41.4404 65.0027L42.5539 65.0023ZM41.9736 5.06568L3.99673 5.28899L4.00327 6.40242L41.9801 6.17911L41.9736 5.06568ZM41.9889 5.02797C41.5371 5.03493 41.2656 5.53198 41.5038 5.91591L42.4499 5.32888C42.6679 5.68016 42.4194 6.13493 42.0061 6.14129L41.9889 5.02797ZM49.9974 72.443C45.8875 72.4431 42.5553 69.1122 42.5539 65.0023L41.4404 65.0027C41.442 69.7274 45.2727 73.5566 49.9974 73.5565L49.9974 72.443Z" fill="white" fill-opacity="0.6"/>
</svg>
