<svg width="52" height="52" viewBox="0 0 52 52" fill="none" xmlns="http://www.w3.org/2000/svg">
<rect width="52" height="52" rx="16" fill="white" fill-opacity="0.3"/>
<path d="M28.2495 24.9486H30.6508C30.7065 24.9486 30.76 24.9265 30.7995 24.8871C30.839 24.8478 30.8614 24.7944 30.8616 24.7386V22.6009C30.8616 22.545 30.8394 22.4913 30.7998 22.4518C30.7603 22.4123 30.7067 22.3901 30.6508 22.3901H28.2495C28.1938 22.3901 28.1404 22.4122 28.1011 22.4516C28.0617 22.4909 28.0396 22.5443 28.0396 22.6V24.7395C28.0398 24.795 28.062 24.8482 28.1014 24.8874C28.1407 24.9266 28.194 24.9486 28.2495 24.9486ZM24.9014 18.7946H27.3018C27.3577 18.7946 27.4113 18.7724 27.4508 18.7328C27.4904 18.6933 27.5126 18.6397 27.5126 18.5838V16.4443C27.5124 16.3886 27.49 16.3352 27.4505 16.2958C27.411 16.2565 27.3575 16.2344 27.3018 16.2344H24.9014C24.8457 16.2344 24.7923 16.2565 24.7529 16.2959C24.7135 16.3352 24.6914 16.3886 24.6914 16.4443V18.5838C24.6913 18.6114 24.6967 18.6388 24.7072 18.6644C24.7177 18.69 24.7331 18.7132 24.7526 18.7328C24.7721 18.7524 24.7953 18.7679 24.8208 18.7785C24.8464 18.7891 24.8737 18.7946 24.9014 18.7946ZM24.9014 21.8716H27.3018C27.3576 21.8714 27.4111 21.8491 27.4506 21.8096C27.4901 21.7701 27.5124 21.7166 27.5126 21.6608V19.5222C27.5124 19.4664 27.49 19.413 27.4505 19.3737C27.411 19.3343 27.3575 19.3122 27.3018 19.3122H24.9014C24.8457 19.3122 24.7923 19.3343 24.7529 19.3737C24.7135 19.4131 24.6914 19.4665 24.6914 19.5222V21.6608C24.6914 21.7165 24.7135 21.77 24.7529 21.8095C24.7922 21.849 24.8456 21.8714 24.9014 21.8716ZM21.5804 21.8716H23.9834C24.0388 21.8709 24.0918 21.8484 24.1308 21.8089C24.1698 21.7695 24.1916 21.7162 24.1916 21.6608V19.5222C24.1916 19.4665 24.1695 19.4131 24.1301 19.3737C24.0908 19.3343 24.0374 19.3122 23.9817 19.3122H21.5796C21.5239 19.3122 21.4705 19.3343 21.4311 19.3737C21.3917 19.4131 21.3696 19.4665 21.3696 19.5222V21.6608C21.3699 21.7165 21.392 21.7698 21.4313 21.8093C21.4706 21.8487 21.5239 21.8711 21.5796 21.8716M18.2204 21.8716H20.6216C20.6774 21.8714 20.7308 21.849 20.7701 21.8095C20.8095 21.77 20.8316 21.7165 20.8316 21.6608V19.5222C20.8316 19.4665 20.8095 19.4131 20.7701 19.3737C20.7307 19.3343 20.6773 19.3122 20.6216 19.3122H18.2229C18.1672 19.3122 18.1137 19.3343 18.0742 19.3737C18.0347 19.413 18.0124 19.4664 18.0121 19.5222V21.6608C18.0126 21.7165 18.0349 21.7699 18.0744 21.8093C18.1138 21.8488 18.1672 21.8711 18.2229 21.8716H18.2204ZM24.8988 24.9486H27.2992C27.355 24.9486 27.4085 24.9265 27.448 24.8871C27.4875 24.8478 27.5098 24.7944 27.51 24.7386V22.6009C27.51 22.545 27.4878 22.4913 27.4483 22.4518C27.4088 22.4123 27.3551 22.3901 27.2992 22.3901H24.9014C24.8457 22.3901 24.7923 22.4122 24.7529 22.4516C24.7135 22.4909 24.6914 22.5443 24.6914 22.6V24.7395C24.6914 24.767 24.6969 24.7943 24.7074 24.8197C24.718 24.8451 24.7335 24.8682 24.753 24.8876C24.7725 24.9071 24.7956 24.9224 24.8211 24.9329C24.8466 24.9434 24.8738 24.9487 24.9014 24.9486H24.8988ZM21.5779 24.9486H23.9808C24.0362 24.9481 24.0892 24.9258 24.1282 24.8865C24.1672 24.8472 24.1891 24.794 24.1891 24.7386V22.6009C24.1893 22.5453 24.1675 22.492 24.1285 22.4525C24.0895 22.413 24.0364 22.3905 23.9808 22.3901H21.5796C21.5242 22.3905 21.4712 22.4128 21.4322 22.4522C21.3932 22.4915 21.3713 22.5446 21.3713 22.6V24.7395C21.3713 24.7952 21.3934 24.8486 21.4328 24.8879C21.4722 24.9273 21.5256 24.9494 21.5813 24.9494M18.2221 24.9494H20.6233C20.679 24.9494 20.7324 24.9273 20.7718 24.8879C20.8112 24.8486 20.8333 24.7952 20.8333 24.7395V22.6009C20.8335 22.5453 20.8117 22.492 20.7727 22.4525C20.7337 22.413 20.6806 22.3905 20.625 22.3901H18.2229C18.1952 22.3901 18.1678 22.3955 18.1423 22.4061C18.1167 22.4167 18.0934 22.4322 18.0739 22.4518C18.0543 22.4714 18.0388 22.4946 18.0282 22.5202C18.0176 22.5458 18.0121 22.5732 18.0121 22.6009V24.7395C18.0126 24.7951 18.035 24.8483 18.0745 24.8874C18.114 24.9266 18.1673 24.9486 18.2229 24.9486L18.2221 24.9494ZM14.913 24.9494H17.316C17.3714 24.949 17.4243 24.9267 17.4633 24.8873C17.5023 24.848 17.5242 24.7949 17.5242 24.7395V22.6009C17.5245 22.5453 17.5027 22.492 17.4636 22.4525C17.4246 22.413 17.3715 22.3905 17.316 22.3901H14.9139C14.8585 22.3905 14.8055 22.4128 14.7665 22.4522C14.7275 22.4915 14.7056 22.5446 14.7056 22.6V24.7395C14.7055 24.7669 14.7108 24.7941 14.7212 24.8194C14.7317 24.8448 14.747 24.8679 14.7663 24.8873C14.7857 24.9067 14.8087 24.9221 14.834 24.9326C14.8593 24.9432 14.8865 24.9486 14.9139 24.9486L14.913 24.9494ZM39.3335 23.6022C38.6773 23.1752 37.9004 22.9724 37.1193 23.0242C36.7356 23.0253 36.3526 23.0583 35.9743 23.1228C35.8738 22.5283 35.6486 21.9618 35.3133 21.4606C34.9781 20.9594 34.5406 20.5348 34.0295 20.2149L33.6394 19.9897L33.3844 20.3603C33.0629 20.8573 32.8283 21.4055 32.6908 21.9812C32.5566 22.4884 32.5279 23.0177 32.6065 23.5364C32.685 24.0551 32.869 24.5522 33.1472 24.997C32.5252 25.2813 31.8542 25.4429 31.171 25.473H13.2496C13.0241 25.473 12.8079 25.5626 12.6485 25.722C12.4891 25.8814 12.3996 26.0976 12.3996 26.323C12.3787 27.8925 12.6446 29.4526 13.1841 30.9266C13.6728 32.3793 14.6359 33.6254 15.9186 34.4643C17.7673 35.4009 19.8263 35.8447 21.8966 35.7529C23.0106 35.7563 24.1224 35.6552 25.2176 35.4512C26.7403 35.1719 28.2055 34.6398 29.5526 33.877C30.6625 33.2345 31.6613 32.4171 32.5106 31.4562C33.759 29.9763 34.7373 28.2882 35.4006 26.4692H35.6513C36.2083 26.4916 36.7641 26.4019 37.2858 26.2055C37.8075 26.0092 38.2844 25.7101 38.6884 25.326C39.0387 24.9938 39.3123 24.5891 39.4899 24.1402L39.6013 23.8138L39.3335 23.6022Z" fill="white" fill-opacity="0.7"/>
</svg>
