<svg width="80" height="9" viewBox="0 0 80 9" fill="none" xmlns="http://www.w3.org/2000/svg">
<path d="M0.016642 4.37725L2.99444 7.36617L5.98336 4.38838L3.00556 1.39945L0.016642 4.37725ZM79.3646 4.89063C79.5667 4.68921 79.5674 4.36203 79.3659 4.15986L76.0836 0.86526C75.8822 0.663087 75.555 0.662477 75.3528 0.863897C75.1507 1.06532 75.1501 1.39249 75.3515 1.59467L78.2691 4.5232L75.3406 7.44083C75.1384 7.64225 75.1378 7.96943 75.3392 8.1716C75.5406 8.37377 75.8678 8.37439 76.07 8.17296L79.3646 4.89063ZM2.99904 4.89955L78.9989 5.0413L79.0008 4.00783L3.00096 3.86608L2.99904 4.89955Z" fill="white" fill-opacity="0.6"/>
</svg>
