<svg width="210" height="114" viewBox="0 0 210 114" fill="none" xmlns="http://www.w3.org/2000/svg">
<path d="M1.06268 102.5V94.1H4.69868C5.45068 94.1 6.09868 94.224 6.64268 94.472C7.18668 94.712 7.60668 95.06 7.90268 95.516C8.19868 95.972 8.34668 96.516 8.34668 97.148C8.34668 97.772 8.19868 98.312 7.90268 98.768C7.60668 99.224 7.18668 99.576 6.64268 99.824C6.09868 100.064 5.45068 100.184 4.69868 100.184H2.14268L3.00668 99.308V102.5H1.06268ZM3.00668 99.524L2.14268 98.6H4.59068C5.19068 98.6 5.63868 98.472 5.93468 98.216C6.23068 97.96 6.37868 97.604 6.37868 97.148C6.37868 96.684 6.23068 96.324 5.93468 96.068C5.63868 95.812 5.19068 95.684 4.59068 95.684H2.14268L3.00668 94.76V99.524ZM10.34 102.5V96.044H12.128V97.868L11.876 97.34C12.068 96.884 12.376 96.54 12.8 96.308C13.224 96.068 13.74 95.948 14.348 95.948V97.676C14.268 97.668 14.196 97.664 14.132 97.664C14.068 97.656 14 97.652 13.928 97.652C13.416 97.652 13 97.8 12.68 98.096C12.368 98.384 12.212 98.836 12.212 99.452V102.5H10.34ZM19.3674 102.596C18.6314 102.596 17.9834 102.452 17.4234 102.164C16.8714 101.876 16.4434 101.484 16.1394 100.988C15.8354 100.484 15.6834 99.912 15.6834 99.272C15.6834 98.624 15.8314 98.052 16.1274 97.556C16.4314 97.052 16.8434 96.66 17.3634 96.38C17.8834 96.092 18.4714 95.948 19.1274 95.948C19.7594 95.948 20.3274 96.084 20.8314 96.356C21.3434 96.62 21.7474 97.004 22.0434 97.508C22.3394 98.004 22.4874 98.6 22.4874 99.296C22.4874 99.368 22.4834 99.452 22.4754 99.548C22.4674 99.636 22.4594 99.72 22.4514 99.8H17.2074V98.708H21.4674L20.7474 99.032C20.7474 98.696 20.6794 98.404 20.5434 98.156C20.4074 97.908 20.2194 97.716 19.9794 97.58C19.7394 97.436 19.4594 97.364 19.1394 97.364C18.8194 97.364 18.5354 97.436 18.2874 97.58C18.0474 97.716 17.8594 97.912 17.7234 98.168C17.5874 98.416 17.5194 98.712 17.5194 99.056V99.344C17.5194 99.696 17.5954 100.008 17.7474 100.28C17.9074 100.544 18.1274 100.748 18.4074 100.892C18.6954 101.028 19.0314 101.096 19.4154 101.096C19.7594 101.096 20.0594 101.044 20.3154 100.94C20.5794 100.836 20.8194 100.68 21.0354 100.472L22.0314 101.552C21.7354 101.888 21.3634 102.148 20.9154 102.332C20.4674 102.508 19.9514 102.596 19.3674 102.596ZM24.7109 102.5V95.9C24.7109 95.172 24.9269 94.592 25.3589 94.16C25.7909 93.72 26.4069 93.5 27.2069 93.5C27.4789 93.5 27.7389 93.528 27.9869 93.584C28.2429 93.64 28.4589 93.728 28.6349 93.848L28.1429 95.204C28.0389 95.132 27.9229 95.076 27.7949 95.036C27.6669 94.996 27.5309 94.976 27.3869 94.976C27.1149 94.976 26.9029 95.056 26.7509 95.216C26.6069 95.368 26.5349 95.6 26.5349 95.912V96.512L26.5829 97.316V102.5H24.7109ZM23.7149 97.628V96.188H28.1909V97.628H23.7149ZM32.9946 102.596C32.2586 102.596 31.6106 102.452 31.0506 102.164C30.4986 101.876 30.0706 101.484 29.7666 100.988C29.4626 100.484 29.3106 99.912 29.3106 99.272C29.3106 98.624 29.4586 98.052 29.7546 97.556C30.0586 97.052 30.4706 96.66 30.9906 96.38C31.5106 96.092 32.0986 95.948 32.7546 95.948C33.3866 95.948 33.9546 96.084 34.4586 96.356C34.9706 96.62 35.3746 97.004 35.6706 97.508C35.9666 98.004 36.1146 98.6 36.1146 99.296C36.1146 99.368 36.1106 99.452 36.1026 99.548C36.0946 99.636 36.0866 99.72 36.0786 99.8H30.8346V98.708H35.0946L34.3746 99.032C34.3746 98.696 34.3066 98.404 34.1706 98.156C34.0346 97.908 33.8466 97.716 33.6066 97.58C33.3666 97.436 33.0866 97.364 32.7666 97.364C32.4466 97.364 32.1626 97.436 31.9146 97.58C31.6746 97.716 31.4866 97.912 31.3506 98.168C31.2146 98.416 31.1466 98.712 31.1466 99.056V99.344C31.1466 99.696 31.2226 100.008 31.3746 100.28C31.5346 100.544 31.7546 100.748 32.0346 100.892C32.3226 101.028 32.6586 101.096 33.0426 101.096C33.3866 101.096 33.6866 101.044 33.9426 100.94C34.2066 100.836 34.4466 100.68 34.6626 100.472L35.6586 101.552C35.3626 101.888 34.9906 102.148 34.5426 102.332C34.0946 102.508 33.5786 102.596 32.9946 102.596ZM38.1101 102.5V96.044H39.8981V97.868L39.6461 97.34C39.8381 96.884 40.1461 96.54 40.5701 96.308C40.9941 96.068 41.5101 95.948 42.1181 95.948V97.676C42.0381 97.668 41.9661 97.664 41.9021 97.664C41.8381 97.656 41.7701 97.652 41.6981 97.652C41.1861 97.652 40.7701 97.8 40.4501 98.096C40.1381 98.384 39.9821 98.836 39.9821 99.452V102.5H38.1101ZM47.1375 102.596C46.4015 102.596 45.7535 102.452 45.1935 102.164C44.6415 101.876 44.2135 101.484 43.9095 100.988C43.6055 100.484 43.4535 99.912 43.4535 99.272C43.4535 98.624 43.6015 98.052 43.8975 97.556C44.2015 97.052 44.6135 96.66 45.1335 96.38C45.6535 96.092 46.2415 95.948 46.8975 95.948C47.5295 95.948 48.0975 96.084 48.6015 96.356C49.1135 96.62 49.5175 97.004 49.8135 97.508C50.1095 98.004 50.2575 98.6 50.2575 99.296C50.2575 99.368 50.2535 99.452 50.2455 99.548C50.2375 99.636 50.2295 99.72 50.2215 99.8H44.9775V98.708H49.2375L48.5175 99.032C48.5175 98.696 48.4495 98.404 48.3135 98.156C48.1775 97.908 47.9895 97.716 47.7495 97.58C47.5095 97.436 47.2295 97.364 46.9095 97.364C46.5895 97.364 46.3055 97.436 46.0575 97.58C45.8175 97.716 45.6295 97.912 45.4935 98.168C45.3575 98.416 45.2895 98.712 45.2895 99.056V99.344C45.2895 99.696 45.3655 100.008 45.5175 100.28C45.6775 100.544 45.8975 100.748 46.1775 100.892C46.4655 101.028 46.8015 101.096 47.1855 101.096C47.5295 101.096 47.8295 101.044 48.0855 100.94C48.3495 100.836 48.5895 100.68 48.8055 100.472L49.8015 101.552C49.5055 101.888 49.1335 102.148 48.6855 102.332C48.2375 102.508 47.7215 102.596 47.1375 102.596ZM56.177 95.948C56.689 95.948 57.145 96.052 57.545 96.26C57.953 96.46 58.273 96.772 58.505 97.196C58.737 97.612 58.853 98.148 58.853 98.804V102.5H56.981V99.092C56.981 98.572 56.865 98.188 56.633 97.94C56.409 97.692 56.089 97.568 55.673 97.568C55.377 97.568 55.109 97.632 54.869 97.76C54.637 97.88 54.453 98.068 54.317 98.324C54.189 98.58 54.125 98.908 54.125 99.308V102.5H52.253V96.044H54.041V97.832L53.705 97.292C53.937 96.86 54.269 96.528 54.701 96.296C55.133 96.064 55.625 95.948 56.177 95.948ZM64.4659 102.596C63.7699 102.596 63.1499 102.456 62.6059 102.176C62.0619 101.888 61.6339 101.492 61.3219 100.988C61.0179 100.484 60.8659 99.912 60.8659 99.272C60.8659 98.624 61.0179 98.052 61.3219 97.556C61.6339 97.052 62.0619 96.66 62.6059 96.38C63.1499 96.092 63.7699 95.948 64.4659 95.948C65.1459 95.948 65.7379 96.092 66.2419 96.38C66.7459 96.66 67.1179 97.064 67.3579 97.592L65.9059 98.372C65.7379 98.068 65.5259 97.844 65.2699 97.7C65.0219 97.556 64.7499 97.484 64.4539 97.484C64.1339 97.484 63.8459 97.556 63.5899 97.7C63.3339 97.844 63.1299 98.048 62.9779 98.312C62.8339 98.576 62.7619 98.896 62.7619 99.272C62.7619 99.648 62.8339 99.968 62.9779 100.232C63.1299 100.496 63.3339 100.7 63.5899 100.844C63.8459 100.988 64.1339 101.06 64.4539 101.06C64.7499 101.06 65.0219 100.992 65.2699 100.856C65.5259 100.712 65.7379 100.484 65.9059 100.172L67.3579 100.964C67.1179 101.484 66.7459 101.888 66.2419 102.176C65.7379 102.456 65.1459 102.596 64.4659 102.596ZM72.3068 102.596C71.5708 102.596 70.9228 102.452 70.3628 102.164C69.8108 101.876 69.3828 101.484 69.0788 100.988C68.7748 100.484 68.6228 99.912 68.6228 99.272C68.6228 98.624 68.7708 98.052 69.0668 97.556C69.3708 97.052 69.7828 96.66 70.3028 96.38C70.8228 96.092 71.4108 95.948 72.0668 95.948C72.6988 95.948 73.2668 96.084 73.7708 96.356C74.2828 96.62 74.6868 97.004 74.9828 97.508C75.2788 98.004 75.4268 98.6 75.4268 99.296C75.4268 99.368 75.4228 99.452 75.4148 99.548C75.4068 99.636 75.3988 99.72 75.3908 99.8H70.1468V98.708H74.4068L73.6868 99.032C73.6868 98.696 73.6188 98.404 73.4828 98.156C73.3468 97.908 73.1588 97.716 72.9188 97.58C72.6788 97.436 72.3988 97.364 72.0788 97.364C71.7588 97.364 71.4748 97.436 71.2268 97.58C70.9868 97.716 70.7988 97.912 70.6628 98.168C70.5268 98.416 70.4588 98.712 70.4588 99.056V99.344C70.4588 99.696 70.5348 100.008 70.6868 100.28C70.8468 100.544 71.0668 100.748 71.3468 100.892C71.6348 101.028 71.9708 101.096 72.3548 101.096C72.6988 101.096 72.9988 101.044 73.2548 100.94C73.5188 100.836 73.7588 100.68 73.9748 100.472L74.9708 101.552C74.6748 101.888 74.3028 102.148 73.8548 102.332C73.4068 102.508 72.8908 102.596 72.3068 102.596ZM79.5943 102.596C79.0423 102.596 78.5103 102.532 77.9983 102.404C77.4943 102.268 77.0943 102.1 76.7983 101.9L77.4223 100.556C77.7183 100.74 78.0663 100.892 78.4663 101.012C78.8743 101.124 79.2743 101.18 79.6663 101.18C80.0983 101.18 80.4023 101.128 80.5783 101.024C80.7623 100.92 80.8543 100.776 80.8543 100.592C80.8543 100.44 80.7823 100.328 80.6383 100.256C80.5023 100.176 80.3183 100.116 80.0863 100.076C79.8543 100.036 79.5983 99.996 79.3183 99.956C79.0463 99.916 78.7703 99.864 78.4903 99.8C78.2103 99.728 77.9543 99.624 77.7223 99.488C77.4903 99.352 77.3023 99.168 77.1583 98.936C77.0223 98.704 76.9543 98.404 76.9543 98.036C76.9543 97.628 77.0703 97.268 77.3023 96.956C77.5423 96.644 77.8863 96.4 78.3343 96.224C78.7823 96.04 79.3183 95.948 79.9423 95.948C80.3823 95.948 80.8303 95.996 81.2863 96.092C81.7423 96.188 82.1223 96.328 82.4263 96.512L81.8023 97.844C81.4903 97.66 81.1743 97.536 80.8543 97.472C80.5423 97.4 80.2383 97.364 79.9423 97.364C79.5263 97.364 79.2223 97.42 79.0303 97.532C78.8383 97.644 78.7423 97.788 78.7423 97.964C78.7423 98.124 78.8103 98.244 78.9463 98.324C79.0903 98.404 79.2783 98.468 79.5103 98.516C79.7423 98.564 79.9943 98.608 80.2663 98.648C80.5463 98.68 80.8263 98.732 81.1063 98.804C81.3863 98.876 81.6383 98.98 81.8623 99.116C82.0943 99.244 82.2823 99.424 82.4263 99.656C82.5703 99.88 82.6423 100.176 82.6423 100.544C82.6423 100.944 82.5223 101.3 82.2823 101.612C82.0423 101.916 81.6943 102.156 81.2383 102.332C80.7903 102.508 80.2423 102.596 79.5943 102.596Z" fill="#474E65" fill-opacity="0.8"/>
<rect x="99.8562" y="82.8562" width="109.288" height="30.2876" rx="15.1438" fill="#FC3868"/>
<rect x="99.8562" y="82.8562" width="109.288" height="30.2876" rx="15.1438" stroke="#FC3868" stroke-width="1.71238"/>
<path d="M116.278 102V93.6H117.886L122.842 99.648H122.062V93.6H123.982V102H122.386L117.418 95.952H118.198V102H116.278ZM129.79 102.096C129.054 102.096 128.406 101.952 127.846 101.664C127.294 101.376 126.866 100.984 126.562 100.488C126.258 99.984 126.106 99.412 126.106 98.772C126.106 98.124 126.254 97.552 126.55 97.056C126.854 96.552 127.266 96.16 127.786 95.88C128.306 95.592 128.894 95.448 129.55 95.448C130.182 95.448 130.75 95.584 131.254 95.856C131.766 96.12 132.17 96.504 132.466 97.008C132.762 97.504 132.91 98.1 132.91 98.796C132.91 98.868 132.906 98.952 132.898 99.048C132.89 99.136 132.882 99.22 132.874 99.3H127.63V98.208H131.89L131.17 98.532C131.17 98.196 131.102 97.904 130.966 97.656C130.83 97.408 130.642 97.216 130.402 97.08C130.162 96.936 129.882 96.864 129.562 96.864C129.242 96.864 128.958 96.936 128.71 97.08C128.47 97.216 128.282 97.412 128.146 97.668C128.01 97.916 127.942 98.212 127.942 98.556V98.844C127.942 99.196 128.018 99.508 128.17 99.78C128.33 100.044 128.55 100.248 128.83 100.392C129.118 100.528 129.454 100.596 129.838 100.596C130.182 100.596 130.482 100.544 130.738 100.44C131.002 100.336 131.242 100.18 131.458 99.972L132.454 101.052C132.158 101.388 131.786 101.648 131.338 101.832C130.89 102.008 130.374 102.096 129.79 102.096ZM136.264 102L133.936 95.544H135.7L137.632 101.1H136.792L138.808 95.544H140.392L142.348 101.1H141.508L143.5 95.544H145.156L142.816 102H141.004L139.288 97.236H139.84L138.064 102H136.264ZM150.923 102V93.096H152.795V102H150.923ZM155.282 102V95.544H157.154V102H155.282ZM156.218 94.644C155.874 94.644 155.594 94.544 155.378 94.344C155.162 94.144 155.054 93.896 155.054 93.6C155.054 93.304 155.162 93.056 155.378 92.856C155.594 92.656 155.874 92.556 156.218 92.556C156.562 92.556 156.842 92.652 157.058 92.844C157.274 93.028 157.382 93.268 157.382 93.564C157.382 93.876 157.274 94.136 157.058 94.344C156.85 94.544 156.57 94.644 156.218 94.644ZM161.813 102.096C161.261 102.096 160.729 102.032 160.217 101.904C159.713 101.768 159.313 101.6 159.017 101.4L159.641 100.056C159.937 100.24 160.285 100.392 160.685 100.512C161.093 100.624 161.493 100.68 161.885 100.68C162.317 100.68 162.621 100.628 162.797 100.524C162.981 100.42 163.073 100.276 163.073 100.092C163.073 99.94 163.001 99.828 162.857 99.756C162.721 99.676 162.537 99.616 162.305 99.576C162.073 99.536 161.817 99.496 161.537 99.456C161.265 99.416 160.989 99.364 160.709 99.3C160.429 99.228 160.173 99.124 159.941 98.988C159.709 98.852 159.521 98.668 159.377 98.436C159.241 98.204 159.173 97.904 159.173 97.536C159.173 97.128 159.289 96.768 159.521 96.456C159.761 96.144 160.105 95.9 160.553 95.724C161.001 95.54 161.537 95.448 162.161 95.448C162.601 95.448 163.049 95.496 163.505 95.592C163.961 95.688 164.341 95.828 164.645 96.012L164.021 97.344C163.709 97.16 163.393 97.036 163.073 96.972C162.761 96.9 162.457 96.864 162.161 96.864C161.745 96.864 161.441 96.92 161.249 97.032C161.057 97.144 160.961 97.288 160.961 97.464C160.961 97.624 161.029 97.744 161.165 97.824C161.309 97.904 161.497 97.968 161.729 98.016C161.961 98.064 162.213 98.108 162.485 98.148C162.765 98.18 163.045 98.232 163.325 98.304C163.605 98.376 163.857 98.48 164.081 98.616C164.313 98.744 164.501 98.924 164.645 99.156C164.789 99.38 164.861 99.676 164.861 100.044C164.861 100.444 164.741 100.8 164.501 101.112C164.261 101.416 163.913 101.656 163.457 101.832C163.009 102.008 162.461 102.096 161.813 102.096ZM169.405 102.096C168.645 102.096 168.053 101.904 167.629 101.52C167.205 101.128 166.993 100.548 166.993 99.78V94.116H168.865V99.756C168.865 100.028 168.937 100.24 169.081 100.392C169.225 100.536 169.421 100.608 169.669 100.608C169.965 100.608 170.217 100.528 170.425 100.368L170.929 101.688C170.737 101.824 170.505 101.928 170.233 102C169.969 102.064 169.693 102.096 169.405 102.096ZM165.997 97.128V95.688H170.473V97.128H165.997ZM172.729 102V95.544H174.601V102H172.729ZM173.665 94.644C173.321 94.644 173.041 94.544 172.825 94.344C172.609 94.144 172.501 93.896 172.501 93.6C172.501 93.304 172.609 93.056 172.825 92.856C173.041 92.656 173.321 92.556 173.665 92.556C174.009 92.556 174.289 92.652 174.505 92.844C174.721 93.028 174.829 93.268 174.829 93.564C174.829 93.876 174.721 94.136 174.505 94.344C174.297 94.544 174.017 94.644 173.665 94.644ZM181.011 95.448C181.523 95.448 181.979 95.552 182.379 95.76C182.787 95.96 183.107 96.272 183.339 96.696C183.571 97.112 183.687 97.648 183.687 98.304V102H181.815V98.592C181.815 98.072 181.699 97.688 181.467 97.44C181.243 97.192 180.923 97.068 180.507 97.068C180.211 97.068 179.943 97.132 179.703 97.26C179.471 97.38 179.287 97.568 179.151 97.824C179.023 98.08 178.959 98.408 178.959 98.808V102H177.087V95.544H178.875V97.332L178.539 96.792C178.771 96.36 179.103 96.028 179.535 95.796C179.967 95.564 180.459 95.448 181.011 95.448ZM189.216 104.424C188.608 104.424 188.02 104.348 187.452 104.196C186.892 104.052 186.424 103.832 186.048 103.536L186.792 102.192C187.064 102.416 187.408 102.592 187.824 102.72C188.248 102.856 188.664 102.924 189.072 102.924C189.736 102.924 190.216 102.776 190.512 102.48C190.816 102.184 190.968 101.744 190.968 101.16V100.188L191.088 98.568L191.064 96.936V95.544H192.84V100.92C192.84 102.12 192.528 103.004 191.904 103.572C191.28 104.14 190.384 104.424 189.216 104.424ZM188.928 101.688C188.328 101.688 187.784 101.56 187.296 101.304C186.816 101.04 186.428 100.676 186.132 100.212C185.844 99.74 185.7 99.192 185.7 98.568C185.7 97.936 185.844 97.388 186.132 96.924C186.428 96.452 186.816 96.088 187.296 95.832C187.784 95.576 188.328 95.448 188.928 95.448C189.472 95.448 189.952 95.56 190.368 95.784C190.784 96 191.108 96.34 191.34 96.804C191.572 97.26 191.688 97.848 191.688 98.568C191.688 99.28 191.572 99.868 191.34 100.332C191.108 100.788 190.784 101.128 190.368 101.352C189.952 101.576 189.472 101.688 188.928 101.688ZM189.3 100.152C189.628 100.152 189.92 100.088 190.176 99.96C190.432 99.824 190.632 99.636 190.776 99.396C190.92 99.156 190.992 98.88 190.992 98.568C190.992 98.248 190.92 97.972 190.776 97.74C190.632 97.5 190.432 97.316 190.176 97.188C189.92 97.052 189.628 96.984 189.3 96.984C188.972 96.984 188.68 97.052 188.424 97.188C188.168 97.316 187.964 97.5 187.812 97.74C187.668 97.972 187.596 98.248 187.596 98.568C187.596 98.88 187.668 99.156 187.812 99.396C187.964 99.636 188.168 99.824 188.424 99.96C188.68 100.088 188.972 100.152 189.3 100.152Z" fill="white"/>
<path d="M4.332 18V7.208H0.076V4.7H11.666V7.208H7.41V18H4.332ZM17.0093 10.058H23.4123V12.452H17.0093V10.058ZM17.2373 15.53H24.4763V18H14.1783V4.7H24.2293V7.17H17.2373V15.53ZM30.5366 18V7.208H26.2806V4.7H37.8706V7.208H33.6146V18H30.5366ZM40.3829 18V4.7H46.1399C47.3305 4.7 48.3565 4.89633 49.2179 5.289C50.0792 5.669 50.7442 6.22 51.2129 6.942C51.6815 7.664 51.9159 8.52533 51.9159 9.526C51.9159 10.514 51.6815 11.369 51.2129 12.091C50.7442 12.8003 50.0792 13.345 49.2179 13.725C48.3565 14.105 47.3305 14.295 46.1399 14.295H42.0929L43.4609 12.946V18H40.3829ZM48.8379 18L45.5129 13.174H48.7999L52.1629 18H48.8379ZM43.4609 13.288L42.0929 11.844H45.9689C46.9189 11.844 47.6282 11.6413 48.0969 11.236C48.5655 10.818 48.7999 10.248 48.7999 9.526C48.7999 8.79133 48.5655 8.22133 48.0969 7.816C47.6282 7.41067 46.9189 7.208 45.9689 7.208H42.0929L43.4609 5.745V13.288ZM67.8128 18.228C66.7868 18.228 65.8304 18.0633 64.9438 17.734C64.0698 17.392 63.3098 16.9107 62.6638 16.29C62.0178 15.6693 61.5111 14.941 61.1438 14.105C60.7891 13.269 60.6118 12.3507 60.6118 11.35C60.6118 10.3493 60.7891 9.431 61.1438 8.595C61.5111 7.759 62.0178 7.03067 62.6638 6.41C63.3224 5.78933 64.0888 5.31433 64.9628 4.985C65.8368 4.643 66.7931 4.472 67.8318 4.472C68.9844 4.472 70.0231 4.67467 70.9478 5.08C71.8851 5.47267 72.6704 6.05533 73.3038 6.828L71.3278 8.652C70.8718 8.13267 70.3651 7.74633 69.8078 7.493C69.2504 7.227 68.6424 7.094 67.9838 7.094C67.3631 7.094 66.7931 7.19533 66.2738 7.398C65.7544 7.60067 65.3048 7.892 64.9248 8.272C64.5448 8.652 64.2471 9.10167 64.0318 9.621C63.8291 10.1403 63.7278 10.7167 63.7278 11.35C63.7278 11.9833 63.8291 12.5597 64.0318 13.079C64.2471 13.5983 64.5448 14.048 64.9248 14.428C65.3048 14.808 65.7544 15.0993 66.2738 15.302C66.7931 15.5047 67.3631 15.606 67.9838 15.606C68.6424 15.606 69.2504 15.4793 69.8078 15.226C70.3651 14.96 70.8718 14.561 71.3278 14.029L73.3038 15.853C72.6704 16.6257 71.8851 17.2147 70.9478 17.62C70.0231 18.0253 68.9781 18.228 67.8128 18.228ZM80.541 18.152C79.4517 18.152 78.4827 17.924 77.634 17.468C76.798 17.012 76.133 16.3913 75.639 15.606C75.1577 14.808 74.917 13.9023 74.917 12.889C74.917 11.863 75.1577 10.9573 75.639 10.172C76.133 9.374 76.798 8.75333 77.634 8.31C78.4827 7.854 79.4517 7.626 80.541 7.626C81.6177 7.626 82.5803 7.854 83.429 8.31C84.2777 8.75333 84.9427 9.36767 85.424 10.153C85.9053 10.9383 86.146 11.8503 86.146 12.889C86.146 13.9023 85.9053 14.808 85.424 15.606C84.9427 16.3913 84.2777 17.012 83.429 17.468C82.5803 17.924 81.6177 18.152 80.541 18.152ZM80.541 15.72C81.035 15.72 81.4783 15.606 81.871 15.378C82.2637 15.15 82.574 14.827 82.802 14.409C83.03 13.9783 83.144 13.4717 83.144 12.889C83.144 12.2937 83.03 11.787 82.802 11.369C82.574 10.951 82.2637 10.628 81.871 10.4C81.4783 10.172 81.035 10.058 80.541 10.058C80.047 10.058 79.6037 10.172 79.211 10.4C78.8183 10.628 78.5017 10.951 78.261 11.369C78.033 11.787 77.919 12.2937 77.919 12.889C77.919 13.4717 78.033 13.9783 78.261 14.409C78.5017 14.827 78.8183 15.15 79.211 15.378C79.6037 15.606 80.047 15.72 80.541 15.72ZM88.9834 18V7.778H91.9474V18H88.9834ZM90.4654 6.353C89.9207 6.353 89.4774 6.19467 89.1354 5.878C88.7934 5.56133 88.6224 5.16867 88.6224 4.7C88.6224 4.23133 88.7934 3.83867 89.1354 3.522C89.4774 3.20533 89.9207 3.047 90.4654 3.047C91.01 3.047 91.4534 3.199 91.7954 3.503C92.1374 3.79433 92.3084 4.17433 92.3084 4.643C92.3084 5.137 92.1374 5.54867 91.7954 5.878C91.466 6.19467 91.0227 6.353 90.4654 6.353ZM101.767 7.626C102.578 7.626 103.3 7.79067 103.933 8.12C104.579 8.43667 105.086 8.93067 105.453 9.602C105.821 10.2607 106.004 11.1093 106.004 12.148V18H103.04V12.604C103.04 11.7807 102.857 11.1727 102.489 10.78C102.135 10.3873 101.628 10.191 100.969 10.191C100.501 10.191 100.076 10.2923 99.6964 10.495C99.3291 10.685 99.0378 10.9827 98.8224 11.388C98.6198 11.7933 98.5184 12.3127 98.5184 12.946V18H95.5544V7.778H98.3854V10.609L97.8534 9.754C98.2208 9.07 98.7464 8.54433 99.4304 8.177C100.114 7.80967 100.893 7.626 101.767 7.626Z" fill="#474E65"/>
<path d="M6.2082 34.9691C5.60117 34.9691 5.05435 35.0744 4.56773 35.2851C4.08612 35.4908 3.67475 35.7918 3.33361 36.1881C2.99749 36.5794 2.73913 37.0535 2.55853 37.6104C2.37793 38.1672 2.28763 38.7943 2.28763 39.4916C2.28763 40.4147 2.4306 41.2174 2.71656 41.8997C3.00753 42.5769 3.43896 43.1012 4.01087 43.4724C4.58779 43.8436 5.30769 44.0293 6.17057 44.0293C6.66221 44.0293 7.12375 43.9891 7.55519 43.9089C7.99164 43.8236 8.41555 43.7182 8.82693 43.5928V44.7065C8.42559 44.857 8.00418 44.9674 7.56271 45.0376C7.12124 45.1129 6.59699 45.1505 5.98997 45.1505C4.87124 45.1505 3.93562 44.9197 3.18311 44.4582C2.43562 43.9916 1.87375 43.3344 1.49749 42.4866C1.12625 41.6388 0.940636 40.638 0.940636 39.4841C0.940636 38.6513 1.05602 37.8913 1.28679 37.204C1.52258 36.5117 1.86371 35.9147 2.3102 35.413C2.76171 34.9114 3.31355 34.5251 3.96572 34.2542C4.62291 33.9783 5.37542 33.8403 6.22325 33.8403C6.7801 33.8403 7.31689 33.8955 7.83361 34.0058C8.35034 34.1162 8.81689 34.2742 9.23328 34.4799L8.72157 35.5635C8.3704 35.403 7.98412 35.265 7.56271 35.1497C7.14632 35.0293 6.69482 34.9691 6.2082 34.9691ZM18.1355 40.8612C18.1355 41.5385 18.0477 42.143 17.8721 42.6747C17.6965 43.2065 17.4431 43.6555 17.112 44.0217C16.7809 44.388 16.3796 44.6689 15.908 44.8645C15.4415 45.0552 14.9122 45.1505 14.3202 45.1505C13.7684 45.1505 13.2617 45.0552 12.8002 44.8645C12.3436 44.6689 11.9473 44.388 11.6112 44.0217C11.2801 43.6555 11.0217 43.2065 10.8361 42.6747C10.6555 42.143 10.5652 41.5385 10.5652 40.8612C10.5652 39.9582 10.7182 39.1906 11.0243 38.5585C11.3303 37.9214 11.7667 37.4373 12.3336 37.1062C12.9055 36.7701 13.5853 36.602 14.3729 36.602C15.1254 36.602 15.7826 36.7701 16.3445 37.1062C16.9114 37.4423 17.3503 37.9289 17.6614 38.5661C17.9774 39.1982 18.1355 39.9632 18.1355 40.8612ZM11.8595 40.8612C11.8595 41.5234 11.9473 42.0978 12.1229 42.5844C12.2985 43.0711 12.5694 43.4473 12.9356 43.7132C13.3018 43.9791 13.7734 44.112 14.3503 44.112C14.9222 44.112 15.3913 43.9791 15.7575 43.7132C16.1288 43.4473 16.4022 43.0711 16.5778 42.5844C16.7534 42.0978 16.8411 41.5234 16.8411 40.8612C16.8411 40.204 16.7534 39.6371 16.5778 39.1605C16.4022 38.6789 16.1313 38.3077 15.7651 38.0468C15.3988 37.786 14.9248 37.6555 14.3428 37.6555C13.485 37.6555 12.8554 37.939 12.454 38.5059C12.0577 39.0727 11.8595 39.8579 11.8595 40.8612ZM29.25 36.602C30.158 36.602 30.8428 36.8403 31.3044 37.3169C31.7659 37.7885 31.9967 38.5485 31.9967 39.597V45H30.7626V39.6572C30.7626 38.99 30.6171 38.4908 30.3261 38.1597C30.0401 37.8236 29.6137 37.6555 29.0468 37.6555C28.2492 37.6555 27.6697 37.8863 27.3085 38.3478C26.9473 38.8094 26.7667 39.4891 26.7667 40.3871V45H25.5251V39.6572C25.5251 39.2107 25.4599 38.8395 25.3294 38.5435C25.204 38.2475 25.0134 38.0268 24.7575 37.8813C24.5067 37.7308 24.1881 37.6555 23.8018 37.6555C23.255 37.6555 22.8161 37.7684 22.485 37.9941C22.1539 38.2199 21.9131 38.556 21.7625 39.0025C21.6171 39.444 21.5443 39.9883 21.5443 40.6355V45H20.2952V36.7525H21.3035L21.4916 37.9189H21.5594C21.7249 37.6329 21.9331 37.3921 22.184 37.1965C22.4348 37.0008 22.7157 36.8528 23.0268 36.7525C23.3378 36.6522 23.6689 36.602 24.0201 36.602C24.6472 36.602 25.1714 36.7199 25.5928 36.9557C26.0192 37.1865 26.3278 37.5401 26.5184 38.0167H26.5861C26.857 37.5401 27.2283 37.1865 27.6998 36.9557C28.1714 36.7199 28.6881 36.602 29.25 36.602ZM38.4381 36.602C39.4666 36.602 40.2868 36.9557 40.8988 37.663C41.5109 38.3704 41.8169 39.4339 41.8169 40.8537C41.8169 41.7918 41.6764 42.5794 41.3955 43.2166C41.1146 43.8537 40.7182 44.3353 40.2065 44.6614C39.6998 44.9875 39.1003 45.1505 38.408 45.1505C37.9716 45.1505 37.5878 45.0928 37.2567 44.9774C36.9256 44.862 36.6422 44.7065 36.4064 44.5109C36.1706 44.3152 35.9749 44.102 35.8194 43.8712H35.7291C35.7442 44.0669 35.7617 44.3027 35.7818 44.5786C35.8069 44.8545 35.8194 45.0953 35.8194 45.301V48.6873H34.5627V36.7525H35.5937L35.7592 37.9716H35.8194C35.9799 37.7207 36.1756 37.4925 36.4064 37.2868C36.6371 37.0761 36.9181 36.9105 37.2492 36.7901C37.5853 36.6647 37.9816 36.602 38.4381 36.602ZM38.2199 37.6555C37.648 37.6555 37.1865 37.7659 36.8353 37.9866C36.4891 38.2074 36.2358 38.5385 36.0753 38.9799C35.9147 39.4164 35.8294 39.9657 35.8194 40.6279V40.8687C35.8194 41.5661 35.8947 42.1555 36.0452 42.6371C36.2007 43.1187 36.454 43.4849 36.8052 43.7358C37.1614 43.9866 37.638 44.112 38.235 44.112C38.7467 44.112 39.1731 43.9741 39.5142 43.6982C39.8554 43.4222 40.1087 43.0385 40.2743 42.5468C40.4448 42.0502 40.5301 41.4808 40.5301 40.8386C40.5301 39.8654 40.3395 39.0928 39.9582 38.5209C39.582 37.944 39.0025 37.6555 38.2199 37.6555ZM45.2559 45H43.9992V33.291H45.2559V45ZM51.0728 36.602C51.7751 36.602 52.3771 36.7575 52.8788 37.0686C53.3804 37.3796 53.7642 37.8161 54.0301 38.3779C54.296 38.9348 54.4289 39.587 54.4289 40.3344V41.1095H48.7325C48.7475 42.0778 48.9883 42.8152 49.4549 43.3219C49.9214 43.8286 50.5786 44.0819 51.4264 44.0819C51.9482 44.0819 52.4097 44.0343 52.8111 43.939C53.2124 43.8436 53.6288 43.7032 54.0602 43.5176V44.6162C53.6438 44.8018 53.2299 44.9373 52.8186 45.0226C52.4122 45.1079 51.9306 45.1505 51.3738 45.1505C50.5811 45.1505 49.8888 44.99 49.2968 44.6689C48.7099 44.3428 48.2534 43.8662 47.9273 43.2391C47.6012 42.612 47.4381 41.8445 47.4381 40.9365C47.4381 40.0485 47.5861 39.2809 47.8821 38.6338C48.1831 37.9816 48.6045 37.4799 49.1463 37.1288C49.6932 36.7776 50.3353 36.602 51.0728 36.602ZM51.0577 37.6254C50.3905 37.6254 49.8587 37.8436 49.4624 38.2801C49.0661 38.7166 48.8303 39.3261 48.755 40.1087H53.1196C53.1146 39.6171 53.0368 39.1856 52.8863 38.8144C52.7408 38.4381 52.5176 38.1472 52.2166 37.9415C51.9156 37.7308 51.5293 37.6254 51.0577 37.6254ZM59.2149 44.1271C59.4206 44.1271 59.6313 44.1095 59.847 44.0744C60.0627 44.0393 60.2383 43.9967 60.3738 43.9465V44.9172C60.2283 44.9824 60.0251 45.0376 59.7642 45.0828C59.5084 45.1279 59.2575 45.1505 59.0117 45.1505C58.5753 45.1505 58.1789 45.0753 57.8228 44.9247C57.4666 44.7692 57.1806 44.5084 56.9649 44.1421C56.7542 43.7759 56.6488 43.2692 56.6488 42.6221V37.7308H55.4749V37.1212L56.6564 36.6321L57.153 34.8411H57.9055V36.7525H60.3211V37.7308H57.9055V42.5844C57.9055 43.1012 58.0234 43.4875 58.2592 43.7433C58.5 43.9992 58.8186 44.1271 59.2149 44.1271ZM65.2199 36.602C65.9223 36.602 66.5243 36.7575 67.0259 37.0686C67.5276 37.3796 67.9114 37.8161 68.1773 38.3779C68.4432 38.9348 68.5761 39.587 68.5761 40.3344V41.1095H62.8796C62.8947 42.0778 63.1355 42.8152 63.602 43.3219C64.0686 43.8286 64.7258 44.0819 65.5736 44.0819C66.0953 44.0819 66.5569 44.0343 66.9582 43.939C67.3596 43.8436 67.7759 43.7032 68.2074 43.5176V44.6162C67.791 44.8018 67.3771 44.9373 66.9657 45.0226C66.5594 45.1079 66.0778 45.1505 65.5209 45.1505C64.7283 45.1505 64.036 44.99 63.444 44.6689C62.857 44.3428 62.4005 43.8662 62.0744 43.2391C61.7483 42.612 61.5853 41.8445 61.5853 40.9365C61.5853 40.0485 61.7333 39.2809 62.0293 38.6338C62.3303 37.9816 62.7517 37.4799 63.2935 37.1288C63.8403 36.7776 64.4825 36.602 65.2199 36.602ZM65.2049 37.6254C64.5376 37.6254 64.0059 37.8436 63.6096 38.2801C63.2132 38.7166 62.9774 39.3261 62.9022 40.1087H67.2667C67.2617 39.6171 67.184 39.1856 67.0335 38.8144C66.888 38.4381 66.6647 38.1472 66.3637 37.9415C66.0627 37.7308 65.6764 37.6254 65.2049 37.6254ZM77.7868 36.6171C78.7701 36.6171 79.5 36.8378 79.9766 37.2793C80.4532 37.7207 80.6915 38.4256 80.6915 39.3938V45H79.781L79.5402 43.7809H79.48C79.2492 44.0819 79.0084 44.3353 78.7575 44.541C78.5067 44.7416 78.2157 44.8946 77.8846 45C77.5586 45.1003 77.1572 45.1505 76.6806 45.1505C76.179 45.1505 75.7325 45.0627 75.3412 44.8871C74.9549 44.7115 74.6489 44.4457 74.4231 44.0895C74.2024 43.7333 74.092 43.2818 74.092 42.7349C74.092 41.9122 74.4181 41.2801 75.0703 40.8386C75.7224 40.3972 76.7157 40.1564 78.0502 40.1162L79.4724 40.056V39.5518C79.4724 38.8395 79.3194 38.3403 79.0134 38.0543C78.7074 37.7684 78.2759 37.6254 77.7191 37.6254C77.2876 37.6254 76.8763 37.6881 76.485 37.8135C76.0937 37.939 75.7224 38.087 75.3713 38.2575L74.9875 37.3094C75.3587 37.1187 75.7851 36.9557 76.2667 36.8202C76.7483 36.6848 77.255 36.6171 77.7868 36.6171ZM79.4574 40.9365L78.2007 40.9891C77.1723 41.0293 76.4473 41.1973 76.0259 41.4933C75.6045 41.7893 75.3938 42.2082 75.3938 42.75C75.3938 43.2216 75.5368 43.5702 75.8228 43.796C76.1087 44.0217 76.4875 44.1346 76.9591 44.1346C77.6915 44.1346 78.291 43.9314 78.7575 43.5251C79.2241 43.1187 79.4574 42.5092 79.4574 41.6965V40.9365ZM90.0753 36.7525V45H89.0519L88.8713 43.8411H88.8035C88.633 44.1271 88.4122 44.3679 88.1413 44.5635C87.8704 44.7592 87.5644 44.9047 87.2233 45C86.8872 45.1003 86.5285 45.1505 86.1472 45.1505C85.495 45.1505 84.9482 45.0452 84.5067 44.8344C84.0652 44.6237 83.7316 44.2977 83.5059 43.8562C83.2851 43.4147 83.1748 42.8478 83.1748 42.1555V36.7525H84.439V42.0652C84.439 42.7525 84.5945 43.2667 84.9055 43.6079C85.2166 43.944 85.6907 44.112 86.3278 44.112C86.9398 44.112 87.4265 43.9967 87.7877 43.7659C88.1539 43.5351 88.4173 43.1965 88.5778 42.75C88.7383 42.2985 88.8186 41.7467 88.8186 41.0945V36.7525H90.0753ZM95.3805 44.1271C95.5862 44.1271 95.7969 44.1095 96.0126 44.0744C96.2283 44.0393 96.4039 43.9967 96.5393 43.9465V44.9172C96.3938 44.9824 96.1907 45.0376 95.9298 45.0828C95.6739 45.1279 95.4231 45.1505 95.1773 45.1505C94.7408 45.1505 94.3445 45.0753 93.9883 44.9247C93.6321 44.7692 93.3462 44.5084 93.1305 44.1421C92.9198 43.7759 92.8144 43.2692 92.8144 42.6221V37.7308H91.6405V37.1212L92.8219 36.6321L93.3186 34.8411H94.0711V36.7525H96.4867V37.7308H94.0711V42.5844C94.0711 43.1012 94.189 43.4875 94.4248 43.7433C94.6656 43.9992 94.9841 44.1271 95.3805 44.1271ZM105.321 40.8612C105.321 41.5385 105.233 42.143 105.058 42.6747C104.882 43.2065 104.629 43.6555 104.298 44.0217C103.967 44.388 103.565 44.6689 103.094 44.8645C102.627 45.0552 102.098 45.1505 101.506 45.1505C100.954 45.1505 100.447 45.0552 99.9858 44.8645C99.5293 44.6689 99.133 44.388 98.7969 44.0217C98.4657 43.6555 98.2074 43.2065 98.0218 42.6747C97.8412 42.143 97.7509 41.5385 97.7509 40.8612C97.7509 39.9582 97.9039 39.1906 98.2099 38.5585C98.5159 37.9214 98.9524 37.4373 99.5193 37.1062C100.091 36.7701 100.771 36.602 101.559 36.602C102.311 36.602 102.968 36.7701 103.53 37.1062C104.097 37.4423 104.536 37.9289 104.847 38.5661C105.163 39.1982 105.321 39.9632 105.321 40.8612ZM99.0452 40.8612C99.0452 41.5234 99.133 42.0978 99.3086 42.5844C99.4841 43.0711 99.755 43.4473 100.121 43.7132C100.487 43.9791 100.959 44.112 101.536 44.112C102.108 44.112 102.577 43.9791 102.943 43.7132C103.314 43.4473 103.588 43.0711 103.763 42.5844C103.939 42.0978 104.027 41.5234 104.027 40.8612C104.027 40.204 103.939 39.6371 103.763 39.1605C103.588 38.6789 103.317 38.3077 102.951 38.0468C102.584 37.786 102.11 37.6555 101.528 37.6555C100.671 37.6555 100.041 37.939 99.6397 38.5059C99.2433 39.0727 99.0452 39.8579 99.0452 40.8612ZM116.436 36.602C117.344 36.602 118.028 36.8403 118.49 37.3169C118.952 37.7885 119.182 38.5485 119.182 39.597V45H117.948V39.6572C117.948 38.99 117.803 38.4908 117.512 38.1597C117.226 37.8236 116.799 37.6555 116.232 37.6555C115.435 37.6555 114.855 37.8863 114.494 38.3478C114.133 38.8094 113.952 39.4891 113.952 40.3871V45H112.711V39.6572C112.711 39.2107 112.646 38.8395 112.515 38.5435C112.39 38.2475 112.199 38.0268 111.943 37.8813C111.692 37.7308 111.374 37.6555 110.987 37.6555C110.441 37.6555 110.002 37.7684 109.671 37.9941C109.339 38.2199 109.099 38.556 108.948 39.0025C108.803 39.444 108.73 39.9883 108.73 40.6355V45H107.481V36.7525H108.489L108.677 37.9189H108.745C108.911 37.6329 109.119 37.3921 109.37 37.1965C109.62 37.0008 109.901 36.8528 110.212 36.7525C110.523 36.6522 110.855 36.602 111.206 36.602C111.833 36.602 112.357 36.7199 112.778 36.9557C113.205 37.1865 113.513 37.5401 113.704 38.0167H113.772C114.043 37.5401 114.414 37.1865 114.885 36.9557C115.357 36.7199 115.874 36.602 116.436 36.602ZM124.834 36.6171C125.817 36.6171 126.547 36.8378 127.023 37.2793C127.5 37.7207 127.738 38.4256 127.738 39.3938V45H126.828L126.587 43.7809H126.527C126.296 44.0819 126.055 44.3353 125.804 44.541C125.554 44.7416 125.263 44.8946 124.931 45C124.605 45.1003 124.204 45.1505 123.727 45.1505C123.226 45.1505 122.779 45.0627 122.388 44.8871C122.002 44.7115 121.696 44.4457 121.47 44.0895C121.249 43.7333 121.139 43.2818 121.139 42.7349C121.139 41.9122 121.465 41.2801 122.117 40.8386C122.769 40.3972 123.763 40.1564 125.097 40.1162L126.519 40.056V39.5518C126.519 38.8395 126.366 38.3403 126.06 38.0543C125.754 37.7684 125.323 37.6254 124.766 37.6254C124.334 37.6254 123.923 37.6881 123.532 37.8135C123.141 37.939 122.769 38.087 122.418 38.2575L122.034 37.3094C122.406 37.1187 122.832 36.9557 123.314 36.8202C123.795 36.6848 124.302 36.6171 124.834 36.6171ZM126.504 40.9365L125.248 40.9891C124.219 41.0293 123.494 41.1973 123.073 41.4933C122.651 41.7893 122.441 42.2082 122.441 42.75C122.441 43.2216 122.584 43.5702 122.87 43.796C123.156 44.0217 123.534 44.1346 124.006 44.1346C124.738 44.1346 125.338 43.9314 125.804 43.5251C126.271 43.1187 126.504 42.5092 126.504 41.6965V40.9365ZM132.976 44.1271C133.181 44.1271 133.392 44.1095 133.608 44.0744C133.824 44.0393 133.999 43.9967 134.135 43.9465V44.9172C133.989 44.9824 133.786 45.0376 133.525 45.0828C133.269 45.1279 133.018 45.1505 132.773 45.1505C132.336 45.1505 131.94 45.0753 131.584 44.9247C131.227 44.7692 130.942 44.5084 130.726 44.1421C130.515 43.7759 130.41 43.2692 130.41 42.6221V37.7308H129.236V37.1212L130.417 36.6321L130.914 34.8411H131.666V36.7525H134.082V37.7308H131.666V42.5844C131.666 43.1012 131.784 43.4875 132.02 43.7433C132.261 43.9992 132.579 44.1271 132.976 44.1271ZM137.054 36.7525V45H135.805V36.7525H137.054ZM136.445 33.6672C136.651 33.6672 136.826 33.7349 136.972 33.8704C137.122 34.0008 137.197 34.2065 137.197 34.4875C137.197 34.7634 137.122 34.9691 136.972 35.1045C136.826 35.24 136.651 35.3077 136.445 35.3077C136.229 35.3077 136.049 35.24 135.903 35.1045C135.763 34.9691 135.692 34.7634 135.692 34.4875C135.692 34.2065 135.763 34.0008 135.903 33.8704C136.049 33.7349 136.229 33.6672 136.445 33.6672ZM143.007 45.1505C142.264 45.1505 141.61 44.9975 141.043 44.6915C140.476 44.3855 140.034 43.9189 139.718 43.2918C139.402 42.6647 139.244 41.8746 139.244 40.9214C139.244 39.9231 139.41 39.1079 139.741 38.4758C140.077 37.8386 140.538 37.3671 141.125 37.061C141.712 36.755 142.38 36.602 143.127 36.602C143.538 36.602 143.935 36.6446 144.316 36.7299C144.702 36.8102 145.018 36.913 145.264 37.0385L144.888 38.0844C144.637 37.9841 144.346 37.8938 144.015 37.8135C143.689 37.7333 143.383 37.6931 143.097 37.6931C142.525 37.6931 142.049 37.8161 141.667 38.0619C141.291 38.3077 141.008 38.6689 140.817 39.1455C140.631 39.6221 140.538 40.209 140.538 40.9064C140.538 41.5736 140.629 42.143 140.809 42.6145C140.995 43.0861 141.268 43.4473 141.63 43.6982C141.996 43.944 142.452 44.0669 142.999 44.0669C143.436 44.0669 143.829 44.0217 144.181 43.9314C144.532 43.8361 144.85 43.7258 145.136 43.6003V44.714C144.86 44.8545 144.552 44.9624 144.211 45.0376C143.875 45.1129 143.473 45.1505 143.007 45.1505ZM152.353 45H151.096V33.291H152.353V45ZM156.243 36.7525V45H154.994V36.7525H156.243ZM155.634 33.6672C155.84 33.6672 156.015 33.7349 156.161 33.8704C156.311 34.0008 156.386 34.2065 156.386 34.4875C156.386 34.7634 156.311 34.9691 156.161 35.1045C156.015 35.24 155.84 35.3077 155.634 35.3077C155.418 35.3077 155.238 35.24 155.092 35.1045C154.952 34.9691 154.881 34.7634 154.881 34.4875C154.881 34.2065 154.952 34.0008 155.092 33.8704C155.238 33.7349 155.418 33.6672 155.634 33.6672ZM164.227 42.7425C164.227 43.2692 164.095 43.7132 163.829 44.0744C163.568 44.4306 163.192 44.699 162.7 44.8796C162.213 45.0602 161.631 45.1505 160.954 45.1505C160.377 45.1505 159.878 45.1054 159.457 45.0151C159.035 44.9247 158.666 44.7968 158.35 44.6313V43.4799C158.687 43.6455 159.088 43.796 159.554 43.9314C160.021 44.0669 160.498 44.1346 160.984 44.1346C161.697 44.1346 162.213 44.0192 162.534 43.7885C162.855 43.5577 163.016 43.2441 163.016 42.8478C163.016 42.6221 162.951 42.4239 162.82 42.2533C162.695 42.0778 162.482 41.9097 162.181 41.7492C161.88 41.5836 161.463 41.403 160.931 41.2074C160.405 41.0067 159.948 40.8085 159.562 40.6129C159.181 40.4122 158.885 40.1689 158.674 39.8829C158.468 39.597 158.365 39.2258 158.365 38.7692C158.365 38.0719 158.646 37.5376 159.208 37.1664C159.775 36.7901 160.518 36.602 161.436 36.602C161.932 36.602 162.396 36.6522 162.828 36.7525C163.264 36.8478 163.671 36.9783 164.047 37.1438L163.625 38.1446C163.284 37.9992 162.921 37.8763 162.534 37.7759C162.148 37.6756 161.754 37.6254 161.353 37.6254C160.776 37.6254 160.332 37.7207 160.021 37.9114C159.715 38.102 159.562 38.3629 159.562 38.694C159.562 38.9498 159.632 39.1605 159.773 39.3261C159.918 39.4916 160.149 39.6472 160.465 39.7926C160.781 39.9381 161.197 40.1087 161.714 40.3043C162.231 40.495 162.677 40.6931 163.054 40.8988C163.43 41.0995 163.718 41.3453 163.919 41.6363C164.125 41.9222 164.227 42.291 164.227 42.7425ZM168.901 44.1271C169.106 44.1271 169.317 44.1095 169.533 44.0744C169.748 44.0393 169.924 43.9967 170.059 43.9465V44.9172C169.914 44.9824 169.711 45.0376 169.45 45.0828C169.194 45.1279 168.943 45.1505 168.697 45.1505C168.261 45.1505 167.865 45.0753 167.508 44.9247C167.152 44.7692 166.866 44.5084 166.651 44.1421C166.44 43.7759 166.335 43.2692 166.335 42.6221V37.7308H165.161V37.1212L166.342 36.6321L166.839 34.8411H167.591V36.7525H170.007V37.7308H167.591V42.5844C167.591 43.1012 167.709 43.4875 167.945 43.7433C168.186 43.9992 168.504 44.1271 168.901 44.1271ZM172.979 36.7525V45H171.73V36.7525H172.979ZM172.37 33.6672C172.575 33.6672 172.751 33.7349 172.896 33.8704C173.047 34.0008 173.122 34.2065 173.122 34.4875C173.122 34.7634 173.047 34.9691 172.896 35.1045C172.751 35.24 172.575 35.3077 172.37 35.3077C172.154 35.3077 171.973 35.24 171.828 35.1045C171.687 34.9691 171.617 34.7634 171.617 34.4875C171.617 34.2065 171.687 34.0008 171.828 33.8704C171.973 33.7349 172.154 33.6672 172.37 33.6672ZM179.534 36.602C180.512 36.602 181.252 36.8428 181.753 37.3244C182.255 37.801 182.506 38.5686 182.506 39.6271V45H181.272V39.7099C181.272 39.0226 181.114 38.5084 180.798 38.1672C180.487 37.8261 180.008 37.6555 179.36 37.6555C178.447 37.6555 177.805 37.9139 177.434 38.4306C177.063 38.9473 176.877 39.6973 176.877 40.6806V45H175.628V36.7525H176.636L176.824 37.9415H176.892C177.068 37.6505 177.291 37.4072 177.562 37.2115C177.833 37.0109 178.136 36.8604 178.472 36.76C178.809 36.6547 179.162 36.602 179.534 36.602ZM187.382 48.7023C186.299 48.7023 185.463 48.4992 184.876 48.0928C184.289 47.6915 183.996 47.1271 183.996 46.3997C183.996 45.8829 184.159 45.4415 184.485 45.0753C184.816 44.709 185.273 44.4657 185.855 44.3453C185.639 44.245 185.453 44.0945 185.298 43.8938C185.147 43.6931 185.072 43.4624 185.072 43.2015C185.072 42.9005 185.155 42.6371 185.32 42.4114C185.491 42.1806 185.749 41.9599 186.095 41.7492C185.664 41.5736 185.313 41.2776 185.042 40.8612C184.776 40.4398 184.643 39.9507 184.643 39.3938C184.643 38.8018 184.766 38.2977 185.012 37.8813C185.258 37.4599 185.614 37.1388 186.08 36.9181C186.547 36.6973 187.111 36.587 187.773 36.587C187.919 36.587 188.064 36.5945 188.21 36.6095C188.36 36.6196 188.503 36.6371 188.639 36.6622C188.774 36.6823 188.892 36.7074 188.993 36.7375H191.822V37.5426L190.302 37.7308C190.452 37.9264 190.578 38.1622 190.678 38.4381C190.778 38.714 190.829 39.0201 190.829 39.3562C190.829 40.1789 190.55 40.8336 189.993 41.3202C189.437 41.8018 188.671 42.0426 187.698 42.0426C187.467 42.0426 187.232 42.0226 186.991 41.9824C186.745 42.1179 186.557 42.2684 186.426 42.4339C186.301 42.5995 186.238 42.7901 186.238 43.0059C186.238 43.1664 186.286 43.2943 186.381 43.3896C186.482 43.4849 186.625 43.5552 186.81 43.6003C186.996 43.6405 187.219 43.6605 187.48 43.6605H188.932C189.83 43.6605 190.518 43.8487 190.994 44.2249C191.476 44.6012 191.717 45.1505 191.717 45.8729C191.717 46.786 191.345 47.4858 190.603 47.9724C189.86 48.459 188.787 48.7023 187.382 48.7023ZM187.42 47.7241C188.102 47.7241 188.666 47.6538 189.113 47.5134C189.564 47.3779 189.901 47.1798 190.121 46.9189C190.347 46.663 190.46 46.357 190.46 46.0008C190.46 45.6697 190.385 45.4189 190.234 45.2483C190.084 45.0828 189.863 44.9724 189.572 44.9172C189.281 44.857 188.925 44.8269 188.503 44.8269H187.074C186.702 44.8269 186.379 44.8846 186.103 45C185.827 45.1154 185.614 45.286 185.463 45.5117C185.318 45.7375 185.245 46.0184 185.245 46.3545C185.245 46.801 185.433 47.1396 185.809 47.3704C186.186 47.6062 186.722 47.7241 187.42 47.7241ZM187.743 41.1321C188.34 41.1321 188.789 40.9816 189.09 40.6806C189.391 40.3796 189.542 39.9406 189.542 39.3637C189.542 38.7467 189.389 38.2851 189.083 37.9791C188.777 37.6681 188.325 37.5125 187.728 37.5125C187.156 37.5125 186.715 37.6731 186.404 37.9941C186.098 38.3102 185.945 38.7742 185.945 39.3863C185.945 39.9482 186.1 40.3796 186.411 40.6806C186.722 40.9816 187.166 41.1321 187.743 41.1321ZM8.4281 61.8612C8.4281 62.5385 8.3403 63.143 8.16472 63.6747C7.98913 64.2065 7.73579 64.6555 7.40468 65.0217C7.07358 65.388 6.67224 65.6689 6.20067 65.8645C5.73412 66.0552 5.20485 66.1505 4.61288 66.1505C4.06104 66.1505 3.55435 66.0552 3.09281 65.8645C2.63629 65.6689 2.23997 65.388 1.90385 65.0217C1.57274 64.6555 1.31438 64.2065 1.12876 63.6747C0.948161 63.143 0.85786 62.5385 0.85786 61.8612C0.85786 60.9582 1.01087 60.1906 1.31689 59.5585C1.62291 58.9214 2.05937 58.4373 2.62625 58.1062C3.19816 57.7701 3.87793 57.602 4.66555 57.602C5.41806 57.602 6.07525 57.7701 6.63713 58.1062C7.20402 58.4423 7.64298 58.9289 7.95402 59.5661C8.27007 60.1982 8.4281 60.9632 8.4281 61.8612ZM2.15217 61.8612C2.15217 62.5234 2.23997 63.0978 2.41555 63.5844C2.59114 64.0711 2.86204 64.4473 3.22826 64.7132C3.59448 64.9791 4.06605 65.112 4.64298 65.112C5.21488 65.112 5.68395 64.9791 6.05017 64.7132C6.42141 64.4473 6.69482 64.0711 6.8704 63.5844C7.04599 63.0978 7.13378 62.5234 7.13378 61.8612C7.13378 61.204 7.04599 60.6371 6.8704 60.1605C6.69482 59.6789 6.42392 59.3077 6.05769 59.0468C5.69147 58.786 5.21739 58.6555 4.63545 58.6555C3.77759 58.6555 3.14799 58.939 2.74666 59.5059C2.35034 60.0727 2.15217 60.8579 2.15217 61.8612ZM14.4933 57.602C15.4716 57.602 16.2115 57.8428 16.7132 58.3244C17.2149 58.801 17.4657 59.5686 17.4657 60.6271V66H16.2316V60.7099C16.2316 60.0226 16.0736 59.5084 15.7575 59.1672C15.4465 58.8261 14.9674 58.6555 14.3202 58.6555C13.4072 58.6555 12.7651 58.9139 12.3938 59.4306C12.0226 59.9473 11.837 60.6973 11.837 61.6806V66H10.5878V57.7525H11.5962L11.7843 58.9415H11.852C12.0276 58.6505 12.2508 58.4072 12.5217 58.2115C12.7926 58.0109 13.0962 57.8604 13.4323 57.76C13.7684 57.6547 14.1221 57.602 14.4933 57.602ZM26.9624 59.2726C27.7099 59.2726 28.3595 59.4005 28.9114 59.6564C29.4632 59.9072 29.8896 60.2734 30.1906 60.755C30.4967 61.2366 30.6497 61.8211 30.6497 62.5084C30.6497 63.2609 30.4866 63.9105 30.1605 64.4574C29.8345 64.9992 29.3654 65.4181 28.7534 65.714C28.1413 66.005 27.4089 66.1505 26.556 66.1505C25.9841 66.1505 25.4523 66.1003 24.9607 66C24.4691 65.8997 24.0552 65.7492 23.7191 65.5485V64.3595C24.0853 64.5803 24.5293 64.7559 25.051 64.8863C25.5727 65.0167 26.0794 65.0819 26.5711 65.0819C27.1279 65.0819 27.6146 64.9941 28.0309 64.8186C28.4523 64.638 28.7784 64.3671 29.0092 64.0059C29.245 63.6396 29.3629 63.1806 29.3629 62.6288C29.3629 61.8963 29.1371 61.3319 28.6856 60.9356C28.2391 60.5343 27.5318 60.3336 26.5636 60.3336C26.2525 60.3336 25.9114 60.3587 25.5401 60.4089C25.1689 60.459 24.8629 60.5142 24.6221 60.5744L23.99 60.1605L24.4114 54.9983H29.8821V56.1421H25.4799L25.2015 59.4607C25.3921 59.4206 25.638 59.3804 25.939 59.3403C26.24 59.2951 26.5811 59.2726 26.9624 59.2726ZM40.1689 66.1505C39.4264 66.1505 38.7717 65.9975 38.2049 65.6915C37.638 65.3855 37.1965 64.9189 36.8804 64.2918C36.5644 63.6647 36.4064 62.8746 36.4064 61.9214C36.4064 60.9231 36.5719 60.1079 36.903 59.4758C37.2391 58.8386 37.7007 58.3671 38.2876 58.061C38.8746 57.755 39.5418 57.602 40.2893 57.602C40.7007 57.602 41.097 57.6446 41.4783 57.7299C41.8646 57.8102 42.1806 57.913 42.4264 58.0385L42.0502 59.0844C41.7993 58.9841 41.5084 58.8938 41.1773 58.8135C40.8512 58.7333 40.5452 58.6931 40.2592 58.6931C39.6873 58.6931 39.2107 58.8161 38.8294 59.0619C38.4532 59.3077 38.1697 59.6689 37.9791 60.1455C37.7935 60.6221 37.7007 61.209 37.7007 61.9064C37.7007 62.5736 37.791 63.143 37.9716 63.6145C38.1572 64.0861 38.4306 64.4473 38.7918 64.6982C39.158 64.944 39.6146 65.0669 40.1614 65.0669C40.5978 65.0669 40.9916 65.0217 41.3428 64.9314C41.694 64.8361 42.0126 64.7258 42.2985 64.6003V65.714C42.0226 65.8545 41.7141 65.9624 41.3729 66.0376C41.0368 66.1129 40.6355 66.1505 40.1689 66.1505ZM48.0025 57.602C48.1681 57.602 48.3412 57.612 48.5218 57.6321C48.7024 57.6472 48.8629 57.6697 49.0034 57.6998L48.8453 58.8587C48.7099 58.8236 48.5594 58.796 48.3938 58.7759C48.2283 58.7559 48.0728 58.7458 47.9273 58.7458C47.5962 58.7458 47.2826 58.8135 46.9866 58.949C46.6957 59.0794 46.4398 59.2701 46.2191 59.5209C45.9983 59.7667 45.8253 60.0652 45.6998 60.4164C45.5744 60.7625 45.5117 61.1488 45.5117 61.5752V66H44.255V57.7525H45.2935L45.4289 59.2726H45.4816C45.6522 58.9666 45.8579 58.6881 46.0987 58.4373C46.3395 58.1814 46.6179 57.9783 46.934 57.8278C47.255 57.6773 47.6112 57.602 48.0025 57.602ZM49.2592 57.7525H50.5987L52.4197 62.5385C52.5251 62.8194 52.6229 63.0903 52.7132 63.3512C52.8035 63.607 52.8838 63.8528 52.954 64.0886C53.0243 64.3244 53.0794 64.5527 53.1196 64.7734H53.1723C53.2425 64.5226 53.3428 64.194 53.4733 63.7876C53.6037 63.3763 53.7442 62.9574 53.8947 62.5309L55.6179 57.7525H56.9649L53.3754 67.2115C53.1848 67.7182 52.9616 68.1597 52.7057 68.536C52.4549 68.9122 52.1488 69.2007 51.7876 69.4013C51.4264 69.607 50.99 69.7099 50.4783 69.7099C50.2425 69.7099 50.0343 69.6948 49.8537 69.6647C49.6731 69.6396 49.5176 69.6095 49.3871 69.5744V68.5736C49.4975 68.5987 49.6305 68.6212 49.786 68.6413C49.9465 68.6614 50.1121 68.6714 50.2826 68.6714C50.5937 68.6714 50.8621 68.6112 51.0878 68.4908C51.3186 68.3754 51.5167 68.2049 51.6823 67.9791C51.8478 67.7533 51.9908 67.485 52.1112 67.1739L52.5627 66.0151L49.2592 57.7525ZM62.1572 57.602C63.1856 57.602 64.0059 57.9557 64.6179 58.663C65.23 59.3704 65.536 60.4339 65.536 61.8537C65.536 62.7918 65.3955 63.5794 65.1146 64.2166C64.8336 64.8537 64.4373 65.3353 63.9256 65.6614C63.4189 65.9875 62.8194 66.1505 62.1271 66.1505C61.6907 66.1505 61.3069 66.0928 60.9758 65.9774C60.6447 65.862 60.3612 65.7065 60.1254 65.5109C59.8897 65.3152 59.694 65.102 59.5385 64.8712H59.4482C59.4632 65.0669 59.4808 65.3027 59.5009 65.5786C59.5259 65.8545 59.5385 66.0953 59.5385 66.301V69.6873H58.2818V57.7525H59.3127L59.4783 58.9716H59.5385C59.699 58.7207 59.8947 58.4925 60.1254 58.2868C60.3562 58.0761 60.6371 57.9105 60.9682 57.7901C61.3044 57.6647 61.7007 57.602 62.1572 57.602ZM61.939 58.6555C61.3671 58.6555 60.9055 58.7659 60.5544 58.9866C60.2082 59.2074 59.9549 59.5385 59.7943 59.9799C59.6338 60.4164 59.5485 60.9657 59.5385 61.6279V61.8687C59.5385 62.5661 59.6137 63.1555 59.7642 63.6371C59.9198 64.1187 60.1731 64.4849 60.5243 64.7358C60.8805 64.9866 61.357 65.112 61.954 65.112C62.4657 65.112 62.8922 64.9741 63.2333 64.6982C63.5744 64.4222 63.8278 64.0385 63.9933 63.5468C64.1639 63.0502 64.2492 62.4808 64.2492 61.8386C64.2492 60.8654 64.0585 60.0928 63.6773 59.5209C63.301 58.944 62.7216 58.6555 61.939 58.6555ZM70.3821 65.1271C70.5878 65.1271 70.7985 65.1095 71.0142 65.0744C71.23 65.0393 71.4055 64.9967 71.541 64.9465V65.9172C71.3955 65.9824 71.1923 66.0376 70.9315 66.0828C70.6756 66.1279 70.4248 66.1505 70.179 66.1505C69.7425 66.1505 69.3462 66.0753 68.99 65.9247C68.6338 65.7692 68.3478 65.5084 68.1321 65.1421C67.9214 64.7759 67.8161 64.2692 67.8161 63.6221V58.7308H66.6422V58.1212L67.8236 57.6321L68.3203 55.8411H69.0728V57.7525H71.4883V58.7308H69.0728V63.5844C69.0728 64.1012 69.1907 64.4875 69.4264 64.7433C69.6672 64.9992 69.9858 65.1271 70.3821 65.1271ZM80.3228 61.8612C80.3228 62.5385 80.235 63.143 80.0594 63.6747C79.8838 64.2065 79.6305 64.6555 79.2994 65.0217C78.9682 65.388 78.5669 65.6689 78.0953 65.8645C77.6288 66.0552 77.0995 66.1505 76.5075 66.1505C75.9557 66.1505 75.449 66.0552 74.9875 65.8645C74.531 65.6689 74.1346 65.388 73.7985 65.0217C73.4674 64.6555 73.2091 64.2065 73.0234 63.6747C72.8428 63.143 72.7525 62.5385 72.7525 61.8612C72.7525 60.9582 72.9055 60.1906 73.2116 59.5585C73.5176 58.9214 73.954 58.4373 74.5209 58.1062C75.0928 57.7701 75.7726 57.602 76.5602 57.602C77.3127 57.602 77.9699 57.7701 78.5318 58.1062C79.0987 58.4423 79.5376 58.9289 79.8487 59.5661C80.1647 60.1982 80.3228 60.9632 80.3228 61.8612ZM74.0468 61.8612C74.0468 62.5234 74.1346 63.0978 74.3102 63.5844C74.4858 64.0711 74.7567 64.4473 75.1229 64.7132C75.4892 64.9791 75.9607 65.112 76.5376 65.112C77.1096 65.112 77.5786 64.9791 77.9448 64.7132C78.3161 64.4473 78.5895 64.0711 78.7651 63.5844C78.9407 63.0978 79.0285 62.5234 79.0285 61.8612C79.0285 61.204 78.9407 60.6371 78.7651 60.1605C78.5895 59.6789 78.3186 59.3077 77.9524 59.0468C77.5861 58.786 77.1121 58.6555 76.5301 58.6555C75.6723 58.6555 75.0427 58.939 74.6413 59.5059C74.245 60.0727 74.0468 60.8579 74.0468 61.8612ZM89.6614 57.602C90.3637 57.602 90.9657 57.7575 91.4674 58.0686C91.9691 58.3796 92.3529 58.8161 92.6188 59.3779C92.8846 59.9348 93.0176 60.587 93.0176 61.3344V62.1095H87.3211C87.3361 63.0778 87.5769 63.8152 88.0435 64.3219C88.5101 64.8286 89.1673 65.0819 90.0151 65.0819C90.5368 65.0819 90.9984 65.0343 91.3997 64.939C91.801 64.8436 92.2174 64.7032 92.6489 64.5176V65.6162C92.2325 65.8018 91.8186 65.9373 91.4072 66.0226C91.0009 66.1079 90.5193 66.1505 89.9624 66.1505C89.1698 66.1505 88.4775 65.99 87.8855 65.6689C87.2985 65.3428 86.842 64.8662 86.5159 64.2391C86.1898 63.612 86.0268 62.8445 86.0268 61.9365C86.0268 61.0485 86.1748 60.2809 86.4708 59.6338C86.7718 58.9816 87.1932 58.4799 87.735 58.1288C88.2818 57.7776 88.9239 57.602 89.6614 57.602ZM89.6463 58.6254C88.9791 58.6254 88.4474 58.8436 88.051 59.2801C87.6547 59.7166 87.4189 60.3261 87.3437 61.1087H91.7082C91.7032 60.6171 91.6254 60.1856 91.4749 59.8144C91.3295 59.4381 91.1062 59.1472 90.8052 58.9415C90.5042 58.7308 90.1179 58.6254 89.6463 58.6254ZM97.1037 61.7784L94.2517 57.7525H95.6815L97.8562 60.9281L100.023 57.7525H101.438L98.5861 61.7784L101.596 66H100.166L97.8562 62.6363L95.531 66H94.1162L97.1037 61.7784ZM106.51 66.1505C105.768 66.1505 105.113 65.9975 104.546 65.6915C103.979 65.3855 103.538 64.9189 103.222 64.2918C102.906 63.6647 102.748 62.8746 102.748 61.9214C102.748 60.9231 102.913 60.1079 103.244 59.4758C103.58 58.8386 104.042 58.3671 104.629 58.061C105.216 57.755 105.883 57.602 106.63 57.602C107.042 57.602 107.438 57.6446 107.819 57.7299C108.206 57.8102 108.522 57.913 108.768 58.0385L108.391 59.0844C108.141 58.9841 107.85 58.8938 107.518 58.8135C107.192 58.7333 106.886 58.6931 106.6 58.6931C106.028 58.6931 105.552 58.8161 105.171 59.0619C104.794 59.3077 104.511 59.6689 104.32 60.1455C104.135 60.6221 104.042 61.209 104.042 61.9064C104.042 62.5736 104.132 63.143 104.313 63.6145C104.498 64.0861 104.772 64.4473 105.133 64.6982C105.499 64.944 105.956 65.0669 106.503 65.0669C106.939 65.0669 107.333 65.0217 107.684 64.9314C108.035 64.8361 108.354 64.7258 108.64 64.6003V65.714C108.364 65.8545 108.055 65.9624 107.714 66.0376C107.378 66.1129 106.977 66.1505 106.51 66.1505ZM111.845 54.291V57.7901C111.845 57.9908 111.84 58.194 111.83 58.3997C111.82 58.6003 111.803 58.786 111.778 58.9565H111.86C112.031 58.6655 112.247 58.4222 112.508 58.2266C112.773 58.0259 113.074 57.8754 113.411 57.7751C113.747 57.6697 114.103 57.6171 114.479 57.6171C115.141 57.6171 115.693 57.7224 116.135 57.9331C116.581 58.1438 116.915 58.4699 117.135 58.9114C117.361 59.3528 117.474 59.9247 117.474 60.6271V66H116.24V60.7099C116.24 60.0226 116.082 59.5084 115.766 59.1672C115.455 58.8261 114.976 58.6555 114.329 58.6555C113.717 58.6555 113.227 58.7734 112.861 59.0092C112.5 59.24 112.239 59.5811 112.079 60.0326C111.923 60.4841 111.845 61.036 111.845 61.6881V66H110.596V54.291H111.845ZM123.133 57.6171C124.116 57.6171 124.846 57.8378 125.323 58.2793C125.799 58.7207 126.038 59.4256 126.038 60.3938V66H125.127L124.886 64.7809H124.826C124.595 65.0819 124.355 65.3353 124.104 65.541C123.853 65.7416 123.562 65.8946 123.231 66C122.905 66.1003 122.503 66.1505 122.027 66.1505C121.525 66.1505 121.079 66.0627 120.687 65.8871C120.301 65.7115 119.995 65.4457 119.769 65.0895C119.549 64.7333 119.438 64.2818 119.438 63.7349C119.438 62.9122 119.764 62.2801 120.416 61.8386C121.069 61.3972 122.062 61.1564 123.396 61.1162L124.819 61.056V60.5518C124.819 59.8395 124.666 59.3403 124.36 59.0543C124.054 58.7684 123.622 58.6254 123.065 58.6254C122.634 58.6254 122.222 58.6881 121.831 58.8135C121.44 58.939 121.069 59.087 120.717 59.2575L120.334 58.3094C120.705 58.1187 121.131 57.9557 121.613 57.8202C122.095 57.6848 122.601 57.6171 123.133 57.6171ZM124.804 61.9365L123.547 61.9891C122.518 62.0293 121.794 62.1973 121.372 62.4933C120.951 62.7893 120.74 63.2082 120.74 63.75C120.74 64.2216 120.883 64.5702 121.169 64.796C121.455 65.0217 121.834 65.1346 122.305 65.1346C123.038 65.1346 123.637 64.9314 124.104 64.5251C124.57 64.1187 124.804 63.5092 124.804 62.6965V61.9365ZM132.517 57.602C133.495 57.602 134.235 57.8428 134.737 58.3244C135.238 58.801 135.489 59.5686 135.489 60.6271V66H134.255V60.7099C134.255 60.0226 134.097 59.5084 133.781 59.1672C133.47 58.8261 132.991 58.6555 132.344 58.6555C131.431 58.6555 130.788 58.9139 130.417 59.4306C130.046 59.9473 129.86 60.6973 129.86 61.6806V66H128.611V57.7525H129.62L129.808 58.9415H129.875C130.051 58.6505 130.274 58.4072 130.545 58.2115C130.816 58.0109 131.12 57.8604 131.456 57.76C131.792 57.6547 132.146 57.602 132.517 57.602ZM140.365 69.7023C139.282 69.7023 138.447 69.4992 137.86 69.0928C137.273 68.6915 136.979 68.1271 136.979 67.3997C136.979 66.8829 137.142 66.4415 137.468 66.0753C137.799 65.709 138.256 65.4657 138.838 65.3453C138.622 65.245 138.437 65.0945 138.281 64.8938C138.13 64.6931 138.055 64.4624 138.055 64.2015C138.055 63.9005 138.138 63.6371 138.304 63.4114C138.474 63.1806 138.732 62.9599 139.079 62.7492C138.647 62.5736 138.296 62.2776 138.025 61.8612C137.759 61.4398 137.626 60.9507 137.626 60.3938C137.626 59.8018 137.749 59.2977 137.995 58.8813C138.241 58.4599 138.597 58.1388 139.064 57.9181C139.53 57.6973 140.095 57.587 140.757 57.587C140.902 57.587 141.048 57.5945 141.193 57.6095C141.344 57.6196 141.487 57.6371 141.622 57.6622C141.758 57.6823 141.875 57.7074 141.976 57.7375H144.805V58.5426L143.285 58.7308C143.436 58.9264 143.561 59.1622 143.661 59.4381C143.762 59.714 143.812 60.0201 143.812 60.3562C143.812 61.1789 143.533 61.8336 142.977 62.3202C142.42 62.8018 141.655 63.0426 140.681 63.0426C140.451 63.0426 140.215 63.0226 139.974 62.9824C139.728 63.1179 139.54 63.2684 139.41 63.4339C139.284 63.5995 139.222 63.7901 139.222 64.0059C139.222 64.1664 139.269 64.2943 139.365 64.3896C139.465 64.4849 139.608 64.5552 139.794 64.6003C139.979 64.6405 140.202 64.6605 140.463 64.6605H141.916C142.814 64.6605 143.501 64.8487 143.977 65.2249C144.459 65.6012 144.7 66.1505 144.7 66.8729C144.7 67.786 144.329 68.4858 143.586 68.9724C142.844 69.459 141.77 69.7023 140.365 69.7023ZM140.403 68.7241C141.085 68.7241 141.65 68.6538 142.096 68.5134C142.548 68.3779 142.884 68.1798 143.105 67.9189C143.33 67.663 143.443 67.357 143.443 67.0008C143.443 66.6697 143.368 66.4189 143.217 66.2483C143.067 66.0828 142.846 65.9724 142.555 65.9172C142.264 65.857 141.908 65.8269 141.487 65.8269H140.057C139.686 65.8269 139.362 65.8846 139.086 66C138.81 66.1154 138.597 66.286 138.447 66.5117C138.301 66.7375 138.228 67.0184 138.228 67.3545C138.228 67.801 138.416 68.1396 138.793 68.3704C139.169 68.6062 139.706 68.7241 140.403 68.7241ZM140.727 62.1321C141.324 62.1321 141.773 61.9816 142.074 61.6806C142.375 61.3796 142.525 60.9406 142.525 60.3637C142.525 59.7467 142.372 59.2851 142.066 58.9791C141.76 58.6681 141.309 58.5125 140.712 58.5125C140.14 58.5125 139.698 58.6731 139.387 58.9941C139.081 59.3102 138.928 59.7742 138.928 60.3863C138.928 60.9482 139.084 61.3796 139.395 61.6806C139.706 61.9816 140.15 62.1321 140.727 62.1321ZM149.606 57.602C150.309 57.602 150.911 57.7575 151.412 58.0686C151.914 58.3796 152.298 58.8161 152.564 59.3779C152.829 59.9348 152.962 60.587 152.962 61.3344V62.1095H147.266C147.281 63.0778 147.522 63.8152 147.988 64.3219C148.455 64.8286 149.112 65.0819 149.96 65.0819C150.482 65.0819 150.943 65.0343 151.345 64.939C151.746 64.8436 152.162 64.7032 152.594 64.5176V65.6162C152.177 65.8018 151.763 65.9373 151.352 66.0226C150.946 66.1079 150.464 66.1505 149.907 66.1505C149.115 66.1505 148.422 65.99 147.83 65.6689C147.243 65.3428 146.787 64.8662 146.461 64.2391C146.135 63.612 145.972 62.8445 145.972 61.9365C145.972 61.0485 146.12 60.2809 146.416 59.6338C146.717 58.9816 147.138 58.4799 147.68 58.1288C148.227 57.7776 148.869 57.602 149.606 57.602ZM149.591 58.6254C148.924 58.6254 148.392 58.8436 147.996 59.2801C147.6 59.7166 147.364 60.3261 147.289 61.1087H151.653C151.648 60.6171 151.57 60.1856 151.42 59.8144C151.274 59.4381 151.051 59.1472 150.75 58.9415C150.449 58.7308 150.063 58.6254 149.591 58.6254ZM160.42 63.7425C160.42 64.2692 160.287 64.7132 160.021 65.0744C159.76 65.4306 159.384 65.699 158.892 65.8796C158.406 66.0602 157.824 66.1505 157.146 66.1505C156.569 66.1505 156.07 66.1054 155.649 66.0151C155.227 65.9247 154.859 65.7968 154.543 65.6313V64.4799C154.879 64.6455 155.28 64.796 155.747 64.9314C156.213 65.0669 156.69 65.1346 157.176 65.1346C157.889 65.1346 158.406 65.0192 158.727 64.7885C159.048 64.5577 159.208 64.2441 159.208 63.8478C159.208 63.6221 159.143 63.4239 159.013 63.2533C158.887 63.0778 158.674 62.9097 158.373 62.7492C158.072 62.5836 157.656 62.403 157.124 62.2074C156.597 62.0067 156.141 61.8085 155.754 61.6129C155.373 61.4122 155.077 61.1689 154.866 60.8829C154.661 60.597 154.558 60.2258 154.558 59.7692C154.558 59.0719 154.839 58.5376 155.401 58.1664C155.967 57.7901 156.71 57.602 157.628 57.602C158.125 57.602 158.589 57.6522 159.02 57.7525C159.457 57.8478 159.863 57.9783 160.239 58.1438L159.818 59.1446C159.477 58.9992 159.113 58.8763 158.727 58.7759C158.34 58.6756 157.947 58.6254 157.545 58.6254C156.968 58.6254 156.524 58.7207 156.213 58.9114C155.907 59.102 155.754 59.3629 155.754 59.694C155.754 59.9498 155.824 60.1605 155.965 60.3261C156.11 60.4916 156.341 60.6472 156.657 60.7926C156.973 60.9381 157.39 61.1087 157.906 61.3043C158.423 61.495 158.87 61.6931 159.246 61.8988C159.622 62.0995 159.911 62.3453 160.111 62.6363C160.317 62.9222 160.42 63.291 160.42 63.7425Z" fill="#506980"/>
</svg>
