<svg width="548" height="500" viewBox="0 0 548 500" fill="none" xmlns="http://www.w3.org/2000/svg">
<g clip-path="url(#clip0_1222_50879)">
<g clip-path="url(#clip1_1222_50879)">
<rect y="65.1694" width="708" height="2.95" fill="white"/>
<rect x="27" y="61" width="2.95" height="11.8" fill="white"/>
<rect x="73.3682" y="61" width="2.95" height="11.8" fill="white"/>
<rect x="119.736" y="61" width="2.95" height="11.8" fill="white"/>
<rect x="166.104" y="61" width="2.95" height="11.8" fill="white"/>
<rect x="212.473" y="61" width="2.95" height="11.8" fill="white"/>
<rect x="258.841" y="61" width="2.95" height="11.8" fill="white"/>
<rect x="305.209" y="61" width="2.95" height="11.8" fill="white"/>
<rect x="351.577" y="61" width="2.95" height="11.8" fill="white"/>
<rect x="397.945" y="61" width="2.95" height="11.8" fill="white"/>
<rect x="444.313" y="61" width="2.95" height="11.8" fill="white"/>
<rect x="490.682" y="61" width="2.95" height="11.8" fill="white"/>
<rect x="537.05" y="61" width="2.95" height="11.8" fill="white"/>
</g>
<path d="M23.0722 51C23.0092 51 22.9557 50.978 22.9117 50.9339C22.8676 50.8899 22.8456 50.8364 22.8456 50.7734V50.292C22.8456 50.2354 22.8582 50.1693 22.8834 50.0938C22.9148 50.0119 22.9809 49.9301 23.0816 49.8483L24.5731 48.3662C24.9885 48.039 25.322 47.7621 25.5738 47.5355C25.8318 47.3027 26.0175 47.0918 26.1307 46.903C26.2503 46.7079 26.3101 46.516 26.3101 46.3272C26.3101 46.044 26.2314 45.8143 26.0741 45.6381C25.9231 45.4619 25.6808 45.3738 25.3472 45.3738C25.1269 45.3738 24.9413 45.421 24.7903 45.5154C24.6392 45.6035 24.5196 45.723 24.4315 45.8741C24.3497 46.0251 24.2931 46.1919 24.2616 46.3744C24.249 46.4562 24.2144 46.5129 24.1578 46.5443C24.1011 46.5758 24.0445 46.5915 23.9879 46.5915H23.1477C23.0911 46.5915 23.0439 46.5726 23.0061 46.5349C22.9683 46.4971 22.9495 46.4531 22.9495 46.4027C22.9557 46.1321 23.0124 45.8709 23.1194 45.6192C23.2264 45.3612 23.3805 45.1346 23.5819 44.9395C23.7896 44.7381 24.0413 44.5777 24.3371 44.4581C24.6329 44.3385 24.9665 44.2787 25.3378 44.2787C25.8601 44.2787 26.2912 44.3668 26.6311 44.543C26.9772 44.7193 27.2352 44.9584 27.4051 45.2605C27.5813 45.5626 27.6695 45.9024 27.6695 46.28C27.6695 46.5758 27.6128 46.8495 27.4995 47.1013C27.3863 47.3467 27.2226 47.5859 27.0087 47.8187C26.7947 48.0453 26.5367 48.2781 26.2346 48.5173L24.8941 49.8766H27.5845C27.6537 49.8766 27.7072 49.8987 27.745 49.9427C27.789 49.9805 27.8111 50.034 27.8111 50.1032V50.7734C27.8111 50.8364 27.789 50.8899 27.745 50.9339C27.7072 50.978 27.6537 51 27.5845 51H23.0722ZM31.8244 51C31.7552 51 31.6985 50.978 31.6545 50.9339C31.6167 50.8899 31.5978 50.8364 31.5978 50.7734V45.8835L30.1629 46.988C30.1063 47.0258 30.0497 47.0415 29.993 47.0352C29.9364 47.0226 29.886 46.988 29.842 46.9314L29.4455 46.4216C29.4077 46.365 29.392 46.3052 29.3983 46.2422C29.4109 46.1793 29.4455 46.129 29.5021 46.0912L31.6167 44.4581C31.6545 44.4266 31.6922 44.4077 31.73 44.4014C31.7677 44.3951 31.8086 44.392 31.8527 44.392H32.6834C32.7464 44.392 32.7998 44.414 32.8439 44.4581C32.888 44.5021 32.91 44.5556 32.91 44.6186V50.7734C32.91 50.8364 32.888 50.8899 32.8439 50.9339C32.7998 50.978 32.7464 51 32.6834 51H31.8244Z" fill="white"/>
<path d="M68.2893 51C68.2263 51 68.1728 50.978 68.1288 50.9339C68.0847 50.8899 68.0627 50.8364 68.0627 50.7734V50.292C68.0627 50.2354 68.0753 50.1693 68.1005 50.0938C68.1319 50.0119 68.198 49.9301 68.2987 49.8483L69.7902 48.3662C70.2056 48.039 70.5391 47.7621 70.7909 47.5355C71.0489 47.3027 71.2345 47.0918 71.3478 46.903C71.4674 46.7079 71.5272 46.516 71.5272 46.3272C71.5272 46.044 71.4485 45.8143 71.2912 45.6381C71.1401 45.4619 70.8978 45.3738 70.5643 45.3738C70.344 45.3738 70.1584 45.421 70.0073 45.5154C69.8563 45.6035 69.7367 45.723 69.6486 45.8741C69.5668 46.0251 69.5102 46.1919 69.4787 46.3744C69.4661 46.4562 69.4315 46.5129 69.3749 46.5443C69.3182 46.5758 69.2616 46.5915 69.2049 46.5915H68.3648C68.3081 46.5915 68.2609 46.5726 68.2232 46.5349C68.1854 46.4971 68.1665 46.4531 68.1665 46.4027C68.1728 46.1321 68.2295 45.8709 68.3365 45.6192C68.4434 45.3612 68.5976 45.1346 68.799 44.9395C69.0067 44.7381 69.2584 44.5777 69.5542 44.4581C69.85 44.3385 70.1836 44.2787 70.5549 44.2787C71.0772 44.2787 71.5083 44.3668 71.8481 44.543C72.1943 44.7193 72.4523 44.9584 72.6222 45.2605C72.7984 45.5626 72.8865 45.9024 72.8865 46.28C72.8865 46.5758 72.8299 46.8495 72.7166 47.1013C72.6033 47.3467 72.4397 47.5859 72.2257 47.8187C72.0118 48.0453 71.7537 48.2781 71.4517 48.5173L70.1112 49.8766H72.8016C72.8708 49.8766 72.9243 49.8987 72.9621 49.9427C73.0061 49.9805 73.0281 50.034 73.0281 50.1032V50.7734C73.0281 50.8364 73.0061 50.8899 72.9621 50.9339C72.9243 50.978 72.8708 51 72.8016 51H68.2893ZM75.0779 51C75.015 51 74.9615 50.978 74.9175 50.9339C74.8734 50.8899 74.8514 50.8364 74.8514 50.7734V50.292C74.8514 50.2354 74.864 50.1693 74.8891 50.0938C74.9206 50.0119 74.9867 49.9301 75.0874 49.8483L76.5789 48.3662C76.9943 48.039 77.3278 47.7621 77.5795 47.5355C77.8376 47.3027 78.0232 47.0918 78.1365 46.903C78.2561 46.7079 78.3159 46.516 78.3159 46.3272C78.3159 46.044 78.2372 45.8143 78.0799 45.6381C77.9288 45.4619 77.6865 45.3738 77.353 45.3738C77.1327 45.3738 76.9471 45.421 76.796 45.5154C76.645 45.6035 76.5254 45.723 76.4373 45.8741C76.3555 46.0251 76.2989 46.1919 76.2674 46.3744C76.2548 46.4562 76.2202 46.5129 76.1635 46.5443C76.1069 46.5758 76.0503 46.5915 75.9936 46.5915H75.1535C75.0968 46.5915 75.0496 46.5726 75.0119 46.5349C74.9741 46.4971 74.9552 46.4531 74.9552 46.4027C74.9615 46.1321 75.0182 45.8709 75.1251 45.6192C75.2321 45.3612 75.3863 45.1346 75.5877 44.9395C75.7954 44.7381 76.0471 44.5777 76.3429 44.4581C76.6387 44.3385 76.9722 44.2787 77.3435 44.2787C77.8659 44.2787 78.297 44.3668 78.6368 44.543C78.983 44.7193 79.241 44.9584 79.4109 45.2605C79.5871 45.5626 79.6752 45.9024 79.6752 46.28C79.6752 46.5758 79.6186 46.8495 79.5053 47.1013C79.392 47.3467 79.2284 47.5859 79.0144 47.8187C78.8005 48.0453 78.5424 48.2781 78.2403 48.5173L76.8999 49.8766H79.5903C79.6595 49.8766 79.713 49.8987 79.7507 49.9427C79.7948 49.9805 79.8168 50.034 79.8168 50.1032V50.7734C79.8168 50.8364 79.7948 50.8899 79.7507 50.9339C79.713 50.978 79.6595 51 79.5903 51H75.0779Z" fill="white"/>
<path d="M114.693 51C114.63 51 114.577 50.978 114.533 50.9339C114.489 50.8899 114.467 50.8364 114.467 50.7734V50.292C114.467 50.2354 114.479 50.1693 114.504 50.0938C114.536 50.0119 114.602 49.9301 114.703 49.8483L116.194 48.3662C116.609 48.039 116.943 47.7621 117.195 47.5355C117.453 47.3027 117.638 47.0918 117.752 46.903C117.871 46.7079 117.931 46.516 117.931 46.3272C117.931 46.044 117.852 45.8143 117.695 45.6381C117.544 45.4619 117.302 45.3738 116.968 45.3738C116.748 45.3738 116.562 45.421 116.411 45.5154C116.26 45.6035 116.141 45.723 116.053 45.8741C115.971 46.0251 115.914 46.1919 115.883 46.3744C115.87 46.4562 115.835 46.5129 115.779 46.5443C115.722 46.5758 115.665 46.5915 115.609 46.5915H114.769C114.712 46.5915 114.665 46.5726 114.627 46.5349C114.589 46.4971 114.57 46.4531 114.57 46.4027C114.577 46.1321 114.633 45.8709 114.74 45.6192C114.847 45.3612 115.002 45.1346 115.203 44.9395C115.411 44.7381 115.662 44.5777 115.958 44.4581C116.254 44.3385 116.587 44.2787 116.959 44.2787C117.481 44.2787 117.912 44.3668 118.252 44.543C118.598 44.7193 118.856 44.9584 119.026 45.2605C119.202 45.5626 119.29 45.9024 119.29 46.28C119.29 46.5758 119.234 46.8495 119.121 47.1013C119.007 47.3467 118.844 47.5859 118.63 47.8187C118.416 48.0453 118.158 48.2781 117.856 48.5173L116.515 49.8766H119.205C119.275 49.8766 119.328 49.8987 119.366 49.9427C119.41 49.9805 119.432 50.034 119.432 50.1032V50.7734C119.432 50.8364 119.41 50.8899 119.366 50.9339C119.328 50.978 119.275 51 119.205 51H114.693ZM123.766 51.0944C123.326 51.0944 122.945 51.0409 122.624 50.9339C122.303 50.8269 122.036 50.6885 121.822 50.5186C121.614 50.3423 121.457 50.1535 121.35 49.9522C121.243 49.7445 121.186 49.5399 121.18 49.3386C121.18 49.2819 121.199 49.2379 121.236 49.2064C121.28 49.1686 121.331 49.1498 121.387 49.1498H122.237C122.3 49.1498 122.353 49.1623 122.398 49.1875C122.442 49.2127 122.479 49.263 122.511 49.3386C122.567 49.5085 122.659 49.6438 122.785 49.7445C122.917 49.8452 123.068 49.9175 123.238 49.9616C123.408 49.9994 123.587 50.0182 123.776 50.0182C124.153 50.0182 124.452 49.9301 124.673 49.7539C124.899 49.5714 125.012 49.3134 125.012 48.9798C125.012 48.6463 124.909 48.4071 124.701 48.2624C124.493 48.1114 124.204 48.0358 123.832 48.0358H122.86C122.791 48.0358 122.734 48.017 122.69 47.9792C122.646 47.9351 122.624 47.8785 122.624 47.8093V47.4128C122.624 47.3499 122.637 47.2964 122.662 47.2523C122.693 47.202 122.725 47.1611 122.756 47.1296L124.446 45.4776H121.746C121.677 45.4776 121.62 45.4556 121.576 45.4115C121.538 45.3675 121.52 45.314 121.52 45.251V44.628C121.52 44.5588 121.538 44.5021 121.576 44.4581C121.62 44.414 121.677 44.392 121.746 44.392H125.796C125.865 44.392 125.922 44.414 125.966 44.4581C126.01 44.5021 126.032 44.5588 126.032 44.628V45.1944C126.032 45.251 126.019 45.3014 125.994 45.3454C125.969 45.3895 125.941 45.4273 125.909 45.4587L124.276 47.139L124.389 47.1485C124.773 47.1799 125.113 47.2681 125.409 47.4128C125.711 47.5513 125.944 47.7558 126.107 48.0264C126.277 48.297 126.362 48.6369 126.362 49.0459C126.362 49.4739 126.249 49.842 126.022 50.1504C125.802 50.4525 125.497 50.6853 125.107 50.849C124.717 51.0126 124.27 51.0944 123.766 51.0944Z" fill="white"/>
<path d="M161.074 51C161.011 51 160.957 50.978 160.913 50.9339C160.869 50.8899 160.847 50.8364 160.847 50.7734V50.292C160.847 50.2354 160.86 50.1693 160.885 50.0938C160.916 50.0119 160.982 49.9301 161.083 49.8483L162.574 48.3662C162.99 48.039 163.323 47.7621 163.575 47.5355C163.833 47.3027 164.019 47.0918 164.132 46.903C164.252 46.7079 164.311 46.516 164.311 46.3272C164.311 46.044 164.233 45.8143 164.075 45.6381C163.924 45.4619 163.682 45.3738 163.349 45.3738C163.128 45.3738 162.943 45.421 162.792 45.5154C162.641 45.6035 162.521 45.723 162.433 45.8741C162.351 46.0251 162.294 46.1919 162.263 46.3744C162.25 46.4562 162.216 46.5129 162.159 46.5443C162.102 46.5758 162.046 46.5915 161.989 46.5915H161.149C161.092 46.5915 161.045 46.5726 161.007 46.5349C160.97 46.4971 160.951 46.4531 160.951 46.4027C160.957 46.1321 161.014 45.8709 161.121 45.6192C161.228 45.3612 161.382 45.1346 161.583 44.9395C161.791 44.7381 162.043 44.5777 162.338 44.4581C162.634 44.3385 162.968 44.2787 163.339 44.2787C163.861 44.2787 164.293 44.3668 164.632 44.543C164.979 44.7193 165.237 44.9584 165.406 45.2605C165.583 45.5626 165.671 45.9024 165.671 46.28C165.671 46.5758 165.614 46.8495 165.501 47.1013C165.388 47.3467 165.224 47.5859 165.01 47.8187C164.796 48.0453 164.538 48.2781 164.236 48.5173L162.895 49.8766H165.586C165.655 49.8766 165.709 49.8987 165.746 49.9427C165.79 49.9805 165.812 50.034 165.812 50.1032V50.7734C165.812 50.8364 165.79 50.8899 165.746 50.9339C165.709 50.978 165.655 51 165.586 51H161.074ZM170.875 51C170.812 51 170.759 50.978 170.715 50.9339C170.671 50.8899 170.649 50.8364 170.649 50.7734V49.5651H167.656C167.587 49.5651 167.53 49.5431 167.486 49.499C167.448 49.455 167.429 49.4015 167.429 49.3386V48.6966C167.429 48.6589 167.436 48.6148 167.448 48.5645C167.467 48.5078 167.496 48.4575 167.533 48.4134L170.318 44.5525C170.4 44.4455 170.516 44.392 170.667 44.392H171.696C171.759 44.392 171.813 44.414 171.857 44.4581C171.901 44.5021 171.923 44.5556 171.923 44.6186V48.4512H172.763C172.839 48.4512 172.895 48.4732 172.933 48.5173C172.977 48.555 172.999 48.6085 172.999 48.6778V49.3386C172.999 49.4015 172.977 49.455 172.933 49.499C172.889 49.5431 172.835 49.5651 172.773 49.5651H171.923V50.7734C171.923 50.8364 171.901 50.8899 171.857 50.9339C171.813 50.978 171.759 51 171.696 51H170.875ZM168.742 48.489H170.677V45.7608L168.742 48.489Z" fill="white"/>
<path d="M207.648 51C207.585 51 207.532 50.978 207.488 50.9339C207.444 50.8899 207.422 50.8364 207.422 50.7734V50.292C207.422 50.2354 207.434 50.1693 207.46 50.0938C207.491 50.0119 207.557 49.9301 207.658 49.8483L209.149 48.3662C209.565 48.039 209.898 47.7621 210.15 47.5355C210.408 47.3027 210.594 47.0918 210.707 46.903C210.827 46.7079 210.886 46.516 210.886 46.3272C210.886 46.044 210.808 45.8143 210.65 45.6381C210.499 45.4619 210.257 45.3738 209.923 45.3738C209.703 45.3738 209.518 45.421 209.367 45.5154C209.215 45.6035 209.096 45.723 209.008 45.8741C208.926 46.0251 208.869 46.1919 208.838 46.3744C208.825 46.4562 208.791 46.5129 208.734 46.5443C208.677 46.5758 208.621 46.5915 208.564 46.5915H207.724C207.667 46.5915 207.62 46.5726 207.582 46.5349C207.545 46.4971 207.526 46.4531 207.526 46.4027C207.532 46.1321 207.589 45.8709 207.696 45.6192C207.803 45.3612 207.957 45.1346 208.158 44.9395C208.366 44.7381 208.618 44.5777 208.913 44.4581C209.209 44.3385 209.543 44.2787 209.914 44.2787C210.436 44.2787 210.867 44.3668 211.207 44.543C211.553 44.7193 211.811 44.9584 211.981 45.2605C212.158 45.5626 212.246 45.9024 212.246 46.28C212.246 46.5758 212.189 46.8495 212.076 47.1013C211.963 47.3467 211.799 47.5859 211.585 47.8187C211.371 48.0453 211.113 48.2781 210.811 48.5173L209.47 49.8766H212.161C212.23 49.8766 212.283 49.8987 212.321 49.9427C212.365 49.9805 212.387 50.034 212.387 50.1032V50.7734C212.387 50.8364 212.365 50.8899 212.321 50.9339C212.283 50.978 212.23 51 212.161 51H207.648ZM216.674 51.1038C216.133 51.1038 215.677 51.0157 215.306 50.8395C214.934 50.657 214.651 50.421 214.456 50.1315C214.267 49.842 214.166 49.5337 214.154 49.2064C214.148 49.1498 214.163 49.1057 214.201 49.0742C214.245 49.0365 214.296 49.0176 214.352 49.0176H215.23C215.299 49.0176 215.356 49.0333 215.4 49.0648C215.45 49.09 215.488 49.1372 215.513 49.2064C215.576 49.3952 215.664 49.5494 215.778 49.669C215.897 49.7885 216.032 49.8766 216.184 49.9333C216.341 49.9899 216.504 50.0182 216.674 50.0182C216.901 50.0182 217.105 49.9742 217.288 49.8861C217.477 49.7917 217.628 49.6532 217.741 49.4707C217.854 49.2882 217.911 49.0648 217.911 48.8005C217.911 48.5676 217.858 48.3662 217.751 48.1963C217.644 48.0264 217.496 47.8942 217.307 47.7998C217.124 47.6991 216.914 47.6488 216.674 47.6488C216.498 47.6488 216.353 47.6708 216.24 47.7149C216.127 47.7589 216.029 47.8093 215.948 47.8659C215.872 47.9226 215.803 47.9729 215.74 48.017C215.683 48.061 215.617 48.083 215.542 48.083H214.673C214.616 48.083 214.566 48.0642 214.522 48.0264C214.484 47.9823 214.465 47.932 214.465 47.8754L214.796 44.6469C214.802 44.5651 214.83 44.5021 214.881 44.4581C214.931 44.414 214.991 44.392 215.06 44.392H218.61C218.673 44.392 218.726 44.414 218.77 44.4581C218.814 44.5021 218.836 44.5556 218.836 44.6186V45.251C218.836 45.314 218.814 45.3675 218.77 45.4115C218.726 45.4556 218.673 45.4776 218.61 45.4776H215.881L215.73 47.0163C215.844 46.9408 215.995 46.8684 216.184 46.7992C216.372 46.73 216.633 46.6954 216.967 46.6954C217.269 46.6954 217.555 46.7457 217.826 46.8464C218.103 46.9408 218.348 47.0824 218.562 47.2712C218.776 47.4537 218.943 47.6771 219.063 47.9414C219.189 48.1995 219.252 48.4953 219.252 48.8288C219.252 49.2882 219.145 49.6878 218.931 50.0277C218.717 50.3675 218.418 50.6318 218.034 50.8206C217.65 51.0094 217.197 51.1038 216.674 51.1038Z" fill="white"/>
<path d="M254.07 51C254.007 51 253.954 50.978 253.91 50.9339C253.866 50.8899 253.844 50.8364 253.844 50.7734V50.292C253.844 50.2354 253.856 50.1693 253.881 50.0938C253.913 50.0119 253.979 49.9301 254.08 49.8483L255.571 48.3662C255.987 48.039 256.32 47.7621 256.572 47.5355C256.83 47.3027 257.016 47.0918 257.129 46.903C257.248 46.7079 257.308 46.516 257.308 46.3272C257.308 46.044 257.23 45.8143 257.072 45.6381C256.921 45.4619 256.679 45.3738 256.345 45.3738C256.125 45.3738 255.939 45.421 255.788 45.5154C255.637 45.6035 255.518 45.723 255.43 45.8741C255.348 46.0251 255.291 46.1919 255.26 46.3744C255.247 46.4562 255.212 46.5129 255.156 46.5443C255.099 46.5758 255.043 46.5915 254.986 46.5915H254.146C254.089 46.5915 254.042 46.5726 254.004 46.5349C253.966 46.4971 253.948 46.4531 253.948 46.4027C253.954 46.1321 254.01 45.8709 254.117 45.6192C254.224 45.3612 254.379 45.1346 254.58 44.9395C254.788 44.7381 255.039 44.5777 255.335 44.4581C255.631 44.3385 255.965 44.2787 256.336 44.2787C256.858 44.2787 257.289 44.3668 257.629 44.543C257.975 44.7193 258.233 44.9584 258.403 45.2605C258.579 45.5626 258.668 45.9024 258.668 46.28C258.668 46.5758 258.611 46.8495 258.498 47.1013C258.384 47.3467 258.221 47.5859 258.007 47.8187C257.793 48.0453 257.535 48.2781 257.233 48.5173L255.892 49.8766H258.583C258.652 49.8766 258.705 49.8987 258.743 49.9427C258.787 49.9805 258.809 50.034 258.809 50.1032V50.7734C258.809 50.8364 258.787 50.8899 258.743 50.9339C258.705 50.978 258.652 51 258.583 51H254.07ZM263.219 51.0944C262.678 51.0944 262.212 50.9937 261.822 50.7923C261.432 50.5846 261.13 50.3077 260.916 49.9616C260.702 49.6092 260.595 49.2158 260.595 48.7816C260.595 48.5865 260.62 48.3977 260.67 48.2152C260.72 48.0327 260.787 47.8596 260.868 47.696C260.95 47.5324 261.029 47.3876 261.104 47.2618C261.186 47.1296 261.259 47.0258 261.322 46.9502L263.049 44.5808C263.074 44.5493 263.112 44.5116 263.162 44.4675C263.213 44.4172 263.282 44.392 263.37 44.392H264.248C264.305 44.392 264.352 44.414 264.39 44.4581C264.427 44.4958 264.446 44.543 264.446 44.5997C264.446 44.6249 264.44 44.65 264.427 44.6752C264.421 44.6941 264.412 44.7098 264.399 44.7224L263.077 46.5538C263.134 46.5349 263.2 46.5223 263.276 46.516C263.351 46.5097 263.42 46.5066 263.483 46.5066C263.798 46.5129 264.097 46.5758 264.38 46.6954C264.663 46.8086 264.912 46.966 265.126 47.1674C265.34 47.3687 265.507 47.6047 265.626 47.8754C265.752 48.146 265.815 48.4418 265.815 48.7627C265.815 49.1781 265.711 49.5651 265.503 49.9238C265.296 50.2763 264.997 50.5595 264.607 50.7734C264.223 50.9874 263.76 51.0944 263.219 51.0944ZM263.21 50.0088C263.436 50.0088 263.644 49.9616 263.833 49.8672C264.028 49.7728 264.185 49.6343 264.305 49.4518C264.424 49.2693 264.484 49.0428 264.484 48.7722C264.484 48.5078 264.424 48.2844 264.305 48.1019C264.185 47.9194 264.028 47.781 263.833 47.6866C263.644 47.5922 263.436 47.545 263.21 47.545C262.983 47.545 262.772 47.5922 262.577 47.6866C262.388 47.781 262.234 47.9194 262.114 48.1019C261.995 48.2844 261.935 48.5078 261.935 48.7722C261.935 49.0428 261.995 49.2693 262.114 49.4518C262.234 49.6343 262.388 49.7728 262.577 49.8672C262.772 49.9616 262.983 50.0088 263.21 50.0088Z" fill="white"/>
<path d="M300.422 51C300.359 51 300.305 50.978 300.261 50.9339C300.217 50.8899 300.195 50.8364 300.195 50.7734V50.292C300.195 50.2354 300.208 50.1693 300.233 50.0938C300.264 50.0119 300.33 49.9301 300.431 49.8483L301.923 48.3662C302.338 48.039 302.672 47.7621 302.923 47.5355C303.181 47.3027 303.367 47.0918 303.48 46.903C303.6 46.7079 303.66 46.516 303.66 46.3272C303.66 46.044 303.581 45.8143 303.424 45.6381C303.273 45.4619 303.03 45.3738 302.697 45.3738C302.477 45.3738 302.291 45.421 302.14 45.5154C301.989 45.6035 301.869 45.723 301.781 45.8741C301.699 46.0251 301.643 46.1919 301.611 46.3744C301.599 46.4562 301.564 46.5129 301.507 46.5443C301.451 46.5758 301.394 46.5915 301.337 46.5915H300.497C300.441 46.5915 300.393 46.5726 300.356 46.5349C300.318 46.4971 300.299 46.4531 300.299 46.4027C300.305 46.1321 300.362 45.8709 300.469 45.6192C300.576 45.3612 300.73 45.1346 300.932 44.9395C301.139 44.7381 301.391 44.5777 301.687 44.4581C301.982 44.3385 302.316 44.2787 302.687 44.2787C303.21 44.2787 303.641 44.3668 303.981 44.543C304.327 44.7193 304.585 44.9584 304.755 45.2605C304.931 45.5626 305.019 45.9024 305.019 46.28C305.019 46.5758 304.962 46.8495 304.849 47.1013C304.736 47.3467 304.572 47.5859 304.358 47.8187C304.144 48.0453 303.886 48.2781 303.584 48.5173L302.244 49.8766H304.934C305.003 49.8766 305.057 49.8987 305.095 49.9427C305.139 49.9805 305.161 50.034 305.161 50.1032V50.7734C305.161 50.8364 305.139 50.8899 305.095 50.9339C305.057 50.978 305.003 51 304.934 51H300.422ZM307.928 51C307.871 51 307.824 50.9811 307.786 50.9434C307.749 50.8993 307.73 50.849 307.73 50.7923C307.73 50.7671 307.736 50.7388 307.749 50.7074L310.024 45.5154H307.059C306.99 45.5154 306.934 45.4933 306.889 45.4493C306.852 45.4052 306.833 45.3517 306.833 45.2888V44.628C306.833 44.5588 306.852 44.5021 306.889 44.4581C306.934 44.414 306.99 44.392 307.059 44.392H311.204C311.273 44.392 311.326 44.414 311.364 44.4581C311.408 44.5021 311.43 44.5588 311.43 44.628V45.2133C311.43 45.3014 311.421 45.3769 311.402 45.4398C311.389 45.4965 311.37 45.5563 311.345 45.6192L309.089 50.7734C309.07 50.8175 309.035 50.8678 308.985 50.9245C308.941 50.9748 308.875 51 308.787 51H307.928Z" fill="white"/>
<path d="M345.841 51C345.778 51 345.725 50.978 345.681 50.9339C345.637 50.8899 345.615 50.8364 345.615 50.7734V50.292C345.615 50.2354 345.627 50.1693 345.652 50.0938C345.684 50.0119 345.75 49.9301 345.851 49.8483L347.342 48.3662C347.757 48.039 348.091 47.7621 348.343 47.5355C348.601 47.3027 348.786 47.0918 348.9 46.903C349.019 46.7079 349.079 46.516 349.079 46.3272C349.079 46.044 349 45.8143 348.843 45.6381C348.692 45.4619 348.45 45.3738 348.116 45.3738C347.896 45.3738 347.71 45.421 347.559 45.5154C347.408 45.6035 347.289 45.723 347.201 45.8741C347.119 46.0251 347.062 46.1919 347.031 46.3744C347.018 46.4562 346.983 46.5129 346.927 46.5443C346.87 46.5758 346.813 46.5915 346.757 46.5915H345.917C345.86 46.5915 345.813 46.5726 345.775 46.5349C345.737 46.4971 345.718 46.4531 345.718 46.4027C345.725 46.1321 345.781 45.8709 345.888 45.6192C345.995 45.3612 346.15 45.1346 346.351 44.9395C346.559 44.7381 346.81 44.5777 347.106 44.4581C347.402 44.3385 347.735 44.2787 348.107 44.2787C348.629 44.2787 349.06 44.3668 349.4 44.543C349.746 44.7193 350.004 44.9584 350.174 45.2605C350.35 45.5626 350.438 45.9024 350.438 46.28C350.438 46.5758 350.382 46.8495 350.269 47.1013C350.155 47.3467 349.992 47.5859 349.778 47.8187C349.564 48.0453 349.306 48.2781 349.004 48.5173L347.663 49.8766H350.353C350.423 49.8766 350.476 49.8987 350.514 49.9427C350.558 49.9805 350.58 50.034 350.58 50.1032V50.7734C350.58 50.8364 350.558 50.8899 350.514 50.9339C350.476 50.978 350.423 51 350.353 51H345.841ZM355.075 51.0944C354.659 51.0944 354.288 51.0441 353.961 50.9434C353.634 50.8427 353.357 50.7011 353.13 50.5186C352.91 50.3361 352.74 50.1221 352.62 49.8766C352.507 49.6312 352.45 49.3574 352.45 49.0554C352.45 48.6903 352.539 48.3757 352.715 48.1114C352.897 47.8407 353.133 47.6331 353.423 47.4883C353.19 47.3436 353.007 47.1579 352.875 46.9314C352.749 46.7048 352.686 46.4405 352.686 46.1384C352.686 45.7734 352.778 45.4556 352.96 45.185C353.149 44.9081 353.42 44.6909 353.772 44.5336C354.131 44.3763 354.565 44.2976 355.075 44.2976C355.585 44.2976 356.016 44.3763 356.368 44.5336C356.721 44.6846 356.988 44.8986 357.17 45.1755C357.353 45.4461 357.444 45.7639 357.444 46.129C357.444 46.431 357.381 46.6954 357.255 46.9219C357.13 47.1485 356.953 47.3373 356.727 47.4883C357.023 47.6268 357.259 47.8345 357.435 48.1114C357.611 48.382 357.699 48.6998 357.699 49.0648C357.699 49.4613 357.595 49.8137 357.388 50.1221C357.186 50.4242 356.887 50.6633 356.491 50.8395C356.101 51.0094 355.629 51.0944 355.075 51.0944ZM355.075 50.1126C355.32 50.1126 355.541 50.0717 355.736 49.9899C355.937 49.9018 356.094 49.7791 356.208 49.6218C356.327 49.4644 356.387 49.2788 356.387 49.0648C356.387 48.8445 356.327 48.6589 356.208 48.5078C356.094 48.3505 355.937 48.2309 355.736 48.1491C355.541 48.061 355.32 48.017 355.075 48.017C354.829 48.017 354.606 48.061 354.405 48.1491C354.209 48.2309 354.052 48.3505 353.933 48.5078C353.819 48.6589 353.763 48.8445 353.763 49.0648C353.763 49.2788 353.819 49.4644 353.933 49.6218C354.052 49.7791 354.209 49.9018 354.405 49.9899C354.606 50.0717 354.829 50.1126 355.075 50.1126ZM355.075 47.0824C355.282 47.0761 355.471 47.0352 355.641 46.9597C355.817 46.8842 355.956 46.7835 356.057 46.6576C356.164 46.5254 356.217 46.3681 356.217 46.1856C356.217 46.0031 356.167 45.8458 356.066 45.7136C355.972 45.5751 355.836 45.4682 355.66 45.3926C355.49 45.3171 355.295 45.2794 355.075 45.2794C354.855 45.2794 354.656 45.3171 354.48 45.3926C354.31 45.4682 354.175 45.5751 354.074 45.7136C353.98 45.8458 353.933 46.0031 353.933 46.1856C353.933 46.3681 353.98 46.5254 354.074 46.6576C354.175 46.7898 354.31 46.8936 354.48 46.9691C354.656 47.0446 354.855 47.0824 355.075 47.0824Z" fill="white"/>
<path d="M392.481 51C392.418 51 392.364 50.978 392.32 50.9339C392.276 50.8899 392.254 50.8364 392.254 50.7734V50.292C392.254 50.2354 392.267 50.1693 392.292 50.0938C392.323 50.0119 392.389 49.9301 392.49 49.8483L393.982 48.3662C394.397 48.039 394.73 47.7621 394.982 47.5355C395.24 47.3027 395.426 47.0918 395.539 46.903C395.659 46.7079 395.719 46.516 395.719 46.3272C395.719 46.044 395.64 45.8143 395.483 45.6381C395.331 45.4619 395.089 45.3738 394.756 45.3738C394.535 45.3738 394.35 45.421 394.199 45.5154C394.048 45.6035 393.928 45.723 393.84 45.8741C393.758 46.0251 393.702 46.1919 393.67 46.3744C393.657 46.4562 393.623 46.5129 393.566 46.5443C393.51 46.5758 393.453 46.5915 393.396 46.5915H392.556C392.499 46.5915 392.452 46.5726 392.415 46.5349C392.377 46.4971 392.358 46.4531 392.358 46.4027C392.364 46.1321 392.421 45.8709 392.528 45.6192C392.635 45.3612 392.789 45.1346 392.99 44.9395C393.198 44.7381 393.45 44.5777 393.746 44.4581C394.041 44.3385 394.375 44.2787 394.746 44.2787C395.269 44.2787 395.7 44.3668 396.039 44.543C396.386 44.7193 396.644 44.9584 396.814 45.2605C396.99 45.5626 397.078 45.9024 397.078 46.28C397.078 46.5758 397.021 46.8495 396.908 47.1013C396.795 47.3467 396.631 47.5859 396.417 47.8187C396.203 48.0453 395.945 48.2781 395.643 48.5173L394.303 49.8766H396.993C397.062 49.8766 397.116 49.8987 397.153 49.9427C397.197 49.9805 397.219 50.034 397.219 50.1032V50.7734C397.219 50.8364 397.197 50.8899 397.153 50.9339C397.116 50.978 397.062 51 396.993 51H392.481ZM400.355 51C400.298 51 400.251 50.9811 400.213 50.9434C400.176 50.8993 400.157 50.849 400.157 50.7923C400.157 50.7609 400.16 50.7357 400.166 50.7168C400.179 50.6979 400.188 50.6822 400.194 50.6696L401.582 48.7533C401.456 48.7847 401.324 48.7973 401.186 48.791C400.871 48.7847 400.575 48.725 400.298 48.6117C400.028 48.4921 399.788 48.3348 399.581 48.1397C399.379 47.9383 399.219 47.7086 399.099 47.4506C398.986 47.1862 398.929 46.8999 398.929 46.5915C398.929 46.3083 398.983 46.0314 399.09 45.7608C399.197 45.4839 399.354 45.2353 399.562 45.015C399.776 44.7948 400.04 44.6217 400.355 44.4958C400.676 44.3637 401.05 44.2976 401.478 44.2976C401.9 44.2976 402.271 44.3574 402.592 44.477C402.913 44.5965 403.181 44.7633 403.395 44.9773C403.615 45.185 403.778 45.4241 403.885 45.6947C403.999 45.9653 404.055 46.2517 404.055 46.5538C404.055 46.8244 404.011 47.0761 403.923 47.309C403.835 47.5418 403.725 47.7558 403.593 47.9509C403.467 48.1397 403.341 48.3253 403.215 48.5078L401.554 50.8112C401.529 50.8427 401.491 50.8836 401.44 50.9339C401.396 50.978 401.327 51 401.233 51H400.355ZM401.488 47.7904C401.714 47.7904 401.919 47.7432 402.101 47.6488C402.29 47.5481 402.438 47.4097 402.545 47.2334C402.658 47.0509 402.715 46.837 402.715 46.5915C402.715 46.3398 402.658 46.1258 402.545 45.9496C402.438 45.7671 402.29 45.6286 402.101 45.5342C401.912 45.4335 401.708 45.3832 401.488 45.3832C401.261 45.3832 401.053 45.4335 400.865 45.5342C400.682 45.6286 400.534 45.7671 400.421 45.9496C400.314 46.1258 400.26 46.3398 400.26 46.5915C400.26 46.837 400.314 47.0509 400.421 47.2334C400.534 47.4097 400.682 47.5481 400.865 47.6488C401.053 47.7432 401.261 47.7904 401.488 47.7904Z" fill="white"/>
<path d="M441.48 51.0944C441.039 51.0944 440.658 51.0409 440.337 50.9339C440.016 50.8269 439.749 50.6885 439.535 50.5186C439.327 50.3423 439.17 50.1535 439.063 49.9522C438.956 49.7445 438.899 49.5399 438.893 49.3386C438.893 49.2819 438.912 49.2379 438.95 49.2064C438.994 49.1686 439.044 49.1498 439.101 49.1498H439.95C440.013 49.1498 440.067 49.1623 440.111 49.1875C440.155 49.2127 440.193 49.263 440.224 49.3386C440.281 49.5085 440.372 49.6438 440.498 49.7445C440.63 49.8452 440.781 49.9175 440.951 49.9616C441.121 49.9994 441.3 50.0182 441.489 50.0182C441.867 50.0182 442.165 49.9301 442.386 49.7539C442.612 49.5714 442.726 49.3134 442.726 48.9798C442.726 48.6463 442.622 48.4071 442.414 48.2624C442.206 48.1114 441.917 48.0358 441.546 48.0358H440.573C440.504 48.0358 440.447 48.017 440.403 47.9792C440.359 47.9351 440.337 47.8785 440.337 47.8093V47.4128C440.337 47.3499 440.35 47.2964 440.375 47.2523C440.406 47.202 440.438 47.1611 440.469 47.1296L442.159 45.4776H439.459C439.39 45.4776 439.333 45.4556 439.289 45.4115C439.252 45.3675 439.233 45.314 439.233 45.251V44.628C439.233 44.5588 439.252 44.5021 439.289 44.4581C439.333 44.414 439.39 44.392 439.459 44.392H443.509C443.578 44.392 443.635 44.414 443.679 44.4581C443.723 44.5021 443.745 44.5588 443.745 44.628V45.1944C443.745 45.251 443.733 45.3014 443.707 45.3454C443.682 45.3895 443.654 45.4273 443.622 45.4587L441.989 47.139L442.103 47.1485C442.486 47.1799 442.826 47.2681 443.122 47.4128C443.424 47.5513 443.657 47.7558 443.821 48.0264C443.991 48.297 444.076 48.6369 444.076 49.0459C444.076 49.4739 443.962 49.842 443.736 50.1504C443.515 50.4525 443.21 50.6853 442.82 50.849C442.43 51.0126 441.983 51.0944 441.48 51.0944ZM448.53 51.0944C448.083 51.0944 447.703 51.0283 447.388 50.8962C447.073 50.764 446.815 50.5815 446.614 50.3486C446.412 50.1158 446.261 49.8483 446.161 49.5462C446.06 49.2379 446 48.9106 445.981 48.5645C445.975 48.3946 445.969 48.2089 445.962 48.0075C445.962 47.7998 445.962 47.5922 445.962 47.3845C445.969 47.1768 445.975 46.9849 445.981 46.8086C445.994 46.4625 446.054 46.1384 446.161 45.8363C446.268 45.5279 446.422 45.2605 446.623 45.0339C446.831 44.8074 447.092 44.628 447.407 44.4958C447.721 44.3637 448.096 44.2976 448.53 44.2976C448.971 44.2976 449.348 44.3637 449.663 44.4958C449.978 44.628 450.236 44.8074 450.437 45.0339C450.645 45.2605 450.799 45.5279 450.9 45.8363C451.007 46.1384 451.066 46.4625 451.079 46.8086C451.091 46.9849 451.098 47.1768 451.098 47.3845C451.098 47.5922 451.098 47.7998 451.098 48.0075C451.098 48.2089 451.091 48.3946 451.079 48.5645C451.066 48.9106 451.01 49.2379 450.909 49.5462C450.808 49.8483 450.657 50.1158 450.456 50.3486C450.254 50.5815 449.993 50.764 449.672 50.8962C449.358 51.0283 448.977 51.0944 448.53 51.0944ZM448.53 50.0088C448.939 50.0088 449.238 49.8766 449.427 49.6123C449.622 49.3417 449.723 48.9767 449.729 48.5173C449.742 48.3348 449.748 48.1523 449.748 47.9698C449.748 47.781 449.748 47.5922 449.748 47.4034C449.748 47.2146 449.742 47.0352 449.729 46.8653C449.723 46.4185 449.622 46.0597 449.427 45.7891C449.238 45.5122 448.939 45.3738 448.53 45.3738C448.127 45.3738 447.828 45.5122 447.633 45.7891C447.444 46.0597 447.344 46.4185 447.331 46.8653C447.331 47.0352 447.328 47.2146 447.322 47.4034C447.322 47.5922 447.322 47.781 447.322 47.9698C447.328 48.1523 447.331 48.3348 447.331 48.5173C447.344 48.9767 447.448 49.3417 447.643 49.6123C447.838 49.8766 448.134 50.0088 448.53 50.0088Z" fill="white"/>
<path d="M488.925 51.0944C488.484 51.0944 488.103 51.0409 487.782 50.9339C487.461 50.8269 487.194 50.6885 486.98 50.5186C486.772 50.3423 486.615 50.1535 486.508 49.9522C486.401 49.7445 486.344 49.5399 486.338 49.3386C486.338 49.2819 486.357 49.2379 486.395 49.2064C486.439 49.1686 486.489 49.1498 486.546 49.1498H487.395C487.458 49.1498 487.512 49.1623 487.556 49.1875C487.6 49.2127 487.638 49.263 487.669 49.3386C487.726 49.5085 487.817 49.6438 487.943 49.7445C488.075 49.8452 488.226 49.9175 488.396 49.9616C488.566 49.9994 488.745 50.0182 488.934 50.0182C489.312 50.0182 489.611 49.9301 489.831 49.7539C490.057 49.5714 490.171 49.3134 490.171 48.9798C490.171 48.6463 490.067 48.4071 489.859 48.2624C489.652 48.1114 489.362 48.0358 488.991 48.0358H488.018C487.949 48.0358 487.893 48.017 487.848 47.9792C487.804 47.9351 487.782 47.8785 487.782 47.8093V47.4128C487.782 47.3499 487.795 47.2964 487.82 47.2523C487.852 47.202 487.883 47.1611 487.915 47.1296L489.604 45.4776H486.904C486.835 45.4776 486.779 45.4556 486.735 45.4115C486.697 45.3675 486.678 45.314 486.678 45.251V44.628C486.678 44.5588 486.697 44.5021 486.735 44.4581C486.779 44.414 486.835 44.392 486.904 44.392H490.954C491.023 44.392 491.08 44.414 491.124 44.4581C491.168 44.5021 491.19 44.5588 491.19 44.628V45.1944C491.19 45.251 491.178 45.3014 491.152 45.3454C491.127 45.3895 491.099 45.4273 491.068 45.4587L489.434 47.139L489.548 47.1485C489.932 47.1799 490.271 47.2681 490.567 47.4128C490.869 47.5513 491.102 47.7558 491.266 48.0264C491.436 48.297 491.521 48.6369 491.521 49.0459C491.521 49.4739 491.407 49.842 491.181 50.1504C490.961 50.4525 490.655 50.6853 490.265 50.849C489.875 51.0126 489.428 51.0944 488.925 51.0944ZM495.346 51C495.277 51 495.22 50.978 495.176 50.9339C495.139 50.8899 495.12 50.8364 495.12 50.7734V45.8835L493.685 46.988C493.628 47.0258 493.572 47.0415 493.515 47.0352C493.458 47.0226 493.408 46.988 493.364 46.9314L492.967 46.4216C492.93 46.365 492.914 46.3052 492.92 46.2422C492.933 46.1793 492.967 46.129 493.024 46.0912L495.139 44.4581C495.176 44.4266 495.214 44.4077 495.252 44.4014C495.29 44.3951 495.331 44.392 495.375 44.392H496.205C496.268 44.392 496.322 44.414 496.366 44.4581C496.41 44.5021 496.432 44.5556 496.432 44.6186V50.7734C496.432 50.8364 496.41 50.8899 496.366 50.9339C496.322 50.978 496.268 51 496.205 51H495.346Z" fill="white"/>
<path d="M534.337 51.0944C533.891 51.0944 533.51 51.0283 533.195 50.8962C532.88 50.764 532.622 50.5815 532.421 50.3486C532.22 50.1158 532.069 49.8483 531.968 49.5462C531.867 49.2379 531.807 48.9106 531.789 48.5645C531.782 48.3946 531.776 48.2089 531.77 48.0075C531.77 47.7998 531.77 47.5922 531.77 47.3845C531.776 47.1768 531.782 46.9849 531.789 46.8086C531.801 46.4625 531.861 46.1384 531.968 45.8363C532.075 45.5279 532.229 45.2605 532.43 45.0339C532.638 44.8074 532.899 44.628 533.214 44.4958C533.529 44.3637 533.903 44.2976 534.337 44.2976C534.778 44.2976 535.156 44.3637 535.47 44.4958C535.785 44.628 536.043 44.8074 536.244 45.0339C536.452 45.2605 536.606 45.5279 536.707 45.8363C536.814 46.1384 536.874 46.4625 536.886 46.8086C536.899 46.9849 536.905 47.1768 536.905 47.3845C536.905 47.5922 536.905 47.7998 536.905 48.0075C536.905 48.2089 536.899 48.3946 536.886 48.5645C536.874 48.9106 536.817 49.2379 536.716 49.5462C536.616 49.8483 536.465 50.1158 536.263 50.3486C536.062 50.5815 535.801 50.764 535.48 50.8962C535.165 51.0283 534.784 51.0944 534.337 51.0944ZM534.337 50.0088C534.746 50.0088 535.045 49.8766 535.234 49.6123C535.429 49.3417 535.53 48.9767 535.536 48.5173C535.549 48.3348 535.555 48.1523 535.555 47.9698C535.555 47.781 535.555 47.5922 535.555 47.4034C535.555 47.2146 535.549 47.0352 535.536 46.8653C535.53 46.4185 535.429 46.0597 535.234 45.7891C535.045 45.5122 534.746 45.3738 534.337 45.3738C533.935 45.3738 533.636 45.5122 533.441 45.7891C533.252 46.0597 533.151 46.4185 533.138 46.8653C533.138 47.0352 533.135 47.2146 533.129 47.4034C533.129 47.5922 533.129 47.781 533.129 47.9698C533.135 48.1523 533.138 48.3348 533.138 48.5173C533.151 48.9767 533.255 49.3417 533.45 49.6123C533.645 49.8766 533.941 50.0088 534.337 50.0088ZM541.004 51C540.935 51 540.878 50.978 540.834 50.9339C540.796 50.8899 540.778 50.8364 540.778 50.7734V45.8835L539.343 46.988C539.286 47.0258 539.229 47.0415 539.173 47.0352C539.116 47.0226 539.066 46.988 539.022 46.9314L538.625 46.4216C538.588 46.365 538.572 46.3052 538.578 46.2422C538.591 46.1793 538.625 46.129 538.682 46.0912L540.796 44.4581C540.834 44.4266 540.872 44.4077 540.91 44.4014C540.948 44.3951 540.988 44.392 541.032 44.392H541.863C541.926 44.392 541.98 44.414 542.024 44.4581C542.068 44.5021 542.09 44.5556 542.09 44.6186V50.7734C542.09 50.8364 542.068 50.8899 542.024 50.9339C541.98 50.978 541.926 51 541.863 51H541.004Z" fill="white"/>
<path d="M179.291 28.0944C178.706 28.0944 178.209 27.9937 177.8 27.7923C177.397 27.5846 177.089 27.292 176.875 26.9144C176.661 26.5305 176.541 26.0711 176.516 25.5362C176.51 25.2781 176.506 25.0012 176.506 24.7054C176.506 24.4097 176.51 24.1265 176.516 23.8558C176.541 23.3272 176.661 22.8709 176.875 22.487C177.095 22.1031 177.406 21.8105 177.809 21.6091C178.218 21.4014 178.712 21.2976 179.291 21.2976C179.719 21.2976 180.103 21.3542 180.443 21.4675C180.783 21.5808 181.072 21.7381 181.311 21.9395C181.551 22.1346 181.736 22.3643 181.868 22.6286C182.001 22.893 182.07 23.1793 182.076 23.4877C182.082 23.5443 182.063 23.5915 182.019 23.6293C181.982 23.667 181.934 23.6859 181.878 23.6859H180.981C180.912 23.6859 180.855 23.6702 180.811 23.6387C180.767 23.601 180.736 23.5412 180.717 23.4594C180.616 23.044 180.443 22.7608 180.197 22.6098C179.952 22.4587 179.647 22.3832 179.282 22.3832C178.86 22.3832 178.523 22.5028 178.272 22.7419C178.02 22.9748 177.885 23.3618 177.866 23.903C177.847 24.4191 177.847 24.9477 177.866 25.489C177.885 26.0302 178.02 26.4204 178.272 26.6595C178.523 26.8924 178.86 27.0088 179.282 27.0088C179.647 27.0088 179.952 26.9333 180.197 26.7822C180.443 26.6249 180.616 26.3417 180.717 25.9326C180.736 25.8445 180.767 25.7847 180.811 25.7533C180.855 25.7218 180.912 25.7061 180.981 25.7061H181.878C181.934 25.7061 181.982 25.725 182.019 25.7627C182.063 25.8005 182.082 25.8477 182.076 25.9043C182.07 26.2127 182.001 26.499 181.868 26.7634C181.736 27.0277 181.551 27.2605 181.311 27.4619C181.072 27.657 180.783 27.8112 180.443 27.9245C180.103 28.0378 179.719 28.0944 179.291 28.0944ZM185.225 28C185.131 28 185.055 27.9748 184.999 27.9245C184.948 27.8678 184.914 27.7986 184.895 27.7168L183.771 21.6658C183.771 21.6469 183.768 21.6311 183.762 21.6186C183.762 21.606 183.762 21.5965 183.762 21.5902C183.762 21.5336 183.781 21.4864 183.819 21.4486C183.863 21.4109 183.91 21.392 183.96 21.392H184.791C184.948 21.392 185.036 21.4549 185.055 21.5808L185.839 25.8571L186.688 23.0912C186.707 23.0409 186.739 22.9905 186.783 22.9402C186.833 22.8835 186.905 22.8552 187 22.8552H187.51C187.61 22.8552 187.683 22.8835 187.727 22.9402C187.771 22.9905 187.799 23.0409 187.812 23.0912L188.671 25.8477L189.454 21.5808C189.473 21.4549 189.561 21.392 189.719 21.392H190.549C190.6 21.392 190.644 21.4109 190.681 21.4486C190.719 21.4864 190.738 21.5336 190.738 21.5902C190.738 21.5965 190.738 21.606 190.738 21.6186C190.738 21.6311 190.735 21.6469 190.729 21.6658L189.605 27.7168C189.593 27.7986 189.558 27.8678 189.501 27.9245C189.445 27.9748 189.369 28 189.275 28H188.642C188.548 28 188.473 27.9748 188.416 27.9245C188.366 27.8741 188.331 27.8206 188.312 27.764L187.255 24.611L186.197 27.764C186.172 27.8206 186.135 27.8741 186.084 27.9245C186.034 27.9748 185.958 28 185.858 28H185.225ZM194.99 28.0944C194.549 28.0944 194.169 28.0409 193.848 27.9339C193.527 27.8269 193.259 27.6885 193.045 27.5186C192.838 27.3423 192.68 27.1535 192.573 26.9522C192.466 26.7445 192.41 26.5399 192.403 26.3386C192.403 26.2819 192.422 26.2379 192.46 26.2064C192.504 26.1686 192.554 26.1498 192.611 26.1498H193.461C193.524 26.1498 193.577 26.1623 193.621 26.1875C193.665 26.2127 193.703 26.263 193.734 26.3386C193.791 26.5085 193.882 26.6438 194.008 26.7445C194.14 26.8452 194.291 26.9175 194.461 26.9616C194.631 26.9994 194.811 27.0182 194.999 27.0182C195.377 27.0182 195.676 26.9301 195.896 26.7539C196.123 26.5714 196.236 26.3134 196.236 25.9798C196.236 25.6463 196.132 25.4071 195.925 25.2624C195.717 25.1114 195.427 25.0358 195.056 25.0358H194.084C194.014 25.0358 193.958 25.017 193.914 24.9792C193.87 24.9351 193.848 24.8785 193.848 24.8093V24.4128C193.848 24.3499 193.86 24.2964 193.885 24.2523C193.917 24.202 193.948 24.1611 193.98 24.1296L195.67 22.4776H192.97C192.901 22.4776 192.844 22.4556 192.8 22.4115C192.762 22.3675 192.743 22.314 192.743 22.251V21.628C192.743 21.5588 192.762 21.5021 192.8 21.4581C192.844 21.414 192.901 21.392 192.97 21.392H197.02C197.089 21.392 197.145 21.414 197.189 21.4581C197.234 21.5021 197.256 21.5588 197.256 21.628V22.1944C197.256 22.251 197.243 22.3014 197.218 22.3454C197.193 22.3895 197.164 22.4273 197.133 22.4587L195.5 24.139L195.613 24.1485C195.997 24.1799 196.337 24.2681 196.633 24.4128C196.935 24.5513 197.167 24.7558 197.331 25.0264C197.501 25.297 197.586 25.6369 197.586 26.0459C197.586 26.4739 197.473 26.842 197.246 27.1504C197.026 27.4525 196.721 27.6853 196.33 27.849C195.94 28.0126 195.493 28.0944 194.99 28.0944ZM201.833 28.1038C201.292 28.1038 200.835 28.0157 200.464 27.8395C200.093 27.657 199.81 27.421 199.614 27.1315C199.426 26.842 199.325 26.5337 199.312 26.2064C199.306 26.1498 199.322 26.1057 199.36 26.0742C199.404 26.0365 199.454 26.0176 199.511 26.0176H200.389C200.458 26.0176 200.514 26.0333 200.558 26.0648C200.609 26.09 200.647 26.1372 200.672 26.2064C200.735 26.3952 200.823 26.5494 200.936 26.669C201.056 26.7885 201.191 26.8766 201.342 26.9333C201.499 26.9899 201.663 27.0182 201.833 27.0182C202.059 27.0182 202.264 26.9742 202.446 26.8861C202.635 26.7917 202.786 26.6532 202.9 26.4707C203.013 26.2882 203.069 26.0648 203.069 25.8005C203.069 25.5676 203.016 25.3662 202.909 25.1963C202.802 25.0264 202.654 24.8942 202.465 24.7998C202.283 24.6991 202.072 24.6488 201.833 24.6488C201.657 24.6488 201.512 24.6708 201.399 24.7149C201.285 24.7589 201.188 24.8093 201.106 24.8659C201.03 24.9226 200.961 24.9729 200.898 25.017C200.842 25.061 200.776 25.083 200.7 25.083H199.832C199.775 25.083 199.725 25.0642 199.681 25.0264C199.643 24.9823 199.624 24.932 199.624 24.8754L199.954 21.6469C199.961 21.5651 199.989 21.5021 200.039 21.4581C200.09 21.414 200.149 21.392 200.219 21.392H203.768C203.831 21.392 203.884 21.414 203.929 21.4581C203.973 21.5021 203.995 21.5556 203.995 21.6186V22.251C203.995 22.314 203.973 22.3675 203.929 22.4115C203.884 22.4556 203.831 22.4776 203.768 22.4776H201.04L200.889 24.0163C201.002 23.9408 201.153 23.8684 201.342 23.7992C201.531 23.73 201.792 23.6954 202.125 23.6954C202.428 23.6954 202.714 23.7457 202.985 23.8464C203.261 23.9408 203.507 24.0824 203.721 24.2712C203.935 24.4537 204.102 24.6771 204.221 24.9414C204.347 25.1995 204.41 25.4953 204.41 25.8288C204.41 26.2882 204.303 26.6878 204.089 27.0277C203.875 27.3675 203.576 27.6318 203.192 27.8206C202.808 28.0094 202.355 28.1038 201.833 28.1038ZM208.612 28.0944C208.272 28.0944 207.948 28.0535 207.64 27.9717C207.337 27.8836 207.067 27.7514 206.828 27.5752C206.589 27.399 206.397 27.1819 206.252 26.9238C206.113 26.6658 206.041 26.3606 206.035 26.0082C206.035 25.9515 206.054 25.9043 206.091 25.8666C206.129 25.8225 206.176 25.8005 206.233 25.8005H207.13C207.212 25.8005 207.271 25.8225 207.309 25.8666C207.353 25.9106 207.388 25.9704 207.413 26.0459C207.444 26.2725 207.517 26.4581 207.63 26.6029C207.743 26.7413 207.885 26.8452 208.055 26.9144C208.231 26.9773 208.426 27.0088 208.64 27.0088C209.037 27.0088 209.339 26.8798 209.546 26.6218C209.76 26.3637 209.867 26.005 209.867 25.5456V22.5059H206.667C206.598 22.5059 206.541 22.4839 206.497 22.4398C206.46 22.3958 206.441 22.3423 206.441 22.2794V21.6186C206.441 21.5556 206.46 21.5021 206.497 21.4581C206.541 21.414 206.598 21.392 206.667 21.392H210.981C211.051 21.392 211.107 21.414 211.151 21.4581C211.195 21.5021 211.217 21.5588 211.217 21.628V25.5834C211.217 26.1057 211.107 26.5557 210.887 26.9333C210.673 27.3109 210.371 27.6004 209.981 27.8018C209.597 27.9969 209.141 28.0944 208.612 28.0944ZM216.214 28.0944C215.667 28.0944 215.192 28.0031 214.789 27.8206C214.386 27.6318 214.075 27.3455 213.854 26.9616C213.634 26.5714 213.524 26.0742 213.524 25.4701V21.628C213.524 21.5588 213.546 21.5021 213.59 21.4581C213.634 21.414 213.688 21.392 213.75 21.392H214.61C214.679 21.392 214.732 21.414 214.77 21.4581C214.814 21.5021 214.836 21.5588 214.836 21.628V25.4701C214.836 25.9861 214.959 26.37 215.204 26.6218C215.45 26.8672 215.786 26.9899 216.214 26.9899C216.642 26.9899 216.976 26.8672 217.215 26.6218C217.46 26.37 217.583 25.9861 217.583 25.4701V21.628C217.583 21.5588 217.605 21.5021 217.649 21.4581C217.693 21.414 217.75 21.392 217.819 21.392H218.669C218.738 21.392 218.791 21.414 218.829 21.4581C218.873 21.5021 218.895 21.5588 218.895 21.628V25.4701C218.895 26.0742 218.785 26.5714 218.565 26.9616C218.351 27.3455 218.043 27.6318 217.64 27.8206C217.243 28.0031 216.768 28.0944 216.214 28.0944ZM221.481 28C221.418 28 221.364 27.978 221.32 27.9339C221.276 27.8899 221.254 27.8364 221.254 27.7734V21.6186C221.254 21.5556 221.276 21.5021 221.32 21.4581C221.364 21.414 221.418 21.392 221.481 21.392H222.359C222.422 21.392 222.475 21.414 222.519 21.4581C222.563 21.5021 222.585 21.5556 222.585 21.6186V26.8766H225.578C225.647 26.8766 225.704 26.8987 225.748 26.9427C225.792 26.9868 225.814 27.0434 225.814 27.1126V27.7734C225.814 27.8364 225.792 27.8899 225.748 27.9339C225.704 27.978 225.647 28 225.578 28H221.481Z" fill="white"/>
<path d="M481.568 28.0944C480.982 28.0944 480.485 27.9937 480.076 27.7923C479.673 27.5846 479.365 27.292 479.151 26.9144C478.937 26.5305 478.817 26.0711 478.792 25.5362C478.786 25.2781 478.783 25.0012 478.783 24.7054C478.783 24.4097 478.786 24.1265 478.792 23.8558C478.817 23.3272 478.937 22.8709 479.151 22.487C479.371 22.1031 479.683 21.8105 480.085 21.6091C480.495 21.4014 480.989 21.2976 481.568 21.2976C481.996 21.2976 482.379 21.3542 482.719 21.4675C483.059 21.5808 483.349 21.7381 483.588 21.9395C483.827 22.1346 484.013 22.3643 484.145 22.6286C484.277 22.893 484.346 23.1793 484.352 23.4877C484.359 23.5443 484.34 23.5915 484.296 23.6293C484.258 23.667 484.211 23.6859 484.154 23.6859H483.257C483.188 23.6859 483.131 23.6702 483.087 23.6387C483.043 23.601 483.012 23.5412 482.993 23.4594C482.892 23.044 482.719 22.7608 482.474 22.6098C482.228 22.4587 481.923 22.3832 481.558 22.3832C481.136 22.3832 480.8 22.5028 480.548 22.7419C480.296 22.9748 480.161 23.3618 480.142 23.903C480.123 24.4191 480.123 24.9477 480.142 25.489C480.161 26.0302 480.296 26.4204 480.548 26.6595C480.8 26.8924 481.136 27.0088 481.558 27.0088C481.923 27.0088 482.228 26.9333 482.474 26.7822C482.719 26.6249 482.892 26.3417 482.993 25.9326C483.012 25.8445 483.043 25.7847 483.087 25.7533C483.131 25.7218 483.188 25.7061 483.257 25.7061H484.154C484.211 25.7061 484.258 25.725 484.296 25.7627C484.34 25.8005 484.359 25.8477 484.352 25.9043C484.346 26.2127 484.277 26.499 484.145 26.7634C484.013 27.0277 483.827 27.2605 483.588 27.4619C483.349 27.657 483.059 27.8112 482.719 27.9245C482.379 28.0378 481.996 28.0944 481.568 28.0944ZM487.501 28C487.407 28 487.332 27.9748 487.275 27.9245C487.225 27.8678 487.19 27.7986 487.171 27.7168L486.048 21.6658C486.048 21.6469 486.045 21.6311 486.038 21.6186C486.038 21.606 486.038 21.5965 486.038 21.5902C486.038 21.5336 486.057 21.4864 486.095 21.4486C486.139 21.4109 486.186 21.392 486.237 21.392H487.067C487.225 21.392 487.313 21.4549 487.332 21.5808L488.115 25.8571L488.965 23.0912C488.984 23.0409 489.015 22.9905 489.059 22.9402C489.109 22.8835 489.182 22.8552 489.276 22.8552H489.786C489.887 22.8552 489.959 22.8835 490.003 22.9402C490.047 22.9905 490.075 23.0409 490.088 23.0912L490.947 25.8477L491.731 21.5808C491.749 21.4549 491.838 21.392 491.995 21.392H492.826C492.876 21.392 492.92 21.4109 492.958 21.4486C492.996 21.4864 493.014 21.5336 493.014 21.5902C493.014 21.5965 493.014 21.606 493.014 21.6186C493.014 21.6311 493.011 21.6469 493.005 21.6658L491.882 27.7168C491.869 27.7986 491.834 27.8678 491.778 27.9245C491.721 27.9748 491.646 28 491.551 28H490.919C490.824 28 490.749 27.9748 490.692 27.9245C490.642 27.8741 490.607 27.8206 490.588 27.764L489.531 24.611L488.474 27.764C488.449 27.8206 488.411 27.8741 488.361 27.9245C488.31 27.9748 488.235 28 488.134 28H487.501ZM497.266 28.0944C496.826 28.0944 496.445 28.0409 496.124 27.9339C495.803 27.8269 495.536 27.6885 495.322 27.5186C495.114 27.3423 494.957 27.1535 494.85 26.9522C494.743 26.7445 494.686 26.5399 494.68 26.3386C494.68 26.2819 494.699 26.2379 494.736 26.2064C494.78 26.1686 494.831 26.1498 494.887 26.1498H495.737C495.8 26.1498 495.853 26.1623 495.897 26.1875C495.942 26.2127 495.979 26.263 496.011 26.3386C496.067 26.5085 496.159 26.6438 496.285 26.7445C496.417 26.8452 496.568 26.9175 496.738 26.9616C496.908 26.9994 497.087 27.0182 497.276 27.0182C497.653 27.0182 497.952 26.9301 498.173 26.7539C498.399 26.5714 498.512 26.3134 498.512 25.9798C498.512 25.6463 498.409 25.4071 498.201 25.2624C497.993 25.1114 497.704 25.0358 497.332 25.0358H496.36C496.291 25.0358 496.234 25.017 496.19 24.9792C496.146 24.9351 496.124 24.8785 496.124 24.8093V24.4128C496.124 24.3499 496.137 24.2964 496.162 24.2523C496.193 24.202 496.225 24.1611 496.256 24.1296L497.946 22.4776H495.246C495.177 22.4776 495.12 22.4556 495.076 22.4115C495.038 22.3675 495.02 22.314 495.02 22.251V21.628C495.02 21.5588 495.038 21.5021 495.076 21.4581C495.12 21.414 495.177 21.392 495.246 21.392H499.296C499.365 21.392 499.422 21.414 499.466 21.4581C499.51 21.5021 499.532 21.5588 499.532 21.628V22.1944C499.532 22.251 499.519 22.3014 499.494 22.3454C499.469 22.3895 499.441 22.4273 499.409 22.4587L497.776 24.139L497.889 24.1485C498.273 24.1799 498.613 24.2681 498.909 24.4128C499.211 24.5513 499.444 24.7558 499.607 25.0264C499.777 25.297 499.862 25.6369 499.862 26.0459C499.862 26.4739 499.749 26.842 499.522 27.1504C499.302 27.4525 498.997 27.6853 498.607 27.849C498.217 28.0126 497.77 28.0944 497.266 28.0944ZM504.232 28.0944C503.691 28.0944 503.225 27.9937 502.835 27.7923C502.445 27.5846 502.143 27.3077 501.929 26.9616C501.715 26.6092 501.608 26.2158 501.608 25.7816C501.608 25.5865 501.633 25.3977 501.683 25.2152C501.733 25.0327 501.8 24.8596 501.881 24.696C501.963 24.5324 502.042 24.3876 502.117 24.2618C502.199 24.1296 502.272 24.0258 502.334 23.9502L504.062 21.5808C504.087 21.5493 504.125 21.5116 504.175 21.4675C504.226 21.4172 504.295 21.392 504.383 21.392H505.261C505.318 21.392 505.365 21.414 505.402 21.4581C505.44 21.4958 505.459 21.543 505.459 21.5997C505.459 21.6249 505.453 21.65 505.44 21.6752C505.434 21.6941 505.424 21.7098 505.412 21.7224L504.09 23.5538C504.147 23.5349 504.213 23.5223 504.289 23.516C504.364 23.5097 504.433 23.5066 504.496 23.5066C504.811 23.5129 505.11 23.5758 505.393 23.6954C505.676 23.8086 505.925 23.966 506.139 24.1674C506.353 24.3687 506.52 24.6047 506.639 24.8754C506.765 25.146 506.828 25.4418 506.828 25.7627C506.828 26.1781 506.724 26.5651 506.516 26.9238C506.309 27.2763 506.01 27.5595 505.62 27.7734C505.236 27.9874 504.773 28.0944 504.232 28.0944ZM504.222 27.0088C504.449 27.0088 504.657 26.9616 504.846 26.8672C505.041 26.7728 505.198 26.6343 505.318 26.4518C505.437 26.2693 505.497 26.0428 505.497 25.7722C505.497 25.5078 505.437 25.2844 505.318 25.1019C505.198 24.9194 505.041 24.781 504.846 24.6866C504.657 24.5922 504.449 24.545 504.222 24.545C503.996 24.545 503.785 24.5922 503.59 24.6866C503.401 24.781 503.247 24.9194 503.127 25.1019C503.008 25.2844 502.948 25.5078 502.948 25.7722C502.948 26.0428 503.008 26.2693 503.127 26.4518C503.247 26.6343 503.401 26.7728 503.59 26.8672C503.785 26.9616 503.996 27.0088 504.222 27.0088ZM508.413 28C508.363 28 508.316 27.9811 508.272 27.9434C508.234 27.9056 508.215 27.8584 508.215 27.8018C508.215 27.7766 508.221 27.7483 508.234 27.7168L510.509 21.628C510.528 21.5651 510.563 21.5116 510.613 21.4675C510.67 21.4172 510.745 21.392 510.839 21.392H511.868C511.963 21.392 512.035 21.4172 512.086 21.4675C512.136 21.5116 512.174 21.5651 512.199 21.628L514.474 27.7168C514.48 27.7483 514.483 27.7766 514.483 27.8018C514.483 27.8584 514.464 27.9056 514.427 27.9434C514.389 27.9811 514.345 28 514.295 28H513.473C513.385 28 513.319 27.9811 513.275 27.9434C513.237 27.8993 513.212 27.8584 513.199 27.8206L512.756 26.669H509.952L509.508 27.8206C509.496 27.8584 509.468 27.8993 509.423 27.9434C509.386 27.9811 509.323 28 509.235 28H508.413ZM510.283 25.5834H512.425L511.349 22.6664L510.283 25.5834ZM518.804 28.0944C518.257 28.0944 517.781 28.0031 517.379 27.8206C516.976 27.6318 516.664 27.3455 516.444 26.9616C516.224 26.5714 516.114 26.0742 516.114 25.4701V21.628C516.114 21.5588 516.136 21.5021 516.18 21.4581C516.224 21.414 516.277 21.392 516.34 21.392H517.199C517.269 21.392 517.322 21.414 517.36 21.4581C517.404 21.5021 517.426 21.5588 517.426 21.628V25.4701C517.426 25.9861 517.549 26.37 517.794 26.6218C518.039 26.8672 518.376 26.9899 518.804 26.9899C519.232 26.9899 519.566 26.8672 519.805 26.6218C520.05 26.37 520.173 25.9861 520.173 25.4701V21.628C520.173 21.5588 520.195 21.5021 520.239 21.4581C520.283 21.414 520.34 21.392 520.409 21.392H521.258C521.328 21.392 521.381 21.414 521.419 21.4581C521.463 21.5021 521.485 21.5588 521.485 21.628V25.4701C521.485 26.0742 521.375 26.5714 521.155 26.9616C520.941 27.3455 520.632 27.6318 520.23 27.8206C519.833 28.0031 519.358 28.0944 518.804 28.0944ZM526.412 28.0944C525.833 28.0944 525.339 27.9937 524.93 27.7923C524.527 27.5909 524.212 27.3014 523.986 26.9238C523.765 26.5399 523.646 26.0837 523.627 25.555C523.621 25.2844 523.617 24.9949 523.617 24.6866C523.617 24.3719 523.621 24.0761 523.627 23.7992C523.646 23.2769 523.765 22.83 523.986 22.4587C524.212 22.0874 524.53 21.8011 524.939 21.5997C525.354 21.3983 525.845 21.2976 526.412 21.2976C526.871 21.2976 527.274 21.3605 527.62 21.4864C527.966 21.606 528.253 21.7633 528.479 21.9584C528.712 22.1472 528.885 22.3517 528.998 22.572C529.118 22.7923 529.181 22.9968 529.187 23.1856C529.193 23.2422 529.178 23.2894 529.14 23.3272C529.102 23.365 529.052 23.3838 528.989 23.3838H528.017C527.954 23.3838 527.906 23.3713 527.875 23.3461C527.843 23.3209 527.815 23.2831 527.79 23.2328C527.74 23.1006 527.661 22.9716 527.554 22.8458C527.447 22.7136 527.302 22.6035 527.12 22.5154C526.937 22.4273 526.701 22.3832 526.412 22.3832C525.984 22.3832 525.641 22.4965 525.383 22.723C525.131 22.9496 524.996 23.3241 524.977 23.8464C524.958 24.3939 524.958 24.9477 524.977 25.5078C524.996 26.0428 525.134 26.4267 525.392 26.6595C525.657 26.8924 526.003 27.0088 526.431 27.0088C526.714 27.0088 526.966 26.9585 527.186 26.8578C527.412 26.7571 527.589 26.5997 527.714 26.3858C527.847 26.1718 527.913 25.898 527.913 25.5645V25.2718H526.761C526.698 25.2718 526.645 25.2498 526.601 25.2058C526.556 25.1617 526.534 25.1051 526.534 25.0358V24.5355C526.534 24.4663 526.556 24.4097 526.601 24.3656C526.645 24.3215 526.698 24.2995 526.761 24.2995H529.017C529.086 24.2995 529.14 24.3215 529.178 24.3656C529.222 24.4097 529.244 24.4663 529.244 24.5355V25.5267C529.244 26.0554 529.127 26.5116 528.894 26.8955C528.668 27.2794 528.341 27.5752 527.913 27.7829C527.491 27.9906 526.991 28.0944 526.412 28.0944Z" fill="white"/>
<path opacity="0.2" d="M28 500.001L28 66" stroke="white" stroke-opacity="0.2" stroke-width="1.2888" stroke-miterlimit="16" stroke-linecap="square"/>
<path opacity="0.2" d="M75 500.001L75 66" stroke="white" stroke-opacity="0.2" stroke-width="1.2888" stroke-miterlimit="16" stroke-linecap="square"/>
<path opacity="0.2" d="M168 502.001L168 68" stroke="white" stroke-opacity="0.2" stroke-width="1.2888" stroke-miterlimit="16" stroke-linecap="square"/>
<path opacity="0.2" d="M262 503.001L262 69" stroke="white" stroke-opacity="0.2" stroke-width="1.2888" stroke-miterlimit="16" stroke-linecap="square"/>
<path opacity="0.2" d="M355 503.001L355 69" stroke="white" stroke-opacity="0.2" stroke-width="1.2888" stroke-miterlimit="16" stroke-linecap="square"/>
<path opacity="0.2" d="M448 502.001L448 68" stroke="white" stroke-opacity="0.2" stroke-width="1.2888" stroke-miterlimit="16" stroke-linecap="square"/>
<path opacity="0.2" d="M8 500.001L8 66" stroke="white" stroke-opacity="0.2" stroke-width="1.2888" stroke-miterlimit="16" stroke-linecap="square"/>
<path opacity="0.2" d="M98 500.001L98 66" stroke="white" stroke-opacity="0.2" stroke-width="1.2888" stroke-miterlimit="16" stroke-linecap="square"/>
<path opacity="0.2" d="M191 502.001L191 68" stroke="white" stroke-opacity="0.2" stroke-width="1.2888" stroke-miterlimit="16" stroke-linecap="square"/>
<path opacity="0.2" d="M285 503.001L285 69" stroke="white" stroke-opacity="0.2" stroke-width="1.2888" stroke-miterlimit="16" stroke-linecap="square"/>
<path opacity="0.2" d="M378 503.001L378 69" stroke="white" stroke-opacity="0.2" stroke-width="1.2888" stroke-miterlimit="16" stroke-linecap="square"/>
<path opacity="0.2" d="M471 502.001L471 68" stroke="white" stroke-opacity="0.2" stroke-width="1.2888" stroke-miterlimit="16" stroke-linecap="square"/>
<path opacity="0.2" d="M52 500.001L52 66" stroke="white" stroke-opacity="0.2" stroke-width="1.2888" stroke-miterlimit="16" stroke-linecap="square"/>
<path opacity="0.2" d="M145 502.001L145 68" stroke="white" stroke-opacity="0.2" stroke-width="1.2888" stroke-miterlimit="16" stroke-linecap="square"/>
<path opacity="0.2" d="M239 503.001L239 69" stroke="white" stroke-opacity="0.2" stroke-width="1.2888" stroke-miterlimit="16" stroke-linecap="square"/>
<path opacity="0.2" d="M332 503.001L332 69" stroke="white" stroke-opacity="0.2" stroke-width="1.2888" stroke-miterlimit="16" stroke-linecap="square"/>
<path opacity="0.2" d="M425 502.001L425 68" stroke="white" stroke-opacity="0.2" stroke-width="1.2888" stroke-miterlimit="16" stroke-linecap="square"/>
<path opacity="0.2" d="M121 500.001L121 66" stroke="white" stroke-opacity="0.2" stroke-width="1.2888" stroke-miterlimit="16" stroke-linecap="square"/>
<path opacity="0.2" d="M214 502.001L214 68" stroke="white" stroke-opacity="0.2" stroke-width="1.2888" stroke-miterlimit="16" stroke-linecap="square"/>
<path opacity="0.2" d="M308 503.001L308 69" stroke="white" stroke-opacity="0.2" stroke-width="1.2888" stroke-miterlimit="16" stroke-linecap="square"/>
<path opacity="0.2" d="M401 503.001L401 69" stroke="white" stroke-opacity="0.2" stroke-width="1.2888" stroke-miterlimit="16" stroke-linecap="square"/>
<path opacity="0.2" d="M494 502.001L494 68" stroke="white" stroke-opacity="0.2" stroke-width="1.2888" stroke-miterlimit="16" stroke-linecap="square"/>
<path opacity="0.2" d="M540 502.001L540 68.0002" stroke="white" stroke-opacity="0.2" stroke-width="1.2888" stroke-miterlimit="16" stroke-linecap="square"/>
<path opacity="0.2" d="M517 502.001L517 68.0002" stroke="white" stroke-opacity="0.2" stroke-width="1.2888" stroke-miterlimit="16" stroke-linecap="square"/>
<path d="M363.26 497.598V68.2639" stroke="#007CFF" stroke-width="1.2888" stroke-miterlimit="16" stroke-linecap="square"/>
</g>
<defs>
<clipPath id="clip0_1222_50879">
<rect width="548" height="503" fill="white"/>
</clipPath>
<clipPath id="clip1_1222_50879">
<rect width="548" height="35" fill="white" transform="translate(0 61)"/>
</clipPath>
</defs>
</svg>
