<svg width="20" height="21" viewBox="0 0 20 21" fill="none" xmlns="http://www.w3.org/2000/svg">
<path d="M17.2561 3.52401C17.2561 3.52401 18.875 2.89276 18.74 4.4258C18.6951 5.05706 18.2904 7.26643 17.9756 9.65618L16.8963 16.7352C16.8963 16.7352 16.8064 17.7723 15.997 17.9526C15.1875 18.133 13.9734 17.3214 13.7485 17.141C13.5686 17.0058 10.3759 14.9767 9.25163 13.9848C8.93684 13.7142 8.57709 13.1731 9.29659 12.5419L14.0183 8.03297C14.558 7.49189 15.0976 6.22939 12.8491 7.76243L6.55351 12.0459C6.55351 12.0459 5.83401 12.4968 4.48496 12.091L1.56197 11.1892C1.56197 11.1892 0.482718 10.5129 2.32644 9.83651C6.82334 7.71731 12.3545 5.55301 17.2561 3.52401Z" fill="white"/>
</svg>
