<svg width="42" height="42" viewBox="0 0 42 42" fill="none" xmlns="http://www.w3.org/2000/svg">
<mask id="mask0_1302_63106" style="mask-type:luminance" maskUnits="userSpaceOnUse" x="1" y="3" width="40" height="36">
<path d="M40.783 3.5H1.21777V38.5H40.783V3.5Z" fill="white"/>
</mask>
<g mask="url(#mask0_1302_63106)">
<path d="M40.686 20.7581C40.686 18.1912 37.4196 15.7581 32.412 14.25C33.5679 9.22626 33.0551 5.23 30.7923 3.95C30.2703 3.65 29.6608 3.50812 28.9947 3.50812V5.26875C29.3636 5.26875 29.6608 5.34 29.909 5.47375C31.0012 6.09 31.4743 8.43627 31.1053 11.4531C31.007 12.2334 30.8703 13.0084 30.6958 13.7756C29.1229 13.3962 27.4059 13.1037 25.6001 12.9144C24.5168 11.4531 23.3935 10.1262 22.262 8.96499C24.8781 6.57186 27.3336 5.26063 29.0029 5.26063V3.5C26.7958 3.5 23.9073 5.04812 20.9864 7.73373C18.0648 5.06375 15.1757 3.53125 12.9691 3.53125V5.2925C14.6302 5.2925 17.0933 6.59562 19.7094 8.97312C18.5145 10.2107 17.4072 11.5276 16.3955 12.9144C14.582 13.1037 12.865 13.3956 11.2922 13.7831C11.1151 13.0267 10.9757 12.2623 10.8744 11.4925C10.4972 8.47564 10.9633 6.12999 12.0459 5.50563C12.2872 5.36312 12.5996 5.3 12.9691 5.3V3.53938C12.2948 3.53938 11.6853 3.68187 11.1557 3.98188C8.90088 5.26125 8.39482 9.25063 9.5587 14.2575C4.56779 15.775 1.31738 18.1987 1.31738 20.7581C1.31738 23.325 4.58367 25.7581 9.59108 27.2663C8.43542 32.29 8.94848 36.2869 11.2115 37.5662C11.7335 37.8662 12.3431 38.0087 13.0174 38.0087C15.224 38.0087 18.1131 36.4606 21.034 33.775C23.9549 36.4444 26.844 37.9769 29.0506 37.9769C29.7243 37.9769 30.3338 37.835 30.864 37.5344C33.1181 36.255 33.6243 32.2662 32.461 27.2587C37.4362 25.75 40.686 23.3169 40.686 20.7581ZM30.2379 15.4894C29.926 16.5455 29.5646 17.5868 29.1547 18.61C28.8227 17.9683 28.4721 17.3362 28.1031 16.7144C27.7339 16.0888 27.3485 15.4726 26.9475 14.8662C28.0873 15.0319 29.1864 15.2362 30.2379 15.4894ZM26.5627 23.9019C25.9616 24.934 25.3164 25.9405 24.6286 26.9188C23.4225 27.0232 22.2123 27.076 21.0016 27.0769C19.7901 27.0769 18.5779 27.0219 17.3905 26.9269C16.702 25.9529 16.0542 24.9517 15.4487 23.9256C14.8466 22.9019 14.2896 21.8529 13.7794 20.7819C14.2868 19.7085 14.841 18.6571 15.4405 17.6306C16.0416 16.5984 16.6868 15.5916 17.3746 14.6131C18.5807 14.5087 19.7909 14.4559 21.0016 14.455C22.2131 14.455 23.4253 14.5106 24.6127 14.605C25.3012 15.5792 25.949 16.5806 26.5544 17.6069C27.1566 18.6307 27.7136 19.6796 28.2238 20.7506C27.7132 21.8225 27.1591 22.8738 26.5627 23.9019ZM29.1547 22.875C29.5759 23.9044 29.9455 24.9536 30.2621 26.0187C29.1706 26.2798 28.0673 26.4904 26.9558 26.65C27.3568 26.0358 27.7422 25.4119 28.1114 24.7787C28.4746 24.1525 28.8225 23.5177 29.1547 22.875ZM21.0175 31.3025C20.2304 30.4982 19.4858 29.6546 18.7868 28.775C19.5088 28.8063 20.2473 28.8306 20.9933 28.8306C21.7375 28.8321 22.4815 28.8136 23.2246 28.775C22.5357 29.656 21.7989 30.4998 21.0175 31.3025ZM15.0474 26.6506C13.9416 26.4925 12.8438 26.2842 11.7576 26.0263C12.0695 24.9705 12.431 23.9296 12.8409 22.9069C13.1725 23.5486 13.523 24.1807 13.8918 24.8025C14.264 25.4263 14.6493 26.0425 15.0474 26.6506ZM20.9781 10.2131C21.765 11.0176 22.5093 11.8615 23.2081 12.7413C22.4862 12.71 21.7477 12.6862 21.0016 12.6862C20.2473 12.6862 19.5012 12.7019 18.7709 12.7413C19.4596 11.8602 20.1962 11.0165 20.9775 10.2137L20.9781 10.2131ZM15.0392 14.8662C14.2433 16.0853 13.5096 17.3427 12.8409 18.6337C12.4196 17.6043 12.05 16.5552 11.7335 15.49C12.7844 15.245 13.8924 15.0319 15.0392 14.8662ZM7.77698 24.755C4.93673 23.5619 3.0991 21.9988 3.0991 20.7581C3.0991 19.5181 4.93673 17.9462 7.77698 16.7612C8.46718 16.4694 9.22152 16.2088 9.9994 15.9638C10.4904 17.6053 11.0938 19.2123 11.8053 20.7738C11.1016 22.3276 10.5065 23.927 10.0242 25.5606C9.26212 25.3282 8.51216 25.0598 7.77698 24.755ZM12.0948 36.0419C11.0026 35.4256 10.5296 33.0794 10.8985 30.0625C10.9874 29.32 11.1316 28.5381 11.308 27.7406C12.8809 28.1194 14.5979 28.4119 16.4037 28.6013C17.487 30.0625 18.6103 31.3894 19.7418 32.5506C17.1257 34.9444 14.6703 36.255 13.0009 36.255C12.6402 36.2469 12.3355 36.1763 12.0948 36.0419ZM31.1288 30.0231C31.506 33.0406 31.0399 35.3856 29.9567 36.0106C29.716 36.1525 29.403 36.2156 29.034 36.2156C27.373 36.2156 24.9099 34.9125 22.2938 32.5344C23.4887 31.297 24.596 29.9804 25.6077 28.5937C27.4212 28.4038 29.1382 28.1119 30.7117 27.725C30.8917 28.4833 31.0309 29.2504 31.1288 30.0231ZM34.218 24.7544C33.5276 25.0469 32.7734 25.3075 31.9955 25.5525C31.5045 23.9109 30.9012 22.3039 30.1897 20.7425C30.8935 19.1886 31.4888 17.5893 31.9714 15.9556C32.7651 16.2006 33.5202 16.4694 34.2254 16.7619C37.0666 17.9544 38.9041 19.5181 38.9041 20.7581C38.8966 21.9981 37.0587 23.57 34.218 24.7544Z" fill="white"/>
<path d="M20.8604 24.4673C21.3419 24.4673 21.8187 24.374 22.2636 24.1926C22.7085 24.0112 23.1128 23.7453 23.4533 23.4102C23.7938 23.075 24.0639 22.6771 24.2482 22.2392C24.4325 21.8013 24.5273 21.332 24.5273 20.858C24.5273 20.384 24.4325 19.9146 24.2482 19.4767C24.0639 19.0388 23.7938 18.6409 23.4533 18.3057C23.1128 17.9706 22.7085 17.7047 22.2636 17.5233C21.8187 17.342 21.3419 17.2486 20.8604 17.2486C19.8878 17.2486 18.9551 17.6289 18.2674 18.3057C17.5797 18.9826 17.1934 19.9007 17.1934 20.858C17.1934 21.8152 17.5797 22.7333 18.2674 23.4102C18.9551 24.0871 19.8878 24.4673 20.8604 24.4673Z" fill="white"/>
</g>
</svg>
