<svg width="42" height="42" viewBox="0 0 42 42" fill="none" xmlns="http://www.w3.org/2000/svg">
<path d="M13.252 10.5103H15.7395V26.8736C15.7395 28.4719 15.3799 29.6907 14.6606 30.5298C13.9613 31.369 12.8924 31.7886 11.4539 31.7886C11.294 31.7886 11.0942 31.7786 10.8545 31.7586C10.6147 31.7386 10.3749 31.7086 10.1352 31.6687C9.89543 31.6287 9.66567 31.5788 9.44589 31.5188C9.20613 31.4589 9.01632 31.389 8.87646 31.3091L9.35598 29.1812C9.91541 29.441 10.5248 29.5708 11.1841 29.5708C12.0233 29.5708 12.5727 29.2811 12.8325 28.7017C13.1122 28.1023 13.252 27.2931 13.252 26.2742V10.5103Z" fill="white"/>
<path d="M30.6349 26.1543C30.6349 25.3152 30.3852 24.6359 29.8857 24.1164C29.3862 23.5769 28.7568 23.1074 27.9976 22.7078C27.2583 22.2883 26.4491 21.8987 25.57 21.539C24.6909 21.1794 23.8718 20.7498 23.1125 20.2503C22.3733 19.7309 21.7539 19.1015 21.2544 18.3623C20.7549 17.603 20.5052 16.644 20.5052 15.4852C20.5052 13.8469 21.0746 12.5482 22.2134 11.5892C23.3523 10.6301 24.9706 10.1506 27.0685 10.1506C28.2873 10.1506 29.3962 10.2405 30.3952 10.4204C31.3941 10.6002 32.1734 10.8299 32.7328 11.1097L31.9835 13.2974C31.524 13.0776 30.8447 12.8679 29.9456 12.6681C29.0665 12.4683 28.0675 12.3684 26.9486 12.3684C25.63 12.3684 24.641 12.6681 23.9816 13.2675C23.3223 13.8469 22.9926 14.5362 22.9926 15.3353C22.9926 16.1146 23.2424 16.7639 23.7419 17.2834C24.2414 17.8028 24.8608 18.2723 25.6 18.6919C26.3592 19.0915 27.1784 19.4911 28.0575 19.8907C28.9366 20.2903 29.7458 20.7598 30.4851 21.2993C31.2443 21.8187 31.8737 22.4481 32.3732 23.1873C32.8726 23.9266 33.1224 24.8456 33.1224 25.9445C33.1224 26.8436 32.9626 27.6528 32.6429 28.372C32.3232 29.0913 31.8537 29.7107 31.2343 30.2302C30.6149 30.7496 29.8657 31.1492 28.9866 31.4289C28.1075 31.7086 27.1085 31.8485 25.9896 31.8485C24.4911 31.8485 23.2524 31.7286 22.2734 31.4889C21.2944 31.2691 20.5351 31.0194 19.9957 30.7396L20.8348 28.4919C21.2944 28.7517 21.9737 29.0114 22.8728 29.2711C23.7719 29.5109 24.7808 29.6308 25.8997 29.6308C26.559 29.6308 27.1784 29.5708 27.7578 29.4509C28.3372 29.3111 28.8367 29.1013 29.2563 28.8216C29.6759 28.5219 30.0055 28.1523 30.2453 27.7127C30.505 27.2732 30.6349 26.7537 30.6349 26.1543Z" fill="white"/>
</svg>
