<svg width="42" height="42" viewBox="0 0 42 42" fill="none" xmlns="http://www.w3.org/2000/svg">
<path d="M21.2589 12.728H14.7255V31.489H12.238V12.728H5.70459V10.5103H21.2589V12.728Z" fill="white"/>
<path d="M33.8069 26.1544C33.8069 25.3153 33.5571 24.636 33.0576 24.1165C32.5581 23.577 31.9288 23.1075 31.1695 22.7079C30.4303 22.2883 29.6211 21.8987 28.742 21.5391C27.8629 21.1795 27.0437 20.7499 26.2845 20.2504C25.5452 19.7309 24.9258 19.1016 24.4263 18.3623C23.9268 17.6031 23.6771 16.6441 23.6771 15.4852C23.6771 13.8469 24.2465 12.5482 25.3854 11.5892C26.5242 10.6301 28.1426 10.1506 30.2405 10.1506C31.4592 10.1506 32.5681 10.2405 33.5671 10.4204C34.5661 10.6002 35.3453 10.8299 35.9048 11.1097L35.1555 13.2974C34.696 13.0777 34.0167 12.8679 33.1176 12.6681C32.2385 12.4683 31.2395 12.3684 30.1206 12.3684C28.8019 12.3684 27.8129 12.6681 27.1536 13.2675C26.4943 13.8469 26.1646 14.5362 26.1646 15.3354C26.1646 16.1146 26.4143 16.7639 26.9138 17.2834C27.4133 17.8029 28.0327 18.2724 28.772 18.692C29.5312 19.0916 30.3504 19.4912 31.2295 19.8908C32.1086 20.2904 32.9178 20.7599 33.657 21.2993C34.4163 21.8188 35.0456 22.4482 35.5451 23.1874C36.0446 23.9267 36.2944 24.8458 36.2944 25.9446C36.2944 26.8437 36.1345 27.6529 35.8149 28.3722C35.4952 29.0915 35.0257 29.7108 34.4063 30.2303C33.7869 30.7498 33.0377 31.1494 32.1585 31.4291C31.2794 31.7088 30.2804 31.8487 29.1616 31.8487C27.6631 31.8487 26.4243 31.7288 25.4453 31.489C24.4663 31.2692 23.7071 31.0195 23.1676 30.7398L24.0068 28.4921C24.4663 28.7518 25.1456 29.0115 26.0447 29.2713C26.9438 29.511 27.9528 29.6309 29.0717 29.6309C29.731 29.6309 30.3504 29.571 30.9298 29.4511C31.5092 29.3112 32.0087 29.1014 32.4283 28.8217C32.8479 28.522 33.1775 28.1524 33.4173 27.7128C33.677 27.2733 33.8069 26.7538 33.8069 26.1544Z" fill="white"/>
</svg>
