<svg width="42" height="42" viewBox="0 0 42 42" fill="none" xmlns="http://www.w3.org/2000/svg">
<path d="M11.3401 15.4465L4.67588 21L11.3401 26.5535C11.4763 26.6626 11.5895 26.7977 11.6729 26.951C11.7562 27.1043 11.8082 27.2727 11.8257 27.4464C11.8432 27.62 11.826 27.7954 11.7749 27.9623C11.7238 28.1292 11.6399 28.2842 11.5282 28.4183C11.4165 28.5524 11.2792 28.6628 11.1242 28.7432C10.9693 28.8236 10.7999 28.8722 10.626 28.8863C10.452 28.9004 10.277 28.8797 10.1112 28.8254C9.9453 28.771 9.79196 28.6841 9.66009 28.5698L1.78509 22.0073C1.63733 21.8841 1.51844 21.73 1.43686 21.5558C1.35528 21.3816 1.31299 21.1915 1.31299 20.9992C1.31299 20.8068 1.35528 20.6168 1.43686 20.4425C1.51844 20.2683 1.63733 20.1142 1.78509 19.991L9.66009 13.4285C9.92769 13.2057 10.2728 13.0984 10.6196 13.1301C10.9663 13.1617 11.2863 13.3299 11.5091 13.5975C11.7319 13.8651 11.8392 14.2102 11.8075 14.557C11.7758 14.9037 11.6077 15.2237 11.3401 15.4465ZM40.2151 19.991L32.3401 13.4285C32.2076 13.3182 32.0547 13.2351 31.89 13.1838C31.7254 13.1326 31.5523 13.1144 31.3806 13.1301C31.2089 13.1457 31.042 13.1951 30.8894 13.2753C30.7367 13.3555 30.6014 13.465 30.4911 13.5975C30.2683 13.8651 30.161 14.2102 30.1927 14.557C30.2244 14.9037 30.3925 15.2237 30.6601 15.4465L37.3243 21L30.6601 26.5535C30.5238 26.6626 30.4107 26.7977 30.3273 26.951C30.2439 27.1043 30.192 27.2727 30.1745 27.4464C30.1569 27.62 30.1742 27.7954 30.2253 27.9623C30.2764 28.1292 30.3603 28.2842 30.472 28.4183C30.5837 28.5524 30.721 28.6628 30.8759 28.7432C31.0309 28.8236 31.2003 28.8722 31.3742 28.8863C31.5482 28.9004 31.7232 28.8797 31.889 28.8254C32.0549 28.771 32.2082 28.6841 32.3401 28.5698L40.2151 22.0073C40.3629 21.8841 40.4817 21.73 40.5633 21.5558C40.6449 21.3816 40.6872 21.1915 40.6872 20.9992C40.6872 20.8068 40.6449 20.6168 40.5633 20.4425C40.4817 20.2683 40.3629 20.1142 40.2151 19.991ZM26.698 5.32873C26.536 5.26991 26.3639 5.24358 26.1918 5.25124C26.0196 5.25889 25.8506 5.3004 25.6944 5.37337C25.5382 5.44634 25.398 5.54936 25.2817 5.67654C25.1653 5.80372 25.0752 5.95257 25.0163 6.11459L14.5163 34.9896C14.4573 35.1517 14.4307 35.3239 14.4383 35.4963C14.4458 35.6686 14.4873 35.8378 14.5602 35.9942C14.6332 36.1505 14.7363 36.2909 14.8637 36.4074C14.991 36.5239 15.14 36.6141 15.3022 36.6729C15.446 36.724 15.5975 36.7501 15.7501 36.75C16.0196 36.75 16.2826 36.667 16.5034 36.5123C16.7241 36.3576 16.8919 36.1387 16.9838 35.8854L27.4838 7.01037C27.5427 6.84835 27.569 6.67634 27.5613 6.50414C27.5537 6.33195 27.5122 6.16295 27.4392 6.00679C27.3662 5.85063 27.2632 5.71038 27.136 5.59404C27.0089 5.4777 26.86 5.38755 26.698 5.32873Z" fill="white"/>
</svg>
