<svg width="134" height="30" viewBox="0 0 134 30" fill="none" xmlns="http://www.w3.org/2000/svg">
<ellipse cx="10.0038" cy="10.0557" rx="10.0038" ry="10.0557" transform="matrix(0.999787 0.000747814 0.000735961 1.00021 6.09277 3.15918)" fill="url(#paint0_radial_1201_25985)"/>
<path d="M17.0399 25.4976C16.5096 26.2025 15.3878 25.7364 15.5096 24.8618L16.937 14.6081C17.034 13.9116 17.4671 13.3082 18.0954 12.9943L28.2199 7.93632C29.0272 7.533 29.8294 8.49642 29.2869 9.21768L17.0399 25.4976Z" fill="url(#paint1_linear_1201_25985)"/>
<path d="M11.965 24.6527C12.2823 25.4778 13.4879 25.3419 13.6097 24.4673L15.0371 14.2136C15.1341 13.5171 14.8824 12.8165 14.3641 12.3399L6.01283 4.66057C5.34691 4.04823 4.31275 4.7511 4.63739 5.5954L11.965 24.6527Z" fill="url(#paint2_linear_1201_25985)"/>
<path d="M17.7014 10.7349C16.9342 11.0945 16.0261 10.9657 15.3869 10.4067L7.94217 3.89693C7.30119 3.33645 7.77977 2.28673 8.62182 2.40616L26.3896 4.92614C27.2317 5.04557 27.405 6.18774 26.6357 6.54821L17.7014 10.7349Z" fill="url(#paint3_linear_1201_25985)"/>
<path d="M43.1934 20.155V11.8249H39.0586V10.3549H48.7377V11.8249H44.6634V20.155H43.1934Z" fill="white"/>
<path d="M66.1715 20.155C65.8448 20.155 65.5454 20.0733 65.2731 19.91C65.01 19.7466 64.7968 19.5334 64.6334 19.2702C64.4792 19.0071 64.402 18.7122 64.402 18.3855V13.7305H62.8026V12.2605H64.402V9.7696H65.872V12.2605L68.7008 12.2605V13.7305L65.872 13.7305V18.3447C65.872 18.4354 65.9038 18.5171 65.9673 18.5897C66.0399 18.6532 66.1216 18.685 66.2123 18.685H69.0033V20.155H66.1715Z" fill="white"/>
<path d="M116.133 20.155C115.806 20.155 115.507 20.0778 115.235 19.9236C114.971 19.7602 114.758 19.5425 114.595 19.2702C114.441 18.998 114.364 18.7031 114.364 18.3855V14.0299C114.364 13.7032 114.441 13.4083 114.595 13.1452C114.758 12.882 114.971 12.6688 115.235 12.5055C115.507 12.3421 115.806 12.2605 116.133 12.2605H120.924V9.67432H122.394V18.455C122.394 19.3939 121.633 20.155 120.694 20.155H116.133ZM116.187 18.685H120.597C120.688 18.685 120.765 18.6532 120.829 18.5897C120.892 18.5171 120.924 18.4354 120.924 18.3447V14.0707C120.924 13.98 120.892 13.9029 120.829 13.8394C120.765 13.7668 120.688 13.7305 120.597 13.7305H116.187C116.097 13.7305 116.015 13.7668 115.942 13.8394C115.879 13.9029 115.847 13.98 115.847 14.0707V18.3447C115.847 18.4354 115.879 18.5171 115.942 18.5897C116.015 18.6532 116.097 18.685 116.187 18.685Z" fill="white"/>
<path d="M53.5319 20.155C53.2052 20.155 52.9103 20.0733 52.6471 19.91C52.384 19.7466 52.1707 19.5334 52.0074 19.2703C51.8441 19.0071 51.7624 18.7122 51.7624 18.3855V14.0299C51.7624 13.7033 51.8441 13.4083 52.0074 13.1452C52.1707 12.882 52.384 12.6688 52.6471 12.5055C52.9103 12.3421 53.2052 12.2605 53.5319 12.2605H58.0236C58.3502 12.2605 58.6452 12.3421 58.9083 12.5055C59.1805 12.6597 59.3938 12.873 59.548 13.1452C59.7114 13.4174 59.793 13.7123 59.793 14.0299V15.2428C59.793 16.1816 59.0319 16.9427 58.0931 16.9427H53.2324V18.3447C53.2324 18.4354 53.2642 18.5171 53.3277 18.5897C53.4003 18.6532 53.482 18.685 53.5727 18.685H59.3242V20.155H53.5319ZM53.2324 15.568H57.8883C58.1209 15.568 58.3094 15.3795 58.3094 15.1469V14.0708C58.3094 13.98 58.2777 13.9029 58.2141 13.8394C58.1506 13.7668 58.0735 13.7305 57.9827 13.7305H53.5727C53.482 13.7305 53.4003 13.7668 53.3277 13.8394C53.2642 13.9029 53.2324 13.98 53.2324 14.0708V15.568Z" fill="white"/>
<path d="M72.028 20.155V14.0299C72.028 13.7033 72.1097 13.4083 72.273 13.1452C72.4364 12.882 72.6496 12.6688 72.9128 12.5055C73.185 12.3421 73.4799 12.2605 73.7975 12.2605H78.2287V13.7305H73.8383C73.7476 13.7305 73.6659 13.7668 73.5933 13.8394C73.5298 13.9029 73.498 13.98 73.498 14.0708V20.155H72.028Z" fill="white"/>
<path d="M105.103 20.155C104.777 20.155 104.482 20.0733 104.219 19.91C103.955 19.7466 103.742 19.5334 103.579 19.2703C103.416 19.0071 103.334 18.7122 103.334 18.3855V14.0299C103.334 13.7033 103.416 13.4083 103.579 13.1452C103.742 12.882 103.955 12.6688 104.219 12.5055C104.482 12.3421 104.777 12.2605 105.103 12.2605H109.595C109.922 12.2605 110.217 12.3421 110.48 12.5055C110.752 12.6597 110.965 12.873 111.119 13.1452C111.283 13.4174 111.364 13.7123 111.364 14.0299V18.3855C111.364 18.7122 111.283 19.0071 111.119 19.2703C110.965 19.5334 110.752 19.7466 110.48 19.91C110.217 20.0733 109.922 20.155 109.595 20.155H105.103ZM105.144 18.685H109.554C109.645 18.685 109.722 18.6532 109.786 18.5897C109.849 18.5171 109.881 18.4354 109.881 18.3447V14.0708C109.881 13.98 109.849 13.9029 109.786 13.8394C109.722 13.7668 109.645 13.7305 109.554 13.7305H105.144C105.053 13.7305 104.972 13.7668 104.899 13.8394C104.836 13.9029 104.804 13.98 104.804 14.0708V18.3447C104.804 18.4354 104.836 18.5171 104.899 18.5897C104.972 18.6532 105.053 18.685 105.144 18.685Z" fill="white"/>
<path d="M94.0631 20.155C93.7364 20.155 93.4415 20.0733 93.1784 19.91C92.9152 19.7466 92.702 19.5334 92.5386 19.2703C92.3753 19.0071 92.2936 18.7122 92.2936 18.3855V14.0299C92.2936 13.7033 92.3753 13.4083 92.5386 13.1452C92.702 12.882 92.9152 12.6688 93.1784 12.5055C93.4415 12.3421 93.7364 12.2605 94.0631 12.2605H100.297V13.7305H94.1039C94.0132 13.7305 93.9315 13.7668 93.8589 13.8394C93.7954 13.9029 93.7636 13.98 93.7636 14.0708V18.3447C93.7636 18.4354 93.7954 18.5171 93.8589 18.5897C93.9315 18.6532 94.0132 18.685 94.1039 18.685H100.324V20.155H94.0631Z" fill="white"/>
<path d="M83.0229 20.155C82.6962 20.155 82.3968 20.0733 82.1245 19.91C81.8614 19.7466 81.6481 19.5334 81.4848 19.2703C81.3305 19.0071 81.2534 18.7122 81.2534 18.3855V16.9851C81.2534 16.1498 81.9305 15.4727 82.7658 15.4727H87.8004V14.0708C87.8004 13.98 87.7687 13.9029 87.7051 13.8394C87.6416 13.7668 87.5645 13.7305 87.4737 13.7305H81.7071V12.2605H87.5146C87.8413 12.2605 88.1362 12.3421 88.3993 12.5055C88.6715 12.6597 88.8848 12.873 89.039 13.1452C89.2024 13.4174 89.284 13.7123 89.284 14.0299V18.6426C89.284 19.4779 88.6069 20.155 87.7717 20.155H83.0229ZM83.0637 18.685H87.4979C87.665 18.685 87.8004 18.5495 87.8004 18.3825V16.8475H83.0259C82.8588 16.8475 82.7234 16.9829 82.7234 17.1499V18.3447C82.7234 18.4354 82.7552 18.5171 82.8187 18.5897C82.8913 18.6532 82.973 18.685 83.0637 18.685Z" fill="white"/>
<path d="M127.184 20.155C126.857 20.155 126.562 20.0733 126.299 19.91C126.036 19.7466 125.823 19.5334 125.659 19.2703C125.496 19.0071 125.414 18.7122 125.414 18.3855V14.0299C125.414 13.7033 125.496 13.4083 125.659 13.1452C125.823 12.882 126.036 12.6688 126.299 12.5055C126.562 12.3421 126.857 12.2605 127.184 12.2605H131.675C132.002 12.2605 132.297 12.3421 132.56 12.5055C132.832 12.6597 133.046 12.873 133.2 13.1452C133.363 13.4174 133.445 13.7123 133.445 14.0299V15.2436C133.445 16.182 132.684 16.9427 131.746 16.9427H126.884V18.3447C126.884 18.4354 126.916 18.5171 126.98 18.5897C127.052 18.6532 127.134 18.685 127.225 18.685H132.991V20.155H127.184ZM126.884 15.568H131.54C131.773 15.568 131.961 15.3795 131.961 15.1469V14.0708C131.961 13.98 131.93 13.9029 131.866 13.8394C131.803 13.7668 131.725 13.7305 131.635 13.7305H127.225C127.134 13.7305 127.052 13.7668 126.98 13.8394C126.916 13.9029 126.884 13.98 126.884 14.0708V15.568Z" fill="white"/>
<defs>
<radialGradient id="paint0_radial_1201_25985" cx="0" cy="0" r="1" gradientUnits="userSpaceOnUse" gradientTransform="translate(10.0038 10.0557) rotate(97.829) scale(8.98191 8.93732)">
<stop stop-color="white" stop-opacity="0.4"/>
<stop offset="1" stop-color="white" stop-opacity="0"/>
</radialGradient>
<linearGradient id="paint1_linear_1201_25985" x1="17.2705" y1="12.9889" x2="23.3027" y2="17.8736" gradientUnits="userSpaceOnUse">
<stop stop-color="#10FAC7"/>
<stop offset="1" stop-color="#1CBEC2"/>
</linearGradient>
<linearGradient id="paint2_linear_1201_25985" x1="15.2838" y1="13.3076" x2="8.50421" y2="16.0286" gradientUnits="userSpaceOnUse">
<stop stop-color="#FF60BA"/>
<stop offset="1" stop-color="#D6087C"/>
</linearGradient>
<linearGradient id="paint3_linear_1201_25985" x1="16.0501" y1="10.5091" x2="16.924" y2="3.1138" gradientUnits="userSpaceOnUse">
<stop stop-color="#9482FF"/>
<stop offset="1" stop-color="#5F3EC0"/>
</linearGradient>
</defs>
</svg>
