<svg width="49" height="49" viewBox="0 0 49 49" fill="none" xmlns="http://www.w3.org/2000/svg">
<rect x="48.5527" y="47.9968" width="48" height="48" rx="24" transform="rotate(179.336 48.5527 47.9968)" fill="#D0D6DF"/>
<path fill-rule="evenodd" clip-rule="evenodd" d="M26.0584 28.2635C25.8583 28.0536 25.8543 27.7095 26.0495 27.495L28.5276 24.7706L18.9553 24.8817C18.6759 24.8849 18.4466 24.6442 18.4431 24.3441C18.4396 24.044 18.6633 23.798 18.9427 23.7948L28.5149 23.6837L25.9744 21.0176C25.7744 20.8077 25.7704 20.4636 25.9655 20.2491C26.1606 20.0346 26.481 20.0309 26.681 20.2408L29.6131 23.3178C29.6186 23.3236 29.6241 23.3295 29.6297 23.3353C29.7288 23.4392 29.836 23.5516 29.9145 23.6595C30.0066 23.7859 30.1062 23.9672 30.109 24.2089C30.1118 24.4505 30.0164 24.634 29.9273 24.7626C29.8513 24.8723 29.7468 24.9871 29.6501 25.0933C29.6446 25.0993 29.6392 25.1052 29.6339 25.1111L29.2716 24.731L29.2636 24.7226M29.2716 24.731L29.6339 25.1111L26.7739 28.2552C26.5788 28.4698 26.2584 28.4735 26.0584 28.2635" fill="#858B9B"/>
</svg>
