<svg width="95" height="95" viewBox="0 0 95 95" fill="none" xmlns="http://www.w3.org/2000/svg">
<path d="M83.6817 69.3946C80.7352 66.4258 73.5991 62.0933 70.1368 60.3473C65.628 58.0762 65.2569 57.8907 61.713 60.5236C59.3491 62.2807 57.7775 63.8504 55.011 63.2604C52.2445 62.6703 46.2328 59.3435 40.9688 54.0962C35.7049 48.849 32.185 42.6628 31.5932 39.9056C31.0013 37.1484 32.597 35.5953 34.3374 33.2259C36.7903 29.8861 36.6048 29.3294 34.5081 24.8206C32.8734 21.3138 28.4147 14.2445 25.4349 11.3128C22.2472 8.16409 22.2472 8.72073 20.1932 9.57425C18.521 10.2778 16.9167 11.1331 15.4005 12.1292C12.4317 14.1016 10.7841 15.74 9.63182 18.2022C8.47958 20.6644 7.9619 26.4367 13.9124 37.2467C19.8629 48.0567 24.0377 53.5841 32.6786 62.2009C41.3195 70.8177 47.964 75.4508 57.6773 80.8985C69.6934 87.6283 74.3023 86.3164 76.772 85.1661C79.2416 84.0157 80.8874 82.3828 82.8635 79.4141C83.8622 77.9004 84.7194 76.298 85.424 74.627C86.2794 72.5804 86.836 72.5804 83.6817 69.3946Z" stroke="#F8F8F8" stroke-width="3" stroke-miterlimit="10"/>
</svg>
