<svg width="95" height="95" viewBox="0 0 95 95" fill="none" xmlns="http://www.w3.org/2000/svg">
<path d="M87.5782 37.3981C87.5796 36.8136 87.4652 36.2345 87.2417 35.6944C87.0181 35.1543 86.6898 34.6638 86.2757 34.2512L60.7852 8.76081C60.3715 8.34566 59.8799 8.01626 59.3386 7.7915C58.7974 7.56675 58.217 7.45105 57.6309 7.45105C57.0448 7.45105 56.4645 7.56675 55.9232 7.7915C55.382 8.01626 54.8904 8.34566 54.4766 8.76081L43.7075 19.5411L21.8649 27.7311C21.1341 28.007 20.4883 28.4693 19.9915 29.0722C19.4948 29.675 19.1645 30.3974 19.0335 31.1674L10.4093 82.9165C10.3737 83.1293 10.3849 83.3474 10.4422 83.5554C10.4995 83.7635 10.6014 83.9566 10.741 84.1212C10.8805 84.2858 11.0543 84.418 11.2501 84.5086C11.446 84.5992 11.6593 84.646 11.8751 84.6458C11.957 84.6451 12.0389 84.6389 12.12 84.6272L63.8653 75.9993C64.6365 75.8713 65.3603 75.5427 65.9642 75.0463C66.568 74.5499 67.0306 73.9033 67.3054 73.1715L75.4954 51.329L86.2571 40.5673C86.6774 40.1537 87.0108 39.6603 87.2377 39.1161C87.4646 38.5719 87.5803 37.9877 87.5782 37.3981ZM64.5259 72.1288C64.4343 72.3727 64.2801 72.5882 64.0788 72.7537C63.8775 72.9192 63.6362 73.0287 63.3792 73.0714L16.202 80.9348L37.8925 59.2444C39.7127 60.538 41.9525 61.1006 44.1679 60.8207C46.3834 60.5409 48.4129 59.439 49.8543 57.7334C51.2957 56.0277 52.0437 53.8429 51.9502 51.6118C51.8567 49.3807 50.9285 47.2661 49.3494 45.687C47.7704 44.108 45.6558 43.1798 43.4247 43.0863C41.1936 42.9928 39.0087 43.7408 37.3031 45.1822C35.5975 46.6236 34.4956 48.6531 34.2157 50.8685C33.9359 53.084 34.4985 55.3238 35.7921 57.144L14.1016 78.8382L21.9651 31.6573C22.0078 31.4002 22.1173 31.159 22.2828 30.9577C22.4482 30.7564 22.6638 30.6022 22.9077 30.5106L44.1602 22.5395L72.4932 50.8762L64.5259 72.1288ZM37.1095 51.9895C37.1095 50.8152 37.4577 49.6672 38.1101 48.6908C38.7625 47.7144 39.6898 46.9534 40.7748 46.504C41.8597 46.0546 43.0535 45.937 44.2053 46.1661C45.3571 46.3952 46.415 46.9607 47.2454 47.7911C48.0758 48.6214 48.6413 49.6794 48.8704 50.8312C49.0995 51.9829 48.9819 53.1768 48.5325 54.2617C48.0831 55.3466 47.3221 56.2739 46.3457 56.9264C45.3692 57.5788 44.2213 57.927 43.047 57.927C41.4722 57.927 39.962 57.3015 38.8485 56.188C37.735 55.0745 37.1095 53.5642 37.1095 51.9895ZM84.1753 38.4483L74.2188 48.4048L46.6317 20.8176L56.5845 10.8649C56.7223 10.7269 56.886 10.6174 57.0662 10.5427C57.2464 10.468 57.4396 10.4296 57.6347 10.4296C57.8297 10.4296 58.0229 10.468 58.2031 10.5427C58.3833 10.6174 58.547 10.7269 58.6848 10.8649L84.1753 36.3553C84.4529 36.6336 84.6088 37.0106 84.6088 37.4037C84.6088 37.7967 84.4529 38.1737 84.1753 38.452V38.4483Z" fill="#F8F8F8"/>
</svg>
