<svg width="95" height="95" viewBox="0 0 95 95" fill="none" xmlns="http://www.w3.org/2000/svg">
<path d="M59.375 43.5417V43.5812M20.4765 33.1629C18.7403 31.8286 17.407 30.0402 16.6237 27.9954C15.8404 25.9506 15.6377 23.7291 16.0381 21.5764C16.4384 19.4236 17.4262 17.4235 18.8922 15.797C20.3582 14.1705 22.2453 12.9811 24.3451 12.3601C26.4448 11.7391 28.6754 11.7107 30.7903 12.2782C32.9051 12.8456 34.8219 13.9868 36.3288 15.5754C37.8356 17.1641 38.8739 19.1385 39.3288 21.2804C39.7837 23.4223 39.6375 25.6483 38.9065 27.7123" stroke="#F8F8F8" stroke-width="3" stroke-linecap="round" stroke-linejoin="round"/>
<path d="M63.3333 15.8333V30.8869C68.2322 33.7215 71.9619 38.2076 73.8546 43.5416H79.1627C80.2125 43.5416 81.2193 43.9587 81.9616 44.701C82.704 45.4433 83.121 46.4502 83.121 47.5V55.4166C83.121 56.4665 82.704 57.4733 81.9616 58.2156C81.2193 58.9579 80.2125 59.375 79.1627 59.375H73.8506C72.5206 63.1354 70.2604 66.5 67.2877 69.1639V77.1875C67.2877 78.7622 66.6621 80.2724 65.5486 81.3859C64.4351 82.4994 62.9249 83.125 61.3502 83.125C59.7755 83.125 58.2652 82.4994 57.1517 81.3859C56.0382 80.2724 55.4127 78.7622 55.4127 77.1875V74.8798C54.1046 75.0989 52.7806 75.2088 51.4543 75.2083H35.621C34.2947 75.2088 32.9707 75.0989 31.6627 74.8798V77.1875C31.6627 78.7622 31.0371 80.2724 29.9236 81.3859C28.8101 82.4994 27.2999 83.125 25.7252 83.125C24.1505 83.125 22.6402 82.4994 21.5267 81.3859C20.4132 80.2724 19.7877 78.7622 19.7877 77.1875V69.1639C16.2013 65.9576 13.6732 61.7376 12.5379 57.0628C11.4027 52.3879 11.7139 47.4785 13.4304 42.9844C15.1468 38.4903 18.1876 34.6234 22.1502 31.8956C26.1127 29.1677 30.8103 27.7075 35.621 27.7083H45.5168L63.3293 15.8333H63.3333Z" stroke="#F8F8F8" stroke-width="3" stroke-linecap="round" stroke-linejoin="round"/>
</svg>
