<svg width="67" height="67" viewBox="0 0 67 67" fill="none" xmlns="http://www.w3.org/2000/svg">
<path d="M44.6667 44.6666C44.6667 41.5819 35.9177 39.0833 25.1251 39.0833M44.6667 44.6666C44.6667 47.7514 35.9177 50.25 25.1251 50.25C14.3325 50.25 5.58341 47.7514 5.58341 44.6666M44.6667 44.6666V58.4491C44.6667 61.6288 35.9177 64.2083 25.1251 64.2083C14.3325 64.2083 5.58341 61.6316 5.58341 58.4491V44.6666M44.6667 44.6666C55.3421 44.6666 64.2084 41.9113 64.2084 39.0833V11.1666M25.1251 39.0833C14.3325 39.0833 5.58341 41.5819 5.58341 44.6666M25.1251 39.0833C12.7915 39.0833 2.79175 36.3279 2.79175 33.5V19.5416M25.1251 13.9583C12.7915 13.9583 2.79175 16.4569 2.79175 19.5416M2.79175 19.5416C2.79175 22.6264 12.7915 25.125 25.1251 25.125C25.1251 27.9529 34.2064 30.7083 44.8817 30.7083C55.5542 30.7083 64.2084 27.9529 64.2084 25.125M64.2084 11.1666C64.2084 8.08185 55.5542 5.58331 44.8817 5.58331C34.2064 5.58331 25.555 8.08185 25.555 11.1666M64.2084 11.1666C64.2084 14.2514 55.5542 16.75 44.8817 16.75C34.2092 16.75 25.555 14.2514 25.555 11.1666M25.555 11.1666V39.5467" stroke="#002C42" stroke-width="3"/>
</svg>
