<svg width="78" height="78" viewBox="0 0 78 78" fill="none" xmlns="http://www.w3.org/2000/svg">
<path d="M35.75 29.25H71.5M6.5 35.75L15.6228 25.4897C16.8424 24.1172 18.339 23.0186 20.0139 22.2663C21.6888 21.514 23.5041 21.125 25.3402 21.125H26M6.5 63.375H24.375L37.375 53.625C37.375 53.625 40.0075 51.8473 43.875 48.75C52 42.25 43.875 31.9605 35.75 37.375C29.133 41.7852 22.75 45.5 22.75 45.5" stroke="#002C42" stroke-width="3" stroke-linecap="round" stroke-linejoin="round"/>
<path d="M26 43.875V22.75C26 21.0261 26.6848 19.3728 27.9038 18.1538C29.1228 16.9348 30.7761 16.25 32.5 16.25H65C66.7239 16.25 68.3772 16.9348 69.5962 18.1538C70.8152 19.3728 71.5 21.0261 71.5 22.75V42.25C71.5 43.9739 70.8152 45.6272 69.5962 46.8462C68.3772 48.0652 66.7239 48.75 65 48.75H43.875" stroke="#002C42" stroke-width="3"/>
</svg>
