<svg width="241" height="40" viewBox="0 0 241 40" fill="none" xmlns="http://www.w3.org/2000/svg">
<path fill-rule="evenodd" clip-rule="evenodd" d="M46.2611 0.536784C38.8322 2.2176 32.2382 8.45242 30.6682 15.2802C30.1366 17.5921 30.1926 23.1328 30.7692 25.2893C32.559 31.9853 38.8685 38.1171 45.5344 39.6389C47.6465 40.1212 53.9694 40.1201 56.0612 39.6374C62.5265 38.1448 68.6107 32.4002 70.6168 25.8935C71.963 21.5277 71.4717 15.5338 69.4337 11.4585C67.7202 8.0324 63.9211 4.15211 60.6132 2.45055C56.5652 0.367905 50.5518 -0.433927 46.2611 0.536784ZM138.576 0.389376C133.693 1.3488 129.876 3.2804 126.829 6.33266C124.754 8.41166 123.62 10.2927 122.532 13.4603C121.427 16.6782 121.326 23.2293 122.335 26.1993C124.221 31.7473 127.382 35.4911 132.192 37.8718C135.971 39.7423 138.35 40.147 144.364 39.9432C148.811 39.7921 149.549 39.6673 152.263 38.6045C153.91 37.9599 156.035 36.9113 156.987 36.2744L158.716 35.1166L158.814 27.0182L158.912 18.9199H151.261H143.611L143.715 22.4686L143.819 26.0173L146.47 26.1247L149.12 26.2317L149.013 28.6575L148.906 31.0834L147.271 31.578C144.85 32.31 140.842 32.1906 138.512 31.3171C135.921 30.3449 134.22 28.8872 132.906 26.5108C131.879 24.6535 131.829 24.355 131.829 20.1938C131.829 15.2383 132.285 13.9131 134.89 11.303C137.059 9.13086 139.797 8.2213 144.182 8.21693C147.99 8.21329 150.798 8.85461 155.344 10.7665C156.487 11.247 157.509 11.6404 157.615 11.6404C157.721 11.6404 157.808 9.77436 157.808 7.49372C157.808 3.88568 157.725 3.31315 157.172 3.08786C150.474 0.357711 143.723 -0.622099 138.576 0.389376ZM0.0662658 1.05326C-0.00603965 1.27019 -0.0216639 10.047 0.0317477 20.557L0.129126 39.6662H2.63729C5.08368 39.6662 5.15017 39.6414 5.34238 38.6653C5.45066 38.115 5.52623 34.2248 5.51061 30.021L5.48227 22.3776L7.18345 22.2658C9.38604 22.1206 11.6744 23.2122 13.3999 25.2304C14.1124 26.0635 16.5908 29.6526 18.9075 33.2057L23.1197 39.6662H26.3335C28.1012 39.6662 29.5473 39.5814 29.5473 39.4773C29.5473 38.9524 19.1113 23.6311 17.8995 22.3769L16.4923 20.9199L18.0936 20.2567C20.1817 19.3912 22.4802 16.8747 23.0238 14.8583C23.6117 12.6774 23.3036 7.77798 22.4795 6.20017C21.4916 4.30825 19.1872 2.35118 17.0788 1.61268C15.5643 1.08202 13.7262 0.924048 7.69649 0.805757C2.51266 0.70421 0.157102 0.780646 0.0662658 1.05326ZM77.872 20.1938V39.6662H80.4154H82.9588V24.5312C82.9588 15.4068 83.0925 9.44425 83.2953 9.5174C83.4802 9.58401 84.1749 10.3145 84.8395 11.1407C86.3837 13.061 96.4512 24.7434 96.5621 24.7434C96.6078 24.7434 99.5698 21.3162 103.144 17.128C106.718 12.9395 109.77 9.59129 109.926 9.6881C110.082 9.78456 110.21 16.569 110.21 24.7649V39.6662H112.753H115.296V20.1938V0.721318L112.844 0.747526L110.391 0.773368L103.669 8.74032C99.9724 13.1222 96.7565 16.6727 96.5232 16.6305C96.2899 16.5886 93.0551 12.9919 89.3352 8.63768L82.5715 0.721318H80.2218H77.872V20.1938ZM173.717 9.74197C171.576 14.6898 167.793 23.4058 165.31 29.111L160.796 39.4842L165.722 39.5858C168.432 39.6418 170.801 39.5352 170.987 39.3485C171.173 39.1621 171.939 37.4784 172.689 35.6072L174.052 32.2048L182.644 32.1072C188.353 32.0425 191.235 32.1353 191.235 32.3842C191.235 32.5899 191.83 34.314 192.556 36.215L193.877 39.6713L217.354 39.5777L240.832 39.4842V35.8445V32.2048L230.364 32.0228L219.896 31.8408L221.293 29.839C222.538 28.0563 225.209 24.1123 237.622 5.72592L241 0.721318H223.021H205.042V4.3552V7.98872L214.696 8.0859L224.349 8.18272L216.117 20.3757C211.59 27.0819 206.97 33.922 205.851 35.5759C204.731 37.2298 203.706 38.4582 203.571 38.3057C203.437 38.1532 201.968 34.5069 200.307 30.203C196.111 19.3279 195.022 16.5184 191.745 8.09173L188.878 0.721318L183.244 0.733692L177.61 0.746066L173.717 9.74197ZM55.5144 6.0655C59.2096 7.35469 62.464 10.3305 64.3211 14.1184C65.2462 16.0052 65.3366 16.5471 65.3366 20.1938C65.3366 23.8819 65.2527 24.3696 64.2717 26.3813C62.7638 29.4728 59.3887 32.7649 56.6164 33.8481C53.4251 35.0951 49.1962 35.2458 46.1252 34.2219C35.1835 30.5746 32.3799 16.3666 41.1227 8.87062C44.993 5.55194 50.7985 4.42035 55.5144 6.0655ZM15.318 6.31118C17.0373 7.23166 18.0794 9.69429 17.7891 12.1504C17.5195 14.4314 16.7107 15.5866 14.6429 16.645C13.292 17.3362 12.4639 17.464 9.32899 17.464C6.09196 17.464 5.59636 17.3824 5.46519 16.827C5.3333 16.2669 5.3511 12.8001 5.51533 7.14358L5.56657 5.37614L9.83586 5.51918C13.0275 5.62583 14.4111 5.82601 15.318 6.31118ZM185.952 18.3466C187.259 21.9001 188.329 24.9567 188.329 25.1394C188.329 25.325 185.847 25.4713 182.697 25.4713C179.599 25.4713 177.065 25.3782 177.065 25.2642C177.065 25.016 182.484 11.6215 182.776 11.1487C183.078 10.6592 183.354 11.2856 185.952 18.3466Z" fill="white"/>
</svg>
