<svg width="87" height="87" viewBox="0 0 87 87" fill="none" xmlns="http://www.w3.org/2000/svg">
<path d="M58 43.5C66.6058 47.7884 72.5 56.7313 72.5 68.875V83.375H14.5V68.875C14.5 56.7167 20.4124 47.7594 29 43.5M65.25 25.375C65.25 28.2313 64.6874 31.0595 63.5944 33.6984C62.5013 36.3372 60.8992 38.7349 58.8796 40.7546C56.8599 42.7742 54.4622 44.3763 51.8234 45.4694C49.1845 46.5624 46.3563 47.125 43.5 47.125C37.7315 47.125 32.1993 44.8335 28.1204 40.7546C24.0415 36.6757 21.75 31.1435 21.75 25.375M65.25 25.375C65.25 22.5187 64.6874 19.6905 63.5944 17.0516C62.5013 14.4128 60.8992 12.0151 58.8796 9.99543C56.8599 7.97575 54.4622 6.37366 51.8234 5.28062C49.1845 4.18758 46.3563 3.625 43.5 3.625C37.7315 3.625 32.1993 5.91651 28.1204 9.99543C24.0415 14.0743 21.75 19.6065 21.75 25.375M65.25 25.375C59.8125 25.375 54.375 26.68 47.125 18.125C39.875 26.68 30.8125 29 21.75 25.375M25.375 47.125L43.5906 66.1816L61.625 47.125M43.5 65.25V83.375" stroke="#002C42" stroke-width="6"/>
</svg>
