<svg width="87" height="87" viewBox="0 0 87 87" fill="none" xmlns="http://www.w3.org/2000/svg">
<path d="M7.70564 40.6415L79.1699 8.14075M79.1699 8.14075L65.8092 3.10718M79.1699 8.14075L74.1985 21.5015M82.3392 83.955H66.8035V40.455C66.8035 39.631 67.1309 38.8407 67.7136 38.258C68.2963 37.6753 69.0866 37.3479 69.9106 37.3479H79.2321C80.0561 37.3479 80.8465 37.6753 81.4292 38.258C82.0119 38.8407 82.3392 39.631 82.3392 40.455V83.955ZM51.2678 83.955H35.7321V49.7765C35.7321 48.9524 36.0594 48.1621 36.6421 47.5794C37.2248 46.9967 38.0152 46.6693 38.8392 46.6693H48.1606C48.9847 46.6693 49.775 46.9967 50.3577 47.5794C50.9404 48.1621 51.2678 48.9524 51.2678 49.7765V83.955ZM20.1964 83.955H4.66064V59.0979C4.66064 58.2738 4.988 57.4835 5.57071 56.9008C6.15341 56.3181 6.94372 55.9908 7.76779 55.9908H17.0892C17.9133 55.9908 18.7036 56.3181 19.2863 56.9008C19.869 57.4835 20.1964 58.2738 20.1964 59.0979V83.955Z" stroke="#002C42" stroke-width="6" stroke-linecap="round" stroke-linejoin="round"/>
</svg>
