<svg width="87" height="87" viewBox="0 0 87 87" fill="none" xmlns="http://www.w3.org/2000/svg">
<g clip-path="url(#clip0_15_114)">
<path d="M50.75 29H16.9167C16.2757 29 15.661 28.7454 15.2078 28.2922C14.7546 27.839 14.5 27.2243 14.5 26.5833V16.9167C14.5 16.2757 14.7546 15.661 15.2078 15.2078C15.661 14.7546 16.2757 14.5 16.9167 14.5H50.75C51.3909 14.5 52.0056 14.7546 52.4588 15.2078C52.9121 15.661 53.1667 16.2757 53.1667 16.9167V26.5833C53.1667 27.2243 52.9121 27.839 52.4588 28.2922C52.0056 28.7454 51.3909 29 50.75 29ZM19.3333 24.1667H48.3333V19.1883H19.3333V24.1667Z" fill="#002C42"/>
<path d="M50.75 34.0266H16.9167C16.2757 34.0266 15.661 34.2812 15.2078 34.7344C14.7546 35.1876 14.5 35.8023 14.5 36.4433V45.9166C14.5 46.5576 14.7546 47.1722 15.2078 47.6255C15.661 48.0787 16.2757 48.3333 16.9167 48.3333H44.37L53.1667 39.3916V36.4433C53.1667 35.8023 52.9121 35.1876 52.4588 34.7344C52.0056 34.2812 51.3909 34.0266 50.75 34.0266ZM48.3333 43.4999H19.3333V38.6666H48.3333V43.4999Z" fill="#002C42"/>
<path d="M26.7283 76.1491V76.0041L27.5016 72.6449H9.66659V9.66659H57.9999V34.4374L62.8333 29.8699V7.24992C62.8333 6.60898 62.5786 5.99429 62.1254 5.54108C61.6722 5.08786 61.0575 4.83325 60.4166 4.83325H7.24992C6.60898 4.83325 5.99429 5.08786 5.54108 5.54108C5.08786 5.99429 4.83325 6.60898 4.83325 7.24992V74.9166C4.83325 75.5575 5.08786 76.1722 5.54108 76.6254C5.99429 77.0786 6.60898 77.3333 7.24992 77.3333H26.5833C26.6032 76.9356 26.6516 76.5398 26.7283 76.1491Z" fill="#002C42"/>
<path d="M53.1667 46.3274L51.2817 48.2366C51.7494 48.1402 52.178 47.9074 52.5135 47.5676C52.849 47.2278 53.0763 46.7962 53.1667 46.3274Z" fill="#002C42"/>
<path d="M14.5 65.1051C14.5 65.746 14.7546 66.3607 15.2078 66.8139C15.661 67.2671 16.2757 67.5217 16.9167 67.5217H28.6133L29.3383 64.3801L29.6525 63.0509V62.9301H19.3333V58.0001H34.655L39.4883 53.1667H16.9167C16.2757 53.1667 15.661 53.4214 15.2078 53.8746C14.7546 54.3278 14.5 54.9425 14.5 55.5834V65.1051Z" fill="#002C42"/>
<path d="M80.9341 40.2858L72.7899 32.1417C72.4285 31.7792 71.9991 31.4917 71.5263 31.2955C71.0536 31.0993 70.5467 30.9983 70.0349 30.9983C69.523 30.9983 69.0162 31.0993 68.5435 31.2955C68.0707 31.4917 67.6413 31.7792 67.2799 32.1417L34.1474 65.4675L31.4166 77.0917C31.3143 77.5931 31.312 78.1099 31.4098 78.6122C31.5076 79.1146 31.7035 79.5928 31.9864 80.0193C32.2692 80.4458 32.6334 80.8124 33.0582 81.0979C33.4829 81.3834 33.9598 81.5824 34.4616 81.6833C34.7107 81.7084 34.9616 81.7084 35.2107 81.6833C35.5068 81.7316 35.8088 81.7316 36.1049 81.6833L47.8257 79.0975L80.9341 45.9167C81.2957 45.5573 81.5828 45.1299 81.7787 44.6592C81.9745 44.1884 82.0754 43.6836 82.0754 43.1737C82.0754 42.6639 81.9745 42.159 81.7787 41.6883C81.5828 41.2176 81.2957 40.7902 80.9341 40.4308V40.2858ZM45.3607 74.6992L36.5157 76.6567L38.6666 67.8842L63.5099 42.775L70.3249 49.59L45.3607 74.6992ZM73.0557 46.8592L66.2407 40.0442L70.0832 36.25L76.9466 43.1133L73.0557 46.8592Z" fill="#002C42"/>
</g>
<defs>
<clipPath id="clip0_15_114">
<rect width="87" height="87" fill="white"/>
</clipPath>
</defs>
</svg>
