<svg width="87" height="87" viewBox="0 0 87 87" fill="none" xmlns="http://www.w3.org/2000/svg">
<path d="M16.3125 14.9531V16.3125H19.0312C19.7523 16.3125 20.4438 16.0261 20.9537 15.5162C21.4636 15.0063 21.75 14.3148 21.75 13.5938V10.875H20.3906C19.309 10.875 18.2718 11.3047 17.507 12.0695C16.7422 12.8343 16.3125 13.8715 16.3125 14.9531ZM20.3906 5.4375H44.8594C50.112 5.4375 54.375 9.7005 54.375 14.9531V17.9057L70.5516 34.0823C72.3187 35.8496 73.7205 37.9477 74.6768 40.2568C75.6331 42.5659 76.1252 45.0408 76.125 47.5401V78.8438C76.125 79.5648 75.8386 80.2563 75.3287 80.7662C74.8188 81.2761 74.1273 81.5625 73.4062 81.5625C72.6852 81.5625 71.9937 81.2761 71.4838 80.7662C70.9739 80.2563 70.6875 79.5648 70.6875 78.8438V47.5401C70.6878 45.7548 70.3365 43.9869 69.6536 42.3374C68.9706 40.6879 67.9695 39.1891 66.7072 37.9266L54.375 25.5943V39.6502L59.0186 44.2939C59.5291 44.8037 59.8162 45.4954 59.8167 46.2168C59.8172 46.9383 59.5311 47.6304 59.0213 48.1409C58.5116 48.6514 57.8199 48.9385 57.0984 48.939C56.3769 48.9395 55.6848 48.6534 55.1743 48.1436L49.8292 42.7931C49.7647 42.7345 49.703 42.6728 49.6444 42.6082L42.9889 35.9527C42.6188 35.5686 42.1758 35.2622 41.6858 35.0512C41.1959 34.8403 40.6688 34.7292 40.1354 34.7244C39.602 34.7195 39.073 34.8211 38.5794 35.0231C38.0857 35.2251 37.6372 35.5236 37.2602 35.9009C36.8832 36.2783 36.5853 36.727 36.3837 37.2209C36.1822 37.7148 36.0811 38.2439 36.0865 38.7772C36.0918 39.3106 36.2034 39.8376 36.4148 40.3273C36.6262 40.8171 36.9331 41.2598 37.3176 41.6295L45.4249 49.7314C45.6782 49.9839 45.8792 50.2839 46.0163 50.6142C46.1535 50.9445 46.2241 51.2986 46.2242 51.6562V57.0938C46.2242 58.5349 46.7963 59.9172 47.8149 60.9367C48.8334 61.9563 50.2151 62.5298 51.6562 62.5312C52.3773 62.5312 53.0688 62.8177 53.5787 63.3276C54.0886 63.8374 54.375 64.5289 54.375 65.25V72.0469C54.375 74.5706 53.3725 76.9909 51.5879 78.7754C49.8034 80.56 47.3831 81.5625 44.8594 81.5625H20.3906C17.8669 81.5625 15.4466 80.56 13.6621 78.7754C11.8775 76.9909 10.875 74.5706 10.875 72.0469V14.9531C10.875 9.7005 15.138 5.4375 20.3906 5.4375ZM43.5 76.125H44.8594C45.941 76.125 46.9782 75.6953 47.743 74.9305C48.5078 74.1657 48.9375 73.1285 48.9375 72.0469V70.6875H46.2188C45.4977 70.6875 44.8062 70.9739 44.2963 71.4838C43.7864 71.9937 43.5 72.6852 43.5 73.4062V76.125ZM44.6419 65.4022C43.4319 64.3834 42.4594 63.1123 41.7925 61.678C41.1257 60.2437 40.7805 58.6809 40.7812 57.0992V52.7818L39.7318 51.7324C38.3916 52.8873 36.7899 53.6978 35.0656 54.0937C33.3412 54.4895 31.5464 54.4586 29.8366 54.0038C28.1269 53.5489 26.554 52.6838 25.2543 51.4835C23.9546 50.2832 22.9673 48.7839 22.3782 47.1157C21.789 45.4475 21.6158 43.6608 21.8735 41.9104C22.1311 40.1601 22.8119 38.4991 23.8568 37.0715C24.9017 35.6438 26.2792 34.4926 27.8696 33.7178C29.4601 32.9429 31.2156 32.5678 32.9839 32.625C33.832 31.6384 34.8746 30.8375 36.0466 30.2725C37.2185 29.7075 38.4945 29.3906 39.7946 29.3415C41.0947 29.2925 42.3909 29.5125 43.6021 29.9877C44.8133 30.4629 45.9132 31.183 46.8332 32.103L48.9375 34.2127V21.75H46.2188C44.0556 21.75 41.981 20.8907 40.4514 19.3611C38.9218 17.8315 38.0625 15.7569 38.0625 13.5938V10.875H27.1875V13.5938C27.1875 15.7569 26.3282 17.8315 24.7986 19.3611C23.269 20.8907 21.1944 21.75 19.0312 21.75H16.3125V65.25H19.0312C21.1944 65.25 23.269 66.1093 24.7986 67.6389C26.3282 69.1685 27.1875 71.2431 27.1875 73.4062V76.125H38.0625V73.4062C38.0621 71.5165 38.718 69.6852 39.918 68.2253C41.118 66.7655 42.7878 65.7676 44.6419 65.4022ZM46.2188 16.3125H48.9375V14.9531C48.9375 13.8715 48.5078 12.8343 47.743 12.0695C46.9782 11.3047 45.941 10.875 44.8594 10.875H43.5V13.5938C43.5 14.3148 43.7864 15.0063 44.2963 15.5162C44.8062 16.0261 45.4977 16.3125 46.2188 16.3125ZM16.3125 70.6875V72.0469C16.3125 74.298 18.1395 76.125 20.3906 76.125H21.75V73.4062C21.75 72.6852 21.4636 71.9937 20.9537 71.4838C20.4438 70.9739 19.7523 70.6875 19.0312 70.6875H16.3125ZM35.8658 47.8663L33.4733 45.4738C32.5471 44.552 31.8232 43.4474 31.3476 42.2304C30.872 41.0133 30.6552 39.7105 30.711 38.4051C29.9851 38.6805 29.3266 39.1083 28.7798 39.6595C28.2331 40.2107 27.8107 40.8726 27.5411 41.6007C27.2715 42.3289 27.161 43.1062 27.2169 43.8806C27.2729 44.655 27.494 45.4085 27.8654 46.0902C28.2369 46.772 28.7501 47.3664 29.3704 47.8333C29.9907 48.3002 30.7039 48.6288 31.4618 48.7971C32.2198 48.9653 33.005 48.9693 33.7646 48.8088C34.5243 48.6482 35.2407 48.3269 35.8658 47.8663Z" fill="#002C42"/>
</svg>
