<svg width="45" height="45" viewBox="0 0 45 45" fill="none" xmlns="http://www.w3.org/2000/svg">
<path d="M45 0H0V45H45V0Z" fill="#7D3DAF"/>
<path d="M36.7318 14.5047L36.7229 14.4691C36.0041 11.5631 32.7634 8.44484 29.7873 7.7961L29.7537 7.78919C24.94 6.87089 20.0592 6.87089 15.2464 7.78919L15.2119 7.7961C12.2368 8.44484 8.99605 11.5631 8.27622 14.4691L8.26832 14.5047C7.37964 18.563 7.37964 22.6786 8.26832 26.7369L8.27622 26.7724C8.96534 29.5544 11.9647 32.5294 14.8298 33.3476V36.5915C14.8298 37.7655 16.2605 38.3422 17.0742 37.495L20.3608 34.0786C21.0736 34.1185 21.7869 34.1407 22.5001 34.1407C24.9232 34.1407 27.3473 33.9116 29.7537 33.4524L29.7873 33.4455C32.7634 32.7968 36.0041 29.6785 36.7229 26.7725L36.7318 26.737C37.6205 22.6786 37.6205 18.563 36.7318 14.5047ZM34.1309 26.1484C33.6511 28.0442 31.1904 30.4012 29.2353 30.8367C26.6758 31.3234 24.096 31.5314 21.5189 31.46C21.4676 31.4586 21.4183 31.4785 21.3826 31.5152C21.0169 31.8906 18.9829 33.9786 18.9829 33.9786L16.4304 36.5983C16.2437 36.7928 15.9159 36.6605 15.9159 36.3919V31.0181C15.9159 30.9294 15.8525 30.8539 15.7653 30.8369C15.7648 30.8368 15.7644 30.8367 15.7639 30.8366C13.8088 30.4011 11.3491 28.0441 10.8682 26.1483C10.0684 22.48 10.0684 18.7614 10.8682 15.0931C11.3491 13.1972 13.8088 10.8402 15.7639 10.4048C20.2339 9.55461 24.7662 9.55461 29.2353 10.4048C31.1914 10.8402 33.6511 13.1972 34.1309 15.0931C34.9316 18.7614 34.9316 22.4801 34.1309 26.1484Z" fill="white"/>
<path d="M26.753 28.6286C26.4524 28.5374 26.166 28.4761 25.9 28.3657C23.1435 27.222 20.6066 25.7466 18.5971 23.4849C17.4543 22.1988 16.5599 20.7468 15.8038 19.2102C15.4453 18.4814 15.1431 17.7242 14.8352 16.9719C14.5543 16.2858 14.968 15.577 15.4035 15.0601C15.8122 14.575 16.3381 14.2037 16.9077 13.9301C17.3522 13.7165 17.7907 13.8397 18.1154 14.2165C18.8172 15.0311 19.4619 15.8874 19.984 16.8317C20.305 17.4125 20.2169 18.1224 19.6351 18.5177C19.4937 18.6138 19.3649 18.7265 19.2332 18.835C19.1176 18.9301 19.0089 19.0262 18.9297 19.155C18.785 19.3906 18.778 19.6684 18.8713 19.9246C19.5887 21.8963 20.798 23.4294 22.7826 24.2552C23.1001 24.3873 23.419 24.5412 23.7849 24.4985C24.3976 24.4269 24.596 23.7549 25.0253 23.4038C25.4449 23.0606 25.9812 23.0561 26.4333 23.3421C26.8854 23.6283 27.3237 23.9355 27.7594 24.2459C28.187 24.5507 28.6128 24.8488 29.0073 25.1961C29.3865 25.5302 29.5172 25.9684 29.3036 26.4217C28.9126 27.2519 28.3436 27.9427 27.5229 28.3835C27.2911 28.5079 27.0144 28.5481 26.753 28.6286C27.0144 28.5481 26.4524 28.5373 26.753 28.6286Z" fill="white"/>
<path d="M22.5076 12.9806C26.1132 13.0816 29.0746 15.4745 29.7092 19.0391C29.8173 19.6464 29.8558 20.2674 29.9039 20.8839C29.9241 21.1432 29.7773 21.3895 29.4975 21.3929C29.2085 21.3963 29.0784 21.1545 29.0596 20.8953C29.0225 20.3823 28.9967 19.8669 28.926 19.3581C28.5528 16.6722 26.4111 14.4501 23.7376 13.9733C23.3353 13.9015 22.9236 13.8826 22.5161 13.8399C22.2585 13.8128 21.9211 13.7972 21.864 13.477C21.8161 13.2085 22.0427 12.9947 22.2984 12.981C22.3679 12.9772 22.4378 12.9803 22.5076 12.9806C22.4378 12.9803 26.1132 13.0816 22.5076 12.9806Z" fill="white"/>
<path d="M27.987 20.0841C27.9811 20.1291 27.9779 20.235 27.9515 20.3347C27.8559 20.6967 27.307 20.742 27.1807 20.3767C27.1432 20.2683 27.1376 20.1449 27.1374 20.0282C27.1361 19.2646 26.9701 18.5017 26.585 17.8372C26.1892 17.1543 25.5844 16.5802 24.875 16.2329C24.4461 16.0228 23.9822 15.8923 23.5121 15.8145C23.3066 15.7805 23.0989 15.7599 22.8925 15.7312C22.6423 15.6964 22.5087 15.5369 22.5205 15.2904C22.5316 15.0593 22.7004 14.8931 22.9522 14.9073C23.7797 14.9543 24.5789 15.1332 25.3145 15.5227C26.8105 16.3149 27.665 17.5654 27.9144 19.2351C27.9257 19.3108 27.9438 19.3857 27.9496 19.4616C27.9637 19.6492 27.9726 19.8369 27.987 20.0841C27.9726 19.8369 27.9811 20.1291 27.987 20.0841Z" fill="white"/>
<path d="M25.7444 19.9967C25.4427 20.0021 25.2813 19.8351 25.2501 19.5585C25.2285 19.3657 25.2114 19.1703 25.1654 18.9827C25.0748 18.6132 24.8784 18.2707 24.5675 18.0443C24.4208 17.9374 24.2545 17.8595 24.0803 17.8092C23.8591 17.7453 23.6293 17.7629 23.4085 17.7088C23.1687 17.6501 23.0361 17.4559 23.0739 17.231C23.1081 17.0263 23.3073 16.8665 23.5309 16.8827C24.9288 16.9836 25.9279 17.7063 26.0705 19.352C26.0806 19.4681 26.0924 19.5908 26.0667 19.7019C26.0225 19.8921 25.8817 19.9874 25.7444 19.9967C25.8817 19.9874 25.4427 20.0021 25.7444 19.9967Z" fill="white"/>
</svg>
