<svg width="45" height="45" viewBox="0 0 45 45" fill="none" xmlns="http://www.w3.org/2000/svg">
<path d="M45 0H0V45H45V0Z" fill="#1BD741"/>
<path d="M6.76331 38.254L8.96753 30.4253C7.55009 28.0172 6.80379 25.2774 6.80379 22.4629C6.80379 13.7967 13.8542 6.74634 22.5203 6.74634C31.1865 6.74634 38.2368 13.7967 38.2368 22.4629C38.2368 31.129 31.1865 38.1794 22.5203 38.1794C19.82 38.1794 17.1759 37.4882 14.8368 36.1757L6.76331 38.254ZM15.2495 33.3165L15.7306 33.6102C17.77 34.8553 20.1179 35.5134 22.5203 35.5134C29.7164 35.5134 35.5707 29.6589 35.5707 22.4629C35.5707 15.2668 29.7164 9.41238 22.5203 9.41238C15.3243 9.41238 9.46984 15.2668 9.46984 22.4629C9.46984 24.9702 10.1825 27.4051 11.5305 29.5043L11.8545 30.0088L10.5851 34.5172L15.2495 33.3165Z" fill="white"/>
<path d="M18.1053 15.1483L17.0855 15.0927C16.7652 15.0752 16.451 15.1822 16.2089 15.3925C15.7145 15.8219 14.924 16.6519 14.6812 17.7335C14.3191 19.3463 14.8786 21.3211 16.3269 23.296C17.7752 25.2708 20.4741 28.4306 25.2466 29.7801C26.7845 30.215 27.9943 29.9218 28.9277 29.3247C29.667 28.8518 30.1766 28.0928 30.3603 27.2347L30.5231 26.4742C30.5748 26.2325 30.4521 25.9872 30.2276 25.8837L26.781 24.2951C26.5572 24.192 26.2919 24.2572 26.1414 24.4522L24.7883 26.2062C24.6861 26.3387 24.5112 26.3913 24.3532 26.3358C23.4266 26.0101 20.3227 24.7102 18.6196 21.4296C18.5457 21.2873 18.5641 21.1146 18.6689 20.9932L19.962 19.4973C20.0941 19.3445 20.1275 19.1298 20.0481 18.9441L18.5624 15.4683C18.4833 15.2832 18.3061 15.1592 18.1053 15.1483Z" fill="white"/>
</svg>
