<svg width="45" height="45" viewBox="0 0 45 45" fill="none" xmlns="http://www.w3.org/2000/svg">
<rect width="45" height="45" fill="#41A0D7"/>
<path d="M22.0277 9.80872C14.5082 9.80872 8.41223 15.4231 8.41223 22.3486C8.41223 26.0007 10.1079 29.2875 12.8129 31.5794L13.1695 36.6307C13.18 36.7781 13.2654 36.9101 13.3961 36.9795C13.5268 37.0489 13.6838 37.0464 13.8119 36.9729L18.2794 34.4072C19.4703 34.7206 20.7276 34.8887 22.0277 34.8887C29.5472 34.8887 35.6431 29.2742 35.6431 22.3486C35.643 15.423 29.5472 9.80858 22.0277 9.80872Z" fill="white"/>
<path d="M15.2125 39.2055L14.7481 38.364L17.7486 36.7085L17.9289 36.7509C18.0063 36.7693 18.0842 36.787 18.1622 36.8041L17.9987 37.5449L18.0509 37.6394L17.9675 37.6854L17.9548 37.7427C17.933 37.738 17.9116 37.7331 17.8898 37.7284L15.2125 39.2055ZM22.0274 38.1844C21.1352 38.1844 20.2389 38.1215 19.3635 37.9976L19.4982 37.0459C20.6097 37.2034 21.7609 37.2562 22.8864 37.2031L22.9318 38.163C22.6327 38.1771 22.3283 38.1844 22.0274 38.1844ZM24.3572 38.0419L24.2397 37.0881C25.3667 36.949 26.4797 36.7017 27.5477 36.3526L27.8463 37.2663C26.7194 37.6344 25.5454 37.8953 24.3572 38.0419ZM10.8989 37.4157L9.90302 34.0734L10.8241 33.7989L11.82 37.1412L10.8989 37.4157ZM29.189 36.7684L28.8196 35.881C29.8678 35.4447 30.8704 34.9039 31.7998 34.2739L32.3391 35.0696C31.3563 35.7359 30.2966 36.3073 29.189 36.7684ZM33.4925 34.2159L32.8892 33.4678C33.7753 32.7536 34.5796 31.9504 35.2799 31.0807L36.0284 31.6835C35.285 32.6067 34.4318 33.4587 33.4925 34.2159ZM9.33479 33.1238C8.47191 32.2785 7.70692 31.3458 7.06116 30.3515L7.86728 29.828C8.4747 30.7634 9.19465 31.6412 10.0073 32.4375L9.33479 33.1238ZM36.8794 30.5254L36.0803 29.9915C36.7104 29.0481 37.2275 28.0402 37.6172 26.9962L38.5178 27.3321C38.1021 28.4457 37.5509 29.5202 36.8794 30.5254ZM6.33368 29.1106C5.77116 28.0416 5.33791 26.9131 5.04563 25.7567L5.97754 25.5212C6.25113 26.6042 6.65719 27.6612 7.18429 28.663L6.33368 29.1106ZM38.9559 25.9611L38.0275 25.7125C38.3175 24.629 38.4765 23.5094 38.5 22.3845L39.4608 22.4046C39.4356 23.6068 39.2657 24.8032 38.9559 25.9611ZM4.76047 24.3443C4.64752 23.6019 4.59021 22.8425 4.59021 22.087C4.59021 21.6421 4.61015 21.1928 4.6492 20.7521L5.60662 20.837C5.56994 21.2499 5.55126 21.6703 5.55126 22.087C5.55126 22.7942 5.60481 23.5051 5.7105 24.1998L4.76047 24.3443ZM38.4642 21.0369C38.3807 19.9173 38.1616 18.8074 37.813 17.7378L38.7268 17.4399C39.0992 18.5829 39.3335 19.7691 39.4226 20.9657L38.4642 21.0369ZM5.79054 19.5024L4.84595 19.3254C5.06585 18.151 5.42896 16.9982 5.92511 15.899L6.8011 16.2943C6.33647 17.3237 5.9965 18.4031 5.79054 19.5024ZM37.3343 16.4769C36.8902 15.455 36.3214 14.4746 35.6438 13.563L36.4152 12.9896C37.1364 13.96 37.7422 15.0043 38.2156 16.0934L37.3343 16.4769ZM7.41298 15.0915L6.57756 14.6165C7.16365 13.5855 7.87412 12.6101 8.68903 11.7174L9.3988 12.3653C8.63213 13.2052 7.96378 14.1225 7.41298 15.0915ZM34.7904 12.5148C34.0479 11.6804 33.2065 10.9165 32.2892 10.2447L32.857 9.46952C33.829 10.1812 34.721 10.991 35.5084 11.876L34.7904 12.5148ZM10.3537 11.406L9.70209 10.6996C10.5738 9.89552 11.5395 9.17501 12.5728 8.55839L13.0653 9.3839C12.0889 9.96635 11.1766 10.6467 10.3537 11.406ZM31.1642 9.4896C30.207 8.90254 29.1814 8.40709 28.1155 8.01749L28.4454 7.11487C29.5715 7.52637 30.6552 8.04984 31.6667 8.67036L31.1642 9.4896ZM14.2565 8.73646L13.832 7.87442C14.8968 7.35011 16.0234 6.92773 17.1805 6.61942L17.428 7.54812C16.3319 7.84012 15.2648 8.24004 14.2565 8.73646ZM26.824 7.60194C25.7415 7.29991 24.6187 7.10036 23.4868 7.00889L23.5641 6.05091C24.757 6.14713 25.9409 6.35755 27.0824 6.67618L26.824 7.60194ZM18.7521 7.24943L18.577 6.30442C19.7054 6.09525 20.8661 5.98914 22.0274 5.98914L22.1342 5.98941L22.1306 6.95046L22.0275 6.95018C20.9245 6.95032 19.8226 7.05114 18.7521 7.24943Z" fill="#C8E6EB"/>
</svg>
