<svg width="69" height="69" viewBox="0 0 69 69" fill="none" xmlns="http://www.w3.org/2000/svg">
<g clip-path="url(#clip0)">
<path d="M34.5024 69.0006C53.5554 69.0006 69.0008 53.5551 69.0008 34.5021C69.0008 15.4492 53.5554 0.00366211 34.5024 0.00366211C15.4494 0.00366211 0.00390625 15.4492 0.00390625 34.5021C0.00390625 53.5551 15.4494 69.0006 34.5024 69.0006Z" fill="white"/>
<path d="M0 34.5001C0 47.4676 7.1584 58.7583 17.7349 64.6517V4.34692C7.1584 10.2409 0 21.531 0 34.5001Z" fill="#D32027"/>
<path d="M34.4995 68.9994C34.1024 68.9994 33.7204 68.9858 33.3311 68.9792C33.7181 68.9922 34.1075 68.9994 34.4995 68.9994Z" fill="white"/>
<path d="M34.4998 0C34.4889 0 34.4797 0.000582671 34.4688 0.000582671C34.4794 0.000582671 34.4891 0 34.4998 0C53.5541 0 53.5541 69 34.4998 69C40.5747 69 46.2786 67.424 51.2367 64.6677V4.33172C46.2785 1.5754 40.5746 0 34.4998 0Z" fill="#E7E7E7"/>
<path d="M51.2363 4.33154V64.6669C61.8287 58.7777 68.9996 47.4783 68.9996 34.5C68.9996 21.5202 61.8288 10.2207 51.2363 4.33154Z" fill="#B52025"/>
<path d="M34.4991 0C34.4882 0 34.479 0 34.4681 0C28.3943 0.0053897 22.6904 1.58632 17.7344 4.34701V64.6514C22.3793 67.2395 27.6823 68.7908 33.3307 68.9787C33.7202 68.9853 34.102 68.9988 34.4991 68.9988C53.5533 68.9994 53.5533 0 34.4991 0Z" fill="#F3F1F2"/>
<path d="M47.8879 33.8765C47.4135 33.4233 46.44 33.4734 46.2662 32.7201C46.0363 30.8696 46.8878 29.7921 47.4248 28.5556C44.7067 29.1913 42.5636 30.2377 42.5658 27.1676C41.0051 29.0759 39.3273 30.984 38.6344 30.6376C37.6501 30.0591 39.5789 25.1478 39.7898 22.5417C38.8376 22.9763 37.0138 23.9296 37.0138 23.9296C37.0138 23.9296 35.3561 20.6873 34.4786 19.088V19.0706C34.4754 19.0738 34.4754 19.0765 34.4743 19.0793C34.4721 19.0771 34.4721 19.0739 34.4699 19.0706V19.088C33.5912 20.6873 31.9347 23.9296 31.9347 23.9296C31.9347 23.9296 30.1098 22.9763 29.1587 22.5417C29.3685 25.1482 31.2974 30.0596 30.313 30.6376C29.6196 30.9846 27.9422 29.0759 26.3827 27.1676C26.3827 30.2377 24.2408 29.1914 21.5237 28.5556C22.0597 29.7915 22.9112 30.8691 22.6791 32.7201C22.5081 33.4734 21.534 33.4233 21.0596 33.8765C24.213 37.0289 29.6784 39.3702 27.0751 41.9729L34.0939 41.3181C34.3238 43.6898 33.5813 46.6004 34.2257 48.2198C34.3767 48.2198 34.3271 48.2198 34.4693 48.2198C34.4715 48.2198 34.4747 48.2198 34.478 48.2198C34.6196 48.2198 34.5673 48.2198 34.7172 48.2198C35.3748 46.542 34.6236 43.6903 34.8534 41.3181L41.8713 41.9729C39.2704 39.3702 44.7357 37.0289 47.8879 33.8765Z" fill="#D32027"/>
</g>
<defs>
<clipPath id="clip0">
<rect width="69" height="69" fill="white"/>
</clipPath>
</defs>
</svg>
