<svg width="69" height="69" viewBox="0 0 69 69" fill="none" xmlns="http://www.w3.org/2000/svg">
<g clip-path="url(#clip0)">
<path d="M68.8479 37.7268H0.15625V37.7278H68.8479V37.7268Z" fill="#C42126"/>
<path d="M65.2668 18.8933H3.7334V18.8943H65.2668V18.8933Z" fill="#C42126"/>
<path d="M67.7121 25.1702H1.28711V25.1712H67.7121V25.1702Z" fill="#C42126"/>
<path d="M14.8284 62.8357H54.1728L54.1748 62.8335H14.8262L14.8284 62.8357Z" fill="#C42126"/>
<path d="M34.4996 0C33.822 0 33.1497 0.0244724 32.4824 0.0626376H36.5173C35.8494 0.0244724 35.1773 0 34.4996 0Z" fill="#C42126"/>
<path d="M68.856 31.4485H0.142578V31.4495H68.856V31.4485Z" fill="#C42126"/>
<path d="M44.6968 12.6163H61.1707C59.214 10.2342 56.9398 8.1255 54.4203 6.34033H42.0498C43.0734 8.14124 43.9537 10.2663 44.6968 12.6163Z" fill="#E7E7E7"/>
<path d="M42.0497 6.34035H54.4201C49.3061 2.71625 43.1664 0.446727 36.5173 0.0627441H35.4551C38.5846 0.456633 40.0221 2.77277 42.0497 6.34035Z" fill="#DC3027"/>
<path d="M67.7131 25.1708C67.0997 22.9831 66.2771 20.8842 65.2662 18.8948H46.3135C46.6975 20.9098 47.0005 23.0146 47.2248 25.1708H67.7131Z" fill="#E7E7E7"/>
<path d="M45.2485 18.8937H65.2666C64.1259 16.65 62.7554 14.5445 61.1712 12.6167H43.6846C44.3012 14.5685 44.8247 16.674 45.2485 18.8937Z" fill="#DC3027"/>
<path d="M47.9512 37.7252H68.8446C68.9438 36.6635 68.9999 35.5876 68.9999 34.5003C68.9999 33.4713 68.946 32.4554 68.8577 31.4487H47.9561C48.0242 33.5362 48.023 35.6389 47.9512 37.7252Z" fill="#E7E7E7"/>
<path d="M68.8577 31.4479C68.6686 29.2923 68.2803 27.1951 67.7132 25.1719H46.3447C46.5593 27.2271 46.701 29.3298 46.7702 31.4479H68.8577Z" fill="#DC3027"/>
<path d="M45.9531 50.2799H65.1759C66.2011 48.2927 67.0367 46.1922 67.6632 44.0029H46.8825C46.6536 46.1623 46.3431 48.2667 45.9531 50.2799Z" fill="#E7E7E7"/>
<path d="M67.6639 44.0026C68.2429 41.9799 68.6449 39.8828 68.8448 37.7266H47.2998C47.2262 39.8462 47.0803 41.9483 46.8613 44.0026H67.6639Z" fill="#DC3027"/>
<path d="M54.1745 62.8336C56.7304 61.0556 59.0368 58.9447 61.0246 56.5576H44.8377C44.0811 58.9175 43.1827 61.0391 42.1406 62.8336H54.1745Z" fill="#E7E7E7"/>
<path d="M44.2285 56.5571H61.0244C62.6271 54.6315 64.0184 52.526 65.1758 50.28H45.8121C45.3824 52.5013 44.8534 54.6079 44.2285 56.5571Z" fill="#DC3027"/>
<path d="M33.2492 68.9754C33.1794 68.9732 33.1098 68.97 33.04 68.9678C33.1098 68.9698 33.1796 68.9732 33.2492 68.9754Z" fill="#DC3027"/>
<path d="M34.5 69C41.8142 69 48.5913 66.7169 54.1727 62.8357H41.6867C39.4707 66.6537 38.0086 69 34.5 69Z" fill="#DC3027"/>
<path d="M34.5001 69C34.0812 69 33.665 68.9903 33.25 68.9756C33.6694 68.9897 34.086 69 34.5001 69Z" fill="#C42126"/>
<path d="M43.192 6.34033H14.5801C12.0602 8.1255 9.78645 10.2341 7.8291 12.6163H45.8383C45.0953 10.2663 44.2156 8.14124 43.192 6.34033Z" fill="#F3F4F5"/>
<path d="M14.5801 6.34035H43.1919C41.1639 2.77277 38.5846 0.456633 35.455 0.0627441H32.4823C25.8333 0.446727 19.6935 2.71625 14.5801 6.34035Z" fill="#E73625"/>
<path d="M1.28711 25.1708H48.3134C48.0889 23.0141 47.7861 20.9098 47.4021 18.8948H3.73406C2.72297 20.8843 1.90052 22.9831 1.28711 25.1708Z" fill="#F3F4F5"/>
<path d="M7.82913 12.6162C6.24614 14.544 4.87453 16.6493 3.73438 18.8932H47.4018C46.9785 16.674 46.4551 14.5686 45.8384 12.6162C45.8384 12.6162 7.82913 12.6162 7.82913 12.6162Z" fill="#E73625"/>
<path d="M0 34.5004C0 35.5877 0.0566652 36.6636 0.155283 37.7252H48.7345C48.8065 35.6388 48.8075 33.5367 48.7395 31.4492H0.142173C0.0538975 32.4555 0 33.4714 0 34.5004Z" fill="#F3F4F5"/>
<path d="M0.142578 31.4479H48.7393C48.6701 29.3294 48.528 27.2273 48.3138 25.1719H1.28652C0.719427 27.1955 0.331074 29.2923 0.142578 31.4479Z" fill="#E73625"/>
<path d="M48.2968 44.0024H1.33691C1.96344 46.1923 2.79958 48.2922 3.82421 50.2795H47.3674C47.7575 48.2666 48.0674 46.1623 48.2968 44.0024Z" fill="#F3F4F5"/>
<path d="M1.33621 44.0026H48.2961C48.5146 41.9483 48.661 39.8456 48.7345 37.7266H0.155273C0.355131 39.8832 0.75776 41.9799 1.33621 44.0026Z" fill="#E73625"/>
<path d="M14.8257 62.8336H43.0867C44.1289 61.0387 45.0276 58.9175 45.7838 56.5576H7.97559C9.96338 58.9447 12.2692 61.0556 14.8257 62.8336Z" fill="#F3F4F5"/>
<path d="M3.82422 50.28C4.98185 52.526 6.37299 54.6314 7.97564 56.557H45.7838C46.4082 54.608 46.9371 52.5015 47.3668 50.28H3.82422Z" fill="#E73625"/>
<path d="M33.0404 68.9679C33.1102 68.9701 33.1798 68.9733 33.2496 68.9755C33.6647 68.9902 34.0809 69 34.4997 69C38.0084 69 40.8694 66.6538 43.0858 62.8357H14.8281C20.0354 66.4573 26.2857 68.6863 33.0404 68.9679Z" fill="#E73625"/>
<path d="M33.7862 0.0178223C16.1068 0.377479 1.69728 14.028 0.146484 31.3915H33.7868V0.0178223H33.7862Z" fill="#283991"/>
<path d="M6.90339 19.5469L7.42897 21.1653H9.13184L7.75424 22.166L8.2804 23.7855L6.90339 22.7842L5.52682 23.7855L6.05196 22.166L4.6748 21.1653H6.37767L6.90339 19.5469Z" fill="#EFEFEF"/>
<path d="M6.90339 25.2646L7.42897 26.884H9.13184L7.75424 27.8848L8.2804 29.5043L6.90339 28.503L5.52682 29.5043L6.05196 27.8848L4.6748 26.884H6.37767L6.90339 25.2646Z" fill="#EFEFEF"/>
<path d="M12.6218 10.9683L13.1475 12.5872H14.8498L13.4726 13.5886L13.9983 15.2069L12.6218 14.2068L11.2446 15.2069L11.7703 13.5886L10.3926 12.5872H12.0954L12.6218 10.9683Z" fill="#EFEFEF"/>
<path d="M12.6218 16.6868L13.1475 18.3057H14.8498L13.4726 19.3059L13.9983 20.9254L12.6218 19.9253L11.2446 20.9254L11.7703 19.3059L10.3926 18.3057H12.0954L12.6218 16.6868Z" fill="#EFEFEF"/>
<path d="M12.6218 22.4058L13.1475 24.0253H14.8498L13.4726 25.0249L13.9983 26.6444L12.6218 25.6433L11.2446 26.6444L11.7703 25.0249L10.3926 24.0253H12.0954L12.6218 22.4058Z" fill="#EFEFEF"/>
<path d="M2.56159 26.6443L2.03544 25.0248L3.41259 24.0246H1.71074L1.67258 23.9065C1.48568 24.4845 1.31685 25.0695 1.16113 25.6611L1.18517 25.6432L2.56159 26.6443Z" fill="#EFEFEF"/>
<path d="M5.52599 18.067L6.90256 17.0658L8.27971 18.067L7.75356 16.4474L9.13071 15.4463H7.42784L6.90212 13.8279L6.3764 15.4463H5.74886C5.63233 15.6228 5.51958 15.8004 5.40625 15.9796L6.05127 16.4474L5.52599 18.067Z" fill="#EFEFEF"/>
<path d="M12.6215 8.48805L13.9981 9.48822L13.4723 7.86983L14.8489 6.86865H13.8656C13.0305 7.49299 12.2248 8.15374 11.4507 8.85091L11.2432 9.48822L12.6215 8.48805Z" fill="#EFEFEF"/>
<path d="M16.9629 6.62962L18.34 5.62844L19.7166 6.62962L19.1909 5.01007L20.5675 4.00991H18.8652L18.7938 3.79199C18.217 4.08668 17.6461 4.39331 17.0882 4.71961L17.488 5.00993L16.9629 6.62962Z" fill="#EFEFEF"/>
<path d="M18.3404 8.10962L18.8661 9.72756H20.5684L19.1912 10.7287L19.7169 12.3483L18.3404 11.347L16.9632 12.3483L17.4889 10.7287L16.1113 9.72756H17.814L18.3404 8.10962Z" fill="#EFEFEF"/>
<path d="M18.3404 13.8281L18.8661 15.4461H20.5684L19.1912 16.4473L19.7169 18.0668L18.3404 17.0655L16.9632 18.0668L17.4889 16.4473L16.1113 15.4461H17.814L18.3404 13.8281Z" fill="#EFEFEF"/>
<path d="M18.3404 19.5469L18.8661 21.1653H20.5684L19.1912 22.166L19.7169 23.7855L18.3404 22.7842L16.9632 23.7855L17.4889 22.166L16.1113 21.1653H17.814L18.3404 19.5469Z" fill="#EFEFEF"/>
<path d="M18.3404 25.2646L18.8661 26.884H20.5684L19.1912 27.8848L19.7169 29.5043L18.3404 28.503L16.9632 29.5043L17.4889 27.8848L16.1113 26.884H17.814L18.3404 25.2646Z" fill="#EFEFEF"/>
<path d="M24.0591 5.24976L24.5848 6.86872H26.2871L24.9105 7.87005L25.4357 9.48843L24.0591 8.48827L22.6815 9.48843L23.2077 7.87005L21.8301 6.86872H23.5328L24.0591 5.24976Z" fill="#EFEFEF"/>
<path d="M24.0591 10.9683L24.5848 12.5872H26.2871L24.9105 13.5886L25.4357 15.2069L24.0591 14.2068L22.6815 15.2069L23.2077 13.5886L21.8301 12.5872H23.5328L24.0591 10.9683Z" fill="#EFEFEF"/>
<path d="M24.0591 16.6868L24.5848 18.3057H26.2871L24.9105 19.3059L25.4357 20.9254L24.0591 19.9253L22.6815 20.9254L23.2077 19.3059L21.8301 18.3057H23.5328L24.0591 16.6868Z" fill="#EFEFEF"/>
<path d="M24.0591 22.4058L24.5848 24.0253H26.2871L24.9105 25.0249L25.4357 26.6444L24.0591 25.6433L22.6815 26.6444L23.2077 25.0249L21.8301 24.0253H23.5328L24.0591 22.4058Z" fill="#EFEFEF"/>
<path d="M29.7779 2.39087L30.3036 4.00983H32.0059L30.6287 5.01L31.1544 6.62954L29.7779 5.62822L28.4003 6.62954L28.9264 5.01L27.5488 4.00983H29.2511L29.7779 2.39087Z" fill="#EFEFEF"/>
<path d="M29.7779 8.10962L30.3036 9.72756H32.0059L30.6287 10.7287L31.1544 12.3483L29.7779 11.347L28.4003 12.3483L28.9264 10.7287L27.5488 9.72756H29.2511L29.7779 8.10962Z" fill="#EFEFEF"/>
<path d="M29.7779 13.8281L30.3036 15.4461H32.0059L30.6287 16.4473L31.1544 18.0668L29.7779 17.0655L28.4003 18.0668L28.9264 16.4473L27.5488 15.4461H29.2511L29.7779 13.8281Z" fill="#EFEFEF"/>
<path d="M29.7779 19.5469L30.3036 21.1653H32.0059L30.6287 22.166L31.1544 23.7855L29.7779 22.7842L28.4003 23.7855L28.9264 22.166L27.5488 21.1653H29.2511L29.7779 19.5469Z" fill="#EFEFEF"/>
<path d="M29.7779 25.2646L30.3036 26.884H32.0059L30.6287 27.8848L31.1544 29.5043L29.7779 28.503L28.4003 29.5043L28.9264 27.8848L27.5488 26.884H29.2511L29.7779 25.2646Z" fill="#EFEFEF"/>
</g>
<defs>
<clipPath id="clip0">
<rect width="69" height="69" fill="white"/>
</clipPath>
</defs>
</svg>
