<svg width="100" height="100" viewBox="0 0 100 100" fill="none" xmlns="http://www.w3.org/2000/svg">
<g clip-path="url(#clip0)">
<path d="M50.1055 45.9404H99.9994V54.3877H50.1055V45.9404Z" fill="#E96D5A"/>
<path d="M0 17.3828V53.1235H44.2451V17.3828H2.93045H0ZM11.6165 46.2212C10.0319 46.2212 8.7471 44.9364 8.7471 43.3517C8.7471 41.7671 10.0319 40.4823 11.6165 40.4823C13.2011 40.4823 14.4859 41.7671 14.4859 43.3517C14.4859 44.9364 13.2011 46.2212 11.6165 46.2212ZM11.6165 38.1721C10.0319 38.1721 8.7471 36.8874 8.7471 35.3027C8.7471 33.7173 10.0319 32.4333 11.6165 32.4333C13.2011 32.4333 14.4859 33.7173 14.4859 35.3027C14.4859 36.8874 13.2011 38.1721 11.6165 38.1721ZM11.6165 30.1224C10.0319 30.1224 8.7471 28.8376 8.7471 27.253C8.7471 25.6676 10.0319 24.3835 11.6165 24.3835C13.2011 24.3835 14.4859 25.6676 14.4859 27.253C14.4859 28.8376 13.2011 30.1224 11.6165 30.1224ZM21.5248 46.2212C19.9394 46.2212 18.6554 44.9364 18.6554 43.3517C18.6554 41.7671 19.9394 40.4823 21.5248 40.4823C23.1094 40.4823 24.3942 41.7671 24.3942 43.3517C24.3942 44.9364 23.1094 46.2212 21.5248 46.2212ZM21.5248 38.1721C19.9394 38.1721 18.6554 36.8874 18.6554 35.3027C18.6554 33.7173 19.9394 32.4333 21.5248 32.4333C23.1094 32.4333 24.3942 33.7173 24.3942 35.3027C24.3942 36.8874 23.1094 38.1721 21.5248 38.1721ZM21.5248 30.1224C19.9394 30.1224 18.6554 28.8376 18.6554 27.253C18.6554 25.6676 19.9394 24.3835 21.5248 24.3835C23.1094 24.3835 24.3942 25.6676 24.3942 27.253C24.3942 28.8376 23.1094 30.1224 21.5248 30.1224ZM31.4323 46.2212C29.8477 46.2212 28.5629 44.9364 28.5629 43.3517C28.5629 41.7671 29.8477 40.4823 31.4323 40.4823C33.0177 40.4823 34.3018 41.7671 34.3018 43.3517C34.3018 44.9364 33.0177 46.2212 31.4323 46.2212ZM31.4323 38.1721C29.8477 38.1721 28.5629 36.8874 28.5629 35.3027C28.5629 33.7173 29.8477 32.4333 31.4323 32.4333C33.0177 32.4333 34.3018 33.7173 34.3018 35.3027C34.3018 36.8874 33.0177 38.1721 31.4323 38.1721ZM31.4323 30.1224C29.8477 30.1224 28.5629 28.8376 28.5629 27.253C28.5629 25.6676 29.8477 24.3835 31.4323 24.3835C33.0177 24.3835 34.3018 25.6676 34.3018 27.253C34.3018 28.8376 33.0177 30.1224 31.4323 30.1224Z" fill="#E96D5A"/>
<path d="M0 74.5559V79.8202V82.6346L97.0696 82.7506H100V74.5559H0Z" fill="#E96D5A"/>
<path d="M50.1055 25.7721H99.9994V20.3133V17.3828H50.1055V25.7721Z" fill="#E96D5A"/>
<path d="M50.1055 31.6321H99.9994V40.0793H50.1055V31.6321Z" fill="#E96D5A"/>
<path d="M0 60.2485H100V68.695H0V60.2485Z" fill="#E96D5A"/>
</g>
<defs>
<clipPath id="clip0">
<rect width="100" height="100" fill="white"/>
</clipPath>
</defs>
</svg>
