<svg width="100" height="100" viewBox="0 0 100 100" fill="none" xmlns="http://www.w3.org/2000/svg">
<g clip-path="url(#clip0)">
<path d="M98.821 23.9705C98.0764 23.6685 96.8874 23.0408 95.4704 22.6628C94.0535 22.263 92.1389 21.5982 90.1863 21.431C88.2137 21.2249 85.9838 21.1642 83.5469 21.2819C81.1679 21.4757 78.7528 21.9809 76.1629 22.6504C73.5759 23.3181 71.2093 24.4292 68.6812 25.6449C66.2138 26.9023 63.9649 28.4712 61.7132 30.1797C59.5849 31.9442 57.5658 33.8978 55.7196 35.9748C53.9978 38.1088 52.2864 40.3045 50.9682 42.6474C49.6092 44.9742 48.4373 47.3703 47.5892 49.8205C45.7753 54.6716 45.0525 59.6632 44.9766 64.1088C44.9832 66.3643 45.1162 68.4575 45.3954 70.3806C45.6395 72.2924 46.1181 74.0569 46.4875 75.4834C46.6366 76.1529 46.8465 76.793 47.0536 77.3591C47.4173 76.5955 47.8124 75.7902 48.253 74.9088C50.4421 70.5668 53.6331 64.9122 57.3645 59.6167C59.2231 56.9651 61.2621 54.4437 63.2498 52.1644C64.303 51.0694 65.3211 50.0161 66.2822 49.0171C67.3155 48.0892 68.2908 47.2098 69.1845 46.4006C70.1542 45.6722 71.0374 45.0093 71.8237 44.4186C72.5778 43.7927 73.367 43.429 73.9587 43.0529C75.1648 42.3387 75.8533 41.9313 75.8533 41.9313C75.8533 41.9313 75.1971 42.3948 74.0527 43.1963C73.4962 43.6218 72.7488 44.0349 72.0469 44.714C71.3194 45.356 70.4999 46.0787 69.6033 46.8669C68.7818 47.7369 67.8939 48.6704 66.9546 49.6619C66.0904 50.7151 65.1768 51.8263 64.2347 52.9773C62.4568 55.3725 60.6695 57.9851 59.0607 60.7222C55.8212 66.1716 53.1507 71.9353 51.3538 76.322C50.8486 77.5575 50.4231 78.6621 50.0575 79.6374C50.8267 79.4323 51.804 79.2148 52.8582 78.8254C54.1953 78.361 55.9219 77.8824 57.5953 77.1995C59.3085 76.5442 61.1348 75.7702 62.9772 74.8889C64.8491 74.0209 66.6725 73.0009 68.5406 71.9277C70.4068 70.8593 72.1742 69.637 73.9302 68.3796C75.6359 67.0728 77.3292 65.7527 78.8658 64.2911C80.3844 62.7887 81.9181 61.3794 83.2439 59.7506C85.9705 56.627 88.2935 53.286 90.1863 49.7597C91.1711 48.0987 91.9898 46.1651 92.7923 44.4176C93.6043 42.6835 94.2937 40.7594 94.9804 38.9948C95.6727 37.2626 96.3128 35.5075 96.8779 33.7981C97.4923 32.0373 98.0289 30.5026 98.4743 29.2414C98.9881 27.9868 99.3091 26.6753 99.5988 25.9032C99.8657 25.0313 100.002 24.5707 100.002 24.5707C100.002 24.5707 99.5883 24.32 98.821 23.9705Z" fill="#E96D5A"/>
<path d="M38.3964 63.0033C35.7449 61.1438 33.2263 59.1038 30.946 57.1142C29.8539 56.0676 28.7997 55.0467 27.7987 54.0856C26.8689 53.0523 25.9952 52.077 25.1794 51.1833C24.4529 50.2175 23.7919 49.3266 23.1983 48.5441C22.5725 47.7891 22.2135 47.0008 21.8346 46.4092C21.1185 45.2059 20.712 44.5145 20.712 44.5145C20.712 44.5145 21.1755 45.1707 21.9808 46.3151C22.3996 46.8707 22.8156 47.6172 23.4984 48.319C24.1404 49.0493 24.8622 49.8689 25.6514 50.7654C26.5194 51.5841 27.4549 52.4749 28.4464 53.4104C29.4977 54.2746 30.6127 55.1882 31.7618 56.1303C34.1541 57.9015 36.7696 59.6955 39.5047 61.3043C40.6368 61.9805 41.784 62.575 42.9275 63.1857C43.3055 57.0696 44.561 51.0238 46.4404 45.5174C45.3635 44.1251 44.2713 42.7547 43.0699 41.5001C41.5684 39.9787 40.1648 38.4449 38.5303 37.121C35.4049 34.3945 32.0676 32.0724 28.5423 30.1768C26.8813 29.192 24.9448 28.3733 23.1974 27.5718C21.467 26.7598 19.5448 26.0674 17.7793 25.3846C16.0452 24.6951 14.292 24.0569 12.5806 23.4919C10.8208 22.8726 9.28992 22.3361 8.02397 21.8906C6.76941 21.3797 5.45502 21.0559 4.68576 20.7662C3.81773 20.5031 3.35522 20.3635 3.35522 20.3635C3.35522 20.3635 3.09785 20.7823 2.74551 21.5488C2.44636 22.2914 1.81765 23.4824 1.43777 24.8993C1.03984 26.3115 0.373153 28.2271 0.210754 30.1806C0.000869112 32.155 -0.0589622 34.3878 0.0616501 36.8238C0.249691 39.2009 0.753984 41.6122 1.42542 44.2058C2.09781 46.7909 3.20612 49.1604 4.41984 51.6905C5.67915 54.1511 7.24616 56.4 8.96037 58.6556C10.724 60.7877 12.6775 62.8058 14.7536 64.6549C16.8838 66.371 19.0842 68.0833 21.4309 69.4062C23.753 70.7653 26.15 71.9381 28.5993 72.7834C33.4485 74.6002 38.4401 75.3219 42.8895 75.3998C43.0794 75.3998 43.2418 75.3799 43.4223 75.3742C42.9465 72.2572 42.7736 69.0757 42.8325 65.8809C41.3557 64.9531 39.8723 64.0432 38.3964 63.0033Z" fill="#E96D5A"/>
</g>
<defs>
<clipPath id="clip0">
<rect width="100" height="100" fill="white"/>
</clipPath>
</defs>
</svg>
