<svg width="100" height="100" viewBox="0 0 100 100" fill="none" xmlns="http://www.w3.org/2000/svg">
<path d="M72.7611 25.0121C72.9402 25.004 73.1189 25 73.2973 25C74.5347 25.0028 75.7648 25.1909 76.9465 25.5582L77.3967 23.7578C78.6939 18.567 78.2555 13.0942 76.1484 8.17617C75.9034 7.60501 75.4962 7.11825 74.9773 6.77615C74.4584 6.43405 73.8506 6.25163 73.229 6.25146C72.6075 6.2513 71.9996 6.4334 71.4805 6.77522C70.9614 7.11704 70.554 7.60357 70.3086 8.1746C69.804 9.35146 69.3925 10.5661 69.0781 11.8074C70.5305 14.4999 71.5228 17.4162 72.0141 20.4357L72.7611 25.0121Z" fill="#E96D5A"/>
<path d="M17.3602 72.0703C16.7909 71.9407 16.2089 71.8751 15.625 71.875H10.9375V76.5625C10.9398 78.6338 11.7637 80.6196 13.2283 82.0842C14.6929 83.5488 16.6787 84.3727 18.75 84.375H19.0127C17.4582 80.4718 16.8906 76.2454 17.3602 72.0703Z" fill="#E96D5A"/>
<path d="M64.0928 86.2439L63.21 81.8298L58.7812 82.8125L59.284 85.3281L64.8988 93.75H68.9555L64.325 86.8043C64.2117 86.6344 64.1328 86.4441 64.0928 86.2439Z" fill="#E96D5A"/>
<path d="M85.5506 34.4325L78.4127 29.6755C78.0736 29.4492 77.7192 29.2469 77.352 29.07C77.3324 29.0612 77.3151 29.0519 77.2971 29.0423C75.5658 28.2041 73.6147 27.9316 71.7199 28.2632C71.5165 28.2984 71.3081 28.293 71.1068 28.2472C70.9055 28.2015 70.7152 28.1162 70.547 27.9965C70.3788 27.8768 70.236 27.7249 70.1269 27.5496C70.0178 27.3744 69.9444 27.1792 69.9111 26.9755L68.9248 20.9403C68.4594 18.0804 67.4877 15.3263 66.0553 12.8075C66.0502 12.7983 66.0449 12.7894 66.0401 12.78C64.8685 10.7173 63.4024 8.83653 61.6881 7.19697C61.2923 6.80827 60.8042 6.52662 60.2696 6.3785C59.7349 6.23039 59.1714 6.22068 58.632 6.35029C57.9494 6.52781 57.345 6.92686 56.9135 7.48488C56.4821 8.0429 56.248 8.72833 56.2481 9.43369C56.2478 14.7686 58.0003 19.9558 61.236 24.1974L65.7598 30.1243C65.9627 30.3903 66.0749 30.7143 66.0799 31.0488C66.0849 31.3833 65.9824 31.7106 65.7875 31.9825C64.6613 33.5482 64.057 35.4289 64.0606 37.3575V43.7501C64.0606 44.0402 63.9798 44.3247 63.8272 44.5715C63.6747 44.8183 63.4564 45.0178 63.1969 45.1476L50.6969 51.3976C50.5727 51.4598 50.4407 51.5051 50.3045 51.5323L37.3768 54.1183C33.1859 54.9565 29.3456 57.0399 26.3578 60.0959C23.3701 63.152 21.374 67.0384 20.6307 71.2472C19.818 75.8794 20.5692 80.7198 22.8033 85.246C23.1897 86.0272 23.6252 86.8112 24.0977 87.5735C24.1123 87.5972 24.1264 87.6212 24.1397 87.6454L27.486 93.7501H53.1231V92.1876C53.1221 91.3591 52.7925 90.5648 52.2067 89.979C51.6209 89.3931 50.8266 89.0636 49.9981 89.0626H43.7481C43.3337 89.0626 42.9362 88.898 42.6432 88.6049C42.3502 88.3119 42.1856 87.9145 42.1856 87.5001V85.9376C42.1856 85.8636 42.1908 85.7897 42.2014 85.7165C42.594 82.9681 42.0363 80.1681 40.6207 77.7799C39.2051 75.3917 37.0163 73.5584 34.4168 72.5837L32.2619 71.7755L33.3592 68.8497L35.5141 69.6577C38.7444 70.8691 41.4709 73.136 43.2516 76.0909C45.0323 79.0458 45.7629 82.5155 45.3248 85.9376H48.7199L50.0975 82.264C50.1888 82.0204 50.3396 81.8036 50.5359 81.633C50.7323 81.4625 50.9682 81.3437 51.2221 81.2874L62.5951 78.7651L60.9658 70.6192L64.0303 70.0063L67.0946 85.3282L72.7092 93.7501H81.2481C81.2471 92.9216 80.9175 92.1273 80.3317 91.5415C79.7459 90.9556 78.9516 90.6261 78.1231 90.6251H76.5606C76.2704 90.6251 75.986 90.5443 75.7392 90.3917C75.4923 90.2392 75.2929 90.0209 75.1631 89.7614L73.6006 86.6364C73.4921 86.4195 73.4355 86.1802 73.4356 85.9376V68.7501H76.5606V70.9114C78.5921 67.9819 79.6823 64.5026 79.6856 60.9376V50.0001C79.6856 49.5857 79.8502 49.1883 80.1432 48.8952C80.4362 48.6022 80.8337 48.4376 81.2481 48.4376H81.4629C82.4699 48.4377 83.4669 48.2376 84.3959 47.849C85.325 47.4603 86.1674 46.8908 86.8744 46.1737C87.5813 45.4565 88.1387 44.606 88.514 43.6715C88.8893 42.737 89.0751 41.7373 89.0606 40.7304C89.0299 39.4747 88.6943 38.2454 88.0829 37.1482C87.4714 36.0511 86.6023 35.1191 85.5506 34.4325ZM76.5606 40.6251C75.9425 40.6251 75.3383 40.4418 74.8244 40.0984C74.3105 39.7551 73.91 39.267 73.6734 38.696C73.4369 38.125 73.375 37.4966 73.4956 36.8904C73.6162 36.2842 73.9138 35.7274 74.3509 35.2904C74.7879 34.8533 75.3447 34.5557 75.9509 34.4351C76.5571 34.3146 77.1854 34.3764 77.7565 34.613C78.3275 34.8495 78.8155 35.25 79.1589 35.7639C79.5023 36.2778 79.6856 36.882 79.6856 37.5001C79.6846 38.3286 79.355 39.1229 78.7692 39.7087C78.1834 40.2946 77.3891 40.6241 76.5606 40.6251Z" fill="#E96D5A"/>
</svg>
