<svg width="168" height="168" viewBox="0 0 168 168" fill="none" xmlns="http://www.w3.org/2000/svg">
<circle cx="84" cy="84" r="84" fill="black"/>
<path d="M127.314 95.0678L126.204 94.3274L124.279 93.291C124.279 93.291 119.985 91.4402 115.765 91.4402L113.989 94.9197L113.026 98.9175L109.473 105.21L109.621 105.136C109.621 105.136 112.878 103.804 113.396 103.581C113.915 103.359 115.987 102.027 115.987 102.027L119.689 98.8434L121.096 97.881L123.687 96.5484L125.76 95.8081L127.833 95.0678H127.314Z" fill="#5C823A"/>
<path d="M128.273 94.9937C126.866 94.6235 125.682 93.7352 124.423 93.1429C123.165 92.4766 121.758 92.0324 120.351 91.7363C118.723 91.3661 117.02 91.2921 115.391 91.4401C115.687 91.4401 115.835 91.4401 115.835 91.4401L115.539 92.0324C115.835 91.9584 116.205 91.8843 116.502 91.8103C117.76 91.8103 119.093 91.9584 120.351 92.1805C119.907 92.2545 119.537 92.4026 119.167 92.6247C117.908 93.439 116.872 94.3274 115.539 95.0677C115.021 95.1418 114.429 95.2898 113.91 95.3639L113.836 95.734C115.613 95.3639 117.464 95.1418 119.315 94.9937C120.351 95.1418 121.24 95.4379 122.202 95.8821C122.72 96.1042 123.165 96.3263 123.757 96.3263C122.942 96.6964 122.128 97.0666 121.314 97.5108C119.685 97.8069 118.13 96.9185 116.65 96.2523C115.613 95.8081 114.725 95.66 113.836 95.66V95.734C114.503 95.734 115.169 95.8081 115.835 96.0302C116.65 96.3263 117.464 96.8445 118.278 97.2147C119.093 97.5848 119.981 97.8069 120.944 97.7329C120.721 97.881 120.573 97.955 120.351 98.1031C119.759 98.4732 119.241 98.9915 118.649 99.4357C116.872 99.8798 114.947 98.8434 113.244 98.1031L113.17 98.3252C113.54 98.4732 113.91 98.6213 114.281 98.7694C115.465 99.2876 117.02 99.9539 118.426 99.6577C118.056 100.028 117.612 100.398 117.242 100.768C116.872 101.064 116.576 101.36 116.206 101.657C115.095 102.027 114.059 102.397 112.8 102.249C112.356 102.175 111.838 102.101 111.393 101.953L111.245 102.175C112.504 102.545 114.133 102.693 115.391 102.175C114.873 102.545 114.281 102.915 113.688 103.211C113.17 103.507 112.726 103.73 112.208 103.952C111.541 104.026 110.875 104.026 110.209 103.878L110.061 104.1C110.579 104.174 111.097 104.174 111.69 104.174C111.023 104.47 110.357 104.692 109.617 104.914L109.395 105.284C110.505 104.914 111.541 104.544 112.504 104.1C115.095 102.915 117.094 101.212 119.241 99.3616C120.055 98.6953 120.944 98.029 121.98 97.5108C123.979 96.4003 126.126 95.66 128.273 95.2898C128.421 95.3639 128.495 95.0677 128.273 94.9937ZM115.909 94.9937C116.798 94.5495 117.612 94.0313 118.352 93.365C118.871 92.9948 119.389 92.5506 120.055 92.3285C120.351 92.2545 120.721 92.2545 121.018 92.2545C123.165 92.7727 124.941 93.9572 126.866 94.8456C126.57 94.7716 126.348 94.6976 126.052 94.6976C125.83 94.6976 125.608 94.6235 125.386 94.6235C125.386 94.6235 125.311 94.5495 125.237 94.5495C122.276 94.4755 119.093 94.5495 115.909 94.9937ZM123.831 96.3263C122.868 96.0302 122.054 95.5119 121.166 95.1418C120.944 95.0677 120.796 94.9937 120.573 94.9197C122.202 94.8456 123.757 94.9197 125.386 94.9937H125.46C125.682 94.9937 125.904 95.0677 126.126 95.0677C126.422 95.1418 126.644 95.2158 126.94 95.2158C125.978 95.4379 125.015 95.8081 124.127 96.1782C123.979 96.2523 123.905 96.3263 123.831 96.3263Z" fill="#19120B"/>
<path d="M53.4244 95.8821C52.8322 93.2909 53.9427 91.5142 53.9427 91.5142C55.2012 89.8114 55.7194 87.6645 55.9415 86.1098L55.6454 85.7396C51.1294 83.5927 44.0223 85.6656 44.0223 85.6656L42.0235 86.48L40.8389 87.0722L40.4688 87.1463L42.3936 88.1087L44.3184 89.0711L46.7615 90.6998L48.0201 91.8103L51.3515 95.4379C51.3515 95.4379 53.2764 96.9926 53.7206 97.2887C53.7946 97.2887 53.8686 97.3627 53.9427 97.4368C53.6465 96.9185 53.4984 96.4003 53.4244 95.8821Z" fill="#5C823A"/>
<path d="M53.721 97.2887C53.5729 97.2147 53.4249 97.0666 53.2768 96.9926C52.7586 96.6224 52.2404 96.1782 51.7221 95.734C52.2404 96.0302 52.8326 96.1782 53.4249 96.2523C53.4249 96.1782 53.3508 96.1042 53.3508 95.9561C52.5365 95.8081 51.7962 95.4379 50.9818 95.0677C50.6857 94.7716 50.3155 94.4015 50.0194 94.1053C49.6492 93.6611 49.279 93.291 48.9829 92.8468C50.3155 93.291 51.9442 92.8468 53.2028 92.4766C53.2768 92.4766 53.4249 92.4026 53.4989 92.4026C53.4989 92.3286 53.5729 92.2545 53.5729 92.1805C52.0183 92.6987 50.3155 93.1429 48.7608 92.6247C48.3166 92.1064 47.7984 91.5142 47.2802 91.07C47.1321 90.9219 46.91 90.7739 46.7619 90.6998C47.6503 90.8479 48.6128 90.7739 49.4271 90.4777C50.3155 90.1816 51.0558 89.8115 51.9442 89.5894C52.9066 89.3673 53.721 89.4413 54.6094 89.6634C54.6834 89.6634 54.7575 89.7374 54.8315 89.7374C54.9055 89.6634 54.9055 89.5153 54.9796 89.4413C54.0912 89.1452 53.2028 88.849 52.3144 88.5529C51.1299 87.6645 50.1674 86.6281 48.9829 85.6656C48.6128 85.3695 48.2426 85.1474 47.8724 85.0734C49.205 84.9993 50.4636 84.9993 51.7962 85.1474C52.3884 85.3695 52.9066 85.5176 53.4249 85.8877C54.1652 86.406 54.5354 87.1463 54.9796 87.8866C55.1276 88.0347 55.2017 88.2568 55.3497 88.4048C55.3497 88.3308 55.4237 88.2568 55.4237 88.1827C55.0536 87.6645 54.7575 87.1463 54.3873 86.7021C54.0172 86.1839 53.4249 85.7397 52.7586 85.3695C53.721 85.5176 54.6834 85.8137 55.5718 86.1839C55.6459 86.1839 55.7199 86.1839 55.7939 86.1098C55.7939 86.0358 55.7939 85.8877 55.7939 85.8137C55.7939 85.7397 55.7199 85.7397 55.7199 85.7397C53.2768 84.8513 50.5376 84.3331 47.9465 84.6292C46.5399 84.7773 45.0592 85.0734 43.7266 85.5916C42.3941 86.0358 41.0615 86.7761 39.6549 86.9982C39.4328 86.9982 39.4328 87.2943 39.6549 87.3684C41.7278 87.9606 43.8007 88.9971 45.6515 90.3297C46.5398 90.996 47.4283 91.7363 48.0946 92.5506C49.8713 94.4755 51.5001 96.2523 53.647 97.7329C53.7951 97.5108 53.795 97.3627 53.721 97.2887ZM47.2802 85.1474C47.5763 85.1474 47.9465 85.2214 48.2426 85.2955C48.8349 85.5176 49.3531 86.0358 49.7973 86.48C50.4636 87.1463 51.2039 87.8126 52.0923 88.4048C49.057 87.5905 45.8736 87.0723 42.7642 86.8502C42.6902 86.8502 42.6902 86.8502 42.6161 86.9242C42.3941 86.9242 42.1719 86.9242 41.9498 86.9242C41.7277 86.9242 41.4316 86.9242 41.1355 86.9982C43.2084 86.406 45.1332 85.3695 47.2802 85.1474ZM43.8007 88.6269C42.9863 88.1827 42.0979 87.6645 41.2095 87.3684C41.5056 87.3684 41.7278 87.2943 42.0239 87.2943C42.246 87.2943 42.4681 87.2943 42.6902 87.2943H42.7642C44.3929 87.3684 45.9476 87.5905 47.5763 87.8126C47.3542 87.8126 47.1321 87.8866 46.9841 87.9606C46.0217 88.1827 45.2073 88.701 44.1708 88.849C43.9487 88.701 43.8747 88.701 43.8007 88.6269ZM44.1708 88.849C44.689 88.9231 45.2073 88.775 45.7255 88.5529C46.762 88.1827 47.6503 88.0347 48.7608 88.0347C50.6116 88.4048 52.3884 88.849 54.1652 89.4413C53.2028 89.2932 52.2403 89.3672 51.2039 89.6634C49.6492 90.1076 48.0205 90.8479 46.4658 90.3297C45.6515 89.7374 44.9111 89.2932 44.1708 88.849Z" fill="#19120B"/>
<path d="M70.2301 100.62C70.1561 100.62 70.1561 100.694 70.082 100.694C70.2301 100.842 70.3041 100.768 70.2301 100.62Z" fill="#19120B"/>
<path d="M101.695 93.1429C101.991 92.8468 102.287 92.6247 102.509 92.2545C102.805 91.8103 102.879 91.3661 103.027 90.8479C103.471 89.2932 104.212 87.7385 105.1 86.4059L105.026 86.3319C105.47 86.0358 105.914 85.7397 106.285 85.5176C106.433 85.3695 106.655 85.2955 106.729 85.1474C106.803 84.9993 106.877 84.7772 106.877 84.5551C107.543 80.9275 108.135 77.3 108.802 73.6724C107.543 72.5619 106.359 71.3774 105.174 70.1928C104.508 69.2304 103.99 68.194 103.619 67.1575C103.101 65.899 102.805 64.4924 101.991 63.3078C101.621 62.7156 101.102 62.2714 100.584 61.8272C99.3255 60.7167 98.0669 59.6803 96.7343 58.6438C100.806 59.9764 104.952 61.2349 109.024 62.5675C109.468 62.7156 109.912 62.8636 110.282 63.0857C110.875 63.4559 111.245 63.9741 111.689 64.4924C113.836 67.0095 116.205 69.3045 118.648 71.5254C118.426 73.7464 118.426 76.0414 118.574 78.2624C118.5 78.1883 118.5 78.1884 118.426 78.1143C117.463 76.9298 116.353 75.8193 115.168 74.8569C115.391 77.1519 115.613 79.5209 115.909 81.8159C116.205 84.1109 116.501 86.3319 116.871 88.6269C116.945 88.9971 116.945 89.3672 116.871 89.7374C116.797 90.0335 116.575 90.2556 116.427 90.4777C116.205 90.7739 115.983 90.996 115.761 91.2921C113.318 93.9573 110.282 96.1782 107.025 97.7329C106.581 97.955 106.136 98.1771 105.988 98.6213C105.914 98.9174 105.914 99.2135 105.84 99.5097C105.618 100.324 104.582 100.62 103.693 100.768C100.88 101.138 98.141 101.509 95.3278 101.879L95.1797 101.805C95.4758 101.435 95.6979 100.99 95.92 100.546C97.7708 97.6589 99.1774 94.7716 101.695 93.1429Z" fill="#E96D5A"/>
<path d="M118.719 78.0402C117.83 79.2247 117.09 80.4092 116.424 81.6678H116.275C115.979 79.3728 115.757 77.0778 115.535 74.7087C116.646 75.7452 117.682 76.8557 118.719 78.0402Z" fill="#E96D5A"/>
<path d="M94.1435 113.798C94.1435 113.798 94.1435 113.872 94.1435 113.798C94.0695 113.946 94.0695 114.02 94.0695 114.02L93.9955 114.094C93.5513 114.612 92.8109 114.39 92.1447 114.242C90.8121 113.946 89.3314 114.242 88.2209 115.056C87.6286 115.501 87.1104 116.093 86.4442 116.093C86.148 116.093 85.8519 116.019 85.5558 115.871C81.484 114.39 77.4862 112.613 73.6366 110.614L73.5625 110.318C77.4122 109.43 81.2619 108.838 85.1116 109.282C86.8884 107.061 89.4795 105.654 91.9966 104.322C92.885 103.878 93.7733 103.433 94.5137 102.693C94.8838 102.323 95.254 101.879 95.5501 101.434L95.6982 101.508C98.5114 101.138 101.251 100.768 104.064 100.398C104.952 100.25 105.989 100.028 106.211 99.1395C106.285 98.8433 106.211 98.5472 106.359 98.2511C106.507 97.8069 106.951 97.5848 107.395 97.3627C110.653 95.808 113.688 93.587 116.131 90.9219L116.205 90.9959C114.206 93.3649 113.614 96.5483 113.022 99.5837C112.948 99.9538 112.874 100.25 112.726 100.62C112.578 100.916 112.281 101.212 112.059 101.508C111.467 102.175 110.949 102.841 110.431 103.581C109.69 104.618 109.098 105.802 108.58 106.987C108.432 107.357 108.21 107.801 107.988 108.171C107.543 108.69 106.877 108.912 106.285 109.06C106.063 109.134 105.841 109.134 105.619 109.208C104.878 109.356 104.138 109.43 103.398 109.578C102.731 109.726 102.065 109.8 101.399 109.948C100.288 110.17 99.1777 110.466 98.1413 110.689C96.6606 111.059 94.8838 111.725 94.5137 113.206C94.2175 113.428 94.2175 113.65 94.1435 113.798Z" fill="#E96D5A"/>
<path d="M87.2548 90.7739C87.4769 90.6258 87.773 90.5518 87.9951 90.4037C87.9951 90.4037 88.0692 90.4037 88.0692 90.3297C92.363 88.2568 96.5829 85.9618 100.655 83.5187C100.062 80.5574 101.025 77.374 103.246 75.3011C101.913 74.6348 100.803 73.3762 100.359 71.9696C100.062 71.0812 99.9143 70.1188 99.4701 69.3045C98.5817 67.6758 96.5088 67.0095 95.0282 65.899C93.6216 64.8625 92.5851 63.3819 91.1045 62.5675C89.6979 61.8272 87.9951 61.7532 86.4404 61.457C85.0338 61.2349 83.6272 60.7907 82.2946 60.2725V60.0504C86.7365 60.1985 91.1785 60.2725 95.6945 60.4206C96.0646 60.4206 96.4348 60.4206 96.7309 60.6427C97.027 60.7907 97.1751 61.0869 97.3972 61.309C98.2116 62.4194 99.174 63.4559 100.285 64.2703C100.655 64.5664 101.099 64.8625 101.395 65.1587C101.765 65.5288 101.987 66.047 102.283 66.4912C103.098 67.7498 104.134 68.8603 105.171 69.8967C105.245 69.9708 105.319 70.0448 105.393 70.1188C106.577 71.3033 107.836 72.4879 109.02 73.5983C108.354 77.2259 107.762 80.8535 107.095 84.4811C107.095 84.7032 107.021 84.8513 106.947 85.0734C106.799 85.2214 106.651 85.3695 106.503 85.4435C106.059 85.7397 105.615 86.0358 105.245 86.2579C102.95 87.7385 100.655 89.2932 98.3596 90.7739C97.5453 91.2921 96.6569 91.8843 95.6945 92.1805C93.1774 92.9208 90.5122 91.8103 87.9211 92.1805C86.9587 92.3285 86.0703 92.6987 85.1079 93.0689C82.8869 93.9572 80.5919 94.8456 78.3709 95.734L78.2969 95.586C78.8151 95.3639 79.4074 95.1418 79.9256 94.8456C82.2206 93.6611 84.1454 91.6622 86.6625 90.996H86.8846C86.9586 90.9219 87.1067 90.8479 87.2548 90.7739Z" fill="#E96D5A"/>
<path d="M82.2224 60.0504V60.2725C82.0003 60.1984 81.8523 60.1244 81.6302 60.0504C81.4081 59.9023 81.1119 59.8283 80.8158 59.8283C80.5196 59.8283 80.1495 59.9023 79.8534 60.0504C79.5572 60.1984 79.1871 60.3465 78.8909 60.4205V60.3465C76.8921 60.0504 75.4855 60.1984 73.4866 60.2725C71.7098 60.3465 69.933 60.3465 68.1562 60.4205C69.933 58.4217 71.7098 56.4228 73.4866 54.4239C73.7827 54.1278 74.0788 53.7576 74.449 53.6096C74.7451 53.4615 75.0413 53.4615 75.4114 53.3875C80.1495 52.8692 84.8876 52.4991 89.6997 52.277C89.5516 53.0913 89.9958 53.9057 90.6621 54.4239C91.3284 54.9421 92.0687 55.2383 92.809 55.6084C94.1416 56.2747 95.4002 57.2371 96.5847 58.1996C96.7328 58.2736 96.8068 58.4217 96.9549 58.4957C98.2874 59.5322 99.546 60.5686 100.805 61.6791C101.323 62.1233 101.841 62.6415 102.211 63.1597C103.026 64.2702 103.322 65.6768 103.84 67.0094C104.284 68.0459 104.802 69.0823 105.395 70.0448C105.32 69.9707 105.246 69.8967 105.172 69.8227C104.136 68.7862 103.025 67.6757 102.285 66.4172C101.989 65.973 101.767 65.4547 101.397 65.0846C101.101 64.7144 100.656 64.4923 100.286 64.1962C99.1758 63.3818 98.2134 62.3454 97.399 61.2349C97.1769 60.9388 97.0289 60.7167 96.7327 60.5686C96.4366 60.4205 96.0665 60.3465 95.6963 60.3465C91.1063 60.3465 86.6643 60.1984 82.2224 60.0504Z" fill="#E96D5A"/>
<path d="M66.8266 96.1782C66.5305 95.8821 66.3084 95.586 66.0123 95.2898C65.5681 94.7716 65.1239 94.2534 64.6797 93.7351C66.8266 94.4014 68.8996 95.1418 70.8984 96.1042C71.4907 96.4003 72.0829 96.6964 72.6752 96.7705C73.7857 96.9926 74.9702 96.6224 76.0807 96.2522C76.821 96.0302 77.5613 95.8081 78.2276 95.5119L78.3017 95.66C80.5226 94.7716 82.8176 93.8832 85.0386 92.9948C85.927 92.6247 86.8894 92.2545 87.8518 92.1064C90.443 91.7363 93.1821 92.8468 95.6252 92.1064C96.5876 91.8103 97.4761 91.218 98.2904 90.6998C100.585 89.2192 102.88 87.6645 105.175 86.1838L105.249 86.2579C104.361 87.6645 103.621 89.1451 103.177 90.6998C103.028 91.144 102.88 91.6622 102.658 92.1064C102.436 92.4766 102.14 92.6987 101.77 92.9208C100.808 93.513 99.549 93.7351 98.6606 94.5495C98.2904 94.9197 98.0683 95.2898 97.6982 95.66C96.2175 97.3627 93.8484 97.7329 91.7015 98.3252C87.7778 99.5097 84.2242 101.805 80.8187 104.1C80.0044 103.655 79.116 103.137 78.3017 102.693C77.7834 102.397 77.3392 102.175 76.821 101.879C76.2288 101.509 75.6365 101.212 74.8961 101.138C74.2299 101.064 73.5636 101.286 72.8973 101.212C71.4907 101.138 70.4542 100.028 69.4918 98.9914C68.6034 98.1771 67.715 97.1406 66.8266 96.1782Z" fill="#E96D5A"/>
<path d="M101.62 93.0688C99.1773 94.7716 97.7707 97.6588 96.216 100.324C95.9939 100.768 95.6977 101.138 95.4756 101.583C95.1795 102.027 94.8093 102.471 94.4392 102.841C93.6989 103.507 92.8104 103.952 91.9221 104.47C89.405 105.802 86.8138 107.209 85.0371 109.43C81.1133 108.986 77.2637 109.578 73.488 110.466C70.3787 111.207 67.2693 112.169 64.1599 112.91C64.0118 112.984 63.7898 112.984 63.6417 112.984C63.2716 112.91 63.1235 112.539 62.9754 112.243C62.087 110.54 61.0506 108.986 59.792 107.505C59.0517 106.617 58.0893 105.802 57.1268 105.136C56.6826 104.84 56.1644 104.47 55.7943 104.026C55.4981 103.655 55.3501 103.137 55.276 102.693C54.6838 100.472 54.0915 98.3251 53.4993 96.1042C53.3512 95.5119 53.2031 94.9196 53.2031 94.3274C53.2031 93.439 53.6473 92.5506 54.0175 91.7363C54.7578 90.3296 55.4982 88.923 55.8683 87.3683C56.2385 85.9617 56.3865 84.407 55.9423 83.0745C55.9423 83.0745 55.9423 83.1485 56.0163 83.1485C57.1268 84.8512 58.3854 86.4799 59.4959 88.1827C60.2362 89.3672 60.9025 90.6258 61.2727 91.9584C61.4207 92.5506 61.5688 93.2169 61.5688 93.8092C61.5688 94.0313 61.5688 94.3274 61.7168 94.4754C61.8649 94.6235 62.013 94.6975 62.1611 94.6975C63.4196 95.0677 64.7522 95.3638 66.0107 95.5119C66.3068 95.808 66.529 96.1042 66.8251 96.4003C66.9732 98.8434 66.9731 101.286 66.8991 103.655C68.3057 103.655 69.7124 103.804 71.119 104.174C71.5632 104.322 72.0814 104.47 72.5996 104.47C73.0438 104.47 73.488 104.396 73.8582 104.248C75.3388 103.878 76.7454 103.581 78.2261 103.211L78.3001 103.137C79.1145 103.581 80.0028 104.1 80.8172 104.544C84.2227 102.249 87.7022 99.8798 91.7 98.7693C93.8469 98.1771 96.216 97.8069 97.6966 96.1042C97.9927 95.734 98.2889 95.2898 98.659 94.9937C99.3994 93.8832 100.658 93.6611 101.62 93.0688Z" fill="#E96D5A"/>
<path d="M88.068 90.4037C88.068 90.4037 87.9939 90.4037 87.9939 90.4777C89.4746 88.849 90.437 86.7021 90.6591 84.4811C90.7331 83.5187 90.7331 82.4822 91.1033 81.5198C91.3994 80.7795 91.9177 80.1872 92.3618 79.5209C92.732 79.1508 93.0281 78.7066 92.9541 78.1883C92.9541 77.2259 91.7696 76.5596 91.4734 75.6712C91.3254 75.3011 91.3254 74.8569 91.3254 74.4127C91.3254 73.4503 91.3994 72.4878 91.3994 71.4514C91.3994 71.2293 91.3994 71.0072 91.2514 70.7851C91.1773 70.637 90.9552 70.563 90.8071 70.4149C89.4746 69.8227 88.0679 69.1564 86.7354 68.4901C86.2912 68.268 85.7729 68.0459 85.2547 67.9719C84.8105 67.8978 84.2923 67.8978 83.7741 67.9719C83.0337 68.0459 82.2194 68.0459 81.4791 68.194C79.7763 68.4901 78.1476 69.3045 76.815 70.4149C75.1123 70.1928 73.4096 70.0448 71.7809 69.8227C71.4107 69.7486 70.9665 69.7486 70.5963 69.8227C69.93 69.9707 69.4118 70.4149 68.8936 70.9332C67.1168 72.6359 65.4881 74.3386 63.8594 76.1895C64.9699 74.6348 65.34 72.6359 65.8583 70.7851C66.2284 69.3045 66.8206 67.7498 67.8571 66.6393C68.1532 66.3432 68.4494 66.047 68.8196 65.8249C69.4858 65.3807 70.2262 65.1586 70.8925 64.7885C72.3731 64.0482 73.7057 63.0117 75.1123 62.1973C75.5565 61.9012 76.0747 61.6791 76.593 61.383C77.4073 61.0128 78.1476 60.6427 78.962 60.3465C79.2581 60.1985 79.6283 60.0504 79.9244 59.9764C80.2205 59.8283 80.5167 59.7543 80.8868 59.7543C81.183 59.7543 81.405 59.9023 81.7012 59.9764C81.9233 60.0504 82.0713 60.1244 82.2934 60.1985C83.626 60.7167 85.0326 61.1609 86.4393 61.383C88.068 61.6791 89.6967 61.7531 91.1033 62.4935C92.658 63.3078 93.6944 64.8625 95.027 65.8249C96.5817 66.9354 98.5806 67.5277 99.4689 69.2304C99.9131 70.0448 99.9872 71.0072 100.357 71.8956C100.876 73.3022 101.912 74.5608 103.245 75.227C101.098 77.2999 100.061 80.4833 100.653 83.4446C96.5817 86.0358 92.3619 88.3308 88.068 90.4037Z" fill="#E96D5A"/>
<path d="M77.7083 89.2191C78.3006 88.1827 79.1149 87.2202 80.0033 86.4059C81.2619 85.3694 82.7425 84.5551 84.1491 83.8147C85.5557 83.0744 86.8883 82.2601 87.9988 81.1496L87.9248 81.0756C87.4066 80.2612 86.8883 79.2988 87.0364 78.3364C87.1104 78.0402 87.1845 77.7441 87.3326 77.448C87.4806 77.2999 87.5546 77.0778 87.6287 76.8557C87.7767 76.4855 87.8508 76.0413 87.9248 75.5972C87.9248 75.4491 87.9988 75.301 87.9248 75.153C87.8508 74.9309 87.7767 74.7828 87.6287 74.6347C87.4066 74.2646 87.2585 73.8944 87.1845 73.4502C87.1845 73.3762 87.1845 73.2281 87.1104 73.1541C87.0364 73.08 86.9624 73.006 86.8883 73.006C85.9259 72.6359 84.7414 72.5618 84.0011 71.8215L83.853 71.8955C83.779 71.7475 83.779 71.5994 83.779 71.3773C83.779 71.3033 83.779 71.2292 83.779 71.2292C83.779 71.1552 83.779 71.0812 83.779 71.0071C83.7049 70.9331 83.6309 70.785 83.5569 70.711C82.8906 70.1188 81.9282 69.7486 81.0398 69.8226V69.8967C80.9658 69.8967 80.9658 69.8967 80.8917 69.8967C80.1514 69.7486 79.337 69.6005 78.5967 69.8967C78.0785 70.0447 77.7083 70.4149 77.1901 70.637C77.1161 70.637 77.0421 70.637 76.968 70.637C78.3006 69.5265 79.9293 68.7121 81.6321 68.416C82.3724 68.2679 83.1867 68.1939 83.927 68.1939C84.4453 68.1939 84.8895 68.1199 85.4077 68.1939C85.9259 68.2679 86.3701 68.49 86.8883 68.7121C88.2209 69.3044 89.6275 69.9707 90.9601 70.637C91.1082 70.711 91.3303 70.785 91.4043 71.0071C91.5524 71.1552 91.5524 71.4513 91.5524 71.6734C91.5524 72.6359 91.4784 73.5983 91.4784 74.6347C91.4784 75.0789 91.4784 75.4491 91.6264 75.8933C91.9966 76.8557 93.1071 77.448 93.1071 78.4104C93.1071 78.9286 92.811 79.3728 92.5148 79.743C92.3668 79.891 92.2927 79.9651 92.1447 80.1131C91.5524 80.7054 90.8861 81.3717 90.3679 82.112C90.2198 82.2601 90.0717 82.4822 89.9977 82.7043C88.5171 84.7031 86.2961 86.1098 83.853 86.4799V86.5539C82.2243 86.628 80.7437 87.4423 79.5592 88.4788C78.4487 89.5152 77.5603 90.8478 76.6719 92.1064C76.8199 90.8478 77.1901 89.9594 77.7083 89.2191Z" fill="#E96D5A"/>
<path d="M92.3664 79.4469C91.9222 80.1132 91.404 80.7054 91.1078 81.4458C90.7377 82.4082 90.7377 83.3706 90.6637 84.4071C90.4416 86.628 89.4791 88.775 87.9985 90.4037C87.7764 90.5517 87.4802 90.6258 87.2581 90.7738C86.1476 90.5517 84.9631 90.4037 83.7786 90.4777C82.372 90.6258 81.0394 91.218 79.7068 91.5142C78.6704 91.8103 77.6339 91.9584 76.5234 92.0324V91.9584C76.5234 91.8843 76.5235 91.8103 76.5975 91.7363C77.4859 90.4777 78.3742 89.1451 79.4847 88.1087C80.6693 86.9982 82.1499 86.2579 83.7786 86.1838H83.8527C85.4814 86.1838 87.036 86.9242 88.5167 87.6645C88.6648 85.9617 88.9609 84.185 89.7753 82.6303C89.8493 82.5563 89.8493 82.4082 89.9233 82.3342C90.0714 82.1861 90.2195 81.964 90.2935 81.7419C90.8117 81.0016 91.478 80.4093 92.0702 79.743C92.1443 79.743 92.2924 79.595 92.3664 79.4469Z" fill="#E96D5A"/>
<path d="M89.9221 82.3341C89.848 82.4081 89.774 82.4822 89.774 82.6302C88.9596 84.1109 88.7375 85.8877 88.5154 87.6644C87.0348 86.9241 85.4801 86.1838 83.8514 86.1838H83.7773V86.1098C86.2204 85.7396 88.4414 84.333 89.9221 82.3341Z" fill="#E96D5A"/>
<path d="M77.7803 87.4424C77.7062 87.0722 77.6322 86.702 77.6322 86.3319C77.6322 86.1838 77.6322 86.1098 77.5582 86.0358C77.4842 85.8877 77.3361 85.8137 77.188 85.8137C76.8179 85.6656 76.4477 85.4435 76.0775 85.2954V85.2214C76.0035 84.7032 76.0775 84.7032 76.1516 84.1849C76.2256 83.5927 76.4477 83.0004 76.8179 82.4822C77.4101 81.6678 78.2985 81.2977 79.2609 81.0756C79.409 81.0756 79.483 81.0015 79.6311 81.0015C80.4454 80.8535 81.3339 80.8535 82.1482 80.7794C82.8885 80.7054 83.7769 80.4093 84.147 79.743C84.2211 79.5949 84.2951 79.4469 84.3692 79.2988C84.4432 79.1507 84.5913 79.0767 84.7393 79.0027C85.1835 78.7806 85.6277 78.5585 86.0719 78.3364C86.4421 78.1143 86.8122 77.9662 87.1083 77.6701C87.1824 77.5961 87.2564 77.522 87.2564 77.448C87.1084 77.7441 87.0343 78.0403 86.9603 78.3364C86.8123 79.2988 87.3304 80.2612 87.8487 81.0756L87.9227 81.1496C86.8122 82.2601 85.4056 83.0745 84.073 83.8148C82.6664 84.6291 81.1858 85.3695 79.9272 86.4059C78.9648 87.2203 78.2245 88.1087 77.6322 89.2191C77.7062 88.849 77.7063 88.4048 77.7063 87.9606H77.7803C77.8543 87.7385 77.7803 87.5904 77.7803 87.4424Z" fill="#E96D5A"/>
<path d="M79.6328 80.7054C80.5952 79.965 81.9278 79.965 82.8162 79.1507C83.1864 78.8545 83.4085 78.4104 83.6306 78.0402C84.0007 77.3739 84.2969 76.7076 84.593 76.0413C84.7411 75.6712 84.8891 75.227 84.8151 74.8568C84.3709 73.8944 84.0007 72.8579 83.7786 71.8215L83.9267 71.7474C84.667 72.4878 85.8515 72.5618 86.814 72.932C86.888 72.932 87.0361 73.006 87.0361 73.08C87.1101 73.1541 87.1101 73.2281 87.1101 73.3762C87.1841 73.8203 87.3322 74.1905 87.5543 74.5607C87.6283 74.7087 87.7764 74.8568 87.8504 75.0789C87.8504 75.227 87.8504 75.375 87.8504 75.5231C87.7764 75.9673 87.7024 76.3374 87.5543 76.7816C87.4062 77.0037 87.3322 77.1518 87.2581 77.3739C87.1841 77.4479 87.1841 77.522 87.1101 77.596C86.8139 77.8921 86.4438 78.1142 86.0736 78.2623C85.6294 78.4844 85.1853 78.7065 84.7411 78.9286C84.593 79.0026 84.4449 79.0766 84.3709 79.2247C84.2228 79.3728 84.2228 79.5208 84.1488 79.6689C83.7786 80.3352 82.9643 80.6313 82.1499 80.7054C81.3356 80.7794 80.4472 80.7794 79.6328 80.9275V80.7794C79.6328 80.7794 79.6328 80.7794 79.6328 80.7054Z" fill="#E96D5A"/>
<path d="M64.6779 93.8091C63.6415 93.5129 62.679 93.2168 61.6426 92.9207C61.4945 92.5505 61.3464 92.1804 61.1984 91.7362C60.6801 89.9594 60.5321 88.0345 60.9023 86.2578C61.0503 85.6655 61.1984 85.0733 61.1984 84.407C61.1984 83.4445 60.8282 82.4821 60.6061 81.5197C60.5321 81.1495 60.384 80.8534 60.5321 80.4832C60.6061 80.1871 60.8282 79.891 61.1244 79.6689L61.1984 79.5949C62.2348 78.6324 63.3453 77.744 64.4558 76.9297C64.974 77.2998 65.4183 77.8181 65.4923 78.4103C65.5663 78.7065 65.4923 78.9286 65.4923 79.2247C65.4183 80.0391 65.1961 80.8534 64.9741 81.5937C65.4923 82.112 66.1586 82.4081 66.8249 82.7783C67.2691 84.481 67.4911 86.2578 67.4171 88.0345C67.4171 88.3307 67.4171 88.6268 67.5652 88.8489C67.6392 88.997 67.8613 89.145 68.0094 89.2191C69.3419 90.0334 70.6005 90.8478 71.9331 91.6621C72.0811 91.7362 72.2292 91.8842 72.4513 91.9583C72.6734 92.0323 72.9696 92.0323 73.2657 92.0323C74.3762 92.0323 75.5607 92.0323 76.6712 91.8842C77.7076 91.8102 78.8181 91.6621 79.8545 91.366C81.1871 90.9958 82.5197 90.4776 83.9263 90.3296C85.1108 90.1815 86.2213 90.4036 87.4059 90.6257C87.2578 90.6997 87.1097 90.7737 86.9617 90.8478H86.7396C84.2224 91.5141 82.2976 93.5129 80.0026 94.6975C79.4844 94.9936 78.9662 95.2157 78.3739 95.4378C77.6336 95.7339 76.9673 95.956 76.227 96.1781C75.1165 96.5483 74.006 96.9184 72.8215 96.6963C72.2292 96.5483 71.637 96.2521 71.0447 96.03C68.8978 95.2157 66.8248 94.4013 64.6779 93.8091Z" fill="#E96D5A"/>
<path d="M82.67 75.227C82.744 73.8944 83.6324 72.7099 83.7064 71.3033C83.7064 71.4513 83.7804 71.5994 83.7804 71.8215C84.0025 72.8579 84.3727 73.8204 84.8169 74.8568C84.891 75.227 84.7429 75.6712 84.5948 76.0413C84.2987 76.7076 84.0026 77.3739 83.6324 78.0402C83.4103 78.4104 83.1882 78.8546 82.818 79.1507C81.9296 79.965 80.5971 79.965 79.6347 80.7054C79.4126 80.0391 79.3385 79.2988 79.4866 78.6325C79.5606 78.4844 79.7087 78.3363 79.8567 78.1883C80.6711 77.3739 81.4114 76.4115 81.8556 75.375C81.8556 75.301 81.7816 75.227 81.7816 75.0789C81.5595 74.4866 81.1893 73.8944 80.5971 73.5242C80.2269 73.3021 79.7827 73.1541 79.4126 72.932C79.2645 72.8579 79.1905 72.7839 79.0424 72.7099C78.8943 72.6358 78.8203 72.4878 78.8203 72.3397V72.2657C78.8203 72.1916 78.8943 72.0436 78.8943 71.9695C79.0424 71.6734 79.1164 71.3773 79.3385 71.1552C79.5606 70.9331 79.8568 70.711 80.1529 70.785C80.1529 71.0071 80.2269 71.1552 80.2269 71.3773C80.449 72.1916 80.8932 72.932 81.5595 73.4502C81.7075 73.5983 81.9297 73.7463 82.1518 73.8944C82.2998 74.4126 82.5219 74.7828 82.67 75.227Z" fill="#E96D5A"/>
<path d="M83.7037 71.3033C83.6297 72.6359 82.7412 73.8204 82.6672 75.227C82.4451 74.7828 82.2971 74.4126 82.223 73.9684C82.149 73.5983 82.223 73.1541 82.223 72.7839H82.2971C82.2971 72.4878 82.2971 72.1176 82.2971 71.8215C82.2971 71.5254 82.2971 71.1552 82.149 70.8591C82.001 70.4889 81.7048 70.1928 81.4087 70.0447C81.2606 69.9707 81.0385 69.8967 80.8164 69.8967C80.8904 69.8967 80.8904 69.8967 80.9645 69.8967V69.8226C81.8529 69.7486 82.8153 70.0447 83.4816 70.711C83.5556 70.7851 83.6297 70.8591 83.7037 71.0071C83.7037 71.0812 83.7037 71.1552 83.7037 71.2292C83.7037 71.2292 83.7037 71.3033 83.7037 71.3033Z" fill="#E96D5A"/>
<path d="M80.4449 70.1929C80.5189 70.0448 80.667 69.9708 80.815 69.8967C80.815 69.8967 80.815 69.8967 80.8891 69.8967C81.1112 69.8967 81.2592 69.8967 81.4813 70.0448C81.8515 70.1929 82.0736 70.489 82.2217 70.8592C82.2957 71.1553 82.3697 71.4514 82.3697 71.8216C82.3697 72.1177 82.3697 72.4879 82.3697 72.784H82.2957C82.2957 72.4138 82.2217 71.9696 81.9996 71.6735C81.7775 71.3774 81.4073 71.2293 81.1112 71.0813C80.815 71.0072 80.5929 70.8592 80.3708 70.7111C80.3708 70.6371 80.3708 70.563 80.4449 70.489C80.2968 70.3409 80.3708 70.2669 80.4449 70.1929Z" fill="#E96D5A"/>
<path d="M80.2266 70.7851V70.7111C80.4487 70.7851 80.7448 70.9332 80.9669 71.0812C81.263 71.2293 81.6332 71.3773 81.8553 71.6735C82.0774 71.9696 82.1514 72.4138 82.1514 72.784C82.1514 73.1541 82.0774 73.5983 82.1514 73.9685C82.0034 73.8204 81.7812 73.6724 81.5591 73.5243C80.8928 73.0061 80.4487 72.2657 80.2266 71.4514C80.3006 71.1553 80.2266 71.0072 80.2266 70.7851Z" fill="#E96D5A"/>
<path d="M81.8573 75.0789C81.8573 75.1529 81.9313 75.227 81.9313 75.375C81.4131 76.4115 80.7469 77.3739 79.9325 78.1882C79.7844 78.3363 79.6364 78.4844 79.5623 78.6324C79.5623 78.4103 79.6363 78.2623 79.7104 78.0402C80.0065 77.0778 80.7468 76.2634 80.7468 75.301C80.8209 74.4126 80.3026 73.5242 79.4883 73.08L79.5623 73.006C79.9325 73.2281 80.3767 73.3021 80.7468 73.5982C81.191 73.8944 81.6352 74.4866 81.8573 75.0789Z" fill="#E96D5A"/>
<path d="M76.0068 78.0402C76.1549 78.1142 76.2289 78.2623 76.377 78.3363C76.6731 78.4844 76.9693 78.6325 77.2654 78.8546C77.7836 79.1507 78.3019 79.5209 78.7461 79.891C76.8952 79.5949 74.9704 80.1871 73.1936 79.743C73.1196 79.743 73.0456 79.7429 72.9715 79.6689C72.8975 79.5949 72.8975 79.5209 72.8975 79.4468C72.8235 78.4844 72.7494 77.522 72.3052 76.7076C72.0091 76.1894 71.4909 75.7452 71.1207 75.227C71.0467 75.0789 71.0467 74.8568 70.9727 74.7087C70.9727 74.6347 71.0467 74.6347 71.0467 74.5607C71.4909 73.8944 72.1572 73.3021 72.3793 72.4878C72.4533 72.1916 72.5274 71.8215 72.7495 71.5994C72.8235 71.5254 72.9715 71.4513 73.1196 71.4513C73.8599 71.2292 74.6002 71.0812 75.4146 71.0071C75.8588 70.9331 76.377 70.9331 76.8212 70.785C76.9693 70.711 77.0433 70.711 77.1914 70.637C77.6356 70.4149 78.0798 70.0447 78.598 69.8966C79.3383 69.6745 80.1527 69.7486 80.893 69.8966C80.7449 69.9707 80.5969 70.0447 80.5229 70.1928C80.4488 70.2668 80.4488 70.3408 80.3748 70.4889C80.3748 70.5629 80.3748 70.637 80.3008 70.711V70.785C80.0046 70.785 79.7085 70.9331 79.4864 71.1552C79.2643 71.3773 79.1903 71.6734 79.0422 71.9696C79.0422 72.0436 78.9681 72.1916 78.9681 72.2657H78.8941C78.0057 73.5983 77.7096 75.301 77.0433 76.7817C76.8212 77.2999 76.5251 77.7441 76.0068 78.0402Z" fill="#E96D5A"/>
<path d="M79.4836 73.08C80.298 73.5242 80.8162 74.4126 80.7422 75.301C80.6681 76.2634 80.0018 77.0778 79.7057 78.0402C79.6317 78.2623 79.5577 78.4104 79.5577 78.6325C79.4096 79.2988 79.4836 80.0391 79.7057 80.7054H79.6317C79.4096 80.4092 79.1135 80.1131 78.8173 79.817C78.3731 79.4468 77.8549 79.0767 77.3367 78.7805C77.0406 78.6325 76.7444 78.4844 76.4483 78.2623C76.3002 78.1883 76.2262 78.1142 76.0781 77.9662L76.1521 77.8921C76.5963 77.67 76.8925 77.1518 77.1146 76.7076C77.7808 75.227 78.077 73.5242 78.9654 72.1917H79.0394V72.2657C79.0394 72.4137 79.1875 72.5618 79.2615 72.6358C79.2615 72.8579 79.4096 72.932 79.4836 73.08Z" fill="#E96D5A"/>
<path d="M79.6359 80.8535V81.0015C79.4879 81.0015 79.4138 81.0756 79.2658 81.0756C78.3033 81.2977 77.3409 81.6678 76.8227 82.4822C76.4525 83.0004 76.3045 83.5927 76.1564 84.1849C76.0824 84.7031 76.0084 84.7031 76.0824 85.2214V85.2954C75.0459 84.7772 74.0095 84.2589 72.899 83.7407C72.6029 83.5926 72.3067 83.4446 72.0106 83.2965C71.3443 82.8523 70.7521 82.3341 70.3079 81.6678C70.2338 81.5198 70.1598 81.3717 70.0117 81.2236C70.5299 80.3352 70.752 79.2988 70.9741 78.3364C71.1222 77.2999 71.2703 76.2634 71.0482 75.301C71.4184 75.8193 71.9366 76.2634 72.2327 76.7817C72.7509 77.596 72.7509 78.5584 72.8249 79.5209C72.8249 79.5949 72.825 79.6689 72.899 79.743C72.973 79.817 73.0471 79.817 73.1211 79.817C74.9719 80.2612 76.8967 79.6689 78.6735 79.9651C78.9696 80.2612 79.2658 80.5573 79.4879 80.8535C79.6359 80.7794 79.6359 80.7794 79.6359 80.8535Z" fill="#E96D5A"/>
<path d="M55.8687 82.8524C55.4985 82.2601 55.2024 81.6679 55.0543 81.0016C54.9062 80.3353 54.9803 79.669 55.0543 79.0027C55.3504 75.9674 55.2764 72.858 54.9803 69.7487C54.9063 69.2304 54.8322 68.6382 55.0543 68.12C55.2024 67.7498 55.3504 67.4537 55.5725 67.0835C56.609 65.5288 57.6454 63.9741 59.1261 62.7896C59.4962 62.4935 59.8664 62.1974 60.3106 61.9753C60.6808 61.7532 60.9769 61.6051 61.3471 61.457C63.42 60.5687 65.789 60.4206 68.084 60.4206C69.8608 60.3466 71.6376 60.3465 73.4143 60.2725C75.4132 60.1985 76.8199 60.1245 78.8187 60.3466V60.4206C78.0044 60.7167 77.19 61.0869 76.4497 61.457L76.3756 61.2349C74.4508 61.9012 72.5259 62.5675 70.6011 63.2338C69.8608 63.5299 69.0464 63.8261 68.5282 64.4183C68.158 64.9366 68.01 65.6028 67.6398 66.1951C67.5658 66.3432 67.4918 66.4912 67.4177 66.5653C67.1216 66.9354 66.8255 67.2316 66.4553 67.6017C64.8266 69.1564 63.1239 70.7111 61.4211 72.2658C61.125 72.5619 60.8289 72.784 60.6808 73.1542C60.5327 73.3763 60.5327 73.6724 60.5327 73.9685C60.3106 75.8934 60.4587 77.8182 60.9029 79.743L61.051 79.8171C60.8289 80.0392 60.6067 80.2613 60.4587 80.6314C60.3846 81.0016 60.4587 81.2977 60.5327 81.6679C60.8288 82.6303 61.199 83.5187 61.125 84.5551C61.125 85.1474 60.9769 85.8137 60.8288 86.406C60.4587 88.2568 60.6067 90.1076 61.125 91.8843H61.051C60.6808 90.5518 60.0145 89.2932 59.2742 88.1087C58.3117 86.2579 56.9792 84.6292 55.8687 82.8524Z" fill="#E96D5A"/>
<path d="M78.2289 102.841L78.1549 102.915C76.6743 103.285 75.2676 103.581 73.787 103.952C73.3428 104.026 72.8986 104.174 72.5285 104.174C72.0102 104.174 71.566 104.026 71.0478 103.878C69.6412 103.507 68.2346 103.359 66.828 103.359C66.976 100.916 66.902 98.4732 66.7539 96.1041C67.6423 97.0665 68.5307 98.103 69.4191 99.0654C70.3815 100.102 71.418 101.212 72.8246 101.286C73.4909 101.36 74.1572 101.138 74.8235 101.212C75.4897 101.286 76.156 101.583 76.7483 101.953C77.2665 102.323 77.7847 102.619 78.2289 102.841Z" fill="#E96D5A"/>
<path d="M76.6 91.7362C76.6 91.8103 76.526 91.8843 76.526 91.9583V92.0324C75.4155 92.1064 74.231 92.1064 73.1205 92.1804C72.8244 92.1804 72.6023 92.1804 72.3061 92.1064C72.1581 92.0324 71.936 91.9583 71.7879 91.8103C70.4554 90.9959 69.1968 90.1816 67.8642 89.3672C67.7161 89.2932 67.494 89.1451 67.42 88.997C67.2719 88.7749 67.2719 88.4788 67.2719 88.1827C67.346 86.4059 67.1239 84.6291 66.6797 82.9264C67.1239 83.1485 67.5681 83.3706 67.9382 83.6667C68.9747 84.407 69.715 85.4435 70.0852 86.628C70.1592 86.7761 70.1592 86.9241 70.3073 87.0722C70.3813 87.1462 70.5294 87.1462 70.6034 87.1462C71.8619 87.2203 73.1205 86.9241 74.305 86.8501C75.4895 86.7761 76.7481 86.8501 77.6365 87.5164C77.6365 87.6645 77.7105 87.8866 77.7105 88.0346H77.6365C77.6365 88.4788 77.6365 88.849 77.5625 89.2932C77.1923 89.9595 76.8221 90.8479 76.6 91.7362Z" fill="#E96D5A"/>
<path d="M70.896 74.6347C70.896 74.7088 70.896 74.7088 70.896 74.7828C70.896 74.8568 70.97 74.9308 70.97 75.0049C70.97 75.0789 71.0441 75.0789 71.0441 75.1529C71.2662 76.1154 71.1181 77.2258 70.97 78.1883C70.8219 79.2247 70.5258 80.1872 70.0076 81.0755C70.0816 81.2236 70.1557 81.3717 70.3037 81.5197C70.7479 82.186 71.3402 82.7783 72.0065 83.1485C72.3026 83.2965 72.5987 83.4446 72.8949 83.5926C73.9313 84.1109 74.9678 84.6291 76.0783 85.1473C76.4484 85.2954 76.8186 85.5175 77.1887 85.6655C77.3368 85.7396 77.4849 85.8136 77.5589 85.8876C77.6329 85.9617 77.6329 86.1097 77.6329 86.1838C77.707 86.5539 77.781 86.9241 77.781 87.2943C76.8186 86.628 75.56 86.4799 74.4495 86.628C73.191 86.702 71.9324 87.0722 70.7479 86.9241C70.6739 86.9241 70.5258 86.9241 70.4518 86.8501C70.3037 86.776 70.2297 86.628 70.2297 86.4059C69.8595 85.2214 69.1192 84.1849 68.0828 83.4446C67.7126 83.1484 67.2684 82.9263 66.8242 82.7043C66.1579 82.3341 65.4916 82.038 64.9734 81.5197C65.1955 80.7794 65.4176 79.9651 65.4916 79.1507C65.4916 78.8546 65.5657 78.6325 65.4916 78.3363C65.4176 77.6701 64.9734 77.2259 64.4552 76.8557C64.2331 76.7076 63.9369 76.4855 63.7148 76.4115C63.7889 76.3375 63.8629 76.2634 63.9369 76.1894C65.5656 74.4126 67.1943 72.6358 68.9711 70.9331C69.4894 70.4889 70.0076 69.9707 70.6739 69.8226C71.0441 69.7486 71.4882 69.7486 71.8584 69.8226C73.5612 70.0447 75.2639 70.1928 76.8926 70.4149C76.9666 70.4149 77.0407 70.4149 77.1147 70.4149C76.9666 70.4889 76.8926 70.5629 76.7445 70.5629C76.3003 70.711 75.8562 70.785 75.3379 70.785C74.5976 70.8591 73.7832 71.0071 73.0429 71.2292C72.8948 71.2292 72.7468 71.3033 72.6727 71.3773C72.3766 71.5994 72.3766 71.9696 72.3026 72.2657C72.0805 73.08 71.4142 73.6723 70.97 74.3386C70.97 74.5607 70.896 74.6347 70.896 74.6347Z" fill="#E96D5A"/>
<path d="M76.4499 61.2349L76.5239 61.457C76.0057 61.6791 75.5615 61.9752 75.0433 62.2713C73.6367 63.0857 72.3041 64.1962 70.8234 64.8625C70.1571 65.1586 69.4168 65.4547 68.7505 65.8989C68.3804 66.121 68.0843 66.4171 67.7881 66.7133L67.418 66.5652C67.492 66.4171 67.566 66.3431 67.6401 66.195C67.9362 65.6028 68.0843 64.9365 68.5285 64.4183C69.0467 63.752 69.861 63.4558 70.6014 63.2337C72.6002 62.5674 74.5251 61.9012 76.4499 61.2349Z" fill="#E96D5A"/>
<path d="M67.419 66.5652L67.7892 66.7133C66.7527 67.8237 66.2345 69.3784 65.7903 70.8591C65.272 72.7099 64.9019 74.6347 63.7914 76.2634C63.7174 76.3375 63.6433 76.4115 63.5693 76.4855C63.7914 76.6336 64.0875 76.7817 64.3096 76.9297C63.1991 77.7441 62.0887 78.6325 61.0522 79.5949L60.9782 79.6689L60.8301 79.5949C60.3859 77.7441 60.3119 75.7452 60.4599 73.8204C60.4599 73.5242 60.534 73.3021 60.608 73.006C60.7561 72.6358 61.0522 72.4137 61.3483 72.1176C62.977 70.5629 64.6798 69.0083 66.3825 67.4536C66.8267 67.3055 67.1969 66.9353 67.419 66.5652Z" fill="#E96D5A"/>
<path d="M64.675 93.8092C65.1192 94.3274 65.5634 94.8456 66.0076 95.3639C64.675 95.2158 63.4165 94.9937 62.1579 94.5495C62.0099 94.4755 61.7877 94.4014 61.7137 94.3274C61.5656 94.1793 61.5656 93.8832 61.5656 93.6611C61.5656 92.9948 61.4176 92.4026 61.2695 91.8103H61.3435C61.4916 92.1805 61.6397 92.6247 61.7878 92.9948C62.6762 93.1429 63.7126 93.439 64.675 93.8092Z" fill="#E96D5A"/>
<path d="M80.5925 69.8226C80.5925 69.8226 82.0731 69.8226 82.2212 70.7851C82.3692 71.7475 82.2952 73.8944 82.2952 73.8944L81.6289 73.3762L81.0367 72.6359L80.5925 71.8215L80.0742 71.0071V70.4149L80.5925 69.8226Z" fill="#B13A34"/>
<path d="M118.722 78.0403L115.465 74.7089L116.205 81.6679L116.797 81.1497L118.722 78.0403Z" fill="#B13A34"/>
<path d="M73.8594 110.392L77.4869 111.947C77.4869 111.947 79.93 110.466 81.3366 110.392C82.7432 110.318 85.5565 110.985 85.5565 110.985C85.5565 110.985 86.9631 109.948 87.4813 109.134C87.9995 108.32 92.1454 105.95 92.1454 105.95C92.1454 105.95 95.2547 103.655 95.6249 101.657L93.3299 103.655L88.0736 106.617L85.1863 109.134L80.3002 109.282L73.8594 110.392Z" fill="#B13A34"/>
<path d="M99.9162 93.8833C99.9162 93.8833 98.8798 96.4744 96.4367 97.881C93.9936 99.2877 87.2567 101.731 86.5163 102.249C85.776 102.767 81.9263 106.173 81.9263 106.173L77.4844 102.841L80.6678 104.248L81.7042 103.656L85.9241 100.99L89.3296 99.0656L92.513 98.1772L96.0665 97.2148L97.0289 96.3264L99.9162 93.8833Z" fill="#B13A34"/>
<path d="M65.4883 94.0313C65.4883 94.0313 69.3379 96.8445 70.5965 97.2147C71.855 97.5848 73.8539 98.1031 73.8539 98.1031L75.8528 97.881C75.8528 97.881 77.9257 97.6589 77.9997 97.6589C78.0738 97.6589 79.2583 97.1406 79.2583 97.1406L80.8129 96.9185L83.0339 96.1782L86.2174 94.9197L88.5123 94.5495L93.6206 93.5871C93.6206 93.5871 99.7653 92.2545 104.059 87.4424L98.5807 90.7738L96.878 91.7363L95.2493 92.4766L91.9919 92.4026L88.7344 92.1805C88.7344 92.1805 83.7743 93.2169 79.8505 94.9197C75.9268 96.6224 75.4086 96.6224 75.4086 96.6224L73.4838 96.9185L70.3004 96.1782L65.4883 94.0313Z" fill="#B13A34"/>
<path d="M66.0061 95.2898C66.0061 95.2898 60.4537 96.4743 59.4913 95.2898C58.5288 94.1053 59.1211 90.7739 58.7509 89.9595C58.4548 89.1451 56.0117 83.6667 56.0117 83.6667L59.3432 87.6645L60.4537 90.5518L61.4161 92.6247L61.5641 93.439L61.7122 94.2534L62.5266 94.6976C62.5266 94.6976 63.489 94.8456 63.7111 94.9197C64.0813 94.9937 66.0061 95.2898 66.0061 95.2898Z" fill="#B13A34"/>
<path d="M114.794 92.2545L111.611 96.9186C111.611 96.9186 107.983 99.3616 107.835 99.3616C107.761 99.3616 105.614 101.953 101.32 100.99L104.208 100.546L105.022 100.25L105.688 99.8799L106.058 99.1395L106.429 98.1031L107.169 97.2887L108.946 96.8445L109.76 96.1042L111.093 95.3639L114.794 92.2545Z" fill="#B13A34"/>
<path d="M66.8945 96.4744C66.8945 96.4744 67.5608 98.6213 67.8569 99.3616C68.1531 100.102 70.4481 103.063 70.6702 102.989C70.9663 102.989 78.1475 102.915 78.1475 102.915L76.7408 101.953L75.3342 101.36L73.7795 101.212L72.7431 101.36C72.7431 101.36 72.0028 101.212 71.8547 101.138C71.7066 101.064 70.6702 100.62 70.6702 100.62L68.8194 98.2511L66.8945 96.4744Z" fill="#B13A34"/>
<path d="M88.293 67.6758L91.3283 70.7851L91.4023 73.5984L92.0686 76.4116L92.7349 77.3L93.031 78.7066L91.8465 80.1873L91.2543 81.1497L90.8841 82.2602L90.3659 85.9618L88.293 90.2557L89.9217 89.1452L92.2167 86.9242L92.883 86.1099L94.2156 84.259L94.3636 82.9265L95.4741 80.4094L97.621 77.0039L98.4354 75.7453L96.5846 72.2658L95.104 70.7111L89.4775 68.268L88.293 67.6758Z" fill="#B13A34"/>
<path d="M70.5225 72.1177L70.8927 74.7828L71.1148 75.6712L70.9667 78.2624L70.2264 80.7795L69.7081 79.9651L69.0419 78.9287L68.5977 77.7441V77.0038V76.2635L69.0419 75.0049L70.5225 72.1177Z" fill="#B13A34"/>
<path d="M76.519 70.7111C76.519 70.7111 72.4472 70.9332 70.5223 72.1917L70.0781 73.3762V74.4127L70.5964 75.4491L70.6704 76.0414L70.8925 77.0778V74.8569L71.4107 74.1165L71.9289 73.3022L72.5212 71.8956L72.9654 71.5254L76.519 70.7111Z" fill="#B13A34"/>
<path d="M90.8844 68.8603L87.9231 67.4537C87.9231 67.4537 83.7773 66.8614 80.668 68.12L84.8138 67.9719L86.4425 68.4161L88.6635 69.2305L90.8104 70.1188L94.8081 72.784L90.8844 68.8603Z" fill="#B13A34"/>
<path d="M63.6425 76.8558C63.6425 76.8558 64.827 78.4105 64.1607 79.521C63.4944 80.6315 62.8281 82.5563 62.8281 82.5563C62.8281 82.5563 65.7894 82.9265 66.1596 83.9629C66.5297 84.9994 67.3441 88.8491 67.3441 88.8491V88.0347L67.1961 85.4436L66.7518 82.9265L66.1596 82.6304L65.0491 82.0381L64.901 81.5939L65.2712 80.3354C65.2712 80.2613 66.2336 77.152 63.6425 76.8558Z" fill="#B13A34"/>
<path d="M88.4389 87.8126C88.4389 87.8126 85.4776 86.8501 83.997 87.4424C82.5163 88.1087 77.6302 90.7739 77.0379 91.7363H76.5938L76.8158 91.4402C76.8158 91.4402 80.2213 86.3319 82.8865 86.4059C85.5517 86.48 86.292 86.7021 86.292 86.7021L88.4389 87.8126Z" fill="#B13A34"/>
<path d="M90.0705 76.6337C90.0705 76.6337 87.7014 74.5608 87.4793 73.9685L87.8495 76.0414L87.7755 76.2635L87.6274 76.8558L87.4793 77.6701L87.0352 78.2624C87.0352 78.2624 87.7015 81.0016 87.9236 81.0016C88.1457 81.0016 89.4042 79.2248 89.4042 79.2248C89.4042 79.2248 90.2185 77.5961 90.0705 76.6337Z" fill="#B13A34"/>
<path d="M78.0026 79.8171C78.0026 79.8171 74.8932 81.4458 74.375 84.111L75.8556 85.1475L76.1518 84.4812C76.1518 84.4812 76.596 81.2978 79.6313 81.0017L78.891 80.3354L78.0026 79.8171Z" fill="#B13A34"/>
<path d="M70.4477 80.4093C70.4477 80.4093 74.5935 83.7408 75.2598 83.8888C75.8521 84.0369 76.1482 84.8512 76.1482 84.8512L75.63 84.9253L74.2234 84.407L72.2985 83.4446L71.2621 82.8524C71.2621 82.8524 70.8919 82.5562 70.8179 82.3341C70.7438 82.1861 69.8555 81.0756 69.8555 81.0756L70.4477 80.2612V80.4093Z" fill="#B13A34"/>
<path d="M108.947 73.5984C108.947 73.5984 110.058 83.7408 109.91 84.2591C109.762 84.8513 106.356 88.9971 106.356 88.9971C106.356 88.9971 103.469 92.4026 103.173 93.291C102.877 94.1794 97.3984 98.1031 97.3984 98.1031L100.138 94.1794L101.248 93.291L102.433 92.4026L103.247 90.1817L104.95 86.332L105.986 85.8137L106.727 85.1474L107.097 84.037L108.059 78.7807L108.947 73.5984Z" fill="#B13A34"/>
<path d="M99.9183 59.5322C99.9183 59.5322 103.176 62.3455 103.694 63.7521C104.212 65.1587 105.323 65.9731 105.175 66.1952C104.953 66.4913 107.025 71.8216 107.025 71.8216L105.101 69.9708L103.694 67.0835L101.695 62.7156L98.4377 59.5322L96.957 58.5698L99.9183 59.5322Z" fill="#B13A34"/>
<path d="M77.4844 61.0128L75.8557 61.1609L72.9684 61.2349L70.5994 61.7531H68.6005C68.6005 61.7531 66.3795 63.0117 66.0094 63.9741C65.6392 64.9365 65.4912 66.1951 63.8624 67.3056C62.2337 68.4901 59.2724 70.7111 59.2724 70.7111C59.2724 70.7111 58.8282 77.2999 60.9752 79.595L60.7531 77.5961L60.605 73.9685L60.8271 73.0801L62.0116 71.5254L66.5276 67.3796L67.8602 66.4912L68.4525 64.5664L69.4149 63.9001L74.9673 61.6791L77.4844 61.0128Z" fill="#B13A34"/>
<path d="M86.5168 90.996C86.5168 90.996 82.8152 91.4402 81.4826 92.2546C80.15 93.0689 74.3015 93.7352 73.8573 93.5131C73.4131 93.291 71.9325 93.9573 69.9336 90.7739C69.9336 90.7739 72.7468 92.2546 73.6352 92.3286C74.5236 92.3286 75.9302 92.1805 75.9302 92.1805C75.9302 92.1805 77.0407 92.1805 77.1147 92.1805C77.1887 92.1805 79.4097 91.9584 79.4097 91.9584L82.9633 90.6999L85.4804 90.4778L87.7014 90.8479L86.5168 90.996Z" fill="#B13A34"/>
<path d="M78.6665 71.0813L79.777 70.9332C79.777 70.9332 78.8886 72.1918 78.6665 72.71C78.3704 73.2282 77.9262 74.3387 77.9262 74.3387L77.1858 76.4116L76.0013 78.0403C76.0013 78.0403 74.3726 77.226 74.2986 76.8558C74.2245 76.5597 73.4102 75.5973 73.4102 75.5973C73.4102 75.5973 73.6323 75.2271 73.7803 74.8569C73.9284 74.4868 74.8168 73.5984 74.8168 73.5984L78.6665 71.0813Z" fill="#B13A34"/>
<path d="M80.4472 73.4503L81.6317 74.6348C81.6317 74.6348 81.7798 75.3011 81.8538 75.4492C81.9278 75.5232 81.1875 76.7077 81.1875 76.7077L80.2991 77.8922L79.7068 78.3364L80.2991 76.8558L80.5212 76.2635C80.5212 76.2635 80.5952 75.7453 80.5952 75.5972C80.5952 75.4492 80.3731 73.8205 80.3731 73.8205L79.6328 73.1542L80.4472 73.4503Z" fill="#B13A34"/>
<path d="M82.6644 75.301C82.6644 75.301 82.7385 78.9286 81.2578 79.743H81.9981C81.9981 79.743 83.7009 78.3364 83.7749 78.0402C83.8489 77.6701 84.7373 75.8933 84.7373 75.8933L84.8854 74.8568L83.923 72.3397L83.7009 71.2292L83.3307 72.7839L82.6644 75.301Z" fill="#B13A34"/>
<path d="M94.0703 114.02L95.2548 113.502L96.8095 113.206L99.4007 111.725L100.363 110.763V110.392L99.2526 110.466L97.92 110.985L96.7355 111.133L96.1432 111.429L95.4769 111.947L94.7366 113.206L94.0703 114.02Z" fill="#5C823A"/>
<path d="M55.4241 92.7728C55.4241 92.7728 54.2396 96.1042 55.7943 98.1771C57.3489 100.25 59.9401 102.915 60.5323 103.137C61.1246 103.359 63.6417 107.209 67.5654 107.505C67.9356 107.505 73.414 107.209 74.3764 106.839C75.3388 106.469 78.7443 106.543 79.2625 106.765C79.8548 106.987 81.7797 107.579 81.7797 107.579C81.7797 107.579 71.4891 110.541 69.8604 111.133C68.2317 111.725 64.6782 112.317 64.382 112.539C64.0859 112.762 62.6793 113.428 62.1611 111.725C61.7169 110.096 59.644 106.765 59.644 106.765C59.644 106.765 57.349 105.21 56.9788 104.988C56.6086 104.766 54.0175 101.509 54.0915 100.25C54.1656 98.9174 53.2031 95.3639 53.2031 95.3639L53.3512 92.7728L54.4617 90.4778L56.0163 86.9242C56.0904 86.9242 55.7943 92.5507 55.4241 92.7728Z" fill="#F8B380"/>
<path d="M97.0298 93.8833C97.0298 93.8833 95.179 95.2158 93.5503 95.2899C91.9216 95.3639 89.4785 96.1042 88.4421 96.4744C87.4056 96.8446 84.1482 98.9175 83.778 99.1395C83.4078 99.3616 79.4101 101.138 78.7438 100.842C78.0775 100.546 73.8577 99.8799 71.6367 101.064C71.6367 101.064 74.1538 101.509 74.2279 101.509C74.3019 101.509 76.1527 101.805 76.1527 101.805L78.9659 103.063C78.9659 103.063 80.2985 104.026 80.6687 104.026C81.0388 104.026 82.0753 103.359 82.0753 103.359L88.6642 99.4357L93.9205 97.807C93.9205 97.807 96.8818 96.5484 97.326 96.1042C97.7702 95.66 98.8806 94.4015 98.8806 94.4015C98.8806 94.4015 101.028 93.5131 101.62 93.0689C102.212 92.6247 102.582 91.4402 102.582 91.4402C102.582 91.4402 101.694 92.4026 100.213 92.8468C98.7326 93.291 97.0298 93.8833 97.0298 93.8833Z" fill="#F8B380"/>
<path d="M115.24 74.5608L114.87 84.4811C114.87 84.4811 115.314 88.2568 113.093 89.2192C110.873 90.1076 105.024 94.8457 104.58 96.9186C104.136 98.9915 100.212 101.509 99.0273 101.212L105.024 100.546L106.134 100.102L106.505 98.3252L108.207 97.2147L114.13 93.0689L115.907 91.5142L117.239 89.5153V89.0711L115.24 74.5608Z" fill="#F8B380"/>
<path d="M83.7777 60.8648C83.7777 60.8648 93.6981 61.2349 94.7345 61.7532C95.771 62.2714 98.4362 63.9741 98.4362 64.5664C98.3621 65.1586 100.065 67.6757 100.879 68.342C101.694 69.0083 104.507 70.9332 104.803 72.1177C105.099 73.3022 106.21 78.3364 104.063 81.1496C101.916 83.9629 100.657 86.2579 100.657 86.2579C100.657 86.2579 96.9555 88.9971 94.5865 89.1451C92.2174 89.2932 80.8164 94.6976 80.8164 94.6976L87.1832 92.3285L90.2185 92.2545H95.4749L98.5102 90.4037L104.137 86.7021L106.506 85.7397L107.024 84.9253L107.69 81.6679L109.023 74.1906C109.023 74.1906 107.69 72.2658 107.32 71.8956C106.95 71.5254 103.322 67.6757 103.322 67.6757L101.027 64.7885L99.4726 63.5299L96.7334 60.5686L92.2174 60.2725L83.8518 60.0504H82.075L83.7777 60.8648Z" fill="#F8B380"/>
<path d="M68.5977 60.4206C68.5977 60.4206 72.9656 57.1632 73.1877 56.9411C73.4098 56.793 77.7036 54.572 78.2219 54.572C78.7401 54.572 85.2549 54.7201 85.6251 55.0902C85.9953 55.4604 90.8814 55.9786 92.8803 57.4593C94.8792 58.9399 98.8769 61.1609 98.8769 61.1609C98.8769 61.1609 102.06 63.4559 102.579 64.5664C103.097 65.6028 104.577 68.7122 104.577 68.7122L100.95 64.7145L96.9521 61.1609L96.2118 60.1245L91.1775 60.1985L83.7003 59.9764H81.9235L80.0727 59.9024L78.1479 59.9764L68.5977 60.4206Z" fill="#F8B380"/>
<path d="M64.6016 75.005C64.6016 75.005 67.5628 68.4901 68.1551 68.342C68.7474 68.194 72.375 67.4537 73.8556 66.1211C75.3363 64.7885 79.0379 63.4559 79.334 62.4935C79.6301 61.5311 82.5914 62.8636 83.3317 63.5299C84.1461 64.2703 88.0698 63.5299 88.7361 63.9741C89.4024 64.4183 91.4753 66.7133 93.03 67.3056C94.5847 67.8978 96.7316 70.1188 97.9902 69.9708C99.2487 69.8227 97.4719 72.2658 102.654 75.3751L103.246 75.3011L101.322 73.7464L99.915 71.3033L99.6189 70.4149C99.6189 70.4149 98.9526 67.6017 95.0289 66.047L91.1051 62.7156L89.6245 62.1233L86.145 61.5311L83.3317 61.0869L81.9992 60.1244L80.9627 60.0504L76.8909 61.2349L71.2645 64.7145L67.5629 66.5653L64.6016 75.005Z" fill="#F8B380"/>
<path d="M71.7877 69.8967C71.7877 69.8967 68.6784 73.0061 67.3458 74.4127C66.0872 75.8193 65.8651 76.4116 66.0132 77.448C66.1612 78.4105 67.4938 81.5938 67.4938 81.5938C67.4938 81.5938 69.5667 83.0745 70.0109 83.2226C70.4551 83.3706 76.8959 86.1098 77.4142 86.8502L73.4164 86.7761L70.9733 86.9982C70.9733 86.9982 69.7888 86.628 69.7888 86.1839C69.7888 85.7397 68.6043 84.1109 68.6043 84.1109L66.6055 82.7784L64.9027 81.89L64.8287 81.1496L65.2728 78.4105L63.4961 76.4116L63.9403 75.8934L66.7535 72.858L69.7148 70.2669L71.7877 69.8967Z" fill="#F8B380"/>
<path d="M61.1981 83.7407C61.1981 83.7407 61.4202 88.0346 61.9384 89.1451C62.4566 90.2556 62.6788 90.8478 63.6412 91.7362C64.6036 92.6246 69.1196 94.6975 69.1196 94.6975L72.5251 95.2898C72.5251 95.2898 79.262 95.0677 82.2233 93.2169L75.4123 96.5483L72.2289 96.6964L70.5262 95.9561L67.787 94.7716L65.1218 93.8091L62.4566 93.0688L61.5682 92.6986L61.1241 91.0699L60.7539 89.2932L60.976 85.8877L61.1981 83.7407Z" fill="#F8B380"/>
<path d="M66.0095 67.9719C66.0095 67.9719 63.7145 71.6735 62.8261 73.8205C61.9377 75.9674 61.1233 79.595 61.1233 79.595L60.6051 80.1873L60.9013 79.669L60.6051 78.4845L60.457 75.8194L60.5311 74.0426L60.6792 73.1542L62.2338 71.3034L66.0095 67.9719Z" fill="#F8B380"/>
<path d="M118.719 78.0403C118.719 78.0403 118.052 73.5983 117.09 72.4879C116.128 71.3774 110.797 66.5653 110.797 66.5653C110.797 66.5653 109.539 64.6404 108.502 63.9741C107.466 63.3078 101.617 60.0504 101.617 60.0504L110.501 63.0117L113.462 66.1211L118.867 71.3774L118.719 78.0403Z" fill="#F8B380"/>
<path d="M81.5547 68.2681C81.5547 68.2681 87.5513 69.5266 88.6618 71.1553C89.7723 72.784 90.2905 73.7465 90.3646 74.1166C90.3646 74.4868 91.5491 75.7453 91.253 77.374C90.9568 79.0028 90.0684 80.7055 89.5502 81.5939C89.032 82.4823 87.1812 84.8513 87.1812 84.8513L89.4762 82.9265L91.0309 80.9276L92.4375 79.4469L93.0297 78.4845L92.4375 76.8558L91.475 74.931V73.3023L91.253 70.5631L88.8099 69.1564L85.3304 67.9719L81.5547 68.2681Z" fill="#F8B380"/>
<path d="M86.2925 78.1884C86.2925 78.1884 85.0339 79.3729 84.7378 80.2613C84.5157 81.1497 83.6273 82.5563 83.1091 82.7044C82.5908 82.8524 78.8152 84.8513 78.8152 84.8513C78.8152 84.8513 78.6671 88.1828 78.297 88.2568C78.0008 88.3308 79.4815 86.7761 79.4815 86.7761L82.2947 84.8513L85.108 83.2226L87.477 81.5939L87.9952 81.0756L87.4029 80.1873L87.1068 77.374L86.2925 78.1884Z" fill="#F8B380"/>
<path d="M66.0113 61.0128C66.0113 61.0128 60.5329 63.3078 59.7185 65.1586C58.9042 67.0094 57.1274 68.4901 56.9794 69.0083C56.8313 69.5265 56.6092 78.1883 54.9805 81.0015V75.3751L55.1285 74.0425L54.9805 70.2668L55.0545 67.8978L56.091 66.2691L57.7937 64.0481L60.4588 62.1233L63.4201 60.7907L66.9737 60.4205L71.1935 60.6426L66.0113 61.0128Z" fill="#F8B380"/>
<path d="M113.538 96.4744C113.538 96.4744 111.687 100.916 110.947 100.99C110.207 100.99 108.134 103.285 107.764 104.47C107.542 105.136 106.801 105.951 106.135 106.543C105.543 107.061 104.876 107.357 104.136 107.505L99.9163 108.32C99.9163 108.32 95.7704 109.948 95.6224 110.096C95.4743 110.244 93.0312 114.464 93.0312 114.464L95.4744 111.799L98.6577 110.466L104.95 109.726L107.097 108.838L108.06 107.949L110.799 103.063L112.058 101.657L113.094 99.5837L113.538 96.4744Z" fill="#F8B380"/>
<path d="M119.015 73.5983C119.015 72.9321 119.311 72.0437 119.163 71.4514C119.089 71.0813 118.719 70.7851 118.497 70.563C116.424 68.6382 114.277 66.7133 112.426 64.5664C111.686 63.752 111.093 62.9377 109.983 62.4935C108.65 61.9753 107.244 61.6051 105.837 61.1609C103.098 60.2725 100.285 59.3101 97.4713 58.5698C96.657 57.9035 95.7686 57.2372 94.8802 56.5709C94.0658 55.9786 93.2515 55.4604 92.2891 55.0162C91.1786 54.424 89.846 53.7577 89.9941 52.277C89.9941 52.129 89.846 51.9069 89.6239 51.9069C85.182 52.129 80.74 52.4251 76.3721 52.9433C75.6318 53.0173 74.7434 53.0173 74.0771 53.3875C73.2628 53.8317 72.6705 54.7201 72.0782 55.3864C71.3379 56.2007 70.6716 57.0151 69.9313 57.8295C69.3391 58.4957 68.5987 59.2361 68.0805 59.9764C67.4142 59.9764 66.7479 60.0504 66.0076 60.0504C64.1567 60.1985 62.2319 60.4946 60.5292 61.309C58.8264 62.1974 57.4938 63.604 56.3833 65.0846C55.8651 65.8249 55.2729 66.4912 54.9027 67.3056C54.4585 68.0459 54.4585 68.7862 54.5325 69.6006C54.7546 71.8956 54.8287 74.1166 54.7547 76.4116C54.6806 78.2624 54.1624 80.2613 55.0508 81.964C55.1988 82.3342 55.4209 82.6303 55.569 82.9264C56.2353 85.6656 55.1248 88.1827 53.8663 90.6258C53.4221 91.5142 52.9039 92.4766 52.7558 93.5131C52.6077 94.7716 53.0519 96.1042 53.4221 97.2887C53.7922 98.6213 54.1624 100.028 54.5325 101.36C54.7546 102.323 54.9767 103.359 55.643 104.1C56.3833 104.914 57.4939 105.506 58.3082 106.247C58.7524 106.617 59.1226 107.061 59.4927 107.431C60.6032 108.838 61.5656 110.244 62.454 111.873C62.6761 112.317 62.9723 112.836 63.4905 112.984C64.1568 113.132 65.0452 112.761 65.7115 112.539C68.3026 111.873 70.8197 111.133 73.4108 110.541C75.1135 111.799 77.2605 112.687 79.1854 113.502C81.1102 114.39 83.035 115.131 84.9599 115.871C85.7002 116.167 86.2925 116.389 87.0328 116.019C87.8471 115.723 88.3653 114.982 89.1057 114.612C90.1421 114.094 91.1786 114.168 92.2891 114.464C92.8073 114.612 93.4736 114.686 93.9178 114.316C94.1399 114.168 94.2139 114.02 94.2879 113.798C95.9907 113.502 97.6935 112.613 99.1741 111.651C99.8404 111.207 100.581 110.689 101.025 110.17C101.913 110.022 102.802 109.8 103.764 109.652C105.393 109.356 107.392 109.356 108.354 107.801C108.798 106.987 109.094 106.099 109.539 105.284C110.131 104.248 110.723 103.285 111.463 102.397C111.982 101.731 112.722 101.138 112.944 100.324C113.314 99.3616 113.388 98.1771 113.61 97.1406C114.055 94.9937 114.795 92.8468 116.127 91.07C116.202 90.996 116.202 90.8479 116.127 90.7739C116.202 90.6998 116.276 90.5518 116.424 90.4777C116.794 90.0335 117.164 89.5893 117.238 88.9971C117.312 88.1827 117.016 87.3684 116.942 86.6281C116.72 84.9993 116.498 83.3706 116.35 81.6679C116.424 81.6679 116.498 81.5938 116.498 81.5938C116.868 81.0016 117.238 80.3353 117.534 79.743C117.83 79.1508 118.2 78.7066 118.497 78.1143C118.645 78.2624 118.867 78.1143 118.867 77.9663C119.015 76.6337 118.941 75.153 119.015 73.5983ZM72.0782 56.5709C72.7445 55.8306 73.4108 54.9422 74.1511 54.2759C75.0395 53.6096 76.5202 53.6836 77.5566 53.5356C81.4804 53.1654 85.4041 52.8693 89.2537 52.6472C89.3278 54.2759 90.8825 55.0903 92.215 55.7565C94.2879 56.793 95.9907 58.2736 97.7675 59.6803C99.4702 61.0128 101.469 62.4195 102.432 64.4183C103.024 65.6769 103.468 66.9354 103.986 68.194C103.838 67.9719 103.616 67.8238 103.468 67.6017C102.728 66.7133 102.283 65.6028 101.469 64.7145C100.581 63.8261 99.4702 63.1598 98.5818 62.1974C97.8415 61.383 97.3233 60.1985 96.2128 60.0504C94.8062 59.8283 93.2515 59.9764 91.7709 59.9024C88.5134 59.8283 85.256 59.7543 81.9986 59.6803C81.6284 59.5322 81.3323 59.3841 80.9621 59.3841C80.2218 59.3101 79.4815 59.6803 78.8152 59.9764C76.8163 59.7543 74.7434 59.8283 72.6705 59.9024C71.4119 59.9024 70.1534 59.9764 68.8948 59.9764C70.0794 59.014 71.0418 57.6814 72.0782 56.5709ZM101.469 92.8468C100.877 93.2169 100.285 93.365 99.6923 93.6611C98.3597 94.2534 97.7675 95.5119 96.657 96.3263C95.3244 97.2887 93.6957 97.5848 92.215 98.029C88.9576 98.9174 85.9223 100.546 83.1091 102.397C82.7389 102.693 82.2947 102.915 81.9245 103.211C81.7024 103.359 81.2583 103.804 81.0362 103.804C80.666 103.878 80.1478 103.433 79.7776 103.285C79.3334 103.063 78.8892 102.767 78.445 102.545C77.1125 101.805 75.7798 100.916 74.1511 101.064C72.9666 101.138 72.0782 101.064 71.1158 100.324C70.4495 99.8058 69.8573 99.0655 69.265 98.4732C68.0065 97.1407 66.6739 95.734 65.4153 94.4015C66.8219 94.8456 68.1545 95.3639 69.4871 95.8821C70.7456 96.4003 71.9302 97.2147 73.3368 97.2887C74.0031 97.2887 74.5953 97.2147 75.2616 96.9926C75.2616 96.9926 75.2616 97.0666 75.3357 97.0666C75.7058 96.9185 76.076 96.7705 76.4462 96.6224C76.8903 96.4744 77.3345 96.3263 77.7787 96.1782C78.0749 96.0302 78.445 95.9561 78.7411 95.8081C80.3698 95.2158 81.9986 94.5495 83.6273 93.9573C84.8118 93.5131 85.9963 92.9948 87.2549 92.6987C88.7355 92.4026 90.2902 92.6247 91.7709 92.7727C92.8814 92.9208 93.9918 93.0689 95.1023 92.9208C96.2868 92.7727 97.2492 92.2545 98.2116 91.5882C100.285 90.2556 102.283 88.9231 104.282 87.5164C103.69 88.5529 103.246 89.6634 102.876 90.8479C102.506 91.6623 102.209 92.3285 101.469 92.8468ZM66.97 96.6965C67.3402 97.2147 67.7844 97.6589 68.1545 98.1771C69.0429 99.2876 70.0053 100.546 71.2639 101.286C71.7821 101.583 72.3003 101.731 72.8185 101.805C73.7069 101.879 74.5213 101.509 75.4097 101.805C76.076 102.027 76.7423 102.397 77.4086 102.841C76.7423 102.989 76.002 103.211 75.3357 103.359C74.2992 103.581 73.2628 104.026 72.2263 103.878C71.2639 103.804 70.3755 103.433 69.4871 103.359C68.6727 103.285 67.9324 103.211 67.118 103.211C67.118 101.064 67.1921 98.8434 66.97 96.6965ZM61.1214 86.3319C61.2695 85.5916 61.4176 84.8513 61.4176 84.1109C61.3436 83.2226 60.9734 82.4082 60.8253 81.5198C60.6772 80.9276 60.6772 80.4834 61.1214 79.9651C61.4176 79.595 61.8618 79.2988 62.2319 79.0027C62.8982 78.4105 63.6385 77.8922 64.3048 77.2259C64.823 77.6701 65.1932 78.1143 65.1932 78.9287C65.1932 79.8171 64.8231 80.7795 64.601 81.5938C64.601 81.6679 64.601 81.8159 64.675 81.89C65.2672 82.4082 66.0076 82.7784 66.6739 83.1485C66.896 84.4071 67.118 85.6656 67.118 86.9982C67.118 87.7385 66.896 88.701 67.4142 89.2932C68.0805 90.0335 69.265 90.5518 70.0793 91.07C70.8197 91.5882 71.7081 92.3285 72.5965 92.4766C73.7069 92.6247 74.9655 92.4766 76.076 92.4766C77.1865 92.4026 78.371 92.3285 79.4074 92.0324C80.592 91.7363 81.6284 91.2921 82.8129 91.07C83.9234 90.8479 84.9598 90.8479 85.9963 90.996C82.961 92.0324 80.666 94.4755 77.7047 95.586C75.7058 96.3263 73.7069 97.2147 71.56 96.2523C69.9313 95.586 68.3766 94.8457 66.7479 94.2534C66.0076 94.0313 65.2672 93.7352 64.5269 93.5131L64.4529 93.439C64.3789 93.365 64.3789 93.365 64.3048 93.439H64.2308C63.3424 93.2169 62.1579 93.1429 61.6397 92.3285C61.4916 91.6623 61.2695 90.996 61.0474 90.4037C60.8253 88.9971 60.8993 87.5164 61.1214 86.3319ZM80.1478 60.4206C81.1842 60.1245 82.1466 60.7907 83.1091 61.1609C84.9599 61.7532 86.8107 61.9753 88.6615 62.3454C90.5863 62.7156 91.8449 63.752 93.1775 65.0846C94.2879 66.1211 95.3984 66.9354 96.731 67.6758C97.5454 68.12 98.4337 68.6382 98.952 69.4525C99.5442 70.3409 99.6923 71.3774 100.062 72.3398C100.581 73.6724 101.543 74.7829 102.802 75.5232C100.803 77.6701 99.8404 80.6314 100.359 83.5187C97.3233 85.5176 94.2139 87.2203 91.0305 88.849C91.4007 88.5529 91.6968 88.2568 91.993 87.9606C92.5852 87.2943 92.8813 86.48 93.4736 85.8877C93.9178 85.4435 94.436 85.0734 94.6581 84.4811C94.9542 83.5927 94.7321 82.7784 95.1763 81.89C95.5465 81.1496 96.1388 80.4834 96.583 79.8171C97.0272 79.2248 97.4713 78.7066 97.7675 78.0403C98.1376 77.2259 98.3597 76.4116 98.878 75.6713C98.952 75.5972 98.952 75.4492 98.878 75.3751C98.2117 74.3387 97.6194 73.1542 96.8791 72.1177C96.3608 71.3774 95.6946 71.0072 94.9542 70.563C92.8813 69.4525 90.7344 68.4901 88.5134 67.7498C88.4394 67.7498 88.3654 67.8238 88.4394 67.8979C89.772 68.6382 91.1045 69.3045 92.4371 69.9708C93.6216 70.563 95.1023 71.0812 96.0647 71.9696C96.583 72.4879 96.9531 73.3022 97.3233 73.9685C97.6935 74.6348 98.2857 75.2271 97.9155 75.9674C97.4714 77.0779 97.0271 78.1884 96.2868 79.1508C95.6205 80.0392 94.8802 80.8535 94.436 81.89C93.9178 83.0745 94.2879 84.259 93.3255 85.2955C92.4371 86.1839 91.993 87.3684 91.0305 88.1827C90.3642 88.775 89.6979 89.2932 88.9576 89.7374C89.92 88.4048 90.5863 86.9242 90.8084 85.2955C90.9565 84.1109 90.8824 82.8524 91.3266 81.7419C91.4747 81.2977 91.6968 80.9276 91.9189 80.5574L91.993 80.4834C92.4371 80.0392 92.8813 79.595 93.1034 79.0027C93.4736 78.0403 92.9554 77.374 92.4371 76.6337C91.3266 75.2271 91.7709 73.3022 91.7709 71.5995C91.7709 70.1929 90.0681 69.8967 89.0317 69.3045C87.7731 68.7122 86.3665 67.8238 84.9599 67.7498C81.9986 67.5277 79.0373 68.5641 76.8163 70.489C75.3357 70.1188 73.781 70.0448 72.3003 69.8227C71.1898 69.6746 70.3015 69.6746 69.4131 70.3409C68.3766 71.1553 67.4882 72.1917 66.5258 73.0801C65.9335 73.6724 65.4153 74.2646 64.8971 74.8569C65.9335 72.3398 66.1556 69.3045 68.0064 67.2316C69.191 65.899 71.1158 65.4548 72.5965 64.5664C74.1511 63.604 75.6318 62.5675 77.3345 61.7532C78.2229 61.1609 79.1853 60.6427 80.1478 60.4206ZM64.0087 76.4116C65.6374 74.5608 67.3402 72.784 69.191 71.0813C70.3755 70.0448 71.3379 70.1929 72.8185 70.2669C74.0031 70.3409 75.1876 70.563 76.3721 70.563C75.7798 70.7111 75.1876 70.7111 74.5213 70.8592C73.855 71.0072 72.6705 71.0072 72.3003 71.6735C72.0782 72.1177 72.0783 72.5619 71.7821 73.0061C71.486 73.5243 71.0418 73.8945 70.7456 74.4127C70.5976 74.7088 70.6716 75.005 70.8197 75.2271C70.9677 77.0779 70.7456 78.7806 70.0053 80.4834C69.8573 80.1872 69.7092 79.8911 69.5611 79.595C69.191 78.7806 68.6727 78.1143 68.7468 77.2259C68.8948 75.4492 69.413 73.5984 70.4495 72.1917C70.5235 72.1177 70.3755 72.0437 70.3755 72.1177C69.265 73.2282 68.5987 74.9309 68.2285 76.4116C68.0805 77.0038 67.8584 77.5961 68.0805 78.1884C68.3766 79.0767 68.9689 79.9651 69.339 80.7795C70.2274 82.4822 71.4119 83.4447 73.1887 84.259C74.2252 84.7772 75.1876 85.2214 76.2241 85.6656C76.8163 85.9618 77.1124 86.1098 77.2605 86.7021V86.7761C76.0019 86.1839 74.6694 86.3319 73.2628 86.48C72.5965 86.554 71.9302 86.7021 71.2639 86.7021C70.8197 86.7021 70.4495 86.7021 70.2274 86.2579C70.1534 86.1098 70.0793 85.9618 70.0793 85.8137C69.7092 84.9993 69.191 84.333 68.5987 83.7408C67.9324 83.1485 67.1181 82.7784 66.3037 82.3342C65.7855 82.038 65.1932 81.8159 65.1932 81.2237C65.1932 80.7795 65.4153 80.1872 65.4894 79.669C65.8595 78.1143 65.2673 77.2259 64.0087 76.4116ZM92.141 76.9298C92.8073 77.7442 93.0294 78.4105 92.215 79.3729C91.7708 79.8171 91.2526 80.2613 90.8825 80.7795C90.3642 81.3717 89.9201 82.038 89.5499 82.6303C87.9952 84.4071 86.2184 85.5916 83.7013 85.9618C83.6273 85.9618 83.6273 86.0358 83.5532 86.0358C82.887 86.0358 82.2207 86.1839 81.5544 86.554C79.6295 87.4424 78.2969 89.0711 77.1124 90.8479C77.6306 89.5153 78.371 88.3308 79.4074 87.2943C80.8141 85.8877 82.6649 84.9993 84.3676 84.0369C87.2549 82.4082 90.1421 80.3353 90.0681 76.7077C90.0681 76.6337 89.9941 76.6337 89.9941 76.7077C89.92 78.4845 89.1057 79.8171 87.9952 80.9276C87.625 80.3353 87.2549 79.669 87.1808 78.9287C87.1068 78.4845 87.2549 78.1143 87.4029 77.6701C88.0692 76.9298 88.5134 75.8934 88.0692 74.9309C87.9952 74.7088 87.7731 74.4867 87.6991 74.2646C87.551 73.8945 87.551 73.5984 87.4029 73.3022C87.2549 73.0801 87.2549 73.0061 86.9588 72.858C85.9963 72.4138 84.9599 72.4138 84.0715 71.7475H83.9975C83.9975 71.6735 83.9974 71.5995 83.9234 71.5254C83.9234 71.3033 83.9234 71.0812 83.8494 70.9332C83.4792 69.9708 81.9246 69.6746 81.0362 69.8227C80.9621 69.8227 80.8881 69.8227 80.814 69.8227C80.0737 69.6006 79.2594 69.5266 78.519 69.7487C79.2594 69.3785 79.9997 69.0824 80.74 68.8603C81.5544 68.6382 82.3687 68.5641 83.1091 68.5641C83.9234 68.4901 84.7378 68.4161 85.5521 68.5641C86.9587 68.9343 88.3653 69.8227 89.6979 70.415C90.6603 70.8592 91.1786 71.1553 91.1786 72.2658C91.1786 73.0801 91.1045 73.8204 91.1786 74.6348C91.1045 75.5232 91.4747 76.1154 92.141 76.9298ZM88.2913 87.2943C87.1068 86.7021 85.9963 86.2579 84.7378 86.1098C86.3665 85.6656 87.9212 84.7032 89.1057 83.5187C88.6615 84.6292 88.4394 85.9618 88.2913 87.2943ZM77.8527 85.8877C77.5566 85.3695 76.8163 85.2214 76.2981 84.9253C76.2981 84.9253 76.2241 84.9253 76.2241 84.8513C76.2241 83.5927 76.8163 82.3342 77.9268 81.7419C79.1113 81.0756 80.5179 81.0756 81.8505 80.9276C82.5908 80.8535 83.4052 80.7055 83.9975 80.1872C84.2936 79.9651 84.2936 79.743 84.5157 79.4469C84.8858 78.9287 85.7002 78.7066 86.2184 78.4105C86.4405 78.2624 86.6626 78.1143 86.8847 77.9663C86.7366 79.0027 87.1808 80.0392 87.7731 80.9276C86.0704 82.4082 83.8494 83.5187 82.0726 84.5551C80.5919 85.4435 79.2594 86.6281 78.2229 87.9606C78.2229 87.8866 78.2229 87.7385 78.2229 87.6645C78.371 87.5905 78.445 87.3684 78.2229 87.2203C78.2229 87.2203 78.1489 87.2203 78.1489 87.1463C78.0749 86.7761 78.0008 86.2579 77.8527 85.8877ZM77.7047 70.415C78.6671 69.8967 79.4815 69.8967 80.4439 69.9708C80.4439 69.9708 80.4439 69.9708 80.4439 70.0448C80.2218 70.1929 80.1478 70.489 80.1478 70.7851C79.4074 70.8592 78.6671 71.7475 78.8152 72.4879C78.297 73.0801 78.0749 73.8204 77.7787 74.5608C77.4086 75.6713 77.1124 77.1519 76.15 77.8922C75.7058 77.5221 75.2616 77.1519 74.8174 76.7077C74.5953 76.4856 74.2252 76.2635 74.0771 75.9674C73.781 75.8193 73.855 75.5232 74.1511 75.3011C74.2252 75.2271 74.2252 75.153 74.2992 75.005C74.5953 74.4867 75.0395 74.0425 75.4837 73.5983C76.4462 72.6359 77.5566 71.8956 78.7411 71.1553V71.0813C77.4826 71.6735 76.224 72.2658 75.1876 73.2282C74.6694 73.6724 73.2628 75.079 73.4849 75.8934C73.5589 76.3376 74.2992 76.7077 74.5953 77.0038C75.1136 77.448 75.6318 77.9663 76.2241 78.4105C76.7423 78.7806 77.4086 79.0027 77.9268 79.3729C78.0749 79.4469 78.1489 79.5209 78.297 79.595C77.5566 79.5209 76.7423 79.595 76.0019 79.595C75.5577 79.595 74.9655 79.669 74.5213 79.595C74.0771 79.669 73.6329 79.4469 73.3368 79.0027C73.3368 78.7806 73.2628 78.5585 73.2628 78.3364C73.1887 77.6701 73.0406 77.0038 72.6705 76.4856C72.4484 76.1895 72.2263 75.8934 72.0042 75.5972C71.7081 75.3011 71.486 74.9309 71.412 74.4867C71.56 74.2646 71.7081 74.1166 71.8561 73.8945C72.2263 73.3763 72.4484 72.9321 72.7445 72.3398C73.1147 71.5995 73.3368 71.3774 74.1511 71.2293C74.7434 71.0812 75.3356 71.0072 76.0019 70.9332C76.5202 71.0072 77.0384 70.7851 77.7047 70.415ZM83.7013 72.4879C83.7013 72.4138 83.7753 72.2658 83.7753 72.1917C83.8494 72.4138 83.9234 72.6359 83.9234 72.784C84.1455 73.5243 84.2936 74.2646 84.6637 74.8569C84.6637 75.6713 84.2196 76.5596 83.8494 77.2259C83.4792 77.8922 83.1091 78.6325 82.5168 79.1508C81.7025 79.743 80.666 79.8911 79.8516 80.4834C79.7036 79.743 79.7036 79.1508 79.8516 78.4845C80.666 77.6701 81.5544 76.7077 81.9986 75.6713C82.1466 76.1155 82.2947 76.5596 82.3687 77.0038H82.4428C82.3687 75.9674 82.2947 74.8569 81.5544 73.9685C81.2582 73.5983 80.8881 73.3763 80.5179 73.1542C80.2958 73.0061 79.9997 72.9321 79.7776 72.784C79.0373 72.1917 79.4815 71.2293 80.2218 70.9332C80.2218 71.1553 80.2958 71.4514 80.3699 71.6735C80.74 72.71 81.4063 73.3763 82.2207 73.9685C82.2947 74.4127 82.4427 74.7829 82.6648 75.2271C82.6648 75.3011 82.6648 75.3011 82.6648 75.3011C82.6648 75.4492 82.887 75.4492 82.887 75.3011C82.8129 74.3387 83.4052 73.3763 83.7013 72.4879ZM77.7787 78.8547C77.3345 78.5585 76.8163 78.3364 76.3721 78.0403C77.0384 77.5221 77.3345 76.7077 77.6307 75.8934C78.0008 74.7829 78.371 73.7464 78.8152 72.6359C78.8152 72.6359 78.8152 72.71 78.8892 72.71C79.0373 72.9321 79.3334 73.1542 79.6295 73.3022C80.2958 73.8945 80.666 74.6348 80.5179 75.5232C80.3699 76.2635 79.9257 76.9298 79.6295 77.5961C79.3334 78.4105 79.1853 79.2248 79.3334 80.0392C78.8892 79.595 78.371 79.1508 77.7787 78.8547ZM80.3699 73.6724C80.5179 73.7464 80.666 73.8204 80.74 73.8945C81.2582 74.2646 81.5544 74.8569 81.7765 75.4492C81.4804 75.8934 81.1842 76.4116 80.814 76.9298C80.5919 77.2259 80.2218 77.5221 79.9257 77.8922C79.9997 77.6701 80.0737 77.448 80.2218 77.2259C80.5179 76.6337 80.8881 76.0414 80.8881 75.3011C80.9621 74.7088 80.74 74.1166 80.3699 73.6724ZM79.8516 80.7055C81.1842 80.0392 82.6649 79.9651 83.6273 78.5585C84.2196 77.7442 85.182 76.2635 85.1079 75.079C85.182 75.079 85.182 75.005 85.182 74.9309C84.9599 74.1166 84.5157 73.3022 84.2196 72.4879C84.1455 72.3398 84.1455 72.1177 84.0715 71.9696C84.4416 72.4138 85.0339 72.5619 85.6261 72.784C86.2184 72.9321 86.8107 73.0061 87.1068 73.5983C87.2549 73.9685 87.4029 74.3387 87.551 74.7088C88.1433 75.9674 87.1808 77.448 86.0704 78.0403C85.33 78.4105 84.5897 78.6325 84.1455 79.2988C83.7753 79.8911 83.5533 80.1872 82.7389 80.4093C82.1466 80.5574 81.4803 80.5574 80.814 80.6314C80.4439 80.6314 80.1478 80.6314 79.8516 80.7055ZM80.666 70.1188C81.1102 69.8227 81.8505 70.2669 82.0726 70.7111C82.2207 71.0072 82.2207 71.3774 82.2947 71.7475C81.9245 71.0812 81.1842 70.8591 80.4439 70.6371C80.4439 70.489 80.5179 70.2669 80.666 70.1188ZM80.3699 70.8592C80.666 71.0072 81.0361 71.1553 81.3323 71.3774C82.0726 71.8956 82.0726 72.4138 82.0726 73.2282C82.0726 73.3763 82.0726 73.5243 82.0726 73.6724C81.4063 72.9321 80.3699 71.7475 80.3699 70.8592ZM83.2571 72.5619C82.961 73.3763 82.7389 74.1166 82.6648 74.9309C82.5168 74.4127 82.4428 73.8945 82.4428 73.3763C82.4428 73.0801 82.4428 72.784 82.4428 72.4879C82.5168 71.6735 82.4427 70.7851 81.9245 70.1929C81.8505 70.1188 81.7025 70.0448 81.6284 69.9708C81.9986 70.0448 82.4428 70.1929 82.7389 70.415C83.6273 70.8592 83.5533 71.6735 83.2571 72.5619ZM71.2639 75.7453C71.3379 75.8193 71.4119 75.8934 71.486 75.9674C72.0042 76.6337 72.3744 77.2259 72.5224 78.0403C72.5965 78.4845 72.5224 79.1508 72.7445 79.595C73.0407 80.1872 74.0771 80.1132 74.6694 80.1132C76.0019 80.1872 77.3345 79.9651 78.6671 80.0392C78.8892 80.2613 79.1853 80.5574 79.4074 80.7795C78.9633 80.8535 78.5931 81.0016 78.2229 81.1496C76.7423 81.8159 76.15 83.2966 76.15 84.7772C74.5213 84.0369 72.5224 83.2966 71.3379 82.038C70.9677 81.6679 70.7457 81.2977 70.5236 80.8535C71.0418 79.8171 71.1899 78.7066 71.412 77.5961C71.3379 77.0779 71.3379 76.4116 71.2639 75.7453ZM67.8584 83.8148C68.5247 84.259 69.0429 84.8513 69.4131 85.5176C69.6352 85.9618 69.7092 86.554 70.0053 86.9242C70.5976 87.6645 72.1523 87.2203 72.9666 87.1463C74.4473 86.9242 76.15 86.7021 77.4826 87.5905C77.5566 87.8866 77.5566 88.1827 77.6307 88.4048C77.6307 88.4048 77.6307 88.4789 77.7047 88.4789C77.7047 88.5529 77.7047 88.6269 77.7047 88.6269C77.7047 88.701 77.7047 88.701 77.7047 88.775C77.1865 89.6634 76.7423 90.5518 76.4462 91.5882C75.8539 91.6623 75.1876 91.6623 74.5213 91.7363C74.0031 91.7363 73.4848 91.8103 73.0406 91.8103C72.3003 91.7363 71.9302 91.4402 71.3379 91.07C70.3755 90.4777 69.265 89.9595 68.3766 89.2192C67.6363 88.6269 67.6363 88.2568 67.5623 87.4424C67.5623 86.9242 67.4882 86.406 67.4882 85.8877C67.4142 84.9993 67.2661 84.1109 67.044 83.2226C67.2661 83.4447 67.5622 83.6668 67.8584 83.8148ZM76.8903 91.4402C78.0748 89.7374 79.4074 88.0347 81.2583 87.0722C83.7013 85.8137 85.9963 86.628 88.2913 87.8126C88.4394 87.8866 88.5875 87.8126 88.6615 87.5905C88.8836 85.7397 89.1797 83.8888 90.1421 82.2601C90.4383 81.89 90.7344 81.4458 91.0305 81.1496C90.6604 81.89 90.5863 82.7043 90.5123 83.5187C90.2902 85.9618 89.4018 88.1087 87.9952 90.0335C87.7731 90.1816 87.477 90.3297 87.2549 90.4777C85.256 90.0335 83.4052 90.1076 81.4063 90.6998C79.8517 91.144 78.371 91.5142 76.7423 91.6623C76.8903 91.5882 76.8903 91.5142 76.8903 91.4402ZM73.3368 62.9377C72.5224 63.4559 71.7821 63.9741 70.9677 64.4183C70.0793 64.8625 69.1169 65.1587 68.3026 65.7509C68.2286 65.8249 68.1545 65.899 68.0805 65.973C68.2286 65.6029 68.3766 65.1587 68.5987 64.8625C68.9689 64.2703 69.5611 63.9741 70.1534 63.752C71.56 63.1598 73.0406 62.7156 74.5213 62.1974C74.1511 62.4195 73.781 62.6416 73.3368 62.9377ZM63.9347 75.8193C63.7866 75.9674 63.6385 76.1895 63.4905 76.3375C63.4165 76.4856 63.4164 76.6337 63.5645 76.7817C63.7126 76.8558 63.9347 77.0038 64.0827 77.0779C63.0463 77.7442 61.8618 78.6325 61.0474 79.5209C60.9734 78.4845 60.8253 77.5221 60.8253 76.4856C60.7513 75.3011 60.6773 73.6724 61.4176 72.784C62.0839 71.9696 62.9722 71.3033 63.7866 70.563C64.675 69.7487 65.5634 68.9343 66.4518 68.12C66.5258 68.0459 66.5998 67.9719 66.7479 67.8979C65.2672 70.1929 65.3413 73.3763 63.9347 75.8193ZM61.9358 93.291C62.7501 93.5131 63.4905 93.7352 64.3048 93.9573C64.4529 94.0313 64.601 94.0313 64.8231 94.1053C65.1192 94.4014 65.3413 94.7716 65.6374 95.0677C64.9711 94.9197 64.3048 94.7716 63.6386 94.5495C63.2684 94.4755 62.6021 94.3274 62.2319 94.1053C61.9358 93.8832 61.8618 93.5131 61.8618 93.1429C61.8618 93.2169 61.9358 93.2169 61.9358 93.291ZM104.652 86.1098C102.432 87.5164 100.211 88.9971 97.9896 90.4037C97.0271 90.996 96.0647 91.6622 94.9542 91.8843C93.6957 92.1805 92.2891 92.0324 91.0305 91.8843C89.846 91.8103 88.5875 91.6623 87.4029 91.9584C86.1444 92.2545 84.8858 92.8468 83.7013 93.365C82.7389 93.7352 81.7765 94.1053 80.814 94.5495C81.2582 94.3274 81.7024 94.0313 82.0726 93.7352C83.5532 92.6987 84.9599 91.6623 86.6626 91.2181C86.7366 91.2181 86.8107 91.144 86.8107 91.07C86.8107 91.07 86.8107 91.07 86.8847 91.07C86.8847 91.07 86.9588 91.07 86.9588 90.996C87.0328 90.996 87.1808 91.07 87.2549 91.07C87.3289 91.07 87.4029 91.07 87.477 90.996C88.1432 90.6258 88.8096 90.2556 89.5499 89.8114C93.3996 87.9606 97.1012 85.8137 100.803 83.8148C100.951 83.7408 100.951 83.5927 100.951 83.4447C100.433 80.5574 101.247 77.5961 103.394 75.5232C103.542 75.3751 103.468 75.153 103.32 75.079C101.395 74.0425 100.655 72.4138 100.137 70.415C99.7664 68.9343 98.8779 67.8979 97.6194 67.0835C96.9531 66.6393 96.2868 66.3432 95.6205 65.899C94.8062 65.3808 94.1399 64.7145 93.3995 64.0482C92.141 62.7896 90.8084 61.9753 89.1057 61.6051C87.3289 61.2349 85.5521 61.0869 83.8494 60.5686C85.8483 60.6427 87.8471 60.7167 89.846 60.7167C91.0305 60.7167 92.2151 60.7907 93.4736 60.7907C94.1399 60.7907 94.8062 60.7907 95.4725 60.8648C96.2868 60.9388 96.583 61.2349 97.1752 61.9012C97.9155 62.7896 98.6559 63.678 99.5443 64.3443C99.9885 64.7145 100.433 64.9366 100.803 65.3067C101.247 65.8249 101.543 66.4172 101.987 66.9354C103.246 68.7862 104.949 70.2669 106.577 71.8216C107.022 72.1917 107.392 72.6359 107.836 73.0061C108.502 73.5984 108.502 73.7464 108.354 74.6348C108.132 75.9674 107.91 77.3 107.688 78.6326C107.466 79.8911 107.244 81.2237 107.022 82.4822C106.947 83.0745 106.873 83.7408 106.651 84.259C106.355 85.2214 105.393 85.6656 104.652 86.1098ZM55.569 77.8182C55.7171 75.8193 55.7171 73.8204 55.569 71.8216C55.495 70.9332 55.3469 70.0448 55.3469 69.1564C55.3469 68.12 55.9392 67.3056 56.5314 66.4912C57.6419 64.8625 58.8264 63.3819 60.5292 62.3454C62.306 61.309 64.3048 61.0128 66.3037 60.8648C68.4506 60.7167 70.5976 60.7167 72.7445 60.6427C74.3732 60.5686 75.9279 60.4946 77.4826 60.5686C77.1864 60.7167 76.8903 60.8648 76.6682 60.9388C76.5942 60.9388 76.5202 60.8648 76.4462 60.9388C74.2252 61.6791 71.8561 62.3454 69.7092 63.3078C68.8208 63.678 68.3026 64.2703 67.9324 65.0846C67.3402 66.3432 66.5998 67.0835 65.5634 68.0459C64.601 68.9343 63.6385 69.8967 62.6021 70.7851C61.9358 71.4514 60.8994 72.1177 60.5292 73.0061C60.159 73.8945 60.233 75.079 60.233 76.0414C60.233 77.2259 60.3811 78.4845 60.8253 79.595C60.7513 79.669 60.7513 79.669 60.6773 79.743C59.8629 80.7055 60.4551 81.7419 60.7513 82.7784C61.2695 84.5551 60.5292 86.1839 60.4551 87.9606C60.4551 88.3308 60.4551 88.775 60.4551 89.1451C60.233 88.775 60.011 88.3308 59.7889 87.9606C58.8264 86.3319 57.5679 84.8513 56.5314 83.2226C56.3093 82.9264 56.1613 82.6303 55.9392 82.2601C55.643 81.8159 55.421 81.2977 55.3469 80.7795C55.2729 79.8911 55.495 78.8546 55.569 77.8182ZM66.4518 111.725C65.9336 111.873 65.3413 112.021 64.8231 112.169C64.1568 112.317 63.7866 112.391 63.3424 111.873C62.7502 111.207 62.38 110.17 61.9358 109.43C61.4176 108.616 60.8253 107.801 60.159 107.061L60.085 106.987C59.2706 105.951 58.2342 105.136 57.1977 104.396C55.9392 103.507 55.7911 102.397 55.3469 100.99C54.9768 99.6577 54.6066 98.2511 54.2364 96.9186C53.8663 95.5119 53.274 94.2534 53.7922 92.7727C54.2364 91.5142 54.9768 90.3297 55.495 89.1451C56.1613 87.6645 56.6055 86.0358 56.5314 84.4071C57.2717 85.4435 58.0121 86.4059 58.7524 87.4424C59.4927 88.5529 60.159 89.6634 60.6032 90.9219C60.9734 91.9584 60.9734 92.9208 61.1955 93.9573C61.3435 94.7716 62.0839 94.9197 62.8242 95.1418C63.8606 95.4379 64.9711 95.5119 66.0816 95.5119C66.3037 95.8081 66.5998 96.1042 66.8219 96.4003C66.8219 98.7694 66.8959 101.138 66.7479 103.433C66.7479 103.581 66.896 103.656 66.97 103.656C68.0805 103.656 69.265 103.804 70.3755 104.026C71.1898 104.174 72.0042 104.544 72.8185 104.47C73.6329 104.47 74.4473 104.174 75.1876 104.026C76.224 103.804 77.2605 103.507 78.297 103.285C79.1113 103.73 79.8517 104.174 80.666 104.618C80.8141 104.692 80.9621 104.692 81.0362 104.618C83.5533 102.915 86.0704 101.212 88.8096 99.9539C91.2526 98.8434 94.1399 98.6213 96.5089 97.2887C97.5454 96.6965 98.0636 95.734 98.878 94.9937C99.2481 94.6976 99.6183 94.4015 100.062 94.2534C98.7299 95.586 97.6934 97.4368 96.8051 98.9915C95.8426 100.62 95.0283 102.175 93.3995 103.211C92.067 104.1 90.5863 104.766 89.2537 105.58C87.9212 106.395 86.6626 107.283 85.5521 108.394C85.182 108.764 85.1079 108.912 84.5897 108.986C84.1455 108.986 83.7013 108.912 83.2571 108.838C82.2207 108.764 81.2582 108.764 80.2218 108.838C76.5202 109.06 73.0406 110.022 69.4871 110.985C68.4506 111.207 67.4142 111.503 66.4518 111.725ZM97.7675 112.169C96.805 112.687 95.6946 112.836 94.7322 113.354C94.8062 113.132 94.8802 112.836 95.1023 112.687C95.6946 111.947 96.5829 111.651 97.4713 111.429C98.2116 111.207 99.026 110.985 99.7664 110.837C99.1741 111.207 98.5078 111.799 97.7675 112.169ZM113.536 95.0677C113.24 95.8821 113.018 96.7705 112.796 97.6589C112.574 98.6213 112.5 99.6578 112.13 100.546C111.76 101.286 111.093 101.879 110.575 102.545C109.983 103.359 109.391 104.174 108.872 105.136C108.428 105.951 108.132 106.913 107.688 107.653C107.022 108.616 105.911 108.69 104.875 108.912C102.802 109.282 100.655 109.726 98.5818 110.244C97.2492 110.615 95.6946 110.911 94.6581 111.947C94.1399 112.465 94.0659 112.984 93.8438 113.576C93.5476 114.242 93.0294 114.094 92.4371 113.946C92.067 113.872 91.6228 113.798 91.2526 113.798C90.5123 113.798 89.846 113.946 89.1797 114.168C88.3654 114.538 87.6991 115.353 86.8847 115.649C85.8482 115.945 84.3676 115.131 83.4052 114.76C82.2947 114.316 81.1842 113.872 80.0737 113.428C78.1489 112.613 76.224 111.577 74.2992 110.837C75.4097 110.615 76.5202 110.392 77.6307 110.17C79.6295 109.874 81.6284 109.726 83.7013 109.726C84.2195 109.726 85.0339 109.948 85.4781 109.652C85.7742 109.504 86.0704 108.986 86.2925 108.69C86.6626 108.32 86.9587 108.023 87.4029 107.727C88.8096 106.617 90.4383 105.728 91.993 104.914C93.4736 104.174 94.6581 103.507 95.6946 102.175C95.6946 102.175 95.7686 102.101 95.7686 102.027C95.7686 102.027 95.7686 102.027 95.8426 102.027C97.9896 101.805 100.062 101.509 102.209 101.286C103.394 101.138 105.245 101.212 106.133 100.324C106.503 99.9539 106.503 99.6578 106.651 99.2136C106.947 98.2511 107.17 98.2511 107.91 97.881C108.28 97.6589 108.724 97.4368 109.094 97.2147C110.501 96.4003 111.834 95.5119 113.092 94.4755C113.61 94.0313 114.129 93.5871 114.573 93.1429C114.055 93.6611 113.758 94.3274 113.536 95.0677ZM116.868 87.8866C117.016 88.701 117.09 89.3672 116.498 90.1076C116.276 90.3297 116.053 90.6258 115.831 90.8479C115.831 90.8479 115.831 90.8479 115.757 90.9219L115.683 90.996C114.573 92.1805 113.314 93.291 111.982 94.3274C110.723 95.2158 109.465 96.1042 108.058 96.7705C107.096 97.2887 105.911 97.5848 105.689 98.7694C105.467 100.028 104.504 100.102 103.468 100.25C102.506 100.398 101.617 100.472 100.655 100.62C99.1001 100.842 97.4713 101.064 95.9167 101.286C96.805 99.9539 97.4714 98.4732 98.2857 97.1406C99.2481 95.66 100.359 94.4755 101.691 93.365C101.765 93.291 101.839 93.291 101.913 93.2169C102.728 92.6247 103.024 91.8103 103.32 90.9219C103.838 89.3673 104.504 87.9606 105.319 86.6281C106.059 86.1839 107.022 85.7397 107.244 84.9253C107.466 84.333 107.466 83.5927 107.54 83.0005C107.688 82.1861 107.836 81.3718 107.984 80.5574C108.28 79.0768 108.502 77.5961 108.798 76.1154C108.946 75.153 109.613 73.8204 108.872 73.0801C107.762 72.0437 106.577 71.0072 105.467 69.8967C104.356 68.268 103.838 66.4172 103.098 64.6404C102.357 62.7896 100.877 61.5311 99.3962 60.2725C98.952 59.9024 98.5078 59.5322 98.1376 59.162C100.359 59.9764 102.58 60.6427 104.875 61.383C106.133 61.8272 107.466 62.1974 108.724 62.6416C109.465 62.8637 110.205 63.0857 110.797 63.604C111.241 64.0482 111.686 64.5664 112.056 65.0106C113.758 67.0095 115.609 68.8603 117.46 70.6371C117.83 70.9332 118.422 71.3774 118.571 71.8216C118.719 72.3398 118.497 73.3022 118.423 73.8204C118.348 75.079 118.348 76.3375 118.423 77.5221C117.46 76.4856 116.498 75.4492 115.387 74.4867V74.4127C115.387 74.3387 115.313 74.3387 115.239 74.3387C115.017 74.1906 114.721 74.4867 114.943 74.7088C115.017 74.7829 115.165 74.8569 115.239 74.9309C115.387 78.4105 115.905 81.89 116.424 85.2955C116.646 86.1839 116.72 87.0722 116.868 87.8866ZM116.35 81.0756C116.127 79.0767 115.905 77.1519 115.609 75.153C116.646 76.0414 117.534 77.0038 118.423 78.0403C117.682 79.0027 116.868 80.0392 116.35 81.0756Z" fill="#19120B"/>
<path d="M19.6652 101.435L19.369 101.509L18.6287 96.0301L18.9248 95.9561C19.5171 97.1406 20.2574 96.8445 21.3679 96.4003L27.5126 93.8092L17.9624 92.6246L17.8884 91.9584L26.8463 87.8125L19.8873 87.0722C18.7768 86.9241 18.0365 87.2943 17.8144 88.4048L17.5182 88.4788L17 84.6292H17.2221C17.6663 85.4435 18.5547 85.8137 19.5171 85.8877L34.2496 87.2943L34.3236 87.9606L24.2552 92.1805L35.138 93.513L35.212 94.2534L21.7381 99.5837C20.5536 100.028 19.8873 100.62 19.6652 101.435Z" fill="#E7DACA"/>
<path d="M36.3214 67.6757C36.3214 66.5652 35.8031 65.8249 34.6927 65.3807L24.3281 61.2349C23.1436 60.7907 22.2552 61.0128 21.5149 61.7531L21.2188 61.605L23.4397 56.0526L23.7359 56.2007C23.7359 57.3112 24.2541 58.0515 25.3646 58.4957L35.7291 62.6415C36.9136 63.0857 37.802 62.8636 38.5423 62.1233L38.8385 62.2713L36.6175 67.8238L36.3214 67.6757Z" fill="#E7DACA"/>
<path d="M47.2064 49.6118L46.9843 49.3897C47.5026 48.2793 47.2064 47.3909 46.5401 46.5765L39.0629 38.3589C38.3225 37.5446 37.3601 37.2484 36.3237 37.6186L36.1016 37.3965L40.3954 33.4728L40.6175 33.6949C40.0253 34.8054 40.4694 35.6197 41.2098 36.4341L49.7976 45.8362L51.4263 44.3555C52.1666 43.6892 52.0185 42.6528 51.2041 40.6539L51.4263 40.4318L54.0914 43.3931L47.2064 49.6118Z" fill="#E7DACA"/>
<path d="M67.0452 35.7678C68.0076 35.1015 68.2297 34.1391 68.0076 33.1026L65.4164 22.2939C65.1203 21.0353 64.38 20.5171 63.3435 20.295L63.2695 19.9989L68.6739 18.7403C72.3015 17.8519 75.2628 19.7768 76.4473 24.5148C77.7799 30.2153 76.4473 33.917 72.6716 34.8794L67.1932 36.212L67.0452 35.7678ZM73.486 25.2552C72.3015 20.4431 70.5247 19.2585 68.3777 19.7768L67.7115 19.9248L71.1169 34.2131L72.3014 33.917C74.5965 33.3247 74.5965 29.6971 73.486 25.2552Z" fill="#E7DACA"/>
<path d="M93.4762 33.5468C94.6607 33.3987 95.327 32.7324 95.6231 31.696L98.8065 21.0353C99.1027 19.9248 98.8805 19.0365 97.9922 18.2961L98.0662 18L104.507 19.9248C106.95 20.6652 108.283 22.516 107.542 24.959C107.024 26.7358 105.247 27.5502 103.471 27.6242C106.358 31.3999 101.916 40.7279 107.246 42.3567C108.061 42.5788 109.171 42.5047 109.911 41.8384L110.059 41.9125C109.763 42.8749 108.505 43.9113 106.358 43.245C96.8817 40.4318 104.433 28.6607 100.805 27.5502C100.435 27.4761 100.213 27.5502 100.065 27.9203C99.991 28.0684 100.065 28.2905 100.213 28.3645C100.287 28.3645 100.435 28.3645 100.509 28.3645C100.509 28.4386 100.509 28.5126 100.509 28.5866C100.435 28.8828 100.065 28.9568 99.843 28.8828C99.6949 28.8087 99.6209 28.8087 99.4728 28.7347L98.2883 32.6584C97.9181 33.917 98.2883 34.7313 99.0286 35.3976L98.9546 35.6937L93.3281 34.065L93.4762 33.5468ZM101.25 26.1436C102.804 26.5878 104.137 25.6994 104.581 23.9966C105.099 22.2198 104.285 20.7392 102.952 20.369L101.99 20.0729L100.287 25.8474L101.25 26.1436Z" fill="#E7DACA"/>
<path d="M131.01 47.4649C127.604 50.7223 123.014 51.4626 120.645 49.0195C118.35 46.5765 119.165 41.9865 122.57 38.729C125.976 35.4716 130.64 34.8053 132.935 37.1744C135.23 39.6174 134.415 44.2074 131.01 47.4649ZM128.863 45.2439C131.898 42.2826 133.453 38.9511 132.268 37.7666C131.084 36.5821 127.753 37.9887 124.717 40.876C121.682 43.8373 120.127 47.0947 121.312 48.3533C122.422 49.5378 125.828 48.2052 128.863 45.2439Z" fill="#E7DACA"/>
<path d="M146.332 65.0106C144.925 65.3808 143.889 66.7133 143 68.4901C141.816 70.7851 140.261 72.5619 138.262 73.0801C135.375 73.8945 133.302 71.8956 132.71 69.6746C132.34 68.342 132.265 66.9354 132.562 66.1211L135.745 65.2327L135.893 65.5288C134.19 66.4172 133.154 67.9719 133.598 69.3785C133.746 69.9708 134.486 71.1553 136.411 70.637C137.966 70.1929 139.299 68.4901 140.483 66.6393C141.668 64.7145 143.074 63.0117 144.407 62.6416C147.072 61.9012 148.701 63.3819 149.293 65.6029C149.663 66.9354 149.663 68.194 149.441 68.7862L146.628 69.6006L146.554 69.3785C147.812 68.194 148.775 67.0095 148.479 65.899C148.182 65.1587 147.294 64.7145 146.332 65.0106Z" fill="#E7DACA"/>
<path d="M134.784 89.3672L135.08 89.4412C135.302 90.6257 136.043 91.218 137.079 91.4401L148.036 93.6611C149.295 93.8832 150.109 93.513 150.701 92.6246L150.997 92.6986L149.147 101.508L146.111 100.842L146.185 100.546C147.592 100.176 148.406 99.6577 148.628 98.7693L149.072 96.6964L143.668 95.5859L143.52 96.3262C143.298 97.2886 143.89 98.029 144.556 98.5472L144.482 98.9174L140.485 98.103L140.559 97.7328C141.447 97.5108 142.187 97.0666 142.41 96.1041L142.558 95.3638L135.006 93.8091L134.488 96.2522C134.266 97.2146 134.858 97.9549 136.191 98.8433L136.117 99.1395L132.859 98.4732L134.784 89.3672Z" fill="#E7DACA"/>
<path d="M36.7648 126.976C37.283 127.494 37.283 128.234 36.7648 128.752C36.5427 128.975 36.2466 129.049 35.8765 129.049C35.7284 129.049 35.7284 129.197 35.8024 129.345C36.5427 130.085 38.0234 129.567 39.2079 128.382L46.7592 120.905C47.4995 120.239 47.6476 119.424 47.2774 118.536L47.4995 118.314L51.3492 122.164L51.1271 122.386C50.1647 121.941 49.3503 122.238 48.7581 122.904L42.3172 129.345C39.9482 131.714 37.283 131.936 35.2842 129.937C34.2477 128.9 34.2477 127.864 35.0621 126.976C35.4322 126.531 36.2466 126.531 36.7648 126.976Z" fill="#E7DACA"/>
<path d="M69.044 149.556L63.8618 147.779L63.9358 147.483C65.1943 147.557 65.4165 146.52 65.4905 145.706C65.7126 143.929 64.2319 140.968 62.9734 140.302L60.4563 144.077C59.79 145.114 59.938 145.78 60.7524 146.446L60.6784 146.742L57.0508 145.558L57.1248 145.336C57.9392 145.336 58.6795 144.669 59.2718 143.781L67.6374 131.344L69.3401 131.936L68.3037 146.668C68.2297 147.853 68.5258 148.815 69.1181 149.334L69.044 149.556ZM63.4916 139.487C64.454 140.228 65.4164 141.412 65.7866 142.448L66.4529 134.971L63.4916 139.487Z" fill="#E7DACA"/>
<path d="M104.208 148.297L94.5843 138.525L96.7312 147.261C97.0273 148.445 97.3975 149.185 98.7301 149.259L98.8041 149.556L94.7323 150.592L94.6583 150.296C95.6207 149.63 95.8428 148.667 95.5467 147.631L92.8815 136.822C92.5854 135.563 91.8451 135.045 90.8827 134.823L90.8086 134.527L94.3622 133.639L102.284 141.782L100.581 134.897C100.285 133.713 99.6925 133.12 98.434 132.972L98.3599 132.676L102.58 131.64L102.654 131.936C101.839 132.602 101.543 133.491 101.765 134.601L105.097 148.149L104.208 148.297Z" fill="#E7DACA"/>
<path d="M128.193 135.193L127.971 134.971C128.415 133.861 128.193 132.972 127.379 132.158L119.606 124.162C118.717 123.274 117.755 123.126 116.792 123.496L116.57 123.274L123.011 116.981L125.232 119.202L125.01 119.424C123.603 118.906 122.641 118.906 122.049 119.498L120.568 120.979L124.418 124.903L124.936 124.385C125.602 123.718 125.602 122.83 125.306 121.941L125.602 121.645L128.415 124.533L128.119 124.829C127.231 124.533 126.343 124.459 125.676 125.125L125.158 125.643L130.562 131.122L132.339 129.345C133.08 128.604 132.931 127.716 132.413 126.235L132.635 126.013L134.93 128.382L128.193 135.193Z" fill="#E7DACA"/>
<path d="M31.8858 112.984C32.9488 112.984 33.8106 112.122 33.8106 111.059C33.8106 109.996 32.9488 109.134 31.8858 109.134C30.8227 109.134 29.9609 109.996 29.9609 111.059C29.9609 112.122 30.8227 112.984 31.8858 112.984Z" fill="#E7DACA"/>
<path d="M137.089 112.984C138.152 112.984 139.014 112.122 139.014 111.059C139.014 109.996 138.152 109.134 137.089 109.134C136.026 109.134 135.164 109.996 135.164 111.059C135.164 112.122 136.026 112.984 137.089 112.984Z" fill="#E7DACA"/>
</svg>
