<svg width="148" height="168" viewBox="0 0 148 168" fill="none" xmlns="http://www.w3.org/2000/svg">
<g filter="url(#filter0_d_121_72)">
<path d="M93.0427 155V162.847H100.889V155H93.0427ZM60.4542 155H52.6076V162.847H60.4542V155ZM60.4542 59.1975H68.3007V45.5363L56.5005 52.4198L60.4542 59.1975ZM24.3319 69.7986H16.4853V78.5308L25.1678 77.6005L24.3319 69.7986ZM24.3319 46.6332V38.7867H16.4853V46.6332H24.3319ZM43.7672 41.3327L40.8716 34.0399L40.853 34.0473L40.8344 34.0548L43.7672 41.3327ZM63.5952 27.0016V19.155H59.5674L57.2196 22.4277L63.5952 27.0016ZM93.0427 27.0016H100.889V19.155H93.0427V27.0016ZM93.0427 147.153H60.4542V162.847H93.0427V147.153ZM68.3007 155V59.1975H52.6076V155H68.3007ZM56.5005 52.4198C48.3058 57.2 37.4196 60.5049 23.496 61.9967L25.1678 77.6005C40.5608 75.9513 53.7561 72.1887 64.4078 65.9752L56.5005 52.4198ZM32.1785 69.7986V46.6332H16.4853V69.7986H32.1785ZM24.3319 54.4798C30.1672 54.4798 37.8791 52.1652 46.7001 48.6105L40.8344 34.0548C32.1177 37.5675 26.8728 38.7867 24.3319 38.7867V54.4798ZM46.6629 48.6254C56.5561 44.6972 64.5537 39.1266 69.9709 31.5754L57.2196 22.4277C53.9988 26.9173 48.7778 30.9007 40.8716 34.0399L46.6629 48.6254ZM63.5952 34.8481H93.0427V19.155H63.5952V34.8481ZM85.1962 27.0016V155H100.889V27.0016H85.1962Z" fill="#07CD07"/>
</g>
<defs>
<filter id="filter0_d_121_72" x="16.1012" y="18.7709" width="85.1721" height="144.46" filterUnits="userSpaceOnUse" color-interpolation-filters="sRGB">
<feFlood flood-opacity="0" result="BackgroundImageFix"/>
<feColorMatrix in="SourceAlpha" type="matrix" values="0 0 0 0 0 0 0 0 0 0 0 0 0 0 0 0 0 0 127 0" result="hardAlpha"/>
<feOffset/>
<feGaussianBlur stdDeviation="4.11533"/>
<feComposite in2="hardAlpha" operator="out"/>
<feColorMatrix type="matrix" values="0 0 0 0 0.0784314 0 0 0 0 0.894118 0 0 0 0 0.0784314 0 0 0 0.8 0"/>
<feBlend mode="normal" in2="BackgroundImageFix" result="effect1_dropShadow_121_72"/>
<feBlend mode="normal" in="SourceGraphic" in2="effect1_dropShadow_121_72" result="shape"/>
</filter>
</defs>
</svg>
