<svg width="150" height="168" viewBox="0 0 150 168" fill="none" xmlns="http://www.w3.org/2000/svg">
<g filter="url(#filter0_d_301_82)">
<path d="M56.5647 100.228H48.7181V108.074H56.5647V100.228ZM56.5647 79.2218V71.3752H48.7181V79.2218H56.5647ZM94.8464 76.277L91.6922 69.0924L91.6857 69.0952L91.6792 69.0981L94.8464 76.277ZM47.1415 64.3017L46.8242 72.1419L53.7983 72.4241L54.8912 65.5303L47.1415 64.3017ZM13.1787 62.9275L5.43067 61.6878L4.03504 70.4105L12.8615 70.7677L13.1787 62.9275ZM19.4608 45.848L12.9592 41.455L12.918 41.5161L12.8779 41.5779L19.4608 45.848ZM30.4545 34.6579L34.7084 41.2514L34.7824 41.2036L34.8553 41.1542L30.4545 34.6579ZM44.7857 28.1795L42.6765 20.6217L42.6533 20.6282L42.63 20.6348L44.7857 28.1795ZM60.2947 25.2347L60.9463 33.0542L61.0539 33.0452L61.1612 33.0333L60.2947 25.2347ZM129.398 79.2218L134.662 85.0403L134.7 85.0062L134.737 84.9717L129.398 79.2218ZM106.036 88.645L105.026 80.8638L105.835 96.489L106.036 88.645ZM126.65 143.417L121.737 137.299L121.732 137.303L126.65 143.417ZM40.8593 152.644L38.0154 159.957L38.0597 159.974L38.1042 159.991L40.8593 152.644ZM20.0498 139.687L14.0219 144.711L14.1102 144.817L14.2022 144.919L20.0498 139.687ZM16.3198 134.583L9.71939 138.826L9.71939 138.826L16.3198 134.583ZM13.5713 129.675L6.32833 132.693L6.37638 132.808L6.42807 132.922L13.5713 129.675ZM10.2339 120.056L2.44796 121.029L2.52302 121.629L2.68927 122.211L10.2339 120.056ZM9.44867 116.326L1.70886 117.616L1.77413 118.007L1.87858 118.39L9.44867 116.326ZM9.05604 113.774L8.65072 105.937L1.20947 106.322V113.774H9.05604ZM43.2151 112.007L51.0403 111.427L50.4734 103.774L42.8098 104.171L43.2151 112.007ZM51.0678 127.908L46.3599 134.186L46.401 134.216L46.4425 134.247L51.0678 127.908ZM100.54 126.73L95.7655 120.503L95.7624 120.506L100.54 126.73ZM99.558 103.369L102.82 96.2325L102.82 96.2325L99.558 103.369ZM64.4112 100.228V79.2218H48.7181V100.228H64.4112ZM56.5647 87.0684H70.5031V71.3752H56.5647V87.0684ZM70.5031 87.0684C82.2464 87.0684 91.8893 86.1579 98.0136 83.456L91.6792 69.0981C88.9038 70.3225 82.3178 71.3752 70.5031 71.3752V87.0684ZM98.0006 83.4617C101.875 81.761 105.211 79.1657 107.52 75.5062C109.812 71.8726 110.742 67.7421 110.742 63.5165H95.0488C95.0488 65.4421 94.6375 66.514 94.2465 67.1339C93.8718 67.7279 93.1842 68.4373 91.6922 69.0924L98.0006 83.4617ZM110.742 63.5165C110.742 55.6118 107.04 49.1929 100.195 45.2379C94.0027 41.66 85.7254 40.3572 76.3926 40.3572V56.0503C84.7284 56.0503 89.7024 57.2996 92.3442 58.826C94.3332 59.9752 95.0488 61.2127 95.0488 63.5165H110.742ZM76.3926 40.3572C66.8826 40.3572 58.4766 41.7606 51.9471 45.3539C45.009 49.1722 40.6325 55.2466 39.3917 63.0731L54.8912 65.5303C55.3519 62.6249 56.7012 60.6503 59.5135 59.1026C62.7344 57.33 68.1033 56.0503 76.3926 56.0503V40.3572ZM47.4587 56.4616L13.4959 55.0874L12.8615 70.7677L46.8242 72.1419L47.4587 56.4616ZM20.9267 64.1672C21.8264 58.5443 23.58 53.9163 26.0438 50.118L12.8779 41.5779C9.05949 47.4646 6.62505 54.2229 5.43067 61.6878L20.9267 64.1672ZM25.9624 50.2409C28.7633 46.0956 31.7077 43.1873 34.7084 41.2514L26.2007 28.0645C21.087 31.3636 16.7023 35.9153 12.9592 41.455L25.9624 50.2409ZM34.8553 41.1542C38.1207 38.9422 42.1135 37.1035 46.9413 35.7241L42.63 20.6348C36.4641 22.3965 30.9028 24.8768 26.0538 28.1616L34.8553 41.1542ZM46.8948 35.7373C52.1526 34.27 56.8269 33.3975 60.9463 33.0542L59.6431 17.4153C54.3393 17.8572 48.6742 18.9479 42.6765 20.6217L46.8948 35.7373ZM61.1612 33.0333C65.5318 32.5477 70.4719 32.296 76 32.296V16.6029C70.0109 16.6029 64.4807 16.8748 59.4282 17.4361L61.1612 33.0333ZM76 32.296C96.072 32.296 109.87 35.1534 118.396 39.9321C122.54 42.2549 125.295 44.9494 127.047 47.8955C128.793 50.8326 129.797 54.4445 129.797 59.0012H145.49C145.49 52.0406 143.925 45.5749 140.535 39.8741C137.15 34.1822 132.199 29.6785 126.069 26.2427C114.047 19.5042 97.0236 16.6029 76 16.6029V32.296ZM129.797 59.0012C129.797 65.4772 127.762 70.0337 124.059 73.4719L134.737 84.9717C142.028 78.2014 145.49 69.2775 145.49 59.0012H129.797ZM124.134 73.4033C120.188 76.9732 114.092 79.6864 105.026 80.8638L107.047 96.4262C118.136 94.986 127.614 91.4171 134.662 85.0403L124.134 73.4033ZM105.835 96.489C114.852 96.7202 121.45 98.9458 126.24 102.563L135.697 90.0394C127.662 83.9719 117.638 81.0933 106.238 80.801L105.835 96.489ZM126.24 102.563C130.525 105.799 132.742 110.131 132.742 116.522H148.435C148.435 105.637 144.238 96.4891 135.697 90.0394L126.24 102.563ZM132.742 116.522C132.742 124.266 129.464 131.096 121.737 137.299L131.562 149.536C142.42 140.819 148.435 129.719 148.435 116.522H132.742ZM121.732 137.303C111.611 145.444 96.2313 150.098 74.4295 150.098V165.791C98.173 165.791 117.607 160.761 131.568 149.531L121.732 137.303ZM74.4295 150.098C62.156 150.098 51.9441 148.421 43.6144 145.297L38.1042 159.991C48.621 163.935 60.7891 165.791 74.4295 165.791V150.098ZM43.7033 145.331C34.8898 141.904 29.2084 138.156 25.8974 134.455L14.2022 144.919C19.7909 151.166 27.9824 156.056 38.0154 159.957L43.7033 145.331ZM26.0777 134.664C24.9885 133.357 23.9347 131.918 22.9201 130.34L9.71939 138.826C11.0606 140.912 12.4935 142.876 14.0219 144.711L26.0777 134.664ZM22.9201 130.34C21.8765 128.717 21.1663 127.422 20.7146 126.428L6.42807 132.922C7.28512 134.808 8.40717 136.785 9.71939 138.826L22.9201 130.34ZM20.8143 126.657C20.2471 125.296 19.6584 123.712 19.0521 121.893L4.16424 126.856C4.86667 128.963 5.58681 130.913 6.32833 132.693L20.8143 126.657ZM19.0521 121.893C18.4021 119.944 17.9903 118.641 17.7786 117.9L2.68927 122.211C3.00107 123.303 3.50539 124.879 4.16424 126.856L19.0521 121.893ZM18.0199 119.082C17.8285 117.551 17.4725 115.925 17.0188 114.261L1.87858 118.39C2.21006 119.606 2.37764 120.466 2.44796 121.029L18.0199 119.082ZM17.1885 115.036C17.0593 114.261 16.9675 113.693 16.9095 113.317C16.8799 113.124 16.8645 113.016 16.8583 112.97C16.8549 112.944 16.8591 112.973 16.8656 113.035C16.8689 113.066 16.8759 113.135 16.8827 113.227C16.8877 113.294 16.9026 113.502 16.9026 113.774H1.20947C1.20947 114.243 1.25431 114.636 1.25872 114.678C1.27342 114.817 1.28991 114.947 1.30284 115.044C1.32939 115.243 1.36305 115.47 1.39887 115.703C1.4718 116.177 1.57629 116.82 1.70886 117.616L17.1885 115.036ZM9.46135 121.61L43.6204 119.843L42.8098 104.171L8.65072 105.937L9.46135 121.61ZM35.39 112.586C36.0437 121.412 39.4676 129.016 46.3599 134.186L55.7757 121.631C53.2448 119.733 51.4336 116.737 51.0403 111.427L35.39 112.586ZM46.4425 134.247C53.3183 139.264 63.0987 141.055 74.2332 141.055V125.362C64.1654 125.362 58.5023 123.62 55.6931 121.57L46.4425 134.247ZM74.2332 141.055C86.8037 141.055 97.6623 138.83 105.317 132.955L95.7624 120.506C92.1614 123.269 85.4824 125.362 74.2332 125.362V141.055ZM105.314 132.957C111.128 128.5 114.276 122.296 114.276 114.951H98.5825C98.5825 117.292 97.8042 118.94 95.7655 120.503L105.314 132.957ZM114.276 114.951C114.276 111.082 113.485 107.245 111.46 103.832C109.401 100.361 106.38 97.8599 102.82 96.2325L96.2957 110.505C97.3164 110.972 97.7311 111.448 97.9628 111.838C98.228 112.285 98.5825 113.193 98.5825 114.951H114.276ZM102.82 96.2325C96.6121 93.3944 87.7032 92.3811 77.1779 92.3811V108.074C87.3312 108.074 93.3425 109.155 96.2957 110.505L102.82 96.2325ZM77.1779 92.3811H56.5647V108.074H77.1779V92.3811Z" fill="#07CD07"/>
</g>
<defs>
<filter id="filter0_d_301_82" x="0.825366" y="16.2188" width="147.993" height="149.957" filterUnits="userSpaceOnUse" color-interpolation-filters="sRGB">
<feFlood flood-opacity="0" result="BackgroundImageFix"/>
<feColorMatrix in="SourceAlpha" type="matrix" values="0 0 0 0 0 0 0 0 0 0 0 0 0 0 0 0 0 0 127 0" result="hardAlpha"/>
<feOffset/>
<feGaussianBlur stdDeviation="4.11533"/>
<feComposite in2="hardAlpha" operator="out"/>
<feColorMatrix type="matrix" values="0 0 0 0 0.0784314 0 0 0 0 0.894118 0 0 0 0 0.0784314 0 0 0 0.8 0"/>
<feBlend mode="normal" in2="BackgroundImageFix" result="effect1_dropShadow_301_82"/>
<feBlend mode="normal" in="SourceGraphic" in2="effect1_dropShadow_301_82" result="shape"/>
</filter>
</defs>
</svg>
