<svg width="230" height="56" viewBox="0 0 230 56" fill="none" xmlns="http://www.w3.org/2000/svg">
<path fill-rule="evenodd" clip-rule="evenodd" d="M0.110101 0.465636C0.208677 0.727072 5.1593 7.5863 11.1118 15.7082C17.0642 23.83 21.9975 30.7205 22.0743 31.0203C22.1701 31.3937 21.3594 32.4679 19.5062 34.4236C14.9359 39.247 0 55.6309 0 55.8209C0 55.9196 0.923275 56 2.05159 56H4.10318L14.1082 45.0395C19.6108 39.0113 24.2193 34.0687 24.3491 34.056C24.4786 34.0437 28.1972 38.9757 32.6122 45.0166L40.6396 56H48.8487C55.3368 56 57.0098 55.9189 56.8281 55.6133C56.7014 55.4007 52.1541 49.1702 46.7231 41.768C41.2917 34.3657 36.1233 27.3051 35.2373 26.0777L33.6268 23.8461L44.2629 12.23C50.1129 5.84133 54.8991 0.475846 54.8991 0.306917C54.8991 0.135823 54.0362 0 52.9473 0H50.9955L41.4973 10.3721C36.2734 16.077 31.8187 20.7061 31.5982 20.6594C31.3777 20.6126 27.8226 15.9801 23.6976 10.3646L16.198 0.154696L8.06471 0.0720889C0.849874 -0.000927649 -0.0485299 0.0436246 0.110101 0.465636ZM32.6119 27.8694C42.3712 41.1557 50.2782 52.1546 50.1832 52.3114C50.088 52.4683 48.3361 52.5967 46.2896 52.5967C42.8192 52.5967 42.5271 52.55 41.9429 51.9006C41.1422 51.0107 6.67282 4.06325 6.67282 3.86276C6.67282 3.78015 8.51664 3.71271 10.7702 3.71271H14.8676L32.6119 27.8694Z" fill="white"/>
<path d="M75.2969 18.4664H63.4591V14.4419H92.6966V18.4664H80.7836V41.0191H75.2969V18.4664Z" fill="white"/>
<path d="M102.505 27.5027H111.299C115.758 27.5027 117.988 25.8954 117.988 22.6808C117.988 19.5928 115.758 18.0488 111.299 18.0488H101.189V41.0191H95.7027V14.4419H111.299C115.357 14.4419 118.439 15.138 120.543 16.5301C122.673 17.9222 123.738 19.9345 123.738 22.5669C123.738 25.0981 122.786 27.0471 120.882 28.4139C118.977 29.7807 116.184 30.5401 112.501 30.692L124.564 41.0191H118.251L102.505 27.5027Z" fill="white"/>
<path d="M138.266 14.4419H149.164L162.73 41.0191H156.567L153.486 34.7545H133.981L130.9 41.0191H124.737L138.266 14.4419ZM151.644 30.9577L143.79 14.9355H143.677L135.823 30.9577H151.644Z" fill="white"/>
<path d="M181.069 14.4419C184.576 14.4419 187.658 14.9988 190.313 16.1125C192.969 17.2009 195.023 18.7449 196.477 20.7445C197.93 22.7441 198.656 25.0728 198.656 27.7305C198.656 30.3882 197.93 32.7169 196.477 34.7165C195.023 36.7161 192.969 38.2728 190.313 39.3865C187.658 40.4749 184.576 41.0191 181.069 41.0191H165.323V14.4419H181.069ZM180.956 36.9946C183.286 36.9946 185.353 36.6022 187.157 35.8176C188.986 35.0329 190.401 33.9445 191.403 32.5524C192.405 31.1349 192.906 29.5276 192.906 27.7305C192.906 25.9334 192.405 24.3387 191.403 22.9466C190.401 21.5292 188.986 20.4281 187.157 19.6434C185.353 18.8588 183.286 18.4664 180.956 18.4664H170.772V36.9946H180.956Z" fill="white"/>
<path d="M229.399 14.4419V18.4664H208.241V25.946H225.49V29.1733H208.241V36.9946H230V41.0191H202.792V14.4419H229.399Z" fill="white"/>
</svg>
