<svg width="149" height="149" viewBox="0 0 149 149" fill="none" xmlns="http://www.w3.org/2000/svg">
<g opacity="0.9" clip-path="url(#clip0_307_55)">
<g filter="url(#filter0_d_307_55)">
<path d="M124.55 149V98.2351C124.549 91.6613 123.252 85.1521 120.735 79.0794C118.217 73.0067 114.528 67.4894 109.878 62.8426L95.9357 48.9001V95.9972C95.9357 102.361 88.2352 105.557 83.7307 101.052L74.4714 91.8001C70.8964 88.2251 62.3093 86.0801 56.5821 91.8001C50.8621 97.5202 53.0071 106.1 56.5821 109.675L95.9357 149" stroke="#07CD07" stroke-width="7" stroke-linecap="round" stroke-linejoin="round"/>
<path d="M67.35 6H81.65C85.4426 6 89.0799 7.5066 91.7616 10.1884C94.4434 12.8701 95.95 16.5074 95.95 20.3V34.6M67.35 6C67.35 15.531 73.07 34.6 95.95 34.6M67.35 6H53.05M95.95 34.6V77.5M53.05 6H38.75C34.9574 6 31.3202 7.5066 28.6384 10.1884C25.9566 12.8701 24.45 16.5074 24.45 20.3V34.6M53.05 6C53.05 15.531 47.33 34.6 24.45 34.6M24.45 77.5V91.8C24.45 95.5926 25.9566 99.2299 28.6384 101.912C31.3202 104.593 34.9574 106.1 38.75 106.1H53.05C53.05 96.5691 47.33 77.5 24.45 77.5ZM24.45 77.5V34.6" stroke="#07CD07" stroke-width="7" stroke-linecap="round" stroke-linejoin="round"/>
<path d="M53.05 56.0501C53.05 59.999 56.2512 63.2001 60.2 63.2001C64.1489 63.2001 67.35 59.999 67.35 56.0501C67.35 52.1013 64.1489 48.9001 60.2 48.9001C56.2512 48.9001 53.05 52.1013 53.05 56.0501Z" stroke="#07CD07" stroke-width="7" stroke-linecap="round" stroke-linejoin="round"/>
</g>
</g>
<defs>
<filter id="filter0_d_307_55" x="11.95" y="-6.5" width="125.1" height="168" filterUnits="userSpaceOnUse" color-interpolation-filters="sRGB">
<feFlood flood-opacity="0" result="BackgroundImageFix"/>
<feColorMatrix in="SourceAlpha" type="matrix" values="0 0 0 0 0 0 0 0 0 0 0 0 0 0 0 0 0 0 127 0" result="hardAlpha"/>
<feOffset/>
<feGaussianBlur stdDeviation="4.5"/>
<feComposite in2="hardAlpha" operator="out"/>
<feColorMatrix type="matrix" values="0 0 0 0 0.0784314 0 0 0 0 0.894118 0 0 0 0 0.0784314 0 0 0 0.8 0"/>
<feBlend mode="normal" in2="BackgroundImageFix" result="effect1_dropShadow_307_55"/>
<feBlend mode="normal" in="SourceGraphic" in2="effect1_dropShadow_307_55" result="shape"/>
</filter>
<clipPath id="clip0_307_55">
<rect width="149" height="149" fill="white"/>
</clipPath>
</defs>
</svg>
