<svg width="149" height="149" viewBox="0 0 149 149" fill="none" xmlns="http://www.w3.org/2000/svg">
<g opacity="0.9" clip-path="url(#clip0_121_125)">
<g filter="url(#filter0_d_121_125)">
<path d="M64.3409 91.8C64.3409 94.316 63.6636 96.56 62.4445 98.6C60.1418 94.588 55.8073 91.8 50.7955 91.8C45.7836 91.8 41.4491 94.588 39.1464 98.6C37.995 96.56 37.25 94.316 37.25 91.8C37.25 84.32 43.3455 78.2 50.7955 78.2C58.2455 78.2 64.3409 84.32 64.3409 91.8ZM149 88.4V108.8C149 112.54 145.952 115.6 142.227 115.6H135.455V122.4C135.455 129.948 129.427 136 121.909 136H27.0909C23.4984 136 20.0531 134.567 17.5128 132.017C14.9726 129.466 13.5455 126.007 13.5455 122.4V115.6H6.77273C3.04773 115.6 0 112.54 0 108.8V88.4C0 84.66 3.04773 81.6 6.77273 81.6H13.5455C13.5455 55.284 34.7441 34 60.9545 34H67.7273V25.364C63.6636 23.052 60.9545 18.632 60.9545 13.6C60.9545 6.12 67.05 0 74.5 0C81.95 0 88.0454 6.12 88.0454 13.6C88.0454 18.632 85.3364 23.052 81.2727 25.364V34H88.0454C114.256 34 135.455 55.284 135.455 81.6H142.227C145.952 81.6 149 84.66 149 88.4ZM139.818 95.2H126.273V81.6C126.273 62.832 106.738 44.3141 88.0454 44.3141H60.9545C42.2618 44.3141 22.7273 62.832 22.7273 81.6V95.2H9.18182V102H22.7273V125.686H126.273V102H139.818V95.2ZM98.2045 78.2C90.7545 78.2 84.6591 84.32 84.6591 91.8C84.6591 94.316 85.4041 96.56 86.5555 98.6C88.8582 94.588 93.1927 91.8 98.2045 91.8C103.216 91.8 107.551 94.588 109.854 98.6C111.073 96.56 111.75 94.316 111.75 91.8C111.75 88.1931 110.323 84.7338 107.783 82.1833C105.242 79.6329 101.797 78.2 98.2045 78.2Z" fill="#07CD07"/>
</g>
</g>
<defs>
<filter id="filter0_d_121_125" x="-9" y="-9" width="167" height="154" filterUnits="userSpaceOnUse" color-interpolation-filters="sRGB">
<feFlood flood-opacity="0" result="BackgroundImageFix"/>
<feColorMatrix in="SourceAlpha" type="matrix" values="0 0 0 0 0 0 0 0 0 0 0 0 0 0 0 0 0 0 127 0" result="hardAlpha"/>
<feOffset/>
<feGaussianBlur stdDeviation="4.5"/>
<feComposite in2="hardAlpha" operator="out"/>
<feColorMatrix type="matrix" values="0 0 0 0 0.0784314 0 0 0 0 0.894118 0 0 0 0 0.0784314 0 0 0 0.8 0"/>
<feBlend mode="normal" in2="BackgroundImageFix" result="effect1_dropShadow_121_125"/>
<feBlend mode="normal" in="SourceGraphic" in2="effect1_dropShadow_121_125" result="shape"/>
</filter>
<clipPath id="clip0_121_125">
<rect width="149" height="149" fill="white"/>
</clipPath>
</defs>
</svg>
