<svg width="140" height="45" viewBox="0 0 140 45" fill="none" xmlns="http://www.w3.org/2000/svg">
<path d="M18.0508 35.09C18.0508 37.1918 17.6524 38.98 16.8556 40.4544C16.065 41.9288 14.9859 43.0551 13.6181 43.8331C12.2566 44.6048 10.7257 44.9906 9.02541 44.9906C7.31256 44.9906 5.77538 44.6016 4.41388 43.8236C3.05239 43.0456 1.97637 41.9194 1.18582 40.445C0.395273 38.9706 0 37.1856 0 35.09C0 32.9881 0.395273 31.2 1.18582 29.7256C1.97637 28.2511 3.05239 27.1281 4.41388 26.3563C5.77538 25.5783 7.31256 25.1893 9.02541 25.1893C10.7257 25.1893 12.2566 25.5783 13.6181 26.3563C14.9859 27.1281 16.065 28.2511 16.8556 29.7256C17.6524 31.2 18.0508 32.9881 18.0508 35.09ZM13.9193 35.09C13.9193 33.7285 13.7154 32.5803 13.3075 31.6455C12.906 30.7106 12.3382 30.0016 11.6041 29.5185C10.87 29.0354 10.0105 28.7938 9.02541 28.7938C8.04036 28.7938 7.1808 29.0354 6.44672 29.5185C5.71264 30.0016 5.14169 30.7106 4.73387 31.6455C4.33232 32.5803 4.13155 33.7285 4.13155 35.09C4.13155 36.4515 4.33232 37.5997 4.73387 38.5345C5.14169 39.4694 5.71264 40.1783 6.44672 40.6615C7.1808 41.1446 8.04036 41.3861 9.02541 41.3861C10.0105 41.3861 10.87 41.1446 11.6041 40.6615C12.3382 40.1783 12.906 39.4694 13.3075 38.5345C13.7154 37.5997 13.9193 36.4515 13.9193 35.09Z" fill="#BA3A11"/>
<path d="M21.0695 44.7271V25.4528H33.8312V28.8127H25.1446V33.4054H32.9841V36.7652H25.1446V44.7271H21.0695Z" fill="#BA3A11"/>
<path d="M42.706 44.7271V25.4528H50.3103C51.7659 25.4528 53.0082 25.7132 54.0372 26.234C55.0724 26.7485 55.8598 27.4794 56.3994 28.4268C56.9452 29.3679 57.2182 30.4753 57.2182 31.749C57.2182 33.0289 56.9421 34.13 56.39 35.0523C55.8378 35.9684 55.0379 36.6711 53.9901 37.1605C52.9486 37.6499 51.6875 37.8945 50.2068 37.8945H45.1153V34.6194H49.548C50.326 34.6194 50.9722 34.5128 51.4867 34.2994C52.0012 34.0861 52.3839 33.7661 52.6349 33.3395C52.8921 32.9128 53.0207 32.3827 53.0207 31.749C53.0207 31.109 52.8921 30.5694 52.6349 30.1302C52.3839 29.6911 51.998 29.3585 51.4773 29.1327C50.9628 28.9005 50.3134 28.7844 49.5292 28.7844H46.7811V44.7271H42.706ZM53.1148 35.9558L57.9052 44.7271H53.4066L48.7198 35.9558H53.1148Z" fill="#BA3A11"/>
<path d="M72.0033 25.4528H76.0783V37.9698C76.0783 39.3753 75.7427 40.605 75.0713 41.6591C74.4063 42.7131 73.4746 43.535 72.2762 44.1248C71.0778 44.7083 69.6818 45.0001 68.0882 45.0001C66.4883 45.0001 65.0891 44.7083 63.8907 44.1248C62.6924 43.535 61.7607 42.7131 61.0956 41.6591C60.4305 40.605 60.098 39.3753 60.098 37.9698V25.4528H64.1731V37.6216C64.1731 38.3557 64.3331 39.0082 64.6531 39.5792C64.9793 40.1501 65.4373 40.5987 66.0271 40.925C66.6169 41.2512 67.3039 41.4144 68.0882 41.4144C68.8787 41.4144 69.5657 41.2512 70.1492 40.925C70.739 40.5987 71.1939 40.1501 71.5139 39.5792C71.8401 39.0082 72.0033 38.3557 72.0033 37.6216V25.4528Z" fill="#BA3A11"/>
<path d="M89.887 30.9961C89.8117 30.2369 89.4886 29.6471 88.9177 29.2268C88.3467 28.8064 87.5718 28.5962 86.5931 28.5962C85.928 28.5962 85.3665 28.6903 84.9085 28.8785C84.4504 29.0605 84.0991 29.3146 83.8544 29.6409C83.616 29.9671 83.4968 30.3373 83.4968 30.7514C83.4842 31.0965 83.5564 31.3976 83.7132 31.6549C83.8764 31.9121 84.0991 32.1348 84.3814 32.3231C84.6638 32.505 84.99 32.665 85.3602 32.803C85.7304 32.9348 86.1256 33.0477 86.546 33.1419L88.2777 33.5559C89.1184 33.7442 89.8902 33.9951 90.5929 34.3089C91.2956 34.6226 91.9042 35.0084 92.4187 35.4664C92.9331 35.9245 93.3315 36.464 93.6139 37.0852C93.9025 37.7063 94.0499 38.4184 94.0562 39.2215C94.0499 40.4011 93.7488 41.4238 93.1527 42.2896C92.563 43.1492 91.7097 43.8174 90.5929 44.2942C89.4823 44.7648 88.1428 45.0001 86.5742 45.0001C85.0183 45.0001 83.663 44.7616 82.5086 44.2848C81.3604 43.808 80.4632 43.1021 79.817 42.1673C79.177 41.2261 78.8413 40.0623 78.81 38.6757H82.7533C82.7972 39.3219 82.9823 39.8615 83.3085 40.2944C83.6411 40.7211 84.0834 41.0442 84.6355 41.2638C85.1939 41.4771 85.8245 41.5838 86.5272 41.5838C87.2174 41.5838 87.8165 41.4834 88.3248 41.2826C88.8392 41.0818 89.2376 40.8026 89.52 40.445C89.8023 40.0874 89.9435 39.6764 89.9435 39.2121C89.9435 38.7792 89.8149 38.4153 89.5576 38.1204C89.3067 37.8255 88.9365 37.5746 88.4471 37.3675C87.964 37.1605 87.3711 36.9722 86.6684 36.8028L84.5697 36.2758C82.9446 35.8805 81.6616 35.2625 80.7204 34.4218C79.7793 33.581 79.3119 32.4486 79.3182 31.0243C79.3119 29.8573 79.6225 28.8378 80.2499 27.9657C80.8836 27.0935 81.7525 26.4128 82.8568 25.9234C83.9611 25.434 85.2159 25.1893 86.6213 25.1893C88.0518 25.1893 89.3004 25.434 90.367 25.9234C91.4399 26.4128 92.2743 27.0935 92.8704 27.9657C93.4664 28.8378 93.7739 29.8479 93.7927 30.9961H89.887Z" fill="#BA3A11"/>
<path d="M107.253 30.9961C107.178 30.2369 106.855 29.6471 106.284 29.2268C105.713 28.8064 104.938 28.5962 103.959 28.5962C103.294 28.5962 102.733 28.6903 102.275 28.8785C101.817 29.0605 101.465 29.3146 101.221 29.6409C100.982 29.9671 100.863 30.3373 100.863 30.7514C100.85 31.0965 100.923 31.3976 101.079 31.6549C101.243 31.9121 101.465 32.1348 101.748 32.3231C102.03 32.505 102.356 32.665 102.726 32.803C103.097 32.9348 103.492 33.0477 103.912 33.1419L105.644 33.5559C106.485 33.7442 107.256 33.9951 107.959 34.3089C108.662 34.6226 109.27 35.0084 109.785 35.4664C110.299 35.9245 110.698 36.464 110.98 37.0852C111.269 37.7063 111.416 38.4184 111.422 39.2215C111.416 40.4011 111.115 41.4238 110.519 42.2896C109.929 43.1492 109.076 43.8174 107.959 44.2942C106.848 44.7648 105.509 45.0001 103.94 45.0001C102.384 45.0001 101.029 44.7616 99.8747 44.2848C98.7266 43.808 97.8293 43.1021 97.1831 42.1673C96.5431 41.2261 96.2075 40.0623 96.1761 38.6757H100.119C100.163 39.3219 100.348 39.8615 100.675 40.2944C101.007 40.7211 101.45 41.0442 102.002 41.2638C102.56 41.4771 103.191 41.5838 103.893 41.5838C104.583 41.5838 105.183 41.4834 105.691 41.2826C106.205 41.0818 106.604 40.8026 106.886 40.445C107.168 40.0874 107.31 39.6764 107.31 39.2121C107.31 38.7792 107.181 38.4153 106.924 38.1204C106.673 37.8255 106.303 37.5746 105.813 37.3675C105.33 37.1605 104.737 36.9722 104.035 36.8028L101.936 36.2758C100.311 35.8805 99.0277 35.2625 98.0866 34.4218C97.1455 33.581 96.678 32.4486 96.6843 31.0243C96.678 29.8573 96.9886 28.8378 97.616 27.9657C98.2497 27.0935 99.1187 26.4128 100.223 25.9234C101.327 25.434 102.582 25.1893 103.987 25.1893C105.418 25.1893 106.667 25.434 107.733 25.9234C108.806 26.4128 109.64 27.0935 110.237 27.9657C110.833 28.8378 111.14 29.8479 111.159 30.9961H107.253Z" fill="#BA3A11"/>
<path d="M118.238 25.4528V44.7271H114.163V25.4528H118.238Z" fill="#BA3A11"/>
<path d="M124.913 44.7271H120.547L127.2 25.4528H132.452L139.096 44.7271H134.729L129.901 29.8573H129.751L124.913 44.7271ZM124.64 37.1511H134.955V40.3321H124.64V37.1511Z" fill="#BA3A11"/>
<path d="M2.48459 18.3167V0.247046H9.7195C11.0488 0.247046 12.1576 0.444094 13.0458 0.838192C13.934 1.23229 14.6016 1.77932 15.0486 2.47928C15.4957 3.17336 15.7192 3.97332 15.7192 4.87916C15.7192 5.585 15.578 6.20556 15.2957 6.74082C15.0133 7.27021 14.6251 7.70548 14.131 8.04664C13.6428 8.38191 13.084 8.62013 12.4547 8.7613V8.93776C13.1429 8.96717 13.7869 9.16128 14.3869 9.52009C14.9928 9.87889 15.4839 10.3818 15.8604 11.0288C16.2368 11.67 16.425 12.4346 16.425 13.3228C16.425 14.2816 16.1868 15.1374 15.7104 15.8903C15.2398 16.6374 14.5428 17.2285 13.6193 17.6638C12.6958 18.099 11.5576 18.3167 10.2048 18.3167H2.48459ZM6.30498 15.1933H9.41952C10.4842 15.1933 11.2606 14.9904 11.7488 14.5845C12.237 14.1728 12.4811 13.6258 12.4811 12.9434C12.4811 12.4435 12.3605 12.0023 12.1194 11.62C11.8782 11.2376 11.5341 10.9377 11.0871 10.72C10.6459 10.5024 10.1195 10.3936 9.50775 10.3936H6.30498V15.1933ZM6.30498 7.80841H9.13718C9.66068 7.80841 10.1254 7.71724 10.5312 7.5349C10.943 7.34667 11.2665 7.08198 11.5018 6.74082C11.7429 6.39966 11.8635 5.99086 11.8635 5.51442C11.8635 4.86151 11.6312 4.33507 11.1665 3.93509C10.7077 3.53511 10.0548 3.33512 9.20776 3.33512H6.30498V7.80841Z" fill="#BA3A11"/>
<path d="M18.9109 18.3167V0.247046H22.7313V15.1668H30.478V18.3167H18.9109Z" fill="#BA3A11"/>
<path d="M48.9093 9.28186C48.9093 11.2523 48.5358 12.9287 47.7888 14.311C47.0477 15.6933 46.036 16.7491 44.7537 17.4785C43.4773 18.202 42.0421 18.5637 40.448 18.5637C38.8422 18.5637 37.4011 18.199 36.1247 17.4697C34.8483 16.7403 33.8396 15.6845 33.0984 14.3022C32.3573 12.9199 31.9867 11.2465 31.9867 9.28186C31.9867 7.31138 32.3573 5.635 33.0984 4.25272C33.8396 2.87044 34.8483 1.81755 36.1247 1.09406C37.4011 0.364687 38.8422 0 40.448 0C42.0421 0 43.4773 0.364687 44.7537 1.09406C46.036 1.81755 47.0477 2.87044 47.7888 4.25272C48.5358 5.635 48.9093 7.31138 48.9093 9.28186ZM45.036 9.28186C45.036 8.00546 44.8449 6.92905 44.4625 6.05262C44.0861 5.1762 43.5537 4.51153 42.8656 4.05861C42.1773 3.60569 41.3715 3.37923 40.448 3.37923C39.5245 3.37923 38.7187 3.60569 38.0305 4.05861C37.3423 4.51153 36.807 5.1762 36.4247 6.05262C36.0483 6.92905 35.86 8.00546 35.86 9.28186C35.86 10.5583 36.0483 11.6347 36.4247 12.5111C36.807 13.3875 37.3423 14.0522 38.0305 14.5051C38.7187 14.958 39.5245 15.1845 40.448 15.1845C41.3715 15.1845 42.1773 14.958 42.8656 14.5051C43.5537 14.0522 44.0861 13.3875 44.4625 12.5111C44.8449 11.6347 45.036 10.5583 45.036 9.28186Z" fill="#BA3A11"/>
<path d="M67.6826 6.57318H63.8181C63.7475 6.07321 63.6034 5.62912 63.3858 5.2409C63.1682 4.8468 62.8888 4.51153 62.5476 4.23507C62.2064 3.95861 61.8123 3.74686 61.3653 3.59981C60.9242 3.45276 60.4448 3.37923 59.9271 3.37923C58.9919 3.37923 58.1772 3.61157 57.4832 4.07626C56.7891 4.53506 56.2509 5.20561 55.8685 6.08791C55.4862 6.96434 55.295 8.02899 55.295 9.28186C55.295 10.57 55.4862 11.6523 55.8685 12.5288C56.2568 13.4052 56.7979 14.0669 57.492 14.5139C58.1861 14.961 58.989 15.1845 59.9007 15.1845C60.4124 15.1845 60.8859 15.1169 61.3212 14.9816C61.7623 14.8463 62.1535 14.6492 62.4947 14.3904C62.8358 14.1257 63.1182 13.8052 63.3417 13.4287C63.5711 13.0523 63.7299 12.6229 63.8181 12.1405L67.6826 12.1582C67.5826 12.9876 67.3326 13.7875 66.9327 14.5581C66.5386 15.3227 66.0062 16.008 65.3357 16.6138C64.671 17.2138 63.8769 17.6902 62.9535 18.0432C62.0359 18.3902 60.9977 18.5637 59.8389 18.5637C58.2272 18.5637 56.7861 18.199 55.5156 17.4697C54.251 16.7403 53.251 15.6845 52.5158 14.3022C51.7864 12.9199 51.4217 11.2465 51.4217 9.28186C51.4217 7.31138 51.7923 5.635 52.5334 4.25272C53.2746 2.87044 54.2804 1.81755 55.5509 1.09406C56.8214 0.364687 58.2508 0 59.8389 0C60.8859 0 61.8565 0.147051 62.7505 0.441153C63.6505 0.735256 64.4475 1.16464 65.1416 1.72932C65.8357 2.28811 66.4003 2.97337 66.8356 3.78509C67.2768 4.59682 67.5591 5.52618 67.6826 6.57318Z" fill="#BA3A11"/>
<path d="M70.4222 18.3167V0.247046H74.2426V8.21427H74.4808L80.9834 0.247046H85.5626L78.857 8.3378L85.642 18.3167H81.0716L76.1219 10.8877L74.2426 13.1817V18.3167H70.4222Z" fill="#BA3A11"/>
<path d="M90.6667 18.3167H86.5728L92.8107 0.247046H97.734L103.963 18.3167H99.8692L95.3429 4.37624H95.2018L90.6667 18.3167ZM90.4108 11.2141H100.081V14.1963H90.4108V11.2141Z" fill="#BA3A11"/>
<path d="M112.543 18.3167H106.138V0.247046H112.596C114.414 0.247046 115.979 0.608792 117.29 1.33228C118.602 2.04989 119.611 3.08219 120.317 4.42918C121.028 5.77617 121.384 7.38785 121.384 9.26422C121.384 11.1465 121.028 12.764 120.317 14.1169C119.611 15.4698 118.596 16.508 117.273 17.2314C115.955 17.9549 114.379 18.3167 112.543 18.3167ZM109.958 15.0433H112.385C113.514 15.0433 114.464 14.8433 115.235 14.4434C116.011 14.0375 116.593 13.4111 116.981 12.564C117.376 11.7111 117.573 10.6112 117.573 9.26422C117.573 7.92899 117.376 6.83787 116.981 5.99086C116.593 5.14385 116.014 4.52035 115.243 4.12037C114.473 3.72039 113.523 3.5204 112.394 3.5204H109.958V15.0433Z" fill="#BA3A11"/>
<path d="M124.214 18.3167V0.247046H136.39V3.39688H128.035V7.70254H135.764V10.8524H128.035V15.1668H136.425V18.3167H124.214Z" fill="#BA3A11"/>
</svg>
