<svg width="118" height="70" viewBox="0 0 118 70" fill="none" xmlns="http://www.w3.org/2000/svg">
<path fill-rule="evenodd" clip-rule="evenodd" d="M47.6262 18.947C48.1183 18.947 48.515 18.5471 48.515 18.0556C48.5182 17.9367 48.4976 17.8184 48.4543 17.7077C48.411 17.5969 48.3459 17.496 48.263 17.4108C48.1801 17.3256 48.0809 17.2579 47.9713 17.2117C47.8618 17.1654 47.7441 17.1416 47.6252 17.1416C47.5063 17.1416 47.3886 17.1654 47.2791 17.2117C47.1695 17.2579 47.0703 17.3256 46.9874 17.4108C46.9045 17.496 46.8394 17.5969 46.7961 17.7077C46.7528 17.8184 46.7322 17.9367 46.7354 18.0556C46.7354 18.5471 47.1314 18.947 47.6262 18.947ZM58.3857 37.2143C59.7076 37.2143 60.5971 37.036 61.3134 36.7718C62.0259 36.5069 62.5735 36.1879 62.9721 35.8612C63.3503 35.5518 63.5904 35.2379 63.9941 35.0316C64.35 34.8476 64.8511 34.8043 65.4134 34.8043C66.2207 34.8043 67.1294 35.0539 67.7935 35.4193L67.889 34.1834C67.4465 33.965 65.8865 33.4181 64.5315 33.4181C62.9919 33.4181 62.4099 33.8332 61.8413 34.3464C61.1797 34.9462 60.3437 35.6594 58.0833 35.6594C57.4809 35.6594 56.0355 35.4964 55.4485 35.4964C55.0919 35.4964 54.8181 35.5855 54.8181 35.5855C54.9257 35.9236 55.1562 36.8552 55.1562 36.8552C55.6974 36.9227 56.6417 37.2143 58.3857 37.2143ZM51.4364 33.5493C51.8942 33.5493 53.2256 33.7524 54.7633 33.9001C55.6369 33.9822 56.5717 34.0472 57.4542 34.0472C59.1816 34.0472 61.0734 33.2258 62.7461 32.3681L62.4188 31.178C61.6375 31.6059 60.1507 32.0816 58.9117 32.279C58.6067 32.3286 57.721 32.3407 57.4688 32.3006C57.0511 32.2357 56.55 32.0854 56.0113 31.9873C55.2549 31.8453 54.4284 31.8116 53.9388 31.79C53.3982 31.7658 52.4291 31.8574 51.9528 31.8886C50.203 31.9931 49.0467 32.405 47.9401 33.1519C47.381 33.5301 46.6672 34.1478 46.1165 34.8953C46.3998 34.9163 47.2078 35.1417 47.2078 35.1417C48.4011 34.1268 50.1941 33.5493 51.4364 33.5493Z" fill="#2463A9"/>
<path fill-rule="evenodd" clip-rule="evenodd" d="M30.3514 34.1238C31.2034 34.1238 31.5453 34.4001 32.0152 34.6828C32.3444 34.886 32.6029 35.1101 32.8487 35.3323C33.3746 35.8022 33.2244 36.2333 32.8118 36.5587C32.5997 36.7274 32.4183 36.9305 31.8834 37.2782C31.6255 37.4482 31.1798 37.7213 30.8755 37.85C30.34 38.0715 30.1069 38.0964 29.9127 38.0964C29.716 38.0964 29.4027 38.0658 29.227 37.8907L27.865 38.7236C28.2738 39.0426 28.7379 39.1508 29.5192 39.1508C30.4017 39.1508 31.106 38.9604 31.9757 38.6198C33.1034 38.1734 34.3711 37.2966 34.792 37.0566C35.6535 36.5644 36.5233 36.2448 37.4549 36.2448C38.2756 36.2448 39.2008 36.7306 40.2374 37.226C41.4612 37.813 42.9556 38.388 44.3297 38.388C45.1536 38.388 46.0763 38.2677 47.0422 38.0709C48.7575 37.7207 50.6022 37.1425 52.4073 36.5306L51.8209 35.4769C51.3809 35.6392 49.8737 36.0633 48.2533 36.4237C46.9097 36.7185 45.5471 36.9853 44.8403 36.9853C44.2628 36.9853 43.5828 36.9433 42.9741 36.7554C41.9407 36.4447 41.0123 36.1187 41.0123 35.2884C41.0123 34.714 41.2581 34.3078 41.9534 34.0283C43.0785 33.5762 44.8314 33.6042 45.7534 33.6042C45.926 33.4196 46.6238 32.5803 46.6238 32.5803C45.8849 32.4315 45.1331 32.3554 44.3794 32.353C43.2237 32.353 42.1559 32.5007 41.2708 32.8726C40.4501 33.2177 39.8044 33.7156 39.337 34.3887C39.1492 34.6561 38.9556 34.9108 38.6736 34.9108C38.2056 34.9108 37.3937 34.5294 36.5456 34.5294C36.1763 34.5294 35.863 34.6058 35.537 34.6058C34.6787 34.6058 33.5599 33.9818 32.5634 33.4501C31.9363 33.1152 31.2906 32.8013 30.5405 32.8013C30.2298 32.8013 29.8032 32.8783 29.4243 33.0382C28.6959 33.3425 27.9573 33.8347 27.5854 34.1448L28.2527 34.6032C28.6418 34.4001 29.3498 34.1238 30.3514 34.1238ZM90.5917 43.6952C87.3845 40.9903 84.2817 38.0308 82.0938 35.6112C78.3155 31.4393 73.1681 23.4782 71.4101 18.9733C70.7606 17.3159 69.4203 17.8788 70.1067 19.5642C71.7666 23.6355 75.5947 29.6221 79.5915 34.5574C78.6599 34.1448 77.5049 33.5908 76.8803 33.3151C76.6676 33.6628 76.1416 34.3511 75.6004 34.9165C74.9739 35.5685 74.3282 36.097 74.1283 36.2817C73.6883 36.6911 73.3661 36.7217 73.07 36.267C72.9357 36.0512 72.6498 35.6647 72.5014 34.9936L71.652 33.9181C71.1968 33.3463 69.0643 30.4288 68.411 29.4476C67.7597 28.4702 66.9147 27.4241 65.5457 27.4241C63.852 27.4241 63.2675 29.2999 63.1357 31.0121L64.2601 30.523C64.5225 29.4622 65.0427 28.9089 65.5464 28.9089C65.9055 28.9089 66.3461 29.4317 66.3461 29.822C66.1831 30.2805 65.887 31.2273 65.7431 31.9589L66.851 32.3346C66.851 31.7959 67.0771 30.8179 67.3884 30.311C67.3884 30.311 67.6953 30.5721 67.81 30.7847C67.8832 30.9223 68.4308 31.7589 69.065 32.872C69.631 33.8653 70.2601 35.0923 70.8383 36.0697C71.1178 36.5402 71.4387 36.9617 71.6526 37.2935C71.9385 37.7309 72.1952 38.0372 72.467 38.1919C72.7217 38.3326 72.9968 38.3364 73.2184 38.3364C73.9347 38.3364 74.2633 38.0989 74.7491 37.6851C75.6596 36.9 76.4441 35.8092 77.2553 34.8312L79.168 35.6946C79.9076 36.0464 80.654 36.3838 81.4068 36.7064C83.0375 38.558 84.863 40.3721 86.7783 42.097L88.0792 43.2437C88.4338 43.5507 88.7891 43.8518 89.1502 44.1505L90.5917 43.6952Z" fill="#2463A9"/>
<path fill-rule="evenodd" clip-rule="evenodd" d="M97.771 43.1393C94.495 35.9684 90.1785 27.1496 86.4861 21.7475L85.624 20.5358C84.3912 18.8733 83.0573 17.4948 81.7501 16.1576L80.7351 15.1586C78.1767 12.6798 75.3057 10.2016 73.1178 8.43593C71.1879 6.88102 69.8157 3.29492 65.3949 3.29492C61.4102 3.29492 60.0476 6.0036 59.6018 7.59098C59.3058 8.63268 59.1778 8.99243 58.9002 9.38339L56.3691 12.3971L59.3548 12.157L57.8419 14.6689C58.7091 14.4881 63.945 13.4362 65.0217 15.1274C66.329 17.1726 65.4369 19.3922 67.8807 24.0449L68.9377 25.8838C70.1538 27.8398 71.5941 29.7608 72.874 31.2769L71.6502 33.9181L72.4996 34.9935L74.4021 30.9815C73.4311 30.1142 70.5244 26.2059 69.3229 24.0321C66.5919 19.0879 67.6648 16.5448 65.9985 14.2786C64.455 12.1755 60.0406 13.1688 60.0406 13.1688L61.6687 10.8848L58.8505 11.2286L60.1539 9.66101C60.4315 9.25541 60.4958 9.00962 60.6092 8.61803C61.1625 6.61104 62.6136 4.62124 65.3688 4.62124C68.7142 4.62124 69.6705 7.1892 71.9959 9.23376C74.3499 11.3063 79.2859 15.291 83.8016 20.4441C87.4431 24.5982 92.1104 34.2562 95.6958 41.8792C91.7761 39.969 85.1375 33.4017 82.3569 28.4816L81.0446 28.3282C84.0302 33.992 90.4377 40.5866 96.7751 44.1772L97.771 43.1393Z" fill="#2463A9"/>
<path fill-rule="evenodd" clip-rule="evenodd" d="M88.6937 19.4665C89.7385 18.7158 90.9757 18.1039 92.2791 17.6092C93.0814 18.5808 94.9725 19.4321 96.4726 19.6321L96.2326 21.2195C94.5688 20.3796 91.6277 19.5245 88.6937 19.4665L87.3782 20.5974C91.359 20.6712 93.8932 21.4773 97.1743 22.8578L97.8257 18.6668C96.5249 18.4885 94.4739 18.1166 93.764 17.1081C96.7649 16.1943 99.8792 15.8499 101.718 15.8753V10.712C100.897 11.1921 99.8639 11.641 98.8891 11.9429C97.6965 12.3083 96.6121 12.4688 96.3135 11.9429C95.9836 11.3647 97.629 10.3345 99.3246 9.43348L95.508 6.26318C94.9298 7.04127 93.6163 9.21827 92.2772 10.6567C91.3259 11.678 90.346 12.3478 89.7863 11.9301C89.4927 11.7085 89.4813 11.0693 89.7239 10.2638C90.1881 8.71652 91.4087 6.56754 92.1524 5.62071L86.877 5.12215C86.877 7.27813 85.8646 9.65188 84.6185 11.5704C83.5437 13.2214 81.9844 14.4217 80.7357 15.159L81.7507 16.1581C83.2941 15.0852 84.7975 13.7722 85.9601 11.9021C86.8955 10.3988 87.7647 8.58153 88.0907 6.45356L89.9175 6.6656C89.1578 8.05814 88.2995 10.2205 88.2346 11.6347C88.2804 12.5968 88.4657 12.7687 88.9611 13.1348C89.8773 13.8206 91.012 13.3596 92.0938 12.4338C93.2864 11.4156 94.4593 9.70919 95.6494 8.16511L97.1915 9.45131C95.2367 10.656 94.6834 11.9448 95.28 12.7993C95.5125 13.131 96.0148 13.3806 96.6382 13.3991C97.2565 13.4144 97.9887 13.2322 98.7885 13.0419C99.3507 12.9062 99.9601 12.7101 100.522 12.5376V14.5917C96.0798 14.9088 88.4975 16.7069 85.6252 20.535L86.4874 21.7467C86.7363 21.3379 87.0369 20.9559 87.3788 20.5961L88.6937 19.4665ZM30.6011 9.37491L31.1977 9.82317C32.7602 8.55033 34.5864 6.23516 35.6166 4.05498L35.0843 3.67676C34.0878 4.59047 31.7109 7.56912 30.6011 9.37491Z" fill="#2463A9"/>
<path fill-rule="evenodd" clip-rule="evenodd" d="M29.6848 7.98131C28.8087 4.88869 31.0557 3.03706 33.4021 3.20898C34.282 1.51463 35.6618 1.17652 37.1289 2.05585C38.4941 2.87724 38.3801 4.96446 37.2422 5.94248C37.6485 7.80239 35.9974 10.4531 33.4333 10.3213C33.7376 12.8886 30.5883 14.3493 28.6794 12.6728C27.0927 11.2809 27.4244 8.96252 29.6848 7.98131ZM28.5992 7.50822C27.7848 7.6865 27.3601 8.09529 26.9972 8.97844C27.2404 6.97017 25.9058 5.04532 23.7071 5.19305C23.9224 1.60504 20.3681 -0.531844 17.2252 1.21472C15.3685 -0.375207 13.2927 -0.0523815 12.0441 1.42676C10.8508 2.84095 10.8909 5.22679 13.3022 6.50026C12.6929 8.97844 14.9628 11.4413 17.6314 10.8689C17.7849 11.6317 18.3446 12.0405 19.0825 12.3449C17.9727 12.4098 17.5174 13.5133 17.5174 13.5133C13.9785 12.6066 12.1523 14.9587 12.0931 17.4273C9.51048 18.2117 8.78779 21.44 10.7655 23.3254C12.81 25.2808 15.2487 24.4785 16.3121 22.4791C18.5935 23.3464 21.0354 21.9379 21.0991 19.4171C23.6422 19.6565 24.617 17.6521 24.3802 15.54L23.5741 15.4751C23.227 17.4368 22.2949 18.2824 20.1669 18.2824C20.0746 20.1672 18.0606 21.8029 15.7791 21.37C15.1392 22.8765 13.2609 23.368 11.9785 22.1079C10.6993 20.8472 11.1233 18.4766 13.3806 18.0487C13.2882 15.7368 15.5385 14.3041 18.7521 14.4575C19.6651 13.3261 20.4031 12.846 21.7715 12.9784L21.7842 12.3207C20.5018 12.1481 19.0564 10.9332 18.9494 9.62727C16.2128 9.84504 14.3395 8.27676 14.4324 5.81705C12.6738 4.99311 12.9902 3.18797 13.5595 2.50284C14.5401 1.31915 15.9109 1.41402 17.0189 2.3704C20.1459 1.17461 22.6635 3.64323 22.6635 6.33981C22.6635 6.33981 24.1248 6.31179 24.9456 7.16693C26.0312 8.30159 26.0312 9.28853 26.2891 10.3888C26.5323 11.428 27.0551 12.809 28.3311 13.8049C30.5877 15.5642 34.0847 15.0873 34.4412 11.3764C37.4447 11.6432 39.4192 9.28535 38.4291 6.40157C40.5322 4.90078 40.1139 1.80752 38.1368 0.611096C37.693 0.317983 37.191 0.124249 36.6653 0.0431554C36.1396 -0.0379378 35.6026 -0.00447307 35.091 0.141256C34.5795 0.286985 34.1054 0.541537 33.7014 0.887486C33.2973 1.23344 32.9728 1.66261 32.7501 2.14563C29.6721 1.43822 27.1633 4.50728 28.5992 7.50822ZM42.4851 25.4864C42.7557 24.404 41.3288 24.2435 41.132 25.2407C40.9232 26.3078 39.6255 28.1283 38.396 29.2687L38.8353 29.7424C40.4495 28.5364 42.1381 26.8675 42.4851 25.4864ZM49.6522 7.60627C49.8868 7.59748 50.1089 7.4981 50.2717 7.32902C50.4346 7.15994 50.5256 6.93432 50.5256 6.69956C50.5256 6.4648 50.4346 6.23918 50.2717 6.0701C50.1089 5.90102 49.8868 5.80164 49.6522 5.79285C49.1511 5.79285 48.7487 6.20163 48.7487 6.69956C48.7487 7.20067 49.1511 7.60627 49.6522 7.60627ZM63.0033 8.43339C63.0101 8.15278 63.1264 7.88596 63.3273 7.68991C63.5281 7.49386 63.7977 7.38411 64.0784 7.38411C64.3591 7.38411 64.6287 7.49386 64.8296 7.68991C65.0304 7.88596 65.1467 8.15278 65.1535 8.43339C65.154 8.57487 65.1265 8.71503 65.0727 8.84588C65.0188 8.97672 64.9398 9.09566 64.8399 9.19591C64.7401 9.29615 64.6215 9.37573 64.4909 9.43008C64.3603 9.48443 64.2202 9.51249 64.0787 9.51266C63.4866 9.51266 63.0033 9.03001 63.0033 8.43339ZM61.2994 27.7768C54.3017 27.2394 47.3345 27.6787 47.3345 27.6787L47.8254 26.3963C54.5162 25.9105 61.3981 26.3963 61.3981 26.3963L61.2994 27.7768Z" fill="#2463A9"/>
<path fill-rule="evenodd" clip-rule="evenodd" d="M19.0119 32.6483C19.0119 32.6483 19.4086 33.178 20.0268 33.8358C20.2363 34.1312 20.4662 34.3426 20.7578 34.6171C22.0408 35.8683 23.9281 36.8062 25.8746 37.1812C26.4279 37.2869 26.9201 37.369 27.4677 37.369C28.298 37.369 29.0628 36.9233 29.5518 36.4859L28.7896 35.597C28.5438 35.6702 28.0332 35.6702 27.6951 35.6702C24.8724 35.6702 21.2908 33.8231 20.4662 31.6824C20.3828 31.4735 20.2847 31.357 20.3681 31.1596C20.4477 30.9628 20.5528 30.5483 20.6107 30.1669C20.7769 30.3573 21.1176 30.6432 21.5512 30.9227C22.6031 31.5964 24.6018 32.5279 24.9921 32.7775C25.811 32.5433 26.6042 32.2269 27.3595 31.8333C27.9466 31.5289 28.7495 31.2551 29.6778 31.2551C31.7409 31.2551 34.1114 32.4292 36.3381 33.527L37.8599 32.9304C35.8828 31.5378 31.5849 29.5913 29.1927 29.5913C27.7842 29.5913 26.4585 30.6247 25.5155 30.6247C24.356 30.6247 21.0354 29.0042 21.0354 27.6544C21.0354 26.6152 23.1844 26.0243 26.64 25.5996C26.0372 26.4887 25.4721 27.4028 24.9463 28.3395L25.8256 28.8285C31.2372 20.9782 36.864 15.8811 41.5995 12.7783C43.3212 11.6494 43.7121 10.9891 44.3113 9.75573C45.7783 6.75479 47.162 4.44535 49.5695 4.44535C50.6914 4.44535 51.6108 5.0789 52.2418 5.86018L53.982 6.38294L52.2196 7.57873L54.0222 8.29824C51.6694 8.95917 48.4565 11.2501 47.1531 14.6108C44.6469 14.7433 43.4383 16.7757 42.6208 18.479C42.0668 19.6264 41.1881 20.0842 39.9057 20.9546L29.6575 28.1096L31.0685 28.3064L40.5355 21.9537C42.4056 20.6936 43.2906 19.7646 43.7402 18.8661C44.6163 17.1075 45.5638 15.8009 47.4211 15.8009C48.3342 15.8009 49.3084 16.1912 50.0897 16.9324L51.7528 17.4736L49.9388 18.5834L51.4606 19.522C47.1129 20.8846 44.4221 24.0021 42.8602 29.9606L44.0101 30.2191C44.5851 28.2484 45.1569 26.4376 46.1744 24.8381C48.6895 24.8107 51.2396 24.7184 53.7388 24.7184C60.4112 24.7184 65.9514 25.0011 68.9402 25.8836L67.8833 24.0447C64.6862 23.4971 60.0457 23.2176 53.7395 23.2176C51.6274 23.2176 49.4835 23.294 47.3562 23.3188C48.7309 21.8645 50.7048 20.6375 53.749 19.6939L51.5905 18.5038L53.9884 17.1692L50.7201 15.9512C50.1483 15.438 49.4377 14.9674 48.5437 14.7395C49.5918 11.5201 53.1556 9.63857 56.5748 8.3409L54.1801 7.35969L56.5933 6.03783L52.876 4.85032C51.9044 3.70674 50.9728 3.18652 49.5395 3.18652C46.0897 3.18652 44.6386 6.18428 43.2734 8.84137C42.5507 10.2435 42.0987 10.8337 40.8748 11.6335C38.2209 13.3705 34.8418 16.0269 31.6142 19.4309C29.9287 18.2141 26.4814 14.6522 25.5505 12.7095C25.1812 13.1674 24.8157 14.1645 24.8157 14.1645C25.1698 14.5357 29.2251 18.6407 30.7342 20.3809C30.6202 20.507 30.5075 20.6331 30.3935 20.7623C28.7851 21.082 24.6101 21.485 23.1889 21.2915L22.3898 22.7095C23.4499 22.6051 27.6015 22.1154 29.3232 22.0142C28.7955 22.6552 28.2838 23.3094 27.7887 23.9759C22.4541 24.5847 18.8871 25.6792 18.8871 27.6537C18.8871 27.9797 19.0189 28.3484 19.0189 28.6954C19.0189 29.5225 18.7082 29.8275 18.1211 30.1962C17.7397 30.4394 17.7149 30.6056 17.8785 30.833C18.7636 32.2631 16.0148 32.973 17.9301 35.5314L19.5537 35.6295C19.5531 35.6301 17.9696 34.7088 19.0119 32.6483ZM16.9075 4.24478L16.379 4.786C17.1386 5.87164 20.5025 8.88531 22.2083 10.0047L22.8355 9.2266C21.7167 7.91047 18.5369 5.07254 16.9075 4.24478ZM14.5859 19.4354L15.0839 19.9792C16.3663 19.3583 18.7763 17.5748 20.0803 16.2377L19.7212 15.7054C18.1892 16.3453 15.8218 18.0976 14.5859 19.4354Z" fill="#2463A9"/>
<path fill-rule="evenodd" clip-rule="evenodd" d="M88.8731 41.6535C88.8733 41.4309 88.8297 41.2104 88.7447 41.0046C88.6597 40.7989 88.535 40.6119 88.3777 40.4544C88.2204 40.2968 88.0336 40.1719 87.828 40.0865C87.6224 40.0012 87.402 39.9573 87.1794 39.9572L84.6713 39.9559C84.4483 39.9564 84.2276 40.0007 84.0218 40.0864C83.816 40.1722 83.6291 40.2976 83.4718 40.4556C83.3145 40.6137 83.1899 40.8011 83.1051 41.0073C83.0203 41.2135 82.977 41.4343 82.9775 41.6573L82.9788 67.894C82.9783 68.1167 83.0217 68.3374 83.1066 68.5433C83.1915 68.7492 83.3162 68.9364 83.4735 69.0941C83.6309 69.2518 83.8177 69.3769 84.0235 69.4622C84.2292 69.5476 84.4498 69.5915 84.6725 69.5915H87.1806C87.4034 69.591 87.6239 69.5467 87.8295 69.4609C88.0351 69.3752 88.2218 69.2499 88.3789 69.092C88.5361 68.9341 88.6606 68.7469 88.7454 68.5409C88.8302 68.3349 88.8736 68.1142 88.8731 67.8914V41.6535ZM92.0701 42.3513V43.5987C92.0705 43.7216 92.0952 43.8433 92.1426 43.9567C92.19 44.0701 92.2593 44.173 92.3465 44.2596C92.4337 44.3462 92.5372 44.4148 92.6509 44.4615C92.7646 44.5081 92.8864 44.5319 93.0093 44.5315H110.317C111.105 44.5315 111.746 43.8948 111.746 43.1052V40.9925C111.746 40.2043 111.098 39.4892 110.313 39.5663C110.313 39.5663 93.5843 41.2078 93.0443 41.2689C92.421 41.3377 92.0701 41.8349 92.0701 42.3513ZM78.0594 69.5928C73.7538 69.5928 71.0438 66.3283 71.0438 62.6931L71.04 52.1959H69.8073C69.6512 52.1962 69.4966 52.1656 69.3524 52.106C69.2081 52.0465 69.077 51.959 68.9666 51.8487C68.8562 51.7384 68.7686 51.6074 68.7089 51.4632C68.6491 51.319 68.6184 51.1645 68.6185 51.0084V49.251C68.6185 48.5945 69.1534 48.0673 69.8086 48.0673L71.04 48.0686L71.0375 41.614C71.0371 41.3969 71.0795 41.1818 71.1623 40.981C71.2451 40.7803 71.3667 40.5979 71.5202 40.4442C71.6736 40.2906 71.8558 40.1687 72.0564 40.0856C72.257 40.0024 72.472 39.9597 72.6892 39.9598H75.1355C75.5744 39.9611 75.9947 40.1365 76.3044 40.4475C76.6141 40.7585 76.7877 41.1796 76.7872 41.6185L76.7885 48.068H80.6025C81.2603 48.068 81.7951 48.5964 81.7951 49.2529V51.0103C81.795 51.1662 81.7642 51.3206 81.7044 51.4646C81.6446 51.6085 81.5569 51.7393 81.4465 51.8494C81.3361 51.9594 81.205 52.0466 81.0609 52.106C80.9167 52.1654 80.7622 52.1957 80.6063 52.1953H76.7885L76.791 61.9055C76.791 63.8119 77.9461 65.1127 80.0123 65.1127L80.3593 65.1102C81.0718 65.1102 81.6512 65.6845 81.6512 66.397V68.3047C81.6513 68.474 81.618 68.6417 81.5531 68.7981C81.4882 68.9545 81.3931 69.0966 81.2732 69.2162C81.1532 69.3357 81.0109 69.4304 80.8543 69.4948C80.6977 69.5592 80.5299 69.5921 80.3606 69.5915H78.0594V69.5928ZM37.7387 47.3121C30.7786 47.3121 26.8748 52.7594 26.8748 58.4983C26.8748 64.6142 31.0562 70.0003 37.7839 70.0003C42.3888 70.0003 46.9281 67.5737 47.7858 63.5884C47.9017 63.051 47.5394 62.3461 46.7817 62.3436H43.4916C42.8944 62.3436 42.406 62.6295 42.1118 63.0612C41.1707 64.4416 39.7909 65.1764 37.7515 65.1764C34.8696 65.1764 32.8715 62.9058 32.7213 60.3875H46.7148C48.0036 60.3875 48.5792 59.6884 48.5792 58.497C48.5804 52.9008 45.2675 47.3121 37.7387 47.3121ZM37.7387 51.8043C40.308 51.8043 42.5257 53.6324 42.7505 56.1061H32.7652C32.9893 53.6324 35.1695 51.8043 37.7387 51.8043ZM101.503 47.3121C94.5432 47.3121 90.6394 52.7594 90.6394 58.4983C90.6394 64.6142 94.8215 70.0003 101.549 70.0003C106.153 70.0003 110.693 67.5737 111.551 63.5884C111.667 63.051 111.305 62.3461 110.548 62.3436H107.257C106.66 62.3436 106.171 62.6295 105.876 63.0612C104.936 64.4416 103.556 65.1764 101.516 65.1764C98.6349 65.1764 96.6374 62.9058 96.4859 60.3875H110.481C111.769 60.3875 112.345 59.6884 112.345 58.497C112.345 52.9008 109.032 47.3121 101.503 47.3121ZM101.503 51.8043C104.073 51.8043 106.291 53.6324 106.516 56.1061H96.5292C96.7533 53.6324 98.9335 51.8043 101.503 51.8043Z" fill="white"/>
<path fill-rule="evenodd" clip-rule="evenodd" d="M66.3334 40.2511H21.0061C20.7612 40.2511 20.5188 40.2994 20.2926 40.3932C20.0664 40.487 19.861 40.6245 19.688 40.7977C19.515 40.971 19.3779 41.1767 19.2845 41.403C19.1911 41.6294 19.1432 41.8719 19.1436 42.1167L19.2996 59.9192C19.2996 59.9192 9.5321 42.2772 9.02271 41.3769C8.54452 40.53 7.51619 39.75 6.09309 39.75H2.36564C2.12053 39.75 1.87783 39.7983 1.65139 39.8921C1.42496 39.986 1.21924 40.1235 1.04598 40.2969C0.872725 40.4703 0.73533 40.6761 0.641648 40.9026C0.547966 41.1291 0.499833 41.3718 0.5 41.6169L0.501911 67.7243C0.501743 67.9693 0.549834 68.212 0.643436 68.4384C0.737039 68.6648 0.87432 68.8706 1.04744 69.0439C1.22056 69.2173 1.42614 69.3548 1.65242 69.4487C1.87871 69.5427 2.12127 69.5911 2.36627 69.5912H4.75721C5.25241 69.5901 5.72686 69.3923 6.07624 69.0413C6.42562 68.6904 6.62132 68.2151 6.6203 67.7199L6.47003 49.4188C6.47003 49.4188 16.3318 67.2372 16.754 67.9389C17.3226 68.8877 18.2853 69.5919 19.681 69.5919H23.1054C23.3504 69.5917 23.5929 69.5433 23.8191 69.4494C24.0454 69.3555 24.2509 69.2179 24.424 69.0445C24.5971 68.8712 24.7343 68.6654 24.8278 68.439C24.9214 68.2126 24.9694 67.9699 24.9691 67.725L24.9678 44.6758L66.3359 44.6771C66.5032 44.6776 66.6689 44.6451 66.8237 44.5814C66.9784 44.5178 67.119 44.4243 67.2375 44.3062C67.356 44.1882 67.4501 44.0479 67.5144 43.8935C67.5786 43.739 67.6118 43.5734 67.6119 43.4061V41.5233C67.6109 41.1851 67.4757 40.8611 67.236 40.6226C66.9962 40.384 66.6716 40.2504 66.3334 40.2511Z" fill="white"/>
<path fill-rule="evenodd" clip-rule="evenodd" d="M58.9975 51.5855C60.9688 51.5855 62.4422 52.3006 62.9733 53.5352C63.228 54.1287 63.7221 54.2426 64.4008 54.2426H67.1108C67.5584 54.2426 68.0735 53.8574 68.0735 53.2716C68.0735 50.1217 64.3168 47.3086 58.9937 47.3086C53.4904 47.3086 49.8756 49.93 49.8756 54.1077C49.8756 57.3028 52.4009 59.2041 55.505 60.0159C56.9198 60.3852 59.3356 60.9825 60.5117 61.2919C61.78 61.6237 62.9141 62.0121 62.9141 63.0977C62.9141 64.8125 61.107 65.3957 59.1331 65.3957C57.263 65.3957 55.4006 64.5609 54.8664 63.227C54.5575 62.4546 54.0157 62.3426 53.1943 62.3426H50.4379C49.9571 62.3426 49.4038 62.7552 49.4038 63.3823V63.7383C49.4038 66.7876 53.4948 69.9815 59.1382 69.9815C63.1401 69.9815 68.7154 68.3177 68.7154 62.9513C68.7154 59.8434 66.6358 57.6918 63.2522 56.8316C61.929 56.4961 58.7479 55.6874 58.0558 55.5085C56.8224 55.1888 55.6712 54.7871 55.6712 53.7301C55.6718 52.1287 57.1516 51.5855 58.9975 51.5855Z" fill="white"/>
<path fill-rule="evenodd" clip-rule="evenodd" d="M88.8732 41.6535C88.8734 41.4309 88.8298 41.2104 88.7448 41.0046C88.6598 40.7989 88.5351 40.6119 88.3778 40.4544C88.2205 40.2968 88.0337 40.1719 87.8281 40.0865C87.6225 40.0012 87.4021 39.9573 87.1795 39.9572L84.6714 39.9559C84.4484 39.9564 84.2277 40.0007 84.0219 40.0864C83.8161 40.1722 83.6292 40.2976 83.4719 40.4556C83.3146 40.6137 83.19 40.8011 83.1052 41.0073C83.0204 41.2135 82.977 41.4343 82.9776 41.6573L82.9789 67.894C82.9784 68.1167 83.0218 68.3374 83.1067 68.5433C83.1916 68.7492 83.3163 68.9364 83.4736 69.0941C83.631 69.2518 83.8178 69.3769 84.0236 69.4622C84.2293 69.5476 84.4499 69.5915 84.6726 69.5915H87.1807C87.4035 69.591 87.624 69.5467 87.8296 69.4609C88.0352 69.3752 88.2219 69.2499 88.379 69.092C88.5362 68.9341 88.6607 68.7469 88.7455 68.5409C88.8303 68.3349 88.8737 68.1142 88.8732 67.8914V41.6535ZM92.0702 42.3513V43.5987C92.0706 43.7216 92.0953 43.8433 92.1427 43.9567C92.1901 44.0701 92.2594 44.173 92.3466 44.2596C92.4338 44.3462 92.5372 44.4148 92.651 44.4615C92.7647 44.5081 92.8865 44.5319 93.0094 44.5315H110.317C111.105 44.5315 111.746 43.8948 111.746 43.1052V40.9925C111.746 40.2043 111.098 39.4892 110.313 39.5663C110.313 39.5663 93.5844 41.2078 93.0444 41.2689C92.4211 41.3377 92.0702 41.8349 92.0702 42.3513ZM78.0595 69.5928C73.7539 69.5928 71.0439 66.3283 71.0439 62.6931L71.0401 52.1959H69.8074C69.6513 52.1962 69.4967 52.1656 69.3525 52.106C69.2082 52.0465 69.0771 51.959 68.9667 51.8487C68.8563 51.7384 68.7687 51.6074 68.709 51.4632C68.6492 51.319 68.6185 51.1645 68.6186 51.0084V49.251C68.6186 48.5945 69.1535 48.0673 69.8087 48.0673L71.0401 48.0686L71.0376 41.614C71.0371 41.3969 71.0796 41.1818 71.1624 40.981C71.2452 40.7803 71.3668 40.5979 71.5202 40.4442C71.6737 40.2906 71.8559 40.1687 72.0565 40.0856C72.2571 40.0024 72.4721 39.9597 72.6893 39.9598H75.1356C75.5745 39.9611 75.9948 40.1365 76.3045 40.4475C76.6142 40.7585 76.7878 41.1796 76.7873 41.6185L76.7886 48.068H80.6026C81.2604 48.068 81.7952 48.5964 81.7952 49.2529V51.0103C81.7951 51.1662 81.7643 51.3206 81.7045 51.4646C81.6447 51.6085 81.557 51.7393 81.4466 51.8494C81.3362 51.9594 81.2051 52.0466 81.061 52.106C80.9168 52.1654 80.7623 52.1957 80.6064 52.1953H76.7886L76.7911 61.9055C76.7911 63.8119 77.9461 65.1127 80.0124 65.1127L80.3594 65.1102C81.0719 65.1102 81.6513 65.6845 81.6513 66.397V68.3047C81.6514 68.474 81.618 68.6417 81.5532 68.7981C81.4883 68.9545 81.3932 69.0966 81.2732 69.2162C81.1533 69.3357 81.011 69.4304 80.8544 69.4948C80.6978 69.5592 80.53 69.5921 80.3606 69.5915H78.0595V69.5928ZM48.5805 58.497C48.5805 52.9008 45.2676 47.3121 37.7395 47.3121C30.7793 47.3121 26.8755 52.7594 26.8755 58.4983C26.8755 64.6142 31.0569 70.0003 37.7847 70.0003C42.3896 70.0003 46.9288 67.5737 47.7865 63.5884C47.9024 63.051 47.5401 62.3461 46.7824 62.3436H43.4924C42.8951 62.3436 42.4067 62.6295 42.1126 63.0612C41.1715 64.4416 39.7917 65.1764 37.7522 65.1764C34.8703 65.1764 32.8723 62.9058 32.722 60.3875H46.7155C48.0043 60.3875 48.5805 59.6884 48.5805 58.497ZM32.7653 56.1055C32.9901 53.6317 35.1696 51.8037 37.7395 51.8037C40.3087 51.8037 42.5265 53.6317 42.7512 56.1055H32.7653ZM112.345 58.497C112.345 52.9008 109.032 47.3121 101.503 47.3121C94.5439 47.3121 90.6401 52.7594 90.6401 58.4983C90.6401 64.6142 94.8222 70.0003 101.549 70.0003C106.154 70.0003 110.693 67.5737 111.552 63.5884C111.668 63.051 111.305 62.3461 110.548 62.3436H107.258C106.66 62.3436 106.172 62.6295 105.877 63.0612C104.937 64.4416 103.556 65.1764 101.517 65.1764C98.6356 65.1764 96.6382 62.9058 96.4866 60.3875H110.481C111.769 60.3875 112.345 59.6884 112.345 58.497ZM96.5299 56.1055C96.754 53.6317 98.9336 51.8037 101.503 51.8037C104.074 51.8037 106.292 53.6317 106.516 56.1055H96.5299Z" fill="#2463A9"/>
<path fill-rule="evenodd" clip-rule="evenodd" d="M66.3334 40.2511H21.0061C20.7612 40.2511 20.5188 40.2994 20.2926 40.3932C20.0664 40.487 19.861 40.6245 19.688 40.7977C19.515 40.971 19.3779 41.1767 19.2845 41.403C19.1911 41.6294 19.1432 41.8719 19.1436 42.1167L19.2996 59.9192C19.2996 59.9192 9.5321 42.2772 9.02271 41.3769C8.54452 40.53 7.51619 39.75 6.09309 39.75H2.36564C2.12053 39.75 1.87783 39.7983 1.65139 39.8921C1.42496 39.986 1.21924 40.1235 1.04598 40.2969C0.872725 40.4703 0.73533 40.6761 0.641648 40.9026C0.547966 41.1291 0.499833 41.3718 0.5 41.6169L0.501911 67.7243C0.501743 67.9693 0.549834 68.212 0.643436 68.4384C0.737039 68.6648 0.87432 68.8706 1.04744 69.0439C1.22056 69.2173 1.42614 69.3548 1.65242 69.4487C1.87871 69.5427 2.12127 69.5911 2.36627 69.5912H4.75721C5.25241 69.5901 5.72686 69.3923 6.07624 69.0413C6.42562 68.6904 6.62132 68.2151 6.6203 67.7199L6.47003 49.4188C6.47003 49.4188 16.3318 67.2372 16.754 67.9389C17.3226 68.8877 18.2853 69.5919 19.681 69.5919H23.1054C23.3504 69.5917 23.5929 69.5433 23.8191 69.4494C24.0454 69.3555 24.2509 69.2179 24.424 69.0445C24.5971 68.8712 24.7343 68.6654 24.8278 68.439C24.9214 68.2126 24.9694 67.9699 24.9691 67.725L24.9678 44.6758L66.3359 44.6771C66.5032 44.6776 66.6689 44.6451 66.8237 44.5814C66.9784 44.5178 67.119 44.4243 67.2375 44.3062C67.356 44.1882 67.4501 44.0479 67.5144 43.8935C67.5786 43.739 67.6118 43.5734 67.6119 43.4061V41.5233C67.6109 41.1851 67.4757 40.8611 67.236 40.6226C66.9962 40.384 66.6716 40.2504 66.3334 40.2511Z" fill="#2463A9"/>
<path fill-rule="evenodd" clip-rule="evenodd" d="M58.9975 51.5855C60.9688 51.5855 62.4422 52.3006 62.9733 53.5352C63.228 54.1287 63.7221 54.2426 64.4008 54.2426H67.1108C67.5584 54.2426 68.0735 53.8574 68.0735 53.2716C68.0735 50.1217 64.3168 47.3086 58.9937 47.3086C53.4904 47.3086 49.8756 49.93 49.8756 54.1077C49.8756 57.3028 52.4009 59.2041 55.505 60.0159C56.9198 60.3852 59.3356 60.9825 60.5117 61.2919C61.78 61.6237 62.9141 62.0121 62.9141 63.0977C62.9141 64.8125 61.107 65.3957 59.1331 65.3957C57.263 65.3957 55.4006 64.5609 54.8664 63.227C54.5575 62.4546 54.0157 62.3426 53.1943 62.3426H50.4379C49.9571 62.3426 49.4038 62.7552 49.4038 63.3823V63.7383C49.4038 66.7876 53.4948 69.9815 59.1382 69.9815C63.1401 69.9815 68.7154 68.3177 68.7154 62.9513C68.7154 59.8434 66.6358 57.6918 63.2522 56.8316C61.929 56.4961 58.7479 55.6874 58.0558 55.5085C56.8224 55.1888 55.6712 54.7871 55.6712 53.7301C55.6718 52.1287 57.1516 51.5855 58.9975 51.5855ZM114.289 68.489H113.675V65.616H114.748C115.489 65.616 115.927 65.8274 115.927 66.4839C115.927 67.0124 115.617 67.204 115.236 67.2327L115.969 68.489H115.242L114.579 67.2817H114.289V68.489ZM114.832 66.7953C115.109 66.7953 115.27 66.7379 115.27 66.4196C115.27 66.1235 114.952 66.1025 114.721 66.1025H114.289V66.7953H114.832ZM114.733 69.7236C113.315 69.7236 112.05 68.7424 112.05 67.055C112.05 65.369 113.315 64.3878 114.733 64.3878C116.146 64.3878 117.41 65.369 117.41 67.055C117.41 68.7424 116.146 69.7236 114.733 69.7236ZM114.733 65.0079C113.675 65.0079 112.82 65.8274 112.82 67.055C112.82 68.2839 113.675 69.1111 114.733 69.1034V69.1111C115.765 69.1111 116.639 68.2839 116.639 67.055C116.639 65.8274 115.765 65.0079 114.733 65.0079Z" fill="#2463A9"/>
</svg>
