<svg width="154" height="47" viewBox="0 0 154 47" fill="none" xmlns="http://www.w3.org/2000/svg">
<path fill-rule="evenodd" clip-rule="evenodd" d="M18.8945 37.0622L18.783 37.1884C16.9937 39.2849 14.9221 40.3968 12.7894 40.3968C8.33682 40.3968 5.10352 36.5523 5.10352 31.2483C5.10352 25.9547 8.33682 22.1081 12.7894 22.1081C14.9221 22.1081 16.9937 23.2221 18.783 25.3228L18.8945 25.4521L21.7583 21.4669L21.6819 21.3593C19.3018 18.1209 16.4426 16.5467 12.9287 16.5467C9.405 16.5467 6.17979 17.912 3.85731 20.3726C1.33163 23.0401 0 26.7987 0 31.2494C0 35.701 1.33163 39.469 3.85731 42.1355C6.17979 44.6085 9.4041 45.9645 12.9287 45.9645C16.4426 45.9645 19.3018 44.3903 21.6819 41.1508L21.7583 41.0505L18.8945 37.0622ZM24.6526 45.4194H29.713V17.0059H24.6526V45.4194ZM49.5354 39.2425C48.1831 40.1879 46.9279 40.6647 45.7977 40.6647C44.163 40.6647 43.423 39.6717 43.423 37.4604V22.3822H48.5787V17.0318H43.423V8.18945L38.4643 11.2438V17.0318H34.1862V22.3822H38.4643V38.4233C38.4643 42.7902 40.7139 45.7752 44.0758 45.8569C46.3551 45.9076 47.7299 45.1257 48.5643 44.5527L48.6156 44.5133L49.8321 39.0336L49.5354 39.2425ZM53.7236 45.4194H58.7885V17.0059H53.7236V45.4194Z" fill="#1C4882"/>
<path fill-rule="evenodd" clip-rule="evenodd" d="M61.7384 12.0238C57.116 4.49199 49.44 0 41.6301 0C33.822 0 26.1434 4.49303 21.529 12.0238L21.2916 12.4106H27.1135L27.1756 12.33C31.139 7.63008 36.3117 5.14154 41.6301 5.14154C46.9485 5.14154 52.1185 7.63008 56.0882 12.33L56.1557 12.4106H61.9713L61.7384 12.0238Z" fill="#CC2131"/>
<path fill-rule="evenodd" clip-rule="evenodd" d="M68.4506 23.7589L68.3822 23.8634V38.562L68.4317 38.652C70.0259 41.487 72.6235 43.1833 75.3829 43.1833C79.6493 43.1833 81.8127 39.0471 81.8127 30.8936C81.8127 23.6048 79.4174 19.4314 75.2409 19.4314C72.7071 19.4304 70.4224 20.8867 68.4506 23.7589ZM153.604 45.3202V45.4195H150.546C150.373 45.0161 144.142 29.8386 144.142 29.8386L139.49 37.3405V45.4205H136.603V8.09327C136.855 7.92675 138.808 6.638 139.49 6.19635V33.2994L141.069 30.4799C141.063 30.4892 148.148 18.6929 149.054 17.189H152.215C151.543 18.2243 145.974 27.0419 145.974 27.0419C145.974 27.0419 152.882 43.6115 153.604 45.3202ZM96.0442 46.0132H94.8187C92.3317 45.8477 87.8522 44.5196 87.8522 37.1254C87.8522 30.5564 92.5655 28.2251 96.9802 28.2251C99.2002 28.2251 101.39 28.8116 102.977 29.8386L103.455 30.1396V26.0882C103.455 21.5952 101.548 19.3197 97.776 19.3197C95.4508 19.3197 93.3522 19.991 91.2042 21.3883C91.0109 20.8867 90.3437 19.1873 90.1594 18.7074C92.4072 17.3411 95.1838 16.5788 98.0125 16.5788C103.618 16.5788 106.344 19.5234 106.344 25.5917V45.4195H103.455V41.3019L102.895 42.0166C100.921 44.5165 98.6787 45.8353 96.0442 46.0132ZM76.1966 46.0132H75.0538C72.6648 45.8436 70.7119 44.65 68.9433 42.2959L68.3822 41.5419V45.4195H65.5005V8.09224C65.7442 7.92571 67.7052 6.63696 68.3822 6.19531V21.2994L68.9397 20.595C71.0689 17.8923 73.4219 16.5788 76.1292 16.5788C81.5465 16.5788 84.6566 21.771 84.6566 30.8336C84.6557 39.7577 81.3523 45.6326 76.1966 46.0132ZM90.6809 36.8513C90.6809 41.0744 92.5826 43.3964 96.0371 43.3964C98.9781 43.3964 101.588 41.7984 103.399 38.893L103.455 38.7937V32.6044L103.293 32.4968C101.449 31.2877 99.5653 30.7985 96.7887 30.7985C92.9692 30.7995 90.6809 33.0626 90.6809 36.8513ZM115.766 20.5515C117.255 17.9916 119.589 16.5788 122.322 16.5788C127.766 16.5788 130.653 20.5733 130.653 28.1331V45.4195H127.757V28.8488C127.757 22.4185 125.815 19.4304 121.612 19.4304C117.585 19.4304 115.18 22.9543 115.18 28.8488V45.4195H112.294V17.189H115.18V21.5652L115.766 20.5515Z" fill="#1C4882"/>
</svg>
