<svg width="128" height="58" viewBox="0 0 128 58" fill="none" xmlns="http://www.w3.org/2000/svg">
<path fill-rule="evenodd" clip-rule="evenodd" d="M106.555 57.5167V29.8996H92.541V57.5167H106.555ZM106.555 27.6171H92.541V0H106.555V27.6171ZM124.574 29.92C126.417 32.9367 127.569 36.5645 127.569 40.2534C127.569 49.7506 120.819 57.5167 112.561 57.5167H108.558V29.8996L124.574 29.92ZM108.558 27.6171L122.785 27.6579C121.51 26.2923 119.773 24.9675 118.089 24.2545C121.563 21.9312 123.812 17.61 123.812 12.9422C123.812 5.87027 118.71 0 112.561 0H108.558V27.6171ZM67.5233 57.5167H53.5437V29.8996H67.5233V57.5167ZM67.5233 27.6171H53.5437V0H67.5233V27.6171ZM69.5253 57.5167V29.8996L85.5424 29.92C87.3841 32.9367 88.5364 36.5645 88.5364 40.2534C88.5364 49.7506 81.7859 57.5167 73.5299 57.5167H69.5253ZM69.5253 27.6171V0H73.5299C79.6776 0 84.7978 5.86948 84.7978 12.9422C84.7978 17.61 82.5299 21.9304 79.0564 24.2545C80.74 24.9675 82.4767 26.2923 83.7525 27.6579L69.5253 27.6171ZM24.0256 27.6171H9.10703L17.5056 0.000783945H24.0256V27.6171ZM40.9284 27.6171L32.5128 0H26.0283V27.6163H40.9284V27.6171ZM50.0355 57.5167H37.5266L34.0361 46.0217H26.0276V29.8996H41.6376L50.0355 57.5167ZM0 57.5167H12.5095L16.0178 46.0217H24.0263V29.8996H8.41629L0 57.5167Z" fill="#CC2229"/>
</svg>
