<svg width="221" height="47" viewBox="0 0 221 47" fill="none" xmlns="http://www.w3.org/2000/svg">
<path fill-rule="evenodd" clip-rule="evenodd" d="M29.3367 37.4524V42.8487H0V5.73725H5.28146V37.4524H29.3367ZM25.2301 19.2328L31.096 6.41093H25.5229L21.1223 19.2328H25.2301ZM73.193 11.829C71.2908 8.38583 68.5126 5.4914 65.2407 3.51922C61.9689 1.54568 58.2035 0.494401 54.4393 0.494401C50.6751 0.494401 46.9085 1.54568 43.6379 3.51922C40.366 5.4914 37.5866 8.38583 35.6844 11.829C33.7822 15.2708 32.755 19.2627 32.755 23.2546C32.755 27.2451 33.7822 31.237 35.6844 34.6788C37.5866 38.122 40.3648 41.0164 43.6379 42.9886C46.9097 44.9621 50.6751 46.0134 54.4393 46.0134C58.2035 46.0134 61.9689 44.9635 65.2407 42.9886C68.5126 41.0164 71.2908 38.122 73.193 34.6788C75.0964 31.237 76.1224 27.2438 76.1224 23.2546C76.1224 19.264 75.0964 15.2722 73.193 11.829ZM68.6283 32.3426C67.209 35.0428 65.1321 37.3206 62.6809 38.8758C60.2296 40.4297 57.4053 41.2582 54.5798 41.2582C51.7543 41.2582 48.9299 40.4297 46.4787 38.8758C44.0287 37.3206 41.9518 35.0442 40.5313 32.3426C39.1109 29.6411 38.3481 26.5171 38.3481 23.3931C38.3481 20.2678 39.1109 17.1438 40.5313 14.4436C41.9518 11.7434 44.0275 9.46564 46.4787 7.9118C48.9299 6.35661 51.7555 5.52808 54.5798 5.52808C57.4041 5.52808 60.2296 6.35661 62.6809 7.9118C65.1321 9.46564 67.2078 11.7421 68.6283 14.4436C70.049 17.1434 70.8041 20.2372 70.8126 23.3931C70.8037 26.549 70.0486 29.6426 68.6283 32.3426ZM112.95 21.7415C111.995 24.1592 110.188 25.5568 108.775 26.4017C107.361 27.2478 106.342 27.5412 105.316 27.4991L115.584 42.8501H109.717L99.7869 28.0057H86.8341V42.8501H81.5538V5.73725H102.675C104.81 5.73725 106.975 6.22078 108.886 7.45679C110.796 8.6928 112.449 10.5713 113.226 13.2294C114.002 15.8861 113.903 19.3238 112.95 21.7415ZM107.043 21.4875C108.155 20.4063 108.814 18.6284 108.756 16.8654C108.699 15.101 107.926 13.3543 106.822 12.2881C105.717 11.2232 104.304 11.1349 102.969 11.1349H86.8341V22.6067H102.969C104.395 22.6067 105.93 22.57 107.043 21.4875ZM143.453 21.5948V26.6543H125.558V37.4524H149.613V42.8487H120.276V5.73725H149.613V11.1349H125.558V21.5948H143.453ZM143.746 0H135.824L132.598 4.72399L143.746 0ZM159.956 33.4021L155.773 42.8487H150.494L166.92 5.73589H172.202L188.631 42.8487H183.349L179.168 33.4021H159.956ZM169.56 11.7013L162.045 28.6794H177.076L169.56 11.7013ZM220.605 37.4524V42.8487H191.271V5.73725H196.55V37.4524H220.605ZM218.319 13.1845L218.273 12.299C218.266 12.136 218.278 11.973 218.22 11.7882C218.162 11.5981 218.073 11.4221 217.959 11.2694C217.878 11.1544 217.762 11.0792 217.634 11.0589C217.862 10.9675 218.055 10.7867 218.179 10.5482C218.317 10.2942 218.402 9.95868 218.398 9.59874C218.395 9.23881 218.299 8.85307 218.133 8.56784C217.773 7.9607 217.138 7.85747 216.583 7.88736H214.247V14.0878H215.154V11.541H216.509C216.657 11.541 216.903 11.518 217.15 11.7393C217.477 12.1835 217.332 12.7675 217.39 13.2633C217.395 13.5594 217.419 13.8392 217.526 14.0878H218.545V13.8962C218.359 13.808 218.343 13.4983 218.319 13.1845ZM217.199 10.4531C216.918 10.6595 216.627 10.6609 216.426 10.6568H215.147V8.76885C215.705 8.777 216.267 8.74169 216.821 8.79331C216.948 8.80915 217.07 8.86242 217.175 8.94804C217.28 9.03366 217.363 9.14875 217.418 9.28228C217.535 9.69247 217.54 10.1325 217.199 10.4531Z" fill="black"/>
<path fill-rule="evenodd" clip-rule="evenodd" d="M220.291 8.35037C219.894 7.55987 219.313 6.89161 218.626 6.43523C217.939 5.97886 217.146 5.73438 216.352 5.73438C215.559 5.73438 214.765 5.97886 214.078 6.43523C213.391 6.89161 212.81 7.55987 212.413 8.35037C212.016 9.14088 211.802 10.0536 211.802 10.9664C211.802 11.8791 212.016 12.7919 212.413 13.581C212.81 14.3702 213.391 15.0398 214.078 15.4962C214.765 15.9525 215.559 16.197 216.352 16.197C217.146 16.197 217.939 15.9525 218.626 15.4962C219.313 15.0398 219.894 14.3715 220.291 13.581C220.688 12.7905 220.903 11.8791 220.903 10.9664C220.903 10.0536 220.688 9.14088 220.291 8.35037ZM219.747 13.2415C219.405 13.9152 218.918 14.4751 218.331 14.8659C217.743 15.2545 217.076 15.4596 216.398 15.4608C215.72 15.4603 215.054 15.2551 214.466 14.8656C213.879 14.4761 213.39 13.9161 213.05 13.2415C212.711 12.5666 212.533 11.8012 212.533 11.0221C212.533 10.243 212.711 9.47754 213.05 8.80267C213.563 7.78187 214.408 7.03732 215.398 6.73271C216.388 6.42809 217.443 6.58832 218.331 7.1782C218.914 7.5653 219.408 8.13169 219.747 8.80267C220.084 9.47797 220.263 10.2431 220.264 11.0221C220.264 11.7963 220.084 12.5705 219.747 13.2415Z" fill="black"/>
</svg>
