<svg width="237" height="40" viewBox="0 0 237 40" fill="none" xmlns="http://www.w3.org/2000/svg">
<path d="M236.009 9.83313C234.473 7.0495 231.162 4.9383 227.566 4.9383C224.403 4.9383 221.621 6.2337 221.621 9.59255C221.621 12.4209 225.123 14.3393 228.769 16.6911C232.747 19.1848 236.874 22.2521 236.874 27.5788C236.874 34.5339 230.112 38.801 222.293 38.801C219.079 38.801 215.724 38.178 211.934 36.7392L212.556 27.4816C214.38 31.1766 217.787 34.1006 222.819 34.1006C226.705 34.1006 229.581 32.2315 229.581 28.9682C229.581 26.1862 227.23 24.4605 224.355 22.7348C218.31 19.0907 214.476 16.1621 214.476 10.888C214.476 2.97207 221.093 0.334961 227.951 0.334961C231.93 0.334961 234.427 1.05515 236.967 1.05515L236.009 9.83313ZM202.486 18.1284C201.619 19.5688 200.521 21.5319 199.845 22.9739C199.272 25.7066 198.983 29.3538 198.983 33.3804C198.983 35.0598 199.272 37.3129 200.038 38.0808H190.016C191.788 36.403 192.509 26.0936 192.415 22.8305C191.072 18.1793 189.246 13.7178 186.466 8.29715C184.695 4.8936 182.63 1.67661 181.335 1.05515C183.588 0.865424 186.466 0.720511 187.858 0.720511C190.35 0.720511 191.024 1.05515 192.56 4.41394C194.954 9.83463 196.729 13.9075 197.785 16.9317C200.328 12.9498 202.102 10.2171 204.404 6.47584C204.979 5.56443 205.459 4.41394 205.459 3.30976C205.459 2.44466 205.314 1.48695 204.932 1.05515H214.86C212.941 1.48695 204.307 15.061 202.486 18.1284ZM167.617 9.73902L161.672 22.6377H171.359L167.617 9.73902ZM179.273 38.4155C176.105 38.4155 175.868 38.3214 173.325 29.5928L172.415 26.3789C170.882 27.0976 168.145 27.4338 163.782 27.4338H159.37L158.602 29.0638C157.499 31.5128 156.013 34.3859 156.013 36.4045C156.013 36.8842 156.06 37.41 156.253 38.0824H130.066C131.554 36.4046 132.034 30.9854 132.752 21.151L132.896 18.8023C133.28 13.1904 133.571 8.87386 133.52 5.85431C133.472 3.36067 133.232 1.77689 132.561 1.05826H142.682C141.242 2.16238 140.713 8.10748 140.044 17.9418L139.851 20.2905C139.61 23.9362 139.132 27.6759 139.132 31.3216C139.132 32.9979 139.803 33.3819 141.532 33.3819C147.668 33.3819 149.206 33.2385 151.985 31.3679C153.71 28.2018 155.68 24.2199 157.595 20.0962L160.189 14.5814C162.633 9.40133 165.03 4.12406 165.03 3.11854C165.03 2.39686 164.838 1.72753 164.553 1.05515H172.609C172.609 1.05515 175.869 13.1426 176.59 15.7303L178.17 21.5828C180.903 31.4157 182.632 36.2102 184.934 38.0808C183.013 38.3214 180.28 38.4155 179.273 38.4155V38.4155ZM114.001 38.801C104.457 38.801 98.9404 30.936 98.9404 22.1118C98.9404 9.83463 105.606 0.334961 118.316 0.334961C122.296 0.334961 124.169 1.05515 127.379 1.05515L126.422 10.504C124.599 7.19447 121.624 4.93985 117.645 4.93985C109.732 4.93985 106.519 13.4788 106.519 20.8164C106.519 28.777 110.98 33.1398 116.925 33.1398C120.139 33.1398 122.967 32.2762 127.717 28.9682C125.799 35.1092 121.337 38.8011 114.001 38.8011V38.801ZM80.9094 5.56437C79.998 5.56437 78.8923 5.56437 78.0318 5.65998C77.7434 7.24221 77.5028 9.97649 77.1666 14.3871L76.9739 16.9795C77.4565 17.0766 78.078 17.1259 78.6548 17.1259C83.2566 17.1259 86.4242 14.3408 86.4242 10.123C86.4242 7.24221 84.4101 5.56437 80.9094 5.56437ZM94.2877 39.6647C91.555 39.6647 90.8826 39.2313 89.9727 37.9837L79.6125 23.5953C78.7967 22.4927 78.1736 21.5813 76.8797 21.5813H76.6392L76.4495 24.3633C76.2074 28.1524 76.0639 31.1766 76.0639 33.4297C76.1117 35.9234 76.4001 37.4563 77.0725 38.0808H67.0485C68.4858 36.7855 69.0117 32.4689 69.829 21.1495L69.974 18.8007C70.358 13.2382 70.6464 8.92017 70.597 5.90062C70.5476 3.26195 70.2624 1.63036 69.5406 1.05515H83.2088C87.6687 1.05515 93.8081 1.82463 93.8081 9.06508C93.8081 15.0102 89.8262 18.2734 84.8882 19.8062C85.3678 20.2396 86.2299 21.3423 86.7589 22.0147L94.2877 31.9909C98.9881 38.178 99.3706 38.4648 101.052 39.3285C98.9404 39.5675 96.1121 39.6647 94.2877 39.6647ZM47.5787 9.73902L41.5798 22.6377H51.3154L47.5787 9.73902ZM59.2297 38.4155C56.0667 38.4155 55.8262 38.3214 53.2847 29.5928L52.3733 26.3789C50.8358 27.0976 48.1031 27.4338 43.7387 27.4338H39.3266L38.5602 29.0638C37.7921 30.7926 35.9215 34.3427 35.9693 36.4045C35.9693 36.8842 36.0171 37.3638 36.2099 38.0824H27.3379C29.8794 35.5409 33.0932 29.6422 37.5532 20.0977L40.144 14.583C42.4926 9.5956 44.9878 3.93589 44.9878 3.12009C44.9878 2.39841 44.7982 1.72908 44.5083 1.0567H52.5676C52.5676 1.0567 54.6742 9.06664 56.5464 15.7319L58.1286 21.5844C60.8629 31.4172 62.5886 36.2118 64.891 38.0824C62.8291 38.3214 60.2383 38.4155 59.2297 38.4155ZM13.571 5.51662C12.8508 5.51662 11.8931 5.51662 10.9817 5.61379C10.5977 8.20304 10.3571 10.6967 10.1674 13.4295C10.1674 13.4295 10.0225 15.7781 10.0225 15.6825H10.9817C15.6822 15.6825 20.0003 14.0525 20.0003 9.73902C20.0003 7.24227 17.9369 5.51662 13.571 5.51662ZM12.3743 20.1918H9.7372L9.35321 25.6588C9.16199 28.0584 9.06482 30.0709 9.01701 32.469C9.01701 32.8067 10.0718 33.5253 12.564 33.5253C17.7441 33.5253 21.1507 30.936 21.1507 26.6658C21.1507 21.9175 17.2645 20.1918 12.3743 20.1918ZM12.9495 38.0808H0C1.63159 36.6405 2.06339 31.0301 2.78202 21.1495L2.92544 18.8485C3.31099 13.2367 3.59782 8.92017 3.55001 5.90062C3.50221 3.30976 3.21383 1.63036 2.4937 1.05515H16.9776C20.4306 1.05515 27.3379 1.24792 27.3379 8.44057C27.3379 13.2366 22.8764 16.2099 18.8005 17.2679C24.5558 17.8431 28.8724 20.6236 28.8724 26.5702C28.8708 32.9963 22.8286 38.0808 12.9495 38.0808Z" fill="#00AEEF"/>
</svg>
