<svg width="180" height="81" viewBox="0 0 180 81" fill="none" xmlns="http://www.w3.org/2000/svg">
<path fill-rule="evenodd" clip-rule="evenodd" d="M178.51 29.2118C178.51 29.8348 178.015 30.2505 177.701 30.3011L178.556 31.9628H177.925L177.115 30.3529H176.531V31.9628H175.944V28.0684H177.385C178.061 28.0684 178.51 28.5877 178.51 29.2118ZM177.925 29.2648C177.925 28.8479 177.657 28.6937 177.295 28.6937H176.531V29.836H177.295C177.657 29.8348 177.925 29.677 177.925 29.2648Z" fill="#235B2C"/>
<path fill-rule="evenodd" clip-rule="evenodd" d="M174.361 30.0233C174.361 28.2569 175.607 26.8226 177.141 26.8226C178.674 26.8226 179.918 28.2569 179.918 30.0233C179.918 31.7921 178.674 33.2265 177.141 33.2265C175.607 33.2265 174.361 31.7921 174.361 30.0233ZM177.141 32.7142C177.448 32.7137 177.751 32.6438 178.035 32.5083C178.318 32.3728 178.575 32.1745 178.792 31.9246C179.008 31.6747 179.18 31.3782 179.297 31.052C179.414 30.7258 179.474 30.3762 179.474 30.0233C179.474 29.311 179.228 28.6277 178.791 28.1236C178.354 27.6194 177.76 27.3358 177.141 27.3348C176.834 27.335 176.53 27.4046 176.247 27.5398C175.963 27.675 175.706 27.8731 175.489 28.1227C175.272 28.3724 175.1 28.6687 174.983 28.9948C174.866 29.3209 174.805 29.6704 174.806 30.0233C174.805 30.3764 174.866 30.726 174.983 31.0524C175.1 31.3787 175.272 31.6752 175.489 31.9251C175.706 32.175 175.963 32.3732 176.246 32.5086C176.53 32.644 176.834 32.7139 177.141 32.7142ZM61.4265 31.4848C61.4304 32.1983 61.3113 32.9056 61.0759 33.5657C60.8406 34.2259 60.4938 34.8258 60.0555 35.3307C59.6173 35.8356 59.0963 36.2355 58.5228 36.5072C57.9492 36.7789 57.3345 36.917 56.7143 36.9136C55.4705 36.9136 54.4478 35.6842 54.4478 34.3016C54.4478 32.9686 55.0692 32.9438 55.0692 32.0477C55.0692 31.3811 54.5798 30.8182 54.0025 30.8182C53.7737 30.8146 53.5467 30.8638 53.3348 30.9629C53.1228 31.062 52.9304 31.209 52.7688 31.3953C52.6071 31.5815 52.4797 31.8032 52.3939 32.0471C52.3081 32.2911 52.2657 32.5523 52.2693 32.8155V46.8527C52.2693 47.1059 52.4566 47.2555 52.6245 47.3132L53.8254 47.723C53.9932 47.7807 54.2246 47.9279 54.2246 48.1835V49.3128C54.2247 49.3732 54.2145 49.4331 54.1945 49.4889C54.1745 49.5448 54.1451 49.5955 54.108 49.6383C54.0709 49.6811 54.0269 49.715 53.9784 49.7382C53.9299 49.7613 53.8779 49.7732 53.8254 49.7732H46.0911C46.0385 49.7734 45.9864 49.7616 45.9378 49.7385C45.8892 49.7154 45.845 49.6815 45.8078 49.6387C45.7706 49.5959 45.7411 49.5451 45.7211 49.4892C45.701 49.4332 45.6907 49.3733 45.6909 49.3128V42.9784C43.5042 45.5844 39.0776 50.4904 36.7712 50.4904C34.2231 50.4904 34.5497 47.3144 32.6231 47.3144C30.9493 47.3144 30.8459 50.4904 26.1777 50.4904C21.1564 50.4904 17.0676 45.0604 17.0676 38.2985C17.0676 31.5872 21.1564 26.1066 26.1777 26.1066C30.2818 26.1066 31.2165 28.6679 32.2228 28.6679C32.8452 28.6679 33.1104 28.1038 33.2455 27.2854C33.2647 27.1536 33.3248 27.0342 33.4145 26.9494C33.5043 26.8645 33.6177 26.8199 33.7338 26.8237H40.1792C40.2318 26.8237 40.2838 26.8357 40.3324 26.8589C40.381 26.8821 40.4251 26.9162 40.4622 26.9591C40.4993 27.002 40.5287 27.0529 40.5486 27.1089C40.5685 27.1649 40.5787 27.2248 40.5784 27.2854V28.4135C40.5784 28.6691 40.3552 28.8139 40.1792 28.874L38.9794 29.2826C38.8043 29.3427 38.6241 29.4875 38.6241 29.7431V42.1411C38.6241 42.9595 39.2906 43.6249 40.001 43.6249C41.2919 43.6249 44.055 40.9964 45.6909 39.3124V30.5639C45.6909 30.0009 45.3193 29.7442 44.92 29.7442C44.4296 29.7442 44.4102 30.2577 43.7806 30.2577C43.2022 30.2577 42.8459 29.6948 42.8459 29.1813C42.8459 28.2074 44.358 26.1077 46.7125 26.1077C50.7859 26.1077 50.1574 29.5923 51.6008 29.5923C52.9122 29.5923 53.1354 26.1077 56.7122 26.1077C59.3371 26.1054 61.4265 28.463 61.4265 31.4848ZM32.0457 34.5584C32.0457 33.0216 30.2245 31.4859 28.5343 31.4859C25.4232 31.4859 23.4239 34.3028 23.4239 38.2973C23.4239 42.2918 25.4232 45.1628 28.5343 45.1628C30.2235 45.1628 32.0457 43.6237 32.0457 42.0881V34.5584ZM63.4606 42.1116C63.4606 48.0798 67.3958 49.7709 70.0227 49.7709H83.5235C86.5834 49.7709 89.5 47.206 89.5 43.0549C89.5 36.7805 81.1055 37.3458 81.1055 33.7446C81.1055 32.2844 82.3401 31.765 83.8716 31.765C85.0232 31.765 86.6008 32.3538 87.4863 33.1099C87.7955 33.3713 88.0381 33.1146 88.1139 32.9156L90.1848 27.4455C90.2729 27.21 90.1664 26.8261 89.8245 26.8261H80.1268C77.4795 26.8261 75.1372 29.4604 75.1372 32.7118C75.1372 39.1723 82.4271 38.0288 82.4271 42.4084C82.4271 44.1077 81.2529 45.5597 79.619 45.5597C76.3994 45.5597 75.044 43.0785 74.8956 41.65C74.869 41.3721 74.5608 41.1789 74.3479 41.2779L73.0119 41.8879C72.757 42.0056 72.7089 42.4096 72.8461 42.6074C73.0774 42.9336 73.2075 43.2516 73.2075 43.7638C73.2075 44.753 72.5328 45.5974 71.6115 45.5974C70.6901 45.5974 70.036 44.6953 70.036 43.7638V11.61C70.0362 11.5494 70.0261 11.4893 70.0061 11.4333C69.9861 11.3772 69.9566 11.3262 69.9194 11.2833C69.8822 11.2404 69.838 11.2064 69.7893 11.1832C69.7406 11.1601 69.6884 11.1482 69.6357 11.1484H61.9025C61.8497 11.1481 61.7974 11.1598 61.7486 11.1829C61.6998 11.206 61.6555 11.24 61.6181 11.2829C61.5808 11.3258 61.5513 11.3768 61.5312 11.433C61.5111 11.4891 61.5009 11.5493 61.5012 11.61V12.737C61.5012 12.9937 61.7336 13.1397 61.9025 13.1975L63.1023 13.6073C63.2712 13.665 63.4575 13.811 63.4575 14.0677V42.1116H63.4606Z" fill="#235B2C"/>
<path fill-rule="evenodd" clip-rule="evenodd" d="M172.406 27.2843V28.4124C172.406 28.668 172.181 28.8128 172.007 28.8729L170.806 29.2815C170.629 29.3416 170.449 29.4864 170.449 29.742V53.3038C170.449 59.0424 166.25 63.6516 161.294 63.6516C157.917 63.6516 154.938 61.8581 153.428 58.8881C151.382 63.0875 144.762 72.1046 125.469 72.1046C114.848 72.1046 96.8028 66.0575 87.4255 66.0575C74.544 66.0575 66.0441 70.0802 57.2032 80.2996C57.0016 80.5316 56.8378 80.5988 56.5665 80.428L40.0907 70.0543C39.8788 69.9213 39.7857 69.548 40.0017 69.3372C50.8951 58.6903 66.6686 53.2026 77.824 53.2026C99.6467 53.2026 114.847 65.65 132.76 65.65C147.872 65.65 152.269 56.9415 152.269 54.021C152.269 53.9603 152.279 53.9002 152.299 53.8441C152.32 53.788 152.349 53.737 152.387 53.6942C152.424 53.6514 152.469 53.6175 152.517 53.5946C152.566 53.5717 152.619 53.5601 152.671 53.5606H154.183C154.362 53.5606 154.584 53.7148 154.584 54.021C154.584 56.9415 156.671 59.1437 159.295 59.1437C161.919 59.1437 163.872 56.7884 163.872 53.6147V49.1068C163.872 48.5957 163.652 48.2883 163.184 48.2883C162.496 48.2883 161.829 50.4893 158.005 50.4893C152.985 50.4893 148.896 45.0593 148.896 38.2974C148.896 31.5861 152.985 26.1055 158.005 26.1055C162.11 26.1055 163.044 28.6668 164.051 28.6668C164.67 28.6668 164.937 28.1027 165.071 27.2843C165.091 27.1524 165.151 27.0332 165.241 26.9484C165.331 26.8636 165.445 26.819 165.561 26.8226H172.007C172.06 26.8228 172.112 26.8349 172.16 26.8582C172.209 26.8815 172.253 26.9155 172.29 26.9584C172.327 27.0013 172.356 27.0521 172.376 27.1081C172.396 27.164 172.406 27.2239 172.406 27.2843ZM163.872 34.5584C163.872 33.0216 162.051 31.486 160.361 31.486C157.251 31.486 155.25 34.3029 155.25 38.2974C155.25 42.2919 157.251 45.1629 160.361 45.1629C162.05 45.1629 163.872 43.6238 163.872 42.0882V34.5584Z" fill="#235B2C"/>
<path fill-rule="evenodd" clip-rule="evenodd" d="M150.672 25.5933C150.672 30.3074 148.095 32.8145 145.961 32.8145C143.436 32.8145 143.786 30.8173 142.141 30.8173C141.163 30.8173 140.273 31.6875 140.273 32.8145V46.8518C140.273 47.105 140.46 47.2545 140.63 47.3122L141.829 47.722C141.999 47.7797 142.23 47.9269 142.23 48.1825V49.3118C142.23 49.3723 142.219 49.4323 142.199 49.4882C142.179 49.5441 142.15 49.595 142.113 49.6378C142.075 49.6805 142.031 49.7145 141.983 49.7375C141.934 49.7606 141.882 49.7724 141.829 49.7723H134.095C134.043 49.7724 133.991 49.7606 133.942 49.7375C133.894 49.7144 133.85 49.6804 133.813 49.6376C133.775 49.5948 133.746 49.5439 133.726 49.488C133.707 49.4321 133.696 49.3722 133.697 49.3118V33.0206C133.697 31.7405 132.983 31.1765 132.096 31.1765C131.278 31.1765 130.002 32.0137 128.849 32.9311C128.763 37.969 124.827 41.7798 118.716 41.7798C118.716 42.7525 120.629 46.336 124.409 46.336C126.628 46.336 128.296 45.4162 129.45 43.6722C129.98 42.8761 131.247 43.1894 130.651 44.7768C130.074 46.3136 127.429 50.4883 122.052 50.4883C119.635 50.4937 117.289 49.5444 115.407 47.7989C113.525 46.0535 112.221 43.6177 111.713 40.8989C110.491 40.4808 109.267 39.8178 108.362 39.1395V43.4166C108.362 47.0531 106.184 49.7699 102.763 49.7699H99.562C94.8508 49.7699 91.9178 46.7481 91.9178 42.0353V14.0668C91.9178 13.8101 91.7377 13.6664 91.5616 13.6063L90.3618 13.1965C90.1857 13.1365 89.9595 12.9928 89.9595 12.7361V11.6091C89.9595 11.3524 90.1396 11.1475 90.3618 11.1475H98.096C98.3181 11.1475 98.4942 11.3524 98.4942 11.6091V42.6995C98.4942 44.9558 100.406 45.9285 101.785 45.9285C103.295 45.9285 105.073 45.262 105.073 42.8537V36.7077L102.407 34.8636C102.047 34.6163 101.785 34.3007 101.785 33.686V27.2821C101.785 27.2214 101.795 27.1614 101.815 27.1053C101.835 27.0492 101.865 26.9983 101.902 26.9554C101.939 26.9124 101.983 26.8784 102.032 26.8553C102.081 26.8321 102.133 26.8203 102.186 26.8204H107.963C108.015 26.8203 108.068 26.8321 108.116 26.8553C108.165 26.8784 108.209 26.9124 108.246 26.9554C108.284 26.9983 108.313 27.0492 108.333 27.1053C108.353 27.1614 108.363 27.2214 108.363 27.2821V35.9776C109.208 36.6253 110.392 37.3754 111.48 37.9089C111.654 31.3284 116.255 26.1044 122.053 26.1044C125.294 26.1044 127.354 27.852 128.281 29.9988C130.199 28.2901 133.112 26.1044 135.475 26.1044C138.124 26.1044 138.131 28.6151 139.432 28.6151C139.876 28.6151 140.229 28.1535 140.229 27.6424C140.229 27.0136 139.965 26.539 139.965 25.9513C139.965 24.8244 140.943 23.7998 142.008 23.7998C143.93 23.7998 145.023 26.1044 146.678 26.1044C147.387 26.1044 148.232 25.286 148.232 24.0565C148.232 22.8825 147.054 21.0407 145.92 19.9584C145.142 19.2165 145.986 17.8493 146.965 18.4982C149.428 20.1398 150.672 22.6999 150.672 25.5933ZM124.981 33.0206C124.981 32.3541 124.805 30.6654 122.938 30.6654C120.716 30.6654 118.361 33.739 118.361 38.9122C122.671 38.9122 124.981 34.9672 124.981 33.0206Z" fill="#235B2C"/>
<path fill-rule="evenodd" clip-rule="evenodd" d="M141.73 4.58449C141.61 4.58449 141.492 4.55731 141.381 4.50451C141.27 4.4517 141.169 4.37431 141.085 4.27675C141 4.17919 140.933 4.06338 140.887 3.93595C140.841 3.80851 140.818 3.67194 140.818 3.53405V1.40019C140.818 0.627672 140.276 0.00117698 139.604 0.00117698C139.332 0.0048194 139.069 0.113947 138.857 0.310892C138.465 0.668882 137.997 0.902166 137.501 0.9875C137.005 1.07283 136.499 1.00724 136.032 0.797253C135.626 0.611001 135.176 0.599215 134.763 0.764055C134.35 0.928895 134.003 1.25931 133.785 1.69473C133.567 2.13015 133.493 2.6414 133.576 3.13474C133.659 3.62808 133.894 4.07045 134.237 4.38075C134.629 4.74235 134.932 5.21546 135.116 5.75317C135.299 6.29087 135.358 6.87448 135.285 7.44611C135.247 7.74758 135.283 8.06201 135.423 8.34464C135.585 8.66554 135.85 8.89971 136.162 8.99593C136.473 9.09216 136.805 9.04259 137.084 8.85808L138.688 7.78997C138.897 7.66445 139.14 7.63674 139.366 7.71264C139.592 7.78853 139.784 7.96217 139.902 8.1972C140.019 8.43223 140.053 8.71045 139.997 8.97366C139.94 9.23687 139.797 9.46467 139.598 9.6094L137.995 10.6751C137.716 10.8621 137.513 11.1684 137.43 11.527C137.347 11.8856 137.391 12.2673 137.552 12.5888C137.693 12.8714 137.913 13.0657 138.156 13.1776C138.623 13.3908 139.033 13.7411 139.345 14.1934C139.657 14.6457 139.861 15.1843 139.935 15.7554C140.068 16.7658 140.815 17.543 141.729 17.543C142.643 17.543 143.393 16.7658 143.525 15.7554C143.6 15.1841 143.804 14.6454 144.116 14.1931C144.429 13.7408 144.839 13.3906 145.306 13.1776C145.548 13.0645 145.768 12.8714 145.91 12.5888C146.071 12.2669 146.115 11.8845 146.031 11.5257C145.947 11.1668 145.743 10.8609 145.464 10.6751L143.862 9.6094C143.663 9.46467 143.52 9.23687 143.463 8.97366C143.407 8.71045 143.441 8.43223 143.558 8.1972C143.676 7.96217 143.868 7.78853 144.094 7.71264C144.321 7.63674 144.564 7.66445 144.773 7.78997L146.376 8.85808C146.655 9.04291 146.987 9.09266 147.299 8.99641C147.61 8.90016 147.876 8.66577 148.037 8.34464C148.177 8.06201 148.213 7.74758 148.175 7.44611C148.103 6.87448 148.161 6.29087 148.345 5.75317C148.528 5.21546 148.831 4.74235 149.223 4.38075C149.564 4.06861 149.797 3.62586 149.879 3.13294C149.961 2.64002 149.886 2.12966 149.669 1.6946C149.451 1.26066 149.105 0.931236 148.694 0.766485C148.283 0.601734 147.834 0.612655 147.429 0.797253C146.962 1.00777 146.454 1.07364 145.958 0.988305C145.461 0.902967 144.993 0.669398 144.6 0.310892C144.39 0.112795 144.127 0.00348215 143.855 0.00117698C143.184 0.00117698 142.641 0.627672 142.641 1.40019V3.53405C142.642 3.67201 142.619 3.80876 142.573 3.9364C142.528 4.06405 142.461 4.18005 142.376 4.27772C142.291 4.37538 142.191 4.45278 142.08 4.50543C141.969 4.55808 141.85 4.58495 141.73 4.58449ZM46.8301 54.4262C41.95 60.0317 34.9488 63.8236 27.5115 63.8236C12.6389 63.8236 0 49.7475 0 31.5497C0 19.2494 5.1831 8.58369 13.1016 0.410989C13.336 0.168399 13.6667 0 14.0137 0H48.3432C48.6472 0 48.852 0.39686 48.6165 0.70893L37.1641 18.0753C37.0003 18.325 36.6994 18.325 36.5141 18.1118C34.3612 15.6318 30.7137 14.0644 27.3149 14.0644C17.9878 14.0644 10.5587 24.7866 10.5587 35.4523C10.5587 48.3261 19.9789 58.9989 31.2163 58.9989C36.5386 58.9989 41.7688 56.6166 45.3949 52.761C46.5824 51.5033 47.949 53.1379 46.8301 54.4262Z" fill="#235B2C"/>
</svg>
