<svg width="168" height="40" viewBox="0 0 168 40" fill="none" xmlns="http://www.w3.org/2000/svg">
<g clip-path="url(#clip0_838_20966)">
<path d="M39.4251 37.3417H30.1238L27.2783 30.4785H11.7766L9.18418 37.3417H0.0360565L14.0122 2.67838H24.0249L39.4251 37.3417ZM19.1459 10.9613L14.0636 24.4295H24.737L19.1459 10.9613ZM73.2126 2.67838H80.7346V37.3417H72.0934V15.69L62.7417 26.5655H61.4207L52.0697 15.69V37.3413H43.4285V2.67838H50.9504L62.0807 15.5369L73.2126 2.67838ZM102.629 2.67838C115.284 2.67838 121.789 10.5552 121.789 20.0595C121.789 30.0211 115.487 37.3417 101.663 37.3417H87.3301V2.67838H102.629ZM95.9707 30.9886H101.611C110.302 30.9886 112.895 25.0916 112.895 20.0082C112.895 14.0611 109.692 9.03072 101.51 9.03072H95.9705V30.9886H95.9707ZM138.98 10.8974L128.084 0H167.749V39.6663L156.854 28.7701V10.8974H138.98ZM138.967 13.081L127.75 24.2981V40H143.449L154.666 28.7829H138.967V13.081Z" fill="#010101"/>
</g>
<defs>
<clipPath id="clip0_838_20966">
<rect width="167.785" height="40" fill="white"/>
</clipPath>
</defs>
</svg>
