<svg width="191" height="30" viewBox="0 0 191 30" fill="none" xmlns="http://www.w3.org/2000/svg">
<path fill-rule="evenodd" clip-rule="evenodd" d="M20.885 1.03135V6.57743C18.2474 5.65486 15.3592 5.11625 13.0565 5.11625C10.2142 5.11625 8.63247 5.9823 8.63247 7.5384C8.63247 8.53136 9.32466 9.18942 11.3106 10.0821L16.6519 12.4787C20.9245 14.3985 23.0779 17.1992 23.0779 20.8383C23.0779 26.4548 18.2165 29.9979 10.5107 29.9979C7.7003 29.9979 4.44945 29.5958 1.00555 28.8172V23.0845C4.41958 24.0134 7.54672 24.5094 9.97952 24.5094C13.1653 24.5094 14.8718 23.622 14.8718 21.9678C14.8718 20.9738 14.2052 20.2432 12.679 19.5616L6.83319 16.9582C2.49979 15.0256 0.5 12.4221 0.5 8.71054C0.5 3.39164 5.18537 0 12.5361 0C15.1096 0 18.2773 0.39142 20.885 1.03135ZM27.2374 0.581269H35.8754V29.4166H27.2374V0.581269ZM63.961 0.581269V5.86391H50.9202V12.3677H62.3121V17.1459H50.9202V23.8886H64.1295V29.4166H42.5265V0.581269H63.961ZM104.769 0.581269V29.4166H96.4119V10.4373L88.2251 29.6416H82.9413L74.8099 10.4373V29.4166H69.0388V0.581269H79.587L87.0444 18.1207L94.4633 0.581269H104.769ZM132.877 0.581269V5.86391H119.817V12.3677H131.206V17.1459H119.817V23.8886H133.025V29.4166H111.402V0.581269H132.877ZM163.303 0.581269V29.4166H154.085L143.705 10.9226V29.4166H137.933V0.581269H147.394L157.551 18.8311V0.581269H163.303ZM188.371 1.03135V6.57743C185.753 5.66126 182.846 5.11625 180.586 5.11625C177.699 5.11625 176.119 5.96843 176.119 7.52986C176.119 8.54735 176.764 9.15528 178.818 10.0832L184.136 12.4797C188.439 14.4198 190.566 17.196 190.566 20.8778C190.566 26.4644 185.701 30 178.012 30C175.197 30 171.933 29.5958 168.494 28.8193V23.0866C171.904 24.0134 175.024 24.5115 177.441 24.5115C180.606 24.5115 182.359 23.6241 182.359 22.0222C182.359 20.962 181.745 20.2784 180.145 19.5638L174.323 16.9603C169.962 15.0128 167.986 12.4392 167.986 8.71374C167.986 3.39804 172.674 0.00426387 180.007 0.00426387C182.588 0.00106421 185.769 0.39142 188.371 1.03135Z" fill="#00A0B0"/>
</svg>
