<svg width="584" height="198" viewBox="0 0 584 198" fill="none" xmlns="http://www.w3.org/2000/svg">
<path d="M185.342 35.103H179.673L178.121 41.1206H183.792L185.342 35.103Z" fill="#49A7F0"/>
<path d="M540.379 116.942H534.708L533.158 122.96H538.829L540.379 116.942Z" fill="#49A7F0"/>
<path d="M22.8676 84.4473H17.198L15.6465 90.4649H21.3176L22.8676 84.4473Z" fill="#49A7F0"/>
<path d="M12.0352 88.0579H7.3092L6.01758 92.8719H10.7435L12.0352 88.0579Z" fill="url(#paint0_linear)"/>
<path d="M176.754 1.64624H123.969L108.686 22.6488H161.763L176.754 1.64624Z" fill="url(#paint1_linear)"/>
<path d="M169.716 22.6489H116.638L107.463 35.2574H160.715L169.716 22.6489Z" fill="url(#paint2_linear)"/>
<path d="M154.924 38.0603H101.672L65.584 87.6546H119.527L154.924 38.0603Z" fill="url(#paint3_linear)"/>
<path d="M188.949 75.5469H137.779L134.535 87.6544H185.705L188.949 75.5469Z" fill="url(#paint4_linear)"/>
<path d="M198.016 113.79H175.124L182.127 87.6545H130.958L123.955 113.79H97.293L115.948 87.6545H62.0056L39.8513 118.099L37.1982 128.002H194.208L198.016 113.79Z" fill="url(#paint5_linear)"/>
<path d="M177.132 157.615H200.025L203.356 145.181H46.3458L43.0137 157.615H125.962L121.861 172.919H173.031L177.132 157.615Z" fill="url(#paint6_linear)"/>
<path d="M119.129 183.848L115.766 196.397H166.935L170.299 183.848H119.129Z" fill="url(#paint7_linear)"/>
<path d="M180.47 172.919H129.3L126.371 183.848H177.541L180.47 172.919Z" fill="url(#paint8_linear)"/>
<path d="M203.09 128.002H46.08L42.25 142.291H199.262L203.09 128.002Z" fill="url(#paint9_linear)"/>
<path d="M314.459 0.299316C291.353 0.299316 271.157 7.99705 254.536 22.6489H362.068C353.307 7.99705 337.31 0.299316 314.459 0.299316Z" fill="url(#paint10_linear)"/>
<path d="M370.021 22.6489H262.489C258.24 26.3938 254.238 30.6145 250.468 35.2574H375.291C374.005 30.6145 372.261 26.3938 370.021 22.6489Z" fill="url(#paint11_linear)"/>
<path d="M306.376 41.3437C320.738 41.3437 323.479 54.3303 315.613 87.6531H368.771C372.939 67.7738 373.13 51.1557 369.502 38.0588H244.679C234.046 51.1557 225.365 67.7738 218.89 87.6531H272.052C282.047 54.3319 291.769 41.3437 306.376 41.3437Z" fill="url(#paint12_linear)"/>
<path d="M265.268 98.9775C266.343 94.9648 267.409 91.1963 268.471 87.6531H215.308C214.114 91.3208 212.985 95.0877 211.943 98.9775C209.131 109.473 207.324 119.144 206.459 128.001H258.966C260.057 120.147 262.171 110.537 265.268 98.9775Z" fill="url(#paint13_linear)"/>
<path d="M362.492 98.9775C363.533 95.0877 364.422 91.3223 365.192 87.6531H312.034C311.198 91.1963 310.244 94.9648 309.168 98.9775C306.071 110.537 303.035 120.146 299.922 128.001H352.406C356.297 119.144 359.68 109.473 362.492 98.9775Z" fill="url(#paint14_linear)"/>
<path d="M267.851 128.002H215.344C214.852 133.04 214.685 137.797 214.816 142.291H267.127C266.83 138.386 267.064 133.666 267.851 128.002Z" fill="url(#paint15_linear)"/>
<path d="M361.289 128.002H308.805C306.56 133.667 304.272 138.386 301.896 142.291H354.139C356.685 137.797 359.075 133.04 361.289 128.002Z" fill="url(#paint16_linear)"/>
<path d="M358.235 145.181H305.993C299.844 155.289 293.085 159.77 284.818 159.77C276.411 159.77 271.988 155.289 271.223 145.181H218.913C219.228 156.063 221.365 165.331 225.27 172.921H336.982C344.956 165.33 352.072 156.063 358.235 145.181Z" fill="url(#paint17_linear)"/>
<path d="M323.32 183.848H233.473C242.814 193.001 256.643 197.744 274.834 197.744C292.822 197.744 309.106 193 323.32 183.848Z" fill="url(#paint18_linear)"/>
<path d="M344.416 172.919H232.704C234.842 177.072 237.519 180.714 240.715 183.846H330.563C335.428 180.714 340.052 177.073 344.416 172.919Z" fill="url(#paint19_linear)"/>
<path d="M509.077 1.64624H456.291L441.009 22.6488H494.086L509.077 1.64624Z" fill="url(#paint20_linear)"/>
<path d="M521.275 75.5469H470.105L466.861 87.6544H518.031L521.275 75.5469Z" fill="url(#paint21_linear)"/>
<path d="M487.248 38.0603H433.996L397.908 87.6546H451.851L487.248 38.0603Z" fill="url(#paint22_linear)"/>
<path d="M530.341 113.79H507.449L514.452 87.6545H463.283L456.28 113.79H429.618L448.271 87.6545H394.329L372.175 118.099L369.521 128.002H526.531L530.341 113.79Z" fill="url(#paint23_linear)"/>
<path d="M509.46 157.615H532.351L535.683 145.181H378.672L375.34 157.615H458.29L454.189 172.919H505.359L509.46 157.615Z" fill="url(#paint24_linear)"/>
<path d="M512.794 172.919H461.624L458.695 183.848H509.865L512.794 172.919Z" fill="url(#paint25_linear)"/>
<path d="M451.454 183.848L448.092 196.397H499.262L502.624 183.848H451.454Z" fill="url(#paint26_linear)"/>
<path d="M535.416 128.002H378.406L374.576 142.291H531.588L535.416 128.002Z" fill="url(#paint27_linear)"/>
<path d="M502.039 22.6489H448.961L439.787 35.2574H493.04L502.039 22.6489Z" fill="url(#paint28_linear)"/>
<path d="M154.463 1.646H101.678L86.3945 22.6486H139.472L154.463 1.646Z" fill="#49A7F0"/>
<path d="M147.425 22.6489H94.3474L85.1719 35.2574H138.424L147.425 22.6489Z" fill="#49A7F0"/>
<path d="M132.633 38.0601H79.3807L43.293 87.6543H97.2355L132.633 38.0601Z" fill="#49A7F0"/>
<path d="M166.659 75.5466H115.488L112.244 87.6541H163.415L166.659 75.5466Z" fill="#49A7F0"/>
<path d="M175.727 113.79H152.833L159.838 87.6543H108.667L101.664 113.79H75.002L93.6572 87.6543H39.7146L17.5603 118.099L14.9072 128.002H171.917L175.727 113.79Z" fill="#49A7F0"/>
<path d="M154.843 157.615H177.734L181.066 145.181H24.0548L20.7227 157.615H103.671L99.5703 172.919H150.742L154.843 157.615Z" fill="#49A7F0"/>
<path d="M96.8383 183.848L93.4746 196.396H144.646L148.008 183.848H96.8383Z" fill="#49A7F0"/>
<path d="M158.177 172.919H107.007L104.08 183.848H155.25L158.177 172.919Z" fill="#49A7F0"/>
<path d="M180.799 128.002H23.789L19.959 142.291H176.97L180.799 128.002Z" fill="#49A7F0"/>
<path d="M292.168 0.299072C269.062 0.299072 248.866 7.99681 232.245 22.6487H339.777C331.015 7.99681 315.017 0.299072 292.168 0.299072Z" fill="#49A7F0"/>
<path d="M347.735 22.6489H240.202C235.953 26.3938 231.952 30.6145 228.182 35.2574H353.003C351.718 30.6145 349.973 26.3938 347.735 22.6489Z" fill="#49A7F0"/>
<path d="M284.085 41.3434C298.448 41.3434 301.188 54.3301 293.322 87.6529H346.48C350.648 67.7736 350.839 51.1555 347.211 38.0586H222.388C211.755 51.1555 203.074 67.7736 196.599 87.6529H249.76C259.756 54.3316 269.478 41.3434 284.085 41.3434Z" fill="#49A7F0"/>
<path d="M242.98 98.9773C244.055 94.9646 245.122 91.1961 246.183 87.6528H193.022C191.828 91.3205 190.698 95.0875 189.657 98.9773C186.845 109.473 185.038 119.143 184.173 128.001H236.68C237.77 120.147 239.883 110.537 242.98 98.9773Z" fill="#49A7F0"/>
<path d="M340.201 98.9773C341.242 95.0875 342.131 91.3221 342.901 87.6528H289.743C288.906 91.1961 287.953 94.9646 286.877 98.9773C283.78 110.537 280.744 120.145 277.631 128.001H330.115C334.006 119.143 337.388 109.473 340.201 98.9773Z" fill="#49A7F0"/>
<path d="M245.56 128.002H193.053C192.561 133.04 192.394 137.797 192.525 142.291H244.836C244.541 138.386 244.774 133.666 245.56 128.002Z" fill="#49A7F0"/>
<path d="M338.998 128.002H286.514C284.269 133.667 281.981 138.386 279.605 142.291H331.848C334.394 137.797 336.784 133.04 338.998 128.002Z" fill="#49A7F0"/>
<path d="M335.944 145.181H283.702C277.552 155.289 270.794 159.77 262.527 159.77C254.12 159.77 249.697 155.289 248.932 145.181H196.622C196.937 156.063 199.072 165.331 202.979 172.921H314.691C322.665 165.33 329.783 156.063 335.944 145.181Z" fill="#49A7F0"/>
<path d="M301.031 183.848H211.182C220.523 193.001 234.352 197.743 252.543 197.743C270.534 197.743 286.817 193 301.031 183.848Z" fill="#49A7F0"/>
<path d="M322.125 172.919H210.413C212.551 177.072 215.228 180.714 218.424 183.846H308.272C313.137 180.714 317.763 177.073 322.125 172.919Z" fill="#49A7F0"/>
<path d="M486.786 1.646H434.001L418.718 22.6486H471.795L486.786 1.646Z" fill="#49A7F0"/>
<path d="M498.984 75.5466H447.814L444.57 87.6541H495.74L498.984 75.5466Z" fill="#49A7F0"/>
<path d="M464.957 38.0601H411.705L375.617 87.6543H429.56L464.957 38.0601Z" fill="#49A7F0"/>
<path d="M508.05 113.79H485.158L492.161 87.6543H440.992L433.989 113.79H407.327L425.98 87.6543H372.038L349.884 118.099L347.23 128.002H504.242L508.05 113.79Z" fill="#49A7F0"/>
<path d="M487.169 157.615H510.06L513.392 145.181H356.381L353.049 157.615H435.999L431.898 172.919H483.068L487.169 157.615Z" fill="#49A7F0"/>
<path d="M490.503 172.919H439.333L436.404 183.848H487.574L490.503 172.919Z" fill="#49A7F0"/>
<path d="M429.164 183.848L425.801 196.396H476.971L480.334 183.848H429.164Z" fill="#49A7F0"/>
<path d="M513.124 128.002H356.113L352.284 142.291H509.294L513.124 128.002Z" fill="#49A7F0"/>
<path d="M479.748 22.6489H426.671L417.495 35.2574H470.748L479.748 22.6489Z" fill="#49A7F0"/>
<path d="M165.272 1.64624H112.486L97.2021 22.6488H150.28L165.272 1.64624Z" fill="white"/>
<path d="M158.236 22.6489H105.158L95.9844 35.2574H149.237L158.236 22.6489Z" fill="white"/>
<path d="M143.442 38.0603H90.1899L54.1006 87.6546H108.043L143.442 38.0603Z" fill="white"/>
<path d="M177.47 75.5469H126.301L123.057 87.6544H174.226L177.47 75.5469Z" fill="white"/>
<path d="M186.534 113.79H163.643L170.646 87.6545H119.476L112.473 113.79H85.8112L104.465 87.6545H50.5222L28.3679 118.099L25.7148 128.002H182.726L186.534 113.79Z" fill="white"/>
<path d="M165.651 157.615H188.542L191.874 145.181H34.8628L31.5322 157.615H114.481L110.38 172.919H161.55L165.651 157.615Z" fill="white"/>
<path d="M107.646 183.848L104.284 196.397H155.454L158.816 183.848H107.646Z" fill="white"/>
<path d="M168.986 172.919H117.815L114.888 183.848H166.057L168.986 172.919Z" fill="white"/>
<path d="M191.611 128.002H34.5999L30.7715 142.291H187.781L191.611 128.002Z" fill="white"/>
<path d="M302.976 0.299316C279.87 0.299316 259.674 7.99705 243.053 22.6489H350.585C341.824 7.99705 325.826 0.299316 302.976 0.299316Z" fill="white"/>
<path d="M358.542 22.6489H251.01C246.761 26.3938 242.759 30.6145 238.989 35.2574H363.812C362.525 30.6145 360.781 26.3938 358.542 22.6489Z" fill="white"/>
<path d="M294.894 41.3437C309.258 41.3437 311.997 54.3303 304.131 87.6531H357.289C361.458 67.7738 361.648 51.1557 358.02 38.0588H233.197C222.564 51.1557 213.883 67.7738 207.408 87.6531H260.569C270.564 54.3319 280.288 41.3437 294.894 41.3437Z" fill="white"/>
<path d="M253.788 98.9775C254.863 94.9648 255.929 91.1963 256.991 87.6531H203.83C202.636 91.3208 201.506 95.0877 200.465 98.9775C197.652 109.473 195.845 119.144 194.98 128.001H247.488C248.578 120.147 250.691 110.537 253.788 98.9775Z" fill="white"/>
<path d="M351.009 98.9775C352.051 95.0877 352.939 91.3223 353.71 87.6531H300.552C299.715 91.1963 298.762 94.9648 297.686 98.9775C294.589 110.537 291.553 120.146 288.439 128.001H340.923C344.815 119.144 348.197 109.473 351.009 98.9775Z" fill="white"/>
<path d="M256.366 128.002H203.861C203.369 133.04 203.202 137.797 203.333 142.291H255.643C255.347 138.386 255.58 133.666 256.366 128.002Z" fill="white"/>
<path d="M349.808 128.002H297.324C295.079 133.667 292.792 138.386 290.416 142.291H342.659C345.203 137.797 347.593 133.04 349.808 128.002Z" fill="white"/>
<path d="M346.752 145.181H294.509C288.36 155.289 281.601 159.77 273.335 159.77C264.928 159.77 260.504 155.289 259.74 145.181H207.43C207.745 156.063 209.881 165.331 213.787 172.921H325.499C333.472 165.33 340.59 156.063 346.752 145.181Z" fill="white"/>
<path d="M311.838 183.848H221.989C231.33 193.001 245.16 197.744 263.35 197.744C281.34 197.744 297.623 193 311.838 183.848Z" fill="white"/>
<path d="M332.935 172.919H221.223C223.361 177.072 226.037 180.714 229.234 183.846H319.083C323.947 180.714 328.571 177.073 332.935 172.919Z" fill="white"/>
<path d="M497.594 1.64624H444.809L429.525 22.6488H482.603L497.594 1.64624Z" fill="white"/>
<path d="M509.796 75.5469H458.627L455.383 87.6544H506.553L509.796 75.5469Z" fill="white"/>
<path d="M475.767 38.0603H422.513L386.425 87.6546H440.369L475.767 38.0603Z" fill="white"/>
<path d="M518.857 113.79H495.967L502.97 87.6545H451.801L444.796 113.79H418.134L436.79 87.6545H382.845L360.693 118.099L358.038 128.002H515.05L518.857 113.79Z" fill="white"/>
<path d="M497.976 157.615H520.866L524.199 145.181H367.189L363.856 157.615H446.807L442.706 172.919H493.875L497.976 157.615Z" fill="white"/>
<path d="M501.311 172.919H450.141L447.214 183.848H498.384L501.311 172.919Z" fill="white"/>
<path d="M439.972 183.848L436.61 196.397H487.78L491.142 183.848H439.972Z" fill="white"/>
<path d="M523.933 128.002H366.921L363.093 142.291H520.104L523.933 128.002Z" fill="white"/>
<path d="M490.557 22.6489H437.479L428.304 35.2574H481.558L490.557 22.6489Z" fill="white"/>
<path d="M91.3711 60.9446H35.0732L36.874 54.2205H93.1735L91.3711 60.9446Z" fill="black"/>
<path d="M232.763 104.045H141.568L143.708 96.0588H234.902L232.763 104.045Z" fill="black"/>
<path d="M121.793 172.918H55.6221L57.5221 165.827H123.693L121.793 172.918Z" fill="black"/>
<path d="M418.147 45.6247H365.984L368.125 37.6387H420.286L418.147 45.6247Z" fill="black"/>
<path d="M512.916 22.6479H451.116L452.879 16.064H514.68L512.916 22.6479Z" fill="black"/>
<path d="M532.882 93.5364H485.128L486.705 87.6536H534.459L532.882 93.5364Z" fill="black"/>
<path d="M337.196 87.6537H292.842L295.432 77.9866H339.786L337.196 87.6537Z" fill="black"/>
<path d="M133.463 47.1382H19.2559L20.5861 41.1206H134.794L133.463 47.1382Z" fill="url(#paint29_linear)"/>
<path d="M535.576 48.3417H433.266L434.459 43.5276H536.768L535.576 48.3417Z" fill="url(#paint30_linear)"/>
<path d="M381.541 71.2085H280.42L281.599 67.5979H382.719L381.541 71.2085Z" fill="url(#paint31_linear)"/>
<path d="M371.897 187.95H269.588L270.781 184.339H373.09L371.897 187.95Z" fill="url(#paint32_linear)"/>
<path d="M249.89 67.5981H161.271L162.918 60.377H251.535L249.89 67.5981Z" fill="url(#paint33_linear)"/>
<path d="M459.797 173.508H364.666L367.02 163.879H462.151L459.797 173.508Z" fill="url(#paint34_linear)"/>
<path d="M581.563 103.704H471.779L473.922 96.4824H583.706L581.563 103.704Z" fill="url(#paint35_linear)"/>
<path d="M143.041 78.4297H0L1.38139 72.4121H144.422L143.041 78.4297Z" fill="#49A7F0"/>
<path d="M548.625 132.588H405.586L406.969 127.774H550.008L548.625 132.588Z" fill="#49A7F0"/>
<path d="M198.029 57.9699H157.66L159.415 50.7488H199.783L198.029 57.9699Z" fill="#49A7F0"/>
<path d="M425.493 57.9699H385.125L386.88 50.7488H427.248L425.493 57.9699Z" fill="#49A7F0"/>
<path d="M264.171 124.163H222.65L224.455 116.942H265.977L264.171 124.163Z" fill="#49A7F0"/>
<path d="M353.233 179.525H311.711L313.517 173.508H355.038L353.233 179.525Z" fill="#49A7F0"/>
<path d="M42.7234 133.792H1.20312L3.00793 127.774H44.5298L42.7234 133.792Z" fill="#49A7F0"/>
<defs>
<linearGradient id="paint0_linear" x1="6.01758" y1="90.4649" x2="12.0352" y2="90.4649" gradientUnits="userSpaceOnUse">
<stop stop-color="#0D0F11"/>
<stop offset="1" stop-color="#0E1114"/>
</linearGradient>
<linearGradient id="paint1_linear" x1="108.686" y1="12.1475" x2="176.754" y2="12.1475" gradientUnits="userSpaceOnUse">
<stop stop-color="#0D0F11"/>
<stop offset="1" stop-color="#0E1114"/>
</linearGradient>
<linearGradient id="paint2_linear" x1="107.463" y1="28.9532" x2="169.716" y2="28.9532" gradientUnits="userSpaceOnUse">
<stop stop-color="#0D0F11"/>
<stop offset="1" stop-color="#0E1114"/>
</linearGradient>
<linearGradient id="paint3_linear" x1="65.584" y1="62.8574" x2="154.924" y2="62.8574" gradientUnits="userSpaceOnUse">
<stop stop-color="#0D0F11"/>
<stop offset="1" stop-color="#0E1114"/>
</linearGradient>
<linearGradient id="paint4_linear" x1="134.535" y1="81.6006" x2="188.949" y2="81.6006" gradientUnits="userSpaceOnUse">
<stop stop-color="#0D0F11"/>
<stop offset="1" stop-color="#0E1114"/>
</linearGradient>
<linearGradient id="paint5_linear" x1="37.1982" y1="107.828" x2="198.016" y2="107.828" gradientUnits="userSpaceOnUse">
<stop stop-color="#0D0F11"/>
<stop offset="1" stop-color="#0E1114"/>
</linearGradient>
<linearGradient id="paint6_linear" x1="43.0137" y1="159.05" x2="203.356" y2="159.05" gradientUnits="userSpaceOnUse">
<stop stop-color="#0D0F11"/>
<stop offset="1" stop-color="#0E1114"/>
</linearGradient>
<linearGradient id="paint7_linear" x1="115.766" y1="190.122" x2="170.299" y2="190.122" gradientUnits="userSpaceOnUse">
<stop stop-color="#0D0F11"/>
<stop offset="1" stop-color="#0E1114"/>
</linearGradient>
<linearGradient id="paint8_linear" x1="126.371" y1="178.383" x2="180.47" y2="178.383" gradientUnits="userSpaceOnUse">
<stop stop-color="#0D0F11"/>
<stop offset="1" stop-color="#0E1114"/>
</linearGradient>
<linearGradient id="paint9_linear" x1="42.25" y1="135.147" x2="203.09" y2="135.147" gradientUnits="userSpaceOnUse">
<stop stop-color="#0D0F11"/>
<stop offset="1" stop-color="#0E1114"/>
</linearGradient>
<linearGradient id="paint10_linear" x1="254.536" y1="11.4741" x2="362.068" y2="11.4741" gradientUnits="userSpaceOnUse">
<stop stop-color="#0D0F11"/>
<stop offset="1" stop-color="#0E1114"/>
</linearGradient>
<linearGradient id="paint11_linear" x1="250.468" y1="28.9532" x2="375.291" y2="28.9532" gradientUnits="userSpaceOnUse">
<stop stop-color="#0D0F11"/>
<stop offset="1" stop-color="#0E1114"/>
</linearGradient>
<linearGradient id="paint12_linear" x1="218.89" y1="62.856" x2="372.07" y2="62.856" gradientUnits="userSpaceOnUse">
<stop stop-color="#0D0F11"/>
<stop offset="1" stop-color="#0E1114"/>
</linearGradient>
<linearGradient id="paint13_linear" x1="206.459" y1="107.827" x2="268.471" y2="107.827" gradientUnits="userSpaceOnUse">
<stop stop-color="#0D0F11"/>
<stop offset="1" stop-color="#0E1114"/>
</linearGradient>
<linearGradient id="paint14_linear" x1="299.922" y1="107.827" x2="365.192" y2="107.827" gradientUnits="userSpaceOnUse">
<stop stop-color="#0D0F11"/>
<stop offset="1" stop-color="#0E1114"/>
</linearGradient>
<linearGradient id="paint15_linear" x1="214.773" y1="135.147" x2="267.851" y2="135.147" gradientUnits="userSpaceOnUse">
<stop stop-color="#0D0F11"/>
<stop offset="1" stop-color="#0E1114"/>
</linearGradient>
<linearGradient id="paint16_linear" x1="301.896" y1="135.147" x2="361.289" y2="135.147" gradientUnits="userSpaceOnUse">
<stop stop-color="#0D0F11"/>
<stop offset="1" stop-color="#0E1114"/>
</linearGradient>
<linearGradient id="paint17_linear" x1="218.913" y1="159.051" x2="358.235" y2="159.051" gradientUnits="userSpaceOnUse">
<stop stop-color="#0D0F11"/>
<stop offset="1" stop-color="#0E1114"/>
</linearGradient>
<linearGradient id="paint18_linear" x1="233.473" y1="190.796" x2="323.32" y2="190.796" gradientUnits="userSpaceOnUse">
<stop stop-color="#0D0F11"/>
<stop offset="1" stop-color="#0E1114"/>
</linearGradient>
<linearGradient id="paint19_linear" x1="232.704" y1="178.383" x2="344.416" y2="178.383" gradientUnits="userSpaceOnUse">
<stop stop-color="#0D0F11"/>
<stop offset="1" stop-color="#0E1114"/>
</linearGradient>
<linearGradient id="paint20_linear" x1="441.009" y1="12.1475" x2="509.077" y2="12.1475" gradientUnits="userSpaceOnUse">
<stop stop-color="#0D0F11"/>
<stop offset="1" stop-color="#0E1114"/>
</linearGradient>
<linearGradient id="paint21_linear" x1="466.861" y1="81.6006" x2="521.275" y2="81.6006" gradientUnits="userSpaceOnUse">
<stop stop-color="#0D0F11"/>
<stop offset="1" stop-color="#0E1114"/>
</linearGradient>
<linearGradient id="paint22_linear" x1="397.908" y1="62.8574" x2="487.248" y2="62.8574" gradientUnits="userSpaceOnUse">
<stop stop-color="#0D0F11"/>
<stop offset="1" stop-color="#0E1114"/>
</linearGradient>
<linearGradient id="paint23_linear" x1="369.521" y1="107.828" x2="530.341" y2="107.828" gradientUnits="userSpaceOnUse">
<stop stop-color="#0D0F11"/>
<stop offset="1" stop-color="#0E1114"/>
</linearGradient>
<linearGradient id="paint24_linear" x1="375.34" y1="159.05" x2="535.683" y2="159.05" gradientUnits="userSpaceOnUse">
<stop stop-color="#0D0F11"/>
<stop offset="1" stop-color="#0E1114"/>
</linearGradient>
<linearGradient id="paint25_linear" x1="458.695" y1="178.383" x2="512.794" y2="178.383" gradientUnits="userSpaceOnUse">
<stop stop-color="#0D0F11"/>
<stop offset="1" stop-color="#0E1114"/>
</linearGradient>
<linearGradient id="paint26_linear" x1="448.092" y1="190.122" x2="502.624" y2="190.122" gradientUnits="userSpaceOnUse">
<stop stop-color="#0D0F11"/>
<stop offset="1" stop-color="#0E1114"/>
</linearGradient>
<linearGradient id="paint27_linear" x1="374.576" y1="135.147" x2="535.416" y2="135.147" gradientUnits="userSpaceOnUse">
<stop stop-color="#0D0F11"/>
<stop offset="1" stop-color="#0E1114"/>
</linearGradient>
<linearGradient id="paint28_linear" x1="439.787" y1="28.9532" x2="502.039" y2="28.9532" gradientUnits="userSpaceOnUse">
<stop stop-color="#0D0F11"/>
<stop offset="1" stop-color="#0E1114"/>
</linearGradient>
<linearGradient id="paint29_linear" x1="19.2559" y1="44.1294" x2="134.794" y2="44.1294" gradientUnits="userSpaceOnUse">
<stop stop-color="#0D0F11"/>
<stop offset="1" stop-color="#0E1114"/>
</linearGradient>
<linearGradient id="paint30_linear" x1="433.266" y1="45.9346" x2="536.768" y2="45.9346" gradientUnits="userSpaceOnUse">
<stop stop-color="#0D0F11"/>
<stop offset="1" stop-color="#0E1114"/>
</linearGradient>
<linearGradient id="paint31_linear" x1="280.42" y1="69.4032" x2="382.719" y2="69.4032" gradientUnits="userSpaceOnUse">
<stop stop-color="#0D0F11"/>
<stop offset="1" stop-color="#0E1114"/>
</linearGradient>
<linearGradient id="paint32_linear" x1="269.588" y1="186.144" x2="373.09" y2="186.144" gradientUnits="userSpaceOnUse">
<stop stop-color="#0D0F11"/>
<stop offset="1" stop-color="#0E1114"/>
</linearGradient>
<linearGradient id="paint33_linear" x1="161.271" y1="63.9875" x2="251.535" y2="63.9875" gradientUnits="userSpaceOnUse">
<stop stop-color="#0D0F11"/>
<stop offset="1" stop-color="#0E1114"/>
</linearGradient>
<linearGradient id="paint34_linear" x1="364.666" y1="168.693" x2="462.151" y2="168.693" gradientUnits="userSpaceOnUse">
<stop stop-color="#0D0F11"/>
<stop offset="1" stop-color="#0E1114"/>
</linearGradient>
<linearGradient id="paint35_linear" x1="471.779" y1="100.093" x2="583.706" y2="100.093" gradientUnits="userSpaceOnUse">
<stop stop-color="#0D0F11"/>
<stop offset="1" stop-color="#0E1114"/>
</linearGradient>
</defs>
</svg>
