<svg width="473" height="120" viewBox="0 0 473 120" fill="none" xmlns="http://www.w3.org/2000/svg">
<path d="M225.057 1.20337H219.386L217.836 7.22096H223.505L225.057 1.20337Z" fill="#49A7F0"/>
<path d="M48.1391 28.8843H42.468L40.918 34.9019H46.5891L48.1391 28.8843Z" fill="#49A7F0"/>
<path d="M187.748 21.6633H183.967L182.934 26.4774H186.715L187.748 21.6633Z" fill="white"/>
<path d="M438.08 4.81396H434.299L433.266 8.42452H437.046L438.08 4.81396Z" fill="white"/>
<path d="M238.296 0H234.515L233.482 3.61055H237.262L238.296 0Z" fill="white"/>
<path d="M169.569 28.8844H55.3613L56.6916 24.0703H170.899L169.569 28.8844Z" fill="white"/>
<path d="M311.999 13.2387H233.482L234.398 9.62817H312.915L311.999 13.2387Z" fill="#49A7F0"/>
<path d="M303.297 24.0704H200.986L202.18 19.2563H304.489L303.297 24.0704Z" fill="white"/>
<path d="M143.041 18.0527H0L1.38297 12.0352H144.422L143.041 18.0527Z" fill="#49A7F0"/>
<path d="M460.769 20.4598H317.729L319.11 15.6458H462.151L460.769 20.4598Z" fill="#49A7F0"/>
<path d="M84.8464 7.22096H43.3262L45.131 1.20337H86.6528L84.8464 7.22096Z" fill="#49A7F0"/>
<path d="M180.525 19.2563H152.846L154.049 15.6458H181.73L180.525 19.2563Z" fill="#49A7F0"/>
<path d="M471.779 10.8315H444.098L445.301 7.22095H472.982L471.779 10.8315Z" fill="white"/>
<path d="M309.286 102.646H303.615L302.064 108.663H307.736L309.286 102.646Z" fill="#49A7F0"/>
<path d="M162.458 113.477H155.842L154.033 119.495H160.649L162.458 113.477Z" fill="#49A7F0"/>
<path d="M43.309 106.256H37.6379L36.0879 112.274H41.7575L43.309 106.256Z" fill="#49A7F0"/>
<path d="M317.711 107.46H313.931L312.896 111.07H316.678L317.711 107.46Z" fill="white"/>
<path d="M172.086 111.07H167.36L166.068 115.884H170.795L172.086 111.07Z" fill="white"/>
<path d="M432.055 91.8141H329.746L330.938 87H433.249L432.055 91.8141Z" fill="#49A7F0"/>
<path d="M466.971 101.442H365.852L367.031 96.6282H468.151L466.971 101.442Z" fill="white"/>
<path d="M301.151 103.849H222.633L223.548 101.442H302.065L301.151 103.849Z" fill="white"/>
<path d="M197.371 105.053H95.0605L96.2538 101.442H198.563L197.371 105.053Z" fill="#49A7F0"/>
<path d="M305.738 93.0175H187.73L188.871 89.407H306.879L305.738 93.0175Z" fill="#49A7F0"/>
<path d="M158.67 95.4244H15.6289L17.0103 90.6104H160.051L158.67 95.4244Z" fill="white"/>
<path d="M338.221 101.442H311.693L312.846 97.8315H339.374L338.221 101.442Z" fill="#49A7F0"/>
<path d="M372.471 112.274H330.949L332.756 106.256H374.276L372.471 112.274Z" fill="#49A7F0"/>
<path d="M33.6812 105.053H6L7.20324 100.239H34.8844L33.6812 105.053Z" fill="#49A7F0"/>
</svg>
