<svg width="1400" height="404" viewBox="0 0 1400 404" fill="none" xmlns="http://www.w3.org/2000/svg">
<g opacity="0.08">
<path d="M1395 202.161C1395 202.161 1263.89 264.816 1189.6 207.99C1115.3 151.164 992.933 8.36948 890.959 116.194C788.986 224.018 834.146 292.501 740.913 333.299C647.68 374.097 539.879 375.554 507.83 250.245C475.781 124.936 346.129 108.908 245.612 148.249C145.096 187.591 -37 315.814 -37 315.814" stroke="white" stroke-width="0.5" stroke-miterlimit="10"/>
<path d="M1400 211.101C1399.69 210.556 1323.94 237.873 1252.78 226.102C1230.42 222.403 1209.18 215.707 1191.12 204.134C1169.79 190.468 1145.53 172.654 1120.11 155.765C1072.31 123.993 1009.26 90.5374 955.411 90.004C933.047 89.7824 910.143 98.7725 887.734 120.017C866.684 139.977 850.779 160.213 839.047 180.464C795.02 256.465 797.946 306.277 723.557 333.865C631.475 368.015 528.783 366.499 495.745 244.607C492.673 233.43 488.785 223.134 484.238 213.643C439.47 120.186 325.642 111.476 234.087 145.031C198.86 157.916 154.501 181.504 110.742 204.895C27.1914 249.553 -47 298.908 -47 298.908" stroke="white" stroke-width="0.5" stroke-miterlimit="10"/>
<path d="M1404 220.514C1403.38 219.419 1329.03 237.114 1256.24 222.115C1232.64 217.252 1210.57 210.632 1191.8 200.717C1169.48 188.933 1144.96 175.321 1120.28 163.05C1073.79 139.926 1004.32 111.628 952.074 102.128C930.135 98.1384 906.978 104.56 883.865 124.171C861.976 142.744 844.621 163.412 832.048 185.583C787.949 263.353 779.746 312.585 705.669 335.084C614.916 362.646 517.712 358.006 483.284 239.47C480.099 228.504 476.017 218.411 471.367 209.055C426.222 118.213 314.054 110.772 222.366 142.169C187.032 154.221 143.295 176.816 99.6564 197.504C14.026 238.098 -57 282.561 -57 282.561" stroke="white" stroke-width="0.5" stroke-miterlimit="10"/>
<path d="M1409 229.988C1408.07 228.351 1335.07 236.254 1260.6 218.19C1235.73 212.16 1212.8 205.675 1193.32 197.454C1169.97 187.605 1145.25 178.269 1121.25 170.645C1076.11 156.301 999.979 133.09 949.42 114.822C927.837 107.023 904.45 110.907 880.636 128.805C857.873 145.913 839.065 166.919 825.653 190.917C781.405 270.089 762.218 318.577 688.301 335.87C598.934 356.777 506.789 349.045 471.193 234.322C467.87 223.617 463.617 213.765 458.856 204.583C413.329 116.742 302.717 110.607 210.837 139.711C175.373 150.88 132.139 172.329 88.6788 190.282C0.743081 226.606 -67 266.023 -67 266.023" stroke="white" stroke-width="0.5" stroke-miterlimit="10"/>
<path d="M1413 239.221C1411.76 237.034 1340.22 235.106 1264.16 213.964C1238.07 206.712 1214.29 200.363 1194.14 193.785C1169.78 185.833 1144.95 180.713 1121.63 177.699C1077.98 172.059 995.17 153.633 946.401 126.691C925.182 114.967 901.593 116.401 877.132 132.684C853.508 148.408 833.285 169.857 819.058 195.812C774.684 276.765 744.684 324.821 670.922 336.956C583.18 351.389 496.079 340.452 459.378 228.955C455.922 218.456 451.504 208.797 446.64 199.743C400.821 114.448 291.884 109.594 199.934 136.556C164.384 146.898 121.637 167.243 78.4913 182.62C-11.7927 214.796 -76 249.426 -76 249.426" stroke="white" stroke-width="0.5" stroke-miterlimit="10"/>
<path d="M1418 248.005C1416.45 245.274 1346.27 233.454 1268.51 209.396C1241.17 200.937 1216.49 194.784 1195.67 189.866C1170.23 183.862 1145.34 182.941 1122.6 184.582C1080.5 187.619 990.835 173.969 943.751 138.624C922.888 122.963 899.024 121.995 873.904 136.595C849.364 150.858 827.714 172.655 812.66 200.453C768.067 282.802 727.354 330.29 653.548 337.14C567.42 345.135 485.11 330.934 447.284 223.174C443.689 212.928 439.106 203.508 434.13 194.623C387.984 112.257 280.55 108.715 188.406 133.41C152.725 142.877 110.329 161.948 67.5127 174.756C-25.3856 202.543 -86 232.318 -86 232.318" stroke="white" stroke-width="0.5" stroke-miterlimit="10"/>
<path d="M1422 258.111C1420.14 254.833 1351.39 233.048 1271.97 206.066C1243.39 196.356 1217.82 190.421 1196.34 187.134C1169.85 183.08 1144.95 186.268 1122.77 192.623C1082.3 204.217 985.868 195.315 940.416 151.588C919.957 131.907 895.779 128.57 870.037 141.54C844.584 154.368 821.527 176.578 805.668 206.293C760.859 290.241 709.57 337.386 635.682 338.891C551.323 340.606 473.739 322.984 434.834 218.669C431.097 208.65 426.358 199.439 421.27 190.704C374.854 111.038 268.967 108.807 176.691 131.3C140.904 139.916 98.8275 157.681 56.4309 168.041C-39.1479 191.398 -96 216.522 -96 216.522" stroke="white" stroke-width="0.5" stroke-miterlimit="10"/>
<path d="M1427 267.315C1424.83 263.487 1357.47 231.658 1276.32 201.783C1246.5 190.804 1220.01 185.112 1197.87 183.439C1170.29 181.354 1145.36 188.576 1123.74 199.724C1084.86 219.768 981.703 215.697 937.763 163.6C917.739 139.857 893.173 134.152 866.806 145.516C840.405 156.899 815.94 179.544 799.268 211.2C754.197 296.778 692.381 343.736 618.298 339.767C535.718 335.346 462.716 314.135 422.736 213.215C418.855 203.418 413.96 194.413 408.753 185.819C362.068 108.806 257.626 107.897 165.16 128.198C129.239 135.968 87.4057 152.341 45.4529 160.345C-52.9836 179.123 -106 199.757 -106 199.757" stroke="white" stroke-width="0.5" stroke-miterlimit="10"/>
<path d="M1431 275.918C1428.52 271.553 1362.62 229.784 1279.78 197.173C1248.73 184.951 1221.33 179.561 1198.54 179.488C1169.89 179.397 1144.92 190.548 1123.91 206.489C1086.57 234.81 976.907 235.646 934.429 175.408C914.886 147.693 889.904 139.632 862.944 149.37C835.599 159.245 809.743 182.254 792.28 215.727C746.956 302.594 674.704 349.319 600.44 339.776C519.732 329.406 451.299 304.539 410.29 207.395C406.264 197.858 401.221 189.089 395.896 180.676C349 106.596 246.048 107.024 153.449 125.057C117.42 131.953 75.8195 146.781 34.373 152.492C-66.936 166.45 -116 182.694 -116 182.694" stroke="white" stroke-width="0.5" stroke-miterlimit="10"/>
<path d="M1436 285.746C1433.21 280.841 1368.73 229.068 1284.14 193.713C1251.85 180.218 1223.52 175.145 1200.07 176.655C1170.33 178.569 1145.25 193.62 1124.88 214.375C1088.98 250.958 972.875 256.715 931.774 188.267C912.73 156.554 887.272 146.114 859.71 154.265C831.397 162.637 804.138 186.059 785.875 221.4C740.254 309.681 657.543 356.401 583.043 341.144C504.157 324.99 440.221 296.291 398.185 202.742C394.009 193.451 388.825 184.902 383.372 176.655C336.26 105.363 234.702 107.137 141.911 122.941C105.752 128.977 64.3335 142.204 23.39 145.73C-80.9126 154.71 -126 166.805 -126 166.805" stroke="white" stroke-width="0.5" stroke-miterlimit="10"/>
<path d="M1440 294.923C1436.9 289.469 1373.91 227.561 1287.59 189.415C1254.1 174.612 1224.84 169.866 1200.74 172.95C1169.95 176.889 1144.72 195.853 1125.05 221.464C1090.54 266.391 968.186 277.086 928.442 200.276C909.931 164.503 883.99 151.639 855.847 158.24C826.573 165.103 797.929 189.008 778.884 226.292C732.981 316.164 639.844 363.121 565.186 341.979C488.145 320.164 428.744 287.425 385.74 197.274C381.417 188.21 376.094 179.862 370.518 171.765C323.248 103.101 223.122 106.24 130.2 119.846C93.9316 125.035 52.7133 136.6 12.3107 138.033C-94.9419 141.838 -136 150.029 -136 150.029" stroke="white" stroke-width="0.5" stroke-miterlimit="10"/>
<path d="M1445 304.575C1441.59 298.554 1380.06 226.308 1291.95 185.297C1257.23 169.135 1227.04 164.73 1202.26 169.389C1170.4 175.383 1144.99 198.322 1126.02 228.853C1092.83 282.284 964.229 297.959 925.785 212.556C907.812 172.631 881.352 157.278 852.613 162.355C822.364 167.701 792.307 192.159 772.477 231.482C726.252 323.147 622.582 370.59 547.778 343.354C472.474 315.938 417.607 278.948 373.629 191.992C369.149 183.135 363.693 174.968 357.987 167.003C310.56 100.803 211.776 105.339 118.66 116.769C82.2612 121.116 41.2231 130.96 1.32453 130.376C-108.934 128.763 -146 133.279 -146 133.279" stroke="white" stroke-width="0.5" stroke-miterlimit="10"/>
<path d="M1449 313.126C1445.28 306.575 1385.27 224.37 1295.41 180.744C1259.49 163.308 1228.38 159.281 1202.94 165.484C1170.03 173.509 1144.43 200.299 1126.19 235.568C1094.32 297.234 959.6 317.794 922.453 224.259C905.041 180.418 878.069 162.631 848.752 166.175C817.546 169.948 786.089 194.841 765.493 235.985C718.967 328.922 604.75 376.709 529.932 343.409C456.329 310.649 406.082 269.523 361.19 186.245C356.555 177.647 350.975 169.703 345.139 161.92C297.611 98.5444 200.2 104.471 106.953 113.656C70.4469 117.138 29.626 125.127 -9.75266 122.604C-122.909 115.346 -156 116.392 -156 116.392" stroke="white" stroke-width="0.5" stroke-miterlimit="10"/>
<path d="M1454 323.172C1449.97 316.059 1391.45 223.463 1299.77 177.016C1262.63 158.205 1230.58 154.554 1204.46 162.327C1170.49 172.435 1144.66 203.215 1127.17 243.387C1096.58 313.622 955.685 339.167 919.795 237.009C902.942 189.035 875.436 168.702 845.516 170.747C813.337 172.947 780.453 198.418 759.082 241.593C712.215 336.269 587.289 384.743 512.511 345.109C440.464 306.921 394.88 261.385 349.072 181.345C344.277 172.967 338.576 165.199 332.601 157.563C284.968 96.6667 188.845 104.034 95.4068 111.025C58.7684 113.66 18.1717 119.775 -20.7403 115.358C-136.788 102.185 -166 100 -166 100" stroke="white" stroke-width="0.5" stroke-miterlimit="10"/>
<path d="M1458 332.193C1453.66 324.558 1396.72 222.152 1303.32 173.189C1265.03 153.117 1232.08 149.871 1205.29 159.159C1170.32 171.288 1144.28 205.867 1127.54 250.677C1098.27 329.052 951.392 359.414 916.797 249.265C900.527 197.467 872.525 174.694 842.031 175.247C808.928 175.846 774.645 201.748 752.526 246.686C705.368 342.503 569.786 391.443 495.256 345.655C424.748 302.335 383.953 252.647 337.319 176.321C332.365 168.214 326.558 160.667 320.451 153.227C272.795 95.1654 178.057 103.953 84.5421 108.706C47.8187 110.478 7.53073 114.626 -30.9051 108.4C-149.602 89.1781 -175 84 -175 84" stroke="white" stroke-width="0.5" stroke-miterlimit="10"/>
<path d="M1463 341.807C1458.35 333.605 1402.92 220.714 1307.67 168.933C1268.18 147.465 1234.3 144.616 1206.81 155.474C1170.8 169.707 1144.5 208.309 1128.51 258.035C1100.51 345.07 947.493 380.438 914.136 261.576C898.433 205.626 869.906 180.253 838.792 179.327C804.733 178.314 768.993 204.83 746.112 251.824C698.599 349.402 552.086 399.177 477.829 346.889C408.668 298.19 372.692 244.021 325.196 170.889C320.075 163.005 314.161 155.623 307.909 148.332C260.198 92.7008 166.698 102.987 72.9953 105.535C36.1422 106.457 -3.84566 108.62 -41.8933 100.593C-163.258 74.9919 -185 67 -185 67" stroke="white" stroke-width="0.5" stroke-miterlimit="10"/>
<path d="M1467 350.445C1462.04 341.734 1408.18 219.163 1311.13 164.939C1270.47 142.218 1235.66 139.791 1207.49 152.144C1170.46 168.377 1143.93 210.734 1128.68 265.01C1101.97 360.091 942.911 400.21 910.806 273.471C895.684 213.777 866.654 185.967 834.93 183.581C799.944 180.951 762.757 207.906 739.13 256.619C691.285 355.266 533.825 405.552 460 347.119C392.123 293.395 361.063 235.16 312.767 165.703C307.477 158.1 301.466 150.926 295.07 143.843C247.353 90.9996 155.129 102.742 61.292 103.07C24.3286 103.137 -15.2854 103.271 -52.9683 93.537C-176.782 61.5565 -195 51 -195 51" stroke="white" stroke-width="0.5" stroke-miterlimit="10"/>
<path d="M1472 359.823C1466.73 350.55 1414.41 217.573 1315.49 160.597C1273.63 136.487 1237.9 134.475 1209.01 148.388C1170.96 166.72 1144.05 213.049 1129.65 272.215C1104.03 375.858 939.021 421.008 908.145 285.635C893.597 221.848 864.053 191.429 831.695 187.583C795.773 183.314 757.001 210.83 732.716 261.605C684.312 361.818 515.905 413.024 442.566 348.095C375.839 289.022 349.747 226.419 300.641 160.183C295.178 152.816 289.071 145.802 282.524 138.887C234.793 88.4757 143.772 101.771 49.7435 99.8868C12.6502 99.0977 -26.5642 97.1818 -63.9576 85.7124C-190.138 47.0067 -205 34 -205 34" stroke="white" stroke-width="0.5" stroke-miterlimit="10"/>
<path d="M1476 369.816C1470.42 359.993 1419.8 216.577 1318.94 157.111C1275.97 131.559 1239.3 130.097 1209.69 145.506C1170.67 165.981 1143.53 216.21 1129.82 280.149C1105.58 392.31 934.622 442.331 904.817 298.521C890.937 230.707 860.826 197.721 827.835 192.422C791.01 186.509 750.803 214.625 725.737 267.329C677.086 369.114 497.453 421.02 424.744 349.684C359.125 285.305 338.079 218.473 288.216 155.518C282.58 148.402 276.39 141.545 269.69 134.816C221.988 86.8799 132.207 101.742 38.0441 97.6462C0.843367 96.0033 -37.8954 92.0184 -75.032 78.8401C-203.337 33.3047 -215 18 -215 18" stroke="white" stroke-width="0.5" stroke-miterlimit="10"/>
<path d="M1481 378.637C1475.11 368.271 1425.94 214.854 1323.3 152.561C1220.67 90.2676 1153.66 166.332 1130.79 286.957C1107.92 407.583 930.556 462.528 902.157 310.273C873.755 158.019 768.247 168.63 719.317 271.934C670.386 375.238 479.346 427.797 407.296 350.107C335.246 272.417 323.69 193.146 257.139 129.685C190.587 66.2235 44.314 123.396 -86.0231 70.9391C-216.36 18.4818 -225 1 -225 1" stroke="white" stroke-width="0.5" stroke-miterlimit="10"/>
</g>
</svg>
