<svg width="1400" height="476" viewBox="0 0 1400 476" fill="none" xmlns="http://www.w3.org/2000/svg">
<g opacity="0.4">
<g opacity="0.5">
<path opacity="0.5" d="M1 36.9895C1 36.9895 392.082 290.435 731.752 342.544" stroke="url(#paint0_linear)" stroke-width="0.25" stroke-miterlimit="10"/>
<path opacity="0.5" d="M1 58.8364C1 58.8364 387.35 308.109 731.752 342.544" stroke="url(#paint1_linear)" stroke-width="0.25" stroke-miterlimit="10"/>
<path opacity="0.5" d="M1 80.6833C1 80.6833 382.618 325.783 731.752 342.544" stroke="url(#paint2_linear)" stroke-width="0.25" stroke-miterlimit="10"/>
<path opacity="0.5" d="M1 102.53C1 102.53 377.885 343.457 731.752 342.544" stroke="url(#paint3_linear)" stroke-width="0.25" stroke-miterlimit="10"/>
<path opacity="0.5" d="M1 124.379C1 124.379 373.153 361.132 731.752 342.544" stroke="url(#paint4_linear)" stroke-width="0.25" stroke-miterlimit="10"/>
<path opacity="0.5" d="M1 146.226C1 146.226 368.419 378.807 731.752 342.544" stroke="url(#paint5_linear)" stroke-width="0.25" stroke-miterlimit="10"/>
<path opacity="0.5" d="M1 168.073C1 168.073 363.686 396.481 731.752 342.544" stroke="url(#paint6_linear)" stroke-width="0.25" stroke-miterlimit="10"/>
<path opacity="0.5" d="M1 189.92C1 189.92 358.954 414.154 731.752 342.544" stroke="url(#paint7_linear)" stroke-width="0.25" stroke-miterlimit="10"/>
<path opacity="0.5" d="M1 211.767C1 211.767 354.221 431.828 731.752 342.544" stroke="url(#paint8_linear)" stroke-width="0.25" stroke-miterlimit="10"/>
<path opacity="0.5" d="M1 233.614C1 233.614 349.489 449.502 731.752 342.544" stroke="url(#paint9_linear)" stroke-width="0.25" stroke-miterlimit="10"/>
<path opacity="0.5" d="M1 255.461C1 255.461 344.757 467.176 731.752 342.544" stroke="url(#paint10_linear)" stroke-width="0.25" stroke-miterlimit="10"/>
<path opacity="0.5" d="M1 277.308C1 277.308 340.024 484.85 731.752 342.544" stroke="url(#paint11_linear)" stroke-width="0.25" stroke-miterlimit="10"/>
<path opacity="0.5" d="M1 299.154C1 299.154 335.292 502.524 731.752 342.542" stroke="url(#paint12_linear)" stroke-width="0.25" stroke-miterlimit="10"/>
<path opacity="0.5" d="M1 321.003C1 321.003 330.559 520.2 731.752 342.544" stroke="url(#paint13_linear)" stroke-width="0.25" stroke-miterlimit="10"/>
<path opacity="0.5" d="M1 342.85C1 342.85 325.825 537.874 731.752 342.544" stroke="url(#paint14_linear)" stroke-width="0.25" stroke-miterlimit="10"/>
<path opacity="0.5" d="M1 364.697C1 364.697 321.093 555.548 731.752 342.544" stroke="url(#paint15_linear)" stroke-width="0.25" stroke-miterlimit="10"/>
<path opacity="0.5" d="M1 386.544C1 386.544 316.36 573.222 731.752 342.544" stroke="url(#paint16_linear)" stroke-width="0.25" stroke-miterlimit="10"/>
</g>
<g opacity="0.3">
<path opacity="0.3" d="M920.365 218.46C920.365 218.46 1105.81 -127.228 1505.84 53.0959" stroke="url(#paint17_linear)" stroke-width="0.25" stroke-miterlimit="10"/>
<path opacity="0.3" d="M920.365 218.459C920.365 218.459 968.708 138.521 1067.61 80.7693C1164.8 23.9052 1311.94 -12.982 1505.84 64.9164" stroke="url(#paint18_linear)" stroke-width="0.25" stroke-miterlimit="10"/>
<path opacity="0.3" d="M920.365 218.459C920.365 218.459 969.935 146.412 1069.78 94.9336C1167.76 44.2004 1316.42 10.3715 1505.84 76.7411" stroke="url(#paint19_linear)" stroke-width="0.25" stroke-miterlimit="10"/>
<path opacity="0.3" d="M920.365 218.459C920.365 218.459 971.162 154.305 1071.94 109.096C1170.72 64.4938 1320.91 33.7231 1505.84 88.5619" stroke="url(#paint20_linear)" stroke-width="0.25" stroke-miterlimit="10"/>
<path opacity="0.3" d="M920.365 218.46C920.365 218.46 972.389 162.196 1074.11 123.261C1173.68 84.7894 1325.39 57.0771 1505.84 100.385" stroke="url(#paint21_linear)" stroke-width="0.25" stroke-miterlimit="10"/>
<path opacity="0.3" d="M920.365 218.459C920.365 218.459 973.616 170.088 1076.27 137.425C1176.64 105.084 1329.88 80.43 1505.84 112.207" stroke="url(#paint22_linear)" stroke-width="0.25" stroke-miterlimit="10"/>
<path opacity="0.3" d="M920.365 218.459C920.365 218.459 974.898 178.189 1078.43 151.588C1179.65 125.582 1334.36 103.782 1505.84 124.03" stroke="url(#paint23_linear)" stroke-width="0.25" stroke-miterlimit="10"/>
<path opacity="0.3" d="M920.365 218.46C920.365 218.46 976.113 186.097 1080.6 165.752C1182.6 145.892 1338.85 127.136 1505.84 135.853" stroke="url(#paint24_linear)" stroke-width="0.25" stroke-miterlimit="10"/>
<path opacity="0.3" d="M920.365 218.459C920.365 218.459 977.327 193.995 1082.76 179.916C1185.55 166.191 1343.34 150.489 1505.84 147.674" stroke="url(#paint25_linear)" stroke-width="0.25" stroke-miterlimit="10"/>
<path opacity="0.3" d="M920.365 218.459C920.365 218.459 978.54 201.884 1084.93 194.081C1188.5 186.484 1347.82 173.843 1505.84 159.499" stroke="url(#paint26_linear)" stroke-width="0.25" stroke-miterlimit="10"/>
<path opacity="0.3" d="M920.365 218.459C920.365 218.459 979.753 209.764 1087.09 208.243C1191.44 206.765 1352.31 197.194 1505.84 171.319" stroke="url(#paint27_linear)" stroke-width="0.25" stroke-miterlimit="10"/>
<path opacity="0.3" d="M920.365 218.459C920.365 218.459 980.978 217.44 1089.26 222.407C1194.4 226.848 1356.79 220.548 1505.84 183.142" stroke="url(#paint28_linear)" stroke-width="0.25" stroke-miterlimit="10"/>
<path opacity="0.3" d="M920.365 218.459C920.365 218.459 982.205 225.331 1091.42 236.572C1197.36 247.143 1361.28 243.901 1505.84 194.965" stroke="url(#paint29_linear)" stroke-width="0.25" stroke-miterlimit="10"/>
<path opacity="0.3" d="M920.365 218.459C920.365 218.459 983.432 233.224 1093.58 250.737C1200.32 267.439 1365.76 267.255 1505.84 206.788" stroke="url(#paint30_linear)" stroke-width="0.25" stroke-miterlimit="10"/>
<path opacity="0.3" d="M920.365 218.459C920.365 218.459 984.659 241.115 1095.75 264.899C1203.28 287.73 1370.25 290.607 1505.84 218.608" stroke="url(#paint31_linear)" stroke-width="0.25" stroke-miterlimit="10"/>
<path opacity="0.3" d="M920.365 218.459C920.365 218.459 985.886 249.007 1097.92 279.063C1206.24 308.025 1374.73 313.96 1505.84 230.433" stroke="url(#paint32_linear)" stroke-width="0.25" stroke-miterlimit="10"/>
<path opacity="0.3" d="M920.365 218.459C920.365 218.459 987.113 256.898 1100.08 293.228C1209.2 328.321 1379.22 337.314 1505.84 242.256" stroke="url(#paint33_linear)" stroke-width="0.25" stroke-miterlimit="10"/>
</g>
<g opacity="0.8">
<path opacity="0.8" d="M10.8154 192.641C10.8154 192.641 193.224 93.0671 593.855 297.46C807.947 406.684 912.106 283.575 1015.1 283.832C1170.26 284.22 1255.33 442.412 1542 262.753" stroke="url(#paint34_linear)" stroke-width="0.25" stroke-miterlimit="10"/>
<path opacity="0.8" d="M10.8154 210.335C10.8154 210.335 204.571 84.7026 601.574 284.74C823.7 395.559 918.586 295.669 1026.29 295.061C1182.89 294.575 1273.24 434.541 1542 266.111" stroke="url(#paint35_linear)" stroke-width="0.25" stroke-miterlimit="10"/>
<path opacity="0.8" d="M10.8154 228.027C10.8154 228.027 215.208 77.7654 609.296 272.021C839.044 385.27 925.062 307.51 1037.47 306.289C1195.52 304.572 1291.16 426.671 1542 269.469" stroke="url(#paint36_linear)" stroke-width="0.25" stroke-miterlimit="10"/>
<path opacity="0.8" d="M10.8154 245.722C10.8154 245.722 226.318 69.9072 617.017 259.302C854.64 374.492 931.54 319.508 1048.66 317.516C1208.15 314.805 1309.08 418.8 1542 272.828" stroke="url(#paint37_linear)" stroke-width="0.25" stroke-miterlimit="10"/>
<path opacity="0.8" d="M10.8154 263.416C10.8154 263.416 237.494 61.9268 624.738 246.585C870.264 363.666 938.016 331.529 1059.85 328.747C1220.78 325.072 1326.99 410.932 1542 276.188" stroke="url(#paint38_linear)" stroke-width="0.25" stroke-miterlimit="10"/>
<path opacity="0.8" d="M10.8154 281.109C10.8154 281.109 248.729 53.8321 632.457 233.867C885.917 352.782 944.49 343.567 1071.03 339.975C1233.41 335.368 1344.91 403.062 1542 279.547" stroke="url(#paint39_linear)" stroke-width="0.25" stroke-miterlimit="10"/>
<path opacity="0.8" d="M10.8154 298.803C10.8154 298.803 260.016 45.6309 640.178 221.149C901.6 341.845 950.966 355.624 1082.22 351.204C1246.03 345.69 1362.83 395.194 1542 282.907" stroke="url(#paint40_linear)" stroke-width="0.25" stroke-miterlimit="10"/>
<path opacity="0.8" d="M10.8154 316.497C10.8154 316.497 271.351 37.3338 647.9 208.43C917.312 330.847 957.444 367.696 1093.4 362.432C1258.66 356.034 1380.75 387.323 1542 286.265" stroke="url(#paint41_linear)" stroke-width="0.25" stroke-miterlimit="10"/>
<path opacity="0.8" d="M10.8154 334.189C10.8154 334.189 282.729 28.9452 655.619 195.711C933.051 319.786 963.917 379.788 1104.59 373.661C1271.29 366.399 1398.66 379.453 1542 289.624" stroke="url(#paint42_linear)" stroke-width="0.25" stroke-miterlimit="10"/>
<path opacity="0.8" d="M10.8154 351.884C10.8154 351.884 294.141 20.4725 663.34 182.992C948.82 308.661 970.395 391.897 1115.78 384.888C1283.92 376.783 1416.58 371.583 1542 292.982" stroke="url(#paint43_linear)" stroke-width="0.25" stroke-miterlimit="10"/>
<path opacity="0.8" d="M10.8154 369.578C10.8154 369.578 305.588 11.9228 671.061 170.276C964.618 297.47 976.875 404.024 1126.96 396.119C1296.55 387.187 1434.5 363.715 1542 296.343" stroke="url(#paint44_linear)" stroke-width="0.25" stroke-miterlimit="10"/>
<path opacity="0.8" d="M10.8154 387.271C10.8154 387.271 317.064 3.2969 678.781 157.556C980.442 286.204 983.355 416.165 1138.15 407.347C1309.18 397.605 1452.41 355.845 1542 299.701" stroke="url(#paint45_linear)" stroke-width="0.25" stroke-miterlimit="10"/>
<path opacity="0.8" d="M10.8154 404.965C10.8154 404.965 328.564 -5.39615 686.502 144.837C996.299 274.867 989.837 428.321 1149.33 418.574C1321.82 408.033 1470.33 347.974 1542 303.06" stroke="url(#paint46_linear)" stroke-width="0.25" stroke-miterlimit="10"/>
<path opacity="0.8" d="M10.8154 422.659C10.8154 422.659 340.089 -14.1546 694.223 132.12C1012.18 263.453 996.342 440.815 1160.52 429.805C1334.48 418.819 1488.25 340.106 1542 306.42" stroke="url(#paint47_linear)" stroke-width="0.25" stroke-miterlimit="10"/>
<path opacity="0.8" d="M10.8154 440.351C10.8154 440.351 351.63 -22.9746 701.942 119.401C1028.09 251.956 1002.82 452.909 1171.71 441.033C1347.11 429.171 1506.16 332.235 1542 309.778" stroke="url(#paint48_linear)" stroke-width="0.25" stroke-miterlimit="10"/>
<path opacity="0.8" d="M10.8154 458.046C10.8154 458.046 363.416 -32.4142 709.664 106.683C1044.25 239.83 1009.3 465.004 1182.89 452.26C1359.74 439.525 1524.08 324.366 1542 313.137" stroke="url(#paint49_linear)" stroke-width="0.25" stroke-miterlimit="10"/>
<path opacity="0.8" d="M10.8154 475.74C10.8154 475.74 374.761 -40.7787 717.385 93.9654C1060.01 228.709 1015.78 477.102 1194.08 463.491C1372.38 449.88 1542 316.497 1542 316.497" stroke="url(#paint50_linear)" stroke-width="0.25" stroke-miterlimit="10"/>
</g>
</g>
<defs>
<linearGradient id="paint0_linear" x1="0.861173" y1="189.786" x2="731.79" y2="189.786" gradientUnits="userSpaceOnUse">
<stop stop-color="#87888A"/>
<stop offset="0.4974" stop-color="#E5E5E5"/>
<stop offset="1" stop-color="#7D7E80"/>
</linearGradient>
<linearGradient id="paint1_linear" x1="0.861581" y1="200.71" x2="731.777" y2="200.71" gradientUnits="userSpaceOnUse">
<stop stop-color="#87888A"/>
<stop offset="0.4974" stop-color="#E5E5E5"/>
<stop offset="1" stop-color="#7D7E80"/>
</linearGradient>
<linearGradient id="paint2_linear" x1="0.861989" y1="211.634" x2="731.764" y2="211.634" gradientUnits="userSpaceOnUse">
<stop stop-color="#87888A"/>
<stop offset="0.4974" stop-color="#E5E5E5"/>
<stop offset="1" stop-color="#7D7E80"/>
</linearGradient>
<linearGradient id="paint3_linear" x1="0.862602" y1="222.559" x2="731.752" y2="222.559" gradientUnits="userSpaceOnUse">
<stop stop-color="#87888A"/>
<stop offset="0.4974" stop-color="#E5E5E5"/>
<stop offset="1" stop-color="#7D7E80"/>
</linearGradient>
<linearGradient id="paint4_linear" x1="0.86301" y1="234" x2="731.765" y2="234" gradientUnits="userSpaceOnUse">
<stop stop-color="#87888A"/>
<stop offset="0.4974" stop-color="#E5E5E5"/>
<stop offset="1" stop-color="#7D7E80"/>
</linearGradient>
<linearGradient id="paint5_linear" x1="0.863419" y1="246.324" x2="731.777" y2="246.324" gradientUnits="userSpaceOnUse">
<stop stop-color="#87888A"/>
<stop offset="0.4974" stop-color="#E5E5E5"/>
<stop offset="1" stop-color="#7D7E80"/>
</linearGradient>
<linearGradient id="paint6_linear" x1="0.864031" y1="259.449" x2="731.789" y2="259.449" gradientUnits="userSpaceOnUse">
<stop stop-color="#87888A"/>
<stop offset="0.4974" stop-color="#E5E5E5"/>
<stop offset="1" stop-color="#7D7E80"/>
</linearGradient>
<linearGradient id="paint7_linear" x1="0.864439" y1="273.307" x2="731.8" y2="273.307" gradientUnits="userSpaceOnUse">
<stop stop-color="#87888A"/>
<stop offset="0.4974" stop-color="#E5E5E5"/>
<stop offset="1" stop-color="#7D7E80"/>
</linearGradient>
<linearGradient id="paint8_linear" x1="0.865052" y1="287.833" x2="731.81" y2="287.833" gradientUnits="userSpaceOnUse">
<stop stop-color="#87888A"/>
<stop offset="0.4974" stop-color="#E5E5E5"/>
<stop offset="1" stop-color="#7D7E80"/>
</linearGradient>
<linearGradient id="paint9_linear" x1="0.865664" y1="302.97" x2="731.82" y2="302.97" gradientUnits="userSpaceOnUse">
<stop stop-color="#87888A"/>
<stop offset="0.4974" stop-color="#E5E5E5"/>
<stop offset="1" stop-color="#7D7E80"/>
</linearGradient>
<linearGradient id="paint10_linear" x1="0.866073" y1="318.667" x2="731.83" y2="318.667" gradientUnits="userSpaceOnUse">
<stop stop-color="#87888A"/>
<stop offset="0.4974" stop-color="#E5E5E5"/>
<stop offset="1" stop-color="#7D7E80"/>
</linearGradient>
<linearGradient id="paint11_linear" x1="0.866685" y1="334.875" x2="731.839" y2="334.875" gradientUnits="userSpaceOnUse">
<stop stop-color="#87888A"/>
<stop offset="0.4974" stop-color="#E5E5E5"/>
<stop offset="1" stop-color="#7D7E80"/>
</linearGradient>
<linearGradient id="paint12_linear" x1="0.867297" y1="351.552" x2="731.847" y2="351.552" gradientUnits="userSpaceOnUse">
<stop stop-color="#87888A"/>
<stop offset="0.4974" stop-color="#E5E5E5"/>
<stop offset="1" stop-color="#7D7E80"/>
</linearGradient>
<linearGradient id="paint13_linear" x1="0.86791" y1="368.659" x2="731.855" y2="368.659" gradientUnits="userSpaceOnUse">
<stop stop-color="#87888A"/>
<stop offset="0.4974" stop-color="#E5E5E5"/>
<stop offset="1" stop-color="#7D7E80"/>
</linearGradient>
<linearGradient id="paint14_linear" x1="0.868727" y1="386.003" x2="731.862" y2="386.003" gradientUnits="userSpaceOnUse">
<stop stop-color="#87888A"/>
<stop offset="0.4974" stop-color="#E5E5E5"/>
<stop offset="1" stop-color="#7D7E80"/>
</linearGradient>
<linearGradient id="paint15_linear" x1="0.869339" y1="392.945" x2="731.869" y2="392.945" gradientUnits="userSpaceOnUse">
<stop stop-color="#87888A"/>
<stop offset="0.4974" stop-color="#E5E5E5"/>
<stop offset="1" stop-color="#7D7E80"/>
</linearGradient>
<linearGradient id="paint16_linear" x1="0.869952" y1="400.22" x2="731.876" y2="400.22" gradientUnits="userSpaceOnUse">
<stop stop-color="#87888A"/>
<stop offset="0.4974" stop-color="#E5E5E5"/>
<stop offset="1" stop-color="#7D7E80"/>
</linearGradient>
<linearGradient id="paint17_linear" x1="920.141" y1="109.662" x2="1505.95" y2="109.662" gradientUnits="userSpaceOnUse">
<stop stop-color="#87888A"/>
<stop offset="0.4974" stop-color="#E5E5E5"/>
<stop offset="1" stop-color="#7D7E80"/>
</linearGradient>
<linearGradient id="paint18_linear" x1="920.147" y1="119.394" x2="1505.94" y2="119.394" gradientUnits="userSpaceOnUse">
<stop stop-color="#87888A"/>
<stop offset="0.4974" stop-color="#E5E5E5"/>
<stop offset="1" stop-color="#7D7E80"/>
</linearGradient>
<linearGradient id="paint19_linear" x1="920.156" y1="129.103" x2="1505.93" y2="129.103" gradientUnits="userSpaceOnUse">
<stop stop-color="#87888A"/>
<stop offset="0.4974" stop-color="#E5E5E5"/>
<stop offset="1" stop-color="#7D7E80"/>
</linearGradient>
<linearGradient id="paint20_linear" x1="920.166" y1="138.777" x2="1505.92" y2="138.777" gradientUnits="userSpaceOnUse">
<stop stop-color="#87888A"/>
<stop offset="0.4974" stop-color="#E5E5E5"/>
<stop offset="1" stop-color="#7D7E80"/>
</linearGradient>
<linearGradient id="paint21_linear" x1="920.178" y1="148.395" x2="1505.9" y2="148.395" gradientUnits="userSpaceOnUse">
<stop stop-color="#87888A"/>
<stop offset="0.4974" stop-color="#E5E5E5"/>
<stop offset="1" stop-color="#7D7E80"/>
</linearGradient>
<linearGradient id="paint22_linear" x1="920.194" y1="157.911" x2="1505.89" y2="157.911" gradientUnits="userSpaceOnUse">
<stop stop-color="#87888A"/>
<stop offset="0.4974" stop-color="#E5E5E5"/>
<stop offset="1" stop-color="#7D7E80"/>
</linearGradient>
<linearGradient id="paint23_linear" x1="920.214" y1="167.243" x2="1505.87" y2="167.243" gradientUnits="userSpaceOnUse">
<stop stop-color="#87888A"/>
<stop offset="0.4974" stop-color="#E5E5E5"/>
<stop offset="1" stop-color="#7D7E80"/>
</linearGradient>
<linearGradient id="paint24_linear" x1="920.238" y1="176.041" x2="1505.86" y2="176.041" gradientUnits="userSpaceOnUse">
<stop stop-color="#87888A"/>
<stop offset="0.4974" stop-color="#E5E5E5"/>
<stop offset="1" stop-color="#7D7E80"/>
</linearGradient>
<linearGradient id="paint25_linear" x1="920.265" y1="183.056" x2="1505.85" y2="183.056" gradientUnits="userSpaceOnUse">
<stop stop-color="#87888A"/>
<stop offset="0.4974" stop-color="#E5E5E5"/>
<stop offset="1" stop-color="#7D7E80"/>
</linearGradient>
<linearGradient id="paint26_linear" x1="920.296" y1="188.973" x2="1505.87" y2="188.973" gradientUnits="userSpaceOnUse">
<stop stop-color="#87888A"/>
<stop offset="0.4974" stop-color="#E5E5E5"/>
<stop offset="1" stop-color="#7D7E80"/>
</linearGradient>
<linearGradient id="paint27_linear" x1="920.329" y1="194.889" x2="1505.89" y2="194.889" gradientUnits="userSpaceOnUse">
<stop stop-color="#87888A"/>
<stop offset="0.4974" stop-color="#E5E5E5"/>
<stop offset="1" stop-color="#7D7E80"/>
</linearGradient>
<linearGradient id="paint28_linear" x1="920.362" y1="203.396" x2="1505.91" y2="203.396" gradientUnits="userSpaceOnUse">
<stop stop-color="#87888A"/>
<stop offset="0.4974" stop-color="#E5E5E5"/>
<stop offset="1" stop-color="#7D7E80"/>
</linearGradient>
<linearGradient id="paint29_linear" x1="920.338" y1="218.242" x2="1505.93" y2="218.242" gradientUnits="userSpaceOnUse">
<stop stop-color="#87888A"/>
<stop offset="0.4974" stop-color="#E5E5E5"/>
<stop offset="1" stop-color="#7D7E80"/>
</linearGradient>
<linearGradient id="paint30_linear" x1="920.308" y1="233.509" x2="1505.95" y2="233.509" gradientUnits="userSpaceOnUse">
<stop stop-color="#87888A"/>
<stop offset="0.4974" stop-color="#E5E5E5"/>
<stop offset="1" stop-color="#7D7E80"/>
</linearGradient>
<linearGradient id="paint31_linear" x1="920.281" y1="248.872" x2="1505.96" y2="248.872" gradientUnits="userSpaceOnUse">
<stop stop-color="#87888A"/>
<stop offset="0.4974" stop-color="#E5E5E5"/>
<stop offset="1" stop-color="#7D7E80"/>
</linearGradient>
<linearGradient id="paint32_linear" x1="920.258" y1="258.497" x2="1505.98" y2="258.497" gradientUnits="userSpaceOnUse">
<stop stop-color="#87888A"/>
<stop offset="0.4974" stop-color="#E5E5E5"/>
<stop offset="1" stop-color="#7D7E80"/>
</linearGradient>
<linearGradient id="paint33_linear" x1="920.238" y1="268.177" x2="1506" y2="268.177" gradientUnits="userSpaceOnUse">
<stop stop-color="#87888A"/>
<stop offset="0.4974" stop-color="#E5E5E5"/>
<stop offset="1" stop-color="#7D7E80"/>
</linearGradient>
<linearGradient id="paint34_linear" x1="10.6931" y1="258.472" x2="1542.13" y2="258.472" gradientUnits="userSpaceOnUse">
<stop stop-color="#87888A"/>
<stop offset="0.4974" stop-color="#E5E5E5"/>
<stop offset="1" stop-color="#7D7E80"/>
</linearGradient>
<linearGradient id="paint35_linear" x1="10.6766" y1="260.275" x2="1542.13" y2="260.275" gradientUnits="userSpaceOnUse">
<stop stop-color="#87888A"/>
<stop offset="0.4974" stop-color="#E5E5E5"/>
<stop offset="1" stop-color="#7D7E80"/>
</linearGradient>
<linearGradient id="paint36_linear" x1="10.6644" y1="261.229" x2="1542.13" y2="261.229" gradientUnits="userSpaceOnUse">
<stop stop-color="#87888A"/>
<stop offset="0.4974" stop-color="#E5E5E5"/>
<stop offset="1" stop-color="#7D7E80"/>
</linearGradient>
<linearGradient id="paint37_linear" x1="10.6541" y1="261.18" x2="1542.13" y2="261.18" gradientUnits="userSpaceOnUse">
<stop stop-color="#87888A"/>
<stop offset="0.4974" stop-color="#E5E5E5"/>
<stop offset="1" stop-color="#7D7E80"/>
</linearGradient>
<linearGradient id="paint38_linear" x1="10.646" y1="260.503" x2="1542.13" y2="260.503" gradientUnits="userSpaceOnUse">
<stop stop-color="#87888A"/>
<stop offset="0.4974" stop-color="#E5E5E5"/>
<stop offset="1" stop-color="#7D7E80"/>
</linearGradient>
<linearGradient id="paint39_linear" x1="10.6392" y1="259.444" x2="1542.13" y2="259.444" gradientUnits="userSpaceOnUse">
<stop stop-color="#87888A"/>
<stop offset="0.4974" stop-color="#E5E5E5"/>
<stop offset="1" stop-color="#7D7E80"/>
</linearGradient>
<linearGradient id="paint40_linear" x1="10.6335" y1="258.309" x2="1542.13" y2="258.309" gradientUnits="userSpaceOnUse">
<stop stop-color="#87888A"/>
<stop offset="0.4974" stop-color="#E5E5E5"/>
<stop offset="1" stop-color="#7D7E80"/>
</linearGradient>
<linearGradient id="paint41_linear" x1="10.6288" y1="257.926" x2="1542.13" y2="257.926" gradientUnits="userSpaceOnUse">
<stop stop-color="#87888A"/>
<stop offset="0.4974" stop-color="#E5E5E5"/>
<stop offset="1" stop-color="#7D7E80"/>
</linearGradient>
<linearGradient id="paint42_linear" x1="10.625" y1="259.982" x2="1542.13" y2="259.982" gradientUnits="userSpaceOnUse">
<stop stop-color="#87888A"/>
<stop offset="0.4974" stop-color="#E5E5E5"/>
<stop offset="1" stop-color="#7D7E80"/>
</linearGradient>
<linearGradient id="paint43_linear" x1="10.6215" y1="261.72" x2="1542.13" y2="261.72" gradientUnits="userSpaceOnUse">
<stop stop-color="#87888A"/>
<stop offset="0.4974" stop-color="#E5E5E5"/>
<stop offset="1" stop-color="#7D7E80"/>
</linearGradient>
<linearGradient id="paint44_linear" x1="10.6184" y1="263.177" x2="1542.13" y2="263.177" gradientUnits="userSpaceOnUse">
<stop stop-color="#87888A"/>
<stop offset="0.4974" stop-color="#E5E5E5"/>
<stop offset="1" stop-color="#7D7E80"/>
</linearGradient>
<linearGradient id="paint45_linear" x1="10.616" y1="264.39" x2="1542.13" y2="264.39" gradientUnits="userSpaceOnUse">
<stop stop-color="#87888A"/>
<stop offset="0.4974" stop-color="#E5E5E5"/>
<stop offset="1" stop-color="#7D7E80"/>
</linearGradient>
<linearGradient id="paint46_linear" x1="10.6137" y1="265.392" x2="1542.13" y2="265.392" gradientUnits="userSpaceOnUse">
<stop stop-color="#87888A"/>
<stop offset="0.4974" stop-color="#E5E5E5"/>
<stop offset="1" stop-color="#7D7E80"/>
</linearGradient>
<linearGradient id="paint47_linear" x1="10.6117" y1="266.224" x2="1542.13" y2="266.224" gradientUnits="userSpaceOnUse">
<stop stop-color="#87888A"/>
<stop offset="0.4974" stop-color="#E5E5E5"/>
<stop offset="1" stop-color="#7D7E80"/>
</linearGradient>
<linearGradient id="paint48_linear" x1="10.6098" y1="266.878" x2="1542.13" y2="266.878" gradientUnits="userSpaceOnUse">
<stop stop-color="#87888A"/>
<stop offset="0.4974" stop-color="#E5E5E5"/>
<stop offset="1" stop-color="#7D7E80"/>
</linearGradient>
<linearGradient id="paint49_linear" x1="10.6082" y1="269.892" x2="1542.13" y2="269.892" gradientUnits="userSpaceOnUse">
<stop stop-color="#87888A"/>
<stop offset="0.4974" stop-color="#E5E5E5"/>
<stop offset="1" stop-color="#7D7E80"/>
</linearGradient>
<linearGradient id="paint50_linear" x1="10.6068" y1="273.586" x2="1542.16" y2="273.586" gradientUnits="userSpaceOnUse">
<stop stop-color="#87888A"/>
<stop offset="0.4974" stop-color="#E5E5E5"/>
<stop offset="1" stop-color="#7D7E80"/>
</linearGradient>
</defs>
</svg>
