<svg width="173" height="173" viewBox="0 0 173 173" fill="none" xmlns="http://www.w3.org/2000/svg">
<path d="M90.4331 163.429C135.092 163.429 171.296 127.225 171.296 82.5661C171.296 37.9069 135.092 1.70337 90.4331 1.70337C45.7738 1.70337 9.57031 37.9069 9.57031 82.5661C9.57031 127.225 45.7738 163.429 90.4331 163.429Z" fill="url(#paint0_linear)"/>
<path d="M90.4334 165.131C44.9069 165.131 7.86719 128.091 7.86719 82.5646C7.86719 37.038 44.9069 0 90.4334 0C135.96 0 172.998 37.038 172.998 82.5646C172.998 128.093 135.96 165.131 90.4334 165.131ZM90.4334 3.4053C46.7823 3.4053 11.2708 38.9168 11.2708 82.5663C11.2708 126.216 46.7823 161.729 90.4334 161.729C134.083 161.729 169.594 126.217 169.594 82.5663C169.594 38.9168 134.083 3.4053 90.4334 3.4053Z" fill="white"/>
<path d="M82.1391 173C43.624 173 9.84152 145.705 1.81072 108.095C1.66266 107.406 2.10343 106.727 2.79266 106.58C3.47849 106.434 4.16091 106.871 4.30726 107.562C12.0879 144.001 44.822 170.447 82.1391 170.447C90.5664 170.447 98.8644 169.137 106.8 166.552C107.474 166.336 108.19 166.702 108.41 167.37C108.628 168.041 108.262 168.761 107.591 168.98C99.3988 171.647 90.8353 173 82.1391 173ZM136.28 152.201C135.931 152.201 135.584 152.058 135.332 151.778C134.861 151.254 134.902 150.448 135.426 149.975C152.141 134.9 161.727 113.352 161.727 90.8591L161.726 90.5323C161.72 89.8278 162.287 89.2526 162.993 89.2475C162.993 89.2475 162.998 89.2475 163.002 89.2475C163.703 89.2475 164.273 89.8125 164.278 90.5153L164.28 90.8608C164.28 114.077 154.387 136.314 137.136 151.874C136.891 152.092 136.585 152.201 136.28 152.201ZM1.27635 92.2205C0.571805 92.2205 0 91.7321 0 91.0276V90.8591C0 67.7095 9.84663 45.5146 27.0161 29.9618C27.5385 29.4887 28.3452 29.5279 28.8183 30.0503C29.2914 30.5728 29.2523 31.3794 28.7298 31.8525C12.0947 46.9203 2.5527 68.4276 2.5527 90.8574C2.5527 91.5636 1.9809 92.2205 1.27635 92.2205ZM161.183 75.0034C160.596 75.0034 160.066 74.595 159.937 73.9959C152.097 37.6523 119.378 11.2727 82.1391 11.2727C73.6556 11.2727 65.3049 12.6001 57.3201 15.2191C56.6495 15.437 55.9297 15.0728 55.7085 14.404C55.4889 13.7335 55.8531 13.0136 56.5236 12.7924C64.7671 10.0899 73.3851 8.71997 82.1391 8.71997C120.571 8.71997 154.34 35.9454 162.432 73.4582C162.58 74.1474 162.142 74.8264 161.453 74.9745C161.363 74.9949 161.273 75.0034 161.183 75.0034Z" fill="#49A7F0"/>
<path d="M76.8379 122.518L45.6582 91.3379L56.877 80.1191L76.8379 100.082L127.259 49.6602L138.478 60.8774L76.8379 122.518Z" fill="white"/>
<path d="M76.8381 125.176L43 91.3361L56.8772 77.4589L76.8397 97.4214L127.261 47L141.138 60.8772L76.8381 125.176ZM48.3183 91.3361L76.8381 119.856L135.818 60.8772L127.26 52.3183L76.8381 102.741L56.8772 82.7788L48.3183 91.3361Z" fill="white"/>
<defs>
<linearGradient id="paint0_linear" x1="9.57031" y1="82.5661" x2="171.296" y2="82.5661" gradientUnits="userSpaceOnUse">
<stop stop-color="#0D0F11"/>
<stop offset="1" stop-color="#0E1114"/>
</linearGradient>
</defs>
</svg>
