<svg width="173" height="173" viewBox="0 0 173 173" fill="none" xmlns="http://www.w3.org/2000/svg">
<path d="M90.435 163.429C135.094 163.429 171.298 127.225 171.298 82.5661C171.298 37.9069 135.094 1.70337 90.435 1.70337C45.7758 1.70337 9.57227 37.9069 9.57227 82.5661C9.57227 127.225 45.7758 163.429 90.435 163.429Z" fill="url(#paint0_linear)"/>
<path d="M90.4334 165.131C44.9069 165.131 7.86719 128.091 7.86719 82.5646C7.86719 37.038 44.9069 0 90.4334 0C135.96 0 173 37.038 173 82.5646C172.998 128.093 135.96 165.131 90.4334 165.131ZM90.4334 3.4053C46.784 3.4053 11.2708 38.9168 11.2708 82.5663C11.2708 126.216 46.7823 161.729 90.4334 161.729C134.085 161.729 169.596 126.217 169.596 82.5663C169.594 38.9168 134.083 3.4053 90.4334 3.4053Z" fill="white"/>
<path d="M82.1391 173C43.6256 173 9.84321 145.705 1.81071 108.095C1.66435 107.406 2.10341 106.727 2.79264 106.58C3.48187 106.434 4.16089 106.871 4.30724 107.562C12.0879 144.001 44.822 170.447 82.1391 170.447C90.5664 170.447 98.8644 169.137 106.8 166.552C107.469 166.336 108.19 166.7 108.408 167.37C108.628 168.041 108.26 168.761 107.591 168.98C99.3971 171.647 90.8353 173 82.1391 173ZM136.28 152.201C135.931 152.201 135.584 152.058 135.332 151.778C134.861 151.254 134.902 150.448 135.426 149.975C152.139 134.9 161.726 113.352 161.726 90.8591V90.5238C161.726 89.8193 162.297 89.2475 163.002 89.2475C163.706 89.2475 164.278 89.8193 164.278 90.5238V90.8591C164.278 114.075 154.384 136.312 137.134 151.872C136.893 152.092 136.587 152.201 136.28 152.201ZM1.27635 92.2205C0.571805 92.2205 0 91.7321 0 91.0276V90.8591C0 67.7112 9.84662 45.5146 27.0161 29.9618C27.5385 29.4887 28.3452 29.5279 28.8183 30.0503C29.2914 30.5728 29.2522 31.3794 28.7298 31.8525C12.0947 46.922 2.5527 68.4294 2.5527 90.8591C2.5527 91.5636 1.9809 92.2205 1.27635 92.2205ZM161.184 75.0034C160.596 75.0034 160.068 74.595 159.939 73.9959C152.097 37.6523 119.378 11.2727 82.1391 11.2727C73.6556 11.2727 65.3049 12.6001 57.32 15.2191C56.6478 15.437 55.9297 15.0728 55.7084 14.404C55.4889 13.7335 55.8531 13.0136 56.5236 12.7924C64.7671 10.0899 73.3833 8.71997 82.1374 8.71997C120.569 8.71997 154.338 35.9454 162.433 73.4582C162.581 74.1474 162.144 74.8264 161.455 74.9745C161.365 74.9949 161.275 75.0034 161.184 75.0034Z" fill="#49A7F0"/>
<path d="M122.925 61.328L111.342 49.7449L86.1705 74.9179L60.9975 49.7449L49.416 61.328L74.589 86.4994L49.416 111.672L60.9975 123.254L86.1705 98.0809L111.342 123.254L122.925 111.672L97.752 86.4994L122.925 61.328Z" fill="white"/>
<path d="M111.342 126L86.1711 100.829L60.9997 126L46.6719 111.672L71.8433 86.5008L46.6719 61.3278L60.9997 47L86.1711 72.1714L111.342 47L125.67 61.3278L100.499 86.5008L125.67 111.672L111.342 126ZM86.1711 95.336L111.342 120.507L120.179 111.671L95.0079 86.4992L120.179 61.3262L111.342 52.4894L86.1711 77.6608L60.9997 52.491L52.1629 61.3278L77.3343 86.5008L52.1629 111.672L60.9997 120.509L86.1711 95.336Z" fill="white"/>
<defs>
<linearGradient id="paint0_linear" x1="9.57227" y1="82.5661" x2="171.298" y2="82.5661" gradientUnits="userSpaceOnUse">
<stop stop-color="#0D0F11"/>
<stop offset="1" stop-color="#0E1114"/>
</linearGradient>
</defs>
</svg>
