<svg width="1400" height="404" viewBox="0 0 1400 404" fill="none" xmlns="http://www.w3.org/2000/svg">
<g opacity="0.12">
<path d="M1467 202.161C1467 202.161 1335.89 264.816 1261.6 207.99C1187.3 151.164 1064.93 8.36948 962.959 116.194C860.986 224.018 906.146 292.501 812.913 333.299C719.68 374.097 611.879 375.554 579.83 250.245C547.781 124.936 418.129 108.908 317.612 148.249C217.096 187.591 35 315.814 35 315.814" stroke="white" stroke-width="0.5" stroke-miterlimit="10"/>
<path d="M1472 211.101C1471.69 210.556 1395.94 237.873 1324.78 226.102C1302.42 222.403 1281.18 215.707 1263.12 204.134C1241.79 190.468 1217.53 172.654 1192.11 155.765C1144.31 123.993 1081.26 90.5374 1027.41 90.004C1005.05 89.7824 982.143 98.7725 959.734 120.017C938.684 139.977 922.779 160.213 911.047 180.464C867.02 256.465 869.946 306.277 795.557 333.865C703.475 368.015 600.783 366.499 567.745 244.607C564.673 233.43 560.785 223.134 556.238 213.643C511.47 120.186 397.642 111.476 306.087 145.031C270.86 157.916 226.501 181.504 182.742 204.895C99.1914 249.553 25 298.908 25 298.908" stroke="white" stroke-width="0.5" stroke-miterlimit="10"/>
<path d="M1476 220.514C1475.38 219.419 1401.03 237.114 1328.24 222.115C1304.64 217.252 1282.57 210.632 1263.8 200.717C1241.48 188.933 1216.96 175.321 1192.28 163.05C1145.79 139.926 1076.32 111.628 1024.07 102.128C1002.13 98.1384 978.978 104.56 955.865 124.171C933.976 142.744 916.621 163.412 904.048 185.583C859.949 263.353 851.746 312.585 777.669 335.084C686.916 362.646 589.712 358.006 555.284 239.47C552.099 228.504 548.017 218.411 543.367 209.055C498.222 118.213 386.054 110.772 294.366 142.169C259.032 154.221 215.295 176.816 171.656 197.504C86.026 238.098 15 282.561 15 282.561" stroke="white" stroke-width="0.5" stroke-miterlimit="10"/>
<path d="M1481 229.988C1480.07 228.351 1407.07 236.254 1332.6 218.19C1307.73 212.16 1284.8 205.675 1265.32 197.454C1241.97 187.605 1217.25 178.269 1193.25 170.645C1148.11 156.301 1071.98 133.09 1021.42 114.822C999.837 107.023 976.45 110.907 952.636 128.805C929.873 145.913 911.065 166.919 897.653 190.917C853.405 270.089 834.218 318.577 760.301 335.87C670.934 356.777 578.789 349.045 543.193 234.322C539.87 223.617 535.617 213.765 530.856 204.583C485.329 116.742 374.717 110.607 282.837 139.711C247.373 150.88 204.139 172.329 160.679 190.282C72.7431 226.606 5 266.023 5 266.023" stroke="white" stroke-width="0.5" stroke-miterlimit="10"/>
<path d="M1485 239.221C1483.76 237.034 1412.22 235.106 1336.16 213.964C1310.07 206.712 1286.29 200.363 1266.14 193.785C1241.78 185.833 1216.95 180.713 1193.63 177.699C1149.98 172.059 1067.17 153.633 1018.4 126.691C997.182 114.967 973.593 116.401 949.132 132.684C925.508 148.408 905.285 169.857 891.058 195.812C846.684 276.765 816.684 324.821 742.922 336.956C655.18 351.389 568.079 340.452 531.378 228.955C527.922 218.456 523.504 208.797 518.64 199.743C472.821 114.448 363.884 109.594 271.934 136.556C236.384 146.898 193.637 167.243 150.491 182.62C60.2073 214.796 -4 249.426 -4 249.426" stroke="white" stroke-width="0.5" stroke-miterlimit="10"/>
<path d="M1490 248.005C1488.45 245.274 1418.27 233.454 1340.51 209.396C1313.17 200.937 1288.49 194.784 1267.67 189.866C1242.23 183.862 1217.34 182.941 1194.6 184.582C1152.5 187.619 1062.84 173.969 1015.75 138.624C994.888 122.963 971.024 121.995 945.904 136.595C921.364 150.858 899.714 172.655 884.66 200.453C840.067 282.802 799.354 330.29 725.548 337.14C639.42 345.135 557.11 330.934 519.284 223.174C515.689 212.928 511.106 203.508 506.13 194.623C459.984 112.257 352.55 108.715 260.406 133.41C224.725 142.877 182.329 161.948 139.513 174.756C46.6144 202.543 -14 232.318 -14 232.318" stroke="white" stroke-width="0.5" stroke-miterlimit="10"/>
<path d="M1494 258.111C1492.14 254.833 1423.39 233.048 1343.97 206.066C1315.39 196.356 1289.82 190.421 1268.34 187.134C1241.85 183.08 1216.95 186.268 1194.77 192.623C1154.3 204.217 1057.87 195.315 1012.42 151.588C991.957 131.907 967.779 128.57 942.037 141.54C916.584 154.368 893.527 176.578 877.668 206.293C832.859 290.241 781.57 337.386 707.682 338.891C623.323 340.606 545.739 322.984 506.834 218.669C503.097 208.65 498.358 199.439 493.27 190.704C446.854 111.038 340.967 108.807 248.691 131.3C212.904 139.916 170.827 157.681 128.431 168.041C32.8521 191.398 -24 216.522 -24 216.522" stroke="white" stroke-width="0.5" stroke-miterlimit="10"/>
<path d="M1499 267.315C1496.83 263.487 1429.47 231.658 1348.32 201.783C1318.5 190.804 1292.01 185.112 1269.87 183.439C1242.29 181.354 1217.36 188.576 1195.74 199.724C1156.86 219.768 1053.7 215.697 1009.76 163.6C989.739 139.857 965.173 134.152 938.806 145.516C912.405 156.899 887.94 179.544 871.268 211.2C826.197 296.778 764.381 343.736 690.298 339.767C607.718 335.346 534.716 314.135 494.736 213.215C490.855 203.418 485.96 194.413 480.753 185.819C434.068 108.806 329.626 107.897 237.16 128.198C201.239 135.968 159.406 152.341 117.453 160.345C19.0164 179.123 -34 199.757 -34 199.757" stroke="white" stroke-width="0.5" stroke-miterlimit="10"/>
<path d="M1503 275.918C1500.52 271.553 1434.62 229.784 1351.78 197.173C1320.73 184.951 1293.33 179.561 1270.54 179.488C1241.89 179.397 1216.92 190.548 1195.91 206.489C1158.57 234.81 1048.91 235.646 1006.43 175.408C986.886 147.693 961.904 139.632 934.944 149.37C907.599 159.245 881.743 182.254 864.28 215.727C818.956 302.594 746.704 349.319 672.44 339.776C591.732 329.406 523.299 304.539 482.29 207.395C478.264 197.858 473.221 189.089 467.896 180.676C421 106.596 318.048 107.024 225.449 125.057C189.42 131.953 147.819 146.781 106.373 152.492C5.06399 166.45 -44 182.694 -44 182.694" stroke="white" stroke-width="0.5" stroke-miterlimit="10"/>
<path d="M1508 285.746C1505.21 280.841 1440.73 229.068 1356.14 193.713C1323.85 180.218 1295.52 175.145 1272.07 176.655C1242.33 178.569 1217.25 193.62 1196.88 214.375C1160.98 250.958 1044.87 256.715 1003.77 188.267C984.73 156.554 959.272 146.114 931.71 154.265C903.397 162.637 876.138 186.059 857.875 221.4C812.254 309.681 729.543 356.401 655.043 341.144C576.157 324.99 512.221 296.291 470.185 202.742C466.009 193.451 460.825 184.902 455.372 176.655C408.26 105.363 306.702 107.137 213.911 122.941C177.752 128.977 136.334 142.204 95.39 145.73C-8.91258 154.71 -54 166.805 -54 166.805" stroke="white" stroke-width="0.5" stroke-miterlimit="10"/>
<path d="M1512 294.923C1508.9 289.469 1445.91 227.561 1359.59 189.415C1326.1 174.612 1296.84 169.866 1272.74 172.95C1241.95 176.889 1216.72 195.853 1197.05 221.464C1162.54 266.391 1040.19 277.086 1000.44 200.276C981.931 164.503 955.99 151.639 927.847 158.24C898.573 165.103 869.929 189.008 850.884 226.292C804.981 316.164 711.844 363.121 637.186 341.979C560.145 320.164 500.744 287.425 457.74 197.274C453.417 188.21 448.094 179.862 442.518 171.765C395.248 103.101 295.122 106.24 202.2 119.846C165.932 125.035 124.713 136.6 84.3107 138.033C-22.9419 141.838 -64 150.029 -64 150.029" stroke="white" stroke-width="0.5" stroke-miterlimit="10"/>
<path d="M1517 304.575C1513.59 298.554 1452.06 226.308 1363.95 185.297C1329.23 169.135 1299.04 164.73 1274.26 169.389C1242.4 175.383 1216.99 198.322 1198.02 228.853C1164.83 282.284 1036.23 297.959 997.785 212.556C979.812 172.631 953.352 157.278 924.613 162.355C894.364 167.701 864.307 192.159 844.477 231.482C798.252 323.147 694.582 370.59 619.778 343.354C544.474 315.938 489.607 278.948 445.629 191.992C441.149 183.135 435.693 174.968 429.987 167.003C382.56 100.803 283.776 105.339 190.66 116.769C154.261 121.116 113.223 130.96 73.3245 130.376C-36.9343 128.763 -74 133.279 -74 133.279" stroke="white" stroke-width="0.5" stroke-miterlimit="10"/>
<path d="M1521 313.126C1517.28 306.575 1457.27 224.37 1367.41 180.744C1331.49 163.308 1300.38 159.281 1274.94 165.484C1242.03 173.509 1216.43 200.299 1198.19 235.568C1166.32 297.234 1031.6 317.794 994.454 224.259C977.041 180.418 950.069 162.631 920.752 166.175C889.546 169.948 858.089 194.841 837.493 235.985C790.967 328.922 676.75 376.709 601.932 343.409C528.329 310.649 478.082 269.523 433.19 186.245C428.555 177.647 422.975 169.703 417.139 161.92C369.611 98.5444 272.2 104.471 178.953 113.656C142.447 117.138 101.626 125.127 62.2473 122.604C-50.9091 115.346 -84 116.392 -84 116.392" stroke="white" stroke-width="0.5" stroke-miterlimit="10"/>
<path d="M1526 323.172C1521.97 316.059 1463.45 223.463 1371.77 177.016C1334.63 158.205 1302.58 154.554 1276.46 162.327C1242.49 172.435 1216.66 203.215 1199.17 243.387C1168.58 313.622 1027.68 339.167 991.795 237.009C974.942 189.035 947.436 168.702 917.516 170.747C885.337 172.947 852.453 198.418 831.082 241.593C784.215 336.269 659.289 384.743 584.511 345.109C512.464 306.921 466.88 261.385 421.072 181.345C416.277 172.967 410.576 165.199 404.601 157.563C356.968 96.6667 260.845 104.034 167.407 111.025C130.768 113.66 90.1717 119.775 51.2597 115.358C-64.7883 102.185 -94 100 -94 100" stroke="white" stroke-width="0.5" stroke-miterlimit="10"/>
<path d="M1530 332.193C1525.66 324.558 1468.72 222.152 1375.32 173.189C1337.03 153.117 1304.08 149.871 1277.29 159.159C1242.32 171.288 1216.28 205.867 1199.54 250.677C1170.27 329.052 1023.39 359.414 988.797 249.265C972.527 197.467 944.525 174.694 914.031 175.247C880.928 175.846 846.645 201.748 824.526 246.686C777.368 342.503 641.786 391.443 567.256 345.655C496.748 302.335 455.953 252.647 409.319 176.321C404.365 168.214 398.558 160.667 392.451 153.227C344.795 95.1654 250.057 103.953 156.542 108.706C119.819 110.478 79.5307 114.626 41.0949 108.4C-77.6023 89.1781 -103 84 -103 84" stroke="white" stroke-width="0.5" stroke-miterlimit="10"/>
<path d="M1535 341.807C1530.35 333.605 1474.92 220.714 1379.67 168.933C1340.18 147.465 1306.3 144.616 1278.81 155.474C1242.8 169.707 1216.5 208.309 1200.51 258.035C1172.51 345.07 1019.49 380.438 986.136 261.576C970.433 205.626 941.906 180.253 910.792 179.327C876.733 178.314 840.993 204.83 818.112 251.824C770.599 349.402 624.086 399.177 549.829 346.889C480.668 298.19 444.692 244.021 397.196 170.889C392.075 163.005 386.161 155.623 379.909 148.332C332.198 92.7008 238.698 102.987 144.995 105.535C108.142 106.457 68.1543 108.62 30.1067 100.593C-91.2581 74.9919 -113 67 -113 67" stroke="white" stroke-width="0.5" stroke-miterlimit="10"/>
<path d="M1539 350.445C1534.04 341.734 1480.18 219.163 1383.13 164.939C1342.47 142.218 1307.66 139.791 1279.49 152.144C1242.46 168.377 1215.93 210.734 1200.68 265.01C1173.97 360.091 1014.91 400.21 982.806 273.471C967.684 213.777 938.654 185.967 906.93 183.581C871.944 180.951 834.757 207.906 811.13 256.619C763.285 355.266 605.825 405.552 532 347.119C464.123 293.395 433.063 235.16 384.767 165.703C379.477 158.1 373.466 150.926 367.07 143.843C319.353 90.9996 227.129 102.742 133.292 103.07C96.3286 103.137 56.7146 103.271 19.0317 93.537C-104.782 61.5565 -123 51 -123 51" stroke="white" stroke-width="0.5" stroke-miterlimit="10"/>
<path d="M1544 359.823C1538.73 350.55 1486.41 217.573 1387.49 160.597C1345.63 136.487 1309.9 134.475 1281.01 148.388C1242.96 166.72 1216.05 213.049 1201.65 272.215C1176.03 375.858 1011.02 421.008 980.145 285.635C965.597 221.848 936.053 191.429 903.695 187.583C867.773 183.314 829.001 210.83 804.716 261.605C756.312 361.818 587.905 413.024 514.566 348.095C447.839 289.022 421.747 226.419 372.641 160.183C367.178 152.816 361.071 145.802 354.524 138.887C306.793 88.4757 215.772 101.771 121.743 99.8868C84.6502 99.0977 45.4358 97.1818 8.04245 85.7124C-118.138 47.0067 -133 34 -133 34" stroke="white" stroke-width="0.5" stroke-miterlimit="10"/>
<path d="M1548 369.816C1542.42 359.993 1491.8 216.577 1390.94 157.111C1347.97 131.559 1311.3 130.097 1281.69 145.506C1242.67 165.981 1215.53 216.21 1201.82 280.149C1177.58 392.31 1006.62 442.331 976.817 298.521C962.937 230.707 932.826 197.721 899.835 192.422C863.01 186.509 822.803 214.625 797.737 267.329C749.086 369.114 569.453 421.02 496.744 349.684C431.125 285.305 410.079 218.473 360.216 155.518C354.58 148.402 348.39 141.545 341.69 134.816C293.988 86.8799 204.207 101.742 110.044 97.6462C72.8434 96.0033 34.1046 92.0184 -3.03199 78.8401C-131.337 33.3047 -143 18 -143 18" stroke="white" stroke-width="0.5" stroke-miterlimit="10"/>
<path d="M1553 378.637C1547.11 368.271 1497.94 214.854 1395.3 152.561C1292.67 90.2676 1225.66 166.332 1202.79 286.957C1179.92 407.583 1002.56 462.528 974.157 310.273C945.755 158.019 840.247 168.63 791.317 271.934C742.386 375.238 551.346 427.797 479.296 350.107C407.246 272.417 395.69 193.146 329.139 129.685C262.587 66.2235 116.314 123.396 -14.0231 70.9391C-144.36 18.4818 -153 1 -153 1" stroke="white" stroke-width="0.5" stroke-miterlimit="10"/>
</g>
</svg>
