<svg width="20" height="20" viewBox="0 0 20 20" fill="none" xmlns="http://www.w3.org/2000/svg">
<path d="M14.9559 0.473655C11.6675 -0.157885 8.33267 -0.157885 5.04359 0.473655C3.60503 0.797127 1.7952 2.54798 1.44138 3.95629C0.852874 6.68123 0.852874 9.44358 1.44138 12.1685C1.7952 13.5768 3.60503 15.3277 5.04359 15.6512C5.04396 15.6512 5.04432 15.6513 5.04468 15.6514C5.10876 15.6641 5.15548 15.7201 5.15548 15.786V19.7779C5.15548 19.9774 5.39669 20.0757 5.53401 19.9312L7.41213 17.9852C7.41213 17.9852 8.90875 16.4342 9.17786 16.1553C9.20416 16.128 9.24049 16.1133 9.27812 16.1143C11.1743 16.1673 13.0726 16.0127 14.9559 15.6512C16.3944 15.3278 18.205 13.5769 18.5581 12.1686C19.1473 9.44365 19.1473 6.68131 18.5581 3.95637C18.2049 2.54798 16.3951 0.797127 14.9559 0.473655ZM15.006 12.3718C14.7183 12.9885 14.2996 13.5016 13.6957 13.8291C13.5254 13.9215 13.3217 13.9514 13.1294 14.0111C12.9082 13.9434 12.6975 13.8978 12.5017 13.8158C10.4735 12.9663 8.60687 11.8703 7.12827 10.1902C6.28744 9.23483 5.62926 8.15622 5.07302 7.01475C4.80921 6.47343 4.58689 5.91091 4.36028 5.35206C4.15357 4.84243 4.458 4.31593 4.77848 3.93194C5.07919 3.57158 5.46615 3.29578 5.88522 3.09253C6.21231 2.93387 6.53497 3.02534 6.77386 3.30524C7.29029 3.91038 7.76465 4.54646 8.14878 5.24791C8.38498 5.67935 8.32017 6.20673 7.89209 6.50035C7.78805 6.57172 7.69323 6.65549 7.59631 6.7361C7.51131 6.80673 7.43131 6.8781 7.37304 6.97375C7.26653 7.14869 7.26145 7.35517 7.33003 7.54544C7.85794 9.01008 8.74774 10.149 10.208 10.7624C10.4417 10.8605 10.6763 10.9748 10.9455 10.9431C11.3963 10.89 11.5423 10.3907 11.8582 10.1299C12.1669 9.87502 12.5615 9.87165 12.8941 10.0841C13.2268 10.2967 13.5493 10.5249 13.8699 10.7555C14.1846 10.9819 14.4978 11.2033 14.7881 11.4614C15.067 11.7094 15.1631 12.0349 15.006 12.3718ZM12.3872 7.59898C12.2613 7.60126 12.3108 7.59876 12.3587 7.59737C12.1558 7.59018 12.0454 7.46959 12.0236 7.27353C12.0077 7.13028 11.9951 6.98512 11.9613 6.84575C11.8946 6.57128 11.75 6.3169 11.5214 6.14871C11.4134 6.06928 11.2911 6.01133 11.1629 5.97407C11.0001 5.92661 10.831 5.93967 10.6686 5.89947C10.4922 5.8559 10.3946 5.71162 10.4223 5.54453C10.4475 5.39248 10.594 5.2738 10.7586 5.28583C11.7872 5.36079 12.5223 5.89764 12.6272 7.12015C12.6346 7.20641 12.6433 7.29751 12.6244 7.38003C12.5936 7.51419 12.4986 7.58402 12.4026 7.59671C12.4105 7.59685 12.409 7.59751 12.3872 7.59898ZM11.7477 4.80297C11.432 4.64695 11.0907 4.54999 10.7447 4.49219C10.5935 4.46695 10.4407 4.45162 10.2888 4.43028C10.1047 4.40446 10.0065 4.286 10.0151 4.10285C10.0233 3.93121 10.1475 3.80776 10.3328 3.81832C10.9416 3.85324 11.5297 3.98607 12.071 4.27544C13.1717 4.86392 13.8004 5.79282 13.984 7.03316C13.9923 7.08935 14.0056 7.14502 14.0098 7.20143C14.0203 7.34064 14.0268 7.48008 14.0374 7.66368C14.033 7.69712 14.0307 7.77575 14.0114 7.84984C13.9409 8.11874 13.5371 8.1524 13.4441 7.88101C13.4166 7.80047 13.4125 7.70886 13.4123 7.62216C13.4114 7.05487 13.2892 6.48818 13.0059 5.99461C12.7146 5.48747 12.2695 5.06101 11.7477 4.80297ZM15.1488 8.63629C14.9361 8.63886 14.8404 8.45923 14.8266 8.26668C14.7993 7.88556 14.7804 7.50275 14.7283 7.12478C14.4537 5.12959 12.8778 3.47894 10.9107 3.12473C10.6147 3.0714 10.3117 3.0574 10.0119 3.02563C9.82238 3.00554 9.57412 2.99395 9.53212 2.75607C9.49688 2.55664 9.66363 2.39784 9.85173 2.38764C9.90288 2.38485 9.95432 2.3872 10.0057 2.38742C12.5533 2.45952 10.1612 2.39299 10.0125 2.38779C12.6624 2.46576 14.838 4.24228 15.3046 6.88786C15.3842 7.33903 15.4125 7.80033 15.4479 8.25825C15.4627 8.45079 15.3547 8.6338 15.1488 8.63629Z" fill="white"/>
</svg>
