<svg width="20" height="20" viewBox="0 0 20 20" fill="none" xmlns="http://www.w3.org/2000/svg">
<path d="M17.4078 12.7597C16.3274 12.7597 15.2665 12.5907 14.2612 12.2585C13.7686 12.0905 13.1631 12.2446 12.8624 12.5534L10.8782 14.0513C8.57706 12.8229 7.1596 11.4059 5.94802 9.12208L7.40183 7.18955C7.77954 6.81234 7.91502 6.26134 7.75271 5.74433C7.41907 4.73377 7.24958 3.67343 7.24958 2.59255C7.24963 1.81171 6.61438 1.17647 5.83359 1.17647H2.59279C1.812 1.17647 1.17676 1.81171 1.17676 2.5925C1.17676 11.5424 8.4579 18.8235 17.4078 18.8235C18.1886 18.8235 18.8238 18.1882 18.8238 17.4074V14.1757C18.8238 13.395 18.1885 12.7597 17.4078 12.7597Z" fill="white"/>
</svg>
