<svg width="17" height="18" viewBox="0 0 17 18" fill="none" xmlns="http://www.w3.org/2000/svg">
<path d="M14.875 0.839355H2.125C0.953062 0.839355 0 1.79242 0 2.96436V12.5269C0 13.6988 0.953062 14.6519 2.125 14.6519H3.1875V17.3081C3.1875 17.5142 3.3065 17.7023 3.4935 17.7894C3.56469 17.8224 3.64225 17.8394 3.71875 17.8394C3.84094 17.8394 3.96206 17.7969 4.05875 17.7161L7.73606 14.6519H14.875C16.0469 14.6519 17 13.6988 17 12.5269V2.96436C17 1.79242 16.0469 0.839355 14.875 0.839355ZM9.03125 9.33936H4.78125C4.488 9.33936 4.25 9.10136 4.25 8.80811C4.25 8.51486 4.488 8.27686 4.78125 8.27686H9.03125C9.3245 8.27686 9.5625 8.51486 9.5625 8.80811C9.5625 9.10136 9.3245 9.33936 9.03125 9.33936ZM12.2188 6.15186H4.78125C4.488 6.15186 4.25 5.91386 4.25 5.62061C4.25 5.32736 4.488 5.08936 4.78125 5.08936H12.2188C12.512 5.08936 12.75 5.32736 12.75 5.62061C12.75 5.91386 12.512 6.15186 12.2188 6.15186Z" fill="white"/>
</svg>
