<svg width="20" height="20" viewBox="0 0 20 20" fill="none" xmlns="http://www.w3.org/2000/svg">
<g clip-path="url(#clip0)">
<path d="M19.9851 4.30866C19.9851 4.2858 20.0009 4.26356 19.9998 4.24097L13.8965 10.1218L19.9925 15.8148C19.9961 15.7742 19.9851 15.7332 19.9851 15.6916V4.30866Z" fill="white"/>
<path d="M12.9653 11.0269L10.4737 13.424C10.3477 13.5453 10.1848 13.6062 10.0219 13.6062C9.86236 13.6062 9.70283 13.548 9.57762 13.4313L7.09284 11.1158L0.957031 17.0301C1.10623 17.0837 1.26637 17.1253 1.43407 17.1253H18.6098C18.8588 17.1253 19.0924 17.0494 19.2955 16.9363L12.9653 11.0269Z" fill="white"/>
<path d="M10.015 12.057L19.3295 3.08438C19.1186 2.95899 18.8731 2.87488 18.61 2.87488H1.43428C1.09166 2.87488 0.777718 3.00791 0.533203 3.2108L10.015 12.057Z" fill="white"/>
<path d="M0 4.52725V15.6915C0 15.8197 0.0294565 15.9432 0.0614329 16.0613L6.12113 10.226L0 4.52725Z" fill="white"/>
</g>
<defs>
<clipPath id="clip0">
<rect width="20" height="20" fill="white"/>
</clipPath>
</defs>
</svg>
