<svg width="104" height="18" viewBox="0 0 104 18" fill="none" xmlns="http://www.w3.org/2000/svg">
<path d="M6.59 1.6C8.702 1.6 10.4547 2.34067 11.848 3.822C13.256 5.30333 13.96 7.12933 13.96 9.3C13.96 11.456 13.256 13.282 11.848 14.778C10.4547 16.2593 8.702 17 6.59 17H0.54V1.6H6.59ZM6.59 14.58C8.042 14.58 9.22267 14.0813 10.132 13.084C11.056 12.0867 11.518 10.8253 11.518 9.3C11.518 7.76 11.056 6.49867 10.132 5.516C9.22267 4.51867 8.042 4.02 6.59 4.02H3.07V14.58H6.59ZM21.3046 17.286C19.6912 17.286 18.3199 16.7287 17.1906 15.614C16.0612 14.4993 15.4966 13.128 15.4966 11.5C15.4966 9.872 16.0612 8.50067 17.1906 7.386C18.3199 6.27133 19.6912 5.714 21.3046 5.714C22.9326 5.714 24.3039 6.27133 25.4186 7.386C26.5479 8.50067 27.1126 9.872 27.1126 11.5C27.1126 13.128 26.5479 14.4993 25.4186 15.614C24.3039 16.7287 22.9326 17.286 21.3046 17.286ZM18.8626 13.986C19.5226 14.646 20.3366 14.976 21.3046 14.976C22.2726 14.976 23.0866 14.646 23.7466 13.986C24.4066 13.326 24.7366 12.4973 24.7366 11.5C24.7366 10.5027 24.4066 9.674 23.7466 9.014C23.0866 8.354 22.2726 8.024 21.3046 8.024C20.3366 8.024 19.5226 8.354 18.8626 9.014C18.2026 9.674 17.8726 10.5027 17.8726 11.5C17.8726 12.4973 18.2026 13.326 18.8626 13.986ZM36.675 6H39.051V17H36.675V15.592C35.9563 16.7213 34.8197 17.286 33.265 17.286C32.0037 17.286 30.9843 16.8827 30.207 16.076C29.4297 15.2693 29.041 14.162 29.041 12.754V6H31.417V12.512C31.417 13.3333 31.637 13.964 32.077 14.404C32.517 14.844 33.1183 15.064 33.881 15.064C34.717 15.064 35.3917 14.8073 35.905 14.294C36.4183 13.766 36.675 12.9667 36.675 11.896V6ZM48.0554 5.714C49.566 5.714 50.8567 6.27133 51.9274 7.386C52.998 8.50067 53.5334 9.872 53.5334 11.5C53.5334 13.1133 52.998 14.4847 51.9274 15.614C50.8567 16.7287 49.566 17.286 48.0554 17.286C46.3834 17.286 45.1 16.6627 44.2054 15.416V17H41.8294V1.6H44.2054V7.562C45.1 6.33 46.3834 5.714 48.0554 5.714ZM45.1954 14.03C45.8554 14.69 46.684 15.02 47.6814 15.02C48.6787 15.02 49.5074 14.69 50.1674 14.03C50.8274 13.3553 51.1574 12.512 51.1574 11.5C51.1574 10.488 50.8274 9.652 50.1674 8.992C49.5074 8.31733 48.6787 7.98 47.6814 7.98C46.684 7.98 45.8554 8.31733 45.1954 8.992C44.5354 9.652 44.2054 10.488 44.2054 11.5C44.2054 12.512 44.5354 13.3553 45.1954 14.03ZM55.6868 17V0.94H58.0628V17H55.6868ZM62.6915 12.512C62.8675 13.348 63.2709 13.9933 63.9015 14.448C64.5322 14.888 65.3022 15.108 66.2115 15.108C67.4729 15.108 68.4189 14.6533 69.0495 13.744L71.0075 14.888C69.9222 16.4867 68.3162 17.286 66.1895 17.286C64.4002 17.286 62.9555 16.7433 61.8555 15.658C60.7555 14.558 60.2055 13.172 60.2055 11.5C60.2055 9.85733 60.7482 8.486 61.8335 7.386C62.9189 6.27133 64.3122 5.714 66.0135 5.714C67.6269 5.714 68.9469 6.27867 69.9735 7.408C71.0149 8.53733 71.5355 9.90867 71.5355 11.522C71.5355 11.7713 71.5062 12.1013 71.4475 12.512H62.6915ZM62.6695 10.576H69.1375C68.9762 9.68133 68.6022 9.00667 68.0155 8.552C67.4435 8.09733 66.7689 7.87 65.9915 7.87C65.1115 7.87 64.3782 8.112 63.7915 8.596C63.2049 9.08 62.8309 9.74 62.6695 10.576ZM90.8962 17H87.8822L81.8102 9.674V17H79.2802V1.6H81.8102V8.508L87.6622 1.6H90.6762L84.4502 9.102L90.8962 17ZM94.6261 3.91C94.3328 4.20333 93.9808 4.35 93.5701 4.35C93.1594 4.35 92.8001 4.20333 92.4921 3.91C92.1988 3.602 92.0521 3.24267 92.0521 2.832C92.0521 2.42133 92.1988 2.06933 92.4921 1.776C92.7854 1.468 93.1448 1.314 93.5701 1.314C93.9954 1.314 94.3548 1.468 94.6481 1.776C94.9414 2.06933 95.0881 2.42133 95.0881 2.832C95.0881 3.24267 94.9341 3.602 94.6261 3.91ZM92.3821 17V6H94.7581V17H92.3821ZM103.655 8.288H100.927V13.568C100.927 14.0227 101.03 14.3527 101.235 14.558C101.44 14.7487 101.741 14.8587 102.137 14.888C102.548 14.9027 103.054 14.8953 103.655 14.866V17C101.836 17.22 100.531 17.066 99.7389 16.538C98.9469 15.9953 98.5509 15.0053 98.5509 13.568V8.288H96.5269V6H98.5509V3.624L100.927 2.92V6H103.655V8.288Z" fill="white"/>
</svg>
