<svg width="146" height="18" viewBox="0 0 146 18" fill="none" xmlns="http://www.w3.org/2000/svg">
<path d="M33.1702 14.9869C31.4992 16.6421 29.4656 17.4697 27.0695 17.4697C24.6734 17.4697 22.6398 16.6421 20.9688 14.9869C19.3136 13.3159 18.486 11.2745 18.486 8.86255C18.486 6.45065 19.3136 4.41709 20.9688 2.76186C22.6398 1.09087 24.6734 0.255371 27.0695 0.255371C29.4656 0.255371 31.4992 1.09087 33.1702 2.76186C34.8412 4.41709 35.6767 6.45065 35.6767 8.86255C35.6767 11.2745 34.8412 13.3159 33.1702 14.9869ZM23.2625 12.7642C24.2871 13.7731 25.5561 14.2775 27.0695 14.2775C28.5828 14.2775 29.8519 13.7731 30.8765 12.7642C31.9012 11.7395 32.4135 10.439 32.4135 8.86255C32.4135 7.28615 31.9012 5.98561 30.8765 4.96095C29.8519 3.93628 28.5828 3.42395 27.0695 3.42395C25.5561 3.42395 24.2871 3.93628 23.2625 4.96095C22.2378 5.98561 21.7255 7.28615 21.7255 8.86255C21.7255 10.439 22.2378 11.7395 23.2625 12.7642Z" fill="white"/>
<path d="M46.1701 17.7056C44.3257 17.7056 42.8124 17.1854 41.6301 16.1449C40.4478 15.1045 39.8566 13.7094 39.8566 11.9596V0.822266H43.0961V11.6995C43.0961 12.5665 43.3405 13.2522 43.8292 13.7567C44.3336 14.2611 45.1139 14.5134 46.1701 14.5134C47.2263 14.5134 47.9988 14.2611 48.4875 13.7567C48.9919 13.2522 49.2441 12.5665 49.2441 11.6995V0.822266H52.5073V11.9596C52.5073 13.7094 51.9161 15.1045 50.7338 16.1449C49.5515 17.1854 48.0303 17.7056 46.1701 17.7056Z" fill="white"/>
<path d="M67.6914 8.791C69.1417 9.6265 69.8668 10.8876 69.8668 12.5744C69.8668 13.9774 69.3703 15.1282 68.3771 16.0267C67.384 16.9253 66.1623 17.3745 64.712 17.3745H57.6891V0.822266H64.2154C65.6342 0.822266 66.8244 1.26366 67.786 2.14645C68.7633 3.01347 69.252 4.12484 69.252 5.48055C69.252 6.85202 68.7318 7.95551 67.6914 8.791ZM64.2154 3.87261H60.9522V7.51411H64.2154C64.7199 7.51411 65.1376 7.34071 65.4687 6.9939C65.8155 6.64709 65.9889 6.21358 65.9889 5.69336C65.9889 5.17315 65.8233 4.73964 65.4923 4.39283C65.1613 4.04602 64.7356 3.87261 64.2154 3.87261ZM64.712 14.3242C65.2637 14.3242 65.7209 14.1429 66.0835 13.7803C66.446 13.402 66.6273 12.9291 66.6273 12.3616C66.6273 11.8098 66.446 11.3527 66.0835 10.9901C65.7209 10.6118 65.2637 10.4226 64.712 10.4226H60.9522V14.3242H64.712Z" fill="white"/>
<path d="M77.2265 14.2533H83.5401V17.3745H73.9634V0.822266H77.2265V14.2533Z" fill="white"/>
<path d="M90.6705 14.2533H97.6461V17.3745H87.4073V0.822266H97.5279V3.94355H90.6705V7.46682H96.9367V10.5408H90.6705V14.2533Z" fill="white"/>
<path d="M126.796 0.822266H130.06V17.3745H126.796V0.822266Z" fill="white"/>
<path d="M146 0.822266V3.94355H141.531V17.3745H138.268V3.94355H133.823V0.822266H146Z" fill="white"/>
<path fill-rule="evenodd" clip-rule="evenodd" d="M12.2487 2.99519C10.7353 1.40302 8.84364 0.606934 6.57362 0.606934H0V3.71268H5.93219V3.72822H6.57362C8.00815 3.72822 9.17469 4.20902 10.0732 5.17063C10.9718 6.11648 11.4211 7.35396 11.4211 8.88307C11.4211 10.4122 10.9718 11.6575 10.0732 12.6192C9.17469 13.565 8.00815 14.0379 6.57362 14.0379H3.26316V8.91482H0V17.1592H6.57362C8.84364 17.1592 10.7353 16.3631 12.2487 14.771C13.7778 13.1788 14.5424 11.2162 14.5424 8.88307C14.5424 6.54999 13.7778 4.58736 12.2487 2.99519Z" fill="#49A7F0"/>
<path fill-rule="evenodd" clip-rule="evenodd" d="M110.4 12.5054V17.4165H113.663V9.66061L119.575 17.4165H123.334L116.973 8.90393L123.098 0.864258H119.345L110.4 12.5054ZM113.661 0.864258H110.4V5.10781L113.661 0.864258Z" fill="#49A7F0"/>
</svg>
