<svg width="1400" height="495" viewBox="0 0 1400 495" fill="none" xmlns="http://www.w3.org/2000/svg">
<g opacity="0.5">
<g opacity="0.5">
<path opacity="0.5" d="M-8 38.3906C-8 38.3906 398.309 301.704 751.204 355.842" stroke="url(#paint0_linear)" stroke-width="0.25" stroke-miterlimit="10"/>
<path opacity="0.5" d="M-8 61.0881C-8 61.0881 393.393 320.066 751.204 355.842" stroke="url(#paint1_linear)" stroke-width="0.25" stroke-miterlimit="10"/>
<path opacity="0.5" d="M-8 83.7854C-8 83.7854 388.476 338.428 751.204 355.842" stroke="url(#paint2_linear)" stroke-width="0.25" stroke-miterlimit="10"/>
<path opacity="0.5" d="M-8 106.483C-8 106.483 383.56 356.79 751.204 355.842" stroke="url(#paint3_linear)" stroke-width="0.25" stroke-miterlimit="10"/>
<path opacity="0.5" d="M-8 129.182C-8 129.182 378.643 375.154 751.204 355.842" stroke="url(#paint4_linear)" stroke-width="0.25" stroke-miterlimit="10"/>
<path opacity="0.5" d="M-8 151.88C-8 151.88 373.724 393.516 751.204 355.842" stroke="url(#paint5_linear)" stroke-width="0.25" stroke-miterlimit="10"/>
<path opacity="0.5" d="M-8 174.578C-8 174.578 368.808 411.878 751.204 355.842" stroke="url(#paint6_linear)" stroke-width="0.25" stroke-miterlimit="10"/>
<path opacity="0.5" d="M-8 197.275C-8 197.275 363.891 430.24 751.204 355.842" stroke="url(#paint7_linear)" stroke-width="0.25" stroke-miterlimit="10"/>
<path opacity="0.5" d="M-8 219.973C-8 219.973 358.974 448.603 751.204 355.842" stroke="url(#paint8_linear)" stroke-width="0.25" stroke-miterlimit="10"/>
<path opacity="0.5" d="M-8 242.67C-8 242.67 354.058 466.965 751.204 355.842" stroke="url(#paint9_linear)" stroke-width="0.25" stroke-miterlimit="10"/>
<path opacity="0.5" d="M-8 265.368C-8 265.368 349.141 485.327 751.204 355.842" stroke="url(#paint10_linear)" stroke-width="0.25" stroke-miterlimit="10"/>
<path opacity="0.5" d="M-8 288.066C-8 288.066 344.224 503.689 751.204 355.842" stroke="url(#paint11_linear)" stroke-width="0.25" stroke-miterlimit="10"/>
<path opacity="0.5" d="M-8 310.763C-8 310.763 339.308 522.051 751.204 355.84" stroke="url(#paint12_linear)" stroke-width="0.25" stroke-miterlimit="10"/>
<path opacity="0.5" d="M-8 333.463C-8 333.463 334.391 540.415 751.204 355.842" stroke="url(#paint13_linear)" stroke-width="0.25" stroke-miterlimit="10"/>
<path opacity="0.5" d="M-8 356.16C-8 356.16 329.472 558.778 751.204 355.842" stroke="url(#paint14_linear)" stroke-width="0.25" stroke-miterlimit="10"/>
<path opacity="0.5" d="M-8 378.858C-8 378.858 324.556 577.14 751.204 355.842" stroke="url(#paint15_linear)" stroke-width="0.25" stroke-miterlimit="10"/>
<path opacity="0.5" d="M-8 401.556C-8 401.556 319.639 595.502 751.204 355.842" stroke="url(#paint16_linear)" stroke-width="0.25" stroke-miterlimit="10"/>
</g>
<g opacity="0.3">
<path opacity="0.3" d="M947.161 226.926C947.161 226.926 1139.82 -132.221 1555.44 55.1243" stroke="url(#paint17_linear)" stroke-width="0.25" stroke-miterlimit="10"/>
<path opacity="0.3" d="M947.161 226.926C947.161 226.926 997.386 143.876 1100.14 83.8753C1201.11 24.7972 1353.98 -13.5262 1555.44 67.4052" stroke="url(#paint18_linear)" stroke-width="0.25" stroke-miterlimit="10"/>
<path opacity="0.3" d="M947.161 226.926C947.161 226.926 998.661 152.074 1102.39 98.5914C1204.18 45.8828 1358.64 10.7368 1555.44 79.6905" stroke="url(#paint19_linear)" stroke-width="0.25" stroke-miterlimit="10"/>
<path opacity="0.3" d="M947.161 226.927C947.161 226.927 999.935 160.274 1104.64 113.305C1207.26 66.9663 1363.3 34.9976 1555.43 91.9715" stroke="url(#paint20_linear)" stroke-width="0.25" stroke-miterlimit="10"/>
<path opacity="0.3" d="M947.161 226.927C947.161 226.927 1001.21 168.472 1106.89 128.021C1210.34 88.0518 1367.96 59.2605 1555.44 104.255" stroke="url(#paint21_linear)" stroke-width="0.25" stroke-miterlimit="10"/>
<path opacity="0.3" d="M947.161 226.926C947.161 226.926 1002.48 176.672 1109.14 142.737C1213.41 109.137 1372.62 83.5229 1555.44 116.537" stroke="url(#paint22_linear)" stroke-width="0.25" stroke-miterlimit="10"/>
<path opacity="0.3" d="M947.161 226.926C947.161 226.926 1003.82 185.088 1111.38 157.451C1216.54 130.433 1377.28 107.784 1555.44 128.821" stroke="url(#paint23_linear)" stroke-width="0.25" stroke-miterlimit="10"/>
<path opacity="0.3" d="M947.161 226.927C947.161 226.927 1005.08 193.304 1113.63 172.167C1219.61 151.533 1381.94 132.047 1555.44 141.104" stroke="url(#paint24_linear)" stroke-width="0.25" stroke-miterlimit="10"/>
<path opacity="0.3" d="M947.161 226.926C947.161 226.926 1006.34 201.51 1115.88 186.883C1222.67 172.623 1386.6 156.31 1555.44 153.385" stroke="url(#paint25_linear)" stroke-width="0.25" stroke-miterlimit="10"/>
<path opacity="0.3" d="M947.161 226.927C947.161 226.927 1007.6 209.706 1118.13 201.599C1225.73 193.706 1391.26 180.573 1555.44 165.67" stroke="url(#paint26_linear)" stroke-width="0.25" stroke-miterlimit="10"/>
<path opacity="0.3" d="M947.161 226.926C947.161 226.926 1008.86 217.893 1120.38 216.313C1228.79 214.777 1395.92 204.833 1555.44 177.951" stroke="url(#paint27_linear)" stroke-width="0.25" stroke-miterlimit="10"/>
<path opacity="0.3" d="M947.161 226.926C947.161 226.926 1010.13 225.868 1122.63 231.028C1231.87 235.642 1400.58 229.096 1555.44 190.234" stroke="url(#paint28_linear)" stroke-width="0.25" stroke-miterlimit="10"/>
<path opacity="0.3" d="M947.161 226.926C947.161 226.926 1011.41 234.066 1124.88 245.744C1234.94 256.727 1405.24 253.359 1555.44 202.517" stroke="url(#paint29_linear)" stroke-width="0.25" stroke-miterlimit="10"/>
<path opacity="0.3" d="M947.161 226.926C947.161 226.926 1012.68 242.266 1127.13 260.461C1238.02 277.813 1409.9 277.622 1555.43 214.8" stroke="url(#paint30_linear)" stroke-width="0.25" stroke-miterlimit="10"/>
<path opacity="0.3" d="M947.161 226.927C947.161 226.927 1013.96 250.464 1129.38 275.174C1241.09 298.894 1414.56 301.883 1555.44 227.081" stroke="url(#paint31_linear)" stroke-width="0.25" stroke-miterlimit="10"/>
<path opacity="0.3" d="M947.161 226.927C947.161 226.927 1015.23 258.664 1131.62 289.89C1244.17 319.98 1419.22 326.146 1555.44 239.367" stroke="url(#paint32_linear)" stroke-width="0.25" stroke-miterlimit="10"/>
<path opacity="0.3" d="M947.161 226.927C947.161 226.927 1016.51 266.862 1133.87 304.606C1247.25 341.065 1423.88 350.409 1555.44 251.65" stroke="url(#paint33_linear)" stroke-width="0.25" stroke-miterlimit="10"/>
</g>
<g opacity="0.8">
<path opacity="0.8" d="M2.19727 200.103C2.19727 200.103 191.708 96.6517 607.938 309.002C830.366 422.479 938.58 294.577 1045.58 294.844C1206.79 295.247 1295.16 459.598 1593 272.944" stroke="url(#paint34_linear)" stroke-width="0.25" stroke-miterlimit="10"/>
<path opacity="0.8" d="M2.19727 218.486C2.19727 218.486 203.497 87.9616 615.958 295.788C846.732 410.922 945.313 307.142 1057.21 306.51C1219.91 306.005 1313.78 451.421 1593 276.433" stroke="url(#paint35_linear)" stroke-width="0.25" stroke-miterlimit="10"/>
<path opacity="0.8" d="M2.19727 236.867C2.19727 236.867 214.548 80.7544 623.98 282.574C862.674 400.232 952.041 319.444 1068.83 318.176C1233.03 316.392 1332.39 443.245 1593 279.923" stroke="url(#paint36_linear)" stroke-width="0.25" stroke-miterlimit="10"/>
<path opacity="0.8" d="M2.19727 255.251C2.19727 255.251 226.091 72.5906 632.001 269.36C878.877 389.035 958.771 331.91 1080.45 329.84C1246.15 327.023 1351.01 435.068 1593 283.412" stroke="url(#paint37_linear)" stroke-width="0.25" stroke-miterlimit="10"/>
<path opacity="0.8" d="M2.19727 273.634C2.19727 273.634 237.701 64.299 640.023 256.147C895.109 377.786 965.499 344.399 1092.07 341.508C1259.27 337.69 1369.62 426.893 1593 286.903" stroke="url(#paint38_linear)" stroke-width="0.25" stroke-miterlimit="10"/>
<path opacity="0.8" d="M2.19727 292.015C2.19727 292.015 249.374 55.8893 648.043 242.933C911.371 366.479 972.225 356.905 1103.69 353.174C1272.39 348.387 1388.24 418.717 1593 290.392" stroke="url(#paint39_linear)" stroke-width="0.25" stroke-miterlimit="10"/>
<path opacity="0.8" d="M2.19727 310.398C2.19727 310.398 261.101 47.3689 656.065 229.721C927.665 355.117 978.953 369.432 1115.31 364.84C1285.51 359.111 1406.85 410.542 1593 293.884" stroke="url(#paint40_linear)" stroke-width="0.25" stroke-miterlimit="10"/>
<path opacity="0.8" d="M2.19727 328.781C2.19727 328.781 272.877 38.7487 664.087 216.507C943.989 343.69 985.683 381.973 1126.94 376.505C1298.63 369.858 1425.47 402.365 1593 297.373" stroke="url(#paint41_linear)" stroke-width="0.25" stroke-miterlimit="10"/>
<path opacity="0.8" d="M2.19727 347.162C2.19727 347.162 284.698 30.0332 672.107 203.293C960.341 332.198 992.409 394.536 1138.56 388.171C1311.75 380.626 1444.08 394.189 1593 300.862" stroke="url(#paint42_linear)" stroke-width="0.25" stroke-miterlimit="10"/>
<path opacity="0.8" d="M2.19727 365.546C2.19727 365.546 296.555 21.2306 680.128 190.078C976.724 320.64 999.139 407.116 1150.18 399.835C1324.87 391.414 1462.7 386.012 1593 304.351" stroke="url(#paint43_linear)" stroke-width="0.25" stroke-miterlimit="10"/>
<path opacity="0.8" d="M2.19727 383.929C2.19727 383.929 308.448 12.348 688.15 176.867C993.136 309.013 1005.87 419.716 1161.8 411.503C1338 402.224 1481.31 377.838 1593 307.842" stroke="url(#paint44_linear)" stroke-width="0.25" stroke-miterlimit="10"/>
<path opacity="0.8" d="M2.19727 402.31C2.19727 402.31 320.37 3.38629 696.17 163.652C1009.58 297.309 1012.6 432.33 1173.42 423.169C1351.12 413.047 1499.92 369.661 1593 311.331" stroke="url(#paint45_linear)" stroke-width="0.25" stroke-miterlimit="10"/>
<path opacity="0.8" d="M2.19727 420.694C2.19727 420.694 332.318 -5.64502 704.192 150.438C1026.05 285.531 1019.34 444.959 1185.04 434.833C1364.25 423.882 1518.54 361.484 1593 314.821" stroke="url(#paint46_linear)" stroke-width="0.25" stroke-miterlimit="10"/>
<path opacity="0.8" d="M2.19727 439.077C2.19727 439.077 344.291 -14.7445 712.214 137.226C1042.55 273.672 1026.1 457.94 1196.67 446.501C1377.4 435.087 1537.15 353.309 1593 318.312" stroke="url(#paint47_linear)" stroke-width="0.25" stroke-miterlimit="10"/>
<path opacity="0.8" d="M2.19727 457.458C2.19727 457.458 356.282 -23.9076 720.234 124.011C1059.08 261.728 1032.83 470.505 1208.29 458.166C1390.52 445.843 1555.77 345.133 1593 321.801" stroke="url(#paint48_linear)" stroke-width="0.25" stroke-miterlimit="10"/>
<path opacity="0.8" d="M2.19727 475.841C2.19727 475.841 368.527 -33.7154 728.256 110.797C1075.87 249.129 1039.56 483.07 1219.91 469.83C1403.65 456.599 1574.38 336.956 1593 325.29" stroke="url(#paint49_linear)" stroke-width="0.25" stroke-miterlimit="10"/>
<path opacity="0.8" d="M2.19727 494.225C2.19727 494.225 380.314 -42.4054 736.277 97.5851C1092.24 237.576 1046.29 495.639 1231.53 481.498C1416.77 467.357 1593 328.781 1593 328.781" stroke="url(#paint50_linear)" stroke-width="0.25" stroke-miterlimit="10"/>
</g>
</g>
<defs>
<linearGradient id="paint0_linear" x1="-8.14423" y1="197.136" x2="751.244" y2="197.136" gradientUnits="userSpaceOnUse">
<stop stop-color="#87888A"/>
<stop offset="0.4974" stop-color="#E5E5E5"/>
<stop offset="1" stop-color="#7D7E80"/>
</linearGradient>
<linearGradient id="paint1_linear" x1="-8.14381" y1="208.486" x2="751.23" y2="208.486" gradientUnits="userSpaceOnUse">
<stop stop-color="#87888A"/>
<stop offset="0.4974" stop-color="#E5E5E5"/>
<stop offset="1" stop-color="#7D7E80"/>
</linearGradient>
<linearGradient id="paint2_linear" x1="-8.14338" y1="219.834" x2="751.217" y2="219.834" gradientUnits="userSpaceOnUse">
<stop stop-color="#87888A"/>
<stop offset="0.4974" stop-color="#E5E5E5"/>
<stop offset="1" stop-color="#7D7E80"/>
</linearGradient>
<linearGradient id="paint3_linear" x1="-8.14275" y1="231.185" x2="751.205" y2="231.185" gradientUnits="userSpaceOnUse">
<stop stop-color="#87888A"/>
<stop offset="0.4974" stop-color="#E5E5E5"/>
<stop offset="1" stop-color="#7D7E80"/>
</linearGradient>
<linearGradient id="paint4_linear" x1="-8.14232" y1="243.072" x2="751.218" y2="243.072" gradientUnits="userSpaceOnUse">
<stop stop-color="#87888A"/>
<stop offset="0.4974" stop-color="#E5E5E5"/>
<stop offset="1" stop-color="#7D7E80"/>
</linearGradient>
<linearGradient id="paint5_linear" x1="-8.1419" y1="255.875" x2="751.23" y2="255.875" gradientUnits="userSpaceOnUse">
<stop stop-color="#87888A"/>
<stop offset="0.4974" stop-color="#E5E5E5"/>
<stop offset="1" stop-color="#7D7E80"/>
</linearGradient>
<linearGradient id="paint6_linear" x1="-8.14126" y1="269.512" x2="751.242" y2="269.512" gradientUnits="userSpaceOnUse">
<stop stop-color="#87888A"/>
<stop offset="0.4974" stop-color="#E5E5E5"/>
<stop offset="1" stop-color="#7D7E80"/>
</linearGradient>
<linearGradient id="paint7_linear" x1="-8.14084" y1="283.909" x2="751.254" y2="283.909" gradientUnits="userSpaceOnUse">
<stop stop-color="#87888A"/>
<stop offset="0.4974" stop-color="#E5E5E5"/>
<stop offset="1" stop-color="#7D7E80"/>
</linearGradient>
<linearGradient id="paint8_linear" x1="-8.1402" y1="299.001" x2="751.265" y2="299.001" gradientUnits="userSpaceOnUse">
<stop stop-color="#87888A"/>
<stop offset="0.4974" stop-color="#E5E5E5"/>
<stop offset="1" stop-color="#7D7E80"/>
</linearGradient>
<linearGradient id="paint9_linear" x1="-8.13957" y1="314.727" x2="751.275" y2="314.727" gradientUnits="userSpaceOnUse">
<stop stop-color="#87888A"/>
<stop offset="0.4974" stop-color="#E5E5E5"/>
<stop offset="1" stop-color="#7D7E80"/>
</linearGradient>
<linearGradient id="paint10_linear" x1="-8.13914" y1="331.035" x2="751.285" y2="331.035" gradientUnits="userSpaceOnUse">
<stop stop-color="#87888A"/>
<stop offset="0.4974" stop-color="#E5E5E5"/>
<stop offset="1" stop-color="#7D7E80"/>
</linearGradient>
<linearGradient id="paint11_linear" x1="-8.13851" y1="347.874" x2="751.295" y2="347.874" gradientUnits="userSpaceOnUse">
<stop stop-color="#87888A"/>
<stop offset="0.4974" stop-color="#E5E5E5"/>
<stop offset="1" stop-color="#7D7E80"/>
</linearGradient>
<linearGradient id="paint12_linear" x1="-8.13787" y1="365.201" x2="751.303" y2="365.201" gradientUnits="userSpaceOnUse">
<stop stop-color="#87888A"/>
<stop offset="0.4974" stop-color="#E5E5E5"/>
<stop offset="1" stop-color="#7D7E80"/>
</linearGradient>
<linearGradient id="paint13_linear" x1="-8.13723" y1="382.974" x2="751.311" y2="382.974" gradientUnits="userSpaceOnUse">
<stop stop-color="#87888A"/>
<stop offset="0.4974" stop-color="#E5E5E5"/>
<stop offset="1" stop-color="#7D7E80"/>
</linearGradient>
<linearGradient id="paint14_linear" x1="-8.13638" y1="400.993" x2="751.319" y2="400.993" gradientUnits="userSpaceOnUse">
<stop stop-color="#87888A"/>
<stop offset="0.4974" stop-color="#E5E5E5"/>
<stop offset="1" stop-color="#7D7E80"/>
</linearGradient>
<linearGradient id="paint15_linear" x1="-8.13575" y1="408.205" x2="751.326" y2="408.205" gradientUnits="userSpaceOnUse">
<stop stop-color="#87888A"/>
<stop offset="0.4974" stop-color="#E5E5E5"/>
<stop offset="1" stop-color="#7D7E80"/>
</linearGradient>
<linearGradient id="paint16_linear" x1="-8.13511" y1="415.764" x2="751.333" y2="415.764" gradientUnits="userSpaceOnUse">
<stop stop-color="#87888A"/>
<stop offset="0.4974" stop-color="#E5E5E5"/>
<stop offset="1" stop-color="#7D7E80"/>
</linearGradient>
<linearGradient id="paint17_linear" x1="946.928" y1="113.892" x2="1555.55" y2="113.892" gradientUnits="userSpaceOnUse">
<stop stop-color="#87888A"/>
<stop offset="0.4974" stop-color="#E5E5E5"/>
<stop offset="1" stop-color="#7D7E80"/>
</linearGradient>
<linearGradient id="paint18_linear" x1="946.935" y1="124.004" x2="1555.54" y2="124.004" gradientUnits="userSpaceOnUse">
<stop stop-color="#87888A"/>
<stop offset="0.4974" stop-color="#E5E5E5"/>
<stop offset="1" stop-color="#7D7E80"/>
</linearGradient>
<linearGradient id="paint19_linear" x1="946.943" y1="134.091" x2="1555.52" y2="134.091" gradientUnits="userSpaceOnUse">
<stop stop-color="#87888A"/>
<stop offset="0.4974" stop-color="#E5E5E5"/>
<stop offset="1" stop-color="#7D7E80"/>
</linearGradient>
<linearGradient id="paint20_linear" x1="946.954" y1="144.142" x2="1555.51" y2="144.142" gradientUnits="userSpaceOnUse">
<stop stop-color="#87888A"/>
<stop offset="0.4974" stop-color="#E5E5E5"/>
<stop offset="1" stop-color="#7D7E80"/>
</linearGradient>
<linearGradient id="paint21_linear" x1="946.967" y1="154.134" x2="1555.5" y2="154.134" gradientUnits="userSpaceOnUse">
<stop stop-color="#87888A"/>
<stop offset="0.4974" stop-color="#E5E5E5"/>
<stop offset="1" stop-color="#7D7E80"/>
</linearGradient>
<linearGradient id="paint22_linear" x1="946.983" y1="164.021" x2="1555.48" y2="164.021" gradientUnits="userSpaceOnUse">
<stop stop-color="#87888A"/>
<stop offset="0.4974" stop-color="#E5E5E5"/>
<stop offset="1" stop-color="#7D7E80"/>
</linearGradient>
<linearGradient id="paint23_linear" x1="947.004" y1="173.716" x2="1555.47" y2="173.716" gradientUnits="userSpaceOnUse">
<stop stop-color="#87888A"/>
<stop offset="0.4974" stop-color="#E5E5E5"/>
<stop offset="1" stop-color="#7D7E80"/>
</linearGradient>
<linearGradient id="paint24_linear" x1="947.029" y1="182.857" x2="1555.45" y2="182.857" gradientUnits="userSpaceOnUse">
<stop stop-color="#87888A"/>
<stop offset="0.4974" stop-color="#E5E5E5"/>
<stop offset="1" stop-color="#7D7E80"/>
</linearGradient>
<linearGradient id="paint25_linear" x1="947.057" y1="190.145" x2="1555.44" y2="190.145" gradientUnits="userSpaceOnUse">
<stop stop-color="#87888A"/>
<stop offset="0.4974" stop-color="#E5E5E5"/>
<stop offset="1" stop-color="#7D7E80"/>
</linearGradient>
<linearGradient id="paint26_linear" x1="947.089" y1="196.292" x2="1555.46" y2="196.292" gradientUnits="userSpaceOnUse">
<stop stop-color="#87888A"/>
<stop offset="0.4974" stop-color="#E5E5E5"/>
<stop offset="1" stop-color="#7D7E80"/>
</linearGradient>
<linearGradient id="paint27_linear" x1="947.123" y1="202.439" x2="1555.48" y2="202.439" gradientUnits="userSpaceOnUse">
<stop stop-color="#87888A"/>
<stop offset="0.4974" stop-color="#E5E5E5"/>
<stop offset="1" stop-color="#7D7E80"/>
</linearGradient>
<linearGradient id="paint28_linear" x1="947.157" y1="211.277" x2="1555.5" y2="211.277" gradientUnits="userSpaceOnUse">
<stop stop-color="#87888A"/>
<stop offset="0.4974" stop-color="#E5E5E5"/>
<stop offset="1" stop-color="#7D7E80"/>
</linearGradient>
<linearGradient id="paint29_linear" x1="947.132" y1="226.7" x2="1555.52" y2="226.7" gradientUnits="userSpaceOnUse">
<stop stop-color="#87888A"/>
<stop offset="0.4974" stop-color="#E5E5E5"/>
<stop offset="1" stop-color="#7D7E80"/>
</linearGradient>
<linearGradient id="paint30_linear" x1="947.101" y1="242.562" x2="1555.54" y2="242.562" gradientUnits="userSpaceOnUse">
<stop stop-color="#87888A"/>
<stop offset="0.4974" stop-color="#E5E5E5"/>
<stop offset="1" stop-color="#7D7E80"/>
</linearGradient>
<linearGradient id="paint31_linear" x1="947.074" y1="258.523" x2="1555.56" y2="258.523" gradientUnits="userSpaceOnUse">
<stop stop-color="#87888A"/>
<stop offset="0.4974" stop-color="#E5E5E5"/>
<stop offset="1" stop-color="#7D7E80"/>
</linearGradient>
<linearGradient id="paint32_linear" x1="947.05" y1="268.524" x2="1555.58" y2="268.524" gradientUnits="userSpaceOnUse">
<stop stop-color="#87888A"/>
<stop offset="0.4974" stop-color="#E5E5E5"/>
<stop offset="1" stop-color="#7D7E80"/>
</linearGradient>
<linearGradient id="paint33_linear" x1="947.029" y1="278.58" x2="1555.6" y2="278.58" gradientUnits="userSpaceOnUse">
<stop stop-color="#87888A"/>
<stop offset="0.4974" stop-color="#E5E5E5"/>
<stop offset="1" stop-color="#7D7E80"/>
</linearGradient>
<linearGradient id="paint34_linear" x1="2.07021" y1="268.497" x2="1593.14" y2="268.497" gradientUnits="userSpaceOnUse">
<stop stop-color="#87888A"/>
<stop offset="0.4974" stop-color="#E5E5E5"/>
<stop offset="1" stop-color="#7D7E80"/>
</linearGradient>
<linearGradient id="paint35_linear" x1="2.05303" y1="270.37" x2="1593.14" y2="270.37" gradientUnits="userSpaceOnUse">
<stop stop-color="#87888A"/>
<stop offset="0.4974" stop-color="#E5E5E5"/>
<stop offset="1" stop-color="#7D7E80"/>
</linearGradient>
<linearGradient id="paint36_linear" x1="2.04031" y1="271.361" x2="1593.14" y2="271.361" gradientUnits="userSpaceOnUse">
<stop stop-color="#87888A"/>
<stop offset="0.4974" stop-color="#E5E5E5"/>
<stop offset="1" stop-color="#7D7E80"/>
</linearGradient>
<linearGradient id="paint37_linear" x1="2.0297" y1="271.311" x2="1593.14" y2="271.311" gradientUnits="userSpaceOnUse">
<stop stop-color="#87888A"/>
<stop offset="0.4974" stop-color="#E5E5E5"/>
<stop offset="1" stop-color="#7D7E80"/>
</linearGradient>
<linearGradient id="paint38_linear" x1="2.02122" y1="270.607" x2="1593.14" y2="270.607" gradientUnits="userSpaceOnUse">
<stop stop-color="#87888A"/>
<stop offset="0.4974" stop-color="#E5E5E5"/>
<stop offset="1" stop-color="#7D7E80"/>
</linearGradient>
<linearGradient id="paint39_linear" x1="2.01422" y1="269.507" x2="1593.14" y2="269.507" gradientUnits="userSpaceOnUse">
<stop stop-color="#87888A"/>
<stop offset="0.4974" stop-color="#E5E5E5"/>
<stop offset="1" stop-color="#7D7E80"/>
</linearGradient>
<linearGradient id="paint40_linear" x1="2.00828" y1="268.328" x2="1593.14" y2="268.328" gradientUnits="userSpaceOnUse">
<stop stop-color="#87888A"/>
<stop offset="0.4974" stop-color="#E5E5E5"/>
<stop offset="1" stop-color="#7D7E80"/>
</linearGradient>
<linearGradient id="paint41_linear" x1="2.0034" y1="267.93" x2="1593.14" y2="267.93" gradientUnits="userSpaceOnUse">
<stop stop-color="#87888A"/>
<stop offset="0.4974" stop-color="#E5E5E5"/>
<stop offset="1" stop-color="#7D7E80"/>
</linearGradient>
<linearGradient id="paint42_linear" x1="1.99937" y1="270.066" x2="1593.14" y2="270.066" gradientUnits="userSpaceOnUse">
<stop stop-color="#87888A"/>
<stop offset="0.4974" stop-color="#E5E5E5"/>
<stop offset="1" stop-color="#7D7E80"/>
</linearGradient>
<linearGradient id="paint43_linear" x1="1.99576" y1="271.871" x2="1593.14" y2="271.871" gradientUnits="userSpaceOnUse">
<stop stop-color="#87888A"/>
<stop offset="0.4974" stop-color="#E5E5E5"/>
<stop offset="1" stop-color="#7D7E80"/>
</linearGradient>
<linearGradient id="paint44_linear" x1="1.99258" y1="273.385" x2="1593.14" y2="273.385" gradientUnits="userSpaceOnUse">
<stop stop-color="#87888A"/>
<stop offset="0.4974" stop-color="#E5E5E5"/>
<stop offset="1" stop-color="#7D7E80"/>
</linearGradient>
<linearGradient id="paint45_linear" x1="1.99004" y1="274.646" x2="1593.14" y2="274.646" gradientUnits="userSpaceOnUse">
<stop stop-color="#87888A"/>
<stop offset="0.4974" stop-color="#E5E5E5"/>
<stop offset="1" stop-color="#7D7E80"/>
</linearGradient>
<linearGradient id="paint46_linear" x1="1.9877" y1="275.687" x2="1593.14" y2="275.687" gradientUnits="userSpaceOnUse">
<stop stop-color="#87888A"/>
<stop offset="0.4974" stop-color="#E5E5E5"/>
<stop offset="1" stop-color="#7D7E80"/>
</linearGradient>
<linearGradient id="paint47_linear" x1="1.98558" y1="276.551" x2="1593.14" y2="276.551" gradientUnits="userSpaceOnUse">
<stop stop-color="#87888A"/>
<stop offset="0.4974" stop-color="#E5E5E5"/>
<stop offset="1" stop-color="#7D7E80"/>
</linearGradient>
<linearGradient id="paint48_linear" x1="1.98367" y1="277.231" x2="1593.14" y2="277.231" gradientUnits="userSpaceOnUse">
<stop stop-color="#87888A"/>
<stop offset="0.4974" stop-color="#E5E5E5"/>
<stop offset="1" stop-color="#7D7E80"/>
</linearGradient>
<linearGradient id="paint49_linear" x1="1.98198" y1="280.361" x2="1593.14" y2="280.361" gradientUnits="userSpaceOnUse">
<stop stop-color="#87888A"/>
<stop offset="0.4974" stop-color="#E5E5E5"/>
<stop offset="1" stop-color="#7D7E80"/>
</linearGradient>
<linearGradient id="paint50_linear" x1="1.98049" y1="284.199" x2="1593.16" y2="284.199" gradientUnits="userSpaceOnUse">
<stop stop-color="#87888A"/>
<stop offset="0.4974" stop-color="#E5E5E5"/>
<stop offset="1" stop-color="#7D7E80"/>
</linearGradient>
</defs>
</svg>
