<svg width="1400" height="348" viewBox="0 0 1400 348" fill="none" xmlns="http://www.w3.org/2000/svg">
<g opacity="0.65">
<path opacity="0.1" d="M1451 166.224C1451 166.224 1315.02 231.193 1237.96 172.268C1160.91 113.343 1033.99 -34.7243 928.232 77.0816C822.469 188.888 869.307 259.899 772.61 302.204C675.913 344.509 564.107 346.02 530.867 216.084C497.628 86.147 363.158 69.5272 258.907 110.321C154.655 151.115 -34.2061 284.074 -34.2061 284.074" stroke="white" stroke-width="0.5" stroke-miterlimit="10"/>
<path opacity="0.1" d="M-36.3545 281.424C-36.0372 280.895 145.853 146.876 249.603 105.417C343.2 67.9317 457.559 81.5479 502.798 179.372C507.974 190.477 512.344 202.631 515.761 215.884C548.88 344.434 662.007 346.779 754.772 298.122C824.412 261.595 822.472 217.655 856.023 160.661C868.132 140.089 886.58 116.658 915.749 89.7943C951.339 57.0171 989.843 49.3841 1026.51 53.1945C1078.67 58.6156 1127.91 91.6014 1172.43 123.913C1193.52 139.219 1213.58 155.192 1231.56 167.687C1268.61 193.429 1317.7 195.433 1360.61 187.413C1412.67 177.68 1450.42 158.803 1450.42 158.803" stroke="white" stroke-width="0.5" stroke-miterlimit="10"/>
<path opacity="0.1" d="M-38.5 278.773C-37.8624 277.713 137.053 142.633 240.299 100.515C333.956 62.1479 444.535 79.8858 488.046 179.206C492.953 190.404 497.238 202.543 500.652 215.691C533.65 342.853 648.143 348.776 736.932 294.043C805.445 251.807 807.669 210.421 841.567 163.097C853.663 146.208 873.211 126.343 903.26 102.507C940.044 73.3285 980.406 66.9012 1017.24 67.9256C1070.39 69.4002 1117.94 95.46 1163.4 122.964C1184.85 135.943 1205.89 150.922 1225.16 163.109C1263.6 187.422 1313.67 190.571 1357.96 181.593C1413.71 170.298 1449.84 151.384 1449.84 151.384" stroke="white" stroke-width="0.5" stroke-miterlimit="10"/>
<path opacity="0.1" d="M-40.6484 276.123C-39.6936 274.534 128.254 138.393 230.995 95.6109C324.712 56.361 431.671 78.142 473.293 179.033C477.95 190.32 482.132 202.446 485.547 215.491C518.424 341.27 634.276 350.495 719.094 289.96C786.516 241.841 792.883 203.05 827.114 165.532C839.21 152.275 859.867 136.024 890.774 115.219C928.779 89.6338 971.008 84.3759 1007.98 82.6535C1062.16 80.1303 1107.92 99.3126 1154.36 122.012C1176.16 132.667 1198.18 146.661 1218.76 158.524C1258.53 181.454 1309.63 185.675 1355.32 175.77C1414.75 162.885 1449.25 143.959 1449.25 143.959" stroke="white" stroke-width="0.5" stroke-miterlimit="10"/>
<path opacity="0.1" d="M-42.7939 273.473C-41.5218 271.352 119.455 134.154 221.691 90.7097C315.469 50.5744 418.823 76.3865 458.538 178.864C462.944 190.235 467.02 202.352 470.435 215.298C503.191 339.689 620.354 351.964 701.25 285.881C767.576 231.7 778.182 195.499 812.655 167.971C824.79 158.28 846.544 145.712 878.285 127.935C917.541 105.946 961.628 101.806 998.709 97.3879C1053.97 90.8034 1097.84 103.178 1145.33 121.067C1167.45 129.401 1190.44 142.424 1212.35 153.947C1253.41 175.543 1305.59 180.765 1352.67 169.953C1415.78 155.46 1448.67 136.544 1448.67 136.544" stroke="white" stroke-width="0.5" stroke-miterlimit="10"/>
<path opacity="0.1" d="M-44.9424 270.82C-43.3529 268.17 110.652 129.909 212.387 85.8028C306.222 44.7851 405.992 74.6162 443.786 178.689C447.947 190.145 451.914 202.256 455.329 215.096C487.964 338.1 606.354 353.2 683.413 281.796C748.599 221.393 763.744 187.785 798.201 170.404C810.473 164.212 833.248 155.404 865.799 140.642C906.336 122.261 952.261 119.178 989.447 112.11C1045.8 101.401 1087.73 107.052 1136.29 120.106C1158.71 126.132 1182.69 138.191 1205.95 149.357C1248.27 169.663 1301.56 175.825 1350.03 164.124C1416.82 148 1448.09 129.114 1448.09 129.114" stroke="white" stroke-width="0.5" stroke-miterlimit="10"/>
<path opacity="0.1" d="M-47.0879 268.17C-45.1781 264.988 101.853 125.669 203.082 80.8982C296.978 38.9982 393.174 72.8392 429.033 178.52C432.949 190.057 436.808 202.162 440.22 214.899C472.734 336.517 592.246 354.252 665.572 277.713C729.543 210.941 749.744 180.122 783.745 172.839C796.322 170.147 819.976 165.112 853.31 153.355C895.158 138.596 942.896 136.508 980.179 126.841C1037.63 111.941 1077.56 110.974 1127.26 119.157C1149.95 122.895 1174.92 133.994 1199.55 144.776C1243.08 163.837 1297.51 170.881 1347.38 158.301C1417.84 140.527 1447.5 121.692 1447.5 121.692" stroke="white" stroke-width="0.5" stroke-miterlimit="10"/>
<path opacity="0.1" d="M-49.2363 265.52C-47.0093 261.809 93.0534 121.429 193.778 75.9967C287.735 33.2113 380.377 71.0561 414.281 178.351C417.952 189.969 421.702 202.072 425.114 214.703C457.508 334.936 578.016 355.155 647.735 273.633C710.391 200.37 737.237 166.481 769.292 175.277C781.887 178.731 806.723 174.845 840.824 166.07C884.005 154.959 933.529 153.805 970.914 141.572C1029.46 122.42 1067.36 114.948 1118.22 118.208C1141.18 119.68 1167.14 129.815 1193.15 140.198C1237.87 158.053 1293.47 165.928 1344.74 152.484C1418.86 133.045 1446.91 114.274 1446.91 114.274" stroke="white" stroke-width="0.5" stroke-miterlimit="10"/>
<path opacity="0.1" d="M-51.3848 262.87C-48.8404 258.627 84.251 117.187 184.474 71.0926C278.491 27.4248 367.594 69.2614 399.529 178.178C402.958 189.879 406.594 201.975 410.005 214.503C442.278 333.35 563.654 355.944 629.894 269.548C691.122 189.691 722.515 166.203 754.836 177.71C768.304 182.506 793.481 184.597 828.338 178.78C872.87 171.346 924.149 171.056 961.65 156.301C1021.27 132.843 1057.15 118.976 1109.19 117.256C1132.41 116.489 1159.36 125.657 1186.75 135.614C1232.66 152.306 1289.42 160.96 1342.1 146.661C1419.89 125.542 1446.33 106.849 1446.33 106.849" stroke="white" stroke-width="0.5" stroke-miterlimit="10"/>
<path opacity="0.1" d="M-53.5303 260.22C-50.6686 255.448 75.4515 112.947 175.17 66.188C269.247 21.6378 354.83 67.4632 384.776 178.006C387.967 189.785 391.488 201.878 394.899 214.304C427.051 331.763 549.17 356.648 612.06 265.465C671.737 178.937 708.56 159.83 740.386 180.145C754.156 188.936 780.252 194.378 815.855 191.492C861.743 187.772 914.758 188.283 952.388 171.032C1013.05 143.219 1046.95 123.061 1100.16 116.307C1123.64 113.328 1151.57 121.523 1180.35 131.032C1227.43 146.592 1285.37 155.986 1339.45 140.838C1420.9 118.024 1445.75 99.4276 1445.75 99.4276" stroke="white" stroke-width="0.5" stroke-miterlimit="10"/>
<path opacity="0.1" d="M-55.6787 257.567C-52.4968 252.266 66.6491 108.705 165.866 61.2837C260.004 15.8482 342.082 65.6593 370.024 177.834C372.979 189.694 376.382 201.785 379.79 214.107C411.821 330.18 534.56 357.307 594.219 261.383C652.219 168.128 694.267 153.463 725.929 182.578C739.857 195.387 767.041 202.791 803.366 204.199C850.575 206.03 905.342 205.48 943.123 185.754C1004.81 153.545 1036.76 127.192 1091.13 115.349C1114.87 110.179 1143.77 117.401 1173.94 126.445C1222.19 140.905 1281.32 150.997 1336.81 135.012C1421.92 110.493 1445.17 92.0002 1445.17 92.0002" stroke="white" stroke-width="0.5" stroke-miterlimit="10"/>
<path opacity="0.1" d="M-57.8242 254.916C-54.325 249.084 57.8526 104.465 156.562 56.3793C250.76 10.0615 329.354 63.8522 355.269 177.665C357.988 189.604 361.273 201.691 364.681 213.911C396.591 328.597 519.835 357.938 576.378 257.304C632.577 157.28 679.769 146.991 711.473 185.017C725.473 201.809 753.769 214.011 790.88 216.915C839.47 220.716 895.911 222.671 933.858 200.488C996.527 163.855 1026.6 131.374 1082.09 114.404C1106.11 107.058 1135.96 113.313 1167.54 121.867C1216.95 135.257 1277.26 146.014 1334.16 129.195C1422.92 102.957 1444.58 84.5847 1444.58 84.5847" stroke="white" stroke-width="0.5" stroke-miterlimit="10"/>
<path opacity="0.1" d="M-59.9727 252.266C-56.1561 245.906 49.0502 100.222 147.258 51.4781C241.517 4.27782 316.647 62.0452 340.516 177.495C343 189.513 346.167 201.6 349.573 213.715C381.362 327.016 505.007 358.561 558.538 253.221C612.818 146.41 665.164 140.4 697.017 187.452C711.047 208.179 740.516 223.859 778.391 229.627C828.313 237.23 886.456 239.844 924.591 215.216C988.211 174.132 1016.47 135.58 1073.05 113.452C1097.37 103.945 1128.16 109.236 1161.13 117.286C1211.71 129.63 1273.2 141.023 1331.51 123.375C1423.92 95.4087 1444 77.1632 1444 77.1632" stroke="white" stroke-width="0.5" stroke-miterlimit="10"/>
<path opacity="0.1" d="M-62.1182 249.616C-57.9844 242.724 40.2508 95.9829 137.957 46.5737C232.276 -1.51193 303.959 60.2321 325.767 177.323C328.021 189.419 331.061 201.504 334.47 213.515C366.138 325.43 490.091 359.183 540.703 249.139C592.953 135.529 650.524 133.716 682.567 189.888C696.612 214.512 727.253 233.722 765.908 242.34C817.148 253.762 876.988 257.008 915.329 229.948C979.868 184.391 1006.38 139.808 1064.02 112.503C1088.65 100.842 1120.36 105.181 1154.74 112.705C1206.47 124.028 1269.15 136.025 1328.87 117.552C1424.93 87.8482 1443.42 69.7387 1443.42 69.7387" stroke="white" stroke-width="0.5" stroke-miterlimit="10"/>
<path opacity="0.1" d="M-64.2666 246.966C-59.8125 239.545 31.4484 91.7434 128.65 41.6694C223.029 -7.29857 291.282 58.4191 311.012 177.151C313.036 189.326 315.952 201.407 319.358 213.316C350.905 323.843 475.085 359.827 522.86 245.054C572.979 124.651 635.859 126.959 668.108 192.32C682.165 220.816 713.969 243.591 753.416 255.05C805.952 270.31 867.497 274.165 906.058 244.673C971.489 194.635 996.31 144.041 1054.98 111.548C1079.93 97.7356 1112.55 101.138 1148.33 108.118C1201.23 118.441 1265.08 131.014 1326.22 111.726C1425.92 80.2757 1442.83 62.3142 1442.83 62.3142" stroke="white" stroke-width="0.5" stroke-miterlimit="10"/>
<path opacity="0.1" d="M-66.4121 244.313C-61.6407 236.36 22.6519 87.4978 119.349 36.7651C213.789 -13.0852 278.63 56.6062 296.262 176.982C298.057 189.235 300.849 201.316 304.255 213.119C335.678 322.26 460.016 360.495 505.025 240.974C552.92 113.787 621.204 120.16 653.657 194.759C667.73 227.101 700.676 253.472 740.936 267.762C794.751 286.866 857.999 291.323 896.802 259.404C963.094 204.876 986.283 148.287 1045.96 110.599C1071.24 94.6353 1104.76 97.1192 1141.94 103.54C1196.01 112.881 1261.02 126.013 1323.59 105.91C1426.92 72.7062 1442.26 54.8958 1442.26 54.8958" stroke="white" stroke-width="0.5" stroke-miterlimit="10"/>
<path opacity="0.1" d="M-68.5605 241.663C-63.4719 233.181 13.8495 83.2582 110.042 31.8607C204.542 -18.8751 265.99 54.796 281.507 176.81C283.075 189.141 285.74 201.219 289.143 212.92C320.446 320.677 444.877 361.19 487.182 236.889C532.771 102.936 606.539 113.322 639.198 197.191C653.286 233.368 687.366 263.35 728.444 280.472C783.519 303.428 848.475 308.475 887.531 274.129C954.657 215.105 976.272 152.523 1036.92 109.644C1062.54 91.5288 1096.95 93.1061 1135.53 98.9533C1190.78 107.327 1256.95 120.997 1320.94 100.08C1427.9 65.1154 1441.67 47.4682 1441.67 47.4682" stroke="white" stroke-width="0.5" stroke-miterlimit="10"/>
<path opacity="0.1" d="M-70.7061 239.013C-65.3001 230.002 5.05003 79.0185 100.741 26.9592C195.301 -24.6589 253.371 52.9889 266.755 176.64C268.099 189.054 270.631 201.129 274.037 212.726C305.219 319.096 429.689 361.927 469.344 232.812C512.555 92.1149 591.886 106.468 624.745 199.633C638.854 239.635 674.045 273.238 715.958 293.19C772.278 320 838.941 325.635 878.267 288.866C946.205 225.342 966.285 156.769 1027.89 108.701C1053.86 88.4344 1089.16 89.1233 1129.12 94.3812C1185.56 101.806 1252.85 115.89 1318.29 94.2694C1428.83 57.3584 1441.09 40.0556 1441.09 40.0556" stroke="white" stroke-width="0.5" stroke-miterlimit="10"/>
<path opacity="0.1" d="M-72.8545 236.363C-67.1282 226.82 -3.75236 74.7758 91.4338 22.0548C186.055 -30.4456 240.924 51.1697 251.999 176.468C253.135 188.96 255.523 201.032 258.925 212.527C289.986 317.51 414.45 362.688 451.5 228.73C492.273 81.312 577.046 99.6481 610.286 202.065C624.337 245.908 660.707 283.116 703.469 305.9C761.018 336.562 829.395 342.79 868.999 303.591C937.729 235.568 956.313 160.993 1018.85 107.747C1045.19 85.3219 1081.36 85.1375 1122.72 89.7941C1180.34 96.2819 1248.8 110.919 1315.65 88.4434C1429.84 49.8431 1440.5 32.631 1440.5 32.631" stroke="white" stroke-width="0.5" stroke-miterlimit="10"/>
<path opacity="0.1" d="M-75 233.713C-68.9564 223.641 -12.5488 70.5364 82.1327 17.1506C176.814 -36.2352 228.185 49.3839 237.25 176.299C246.315 303.214 395.389 378.758 433.666 224.647C471.943 70.5364 562.596 92.6951 595.836 204.501C629.075 316.307 790.236 390.845 859.737 318.323C929.238 245.8 946.363 165.218 1009.82 106.798C1073.28 48.3777 1195.15 122.913 1313 82.6235C1430.85 42.3341 1439.92 25.2097 1439.92 25.2097" stroke="white" stroke-width="0.5" stroke-miterlimit="10"/>
</g>
</svg>
