<svg width="49" height="49" viewBox="0 0 49 49" fill="none" xmlns="http://www.w3.org/2000/svg">
<rect x="1.5" y="1.5" width="45.723" height="45.723" rx="3.5" fill="#001D26" stroke="#00C8FF" stroke-width="3"/>
<path d="M13.5522 34.1757H15.3586V26.9501H19.9139C23.1863 26.9501 25.5948 24.7511 25.5948 21.3215C25.5948 17.9182 23.1863 15.7715 19.9139 15.7715H13.5522V34.1757ZM15.3586 25.327V17.3946H19.7044C22.1391 17.3946 23.7361 18.8345 23.7361 21.3215C23.7361 23.8348 22.1391 25.327 19.6783 25.327H15.3586Z" fill="#00C8FF"/>
<path d="M27.3186 32.5787C28.5752 33.8877 30.4601 34.4898 32.2142 34.4898C34.8059 34.4898 36.6647 32.9453 36.6647 30.7724C36.6647 26.4265 29.6224 27.3167 29.6224 24.306C29.6224 22.8661 30.879 22.264 32.2665 22.264C33.4446 22.264 34.8059 22.7091 35.5651 23.4683L36.4029 22.1331C35.3295 21.1121 33.7849 20.6932 32.3451 20.6932C29.9365 20.6932 27.8684 21.9499 27.8684 24.3584C27.8684 28.678 34.8845 27.8664 34.8845 30.7985C34.8845 32.186 33.7064 32.9191 32.2403 32.9191C30.8005 32.9191 29.2559 32.3431 28.261 31.3221L27.3186 32.5787Z" fill="#00C8FF"/>
</svg>
