<svg width="43" height="56" viewBox="0 0 43 56" fill="none" xmlns="http://www.w3.org/2000/svg">
<path d="M30.4847 0H1.46299C0.654994 0 0 0.654994 0 1.92598V54.9995C0 55.3445 0.654994 55.9995 1.46299 55.9995H41.5367C42.3446 55.9995 42.9996 55.3445 42.9996 54.9995V12.9779C42.9996 12.2819 42.9066 12.0579 42.7426 11.8929L31.1067 0.256998C30.9417 0.0929992 30.7177 0 30.4847 0Z" fill="#E9E9E0"/>
<path d="M30.9995 0.151367V12.0003H42.8484L30.9995 0.151367Z" fill="#D9D7CA"/>
<path d="M41.5367 55.9999H1.46299C0.654994 55.9999 0 55.3449 0 54.5369V39H42.9996V54.5369C42.9996 55.3449 42.3446 55.9999 41.5367 55.9999Z" fill="#576D7E"/>
<path d="M26.4153 26.5952C26.4153 25.9603 26.5027 25.4048 26.6774 24.9286C26.8656 24.4365 27.0874 24.0238 27.3427 23.6905C27.6116 23.3571 27.961 22.9603 28.3911 22.5C28.9288 21.9444 29.3253 21.4683 29.5806 21.0714C29.836 20.6587 29.9637 20.1667 29.9637 19.5952C29.9637 18.8175 29.7083 18.1984 29.1976 17.7381C28.6868 17.2619 27.9812 17.0238 27.0806 17.0238C25.5081 17.0238 24.3051 17.6508 23.4718 18.9048L22 17.6667C22.5645 16.8095 23.2836 16.1508 24.1573 15.6905C25.0444 15.2302 26.0659 15 27.2218 15C28.6868 15 29.8495 15.381 30.7097 16.1429C31.5699 16.8889 32 17.9206 32 19.2381C32 19.8889 31.9059 20.4683 31.7177 20.9762C31.543 21.4683 31.328 21.881 31.0726 22.2143C30.8172 22.5476 30.4745 22.9444 30.0444 23.4048C29.4933 23.9921 29.0833 24.5079 28.8145 24.9524C28.5591 25.3968 28.4315 25.9444 28.4315 26.5952H26.4153ZM27.4435 32C27.0672 32 26.7513 31.8571 26.496 31.5714C26.254 31.2698 26.1331 30.9048 26.1331 30.4762C26.1331 30.0476 26.254 29.6905 26.496 29.4048C26.7513 29.1032 27.0672 28.9524 27.4435 28.9524C27.8199 28.9524 28.129 29.1032 28.371 29.4048C28.6129 29.6905 28.7339 30.0476 28.7339 30.4762C28.7339 30.9048 28.6062 31.2698 28.3508 31.5714C28.1089 31.8571 27.8065 32 27.4435 32Z" fill="#576D7E"/>
<path d="M18.7073 17.2932C18.3163 16.9022 17.6842 16.9022 17.2932 17.2932L11.2932 23.2933C10.9022 23.6842 10.9022 24.3163 11.2932 24.7073L17.2932 30.7073C17.4882 30.9023 17.7442 31.0003 18.0002 31.0003C18.2562 31.0003 18.5123 30.9023 18.7073 30.7073C19.0983 30.3163 19.0983 29.6842 18.7073 29.2933L13.4142 24.0003L18.7073 18.7073C19.0983 18.3163 19.0983 17.6842 18.7073 17.2932Z" fill="#576D7E"/>
<path d="M9.21826 52.7434H10.7009V48.8345H13.0972C15.0292 48.8345 16.407 47.4866 16.407 45.4798C16.407 43.4729 15.0292 42.1699 13.0972 42.1699H9.21826V52.7434ZM10.7009 47.5465V43.4579H12.8726C14.1156 43.4579 14.9094 44.2217 14.9094 45.4798C14.9094 46.7528 14.1156 47.5465 12.8576 47.5465H10.7009Z" fill="white"/>
<path d="M18.3008 52.7434H19.7834V48.1007H25.2799V52.7434H26.7476V42.1699H25.2799V46.8127H19.7834V42.1699H18.3008V52.7434Z" fill="white"/>
<path d="M29.5332 52.7434H31.0159V48.8345H33.4122C35.3442 48.8345 36.722 47.4866 36.722 45.4798C36.722 43.4729 35.3442 42.1699 33.4122 42.1699H29.5332V52.7434ZM31.0159 47.5465V43.4579H33.1875C34.4306 43.4579 35.2243 44.2217 35.2243 45.4798C35.2243 46.7528 34.4306 47.5465 33.1725 47.5465H31.0159Z" fill="white"/>
</svg>
