<svg width="43" height="56" viewBox="0 0 43 56" fill="none" xmlns="http://www.w3.org/2000/svg">
<path d="M30.485 0H1.463C0.655 0 0 0.655 0 1.926V55C0 55.345 0.655 56 1.463 56H41.537C42.345 56 43 55.345 43 55V12.978C43 12.282 42.907 12.058 42.743 11.893L31.107 0.257C30.942 0.093 30.718 0 30.485 0Z" fill="#E9E9E0"/>
<path d="M31 0.151367V12.0004H42.849L31 0.151367Z" fill="#D9D7CA"/>
<path d="M41.537 56H1.463C0.655 56 0 55.345 0 54.537V39H43V54.537C43 55.345 42.345 56 41.537 56Z" fill="#EEAF4B"/>
<path d="M19.521 42.7188V50.5668C19.521 51.0408 19.434 51.4398 19.261 51.7628C19.087 52.0858 18.855 52.3458 18.564 52.5418C18.272 52.7378 17.937 52.8748 17.559 52.9518C17.181 53.0288 16.79 53.0678 16.39 53.0678C16.189 53.0678 15.954 53.0468 15.686 53.0058C15.418 52.9648 15.139 52.9018 14.852 52.8148C14.565 52.7278 14.289 52.6298 14.025 52.5208C13.76 52.4118 13.537 52.2888 13.355 52.1518L14.052 51.0448C14.143 51.1078 14.273 51.1748 14.442 51.2428C14.611 51.3108 14.795 51.3748 14.996 51.4338C15.196 51.4938 15.406 51.5448 15.625 51.5908C15.844 51.6368 16.049 51.6588 16.24 51.6588C16.722 51.6588 17.108 51.5648 17.395 51.3788C17.682 51.1928 17.834 50.8748 17.853 50.4288V42.7178H19.521V42.7188Z" fill="white"/>
<path d="M27.6841 50.2378C27.6841 50.6018 27.6091 50.9558 27.4581 51.2978C27.3071 51.6398 27.0961 51.9408 26.8221 52.1998C26.5481 52.4588 26.2111 52.6668 25.8101 52.8218C25.4091 52.9768 24.9531 53.0538 24.4431 53.0538C24.2241 53.0538 23.9991 53.0418 23.7661 53.0198C23.5331 52.9978 23.2981 52.9578 23.0621 52.9038C22.8251 52.8488 22.5991 52.7738 22.3851 52.6778C22.1711 52.5818 21.9861 52.4658 21.8311 52.3288L22.1181 51.1528C22.2451 51.2258 22.4071 51.2968 22.6031 51.3648C22.7991 51.4328 23.0011 51.4968 23.2111 51.5558C23.4201 51.6158 23.6301 51.6628 23.8401 51.6998C24.0491 51.7358 24.2451 51.7548 24.4281 51.7548C24.9841 51.7548 25.4101 51.6248 25.7061 51.3648C26.0021 51.1048 26.1501 50.7198 26.1501 50.2098C26.1501 49.8998 26.0451 49.6358 25.8361 49.4168C25.6261 49.1978 25.3641 48.9998 25.0501 48.8218C24.7361 48.6438 24.3961 48.4668 24.0311 48.2888C23.6661 48.1108 23.3241 47.9008 23.0061 47.6598C22.6871 47.4188 22.4221 47.1338 22.2131 46.8058C22.0031 46.4778 21.8991 46.0678 21.8991 45.5758C21.8991 45.1298 21.9811 44.7328 22.1451 44.3868C22.3091 44.0408 22.5301 43.7458 22.8081 43.5048C23.0861 43.2638 23.4101 43.0788 23.7791 42.9508C24.1481 42.8228 24.5381 42.7598 24.9481 42.7598C25.3671 42.7598 25.7911 42.7988 26.2191 42.8758C26.6471 42.9528 26.9931 43.0788 27.2581 43.2518C27.2031 43.3698 27.1391 43.4998 27.0671 43.6418C26.9941 43.7838 26.9251 43.9148 26.8621 44.0378C26.7981 44.1608 26.7431 44.2638 26.6981 44.3458C26.6521 44.4278 26.6251 44.4738 26.6161 44.4828C26.5611 44.4558 26.5001 44.4198 26.4311 44.3738C26.3621 44.3278 26.2641 44.2828 26.1371 44.2368C26.0091 44.1908 25.8401 44.1598 25.6311 44.1408C25.4211 44.1218 25.1521 44.1268 24.8241 44.1548C24.6411 44.1738 24.4691 44.2248 24.3041 44.3118C24.1391 44.3988 23.9931 44.5048 23.8661 44.6328C23.7381 44.7608 23.6371 44.9038 23.5651 45.0638C23.4921 45.2228 23.4561 45.3768 23.4561 45.5218C23.4561 45.8858 23.5601 46.1798 23.7701 46.4038C23.9791 46.6278 24.2391 46.8228 24.5491 46.9918C24.8591 47.1608 25.1951 47.3248 25.5611 47.4838C25.9251 47.6428 26.2651 47.8378 26.5801 48.0648C26.8951 48.2918 27.1561 48.5778 27.3661 48.9188C27.5781 49.2608 27.6841 49.6998 27.6841 50.2378Z" fill="white"/>
<path d="M13 19V15C13 14.449 13.448 14 14 14C14.553 14 15 13.552 15 13C15 12.448 14.553 12 14 12C12.346 12 11 13.346 11 15V19C11 20.103 10.103 21 9 21C8.447 21 8 21.448 8 22C8 22.552 8.447 23 9 23C10.103 23 11 23.897 11 25V29C11 30.654 12.346 32 14 32C14.553 32 15 31.552 15 31C15 30.448 14.553 30 14 30C13.448 30 13 29.551 13 29V25C13 23.8 12.458 22.734 11.618 22C12.458 21.266 13 20.2 13 19Z" fill="#EEAF4B"/>
<path d="M21 20C21.8284 20 22.5 19.3284 22.5 18.5C22.5 17.6716 21.8284 17 21 17C20.1716 17 19.5 17.6716 19.5 18.5C19.5 19.3284 20.1716 20 21 20Z" fill="#EEAF4B"/>
<path d="M33 21C31.897 21 31 20.103 31 19V15C31 13.346 29.654 12 28 12C27.447 12 27 12.448 27 13C27 13.552 27.447 14 28 14C28.552 14 29 14.449 29 15V19C29 20.2 29.542 21.266 30.382 22C29.542 22.734 29 23.8 29 25V29C29 29.551 28.552 30 28 30C27.447 30 27 30.448 27 31C27 31.552 27.447 32 28 32C29.654 32 31 30.654 31 29V25C31 23.897 31.897 23 33 23C33.553 23 34 22.552 34 22C34 21.448 33.553 21 33 21Z" fill="#EEAF4B"/>
<path d="M21 24C20.447 24 20 24.448 20 25V28C20 28.552 20.447 29 21 29C21.553 29 22 28.552 22 28V25C22 24.448 21.553 24 21 24Z" fill="#EEAF4B"/>
</svg>
