<svg width="50" height="50" viewBox="0 0 50 50" fill="none" xmlns="http://www.w3.org/2000/svg">
<rect x="2.04346" y="2.22656" width="45.723" height="45.723" rx="3.5" fill="#2C0120" stroke="#E02CAE" stroke-width="3"/>
<path d="M10.4946 34.1776H12.5628L16.3327 27.8422C16.9086 26.8736 17.4584 25.774 17.4584 25.774H17.5107C17.5107 25.774 18.1129 26.8474 18.6626 27.816L22.511 34.1776H24.5792L18.6888 24.5698L24.0818 15.7734H21.9613L18.715 21.2188C18.139 22.1612 17.5893 23.3393 17.5893 23.3393H17.5369C17.5369 23.3393 16.8824 22.1612 16.3327 21.2188L13.1126 15.7734H10.992L16.3588 24.5698L10.4946 34.1776Z" fill="#FF26BE"/>
<path d="M25.8015 27.5804C25.8015 31.6644 28.0267 34.4918 31.5348 34.4918C33.8124 34.4918 35.3832 33.2352 36.1162 31.7429H36.1686C36.1686 31.7429 36.09 32.1095 36.09 32.6854V34.1776H37.8179V15.7734H36.0377V22.2921C36.0377 22.8419 36.1162 23.287 36.1162 23.287H36.0638C35.2523 21.69 33.5768 20.6952 31.7442 20.6952C28.2623 20.6952 25.8015 23.4179 25.8015 27.5804ZM27.634 27.5804C27.634 24.2294 29.5713 22.3183 31.9013 22.3183C34.7025 22.3183 36.0638 24.9101 36.0638 27.5542C36.0638 31.3241 34.0218 32.8948 31.8228 32.8948C29.3619 32.8948 27.634 30.8267 27.634 27.5804Z" fill="#FF26BE"/>
</svg>
