<svg width="50" height="50" viewBox="0 0 50 50" fill="none" xmlns="http://www.w3.org/2000/svg">
<rect x="2.13525" y="2.36719" width="45.723" height="45.723" rx="3.5" fill="#525967" stroke="#454B57" stroke-width="3"/>
<path d="M19.0115 43.4566C19.8297 43.4566 20.6399 43.2954 21.3959 42.9823C22.1518 42.6692 22.8387 42.2102 23.4173 41.6316C23.9958 41.0531 24.4548 40.3662 24.7679 39.6102C25.081 38.8543 25.2422 38.0441 25.2422 37.2258V30.9951H19.0115C18.1933 30.9951 17.383 31.1563 16.6271 31.4694C15.8711 31.7825 15.1843 32.2415 14.6057 32.8201C14.0271 33.3986 13.5682 34.0855 13.255 34.8414C12.9419 35.5974 12.7808 36.4076 12.7808 37.2258C12.7808 38.0441 12.9419 38.8543 13.255 39.6102C13.5682 40.3662 14.0271 41.0531 14.6057 41.6316C15.1843 42.2102 15.8711 42.6692 16.6271 42.9823C17.383 43.2954 18.1933 43.4566 19.0115 43.4566Z" fill="#0ACF83"/>
<path d="M12.7808 24.7649C12.7808 23.1124 13.4372 21.5276 14.6057 20.3591C15.7742 19.1906 17.359 18.5342 19.0115 18.5342H25.2422V30.9956H19.0115C17.359 30.9956 15.7742 30.3392 14.6057 29.1707C13.4372 28.0022 12.7808 26.4174 12.7808 24.7649Z" fill="#A259FF"/>
<path d="M12.7808 12.304C12.7808 10.6515 13.4372 9.06667 14.6057 7.89818C15.7742 6.72969 17.359 6.07324 19.0115 6.07324H25.2422V18.5347H19.0115C17.359 18.5347 15.7742 17.8782 14.6057 16.7098C13.4372 15.5413 12.7808 13.9565 12.7808 12.304Z" fill="#F24E1E"/>
<path d="M25.2427 6.10938H31.4734C33.1259 6.10938 34.7107 6.76582 35.8792 7.93431C37.0477 9.1028 37.7041 10.6876 37.7041 12.3401C37.7041 13.9926 37.0477 15.5774 35.8792 16.7459C34.7107 17.9144 33.1259 18.5708 31.4734 18.5708H25.2427V6.10938Z" fill="#FF7262"/>
<path d="M37.7041 24.7649C37.7041 25.9972 37.3387 27.2019 36.6541 28.2265C35.9694 29.2512 34.9963 30.0498 33.8578 30.5213C32.7193 30.9929 31.4665 31.1163 30.2579 30.8759C29.0492 30.6355 27.939 30.0421 27.0676 29.1707C26.1962 28.2993 25.6028 27.1891 25.3624 25.9805C25.122 24.7718 25.2454 23.519 25.717 22.3805C26.1886 21.242 26.9872 20.2689 28.0118 19.5842C29.0364 18.8996 30.2411 18.5342 31.4734 18.5342C33.1259 18.5342 34.7107 19.1906 35.8792 20.3591C37.0477 21.5276 37.7041 23.1124 37.7041 24.7649Z" fill="#1ABCFE"/>
</svg>
