<svg width="43" height="56" viewBox="0 0 43 56" fill="none" xmlns="http://www.w3.org/2000/svg">
<path d="M30.485 0H1.463C0.655 0 0 0.655 0 1.926V55C0 55.345 0.655 56 1.463 56H41.537C42.345 56 43 55.345 43 55V12.978C43 12.282 42.907 12.058 42.743 11.893L31.107 0.257C30.942 0.093 30.718 0 30.485 0Z" fill="#E9E9E0"/>
<path d="M31 0.151367V12.0004H42.849L31 0.151367Z" fill="#D9D7CA"/>
<path d="M41.537 56H1.463C0.655 56 0 55.345 0 54.537V39H43V54.537C43 55.345 42.345 56 41.537 56Z" fill="#0096E6"/>
<path d="M17.0801 51.9748C16.7061 52.3388 16.2821 52.6128 15.8091 52.7948C15.3361 52.9768 14.8251 53.0678 14.2781 53.0678C13.6761 53.0678 13.1231 52.9588 12.6171 52.7398C12.1111 52.5208 11.6691 52.1978 11.2911 51.7688C10.9131 51.3398 10.6161 50.8028 10.4021 50.1558C10.1881 49.5088 10.0811 48.7608 10.0811 47.9138C10.0811 47.0668 10.1881 46.3208 10.4021 45.6788C10.6161 45.0358 10.9131 44.5008 11.2911 44.0728C11.6691 43.6448 12.1131 43.3188 12.6241 43.0948C13.1351 42.8708 13.6861 42.7598 14.2781 42.7598C14.8251 42.7598 15.3361 42.8508 15.8091 43.0328C16.2821 43.2148 16.7061 43.4888 17.0801 43.8528L15.9451 44.8648C15.7171 44.5998 15.4651 44.4088 15.1861 44.2908C14.9071 44.1728 14.6191 44.1128 14.3181 44.1128C13.9811 44.1128 13.6601 44.1758 13.3541 44.3038C13.0481 44.4318 12.7751 44.6478 12.5341 44.9528C12.2931 45.2578 12.1031 45.6518 11.9671 46.1358C11.8311 46.6198 11.7571 47.2108 11.7481 47.9128C11.7571 48.5968 11.8281 49.1798 11.9601 49.6628C12.0921 50.1458 12.2741 50.5398 12.5071 50.8458C12.7401 51.1518 13.0041 51.3738 13.3001 51.5158C13.5961 51.6578 13.9081 51.7278 14.2371 51.7278C14.5661 51.7278 14.8731 51.6678 15.1601 51.5498C15.4471 51.4318 15.7091 51.2398 15.9461 50.9758L17.0801 51.9748Z" fill="white"/>
<path d="M25.1333 50.2378C25.1333 50.6018 25.0583 50.9558 24.9073 51.2978C24.7563 51.6398 24.5453 51.9408 24.2713 52.1998C23.9973 52.4588 23.6613 52.6668 23.2593 52.8218C22.8573 52.9768 22.4033 53.0538 21.8923 53.0538C21.6733 53.0538 21.4483 53.0418 21.2153 53.0198C20.9823 52.9978 20.7483 52.9578 20.5113 52.9038C20.2743 52.8498 20.0483 52.7738 19.8343 52.6778C19.6203 52.5818 19.4363 52.4658 19.2803 52.3288L19.5673 51.1528C19.6953 51.2258 19.8563 51.2968 20.0523 51.3648C20.2483 51.4328 20.4503 51.4968 20.6603 51.5558C20.8703 51.6148 21.0793 51.6628 21.2893 51.6998C21.4993 51.7368 21.6943 51.7548 21.8773 51.7548C22.4333 51.7548 22.8593 51.6248 23.1553 51.3648C23.4513 51.1048 23.5993 50.7198 23.5993 50.2098C23.5993 49.8998 23.4953 49.6358 23.2853 49.4168C23.0753 49.1978 22.8133 48.9998 22.4993 48.8218C22.1853 48.6438 21.8453 48.4668 21.4803 48.2888C21.1153 48.1108 20.7743 47.9008 20.4553 47.6598C20.1363 47.4188 19.8723 47.1338 19.6623 46.8058C19.4523 46.4778 19.3483 46.0678 19.3483 45.5758C19.3483 45.1298 19.4303 44.7328 19.5943 44.3868C19.7583 44.0408 19.9793 43.7458 20.2573 43.5048C20.5353 43.2638 20.8593 43.0788 21.2283 42.9508C21.5973 42.8228 21.9873 42.7598 22.3973 42.7598C22.8163 42.7598 23.2403 42.7988 23.6683 42.8758C24.0963 42.9528 24.4423 43.0788 24.7073 43.2518C24.6523 43.3698 24.5893 43.4998 24.5163 43.6418C24.4433 43.7838 24.3743 43.9148 24.3113 44.0378C24.2483 44.1608 24.1933 44.2638 24.1473 44.3458C24.1013 44.4278 24.0743 44.4738 24.0653 44.4828C24.0103 44.4558 23.9493 44.4198 23.8803 44.3738C23.8113 44.3278 23.7143 44.2828 23.5863 44.2368C23.4583 44.1908 23.2903 44.1598 23.0803 44.1408C22.8703 44.1218 22.6013 44.1268 22.2733 44.1548C22.0903 44.1738 21.9183 44.2248 21.7533 44.3118C21.5883 44.3988 21.4433 44.5048 21.3153 44.6328C21.1873 44.7608 21.0873 44.9038 21.0143 45.0638C20.9413 45.2238 20.9053 45.3768 20.9053 45.5218C20.9053 45.8858 21.0093 46.1798 21.2193 46.4038C21.4293 46.6278 21.6893 46.8228 21.9983 46.9918C22.3073 47.1608 22.6453 47.3248 23.0103 47.4838C23.3753 47.6428 23.7143 47.8378 24.0293 48.0648C24.3443 48.2918 24.6053 48.5778 24.8153 48.9188C25.0253 49.2598 25.1333 49.6998 25.1333 50.2378Z" fill="white"/>
<path d="M32.5429 50.2378C32.5429 50.6018 32.4679 50.9558 32.3169 51.2978C32.1659 51.6398 31.9549 51.9408 31.6809 52.1998C31.4069 52.4588 31.0709 52.6668 30.6689 52.8218C30.2669 52.9768 29.8129 53.0538 29.3019 53.0538C29.0829 53.0538 28.8579 53.0418 28.6249 53.0198C28.3919 52.9978 28.1579 52.9578 27.9209 52.9038C27.6839 52.8498 27.4579 52.7738 27.2439 52.6778C27.0299 52.5818 26.8459 52.4658 26.6899 52.3288L26.9769 51.1528C27.1049 51.2258 27.2659 51.2968 27.4619 51.3648C27.6579 51.4328 27.8599 51.4968 28.0699 51.5558C28.2799 51.6148 28.4889 51.6628 28.6989 51.6998C28.9089 51.7368 29.1039 51.7548 29.2869 51.7548C29.8429 51.7548 30.2689 51.6248 30.5649 51.3648C30.8609 51.1048 31.0089 50.7198 31.0089 50.2098C31.0089 49.8998 30.9049 49.6358 30.6949 49.4168C30.4849 49.1978 30.2229 48.9998 29.9089 48.8218C29.5949 48.6438 29.2549 48.4668 28.8899 48.2888C28.5249 48.1108 28.1839 47.9008 27.8649 47.6598C27.5459 47.4188 27.2819 47.1338 27.0719 46.8058C26.8619 46.4778 26.7579 46.0678 26.7579 45.5758C26.7579 45.1298 26.8399 44.7328 27.0039 44.3868C27.1679 44.0408 27.3889 43.7458 27.6669 43.5048C27.9449 43.2638 28.2689 43.0788 28.6379 42.9508C29.0069 42.8228 29.3969 42.7598 29.8069 42.7598C30.2259 42.7598 30.6499 42.7988 31.0779 42.8758C31.5059 42.9528 31.8519 43.0788 32.1169 43.2518C32.0619 43.3698 31.9989 43.4998 31.9259 43.6418C31.8529 43.7838 31.7839 43.9148 31.7209 44.0378C31.6579 44.1608 31.6029 44.2638 31.5569 44.3458C31.5109 44.4278 31.4839 44.4738 31.4749 44.4828C31.4199 44.4558 31.3589 44.4198 31.2899 44.3738C31.2209 44.3278 31.1239 44.2828 30.9959 44.2368C30.8679 44.1908 30.6999 44.1598 30.4899 44.1408C30.2799 44.1218 30.0109 44.1268 29.6829 44.1548C29.4999 44.1738 29.3279 44.2248 29.1629 44.3118C28.9979 44.3988 28.8529 44.5048 28.7249 44.6328C28.5969 44.7608 28.4969 44.9038 28.4239 45.0638C28.3509 45.2238 28.3149 45.3768 28.3149 45.5218C28.3149 45.8858 28.4189 46.1798 28.6289 46.4038C28.8389 46.6278 29.0989 46.8228 29.4079 46.9918C29.7169 47.1608 30.0549 47.3248 30.4199 47.4838C30.7849 47.6428 31.1239 47.8378 31.4389 48.0648C31.7539 48.2918 32.0149 48.5778 32.2249 48.9188C32.4349 49.2598 32.5429 49.6998 32.5429 50.2378Z" fill="white"/>
<path d="M13 19V15C13 14.449 13.448 14 14 14C14.553 14 15 13.552 15 13C15 12.448 14.553 12 14 12C12.346 12 11 13.346 11 15V19C11 20.103 10.103 21 9 21C8.447 21 8 21.448 8 22C8 22.552 8.447 23 9 23C10.103 23 11 23.897 11 25V29C11 30.654 12.346 32 14 32C14.553 32 15 31.552 15 31C15 30.448 14.553 30 14 30C13.448 30 13 29.551 13 29V25C13 23.8 12.458 22.734 11.618 22C12.458 21.266 13 20.2 13 19Z" fill="#0096E6"/>
<path d="M33 21C31.897 21 31 20.103 31 19V15C31 13.346 29.654 12 28 12C27.447 12 27 12.448 27 13C27 13.552 27.447 14 28 14C28.552 14 29 14.449 29 15V19C29 20.2 29.542 21.266 30.382 22C29.542 22.734 29 23.8 29 25V29C29 29.551 28.552 30 28 30C27.447 30 27 30.448 27 31C27 31.552 27.447 32 28 32C29.654 32 31 30.654 31 29V25C31 23.897 31.897 23 33 23C33.553 23 34 22.552 34 22C34 21.448 33.553 21 33 21Z" fill="#0096E6"/>
</svg>
