<svg width="223" height="32" viewBox="0 0 223 32" fill="none" xmlns="http://www.w3.org/2000/svg">
<path fill-rule="evenodd" clip-rule="evenodd" d="M34.0662 31.4345V14.9867C34.0662 10.3211 31.5827 8.10604 27.4123 8.10604C23.9447 8.10604 20.9458 10.1797 19.6337 12.2533C18.7903 9.66127 16.6817 8.10604 13.3547 8.10604C9.88716 8.10604 6.88821 10.2739 5.95104 11.6406V8.67158H0V31.4345H5.95104V16.1178C6.84135 14.8454 8.57512 13.4315 10.6369 13.4315C13.0735 13.4315 14.0107 14.9396 14.0107 17.0604V31.4345H20.0086V16.0707C20.8521 14.8454 22.5858 13.4315 24.6945 13.4315C27.1311 13.4315 28.0683 14.9396 28.0683 17.0604V31.4345H34.0662ZM50.4198 32C42.9693 32 38.4709 26.5331 38.4709 20.0295C38.4709 13.5729 42.9693 8.10604 50.4198 8.10604C57.9172 8.10604 62.4156 13.5729 62.4156 20.0295C62.4156 26.5331 57.9172 32 50.4198 32ZM50.4198 26.6745C54.1217 26.6745 56.2303 23.6112 56.2303 20.0295C56.2303 16.4948 54.1217 13.4315 50.4198 13.4315C46.718 13.4315 44.6562 16.4948 44.6562 20.0295C44.6562 23.6112 46.718 26.6745 50.4198 26.6745ZM88.0473 31.4345V15.3638C88.0473 10.9337 85.6575 8.10604 80.6905 8.10604C76.9887 8.10604 74.224 9.89691 72.7714 11.6406V8.67158H66.8203V31.4345H72.7714V16.1178C73.7554 14.7511 75.5829 13.4315 77.9258 13.4315C80.4562 13.4315 82.0962 14.5155 82.0962 17.673V31.4345H88.0473ZM104.448 32C96.9973 32 92.4988 26.5331 92.4988 20.0295C92.4988 13.5729 96.9973 8.10604 104.448 8.10604C111.945 8.10604 116.444 13.5729 116.444 20.0295C116.444 26.5331 111.945 32 104.448 32ZM104.448 26.6745C108.15 26.6745 110.258 23.6112 110.258 20.0295C110.258 16.4948 108.15 13.4315 104.448 13.4315C100.746 13.4315 98.6842 16.4948 98.6842 20.0295C98.6842 23.6112 100.746 26.6745 104.448 26.6745ZM126.799 24.1296C127.783 25.5906 129.986 26.6745 131.907 26.6745C135.374 26.6745 137.671 24.0353 137.671 20.0766C137.671 16.1178 135.374 13.4315 131.907 13.4315C129.986 13.4315 127.783 14.5626 126.799 16.0707V24.1296ZM126.799 31.4345H120.848V0H126.799V11.5935C128.58 9.28424 131.11 8.10604 133.781 8.10604C139.545 8.10604 143.809 12.6303 143.809 20.0766C143.809 27.6642 139.498 32 133.781 32C131.063 32 128.58 30.7747 126.799 28.5125V31.4345ZM167.847 31.4345H161.896V29.0781C160.35 30.9161 157.679 32 154.727 32C151.119 32 146.855 29.5493 146.855 24.4595C146.855 19.134 151.119 17.1075 154.727 17.1075C157.726 17.1075 160.397 18.0972 161.896 19.8881V16.8247C161.896 14.5155 159.928 13.0074 156.929 13.0074C154.493 13.0074 152.244 13.9028 150.322 15.6937L148.073 11.6878C150.838 9.23711 154.399 8.10604 157.96 8.10604C163.115 8.10604 167.847 10.1797 167.847 16.7305V31.4345ZM157.117 27.947C159.038 27.947 160.912 27.2872 161.896 25.9676V23.1399C160.912 21.8203 159.038 21.1605 157.117 21.1605C154.774 21.1605 152.853 22.3859 152.853 24.6009C152.853 26.7217 154.774 27.947 157.117 27.947ZM194.979 31.4345V15.3638C194.979 10.9337 192.589 8.10604 187.622 8.10604C183.92 8.10604 181.155 9.89691 179.703 11.6406V8.67158H173.752V31.4345H179.703V16.1178C180.687 14.7511 182.514 13.4315 184.857 13.4315C187.387 13.4315 189.028 14.5155 189.028 17.673V31.4345H194.979ZM223 31.4345L213.769 18.9926L222.719 8.67158H215.409L206.834 18.8041V0H200.883V31.4345H206.834V25.5906L209.552 22.6686L215.549 31.4345H223Z" fill="black"/>
</svg>
