<svg width="730" height="730" viewBox="0 0 730 730" fill="none" xmlns="http://www.w3.org/2000/svg">
<g opacity="0.1" filter="url(#filter0_i_112_2)">
<path d="M138 365C138 425.204 161.916 482.942 204.487 525.513C247.057 568.084 304.796 592 365 592C425.204 592 482.942 568.084 525.513 525.513C568.084 482.943 592 425.204 592 365L478.5 365C478.5 395.102 466.542 423.971 445.257 445.257C423.971 466.542 395.102 478.5 365 478.5C334.898 478.5 306.029 466.542 284.743 445.257C263.458 423.971 251.5 395.102 251.5 365L138 365Z" fill="white"/>
</g>
<g filter="url(#filter1_i_112_2)">
<path d="M-9.0161e-05 365C-9.86239e-05 461.804 38.4552 554.643 106.906 623.094C175.357 691.545 268.196 730 365 730C461.804 730 554.643 691.545 623.094 623.094C691.545 554.643 730 461.804 730 365L591.341 365C591.341 425.029 567.494 482.6 525.047 525.047C482.6 567.494 425.029 591.341 365 591.341C304.971 591.341 247.4 567.494 204.953 525.047C162.506 482.6 138.659 425.029 138.659 365L-9.0161e-05 365Z" fill="#232323"/>
</g>
<defs>
<filter id="filter0_i_112_2" x="138" y="365" width="454" height="231" filterUnits="userSpaceOnUse" color-interpolation-filters="sRGB">
<feFlood flood-opacity="0" result="BackgroundImageFix"/>
<feBlend mode="normal" in="SourceGraphic" in2="BackgroundImageFix" result="shape"/>
<feColorMatrix in="SourceAlpha" type="matrix" values="0 0 0 0 0 0 0 0 0 0 0 0 0 0 0 0 0 0 127 0" result="hardAlpha"/>
<feOffset dy="4"/>
<feGaussianBlur stdDeviation="2"/>
<feComposite in2="hardAlpha" operator="arithmetic" k2="-1" k3="1"/>
<feColorMatrix type="matrix" values="0 0 0 0 0 0 0 0 0 0 0 0 0 0 0 0 0 0 0.25 0"/>
<feBlend mode="normal" in2="shape" result="effect1_innerShadow_112_2"/>
</filter>
<filter id="filter1_i_112_2" x="-9.15527e-05" y="365" width="730" height="369" filterUnits="userSpaceOnUse" color-interpolation-filters="sRGB">
<feFlood flood-opacity="0" result="BackgroundImageFix"/>
<feBlend mode="normal" in="SourceGraphic" in2="BackgroundImageFix" result="shape"/>
<feColorMatrix in="SourceAlpha" type="matrix" values="0 0 0 0 0 0 0 0 0 0 0 0 0 0 0 0 0 0 127 0" result="hardAlpha"/>
<feOffset dy="4"/>
<feGaussianBlur stdDeviation="2"/>
<feComposite in2="hardAlpha" operator="arithmetic" k2="-1" k3="1"/>
<feColorMatrix type="matrix" values="0 0 0 0 0 0 0 0 0 0 0 0 0 0 0 0 0 0 0.25 0"/>
<feBlend mode="normal" in2="shape" result="effect1_innerShadow_112_2"/>
</filter>
</defs>
</svg>
