<svg width="22" height="8" viewBox="0 0 22 8" fill="none" xmlns="http://www.w3.org/2000/svg">
<path d="M21 4.50024C21.2761 4.50024 21.5 4.27639 21.5 4.00024C21.5 3.7241 21.2761 3.50024 21 3.50024V4.50024ZM0.646447 3.64669C0.451184 3.84195 0.451184 4.15854 0.646447 4.3538L3.82843 7.53578C4.02369 7.73104 4.34027 7.73104 4.53553 7.53578C4.7308 7.34052 4.7308 7.02393 4.53553 6.82867L1.70711 4.00024L4.53553 1.17182C4.7308 0.976555 4.7308 0.659972 4.53553 0.46471C4.34027 0.269448 4.02369 0.269448 3.82843 0.46471L0.646447 3.64669ZM21 3.50024L1 3.50024L1 4.50024L21 4.50024V3.50024Z" fill="#FF0178"/>
</svg>
