<svg width="22" height="8" viewBox="0 0 22 8" fill="none" xmlns="http://www.w3.org/2000/svg">
<path d="M1 3.50025C0.723858 3.50025 0.5 3.7241 0.5 4.00025C0.5 4.27639 0.723858 4.50025 1 4.50025L1 3.50025ZM21.3536 4.3538C21.5488 4.15854 21.5488 3.84195 21.3536 3.64669L18.1716 0.46471C17.9763 0.269448 17.6597 0.269448 17.4645 0.464711C17.2692 0.659973 17.2692 0.976555 17.4645 1.17182L20.2929 4.00024L17.4645 6.82867C17.2692 7.02393 17.2692 7.34052 17.4645 7.53578C17.6597 7.73104 17.9763 7.73104 18.1716 7.53578L21.3536 4.3538ZM1 4.50025L21 4.50024L21 3.50024L1 3.50025L1 4.50025Z" fill="white"/>
</svg>
