<svg width="58" height="31" viewBox="0 0 58 31" fill="none" xmlns="http://www.w3.org/2000/svg">
<path d="M0 2.21429C0 0.99137 0.983617 0 2.19697 0H55.803C57.0164 0 58 0.99137 58 2.21429C58 3.4372 57.0164 4.42857 55.803 4.42857H2.19697C0.983618 4.42857 0 3.4372 0 2.21429Z" fill="white"/>
<path d="M0 15.5C0 14.2771 0.983617 13.2857 2.19697 13.2857H55.803C57.0164 13.2857 58 14.2771 58 15.5C58 16.7229 57.0164 17.7143 55.803 17.7143H2.19697C0.983618 17.7143 0 16.7229 0 15.5Z" fill="white"/>
<path d="M28.1212 28.7857C28.1212 27.5628 29.1048 26.5714 30.3182 26.5714H54.9242C56.1376 26.5714 57.1212 27.5628 57.1212 28.7857C57.1212 30.0086 56.1376 31 54.9242 31H30.3182C29.1048 31 28.1212 30.0086 28.1212 28.7857Z" fill="white"/>
</svg>
