<svg width="197" height="73" viewBox="0 0 197 73" fill="none" xmlns="http://www.w3.org/2000/svg">
<path d="M195.238 19.5273C195.922 23.4079 194.149 27.7092 189.952 32.2329C185.769 36.7418 179.308 41.3207 171.007 45.6913C154.415 54.4268 130.676 62.2225 103.73 66.9739C76.7833 71.7253 51.8103 72.5188 33.2311 69.9848C23.9356 68.7171 16.2987 66.6239 10.8256 63.8177C5.33454 61.0022 2.19727 57.5668 1.513 53.6861C0.82874 49.8055 2.60182 45.5042 6.79877 40.9805C10.982 36.4716 17.4425 31.8927 25.7438 27.5221C42.3359 18.7866 66.0742 10.9909 93.0207 6.23954C119.967 1.48815 144.94 0.694639 163.519 3.22857C172.815 4.49635 180.452 6.58946 185.925 9.3957C191.416 12.2112 194.553 15.6466 195.238 19.5273Z" stroke="#B54ACC" stroke-width="2"/>
</svg>
