<svg width="143" height="60" viewBox="0 0 143 60" fill="none" xmlns="http://www.w3.org/2000/svg">
<path d="M0.474091 20.5535C0.257385 20.4459 0.0677668 20.2443 0.0135902 19.8544C-0.0541306 19.3973 0.135488 18.9402 0.487636 18.6444C1.97749 17.3941 4.1581 14.4767 10.1311 13.213C10.1311 13.213 16.7135 12.7021 21.3998 8.77639C21.8874 8.35962 22.3885 7.9563 22.9032 7.57987C24.4879 6.39678 27.8604 3.72139 29.3638 1.34178L29.4992 0.99223C29.7159 0.400687 30.339 0.0511393 30.962 0.185581C31.7205 0.333467 32.181 1.12667 31.9236 1.85265C30.9755 4.63559 29.0929 10.5241 31.0162 8.3193C31.0162 8.3193 35.1878 2.17531 38.4384 3.65417C41.2962 4.95826 39.7522 10.2956 39.3458 11.5324C39.2646 11.7744 39.251 12.0433 39.3052 12.2988C39.4 12.6886 39.6709 12.9979 40.4429 11.8417C40.4429 11.8417 46.0096 3.29118 48.7997 3.54662C48.7997 3.54662 51.3731 3.80206 50.5469 6.97488C50.5469 6.97488 48.7997 13.818 46.0637 20.661C46.0637 20.661 41.7838 32.2633 43.1247 35.8529C43.1247 35.8529 44.5739 37.2377 47.4046 32.5188L51.6033 25.3934C51.7794 25.0842 52.2263 25.0573 52.443 25.353C52.5785 25.5278 52.5649 25.7833 52.4295 25.958C51.4949 27.1277 50.6281 28.3511 49.8426 29.6283L48.4881 31.86C48.4881 31.86 45.7387 37.0898 43.1788 37.0495C43.1788 37.0495 40.9847 37.1973 41.093 34.5354C41.093 34.5354 40.0908 30.7845 45.698 14.5036C51.3053 -1.77727 44.4791 7.67397 44.4791 7.67397C44.4791 7.67397 36.6912 17.7974 33.0207 30.771C32.8853 31.2281 32.5602 31.618 32.1133 31.8062C31.6798 31.981 31.1652 31.9541 30.7859 31.2012C30.6098 30.8248 30.5963 30.408 30.7317 30.0182C32.0726 26.2941 40.3075 2.92818 36.9079 4.2726C36.9079 4.2726 33.7115 4.38016 28.2938 14.9742C28.2938 14.9742 24.3118 24.0355 21.3727 33.8229C21.2508 34.2262 20.9935 34.5757 20.6413 34.8043C20.1538 35.1135 19.4495 35.3555 18.9077 34.6564C18.542 34.1993 18.4607 33.5809 18.6504 33.0297L27.4676 6.73288C27.4676 6.73288 21.5894 12.7155 11.4855 14.4767C9.41324 14.8397 7.4087 15.5523 5.60733 16.6278C4.14456 17.5017 2.62761 18.7116 1.4899 20.3653C1.2732 20.6745 0.812695 20.7283 0.474091 20.5535Z" fill="white"/>
<path d="M70.8232 22.5164C70.8232 22.5164 66.1504 34.2666 63.2655 32.2231C60.6921 30.3947 64.024 22.0996 65.7712 18.6848C66.0556 18.1336 65.8254 17.4614 65.2565 17.1925L64.7554 16.9505C64.1594 16.6682 63.4416 16.9102 63.1572 17.5017L62.1278 19.5721C62.1278 19.5721 59.1345 15.7808 55.2745 18.9537C52.3896 21.3198 51.6853 25.38 51.5092 27.3025C51.4144 28.4049 51.8207 29.5073 52.6469 30.2333C52.9449 30.5022 53.3241 30.7308 53.7711 30.8786C53.7711 30.8786 57.279 32.1558 59.1345 29.3998C59.1345 29.3998 59.0533 33.3524 62.4529 33.7019C63.7937 33.8364 65.1346 33.312 66.0692 32.344C67.2475 31.1206 69.1301 28.1495 70.7419 23.4844L70.8232 22.5164ZM60.8547 21.4812C60.7734 23.3365 59.8118 26.4152 59.8118 26.4152C58.498 31.0534 56.5612 30.556 56.5612 30.556C56.5612 30.556 53.2157 30.6366 55.2745 23.7936C56.6289 19.2763 58.5522 19.2091 59.7034 19.6797C60.4348 19.9754 60.8953 20.688 60.8547 21.4812Z" fill="white"/>
<path d="M100.24 31.4164C100.172 31.3357 100.064 31.2954 99.8472 31.3895C99.6441 31.4701 99.4951 31.6315 99.3867 31.8197C98.7366 32.9893 94.5921 38.9317 77.1066 39.9131C77.1066 39.9131 79.4091 25.3665 82.5107 18.51C82.6055 18.2949 82.6461 18.0529 82.5784 17.8243C82.4971 17.5554 82.294 17.3 81.7387 17.5286C81.2511 17.7302 80.8989 18.147 80.75 18.6444C80.1946 20.5132 78.2578 26.1059 75.1427 25.9312C72.5151 25.7833 76.6732 13.8852 76.6732 13.8852C76.6732 13.8852 76.2668 11.9761 74.6822 13.3071C73.0975 14.6381 67.5715 26.3748 73.3413 27.4369C73.3413 27.4369 75.7115 27.8671 77.9192 25.0438L74.3165 40.9752C74.3165 40.9752 60.0409 44.0136 57.603 55.2394C57.603 55.2394 55.5714 62.0018 64.2667 59.4071C72.9621 56.8124 76.6732 41.8625 76.6732 41.8625C76.6732 41.8625 98.2084 39.7652 100.267 31.6718C100.308 31.5911 100.294 31.497 100.24 31.4164ZM58.6053 57.1216C58.4969 45.8554 74.0727 42.2793 74.0727 42.2793C70.1584 55.2529 58.6459 62.6472 58.6053 57.1216Z" fill="white"/>
<path d="M90.4351 12.5811C90.4351 12.5811 90.1236 10.1746 88.5389 11.3577C88.0784 11.7073 87.7398 12.1778 87.5638 12.729C86.9272 14.5709 85.3154 19.8544 87.794 20.0292C87.794 20.0292 89.8256 19.8948 90.4351 20.3384C90.4351 20.3384 86.5886 29.2788 91.5999 30.2333C91.5999 30.2333 95.3517 31.1878 98.5752 26.8185C98.5752 26.8185 98.9815 26.3076 98.5752 26.4286C98.4262 26.4689 98.2907 26.5631 98.1824 26.6706C97.4375 27.41 93.6857 30.9727 92.0469 29.3729C92.0469 29.3729 91.0175 28.0016 92.7647 22.7584C92.7647 22.7584 93.9701 19.5855 89.1484 19.0343C89.162 19.0343 90.6518 14.7994 90.4351 12.5811Z" fill="white"/>
<path d="M120.313 16.9773C120.286 16.2245 120.055 12.2584 117.292 8.23864C114.922 4.79693 111.956 3.21053 110.588 2.48454C104.818 -0.540394 97.4501 -0.84961 94.5246 1.81233C94.2672 2.05433 93.4275 2.95509 93.6713 3.51974C93.9963 4.28606 96.2718 3.90962 96.6916 3.8424C96.6916 3.8424 112.457 0.266255 117.103 9.27384C121.017 16.8698 118.24 23.565 118.078 23.8608C117.225 25.4606 114.462 30.6635 109.911 31.7659C109.504 31.86 109.125 31.6046 109.071 31.2013C108.963 30.3139 109.274 28.4049 111.021 24.2775C111.021 24.2775 113.378 17.9453 111.766 17.4479C111.685 17.421 111.604 17.3941 111.522 17.3672C111.197 17.2597 110.263 17.1118 109.423 18.7789C109.423 18.7789 108.61 15.485 104.588 17.0849C103.22 17.6361 102.014 18.5369 101.066 19.6662C99.6171 21.387 97.7074 24.4657 99.116 27.4638C99.7526 28.8216 101.012 29.8031 102.516 30.0047C103.477 30.1257 104.696 30.0182 106.159 29.3191C106.159 29.3191 106.322 31.5911 107.947 32.465C108.99 33.0297 110.127 32.7473 110.601 32.6263C114.164 31.7525 120.665 25.2724 120.313 16.9773ZM108.692 20.5938C107.852 23.7935 106.917 26.4151 106.389 27.8268C106.024 28.7813 105.184 29.4804 104.182 29.6283C100.091 30.193 102.61 20.5669 105.468 18.3755C107.31 16.9639 108.15 17.6764 108.543 18.5503C108.827 19.1956 108.868 19.9216 108.692 20.5938Z" fill="white"/>
<path d="M125.189 15.5254C126.516 15.2968 134.25 13.4684 142.336 0.185571C142.417 0.0511293 142.58 -0.0295422 142.742 0.0107903C142.945 0.0645669 143.121 0.293119 142.891 1.11321C141.753 5.09268 137.839 15.5926 131.934 30.3274C131.704 30.9055 131.284 31.3895 130.742 31.7121C129.943 32.1692 128.832 32.4919 128.291 31.2416C127.993 30.5828 128.006 29.8299 128.277 29.1577L136.241 9.26038C136.241 9.26038 131.92 14.7053 125.148 16.2379C125.013 16.2648 124.877 16.2513 124.756 16.1841C124.634 16.1035 124.552 15.9825 124.742 15.7673C124.85 15.6463 125.013 15.5657 125.189 15.5254Z" fill="white"/>
<path d="M101.327 45.1112H102.583V55.8637H101.622L101.445 54.7341C100.657 55.6045 99.6369 56.0397 98.3857 56.0397C97.1837 56.0397 96.1936 55.6485 95.4153 54.8662C94.6468 54.074 94.2626 53.0863 94.2626 51.903C94.2626 50.7099 94.6468 49.7222 95.4153 48.9398C96.1936 48.1575 97.1837 47.7663 98.3857 47.7663C99.5679 47.7663 100.548 48.1575 101.327 48.9398V45.1112ZM96.3758 54.0007C96.9276 54.5581 97.6221 54.8368 98.4596 54.8368C99.3069 54.8368 100.011 54.5581 100.573 54.0007C101.134 53.4335 101.415 52.7342 101.415 51.903C101.415 51.062 101.134 50.3627 100.573 49.8053C100.021 49.2479 99.3216 48.9692 98.4744 48.9692C98.0606 48.9692 97.6714 49.0474 97.3069 49.2039C96.9423 49.3506 96.632 49.551 96.3758 49.8053C96.1197 50.0596 95.9177 50.3725 95.7699 50.7441C95.6222 51.106 95.5483 51.4923 95.5483 51.903C95.5483 52.744 95.8241 53.4433 96.3758 54.0007Z" fill="white"/>
<path d="M112.593 51.9323C112.593 52.0399 112.583 52.1915 112.564 52.3871H105.751C105.849 53.1205 106.155 53.7122 106.667 54.162C107.179 54.6021 107.81 54.8221 108.559 54.8221C109.11 54.8221 109.598 54.7048 110.022 54.4701C110.455 54.2256 110.8 53.8833 111.056 53.4433H112.372C112.037 54.2647 111.534 54.9053 110.864 55.3649C110.194 55.8148 109.426 56.0397 108.559 56.0397C107.406 56.0397 106.441 55.6436 105.662 54.8515C104.884 54.0594 104.495 53.0765 104.495 51.903C104.495 50.7197 104.884 49.7369 105.662 48.9545C106.441 48.1624 107.406 47.7663 108.559 47.7663C109.751 47.7663 110.721 48.1673 111.47 48.9692C112.219 49.7711 112.593 50.7588 112.593 51.9323ZM108.559 48.9545C108.086 48.9545 107.652 49.0474 107.258 49.2332C106.874 49.419 106.554 49.688 106.298 50.04C106.042 50.3823 105.869 50.7784 105.78 51.2282H111.322C111.234 50.7686 111.061 50.3676 110.805 50.0253C110.549 49.6733 110.229 49.4092 109.844 49.2332C109.46 49.0474 109.032 48.9545 108.559 48.9545Z" fill="white"/>
<path d="M116.995 56.0397C116.364 56.0397 115.812 55.937 115.34 55.7316C114.867 55.5165 114.497 55.2133 114.231 54.8221C113.965 54.4212 113.822 53.9567 113.803 53.4286H115.029C115.059 53.8882 115.256 54.2452 115.62 54.4994C115.985 54.7537 116.453 54.8808 117.024 54.8808C117.586 54.8808 118.039 54.7733 118.384 54.5581C118.729 54.3332 118.901 54.03 118.901 53.6486C118.901 53.5019 118.876 53.3699 118.827 53.2526C118.788 53.1352 118.714 53.0325 118.606 52.9445C118.497 52.8565 118.389 52.7831 118.28 52.7245C118.172 52.6658 118.024 52.612 117.837 52.5631C117.66 52.5142 117.502 52.48 117.364 52.4604C117.236 52.4311 117.059 52.3969 116.832 52.3577C116.576 52.3186 116.379 52.2844 116.241 52.2551C116.103 52.2257 115.916 52.1817 115.679 52.123C115.443 52.0546 115.256 51.9861 115.118 51.9177C114.98 51.8492 114.827 51.7563 114.66 51.6389C114.492 51.5216 114.364 51.3945 114.275 51.2576C114.187 51.1206 114.108 50.9495 114.039 50.7441C113.98 50.5388 113.95 50.3089 113.95 50.0547C113.95 49.7222 114.019 49.4141 114.157 49.1305C114.305 48.8469 114.507 48.6073 114.763 48.4117C115.029 48.2064 115.349 48.0499 115.724 47.9423C116.098 47.825 116.507 47.7663 116.95 47.7663C117.857 47.7663 118.581 47.9863 119.123 48.4264C119.665 48.8665 119.945 49.463 119.965 50.216H118.783C118.763 49.9324 118.674 49.6928 118.517 49.4973C118.369 49.2919 118.157 49.1403 117.881 49.0425C117.615 48.9349 117.3 48.8812 116.936 48.8812C116.571 48.8812 116.256 48.9301 115.99 49.0278C115.724 49.1159 115.517 49.2479 115.369 49.4239C115.231 49.5999 115.162 49.8004 115.162 50.0253C115.162 50.1818 115.202 50.3236 115.28 50.4508C115.359 50.5681 115.448 50.6659 115.546 50.7441C115.645 50.8126 115.798 50.881 116.005 50.9495C116.211 51.0082 116.384 51.0522 116.522 51.0815C116.67 51.1011 116.876 51.1353 117.142 51.1842C117.418 51.2233 117.62 51.2576 117.748 51.2869C117.886 51.3064 118.078 51.3505 118.325 51.4189C118.581 51.4776 118.778 51.5412 118.916 51.6096C119.054 51.6781 119.211 51.7759 119.389 51.903C119.576 52.0203 119.714 52.1573 119.803 52.3137C119.891 52.4604 119.97 52.6462 120.039 52.8712C120.108 53.0863 120.142 53.3259 120.142 53.5899C120.142 54.3332 119.852 54.9297 119.271 55.3796C118.699 55.8196 117.941 56.0397 116.995 56.0397Z" fill="white"/>
<path d="M121.985 46.5634V45.1405H123.345V46.5634H121.985ZM122.044 55.8637V47.9423H123.3V55.8637H122.044Z" fill="white"/>
<path d="M132.417 47.9423H133.259V54.7488C133.259 56.0299 132.909 57.0372 132.21 57.7706C131.51 58.5041 130.555 58.8708 129.343 58.8708C128.367 58.8708 127.545 58.6312 126.875 58.152C126.215 57.6728 125.776 57.0127 125.559 56.1717H126.816C126.993 56.6607 127.308 57.0421 127.761 57.3159C128.225 57.5897 128.752 57.7266 129.343 57.7266C130.151 57.7266 130.796 57.4724 131.279 56.9638C131.771 56.4651 132.018 55.7805 132.018 54.9102V54.4261C131.259 55.2182 130.293 55.6143 129.121 55.6143C128.008 55.6143 127.072 55.2378 126.313 54.4848C125.564 53.7317 125.19 52.8027 125.19 51.6976C125.19 50.9739 125.362 50.3138 125.707 49.7173C126.052 49.111 126.525 48.6367 127.126 48.2944C127.727 47.9423 128.392 47.7663 129.121 47.7663C129.742 47.7663 130.318 47.8934 130.85 48.1477C131.392 48.3922 131.845 48.7345 132.21 49.1745L132.417 47.9423ZM129.254 54.4114C129.776 54.4114 130.249 54.2941 130.673 54.0594C131.096 53.8246 131.426 53.5019 131.663 53.0912C131.899 52.6805 132.018 52.2159 132.018 51.6976C132.018 50.9055 131.756 50.2552 131.234 49.7466C130.712 49.2283 130.052 48.9692 129.254 48.9692C128.456 48.9692 127.791 49.2283 127.259 49.7466C126.737 50.2649 126.476 50.9153 126.476 51.6976C126.476 52.4702 126.737 53.1156 127.259 53.634C127.791 54.1523 128.456 54.4114 129.254 54.4114Z" fill="white"/>
<path d="M139.774 47.7663C140.71 47.7663 141.453 48.0792 142.005 48.7051C142.567 49.331 142.847 50.1378 142.847 51.1255V55.8637H141.591V51.4189C141.591 50.881 141.508 50.4263 141.34 50.0547C141.182 49.6831 140.941 49.3995 140.616 49.2039C140.301 49.0083 139.912 48.9105 139.448 48.9105C138.769 48.9105 138.197 49.1648 137.734 49.6733C137.271 50.172 137.04 50.793 137.04 51.5363V55.8637H135.783V47.9423H136.67L136.921 49.1892C137.118 48.886 137.36 48.6318 137.646 48.4264C137.931 48.2113 138.256 48.0499 138.621 47.9423C138.985 47.825 139.37 47.7663 139.774 47.7663Z" fill="white"/>
</svg>
