<svg width="42" height="42" viewBox="0 0 42 42" fill="none" xmlns="http://www.w3.org/2000/svg">
<circle cx="21" cy="20.9998" r="21" fill="white"/>
<path d="M26.2562 19.3296V14.6195C26.2562 14.4846 26.1941 14.3601 26.1062 14.2615L20.8374 8.71625C20.7391 8.61258 20.5992 8.55542 20.4596 8.55542H12.1061C10.5639 8.55542 9.33203 9.81589 9.33203 11.3618V27.1936C9.33203 28.7395 10.5639 29.9792 12.1061 29.9792H18.6999C19.9471 32.0541 22.2142 33.4443 24.7967 33.4443C28.7198 33.4443 31.9235 30.2489 31.9235 26.3118C31.9288 22.8725 29.4651 19.9988 26.2562 19.3296ZM20.9772 10.3762L24.5121 14.1058H22.2193C21.5361 14.1058 20.9772 13.5405 20.9772 12.8558V10.3762ZM12.1061 28.9417C11.1383 28.9417 10.3672 28.1635 10.3672 27.1936V11.3618C10.3672 10.3865 11.1383 9.59296 12.1061 9.59296H19.942V12.8558C19.942 14.1163 20.9617 15.1434 22.2193 15.1434H25.221V19.1946C25.0659 19.1895 24.9416 19.1739 24.8071 19.1739C23.0008 19.1739 21.3394 19.8691 20.0869 20.9585H13.5139C13.2292 20.9585 12.9963 21.1918 12.9963 21.4771C12.9963 21.7625 13.2292 21.9958 13.5139 21.9958H19.1243C18.7568 22.5146 18.4514 23.0334 18.2134 23.604H13.5139C13.2292 23.604 12.9963 23.8373 12.9963 24.1227C12.9963 24.408 13.2292 24.6415 13.5139 24.6415H17.8769C17.7475 25.1603 17.6803 25.736 17.6803 26.3118C17.6803 27.2454 17.8614 28.1689 18.1875 28.947H12.1061V28.9417ZM24.802 32.4121C21.4482 32.4121 18.7206 29.6783 18.7206 26.3169C18.7206 22.9555 21.4429 20.2217 24.802 20.2217C28.1609 20.2217 30.8832 22.9555 30.8832 26.3169C30.8832 29.6783 28.1557 32.4121 24.802 32.4121Z" fill="black"/>
<path d="M13.5139 19.397H18.7568C19.0415 19.397 19.2744 19.1635 19.2744 18.8782C19.2744 18.5928 19.0415 18.3595 18.7568 18.3595H13.5139C13.2292 18.3595 12.9963 18.5928 12.9963 18.8782C12.9963 19.1635 13.2292 19.397 13.5139 19.397Z" fill="black"/>
<path d="M24.6311 23.1163C24.6726 23.1266 24.7139 23.1319 24.7553 23.1319C24.8071 23.1319 24.8537 23.1266 24.9003 23.111C25.5835 23.1682 26.1166 23.7388 26.1166 24.434C26.1166 24.7192 26.3494 24.9525 26.634 24.9525C26.9188 24.9525 27.1516 24.7192 27.1516 24.434C27.1516 23.2927 26.3443 22.3382 25.2729 22.1151V21.7831C25.2729 21.4977 25.0399 21.2644 24.7553 21.2644C24.4706 21.2644 24.2377 21.4977 24.2377 21.7831V22.1359C23.2026 22.3849 22.4315 23.3239 22.4315 24.434C22.4315 25.7411 23.4924 26.7994 24.7915 26.7994C25.5213 26.7994 26.1166 27.3958 26.1166 28.1273C26.1166 28.8587 25.5264 29.4605 24.7915 29.4605C24.0617 29.4605 23.4667 28.8638 23.4667 28.1324C23.4667 27.8472 23.2336 27.6136 22.9491 27.6136C22.6643 27.6136 22.4315 27.8472 22.4315 28.1324C22.4315 29.2478 23.2026 30.1815 24.2377 30.4304V30.9647C24.2377 31.2501 24.4706 31.4835 24.7553 31.4835C25.0399 31.4835 25.2729 31.2501 25.2729 30.9647V30.446C26.3443 30.2229 27.1516 29.2685 27.1516 28.1273C27.1516 26.8201 26.0906 25.7618 24.7915 25.7618C24.0617 25.7618 23.4667 25.1652 23.4667 24.434C23.4667 23.7595 23.9738 23.1942 24.6311 23.1163Z" fill="black"/>
</svg>
