<svg width="42" height="42" viewBox="0 0 42 42" fill="none" xmlns="http://www.w3.org/2000/svg">
<circle cx="21" cy="20.9998" r="21" fill="white"/>
<g filter="url(#filter0_d_558_526)">
<path d="M26.2523 19.3296V14.6195C26.2523 14.4846 26.1902 14.3601 26.1023 14.2615L20.8335 8.71625C20.7352 8.61258 20.5953 8.55542 20.4557 8.55542H12.1022C10.56 8.55542 9.32812 9.81589 9.32812 11.3618V27.1936C9.32812 28.7395 10.56 29.9792 12.1022 29.9792H18.696C19.9432 32.0541 22.2103 33.4443 24.7928 33.4443C28.7158 33.4443 31.9196 30.2489 31.9196 26.3118C31.9249 22.8725 29.4612 19.9988 26.2523 19.3296ZM20.9733 10.3762L24.5082 14.1058H22.2154C21.5322 14.1058 20.9733 13.5405 20.9733 12.8558V10.3762ZM12.1022 28.9417C11.1344 28.9417 10.3633 28.1635 10.3633 27.1936V11.3618C10.3633 10.3865 11.1344 9.59296 12.1022 9.59296H19.9381V12.8558C19.9381 14.1163 20.9578 15.1434 22.2154 15.1434H25.2171V19.1946C25.062 19.1895 24.9377 19.1739 24.8032 19.1739C22.9969 19.1739 21.3355 19.8691 20.083 20.9585H13.51C13.2253 20.9585 12.9924 21.1918 12.9924 21.4771C12.9924 21.7625 13.2253 21.9958 13.51 21.9958H19.1204C18.7529 22.5146 18.4475 23.0334 18.2095 23.604H13.51C13.2253 23.604 12.9924 23.8373 12.9924 24.1227C12.9924 24.408 13.2253 24.6415 13.51 24.6415H17.873C17.7436 25.1603 17.6764 25.736 17.6764 26.3118C17.6764 27.2454 17.8575 28.1689 18.1835 28.947H12.1022V28.9417ZM24.7981 32.4121C21.4443 32.4121 18.7167 29.6783 18.7167 26.3169C18.7167 22.9555 21.439 20.2217 24.7981 20.2217C28.157 20.2217 30.8793 22.9555 30.8793 26.3169C30.8793 29.6783 28.1518 32.4121 24.7981 32.4121Z" fill="black"/>
<path d="M13.51 19.397H18.7529C19.0376 19.397 19.2705 19.1635 19.2705 18.8782C19.2705 18.5928 19.0376 18.3595 18.7529 18.3595H13.51C13.2253 18.3595 12.9924 18.5928 12.9924 18.8782C12.9924 19.1635 13.2253 19.397 13.51 19.397Z" fill="black"/>
<path d="M24.6272 23.1163C24.6686 23.1266 24.7099 23.1319 24.7514 23.1319C24.8032 23.1319 24.8498 23.1266 24.8964 23.111C25.5796 23.1682 26.1127 23.7388 26.1127 24.434C26.1127 24.7192 26.3455 24.9525 26.6301 24.9525C26.9148 24.9525 27.1477 24.7192 27.1477 24.434C27.1477 23.2927 26.3404 22.3382 25.269 22.1151V21.7831C25.269 21.4977 25.036 21.2644 24.7514 21.2644C24.4667 21.2644 24.2338 21.4977 24.2338 21.7831V22.1359C23.1986 22.3849 22.4276 23.3239 22.4276 24.434C22.4276 25.7411 23.4885 26.7994 24.7876 26.7994C25.5174 26.7994 26.1127 27.3958 26.1127 28.1273C26.1127 28.8587 25.5225 29.4605 24.7876 29.4605C24.0578 29.4605 23.4627 28.8638 23.4627 28.1324C23.4627 27.8472 23.2297 27.6136 22.9452 27.6136C22.6604 27.6136 22.4276 27.8472 22.4276 28.1324C22.4276 29.2478 23.1986 30.1815 24.2338 30.4304V30.9647C24.2338 31.2501 24.4667 31.4835 24.7514 31.4835C25.036 31.4835 25.269 31.2501 25.269 30.9647V30.446C26.3404 30.2229 27.1477 29.2685 27.1477 28.1273C27.1477 26.8201 26.0867 25.7618 24.7876 25.7618C24.0578 25.7618 23.4627 25.1652 23.4627 24.434C23.4627 23.7595 23.9699 23.1942 24.6272 23.1163Z" fill="black"/>
</g>
<defs>
<filter id="filter0_d_558_526" x="7.32812" y="7.55542" width="30.5938" height="32.8889" filterUnits="userSpaceOnUse" color-interpolation-filters="sRGB">
<feFlood flood-opacity="0" result="BackgroundImageFix"/>
<feColorMatrix in="SourceAlpha" type="matrix" values="0 0 0 0 0 0 0 0 0 0 0 0 0 0 0 0 0 0 127 0" result="hardAlpha"/>
<feOffset dx="2" dy="3"/>
<feGaussianBlur stdDeviation="2"/>
<feComposite in2="hardAlpha" operator="out"/>
<feColorMatrix type="matrix" values="0 0 0 0 0 0 0 0 0 0 0 0 0 0 0 0 0 0 0.25 0"/>
<feBlend mode="normal" in2="BackgroundImageFix" result="effect1_dropShadow_558_526"/>
<feBlend mode="normal" in="SourceGraphic" in2="effect1_dropShadow_558_526" result="shape"/>
</filter>
</defs>
</svg>
