<svg width="49" height="50" viewBox="0 0 49 50" fill="none" xmlns="http://www.w3.org/2000/svg">
<path d="M13.7363 25C13.7363 23.7448 12.7112 22.7273 11.4469 22.7273H2.28938C1.02503 22.7273 0 23.7448 0 25C0 26.2551 1.02503 27.2727 2.28938 27.2727H11.4469C12.7112 27.2727 13.7363 26.2551 13.7363 25Z" fill="white"/>
<path d="M45.7875 22.7273H41.2088C39.9444 22.7273 38.9194 23.7448 38.9194 25C38.9194 26.2551 39.9444 27.2727 41.2088 27.2727H45.7875C47.0519 27.2727 48.0769 26.2551 48.0769 25C48.0769 23.7448 47.0519 22.7273 45.7875 22.7273Z" fill="white"/>
<path d="M25.1831 13.6364C26.4475 13.6364 27.4725 12.6188 27.4725 11.3636V2.27273C27.4725 1.01758 26.4475 0 25.1831 0C23.9188 0 22.8938 1.01758 22.8938 2.27273V11.3636C22.8938 12.6188 23.9188 13.6364 25.1831 13.6364Z" fill="white"/>
<path d="M25.1833 36.3636C23.919 36.3636 22.8939 37.3812 22.8939 38.6364V47.7273C22.8939 48.9824 23.919 50 25.1833 50C26.4476 50 27.4727 48.9824 27.4727 47.7273V38.6364C27.4727 37.3812 26.4476 36.3636 25.1833 36.3636Z" fill="white"/>
<path d="M10.6136 7.32227C9.71978 6.4347 8.27015 6.43485 7.37591 7.32227C6.48184 8.20985 6.48184 9.64879 7.37591 10.5364L13.8513 16.9648C14.2984 17.4086 14.8843 17.6306 15.4701 17.6306C16.0559 17.6306 16.6419 17.4086 17.0888 16.965C17.9829 16.0774 17.9829 14.6385 17.0888 13.7509L10.6136 7.32227Z" fill="white"/>
<path d="M36.5149 33.0355C35.621 32.148 34.1714 32.148 33.2773 33.0355C32.3832 33.923 32.3834 35.362 33.2773 36.2495L39.7529 42.6777C40.1999 43.1215 40.7859 43.3433 41.3718 43.3433C41.9577 43.3433 42.5437 43.1214 42.9905 42.6777C43.8846 41.7902 43.8846 40.3512 42.9905 39.4636L36.5149 33.0355Z" fill="white"/>
<path d="M13.8513 33.0355L7.37607 39.4636C6.48199 40.3512 6.48199 41.7902 7.37607 42.6777C7.82311 43.1215 8.40903 43.3433 8.99496 43.3433C9.58089 43.3433 10.1668 43.1215 10.6137 42.6777L17.089 36.2495C17.9831 35.362 17.9831 33.923 17.089 33.0355C16.1949 32.1479 14.7453 32.1479 13.8513 33.0355Z" fill="white"/>
</svg>
