<svg width="31" height="44" viewBox="0 0 31 44" fill="none" xmlns="http://www.w3.org/2000/svg">
<path d="M31 1.28906C31 0.577155 30.4217 0 29.7083 0H1.29167C0.578322 0 0 0.577155 0 1.28906C0 2.00097 0.578322 2.57812 1.29167 2.57726H3.71397C2.98039 3.79903 2.58333 5.15727 2.58333 6.53124C2.58333 9.06123 3.83306 11.733 6.51646 14.9394C8.4847 17.2915 11.0368 19.6949 13.5913 22.0429C9.14758 26.1276 2.58333 32.0349 2.58333 37.5546C2.58333 38.9105 2.9673 40.2272 3.69305 41.4218H1.29167C0.578322 41.4218 0 41.999 0 42.7109C0 43.4228 0.578322 43.9999 1.29167 43.9999C4.63622 43.9999 26.3662 44.0001 29.7083 43.9999C30.4217 43.9999 31 43.4228 31 42.7109C31 41.999 30.4217 41.4218 29.7083 41.4218H27.307C28.0327 40.2272 28.4167 38.9105 28.4167 37.5546C28.4167 32.0107 21.8708 26.1445 17.4088 22.0429C19.9632 19.6949 22.5153 17.2915 24.4836 14.9394C27.1669 11.733 28.4167 9.06123 28.4167 6.53124C28.4167 5.15727 28.0196 3.79903 27.286 2.57812H29.7083C30.4218 2.57812 31 2.00097 31 1.28906ZM8.28673 41.4218C9.72582 38.4045 13.8647 36.1796 15.5 36.1796C17.1353 36.1796 21.2742 38.4045 22.7133 41.4218H8.28673ZM25.8333 37.5546C25.8333 38.4823 25.5443 39.3955 25.0013 40.2327C23.4737 37.1237 19.7823 34.4773 16.7917 33.7693V32.3124C16.7917 31.6005 16.2133 31.0234 15.5 31.0234C14.7867 31.0234 14.2083 31.6005 14.2083 32.3124V33.7693C11.2665 34.4658 7.54618 37.0833 5.99867 40.2327C5.45574 39.3955 5.16667 38.4823 5.16667 37.5546C5.16667 33.8233 9.46688 29.3941 14.2083 24.9859V27.1562C14.2083 27.8681 14.7867 28.4453 15.5 28.4453C16.2133 28.4453 16.7917 27.8681 16.7917 27.1562V24.9859C21.5331 29.3941 25.8333 33.8233 25.8333 37.5546ZM15.5 20.2924C11.9314 17.0153 8.41486 13.6904 6.54548 10.6152C7.39712 10.4727 8.24118 10.3984 9.04167 10.3984C12.2693 10.3984 14.9486 11.5646 14.9732 11.5754C15.1015 11.6326 18.1598 12.9765 21.9583 12.9765C22.2285 12.9765 22.5013 12.9684 22.7757 12.9549C20.83 15.3437 18.1799 17.8315 15.5 20.2924ZM24.7358 10.1323C23.7873 10.3083 22.8552 10.3984 21.9583 10.3984C18.7307 10.3984 16.0514 9.23225 16.0268 9.22142C15.8985 9.16427 12.8403 7.8203 9.04167 7.8203C7.86349 7.8203 6.65208 7.948 5.4275 8.19988C5.25777 7.63038 5.16667 7.07342 5.16667 6.53124C5.16667 5.1113 5.8311 3.69256 7.00118 2.57812H23.9989C25.1689 3.69256 25.8333 5.1113 25.8333 6.53124C25.8333 7.67309 25.4306 8.88034 24.7358 10.1323Z" fill="white"/>
</svg>
