<svg width="94" height="94" viewBox="0 0 94 94" fill="none" xmlns="http://www.w3.org/2000/svg">
<rect width="94" height="94" rx="20" fill="#B54ACC"/>
<g filter="url(#filter0_d_558_352)">
<path d="M69.9531 41.476H63.5547V27.0131C63.5547 25.3517 62.1879 24 60.5078 24H33.4922C31.8121 24 30.4453 25.3517 30.4453 27.0131V36.0524H24.0469C22.3668 36.0524 21 37.4041 21 39.0655V57.5459C21 59.2073 22.3668 60.559 24.0469 60.559H33.0715L36.8365 64.2822C37.0349 64.4784 37.2948 64.5764 37.5547 64.5764C37.8146 64.5764 38.0746 64.4784 38.2728 64.2822L39.8906 62.6824V62.9694C39.8906 64.6309 41.2575 65.9825 42.9375 65.9825H51.9621L55.7272 69.7058C55.9255 69.902 56.1854 70 56.4453 70C56.7052 70 56.9652 69.902 57.1635 69.7058L60.9285 65.9825H69.9531C71.6332 65.9825 73 64.6309 73 62.9694V44.4891C73 42.8277 71.6332 41.476 69.9531 41.476ZM32.4766 27.0131C32.4766 26.4593 32.9322 26.0087 33.4922 26.0087H60.5078C61.0678 26.0087 61.5234 26.4593 61.5234 27.0131V45.4934C61.5234 46.0473 61.0678 46.4978 60.5078 46.4978H51.0625C50.7932 46.4978 50.5348 46.6037 50.3444 46.792L47 50.0993L43.6556 46.792C43.4652 46.6037 43.2068 46.4978 42.9375 46.4978H33.4922C32.9322 46.4978 32.4766 46.0473 32.4766 45.4934V27.0131ZM40.899 58.8444L37.5547 62.1517L34.2103 58.8444C34.0199 58.6561 33.7615 58.5502 33.4922 58.5502H24.0469C23.4869 58.5502 23.0312 58.0997 23.0312 57.5459V39.0655C23.0312 38.5117 23.4869 38.0611 24.0469 38.0611H30.4453V45.4934C30.4453 47.1549 31.8121 48.5065 33.4922 48.5065H42.5168L46.2819 52.2298C46.4802 52.426 46.7401 52.524 47 52.524C47.2599 52.524 47.5199 52.426 47.7181 52.2298L51.4832 48.5065H52.0781V57.5459C52.0781 58.0997 51.6225 58.5502 51.0625 58.5502H41.6172C41.3478 58.5502 41.0895 58.6561 40.899 58.8444ZM70.9688 62.9694C70.9688 63.5232 70.5131 63.9738 69.9531 63.9738H60.5078C60.2385 63.9738 59.9801 64.0797 59.7897 64.268L56.4453 67.5753L53.101 64.268C52.9105 64.0797 52.6522 63.9738 52.3828 63.9738H42.9375C42.3775 63.9738 41.9219 63.5232 41.9219 62.9694V60.6737L42.0379 60.559H51.0625C52.7425 60.559 54.1094 59.2073 54.1094 57.5459V48.5065H60.5078C62.1879 48.5065 63.5547 47.1549 63.5547 45.4934V43.4847H69.9531C70.5131 43.4847 70.9688 43.9353 70.9688 44.4891V62.9694Z" fill="white"/>
<path d="M56.4453 29.6245H37.5697C37.0088 29.6245 36.5541 30.0741 36.5541 30.6288C36.5541 31.1835 37.0088 31.6332 37.5697 31.6332H56.4453C57.0062 31.6332 57.4609 31.1835 57.4609 30.6288C57.4609 30.0741 57.0062 29.6245 56.4453 29.6245Z" fill="white"/>
<path d="M57.1634 35.5432C56.9745 35.3564 56.7124 35.2489 56.4453 35.2489C56.1782 35.2489 55.9162 35.3564 55.7273 35.5432C55.5384 35.73 55.4297 35.9891 55.4297 36.2533C55.4297 36.5174 55.5384 36.7766 55.7273 36.9634C55.9162 37.1502 56.1782 37.2576 56.4453 37.2576C56.7124 37.2576 56.9745 37.1502 57.1634 36.9634C57.3523 36.7766 57.4609 36.5174 57.4609 36.2533C57.4609 35.9891 57.3523 35.73 57.1634 35.5432Z" fill="white"/>
<path d="M51.4022 35.2489H37.5697C37.0088 35.2489 36.5541 35.6986 36.5541 36.2533C36.5541 36.808 37.0088 37.2576 37.5697 37.2576H51.4022C51.9632 37.2576 52.4179 36.808 52.4179 36.2533C52.4179 35.6986 51.9632 35.2489 51.4022 35.2489Z" fill="white"/>
<path d="M56.4453 40.8734H42.5385C41.9775 40.8734 41.5228 41.323 41.5228 41.8777C41.5228 42.4324 41.9775 42.8821 42.5385 42.8821H56.4453C57.0062 42.8821 57.4609 42.4324 57.4609 41.8777C57.4609 41.323 57.0062 40.8734 56.4453 40.8734Z" fill="white"/>
<path d="M37.6397 40.8734H37.5547C36.9938 40.8734 36.5391 41.323 36.5391 41.8777C36.5391 42.4324 36.9938 42.8821 37.5547 42.8821H37.6397C38.2006 42.8821 38.6553 42.4324 38.6553 41.8777C38.6553 41.323 38.2006 40.8734 37.6397 40.8734Z" fill="white"/>
</g>
<defs>
<filter id="filter0_d_558_352" x="19" y="22" width="60" height="54" filterUnits="userSpaceOnUse" color-interpolation-filters="sRGB">
<feFlood flood-opacity="0" result="BackgroundImageFix"/>
<feColorMatrix in="SourceAlpha" type="matrix" values="0 0 0 0 0 0 0 0 0 0 0 0 0 0 0 0 0 0 127 0" result="hardAlpha"/>
<feOffset dx="2" dy="2"/>
<feGaussianBlur stdDeviation="2"/>
<feComposite in2="hardAlpha" operator="out"/>
<feColorMatrix type="matrix" values="0 0 0 0 0 0 0 0 0 0 0 0 0 0 0 0 0 0 0.7 0"/>
<feBlend mode="normal" in2="BackgroundImageFix" result="effect1_dropShadow_558_352"/>
<feBlend mode="normal" in="SourceGraphic" in2="effect1_dropShadow_558_352" result="shape"/>
</filter>
</defs>
</svg>
