<svg width="94" height="94" viewBox="0 0 94 94" fill="none" xmlns="http://www.w3.org/2000/svg">
<rect width="94" height="94" rx="20" fill="#B54ACC"/>
<g filter="url(#filter0_d_558_303)">
<path d="M25.9198 25.5011C25.2576 24.8347 24.1682 24.8347 23.506 25.4905C22.8331 26.1463 22.8331 27.2252 23.4953 27.881L62.5652 66.8052C62.8856 67.1225 63.3236 67.3024 63.7828 67.3024C64.2314 67.3024 64.6693 67.1225 64.9897 66.8052C65.6626 66.1494 65.6626 65.0706 64.9897 64.4148L25.9198 25.5011Z" fill="white"/>
<path d="M43.9275 34.5975C44.846 35.486 45.6257 36.5014 46.2558 37.612C46.6831 38.4476 47.7084 38.7861 48.5522 38.363C48.8833 38.2044 49.1503 37.9399 49.3105 37.612C49.93 36.5014 50.7204 35.486 51.6389 34.5975C53.5721 32.7359 55.7616 31.784 58.1434 31.784C62.7468 31.784 66.5384 35.6235 66.5918 40.3515C66.6452 46.0315 64.1567 50.8759 60.4611 55.1068L62.875 57.5184C63.1954 57.1588 63.4838 56.8203 63.7401 56.503C68.0124 51.3413 70.0524 46.0527 69.999 40.3198C69.9349 33.7302 64.6052 28.3887 58.1327 28.3887C52.9953 28.3887 49.5882 31.509 47.7832 33.7831C45.9781 31.509 42.571 28.3887 37.4336 28.3887C36.3121 28.3887 35.2013 28.5473 34.1226 28.8647L37.1025 31.7734C39.4843 31.7734 41.9943 32.7254 43.9275 34.5975Z" fill="white"/>
<path d="M47.7832 65.6206C38.4269 59.3271 28.8784 51.4048 28.9852 40.341C28.9959 39.6852 29.0706 39.0294 29.2202 38.3948L26.5286 35.6976C25.9092 37.1572 25.5781 38.7121 25.5674 40.2987C25.514 46.0315 27.554 51.3307 31.8262 56.4818C33.8342 58.904 37.4656 62.7753 45.8607 68.413C47.0142 69.1957 48.5522 69.1957 49.7057 68.413C51.8846 66.9533 53.7323 65.61 55.3237 64.383L52.8992 61.9714C51.233 63.2513 49.5028 64.4571 47.7832 65.6206Z" fill="white"/>
</g>
<defs>
<filter id="filter0_d_558_303" x="21" y="23" width="55" height="52" filterUnits="userSpaceOnUse" color-interpolation-filters="sRGB">
<feFlood flood-opacity="0" result="BackgroundImageFix"/>
<feColorMatrix in="SourceAlpha" type="matrix" values="0 0 0 0 0 0 0 0 0 0 0 0 0 0 0 0 0 0 127 0" result="hardAlpha"/>
<feOffset dx="2" dy="2"/>
<feGaussianBlur stdDeviation="2"/>
<feComposite in2="hardAlpha" operator="out"/>
<feColorMatrix type="matrix" values="0 0 0 0 0 0 0 0 0 0 0 0 0 0 0 0 0 0 0.7 0"/>
<feBlend mode="normal" in2="BackgroundImageFix" result="effect1_dropShadow_558_303"/>
<feBlend mode="normal" in="SourceGraphic" in2="effect1_dropShadow_558_303" result="shape"/>
</filter>
</defs>
</svg>
