<svg width="47" height="44" viewBox="0 0 47 44" fill="none" xmlns="http://www.w3.org/2000/svg">
<path d="M2.91984 0.501105C2.25764 -0.165261 1.16821 -0.165262 0.506005 0.490527C-0.166877 1.14632 -0.166878 2.22519 0.495324 2.88098L39.5652 41.8052C39.8856 42.1225 40.3236 42.3024 40.7828 42.3024C41.2314 42.3024 41.6693 42.1225 41.9897 41.8052C42.6626 41.1494 42.6626 40.0706 41.9897 39.4148L2.91984 0.501105Z" fill="white"/>
<path d="M20.9275 9.59753C21.846 10.486 22.6257 11.5014 23.2558 12.612C23.6831 13.4476 24.7084 13.7861 25.5522 13.363C25.8833 13.2044 26.1503 12.9399 26.3105 12.612C26.93 11.5014 27.7204 10.486 28.6389 9.59753C30.5721 7.73594 32.7616 6.78398 35.1434 6.78398C39.7468 6.78398 43.5384 10.6235 43.5918 15.3516C43.6452 21.0315 41.1567 25.8759 37.4611 30.1068L39.875 32.5184C40.1954 32.1588 40.4838 31.8203 40.7401 31.503C45.0124 26.3413 47.0524 21.0527 46.999 15.3198C46.9349 8.7302 41.6052 3.38869 35.1327 3.38869C29.9953 3.38869 26.5882 6.50898 24.7832 8.78308C22.9781 6.50898 19.571 3.38869 14.4336 3.38869C13.3121 3.38869 12.2013 3.54735 11.1226 3.86467L14.1025 6.77341C16.4843 6.77341 18.9943 7.72536 20.9275 9.59753Z" fill="white"/>
<path d="M24.7832 40.6206C15.4269 34.3271 5.87838 26.4048 5.98519 15.341C5.99587 14.6852 6.07064 14.0294 6.22017 13.3948L3.52864 10.6976C2.90916 12.1572 2.57806 13.7121 2.56737 15.2987C2.51397 21.0315 4.55398 26.3307 8.82625 31.4818C10.8342 33.904 14.4656 37.7753 22.8607 43.413C24.0142 44.1957 25.5522 44.1957 26.7057 43.413C28.8846 41.9533 30.7323 40.61 32.3237 39.383L29.8992 36.9714C28.233 38.2513 26.5028 39.4571 24.7832 40.6206Z" fill="white"/>
</svg>
