<svg width="102" height="102" viewBox="0 0 102 102" fill="none" xmlns="http://www.w3.org/2000/svg">
<g filter="url(#filter0_di_2_302)">
<g filter="url(#filter1_i_2_302)">
<rect width="94" height="94" rx="20" fill="#B54ACC"/>
</g>
<g filter="url(#filter2_d_2_302)">
<path d="M62 26.2891C62 25.5772 61.4217 25 60.7083 25H32.2917C31.5783 25 31 25.5772 31 26.2891C31 27.001 31.5783 27.5781 32.2917 27.5773H34.714C33.9804 28.799 33.5833 30.1573 33.5833 31.5312C33.5833 34.0612 34.8331 36.733 37.5165 39.9394C39.4847 42.2915 42.0368 44.6949 44.5913 47.0429C40.1476 51.1276 33.5833 57.0349 33.5833 62.5546C33.5833 63.9105 33.9673 65.2272 34.693 66.4218H32.2917C31.5783 66.4218 31 66.999 31 67.7109C31 68.4228 31.5783 68.9999 32.2917 68.9999C35.6362 68.9999 57.3662 69.0001 60.7083 68.9999C61.4217 68.9999 62 68.4228 62 67.7109C62 66.999 61.4217 66.4218 60.7083 66.4218H58.307C59.0327 65.2272 59.4167 63.9105 59.4167 62.5546C59.4167 57.0107 52.8708 51.1445 48.4088 47.0429C50.9632 44.6949 53.5153 42.2915 55.4836 39.9394C58.1669 36.733 59.4167 34.0612 59.4167 31.5312C59.4167 30.1573 59.0196 28.799 58.286 27.5781H60.7083C61.4218 27.5781 62 27.001 62 26.2891ZM39.2867 66.4218C40.7258 63.4045 44.8647 61.1796 46.5 61.1796C48.1353 61.1796 52.2742 63.4045 53.7133 66.4218H39.2867ZM56.8333 62.5546C56.8333 63.4823 56.5443 64.3955 56.0013 65.2327C54.4737 62.1237 50.7823 59.4773 47.7917 58.7693V57.3124C47.7917 56.6005 47.2133 56.0234 46.5 56.0234C45.7867 56.0234 45.2083 56.6005 45.2083 57.3124V58.7693C42.2665 59.4658 38.5462 62.0833 36.9987 65.2327C36.4557 64.3955 36.1667 63.4823 36.1667 62.5546C36.1667 58.8233 40.4669 54.3941 45.2083 49.9859V52.1562C45.2083 52.8681 45.7867 53.4453 46.5 53.4453C47.2133 53.4453 47.7917 52.8681 47.7917 52.1562V49.9859C52.5331 54.3941 56.8333 58.8233 56.8333 62.5546ZM46.5 45.2924C42.9314 42.0153 39.4149 38.6904 37.5455 35.6152C38.3971 35.4727 39.2412 35.3984 40.0417 35.3984C43.2693 35.3984 45.9486 36.5646 45.9732 36.5754C46.1015 36.6326 49.1598 37.9765 52.9583 37.9765C53.2285 37.9765 53.5013 37.9684 53.7757 37.9549C51.83 40.3437 49.1799 42.8315 46.5 45.2924ZM55.7358 35.1323C54.7873 35.3083 53.8552 35.3984 52.9583 35.3984C49.7307 35.3984 47.0514 34.2322 47.0268 34.2214C46.8985 34.1643 43.8403 32.8203 40.0417 32.8203C38.8635 32.8203 37.6521 32.948 36.4275 33.1999C36.2578 32.6304 36.1667 32.0734 36.1667 31.5312C36.1667 30.1113 36.8311 28.6926 38.0012 27.5781H54.9989C56.1689 28.6926 56.8333 30.1113 56.8333 31.5312C56.8333 32.6731 56.4306 33.8803 55.7358 35.1323Z" fill="white"/>
</g>
</g>
<defs>
<filter id="filter0_di_2_302" x="0" y="0" width="102" height="102" filterUnits="userSpaceOnUse" color-interpolation-filters="sRGB">
<feFlood flood-opacity="0" result="BackgroundImageFix"/>
<feColorMatrix in="SourceAlpha" type="matrix" values="0 0 0 0 0 0 0 0 0 0 0 0 0 0 0 0 0 0 127 0" result="hardAlpha"/>
<feOffset dx="4" dy="4"/>
<feGaussianBlur stdDeviation="2"/>
<feComposite in2="hardAlpha" operator="out"/>
<feColorMatrix type="matrix" values="0 0 0 0 0 0 0 0 0 0 0 0 0 0 0 0 0 0 0.9 0"/>
<feBlend mode="normal" in2="BackgroundImageFix" result="effect1_dropShadow_2_302"/>
<feBlend mode="normal" in="SourceGraphic" in2="effect1_dropShadow_2_302" result="shape"/>
<feColorMatrix in="SourceAlpha" type="matrix" values="0 0 0 0 0 0 0 0 0 0 0 0 0 0 0 0 0 0 127 0" result="hardAlpha"/>
<feOffset dx="4" dy="4"/>
<feGaussianBlur stdDeviation="2"/>
<feComposite in2="hardAlpha" operator="arithmetic" k2="-1" k3="1"/>
<feColorMatrix type="matrix" values="0 0 0 0 0 0 0 0 0 0 0 0 0 0 0 0 0 0 0.25 0"/>
<feBlend mode="normal" in2="shape" result="effect2_innerShadow_2_302"/>
</filter>
<filter id="filter1_i_2_302" x="0" y="0" width="96" height="98" filterUnits="userSpaceOnUse" color-interpolation-filters="sRGB">
<feFlood flood-opacity="0" result="BackgroundImageFix"/>
<feBlend mode="normal" in="SourceGraphic" in2="BackgroundImageFix" result="shape"/>
<feColorMatrix in="SourceAlpha" type="matrix" values="0 0 0 0 0 0 0 0 0 0 0 0 0 0 0 0 0 0 127 0" result="hardAlpha"/>
<feOffset dx="2" dy="4"/>
<feGaussianBlur stdDeviation="2"/>
<feComposite in2="hardAlpha" operator="arithmetic" k2="-1" k3="1"/>
<feColorMatrix type="matrix" values="0 0 0 0 0 0 0 0 0 0 0 0 0 0 0 0 0 0 0.15 0"/>
<feBlend mode="normal" in2="shape" result="effect1_innerShadow_2_302"/>
</filter>
<filter id="filter2_d_2_302" x="29" y="23" width="39" height="52" filterUnits="userSpaceOnUse" color-interpolation-filters="sRGB">
<feFlood flood-opacity="0" result="BackgroundImageFix"/>
<feColorMatrix in="SourceAlpha" type="matrix" values="0 0 0 0 0 0 0 0 0 0 0 0 0 0 0 0 0 0 127 0" result="hardAlpha"/>
<feOffset dx="2" dy="2"/>
<feGaussianBlur stdDeviation="2"/>
<feComposite in2="hardAlpha" operator="out"/>
<feColorMatrix type="matrix" values="0 0 0 0 0 0 0 0 0 0 0 0 0 0 0 0 0 0 0.7 0"/>
<feBlend mode="normal" in2="BackgroundImageFix" result="effect1_dropShadow_2_302"/>
<feBlend mode="normal" in="SourceGraphic" in2="effect1_dropShadow_2_302" result="shape"/>
</filter>
</defs>
</svg>
