<svg width="59" height="50" viewBox="0 0 59 50" fill="none" xmlns="http://www.w3.org/2000/svg">
<path d="M57.8321 23.2367L48.8434 5.22396C48.6062 4.78796 48.1521 4.51189 47.6538 4.50081L47.0589 4.6323H35.4265C34.5665 1.32839 31.1766 -0.656574 27.8549 0.198691C25.6696 0.761402 23.9632 2.45872 23.3974 4.6323H11.765L11.1701 4.50081C10.6718 4.51189 10.2177 4.78796 9.98046 5.22396L0.991751 23.2367C0.402861 23.3627 -0.0130947 23.8868 0.000315089 24.4859C0.000315089 30.008 5.0234 34.5441 11.1701 34.5441C17.3169 34.5441 22.406 30.008 22.406 24.4859C22.3951 23.8952 21.9896 23.3843 21.4145 23.2367L13.4174 7.2619H23.3314C23.8312 9.63995 25.6992 11.498 28.0901 11.9951V35.0698C23.794 35.5958 20.4232 38.817 19.8944 42.1039H16.9863C16.2106 42.166 15.5946 42.7786 15.5322 43.5502V48.8094C15.6012 49.5323 16.2464 50.0627 16.9731 49.994C16.9776 49.9936 16.9819 49.9931 16.9863 49.9927H41.8375C42.5635 50.0686 43.214 49.5446 43.2901 48.8225C43.2907 48.8181 43.291 48.8138 43.2914 48.8094V43.5502C43.229 42.7786 42.6131 42.166 41.8373 42.1039H38.9292C38.4004 38.817 35.0296 35.5958 30.7336 35.0698V11.9952C33.1244 11.4981 34.9924 9.64008 35.4922 7.26202H45.4062L37.409 23.2367C36.834 23.3843 36.4284 23.8952 36.4175 24.4859C36.4175 30.008 41.4406 34.5441 47.6534 34.5441C53.8661 34.5441 58.8232 30.008 58.8232 24.4859C58.8371 23.8868 58.421 23.3627 57.8321 23.2367ZM11.1701 31.7829C7.00628 31.7829 3.5033 28.9561 2.77626 25.669H19.6302C18.9031 28.9561 15.4001 31.7829 11.1701 31.7829ZM18.4405 23.0394H3.96593L11.1701 8.6425L18.4405 23.0394ZM40.6479 44.7335V47.3631H18.1761V44.7335H40.6479ZM36.2197 42.1039H22.6043C23.1331 39.4743 25.9751 37.5022 29.4119 37.5022C32.8488 37.5022 35.6909 39.4743 36.2197 42.1039ZM29.4119 9.56282C27.4408 9.56282 25.8429 7.97346 25.8429 6.01291C25.8429 4.05236 27.4408 2.463 29.4119 2.463C31.3831 2.463 32.981 4.05236 32.981 6.01291C32.9811 7.97346 31.3831 9.56282 29.4119 9.56282ZM47.6538 8.6425L54.858 23.0394H40.3835L47.6538 8.6425ZM47.6538 31.7829C43.4237 31.7829 39.9208 28.9561 39.1938 25.669H56.0476C55.3206 28.9561 51.8177 31.7829 47.6538 31.7829Z" fill="white"/>
</svg>
