<svg width="94" height="94" viewBox="0 0 94 94" fill="none" xmlns="http://www.w3.org/2000/svg">
<rect width="94" height="94" rx="20" fill="#B54ACC"/>
<g filter="url(#filter0_d_558_311)">
<path d="M53.9953 50.6967C53.5839 50.2848 52.9169 50.2848 52.5054 50.6967L41.6763 61.5395C40.4427 62.7746 38.8026 63.4549 37.058 63.4549C35.3134 63.4549 33.6731 62.7746 32.4395 61.5395C29.8929 58.9897 29.8929 54.8408 32.4395 52.2911L43.2687 41.4483C43.6801 41.0364 43.6801 40.3685 43.2687 39.9566L37.3095 33.9899C37.1119 33.7921 36.844 33.6809 36.5646 33.6809C36.2853 33.6809 36.0174 33.7921 35.8198 33.9899L24.9905 44.8326C18.3365 51.495 18.3365 62.3354 24.9905 68.9979C27.6267 71.6375 30.9664 73.3093 34.6479 73.8323C35.4377 73.9445 36.2341 74 37.0302 74C39.8224 74 42.6081 73.3177 45.066 72.0093C45.5797 71.7359 45.7748 71.0973 45.5017 70.5828C45.2286 70.0685 44.5907 69.8731 44.077 70.1467C38.5451 73.0912 31.9112 72.2954 27.2462 68.2215L31.7358 63.7263C33.2493 64.9166 35.1034 65.5644 37.058 65.5644C39.3654 65.5644 41.5346 64.6647 43.1661 63.0312L48.483 57.7077L52.9524 62.1827L50.9876 64.1501C50.5762 64.562 50.5762 65.2298 50.9876 65.6418C51.3991 66.0537 52.0659 66.0537 52.4775 65.6418L59.9547 58.1551C60.3661 57.7432 60.3661 57.0754 59.9547 56.6635L53.9953 50.6967ZM36.5645 36.2274L41.0339 40.7025L37.7564 43.9841L33.287 39.509L36.5645 36.2274ZM26.4804 46.3243L31.7972 41.0008L36.2666 45.4758L30.9497 50.7993C27.8356 53.9174 27.6033 58.8421 30.2478 62.2328L25.7576 66.7286C20.6595 60.8515 20.8998 51.9118 26.4804 46.3243ZM54.4423 60.6909L49.9729 56.2159L53.2504 52.9342L57.7198 57.4092L54.4423 60.6909Z" fill="white"/>
<path d="M72.8213 21.1783C71.271 19.6262 68.7603 19.6074 67.1869 21.1221C65.6133 19.6073 63.1025 19.6263 61.5523 21.1784C59.9831 22.7496 59.9831 25.3061 61.5523 26.8773L66.4415 31.7726C66.6472 31.9786 66.9168 32.0816 67.1864 32.0816C67.4559 32.0816 67.7255 31.9786 67.9312 31.7727L72.8211 26.8774C73.5814 26.1163 74 25.1043 74 24.0279C74 22.9515 73.5815 21.9394 72.8213 21.1783ZM71.3315 25.3855L67.1865 29.5351L63.0421 25.3856C62.2943 24.6369 62.2943 23.4188 63.0422 22.67C63.416 22.2956 63.9071 22.1085 64.3982 22.1085C64.8893 22.1085 65.3803 22.2956 65.7542 22.67L66.442 23.3585C66.6395 23.5563 66.9075 23.6675 67.1868 23.6675C67.4662 23.6675 67.7342 23.5563 67.9317 23.3585L68.6193 22.6701C69.367 21.9214 70.5835 21.9215 71.3313 22.6701C71.6935 23.0328 71.893 23.5151 71.893 24.028C71.893 24.5409 71.6937 25.0229 71.3315 25.3855Z" fill="white"/>
<path d="M50.8428 37.1129C51.0485 37.3189 51.3181 37.4219 51.5876 37.4219C51.8572 37.4219 52.1268 37.3189 52.3324 37.1131L57.2224 32.2177C57.9826 31.4566 58.4013 30.4446 58.4014 29.3682C58.4014 28.2918 57.9828 27.2799 57.2227 26.5187C55.6723 24.9666 53.1615 24.9479 51.5882 26.4625C50.0173 24.9501 47.5116 24.9664 45.9608 26.5116C45.9584 26.514 45.9559 26.5164 45.9536 26.5189C44.3844 28.0901 44.3844 30.6465 45.9536 32.2177L50.8428 37.1129ZM47.4386 28.0152C47.4403 28.0136 47.4419 28.0119 47.4436 28.0103C48.1912 27.2616 49.4078 27.2616 50.1556 28.0103L50.8432 28.6989C51.0407 28.8967 51.3087 29.0078 51.5881 29.0078C51.8674 29.0078 52.1353 28.8967 52.333 28.6989L53.0207 28.0103C53.7684 27.2616 54.9849 27.2617 55.7327 28.0103C56.0949 28.373 56.2944 28.8552 56.2944 29.3681C56.2943 29.8811 56.0947 30.3633 55.7326 30.726L51.5875 34.8756L47.4431 30.7261C46.6973 29.9789 46.6957 28.7642 47.4386 28.0152Z" fill="white"/>
<path d="M65.214 36.189C64.1656 36.189 63.1785 36.5876 62.4253 37.3131C61.6721 36.5877 60.6849 36.189 59.6366 36.189C58.5647 36.189 57.5569 36.6057 56.7976 37.3625C56.7953 37.3647 56.793 37.367 56.7907 37.3694C56.0305 38.1305 55.612 39.1424 55.612 40.2188C55.612 41.2952 56.0306 42.3071 56.7907 43.0682L61.6799 47.9636C61.8856 48.1696 62.1552 48.2725 62.4247 48.2725C62.6943 48.2725 62.9639 48.1696 63.1695 47.9637L68.0595 43.0683C68.8197 42.3072 69.2384 41.2952 69.2385 40.2188C69.2385 39.1424 68.8198 38.1305 68.0598 37.3693C67.2996 36.6082 66.2889 36.189 65.214 36.189ZM66.5699 41.5766L62.4249 45.7262L58.2805 41.5766C57.9183 41.2139 57.7188 40.7318 57.7188 40.2188C57.7188 39.7082 57.9165 39.228 58.2757 38.8659C58.2774 38.8642 58.279 38.8626 58.2807 38.8609C58.6428 38.4983 59.1244 38.2985 59.6366 38.2985C60.1489 38.2985 60.6304 38.4983 60.9927 38.861L61.6803 39.5496C62.0918 39.9615 62.7586 39.9615 63.1702 39.5496L63.8579 38.861C64.22 38.4984 64.7016 38.2986 65.2139 38.2986C65.7261 38.2986 66.2077 38.4984 66.5699 38.8611C66.9321 39.2238 67.1316 39.706 67.1316 40.2188C67.1316 40.7317 66.9321 41.2139 66.5699 41.5766Z" fill="white"/>
<path d="M49.7346 42.7351L47.2686 45.2043C46.8572 45.6161 46.8572 46.284 47.2686 46.6959C47.4743 46.9019 47.7439 47.0049 48.0135 47.0049C48.2831 47.0049 48.5526 46.9018 48.7584 46.6959L51.2244 44.2268C51.6358 43.8149 51.6358 43.147 51.2244 42.7351C50.8131 42.3232 50.1463 42.3233 49.7346 42.7351Z" fill="white"/>
<path d="M40.034 32.3168C40.3037 32.3168 40.5731 32.2137 40.7789 32.0078L42.0715 30.7136C42.4829 30.3017 42.4829 29.6338 42.0715 29.2219C41.66 28.8101 40.9932 28.8101 40.5816 29.2219L39.289 30.5162C38.8776 30.9281 38.8776 31.5959 39.289 32.0078C39.4948 32.2138 39.7644 32.3168 40.034 32.3168Z" fill="white"/>
<path d="M63.0025 52.12L61.7098 53.4142C61.2984 53.8261 61.2984 54.494 61.7098 54.9059C61.9155 55.1119 62.1851 55.2148 62.4547 55.2148C62.7242 55.2148 62.9938 55.1118 63.1996 54.9059L64.4923 53.6117C64.9036 53.1998 64.9036 52.5319 64.4923 52.12C64.081 51.7082 63.4142 51.7081 63.0025 52.12Z" fill="white"/>
</g>
<defs>
<filter id="filter0_d_558_311" x="18" y="18" width="62" height="62" filterUnits="userSpaceOnUse" color-interpolation-filters="sRGB">
<feFlood flood-opacity="0" result="BackgroundImageFix"/>
<feColorMatrix in="SourceAlpha" type="matrix" values="0 0 0 0 0 0 0 0 0 0 0 0 0 0 0 0 0 0 127 0" result="hardAlpha"/>
<feOffset dx="2" dy="2"/>
<feGaussianBlur stdDeviation="2"/>
<feComposite in2="hardAlpha" operator="out"/>
<feColorMatrix type="matrix" values="0 0 0 0 0 0 0 0 0 0 0 0 0 0 0 0 0 0 0.7 0"/>
<feBlend mode="normal" in2="BackgroundImageFix" result="effect1_dropShadow_558_311"/>
<feBlend mode="normal" in="SourceGraphic" in2="effect1_dropShadow_558_311" result="shape"/>
</filter>
</defs>
</svg>
