<svg width="56" height="50" viewBox="0 0 56 50" fill="none" xmlns="http://www.w3.org/2000/svg">
<path d="M51.3019 50H6.79673C4.20673 50 2.09865 47.8658 2.09865 45.2407V41.8301C2.09865 41.2273 2.58058 40.7391 3.17558 40.7391C3.77058 40.7391 4.2525 41.2273 4.2525 41.8301V45.2407C4.2525 46.6617 5.39404 47.8181 6.79673 47.8181H51.3019C52.7046 47.8181 53.8461 46.6617 53.8461 45.2407V11.4469H4.25385V29.7818C4.25385 30.3846 3.77192 30.8728 3.17692 30.8728C2.58192 30.8728 2.1 30.3846 2.1 29.7818V10.3559C2.1 9.75317 2.58192 9.26497 3.17692 9.26497H54.9231C55.5181 9.26497 56 9.75317 56 10.3559V45.2407C56 47.8644 53.8933 50 51.3019 50Z" fill="white"/>
<path d="M54.9231 11.4455H3.17692C2.58192 11.4455 2.1 10.9573 2.1 10.3546V4.75931C2.1 2.13419 4.20808 0 6.79808 0H51.3019C53.8933 0 56 2.13555 56 4.75931L56 10.3559C56 10.9573 55.5181 11.4455 54.9231 11.4455ZM4.25385 9.2636H53.8461V4.75931C53.8461 3.33833 52.7046 2.18192 51.3019 2.18192H6.79808C5.39538 2.18192 4.25385 3.33833 4.25385 4.75931V9.2636Z" fill="white"/>
<path d="M11.2337 7.2876C12.0864 7.2876 12.7777 6.5873 12.7777 5.72344C12.7777 4.85958 12.0864 4.15928 11.2337 4.15928C10.3809 4.15928 9.68962 4.85958 9.68962 5.72344C9.68962 6.5873 10.3809 7.2876 11.2337 7.2876Z" fill="white"/>
<path d="M17.1837 7.2876C18.0364 7.2876 18.7277 6.5873 18.7277 5.72344C18.7277 4.85958 18.0364 4.15928 17.1837 4.15928C16.3309 4.15928 15.6396 4.85958 15.6396 5.72344C15.6396 6.5873 16.3309 7.2876 17.1837 7.2876Z" fill="white"/>
<path d="M23.1337 7.28624C23.9864 7.28624 24.6777 6.58594 24.6777 5.72208C24.6777 4.85822 23.9864 4.15792 23.1337 4.15792C22.2809 4.15792 21.5896 4.85822 21.5896 5.72208C21.5896 6.58594 22.2809 7.28624 23.1337 7.28624Z" fill="white"/>
<path d="M33.5017 44.6188H29.404C28.809 44.6188 28.3271 44.1306 28.3271 43.5279V32.8542C28.3271 32.2515 28.809 31.7633 29.404 31.7633H33.5017C34.0967 31.7633 34.5787 32.2515 34.5787 32.8542V43.5279C34.5787 44.1306 34.0967 44.6188 33.5017 44.6188ZM30.4796 42.4369H32.4235V33.9452H30.4796V42.4369Z" fill="white"/>
<path d="M41.7604 44.6188H37.6613C37.0663 44.6188 36.5844 44.1306 36.5844 43.5279V36.108C36.5844 35.5052 37.0663 35.017 37.6613 35.017H41.7604C42.3554 35.017 42.8373 35.5052 42.8373 36.108V43.5279C42.8373 44.1306 42.3554 44.6188 41.7604 44.6188ZM38.7383 42.4369H40.6835V37.199H38.7383V42.4369Z" fill="white"/>
<path d="M50.019 44.6188H45.9213C45.3263 44.6188 44.8444 44.1306 44.8444 43.5279V30.855C44.8444 30.2523 45.3263 29.7641 45.9213 29.7641H50.019C50.614 29.7641 51.096 30.2523 51.096 30.855V43.5279C51.096 44.1306 50.614 44.6188 50.019 44.6188ZM46.9983 42.4369H48.9421V31.946H46.9983V42.4369Z" fill="white"/>
<path d="M39.7115 27.9558C36.7877 27.9558 34.0388 26.8021 31.9712 24.7075L29.4485 22.1519C29.0285 21.7264 29.0285 21.035 29.4485 20.6096L31.9712 18.054C34.0388 15.9594 36.7877 14.8057 39.7115 14.8057C42.6354 14.8057 45.3842 15.9594 47.4519 18.054L49.9746 20.6096C50.1765 20.8141 50.2896 21.0923 50.2896 21.3814C50.2896 21.6705 50.1765 21.9487 49.9746 22.1533L47.4519 24.7088C45.3842 26.8021 42.6354 27.9558 39.7115 27.9558ZM31.7329 21.3814L33.4937 23.1651C35.1535 24.8479 37.3625 25.7739 39.7102 25.7739C42.0579 25.7739 44.2669 24.8479 45.9267 23.1651L47.6875 21.3814L45.9267 19.5977C44.2669 17.9149 42.0579 16.989 39.7102 16.989C37.3625 16.989 35.1535 17.9149 33.4937 19.5977L31.7329 21.3814Z" fill="white"/>
<path d="M39.7115 24.5002C38.014 24.5002 36.6315 23.1011 36.6315 21.3801C36.6315 19.6591 38.0127 18.2599 39.7115 18.2599C41.4104 18.2599 42.7915 19.6591 42.7915 21.3801C42.7915 23.1011 41.409 24.5002 39.7115 24.5002ZM39.7115 20.4432C39.2013 20.4432 38.7854 20.8632 38.7854 21.3814C38.7854 21.8996 39.2 22.3197 39.7115 22.3197C40.2231 22.3197 40.6377 21.8996 40.6377 21.3814C40.6377 20.8632 40.2217 20.4432 39.7115 20.4432Z" fill="white"/>
<path d="M22.2573 39.4245C21.6623 39.4245 21.1804 38.9363 21.1804 38.3336C21.1804 37.7308 21.6623 37.2426 22.2573 37.2426C22.6087 37.2426 22.9062 36.9412 22.9062 36.5853C22.9062 36.2294 22.6087 35.928 22.2573 35.928C21.6623 35.928 21.1804 35.4398 21.1804 34.837C21.1804 34.2343 21.6623 33.7461 22.2573 33.7461C23.8027 33.7461 25.06 35.0198 25.06 36.5853C25.06 38.1508 23.8027 39.4245 22.2573 39.4245Z" fill="white"/>
<path d="M22.2573 35.928C21.6623 35.928 21.1804 35.4398 21.1804 34.837C21.1804 34.2343 21.6623 33.7461 22.2573 33.7461C22.6087 33.7461 22.9062 33.4447 22.9062 33.0888C22.9062 32.7329 22.6087 32.4315 22.2573 32.4315C21.6623 32.4315 21.1804 31.9433 21.1804 31.3405C21.1804 30.7378 21.6623 30.2496 22.2573 30.2496C23.8027 30.2496 25.06 31.5233 25.06 33.0888C25.06 34.6543 23.8027 35.928 22.2573 35.928Z" fill="white"/>
<path d="M6.69712 42.921H1.07692C0.481923 42.921 0 42.4328 0 41.8301V29.7818C0 29.1791 0.481923 28.6908 1.07692 28.6908H6.69846C7.29346 28.6908 7.77538 29.1791 7.77538 29.7818V41.8301C7.77404 42.4328 7.29212 42.921 6.69712 42.921ZM2.15385 40.7391H5.62019V30.8728H2.15385V40.7391Z" fill="white"/>
<path d="M22.2573 42.921L6.69712 42.921C6.10212 42.921 5.62019 42.4328 5.62019 41.8301V29.7818C5.62019 29.4232 5.79385 29.0877 6.08596 28.8845C9.24808 26.6739 9.66808 22.9524 9.94673 20.4909C10.0073 19.9577 10.0585 19.4982 10.1338 19.1177C10.5498 17.019 11.3292 15.7671 12.4479 15.3975C13.2044 15.148 14.0229 15.3634 14.6933 15.988C16.2063 17.3953 17.3048 21.2014 16.1417 26.2307C16.1404 26.2362 16.139 26.2416 16.1377 26.2457C16.0704 26.5158 16.0879 26.648 16.096 26.6889C16.1363 26.7121 16.244 26.7476 16.4002 26.7517H22.2546C23.8 26.7517 25.0573 28.0254 25.0573 29.5909C25.0573 31.1564 23.8 32.4301 22.2546 32.4301C21.6596 32.4301 21.1777 31.9419 21.1777 31.3392C21.1777 30.7364 21.6596 30.2482 22.2546 30.2482C22.606 30.2482 22.9035 29.9468 22.9035 29.5909C22.9035 29.235 22.606 28.9336 22.2546 28.9336H19.596C18.8892 28.9336 18.4948 28.9336 16.3854 28.9336C16.3773 28.9322 16.3692 28.9336 16.3625 28.9336C15.8725 28.9227 14.9638 28.789 14.3796 28.0145C14.0713 27.6053 13.7631 26.8758 14.0444 25.7248C14.5506 23.5293 14.6004 21.3637 14.1844 19.6277C13.8371 18.1767 13.2879 17.574 13.0887 17.484C12.9338 17.5835 12.5273 18.1058 12.2419 19.5473C12.184 19.8377 12.1369 20.255 12.0831 20.7391C11.8112 23.1433 11.3144 27.5331 7.77135 30.3341V40.7391H22.2546C22.606 40.7391 22.9035 40.4377 22.9035 40.0818C22.9035 39.7259 22.606 39.4245 22.2546 39.4245C21.6596 39.4245 21.1777 38.9363 21.1777 38.3336C21.1777 37.7308 21.6596 37.2426 22.2546 37.2426C23.8 37.2426 25.0573 38.5163 25.0573 40.0818C25.06 41.6473 23.8027 42.921 22.2573 42.921Z" fill="white"/>
<path d="M22.2573 32.4301H19.4183C18.8233 32.4301 18.3413 31.9419 18.3413 31.3392C18.3413 30.7364 18.8233 30.2482 19.4183 30.2482H22.2573C22.8523 30.2482 23.3342 30.7364 23.3342 31.3392C23.3342 31.9419 22.8523 32.4301 22.2573 32.4301Z" fill="white"/>
<path d="M22.2573 35.928H19.4183C18.8233 35.928 18.3413 35.4398 18.3413 34.837C18.3413 34.2343 18.8233 33.7461 19.4183 33.7461H22.2573C22.8523 33.7461 23.3342 34.2343 23.3342 34.837C23.3342 35.4398 22.8523 35.928 22.2573 35.928Z" fill="white"/>
<path d="M22.2573 39.4245H19.4183C18.8233 39.4245 18.3413 38.9363 18.3413 38.3336C18.3413 37.7308 18.8233 37.2426 19.4183 37.2426H22.2573C22.8523 37.2426 23.3342 37.7308 23.3342 38.3336C23.3342 38.9363 22.8523 39.4245 22.2573 39.4245Z" fill="white"/>
</svg>
