<svg width="60" height="57" viewBox="0 0 60 57" fill="none" xmlns="http://www.w3.org/2000/svg">
<path d="M10.9645 5.0546C8.77843 5.0546 6.99999 6.8266 6.99999 9.00449C6.99999 11.1824 8.77843 12.9544 10.9645 12.9544C13.1522 12.9544 14.9322 11.1824 14.9322 9.00449C14.9322 6.8266 13.1522 5.0546 10.9645 5.0546ZM10.9645 10.5987C10.0817 10.5987 9.36355 9.88354 9.36355 9.00449C9.36355 8.12544 10.0817 7.41038 10.9645 7.41038C11.849 7.41038 12.5688 8.12555 12.5688 9.0046C12.5688 9.88366 11.849 10.5987 10.9645 10.5987Z" fill="white"/>
<path d="M45.6288 5.0546H35.1488C32.9627 5.0546 31.1843 6.8266 31.1843 9.00449C31.1843 11.1824 32.9627 12.9544 35.1488 12.9544H45.6288C47.8148 12.9544 49.5932 11.1824 49.5932 9.00449C49.5932 6.8266 47.8148 5.0546 45.6288 5.0546ZM45.6288 10.5987H35.1488C34.266 10.5987 33.5479 9.88354 33.5479 9.00449C33.5479 8.12544 34.2661 7.41026 35.1488 7.41026H45.6288C46.5116 7.41026 47.2297 8.12544 47.2297 9.00449C47.2297 9.88354 46.5116 10.5987 45.6288 10.5987Z" fill="white"/>
<path d="M21.2386 5.0546C19.0525 5.0546 17.2741 6.8266 17.2741 9.00449C17.2741 11.1824 19.0525 12.9544 21.2386 12.9544C23.4263 12.9544 25.2063 11.1824 25.2063 9.00449C25.2063 6.8266 23.4263 5.0546 21.2386 5.0546ZM21.2386 10.5987C20.3558 10.5987 19.6377 9.88354 19.6377 9.00449C19.6377 8.12544 20.3559 7.41026 21.2386 7.41026C22.1231 7.41026 22.8429 8.12544 22.8429 9.00449C22.8429 9.88354 22.1231 10.5987 21.2386 10.5987Z" fill="white"/>
<path d="M19.3116 24.5807C18.6771 24.4292 18.0392 24.8197 17.8876 25.4525L15.5431 35.2309C15.3915 35.8637 15.783 36.4992 16.4178 36.6503C16.5101 36.6723 16.6026 36.6829 16.6935 36.6829C17.2278 36.6829 17.7123 36.3192 17.8419 35.7785L20.1863 26.0001C20.3381 25.3674 19.9464 24.732 19.3116 24.5807Z" fill="white"/>
<path d="M23.6503 35.5011C23.8755 35.7011 24.1563 35.7994 24.4359 35.7994C24.7613 35.7994 25.0854 35.6663 25.3189 35.405L28.6328 31.6972C29.1796 31.0905 29.1796 30.1405 28.6362 29.5377L25.3188 25.8261C24.8845 25.3402 24.1374 25.2974 23.6503 25.7299C23.1628 26.1627 23.1197 26.9073 23.5538 27.393L26.434 30.6154L23.5538 33.838C23.1198 34.3239 23.1629 35.0685 23.6503 35.5011Z" fill="white"/>
<path d="M12.0793 25.73C11.5918 25.2973 10.8449 25.3406 10.4107 25.8262L7.09725 29.5336C6.54975 30.1404 6.54975 31.0909 7.0935 31.6935L10.4109 35.4051C10.6444 35.6665 10.9683 35.7995 11.2939 35.7995C11.5735 35.7995 11.8544 35.7012 12.0795 35.5012C12.567 35.0685 12.6101 34.3239 12.1759 33.8382L9.29582 30.6157L12.1759 27.3932C12.6099 26.9073 12.5668 26.1627 12.0793 25.73Z" fill="white"/>
<path d="M57.3507 38.2568H56.912C56.6822 37.5149 56.3844 36.7987 56.0211 36.1142L56.3342 35.801C56.8343 35.3057 57.1103 34.6442 57.1113 33.9385C57.1124 33.2312 56.8373 32.567 56.3367 32.0682L55.7266 31.4605V6.37142C55.7266 2.85814 53.2392 0 50.1815 0H5.5451C2.48743 0 0 2.85814 0 6.37142V39.2924C0 42.8057 2.48743 45.6638 5.5451 45.6638H12.4786C13.1313 45.6638 13.6604 45.1364 13.6604 44.486C13.6604 43.8355 13.1313 43.3081 12.4786 43.3081H5.5451C3.82056 43.3081 2.36356 41.4691 2.36356 39.2925V17.9231H53.3629V29.8258C53.2283 29.8051 53.0919 29.7916 52.953 29.7916C52.9516 29.7916 52.9502 29.7916 52.9489 29.7916C52.2409 29.7928 51.5772 30.0675 51.0841 30.5617L50.7647 30.8787C50.0635 30.5095 49.3333 30.2092 48.5804 29.9799V29.5603C48.5804 28.1045 47.3919 26.9203 45.9309 26.9203H43.7923C42.3332 26.9203 41.1462 28.1045 41.1462 29.5603V30.0086C40.4075 30.24 39.6941 30.5377 39.0123 30.8993L38.7062 30.5952C38.2091 30.0973 37.5454 29.8223 36.8373 29.8213C36.836 29.8213 36.8348 29.8213 36.8333 29.8213C36.1252 29.8213 35.4603 30.0952 34.9607 30.5927L33.4498 32.098C32.9492 32.5967 32.6741 33.261 32.6752 33.9682C32.6762 34.6739 32.9521 35.3354 33.4484 35.8269L33.7747 36.1531C33.4205 36.827 33.1295 37.5301 32.9044 38.2566H32.4556C30.9963 38.2566 29.8093 39.4393 29.8093 40.8933V43.0269C29.8093 43.1217 29.8146 43.2154 29.8245 43.3077H22.9485C22.2958 43.3077 21.7667 43.835 21.7667 44.4855C21.7667 45.136 22.2958 45.6633 22.9485 45.6633H32.9088C33.1374 46.3967 33.4328 47.1054 33.7931 47.7837L33.4738 48.1006C32.4457 49.1308 32.4467 50.8033 33.4763 51.8287L34.988 53.3349C35.4851 53.8328 36.1489 54.1078 36.8569 54.1088H36.8608C37.5691 54.1088 38.234 53.8349 38.7336 53.3372L39.0501 53.022C39.7368 53.3828 40.4508 53.6776 41.1858 53.904V54.3599C41.1858 55.8157 42.3728 57 43.8321 57H45.9739C47.433 57 48.62 55.8157 48.62 54.3599V53.9069C49.3619 53.6787 50.0789 53.3828 50.7648 53.0218L51.0799 53.3348C51.5769 53.8328 52.2405 54.1076 52.9486 54.1088H52.9527C53.6608 54.1088 54.3258 53.8349 54.8263 53.3364L56.3339 51.8312C56.8339 51.3358 57.1099 50.6744 57.111 49.9686C57.112 49.2613 56.837 48.5972 56.3362 48.0983L56.0209 47.7841C56.3805 47.1051 56.6757 46.396 56.9039 45.6634H57.3505C58.8115 45.6634 60 44.4807 60 43.0269V40.8933C60.0002 39.4395 58.8117 38.2568 57.3507 38.2568ZM2.36356 15.5673V6.37142C2.36356 4.19482 3.82056 2.35578 5.5451 2.35578H50.1815C51.9061 2.35578 53.3631 4.19482 53.3631 6.37142V15.5675L2.36356 15.5673ZM57.6367 43.0271C57.6367 43.1767 57.5031 43.3079 57.3506 43.3079H55.9992C55.4482 43.3079 54.9703 43.6874 54.8472 44.2227C54.592 45.3329 54.1536 46.3857 53.5441 47.3523C53.2506 47.8177 53.3191 48.4237 53.7094 48.8123L54.6656 49.7648C54.7371 49.8361 54.7476 49.9211 54.7476 49.9655C54.7475 50.0185 54.7337 50.0955 54.6647 50.1637L53.1548 51.6713C53.0832 51.7425 52.9978 51.7533 52.9528 51.7533C52.9527 51.7533 52.9525 51.7533 52.9525 51.7533C52.8989 51.7533 52.8214 51.7394 52.7522 51.6699L51.7924 50.7172C51.402 50.3298 50.7952 50.2626 50.3292 50.5546C49.358 51.1635 48.2973 51.6012 47.1761 51.8555C46.6383 51.9776 46.2567 52.4542 46.2567 53.0041V54.3603C46.2567 54.5117 46.1246 54.6446 45.9741 54.6446H43.8323C43.6817 54.6446 43.5496 54.5118 43.5496 54.3603V53.0007C43.5496 52.4503 43.1671 51.9732 42.6285 51.8518C41.5217 51.6024 40.4628 51.1654 39.4814 50.5534C39.2881 50.4327 39.0708 50.3738 38.8548 50.3738C38.5496 50.3738 38.247 50.4915 38.0191 50.7187L37.0629 51.6713C36.9913 51.7425 36.9059 51.7533 36.8609 51.7533C36.8608 51.7533 36.8607 51.7533 36.8605 51.7533C36.807 51.7533 36.7294 51.7394 36.6615 51.6714L35.1474 50.1629C35.0413 50.0573 35.0425 49.8702 35.146 49.7665L36.1056 48.8138C36.4977 48.4246 36.5663 47.8166 36.2708 47.3503C35.6604 46.3869 35.2214 45.3348 34.966 44.223C34.8429 43.6877 34.365 43.3081 33.8139 43.3081H32.4557C32.3025 43.3081 32.173 43.1795 32.173 43.0273V40.8937C32.173 40.7415 32.3025 40.6128 32.4557 40.6128H33.8105C34.3621 40.6128 34.8405 40.2324 34.9629 39.6964C35.2151 38.5918 35.6485 37.544 36.2509 36.5818C36.5418 36.1172 36.4731 35.5142 36.0851 35.1264L35.1183 34.16C35.0527 34.095 35.0388 34.0181 35.0387 33.965C35.0387 33.9207 35.0493 33.8356 35.1208 33.7645L36.6316 32.2594C36.7032 32.1881 36.7886 32.1774 36.8336 32.1774H36.8339C36.8875 32.1775 36.9651 32.1913 37.0343 32.2608L37.9873 33.2069C38.3788 33.5955 38.9879 33.6621 39.454 33.3673C40.4197 32.7571 41.4773 32.3151 42.5974 32.0538C43.1317 31.9292 43.5097 31.454 43.5097 30.9069V29.5607C43.5097 29.4066 43.639 29.2764 43.7922 29.2764H45.9308C46.0858 29.2764 46.2168 29.4066 46.2168 29.5607V30.8871C46.2168 31.439 46.6012 31.9168 47.1418 32.0368C48.2662 32.2864 49.3389 32.7272 50.3302 33.347C50.7961 33.6381 51.4023 33.5708 51.7923 33.1838L52.7559 32.2271C52.8213 32.1616 52.8988 32.1478 52.9523 32.1477H52.9527C52.9977 32.1477 53.0831 32.1585 53.1546 32.2297L54.6655 33.7347C54.737 33.806 54.7475 33.891 54.7475 33.9354C54.7474 33.9884 54.7336 34.0654 54.6641 34.1342L53.7077 35.0902C53.3183 35.4795 53.2508 36.0855 53.5451 36.5503C54.1569 37.5171 54.597 38.5758 54.8535 39.6969C54.976 40.2327 55.4542 40.6129 56.0058 40.6129H57.3506C57.503 40.6129 57.6367 40.7443 57.6367 40.8938V43.0271Z" fill="white"/>
<path d="M44.9049 34.7668C40.9226 34.7668 37.6828 37.9945 37.6828 41.9619C37.6828 45.9274 40.9226 49.1537 44.9049 49.1537C48.8854 49.1537 52.1237 45.9275 52.1237 41.9619C52.1237 37.9946 48.8854 34.7668 44.9049 34.7668ZM44.9049 46.7979C42.226 46.7979 40.0464 44.6285 40.0464 41.9619C40.0464 39.2934 42.226 37.1225 44.9049 37.1225C47.5821 37.1225 49.7601 39.2934 49.7601 41.9619C49.7601 44.6285 47.5819 46.7979 44.9049 46.7979Z" fill="white"/>
<path d="M17.7486 43.308H17.7254C17.0728 43.308 16.5437 43.8354 16.5437 44.4859C16.5437 45.1363 17.0728 45.6637 17.7254 45.6637H17.7486C18.4012 45.6637 18.9303 45.1363 18.9303 44.4859C18.9303 43.8354 18.4012 43.308 17.7486 43.308Z" fill="white"/>
</svg>
