<svg width="52" height="46" viewBox="0 0 52 46" fill="none" xmlns="http://www.w3.org/2000/svg">
<path d="M48.9531 17.476H42.5547V3.0131C42.5547 1.35168 41.1879 0 39.5078 0H12.4922C10.8121 0 9.44531 1.35168 9.44531 3.0131V12.0524H3.04688C1.36683 12.0524 0 13.4041 0 15.0655V33.5459C0 35.2073 1.36683 36.559 3.04688 36.559H12.0715L15.8365 40.2822C16.0349 40.4784 16.2948 40.5764 16.5547 40.5764C16.8146 40.5764 17.0746 40.4784 17.2728 40.2822L18.8906 38.6824V38.9694C18.8906 40.6309 20.2575 41.9825 21.9375 41.9825H30.9621L34.7272 45.7058C34.9255 45.902 35.1854 46 35.4453 46C35.7052 46 35.9652 45.902 36.1635 45.7058L39.9285 41.9825H48.9531C50.6332 41.9825 52 40.6309 52 38.9694V20.4891C52 18.8277 50.6332 17.476 48.9531 17.476ZM11.4766 3.0131C11.4766 2.45929 11.9322 2.00873 12.4922 2.00873H39.5078C40.0678 2.00873 40.5234 2.45929 40.5234 3.0131V21.4935C40.5234 22.0473 40.0678 22.4978 39.5078 22.4978H30.0625C29.7932 22.4978 29.5348 22.6037 29.3444 22.792L26 26.0993L22.6556 22.792C22.4652 22.6037 22.2068 22.4978 21.9375 22.4978H12.4922C11.9322 22.4978 11.4766 22.0473 11.4766 21.4935V3.0131ZM19.899 34.8444L16.5547 38.1517L13.2103 34.8444C13.0199 34.6561 12.7615 34.5502 12.4922 34.5502H3.04688C2.48686 34.5502 2.03125 34.0997 2.03125 33.5459V15.0655C2.03125 14.5117 2.48686 14.0611 3.04688 14.0611H9.44531V21.4935C9.44531 23.1549 10.8121 24.5065 12.4922 24.5065H21.5168L25.2819 28.2298C25.4802 28.426 25.7401 28.524 26 28.524C26.2599 28.524 26.5199 28.426 26.7181 28.2298L30.4832 24.5065H31.0781V33.5459C31.0781 34.0997 30.6225 34.5502 30.0625 34.5502H20.6172C20.3478 34.5502 20.0895 34.6561 19.899 34.8444ZM49.9688 38.9694C49.9688 39.5232 49.5131 39.9738 48.9531 39.9738H39.5078C39.2385 39.9738 38.9801 40.0797 38.7897 40.268L35.4453 43.5753L32.101 40.268C31.9105 40.0797 31.6522 39.9738 31.3828 39.9738H21.9375C21.3775 39.9738 20.9219 39.5232 20.9219 38.9694V36.6736L21.0379 36.559H30.0625C31.7425 36.559 33.1094 35.2073 33.1094 33.5459V24.5065H39.5078C41.1879 24.5065 42.5547 23.1549 42.5547 21.4935V19.4847H48.9531C49.5131 19.4847 49.9688 19.9353 49.9688 20.4891V38.9694Z" fill="white"/>
<path d="M35.4453 5.62445H16.5697C16.0088 5.62445 15.5541 6.07411 15.5541 6.62882C15.5541 7.18353 16.0088 7.63319 16.5697 7.63319H35.4453C36.0062 7.63319 36.4609 7.18353 36.4609 6.62882C36.4609 6.07411 36.0062 5.62445 35.4453 5.62445Z" fill="white"/>
<path d="M36.1634 11.5432C35.9745 11.3564 35.7124 11.2489 35.4453 11.2489C35.1782 11.2489 34.9162 11.3564 34.7273 11.5432C34.5384 11.73 34.4297 11.9891 34.4297 12.2533C34.4297 12.5174 34.5384 12.7766 34.7273 12.9634C34.9162 13.1502 35.1782 13.2576 35.4453 13.2576C35.7124 13.2576 35.9745 13.1502 36.1634 12.9634C36.3523 12.7766 36.4609 12.5174 36.4609 12.2533C36.4609 11.9891 36.3523 11.73 36.1634 11.5432Z" fill="white"/>
<path d="M30.4022 11.2489H16.5697C16.0088 11.2489 15.5541 11.6986 15.5541 12.2533C15.5541 12.808 16.0088 13.2576 16.5697 13.2576H30.4022C30.9632 13.2576 31.4179 12.808 31.4179 12.2533C31.4179 11.6986 30.9632 11.2489 30.4022 11.2489Z" fill="white"/>
<path d="M35.4453 16.8734H21.5385C20.9775 16.8734 20.5228 17.323 20.5228 17.8777C20.5228 18.4324 20.9775 18.8821 21.5385 18.8821H35.4453C36.0062 18.8821 36.4609 18.4324 36.4609 17.8777C36.4609 17.323 36.0062 16.8734 35.4453 16.8734Z" fill="white"/>
<path d="M16.6397 16.8734H16.5547C15.9938 16.8734 15.5391 17.323 15.5391 17.8777C15.5391 18.4324 15.9938 18.8821 16.5547 18.8821H16.6397C17.2006 18.8821 17.6553 18.4324 17.6553 17.8777C17.6553 17.323 17.2006 16.8734 16.6397 16.8734Z" fill="white"/>
</svg>
