<svg width="94" height="94" viewBox="0 0 94 94" fill="none" xmlns="http://www.w3.org/2000/svg">
<g filter="url(#filter0_i_2_351)">
<g filter="url(#filter1_i_2_351)">
<rect width="94" height="94" rx="20" fill="#B54ACC"/>
</g>
<g filter="url(#filter2_d_2_351)">
<path d="M70.3019 72H25.7967C23.2067 72 21.0987 69.8658 21.0987 67.2407V63.8301C21.0987 63.2273 21.5806 62.7391 22.1756 62.7391C22.7706 62.7391 23.2525 63.2273 23.2525 63.8301V67.2407C23.2525 68.6617 24.394 69.8181 25.7967 69.8181H70.3019C71.7046 69.8181 72.8462 68.6617 72.8462 67.2407V33.4469H23.2538V51.7818C23.2538 52.3846 22.7719 52.8728 22.1769 52.8728C21.5819 52.8728 21.1 52.3846 21.1 51.7818V32.3559C21.1 31.7532 21.5819 31.265 22.1769 31.265H73.9231C74.5181 31.265 75 31.7532 75 32.3559V67.2407C75 69.8644 72.8933 72 70.3019 72Z" fill="white"/>
<path d="M73.9231 33.4455H22.1769C21.5819 33.4455 21.1 32.9573 21.1 32.3546V26.7593C21.1 24.1342 23.2081 22 25.7981 22H70.3019C72.8933 22 75 24.1356 75 26.7593L75 32.3559C75 32.9573 74.5181 33.4455 73.9231 33.4455ZM23.2538 31.2636H72.8462V26.7593C72.8462 25.3383 71.7046 24.1819 70.3019 24.1819H25.7981C24.3954 24.1819 23.2538 25.3383 23.2538 26.7593V31.2636Z" fill="white"/>
<path d="M30.2337 29.2876C31.0864 29.2876 31.7777 28.5873 31.7777 27.7234C31.7777 26.8596 31.0864 26.1593 30.2337 26.1593C29.3809 26.1593 28.6896 26.8596 28.6896 27.7234C28.6896 28.5873 29.3809 29.2876 30.2337 29.2876Z" fill="white"/>
<path d="M36.1837 29.2876C37.0364 29.2876 37.7277 28.5873 37.7277 27.7234C37.7277 26.8596 37.0364 26.1593 36.1837 26.1593C35.3309 26.1593 34.6396 26.8596 34.6396 27.7234C34.6396 28.5873 35.3309 29.2876 36.1837 29.2876Z" fill="white"/>
<path d="M42.1337 29.2862C42.9864 29.2862 43.6777 28.5859 43.6777 27.7221C43.6777 26.8582 42.9864 26.1579 42.1337 26.1579C41.2809 26.1579 40.5896 26.8582 40.5896 27.7221C40.5896 28.5859 41.2809 29.2862 42.1337 29.2862Z" fill="white"/>
<path d="M52.5017 66.6188H48.404C47.809 66.6188 47.3271 66.1306 47.3271 65.5279V54.8542C47.3271 54.2515 47.809 53.7633 48.404 53.7633H52.5017C53.0967 53.7633 53.5787 54.2515 53.5787 54.8542V65.5279C53.5787 66.1306 53.0967 66.6188 52.5017 66.6188ZM49.4796 64.4369H51.4235V55.9452H49.4796V64.4369Z" fill="white"/>
<path d="M60.7604 66.6188H56.6613C56.0663 66.6188 55.5844 66.1306 55.5844 65.5279V58.108C55.5844 57.5052 56.0663 57.017 56.6613 57.017H60.7604C61.3554 57.017 61.8373 57.5052 61.8373 58.108V65.5279C61.8373 66.1306 61.3554 66.6188 60.7604 66.6188ZM57.7383 64.4369H59.6835V59.199H57.7383V64.4369Z" fill="white"/>
<path d="M69.019 66.6188H64.9213C64.3263 66.6188 63.8444 66.1306 63.8444 65.5279V52.855C63.8444 52.2523 64.3263 51.7641 64.9213 51.7641H69.019C69.614 51.7641 70.096 52.2523 70.096 52.855V65.5279C70.096 66.1306 69.614 66.6188 69.019 66.6188ZM65.9983 64.4369H67.9421V53.946H65.9983V64.4369Z" fill="white"/>
<path d="M58.7115 49.9558C55.7877 49.9558 53.0388 48.8021 50.9712 46.7075L48.4485 44.1519C48.0285 43.7264 48.0285 43.035 48.4485 42.6096L50.9712 40.054C53.0388 37.9594 55.7877 36.8057 58.7115 36.8057C61.6354 36.8057 64.3842 37.9594 66.4519 40.054L68.9746 42.6096C69.1765 42.8141 69.2896 43.0923 69.2896 43.3814C69.2896 43.6705 69.1765 43.9487 68.9746 44.1533L66.4519 46.7088C64.3842 48.8021 61.6354 49.9558 58.7115 49.9558ZM50.7329 43.3814L52.4937 45.1651C54.1535 46.8479 56.3625 47.7739 58.7102 47.7739C61.0579 47.7739 63.2669 46.8479 64.9267 45.1651L66.6875 43.3814L64.9267 41.5977C63.2669 39.9149 61.0579 38.989 58.7102 38.989C56.3625 38.989 54.1535 39.9149 52.4937 41.5977L50.7329 43.3814Z" fill="white"/>
<path d="M58.7115 46.5002C57.014 46.5002 55.6315 45.1011 55.6315 43.3801C55.6315 41.6591 57.0127 40.2599 58.7115 40.2599C60.4104 40.2599 61.7915 41.6591 61.7915 43.3801C61.7915 45.1011 60.409 46.5002 58.7115 46.5002ZM58.7115 42.4432C58.2013 42.4432 57.7854 42.8632 57.7854 43.3814C57.7854 43.8996 58.2 44.3197 58.7115 44.3197C59.2231 44.3197 59.6377 43.8996 59.6377 43.3814C59.6377 42.8632 59.2217 42.4432 58.7115 42.4432Z" fill="white"/>
<path d="M41.2573 61.4245C40.6623 61.4245 40.1804 60.9363 40.1804 60.3336C40.1804 59.7308 40.6623 59.2426 41.2573 59.2426C41.6087 59.2426 41.9062 58.9412 41.9062 58.5853C41.9062 58.2294 41.6087 57.928 41.2573 57.928C40.6623 57.928 40.1804 57.4398 40.1804 56.837C40.1804 56.2343 40.6623 55.7461 41.2573 55.7461C42.8027 55.7461 44.06 57.0198 44.06 58.5853C44.06 60.1508 42.8027 61.4245 41.2573 61.4245Z" fill="white"/>
<path d="M41.2573 57.928C40.6623 57.928 40.1804 57.4398 40.1804 56.837C40.1804 56.2343 40.6623 55.7461 41.2573 55.7461C41.6087 55.7461 41.9062 55.4447 41.9062 55.0888C41.9062 54.7329 41.6087 54.4315 41.2573 54.4315C40.6623 54.4315 40.1804 53.9433 40.1804 53.3405C40.1804 52.7378 40.6623 52.2496 41.2573 52.2496C42.8027 52.2496 44.06 53.5233 44.06 55.0888C44.06 56.6543 42.8027 57.928 41.2573 57.928Z" fill="white"/>
<path d="M25.6971 64.921H20.0769C19.4819 64.921 19 64.4328 19 63.8301V51.7818C19 51.1791 19.4819 50.6909 20.0769 50.6909H25.6985C26.2935 50.6909 26.7754 51.1791 26.7754 51.7818V63.8301C26.774 64.4328 26.2921 64.921 25.6971 64.921ZM21.1538 62.7391H24.6202V52.8728H21.1538V62.7391Z" fill="white"/>
<path d="M41.2573 64.921L25.6971 64.921C25.1021 64.921 24.6202 64.4328 24.6202 63.8301V51.7818C24.6202 51.4232 24.7938 51.0877 25.086 50.8845C28.2481 48.6739 28.6681 44.9524 28.9467 42.4909C29.0073 41.9577 29.0585 41.4982 29.1338 41.1177C29.5498 39.019 30.3292 37.7671 31.4479 37.3975C32.2044 37.148 33.0229 37.3634 33.6933 37.988C35.2063 39.3953 36.3048 43.2014 35.1417 48.2307C35.1404 48.2362 35.139 48.2416 35.1377 48.2457C35.0704 48.5158 35.0879 48.648 35.096 48.6889C35.1363 48.7121 35.244 48.7476 35.4002 48.7517H41.2546C42.8 48.7517 44.0573 50.0254 44.0573 51.5909C44.0573 53.1564 42.8 54.4301 41.2546 54.4301C40.6596 54.4301 40.1777 53.9419 40.1777 53.3392C40.1777 52.7364 40.6596 52.2482 41.2546 52.2482C41.606 52.2482 41.9035 51.9468 41.9035 51.5909C41.9035 51.235 41.606 50.9336 41.2546 50.9336H38.596C37.8892 50.9336 37.4948 50.9336 35.3854 50.9336C35.3773 50.9322 35.3692 50.9336 35.3625 50.9336C34.8725 50.9227 33.9638 50.789 33.3796 50.0145C33.0713 49.6053 32.7631 48.8758 33.0444 47.7248C33.5506 45.5293 33.6004 43.3637 33.1844 41.6277C32.8371 40.1767 32.2879 39.574 32.0887 39.484C31.9338 39.5835 31.5273 40.1058 31.2419 41.5473C31.184 41.8377 31.1369 42.255 31.0831 42.7391C30.8112 45.1433 30.3144 49.5331 26.7713 52.3341V62.7391H41.2546C41.606 62.7391 41.9035 62.4377 41.9035 62.0818C41.9035 61.7259 41.606 61.4245 41.2546 61.4245C40.6596 61.4245 40.1777 60.9363 40.1777 60.3336C40.1777 59.7308 40.6596 59.2426 41.2546 59.2426C42.8 59.2426 44.0573 60.5163 44.0573 62.0818C44.06 63.6473 42.8027 64.921 41.2573 64.921Z" fill="white"/>
<path d="M41.2573 54.4301H38.4183C37.8233 54.4301 37.3413 53.9419 37.3413 53.3392C37.3413 52.7364 37.8233 52.2482 38.4183 52.2482H41.2573C41.8523 52.2482 42.3342 52.7364 42.3342 53.3392C42.3342 53.9419 41.8523 54.4301 41.2573 54.4301Z" fill="white"/>
<path d="M41.2573 57.928H38.4183C37.8233 57.928 37.3413 57.4398 37.3413 56.837C37.3413 56.2343 37.8233 55.7461 38.4183 55.7461H41.2573C41.8523 55.7461 42.3342 56.2343 42.3342 56.837C42.3342 57.4398 41.8523 57.928 41.2573 57.928Z" fill="white"/>
<path d="M41.2573 61.4245H38.4183C37.8233 61.4245 37.3413 60.9363 37.3413 60.3336C37.3413 59.7308 37.8233 59.2426 38.4183 59.2426H41.2573C41.8523 59.2426 42.3342 59.7308 42.3342 60.3336C42.3342 60.9363 41.8523 61.4245 41.2573 61.4245Z" fill="white"/>
</g>
</g>
<defs>
<filter id="filter0_i_2_351" x="0" y="0" width="98" height="98" filterUnits="userSpaceOnUse" color-interpolation-filters="sRGB">
<feFlood flood-opacity="0" result="BackgroundImageFix"/>
<feBlend mode="normal" in="SourceGraphic" in2="BackgroundImageFix" result="shape"/>
<feColorMatrix in="SourceAlpha" type="matrix" values="0 0 0 0 0 0 0 0 0 0 0 0 0 0 0 0 0 0 127 0" result="hardAlpha"/>
<feOffset dx="4" dy="4"/>
<feGaussianBlur stdDeviation="2"/>
<feComposite in2="hardAlpha" operator="arithmetic" k2="-1" k3="1"/>
<feColorMatrix type="matrix" values="0 0 0 0 0 0 0 0 0 0 0 0 0 0 0 0 0 0 0.25 0"/>
<feBlend mode="normal" in2="shape" result="effect1_innerShadow_2_351"/>
</filter>
<filter id="filter1_i_2_351" x="0" y="0" width="96" height="98" filterUnits="userSpaceOnUse" color-interpolation-filters="sRGB">
<feFlood flood-opacity="0" result="BackgroundImageFix"/>
<feBlend mode="normal" in="SourceGraphic" in2="BackgroundImageFix" result="shape"/>
<feColorMatrix in="SourceAlpha" type="matrix" values="0 0 0 0 0 0 0 0 0 0 0 0 0 0 0 0 0 0 127 0" result="hardAlpha"/>
<feOffset dx="2" dy="4"/>
<feGaussianBlur stdDeviation="2"/>
<feComposite in2="hardAlpha" operator="arithmetic" k2="-1" k3="1"/>
<feColorMatrix type="matrix" values="0 0 0 0 0 0 0 0 0 0 0 0 0 0 0 0 0 0 0.15 0"/>
<feBlend mode="normal" in2="shape" result="effect1_innerShadow_2_351"/>
</filter>
<filter id="filter2_d_2_351" x="17" y="20" width="64" height="58" filterUnits="userSpaceOnUse" color-interpolation-filters="sRGB">
<feFlood flood-opacity="0" result="BackgroundImageFix"/>
<feColorMatrix in="SourceAlpha" type="matrix" values="0 0 0 0 0 0 0 0 0 0 0 0 0 0 0 0 0 0 127 0" result="hardAlpha"/>
<feOffset dx="2" dy="2"/>
<feGaussianBlur stdDeviation="2"/>
<feComposite in2="hardAlpha" operator="out"/>
<feColorMatrix type="matrix" values="0 0 0 0 0 0 0 0 0 0 0 0 0 0 0 0 0 0 0.7 0"/>
<feBlend mode="normal" in2="BackgroundImageFix" result="effect1_dropShadow_2_351"/>
<feBlend mode="normal" in="SourceGraphic" in2="effect1_dropShadow_2_351" result="shape"/>
</filter>
</defs>
</svg>
