<svg width="94" height="94" viewBox="0 0 94 94" fill="none" xmlns="http://www.w3.org/2000/svg">
<rect width="94" height="94" rx="20" fill="#B54ACC"/>
<g filter="url(#filter0_d_558_320)">
<path d="M29.9645 24.0546C27.7784 24.0546 26 25.8266 26 28.0045C26 30.1824 27.7784 31.9544 29.9645 31.9544C32.1522 31.9544 33.9322 30.1824 33.9322 28.0045C33.9322 25.8266 32.1522 24.0546 29.9645 24.0546ZM29.9645 29.5987C29.0817 29.5987 28.3636 28.8835 28.3636 28.0045C28.3636 27.1254 29.0817 26.4104 29.9645 26.4104C30.849 26.4104 31.5688 27.1256 31.5688 28.0046C31.5688 28.8837 30.849 29.5987 29.9645 29.5987Z" fill="white"/>
<path d="M64.6288 24.0546H54.1488C51.9627 24.0546 50.1843 25.8266 50.1843 28.0045C50.1843 30.1824 51.9627 31.9544 54.1488 31.9544H64.6288C66.8148 31.9544 68.5932 30.1824 68.5932 28.0045C68.5932 25.8266 66.8148 24.0546 64.6288 24.0546ZM64.6288 29.5987H54.1488C53.266 29.5987 52.5479 28.8835 52.5479 28.0045C52.5479 27.1254 53.2661 26.4103 54.1488 26.4103H64.6288C65.5116 26.4103 66.2297 27.1254 66.2297 28.0045C66.2297 28.8835 65.5116 29.5987 64.6288 29.5987Z" fill="white"/>
<path d="M40.2386 24.0546C38.0525 24.0546 36.2741 25.8266 36.2741 28.0045C36.2741 30.1824 38.0525 31.9544 40.2386 31.9544C42.4263 31.9544 44.2063 30.1824 44.2063 28.0045C44.2063 25.8266 42.4263 24.0546 40.2386 24.0546ZM40.2386 29.5987C39.3558 29.5987 38.6377 28.8835 38.6377 28.0045C38.6377 27.1254 39.3559 26.4103 40.2386 26.4103C41.1231 26.4103 41.8429 27.1254 41.8429 28.0045C41.8429 28.8835 41.1231 29.5987 40.2386 29.5987Z" fill="white"/>
<path d="M38.3116 43.5807C37.6771 43.4292 37.0392 43.8197 36.8876 44.4525L34.5431 54.2309C34.3915 54.8637 34.783 55.4992 35.4178 55.6503C35.5101 55.6723 35.6026 55.6829 35.6935 55.6829C36.2278 55.6829 36.7123 55.3192 36.8419 54.7785L39.1863 45.0001C39.3381 44.3674 38.9464 43.732 38.3116 43.5807Z" fill="white"/>
<path d="M42.6503 54.5011C42.8755 54.7011 43.1563 54.7994 43.4359 54.7994C43.7613 54.7994 44.0854 54.6663 44.3189 54.405L47.6328 50.6972C48.1796 50.0905 48.1796 49.1405 47.6362 48.5377L44.3188 44.8261C43.8845 44.3402 43.1374 44.2974 42.6503 44.7299C42.1628 45.1627 42.1197 45.9073 42.5538 46.393L45.434 49.6154L42.5538 52.838C42.1198 53.3239 42.1629 54.0685 42.6503 54.5011Z" fill="white"/>
<path d="M31.0793 44.73C30.5918 44.2973 29.8449 44.3406 29.4107 44.8262L26.0973 48.5336C25.5498 49.1404 25.5498 50.0909 26.0935 50.6935L29.4109 54.4051C29.6444 54.6665 29.9683 54.7995 30.2939 54.7995C30.5735 54.7995 30.8544 54.7012 31.0795 54.5012C31.567 54.0685 31.6101 53.3239 31.1759 52.8382L28.2958 49.6157L31.1759 46.3932C31.6099 45.9073 31.5668 45.1627 31.0793 44.73Z" fill="white"/>
<path d="M76.3507 57.2568H75.912C75.6822 56.5149 75.3844 55.7987 75.0211 55.1142L75.3342 54.801C75.8343 54.3057 76.1103 53.6442 76.1113 52.9385C76.1124 52.2312 75.8373 51.567 75.3367 51.0682L74.7266 50.4605V25.3714C74.7266 21.8581 72.2392 19 69.1815 19H24.5451C21.4874 19 19 21.8581 19 25.3714V58.2924C19 61.8057 21.4874 64.6638 24.5451 64.6638H31.4786C32.1313 64.6638 32.6604 64.1364 32.6604 63.486C32.6604 62.8355 32.1313 62.3081 31.4786 62.3081H24.5451C22.8206 62.3081 21.3636 60.4691 21.3636 58.2925V36.9231H72.3629V48.8258C72.2283 48.8051 72.0919 48.7916 71.953 48.7916C71.9516 48.7916 71.9502 48.7916 71.9489 48.7916C71.2409 48.7928 70.5772 49.0675 70.0841 49.5617L69.7647 49.8787C69.0635 49.5095 68.3333 49.2092 67.5804 48.9799V48.5603C67.5804 47.1045 66.3919 45.9203 64.9309 45.9203H62.7923C61.3332 45.9203 60.1462 47.1045 60.1462 48.5603V49.0086C59.4075 49.24 58.6941 49.5377 58.0123 49.8993L57.7062 49.5952C57.2091 49.0973 56.5454 48.8223 55.8373 48.8213C55.836 48.8213 55.8348 48.8213 55.8333 48.8213C55.1252 48.8213 54.4603 49.0952 53.9607 49.5927L52.4498 51.098C51.9492 51.5967 51.6741 52.261 51.6752 52.9682C51.6762 53.6739 51.9521 54.3354 52.4484 54.8269L52.7747 55.1531C52.4205 55.827 52.1295 56.5301 51.9044 57.2566H51.4556C49.9963 57.2566 48.8093 58.4393 48.8093 59.8933V62.0269C48.8093 62.1217 48.8146 62.2154 48.8245 62.3077H41.9485C41.2958 62.3077 40.7667 62.835 40.7667 63.4855C40.7667 64.136 41.2958 64.6633 41.9485 64.6633H51.9088C52.1374 65.3967 52.4328 66.1054 52.7931 66.7837L52.4738 67.1006C51.4457 68.1308 51.4467 69.8033 52.4763 70.8287L53.988 72.3349C54.4851 72.8328 55.1489 73.1078 55.8569 73.1088H55.8608C56.5691 73.1088 57.234 72.8349 57.7336 72.3372L58.0501 72.022C58.7368 72.3828 59.4508 72.6776 60.1858 72.9041V73.3599C60.1858 74.8157 61.3728 76 62.832 76H64.9739C66.433 76 67.62 74.8157 67.62 73.3599V72.9069C68.3619 72.6787 69.0789 72.3828 69.7648 72.0218L70.0799 72.3348C70.5769 72.8328 71.2405 73.1076 71.9486 73.1088H71.9527C72.6608 73.1088 73.3258 72.8349 73.8263 72.3364L75.3339 70.8312C75.8339 70.3358 76.1099 69.6744 76.111 68.9686C76.112 68.2613 75.837 67.5972 75.3362 67.0983L75.0209 66.7841C75.3805 66.1051 75.6757 65.396 75.9039 64.6634H76.3505C77.8115 64.6634 79 63.4807 79 62.0269V59.8933C79.0002 58.4395 77.8117 57.2568 76.3507 57.2568ZM21.3636 34.5673V25.3714C21.3636 23.1948 22.8206 21.3558 24.5451 21.3558H69.1815C70.9061 21.3558 72.3631 23.1948 72.3631 25.3714V34.5675L21.3636 34.5673ZM76.6367 62.0271C76.6367 62.1767 76.5031 62.3079 76.3506 62.3079H74.9992C74.4482 62.3079 73.9703 62.6874 73.8472 63.2227C73.592 64.3329 73.1536 65.3858 72.5441 66.3523C72.2506 66.8177 72.3191 67.4237 72.7094 67.8123L73.6656 68.7648C73.7371 68.8361 73.7476 68.9211 73.7476 68.9655C73.7475 69.0185 73.7337 69.0955 73.6647 69.1637L72.1548 70.6713C72.0832 70.7425 71.9978 70.7533 71.9528 70.7533C71.9527 70.7533 71.9526 70.7533 71.9526 70.7533C71.8989 70.7533 71.8214 70.7394 71.7522 70.6699L70.7924 69.7172C70.402 69.3298 69.7952 69.2626 69.3292 69.5546C68.358 70.1635 67.2973 70.6012 66.1761 70.8555C65.6383 70.9776 65.2567 71.4542 65.2567 72.0041V73.3603C65.2567 73.5117 65.1246 73.6446 64.9741 73.6446H62.8323C62.6817 73.6446 62.5496 73.5118 62.5496 73.3603V72.0007C62.5496 71.4503 62.1671 70.9732 61.6285 70.8518C60.5217 70.6024 59.4628 70.1654 58.4814 69.5534C58.2881 69.4327 58.0708 69.3738 57.8548 69.3738C57.5496 69.3738 57.247 69.4915 57.0191 69.7187L56.0629 70.6713C55.9913 70.7425 55.9059 70.7533 55.8609 70.7533C55.8608 70.7533 55.8607 70.7533 55.8605 70.7533C55.807 70.7533 55.7294 70.7394 55.6616 70.6714L54.1474 69.1629C54.0413 69.0573 54.0425 68.8702 54.146 68.7665L55.1056 67.8138C55.4977 67.4246 55.5663 66.8166 55.2708 66.3503C54.6604 65.3869 54.2214 64.3348 53.966 63.223C53.8429 62.6877 53.365 62.3081 52.8139 62.3081H51.4557C51.3025 62.3081 51.173 62.1795 51.173 62.0273V59.8937C51.173 59.7415 51.3025 59.6128 51.4557 59.6128H52.8105C53.3621 59.6128 53.8404 59.2324 53.9629 58.6964C54.2151 57.5918 54.6485 56.544 55.2509 55.5818C55.5418 55.1172 55.4731 54.5142 55.0851 54.1264L54.1183 53.16C54.0527 53.095 54.0388 53.0181 54.0387 52.965C54.0387 52.9207 54.0493 52.8356 54.1208 52.7645L55.6316 51.2594C55.7032 51.1881 55.7886 51.1774 55.8336 51.1774H55.8339C55.8875 51.1775 55.9651 51.1913 56.0343 51.2608L56.9873 52.2069C57.3788 52.5955 57.9878 52.6621 58.454 52.3673C59.4197 51.7571 60.4773 51.3151 61.5974 51.0538C62.1317 50.9292 62.5097 50.454 62.5097 49.9069V48.5607C62.5097 48.4066 62.639 48.2764 62.7922 48.2764H64.9308C65.0858 48.2764 65.2168 48.4066 65.2168 48.5607V49.8871C65.2168 50.439 65.6012 50.9168 66.1418 51.0368C67.2662 51.2864 68.3389 51.7272 69.3302 52.347C69.7961 52.6381 70.4023 52.5708 70.7923 52.1838L71.7559 51.2271C71.8213 51.1616 71.8988 51.1478 71.9523 51.1477H71.9527C71.9977 51.1477 72.0831 51.1585 72.1546 51.2297L73.6655 52.7347C73.737 52.806 73.7475 52.891 73.7475 52.9354C73.7474 52.9884 73.7336 53.0654 73.6641 53.1342L72.7077 54.0902C72.3183 54.4795 72.2508 55.0855 72.5451 55.5503C73.1569 56.5171 73.5971 57.5758 73.8535 58.6969C73.976 59.2327 74.4542 59.6129 75.0058 59.6129H76.3506C76.503 59.6129 76.6367 59.7443 76.6367 59.8938V62.0271Z" fill="white"/>
<path d="M63.9049 53.7668C59.9226 53.7668 56.6828 56.9945 56.6828 60.9619C56.6828 64.9274 59.9226 68.1537 63.9049 68.1537C67.8854 68.1537 71.1237 64.9275 71.1237 60.9619C71.1237 56.9946 67.8854 53.7668 63.9049 53.7668ZM63.9049 65.7979C61.226 65.7979 59.0464 63.6285 59.0464 60.9619C59.0464 58.2934 61.226 56.1225 63.9049 56.1225C66.5821 56.1225 68.7601 58.2934 68.7601 60.9619C68.7601 63.6285 66.5819 65.7979 63.9049 65.7979Z" fill="white"/>
<path d="M36.7486 62.308H36.7254C36.0728 62.308 35.5437 62.8354 35.5437 63.4859C35.5437 64.1363 36.0728 64.6637 36.7254 64.6637H36.7486C37.4012 64.6637 37.9303 64.1363 37.9303 63.4859C37.9303 62.8354 37.4012 62.308 36.7486 62.308Z" fill="white"/>
</g>
<defs>
<filter id="filter0_d_558_320" x="17" y="17" width="68" height="65" filterUnits="userSpaceOnUse" color-interpolation-filters="sRGB">
<feFlood flood-opacity="0" result="BackgroundImageFix"/>
<feColorMatrix in="SourceAlpha" type="matrix" values="0 0 0 0 0 0 0 0 0 0 0 0 0 0 0 0 0 0 127 0" result="hardAlpha"/>
<feOffset dx="2" dy="2"/>
<feGaussianBlur stdDeviation="2"/>
<feComposite in2="hardAlpha" operator="out"/>
<feColorMatrix type="matrix" values="0 0 0 0 0 0 0 0 0 0 0 0 0 0 0 0 0 0 0.7 0"/>
<feBlend mode="normal" in2="BackgroundImageFix" result="effect1_dropShadow_558_320"/>
<feBlend mode="normal" in="SourceGraphic" in2="effect1_dropShadow_558_320" result="shape"/>
</filter>
</defs>
</svg>
