<svg width="75" height="76" viewBox="0 0 75 76" fill="none" xmlns="http://www.w3.org/2000/svg">
<path d="M74.8554 41.2991C74.182 34.2408 71.156 27.5866 66.3345 22.562C62.2142 18.2684 57.1709 15.5092 51.8643 14.2824V10.4038C54.0317 9.84191 55.6428 7.79745 55.6428 5.36739C55.6428 2.50548 53.4086 0.177246 50.6622 0.177246H40.1152C37.3689 0.177246 35.1347 2.50548 35.1347 5.36739C35.1347 7.7973 36.7457 9.84175 38.913 10.4038V14.2932C33.6226 15.5253 28.5961 18.2806 24.4874 22.5622C23.5883 23.4992 22.7592 24.4821 22.0002 25.5036C21.9635 25.5007 21.9267 25.4978 21.8892 25.4978H11.4504C10.6415 25.4978 9.98555 26.1812 9.98555 27.0243C9.98555 27.8674 10.6415 28.5509 11.4504 28.5509H20.007C18.9329 30.4246 18.0669 32.3925 17.4077 34.4182H1.46487C0.655967 34.4182 0 35.1016 0 35.9447C0 36.7878 0.655967 37.4712 1.46487 37.4712H16.5799C16.1578 39.4024 15.9155 41.3678 15.8529 43.3386H9.37514C8.56624 43.3386 7.91027 44.0221 7.91027 44.8652C7.91027 45.7083 8.56624 46.3917 9.37514 46.3917H15.8997C16.0233 48.3676 16.3281 50.3331 16.8143 52.2591H7.32433C6.51543 52.2591 5.85946 52.9426 5.85946 53.7856C5.85946 54.6287 6.51543 55.3122 7.32433 55.3122H17.7492C19.1862 59.2736 21.432 62.9865 24.4874 66.1705C29.3136 71.1998 35.7057 74.3539 42.4859 75.052C43.4536 75.1515 44.4221 75.2008 45.3892 75.2008C51.1054 75.2008 56.7489 73.4769 61.5375 70.2273C62.2155 69.7672 62.4072 68.8215 61.9657 68.115C61.5242 67.4086 60.6167 67.2087 59.9388 67.6688C49.4566 74.7819 35.4184 73.244 26.559 64.0118C16.1641 53.1793 16.1641 35.5537 26.559 24.7211C36.9539 13.8888 53.8677 13.8888 64.2628 24.7211C73.1104 33.9413 74.5943 48.5578 67.7911 59.4757C67.3504 60.1828 67.5433 61.1283 68.2217 61.5873C68.9005 62.0465 69.8076 61.8455 70.2481 61.1384C73.883 55.3048 75.5192 48.2592 74.8554 41.2991ZM38.0644 5.36754C38.0644 4.18908 38.9843 3.23043 40.1152 3.23043H50.6622C51.7931 3.23043 52.713 4.18908 52.713 5.36754C52.713 6.54601 51.7931 7.50466 50.6622 7.50466H40.1152C38.9843 7.50466 38.0644 6.54586 38.0644 5.36754ZM41.8427 13.7684V10.5577H48.9346V13.7629C46.5797 13.471 44.1972 13.4729 41.8427 13.7684Z" fill="#FF0178"/>
<path d="M65.2993 63.5639C64.9126 63.5639 64.5361 63.7272 64.2638 64.0112C63.9899 64.2951 63.8345 64.6889 63.8345 65.0904C63.8345 65.4919 63.9899 65.8857 64.2638 66.1696C64.5361 66.4551 64.9127 66.6169 65.2993 66.6169C65.6845 66.6169 66.061 66.4551 66.3349 66.1696C66.6074 65.8857 66.7641 65.4919 66.7641 65.0904C66.7641 64.6889 66.6075 64.2951 66.3349 64.0112C66.061 63.7272 65.6844 63.5639 65.2993 63.5639Z" fill="#FF0178"/>
<path d="M45.411 20.6855C32.8808 20.6855 22.6867 31.3085 22.6867 44.3662C22.6867 57.4238 32.8808 68.0468 45.411 68.0468C57.9412 68.0468 68.1353 57.4238 68.1353 44.3662C68.1353 31.3085 57.9412 20.6855 45.411 20.6855ZM45.411 64.9938C34.4961 64.9938 25.6164 55.7402 25.6164 44.3662C25.6164 32.9921 34.4961 23.7385 45.411 23.7385C56.3258 23.7385 65.2056 32.9921 65.2056 44.3662C65.2056 55.7402 56.3258 64.9938 45.411 64.9938Z" fill="#FF0178"/>
<path d="M54.6771 32.5513L47.4217 40.1119C46.8149 39.7993 46.1324 39.6227 45.411 39.6227C44.6894 39.6227 44.0071 39.7993 43.4003 40.1119L40.1531 36.7281C39.581 36.132 38.6537 36.132 38.0814 36.7281C37.5094 37.3242 37.5094 38.2908 38.0814 38.8869L41.3286 42.2707C41.0284 42.903 40.8591 43.6142 40.8591 44.366C40.8591 46.9815 42.9009 49.1095 45.411 49.1095C47.921 49.1095 49.9629 46.9815 49.9629 44.366C49.9629 43.6142 49.7934 42.903 49.4934 42.2707L56.7488 34.7101C57.3208 34.1139 57.3208 33.1474 56.7488 32.5513C56.1767 31.9552 55.2495 31.9552 54.6771 32.5513ZM45.411 46.0566C44.5165 46.0566 43.7888 45.2983 43.7888 44.3662C43.7888 43.4341 44.5165 42.6757 45.411 42.6757C46.3054 42.6757 47.0332 43.4341 47.0332 44.3662C47.0332 45.2983 46.3054 46.0566 45.411 46.0566Z" fill="#FF0178"/>
<path d="M61.0731 42.8583H59.716C58.9071 42.8583 58.2511 43.5417 58.2511 44.3848C58.2511 45.2278 58.9071 45.9113 59.716 45.9113H61.0731C61.882 45.9113 62.538 45.2278 62.538 44.3848C62.538 43.5417 61.882 42.8583 61.0731 42.8583Z" fill="#FF0178"/>
<path d="M31.1058 42.821H29.7488C28.9399 42.821 28.2839 43.5044 28.2839 44.3475C28.2839 45.1906 28.9399 45.874 29.7488 45.874H31.1058C31.9147 45.874 32.5706 45.1906 32.5706 44.3475C32.5706 43.5044 31.9147 42.821 31.1058 42.821Z" fill="#FF0178"/>
<path d="M45.4288 30.9854C46.2377 30.9854 46.8937 30.302 46.8937 29.459V28.0448C46.8937 27.2017 46.2377 26.5183 45.4288 26.5183C44.6199 26.5183 43.964 27.2017 43.964 28.0448V29.459C43.964 30.302 44.6199 30.9854 45.4288 30.9854Z" fill="#FF0178"/>
<path d="M45.3931 57.7468C44.5842 57.7468 43.9282 58.4302 43.9282 59.2733V60.6874C43.9282 61.5305 44.5842 62.2139 45.3931 62.2139C46.202 62.2139 46.8579 61.5305 46.8579 60.6874V59.2733C46.8579 58.4302 46.202 57.7468 45.3931 57.7468Z" fill="#FF0178"/>
<path d="M1.46484 52.2585C1.07959 52.2585 0.70166 52.4219 0.429199 52.7058C0.156739 52.9897 3.31015e-07 53.3836 3.31015e-07 53.785C3.31015e-07 54.188 0.156592 54.5803 0.429199 54.8643C0.701807 55.1482 1.07959 55.3115 1.46484 55.3115C1.8501 55.3115 2.22803 55.1482 2.50034 54.8643C2.7728 54.5803 2.92969 54.1865 2.92969 53.785C2.92969 53.3836 2.77295 52.9897 2.50034 52.7058C2.22803 52.4219 1.8501 52.2585 1.46484 52.2585Z" fill="#FF0178"/>
</svg>
