<svg width="75" height="79" viewBox="0 0 75 79" fill="none" xmlns="http://www.w3.org/2000/svg">
<path d="M52.0594 25.2263C52.7917 25.2263 53.3874 25.8471 53.3874 26.6102C53.3874 27.2424 53.8792 27.755 54.486 27.755C55.0928 27.755 55.5846 27.2424 55.5846 26.6102C55.5846 24.9844 54.5653 23.6024 53.158 23.1201V22.8169C53.158 22.1847 52.6662 21.6721 52.0594 21.6721C51.4526 21.6721 50.9608 22.1847 50.9608 22.8169V23.1201C49.5534 23.6024 48.5341 24.9842 48.5341 26.6102C48.5341 28.6358 50.1156 30.2839 52.0594 30.2839C52.7917 30.2839 53.3874 30.9047 53.3874 31.6679C53.3874 32.431 52.7917 33.0518 52.0594 33.0518C51.327 33.0518 50.7313 32.431 50.7313 31.6679C50.7313 31.0357 50.2395 30.5231 49.6327 30.5231C49.0258 30.5231 48.5341 31.0357 48.5341 31.6679C48.5341 33.2939 49.5534 34.6757 50.9608 35.158V35.4612C50.9608 36.0934 51.4526 36.606 52.0594 36.606C52.6662 36.606 53.158 36.0934 53.158 35.4612V35.158C54.5654 34.6757 55.5846 33.2939 55.5846 31.6679C55.5846 29.6423 54.0032 27.9942 52.0594 27.9942C51.327 27.9942 50.7313 27.3734 50.7313 26.6102C50.7313 25.8471 51.327 25.2263 52.0594 25.2263Z" fill="#FF0178"/>
<path d="M45.1061 50.5516C45.713 50.5516 46.2047 50.039 46.2047 49.4068C46.2047 48.7745 45.713 48.2619 45.1061 48.2619H41.2006C40.5938 48.2619 40.102 48.7745 40.102 49.4068V59.4479C40.102 60.0802 40.5938 60.5928 41.2006 60.5928C41.8074 60.5928 42.2992 60.0802 42.2992 59.4479V55.477H44.7959C45.4027 55.477 45.8945 54.9644 45.8945 54.3322C45.8945 53.6999 45.4027 53.1873 44.7959 53.1873H42.2992V50.5514H45.1061V50.5516Z" fill="#FF0178"/>
<path d="M54.012 50.5608C54.6189 50.5608 55.1106 50.0482 55.1106 49.4159C55.1106 48.7837 54.6189 48.2711 54.012 48.2711H49.9593C49.3526 48.2711 48.8607 48.7837 48.8607 49.4159V59.4389C48.8607 60.0712 49.3526 60.5838 49.9593 60.5838H54.012C54.6189 60.5838 55.1106 60.0712 55.1106 59.4389C55.1106 58.8067 54.6189 58.2941 54.012 58.2941H51.0579V55.5723H53.7132C54.3201 55.5723 54.8118 55.0597 54.8118 54.4274C54.8118 53.7952 54.3201 53.2826 53.7132 53.2826H51.0579V50.5608H54.012Z" fill="#FF0178"/>
<path d="M62.9182 50.5608C63.5251 50.5608 64.0168 50.0482 64.0168 49.4159C64.0168 48.7837 63.5251 48.2711 62.9182 48.2711H58.8655C58.2587 48.2711 57.7669 48.7837 57.7669 49.4159V59.4389C57.7669 60.0712 58.2587 60.5838 58.8655 60.5838H62.9182C63.5251 60.5838 64.0168 60.0712 64.0168 59.4389C64.0168 58.8067 63.5251 58.2941 62.9182 58.2941H59.9641V55.5723H62.6194C63.2263 55.5723 63.718 55.0597 63.718 54.4274C63.718 53.7952 63.2263 53.2826 62.6194 53.2826H59.9641V50.5608H62.9182Z" fill="#FF0178"/>
<path d="M7.40448 25.2263C8.01121 25.2263 8.50309 24.7137 8.50309 24.0815V17.6575L13.0516 24.5212C13.379 25.0141 13.9233 25.2242 14.4382 25.0567C14.9648 24.8853 15.3049 24.3686 15.3049 23.7295L15.2143 13.9549C15.2086 13.3265 14.7177 12.8212 14.116 12.8212C14.1124 12.8212 14.1088 12.8212 14.1051 12.8212C13.4984 12.8273 13.0113 13.3448 13.0172 13.9771L13.078 20.5315L8.30842 13.3343C8.03523 12.922 7.53646 12.7431 7.07753 12.8919C6.61846 13.041 6.30587 13.4839 6.30587 13.9848V24.0815C6.30587 24.7137 6.79776 25.2263 7.40448 25.2263Z" fill="#FF0178"/>
<path d="M23.9132 25.2263C27.1953 25.2263 29.8653 22.4439 29.8653 19.0238C29.8653 15.6038 27.1953 12.8214 23.9132 12.8214C20.6313 12.8214 17.9612 15.6038 17.9612 19.0238C17.9612 22.4439 20.6313 25.2263 23.9132 25.2263ZM23.9132 15.1111C25.9837 15.1111 27.6681 16.8663 27.6681 19.0238C27.6681 21.1813 25.9837 22.9366 23.9132 22.9366C21.8428 22.9366 20.1585 21.1813 20.1585 19.0238C20.1585 16.8663 21.8428 15.1111 23.9132 15.1111Z" fill="#FF0178"/>
<path d="M74.6767 23.272L60.1165 8.09898C59.9104 7.88421 59.6309 7.76362 59.3395 7.76362H32.6458C32.6244 7.76362 32.6026 7.7653 32.5811 7.76576C29.2804 3.16257 24.0114 0.177124 18.0856 0.177124C14.198 0.177124 10.4933 1.44317 7.37196 3.83849C6.88345 4.21338 6.779 4.93006 7.13876 5.43913C7.49867 5.94835 8.1864 6.05689 8.67476 5.68214C11.4159 3.57868 14.6701 2.46681 18.0856 2.46681C26.8465 2.46681 33.9738 9.89425 33.9738 19.0238C33.9738 28.1534 26.8463 35.5807 18.0856 35.5807C9.32485 35.5807 2.19722 28.1533 2.19722 19.0238C2.19722 15.4648 3.26419 12.0736 5.2827 9.21696C5.64246 8.70788 5.53816 7.99121 5.0495 7.61632C4.56099 7.24126 3.87311 7.3501 3.5135 7.85933C1.21492 11.1121 0 14.9726 0 19.0238C0 29.416 8.11316 37.8704 18.0856 37.8704C22.2366 37.8704 26.0647 36.4045 29.1205 33.9448V39.0943C29.1205 39.7266 29.6124 40.2392 30.2191 40.2392C30.8258 40.2392 31.3177 39.7266 31.3177 39.0943V31.8566C34.3268 28.4894 36.1711 23.9772 36.1711 19.0238C36.1711 15.7786 35.3798 12.7223 33.9877 10.0533H58.2408V19.9116C56.4878 18.6326 54.357 17.879 52.0594 17.879C46.1012 17.879 41.2538 22.9303 41.2538 29.1392C41.2538 35.3481 46.1012 40.3994 52.0594 40.3994C58.0176 40.3994 62.8649 35.3481 62.8649 29.1392C62.8649 27.7639 62.6261 26.4458 62.1911 25.2264H72.8012V65.9268H31.3177V44.4319C31.3177 43.7996 30.8258 43.287 30.2191 43.287C29.6124 43.287 29.1205 43.7996 29.1205 44.4319V76.5115C29.1205 77.1681 29.4656 77.7683 30.0212 78.0782C30.5769 78.3881 31.2477 78.3543 31.7716 77.99L36.7625 74.5228C37.2102 74.212 37.7885 74.212 38.236 74.5228L42.817 77.7055C44.011 78.5349 45.5516 78.5311 46.7417 77.6958L51.2574 74.5266C51.7038 74.2134 52.2821 74.2108 52.731 74.5194L57.3912 77.7244C57.9817 78.1304 58.6574 78.3334 59.3331 78.3334C60.0141 78.3333 60.6952 78.1271 61.2885 77.7149L65.8832 74.5228C66.3307 74.212 66.9091 74.212 67.3566 74.5228L72.3474 77.9901C72.8719 78.3543 73.5425 78.3879 74.0981 78.0782C74.6536 77.7683 74.9985 77.1681 74.9985 76.5115V24.0815C74.9984 23.7778 74.8827 23.4866 74.6767 23.272ZM52.0594 38.1096C47.3128 38.1096 43.451 34.0854 43.451 29.1391C43.451 24.1927 47.3127 20.1685 52.0594 20.1685C56.806 20.1685 60.6677 24.1927 60.6677 29.1391C60.6677 34.0854 56.8061 38.1096 52.0594 38.1096ZM61.7663 22.9366C61.0339 22.9366 60.4382 22.3158 60.4382 21.5526V11.6724L71.2476 22.9366H61.7663ZM68.575 72.6176C67.3872 71.7924 65.852 71.7924 64.6641 72.6176L60.0695 75.8097C59.6239 76.119 59.0476 76.1204 58.6013 75.8133L53.9414 72.6083C52.7496 71.7886 51.2145 71.7961 50.0302 72.6272L45.5145 75.7965C45.066 76.1112 44.4856 76.1124 44.0359 75.8001L39.4549 72.6175C38.267 71.7923 36.7318 71.7923 35.544 72.6175L31.3178 75.5533V68.2162H72.8013V75.5533L68.575 72.6176Z" fill="#FF0178"/>
</svg>
