<svg width="330" height="86" viewBox="0 0 330 86" fill="none" xmlns="http://www.w3.org/2000/svg">
<path d="M328.728 18.5872C329.007 20.6207 328.314 22.8528 326.527 25.2903C324.737 27.7318 321.903 30.3002 318.075 32.9457C310.422 38.2343 298.982 43.7022 284.567 49.0202C255.752 59.6506 215.249 69.609 169.897 76.3593C124.545 83.1095 82.987 85.3648 52.4683 83.5657C37.2006 82.6657 24.7497 80.7537 15.9817 77.9092C11.5957 76.4864 8.18564 74.8472 5.81133 73.0256C3.44086 71.2069 2.1757 69.2663 1.89698 67.2327C1.61827 65.1992 2.31151 62.9671 4.09863 60.5296C5.88863 58.0882 8.72195 55.5197 12.5504 52.8742C20.2037 47.5856 31.643 42.1178 46.0585 36.7997C74.8736 26.1694 115.376 16.2109 160.728 9.4607C206.08 2.71049 247.638 0.455116 278.157 2.25421C293.425 3.15426 305.875 5.06626 314.644 7.91071C319.03 9.3336 322.44 10.9728 324.814 12.7944C327.184 14.6131 328.45 16.5537 328.728 18.5872Z" stroke="#B54ACC" stroke-width="2"/>
</svg>
