<svg width="75" height="76" viewBox="0 0 75 76" fill="none" xmlns="http://www.w3.org/2000/svg">
<path d="M70 0.673828H5C2.23858 0.673828 0 2.9124 0 5.67383V60.6738C0 63.4353 2.23858 65.6738 5 65.6738H30V66.9238C29.9959 70.3739 27.2001 73.1697 23.75 73.1738H21.25C20.5596 73.1738 20 73.7335 20 74.4238C20 75.1142 20.5596 75.6738 21.25 75.6738H53.75C54.4404 75.6738 55 75.1142 55 74.4238C55 73.7335 54.4404 73.1738 53.75 73.1738H51.25C47.7999 73.1697 45.0041 70.3739 45 66.9238V65.6738H70C72.7614 65.6738 75 63.4353 75 60.6738V5.67383C75 2.9124 72.7614 0.673828 70 0.673828ZM5 3.17383H70C71.3807 3.17383 72.5 4.29312 72.5 5.67383V53.1738H2.5V5.67383C2.5 4.29312 3.61929 3.17383 5 3.17383ZM45.125 73.1738H29.875C31.5566 71.5295 32.5032 69.2758 32.5 66.9238V65.6738H42.5V66.9238C42.4968 69.2758 43.4434 71.5295 45.125 73.1738ZM70 63.1738H5C3.61929 63.1738 2.5 62.0545 2.5 60.6738V55.6738H72.5V60.6738C72.5 62.0545 71.3807 63.1738 70 63.1738Z" fill="#FF0178"/>
<path d="M12.5 49.4238C15.2614 49.4238 17.5 47.1852 17.5 44.4238C17.4947 43.5605 17.2632 42.7136 16.8287 41.9676L22.1762 37.2988C23.8764 38.4705 26.1236 38.4705 27.8237 37.2988L33.1712 41.9713C32.7374 42.7163 32.506 43.5618 32.5 44.4238C32.5 47.1852 34.7386 49.4238 37.5 49.4238C40.2614 49.4238 42.5 47.1852 42.5 44.4238C42.4956 43.5341 42.2508 42.662 41.7912 41.9001L47.4762 36.2151C48.2382 36.6746 49.1102 36.9195 50 36.9238C52.7614 36.9238 55 34.6853 55 31.9238C54.9951 30.7526 54.5752 29.621 53.815 28.7301L60.7137 19.0801C63.0957 20.0198 65.8046 19.0389 67.0326 16.792C68.2606 14.5451 67.6235 11.7354 65.5464 10.238C63.4692 8.74065 60.6022 9.02421 58.8586 10.8995C57.1151 12.7747 57.0406 15.6548 58.685 17.6176L51.7863 27.2676C49.8064 26.4885 47.5503 27.0568 46.1757 28.6807C44.8012 30.3046 44.6134 32.6236 45.7088 34.4476L40.0238 40.1326C38.4505 39.1751 36.4713 39.1886 34.9113 40.1676L29.4537 35.3988C29.8077 34.7102 29.9948 33.9481 30 33.1738C30 30.4124 27.7614 28.1738 25 28.1738C22.2386 28.1738 20 30.4124 20 33.1738C20.0052 33.9481 20.1923 34.7102 20.5462 35.3988L15.0887 40.1738C14.3119 39.6891 13.4157 39.4294 12.5 39.4238C9.73857 39.4238 7.5 41.6624 7.5 44.4238C7.5 47.1852 9.73857 49.4238 12.5 49.4238ZM62.5 11.9238C63.8807 11.9238 65 13.0431 65 14.4238C65 15.8045 63.8807 16.9238 62.5 16.9238C61.1193 16.9238 60 15.8045 60 14.4238C60 13.0431 61.1193 11.9238 62.5 11.9238ZM50 29.4238C51.3807 29.4238 52.5 30.5431 52.5 31.9238C52.5 33.3045 51.3807 34.4238 50 34.4238C48.6193 34.4238 47.5 33.3045 47.5 31.9238C47.5 30.5431 48.6193 29.4238 50 29.4238ZM37.5 41.9238C38.8807 41.9238 40 43.0431 40 44.4238C40 45.8045 38.8807 46.9238 37.5 46.9238C36.1193 46.9238 35 45.8045 35 44.4238C35 43.0431 36.1193 41.9238 37.5 41.9238ZM25 30.6738C26.3807 30.6738 27.5 31.7931 27.5 33.1738C27.5 34.5545 26.3807 35.6738 25 35.6738C23.6193 35.6738 22.5 34.5545 22.5 33.1738C22.5 31.7931 23.6193 30.6738 25 30.6738ZM12.5 41.9238C13.8807 41.9238 15 43.0431 15 44.4238C15 45.8045 13.8807 46.9238 12.5 46.9238C11.1193 46.9238 10 45.8045 10 44.4238C10 43.0431 11.1193 41.9238 12.5 41.9238Z" fill="#FF0178"/>
<path d="M41.25 58.1738H33.75C33.0596 58.1738 32.5 58.7335 32.5 59.4238C32.5 60.1142 33.0596 60.6738 33.75 60.6738H41.25C41.9404 60.6738 42.5 60.1142 42.5 59.4238C42.5 58.7335 41.9404 58.1738 41.25 58.1738Z" fill="#FF0178"/>
<path d="M33.75 24.4238C33.75 23.7335 33.1904 23.1738 32.5 23.1738C31.8096 23.1738 31.25 23.7335 31.25 24.4238C31.2537 27.3927 33.342 29.9508 36.25 30.5488V30.6738C36.25 31.3642 36.8096 31.9238 37.5 31.9238C38.1904 31.9238 38.75 31.3642 38.75 30.6738V30.5488C41.6629 29.9573 43.7563 27.3962 43.7563 24.4238C43.7563 21.4515 41.6629 18.8903 38.75 18.2988V10.9038C40.2429 11.4316 41.2434 12.8403 41.25 14.4238C41.25 15.1142 41.8096 15.6738 42.5 15.6738C43.1904 15.6738 43.75 15.1142 43.75 14.4238C43.7463 11.455 41.658 8.89687 38.75 8.29883V8.17383C38.75 7.48347 38.1904 6.92383 37.5 6.92383C36.8096 6.92383 36.25 7.48347 36.25 8.17383V8.29883C33.3371 8.89032 31.2437 11.4515 31.2437 14.4238C31.2437 17.3962 33.3371 19.9573 36.25 20.5488V27.9451C34.7566 27.4171 33.756 26.0078 33.75 24.4238ZM41.25 24.4238C41.2434 26.0073 40.2429 27.416 38.75 27.9438V20.9038C40.2429 21.4316 41.2434 22.8403 41.25 24.4238ZM33.75 14.4238C33.7566 12.8403 34.7571 11.4316 36.25 10.9038V17.9438C34.7571 17.416 33.7566 16.0073 33.75 14.4238Z" fill="#FF0178"/>
</svg>
