<svg width="75" height="75" viewBox="0 0 75 75" fill="none" xmlns="http://www.w3.org/2000/svg">
<path fill-rule="evenodd" clip-rule="evenodd" d="M37.5 74.5C57.9345 74.5 74.5 57.9345 74.5 37.5C74.5 17.0655 57.9345 0.5 37.5 0.5C17.0655 0.5 0.5 17.0655 0.5 37.5C0.5 57.9345 17.0655 74.5 37.5 74.5ZM37.5 75C58.2107 75 75 58.2107 75 37.5C75 16.7893 58.2107 0 37.5 0C16.7893 0 0 16.7893 0 37.5C0 58.2107 16.7893 75 37.5 75Z" fill="white"/>
<path d="M10.7789 44.8519C10.558 44.8519 10.3739 44.7856 10.2266 44.653C10.0793 44.5057 10.0056 44.329 10.0056 44.1227C10.0056 43.9018 10.0793 43.725 10.2266 43.5925C10.3739 43.4452 10.558 43.3715 10.7789 43.3715H15.7503C15.9565 43.3715 16.1333 43.4452 16.2806 43.5925C16.4279 43.725 16.5015 43.9018 16.5015 44.1227C16.5015 44.329 16.4279 44.5057 16.2806 44.653C16.1333 44.7856 15.9565 44.8519 15.7503 44.8519H10.7789Z" fill="white"/>
<path d="M24.8938 50.1989C24.0542 50.1989 23.2146 50.0737 22.375 49.8232C21.5501 49.5728 20.7989 49.1825 20.1213 48.6522C19.9445 48.5344 19.8267 48.3944 19.7678 48.2324C19.7089 48.0704 19.7015 47.9083 19.7457 47.7463C19.7899 47.5843 19.8709 47.4517 19.9887 47.3486C20.1066 47.2308 20.2465 47.1645 20.4085 47.1497C20.5853 47.135 20.7694 47.1939 20.9609 47.3265C21.5648 47.7537 22.1909 48.0704 22.839 48.2766C23.4871 48.4828 24.1647 48.5859 24.8717 48.5859C25.5935 48.5859 26.2121 48.4534 26.7277 48.1882C27.258 47.9083 27.6557 47.5254 27.9208 47.0393C28.2007 46.5385 28.3406 45.9566 28.3406 45.2938C28.3406 44.2774 28.046 43.4452 27.4568 42.797C26.8676 42.1489 26.0575 41.8249 25.0264 41.8249C24.393 41.8249 23.8111 41.9427 23.2809 42.1784C22.7506 42.4141 22.2645 42.7897 21.8226 43.3052C21.7195 43.4231 21.5943 43.5262 21.447 43.6146C21.3144 43.6882 21.1598 43.725 20.983 43.725C20.7326 43.725 20.5337 43.6587 20.3864 43.5262C20.2539 43.3789 20.1876 43.1874 20.1876 42.9517V35.2627C20.1876 34.9828 20.2612 34.7766 20.4085 34.644C20.5558 34.4967 20.762 34.4231 21.0272 34.4231H28.5395C28.8193 34.4231 29.0256 34.4893 29.1581 34.6219C29.3054 34.7545 29.3791 34.946 29.3791 35.1964C29.3791 35.4468 29.3054 35.6383 29.1581 35.7709C29.0256 35.9034 28.8193 35.9697 28.5395 35.9697H21.9773V42.1784H21.4912C21.8742 41.5597 22.4044 41.0884 23.082 40.7643C23.7596 40.4255 24.5182 40.2561 25.3578 40.2561C26.3447 40.2561 27.1917 40.4623 27.8987 40.8748C28.6205 41.2872 29.1729 41.8691 29.5558 42.6203C29.9535 43.3568 30.1524 44.2185 30.1524 45.2054C30.1524 46.1776 29.9388 47.0393 29.5116 47.7905C29.0845 48.5417 28.4805 49.1309 27.6999 49.5581C26.9192 49.9853 25.9838 50.1989 24.8938 50.1989Z" fill="white"/>
<path d="M37.8107 50.1989C36.0284 50.1989 34.6732 49.5139 33.7452 48.144C32.8173 46.7741 32.3533 44.793 32.3533 42.2005C32.3533 40.4623 32.5595 39.0041 32.9719 37.8257C33.3844 36.6326 33.9957 35.734 34.8058 35.1301C35.6307 34.5262 36.6323 34.2242 37.8107 34.2242C39.6078 34.2242 40.9629 34.9018 41.8762 36.2569C42.8042 37.5974 43.2682 39.5712 43.2682 42.1784C43.2682 43.9165 43.0619 45.3822 42.6495 46.5753C42.2371 47.7684 41.6258 48.6743 40.8156 49.293C40.0055 49.8969 39.0038 50.1989 37.8107 50.1989ZM37.8107 48.6301C39.048 48.6301 39.9613 48.1072 40.5505 47.0614C41.1544 46.0008 41.4564 44.3732 41.4564 42.1784C41.4564 39.9689 41.1544 38.356 40.5505 37.3396C39.9613 36.3085 39.048 35.7929 37.8107 35.7929C36.5881 35.7929 35.6749 36.3085 35.0709 37.3396C34.467 38.3707 34.165 39.9836 34.165 42.1784C34.165 44.3732 34.467 46.0008 35.0709 47.0614C35.6749 48.1072 36.5881 48.6301 37.8107 48.6301Z" fill="white"/>
<path d="M36.0128 66.9976C35.171 66.9976 34.4362 66.8193 33.8085 66.4626C33.1807 66.1059 32.6956 65.5994 32.3532 64.9431C32.025 64.2726 31.861 63.4736 31.861 62.5462C31.861 61.7187 31.968 60.934 32.182 60.1921C32.4103 59.4359 32.7455 58.7654 33.1878 58.1804C33.6301 57.5954 34.1723 57.1389 34.8143 56.8107C35.4563 56.4683 36.1983 56.2971 37.04 56.2971C37.8961 56.2971 38.6308 56.4755 39.2443 56.8321C39.8721 57.1888 40.3501 57.7024 40.6782 58.373C41.0206 59.0293 41.1918 59.8212 41.1918 60.7485C41.1918 61.576 41.0777 62.3679 40.8494 63.1241C40.6354 63.866 40.3073 64.5294 39.865 65.1143C39.4227 65.6993 38.8805 66.163 38.2385 66.5054C37.5965 66.8336 36.8545 66.9976 36.0128 66.9976ZM36.0556 66.163C36.9687 66.163 37.7391 65.9133 38.3669 65.414C38.9947 64.9146 39.4655 64.2512 39.7794 63.4237C40.1075 62.5962 40.2716 61.6902 40.2716 60.7057C40.2716 59.5215 39.9791 58.6298 39.3941 58.0306C38.8234 57.4314 38.0245 57.1318 36.9972 57.1318C36.0841 57.1318 35.3137 57.3814 34.6859 57.8808C34.0581 58.3801 33.5802 59.0436 33.252 59.8711C32.9382 60.6843 32.7812 61.5903 32.7812 62.589C32.7812 63.7589 33.0666 64.6507 33.6373 65.2642C34.2222 65.8634 35.0283 66.163 36.0556 66.163Z" fill="white"/>
<path d="M44.0425 66.9548C43.8998 66.9548 43.7928 66.912 43.7215 66.8264C43.6644 66.7266 43.6502 66.591 43.6787 66.4198L45.134 57.2388H43.5289C43.4005 57.2388 43.3006 57.2174 43.2293 57.1746C43.1722 57.1175 43.1437 57.039 43.1437 56.9391C43.1437 56.7822 43.1865 56.6681 43.2721 56.5967C43.372 56.5111 43.5004 56.4683 43.6573 56.4683H45.4336L45.2196 56.6823L45.4122 55.4197C45.5834 54.3068 46.0114 53.4365 46.6963 52.8087C47.3811 52.1667 48.2799 51.81 49.3928 51.7387L50.0134 51.6959C50.1418 51.6816 50.2417 51.703 50.313 51.7601C50.3844 51.8029 50.4343 51.8671 50.4628 51.9527C50.4914 52.024 50.4985 52.1025 50.4842 52.1881C50.47 52.2737 50.4272 52.3451 50.3558 52.4021C50.2988 52.4592 50.2203 52.4949 50.1204 52.5091L49.4356 52.5519C48.5225 52.609 47.8091 52.8872 47.2955 53.3866C46.7819 53.8717 46.4466 54.585 46.2896 55.5267L46.1184 56.6181L46.0114 56.4683H48.8578C49.0004 56.4683 49.1003 56.4897 49.1574 56.5325C49.2144 56.5753 49.243 56.6467 49.243 56.7465C49.243 56.9177 49.193 57.0462 49.0932 57.1318C49.0076 57.2031 48.8863 57.2388 48.7294 57.2388H46.0328L44.5561 66.5054C44.5133 66.805 44.3421 66.9548 44.0425 66.9548Z" fill="white"/>
<path d="M50.3751 66.9548C50.2324 66.9548 50.1254 66.912 50.054 66.8264C49.997 66.7266 49.9827 66.591 50.0112 66.4198L51.4665 57.2388H49.8614C49.733 57.2388 49.6332 57.2174 49.5618 57.1746C49.5047 57.1175 49.4762 57.039 49.4762 56.9391C49.4762 56.7822 49.519 56.6681 49.6046 56.5967C49.7045 56.5111 49.8329 56.4683 49.9898 56.4683H51.7661L51.5521 56.6823L51.7447 55.4197C51.9159 54.3068 52.344 53.4365 53.0288 52.8087C53.7136 52.1667 54.6125 51.81 55.7253 51.7387L56.346 51.6959C56.4744 51.6816 56.5742 51.703 56.6456 51.7601C56.7169 51.8029 56.7668 51.8671 56.7954 51.9527C56.8239 52.024 56.831 52.1025 56.8168 52.1881C56.8025 52.2737 56.7597 52.3451 56.6884 52.4021C56.6313 52.4592 56.5528 52.4949 56.453 52.5091L55.7681 52.5519C54.855 52.609 54.1416 52.8872 53.628 53.3866C53.1144 53.8717 52.7791 54.585 52.6222 55.5267L52.451 56.6181L52.344 56.4683H55.1903C55.333 56.4683 55.4328 56.4897 55.4899 56.5325C55.547 56.5753 55.5755 56.6467 55.5755 56.7465C55.5755 56.9177 55.5256 57.0462 55.4257 57.1318C55.3401 57.2031 55.2188 57.2388 55.0619 57.2388H52.3654L50.8887 66.5054C50.8459 66.805 50.6747 66.9548 50.3751 66.9548Z" fill="white"/>
<path d="M30.8983 19.5796C30.3213 19.5796 29.814 19.4702 29.3763 19.2513C28.9453 19.0258 28.6104 18.6843 28.3716 18.2267C28.1329 17.7692 28.0135 17.1823 28.0135 16.4661C28.0135 15.8891 28.0931 15.3553 28.2523 14.8645C28.4181 14.3672 28.6535 13.9361 28.9585 13.5714C29.2636 13.2066 29.6283 12.9215 30.0528 12.7159C30.4838 12.5103 30.9646 12.4075 31.4951 12.4075C31.9394 12.4075 32.3473 12.4805 32.7187 12.6264C33.09 12.7723 33.4083 12.9778 33.6736 13.2431C33.7134 13.2829 33.7366 13.3293 33.7432 13.3824C33.7565 13.4288 33.7532 13.4719 33.7333 13.5117C33.7134 13.5515 33.6835 13.5846 33.6438 13.6112C33.6106 13.6311 33.5708 13.6377 33.5244 13.6311C33.478 13.6244 33.4315 13.5979 33.3851 13.5515C33.1265 13.2928 32.8413 13.1072 32.5296 12.9944C32.218 12.8751 31.8632 12.8154 31.4653 12.8154C30.8552 12.8154 30.3246 12.9745 29.8737 13.2928C29.4228 13.6045 29.0746 14.0356 28.8292 14.586C28.5839 15.1364 28.4612 15.7664 28.4612 16.476C28.4612 17.1193 28.5606 17.6398 28.7596 18.0377C28.9652 18.4356 29.2503 18.7241 29.6151 18.9032C29.9864 19.0822 30.4241 19.1717 30.9281 19.1717C31.2862 19.1717 31.6145 19.1154 31.9129 19.0026C32.218 18.8899 32.5131 18.7009 32.7982 18.4356C32.8446 18.3892 32.8911 18.366 32.9375 18.366C32.9839 18.3594 33.0237 18.3693 33.0569 18.3958C33.0966 18.4157 33.1232 18.4456 33.1364 18.4854C33.1563 18.5252 33.1596 18.5716 33.1464 18.6246C33.1398 18.6711 33.1132 18.7142 33.0668 18.7539C32.7485 19.0391 32.4136 19.248 32.0621 19.3806C31.7173 19.5133 31.3293 19.5796 30.8983 19.5796Z" fill="white"/>
<path d="M34.6384 19.5C34.5655 19.5 34.5124 19.4801 34.4793 19.4403C34.4461 19.3939 34.4328 19.3342 34.4395 19.2613L35.4939 12.6264C35.5071 12.5534 35.5304 12.5037 35.5635 12.4772C35.6033 12.444 35.6564 12.4274 35.7227 12.4274C35.7956 12.4274 35.8454 12.4506 35.8719 12.4971C35.905 12.5368 35.915 12.5932 35.9017 12.6662L34.8871 19.1121H38.4383C38.5046 19.1121 38.5544 19.1253 38.5875 19.1518C38.6273 19.1717 38.6472 19.2082 38.6472 19.2613C38.6472 19.3475 38.624 19.4105 38.5776 19.4503C38.5311 19.4834 38.4781 19.5 38.4184 19.5H34.6384Z" fill="white"/>
<path d="M39.8543 19.5597C39.7879 19.5597 39.7382 19.5398 39.705 19.5C39.6719 19.4536 39.6619 19.3873 39.6752 19.3011L40.7296 12.6463C40.7429 12.5733 40.7661 12.5203 40.7993 12.4871C40.839 12.4473 40.8921 12.4274 40.9584 12.4274C41.0247 12.4274 41.0745 12.4506 41.1076 12.4971C41.1408 12.5368 41.1507 12.5998 41.1375 12.6861L40.083 19.3408C40.0764 19.4072 40.0532 19.4602 40.0134 19.5C39.9803 19.5398 39.9272 19.5597 39.8543 19.5597Z" fill="white"/>
<path d="M45.1102 19.5796C44.5332 19.5796 44.0259 19.4702 43.5882 19.2513C43.1572 19.0258 42.8223 18.6843 42.5836 18.2267C42.3448 17.7692 42.2255 17.1823 42.2255 16.4661C42.2255 15.8891 42.305 15.3553 42.4642 14.8645C42.63 14.3672 42.8654 13.9361 43.1705 13.5714C43.4755 13.2066 43.8402 12.9215 44.2647 12.7159C44.6957 12.5103 45.1765 12.4075 45.707 12.4075C46.1514 12.4075 46.5592 12.4805 46.9306 12.6264C47.3019 12.7723 47.6202 12.9778 47.8855 13.2431C47.9253 13.2829 47.9485 13.3293 47.9551 13.3824C47.9684 13.4288 47.9651 13.4719 47.9452 13.5117C47.9253 13.5515 47.8955 13.5846 47.8557 13.6112C47.8225 13.6311 47.7827 13.6377 47.7363 13.6311C47.6899 13.6244 47.6435 13.5979 47.597 13.5515C47.3384 13.2928 47.0532 13.1072 46.7416 12.9944C46.4299 12.8751 46.0751 12.8154 45.6772 12.8154C45.0671 12.8154 44.5366 12.9745 44.0856 13.2928C43.6347 13.6045 43.2865 14.0356 43.0411 14.586C42.7958 15.1364 42.6731 15.7664 42.6731 16.476C42.6731 17.1193 42.7726 17.6398 42.9715 18.0377C43.1771 18.4356 43.4622 18.7241 43.827 18.9032C44.1984 19.0822 44.636 19.1717 45.14 19.1717C45.4981 19.1717 45.8264 19.1154 46.1248 19.0026C46.4299 18.8899 46.725 18.7009 47.0101 18.4356C47.0566 18.3892 47.103 18.366 47.1494 18.366C47.1958 18.3594 47.2356 18.3693 47.2688 18.3958C47.3086 18.4157 47.3351 18.4456 47.3484 18.4854C47.3682 18.5252 47.3716 18.5716 47.3583 18.6246C47.3517 18.6711 47.3251 18.7142 47.2787 18.7539C46.9604 19.0391 46.6255 19.248 46.274 19.3806C45.9292 19.5133 45.5412 19.5796 45.1102 19.5796Z" fill="white"/>
<path d="M48.8304 19.5597C48.7641 19.5597 48.7144 19.5398 48.6812 19.5C48.6481 19.4536 48.6381 19.3906 48.6514 19.311L49.7058 12.6363C49.7191 12.5634 49.7423 12.5103 49.7754 12.4772C49.8152 12.444 49.8683 12.4274 49.9346 12.4274C50.0009 12.4274 50.0506 12.4506 50.0838 12.4971C50.117 12.5368 50.1269 12.5965 50.1136 12.6761L49.6262 15.7498H49.6461L53.7842 12.5269C53.8373 12.4871 53.8771 12.4606 53.9036 12.4473C53.9367 12.4341 53.9765 12.4274 54.023 12.4274C54.0826 12.4274 54.1291 12.4473 54.1622 12.4871C54.1954 12.5203 54.2086 12.5601 54.202 12.6065C54.202 12.6529 54.1788 12.696 54.1324 12.7358L49.8053 16.1278L49.855 15.8294L53.3067 19.2414C53.3532 19.2812 53.3764 19.3276 53.3764 19.3806C53.3764 19.4271 53.3598 19.4668 53.3266 19.5C53.2935 19.5398 53.2437 19.5597 53.1774 19.5597C53.131 19.5597 53.0879 19.5497 53.0481 19.5298C53.015 19.5099 52.9785 19.4801 52.9387 19.4403L49.5864 16.1378H49.5665L49.0592 19.3508C49.0526 19.4171 49.0294 19.4668 48.9896 19.5C48.9564 19.5398 48.9034 19.5597 48.8304 19.5597Z" fill="white"/>
<path d="M19.5844 27.5796C19.2594 27.5796 18.9909 27.5166 18.7787 27.3906C18.5664 27.2579 18.4172 27.0723 18.331 26.8335C18.2448 26.5948 18.2282 26.3096 18.2813 25.9781L18.7488 23.0436H17.9729C17.9066 23.0436 17.8535 23.0303 17.8138 23.0038C17.774 22.9773 17.7541 22.9408 17.7541 22.8944C17.7541 22.8214 17.7773 22.7684 17.8237 22.7352C17.8701 22.7021 17.9265 22.6855 17.9928 22.6855H18.7985L19.0174 21.3326C19.0307 21.2597 19.0572 21.2066 19.097 21.1735C19.1368 21.1403 19.1898 21.1237 19.2561 21.1237C19.3224 21.1237 19.3689 21.1469 19.3954 21.1934C19.4285 21.2332 19.4385 21.2928 19.4252 21.3724L19.2163 22.6855H20.609C20.6819 22.6855 20.735 22.6987 20.7681 22.7253C20.8079 22.7452 20.8278 22.7816 20.8278 22.8347C20.8278 22.901 20.8046 22.9541 20.7582 22.9938C20.7184 23.027 20.662 23.0436 20.5891 23.0436H19.1567L18.709 25.8885C18.6361 26.3527 18.6759 26.6876 18.8284 26.8932C18.9876 27.0922 19.2495 27.1916 19.6142 27.1916C19.7734 27.1916 19.8961 27.1784 19.9823 27.1518C20.0685 27.1187 20.1348 27.1021 20.1812 27.1021C20.221 27.1021 20.2509 27.1154 20.2708 27.1419C20.2973 27.1618 20.3106 27.1983 20.3106 27.2513C20.3106 27.311 20.3006 27.3607 20.2807 27.4005C20.2674 27.4337 20.2343 27.4602 20.1812 27.4801C20.1149 27.5066 20.0221 27.5298 19.9027 27.5497C19.79 27.5696 19.6839 27.5796 19.5844 27.5796Z" fill="white"/>
<path d="M22.9708 27.5796C22.5795 27.5796 22.238 27.4967 21.9462 27.3309C21.6544 27.1651 21.4289 26.9297 21.2698 26.6246C21.1172 26.3129 21.041 25.9416 21.041 25.5105C21.041 25.1259 21.0907 24.7612 21.1902 24.4163C21.2963 24.0648 21.4521 23.7532 21.6577 23.4813C21.8633 23.2094 22.1153 22.9972 22.4137 22.8446C22.7121 22.6855 23.057 22.6059 23.4482 22.6059C23.8461 22.6059 24.1877 22.6888 24.4728 22.8546C24.7646 23.0204 24.9868 23.2591 25.1393 23.5708C25.2985 23.8758 25.378 24.2439 25.378 24.6749C25.378 25.0596 25.325 25.4276 25.2189 25.7791C25.1194 26.1239 24.9669 26.4323 24.7613 26.7042C24.5557 26.9761 24.3037 27.1916 24.0053 27.3508C23.7069 27.5033 23.362 27.5796 22.9708 27.5796ZM22.9907 27.1916C23.4151 27.1916 23.7732 27.0756 24.065 26.8435C24.3568 26.6114 24.5756 26.303 24.7215 25.9184C24.874 25.5337 24.9503 25.1126 24.9503 24.6551C24.9503 24.1046 24.8144 23.6902 24.5425 23.4116C24.2772 23.1331 23.9058 22.9938 23.4284 22.9938C23.0039 22.9938 22.6458 23.1099 22.354 23.342C22.0622 23.5741 21.8401 23.8825 21.6876 24.2671C21.5417 24.6451 21.4687 25.0662 21.4687 25.5304C21.4687 26.0742 21.6014 26.4887 21.8666 26.7738C22.1385 27.0524 22.5132 27.1916 22.9907 27.1916Z" fill="white"/>
<path d="M30.7315 29.3701C30.3535 29.3701 30.0053 29.3104 29.687 29.1911C29.3753 29.0717 29.0869 28.9158 28.8216 28.7235C28.7818 28.697 28.7586 28.6638 28.752 28.6241C28.7453 28.5843 28.7487 28.5445 28.7619 28.5047C28.7818 28.4649 28.805 28.4317 28.8316 28.4052C28.8647 28.3787 28.9012 28.3621 28.941 28.3555C28.9874 28.3555 29.0338 28.3721 29.0802 28.4052C29.3322 28.5909 29.5809 28.7335 29.8263 28.8329C30.0783 28.9324 30.3734 28.9822 30.7116 28.9822C31.1626 28.9822 31.5306 28.8595 31.8158 28.6141C32.1009 28.3754 32.2833 28.004 32.3629 27.5L32.5718 26.177L32.6513 26.1869C32.4856 26.5517 32.2369 26.8435 31.9053 27.0623C31.5803 27.2812 31.1924 27.3906 30.7415 27.3906C30.3635 27.3906 30.0319 27.311 29.7467 27.1518C29.4616 26.9861 29.2394 26.7573 29.0802 26.4655C28.9211 26.1671 28.8415 25.8222 28.8415 25.4309C28.8415 25.0662 28.8912 24.7147 28.9907 24.3765C29.0968 24.0383 29.2527 23.7366 29.4582 23.4713C29.6638 23.2061 29.9158 22.9972 30.2142 22.8446C30.5127 22.6855 30.8608 22.6059 31.2587 22.6059C31.6699 22.6059 32.0346 22.712 32.3529 22.9242C32.6712 23.1298 32.8868 23.4547 32.9995 23.8991H32.9199L33.089 22.8347C33.1023 22.7617 33.1288 22.7087 33.1686 22.6755C33.2084 22.6424 33.2615 22.6258 33.3278 22.6258C33.3941 22.6258 33.4405 22.649 33.467 22.6954C33.5002 22.7352 33.5101 22.7949 33.4969 22.8745L32.7707 27.4801C32.6646 28.1234 32.4425 28.5975 32.1042 28.9026C31.7727 29.2143 31.3151 29.3701 30.7315 29.3701ZM30.8011 27.0026C31.2322 27.0026 31.5936 26.8899 31.8854 26.6644C32.1772 26.4323 32.396 26.1306 32.5419 25.7592C32.6945 25.3878 32.7707 24.9866 32.7707 24.5556C32.7707 24.0582 32.6348 23.6736 32.3629 23.4017C32.0976 23.1298 31.7229 22.9938 31.2388 22.9938C30.8144 22.9938 30.453 23.1099 30.1546 23.342C29.8628 23.5675 29.6406 23.8659 29.4881 24.2373C29.3422 24.602 29.2692 24.9999 29.2692 25.4309C29.2692 25.9349 29.4019 26.3229 29.6671 26.5948C29.939 26.8667 30.317 27.0026 30.8011 27.0026Z" fill="white"/>
<path d="M36.6036 27.5796C36.1725 27.5796 35.7978 27.4967 35.4795 27.3309C35.1678 27.1651 34.9291 26.9297 34.7633 26.6246C34.5975 26.3129 34.5146 25.9416 34.5146 25.5105C34.5146 24.9999 34.6108 24.5257 34.8031 24.0881C34.9954 23.6437 35.2772 23.2856 35.6486 23.0137C36.02 22.7418 36.4709 22.6059 37.0015 22.6059C37.3596 22.6059 37.658 22.6722 37.8967 22.8048C38.1421 22.9308 38.3344 23.1033 38.4737 23.3221C38.6196 23.5409 38.7124 23.7896 38.7522 24.0682C38.7986 24.3467 38.8019 24.6318 38.7621 24.9236C38.7489 25.0165 38.7257 25.0828 38.6925 25.1226C38.6594 25.1557 38.5997 25.1723 38.5135 25.1723H34.8031L34.8628 24.8043H38.5632L38.3742 24.9236C38.4272 24.5655 38.414 24.2406 38.3344 23.9488C38.2615 23.657 38.1156 23.4249 37.8967 23.2525C37.6845 23.0734 37.3828 22.9839 36.9915 22.9839C36.5737 22.9839 36.2256 23.0801 35.947 23.2724C35.6751 23.4581 35.4629 23.6968 35.3104 23.9886C35.1579 24.2737 35.0551 24.5688 35.002 24.8739L34.9722 25.0529C34.8661 25.6896 34.9556 26.2068 35.2408 26.6047C35.5326 26.996 35.9802 27.1916 36.5837 27.1916C36.8622 27.1916 37.1175 27.1585 37.3496 27.0922C37.5817 27.0192 37.8105 26.8998 38.036 26.7341C38.0957 26.6876 38.1487 26.6644 38.1951 26.6644C38.2416 26.6578 38.2813 26.6677 38.3145 26.6943C38.3477 26.7142 38.3676 26.744 38.3742 26.7838C38.3875 26.8236 38.3841 26.87 38.3642 26.9231C38.3443 26.9695 38.3079 27.0126 38.2548 27.0524C38.036 27.2182 37.7773 27.3475 37.4789 27.4403C37.1871 27.5332 36.8954 27.5796 36.6036 27.5796Z" fill="white"/>
<path d="M41.4123 27.5796C41.0873 27.5796 40.8187 27.5166 40.6065 27.3906C40.3943 27.2579 40.2451 27.0723 40.1589 26.8335C40.0727 26.5948 40.0561 26.3096 40.1092 25.9781L40.5767 23.0436H39.8008C39.7345 23.0436 39.6814 23.0303 39.6416 23.0038C39.6018 22.9773 39.5819 22.9408 39.5819 22.8944C39.5819 22.8214 39.6052 22.7684 39.6516 22.7352C39.698 22.7021 39.7544 22.6855 39.8207 22.6855H40.6264L40.8453 21.3326C40.8585 21.2597 40.885 21.2066 40.9248 21.1735C40.9646 21.1403 41.0177 21.1237 41.084 21.1237C41.1503 21.1237 41.1967 21.1469 41.2233 21.1934C41.2564 21.2332 41.2664 21.2928 41.2531 21.3724L41.0442 22.6855H42.4368C42.5098 22.6855 42.5628 22.6987 42.596 22.7253C42.6358 22.7452 42.6557 22.7816 42.6557 22.8347C42.6557 22.901 42.6325 22.9541 42.5861 22.9938C42.5463 23.027 42.4899 23.0436 42.4169 23.0436H40.9845L40.5369 25.8885C40.4639 26.3527 40.5037 26.6876 40.6563 26.8932C40.8154 27.0922 41.0774 27.1916 41.4421 27.1916C41.6013 27.1916 41.7239 27.1784 41.8102 27.1518C41.8964 27.1187 41.9627 27.1021 42.0091 27.1021C42.0489 27.1021 42.0787 27.1154 42.0986 27.1419C42.1252 27.1618 42.1384 27.1983 42.1384 27.2513C42.1384 27.311 42.1285 27.3607 42.1086 27.4005C42.0953 27.4337 42.0622 27.4602 42.0091 27.4801C41.9428 27.5066 41.8499 27.5298 41.7306 27.5497C41.6178 27.5696 41.5117 27.5796 41.4123 27.5796Z" fill="white"/>
<path d="M51.7064 46.0185C51.62 46.1789 51.5151 46.2838 51.3917 46.3332C51.2683 46.3949 51.1449 46.4072 51.0215 46.3702C50.8981 46.3455 50.7932 46.2838 50.7068 46.1851C50.6204 46.0987 50.5649 45.9877 50.5402 45.8519C50.5279 45.7162 50.5649 45.5681 50.6513 45.4076L57.7965 32.9683C57.8829 32.8079 57.9878 32.703 58.1112 32.6536C58.2346 32.5919 58.358 32.5796 58.4814 32.6166C58.6048 32.6413 58.7097 32.703 58.7961 32.8017C58.8825 32.9004 58.9318 33.0177 58.9442 33.1534C58.9689 33.2891 58.938 33.4311 58.8516 33.5791L51.7064 46.0185ZM50.3366 40.7799C49.3493 40.7799 48.578 40.4282 48.0227 39.7248C47.4674 39.0214 47.1897 38.0403 47.1897 36.7815C47.1897 35.9424 47.3131 35.2266 47.5599 34.6343C47.8191 34.0419 48.1831 33.5915 48.6521 33.283C49.121 32.9621 49.6825 32.8017 50.3366 32.8017C51.3115 32.8017 52.0766 33.1534 52.6319 33.8568C53.1996 34.5479 53.4834 35.5228 53.4834 36.7815C53.4834 37.6207 53.3539 38.3365 53.0947 38.9288C52.8479 39.5212 52.49 39.9778 52.0211 40.2986C51.5521 40.6195 50.9906 40.7799 50.3366 40.7799ZM50.3366 39.6878C50.7191 39.6878 51.0462 39.5767 51.3177 39.3546C51.6015 39.1324 51.8175 38.8054 51.9655 38.3735C52.1136 37.9416 52.1877 37.4109 52.1877 36.7815C52.1877 35.819 52.0211 35.097 51.6879 34.6158C51.3547 34.1345 50.9043 33.8938 50.3366 33.8938C49.954 33.8938 49.6208 34.0049 49.337 34.227C49.0655 34.4368 48.8557 34.7577 48.7076 35.1896C48.5595 35.6092 48.4855 36.1398 48.4855 36.7815C48.4855 37.7441 48.6459 38.4722 48.9668 38.9658C49.3 39.4471 49.7566 39.6878 50.3366 39.6878ZM59.1848 46.1666C58.2099 46.1666 57.4386 45.8149 56.871 45.1115C56.3156 44.4081 56.038 43.427 56.038 42.1682C56.038 41.3291 56.1614 40.6133 56.4082 40.021C56.6673 39.4286 57.0314 38.9782 57.5003 38.6697C57.9816 38.3488 58.5431 38.1884 59.1848 38.1884C60.1721 38.1884 60.9434 38.5401 61.4987 39.2435C62.054 39.9346 62.3317 40.9095 62.3317 42.1682C62.3317 43.0074 62.2083 43.7293 61.9615 44.334C61.7147 44.9264 61.3568 45.383 60.8878 45.7038C60.4189 46.0123 59.8512 46.1666 59.1848 46.1666ZM59.1848 45.0745C59.5797 45.0745 59.9129 44.9696 60.1844 44.7598C60.4559 44.5376 60.6657 44.2106 60.8138 43.7787C60.9619 43.3468 61.0359 42.8099 61.0359 42.1682C61.0359 41.2057 60.8693 40.4837 60.5361 40.0024C60.2153 39.5212 59.7648 39.2805 59.1848 39.2805C58.8023 39.2805 58.4691 39.3916 58.1852 39.6137C57.9137 39.8235 57.7039 40.1444 57.5559 40.5763C57.4201 40.9959 57.3522 41.5265 57.3522 42.1682C57.3522 43.1431 57.5127 43.8712 57.8335 44.3525C58.1667 44.8338 58.6172 45.0745 59.1848 45.0745Z" fill="white"/>
</svg>
