<svg width="443" height="375" viewBox="0 0 443 375" fill="none" xmlns="http://www.w3.org/2000/svg">
<path d="M415.122 134.454C422.396 161.307 407.459 191.584 377.124 218.857C346.814 246.109 301.244 270.246 247.596 284.78C193.947 299.313 142.425 301.479 102.503 293.253C62.5508 285.02 34.3731 266.423 27.0987 239.571C19.8244 212.719 34.7619 182.441 65.096 155.168C95.4063 127.916 140.976 103.779 194.625 89.2455C248.274 74.7119 299.795 72.5465 339.717 80.7725C379.67 89.0049 407.847 107.602 415.122 134.454Z" stroke="#9CE62E"/>
<path d="M341.62 74.8539C360.607 95.256 364.435 126.271 355.136 160.019C345.84 193.759 323.439 230.146 290.116 261.159C256.793 292.172 218.893 311.906 184.574 318.759C150.245 325.613 119.585 319.571 100.597 299.169C81.6093 278.767 77.7816 247.752 87.0806 214.004C96.3772 180.264 118.778 143.877 152.101 112.864C185.423 81.8515 223.323 62.1177 257.643 55.2647C291.971 48.4098 322.632 54.4518 341.62 74.8539Z" stroke="#9CE62E"/>
</svg>
