<svg width="55" height="55" viewBox="0 0 55 55" fill="none" xmlns="http://www.w3.org/2000/svg">
<rect x="0.5" y="0.5" width="54" height="54" rx="9.5" fill="url(#paint0_linear_55_2750)" stroke="#0D1B55"/>
<g filter="url(#filter0_b_55_2750)">
<path d="M44.0003 21.5422C44.0003 16.1664 40.7414 13 35.2264 13H20.7753C15.2589 13 12 16.1664 12 21.5422L12 33.2507C12 38.6265 15.2589 41.8054 20.7753 41.8054H35.2321C40.7471 41.8054 44.006 38.6265 44.006 33.2507C44.006 27.8749 44.0003 22.1361 44.0003 21.5422Z" fill="url(#paint1_linear_55_2750)"/>
<path d="M44.5003 21.5422C44.5003 18.7523 43.6523 16.4753 42.0302 14.8968C40.4098 13.3201 38.0782 12.5 35.2264 12.5H20.7753C17.9228 12.5 15.5909 13.3201 13.9703 14.8968C12.348 16.4753 11.5 18.7523 11.5 21.5422L11.5 33.2507C11.5 36.0406 12.3479 38.3205 13.97 39.902C15.5903 41.4818 17.9223 42.3054 20.7753 42.3054H35.2321C38.0844 42.3054 40.4161 41.4818 42.0362 39.902C43.658 38.3205 44.506 36.0406 44.506 33.2507C44.506 30.5627 44.5046 27.7839 44.5031 25.6029C44.5024 24.5061 44.5017 23.5607 44.5012 22.8539C44.5006 22.1551 44.5003 21.6897 44.5003 21.5422Z" stroke="#2B44AA" stroke-opacity="0.4" stroke-linecap="round" stroke-linejoin="round"/>
</g>
<g filter="url(#filter1_b_55_2750)">
<path d="M32.4562 28.1212C32.8881 30.0783 34.6106 31.4552 36.5772 31.4194H45.3976C46.2159 31.4194 46.8796 30.7444 46.8796 29.91L46.8796 24.7012C46.8778 23.8686 46.2159 23.1918 45.3976 23.19H36.4191C34.1822 23.1971 32.3754 25.0468 32.3789 27.3262C32.3789 27.593 32.4052 27.8598 32.4562 28.1212Z" fill="url(#paint2_linear_55_2750)"/>
<path d="M31.9654 28.2168L31.9652 28.2168L31.9679 28.2289C32.4495 30.4109 34.3729 31.9574 36.5816 31.9194H45.3976C46.5004 31.9194 47.3796 31.012 47.3796 29.91L47.3796 24.7012L47.3796 24.7002C47.3773 23.6018 46.5018 22.6924 45.3987 22.69H45.3976L36.4191 22.69L36.4175 22.69C33.8961 22.698 31.8752 24.7804 31.8789 27.3266C31.8789 27.626 31.9085 27.9247 31.9654 28.2168Z" stroke="#2B44AA" stroke-opacity="0.4" stroke-linecap="round" stroke-linejoin="round"/>
</g>
<circle cx="36.4941" cy="27.3044" r="1.7636" fill="url(#paint3_linear_55_2750)"/>
<circle cx="36.4941" cy="27.3044" r="1.6636" stroke="url(#paint4_linear_55_2750)" stroke-opacity="0.5" stroke-width="0.2"/>
<path d="M28.6217 21.5921H19.596C18.9204 21.5893 18.3741 21.0525 18.377 20.3937C18.3798 19.7377 18.9246 19.2065 19.596 19.2037H28.6274C29.3031 19.201 29.855 19.7336 29.8579 20.3924C29.8607 21.0525 29.3145 21.5893 28.6388 21.5921H28.6274H28.6217Z" fill="url(#paint5_linear_55_2750)"/>
<path d="M28.6274 19.3037L28.6278 19.3037C29.2508 19.3012 29.7553 19.7917 29.7579 20.3928C29.7605 20.9953 29.2613 21.4894 28.6386 21.4921H28.6274H28.6217H19.5963C18.9735 21.4894 18.4744 20.9953 18.477 20.3942C18.4796 19.7954 18.9775 19.3064 19.5962 19.3037L28.6274 19.3037Z" stroke="url(#paint6_linear_55_2750)" stroke-opacity="0.5" stroke-width="0.2"/>
<defs>
<filter id="filter0_b_55_2750" x="-13" y="-12" width="82.0059" height="78.8054" filterUnits="userSpaceOnUse" color-interpolation-filters="sRGB">
<feFlood flood-opacity="0" result="BackgroundImageFix"/>
<feGaussianBlur in="BackgroundImageFix" stdDeviation="12"/>
<feComposite in2="SourceAlpha" operator="in" result="effect1_backgroundBlur_55_2750"/>
<feBlend mode="normal" in="SourceGraphic" in2="effect1_backgroundBlur_55_2750" result="shape"/>
</filter>
<filter id="filter1_b_55_2750" x="7.37891" y="-1.81003" width="64.501" height="58.2301" filterUnits="userSpaceOnUse" color-interpolation-filters="sRGB">
<feFlood flood-opacity="0" result="BackgroundImageFix"/>
<feGaussianBlur in="BackgroundImageFix" stdDeviation="12"/>
<feComposite in2="SourceAlpha" operator="in" result="effect1_backgroundBlur_55_2750"/>
<feBlend mode="normal" in="SourceGraphic" in2="effect1_backgroundBlur_55_2750" result="shape"/>
</filter>
<linearGradient id="paint0_linear_55_2750" x1="1.925" y1="2.75" x2="53.35" y2="53.075" gradientUnits="userSpaceOnUse">
<stop stop-color="#192D7A"/>
<stop offset="1" stop-color="#061245"/>
</linearGradient>
<linearGradient id="paint1_linear_55_2750" x1="12" y1="13" x2="46.3029" y2="16.0605" gradientUnits="userSpaceOnUse">
<stop stop-color="#101E55" stop-opacity="0.4"/>
<stop offset="1" stop-color="#101E55" stop-opacity="0"/>
</linearGradient>
<linearGradient id="paint2_linear_55_2750" x1="32.3789" y1="23.19" x2="47.7366" y2="25.3627" gradientUnits="userSpaceOnUse">
<stop stop-color="#101E55" stop-opacity="0.4"/>
<stop offset="1" stop-color="#101E55" stop-opacity="0"/>
</linearGradient>
<linearGradient id="paint3_linear_55_2750" x1="38.0076" y1="26.1778" x2="34.0786" y2="26.3059" gradientUnits="userSpaceOnUse">
<stop stop-color="white"/>
<stop offset="1" stop-color="white" stop-opacity="0.2"/>
</linearGradient>
<linearGradient id="paint4_linear_55_2750" x1="35.1104" y1="26.724" x2="38.1055" y2="26.7406" gradientUnits="userSpaceOnUse">
<stop stop-color="white"/>
<stop offset="1" stop-color="white" stop-opacity="0"/>
</linearGradient>
<linearGradient id="paint5_linear_55_2750" x1="29.0439" y1="19.635" x2="16.5486" y2="21.5934" gradientUnits="userSpaceOnUse">
<stop stop-color="white"/>
<stop offset="1" stop-color="white" stop-opacity="0.2"/>
</linearGradient>
<linearGradient id="paint6_linear_55_2750" x1="19.6137" y1="20.0049" x2="29.356" y2="20.2634" gradientUnits="userSpaceOnUse">
<stop stop-color="white"/>
<stop offset="1" stop-color="white" stop-opacity="0"/>
</linearGradient>
</defs>
</svg>
