<svg width="55" height="55" viewBox="0 0 55 55" fill="none" xmlns="http://www.w3.org/2000/svg">
<rect x="0.5" y="0.5" width="54" height="54" rx="9.5" fill="url(#paint0_linear_55_2761)" stroke="#0D1B55"/>
<g filter="url(#filter0_b_55_2761)">
<mask id="path-2-outside-1_55_2761" maskUnits="userSpaceOnUse" x="11" y="11" width="34" height="34" fill="black">
<rect fill="white" x="11" y="11" width="34" height="34"/>
<path d="M34.9027 12H20.3232C15.0102 12 12 15.0102 12 20.3232V34.8888C12 40.2018 15.0102 43.212 20.3232 43.212H34.9027C40.2157 43.212 43.212 40.2018 43.212 34.8888V20.3232C43.212 15.0102 40.2157 12 34.9027 12Z"/>
</mask>
<path d="M34.9027 12H20.3232C15.0102 12 12 15.0102 12 20.3232V34.8888C12 40.2018 15.0102 43.212 20.3232 43.212H34.9027C40.2157 43.212 43.212 40.2018 43.212 34.8888V20.3232C43.212 15.0102 40.2157 12 34.9027 12Z" fill="url(#paint1_linear_55_2761)"/>
<path d="M34.9027 13C35.455 13 35.9027 12.5523 35.9027 12C35.9027 11.4477 35.455 11 34.9027 11V13ZM34.9027 11C34.3504 11 33.9027 11.4477 33.9027 12C33.9027 12.5523 34.3504 13 34.9027 13V11ZM34.9027 11H20.3232V13H34.9027V11ZM20.3232 11C17.4808 11 15.1158 11.8084 13.4621 13.4621C11.8084 15.1158 11 17.4808 11 20.3232H13C13 17.8526 13.6967 16.056 14.8763 14.8763C16.056 13.6967 17.8526 13 20.3232 13V11ZM11 20.3232V34.8888H13V20.3232H11ZM11 34.8888C11 37.7312 11.8084 40.0962 13.4621 41.7499C15.1158 43.4036 17.4808 44.212 20.3232 44.212V42.212C17.8526 42.212 16.056 41.5153 14.8763 40.3357C13.6967 39.156 13 37.3594 13 34.8888H11ZM20.3232 44.212H34.9027V42.212H20.3232V44.212ZM34.9027 44.212C37.7451 44.212 40.1072 43.4035 41.7577 41.749C43.4078 40.0949 44.212 37.73 44.212 34.8888H42.212C42.212 37.3606 41.5181 39.1573 40.3417 40.3365C39.1658 41.5154 37.3732 42.212 34.9027 42.212V44.212ZM44.212 34.8888V20.3232H42.212V34.8888H44.212ZM44.212 20.3232C44.212 17.482 43.4078 15.1171 41.7577 13.463C40.1072 11.8085 37.7451 11 34.9027 11V13C37.3732 13 39.1658 13.6966 40.3417 14.8755C41.5181 16.0547 42.212 17.8514 42.212 20.3232H44.212Z" fill="#2B44AA" fill-opacity="0.4" mask="url(#path-2-outside-1_55_2761)"/>
</g>
<mask id="path-4-inside-2_55_2761" fill="white">
<path fill-rule="evenodd" clip-rule="evenodd" d="M27.6612 18.3818C26.9537 18.3818 26.3711 18.9645 26.3711 19.6858V35.5276C26.3711 36.2351 26.9537 36.8177 27.6612 36.8177C28.3825 36.8177 28.9652 36.2351 28.9652 35.5276V19.6858C28.9652 18.9645 28.3825 18.3818 27.6612 18.3818ZM20.378 23.501C19.6705 23.501 19.0879 24.0836 19.0879 24.805V35.528C19.0879 36.2355 19.6705 36.8181 20.378 36.8181C21.0993 36.8181 21.682 36.2355 21.682 35.528V24.805C21.682 24.0836 21.0993 23.501 20.378 23.501ZM33.543 30.4651C33.543 29.7438 34.1256 29.1611 34.8469 29.1611C35.5544 29.1611 36.137 29.7438 36.137 30.4651V35.5284C36.137 36.2359 35.5544 36.8185 34.8331 36.8185C34.1256 36.8185 33.543 36.2359 33.543 35.5284V30.4651Z"/>
</mask>
<path fill-rule="evenodd" clip-rule="evenodd" d="M27.6612 18.3818C26.9537 18.3818 26.3711 18.9645 26.3711 19.6858V35.5276C26.3711 36.2351 26.9537 36.8177 27.6612 36.8177C28.3825 36.8177 28.9652 36.2351 28.9652 35.5276V19.6858C28.9652 18.9645 28.3825 18.3818 27.6612 18.3818ZM20.378 23.501C19.6705 23.501 19.0879 24.0836 19.0879 24.805V35.528C19.0879 36.2355 19.6705 36.8181 20.378 36.8181C21.0993 36.8181 21.682 36.2355 21.682 35.528V24.805C21.682 24.0836 21.0993 23.501 20.378 23.501ZM33.543 30.4651C33.543 29.7438 34.1256 29.1611 34.8469 29.1611C35.5544 29.1611 36.137 29.7438 36.137 30.4651V35.5284C36.137 36.2359 35.5544 36.8185 34.8331 36.8185C34.1256 36.8185 33.543 36.2359 33.543 35.5284V30.4651Z" fill="url(#paint2_linear_55_2761)"/>
<path d="M26.7711 19.6858C26.7711 19.1826 27.1774 18.7818 27.6612 18.7818V17.9818C26.73 17.9818 25.9711 18.7463 25.9711 19.6858H26.7711ZM26.7711 35.5276V19.6858H25.9711V35.5276H26.7711ZM27.6612 36.4177C27.1746 36.4177 26.7711 36.0142 26.7711 35.5276H25.9711C25.9711 36.456 26.7328 37.2177 27.6612 37.2177V36.4177ZM28.5652 35.5276C28.5652 36.0114 28.1644 36.4177 27.6612 36.4177V37.2177C28.6007 37.2177 29.3652 36.4588 29.3652 35.5276H28.5652ZM28.5652 19.6858V35.5276H29.3652V19.6858H28.5652ZM27.6612 18.7818C28.1616 18.7818 28.5652 19.1854 28.5652 19.6858H29.3652C29.3652 18.7435 28.6034 17.9818 27.6612 17.9818V18.7818ZM19.4879 24.805C19.4879 24.3018 19.8942 23.901 20.378 23.901V23.101C19.4468 23.101 18.6879 23.8655 18.6879 24.805H19.4879ZM19.4879 35.528V24.805H18.6879V35.528H19.4879ZM20.378 36.4181C19.8914 36.4181 19.4879 36.0146 19.4879 35.528H18.6879C18.6879 36.4564 19.4496 37.2181 20.378 37.2181V36.4181ZM21.282 35.528C21.282 36.0118 20.8812 36.4181 20.378 36.4181V37.2181C21.3175 37.2181 22.082 36.4592 22.082 35.528H21.282ZM21.282 24.805V35.528H22.082V24.805H21.282ZM20.378 23.901C20.8784 23.901 21.282 24.3046 21.282 24.805H22.082C22.082 23.8627 21.3202 23.101 20.378 23.101V23.901ZM34.8469 28.7611C33.9047 28.7611 33.143 29.5228 33.143 30.4651H33.943C33.943 29.9647 34.3465 29.5611 34.8469 29.5611V28.7611ZM36.537 30.4651C36.537 29.5256 35.7781 28.7611 34.8469 28.7611V29.5611C35.3307 29.5611 35.737 29.9619 35.737 30.4651H36.537ZM36.537 35.5284V30.4651H35.737V35.5284H36.537ZM34.8331 37.2185C35.7725 37.2185 36.537 36.4595 36.537 35.5284H35.737C35.737 36.0122 35.3363 36.4185 34.8331 36.4185V37.2185ZM33.143 35.5284C33.143 36.4568 33.9047 37.2185 34.8331 37.2185V36.4185C34.3465 36.4185 33.943 36.0149 33.943 35.5284H33.143ZM33.143 30.4651V35.5284H33.943V30.4651H33.143Z" fill="url(#paint3_linear_55_2761)" mask="url(#path-4-inside-2_55_2761)"/>
<defs>
<filter id="filter0_b_55_2761" x="-4" y="-4" width="63.2119" height="63.212" filterUnits="userSpaceOnUse" color-interpolation-filters="sRGB">
<feFlood flood-opacity="0" result="BackgroundImageFix"/>
<feGaussianBlur in="BackgroundImageFix" stdDeviation="7.5"/>
<feComposite in2="SourceAlpha" operator="in" result="effect1_backgroundBlur_55_2761"/>
<feBlend mode="normal" in="SourceGraphic" in2="effect1_backgroundBlur_55_2761" result="shape"/>
</filter>
<linearGradient id="paint0_linear_55_2761" x1="1.925" y1="2.75" x2="53.35" y2="53.075" gradientUnits="userSpaceOnUse">
<stop stop-color="#192D7A"/>
<stop offset="1" stop-color="#061245"/>
</linearGradient>
<linearGradient id="paint1_linear_55_2761" x1="13.0924" y1="13.5606" x2="42.2756" y2="42.1196" gradientUnits="userSpaceOnUse">
<stop stop-color="#192D7A"/>
<stop offset="1" stop-color="#061245"/>
</linearGradient>
<linearGradient id="paint2_linear_55_2761" x1="14.6747" y1="32.0659" x2="22.6613" y2="48.4731" gradientUnits="userSpaceOnUse">
<stop stop-color="white"/>
<stop offset="1" stop-color="white" stop-opacity="0.2"/>
</linearGradient>
<linearGradient id="paint3_linear_55_2761" x1="21.8018" y1="20.5297" x2="33.7227" y2="34.1829" gradientUnits="userSpaceOnUse">
<stop stop-color="white" stop-opacity="0.25"/>
<stop offset="1" stop-color="white" stop-opacity="0"/>
</linearGradient>
</defs>
</svg>
