<svg width="55" height="55" viewBox="0 0 55 55" fill="none" xmlns="http://www.w3.org/2000/svg">
<rect x="0.5" y="0.5" width="54" height="54" rx="9.5" fill="url(#paint0_linear_55_2741)" stroke="#0D1B55"/>
<g filter="url(#filter0_b_55_2741)">
<mask id="path-2-outside-1_55_2741" maskUnits="userSpaceOnUse" x="11.9812" y="8.9949" width="31.7136" height="38.1573" fill="black">
<rect fill="white" x="11.9812" y="8.9949" width="31.7136" height="38.1573"/>
<path d="M28.2682 45.1805C28.0575 45.1794 27.8459 45.1284 27.6538 45.0258L21.465 41.722C19.7088 40.7835 18.3291 39.7334 17.2443 38.5128C14.8699 35.8432 13.5126 32.4251 13.4258 28.8864L13.1357 17.239C13.1019 15.8947 13.9204 14.6926 15.1693 14.2447L26.3448 10.2569C27.0083 10.0143 27.7534 10.0147 28.4379 10.2558L39.8053 14.2233C41.0776 14.6654 41.9549 15.8678 41.9869 17.2103L42.2772 28.8663C42.3656 32.3999 41.181 35.8185 38.9427 38.4933C37.9157 39.7201 36.5873 40.7716 34.8834 41.7093L28.8734 45.0236C28.6869 45.1276 28.4789 45.1798 28.2682 45.1805Z"/>
</mask>
<path d="M28.2682 45.1805C28.0575 45.1794 27.8459 45.1284 27.6538 45.0258L21.465 41.722C19.7088 40.7835 18.3291 39.7334 17.2443 38.5128C14.8699 35.8432 13.5126 32.4251 13.4258 28.8864L13.1357 17.239C13.1019 15.8947 13.9204 14.6926 15.1693 14.2447L26.3448 10.2569C27.0083 10.0143 27.7534 10.0147 28.4379 10.2558L39.8053 14.2233C41.0776 14.6654 41.9549 15.8678 41.9869 17.2103L42.2772 28.8663C42.3656 32.3999 41.181 35.8185 38.9427 38.4933C37.9157 39.7201 36.5873 40.7716 34.8834 41.7093L28.8734 45.0236C28.6869 45.1276 28.4789 45.1798 28.2682 45.1805Z" fill="url(#paint1_linear_55_2741)"/>
<path d="M28.2869 46.1804C28.8393 46.1832 29.2786 45.7379 29.2683 45.1857C29.2579 44.6335 28.8018 44.1835 28.2495 44.1806L28.2869 46.1804ZM27.6538 45.0258L28.1085 44.1463L28.1084 44.1463L27.6538 45.0258ZM21.465 41.722L21.01 42.6013L21.0104 42.6015L21.465 41.722ZM17.2443 38.5128L17.985 37.8587L17.9847 37.8584L17.2443 38.5128ZM13.4258 28.8864L14.4257 28.8858L14.4257 28.8854L13.4258 28.8864ZM13.1357 17.239L14.1356 17.238L14.1356 17.2378L13.1357 17.239ZM15.1693 14.2447L14.8132 13.3021L14.8117 13.3026L15.1693 14.2447ZM26.3448 10.2569L26.7009 11.1996L26.7081 11.197L26.3448 10.2569ZM28.4379 10.2558L28.1258 11.198L28.1285 11.199L28.4379 10.2558ZM39.8053 14.2233L39.4958 15.1665L39.4972 15.167L39.8053 14.2233ZM41.9869 17.2103L40.9869 17.2102L40.987 17.2112L41.9869 17.2103ZM42.2772 28.8663L41.2773 28.8672L41.2773 28.8674L42.2772 28.8663ZM38.9427 38.4933L39.7161 39.1457L39.7162 39.1456L38.9427 38.4933ZM34.8834 41.7093L34.3851 40.8306L34.3844 40.8311L34.8834 41.7093ZM28.8734 45.0236L28.3743 44.1453L28.3702 44.1476L28.8734 45.0236ZM28.2413 44.1806C27.6891 44.1822 27.2535 44.6312 27.2683 45.1834C27.2832 45.7357 27.7429 46.182 28.2951 46.1804L28.2413 44.1806ZM28.2495 44.1806C28.1961 44.1803 28.1479 44.1674 28.1085 44.1463L27.1992 45.9053C27.5438 46.0893 27.9189 46.1784 28.2869 46.1804L28.2495 44.1806ZM28.1084 44.1463L21.9196 40.8425L21.0104 42.6015L27.1992 45.9054L28.1084 44.1463ZM21.9199 40.8427C20.2488 39.9496 18.9731 38.9705 17.985 37.8587L16.5036 39.1668C17.6851 40.4963 19.1688 41.6174 21.01 42.6013L21.9199 40.8427ZM17.9847 37.8584C15.7719 35.3706 14.5067 32.1846 14.4257 28.8858L12.4258 28.887C12.5186 32.6657 13.9678 36.3158 16.5038 39.1671L17.9847 37.8584ZM14.4257 28.8854L14.1356 17.238L12.1357 17.2399L12.4259 28.8873L14.4257 28.8854ZM14.1356 17.2378C14.1124 16.3156 14.675 15.4923 15.5268 15.1869L14.8117 13.3026C13.1659 13.8928 12.0914 15.4738 12.1357 17.2401L14.1356 17.2378ZM15.5254 15.1874L26.7009 11.1996L25.9887 9.31429L14.8132 13.3021L15.5254 15.1874ZM26.7081 11.197C27.1514 11.0348 27.6577 11.0332 28.1258 11.198L28.75 9.31355C27.8491 8.99629 26.8651 8.99374 25.9815 9.3169L26.7081 11.197ZM28.1285 11.199L39.4958 15.1665L40.1147 13.2802L28.7473 9.31261L28.1285 11.199ZM39.4972 15.167C40.3622 15.4675 40.965 16.2892 40.9869 17.2102L42.9869 17.2104C42.9448 15.4463 41.7931 13.8632 40.1133 13.2797L39.4972 15.167ZM40.987 17.2112L41.2773 28.8672L43.2771 28.8653L42.9868 17.2093L40.987 17.2112ZM41.2773 28.8674C41.3597 32.1614 40.2553 35.348 38.1692 37.841L39.7162 39.1456C42.1067 36.2889 43.3716 32.6384 43.2771 28.8652L41.2773 28.8674ZM38.1693 37.8409C37.2338 38.9584 36.0061 39.9386 34.3851 40.8306L35.3818 42.5879C37.1685 41.6047 38.5975 40.4819 39.7161 39.1457L38.1693 37.8409ZM34.3844 40.8311L28.3743 44.1453L29.3724 45.9018L35.3825 42.5875L34.3844 40.8311ZM28.3702 44.1476C28.3319 44.169 28.2882 44.1804 28.2413 44.1806L28.2951 46.1804C28.6696 46.1793 29.0419 46.0862 29.3765 45.8995L28.3702 44.1476Z" fill="#2B44AA" fill-opacity="0.4" mask="url(#path-2-outside-1_55_2741)"/>
</g>
<path d="M26.7132 31.6765C26.3851 31.6765 26.0547 31.5529 25.7971 31.301L22.4828 28.0572C21.9709 27.5533 21.9506 26.7397 22.4385 26.2376C22.9264 25.7338 23.7381 25.7328 24.2516 26.2349L26.6364 28.5677L32.2446 22.785C32.7341 22.2812 33.5458 22.2802 34.0576 22.7823C34.5712 23.2861 34.5915 24.1015 34.1036 24.6019L27.6102 31.2983C27.3654 31.5511 27.0413 31.6764 26.7132 31.6765Z" fill="url(#paint2_linear_55_2741)"/>
<path d="M26.709 28.6382L32.3171 22.8555C32.7687 22.3908 33.5169 22.3902 33.9884 22.8528C34.4625 23.3179 34.4808 24.0701 34.0312 24.5312L34.031 24.5314L27.5375 31.2279L27.5375 31.2279C27.3117 31.461 27.0133 31.5765 26.7108 31.5765C26.408 31.5765 26.1037 31.4626 25.8662 31.2304L22.5521 27.9867C22.552 27.9867 22.552 27.9866 22.5519 27.9866C22.0797 27.5216 22.0613 26.771 22.5111 26.3081L22.5112 26.308C22.9609 25.8435 23.7091 25.8426 24.1825 26.3056L26.5673 28.6384L26.6399 28.7094L26.709 28.6382Z" stroke="url(#paint3_linear_55_2741)" stroke-opacity="0.5" stroke-width="0.2"/>
<defs>
<filter id="filter0_b_55_2741" x="-11.8652" y="-14.9249" width="79.1475" height="85.1053" filterUnits="userSpaceOnUse" color-interpolation-filters="sRGB">
<feFlood flood-opacity="0" result="BackgroundImageFix"/>
<feGaussianBlur in="BackgroundImageFix" stdDeviation="12"/>
<feComposite in2="SourceAlpha" operator="in" result="effect1_backgroundBlur_55_2741"/>
<feBlend mode="normal" in="SourceGraphic" in2="effect1_backgroundBlur_55_2741" result="shape"/>
</filter>
<linearGradient id="paint0_linear_55_2741" x1="1.925" y1="2.75" x2="53.35" y2="53.075" gradientUnits="userSpaceOnUse">
<stop stop-color="#192D7A"/>
<stop offset="1" stop-color="#061245"/>
</linearGradient>
<linearGradient id="paint1_linear_55_2741" x1="13" y1="10" x2="44.1871" y2="11.4799" gradientUnits="userSpaceOnUse">
<stop stop-color="#101E55" stop-opacity="0.4"/>
<stop offset="1" stop-color="#101E55" stop-opacity="0"/>
</linearGradient>
<linearGradient id="paint2_linear_55_2741" x1="33.5819" y1="24.0886" x2="19.7724" y2="24.9482" gradientUnits="userSpaceOnUse">
<stop stop-color="white"/>
<stop offset="1" stop-color="white" stop-opacity="0.2"/>
</linearGradient>
<linearGradient id="paint3_linear_55_2741" x1="23.394" y1="25.4769" x2="33.9524" y2="25.3576" gradientUnits="userSpaceOnUse">
<stop stop-color="white"/>
<stop offset="1" stop-color="white" stop-opacity="0"/>
</linearGradient>
</defs>
</svg>
