<svg width="13" height="13" viewBox="0 0 13 13" fill="none" xmlns="http://www.w3.org/2000/svg">
<path d="M6.5 0.541656C6.5 0.541656 2.4791 4.01266 0.23205 5.89246C0.1001 6.01206 0 6.18626 0 6.39166C0 6.75111 0.29055 7.04166 0.65 7.04166H1.95V11.5917C1.95 11.9511 2.24055 12.2417 2.6 12.2417H4.55C4.90945 12.2417 5.2 11.9505 5.2 11.5917V8.99166H7.8V11.5917C7.8 11.9505 8.09055 12.2417 8.45 12.2417H10.4C10.7594 12.2417 11.05 11.9511 11.05 11.5917V7.04166H12.35C12.7094 7.04166 13 6.75111 13 6.39166C13 6.18626 12.8999 6.01206 12.751 5.89246C10.5196 4.01266 6.5 0.541656 6.5 0.541656Z" fill="white"/>
</svg>
