<svg width="772" height="743" viewBox="0 0 772 743" fill="none" xmlns="http://www.w3.org/2000/svg">
<g opacity="0.7">
<rect width="227.938" height="227.938" rx="10" transform="matrix(0.707798 -0.706415 0.707798 0.706415 255.718 -65.6404)" fill="#020822"/>
<rect width="227.938" height="227.938" rx="10" transform="matrix(0.707798 -0.706415 0.707798 0.706415 243.531 -65.6404)" fill="url(#paint0_radial_55_2685)"/>
</g>
<g opacity="0.7">
<rect width="227.938" height="227.938" rx="10" transform="matrix(0.707798 -0.706415 0.707798 0.706415 194.835 229.161)" fill="#020822"/>
<rect width="227.938" height="227.938" rx="10" transform="matrix(0.707798 -0.706415 0.707798 0.706415 182.648 229.161)" fill="url(#paint1_radial_55_2685)"/>
</g>
<g opacity="0.7">
<rect width="227.938" height="227.938" rx="10" transform="matrix(0.707798 -0.706415 0.707798 0.706415 681.572 -8.59949)" fill="#020822"/>
<rect width="227.938" height="227.938" rx="10" transform="matrix(0.707798 -0.706415 0.707798 0.706415 669.385 -8.59949)" fill="url(#paint2_radial_55_2685)"/>
</g>
<g opacity="0.7">
<rect width="227.938" height="227.938" rx="10" transform="matrix(0.707798 -0.706415 0.707798 0.706415 441.572 111.401)" fill="#020822"/>
<rect width="227.938" height="227.938" rx="10" transform="matrix(0.707798 -0.706415 0.707798 0.706415 429.385 111.401)" fill="url(#paint3_radial_55_2685)"/>
</g>
<g opacity="0.7">
<rect width="227.938" height="227.938" rx="10" transform="matrix(0.707798 -0.706415 0.707798 0.706415 626.572 290.401)" fill="#020822"/>
<rect width="227.938" height="227.938" rx="10" transform="matrix(0.707798 -0.706415 0.707798 0.706415 614.385 290.401)" fill="url(#paint4_radial_55_2685)"/>
</g>
<g opacity="0.7">
<rect width="227.938" height="227.938" rx="10" transform="matrix(0.707798 -0.706415 0.707798 0.706415 12.1865 54.5232)" fill="#020822"/>
<rect width="227.938" height="227.938" rx="10" transform="matrix(0.707798 -0.706415 0.707798 0.706415 0 54.5232)" fill="url(#paint5_radial_55_2685)"/>
</g>
<g opacity="0.7">
<rect width="227.938" height="227.938" rx="10" transform="matrix(0.707798 -0.706415 0.707798 0.706415 377.483 407.003)" fill="#020822"/>
<rect width="227.938" height="227.938" rx="10" transform="matrix(0.707798 -0.706415 0.707798 0.706415 365.297 407.003)" fill="url(#paint6_radial_55_2685)"/>
</g>
<g opacity="0.7">
<rect width="227.938" height="227.938" rx="10" transform="matrix(0.707798 -0.706415 0.707798 0.706415 559.332 581.64)" fill="#020822"/>
<rect width="227.938" height="227.938" rx="10" transform="matrix(0.707798 -0.706415 0.707798 0.706415 547.145 581.64)" fill="url(#paint7_radial_55_2685)"/>
</g>
<defs>
<radialGradient id="paint0_radial_55_2685" cx="0" cy="0" r="1" gradientUnits="userSpaceOnUse" gradientTransform="translate(113.969 113.969) rotate(90) scale(113.969)">
<stop stop-color="#192B71"/>
<stop offset="1" stop-color="#061140"/>
</radialGradient>
<radialGradient id="paint1_radial_55_2685" cx="0" cy="0" r="1" gradientUnits="userSpaceOnUse" gradientTransform="translate(113.969 113.969) rotate(90) scale(113.969)">
<stop stop-color="#192B71"/>
<stop offset="1" stop-color="#061140"/>
</radialGradient>
<radialGradient id="paint2_radial_55_2685" cx="0" cy="0" r="1" gradientUnits="userSpaceOnUse" gradientTransform="translate(113.969 113.969) rotate(90) scale(113.969)">
<stop stop-color="#192B71"/>
<stop offset="1" stop-color="#061140"/>
</radialGradient>
<radialGradient id="paint3_radial_55_2685" cx="0" cy="0" r="1" gradientUnits="userSpaceOnUse" gradientTransform="translate(113.969 113.969) rotate(90) scale(113.969)">
<stop stop-color="#192B71"/>
<stop offset="1" stop-color="#061140"/>
</radialGradient>
<radialGradient id="paint4_radial_55_2685" cx="0" cy="0" r="1" gradientUnits="userSpaceOnUse" gradientTransform="translate(113.969 113.969) rotate(90) scale(113.969)">
<stop stop-color="#192B71"/>
<stop offset="1" stop-color="#061140"/>
</radialGradient>
<radialGradient id="paint5_radial_55_2685" cx="0" cy="0" r="1" gradientUnits="userSpaceOnUse" gradientTransform="translate(113.969 113.969) rotate(90) scale(113.969)">
<stop stop-color="#192B71"/>
<stop offset="1" stop-color="#061140"/>
</radialGradient>
<radialGradient id="paint6_radial_55_2685" cx="0" cy="0" r="1" gradientUnits="userSpaceOnUse" gradientTransform="translate(113.969 113.969) rotate(90) scale(113.969)">
<stop stop-color="#192B71"/>
<stop offset="1" stop-color="#061140"/>
</radialGradient>
<radialGradient id="paint7_radial_55_2685" cx="0" cy="0" r="1" gradientUnits="userSpaceOnUse" gradientTransform="translate(113.969 113.969) rotate(90) scale(113.969)">
<stop stop-color="#192B71"/>
<stop offset="1" stop-color="#061140"/>
</radialGradient>
</defs>
</svg>
