<svg width="96" height="16" viewBox="0 0 96 16" fill="none" xmlns="http://www.w3.org/2000/svg">
<path d="M2.46 15H0.98V0.999999H10.52V2.34H2.46V7H9V8.34H2.46V15ZM17.0014 15H15.5214V0.999999H17.0014V15ZM24.4864 15H23.0464V0.999999H24.3264L33.1664 12.44V0.999999H34.6064V15H33.3464L24.4864 3.52V15ZM45.4942 15.08H44.1942L39.3542 0.999999H40.9942L44.8942 12.66L48.5142 0.94H49.7142L53.3542 12.66L57.2342 0.999999H58.8342L54.0142 15.08H52.7142L49.1142 3.52L45.4942 15.08ZM65.1889 15H63.7089V0.999999H65.1889V15ZM75.3939 15.24C74.3806 15.24 73.4072 15.1067 72.4739 14.84C71.5539 14.56 70.8006 14.2 70.2139 13.76V12.1C70.7739 12.58 71.5006 12.9933 72.3939 13.34C73.3539 13.6867 74.3206 13.86 75.2939 13.86C76.4006 13.86 77.3072 13.62 78.0139 13.14C78.7206 12.66 79.0739 12.02 79.0739 11.22C79.1539 10.4733 78.7672 9.84 77.9139 9.32C77.7406 9.18667 77.4606 9.05333 77.0739 8.92L76.1939 8.62C76.1539 8.60667 76.0739 8.58667 75.9539 8.56C75.8339 8.52 75.7006 8.48 75.5539 8.44C75.4206 8.38667 75.2806 8.34 75.1339 8.3C74.3072 8.06 73.8139 7.91333 73.6539 7.86C73.2272 7.71333 72.8139 7.54667 72.4139 7.36C71.9739 7.14667 71.6272 6.91333 71.3739 6.66C70.7872 6.04667 70.4939 5.28667 70.4939 4.38C70.4939 3.32667 70.9206 2.46 71.7739 1.78C72.6272 1.1 73.8139 0.76 75.3339 0.76C77.0139 0.76 78.4672 1.14667 79.6939 1.92V3.44C78.3072 2.57333 76.8672 2.14 75.3739 2.14C74.2939 2.14 73.4606 2.35333 72.8739 2.78C72.2872 3.20667 71.9939 3.75333 71.9939 4.42C71.9139 4.95333 72.2139 5.48 72.8939 6C73.0006 6.09333 73.2206 6.2 73.5539 6.32L74.2339 6.58L75.0939 6.82L75.9339 7.06C76.6672 7.28667 77.1272 7.43333 77.3139 7.5C77.7006 7.63333 78.1072 7.81333 78.5339 8.04C78.9739 8.26667 79.3339 8.52 79.6139 8.8C80.2672 9.4 80.5939 10.2 80.5939 11.2C80.5939 12.4533 80.0872 13.44 79.0739 14.16C78.0739 14.88 76.8472 15.24 75.3939 15.24ZM95.6925 15H85.7925V0.999999H95.3925V2.34H87.2725V6.82H93.9325V8.16H87.2725V13.66H95.6925V15Z" fill="#4367FF"/>
</svg>
