<svg width="67" height="71" viewBox="0 0 67 71" fill="none" xmlns="http://www.w3.org/2000/svg">
<path d="M46.9849 23.9365V24.0365H47.0849H62.6901C64.7636 24.0365 66.4508 25.7237 66.4508 27.7972V53.9815C66.4508 56.0556 64.7636 57.7428 62.6901 57.7428H47.0849H46.9849V57.8428V69.874C46.9849 70.4228 46.54 70.8678 45.9912 70.8678H2.01953C1.47074 70.8678 1.02578 70.4228 1.02578 69.874V10.8115C1.02578 10.2627 1.47074 9.81777 2.01953 9.81777H6.39453H6.49453V9.71777V2.06152C6.49453 1.51273 6.93949 1.06777 7.48828 1.06777H16.2383C16.7871 1.06777 17.232 1.51273 17.232 2.06152V9.71777V9.81777H17.332H45.9912C46.54 9.81777 46.9849 10.2627 46.9849 10.8115V23.9365ZM8.58203 3.05527H8.48203V3.15527V9.71777V9.81777H8.58203H15.1445H15.2445V9.71777V3.15527V3.05527H15.1445H8.58203ZM44.8974 68.8803H44.9974V68.7803V56.749V25.0303V11.9053V11.8053H44.8974H16.2383H7.48828H3.11328H3.01328V11.9053V68.7803V68.8803H3.11328H44.8974ZM47.0849 26.024H46.9849V26.124V55.6553V55.7553H47.0849H58.8945H58.9945V55.6553V26.124V26.024H58.8945H47.0849ZM60.982 55.6553V55.7553H61.082H62.6901C63.6682 55.7553 64.4633 54.9596 64.4633 53.9815V27.7972C64.4633 26.8191 63.6682 26.024 62.6901 26.024H61.082H60.982V26.124V55.6553Z" fill="#3F40A7" stroke="white" stroke-width="0.2"/>
<path d="M50.4343 32.7207L50.4468 32.6865L50.4343 32.6524C49.6914 30.6086 51.2224 28.4115 53.4267 28.4115C55.625 28.4115 57.1626 30.6027 56.4195 32.6524L56.4071 32.6865L56.4195 32.7206C56.8508 33.9103 56.6745 34.8693 56.1813 35.5668C55.6854 36.268 54.8603 36.717 53.9749 36.8633C53.0895 37.0096 52.1557 36.8512 51.446 36.3532C50.74 35.8579 50.2454 35.0194 50.2454 33.7803C50.2454 33.4221 50.3095 33.0636 50.4343 32.7207ZM52.4014 33.1867L52.4013 33.187C52.147 33.6253 52.1473 34.0177 52.3121 34.3251C52.474 34.6271 52.7852 34.8289 53.1196 34.9127C53.4541 34.9966 53.8271 34.9664 54.1203 34.7851C54.4186 34.6008 54.6204 34.2684 54.6204 33.7803C54.6204 33.6142 54.5782 33.4716 54.5263 33.3429C54.5018 33.2821 54.4745 33.2231 54.4486 33.167L54.4447 33.1588C54.4173 33.0994 54.3914 33.043 54.3691 32.9859C54.3247 32.8727 54.2962 32.7614 54.3017 32.6368C54.3073 32.5124 54.3471 32.3668 54.452 32.1868L54.452 32.1866C54.7064 31.7482 54.7062 31.3556 54.5414 31.0482C54.3795 30.7461 54.0682 30.5443 53.7338 30.4604C53.3993 30.3765 53.0263 30.4066 52.733 30.5879C52.4348 30.7723 52.2329 31.1046 52.2329 31.5928C52.2329 31.7588 52.2753 31.9012 52.3274 32.0298C52.3519 32.0904 52.3792 32.1492 52.4051 32.2051L52.4092 32.2138C52.4367 32.2732 52.4627 32.3295 52.4851 32.3866C52.5295 32.4998 52.5581 32.6112 52.5525 32.7359C52.5469 32.8604 52.5068 33.0062 52.4014 33.1867Z" fill="#3F40A7" stroke="white" stroke-width="0.2"/>
<path d="M52.432 43.624C52.432 43.0752 52.877 42.6303 53.4258 42.6303C53.9746 42.6303 54.4195 43.0752 54.4195 43.624V45.8115C54.4195 46.3603 53.9746 46.8053 53.4258 46.8053C52.877 46.8053 52.432 46.3603 52.432 45.8115V43.624Z" fill="#3F40A7" stroke="white" stroke-width="0.2"/>
<path d="M52.432 50.1865C52.432 49.6377 52.877 49.1928 53.4258 49.1928C53.9746 49.1928 54.4195 49.6377 54.4195 50.1865V52.374C54.4195 52.9228 53.9746 53.3678 53.4258 53.3678C52.877 53.3678 52.432 52.9228 52.432 52.374V50.1865Z" fill="#3F40A7" stroke="white" stroke-width="0.2"/>
<path d="M40.3008 27.3178H40.4008V27.2178V18.4678V18.3678H40.3008H7.48828H7.38828V18.4678V27.2178V27.3178H7.48828H40.3008ZM6.39453 16.3803H41.3945C41.9433 16.3803 42.3883 16.8252 42.3883 17.374V28.3115C42.3883 28.8603 41.9433 29.3053 41.3945 29.3053H6.39453C5.84574 29.3053 5.40078 28.8603 5.40078 28.3115V17.374C5.40078 16.8252 5.84574 16.3803 6.39453 16.3803Z" fill="#3F40A7" stroke="white" stroke-width="0.2"/>
<path d="M12.857 23.9365C12.857 24.4853 12.4121 24.9303 11.8633 24.9303C11.3145 24.9303 10.8695 24.4853 10.8695 23.9365V21.749C10.8695 21.2002 11.3145 20.7553 11.8633 20.7553C12.4121 20.7553 12.857 21.2002 12.857 21.749V23.9365Z" fill="#3F40A7" stroke="white" stroke-width="0.2"/>
<path d="M17.232 23.9365C17.232 24.4853 16.7871 24.9303 16.2383 24.9303C15.6895 24.9303 15.2445 24.4853 15.2445 23.9365V21.749C15.2445 21.2002 15.6895 20.7553 16.2383 20.7553C16.7871 20.7553 17.232 21.2002 17.232 21.749V23.9365Z" fill="#3F40A7" stroke="white" stroke-width="0.2"/>
<path d="M21.607 23.9365C21.607 24.4853 21.1621 24.9303 20.6133 24.9303C20.0645 24.9303 19.6195 24.4853 19.6195 23.9365V21.749C19.6195 21.2002 20.0645 20.7553 20.6133 20.7553C21.1621 20.7553 21.607 21.2002 21.607 21.749V23.9365Z" fill="#3F40A7" stroke="white" stroke-width="0.2"/>
<path d="M25.982 23.9365C25.982 24.4853 25.5371 24.9303 24.9883 24.9303C24.4395 24.9303 23.9945 24.4853 23.9945 23.9365V21.749C23.9945 21.2002 24.4395 20.7553 24.9883 20.7553C25.5371 20.7553 25.982 21.2002 25.982 21.749V23.9365Z" fill="#3F40A7" stroke="white" stroke-width="0.2"/>
<path d="M14.9272 40.6185H15.0272V40.5185V37.5497V37.4497H14.9272H11.3906H11.2906V37.5497V40.5185V40.6185H11.3906H14.9272ZM10.2969 35.4622H16.0209C16.5697 35.4622 17.0147 35.9071 17.0147 36.4559V41.6123C17.0147 42.161 16.5697 42.606 16.0209 42.606H10.2969C9.74808 42.606 9.30313 42.161 9.30313 41.6123V36.4559C9.30313 35.9071 9.74808 35.4622 10.2969 35.4622Z" fill="#3F40A7" stroke="white" stroke-width="0.2"/>
<path d="M25.1889 40.6185H25.2889V40.5185V37.5497V37.4497H25.1889H21.6523H21.5523V37.5497V40.5185V40.6185H21.6523H25.1889ZM20.5586 35.4622H26.2826C26.8314 35.4622 27.2764 35.9071 27.2764 36.4559V41.6123C27.2764 42.161 26.8314 42.606 26.2826 42.606H20.5586C20.0098 42.606 19.5648 42.161 19.5648 41.6123V36.4559C19.5648 35.9071 20.0098 35.4622 20.5586 35.4622Z" fill="#3F40A7" stroke="white" stroke-width="0.2"/>
<path d="M35.454 40.6185H35.554V40.5185V37.5497V37.4497H35.454H31.918H31.818V37.5497V40.5185V40.6185H31.918H35.454ZM30.8242 35.4622H36.5477C37.0965 35.4622 37.5415 35.9071 37.5415 36.4559V41.6123C37.5415 42.161 37.0965 42.606 36.5477 42.606H30.8242C30.2754 42.606 29.8305 42.161 29.8305 41.6123V36.4559C29.8305 35.9071 30.2754 35.4622 30.8242 35.4622Z" fill="#3F40A7" stroke="white" stroke-width="0.2"/>
<path d="M14.9272 50.677H15.0272V50.577V47.6082V47.5082H14.9272H11.3906H11.2906V47.6082V50.577V50.677H11.3906H14.9272ZM10.2969 45.5207H16.0209C16.5697 45.5207 17.0147 45.9656 17.0147 46.5144V51.6707C17.0147 52.2195 16.5697 52.6645 16.0209 52.6645H10.2969C9.74808 52.6645 9.30313 52.2195 9.30313 51.6707V46.5144C9.30313 45.9656 9.74808 45.5207 10.2969 45.5207Z" fill="#3F40A7" stroke="white" stroke-width="0.2"/>
<path d="M25.1889 50.677H25.2889V50.577V47.6082V47.5082H25.1889H21.6523H21.5523V47.6082V50.577V50.677H21.6523H25.1889ZM20.5586 45.5207H26.2826C26.8314 45.5207 27.2764 45.9656 27.2764 46.5144V51.6707C27.2764 52.2195 26.8314 52.6645 26.2826 52.6645H20.5586C20.0098 52.6645 19.5648 52.2195 19.5648 51.6707V46.5144C19.5648 45.9656 20.0098 45.5207 20.5586 45.5207Z" fill="#3F40A7" stroke="white" stroke-width="0.2"/>
<path d="M35.454 50.677H35.554V50.577V47.6082V47.5082H35.454H31.918H31.818V47.6082V50.577V50.677H31.918H35.454ZM30.8242 45.5207H36.5477C37.0965 45.5207 37.5415 45.9656 37.5415 46.5144V51.6707C37.5415 52.2195 37.0965 52.6645 36.5477 52.6645H30.8242C30.2754 52.6645 29.8305 52.2195 29.8305 51.6707V46.5144C29.8305 45.9656 30.2754 45.5207 30.8242 45.5207Z" fill="#3F40A7" stroke="white" stroke-width="0.2"/>
<path d="M14.9272 60.7353H15.0272V60.6353V57.6665V57.5665H14.9272H11.3906H11.2906V57.6665V60.6353V60.7353H11.3906H14.9272ZM10.2969 55.579H16.0209C16.5697 55.579 17.0147 56.024 17.0147 56.5728V61.7291C17.0147 62.2779 16.5697 62.7228 16.0209 62.7228H10.2969C9.74808 62.7228 9.30313 62.2779 9.30313 61.7291V56.5728C9.30313 56.024 9.74808 55.579 10.2969 55.579Z" fill="#3F40A7" stroke="white" stroke-width="0.2"/>
<path d="M25.1889 60.7353H25.2889V60.6353V57.6665V57.5665H25.1889H21.6523H21.5523V57.6665V60.6353V60.7353H21.6523H25.1889ZM20.5586 55.579H26.2826C26.8314 55.579 27.2764 56.024 27.2764 56.5728V61.7291C27.2764 62.2779 26.8314 62.7228 26.2826 62.7228H20.5586C20.0098 62.7228 19.5648 62.2779 19.5648 61.7291V56.5728C19.5648 56.024 20.0098 55.579 20.5586 55.579Z" fill="#3F40A7" stroke="white" stroke-width="0.2"/>
<path d="M35.454 60.7353H35.554V60.6353V57.6665V57.5665H35.454H31.918H31.818V57.6665V60.6353V60.7353H31.918H35.454ZM30.8242 55.579H36.5477C37.0965 55.579 37.5415 56.024 37.5415 56.5728V61.7291C37.5415 62.2779 37.0965 62.7228 36.5477 62.7228H30.8242C30.2754 62.7228 29.8305 62.2779 29.8305 61.7291V56.5728C29.8305 56.024 30.2754 55.579 30.8242 55.579Z" fill="#3F40A7" stroke="white" stroke-width="0.2"/>
</svg>
