<svg width="73" height="73" viewBox="0 0 73 73" fill="none" xmlns="http://www.w3.org/2000/svg">
<path d="M5.72031 68.1726V66.15H7.74289V68.1726H5.72031Z" fill="#3F40A7" stroke="white" stroke-width="0.3"/>
<path d="M10.3668 68.1726V66.15H12.3894V68.1726H10.3668Z" fill="#3F40A7" stroke="white" stroke-width="0.3"/>
<path d="M15.0113 68.1726V66.15H17.0339V68.1726H15.0113Z" fill="#3F40A7" stroke="white" stroke-width="0.3"/>
<path d="M5.72031 63.5274V61.5049H17.0332V63.5274H5.72031Z" fill="#3F40A7" stroke="white" stroke-width="0.3"/>
<path d="M23.1773 34.7952H23.3859L23.3195 34.5974C22.4464 31.9991 21.979 29.2932 21.979 26.5162C21.979 12.5114 33.3726 1.11777 47.3774 1.11777C61.3822 1.11777 72.7758 12.5114 72.7758 26.5162C72.7758 37.9537 65.2212 47.8529 54.3044 50.9354L54.1951 50.9663V51.0798V69.4839C54.1951 71.3218 52.6992 72.8178 50.8613 72.8178H4.40965C2.57172 72.8178 1.07578 71.3218 1.07578 69.4839V38.1291C1.07578 36.2911 2.57172 34.7952 4.40965 34.7952H23.1773ZM52.0226 46.4081H52.1726V46.2581V41.6129V41.4629H52.0226H3.24836H3.09836V41.6129V46.2581V46.4081H3.24836H52.0226ZM54.3451 39.1404H54.1951V39.2904V43.6487L54.4793 43.7158C55.1362 42.4019 55.7129 40.9307 56.1969 39.3339L56.2556 39.1404H56.0534H54.3451ZM53.9902 37.0182L54.0257 37.1178H54.1315H56.6782H56.7973L56.8243 37.0018C57.4922 34.1319 57.8847 30.9629 57.9604 27.6809L57.9639 27.5275H57.8104H36.9525H36.799L36.8025 27.6809C36.8573 30.0848 37.0809 32.4253 37.4701 34.6708L37.4917 34.7952H37.6179H50.8613C52.3067 34.7952 53.5296 35.7266 53.9902 37.0182ZM24.061 25.3474L24.0531 25.5049H24.2108H34.6311H34.7778L34.781 25.3581C34.8528 22.0526 35.2165 18.9314 35.8367 16.0966L35.8765 15.9145H35.6902H26.6646H26.5724L26.5308 15.9968C25.0942 18.8338 24.2281 21.9967 24.061 25.3474ZM38.0952 15.9145H37.9763L37.9492 16.0304C37.2835 18.8735 36.8817 22.0332 36.8037 25.3513L36.8001 25.5049H36.9536H57.8023H57.9559L57.9523 25.3513C57.8731 22.0332 57.4712 18.8735 56.8056 16.0304L56.7785 15.9145H56.6596H38.0952ZM56.0453 13.892H56.2476L56.1888 13.6984C55.2371 10.5634 53.9528 7.93109 52.4519 6.07925C50.9522 4.22883 49.2208 3.14035 47.3774 3.14035C45.534 3.14035 43.8026 4.22883 42.3029 6.07925C40.802 7.93109 39.5177 10.5634 38.566 13.6984L38.5072 13.892H38.7095H56.0453ZM70.544 25.5049H70.7016L70.6938 25.3475C70.5278 21.9967 69.6618 18.8337 68.2228 15.9967L68.1811 15.9145H68.089H59.0635H58.8771L58.9169 16.0966C59.5371 18.9315 59.9019 22.0526 59.9726 25.3581L59.9757 25.5049H60.1226H70.544ZM60.133 27.5275H59.9862L59.983 27.6743C59.9136 30.9401 59.5464 34.0682 58.9192 36.9357L58.8794 37.1178H59.0658H68.1157H68.2082L68.2497 37.0351C69.6816 34.1854 70.5383 31.0179 70.7031 27.6849L70.7109 27.5275H70.5533H60.133ZM66.7547 13.892H67.0337L66.8798 13.6592C63.82 9.03326 59.159 5.57018 53.6948 4.03203L53.1942 3.89112L53.5429 4.27698C55.5456 6.4935 57.2021 9.77761 58.3373 13.7829L58.3683 13.892H58.4817H66.7547ZM41.2119 4.27698L41.5606 3.89112L41.06 4.03203C35.5958 5.57018 30.9348 9.03326 27.875 13.6592L27.721 13.892H28.0001H36.2731H36.3865L36.4174 13.7829C37.5539 9.77758 39.2092 6.49348 41.2119 4.27698ZM24.2073 27.5275H24.0498L24.0575 27.6848C24.1755 30.097 24.6571 32.4476 25.4999 34.6978L25.5364 34.7952H25.6404H35.2628H35.4395L35.4108 34.6209C35.0427 32.3823 34.832 30.0563 34.7799 27.6742L34.7767 27.5275H34.6299H24.2073ZM52.0226 39.4404H52.1726V39.2904V38.1291C52.1726 37.4063 51.584 36.8178 50.8613 36.8178H4.40965C3.68694 36.8178 3.09836 37.4063 3.09836 38.1291V39.2904V39.4404H3.24836H52.0226ZM3.24836 48.4307H3.09836V48.5807V69.4839C3.09836 70.2066 3.68694 70.7952 4.40965 70.7952H50.8613C51.584 70.7952 52.1726 70.2066 52.1726 69.4839V48.5807V48.4307H52.0226H3.24836ZM54.1951 48.6631V48.8672L54.3899 48.8063C59.655 47.1595 64.0289 43.7794 66.9219 39.3727L67.0744 39.1404H66.7965H58.4898H58.3763L58.3454 39.2495C57.3585 42.7367 55.9583 45.7184 54.2268 47.9403L54.1951 47.981V48.0325V48.6631Z" fill="#3F40A7" stroke="white" stroke-width="0.3"/>
<path d="M46.3648 22.8823V20.8597H48.3874V22.8823H46.3648Z" fill="#3F40A7" stroke="white" stroke-width="0.3"/>
<path d="M51.0094 22.8823V20.8597H53.032V22.8823H51.0094Z" fill="#3F40A7" stroke="white" stroke-width="0.3"/>
<path d="M41.7203 22.8823V20.8597H43.7429V22.8823H41.7203Z" fill="#3F40A7" stroke="white" stroke-width="0.3"/>
<path d="M51.0094 32.1726V30.15H53.032V32.1726H51.0094Z" fill="#3F40A7" stroke="white" stroke-width="0.3"/>
<path d="M46.3648 32.1726V30.15H48.3874V32.1726H46.3648Z" fill="#3F40A7" stroke="white" stroke-width="0.3"/>
<path d="M41.7203 32.1726V30.15H43.7429V32.1726H41.7203Z" fill="#3F40A7" stroke="white" stroke-width="0.3"/>
<path d="M39.1732 55.4598L39.2485 55.5035L39.3238 55.4598C40.3287 54.8766 41.4908 54.5371 42.7324 54.5371C46.4922 54.5371 49.5501 57.595 49.5501 61.3548C49.5501 65.1147 46.4922 68.1726 42.7324 68.1726C41.4908 68.1726 40.3287 67.833 39.3238 67.2499L39.2485 67.2062L39.1732 67.2499C38.1683 67.833 37.0061 68.1726 35.7646 68.1726C32.0048 68.1726 28.9469 65.1147 28.9469 61.3548C28.9469 57.595 32.0048 54.5371 35.7646 54.5371C37.0061 54.5371 38.1683 54.8766 39.1732 55.4598ZM39.1356 64.4938L39.2486 64.623L39.3615 64.4938C40.0973 63.6514 40.5598 62.5626 40.5598 61.3548C40.5598 60.1471 40.0974 59.0571 39.3614 58.2158L39.2484 58.0867L39.1355 58.2159C38.3996 59.0583 37.9372 60.1471 37.9372 61.3548C37.9372 62.5625 38.3996 63.6525 39.1356 64.4938ZM37.4236 57.0871L37.5564 56.9223L37.3569 56.8516C36.8593 56.6755 36.3289 56.5597 35.7646 56.5597C33.12 56.5597 30.9695 58.7102 30.9695 61.3548C30.9695 63.9995 33.12 66.15 35.7646 66.15C36.3289 66.15 36.8593 66.0342 37.3569 65.858L37.5564 65.7874L37.4236 65.6225C36.4814 64.453 35.9146 62.9693 35.9146 61.3548C35.9146 59.7404 36.4814 58.2566 37.4236 57.0871ZM41.0734 65.6225L40.9405 65.7874L41.1401 65.858C41.6376 66.0342 42.1681 66.15 42.7324 66.15C45.377 66.15 47.5275 63.9995 47.5275 61.3548C47.5275 58.7102 45.377 56.5597 42.7324 56.5597C42.1681 56.5597 41.6376 56.6755 41.1401 56.8516L40.9405 56.9223L41.0734 57.0871C42.0156 58.2566 42.5824 59.7404 42.5824 61.3548C42.5824 62.9693 42.0156 64.453 41.0734 65.6225Z" fill="#3F40A7" stroke="white" stroke-width="0.3"/>
</svg>
