<svg width="38" height="39" viewBox="0 0 38 39" fill="none" xmlns="http://www.w3.org/2000/svg">
<g clip-path="url(#clip0)">
<path d="M19.0001 0.883789C8.50675 0.883789 0 9.39054 0 19.8839C0 29.2952 6.84991 37.0894 15.8313 38.5987V23.8478H11.2479V18.5396H15.8313V14.6255C15.8313 10.0841 18.6051 7.60927 22.6569 7.60927C24.5975 7.60927 26.2653 7.75387 26.7494 7.81756V12.5646L23.9391 12.5659C21.736 12.5659 21.3113 13.6126 21.3113 15.1491V18.5369H26.5681L25.8824 23.8451H21.3113V38.7256C30.712 37.5814 38 29.5887 38 19.8785C38 9.39054 29.4933 0.883789 19.0001 0.883789Z" fill="white"/>
</g>
<defs>
<clipPath id="clip0">
<rect width="38" height="38" fill="white" transform="translate(0 0.804688)"/>
</clipPath>
</defs>
</svg>
