<svg width="1600" height="2343" viewBox="0 0 1600 2343" fill="none" xmlns="http://www.w3.org/2000/svg">
<g clip-path="url(#clip0)">
<path d="M-336.952 167.03C-21.1063 -186.437 632.101 -466.314 944.404 -71.2001C1233.96 295.134 858.732 433.088 1025.85 840.341C1192.97 1247.59 1807.64 1116.48 1908.84 1572.27C1967.58 1836.83 1800.37 2135.67 1473.12 2269.81C1145.87 2403.95 658.575 2373.38 77.1548 1979.09C-472.066 1606.64 -621.463 1204.96 -610.622 870.725C-599.782 536.491 -428.696 269.703 -336.952 167.03Z" stroke="#84A9EF" stroke-opacity="0.2" stroke-miterlimit="10"/>
<path d="M82.0572 1933.5C-422.188 1592.63 -561.796 1224.21 -553.526 916.413C-544.818 610.671 -390.07 365.591 -305.302 268.593C-15.7282 -60.6304 586.781 -322.267 883.179 33.2303C1156.86 361.475 827.242 491.18 983.79 864.904C988.283 875.528 993.089 885.771 998.192 895.658C1136.26 1163.51 1493.18 1166.49 1680.67 1355.95C1731.56 1407.38 1770.29 1472.35 1788.57 1559.67C1841.18 1810.86 1684.07 2086.48 1380.72 2208.61C1075.73 2330.99 622.303 2298.02 82.0572 1933.5Z" stroke="#84A9EF" stroke-opacity="0.2" stroke-miterlimit="10"/>
<path d="M86.9606 1887.91C-372.311 1578.62 -502.127 1243.46 -496.431 962.097C-489.856 684.85 -351.747 461.224 -273.651 370.158C-11.3638 64.3017 541.365 -178.247 821.956 137.662C1079.67 427.808 794.575 549.786 941.735 889.469C945.976 899.259 950.559 908.683 955.367 917.811C1084.93 1164.45 1406.05 1177.99 1572.6 1356.99C1618.07 1405.87 1652.61 1466.66 1668.31 1547.08C1714.73 1784.94 1567.78 2037.3 1288.32 2147.41C1005.6 2258.04 586.033 2222.66 86.9606 1887.91Z" stroke="#84A9EF" stroke-opacity="0.2" stroke-miterlimit="10"/>
<path d="M91.8604 1842.32C-322.436 1564.61 -443.174 1262.69 -439.337 1007.78C-435.591 759.017 -313.258 557.007 -242.002 471.721C-6.42441 189.764 495.817 -34.2501 760.729 242.092C1002.35 494.132 762.587 608.118 899.677 914.031C903.687 922.977 908.028 931.595 912.539 939.961C1033.6 1165.39 1318.9 1189.56 1464.52 1358.03C1504.58 1404.37 1534.9 1460.99 1548.04 1534.48C1588.2 1759.07 1451.49 1988.11 1195.93 2086.2C935.461 2185.08 549.758 2147.3 91.8604 1842.32Z" stroke="#84A9EF" stroke-opacity="0.2" stroke-miterlimit="10"/>
<path d="M96.7662 1796.72C-273.067 1551.36 -383.71 1281.94 -382.239 1053.46C-380.818 833.196 -274.753 652.806 -210.349 573.28C-1.41526 315.299 450.097 109.73 699.507 346.519C924.858 560.466 730.691 666.425 857.623 938.591C861.403 946.695 865.499 954.502 869.716 962.11C982.266 1166.32 1231.72 1201.22 1356.45 1359.06C1391.08 1402.89 1417.14 1455.33 1427.78 1521.88C1461.59 1733.24 1335.42 1939.51 1103.53 2024.99C865.554 2112.73 512.916 2072.81 96.7662 1796.72Z" stroke="#84A9EF" stroke-opacity="0.2" stroke-miterlimit="10"/>
<path d="M101.666 1751.13C-223.27 1537.48 -324.227 1301.2 -325.145 1099.15C-326.016 907.383 -236.232 748.633 -178.699 674.843C3.67941 440.936 404.127 253.737 638.282 450.95C847.135 626.854 698.903 724.71 815.566 963.156C819.119 970.416 822.969 977.414 826.889 984.263C930.934 1167.27 1144.49 1212.99 1248.38 1360.11C1277.57 1401.44 1299.3 1449.7 1307.51 1509.29C1334.83 1707.48 1219.15 1890.42 1011.14 1963.79C795.443 2039.88 476.539 1997.62 101.666 1751.13Z" stroke="#84A9EF" stroke-opacity="0.2" stroke-miterlimit="10"/>
<path d="M106.571 1705.54C-173.435 1523.54 -264.697 1320.47 -268.046 1144.83C-271.161 981.579 -197.677 844.493 -147.046 776.407C8.89734 566.694 357.815 397.844 577.059 555.384C769.094 693.371 667.269 782.949 773.508 987.721C776.839 994.138 780.437 1000.33 784.062 1006.42C879.601 1168.21 1057.16 1224.89 1140.31 1361.15C1164.04 1400.03 1181.39 1444.08 1187.25 1496.69C1207.87 1681.78 1102.86 1841.29 918.742 1902.59C725.319 1966.99 440.195 1922.38 106.571 1705.54Z" stroke="#84A9EF" stroke-opacity="0.2" stroke-miterlimit="10"/>
<path d="M111.473 1659.94C-123.554 1509.54 -205.103 1339.74 -210.952 1190.52C-216.235 1055.78 -159.074 940.399 -115.397 877.969C14.289 692.608 317.684 531.354 515.835 659.813C684.959 769.455 635.843 841.104 731.453 1012.28C734.565 1017.86 737.907 1023.24 741.238 1028.57C828.271 1169.15 969.67 1236.96 1032.24 1362.19C1050.46 1398.67 1063.37 1438.49 1066.99 1484.1C1080.62 1656.15 986.548 1792.1 826.346 1841.39C655.168 1894.05 403.894 1847.08 111.473 1659.94Z" stroke="#84A9EF" stroke-opacity="0.2" stroke-miterlimit="10"/>
<path d="M116.374 1614.35C-73.6011 1495.42 -145.386 1359.03 -153.857 1236.2C-161.182 1129.99 -120.39 1036.37 -83.7472 979.532C19.9357 818.714 263.719 687.283 454.61 764.244C611.679 827.569 604.709 899.121 689.396 1036.85C692.298 1041.57 695.378 1046.15 698.412 1050.72C776.938 1170.09 881.905 1249.18 924.163 1363.23C936.808 1397.35 945.225 1432.91 946.72 1471.5C952.887 1630.56 870.207 1742.83 733.949 1780.19C584.986 1821.02 367.676 1771.67 116.374 1614.35Z" stroke="#84A9EF" stroke-opacity="0.2" stroke-miterlimit="10"/>
<path d="M121.278 1568.76C-23.535 1481.14 -85.4179 1378.3 -96.7605 1281.89C-105.903 1204.18 -81.5546 1132.42 -52.0945 1081.1C25.9852 945.054 216.036 833.73 393.387 868.675C532.446 896.076 573.995 956.868 647.341 1061.41C650.049 1065.27 652.849 1069.06 655.588 1072.87C725.607 1171.03 793.706 1261.49 816.092 1364.27C823.017 1396.06 826.912 1427.32 826.459 1458.9C824.363 1604.95 753.834 1693.42 641.556 1718.98C514.768 1747.84 331.602 1696.02 121.278 1568.76Z" stroke="#84A9EF" stroke-opacity="0.2" stroke-miterlimit="10"/>
</g>
<defs>
<clipPath id="clip0">
<rect width="1602" height="2343" fill="white" transform="translate(-2)"/>
</clipPath>
</defs>
</svg>
