<svg width="101" height="60" viewBox="0 0 101 60" fill="none" xmlns="http://www.w3.org/2000/svg">
<path d="M29.6318 34.3047H21.2822V23.6729H11.0215V34.3047H2.65332V7.69727H11.0215V16.8262H21.2822V7.69727H29.6318V34.3047ZM64.197 34.3047H58.0925V31.2617H57.8513C57.74 31.5215 57.3565 31.9173 56.7009 32.4492C56.268 32.8203 55.7608 33.1729 55.1794 33.5068C54.5857 33.8408 53.8311 34.1191 52.9157 34.3418C52.0127 34.5645 51.0788 34.6758 50.114 34.6758C45.7846 34.6758 42.4262 33.4821 40.0388 31.0947C37.6514 28.7197 36.4577 25.3675 36.4577 21.0381C36.4577 16.7087 37.7071 13.3379 40.2058 10.9258C42.7168 8.52604 46.1433 7.32617 50.4851 7.32617C52.2168 7.32617 53.8249 7.51172 55.3093 7.88281C56.7937 8.24154 58.0183 8.73014 58.9831 9.34863C59.8985 9.95475 60.7025 10.6227 61.3952 11.3525C61.6055 11.5876 61.8034 11.8288 61.989 12.0762C62.1869 12.3236 62.3601 12.5771 62.5085 12.8369C62.657 13.0843 62.7868 13.3193 62.8982 13.542C63.0219 13.7523 63.1332 13.9935 63.2321 14.2656C63.3311 14.5254 63.4115 14.7419 63.4734 14.915C63.5476 15.0882 63.6156 15.3047 63.6775 15.5645C63.7517 15.8118 63.8012 15.9912 63.8259 16.1025C63.863 16.2139 63.9063 16.387 63.9558 16.6221C64.0053 16.8447 64.0362 16.9746 64.0486 17.0117L64.0857 17.5869H55.3464C55.3464 17.3148 55.2042 16.9437 54.9196 16.4736C54.6846 16.1149 54.4187 15.7995 54.1218 15.5273C53.7754 15.2181 53.2806 14.9583 52.6374 14.748C51.9942 14.5378 51.2767 14.4326 50.4851 14.4326C46.9597 14.4326 45.197 16.6221 45.197 21.001C45.197 25.3923 46.9597 27.5879 50.4851 27.5879C51.4994 27.5879 52.39 27.4395 53.157 27.1426C53.9239 26.8457 54.4249 26.5488 54.6599 26.252L55.0495 25.8252V25.6396H50.1511V20.2402H64.197V34.3047ZM74.3998 31.0762C71.9011 28.6888 70.6518 25.3304 70.6518 21.001C70.6518 16.6592 71.9011 13.2946 74.3998 10.9072C76.8985 8.51986 80.325 7.32617 84.6791 7.32617C88.7612 7.32617 92.0577 8.34049 94.5688 10.3691C97.0675 12.3854 98.3168 15.0449 98.3168 18.3477H89.6518C89.6518 18.0137 89.5343 17.556 89.2993 16.9746C89.1261 16.5417 88.8725 16.1396 88.5385 15.7686C88.1798 15.3975 87.6603 15.082 86.9799 14.8223C86.2996 14.5625 85.5327 14.4326 84.6791 14.4326C81.1537 14.4326 79.3911 16.6221 79.3911 21.001C79.3911 25.3923 81.1537 27.5879 84.6791 27.5879C85.5574 27.5879 86.3305 27.458 86.9985 27.1982C87.6788 26.9385 88.1922 26.6045 88.5385 26.1963C89.1941 25.4541 89.5528 24.7367 89.6147 24.0439L89.6518 23.6729H98.3168C98.3168 26.9632 97.0675 29.6165 94.5688 31.6328C92.0577 33.6615 88.7612 34.6758 84.6791 34.6758C80.3373 34.6758 76.9109 33.4759 74.3998 31.0762Z" fill="white"/>
<path d="M8.236 50.1607C8.908 50.1607 9.448 50.3767 9.856 50.8087C10.272 51.2407 10.48 51.8247 10.48 52.5607V56.3047H9.688V52.5607C9.688 52.0407 9.552 51.6407 9.28 51.3607C9.016 51.0727 8.664 50.9287 8.224 50.9287C7.728 50.9287 7.324 51.0967 7.012 51.4327C6.708 51.7607 6.556 52.2767 6.556 52.9807V56.3047H5.764V52.5607C5.764 52.0327 5.636 51.6287 5.38 51.3487C5.132 51.0687 4.792 50.9287 4.36 50.9287C3.88 50.9287 3.472 51.0967 3.136 51.4327C2.8 51.7687 2.632 52.2847 2.632 52.9807V56.3047H1.84V50.3047H2.632V51.1807C3.064 50.5007 3.676 50.1607 4.468 50.1607C5.332 50.1607 5.94 50.5247 6.292 51.2527C6.724 50.5247 7.372 50.1607 8.236 50.1607ZM14.9039 50.1607C15.7919 50.1607 16.5079 50.4767 17.0519 51.1087C17.6039 51.7327 17.8799 52.4727 17.8799 53.3287C17.8799 53.4167 17.8719 53.5407 17.8559 53.7007H12.5879C12.6679 54.3087 12.9239 54.7927 13.3559 55.1527C13.7959 55.5047 14.3359 55.6807 14.9759 55.6807C15.4319 55.6807 15.8239 55.5887 16.1519 55.4047C16.4879 55.2127 16.7399 54.9647 16.9079 54.6607L17.6039 55.0687C17.3399 55.4927 16.9799 55.8287 16.5239 56.0767C16.0679 56.3247 15.5479 56.4487 14.9639 56.4487C14.0199 56.4487 13.2519 56.1527 12.6599 55.5607C12.0679 54.9687 11.7719 54.2167 11.7719 53.3047C11.7719 52.4087 12.0639 51.6607 12.6479 51.0607C13.2319 50.4607 13.9839 50.1607 14.9039 50.1607ZM14.9039 50.9287C14.2799 50.9287 13.7559 51.1167 13.3319 51.4927C12.9159 51.8607 12.6679 52.3407 12.5879 52.9327H17.0639C16.9839 52.3007 16.7399 51.8087 16.3319 51.4567C15.9239 51.1047 15.4479 50.9287 14.9039 50.9287ZM20.0517 51.3007C20.4197 50.5727 21.0517 50.2087 21.9477 50.2087V50.9767C21.4037 50.9767 20.9517 51.1367 20.5917 51.4567C20.2317 51.7767 20.0517 52.2807 20.0517 52.9687V56.3047H19.2597V50.3047H20.0517V51.3007ZM25.5858 56.4487C24.6818 56.4487 23.9298 56.1487 23.3298 55.5487C22.7298 54.9407 22.4298 54.1927 22.4298 53.3047C22.4298 52.4167 22.7298 51.6727 23.3298 51.0727C23.9298 50.4647 24.6818 50.1607 25.5858 50.1607C26.1778 50.1607 26.7098 50.3047 27.1818 50.5927C27.6538 50.8727 27.9978 51.2527 28.2138 51.7327L27.5658 52.1047C27.4058 51.7447 27.1458 51.4607 26.7858 51.2527C26.4338 51.0367 26.0338 50.9287 25.5858 50.9287C24.9218 50.9287 24.3618 51.1607 23.9058 51.6247C23.4498 52.0807 23.2218 52.6407 23.2218 53.3047C23.2218 53.9687 23.4498 54.5327 23.9058 54.9967C24.3618 55.4527 24.9218 55.6807 25.5858 55.6807C26.0338 55.6807 26.4338 55.5767 26.7858 55.3687C27.1378 55.1527 27.4138 54.8647 27.6138 54.5047L28.2738 54.8887C28.0258 55.3687 27.6618 55.7487 27.1818 56.0287C26.7018 56.3087 26.1698 56.4487 25.5858 56.4487ZM32.3389 50.1607C33.0669 50.1607 33.6389 50.3847 34.0549 50.8327C34.4789 51.2727 34.6909 51.8687 34.6909 52.6207V56.3047H33.8989V52.6207C33.8989 52.0847 33.7549 51.6687 33.4669 51.3727C33.1869 51.0767 32.7869 50.9287 32.2669 50.9287C31.6909 50.9287 31.2229 51.1127 30.8629 51.4807C30.5029 51.8407 30.3229 52.4007 30.3229 53.1607V56.3047H29.5309V47.9047H30.3229V51.2407C30.7709 50.5207 31.4429 50.1607 32.3389 50.1607ZM41.5023 50.3047H42.2943V56.3047H41.5023V55.1287C40.9503 56.0087 40.1423 56.4487 39.0783 56.4487C38.2223 56.4487 37.4903 56.1447 36.8823 55.5367C36.2823 54.9287 35.9823 54.1847 35.9823 53.3047C35.9823 52.4247 36.2823 51.6807 36.8823 51.0727C37.4903 50.4647 38.2223 50.1607 39.0783 50.1607C40.1423 50.1607 40.9503 50.6007 41.5023 51.4807V50.3047ZM37.4583 54.9967C37.9143 55.4527 38.4743 55.6807 39.1383 55.6807C39.8023 55.6807 40.3623 55.4527 40.8183 54.9967C41.2743 54.5327 41.5023 53.9687 41.5023 53.3047C41.5023 52.6407 41.2743 52.0807 40.8183 51.6247C40.3623 51.1607 39.8023 50.9287 39.1383 50.9287C38.4743 50.9287 37.9143 51.1607 37.4583 51.6247C37.0023 52.0807 36.7743 52.6407 36.7743 53.3047C36.7743 53.9687 37.0023 54.5327 37.4583 54.9967ZM46.8993 50.1607C47.6273 50.1607 48.1993 50.3847 48.6153 50.8327C49.0393 51.2727 49.2513 51.8687 49.2513 52.6207V56.3047H48.4593V52.6207C48.4593 52.0847 48.3153 51.6687 48.0273 51.3727C47.7473 51.0767 47.3473 50.9287 46.8273 50.9287C46.2513 50.9287 45.7833 51.1127 45.4233 51.4807C45.0633 51.8407 44.8833 52.4007 44.8833 53.1607V56.3047H44.0913V50.3047H44.8833V51.2407C45.3313 50.5207 46.0033 50.1607 46.8993 50.1607ZM54.0827 51.0727H52.3547V54.7087C52.3547 55.0367 52.4187 55.2727 52.5467 55.4167C52.6747 55.5527 52.8667 55.6247 53.1227 55.6327C53.3787 55.6327 53.6987 55.6247 54.0827 55.6087V56.3047C53.2427 56.4327 52.6107 56.3727 52.1867 56.1247C51.7707 55.8767 51.5627 55.4047 51.5627 54.7087V51.0727H50.3027V50.3047H51.5627V48.8647L52.3547 48.6247V50.3047H54.0827V51.0727ZM59.2667 51.8767C59.2667 52.1487 59.3867 52.3647 59.6267 52.5247C59.8667 52.6847 60.1587 52.8087 60.5027 52.8967C60.8467 52.9847 61.1907 53.0847 61.5347 53.1967C61.8787 53.3007 62.1707 53.4807 62.4107 53.7367C62.6507 53.9847 62.7707 54.3127 62.7707 54.7207C62.7707 55.2327 62.5667 55.6487 62.1587 55.9687C61.7587 56.2887 61.2387 56.4487 60.5987 56.4487C60.0227 56.4487 59.5307 56.3207 59.1227 56.0647C58.7227 55.8087 58.4427 55.4767 58.2827 55.0687L58.9547 54.6727C59.0667 54.9847 59.2667 55.2327 59.5547 55.4167C59.8507 55.5927 60.1987 55.6807 60.5987 55.6807C60.9907 55.6807 61.3187 55.6047 61.5827 55.4527C61.8467 55.2927 61.9787 55.0487 61.9787 54.7207C61.9787 54.4487 61.8587 54.2327 61.6187 54.0727C61.3787 53.9127 61.0867 53.7887 60.7427 53.7007C60.3987 53.6127 60.0547 53.5167 59.7107 53.4127C59.3667 53.3007 59.0747 53.1207 58.8347 52.8727C58.5947 52.6167 58.4747 52.2847 58.4747 51.8767C58.4747 51.3887 58.6667 50.9807 59.0507 50.6527C59.4427 50.3247 59.9347 50.1607 60.5267 50.1607C61.0147 50.1607 61.4427 50.2727 61.8107 50.4967C62.1787 50.7127 62.4507 51.0087 62.6267 51.3847L61.9667 51.7687C61.7347 51.2087 61.2547 50.9287 60.5267 50.9287C60.1827 50.9287 59.8867 51.0127 59.6387 51.1807C59.3907 51.3407 59.2667 51.5727 59.2667 51.8767ZM66.8081 50.1607C67.6961 50.1607 68.4121 50.4767 68.9561 51.1087C69.5081 51.7327 69.7841 52.4727 69.7841 53.3287C69.7841 53.4167 69.7761 53.5407 69.7601 53.7007H64.4921C64.5721 54.3087 64.8281 54.7927 65.2601 55.1527C65.7001 55.5047 66.2401 55.6807 66.8801 55.6807C67.3361 55.6807 67.7281 55.5887 68.0561 55.4047C68.3921 55.2127 68.6441 54.9647 68.8121 54.6607L69.5081 55.0687C69.2441 55.4927 68.8841 55.8287 68.4281 56.0767C67.9721 56.3247 67.4521 56.4487 66.8681 56.4487C65.9241 56.4487 65.1561 56.1527 64.5641 55.5607C63.9721 54.9687 63.6761 54.2167 63.6761 53.3047C63.6761 52.4087 63.9681 51.6607 64.5521 51.0607C65.1361 50.4607 65.8881 50.1607 66.8081 50.1607ZM66.8081 50.9287C66.1841 50.9287 65.6601 51.1167 65.2361 51.4927C64.8201 51.8607 64.5721 52.3407 64.4921 52.9327H68.9681C68.8881 52.3007 68.6441 51.8087 68.2361 51.4567C67.8281 51.1047 67.3521 50.9287 66.8081 50.9287ZM71.9559 51.3007C72.3239 50.5727 72.9559 50.2087 73.8519 50.2087V50.9767C73.3079 50.9767 72.8559 51.1367 72.4959 51.4567C72.1359 51.7767 71.9559 52.2807 71.9559 52.9687V56.3047H71.1639V50.3047H71.9559V51.3007ZM79.3773 50.3047H80.2173L77.7573 56.3047H76.7973L74.3373 50.3047H75.1773L77.2773 55.4767L79.3773 50.3047ZM82.0985 48.8647C81.9865 48.9767 81.8505 49.0327 81.6905 49.0327C81.5305 49.0327 81.3945 48.9767 81.2825 48.8647C81.1705 48.7527 81.1145 48.6167 81.1145 48.4567C81.1145 48.2967 81.1705 48.1607 81.2825 48.0487C81.3945 47.9367 81.5305 47.8807 81.6905 47.8807C81.8505 47.8807 81.9865 47.9367 82.0985 48.0487C82.2105 48.1607 82.2665 48.2967 82.2665 48.4567C82.2665 48.6167 82.2105 48.7527 82.0985 48.8647ZM81.2945 56.3047V50.3047H82.0865V56.3047H81.2945ZM86.6832 56.4487C85.7792 56.4487 85.0272 56.1487 84.4272 55.5487C83.8272 54.9407 83.5272 54.1927 83.5272 53.3047C83.5272 52.4167 83.8272 51.6727 84.4272 51.0727C85.0272 50.4647 85.7792 50.1607 86.6832 50.1607C87.2752 50.1607 87.8072 50.3047 88.2792 50.5927C88.7512 50.8727 89.0952 51.2527 89.3112 51.7327L88.6632 52.1047C88.5032 51.7447 88.2432 51.4607 87.8832 51.2527C87.5312 51.0367 87.1312 50.9287 86.6832 50.9287C86.0192 50.9287 85.4592 51.1607 85.0032 51.6247C84.5472 52.0807 84.3192 52.6407 84.3192 53.3047C84.3192 53.9687 84.5472 54.5327 85.0032 54.9967C85.4592 55.4527 86.0192 55.6807 86.6832 55.6807C87.1312 55.6807 87.5312 55.5767 87.8832 55.3687C88.2352 55.1527 88.5112 54.8647 88.7112 54.5047L89.3712 54.8887C89.1232 55.3687 88.7592 55.7487 88.2792 56.0287C87.7992 56.3087 87.2672 56.4487 86.6832 56.4487ZM93.3417 50.1607C94.2297 50.1607 94.9457 50.4767 95.4897 51.1087C96.0417 51.7327 96.3177 52.4727 96.3177 53.3287C96.3177 53.4167 96.3097 53.5407 96.2937 53.7007H91.0257C91.1057 54.3087 91.3617 54.7927 91.7937 55.1527C92.2337 55.5047 92.7737 55.6807 93.4137 55.6807C93.8697 55.6807 94.2617 55.5887 94.5897 55.4047C94.9257 55.2127 95.1777 54.9647 95.3457 54.6607L96.0417 55.0687C95.7777 55.4927 95.4177 55.8287 94.9617 56.0767C94.5057 56.3247 93.9857 56.4487 93.4017 56.4487C92.4577 56.4487 91.6897 56.1527 91.0977 55.5607C90.5057 54.9687 90.2097 54.2167 90.2097 53.3047C90.2097 52.4087 90.5017 51.6607 91.0857 51.0607C91.6697 50.4607 92.4217 50.1607 93.3417 50.1607ZM93.3417 50.9287C92.7177 50.9287 92.1937 51.1167 91.7697 51.4927C91.3537 51.8607 91.1057 52.3407 91.0257 52.9327H95.5017C95.4217 52.3007 95.1777 51.8087 94.7697 51.4567C94.3617 51.1047 93.8857 50.9287 93.3417 50.9287Z" fill="white"/>
</svg>
