<svg width="101" height="60" viewBox="0 0 101 60" fill="none" xmlns="http://www.w3.org/2000/svg">
<path d="M29.6318 34.5872H21.2822V23.9553H11.0215V34.5872H2.65332V7.97974H11.0215V17.1086H21.2822V7.97974H29.6318V34.5872ZM64.197 34.5872H58.0925V31.5442H57.8513C57.74 31.804 57.3565 32.1998 56.7009 32.7317C56.268 33.1028 55.7608 33.4553 55.1794 33.7893C54.5857 34.1233 53.8311 34.4016 52.9157 34.6243C52.0127 34.8469 51.0788 34.9583 50.114 34.9583C45.7846 34.9583 42.4262 33.7646 40.0388 31.3772C37.6514 29.0022 36.4577 25.65 36.4577 21.3206C36.4577 16.9911 37.7071 13.6204 40.2058 11.2083C42.7168 8.80851 46.1433 7.60864 50.4851 7.60864C52.2168 7.60864 53.8249 7.79419 55.3093 8.16528C56.7937 8.52401 58.0183 9.01261 58.9831 9.6311C59.8985 10.2372 60.7025 10.9052 61.3952 11.635C61.6055 11.87 61.8034 12.1112 61.989 12.3586C62.1869 12.606 62.3601 12.8596 62.5085 13.1194C62.657 13.3668 62.7868 13.6018 62.8982 13.8245C63.0219 14.0347 63.1332 14.276 63.2321 14.5481C63.3311 14.8079 63.4115 15.0243 63.4734 15.1975C63.5476 15.3707 63.6156 15.5872 63.6775 15.8469C63.7517 16.0943 63.8012 16.2737 63.8259 16.385C63.863 16.4963 63.9063 16.6695 63.9558 16.9045C64.0053 17.1272 64.0362 17.2571 64.0486 17.2942L64.0857 17.8694H55.3464C55.3464 17.5972 55.2042 17.2262 54.9196 16.7561C54.6846 16.3974 54.4187 16.0819 54.1218 15.8098C53.7754 15.5006 53.2806 15.2408 52.6374 15.0305C51.9942 14.8202 51.2767 14.7151 50.4851 14.7151C46.9597 14.7151 45.197 16.9045 45.197 21.2834C45.197 25.6747 46.9597 27.8704 50.4851 27.8704C51.4994 27.8704 52.39 27.7219 53.157 27.425C53.9239 27.1282 54.4249 26.8313 54.6599 26.5344L55.0495 26.1077V25.9221H50.1511V20.5227H64.197V34.5872ZM74.3998 31.3586C71.9011 28.9713 70.6518 25.6129 70.6518 21.2834C70.6518 16.9417 71.9011 13.5771 74.3998 11.1897C76.8985 8.80233 80.325 7.60864 84.6791 7.60864C88.7612 7.60864 92.0577 8.62297 94.5688 10.6516C97.0675 12.6679 98.3168 15.3274 98.3168 18.6301H89.6518C89.6518 18.2961 89.5343 17.8385 89.2993 17.2571C89.1261 16.8241 88.8725 16.4221 88.5385 16.051C88.1798 15.6799 87.6603 15.3645 86.9799 15.1047C86.2996 14.845 85.5327 14.7151 84.6791 14.7151C81.1537 14.7151 79.3911 16.9045 79.3911 21.2834C79.3911 25.6747 81.1537 27.8704 84.6791 27.8704C85.5574 27.8704 86.3305 27.7405 86.9985 27.4807C87.6788 27.2209 88.1922 26.887 88.5385 26.4788C89.1941 25.7366 89.5528 25.0191 89.6147 24.3264L89.6518 23.9553H98.3168C98.3168 27.2457 97.0675 29.899 94.5688 31.9153C92.0577 33.9439 88.7612 34.9583 84.6791 34.9583C80.3373 34.9583 76.9109 33.7584 74.3998 31.3586Z" fill="black"/>
<path d="M9.236 50.4432C9.908 50.4432 10.448 50.6592 10.856 51.0912C11.272 51.5232 11.48 52.1072 11.48 52.8432V56.5872H10.688V52.8432C10.688 52.3232 10.552 51.9232 10.28 51.6432C10.016 51.3552 9.664 51.2112 9.224 51.2112C8.728 51.2112 8.324 51.3792 8.012 51.7152C7.708 52.0432 7.556 52.5592 7.556 53.2632V56.5872H6.764V52.8432C6.764 52.3152 6.636 51.9112 6.38 51.6312C6.132 51.3512 5.792 51.2112 5.36 51.2112C4.88 51.2112 4.472 51.3792 4.136 51.7152C3.8 52.0512 3.632 52.5672 3.632 53.2632V56.5872H2.84V50.5872H3.632V51.4632C4.064 50.7832 4.676 50.4432 5.468 50.4432C6.332 50.4432 6.94 50.8072 7.292 51.5352C7.724 50.8072 8.372 50.4432 9.236 50.4432ZM15.9039 50.4432C16.7919 50.4432 17.5079 50.7592 18.0519 51.3912C18.6039 52.0152 18.8799 52.7552 18.8799 53.6112C18.8799 53.6992 18.8719 53.8232 18.8559 53.9832H13.5879C13.6679 54.5912 13.9239 55.0752 14.3559 55.4352C14.7959 55.7872 15.3359 55.9632 15.9759 55.9632C16.4319 55.9632 16.8239 55.8712 17.1519 55.6872C17.4879 55.4952 17.7399 55.2472 17.9079 54.9432L18.6039 55.3512C18.3399 55.7752 17.9799 56.1112 17.5239 56.3592C17.0679 56.6072 16.5479 56.7312 15.9639 56.7312C15.0199 56.7312 14.2519 56.4352 13.6599 55.8432C13.0679 55.2512 12.7719 54.4992 12.7719 53.5872C12.7719 52.6912 13.0639 51.9432 13.6479 51.3432C14.2319 50.7432 14.9839 50.4432 15.9039 50.4432ZM15.9039 51.2112C15.2799 51.2112 14.7559 51.3992 14.3319 51.7752C13.9159 52.1432 13.6679 52.6232 13.5879 53.2152H18.0639C17.9839 52.5832 17.7399 52.0912 17.3319 51.7392C16.9239 51.3872 16.4479 51.2112 15.9039 51.2112ZM21.0517 51.5832C21.4197 50.8552 22.0517 50.4912 22.9477 50.4912V51.2592C22.4037 51.2592 21.9517 51.4192 21.5917 51.7392C21.2317 52.0592 21.0517 52.5632 21.0517 53.2512V56.5872H20.2597V50.5872H21.0517V51.5832ZM26.5858 56.7312C25.6818 56.7312 24.9298 56.4312 24.3298 55.8312C23.7298 55.2232 23.4298 54.4752 23.4298 53.5872C23.4298 52.6992 23.7298 51.9552 24.3298 51.3552C24.9298 50.7472 25.6818 50.4432 26.5858 50.4432C27.1778 50.4432 27.7098 50.5872 28.1818 50.8752C28.6538 51.1552 28.9978 51.5352 29.2138 52.0152L28.5658 52.3872C28.4058 52.0272 28.1458 51.7432 27.7858 51.5352C27.4338 51.3192 27.0338 51.2112 26.5858 51.2112C25.9218 51.2112 25.3618 51.4432 24.9058 51.9072C24.4498 52.3632 24.2218 52.9232 24.2218 53.5872C24.2218 54.2512 24.4498 54.8152 24.9058 55.2792C25.3618 55.7352 25.9218 55.9632 26.5858 55.9632C27.0338 55.9632 27.4338 55.8592 27.7858 55.6512C28.1378 55.4352 28.4138 55.1472 28.6138 54.7872L29.2738 55.1712C29.0258 55.6512 28.6618 56.0312 28.1818 56.3112C27.7018 56.5912 27.1698 56.7312 26.5858 56.7312ZM33.3389 50.4432C34.0669 50.4432 34.6389 50.6672 35.0549 51.1152C35.4789 51.5552 35.6909 52.1512 35.6909 52.9032V56.5872H34.8989V52.9032C34.8989 52.3672 34.7549 51.9512 34.4669 51.6552C34.1869 51.3592 33.7869 51.2112 33.2669 51.2112C32.6909 51.2112 32.2229 51.3952 31.8629 51.7632C31.5029 52.1232 31.3229 52.6832 31.3229 53.4432V56.5872H30.5309V48.1872H31.3229V51.5232C31.7709 50.8032 32.4429 50.4432 33.3389 50.4432ZM42.5023 50.5872H43.2943V56.5872H42.5023V55.4112C41.9503 56.2912 41.1423 56.7312 40.0783 56.7312C39.2223 56.7312 38.4903 56.4272 37.8823 55.8192C37.2823 55.2112 36.9823 54.4672 36.9823 53.5872C36.9823 52.7072 37.2823 51.9632 37.8823 51.3552C38.4903 50.7472 39.2223 50.4432 40.0783 50.4432C41.1423 50.4432 41.9503 50.8832 42.5023 51.7632V50.5872ZM38.4583 55.2792C38.9143 55.7352 39.4743 55.9632 40.1383 55.9632C40.8023 55.9632 41.3623 55.7352 41.8183 55.2792C42.2743 54.8152 42.5023 54.2512 42.5023 53.5872C42.5023 52.9232 42.2743 52.3632 41.8183 51.9072C41.3623 51.4432 40.8023 51.2112 40.1383 51.2112C39.4743 51.2112 38.9143 51.4432 38.4583 51.9072C38.0023 52.3632 37.7743 52.9232 37.7743 53.5872C37.7743 54.2512 38.0023 54.8152 38.4583 55.2792ZM47.8993 50.4432C48.6273 50.4432 49.1993 50.6672 49.6153 51.1152C50.0393 51.5552 50.2513 52.1512 50.2513 52.9032V56.5872H49.4593V52.9032C49.4593 52.3672 49.3153 51.9512 49.0273 51.6552C48.7473 51.3592 48.3473 51.2112 47.8273 51.2112C47.2513 51.2112 46.7833 51.3952 46.4233 51.7632C46.0633 52.1232 45.8833 52.6832 45.8833 53.4432V56.5872H45.0913V50.5872H45.8833V51.5232C46.3313 50.8032 47.0033 50.4432 47.8993 50.4432ZM55.0827 51.3552H53.3547V54.9912C53.3547 55.3192 53.4187 55.5552 53.5467 55.6992C53.6747 55.8352 53.8667 55.9072 54.1227 55.9152C54.3787 55.9152 54.6987 55.9072 55.0827 55.8912V56.5872C54.2427 56.7152 53.6107 56.6552 53.1867 56.4072C52.7707 56.1592 52.5627 55.6872 52.5627 54.9912V51.3552H51.3027V50.5872H52.5627V49.1472L53.3547 48.9072V50.5872H55.0827V51.3552ZM60.2667 52.1592C60.2667 52.4312 60.3867 52.6472 60.6267 52.8072C60.8667 52.9672 61.1587 53.0912 61.5027 53.1792C61.8467 53.2672 62.1907 53.3672 62.5347 53.4792C62.8787 53.5832 63.1707 53.7632 63.4107 54.0192C63.6507 54.2672 63.7707 54.5952 63.7707 55.0032C63.7707 55.5152 63.5667 55.9312 63.1587 56.2512C62.7587 56.5712 62.2387 56.7312 61.5987 56.7312C61.0227 56.7312 60.5307 56.6032 60.1227 56.3472C59.7227 56.0912 59.4427 55.7592 59.2827 55.3512L59.9547 54.9552C60.0667 55.2672 60.2667 55.5152 60.5547 55.6992C60.8507 55.8752 61.1987 55.9632 61.5987 55.9632C61.9907 55.9632 62.3187 55.8872 62.5827 55.7352C62.8467 55.5752 62.9787 55.3312 62.9787 55.0032C62.9787 54.7312 62.8587 54.5152 62.6187 54.3552C62.3787 54.1952 62.0867 54.0712 61.7427 53.9832C61.3987 53.8952 61.0547 53.7992 60.7107 53.6952C60.3667 53.5832 60.0747 53.4032 59.8347 53.1552C59.5947 52.8992 59.4747 52.5672 59.4747 52.1592C59.4747 51.6712 59.6667 51.2632 60.0507 50.9352C60.4427 50.6072 60.9347 50.4432 61.5267 50.4432C62.0147 50.4432 62.4427 50.5552 62.8107 50.7792C63.1787 50.9952 63.4507 51.2912 63.6267 51.6672L62.9667 52.0512C62.7347 51.4912 62.2547 51.2112 61.5267 51.2112C61.1827 51.2112 60.8867 51.2952 60.6387 51.4632C60.3907 51.6232 60.2667 51.8552 60.2667 52.1592ZM67.8081 50.4432C68.6961 50.4432 69.4121 50.7592 69.9561 51.3912C70.5081 52.0152 70.7841 52.7552 70.7841 53.6112C70.7841 53.6992 70.7761 53.8232 70.7601 53.9832H65.4921C65.5721 54.5912 65.8281 55.0752 66.2601 55.4352C66.7001 55.7872 67.2401 55.9632 67.8801 55.9632C68.3361 55.9632 68.7281 55.8712 69.0561 55.6872C69.3921 55.4952 69.6441 55.2472 69.8121 54.9432L70.5081 55.3512C70.2441 55.7752 69.8841 56.1112 69.4281 56.3592C68.9721 56.6072 68.4521 56.7312 67.8681 56.7312C66.9241 56.7312 66.1561 56.4352 65.5641 55.8432C64.9721 55.2512 64.6761 54.4992 64.6761 53.5872C64.6761 52.6912 64.9681 51.9432 65.5521 51.3432C66.1361 50.7432 66.8881 50.4432 67.8081 50.4432ZM67.8081 51.2112C67.1841 51.2112 66.6601 51.3992 66.2361 51.7752C65.8201 52.1432 65.5721 52.6232 65.4921 53.2152H69.9681C69.8881 52.5832 69.6441 52.0912 69.2361 51.7392C68.8281 51.3872 68.3521 51.2112 67.8081 51.2112ZM72.9559 51.5832C73.3239 50.8552 73.9559 50.4912 74.8519 50.4912V51.2592C74.3079 51.2592 73.8559 51.4192 73.4959 51.7392C73.1359 52.0592 72.9559 52.5632 72.9559 53.2512V56.5872H72.1639V50.5872H72.9559V51.5832ZM80.3773 50.5872H81.2173L78.7573 56.5872H77.7973L75.3373 50.5872H76.1773L78.2773 55.7592L80.3773 50.5872ZM83.0985 49.1472C82.9865 49.2592 82.8505 49.3152 82.6905 49.3152C82.5305 49.3152 82.3945 49.2592 82.2825 49.1472C82.1705 49.0352 82.1145 48.8992 82.1145 48.7392C82.1145 48.5792 82.1705 48.4432 82.2825 48.3312C82.3945 48.2192 82.5305 48.1632 82.6905 48.1632C82.8505 48.1632 82.9865 48.2192 83.0985 48.3312C83.2105 48.4432 83.2665 48.5792 83.2665 48.7392C83.2665 48.8992 83.2105 49.0352 83.0985 49.1472ZM82.2945 56.5872V50.5872H83.0865V56.5872H82.2945ZM87.6832 56.7312C86.7792 56.7312 86.0272 56.4312 85.4272 55.8312C84.8272 55.2232 84.5272 54.4752 84.5272 53.5872C84.5272 52.6992 84.8272 51.9552 85.4272 51.3552C86.0272 50.7472 86.7792 50.4432 87.6832 50.4432C88.2752 50.4432 88.8072 50.5872 89.2792 50.8752C89.7512 51.1552 90.0952 51.5352 90.3112 52.0152L89.6632 52.3872C89.5032 52.0272 89.2432 51.7432 88.8832 51.5352C88.5312 51.3192 88.1312 51.2112 87.6832 51.2112C87.0192 51.2112 86.4592 51.4432 86.0032 51.9072C85.5472 52.3632 85.3192 52.9232 85.3192 53.5872C85.3192 54.2512 85.5472 54.8152 86.0032 55.2792C86.4592 55.7352 87.0192 55.9632 87.6832 55.9632C88.1312 55.9632 88.5312 55.8592 88.8832 55.6512C89.2352 55.4352 89.5112 55.1472 89.7112 54.7872L90.3712 55.1712C90.1232 55.6512 89.7592 56.0312 89.2792 56.3112C88.7992 56.5912 88.2672 56.7312 87.6832 56.7312ZM94.3417 50.4432C95.2297 50.4432 95.9457 50.7592 96.4897 51.3912C97.0417 52.0152 97.3177 52.7552 97.3177 53.6112C97.3177 53.6992 97.3097 53.8232 97.2937 53.9832H92.0257C92.1057 54.5912 92.3617 55.0752 92.7937 55.4352C93.2337 55.7872 93.7737 55.9632 94.4137 55.9632C94.8697 55.9632 95.2617 55.8712 95.5897 55.6872C95.9257 55.4952 96.1777 55.2472 96.3457 54.9432L97.0417 55.3512C96.7777 55.7752 96.4177 56.1112 95.9617 56.3592C95.5057 56.6072 94.9857 56.7312 94.4017 56.7312C93.4577 56.7312 92.6897 56.4352 92.0977 55.8432C91.5057 55.2512 91.2097 54.4992 91.2097 53.5872C91.2097 52.6912 91.5017 51.9432 92.0857 51.3432C92.6697 50.7432 93.4217 50.4432 94.3417 50.4432ZM94.3417 51.2112C93.7177 51.2112 93.1937 51.3992 92.7697 51.7752C92.3537 52.1432 92.1057 52.6232 92.0257 53.2152H96.5017C96.4217 52.5832 96.1777 52.0912 95.7697 51.7392C95.3617 51.3872 94.8857 51.2112 94.3417 51.2112Z" fill="black"/>
</svg>
