<svg width="51" height="71" viewBox="0 0 51 71" fill="none" xmlns="http://www.w3.org/2000/svg">
<path d="M39.875 47.849H39.77V47.954V64.3602C39.77 67.9116 36.8639 70.8177 33.3125 70.8177H7.0625C3.51111 70.8177 0.605 67.9116 0.605 64.3602V7.48523C0.605 3.93384 3.51111 1.02773 7.0625 1.02773H33.3125C36.8639 1.02773 39.77 3.93384 39.77 7.48523V21.704V21.809H39.875H47.5312C49.3326 21.809 50.7075 23.1838 50.7075 24.9852V44.6727C50.7075 46.4741 49.3326 47.849 47.5312 47.849H39.875ZM11.4375 34.724H11.3325V34.829V44.6727C11.3325 45.0247 11.4503 45.3262 11.664 45.5399C11.8778 45.7537 12.1793 45.8715 12.5312 45.8715H47.5312C47.8832 45.8715 48.1847 45.7537 48.3985 45.5399C48.6122 45.3262 48.73 45.0247 48.73 44.6727V34.829V34.724H48.625H11.4375ZM48.625 32.7465H48.73V32.6415V29.3602V29.2552H48.625H11.4375H11.3325V29.3602V32.6415V32.7465H11.4375H48.625ZM48.625 27.2777H48.73V27.1727V24.9852C48.73 24.6332 48.6122 24.3318 48.3985 24.118C48.1847 23.9043 47.8832 23.7865 47.5312 23.7865H12.5312C12.1793 23.7865 11.8778 23.9043 11.664 24.118C11.4503 24.3318 11.3325 24.6332 11.3325 24.9852V27.1727V27.2777H11.4375H48.625ZM37.6875 9.77773H37.7925V9.67273V7.48523C37.7925 5.02099 35.7767 3.00523 33.3125 3.00523H7.0625C4.59826 3.00523 2.5825 5.02099 2.5825 7.48523V9.67273V9.77773H2.6875H37.6875ZM2.6875 11.7552H2.5825V11.8602V59.9852V60.0902H2.6875H37.6875H37.7925V59.9852V47.954V47.849H37.6875H12.5312C10.7299 47.849 9.355 46.4741 9.355 44.6727V24.9852C9.355 23.1838 10.7299 21.809 12.5312 21.809H37.6875H37.7925V21.704V11.8602V11.7552H37.6875H2.6875ZM2.6875 62.0677H2.5825V62.1727V64.3602C2.5825 66.8245 4.59826 68.8402 7.0625 68.8402H33.3125C35.7767 68.8402 37.7925 66.8245 37.7925 64.3602V62.1727V62.0677H37.6875H2.6875Z" fill="#9ACEFF" stroke="#3F40A7" stroke-width="0.21"/>
<path d="M24.5625 66.4427H15.8125C15.5082 66.4427 15.2628 66.3418 15.0938 66.1727C14.9247 66.0036 14.8237 65.7582 14.8237 65.454C14.8237 65.1497 14.9247 64.9043 15.0938 64.7353C15.2628 64.5662 15.5082 64.4652 15.8125 64.4652H24.5625C24.8668 64.4652 25.1122 64.5662 25.2812 64.7353C25.4503 64.9043 25.5513 65.1497 25.5513 65.454C25.5513 65.7582 25.4503 66.0036 25.2812 66.1727C25.1122 66.3418 24.8668 66.4427 24.5625 66.4427Z" fill="#9ACEFF" stroke="#3F40A7" stroke-width="0.21"/>
<path d="M27.8438 39.099H14.7188C14.4145 39.099 14.1691 38.998 14 38.829C13.831 38.6599 13.73 38.4145 13.73 38.1102C13.73 37.806 13.831 37.5606 14 37.3915C14.1691 37.2224 14.4145 37.1215 14.7188 37.1215H27.8438C28.148 37.1215 28.3934 37.2224 28.5625 37.3915C28.7315 37.5606 28.8325 37.806 28.8325 38.1102C28.8325 38.4145 28.7315 38.6599 28.5625 38.829C28.3934 38.998 28.148 39.099 27.8438 39.099Z" fill="#9ACEFF" stroke="#3F40A7" stroke-width="0.21"/>
<path d="M37.6875 39.099H32.2188C31.9145 39.099 31.6691 38.998 31.5 38.829C31.331 38.6599 31.23 38.4145 31.23 38.1102C31.23 37.806 31.331 37.5606 31.5 37.3915C31.6691 37.2224 31.9145 37.1215 32.2188 37.1215H37.6875C37.9918 37.1215 38.2372 37.2224 38.4062 37.3915C38.5753 37.5606 38.6762 37.806 38.6762 38.1102C38.6762 38.4145 38.5753 38.6599 38.4062 38.829C38.2372 38.998 37.9918 39.099 37.6875 39.099Z" fill="#9ACEFF" stroke="#3F40A7" stroke-width="0.21"/>
</svg>
