<svg width="73" height="73" viewBox="0 0 73 73" fill="none" xmlns="http://www.w3.org/2000/svg">
<path d="M5.29453 68.1275V66.105H7.31711V68.1275H5.29453Z" fill="#9ACEFF" stroke="#3F40A7" stroke-width="0.3"/>
<path d="M9.94102 68.1275V66.105H11.9636V68.1275H9.94102Z" fill="#9ACEFF" stroke="#3F40A7" stroke-width="0.3"/>
<path d="M14.5855 68.1275V66.105H16.6081V68.1275H14.5855Z" fill="#9ACEFF" stroke="#3F40A7" stroke-width="0.3"/>
<path d="M5.29453 63.4824V61.4598H16.6074V63.4824H5.29453Z" fill="#9ACEFF" stroke="#3F40A7" stroke-width="0.3"/>
<path d="M22.7515 34.7501H22.9601L22.8937 34.5524C22.0206 31.9541 21.5532 29.2481 21.5532 26.4711C21.5532 12.4663 32.9468 1.07273 46.9516 1.07273C60.9564 1.07273 72.35 12.4663 72.35 26.4711C72.35 37.9086 64.7954 47.8079 53.8786 50.8904L53.7694 50.9212V51.0347V69.4389C53.7694 71.2768 52.2734 72.7727 50.4355 72.7727H3.98387C2.14594 72.7727 0.65 71.2768 0.65 69.4389V38.084C0.65 36.2461 2.14594 34.7501 3.98387 34.7501H22.7515ZM51.5968 46.3631H51.7468V46.2131V41.5679V41.4179H51.5968H2.82258H2.67258V41.5679V46.2131V46.3631H2.82258H51.5968ZM53.9194 39.0953H53.7694V39.2453V43.6036L54.0535 43.6707C54.7104 42.3569 55.2871 40.8857 55.7712 39.2888L55.8298 39.0953H55.6276H53.9194ZM53.5644 36.9731L53.5999 37.0727H53.7057H56.2524H56.3715L56.3985 36.9567C57.0664 34.0868 57.4589 30.9178 57.5346 27.6359L57.5381 27.4824H57.3846H36.5267H36.3733L36.3767 27.6358C36.4315 30.0398 36.6551 32.3802 37.0443 34.6258L37.0659 34.7501H37.1921H50.4355C51.8809 34.7501 53.1038 35.6815 53.5644 36.9731ZM23.6352 25.3024L23.6274 25.4598H23.785H34.2053H34.3521L34.3553 25.3131C34.4271 22.0075 34.7907 18.8864 35.4109 16.0516L35.4507 15.8695H35.2644H26.2388H26.1467L26.105 15.9517C24.6684 18.7887 23.8023 21.9517 23.6352 25.3024ZM37.6694 15.8695H37.5505L37.5234 15.9853C36.8578 18.8284 36.4559 21.9881 36.3779 25.3063L36.3743 25.4598H36.5279H57.3765H57.5301L57.5265 25.3062C57.4473 21.9881 57.0455 18.8284 56.3799 15.9853L56.3527 15.8695H56.2338H37.6694ZM55.6195 13.8469H55.8218L55.763 13.6533C54.8113 10.5184 53.527 7.88605 52.0261 6.0342C50.5264 4.18378 48.795 3.09531 46.9516 3.09531C45.1082 3.09531 43.3768 4.18378 41.8771 6.0342C40.3762 7.88605 39.0919 10.5184 38.1402 13.6533L38.0814 13.8469H38.2837H55.6195ZM70.1182 25.4598H70.2758L70.268 25.3024C70.1021 21.9517 69.236 18.7887 67.797 15.9517L67.7553 15.8695H67.6632H58.6377H58.4513L58.4911 16.0516C59.1113 18.8864 59.4762 22.0076 59.5468 25.313L59.5499 25.4598H59.6968H70.1182ZM59.7072 27.4824H59.5604L59.5573 27.6292C59.4878 30.895 59.1207 34.0231 58.4935 36.8907L58.4536 37.0727H58.64H67.6899H67.7824L67.824 36.9901C69.2558 34.1404 70.1125 30.9729 70.2773 27.6398L70.2851 27.4824H70.1275H59.7072ZM66.3289 13.8469H66.608L66.454 13.6142C63.3942 8.98821 58.7332 5.52514 53.269 3.98699L52.7685 3.84607L53.1171 4.23194C55.1198 6.44846 56.7763 9.73256 57.9116 13.7378L57.9425 13.8469H58.0559H66.3289ZM40.7861 4.23194L41.1348 3.84607L40.6342 3.98699C35.17 5.52514 30.509 8.98821 27.4492 13.6142L27.2953 13.8469H27.5743H35.8474H35.9607L35.9917 13.7379C37.1281 9.73254 38.7835 6.44844 40.7861 4.23194ZM23.7815 27.4824H23.624L23.6317 27.6397C23.7498 30.0519 24.2313 32.4026 25.0741 34.6528L25.1106 34.7501H25.2146H34.837H35.0137L34.985 34.5758C34.617 32.3372 34.4062 30.0112 34.3541 27.6291L34.3509 27.4824H34.2041H23.7815ZM51.5968 39.3953H51.7468V39.2453V38.084C51.7468 37.3613 51.1582 36.7727 50.4355 36.7727H3.98387C3.26116 36.7727 2.67258 37.3613 2.67258 38.084V39.2453V39.3953H2.82258H51.5968ZM2.82258 48.3856H2.67258V48.5356V69.4389C2.67258 70.1616 3.26116 70.7501 3.98387 70.7501H50.4355C51.1582 70.7501 51.7468 70.1616 51.7468 69.4389V48.5356V48.3856H51.5968H2.82258ZM53.7694 48.6181V48.8222L53.9641 48.7612C59.2293 47.1145 63.6031 43.7343 66.4961 39.3276L66.6486 39.0953H66.3707H58.064H57.9506L57.9197 39.2045C56.9327 42.6917 55.5325 45.6734 53.801 47.8953L53.7694 47.936V47.9875V48.6181Z" fill="#9ACEFF" stroke="#3F40A7" stroke-width="0.3"/>
<path d="M45.941 22.8373V20.8147H47.9636V22.8373H45.941Z" fill="#9ACEFF" stroke="#3F40A7" stroke-width="0.3"/>
<path d="M50.5855 22.8373V20.8147H52.6081V22.8373H50.5855Z" fill="#9ACEFF" stroke="#3F40A7" stroke-width="0.3"/>
<path d="M41.2945 22.8373V20.8147H43.3171V22.8373H41.2945Z" fill="#9ACEFF" stroke="#3F40A7" stroke-width="0.3"/>
<path d="M50.5855 32.1276V30.105H52.6081V32.1276H50.5855Z" fill="#9ACEFF" stroke="#3F40A7" stroke-width="0.3"/>
<path d="M45.941 32.1276V30.105H47.9636V32.1276H45.941Z" fill="#9ACEFF" stroke="#3F40A7" stroke-width="0.3"/>
<path d="M41.2945 32.1276V30.105H43.3171V32.1276H41.2945Z" fill="#9ACEFF" stroke="#3F40A7" stroke-width="0.3"/>
<path d="M38.7474 55.4148L38.8227 55.4585L38.898 55.4148C39.9029 54.8316 41.0651 54.4921 42.3066 54.4921C46.0664 54.4921 49.1243 57.55 49.1243 61.3098C49.1243 65.0697 46.0664 68.1276 42.3066 68.1276C41.0651 68.1276 39.9029 67.788 38.898 67.2049L38.8227 67.1612L38.7474 67.2049C37.7425 67.788 36.5803 68.1276 35.3388 68.1276C31.579 68.1276 28.5211 65.0697 28.5211 61.3098C28.5211 57.55 31.579 54.4921 35.3388 54.4921C36.5803 54.4921 37.7425 54.8316 38.7474 55.4148ZM38.7098 64.4489L38.8228 64.578L38.9357 64.4488C39.6716 63.6064 40.134 62.5176 40.134 61.3098C40.134 60.1022 39.6716 59.0121 38.9356 58.1708L38.8226 58.0417L38.7097 58.1709C37.9739 59.0133 37.5114 60.1021 37.5114 61.3098C37.5114 62.5175 37.9738 63.6076 38.7098 64.4489ZM36.9978 57.0421L37.1306 56.8773L36.9311 56.8066C36.4336 56.6305 35.9031 56.5147 35.3388 56.5147C32.6942 56.5147 30.5437 58.6652 30.5437 61.3098C30.5437 63.9545 32.6942 66.105 35.3388 66.105C35.9031 66.105 36.4336 65.9892 36.9311 65.813L37.1306 65.7424L36.9978 65.5775C36.0556 64.408 35.4888 62.9243 35.4888 61.3098C35.4888 59.6954 36.0556 58.2117 36.9978 57.0421ZM40.6476 65.5775L40.5148 65.7424L40.7143 65.813C41.2118 65.9892 41.7423 66.105 42.3066 66.105C44.9512 66.105 47.1017 63.9545 47.1017 61.3098C47.1017 58.6652 44.9512 56.5147 42.3066 56.5147C41.7423 56.5147 41.2118 56.6305 40.7143 56.8066L40.5148 56.8773L40.6476 57.0421C41.5898 58.2117 42.1566 59.6954 42.1566 61.3098C42.1566 62.9243 41.5898 64.408 40.6476 65.5775Z" fill="#9ACEFF" stroke="#3F40A7" stroke-width="0.3"/>
</svg>
