<svg width="92" height="65" viewBox="0 0 92 65" fill="none" xmlns="http://www.w3.org/2000/svg">
<path d="M90.781 38.3962L90.7843 38.4044L90.788 38.4124C91.199 39.2847 91.5313 40.99 91.0975 42.7706C90.6683 44.5323 89.4875 46.3775 86.8532 47.5665L76.8349 51.581L76.6465 51.6565V51.8595V56.7013C76.6465 60.5884 73.4812 63.7536 69.5941 63.7536H7.85235C3.96528 63.7536 0.8 60.5884 0.8 56.7013V21.4279C0.8 17.5409 3.96528 14.3756 7.85235 14.3756H36.8493H36.9071L36.9608 14.3541L68.4811 1.73164C71.114 0.789238 73.2682 1.27248 74.8328 2.23139C76.4147 3.20083 77.3871 4.65167 77.6428 5.61653L77.6475 5.63428L77.6543 5.65133L90.781 38.3962ZM74.0056 23.1984H74.3056V22.8984V21.4279C74.3056 18.8234 72.1987 16.7165 69.5941 16.7165H7.85235C5.24784 16.7165 3.14094 18.8234 3.14094 21.4279V22.8984V23.1984H3.44094H74.0056ZM74.0056 32.0212H74.3056V31.7212V25.8394V25.5394H74.0056H3.44094H3.14094V25.8394V31.7212V32.0212H3.44094H74.0056ZM3.44094 34.3622H3.14094V34.6622V56.7192C3.14094 59.3237 5.24784 61.4306 7.85235 61.4306H69.5941C72.1807 61.4306 74.3056 59.3058 74.3056 56.7192V34.6622V34.3622H74.0056H3.44094ZM85.9882 45.3954L85.9883 45.3954C86.579 45.1591 87.527 44.5248 88.1845 43.5065C88.851 42.4742 89.2142 41.0525 88.618 39.2827L88.6153 39.2747L88.6121 39.2668L75.4866 6.52468C75.4864 6.52426 75.4863 6.52384 75.4861 6.52342C75.196 5.77976 74.5289 4.81943 73.5026 4.19411C72.4627 3.56045 71.0678 3.28037 69.3667 3.89466L69.3667 3.89449L69.3571 3.89834L44.646 13.7971L44.7576 14.3756H69.5941C73.4812 14.3756 76.6465 17.5409 76.6465 21.4279V48.6854V49.1284L77.0578 48.964L85.9882 45.3954Z" fill="#9ACEFF" stroke="#3F40A7" stroke-width="0.6"/>
<path d="M8.15156 44.6555V42.3145H26.6677V44.6555H8.15156Z" fill="#9ACEFF" stroke="#3F40A7" stroke-width="0.6"/>
<path d="M8.15156 54.9487V52.6078H36.961V54.9487H8.15156Z" fill="#9ACEFF" stroke="#3F40A7" stroke-width="0.6"/>
<path d="M60.6215 47.4924L60.772 47.5797L60.9226 47.4924C61.7762 46.9972 62.7289 46.7259 63.713 46.7259C66.7931 46.7259 69.2949 49.2277 69.2949 52.3078C69.2949 55.3879 66.7931 57.8897 63.713 57.8897C62.7289 57.8897 61.7762 57.6183 60.9226 57.1232L60.772 57.0359L60.6215 57.1232C59.7678 57.6183 58.8152 57.8897 57.8311 57.8897C54.751 57.8897 52.2492 55.3879 52.2492 52.3078C52.2492 49.2277 54.751 46.7259 57.8311 46.7259C58.8152 46.7259 59.7678 46.9972 60.6215 47.4924ZM60.796 50.5483C60.7882 50.5561 60.7806 50.5639 60.7732 50.5715C60.7662 50.5642 60.7589 50.5568 60.7516 50.5493C60.5933 50.3871 60.3647 50.1709 60.0831 49.954C59.5279 49.5266 58.7275 49.0668 57.8311 49.0668C56.0515 49.0668 54.5902 50.5282 54.5902 52.3078C54.5902 54.0874 56.0515 55.5487 57.8311 55.5487C58.7361 55.5487 59.5364 55.0894 60.0903 54.6612C60.371 54.4441 60.5981 54.2276 60.7551 54.0653C60.7596 54.0606 60.764 54.056 60.7684 54.0515C60.7717 54.055 60.7751 54.0586 60.7785 54.0622C60.9317 54.2252 61.1541 54.4423 61.4322 54.66C61.9821 55.0906 62.7822 55.5487 63.713 55.5487C65.4926 55.5487 66.9539 54.0874 66.9539 52.3078C66.9539 50.5282 65.4926 49.0668 63.713 49.0668C62.8252 49.0668 62.0247 49.527 61.4682 49.9537C61.1857 50.1703 60.9556 50.3863 60.796 50.5483Z" fill="#9ACEFF" stroke="#3F40A7" stroke-width="0.6"/>
</svg>
