<svg width="67" height="71" viewBox="0 0 67 71" fill="none" xmlns="http://www.w3.org/2000/svg">
<path d="M46.5591 23.8915V23.9915H46.6591H62.2643C64.3378 23.9915 66.025 25.6787 66.025 27.7522V53.9365C66.025 56.0106 64.3378 57.6977 62.2643 57.6977H46.6591H46.5591V57.7977V69.829C46.5591 70.3778 46.1142 70.8227 45.5654 70.8227H1.59375C1.04496 70.8227 0.6 70.3778 0.6 69.829V10.7665C0.6 10.2177 1.04496 9.77273 1.59375 9.77273H5.96875H6.06875V9.67273V2.01648C6.06875 1.46769 6.51371 1.02273 7.0625 1.02273H15.8125C16.3613 1.02273 16.8062 1.46769 16.8062 2.01648V9.67273V9.77273H16.9062H45.5654C46.1142 9.77273 46.5591 10.2177 46.5591 10.7665V23.8915ZM8.15625 3.01023H8.05625V3.11023V9.67273V9.77273H8.15625H14.7188H14.8188V9.67273V3.11023V3.01023H14.7188H8.15625ZM44.4716 68.8352H44.5716V68.7352V56.704V24.9852V11.8602V11.7602H44.4716H15.8125H7.0625H2.6875H2.5875V11.8602V68.7352V68.8352H2.6875H44.4716ZM46.6591 25.979H46.5591V26.079V55.6102V55.7102H46.6591H58.4688H58.5687V55.6102V26.079V25.979H58.4688H46.6591ZM60.5563 55.6102V55.7102H60.6562H62.2643C63.2424 55.7102 64.0375 54.9145 64.0375 53.9365V27.7522C64.0375 26.7741 63.2424 25.979 62.2643 25.979H60.6562H60.5563V26.079V55.6102Z" fill="#9ACEFF" stroke="#3F40A7" stroke-width="0.2"/>
<path d="M50.0085 32.6757L50.021 32.6415L50.0085 32.6073C49.2656 30.5635 50.7967 28.3665 53.0009 28.3665C55.1992 28.3665 56.7368 30.5577 55.9937 32.6074L55.9814 32.6415L55.9937 32.6756C56.425 33.8653 56.2487 34.8243 55.7555 35.5217C55.2596 36.223 54.4345 36.6719 53.5491 36.8182C52.6637 36.9645 51.7299 36.8061 51.0202 36.3082C50.3143 35.8128 49.8196 34.9743 49.8196 33.7352C49.8196 33.3771 49.8837 33.0185 50.0085 32.6757ZM51.9757 33.1417L51.9755 33.1419C51.7212 33.5803 51.7215 33.9727 51.8863 34.28C52.0482 34.5821 52.3595 34.7838 52.6938 34.8677C53.0283 34.9515 53.4014 34.9214 53.6946 34.7401C53.9928 34.5557 54.1946 34.2234 54.1946 33.7352C54.1946 33.5691 54.1525 33.4266 54.1005 33.2979C54.076 33.237 54.0487 33.1781 54.0228 33.122L54.019 33.1137C53.9915 33.0543 53.9657 32.9979 53.9433 32.9408C53.899 32.8276 53.8704 32.7163 53.876 32.5917C53.8815 32.4674 53.9213 32.3218 54.0262 32.1417L54.0263 32.1416C54.2806 31.7031 54.2804 31.3106 54.1156 31.0032C53.9537 30.701 53.6424 30.4992 53.3081 30.4154C52.9736 30.3315 52.6005 30.3616 52.3073 30.5429C52.009 30.7272 51.8071 31.0596 51.8071 31.5477C51.8071 31.7137 51.8495 31.8562 51.9016 31.9848C51.9261 32.0454 51.9534 32.1041 51.9794 32.1601L51.9834 32.1688C52.011 32.2282 52.0369 32.2845 52.0593 32.3416C52.1037 32.4548 52.1323 32.5661 52.1267 32.6908C52.1211 32.8153 52.081 32.9612 51.9757 33.1417Z" fill="#9ACEFF" stroke="#3F40A7" stroke-width="0.2"/>
<path d="M52.0063 43.579C52.0063 43.0302 52.4512 42.5852 53 42.5852C53.5488 42.5852 53.9938 43.0302 53.9938 43.579V45.7665C53.9938 46.3153 53.5488 46.7602 53 46.7602C52.4512 46.7602 52.0063 46.3153 52.0063 45.7665V43.579Z" fill="#9ACEFF" stroke="#3F40A7" stroke-width="0.2"/>
<path d="M52.0063 50.1415C52.0063 49.5927 52.4512 49.1477 53 49.1477C53.5488 49.1477 53.9938 49.5927 53.9938 50.1415V52.329C53.9938 52.8778 53.5488 53.3227 53 53.3227C52.4512 53.3227 52.0063 52.8778 52.0063 52.329V50.1415Z" fill="#9ACEFF" stroke="#3F40A7" stroke-width="0.2"/>
<path d="M39.875 27.2727H39.975V27.1727V18.4227V18.3227H39.875H7.0625H6.9625V18.4227V27.1727V27.2727H7.0625H39.875ZM5.96875 16.3352H40.9688C41.5175 16.3352 41.9625 16.7802 41.9625 17.329V28.2665C41.9625 28.8153 41.5175 29.2602 40.9688 29.2602H5.96875C5.41996 29.2602 4.975 28.8153 4.975 28.2665V17.329C4.975 16.7802 5.41996 16.3352 5.96875 16.3352Z" fill="#9ACEFF" stroke="#3F40A7" stroke-width="0.2"/>
<path d="M12.4313 23.8915C12.4313 24.4403 11.9863 24.8852 11.4375 24.8852C10.8887 24.8852 10.4438 24.4403 10.4438 23.8915V21.704C10.4438 21.1552 10.8887 20.7102 11.4375 20.7102C11.9863 20.7102 12.4313 21.1552 12.4313 21.704V23.8915Z" fill="#9ACEFF" stroke="#3F40A7" stroke-width="0.2"/>
<path d="M16.8063 23.8915C16.8063 24.4403 16.3613 24.8852 15.8125 24.8852C15.2637 24.8852 14.8188 24.4403 14.8188 23.8915V21.704C14.8188 21.1552 15.2637 20.7102 15.8125 20.7102C16.3613 20.7102 16.8063 21.1552 16.8063 21.704V23.8915Z" fill="#9ACEFF" stroke="#3F40A7" stroke-width="0.2"/>
<path d="M21.1813 23.8915C21.1813 24.4403 20.7363 24.8852 20.1875 24.8852C19.6387 24.8852 19.1938 24.4403 19.1938 23.8915V21.704C19.1938 21.1552 19.6387 20.7102 20.1875 20.7102C20.7363 20.7102 21.1813 21.1552 21.1813 21.704V23.8915Z" fill="#9ACEFF" stroke="#3F40A7" stroke-width="0.2"/>
<path d="M25.5563 23.8915C25.5563 24.4403 25.1113 24.8852 24.5625 24.8852C24.0137 24.8852 23.5688 24.4403 23.5688 23.8915V21.704C23.5688 21.1552 24.0137 20.7102 24.5625 20.7102C25.1113 20.7102 25.5563 21.1552 25.5563 21.704V23.8915Z" fill="#9ACEFF" stroke="#3F40A7" stroke-width="0.2"/>
<path d="M14.5014 40.5735H14.6014V40.4735V37.5046V37.4046H14.5014H10.9648H10.8648V37.5046V40.4735V40.5735H10.9648H14.5014ZM9.87109 35.4171H15.5951C16.1439 35.4171 16.5889 35.8621 16.5889 36.4109V41.5672C16.5889 42.116 16.1439 42.561 15.5951 42.561H9.87109C9.3223 42.561 8.87734 42.116 8.87734 41.5672V36.4109C8.87734 35.8621 9.3223 35.4171 9.87109 35.4171Z" fill="#9ACEFF" stroke="#3F40A7" stroke-width="0.2"/>
<path d="M24.7631 40.5735H24.8631V40.4735V37.5046V37.4046H24.7631H21.2266H21.1266V37.5046V40.4735V40.5735H21.2266H24.7631ZM20.1328 35.4171H25.8568C26.4056 35.4171 26.8506 35.8621 26.8506 36.4109V41.5672C26.8506 42.116 26.4056 42.561 25.8568 42.561H20.1328C19.584 42.561 19.1391 42.116 19.1391 41.5672V36.4109C19.1391 35.8621 19.584 35.4171 20.1328 35.4171Z" fill="#9ACEFF" stroke="#3F40A7" stroke-width="0.2"/>
<path d="M35.0282 40.5735H35.1282V40.4735V37.5046V37.4046H35.0282H31.4922H31.3922V37.5046V40.4735V40.5735H31.4922H35.0282ZM30.3984 35.4171H36.1219C36.6707 35.4171 37.1157 35.8621 37.1157 36.4109V41.5672C37.1157 42.116 36.6707 42.561 36.1219 42.561H30.3984C29.8496 42.561 29.4047 42.116 29.4047 41.5672V36.4109C29.4047 35.8621 29.8496 35.4171 30.3984 35.4171Z" fill="#9ACEFF" stroke="#3F40A7" stroke-width="0.2"/>
<path d="M14.5014 50.6319H14.6014V50.5319V47.563V47.463H14.5014H10.9648H10.8648V47.563V50.5319V50.6319H10.9648H14.5014ZM9.87109 45.4755H15.5951C16.1439 45.4755 16.5889 45.9205 16.5889 46.4693V51.6256C16.5889 52.1744 16.1439 52.6194 15.5951 52.6194H9.87109C9.3223 52.6194 8.87734 52.1744 8.87734 51.6256V46.4693C8.87734 45.9205 9.3223 45.4755 9.87109 45.4755Z" fill="#9ACEFF" stroke="#3F40A7" stroke-width="0.2"/>
<path d="M24.7631 50.6319H24.8631V50.5319V47.563V47.463H24.7631H21.2266H21.1266V47.563V50.5319V50.6319H21.2266H24.7631ZM20.1328 45.4755H25.8568C26.4056 45.4755 26.8506 45.9205 26.8506 46.4693V51.6256C26.8506 52.1744 26.4056 52.6194 25.8568 52.6194H20.1328C19.584 52.6194 19.1391 52.1744 19.1391 51.6256V46.4693C19.1391 45.9205 19.584 45.4755 20.1328 45.4755Z" fill="#9ACEFF" stroke="#3F40A7" stroke-width="0.2"/>
<path d="M35.0282 50.6319H35.1282V50.5319V47.563V47.463H35.0282H31.4922H31.3922V47.563V50.5319V50.6319H31.4922H35.0282ZM30.3984 45.4755H36.1219C36.6707 45.4755 37.1157 45.9205 37.1157 46.4693V51.6256C37.1157 52.1744 36.6707 52.6194 36.1219 52.6194H30.3984C29.8496 52.6194 29.4047 52.1744 29.4047 51.6256V46.4693C29.4047 45.9205 29.8496 45.4755 30.3984 45.4755Z" fill="#9ACEFF" stroke="#3F40A7" stroke-width="0.2"/>
<path d="M14.5014 60.6903H14.6014V60.5903V57.6215V57.5215H14.5014H10.9648H10.8648V57.6215V60.5903V60.6903H10.9648H14.5014ZM9.87109 55.534H15.5951C16.1439 55.534 16.5889 55.9789 16.5889 56.5277V61.684C16.5889 62.2328 16.1439 62.6778 15.5951 62.6778H9.87109C9.3223 62.6778 8.87734 62.2328 8.87734 61.684V56.5277C8.87734 55.9789 9.3223 55.534 9.87109 55.534Z" fill="#9ACEFF" stroke="#3F40A7" stroke-width="0.2"/>
<path d="M24.7631 60.6903H24.8631V60.5903V57.6215V57.5215H24.7631H21.2266H21.1266V57.6215V60.5903V60.6903H21.2266H24.7631ZM20.1328 55.534H25.8568C26.4056 55.534 26.8506 55.9789 26.8506 56.5277V61.684C26.8506 62.2328 26.4056 62.6778 25.8568 62.6778H20.1328C19.584 62.6778 19.1391 62.2328 19.1391 61.684V56.5277C19.1391 55.9789 19.584 55.534 20.1328 55.534Z" fill="#9ACEFF" stroke="#3F40A7" stroke-width="0.2"/>
<path d="M35.0282 60.6903H35.1282V60.5903V57.6215V57.5215H35.0282H31.4922H31.3922V57.6215V60.5903V60.6903H31.4922H35.0282ZM30.3984 55.534H36.1219C36.6707 55.534 37.1157 55.9789 37.1157 56.5277V61.684C37.1157 62.2328 36.6707 62.6778 36.1219 62.6778H30.3984C29.8496 62.6778 29.4047 62.2328 29.4047 61.684V56.5277C29.4047 55.9789 29.8496 55.534 30.3984 55.534Z" fill="#9ACEFF" stroke="#3F40A7" stroke-width="0.2"/>
</svg>
