<svg width="38" height="39" viewBox="0 0 38 39" fill="none" xmlns="http://www.w3.org/2000/svg">
<g clip-path="url(#clip0)">
<path d="M19 0.804688C8.50819 0.804688 0 9.31288 0 19.8047C0 30.2965 8.50819 38.8047 19 38.8047C29.4918 38.8047 38 30.2965 38 19.8047C38 9.31288 29.4918 0.804688 19 0.804688ZM27.6752 15.6189C27.6836 15.8059 27.6877 15.9937 27.6877 16.1825C27.6877 21.9451 23.3012 28.5903 15.2795 28.5906H15.2798H15.2795C12.8167 28.5906 10.5249 27.8687 8.59488 26.6317C8.93611 26.672 9.28343 26.692 9.6351 26.692C11.6784 26.692 13.5588 25.995 15.0516 24.8252C13.1425 24.7898 11.5329 23.529 10.9774 21.7961C11.2433 21.8472 11.5167 21.875 11.797 21.875C12.1951 21.875 12.5807 21.8214 12.9471 21.7213C10.9516 21.3218 9.44839 19.5583 9.44839 17.4465C9.44839 17.4268 9.44839 17.4091 9.44897 17.3908C10.0366 17.7176 10.7087 17.9141 11.4242 17.9362C10.2532 17.1548 9.48347 15.8192 9.48347 14.3061C9.48347 13.5071 9.69946 12.7585 10.074 12.1141C12.2246 14.7529 15.4387 16.4883 19.0632 16.6707C18.9884 16.3512 18.9498 16.0184 18.9498 15.6763C18.9498 13.2688 20.903 11.3156 23.3114 11.3156C24.5658 11.3156 25.6988 11.8459 26.4946 12.6936C27.4882 12.4976 28.4211 12.1346 29.2639 11.6351C28.9378 12.653 28.2466 13.5071 27.3461 14.0472C28.2283 13.9417 29.0691 13.7077 29.8504 13.3604C29.2668 14.2351 28.5267 15.0034 27.6752 15.6189Z" fill="white"/>
</g>
<defs>
<clipPath id="clip0">
<rect width="38" height="38" fill="white" transform="translate(0 0.804688)"/>
</clipPath>
</defs>
</svg>
