<svg width="1602" height="900" viewBox="0 0 1602 900" fill="none" xmlns="http://www.w3.org/2000/svg">
<path d="M0.000741959 7.34332e-05C540.567 -5.76797e-05 1161.97 2.6759e-05 1602 2.6759e-05V900H0L0.000741959 7.34332e-05Z" fill="#3F40A7"/>
<rect x="203.035" y="173.212" width="22.4464" height="22.4464" fill="#4C4DBA"/>
<rect x="1533.45" y="402.192" width="22.4464" height="22.4464" transform="rotate(45 1533.45 402.192)" fill="#4C4DBA"/>
<rect x="1199.13" y="773.037" width="22.4464" height="22.4464" transform="rotate(45 1199.13 773.037)" fill="#4C4DBA"/>
<rect x="1468.1" y="170.819" width="22.4464" height="22.4464" transform="rotate(126.329 1468.1 170.819)" fill="#4C4DBA"/>
<rect x="161.006" y="386.32" width="22.4464" height="22.4464" transform="rotate(45 161.006 386.32)" fill="#4C4DBA"/>
<rect x="725.441" y="797.052" width="16.4082" height="16.4082" transform="rotate(16.7255 725.441 797.052)" fill="#4C4DBA"/>
<rect x="422.721" y="159.488" width="16.4082" height="16.4082" transform="rotate(-27.4136 422.721 159.488)" fill="#4C4DBA"/>
<rect x="159.074" y="687.385" width="11.8233" height="11.8233" transform="rotate(31.6306 159.074 687.385)" fill="#4C4DBA"/>
<rect x="1211.13" y="423.87" width="11.8233" height="11.8233" transform="rotate(31.6306 1211.13 423.87)" fill="#4C4DBA"/>
<rect x="405.539" y="417.669" width="11.8233" height="11.8233" transform="rotate(31.6306 405.539 417.669)" fill="#4C4DBA"/>
<rect x="753.865" y="124" width="11.8233" height="11.8233" transform="rotate(8.21217 753.865 124)" fill="#4C4DBA"/>
<rect x="1484.43" y="807.27" width="11.8233" height="11.8233" transform="rotate(8.21217 1484.43 807.27)" fill="#4C4DBA"/>
<rect x="402.467" y="807.27" width="11.8233" height="11.8233" transform="rotate(8.21217 402.467 807.27)" fill="#4C4DBA"/>
<rect x="655.096" y="472.796" width="11.8233" height="11.8233" transform="rotate(-39.1114 655.096 472.796)" fill="#4C4DBA"/>
<rect x="842.467" y="465.27" width="11.8233" height="11.8233" transform="rotate(8.21217 842.467 465.27)" fill="#4C4DBA"/>
</svg>
