<svg width="81" height="81" viewBox="0 0 81 81" fill="none" xmlns="http://www.w3.org/2000/svg">
<rect x="0.636719" y="0.997803" width="80" height="80" rx="20" fill="#4FE178"/>
<path d="M61.7899 52.6645H61.0678V36.6228H61.0086C61.5201 35.7376 61.7898 34.7311 61.7899 33.7061V32.977C61.7877 32.8038 61.7236 32.6373 61.6094 32.5081L61.6166 32.5023L61.0678 31.8562V26.4145C61.0678 25.6409 60.7635 24.8991 60.2218 24.3521C59.6801 23.8051 58.9455 23.4978 58.1794 23.4978H23.5182C22.7521 23.4978 22.0175 23.8051 21.4758 24.3521C20.9341 24.8991 20.6298 25.6409 20.6298 26.4145V31.8562L20.081 32.5023L20.0882 32.5081C19.974 32.6373 19.9099 32.8038 19.9077 32.977V33.7061C19.9078 34.7311 20.1775 35.7376 20.689 36.6228H20.6298V52.6645H19.9077C19.7161 52.6645 19.5325 52.7413 19.397 52.878C19.2616 53.0148 19.1855 53.2003 19.1855 53.3936V55.5811C19.1855 56.3547 19.4899 57.0965 20.0315 57.6435C20.5732 58.1905 21.3079 58.4978 22.074 58.4978H59.6236C60.3897 58.4978 61.1244 58.1905 61.6661 57.6435C62.2077 57.0965 62.5121 56.3547 62.5121 55.5811V53.3936C62.5121 53.2003 62.436 53.0148 62.3006 52.878C62.1651 52.7413 61.9815 52.6645 61.7899 52.6645ZM50.2362 33.7061C50.2362 34.8665 49.7797 35.9793 48.9672 36.7997C48.1547 37.6202 47.0527 38.0811 45.9036 38.0811C44.7545 38.0811 43.6524 37.6202 42.8399 36.7997C42.0274 35.9793 41.5709 34.8665 41.5709 33.7061H50.2362ZM51.4342 32.2478L49.8867 28.602H56.403L59.4973 32.2478H51.4342ZM48.3161 28.602L49.8636 32.2478H41.5709V28.602H48.3161ZM40.1267 32.2478H31.834L33.3815 28.602H40.1267V32.2478ZM40.1267 33.7061C40.1267 34.8665 39.6702 35.9793 38.8577 36.7997C38.0452 37.6202 36.9431 38.0811 35.794 38.0811C34.645 38.0811 33.5429 37.6202 32.7304 36.7997C31.9179 35.9793 31.4614 34.8665 31.4614 33.7061H40.1267ZM30.2634 32.2478H22.2004L25.2946 28.602H31.8109L30.2634 32.2478ZM30.0172 33.7061C30.0172 34.8665 29.5607 35.9793 28.7482 36.7997C27.9356 37.6202 26.8336 38.0811 25.6845 38.0811C24.5354 38.0811 23.4334 37.6202 22.6209 36.7997C21.8083 35.9793 21.3519 34.8665 21.3519 33.7061H30.0172ZM25.6845 39.5395C26.7171 39.5388 27.7306 39.2587 28.6196 38.7283C29.5086 38.1979 30.2406 37.4366 30.7393 36.5236C31.2376 37.437 31.9694 38.1985 32.8585 38.729C33.7476 39.2594 34.7614 39.5392 35.794 39.5392C36.8267 39.5392 37.8405 39.2594 38.7295 38.729C39.6186 38.1985 40.3505 37.437 40.8488 36.5236C41.3471 37.437 42.079 38.1985 42.9681 38.729C43.8571 39.2594 44.8709 39.5392 45.9036 39.5392C46.9362 39.5392 47.95 39.2594 48.8391 38.729C49.7282 38.1985 50.46 37.437 50.9583 36.5236C51.4571 37.4366 52.189 38.1979 53.078 38.7283C53.967 39.2587 54.9805 39.5388 56.0131 39.5395V49.0186H25.6845V39.5395ZM56.0131 38.0811C54.8643 38.08 53.763 37.6187 52.9507 36.7984C52.1384 35.9782 51.6816 34.8661 51.6804 33.7061H60.3457C60.3446 34.8661 59.8877 35.9782 59.0755 36.7984C58.2632 37.6187 57.1618 38.08 56.0131 38.0811ZM22.074 26.4145C22.074 26.0277 22.2261 25.6568 22.497 25.3833C22.7678 25.1098 23.1352 24.9561 23.5182 24.9561H58.1794C58.5624 24.9561 58.9298 25.1098 59.2006 25.3833C59.4715 25.6568 59.6236 26.0277 59.6236 26.4145V30.1544L57.284 27.3981C57.2161 27.3182 57.1319 27.2541 57.0372 27.2102C56.9425 27.1662 56.8394 27.1435 56.7352 27.1436H24.9624C24.8582 27.1435 24.7551 27.1662 24.6604 27.2102C24.5657 27.2541 24.4815 27.3182 24.4136 27.3981L22.074 30.1544V26.4145ZM22.074 38.2525C22.7112 38.7679 23.4496 39.1407 24.2403 39.3462V49.7478C24.2403 49.9412 24.3164 50.1267 24.4518 50.2634C24.5872 50.4001 24.7709 50.477 24.9624 50.477H56.7352C56.9267 50.477 57.1104 50.4001 57.2458 50.2634C57.3812 50.1267 57.4573 49.9412 57.4573 49.7478V39.3477C58.248 39.1422 58.9864 38.7694 59.6236 38.2539V52.6645H47.3478C47.1564 52.6643 46.9728 52.7409 46.8372 52.8774L45.6046 54.1228H36.093L34.8604 52.8774C34.7248 52.7409 34.5412 52.6643 34.3498 52.6645H22.074V38.2525ZM61.0678 55.5811C61.0678 55.9679 60.9157 56.3388 60.6448 56.6123C60.374 56.8858 60.0067 57.0395 59.6236 57.0395H22.074C21.691 57.0395 21.3236 56.8858 21.0528 56.6123C20.7819 56.3388 20.6298 55.9679 20.6298 55.5811V54.1228H34.0509L35.2835 55.3675C35.4189 55.5042 35.6025 55.5811 35.794 55.5811H45.9036C46.0951 55.5811 46.2787 55.5042 46.4141 55.3675L47.6467 54.1228H61.0678V55.5811Z" fill="white"/>
</svg>
