<svg width="81" height="81" viewBox="0 0 81 81" fill="none" xmlns="http://www.w3.org/2000/svg">
<rect x="0.330078" y="0.499023" width="80" height="80" rx="20" fill="#369EFF"/>
<path d="M60.7765 49.2218C57.4771 49.2218 54.1675 49.2218 50.8681 49.2218C44.6235 49.2218 38.3789 49.2218 32.1444 49.2218C28.3389 49.2218 24.5335 49.2522 20.7179 49.2218C20.0802 49.2218 19.6349 48.8372 19.6248 48.1794C19.6147 47.6126 19.6248 47.0357 19.6248 46.4689C19.6248 43.8071 19.6248 41.1453 19.6248 38.4936C19.6248 35.4169 19.6248 32.33 19.6248 29.2532C19.6248 27.6845 19.5438 26.0955 19.6248 24.5268C19.6956 23.2414 21.3251 23.5349 22.2562 23.5349C24.3209 23.5349 26.3856 23.5349 28.4604 23.5349C34.6341 23.5349 40.7978 23.5349 46.9716 23.5349C51.3742 23.5349 55.7869 23.5349 60.1895 23.5349C60.5032 23.5349 60.898 23.4944 61.1712 23.6058C61.8392 23.8891 61.7684 24.5571 61.7684 25.1644C61.7684 27.4213 61.7684 29.6682 61.7684 31.9252C61.7684 37.2184 61.7684 42.5015 61.7684 47.7948C61.7481 48.4931 61.6267 49.2016 60.7765 49.2218C59.481 49.2623 59.4709 51.2865 60.7765 51.246C62.578 51.1853 63.7723 49.7785 63.7723 48.0276C63.7723 47.309 63.7723 46.5904 63.7723 45.8718C63.7723 43.0076 63.7723 40.1535 63.7723 37.2892C63.7723 34.2125 63.7723 31.1357 63.7723 28.0691C63.7723 27.1278 63.7723 26.1866 63.7723 25.2453C63.7723 24.3749 63.7622 23.545 63.2157 22.786C62.1327 21.2881 60.3919 21.5107 58.7928 21.5107C56.5561 21.5107 54.3092 21.5107 52.0725 21.5107C45.7064 21.5107 39.3404 21.5107 32.9743 21.5107C28.9057 21.5107 24.8472 21.4905 20.7786 21.5107C19.3313 21.5208 17.9953 22.3609 17.6613 23.8385C17.55 24.3952 17.6006 25.0024 17.6006 25.5692C17.6006 28.0691 17.6006 30.5791 17.6006 33.0789C17.6006 38.109 17.55 43.1391 17.6006 48.1692C17.6209 49.8797 18.9062 51.2055 20.6167 51.246C20.9405 51.2561 21.2745 51.246 21.5984 51.246C23.5112 51.246 25.4241 51.246 27.337 51.246C33.5714 51.246 39.8059 51.246 46.0404 51.246C50.7062 51.246 55.3719 51.246 60.0377 51.246C60.2806 51.246 60.5336 51.246 60.7765 51.246C62.0821 51.246 62.0821 49.2218 60.7765 49.2218Z" fill="white"/>
<path d="M18.573 39.6778C20.0405 39.6778 21.4979 39.6778 22.9654 39.6778C26.4875 39.6778 29.9995 39.6778 33.5216 39.6778C37.7825 39.6778 42.0333 39.6778 46.2942 39.6778C49.9782 39.6778 53.6622 39.6778 57.3361 39.6778C59.1275 39.6778 60.9291 39.7385 62.7103 39.6778C62.7407 39.6778 62.7609 39.6778 62.7913 39.6778C64.0969 39.6778 64.0969 37.6536 62.7913 37.6536C61.3238 37.6536 59.8664 37.6536 58.3988 37.6536C54.8767 37.6536 51.3648 37.6536 47.8427 37.6536C43.5818 37.6536 39.331 37.6536 35.0701 37.6536C31.386 37.6536 27.702 37.6536 24.0281 37.6536C22.2367 37.6536 20.4352 37.5929 18.6539 37.6536C18.6236 37.6536 18.6033 37.6536 18.573 37.6536C17.2673 37.6536 17.2673 39.6778 18.573 39.6778Z" fill="white"/>
<path d="M18.573 45.3658C20.0405 45.3658 21.4979 45.3658 22.9654 45.3658C26.4875 45.3658 29.9995 45.3658 33.5216 45.3658C37.7825 45.3658 42.0333 45.3658 46.2942 45.3658C49.9782 45.3658 53.6622 45.3658 57.3361 45.3658C59.1275 45.3658 60.9291 45.4265 62.7103 45.3658C62.7407 45.3658 62.7609 45.3658 62.7913 45.3658C64.0969 45.3658 64.0969 43.3416 62.7913 43.3416C61.3238 43.3416 59.8664 43.3416 58.3988 43.3416C54.8767 43.3416 51.3648 43.3416 47.8427 43.3416C43.5818 43.3416 39.331 43.3416 35.0701 43.3416C31.386 43.3416 27.702 43.3416 24.0281 43.3416C22.2367 43.3416 20.4352 43.2808 18.6539 43.3416C18.6236 43.3416 18.6033 43.3416 18.573 43.3416C17.2673 43.3416 17.2673 45.3658 18.573 45.3658Z" fill="white"/>
<path d="M30.9395 50.2339C30.9395 53.5131 30.9395 56.7923 30.9395 60.0715C30.9395 60.537 30.9395 61.0127 30.9395 61.4783C30.9395 62.2272 31.8099 62.7636 32.4576 62.3487C35.0789 60.7091 37.7002 59.0695 40.3216 57.4299C40.696 57.1971 41.0705 56.9644 41.445 56.7214C41.1009 56.7214 40.7669 56.7214 40.4228 56.7214C42.8923 58.361 45.3517 60.0006 47.8212 61.6402C48.1754 61.873 48.5296 62.1159 48.8839 62.3487C49.5316 62.7839 50.402 62.207 50.402 61.4783C50.402 58.1991 50.402 54.9199 50.402 51.6407C50.402 51.1752 50.402 50.6995 50.402 50.2339C50.402 48.9283 48.3778 48.9283 48.3778 50.2339C48.3778 53.5131 48.3778 56.7923 48.3778 60.0715C48.3778 60.537 48.3778 61.0127 48.3778 61.4783C48.8839 61.1848 49.3899 60.8913 49.896 60.6079C47.4265 58.9683 44.9671 57.3287 42.4976 55.6891C42.1433 55.4563 41.7891 55.2134 41.4349 54.9806C41.1414 54.7883 40.7062 54.7985 40.4126 54.9806C37.7913 56.6202 35.17 58.2598 32.5487 59.8994C32.1742 60.1322 31.7997 60.365 31.4253 60.6079C31.9313 60.9014 32.4374 61.1949 32.9434 61.4783C32.9434 58.1991 32.9434 54.9199 32.9434 51.6407C32.9434 51.1752 32.9434 50.6995 32.9434 50.2339C32.9636 48.9385 30.9395 48.9283 30.9395 50.2339Z" fill="white"/>
</svg>
