<svg width="81" height="81" viewBox="0 0 81 81" fill="none" xmlns="http://www.w3.org/2000/svg">
<rect x="0.636719" y="0.499023" width="80" height="80" rx="20" fill="#F44343"/>
<path d="M26.4193 22.5159C24.3241 22.5159 22.6289 24.1899 22.6289 26.2514V53.1582C22.6289 55.2485 24.3495 56.8937 26.4193 56.8937H55.2783C57.348 56.8937 59.0666 55.24 59.0666 53.1582V26.2514C59.0666 24.1899 57.3765 22.5159 55.2783 22.5159H26.4193ZM26.4193 24.6002H36.1637V32.9313C36.1637 33.7044 36.9787 34.2057 37.6705 33.8606L41.3673 32.0162L45.0642 33.8606C45.7547 34.2051 46.5689 33.703 46.5689 32.9313V24.6002H55.2783C56.2133 24.6002 56.9844 25.3314 56.9844 26.2514V53.1582C56.9844 54.0437 56.2539 54.8114 55.2783 54.8114H26.4193C25.472 54.8114 24.7132 54.0782 24.7132 53.1582V26.2514C24.7132 25.3314 25.468 24.6002 26.4193 24.6002ZM38.246 24.6002H44.4867V31.2476L41.835 29.9177C41.5403 29.7691 41.1924 29.7691 40.8976 29.9177L38.246 31.2476V24.6002ZM41.3673 47.5113V50.6306C41.3673 52.0215 43.4496 52.0215 43.4496 50.6306V47.5113C43.4496 46.1143 41.3673 46.1143 41.3673 47.5113ZM45.5318 47.5113V50.6306C45.5318 52.0215 47.6162 52.0215 47.6162 50.6306V47.5113C47.6162 46.1143 45.5318 46.1143 45.5318 47.5113ZM49.6984 47.5113V50.6306C49.6984 52.0503 51.7807 52.0503 51.7807 50.6306V47.5113C51.7807 46.1143 49.6984 46.1143 49.6984 47.5113Z" fill="white"/>
</svg>
