<svg width="81" height="81" viewBox="0 0 81 81" fill="none" xmlns="http://www.w3.org/2000/svg">
<rect x="0.351562" y="0.499023" width="80" height="80" rx="20" fill="#9164EB"/>
<path d="M42.9048 57.7024C42.4508 57.7024 42.0833 58.0704 42.0833 58.5238V63.1786H22.6429V19.6429H42.0833V43.4643C42.0833 43.9177 42.4508 44.2857 42.9048 44.2857C43.3587 44.2857 43.7262 43.9177 43.7262 43.4643V19.369C43.7262 18.6144 43.1118 18 42.3571 18H22.369C21.6144 18 21 18.6144 21 19.369V63.4524C21 64.2075 21.6144 64.8214 22.369 64.8214H42.3571C43.1118 64.8214 43.7262 64.2075 43.7262 63.4524V58.5238C43.7262 58.0704 43.3587 57.7024 42.9048 57.7024Z" fill="white"/>
<path d="M27.9824 22.1071C26.3971 22.1071 25.1074 23.3968 25.1074 24.9821C25.1074 26.5675 26.3971 27.8571 27.9824 27.8571C29.5678 27.8571 30.8574 26.5675 30.8574 24.9821C30.8574 23.3968 29.5678 22.1071 27.9824 22.1071ZM27.9824 26.2143C27.3028 26.2143 26.7503 25.6617 26.7503 24.9821C26.7503 24.3026 27.3028 23.75 27.9824 23.75C28.662 23.75 29.2146 24.3026 29.2146 24.9821C29.2146 25.6617 28.662 26.2143 27.9824 26.2143Z" fill="white"/>
<path d="M36.1973 22.1071C34.6119 22.1071 33.3223 23.3968 33.3223 24.9821C33.3223 26.5675 34.6119 27.8571 36.1973 27.8571C37.7826 27.8571 39.0723 26.5675 39.0723 24.9821C39.0723 23.3968 37.7826 22.1071 36.1973 22.1071ZM36.1973 26.2143C35.5177 26.2143 34.9651 25.6617 34.9651 24.9821C34.9651 24.3026 35.5177 23.75 36.1973 23.75C36.8769 23.75 37.4294 24.3026 37.4294 24.9821C37.4294 25.6617 36.8769 26.2143 36.1973 26.2143Z" fill="white"/>
<path d="M27.9824 30.3214C26.3971 30.3214 25.1074 31.6111 25.1074 33.1964C25.1074 34.7818 26.3971 36.0714 27.9824 36.0714C29.5678 36.0714 30.8574 34.7818 30.8574 33.1964C30.8574 31.6111 29.5678 30.3214 27.9824 30.3214ZM27.9824 34.4286C27.3028 34.4286 26.7503 33.876 26.7503 33.1964C26.7503 32.5168 27.3028 31.9643 27.9824 31.9643C28.662 31.9643 29.2146 32.5168 29.2146 33.1964C29.2146 33.876 28.662 34.4286 27.9824 34.4286Z" fill="white"/>
<path d="M36.1973 30.3214C34.6119 30.3214 33.3223 31.6111 33.3223 33.1964C33.3223 34.7818 34.6119 36.0714 36.1973 36.0714C37.7826 36.0714 39.0723 34.7818 39.0723 33.1964C39.0723 31.6111 37.7826 30.3214 36.1973 30.3214ZM36.1973 34.4286C35.5177 34.4286 34.9651 33.876 34.9651 33.1964C34.9651 32.5168 35.5177 31.9643 36.1973 31.9643C36.8769 31.9643 37.4294 32.5168 37.4294 33.1964C37.4294 33.876 36.8769 34.4286 36.1973 34.4286Z" fill="white"/>
<path d="M27.9824 38.5357C26.3971 38.5357 25.1074 39.8253 25.1074 41.4107C25.1074 42.9961 26.3971 44.2857 27.9824 44.2857C29.5678 44.2857 30.8574 42.9961 30.8574 41.4107C30.8574 39.8253 29.5678 38.5357 27.9824 38.5357ZM27.9824 42.6428C27.3028 42.6428 26.7503 42.0898 26.7503 41.4107C26.7503 40.7311 27.3028 40.1786 27.9824 40.1786C28.662 40.1786 29.2146 40.7311 29.2146 41.4107C29.2146 42.0898 28.662 42.6428 27.9824 42.6428Z" fill="white"/>
<path d="M36.1973 38.5357C34.6119 38.5357 33.3223 39.8253 33.3223 41.4107C33.3223 42.9961 34.6119 44.2857 36.1973 44.2857C37.7826 44.2857 39.0723 42.9961 39.0723 41.4107C39.0723 39.8253 37.7826 38.5357 36.1973 38.5357ZM36.1973 42.6428C35.5177 42.6428 34.9651 42.0898 34.9651 41.4107C34.9651 40.7311 35.5177 40.1786 36.1973 40.1786C36.8769 40.1786 37.4294 40.7311 37.4294 41.4107C37.4294 42.0898 36.8769 42.6428 36.1973 42.6428Z" fill="white"/>
<path d="M27.9824 46.75C26.3971 46.75 25.1074 48.0396 25.1074 49.625C25.1074 51.2104 26.3971 52.5 27.9824 52.5C29.5678 52.5 30.8574 51.2104 30.8574 49.625C30.8574 48.0396 29.5678 46.75 27.9824 46.75ZM27.9824 50.8571C27.3028 50.8571 26.7503 50.304 26.7503 49.625C26.7503 48.946 27.3028 48.3929 27.9824 48.3929C28.662 48.3929 29.2146 48.946 29.2146 49.625C29.2146 50.304 28.662 50.8571 27.9824 50.8571Z" fill="white"/>
<path d="M36.1973 46.75C34.6119 46.75 33.3223 48.0396 33.3223 49.625C33.3223 51.2104 34.6119 52.5 36.1973 52.5C37.7826 52.5 39.0723 51.2104 39.0723 49.625C39.0723 48.0396 37.7826 46.75 36.1973 46.75ZM36.1973 50.8571C35.5177 50.8571 34.9651 50.304 34.9651 49.625C34.9651 48.946 35.5177 48.3929 36.1973 48.3929C36.8769 48.3929 37.4294 48.946 37.4294 49.625C37.4294 50.304 36.8769 50.8571 36.1973 50.8571Z" fill="white"/>
<path d="M27.9824 54.9643C26.3971 54.9643 25.1074 56.2539 25.1074 57.8393C25.1074 59.4247 26.3971 60.7143 27.9824 60.7143C29.5678 60.7143 30.8574 59.4247 30.8574 57.8393C30.8574 56.2539 29.5678 54.9643 27.9824 54.9643ZM27.9824 59.0714C27.3028 59.0714 26.7503 58.5183 26.7503 57.8393C26.7503 57.1602 27.3028 56.6072 27.9824 56.6072C28.662 56.6072 29.2146 57.1602 29.2146 57.8393C29.2146 58.5183 28.662 59.0714 27.9824 59.0714Z" fill="white"/>
<path d="M36.1973 54.9643C34.6119 54.9643 33.3223 56.2539 33.3223 57.8393C33.3223 59.4247 34.6119 60.7143 36.1973 60.7143C37.7826 60.7143 39.0723 59.4247 39.0723 57.8393C39.0723 56.2539 37.7826 54.9643 36.1973 54.9643ZM36.1973 59.0714C35.5177 59.0714 34.9651 58.5183 34.9651 57.8393C34.9651 57.1602 35.5177 56.6072 36.1973 56.6072C36.8769 56.6072 37.4294 57.1602 37.4294 57.8393C37.4294 58.5183 36.8769 59.0714 36.1973 59.0714Z" fill="white"/>
<path d="M65.1554 36.9093L63.2196 34.9729C62.0302 33.7835 60.4487 33.128 58.7664 33.128C57.0841 33.128 55.5026 33.7829 54.3131 34.9729L42.6965 46.5896C41.5071 47.779 40.8516 49.3605 40.8516 51.0428C40.8516 52.7251 41.5065 54.3066 42.6965 55.496L44.6323 57.4319C45.8218 58.6213 47.4033 59.2763 49.0856 59.2763C50.7678 59.2763 52.3494 58.6213 53.5388 57.4319L65.1554 45.8152C66.3449 44.6258 66.9998 43.0443 66.9998 41.362C66.9998 39.6797 66.3449 38.0987 65.1554 36.9093ZM52.3773 56.2704C51.4984 57.1493 50.3292 57.6334 49.0856 57.6334C47.8419 57.6334 46.6733 57.1493 45.7938 56.2704L43.858 54.3345C42.9791 53.4556 42.4944 52.2864 42.4944 51.0428C42.4944 49.7992 42.9785 48.6305 43.858 47.7511L49.0856 42.5235L57.6049 51.0428L52.3773 56.2704ZM63.9939 44.6537L58.7664 49.8813L50.2471 41.362L55.4746 36.1344C56.3536 35.2555 57.5227 34.7708 58.7664 34.7708C60.01 34.7708 61.1786 35.2549 62.0581 36.1344L63.9939 38.0708C64.8729 38.9497 65.357 40.1189 65.357 41.362C65.357 42.6051 64.8729 43.7743 63.9939 44.6537Z" fill="white"/>
</svg>
