<svg width="81" height="81" viewBox="0 0 81 81" fill="none" xmlns="http://www.w3.org/2000/svg">
<rect x="0.351562" y="0.997803" width="80" height="80" rx="20" fill="#FCC433"/>
<path d="M36.6921 56.7129C36.7221 56.7129 36.7621 56.7229 36.7921 56.7229C36.9921 56.7229 37.1921 56.6629 37.3621 56.5429C37.6621 56.3329 41.2221 53.8229 44.3921 49.8529C45.7621 51.0929 46.7921 51.8129 46.8421 51.8529C47.0121 51.9729 47.2121 52.0329 47.4121 52.0329C47.4421 52.0329 47.4821 52.0329 47.5121 52.0229C48.1221 51.9629 62.4321 50.3429 65.0721 40.0329C65.6621 37.7329 65.3221 35.3429 64.1121 33.2929C62.9021 31.2529 60.9721 29.8029 58.6721 29.2129C56.7221 28.7129 54.7021 28.8829 52.8821 29.6929C51.6721 28.1129 49.9821 26.9829 48.0321 26.4829C46.2321 26.0229 44.3921 26.1329 42.6721 26.7929C40.6521 25.9629 38.3621 25.7429 36.0921 26.3229C33.7321 26.9229 31.6921 28.3029 30.2621 30.2429C28.0721 29.2329 25.6221 29.0029 23.2621 29.6129C17.6421 31.0529 14.2421 36.7929 15.6821 42.4129C18.8421 54.7029 35.9621 56.6329 36.6921 56.7129ZM47.5421 28.4129C49.2821 28.8629 50.7621 29.9529 51.7021 31.4929C51.9821 31.9529 52.5821 32.1029 53.0521 31.8429C54.6221 30.9429 56.4421 30.7029 58.1821 31.1429C59.9621 31.6029 61.4621 32.7229 62.4021 34.3029C63.3421 35.8829 63.6021 37.7429 63.1521 39.5229C61.0721 47.6429 49.8821 49.6529 47.6921 49.9729C47.2921 49.6729 46.5221 49.0629 45.6121 48.2329C48.3121 44.3329 50.3021 39.3529 48.9121 33.8929C48.3121 31.5529 46.9621 29.6129 45.1921 28.2329C45.9621 28.1629 46.7621 28.2129 47.5421 28.4129ZM23.7621 31.5429C24.4621 31.3629 25.1721 31.2729 25.8821 31.2729C27.3521 31.2729 28.8021 31.6529 30.1021 32.4029C30.5721 32.6729 31.1721 32.5229 31.4521 32.0529C32.6121 30.1529 34.4421 28.8029 36.5921 28.2529C41.1421 27.0829 45.7921 29.8429 46.9621 34.3929C49.5321 44.4229 38.5221 53.1929 36.5321 54.6829C34.0721 54.3329 20.2021 51.9529 17.6321 41.9129C16.4621 37.3529 19.2121 32.7029 23.7621 31.5429Z" fill="white"/>
</svg>
