<svg width="42" height="30" viewBox="0 0 42 30" fill="none" xmlns="http://www.w3.org/2000/svg">
<path d="M39.808 13.2689H1.73078C0.775388 13.2689 0 14.0443 0 14.9997C0 15.9551 0.775388 16.7305 1.73078 16.7305H39.808C40.7634 16.7305 41.5388 15.9551 41.5388 14.9997C41.5388 14.0443 40.7634 13.2689 39.808 13.2689Z" fill="black"/>
<path d="M39.808 26.5384H1.73078C0.775388 26.5384 0 27.3138 0 28.2692C0 29.2246 0.775388 30 1.73078 30H39.808C40.7634 30 41.5388 29.2246 41.5388 28.2692C41.5388 27.3138 40.7634 26.5384 39.808 26.5384Z" fill="black"/>
<path d="M39.808 -0.000143051H1.73078C0.775388 -0.000143051 0 0.775245 0 1.73064C0 2.68604 0.775388 3.46143 1.73078 3.46143H39.808C40.7634 3.46143 41.5388 2.68604 41.5388 1.73064C41.5388 0.775245 40.7634 -0.000143051 39.808 -0.000143051Z" fill="black"/>
</svg>
