<svg width="172" height="172" viewBox="0 0 172 172" fill="none" xmlns="http://www.w3.org/2000/svg">
<circle cx="86" cy="86" r="86" fill="#F9CE46"/>
<path d="M91.0772 54.0609H61.6984C58.0275 54.0609 55.0518 57.0367 55.0518 60.7075V106.074C55.0518 109.745 58.0275 112.72 61.6984 112.72H91.0772C94.748 112.72 97.7238 109.745 97.7238 106.074V60.7075C97.7238 57.0367 94.748 54.0609 91.0772 54.0609Z" fill="#FAA61A"/>
<path d="M91.0774 56.1039C92.2944 56.1063 93.4608 56.5914 94.3205 57.4528C95.1802 58.3142 95.6631 59.4815 95.6631 60.6986V106.074C95.6631 107.291 95.1802 108.458 94.3205 109.32C93.4608 110.181 92.2944 110.666 91.0774 110.668H61.6986C60.48 110.668 59.3113 110.184 58.4497 109.323C57.588 108.461 57.1039 107.292 57.1039 106.074V60.6986C57.1039 59.48 57.588 58.3113 58.4497 57.4497C59.3113 56.588 60.48 56.1039 61.6986 56.1039H91.0774ZM91.0774 52H61.6986C59.3923 52.0024 57.1811 52.9196 55.5504 54.5504C53.9196 56.1811 53.0024 58.3923 53 60.6986V106.074C53.0024 108.38 53.9196 110.591 55.5504 112.222C57.1811 113.853 59.3923 114.77 61.6986 114.772H91.0774C93.3821 114.768 95.591 113.849 97.2198 112.219C98.8487 110.588 99.7647 108.379 99.767 106.074V60.6986C99.7647 58.3938 98.8487 56.184 97.2198 54.5535C95.591 52.923 93.3821 52.0047 91.0774 52Z" fill="#42210B"/>
<path d="M67.3014 62.5275H85.894" stroke="#42210B" stroke-width="4.6" stroke-linecap="round" stroke-linejoin="round"/>
<path d="M63.9022 99.0526V71.7079" stroke="white" stroke-width="4.6" stroke-linecap="round" stroke-linejoin="round"/>
<path d="M80.1306 129.966C78.3685 129.963 76.6793 129.262 75.4334 128.017C74.1874 126.771 73.4864 125.081 73.484 123.319V77.9262C73.4864 76.1649 74.1877 74.4767 75.4339 73.2321C76.6801 71.9876 78.3694 71.2885 80.1306 71.2885H101.061C101.331 71.2872 101.598 71.3393 101.848 71.4419C102.097 71.5445 102.324 71.6955 102.515 71.8863L115.558 84.9296C115.748 85.1195 115.898 85.3448 116.001 85.5928C116.103 85.8408 116.156 86.1066 116.156 86.3749V123.301C116.154 125.063 115.453 126.753 114.207 127.999C112.961 129.245 111.272 129.946 109.509 129.948L80.1306 129.966Z" fill="#FFCB05"/>
<path d="M101.061 73.3584L114.104 86.3928V123.319C114.104 124.538 113.62 125.707 112.758 126.568C111.897 127.43 110.728 127.914 109.509 127.914H80.1304C78.9126 127.912 77.7453 127.427 76.8842 126.566C76.023 125.704 75.5382 124.537 75.5358 123.319V77.9262C75.5382 76.7092 76.0233 75.5428 76.8847 74.6831C77.7461 73.8234 78.9134 73.3405 80.1304 73.3405H101.061V73.3584ZM101.061 69.2366H80.1304C77.8257 69.2389 75.6159 70.1549 73.9854 71.7838C72.3549 73.4126 71.4366 75.6215 71.4319 77.9262V123.301C71.4342 125.608 72.3515 127.819 73.9823 129.45C75.613 131.08 77.8242 131.998 80.1304 132H109.509C111.816 131.998 114.027 131.08 115.657 129.45C117.288 127.819 118.205 125.608 118.208 123.301V86.3928C118.209 85.8538 118.103 85.3199 117.897 84.8222C117.69 84.3244 117.386 83.8727 117.003 83.4933L103.969 70.4588C103.587 70.0765 103.134 69.7734 102.635 69.5667C102.136 69.36 101.601 69.2539 101.061 69.2544V69.2366Z" fill="#42210B"/>
<path d="M102.64 74.9286L112.239 84.5372H107.19C105.982 84.5348 104.825 84.0534 103.972 83.1987C103.119 82.344 102.64 81.1858 102.64 79.9782V74.9286ZM102.64 70.8247C102.101 70.8274 101.568 70.9334 101.069 71.1369C100.32 71.4485 99.6797 71.9747 99.2289 72.6494C98.778 73.3241 98.5368 74.1171 98.5356 74.9286V79.9782C98.538 82.2735 99.4502 84.4742 101.072 86.098C102.695 87.7219 104.894 88.6364 107.19 88.6411H112.239C113.051 88.6394 113.844 88.3976 114.518 87.9461C115.193 87.4947 115.719 86.8537 116.03 86.1039C116.341 85.3542 116.423 84.5292 116.266 83.7328C116.109 82.9365 115.72 82.2044 115.148 81.6287L105.539 72.0291C105.159 71.6475 104.707 71.3446 104.209 71.1379C103.712 70.9313 103.178 70.8248 102.64 70.8247Z" fill="#42210B"/>
<path d="M84.3414 93.2713H105.307" stroke="#42210B" stroke-width="4.6" stroke-linecap="round" stroke-linejoin="round"/>
<path d="M84.3414 101.006H105.307" stroke="#42210B" stroke-width="4.6" stroke-linecap="round" stroke-linejoin="round"/>
<path d="M84.3414 108.733H105.307" stroke="#42210B" stroke-width="4.6" stroke-linecap="round" stroke-linejoin="round"/>
<path d="M84.3414 116.467H105.307" stroke="#42210B" stroke-width="4.6" stroke-linecap="round" stroke-linejoin="round"/>
<path d="M84.4039 78.7024H92.6832" stroke="white" stroke-width="4.6" stroke-linecap="round" stroke-linejoin="round"/>
</svg>
