<svg width="172" height="172" viewBox="0 0 172 172" fill="none" xmlns="http://www.w3.org/2000/svg">
<circle cx="86" cy="86" r="86" fill="#F9CE46"/>
<path d="M82.6037 119.357C81.0722 119.351 79.5688 118.945 78.2431 118.178C78.0913 118.086 77.9456 117.983 77.8071 117.872L60.8244 103.034H48.8387C46.2756 103.034 43.8175 102.016 42.0052 100.203C40.1928 98.3911 39.1747 95.9331 39.1747 93.37V78.6972C39.1747 76.1342 40.1928 73.6761 42.0052 71.8637C43.8175 70.0514 46.2756 69.0333 48.8387 69.0333H60.8244L77.8071 54.1955C77.9397 54.0763 78.0861 53.9735 78.2431 53.8891C79.5693 53.1206 81.0746 52.7153 82.6074 52.7138C84.1402 52.7124 85.6462 53.115 86.9739 53.881C88.3015 54.647 89.4038 55.7493 90.1697 57.077C90.9357 58.4046 91.3381 59.9107 91.3366 61.4435V110.636C91.3304 112.949 90.408 115.165 88.7713 116.8C87.1345 118.434 84.9169 119.354 82.6037 119.357Z" fill="#FFCB05"/>
<path d="M82.6036 55.4213C83.3954 55.4197 84.1798 55.5744 84.9118 55.8763C85.6438 56.1783 86.3091 56.6216 86.8696 57.181C87.4301 57.7404 87.8747 58.4048 88.1781 59.1362C88.4815 59.8677 88.6377 60.6518 88.6377 61.4436V110.636C88.6377 112.236 88.0019 113.771 86.8703 114.902C85.7387 116.034 84.2039 116.67 82.6036 116.67C81.5459 116.669 80.5078 116.384 79.5983 115.845L61.8377 100.323H48.8738C47.0297 100.323 45.2611 99.5909 43.9571 98.2869C42.6531 96.9829 41.9205 95.2143 41.9205 93.3701V78.6973C41.9205 76.8532 42.6531 75.0846 43.9571 73.7806C45.2611 72.4766 47.0297 71.744 48.8738 71.744H61.8377L79.5983 56.2345C80.509 55.6989 81.547 55.418 82.6036 55.4213ZM82.6036 50C80.5973 50.0035 78.6267 50.5317 76.8877 51.5321C76.5824 51.7092 76.2944 51.9143 76.0273 52.1449L59.8107 66.2874H48.8385C45.5575 66.2905 42.4118 67.5952 40.0918 69.9153C37.7717 72.2353 36.467 75.381 36.4639 78.662V93.323C36.467 96.604 37.7717 99.7497 40.0918 102.07C42.4118 104.39 45.5575 105.694 48.8385 105.698H59.8107L76.0273 119.84C76.2914 120.074 76.5798 120.28 76.8877 120.453C78.6191 121.459 80.5849 121.993 82.5877 122C84.5905 122.007 86.5599 121.487 88.2983 120.492C90.0367 119.498 91.483 118.064 92.492 116.333C93.5011 114.603 94.0374 112.638 94.0471 110.636V61.4436C94.044 58.4095 92.8373 55.5006 90.6919 53.3552C88.5465 51.2098 85.6376 50.0031 82.6036 50Z" fill="#42210B"/>
<path d="M41.8851 86.4048V93.3582C41.8851 95.2023 42.6177 96.971 43.9217 98.275C45.2258 99.579 46.9943 100.312 48.8385 100.312H61.8024L79.5629 115.809C80.4781 116.339 81.5167 116.619 82.5741 116.62C83.6316 116.621 84.6707 116.343 85.5869 115.815C86.5031 115.287 87.2642 114.527 87.7935 113.612C88.3228 112.696 88.6018 111.658 88.6023 110.6V86.4048H41.8851Z" fill="#FAA61A"/>
<path d="M50.5712 79.5576H59.9523" stroke="white" stroke-width="4.6" stroke-linecap="round" stroke-linejoin="round"/>
<path d="M72.5037 73.17L79.6574 67.077" stroke="white" stroke-width="4.6" stroke-linecap="round" stroke-linejoin="round"/>
<path d="M104.749 77.2241C106.539 79.7843 107.499 82.833 107.499 85.9571C107.499 89.0812 106.539 92.1298 104.749 94.69" stroke="#42210B" stroke-width="5" stroke-linecap="round" stroke-linejoin="round"/>
<path d="M114.141 65.9338C118.549 70.6479 121.212 79.157 121.212 85.9689C121.212 92.7808 118.478 101.443 113.988 106.134" stroke="#42210B" stroke-width="5" stroke-linecap="round" stroke-linejoin="round"/>
<path d="M123.275 57.3423C130.346 64.0128 134.813 75.6685 134.813 85.9453C134.813 96.2221 130.322 108.031 123.11 114.713" stroke="#42210B" stroke-width="5" stroke-linecap="round" stroke-linejoin="round"/>
</svg>
