<svg width="172" height="172" viewBox="0 0 172 172" fill="none" xmlns="http://www.w3.org/2000/svg">
<circle cx="86" cy="86" r="86" fill="#F9CE46"/>
<path d="M48.4125 123.529C45.8066 123.526 43.3084 122.489 41.4658 120.647C39.6232 118.804 38.5867 116.306 38.5838 113.7V61.0633C38.5782 60.966 38.5782 60.8685 38.5838 60.7712V58.5246C38.5838 55.896 39.6272 53.3749 41.4849 51.5151C43.3425 49.6553 45.8625 48.609 48.4911 48.6061H65.3403C67.9652 48.612 70.4811 49.6558 72.3393 51.5097C74.1975 53.3637 75.247 55.8773 75.2589 58.5022H112.967C115.594 58.5051 118.112 59.5499 119.97 61.4072C121.827 63.2646 122.872 65.7828 122.875 68.4095V113.622C122.872 116.248 121.827 118.766 119.97 120.624C118.112 122.481 115.594 123.526 112.967 123.529H48.4125Z" fill="#FAA61A"/>
<path d="M65.3401 51.1671C67.2854 51.1671 69.1511 51.9399 70.5267 53.3154C71.9023 54.691 72.6751 56.5567 72.6751 58.5021V61.0632H112.967C114.91 61.0632 116.772 61.8348 118.146 63.2082C119.519 64.5817 120.291 66.4446 120.291 68.387V113.599C120.291 115.541 119.519 117.404 118.146 118.778C116.772 120.151 114.91 120.923 112.967 120.923H48.4122C46.4907 120.923 44.6479 120.159 43.2891 118.801C41.9304 117.442 41.1671 115.599 41.1671 113.678V61.0632V58.5021C41.1656 57.5394 41.354 56.5858 41.7213 55.696C42.0887 54.8061 42.628 53.9974 43.3082 53.3161C43.9884 52.6349 44.7963 52.0944 45.6856 51.7256C46.5749 51.3569 47.5281 51.1671 48.4909 51.1671H65.3401ZM65.3401 46H48.4909C45.177 46.003 42 47.3215 39.6578 49.6657C37.3156 52.01 36 55.1883 36 58.5021V60.6251C36 60.7599 36 60.8947 36 61.0295V113.644C36.0178 116.925 37.333 120.066 39.6585 122.381C41.984 124.696 45.1309 125.997 48.4122 126H112.967C116.279 125.997 119.454 124.68 121.796 122.338C124.138 119.996 125.455 116.821 125.458 113.509V68.387C125.455 65.0751 124.138 61.8997 121.796 59.5579C119.454 57.216 116.279 55.8991 112.967 55.8961H77.6063C77.0017 53.0944 75.4536 50.5852 73.2209 48.788C70.9882 46.9908 68.2062 46.0146 65.3401 46.0225V46Z" fill="#42210B"/>
<path d="M122.493 119.608L104.868 120.249V75.4523H127.682V89.2799L122.493 119.608Z" fill="#FFCB05"/>
<path d="M113.293 117.991L112.967 120.923H55.9382V118.463L57.5558 112.498L68.4291 83.2143C68.4291 83.2143 67.5192 75.5648 80.9986 75.5648C94.478 75.5648 121.021 76.2725 121.021 76.2725L113.293 117.991Z" fill="#FFCB05"/>
<path d="M112.271 123.529C114.522 123.524 116.717 122.831 118.564 121.545C120.411 120.258 121.82 118.438 122.605 116.329L135.208 82.5178C135.511 81.7135 135.615 80.8479 135.51 79.9949C135.406 79.1419 135.096 78.3269 134.609 77.6194C134.121 76.9119 133.469 76.333 132.709 75.9322C131.948 75.5314 131.103 75.3205 130.243 75.3176H79.0666C76.8276 75.3277 74.6438 76.0142 72.8017 77.287C70.9596 78.5599 69.5451 80.3597 68.7437 82.4504C68.7437 82.4504 59.7574 108.039 56.1517 116.317C52.2202 125.382 43.9304 122.215 43.9304 122.215" stroke="#42210B" stroke-width="4.6" stroke-linecap="round" stroke-linejoin="round"/>
<path d="M90.8274 86.2695H121.628" stroke="white" stroke-width="4.6" stroke-linecap="round" stroke-linejoin="round"/>
</svg>
