<svg width="172" height="172" viewBox="0 0 172 172" fill="none" xmlns="http://www.w3.org/2000/svg">
<circle cx="86" cy="86" r="86" fill="#F9CE46"/>
<path d="M104.84 123.352C103.597 123.353 102.372 123.05 101.273 122.469L88.8188 115.936C87.7979 115.392 86.6584 115.108 85.5015 115.11C84.3497 115.11 83.2152 115.39 82.1954 115.925L69.7412 122.469C68.4774 123.136 67.052 123.436 65.6268 123.333C64.2015 123.231 62.8335 122.731 61.678 121.89C60.5225 121.05 59.6259 119.902 59.0899 118.577C58.5539 117.253 58.3999 115.804 58.6456 114.397L61.0119 100.55C61.2054 99.4113 61.1201 98.2428 60.7632 97.1445C60.4063 96.0461 59.7885 95.0507 58.9626 94.2434L48.9086 84.4499C47.886 83.4527 47.1628 82.1893 46.8209 80.8026C46.4789 79.4159 46.5318 77.9611 46.9735 76.6029C47.4153 75.2446 48.2283 74.0371 49.3206 73.1169C50.4128 72.1966 51.7409 71.6003 53.1544 71.3955L67.0465 69.3689C68.1896 69.2027 69.2751 68.7614 70.2099 68.083C71.1448 67.4046 71.9008 66.5093 72.4132 65.4741L78.629 52.8726C79.2615 51.5931 80.2392 50.516 81.4516 49.7629C82.664 49.0097 84.0629 48.6106 85.4902 48.6106C86.9174 48.6106 88.3163 49.0097 89.5287 49.7629C90.7411 50.516 91.7188 51.5931 92.3513 52.8726L98.5785 65.4741C99.0866 66.5102 99.84 67.4066 100.773 68.0853C101.707 68.7641 102.792 69.2047 103.934 69.3689L117.837 71.3955C119.251 71.6003 120.579 72.1966 121.671 73.1169C122.763 74.0371 123.576 75.2446 124.018 76.6029C124.46 77.9611 124.513 79.4159 124.171 80.8026C123.829 82.1893 123.106 83.4527 122.083 84.4499L112.029 94.2434C111.2 95.0513 110.58 96.0482 110.221 97.1486C109.862 98.2489 109.775 99.4199 109.968 100.561L112.346 114.397C112.536 115.496 112.483 116.623 112.192 117.699C111.9 118.776 111.377 119.775 110.659 120.628C109.94 121.481 109.044 122.167 108.033 122.638C107.022 123.108 105.921 123.352 104.806 123.352H104.84Z" fill="#FFCB05"/>
<path d="M85.4677 51.2082C86.4119 51.2019 87.3386 51.4633 88.1402 51.9623C88.9418 52.4613 89.5855 53.1774 89.9965 54.0274L96.2123 66.6289C96.9134 68.0411 97.9458 69.2626 99.2215 70.1893C100.497 71.1159 101.978 71.7201 103.538 71.9502L117.441 73.9656C118.374 74.101 119.25 74.4948 119.971 75.1024C120.692 75.7101 121.228 76.5073 121.519 77.4039C121.81 78.3005 121.844 79.2607 121.618 80.1758C121.391 81.0908 120.913 81.9242 120.238 82.5816L110.184 92.3865C109.054 93.4863 108.21 94.8444 107.723 96.3435C107.235 97.8426 107.12 99.4378 107.387 100.991L109.765 114.838C109.925 115.768 109.821 116.724 109.466 117.598C109.11 118.472 108.517 119.229 107.753 119.783C106.99 120.337 106.086 120.666 105.145 120.733C104.203 120.799 103.262 120.601 102.428 120.16L89.9739 113.627C88.5783 112.889 87.0236 112.504 85.445 112.504C83.8665 112.504 82.3118 112.889 80.9162 113.627L68.462 120.16C67.7407 120.545 66.9359 120.747 66.1183 120.748C65.3824 120.747 64.6557 120.586 63.9887 120.275C63.3216 119.964 62.7304 119.512 62.2562 118.949C61.7819 118.386 61.4361 117.727 61.2427 117.017C61.0493 116.307 61.0131 115.564 61.1366 114.838L63.5142 100.991C63.7812 99.4378 63.6661 97.8426 63.1789 96.3435C62.6917 94.8444 61.847 93.4863 60.7177 92.3865L50.6524 82.5816C49.9809 81.9217 49.5068 81.0874 49.2834 80.1728C49.0601 79.2581 49.0963 78.2993 49.388 77.4041C49.6798 76.5089 50.2154 75.7128 50.9348 75.1053C51.6542 74.4979 52.5288 74.1032 53.4602 73.9656L67.3524 71.9502C68.9122 71.7201 70.393 71.1159 71.6686 70.1893C72.9443 69.2626 73.9767 68.0411 74.6778 66.6289L80.9049 54.0274C81.3138 53.1757 81.957 52.4581 82.7591 51.9588C83.5612 51.4595 84.4889 51.1991 85.4337 51.2082H85.4677ZM85.4337 46.0001C83.5177 45.9941 81.6388 46.5284 80.0127 47.5417C78.3865 48.5551 77.079 50.0064 76.2402 51.729L70.0244 64.3192C69.701 64.9763 69.223 65.5452 68.6314 65.9771C68.0398 66.409 67.3523 66.6909 66.6278 66.7987L52.7583 68.814C50.8669 69.0935 49.0913 69.896 47.6318 71.131C46.1723 72.366 45.087 73.9842 44.4983 75.8032C43.9097 77.6222 43.8411 79.5695 44.3003 81.4254C44.7595 83.2814 45.7283 84.972 47.0973 86.3066L57.1626 96.1115C57.6882 96.624 58.0813 97.2566 58.3082 97.9548C58.535 98.653 58.5887 99.396 58.4646 100.12L56.087 113.955C55.7367 115.847 55.9292 117.799 56.6422 119.586C57.3551 121.373 58.5594 122.922 60.1158 124.053C61.6721 125.184 63.5169 125.851 65.4367 125.978C67.3565 126.104 69.2729 125.685 70.9641 124.768L83.4184 118.235C84.0644 117.895 84.783 117.716 85.513 117.714C86.2468 117.714 86.9695 117.893 87.6189 118.235L100.073 124.768C101.545 125.549 103.185 125.957 104.851 125.956C106.345 125.955 107.821 125.627 109.176 124.996C110.53 124.365 111.731 123.446 112.693 122.304C113.656 121.161 114.358 119.822 114.75 118.38C115.141 116.938 115.214 115.428 114.962 113.955L112.584 100.108C112.462 99.3864 112.517 98.6457 112.743 97.9496C112.97 97.2536 113.362 96.6228 113.886 96.1115L123.94 86.3179C125.312 84.9838 126.284 83.2923 126.745 81.4347C127.206 79.5772 127.139 77.6277 126.55 75.8066C125.961 73.9855 124.874 72.3655 123.412 71.1298C121.951 69.8941 120.173 69.0919 118.279 68.814L104.376 66.7987C103.651 66.6909 102.964 66.409 102.372 65.9771C101.78 65.5452 101.302 64.9763 100.979 64.3192L94.6499 51.729C93.8103 50.0046 92.501 48.5522 90.8726 47.5387C89.2443 46.5253 87.363 45.9919 85.445 46.0001H85.4337Z" fill="#42210B"/>
<path d="M85.5017 51.2195C84.5579 51.208 83.6303 51.4661 82.8281 51.9635C82.0259 52.4609 81.3823 53.1769 80.9729 54.0274L74.7457 66.6289C74.0446 68.0411 73.0122 69.2626 71.7366 70.1892C70.461 71.1159 68.9801 71.7201 67.4204 71.9502L53.5282 73.9656C52.5968 74.1032 51.7222 74.4979 51.0028 75.1053C50.2834 75.7128 49.7477 76.5088 49.456 77.404C49.1642 78.2993 49.128 79.2581 49.3514 80.1728C49.5747 81.0874 50.0488 81.9216 50.7203 82.5816L60.7856 92.3865C61.9149 93.4863 62.7596 94.8443 63.2468 96.3435C63.7341 97.8426 63.8492 99.4378 63.5822 100.991L61.2045 114.838C61.0459 115.767 61.15 116.721 61.5051 117.593C61.8602 118.465 62.4522 119.221 63.2142 119.774C63.9762 120.328 64.8778 120.657 65.8171 120.725C66.7565 120.793 67.6961 120.597 68.5299 120.16L80.9842 113.627C82.378 112.883 83.9333 112.495 85.513 112.495L85.5017 51.2195Z" fill="#FAA61A"/>
<path d="M84.9808 64.7381C84.9808 64.7381 88.0152 71.3275 91.6722 77.8037" stroke="white" stroke-width="4.6" stroke-linecap="round" stroke-linejoin="round"/>
</svg>
