<svg width="172" height="172" viewBox="0 0 172 172" fill="none" xmlns="http://www.w3.org/2000/svg">
<circle cx="86" cy="86" r="86" fill="#F9CE46"/>
<path d="M56.1494 123.339C55.0357 123.336 53.9365 123.085 52.9313 122.606C51.9261 122.126 51.0398 121.43 50.3364 120.566C49.6329 119.703 49.1298 118.694 48.8633 117.612C48.5968 116.531 48.5736 115.404 48.7954 114.312L51.9437 98.9305C52.5257 96.0299 53.9526 93.3661 56.0448 91.2744L95.5452 51.774C96.5367 50.782 97.714 49.9951 99.0097 49.4582C100.305 48.9213 101.694 48.6449 103.097 48.6449C104.499 48.6449 105.888 48.9213 107.184 49.4582C108.48 49.9951 109.657 50.782 110.648 51.774L119.943 61.0682C120.935 62.0597 121.721 63.237 122.258 64.5327C122.795 65.8284 123.072 67.2172 123.072 68.6198C123.072 70.0223 122.795 71.4111 122.258 72.7068C121.721 74.0025 120.935 75.1798 119.943 76.1713L80.4421 115.672C78.3667 117.757 75.7318 119.198 72.8557 119.819L57.7526 123.095C57.2221 123.211 56.6808 123.269 56.1378 123.27L56.1494 123.339Z" fill="#FFCB05"/>
<path d="M103.12 51.321C104.172 51.3157 105.214 51.5183 106.187 51.917C107.16 52.3158 108.044 52.9029 108.79 53.6445L118.084 62.9387C119.584 64.4397 120.426 66.4747 120.426 68.5966C120.426 70.7184 119.584 72.7534 118.084 74.2544L78.5834 113.755C76.8781 115.499 74.7025 116.71 72.3214 117.24L57.2183 120.516C56.8752 120.594 56.5245 120.633 56.1727 120.633C55.4563 120.63 54.7495 120.468 54.1031 120.159C53.4568 119.85 52.887 119.402 52.4347 118.846C51.9825 118.291 51.6591 117.642 51.4879 116.946C51.3166 116.251 51.3017 115.526 51.4443 114.824L54.5811 99.4418C55.0683 97.0643 56.2441 94.8826 57.9619 93.1682L97.4623 53.6678C98.9663 52.1748 101.001 51.3393 103.12 51.3442V51.321ZM103.12 46.0001C101.368 45.9942 99.6314 46.3362 98.012 47.0063C96.3927 47.6763 94.9225 48.6612 93.6865 49.9036L54.1861 89.404C51.7273 91.8527 50.046 94.9727 49.3531 98.3729L46.2047 113.766C45.9038 115.246 45.935 116.774 46.296 118.239C46.6571 119.705 47.3391 121.073 48.2927 122.243C49.2463 123.413 50.4478 124.357 51.8105 125.007C53.1732 125.657 54.6631 125.996 56.1727 126C56.9068 125.998 57.6387 125.92 58.3568 125.768L73.4599 122.491C76.8331 121.75 79.9246 120.062 82.3707 117.624L121.871 78.1232C123.112 76.8844 124.097 75.413 124.769 73.7933C125.44 72.1736 125.786 70.4372 125.786 68.6837C125.786 66.9302 125.44 65.1939 124.769 63.5741C124.097 61.9544 123.112 60.4831 121.871 59.2443L112.577 49.9501C111.339 48.7057 109.868 47.719 108.246 47.047C106.625 46.375 104.887 46.031 103.132 46.0349L103.12 46.0001Z" fill="#42210B"/>
<path d="M103.515 71.248L70.5485 104.215L79.6671 113.333L112.634 80.3666L103.515 71.248Z" fill="#FAA61A"/>
<path d="M78.6764 114.719L56.6492 92.6917" stroke="#42210B" stroke-width="4.6" stroke-linejoin="round"/>
<path d="M113.925 79.4709L91.8972 57.4436" stroke="#42210B" stroke-width="4.6" stroke-linejoin="round"/>
<path d="M57.2067 120.551L64.038 119.076L52.85 107.888L51.4327 114.859C51.2705 115.648 51.3081 116.465 51.5423 117.236C51.7765 118.007 52.1998 118.707 52.7736 119.273C53.3474 119.839 54.0535 120.252 54.8278 120.475C55.602 120.699 56.4198 120.725 57.2067 120.551Z" fill="#42210B"/>
<path d="M69.0452 102.753L102.423 69.3632" stroke="#42210B" stroke-width="4.6" stroke-linejoin="round"/>
<path d="M75.9344 82.8864L89.7364 69.2355" stroke="white" stroke-width="4.6" stroke-linecap="round" stroke-linejoin="round"/>
<path d="M102.074 57.2576C102.494 56.9309 103.004 56.7431 103.535 56.7202C104.066 56.6973 104.591 56.8405 105.037 57.1298" stroke="white" stroke-width="4.6" stroke-linecap="round" stroke-linejoin="round"/>
</svg>
