<svg width="172" height="172" viewBox="0 0 172 172" fill="none" xmlns="http://www.w3.org/2000/svg">
<circle cx="86" cy="86" r="86" fill="#F9CE46"/>
<path d="M79.9006 119.55C79.9006 122.013 79.1701 124.42 77.8015 126.468C76.4329 128.516 74.4878 130.111 72.2121 131.053C69.9364 131.995 67.4325 132.241 65.017 131.76C62.6016 131.279 60.3832 130.092 58.6425 128.349C56.9017 126.607 55.7169 124.387 55.2378 121.971C54.7587 119.555 55.007 117.052 55.9511 114.777C56.8953 112.502 58.4929 110.559 60.5419 109.192C62.5909 107.825 64.9992 107.097 67.4621 107.099C69.0965 107.099 70.7149 107.422 72.2248 108.047C73.7347 108.673 75.1064 109.59 76.2616 110.747C77.4168 111.903 78.3327 113.276 78.9571 114.786C79.5815 116.297 79.9021 117.915 79.9006 119.55Z" fill="#FAA61A" stroke="#42210B" stroke-width="4.6" stroke-linejoin="round"/>
<path d="M79.9006 119.031V67.8151" stroke="#42210B" stroke-width="4.6" stroke-linejoin="round"/>
<path d="M116.414 106.404C116.414 108.867 115.684 111.274 114.315 113.322C112.947 115.37 111.001 116.966 108.726 117.908C106.45 118.85 103.946 119.095 101.531 118.614C99.1152 118.133 96.8968 116.946 95.1561 115.203C93.4154 113.461 92.2305 111.242 91.7515 108.826C91.2724 106.41 91.5206 103.906 92.4648 101.631C93.4089 99.3565 95.0066 97.4128 97.0556 96.0462C99.1045 94.6795 101.513 93.9513 103.976 93.9536C105.61 93.9536 107.229 94.2758 108.738 94.9016C110.248 95.5274 111.62 96.4447 112.775 97.601C113.93 98.7572 114.846 100.13 115.471 101.64C116.095 103.151 116.416 104.769 116.414 106.404Z" fill="#FAA61A" stroke="#42210B" stroke-width="4.6" stroke-linejoin="round"/>
<path d="M116.426 104.883V59.3381" stroke="#42210B" stroke-width="4.6" stroke-linejoin="round"/>
<path d="M116.414 66.2589L79.8652 75.3961V66.365C79.8676 64.4556 80.5066 62.6015 81.681 61.0961C82.8555 59.5907 84.4983 58.5198 86.3498 58.053L109.93 52.1579C110.699 51.9641 111.502 51.9485 112.278 52.1121C113.054 52.2757 113.783 52.6143 114.408 53.1021C115.034 53.59 115.539 54.2141 115.887 54.927C116.235 55.6399 116.415 56.4227 116.414 57.2159V66.2589Z" fill="#FFCB05" stroke="#42210B" stroke-width="4.6" stroke-linejoin="round"/>
<path d="M66.8608 116.367C67.7198 116.367 68.5535 116.657 69.2273 117.19C69.9012 117.722 70.3758 118.467 70.5747 119.302" stroke="white" stroke-width="4.6" stroke-linecap="round" stroke-linejoin="round"/>
<path d="M103.905 102.902C104.763 102.9 105.596 103.188 106.271 103.718C106.945 104.249 107.42 104.992 107.619 105.826" stroke="white" stroke-width="4.6" stroke-linecap="round" stroke-linejoin="round"/>
</svg>
