<svg width="36" height="36" viewBox="0 0 36 36" fill="none" xmlns="http://www.w3.org/2000/svg">
<path d="M19.9891 18.0003L35.5886 2.40072C36.1378 1.85151 36.1378 0.96106 35.5886 0.411913C35.0394 -0.137234 34.1489 -0.137304 33.5998 0.411913L18.0002 16.0115L2.40072 0.411913C1.85151 -0.137304 0.96106 -0.137304 0.411913 0.411913C-0.137234 0.96113 -0.137304 1.85158 0.411913 2.40072L16.0114 18.0002L0.411913 33.5998C-0.137304 34.149 -0.137304 35.0395 0.411913 35.5886C0.686486 35.8632 1.04642 36.0004 1.40635 36.0004C1.76629 36.0004 2.12615 35.8632 2.4008 35.5886L18.0002 19.9891L33.5997 35.5886C33.8743 35.8632 34.2342 36.0004 34.5942 36.0004C34.9541 36.0004 35.314 35.8632 35.5886 35.5886C36.1378 35.0394 36.1378 34.1489 35.5886 33.5998L19.9891 18.0003Z" fill="black"/>
</svg>
