<svg width="80" height="80" viewBox="0 0 80 80" fill="none" xmlns="http://www.w3.org/2000/svg">
<circle cx="40" cy="40" r="20" fill="#363E43"/>
<path d="M39.7326 38.9447L32.0167 31.2288C31.7291 30.931 31.2546 30.9227 30.9568 31.2103C30.659 31.4979 30.6507 31.9725 30.9383 32.2703C30.9443 32.2765 30.9505 32.2827 30.9568 32.2887L38.6727 40.0047L30.9567 47.7205C30.6691 48.0183 30.6774 48.4929 30.9752 48.7805C31.2657 49.0611 31.7262 49.0611 32.0167 48.7805L39.7326 41.0646L47.4485 48.7805C47.7412 49.0732 48.2157 49.0732 48.5084 48.7805C48.8011 48.4878 48.8011 48.0133 48.5084 47.7205L40.7926 40.0047L48.5084 32.2888C48.7961 31.991 48.7878 31.5164 48.49 31.2288C48.1995 30.9483 47.7389 30.9483 47.4485 31.2288L39.7326 38.9447Z" fill="white"/>
</svg>
