<svg width="16" height="14" viewBox="0 0 16 14" fill="none" xmlns="http://www.w3.org/2000/svg">
<path d="M15.1817 4.9298L10.7868 4.29107L8.82217 0.308118C8.76851 0.199068 8.68023 0.110788 8.57118 0.0571283C8.29769 -0.0778871 7.96534 0.0346257 7.8286 0.308118L5.86395 4.29107L1.46903 4.9298C1.34786 4.94711 1.23708 5.00423 1.15226 5.09078C1.04972 5.19617 0.993218 5.33796 0.995166 5.48499C0.997113 5.63202 1.05735 5.77227 1.16265 5.87491L4.34243 8.97507L3.59119 13.3527C3.57358 13.4545 3.58485 13.5592 3.62372 13.655C3.6626 13.7508 3.72753 13.8337 3.81114 13.8944C3.89476 13.9552 3.99372 13.9912 4.09681 13.9986C4.19989 14.0059 4.30297 13.9843 4.39436 13.936L8.32539 11.8692L12.2564 13.936C12.3637 13.9931 12.4884 14.0122 12.6078 13.9914C12.909 13.9395 13.1115 13.6539 13.0596 13.3527L12.3083 8.97507L15.4881 5.87491C15.5747 5.79009 15.6318 5.67931 15.6491 5.55814C15.6958 5.25522 15.4847 4.9748 15.1817 4.9298ZM10.9703 8.53886L11.5952 12.1791L8.32539 10.462L5.05559 12.1808L5.68047 8.54059L3.03555 5.96145L6.69135 5.43005L8.32539 2.11871L9.95942 5.43005L13.6152 5.96145L10.9703 8.53886Z" fill="#F9CE46"/>
<path d="M10.9703 8.53886L11.5952 12.1791L8.32539 10.462L5.05559 12.1808L5.68047 8.54059L3.03555 5.96145L6.69135 5.43005L8.32539 2.11871L9.95942 5.43005L13.6152 5.96145L10.9703 8.53886Z" fill="#F9CE46"/>
</svg>
