<svg width="29" height="14" viewBox="0 0 29 14" fill="none" xmlns="http://www.w3.org/2000/svg">
<path d="M0.331205 7.79919C0.331542 7.79953 0.331825 7.79992 0.33222 7.80026L6.23165 13.6712C6.67361 14.111 7.38846 14.1094 7.82838 13.6674C8.26826 13.2254 8.26656 12.5106 7.8246 12.0707L3.86372 8.12903L27.7743 8.12903C28.3979 8.12903 28.9033 7.62356 28.9033 7C28.9033 6.37644 28.3979 5.87097 27.7743 5.87097L3.86378 5.87097L7.82454 1.92929C8.26651 1.48942 8.2682 0.774571 7.82833 0.332611C7.3884 -0.109462 6.67349 -0.110986 6.23159 0.328773L0.332164 6.19974C0.331825 6.20008 0.331542 6.20048 0.331147 6.20082C-0.111039 6.64216 -0.109627 7.35932 0.331205 7.79919Z" fill="black"/>
</svg>
