<svg width="30" height="16" viewBox="0 0 30 16" fill="none" xmlns="http://www.w3.org/2000/svg">
<path d="M0.683012 9.02241C0.683355 9.02274 0.683644 9.02313 0.684044 9.02346L6.67557 14.8004C7.12443 15.2332 7.83917 15.2202 8.27205 14.7713C8.70488 14.3225 8.69188 13.6077 8.24302 13.1749L4.22031 9.29635L28.1279 8.91825C28.7514 8.90839 29.2488 8.39499 29.2389 7.77151C29.2291 7.14802 28.7157 6.65061 28.0922 6.66047L4.18465 7.03857L8.08259 3.03475C8.51754 2.58795 8.50793 1.87316 8.06113 1.43821C7.61426 1.00315 6.89942 1.01293 6.46453 1.45962L0.658679 7.42315C0.658345 7.42349 0.658069 7.42389 0.65768 7.42424C0.222528 7.87251 0.23528 8.58956 0.683012 9.02241Z" fill="#EA3135"/>
</svg>
