<svg width="28" height="26" viewBox="0 0 28 26" fill="none" xmlns="http://www.w3.org/2000/svg">
<path d="M26.3365 9.15183L18.1776 7.96608L14.5304 0.572001C14.4308 0.369555 14.2669 0.205671 14.0644 0.106055C13.5567 -0.144592 12.9397 0.0642803 12.6859 0.572001L9.03866 7.96608L0.879784 9.15183C0.654845 9.18397 0.449186 9.29001 0.291728 9.45068C0.101371 9.64633 -0.00352483 9.90956 9.04447e-05 10.1825C0.00370572 10.4555 0.115536 10.7158 0.311009 10.9064L6.21406 16.6616L4.81944 24.7883C4.78673 24.9774 4.80765 25.1718 4.87982 25.3496C4.95199 25.5273 5.07253 25.6813 5.22776 25.7941C5.38299 25.9068 5.56671 25.9738 5.75808 25.9874C5.94944 26.0011 6.14081 25.9608 6.31046 25.8713L13.6081 22.0344L20.9058 25.8713C21.1051 25.9773 21.3364 26.0126 21.5581 25.9741C22.1173 25.8777 22.4932 25.3475 22.3968 24.7883L21.0022 16.6616L26.9053 10.9064C27.0659 10.7489 27.172 10.5432 27.2041 10.3183C27.2909 9.75596 26.8988 9.23538 26.3365 9.15183ZM18.5182 15.8518L19.6783 22.6096L13.6081 19.4219L7.53799 22.6129L8.69804 15.855L3.78793 11.067L10.5747 10.0805L13.6081 3.93324L16.6416 10.0805L23.4284 11.067L18.5182 15.8518Z" fill="white"/>
<path d="M18.5182 15.8518L19.6783 22.6096L13.6081 19.4219L7.53799 22.6129L8.69804 15.855L3.78793 11.067L10.5747 10.0805L13.6081 3.93324L16.6416 10.0805L23.4284 11.067L18.5182 15.8518Z" fill="white"/>
</svg>
