<svg width="16" height="16" viewBox="0 0 16 16" fill="none" xmlns="http://www.w3.org/2000/svg">
<path d="M9.49963 13.0001V10C9.49963 9.86741 9.44696 9.74024 9.35319 9.64647C9.25942 9.5527 9.13224 9.50002 8.99963 9.50002H6.99963C6.86703 9.50002 6.73985 9.5527 6.64608 9.64647C6.55231 9.74024 6.49963 9.86741 6.49963 10V13.0001C6.49963 13.1327 6.44696 13.2598 6.35321 13.3536C6.25945 13.4474 6.13229 13.5001 5.9997 13.5001L3.00006 13.5005C2.9344 13.5005 2.86937 13.4876 2.8087 13.4624C2.74803 13.4373 2.6929 13.4005 2.64647 13.3541C2.60003 13.3076 2.5632 13.2525 2.53807 13.1918C2.51293 13.1312 2.5 13.0661 2.5 13.0005V7.2217C2.5 7.15205 2.51456 7.08315 2.54273 7.01945C2.57091 6.95574 2.61209 6.89863 2.66363 6.85176L7.66329 2.30584C7.75532 2.22216 7.87525 2.17579 7.99964 2.17578C8.12403 2.17578 8.24396 2.22214 8.336 2.30582L13.3363 6.85176C13.3879 6.89862 13.4291 6.95574 13.4573 7.01945C13.4854 7.08316 13.5 7.15206 13.5 7.22172V13.0005C13.5 13.0661 13.4871 13.1312 13.4619 13.1918C13.4368 13.2525 13.4 13.3076 13.3535 13.3541C13.3071 13.4005 13.252 13.4373 13.1913 13.4624C13.1306 13.4876 13.0656 13.5005 12.9999 13.5005L9.99957 13.5001C9.86697 13.5001 9.73981 13.4474 9.64606 13.3536C9.5523 13.2599 9.49963 13.1327 9.49963 13.0001V13.0001Z" stroke="#7B7B7B" stroke-linecap="round" stroke-linejoin="round"/>
</svg>
