<svg width="21" height="21" viewBox="0 0 21 21" fill="none" xmlns="http://www.w3.org/2000/svg">
<path d="M15.75 15.0938H5.61871C5.46503 15.0938 5.31621 15.0398 5.19822 14.9413C5.08023 14.8429 5.00054 14.7061 4.97305 14.5549L2.78263 2.50761C2.75514 2.3564 2.67545 2.21964 2.55746 2.12116C2.43947 2.02269 2.29065 1.96875 2.13697 1.96875H0.65625" stroke="white" stroke-linecap="round" stroke-linejoin="round"/>
<path d="M5.90625 18.375C6.81234 18.375 7.54688 17.6405 7.54688 16.7344C7.54688 15.8283 6.81234 15.0938 5.90625 15.0938C5.00016 15.0938 4.26562 15.8283 4.26562 16.7344C4.26562 17.6405 5.00016 18.375 5.90625 18.375Z" stroke="white" stroke-linecap="round" stroke-linejoin="round"/>
<path d="M15.75 18.375C16.6561 18.375 17.3906 17.6405 17.3906 16.7344C17.3906 15.8283 16.6561 15.0938 15.75 15.0938C14.8439 15.0938 14.1094 15.8283 14.1094 16.7344C14.1094 17.6405 14.8439 18.375 15.75 18.375Z" stroke="white" stroke-linecap="round" stroke-linejoin="round"/>
<path d="M3.28125 5.25H17.5887C17.6848 5.25 17.7797 5.27112 17.8668 5.31185C17.9539 5.35259 18.0309 5.41196 18.0925 5.48576C18.1541 5.55956 18.1987 5.64598 18.2232 5.73893C18.2477 5.83188 18.2515 5.92907 18.2343 6.02364L17.1605 11.9299C17.133 12.0811 17.0533 12.2179 16.9353 12.3163C16.8173 12.4148 16.6685 12.4688 16.5148 12.4688H4.59375" stroke="white" stroke-linecap="round" stroke-linejoin="round"/>
</svg>
