<svg width="20" height="17" viewBox="0 0 20 17" fill="none" xmlns="http://www.w3.org/2000/svg">
<path d="M15.4286 4.28571L18.8571 10.5714H12L15.4286 4.28571ZM4 4.28571L7.42857 10.5714H0.571429L4 4.28571ZM11.3304 2.57143H15.7143C15.875 2.57143 16 2.44643 16 2.28571V1.71428C16 1.55357 15.875 1.42857 15.7143 1.42857H11.3304C11.0893 0.758928 10.4643 0.285713 9.71429 0.285713C8.96429 0.285713 8.33929 0.758928 8.09822 1.42857H3.71429C3.55357 1.42857 3.42857 1.55357 3.42857 1.71428V2.28571C3.42857 2.44643 3.55357 2.57143 3.71429 2.57143H8.09822C8.26786 3.05357 8.66072 3.44643 9.14286 3.61607V15.1429H3.71429C3.55357 15.1429 3.42857 15.2679 3.42857 15.4286V16C3.42857 16.1607 3.55357 16.2857 3.71429 16.2857H15.7143C15.875 16.2857 16 16.1607 16 16V15.4286C16 15.2679 15.875 15.1429 15.7143 15.1429H10.2857V3.61607C10.7679 3.44643 11.1607 3.05357 11.3304 2.57143ZM9.71429 2.71428C9.32143 2.71428 9 2.39286 9 2C9 1.60714 9.32143 1.28571 9.71429 1.28571C10.1071 1.28571 10.4286 1.60714 10.4286 2C10.4286 2.39286 10.1071 2.71428 9.71429 2.71428ZM19.4286 10.5714C19.4286 10.2232 16.3125 4.70536 15.9286 4.00893C15.8304 3.83036 15.6339 3.71428 15.4286 3.71428C15.2232 3.71428 15.0268 3.83036 14.9286 4.00893C14.5446 4.70536 11.4286 10.2232 11.4286 10.5714C11.4286 12.4107 13.9732 13.1429 15.4286 13.1429C16.8839 13.1429 19.4286 12.4107 19.4286 10.5714ZM8 10.5714C8 10.2232 4.88393 4.70536 4.5 4.00893C4.40179 3.83036 4.20536 3.71428 4 3.71428C3.79464 3.71428 3.59821 3.83036 3.5 4.00893C3.11607 4.70536 0 10.2232 0 10.5714C0 12.4107 2.54464 13.1429 4 13.1429C5.45536 13.1429 8 12.4107 8 10.5714Z" fill="#519AF0"/>
</svg>
