<svg width="28" height="24" viewBox="0 0 28 24" fill="none" xmlns="http://www.w3.org/2000/svg">
<path d="M22.1786 6.03571L27.1071 15.0714H17.25L22.1786 6.03571ZM5.75 6.03571L10.6786 15.0714H0.821429L5.75 6.03571ZM16.2874 3.57143H22.5893C22.8203 3.57143 23 3.39174 23 3.16071V2.33928C23 2.10826 22.8203 1.92857 22.5893 1.92857H16.2874C15.9408 0.965959 15.0424 0.285713 13.9643 0.285713C12.8862 0.285713 11.9877 0.965959 11.6412 1.92857H5.33929C5.10826 1.92857 4.92857 2.10826 4.92857 2.33928V3.16071C4.92857 3.39174 5.10826 3.57143 5.33929 3.57143H11.6412C11.885 4.26451 12.4498 4.82924 13.1429 5.0731V21.6429H5.33929C5.10826 21.6429 4.92857 21.8225 4.92857 22.0536V22.875C4.92857 23.106 5.10826 23.2857 5.33929 23.2857H22.5893C22.8203 23.2857 23 23.106 23 22.875V22.0536C23 21.8225 22.8203 21.6429 22.5893 21.6429H14.7857V5.0731C15.4788 4.82924 16.0435 4.26451 16.2874 3.57143ZM13.9643 3.77678C13.3996 3.77678 12.9375 3.31473 12.9375 2.75C12.9375 2.18527 13.3996 1.72321 13.9643 1.72321C14.529 1.72321 14.9911 2.18527 14.9911 2.75C14.9911 3.31473 14.529 3.77678 13.9643 3.77678ZM27.9286 15.0714C27.9286 14.5709 23.4492 6.63895 22.8973 5.63783C22.7561 5.38114 22.4738 5.21428 22.1786 5.21428C21.8834 5.21428 21.601 5.38114 21.4598 5.63783C20.9079 6.63895 16.4286 14.5709 16.4286 15.0714C16.4286 17.7154 20.0865 18.7679 22.1786 18.7679C24.2706 18.7679 27.9286 17.7154 27.9286 15.0714ZM11.5 15.0714C11.5 14.5709 7.02065 6.63895 6.46875 5.63783C6.32757 5.38114 6.0452 5.21428 5.75 5.21428C5.4548 5.21428 5.17243 5.38114 5.03125 5.63783C4.47935 6.63895 0 14.5709 0 15.0714C0 17.7154 3.65792 18.7679 5.75 18.7679C7.84208 18.7679 11.5 17.7154 11.5 15.0714Z" fill="#3A3A3A"/>
</svg>
