<svg width="23" height="23" viewBox="0 0 23 23" fill="none" xmlns="http://www.w3.org/2000/svg">
<path d="M8.30842 11.2122C9.05397 12.7364 10.2895 13.9663 11.8171 14.7049C11.9289 14.7579 12.0525 14.7808 12.1758 14.7715C12.2992 14.7622 12.4179 14.7209 12.5205 14.6517L14.7698 13.1518C14.8693 13.0855 14.9837 13.045 15.1028 13.0341C15.2218 13.0232 15.3418 13.0421 15.4517 13.0892L19.6597 14.8926C19.8026 14.9533 19.922 15.0589 19.9997 15.1933C20.0775 15.3278 20.1094 15.4838 20.0908 15.638C19.9578 16.6788 19.45 17.6354 18.6625 18.3287C17.8749 19.022 16.8617 19.4045 15.8125 19.4046C12.5719 19.4046 9.464 18.1172 7.17254 15.8258C4.88108 13.5343 3.59375 10.4264 3.59375 7.1858C3.59381 6.13658 3.9763 5.12336 4.66961 4.33585C5.36293 3.54834 6.31951 3.04054 7.36027 2.90753C7.51445 2.88887 7.67053 2.92083 7.80497 2.99858C7.93942 3.07634 8.04495 3.19568 8.10567 3.33862L9.91068 7.55031C9.95737 7.65925 9.97639 7.77804 9.96606 7.89611C9.95572 8.01418 9.91635 8.12786 9.85145 8.22703L8.35677 10.5108C8.28874 10.6136 8.24853 10.7322 8.24005 10.8551C8.23158 10.9781 8.25513 11.1011 8.30842 11.2122V11.2122Z" stroke="#3A3A3A" stroke-linecap="round" stroke-linejoin="round"/>
</svg>
