<svg width="16" height="19" viewBox="0 0 16 19" fill="none" xmlns="http://www.w3.org/2000/svg">
<path d="M9.42188 14.6328H10.2656C10.4766 14.6328 10.6875 14.457 10.6875 14.2109V6.61719C10.6875 6.40625 10.4766 6.19531 10.2656 6.19531H9.42188C9.17578 6.19531 9 6.40625 9 6.61719V14.2109C9 14.457 9.17578 14.6328 9.42188 14.6328ZM15.1875 2.82031H12.2695L11.0742 0.851562C10.793 0.359375 10.2305 0.0078125 9.63281 0.0078125H6.08203C5.48438 0.0078125 4.92188 0.359375 4.64062 0.851562L3.44531 2.82031H0.5625C0.246094 2.82031 0 3.10156 0 3.38281V3.94531C0 4.26172 0.246094 4.50781 0.5625 4.50781H1.125V16.3203C1.125 17.2695 1.86328 18.0078 2.8125 18.0078H12.9375C13.8516 18.0078 14.625 17.2695 14.625 16.3203V4.50781H15.1875C15.4688 4.50781 15.75 4.26172 15.75 3.94531V3.38281C15.75 3.10156 15.4688 2.82031 15.1875 2.82031ZM6.01172 1.80078C6.04688 1.76562 6.11719 1.69531 6.1875 1.69531C6.1875 1.69531 6.1875 1.69531 6.22266 1.69531H9.52734C9.59766 1.69531 9.66797 1.76562 9.70312 1.80078L10.3008 2.82031H5.41406L6.01172 1.80078ZM12.9375 16.3203H2.8125V4.50781H12.9375V16.3203ZM5.48438 14.6328H6.32812C6.53906 14.6328 6.75 14.457 6.75 14.2109V6.61719C6.75 6.40625 6.53906 6.19531 6.32812 6.19531H5.48438C5.23828 6.19531 5.0625 6.40625 5.0625 6.61719V14.2109C5.0625 14.457 5.23828 14.6328 5.48438 14.6328Z" fill="#C0C0C0"/>
</svg>
