<svg width="17" height="11" viewBox="0 0 17 11" fill="none" xmlns="http://www.w3.org/2000/svg">
<path d="M15.9668 1.33203C16.0547 0.980469 15.9668 0.6875 15.4395 0.6875H13.7109C13.2715 0.6875 13.0664 0.921875 12.9492 1.18555C12.9492 1.18555 12.0703 3.32422 10.8398 4.73047C10.4297 5.11133 10.2539 5.25781 10.0195 5.25781C9.93164 5.25781 9.75586 5.11133 9.75586 4.75977V1.33203C9.75586 0.892578 9.63867 0.6875 9.25781 0.6875H6.5625C6.26953 0.6875 6.12305 0.892578 6.12305 1.09766C6.12305 1.50781 6.73828 1.5957 6.79688 2.76758V5.31641C6.79688 5.87305 6.70898 5.99023 6.47461 5.99023C5.88867 5.99023 4.48242 3.82227 3.63281 1.36133C3.45703 0.892578 3.28125 0.6875 2.8418 0.6875H1.11328C0.644531 0.6875 0.527344 0.921875 0.527344 1.18555C0.527344 1.6543 1.11328 3.91016 3.25195 6.92773C4.6875 8.97852 6.70898 10.0625 8.52539 10.0625C9.60938 10.0625 9.75586 9.82812 9.75586 9.41797C9.75586 7.45508 9.66797 7.25 10.1953 7.25C10.459 7.25 10.8984 7.39648 11.9238 8.39258C13.0957 9.56445 13.3008 10.0625 13.9453 10.0625H15.6738C16.1719 10.0625 16.4062 9.82812 16.2598 9.33008C15.9375 8.33398 13.7402 6.22461 13.623 6.07812C13.3594 5.75586 13.4473 5.60938 13.623 5.31641C13.623 5.31641 15.7324 2.32812 15.9668 1.33203Z" fill="#3A3A3A"/>
</svg>
