<svg width="17" height="12" viewBox="0 0 17 12" fill="none" xmlns="http://www.w3.org/2000/svg">
<path d="M16.084 2.53711C15.9082 1.83398 15.3516 1.27734 14.6777 1.10156C13.418 0.75 8.4375 0.75 8.4375 0.75C8.4375 0.75 3.42773 0.75 2.16797 1.10156C1.49414 1.27734 0.9375 1.83398 0.761719 2.53711C0.410156 3.76758 0.410156 6.4043 0.410156 6.4043C0.410156 6.4043 0.410156 9.01172 0.761719 10.2715C0.9375 10.9746 1.49414 11.502 2.16797 11.6777C3.42773 12 8.4375 12 8.4375 12C8.4375 12 13.418 12 14.6777 11.6777C15.3516 11.502 15.9082 10.9746 16.084 10.2715C16.4355 9.01172 16.4355 6.4043 16.4355 6.4043C16.4355 6.4043 16.4355 3.76758 16.084 2.53711ZM6.79688 8.77734V4.03125L10.957 6.4043L6.79688 8.77734Z" fill="#3A3A3A"/>
</svg>
