<svg width="10" height="14" viewBox="0 0 10 14" fill="none" xmlns="http://www.w3.org/2000/svg">
<path fill-rule="evenodd" clip-rule="evenodd" d="M5.00392 0C3.17016 0 1.68359 1.55261 1.68359 3.46786C1.68359 5.3831 3.17016 6.93572 5.00392 6.93572C6.83769 6.93572 8.32425 5.3831 8.32425 3.46786C8.32425 1.55261 6.83769 0 5.00392 0ZM5.00531 0.941406C6.3415 0.941406 7.42469 2.07273 7.42469 3.46828C7.42469 4.86383 6.3415 5.99515 5.00531 5.99515C3.66913 5.99515 2.58594 4.86383 2.58594 3.46828C2.58594 2.07273 3.66913 0.941406 5.00531 0.941406ZM3.64379 8.33553C3.15771 8.37062 2.66638 8.44278 2.18175 8.5508C1.24636 8.75118 0.498033 9.15155 0.179525 9.81687C0.0593922 10.0771 -0.00100646 10.3557 1.26844e-05 10.6377C-0.000347714 10.9177 0.059562 11.1967 0.175386 11.4519C0.481215 12.1095 1.14238 12.4817 2.03515 12.688L2.19508 12.7227C2.66656 12.8334 3.15803 12.9079 3.65279 12.9428C3.69493 12.9557 3.79536 12.9676 3.90498 12.9734L3.99514 12.9769C4.0415 12.9781 4.09412 12.9783 4.17251 12.9783C4.88366 13.019 5.6209 13.0072 6.35471 12.9422C6.74576 12.9144 7.13944 12.8612 7.52984 12.7833L7.82193 12.7202C8.78599 12.5224 9.50787 12.1463 9.82413 11.4526C10.0586 10.9376 10.0586 10.34 9.82424 9.82523C9.50877 9.13332 8.79607 8.7603 7.81461 8.55003C7.42955 8.46454 7.03826 8.40128 6.64418 8.36088L6.35607 8.33553C5.45371 8.25274 4.54614 8.25274 3.64379 8.33553ZM6.27861 9.27324L6.28653 9.27389C6.73881 9.307 7.18832 9.37302 7.6318 9.47148C8.36082 9.62768 8.85556 9.88661 9.01207 10.2299C9.12992 10.4888 9.12992 10.7895 9.01197 11.0486C8.86572 11.3694 8.42139 11.6172 7.77918 11.7687L7.63857 11.7996C7.18638 11.9046 6.73835 11.9722 6.28735 12.0043C5.58759 12.0662 4.89197 12.0774 4.19811 12.0384L3.95211 12.034C3.88382 12.0304 3.82626 12.0235 3.77293 12.0124C3.35058 11.9792 2.97054 11.9268 2.60155 11.8507L2.38122 11.8022C1.64994 11.6531 1.15084 11.3931 0.989025 11.0451C0.932402 10.9203 0.902156 10.7795 0.902336 10.6369C0.90183 10.4951 0.931676 10.3574 0.989615 10.2319C1.14696 9.90335 1.67587 9.62037 2.36766 9.47216C2.81434 9.37262 3.26364 9.30663 3.71571 9.27392C4.5739 9.19527 5.42871 9.19527 6.27861 9.27324Z" fill="white"/>
</svg>
