<svg width="20" height="18" viewBox="0 0 20 18" fill="none" xmlns="http://www.w3.org/2000/svg">
<path d="M14.7364 6.61971L10.7545 0.39848C10.6695 0.272866 10.5563 0.170887 10.4247 0.101454C10.2932 0.0320214 10.1474 -0.00275274 10 0.00017015C9.70909 0.00017015 9.41818 0.13294 9.24545 0.407964L5.26364 6.61971H0.909091C0.409091 6.61971 0 7.04647 0 7.56807C0 7.65342 0.00909088 7.73877 0.0363636 7.82412L2.34545 16.6154C2.55455 17.412 3.25455 18 4.09091 18H15.9091C16.7455 18 17.4455 17.412 17.6636 16.6154L19.9727 7.82412L20 7.56807C20 7.04647 19.5909 6.61971 19.0909 6.61971H14.7364ZM7.27273 6.61971L10 2.44693L12.7273 6.61971H7.27273ZM10 14.2066C9 14.2066 8.18182 13.353 8.18182 12.3099C8.18182 11.2667 9 10.4131 10 10.4131C11 10.4131 11.8182 11.2667 11.8182 12.3099C11.8182 13.353 11 14.2066 10 14.2066Z" fill="white"/>
</svg>
