<svg width="177" height="288" viewBox="0 0 177 288" fill="none" xmlns="http://www.w3.org/2000/svg">
<path d="M82.8032 23.3852C87.932 23.3852 92.0897 19.3676 92.0897 14.4111C92.0897 9.45498 87.932 5.43701 82.8032 5.43701C77.6748 5.43701 73.5171 9.45498 73.5171 14.4111C73.5171 19.3676 77.6748 23.3852 82.8032 23.3852Z" fill="#262626"/>
<path d="M74.0868 12.065C77.5339 12.065 80.3283 9.36449 80.3283 6.0328C80.3283 2.70149 77.5339 0.000976562 74.0868 0.000976562C70.6396 0.000976562 67.8452 2.70149 67.8452 6.0328C67.8452 9.36449 70.6396 12.065 74.0868 12.065Z" fill="#262626"/>
<path d="M9.32072 241.648C9.41458 241.658 9.45647 241.708 9.4045 241.749C9.446 241.799 9.44599 241.799 9.43591 241.889C9.63332 242.513 9.77294 243.152 9.85283 243.799L1.82761 250.032L0.939453 249.067C0.939453 249.067 3.90101 245.527 5.01334 244.497C5.49155 244.043 5.91818 243.629 6.34442 243.216C6.71869 242.842 7.05107 242.418 7.37337 242.085C7.81978 241.49 9.12292 241.719 9.133 241.628C9.18497 241.588 9.32072 241.648 9.32072 241.648Z" fill="#3E3E3E"/>
<path d="M69.9933 187.496L62.247 194.753L18.9208 235.187L18.1299 235.883L17.7875 236.398L17.7355 236.438L11.5983 245.424L10.9126 246.452L10.6845 246.795L6.53076 252.917L9.9523 254.561L10.9432 255.032L12.3406 255.683L14.542 256.787L14.5839 256.836L16.9207 257.999L17.0347 257.828L22.3679 247.978C23.403 246.076 24.8532 244.413 26.6186 243.105L73.7298 208.252L82.6862 201.627L69.9933 187.496Z" fill="#FFCCB3"/>
<path d="M12.1972 236.765C14.2737 235.833 16.6047 234.999 18.8832 235.129C17.5095 236.292 16.8839 238.36 15.9764 239.868C14.1089 242.972 9.32139 248.741 11.7675 253.643C13.1416 256.397 16.9871 257.861 17.0391 257.82C17.6825 260.649 20.8717 272.164 14.5146 265.489C10.9643 261.762 7.4423 257.78 5.6718 253.827C4.94576 252.207 6.48122 250.59 7.2348 249.222C8.19859 247.152 9.64097 244.41 9.45869 242.118L9.4168 242.068C9.31247 241.909 1.08091 249.031 0.940902 249.065C0.658554 248.622 0 247.727 0 247.727C0 247.727 11.8016 236.907 12.1972 236.765Z" fill="#FF926F"/>
<path d="M100.842 274.434C100.917 274.378 100.983 274.385 100.975 274.449C101.041 274.457 101.041 274.457 101.099 274.529C101.691 274.841 102.253 275.204 102.779 275.612L101.553 285.491L100.221 285.402C100.221 285.402 99.775 280.869 99.8254 279.381C99.8386 278.734 99.844 278.15 99.8491 277.566C99.8464 277.046 99.7774 276.519 99.7673 276.063C99.6556 275.336 100.752 274.618 100.694 274.547C100.702 274.483 100.842 274.434 100.842 274.434Z" fill="#3E3E3E"/>
<path d="M105.03 194.719L104.744 205.141L103.032 263.324L102.971 264.357L103.099 264.956L103.091 265.02L105.206 275.59L105.46 276.789L105.545 277.188L107.005 284.371L110.641 283.234L111.69 282.901L113.161 282.422L115.532 281.723L115.598 281.731L118.11 280.983L118.068 280.783L114.753 270.138C114.116 268.079 113.949 265.91 114.265 263.782L122.721 207.03L124.329 196.242L105.03 194.719Z" fill="#FFCCB3"/>
<path d="M99.3715 269.007C100.181 266.938 101.244 264.767 102.967 263.32C102.826 265.079 103.876 266.981 104.319 268.672C105.23 272.153 105.982 279.512 111.277 281.363C114.253 282.403 118.061 280.85 118.069 280.786C120.576 282.374 131.188 288.45 121.814 287.974C116.578 287.709 111.179 287.242 107.053 285.614C105.362 284.946 105.29 282.753 104.839 281.266C104.029 279.134 103.076 276.2 101.287 274.684L101.221 274.677C101.032 274.634 100.301 285.288 100.226 285.407C99.7031 285.281 98.585 285.087 98.585 285.087C98.585 285.087 99.1911 269.376 99.3715 269.007Z" fill="#FF926F"/>
<path d="M116.732 116.371C116.732 116.371 130.205 185.196 131.225 192.575C132.245 199.954 132.925 251.334 132.925 251.334L87.8667 248.572L98.1899 188.452L96.9344 161.83C96.9344 161.83 95.3501 188.154 94.2432 192.575C93.1359 196.996 54.3265 242.792 54.3265 242.792L33.4971 218.687L66.6099 175.962C66.6099 175.962 70.0201 155.241 70.5724 144.083C71.6371 122.575 75.1187 116.936 75.1187 116.936L116.732 116.371Z" fill="#5D5D5D"/>
<path d="M116.702 116.521L75.1149 116.934L72.77 125.016L117.405 119.389L116.702 116.521Z" fill="#383838"/>
<path d="M161.512 67.518L164.677 63.6019C165.34 62.6852 166.221 61.9359 167.247 61.4175C168.805 60.6642 171.193 59.2579 172.023 57.8524C173.398 55.6185 178.819 49.5844 174.117 44.894C172.377 43.1632 172.811 43.5728 169.332 43.6249C165.853 43.6763 165.319 47.1654 163.58 49.4495C163.58 49.4495 163.189 46.8149 161.267 45.6114C159.345 44.4079 160.621 51.7594 159.142 54.5458C157.664 57.3317 158.858 58.385 155.355 63.28L161.512 67.518Z" fill="#FFCCB3"/>
<path d="M169.861 44.0249L167.035 50.2246L169.861 44.0249Z" fill="#E56441"/>
<path d="M169.861 44.0249L167.035 50.2246" stroke="#E56441" stroke-width="1.03302" stroke-linecap="round"/>
<path d="M173.543 45.1343L169.626 51.7354L173.543 45.1343Z" fill="#E56441"/>
<path d="M173.543 45.1343L169.626 51.7354" stroke="#E56441" stroke-width="1.03302" stroke-linecap="round"/>
<path d="M175.86 49.4692L172.772 53.4104L175.86 49.4692Z" fill="#E56441"/>
<path d="M175.86 49.4692L172.772 53.4104" stroke="#E56441" stroke-width="1.03302" stroke-linecap="round"/>
<path d="M164.309 50.854C164.309 50.854 165.504 54.1658 165.298 56.7756L164.309 50.854Z" fill="#E56441"/>
<path d="M164.309 50.854C164.309 50.854 165.504 54.1658 165.298 56.7756" stroke="#E56441" stroke-width="1.03302" stroke-linecap="round"/>
<path d="M112.479 57.0132C115.729 58.102 120.259 60.31 121.486 62.774L132.319 86.6239L155.355 61.0986L163.353 67.5161L140.344 100.763C135.466 107.785 128.313 108.752 123.778 102.97L114.727 89.23L112.479 57.0132Z" fill="#FF926F"/>
<path d="M117.098 77.5458C117.098 77.5458 118.075 75.9176 118.075 84.4172L123.778 102.971L114.726 89.232C107.464 79.7969 113.201 77.2767 117.098 77.5458Z" fill="#FF967C"/>
<path d="M104.855 53.8837C104.855 53.8837 113.238 57.0895 114.518 58.079C115.798 59.0689 117.014 67.1453 119.19 70.98C121.366 74.8147 124.55 81.8926 119.9 88.3937C115.25 94.8948 115.745 100.058 115.745 100.058L116.734 116.366L76.6631 117.08C76.3101 117.091 75.9591 117.029 75.633 116.898C75.3064 116.768 75.0124 116.573 74.7704 116.325C74.528 116.076 74.343 115.781 74.2278 115.459C74.1122 115.136 74.0692 114.794 74.101 114.454C74.5462 109.699 76.5801 103.022 76.7399 95.4506C76.9567 85.1894 78.7555 50.8538 78.7555 50.8538L94.5744 50.374C98.0906 50.9599 104.855 53.8837 104.855 53.8837Z" fill="white"/>
<path d="M115.919 102.976V102.976L115.826 101.448C115.801 100.497 115.809 99.3251 115.842 98.0117C116.117 95.9184 117.026 92.4162 119.898 88.4012C124.547 81.9001 121.364 74.8222 119.187 70.9875C117.012 67.1524 115.796 59.0764 114.516 58.0865C113.236 57.097 109.192 55.6128 109.192 55.6128C109.192 55.6128 108.952 62.6573 108.71 69.1086C108.467 75.5602 106.93 130.775 106.93 130.775H123.779C123.779 130.775 116.469 107.748 115.919 102.976Z" fill="#FF926F"/>
<path d="M88.6983 50.5542C88.6983 50.5542 95.484 62.0999 98.193 73.8292C100.902 85.5589 94.2002 125.056 95.0946 130.162L63.7441 132.476C63.7441 132.476 74.9788 118.029 75.8033 104.447C76.6275 90.865 78.0722 63.496 78.0722 63.496L79.6154 50.9215L88.6983 50.5542Z" fill="#FF926F"/>
<path d="M83.9799 64.9204C83.9799 64.9204 86.4381 70.0452 86.7817 73.8626C87.1249 77.6805 83.7422 86.7089 91.2465 87.7707C100.446 89.0721 98.448 90.7486 94.184 91.7445C89.9197 92.7403 84.9988 90.731 84.6466 94.9866C84.0951 101.653 79.2781 105.393 75.793 104.447C78.1305 84.1677 75.3768 75.3236 83.9799 64.9204Z" fill="#E1684A"/>
<path d="M104.919 43.9862L106.714 56.624C106.714 56.624 107.844 59.2676 104.868 59.4531C101.893 59.6383 97.5611 58.0764 94.9113 56.0063C92.262 53.9363 92.3776 53.7151 93.0369 51.9543C93.6959 50.193 95.9476 37.2358 95.9476 37.2358L104.919 43.9862Z" fill="#FFCCB3"/>
<path d="M106.416 55.9245C104.829 53.7907 103.122 50.6543 101.768 47.9486C101.028 46.4692 100.396 45.1229 99.9483 44.1465C99.7245 43.6581 99.5469 43.2627 99.4255 42.9891C99.4251 42.9883 99.4247 42.9876 99.4243 42.9868L104.865 45.1787L106.416 55.9245Z" fill="#FCBA9F"/>
<path d="M110.006 19.6402C110.006 19.6402 114.706 32.5618 111.835 40.501C109.963 45.6783 106.296 45.3953 97.6766 41.2907C89.7739 37.5269 87.7641 34.769 87.7641 34.769L86.8984 21.7324C86.8984 21.7324 105.035 9.1204 110.006 19.6402Z" fill="#FFCCB3"/>
<path d="M102.685 21.369C102.685 21.369 101.924 24.6816 97.6036 27.1688C95.2525 28.5226 94.9232 34.213 94.9232 34.213C94.9232 34.213 94.3748 30.3225 91.2146 31.7018C88.0545 33.0811 92.8839 38.0256 95.6244 39.0964C95.6244 39.0964 95.3017 40.7609 94.5508 44.7246C94.5508 44.7246 84.427 41.1818 83.2526 32.0758C82.6678 27.5414 80.9031 13.2738 94.1828 11.2379C108.71 9.01037 110.514 17.4417 112.48 24.0785C112.48 24.0785 106.759 27.0076 102.685 21.369Z" fill="#262626"/>
<path d="M104.165 37.3614L108.473 37.165C108.47 37.1793 108.466 37.1939 108.462 37.2089C108.419 37.3742 108.345 37.5968 108.224 37.8266C107.983 38.285 107.565 38.7569 106.836 38.8918C105.65 39.0039 104.976 38.5616 104.592 38.1047C104.396 37.8716 104.272 37.6302 104.197 37.4469C104.185 37.4165 104.174 37.388 104.165 37.3614Z" fill="#E56441" stroke="#E56441"/>
<path d="M109.528 30.7253C110.009 30.6009 110.246 29.9438 110.056 29.2579C109.866 28.5717 109.322 28.1163 108.841 28.2407C108.359 28.3651 108.122 29.0222 108.312 29.7084C108.502 30.3944 109.046 30.8498 109.528 30.7253Z" fill="#080B09"/>
<path d="M102.442 32.6599C102.924 32.5354 103.16 31.8784 102.971 31.1921C102.781 30.5062 102.237 30.0508 101.755 30.1753C101.273 30.2997 101.037 30.9568 101.227 31.6427C101.416 32.3289 101.961 32.7843 102.442 32.6599Z" fill="#080B09"/>
<path d="M110.115 26.1727L106.511 27.1652C106.449 27.1772 106.384 27.1667 106.328 27.1356C106.273 27.1048 106.231 27.0554 106.21 26.9969C106.194 26.8871 106.201 26.7754 106.231 26.6682C106.261 26.561 106.313 26.4605 106.384 26.3736C106.455 26.2862 106.543 26.2139 106.644 26.1603C106.744 26.1071 106.855 26.0741 106.969 26.0636L110.063 25.7559C110.3 25.6944 110.411 26.0958 110.115 26.1727Z" fill="#080B09"/>
<path d="M97.7943 29.1211L102.681 28.1661C102.637 28.0255 102.563 27.8955 102.464 27.7841C102.365 27.6728 102.243 27.5825 102.106 27.5195C101.969 27.4565 101.819 27.4221 101.668 27.4183C101.516 27.4146 101.365 27.4415 101.224 27.4974L97.6555 28.8497C97.5368 28.8801 97.6163 29.1668 97.7943 29.1211Z" fill="#080B09"/>
<path d="M106.136 29.8965L107.507 32.8522L107.043 34.2102" fill="#E56441"/>
<path d="M106.136 29.8965L107.507 32.8522L107.043 34.2102" stroke="#E56441" stroke-width="1.03302" stroke-linecap="round"/>
<path d="M82.3685 56.4067C82.3685 56.4067 73.314 52.1931 71.6125 54.8996C68.0703 60.3074 62.3539 79.1438 60.4527 83.5284C60.1452 84.3267 74.1715 86.5291 74.1715 86.5291L87.9608 63.8062L82.3685 56.4067Z" fill="#FF926F"/>
<path d="M79.3805 69.1038C84.5772 69.1038 88.7903 65.0322 88.7903 60.0101C88.7903 54.9881 84.5772 50.9165 79.3805 50.9165C74.1835 50.9165 69.9707 54.9881 69.9707 60.0101C69.9707 65.0322 74.1835 69.1038 79.3805 69.1038Z" fill="#FF926F"/>
<path d="M57.7715 90.624L70.5036 95.365L74.169 86.524L74.7772 85.1289L61.7038 80.1743L61.086 81.8385L57.7715 90.624Z" fill="#FF926F"/>
<path d="M64.067 99.7335C67.8395 99.7335 70.8977 96.7777 70.8977 93.1319C70.8977 89.4861 67.8395 86.5308 64.067 86.5308C60.2945 86.5308 57.2363 89.4861 57.2363 93.1319C57.2363 96.7777 60.2945 99.7335 64.067 99.7335Z" fill="#FF926F"/>
<path d="M104.7 94.997C104.7 94.997 111.767 97.3193 115.752 95.6889C115.752 95.6889 122.203 98.4167 123.121 97.952C124.621 97.1356 123.431 95.7327 123.431 95.7327C123.431 95.7327 127.608 96.8654 128.178 93.0464C129.018 87.6945 121.46 86.5457 117.882 86.1481C114.365 85.6739 104.7 88.2766 104.7 88.2766V94.997Z" fill="#FFCCB3"/>
<path d="M125.011 85.7946L117.519 86.0652L124.739 88.2803C124.739 88.2803 127.315 87.1139 126.114 86.1207C125.799 85.8868 125.407 85.7706 125.011 85.7946Z" fill="#FFCCB3"/>
<path d="M123.362 95.7475L118.693 94.1377L123.362 95.7475Z" fill="#93523E"/>
<path d="M123.362 95.7475L118.693 94.1377" stroke="#E56441" stroke-width="1.03302" stroke-linecap="round"/>
<path d="M125.792 92.6306C125.792 92.6306 120.522 90.7626 119.379 90.646L125.792 92.6306Z" fill="#93523E"/>
<path d="M125.792 92.6306C125.792 92.6306 120.522 90.7626 119.379 90.646" stroke="#E56441" stroke-width="1.03302" stroke-linecap="round"/>
<path d="M126.401 90.0252C124.309 89.0334 122.074 88.3513 119.771 88.002L126.401 90.0252Z" fill="#93523E"/>
<path d="M126.401 90.0252C124.309 89.0334 122.074 88.3513 119.771 88.002" stroke="#E56441" stroke-width="1.03302" stroke-linecap="round"/>
<path d="M64.2334 86.5073C64.2334 86.5073 102.524 88.2967 105.404 87.7689L105.326 95.7427L65.4966 99.532L64.2334 86.5073Z" fill="#FF926F"/>
<path d="M90.5602 50.5542C90.5602 50.5542 90.395 77.3824 101.16 80.1728C111.925 82.9637 112.476 57.0144 112.476 57.0144" stroke="#FFE6DD" stroke-width="1.78858" stroke-miterlimit="10"/>
<path fill-rule="evenodd" clip-rule="evenodd" d="M12.5493 233.189C9.40547 236.216 6.62193 237.047 6.62193 237.047L2.13654 229.304L8.51188 226.219L12.5493 233.189Z" fill="white"/>
</svg>
