<svg width="144" height="288" viewBox="0 0 144 288" fill="none" xmlns="http://www.w3.org/2000/svg">
<path d="M143.415 259.799L123.705 286.31C123.241 286.935 122.551 287.347 121.786 287.457C121.021 287.566 120.244 287.364 119.627 286.894L117.798 285.501L141.009 254.281L142.838 255.673C143.455 256.143 143.863 256.842 143.971 257.615C144.079 258.389 143.879 259.175 143.415 259.799Z" fill="#9A9A9A"/>
<path d="M124.818 244.274L131.925 250.118L124.705 261.389L116.694 255.202L124.818 244.274Z" fill="#FFCCB3"/>
<path d="M127.977 247.124L119.125 256.892L116.972 255.174L125.261 244.869L127.977 247.124Z" fill="#FCBA9F"/>
<path d="M130.973 249.386C130.973 249.386 128.977 256.487 122.403 260.124L116.465 283.612C116.653 284.96 118.142 285.826 119.132 286.147C119.35 286.216 119.583 286.216 119.8 286.145C120.017 286.074 120.207 285.936 120.343 285.751L141.412 257.411C141.764 256.938 141.919 256.345 141.842 255.758C141.767 255.171 141.466 254.638 141.005 254.273C139.163 252.813 136.338 250.611 135.115 249.856C133.224 248.688 131.876 248.417 130.973 249.386Z" fill="#FF926F"/>
<path d="M121.032 264.999L124.411 264.265C124.535 264.239 124.663 264.243 124.784 264.278C124.905 264.313 125.017 264.378 125.108 264.466C125.198 264.555 125.266 264.665 125.305 264.786C125.344 264.908 125.353 265.037 125.331 265.163C125.304 265.317 125.232 265.459 125.124 265.572C125.016 265.683 124.877 265.76 124.725 265.791L120.577 266.638L121.032 264.999Z" fill="white"/>
<path d="M120.232 268.724L123.593 267.983C123.716 267.956 123.845 267.96 123.966 267.995C124.087 268.03 124.198 268.095 124.289 268.183C124.38 268.272 124.448 268.382 124.487 268.504C124.526 268.625 124.535 268.754 124.513 268.88C124.486 269.034 124.414 269.176 124.306 269.288C124.197 269.401 124.059 269.477 123.907 269.508L119.816 270.367L120.232 268.724Z" fill="white"/>
<path d="M119.208 272.77L122.532 272.019C122.655 271.992 122.783 271.996 122.904 272.031C123.026 272.066 123.137 272.131 123.228 272.22C123.319 272.308 123.386 272.418 123.425 272.54C123.464 272.661 123.473 272.79 123.451 272.916C123.424 273.07 123.352 273.213 123.244 273.325C123.136 273.437 122.997 273.513 122.845 273.544L118.804 274.369L119.208 272.77Z" fill="white"/>
<path d="M57.2676 213.373L113.52 259.228L126.354 244.097L77.1684 197.409L57.2676 213.373Z" fill="#383838"/>
<path d="M87.4434 207.163V237.972L113.524 259.232L117.269 235.474L87.4434 207.163Z" fill="#212121"/>
<path d="M62.2632 129.075L53.0166 203.679H78.8694L101.328 129.449L62.2632 129.075Z" fill="#383838"/>
<path d="M84.46 185.197L88.8021 148.186H99.4781L84.46 185.197Z" fill="#212121"/>
<path d="M107.667 288.001H74.8792C74.1066 288.001 73.3658 287.69 72.8195 287.138C72.2736 286.585 71.9668 285.836 71.9668 285.054V282.738H110.579V285.054C110.579 285.836 110.272 286.585 109.726 287.138C109.18 287.69 108.439 288.001 107.667 288.001Z" fill="#9A9A9A"/>
<path d="M108.755 263.638L108.411 272.897L95.1689 273.835L95.2401 263.638H108.755Z" fill="#FFCCB3"/>
<path d="M108.401 267.903L95.3652 266.619L95.4274 263.844L108.55 264.352L108.401 267.903Z" fill="#FCBA9F"/>
<path d="M108.408 271.692C108.408 271.692 101.6 274.346 94.7755 271.217L72.6541 280.535C71.7022 281.497 71.9133 283.222 72.2547 284.215C72.3309 284.433 72.4717 284.621 72.6583 284.754C72.8446 284.886 73.0674 284.957 73.2953 284.956H108.345C108.93 284.956 109.492 284.725 109.909 284.31C110.327 283.896 110.567 283.333 110.579 282.741C110.625 280.373 110.666 276.766 110.527 275.323C110.313 273.091 109.716 271.839 108.408 271.692Z" fill="#FF926F"/>
<path d="M90.1067 273.035L92.7169 275.326C92.8122 275.41 92.8861 275.516 92.9312 275.635C92.9767 275.754 92.9922 275.883 92.9767 276.01C92.9615 276.136 92.9152 276.257 92.8429 276.362C92.7706 276.467 92.6738 276.551 92.561 276.609C92.4233 276.68 92.2674 276.707 92.1138 276.687C91.9603 276.667 91.8164 276.601 91.7009 276.497L88.5381 273.652L90.1067 273.035Z" fill="white"/>
<path d="M86.6849 274.627L89.2913 276.899C89.3865 276.983 89.46 277.089 89.5055 277.208C89.5506 277.327 89.5662 277.456 89.551 277.583C89.5355 277.709 89.4896 277.831 89.4173 277.935C89.3445 278.04 89.2477 278.125 89.1354 278.182C88.9973 278.253 88.8414 278.281 88.6882 278.261C88.5346 278.241 88.3907 278.174 88.2753 278.07L85.1377 275.278L86.6849 274.627Z" fill="white"/>
<path d="M82.8671 276.231L85.4579 278.467C85.5532 278.551 85.6267 278.657 85.6722 278.776C85.7173 278.895 85.7332 279.024 85.7177 279.151C85.7021 279.277 85.6562 279.398 85.5839 279.503C85.5112 279.607 85.4148 279.692 85.302 279.75C85.164 279.821 85.0084 279.848 84.8549 279.828C84.7013 279.808 84.5574 279.742 84.4419 279.638L81.3604 276.866L82.8671 276.231Z" fill="white"/>
<path d="M117.01 129.448C116.798 133.231 116.798 137.024 117.01 140.807C117.87 153.036 115.122 188.748 115.144 193.447C115.166 198.147 112.107 264.333 112.107 264.333H93.5198C93.5198 264.333 88.7685 207.452 88.6589 200.942C88.5492 194.432 87.4434 129.715 87.4434 129.715L117.01 129.448Z" fill="#383838"/>
<path d="M61.7061 133.591L117.014 140.807V129.448L61.9926 131.278L61.7061 133.591Z" fill="#212121"/>
<path d="M65.9428 216.753C73.0819 216.753 78.869 210.898 78.869 203.675C78.869 196.451 73.0819 190.596 65.9428 190.596C58.8037 190.596 53.0166 196.451 53.0166 203.675C53.0166 210.898 58.8037 216.753 65.9428 216.753Z" fill="#383838"/>
<path d="M104.417 137.69C104.417 137.69 101.934 142.44 101.329 142.986C100.723 143.53 90.7386 144.776 88.8045 145.477C86.8708 146.178 85.9473 147.237 85.9473 148.187H109.419C109.419 148.187 110.027 147.614 110.464 145.789C110.902 143.963 111.667 143.189 111.667 143.189L104.417 137.69Z" fill="#FCBA9F"/>
<path d="M70.6824 62.8591C72.2261 55.1484 68.5959 55.3471 67.3878 54.1212C67.3878 54.1212 62.8559 50.3396 59.4022 53.8647C55.7467 57.5932 34.793 86.557 34.793 86.557L47.9038 98.7575L50.3683 95.782L56.7519 88.0788L63.5799 79.8452L64.4284 78.9081L73.6392 68.3521C73.6392 68.3521 69.8095 66.9181 70.6824 62.8591Z" fill="#FF926F"/>
<path d="M76.1649 64.1696C77.9326 58.8309 75.0875 53.053 69.8109 51.2649C64.5344 49.4768 58.8239 52.3551 57.0566 57.6939C55.2893 63.033 58.1341 68.8105 63.4106 70.5986C68.6876 72.3871 74.3977 69.5084 76.1649 64.1696Z" fill="#FF926F"/>
<path d="M64.3031 78.869C64.5675 77.2572 65.0963 74.0342 65.6652 71.0969L68.6904 56.8794C68.6904 56.8794 60.566 69.0283 56.8234 77.4909C54.0513 83.8325 50.8356 90.296 50.3037 95.7634L56.6873 88.0598L63.5153 79.8266L64.3031 78.869Z" fill="#E1684A"/>
<path d="M21.6934 53.9513C18.578 48.2022 20.0754 47.2261 18.7499 43.9548C17.4442 40.7629 19.7628 32.85 17.5433 33.9287C15.3238 35.0079 14.6371 37.8752 14.6371 37.8752C13.1191 35.1586 11.7212 30.1597 8.08792 29.5877C4.45382 29.0157 4.13225 30.1727 2.07257 31.8829C-3.40695 36.4954 3.58011 43.428 4.74662 46.0678C5.49708 47.7226 11.0097 52.767 11.6209 53.8698L14.3953 57.9422L21.6934 53.9513Z" fill="#FFCCB3"/>
<path d="M10.9922 38.2322L6.56445 29.9604L10.9922 38.2322Z" fill="#E56441"/>
<path d="M10.9922 38.2322L6.56445 29.9604" stroke="#E56441" stroke-width="1.07832" stroke-linecap="round"/>
<path d="M8.0876 39.5709L3.26172 31.8677L8.0876 39.5709Z" fill="#E56441"/>
<path d="M8.0876 39.5709L3.26172 31.8677" stroke="#E56441" stroke-width="1.07832" stroke-linecap="round"/>
<path d="M4.63722 41.0466L1.87988 36.3813L4.63722 41.0466Z" fill="#E56441"/>
<path d="M4.63722 41.0466L1.87988 36.3813" stroke="#E56441" stroke-width="1.07832" stroke-linecap="round"/>
<path d="M12.083 45.5119C12.1063 42.6478 13.8047 39.1821 13.8047 39.1821L12.083 45.5119Z" fill="#E56441"/>
<path d="M12.083 45.5119C12.1063 42.6478 13.8047 39.1821 13.8047 39.1821" stroke="#E56441" stroke-width="1.07832" stroke-linecap="round"/>
<path d="M48.0135 86.329L21.3527 50.4058C21.1828 50.195 20.9417 50.0549 20.6758 50.0132C20.4098 49.9711 20.1384 50.0305 19.9129 50.1792L12.932 54.8508C12.6 55.0781 12.3639 55.422 12.2687 55.8158C12.1738 56.2096 12.2267 56.6255 12.4176 56.9819L33.8574 96.9872L48.0135 86.329Z" fill="#FF926F"/>
<path d="M41.5303 101.503C46.4612 101.503 50.4584 97.459 50.4584 92.47C50.4584 87.481 46.4612 83.437 41.5303 83.437C36.5994 83.437 32.6025 87.481 32.6025 92.47C32.6025 97.459 36.5994 101.503 41.5303 101.503Z" fill="#FF926F"/>
<path d="M78.8421 46.0029C78.8421 46.0029 65.8249 50.1921 63.2566 51.2791C60.6883 52.3662 60.5172 56.7143 60.3461 59.794C60.226 61.9519 62.6333 97.3861 62.7916 117.908C62.8254 122.292 62.0174 125.074 61.4987 127.511C60.9796 129.947 61.4987 131.274 61.4987 131.274L117.274 131.778C117.274 131.778 115.602 60.4754 115.26 57.9394C114.917 55.403 117.608 53.2187 114.691 51.9421L93.3932 46.0029H78.8421Z" fill="white"/>
<path d="M71.8407 48.291C71.8407 48.291 73.9661 58.1266 75.3585 65.9982C76.7509 73.8699 77.1748 139.035 77.1748 139.035C77.1748 139.035 60.8766 135.829 58.6687 132.041C56.4613 128.252 60.7136 111.231 61.0445 95.7647C61.3754 80.2988 58.1578 56.2972 61.536 52.1336C61.536 52.1336 62.4028 51.2649 71.8407 48.291Z" fill="#FF926F"/>
<path d="M99.2323 47.6538C99.2323 47.6538 91.4991 63.9557 91.9723 68.9243C92.4451 73.8928 92.472 116.265 91.9723 125.111C91.6616 130.493 90.8513 135.833 89.5518 141.061C89.5518 141.061 110.648 142.573 118.8 139.991C118.8 139.991 122.67 115.341 120.13 106.535C117.589 97.7288 115.649 51.9618 115.649 51.9618L99.2323 47.6538Z" fill="#FF926F"/>
<path d="M104.934 69.5636C104.934 69.5636 105.726 99.1077 105.562 108.955C105.459 115.092 98.5245 117.691 98.5039 121.244C98.4919 123.346 103.98 120.885 105.459 123.059C106.938 125.231 104.409 132.038 104.409 132.038L117.267 131.777L122.417 106.492L111.566 68.043L104.934 69.5636Z" fill="#E1684A"/>
<path d="M79.1091 39.4161L77.9017 53.1847C77.9017 53.1847 77.5794 55.3234 81.2508 56.0001C84.1659 56.5371 90.2237 53.0714 91.5908 51.9297C94.63 49.3921 94.9111 47.8566 94.5899 46.6806C94.1296 44.9956 92.6259 33.1221 92.6259 33.1221L79.1091 39.4161Z" fill="#FFCCB3"/>
<path d="M78.3105 50.6853L79.0544 42.1987L85.5336 38.9604L78.3105 50.6853Z" fill="#FCBA9F"/>
<path d="M71.9049 13.3583C71.9049 13.3583 69.4226 24.6074 69.092 32.2686C68.7588 39.9982 71.4888 41.47 74.8733 42.0471C77.5427 42.5023 81.6951 42.5354 84.3061 41.2162C89.0675 38.8104 96.8843 32.972 97.9074 31.839C99.4915 30.0851 99.3826 22.2626 93.3331 20.3282C88.9326 18.9209 77.713 6.97458 71.9049 13.3583Z" fill="#FFCCB3"/>
<path d="M71.9303 14.5566C75.5399 15.9883 82.3337 15.0476 86.0654 16.2732C89.792 17.5022 86.401 18.7993 86.5635 22.4416C86.6681 24.801 86.8454 29.3096 88.2764 29.2498C89.7077 29.1904 90.5503 24.07 93.5681 24.2652C96.5851 24.4642 98.0082 25.768 97.9421 27.721C97.8768 29.6696 95.7082 31.368 93.9977 32.2698C91.8564 33.3918 90.9726 32.9217 90.9726 32.9217C90.9726 32.9217 93.3826 41.8992 93.7465 41.5435C93.7465 41.5435 96.3459 40.0596 96.8149 37.4606C96.8149 37.4606 100.265 36.7044 99.5006 33.2136C99.5006 33.2136 101.649 32.516 100.63 30.495C100.63 30.495 106.182 26.7174 103.288 22.0946C103.288 22.0946 105.923 19.4367 102.776 18.3131C102.776 18.3131 106.943 12.1513 101.015 10.8372C101.015 10.8372 101.412 7.9369 98.6988 8.04745C98.6988 8.04745 97.5124 3.05883 91.59 5.02635C91.562 4.02744 91.2358 3.06041 90.6549 2.25232C90.074 1.44422 89.2652 0.832447 88.3343 0.497643C84.9802 -0.868718 82.7972 1.01185 82.7972 1.01185C82.7972 1.01185 79.2771 -1.89319 77.4235 2.36602C77.4235 2.36602 74.7611 0.98903 72.7652 2.45217C70.7661 3.9106 71.7378 6.96789 71.7378 6.96789C71.7378 6.96789 69.4534 6.42615 68.6197 8.34055C67.4423 11.0343 69.0957 12.0159 69.0957 12.0159C69.0957 12.0159 65.3764 16.4648 70.6067 20.6787L71.9303 14.5566Z" fill="#493212"/>
<path d="M81.0084 25.665C81.2047 24.755 80.8863 23.9119 80.2974 23.7816C79.7084 23.6514 79.0717 24.2837 78.8754 25.1933C78.679 26.1028 78.9974 26.946 79.5864 27.0762C80.1753 27.2064 80.8117 26.5746 81.0084 25.665Z" fill="#080B09"/>
<path d="M72.9078 23.816C73.1041 22.9064 72.7857 22.0632 72.1968 21.933C71.6078 21.8028 70.9715 22.4346 70.7748 23.3446C70.5785 24.2542 70.8968 25.0973 71.4858 25.2276C72.0747 25.3578 72.7115 24.7259 72.9078 23.816Z" fill="#080B09"/>
<path d="M74.5057 26.2354C74.5057 26.2354 75.5117 28.197 74.0579 28.2269C72.6685 28.2072 71.8591 29.0322 73.2605 30.2278" fill="#E56441"/>
<path d="M74.5057 26.2354C74.5057 26.2354 75.5117 28.197 74.0579 28.2269C72.6685 28.2072 71.8591 29.0322 73.2605 30.2278" stroke="#E56441" stroke-width="1.07832" stroke-linecap="round"/>
<path d="M73.4805 32.04L73.4868 32.0408L73.493 32.0412C74.3548 32.1041 76.0758 32.2292 77.2198 32.3319H77.2218C77.2552 32.3346 77.2871 32.3464 77.3143 32.3661C77.3415 32.3862 77.3629 32.4129 77.3761 32.4444C77.3893 32.4755 77.3936 32.5097 77.3889 32.5432C77.3843 32.5754 77.3714 32.6061 77.3512 32.6317C77.0997 32.9122 76.7685 33.2458 76.4004 33.5334C76.0283 33.8241 75.631 34.0578 75.2493 34.1511C74.8753 34.242 74.5227 34.1975 74.2071 33.9414C73.8821 33.6774 73.5711 33.1683 73.339 32.2733L73.3351 32.2579L73.3289 32.2434C73.3184 32.2198 73.3145 32.1938 73.3172 32.1678C73.3204 32.1419 73.3301 32.1175 73.3456 32.0966C73.3608 32.0758 73.3814 32.0596 73.4051 32.0498C73.4288 32.0396 73.4549 32.0364 73.4805 32.04Z" fill="#E56441" stroke="#E56441"/>
<path d="M83.8394 22.6686L83.7589 22.8334C83.6617 23.084 83.4708 23.2855 83.2277 23.3945C82.9847 23.503 82.7086 23.5101 82.4605 23.4137L78.2366 21.6449C78.0289 21.5678 77.8571 21.4144 77.7556 21.2153C77.6541 21.0162 77.63 20.7857 77.6887 20.5697C77.7182 20.4355 77.7754 20.3092 77.8571 20.1995C77.9383 20.0893 78.0418 19.9984 78.1608 19.9319C78.2794 19.8654 78.4108 19.8249 78.5461 19.8139C78.6814 19.8025 78.8175 19.8202 78.9458 19.8662L83.2503 21.4706C83.3677 21.508 83.477 21.5694 83.5707 21.6504C83.6644 21.7318 83.741 21.8314 83.7962 21.9431C83.851 22.0548 83.8833 22.1768 83.8907 22.3015C83.8981 22.4262 83.8806 22.551 83.8394 22.6686Z" fill="#080B09"/>
<path d="M69.5814 18.6869L74.158 18.3745C74.2937 18.367 74.4291 18.3887 74.5558 18.4382C74.6826 18.4878 74.7977 18.5637 74.8929 18.6613C74.9886 18.7589 75.0625 18.8761 75.1099 19.0047C75.1573 19.1334 75.1772 19.2707 75.1682 19.408C75.1643 19.6319 75.0772 19.8463 74.9244 20.0084C74.7716 20.1705 74.564 20.2684 74.3431 20.2834L69.798 20.7763C69.5328 20.798 69.2699 20.713 69.0669 20.5391C68.864 20.3656 68.7368 20.1177 68.7139 19.8498L68.682 19.6689C68.6754 19.5441 68.6933 19.419 68.7353 19.3018C68.7769 19.1842 68.8418 19.0764 68.9258 18.9847C69.0098 18.893 69.1109 18.8194 69.2237 18.7683C69.336 18.7172 69.4577 18.6896 69.5814 18.6869Z" fill="#080B09"/>
<path d="M116.066 59.0552C110.321 53.7538 108.625 57.0071 106.964 57.4261C106.964 57.4261 101.43 59.4172 102.644 64.226C103.927 69.3145 117.721 102.385 117.721 102.385L135.126 98.2158L133.545 93.6041L130.293 84.1049L126.82 73.9479L126.461 72.7298L122.243 59.3109C122.243 59.3109 119.059 61.8985 116.066 59.0552Z" fill="#FF926F"/>
<path d="M118.893 69.3337C123.12 65.6721 123.614 59.2365 119.995 54.9596C116.376 50.6823 110.015 50.1834 105.788 53.845C101.561 57.5066 101.068 63.9422 104.687 68.2191C108.305 72.4965 114.666 72.9953 118.893 69.3337Z" fill="#FF926F"/>
<path d="M117.589 97.7314L102.196 139.869C102.113 140.128 102.127 140.408 102.236 140.657C102.346 140.906 102.542 141.105 102.788 141.216L110.451 144.621C110.82 144.78 111.234 144.794 111.612 144.662C111.991 144.529 112.307 144.259 112.5 143.903L134.113 103.994L117.589 97.7314Z" fill="#FF926F"/>
<path d="M126.194 108.95C131.125 108.95 135.122 104.905 135.122 99.9163C135.122 94.9273 131.125 90.8833 126.194 90.8833C121.263 90.8833 117.266 94.9273 117.266 99.9163C117.266 104.905 121.263 108.95 126.194 108.95Z" fill="#FF926F"/>
</svg>
