<svg width="12" height="13" viewBox="0 0 12 13" fill="none" xmlns="http://www.w3.org/2000/svg">
<path fill-rule="evenodd" clip-rule="evenodd" d="M10.664 12.137C10.9696 12.4426 11.4652 12.4426 11.7708 12.137C12.0764 11.8314 12.0764 11.3358 11.7708 11.0302L7.10678 6.36621L11.7708 1.70221C12.0764 1.39658 12.0764 0.90106 11.7708 0.595432C11.4652 0.289804 10.9696 0.289804 10.664 0.595432L6 5.25944L1.336 0.595432C1.03037 0.289804 0.534848 0.289804 0.22922 0.595432C-0.0764067 0.901059 -0.0764067 1.39658 0.22922 1.70221L4.89322 6.36621L0.229221 11.0302C-0.0764069 11.3358 -0.0764069 11.8314 0.229221 12.137C0.534848 12.4426 1.03037 12.4426 1.336 12.137L6 7.47299L10.664 12.137Z" fill="#888888"/>
</svg>
