<svg width="344" height="265" viewBox="0 0 344 265" fill="none" xmlns="http://www.w3.org/2000/svg">
<path d="M330.192 263.997H13.8079C6.18234 263.997 0 257.84 0 250.247V50.4983C0 42.9036 6.18234 36.7471 13.8079 36.7471H330.192C337.818 36.7471 344 42.9036 344 50.4983V250.247C344 257.84 337.818 263.997 330.192 263.997Z" fill="#FF926F"/>
<path d="M214.617 175.689C215.542 165.723 218.861 150.793 218.861 150.793C218.861 150.793 221.728 150.529 230.572 170.209C237.121 184.957 244.72 199.988 245.977 212.704L230.894 194.789L214.617 175.689Z" fill="#96BAFD"/>
<path d="M275.114 103.981C276.727 88.817 272.584 88.0818 272.526 79.8597C272.497 71.8258 260.316 56.9522 266.126 57.2531C271.936 57.5531 276.016 63.0832 276.016 63.0832C276.878 55.8757 275.422 43.8813 282.828 39.3561C290.235 34.8308 291.979 37.0209 298.009 38.8208C314.109 43.7451 305.122 64.9605 304.958 71.6837C304.812 75.9158 297.338 91.7433 296.999 94.6628L294.619 105.92L275.114 103.981Z" fill="#FFCCB3"/>
<path d="M284.284 60.5428L286.486 38.7764" stroke="#E56441" stroke-width="1.0064" stroke-linecap="round"/>
<path d="M291.818 60.7797L295.4 39.8711" stroke="#E56441" stroke-width="1.0064" stroke-linecap="round"/>
<path d="M300.665 60.8324L302.476 48.3193" stroke="#E56441" stroke-width="1.0064" stroke-linecap="round"/>
<path d="M288.463 77.1556C285.832 71.0325 279.007 65.1377 279.007 65.1377" stroke="#E56441" stroke-width="1.0064" stroke-linecap="round"/>
<path fill-rule="evenodd" clip-rule="evenodd" d="M272.147 104.462C272.456 104.273 272.8 104.152 273.155 104.105C273.798 102.255 274.596 100.436 275.439 99.6535C277.451 97.7889 292.439 100.641 294.831 101.644C296.35 102.281 295.941 106.193 295.439 108.965C295.531 109.066 295.619 109.172 295.702 109.282C296.263 110.041 296.522 110.98 296.427 111.919L287.649 204.356C287.65 204.45 287.651 204.544 287.651 204.637C287.651 216.239 278.205 225.644 266.554 225.644C260.781 225.644 255.55 223.336 251.741 219.594L251.656 219.671L245.833 212.751L230.75 194.836L214.616 175.688L212.611 173.509L190.847 148.961C190.847 148.961 190.912 148.936 191.032 148.886C188.305 146.305 186.154 143.041 184.876 139.24C180.7 126.825 187.422 113.388 199.89 109.229C209.875 105.899 220.517 109.529 226.506 117.485C232.446 124.353 245.448 141.405 257.443 157.391L271.024 105.919C271.205 105.312 271.604 104.792 272.147 104.462Z" fill="url(#paint0_linear_250_915)"/>
<path d="M182.988 98.857C182.988 98.857 207.208 105.974 213.303 108.512C219.397 111.051 219.804 121.207 220.211 128.4C220.495 133.44 221.452 192.583 221.076 240.516C220.996 250.756 223.402 258.306 224.634 263.998H93.0238C93.0238 263.998 94.2513 259 94.5555 246.746C95.792 196.961 96.0234 130.683 96.5648 126.736C97.377 120.812 90.9919 115.71 97.9135 112.728L140.755 95.6807L182.988 98.857Z" fill="url(#paint1_linear_250_915)"/>
<path d="M127.829 150.104C127.829 150.104 135.924 200.136 136.315 223.138C136.558 237.47 136.364 255.704 136.413 264.003H93.0277L101.967 221.683L98.7325 150.343L127.829 150.104Z" fill="url(#paint2_linear_250_915)"/>
<path d="M177.396 74.4703L173.259 112.954C173.259 112.954 173.716 124.456 167.06 124.451C143.72 124.434 138.699 103.774 139.461 101.028C140.553 97.0915 145.026 67.2285 145.026 67.2285L177.396 74.4703Z" fill="#FFCCB3"/>
<path d="M172.991 111.054L177.134 77.5137H158.949L172.991 111.054Z" fill="#FCBA9F" stroke="#FCBA9F"/>
<path d="M134.351 51.1242C135.289 36.0142 151.749 41.8629 154.542 42.9854C157.335 44.1079 165.341 22.7454 165.341 22.7454C165.341 22.7454 199.739 22.0131 205.981 29.0489C205.981 29.0489 206.119 57.564 204.051 75.4914C201.984 93.4188 195.717 100.616 189.062 100.207C179.88 100.412 169.592 96.9735 163.462 91.9601C152.542 83.0282 149.406 69.4574 149.406 69.4574C149.204 69.326 149.094 69.2565 149.094 69.2565C149.094 69.2565 133.465 65.3949 134.351 51.1242Z" fill="#FFCCB3"/>
<path d="M136.472 65.806C129.794 54.093 114.977 32.7794 141.262 8.073C156.185 -5.95463 212.565 -4.61941 210.105 35.743C209.853 39.8643 208.037 47.8374 205.638 50.8206L205.078 39.7143C203.597 31.0952 201.583 41.0427 190.845 40.6359C174.041 39.9996 172.676 32.1442 167.951 34.7127C158.599 39.7987 163.876 51.0686 161.866 54.2263C158.969 58.779 157.664 53.8263 157.664 53.8263C152.953 48.8678 146.905 46.261 142.637 51.648C137.024 58.7329 150.755 71.2469 150.755 71.2469L143 82.2404C138.867 81.2199 136.463 65.7962 136.463 65.7962L136.472 65.806Z" fill="#080B09"/>
<path d="M178.712 57.9754C178.642 55.8019 179.745 54.003 181.174 53.957C182.605 53.9109 183.821 55.6363 183.891 57.8097C183.961 59.9841 182.859 61.783 181.429 61.8291C179.999 61.8751 178.782 60.1497 178.712 57.9754Z" fill="#080B09"/>
<path d="M198.416 57.2253C198.346 55.0509 199.449 53.252 200.879 53.2059C202.309 53.1608 203.526 54.8853 203.595 57.0596C203.666 59.2331 202.563 61.0329 201.133 61.078C199.703 61.1241 198.486 59.3987 198.416 57.2253Z" fill="#080B09"/>
<path d="M193.649 62.082C193.649 62.082 190.464 66.1543 193.845 66.8484C197.096 67.4004 198.633 69.6434 194.852 71.7864" stroke="#E56441" stroke-width="1.01075" stroke-linecap="round"/>
<path d="M193.573 75.8893L193.556 75.8883L193.541 75.8863C191.502 75.6599 187.432 75.207 184.719 74.9511L184.714 74.9501C184.64 74.9433 184.566 74.955 184.499 74.9864C184.432 75.0178 184.375 75.0668 184.335 75.1285C184.294 75.1903 184.27 75.2619 184.267 75.3344C184.265 75.405 184.281 75.4746 184.313 75.5374C184.781 76.2893 185.41 77.1961 186.144 78.0127C186.887 78.8391 187.711 79.543 188.557 79.9175C189.384 80.2851 190.216 80.3332 191.052 79.8861C191.915 79.4234 192.854 78.395 193.777 76.4422L193.794 76.4059L193.815 76.3736C193.847 76.3285 193.865 76.2755 193.869 76.2197C193.873 76.1648 193.861 76.1099 193.837 76.0609C193.812 76.0109 193.775 75.9687 193.729 75.9393C193.682 75.9089 193.628 75.8912 193.573 75.8893Z" fill="#E56441" stroke="#E56441"/>
<path d="M173.64 50.9886L173.818 51.3798C174.028 51.9719 174.464 52.4581 175.032 52.7326C175.6 53.0062 176.254 53.0444 176.85 52.8405L187.011 49.0574C187.511 48.8946 187.93 48.5505 188.187 48.0947C188.444 47.6378 188.52 47.1016 188.399 46.5928C188.34 46.2771 188.214 45.9781 188.03 45.7144C187.846 45.4517 187.607 45.2301 187.331 45.0654C187.054 44.8997 186.746 44.7958 186.426 44.7576C186.106 44.7203 185.782 44.7507 185.475 44.8478L175.135 48.2398C174.853 48.3182 174.59 48.4515 174.361 48.6339C174.131 48.8152 173.941 49.0417 173.801 49.2985C173.663 49.5544 173.576 49.8367 173.548 50.1269C173.521 50.4171 173.551 50.7102 173.64 50.9886Z" fill="#080B09"/>
<path d="M208.164 46.0722L197.344 44.8762C197.024 44.8448 196.7 44.881 196.395 44.984C196.089 45.0859 195.809 45.2516 195.573 45.4692C195.336 45.6879 195.149 45.9535 195.023 46.2486C194.898 46.5447 194.837 46.8633 194.844 47.1839C194.831 47.7074 195.015 48.2162 195.362 48.6093C195.707 49.0034 196.19 49.2533 196.713 49.3102L207.438 50.9258C208.064 51.0033 208.696 50.8307 209.195 50.4464C209.694 50.0621 210.02 49.4965 210.102 48.874L210.196 48.4544C210.224 48.1642 210.195 47.8711 210.107 47.5927C210.019 47.3143 209.877 47.0554 209.688 46.8339C209.498 46.6113 209.265 46.429 209.003 46.2986C208.741 46.1673 208.456 46.0908 208.164 46.0722Z" fill="#080B09"/>
<path d="M239.082 200.973H202.088C201.548 200.991 201.011 200.887 200.519 200.665C200.026 200.444 199.592 200.113 199.25 199.696C198.907 199.281 198.666 198.792 198.544 198.268C198.423 197.744 198.425 197.199 198.549 196.675L209.925 133.718C210.166 132.537 210.8 131.471 211.724 130.692C212.647 129.912 213.807 129.464 215.017 129.42H252.011C252.551 129.401 253.087 129.506 253.579 129.728C254.072 129.948 254.507 130.281 254.849 130.696C255.191 131.112 255.433 131.601 255.554 132.125C255.676 132.649 255.674 133.194 255.549 133.718L244.174 196.675C243.932 197.856 243.299 198.923 242.375 199.702C241.452 200.482 240.292 200.929 239.082 200.973Z" fill="#737373"/>
<path d="M240.743 200.973H203.749C203.209 200.991 202.673 200.887 202.181 200.665C201.688 200.444 201.253 200.113 200.912 199.696C200.569 199.281 200.327 198.792 200.206 198.268C200.085 197.744 200.086 197.199 200.211 196.675L211.586 133.718C211.828 132.537 212.461 131.471 213.385 130.692C214.308 129.912 215.469 129.464 216.678 129.42H253.672C254.212 129.401 254.749 129.506 255.241 129.728C255.734 129.948 256.168 130.281 256.51 130.696C256.853 131.112 257.094 131.601 257.216 132.125C257.337 132.649 257.335 133.194 257.211 133.718L245.835 196.675C245.594 197.856 244.96 198.923 244.036 199.702C243.113 200.482 241.953 200.929 240.743 200.973Z" fill="white"/>
<path d="M183.598 183.382L187.894 197.325C187.894 197.325 205.688 193.076 209.495 191.215C216.918 187.415 224.9 182.288 225.835 180.34C228.699 175.41 229.036 169.312 228.709 165.052C228.667 164.419 228.47 163.806 228.134 163.267C227.798 162.728 227.335 162.279 226.783 161.96C226.233 161.642 225.612 161.463 224.975 161.44C224.338 161.416 223.706 161.549 223.133 161.827L207.557 169.568C207.557 169.568 205.529 166.156 207.569 163.444C208.883 161.654 206.855 158.243 205.954 157.198C205.549 156.958 205.086 156.83 204.614 156.828C204.143 156.827 203.679 156.952 203.273 157.189C202.547 158.11 203.544 161.314 202.015 163.347C199.41 166.603 201.722 168.017 195.016 173.565C189.71 177.918 183.543 183.247 183.598 183.382Z" fill="#FCA39B"/>
<path d="M213.725 171.927C218.157 170.44 227.195 165.199 227.195 165.199" stroke="#E56441" stroke-width="1.17473" stroke-linecap="round" stroke-linejoin="round"/>
<path d="M213.14 177.808C216.707 176.516 226.126 171.434 226.126 171.434" stroke="#E56441" stroke-width="1.17473" stroke-linecap="round" stroke-linejoin="round"/>
<path d="M215.289 183.057C217.641 182.259 224.634 178.946 224.634 178.946" stroke="#E56441" stroke-width="1.17473" stroke-linecap="round" stroke-linejoin="round"/>
<path fill-rule="evenodd" clip-rule="evenodd" d="M130.911 142.663C129.183 153.139 123.187 179.006 117.87 201.257L184.502 176.23C185.144 176.018 185.842 176.049 186.462 176.319C187.081 176.588 187.58 177.077 187.859 177.69L196.449 196.822C196.851 197.743 196.893 198.779 196.571 199.729C196.248 200.68 195.581 201.477 194.701 201.965L98.547 255.259C94.8897 257.834 90.4252 259.345 85.6064 259.345C73.2082 259.345 63.157 249.336 63.157 236.99C63.157 233.526 63.9475 230.248 65.3582 227.322L66.0513 223.449L70.4271 198.955L75.0944 172.765L75.5119 169.647L80.7589 135.193C80.7589 135.193 80.8249 135.23 80.948 135.293C81.199 131.312 82.405 127.333 84.6466 123.697C91.9669 111.822 107.568 108.106 119.493 115.397C129.043 121.235 133.339 132.362 130.911 142.663Z" fill="url(#paint3_linear_250_915)"/>
<path d="M27.5578 66.9297H68.9814" stroke="white" stroke-width="9.56968" stroke-miterlimit="10" stroke-linecap="round"/>
<path opacity="0.4" d="M23.9695 87.2021H109.575" stroke="white" stroke-width="9.56968" stroke-miterlimit="10" stroke-linecap="round"/>
<defs>
<linearGradient id="paint0_linear_250_915" x1="253.102" y1="58.751" x2="205.954" y2="365.034" gradientUnits="userSpaceOnUse">
<stop stop-color="white"/>
<stop offset="1" stop-color="#64E2C2"/>
</linearGradient>
<linearGradient id="paint1_linear_250_915" x1="174.065" y1="42.1259" x2="103.133" y2="446.51" gradientUnits="userSpaceOnUse">
<stop stop-color="white"/>
<stop offset="1" stop-color="#64E2C2"/>
</linearGradient>
<linearGradient id="paint2_linear_250_915" x1="119.969" y1="8.12535" x2="-19.4303" y2="337.573" gradientUnits="userSpaceOnUse">
<stop stop-color="white"/>
<stop offset="1" stop-color="#64E2C2"/>
</linearGradient>
<linearGradient id="paint3_linear_250_915" x1="145.441" y1="64.675" x2="91.2496" y2="422.185" gradientUnits="userSpaceOnUse">
<stop stop-color="white"/>
<stop offset="1" stop-color="#64E2C2"/>
</linearGradient>
</defs>
</svg>
