<svg width="312" height="368" viewBox="0 0 312 368" fill="none" xmlns="http://www.w3.org/2000/svg">
<path d="M92.9531 216.915H252.355V234.379H185.799L147.355 233.257L92.9531 234.379V216.915Z" fill="#676767"/>
<path d="M257.694 283.643L224.873 350.156L228.943 352.041C230.317 352.678 231.895 352.759 233.33 352.268C234.766 351.777 235.942 350.753 236.598 349.423L264.468 292.943C265.124 291.612 265.209 290.084 264.702 288.693C264.195 287.302 263.138 286.164 261.765 285.528L257.694 283.643Z" fill="#676767"/>
<path d="M221.943 268.626L244.594 277.697L231.886 295.105L211.806 289.169L221.943 268.626Z" fill="#FFCCB3"/>
<path d="M236.435 278.39C236.435 278.39 227.592 291.622 226.258 299.015C224.924 306.409 220.355 343.807 221.584 347.178C222.468 349.602 225.678 350.641 227.714 350.861C228.161 350.907 228.611 350.818 229.003 350.605C229.395 350.391 229.709 350.066 229.9 349.672L259.693 289.295C260.191 288.288 260.261 287.132 259.889 286.075C259.515 285.018 258.73 284.145 257.699 283.644C253.578 281.638 247.273 278.632 244.618 277.696C240.515 276.249 237.806 276.258 236.435 278.39Z" fill="#FF926F"/>
<path d="M76.0782 310.041L106.859 365.085C107.584 366.382 108.811 367.346 110.27 367.766C111.729 368.186 113.302 368.027 114.64 367.325L118.607 365.243L82.3586 300.421L78.3911 302.503C77.0523 303.206 76.0567 304.394 75.623 305.808C75.1892 307.221 75.3524 308.744 76.0782 310.041Z" fill="#676767"/>
<path d="M117.265 283.682L95.1159 293.85L108.715 310.613L128.461 303.702L117.265 283.682Z" fill="#FFCCB3"/>
<path d="M103.321 294.138C103.321 294.138 112.844 306.919 114.562 314.238C116.279 321.557 122.793 358.683 121.741 362.111C120.986 364.574 117.834 365.77 115.812 366.089C115.368 366.157 114.914 366.09 114.511 365.896C114.109 365.702 113.779 365.392 113.566 365.008L80.6613 306.167C80.1118 305.186 79.9815 304.034 80.2988 302.961C80.6161 301.886 81.3556 300.976 82.3581 300.425C86.37 298.22 92.511 294.909 95.1129 293.845C99.1356 292.199 101.841 292.075 103.321 294.138Z" fill="#FF926F"/>
<path d="M50.5368 205.271C50.5368 205.271 42.0577 246.062 48.6378 254.054L216.309 295.645L230.607 269.7L132.695 226.66L113.086 200.623L50.5368 205.271Z" fill="#676767"/>
<path d="M92.955 234.379L129.949 246.365L147.212 253.377L124.763 272.942L144.833 277.334L199.576 234.379L148.481 232.426L92.955 234.379Z" fill="#383838"/>
<path d="M220.09 266.298L218.952 270.129L192.956 289.785L168.537 284.013C168.537 284.013 215.644 262.296 220.09 266.298Z" fill="#383838"/>
<path d="M173.026 202.889C173.026 202.889 220.438 200.397 243.938 202.398C259.07 203.687 264.525 241.199 252.449 248.023L122.85 312.306L107.578 285.571L191.181 230.751L131.369 222.6L173.026 202.889Z" fill="#676767"/>
<path d="M239.959 251.212C225.958 251.212 214.607 240.216 214.607 226.652C214.607 213.088 225.958 202.092 239.959 202.092C253.962 202.092 265.312 213.088 265.312 226.652C265.312 240.216 253.962 251.212 239.959 251.212Z" fill="#676767"/>
<path d="M52.8401 254.388C38.8384 254.388 27.4877 243.392 27.4877 229.827C27.4877 216.263 38.8384 205.268 52.8401 205.268C66.8426 205.268 78.1934 216.263 78.1934 229.827C78.1934 243.392 66.8426 254.388 52.8401 254.388Z" fill="#676767"/>
<path d="M122.291 113.933C124.962 101.159 118.68 101.489 116.59 99.4574C116.59 99.4574 108.748 93.1929 102.773 99.0327C96.4478 105.21 60.1914 153.192 60.1914 153.192L82.8768 173.404L87.1409 168.475L98.1867 155.713L110.001 142.074L111.469 140.52L127.406 123.033C127.406 123.033 120.78 120.658 122.291 113.933Z" fill="#64E2C2"/>
<path d="M109.712 126.762C100.582 123.799 95.6594 114.227 98.7173 105.383C101.775 96.5387 111.655 91.7702 120.786 94.7324C129.916 97.6947 134.838 107.267 131.78 116.111C128.722 124.955 118.841 129.724 109.712 126.762Z" fill="#64E2C2"/>
<path d="M111.268 140.453C111.725 137.784 112.64 132.444 113.625 127.578L118.859 104.024C118.859 104.024 104.802 124.151 98.3259 138.17C93.5291 148.676 87.9653 159.383 87.0448 168.442L98.0898 155.679L109.904 142.04L111.268 140.453Z" fill="#45C5A4"/>
<path d="M37.543 99.1725C32.1523 89.6481 34.7426 88.0311 32.4496 82.6115C30.1904 77.3233 34.2015 64.2152 30.3612 66.0022C26.5217 67.7899 25.3331 72.5399 25.3331 72.5399C22.7067 68.0394 20.288 59.7585 14.0014 58.8104C7.71333 57.8623 7.15695 59.7792 3.5933 62.6123C-5.88752 70.254 6.20203 81.7384 8.2199 86.112C9.51814 88.853 19.0572 97.2103 20.1141 99.0374L24.9154 105.784L37.543 99.1725Z" fill="#FFCCB3"/>
<path d="M274.457 99.1725C279.848 89.6481 277.257 88.0311 279.55 82.6115C281.81 77.3233 277.798 64.2152 281.639 66.0022C285.478 67.7899 286.667 72.5399 286.667 72.5399C289.293 68.0394 291.712 59.7585 297.999 58.8104C304.287 57.8623 304.843 59.7792 308.407 62.6123C317.888 70.254 305.798 81.7384 303.78 86.112C302.482 88.853 292.943 97.2103 291.886 99.0374L287.085 105.784L274.457 99.1725Z" fill="#FFCCB3"/>
<path d="M19.0156 73.1266L11.3544 59.4238L19.0156 73.1266Z" fill="#E56441"/>
<path d="M292.986 73.1266L300.648 59.4238L292.986 73.1266Z" fill="#E56441"/>
<path d="M19.0156 73.1266L11.3544 59.4238" stroke="#E56441" stroke-width="0.94666" stroke-linecap="round"/>
<path d="M292.986 73.1266L300.648 59.4238" stroke="#E56441" stroke-width="0.94666" stroke-linecap="round"/>
<path d="M13.9863 75.3454L5.63617 62.584L13.9863 75.3454Z" fill="#E56441"/>
<path d="M298 75.3454L306.35 62.584L298 75.3454Z" fill="#E56441"/>
<path d="M13.9863 75.3454L5.63617 62.584" stroke="#E56441" stroke-width="0.94666" stroke-linecap="round"/>
<path d="M298 75.3454L306.35 62.584" stroke="#E56441" stroke-width="0.94666" stroke-linecap="round"/>
<path d="M8.02539 77.8018L3.25328 70.0732L8.02539 77.8018Z" fill="#E56441"/>
<path d="M303.961 77.8018L308.733 70.0732L303.961 77.8018Z" fill="#E56441"/>
<path d="M8.02539 77.8018L3.25328 70.0732" stroke="#E56441" stroke-width="0.94666" stroke-linecap="round"/>
<path d="M303.961 77.8018L308.733 70.0732" stroke="#E56441" stroke-width="0.94666" stroke-linecap="round"/>
<path d="M20.9091 85.189C20.9497 80.445 23.8887 74.7031 23.8887 74.7031L20.9091 85.189Z" fill="#E56441"/>
<path d="M291.093 85.189C291.052 80.445 288.113 74.7031 288.113 74.7031L291.093 85.189Z" fill="#E56441"/>
<path d="M20.9091 85.189C20.9497 80.445 23.8887 74.7031 23.8887 74.7031" stroke="#E56441" stroke-width="0.94666" stroke-linecap="round"/>
<path d="M291.093 85.189C291.052 80.445 288.113 74.7031 288.113 74.7031" stroke="#E56441" stroke-width="0.94666" stroke-linecap="round"/>
<path d="M83.082 152.809L36.9516 93.2973C36.6581 92.9476 36.2404 92.716 35.7806 92.6469C35.3208 92.5772 34.8502 92.6752 34.4609 92.9224L22.3813 100.661C21.8073 101.038 21.3988 101.608 21.234 102.26C21.0692 102.912 21.1612 103.601 21.4915 104.191L58.5887 170.466L83.082 152.809Z" fill="#64E2C2"/>
<path d="M228.936 152.809L275.066 93.2973C275.359 92.9476 275.777 92.716 276.237 92.6469C276.697 92.5772 277.167 92.6752 277.557 92.9224L289.636 100.661C290.21 101.038 290.619 101.608 290.784 102.26C290.948 102.912 290.856 103.601 290.526 104.191L253.429 170.466L228.936 152.809Z" fill="#64E2C2"/>
<path d="M71.8588 177.945C63.3268 177.945 56.4102 171.246 56.4102 162.981C56.4102 154.716 63.3268 148.016 71.8588 148.016C80.3901 148.016 87.3066 154.716 87.3066 162.981C87.3066 171.246 80.3901 177.945 71.8588 177.945Z" fill="#64E2C2"/>
<path d="M240.152 177.945C231.62 177.945 224.703 171.246 224.703 162.981C224.703 154.716 231.62 148.016 240.152 148.016C248.683 148.016 255.6 154.716 255.6 162.981C255.6 171.246 248.683 177.945 240.152 177.945Z" fill="#64E2C2"/>
<path d="M140.375 86.2959C140.375 86.2959 114.488 92.9324 110.044 94.6548C105.6 96.3764 105.304 103.265 105.007 108.144C104.712 113.022 108.866 206.882 108.866 206.882C117.501 215.583 129.137 220.652 141.389 221.048L149.08 221.297C158.297 221.596 167.464 219.821 175.904 216.104L183.779 212.636L202.363 201.685C202.363 201.685 203.98 109.223 203.387 105.205C202.795 101.187 207.45 97.7269 202.404 95.7045L169.963 87.4029L140.375 86.2959Z" fill="#64E2C2"/>
<path d="M183.478 125.332V212.638L202.547 202.616L204.463 128.003L183.478 125.332Z" fill="#45C5A4"/>
<path d="M174.168 88.6404C174.168 88.6404 177.833 95.781 174.168 100.706C170.503 105.631 155.832 110.415 145.808 110.275C135.786 110.134 130.475 100.877 135.019 87.9158L151.619 83.3975L169.943 87.4036L174.168 88.6404Z" fill="#45C5A4"/>
<path d="M185.091 123.118C178.829 116.032 179.683 105.37 186.997 99.3047C194.311 93.2385 205.317 94.0655 211.579 101.151C217.841 108.237 216.988 118.899 209.673 124.964C202.358 131.03 191.353 130.203 185.091 123.118Z" fill="#64E2C2"/>
<path d="M141.167 74.3762L138.788 100.358C138.788 100.358 138.152 104.394 145.388 105.671C151.134 106.685 163.073 100.145 165.768 97.9902C171.758 93.2016 172.312 90.3039 171.679 88.0849C170.772 84.9051 167.808 62.499 167.808 62.499L141.167 74.3762Z" fill="#FFCCB3"/>
<path d="M139.609 95.6381L141.075 79.6235L153.845 73.5127L139.609 95.6381Z" fill="#FF967C" stroke="#FF967C"/>
<path d="M126.965 25.2033C126.965 25.2033 122.073 46.4312 121.422 60.8882C120.765 75.4744 126.145 78.2518 132.816 79.341C138.077 80.1999 146.261 80.2623 151.407 77.773C160.792 73.2331 176.198 62.2156 178.215 60.0775C181.337 56.7678 181.122 42.0064 169.199 38.3559C160.526 35.7003 138.413 13.1568 126.965 25.2033Z" fill="#FFCCB3"/>
<path d="M127.02 27.4683C134.135 30.17 147.525 28.3949 154.88 30.7075C162.224 33.0268 155.541 35.4745 155.861 42.3478C156.067 46.8001 156.417 55.3082 159.237 55.1953C162.058 55.0832 163.719 45.4207 169.667 45.7889C175.613 46.1646 178.418 48.6249 178.288 52.3103C178.159 55.9875 173.885 59.1925 170.514 60.8941C166.293 63.0115 164.551 62.1243 164.551 62.1243C164.551 62.1243 169.301 79.0654 170.019 78.3943C170.019 78.3943 175.142 75.5939 176.066 70.6895C176.066 70.6895 182.865 69.2626 181.359 62.6751C181.359 62.6751 185.594 61.3588 183.585 57.545C183.585 57.545 194.528 50.4164 188.825 41.693C188.825 41.693 194.018 36.6772 187.815 34.5569C187.815 34.5569 196.029 22.9292 184.344 20.4495C184.344 20.4495 185.128 14.9764 179.779 15.1851C179.779 15.1851 177.441 5.77123 165.768 9.48405C165.713 7.59906 165.07 5.77421 163.925 4.24928C162.78 2.72436 161.186 1.5699 159.351 0.938107C152.741 -1.6403 148.438 1.90845 148.438 1.90845C148.438 1.90845 141.5 -3.57354 137.847 4.46384C137.847 4.46384 132.599 1.86539 128.666 4.62643C124.726 7.37856 126.641 13.1479 126.641 13.1479C126.641 13.1479 122.138 12.1256 120.495 15.7382C118.175 20.8215 121.433 22.6738 121.433 22.6738C121.433 22.6738 114.103 31.069 124.412 39.021L127.02 27.4683Z" fill="#93523E"/>
<path d="M132.103 49.5C132.103 49.5 134.087 53.2017 131.22 53.2581C128.481 53.221 126.886 54.7778 129.649 57.034" stroke="#E56441" stroke-width="1.07832" stroke-linecap="round"/>
<path d="M130.077 60.4538L130.09 60.4553L130.102 60.456C131.801 60.5748 135.194 60.8109 137.449 61.0047H137.453C137.519 61.0099 137.582 61.0321 137.635 61.0693C137.689 61.1071 137.731 61.1576 137.757 61.217C137.783 61.2757 137.792 61.3403 137.782 61.4034C137.773 61.4642 137.748 61.5221 137.708 61.5704C137.212 62.0997 136.559 62.7293 135.834 63.272C135.1 63.8207 134.317 64.2617 133.564 64.4376C132.827 64.6091 132.132 64.5252 131.51 64.0419C130.869 63.5438 130.256 62.5831 129.798 60.8941L129.791 60.8651L129.779 60.8376C129.758 60.7931 129.75 60.7441 129.756 60.6951C129.762 60.6461 129.781 60.6001 129.812 60.5607C129.841 60.5214 129.882 60.4909 129.929 60.4724C129.976 60.4531 130.027 60.4471 130.077 60.4538Z" fill="#E56441" stroke="#E56441"/>
<path d="M150.485 42.7673L150.326 43.0784C150.135 43.5513 149.758 43.9314 149.28 44.1371C148.801 44.342 148.256 44.3553 147.767 44.1735L139.443 40.8356C139.033 40.69 138.695 40.4005 138.495 40.0248C138.295 39.6492 138.247 39.2141 138.363 38.8065C138.421 38.5534 138.534 38.3151 138.695 38.1079C138.855 37.9001 139.059 37.7285 139.293 37.6031C139.527 37.4776 139.786 37.4012 140.053 37.3804C140.319 37.3588 140.588 37.3922 140.84 37.4791L149.324 40.5067C149.555 40.5772 149.771 40.693 149.955 40.846C150.14 40.9996 150.291 41.1875 150.4 41.3983C150.508 41.6092 150.572 41.8393 150.586 42.0747C150.601 42.31 150.566 42.5453 150.485 42.7673Z" fill="#080B09"/>
<path d="M122.4 35.2611L131.42 34.6717C131.688 34.6576 131.954 34.6984 132.204 34.7919C132.454 34.8855 132.681 35.0288 132.869 35.2129C133.057 35.397 133.203 35.6182 133.296 35.861C133.39 36.1038 133.429 36.3629 133.411 36.622C133.403 37.0444 133.232 37.449 132.931 37.7549C132.629 38.0608 132.22 38.2456 131.785 38.2739L122.827 39.2041C122.304 39.2449 121.786 39.0846 121.386 38.7564C120.986 38.429 120.736 37.9613 120.69 37.4557L120.628 37.1142C120.615 36.8789 120.65 36.6428 120.733 36.4215C120.815 36.1996 120.943 35.9961 121.108 35.8231C121.274 35.6502 121.473 35.5113 121.695 35.4148C121.917 35.3183 122.156 35.2663 122.4 35.2611Z" fill="#080B09"/>
<path d="M189.885 113.933C187.214 101.159 193.495 101.489 195.586 99.4574C195.586 99.4574 203.428 93.1929 209.403 99.0327C215.728 105.21 251.984 153.192 251.984 153.192L229.299 173.404L225.035 168.475L213.989 155.713L202.175 142.074L200.707 140.52L184.77 123.033C184.77 123.033 191.396 120.658 189.885 113.933Z" fill="#64E2C2"/>
<path d="M145.134 50.1208C143.692 50.4829 140.308 50.6882 138.307 48.6122" stroke="black" stroke-linecap="round"/>
<path d="M128.825 46.8981C127.619 47.2802 124.779 47.5325 123.076 45.4845" stroke="black" stroke-linecap="round"/>
</svg>
