<svg width="479" height="483" viewBox="0 0 479 483" fill="none" xmlns="http://www.w3.org/2000/svg">
<path d="M235.79 474.391C365.414 474.391 470.492 368.492 470.492 237.857C470.492 107.224 365.414 1.32422 235.79 1.32422C106.166 1.32422 1.08521 107.224 1.08521 237.857C1.08521 368.492 106.166 474.391 235.79 474.391Z" stroke="#39F4C4" stroke-width="2" stroke-miterlimit="10"/>
<path d="M44.8531 107.302C49.4188 107.302 53.12 103.572 53.12 98.9708C53.12 94.3696 49.4188 90.6401 44.8531 90.6401C40.288 90.6401 36.5868 94.3696 36.5868 98.9708C36.5868 103.572 40.288 107.302 44.8531 107.302Z" fill="#FEBB94"/>
<path d="M470.492 255.197C475.06 255.197 478.764 251.467 478.764 246.866C478.764 242.265 475.06 238.535 470.492 238.535C465.931 238.535 462.227 242.265 462.227 246.866C462.227 251.467 465.931 255.197 470.492 255.197Z" fill="#1AE9B4"/>
<path d="M245.417 482.722C249.982 482.722 253.683 478.992 253.683 474.391C253.683 469.79 249.982 466.06 245.417 466.06C240.851 466.06 237.15 469.79 237.15 474.391C237.15 478.992 240.851 482.722 245.417 482.722Z" fill="#1AE9B4"/>
</svg>
