<svg width="355" height="356" viewBox="0 0 355 356" fill="none" xmlns="http://www.w3.org/2000/svg">
<path d="M176.228 354.863C272.924 354.863 351.311 275.865 351.311 178.416C351.311 80.9658 272.924 1.96777 176.228 1.96777C79.5311 1.96777 1.1438 80.9658 1.1438 178.416C1.1438 275.865 79.5311 354.863 176.228 354.863Z" stroke="#39F4C4" stroke-width="2" stroke-miterlimit="10"/>
<path d="M348.31 220.173C351.715 220.173 354.476 217.391 354.476 213.959C354.476 210.526 351.715 207.744 348.31 207.744C344.903 207.744 342.143 210.526 342.143 213.959C342.143 217.391 344.903 220.173 348.31 220.173Z" fill="#FEBB94"/>
<path d="M13.8403 250.94C17.2464 250.94 20.0073 248.158 20.0073 244.725C20.0073 241.293 17.2464 238.511 13.8403 238.511C10.4348 238.511 7.67395 241.293 7.67395 244.725C7.67395 248.158 10.4348 250.94 13.8403 250.94Z" fill="#1AE9B4"/>
</svg>
