<svg width="264" height="352" viewBox="0 0 264 352" fill="none" xmlns="http://www.w3.org/2000/svg">
<path d="M7.59224 269.114L40.2503 334.469L36.2003 336.322C34.833 336.947 33.2628 337.027 31.8345 336.544C30.4062 336.062 29.2364 335.056 28.5836 333.749L0.851071 278.252C0.198306 276.945 0.114405 275.443 0.618467 274.077C1.12329 272.71 2.17489 271.592 3.54143 270.966L7.59224 269.114Z" fill="#B7B7B7"/>
<path d="M43.1473 254.356L20.6086 263.269L33.2529 280.374L53.2339 274.542L43.1473 254.356Z" fill="#FFCCB3"/>
<path d="M28.7507 263.952C28.7507 263.952 37.55 276.954 38.8777 284.218C40.2046 291.483 44.751 328.23 43.5279 331.543C42.6486 333.924 39.455 334.945 37.4288 335.162C36.9842 335.207 36.5358 335.119 36.1461 334.909C35.7565 334.7 35.4438 334.38 35.2531 333.993L5.60801 274.668C5.11233 273.678 5.04296 272.542 5.41357 271.503C5.78494 270.465 6.56658 269.607 7.59225 269.115C11.6934 267.144 17.9671 264.19 20.6087 263.27C24.6915 261.849 27.3864 261.857 28.7507 263.952Z" fill="#505050"/>
<path d="M188.302 295.054L157.674 349.138C156.953 350.413 155.732 351.36 154.28 351.773C152.828 352.186 151.263 352.03 149.932 351.34L145.984 349.295L182.053 285.601L186.001 287.647C187.333 288.337 188.324 289.505 188.755 290.894C189.187 292.283 189.024 293.779 188.302 295.054Z" fill="#B7B7B7"/>
<path d="M147.323 269.145L169.362 279.136L155.83 295.608L136.182 288.817L147.323 269.145Z" fill="#FFCCB3"/>
<path d="M161.194 279.423C161.194 279.423 151.719 291.982 150.009 299.173C148.3 306.365 141.819 342.845 142.865 346.213C143.617 348.633 146.753 349.808 148.765 350.121C149.207 350.188 149.659 350.122 150.06 349.932C150.46 349.741 150.789 349.436 151 349.059L183.742 291.243C184.289 290.279 184.418 289.147 184.102 288.093C183.787 287.037 183.051 286.143 182.053 285.601C178.061 283.435 171.951 280.181 169.362 279.135C165.359 277.518 162.667 277.396 161.194 279.423Z" fill="#505050"/>
<path d="M213.719 192.101C213.719 192.101 222.157 232.181 215.609 240.034L48.7689 280.901L34.5415 255.408L131.968 213.117L151.48 187.534L213.719 192.101Z" fill="#B7B7B7"/>
<path d="M171.5 220.701L134.689 232.479L117.512 239.369L139.849 258.593L119.879 262.909L65.4076 220.701H171.5Z" fill="#8D8D8D"/>
<path d="M44.9958 252.066L46.1282 255.831L71.9948 275.144L96.2927 269.473C96.2927 269.473 49.4195 248.134 44.9958 252.066Z" fill="#8D8D8D"/>
<path d="M91.8225 189.764C91.8225 189.764 44.6458 187.316 21.2622 189.282C6.20511 190.548 0.77711 227.407 12.793 234.112L141.749 297.275L156.946 271.007L73.7571 217.141L133.272 209.132L91.8225 189.764Z" fill="#B7B7B7"/>
<path d="M25.2275 237.25C39.1598 237.25 50.4543 226.445 50.4543 213.118C50.4543 199.789 39.1598 188.985 25.2275 188.985C11.2945 188.985 0 199.789 0 213.118C0 226.445 11.2945 237.25 25.2275 237.25Z" fill="#B7B7B7"/>
<path d="M211.418 240.367C225.35 240.367 236.645 229.563 236.645 216.234C236.645 202.906 225.35 192.102 211.418 192.102C197.485 192.102 186.191 202.906 186.191 216.234C186.191 229.563 197.485 240.367 211.418 240.367Z" fill="#B7B7B7"/>
<path d="M142.312 102.357C139.654 89.8059 145.904 90.1298 147.985 88.134C147.985 88.134 155.787 81.9786 161.733 87.7167C168.027 93.786 204.104 140.933 204.104 140.933L181.531 160.793L177.288 155.949L166.297 143.41L154.541 130.008L153.08 128.482L137.222 111.299C137.222 111.299 143.815 108.965 142.312 102.357Z" fill="#FF9D7D"/>
<path d="M154.83 114.96C163.915 112.049 168.813 102.644 165.77 93.9538C162.728 85.2634 152.896 80.578 143.811 83.4886C134.727 86.3993 129.829 95.8045 132.871 104.495C135.915 113.185 145.746 117.871 154.83 114.96Z" fill="#FF9D7D"/>
<path d="M153.288 128.414C152.833 125.791 151.923 120.545 150.943 115.763L145.734 92.6201C145.734 92.6201 159.722 112.396 166.166 126.171C170.939 136.494 176.475 147.015 177.391 155.915L166.401 143.375L154.645 129.973L153.288 128.414Z" fill="#E1684A"/>
<path d="M226.65 87.8517C232.014 78.4932 229.437 76.9044 231.719 71.5791C233.967 66.383 229.975 53.5033 233.797 55.2591C237.617 57.0157 238.8 61.683 238.8 61.683C241.413 57.2608 243.82 49.1242 250.075 48.1926C256.332 47.2611 256.886 49.1446 260.432 51.9283C269.866 59.4369 257.836 70.7213 255.828 75.0186C254.536 77.7119 245.045 85.9237 243.993 87.719L239.215 94.3478L226.65 87.8517Z" fill="#FFCCB3"/>
<path d="M245.081 62.2637L252.705 48.7996L245.081 62.2637Z" fill="#E56441"/>
<path d="M245.081 62.2637L252.705 48.7996" stroke="#E56441" stroke-width="0.94666" stroke-linecap="round"/>
<path d="M250.076 64.4439L258.385 51.9048L250.076 64.4439Z" fill="#E56441"/>
<path d="M250.076 64.4439L258.385 51.9048" stroke="#E56441" stroke-width="0.94666" stroke-linecap="round"/>
<path d="M256.01 66.8549L260.759 59.261L256.01 66.8549Z" fill="#E56441"/>
<path d="M256.01 66.8549L260.759 59.261" stroke="#E56441" stroke-width="0.94666" stroke-linecap="round"/>
<path d="M243.198 74.1158C243.157 69.4543 240.233 63.8125 240.233 63.8125L243.198 74.1158Z" fill="#E56441"/>
<path d="M243.198 74.1158C243.157 69.4543 240.233 63.8125 240.233 63.8125" stroke="#E56441" stroke-width="0.94666" stroke-linecap="round"/>
<path d="M181.339 140.557L227.241 82.0817C227.533 81.7381 227.948 81.5105 228.406 81.4427C228.864 81.3741 229.332 81.4704 229.719 81.7133L241.739 89.3167C242.31 89.6873 242.717 90.2476 242.88 90.8881C243.044 91.5293 242.953 92.2062 242.624 92.7862L205.711 157.907L181.339 140.557Z" fill="#FF9D7D"/>
<path d="M192.492 165.255C200.981 165.255 207.864 158.672 207.864 150.551C207.864 142.43 200.981 135.846 192.492 135.846C184.003 135.846 177.12 142.43 177.12 150.551C177.12 158.672 184.003 165.255 192.492 165.255Z" fill="#FF9D7D"/>
<path d="M124.328 75.2078C124.328 75.2078 150.086 81.7286 154.509 83.421C158.931 85.1127 159.225 91.8809 159.52 96.675C159.814 101.468 158.825 209.132 158.825 209.132L101.818 207.035L59.185 183.162C59.185 183.162 61.038 97.7357 61.6283 93.7877C62.2177 89.8398 57.5851 86.4396 62.6067 84.4525L94.8865 76.2954L124.328 75.2078Z" fill="#FF9D7D"/>
<path d="M81.431 113.562L81.8901 193.107L57.3824 166.977L69.2397 111.086L81.431 113.562Z" fill="#E1684A"/>
<path d="M90.6825 77.5103C90.6825 77.5103 87.0359 84.5265 90.6825 89.3659C94.3291 94.2053 108.928 98.906 118.902 98.7682C128.875 98.6296 134.159 89.5336 129.638 76.7983L113.12 72.3586L94.8866 76.295L90.6825 77.5103Z" fill="#E1684A"/>
<path d="M131.97 17.0479C131.97 17.0479 139.152 31.8732 131.492 34.9355C123.832 37.9979 124.724 17.7671 131.97 17.0479Z" fill="#93523E"/>
<path d="M123.868 64.488L125.946 86.9007C125.946 86.9007 127.938 89.9055 120.18 91.4833C115.19 92.4988 101.751 87.434 99.1448 85.9144C98.0361 85.3513 97.1675 84.4358 96.6886 83.3263C96.2097 82.2167 96.1494 80.9817 96.52 79.8349C97.3124 77.0913 100.595 54.2432 100.595 54.2432L123.868 64.488Z" fill="#FFCCB3"/>
<path d="M124.269 68.8092L111.891 62.9595L125.69 84.1378L124.269 68.8092Z" fill="#FF967C"/>
<path d="M127.845 21.3392C127.845 21.3392 135.109 38.7665 137.744 50.9927C140.402 63.3268 136.161 66.4074 130.564 68.2216C126.15 69.6522 119.101 70.7931 114.305 69.3575C105.561 66.7386 97.0064 59.1804 94.9604 57.6281C91.7927 55.2244 88.6646 44.3216 93.3079 38.153C97.9512 31.9852 116.245 12.6014 127.845 21.3392Z" fill="#FFCCB3"/>
<path d="M118.493 45.3935C119.459 45.0302 119.772 43.5917 119.191 42.1816C118.611 40.7708 117.358 39.9224 116.392 40.2857C115.426 40.649 115.113 42.0875 115.693 43.4983C116.273 44.9084 117.527 45.7575 118.493 45.3935Z" fill="#080B09"/>
<path d="M131.771 40.3047C132.737 39.9414 133.05 38.5029 132.469 37.092C131.89 35.6819 130.636 34.8328 129.67 35.1968C128.704 35.5601 128.391 36.9987 128.971 38.4087C129.551 39.8196 130.805 40.668 131.771 40.3047Z" fill="#080B09"/>
<path d="M126.901 42.7102C126.901 42.7102 125.721 46.1256 128.201 45.793C130.558 45.3969 132.157 46.5108 130.098 48.7992" fill="#E56441"/>
<path d="M126.901 42.7102C126.901 42.7102 125.721 46.1256 128.201 45.793C130.558 45.3969 132.157 46.5108 130.098 48.7992" stroke="#E56441" stroke-width="0.94666" stroke-linecap="round"/>
<path d="M130.214 51.8196L130.226 51.8167L130.238 51.8131C130.272 51.8036 130.309 51.8021 130.343 51.8101C130.378 51.8182 130.41 51.8349 130.436 51.859C130.462 51.8823 130.481 51.913 130.491 51.9458C130.5 51.9787 130.501 52.0137 130.492 52.0472L130.484 52.0757L130.481 52.1048C130.329 53.5996 129.941 54.4873 129.469 54.987C129.013 55.4692 128.441 55.6297 127.792 55.5823C127.126 55.5342 126.395 55.2657 125.686 54.8973C124.986 54.5333 124.336 54.0861 123.833 53.7024C123.799 53.6718 123.774 53.6331 123.76 53.5908C123.745 53.5456 123.743 53.4974 123.755 53.4522C123.767 53.4062 123.792 53.3647 123.826 53.3311C123.861 53.2983 123.905 53.2749 123.953 53.264L123.957 53.2625C125.874 52.7986 128.765 52.1464 130.214 51.8196Z" fill="#E56441" stroke="#E56441"/>
<path d="M110.081 39.4216L110.262 39.6653C110.495 40.0424 110.874 40.3167 111.317 40.4276C111.759 40.5385 112.23 40.478 112.626 40.2576L119.326 36.3089C119.66 36.1302 119.91 35.8391 120.029 35.4926C120.147 35.1461 120.125 34.769 119.968 34.4371C119.881 34.2299 119.75 34.0417 119.581 33.8863C119.413 33.7309 119.212 33.6113 118.992 33.5354C118.773 33.4603 118.538 33.4297 118.305 33.4472C118.072 33.4647 117.845 33.5289 117.64 33.6361L110.758 37.3419C110.568 37.4331 110.4 37.56 110.262 37.7154C110.124 37.87 110.021 38.0502 109.957 38.2443C109.895 38.4383 109.873 38.6426 109.894 38.8454C109.915 39.0474 109.979 39.2436 110.081 39.4216Z" fill="#080B09"/>
<path d="M133.229 29.2959L125.365 29.9933C125.132 30.0167 124.908 30.0867 124.705 30.1998C124.503 30.3121 124.329 30.4646 124.193 30.6462C124.057 30.8279 123.963 31.0358 123.918 31.2546C123.872 31.4742 123.875 31.7003 123.927 31.9184C123.995 32.2773 124.201 32.5991 124.504 32.8194C124.808 33.0397 125.187 33.1432 125.567 33.109L133.426 32.7106C133.882 32.6764 134.306 32.4699 134.604 32.138C134.903 31.8061 135.051 31.3742 135.018 30.9373L135.023 30.6382C135.001 30.4361 134.936 30.2399 134.833 30.0619C134.73 29.8839 134.591 29.7278 134.424 29.6031C134.256 29.4776 134.064 29.3857 133.859 29.3332C133.654 29.2806 133.439 29.2675 133.229 29.2959Z" fill="#080B09"/>
<path d="M118.829 24.8156C118.829 24.8156 114.904 31.9602 107.783 34.0793C100.662 36.1977 104.554 46.9489 104.554 46.9489C104.554 46.9489 99.671 42.3028 94.0577 44.918C88.4452 47.5339 92.7057 57.7985 100.46 57.9298L98.351 69.4805C98.351 69.4805 94.4238 64.8015 90.2936 62.2979C86.1628 59.7951 71.3246 50.0769 77.8797 37.2788C77.8797 37.2788 72.7514 19.3073 86.8163 9.99029C100.881 0.672592 113.055 4.1887 113.055 4.1887C113.055 4.1887 116.408 -0.899462 124.18 0.140053C131.952 1.17957 133.744 14.586 131.171 19.4349C128.597 24.2838 124.403 26.3446 118.829 24.8156Z" fill="#93523E"/>
<path d="M60.2319 96.4464C70.1225 87.8166 73.0431 93.112 75.902 93.794C75.902 93.794 85.4312 97.0351 83.3402 104.862C81.1303 113.147 57.3821 166.977 57.3821 166.977L27.9734 158.655L30.1376 152.685L35.7364 137.222L41.7165 120.688L42.3342 118.706L49.597 96.8622C49.597 96.8622 55.0776 101.074 60.2319 96.4464Z" fill="#FF9D7D"/>
<path d="M79.8195 111.382C86.0505 104.419 85.201 93.9432 77.923 87.9833C70.645 82.0227 59.6936 82.8353 53.4634 89.7975C47.2324 96.7597 48.0811 107.236 55.3599 113.196C62.6379 119.156 73.5885 118.344 79.8195 111.382Z" fill="#FF9D7D"/>
<path d="M54.4708 153.756L109.07 204.936C109.388 205.259 109.569 205.682 109.58 206.125C109.591 206.568 109.43 206.999 109.128 207.336L99.6755 217.74C99.2172 218.233 98.5835 218.546 97.8972 218.617C97.2116 218.689 96.5222 218.513 95.964 218.126L33.3024 174.601L54.4708 153.756Z" fill="#FF9D7D"/>
<path d="M42.654 177.73C51.1437 177.73 58.026 171.146 58.026 163.026C58.026 154.904 51.1437 148.321 42.654 148.321C34.165 148.321 27.2827 154.904 27.2827 163.026C27.2827 171.146 34.165 177.73 42.654 177.73Z" fill="#FF9D7D"/>
<path d="M131.482 143.897L101.85 222.427H42.2717C42.2717 220.029 43.2676 217.73 45.0398 216.034C46.8128 214.339 49.2165 213.386 51.723 213.386H94.8261L120.413 143.897H131.482Z" fill="white"/>
<path d="M131.482 143.897H211.418L180.503 222.428H101.85L131.482 143.897Z" fill="url(#paint0_linear_217_636)"/>
<defs>
<linearGradient id="paint0_linear_217_636" x1="153.907" y1="143.71" x2="166.919" y2="311.159" gradientUnits="userSpaceOnUse">
<stop stop-color="white"/>
<stop offset="1" stop-color="#FF9D7D"/>
</linearGradient>
</defs>
</svg>
