<svg width="174" height="174" viewBox="0 0 174 174" fill="none" xmlns="http://www.w3.org/2000/svg">
<g clip-path="url(#clip0_164_752)">
<path d="M40.0032 34.0654H132.946C139.496 34.0654 143.873 39.3808 142.72 45.9307L124.019 152.034C123.367 155.297 121.633 158.244 119.099 160.399C116.564 162.554 113.377 163.791 110.052 163.91H17.1194C10.5594 163.91 6.18257 158.595 7.34563 152.034L26.0464 45.9307C26.6986 42.6711 28.431 39.7267 30.9637 37.5736C33.4963 35.4205 36.6811 34.1845 40.0032 34.0654Z" fill="#FF926F"/>
<path d="M32.8514 26.9238H125.784C132.334 26.9238 136.711 32.2392 135.558 38.7993L116.857 144.903C116.203 148.163 114.468 151.108 111.934 153.261C109.4 155.414 106.213 156.65 102.89 156.768H9.95745C3.40758 156.768 -0.969207 151.453 0.183652 144.903L18.8844 38.7993C19.5367 35.537 21.2702 32.59 23.8048 30.435C26.3393 28.28 29.5266 27.0429 32.8514 26.9238Z" fill="#FFF3EF"/>
<path d="M35.3305 59.8267H32.7187C32.5437 59.8327 32.3697 59.7984 32.2101 59.7264C32.0504 59.6545 31.9095 59.5468 31.798 59.4118C31.6866 59.2767 31.6078 59.1178 31.5675 58.9474C31.5272 58.777 31.5267 58.5996 31.5659 58.429L32.025 55.8172C32.0573 55.6499 32.0515 55.4774 32.0079 55.3127C31.9644 55.148 31.8842 54.9952 31.7734 54.8657C31.6626 54.7363 31.524 54.6335 31.3679 54.5651C31.2119 54.4967 31.0424 54.4643 30.8721 54.4705C30.4807 54.4838 30.1054 54.6292 29.8071 54.883C29.5089 55.1368 29.3053 55.484 29.2295 55.8682L28.7704 58.48C28.6925 58.865 28.487 59.2125 28.187 59.4661C27.8871 59.7198 27.5103 59.8648 27.1177 59.8777H24.5059C24.1166 59.8844 23.7409 60.0219 23.4393 60.268C23.1376 60.5141 22.9276 60.8546 22.8429 61.2346C22.8032 61.407 22.804 61.5863 22.8454 61.7583C22.8867 61.9303 22.9674 62.0904 23.0812 62.2259C23.1949 62.3614 23.3386 62.4686 23.5008 62.5391C23.6631 62.6097 23.8395 62.6416 24.0162 62.6323H26.628C26.803 62.6263 26.977 62.6606 27.1366 62.7325C27.2963 62.8045 27.4372 62.9121 27.5486 63.0472C27.6601 63.1823 27.7389 63.3412 27.7792 63.5116C27.8195 63.682 27.82 63.8594 27.7808 64.03L27.3217 66.6418C27.2803 66.8126 27.2793 66.9908 27.3187 67.1621C27.3581 67.3334 27.4369 67.4932 27.5487 67.6288C27.6606 67.7644 27.8025 67.8722 27.9632 67.9434C28.1239 68.0147 28.299 68.0476 28.4746 68.0395C28.8665 68.028 29.2428 67.8833 29.5414 67.6292C29.84 67.3751 30.0431 67.0268 30.1171 66.6418L30.5762 64.03C30.6541 63.645 30.8597 63.2975 31.1597 63.0438C31.4596 62.7902 31.8364 62.6452 32.229 62.6323H34.8408C35.2329 62.6176 35.6088 62.472 35.9084 62.2186C36.208 61.9653 36.414 61.6188 36.4936 61.2346C36.5327 61.0626 36.5318 60.8839 36.491 60.7122C36.4502 60.5406 36.3706 60.3806 36.2582 60.2446C36.1459 60.1086 36.0038 60.0002 35.843 59.9278C35.6821 59.8553 35.5068 59.8207 35.3305 59.8267Z" fill="black"/>
<path d="M60.7648 52.7968H47.9099C46.5298 52.8441 45.2062 53.3567 44.1542 54.2513C43.1021 55.1459 42.3835 56.3699 42.115 57.7246L40.8806 64.7335C40.7379 65.337 40.7372 65.9653 40.8785 66.569C41.0197 67.1728 41.299 67.7355 41.6945 68.2131C42.09 68.6907 42.5909 69.07 43.1578 69.3213C43.7246 69.5725 44.342 69.6889 44.9615 69.6612H57.8266C59.2067 69.6139 60.5303 69.1013 61.5823 68.2067C62.6344 67.3122 63.353 66.0881 63.6215 64.7335L64.8559 57.7246C64.9966 57.1205 64.9956 56.492 64.853 55.8883C64.7104 55.2847 64.43 54.7222 64.0338 54.245C63.6376 53.7678 63.1363 53.3887 62.5692 53.1375C62.0021 52.8862 61.3845 52.7696 60.7648 52.7968Z" fill="black"/>
<path d="M100.952 52.7968H75.2419C73.8617 52.8441 72.5381 53.3567 71.4861 54.2513C70.4341 55.1459 69.7154 56.3699 69.447 57.7246L68.2125 64.7335C68.0721 65.3368 68.0729 65.9643 68.215 66.5671C68.3571 67.17 68.6366 67.7318 69.0316 68.2088C69.4267 68.6858 69.9266 69.0651 70.4924 69.3171C71.0582 69.569 71.6746 69.6868 72.2934 69.6612H98.0134C99.3935 69.6139 100.717 69.1013 101.769 68.2067C102.821 67.3122 103.54 66.0881 103.808 64.7335L105.043 57.7246C105.183 57.1205 105.182 56.492 105.04 55.8883C104.897 55.2847 104.617 54.7222 104.221 54.245C103.824 53.7678 103.323 53.3887 102.756 53.1375C102.189 52.8862 101.571 52.7696 100.952 52.7968Z" fill="black"/>
<path d="M169.868 52.797H115.429C114.049 52.8443 112.725 53.3569 111.673 54.2515C110.621 55.146 109.902 56.3701 109.634 57.7247L108.399 64.7336C108.259 65.3369 108.26 65.9644 108.402 66.5672C108.544 67.1701 108.823 67.7319 109.218 68.209C109.613 68.686 110.113 69.0653 110.679 69.3172C111.245 69.5691 111.861 69.6869 112.48 69.6614H166.909C168.29 69.6141 169.613 69.1015 170.665 68.2069C171.717 67.3123 172.436 66.0883 172.704 64.7336L173.939 57.7247C174.079 57.1223 174.078 56.4957 173.937 55.8937C173.795 55.2917 173.517 54.7304 173.123 54.2536C172.729 53.7768 172.23 53.3973 171.666 53.1446C171.101 52.892 170.486 52.773 169.868 52.797Z" fill="black"/>
<path d="M30.9027 84.9845H28.2909C28.1148 84.9909 27.9397 84.9565 27.7791 84.884C27.6185 84.8115 27.4769 84.7028 27.3652 84.5665C27.2536 84.4302 27.175 84.2699 27.1356 84.0982C27.0962 83.9264 27.097 83.7479 27.1381 83.5766L27.5972 80.9648C27.6364 80.7941 27.6358 80.6168 27.5955 80.4464C27.5553 80.276 27.4764 80.1171 27.365 79.982C27.2536 79.8469 27.1126 79.7392 26.953 79.6673C26.7933 79.5954 26.6193 79.5611 26.4443 79.5671C26.0474 79.5814 25.6672 79.7308 25.3667 79.9905C25.0662 80.2503 24.8633 80.6047 24.7915 80.9954L24.3324 83.6072C24.257 83.9924 24.0538 84.341 23.7557 84.5965C23.4577 84.852 23.0821 84.9995 22.6899 85.0151H20.0781C19.6855 85.028 19.3087 85.173 19.0087 85.4266C18.7088 85.6803 18.5032 86.0278 18.4253 86.4128C18.3861 86.5835 18.3867 86.7609 18.4269 86.9313C18.4672 87.1017 18.5461 87.2605 18.6575 87.3956C18.7689 87.5307 18.9099 87.6383 19.0695 87.7103C19.2291 87.7822 19.4032 87.8165 19.5782 87.8105H22.19C22.3602 87.8043 22.5297 87.8367 22.6858 87.9051C22.8418 87.9736 22.9804 88.0763 23.0912 88.2058C23.2021 88.3352 23.2822 88.488 23.3258 88.6527C23.3693 88.8175 23.3752 88.9899 23.3428 89.1572L22.8429 91.7894C22.7953 91.9668 22.7908 92.153 22.8297 92.3324C22.8687 92.5119 22.9499 92.6795 23.0667 92.8212C23.1834 92.9629 23.3324 93.0747 23.5011 93.1472C23.6698 93.2197 23.8534 93.2509 24.0366 93.2381C24.4301 93.223 24.8071 93.0758 25.1068 92.8205C25.4066 92.5651 25.6118 92.2163 25.6893 91.8302L26.1484 89.2184C26.2225 88.8334 26.4256 88.4851 26.7242 88.2311C27.0228 87.977 27.3991 87.8322 27.791 87.8207H30.4028C30.7958 87.7991 31.17 87.6452 31.4645 87.3841C31.759 87.1229 31.9565 86.7698 32.025 86.3822C32.0635 86.2141 32.0634 86.0395 32.0248 85.8714C31.9862 85.7033 31.9101 85.5462 31.8021 85.4117C31.6942 85.2773 31.5572 85.169 31.4014 85.095C31.2456 85.021 31.0752 84.9832 30.9027 84.9845Z" fill="black"/>
<path d="M56.3268 77.936H43.472C42.0918 77.9833 40.7682 78.4959 39.7162 79.3905C38.6642 80.2851 37.9455 81.5091 37.6771 82.8637L36.4426 89.8727C36.3021 90.476 36.303 91.1035 36.4451 91.7063C36.5872 92.3092 36.8667 92.871 37.2617 93.348C37.6567 93.8251 38.1567 94.2043 38.7225 94.4563C39.2883 94.7082 39.9047 94.826 40.5235 94.8005H53.3784C54.7585 94.7531 56.0821 94.2405 57.1341 93.346C58.1862 92.4514 58.9048 91.2273 59.1733 89.8727L60.4078 82.8637C60.5482 82.2605 60.5473 81.633 60.4052 81.0302C60.2631 80.4273 59.9837 79.8654 59.5886 79.3884C59.1936 78.9114 58.6936 78.5321 58.1278 78.2802C57.562 78.0283 56.9457 77.9105 56.3268 77.936Z" fill="black"/>
<path d="M96.5238 77.9352H70.7937C69.4135 77.9825 68.0899 78.4951 67.0379 79.3897C65.9859 80.2843 65.2673 81.5083 64.9988 82.8629L63.7643 89.8719C63.6239 90.4752 63.6247 91.1027 63.7668 91.7055C63.9089 92.3084 64.1884 92.8702 64.5834 93.3472C64.9785 93.8243 65.4784 94.2035 66.0442 94.4555C66.61 94.7074 67.2264 94.8252 67.8452 94.7997H93.555C94.9351 94.7524 96.2587 94.2397 97.3107 93.3452C98.3628 92.4506 99.0814 91.2265 99.3499 89.8719L100.584 82.8629C100.724 82.2614 100.724 81.6358 100.583 81.0346C100.442 80.4333 100.164 79.8727 99.7713 79.3961C99.3786 78.9195 98.8814 78.5398 98.3182 78.2864C97.755 78.0331 97.141 77.9129 96.5238 77.9352Z" fill="black"/>
<path d="M165.43 77.936H110.991C109.611 77.9833 108.287 78.4959 107.235 79.3905C106.183 80.2851 105.464 81.5091 105.196 82.8637L103.961 89.8727C103.821 90.476 103.822 91.1035 103.964 91.7063C104.106 92.3092 104.385 92.871 104.78 93.348C105.175 93.8251 105.675 94.2043 106.241 94.4563C106.807 94.7082 107.423 94.826 108.042 94.8005H162.471C163.853 94.7554 165.179 94.2438 166.233 93.349C167.287 92.4543 168.008 91.229 168.277 89.8727L169.511 82.8637C169.651 82.2605 169.651 81.633 169.508 81.0302C169.366 80.4273 169.087 79.8654 168.692 79.3884C168.297 78.9114 167.797 78.5321 167.231 78.2802C166.665 78.0283 166.049 77.9105 165.43 77.936Z" fill="black"/>
<path d="M26.4647 110.134H23.8631C23.6881 110.14 23.5141 110.106 23.3545 110.034C23.1948 109.962 23.0539 109.854 22.9425 109.719C22.831 109.584 22.7522 109.425 22.7119 109.255C22.6717 109.084 22.6711 108.907 22.7103 108.736L23.1694 106.114C23.2086 105.944 23.208 105.766 23.1678 105.596C23.1275 105.425 23.0486 105.266 22.9372 105.131C22.8258 104.996 22.6848 104.889 22.5252 104.817C22.3656 104.745 22.1915 104.71 22.0165 104.716C21.6252 104.73 21.2498 104.875 20.9516 105.129C20.6533 105.383 20.4498 105.73 20.374 106.114L19.9047 108.736C19.8289 109.12 19.6253 109.468 19.327 109.721C19.0288 109.975 18.6535 110.121 18.2621 110.134H15.6401C15.2475 110.147 14.8707 110.292 14.5707 110.545C14.2708 110.799 14.0652 111.147 13.9873 111.532C13.9481 111.702 13.9487 111.88 13.989 112.05C14.0292 112.22 14.1081 112.379 14.2195 112.514C14.3309 112.649 14.4719 112.757 14.6315 112.829C14.7912 112.901 14.9652 112.935 15.1402 112.929H17.7418C17.9162 112.925 18.0892 112.961 18.2478 113.034C18.4064 113.106 18.5465 113.214 18.6575 113.348C18.7685 113.483 18.8475 113.641 18.8886 113.81C18.9297 113.98 18.9317 114.157 18.8946 114.327L18.4253 116.949C18.388 117.12 18.3902 117.298 18.4319 117.468C18.4735 117.639 18.5534 117.797 18.6656 117.932C18.7777 118.067 18.9191 118.174 19.079 118.246C19.2389 118.318 19.4131 118.352 19.5884 118.347C19.9792 118.332 20.3536 118.186 20.6515 117.932C20.9494 117.679 21.1535 117.332 21.2309 116.949L21.6901 114.327C21.7696 113.943 21.9757 113.596 22.2753 113.343C22.5749 113.09 22.9507 112.944 23.3428 112.929H25.9546C26.3465 112.918 26.7228 112.773 27.0214 112.519C27.32 112.265 27.5231 111.917 27.5972 111.532C27.638 111.362 27.6393 111.186 27.601 111.017C27.5627 110.847 27.4858 110.688 27.3762 110.553C27.2667 110.418 27.1275 110.31 26.9694 110.237C26.8113 110.164 26.6386 110.129 26.4647 110.134Z" fill="black"/>
<path d="M51.899 103.104H39.034C37.6538 103.151 36.3302 103.664 35.2782 104.559C34.2262 105.453 33.5075 106.677 33.2391 108.032L32.025 115.031C31.8845 115.634 31.8854 116.261 32.0275 116.864C32.1696 117.467 32.4491 118.029 32.8441 118.506C33.2391 118.983 33.7391 119.362 34.3049 119.614C34.8707 119.866 35.4871 119.984 36.1059 119.958H48.9608C50.3409 119.911 51.6645 119.398 52.7165 118.504C53.7686 117.609 54.4872 116.385 54.7557 115.031L55.9902 108.032C56.1331 107.427 56.1336 106.798 55.9919 106.194C55.8501 105.589 55.5698 105.026 55.1731 104.548C54.7765 104.07 54.2743 103.691 53.7061 103.441C53.1379 103.19 52.5193 103.075 51.899 103.104Z" fill="black"/>
<path d="M92.0858 103.105H66.3659C64.9893 103.157 63.6704 103.671 62.6225 104.566C61.5746 105.46 60.859 106.681 60.5914 108.033L59.3569 115.031C59.2165 115.635 59.2173 116.262 59.3594 116.865C59.5015 117.468 59.781 118.03 60.176 118.507C60.5711 118.984 61.071 119.363 61.6368 119.615C62.2026 119.867 62.819 119.985 63.4378 119.959H89.1578C90.5379 119.912 91.8615 119.399 92.9135 118.505C93.9656 117.61 94.6842 116.386 94.9527 115.031L96.1871 108.033C96.3281 107.428 96.327 106.798 96.1838 106.194C96.0406 105.589 95.7593 105.026 95.3619 104.549C94.9646 104.071 94.4619 103.693 93.8935 103.442C93.3251 103.192 92.7063 103.076 92.0858 103.105Z" fill="black"/>
<path d="M160.992 103.104H106.563C105.183 103.151 103.859 103.664 102.807 104.559C101.755 105.453 101.036 106.677 100.768 108.032L99.5335 115.031C99.3909 115.634 99.3902 116.262 99.5314 116.866C99.6727 117.47 99.952 118.033 100.347 118.51C100.743 118.988 101.244 119.367 101.811 119.618C102.378 119.87 102.995 119.986 103.614 119.958H158.023C159.403 119.911 160.727 119.398 161.779 118.504C162.831 117.609 163.55 116.385 163.818 115.031L165.053 108.032C165.193 107.43 165.192 106.805 165.051 106.204C164.91 105.602 164.632 105.042 164.24 104.565C163.847 104.088 163.35 103.709 162.786 103.455C162.223 103.202 161.609 103.082 160.992 103.104Z" fill="black"/>
<path d="M22.0267 135.282H19.415C19.24 135.288 19.0659 135.254 18.9063 135.182C18.7467 135.11 18.6057 135.003 18.4943 134.867C18.3829 134.732 18.304 134.574 18.2637 134.403C18.2235 134.233 18.2229 134.055 18.2621 133.885L18.7212 131.273C18.7622 131.102 18.7631 130.923 18.7237 130.751C18.6842 130.58 18.6057 130.419 18.494 130.283C18.3824 130.147 18.2408 130.038 18.0802 129.965C17.9196 129.893 17.7444 129.859 17.5684 129.865C17.1761 129.881 16.8006 130.028 16.5025 130.284C16.2044 130.539 16.0012 130.888 15.9258 131.273L15.4667 133.885C15.3888 134.27 15.1832 134.617 14.8833 134.871C14.5833 135.125 14.2065 135.27 13.8139 135.282H11.2021C10.8138 135.298 10.4422 135.445 10.1478 135.699C9.85332 135.953 9.65323 136.298 9.57996 136.68C9.52965 136.853 9.52108 137.035 9.55497 137.211C9.58887 137.387 9.66424 137.553 9.77488 137.695C9.88552 137.836 10.0282 137.949 10.1913 138.025C10.3543 138.1 10.5329 138.136 10.7124 138.129H13.3242C13.4997 138.124 13.6738 138.16 13.8333 138.233C13.9929 138.307 14.1336 138.415 14.2448 138.551C14.356 138.687 14.4347 138.846 14.475 139.017C14.5152 139.188 14.5159 139.366 14.4771 139.537L14.018 142.149C13.9766 142.319 13.9756 142.498 14.015 142.669C14.0544 142.84 14.1331 143 14.245 143.136C14.3568 143.271 14.4987 143.379 14.6594 143.45C14.8201 143.521 14.9952 143.554 15.1708 143.546C15.5627 143.535 15.939 143.39 16.2376 143.136C16.5362 142.882 16.7393 142.534 16.8134 142.149L17.2725 139.537C17.35 139.151 17.5552 138.802 17.855 138.546C18.1548 138.291 18.5317 138.144 18.9253 138.129H21.537C21.929 138.117 22.3052 137.973 22.6038 137.719C22.9025 137.464 23.1055 137.116 23.1796 136.731C23.2306 136.557 23.239 136.373 23.2041 136.195C23.1691 136.017 23.0919 135.85 22.9789 135.708C22.8659 135.566 22.7204 135.453 22.5547 135.379C22.389 135.305 22.2079 135.272 22.0267 135.282Z" fill="black"/>
<path d="M47.461 128.253H34.6061C33.226 128.301 31.9024 128.813 30.8504 129.708C29.7983 130.603 29.0797 131.827 28.8112 133.181L27.5666 140.17C27.4387 140.772 27.4487 141.395 27.5957 141.992C27.7427 142.59 28.0229 143.146 28.4154 143.62C28.8079 144.094 29.3025 144.473 29.8622 144.729C30.4219 144.985 31.0322 145.111 31.6475 145.097H44.5126C45.8891 145.046 47.208 144.531 48.2559 143.637C49.3038 142.743 50.0194 141.521 50.2871 140.17L51.5215 133.161C51.6578 132.561 51.6545 131.937 51.5118 131.339C51.3691 130.74 51.0909 130.182 50.6986 129.708C50.3063 129.234 49.8104 128.856 49.2491 128.604C48.6877 128.352 48.076 128.232 47.461 128.253Z" fill="black"/>
<path d="M87.6479 128.253H61.9381C60.5579 128.301 59.2343 128.813 58.1823 129.708C57.1303 130.602 56.4117 131.826 56.1432 133.181L54.8985 140.169C54.7707 140.771 54.7806 141.395 54.9276 141.992C55.0746 142.59 55.3549 143.146 55.7474 143.62C56.1399 144.094 56.6345 144.473 57.1942 144.729C57.7539 144.985 58.3642 145.111 58.9794 145.097H84.6994C86.0795 145.05 87.4031 144.537 88.4552 143.643C89.5072 142.748 90.2258 141.524 90.4943 140.169L91.7288 133.161C91.8655 132.559 91.8619 131.933 91.7181 131.333C91.5743 130.733 91.2943 130.174 90.8997 129.7C90.505 129.225 90.0065 128.848 89.4425 128.597C88.8786 128.346 88.2645 128.228 87.6479 128.253Z" fill="black"/>
<path d="M156.564 128.253H102.125C100.745 128.3 99.4212 128.813 98.3691 129.707C97.3171 130.602 96.5985 131.826 96.33 133.181L95.0955 140.169C94.9551 140.772 94.956 141.4 95.098 142.003C95.2401 142.606 95.5196 143.167 95.9147 143.644C96.3097 144.121 96.8096 144.501 97.3754 144.753C97.9412 145.005 98.5576 145.122 99.1765 145.097H153.606C154.986 145.05 156.309 144.537 157.361 143.642C158.413 142.748 159.132 141.524 159.401 140.169L160.635 133.16C160.772 132.559 160.768 131.935 160.625 131.335C160.482 130.736 160.202 130.178 159.809 129.703C159.416 129.229 158.918 128.851 158.356 128.6C157.793 128.348 157.18 128.23 156.564 128.253Z" fill="black"/>
<path d="M33.1982 43.6349C32.8402 43.636 32.4855 43.5662 32.1546 43.4296C31.8237 43.293 31.523 43.0924 31.27 42.8391L15.9156 27.4744C15.6637 27.2206 15.4643 26.9195 15.3287 26.5886C15.1932 26.2576 15.1241 25.9032 15.1256 25.5456C15.127 25.1879 15.1988 24.8341 15.337 24.5042C15.4752 24.1744 15.677 23.875 15.9309 23.6231C16.1848 23.3712 16.4858 23.1718 16.8167 23.0362C17.1477 22.9007 17.5021 22.8316 17.8597 22.8331C18.2174 22.8345 18.5712 22.9063 18.9011 23.0445C19.2309 23.1827 19.5304 23.3845 19.7822 23.6384L33.1982 37.1258L59.3365 10.9773C59.5854 10.7125 59.885 10.5003 60.2175 10.3535C60.5499 10.2066 60.9085 10.128 61.272 10.1224C61.6354 10.1168 61.9962 10.1842 62.3331 10.3207C62.67 10.4571 62.976 10.6599 63.233 10.9169C63.49 11.1739 63.6927 11.48 63.8292 11.8168C63.9657 12.1537 64.0331 12.5145 64.0275 12.878C64.0219 13.2414 63.9433 13.6 63.7964 13.9324C63.6496 14.2649 63.4374 14.5645 63.1726 14.8134L35.0857 42.8391C34.5852 43.3416 33.9074 43.6274 33.1982 43.6349Z" fill="#39F4C4"/>
</g>
<defs>
<clipPath id="clip0_164_752">
<rect width="174" height="174" fill="white"/>
</clipPath>
</defs>
</svg>
