<svg width="172" height="172" viewBox="0 0 172 172" fill="none" xmlns="http://www.w3.org/2000/svg">
<g clip-path="url(#clip0_164_779)">
<path d="M58.765 25.6547C59.1127 25.6528 59.4519 25.5479 59.7401 25.3533C60.0282 25.1587 60.2522 24.8831 60.3839 24.5613C60.5156 24.2396 60.549 23.886 60.4799 23.5453C60.4109 23.2045 60.2425 22.8919 59.996 22.6467C59.7494 22.4016 59.4358 22.235 59.0947 22.1679C58.7536 22.1007 58.4002 22.1362 58.0792 22.2697C57.7582 22.4032 57.4839 22.6288 57.2909 22.918C57.098 23.2072 56.995 23.547 56.995 23.8947C56.995 24.1267 57.0408 24.3564 57.1299 24.5706C57.219 24.7847 57.3495 24.9792 57.514 25.1428C57.6785 25.3063 57.8737 25.4358 58.0884 25.5236C58.3031 25.6115 58.533 25.656 58.765 25.6547Z" fill="#1C85E8"/>
<path d="M127.625 124.094H49.435C48.8547 124.106 48.2788 123.992 47.7461 123.762C47.2133 123.532 46.7361 123.19 46.3466 122.76C45.9571 122.33 45.6644 121.821 45.4881 121.268C45.3119 120.715 45.2563 120.131 45.325 119.554L55.195 16.9243C55.3337 15.6899 55.9183 14.5485 56.8389 13.7144C57.7595 12.8803 58.9529 12.4109 60.195 12.3943H138.415C138.994 12.3831 139.569 12.4961 140.1 12.7258C140.632 12.9555 141.108 13.2965 141.496 13.7259C141.885 14.1552 142.177 14.6628 142.353 15.2146C142.528 15.7663 142.584 16.3494 142.515 16.9243L132.625 119.554C132.489 120.791 131.905 121.934 130.984 122.771C130.063 123.607 128.869 124.077 127.625 124.094Z" fill="black"/>
<path d="M123.625 124.095H45.355C44.7751 124.106 44.1995 123.993 43.6672 123.762C43.1348 123.532 42.6582 123.19 42.2694 122.76C41.8807 122.329 41.5889 121.82 41.4139 121.267C41.2389 120.714 41.1847 120.13 41.255 119.555L51.115 16.9246C51.2558 15.6909 51.841 14.5507 52.7611 13.717C53.6813 12.8834 54.8735 12.4132 56.115 12.3945H134.325C134.905 12.3818 135.481 12.4938 136.013 12.7229C136.546 12.9519 137.023 13.2927 137.413 13.7222C137.803 14.1517 138.096 14.6599 138.272 15.2123C138.448 15.7648 138.504 16.3487 138.435 16.9246L128.565 119.555C128.428 120.78 127.852 121.914 126.944 122.749C126.037 123.583 124.858 124.061 123.625 124.095Z" fill="url(#paint0_linear_164_779)"/>
<path d="M121.385 120.685H48.205C47.6671 120.696 47.1332 120.591 46.6393 120.378C46.1455 120.164 45.7033 119.847 45.3428 119.448C44.9824 119.049 44.7121 118.576 44.5503 118.063C44.3884 117.55 44.3389 117.008 44.405 116.474L53.675 20.0045C53.8033 18.8644 54.3417 17.8098 55.1898 17.0372C56.0379 16.2645 57.1379 15.8264 58.285 15.8045H131.465C132.002 15.7935 132.535 15.8978 133.028 16.1106C133.521 16.3234 133.963 16.6396 134.323 17.0378C134.683 17.436 134.954 17.9069 135.116 18.4188C135.279 18.9306 135.33 19.4714 135.265 20.0045L125.995 116.474C125.865 117.615 125.326 118.669 124.479 119.443C123.631 120.217 122.532 120.658 121.385 120.685Z" fill="white"/>
<path d="M126.395 59.6847H48.595C48.3647 59.692 48.1358 59.6476 47.925 59.5547C47.7106 59.4698 47.5189 59.3363 47.365 59.1647C47.2054 58.9969 47.0858 58.7952 47.015 58.5747C46.9386 58.3567 46.9113 58.1245 46.935 57.8947L49.985 24.0147C50.037 23.5214 50.2705 23.0652 50.6401 22.7344C51.0097 22.4036 51.489 22.222 51.985 22.2247H129.785C130.015 22.2223 130.243 22.2665 130.455 22.3547C130.669 22.4396 130.861 22.5732 131.015 22.7447C131.175 22.9126 131.294 23.1142 131.365 23.3347C131.441 23.5562 131.469 23.7916 131.445 24.0247L128.395 57.8947C128.336 58.3819 128.106 58.8323 127.745 59.1647C127.376 59.5004 126.894 59.6859 126.395 59.6847Z" fill="url(#paint1_linear_164_779)"/>
<path d="M123.545 96.1641H79.485C79.3095 96.1709 79.1349 96.1366 78.975 96.0641C78.8125 95.9949 78.6661 95.8927 78.545 95.7641C78.428 95.63 78.3395 95.4735 78.285 95.3041C78.2328 95.1361 78.2157 94.959 78.235 94.7841L81.145 64.5741C81.1806 64.1921 81.355 63.8364 81.635 63.5741C81.9083 63.3219 82.2633 63.1764 82.635 63.1641H126.695C126.87 63.1625 127.044 63.1965 127.205 63.2641C127.366 63.3348 127.51 63.4407 127.625 63.5741C127.745 63.7019 127.834 63.8559 127.885 64.0241C127.941 64.1914 127.958 64.3692 127.935 64.5441L125.035 94.7541C124.999 95.1381 124.82 95.4946 124.535 95.7541C124.265 96.0057 123.914 96.1513 123.545 96.1641Z" fill="url(#paint2_linear_164_779)"/>
<path d="M92.855 83.1646C91.8184 83.1799 90.7901 82.9773 89.8368 82.5698C88.8835 82.1623 88.0265 81.5591 87.3213 80.7992C86.6161 80.0393 86.0784 79.1397 85.7431 78.1587C85.4078 77.1777 85.2824 76.1372 85.375 75.1046C85.5415 72.9383 86.5116 70.9124 88.095 69.4246C91.455 66.2246 96.595 66.1546 99.565 69.2646C100.288 70.0301 100.839 70.9403 101.184 71.9349C101.529 72.9296 101.659 73.9861 101.565 75.0346C101.379 77.194 100.41 79.211 98.8411 80.7064C97.2721 82.2017 95.2109 83.0724 93.045 83.1546L92.855 83.1646ZM94.095 70.2946C92.7408 70.3289 91.4455 70.8554 90.4516 71.7757C89.4576 72.696 88.8332 73.9471 88.695 75.2946C88.6333 75.8818 88.6998 76.4755 88.89 77.0345C89.0801 77.5935 89.3893 78.1046 89.7963 78.5324C90.2032 78.9603 90.6982 79.2948 91.247 79.5127C91.7958 79.7306 92.3854 79.8268 92.975 79.7946C94.3177 79.7419 95.5933 79.1932 96.555 78.2546C97.5369 77.3397 98.1429 76.092 98.255 74.7546C98.3165 74.1775 98.2539 73.5938 98.0713 73.0429C97.8888 72.4919 97.5905 71.9864 97.1965 71.5602C96.8025 71.134 96.322 70.797 95.787 70.5718C95.2521 70.3466 94.6751 70.2385 94.095 70.2546V70.2946Z" fill="#39F4C4"/>
<path d="M90.4506 82.6686C90.2237 82.6665 89.9996 82.619 89.7913 82.5288C88.3358 81.9008 87.1218 80.8198 86.3299 79.4466C85.5379 78.0734 85.2104 76.4812 85.396 74.9069C85.6523 72.7613 86.6727 70.7797 88.2705 69.325C89.8683 67.8703 91.9366 67.0397 94.0967 66.9854C94.5365 66.9854 94.9583 67.1601 95.2693 67.471C95.5803 67.782 95.755 68.2038 95.755 68.6436C95.755 69.0833 95.5803 69.5052 95.2693 69.8161C94.9583 70.1271 94.5365 70.3018 94.0967 70.3018C92.7546 70.33 91.4686 70.8451 90.478 71.7511C89.4875 72.6571 88.86 73.8923 88.7125 75.2266C88.6005 76.0995 88.7733 76.9852 89.2053 77.7519C89.6373 78.5187 90.3053 79.1255 91.1099 79.482C91.5139 79.6556 91.8324 79.9825 91.9954 80.3909C92.1584 80.7993 92.1525 81.2557 91.979 81.6597C91.8494 81.9578 91.6359 82.2119 91.3646 82.391C91.0933 82.5701 90.7757 82.6666 90.4506 82.6686Z" fill="white"/>
<path d="M114.265 87.2647H89.915C89.7267 87.2647 89.5461 87.1899 89.4129 87.0568C89.2798 86.9236 89.205 86.7431 89.205 86.5547C89.205 86.3664 89.2798 86.1858 89.4129 86.0527C89.5461 85.9195 89.7267 85.8447 89.915 85.8447H114.265C114.453 85.8447 114.634 85.9195 114.767 86.0527C114.9 86.1858 114.975 86.3664 114.975 86.5547C114.975 86.7431 114.9 86.9236 114.767 87.0568C114.634 87.1899 114.453 87.2647 114.265 87.2647Z" fill="white"/>
<path d="M113.725 92.8442H89.375C89.1999 92.8234 89.0385 92.7392 88.9214 92.6074C88.8044 92.4756 88.7397 92.3055 88.7397 92.1292C88.7397 91.9529 88.8044 91.7827 88.9214 91.6509C89.0385 91.5192 89.1999 91.4349 89.375 91.4142H113.725C113.826 91.4022 113.928 91.4118 114.025 91.4423C114.122 91.4727 114.212 91.5234 114.288 91.5909C114.364 91.6585 114.425 91.7414 114.466 91.8342C114.508 91.9269 114.53 92.0275 114.53 92.1292C114.53 92.2309 114.508 92.3314 114.466 92.4242C114.425 92.517 114.364 92.5999 114.288 92.6674C114.212 92.735 114.122 92.7856 114.025 92.8161C113.928 92.8466 113.826 92.8561 113.725 92.8442Z" fill="white"/>
<path opacity="0.4" d="M116.625 90.0248H87.025C86.924 90.0368 86.8216 90.0272 86.7246 89.9968C86.6276 89.9663 86.5381 89.9156 86.4621 89.8481C86.3861 89.7805 86.3252 89.6976 86.2835 89.6049C86.2419 89.5121 86.2203 89.4116 86.2203 89.3099C86.2203 89.2082 86.2419 89.1076 86.2835 89.0148C86.3252 88.9221 86.3861 88.8392 86.4621 88.7716C86.5381 88.704 86.6276 88.6534 86.7246 88.6229C86.8216 88.5925 86.924 88.5829 87.025 88.5948H116.625C116.8 88.6156 116.961 88.6998 117.079 88.8316C117.196 88.9634 117.26 89.1336 117.26 89.3099C117.26 89.4862 117.196 89.6563 117.079 89.7881C116.961 89.9199 116.8 90.0041 116.625 90.0248Z" fill="white"/>
<path d="M74.155 96.1642H50.235C50.0595 96.1717 49.8847 96.1375 49.725 96.0642C49.5625 95.995 49.4161 95.8928 49.295 95.7642C49.1744 95.6327 49.0855 95.4754 49.035 95.3042C48.9828 95.1362 48.9657 94.9591 48.985 94.7842L51.895 64.5742C51.9306 64.1922 52.105 63.8365 52.385 63.5742C52.6583 63.322 53.0133 63.1765 53.385 63.1642H77.325C77.5001 63.1615 77.6739 63.1955 77.835 63.2642C77.9979 63.3371 78.1443 63.4426 78.265 63.5742C78.3855 63.702 78.4745 63.856 78.525 64.0242C78.5761 64.1925 78.5931 64.3693 78.575 64.5442L75.625 94.8042C75.5875 95.1857 75.4135 95.5409 75.135 95.8042C74.8602 96.0347 74.5136 96.162 74.155 96.1642Z" fill="#FF926F"/>
<path d="M121.625 117.795H106.625C106.45 117.801 106.275 117.767 106.115 117.695C105.952 117.625 105.806 117.523 105.685 117.395C105.571 117.258 105.483 117.102 105.425 116.935C105.373 116.767 105.356 116.59 105.375 116.415L106.825 100.045C106.861 99.6607 107.04 99.3041 107.325 99.0446C107.602 98.799 107.955 98.6575 108.325 98.6446H123.325C123.501 98.6371 123.675 98.6714 123.835 98.7446C123.997 98.8139 124.144 98.916 124.265 99.0446C124.385 99.1793 124.475 99.3383 124.529 99.5108C124.582 99.6834 124.598 99.8654 124.575 100.045L123.125 116.415C123.089 116.799 122.91 117.155 122.625 117.415C122.348 117.657 121.993 117.792 121.625 117.795Z" fill="#FF926F"/>
<path d="M63.625 83.1643C62.6057 83.1765 61.5949 82.9786 60.6555 82.5829C59.7161 82.1871 58.8683 81.6021 58.165 80.8643C55.165 77.7543 55.515 72.6243 58.875 69.4243C60.4363 67.9146 62.5042 67.0411 64.675 66.9743C65.7282 66.9301 66.7786 67.1115 67.756 67.5062C68.7335 67.9009 69.6153 68.4999 70.3424 69.263C71.0696 70.0262 71.6253 70.9358 71.9724 71.9311C72.3195 72.9264 72.45 73.9844 72.355 75.0343C72.1686 77.1954 71.1985 79.2137 69.6274 80.7093C68.0563 82.2049 65.9927 83.0745 63.825 83.1543L63.625 83.1643ZM64.875 70.2943H64.755C63.4123 70.3385 62.1349 70.8844 61.175 71.8242C59.175 73.7542 58.875 76.8243 60.575 78.5643C60.9862 78.9839 61.4807 79.3128 62.0267 79.5298C62.5726 79.7468 63.1579 79.847 63.745 79.8242C65.0906 79.7712 66.3692 79.2228 67.335 78.2843C68.3169 77.3694 68.923 76.1217 69.035 74.7843C69.0965 74.2071 69.0339 73.6235 68.8514 73.0726C68.6688 72.5217 68.3706 72.0161 67.9766 71.5899C67.5826 71.1637 67.102 70.8267 66.567 70.6015C66.0321 70.3763 65.4552 70.2682 64.875 70.2843V70.2943Z" fill="#DE6B46"/>
<path d="M63.625 83.1646C62.571 83.1801 61.5259 82.9706 60.5593 82.55C59.5928 82.1294 58.7271 81.5074 58.0201 80.7256C57.3131 79.9439 56.781 79.0202 56.4593 78.0164C56.1377 77.0126 56.0339 75.9517 56.155 74.9046C56.4114 72.7567 57.4329 70.773 59.0325 69.3168C60.632 67.8605 62.7025 67.0291 64.865 66.9746C65.3052 66.9746 65.7274 67.1495 66.0387 67.4608C66.3501 67.7721 66.525 68.1943 66.525 68.6346C66.525 69.0748 66.3501 69.4971 66.0387 69.8084C65.7274 70.1197 65.3052 70.2946 64.865 70.2946C63.5203 70.3226 62.2316 70.8378 61.2383 71.7446C60.2451 72.6514 59.6149 73.8881 59.465 75.2246C59.3915 75.8109 59.4427 76.4061 59.615 76.9713C59.7873 77.5365 60.0769 78.059 60.465 78.5046C60.862 78.9335 61.3452 79.2737 61.8829 79.5029C62.4206 79.7321 63.0006 79.8451 63.585 79.8346C64.9285 79.8063 66.216 79.2908 67.2076 78.3838C68.1992 77.4768 68.8273 76.2403 68.975 74.9046C68.9848 74.6781 69.0407 74.456 69.1392 74.2518C69.2377 74.0476 69.3767 73.8656 69.5478 73.7169C69.7188 73.5682 69.9184 73.4558 70.1343 73.3867C70.3502 73.3176 70.578 73.2932 70.8036 73.3149C71.0293 73.3367 71.2481 73.4042 71.4469 73.5132C71.6456 73.6223 71.82 73.7707 71.9596 73.9494C72.0991 74.1281 72.2008 74.3332 72.2584 74.5525C72.3161 74.7717 72.3286 75.0004 72.295 75.2246C72.0418 77.3677 71.027 79.3484 69.4355 80.8058C67.8441 82.2633 65.782 83.1004 63.625 83.1646Z" fill="white"/>
<path d="M112.875 83.1643C111.854 83.1767 110.842 82.9789 109.901 82.5832C108.96 82.1876 108.11 81.6024 107.405 80.8643C104.405 77.7543 104.765 72.6243 108.115 69.4243C109.676 67.9146 111.744 67.0411 113.915 66.9743C114.968 66.9376 116.017 67.1225 116.993 67.517C117.97 67.9115 118.853 68.5067 119.585 69.2643C120.308 70.0298 120.86 70.94 121.204 71.9346C121.549 72.9293 121.679 73.9858 121.585 75.0343C121.399 77.1937 120.43 79.2108 118.861 80.7061C117.292 82.2015 115.231 83.0721 113.065 83.1543L112.875 83.1643ZM114.115 70.2943H113.995C112.653 70.3405 111.376 70.8861 110.415 71.8243C108.415 73.7543 108.115 76.8243 109.815 78.5643C110.228 78.9847 110.724 79.3139 111.272 79.5309C111.819 79.7479 112.406 79.8478 112.995 79.8243C114.338 79.7716 115.613 79.2229 116.575 78.2843C117.561 77.3723 118.168 76.123 118.275 74.7843C118.337 74.2072 118.274 73.6236 118.091 73.0726C117.909 72.5217 117.611 72.0161 117.217 71.5899C116.823 71.1637 116.342 70.8267 115.807 70.6016C115.272 70.3764 114.695 70.2682 114.115 70.2843V70.2943Z" fill="#39F4C4"/>
<path d="M112.875 83.1646C111.821 83.1801 110.776 82.9706 109.809 82.55C108.843 82.1294 107.977 81.5074 107.27 80.7256C106.563 79.9439 106.031 79.0202 105.709 78.0164C105.388 77.0126 105.284 75.9517 105.405 74.9046C105.661 72.7567 106.683 70.773 108.282 69.3168C109.882 67.8605 111.952 67.0291 114.115 66.9746C114.555 66.9746 114.977 67.1495 115.289 67.4608C115.6 67.7721 115.775 68.1943 115.775 68.6346C115.775 69.0748 115.6 69.4971 115.289 69.8084C114.977 70.1197 114.555 70.2946 114.115 70.2946C112.771 70.3229 111.484 70.8385 110.492 71.7455C109.501 72.6525 108.873 73.8889 108.725 75.2246C108.648 75.8091 108.699 76.4033 108.874 76.9662C109.049 77.5292 109.344 78.0476 109.738 78.4857C110.132 78.9238 110.617 79.2713 111.159 79.5042C111.7 79.737 112.286 79.8497 112.875 79.8346C114.22 79.8066 115.508 79.2914 116.502 78.3846C117.495 77.4778 118.125 76.2411 118.275 74.9046C118.296 74.6873 118.36 74.4762 118.462 74.2834C118.565 74.0907 118.704 73.92 118.873 73.7812C119.041 73.6424 119.236 73.5381 119.444 73.4744C119.653 73.4106 119.873 73.3886 120.09 73.4096C120.307 73.4306 120.518 73.4942 120.711 73.5968C120.904 73.6994 121.075 73.839 121.213 74.0075C121.352 74.176 121.456 74.3703 121.52 74.5791C121.584 74.7879 121.606 75.0073 121.585 75.2246C121.331 77.3743 120.31 79.3604 118.71 80.8187C117.111 82.277 115.039 83.1098 112.875 83.1646Z" fill="white"/>
<path d="M65.625 87.2647H60.625C60.4367 87.2647 60.2561 87.1899 60.1229 87.0568C59.9898 86.9236 59.915 86.7431 59.915 86.5547C59.915 86.3664 59.9898 86.1858 60.1229 86.0527C60.2561 85.9195 60.4367 85.8447 60.625 85.8447H65.625C65.8133 85.8447 65.9939 85.9195 66.127 86.0527C66.2602 86.1858 66.335 86.3664 66.335 86.5547C66.335 86.7431 66.2602 86.9236 66.127 87.0568C65.9939 87.1899 65.8133 87.2647 65.625 87.2647Z" fill="white"/>
<path d="M65.045 92.845H60.125C59.9499 92.8243 59.7885 92.7401 59.6714 92.6083C59.5544 92.4765 59.4897 92.3064 59.4897 92.1301C59.4897 91.9538 59.5544 91.7836 59.6714 91.6518C59.7885 91.52 59.9499 91.4358 60.125 91.415H65.045C65.22 91.4358 65.3814 91.52 65.4985 91.6518C65.6156 91.7836 65.6803 91.9538 65.6803 92.1301C65.6803 92.3064 65.6156 92.4765 65.4985 92.6083C65.3814 92.7401 65.22 92.8243 65.045 92.845Z" fill="white"/>
<path opacity="0.4" d="M67.945 90.0248H57.775C57.674 90.0368 57.5716 90.0272 57.4746 89.9968C57.3776 89.9663 57.2881 89.9156 57.2121 89.8481C57.1361 89.7805 57.0752 89.6976 57.0335 89.6049C56.9919 89.5121 56.9703 89.4116 56.9703 89.3099C56.9703 89.2082 56.9919 89.1076 57.0335 89.0148C57.0752 88.9221 57.1361 88.8392 57.2121 88.7716C57.2881 88.704 57.3776 88.6534 57.4746 88.6229C57.5716 88.5925 57.674 88.5829 57.775 88.5948H67.945C68.1201 88.6156 68.2815 88.6998 68.3986 88.8316C68.5157 88.9634 68.5803 89.1336 68.5803 89.3099C68.5803 89.4862 68.5157 89.6563 68.3986 89.7881C68.2815 89.9199 68.1201 90.0041 67.945 90.0248Z" fill="white"/>
<path d="M117.725 106.164H112.805C112.63 106.144 112.469 106.059 112.351 105.928C112.234 105.796 112.17 105.626 112.17 105.449C112.17 105.273 112.234 105.103 112.351 104.971C112.469 104.839 112.63 104.755 112.805 104.734H117.725C117.9 104.755 118.061 104.839 118.178 104.971C118.296 105.103 118.36 105.273 118.36 105.449C118.36 105.626 118.296 105.796 118.178 105.928C118.061 106.059 117.9 106.144 117.725 106.164Z" fill="white"/>
<path d="M117.195 111.714H112.265C112.09 111.693 111.929 111.609 111.811 111.477C111.694 111.346 111.63 111.175 111.63 110.999C111.63 110.823 111.694 110.653 111.811 110.521C111.929 110.389 112.09 110.305 112.265 110.284H117.195C117.37 110.305 117.531 110.389 117.649 110.521C117.766 110.653 117.83 110.823 117.83 110.999C117.83 111.175 117.766 111.346 117.649 111.477C117.531 111.609 117.37 111.693 117.195 111.714Z" fill="white"/>
<path opacity="0.4" d="M120.085 108.895H109.915C109.727 108.895 109.546 108.82 109.413 108.687C109.28 108.553 109.205 108.373 109.205 108.185C109.205 107.996 109.28 107.816 109.413 107.683C109.546 107.549 109.727 107.475 109.915 107.475H120.085C120.273 107.475 120.454 107.549 120.587 107.683C120.72 107.816 120.795 107.996 120.795 108.185C120.795 108.373 120.72 108.553 120.587 108.687C120.454 108.82 120.273 108.895 120.085 108.895Z" fill="white"/>
<path d="M101.405 117.795H48.085C47.9171 117.8 47.7501 117.769 47.595 117.705C47.4441 117.635 47.3082 117.536 47.195 117.415C47.0835 117.29 46.9984 117.143 46.945 116.985C46.9104 116.823 46.9104 116.656 46.945 116.495L48.535 99.9446C48.5746 99.5881 48.7415 99.2579 49.005 99.0145C49.2766 98.7633 49.6351 98.627 50.005 98.6345H103.325C103.49 98.6285 103.654 98.6593 103.805 98.7246C103.96 98.7882 104.099 98.8859 104.212 99.0106C104.324 99.1352 104.408 99.2835 104.455 99.4446C104.511 99.6048 104.529 99.7763 104.505 99.9446L102.915 116.495C102.873 116.847 102.706 117.174 102.445 117.415C102.306 117.544 102.142 117.644 101.963 117.709C101.785 117.775 101.595 117.804 101.405 117.795Z" fill="url(#paint3_linear_164_779)"/>
<path d="M51.805 115.164H51.685C51.5294 115.149 51.3782 115.104 51.2402 115.03C51.1021 114.957 50.98 114.857 50.8806 114.736C50.7812 114.615 50.7066 114.476 50.661 114.327C50.6155 114.177 50.5998 114.02 50.615 113.864L51.365 106.044C51.3955 105.73 51.5496 105.441 51.7934 105.24C51.9141 105.141 52.0532 105.066 52.2028 105.021C52.3523 104.975 52.5094 104.959 52.665 104.974C52.8206 104.989 52.9718 105.035 53.1097 105.109C53.2477 105.182 53.3699 105.282 53.4692 105.403C53.5686 105.523 53.6432 105.663 53.6888 105.812C53.7344 105.962 53.7501 106.119 53.735 106.274L52.985 114.094C52.9553 114.387 52.8183 114.658 52.6004 114.856C52.3825 115.053 52.0991 115.163 51.805 115.164Z" fill="white"/>
<path d="M56.795 115.164H56.675C56.5193 115.149 56.3682 115.104 56.2301 115.03C56.0921 114.957 55.9699 114.857 55.8706 114.736C55.7712 114.615 55.6966 114.476 55.651 114.326C55.6054 114.177 55.5898 114.02 55.605 113.864L56.135 108.384C56.1501 108.228 56.1957 108.077 56.2692 107.939C56.3427 107.801 56.4426 107.679 56.5634 107.58C56.6841 107.481 56.8232 107.406 56.9728 107.36C57.1223 107.315 57.2794 107.299 57.435 107.314C57.5906 107.329 57.7417 107.375 57.8797 107.448C58.0177 107.522 58.1398 107.622 58.2392 107.743C58.3386 107.863 58.4132 108.002 58.4588 108.152C58.5044 108.301 58.5201 108.459 58.505 108.614L57.975 114.094C57.9453 114.387 57.8083 114.658 57.5904 114.856C57.3725 115.053 57.0891 115.163 56.795 115.164Z" fill="white"/>
<path d="M61.785 115.164H61.625C61.4694 115.149 61.3182 115.104 61.1802 115.03C61.0421 114.957 60.92 114.857 60.8206 114.736C60.7212 114.615 60.6466 114.476 60.601 114.327C60.5555 114.177 60.5398 114.02 60.555 113.864L60.905 110.254C60.9355 109.94 61.0896 109.651 61.3334 109.45C61.5772 109.249 61.8907 109.154 62.205 109.184C62.5193 109.215 62.8086 109.369 63.0092 109.613C63.2099 109.856 63.3055 110.17 63.275 110.484L62.925 114.094C62.8962 114.38 62.7649 114.646 62.5554 114.843C62.3458 115.039 62.0722 115.154 61.785 115.164Z" fill="white"/>
<path d="M66.775 115.165H66.625C66.4694 115.15 66.3182 115.104 66.1802 115.031C66.0421 114.957 65.92 114.857 65.8206 114.736C65.7212 114.616 65.6466 114.477 65.601 114.327C65.5555 114.177 65.5398 114.02 65.555 113.865L66.555 104.015C66.5842 103.7 66.737 103.411 66.9799 103.209C67.2227 103.007 67.5357 102.91 67.85 102.94C68.1643 102.969 68.4541 103.122 68.6557 103.365C68.8573 103.607 68.9542 103.92 68.925 104.235L67.975 114.095C67.9473 114.392 67.8081 114.667 67.5854 114.866C67.3628 115.064 67.0732 115.171 66.775 115.165Z" fill="white"/>
<path d="M71.765 115.164H71.625C71.4689 115.151 71.317 115.106 71.1783 115.033C71.0397 114.96 70.9169 114.86 70.8173 114.739C70.7177 114.618 70.6432 114.478 70.5982 114.328C70.5531 114.178 70.5384 114.02 70.555 113.864L70.895 110.254C70.9255 109.94 71.0796 109.651 71.3234 109.45C71.4441 109.351 71.5832 109.276 71.7328 109.23C71.8823 109.185 72.0394 109.169 72.195 109.184C72.3506 109.199 72.5017 109.245 72.6397 109.318C72.7777 109.392 72.8999 109.492 72.9992 109.613C73.0986 109.733 73.1732 109.872 73.2188 110.022C73.2644 110.172 73.2801 110.329 73.265 110.484L72.915 114.094C72.8881 114.383 72.756 114.651 72.5439 114.848C72.3318 115.046 72.0546 115.158 71.765 115.164Z" fill="white"/>
<path d="M76.755 115.165H76.625C76.4689 115.151 76.317 115.106 76.1783 115.033C76.0397 114.96 75.9169 114.86 75.8173 114.739C75.7177 114.618 75.6432 114.478 75.5982 114.328C75.5531 114.178 75.5384 114.021 75.555 113.865L76.455 104.445C76.4701 104.289 76.5157 104.138 76.5892 104C76.6627 103.862 76.7627 103.74 76.8834 103.64C77.0041 103.541 77.1432 103.466 77.2928 103.421C77.4423 103.375 77.5994 103.36 77.755 103.375C77.9106 103.39 78.0617 103.435 78.1997 103.509C78.3377 103.582 78.4599 103.682 78.5592 103.803C78.6586 103.924 78.7332 104.063 78.7788 104.212C78.8244 104.362 78.8401 104.519 78.825 104.675L77.915 114.095C77.8879 114.385 77.7544 114.655 77.5402 114.852C77.326 115.05 77.0463 115.161 76.755 115.165Z" fill="white"/>
<path d="M81.745 115.164H81.625C81.4694 115.149 81.3182 115.104 81.1802 115.03C81.0421 114.957 80.92 114.857 80.8206 114.736C80.7212 114.615 80.6466 114.476 80.601 114.326C80.5555 114.177 80.5398 114.02 80.555 113.864L80.935 109.954C80.9368 109.789 80.9729 109.627 81.0409 109.476C81.109 109.326 81.2075 109.192 81.3302 109.082C81.4529 108.971 81.5972 108.888 81.7539 108.837C81.9106 108.785 82.0762 108.767 82.2404 108.783C82.4045 108.799 82.5635 108.849 82.7073 108.93C82.8511 109.01 82.9766 109.12 83.0757 109.252C83.1749 109.383 83.2456 109.534 83.2833 109.695C83.3211 109.855 83.3251 110.022 83.295 110.184L82.925 114.094C82.8953 114.387 82.7583 114.658 82.5404 114.856C82.3225 115.053 82.0391 115.163 81.745 115.164Z" fill="white"/>
<path d="M86.745 115.165H86.625C86.4694 115.15 86.3182 115.104 86.1802 115.03C86.0421 114.957 85.92 114.857 85.8206 114.736C85.7212 114.616 85.6466 114.476 85.601 114.327C85.5555 114.177 85.5398 114.02 85.555 113.865L85.755 111.785C85.7855 111.47 85.9396 111.181 86.1834 110.98C86.4272 110.78 86.7407 110.684 87.055 110.715C87.3693 110.745 87.6586 110.899 87.8593 111.143C88.0599 111.387 88.1555 111.7 88.125 112.015L87.925 114.095C87.8953 114.387 87.7583 114.659 87.5404 114.856C87.3225 115.054 87.0391 115.164 86.745 115.165Z" fill="white"/>
<path d="M91.735 115.164H91.625C91.4694 115.149 91.3182 115.104 91.1802 115.03C91.0421 114.957 90.92 114.857 90.8206 114.736C90.7212 114.616 90.6466 114.476 90.601 114.327C90.5555 114.177 90.5398 114.02 90.555 113.864L91.305 106.044C91.3379 105.731 91.4926 105.443 91.7358 105.243C91.9791 105.043 92.2913 104.946 92.605 104.974C92.7612 104.988 92.913 105.033 93.0517 105.106C93.1903 105.179 93.313 105.279 93.4127 105.4C93.5123 105.521 93.5868 105.661 93.6318 105.811C93.6769 105.961 93.6915 106.119 93.675 106.274L92.925 114.094C92.8952 114.389 92.7567 114.662 92.5367 114.859C92.3167 115.057 92.0309 115.166 91.735 115.164Z" fill="white"/>
<path d="M96.725 115.165H96.625C96.4694 115.15 96.3182 115.104 96.1802 115.031C96.0421 114.957 95.92 114.857 95.8206 114.737C95.7212 114.616 95.6466 114.477 95.601 114.327C95.5555 114.178 95.5398 114.02 95.555 113.865L96.555 103.065C96.5855 102.751 96.7396 102.461 96.9834 102.261C97.2272 102.06 97.5407 101.964 97.855 101.995C98.1693 102.025 98.4586 102.179 98.6592 102.423C98.8599 102.667 98.9555 102.981 98.925 103.295L97.925 114.095C97.895 114.391 97.7552 114.665 97.533 114.863C97.3109 115.061 97.0226 115.169 96.725 115.165Z" fill="white"/>
<path d="M53.185 54.4941L56.185 59.1841C56.3086 59.3985 56.3484 59.651 56.2967 59.8929C56.245 60.1349 56.1054 60.3491 55.905 60.4941L55.415 60.8141C54.6037 61.3379 53.6303 61.5504 52.6746 61.4125C51.7188 61.2747 50.8452 60.7958 50.215 60.0641L46.215 55.4241L53.185 54.4941Z" fill="#FFCFC0"/>
<path d="M50.895 56.2947C50.895 56.2947 52.005 60.1047 54.235 61.2947C54.814 61.0727 55.3699 60.7947 55.895 60.4647L53.395 56.2646" fill="#FCBA9F"/>
<path d="M5.36499 71.0145L11.365 67.7845C12.4731 67.2548 13.409 66.4229 14.065 65.3845L25.435 47.5046C26.1428 46.3896 27.1711 45.5147 28.385 44.9946L44.765 37.9346L41.255 64.4446L41.195 65.4446C41.195 65.4446 36.865 76.6646 26.245 80.7446L15.005 88.7446L5.36499 71.0145Z" fill="#FFCFC0"/>
<path d="M12.445 67.165C12.445 67.165 18.005 81.065 26.285 80.725L21.005 83.955C21.005 83.955 3.06497 80.625 9.77497 68.535L12.445 67.165Z" fill="#FCBA9F"/>
<path d="M42.265 42.8447C40.4273 44.1519 38.9576 45.9107 37.9977 47.9514C37.0378 49.992 36.6201 52.2456 36.785 54.4948L43.735 51.8947L42.265 42.8447Z" fill="#FCBA9F"/>
<path d="M56.815 54.4941L59.815 59.1841C59.9386 59.3985 59.9784 59.651 59.9267 59.8929C59.875 60.1349 59.7354 60.3491 59.535 60.4941L59.045 60.8141C58.2337 61.3379 57.2603 61.5504 56.3046 61.4125C55.3488 61.2747 54.4752 60.7958 53.845 60.0641L49.845 55.4241L56.815 54.4941Z" fill="#FFCFC0"/>
<path d="M122.305 56.3448H44.515C44.2852 56.3472 44.0572 56.303 43.845 56.2148C43.629 56.1275 43.4345 55.9945 43.275 55.8248C43.1225 55.6516 43.0038 55.4516 42.925 55.2348C42.8569 55.015 42.8331 54.7839 42.855 54.5548L45.855 20.6748C45.9135 20.1876 46.144 19.7372 46.505 19.4048C46.8692 19.0737 47.3427 18.8885 47.835 18.8848L125.635 18.9348C125.865 18.9275 126.094 18.9719 126.305 19.0648C126.518 19.1522 126.709 19.2853 126.865 19.4548C127.025 19.6226 127.144 19.8243 127.215 20.0448C127.291 20.2628 127.319 20.495 127.295 20.7248L124.245 54.6048C124.193 55.098 123.959 55.5544 123.59 55.8851C123.22 56.2159 122.741 56.3975 122.245 56.3948L122.305 56.3448Z" fill="#39F4C4"/>
<path d="M103.325 48.8949H103.195C98.825 48.8049 97.585 45.2749 96.685 42.7049C96.385 41.8449 95.575 39.5649 95.015 39.5449C94.705 39.5449 94.545 39.6149 93.775 40.5449C93.0671 41.5907 92.0941 42.4298 90.9555 42.9762C89.817 43.5226 88.5538 43.7568 87.295 43.6549C83.295 43.5649 82.055 40.6549 81.165 38.5949C80.445 36.9049 79.905 35.7949 78.985 35.7749C77.715 35.7749 75.265 39.2049 73.985 41.0449C71.595 44.3849 69.335 47.5349 65.985 47.9349C60.655 48.5549 58.305 44.8749 56.755 42.4349C56.405 41.8849 56.075 41.3649 55.755 40.9449C55.015 39.9449 51.455 39.9449 49.165 40.2849C48.7184 40.3836 48.2515 40.3263 47.8421 40.1225C47.4326 39.9187 47.1054 39.5807 46.915 39.1649C46.705 38.3949 47.375 37.6349 48.405 37.4849C49.245 37.3549 56.625 36.3449 59.075 39.4849C59.465 40.0049 59.825 40.5749 60.215 41.1749C61.825 43.7049 63.065 45.3449 65.395 45.0749C66.835 44.9049 69.095 41.7449 70.595 39.6649C73.125 36.1349 75.515 32.8149 79.135 32.8849C82.755 32.9549 83.995 35.6949 84.845 37.6949C85.695 39.6949 86.315 40.6949 87.445 40.7649C89.105 40.7649 89.605 40.2349 90.515 39.0649C91.0119 38.2722 91.7112 37.6263 92.5409 37.1938C93.3706 36.7614 94.3005 36.5581 95.235 36.6049C98.605 36.7249 99.565 39.4649 100.415 41.8849C101.265 44.3049 101.945 45.8849 103.335 45.9549C104.545 45.9549 106.035 43.6249 107.235 41.7549C109.445 38.2949 112.165 33.9949 118.025 34.1549C119.075 34.1549 119.905 34.8349 119.865 35.6249C119.768 36.0655 119.508 36.4531 119.137 36.7093C118.766 36.9654 118.311 37.0711 117.865 37.0049H117.715C114.715 37.0049 112.885 39.4849 110.655 43.0049C108.835 45.9349 106.935 48.8949 103.325 48.8949Z" fill="white"/>
<path d="M61.105 25.7042H51.105C50.7894 25.7042 50.4867 25.5789 50.2635 25.3557C50.0404 25.1325 49.915 24.8298 49.915 24.5142C49.915 24.1986 50.0404 23.896 50.2635 23.6728C50.4867 23.4496 50.7894 23.3242 51.105 23.3242H61.105C61.4206 23.3242 61.7233 23.4496 61.9464 23.6728C62.1696 23.896 62.295 24.1986 62.295 24.5142C62.295 24.8298 62.1696 25.1325 61.9464 25.3557C61.7233 25.5789 61.4206 25.7042 61.105 25.7042Z" fill="white"/>
<path opacity="0.4" d="M71.315 30.2747H50.735C50.4193 30.2747 50.1167 30.1493 49.8935 29.9261C49.6704 29.703 49.545 29.4003 49.545 29.0847C49.545 28.769 49.6704 28.4664 49.8935 28.2432C50.1167 28.0201 50.4193 27.8946 50.735 27.8946H71.305C71.4697 27.8795 71.6358 27.8989 71.7927 27.9515C71.9495 28.0042 72.0937 28.089 72.2159 28.2006C72.3382 28.3121 72.4358 28.4478 72.5026 28.5992C72.5694 28.7506 72.6039 28.9142 72.6039 29.0796C72.6039 29.2451 72.5694 29.4087 72.5026 29.5601C72.4358 29.7115 72.3382 29.8473 72.2159 29.9588C72.0937 30.0703 71.9495 30.1551 71.7927 30.2078C71.6358 30.2604 71.4697 30.2798 71.305 30.2646L71.315 30.2747Z" fill="white"/>
<path d="M31.475 56.1643L38.735 52.9643L46.155 47.8943C48.155 46.5643 52.155 45.9643 53.655 47.8143C55.155 49.6643 53.475 53.4343 51.655 55.0143L44.795 61.0143L41.225 65.4243L31.475 56.1643Z" fill="#FFCFC0"/>
<path d="M11.855 67.3242C11.855 67.3242 10.445 77.3842 22.685 83.1442C22.685 83.1442 17.445 89.9642 14.055 91.3242C10.665 92.6842 -2.075 78.8143 2.465 70.9443C3.735 68.7443 11.855 67.3242 11.855 67.3242Z" fill="black"/>
<path d="M58.235 56.7242C58.235 56.7242 53.465 56.8242 51.805 57.7242L50.605 56.3242H57.965L58.235 56.7242Z" fill="#FCBA9F"/>
<path d="M80.975 107.075C80.975 107.075 85.475 105.745 87.975 108.285C87.975 108.285 92.295 107.385 94.115 109.755C94.115 109.755 97.965 109.875 99.115 111.415C100.043 111.52 100.927 111.869 101.676 112.425C102.426 112.982 103.016 113.727 103.385 114.585C104.495 117.035 103.965 131.375 103.055 136.525C102.825 137.816 102.945 139.146 103.405 140.375L106.255 147.935L88.075 156.085L83.425 144.815C83.425 144.815 77.905 136.415 77.105 134.915C76.305 133.415 77.275 120.795 74.485 112.995L80.975 107.075Z" fill="#FFCFC0"/>
<path d="M85.925 150.935L85.355 149.565C92.1816 148.5 98.4887 145.28 103.355 140.375L104.255 142.745C103.873 144.322 103.158 145.8 102.16 147.079C101.162 148.359 99.9019 149.411 98.465 150.165C93.625 152.625 85.925 150.935 85.925 150.935Z" fill="#FCBA9F"/>
<path d="M109.145 149.625C106.395 152.875 100.035 158.275 87.295 159.625C86.4221 156.827 85.9606 153.916 85.925 150.985C85.925 150.985 97.495 151.745 104.265 142.795C104.405 142.825 106.215 143.865 109.145 149.625Z" fill="#39F4C4"/>
<path d="M75.7049 117.715C75.7049 117.715 75.365 119.835 73.475 119.885C72.255 119.885 66.885 118.445 63.305 117.415C62.3209 117.13 61.2725 117.158 60.305 117.495C59.3449 117.819 58.5096 118.434 57.915 119.255L57.7049 119.535C57.6036 119.68 57.5291 119.843 57.4849 120.015C57.4499 120.186 57.4499 120.363 57.4849 120.535C57.5166 120.706 57.5811 120.869 57.6749 121.015C57.7693 121.164 57.8957 121.29 58.045 121.385C61.105 123.385 69.375 128.905 70.435 129.915L79.045 138.155L75.7049 117.715Z" fill="#FFCFC0"/>
<path d="M75.215 115.614C75.215 115.614 79.215 120.724 78.655 121.874C78.095 123.024 72.065 119.694 72.065 119.694C72.065 119.694 76.905 120.814 75.215 115.614Z" fill="#FCBA9F"/>
<path d="M74.455 112.994L67.455 93.5041C67.2161 92.8346 67.1141 92.1238 67.155 91.4141C67.2001 90.7194 67.3801 90.04 67.685 89.4141C68.0016 88.7785 68.4399 88.2111 68.975 87.7441C69.5163 87.2926 70.1417 86.9528 70.815 86.7441C71.3676 86.5677 71.9655 86.5982 72.4972 86.83C73.0289 87.0618 73.4582 87.4792 73.705 88.0041L83.315 108.654L74.455 112.994Z" fill="#FFCFC0"/>
<path d="M116.705 59.775C116.705 59.775 115.635 55.2051 118.305 52.8751C118.305 52.8751 117.655 48.5251 120.125 46.8751C120.125 46.8751 120.465 43.045 122.065 41.975C122.225 41.0552 122.624 40.1938 123.222 39.4775C123.821 38.7612 124.598 38.2153 125.475 37.895C127.985 36.895 142.265 38.265 147.365 39.465C148.636 39.7727 149.967 39.7277 151.215 39.335L158.935 36.915L166.035 55.535L154.525 59.535C154.525 59.535 145.825 64.535 144.285 65.285C142.745 66.035 130.195 64.285 122.285 66.655L116.705 59.775Z" fill="#FFCFC0"/>
<path d="M160.775 57.3142L159.375 57.8042C158.701 50.9213 155.841 44.4348 151.215 39.2942L153.635 38.5342C155.189 39.0052 156.625 39.8017 157.848 40.8707C159.07 41.9397 160.051 43.2567 160.725 44.7342C162.895 49.7042 160.775 57.3142 160.775 57.3142Z" fill="#FCBA9F"/>
<path d="M160.775 57.3148C160.775 57.3148 162.195 45.8148 153.635 38.5348C153.635 38.5348 154.265 35.9248 160.635 33.5348C163.725 32.4048 173.935 53.1148 169.325 56.2648C169.335 56.2148 167.705 57.7148 160.775 57.3148Z" fill="#FF926F"/>
<path d="M127.035 65.6343C127.035 65.6343 129.135 66.1043 129.035 67.9843C129.035 69.2143 127.215 74.4843 125.985 77.9843C125.648 78.9515 125.617 79.9987 125.895 80.9843C126.168 81.9575 126.734 82.8232 127.515 83.4643L127.795 83.6943C127.93 83.8054 128.087 83.8871 128.255 83.9343C128.427 83.9693 128.603 83.9693 128.775 83.9343C128.948 83.9162 129.115 83.8616 129.265 83.7743C129.417 83.6851 129.55 83.5661 129.655 83.4243C131.855 80.4843 137.805 72.5443 138.875 71.5343L147.585 63.4043L127.035 65.6343Z" fill="#FFCFC0"/>
<path d="M124.905 66.0045C124.905 66.0045 130.225 62.3245 131.355 62.9245C132.485 63.5245 128.805 69.3845 128.805 69.3845C128.805 69.3845 130.195 64.6145 124.905 66.0045Z" fill="#FCBA9F"/>
<path d="M122.245 66.6144L102.385 72.4744C101.704 72.6741 100.99 72.7353 100.285 72.6544C99.5812 72.5753 98.9007 72.3542 98.285 72.0044C97.6636 71.6569 97.119 71.1871 96.6842 70.6234C96.2493 70.0596 95.9332 69.4136 95.755 68.7244C95.6072 68.1621 95.6712 67.5652 95.9349 67.0471C96.1986 66.529 96.6435 66.1258 97.185 65.9144L118.335 57.4844L122.245 66.6144Z" fill="#FFCFC0"/>
</g>
<defs>
<linearGradient id="paint0_linear_164_779" x1="71.355" y1="-24.3655" x2="126.225" y2="250.605" gradientUnits="userSpaceOnUse">
<stop stop-color="white"/>
<stop offset="1"/>
</linearGradient>
<linearGradient id="paint1_linear_164_779" x1="87.925" y1="21.4347" x2="93.245" y2="104.235" gradientUnits="userSpaceOnUse">
<stop stop-color="white"/>
<stop offset="1" stop-color="#39F4C4"/>
</linearGradient>
<linearGradient id="paint2_linear_164_779" x1="100.985" y1="62.1641" x2="109.975" y2="136.654" gradientUnits="userSpaceOnUse">
<stop stop-color="white"/>
<stop offset="1" stop-color="#39F4C4"/>
</linearGradient>
<linearGradient id="paint3_linear_164_779" x1="75.315" y1="98.5445" x2="76.795" y2="139.615" gradientUnits="userSpaceOnUse">
<stop stop-color="#E3FAF4"/>
<stop offset="1" stop-color="#39F4C4"/>
</linearGradient>
<clipPath id="clip0_164_779">
<rect width="170.55" height="170.55" fill="white" transform="translate(0.724976 0.724609)"/>
</clipPath>
</defs>
</svg>
