<svg width="174" height="174" viewBox="0 0 174 174" fill="none" xmlns="http://www.w3.org/2000/svg">
<g clip-path="url(#clip0_164_773)">
<path d="M124.264 155.483H9.47795C8.07345 155.535 6.67607 155.259 5.39703 154.677C4.11751 154.1 2.99201 153.23 2.11189 152.136C1.22917 151.042 0.614301 149.756 0.316289 148.382C0.0200091 147.01 0.0514713 145.587 0.408114 144.23L18.0479 53.5313C18.725 50.4351 20.4126 47.652 22.8452 45.6203C25.2777 43.5885 28.3169 42.4235 31.4843 42.3088H146.291C147.693 42.2573 149.089 42.5339 150.366 43.1166C151.643 43.6994 152.766 44.5721 153.646 45.6654C154.531 46.757 155.147 48.0416 155.443 49.4153C155.739 50.789 155.707 52.213 155.35 53.5722L137.71 144.27C137.033 147.367 135.346 150.15 132.913 152.182C130.481 154.213 127.441 155.378 124.274 155.493L124.264 155.483Z" fill="#39F4C4"/>
<path d="M45.5328 66.8046H121.958C122.505 66.7826 123.05 66.8873 123.55 67.1107C124.057 67.3427 124.501 67.6925 124.845 68.1309C125.2 68.5486 125.448 69.0456 125.57 69.5797C125.692 70.1169 125.692 70.6748 125.57 71.212L124.55 76.9254C124.373 77.7599 124.004 78.5419 123.473 79.2095C122.942 79.877 122.262 80.4118 121.489 80.7716L79.6595 100.921C79.0137 101.269 78.2915 101.452 77.5578 101.452C76.8241 101.452 76.1019 101.269 75.4561 100.921L41.0132 80.1595C40.3839 79.7633 39.8922 79.1825 39.6053 78.4965C39.3211 77.812 39.2569 77.0562 39.4217 76.3336L40.3603 71.2325C40.6157 70.0273 41.2684 68.9428 42.2137 68.1528C43.1591 67.3629 44.3423 66.9133 45.5736 66.8761L45.5328 66.8046Z" fill="white"/>
<path d="M41.7375 87.638L74.6909 108.308C75.137 108.562 75.6416 108.695 76.155 108.695C76.6683 108.695 77.1729 108.562 77.619 108.308L118.132 87.6481C120.305 86.5361 122.509 87.944 122.091 90.1987L116.071 123.121C115.612 125.285 114.441 127.233 112.745 128.653C111.049 130.073 108.927 130.884 106.716 130.957H37.3403C36.3559 130.999 35.3749 130.814 34.4735 130.416C33.5568 130.013 32.7516 129.393 32.127 128.61C31.4936 127.854 31.0464 126.959 30.8211 125.999C30.5967 125.039 30.5967 124.04 30.8211 123.081L36.8404 90.1579C36.9383 89.635 37.1509 89.1402 37.4628 88.7092C37.7817 88.2824 38.1933 87.9335 38.6666 87.689C39.1372 87.4349 39.6623 87.2983 40.197 87.2911C40.7303 87.2874 41.2573 87.4061 41.7375 87.638Z" fill="white"/>
<path d="M150.249 66.0291C154.949 66.0291 159.543 64.6355 163.45 62.0246C167.358 59.4137 170.403 55.7027 172.202 51.361C174 47.0192 174.471 42.2416 173.554 37.6324C172.637 33.0232 170.374 28.7894 167.051 25.4663C163.728 22.1433 159.494 19.8802 154.885 18.9634C150.275 18.0466 145.498 18.5171 141.156 20.3155C136.814 22.114 133.103 25.1595 130.492 29.067C127.882 32.9745 126.488 37.5684 126.488 42.268C126.487 45.3887 127.1 48.4791 128.294 51.3625C129.488 54.246 131.238 56.8659 133.444 59.0726C135.651 61.2793 138.271 63.0295 141.155 64.2231C144.038 65.4167 147.128 66.0304 150.249 66.0291Z" fill="#FF926F"/>
</g>
<defs>
<clipPath id="clip0_164_773">
<rect width="174" height="174" fill="white"/>
</clipPath>
</defs>
</svg>
