<svg width="172" height="171" viewBox="0 0 172 171" fill="none" xmlns="http://www.w3.org/2000/svg">
<g clip-path="url(#clip0_164_855)">
<path d="M164.195 62.8928L153.075 125.893C151.645 134.043 143.875 140.643 135.725 140.643H8.99486C8.93511 140.644 8.8758 140.632 8.82149 140.607C8.76717 140.582 8.71932 140.545 8.68162 140.499C8.64393 140.453 8.61739 140.398 8.60408 140.34C8.59077 140.282 8.59106 140.221 8.60487 140.163C8.62391 140.064 8.66789 139.972 8.73265 139.895C8.79741 139.818 8.88079 139.759 8.97487 139.723C12.0102 138.659 14.7173 136.825 16.8313 134.401C18.9453 131.976 20.3937 129.045 21.0349 125.893L32.1448 62.8928C33.5849 54.7428 41.3549 48.1328 49.5049 48.1328H152.045C160.195 48.1328 165.625 54.7428 164.195 62.8928Z" fill="#39F4C4"/>
<path d="M157.095 54.2727L145.985 117.273C144.545 125.423 136.775 132.023 128.625 132.023H1.89483C1.83508 132.024 1.77578 132.012 1.72146 131.987C1.66715 131.962 1.61929 131.925 1.5816 131.879C1.54391 131.832 1.5174 131.778 1.50409 131.72C1.49078 131.661 1.49103 131.601 1.50485 131.543C1.52362 131.445 1.56765 131.354 1.63257 131.278C1.69748 131.203 1.781 131.146 1.87484 131.113C4.91196 130.049 7.62039 128.213 9.73459 125.787C11.8488 123.361 13.2962 120.427 13.9348 117.273L25.0449 54.2727C26.4849 46.1227 34.2548 39.5127 42.4048 39.5127H144.945C153.095 39.5127 158.535 46.1227 157.095 54.2727Z" fill="#E3FFF6"/>
<path d="M12.4648 85.7826H119.625C120.372 85.8033 121.105 85.5734 121.707 85.1294C122.308 84.6855 122.744 84.0529 122.945 83.3326L133.485 23.5626C133.715 22.2126 132.625 21.1126 131.025 21.1126H23.8648C23.1174 21.0919 22.3845 21.3218 21.7829 21.7658C21.1813 22.2098 20.7455 22.8423 20.5449 23.5626L10.0049 83.3326C9.77486 84.6826 10.8648 85.7826 12.4648 85.7826Z" fill="url(#paint0_linear_164_855)"/>
<path d="M76.0948 85.7732H17.2448L49.5149 47.1632C51.8949 44.3232 56.0648 44.3232 57.4348 47.1632L76.0948 85.7732Z" fill="#FF926F"/>
<path d="M114.885 85.7731H81.8849L74.5749 70.6631L90.4948 51.6131C92.8748 48.7631 97.0449 48.7631 98.4149 51.6131L114.885 85.7731Z" fill="#FF926F"/>
<path d="M77.7929 38.0725C79.7888 36.245 80.164 33.4063 78.6311 31.7322C77.0982 30.0582 74.2376 30.1826 72.2417 32.0102C70.2458 33.8378 69.8705 36.6764 71.4035 38.3505C72.9364 40.0246 75.7971 39.9001 77.7929 38.0725Z" fill="white"/>
<path d="M118.715 96.3624H9.71483C9.46536 96.3714 9.21721 96.3223 8.98998 96.2189C8.76275 96.1156 8.56266 95.9608 8.40554 95.7668C8.24841 95.5728 8.13857 95.345 8.08465 95.1013C8.03072 94.8575 8.03421 94.6045 8.09484 94.3624C8.19843 93.8158 8.48422 93.3205 8.90557 92.9573C9.32692 92.5941 9.85897 92.3843 10.4148 92.3624H119.415C119.664 92.3534 119.912 92.4025 120.14 92.5059C120.367 92.6092 120.567 92.764 120.724 92.958C120.881 93.1519 120.991 93.3798 121.045 93.6235C121.099 93.8673 121.095 94.1202 121.035 94.3624C120.931 94.909 120.645 95.4043 120.224 95.7675C119.803 96.1308 119.271 96.3405 118.715 96.3624Z" fill="black"/>
<path d="M68.4848 104.982H8.15484C7.90537 104.992 7.65721 104.942 7.42998 104.839C7.20275 104.736 7.00267 104.581 6.84554 104.387C6.68842 104.193 6.57857 103.965 6.52465 103.721C6.47072 103.478 6.47421 103.225 6.53484 102.982C6.6401 102.437 6.92637 101.942 7.34737 101.579C7.76838 101.216 8.29951 101.006 8.85485 100.982H69.1748C69.4243 100.973 69.6725 101.023 69.8997 101.126C70.1269 101.229 70.327 101.384 70.4841 101.578C70.6413 101.772 70.7511 102 70.805 102.244C70.859 102.487 70.8555 102.74 70.7949 102.982C70.6933 103.528 70.4095 104.023 69.9898 104.387C69.5701 104.75 69.0395 104.96 68.4848 104.982Z" fill="black"/>
<path d="M94.6248 113.603H6.62484C6.37537 113.612 6.12721 113.563 5.89999 113.46C5.67276 113.356 5.47267 113.202 5.31554 113.008C5.15842 112.814 5.04858 112.586 4.99465 112.342C4.94073 112.098 4.94421 111.845 5.00484 111.603C5.11011 111.057 5.39637 110.563 5.81737 110.2C6.23838 109.837 6.76951 109.627 7.32485 109.603H95.3249C95.5749 109.592 95.8241 109.64 96.0525 109.742C96.2808 109.845 96.4818 110 96.6394 110.194C96.7969 110.389 96.9067 110.618 96.9597 110.862C97.0128 111.107 97.0077 111.361 96.9448 111.603C96.8447 112.151 96.5599 112.649 96.1378 113.013C95.7157 113.376 95.1818 113.585 94.6248 113.603Z" fill="black"/>
<path d="M150.525 149.703H145.115C142.405 148.643 141.775 147.703 141.765 144.703C141.794 143.841 141.757 142.979 141.655 142.123C141.56 141.505 141.322 140.917 140.96 140.407C140.597 139.898 140.12 139.48 139.566 139.188C139.013 138.897 138.399 138.739 137.773 138.727C137.148 138.716 136.528 138.851 135.965 139.123C135.025 139.573 134.105 140.063 133.175 140.543C132.73 140.822 132.232 141.006 131.713 141.084C131.194 141.162 130.664 141.133 130.157 140.998C129.65 140.863 129.176 140.625 128.764 140.299C128.353 139.973 128.012 139.566 127.765 139.103C127.075 138.003 126.435 136.873 125.765 135.753C125.457 135.305 125.248 134.797 125.151 134.262C125.054 133.727 125.072 133.177 125.204 132.65C125.335 132.122 125.577 131.629 125.913 131.202C126.25 130.775 126.673 130.424 127.155 130.173C127.985 129.663 128.855 129.223 129.665 128.693C130.237 128.333 130.709 127.833 131.035 127.241C131.362 126.649 131.534 125.984 131.534 125.308C131.534 124.632 131.362 123.967 131.035 123.375C130.709 122.783 130.237 122.283 129.665 121.923C128.935 121.463 128.155 121.073 127.425 120.613C126.924 120.326 126.484 119.943 126.133 119.485C125.781 119.027 125.523 118.504 125.375 117.945C125.227 117.387 125.192 116.805 125.271 116.233C125.35 115.661 125.541 115.11 125.835 114.613C126.435 113.513 127.085 112.433 127.745 111.363C127.995 110.912 128.332 110.515 128.736 110.194C129.141 109.874 129.605 109.638 130.102 109.498C130.598 109.359 131.118 109.319 131.63 109.382C132.142 109.444 132.636 109.608 133.085 109.863C134.025 110.323 134.945 110.813 135.885 111.263C136.453 111.555 137.082 111.707 137.72 111.706C138.359 111.705 138.987 111.551 139.554 111.257C140.121 110.964 140.609 110.538 140.978 110.018C141.347 109.497 141.586 108.895 141.675 108.263C141.76 107.513 141.79 106.757 141.765 106.003C141.765 103.003 142.415 102.083 145.115 101.003H150.525C153.215 102.003 153.855 103.003 153.865 106.003C153.841 106.864 153.878 107.727 153.975 108.583C154.075 109.208 154.322 109.8 154.695 110.312C155.069 110.823 155.558 111.238 156.124 111.523C156.689 111.808 157.314 111.955 157.947 111.951C158.58 111.948 159.203 111.794 159.765 111.503C160.625 111.063 161.445 110.503 162.295 110.053C162.739 109.742 163.245 109.528 163.778 109.427C164.311 109.326 164.859 109.339 165.387 109.466C165.914 109.592 166.409 109.83 166.838 110.162C167.267 110.494 167.62 110.914 167.875 111.393C168.585 112.523 169.255 113.673 169.875 114.833C170.152 115.267 170.339 115.753 170.424 116.261C170.509 116.769 170.49 117.29 170.368 117.79C170.247 118.291 170.025 118.762 169.717 119.175C169.409 119.588 169.02 119.934 168.575 120.193C167.795 120.713 166.955 121.193 166.155 121.623C165.505 121.986 164.964 122.515 164.587 123.157C164.211 123.798 164.012 124.529 164.012 125.273C164.012 126.017 164.211 126.748 164.587 127.389C164.964 128.031 165.505 128.56 166.155 128.923C166.805 129.313 167.475 129.663 168.155 130.053C168.999 130.49 169.665 131.207 170.039 132.08C170.412 132.954 170.471 133.931 170.205 134.843C169.629 136.381 168.895 137.856 168.015 139.243C166.635 141.643 164.455 142.173 162.015 140.773C161.295 140.353 160.585 139.923 159.865 139.533C159.29 139.195 158.64 139.007 157.974 138.985C157.308 138.962 156.647 139.107 156.051 139.405C155.455 139.703 154.942 140.145 154.561 140.691C154.179 141.238 153.94 141.871 153.865 142.533C153.796 143.247 153.773 143.965 153.795 144.683C153.855 147.693 153.215 148.653 150.525 149.703ZM147.755 135.863C149.831 135.875 151.864 135.27 153.597 134.126C155.329 132.981 156.683 131.348 157.487 129.434C158.291 127.519 158.508 125.409 158.112 123.371C157.716 121.333 156.723 119.458 155.261 117.984C153.798 116.51 151.931 115.503 149.896 115.092C147.861 114.68 145.749 114.881 143.828 115.67C141.908 116.459 140.264 117.801 139.107 119.524C137.949 121.248 137.329 123.277 137.325 125.353C137.32 126.728 137.585 128.09 138.106 129.363C138.628 130.635 139.395 131.792 140.363 132.768C141.332 133.744 142.483 134.52 143.751 135.051C145.019 135.582 146.38 135.858 147.755 135.863Z" fill="black"/>
</g>
<defs>
<linearGradient id="paint0_linear_164_855" x1="63.3348" y1="108.953" x2="90.3949" y2="-69.2574" gradientUnits="userSpaceOnUse">
<stop stop-color="white"/>
<stop offset="1" stop-color="#FF926F"/>
</linearGradient>
<clipPath id="clip0_164_855">
<rect width="170.55" height="170.55" fill="white" transform="translate(0.724854 0.132812)"/>
</clipPath>
</defs>
</svg>
