<svg width="172" height="171" viewBox="0 0 172 171" fill="none" xmlns="http://www.w3.org/2000/svg">
<g clip-path="url(#clip0_164_875)">
<path d="M158.045 120.81H43.1948C42.9229 120.82 42.6523 120.768 42.404 120.656C42.1557 120.545 41.9365 120.378 41.7634 120.168C41.5902 119.958 41.4678 119.711 41.4056 119.446C41.3434 119.181 41.3431 118.905 41.4048 118.64L51.7248 60.0501C52.0004 58.6771 52.7304 57.437 53.7973 56.5298C54.8641 55.6227 56.2054 55.1014 57.6048 55.0501H166.325C166.95 55.0293 167.572 55.1526 168.142 55.4104C168.712 55.6683 169.215 56.0537 169.612 56.537C170.01 57.0204 170.29 57.5885 170.433 58.1977C170.576 58.8069 170.576 59.4407 170.435 60.0501L160.015 119.11C159.929 119.575 159.687 119.997 159.329 120.306C158.97 120.615 158.518 120.793 158.045 120.81Z" fill="#6B6B6B"/>
<path d="M154.625 118.05H47.1148C46.9679 118.053 46.8223 118.022 46.6884 117.962C46.5545 117.901 46.4356 117.812 46.3401 117.7C46.2446 117.589 46.175 117.457 46.136 117.315C46.0971 117.174 46.0899 117.025 46.1148 116.88L55.6949 62.5504C55.8473 61.7919 56.251 61.107 56.8407 60.6062C57.4304 60.1054 58.1717 59.818 58.9449 59.7904H163.285C163.63 59.7783 163.974 59.8459 164.289 59.988C164.604 60.1301 164.882 60.3429 165.101 60.6098C165.321 60.8767 165.476 61.1907 165.555 61.5272C165.633 61.8637 165.633 62.2139 165.555 62.5504L155.975 116.88C155.913 117.198 155.746 117.486 155.501 117.698C155.257 117.91 154.948 118.034 154.625 118.05Z" fill="#FFF6F0"/>
<path d="M159.425 122.49L159.295 123.22C159.231 123.545 159.09 123.851 158.885 124.112C158.68 124.372 158.416 124.581 158.115 124.72L120.785 142.32C119.432 142.967 117.954 143.309 116.455 143.32H1.62485C1.41418 143.329 1.20429 143.289 1.01176 143.203C0.819219 143.117 0.649296 142.987 0.515449 142.824C0.381603 142.662 0.28748 142.47 0.240517 142.264C0.193553 142.059 0.195039 141.845 0.24485 141.64L0.364845 140.92C0.431323 140.595 0.572599 140.291 0.777443 140.03C0.982287 139.77 1.24507 139.561 1.54487 139.42L40.5449 121.05C40.8583 120.903 41.1987 120.821 41.5449 120.81H158.045C158.254 120.805 158.462 120.848 158.653 120.935C158.843 121.022 159.011 121.152 159.144 121.314C159.277 121.476 159.372 121.666 159.42 121.869C159.469 122.073 159.47 122.285 159.425 122.49Z" fill="black"/>
<path opacity="0.8" d="M145.345 27.2299H28.4149C27.5332 27.2605 26.6878 27.5884 26.0161 28.1603C25.3444 28.7322 24.8858 29.5144 24.7149 30.3799L11.1349 107.38C11.0475 107.765 11.0495 108.164 11.1407 108.548C11.2319 108.932 11.41 109.289 11.6611 109.594C11.9121 109.898 12.2296 110.14 12.5892 110.303C12.9487 110.465 13.3406 110.543 13.7348 110.53H130.625C131.507 110.499 132.352 110.171 133.024 109.599C133.695 109.028 134.154 108.245 134.325 107.38L147.905 30.3799C147.991 29.9986 147.99 29.6026 147.901 29.2219C147.812 28.8412 147.637 28.4857 147.391 28.1823C147.144 27.8789 146.832 27.6355 146.478 27.4705C146.123 27.3055 145.736 27.2232 145.345 27.2299Z" fill="url(#paint0_linear_164_875)"/>
<path d="M133.165 81.47H111.375C110.965 81.4827 110.572 81.634 110.26 81.8992C109.947 82.1644 109.734 82.5279 109.655 82.93L105.485 106.58C105.445 106.758 105.447 106.942 105.489 107.119C105.531 107.296 105.614 107.462 105.729 107.602C105.845 107.743 105.991 107.856 106.157 107.931C106.322 108.007 106.503 108.044 106.685 108.04H128.475C128.884 108.026 129.276 107.874 129.588 107.609C129.9 107.344 130.114 106.981 130.195 106.58L134.365 82.93C134.409 82.7518 134.41 82.5659 134.369 82.387C134.329 82.2082 134.247 82.0412 134.13 81.8995C134.014 81.7578 133.866 81.6452 133.698 81.5706C133.531 81.496 133.348 81.4616 133.165 81.47Z" fill="#FF926F"/>
<path d="M52.3549 81.22H20.8348C20.4884 81.2319 20.1563 81.361 19.8929 81.5863C19.6295 81.8116 19.4504 82.1196 19.3849 82.46L15.0848 106.8C15.0478 106.95 15.0458 107.106 15.0792 107.257C15.1125 107.407 15.1803 107.548 15.2771 107.668C15.3739 107.788 15.4972 107.884 15.6374 107.949C15.7775 108.013 15.9306 108.045 16.0848 108.04H47.6249C47.972 108.027 48.3046 107.897 48.5693 107.673C48.8341 107.448 49.0156 107.14 49.0848 106.8L53.3749 82.46C53.4125 82.3086 53.4142 82.1504 53.3798 81.9982C53.3454 81.846 53.2758 81.704 53.1767 81.5835C53.0775 81.463 52.9516 81.3673 52.8089 81.3042C52.6662 81.2411 52.5107 81.2122 52.3549 81.22Z" fill="white"/>
<path d="M106.055 81.2204H57.6249C57.1988 81.2347 56.7901 81.3927 56.4652 81.6686C56.1402 81.9446 55.9181 82.3223 55.8348 82.7404L51.6249 106.51C51.58 106.696 51.5788 106.89 51.6213 107.077C51.6638 107.263 51.7489 107.438 51.87 107.586C51.9911 107.734 52.1448 107.852 52.3191 107.931C52.4934 108.01 52.6836 108.047 52.8749 108.04H101.325C101.752 108.026 102.162 107.866 102.487 107.588C102.812 107.31 103.034 106.93 103.115 106.51L107.315 82.7404C107.356 82.5544 107.354 82.3615 107.31 82.1763C107.265 81.9911 107.178 81.8186 107.057 81.672C106.935 81.5253 106.782 81.4084 106.608 81.3301C106.435 81.2519 106.245 81.2143 106.055 81.2204Z" fill="white"/>
<path d="M140.315 38.1101H96.4848C95.9314 38.1328 95.4022 38.3433 94.9842 38.7068C94.5662 39.0702 94.2843 39.5651 94.1848 40.1101L87.6949 76.9101C87.6301 77.1517 87.6232 77.4052 87.6749 77.65C87.7265 77.8948 87.8352 78.124 87.9921 78.3188C88.1489 78.5137 88.3496 78.6688 88.5777 78.7716C88.8058 78.8743 89.0549 78.9217 89.3048 78.9101H133.135C133.689 78.8891 134.219 78.6793 134.637 78.3155C135.056 77.9517 135.337 77.4558 135.435 76.9101L141.925 40.0501C141.977 39.8126 141.974 39.5666 141.916 39.3305C141.859 39.0944 141.748 38.8746 141.593 38.6876C141.438 38.5006 141.242 38.3514 141.02 38.2514C140.799 38.1513 140.558 38.103 140.315 38.1101Z" fill="#39F4C4"/>
<path d="M89.5049 38.1096H29.1448C28.601 38.1299 28.0798 38.3321 27.6645 38.6838C27.2493 39.0356 26.9642 39.5165 26.8549 40.0496L20.3748 76.8396C20.3081 77.0806 20.2995 77.3339 20.3497 77.5788C20.3999 77.8238 20.5075 78.0533 20.6637 78.2485C20.8199 78.4438 21.0202 78.5991 21.2481 78.7019C21.476 78.8046 21.7251 78.8518 21.9749 78.8396H82.3348C82.8871 78.8164 83.4149 78.6056 83.8313 78.242C84.2476 77.8784 84.5275 77.3837 84.6248 76.8396L91.1049 40.0496C91.1605 39.8126 91.1606 39.566 91.1053 39.329C91.0499 39.0919 90.9405 38.8709 90.7856 38.6831C90.6307 38.4953 90.4346 38.3458 90.2124 38.2464C89.9902 38.1469 89.7481 38.1001 89.5049 38.1096Z" fill="#FF926F"/>
<path d="M60.3348 87.0498H63.5648" stroke="#BCBCBC" stroke-width="3" stroke-miterlimit="10" stroke-linecap="round"/>
<path d="M70.6248 87.0498H100.625" stroke="black" stroke-width="3" stroke-miterlimit="10" stroke-linecap="round"/>
<path d="M59.0848 94.0498H62.3148" stroke="#BCBCBC" stroke-width="3" stroke-miterlimit="10" stroke-linecap="round"/>
<path d="M69.4248 94.0498H83.4248" stroke="black" stroke-width="3" stroke-miterlimit="10" stroke-linecap="round"/>
<path d="M57.825 101.26H61.045" stroke="#BCBCBC" stroke-width="3" stroke-miterlimit="10" stroke-linecap="round"/>
<path d="M68.1548 101.26H92.2148" stroke="black" stroke-width="3" stroke-miterlimit="10" stroke-linecap="round"/>
<path d="M27.6248 59.9301C27.6248 59.9301 33.1448 58.8101 34.3748 61.4001C35.6048 63.9901 36.4348 68.8501 40.3748 68.2201C44.3148 67.5901 48.3749 54.8701 52.1949 54.9901C56.0149 55.1101 53.9248 63.4201 58.0648 63.5401C62.2048 63.6601 61.8848 58.8801 64.6448 59.0101C67.9848 59.1701 65.8648 69.0101 70.2348 69.1601C74.6048 69.3101 76.4748 56.1101 83.0648 56.3401" stroke="white" stroke-width="3" stroke-miterlimit="10" stroke-linecap="round"/>
<path d="M32.0848 44.2695H42.7048" stroke="white" stroke-width="3" stroke-miterlimit="10" stroke-linecap="round"/>
<path opacity="0.4" d="M31.2148 49.2197H53.1548" stroke="white" stroke-width="3" stroke-miterlimit="10" stroke-linecap="round"/>
<path opacity="0.4" d="M113.625 65.37C115.557 65.3018 117.41 64.5834 118.884 63.3312C120.358 62.079 121.366 60.3663 121.745 58.47C121.94 57.627 121.939 56.7503 121.741 55.9078C121.543 55.0652 121.154 54.2795 120.604 53.6115C120.054 52.9434 119.358 52.4109 118.569 52.0552C117.78 51.6994 116.92 51.53 116.055 51.56C114.121 51.6288 112.267 52.3486 110.793 53.6027C109.319 54.8569 108.312 56.572 107.935 58.47C107.739 59.3126 107.74 60.189 107.938 61.0311C108.136 61.8732 108.525 62.6583 109.075 63.3257C109.626 63.9931 110.322 64.5246 111.111 64.8792C111.9 65.2337 112.76 65.4017 113.625 65.37Z" fill="white"/>
<path d="M113.005 56.57L112.235 60.95C112.204 61.0612 112.204 61.1787 112.235 61.29C112.276 61.3967 112.349 61.4877 112.445 61.55C112.543 61.6143 112.658 61.6491 112.775 61.65C112.9 61.6486 113.024 61.6178 113.135 61.56L117.525 59.37C117.647 59.3092 117.754 59.2201 117.835 59.11C117.92 59.0105 117.975 58.8893 117.995 58.76C118.03 58.6426 118.03 58.5173 117.995 58.4C117.95 58.2926 117.873 58.2017 117.775 58.14L114.155 55.95C114.056 55.8885 113.941 55.8605 113.825 55.87C113.696 55.8702 113.569 55.901 113.455 55.96C113.342 56.0268 113.244 56.1151 113.165 56.22C113.088 56.3242 113.033 56.4434 113.005 56.57Z" fill="white"/>
<path d="M28.5049 27.23H145.255C145.656 27.222 146.055 27.3031 146.421 27.4673C146.788 27.6316 147.114 27.875 147.375 28.18C147.627 28.5011 147.807 28.8728 147.902 29.2698C147.997 29.6668 148.004 30.0797 147.925 30.48L147.065 35.36H23.8348L24.6949 30.48C24.8685 29.5815 25.345 28.7697 26.0449 28.18C26.7301 27.5881 27.5996 27.2523 28.5049 27.23Z" fill="#39F4C4"/>
</g>
<defs>
<linearGradient id="paint0_linear_164_875" x1="87.2067" y1="27.0399" x2="99.8916" y2="202.411" gradientUnits="userSpaceOnUse">
<stop stop-color="white"/>
<stop offset="1" stop-color="#39F4C4"/>
</linearGradient>
<clipPath id="clip0_164_875">
<rect width="171.06" height="170.55" fill="white" transform="translate(0.214844)"/>
</clipPath>
</defs>
</svg>
