<svg width="225" height="230" viewBox="0 0 225 230" fill="none" xmlns="http://www.w3.org/2000/svg">
<path d="M185.697 22.3828H35.5979C31.6143 22.3828 27.7909 23.9796 24.9708 26.8216C22.1507 29.6636 20.57 33.5184 20.57 37.5377V46.6082H200.729V37.5377C200.729 33.5184 199.145 29.6636 196.326 26.8216C193.507 23.9796 189.684 22.3828 185.697 22.3828Z" fill="#5F5F5F"/>
<path d="M200.729 46.6045H20.57V217.916C20.57 221.109 21.8261 224.171 24.0645 226.429C26.3029 228.687 29.3422 229.955 32.508 229.955H188.788C191.954 229.955 194.992 228.687 197.231 226.429C199.47 224.171 200.729 221.109 200.729 217.916V46.6045Z" fill="url(#paint0_linear_310_3307)"/>
<path opacity="0.6" d="M101.286 201.257C66.7848 201.257 38.8198 173.06 38.8198 138.276C38.8198 103.493 66.7848 75.2959 101.286 75.2959C135.785 75.2959 163.752 103.493 163.752 138.276C163.752 173.06 135.785 201.257 101.286 201.257Z" stroke="white" stroke-width="15" stroke-miterlimit="10"/>
<path d="M184.09 38.8116C182.053 38.8116 180.402 37.1473 180.402 35.094C180.402 33.0413 182.053 31.377 184.09 31.377C186.126 31.377 187.776 33.0413 187.776 35.094C187.776 37.1473 186.126 38.8116 184.09 38.8116Z" fill="white"/>
<path d="M169.197 38.8116C167.161 38.8116 165.51 37.1473 165.51 35.094C165.51 33.0413 167.161 31.377 169.197 31.377C171.234 31.377 172.884 33.0413 172.884 35.094C172.884 37.1473 171.234 38.8116 169.197 38.8116Z" fill="white"/>
<path d="M155.2 38.8116C153.163 38.8116 151.513 37.1473 151.513 35.094C151.513 33.0413 153.163 31.377 155.2 31.377C157.236 31.377 158.887 33.0413 158.887 35.094C158.887 37.1473 157.236 38.8116 155.2 38.8116Z" fill="white"/>
<path d="M128.838 154.131L137.722 229.999H102.028L81.6578 154.581L128.838 154.131Z" fill="#4A4A4A"/>
<path d="M100.904 225.854L105.103 202.563L96.7801 177.134H83.8839L100.904 225.854Z" fill="#2D2D2D"/>
<path d="M62.7171 154.583C62.97 159.137 62.97 163.701 62.7171 168.254C61.6759 182.972 64.652 224.345 64.6267 230H96.3193C96.4521 222.166 98.4253 154.905 98.4253 154.905L62.7171 154.583Z" fill="#4A4A4A"/>
<path d="M129.513 159.568L62.7168 168.252V154.581L128.837 154.131L129.513 159.568Z" fill="#2D2D2D"/>
<path d="M116.853 77.1861C114.988 67.9065 119.372 68.1454 120.832 66.6702C120.832 66.6702 126.305 62.1192 130.476 66.3612C134.891 70.8488 160.199 105.707 160.199 105.707L144.364 120.39L141.388 116.809L133.677 107.538L125.431 97.6289L124.406 96.5009L113.281 83.7971C113.281 83.7971 117.906 82.0711 116.853 77.1861Z" fill="#FF926F"/>
<path d="M110.232 78.7691C108.097 72.3438 111.533 65.3903 117.907 63.2381C124.279 61.0863 131.176 64.5501 133.31 70.9757C135.445 77.401 132.009 84.3545 125.636 86.5067C119.263 88.6585 112.367 85.1943 110.232 78.7691Z" fill="#FF926F"/>
<path d="M124.554 96.4457C124.235 94.5064 123.596 90.6274 122.91 87.0922L119.256 69.9814C119.256 69.9814 129.068 84.6029 133.588 94.7874C136.936 102.42 140.82 110.198 141.462 116.778L133.753 107.507L125.506 97.5984L124.554 96.4457Z" fill="#E1684A"/>
<path d="M156.356 60.5187C157.18 52.6714 155.062 52.291 155.033 48.0363C155.018 43.8789 148.791 36.1816 151.762 36.3371C154.731 36.4927 156.817 39.3543 156.817 39.3543C157.257 35.6244 156.513 29.4176 160.299 27.0754C164.084 24.7336 164.976 25.8671 168.058 26.7987C176.288 29.3466 171.694 40.3258 171.61 43.8049C171.535 45.995 167.715 54.1857 167.542 55.697L166.325 61.5222L156.356 60.5187Z" fill="#FFCCB3"/>
<path d="M161.043 38.0384L162.169 26.7744L161.043 38.0384Z" fill="#E56441"/>
<path d="M161.043 38.0384L162.169 26.7744" stroke="#E56441" stroke-width="1.20133" stroke-linecap="round"/>
<path d="M164.895 38.1581L166.726 27.3379L164.895 38.1581Z" fill="#E56441"/>
<path d="M164.895 38.1581L166.726 27.3379" stroke="#E56441" stroke-width="1.20133" stroke-linecap="round"/>
<path d="M169.415 38.1844L170.34 31.709L169.415 38.1844Z" fill="#E56441"/>
<path d="M169.415 38.1844L170.34 31.709" stroke="#E56441" stroke-width="1.20133" stroke-linecap="round"/>
<path d="M163.178 46.641C161.834 43.4721 158.345 40.4219 158.345 40.4219L163.178 46.641Z" fill="#E56441"/>
<path d="M163.178 46.641C161.834 43.4721 158.345 40.4219 158.345 40.4219" stroke="#E56441" stroke-width="1.20133" stroke-linecap="round"/>
<path d="M141.936 108.833L155.104 56.4229C155.196 56.1084 155.4 55.8398 155.677 55.6685C155.954 55.4972 156.284 55.4352 156.604 55.4947L166.534 57.403C167.008 57.4994 167.43 57.7706 167.717 58.1633C168.004 58.556 168.137 59.0422 168.088 59.5276L162.618 114.018L141.936 108.833Z" fill="#FF926F"/>
<path d="M151.978 123.483C146.023 123.483 141.195 118.615 141.195 112.611C141.195 106.606 146.023 101.739 151.978 101.739C157.934 101.739 162.761 106.606 162.761 112.611C162.761 118.615 157.934 123.483 151.978 123.483Z" fill="#FF926F"/>
<path d="M108.452 57.793C108.452 57.793 120.779 61.4599 123.881 62.7681C126.983 64.0763 127.19 69.3094 127.396 73.0158C127.541 75.6126 128.029 114.897 127.837 139.596C127.797 144.872 128.772 148.22 129.399 151.152C129.571 151.934 129.664 152.731 129.677 153.531C129.681 153.812 129.63 154.091 129.527 154.353C129.424 154.614 129.27 154.852 129.075 155.054C128.881 155.255 128.648 155.416 128.392 155.526C128.135 155.637 127.86 155.695 127.581 155.699L64.4732 156.293C64.4732 156.293 61.6742 156.703 62.3487 153.484C63.0189 149.963 63.3856 146.39 63.4446 142.806C64.077 117.153 64.195 74.1918 64.469 72.1582C64.8821 69.1058 61.632 66.4771 65.1561 64.9403L82.1737 58.6986L108.452 57.793Z" fill="#FF926F"/>
<path d="M76.9297 86.1435C76.9297 86.1435 75.9728 121.7 76.1752 133.552C76.2974 140.937 84.6734 144.065 84.6987 148.342C84.7114 150.871 77.9288 149.297 74.9358 148.314C68.2038 146.103 63.7735 149.107 63.7735 149.107L65.5692 84.3135L76.9297 86.1435Z" fill="#E1684A"/>
<path d="M105.604 45.2253L101.842 65.042L100.512 66.4603C100.512 66.4603 101.039 67.0953 99.5267 65.5665C95.9613 61.9625 86.5711 57.57 86.9589 56.1547C87.5154 54.1266 89.1299 41.4941 89.1299 41.4941L105.604 45.2253Z" fill="#FFCCB3"/>
<path d="M105.752 46.541H95.838L106.728 63.5957L105.752 46.541Z" fill="#FF967C"/>
<path d="M77.0459 37.9133C74.15 30.6792 82.9981 29.7616 84.5283 29.6664C86.0585 29.5708 85.0341 17.8674 85.0341 17.8674C85.0341 17.8674 100.671 9.92532 105.087 11.8179C105.087 11.8179 111.427 25.0483 114.423 33.8421C117.419 42.6355 116.124 47.3679 112.978 48.6481C108.805 50.7722 103.323 51.4472 99.4044 50.4701C92.4237 48.7301 87.9933 43.1124 87.9933 43.1124C87.8753 43.0954 87.8078 43.0873 87.8078 43.0873C87.8078 43.0873 79.7775 44.7452 77.0459 37.9133Z" fill="#FFCCB3"/>
<path d="M81.247 44.2707C75.6026 40.299 70.856 35.8586 69.9582 30.223C68.1455 18.8677 74.4645 16.123 74.4645 16.123C70.2617 8.07677 79.8475 3.73022 84.7922 2.10797C101.134 -3.25391 111.099 2.56444 111.795 8.94081C112.09 11.6111 111.665 14.1136 110.322 16.1659C110.367 18.1341 110.166 20.0998 109.72 22.0166L107.019 16.976C106.49 17.6602 105.795 18.1962 105.002 18.5319C96.1249 22.7964 87.0179 18.0691 87.0179 18.0691C90.5673 22.2048 90.5926 31.3612 90.3649 33.2737C90.0361 36.0311 88.3458 34.0166 88.3458 34.0166C86.6807 31.3059 80.4925 29.3288 78.8737 34.9512C77.6091 39.3326 89.0076 43.6443 89.0076 43.6443L87.8652 50.4707C85.7406 50.9093 86.0568 48.6453 85.4919 49.401C84.9271 50.1571 83.7299 50.6433 83.498 48.3245C83.2662 46.006 81.2428 44.2682 81.2428 44.2682L81.247 44.2707Z" fill="#BC775C"/>
<path d="M98.9284 31.2969C98.4175 30.3011 98.5279 29.2207 99.175 28.8833C99.8216 28.5463 100.76 29.0796 101.271 30.075C101.781 31.0704 101.671 32.1507 101.024 32.4882C100.377 32.8256 99.4389 32.2923 98.9284 31.2969Z" fill="#080B09"/>
<path d="M107.813 26.5886C107.302 25.5933 107.413 24.5129 108.059 24.1754C108.706 23.838 109.645 24.3718 110.156 25.3672C110.666 26.3625 110.556 27.4429 109.909 27.7803C109.262 28.1174 108.324 27.584 107.813 26.5886Z" fill="#080B09"/>
<path d="M106.691 29.9043C106.691 29.9043 106.124 32.5019 107.83 32.0774C109.445 31.6158 110.645 32.3192 109.379 34.1514" stroke="#E56441" stroke-width="1.20133" stroke-linecap="round"/>
<path d="M109.68 36.2995L109.674 36.3025L109.668 36.3046C108.681 36.6497 106.712 37.3391 105.409 37.8194L105.407 37.8202C105.365 37.8355 105.327 37.8619 105.299 37.8967C105.27 37.932 105.252 37.9741 105.246 38.0191C105.239 38.0637 105.246 38.1096 105.263 38.1513C105.28 38.1912 105.308 38.2265 105.343 38.2524C105.724 38.4994 106.215 38.7837 106.736 39.0026C107.261 39.224 107.801 39.3715 108.279 39.3587C108.75 39.3464 109.155 39.1807 109.45 38.7761C109.751 38.3604 109.957 37.6647 109.951 36.5486L109.95 36.5316L109.953 36.5146C109.958 36.4797 109.955 36.4436 109.942 36.4105C109.929 36.3773 109.907 36.3484 109.879 36.3263C109.851 36.3046 109.819 36.2906 109.784 36.2859C109.749 36.2813 109.713 36.2859 109.68 36.2995Z" fill="#E56441" stroke="#E56441"/>
<path d="M94.7092 28.702L94.8542 28.8677C95.0447 29.1287 95.3301 29.3025 95.6471 29.3522C95.9645 29.4015 96.2883 29.3229 96.5484 29.1325L100.927 25.7427C101.146 25.5875 101.299 25.3551 101.356 25.0915C101.413 24.828 101.369 24.5527 101.234 24.3202C101.158 24.1735 101.052 24.0452 100.923 23.9428C100.794 23.8408 100.645 23.7672 100.486 23.7277C100.327 23.6878 100.161 23.6827 99.9999 23.7124C99.8385 23.7417 99.6855 23.8055 99.5502 23.8994L95.0258 27.1231C94.9001 27.2038 94.7918 27.3097 94.7075 27.4333C94.6232 27.5574 94.5646 27.6973 94.5351 27.8448C94.5056 27.9922 94.5056 28.144 94.5355 28.291C94.5655 28.4385 94.6245 28.5783 94.7092 28.702Z" fill="#080B09"/>
<path d="M110.102 19.5814L104.667 20.6634C104.506 20.6974 104.355 20.7654 104.222 20.8628C104.09 20.9605 103.979 21.085 103.898 21.2287C103.817 21.3723 103.767 21.5317 103.751 21.6962C103.736 21.8607 103.755 22.0268 103.808 22.1832C103.882 22.4425 104.05 22.6639 104.278 22.8042C104.507 22.9444 104.779 22.9929 105.042 22.9402L110.496 22.0787C110.812 22.02 111.092 21.8381 111.275 21.5721C111.458 21.306 111.53 20.9779 111.474 20.6592L111.455 20.4386C111.424 20.2915 111.364 20.1521 111.279 20.0289C111.194 19.9052 111.085 19.8007 110.959 19.7203C110.832 19.6404 110.692 19.5869 110.544 19.5631C110.397 19.5393 110.246 19.5452 110.102 19.5814Z" fill="#080B09"/>
<path d="M83.5104 87.8671L123.849 91.3895C125.102 91.4992 126.03 92.6123 125.922 93.8758L121.532 144.979C121.423 146.242 120.319 147.178 119.066 147.068L78.7301 143.546C77.4739 143.437 76.5465 142.324 76.6561 141.06L81.0444 89.9568C81.154 88.6933 82.2584 87.7578 83.5104 87.8671Z" fill="#39F4C4"/>
<path d="M119.633 97.3546L102.999 95.9023" stroke="white" stroke-width="5.04786" stroke-miterlimit="10" stroke-linecap="round"/>
<path d="M118.991 103.396L111.409 102.733" stroke="white" stroke-width="5.04786" stroke-miterlimit="10" stroke-linecap="round"/>
<path d="M64.1782 74.9396C70.3875 67.1008 73.1781 70.8549 75.3616 71.0466C75.3616 71.0466 82.7512 72.4351 82.1695 78.7371C81.5541 85.4058 70.6783 129.845 70.6783 129.845L47.8562 128.116L48.9395 121.988L51.1652 109.366L53.5385 95.8716L53.7535 94.2651L56.4218 76.5113C56.4218 76.5113 60.9618 79.1259 64.1782 74.9396Z" fill="#FF926F"/>
<path d="M62.64 88.472C56.5699 84.7153 54.673 76.7099 58.3952 70.5911C62.1216 64.4723 70.0634 62.5572 76.1335 66.3138C82.1995 70.07 84.1007 78.0759 80.3743 84.1947C76.6478 90.3135 68.7102 92.2286 62.64 88.472Z" fill="#FF926F"/>
<path d="M117.275 131.692L131.667 132.772L135.068 140.862L133.906 150.849C133.906 150.849 131.429 149.831 131.173 146.299C130.917 142.766 119.46 145.272 116.465 141.392" fill="#FFCCB3"/>
<path d="M62.3829 118.602L118.218 129.214C118.553 129.291 118.849 129.492 119.046 129.775C119.244 130.06 119.331 130.407 119.289 130.752L117.938 141.465C117.867 141.977 117.611 142.444 117.217 142.776C116.824 143.108 116.323 143.281 115.81 143.261L58.2939 140.993L62.3829 118.602Z" fill="#FF926F"/>
<path d="M59.0745 141.083C52.764 141.083 47.6508 135.925 47.6508 129.563C47.6508 123.201 52.764 118.044 59.0745 118.044C65.385 118.044 70.5024 123.201 70.5024 129.563C70.5024 135.925 65.385 141.083 59.0745 141.083Z" fill="#FF926F"/>
<path d="M3.08115 84.7422H34.1781C35.8769 84.7422 37.2554 86.1319 37.2554 87.846V116.453C37.2554 118.167 35.8769 119.557 34.1781 119.557H3.08115C1.37813 119.557 -0.000331879 118.167 -0.000331879 116.453V87.846C-0.000331879 86.1319 1.37813 84.7422 3.08115 84.7422Z" fill="#FEBB94"/>
<path d="M30.2261 107.446L24.8135 101.988C24.4594 101.631 23.9789 101.431 23.4814 101.431C22.9798 101.431 22.4992 101.631 22.1451 101.988L17.9129 106.257C17.5588 106.613 17.0782 106.814 16.5766 106.814C16.0792 106.814 15.5986 106.613 15.2445 106.257L8.32283 99.2793" stroke="white" stroke-width="3" stroke-miterlimit="10" stroke-linecap="round"/>
<path d="M11.5327 98.0166H7.68405C7.51122 98.0166 7.34262 98.0863 7.22037 98.2104C7.09812 98.3341 7.0307 98.5024 7.0307 98.6775V102.188" stroke="white" stroke-width="3" stroke-miterlimit="10" stroke-linecap="round"/>
<path d="M96.6854 32.0339C95.7142 29.8043 96.2908 27.3937 97.9732 26.6491C99.6551 25.9045 101.806 27.1081 102.777 29.3377C103.747 31.5672 103.171 33.9783 101.489 34.7229C99.8069 35.4675 97.6562 34.2635 96.6854 32.0339Z" stroke="#080B09" stroke-miterlimit="10"/>
<path d="M106.336 27.8751C105.365 25.6455 105.942 23.2345 107.624 22.4898C109.306 21.7452 111.457 22.9493 112.428 25.1789C113.398 27.4084 112.822 29.8191 111.139 30.5637C109.457 31.3083 107.307 30.1047 106.336 27.8751Z" stroke="#080B09" stroke-miterlimit="10"/>
<path d="M106.335 27.881C106.335 27.881 104.012 27.8393 102.777 29.34" stroke="#080B09" stroke-miterlimit="10"/>
<path d="M96.9673 32.5898H86.9553" stroke="#080B09" stroke-miterlimit="10"/>
<path fill-rule="evenodd" clip-rule="evenodd" d="M98.7656 60.0496C89.4179 54.148 87.8666 50.4746 87.8666 50.4746L83.9295 58.1655L94.8503 66.4642C95.2874 65.2988 95.8228 64.1739 96.4505 63.1011L99.5239 65.5704L98.7656 60.0496ZM110.077 58.1162L106.044 55.0732C106.044 55.0732 106.361 57.8927 102.186 59.8099L101.839 65.046L103.86 63.0697L106.552 66.6521L110.077 58.1162Z" fill="#E1684A"/>
<path d="M99.5239 65.5697L98.7656 60.0488L96.4505 63.1004L99.5239 65.5697Z" fill="#E1684A"/>
<path d="M102.184 59.8086L103.858 63.0684L101.837 65.0447L102.184 59.8086Z" fill="#E1684A"/>
<path d="M101.839 65.0391L100.565 80.9054C100.548 81.1272 100.456 81.3363 100.305 81.4987C100.154 81.661 99.953 81.7673 99.7346 81.7996C99.5909 81.8209 99.4446 81.8098 99.3059 81.7669C99.1668 81.7235 99.0395 81.65 98.9324 81.551C98.8258 81.4524 98.7419 81.3304 98.6875 81.1948C98.6331 81.0593 98.6095 80.913 98.618 80.7668L99.5243 65.5635L100.51 66.4573L101.839 65.0391Z" fill="#E1684A"/>
<path d="M96.2337 71.9554C95.5613 71.9554 95.0163 71.4059 95.0163 70.7284C95.0163 70.0505 95.5613 69.501 96.2337 69.501C96.906 69.501 97.4507 70.0505 97.4507 70.7284C97.4507 71.4059 96.906 71.9554 96.2337 71.9554Z" fill="#E1684A"/>
<path d="M95.8416 79.182C95.1693 79.182 94.6242 78.6328 94.6242 77.955C94.6242 77.2771 95.1693 76.7275 95.8416 76.7275C96.514 76.7275 97.0586 77.2771 97.0586 77.955C97.0586 78.6328 96.514 79.182 95.8416 79.182Z" fill="#E1684A"/>
<path d="M222.151 163.69H161.742C160.168 163.69 158.892 164.977 158.892 166.563V186.906C158.892 188.493 160.168 189.779 161.742 189.779H222.151C223.725 189.779 225 188.493 225 186.906V166.563C225 164.977 223.725 163.69 222.151 163.69Z" fill="#FEBB94"/>
<path d="M188.832 180.632C188.349 180.632 187.913 180.549 187.526 180.382C187.139 180.207 186.835 179.964 186.614 179.65C186.393 179.336 186.282 178.971 186.282 178.553H187.547C187.575 178.866 187.696 179.124 187.91 179.326C188.131 179.528 188.438 179.629 188.832 179.629C189.24 179.629 189.558 179.531 189.786 179.336C190.014 179.135 190.128 178.877 190.128 178.563C190.128 178.319 190.055 178.121 189.91 177.967C189.772 177.814 189.596 177.696 189.381 177.612C189.174 177.529 188.884 177.438 188.511 177.341C188.041 177.215 187.657 177.09 187.361 176.964C187.07 176.832 186.821 176.63 186.614 176.358C186.407 176.086 186.303 175.724 186.303 175.272C186.303 174.853 186.407 174.488 186.614 174.174C186.821 173.861 187.112 173.621 187.485 173.453C187.858 173.286 188.29 173.202 188.78 173.202C189.478 173.202 190.048 173.38 190.49 173.735C190.94 174.084 191.189 174.564 191.237 175.177H189.931C189.91 174.913 189.786 174.686 189.558 174.498C189.33 174.31 189.029 174.216 188.656 174.216C188.317 174.216 188.041 174.303 187.827 174.477C187.613 174.652 187.506 174.902 187.506 175.23C187.506 175.453 187.571 175.637 187.702 175.783C187.841 175.923 188.013 176.034 188.22 176.118C188.428 176.202 188.711 176.292 189.071 176.389C189.547 176.522 189.934 176.654 190.231 176.787C190.536 176.919 190.791 177.125 190.998 177.403C191.213 177.675 191.32 178.041 191.32 178.5C191.32 178.87 191.22 179.218 191.019 179.546C190.826 179.873 190.539 180.138 190.159 180.34C189.786 180.535 189.343 180.632 188.832 180.632ZM195.668 174.707C196.103 174.707 196.49 174.801 196.829 174.989C197.174 175.177 197.444 175.456 197.637 175.825C197.837 176.194 197.938 176.641 197.938 177.163V180.559H196.767V177.341C196.767 176.825 196.639 176.431 196.383 176.16C196.127 175.881 195.778 175.742 195.336 175.742C194.894 175.742 194.541 175.881 194.279 176.16C194.023 176.431 193.896 176.825 193.896 177.341V180.559H192.714V172.826H193.896V175.47C194.096 175.226 194.348 175.038 194.652 174.906C194.963 174.774 195.301 174.707 195.668 174.707ZM199.051 177.654C199.051 177.076 199.169 176.564 199.403 176.118C199.645 175.672 199.97 175.327 200.378 175.083C200.792 174.833 201.249 174.707 201.746 174.707C202.195 174.707 202.586 174.798 202.917 174.979C203.256 175.153 203.525 175.372 203.726 175.637V174.801H204.918V180.559H203.726V179.702C203.525 179.974 203.252 180.2 202.907 180.382C202.561 180.563 202.168 180.653 201.725 180.653C201.235 180.653 200.785 180.528 200.378 180.277C199.97 180.019 199.645 179.664 199.403 179.211C199.169 178.751 199.051 178.232 199.051 177.654ZM203.726 177.675C203.726 177.278 203.643 176.933 203.477 176.641C203.318 176.348 203.107 176.125 202.845 175.972C202.582 175.818 202.299 175.742 201.995 175.742C201.691 175.742 201.407 175.818 201.145 175.972C200.882 176.118 200.668 176.337 200.502 176.63C200.343 176.916 200.264 177.257 200.264 177.654C200.264 178.051 200.343 178.4 200.502 178.699C200.668 178.999 200.882 179.228 201.145 179.389C201.414 179.542 201.698 179.619 201.995 179.619C202.299 179.619 202.582 179.542 202.845 179.389C203.107 179.236 203.318 179.013 203.477 178.72C203.643 178.421 203.726 178.072 203.726 177.675ZM207.651 175.637C207.824 175.345 208.052 175.118 208.335 174.958C208.626 174.791 208.967 174.707 209.362 174.707V175.94H209.061C208.598 175.94 208.245 176.059 208.004 176.296C207.769 176.532 207.651 176.944 207.651 177.529V180.559H206.469V174.801H207.651V175.637ZM215.682 177.539C215.682 177.755 215.668 177.95 215.64 178.124H211.277C211.311 178.584 211.481 178.953 211.785 179.232C212.088 179.511 212.462 179.65 212.904 179.65C213.539 179.65 213.989 179.382 214.251 178.846H215.526C215.353 179.375 215.039 179.81 214.583 180.152C214.134 180.486 213.574 180.653 212.904 180.653C212.358 180.653 211.868 180.531 211.432 180.288C211.004 180.037 210.665 179.688 210.416 179.242C210.175 178.789 210.054 178.267 210.054 177.675C210.054 177.083 210.171 176.564 210.406 176.118C210.648 175.665 210.983 175.317 211.411 175.073C211.847 174.829 212.344 174.707 212.904 174.707C213.443 174.707 213.923 174.825 214.345 175.063C214.766 175.299 215.094 175.634 215.329 176.066C215.564 176.491 215.682 176.982 215.682 177.539ZM214.448 177.163C214.442 176.724 214.286 176.372 213.982 176.108C213.678 175.843 213.301 175.71 212.852 175.71C212.444 175.71 212.096 175.843 211.805 176.108C211.515 176.365 211.342 176.717 211.287 177.163H214.448Z" fill="white"/>
<path d="M177.61 178.557C177.201 178.557 176.797 178.648 176.428 178.824C176.058 178.999 175.731 179.254 175.471 179.572L172.151 177.672C172.364 177.066 172.364 176.405 172.151 175.8L175.47 173.899C175.914 174.437 176.541 174.788 177.229 174.883C177.917 174.978 178.615 174.81 179.186 174.412C179.757 174.014 180.159 173.414 180.314 172.732C180.468 172.049 180.363 171.334 180.02 170.725C179.677 170.117 179.12 169.66 178.459 169.445C177.799 169.23 177.082 169.272 176.451 169.563C175.82 169.855 175.319 170.374 175.049 171.018C174.779 171.663 174.757 172.386 174.989 173.046L171.67 174.947C171.305 174.503 170.813 174.183 170.261 174.032C169.709 173.88 169.124 173.903 168.586 174.099C168.048 174.294 167.583 174.653 167.254 175.124C166.926 175.596 166.749 176.159 166.749 176.735C166.749 177.312 166.926 177.874 167.254 178.347C167.583 178.818 168.048 179.176 168.586 179.372C169.124 179.568 169.709 179.591 170.261 179.439C170.813 179.288 171.305 178.968 171.669 178.524L174.989 180.425C174.792 180.985 174.778 181.595 174.947 182.165C175.117 182.734 175.461 183.235 175.932 183.594C176.402 183.953 176.974 184.152 177.564 184.162C178.154 184.171 178.732 183.992 179.214 183.648C179.696 183.305 180.057 182.816 180.245 182.252C180.432 181.688 180.437 181.078 180.259 180.511C180.08 179.944 179.727 179.449 179.251 179.098C178.774 178.747 178.2 178.557 177.61 178.557ZM177.61 170.288C177.967 170.288 178.316 170.394 178.614 170.595C178.911 170.795 179.143 171.079 179.28 171.413C179.417 171.746 179.453 172.112 179.383 172.466C179.313 172.819 179.141 173.144 178.888 173.399C178.635 173.654 178.313 173.827 177.962 173.898C177.612 173.968 177.248 173.932 176.918 173.794C176.587 173.656 176.305 173.422 176.107 173.122C175.908 172.822 175.802 172.47 175.802 172.11C175.803 171.627 175.993 171.164 176.332 170.822C176.671 170.48 177.13 170.288 177.61 170.288ZM169.531 178.557C169.174 178.557 168.824 178.451 168.527 178.251C168.23 178.05 167.998 177.766 167.861 177.433C167.724 177.1 167.689 176.734 167.758 176.38C167.828 176.027 168 175.702 168.253 175.447C168.506 175.192 168.828 175.019 169.178 174.948C169.529 174.878 169.892 174.914 170.223 175.052C170.553 175.19 170.835 175.423 171.034 175.723C171.232 176.023 171.338 176.375 171.338 176.735C171.337 177.218 171.147 177.682 170.808 178.023C170.47 178.365 170.01 178.557 169.531 178.557ZM177.61 183.183C177.252 183.183 176.903 183.076 176.605 182.876C176.308 182.676 176.076 182.391 175.939 182.058C175.802 181.725 175.767 181.359 175.836 181.005C175.906 180.651 176.078 180.327 176.331 180.072C176.584 179.817 176.906 179.643 177.256 179.573C177.607 179.503 177.97 179.539 178.301 179.677C178.631 179.815 178.913 180.048 179.112 180.348C179.31 180.648 179.416 181 179.416 181.361C179.416 181.844 179.225 182.307 178.886 182.649C178.548 182.99 178.088 183.182 177.61 183.183Z" fill="white"/>
<defs>
<linearGradient id="paint0_linear_310_3307" x1="115.133" y1="46.1684" x2="72.258" y2="434.75" gradientUnits="userSpaceOnUse">
<stop stop-color="white"/>
<stop offset="1" stop-color="#5F5F5F"/>
</linearGradient>
</defs>
</svg>
