<svg width="16" height="16" viewBox="0 0 16 16" fill="none" xmlns="http://www.w3.org/2000/svg">
<g clip-path="url(#clip0_345_6511)">
<path d="M15.7329 10.4509L11.2019 8L15.7329 5.54906C15.9883 5.41094 16.0756 5.10531 15.9283 4.86594L14.8609 3.13375C14.7136 2.89469 14.3873 2.8125 14.1319 2.95062L9.60092 5.40156V0.5C9.60092 0.22375 9.36192 0 9.06726 0H6.93259C6.63792 0 6.39892 0.22375 6.39892 0.5V5.40188L1.86792 2.95094C1.61259 2.81281 1.28626 2.895 1.13892 3.13406L0.0715905 4.86594C-0.0757429 5.105 0.0115905 5.41094 0.266924 5.54906L4.79792 8L0.266924 10.4509C0.0115905 10.5891 -0.0757429 10.895 0.0715905 11.1341L1.13892 12.8663C1.28626 13.1053 1.61259 13.1872 1.86792 13.0494L6.39892 10.5984V15.5C6.39892 15.7762 6.63792 16 6.93259 16H9.06726C9.36192 16 9.60092 15.7762 9.60092 15.5V10.5981L14.1319 13.0491C14.3873 13.1872 14.7136 13.1053 14.8609 12.8659L15.9283 11.1337C16.0756 10.8947 15.9883 10.5891 15.7329 10.4509Z" fill="#FF926F"/>
</g>
<defs>
<clipPath id="clip0_345_6511">
<rect width="16" height="16" fill="white"/>
</clipPath>
</defs>
</svg>
