<svg width="504" height="304" viewBox="0 0 504 304" fill="none" xmlns="http://www.w3.org/2000/svg">
<path d="M372.807 275.633L352.864 302.292C352.394 302.921 351.696 303.335 350.922 303.445C350.148 303.555 349.362 303.352 348.738 302.879L346.887 301.479L370.372 270.083L372.223 271.483C372.848 271.956 373.26 272.658 373.37 273.436C373.479 274.215 373.277 275.005 372.807 275.633Z" fill="#9A9A9A"/>
<path d="M353.991 260.019L361.182 265.895L353.876 277.229L345.771 271.007L353.991 260.019Z" fill="#FFCCB3"/>
<path d="M357.186 262.884L348.23 272.708L346.051 270.979L354.438 260.616L357.186 262.884Z" fill="#FCBA9F"/>
<path d="M360.218 265.162C360.218 265.162 358.198 272.302 351.547 275.96L345.538 299.58C345.729 300.936 347.235 301.807 348.237 302.129C348.457 302.199 348.693 302.198 348.913 302.127C349.132 302.055 349.324 301.917 349.462 301.731L370.78 273.232C371.136 272.756 371.293 272.16 371.216 271.57C371.139 270.98 370.835 270.443 370.369 270.076C368.505 268.608 365.647 266.394 364.409 265.634C362.496 264.46 361.132 264.188 360.218 265.162Z" fill="#64E2C2"/>
<path d="M350.16 280.86L353.579 280.123C353.704 280.096 353.833 280.1 353.956 280.136C354.079 280.171 354.191 280.236 354.283 280.325C354.375 280.414 354.444 280.525 354.483 280.647C354.523 280.769 354.531 280.899 354.509 281.025C354.482 281.18 354.409 281.324 354.3 281.436C354.19 281.549 354.05 281.626 353.896 281.657L349.699 282.509L350.16 280.86Z" fill="white"/>
<path d="M349.35 284.606L352.751 283.86C352.876 283.833 353.006 283.838 353.128 283.873C353.251 283.908 353.363 283.973 353.455 284.062C353.547 284.151 353.616 284.262 353.656 284.384C353.695 284.506 353.704 284.636 353.682 284.763C353.655 284.917 353.581 285.061 353.472 285.173C353.363 285.286 353.222 285.363 353.069 285.394L348.93 286.258L349.35 284.606Z" fill="white"/>
<path d="M348.314 288.677L351.676 287.922C351.801 287.895 351.931 287.899 352.054 287.934C352.176 287.97 352.288 288.034 352.38 288.124C352.473 288.213 352.541 288.323 352.581 288.446C352.62 288.568 352.629 288.698 352.607 288.824C352.58 288.979 352.506 289.122 352.397 289.235C352.288 289.348 352.147 289.425 351.994 289.456L347.904 290.286L348.314 288.677Z" fill="white"/>
<path d="M285.641 228.946L342.559 275.059L355.544 259.842L305.777 212.893L285.641 228.946Z" fill="#383838"/>
<path d="M316.173 222.699V253.682L342.562 275.061L346.352 251.169L316.173 222.699Z" fill="#212121"/>
<path d="M290.695 144.176L281.339 219.199H307.497L330.221 144.552L290.695 144.176Z" fill="#383838"/>
<path d="M313.154 200.61L317.548 163.392H328.35L313.154 200.61Z" fill="#212121"/>
<path d="M336.636 303.991H303.461C302.679 303.991 301.929 303.678 301.376 303.123C300.824 302.567 300.514 301.813 300.514 301.027V298.698H339.583V301.027C339.583 301.813 339.272 302.567 338.719 303.123C338.167 303.678 337.417 303.991 336.636 303.991Z" fill="#9A9A9A"/>
<path d="M337.737 279.491L337.389 288.802L323.99 289.746L324.062 279.491H337.737Z" fill="#FFCCB3"/>
<path d="M337.378 283.781L324.188 282.489L324.251 279.698L337.529 280.209L337.378 283.781Z" fill="#FCBA9F"/>
<path d="M337.386 287.592C337.386 287.592 330.498 290.261 323.592 287.114L301.209 296.484C300.246 297.453 300.46 299.187 300.805 300.186C300.882 300.404 301.025 300.593 301.213 300.727C301.402 300.861 301.627 300.932 301.858 300.931H337.322C337.914 300.931 338.482 300.698 338.905 300.281C339.328 299.865 339.571 299.298 339.583 298.703C339.629 296.322 339.671 292.695 339.53 291.243C339.314 288.999 338.71 287.74 337.386 287.592Z" fill="#64E2C2"/>
<path d="M318.868 288.942L321.51 291.247C321.606 291.331 321.681 291.438 321.726 291.558C321.772 291.677 321.788 291.806 321.772 291.934C321.757 292.062 321.71 292.183 321.637 292.288C321.564 292.394 321.466 292.479 321.352 292.537C321.212 292.608 321.055 292.636 320.899 292.615C320.744 292.595 320.598 292.528 320.481 292.424L317.281 289.563L318.868 288.942Z" fill="white"/>
<path d="M315.405 290.544L318.043 292.829C318.139 292.913 318.213 293.02 318.259 293.14C318.305 293.26 318.321 293.389 318.305 293.516C318.29 293.644 318.243 293.766 318.17 293.871C318.096 293.976 317.999 294.061 317.885 294.119C317.745 294.191 317.587 294.218 317.432 294.198C317.277 294.178 317.131 294.111 317.015 294.007L313.84 291.199L315.405 290.544Z" fill="white"/>
<path d="M311.543 292.155L314.165 294.403C314.261 294.488 314.335 294.594 314.381 294.714C314.427 294.834 314.443 294.963 314.427 295.091C314.412 295.218 314.365 295.34 314.292 295.445C314.219 295.55 314.121 295.636 314.007 295.694C313.867 295.765 313.71 295.792 313.554 295.772C313.399 295.752 313.253 295.685 313.137 295.581L310.019 292.793L311.543 292.155Z" fill="white"/>
<path d="M346.09 144.55C345.875 148.355 345.875 152.168 346.09 155.973C346.959 168.271 344.179 204.183 344.201 208.909C344.224 213.634 341.128 280.193 341.128 280.193H322.321C322.321 280.193 317.514 222.992 317.403 216.445C317.292 209.899 316.173 144.819 316.173 144.819L346.09 144.55Z" fill="#383838"/>
<path d="M290.132 148.716L346.094 155.973V144.55L290.422 146.391L290.132 148.716Z" fill="#212121"/>
<path d="M294.418 232.345C301.642 232.345 307.497 226.457 307.497 219.193C307.497 211.93 301.642 206.041 294.418 206.041C287.194 206.041 281.339 211.93 281.339 219.193C281.339 226.457 287.194 232.345 294.418 232.345Z" fill="#383838"/>
<path d="M333.348 152.837C333.348 152.837 330.835 157.613 330.222 158.162C329.61 158.71 319.507 159.963 317.55 160.667C315.594 161.372 314.659 162.437 314.659 163.392H338.409C338.409 163.392 339.023 162.816 339.466 160.981C339.909 159.144 340.683 158.366 340.683 158.366L333.348 152.837Z" fill="#FCBA9F"/>
<path d="M299.214 77.5875C300.776 69.8335 297.103 70.0333 295.881 68.8005C295.881 68.8005 291.295 64.9977 287.801 68.5425C284.102 72.292 262.9 101.418 262.9 101.418L276.166 113.687L278.66 110.695L285.119 102.949L292.028 94.669L292.886 93.7266L302.206 83.1113C302.206 83.1113 298.331 81.6693 299.214 77.5875Z" fill="#64E2C2"/>
<path d="M304.761 78.9052C306.55 73.5365 303.671 67.7262 298.332 65.9281C292.993 64.1299 287.215 67.0244 285.427 72.3931C283.639 77.7623 286.517 83.5721 291.856 85.3703C297.196 87.1688 302.973 84.274 304.761 78.9052Z" fill="#64E2C2"/>
<path d="M292.759 93.6864C293.026 92.0655 293.561 88.8244 294.137 85.8706L297.198 71.5732C297.198 71.5732 288.977 83.7904 285.191 92.3005C282.386 98.6777 279.132 105.178 278.594 110.676L285.053 102.929L291.962 94.6493L292.759 93.6864Z" fill="#45C5A4"/>
<path d="M249.645 68.6265C246.493 62.8451 248.008 61.8635 246.667 58.5739C245.346 55.3641 247.692 47.4067 245.446 48.4915C243.2 49.5768 242.506 52.4601 242.506 52.4601C240.97 49.7283 239.555 44.7014 235.879 44.1261C232.202 43.5509 231.876 44.7144 229.792 46.4343C224.248 51.0727 231.318 58.0441 232.498 60.6988C233.257 62.3628 238.835 67.4356 239.454 68.5446L242.261 72.6398L249.645 68.6265Z" fill="#FFCCB3"/>
<path d="M238.818 52.8192L234.338 44.501Z" fill="#E56441"/>
<path d="M238.818 52.8192L234.338 44.501" stroke="#E56441" stroke-width="1.07832" stroke-linecap="round"/>
<path d="M235.879 54.1664L230.996 46.4199Z" fill="#E56441"/>
<path d="M235.879 54.1664L230.996 46.4199" stroke="#E56441" stroke-width="1.07832" stroke-linecap="round"/>
<path d="M232.388 55.6533L229.598 50.9619Z" fill="#E56441"/>
<path d="M232.388 55.6533L229.598 50.9619" stroke="#E56441" stroke-width="1.07832" stroke-linecap="round"/>
<path d="M239.921 60.1417C239.944 57.2615 241.663 53.7764 241.663 53.7764Z" fill="#E56441"/>
<path d="M239.921 60.1417C239.944 57.2615 241.663 53.7764 241.663 53.7764" stroke="#E56441" stroke-width="1.07832" stroke-linecap="round"/>
<path d="M276.277 101.189L249.301 65.0644C249.129 64.8523 248.885 64.7115 248.616 64.6695C248.347 64.6272 248.072 64.6869 247.844 64.8365L240.78 69.5342C240.444 69.7629 240.205 70.1087 240.109 70.5047C240.013 70.9008 240.067 71.3189 240.26 71.6774L261.953 111.907L276.277 101.189Z" fill="#64E2C2"/>
<path d="M269.717 116.447C274.706 116.447 278.751 112.38 278.751 107.363C278.751 102.346 274.706 98.2793 269.717 98.2793C264.728 98.2793 260.684 102.346 260.684 107.363C260.684 112.38 264.728 116.447 269.717 116.447Z" fill="#64E2C2"/>
<path d="M307.47 60.6367C307.47 60.6367 294.299 64.8494 291.7 65.9426C289.102 67.0357 288.928 71.4082 288.755 74.5052C288.634 76.6753 291.07 112.308 291.23 132.945C291.264 137.354 290.446 140.151 289.922 142.602C289.396 145.053 289.922 146.386 289.922 146.386L346.357 146.894C346.357 146.894 344.665 75.1905 344.318 72.6402C343.972 70.0896 346.694 67.893 343.743 66.6092L322.193 60.6367H307.47Z" fill="white"/>
<path d="M300.386 62.9365C300.386 62.9365 302.536 72.8273 303.945 80.7432C305.354 88.659 305.783 154.19 305.783 154.19C305.783 154.19 289.292 150.966 287.058 147.157C284.824 143.347 289.127 126.23 289.462 110.677C289.797 95.124 286.541 70.9877 289.959 66.8007C289.959 66.8007 290.836 65.9271 300.386 62.9365Z" fill="#64E2C2"/>
<path d="M328.102 62.2979C328.102 62.2979 320.277 78.6913 320.756 83.6878C321.234 88.6842 321.261 131.294 320.756 140.19C320.441 145.602 319.622 150.973 318.307 156.23C318.307 156.23 339.652 157.75 347.901 155.154C347.901 155.154 351.816 130.365 349.246 121.509C346.676 112.654 344.713 66.63 344.713 66.63L328.102 62.2979Z" fill="#64E2C2"/>
<path d="M333.871 84.3289C333.871 84.3289 334.672 114.039 334.506 123.942C334.402 130.113 327.385 132.727 327.364 136.3C327.352 138.414 332.905 135.939 334.402 138.124C335.898 140.309 333.339 147.155 333.339 147.155L346.349 146.892L351.56 121.465L340.581 82.7998L333.871 84.3289Z" fill="#45C5A4"/>
<path d="M307.741 54.011L306.519 67.8569C306.519 67.8569 306.193 70.0076 309.908 70.6881C312.857 71.2281 318.987 67.743 320.37 66.5949C323.445 64.043 323.73 62.4989 323.405 61.3163C322.939 59.6218 321.417 47.6816 321.417 47.6816L307.741 54.011Z" fill="#FFCCB3"/>
<path d="M306.933 65.3434L307.685 56.8092L314.241 53.5527L306.933 65.3434Z" fill="#FCBA9F"/>
<path d="M300.451 27.8082C300.451 27.8082 297.939 39.1205 297.605 46.8247C297.268 54.5977 300.03 56.0778 303.455 56.6582C306.156 57.1159 310.357 57.1491 312.999 55.8226C317.817 53.4033 325.726 47.5321 326.761 46.3927C328.364 44.6289 328.254 36.7626 322.133 34.8172C317.68 33.402 306.328 21.3886 300.451 27.8082Z" fill="#FFCCB3"/>
<path d="M300.477 29.0124C304.129 30.4521 311.004 29.5062 314.779 30.7386C318.55 31.9745 315.119 33.2789 315.283 36.9417C315.389 39.3143 315.569 43.8483 317.016 43.7881C318.465 43.7284 319.317 38.5792 322.371 38.7754C325.424 38.9756 326.863 40.2868 326.797 42.2507C326.73 44.2103 324.536 45.9182 322.806 46.825C320.639 47.9533 319.745 47.4806 319.745 47.4806C319.745 47.4806 322.183 56.5085 322.551 56.1509C322.551 56.1509 325.182 54.6585 325.656 52.045C325.656 52.045 329.147 51.2846 328.374 47.7741C328.374 47.7741 330.548 47.0727 329.516 45.0403C329.516 45.0403 335.134 41.2414 332.206 36.5927C332.206 36.5927 334.872 33.9198 331.688 32.7899C331.688 32.7899 335.904 26.5935 329.906 25.2721C329.906 25.2721 330.308 22.3555 327.562 22.4667C327.562 22.4667 326.362 17.45 320.369 19.4286C320.341 18.4241 320.011 17.4516 319.423 16.639C318.835 15.8264 318.017 15.2111 317.075 14.8745C313.681 13.5004 311.473 15.3916 311.473 15.3916C311.473 15.3916 307.911 12.4702 306.035 16.7533C306.035 16.7533 303.341 15.3686 301.322 16.84C299.299 18.3066 300.282 21.381 300.282 21.381C300.282 21.381 297.971 20.8363 297.127 22.7614C295.936 25.4703 297.609 26.4574 297.609 26.4574C297.609 26.4574 293.846 30.9312 299.138 35.1689L300.477 29.0124Z" fill="#493212"/>
<path d="M309.662 40.1844C309.861 39.2693 309.539 38.4215 308.943 38.2905C308.347 38.1596 307.703 38.7954 307.504 39.7101C307.305 40.6248 307.627 41.4726 308.223 41.6036C308.819 41.7345 309.463 41.0991 309.662 40.1844Z" fill="#080B09"/>
<path d="M301.466 38.3237C301.665 37.409 301.342 36.5611 300.747 36.4302C300.151 36.2992 299.507 36.9346 299.308 37.8497C299.109 38.7644 299.431 39.6123 300.027 39.7432C300.623 39.8742 301.267 39.2388 301.466 38.3237Z" fill="#080B09"/>
<path d="M303.083 40.7568C303.083 40.7568 304.101 42.7295 302.63 42.7595C301.224 42.7397 300.405 43.5694 301.823 44.7717" fill="#E56441"/>
<path d="M303.083 40.7568C303.083 40.7568 304.101 42.7295 302.63 42.7595C301.224 42.7397 300.405 43.5694 301.823 44.7717" stroke="#E56441" stroke-width="1.07832" stroke-linecap="round"/>
<path d="M302.045 46.5952L302.051 46.5959L302.058 46.5963C302.93 46.6596 304.671 46.7855 305.828 46.8887H305.83C305.864 46.8915 305.897 46.9034 305.924 46.9231C305.952 46.9433 305.973 46.9702 305.987 47.0019C306 47.0331 306.004 47.0675 306 47.1012C305.995 47.1336 305.982 47.1645 305.961 47.1902C305.707 47.4723 305.372 47.8078 304.999 48.097C304.623 48.3893 304.221 48.6244 303.835 48.7181C303.456 48.8095 303.1 48.7648 302.78 48.5073C302.451 48.2418 302.137 47.7298 301.902 46.8298L301.898 46.8143L301.892 46.7997C301.881 46.776 301.877 46.7498 301.88 46.7237C301.883 46.6976 301.893 46.6731 301.908 46.6521C301.924 46.6312 301.945 46.6149 301.969 46.605C301.993 46.5948 302.019 46.5916 302.045 46.5952Z" fill="#E56441" stroke="#E56441"/>
<path d="M312.527 37.17L312.445 37.3358C312.347 37.5878 312.154 37.7903 311.908 37.8999C311.662 38.0091 311.383 38.0162 311.132 37.9193L306.858 36.1405C306.648 36.063 306.474 35.9087 306.371 35.7085C306.268 35.5083 306.244 35.2765 306.303 35.0593C306.333 34.9244 306.391 34.7974 306.474 34.687C306.556 34.5762 306.661 34.4848 306.781 34.418C306.901 34.3511 307.034 34.3104 307.171 34.2993C307.308 34.2878 307.445 34.3056 307.575 34.3519L311.931 35.9653C312.05 36.0029 312.16 36.0646 312.255 36.1461C312.35 36.228 312.427 36.3281 312.483 36.4404C312.539 36.5528 312.571 36.6754 312.579 36.8009C312.586 36.9263 312.568 37.0517 312.527 37.17Z" fill="#080B09"/>
<path d="M298.1 33.1662L302.731 32.852C302.868 32.8445 303.005 32.8663 303.133 32.9161C303.261 32.966 303.378 33.0423 303.474 33.1404C303.571 33.2386 303.646 33.3565 303.694 33.4858C303.742 33.6152 303.762 33.7533 303.753 33.8914C303.749 34.1165 303.661 34.3321 303.506 34.4951C303.351 34.6581 303.141 34.7566 302.918 34.7716L298.319 35.2674C298.051 35.2891 297.785 35.2037 297.579 35.0288C297.374 34.8543 297.245 34.6051 297.222 34.3357L297.19 34.1537C297.183 34.0283 297.201 33.9024 297.244 33.7845C297.286 33.6662 297.352 33.5578 297.437 33.4657C297.522 33.3735 297.624 33.2995 297.738 33.2481C297.852 33.1966 297.975 33.1689 298.1 33.1662Z" fill="#080B09"/>
<path d="M345.134 73.7596C339.321 68.4284 337.605 71.6999 335.925 72.1213C335.925 72.1213 330.324 74.1236 331.553 78.9594C332.852 84.0765 346.808 117.332 346.808 117.332L364.419 113.14L362.82 108.502L359.529 98.9499L356.015 88.7359L355.652 87.511L351.384 74.0167C351.384 74.0167 348.163 76.6188 345.134 73.7596Z" fill="#64E2C2"/>
<path d="M347.995 84.0985C352.272 80.4164 352.772 73.9446 349.11 69.6437C345.448 65.3424 339.012 64.8407 334.735 68.5228C330.458 72.205 329.959 78.6768 333.621 82.9777C337.282 87.279 343.718 87.7807 347.995 84.0985Z" fill="#64E2C2"/>
<path d="M346.675 112.653L331.1 155.027C331.016 155.288 331.03 155.57 331.141 155.82C331.251 156.07 331.45 156.27 331.699 156.382L339.453 159.806C339.826 159.966 340.245 159.981 340.627 159.847C341.011 159.714 341.331 159.442 341.526 159.084L363.395 118.951L346.675 112.653Z" fill="#64E2C2"/>
<path d="M355.382 123.937C360.372 123.937 364.416 119.87 364.416 114.853C364.416 109.836 360.372 105.77 355.382 105.77C350.393 105.77 346.349 109.836 346.349 114.853C346.349 119.87 350.393 123.937 355.382 123.937Z" fill="#64E2C2"/>
<path d="M84.0002 24.6836C89.203 24.6836 93.4207 20.4428 93.4207 15.2109C93.4207 9.97947 89.203 5.73828 84.0002 5.73828C78.7977 5.73828 74.5801 9.97947 74.5801 15.2109C74.5801 20.4428 78.7977 24.6836 84.0002 24.6836Z" fill="#262626"/>
<path d="M75.1539 12.7342C78.6508 12.7342 81.4855 9.88371 81.4855 6.36692C81.4855 2.85054 78.6508 0 75.1539 0C71.657 0 68.8223 2.85054 68.8223 6.36692C68.8223 9.88371 71.657 12.7342 75.1539 12.7342Z" fill="#262626"/>
<path d="M9.45341 255.072C9.54862 255.082 9.59111 255.136 9.53839 255.178C9.58049 255.231 9.58049 255.231 9.57026 255.327C9.77052 255.985 9.91215 256.66 9.9932 257.343L1.85215 263.922L0.951172 262.903C0.951172 262.903 3.95548 259.166 5.08386 258.079C5.56897 257.6 6.00176 257.163 6.43415 256.726C6.81382 256.332 7.151 255.885 7.47795 255.534C7.9308 254.905 9.25275 255.147 9.26298 255.051C9.3157 255.008 9.45341 255.072 9.45341 255.072Z" fill="#3E3E3E"/>
<path d="M71.0045 197.912L63.1463 205.572L19.1948 248.252L18.3926 248.988L18.0452 249.53L17.9924 249.573L11.7666 259.058L11.0711 260.144L10.8397 260.506L6.62598 266.967L10.0969 268.703L11.1021 269.2L12.5197 269.887L14.7529 271.052L14.7954 271.105L17.1658 272.332L17.2815 272.151L22.6917 261.754C23.7418 259.746 25.2128 257.991 27.0038 256.611L74.7949 219.821L83.8806 212.828L71.0045 197.912Z" fill="#FFCCB3"/>
<path d="M12.3733 249.917C14.4798 248.933 16.8443 248.054 19.1558 248.191C17.7622 249.418 17.1276 251.602 16.207 253.193C14.3125 256.47 9.45593 262.559 11.9374 267.733C13.3313 270.641 17.2323 272.186 17.285 272.143C17.9377 275.129 21.173 287.284 14.7241 280.238C11.1225 276.303 7.54971 272.1 5.75366 267.928C5.01714 266.217 6.57477 264.511 7.33922 263.067C8.31692 260.881 9.78012 257.987 9.5952 255.568L9.55271 255.515C9.44688 255.347 1.09651 262.865 0.954482 262.901C0.668058 262.433 0 261.489 0 261.489C0 261.489 11.972 250.067 12.3733 249.917Z" fill="#FF926F"/>
<path d="M102.298 289.68C102.373 289.62 102.44 289.628 102.433 289.696C102.499 289.704 102.499 289.704 102.558 289.78C103.159 290.109 103.729 290.492 104.262 290.923L103.019 301.351L101.667 301.257C101.667 301.257 101.215 296.473 101.266 294.902C101.28 294.218 101.285 293.602 101.29 292.986C101.288 292.437 101.218 291.88 101.207 291.399C101.094 290.631 102.206 289.874 102.147 289.799C102.155 289.731 102.298 289.68 102.298 289.68Z" fill="#3E3E3E"/>
<path d="M106.548 205.536L106.258 216.538L104.521 277.953L104.459 279.043L104.588 279.675L104.58 279.743L106.726 290.901L106.984 292.166L107.07 292.587L108.551 300.169L112.239 298.969L113.304 298.618L114.795 298.112L117.201 297.374L117.268 297.382L119.817 296.593L119.774 296.382L116.411 285.145C115.764 282.972 115.595 280.683 115.916 278.437L124.494 218.531L126.125 207.144L106.548 205.536Z" fill="#FFCCB3"/>
<path d="M100.807 283.951C101.628 281.766 102.707 279.474 104.454 277.947C104.311 279.804 105.376 281.812 105.825 283.597C106.75 287.271 107.512 295.039 112.884 296.993C115.903 298.091 119.766 296.452 119.774 296.384C122.317 298.06 133.082 304.473 123.573 303.972C118.262 303.691 112.785 303.199 108.6 301.48C106.884 300.775 106.811 298.46 106.353 296.89C105.532 294.64 104.565 291.543 102.75 289.943L102.683 289.935C102.491 289.89 101.75 301.136 101.673 301.261C101.143 301.129 100.009 300.923 100.009 300.923C100.009 300.923 100.624 284.34 100.807 283.951Z" fill="#FF926F"/>
<path d="M118.418 122.835C118.418 122.835 132.085 195.483 133.12 203.272C134.155 211.061 134.844 265.296 134.844 265.296L89.1358 262.381L99.608 198.92L98.3344 170.82C98.3344 170.82 96.7272 198.606 95.6043 203.272C94.481 207.939 55.1115 256.28 55.1115 256.28L33.9814 230.835L67.5721 185.737C67.5721 185.737 71.0316 163.864 71.5919 152.086C72.6719 129.384 76.2038 123.431 76.2038 123.431L118.418 122.835Z" fill="#5D5D5D"/>
<path d="M118.386 122.993L76.1981 123.429L73.8193 131.961L119.099 126.021L118.386 122.993Z" fill="#383838"/>
<path d="M163.844 71.2677L167.055 67.1341C167.727 66.1664 168.621 65.3755 169.662 64.8284C171.242 64.0332 173.665 62.5487 174.507 61.0651C175.902 58.7071 181.401 52.3379 176.631 47.3869C174.866 45.5599 175.307 45.9923 171.777 46.0473C168.247 46.1015 167.706 49.7844 165.942 52.1954C165.942 52.1954 165.545 49.4145 163.596 48.1441C161.646 46.8738 162.94 54.6337 161.44 57.5748C159.94 60.5156 161.152 61.6273 157.599 66.7943L163.844 71.2677Z" fill="#FFCCB3"/>
<path d="M172.31 46.4697L169.443 53.0139L172.31 46.4697Z" fill="#E56441"/>
<path d="M172.31 46.4697L169.443 53.0139" stroke="#E56441" stroke-width="1.03302" stroke-linecap="round"/>
<path d="M176.048 47.6406L172.074 54.6085L176.048 47.6406Z" fill="#E56441"/>
<path d="M176.048 47.6406L172.074 54.6085" stroke="#E56441" stroke-width="1.03302" stroke-linecap="round"/>
<path d="M178.399 52.2168L175.267 56.3769L178.399 52.2168Z" fill="#E56441"/>
<path d="M178.399 52.2168L175.267 56.3769" stroke="#E56441" stroke-width="1.03302" stroke-linecap="round"/>
<path d="M166.682 53.6787C166.682 53.6787 167.895 57.1745 167.685 59.9293L166.682 53.6787Z" fill="#E56441"/>
<path d="M166.682 53.6787C166.682 53.6787 167.895 57.1745 167.685 59.9293" stroke="#E56441" stroke-width="1.03302" stroke-linecap="round"/>
<path d="M114.104 60.1797C117.401 61.329 121.997 63.6597 123.241 66.2606L134.23 91.4355L157.599 64.4921L165.712 71.2661L142.371 106.36C137.422 113.772 130.167 114.793 125.566 108.689L116.384 94.1863L114.104 60.1797Z" fill="#FF926F"/>
<path d="M118.787 81.8535C118.787 81.8535 119.778 80.1349 119.778 89.1067L125.563 108.692L116.381 94.189C109.014 84.2297 114.834 81.5695 118.787 81.8535Z" fill="#FF967C"/>
<path d="M106.367 56.8756C106.367 56.8756 114.871 60.2595 116.17 61.3039C117.469 62.3488 118.702 70.8739 120.909 74.9216C123.116 78.9693 126.346 86.4405 121.629 93.3027C116.912 100.165 117.414 105.615 117.414 105.615L118.418 122.829L77.7686 123.583C77.4105 123.594 77.0545 123.529 76.7236 123.391C76.3923 123.254 76.0941 123.047 75.8486 122.785C75.6027 122.523 75.415 122.212 75.2981 121.871C75.1809 121.531 75.1372 121.17 75.1695 120.811C75.6212 115.792 77.6844 108.744 77.8465 100.752C78.0664 89.9205 79.8912 53.6773 79.8912 53.6773L95.9384 53.1709C99.5053 53.7893 106.367 56.8756 106.367 56.8756Z" fill="white"/>
<path d="M117.591 108.696V108.695L117.497 107.083C117.471 106.079 117.479 104.842 117.513 103.456C117.792 101.246 118.714 97.5492 121.627 93.3112C126.343 86.4489 123.114 78.9778 120.906 74.93C118.699 70.8819 117.466 62.3572 116.168 61.3124C114.869 60.2679 110.766 58.7012 110.766 58.7012C110.766 58.7012 110.523 66.1371 110.278 72.9467C110.032 79.7568 108.472 138.039 108.472 138.039H125.564C125.564 138.039 118.149 113.733 117.591 108.696Z" fill="#FF926F"/>
<path d="M89.9774 53.3613C89.9774 53.3613 96.861 65.5484 99.6092 77.9293C102.357 90.3107 95.5587 132.002 96.466 137.392L64.6631 139.835C64.6631 139.835 76.0598 124.585 76.8963 110.248C77.7324 95.9117 79.1979 67.0221 79.1979 67.0221L80.7634 53.749L89.9774 53.3613Z" fill="#FF926F"/>
<path d="M85.1938 68.5264C85.1938 68.5264 87.6874 73.9359 88.036 77.9654C88.3842 81.9953 84.9526 91.5253 92.5653 92.6461C101.897 94.0198 99.8707 95.7895 95.5452 96.8407C91.2193 97.8918 86.2274 95.7709 85.8701 100.263C85.3106 107.299 80.4241 111.248 76.8887 110.249C79.2599 88.8429 76.4665 79.5076 85.1938 68.5264Z" fill="#E1684A"/>
<path d="M106.435 46.4291L108.256 59.769C108.256 59.769 109.403 62.5594 106.384 62.7553C103.365 62.9507 98.971 61.3021 96.283 59.117C93.5954 56.9319 93.7127 56.6985 94.3815 54.8398C95.05 52.9808 97.3343 39.3037 97.3343 39.3037L106.435 46.4291Z" fill="#FFCCB3"/>
<path d="M107.954 59.0305C106.344 56.7781 104.613 53.4675 103.239 50.6114C102.489 49.0499 101.847 47.6287 101.393 46.5981C101.166 46.0826 100.986 45.6652 100.863 45.3764C100.862 45.3756 100.862 45.3748 100.861 45.374L106.38 47.6877L107.954 59.0305Z" fill="#FCBA9F"/>
<path d="M111.595 20.7308C111.595 20.7308 116.363 34.3703 113.451 42.7506C111.552 48.2154 107.831 47.9167 99.088 43.5842C91.0712 39.6112 89.0325 36.7001 89.0325 36.7001L88.1543 22.9392C88.1543 22.9392 106.553 9.62657 111.595 20.7308Z" fill="#FFCCB3"/>
<path d="M104.167 22.5546C104.167 22.5546 103.394 26.0512 99.012 28.6767C96.6269 30.1057 96.2929 36.1122 96.2929 36.1122C96.2929 36.1122 95.7366 32.0055 92.5308 33.4615C89.3251 34.9174 94.2242 40.1366 97.0042 41.2669C97.0042 41.2669 96.6769 43.0239 95.9152 47.2077C95.9152 47.2077 85.6452 43.4682 84.4539 33.8563C83.8606 29.0699 82.0704 14.0098 95.5418 11.8607C110.279 9.50943 112.109 18.4092 114.103 25.4147C114.103 25.4147 108.3 28.5065 104.167 22.5546Z" fill="#262626"/>
<path d="M105.667 39.4358L110.038 39.2285C110.035 39.2435 110.031 39.259 110.027 39.2748C109.983 39.4493 109.908 39.6843 109.785 39.9268C109.54 40.4107 109.116 40.9088 108.377 41.0512C107.173 41.1695 106.49 40.7026 106.1 40.2204C105.901 39.9743 105.776 39.7195 105.7 39.526C105.688 39.494 105.676 39.4639 105.667 39.4358Z" fill="#E56441" stroke="#E56441"/>
<path d="M111.11 32.4314C111.599 32.3 111.839 31.6065 111.646 30.8825C111.454 30.1581 110.902 29.6774 110.413 29.8087C109.925 29.9401 109.685 30.6336 109.877 31.358C110.069 32.082 110.622 32.5627 111.11 32.4314Z" fill="#080B09"/>
<path d="M103.922 34.4734C104.41 34.342 104.65 33.6485 104.458 32.9241C104.265 32.2001 103.713 31.7194 103.225 31.8507C102.736 31.9821 102.496 32.6756 102.688 33.3996C102.881 34.124 103.433 34.6047 103.922 34.4734Z" fill="#080B09"/>
<path d="M111.705 27.6264L108.049 28.674C107.986 28.6867 107.92 28.6756 107.864 28.6427C107.807 28.6103 107.765 28.5581 107.744 28.4964C107.728 28.3804 107.735 28.2625 107.765 28.1494C107.795 28.0362 107.848 27.9302 107.92 27.8384C107.992 27.7462 108.082 27.6699 108.184 27.6133C108.286 27.5571 108.398 27.5223 108.514 27.5112L111.653 27.1864C111.893 27.1215 112.006 27.5453 111.705 27.6264Z" fill="#080B09"/>
<path d="M99.2058 30.7372L104.163 29.7291C104.119 29.5808 104.044 29.4435 103.943 29.326C103.843 29.2085 103.719 29.1131 103.58 29.0466C103.44 28.9802 103.289 28.9438 103.135 28.9398C102.981 28.9359 102.828 28.9643 102.685 29.0233L99.065 30.4507C98.9446 30.4828 99.0252 30.7854 99.2058 30.7372Z" fill="#080B09"/>
<path d="M107.668 31.5557L109.059 34.6756L108.588 36.109" fill="#E56441"/>
<path d="M107.668 31.5557L109.059 34.6756L108.588 36.109" stroke="#E56441" stroke-width="1.03302" stroke-linecap="round"/>
<path d="M83.5575 59.5394C83.5575 59.5394 74.3722 55.0916 72.6462 57.9485C69.0529 63.6567 63.254 83.5397 61.3254 88.1678C61.0134 89.0105 75.2421 91.3352 75.2421 91.3352L89.2305 67.3499L83.5575 59.5394Z" fill="#FF926F"/>
<path d="M80.5281 72.9418C85.7998 72.9418 90.0737 68.6441 90.0737 63.343C90.0737 58.0419 85.7998 53.7441 80.5281 53.7441C75.256 53.7441 70.9824 58.0419 70.9824 63.343C70.9824 68.6441 75.256 72.9418 80.5281 72.9418Z" fill="#FF926F"/>
<path d="M58.6064 95.6572L71.5223 100.662L75.2407 91.3294L75.8576 89.8568L62.5955 84.627L61.9688 86.3836L58.6064 95.6572Z" fill="#FF926F"/>
<path d="M64.9908 105.273C68.8178 105.273 71.92 102.153 71.92 98.3048C71.92 94.4565 68.8178 91.3369 64.9908 91.3369C61.1638 91.3369 58.0615 94.4565 58.0615 98.3048C58.0615 102.153 61.1638 105.273 64.9908 105.273Z" fill="#FF926F"/>
<path d="M106.212 100.274C106.212 100.274 113.381 102.725 117.424 101.004C117.424 101.004 123.968 103.883 124.899 103.393C126.421 102.531 125.214 101.05 125.214 101.05C125.214 101.05 129.451 102.246 130.03 98.2146C130.881 92.5654 123.214 91.3528 119.585 90.933C116.016 90.4325 106.212 93.1798 106.212 93.1798V100.274Z" fill="#FFCCB3"/>
<path d="M126.816 90.5599L119.216 90.8455L126.54 93.1837C126.54 93.1837 129.153 91.9525 127.935 90.9041C127.616 90.6572 127.218 90.5346 126.816 90.5599Z" fill="#FFCCB3"/>
<path d="M125.144 101.065L120.408 99.3662L125.144 101.065Z" fill="#93523E"/>
<path d="M125.144 101.065L120.408 99.3662" stroke="#E56441" stroke-width="1.03302" stroke-linecap="round"/>
<path d="M127.607 97.7755C127.607 97.7755 122.261 95.8037 121.102 95.6807L127.607 97.7755Z" fill="#93523E"/>
<path d="M127.607 97.7755C127.607 97.7755 122.261 95.8037 121.102 95.6807" stroke="#E56441" stroke-width="1.03302" stroke-linecap="round"/>
<path d="M128.224 95.0253C126.102 93.9784 123.834 93.2584 121.499 92.8896L128.224 95.0253Z" fill="#93523E"/>
<path d="M128.224 95.0253C126.102 93.9784 123.834 93.2584 121.499 92.8896" stroke="#E56441" stroke-width="1.03302" stroke-linecap="round"/>
<path d="M65.1592 91.3125C65.1592 91.3125 104.003 93.2013 106.924 92.6442L106.845 101.061L66.4406 105.061L65.1592 91.3125Z" fill="#FF926F"/>
<path d="M91.8693 53.3613C91.8693 53.3613 91.7017 81.6799 102.622 84.6254C113.542 87.5713 114.101 60.1805 114.101 60.1805" stroke="#FFE6DD" stroke-width="1.78858" stroke-miterlimit="10"/>
<path fill-rule="evenodd" clip-rule="evenodd" d="M377.977 198.803L431.766 196.832L437.477 287.008C437.988 294.637 434.323 301.237 429.635 301.237H380.023C375.334 301.237 371.669 294.637 372.181 287.008L377.977 198.803ZM435.516 287.094L429.89 198.889L379.767 200.689L374.141 287.094C373.885 291.294 374.994 295.494 377.125 297.723C377.479 298.156 377.92 298.51 378.42 298.761C378.919 299.012 379.465 299.155 380.023 299.18H429.635C430.192 299.155 430.739 299.013 431.238 298.761C431.737 298.51 432.178 298.156 432.533 297.723C434.578 295.494 435.772 291.294 435.516 287.094Z" fill="#4E6660"/>
<path fill-rule="evenodd" clip-rule="evenodd" d="M425.805 198.803L479.594 196.832L485.305 287.008C485.817 294.637 482.151 301.237 477.463 301.237H427.851C423.163 301.237 419.497 294.637 420.009 287.008L425.805 198.803ZM483.345 287.094L477.718 198.889L427.595 200.689L421.97 287.094C421.713 291.294 422.822 295.494 424.953 297.723C425.307 298.156 425.749 298.51 426.248 298.761C426.747 299.013 427.293 299.155 427.851 299.18H477.463C478.021 299.155 478.567 299.012 479.066 298.761C479.566 298.51 480.007 298.156 480.361 297.723C482.407 295.494 483.6 291.294 483.345 287.094Z" fill="#4E6660"/>
<path d="M370.651 192.806C370.605 194.168 370.778 195.528 371.162 196.835H451.291C479.336 196.835 478.739 183.892 481.467 166.062C484.706 144.547 498.004 95.0012 500.135 78.2002H492.293C490.077 78.286 487.945 78.3719 485.985 78.5432C473.539 79.5719 465.441 82.8295 461.605 93.4582C460.778 95.7651 460.179 98.148 459.815 100.573C456.064 123.289 451.206 145.747 447.37 167.091C447.114 168.376 446.858 169.576 446.603 170.691C442.425 189.206 434.157 192.635 422.479 192.635H370.651V192.806Z" fill="#64E2C2"/>
<path d="M371.165 196.835C372.188 199.921 374.831 202.492 381.65 202.492H461.949C489.994 202.492 489.398 189.549 492.125 171.72C495.194 151.318 502.014 98.2588 503.974 82.5719C504.037 82.026 503.984 81.4729 503.821 80.9487C503.657 80.424 503.385 79.9402 503.024 79.5279C502.662 79.1157 502.218 78.7845 501.721 78.5559C501.224 78.3272 500.685 78.2061 500.138 78.2002H500.053C498.14 78.2045 496.294 78.9131 494.865 80.1926C493.435 81.4717 492.522 83.233 492.296 85.1436C489.653 105.887 484.368 147.032 481.47 166.148C478.742 183.977 479.339 196.921 451.294 196.921H372.188C371.852 196.85 371.508 196.821 371.165 196.835Z" fill="#45C5A4"/>
<path d="M399.967 171.313C399.967 171.313 387.56 160.423 377.473 169.677C367.385 178.932 325.71 242.484 325.71 242.484L338.315 251.249L385.589 197.789L393.818 211.108L399.967 171.313Z" fill="#FCBA9F"/>
<path fill-rule="evenodd" clip-rule="evenodd" d="M391.526 292.916C396.722 289.097 402.079 285.161 407.719 283.89C407.846 283.861 407.978 283.86 408.106 283.887C408.233 283.914 408.353 283.969 408.457 284.047C408.562 284.125 408.648 284.226 408.71 284.341C408.772 284.456 408.808 284.584 408.817 284.715L409.434 295.238C409.447 295.455 409.382 295.668 409.249 295.841C409.118 296.012 408.928 296.13 408.716 296.172L370.077 303.852C367.228 304.418 365.401 303.172 364.524 300.96C364.496 300.883 364.489 300.8 364.507 300.72C364.524 300.641 364.563 300.568 364.621 300.51C364.678 300.452 364.751 300.412 364.83 300.395C364.91 300.377 364.992 300.384 365.068 300.412C370.143 302.287 375.748 302.091 380.681 299.864C384.245 298.266 387.845 295.621 391.526 292.916Z" fill="#9A9A9A"/>
<path fill-rule="evenodd" clip-rule="evenodd" d="M403.378 258.443C403.378 258.443 404.109 275.052 404.495 276.742C404.761 277.665 405.093 278.568 405.49 279.442C406.152 281.03 406.89 282.798 406.957 284.084C401.594 285.521 396.484 289.275 391.521 292.921C387.84 295.626 384.24 298.27 380.676 299.868C375.98 301.987 370.669 302.272 365.776 300.668C365.104 297.797 367.054 294.618 371.974 293.187C380.792 290.621 385.611 288.994 388.685 281.577C390.871 276.307 387.211 257.959 387.211 257.959L403.378 258.443Z" fill="#FFCCB3"/>
<path fill-rule="evenodd" clip-rule="evenodd" d="M389.073 278.771C390.807 278.664 397.696 278.208 404.292 277.34C405.574 277.172 406.718 279.593 406.171 281.133C405.812 282.257 405.545 283.409 405.371 284.576C403.219 285.368 401.154 286.381 399.209 287.599C399.608 284.855 397.944 283.64 395.471 283.765C393.518 283.864 389.106 285.112 386.831 285.789C386.706 285.826 386.573 285.826 386.448 285.789C386.322 285.753 386.21 285.681 386.125 285.583C386.038 285.484 385.983 285.363 385.963 285.234C385.943 285.104 385.961 284.972 386.014 284.852L388.491 279.181C388.541 279.065 388.622 278.966 388.724 278.893C388.828 278.821 388.948 278.779 389.073 278.771Z" fill="white"/>
<path fill-rule="evenodd" clip-rule="evenodd" d="M370.831 301.642C375.32 301.996 378.035 300.822 378.035 300.822L376.229 291.633L369.205 293.371L370.831 301.642Z" fill="white"/>
<path fill-rule="evenodd" clip-rule="evenodd" d="M314.538 259.74C320.957 260.221 327.573 260.717 332.686 263.427C332.802 263.488 332.903 263.573 332.982 263.677C333.062 263.78 333.118 263.9 333.147 264.028C333.176 264.156 333.177 264.288 333.15 264.417C333.122 264.545 333.068 264.665 332.99 264.77L326.675 273.185C326.545 273.358 326.357 273.478 326.146 273.522C325.934 273.567 325.714 273.534 325.526 273.428L291.158 254.081C288.624 252.654 288.035 250.514 288.795 248.259C288.823 248.182 288.872 248.115 288.936 248.065C289.001 248.015 289.078 247.986 289.159 247.979C289.24 247.973 289.321 247.989 289.392 248.028C289.464 248.067 289.523 248.125 289.562 248.196C292.217 252.933 296.61 256.437 301.802 257.959C305.545 259.066 309.992 259.4 314.538 259.74Z" fill="#9A9A9A"/>
<path fill-rule="evenodd" clip-rule="evenodd" d="M345.804 241.225L334.856 255.884C334.462 256.76 334.133 257.664 333.872 258.589C333.352 260.229 332.773 262.057 331.996 263.079C326.986 260.676 320.676 260.203 314.545 259.743C310 259.401 305.553 259.068 301.81 257.96C296.869 256.511 292.642 253.265 289.951 248.854C291.291 246.231 294.825 245.082 299.494 247.2C307.861 250.996 312.579 252.899 319.701 249.258C320.849 248.578 321.878 247.713 322.746 246.698L333.808 230.315L345.804 241.225Z" fill="#FCBA9F"/>
<path fill-rule="evenodd" clip-rule="evenodd" d="M321.801 247.376C323.191 248.425 328.73 252.57 334.31 256.211C335.394 256.918 334.705 259.507 333.295 260.322C332.297 260.945 331.351 261.647 330.465 262.422C328.317 261.622 326.092 261.046 323.826 260.706C325.898 258.877 325.415 256.867 323.452 255.35C321.901 254.152 317.738 252.225 315.569 251.257C315.45 251.204 315.349 251.118 315.277 251.008C315.205 250.899 315.166 250.771 315.164 250.64C315.162 250.509 315.198 250.38 315.266 250.269C315.335 250.157 315.434 250.068 315.551 250.011L321.094 247.308C321.206 247.253 321.332 247.23 321.457 247.242C321.582 247.254 321.701 247.301 321.801 247.376Z" fill="white"/>
<path d="M416.98 163.417L384.268 169.261L390.707 195.3H411.661C411.661 195.3 421.621 173.771 416.98 163.417Z" fill="#FFCCB3"/>
<path d="M388.457 195.039C395.727 195.039 401.62 189.113 401.62 181.802C401.62 174.492 395.727 168.565 388.457 168.565C381.187 168.565 375.293 174.492 375.293 181.802C375.293 189.113 381.187 195.039 388.457 195.039Z" fill="#FFCCB3"/>
<path d="M375.459 183.895L388.631 266.83L403.824 267.468L402.05 185.486L375.459 183.895Z" fill="#FFCCB3"/>
<path d="M396.088 165.693C396.088 165.693 401.129 167.254 403.211 175.523C405.292 183.791 403.021 195.295 403.021 195.295H406.263C406.263 195.295 417.822 181.645 409.317 164.248L396.088 165.693Z" fill="#FF967C"/>
<path d="M464.474 155.209C464.474 155.209 468.481 174.923 463.231 183.161C456.586 193.588 448.458 195.185 442.451 195.297H403.022C403.022 195.297 402.949 170.56 383.523 166.334C383.523 166.334 447.455 148.429 464.474 155.209Z" fill="#5D5D5D"/>
<path d="M465.365 160.95L423.577 162.333L424.022 159.398L432.165 158.451H465.307L465.365 160.95Z" fill="#383838"/>
<path d="M391.121 157.623C391.121 157.623 387.631 163.579 382.87 164.787C382.87 164.787 378.966 171.794 377.806 171.988C375.871 172.251 375.954 170.112 375.954 170.112C375.954 170.112 372.977 174.053 369.757 170.85C365.208 166.389 371.233 160.107 374.187 157.271C377.035 154.404 386.125 151.047 386.125 151.047L391.121 157.623Z" fill="#FFCCB3"/>
<path d="M376.026 170.073L379.11 165.346" stroke="#FF967C" stroke-width="2.00961" stroke-linecap="round" stroke-linejoin="round"/>
<path d="M371.613 168.813C371.613 168.813 375.057 163.427 376.009 162.531" stroke="#FF967C" stroke-width="2.00961" stroke-linecap="round" stroke-linejoin="round"/>
<path d="M369.224 166.786C370.415 164.412 371.954 162.232 373.79 160.319" stroke="#FF967C" stroke-width="2.00961" stroke-linecap="round" stroke-linejoin="round"/>
<path d="M416.767 53.8561C416.767 53.8561 417.212 58.3153 418.748 68.3972C420.284 78.4791 415.163 88.4348 412.944 89.8081C410.725 91.1813 418.26 94.8671 425.658 93.0693C433.056 91.2715 438.036 88.6066 439.231 85.3454C440.426 82.0838 429.466 48.4569 416.767 53.8561Z" fill="#1B1B1B"/>
<path d="M421.322 79.2712C424.202 79.2712 426.538 76.9232 426.538 74.0267C426.538 71.1303 424.202 68.7822 421.322 68.7822C418.442 68.7822 416.106 71.1303 416.106 74.0267C416.106 76.9232 418.442 79.2712 421.322 79.2712Z" stroke="#FF926F" stroke-miterlimit="10"/>
<path d="M436.174 75.8812L433.061 91.2642C433.061 91.2642 432.326 93.8714 435.59 94.2663C438.855 94.6611 445.815 93.7789 448.301 91.1151C450.787 88.4513 449.917 87.1314 449.917 87.1314L444.645 65.8096L436.174 75.8812Z" fill="#FFCCB3"/>
<path d="M435.763 77.6606L440.843 73.8574L433.81 87.5839L435.763 77.6606Z" fill="#FF967C"/>
<path d="M420.791 52.4406C420.791 52.4406 418.886 67.4177 424.409 75.7442C428.01 81.1742 432.5 81.0595 440.835 73.8574C448.478 67.2539 449.89 63.4989 449.89 63.4989L447.002 48.2259C447.002 48.2259 423.192 38.8917 420.791 52.4406Z" fill="#FFCCB3"/>
<path d="M409.851 115.664L409.838 124.318C409.837 125.554 409.575 126.775 409.069 127.901C408.564 129.027 407.827 130.033 406.906 130.851L382.238 152.792L386.592 159.8L420.548 138.468C422.461 137.266 424.052 135.611 425.18 133.647C426.308 131.682 426.94 129.47 427.02 127.203L427.64 109.518L409.851 115.664Z" fill="#FFCCB3"/>
<path d="M408.76 127.871C408.76 127.871 419.386 127.161 424.946 134.289L427.391 125.417L409.315 126.041L408.76 127.871Z" fill="#FF967C"/>
<path d="M422.812 90.2171C422.812 90.2171 414.737 95.5879 413.049 99.8098C411.736 103.095 408.943 117.172 407.769 123.257C407.702 123.602 407.713 123.957 407.802 124.294C407.891 124.633 408.055 124.946 408.282 125.213C408.509 125.481 408.794 125.695 409.118 125.841C409.441 125.988 409.794 126.063 410.153 126.06L425.917 125.968L422.812 90.2171Z" fill="#FF926F"/>
<path d="M418.404 99.7469C418.404 99.7469 410.375 117.009 411.54 126.354L423.238 125.613L418.404 99.7469Z" fill="#E1684A"/>
<path d="M435.181 85.5854C435.181 85.5854 424.37 88.9871 422.841 90.2171C421.312 91.4467 419.86 101.483 417.262 106.249C414.663 111.014 411.172 118.506 416.725 126.585C422.279 134.664 422.308 142.717 422.308 142.717L420.473 158.045L459.173 161.593C460.961 161.648 464.761 156.873 464.6 155.081C464.068 149.172 463.404 147.442 463.213 138.033C462.954 125.282 469.71 87.5885 469.71 87.5885L449.89 83.498C445.69 84.226 435.181 85.5854 435.181 85.5854Z" fill="white"/>
<path d="M432.494 86.4503C432.494 86.4503 433.051 82.6431 434.831 82.3753C436.611 82.107 447.489 80.462 449.181 81.1781C450.873 81.8946 452.921 86.4503 452.921 86.4503C452.921 86.4503 449.448 94.9683 444.461 95.4161C439.475 95.8636 430.891 94.3179 431.799 91.1508C432.707 87.9838 432.494 86.4503 432.494 86.4503Z" fill="white"/>
<path d="M432.488 86.4551C432.488 86.4551 428.763 98.387 427.857 107.044C426.951 115.701 430.044 127.884 430.331 133.896C430.618 139.908 428.455 161.839 428.455 161.839H414.065C414.065 161.839 420.83 139.48 419.608 133.522C418.386 127.563 413.146 123.482 413.315 117.346C413.483 111.209 421.038 94.7515 421.038 94.7515C421.395 93.1528 422.003 91.6209 422.84 90.2144C422.84 90.2144 426.467 88.2196 432.488 86.4551Z" fill="#FF926F"/>
<path d="M468.317 87.206L451.113 81.9033C451.113 81.9033 449.338 92.1118 447.373 97.8643C445.407 103.617 442.749 113.593 444.198 120.794C445.647 127.996 447.977 143.901 446.012 150.133C444.047 156.365 442.329 161.534 442.329 161.534L467.168 161.839C467.168 161.839 464.987 150.907 464.82 150.119C464.654 149.331 461.972 140.161 463.218 131.748C464.464 123.335 467.095 108.591 467.095 108.591L468.317 87.206Z" fill="#FF926F"/>
<path d="M445.887 118.978C446.313 118.978 446.658 118.631 446.658 118.204C446.658 117.776 446.313 117.429 445.887 117.429C445.462 117.429 445.117 117.776 445.117 118.204C445.117 118.631 445.462 118.978 445.887 118.978Z" fill="white"/>
<path d="M446.656 125.904C447.081 125.904 447.426 125.557 447.426 125.129C447.426 124.701 447.081 124.354 446.656 124.354C446.23 124.354 445.886 124.701 445.886 125.129C445.886 125.557 446.23 125.904 446.656 125.904Z" fill="white"/>
<path d="M430.483 87.1289C430.483 87.1289 431.687 94.4758 438.222 94.3598C444.757 94.2439 454.253 84.3867 454.253 84.3867" stroke="#FFE6DD" stroke-width="0.73719" stroke-miterlimit="10"/>
<path d="M456.892 99.749C456.892 99.749 455.074 104.239 456.986 108.595C459.137 113.493 461.909 125.579 452.946 126.899C441.96 128.516 446.717 130.246 451.81 131.484C456.903 132.721 454.817 132.723 454.817 138.028C454.817 141.804 465.336 148.828 464.234 145.969C458.319 130.629 474.043 110.269 456.892 99.749Z" fill="#E1684A"/>
<path d="M425.942 72.3212L431.054 71.1406C431.052 71.1881 431.048 71.2423 431.042 71.3013C431.017 71.5477 430.954 71.8801 430.805 72.2266C430.511 72.9079 429.873 73.6644 428.458 73.916C427.56 73.9924 426.911 73.5548 426.477 73.0796C426.259 72.8411 426.099 72.5966 425.992 72.411C425.974 72.379 425.957 72.3489 425.942 72.3212Z" fill="#E56441" stroke="#E56441"/>
<path d="M422.63 64.9778C423.225 64.9707 423.699 64.2498 423.689 63.3672C423.679 62.4849 423.188 61.7752 422.593 61.7823C421.998 61.789 421.523 62.5102 421.533 63.3925C421.544 64.2752 422.034 64.9849 422.63 64.9778Z" fill="#080B09"/>
<path d="M431.432 65.0022C432.027 64.9955 432.502 64.2743 432.491 63.3916C432.481 62.5093 431.99 61.7996 431.395 61.8067C430.799 61.8134 430.325 62.5347 430.335 63.4173C430.345 64.2996 430.837 65.0093 431.432 65.0022Z" fill="#080B09"/>
<path d="M420.448 59.7174L424.924 59.7388C425 59.7325 425.072 59.6992 425.125 59.6442C425.178 59.5892 425.21 59.5168 425.214 59.4401C425.197 59.3032 425.152 59.1718 425.082 59.0532C425.011 58.9345 424.918 58.8312 424.808 58.7497C424.697 58.6682 424.571 58.6104 424.437 58.5792C424.304 58.5479 424.166 58.5444 424.03 58.5685L420.369 59.2019C420.076 59.2055 420.082 59.7218 420.448 59.7174Z" fill="#080B09"/>
<path d="M435.595 59.2532L429.656 59.6916C429.66 59.5092 429.701 59.3296 429.778 59.1646C429.855 58.9992 429.965 58.852 430.102 58.7322C430.239 58.6123 430.399 58.5229 430.573 58.4691C430.746 58.4153 430.929 58.3987 431.109 58.4204L435.664 58.8833C435.81 58.8817 435.815 59.2505 435.595 59.2532Z" fill="#080B09"/>
<path d="M426.26 62.8955L424.61 67.2574L426.013 68.3984" stroke="#E56441" stroke-width="1.21616" stroke-linecap="round"/>
<path d="M423.963 50.1683C423.963 50.1683 426.145 56.561 432.5 58.155C432.5 58.155 435.498 62.6814 441.798 62.1576C441.798 62.1576 440.161 57.6794 443.02 56.9202C447.876 55.6301 447.569 63.6764 444.641 65.8137C442.651 67.266 442.415 83.2753 452.917 86.4534C462.333 89.3028 477.948 80.3172 471.618 77.3293C450.622 67.4187 453.532 52.7736 450.844 47.3677C446.278 38.1815 433.538 38.331 431.159 39.349C431.159 39.349 419.915 38.6985 417.261 49.9919C414.992 59.6461 420.697 63.4035 420.697 63.4035L421.07 55.2787C421.07 55.2787 422.3 55.712 423.963 50.1683Z" fill="#1B1B1B"/>
<rect width="14.3922" height="22.0302" rx="1" transform="matrix(0.929662 -0.368414 0.368232 0.929734 404.328 127.174)" fill="#64E2C2"/>
<path d="M437.864 99.7501C438.4 99.7501 438.834 98.5438 438.834 97.0554C438.834 95.5666 438.4 94.3604 437.864 94.3604C437.329 94.3604 436.895 95.5666 436.895 97.0554C436.895 98.5438 437.329 99.7501 437.864 99.7501Z" fill="#64E2C2"/>
<path d="M463.331 93.604C463.331 93.604 473.602 88.6309 475.532 91.8253C479.55 98.2084 486.029 113.972 488.185 119.148C488.272 119.369 488.314 119.605 488.309 119.844C488.304 120.081 488.253 120.316 488.158 120.534C488.062 120.752 487.925 120.949 487.753 121.113C487.582 121.277 487.38 121.405 487.159 121.491L471.313 127.693C470.701 127.937 470.02 127.937 469.408 127.693C468.796 127.447 468.301 126.976 468.024 126.376L456.987 102.338L463.331 93.604Z" fill="#FF926F"/>
<path d="M466.718 108.594C472.613 108.594 477.392 103.788 477.392 97.8605C477.392 91.9327 472.613 87.127 466.718 87.127C460.823 87.127 456.044 91.9327 456.044 97.8605C456.044 103.788 460.823 108.594 466.718 108.594Z" fill="#FF926F"/>
<path d="M491.234 133.998L476.791 139.595L472.633 129.159L471.943 127.513L486.772 121.664L487.474 123.628L491.234 133.998Z" fill="#FFCCB3"/>
<path d="M487.474 123.626C483.569 125.114 475.989 127.845 472.633 129.156L471.943 127.51L486.693 121.664L487.474 123.626Z" fill="#FF967C"/>
<path d="M484.091 144.745C488.371 144.745 491.84 141.257 491.84 136.954C491.84 132.65 488.371 129.162 484.091 129.162C479.812 129.162 476.343 132.65 476.343 136.954C476.343 141.257 479.812 144.745 484.091 144.745Z" fill="#FFCCB3"/>
<path d="M436.34 139.266C436.34 139.266 429.983 141.899 425.461 139.974C425.461 139.974 418.144 143.194 417.103 142.645C415.401 141.682 416.751 140.026 416.751 140.026C416.751 140.026 412.013 141.363 411.366 136.856C410.414 130.538 418.987 129.182 423.045 128.713C427.036 128.154 436.3 130.99 436.3 130.99L436.34 139.266Z" fill="#FFCCB3"/>
<path d="M414.957 128.294L423.456 128.613L415.265 131.227C415.265 131.227 412.344 129.851 413.705 128.678C414.063 128.402 414.507 128.265 414.957 128.294Z" fill="#FFCCB3"/>
<path d="M416.827 140.039L422.124 138.14" stroke="#FF967C" stroke-width="2.00961" stroke-linecap="round" stroke-linejoin="round"/>
<path d="M414.071 136.363C414.071 136.363 420.049 134.158 421.346 134.021" stroke="#FF967C" stroke-width="2.00961" stroke-linecap="round" stroke-linejoin="round"/>
<path d="M413.377 133.294C415.751 132.124 418.285 131.318 420.897 130.906" stroke="#FF967C" stroke-width="2.00961" stroke-linecap="round" stroke-linejoin="round"/>
<path d="M483.909 129.138C483.909 129.138 435.698 131.308 432.432 130.685C429.244 130.073 436.341 139.267 436.341 139.267L482.476 144.511L483.909 129.138Z" fill="#FFCCB3"/>
<path d="M446.271 74.1242C449.152 74.1242 451.487 71.7757 451.487 68.8793C451.487 65.9829 449.152 63.6348 446.271 63.6348C443.391 63.6348 441.056 65.9829 441.056 68.8793C441.056 71.7757 443.391 74.1242 446.271 74.1242Z" stroke="#FF926F" stroke-miterlimit="10"/>
<rect x="218" y="121.422" width="24.0982" height="182.578" fill="#64E2C2"/>
<rect x="182.323" y="121.422" width="35.6757" height="182.578" fill="url(#paint0_linear_191_730)"/>
<rect x="218" y="115" width="29.75" height="6.42188" fill="#64E2C2"/>
<rect x="218" y="121.422" width="24.1345" height="6.42188" fill="#41C8A6"/>
<rect x="177" y="115" width="41" height="6.42188" fill="url(#paint1_linear_191_730)"/>
<rect x="182.323" y="121.422" width="35.6771" height="6.42188" fill="url(#paint2_linear_191_730)" fill-opacity="0.5"/>
<path d="M229.542 103.188H232.604V103.188C235.798 104.638 235.798 109.174 232.604 110.625V110.625H229.542" stroke="#E1684A" stroke-width="2"/>
<rect width="13" height="17" rx="2" transform="matrix(-1 0 0 1 233.365 98)" fill="#FF926F"/>
<path d="M198.537 103.188H195.475V103.188C192.281 104.638 192.281 109.174 195.475 110.625V110.625H198.537" stroke="#45C5A4" stroke-width="2"/>
<rect x="194.714" y="98" width="13" height="17" rx="2" fill="#64E2C2"/>
<defs>
<linearGradient id="paint0_linear_191_730" x1="200.161" y1="121.422" x2="200.161" y2="304" gradientUnits="userSpaceOnUse">
<stop stop-color="white"/>
<stop offset="1" stop-color="#64E2C2"/>
</linearGradient>
<linearGradient id="paint1_linear_191_730" x1="197.5" y1="109.25" x2="197.5" y2="129.5" gradientUnits="userSpaceOnUse">
<stop stop-color="#64E2C2"/>
<stop offset="1" stop-color="white"/>
</linearGradient>
<linearGradient id="paint2_linear_191_730" x1="200.162" y1="118.5" x2="200.162" y2="135.25" gradientUnits="userSpaceOnUse">
<stop stop-color="#64E2C2"/>
<stop offset="1" stop-color="white"/>
</linearGradient>
</defs>
</svg>
