<svg width="400" height="432" viewBox="0 0 400 432" fill="none" xmlns="http://www.w3.org/2000/svg">
<g clip-path="url(#clip0_322_6704)">
<path d="M243.41 10.0229H67.2671C53.2785 10.0229 39.9275 21.955 37.464 36.6694L28.4989 90.0437C26.5667 101.498 18.0654 111.257 7.79607 115.025C7.63186 115.084 7.48598 115.189 7.37377 115.329C7.26156 115.468 7.18714 115.637 7.15843 115.817C7.13443 115.922 7.13405 116.032 7.15725 116.138C7.18045 116.243 7.22662 116.342 7.29216 116.425C7.3577 116.509 7.44084 116.576 7.53498 116.62C7.62911 116.664 7.73168 116.685 7.83469 116.68H225.577C239.575 116.68 252.916 104.758 255.38 90.0437L264.335 36.6999C266.75 22.0058 257.457 10.0229 243.41 10.0229ZM244.125 37.1975C242.977 37.2076 241.851 36.8589 240.892 36.1955C239.932 35.5322 239.182 34.5841 238.736 33.4717C238.289 32.3593 238.168 31.1326 238.386 29.9474C238.604 28.7621 239.152 27.6717 239.961 26.8145C240.77 25.9573 241.802 25.372 242.928 25.1327C244.054 24.8935 245.222 25.0111 246.284 25.4708C247.346 25.9304 248.254 26.7113 248.893 27.7143C249.532 28.7174 249.873 29.8973 249.873 31.1045C249.883 32.7188 249.284 34.2714 248.206 35.4214C247.128 36.5714 245.661 37.2247 244.125 37.2382V37.1975Z" fill="#FF926F"/>
<path d="M244.338 314.305H68.1949C54.2062 314.305 40.8551 326.237 38.3917 340.951L27.5814 405.364C25.6492 416.819 17.1479 426.577 6.87856 430.345C6.71435 430.404 6.56847 430.509 6.45626 430.649C6.34405 430.788 6.26969 430.957 6.24098 431.137C6.21698 431.242 6.21654 431.352 6.23974 431.458C6.26295 431.563 6.30911 431.662 6.37465 431.745C6.44019 431.829 6.52333 431.896 6.61747 431.94C6.7116 431.984 6.81418 432.005 6.91718 432H224.611C238.609 432 251.95 420.078 254.414 405.364L265.186 340.951C267.678 326.237 258.336 314.305 244.338 314.305ZM242.618 343.622C241.472 343.622 240.351 343.265 239.398 342.595C238.445 341.926 237.702 340.974 237.263 339.861C236.824 338.747 236.71 337.522 236.933 336.34C237.157 335.158 237.709 334.073 238.52 333.221C239.33 332.369 240.363 331.788 241.487 331.553C242.612 331.318 243.777 331.439 244.836 331.9C245.896 332.361 246.801 333.142 247.438 334.144C248.075 335.146 248.415 336.324 248.415 337.529C248.415 339.145 247.804 340.695 246.717 341.837C245.63 342.98 244.156 343.622 242.618 343.622Z" fill="#FF926F"/>
<path d="M360.942 276.264C351.929 272.497 346.693 262.738 348.615 251.283L360.623 179.681C363.087 164.967 353.745 153.035 339.756 153.035H163.604C149.605 153.035 136.254 164.967 133.791 179.681L121.783 251.283C119.309 265.998 128.651 277.92 142.65 277.92H360.343C360.574 277.913 360.795 277.823 360.97 277.666C361.146 277.509 361.265 277.294 361.309 277.057C361.344 276.9 361.326 276.736 361.259 276.592C361.192 276.448 361.08 276.332 360.942 276.264ZM340.481 181.347C339.334 181.347 338.214 180.989 337.261 180.32C336.307 179.65 335.564 178.699 335.126 177.585C334.687 176.472 334.572 175.247 334.796 174.065C335.02 172.883 335.572 171.797 336.382 170.945C337.193 170.093 338.226 169.513 339.35 169.278C340.474 169.043 341.64 169.163 342.699 169.624C343.758 170.086 344.663 170.866 345.3 171.868C345.937 172.87 346.277 174.049 346.277 175.254C346.277 176.87 345.667 178.419 344.58 179.562C343.492 180.705 342.018 181.347 340.481 181.347Z" fill="#FF926F"/>
<path d="M237.169 -0.000488281H61.0553C47.0667 -0.000488281 33.7156 11.9315 31.2521 26.646L22.2967 79.9897C20.3646 91.4445 11.8632 101.203 1.59392 104.971C1.42971 105.03 1.28377 105.135 1.17156 105.275C1.05935 105.414 0.984995 105.583 0.956283 105.763C0.932286 105.868 0.931901 105.978 0.955103 106.084C0.978306 106.189 1.02447 106.288 1.09001 106.371C1.15555 106.455 1.23863 106.522 1.33277 106.566C1.42691 106.61 1.52954 106.631 1.63254 106.626H219.316C233.315 106.626 246.656 94.7042 249.12 79.9897L258.075 26.646C260.538 11.9315 251.197 -0.000488281 237.169 -0.000488281ZM237.884 27.1741C236.738 27.1741 235.617 26.8168 234.664 26.1473C233.711 25.4778 232.968 24.5262 232.529 23.4128C232.09 22.2995 231.976 21.0744 232.199 19.8924C232.423 18.7105 232.975 17.625 233.786 16.7728C234.596 15.9207 235.629 15.3404 236.753 15.1053C237.878 14.8702 239.043 14.9909 240.102 15.452C241.162 15.9132 242.067 16.6941 242.704 17.6961C243.341 18.6981 243.681 19.876 243.681 21.0811C243.681 22.6918 243.074 24.2369 241.993 25.3787C240.912 26.5205 239.445 27.166 237.913 27.1741H237.884Z" fill="#FFF6F0"/>
<path d="M202.285 42.2037H14.9743C14.5514 42.2182 14.131 42.1303 13.7456 41.947C13.3601 41.7637 13.0199 41.4897 12.751 41.1463C12.4822 40.8029 12.292 40.3992 12.1951 39.9663C12.0981 39.5334 12.0971 39.0829 12.192 38.6495C12.3783 37.6728 12.8726 36.7907 13.5948 36.1457C14.3171 35.5008 15.2251 35.1307 16.1722 35.0953H203.483C203.906 35.0808 204.326 35.1687 204.712 35.352C205.097 35.5353 205.437 35.8093 205.706 36.1527C205.975 36.4961 206.165 36.8998 206.262 37.3327C206.359 37.7656 206.36 38.2161 206.265 38.6495C206.079 39.6262 205.585 40.5083 204.862 41.1533C204.14 41.7982 203.232 42.1683 202.285 42.2037Z" fill="#191919"/>
<path d="M115.996 57.7613H12.3753C11.9518 57.7778 11.5305 57.6914 11.1441 57.5087C10.7576 57.326 10.4165 57.0521 10.1473 56.7082C9.87803 56.3642 9.68796 55.9596 9.59183 55.5258C9.4957 55.092 9.49608 54.6407 9.59301 54.2071C9.77735 53.2312 10.2697 52.3494 10.9903 51.7043C11.711 51.0593 12.6176 50.6887 13.5635 50.6529H117.184C117.607 50.6385 118.027 50.7263 118.413 50.9096C118.798 51.093 119.138 51.3669 119.407 51.7103C119.676 52.0537 119.866 52.4575 119.963 52.8904C120.06 53.3233 120.061 53.7737 119.966 54.2071C119.783 55.1838 119.292 56.0668 118.571 56.7121C117.85 57.3575 116.942 57.7273 115.996 57.7613Z" fill="#191919"/>
<path d="M160.937 73.3287H9.76672C9.34386 73.3431 8.92349 73.2553 8.53803 73.072C8.15257 72.8886 7.81231 72.6147 7.54348 72.2713C7.27466 71.9279 7.08449 71.5241 6.98757 71.0912C6.89064 70.6583 6.88954 70.2079 6.98444 69.7745C7.16878 68.7986 7.66115 67.9166 8.38177 67.2716C9.1024 66.6265 10.0091 66.2561 10.955 66.2202H162.125C162.549 66.2037 162.97 66.2902 163.356 66.4729C163.743 66.6556 164.084 66.9295 164.353 67.2734C164.622 67.6174 164.812 68.022 164.909 68.4558C165.005 68.8896 165.004 69.3409 164.907 69.7745C164.723 70.7504 164.231 71.6322 163.51 72.2772C162.789 72.9223 161.883 73.2928 160.937 73.3287Z" fill="#191919"/>
<path d="M238.136 304.312H61.9829C47.9942 304.312 34.6432 316.244 32.1797 330.958L21.3695 395.371C19.4373 406.826 10.9359 416.585 0.666645 420.352C0.502436 420.412 0.356553 420.517 0.244344 420.656C0.132136 420.796 0.057779 420.964 0.0290667 421.144C0.00506972 421.25 0.00462602 421.359 0.0278285 421.465C0.051031 421.571 0.0971996 421.669 0.162738 421.753C0.228277 421.836 0.311415 421.903 0.405552 421.947C0.49969 421.991 0.602262 422.012 0.705266 422.007H218.389C232.387 422.007 245.729 410.086 248.192 395.371L259.003 330.958C261.466 316.214 252.124 304.312 238.136 304.312ZM236.416 333.629C235.27 333.629 234.149 333.272 233.196 332.602C232.242 331.933 231.499 330.981 231.061 329.868C230.622 328.755 230.507 327.53 230.731 326.348C230.955 325.166 231.507 324.08 232.317 323.228C233.128 322.376 234.161 321.795 235.285 321.56C236.41 321.325 237.575 321.446 238.634 321.907C239.693 322.368 240.599 323.149 241.235 324.151C241.872 325.153 242.212 326.331 242.212 327.536C242.205 329.149 241.589 330.692 240.501 331.829C239.413 332.965 237.94 333.601 236.406 333.599L236.416 333.629Z" fill="#FFF6F0"/>
<path d="M188.054 340.708H16.9061C16.4826 340.724 16.0613 340.638 15.6748 340.455C15.2884 340.272 14.9473 339.998 14.6781 339.654C14.4088 339.311 14.2187 338.906 14.1226 338.472C14.0264 338.038 14.0269 337.587 14.1238 337.153C14.3081 336.178 14.8005 335.296 15.5211 334.651C16.2418 334.006 17.1484 333.635 18.0943 333.599H189.243C189.666 333.585 190.086 333.673 190.471 333.856C190.857 334.039 191.197 334.313 191.466 334.657C191.735 335 191.925 335.404 192.022 335.837C192.119 336.27 192.12 336.72 192.025 337.153C191.841 338.129 191.348 339.011 190.628 339.656C189.907 340.301 189 340.672 188.054 340.708Z" fill="#191919"/>
<path d="M196.353 387.399H9.05191C8.62905 387.414 8.20867 387.326 7.82321 387.143C7.43775 386.96 7.09749 386.686 6.82867 386.342C6.55984 385.999 6.36962 385.595 6.27269 385.162C6.17577 384.729 6.17473 384.279 6.26963 383.845C6.45236 382.869 6.94428 381.986 7.66525 381.34C8.38621 380.695 9.29374 380.325 10.2401 380.291H197.561C197.984 380.275 198.405 380.361 198.792 380.544C199.178 380.726 199.519 381 199.789 381.344C200.058 381.688 200.248 382.093 200.344 382.527C200.44 382.96 200.44 383.412 200.343 383.845C200.158 384.824 199.662 385.709 198.938 386.354C198.213 387 197.302 387.368 196.353 387.399Z" fill="#191919"/>
<path d="M117.889 356.265H14.2689C13.8454 356.281 13.4241 356.195 13.0376 356.012C12.6512 355.829 12.31 355.555 12.0408 355.211C11.7716 354.868 11.5815 354.463 11.4854 354.029C11.3892 353.595 11.3897 353.144 11.4866 352.711C11.6729 351.734 12.1672 350.852 12.8894 350.207C13.6117 349.562 14.5197 349.192 15.4668 349.156H119.087C119.51 349.142 119.93 349.23 120.316 349.413C120.701 349.596 121.042 349.87 121.31 350.214C121.579 350.557 121.769 350.961 121.866 351.394C121.963 351.827 121.964 352.277 121.869 352.711C121.685 353.688 121.191 354.571 120.468 355.216C119.746 355.862 118.837 356.231 117.889 356.265Z" fill="#191919"/>
<path d="M162.83 371.832H11.6603C11.2374 371.847 10.8171 371.759 10.4316 371.575C10.0461 371.392 9.70589 371.118 9.43706 370.775C9.16824 370.431 8.97802 370.028 8.88109 369.595C8.78417 369.162 8.78313 368.711 8.87803 368.278C9.06436 367.301 9.55859 366.419 10.2808 365.774C11.0031 365.129 11.9111 364.759 12.8582 364.724H164.028C164.451 364.709 164.872 364.797 165.257 364.98C165.643 365.164 165.983 365.438 166.252 365.781C166.52 366.125 166.711 366.528 166.808 366.961C166.904 367.394 166.906 367.845 166.811 368.278C166.624 369.255 166.13 370.137 165.408 370.782C164.686 371.427 163.778 371.797 162.83 371.832Z" fill="#191919"/>
<path d="M354.73 266.242C345.717 262.474 340.481 252.715 342.403 241.26L354.411 169.658C356.875 154.944 347.533 143.012 333.544 143.012H157.392C143.393 143.012 130.042 154.944 127.579 169.658L115.571 241.26C113.098 255.975 122.439 267.897 136.438 267.897H354.131C354.362 267.89 354.583 267.8 354.758 267.643C354.934 267.487 355.054 267.271 355.097 267.034C355.132 266.877 355.114 266.713 355.047 266.569C354.98 266.425 354.868 266.309 354.73 266.242ZM334.269 171.283C333.123 171.283 332.002 170.926 331.049 170.256C330.095 169.587 329.352 168.635 328.914 167.522C328.475 166.408 328.36 165.183 328.584 164.001C328.808 162.819 329.36 161.734 330.17 160.882C330.981 160.029 332.014 159.449 333.138 159.214C334.263 158.979 335.428 159.1 336.487 159.561C337.546 160.022 338.452 160.803 339.089 161.805C339.725 162.807 340.065 163.985 340.065 165.19C340.065 166.806 339.455 168.356 338.368 169.498C337.281 170.641 335.806 171.283 334.269 171.283Z" fill="#FFF6F0"/>
<path d="M298.998 176.797H111.658C111.235 176.811 110.815 176.724 110.429 176.54C110.044 176.357 109.703 176.083 109.435 175.74C109.166 175.396 108.976 174.992 108.879 174.559C108.782 174.127 108.781 173.676 108.876 173.243C109.062 172.266 109.556 171.384 110.278 170.739C111.001 170.094 111.909 169.724 112.856 169.689H300.147C300.571 169.672 300.992 169.758 301.378 169.941C301.765 170.124 302.106 170.398 302.375 170.742C302.644 171.086 302.834 171.49 302.931 171.924C303.027 172.358 303.026 172.809 302.929 173.243C302.747 174.212 302.26 175.089 301.547 175.733C300.834 176.378 299.937 176.752 298.998 176.797Z" fill="#191919"/>
<path d="M238.135 192.354H109.05C108.626 192.371 108.205 192.284 107.818 192.101C107.432 191.919 107.091 191.645 106.822 191.301C106.552 190.957 106.362 190.552 106.266 190.119C106.17 189.685 106.17 189.233 106.267 188.8C106.452 187.824 106.944 186.942 107.665 186.297C108.385 185.652 109.292 185.282 110.238 185.246H239.324C239.747 185.231 240.167 185.319 240.552 185.502C240.938 185.686 241.278 185.96 241.547 186.303C241.816 186.646 242.006 187.05 242.103 187.483C242.2 187.916 242.201 188.366 242.106 188.8C241.923 189.777 241.431 190.66 240.71 191.305C239.989 191.95 239.082 192.32 238.135 192.354Z" fill="#191919"/>
<path d="M204.835 239.046H101.215C100.791 239.063 100.37 238.977 99.9834 238.794C99.597 238.611 99.2558 238.337 98.9866 237.993C98.7174 237.649 98.5273 237.245 98.4312 236.811C98.335 236.377 98.3355 235.926 98.4324 235.492C98.6187 234.516 99.113 233.633 99.8352 232.988C100.557 232.344 101.466 231.973 102.413 231.938H206.023C206.447 231.922 206.868 232.008 207.254 232.191C207.641 232.373 207.982 232.647 208.251 232.991C208.521 233.335 208.711 233.74 208.807 234.174C208.903 234.607 208.902 235.059 208.806 235.492C208.623 236.469 208.131 237.352 207.41 237.997C206.689 238.643 205.781 239.012 204.835 239.046Z" fill="#191919"/>
<path d="M283.077 207.922H106.441C106.018 207.938 105.596 207.852 105.21 207.669C104.824 207.487 104.482 207.213 104.213 206.869C103.944 206.525 103.754 206.12 103.658 205.686C103.562 205.253 103.562 204.801 103.659 204.368C103.843 203.392 104.336 202.51 105.056 201.865C105.777 201.22 106.684 200.849 107.629 200.814H284.265C284.688 200.799 285.108 200.887 285.494 201.07C285.879 201.254 286.22 201.528 286.488 201.871C286.757 202.214 286.947 202.618 287.044 203.051C287.141 203.484 287.142 203.934 287.047 204.368C286.863 205.344 286.371 206.226 285.65 206.871C284.929 207.516 284.023 207.886 283.077 207.922Z" fill="#191919"/>
<path d="M255.003 223.489H103.852C103.429 223.504 103.009 223.416 102.624 223.233C102.238 223.049 101.898 222.775 101.629 222.432C101.36 222.089 101.17 221.685 101.073 221.252C100.976 220.819 100.975 220.369 101.07 219.935C101.255 218.958 101.748 218.074 102.471 217.429C103.194 216.784 104.103 216.414 105.05 216.381H256.191C256.615 216.364 257.036 216.451 257.423 216.634C257.809 216.816 258.15 217.09 258.419 217.434C258.689 217.778 258.879 218.183 258.975 218.616C259.071 219.05 259.07 219.502 258.974 219.935C258.789 220.911 258.297 221.793 257.576 222.438C256.856 223.083 255.949 223.453 255.003 223.489Z" fill="#191919"/>
<path d="M267.243 41.6351L252.076 33.2472C249.65 31.9037 246.82 31.6083 244.19 32.4238C241.559 33.2393 239.335 35.1013 237.991 37.6138L229.596 53.3235C228.898 54.6079 228.453 56.0268 228.287 57.4956C228.121 58.9645 228.237 60.4534 228.629 61.8739L237.228 92.5315C238.022 95.3489 239.848 97.7197 242.304 99.1229C244.76 100.526 247.646 100.847 250.327 100.016L273.88 92.7144C275.208 92.302 276.446 91.6187 277.522 90.7034C278.599 89.7881 279.493 88.6587 280.154 87.38C280.815 86.1012 281.23 84.698 281.376 83.2506C281.521 81.8031 281.393 80.3398 281 78.9443L272.392 48.2968C271.999 46.882 271.341 45.564 270.457 44.4201C269.573 43.2761 268.48 42.3292 267.243 41.6351ZM249.574 51.6175C248.474 51.9732 247.298 51.9767 246.197 51.6277C245.095 51.2786 244.117 50.5927 243.387 49.6574C242.658 48.7221 242.209 47.5798 242.1 46.3758C241.99 45.1718 242.223 43.9606 242.77 42.8966C243.317 41.8325 244.154 40.9637 245.172 40.4009C246.191 39.838 247.345 39.6066 248.489 39.7359C249.633 39.8653 250.715 40.3496 251.596 41.1273C252.478 41.905 253.119 42.9408 253.438 44.1028C253.873 45.638 253.71 47.2919 252.986 48.7011C252.261 50.1102 251.034 51.1592 249.574 51.6175Z" fill="#61F7D0"/>
<path d="M367.434 169.343L350.306 169.811C347.562 169.887 344.956 171.085 343.04 173.15C341.124 175.216 340.05 177.985 340.046 180.869V198.874C340.04 200.355 340.318 201.822 340.862 203.188C341.407 204.554 342.207 205.791 343.215 206.825L364.971 229.166C365.961 230.182 367.133 230.984 368.418 231.524C369.703 232.064 371.078 232.333 372.462 232.315C373.846 232.297 375.213 231.993 376.486 231.419C377.758 230.846 378.91 230.015 379.877 228.973L397.025 210.501C397.991 209.46 398.754 208.228 399.268 206.877C399.782 205.526 400.038 204.082 400.021 202.627C400.004 201.172 399.714 199.734 399.168 198.397C398.623 197.06 397.832 195.848 396.841 194.832L375.085 172.491C374.075 171.455 372.877 170.643 371.563 170.102C370.249 169.562 368.845 169.303 367.434 169.343ZM356.672 187.125C355.876 187.997 354.85 188.601 353.727 188.859C352.603 189.117 351.432 189.018 350.362 188.574C349.292 188.13 348.372 187.362 347.719 186.367C347.066 185.372 346.709 184.195 346.694 182.986C346.679 181.777 347.006 180.591 347.634 179.578C348.263 178.565 349.163 177.772 350.222 177.299C351.28 176.826 352.449 176.695 353.578 176.922C354.708 177.149 355.748 177.724 356.566 178.574C357.648 179.699 358.266 181.227 358.286 182.827C358.305 184.426 357.726 185.97 356.672 187.125Z" fill="#61F7D0"/>
<path d="M273.88 347.795L258.925 338.991C256.529 337.585 253.707 337.217 251.057 337.964C248.407 338.711 246.138 340.515 244.734 342.992L235.962 358.468C235.238 359.737 234.765 361.147 234.569 362.612C234.373 364.077 234.459 365.569 234.822 366.998L242.685 397.869C243.412 400.705 245.179 403.121 247.599 404.589C250.018 406.057 252.893 406.456 255.592 405.699L279.319 399.027C282.018 398.265 284.318 396.408 285.715 393.864C287.112 391.32 287.49 388.297 286.767 385.46L278.903 354.589C278.542 353.161 277.911 351.823 277.048 350.656C276.185 349.489 275.108 348.516 273.88 347.795ZM255.979 357.3C254.87 357.622 253.696 357.589 252.605 357.207C251.514 356.825 250.556 356.111 249.853 355.155C249.149 354.199 248.732 353.044 248.654 351.839C248.576 350.633 248.842 349.43 249.416 348.383C249.991 347.336 250.848 346.492 251.88 345.959C252.912 345.426 254.071 345.227 255.211 345.388C256.35 345.549 257.418 346.063 258.279 346.865C259.14 347.666 259.755 348.718 260.046 349.887C260.43 351.441 260.215 353.091 259.448 354.479C258.681 355.867 257.424 356.881 255.95 357.3H255.979Z" fill="#61F7D0"/>
<path d="M237.904 21.1221L247.941 45.8188" stroke="#5F5F5F" stroke-width="5" stroke-miterlimit="10" stroke-linecap="round"/>
<path d="M334.269 165.281L352.547 182.9" stroke="#5F5F5F" stroke-width="5" stroke-miterlimit="10" stroke-linecap="round"/>
<path d="M236.406 327.546L254.462 351.451" stroke="#5F5F5F" stroke-width="5" stroke-miterlimit="10" stroke-linecap="round"/>
</g>
<defs>
<clipPath id="clip0_322_6704">
<rect width="400" height="432" fill="white"/>
</clipPath>
</defs>
</svg>
