<svg width="160" height="160" viewBox="0 0 160 160" fill="none" xmlns="http://www.w3.org/2000/svg">
<g clip-path="url(#clip0_304_4422)">
<path d="M107.062 142.85H8.06883C6.85791 142.901 5.65194 142.666 4.54906 142.163C3.44778 141.658 2.47809 140.905 1.71564 139.963C0.958545 139.019 0.431641 137.91 0.176596 136.727C-0.0784484 135.543 -0.0546383 134.317 0.246141 133.144L15.4604 54.9169C16.0544 52.2499 17.5141 49.8543 19.6119 48.1035C21.7097 46.3527 24.3277 45.345 27.058 45.2375H126.052C127.262 45.1897 128.467 45.4247 129.571 45.9239C130.672 46.4308 131.641 47.1834 132.405 48.1237C133.162 49.0686 133.689 50.1766 133.944 51.3602C134.199 52.5438 134.175 53.7705 133.874 54.9433L118.66 133.17C118.076 135.842 116.619 138.244 114.519 139.996C112.419 141.749 109.796 142.753 107.062 142.85Z" fill="white"/>
<path d="M39.1574 66.365H105.074C105.548 66.3385 106.022 66.426 106.455 66.6202C106.889 66.8255 107.272 67.1263 107.573 67.5001C107.87 67.8691 108.083 68.2985 108.198 68.7584C108.303 69.2188 108.303 69.6971 108.198 70.1575L107.318 75.094C107.177 75.8064 106.876 76.4774 106.438 77.0563C105.98 77.6296 105.4 78.0927 104.74 78.4114L68.6619 95.7903C68.1 96.0842 67.4744 96.2353 66.8404 96.2302C66.2093 96.2302 65.5885 96.0697 65.0365 95.7639L35.3296 77.857C34.7851 77.5212 34.3603 77.0225 34.1153 76.4315C33.8702 75.8412 33.8149 75.1892 33.9569 74.5661L34.7665 70.1663C34.9878 69.129 35.5499 68.1956 36.3631 67.5147C37.1764 66.8338 38.1941 66.4445 39.2542 66.409L39.1574 66.365Z" fill="#61F7D0"/>
<path d="M35.8927 84.3341L64.3061 102.162C64.6925 102.381 65.1291 102.496 65.5732 102.496C66.0174 102.496 66.4539 102.381 66.8403 102.162L101.774 84.3517C103.657 83.3925 105.549 84.6069 105.197 86.5427L100.005 114.938C99.6131 116.808 98.6029 118.492 97.1376 119.717C95.6723 120.943 93.8371 121.64 91.9275 121.696H32.0474C31.1974 121.733 30.3507 121.57 29.5748 121.221C28.4039 120.702 27.4511 119.79 26.8808 118.643C26.3105 117.496 26.1585 116.186 26.451 114.938L31.6426 86.5339C31.7231 86.0827 31.9063 85.656 32.1778 85.2868C32.4494 84.9176 32.8022 84.6157 33.2089 84.4045C33.6178 84.1942 34.0692 84.0799 34.5288 84.0701C34.9981 84.0471 35.4659 84.1377 35.8927 84.3341Z" fill="#61F7D0"/>
<path d="M129.976 17.1323H121.441C117.454 17.0641 113.494 17.7903 109.791 19.2688C106.088 20.7472 102.717 22.9481 99.8731 25.7433C97.0297 28.5384 94.7714 31.8717 93.2298 35.5488C91.6882 39.2259 90.8943 43.1732 90.8943 47.1604C90.8943 51.1476 91.6882 55.0948 93.2298 58.7719C94.7714 62.449 97.0297 65.7824 99.8731 68.5775C102.717 71.3726 106.088 73.5736 109.791 75.052C113.494 76.5304 117.454 77.2567 121.441 77.1884H129.976C137.851 77.0536 145.358 73.8307 150.879 68.214C156.401 62.5973 159.495 55.0364 159.495 47.1604C159.495 39.2843 156.401 31.7234 150.879 26.1068C145.358 20.4901 137.851 17.2671 129.976 17.1323Z" fill="#FF926F"/>
<path d="M140.025 45.5371L139.647 45.3875C138.649 45.0091 137.684 44.55 136.761 44.0148C135.133 43.0381 134.385 41.9382 134.385 40.2487C134.391 39.5001 134.621 38.7705 135.044 38.1529C135.467 37.5354 136.065 37.058 136.761 36.7817C137.596 36.4335 138.496 36.2656 139.401 36.2889H140.052C141.59 36.3764 143.091 36.7967 144.451 37.5208L145.384 34.7314C143.748 33.8974 141.94 33.4574 140.104 33.4467V29.7773H136.761V33.7635C133.179 34.6434 130.935 37.2833 130.935 40.627C130.935 43.9708 133.127 46.1707 136.761 47.6666C137.13 47.8338 137.517 47.9834 137.922 48.1241C138.646 48.3908 139.349 48.7114 140.025 49.0833C142.067 50.1832 142.911 51.4679 142.911 53.3862C142.932 54.2843 142.663 55.1651 142.143 55.8976C141.623 56.6301 140.88 57.1751 140.025 57.4515C139.18 57.7612 138.285 57.9133 137.385 57.9003H136.778C134.83 57.7765 132.939 57.1914 131.261 56.1932L130.381 59.053C132.335 60.1361 134.527 60.7166 136.761 60.7425V64.4735H140.025V60.4521C144.311 59.5722 146.405 56.5188 146.405 53.131C146.44 49.3913 144.249 47.2354 140.025 45.5371Z" fill="white"/>
<path d="M105.083 47.1478C105.083 39.0172 108.981 34.3887 114.217 34.3887C119.452 34.3887 123.333 39.0172 123.333 47.1478C123.333 55.2785 119.435 59.8982 114.217 59.8982C108.999 59.8982 105.083 55.2697 105.083 47.1478ZM120.139 47.1478C120.139 40.7683 117.701 37.5565 114.217 37.5565C110.732 37.5565 108.277 40.7683 108.277 47.1478C108.277 53.5274 110.706 56.7304 114.217 56.7304C117.728 56.7304 120.148 53.5274 120.148 47.1478H120.139Z" fill="white"/>
</g>
<defs>
<clipPath id="clip0_304_4422">
<rect width="160" height="160" fill="white"/>
</clipPath>
</defs>
</svg>
