<svg width="384" height="328" viewBox="0 0 384 328" fill="none" xmlns="http://www.w3.org/2000/svg">
<path d="M75.5705 0H311.736C315.309 0 318.733 1.40877 321.259 3.9164C323.782 6.42404 325.2 9.82505 325.2 13.3715V28.1349H62.1061V13.3715C62.1061 9.82505 63.525 6.42404 66.0497 3.9164C68.5749 1.40877 71.9998 0 75.5705 0Z" fill="#4D4D4D"/>
<path d="M62.1061 28.1348H325.2V264.97C325.2 268.18 324.566 271.359 323.328 274.324C322.09 277.29 320.28 279.985 317.992 282.255C315.708 284.525 312.994 286.325 310.009 287.554C307.02 288.782 303.819 289.415 300.587 289.415H86.7205C83.4883 289.415 80.2874 288.782 77.3012 287.554C74.3146 286.325 71.601 284.525 69.3156 282.255C67.0298 279.985 65.2169 277.29 63.9798 274.324C62.7431 271.359 62.1061 268.18 62.1061 264.97V28.1348Z" fill="url(#paint0_linear_164_541)"/>
<path d="M234.006 196.136H161.843V230.94H234.006V196.136Z" fill="#FFCCB3"/>
<path d="M161.418 217.593C152.955 225.863 149.625 266.59 150.071 289.415H250.814C250.814 289.415 250.633 239.639 242.995 222.866C235.971 207.44 224.296 230.195 161.418 217.593Z" fill="black"/>
<path d="M221.881 36.3686C221.881 36.3686 230.24 26.6575 246.464 25.2446C262.69 23.8318 267.545 38.3061 266.851 47.1989C266.158 56.0917 253.442 74.4586 255.985 82.2294C258.528 89.9998 246.57 86.2325 245.267 70.6909C243.963 55.1497 239.108 33.4863 225.93 41.2567L221.881 36.3686Z" fill="black"/>
<path d="M224.418 31.8227C224.418 31.8227 226.417 30.6429 227.865 33.3951C229.313 36.1474 232.016 41.7361 228.589 43.2176C225.162 44.6994 224.418 31.8227 224.418 31.8227Z" fill="#FF926F"/>
<path d="M178.07 120.578C178.07 120.578 191.031 135.026 186.721 139.66C178.183 149.184 155.475 167.085 148.035 173.01C147.714 173.254 147.347 173.433 146.956 173.536C146.565 173.639 146.157 173.664 145.756 173.609C145.355 173.555 144.969 173.422 144.621 173.219C144.271 173.015 143.966 172.745 143.723 172.425L126.129 149.452C125.441 148.568 125.12 147.456 125.232 146.343C125.345 145.231 125.881 144.204 126.732 143.473L160.812 114.288L178.07 120.578Z" fill="#FF926F"/>
<path d="M157.608 138.945C157.608 138.945 141.455 148.48 139.999 167.637L143.216 171.741C143.216 171.741 145.236 175.237 148.035 173.01C150.835 170.783 163.784 160.483 163.784 160.483L157.608 138.945Z" fill="#DE6B47"/>
<path d="M172.711 146.207C182.786 146.207 190.954 138.096 190.954 128.089C190.954 118.083 182.786 109.972 172.711 109.972C162.635 109.972 154.467 118.083 154.467 128.089C154.467 138.096 162.635 146.207 172.711 146.207Z" fill="#FF926F"/>
<path d="M125.204 184.883L109.261 163.918L124.354 152.282L126.72 150.391L143.258 171.869L140.378 173.926L125.204 184.883Z" fill="#FFCCB3"/>
<path d="M140.378 173.926C136.107 168.247 128.076 157.149 124.354 152.282L126.72 150.391L143.216 171.741L140.378 173.926Z" fill="#FF967C"/>
<path d="M116.99 187.791C124.305 187.791 130.234 181.902 130.234 174.639C130.234 167.375 124.305 161.486 116.99 161.486C109.676 161.486 103.747 167.375 103.747 174.639C103.747 181.902 109.676 187.791 116.99 187.791Z" fill="#FFCCB3"/>
<path d="M128.204 167.563C128.204 167.563 85.4826 105.257 83.5079 99.966C81.586 94.7985 71.4952 107.233 71.4952 107.233L104.559 178.874L128.204 167.563Z" fill="#FFCCB3"/>
<path d="M187.019 80.6742L181.883 116.233C181.883 116.233 180.534 120.953 186.518 121.667C192.501 122.382 205.259 120.786 209.816 115.963C214.372 111.141 212.778 108.752 212.778 108.752L203.115 70.1562L187.019 80.6742Z" fill="#FFCCB3"/>
<path d="M186.304 85.2757L198.867 80.8691L183.303 103.777L186.304 85.2757Z" fill="#FF967C"/>
<path d="M172.805 36.7517C172.805 36.7517 162.027 61.9008 167.645 79.1374C171.308 90.3785 179.285 92.3995 197.555 83.9754C214.307 76.2515 218.658 70.4086 218.658 70.4086L221.128 42.3737C221.128 42.3737 183.751 14.336 172.805 36.7517Z" fill="#FFCCB3"/>
<path d="M181.792 106.01C181.792 106.01 167.986 109.82 165.184 112.046C162.382 114.272 160.344 132.365 156.203 141.302C150.072 154.534 146.103 161.572 156.403 176.112C162.615 184.882 160.502 207.178 160.502 207.178H236.134C233.842 163.339 243.982 111.66 243.982 111.66L209.848 103.849C202.152 105.166 181.792 106.01 181.792 106.01Z" fill="#FF926F"/>
<path d="M179.378 106.717C179.378 106.717 180.399 99.8257 183.661 99.3406C186.924 98.8554 206.863 95.877 209.964 97.174C213.065 98.4707 216.819 106.717 216.819 106.717C216.819 106.717 210.454 122.136 201.313 122.947C192.173 123.757 176.441 120.959 178.104 115.226C179.768 109.493 179.378 106.717 179.378 106.717Z" fill="#FF926F"/>
<path d="M173.168 108.812C173.168 108.812 175.374 122.111 187.352 121.902C199.33 121.692 216.736 103.849 216.736 103.849" stroke="white" stroke-width="1.35709" stroke-miterlimit="10"/>
<path d="M227.438 128.09C227.438 128.09 215.536 135.905 219.042 143.79C222.985 152.657 222.951 175.492 211.636 176.923C191.448 179.477 200.219 182.983 209.553 185.223C218.888 187.463 215.066 187.465 215.066 197.069C215.066 203.904 236.695 209.83 236.134 204.307C232.373 167.357 248.006 143.96 227.438 128.09Z" fill="#DE6B47"/>
<path d="M171.845 73.7529L181.871 74.2455C181.835 74.368 181.781 74.5357 181.702 74.7329C181.532 75.1608 181.249 75.7246 180.8 76.2704C179.911 77.3527 178.357 78.3813 175.673 78.1117C173.978 77.7892 173.014 76.6575 172.468 75.5861C172.195 75.0496 172.03 74.5318 171.932 74.1482C171.893 73.9906 171.864 73.8564 171.845 73.7529Z" fill="#E56441" stroke="#E56441"/>
<path d="M172.507 57.2211C172.925 55.6786 172.411 54.1995 171.357 53.917C170.303 53.6346 169.109 54.6562 168.69 56.1987C168.271 57.7412 168.786 59.2204 169.84 59.5028C170.893 59.7848 172.087 58.7636 172.507 57.2211Z" fill="#080B09"/>
<path d="M188.017 61.6126C188.436 60.0701 187.921 58.591 186.867 58.3085C185.813 58.0265 184.619 59.0477 184.2 60.5902C183.781 62.1327 184.296 63.6119 185.35 63.8943C186.404 64.1767 187.598 63.1551 188.017 61.6126Z" fill="#080B09"/>
<path d="M168.584 49.2535L176.469 51.5044C176.606 51.5317 176.749 51.5083 176.87 51.4391C176.992 51.3698 177.083 51.2593 177.129 51.1278C177.165 50.8808 177.15 50.6291 177.086 50.3879C177.021 50.1463 176.908 49.9207 176.753 49.7242C176.598 49.5274 176.405 49.364 176.185 49.2438C175.965 49.1235 175.722 49.0485 175.472 49.024L168.699 48.3163C168.18 48.177 167.935 49.0796 168.584 49.2535Z" fill="#080B09"/>
<path d="M195.541 55.9468L184.848 53.7741C184.944 53.4582 185.107 53.1656 185.324 52.9159C185.541 52.6657 185.809 52.4638 186.11 52.323C186.41 52.1821 186.737 52.1051 187.07 52.0973C187.403 52.0896 187.733 52.151 188.04 52.2778L195.845 55.3372C196.105 55.4065 195.93 56.0515 195.541 55.9468Z" fill="#080B09"/>
<path d="M177.275 57.6621L172.203 64.4445L174.113 67.1261" stroke="#E56441" stroke-width="2.23881" stroke-linecap="round"/>
<path d="M186.706 131.658C187.688 131.658 188.484 129.474 188.484 126.78C188.484 124.086 187.688 121.901 186.706 121.901C185.724 121.901 184.928 124.086 184.928 126.78C184.928 129.474 185.724 131.658 186.706 131.658Z" fill="white"/>
<path d="M268.661 198.78L242.296 200.925L237.794 181.949L232.372 167.357L260.12 164.06L263.588 180.39L268.661 198.78Z" fill="#FFCCB3"/>
<path d="M261.056 168.47L262.029 173.049L234.704 173.633L232.907 168.796L261.056 168.47Z" fill="#FF967C"/>
<path d="M239.446 147.326C249.521 147.326 257.689 139.215 257.689 129.209C257.689 119.203 249.521 111.091 239.446 111.091C229.37 111.091 221.202 119.203 221.202 129.209C221.202 139.215 229.37 147.326 239.446 147.326Z" fill="#FF926F"/>
<path d="M235.927 120.69C235.927 120.69 255.154 117.556 256.787 123.653C260.314 135.914 264.65 155.597 265.705 165.011C265.74 165.41 265.696 165.814 265.574 166.197C265.452 166.58 265.255 166.936 264.994 167.242C264.733 167.549 264.413 167.802 264.054 167.986C263.694 168.17 263.301 168.281 262.898 168.313L233.941 170.768C232.82 170.871 231.702 170.545 230.817 169.855C229.931 169.165 229.345 168.165 229.179 167.06L221.337 131.796L235.927 120.69Z" fill="#FF926F"/>
<path d="M179.525 32.9016C179.525 32.9016 180.207 45.43 190.627 51.5011C190.627 51.5011 193.674 61.1101 205.047 63.37C205.047 63.37 204.375 54.5382 209.795 54.6316C219 54.7904 214.472 69.011 208.25 71.3439C204.02 72.9295 201.473 78.5569 207.751 91.3818C222.166 86.1454 232.303 64.9971 228.329 41.5342C225.146 22.7448 202.276 16.609 197.577 17.2211C197.577 17.2211 178.063 10.3548 167.788 29.1862C159.005 45.284 167.208 54.8914 167.208 54.8914L171.889 40.5643C171.889 40.5643 173.844 41.9627 179.525 32.9016Z" fill="black"/>
<path d="M268.759 244.047H198.925C197.574 244.047 196.27 243.557 195.257 242.67C194.245 241.782 193.593 240.558 193.425 239.226L186.98 188.139C186.882 187.364 186.951 186.578 187.183 185.832C187.414 185.086 187.803 184.397 188.324 183.812C188.844 183.226 189.483 182.758 190.2 182.437C190.916 182.115 191.694 181.949 192.48 181.949H275.204C275.99 181.949 276.767 182.115 277.484 182.437C278.201 182.758 278.84 183.226 279.36 183.812C279.88 184.397 280.269 185.086 280.501 185.832C280.733 186.578 280.802 187.364 280.704 188.139L274.259 239.226C274.091 240.558 273.439 241.782 272.427 242.67C271.413 243.557 270.109 244.047 268.759 244.047Z" fill="url(#paint1_linear_164_541)"/>
<path d="M234.006 216.913C236.714 216.913 238.908 214.734 238.908 212.046C238.908 209.357 236.714 207.178 234.006 207.178C231.299 207.178 229.105 209.357 229.105 212.046C229.105 214.734 231.299 216.913 234.006 216.913Z" fill="white"/>
<path d="M73.3109 111.326L69.1029 103.309C69.1029 103.309 54.2231 94.8557 52.4987 91.7998C50.7739 88.7432 50.0962 80.0172 53.149 77.7829C53.149 77.7829 41.2774 68.9278 43.2983 67.1335C45.3127 65.2094 68.6371 82.4167 68.6371 82.4167C68.6371 82.4167 65.7974 69.7397 70.1128 69.1456C71.2817 74.0591 73.2843 78.7392 76.0347 82.9851C80.5781 89.9613 81.1378 96.2095 81.1378 96.2095L86.4925 106.415L73.3109 111.326Z" fill="#FFCCB3"/>
<path d="M53.9493 78.0068L61.1392 82.5064" stroke="#FF967C" stroke-width="1.5" stroke-linecap="round" stroke-linejoin="round"/>
<path d="M52.8776 83.1543L58.9795 86.9209" stroke="#FF967C" stroke-width="1.5" stroke-linecap="round" stroke-linejoin="round"/>
<path d="M54.0634 88.7197L58.1333 91.2741" stroke="#FF967C" stroke-width="1.5" stroke-linecap="round" stroke-linejoin="round"/>
<path d="M82.0735 17.4698C83.9661 17.4698 85.5002 15.9464 85.5002 14.0669C85.5002 12.1875 83.9661 10.6641 82.0735 10.6641C80.181 10.6641 78.6469 12.1875 78.6469 14.0669C78.6469 15.9464 80.181 17.4698 82.0735 17.4698Z" fill="white"/>
<path d="M95.9129 17.4698C97.8054 17.4698 99.3395 15.9464 99.3395 14.0669C99.3395 12.1875 97.8054 10.6641 95.9129 10.6641C94.0203 10.6641 92.4862 12.1875 92.4862 14.0669C92.4862 15.9464 94.0203 17.4698 95.9129 17.4698Z" fill="white"/>
<path d="M108.916 17.4698C110.809 17.4698 112.343 15.9464 112.343 14.0669C112.343 12.1875 110.809 10.6641 108.916 10.6641C107.024 10.6641 105.49 12.1875 105.49 14.0669C105.49 15.9464 107.024 17.4698 108.916 17.4698Z" fill="white"/>
<path opacity="0.7" d="M5.98773 13.6506C19.764 25.3185 56.0949 51.9222 102.237 53.1931C103.181 53.2212 104.076 53.6137 104.733 54.2871C105.39 54.9601 105.756 55.8615 105.755 56.7991V129.406C105.755 130.332 105.397 131.223 104.755 131.894C104.112 132.565 103.233 132.965 102.302 133.011C88.4289 133.696 35.8213 133.617 0.96291 96.5537C0.341223 95.888 -0.00272589 95.0127 1.62712e-05 94.1051V16.4003C-0.000375466 15.7113 0.197844 15.0363 0.571561 14.4555C0.945279 13.8751 1.47844 13.4125 2.10835 13.1235C2.73787 12.834 3.4383 12.7297 4.1258 12.8235C4.8133 12.9169 5.45927 13.2036 5.98773 13.6506Z" fill="#39F4C4"/>
<path d="M11.2134 35.0469C11.2134 35.0469 22.0849 45.5372 36.9449 52.0535" stroke="white" stroke-width="5" stroke-miterlimit="10" stroke-linecap="round"/>
<path opacity="0.4" d="M11.2135 47.7646C11.2135 47.7646 26.3432 61.7796 46.0245 66.9833" stroke="white" stroke-width="5" stroke-miterlimit="10" stroke-linecap="round"/>
<path d="M8.95972 94.2685V63.9414L19.6667 71.5501V102.61L8.95972 94.2685Z" fill="white"/>
<path d="M27.031 106.523V84.915L37.738 91.2738V112.634L27.031 106.523Z" fill="white"/>
<path d="M72.8131 123.439V101.831L62.1061 100.376V121.737L72.8131 123.439Z" fill="white"/>
<path d="M90.3995 124.364V86.5322H79.6925V124.117L90.3995 124.364Z" fill="white"/>
<path d="M44.5688 115.991V106.112L55.2758 109.102V119.842L44.5688 115.991Z" fill="white"/>
<path d="M254.539 241.962C254.539 241.962 258.23 242.266 257.674 244.116C257.118 245.966 253.823 245.112 250.814 246.962C247.806 248.811 235.91 250.131 229.969 249.148C224.027 248.164 222.376 241.962 222.376 241.962C222.376 241.962 221.383 236.078 231.878 235.473C242.373 234.869 247.258 238.214 249.083 241.839L254.539 241.962Z" fill="#FFCCB3"/>
<path d="M226.838 236.388L229.105 242.442" stroke="#E56441" stroke-width="1.5" stroke-linecap="round"/>
<path d="M232.708 235.402L234.975 241.457" stroke="#E56441" stroke-width="1.5" stroke-linecap="round"/>
<path d="M238.908 235.915L241.175 241.97" stroke="#E56441" stroke-width="1.5" stroke-linecap="round"/>
<path opacity="0.7" d="M366.231 161.294C347.016 177.569 296.339 214.679 231.975 216.452C230.659 216.491 229.41 217.038 228.494 217.978C227.577 218.917 227.066 220.174 227.068 221.482V322.761C227.067 324.053 227.567 325.295 228.463 326.232C229.36 327.168 230.585 327.726 231.884 327.789C251.236 328.746 324.617 328.634 373.243 276.936C374.109 276.007 374.591 274.786 374.587 273.52V165.13C374.587 164.168 374.309 163.227 373.787 162.417C373.266 161.607 372.522 160.962 371.645 160.558C370.767 160.155 369.788 160.01 368.832 160.14C367.872 160.271 366.971 160.671 366.231 161.294Z" fill="#39F4C4"/>
<path d="M358.945 191.139C358.945 191.139 343.78 205.772 323.054 214.862" stroke="white" stroke-width="5" stroke-miterlimit="10" stroke-linecap="round"/>
<path opacity="0.4" d="M358.945 208.88C358.945 208.88 337.838 228.429 310.385 235.688" stroke="white" stroke-width="5" stroke-miterlimit="10" stroke-linecap="round"/>
<path d="M240.319 283.832C240.319 283.832 254.423 280.899 260.872 274.105C269.416 265.103 271.387 254.308 280.748 253.198C295.44 251.455 303.956 302.966 321.792 295.997C339.628 289.028 335.413 250.561 346.025 244.041C353.335 239.55 357.135 252.907 367.371 249.423" stroke="white" stroke-width="7" stroke-miterlimit="10" stroke-linecap="round"/>
<path opacity="0.7" d="M101.517 250.277C112.06 253.267 136.726 258.609 169.046 254.924C169.565 254.851 170.094 254.89 170.597 255.041C171.099 255.19 171.562 255.447 171.954 255.793C172.347 256.139 172.658 256.565 172.868 257.043C173.078 257.52 173.18 258.037 173.168 258.558V308.095C173.145 309.188 172.733 310.238 172.007 311.059C171.281 311.88 170.286 312.421 169.197 312.586C157.69 314.148 123.521 317.49 98.0579 306.572C97.4064 306.286 96.8548 305.815 96.4729 305.217C96.0909 304.62 95.8963 303.924 95.9127 303.217V254.659C95.9127 251.786 98.8241 249.514 101.517 250.277Z" fill="url(#paint2_linear_164_541)"/>
<path d="M55.223 237.562V245.706" stroke="white" stroke-width="2.42819" stroke-miterlimit="10"/>
<g opacity="0.7">
<path d="M32.8026 164.1C46.5789 174.145 82.9098 200.361 129.052 196.197C129.5 196.145 129.955 196.189 130.386 196.327C130.816 196.465 131.211 196.693 131.545 196.995C131.879 197.298 132.143 197.668 132.32 198.082C132.496 198.495 132.582 198.94 132.57 199.389V271.996C132.546 272.957 132.19 273.88 131.561 274.611C130.932 275.342 130.069 275.835 129.117 276.008C115.243 278.327 57.544 277.182 27.7774 247.595C27.4695 247.288 27.2258 246.924 27.0605 246.523C26.8952 246.122 26.8118 245.693 26.8149 245.26V167.555C26.8149 164.478 30.4447 162.38 32.8026 164.1Z" fill="#39F4C4"/>
</g>
<path d="M55.223 237.561C47.5355 234.87 41.3038 226.498 41.3038 218.864C41.3038 211.229 47.5355 207.223 55.223 209.915V201.042C42.8037 196.693 32.7361 203.166 32.7361 215.499C32.7361 227.833 42.8037 241.356 55.223 245.705C67.1177 249.87 76.8489 244.105 77.6504 232.775L69.0882 229.777C68.4829 236.645 62.5085 240.113 55.223 237.561Z" fill="white"/>
<path d="M58.0782 199.207V208.08C65.766 210.772 71.998 219.143 71.998 226.777C71.998 227.177 71.9772 227.563 71.9439 227.942L80.5061 230.941C80.5413 230.441 80.566 229.934 80.566 229.413C80.566 217.079 70.4976 203.556 58.0782 199.207Z" fill="black"/>
<path d="M41.3041 218.865L32.7361 215.864" stroke="white" stroke-width="2.42819" stroke-miterlimit="10"/>
<path d="M91.2847 220.133L107.183 223.133" stroke="white" stroke-width="5" stroke-miterlimit="10" stroke-linecap="round"/>
<path opacity="0.4" d="M91.2847 244.871L107.183 247.871" stroke="white" stroke-width="5" stroke-miterlimit="10" stroke-linecap="round"/>
<path d="M91.2845 232.754L114.126 237.064" stroke="white" stroke-width="5" stroke-miterlimit="10" stroke-linecap="round"/>
<path d="M378.01 19.7393C364.233 29.7848 339.032 55.1163 284.031 63.5327C279.82 64.1769 278.243 67.1522 278.243 70.44V139.696C278.267 140.657 278.623 141.58 279.252 142.311C279.881 143.041 280.744 143.535 281.697 143.707C295.57 146.027 348.998 132.492 380.948 105.242C384 102.639 384 98.273 384 97.3658V23.1945C384 20.1173 380.369 18.02 378.01 19.7393Z" fill="url(#paint3_linear_164_541)"/>
<path d="M285.516 75.8743V118.71C285.515 119.084 285.599 119.452 285.762 119.788C285.924 120.124 286.16 120.419 286.453 120.653C286.746 120.886 287.088 121.051 287.454 121.135C287.819 121.219 288.199 121.221 288.566 121.14C296.423 119.392 317.675 114.34 331.096 108.052C331.527 107.85 331.887 107.532 332.142 107.133C332.393 106.735 332.53 106.273 332.526 105.802V64.0866C332.53 63.6695 332.424 63.2591 332.22 62.8926C332.02 62.5265 331.73 62.2169 331.374 61.9916C331.021 61.7664 330.618 61.6329 330.199 61.6038C329.78 61.5746 329.36 61.6504 328.977 61.8247C321.498 65.2455 303.525 72.7181 287.893 73.3903C287.251 73.4207 286.645 73.6961 286.203 74.1587C285.76 74.6212 285.514 75.2359 285.516 75.8743Z" fill="white"/>
<path d="M287.458 111.815V116.32C287.458 116.662 287.537 116.998 287.69 117.304C287.842 117.61 288.063 117.877 288.336 118.084C288.609 118.29 288.927 118.432 289.264 118.497C289.601 118.562 289.949 118.55 290.28 118.46L313.789 112.077C314.161 111.976 314.498 111.783 314.772 111.514C315.046 111.246 315.242 110.912 315.348 110.545C315.454 110.178 315.461 109.791 315.371 109.42C315.281 109.049 315.097 108.707 314.839 108.428L302.233 94.9609C302.005 94.7193 301.731 94.5306 301.422 94.4093C301.112 94.2875 300.779 94.2358 300.448 94.2579C300.116 94.2801 299.794 94.3754 299.504 94.5369C299.215 94.6987 298.965 94.9224 298.773 95.192L287.867 110.536C287.601 110.91 287.458 111.357 287.458 111.815Z" fill="black"/>
<path opacity="0.6" d="M311.427 101.248L318.482 108.682C318.71 108.921 319.003 109.088 319.325 109.16C319.646 109.232 319.983 109.207 320.292 109.088C322.376 108.279 327.058 106.451 329.428 105.439C329.726 105.312 329.976 105.101 330.157 104.832C330.333 104.563 330.427 104.248 330.427 103.927V96.9606C330.427 96.605 330.309 96.2591 330.098 95.9748L320.179 82.7795C319.998 82.5426 319.759 82.3574 319.485 82.2438C319.211 82.1302 318.909 82.0921 318.615 82.1333C318.322 82.175 318.044 82.294 317.808 82.4788C317.577 82.6636 317.401 82.9067 317.295 83.1833L311.082 99.5356C310.972 99.8246 310.945 100.138 311.008 100.441C311.066 100.744 311.215 101.023 311.427 101.248Z" fill="black"/>
<path d="M305.234 89.6395C307.326 89.6395 309.022 87.9558 309.022 85.8784C309.022 83.8009 307.326 82.1172 305.234 82.1172C303.142 82.1172 301.445 83.8009 301.445 85.8784C301.445 87.9558 303.142 89.6395 305.234 89.6395Z" fill="#FEBB94"/>
<path d="M343.447 60.427C353.166 55.5322 362.521 49.9515 371.437 43.7285" stroke="white" stroke-width="5" stroke-miterlimit="10" stroke-linecap="round"/>
<path d="M343.447 76.6752C343.447 76.6752 349.817 73.5921 358.557 68.3262" stroke="white" stroke-width="5" stroke-miterlimit="10" stroke-linecap="round"/>
<path d="M343.447 92.5598C353.166 87.6646 362.521 82.0843 371.437 75.8613" stroke="white" stroke-width="5" stroke-miterlimit="10" stroke-linecap="round"/>
<path d="M343.447 110.395C353.166 105.5 362.521 99.9193 371.437 93.6963" stroke="white" stroke-width="5" stroke-miterlimit="10" stroke-linecap="round"/>
<path d="M290.917 133.493C292.828 133.493 294.377 131.955 294.377 130.058C294.377 128.16 292.828 126.622 290.917 126.622C289.007 126.622 287.458 128.16 287.458 130.058C287.458 131.955 289.007 133.493 290.917 133.493Z" fill="white"/>
<path d="M310.977 127.935C312.884 127.935 314.436 126.397 314.436 124.5C314.436 122.602 312.884 121.064 310.977 121.064C309.065 121.064 307.517 122.602 307.517 124.5C307.517 126.397 309.065 127.935 310.977 127.935Z" fill="white"/>
<path d="M329.067 121.798C330.979 121.798 332.526 120.26 332.526 118.363C332.526 116.466 330.979 114.928 329.067 114.928C327.159 114.928 325.608 116.466 325.608 118.363C325.608 120.26 327.159 121.798 329.067 121.798Z" fill="white"/>
<defs>
<linearGradient id="paint0_linear_164_541" x1="161.93" y1="-297.559" x2="301.074" y2="571.202" gradientUnits="userSpaceOnUse">
<stop stop-color="white"/>
<stop offset="1" stop-color="#C4C4C4"/>
</linearGradient>
<linearGradient id="paint1_linear_164_541" x1="231.506" y1="181.802" x2="241.017" y2="314.327" gradientUnits="userSpaceOnUse">
<stop stop-color="white"/>
<stop offset="1" stop-color="#C4C4C4"/>
</linearGradient>
<linearGradient id="paint2_linear_164_541" x1="132.617" y1="249.975" x2="144.92" y2="386.559" gradientUnits="userSpaceOnUse">
<stop stop-color="white"/>
<stop offset="1" stop-color="#39F4C4"/>
</linearGradient>
<linearGradient id="paint3_linear_164_541" x1="318.368" y1="-136.498" x2="396.592" y2="274.359" gradientUnits="userSpaceOnUse">
<stop stop-color="white"/>
<stop offset="1" stop-color="#39F4C4"/>
</linearGradient>
</defs>
</svg>
