<svg width="97" height="96" viewBox="0 0 97 96" fill="none" xmlns="http://www.w3.org/2000/svg">
<path d="M48.5 96C75.0097 96 96.5 74.5097 96.5 48C96.5 21.4903 75.0097 0 48.5 0C21.9903 0 0.5 21.4903 0.5 48C0.5 74.5097 21.9903 96 48.5 96Z" fill="#39F4C4"/>
<path fill-rule="evenodd" clip-rule="evenodd" d="M19.458 50.8783C19.458 50.0491 20.1296 49.377 20.958 49.377H29.6158C30.4442 49.377 31.1158 50.0491 31.1158 50.8783V74.6977C31.1158 75.5269 30.4442 76.1991 29.6158 76.1991H20.958C20.1296 76.1991 19.458 75.5269 19.458 74.6977V50.8783ZM22.458 52.3797V73.1964H28.1158V52.3797H22.458Z" fill="white"/>
<path fill-rule="evenodd" clip-rule="evenodd" d="M34.1914 36.9672C34.1914 36.138 34.863 35.4658 35.6914 35.4658H44.3492C45.1776 35.4658 45.8492 36.138 45.8492 36.9672V74.6994C45.8492 75.5286 45.1776 76.2008 44.3492 76.2008H35.6914C34.863 76.2008 34.1914 75.5286 34.1914 74.6994V36.9672ZM37.1914 38.4686V73.198H42.8492V38.4686H37.1914Z" fill="white"/>
<path fill-rule="evenodd" clip-rule="evenodd" d="M48.9258 41.4857C48.9258 40.6566 49.5974 39.9844 50.4258 39.9844H59.0836C59.912 39.9844 60.5836 40.6566 60.5836 41.4857V74.6993C60.5836 75.5285 59.912 76.2007 59.0836 76.2007H50.4258C49.5974 76.2007 48.9258 75.5285 48.9258 74.6993V41.4857ZM51.9258 42.9871V73.198H57.5836V42.9871H51.9258Z" fill="#FF926F"/>
<path fill-rule="evenodd" clip-rule="evenodd" d="M63.6597 21.2992C63.6597 20.47 64.3312 19.7979 65.1597 19.7979H73.8175C74.6459 19.7979 75.3175 20.47 75.3175 21.2992V74.6978C75.3175 75.527 74.6459 76.1991 73.8175 76.1991H65.1597C64.3312 76.1991 63.6597 75.527 63.6597 74.6978V21.2992ZM66.6597 22.8006V73.1964H72.3175V22.8006H66.6597Z" fill="white"/>
<rect x="51.125" y="42.75" width="7.125" height="30.625" fill="#FF926F"/>
</svg>
