<svg width="96" height="96" viewBox="0 0 96 96" fill="none" xmlns="http://www.w3.org/2000/svg">
<path d="M48 96C74.5097 96 96 74.5097 96 48C96 21.4903 74.5097 0 48 0C21.4903 0 0 21.4903 0 48C0 74.5097 21.4903 96 48 96Z" fill="#39F4C4"/>
<path d="M55.7145 45.0658H41.0471C40.2543 45.0658 39.6597 44.4859 39.6597 43.7128V40.0401C39.6597 35.4011 43.6238 31.5352 48.3808 31.5352C53.1378 31.5352 57.102 35.4011 57.102 40.0401V43.7128C57.102 44.4859 56.5074 45.0658 55.7145 45.0658ZM42.2364 42.553H54.5253V40.0401C54.5253 36.7541 51.7504 34.048 48.3808 34.048C45.0113 34.048 42.2364 36.7541 42.2364 40.0401V42.553Z" fill="#FF926F"/>
<path fill-rule="evenodd" clip-rule="evenodd" d="M48.3808 31.7856C43.7557 31.7856 39.9097 35.5456 39.9097 40.0404V43.713C39.9097 44.3419 40.3862 44.8158 41.0471 44.8158H55.7145C56.3755 44.8158 56.852 44.3419 56.852 43.713V40.0404C56.852 35.5456 53.0059 31.7856 48.3808 31.7856ZM39.4097 40.0404C39.4097 35.257 43.4919 31.2852 48.3808 31.2852C53.2697 31.2852 57.352 35.257 57.352 40.0404V43.713C57.352 44.6305 56.6393 45.3163 55.7145 45.3163H41.0471C40.1224 45.3163 39.4097 44.6305 39.4097 43.713V40.0404ZM41.9864 40.0404C41.9864 36.6101 44.8794 33.798 48.3808 33.798C51.8823 33.798 54.7753 36.6101 54.7753 40.0404V42.8034H42.2364V42.5532H41.9864V40.0404ZM42.4864 42.303H54.2753V40.0404C54.2753 36.8986 51.6185 34.2985 48.3808 34.2985C45.1432 34.2985 42.4864 36.8986 42.4864 40.0404V42.303Z" fill="#FF926F"/>
<path d="M57.6963 62.4622H38.8665C36.8845 62.4622 35.1006 60.9158 35.1006 58.7895V43.9058C35.1006 43.1326 35.6952 42.5527 36.488 42.5527H60.273C61.0658 42.5527 61.6605 43.1326 61.6605 43.9058V58.7895C61.6605 60.7225 59.8766 62.4622 57.6963 62.4622ZM37.8755 45.0656V58.7895C37.8755 59.3694 38.4701 59.9493 39.0647 59.9493H57.8945C58.4891 59.9493 59.0838 59.3694 59.0838 58.7895V45.0656H37.8755Z" fill="white"/>
<path fill-rule="evenodd" clip-rule="evenodd" d="M36.488 42.8032C35.8271 42.8032 35.3506 43.2771 35.3506 43.906V58.7898C35.3506 60.7633 37.0076 62.2121 38.8665 62.2121H57.6963C59.7531 62.2121 61.4105 60.5703 61.4105 58.7898V43.906C61.4105 43.2771 60.9339 42.8032 60.273 42.8032H36.488ZM34.8506 43.906C34.8506 42.9886 35.5633 42.3027 36.488 42.3027H60.273C61.1977 42.3027 61.9105 42.9886 61.9105 43.906V58.7898C61.9105 60.8751 60.0001 62.7126 57.6963 62.7126H38.8665C36.7613 62.7126 34.8506 61.0687 34.8506 58.7898V43.906ZM37.6255 44.8156H59.3338V58.7898C59.3338 59.1634 59.1449 59.5144 58.8866 59.7663C58.6279 60.0186 58.2709 60.1998 57.8945 60.1998H39.0647C38.6884 60.1998 38.3314 60.0186 38.0727 59.7663C37.8144 59.5144 37.6255 59.1634 37.6255 58.7898V44.8156ZM38.1255 45.316V58.7898C38.1255 58.996 38.2339 59.2249 38.4216 59.4079C38.6089 59.5905 38.8465 59.6993 39.0647 59.6993H57.8945C58.1128 59.6993 58.3504 59.5905 58.5377 59.4079C58.7253 59.2249 58.8338 58.996 58.8338 58.7898V45.316H38.1255Z" fill="white"/>
<path fill-rule="evenodd" clip-rule="evenodd" d="M47.9999 74.2944C62.332 74.2944 73.9505 62.6654 73.9505 48.3202C73.9505 33.975 62.332 22.346 47.9999 22.346C33.6678 22.346 22.0493 33.975 22.0493 48.3202C22.0493 62.6654 33.6678 74.2944 47.9999 74.2944ZM47.9999 77.7976C64.265 77.7976 77.4505 64.6001 77.4505 48.3202C77.4505 32.0403 64.265 18.8428 47.9999 18.8428C31.7348 18.8428 18.5493 32.0403 18.5493 48.3202C18.5493 64.6001 31.7348 77.7976 47.9999 77.7976Z" fill="white"/>
</svg>
