<svg width="97" height="96" viewBox="0 0 97 96" fill="none" xmlns="http://www.w3.org/2000/svg">
<path d="M48.5 96C75.0097 96 96.5 74.5097 96.5 48C96.5 21.4903 75.0097 0 48.5 0C21.9903 0 0.5 21.4903 0.5 48C0.5 74.5097 21.9903 96 48.5 96Z" fill="#39F4C4"/>
<path fill-rule="evenodd" clip-rule="evenodd" d="M56.128 28.8748C53.4275 28.8748 51.2383 31.066 51.2383 33.7689C51.2383 36.4719 53.4275 38.6631 56.128 38.6631C58.8284 38.6631 61.0176 36.4719 61.0176 33.7689C61.0176 31.066 58.8284 28.8748 56.128 28.8748ZM48.2383 33.7689C48.2383 29.4076 51.7706 25.8721 56.128 25.8721C60.4853 25.8721 64.0176 29.4076 64.0176 33.7689C64.0176 38.1302 60.4853 41.6658 56.128 41.6658C51.7706 41.6658 48.2383 38.1302 48.2383 33.7689Z" fill="white"/>
<path fill-rule="evenodd" clip-rule="evenodd" d="M56.128 59.3387C53.4275 59.3387 51.2383 61.5298 51.2383 64.2328C51.2383 66.9357 53.4275 69.1269 56.128 69.1269C58.8284 69.1269 61.0176 66.9357 61.0176 64.2328C61.0176 61.5298 58.8284 59.3387 56.128 59.3387ZM48.2383 64.2328C48.2383 59.8715 51.7706 56.3359 56.128 56.3359C60.4853 56.3359 64.0176 59.8715 64.0176 64.2328C64.0176 68.5941 60.4853 72.1297 56.128 72.1297C51.7706 72.1297 48.2383 68.5941 48.2383 64.2328Z" fill="white"/>
<path fill-rule="evenodd" clip-rule="evenodd" d="M74.4947 44.1053C71.7942 44.1053 69.605 46.2964 69.605 48.9994C69.605 51.7023 71.7942 53.8935 74.4947 53.8935C77.1951 53.8935 79.3843 51.7023 79.3843 48.9994C79.3843 46.2964 77.1951 44.1053 74.4947 44.1053ZM66.605 48.9994C66.605 44.6381 70.1373 41.1025 74.4947 41.1025C78.852 41.1025 82.3843 44.6381 82.3843 48.9994C82.3843 53.3607 78.852 56.8963 74.4947 56.8963C70.1373 56.8963 66.605 53.3607 66.605 48.9994Z" fill="white"/>
<path fill-rule="evenodd" clip-rule="evenodd" d="M68.1053 49.9773H26.6494V46.9746H68.1053V49.9773Z" fill="white"/>
<path fill-rule="evenodd" clip-rule="evenodd" d="M26.1987 33.768C26.1987 32.9388 26.8703 32.2666 27.6987 32.2666H49.7386V35.2693H29.1987V62.7307H49.7386V65.7334H27.6987C26.8703 65.7334 26.1987 65.0613 26.1987 64.2321V33.768Z" fill="white"/>
<path d="M34.0879 49C34.0879 52.5321 31.2272 55.3955 27.6983 55.3955C24.1693 55.3955 21.3086 52.5321 21.3086 49C21.3086 45.4679 24.1693 42.6045 27.6983 42.6045C31.2272 42.6045 34.0879 45.4679 34.0879 49Z" fill="#FF926F"/>
<path fill-rule="evenodd" clip-rule="evenodd" d="M27.6983 44.1053C24.9978 44.1053 22.8086 46.2964 22.8086 48.9994C22.8086 51.7023 24.9978 53.8935 27.6983 53.8935C30.3988 53.8935 32.5879 51.7023 32.5879 48.9994C32.5879 46.2964 30.3988 44.1053 27.6983 44.1053ZM19.8086 48.9994C19.8086 44.6381 23.3409 41.1025 27.6983 41.1025C32.0556 41.1025 35.5879 44.6381 35.5879 48.9994C35.5879 53.3607 32.0556 56.8963 27.6983 56.8963C23.3409 56.8963 19.8086 53.3607 19.8086 48.9994Z" fill="#FF926F"/>
</svg>
