<svg width="97" height="96" viewBox="0 0 97 96" fill="none" xmlns="http://www.w3.org/2000/svg">
<path d="M48.5 96C75.0097 96 96.5 74.5097 96.5 48C96.5 21.4903 75.0097 0 48.5 0C21.9903 0 0.5 21.4903 0.5 48C0.5 74.5097 21.9903 96 48.5 96Z" fill="#39F4C4"/>
<g clip-path="url(#clip0_185_889)">
<path fill-rule="evenodd" clip-rule="evenodd" d="M47.6235 78.8072V24.5674H51.6235V78.8072H47.6235Z" fill="#FF926F"/>
<path fill-rule="evenodd" clip-rule="evenodd" d="M49.6559 51.3857L70.4163 58.3118L69.1515 62.11L49.6559 55.6059L30.1604 62.11L28.8955 58.3118L49.6559 51.3857Z" fill="#FF926F"/>
<path d="M49.3077 80.4815C49.0301 80.4815 48.8913 80.3395 48.7525 80.1975C45.4211 77.2157 42.7837 74.6599 40.2851 72.5301C26.1264 59.893 25.9876 59.609 26.1264 37.7426C26.1264 34.7608 26.1264 31.4951 26.1264 27.8033C26.1264 27.5193 26.2652 27.2354 26.4041 27.0934C26.5429 26.9514 26.8205 26.8094 27.0981 26.9514C34.8715 28.3713 42.0896 26.9514 48.6137 22.5497C48.8913 22.2657 49.4466 22.4077 49.7242 22.5497C54.7213 26.8094 61.6619 28.2293 71.1009 26.8094C71.3786 26.8094 71.6562 26.8094 71.795 27.0934C71.9338 27.2354 72.0726 27.5193 72.0726 27.8033C72.0726 32.631 72.0726 36.4647 72.2114 40.0144C72.489 59.467 72.3502 59.751 57.6364 73.098C55.4154 75.0859 52.778 77.4997 49.7242 80.3395C49.7242 80.3395 49.4466 80.4815 49.3077 80.4815ZM28.0698 28.7972C28.0698 32.063 28.0698 35.0448 28.0698 37.7426C27.931 59.0411 27.931 59.0411 41.5344 71.2522C43.7553 73.24 46.3927 75.6539 49.4466 78.3517C52.2228 75.7958 54.5825 73.524 56.8035 71.6781C71.1009 58.7571 71.1009 58.7571 70.8233 40.0144C70.8233 36.7487 70.6845 33.1989 70.6845 28.9392C61.6618 30.0752 54.5825 28.6553 49.4466 24.5376C42.7837 28.5133 35.7043 29.9332 28.0698 28.7972Z" fill="white"/>
<path fill-rule="evenodd" clip-rule="evenodd" d="M49.1457 23.3975C49.1575 23.4003 49.1702 23.4037 49.1836 23.4077C49.1869 23.4087 49.1901 23.4097 49.1933 23.4108C49.2194 23.4327 49.2456 23.4545 49.2718 23.4763L48.9345 23.6775C48.1107 24.1691 47.2808 24.6203 46.4443 25.0312C47.3572 24.5397 48.2578 23.9953 49.1457 23.3975ZM71.0726 27.8813C71.0726 27.8626 71.0726 27.8439 71.0726 27.8252C69.5706 28.0463 68.1258 28.197 66.7368 28.2762C67.965 28.2222 69.2391 28.1121 70.5597 27.9458L71.0726 27.8813ZM49.938 81.3401C49.8773 81.3648 49.7981 81.3945 49.7117 81.4198C49.6658 81.4332 49.6101 81.4477 49.5482 81.4592C49.4889 81.4702 49.4052 81.4821 49.3078 81.4821C48.6162 81.4821 48.2223 81.087 48.0602 80.9203C46.6503 79.658 45.3804 78.487 44.1977 77.3966C42.5563 75.8831 41.083 74.5246 39.6367 73.2918L39.6281 73.2844L39.6196 73.2768C32.6062 67.0171 28.8127 63.6219 26.9184 58.9752C25.9674 56.6425 25.5094 54.042 25.2913 50.6907C25.0737 47.3489 25.0919 43.1921 25.1265 37.7391V27.803C25.1265 27.2434 25.3777 26.7118 25.6893 26.393C25.9621 26.114 26.6252 25.6944 27.3893 25.9866C34.8476 27.3231 41.7407 25.9578 47.9929 21.7611C48.4217 21.3911 48.9432 21.3659 49.2538 21.3923C49.6101 21.4227 49.9433 21.5374 50.1792 21.6581L50.2835 21.7114L50.3726 21.7874C55.0679 25.7897 61.6728 27.2152 70.9524 25.8193L71.0263 25.8082H71.101C71.1082 25.8082 71.1162 25.8081 71.1251 25.8081C71.245 25.8076 71.5153 25.8063 71.7803 25.8838C72.0939 25.9754 72.4029 26.1722 72.6146 26.5112C72.8759 26.8345 73.0726 27.3077 73.0726 27.803C73.0726 32.6362 73.0728 36.4488 73.2107 39.975L73.2112 39.9874L73.2114 39.9998C73.3489 49.6357 73.4085 54.8322 71.4606 59.2497C69.5152 63.6614 65.5968 67.2276 58.3079 73.8394L58.303 73.8438C56.0882 75.8262 53.4557 78.2355 50.4049 81.0725L50.1171 81.3401H49.938ZM29.0698 29.9394V37.7488C29.035 43.0869 29.0098 47.0411 29.2003 50.1857C29.3903 53.3218 29.7921 55.5791 30.5766 57.5314C32.1527 61.454 35.3297 64.3377 42.2015 70.5062C42.9889 71.211 43.8244 71.9654 44.71 72.7651C46.1492 74.0646 47.7206 75.4835 49.4325 77.0026C49.9052 76.565 50.3675 76.135 50.8206 75.7136C52.7347 73.9329 54.483 72.3066 56.1487 70.9211C59.7264 67.6878 62.3693 65.298 64.3405 63.2249C66.3055 61.1584 67.5531 59.4568 68.3649 57.6235C69.1758 55.792 69.5824 53.7597 69.7626 50.9867C69.9437 48.1982 69.8931 44.7304 69.8235 40.029L69.8234 40.0215V40.0141C69.8234 38.4995 69.7933 36.9223 69.761 35.2279L69.7541 34.8683C69.7256 33.3642 69.6969 31.7706 69.6876 30.0613C61.3279 30.9344 54.5082 29.5865 49.3684 25.7421C43.0165 29.3792 36.2766 30.7816 29.0698 29.9394Z" fill="white"/>
</g>
<defs>
<clipPath id="clip0_185_889">
<rect width="49" height="61.0556" fill="white" transform="translate(23.7383 20.8447)"/>
</clipPath>
</defs>
</svg>
