<svg width="40" height="40" viewBox="0 0 40 40" fill="none" xmlns="http://www.w3.org/2000/svg">
<g clip-path="url(#clip0_240_2936)">
<path d="M-0.000123387 5.4866V34.5045C0.000462568 35.225 0.142881 35.9383 0.41912 36.6037C0.695358 37.2692 1.09999 37.8737 1.60983 38.3827C2.11966 38.8918 2.72473 39.2955 3.39055 39.5707C4.05636 39.8459 4.76993 39.9872 5.49036 39.9866H21.3279C21.4262 39.8062 21.4912 39.6096 21.5198 39.4062C21.5198 34.5788 21.5198 29.7515 21.5198 24.9241C21.5198 24.3794 21.4662 24.3304 20.9082 24.3304H17.239C16.431 24.3304 16.2927 24.1875 16.2927 23.3661C16.2927 22.0625 16.2927 20.7634 16.2927 19.4598C16.2927 18.6027 16.4222 18.4777 17.2971 18.4732H20.7341C21.4439 18.4732 21.5198 18.4018 21.5198 17.7009C21.5198 16.0893 21.5198 14.4732 21.5198 12.8616C21.5308 11.2708 22.1078 9.73584 23.1474 8.53173C24.187 7.32762 25.6212 6.53299 27.1932 6.29016C29.0948 6.00445 31.0098 6.14731 32.9203 6.15624C33.3667 6.15624 33.5273 6.375 33.5363 6.88839C33.5363 8.15178 33.5363 9.41517 33.5363 10.6741C33.5363 11.2634 33.3532 11.4286 32.7462 11.4375C31.7507 11.4375 30.7598 11.4375 29.7644 11.4375C29.5807 11.4352 29.3975 11.4578 29.2198 11.5044C28.6736 11.6622 28.1957 11.9977 27.8617 12.4578C27.5278 12.918 27.357 13.4764 27.3763 14.0446C27.3763 15.308 27.3763 16.5714 27.3763 17.8348C27.3763 18.3705 27.4745 18.4598 28.028 18.4643H30.8937C31.4919 18.4643 32.09 18.4643 32.6792 18.4643C33.1658 18.4643 33.3221 18.6786 33.2774 19.1652C33.2462 19.4911 33.1881 19.8125 33.148 20.1339C33.0007 21.308 32.8489 22.4821 32.6792 23.6562C32.6123 24.1027 32.4337 24.2589 31.9873 24.2991C31.8177 24.2991 31.6481 24.2991 31.4785 24.2991H28.0459C27.4879 24.2991 27.3896 24.4062 27.3807 24.9643C27.3807 25.1205 27.3807 25.2768 27.3807 25.433C27.3807 29.5104 27.3807 33.5848 27.3807 37.6562C27.3807 38.2545 27.3807 38.8527 27.3807 39.442C27.409 39.6216 27.4745 39.7934 27.5727 39.9464H34.5094C35.2302 39.947 35.944 39.8055 36.6101 39.53C37.2762 39.2546 37.8816 38.8505 38.3915 38.341C38.9014 37.8315 39.3059 37.2264 39.5819 36.5605C39.8579 35.8945 39.9998 35.1807 39.9998 34.4598V5.44194C39.9998 3.9868 39.4218 2.59127 38.393 1.56233C37.3642 0.533396 35.9689 -0.0446609 34.5139 -0.0446609H5.49929C4.77396 -0.0464557 4.05538 0.0956248 3.38531 0.373348C2.71525 0.651071 2.10698 1.05892 1.59555 1.57332C1.08412 2.08771 0.679716 2.69844 0.405824 3.37015C0.131933 4.04185 -0.0060274 4.76121 -0.000123387 5.4866Z" fill="black"/>
</g>
<defs>
<clipPath id="clip0_240_2936">
<rect width="40" height="40" fill="white"/>
</clipPath>
</defs>
</svg>
