<svg width="40" height="40" viewBox="0 0 40 40" fill="none" xmlns="http://www.w3.org/2000/svg">
<g clip-path="url(#clip0_240_2946)">
<path d="M26.6542 20.0209C26.6505 21.3383 26.2563 22.6249 25.5213 23.7181C24.7864 24.8114 23.7437 25.662 22.5253 26.1625C21.3069 26.663 19.9674 26.7909 18.6763 26.5299C17.3852 26.269 16.2005 25.6309 15.272 24.6965C14.3435 23.762 13.713 22.5732 13.4603 21.2803C13.2075 19.9874 13.3438 18.6486 13.8519 17.4332C14.36 16.2178 15.2171 15.1805 16.3148 14.4523C17.4125 13.7242 18.7015 13.338 20.0186 13.3426C20.8931 13.3444 21.7585 13.5187 22.5655 13.8555C23.3724 14.1923 24.1051 14.6849 24.7215 15.3053C25.3378 15.9256 25.8259 16.6614 26.1575 17.4706C26.4892 18.2797 26.6579 19.1464 26.6542 20.0209Z" fill="black"/>
<path d="M39.627 9.25266C38.7736 4.24392 35.1224 0.858112 30.0583 0.265831C29.1583 0.167894 28.2583 0.0886091 27.3537 0H12.6883C11.5692 0.125918 10.4407 0.191212 9.33556 0.382421C4.20616 1.26851 0.816125 4.92945 0.279869 10.1014C0.189716 10.9595 0.104203 11.8145 0.0233765 12.6664V27.3335C0.14928 28.4528 0.214486 29.5814 0.410336 30.6867C1.31498 35.8167 4.92891 39.1932 10.1236 39.7435C10.9769 39.8368 11.8349 39.916 12.6883 40H27.3537C28.4728 39.8787 29.6013 39.7995 30.7111 39.6176C35.7706 38.7781 39.2306 35.0705 39.7622 29.9638C39.8508 29.0871 39.9348 28.2103 40.0234 27.3335V12.6664C39.8695 11.5285 39.7995 10.3813 39.627 9.25266ZM20 30.281C17.974 30.2727 15.9958 29.6646 14.3149 28.5334C12.634 27.4022 11.3257 25.7986 10.5548 23.9247C9.78399 22.0509 9.58515 19.9907 9.98345 18.004C10.3818 16.0173 11.3593 14.193 12.7929 12.7612C14.2265 11.3294 16.0519 10.3542 18.0389 9.95853C20.0259 9.56288 22.0856 9.76452 23.9582 10.538C25.8307 11.3115 27.4324 12.6222 28.5611 14.3048C29.6899 15.9875 30.2953 17.9667 30.3008 19.993C30.3045 21.3482 30.0397 22.6907 29.5218 23.9431C29.0038 25.1954 28.2429 26.3327 27.283 27.2892C26.3231 28.2458 25.1832 29.0026 23.9291 29.5161C22.6751 30.0296 21.3318 30.2896 19.9768 30.281H20ZM30.7019 11.729C30.2256 11.7309 29.7594 11.5913 29.3625 11.328C28.9656 11.0647 28.6558 10.6896 28.4722 10.25C28.2887 9.81045 28.2396 9.3263 28.3314 8.85889C28.4232 8.39147 28.6517 7.9618 28.9878 7.62432C29.324 7.28684 29.7526 7.05673 30.2196 6.96312C30.6866 6.86951 31.1709 6.91661 31.6112 7.09847C32.0514 7.28033 32.4277 7.58875 32.6925 7.98468C32.9573 8.38062 33.0987 8.84623 33.0987 9.32257C33.0999 9.64012 33.0381 9.9548 32.9167 10.2482C32.7954 10.5417 32.617 10.808 32.3918 11.0319C32.1666 11.2558 31.8991 11.4328 31.605 11.5524C31.3109 11.6721 30.996 11.7321 30.6785 11.729H30.7019Z" fill="black"/>
</g>
<defs>
<clipPath id="clip0_240_2946">
<rect width="40" height="40" fill="white"/>
</clipPath>
</defs>
</svg>
