<svg width="40" height="40" viewBox="0 0 40 40" fill="none" xmlns="http://www.w3.org/2000/svg">
<g clip-path="url(#clip0_240_2934)">
<path d="M39.9909 4.03525C39.9886 3.84662 39.9707 3.6585 39.9374 3.47281C39.8803 3.19645 39.7934 2.92707 39.6785 2.66934C39.4178 2.05915 39.0244 1.51475 38.5269 1.07576C38.127 0.716718 37.6638 0.435183 37.1609 0.245504C36.8947 0.138216 36.6155 0.0661942 36.3306 0.0312506C36.1699 0.0312506 36.0048 0.0312474 35.8397 8.49004e-07H4.14679C4.12447 8.49004e-07 4.09762 8.49004e-07 4.07083 8.49004e-07C3.64408 -0.000304062 3.22135 0.0815229 2.82553 0.241036C2.07834 0.526513 1.42158 1.00751 0.92395 1.63374C0.604599 2.03533 0.355504 2.48811 0.18736 2.97287C0.102069 3.20011 0.0451506 3.43699 0.0177883 3.67816C0.0177883 3.83885 0.0177577 4.004 -0.0134888 4.16469V35.8576C0.00883017 35.8933 -0.0134888 35.9335 -0.0134888 35.9692C-0.0115476 36.141 0.00191291 36.3125 0.0267246 36.4825C0.179716 37.2124 0.511397 37.893 0.992062 38.4633C1.47273 39.0336 2.08733 39.4757 2.78085 39.75C3.0582 39.8647 3.34928 39.9427 3.6468 39.9821C3.80749 39.9821 3.9727 39.9821 4.13786 40.0178H35.8307C35.8575 40.0178 35.8887 40.0178 35.9155 40.0178C36.1939 40.017 36.4712 39.9825 36.7414 39.9152C37.4191 39.7285 38.043 39.3843 38.5625 38.9108C39.0784 38.4481 39.4777 37.8699 39.7276 37.2235C39.8407 36.9472 39.9187 36.6578 39.9597 36.362C39.9597 36.1969 39.9597 36.0317 39.9909 35.871V4.1781C39.9765 4.13158 39.9765 4.08178 39.9909 4.03525ZM12.0967 34.322C12.0967 34.4247 12.07 34.447 11.9718 34.447C10.0643 34.447 8.15674 34.447 6.24922 34.447C6.15101 34.447 6.12869 34.4202 6.12869 34.322C6.12869 31.1498 6.12869 27.976 6.12869 24.8008C6.12869 21.6256 6.12869 18.4592 6.12869 15.3018C6.12869 15.1992 6.15548 15.1813 6.25369 15.1813H11.9718C12.0745 15.1813 12.0967 15.1813 12.0967 15.3018C12.0937 21.6464 12.0937 27.9864 12.0967 34.322ZM9.07036 12.6593C8.36278 12.6655 7.66924 12.4613 7.0779 12.0727C6.48655 11.6841 6.02397 11.1286 5.74889 10.4766C5.47381 9.82468 5.39866 9.10569 5.5329 8.41093C5.66714 7.71617 6.00477 7.07696 6.50292 6.57442C7.00107 6.07187 7.63728 5.72866 8.33083 5.58832C9.02438 5.44798 9.74393 5.51683 10.3983 5.78617C11.0526 6.05551 11.6123 6.51317 12.006 7.10108C12.3998 7.689 12.6101 8.38063 12.6101 9.08824C12.6148 9.55587 12.5267 10.0198 12.3509 10.4531C12.175 10.8865 11.915 11.2807 11.5858 11.6128C11.2566 11.9449 10.8647 12.2084 10.4329 12.3881C10.0011 12.5677 9.53802 12.6599 9.07036 12.6593ZM34.3041 34.4426H28.6306C28.5324 34.4426 28.5056 34.4158 28.5056 34.3176C28.5056 31.0203 28.5056 27.7201 28.5056 24.4169C28.523 23.7063 28.4389 22.9968 28.2557 22.31C28.1192 21.7725 27.8542 21.2761 27.4835 20.8637C27.0298 20.3916 26.4213 20.0985 25.7694 20.0379C25.1575 19.9607 24.5361 20.0171 23.9481 20.2031C23.5508 20.3309 23.1841 20.5391 22.8707 20.8148C22.5574 21.0905 22.3042 21.4278 22.1269 21.8056C21.8569 22.3778 21.6964 22.9955 21.6538 23.6268C21.6225 23.9973 21.6225 24.3678 21.6225 24.7383V34.3086C21.6225 34.4515 21.6225 34.4381 21.4885 34.4381H16.0204C15.9177 34.4381 15.8999 34.4068 15.8999 34.3131C15.8999 27.9745 15.8999 21.636 15.8999 15.2974C15.8999 15.1724 15.8999 15.1724 16.0249 15.1724H21.493C21.6358 15.1724 21.618 15.1724 21.618 15.3018V17.7302C21.6582 17.7302 21.6582 17.6944 21.6716 17.681C22.1734 16.8854 22.8398 16.2064 23.6259 15.6898C24.4121 15.1731 25.2997 14.8308 26.2291 14.6858C27.6638 14.4306 29.1414 14.5854 30.4921 15.1322C31.2489 15.4416 31.9335 15.9043 32.5027 16.4912C33.072 17.0782 33.5136 17.7766 33.7997 18.5426C34.0988 19.3102 34.291 20.1152 34.3711 20.9351C34.4164 21.4174 34.4372 21.9016 34.4335 22.3859C34.4335 26.3497 34.4335 30.3121 34.4335 34.2729C34.4425 34.4649 34.4603 34.4426 34.3041 34.4426Z" fill="black"/>
</g>
<defs>
<clipPath id="clip0_240_2934">
<rect width="40" height="40" fill="white"/>
</clipPath>
</defs>
</svg>
