<svg width="206" height="206" viewBox="0 0 206 206" fill="none" xmlns="http://www.w3.org/2000/svg">
<g clip-path="url(#clip0_318_5608)">
<path d="M94.9434 43.933C95.545 43.9059 96.1452 44.0123 96.7008 44.2446C97.2564 44.4768 97.7536 44.8291 98.157 45.2763C98.5444 45.7827 98.8153 46.3682 98.9505 46.9913C99.0857 47.6143 99.0817 48.2595 98.9391 48.8809L95.2325 69.9306C94.8737 71.6457 93.9565 73.1935 92.6244 74.3318C91.2922 75.4702 89.6202 76.1348 87.8701 76.2217H36.402C37.6435 74.8215 38.4991 73.1221 38.8846 71.2909L42.5911 50.2242C42.9492 48.5117 43.8639 46.966 45.1926 45.828C46.5213 44.6899 48.1894 44.0236 49.9365 43.933H94.9434ZM94.9434 40.0224H49.9365C47.2752 40.1288 44.7263 41.1248 42.698 42.851C40.6697 44.5773 39.279 46.934 38.7484 49.544L35.0249 70.6107C34.5998 73.0762 31.8963 75.3206 30.0769 77.0209L29.8899 77.1739C29.5665 77.4832 29.3518 77.8888 29.2779 78.3301C29.2252 78.5498 29.2242 78.7786 29.2747 78.9988C29.3253 79.2189 29.4262 79.4244 29.5695 79.599C29.7128 79.7736 29.8946 79.9126 30.1006 80.0052C30.3067 80.0977 30.5314 80.1413 30.7571 80.1324H87.8701C90.5344 80.0297 93.087 79.0354 95.1188 77.3089C97.1506 75.5823 98.5439 73.2235 99.0752 70.6107L102.799 49.544C103.069 48.3811 103.067 47.1715 102.794 46.0093C102.521 44.8471 101.983 43.7635 101.223 42.8425C100.464 41.9216 99.5018 41.1881 98.4127 40.699C97.3236 40.21 96.1365 39.9784 94.9434 40.0224Z" fill="black"/>
<path d="M121.661 148.552C122.249 148.526 122.836 148.63 123.379 148.858C123.922 149.086 124.407 149.432 124.8 149.871C125.182 150.364 125.449 150.936 125.582 151.545C125.715 152.155 125.71 152.786 125.568 153.394L121.928 174.079C121.577 175.76 120.678 177.278 119.374 178.396C118.069 179.513 116.431 180.167 114.716 180.256H64.179C65.3933 178.88 66.2278 177.212 66.6 175.415L70.2561 154.729C70.6024 153.045 71.4991 151.524 72.8049 150.406C74.1106 149.287 75.7514 148.635 77.4686 148.552H121.661ZM121.661 144.712H77.4686C74.8525 144.813 72.3459 145.789 70.3509 147.484C68.3559 149.18 66.9879 151.496 66.4663 154.061L62.8268 174.747C62.3927 177.168 59.7548 179.372 57.9517 181.024L57.7681 181.191C57.4631 181.498 57.2543 181.886 57.1671 182.31C57.1154 182.528 57.1149 182.755 57.1654 182.973C57.216 183.191 57.3163 183.395 57.4585 183.567C57.6008 183.74 57.781 183.878 57.9853 183.97C58.1896 184.062 58.4125 184.105 58.6363 184.096H114.716C117.332 183.995 119.838 183.019 121.833 181.324C123.828 179.628 125.196 177.312 125.718 174.747L129.358 154.061C129.622 152.921 129.621 151.735 129.353 150.595C129.086 149.455 128.56 148.392 127.816 147.488C127.071 146.584 126.129 145.864 125.062 145.382C123.995 144.901 122.831 144.672 121.661 144.712Z" fill="black"/>
<path d="M184.2 25.7801C185.016 25.7439 185.831 25.8907 186.583 26.2098C187.335 26.5288 188.006 27.012 188.548 27.624C189.075 28.2966 189.446 29.0784 189.633 29.9124C189.82 30.7464 189.82 31.6116 189.63 32.4452L185.249 57.3126C184.787 59.4986 183.616 61.471 181.918 62.9238C180.221 64.3767 178.092 65.2288 175.86 65.348H113.438C115.332 63.5377 116.661 61.2164 117.261 58.6659L121.643 33.7985C122.108 31.6156 123.28 29.6471 124.978 28.1976C126.675 26.748 128.803 25.8984 131.031 25.7801H184.166M184.166 21.8893H131.031C127.884 21.9992 124.866 23.168 122.465 25.2065C120.064 27.245 118.421 30.0338 117.802 33.1218L113.421 57.9893C112.914 60.8989 109.733 63.5548 107.568 65.551L107.348 65.737C106.979 66.1122 106.732 66.5896 106.638 67.1073C106.569 67.3628 106.561 67.631 106.614 67.8902C106.668 68.1494 106.781 68.3924 106.946 68.5998C107.11 68.8071 107.321 68.9729 107.561 69.0839C107.802 69.1949 108.065 69.2479 108.329 69.2388H175.776C178.923 69.1272 181.941 67.9554 184.34 65.9134C186.738 63.8714 188.376 61.079 188.988 57.9893L193.386 33.1218C193.7 31.75 193.695 30.3242 193.371 28.9546C193.047 27.585 192.413 26.3081 191.517 25.2226C190.621 24.1371 189.488 23.272 188.204 22.694C186.921 22.116 185.522 21.8407 184.116 21.8893H184.166Z" fill="black"/>
<path d="M77.3943 98.4816C78.1317 98.4478 78.8677 98.576 79.5504 98.8569C80.233 99.1378 80.846 99.5648 81.3461 100.108C81.8221 100.726 82.1562 101.441 82.3248 102.203C82.4935 102.964 82.4924 103.754 82.3219 104.515L78.2399 127.673C77.8211 129.686 76.746 131.503 75.1832 132.839C73.6204 134.175 71.6583 134.955 69.6047 135.056H11.7751C13.4701 133.398 14.6504 131.286 15.1741 128.974L19.2558 105.816C19.6798 103.805 20.7566 101.991 22.3183 100.656C23.8801 99.3209 25.8393 98.5392 27.8913 98.4328H77.3943M77.3943 94.6925H27.8913C24.9589 94.7942 22.1471 95.8841 19.9123 97.7853C17.6775 99.6866 16.151 102.287 15.5806 105.166L11.4987 128.323C11.0109 131.039 8.06718 133.511 6.05063 135.365L5.83921 135.544C5.49331 135.889 5.26089 136.332 5.17259 136.812C5.11809 137.054 5.11922 137.304 5.17616 137.545C5.2331 137.786 5.34432 138.01 5.50113 138.202C5.65795 138.393 5.85633 138.546 6.0812 138.649C6.30607 138.752 6.55154 138.802 6.79884 138.796H69.6047C72.5398 138.698 75.3555 137.61 77.5936 135.708C79.8317 133.807 81.3605 131.204 81.9316 128.323L86.0135 105.166C86.3117 103.888 86.3115 102.559 86.0129 101.281C85.7142 100.004 85.1252 98.8124 84.2915 97.7994C83.4579 96.7865 82.4019 95.9792 81.2058 95.4404C80.0096 94.9015 78.7053 94.6456 77.3943 94.6925Z" fill="black"/>
<path d="M192.373 96.56C193.074 96.533 193.772 96.6615 194.417 96.9363C195.063 97.2111 195.639 97.6255 196.105 98.1496C196.56 98.734 196.879 99.4121 197.04 100.135C197.2 100.858 197.198 101.607 197.034 102.329L192.908 125.726C192.49 127.674 191.441 129.431 189.924 130.722C188.406 132.014 186.505 132.769 184.514 132.87H126.808C128.319 131.257 129.363 129.263 129.826 127.101L133.952 103.704C134.373 101.754 135.426 99.9974 136.947 98.706C138.467 97.4145 140.371 96.6603 142.364 96.56H192.373ZM192.373 92.4521H142.364C139.39 92.5445 136.535 93.6418 134.264 95.5653C131.994 97.4887 130.442 100.125 129.862 103.043L125.736 126.44C125.254 129.191 122.164 131.673 120.217 133.584L120.021 133.763C119.66 134.098 119.421 134.545 119.342 135.031C119.285 135.276 119.284 135.53 119.34 135.775C119.397 136.02 119.509 136.249 119.667 136.444C119.826 136.639 120.028 136.795 120.256 136.9C120.485 137.005 120.734 137.056 120.985 137.049H184.461C187.435 136.957 190.29 135.86 192.56 133.936C194.831 132.013 196.383 129.377 196.963 126.458L201.106 103.061C201.406 101.769 201.404 100.426 201.101 99.1352C200.798 97.8443 200.203 96.6403 199.36 95.6164C198.518 94.5926 197.451 93.7763 196.242 93.2307C195.034 92.6851 193.716 92.4248 192.391 92.47L192.373 92.4521Z" fill="black"/>
<path d="M58.4777 74.6244L32.9599 82.2406C32.556 82.3604 32.2086 82.6215 31.9813 82.9763C31.7539 83.331 31.6618 83.7556 31.7217 84.1727C31.7815 84.5897 31.9894 84.9713 32.3073 85.2478C32.6252 85.5243 33.0317 85.6772 33.453 85.6787H57.1141C57.3309 85.678 57.5403 85.6003 57.7051 85.4595C57.8698 85.3186 57.9791 85.1238 58.0135 84.9098L59.6528 75.6689C59.6787 75.5139 59.6649 75.355 59.6126 75.2068C59.5604 75.0587 59.4713 74.9263 59.3539 74.8219C59.2365 74.7176 59.0945 74.6447 58.9413 74.6101C58.7881 74.5756 58.6285 74.5805 58.4777 74.6244Z" fill="#39F4C4"/>
<path d="M53.3423 103.755L27.8243 111.371C27.446 111.503 27.1249 111.761 26.915 112.102C26.7051 112.444 26.6194 112.847 26.6722 113.244C26.725 113.641 26.9132 114.008 27.2051 114.282C27.4969 114.557 27.8745 114.722 28.2741 114.751H51.9352C52.1537 114.751 52.365 114.674 52.5322 114.533C52.6993 114.392 52.8114 114.197 52.849 113.982L54.4739 104.756C54.4892 104.609 54.4691 104.46 54.4155 104.322C54.3619 104.185 54.2763 104.062 54.1656 103.964C54.055 103.866 53.9224 103.796 53.7792 103.76C53.636 103.723 53.4863 103.721 53.3423 103.755Z" fill="#39F4C4"/>
<path d="M56.0408 89.001L14.3766 96.7623C13.9603 96.8554 13.592 97.097 13.3408 97.4419C13.0897 97.7868 12.9727 98.2113 13.0118 98.6362C13.0509 99.061 13.2434 99.4571 13.5533 99.7503C13.8632 100.044 14.2694 100.214 14.6957 100.229H54.5465C54.7619 100.232 54.9712 100.158 55.1362 100.019C55.3013 99.8808 55.4112 99.6877 55.4459 99.4751L57.1143 90.0745C57.1397 89.9278 57.1295 89.7772 57.0845 89.6354C57.0396 89.4935 56.9613 89.3645 56.8561 89.2593C56.7509 89.154 56.6218 89.0756 56.48 89.0306C56.3381 88.9857 56.1874 88.9755 56.0408 89.001Z" fill="#39F4C4"/>
<path d="M172.503 77.8888L166.57 111.502C165.746 115.684 163.529 119.465 160.28 122.226C157.032 124.987 152.944 126.566 148.683 126.705H57.5059C57.1434 126.717 56.7829 126.645 56.4526 126.495C56.1223 126.345 55.8308 126.121 55.6008 125.841C55.3708 125.56 55.2084 125.231 55.1262 124.878C55.044 124.524 55.0442 124.157 55.1267 123.804C55.2654 123.109 55.6089 122.473 56.1131 121.976C56.2024 121.881 56.2996 121.793 56.4034 121.715C59.3048 119.002 63.6568 115.418 64.3242 111.487L70.2431 77.8743C71.0673 73.6914 73.2843 69.9112 76.5328 67.1502C79.7812 64.3891 83.8693 62.8102 88.1303 62.6709H159.969C168.383 62.6854 173.983 69.4892 172.503 77.8888Z" fill="#39F4C4"/>
</g>
<defs>
<clipPath id="clip0_318_5608">
<rect width="206" height="206" fill="white"/>
</clipPath>
</defs>
</svg>
