<svg width="320" height="304" viewBox="0 0 320 304" fill="none" xmlns="http://www.w3.org/2000/svg">
<path d="M164.502 142.323C168.094 124.871 159.645 125.321 156.833 122.546C156.833 122.546 146.285 113.987 138.248 121.966C129.74 130.405 80.9706 195.96 80.9706 195.96L111.485 223.575L117.221 216.84L132.079 199.405L147.971 180.77L149.945 178.648L171.383 154.755C171.383 154.755 162.47 151.511 164.502 142.323Z" fill="#FF9D7D"/>
<path d="M147.579 159.847C135.298 155.799 128.677 142.722 132.79 130.639C136.903 118.555 150.193 112.04 162.475 116.088C174.755 120.135 181.377 133.212 177.263 145.296C173.149 157.379 159.859 163.894 147.579 159.847Z" fill="#FF9D7D"/>
<path d="M149.662 178.557C150.278 174.909 151.509 167.614 152.833 160.965L159.874 128.786C159.874 128.786 140.965 156.284 132.254 175.438C125.802 189.791 118.318 204.42 117.08 216.795L131.936 199.359L147.828 180.724L149.662 178.557Z" fill="#E1684A"/>
<path d="M50.49 122.154C43.2389 109.142 46.7232 106.933 43.6388 99.528C40.5998 92.303 45.9954 74.3942 40.8297 76.8357C35.665 79.2782 34.0662 85.7678 34.0662 85.7678C30.5334 79.619 27.28 68.3053 18.8238 67.01C10.3655 65.7147 9.61711 68.3337 4.82357 72.2043C-7.92929 82.6447 8.33263 98.3351 11.0469 104.31C12.7932 108.055 25.6244 119.474 27.046 121.97L33.5044 131.187L50.49 122.154Z" fill="#FFCCB3"/>
<path d="M25.5742 86.5772L15.2686 67.856L25.5742 86.5772Z" fill="#E56441"/>
<path d="M25.5742 86.5772L15.2686 67.856" stroke="#E56441" stroke-width="0.94666" stroke-linecap="round"/>
<path d="M18.8232 89.606L7.59091 72.1709L18.8232 89.606Z" fill="#E56441"/>
<path d="M18.8232 89.606L7.59091 72.1709" stroke="#E56441" stroke-width="0.94666" stroke-linecap="round"/>
<path d="M10.7998 92.9599L4.38054 82.4009L10.7998 92.9599Z" fill="#E56441"/>
<path d="M10.7998 92.9599L4.38054 82.4009" stroke="#E56441" stroke-width="0.94666" stroke-linecap="round"/>
<path d="M28.1219 103.055C28.1765 96.5733 32.1299 88.7285 32.1299 88.7285L28.1219 103.055Z" fill="#E56441"/>
<path d="M28.1219 103.055C28.1765 96.5733 32.1299 88.7285 32.1299 88.7285" stroke="#E56441" stroke-width="0.94666" stroke-linecap="round"/>
<path d="M111.744 195.441L49.6926 114.133C49.2978 113.656 48.736 113.339 48.1175 113.245C47.4989 113.149 46.866 113.283 46.3423 113.621L30.0938 124.193C29.3216 124.709 28.7722 125.488 28.5505 126.378C28.3289 127.27 28.4526 128.211 28.8969 129.017L78.7971 219.565L111.744 195.441Z" fill="#FF9D7D"/>
<path d="M96.6666 229.779C85.19 229.779 75.8864 220.626 75.8864 209.334C75.8864 198.042 85.19 188.888 96.6666 188.888C108.142 188.888 117.446 198.042 117.446 209.334C117.446 220.626 108.142 229.779 96.6666 229.779Z" fill="#FF9D7D"/>
<path d="M188.811 104.573C188.811 104.573 153.99 113.64 148.012 115.993C142.034 118.346 141.636 127.757 141.237 134.423C140.84 141.088 142.178 290.79 142.178 290.79L219.241 287.874L276.873 254.679C276.873 254.679 274.368 135.897 273.57 130.408C272.773 124.918 279.036 120.191 272.247 117.428L228.611 106.086L188.811 104.573Z" fill="#FF9D7D"/>
<path d="M246.802 157.903L246.181 268.508L279.311 232.175L263.282 154.461L246.802 157.903Z" fill="#E1684A"/>
<path d="M234.295 107.774C234.295 107.774 239.225 117.53 234.295 124.259C229.366 130.988 209.631 137.524 196.148 137.333C182.666 137.14 175.522 124.492 181.634 106.784L203.964 100.611L228.612 106.085L234.295 107.774Z" fill="#E1684A"/>
<path d="M178.481 23.7056C178.481 23.7056 168.772 44.3195 179.127 48.5776C189.482 52.8358 188.276 24.7057 178.481 23.7056Z" fill="#93523E"/>
<path d="M189.433 89.6689L186.623 120.833C186.623 120.833 183.931 125.011 194.418 127.205C201.164 128.617 219.331 121.574 222.854 119.461C224.353 118.678 225.527 117.405 226.175 115.863C226.822 114.32 226.904 112.603 226.403 111.008C225.331 107.193 220.894 75.4238 220.894 75.4238L189.433 89.6689Z" fill="#FFCCB3"/>
<path d="M188.891 95.6777L205.625 87.5439L186.97 116.992L188.891 95.6777Z" fill="#FF967C"/>
<path d="M184.056 29.6735C184.056 29.6735 174.236 53.9055 170.675 70.9055C167.081 88.0556 172.815 92.339 180.381 94.8616C186.348 96.8507 195.877 98.4371 202.36 96.4409C214.18 92.7995 225.745 82.2902 228.51 80.1317C232.793 76.7895 237.021 61.6295 230.744 53.0525C224.467 44.4764 199.738 17.524 184.056 29.6735Z" fill="#FFCCB3"/>
<path d="M196.7 63.1175C195.394 62.6124 194.972 60.6122 195.756 58.6515C196.541 56.6898 198.234 55.5101 199.54 56.0153C200.846 56.5204 201.269 58.5206 200.486 60.4823C199.701 62.443 198.006 63.6236 196.7 63.1175Z" fill="#080B09"/>
<path d="M178.751 56.0412C177.445 55.5361 177.022 53.5359 177.807 51.5742C178.59 49.6135 180.285 48.4328 181.591 48.9389C182.897 49.4441 183.32 51.4443 182.535 53.405C181.752 55.3667 180.057 56.5463 178.751 56.0412Z" fill="#080B09"/>
<path d="M185.333 59.3887C185.333 59.3887 186.928 64.1377 183.575 63.6752C180.389 63.1244 178.227 64.6733 181.011 67.8552" stroke="#E56441" stroke-width="0.94666" stroke-linecap="round"/>
<path d="M180.855 72.0527L180.838 72.0486L180.822 72.0435C180.775 72.0303 180.726 72.0283 180.679 72.0395C180.632 72.0506 180.589 72.0739 180.554 72.1074C180.518 72.1399 180.493 72.1825 180.479 72.2281C180.467 72.2738 180.466 72.3224 180.478 72.3691L180.489 72.4087L180.493 72.4492C180.698 74.5276 181.224 75.762 181.862 76.4568C182.478 77.1273 183.251 77.3504 184.129 77.2845C185.029 77.2176 186.017 76.8443 186.975 76.3321C187.921 75.8259 188.8 75.2041 189.48 74.6706C189.526 74.628 189.56 74.5742 189.579 74.5154C189.599 74.4525 189.601 74.3856 189.585 74.3227C189.569 74.2588 189.536 74.201 189.489 74.1543C189.442 74.1087 189.383 74.0762 189.318 74.061L189.313 74.059C186.721 73.4139 182.812 72.5071 180.855 72.0527Z" fill="#E56441" stroke="#E56441"/>
<path d="M208.071 54.8139L207.826 55.1527C207.512 55.6771 206.999 56.0585 206.4 56.2127C205.803 56.3669 205.166 56.2827 204.63 55.9763L195.573 50.4858C195.123 50.2373 194.785 49.8326 194.624 49.3508C194.464 48.869 194.493 48.3446 194.706 47.8831C194.824 47.595 195.001 47.3333 195.229 47.1173C195.456 46.9012 195.728 46.7349 196.025 46.6294C196.322 46.5249 196.639 46.4823 196.954 46.5067C197.269 46.531 197.575 46.6202 197.853 46.7694L207.156 51.9221C207.413 52.0489 207.641 52.2254 207.827 52.4414C208.013 52.6565 208.153 52.907 208.238 53.1768C208.323 53.4466 208.353 53.7306 208.324 54.0126C208.296 54.2936 208.21 54.5664 208.071 54.8139Z" fill="#080B09"/>
<path d="M176.78 40.7357L187.411 41.7055C187.725 41.7379 188.029 41.8353 188.302 41.9925C188.575 42.1487 188.812 42.3607 188.995 42.6133C189.178 42.8658 189.305 43.1549 189.367 43.4592C189.429 43.7645 189.425 44.0789 189.355 44.3822C189.263 44.8813 188.985 45.3286 188.574 45.6349C188.163 45.9412 187.651 46.0853 187.137 46.0376L176.513 45.4838C175.897 45.4361 175.324 45.149 174.921 44.6875C174.517 44.226 174.316 43.6255 174.362 43.018L174.355 42.6021C174.384 42.3211 174.472 42.0483 174.611 41.8008C174.75 41.5533 174.939 41.3362 175.165 41.1628C175.392 40.9883 175.651 40.8605 175.929 40.7875C176.206 40.7145 176.496 40.6962 176.78 40.7357Z" fill="#080B09"/>
<path d="M196.245 34.5051C196.245 34.5051 201.551 44.4393 211.177 47.3859C220.803 50.3315 215.543 65.2805 215.543 65.2805C215.543 65.2805 222.144 58.8203 229.732 62.4566C237.319 66.094 231.56 80.3664 221.077 80.549L223.928 96.6097C223.928 96.6097 229.237 90.1039 234.82 86.6227C240.404 83.1426 260.463 69.6299 251.602 51.8347C251.602 51.8347 258.534 26.846 239.521 13.8911C220.508 0.935212 204.051 5.82422 204.051 5.82422C204.051 5.82422 199.518 -1.25067 189.012 0.194738C178.506 1.64014 176.082 20.2813 179.562 27.0235C183.041 33.7656 188.71 36.6311 196.245 34.5051Z" fill="#93523E"/>
<path d="M275.458 134.106C262.088 122.107 258.139 129.469 254.275 130.418C254.275 130.418 241.393 134.925 244.22 145.808C247.207 157.327 279.31 232.176 279.31 232.176L319.066 220.605L316.14 212.303L308.571 190.802L300.487 167.813L299.652 165.057L289.834 134.684C289.834 134.684 282.426 140.541 275.458 134.106Z" fill="#FF9D7D"/>
<path d="M248.98 154.873C240.556 145.193 241.705 130.626 251.543 122.339C261.382 114.051 276.186 115.181 284.609 124.862C293.032 134.542 291.884 149.109 282.045 157.396C272.206 165.684 257.403 164.554 248.98 154.873Z" fill="#FF9D7D"/>
<path d="M283.246 213.791L209.438 284.955C209.008 285.403 208.763 285.992 208.748 286.607C208.734 287.224 208.951 287.824 209.36 288.291L222.137 302.757C222.757 303.443 223.613 303.878 224.541 303.978C225.468 304.077 226.4 303.833 227.154 303.294L311.862 242.775L283.246 213.791Z" fill="#FF9D7D"/>
<path d="M299.221 247.127C287.744 247.127 278.441 237.972 278.441 226.681C278.441 215.389 287.744 206.234 299.221 206.234C310.696 206.234 320 215.389 320 226.681C320 237.972 310.696 247.127 299.221 247.127Z" fill="#FF9D7D"/>
</svg>
