<svg width="224" height="400" viewBox="0 0 224 400" fill="none" xmlns="http://www.w3.org/2000/svg">
<path d="M177.377 29.8985L24.0143 33.2383C19.4223 33.3385 15.7824 37.0737 15.8844 41.5814L20.584 249.527C20.6855 254.035 24.4905 257.608 29.0825 257.508L182.445 254.168C187.037 254.068 190.677 250.333 190.575 245.825L185.876 37.8793C185.774 33.3715 181.969 29.7984 177.377 29.8985Z" fill="url(#paint0_linear_319_6099)"/>
<path d="M203.857 343.203C203.744 343.216 203.694 343.277 203.756 343.327C203.706 343.388 203.706 343.388 203.719 343.499C203.481 344.263 203.312 345.046 203.216 345.84L212.897 353.477L213.968 352.295C213.968 352.295 210.396 347.956 209.053 346.694C208.477 346.138 207.962 345.631 207.448 345.124C206.997 344.666 206.596 344.147 206.207 343.739C205.668 343.01 204.096 343.29 204.084 343.179C204.021 343.13 203.857 343.203 203.857 343.203Z" fill="#222222"/>
<path d="M130.665 276.845L140.009 285.737L192.274 335.282L193.227 336.136L193.64 336.766L193.703 336.815L201.107 347.826L201.933 349.086L202.209 349.506L207.22 357.007L203.092 359.021L201.897 359.599L200.211 360.397L197.555 361.749L197.505 361.81L194.686 363.235L194.548 363.025L188.115 350.956C186.867 348.624 185.117 346.587 182.988 344.985L126.157 302.278L115.354 294.16L130.665 276.845Z" fill="#FFCCB3"/>
<path d="M200.388 337.227C197.883 336.085 195.072 335.064 192.323 335.223C193.98 336.648 194.735 339.183 195.829 341.03C198.082 344.834 203.857 351.902 200.907 357.909C199.249 361.284 194.61 363.077 194.547 363.028C193.771 366.494 189.924 380.604 197.593 372.425C201.875 367.857 206.124 362.978 208.259 358.135C209.135 356.149 207.283 354.168 206.374 352.491C205.211 349.955 203.472 346.595 203.691 343.787L203.742 343.725C203.868 343.531 213.798 352.257 213.967 352.299C214.307 351.756 215.102 350.66 215.102 350.66C215.102 350.66 200.865 337.401 200.388 337.227Z" fill="#FF9D7D"/>
<path d="M93.4507 383.381C93.3609 383.312 93.2808 383.321 93.2907 383.4C93.2111 383.409 93.2107 383.409 93.1405 383.497C92.4261 383.879 91.7482 384.324 91.1138 384.825L92.5931 396.93L94.2011 396.82C94.2011 396.82 94.7382 391.266 94.6778 389.443C94.6619 388.649 94.6554 387.934 94.6489 387.218C94.6521 386.581 94.7354 385.935 94.748 385.377C94.8828 384.486 93.5592 383.607 93.6299 383.519C93.62 383.44 93.4507 383.381 93.4507 383.381Z" fill="#222222"/>
<path d="M88.4021 285.702L88.7469 298.473L90.8125 369.767L90.8859 371.032L90.7325 371.766L90.7418 371.844L88.1906 384.797L87.8842 386.266L87.7817 386.755L86.0203 395.557L81.6346 394.163L80.3686 393.755L78.595 393.168L75.7341 392.312L75.6541 392.321L72.6238 391.405L72.6753 391.16L76.6745 378.116C77.4427 375.593 77.6434 372.935 77.2626 370.328L67.062 300.788L65.1223 287.568L88.4021 285.702Z" fill="#FFCCB3"/>
<path d="M95.2319 376.724C94.2546 374.189 92.9722 371.528 90.8945 369.755C91.0643 371.911 89.7978 374.242 89.264 376.313C88.165 380.579 87.2578 389.596 80.8698 391.864C77.28 393.139 72.6871 391.236 72.6773 391.158C69.6531 393.103 56.8518 400.548 68.1602 399.966C74.4752 399.64 80.9882 399.069 85.9647 397.073C88.005 396.255 88.0925 393.568 88.6371 391.745C89.613 389.133 90.7625 385.538 92.9202 383.681L93.0003 383.672C93.229 383.619 94.1105 396.674 94.2017 396.819C94.8314 396.665 96.1802 396.427 96.1802 396.427C96.1802 396.427 95.449 377.176 95.2319 376.724Z" fill="#FF9D7D"/>
<path d="M71.7364 285.075C80.6588 285.075 87.8918 277.975 87.8918 269.216C87.8918 260.457 80.6588 253.357 71.7364 253.357C62.814 253.357 55.5811 260.457 55.5811 269.216C55.5811 277.975 62.814 285.075 71.7364 285.075Z" fill="#1F2D49"/>
<path d="M93.8819 259.047L89.326 221.206L87.8186 273.445L93.8819 259.047Z" fill="#0D1B33"/>
<path d="M74.3238 189.882L124.491 190.388L129.366 200.293L73.4761 193.397L74.3238 189.882Z" fill="#0D1B33"/>
<path d="M111.999 288.405C120.921 288.405 128.154 281.304 128.154 272.546C128.154 263.787 120.921 256.687 111.999 256.687C103.077 256.687 95.844 263.787 95.844 272.546C95.844 281.304 103.077 288.405 111.999 288.405Z" fill="#1F2D49"/>
<path d="M20.2733 129.838L16.4542 125.039C15.6551 123.916 14.5917 122.998 13.3547 122.363C11.4758 121.439 8.5948 119.716 7.59313 117.994C5.93413 115.257 -0.60501 107.863 5.06721 102.116C7.16693 99.995 6.64199 100.497 10.8395 100.56C15.0366 100.624 15.6809 104.899 17.7782 107.698C17.7782 107.698 18.2494 104.47 20.5676 102.995C22.8867 101.52 21.3475 110.528 23.1314 113.942C24.9148 117.356 23.4734 118.647 27.6995 124.644L20.2733 129.838Z" fill="#FFCCB3"/>
<path d="M10.2021 101.052L13.6128 108.648L10.2021 101.052Z" fill="#E56441"/>
<path d="M10.2021 101.052L13.6128 108.648" stroke="#E56441" stroke-width="1.03302" stroke-linecap="round"/>
<path d="M5.75317 102.402L10.4794 110.491L5.75317 102.402Z" fill="#E56441"/>
<path d="M5.75317 102.402L10.4794 110.491" stroke="#E56441" stroke-width="1.03302" stroke-linecap="round"/>
<path d="M2.96265 107.724L6.68768 112.552L2.96265 107.724Z" fill="#E56441"/>
<path d="M2.96265 107.724L6.68768 112.552" stroke="#E56441" stroke-width="1.03302" stroke-linecap="round"/>
<path d="M16.9009 109.417C16.9009 109.417 15.4581 113.476 15.7074 116.673L16.9009 109.417Z" fill="#E56441"/>
<path d="M16.9009 109.417C16.9009 109.417 15.4581 113.476 15.7074 116.673" stroke="#E56441" stroke-width="1.03302" stroke-linecap="round"/>
<path d="M79.4232 76.6072C79.4232 76.6072 77.2931 89.9769 73.2209 96.1665C69.1487 102.356 61.1358 122.602 72.0386 127.373C82.9419 132.144 94.9081 123.52 93.0732 102.566C91.2378 81.6118 83.392 73.8111 79.4232 76.6072Z" fill="#392F20"/>
<path d="M79.4224 116.967C75.5013 118.302 70.0359 121.007 68.5565 124.027L55.4885 153.251L27.7005 121.974L18.0535 129.837L45.8082 170.576C51.6933 179.18 60.321 180.365 65.7911 173.28L76.7103 156.444L79.4224 116.967Z" fill="#FF9D7D"/>
<path opacity="0.6" d="M73.8491 142.124C73.8491 142.124 72.6705 140.129 72.6705 150.544L65.7913 173.279L76.71 156.443C85.4695 144.883 78.5495 141.794 73.8491 142.124Z" fill="#E1684A"/>
<path d="M112.721 88.5674C112.721 88.5674 115.782 94.1369 124.022 99.6679C132.109 105.096 140.425 113.17 135.983 126.917C131.54 140.665 107.512 125.299 101.312 115.932C95.1123 106.565 98.7115 92.3444 98.7115 92.3444L112.721 88.5674Z" fill="#392F20"/>
<path d="M88.6213 113.134C88.6213 113.134 78.5078 117.062 76.9639 118.275C75.4195 119.487 73.9537 129.384 71.3286 134.082C68.7035 138.782 64.8634 147.454 70.4724 155.42C76.081 163.386 75.4845 169.712 75.4845 169.712L74.291 189.696L122.628 190.571C123.054 190.583 123.478 190.508 123.871 190.348C124.265 190.189 124.619 189.949 124.912 189.645C125.203 189.341 125.427 188.979 125.566 188.584C125.705 188.189 125.757 187.77 125.719 187.353C125.182 181.527 122.729 173.345 122.535 164.068C122.274 151.494 120.104 109.421 120.104 109.421L101.022 108.833C96.7806 109.551 88.6213 113.134 88.6213 113.134Z" fill="#FF9D7D"/>
<path opacity="0.6" d="M113.792 126.655C113.792 126.655 106.748 132.96 106.334 137.638C105.919 142.316 114.079 153.354 105.026 154.655C93.93 156.249 91.0256 157.802 96.1696 159.022C101.313 160.243 112.563 158.282 112.988 163.497C113.653 171.664 119.464 176.248 123.668 175.088C120.849 150.239 124.17 139.403 113.792 126.655Z" fill="#E1684A"/>
<path d="M88.5336 101L86.3688 116.486C86.3688 116.486 85.0055 119.725 88.5949 119.952C92.1847 120.18 97.4101 118.265 100.606 115.729C103.802 113.192 103.662 112.922 102.868 110.764C102.072 108.605 99.3559 92.729 99.3559 92.729L88.5336 101Z" fill="#FFCCB3"/>
<path d="M88.6414 98.6137L95.8571 95.6606C95.8571 95.6606 91.0167 107.66 86.8589 112.883L88.6414 98.6137Z" fill="#FCBA9F"/>
<path d="M82.4021 71.1711C82.4021 71.1711 76.7327 87.0049 80.1952 96.7327C82.4535 103.077 86.8775 102.73 97.2746 97.7004C106.808 93.0889 109.232 89.7096 109.232 89.7096L110.277 73.7352C110.277 73.7352 88.3976 58.2813 82.4021 71.1711Z" fill="#FFCCB3"/>
<path d="M91.236 73.2878C91.236 73.2878 92.1544 77.3469 97.3658 80.3946C100.202 82.0535 100.599 89.0261 100.599 89.0261C100.599 89.0261 101.261 84.2589 105.073 85.949C108.885 87.6391 103.06 93.6978 99.7533 95.0099C99.7533 95.0099 101.049 101.906 101.954 106.764L116.926 100.392C116.926 100.392 113.879 91.9516 114.678 86.4073C115.476 80.8635 117.511 63.3685 101.493 60.8738C83.9684 58.1443 81.7915 68.4756 79.4214 76.6079C79.4214 76.6079 86.3212 80.1971 91.236 73.2878Z" fill="#392F20"/>
<path d="M84.2544 92.644L89.4522 92.8842C89.4405 92.9168 89.4274 92.9517 89.4124 92.9889C89.3226 93.2135 89.1734 93.5093 88.9371 93.795C88.4739 94.3548 87.6608 94.8968 86.2297 94.7599C85.3506 94.5941 84.8462 94.0159 84.5552 93.4546C84.4093 93.1727 84.3204 92.9003 84.2675 92.6973C84.2628 92.6789 84.2586 92.661 84.2544 92.644Z" fill="#E56441" stroke="#E56441"/>
<path d="M84.4411 83.5067C84.6698 82.6658 84.384 81.8607 83.8029 81.7082C83.2218 81.5557 82.5654 82.1137 82.3362 82.9547C82.1074 83.7951 82.3933 84.6002 82.9744 84.7527C83.5554 84.9052 84.2118 84.3476 84.4411 83.5067Z" fill="#080B09"/>
<path d="M92.9926 85.8812C93.2214 85.0403 92.936 84.2352 92.3544 84.0827C91.7734 83.9302 91.117 84.4883 90.8882 85.3292C90.659 86.1696 90.9448 86.9747 91.5259 87.1272C92.107 87.2797 92.7634 86.7221 92.9926 85.8812Z" fill="#080B09"/>
<path d="M82.2694 79.1693L86.6171 80.3855C86.6929 80.4002 86.7715 80.3873 86.838 80.3492C86.9049 80.3115 86.9554 80.2514 86.9802 80.1797C86.9998 80.0447 86.9914 79.9078 86.9554 79.7765C86.9198 79.6451 86.8571 79.5225 86.7715 79.4155C86.6859 79.3085 86.5792 79.2198 86.4576 79.1546C86.336 79.0889 86.2021 79.0485 86.0646 79.0357L82.3316 78.6586C82.0453 78.5837 81.9115 79.0756 82.2694 79.1693Z" fill="#080B09"/>
<path d="M97.1315 82.7837L91.2366 81.6134C91.2894 81.4412 91.3783 81.2818 91.4976 81.1454C91.6174 81.009 91.7643 80.8984 91.9299 80.8212C92.0955 80.744 92.2757 80.7018 92.4591 80.6972C92.642 80.6926 92.8245 80.7257 92.9938 80.7946L97.2985 82.4511C97.4417 82.4883 97.3462 82.8401 97.1315 82.7837Z" fill="#080B09"/>
<path d="M87.0684 83.7407L85.4141 87.3625L85.9741 89.0265" stroke="#E56441" stroke-width="1.03302" stroke-linecap="round"/>
<path d="M115.858 116.216C115.858 116.216 126.78 111.053 128.833 114.369C130.814 116.481 141.197 145.166 141.197 145.166L126.709 155.483C123.53 150.531 109.112 125.283 109.112 125.283L115.858 116.216Z" fill="#FF9D7D"/>
<path d="M119.465 131.78C125.734 131.78 130.816 126.792 130.816 120.638C130.816 114.484 125.734 109.495 119.465 109.495C113.196 109.495 108.114 114.484 108.114 120.638C108.114 126.792 113.196 131.78 119.465 131.78Z" fill="#FF9D7D"/>
<path d="M145.528 158.154L130.169 163.963L119.965 144.134L136.543 133.903L145.528 158.154Z" fill="#FF9D7D"/>
<path opacity="0.6" d="M140.55 143.393L137.001 148.931L136.477 131.78L140.55 143.393Z" fill="#E1684A"/>
<path d="M158.423 117.187C160.673 111.193 159.043 110.471 159.88 107.125C160.708 103.859 157.244 96.5718 159.606 97.2883C161.969 98.0043 163.072 100.668 163.072 100.668C164.181 97.8279 166.175 90.7239 168.36 91.7265C170.028 92.4917 166.561 98.4525 166.748 100.479C166.803 101.08 168.619 91.5915 171.657 92.3828C173.096 92.7576 169.665 101.253 169.826 101.346C175.945 104.993 174.869 104.406 174.098 107.12C173.595 108.824 168.86 114.488 168.415 115.64L166.257 119.969L158.423 117.187Z" fill="#FFCCB3"/>
<path d="M166.508 109.298L170.17 101.172L166.508 109.298Z" fill="#93523E"/>
<path d="M166.508 109.298L170.17 101.172" stroke="#93523E" stroke-width="0.90001" stroke-linecap="round"/>
<path d="M170.539 107.686L172.593 102.789L170.539 107.686Z" fill="#93523E"/>
<path d="M170.539 107.686L172.593 102.789" stroke="#93523E" stroke-width="0.90001" stroke-linecap="round"/>
<path d="M138.216 170.127C142.767 170.127 146.456 166.505 146.456 162.037C146.456 157.57 142.767 153.949 138.216 153.949C133.665 153.949 129.976 157.57 129.976 162.037C129.976 166.505 133.665 170.127 138.216 170.127Z" fill="#FF9D7D"/>
<path d="M145.743 165.385C145.743 165.385 165.115 124.459 167.382 119.968L158.05 116.085L131.759 157.11L145.743 165.385Z" fill="#FF9D7D"/>
<path d="M74.2927 189.697C74.2927 189.697 55.8823 261.033 55.8482 266.471C55.8164 271.651 52.4165 282.223 66.6887 309.451C66.9185 309.882 67.2403 310.26 67.6319 310.557C68.0235 310.855 68.4759 311.066 68.9583 311.177C69.4411 311.288 69.9417 311.294 70.4273 311.198C70.913 311.101 71.3715 310.903 71.7715 310.616C74.2132 308.92 78.3471 307.695 84.5906 310.774C103.143 319.92 143.391 325.828 161.287 315.433C172.882 308.699 181.715 299.346 186.498 293.594C186.893 293.117 187.147 292.544 187.232 291.936C187.318 291.328 187.232 290.708 186.984 290.145C186.736 289.581 186.335 289.095 185.825 288.74C185.314 288.385 184.715 288.174 184.091 288.13C174.104 287.398 154.94 284.72 144.923 274.931C130.987 261.311 133.213 236.441 132.701 222.953C132.188 209.463 132.601 202.981 124.491 190.389L74.2927 189.697Z" fill="#373737"/>
<path d="M130.815 320.938C130.815 320.938 113.599 312.906 108.113 298.857C102.627 284.807 87.2337 261.182 87.819 273.442C88.4043 285.702 90.8507 313.437 90.8507 313.437C90.8507 313.437 115.714 321.7 130.815 320.938Z" fill="#222222"/>
<path d="M75.6667 118.492C75.6667 118.492 73.6109 128.244 89.5024 128.655C105.394 129.067 113.807 122.21 118.223 109.347L102.376 108.876L86.73 113.895L75.6667 118.492Z" fill="#FFCCB3"/>
<path d="M93.8112 87.2409C93.5038 88.4272 92.9129 89.4119 92.2181 90.048C91.5215 90.6859 90.7472 90.9523 90.0496 90.7782C89.3525 90.6046 88.8019 90.0071 88.4997 89.1198C88.1988 88.2357 88.1591 87.0935 88.4664 85.9072C88.7733 84.7209 89.3642 83.7358 90.059 83.1002C90.7556 82.4622 91.5304 82.1954 92.2275 82.3695C92.9246 82.5435 93.4757 83.141 93.7775 84.0279C94.0783 84.9124 94.1181 86.0546 93.8112 87.2409Z" stroke="white"/>
<path d="M84.921 84.9475C84.6137 86.1338 84.0228 87.1185 83.328 87.7545C82.6314 88.3925 81.8571 88.6588 81.1595 88.4848C80.4624 88.3112 79.9118 87.7137 79.6095 86.8264C79.3087 85.9423 79.2689 84.8001 79.5763 83.6138C79.8832 82.4275 80.4741 81.4423 81.1689 80.8067C81.8655 80.1688 82.6403 79.902 83.3374 80.076C84.0344 80.2501 84.5856 80.8476 84.8873 81.7344C85.1882 82.619 85.2279 83.7612 84.921 84.9475Z" stroke="white"/>
<path d="M84.7529 85.0944C85.5328 84.8647 87.3729 84.7729 88.4957 86.2426" stroke="white"/>
<path d="M93.8767 87.1628L102.298 86.0146" stroke="white"/>
<path fill-rule="evenodd" clip-rule="evenodd" d="M191.048 0.00219719L8.96619 3.94609C7.76227 3.97214 6.57519 4.22943 5.47331 4.70333C4.37097 5.17724 3.37535 5.85817 2.54309 6.70818C1.71083 7.55774 1.05788 8.55902 0.62209 9.6549C0.185833 10.7508 -0.0248221 11.9198 0.00232688 13.0952L5.95077 274.155C6.0046 276.528 7.02223 278.784 8.77943 280.425C10.5371 282.066 12.8901 282.958 15.3209 282.906L197.403 278.962C197.781 278.954 198.157 278.923 198.53 278.869H224C218.292 277.353 206.843 269.061 205.869 247.995L200.418 8.75279C200.364 6.3796 199.346 4.12386 197.589 2.48278C195.832 0.841702 193.479 -0.0503575 191.048 0.00219719ZM185.963 39.7729L190.627 245.033C190.653 246.208 190.443 247.377 190.007 248.473C189.571 249.569 188.918 250.57 188.085 251.419C187.253 252.269 186.258 252.95 185.156 253.424C184.054 253.898 182.867 254.155 181.663 254.181L29.9205 257.468C28.7166 257.494 27.5192 257.288 26.3968 256.863C25.2743 256.437 24.2487 255.8 23.3786 254.987C22.5084 254.174 21.8109 253.202 21.3255 252.126C20.8401 251.051 20.5766 249.892 20.5499 248.716L15.8859 43.4567C15.8587 42.2813 16.0699 41.1123 16.5057 40.0164C16.9419 38.9206 17.5944 37.9193 18.4267 37.0697C19.2594 36.2202 20.255 35.5392 21.3569 35.0653C22.4588 34.5914 23.6458 34.3341 24.8493 34.3081L176.592 31.0214C179.023 30.9688 181.376 31.8609 183.134 33.5024C184.891 35.1435 185.909 37.3992 185.963 39.7729Z" fill="url(#paint1_linear_319_6099)"/>
<path d="M22.7847 24.8971C26.2478 24.8971 29.0554 22.141 29.0554 18.741C29.0554 15.341 26.2478 12.585 22.7847 12.585C19.3212 12.585 16.5137 15.341 16.5137 18.741C16.5137 22.141 19.3212 24.8971 22.7847 24.8971Z" fill="white"/>
<path d="M35.2893 15.2619L69.2235 14.5229" stroke="white" stroke-width="5.36573" stroke-miterlimit="10" stroke-linecap="round"/>
<path d="M35.2893 21.8178L55.2296 21.3838" stroke="white" stroke-width="5.36573" stroke-miterlimit="10" stroke-linecap="round"/>
<defs>
<linearGradient id="paint0_linear_319_6099" x1="96.4516" y1="31.1275" x2="174.172" y2="501.162" gradientUnits="userSpaceOnUse">
<stop stop-color="#F0FCF9"/>
<stop offset="1" stop-color="#64E2C2"/>
</linearGradient>
<linearGradient id="paint1_linear_319_6099" x1="112" y1="-162.562" x2="203.516" y2="588.845" gradientUnits="userSpaceOnUse">
<stop stop-color="white"/>
<stop offset="1" stop-color="#64E2C2"/>
</linearGradient>
</defs>
</svg>
