<svg width="174" height="174" viewBox="0 0 174 174" fill="none" xmlns="http://www.w3.org/2000/svg">
<g clip-path="url(#clip0_244_2201)">
<path d="M117.818 144.616C117.818 146.797 117.171 148.929 115.959 150.743C114.747 152.557 113.025 153.97 111.01 154.805C108.995 155.639 106.777 155.858 104.638 155.432C102.499 155.007 100.534 153.956 98.9913 152.414C97.449 150.872 96.3987 148.907 95.9731 146.768C95.5476 144.628 95.766 142.411 96.6007 140.396C97.4354 138.381 98.8489 136.658 100.662 135.446C102.476 134.235 104.608 133.588 106.789 133.588C109.714 133.588 112.519 134.75 114.587 136.818C116.656 138.886 117.818 141.691 117.818 144.616Z" fill="#39F4C4"/>
<path d="M71.0459 144.616C71.0605 147.21 70.1656 149.726 68.5168 151.728C66.868 153.73 64.5696 155.091 62.0214 155.574C59.4732 156.057 56.8363 155.631 54.5694 154.371C52.3025 153.111 50.5488 151.097 49.6135 148.678C48.6781 146.259 48.6202 143.588 49.4498 141.131C50.2795 138.674 51.9441 136.585 54.1543 135.228C56.3645 133.871 58.9805 133.332 61.5472 133.704C64.1139 134.076 66.4691 135.335 68.2031 137.264C70.0312 139.276 71.0446 141.897 71.0459 144.616Z" fill="#39F4C4"/>
<path d="M128.846 73.1416L128.27 76.8176L124.447 100.871C123.853 104.586 121.956 107.968 119.095 110.41C116.235 112.853 112.598 114.198 108.836 114.203H43.5859L43.255 112.365L36.2092 73.5092L35.8784 71.6957L35.5476 69.8944L31.5652 47.9238H108.53C108.542 53.8113 110.562 59.5184 114.256 64.1031C117.95 68.6878 123.096 71.876 128.846 73.1416Z" fill="#39F4C4"/>
<path d="M129.532 59.3439L118.663 48.4873C121.247 49.2256 123.601 50.6096 125.503 52.509C127.404 54.4083 128.791 56.7605 129.532 59.3439Z" fill="#39F4C4"/>
<path d="M35.8783 71.6711L34.9226 70.1027L33.2193 67.2966L28.0851 39.0032C27.6687 36.7595 26.4825 34.7314 24.731 33.2685C22.9796 31.8056 20.7726 30.9996 18.4906 30.9894H11.1385L10.0234 29.1514H18.4416C21.1572 29.1507 23.7868 30.1036 25.8717 31.8436C27.9566 33.5836 29.3645 36.0004 29.8496 38.6724L31.5161 47.887L35.5107 69.8698L35.8783 71.6711Z" fill="white"/>
<path d="M68.1664 137.24H98.5552C99.5885 136.084 100.854 135.16 102.268 134.526C103.683 133.893 105.215 133.565 106.765 133.563H60.0178C61.5574 133.573 63.0778 133.906 64.4813 134.539C65.8847 135.172 67.1401 136.092 68.1664 137.24Z" fill="black"/>
<path d="M115.465 112.34H45.1175L37.6919 71.3888L33.4399 47.9233L31.7122 38.3778C31.1405 35.2861 29.506 32.4915 27.0916 30.4776C24.6772 28.4637 21.6346 27.3572 18.4906 27.3496H10.0724C9.58493 27.3496 9.11741 27.5433 8.77271 27.888C8.42801 28.2327 8.23438 28.7002 8.23438 29.1876C8.23438 29.6751 8.42801 30.1426 8.77271 30.4873C9.11741 30.832 9.58493 31.0257 10.0724 31.0257H18.4906C20.7726 31.0358 22.9796 31.8419 24.731 33.3048C26.4825 34.7677 27.6686 36.7958 28.0851 39.0395L33.2193 67.3329L34.0648 71.9769L41.4169 112.316H38.6354C35.3334 112.322 32.1687 113.637 29.835 115.973C27.5013 118.309 26.1891 121.475 26.1858 124.777C26.1923 128.076 27.5064 131.238 29.8401 133.569C32.1738 135.9 35.3366 137.211 38.6354 137.215H51.7834C52.8167 136.059 54.0819 135.135 55.4965 134.502C56.9111 133.868 58.4433 133.54 59.9932 133.539H38.5986C36.2749 133.535 34.047 132.612 32.4027 130.97C30.7584 129.328 29.8316 127.101 29.8251 124.777C29.8251 122.449 30.749 120.216 32.394 118.569C34.039 116.922 36.2706 115.995 38.5986 115.992H115.465C115.952 115.992 116.42 115.798 116.765 115.453C117.109 115.109 117.303 114.641 117.303 114.154C117.303 113.666 117.109 113.199 116.765 112.854C116.42 112.509 115.952 112.316 115.465 112.316V112.34Z" fill="black"/>
<path d="M159.161 31.773C156.511 27.7025 152.898 24.3482 148.642 22.0072C144.386 19.6662 139.618 18.4106 134.761 18.3518C129.904 18.2929 125.108 19.4325 120.796 21.6697C116.485 23.9069 112.791 27.1726 110.043 31.1777C107.295 35.1828 105.577 39.8038 105.04 44.6314C104.504 49.459 105.167 54.3444 106.969 58.855C108.771 63.3655 111.658 67.3621 115.373 70.4909C119.089 73.6196 123.518 75.784 128.27 76.7924C132.571 77.6996 137.02 77.6364 141.293 76.6075C145.567 75.5787 149.557 73.6099 152.974 70.8446C156.39 68.0793 159.148 64.5871 161.045 60.622C162.942 56.6568 163.931 52.3187 163.94 47.9231C163.956 42.189 162.294 36.5754 159.161 31.773ZM134.397 73.7535C132.529 73.7558 130.668 73.5503 128.846 73.1409C124.828 72.2487 121.081 70.4101 117.917 67.778C114.752 65.146 112.262 61.7965 110.653 58.0081C109.044 54.2198 108.363 50.102 108.666 45.9973C108.969 41.8925 110.247 37.9195 112.395 34.4084C114.543 30.8974 117.498 27.9499 121.015 25.811C124.531 23.6722 128.507 22.4037 132.613 22.1112C136.718 21.8186 140.834 22.5105 144.619 24.1292C148.403 25.7479 151.746 28.2466 154.37 31.4176L130.61 55.1772L119.435 44.002C119.089 43.6575 118.62 43.4646 118.132 43.4658C117.644 43.4669 117.176 43.662 116.831 44.0081C116.487 44.3542 116.294 44.823 116.295 45.3113C116.296 45.7997 116.491 46.2675 116.837 46.612L118.712 48.4868L129.581 59.3434L130.61 60.3727L156.49 34.4443C158.878 38.3626 160.18 42.8458 160.262 47.4336C160.345 52.0215 159.205 56.5486 156.959 60.5503C154.714 64.5519 151.444 67.884 147.486 70.2043C143.527 72.5247 139.022 73.7496 134.433 73.7535H134.397Z" fill="white"/>
<path d="M165.239 23.098C165.069 22.9261 164.867 22.7896 164.644 22.6964C164.421 22.6033 164.181 22.5554 163.94 22.5554C163.698 22.5554 163.459 22.6033 163.236 22.6964C163.013 22.7896 162.811 22.9261 162.641 23.098L156.943 28.7959C151.989 22.9518 144.955 19.2648 137.33 18.5155C129.705 17.7662 122.088 20.0133 116.091 24.7811C110.093 29.549 106.187 36.4635 105.198 44.0609C104.209 51.6584 106.215 59.3425 110.792 65.4869C115.368 71.6313 122.156 75.7536 129.719 76.9814C137.281 78.2092 145.025 76.4459 151.31 72.065C157.596 67.6841 161.93 61.0292 163.395 53.5091C164.86 45.9889 163.342 38.1938 159.161 31.7735L165.288 25.6467C165.608 25.2966 165.781 24.8369 165.772 24.3626C165.763 23.8882 165.572 23.4355 165.239 23.098ZM160.264 47.9236C160.257 54.7821 157.53 61.3577 152.68 66.2073C147.831 71.057 141.255 73.7843 134.397 73.7908C132.529 73.793 130.668 73.5875 128.846 73.1781C124.833 72.2809 121.092 70.4395 117.934 67.8069C114.775 65.1742 112.29 61.8262 110.685 58.0408C109.079 54.2553 108.4 50.1415 108.703 46.0409C109.006 41.9403 110.283 37.9711 112.427 34.4627C114.572 30.9543 117.522 28.008 121.033 25.8682C124.544 23.7284 128.515 22.4569 132.616 22.1592C136.717 21.8616 140.83 22.5462 144.613 24.1565C148.397 25.7668 151.741 28.2562 154.37 31.4181L130.61 55.1777L119.435 44.0025C119.089 43.658 118.62 43.4651 118.132 43.4663C117.644 43.4674 117.176 43.6625 116.831 44.0086C116.487 44.3547 116.294 44.8235 116.295 45.3118C116.296 45.8002 116.491 46.268 116.837 46.6125L118.712 48.4873L129.581 59.3439L130.61 60.3732L156.49 34.4448C158.969 38.5027 160.275 43.1683 160.264 47.9236Z" fill="black"/>
</g>
<defs>
<clipPath id="clip0_244_2201">
<rect width="174" height="174" fill="white"/>
</clipPath>
</defs>
</svg>
