<svg width="174" height="174" viewBox="0 0 174 174" fill="none" xmlns="http://www.w3.org/2000/svg">
<g clip-path="url(#clip0_244_2391)">
<path d="M173.89 58.9396C173.644 57.9145 173.051 57.0062 172.211 56.3695C171.37 55.7328 170.336 55.4068 169.282 55.4472H71.4503C69.8089 55.505 68.234 56.1108 66.977 57.168C65.7199 58.2251 64.8532 59.6727 64.5147 61.2799C64.175 62.8809 63.3106 64.3227 62.0588 65.377C60.807 66.4313 59.2392 67.0378 57.6037 67.1003H56.7338H56.2681H55.7289H54.8712C54.1421 67.1265 53.4166 66.9845 52.7511 66.6854C52.0856 66.3862 51.4979 65.938 51.0335 65.3752C50.5691 64.8125 50.2405 64.1504 50.073 63.4403C49.9056 62.7301 49.9037 61.9908 50.0678 61.2799C50.2337 60.5691 50.2339 59.8297 50.0681 59.1189C49.9023 58.4081 49.5751 57.7451 49.1118 57.1811C48.6486 56.6171 48.0617 56.1673 47.3966 55.8666C46.7315 55.5659 46.0062 55.4224 45.2768 55.4472H19.3237C17.6922 55.5068 16.1285 56.115 14.8854 57.1735C13.6424 58.2319 12.7929 59.6787 12.4741 61.2799L0.134689 131.284C-0.0338611 131.995 -0.0357645 132.736 0.129005 133.447C0.293774 134.159 0.620864 134.823 1.08467 135.388C1.54847 135.953 2.13641 136.403 2.80273 136.702C3.46905 137.002 4.19567 137.144 4.92586 137.117H30.9033C32.5348 137.057 34.0986 136.449 35.3416 135.391C36.5846 134.332 37.4343 132.885 37.7531 131.284C38.0748 129.683 38.9273 128.238 40.1725 127.182C41.4178 126.125 42.9831 125.52 44.615 125.464H46.6858C47.4136 125.435 48.1383 125.575 48.8023 125.875C49.4664 126.174 50.0515 126.624 50.5116 127.189C50.9717 127.754 51.294 128.418 51.453 129.129C51.6121 129.839 51.6035 130.577 51.4279 131.284C51.2505 131.991 51.24 132.729 51.3974 133.441C51.5548 134.152 51.8756 134.817 52.3345 135.383C52.7935 135.949 53.3779 136.4 54.0415 136.701C54.7051 137.002 55.4298 137.145 56.1579 137.117H149.922C152.734 137.019 155.434 135.984 157.591 134.177C159.749 132.37 161.242 129.894 161.832 127.143L169.503 85.2233C170.018 82.3682 167.236 80.5792 164.454 81.9884L112.879 108.284C112.317 108.597 111.684 108.76 111.041 108.76C110.398 108.76 109.766 108.597 109.203 108.284L108.811 108.039L71.8178 84.8434C71.3738 84.5631 71.0273 84.1525 70.8255 83.6678C70.6237 83.1831 70.5767 82.6479 70.6906 82.1354L71.3032 79.3293C71.3904 78.935 71.5703 78.5672 71.8283 78.2565C72.0862 77.9458 72.4146 77.7012 72.7862 77.543C73.1577 77.3848 73.5616 77.3175 73.9644 77.3469C74.3672 77.3763 74.7571 77.5014 75.1018 77.7119L110.122 98.8247L110.515 99.0085C111.23 99.3358 112.007 99.5031 112.794 99.4987C113.725 99.5123 114.644 99.2888 115.465 98.8492L168.78 73.1904C169.738 72.725 170.576 72.0458 171.231 71.2054C171.893 70.3513 172.354 69.3584 172.578 68.3011L173.914 60.949C174.045 60.2847 174.037 59.6005 173.89 58.9396ZM55.7657 107.954C55.4443 109.566 54.5792 111.019 53.315 112.071C52.0766 113.14 50.503 113.743 48.867 113.774H46.6614C46.0189 113.801 45.3775 113.696 44.7772 113.465C44.1768 113.235 43.6302 112.884 43.1708 112.433C42.7115 111.983 42.3492 111.444 42.1066 110.848C41.8639 110.253 41.7461 109.614 41.76 108.971C41.7629 108.629 41.7956 108.289 41.858 107.954C42.1773 106.35 43.0286 104.902 44.2741 103.843C45.5196 102.785 47.0863 102.178 48.7199 102.121H51.0604C51.7844 102.1 52.5034 102.247 53.1614 102.55C53.8194 102.852 54.3987 103.303 54.854 103.866C55.3094 104.43 55.6285 105.09 55.7866 105.797C55.9448 106.504 55.9376 107.238 55.7657 107.941V107.954ZM60.1403 84.672C59.8024 86.2772 58.9372 87.7232 57.6827 88.7802C56.4282 89.8371 54.8563 90.4441 53.217 90.5047H50.7663C50.0359 90.5313 49.3091 90.3893 48.6424 90.0894C47.9758 89.7896 47.3873 89.3401 46.9226 88.7758C46.4579 88.2116 46.1296 87.5477 45.9632 86.8359C45.7967 86.1242 45.7966 85.3838 45.9629 84.672C46.2797 83.0698 47.1287 81.6217 48.3722 80.5629C49.6156 79.5041 51.1804 78.8967 52.8126 78.8393H55.4226C56.1411 78.8191 56.8547 78.9637 57.5086 79.2621C58.1625 79.5606 58.7393 80.005 59.1948 80.5611C59.6503 81.1171 59.9724 81.7701 60.1363 82.47C60.3001 83.1699 60.3016 83.8979 60.1403 84.5984V84.672Z" fill="#39F4C4"/>
<path d="M3.89653 78.7535C3.53324 78.7532 3.17822 78.6453 2.87625 78.4433C2.57429 78.2413 2.33884 77.9543 2.19985 77.6187C2.06087 77.283 2.02451 76.9137 2.0953 76.5574C2.16608 76.2011 2.34086 75.8738 2.59758 75.6167L40.7673 37.447C40.9371 37.2751 41.1394 37.1385 41.3624 37.0453C41.5853 36.9522 41.8246 36.9043 42.0663 36.9043C42.3079 36.9043 42.5471 36.9522 42.77 37.0453C42.993 37.1385 43.1953 37.2751 43.3651 37.447C43.7063 37.7932 43.8976 38.2597 43.8976 38.7458C43.8976 39.2319 43.7063 39.6985 43.3651 40.0447L5.19532 78.1777C5.02745 78.3545 4.82635 78.4964 4.60344 78.5953C4.38053 78.6941 4.1403 78.7479 3.89653 78.7535Z" fill="black"/>
<path d="M11.2121 55.2268C9.39927 55.2268 7.62722 54.6892 6.11994 53.6821C4.61266 52.675 3.43781 51.2435 2.74409 49.5687C2.05036 47.8939 1.86885 46.0509 2.2225 44.273C2.57616 42.495 3.44911 40.8619 4.73095 39.5801C6.01278 38.2982 7.64603 37.4253 9.42399 37.0716C11.202 36.718 13.0447 36.8995 14.7195 37.5932C16.3943 38.2869 17.8258 39.4616 18.833 40.9689C19.8401 42.4762 20.3777 44.2484 20.3777 46.0612C20.3777 48.4921 19.4121 50.8233 17.6932 52.5421C15.9743 54.261 13.6429 55.2268 11.2121 55.2268ZM11.2121 40.5226C10.1258 40.5226 9.06397 40.8449 8.16094 41.4486C7.25793 42.0524 6.55436 42.9103 6.13923 43.9141C5.7241 44.9179 5.61605 46.0224 5.82886 47.0876C6.04167 48.1528 6.56571 49.1309 7.33467 49.8982C8.10363 50.6654 9.08287 51.1873 10.1486 51.3977C11.2142 51.6081 12.3184 51.4977 13.3213 51.0803C14.3241 50.6629 15.1807 49.9574 15.7824 49.0531C16.3842 48.1487 16.704 47.0861 16.7016 45.9999C16.6823 44.5567 16.0955 43.1792 15.0681 42.1655C14.0407 41.1519 12.6553 40.5836 11.2121 40.5837V40.5226Z" fill="black"/>
<path d="M34.7388 78.7536C32.926 78.7536 31.1539 78.2161 29.6466 77.2089C28.1394 76.2018 26.9647 74.7703 26.2709 73.0955C25.5772 71.4207 25.3957 69.5779 25.7494 67.8C26.103 66.022 26.976 64.3888 28.2578 63.1069C29.5396 61.8251 31.1727 60.9521 32.9507 60.5985C34.7287 60.2448 36.5716 60.4263 38.2464 61.1201C39.9212 61.8138 41.3527 62.9886 42.3598 64.4959C43.367 66.0032 43.9045 67.7752 43.9045 69.588C43.9013 72.0179 42.9345 74.3474 41.2163 76.0656C39.4981 77.7837 37.1686 78.7504 34.7388 78.7536ZM34.7388 64.0494C33.6525 64.0494 32.5907 64.3717 31.6877 64.9755C30.7846 65.5792 30.0811 66.4373 29.6659 67.4411C29.2508 68.4449 29.1428 69.5492 29.3556 70.6144C29.5684 71.6797 30.0926 72.6578 30.8615 73.425C31.6305 74.1923 32.6097 74.7141 33.6754 74.9246C34.7411 75.135 35.8453 75.0245 36.8481 74.6072C37.851 74.1898 38.7074 73.4843 39.3092 72.5799C39.9109 71.6756 40.2309 70.613 40.2285 69.5267C40.2091 68.0836 39.6222 66.7062 38.5948 65.6925C37.5674 64.6789 36.182 64.1106 34.7388 64.1107V64.0494Z" fill="black"/>
</g>
<defs>
<clipPath id="clip0_244_2391">
<rect width="174" height="174" fill="white"/>
</clipPath>
</defs>
</svg>
