<svg width="174" height="174" viewBox="0 0 174 174" fill="none" xmlns="http://www.w3.org/2000/svg">
<g clip-path="url(#clip0_244_2190)">
<path d="M163.29 62.9832L154.223 114.448C151.956 127.29 139.702 137.73 126.849 137.73H6.83746C6.28185 137.755 5.72788 137.652 5.21887 137.428C4.70986 137.204 4.2597 136.865 3.90362 136.437C3.54754 136.01 3.29525 135.506 3.16649 134.965C3.03774 134.424 3.03595 133.86 3.16141 133.318C3.36456 132.251 3.89079 131.271 4.66872 130.512L5.10983 130.108C9.59461 125.979 16.138 120.501 17.2286 114.473L26.3083 63.0078C28.563 50.1661 40.8166 39.7261 53.6705 39.7261H144.089C156.931 39.7261 165.508 50.1415 163.29 62.9832Z" fill="#39F4C4"/>
<path d="M26.1917 28.7344C27.0426 28.9666 27.8019 29.4541 28.3672 30.1311C28.9325 30.8081 29.2766 31.6421 29.3532 32.5208C29.9782 37.1648 28.8876 41.6986 27.0373 47.0779L26.7555 47.9112C26.37 48.6778 26.1963 49.5334 26.2525 50.3896C26.3086 51.2458 26.5926 52.0715 27.0749 52.7812C27.5571 53.4909 28.2203 54.0589 28.9957 54.4263C29.7712 54.7937 30.6307 54.9473 31.4853 54.8712L36.1416 55.0794C39.5603 55.2387 43.0894 55.3981 46.6061 55.3981H48.1378C49.152 55.4622 50.1135 55.8717 50.8626 56.5583C51.6116 57.245 52.1031 58.1674 52.255 59.1722C52.29 61.4205 52.1259 63.6676 51.7648 65.8871L51.6546 66.7571C51.2257 70.0655 50.7724 73.423 50.319 76.6701C49.8289 80.2727 49.3141 84.0223 48.8485 87.6983C48.7777 88.5682 48.4499 89.3973 47.9066 90.0803C47.3633 90.7632 46.629 91.2691 45.7974 91.5337C44.4854 92.093 43.0811 92.4046 41.6557 92.4527C39.8667 92.514 37.9061 92.5507 35.5289 92.5507H31.4731H19.5014C16.4012 92.5507 14.024 92.5507 11.7938 92.5507C11.643 92.5288 11.4976 92.479 11.365 92.4037C10.4449 91.8096 9.56855 91.1503 8.74273 90.4308L8.66929 90.3696C8.02006 89.8946 7.50337 89.2611 7.16871 88.5296C6.83406 87.7981 6.69254 86.993 6.75767 86.1912C6.90471 78.692 6.8557 71.0948 6.75767 63.7427V60.4465C6.74296 60.061 6.82225 59.6777 6.98877 59.3297C7.15529 58.9818 7.40406 58.6796 7.71348 58.4492L9.3065 56.9665C12.5414 53.9521 15.8744 50.8397 18.95 47.4823C23.5941 42.3848 24.9787 36.1232 25.7874 30.1068C25.8322 29.6569 25.9524 29.2179 26.1428 28.8079M25.9835 25.1318C23.9372 25.1318 22.528 26.7493 22.1359 29.6289C21.4007 35.192 20.1385 40.7305 16.2296 45.0193C12.7741 48.8056 8.95103 52.2611 5.20145 55.7779C4.52318 56.3575 3.98149 57.0799 3.61501 57.8933C3.24854 58.7068 3.06636 59.5912 3.08161 60.4832C3.08161 69.0607 3.2164 77.6382 3.08161 86.1299C3.00583 87.4855 3.262 88.8392 3.82786 90.0734C4.39373 91.3076 5.25221 92.3851 6.32883 93.2124C7.31494 94.073 8.36351 94.8594 9.4658 95.5651C10.1596 95.9815 10.9484 96.2136 11.7572 96.2391C14.3304 96.2391 16.9118 96.2391 19.5014 96.2391H27.3068H35.4677C37.5631 96.2391 39.6707 96.239 41.7661 96.141C43.6426 96.0642 45.4898 95.649 47.2188 94.9157C48.6405 94.3935 49.887 93.4827 50.8163 92.2869C51.7457 91.091 52.3206 89.6582 52.4756 88.1517C53.3456 81.1794 54.3871 74.2194 55.2693 67.2349C55.7252 64.5144 55.9384 61.7588 55.9065 59.0006C55.6982 54.6506 51.4585 51.7343 48.1133 51.7343H46.5816C41.5822 51.7343 36.595 51.3912 31.5956 51.2074C29.9536 51.2074 29.6718 50.6927 30.2109 49.0997C30.309 48.8301 30.407 48.5483 30.4927 48.2788C32.294 43.0097 33.7399 37.7162 32.9434 32.0428C32.8341 30.773 32.4136 29.5497 31.719 28.4811C31.0244 27.4125 30.0771 26.5315 28.961 25.9161C28.0643 25.3582 27.0387 25.0417 25.9835 24.9971V25.1318Z" fill="black"/>
<path d="M138.553 77.7855V81.4616H142.609H146.714H154.52C157.62 81.4616 159.997 81.4616 162.227 81.4616C162.378 81.4776 162.523 81.5234 162.656 81.5963C163.581 82.1936 164.461 82.857 165.291 83.5814H165.364C166.012 84.057 166.527 84.6909 166.859 85.4226C167.192 86.1542 167.331 86.959 167.263 87.7598C167.129 95.259 167.178 102.856 167.263 110.196V113.492C167.274 113.879 167.193 114.262 167.027 114.612C166.861 114.961 166.614 115.266 166.308 115.502L164.715 116.985C161.492 119.999 158.147 123.111 155.083 126.469C150.439 131.554 149.042 137.828 148.246 143.844C148.193 144.27 148.069 144.685 147.878 145.07C147.528 144.983 147.193 144.842 146.886 144.653C146.266 144.326 145.741 143.843 145.363 143.252C144.985 142.662 144.767 141.983 144.729 141.283C144.092 136.651 145.195 132.118 147.033 126.738L147.315 125.905C147.7 125.138 147.874 124.283 147.818 123.427C147.761 122.57 147.478 121.745 146.995 121.035C146.513 120.325 145.85 119.757 145.074 119.39C144.299 119.022 143.44 118.869 142.585 118.945L137.928 118.737C134.522 118.577 130.993 118.406 127.476 118.406H125.932C124.919 118.34 123.959 117.929 123.21 117.243C122.461 116.557 121.969 115.636 121.815 114.632C121.786 112.384 121.95 110.137 122.305 107.917L122.428 107.035C122.844 103.738 123.31 100.381 123.751 97.1215C124.253 93.519 124.768 89.7694 125.222 86.0934C125.295 85.2257 125.624 84.3992 126.167 83.7186C126.71 83.0381 127.443 82.534 128.273 82.2703C129.586 81.7128 130.989 81.3973 132.414 81.339C134.203 81.339 136.164 81.2532 138.541 81.2532V77.5771M138.541 77.5771C136.446 77.5771 134.35 77.5772 132.255 77.6629C130.379 77.743 128.532 78.158 126.802 78.8883C125.38 79.411 124.132 80.3217 123.201 81.5172C122.27 82.7127 121.692 84.1452 121.533 85.6523C120.663 92.6368 119.622 99.5968 118.739 106.569C118.296 109.291 118.083 112.046 118.102 114.803C118.323 119.166 122.55 122.082 125.895 122.082H127.439C132.427 122.082 137.426 122.425 142.413 122.609C144.055 122.609 144.337 123.124 143.798 124.729C143.7 124.998 143.614 125.268 143.516 125.55C141.715 130.806 140.269 136.1 141.065 141.786C141.18 143.044 141.602 144.256 142.294 145.313C142.986 146.371 143.928 147.242 145.036 147.851C145.932 148.409 146.958 148.726 148.013 148.77C150.072 148.77 151.469 147.153 151.861 144.273C152.608 138.71 153.858 133.171 157.767 128.883C161.222 125.096 165.045 121.629 168.795 118.124C169.478 117.548 170.023 116.827 170.39 116.012C170.757 115.198 170.936 114.312 170.915 113.419C170.915 104.841 170.78 96.2638 170.915 87.7721C170.993 86.4156 170.739 85.0606 170.176 83.8243C169.612 82.588 168.755 81.5078 167.68 80.6773C166.692 79.8196 165.643 79.0334 164.543 78.3247C163.845 77.9188 163.058 77.6915 162.252 77.6629H154.495H146.69H138.529L138.541 77.5771Z" fill="black"/>
</g>
<defs>
<clipPath id="clip0_244_2190">
<rect width="174" height="174" fill="white"/>
</clipPath>
</defs>
</svg>
