<svg width="174" height="174" viewBox="0 0 174 174" fill="none" xmlns="http://www.w3.org/2000/svg">
<g clip-path="url(#clip0_244_2369)">
<path d="M154.563 69.152C153.397 68.4351 152.22 67.729 151.054 67.0122L149.214 65.9423L139.06 59.8118L140.13 59.1057C140.326 58.9559 140.53 58.8166 140.74 58.6884L143.372 57.1157L154.52 50.461C155.686 49.7656 156.286 49.2413 156.039 48.4496C155.728 47.6181 155.123 46.9293 154.338 46.5131C144.467 41.8484 134.585 37.2122 124.692 32.6045C118.986 29.9512 113.315 27.2943 107.68 24.6338C107.165 24.343 106.579 24.2037 105.988 24.2321C105.398 24.2605 104.827 24.4554 104.342 24.7942C101.796 26.367 99.2497 27.8969 96.6926 29.4269C94.1356 30.9568 91.3432 32.6366 88.7327 34.2628C88.2425 34.6226 87.6503 34.8166 87.0422 34.8166C86.4342 34.8166 85.8419 34.6226 85.3518 34.2628C82.9017 32.7757 80.441 31.3313 77.9696 29.8762C75.4981 28.4212 72.6201 26.7201 69.9454 25.1046C69.3865 24.7207 68.7293 24.5053 68.0516 24.484C67.4435 24.5066 66.8479 24.6637 66.3077 24.944C62.5952 26.7415 58.8185 28.5068 55.106 30.2293L50.7087 32.2728L44.5782 35.0973C36.4257 38.9061 28.0056 42.8434 19.7567 46.7806C18.97 47.1856 18.3659 47.8737 18.0663 48.7064C17.8523 49.4339 18.291 50.0223 19.5642 50.7178C20.6341 51.2955 21.704 51.916 22.7738 52.5472L35.0134 59.7048L33.4728 60.657C32.9271 61.0101 32.4028 61.2989 31.9749 61.5878C30.6054 62.4223 29.2467 63.2354 27.8665 64.0593C24.9885 65.7925 22.0998 67.5257 19.2432 69.291C18.1733 69.9223 17.6384 70.6391 17.6598 71.3024C17.6812 71.9658 18.291 72.6612 19.3823 73.2389L23.587 75.4857C27.2888 77.4757 31.0762 79.5192 34.9171 81.4664C35.5318 81.7294 36.0452 82.1839 36.3806 82.7623C36.7161 83.3407 36.8557 84.0119 36.7787 84.6761C36.7787 90.5926 36.7787 96.5305 36.7787 102.447C36.7787 108.706 36.7787 114.954 36.7787 121.213C36.7044 121.875 36.844 122.544 37.177 123.122C37.51 123.699 38.019 124.155 38.6296 124.423C55.1702 133.185 71.6571 142.001 85.6085 149.479C86.0638 149.759 86.5879 149.908 87.1225 149.908C87.657 149.908 88.1811 149.759 88.6363 149.479C101.475 142.6 118.379 133.549 135.316 124.594C135.983 124.321 136.545 123.841 136.919 123.225C137.293 122.608 137.458 121.888 137.391 121.17C137.391 114.376 137.391 107.582 137.391 100.842C137.391 95.3999 137.391 89.9578 137.391 84.5156C137.333 83.9354 137.461 83.3517 137.757 82.8494C138.054 82.3472 138.503 81.9526 139.039 81.7232C142.709 79.8188 146.41 77.8501 149.984 75.9457L154.584 73.485C155.804 72.8324 156.478 72.137 156.5 71.4522C156.521 70.7675 155.772 69.8688 154.563 69.152ZM94.6491 34.9154C96.7889 33.6209 98.8645 32.3584 100.94 31.1173C101.411 30.8392 101.882 30.5182 102.342 30.1972C103.462 29.233 104.823 28.5897 106.279 28.3356C107.709 28.4203 109.086 28.9102 110.248 29.7478C110.74 30.026 111.254 30.3256 111.735 30.5503L143.714 45.5287L147.523 47.3155C147.887 47.476 148.24 47.6578 148.668 47.8825L150.198 48.6422L147.149 50.4931C145.426 51.5629 143.757 52.5579 142.077 53.5529C141.617 53.8418 141.125 54.0986 140.654 54.3768C139.71 54.8682 138.802 55.426 137.937 56.0458C137.085 56.7555 136.018 57.1553 134.909 57.1799C133.932 57.1435 132.975 56.8914 132.106 56.4416C122.67 51.9267 113.03 47.4439 103.711 43.0894L93.5899 38.3712C93.2476 38.2107 92.9266 38.0395 92.5201 37.8362L91.0864 37.098L94.6491 34.9154ZM28.1982 51.3918L23.9186 48.8775L27.4278 47.2192L32.7773 44.7263L41.1974 40.7998C49.6067 36.8769 58.0125 32.954 66.4147 29.031C66.9094 28.7511 67.4733 28.6166 68.0411 28.6431C68.609 28.6696 69.1578 28.856 69.6243 29.1808C72.1814 30.7536 74.8241 32.2942 77.3597 33.7814L80.8154 35.8035C81.0936 35.9746 81.3825 36.1565 81.7142 36.3812L82.998 37.2264L78.8147 39.195L72.053 42.4047L64.3498 45.9995C56.3969 49.6942 48.4619 53.4032 40.5447 57.1264C40.1081 57.3544 39.6249 57.4788 39.1325 57.4901C38.5956 57.4765 38.0733 57.3134 37.6239 57.0194C34.4999 55.0829 31.3864 53.2747 28.1661 51.4024L28.1982 51.3918ZM28.6797 73.9879L25.042 72.0407C24.8591 71.9395 24.6839 71.8251 24.5178 71.6983C24.4215 71.6127 24.3038 71.5378 24.1754 71.4415L23.5548 71.0136L24.1968 70.6177C25.2667 70.0079 26.2403 69.4194 27.246 68.8524C29.4442 67.6811 31.5539 66.3509 33.5584 64.8724C36.9499 62.2619 39.8707 62.1549 44.0005 64.4872C52.7736 69.4408 61.8249 74.2232 70.5873 78.8559C74.0751 80.6961 77.5558 82.5399 81.0294 84.3872C81.2969 84.5263 81.5429 84.6761 81.8639 84.8794L83.1264 85.6283L81.6927 86.527C81.1685 86.8586 80.6977 87.1476 80.2056 87.4364L77.8305 88.87C75.0059 90.5819 72.0958 92.3472 69.1857 94.0269C68.695 94.2879 68.1474 94.4239 67.5916 94.4228C67.2511 94.4308 66.9137 94.3574 66.6073 94.2088C53.9398 87.5006 41.0797 80.6426 28.6475 73.9986L28.6797 73.9879ZM85.0522 144.922L80.9973 142.782L73.2513 138.695L65.3555 134.48C57.7807 130.425 49.9491 126.252 42.2352 122.165C41.6484 121.919 41.1561 121.491 40.8306 120.944C40.5051 120.397 40.3637 119.76 40.427 119.127C40.427 111.017 40.427 102.757 40.427 94.7652V84.5477L42.8343 85.7995L46.2045 87.5541L49.0504 89.0733C54.8599 92.1653 60.6801 95.2573 66.4575 98.3814C66.8898 98.6439 67.3893 98.7746 67.8948 98.7575C68.4003 98.7404 68.8898 98.5762 69.3034 98.2851L80.0023 91.8657L85.0201 88.8808L85.0522 144.922ZM88.4438 82.5791C87.9603 82.8121 87.4291 82.9294 86.8924 82.9215C86.4898 82.9312 86.0906 82.847 85.7263 82.6754C73.9575 76.4807 62.1244 70.1255 50.6338 63.9844L45.1453 61.0529L44.514 60.6891L43.2516 59.9402L44.6317 59.2233C45.0062 59.0308 45.3272 58.8596 45.6481 58.7098L49.4783 56.9124C61.5253 51.2848 73.5723 45.6678 85.6192 40.0616C85.9907 39.8784 86.3952 39.7716 86.8088 39.7477C87.2223 39.7238 87.6364 39.7833 88.0265 39.9225C100.459 45.6785 113.062 51.5737 125.259 57.2762L129.228 59.1378C129.371 59.2034 129.502 59.2939 129.613 59.4053L129.966 59.662L130.587 60.1221L107.755 72.3616C101.443 75.6997 94.9166 79.1982 88.4438 82.5791ZM133.582 95.3001V102.158C133.582 107.871 133.582 113.595 133.582 119.276C133.661 119.801 133.572 120.337 133.328 120.807C133.084 121.278 132.698 121.66 132.224 121.898C121.867 127.39 111.525 132.9 101.197 138.427L90.7868 143.98C90.5835 144.087 90.3696 144.183 90.1128 144.29L88.968 144.783V88.8593L95.3874 92.6574L97.9444 94.1767C100.159 95.4927 102.438 96.8407 104.642 98.2316C105.101 98.55 105.646 98.7207 106.204 98.7207C106.762 98.7207 107.307 98.55 107.766 98.2316C113.936 94.9078 120.123 91.609 126.329 88.3351L131.154 85.7674L132.224 85.2538L133.689 84.5263L133.582 95.3001ZM149.856 71.4415C149.684 71.5378 149.545 71.6448 149.417 71.7304C149.163 71.9135 148.899 72.0814 148.625 72.2332C134.895 79.5727 121.129 86.905 107.327 94.2302C106.933 94.4344 106.498 94.5477 106.054 94.5619C105.812 94.565 105.572 94.5061 105.359 94.3907C101.764 92.2509 98.2119 90.1111 94.4673 87.8109L90.8083 85.5748L98.8217 81.2952C103.551 78.7489 108.205 76.256 112.869 73.806L114.752 72.7361C120.979 69.4087 127.409 65.9744 133.775 62.6577C134.163 62.4441 134.595 62.3207 135.038 62.2966C135.48 62.2725 135.923 62.3484 136.332 62.5186C139.777 64.5086 143.137 66.5307 146.689 68.6812L150.53 70.9921L149.856 71.4415Z" fill="black"/>
<path d="M130.619 60.1223L107.755 72.3618C101.443 75.732 94.9165 79.2306 88.4971 82.6114C88.0136 82.8445 87.4825 82.9617 86.9458 82.9538C86.5432 82.9636 86.1439 82.8793 85.7796 82.7077C74.0108 76.513 62.1778 70.1579 50.6872 64.0167L45.1987 61.0852L44.5674 60.7214L43.3049 59.9725L44.6851 59.2557C45.0595 59.0631 45.3805 58.8919 45.7015 58.7421L49.5317 56.9447C61.5787 51.3171 73.6256 45.7002 85.6726 40.094C86.0441 39.9107 86.4486 39.8039 86.8621 39.78C87.2756 39.7562 87.6897 39.8156 88.0799 39.9549C100.512 45.7109 113.115 51.6059 125.312 57.3085L129.281 59.1701C129.425 59.2356 129.555 59.3262 129.667 59.4375L130.02 59.6943L130.619 60.1223Z" fill="#39F4C4"/>
</g>
<defs>
<clipPath id="clip0_244_2369">
<rect width="174" height="174" fill="white"/>
</clipPath>
</defs>
</svg>
