<svg width="174" height="174" viewBox="0 0 174 174" fill="none" xmlns="http://www.w3.org/2000/svg">
<g clip-path="url(#clip0_244_2317)">
<path d="M89.4752 119.043H126.371L126.077 120.648L105.38 130.622L89.1567 120.819L89.4752 119.006M89.3404 116.188C88.723 116.205 88.1303 116.435 87.6617 116.837C87.1886 117.229 86.8607 117.768 86.7304 118.369L86.2648 120.93C86.182 121.293 86.2119 121.674 86.3506 122.02C86.496 122.361 86.7445 122.648 87.0613 122.841L104.216 133.22C104.538 133.399 104.901 133.492 105.27 133.489C105.633 133.492 105.991 133.403 106.312 133.232L127.241 123.16C127.623 122.976 127.959 122.707 128.223 122.373C128.486 122.04 128.67 121.651 128.76 121.236L129.287 118.381C129.348 118.115 129.348 117.838 129.287 117.572C129.22 117.303 129.094 117.052 128.919 116.837C128.745 116.624 128.522 116.456 128.27 116.347C128.046 116.249 127.804 116.199 127.559 116.2H89.3404V116.188Z" fill="black"/>
<path d="M87.4779 129.998L102.415 139.372H102.476C103.117 139.74 103.844 139.934 104.584 139.935C105.303 139.934 106.011 139.752 106.642 139.408L124.214 130.451L121.763 143.771C121.661 144.225 121.413 144.633 121.057 144.932C120.7 145.23 120.255 145.404 119.79 145.425H85.0884C85.04 145.436 84.9898 145.436 84.9414 145.425L84.8065 145.327C84.7699 145.28 84.7448 145.226 84.733 145.168C84.7143 145.112 84.7143 145.052 84.733 144.996V144.935V144.861L87.4533 129.973M126.383 126.432C126.113 126.434 125.849 126.502 125.611 126.628L105.356 136.958C105.131 137.084 104.878 137.151 104.621 137.154C104.363 137.15 104.111 137.082 103.885 136.958L87.4165 126.616C87.1846 126.514 86.9346 126.46 86.6814 126.456C86.4167 126.465 86.1573 126.532 85.9216 126.652C85.6847 126.776 85.4792 126.952 85.3212 127.167C85.1632 127.382 85.0544 127.629 85.0026 127.89L82.0005 144.359C81.8781 144.837 81.8781 145.339 82.0005 145.817C82.1111 146.295 82.3337 146.74 82.65 147.116C82.9784 147.508 83.3997 147.811 83.8753 147.998C84.2605 148.174 84.6773 148.27 85.1007 148.28H119.937C121.046 148.252 122.113 147.85 122.963 147.137C123.813 146.425 124.397 145.446 124.618 144.359L127.633 127.902C127.669 127.722 127.665 127.536 127.62 127.358C127.575 127.18 127.491 127.014 127.373 126.873C127.256 126.731 127.108 126.618 126.941 126.542C126.773 126.466 126.591 126.428 126.407 126.432H126.383Z" fill="black"/>
<path d="M129.9 74.5017H171.01L170.606 76.6706C170.612 76.6841 170.615 76.6987 170.615 76.7134C170.615 76.7281 170.612 76.7427 170.606 76.7563H170.508L147.532 87.7845L129.336 76.8176L129.753 74.5507C129.765 74.5073 129.791 74.4688 129.826 74.4404C129.863 74.4337 129.9 74.4337 129.936 74.4404M129.863 71.6221C129.184 71.6465 128.533 71.8966 128.013 72.3328C127.493 72.7658 127.134 73.3616 126.996 74.0238L126.481 76.8543C126.376 77.2623 126.41 77.6936 126.579 78.0797C126.737 78.4571 127.007 78.7776 127.351 78.9987L146.344 90.4435C146.697 90.638 147.093 90.7392 147.496 90.7376C147.897 90.7393 148.293 90.6426 148.648 90.4558L171.721 79.3418C172.147 79.1458 172.521 78.8519 172.812 78.484C173.094 78.1229 173.294 77.7048 173.4 77.2587L173.976 74.0973C174.037 73.8023 174.037 73.4978 173.976 73.2028C173.903 72.9099 173.765 72.6374 173.571 72.4063C173.387 72.1851 173.157 72.0068 172.896 71.884C172.636 71.7612 172.352 71.6969 172.064 71.6956H129.826L129.863 71.6221Z" fill="black"/>
<path d="M127.571 86.3992L144.408 96.9495C145.068 97.3153 145.81 97.5073 146.564 97.5073C147.319 97.5073 148.061 97.3153 148.721 96.9495L168.743 86.9138L165.949 102.194C165.819 102.755 165.51 103.259 165.067 103.628C164.625 103.998 164.074 104.213 163.499 104.24H125.145C125.048 104.239 124.952 104.218 124.863 104.179C124.765 104.132 124.677 104.065 124.606 103.983C124.544 103.898 124.499 103.803 124.471 103.701C124.447 103.596 124.447 103.487 124.471 103.383V103.236L127.547 86.4114M170.667 82.9805C170.372 82.9807 170.082 83.0521 169.821 83.1888L147.496 94.5723C147.251 94.7167 146.971 94.7928 146.687 94.7928C146.402 94.7928 146.123 94.7167 145.878 94.5723L127.804 83.1643C127.549 83.0523 127.274 82.9939 126.995 82.9927C126.7 82.9991 126.411 83.0746 126.15 83.2133C125.89 83.3486 125.663 83.5413 125.488 83.7769C125.318 84.0145 125.201 84.2862 125.145 84.5734L121.677 102.721C121.549 103.248 121.549 103.799 121.677 104.326C121.801 104.856 122.044 105.351 122.388 105.772C122.718 106.184 123.137 106.515 123.614 106.74C124.061 106.939 124.545 107.043 125.035 107.046H163.437C164.653 107.016 165.824 106.585 166.77 105.821C167.704 105.037 168.346 103.963 168.596 102.77L171.917 84.6224C171.965 84.4246 171.966 84.2184 171.92 84.02C171.874 83.8217 171.783 83.6368 171.653 83.4798C171.524 83.3229 171.359 83.1983 171.173 83.1159C170.987 83.0335 170.785 82.9955 170.581 83.005L170.667 82.9805Z" fill="black"/>
<path d="M106.802 28.526H149.395L148.966 30.8786C148.973 30.9192 148.973 30.9606 148.966 31.0012C148.928 31.0424 148.882 31.0757 148.831 31.0992L124.986 42.5562L106.091 31.1728L106.532 28.7221C106.545 28.659 106.58 28.6024 106.63 28.5627C106.681 28.5259 106.74 28.5008 106.802 28.4892M106.74 25.6709C106.039 25.6952 105.366 25.9541 104.829 26.4061C104.29 26.8542 103.918 27.4719 103.775 28.1584L103.236 31.0747C103.137 31.4841 103.175 31.9149 103.346 32.3001C103.505 32.6908 103.784 33.0211 104.143 33.2436L123.748 45.0682C124.123 45.2757 124.546 45.3813 124.974 45.3746C125.399 45.3809 125.819 45.2842 126.199 45.0927L150.044 33.6112C150.483 33.4022 150.868 33.0963 151.172 32.7167C151.469 32.3353 151.674 31.891 151.772 31.4178L152.373 28.1584C152.446 27.8565 152.446 27.5412 152.373 27.2393C152.297 26.9343 152.155 26.6498 151.956 26.4061C151.756 26.1689 151.504 25.9804 151.221 25.8547C150.963 25.7371 150.683 25.6785 150.4 25.6832H106.74V25.6709Z" fill="black"/>
<path d="M104.339 40.7548L121.849 51.783H121.91C122.579 52.1565 123.332 52.3526 124.097 52.3526C124.863 52.3526 125.616 52.1565 126.285 51.783L147.018 41.2083L144.101 57.1378C143.967 57.7429 143.635 58.286 143.158 58.6817C142.683 59.0757 142.095 59.3076 141.479 59.3434H101.9C101.786 59.3426 101.673 59.3175 101.569 59.2699C101.455 59.222 101.353 59.1462 101.275 59.0494C101.195 58.953 101.136 58.84 101.104 58.7185C101.079 58.5931 101.079 58.4641 101.104 58.3386V58.2039L104.314 40.6813M148.929 37.2871C148.626 37.2932 148.329 37.3687 148.059 37.5077L124.986 49.2711C124.732 49.4161 124.445 49.4924 124.153 49.4924C123.86 49.4924 123.573 49.4161 123.319 49.2711L104.522 37.569C104.266 37.4475 103.985 37.3847 103.701 37.3851C103.399 37.3979 103.102 37.4769 102.834 37.6166C102.565 37.7564 102.33 37.9534 102.145 38.1939C101.963 38.4351 101.841 38.7167 101.79 39.0149L98.3957 57.775C98.2734 58.3196 98.2734 58.8846 98.3957 59.4292C98.5238 59.9794 98.7799 60.4916 99.1432 60.9242C99.5018 61.3557 99.9545 61.6994 100.467 61.9289C100.93 62.1336 101.431 62.238 101.937 62.2353H141.614C142.875 62.1907 144.086 61.7297 145.057 60.9242C146.021 60.1157 146.686 59.0066 146.944 57.775L150.375 39.0149C150.423 38.8105 150.422 38.5979 150.374 38.3937C150.325 38.1896 150.23 37.9993 150.096 37.838C149.962 37.6766 149.793 37.5484 149.601 37.4635C149.409 37.3786 149.2 37.3391 148.99 37.3484L148.929 37.2871Z" fill="black"/>
<path d="M32.962 44.333H66.7572L66.5489 45.4848L47.5437 54.6382L32.717 45.6931L32.962 44.333ZM32.6679 41.5147C32.0902 41.5222 31.5324 41.7267 31.0868 42.0944C30.6411 42.462 30.3344 42.9708 30.2172 43.5365L29.7761 45.9137C29.7002 46.2494 29.7302 46.6004 29.8619 46.9184C29.9969 47.2313 30.2232 47.4962 30.5113 47.6782L46.4408 57.3094C46.7381 57.4703 47.0709 57.5545 47.4089 57.5545C47.7419 57.5573 48.0703 57.4773 48.3647 57.3217L67.7865 47.9723C68.1423 47.8073 68.4532 47.5594 68.6933 47.2493C68.9388 46.9424 69.1069 46.581 69.1834 46.1955L69.6735 43.5365C69.7348 43.2911 69.7348 43.0344 69.6735 42.789C69.6136 42.543 69.5007 42.313 69.3427 42.1151C69.18 41.9198 68.9746 41.7647 68.7423 41.6617C68.5311 41.564 68.301 41.5139 68.0683 41.5147H32.5331H32.6679Z" fill="black"/>
<path d="M31.0872 54.6135L44.6886 63.1909C45.3101 63.532 46.0076 63.7108 46.7166 63.7108C47.4255 63.7108 48.123 63.532 48.7445 63.1909L64.6741 55.0669L62.493 67.0018C62.4078 67.38 62.2012 67.7199 61.9048 67.9698C61.6092 68.2116 61.2445 68.3532 60.8632 68.3742H28.6732H28.612C28.612 68.3742 28.612 68.3742 28.612 68.3129V68.1168L31.0627 54.638M67.0145 51.0232C66.7662 51.0259 66.5223 51.089 66.3038 51.207L47.5191 60.777C47.3128 60.8976 47.0781 60.9611 46.8391 60.9611C46.6001 60.9611 46.3654 60.8976 46.159 60.777L30.8789 51.1947C30.6677 51.0971 30.4376 51.0469 30.2049 51.0477C29.9561 51.0462 29.7112 51.1096 29.4943 51.2315C29.2696 51.3415 29.0759 51.5058 28.9306 51.7094C28.7874 51.9056 28.691 52.1319 28.6488 52.3711L25.8549 67.6389C25.757 68.087 25.757 68.551 25.8549 68.9991C26.0091 69.6473 26.377 70.2246 26.8994 70.6381C27.4218 71.0516 28.0683 71.277 28.7345 71.2782H61.0471C62.0712 71.2443 63.0545 70.8691 63.8408 70.2122C64.6238 69.5521 65.1666 68.6517 65.3848 67.6512L68.1786 52.3833C68.2163 52.2169 68.2151 52.044 68.1754 51.878C68.1357 51.712 68.0584 51.5574 67.9495 51.426C67.8406 51.2946 67.703 51.1899 67.5473 51.1201C67.3915 51.0503 67.2218 51.0171 67.0513 51.0232H67.0145Z" fill="black"/>
<path d="M9.39851 95.8711H56.5868L56.0477 98.812C56.0288 98.9006 55.9911 98.9841 55.9374 99.0571C55.8715 99.137 55.7875 99.2 55.6923 99.2409L29.4575 111.862L8.30793 99.1673L8.83482 96.3123C8.85978 96.1829 8.93465 96.0685 9.04319 95.9937C9.14279 95.9078 9.26735 95.8563 9.39851 95.8467M9.39851 93.0283C8.62555 93.0503 7.88249 93.3318 7.289 93.8274C6.6955 94.3231 6.28614 95.0042 6.12684 95.7609L5.53862 98.959C5.43788 99.4142 5.48073 99.8894 5.6612 100.319C5.83476 100.753 6.14432 101.118 6.54342 101.361L28.1219 114.362C28.5224 114.586 28.9738 114.705 29.433 114.705C29.8854 114.705 30.3312 114.596 30.7319 114.386L56.9667 101.753C57.4481 101.529 57.8685 101.193 58.192 100.773C58.5226 100.357 58.7532 99.8703 58.866 99.3511L59.5154 95.7609C59.601 95.4273 59.601 95.0775 59.5154 94.7438C59.4376 94.4102 59.2823 94.0995 59.0621 93.8371C58.8468 93.5697 58.569 93.3593 58.2533 93.2244C57.9717 93.0985 57.6673 93.0318 57.3588 93.0283H9.33726H9.39851Z" fill="black"/>
<path d="M6.49429 109.13L26.0999 121.383C26.7967 121.765 27.5784 121.965 28.3729 121.965C29.1675 121.965 29.9492 121.765 30.646 121.383L53.9277 109.485L50.607 127.62C50.4434 128.343 50.0475 128.993 49.4797 129.47C48.9125 129.951 48.2005 130.227 47.4578 130.255H4.04359C3.87552 130.253 3.70925 130.22 3.55341 130.157C3.39275 130.071 3.24776 129.96 3.12457 129.826C3.01293 129.685 2.93345 129.522 2.89175 129.348C2.84263 129.172 2.84263 128.985 2.89175 128.809V128.662L6.49429 109.13ZM55.7657 105.87C55.4336 105.874 55.1068 105.954 54.8099 106.103L29.4328 119.043C29.153 119.203 28.8362 119.287 28.5138 119.287C28.1914 119.287 27.8746 119.203 27.5948 119.043L6.95993 106.103C6.6723 105.968 6.35873 105.897 6.04092 105.895C5.70561 105.903 5.37659 105.987 5.0792 106.143C4.7818 106.298 4.52391 106.519 4.32539 106.789C4.12854 107.058 3.99454 107.368 3.93327 107.696L0.171506 128.319C0.0245372 128.918 0.0245372 129.545 0.171506 130.144C0.309517 130.747 0.58642 131.309 0.980205 131.786C1.3757 132.26 1.8745 132.638 2.43838 132.889C2.95268 133.113 3.50721 133.23 4.06812 133.232H47.7029C49.0897 133.191 50.4226 132.686 51.4892 131.799C52.5439 130.901 53.2756 129.683 53.5723 128.331L57.2974 107.745C57.351 107.519 57.3512 107.284 57.2981 107.058C57.2449 106.832 57.1399 106.621 56.9913 106.443C56.8427 106.264 56.6545 106.123 56.4417 106.03C56.229 105.937 55.9976 105.895 55.7657 105.907V105.87Z" fill="black"/>
<path d="M60.4099 56.3784H139.004C139.568 56.3505 140.13 56.4554 140.646 56.6848C141.159 56.9178 141.615 57.2608 141.982 57.6896C142.338 58.1251 142.589 58.6365 142.717 59.1845C142.851 59.736 142.851 60.3117 142.717 60.8632L141.638 66.7449C141.462 67.5993 141.089 68.4007 140.549 69.0856C140.008 69.7705 139.316 70.32 138.526 70.6906L95.4672 91.4113C94.8059 91.7727 94.0643 91.9621 93.3106 91.9621C92.5569 91.9621 91.8154 91.7727 91.1541 91.4113L55.7291 70.0656C55.0821 69.6617 54.5768 69.0664 54.2832 68.3624C53.993 67.6561 53.9247 66.8783 54.0872 66.1323L55.0552 60.8632C55.3191 59.6246 55.9925 58.511 56.9667 57.7018C57.9369 56.8927 59.1476 56.4274 60.4099 56.3784Z" fill="#39F4C4"/>
<path d="M56.4888 77.8102L90.3698 99.0578C90.8275 99.3236 91.3476 99.4631 91.8769 99.4621C92.4065 99.4649 92.9271 99.3253 93.3841 99.0578L135.046 77.8224C137.288 76.6828 139.543 78.1288 139.127 80.4324L132.926 114.301C132.456 116.526 131.252 118.529 129.508 119.988C127.764 121.448 125.58 122.28 123.307 122.352H51.9428C50.9282 122.393 49.9177 122.2 48.9896 121.788C48.0632 121.377 47.2452 120.756 46.6002 119.975C45.9503 119.197 45.4927 118.278 45.2646 117.291C45.0319 116.304 45.0319 115.276 45.2646 114.289L51.4526 80.4324C51.5504 79.8943 51.7728 79.3865 52.102 78.9498C52.4196 78.5049 52.84 78.1435 53.3273 77.896C53.8134 77.6423 54.3513 77.5037 54.8995 77.491C55.4477 77.4782 55.9914 77.5916 56.4888 77.8224V77.8102Z" fill="#39F4C4"/>
<path d="M46.7105 68.9871L20.5247 76.7926C20.1021 76.9057 19.7356 77.1698 19.4944 77.5349C19.2533 77.9 19.1544 78.3407 19.2162 78.7738C19.2781 79.207 19.4966 79.6024 19.8303 79.8853C20.1639 80.1683 20.5897 80.3191 21.0271 80.3094H45.3013C45.523 80.3126 45.7387 80.2367 45.9094 80.0952C46.0801 79.9537 46.1947 79.7559 46.2326 79.5374L47.9113 70.0532C47.939 69.8947 47.9257 69.7317 47.8727 69.5798C47.8196 69.4278 47.7286 69.292 47.6083 69.1852C47.4879 69.0784 47.3423 69.0041 47.1851 68.9694C47.028 68.9348 46.8646 68.9409 46.7105 68.9871Z" fill="#39F4C4"/>
<path d="M41.4415 98.8612L15.2558 106.667C14.8493 106.797 14.502 107.067 14.276 107.429C14.05 107.791 13.9599 108.221 14.0217 108.643C14.0835 109.066 14.2932 109.452 14.6135 109.734C14.9337 110.016 15.3437 110.175 15.7704 110.183H40.0324C40.2541 110.187 40.4697 110.111 40.6404 109.969C40.8111 109.828 40.9257 109.63 40.9636 109.411L42.6424 99.9272C42.6701 99.7687 42.6567 99.6057 42.6037 99.4538C42.5507 99.3019 42.4597 99.166 42.3393 99.0592C42.219 98.9524 42.0733 98.8781 41.9162 98.8434C41.759 98.8088 41.5957 98.8149 41.4415 98.8612Z" fill="#39F4C4"/>
<path d="M44.1985 83.7284L1.47051 91.6932C1.02425 91.7672 0.622562 92.0075 0.346353 92.3658C0.0701444 92.724 -0.0601057 93.1736 -0.0181712 93.624C0.0237633 94.0744 0.234773 94.4922 0.572367 94.7933C0.909962 95.0944 1.34906 95.2564 1.80131 95.2467H42.6668C42.8886 95.25 43.1042 95.1741 43.2749 95.0325C43.4456 94.891 43.5602 94.6933 43.5981 94.4748L45.3013 84.8313C45.327 84.6807 45.3162 84.5262 45.2699 84.3806C45.2236 84.2351 45.143 84.1028 45.035 83.9948C44.927 83.8868 44.7947 83.8062 44.6491 83.7599C44.5036 83.7136 44.3491 83.7028 44.1985 83.7284Z" fill="#39F4C4"/>
</g>
<defs>
<clipPath id="clip0_244_2317">
<rect width="174" height="174" fill="white"/>
</clipPath>
</defs>
</svg>
