<svg width="174" height="174" viewBox="0 0 174 174" fill="none" xmlns="http://www.w3.org/2000/svg">
<g clip-path="url(#clip0_244_2448)">
<path d="M139.421 58.9514C141.646 58.8804 143.859 59.3054 145.9 60.1955C147.941 61.0856 149.759 62.4186 151.221 64.0979C152.665 65.9014 153.692 68.003 154.226 70.2513C154.76 72.4996 154.788 74.8384 154.309 77.0989L145.535 126.799C143.648 137.509 133.416 146.221 122.731 146.221H6.93543C7.01484 145.958 7.16289 145.721 7.36431 145.535C7.42031 145.464 7.48637 145.402 7.56037 145.351L7.67065 145.241L8.896 144.187C13.5768 139.923 19.4095 134.629 20.5736 128.074L29.3349 78.3733C31.2219 67.6637 41.4536 58.9514 52.1387 58.9514H139.482M139.482 55.2754H52.0774C39.6768 55.2754 27.8399 65.3356 25.6588 77.7361L16.8853 127.436C15.856 133.257 9.53319 138.55 5.18319 142.545C5.03615 142.668 4.90135 142.79 4.75431 142.937C4.00552 143.67 3.50065 144.615 3.3084 145.645C3.18977 146.165 3.1922 146.705 3.31551 147.224C3.43881 147.743 3.67971 148.226 4.01957 148.637C4.35944 149.048 4.78917 149.375 5.27563 149.594C5.76209 149.812 6.29224 149.916 6.82516 149.897H122.731C135.144 149.897 146.969 139.837 149.162 127.436L157.923 77.7361C160.104 65.3356 151.797 55.2754 139.421 55.2754H139.482Z" fill="black"/>
<path d="M170.728 84.6349C170.707 84.2457 170.556 83.8749 170.299 83.5811C168.086 81.3264 165.847 79.0881 163.585 76.8661C163.374 76.6772 163.208 76.4442 163.098 76.1837C162.988 75.9231 162.936 75.6416 162.947 75.3589C162.947 68.0967 162.947 60.8263 162.947 53.5477C162.931 49.2531 161.604 45.066 159.142 41.5468C156.681 38.0276 153.203 35.3444 149.174 33.8563C148.317 33.5499 147.447 33.3171 146.515 33.0598C146.206 32.9777 145.933 32.7944 145.739 32.539C145.546 32.2836 145.444 31.9709 145.449 31.6507C145.449 30.9522 145.449 30.2415 145.449 29.5308C145.318 28.0097 144.61 26.5964 143.471 25.5805C142.331 24.5646 140.846 24.0231 139.32 24.0669C137.794 24.1108 136.342 24.7367 135.263 25.8164C134.183 26.8961 133.558 28.3478 133.514 29.8739C133.514 30.5968 133.514 31.3198 133.514 32.0428C133.514 32.7657 133.392 32.9005 132.742 33.0476C127.977 34.0301 123.702 36.6374 120.646 40.4236C117.591 44.2099 115.946 48.94 115.992 53.805C115.992 61.0019 115.992 68.1988 115.992 75.3957C116.005 75.645 115.965 75.8941 115.874 76.1266C115.783 76.359 115.644 76.5694 115.465 76.7436C113.202 78.9901 110.948 81.2448 108.701 83.5076C108.483 83.6874 108.329 83.9321 108.26 84.206C108.26 85.5539 108.26 86.9017 108.26 88.2741H170.826C170.753 87.0488 170.79 85.848 170.728 84.6349Z" fill="#39F4C4"/>
<path d="M131.676 91.6929C131.561 93.1098 131.844 94.5309 132.493 95.7955C133.143 97.06 134.133 98.1176 135.352 98.8489C136.589 99.6982 138.055 100.153 139.555 100.153C141.056 100.153 142.521 99.6982 143.758 98.8489C144.947 98.1056 145.908 97.049 146.535 95.7951C147.162 94.5412 147.43 93.1387 147.312 91.7419L131.676 91.6929Z" fill="#39F4C4"/>
</g>
<defs>
<clipPath id="clip0_244_2448">
<rect width="174" height="174" fill="white"/>
</clipPath>
</defs>
</svg>
