<svg width="174" height="174" viewBox="0 0 174 174" fill="none" xmlns="http://www.w3.org/2000/svg">
<g clip-path="url(#clip0_244_2282)">
<path d="M80.1949 37.1084C80.703 37.0855 81.21 37.1754 81.6793 37.3716C82.1486 37.5677 82.5686 37.8653 82.9093 38.243C83.2365 38.6707 83.4653 39.1653 83.5795 39.6916C83.6937 40.2179 83.6904 40.7628 83.5699 41.2877L80.4391 59.0675C80.1361 60.5162 79.3613 61.8236 78.2361 62.7851C77.1109 63.7466 75.6986 64.308 74.2204 64.3814H30.7473C31.7959 63.1986 32.5187 61.7633 32.8443 60.2165L35.975 42.4223C36.2775 40.9759 37.0501 39.6702 38.1724 38.709C39.2947 37.7478 40.7037 37.185 42.1794 37.1084H80.1949ZM80.1949 33.8052H42.1794C39.9315 33.8951 37.7786 34.7364 36.0653 36.1945C34.3521 37.6526 33.1774 39.6432 32.7293 41.8478L29.5841 59.642C29.2251 61.7245 26.9415 63.6202 25.4048 65.0564L25.2469 65.1857C24.9737 65.4469 24.7923 65.7895 24.7298 66.1623C24.6853 66.3478 24.6845 66.5411 24.7272 66.7271C24.77 66.913 24.8551 67.0865 24.9762 67.234C25.0972 67.3815 25.2507 67.499 25.4248 67.5771C25.5988 67.6553 25.7887 67.6921 25.9793 67.6846H74.2204C76.4708 67.5978 78.6269 66.758 80.3431 65.2997C82.0592 63.8413 83.2361 61.8489 83.6849 59.642L86.83 41.8478C87.058 40.8655 87.0566 39.8438 86.8258 38.8622C86.5951 37.8805 86.1412 36.9652 85.4994 36.1873C84.8577 35.4094 84.0452 34.7899 83.1253 34.3768C82.2054 33.9637 81.2027 33.7681 80.1949 33.8052Z" fill="black"/>
<path d="M102.762 125.476C103.259 125.453 103.755 125.542 104.213 125.734C104.672 125.927 105.082 126.219 105.413 126.59C105.736 127.006 105.962 127.489 106.074 128.004C106.186 128.519 106.182 129.052 106.062 129.565L102.988 147.037C102.691 148.458 101.932 149.74 100.83 150.684C99.7283 151.627 98.3448 152.18 96.8958 152.255H54.2094C55.2351 151.093 55.9399 149.683 56.2543 148.166L59.3425 130.693C59.635 129.271 60.3924 127.986 61.4953 127.042C62.5983 126.097 63.9842 125.546 65.4346 125.476H102.762ZM102.762 122.232H65.4346C63.2249 122.318 61.1077 123.142 59.4226 124.574C57.7375 126.006 56.582 127.962 56.1414 130.129L53.0673 147.602C52.7006 149.646 50.4725 151.508 48.9495 152.904L48.7944 153.045C48.5368 153.304 48.3604 153.632 48.2867 153.99C48.2431 154.174 48.2426 154.365 48.2854 154.55C48.3281 154.734 48.4127 154.906 48.5329 155.052C48.653 155.198 48.8053 155.314 48.9779 155.392C49.1504 155.469 49.3387 155.506 49.5277 155.499H96.8958C99.1055 155.413 101.223 154.589 102.908 153.157C104.593 151.725 105.748 149.769 106.189 147.602L109.263 130.129C109.487 129.166 109.485 128.164 109.26 127.201C109.034 126.239 108.589 125.341 107.961 124.577C107.332 123.814 106.536 123.205 105.635 122.798C104.733 122.392 103.751 122.198 102.762 122.232Z" fill="black"/>
<path d="M155.586 21.7754C156.276 21.7449 156.964 21.8689 157.599 22.1384C158.234 22.4078 158.801 22.816 159.259 23.3329C159.704 23.901 160.017 24.5614 160.176 25.2658C160.334 25.9703 160.333 26.7011 160.173 27.4052L156.472 48.4097C156.082 50.2561 155.093 51.9221 153.659 53.1493C152.225 54.3764 150.427 55.0962 148.542 55.1969H95.8166C97.4167 53.6678 98.5385 51.7071 99.0459 49.5528L102.747 28.5483C103.14 26.7045 104.13 25.0417 105.564 23.8174C106.997 22.593 108.794 21.8753 110.677 21.7754H155.558M155.558 18.489H110.677C108.018 18.5819 105.469 19.5691 103.441 21.2909C101.413 23.0127 100.026 25.3684 99.503 27.9767L95.8023 48.9812C95.3736 51.4389 92.6874 53.6822 90.8584 55.3683L90.6727 55.5255C90.361 55.8423 90.1518 56.2456 90.0725 56.6829C90.0142 56.8987 90.0074 57.1252 90.0526 57.3441C90.0978 57.5631 90.1937 57.7684 90.3327 57.9435C90.4717 58.1186 90.6499 58.2587 90.8528 58.3524C91.0558 58.4462 91.2779 58.491 91.5013 58.4833H148.471C151.129 58.389 153.679 57.3992 155.704 55.6744C157.73 53.9496 159.113 51.591 159.63 48.9812L163.345 27.9767C163.611 26.818 163.607 25.6137 163.333 24.4568C163.059 23.2999 162.523 22.2214 161.767 21.3045C161.01 20.3877 160.053 19.6569 158.969 19.1687C157.885 18.6805 156.703 18.448 155.515 18.489H155.558Z" fill="black"/>
<path d="M65.3718 83.1837C65.9947 83.1551 66.6163 83.2633 67.1929 83.5006C67.7696 83.738 68.2874 84.0986 68.7098 84.5573C69.1118 85.0793 69.394 85.6834 69.5364 86.3268C69.6789 86.9701 69.678 87.6369 69.5339 88.2798L66.0861 107.84C65.7323 109.541 64.8242 111.076 63.5042 112.204C62.1841 113.333 60.5269 113.991 58.7922 114.077H9.94586C11.3776 112.676 12.3746 110.892 12.8169 108.939L16.2645 89.3787C16.6226 87.6805 17.5322 86.1483 18.8513 85.0204C20.1705 83.8926 21.8253 83.2323 23.5586 83.1424H65.3718M65.3718 79.9831H23.5586C21.0817 80.069 18.7067 80.9897 16.819 82.5956C14.9314 84.2014 13.6421 86.3983 13.1603 88.8293L9.71245 108.39C9.30036 110.684 6.81395 112.772 5.11065 114.338L4.93208 114.489C4.63991 114.78 4.44359 115.154 4.36901 115.56C4.32298 115.764 4.32393 115.976 4.37203 116.179C4.42012 116.382 4.51406 116.572 4.64652 116.733C4.77897 116.895 4.94653 117.024 5.13648 117.111C5.32642 117.199 5.53375 117.241 5.74264 117.236H58.7922C61.2714 117.153 63.6497 116.234 65.5401 114.628C67.4306 113.022 68.7219 110.823 69.2043 108.39L72.6521 88.8293C72.904 87.7502 72.9038 86.6275 72.6516 85.5485C72.3993 84.4694 71.9018 83.4631 71.1976 82.6075C70.4935 81.7518 69.6016 81.07 68.5912 80.6148C67.5809 80.1597 66.4792 79.9436 65.3718 79.9831Z" fill="black"/>
<path d="M162.49 81.5606C163.082 81.5377 163.672 81.6463 164.217 81.8784C164.762 82.1105 165.249 82.4605 165.643 82.9032C166.026 83.3969 166.296 83.9696 166.432 84.5801C166.567 85.1905 166.566 85.8235 166.427 86.4333L162.942 106.196C162.589 107.842 161.703 109.325 160.421 110.416C159.139 111.507 157.533 112.145 155.852 112.23H107.109C108.386 110.868 109.268 109.183 109.659 107.357L113.144 87.5949C113.5 85.9478 114.389 84.464 115.673 83.3732C116.958 82.2823 118.566 81.6453 120.249 81.5606H162.49ZM162.49 78.0908H120.249C117.737 78.1688 115.325 79.0957 113.408 80.7203C111.49 82.345 110.179 84.5715 109.689 87.0368L106.204 106.799C105.797 109.122 103.187 111.219 101.543 112.834L101.377 112.984C101.072 113.268 100.87 113.645 100.804 114.056C100.755 114.262 100.755 114.477 100.802 114.684C100.85 114.891 100.944 115.084 101.078 115.249C101.212 115.414 101.383 115.545 101.576 115.634C101.769 115.723 101.979 115.766 102.191 115.76H155.807C158.319 115.682 160.73 114.755 162.648 113.131C164.566 111.506 165.877 109.28 166.367 106.814L169.867 87.0518C170.12 85.9607 170.118 84.8261 169.862 83.7357C169.606 82.6453 169.103 81.6284 168.392 80.7636C167.68 79.8988 166.779 79.2093 165.758 78.7484C164.737 78.2876 163.624 78.0677 162.505 78.1059L162.49 78.0908Z" fill="black"/>
<path d="M49.3938 63.0322L27.8399 69.4653C27.4988 69.5665 27.2054 69.7871 27.0134 70.0867C26.8214 70.3863 26.7436 70.745 26.7941 71.0973C26.8446 71.4495 27.0202 71.7719 27.2887 72.0054C27.5572 72.239 27.9007 72.3681 28.2565 72.3694H48.2421C48.4252 72.3688 48.6021 72.3031 48.7412 72.1842C48.8804 72.0652 48.9727 71.9007 49.0018 71.7199L50.3865 63.9144C50.4083 63.7836 50.3967 63.6493 50.3525 63.5242C50.3083 63.3991 50.2331 63.2872 50.134 63.1991C50.0348 63.1109 49.9149 63.0494 49.7854 63.0202C49.656 62.991 49.5212 62.9951 49.3938 63.0322Z" fill="#39F4C4"/>
<path d="M45.0562 87.6372L23.5021 94.0703C23.1826 94.1817 22.9113 94.4 22.734 94.6882C22.5567 94.9765 22.4843 95.3171 22.529 95.6525C22.5736 95.988 22.7325 96.2978 22.979 96.5296C23.2255 96.7615 23.5445 96.9013 23.8821 96.9253H43.8676C44.0521 96.9252 44.2307 96.86 44.3719 96.7412C44.513 96.6224 44.6077 96.4576 44.6395 96.2759L46.012 88.4826C46.0249 88.3585 46.0079 88.2331 45.9626 88.1168C45.9173 88.0005 45.845 87.8967 45.7516 87.814C45.6581 87.7313 45.5461 87.6721 45.4252 87.6414C45.3042 87.6106 45.1778 87.6092 45.0562 87.6372Z" fill="#39F4C4"/>
<path d="M47.3354 75.1756L12.1433 81.7313C11.7916 81.8099 11.4806 82.014 11.2684 82.3053C11.0563 82.5966 10.9575 82.9552 10.9905 83.3141C11.0235 83.6729 11.1861 84.0075 11.4479 84.2551C11.7097 84.5028 12.0527 84.6467 12.4128 84.6598H46.0732C46.2552 84.6622 46.4319 84.5992 46.5713 84.4823C46.7108 84.3653 46.8036 84.2022 46.8329 84.0227L48.2421 76.0824C48.2636 75.9585 48.255 75.8313 48.217 75.7114C48.179 75.5916 48.1129 75.4827 48.024 75.3938C47.9352 75.3049 47.8262 75.2386 47.7063 75.2007C47.5865 75.1627 47.4592 75.1541 47.3354 75.1756Z" fill="#39F4C4"/>
<path d="M145.707 65.7895L140.695 94.1809C139.999 97.714 138.126 100.907 135.382 103.239C132.638 105.571 129.185 106.905 125.586 107.023H48.573C48.2668 107.032 47.9623 106.972 47.6833 106.845C47.4043 106.719 47.1581 106.53 46.9638 106.293C46.7695 106.056 46.6324 105.777 46.5629 105.479C46.4935 105.181 46.4937 104.87 46.5634 104.572C46.6805 103.985 46.9707 103.448 47.3965 103.028C47.472 102.948 47.554 102.874 47.6417 102.807C50.0924 100.516 53.7684 97.4893 54.3321 94.1686L59.3316 65.7772C60.0277 62.2441 61.9004 59.0511 64.6442 56.719C67.388 54.3869 70.8411 53.0532 74.4402 52.9355H135.12C142.227 52.9478 146.957 58.6947 145.707 65.7895Z" fill="#39F4C4"/>
</g>
<defs>
<clipPath id="clip0_244_2282">
<rect width="174" height="174" fill="white"/>
</clipPath>
</defs>
</svg>
