<svg width="174" height="174" viewBox="0 0 174 174" fill="none" xmlns="http://www.w3.org/2000/svg">
<path d="M115.333 84.755C115.821 85.2494 116.205 85.8358 116.464 86.4801C116.723 87.1243 116.851 87.8136 116.841 88.5079V91.263L113.44 92.9183L76.1043 110.889C75.1845 111.37 74.1607 111.62 73.1224 111.614C72.0797 111.61 71.0546 111.345 70.1406 110.843L21.2177 81.365C20.3258 80.8029 19.6289 79.9794 19.2222 79.0068C18.8145 78.0355 18.7233 76.9604 18.9614 75.9342L20.288 68.6553C20.6485 66.9424 21.5746 65.4005 22.9175 64.2777C24.2604 63.1549 25.942 62.5164 27.6917 62.4648H99.8684C100.497 62.9853 100.995 63.6454 101.323 64.3925C101.652 65.1396 101.801 65.953 101.759 66.768C101.717 67.5829 101.485 68.3768 101.082 69.0864C100.679 69.7959 100.116 70.4016 99.4375 70.8549L93.0204 75.1633L100.685 74.1315C100.923 74.1146 101.161 74.1146 101.399 74.1315C102.313 74.1259 103.212 74.3595 104.008 74.809C104.803 75.2585 105.467 75.9083 105.934 76.6938C106.404 77.4729 106.66 78.3616 106.678 79.2709C106.696 80.1803 106.474 81.0783 106.036 81.8753L102.363 88.678L108.667 84.1995C109.55 83.5699 110.609 83.2329 111.694 83.2358C113.058 83.2535 114.362 83.7978 115.333 84.755Z" fill="#39F4C4"/>
<path d="M126.365 86.6599L120.05 89.7437L120.231 89.3809C120.667 88.5164 121.335 87.7901 122.16 87.2835C122.985 86.7769 123.934 86.5099 124.903 86.5125C125.394 86.4971 125.886 86.5467 126.365 86.6599Z" fill="#39F4C4"/>
<path d="M136.376 95.6847L134.721 104.755L127.828 142.453C127.175 145.528 125.509 148.295 123.098 150.311C120.687 152.327 117.67 153.477 114.528 153.576H15.9683C14.5713 153.636 13.1793 153.373 11.9009 152.807C10.6225 152.24 9.49224 151.386 8.59865 150.31C7.70333 149.23 7.07073 147.958 6.75058 146.592C6.42754 145.231 6.42754 143.814 6.75058 142.453L15.3107 95.6847C15.4377 94.9399 15.741 94.2363 16.1951 93.6325C16.6418 93.0206 17.2238 92.5201 17.8958 92.17C18.5682 91.8284 19.3075 91.6387 20.0614 91.6144C20.8206 91.5976 21.5733 91.7567 22.2608 92.0793L69.0295 121.41C69.6649 121.767 70.3813 121.954 71.1099 121.954C71.8386 121.954 72.5551 121.767 73.1905 121.41L113.247 101.002L119.812 97.6575L127.873 93.5418L130.719 92.0906C130.779 92.0546 130.844 92.0278 130.911 92.0112C131.563 91.6905 132.283 91.5311 133.009 91.5464C133.522 91.5393 134.03 91.6485 134.495 91.8657C134.96 92.0829 135.37 92.4025 135.694 92.8006C136.018 93.1987 136.248 93.665 136.366 94.1645C136.484 94.664 136.488 95.1836 136.376 95.6847Z" fill="#39F4C4"/>
<path d="M165.855 56.2743L151.513 54.7324C151.178 54.6892 150.861 54.5551 150.598 54.3448C150.334 54.1345 150.132 53.8559 150.016 53.5393C149.899 53.2227 149.871 52.8802 149.935 52.5489C149.999 52.2176 150.152 51.9101 150.379 51.6598L160.095 40.9796C160.383 40.6811 160.559 40.2919 160.592 39.8783C160.625 39.4648 160.514 39.0525 160.277 38.712C160.21 38.6106 160.134 38.5156 160.05 38.4286C159.892 38.2545 159.698 38.1155 159.483 38.0204C159.203 37.891 158.894 37.8401 158.587 37.873C158.497 37.8566 158.405 37.8566 158.315 37.873C158.226 37.8906 158.139 37.9172 158.055 37.9524L144.631 43.2471C144.241 43.3973 143.812 43.4118 143.413 43.2884C143.014 43.165 142.668 42.9108 142.431 42.5669C142.283 42.3484 142.183 42.101 142.138 41.841C142.093 41.581 142.104 41.3144 142.17 41.0589L145.81 27.102C145.901 26.7838 145.901 26.4466 145.811 26.1281C145.721 25.8097 145.544 25.5226 145.299 25.2993L145.141 25.1632C144.812 24.9197 144.416 24.785 144.007 24.7778C143.554 24.7824 143.119 24.961 142.794 25.2767C142.735 25.3238 142.682 25.377 142.635 25.4354L133.213 36.3537C133.045 36.5567 132.833 36.7199 132.594 36.8316C132.355 36.9433 132.094 37.0008 131.83 37C131.411 37.0048 131.004 36.8655 130.675 36.6054C130.347 36.3453 130.118 35.9802 130.027 35.5714L126.751 21.5125C126.662 21.086 126.42 20.7068 126.07 20.4467C125.907 20.333 125.727 20.245 125.537 20.186C125.168 20.0702 124.773 20.0702 124.404 20.186C124.214 20.245 124.034 20.333 123.871 20.4467C123.521 20.7068 123.279 21.086 123.191 21.5125L119.914 35.5714C119.823 35.9802 119.594 36.3453 119.266 36.6054C118.938 36.8655 118.53 37.0048 118.111 37C117.842 37.0255 117.571 36.9898 117.318 36.8955C117.064 36.8013 116.836 36.6509 116.649 36.4558L107.227 25.5374C107.18 25.479 107.127 25.4258 107.068 25.3787C106.743 25.063 106.308 24.8844 105.855 24.8798C105.446 24.887 105.05 25.0218 104.721 25.2653L104.562 25.4014C104.318 25.6247 104.141 25.9117 104.051 26.2302C103.961 26.5486 103.961 26.8859 104.052 27.2041L107.692 41.161C107.758 41.4165 107.769 41.6831 107.724 41.9431C107.679 42.203 107.579 42.4504 107.431 42.6689C107.194 43.0128 106.848 43.267 106.449 43.3905C106.05 43.5139 105.621 43.4993 105.231 43.3492L91.8073 38.0544C91.7233 38.0192 91.636 37.9927 91.5466 37.9751C91.4566 37.9587 91.3645 37.9587 91.2745 37.9751C90.9681 37.9422 90.6585 37.993 90.3788 38.1224C90.1634 38.2175 89.9703 38.3566 89.8119 38.5306C89.7275 38.6177 89.6516 38.7126 89.5852 38.8141C89.3481 39.1546 89.2367 39.5668 89.2697 39.9803C89.3028 40.3939 89.4785 40.7831 89.7666 41.0816L99.4831 51.7619C99.7095 52.0121 99.8631 52.3196 99.9271 52.6509C99.9911 52.9822 99.9632 53.3248 99.8464 53.6414C99.7296 53.958 99.5282 54.2366 99.2643 54.4469C99.0004 54.6572 98.684 54.7912 98.3493 54.8345L84.0069 56.3764C83.5931 56.4228 83.2072 56.6076 82.9116 56.9007C82.616 57.1939 82.428 57.5783 82.3782 57.9916C82.3283 58.405 82.4194 58.823 82.6369 59.1781C82.8543 59.5331 83.1852 59.8043 83.576 59.9478L90.8096 62.5782L97.1249 64.8457C97.444 64.9632 97.7246 65.1665 97.9356 65.4331C98.1467 65.6998 98.28 66.0196 98.3211 66.3572C98.3621 66.6948 98.3092 67.0371 98.1681 67.3466C98.0271 67.6561 97.8034 67.9206 97.5217 68.1111L85.5036 76.1383C85.1676 76.3549 84.9109 76.6745 84.772 77.0494C84.6331 77.4242 84.6194 77.834 84.7331 78.2172C84.8468 78.6004 85.0817 78.9364 85.4025 79.1749C85.7234 79.4133 86.1129 79.5413 86.5126 79.5396H86.7847L101.082 77.6122C101.291 77.5718 101.507 77.5718 101.717 77.6122L102.068 77.7256C102.29 77.8203 102.491 77.9591 102.658 78.1338C102.931 78.4165 103.106 78.7788 103.159 79.1682C103.212 79.5577 103.14 79.9539 102.953 80.2993L96.0704 92.9863C95.8649 93.3521 95.791 93.7773 95.8607 94.191C95.9305 94.6048 96.1397 94.9821 96.4538 95.2604C96.7678 95.5387 97.1676 95.701 97.5867 95.7204C98.0058 95.7399 98.419 95.6153 98.7575 95.3673L110.526 87.0113C110.837 86.7892 111.21 86.6702 111.592 86.6711C111.946 86.6692 112.293 86.7717 112.59 86.9659C112.693 87.0294 112.788 87.1056 112.873 87.1927C113.058 87.3641 113.205 87.5732 113.303 87.8059C113.4 88.0386 113.447 88.2896 113.44 88.5419L113.383 92.9977L113.27 101.059V102.964C113.268 103.27 113.341 103.572 113.484 103.843C113.626 104.114 113.833 104.345 114.087 104.517C114.34 104.688 114.632 104.795 114.937 104.826C115.241 104.858 115.549 104.814 115.832 104.698C115.981 104.631 116.121 104.547 116.252 104.449C116.461 104.28 116.631 104.067 116.751 103.825L119.857 97.7143L123.259 90.9115C123.377 90.6725 123.547 90.4631 123.757 90.2993C123.889 90.1971 124.034 90.1132 124.188 90.0499C124.264 90.0133 124.344 89.9866 124.426 89.9705C124.739 89.8913 125.066 89.8913 125.379 89.9705C125.461 89.9866 125.541 90.0133 125.617 90.0499C125.771 90.1132 125.916 90.1971 126.048 90.2993C126.258 90.4631 126.429 90.6725 126.547 90.9115L127.884 93.5532L133.077 103.757C133.225 104.061 133.455 104.317 133.742 104.496C134.029 104.674 134.361 104.768 134.699 104.766C134.945 104.773 135.191 104.728 135.42 104.637C135.649 104.545 135.857 104.407 136.031 104.232C136.205 104.057 136.342 103.848 136.432 103.618C136.523 103.388 136.566 103.142 136.558 102.896L136.365 88.4739C136.358 88.2216 136.405 87.9706 136.502 87.7379C136.6 87.5051 136.747 87.2961 136.932 87.1247C137.017 87.0376 137.112 86.9614 137.216 86.8979C137.512 86.7037 137.859 86.6012 138.213 86.6031C138.595 86.6021 138.968 86.7212 139.279 86.9433L151.048 95.2993C151.354 95.5225 151.723 95.6453 152.102 95.6508C152.422 95.6492 152.737 95.565 153.015 95.4063C153.293 95.2477 153.525 95.0199 153.689 94.7451C153.853 94.4702 153.944 94.1577 153.952 93.8377C153.96 93.5177 153.885 93.201 153.735 92.9183L146.853 80.2312C146.665 79.8858 146.593 79.4896 146.646 79.1002C146.699 78.7108 146.874 78.3484 147.147 78.0657C147.314 77.8911 147.515 77.7522 147.737 77.6576L148.088 77.5442C148.298 77.5038 148.514 77.5038 148.723 77.5442L163.021 79.4716H163.293C163.692 79.4733 164.082 79.3453 164.403 79.1069C164.724 78.8684 164.958 78.5324 165.072 78.1492C165.186 77.766 165.172 77.3562 165.033 76.9814C164.894 76.6065 164.638 76.2868 164.302 76.0703L152.317 68.0317C152.036 67.8412 151.812 67.5767 151.671 67.2672C151.53 66.9578 151.477 66.6154 151.518 66.2778C151.559 65.9402 151.692 65.6205 151.904 65.3538C152.115 65.0872 152.395 64.8838 152.714 64.7664L166.32 59.8344C166.706 59.6849 167.03 59.4103 167.241 59.0545C167.452 58.6987 167.538 58.2822 167.485 57.872C167.431 57.4617 167.241 57.0813 166.946 56.7916C166.65 56.5019 166.266 56.3198 165.855 56.2743ZM151.569 61.5804C150.66 61.9122 149.86 62.4889 149.257 63.247C148.655 64.0051 148.274 64.9149 148.157 65.8759C148.04 66.8369 148.19 67.8117 148.593 68.6923C148.995 69.573 149.632 70.3253 150.436 70.8661L156.853 75.1746L149.2 74.1428C148.962 74.1259 148.723 74.1259 148.485 74.1428C147.587 74.1488 146.705 74.3852 145.925 74.8293C145.144 75.2735 144.49 75.9105 144.026 76.6796C143.562 77.4486 143.303 78.3239 143.274 79.2217C143.245 80.1194 143.446 81.0097 143.859 81.8072L147.544 88.6099L141.24 84.1315C140.357 83.5019 139.298 83.1649 138.213 83.1678C137.517 83.1693 136.828 83.3083 136.186 83.5768C135.544 83.8453 134.962 84.238 134.472 84.7324C133.982 85.2253 133.596 85.8114 133.337 86.456C133.078 87.1006 132.951 87.7906 132.964 88.4852V91.5011C132.238 91.4858 131.518 91.6452 130.866 91.966L129.517 89.3129C129.193 88.6694 128.74 88.0997 128.186 87.6393C127.632 87.1789 126.989 86.8378 126.297 86.6371C125.824 86.5097 125.336 86.4449 124.846 86.4444C123.878 86.4419 122.928 86.7088 122.103 87.2155C121.278 87.7221 120.61 88.4483 120.175 89.3129L119.993 89.6757L116.739 91.2403V88.4852C116.751 87.5177 116.496 86.5656 116.001 85.7342C115.506 84.9028 114.791 84.2244 113.934 83.774C113.078 83.3235 112.114 83.1185 111.148 83.1816C110.182 83.2447 109.253 83.5734 108.463 84.1315L102.159 88.6099L105.832 81.8072C106.271 81.0103 106.492 80.1122 106.474 79.2028C106.456 78.2935 106.2 77.4049 105.73 76.6258C105.264 75.8402 104.599 75.1904 103.804 74.7409C103.008 74.2914 102.109 74.0579 101.195 74.0634C100.957 74.0465 100.719 74.0465 100.481 74.0634L92.8164 75.0952L99.2337 70.7868C99.9122 70.3335 100.475 69.7279 100.878 69.0183C101.281 68.3088 101.513 67.5149 101.555 66.6999C101.597 65.885 101.448 65.0716 101.12 64.3245C100.791 63.5774 100.293 62.9172 99.6645 62.3968C99.2003 62.0137 98.6753 61.711 98.1113 61.5011L90.855 58.8594L98.5308 58.0318C99.4926 57.9268 100.407 57.5579 101.172 56.9661C101.937 56.3743 102.524 55.5825 102.868 54.6781C103.212 53.7737 103.299 52.7918 103.12 51.8411C102.941 50.8903 102.502 50.0075 101.853 49.2902L96.6486 43.6213L103.837 46.4558C104.452 46.6937 105.105 46.8167 105.764 46.8186C106.566 46.8161 107.356 46.6311 108.075 46.2774C108.794 45.9238 109.423 45.4109 109.914 44.7778C110.408 44.1447 110.748 43.4054 110.907 42.6184C111.067 41.8313 111.041 41.0181 110.832 40.2427L108.894 32.7596L113.939 38.61C114.573 39.3428 115.397 39.8855 116.321 40.1777C117.245 40.47 118.231 40.5003 119.171 40.2653C120.111 40.0303 120.968 39.5392 121.645 38.8467C122.323 38.1541 122.795 37.2873 123.009 36.3424L124.755 28.8141L126.501 36.3424C126.715 37.2873 127.188 38.1541 127.865 38.8467C128.543 39.5392 129.399 40.0303 130.339 40.2653C131.279 40.5003 132.266 40.47 133.189 40.1777C134.113 39.8855 134.938 39.3428 135.571 38.61L140.617 32.7596L138.678 40.2427C138.469 41.0181 138.443 41.8313 138.603 42.6184C138.762 43.4054 139.102 44.1447 139.596 44.7778C140.088 45.4109 140.716 45.9238 141.436 46.2774C142.155 46.6311 142.945 46.8161 143.746 46.8186C144.405 46.8167 145.059 46.6937 145.674 46.4558L152.862 43.6213L147.658 49.2902C147.008 50.0075 146.57 50.8903 146.391 51.8411C146.212 52.7918 146.298 53.7737 146.642 54.6781C146.986 55.5825 147.573 56.3743 148.338 56.9661C149.104 57.5579 150.018 57.9268 150.98 58.0318L158.655 58.8594L151.569 61.5804Z" fill="black"/>
</svg>
