<svg width="174" height="174" viewBox="0 0 174 174" fill="none" xmlns="http://www.w3.org/2000/svg">
<g clip-path="url(#clip0_244_2226)">
<path d="M145.18 46.9801C145.912 46.9798 146.635 47.1387 147.3 47.4458C148.026 47.78 148.667 48.2743 149.174 48.8917C149.668 49.518 150.015 50.2464 150.191 51.0238C150.369 51.8021 150.369 52.6104 150.191 53.3887C150.186 53.4621 150.186 53.5359 150.191 53.6093L132.865 142.153C132.37 144.365 131.161 146.352 129.425 147.809C127.689 149.266 125.522 150.112 123.258 150.216H10.8812C9.71135 150.214 8.57744 149.812 7.6679 149.076C6.75836 148.341 6.12798 147.316 5.8817 146.172C5.69161 145.396 5.69161 144.584 5.8817 143.807C5.87599 143.734 5.87599 143.66 5.8817 143.587L23.098 55.0429C23.5967 52.8331 24.8064 50.8479 26.5416 49.3915C28.2769 47.9351 30.4419 47.0881 32.7047 46.9801H145.082M145.082 43.3041H32.7292C29.6264 43.4244 26.6518 44.5733 24.2737 46.5698C21.8956 48.5664 20.2491 51.2972 19.5934 54.3323L2.36495 142.925C2.01901 144.253 1.98964 145.643 2.27909 146.984C2.56854 148.324 3.16877 149.578 4.03148 150.645C4.8577 151.667 5.90106 152.491 7.08589 153.059C8.27071 153.628 9.56721 153.924 10.8812 153.929H123.332C126.433 153.802 129.404 152.651 131.781 150.656C134.158 148.66 135.806 145.933 136.467 142.901L153.696 54.3077C154.038 53.0008 154.075 51.6325 153.804 50.309C153.532 48.9855 152.96 47.7424 152.13 46.6759C151.301 45.6094 150.237 44.7483 149.021 44.1593C147.805 43.5703 146.469 43.2693 145.118 43.2796L145.082 43.3041Z" fill="black"/>
<path d="M46.5022 70.9482H120.991L119.987 76.401C119.937 76.6481 119.827 76.8794 119.668 77.0749C119.497 77.2858 119.279 77.4536 119.031 77.565L78.1408 97.2442L78.0183 97.3055C77.9224 97.3639 77.8119 97.3937 77.6997 97.3913C77.6108 97.4098 77.519 97.4098 77.43 97.3913L44.0392 77.2709L44.9338 72.3695C45.018 72.0106 45.2156 71.6883 45.4974 71.4505C45.7798 71.2205 46.1265 71.0835 46.4899 71.0584M46.4164 67.3823C45.2193 67.4126 44.0671 67.8441 43.1447 68.6077C42.2245 69.3851 41.587 70.4449 41.3312 71.6221L40.4244 76.6215C40.2598 77.3288 40.3198 78.0698 40.596 78.7414C40.8801 79.4064 41.3584 79.9702 41.9684 80.3588L75.6166 100.638C76.2438 100.982 76.9474 101.164 77.6629 101.165C78.3676 101.165 79.0616 100.992 79.6847 100.663L120.575 80.9715C121.33 80.6295 121.991 80.1079 122.499 79.4521C123.015 78.8002 123.372 78.0364 123.54 77.2219L124.569 71.6343C124.692 71.1105 124.692 70.5653 124.569 70.0414C124.443 69.5199 124.2 69.0338 123.859 68.62C123.525 68.2157 123.107 67.8895 122.633 67.6642C122.189 67.4684 121.709 67.3682 121.224 67.3701H46.4287L46.4164 67.3823Z" fill="black"/>
<path d="M41.4905 91.1908L72.9575 110.944L73.1168 111.029C74.0945 111.568 75.1926 111.85 76.3088 111.85C77.425 111.85 78.5231 111.568 79.5008 111.029L117.168 91.8157L111.728 121.555C111.448 122.848 110.746 124.011 109.732 124.861C108.718 125.711 107.45 126.199 106.128 126.248H38.1452C37.7863 126.25 37.4312 126.174 37.1037 126.028C36.7451 125.867 36.4269 125.628 36.1724 125.329C35.9184 125.026 35.7386 124.667 35.6472 124.282C35.5557 123.897 35.5551 123.496 35.6455 123.111V122.927L41.4537 91.1786M118.81 87.2575C118.289 87.2641 117.776 87.3942 117.315 87.6373L77.7486 107.819C77.3093 108.06 76.8162 108.187 76.3149 108.187C75.8137 108.187 75.3206 108.06 74.8813 107.819L42.6913 87.625C42.2466 87.4157 41.7613 87.3069 41.2698 87.3064H41.1841C40.4013 87.327 39.6492 87.6157 39.0537 88.1242C38.4581 88.6327 38.0553 89.3303 37.9124 90.1003L32.0307 122.266C31.8028 123.2 31.795 124.174 32.0076 125.112C32.2202 126.05 32.6476 126.925 33.2561 127.67C33.8631 128.415 34.6406 129.003 35.5229 129.385C36.3214 129.74 37.1855 129.924 38.0594 129.924H106.116C108.274 129.854 110.348 129.063 112.004 127.677C113.661 126.291 114.806 124.391 115.257 122.278L121.138 90.1125C121.22 89.7613 121.219 89.3961 121.136 89.0452C121.053 88.6944 120.89 88.3674 120.66 88.0899C120.43 87.8123 120.139 87.5917 119.81 87.4452C119.48 87.2987 119.121 87.2302 118.761 87.2452L118.81 87.2575Z" fill="black"/>
<path d="M148.672 66.5121C153.263 66.5121 157.75 65.1506 161.567 62.5999C165.384 60.0492 168.359 56.4239 170.115 52.1825C171.871 47.941 172.33 43.274 171.433 38.7717C170.537 34.2694 168.325 30.1341 165.078 26.8889C161.831 23.6437 157.695 21.4343 153.192 20.5402C148.689 19.646 144.023 20.1074 139.782 21.8659C135.542 23.6243 131.918 26.6009 129.369 30.419C126.821 34.2372 125.461 38.7255 125.464 43.3162C125.462 46.3638 126.062 49.3818 127.227 52.1976C128.393 55.0134 130.103 57.5716 132.259 59.7261C134.414 61.8805 136.973 63.5888 139.79 64.7532C142.606 65.9176 145.624 66.5153 148.672 66.5121Z" fill="#39F4C4"/>
</g>
<defs>
<clipPath id="clip0_244_2226">
<rect width="174" height="174" fill="white"/>
</clipPath>
</defs>
</svg>
