<svg width="174" height="174" viewBox="0 0 174 174" fill="none" xmlns="http://www.w3.org/2000/svg">
<g clip-path="url(#clip0_244_2360)">
<path d="M150.633 132.853C150.584 132.054 150.269 131.295 149.738 130.696C145.245 126.105 140.695 121.551 136.088 117.033C135.656 116.652 135.315 116.179 135.088 115.649C134.861 115.119 134.755 114.546 134.777 113.97C134.834 99.1678 134.834 84.3696 134.777 69.5755C134.743 60.8471 132.046 52.3368 127.047 45.1814C122.049 38.0259 114.986 32.566 106.802 29.531C105.074 28.9061 103.285 28.4282 101.386 27.9136C100.754 27.7418 100.197 27.3641 99.8045 26.8403C99.4116 26.3164 99.2048 25.6764 99.2168 25.0218C99.2168 23.6126 99.2168 22.1667 99.2168 20.7208C98.9518 17.6242 97.512 14.7463 95.1927 12.6776C92.8733 10.6088 89.8502 9.50602 86.7435 9.59537C83.6369 9.68471 80.6822 10.9594 78.4856 13.158C76.2889 15.3567 75.0168 18.3125 74.9303 21.4192C74.9303 22.8896 74.8568 24.3723 74.9303 25.8427C74.9916 27.0681 74.6852 27.595 73.3496 27.8768C63.6563 29.8805 54.9593 35.1873 48.7441 42.8909C42.529 50.5945 39.1812 60.2169 39.2726 70.1147C39.2726 84.7617 39.2726 99.4088 39.2726 114.056C39.305 114.584 39.2183 115.112 39.0189 115.602C38.8195 116.092 38.5126 116.531 38.1207 116.886C33.4889 121.432 28.9184 126.04 24.3478 130.647C23.899 131.008 23.584 131.508 23.4532 132.068C23.3552 134.813 23.4532 137.558 23.4532 140.352H150.669C150.669 137.754 150.731 135.303 150.633 132.853Z" fill="#39F4C4"/>
<path d="M71.144 147.202C70.9969 153.475 73.2393 158.487 78.4961 161.759C81.0263 163.487 84.0226 164.405 87.0869 164.389C90.1511 164.374 93.1382 163.427 95.651 161.673C100.834 158.365 103.003 153.39 102.881 147.202H71.144Z" fill="#39F4C4"/>
<path d="M89.0096 111.924V118.24C89.0096 119.212 88.2223 119.999 87.2512 119.999C86.2801 119.999 85.4928 119.212 85.4928 118.24V111.997C79.319 111.678 73.4812 109.61 69.8614 106.644C69.1453 106.057 69.0007 105.045 69.4207 104.22C70.081 102.924 71.8253 102.632 73.0307 103.446C76.3054 105.66 80.8035 107.218 85.4561 107.5V89.0464C77.7364 87.1472 69.8696 84.7577 69.8696 75.4941C69.8696 68.7546 74.7711 62.9219 85.4561 62.0887V55.772C85.4561 54.8009 86.2434 54.0137 87.2145 54.0137C88.1856 54.0137 88.9729 54.8009 88.9729 55.772V62.0152C93.406 62.115 97.7401 63.2828 101.611 65.4075C102.561 65.9285 102.913 67.0945 102.489 68.0908C101.95 69.3543 100.406 69.8239 99.181 69.2026C96.0121 67.5953 92.5384 66.6508 88.9729 66.4387V85.0395C96.9009 86.9388 105.258 89.1813 105.258 98.592C105.295 105.393 100.173 111.287 89.0096 111.924ZM85.4928 84.1205V66.5735C78.2633 67.2107 75.0406 70.9235 75.0406 75.347C75.0406 80.6896 79.7337 82.6501 85.4928 84.1205ZM100.197 98.8247C100.197 93.2739 95.0629 91.3746 89.0341 89.9042V107.5C96.7293 106.937 100.173 103.359 100.173 98.8738L100.197 98.8247Z" fill="white"/>
</g>
<defs>
<clipPath id="clip0_244_2360">
<rect width="174" height="174" fill="white"/>
</clipPath>
</defs>
</svg>
