<svg width="174" height="174" viewBox="0 0 174 174" fill="none" xmlns="http://www.w3.org/2000/svg">
<g clip-path="url(#clip0_244_2401)">
<path d="M106.618 89.4389L84.2676 67.0885L133.551 17.8048C133.9 17.4802 134.361 17.3034 134.837 17.3118C135.313 17.3202 135.767 17.5131 136.104 17.8499C136.441 18.1866 136.634 18.6409 136.642 19.1171C136.65 19.5933 136.474 20.0542 136.149 20.4026L89.4753 67.0885L106.63 84.2434L153.316 37.5575C153.665 37.2329 154.125 37.0561 154.602 37.0645C155.078 37.0729 155.532 37.2658 155.869 37.6026C156.206 37.9393 156.398 38.3937 156.407 38.8698C156.415 39.346 156.239 39.8068 155.914 40.1553L106.618 89.4389Z" fill="black"/>
<path d="M104.486 88.6668H66.3405L18.2577 40.584C17.9116 40.2395 17.7165 39.7716 17.7153 39.2833C17.7142 38.795 17.9071 38.3262 18.2516 37.9801C18.5961 37.634 19.0638 37.4389 19.5522 37.4377C20.0405 37.4366 20.5093 37.6295 20.8555 37.974L67.8599 84.9907H102.17L38.0226 20.8313C37.698 20.4828 37.5212 20.022 37.5296 19.5458C37.538 19.0697 37.7309 18.6154 38.0677 18.2786C38.4044 17.9418 38.8587 17.7489 39.3349 17.7405C39.8111 17.7321 40.272 17.9089 40.6204 18.2335L106.409 84.035C106.792 84.4137 107.053 84.8978 107.159 85.4255C107.265 85.9532 107.211 86.5005 107.005 86.9976C106.798 87.4946 106.448 87.9188 106 88.2161C105.551 88.5135 105.024 88.6704 104.486 88.6668Z" fill="black"/>
<path d="M95.1486 100.123H78.5941C75.068 100.123 71.6864 98.7226 69.1931 96.2293C66.6998 93.736 65.2991 90.3543 65.2991 86.8283V84.9902H108.456V86.8283C108.456 88.5752 108.112 90.3051 107.443 91.9189C106.774 93.5327 105.793 94.9989 104.558 96.2336C103.322 97.4683 101.855 98.4474 100.24 99.1148C98.6257 99.7822 96.8956 100.125 95.1486 100.123ZM69.1344 88.6663C69.5633 90.8572 70.74 92.8311 72.4633 94.2504C74.1866 95.6697 76.3493 96.4463 78.5818 96.4473H95.1486C97.3811 96.4463 99.5439 95.6697 101.267 94.2504C102.99 92.8311 104.167 90.8572 104.596 88.6663H69.1344Z" fill="black"/>
<path d="M86.8653 156.061C102.302 156.061 114.816 143.547 114.816 128.11C114.816 112.674 102.302 100.16 86.8653 100.16C71.4288 100.16 58.915 112.674 58.915 128.11C58.915 143.547 71.4288 156.061 86.8653 156.061Z" fill="#39F4C4"/>
<path d="M86.9142 143.599L73.3249 130.01C72.5233 129.224 71.8855 128.287 71.4481 127.254C71.0108 126.22 70.7826 125.11 70.777 123.988C70.7713 122.865 70.9882 121.753 71.4151 120.715C71.842 119.677 72.4704 118.734 73.264 117.94C74.0576 117.147 75.0007 116.518 76.0387 116.091C77.0767 115.664 78.189 115.448 79.3113 115.453C80.4337 115.459 81.5439 115.687 82.5776 116.124C83.6112 116.562 84.5478 117.2 85.3334 118.001L86.9142 119.582L88.3968 118.099C89.1824 117.298 90.119 116.66 91.1526 116.222C92.1863 115.785 93.2965 115.557 94.4188 115.551C95.5412 115.546 96.6535 115.762 97.6915 116.189C98.7295 116.616 99.6725 117.245 100.466 118.038C101.26 118.832 101.888 119.775 102.315 120.813C102.742 121.851 102.959 122.963 102.953 124.086C102.948 125.208 102.719 126.318 102.282 127.352C101.845 128.385 101.207 129.322 100.405 130.108L86.9142 143.599Z" fill="white"/>
</g>
<defs>
<clipPath id="clip0_244_2401">
<rect width="174" height="174" fill="white"/>
</clipPath>
</defs>
</svg>
