<svg width="174" height="174" viewBox="0 0 174 174" fill="none" xmlns="http://www.w3.org/2000/svg">
<g clip-path="url(#clip0_244_2216)">
<path d="M24.9359 33.3298H141.835H142.116C142.382 33.3268 142.645 33.3812 142.888 33.4891C143.154 33.6053 143.389 33.7815 143.574 34.0037C143.758 34.2241 143.888 34.4842 143.954 34.7634C144.016 35.0502 144.016 35.3467 143.954 35.6335V35.7192V35.805L142.361 44.505C142.203 45.2242 141.885 45.8985 141.43 46.4778C140.958 47.074 140.354 47.5523 139.666 47.8747L75.5797 78.7168C75.1036 78.9671 74.5736 79.0975 74.0358 79.0967C73.5234 79.0928 73.0193 78.9668 72.5653 78.7291L19.7894 47.1395C19.45 46.9322 19.1843 46.6236 19.0297 46.2573C18.881 45.8878 18.8468 45.4822 18.9316 45.0932V45.0197V44.9461L20.3531 37.1651C20.5902 36.1204 21.1632 35.1821 21.9842 34.4939C22.8052 33.8057 23.8291 33.4054 24.8992 33.3543M24.8992 29.8008C23.0152 29.8585 21.2051 30.5467 19.7587 31.7553C18.3124 32.9639 17.3136 34.6229 16.9221 36.4667L15.4884 44.3089C15.2361 45.4189 15.3366 46.5799 15.776 47.6299C16.2153 48.68 16.9715 49.5666 17.9391 50.1661L70.6292 81.9395C71.6153 82.4737 72.7183 82.7557 73.8397 82.7605C74.9455 82.7596 76.0344 82.4904 77.0134 81.9763L141.099 51.1341C142.283 50.5662 143.316 49.7264 144.114 48.6834C144.915 47.663 145.473 46.4726 145.743 45.2034L147.349 36.4422C147.527 35.635 147.527 34.7987 147.349 33.9915C147.144 33.184 146.758 32.4336 146.221 31.7968C145.684 31.16 145.01 30.6535 144.248 30.3154C143.554 30.0079 142.802 29.8493 142.043 29.8498H141.81H24.8501L24.8992 29.8008Z" fill="black"/>
<path d="M138.33 64.6374C138.403 64.6323 138.477 64.6323 138.551 64.6374C138.551 64.6374 138.551 64.7232 138.551 64.907L129.336 115.244C128.795 117.76 127.429 120.023 125.456 121.674C123.482 123.326 121.014 124.271 118.443 124.361H11.837C10.4381 124.357 9.08134 123.883 7.98536 123.013C6.88939 122.144 6.11814 120.931 5.79597 119.57C5.58146 118.635 5.58146 117.663 5.79597 116.727V116.641V116.556L15.0229 66.1446C15.0637 65.8761 15.1734 65.6228 15.3414 65.4094C15.5024 65.1969 15.7073 65.0214 15.9419 64.8948C16.1995 64.7625 16.4856 64.6952 16.7752 64.6987C16.9716 64.6944 17.1671 64.7277 17.351 64.7967L67.5905 96.276H67.664H67.7375C68.9562 96.9651 70.3321 97.3281 71.7322 97.3298C73.0982 97.3238 74.4414 96.9786 75.641 96.3251L137.583 64.7355C137.807 64.6074 138.059 64.5359 138.318 64.5272M138.318 60.9736C137.497 60.9809 136.689 61.1869 135.965 61.5741L73.9869 93.2862C73.3023 93.6716 72.53 93.8741 71.7444 93.8741C70.9589 93.8741 70.1865 93.6716 69.502 93.2862L19.0666 61.6598C18.3696 61.3293 17.6078 61.1577 16.8364 61.1574H16.7016C15.8869 61.1837 15.0879 61.3887 14.3612 61.7579C13.6402 62.136 13.0149 62.6736 12.5329 63.3297C12.051 63.9858 11.7249 64.7432 11.5796 65.5442L2.42626 115.943C1.91595 118.157 2.19053 120.479 3.20302 122.513C4.21551 124.547 5.90306 126.166 7.97714 127.094C9.22154 127.653 10.5707 127.941 11.935 127.939H12.3638H118.565C121.951 127.836 125.203 126.599 127.801 124.426C130.398 122.252 132.191 119.269 132.889 115.955L142.043 65.5197C142.166 64.9743 142.163 64.4079 142.035 63.8637C141.906 63.3196 141.655 62.812 141.3 62.3795C140.946 61.947 140.497 61.6012 139.989 61.3681C139.481 61.1351 138.926 61.0212 138.367 61.0349L138.318 60.9736Z" fill="black"/>
<path d="M137.46 144.224C156.476 144.224 171.892 128.808 171.892 109.792C171.892 90.7753 156.476 75.3594 137.46 75.3594C118.443 75.3594 103.028 90.7753 103.028 109.792C103.028 128.808 118.443 144.224 137.46 144.224Z" fill="#39F4C4"/>
<path d="M149.236 119.877C148.872 119.88 148.516 119.769 148.219 119.558L135.683 110.723V88.434C135.683 87.9628 135.87 87.5108 136.204 87.1776C136.537 86.8444 136.989 86.6572 137.46 86.6572C137.931 86.6572 138.383 86.8444 138.716 87.1776C139.05 87.5108 139.237 87.9628 139.237 88.434V108.873L150.265 116.642C150.638 116.917 150.891 117.325 150.97 117.781C151.05 118.237 150.951 118.707 150.694 119.092C150.533 119.332 150.317 119.529 150.062 119.666C149.808 119.803 149.524 119.875 149.236 119.877Z" fill="black"/>
</g>
<defs>
<clipPath id="clip0_244_2216">
<rect width="174" height="174" fill="white"/>
</clipPath>
</defs>
</svg>
