<svg width="174" height="174" viewBox="0 0 174 174" fill="none" xmlns="http://www.w3.org/2000/svg">
<g clip-path="url(#clip0_244_2422)">
<path d="M36.3562 83.0176H135.99C136.121 83.0167 136.251 83.046 136.369 83.1034C136.503 83.1605 136.62 83.2487 136.713 83.3607C136.806 83.4707 136.873 83.6006 136.909 83.7406C136.945 83.8853 136.945 84.0369 136.909 84.1817V84.3654L135.561 91.7176C135.44 92.2301 135.21 92.7107 134.887 93.1267C134.561 93.5485 134.142 93.8884 133.661 94.1193L79.1577 120.354L79.0352 120.415C78.7279 120.586 78.3819 120.675 78.0304 120.673C77.7068 120.664 77.389 120.584 77.0992 120.44L32.3861 93.4821C32.2158 93.3737 32.0831 93.2153 32.0062 93.0287C31.9452 92.8374 31.9452 92.6319 32.0062 92.4405V92.2812L33.2316 85.6766C33.4052 84.9313 33.8132 84.2613 34.3956 83.765C34.9841 83.2769 35.7151 82.9931 36.4787 82.9563M36.4052 79.2803C34.8042 79.3329 33.267 79.9201 32.0388 80.9485C30.8106 81.9768 29.9622 83.3869 29.629 84.9537L28.4037 91.6196C28.1951 92.562 28.2807 93.5456 28.6487 94.4379C29.0171 95.3298 29.6556 96.084 30.4745 96.5945L75.3224 123.626C76.1609 124.082 77.1001 124.323 78.0549 124.324C78.9951 124.323 79.9208 124.092 80.7507 123.65L135.254 97.4155C136.258 96.94 137.138 96.2398 137.828 95.3692C138.514 94.5019 138.988 93.4865 139.212 92.4037L140.572 84.9659C140.731 84.2683 140.731 83.5437 140.572 82.846C140.412 82.1511 140.089 81.5043 139.629 80.959C139.168 80.4296 138.595 80.0108 137.95 79.7336C137.358 79.4774 136.72 79.344 136.075 79.3415H36.2827L36.4052 79.2803Z" fill="black"/>
<path d="M29.4576 109.767H29.6659L72.2959 136.504L72.4429 136.602C73.5679 137.225 74.8329 137.552 76.119 137.552C77.4051 137.552 78.6701 137.225 79.7951 136.602L132.24 109.975L124.557 152.029C124.112 154.02 123.028 155.81 121.469 157.127C119.904 158.43 117.953 159.179 115.918 159.259H25.2424C24.5972 159.258 23.9591 159.124 23.3676 158.867C22.7213 158.587 22.1441 158.168 21.6766 157.641C21.2213 157.089 20.8985 156.439 20.7331 155.742C20.5739 155.044 20.5739 154.32 20.7331 153.622V153.438L28.5753 110.551C28.6007 110.424 28.6506 110.303 28.7224 110.196C28.8055 110.098 28.905 110.015 29.0165 109.951C29.145 109.884 29.2882 109.85 29.4331 109.853M132.767 106.115C132.074 106.119 131.393 106.291 130.782 106.618L78.0918 133.502C77.5086 133.832 76.8501 134.005 76.1803 134.005C75.5104 134.005 74.8519 133.832 74.2687 133.502L31.3814 106.544C30.7913 106.266 30.1465 106.124 29.4943 106.128H29.3105C28.619 106.14 27.9397 106.312 27.3255 106.63C26.7112 106.951 26.1786 107.408 25.7687 107.967C25.3587 108.525 25.0823 109.17 24.9605 109.853L17.1183 152.74C16.8295 153.959 16.8208 155.228 17.0927 156.452C17.3647 157.675 17.9103 158.821 18.6886 159.803C19.4668 160.785 20.4575 161.579 21.5862 162.123C22.715 162.668 23.9524 162.949 25.2056 162.947H115.882C118.759 162.854 121.523 161.799 123.731 159.951C125.938 158.103 127.463 155.568 128.062 152.752L135.904 109.865C136.012 109.397 136.011 108.91 135.9 108.443C135.788 107.976 135.571 107.541 135.263 107.171C134.956 106.802 134.567 106.509 134.128 106.316C133.688 106.122 133.21 106.032 132.73 106.054L132.767 106.115Z" fill="black"/>
<path d="M130.034 122.694L68.3134 86.1176C67.2537 85.4905 66.4016 84.5658 65.8627 83.4586C65.1963 82.1407 65.0055 80.6331 65.3225 79.1907C65.6396 77.7483 66.4451 76.4597 67.6028 75.5428L124.765 29.9597L140.818 17.1548L146.613 12.5352C147.636 11.725 148.88 11.2438 150.182 11.1547C151.484 11.0657 152.782 11.373 153.906 12.0363C155.029 12.6996 155.926 13.6877 156.477 14.8704C157.028 16.0531 157.207 17.375 156.992 18.6619L150.865 53.9276L147.618 72.5774L139.69 118.222C139.517 119.256 139.094 120.232 138.459 121.065C137.823 121.899 136.994 122.565 136.042 123.006C135.091 123.446 134.047 123.648 133 123.594C131.953 123.54 130.935 123.231 130.034 122.694Z" fill="#39F4C4"/>
<path d="M147.606 72.6021C145.966 72.9885 144.257 72.9664 142.627 72.538C140.998 72.1095 139.499 71.2878 138.261 70.1447C137.024 69.0017 136.086 67.5723 135.529 65.9822C134.973 64.392 134.816 62.6896 135.071 61.0244C135.326 59.3591 135.986 57.782 136.993 56.4314C138 55.0808 139.323 53.998 140.846 53.278C142.369 52.558 144.046 52.2228 145.728 52.3019C147.411 52.381 149.049 52.8719 150.498 53.7316L150.853 53.9523L147.606 72.6021Z" fill="white"/>
<path d="M109.154 72.4795C114.839 72.4795 119.447 67.8712 119.447 62.1865C119.447 56.5019 114.839 51.8936 109.154 51.8936C103.47 51.8936 98.8613 56.5019 98.8613 62.1865C98.8613 67.8712 103.47 72.4795 109.154 72.4795Z" fill="white"/>
<path d="M141.21 28.281C140.387 29.664 139.252 30.8351 137.896 31.7006C136.539 32.5661 134.999 33.1019 133.398 33.2651C131.797 33.4282 130.18 33.2142 128.677 32.6403C127.174 32.0663 125.826 31.1483 124.741 29.9597L140.818 17.1548C141.943 18.7765 142.578 20.6876 142.648 22.6603C142.717 24.633 142.218 26.5841 141.21 28.281Z" fill="white"/>
<path d="M124.778 107.415C130.462 107.415 135.071 102.806 135.071 97.1216C135.071 91.4369 130.462 86.8286 124.778 86.8286C119.093 86.8286 114.485 91.4369 114.485 97.1216C114.485 102.806 119.093 107.415 124.778 107.415Z" fill="white"/>
<path d="M82.9809 94.8178L68.2766 86.1178C67.2169 85.4907 66.3648 84.566 65.8259 83.4588C67.3733 81.2815 69.7064 79.7911 72.3324 79.3023C74.9583 78.8135 77.6714 79.3646 79.8986 80.8393C82.1257 82.3139 83.6923 84.5966 84.2675 87.205C84.8426 89.8134 84.3813 92.5433 82.9809 94.8178Z" fill="white"/>
</g>
<defs>
<clipPath id="clip0_244_2422">
<rect width="174" height="174" fill="white"/>
</clipPath>
</defs>
</svg>
