<svg width="174" height="174" viewBox="0 0 174 174" fill="none" xmlns="http://www.w3.org/2000/svg">
<g clip-path="url(#clip0_244_2272)">
<path d="M149.714 38.2311C152.298 38.1549 154.867 38.6528 157.236 39.6889C159.605 40.725 161.715 42.2736 163.413 44.2231C165.086 46.3125 166.274 48.7469 166.893 51.351C167.512 53.9551 167.545 56.664 166.991 59.2826L157.372 113.664C155.228 125.844 143.574 135.72 131.419 135.72H4.60728C4.47541 135.731 4.34274 135.714 4.21808 135.669C4.09341 135.625 3.97967 135.555 3.88436 135.463C3.8006 135.336 3.74425 135.193 3.71893 135.043C3.69361 134.894 3.69988 134.74 3.73733 134.593C3.83845 134.085 4.09037 133.619 4.46024 133.257L4.69314 133.049L4.87697 132.902L6.21256 131.676C11.1875 127.13 17.4 121.469 18.5886 114.669L28.183 60.2997C30.3274 48.0462 41.9683 38.2433 54.1361 38.2433H149.714M149.714 35.2412H54.1361C40.5592 35.2412 27.6072 46.2694 25.2178 59.8218L15.6354 114.203C14.5081 120.562 7.56044 126.358 2.83058 130.733L2.35267 131.15C1.53307 131.957 0.981223 132.996 0.771922 134.127C0.64238 134.695 0.644782 135.285 0.778952 135.852C0.913122 136.419 1.1756 136.948 1.54599 137.397C1.91638 137.847 2.38483 138.206 2.91554 138.446C3.44625 138.686 4.02499 138.802 4.60728 138.783H131.456C145.033 138.783 157.972 127.755 160.374 114.203L169.956 59.8218C172.407 46.2449 163.29 35.2412 149.714 35.2412Z" fill="black"/>
<path d="M94.7319 109.828V115.575C94.7319 116.461 94.0132 117.18 93.1267 117.18C92.2402 117.18 91.5215 116.461 91.5215 115.575V109.828C85.8914 109.532 80.5354 107.65 77.2392 104.961C76.5577 104.405 76.4223 103.444 76.8198 102.66C77.4275 101.46 79.0034 101.158 80.115 101.915C83.4702 104.197 87.4083 105.517 91.4969 105.699V88.8622C84.4267 87.1222 77.2216 84.9411 77.2216 76.4494C77.2216 70.3226 81.6574 64.9433 91.4969 64.1959V58.449C91.4969 57.5624 92.2156 56.8438 93.1022 56.8438C93.9887 56.8438 94.7074 57.5624 94.7074 58.449V64.1959C98.7722 64.2908 102.745 65.364 106.294 67.3136C107.163 67.791 107.487 68.858 107.1 69.7708C106.61 70.9266 105.201 71.3612 104.079 70.7994C101.165 69.3413 97.9769 68.4878 94.7074 68.3008V85.1984C101.986 86.9384 109.632 88.997 109.632 97.6112C109.657 103.848 104.964 109.215 94.7319 109.828ZM91.5215 84.3651V68.2885C84.8923 68.8644 81.9391 72.2709 81.9391 76.3268C81.9391 81.216 86.3015 83.005 91.5215 84.3651ZM105 97.844C105 92.7588 100.307 91.031 94.7687 89.6709V105.784C101.814 105.27 104.964 101.986 104.964 97.8685L105 97.844Z" fill="black"/>
<path d="M149.248 119.607C149.248 118.632 148.861 117.697 148.171 117.008C147.482 116.318 146.547 115.931 145.572 115.931H124.471C123.496 115.931 122.561 115.544 121.872 114.854C121.182 114.165 120.795 113.23 120.795 112.255V106.128C120.795 105.153 121.182 104.218 121.872 103.529C122.561 102.839 123.496 102.452 124.471 102.452H145.572C146.547 102.452 147.482 102.065 148.171 101.375C148.861 100.686 149.248 99.751 149.248 98.7761C149.237 98.1087 149.408 97.4511 149.743 96.8737C150.078 96.2962 150.563 95.8208 151.148 95.4984C151.732 95.1759 152.393 95.0187 153.06 95.0436C153.727 95.0684 154.375 95.2742 154.933 95.6392L171.574 106.104C172.111 106.432 172.555 106.893 172.863 107.442C173.171 107.992 173.333 108.611 173.333 109.241C173.333 109.87 173.171 110.49 172.863 111.039C172.555 111.588 172.111 112.049 171.574 112.378L154.921 122.695C154.366 123.054 153.724 123.257 153.063 123.282C152.403 123.307 151.747 123.154 151.166 122.838C150.586 122.522 150.101 122.055 149.763 121.486C149.426 120.917 149.247 120.268 149.248 119.607Z" fill="#39F4C4"/>
<path d="M31.3445 56.7216C31.3445 57.6966 31.7318 58.6316 32.4212 59.321C33.1106 60.0104 34.0457 60.3977 35.0206 60.3977H56.1211C57.0961 60.3977 58.0311 60.785 58.7205 61.4744C59.4099 62.1638 59.7972 63.0988 59.7972 64.0738V70.2005C59.7972 71.1755 59.4099 72.1105 58.7205 72.7999C58.0311 73.4893 57.0961 73.8766 56.1211 73.8766H35.0206C34.0457 73.8766 33.1106 74.2639 32.4212 74.9533C31.7318 75.6427 31.3445 76.5777 31.3445 77.5526C31.3553 78.22 31.1841 78.8777 30.8494 79.4551C30.5148 80.0326 30.0291 80.508 29.4447 80.8304C28.8604 81.1528 28.1992 81.31 27.5322 81.2852C26.8653 81.2604 26.2177 81.0545 25.6589 80.6895L9.01867 70.2128C8.48398 69.8838 8.04243 69.4233 7.73618 68.8752C7.42993 68.3272 7.26904 67.7098 7.26904 67.082C7.26904 66.4542 7.42993 65.8368 7.73618 65.2888C8.04243 64.7407 8.48398 64.2803 9.01867 63.9512L25.6589 53.4622C26.2265 53.0905 26.8859 52.8831 27.5641 52.8629C28.2423 52.8428 28.9127 53.0107 29.5013 53.3482C30.0899 53.6856 30.5738 54.1794 30.8991 54.7748C31.2244 55.3702 31.3786 56.044 31.3445 56.7216Z" fill="#39F4C4"/>
</g>
<defs>
<clipPath id="clip0_244_2272">
<rect width="174" height="174" fill="white"/>
</clipPath>
</defs>
</svg>
