<svg width="304" height="552" viewBox="0 0 304 552" fill="none" xmlns="http://www.w3.org/2000/svg">
<path d="M256.928 25.1357L264 353.623L26.8221 359.046L19.75 30.5583L256.928 25.1357Z" fill="url(#paint0_linear_244_2716)"/>
<path d="M158.532 105.959C150.017 105.959 143.115 99.1872 143.115 90.8322C143.115 82.478 150.017 75.7051 158.532 75.7051C167.046 75.7051 173.948 82.478 173.948 90.8322C173.948 99.1872 167.046 105.959 158.532 105.959Z" fill="#493212"/>
<path d="M173.004 86.8719C167.281 86.8719 162.642 82.3197 162.642 76.7037C162.642 71.0882 167.281 66.5361 173.004 66.5361C178.727 66.5361 183.366 71.0882 183.366 76.7037C183.366 82.3197 178.727 86.8719 173.004 86.8719Z" fill="#493212"/>
<path d="M280.524 473.868C280.368 473.884 280.298 473.969 280.385 474.037C280.316 474.122 280.316 474.122 280.333 474.274C280.005 475.325 279.773 476.403 279.64 477.494L292.963 488L294.438 486.374C294.438 486.374 289.521 480.405 287.675 478.67C286.881 477.904 286.172 477.207 285.465 476.51C284.844 475.88 284.292 475.166 283.757 474.605C283.016 473.602 280.852 473.987 280.835 473.834C280.749 473.766 280.524 473.868 280.524 473.868Z" fill="#233B62"/>
<path d="M179.792 382.581L192.653 394.814L264.581 462.971L265.894 464.145L266.462 465.012L266.549 465.08L276.737 480.227L277.876 481.961L278.254 482.539L285.15 492.857L279.47 495.629L277.825 496.423L275.505 497.521L271.85 499.381L271.781 499.465L267.901 501.425L267.712 501.136L258.858 484.533C257.14 481.326 254.732 478.523 251.801 476.319L173.589 417.569L158.72 406.401L179.792 382.581Z" fill="#FFCCB3"/>
<path d="M275.751 465.643C272.303 464.072 268.434 462.667 264.651 462.886C266.931 464.846 267.97 468.333 269.477 470.874C272.577 476.107 280.525 485.83 276.464 494.094C274.183 498.737 267.799 501.204 267.712 501.136C266.644 505.904 261.35 525.315 271.903 514.063C277.798 507.779 283.645 501.067 286.584 494.404C287.789 491.673 285.24 488.948 283.989 486.641C282.389 483.151 279.994 478.53 280.297 474.666L280.367 474.582C280.54 474.314 294.206 486.319 294.438 486.376C294.907 485.63 296 484.122 296 484.122C296 484.122 276.407 465.882 275.751 465.643Z" fill="#FF9D7D"/>
<path d="M128.576 529.138C128.453 529.043 128.343 529.056 128.356 529.164C128.247 529.177 128.247 529.177 128.15 529.298C127.167 529.824 126.233 530.436 125.361 531.124L127.397 547.777L129.609 547.626C129.609 547.626 130.349 539.986 130.265 537.478C130.243 536.386 130.234 535.402 130.226 534.417C130.23 533.541 130.345 532.652 130.362 531.884C130.547 530.658 128.726 529.449 128.823 529.328C128.81 529.22 128.576 529.138 128.576 529.138Z" fill="#233B62"/>
<path d="M121.631 394.763L122.105 412.331L124.948 510.408L125.049 512.148L124.837 513.157L124.851 513.266L121.34 531.084L120.918 533.105L120.776 533.778L118.352 545.885L112.317 543.969L110.575 543.408L108.133 542.601L104.196 541.422L104.087 541.435L99.9161 540.174L99.9863 539.837L105.49 521.893C106.547 518.422 106.824 514.767 106.3 511.18L92.2617 415.515L89.5921 397.33L121.631 394.763Z" fill="#FFCCB3"/>
<path d="M131.027 519.983C129.683 516.495 127.918 512.835 125.058 510.396C125.292 513.362 123.549 516.568 122.814 519.418C121.301 525.285 120.053 537.69 111.261 540.811C106.322 542.564 99.9999 539.947 99.9864 539.839C95.825 542.515 78.2066 552.757 93.7698 551.956C102.461 551.508 111.424 550.722 118.274 547.977C121.082 546.851 121.202 543.154 121.951 540.647C123.294 537.054 124.877 532.108 127.846 529.553L127.957 529.541C128.271 529.469 129.484 547.427 129.609 547.627C130.477 547.415 132.333 547.088 132.333 547.088C132.333 547.088 131.327 520.605 131.027 519.983Z" fill="#FF9D7D"/>
<path d="M102.209 262.689C102.209 262.689 79.8429 378.704 78.1495 391.142C76.4554 403.581 75.3268 490.19 75.3268 490.19L150.131 485.535L132.993 384.193L135.077 339.318C135.077 339.318 137.707 383.69 139.545 391.142C141.383 398.595 205.813 475.792 205.813 475.792L240.393 435.158L185.421 363.139C185.421 363.139 179.759 328.211 178.842 309.402C177.075 273.148 171.294 263.641 171.294 263.641L102.209 262.689Z" fill="#3D3D3D"/>
<path d="M102.253 262.946L171.295 263.643L175.188 277.267L101.086 267.781L102.253 262.946Z" fill="#2D2D2D"/>
<path d="M27.8666 180.347L22.6112 173.746C21.5108 172.201 20.048 170.938 18.3449 170.064C15.7591 168.794 11.7941 166.423 10.4162 164.054C8.13296 160.289 -0.866528 150.117 6.93923 142.211C9.82896 139.293 9.10714 139.984 14.8834 140.072C20.6596 140.158 21.5462 146.04 24.4328 149.89C24.4328 149.89 25.0818 145.449 28.2722 143.42C31.4633 141.392 29.3456 153.784 31.8007 158.48C34.2552 163.177 32.2714 164.952 38.0869 173.203L27.8666 180.347Z" fill="#FFCCB3"/>
<path d="M14.0052 140.747L18.6985 151.198L14.0052 140.747Z" fill="#E56441"/>
<path d="M14.0052 140.747L18.6985 151.198" stroke="#E56441" stroke-width="1.03302" stroke-linecap="round"/>
<path d="M7.88225 142.606L14.3867 153.734L7.88225 142.606Z" fill="#E56441"/>
<path d="M7.88225 142.606L14.3867 153.734" stroke="#E56441" stroke-width="1.03302" stroke-linecap="round"/>
<path d="M4.04221 149.924L9.16943 156.567L4.04221 149.924Z" fill="#E56441"/>
<path d="M4.04221 149.924L9.16943 156.567" stroke="#E56441" stroke-width="1.03302" stroke-linecap="round"/>
<path d="M23.2246 152.258C23.2246 152.258 21.2389 157.84 21.5821 162.24L23.2246 152.258Z" fill="#E56441"/>
<path d="M23.2246 152.258C23.2246 152.258 21.2389 157.84 21.5821 162.24" stroke="#E56441" stroke-width="1.03302" stroke-linecap="round"/>
<path d="M109.269 162.641C103.873 164.476 96.3515 168.198 94.3156 172.351L76.3307 212.554L38.0868 169.527L24.81 180.345L63.0082 236.388C71.1069 248.224 82.9807 249.854 90.5096 240.107L105.536 216.947L109.269 162.641Z" fill="#FF9D7D"/>
<path d="M101.599 197.249C101.599 197.249 99.9778 194.504 99.9778 208.831L90.5096 240.107L105.536 216.948C117.592 201.043 108.068 196.795 101.599 197.249Z" fill="#FF967C"/>
<path d="M121.931 157.369C121.931 157.369 108.013 162.773 105.887 164.441C103.762 166.11 101.744 179.724 98.1323 186.188C94.5195 192.651 89.2339 204.582 96.9534 215.541C104.673 226.5 103.851 235.203 103.851 235.203L102.209 262.693L168.733 263.896C169.319 263.914 169.902 263.81 170.443 263.59C170.985 263.371 171.473 263.041 171.875 262.623C172.278 262.204 172.585 261.707 172.776 261.163C172.968 260.62 173.039 260.042 172.987 259.47C172.247 251.455 168.871 240.199 168.606 227.436C168.246 210.14 165.259 152.262 165.259 152.262L138.997 151.453C133.16 152.441 121.931 157.369 121.931 157.369Z" fill="white"/>
<path d="M103.559 240.107V240.106L103.712 237.531C103.755 235.928 103.742 233.952 103.687 231.738C103.23 228.21 101.721 222.306 96.9537 215.538C89.2348 204.58 94.5198 192.649 98.1326 186.185C101.745 179.72 103.763 166.107 105.888 164.438C108.013 162.77 114.727 160.269 114.727 160.269C114.727 160.269 115.125 172.143 115.527 183.018C115.929 193.893 118.482 286.965 118.482 286.965H90.5097C90.5097 286.965 102.645 248.15 103.559 240.107Z" fill="#FF9D7D"/>
<path d="M148.755 151.752C148.755 151.752 137.49 171.214 132.993 190.985C128.495 210.758 139.621 277.336 138.137 285.944L190.183 289.844C190.183 289.844 171.532 265.492 170.163 242.596C168.795 219.702 166.396 173.567 166.396 173.567L163.835 152.371L148.755 151.752Z" fill="#FF9D7D"/>
<path d="M156.572 175.969C156.572 175.969 152.491 184.607 151.92 191.042C151.35 197.478 156.966 212.697 144.508 214.486C129.236 216.68 132.552 219.506 139.631 221.185C146.711 222.863 154.88 219.476 155.465 226.65C156.38 237.886 164.377 244.192 170.163 242.596C166.283 208.413 170.854 193.505 156.572 175.969Z" fill="#E1684A"/>
<path d="M121.812 140.673L118.832 161.976C118.832 161.976 116.956 166.432 121.896 166.744C126.836 167.057 134.027 164.424 138.426 160.934C142.825 157.445 142.633 157.072 141.538 154.104C140.444 151.135 136.706 129.294 136.706 129.294L121.812 140.673Z" fill="#FFCCB3"/>
<path d="M119.262 158.936C121.897 155.34 124.73 150.053 126.978 145.492C128.207 142.998 129.257 140.729 130 139.083C130.371 138.259 130.666 137.593 130.868 137.132C130.868 137.13 130.869 137.129 130.87 137.128L121.838 140.823L119.262 158.936Z" fill="#FF967C"/>
<path d="M113.37 99.6424C113.37 99.6424 105.567 121.424 110.333 134.807C113.441 143.534 119.53 143.057 133.839 136.138C146.958 129.793 150.295 125.144 150.295 125.144L151.732 103.169C151.732 103.169 121.622 81.9097 113.37 99.6424Z" fill="#FFCCB3"/>
<path d="M125.529 102.555C125.529 102.555 126.793 108.139 133.965 112.331C137.869 114.613 138.415 124.205 138.415 124.205C138.415 124.205 139.326 117.647 144.572 119.972C149.818 122.297 141.801 130.632 137.251 132.437C137.251 132.437 137.787 135.243 139.033 141.924C139.033 141.924 155.841 135.952 157.79 120.603C158.761 112.959 161.691 88.9092 139.644 85.4773C115.527 81.7225 112.531 95.9348 109.269 107.122C109.269 107.122 118.765 112.06 125.529 102.555Z" fill="#493212"/>
<path d="M123.073 129.511L115.92 129.18C115.925 129.204 115.932 129.228 115.938 129.254C116.01 129.532 116.133 129.908 116.334 130.295C116.734 131.067 117.428 131.863 118.639 132.09C120.608 132.279 121.727 131.534 122.364 130.764C122.689 130.371 122.895 129.964 123.019 129.655C123.039 129.604 123.058 129.556 123.073 129.511Z" fill="#E56441" stroke="#E56441"/>
<path d="M114.159 118.323C113.359 118.114 112.966 117.006 113.281 115.85C113.596 114.693 114.5 113.925 115.3 114.135C116.1 114.345 116.492 115.452 116.177 116.609C115.863 117.765 114.959 118.533 114.159 118.323Z" fill="#080B09"/>
<path d="M125.927 121.589C125.128 121.379 124.735 120.272 125.05 119.115C125.365 117.959 126.269 117.191 127.068 117.401C127.868 117.61 128.261 118.718 127.946 119.874C127.631 121.031 126.727 121.799 125.927 121.589Z" fill="#080B09"/>
<path d="M113.186 110.647L119.171 112.32C119.274 112.34 119.383 112.322 119.475 112.27C119.567 112.218 119.636 112.135 119.67 112.036C119.697 111.851 119.686 111.663 119.636 111.482C119.587 111.301 119.5 111.132 119.383 110.986C119.265 110.838 119.118 110.716 118.95 110.626C118.784 110.536 118.6 110.481 118.41 110.463L113.272 109.944C112.879 109.841 112.694 110.517 113.186 110.647Z" fill="#080B09"/>
<path d="M133.642 115.614L125.529 114.004C125.602 113.767 125.725 113.548 125.889 113.36C126.053 113.173 126.256 113.02 126.484 112.914C126.712 112.808 126.96 112.75 127.211 112.744C127.464 112.737 127.714 112.783 127.947 112.877L133.872 115.157C134.069 115.208 133.937 115.691 133.642 115.614Z" fill="#080B09"/>
<path d="M119.792 116.933L117.516 121.915L118.286 124.204" stroke="#E56441" stroke-width="1.03302" stroke-linecap="round"/>
<path d="M159.252 161.613C159.252 161.613 174.284 154.51 177.109 159.073C182.99 168.188 192.48 199.94 195.636 207.331C196.147 208.677 172.861 212.389 172.861 212.389L149.968 174.086L159.252 161.613Z" fill="#FF9D7D"/>
<path d="M164.214 183.019C155.587 183.019 148.592 176.156 148.592 167.69C148.592 159.225 155.587 152.361 164.214 152.361C172.842 152.361 179.836 159.225 179.836 167.69C179.836 176.156 172.842 183.019 164.214 183.019Z" fill="#FF9D7D"/>
<path d="M200.083 219.298L178.946 227.29L172.86 212.387L171.851 210.035L193.555 201.684L194.58 204.489L200.083 219.298Z" fill="#FF9D7D"/>
<path d="M189.636 234.649C183.373 234.649 178.296 229.666 178.296 223.521C178.296 217.375 183.373 212.394 189.636 212.394C195.899 212.394 200.976 217.375 200.976 223.521C200.976 229.666 195.899 234.649 189.636 234.649Z" fill="#FF9D7D"/>
<path d="M122.178 226.671C122.178 226.671 110.446 230.585 103.829 227.837C103.829 227.837 93.1193 232.435 91.5959 231.652C89.1054 230.276 91.0808 227.911 91.0808 227.911C91.0808 227.911 84.1462 229.82 83.1997 223.383C81.8057 214.361 94.3536 212.425 100.293 211.755C106.133 210.955 122.178 215.343 122.178 215.343V226.671Z" fill="#FFCCB3"/>
<path d="M88.4591 211.153L100.897 211.609L88.9099 215.343C88.9099 215.343 84.6345 213.377 86.6273 211.702C87.1501 211.308 87.8011 211.112 88.4591 211.153Z" fill="#FFCCB3"/>
<path d="M91.1953 227.928L98.9463 225.215L91.1953 227.928Z" fill="#93523E"/>
<path d="M91.1953 227.928L98.9463 225.215L91.1953 227.928Z" fill="#E56441"/>
<path d="M91.1953 227.928L98.9463 225.215" stroke="#E56441" stroke-width="1.03302" stroke-linecap="round"/>
<path d="M87.1582 222.669C87.1582 222.669 95.9065 219.52 97.8047 219.323L87.1582 222.669Z" fill="#93523E"/>
<path d="M87.1582 222.669C87.1582 222.669 95.9065 219.52 97.8047 219.323L87.1582 222.669Z" fill="#E56441"/>
<path d="M87.1582 222.669C87.1582 222.669 95.9065 219.52 97.8047 219.323" stroke="#E56441" stroke-width="1.03302" stroke-linecap="round"/>
<path d="M86.1503 218.287C89.624 216.616 93.3347 215.466 97.1567 214.877L86.1503 218.287Z" fill="#93523E"/>
<path d="M86.1503 218.287C89.624 216.616 93.3347 215.466 97.1567 214.877L86.1503 218.287Z" fill="#E56441"/>
<path d="M86.1503 218.287C89.624 216.616 93.3347 215.466 97.1567 214.877" stroke="#E56441" stroke-width="1.03302" stroke-linecap="round"/>
<path d="M189.367 212.358C189.367 212.358 125.798 215.375 121.017 214.485L121.147 227.926L187.27 234.313L189.367 212.358Z" fill="#FF9D7D"/>
<path fill-rule="evenodd" clip-rule="evenodd" d="M259.279 0.00303761L12.1684 5.45547C10.5345 5.49148 8.92347 5.84718 7.42807 6.50236C5.93203 7.15754 4.58083 8.09892 3.45133 9.27407C2.32184 10.4486 1.43569 11.8329 0.844265 13.3479C0.252202 14.863 -0.0336872 16.4791 0.00315791 18.1041L8.07605 379.019C8.1491 382.3 9.53017 385.418 11.9149 387.687C14.3003 389.956 17.4938 391.19 20.7927 391.117L267.904 385.665C268.417 385.653 268.928 385.611 269.434 385.537H304C296.254 383.441 280.715 371.977 279.394 342.853L271.996 12.1007C271.922 8.8198 270.541 5.70124 268.157 3.43245C265.772 1.16365 262.578 -0.0696193 259.279 0.00303761ZM252.378 54.986L258.708 338.758C258.744 340.382 258.458 341.999 257.867 343.514C257.275 345.029 256.389 346.413 255.259 347.588C254.129 348.762 252.778 349.703 251.283 350.359C249.787 351.014 248.176 351.369 246.542 351.405L40.6064 355.949C38.9725 355.985 37.3475 355.701 35.8242 355.113C34.3008 354.524 32.909 353.643 31.728 352.519C30.5471 351.396 29.6006 350.052 28.9418 348.565C28.283 347.078 27.9254 345.475 27.8892 343.85L21.5594 60.0789C21.5226 58.454 21.8091 56.8378 22.4005 55.3228C22.9926 53.8077 23.8781 52.4234 25.0076 51.2489C26.1378 50.0744 27.489 49.133 28.9844 48.4778C30.4798 47.8227 32.0908 47.467 33.724 47.431L239.661 42.8871C242.96 42.8144 246.154 44.0477 248.538 46.3171C250.924 48.5859 252.305 51.7045 252.378 54.986Z" fill="url(#paint1_linear_244_2716)"/>
<path d="M242.576 31.9822C237.81 31.9822 233.947 28.1908 233.947 23.5136C233.947 18.837 237.81 15.0449 242.576 15.0449C247.343 15.0449 251.207 18.837 251.207 23.5136C251.207 28.1908 247.343 31.9822 242.576 31.9822Z" fill="white"/>
<path d="M175.187 19.5107L221.889 18.4941" stroke="white" stroke-width="5.36573" stroke-miterlimit="10" stroke-linecap="round"/>
<path d="M194.446 28.5355L221.889 27.9385" stroke="white" stroke-width="5.36573" stroke-miterlimit="10" stroke-linecap="round"/>
<path d="M145.652 151.752C145.652 151.752 145.926 196.975 128.055 201.679C110.183 206.383 109.269 162.642 109.269 162.642" stroke="#FFE3DA" stroke-width="1.78858" stroke-miterlimit="10"/>
<defs>
<linearGradient id="paint0_linear_244_2716" x1="1532.46" y1="177.002" x2="1468.17" y2="729.432" gradientUnits="userSpaceOnUse">
<stop stop-color="#F0FCF9"/>
<stop offset="1" stop-color="#64E2C2"/>
</linearGradient>
<linearGradient id="paint1_linear_244_2716" x1="152" y1="-224.742" x2="280.814" y2="813.506" gradientUnits="userSpaceOnUse">
<stop stop-color="white"/>
<stop offset="1" stop-color="#64E2C2"/>
</linearGradient>
</defs>
</svg>
