<svg width="174" height="174" viewBox="0 0 174 174" fill="none" xmlns="http://www.w3.org/2000/svg">
<g clip-path="url(#clip0_244_2308)">
<path d="M24.7643 32.3128H145.572H145.817C146.091 32.3101 146.362 32.3643 146.613 32.4721C146.885 32.5941 147.125 32.7788 147.312 33.0112C147.503 33.2392 147.642 33.5072 147.716 33.7955C147.778 34.0905 147.778 34.395 147.716 34.69V34.788V34.935L146.062 43.9291C145.893 44.6822 145.554 45.387 145.072 45.9899C144.591 46.5929 143.978 47.0782 143.28 47.4091L77.1114 79.2683H77.0501C76.559 79.5268 76.0121 79.6614 75.4571 79.6604C74.9274 79.6582 74.4061 79.5278 73.9377 79.2805L19.5933 46.5269C19.246 46.3145 18.9756 45.9968 18.8214 45.6201C18.659 45.2328 18.6204 44.8048 18.711 44.3947V44.309V44.2354L20.1815 36.1849C20.42 35.1018 21.0103 34.1281 21.8602 33.4156C22.7126 32.7117 23.7703 32.3032 24.8746 32.2515L24.7643 32.3128ZM24.7643 28.6367C22.8176 28.699 20.9481 29.4126 19.4552 30.6634C17.9622 31.9142 16.9322 33.6298 16.5299 35.5355L15.0472 43.635C14.7796 44.7718 14.8716 45.9636 15.3107 47.0458C15.7497 48.1279 16.514 49.047 17.4979 49.676L72.0384 82.5155C73.055 83.0662 74.1907 83.3607 75.3469 83.3732C76.4921 83.3719 77.6197 83.0901 78.6308 82.5522L144.8 50.6931C146.014 50.1302 147.08 49.2909 147.912 48.2424C148.744 47.1867 149.322 45.9542 149.603 44.6398L151.257 35.5967C151.558 34.3214 151.402 32.9813 150.818 31.8086C150.234 30.6359 149.258 29.7045 148.059 29.1759C147.341 28.8583 146.565 28.6954 145.78 28.698H145.56H24.6908L24.7643 28.6367Z" fill="black"/>
<path d="M141.945 64.6737C142.022 64.6681 142.1 64.6681 142.177 64.6737C142.196 64.7668 142.196 64.8625 142.177 64.9556L132.656 117.033C132.097 119.631 130.687 121.968 128.649 123.675C126.612 125.382 124.064 126.36 121.408 126.456H11.7143H11.2731C10.378 126.457 9.49272 126.27 8.67537 125.905C7.7686 125.501 6.9676 124.893 6.33498 124.128C5.69814 123.369 5.24897 122.47 5.02384 121.506C4.79736 120.542 4.79736 119.54 5.02384 118.577V118.479V118.393L14.5449 66.3035C14.5933 66.0276 14.7066 65.7671 14.8756 65.5437C15.0419 65.3204 15.2553 65.1363 15.5006 65.0046C15.7686 64.8754 16.0609 64.8044 16.3583 64.7963C16.5635 64.796 16.767 64.8334 16.9588 64.9066L68.8647 97.4274H68.9382H69.0118C70.2605 98.1261 71.6674 98.4929 73.0983 98.4929C74.5291 98.4929 75.9361 98.1261 77.1848 97.4274L141.197 64.784C141.427 64.6584 141.683 64.5872 141.945 64.5757V64.6737ZM141.945 60.9977C141.091 61.0063 140.251 61.2163 139.494 61.6104L75.4326 94.2782C74.7246 94.6799 73.9245 94.8911 73.1105 94.8911C72.2965 94.8911 71.4964 94.6799 70.7885 94.2782L18.6743 61.5859C17.9546 61.2439 17.1674 61.068 16.3706 61.0712H16.2358C15.3816 61.0868 14.5426 61.3008 13.7851 61.6961C13.0389 62.0863 12.3898 62.6391 11.8858 63.3136C11.3936 63.9955 11.0588 64.7781 10.9055 65.605L1.38458 117.682C1.02936 119.202 1.02936 120.783 1.38458 122.302C1.74031 123.82 2.44517 125.234 3.44316 126.431C4.43856 127.629 5.69645 128.581 7.11922 129.213C8.40705 129.788 9.80162 130.084 11.2119 130.083H11.653H121.408C124.904 129.968 128.262 128.686 130.944 126.441C133.627 124.195 135.481 121.116 136.21 117.695L145.731 65.6173C145.864 65.0492 145.864 64.4579 145.73 63.8899C145.596 63.322 145.333 62.7928 144.96 62.344C144.587 61.8951 144.115 61.5388 143.581 61.3031C143.048 61.0674 142.466 60.9586 141.883 60.9854L141.945 60.9977Z" fill="black"/>
<path d="M144.861 145.364H137.288C133.502 143.869 132.632 142.558 132.608 138.428C132.657 137.201 132.603 135.971 132.448 134.752C132.308 133.893 131.97 133.077 131.461 132.371C130.952 131.664 130.285 131.086 129.513 130.682C128.742 130.278 127.887 130.059 127.016 130.042C126.145 130.025 125.282 130.212 124.496 130.586C123.172 131.211 121.886 131.897 120.587 132.571C119.965 132.962 119.269 133.22 118.543 133.329C117.817 133.439 117.076 133.397 116.366 133.208C115.657 133.018 114.994 132.684 114.419 132.227C113.845 131.769 113.37 131.198 113.026 130.549C112.058 129.018 111.164 127.437 110.269 125.869C109.836 125.243 109.542 124.533 109.405 123.785C109.269 123.037 109.294 122.268 109.478 121.531C109.663 120.793 110.002 120.103 110.475 119.507C110.947 118.911 111.541 118.423 112.218 118.075C113.369 117.34 114.583 116.727 115.722 115.992C116.531 115.494 117.198 114.797 117.661 113.968C118.124 113.139 118.367 112.206 118.367 111.256C118.367 110.307 118.124 109.373 117.661 108.544C117.198 107.715 116.531 107.018 115.722 106.52C114.705 105.871 113.627 105.295 112.597 104.695C111.897 104.291 111.283 103.753 110.791 103.112C110.3 102.47 109.94 101.737 109.732 100.956C109.525 100.174 109.474 99.3598 109.583 98.5588C109.692 97.7577 109.959 96.9862 110.367 96.2886C111.213 94.7447 112.12 93.2252 113.051 91.7303C113.402 91.0996 113.874 90.5446 114.441 90.0974C115.007 89.6503 115.657 89.3197 116.352 89.1249C117.047 88.9301 117.773 88.8748 118.49 88.9624C119.206 89.0499 119.898 89.2785 120.526 89.6349C121.824 90.2844 123.111 90.9706 124.422 91.6078C125.222 92.0125 126.108 92.22 127.005 92.2129C127.902 92.2059 128.784 91.9845 129.578 91.5672C130.371 91.1499 131.054 90.5488 131.568 89.814C132.083 89.0793 132.414 88.2323 132.534 87.3435C132.648 86.2939 132.689 85.2375 132.657 84.1821C132.657 80.0527 133.576 78.7048 137.337 77.2344H144.91C148.672 78.7048 149.566 80.0527 149.591 84.1821C149.548 85.389 149.597 86.5975 149.738 87.7969C149.88 88.6688 150.226 89.4947 150.748 90.2073C151.271 90.9198 151.954 91.4986 152.743 91.8966C153.531 92.2945 154.403 92.5002 155.286 92.4968C156.17 92.4935 157.04 92.2812 157.825 91.8773C159.051 91.2647 160.19 90.5417 161.367 89.8555C161.989 89.4194 162.697 89.1205 163.444 88.9785C164.19 88.8366 164.959 88.8548 165.698 89.0321C166.437 89.2093 167.13 89.5415 167.731 90.0066C168.332 90.4718 168.827 91.0593 169.184 91.7303C170.177 93.2987 171.108 94.9162 172.027 96.5337C172.416 97.1417 172.678 97.822 172.797 98.5339C172.917 99.2457 172.891 99.9743 172.722 100.676C172.552 101.378 172.243 102.038 171.812 102.617C171.381 103.196 170.837 103.682 170.214 104.045C169.123 104.756 167.947 105.356 166.832 106.042C165.923 106.548 165.166 107.287 164.639 108.183C164.112 109.079 163.834 110.1 163.834 111.14C163.834 112.18 164.112 113.2 164.639 114.097C165.166 114.993 165.923 115.732 166.832 116.237C167.738 116.789 168.682 117.279 169.576 117.83C170.756 118.44 171.688 119.44 172.211 120.661C172.734 121.881 172.816 123.246 172.444 124.521C171.639 126.664 170.612 128.718 169.38 130.647C167.457 134.005 164.405 134.74 161.036 132.78C160.043 132.204 159.051 131.554 158.034 131.052C157.225 130.58 156.31 130.318 155.374 130.291C154.437 130.263 153.509 130.471 152.674 130.895C151.839 131.32 151.124 131.947 150.594 132.719C150.063 133.491 149.736 134.384 149.64 135.316C149.546 136.318 149.513 137.325 149.542 138.33C149.517 142.546 148.623 143.894 144.861 145.364ZM140.989 126.003C143.902 126.028 146.757 125.186 149.191 123.585C151.625 121.984 153.529 119.696 154.661 117.012C155.793 114.327 156.101 111.367 155.548 108.506C154.994 105.646 153.604 103.015 151.552 100.946C149.501 98.8771 146.881 97.4645 144.025 96.8871C141.17 96.3097 138.207 96.5937 135.513 97.7029C132.819 98.8121 130.515 100.697 128.894 103.117C127.273 105.538 126.407 108.386 126.407 111.299C126.399 113.222 126.77 115.128 127.498 116.907C128.227 118.687 129.299 120.306 130.653 121.671C132.007 123.037 133.616 124.122 135.39 124.865C137.163 125.609 139.066 125.995 140.989 126.003Z" fill="#39F4C4"/>
</g>
<defs>
<clipPath id="clip0_244_2308">
<rect width="174" height="174" fill="white"/>
</clipPath>
</defs>
</svg>
