<svg width="174" height="174" viewBox="0 0 174 174" fill="none" xmlns="http://www.w3.org/2000/svg">
<g clip-path="url(#clip0_244_2156)">
<path d="M171.329 60.0298L170.593 57.9222L159.026 24.5068H14.9737L3.39421 57.9467L2.65903 60.0298C1.93141 62.0985 1.62881 64.2929 1.76933 66.4814C1.90986 68.6698 2.49056 70.8075 3.47678 72.7662C4.463 74.7249 5.83441 76.4644 7.50883 77.8806C9.18326 79.2967 11.1263 80.3604 13.2216 81.0078V138.599C13.2216 141.499 14.3727 144.281 16.4221 146.332C18.4716 148.384 21.2516 149.538 24.1516 149.542H149.861C152.761 149.538 155.541 148.384 157.59 146.332C159.64 144.281 160.791 141.499 160.791 138.599V81.0078C162.886 80.3608 164.828 79.297 166.502 77.8804C168.175 76.4639 169.546 74.7236 170.53 72.7643C171.514 70.805 172.092 68.667 172.23 66.4786C172.367 64.2903 172.06 62.0968 171.329 60.0298ZM73.3006 28.0481H100.847V66.4139C100.847 72.847 94.7198 78.0792 87.0736 78.0792C79.4274 78.0792 73.3006 72.847 73.3006 66.4139V28.0481ZM16.6281 78.0302C15.4818 77.9504 14.354 77.6984 13.2827 77.2827C10.9145 76.3682 8.89504 74.7303 7.51138 72.6019C6.41817 70.9359 5.71868 69.0427 5.46603 67.0661C5.21338 65.0895 5.41428 63.0813 6.05328 61.1938L6.78846 59.1108L17.5592 28.0481H31.6018V66.4139C31.6018 72.847 25.4751 78.0792 17.8289 78.0792C17.4368 78.0792 17.1058 78.0792 16.8118 78.0792H16.6281V78.0302ZM69.5755 145.951H36.8464V104.179C36.8496 100.746 38.2156 97.455 40.6442 95.0287C43.0728 92.6024 46.3653 91.2395 49.7983 91.2395H56.6357C60.0665 91.2428 63.3559 92.6071 65.7819 95.033C68.2078 97.459 69.5723 100.748 69.5755 104.179V145.951ZM157.262 138.599C157.262 140.549 156.487 142.419 155.108 143.798C153.729 145.177 151.859 145.951 149.91 145.951H73.1657V104.179C73.1625 99.8092 71.4251 95.6191 68.335 92.529C65.245 89.4389 61.0548 87.7015 56.6848 87.6982H49.8474C45.4762 87.7015 41.2848 89.4385 38.1927 92.5282C35.1007 95.618 33.3605 99.8081 33.354 104.179V145.951H24.2007C22.2508 145.951 20.3807 145.177 19.0019 143.798C17.6231 142.419 16.8486 140.549 16.8486 138.599V81.6205C17.1873 81.6391 17.5268 81.6391 17.8655 81.6205C27.4233 81.6205 35.1798 74.8075 35.1798 66.4261V28.0481H69.7103V66.4139C69.7103 74.7953 77.4422 81.6082 87.0122 81.6082C96.5822 81.6082 104.326 74.7953 104.326 66.4139V28.0481H138.93V66.4139C138.93 74.7953 146.687 81.6082 156.232 81.6082C156.575 81.6266 156.919 81.6266 157.262 81.6082V138.599ZM166.562 72.6387C165.176 74.7648 163.157 76.4021 160.791 77.3195C159.717 77.7418 158.584 77.998 157.433 78.0792H157.262C156.968 78.0792 156.637 78.0792 156.232 78.0792C148.647 78.0792 142.459 72.847 142.459 66.4139V28.0481H156.514L167.064 58.5104L167.261 59.074L167.996 61.1816C168.65 63.068 168.856 65.0805 168.599 67.0604C168.342 69.0402 167.628 70.9332 166.513 72.5896L166.562 72.6387Z" fill="black"/>
<path d="M69.7103 28.0479V66.4136C69.7103 74.795 61.9415 81.608 52.3838 81.608C42.826 81.608 35.0818 74.795 35.0818 66.4136V28.0479H69.7103Z" fill="#39F4C4"/>
<path d="M138.93 28.0479V66.4136C138.93 74.795 131.186 81.608 121.616 81.608C112.046 81.608 104.326 74.795 104.326 66.4136V28.0479H138.93Z" fill="#39F4C4"/>
<path d="M137.105 87.6982H92.7593C90.7584 87.7015 88.8403 88.4978 87.4254 89.9126C86.0106 91.3275 85.2143 93.2455 85.2111 95.2464V123.233C85.2143 125.234 86.0106 127.152 87.4254 128.567C88.8403 129.982 90.7584 130.778 92.7593 130.782H137.105C139.106 130.778 141.024 129.982 142.439 128.567C143.853 127.152 144.65 125.234 144.653 123.233V95.2464C144.65 93.2455 143.853 91.3275 142.439 89.9126C141.024 88.4978 139.106 87.7015 137.105 87.6982ZM141.124 123.233C141.121 124.297 140.696 125.316 139.942 126.068C139.189 126.819 138.169 127.24 137.105 127.24H92.7593C91.6954 127.24 90.675 126.819 89.9216 126.068C89.1682 125.316 88.7433 124.297 88.7401 123.233V95.2464C88.7433 94.1826 89.1682 93.1635 89.9216 92.4124C90.675 91.6613 91.6954 91.2395 92.7593 91.2395H137.105C138.169 91.2395 139.189 91.6613 139.942 92.4124C140.696 93.1635 141.121 94.1826 141.124 95.2464V123.233Z" fill="black"/>
</g>
<defs>
<clipPath id="clip0_244_2156">
<rect width="174" height="174" fill="white"/>
</clipPath>
</defs>
</svg>
