<svg width="174" height="174" viewBox="0 0 174 174" fill="none" xmlns="http://www.w3.org/2000/svg">
<g clip-path="url(#clip0_244_2236)">
<path fill-rule="evenodd" clip-rule="evenodd" d="M35.2198 158.592L35.2182 158.608C35.1296 159.458 35.2206 160.318 35.4853 161.131C35.7501 161.944 36.1827 162.692 36.7551 163.327C37.3274 163.962 38.0268 164.47 38.808 164.818C39.5893 165.165 40.4348 165.345 41.2897 165.345H142.737C143.591 165.345 144.437 165.165 145.218 164.818C145.999 164.47 146.699 163.962 147.271 163.327C147.844 162.692 148.276 161.944 148.541 161.131C148.806 160.318 148.897 159.458 148.808 158.608L148.806 158.592L139.678 60.9313C139.521 59.4364 138.816 58.0522 137.7 57.045C136.581 56.035 135.127 55.4759 133.62 55.4756C133.62 55.4756 133.62 55.4756 133.62 55.4756H50.4205C48.9112 55.4778 47.4559 56.038 46.3347 57.0485C45.217 58.0557 44.51 59.4395 44.3484 60.935L35.2198 158.592ZM41.3632 60.6364C41.5992 58.3983 42.6545 56.3266 44.3263 54.8199C45.9981 53.3133 48.168 52.4783 50.4185 52.4756H133.62C135.87 52.4759 138.04 53.3104 139.71 54.8178C141.38 56.3251 142.433 58.3983 142.663 60.6364L151.792 158.297C151.924 159.565 151.788 160.847 151.393 162.06C150.999 163.272 150.353 164.388 149.5 165.336C148.646 166.283 147.603 167.04 146.438 167.559C145.273 168.077 144.012 168.345 142.737 168.345H41.2897C40.0145 168.345 38.7535 168.077 37.5884 167.559C36.4234 167.04 35.3802 166.283 34.5266 165.336C33.6729 164.388 33.0277 163.272 32.6328 162.06C32.2379 160.847 32.1022 159.565 32.2343 158.297L41.3632 60.6364Z" fill="black"/>
<path d="M118.291 72.4859C117.803 72.4859 117.336 72.2923 116.991 71.9476C116.646 71.6029 116.453 71.1354 116.453 70.6479V44.3641C116.526 41.1086 115.948 37.8713 114.752 34.8424C113.557 31.8134 111.768 29.0538 109.491 26.7256C107.215 24.3974 104.496 22.5476 101.494 21.2846C98.4931 20.0216 95.2695 19.371 92.0132 19.371C88.7569 19.371 85.5334 20.0216 82.532 21.2846C79.5305 22.5476 76.8117 24.3974 74.535 26.7256C72.2584 29.0538 70.4699 31.8134 69.2744 34.8424C68.079 37.8713 67.5006 41.1086 67.5735 44.3641V70.6479C67.5735 71.1354 67.3799 71.6029 67.0352 71.9476C66.6905 72.2923 66.223 72.4859 65.7355 72.4859C65.248 72.4859 64.7806 72.2923 64.4359 71.9476C64.0912 71.6029 63.8975 71.1354 63.8975 70.6479V44.3641C63.8194 40.6225 64.4889 36.9029 65.8668 33.4234C67.2446 29.9439 69.3031 26.7743 71.9217 24.1006C74.5402 21.4268 77.666 19.3026 81.1161 17.8524C84.5661 16.4023 88.2708 15.6553 92.0132 15.6553C95.7556 15.6553 99.4604 16.4023 102.91 17.8524C106.36 19.3026 109.486 21.4268 112.105 24.1006C114.723 26.7743 116.782 29.9439 118.16 33.4234C119.538 36.9029 120.207 40.6225 120.129 44.3641V70.6479C120.129 71.1354 119.935 71.6029 119.591 71.9476C119.246 72.2923 118.778 72.4859 118.291 72.4859Z" fill="black"/>
<path d="M132.71 158.345H31.2636C29.9884 158.345 28.7274 158.077 27.5623 157.559C26.3973 157.04 25.3541 156.283 24.5004 155.336C23.6467 154.388 23.0016 153.272 22.6067 152.06C22.2118 150.847 22.0761 149.565 22.2082 148.297L31.3371 50.6364C31.573 48.3983 32.6284 46.3266 34.3002 44.8199C35.9719 43.3133 38.1419 42.4783 40.3924 42.4756H123.594C125.844 42.4759 128.014 43.3104 129.684 44.8178C131.354 46.3251 132.406 48.3983 132.637 50.6364L141.766 148.297C141.898 149.565 141.762 150.847 141.367 152.06C140.972 153.272 140.327 154.388 139.474 155.336C138.62 156.283 137.577 157.04 136.412 157.559C135.247 158.077 133.986 158.345 132.71 158.345Z" fill="#39F4C4"/>
<path d="M108.265 62.4859C107.777 62.4859 107.31 62.2923 106.965 61.9476C106.62 61.6029 106.426 61.1354 106.426 60.6479V34.3641C106.499 31.1086 105.921 27.8713 104.726 24.8424C103.53 21.8134 101.742 19.0538 99.4651 16.7256C97.1884 14.3974 94.4696 12.5476 91.4681 11.2846C88.4667 10.0216 85.2432 9.37104 81.9868 9.37104C78.7305 9.37104 75.507 10.0216 72.5056 11.2846C69.5042 12.5476 66.7853 14.3974 64.5087 16.7256C62.232 19.0538 60.4435 21.8134 59.248 24.8424C58.0526 27.8713 57.4743 31.1086 57.5472 34.3641V60.6479C57.5472 61.1354 57.3535 61.6029 57.0088 61.9476C56.6641 62.2923 56.1966 62.4859 55.7091 62.4859C55.2217 62.4859 54.7542 62.2923 54.4095 61.9476C54.0648 61.6029 53.8711 61.1354 53.8711 60.6479V34.3641C53.793 30.6225 54.4625 26.9029 55.8404 23.4234C57.2183 19.9439 59.2768 16.7743 61.8953 14.1006C64.5138 11.4268 67.6397 9.30262 71.0897 7.85244C74.5397 6.40226 78.2444 5.65527 81.9868 5.65527C85.7292 5.65527 89.434 6.40226 92.884 7.85244C96.3341 9.30262 99.4599 11.4268 102.078 14.1006C104.697 16.7743 106.755 19.9439 108.133 23.4234C109.511 26.9029 110.181 30.6225 110.103 34.3641V60.6479C110.103 61.1354 109.909 61.6029 109.564 61.9476C109.22 62.2923 108.752 62.4859 108.265 62.4859Z" fill="black"/>
<path d="M62.9021 125.775C62.4156 125.771 61.9499 125.578 61.6033 125.236C61.262 124.89 61.0707 124.423 61.0707 123.937C61.0707 123.451 61.262 122.985 61.6033 122.639L99.7729 84.4688C99.9412 84.2882 100.144 84.1434 100.37 84.0429C100.595 83.9425 100.838 83.8884 101.085 83.8841C101.332 83.8797 101.577 83.9251 101.806 84.0176C102.035 84.11 102.243 84.2476 102.417 84.4221C102.592 84.5966 102.73 84.8046 102.822 85.0334C102.914 85.2623 102.96 85.5075 102.955 85.7543C102.951 86.0011 102.897 86.2445 102.797 86.4699C102.696 86.6954 102.551 86.8982 102.371 87.0665L64.201 125.236C64.0309 125.408 63.8285 125.543 63.6055 125.636C63.3826 125.728 63.1435 125.776 62.9021 125.775Z" fill="white"/>
<path d="M70.2296 102.248C68.4158 102.251 66.642 101.715 65.1329 100.709C63.6237 99.7025 62.447 98.2711 61.7518 96.5958C61.0565 94.9205 60.874 93.0766 61.2273 91.2975C61.5806 89.5184 62.4538 87.8841 63.7363 86.6015C65.0189 85.319 66.6532 84.4458 68.4323 84.0925C70.2114 83.7392 72.0553 83.9218 73.7306 84.6171C75.4059 85.3123 76.8372 86.489 77.8434 87.9982C78.8496 89.5073 79.3854 91.2811 79.383 93.0949C79.3765 95.5206 78.4101 97.845 76.6949 99.5602C74.9797 101.275 72.6553 102.242 70.2296 102.248ZM70.2296 87.6053C69.1434 87.6029 68.0808 87.9228 67.1764 88.5245C66.2721 89.1263 65.5665 89.9828 65.1492 90.9856C64.7318 91.9885 64.6213 93.0927 64.8318 94.1584C65.0422 95.224 65.5641 96.2033 66.3313 96.9722C67.0985 97.7412 68.0767 98.2652 69.1419 98.478C70.2071 98.6909 71.3115 98.5829 72.3153 98.1677C73.3191 97.7526 74.1772 97.0491 74.7809 96.146C75.3847 95.243 75.7069 94.1812 75.7069 93.0949C75.7037 91.6421 75.126 90.2495 74.0998 89.221C73.0737 88.1926 71.6824 87.6118 70.2296 87.6053Z" fill="white"/>
<path d="M93.7564 125.775C91.9431 125.778 90.1698 125.242 88.6609 124.236C87.1521 123.231 85.9753 121.8 85.2797 120.126C84.5841 118.451 84.4008 116.608 84.7531 114.829C85.1054 113.05 85.9774 111.416 87.2587 110.133C88.5401 108.85 90.1732 107.976 91.9515 107.621C93.7298 107.266 95.5734 107.447 97.2489 108.14C98.9244 108.834 100.357 110.009 101.364 111.516C102.372 113.024 102.91 114.796 102.91 116.61C102.91 119.038 101.946 121.368 100.23 123.086C98.5133 124.805 96.1852 125.772 93.7564 125.775ZM93.7564 111.071C92.6697 111.068 91.6066 111.389 90.702 111.991C89.7973 112.593 89.0918 113.45 88.6748 114.454C88.2578 115.458 88.148 116.562 88.3595 117.628C88.5709 118.694 89.094 119.674 89.8624 120.442C90.6309 121.211 91.6102 121.734 92.6762 121.945C93.7422 122.157 94.847 122.047 95.8506 121.63C96.8542 121.213 97.7114 120.507 98.3137 119.603C98.9159 118.698 99.2361 117.635 99.2337 116.548C99.2144 115.107 98.6293 113.732 97.6045 112.718C96.5797 111.705 95.1976 111.135 93.7564 111.132V111.071Z" fill="white"/>
</g>
<defs>
<clipPath id="clip0_244_2236">
<rect width="174" height="174" fill="white"/>
</clipPath>
</defs>
</svg>
