<svg width="174" height="174" viewBox="0 0 174 174" fill="none" xmlns="http://www.w3.org/2000/svg">
<g clip-path="url(#clip0_244_2250)">
<path d="M118.749 91.4966C119.18 92.8797 119.334 94.334 119.202 95.7766C119.071 97.2192 118.656 98.6218 117.983 99.9042C117.309 101.187 116.389 102.324 115.276 103.251C114.163 104.178 112.878 104.876 111.495 105.306L102.44 108.125C101.055 104.865 99.7804 101.397 98.6408 97.7582C97.5013 94.1189 96.5945 90.5408 95.8838 87.0731L104.939 84.2548C107.731 83.3844 110.754 83.6583 113.344 85.0163C115.933 86.3744 117.877 88.7053 118.749 91.4966Z" fill="#39F4C4"/>
<path d="M34.4446 117.756C35.5767 121.319 37.0372 124.769 38.807 128.062C39.0338 128.511 39.1482 129.009 39.1402 129.513C39.1322 130.016 39.0022 130.511 38.7612 130.953C38.5202 131.395 38.1754 131.772 37.7565 132.052C37.3376 132.332 36.8571 132.506 36.3563 132.559C29.9599 133.376 23.5963 134.458 17.2653 135.806L16.6281 135.953C13.6735 136.564 10.597 136.055 7.99711 134.524C5.39717 132.993 3.45964 130.55 2.5611 127.669C1.66258 124.788 1.87179 121.675 3.14775 118.939C4.42371 116.204 6.67458 114.043 9.45984 112.879C15.6356 110.29 21.697 107.484 27.644 104.461C28.0867 104.235 28.5772 104.119 29.0743 104.122C29.5714 104.125 30.0604 104.248 30.5001 104.48C30.9398 104.712 31.3172 105.046 31.6007 105.454C31.8841 105.863 32.0654 106.333 32.1289 106.826C32.5677 110.532 33.3427 114.191 34.4446 117.756Z" fill="#39F4C4"/>
<path d="M122.033 134.519L111.765 133.036C90.2088 129.872 68.3502 129.316 46.6616 131.382C46.0924 131.443 45.5173 131.343 45.0019 131.094C44.4864 130.845 44.0511 130.457 43.7452 129.973C41.1804 125.833 39.1466 121.387 37.6919 116.739C36.2464 112.095 35.3983 107.285 35.1678 102.427C35.1436 101.855 35.2799 101.288 35.5615 100.79C35.843 100.292 36.2584 99.8828 36.7606 99.6086C55.9653 88.9089 73.7984 75.9148 89.8675 60.912L97.0113 54.2461C93.519 60.9488 93.0411 73.1533 95.8839 87.0733C96.5946 90.541 97.5136 94.1191 98.6409 97.7584C99.7294 101.272 100.997 104.728 102.44 108.113C108.003 121.212 115.33 131.002 122.033 134.519Z" fill="#39F4C4"/>
<path d="M104.804 48.7569V52.3594C111.531 52.3594 123.038 65.9976 129.887 88.0294C133.355 99.1556 134.887 110.086 134.188 118.847C133.6 126.199 131.431 131.223 128.392 132.179C127.994 132.294 127.582 132.352 127.167 132.35C125.946 132.294 124.757 131.945 123.699 131.333C117.756 128.196 110.87 118.761 105.748 106.716C104.355 103.435 103.128 100.085 102.072 96.6804C101.005 93.2851 100.114 89.8373 99.4005 86.3507C96.7782 73.5335 97.0846 61.8436 100.185 55.9129C100.5 55.1533 100.962 54.4634 101.544 53.883C102.127 53.3026 102.818 52.8431 103.579 52.5309C103.977 52.4133 104.39 52.3555 104.804 52.3594V48.7569ZM104.804 48.7569C104.033 48.7551 103.265 48.8666 102.525 49.0877C101.308 49.5349 100.192 50.2219 99.2451 51.108C98.2979 51.9941 97.5383 53.0614 97.0111 54.2464C93.5188 60.9491 93.0409 73.1536 95.8837 87.0736C96.5944 90.5414 97.5134 94.1194 98.6408 97.7587C99.7681 101.398 101.092 104.866 102.439 108.125C108.003 121.212 115.33 130.99 122.045 134.532C123.62 135.418 125.385 135.91 127.192 135.965C127.968 135.963 128.74 135.847 129.483 135.622C139.053 132.632 140.793 110.858 133.343 86.9511C126.481 64.8947 114.191 48.7569 104.817 48.7569H104.804Z" fill="black"/>
<path d="M113.174 70.7031C112.712 70.6946 112.272 70.5054 111.948 70.1762C111.779 70.0097 111.645 69.8114 111.554 69.5926C111.462 69.3738 111.415 69.139 111.415 68.9018C111.415 68.6647 111.462 68.4299 111.554 68.2111C111.645 67.9923 111.779 67.7939 111.948 67.6275L141.259 38.3048C141.604 37.9948 142.055 37.829 142.519 37.8415C142.983 37.854 143.424 38.0438 143.752 38.372C144.081 38.7001 144.271 39.1416 144.283 39.6055C144.296 40.0694 144.13 40.5204 143.82 40.8658L114.497 70.1762C114.324 70.3494 114.117 70.4854 113.89 70.576C113.662 70.6666 113.418 70.7099 113.174 70.7031Z" fill="black"/>
<path d="M170.177 114.717H123.748C123.261 114.717 122.793 114.523 122.449 114.179C122.104 113.834 121.91 113.367 121.91 112.879C121.91 112.392 122.104 111.924 122.449 111.579C122.793 111.235 123.261 111.041 123.748 111.041H170.177C170.664 111.041 171.132 111.235 171.476 111.579C171.821 111.924 172.015 112.392 172.015 112.879C172.015 113.367 171.821 113.834 171.476 114.179C171.132 114.523 170.664 114.717 170.177 114.717Z" fill="black"/>
<path d="M123.748 91.9506C123.325 91.9516 122.915 91.8034 122.59 91.532C122.265 91.2607 122.045 90.8834 121.971 90.4666C121.896 90.0498 121.971 89.62 122.182 89.2528C122.392 88.8855 122.726 88.6042 123.123 88.4583L166.378 72.394C166.825 72.2272 167.32 72.2445 167.754 72.442C168.188 72.6396 168.526 73.0013 168.694 73.4478C168.857 73.8981 168.837 74.3946 168.638 74.8301C168.438 75.2656 168.076 75.6053 167.628 75.7759L124.373 91.8403C124.173 91.9125 123.961 91.9498 123.748 91.9506Z" fill="black"/>
</g>
<defs>
<clipPath id="clip0_244_2250">
<rect width="174" height="174" fill="white"/>
</clipPath>
</defs>
</svg>
