<svg width="174" height="174" viewBox="0 0 174 174" fill="none" xmlns="http://www.w3.org/2000/svg">
<g clip-path="url(#clip0_244_2436)">
<path d="M145.939 50.84L90.0879 77.6262C89.0689 78.1161 87.9529 78.3705 86.8223 78.3705C85.6917 78.3705 84.5756 78.1161 83.5567 77.6262L27.6684 50.84C26.3816 50.2263 25.2949 49.2607 24.5341 48.055C23.7734 46.8492 23.3696 45.4528 23.3696 44.0271C23.3696 42.6014 23.7734 41.2049 24.5341 39.9991C25.2949 38.7934 26.3816 37.8279 27.6684 37.2141L83.5567 10.4157C84.5756 9.92578 85.6917 9.67139 86.8223 9.67139C87.9529 9.67139 89.0689 9.92578 90.0879 10.4157L145.939 37.1896C147.229 37.8041 148.318 38.7712 149.08 39.9792C149.843 41.1871 150.248 42.5864 150.248 44.0148C150.248 45.4433 149.843 46.8425 149.08 48.0504C148.318 49.2583 147.229 50.2256 145.939 50.84Z" fill="#39F4C4"/>
<path d="M149.848 60.1282C150.686 60.1314 151.488 60.4656 152.08 61.0578C152.672 61.6499 153.007 62.4522 153.01 63.2896V132.228C153.009 132.822 152.84 133.404 152.524 133.907C152.208 134.409 151.756 134.813 151.221 135.071L98.5306 160.325C98.1044 160.538 97.6343 160.647 97.1582 160.644C96.3198 160.644 95.5156 160.311 94.9228 159.718C94.3299 159.125 93.9968 158.321 93.9968 157.482V88.5441C94.0003 87.9491 94.1711 87.367 94.4896 86.8644C94.8081 86.3617 95.2615 85.9587 95.7981 85.7014L148.488 60.4468C148.915 60.2359 149.385 60.1268 149.861 60.1282M149.861 56.4522C148.838 56.4511 147.828 56.6816 146.908 57.1262L94.2174 82.3806C93.0604 82.9347 92.0826 83.803 91.3957 84.8864C90.7088 85.9698 90.3405 87.2246 90.333 88.5074V157.446C90.3388 158.6 90.6365 159.733 91.1984 160.741C91.7602 161.749 92.568 162.598 93.5465 163.21C94.525 163.821 95.6424 164.175 96.7945 164.239C97.9467 164.302 99.0961 164.073 100.136 163.572L152.826 138.318C153.983 137.764 154.961 136.896 155.648 135.812C156.335 134.729 156.703 133.474 156.71 132.191V63.2896C156.71 61.4762 155.99 59.7371 154.708 58.4549C153.425 57.1726 151.686 56.4522 149.873 56.4522H149.861Z" fill="black"/>
<path d="M24.0904 60.6918C24.5492 60.691 25.002 60.7958 25.4138 60.9981L77.528 85.9831C78.0533 86.2335 78.4968 86.6277 78.807 87.1201C79.1171 87.6125 79.2813 88.1827 79.2803 88.7647V156.992C79.2803 157.811 78.9549 158.597 78.3758 159.176C77.7968 159.755 77.0113 160.08 76.1924 160.08C75.7299 160.064 75.2773 159.942 74.869 159.725L22.767 134.74C22.2417 134.489 21.7983 134.095 21.4881 133.603C21.1779 133.11 21.0138 132.54 21.0148 131.958V63.7797C21.0148 62.9608 21.3401 62.1753 21.9192 61.5962C22.4983 61.0171 23.2837 60.6918 24.1027 60.6918M24.1027 57.0157C23.2093 57.0077 22.3231 57.1766 21.4954 57.5129C20.6677 57.8492 19.9148 58.3462 19.2802 58.9751C18.6456 59.604 18.1419 60.3524 17.7981 61.177C17.4544 62.0017 17.2774 62.8863 17.2774 63.7797V132.007C17.2704 133.287 17.6271 134.542 18.3062 135.627C18.9852 136.712 19.9586 137.581 21.1128 138.134L73.2148 163.107C74.2478 163.607 75.3912 163.835 76.537 163.77C77.6828 163.705 78.7933 163.35 79.7633 162.736C80.7334 162.123 81.5312 161.273 82.0813 160.266C82.6314 159.258 82.9157 158.128 82.9073 156.98V88.7647C82.9129 87.4852 82.5555 86.2304 81.8767 85.146C81.1978 84.0615 80.2252 83.1918 79.0719 82.6379L26.9577 57.6652C26.0497 57.2212 25.0522 56.9906 24.0414 56.9912L24.1027 57.0157Z" fill="black"/>
<path d="M138.33 99.6823C138.328 100.755 138.007 101.804 137.409 102.695C136.811 103.586 135.963 104.28 134.971 104.689C133.978 105.098 132.887 105.203 131.835 104.993C130.783 104.782 129.817 104.264 129.059 103.504C128.301 102.744 127.785 101.777 127.577 100.725C127.368 99.6719 127.477 98.5811 127.888 97.5899C128.299 96.5987 128.995 95.7516 129.887 95.1557C130.78 94.5598 131.829 94.2417 132.902 94.2417C133.616 94.2401 134.324 94.3798 134.984 94.6528C135.644 94.9257 136.244 95.3266 136.748 95.8323C137.253 96.338 137.652 96.9386 137.924 97.5993C138.195 98.2601 138.333 98.9679 138.33 99.6823Z" fill="black"/>
<path d="M53.8297 109.485C53.8273 110.559 53.5066 111.607 52.9081 112.499C52.3096 113.39 51.4603 114.084 50.4675 114.493C49.4746 114.901 48.3829 115.006 47.3304 114.794C46.2779 114.582 45.3119 114.063 44.5544 113.302C43.797 112.542 43.2821 111.573 43.0751 110.52C42.868 109.466 42.978 108.375 43.3911 107.384C43.8042 106.393 44.5018 105.547 45.3958 104.952C46.2899 104.358 47.3401 104.042 48.4137 104.044C49.127 104.044 49.8333 104.185 50.492 104.459C51.1507 104.733 51.7489 105.134 52.2521 105.639C52.7554 106.145 53.1538 106.745 53.4245 107.405C53.6953 108.065 53.833 108.772 53.8297 109.485Z" fill="black"/>
<path d="M124.778 123.798C124.775 124.871 124.455 125.919 123.857 126.81C123.259 127.701 122.41 128.395 121.418 128.804C120.426 129.213 119.335 129.319 118.283 129.108C117.23 128.897 116.264 128.379 115.506 127.619C114.749 126.86 114.233 125.892 114.024 124.84C113.816 123.787 113.924 122.696 114.335 121.705C114.746 120.714 115.442 119.867 116.335 119.271C117.227 118.675 118.276 118.357 119.349 118.357C120.063 118.357 120.77 118.498 121.429 118.771C122.089 119.045 122.688 119.446 123.192 119.951C123.696 120.457 124.096 121.056 124.368 121.716C124.64 122.376 124.779 123.084 124.778 123.798Z" fill="black"/>
</g>
<defs>
<clipPath id="clip0_244_2436">
<rect width="174" height="174" fill="white"/>
</clipPath>
</defs>
</svg>
