<svg width="174" height="174" viewBox="0 0 174 174" fill="none" xmlns="http://www.w3.org/2000/svg">
<g clip-path="url(#clip0_244_2412)">
<path d="M105.062 58.5352V115.232L108.738 117.548V58.5352H105.062ZM22.1421 146.662V147.03H23.7841L22.1421 146.662Z" fill="black"/>
<path d="M108.738 58.5351V27.4111C108.731 23.3151 107.101 19.3887 104.205 16.4923C101.309 13.596 97.3821 11.966 93.286 11.9595H32.1165C29.4721 11.9627 26.937 13.0146 25.0671 14.8845C23.1973 16.7543 22.1453 19.2894 22.1421 21.9338V146.662L23.7841 147.03L92.9797 162.506V147.03H108.738V117.548L105.062 115.232V143.354H92.9797V39.199C92.9682 35.7949 91.8383 32.4889 89.7637 29.7899C87.6891 27.0909 84.7848 25.1486 81.4982 24.262L41.2821 15.6845H93.286C96.4071 15.691 99.3986 16.9337 101.606 19.1407C103.813 21.3476 105.055 24.339 105.062 27.4601V58.5841L108.738 58.5351ZM80.6282 27.9013C83.1177 28.5849 85.3143 30.0661 86.8814 32.1179C88.4484 34.1696 89.2993 36.6786 89.3036 39.2603V157.985L40.6082 147.091L25.8181 143.783V23.8699C25.8227 22.933 26.0363 22.009 26.4432 21.1652C26.8501 20.3213 27.4402 19.5789 28.1704 18.9919C28.9005 18.405 29.7525 17.9883 30.6641 17.7723C31.5757 17.5562 32.5239 17.5462 33.4399 17.7431L80.6282 27.9013Z" fill="black"/>
<path d="M148.292 68.4357L131.64 78.9247C131.081 79.2864 130.435 79.4896 129.77 79.5127C129.104 79.5358 128.446 79.3779 127.863 79.0559C127.281 78.7339 126.797 78.2598 126.463 77.6842C126.129 77.1087 125.957 76.4532 125.966 75.7878C125.966 74.8129 125.579 73.8779 124.889 73.1885C124.2 72.4991 123.265 72.1117 122.29 72.1117H101.153C100.178 72.1117 99.2429 71.7245 98.5535 71.0351C97.8641 70.3457 97.4768 69.4106 97.4768 68.4357V62.3089C97.4768 61.334 97.8641 60.399 98.5535 59.7096C99.2429 59.0202 100.178 58.6329 101.153 58.6329H122.253C123.228 58.6329 124.163 58.2456 124.853 57.5562C125.542 56.8668 125.929 55.9318 125.929 54.9568C125.929 53.9819 126.317 53.0469 127.006 52.3575C127.696 51.6681 128.631 51.2808 129.606 51.2808C130.3 51.2836 130.98 51.4833 131.566 51.8567L148.219 62.3212C148.726 62.6509 149.144 63.1007 149.435 63.6305C149.727 64.1604 149.883 64.754 149.89 65.3588C149.898 65.9636 149.756 66.5608 149.477 67.0976C149.198 67.6343 148.791 68.0939 148.292 68.4357Z" fill="#39F4C4"/>
<path d="M150.02 105.294V111.421C150.02 112.396 149.633 113.331 148.943 114.021C148.254 114.71 147.319 115.097 146.344 115.097H125.219C124.244 115.097 123.309 115.485 122.62 116.174C121.93 116.863 121.543 117.798 121.543 118.773C121.543 119.748 121.155 120.683 120.466 121.373C119.777 122.062 118.842 122.449 117.867 122.449C117.172 122.447 116.492 122.247 115.906 121.873L108.738 117.548L105.062 115.232L99.1801 111.556C98.6427 111.228 98.1987 110.767 97.8906 110.217C97.5825 109.668 97.4207 109.049 97.4207 108.419C97.4207 107.789 97.5825 107.17 97.8906 106.621C98.1987 106.071 98.6427 105.611 99.1801 105.282L105.062 101.606L108.738 99.2902L115.833 94.83C116.391 94.4683 117.038 94.2651 117.703 94.242C118.368 94.2189 119.027 94.3768 119.609 94.6988C120.191 95.0208 120.676 95.4949 121.01 96.0704C121.344 96.646 121.515 97.3014 121.506 97.9669C121.506 98.9418 121.893 99.8768 122.583 100.566C123.272 101.256 124.207 101.643 125.182 101.643H146.283C146.768 101.635 147.251 101.723 147.703 101.903C148.154 102.082 148.566 102.35 148.913 102.689C149.261 103.029 149.537 103.434 149.727 103.881C149.917 104.328 150.017 104.809 150.02 105.294Z" fill="#39F4C4"/>
</g>
<defs>
<clipPath id="clip0_244_2412">
<rect width="174" height="174" fill="white"/>
</clipPath>
</defs>
</svg>
