<svg width="174" height="174" viewBox="0 0 174 174" fill="none" xmlns="http://www.w3.org/2000/svg">
<g clip-path="url(#clip0_244_2146)">
<path d="M149.824 80.2609C149.824 80.7484 149.63 81.2159 149.285 81.5606C148.941 81.9053 148.473 82.0989 147.986 82.0989H100.859C100.371 82.0989 99.9038 81.9053 99.5591 81.5606C99.2144 81.2159 99.0208 80.7484 99.0208 80.2609C99.0208 79.7734 99.2144 79.3059 99.5591 78.9612C99.9038 78.6165 100.371 78.4229 100.859 78.4229H147.986C148.473 78.4229 148.941 78.6165 149.285 78.9612C149.63 79.3059 149.824 79.7734 149.824 80.2609Z" fill="black"/>
<path d="M133.22 94.5119C133.22 94.9993 133.027 95.4668 132.682 95.8115C132.337 96.1562 131.87 96.3499 131.382 96.3499H98.2977C97.8103 96.3499 97.3427 96.1562 96.9981 95.8115C96.6534 95.4668 96.4597 94.9993 96.4597 94.5119C96.4597 94.0244 96.6534 93.5569 96.9981 93.2122C97.3427 92.8675 97.8103 92.6738 98.2977 92.6738H131.382C131.87 92.6738 132.337 92.8675 132.682 93.2122C133.027 93.5569 133.22 94.0244 133.22 94.5119Z" fill="black"/>
<path d="M138.293 108.823C138.293 109.311 138.1 109.778 137.755 110.123C137.41 110.468 136.943 110.661 136.455 110.661H95.8225C95.335 110.661 94.8675 110.468 94.5228 110.123C94.1781 109.778 93.9845 109.311 93.9845 108.823C93.9845 108.336 94.1781 107.868 94.5228 107.524C94.8675 107.179 95.335 106.985 95.8225 106.985H136.455C136.943 106.985 137.41 107.179 137.755 107.524C138.1 107.868 138.293 108.336 138.293 108.823Z" fill="black"/>
<path d="M68.6687 82.7356C68.676 85.5823 67.8385 88.3673 66.2622 90.7378C64.6859 93.1083 62.4417 94.9579 59.8138 96.0523C57.1858 97.1468 54.2921 97.4369 51.4992 96.886C48.7062 96.3351 46.1395 94.9679 44.124 92.9575C42.1084 90.9471 40.7346 88.3839 40.1766 85.5924C39.6185 82.8009 39.9013 79.9065 40.989 77.2757C42.0767 74.6449 43.9205 72.3961 46.287 70.8137C48.6535 69.2314 51.4363 68.3867 54.2831 68.3867C58.092 68.3867 61.7455 69.8973 64.4423 72.5872C67.139 75.277 68.659 78.9266 68.6687 82.7356Z" fill="#39F4C4"/>
<path d="M71.6219 120.685H36.9567C34.7265 120.685 33.2806 118.075 34.0771 115.71L40.8778 97.1338C44.53 100.501 49.3156 102.37 54.2832 102.37C59.2507 102.37 64.0363 100.501 67.6885 97.1338L74.4892 115.722C75.3592 118.075 73.8521 120.685 71.6219 120.685Z" fill="#39F4C4"/>
<path d="M160.448 47.2982H105.76L108.211 38.1448C108.446 37.4683 108.513 36.7448 108.406 36.0368C108.299 35.3287 108.021 34.6573 107.596 34.0807C107.171 33.504 106.613 33.0394 105.968 32.727C105.324 32.4146 104.613 32.2638 103.898 32.2876H92.0362C90.4473 32.3427 88.9303 32.9629 87.7578 34.0365C86.5854 35.1102 85.8344 36.5669 85.6399 38.1448L84.8556 47.2982H30.2049C26.8765 47.4158 23.6854 48.6534 21.148 50.8106C18.6106 52.9677 16.8755 55.9181 16.2236 59.184L3.81082 129.838C2.65899 136.406 7.04575 141.724 13.6136 141.724H143.795C147.125 141.607 150.318 140.369 152.857 138.212C155.397 136.055 157.134 133.105 157.789 129.838L170.238 59.184C171.402 52.6284 167.015 47.2982 160.448 47.2982ZM89.3772 38.4633C89.5032 37.8128 89.8383 37.2213 90.3316 36.7789C90.8249 36.3364 91.4493 36.0673 92.1097 36.0126H103.922C104.049 35.9996 104.178 36.0148 104.299 36.0572C104.419 36.0996 104.529 36.168 104.621 36.2577C104.69 36.414 104.726 36.5831 104.726 36.754C104.726 36.9249 104.69 37.094 104.621 37.2503L101.925 47.3471L100.945 51.0232L100.258 53.6087C100.082 54.1929 99.7338 54.7107 99.2598 55.0951C98.7858 55.4796 98.2073 55.713 97.5992 55.7653H88.74C88.4974 55.7808 88.2576 55.7066 88.066 55.557C87.9972 55.4581 87.9487 55.3465 87.9234 55.2287C87.8982 55.1109 87.8967 54.9892 87.919 54.8708L88.2498 51.0232L88.5561 47.3471L89.3772 38.4633ZM166.623 58.5836L154.162 129.201C153.655 131.614 152.363 133.791 150.487 135.392C148.611 136.993 146.258 137.927 143.795 138.048H13.6136C12.6929 138.08 11.7765 137.909 10.9294 137.546C10.0822 137.184 9.32525 136.64 8.71223 135.952C8.11446 135.187 7.6944 134.299 7.48246 133.352C7.27052 132.404 7.27202 131.422 7.48687 130.475L19.8384 59.809C20.3445 57.3943 21.6361 55.2153 23.5117 53.6125C25.3872 52.0096 27.7409 51.0733 30.2049 50.9497H84.586L84.2797 54.4787C84.199 55.106 84.2562 55.7433 84.4471 56.3463C84.6379 56.9493 84.958 57.5033 85.3849 57.9699C85.8119 58.4366 86.3354 58.8045 86.9191 59.048C87.5027 59.2916 88.1325 59.4049 88.7645 59.3801H97.6238C99.0454 59.3281 100.414 58.8252 101.531 57.944C102.647 57.0629 103.455 55.8492 103.836 54.4787L104.78 50.9497H160.448C161.369 50.9183 162.287 51.091 163.134 51.4553C163.981 51.8197 164.738 52.3667 165.349 53.0573C165.959 53.8256 166.39 54.7204 166.611 55.6764C166.831 56.6325 166.836 57.6257 166.623 58.5836Z" fill="black"/>
</g>
<defs>
<clipPath id="clip0_244_2146">
<rect width="174" height="174" fill="white"/>
</clipPath>
</defs>
</svg>
