<svg width="174" height="174" viewBox="0 0 174 174" fill="none" xmlns="http://www.w3.org/2000/svg">
<g clip-path="url(#clip0_244_2297)">
<path d="M147.648 41.0738C149.611 41.0125 151.562 41.4205 153.361 42.2682C155.159 43.1158 156.76 44.3821 158.046 45.9753C159.317 47.6856 160.22 49.6767 160.69 51.8058C161.16 53.935 161.184 56.1493 160.763 58.29L152.955 105.809C151.289 115.967 142.237 124.189 132.786 124.189H13.073C13.1328 124.053 13.214 123.929 13.3128 123.822L13.4269 123.712L13.6209 123.528L14.7623 122.462C18.9285 118.381 24.1221 113.308 25.1494 107.022L32.9568 59.5031C34.6233 49.3327 43.6749 41.1228 53.1259 41.1228H147.705M147.705 37.4468H53.1259C42.0654 37.4468 31.53 47.0658 29.5782 58.9272L21.7821 106.446C20.869 112.009 15.2075 117.07 11.3608 120.893C11.2235 121.006 11.0938 121.129 10.9728 121.261C10.3071 121.961 9.85702 122.863 9.68298 123.846C9.57604 124.344 9.57706 124.861 9.6859 125.358C9.79475 125.855 10.0086 126.319 10.3108 126.713C10.6131 127.108 10.9956 127.422 11.429 127.633C11.8624 127.843 12.3351 127.944 12.8105 127.927H132.843C143.892 127.927 154.439 118.308 156.38 106.446L164.187 58.9272C166.139 47.0658 158.754 37.4468 147.705 37.4468Z" fill="black"/>
<path d="M102.476 51.0848L110.919 114.999C111.249 117.562 110.573 120.154 109.032 122.229L99.4252 135.119C99.0936 135.568 98.6614 135.932 98.1635 136.183C97.6655 136.435 97.1156 136.566 96.5579 136.566C96.0002 136.566 95.4501 136.435 94.9521 136.183C94.4542 135.932 94.022 135.568 93.6904 135.119L84.0837 122.229C82.5402 120.155 81.8674 117.561 82.2089 114.999L90.6639 51.0358C90.8018 50.003 90.6988 48.9522 90.3629 47.9658C90.027 46.9795 89.4674 46.0842 88.7279 45.3502L80.6528 37.3608H112.512L104.437 45.4237C103.696 46.1522 103.133 47.0423 102.793 48.0244C102.453 49.0065 102.344 50.0539 102.476 51.0848Z" fill="#39F4C4"/>
<path d="M139.558 69.4653C139.071 69.4653 138.603 69.2717 138.258 68.927C137.914 68.5823 137.72 68.1147 137.72 67.6273V58.0573C137.72 57.5698 137.914 57.1023 138.258 56.7576C138.603 56.4129 139.071 56.2192 139.558 56.2192C140.045 56.2192 140.513 56.4129 140.858 56.7576C141.202 57.1023 141.396 57.5698 141.396 58.0573V67.6273C141.396 68.1147 141.202 68.5823 140.858 68.927C140.513 69.2717 140.045 69.4653 139.558 69.4653Z" fill="#39F4C4"/>
<path d="M146.784 69.4651H121.451C121.027 69.4651 120.62 69.2715 120.32 68.9268C120.021 68.5821 119.852 68.1146 119.852 67.6271C119.852 67.1396 120.021 66.6721 120.32 66.3274C120.62 65.9827 121.027 65.7891 121.451 65.7891H146.784C147.208 65.7891 147.615 65.9827 147.915 66.3274C148.215 66.6721 148.383 67.1396 148.383 67.6271C148.383 68.1146 148.215 68.5821 147.915 68.9268C147.615 69.2715 147.208 69.4651 146.784 69.4651Z" fill="black"/>
<path d="M71.7133 69.4651H46.3817C45.9575 69.4651 45.5508 69.2715 45.2509 68.9268C44.9509 68.5821 44.7825 68.1146 44.7825 67.6271C44.7825 67.1396 44.9509 66.6721 45.2509 66.3274C45.5508 65.9827 45.9575 65.7891 46.3817 65.7891H71.7133C72.1374 65.7891 72.5442 65.9827 72.8441 66.3274C73.144 66.6721 73.3125 67.1396 73.3125 67.6271C73.3125 68.1146 73.144 68.5821 72.8441 68.9268C72.5442 69.2715 72.1374 69.4651 71.7133 69.4651Z" fill="black"/>
</g>
<defs>
<clipPath id="clip0_244_2297">
<rect width="174" height="174" fill="white"/>
</clipPath>
</defs>
</svg>
