<svg width="50" height="30" viewBox="0 0 50 30" fill="none" xmlns="http://www.w3.org/2000/svg">
<path d="M25 29.197C38.5036 29.197 49.1918 16.3191 49.6089 15.7456C50.1304 15.0677 50.1304 14.1294 49.6089 13.4514C49.1917 12.8779 38.5036 0 25 0C11.4964 0 0.808242 12.8779 0.391142 13.4514C-0.130381 14.1293 -0.130381 15.0676 0.391142 15.7456C0.808288 16.3191 11.4964 29.197 25 29.197V29.197ZM25 3.64971C34.5933 3.64971 42.9353 11.5747 45.7507 14.5986C42.9355 17.6225 34.5933 25.5474 25 25.5474C15.4067 25.5474 7.06473 17.6224 4.24931 14.5986C7.06454 11.5746 15.4067 3.64971 25 3.64971V3.64971Z" fill="url(#paint0_linear_830_4797)"/>
<path d="M24.9988 24.7652C30.6297 24.7652 35.1656 20.2294 35.1656 14.5984C35.1656 8.9675 30.6298 4.43164 24.9988 4.43164C19.3679 4.43164 14.832 8.9675 14.832 14.5984C14.832 20.2294 19.3679 24.7652 24.9988 24.7652ZM24.9988 8.08126C28.5964 8.08126 31.516 11.0009 31.516 14.5984C31.516 18.196 28.5964 21.1156 24.9988 21.1156C21.4013 21.1156 18.4816 18.196 18.4816 14.5984C18.4816 11.0009 21.4013 8.08126 24.9988 8.08126Z" fill="url(#paint1_linear_830_4797)"/>
<defs>
<linearGradient id="paint0_linear_830_4797" x1="25" y1="-6.08967" x2="24.906" y2="31.1193" gradientUnits="userSpaceOnUse">
<stop stop-color="#F90087"/>
<stop offset="1" stop-color="#753A9D"/>
</linearGradient>
<linearGradient id="paint1_linear_830_4797" x1="24.9988" y1="0.190634" x2="24.8868" y2="26.1036" gradientUnits="userSpaceOnUse">
<stop stop-color="#F90087"/>
<stop offset="1" stop-color="#753A9D"/>
</linearGradient>
</defs>
</svg>
