<svg width="51" height="52" viewBox="0 0 51 52" fill="none" xmlns="http://www.w3.org/2000/svg">
<path d="M8.59356 32.1368L20.0111 40.3735C20.3678 40.6303 20.7789 40.7551 21.1859 40.7551C21.813 40.7551 22.4308 40.4613 22.8296 39.9077L41.8811 13.472C42.5475 12.548 42.3525 11.2482 41.4457 10.5689C40.5405 9.89041 39.2642 10.0888 38.5979 11.0128L20.7306 35.8041L10.9472 28.7459C10.029 28.0844 8.75826 28.3055 8.10769 29.2416C7.45793 30.1777 7.67481 31.4739 8.59392 32.1364L8.59356 32.1368ZM47.9694 0.955078H2.49416C1.36909 0.955078 0.457031 1.88493 0.457031 3.03184V49.3918C0.457031 50.5388 1.36913 51.4686 2.49416 51.4686H47.9694C49.0944 51.4686 50.0065 50.5388 50.0065 49.3918L50.0069 3.03184C50.006 1.88488 49.0939 0.955078 47.9689 0.955078H47.9694ZM45.9322 47.3151H4.53151V5.10883H45.9322V47.3151Z" fill="url(#paint0_linear_803_1125)"/>
<defs>
<linearGradient id="paint0_linear_803_1125" x1="25.4544" y1="-13.4104" x2="25.4544" y2="44.0792" gradientUnits="userSpaceOnUse">
<stop stop-color="#F90087"/>
<stop offset="1" stop-color="#CE00BD"/>
</linearGradient>
</defs>
</svg>
