<svg width="252" height="107" viewBox="0 0 252 107" fill="none" xmlns="http://www.w3.org/2000/svg">
<path d="M252 98.208C252 102.626 248.418 106.208 244 106.208C239.582 106.208 236 102.626 236 98.208C236 93.7897 239.582 90.208 244 90.208C248.418 90.208 252 93.7897 252 98.208ZM113 98.208V99.708H112.445L112.024 99.3469L113 98.208ZM16 8.20801C16 12.6263 12.4183 16.208 8 16.208C3.58173 16.208 0 12.6263 0 8.20801C0 3.78973 3.58173 0.208008 8 0.208008C12.4183 0.208008 16 3.78973 16 8.20801ZM244 99.708H113V96.708H244V99.708ZM112.024 99.3469L7.02382 9.34689L8.97618 7.06912L113.976 97.0691L112.024 99.3469Z" fill="#F5E8DE"/>
</svg>
