<svg width="74" height="61" viewBox="0 0 74 61" fill="none" xmlns="http://www.w3.org/2000/svg">
<path d="M73.1057 29.6862C73.1057 24.2745 69.4857 19.5107 64.2088 17.8754C64.2428 17.5353 64.2543 17.1947 64.2543 16.8546C64.2543 10.8502 59.8965 5.77911 53.8366 4.67031C51.9636 2.23407 49.0134 0.795898 45.8698 0.795898C41.8187 0.795898 38.3344 3.15581 36.7796 6.52543C35.2363 3.15581 31.7526 0.795898 27.6895 0.795898C24.5459 0.795898 21.5957 2.23355 19.7232 4.6597C13.6633 5.76841 9.30552 10.8396 9.30552 16.844C9.30552 17.1952 9.31701 17.5353 9.35097 17.8648C4.0967 19.5112 0.476562 24.2639 0.476562 29.6862C0.476562 35.1196 4.10807 39.8834 9.39631 41.5081C9.35086 41.9472 9.32839 42.3753 9.32839 42.8144C9.32839 48.3576 13.1073 53.1982 18.5658 54.735C20.1091 58.2475 23.7291 60.5747 27.7014 60.5747C31.7525 60.5747 35.2367 58.2148 36.7915 54.8452C38.3349 58.2148 41.8186 60.5747 45.8817 60.5747C49.8533 60.5747 53.4734 58.2477 55.0173 54.735C60.4758 53.1982 64.2547 48.3576 64.2547 42.8144C64.2547 42.3753 64.2322 41.9362 64.1868 41.5081C69.4739 39.8728 73.1056 35.109 73.1056 29.6862H73.1057ZM27.7012 58.9722C24.2739 58.9722 21.1648 56.8867 19.9616 53.7804C19.8707 53.5388 19.6554 53.3523 19.3827 53.2866C14.4351 52.0683 10.9849 47.7653 10.9849 42.815C10.9849 42.2223 11.0303 41.6406 11.1322 41.059C11.2001 40.6527 10.9394 40.2576 10.5194 40.1479C5.58275 38.9184 2.133 34.6159 2.133 29.6874C2.133 24.7699 5.56028 20.4671 10.4739 19.2376C10.8824 19.139 11.1546 18.7438 11.0867 18.3375C11.0188 17.8656 10.9733 17.3607 10.9733 16.8448C10.9733 11.5211 14.911 7.03166 20.3357 6.18664C20.5624 6.15379 20.7557 6.03302 20.8806 5.84655C22.4354 3.68418 24.9771 2.40009 27.6897 2.40009C32.1154 2.40009 35.7244 5.7697 35.9397 9.99586C35.9282 10.1277 35.9173 10.2591 35.9173 10.4021V17.0651H30.2204L27.372 12.9926C27.9624 12.4327 28.3255 11.6645 28.3255 10.808C28.3255 9.12879 26.9071 7.75673 25.1709 7.75673C23.4349 7.75673 22.0163 9.12866 22.0163 10.808C22.0163 12.4983 23.4347 13.8703 25.1709 13.8703C25.4321 13.8703 25.6704 13.8375 25.9086 13.7718L29.0862 18.3163C29.245 18.5356 29.4947 18.6675 29.7784 18.6675H35.9177V23.4642L23.4797 23.4627L20.6313 19.3902C21.2217 18.8303 21.5848 18.0621 21.5848 17.2056C21.5848 15.5264 20.1664 14.1544 18.4302 14.1544C16.694 14.1544 15.2757 15.5263 15.2757 17.2056C15.2757 18.8959 16.694 20.268 18.4302 20.268C18.6914 20.268 18.9297 20.2351 19.1794 20.1694L22.357 24.714C22.5158 24.9333 22.7655 25.0652 23.0492 25.0652H35.9522V29.7739L20.5298 29.7744C20.1667 28.6217 19.0775 27.7657 17.7724 27.7657C16.1721 27.7657 14.8785 29.028 14.8785 30.5759C14.8785 32.1238 16.1836 33.375 17.7724 33.375C19.0774 33.375 20.1782 32.5296 20.5298 31.3775H35.9402V36.2621L23.0372 36.2616C22.765 36.2616 22.5038 36.3935 22.345 36.6128L19.1674 41.1573C18.9292 41.1022 18.6794 41.0588 18.4182 41.0588C16.6821 41.0588 15.2636 42.4307 15.2636 44.1212C15.2636 45.8003 16.682 47.1724 18.4182 47.1724C20.1542 47.1724 21.5727 45.8005 21.5727 44.1212C21.5727 43.2651 21.2097 42.4964 20.6308 41.9365L23.4792 37.8641H35.9396V42.6607H29.8004C29.5281 42.6607 29.2669 42.7926 29.1081 43.0119L25.9305 47.5565C25.6923 47.5014 25.4426 47.4579 25.1813 47.4579C23.4453 47.4579 22.0268 48.8299 22.0268 50.5203C22.0268 52.1995 23.4452 53.5715 25.1813 53.5715C26.9174 53.5715 28.3359 52.1996 28.3359 50.5203C28.3359 49.6643 27.9728 48.8956 27.3824 48.3357L30.2308 44.2632H35.9277V50.915C35.9277 51.0469 35.9392 51.1783 35.9501 51.3213C35.7359 55.5914 32.1274 58.9727 27.7011 58.9727L27.7012 58.9722ZM25.1819 12.2553C24.3533 12.2553 23.6956 11.6074 23.6956 10.8065C23.6956 10.005 24.3653 9.36886 25.1819 9.36886C25.999 9.36886 26.6682 10.0167 26.6682 10.8065C26.6797 11.608 26.0105 12.2553 25.1819 12.2553ZM18.4183 18.6655C17.5897 18.6655 16.9319 18.0177 16.9319 17.2168C16.9319 16.4153 17.6017 15.7791 18.4183 15.7791C19.2354 15.7791 19.9046 16.427 19.9046 17.2168C19.9166 18.0182 19.2468 18.6655 18.4183 18.6655ZM18.9972 30.6193C18.9857 31.2671 18.4413 31.8048 17.76 31.8048C17.0792 31.8048 16.5228 31.2672 16.5228 30.6082C16.5228 29.9497 17.0787 29.4115 17.76 29.4115C18.4407 29.4115 18.9857 29.9386 18.9972 30.5971V30.6082V30.6193V30.6193ZM19.9167 44.1537C19.9167 44.9551 19.2469 45.5913 18.4303 45.5913C17.6132 45.5913 16.944 44.9435 16.944 44.1537C16.944 43.3522 17.6138 42.7049 18.4303 42.7049C19.2469 42.7049 19.9167 43.3522 19.9167 44.1537ZM26.6797 50.5639C26.6797 51.3654 26.01 52.0127 25.1934 52.0127C24.3763 52.0127 23.7071 51.3648 23.7071 50.5639C23.7071 49.7624 24.3768 49.1151 25.1934 49.1151C26.0105 49.1151 26.6797 49.7625 26.6797 50.5639ZM63.063 40.1473C62.643 40.2458 62.3823 40.641 62.4502 41.0584C62.5521 41.6295 62.5975 42.2217 62.5975 42.8144C62.5975 47.7648 59.1478 52.0677 54.1997 53.286C53.9385 53.3517 53.7232 53.5387 53.6208 53.7798C52.4181 56.8861 49.3085 58.9716 45.8812 58.9716C41.4555 58.9716 37.8465 55.602 37.6312 51.3759C37.6427 51.244 37.6536 51.1126 37.6536 50.9696V44.3178H43.3505L46.1989 48.3903C45.62 48.9502 45.2569 49.7183 45.2569 50.5749C45.2569 52.2541 46.6753 53.6261 48.4115 53.6261C50.1475 53.6261 51.566 52.2542 51.566 50.5749C51.566 48.8846 50.1476 47.5125 48.4115 47.5125C48.1502 47.5125 47.901 47.5565 47.6623 47.6111L44.4847 43.0665C44.3259 42.8472 44.0761 42.7153 43.7925 42.7153H37.6532V37.9187H50.1136L52.962 41.9911C52.3832 42.551 52.0201 43.3192 52.0201 44.1757C52.0201 45.8549 53.4384 47.227 55.1746 47.227C56.9107 47.227 58.3292 45.8551 58.3292 44.1757C58.3292 42.4854 56.9108 41.1134 55.1746 41.1134C54.9134 41.1134 54.6642 41.1573 54.4254 41.2119L51.2479 36.6674C51.089 36.4481 50.8393 36.3162 50.5556 36.3162H37.6427V31.4315H53.0531C53.4162 32.5842 54.5054 33.4291 55.8105 33.4291C57.4108 33.4291 58.7044 32.1668 58.7044 30.63C58.7044 29.0821 57.3993 27.8198 55.8105 27.8198C54.5055 27.8198 53.4047 28.6652 53.0531 29.8284L37.6427 29.8289V25.0869H50.5457C50.8179 25.0869 51.0791 24.955 51.238 24.7357L54.4155 20.1911C54.6538 20.2462 54.9035 20.2897 55.1647 20.2897C56.9008 20.2897 58.3193 18.9177 58.3193 17.2273C58.3193 15.5481 56.9009 14.1761 55.1647 14.1761C53.4287 14.1761 52.0102 15.548 52.0102 17.2273C52.0102 18.0834 52.3733 18.852 52.9636 19.4119L50.1152 23.4844H37.6427V18.6877H43.782C44.0542 18.6877 44.3154 18.5558 44.4743 18.3365L47.6518 13.792C47.8901 13.8471 48.1398 13.8905 48.401 13.8905C50.1371 13.8905 51.5556 12.5186 51.5556 10.8282C51.5556 9.14898 50.1372 7.77692 48.401 7.77692C46.6649 7.77692 45.2465 9.14885 45.2465 10.8282C45.2465 11.6842 45.6096 12.4529 46.1999 13.0128L43.3515 17.0853H37.6547V10.4223C37.6547 10.2905 37.6432 10.1591 37.6322 10.0161C37.848 5.7899 41.4681 2.42028 45.8823 2.42028C48.5943 2.42028 51.1366 3.70435 52.6914 5.86674C52.8162 6.0426 53.0205 6.16287 53.2363 6.20683C58.6609 7.06288 62.5986 11.5417 62.5986 16.865C62.5986 17.3809 62.5646 17.8746 62.4852 18.3577C62.4283 18.764 62.6895 19.1481 63.0981 19.2466C68.0117 20.4867 71.4389 24.7786 71.4389 29.6965C71.4379 34.6256 67.9991 38.9174 63.063 40.1469L63.063 40.1473ZM48.4016 49.115C49.2303 49.115 49.888 49.7628 49.888 50.5638C49.888 51.3652 49.2182 52.0126 48.4016 52.0126C47.573 52.0126 46.9153 51.3647 46.9153 50.5638C46.9038 49.7623 47.5731 49.115 48.4016 49.115ZM55.1537 42.7047C55.9824 42.7047 56.6401 43.3526 56.6401 44.1535C56.6401 44.955 55.9703 45.5912 55.1537 45.5912C54.3366 45.5912 53.6674 44.9433 53.6674 44.1535C53.6669 43.3521 54.3367 42.7047 55.1537 42.7047ZM54.5864 30.5973C54.5979 29.9389 55.1422 29.4118 55.8235 29.4118C56.5043 29.4118 57.0607 29.9495 57.0607 30.6084C57.0607 31.2669 56.5048 31.8051 55.8235 31.8051C55.1428 31.8051 54.5979 31.278 54.5864 30.6195V30.6084V30.5973V30.5973ZM53.6669 17.2169C53.6669 16.4154 54.3366 15.7792 55.1532 15.7792C55.9703 15.7792 56.6395 16.4271 56.6395 17.2169C56.6395 18.0184 55.9697 18.6657 55.1532 18.6657C54.3366 18.6657 53.6669 18.0183 53.6669 17.2169ZM46.9038 10.8066C46.9038 10.0052 47.5736 9.36899 48.3901 9.36899C49.2187 9.36899 49.8765 10.0168 49.8765 10.8066C49.8765 11.6081 49.2067 12.2554 48.3901 12.2554C47.573 12.2554 46.9038 11.6081 46.9038 10.8066Z" fill="#F5E8DE"/>
</svg>
