<svg width="50" height="55" viewBox="0 0 50 55" fill="none" xmlns="http://www.w3.org/2000/svg">
<path d="M25 0C11.2054 0 0 12.1889 0 27.1952C0 42.2015 11.205 54.3904 25 54.3904C38.795 54.3904 50 42.2007 50 27.1952C50 12.1893 38.795 0 25 0ZM25 2.26606C37.6691 2.26606 47.9167 13.4141 47.9167 27.195C47.9167 40.9759 37.6685 52.1239 25 52.1239C12.3309 52.1239 2.08333 40.9759 2.08333 27.195C2.08333 13.4135 12.3315 2.26606 25 2.26606ZM25 11.3313C24.4245 11.3313 23.958 11.8388 23.958 12.4648V27.1957C23.958 27.5087 24.0627 27.8051 24.2509 28.0098L32.3561 36.8268C32.763 37.2695 33.4468 37.2695 33.8537 36.8268C34.2606 36.3842 34.2606 35.6404 33.8537 35.1978L26.0412 26.6993V12.4639C26.0412 11.8379 25.5747 11.3304 24.9992 11.3304L25 11.3313Z" fill="#F5E8DE"/>
</svg>
