<svg width="63" height="27" viewBox="0 0 63 27" fill="none" xmlns="http://www.w3.org/2000/svg">
<path d="M15.1894 13.8952L13.2188 12.3393L22.4701 2.48268C23.1926 1.671 24.2935 1.19238 25.4705 1.19238H36.3078V3.57735H25.4705C25.0782 3.57735 24.7099 3.73689 24.4623 4.01521L15.1894 13.8952Z" fill="#F5E8DE"/>
<path d="M48.0148 25.0416H37.1775C36.0018 25.0416 34.8996 24.5618 34.1555 23.7269L24.9258 13.8948L26.8964 12.3389L36.1478 22.1943C36.4182 22.497 36.7852 22.6566 37.1775 22.6566H48.0148L48.0148 25.0416Z" fill="#F5E8DE"/>
<path d="M3.80541 16.6059C1.70653 16.6059 0 15.0408 0 13.117C0 11.1921 1.70653 9.62695 3.80541 9.62695C5.90298 9.62695 7.60951 11.1921 7.60951 13.117C7.60951 15.0408 5.90298 16.6059 3.80541 16.6059ZM3.80541 12.0119C3.14134 12.0119 2.60041 12.508 2.60041 13.1171C2.60041 13.7261 3.14132 14.221 3.80541 14.221C4.46947 14.221 5.00911 13.7261 5.00911 13.1171C5.00911 12.508 4.46947 12.0119 3.80541 12.0119Z" fill="#F5E8DE"/>
<path d="M6.30859 11.9248H61.0135V14.3098H6.30859V11.9248Z" fill="#F5E8DE"/>
<path d="M37.6122 4.76991C36.1786 4.76991 35.0117 3.69971 35.0117 2.38496C35.0117 1.0702 36.1786 0 37.6122 0C39.0457 0 40.2126 1.0702 40.2126 2.38496C40.2126 3.69971 39.0457 4.76991 37.6122 4.76991ZM37.6122 2.38376V2.38493V2.38376Z" fill="#F5E8DE"/>
<path d="M46.7109 21.4639H51.9118V26.2338H46.7109V21.4639Z" fill="#F5E8DE"/>
<path d="M56.4166 19.0185L54.5781 17.3324L59.1759 13.1168L54.5781 8.90004L56.4166 7.21387L62.8531 13.1169L56.4166 19.0185Z" fill="#F5E8DE"/>
</svg>
