<svg width="70" height="56" viewBox="0 0 70 56" fill="none" xmlns="http://www.w3.org/2000/svg">
<path d="M0.000135803 17.3021H22.3479V21.0603L0.000135803 21.0597V37.9364H22.5924V46.4123C20.652 46.6438 19.1 48.2501 18.7651 50.3107L6.57537 50.3113C6.15713 50.3113 5.81424 50.6837 5.81424 51.1392C5.81424 51.5942 6.15658 51.9672 6.57537 51.9672H18.7651C19.1302 54.1935 20.9184 55.8992 23.0717 55.8992C25.2249 55.8992 27.0132 54.2023 27.371 51.9672H39.6673C40.0856 51.9672 40.4285 51.5948 40.4285 51.1392C40.4285 50.6843 40.0861 50.3113 39.6673 50.3113H27.371C27.0668 48.4573 25.7808 46.9758 24.1141 46.5283V37.9364H46.2105V21.0597H23.8696V17.3015H46.2173V0.424805H0L0.000135803 17.3021ZM25.9174 51.1397C25.9174 52.8534 24.6393 54.2437 23.0639 54.2437C21.6027 54.2437 20.4005 53.0352 20.2408 51.4874C20.2865 51.38 20.3167 51.2639 20.3167 51.1479C20.3167 51.0318 20.2865 50.9077 20.2408 50.8084C20.4006 49.2604 21.5954 48.052 23.0639 48.052C24.6388 48.0359 25.9174 49.4268 25.9174 51.1399V51.1397ZM44.6888 22.7163V36.2828L1.52196 36.2823V22.7163L44.6888 22.7163ZM1.52196 2.08084H44.6888V15.6474H1.52196V2.08084Z" fill="#F5E8DE"/>
<path d="M7.86328 5.21777C6.01414 5.21777 4.50781 6.85692 4.50781 8.8678C4.50781 10.8793 6.01468 12.5178 7.86328 12.5178C9.71242 12.5178 11.2187 10.8787 11.2187 8.8678C11.2193 6.85692 9.71242 5.21777 7.86328 5.21777ZM7.86328 10.8626C6.85111 10.8626 6.02949 9.96881 6.02949 8.8678C6.02949 7.76679 6.85112 6.87303 7.86328 6.87303C8.87545 6.87303 9.69707 7.76679 9.69707 8.8678C9.69707 9.96881 8.87544 10.8626 7.86328 10.8626Z" fill="#F5E8DE"/>
<path d="M40.3008 6.0459H41.8225V11.6907H40.3008V6.0459Z" fill="#F5E8DE"/>
<path d="M36.5 6.0459H38.0217V11.6907H36.5V6.0459Z" fill="#F5E8DE"/>
<path d="M32.7109 6.0459H34.2327V11.6907H32.7109V6.0459Z" fill="#F5E8DE"/>
<path d="M28.918 6.0459H30.4397V11.6907H28.918V6.0459Z" fill="#F5E8DE"/>
<path d="M7.86328 33.1538C9.71242 33.1538 11.2187 31.5146 11.2187 29.5037C11.2187 27.4921 9.71188 25.8535 7.86328 25.8535C6.01414 25.8535 4.50781 27.4927 4.50781 29.5037C4.50781 31.5152 6.01468 33.1538 7.86328 33.1538ZM7.86328 27.5088C8.87545 27.5088 9.69707 28.4026 9.69707 29.5037C9.69707 30.6047 8.87544 31.4985 7.86328 31.4985C6.85111 31.4985 6.02949 30.6047 6.02949 29.5037C6.03002 28.4026 6.85165 27.5088 7.86328 27.5088Z" fill="#F5E8DE"/>
<path d="M40.3008 26.6787H41.8225V32.3235H40.3008V26.6787Z" fill="#F5E8DE"/>
<path d="M36.5 26.6787H38.0217V32.3235H36.5V26.6787Z" fill="#F5E8DE"/>
<path d="M32.7109 26.6787H34.2327V32.3235H32.7109V26.6787Z" fill="#F5E8DE"/>
<path d="M28.918 26.6787H30.4397V32.3235H28.918V26.6787Z" fill="#F5E8DE"/>
<path d="M62.2517 18.7086C62.3812 18.7086 62.5101 18.6757 62.6322 18.6012C62.9974 18.3697 63.1195 17.8644 62.9135 17.4672L56.8187 5.97852L50.7239 17.4672C50.5111 17.8644 50.6401 18.3697 51.0052 18.6012C51.3704 18.8327 51.8348 18.6924 52.0477 18.2952L56.065 10.7218V31.3898C56.065 31.8448 56.4074 32.2178 56.8262 32.2178C57.2444 32.2178 57.5873 31.8454 57.5873 31.3898V10.7203L61.6047 18.2937C61.7342 18.5587 61.9852 18.7077 62.2517 18.7077L62.2517 18.7086Z" fill="#F5E8DE"/>
<path d="M69.625 37.7221C69.2598 37.4906 68.7954 37.6309 68.5825 38.0281L64.5652 45.6015L64.5647 24.9246C64.5647 24.4697 64.2223 24.0967 63.8035 24.0967C63.3853 24.0967 63.0424 24.4691 63.0424 24.9246V45.5927L59.0251 38.0193C58.8122 37.622 58.3478 37.4893 57.9826 37.7133C57.6175 37.9448 57.4954 38.45 57.7013 38.8472L63.7961 50.3359L69.8908 38.8472C70.1116 38.4581 69.9901 37.9529 69.6249 37.7214L69.625 37.7221Z" fill="#F5E8DE"/>
</svg>
