<svg width="69" height="84" viewBox="0 0 69 84" fill="none" xmlns="http://www.w3.org/2000/svg">
<g filter="url(#filter0_d_657_5848)">
<path d="M16.0394 0.00130965C15.8743 0.00130965 15.7158 0.0445503 15.5882 0.137733C15.3738 0.294861 14.7601 0.874666 14.7601 0.874666C8.03882 7.00575 4 15.9835 4 26.1948C4 36.7993 8.34353 46.0611 15.5378 52.1978C15.8726 52.4834 16.4292 52.4255 16.6917 52.0613C16.9543 51.6965 16.8765 51.0918 16.5411 50.8061C9.71517 44.985 5.60512 36.2826 5.60512 26.1954C5.60512 16.3577 9.51466 7.81029 16.0395 1.99477C16.0395 1.99477 16.4706 1.63971 16.6167 1.47588C16.7567 1.31875 16.8423 1.11168 16.8423 0.875975C16.8423 0.393615 16.4829 0.00261931 16.0395 0.00261931L16.0394 0.00130965ZM52.9605 0.00130965C52.5171 0.00130965 52.1577 0.392305 52.1577 0.874666C52.1577 1.11036 52.2433 1.31742 52.3833 1.47457C52.5294 1.6384 52.9605 1.99346 52.9605 1.99346C59.4852 7.80976 63.3949 16.3568 63.3949 26.1941C63.3949 36.2815 59.2848 44.9846 52.4589 50.8048C52.1235 51.0905 52.0457 51.6952 52.3083 52.06C52.5708 52.4242 53.1273 52.4821 53.4622 52.1965C60.6565 46.0605 65 36.7983 65 26.1935C65 15.9825 60.961 7.00537 54.2399 0.873356C54.2399 0.873356 53.6262 0.293551 53.4118 0.136423C53.2842 0.0432406 53.1257 0 52.9606 0L52.9605 0.00130965ZM26.3991 11.3244C26.2743 11.339 26.1528 11.3865 26.0475 11.4608C21.4264 14.6114 18.4479 19.8753 18.4479 26.1945C18.4479 32.5144 21.4264 37.7503 26.0475 40.9008C26.4092 41.1474 26.9523 41.0226 27.1762 40.6279C27.4007 40.2339 27.2647 39.6419 26.9008 39.4001C22.6882 36.5285 20.053 31.9243 20.053 26.1945C20.053 20.4648 22.6884 15.8331 26.9008 12.9615C27.2154 12.7733 27.375 12.3281 27.277 11.9523C27.179 11.5759 26.833 11.3055 26.4741 11.3244C26.449 11.3232 26.4238 11.3232 26.3991 11.3244H26.3991ZM42.5263 11.3244C42.1674 11.3055 41.8214 11.576 41.7234 11.9523C41.6255 12.3281 41.785 12.7727 42.0997 12.9615C46.3122 15.8331 48.9474 20.4648 48.9474 26.1945C48.9474 31.9243 46.3121 36.5285 42.0997 39.4001C41.7358 39.6419 41.5997 40.2339 41.8242 40.6279C42.0482 41.0226 42.5912 41.1474 42.9529 40.9008C47.5741 37.7503 50.5526 32.5144 50.5526 26.1945C50.5526 19.8753 47.5741 14.6114 42.9529 11.4608C42.8477 11.3865 42.7262 11.339 42.6013 11.3244C42.5767 11.3238 42.5515 11.3238 42.5263 11.3244ZM34.5 22.7024C32.7363 22.7024 31.2897 24.2762 31.2897 26.1945C31.2897 28.113 32.7365 29.6873 34.5 29.6873C36.2635 29.6873 37.7102 28.1129 37.7102 26.1945C37.7102 24.276 36.2635 22.7024 34.5 22.7024ZM34.5 24.4485C35.3963 24.4485 36.1051 25.2201 36.1051 26.1945C36.1051 27.1696 35.3963 27.9406 34.5 27.9406C33.6037 27.9406 32.8949 27.1695 32.8949 26.1945C32.8949 25.2201 33.6037 24.4485 34.5 24.4485ZM34.3998 43.6288C34.374 43.6367 34.3488 43.6458 34.3242 43.6562C34.0263 43.7335 33.7811 44.0112 33.7223 44.3383L28.104 74.0239C27.9999 74.5306 28.4041 75.0842 28.8817 75.0879H40.1183C40.5958 75.0842 41.0001 74.5306 40.8959 74.0239L35.2777 44.3383C35.2189 44.0112 34.9736 43.7329 34.6758 43.6562C34.6512 43.6458 34.626 43.6379 34.6002 43.6288H34.5252H34.5H34.4748C34.4496 43.6275 34.425 43.6275 34.3998 43.6288H34.3998ZM34.5 48.8128L39.1402 73.3425H29.8598L34.5 48.8128Z" fill="#F5E8DE"/>
</g>
<defs>
<filter id="filter0_d_657_5848" x="0" y="0" width="69" height="83.0879" filterUnits="userSpaceOnUse" color-interpolation-filters="sRGB">
<feFlood flood-opacity="0" result="BackgroundImageFix"/>
<feColorMatrix in="SourceAlpha" type="matrix" values="0 0 0 0 0 0 0 0 0 0 0 0 0 0 0 0 0 0 127 0" result="hardAlpha"/>
<feOffset dy="4"/>
<feGaussianBlur stdDeviation="2"/>
<feComposite in2="hardAlpha" operator="out"/>
<feColorMatrix type="matrix" values="0 0 0 0 0 0 0 0 0 0 0 0 0 0 0 0 0 0 0.25 0"/>
<feBlend mode="normal" in2="BackgroundImageFix" result="effect1_dropShadow_657_5848"/>
<feBlend mode="normal" in="SourceGraphic" in2="effect1_dropShadow_657_5848" result="shape"/>
</filter>
</defs>
</svg>
