<svg width="80" height="57" viewBox="0 0 80 57" fill="none" xmlns="http://www.w3.org/2000/svg">
<path d="M17.6791 16.1165C17.6537 19.7273 15.5536 23.0985 12.3953 24.3145C9.18598 25.5395 5.62119 24.4526 3.45348 21.6156C1.32804 18.8247 1.10802 14.7072 2.8184 11.6307C4.52888 8.55412 7.9328 6.8686 11.1929 7.57788C14.9271 8.37925 17.6537 11.9716 17.6791 16.1166C17.6876 17.3049 19.3811 17.3049 19.3727 16.1166C19.3473 11.7045 16.7986 7.75288 13.0051 6.20531C9.23698 4.66704 4.7746 5.98425 2.22584 9.36479C-0.356829 12.7914 -0.754759 17.7194 1.36215 21.542C3.47055 25.3463 7.59431 27.2898 11.5909 26.4516C15.4691 25.641 18.6529 22.0761 19.2457 17.8207C19.322 17.2496 19.3728 16.6877 19.3812 16.1166C19.3728 14.9376 17.6793 14.9284 17.6793 16.1166L17.6791 16.1165Z" fill="#F5E8DE"/>
<path d="M41.8699 43.1415C41.8444 47.8852 39.0924 52.3065 34.9688 53.937C30.7434 55.6042 25.9847 54.1857 23.1142 50.4368C20.2776 46.734 19.9727 41.2901 22.2505 37.1821C24.5283 33.0924 29.0668 30.9001 33.3854 31.8673C37.6954 32.8344 41.0317 36.6478 41.7514 41.3639C41.8361 41.9442 41.8699 42.5429 41.8699 43.1417C41.8784 44.3299 43.5719 44.3299 43.5635 43.1417C43.5381 37.5597 40.2866 32.5213 35.4685 30.5963C30.6844 28.6804 25.0618 30.3476 21.8441 34.64C18.5925 38.9784 18.1099 45.2143 20.7857 50.0317C23.453 54.8216 28.6775 57.2901 33.7241 56.2216C38.6354 55.1807 42.6406 50.6765 43.4027 45.288C43.5043 44.5788 43.5636 43.8603 43.5636 43.1419C43.572 41.9536 41.8785 41.9536 41.87 43.1419L41.8699 43.1415Z" fill="#F5E8DE"/>
<path d="M66.8411 9.37422C66.8157 12.4875 65.0205 15.4075 62.294 16.4576C59.5251 17.5261 56.4514 16.6142 54.563 14.1734C52.6831 11.7508 52.4885 8.15848 53.9872 5.46879C55.469 2.80672 58.4327 1.35146 61.2525 1.97769C64.4872 2.68694 66.8158 5.79116 66.8411 9.37422C66.8496 10.5625 68.5431 10.5625 68.5348 9.37422C68.5094 5.44099 66.2401 1.93154 62.853 0.559158C59.5167 -0.794885 55.5538 0.374926 53.3014 3.3686C50.9982 6.42666 50.6341 10.8113 52.5309 14.2101C54.4107 17.5998 58.0942 19.3223 61.6505 18.5576C65.6302 17.701 68.5093 13.7401 68.5347 9.37422C68.5431 8.18598 66.8496 8.18598 66.8411 9.37422H66.8411Z" fill="#F5E8DE"/>
<path d="M14.4931 24.3801C16.9996 27.3276 19.5059 30.2844 22.0122 33.232C22.3594 33.6465 22.7151 34.061 23.0622 34.4663C23.7989 35.3413 25.0012 34.0334 24.2561 33.1675C21.7496 30.22 19.2433 27.2632 16.737 24.3156C16.3898 23.9011 16.0341 23.4866 15.687 23.0813C14.9503 22.2063 13.7563 23.5142 14.4931 24.3801Z" fill="#F5E8DE"/>
<path d="M40.3892 35.406C42.0489 33.3704 43.7086 31.344 45.3681 29.3083C48.01 26.0753 50.6519 22.842 53.2939 19.5997C53.8951 18.8628 54.4963 18.1259 55.0975 17.3891C55.8172 16.5048 54.6233 15.1967 53.9035 16.0903C52.2438 18.126 50.5841 20.1524 48.9246 22.188C46.2828 25.4211 43.6408 28.6543 40.9988 31.8966C40.3976 32.6335 39.7964 33.3704 39.1953 34.1073C38.4755 34.9916 39.6695 36.2996 40.3892 35.406Z" fill="#F5E8DE"/>
<path d="M78.2992 28.9028C78.2823 30.2569 77.5286 31.5096 76.3431 31.9885C75.1238 32.4859 73.7267 32.0714 72.9053 30.9661C72.1262 29.916 72.0331 28.3962 72.6512 27.2357C73.2863 26.0474 74.6073 25.375 75.852 25.6606C77.2746 25.9922 78.2739 27.3186 78.2993 28.9029C78.3162 30.0911 80.0097 30.0911 79.9929 28.9029C79.959 26.7291 78.7227 24.8132 76.8514 24.0578C75.0308 23.3301 72.8631 23.9841 71.6437 25.6237C70.399 27.2909 70.1957 29.6857 71.2288 31.5464C72.2619 33.407 74.2517 34.3281 76.1994 33.9413C78.4094 33.5083 79.9675 31.2978 80.0014 28.9028C80.0099 27.7146 78.3163 27.7146 78.2995 28.9028H78.2992Z" fill="#F5E8DE"/>
<path d="M64.8949 16.6135C67.0541 19.2203 69.2218 21.8176 71.3812 24.4243C71.686 24.7928 71.9908 25.152 72.2957 25.5204C73.0239 26.4047 74.2263 25.0967 73.4896 24.2217C71.3304 21.6149 69.1627 19.0176 67.0033 16.4109C66.6985 16.0424 66.3937 15.6832 66.0889 15.3148C65.3606 14.4305 64.1667 15.7385 64.8949 16.6135Z" fill="#F5E8DE"/>
</svg>
