<svg width="50" height="50" viewBox="0 0 50 50" fill="none" xmlns="http://www.w3.org/2000/svg">
<path fill-rule="evenodd" clip-rule="evenodd" d="M26.0053 16.8457C24.6606 17.1432 23.7714 17.9993 23.3758 19.3773C23.2307 19.8828 23.1917 20.3423 23.1914 21.5479L23.1912 22.6859L22.1755 22.6865C21.0507 22.6871 21.0028 22.6964 20.929 22.9286C20.8668 23.1243 20.8668 25.6305 20.929 25.8277C20.9981 26.0467 21.0936 26.0645 22.2128 26.0671L23.1912 26.0694V29.5312V32.993L23.2811 33.106L23.3711 33.219L24.7068 33.2315C26.1463 33.2449 26.2798 33.2307 26.3533 33.0564C26.3853 32.9806 26.3967 32.0404 26.3967 29.4928V26.0322L27.644 26.0205C28.7833 26.0099 28.8972 26.0027 28.9579 25.937C29.0194 25.8705 29.0244 25.7507 29.0244 24.3571V22.8492L28.9396 22.7575C28.8552 22.6662 28.8483 22.6656 27.6226 22.6541L26.3904 22.6424L26.4031 21.5665C26.4167 20.4096 26.4254 20.3554 26.6301 20.1455C26.7862 19.9854 26.8765 19.9716 27.9188 19.9489L28.9378 19.9267L29.0277 19.8137L29.1176 19.7006V18.3316V16.9624L29.0261 16.8636L28.9346 16.7647L27.6377 16.7681C26.5326 16.771 26.2912 16.7825 26.0053 16.8457Z" fill="white"/>
</svg>
