<svg width="50" height="50" viewBox="0 0 50 50" fill="none" xmlns="http://www.w3.org/2000/svg">
<path d="M25.013 33.2353H24.9918C24.9262 33.2353 18.3638 33.2212 16.7081 32.7216C15.7976 32.4492 15.0866 31.6586 14.8418 30.6469C14.5441 28.7808 14.4003 26.8882 14.4123 24.993C14.4046 23.0946 14.5523 21.1994 14.8535 19.3307C15.105 18.3181 15.8129 17.524 16.7218 17.2349C18.332 16.7647 24.7136 16.7647 24.9844 16.7647H25.0066C25.0733 16.7647 31.6527 16.7788 33.2914 17.2784C34.2 17.5523 34.9096 18.3411 35.1555 19.3507C35.4628 21.2239 35.607 23.1255 35.5861 25.0294C35.5935 26.9254 35.4455 28.8183 35.1439 30.6845C34.896 31.695 34.1845 32.4837 33.2745 32.7569C31.6664 33.2306 25.2838 33.2353 25.013 33.2353ZM22.8971 21.4724L22.8918 28.5252L28.4058 24.9988L22.8971 21.4724Z" fill="white"/>
</svg>
