<svg width="50" height="50" viewBox="0 0 50 50" fill="none" xmlns="http://www.w3.org/2000/svg">
<path d="M24.9954 33.2353C22.7456 33.2353 22.4804 33.2234 21.6025 33.1851C20.9178 33.1626 20.2421 33.0236 19.6042 32.7741C18.5007 32.3453 17.6281 31.4736 17.199 30.3715C16.9588 29.7322 16.8292 29.0569 16.8159 28.3743C16.7646 27.4995 16.7646 27.2127 16.7646 24.9836C16.7646 22.7307 16.7765 22.4677 16.8159 21.5956C16.8295 20.9139 16.9591 20.2395 17.199 19.6011C17.6276 18.4975 18.5016 17.6251 19.607 17.1976C20.2459 16.9567 20.9215 16.8269 21.6043 16.814C22.4777 16.7647 22.7648 16.7647 24.9954 16.7647C27.2634 16.7647 27.524 16.7766 28.3883 16.814C29.0728 16.8271 29.7502 16.9568 30.3911 17.1976C31.4961 17.6256 32.3699 18.4979 32.799 19.6011C33.0433 20.2488 33.1735 20.9337 33.184 21.6257C33.2352 22.5006 33.2352 22.7864 33.2352 25.0146C33.2352 27.2428 33.2224 27.5351 33.184 28.3999C33.1704 29.0831 33.0404 29.7591 32.7999 30.3989C32.3697 31.5018 31.4958 32.3738 30.3911 32.8024C29.7511 33.0419 29.0752 33.1713 28.3919 33.1851C27.5186 33.2353 27.2323 33.2353 24.9954 33.2353ZM24.9643 18.2103C22.7273 18.2103 22.495 18.2213 21.6217 18.2605C21.1004 18.2674 20.5841 18.3635 20.0953 18.5445C19.3736 18.8203 18.8024 19.3884 18.5233 20.108C18.3406 20.6014 18.2444 21.1225 18.2389 21.6485C18.1904 22.5334 18.1904 22.7654 18.1904 24.9836C18.1904 27.1753 18.1986 27.441 18.2389 28.3204C18.2471 28.8411 18.3432 29.3567 18.5233 29.8455C18.8028 30.5646 19.3739 31.1322 20.0953 31.408C20.5838 31.5902 21.1003 31.6863 21.6217 31.692C22.5069 31.7431 22.7401 31.7431 24.9643 31.7431C27.2076 31.7431 27.4399 31.7322 28.306 31.692C28.8276 31.6857 29.3442 31.5896 29.8332 31.408C30.5506 31.1298 31.118 30.5635 31.397 29.8473C31.5794 29.3535 31.6755 28.8321 31.6815 28.3058H31.6915C31.7308 27.4328 31.7308 27.1999 31.7308 24.969C31.7308 22.738 31.7208 22.5033 31.6815 21.6312C31.6732 21.1111 31.577 20.5961 31.397 20.108C31.1187 19.3907 30.5511 18.8234 29.8332 18.5445C29.3443 18.3626 28.8276 18.2665 28.306 18.2605C27.4216 18.2103 27.1902 18.2103 24.9643 18.2103ZM24.9954 29.2017C23.2851 29.2028 21.7428 28.1749 21.0875 26.5977C20.4322 25.0203 20.793 23.204 22.0018 21.996C23.2105 20.7879 25.029 20.426 26.6093 21.079C28.1895 21.732 29.22 23.2713 29.2205 24.979C29.2179 27.3087 27.3283 29.1971 24.9954 29.2017ZM24.9954 22.2376C23.4801 22.2376 22.2518 23.4642 22.2518 24.9772C22.2518 26.4903 23.4801 27.7168 24.9954 27.7168C26.5106 27.7168 27.739 26.4903 27.739 24.9772C27.7354 23.4655 26.5091 22.2411 24.9954 22.2376ZM29.3851 21.5864C28.8413 21.5844 28.4019 21.1432 28.4029 20.6002C28.4039 20.0572 28.845 19.6176 29.3888 19.6176C29.9324 19.6176 30.3735 20.0572 30.3746 20.6002C30.3748 20.8621 30.2705 21.1134 30.0849 21.2985C29.8992 21.4836 29.6474 21.5872 29.3851 21.5864Z" fill="white"/>
</svg>
