<svg width="134" height="39" viewBox="0 0 134 39" fill="none" xmlns="http://www.w3.org/2000/svg">
<path d="M133.255 34.5028C133.255 36.5811 131.549 38.2646 129.439 38.2646H4.56495C2.45599 38.2646 0.744141 36.5811 0.744141 34.5028V4.50311C0.744141 2.42573 2.45599 0.736328 4.56495 0.736328H129.438C131.549 0.736328 133.254 2.42573 133.254 4.50311L133.255 34.5028Z" fill="#3C2358"/>
<path d="M129.037 0.781219C131.335 0.781219 133.205 2.61788 133.205 4.875V34.125C133.205 36.3821 131.335 38.2188 129.037 38.2188H4.96296C2.66511 38.2188 0.795315 36.3821 0.795315 34.125V4.875C0.795315 2.61788 2.66511 0.781219 4.96296 0.781219H129.037ZM129.037 2.06113e-06H4.96296C2.23457 2.06113e-06 0 2.19497 0 4.875V34.125C0 36.805 2.23457 39 4.96296 39H129.037C131.765 39 134 36.805 134 34.125V4.875C134 2.19497 131.765 2.06113e-06 129.037 2.06113e-06Z" fill="#592594"/>
<path d="M29.9049 19.2903C29.8762 16.1479 32.5244 14.6191 32.6455 14.5479C31.1457 12.4 28.821 12.1065 28.0041 12.0831C26.0517 11.8813 24.1578 13.2307 23.1633 13.2307C22.1488 13.2307 20.6173 12.1026 18.9666 12.1358C16.8424 12.1679 14.8553 13.376 13.7654 15.2519C11.5162 19.0768 13.1937 24.6977 15.3486 27.7894C16.4265 29.3036 17.6861 30.9942 19.3348 30.9347C20.9478 30.8694 21.5503 29.9246 23.4968 29.9246C25.4254 29.9246 25.9912 30.9347 27.6726 30.8967C29.4037 30.8694 30.4936 29.3757 31.5338 27.8479C32.7795 26.1124 33.2798 24.4032 33.2996 24.3155C33.2589 24.3018 29.9377 23.0567 29.9049 19.2903Z" fill="white"/>
<path d="M26.7286 10.0493C27.5962 8.9836 28.1897 7.53377 28.025 6.0625C26.7693 6.1171 25.1991 6.91563 24.2948 7.9579C23.4948 8.87635 22.7801 10.3817 22.9647 11.7974C24.3752 11.9008 25.8234 11.0984 26.7286 10.0493Z" fill="white"/>
<path d="M53.2455 30.7155H50.9913L49.7566 26.9043H45.4646L44.2884 30.7155H42.0938L46.346 17.7402H48.9724L53.2455 30.7155ZM49.3843 25.3053L48.2677 21.9171C48.1496 21.571 47.9282 20.7559 47.6016 19.4728H47.5619C47.4319 20.0247 47.2225 20.8398 46.9346 21.9171L45.8378 25.3053H49.3843V25.3053Z" fill="white"/>
<path d="M64.1804 25.923C64.1804 27.5142 63.7426 28.772 62.8672 29.6953C62.083 30.5172 61.1093 30.9277 59.947 30.9277C58.6923 30.9277 57.791 30.4851 57.2421 29.5998H57.2024V34.5284H55.0862V24.4401C55.0862 23.4397 55.0594 22.413 55.0078 21.36H56.8689L56.987 22.843H57.0267C57.7325 21.7257 58.8035 21.168 60.2408 21.168C61.3644 21.168 62.3024 21.6038 63.0528 22.4764C63.8052 23.35 64.1804 24.4986 64.1804 25.923ZM62.0245 25.9991C62.0245 25.0884 61.816 24.3377 61.3971 23.7468C60.9395 23.1306 60.3251 22.8225 59.5549 22.8225C59.0328 22.8225 58.5583 22.9941 58.1345 23.3325C57.7096 23.6737 57.4317 24.1193 57.3017 24.6711C57.2362 24.9285 57.2034 25.1391 57.2034 25.3049V26.8649C57.2034 27.5454 57.4158 28.1197 57.8407 28.5887C58.2655 29.0577 58.8174 29.2917 59.4963 29.2917C60.2934 29.2917 60.9137 28.9894 61.3574 28.3869C61.8021 27.7833 62.0245 26.9877 62.0245 25.9991Z" fill="white"/>
<path d="M75.1364 25.923C75.1364 27.5142 74.6987 28.772 73.8222 29.6953C73.0391 30.5172 72.0653 30.9277 70.903 30.9277C69.6484 30.9277 68.7471 30.4851 68.1992 29.5998H68.1595V34.5284H66.0433V24.4401C66.0433 23.4397 66.0165 22.413 65.9648 21.36H67.826L67.9441 22.843H67.9838C68.6885 21.7257 69.7595 21.168 71.1978 21.168C72.3204 21.168 73.2584 21.6038 74.0108 22.4764C74.7602 23.35 75.1364 24.4986 75.1364 25.923ZM72.9805 25.9991C72.9805 25.0884 72.7711 24.3377 72.3522 23.7468C71.8946 23.1306 71.2822 22.8225 70.5109 22.8225C69.9878 22.8225 69.5144 22.9941 69.0895 23.3325C68.6647 23.6737 68.3878 24.1193 68.2577 24.6711C68.1932 24.9285 68.1595 25.1391 68.1595 25.3049V26.8649C68.1595 27.5454 68.3719 28.1197 68.7947 28.5887C69.2196 29.0567 69.7714 29.2917 70.4524 29.2917C71.2494 29.2917 71.8698 28.9894 72.3135 28.3869C72.7582 27.7833 72.9805 26.9877 72.9805 25.9991Z" fill="white"/>
<path d="M87.3841 27.0775C87.3841 28.1812 86.994 29.0792 86.2109 29.7724C85.3503 30.53 84.1522 30.9083 82.6127 30.9083C81.1913 30.9083 80.0518 30.6392 79.1893 30.1L79.6796 28.3674C80.6087 28.9193 81.6281 29.1962 82.7388 29.1962C83.5358 29.1962 84.1562 29.0187 84.6019 28.6658C85.0456 28.3128 85.2669 27.839 85.2669 27.2481C85.2669 26.7216 85.0843 26.278 84.718 25.9182C84.3537 25.5585 83.7453 25.224 82.8956 24.915C80.5829 24.0677 79.4275 22.8265 79.4275 21.1944C79.4275 20.1277 79.8325 19.2531 80.6434 18.5726C81.4514 17.8911 82.5293 17.5508 83.8773 17.5508C85.0793 17.5508 86.0779 17.7565 86.8749 18.167L86.3459 19.8615C85.6014 19.4637 84.7597 19.2648 83.8177 19.2648C83.0733 19.2648 82.4916 19.4452 82.0747 19.804C81.7224 20.1248 81.5457 20.5158 81.5457 20.9789C81.5457 21.4917 81.7472 21.9159 82.1522 22.2493C82.5045 22.5574 83.1448 22.8909 84.0738 23.2506C85.2103 23.7001 86.0451 24.2256 86.5821 24.8282C87.1171 25.4288 87.3841 26.1805 87.3841 27.0775Z" fill="white"/>
<path d="M94.3808 22.9205H92.0482V27.463C92.0482 28.6184 92.4591 29.1956 93.283 29.1956C93.6612 29.1956 93.9748 29.1634 94.223 29.0991L94.2815 30.6776C93.8646 30.8307 93.3157 30.9077 92.6358 30.9077C91.8 30.9077 91.1469 30.6571 90.6754 30.157C90.2059 29.6558 89.9697 28.8154 89.9697 27.6346V22.9186H88.5801V21.3586H89.9697V19.6455L92.0482 19.0293V21.3586H94.3808V22.9205Z" fill="white"/>
<path d="M104.906 25.962C104.906 27.4002 104.487 28.5809 103.651 29.5042C102.774 30.4548 101.611 30.9287 100.161 30.9287C98.7634 30.9287 97.6507 30.4734 96.8209 29.5627C95.9911 28.6521 95.5762 27.5025 95.5762 26.1171C95.5762 24.6672 96.003 23.4797 96.8596 22.5564C97.7142 21.6321 98.8676 21.1699 100.318 21.1699C101.715 21.1699 102.84 21.6252 103.689 22.5369C104.501 23.4212 104.906 24.5629 104.906 25.962ZM102.71 26.0293C102.71 25.1664 102.522 24.4264 102.142 23.8092C101.698 23.0624 101.064 22.6899 100.242 22.6899C99.3917 22.6899 98.7455 23.0634 98.3018 23.8092C97.9217 24.4274 97.7341 25.1791 97.7341 26.0683C97.7341 26.9312 97.9217 27.6712 98.3018 28.2874C98.7594 29.0343 99.3986 29.4067 100.223 29.4067C101.031 29.4067 101.666 29.0265 102.123 28.2679C102.513 27.639 102.71 26.8912 102.71 26.0293Z" fill="white"/>
<path d="M111.783 23.1882C111.574 23.1501 111.351 23.1306 111.116 23.1306C110.372 23.1306 109.796 23.4066 109.391 23.9594C109.039 24.4469 108.862 25.0631 108.862 25.807V30.7161H106.747L106.767 24.3065C106.767 23.2281 106.74 22.2463 106.688 21.361H108.531L108.608 23.1511H108.667C108.89 22.5359 109.242 22.0406 109.725 21.6691C110.196 21.3347 110.706 21.168 111.254 21.168C111.45 21.168 111.627 21.1816 111.783 21.206V23.1882Z" fill="white"/>
<path d="M121.248 25.5954C121.248 25.9679 121.223 26.2818 121.171 26.5382H114.822C114.847 27.4625 115.154 28.1694 115.743 28.6569C116.278 29.0927 116.97 29.3111 117.82 29.3111C118.76 29.3111 119.617 29.1639 120.388 28.8685L120.72 30.3115C119.819 30.6976 118.755 30.8897 117.527 30.8897C116.05 30.8897 114.89 30.4626 114.047 29.6095C113.205 28.7564 112.783 27.6107 112.783 26.1736C112.783 24.7628 113.175 23.5879 113.96 22.6509C114.782 21.6506 115.893 21.1504 117.291 21.1504C118.663 21.1504 119.703 21.6506 120.408 22.6509C120.967 23.4455 121.248 24.4283 121.248 25.5954ZM119.23 25.0562C119.244 24.44 119.106 23.9077 118.819 23.4582C118.453 22.88 117.89 22.5914 117.133 22.5914C116.441 22.5914 115.878 22.8732 115.448 23.4387C115.096 23.8882 114.887 24.4274 114.822 25.0553H119.23V25.0562Z" fill="white"/>
<path d="M48.6858 9.75971C48.6858 10.9073 48.3354 11.7711 47.6356 12.3513C46.9874 12.8865 46.0663 13.1547 44.8732 13.1547C44.2816 13.1547 43.7754 13.1293 43.3516 13.0786V6.80838C43.9044 6.72063 44.5 6.67578 45.1432 6.67578C46.2797 6.67578 47.1363 6.91856 47.714 7.40411C48.3612 7.95303 48.6858 8.73791 48.6858 9.75971ZM47.5889 9.78798C47.5889 9.04406 47.3884 8.47368 46.9874 8.07588C46.5864 7.67906 46.0008 7.48016 45.2296 7.48016C44.902 7.48016 44.6231 7.50161 44.3918 7.54646V12.3132C44.5198 12.3327 44.7541 12.3415 45.0946 12.3415C45.8906 12.3415 46.505 12.1241 46.9378 11.6892C47.3706 11.2544 47.5889 10.6206 47.5889 9.78798Z" fill="white"/>
<path d="M54.5027 10.7619C54.5027 11.4687 54.2973 12.0479 53.8863 12.5022C53.4555 12.9693 52.8848 13.2023 52.1721 13.2023C51.4852 13.2023 50.9383 12.979 50.5304 12.5305C50.1234 12.083 49.9199 11.5185 49.9199 10.8379C49.9199 10.1262 50.1294 9.54213 50.5502 9.08875C50.9711 8.63538 51.5369 8.4082 52.2495 8.4082C52.9364 8.4082 53.4883 8.63148 53.9062 9.079C54.3032 9.51385 54.5027 10.0755 54.5027 10.7619ZM53.4238 10.795C53.4238 10.3709 53.3305 10.0072 53.1449 9.70398C52.9265 9.33738 52.6158 9.15408 52.2118 9.15408C51.7939 9.15408 51.4763 9.33738 51.2579 9.70398C51.0713 10.0072 50.979 10.3767 50.979 10.8135C50.979 11.2377 51.0723 11.6013 51.2579 11.9046C51.4833 12.2712 51.7969 12.4545 52.2019 12.4545C52.5989 12.4545 52.9106 12.2682 53.1349 11.8948C53.3275 11.5857 53.4238 11.2191 53.4238 10.795Z" fill="white"/>
<path d="M62.3009 8.50195L60.8368 13.0981H59.8839L59.2775 11.1023C59.1236 10.6041 58.9985 10.1088 58.9013 9.61735H58.8824C58.7921 10.1224 58.667 10.6167 58.5062 11.1023L57.862 13.0981H56.8982L55.5215 8.50195H56.5905L57.1196 10.6869C57.2476 11.2037 57.3528 11.6961 57.4372 12.1621H57.456C57.5335 11.778 57.6615 11.2885 57.8422 10.6967L58.5062 8.50293H59.3539L59.9901 10.6499C60.144 11.1735 60.269 11.6775 60.3653 12.1631H60.3941C60.4646 11.6902 60.5708 11.1861 60.7117 10.6499L61.2795 8.50293H62.3009V8.50195Z" fill="white"/>
<path d="M67.6932 13.097H66.6529V10.4645C66.6529 9.65327 66.3393 9.24767 65.71 9.24767C65.4013 9.24767 65.1521 9.35882 64.9586 9.5821C64.767 9.80537 64.6697 10.0686 64.6697 10.3699V13.096H63.6295V9.81415C63.6295 9.4105 63.6166 8.97272 63.5918 8.49887H64.506L64.5546 9.21745H64.5834C64.7045 8.99417 64.8851 8.8099 65.1224 8.66267C65.4043 8.49107 65.7199 8.4043 66.0653 8.4043C66.5021 8.4043 66.8654 8.54275 67.1542 8.82062C67.5135 9.1609 67.6932 9.66887 67.6932 10.3436V13.097V13.097Z" fill="white"/>
<path d="M70.5598 13.0977H69.5215V6.39258H70.5598V13.0977Z" fill="white"/>
<path d="M76.6844 10.7619C76.6844 11.4687 76.4789 12.0479 76.068 12.5022C75.6372 12.9693 75.0654 13.2023 74.3538 13.2023C73.6659 13.2023 73.119 12.979 72.712 12.5305C72.305 12.083 72.1016 11.5185 72.1016 10.8379C72.1016 10.1262 72.311 9.54213 72.7319 9.08875C73.1527 8.63538 73.7185 8.4082 74.4302 8.4082C75.1181 8.4082 75.6689 8.63148 76.0878 9.079C76.4849 9.51385 76.6844 10.0755 76.6844 10.7619ZM75.6044 10.795C75.6044 10.3709 75.5111 10.0072 75.3255 9.70398C75.1081 9.33738 74.7964 9.15408 74.3935 9.15408C73.9746 9.15408 73.657 9.33738 73.4396 9.70398C73.253 10.0072 73.1607 10.3767 73.1607 10.8135C73.1607 11.2377 73.254 11.6013 73.4396 11.9046C73.6649 12.2712 73.9786 12.4545 74.3835 12.4545C74.7806 12.4545 75.0913 12.2682 75.3156 11.8948C75.5091 11.5857 75.6044 11.2191 75.6044 10.795Z" fill="white"/>
<path d="M81.7183 13.098H80.7843L80.7068 12.5685H80.678C80.3584 12.9907 79.9028 13.2023 79.3112 13.2023C78.8695 13.2023 78.5122 13.0629 78.2432 12.786C77.999 12.5344 77.877 12.2214 77.877 11.85C77.877 11.2884 78.1152 10.8603 78.5946 10.5639C79.073 10.2675 79.746 10.1223 80.6125 10.1291V10.0433C80.6125 9.4378 80.289 9.13555 79.6408 9.13555C79.1792 9.13555 78.7723 9.24963 78.4209 9.47583L78.2095 8.80503C78.6442 8.5408 79.1812 8.4082 79.8145 8.4082C81.0374 8.4082 81.6508 9.04195 81.6508 10.3095V12.0021C81.6508 12.4613 81.6736 12.8269 81.7183 13.098ZM80.6383 11.5185V10.8096C79.4909 10.7901 78.9172 11.0992 78.9172 11.7359C78.9172 11.9757 78.9827 12.1551 79.1167 12.2751C79.2507 12.395 79.4214 12.4545 79.6249 12.4545C79.8532 12.4545 80.0666 12.3833 80.2612 12.2419C80.4567 12.0996 80.5768 11.9192 80.6215 11.6979C80.6324 11.6481 80.6383 11.5877 80.6383 11.5185Z" fill="white"/>
<path d="M87.6308 13.0977H86.7077L86.6591 12.3596H86.6303C86.3355 12.9212 85.8332 13.202 85.1275 13.202C84.5637 13.202 84.0942 12.9846 83.722 12.5497C83.3498 12.1149 83.1642 11.5503 83.1642 10.8571C83.1642 10.1132 83.3657 9.51063 83.7706 9.05043C84.1627 8.62143 84.6431 8.40693 85.2148 8.40693C85.8432 8.40693 86.2829 8.6146 86.533 9.03093H86.5529V6.39258H87.5941V11.8594C87.5941 12.3069 87.606 12.7194 87.6308 13.0977ZM86.5529 11.1594V10.393C86.5529 10.2604 86.5429 10.1532 86.5241 10.0713C86.4655 9.82555 86.3395 9.61885 86.1479 9.45213C85.9543 9.2854 85.7211 9.20155 85.4521 9.20155C85.064 9.20155 84.7602 9.35268 84.5369 9.6559C84.3156 9.95913 84.2034 10.3462 84.2034 10.8191C84.2034 11.2734 84.3096 11.642 84.523 11.9257C84.7483 12.228 85.0521 12.3791 85.4322 12.3791C85.7737 12.3791 86.0466 12.2533 86.2541 12.0008C86.4546 11.7678 86.5529 11.487 86.5529 11.1594Z" fill="white"/>
<path d="M96.5262 10.7619C96.5262 11.4687 96.3207 12.0479 95.9098 12.5022C95.479 12.9693 94.9092 13.2023 94.1956 13.2023C93.5097 13.2023 92.9628 12.979 92.5538 12.5305C92.1468 12.083 91.9434 11.5185 91.9434 10.8379C91.9434 10.1262 92.1528 9.54213 92.5737 9.08875C92.9945 8.63538 93.5603 8.4082 94.274 8.4082C94.9598 8.4082 95.5127 8.63148 95.9296 9.079C96.3266 9.51385 96.5262 10.0755 96.5262 10.7619ZM95.4482 10.795C95.4482 10.3709 95.3549 10.0072 95.1693 9.70398C94.9499 9.33738 94.6402 9.15408 94.2353 9.15408C93.8184 9.15408 93.5007 9.33738 93.2814 9.70398C93.0948 10.0072 93.0025 10.3767 93.0025 10.8135C93.0025 11.2377 93.0958 11.6013 93.2814 11.9046C93.5067 12.2712 93.8204 12.4545 94.2253 12.4545C94.6224 12.4545 94.935 12.2682 95.1594 11.8948C95.3509 11.5857 95.4482 11.2191 95.4482 10.795Z" fill="white"/>
<path d="M102.124 13.097H101.085V10.4645C101.085 9.65327 100.771 9.24767 100.141 9.24767C99.8319 9.24767 99.5828 9.35882 99.3902 9.5821C99.1977 9.80537 99.1014 10.0686 99.1014 10.3699V13.096H98.0602V9.81415C98.0602 9.4105 98.0483 8.97272 98.0234 8.49887H98.9366L98.9853 9.21745H99.014C99.1361 8.99417 99.3168 8.8099 99.553 8.66267C99.8359 8.49107 100.151 8.4043 100.497 8.4043C100.933 8.4043 101.296 8.54275 101.585 8.82062C101.945 9.1609 102.124 9.66887 102.124 10.3436V13.097V13.097Z" fill="white"/>
<path d="M109.125 9.26745H107.98V11.5002C107.98 12.0676 108.183 12.3514 108.586 12.3514C108.773 12.3514 108.928 12.3358 109.05 12.3036L109.076 13.0787C108.871 13.1548 108.601 13.1928 108.269 13.1928C107.858 13.1928 107.538 13.0699 107.307 12.8242C107.074 12.5785 106.959 12.1651 106.959 11.585V9.26745H106.275V8.50207H106.959V7.65967L107.979 7.35742V8.5011H109.124V9.26745H109.125Z" fill="white"/>
<path d="M114.626 13.0977H113.585V10.4847C113.585 9.66078 113.271 9.24835 112.643 9.24835C112.161 9.24835 111.831 9.48723 111.65 9.96498C111.62 10.0654 111.602 10.1883 111.602 10.3326V13.0967H110.562V6.39258H111.602V9.16255H111.622C111.949 8.65848 112.419 8.40693 113.027 8.40693C113.458 8.40693 113.814 8.54538 114.097 8.82325C114.45 9.16938 114.626 9.68418 114.626 10.3647V13.0977V13.0977Z" fill="white"/>
<path d="M120.31 10.5815C120.31 10.7648 120.296 10.9188 120.272 11.0446H117.152C117.166 11.4989 117.315 11.8451 117.604 12.0849C117.868 12.2994 118.208 12.4067 118.625 12.4067C119.086 12.4067 119.507 12.3345 119.887 12.1892L120.049 12.899C119.606 13.0882 119.084 13.1828 118.479 13.1828C117.754 13.1828 117.184 12.9731 116.771 12.5539C116.356 12.1346 116.15 11.5721 116.15 10.8662C116.15 10.1729 116.342 9.59574 116.728 9.13554C117.131 8.64414 117.676 8.39844 118.364 8.39844C119.037 8.39844 119.548 8.64414 119.893 9.13554C120.172 9.52554 120.31 10.0082 120.31 10.5815ZM119.318 10.3172C119.326 10.014 119.257 9.75271 119.116 9.53236C118.936 9.24864 118.661 9.10629 118.288 9.10629C117.949 9.10629 117.672 9.24474 117.461 9.52261C117.288 9.74394 117.186 10.0082 117.152 10.3172H119.318Z" fill="white"/>
</svg>
