<svg width="32" height="32" viewBox="0 0 32 32" fill="none" xmlns="http://www.w3.org/2000/svg">
<path d="M0.761719 23.6197C0.761719 24.321 1.33025 24.8895 2.03156 24.8895H29.9681C30.6694 24.8895 31.2379 24.321 31.2379 23.6197V23.6197C31.2379 22.9183 30.6694 22.3498 29.9681 22.3498H2.03156C1.33025 22.3498 0.761719 22.9183 0.761719 23.6197V23.6197ZM0.761719 16.0004C0.761719 16.7016 1.33016 17.2701 2.03136 17.2701H29.9683C30.6695 17.2701 31.2379 16.7016 31.2379 16.0004V16.0004C31.2379 15.2992 30.6695 14.7308 29.9683 14.7308H2.03136C1.33016 14.7308 0.761719 15.2992 0.761719 16.0004V16.0004ZM2.03156 7.11133C1.33025 7.11133 0.761719 7.67986 0.761719 8.38117V8.38117C0.761719 9.08248 1.33025 9.65101 2.03156 9.65101H29.9681C30.6694 9.65101 31.2379 9.08248 31.2379 8.38117V8.38117C31.2379 7.67986 30.6694 7.11133 29.9681 7.11133H2.03156Z" fill="white"/>
</svg>
