<svg width="185" height="69" viewBox="0 0 185 69" fill="none" xmlns="http://www.w3.org/2000/svg">
<path d="M182.818 25.3721C183.203 29.2902 181.371 33.4425 177.273 37.6529C173.182 41.8567 166.978 45.9576 159.049 49.6976C143.203 57.1719 120.777 63.0617 95.5367 65.5372C70.2966 68.0126 47.1509 66.5922 30.1512 62.3393C21.6446 60.2111 14.7596 57.394 9.9274 54.0654C5.08763 50.7315 2.48058 47.0147 2.09503 43.0965C1.70949 39.1783 3.54222 35.026 7.63964 30.8157C11.7307 26.6119 17.935 22.511 25.8641 18.771C41.7099 11.2967 64.1362 5.40686 89.3763 2.93144C114.616 0.456013 137.762 1.8764 154.762 6.12931C163.268 8.25746 170.153 11.0746 174.986 14.4032C179.825 17.7371 182.432 21.4539 182.818 25.3721Z" stroke="#FD9723" stroke-width="3"/>
</svg>
