<svg width="168" height="18" viewBox="0 0 168 18" fill="none" xmlns="http://www.w3.org/2000/svg">
<path d="M166 5.07659C159.582 3.40144 153.259 2.52808 145.888 2.25704C134.695 1.84546 123.373 2.05165 112.161 2.05165C93.3169 2.05165 74.8586 3.11896 56.3136 4.74982C42.5686 5.95857 28.8678 7.18446 15.4085 9.03516C11.7555 9.53746 8.094 10.0613 4.53835 10.7157C4.18004 10.7816 2.06856 11.0702 2.00072 11.3879C1.93042 11.7171 7.05993 11.7722 7.20855 11.7707C16.2064 11.6811 25.3023 10.5384 34.2324 10.0155C48.4973 9.18018 62.5524 8.78451 76.9177 8.77374C90.4239 8.76362 104.1 8.4861 117.558 9.14719C126.193 9.57138 134.78 10.2833 143.161 11.3879C144.821 11.6067 146.484 11.805 148.123 12.0601C148.611 12.1362 148.825 12.1348 148.199 12.1348C136.576 12.1348 125.207 12.0423 113.732 13.1431C107.614 13.7301 101.477 14.2795 95.5523 15.2531C94.2809 15.462 92.7159 16 91.3481 16" stroke="#FD9723" stroke-width="3" stroke-linecap="round"/>
</svg>
