<svg width="134" height="39" viewBox="0 0 134 39" fill="none" xmlns="http://www.w3.org/2000/svg">
<path d="M129.037 39H4.96296C2.23457 39 0 36.805 0 34.125V4.875C0 2.19497 2.23457 4.42321e-06 4.96296 4.42321e-06H129.037C131.765 4.42321e-06 134 2.19497 134 4.875V34.125C134 36.805 131.765 39 129.037 39Z" fill="#3C2358"/>
<path d="M129.037 0.781222C131.335 0.781222 133.205 2.61788 133.205 4.875V34.125C133.205 36.3821 131.335 38.2188 129.037 38.2188H4.96296C2.66511 38.2188 0.795315 36.3821 0.795315 34.125V4.875C0.795315 2.61788 2.66511 0.781222 4.96296 0.781222H129.037ZM129.037 4.42321e-06H4.96296C2.23457 4.42321e-06 0 2.19497 0 4.875V34.125C0 36.805 2.23457 39 4.96296 39H129.037C131.765 39 134 36.805 134 34.125V4.875C134 2.19497 131.765 4.42321e-06 129.037 4.42321e-06Z" fill="#592594"/>
<path d="M47.063 9.98764C47.063 10.8018 46.8149 11.4538 46.326 11.9401C45.764 12.5165 45.032 12.8066 44.1349 12.8066C43.2775 12.8066 42.5455 12.5117 41.945 11.9303C41.3432 11.3405 41.043 10.6165 41.043 9.74998C41.043 8.88345 41.3432 8.15952 41.945 7.57452C42.5455 6.9883 43.2775 6.69336 44.1349 6.69336C44.5617 6.69336 44.9687 6.77989 45.357 6.94077C45.7441 7.10286 46.0593 7.32223 46.2876 7.5928L45.7689 8.10711C45.3707 7.6452 44.8285 7.4173 44.1349 7.4173C43.5096 7.4173 42.9674 7.6318 42.507 8.06445C42.0517 8.49833 41.8234 9.06017 41.8234 9.74998C41.8234 10.4398 42.0517 11.0065 42.507 11.4404C42.9674 11.8682 43.5096 12.0875 44.1349 12.0875C44.7987 12.0875 45.357 11.8682 45.7975 11.4355C46.0878 11.1491 46.2528 10.7542 46.2963 10.2497H44.1349V9.54523H47.0184C47.0531 9.69758 47.063 9.84505 47.063 9.98764V9.98764Z" fill="white" stroke="white" stroke-width="0.16" stroke-miterlimit="10"/>
<path d="M51.6413 7.54597H48.9328V9.39847H51.3746V10.1029H48.9328V11.9554H51.6413V12.6732H48.166V6.82812H51.6413V7.54597Z" fill="white" stroke="white" stroke-width="0.16" stroke-miterlimit="10"/>
<path d="M54.8715 12.6732H54.1047V7.54597H52.4434V6.82812H56.5341V7.54597H54.8715V12.6732V12.6732Z" fill="white" stroke="white" stroke-width="0.16" stroke-miterlimit="10"/>
<path d="M59.4922 12.6732V6.82812H60.257V12.6732H59.4922Z" fill="white" stroke="white" stroke-width="0.16" stroke-miterlimit="10"/>
<path d="M63.6527 12.6732H62.8922V7.54597H61.2246V6.82812H65.3203V7.54597H63.6527V12.6732Z" fill="white" stroke="white" stroke-width="0.16" stroke-miterlimit="10"/>
<path d="M73.061 11.9206C72.4742 12.5117 71.7471 12.8066 70.8798 12.8066C70.0076 12.8066 69.2805 12.5117 68.6936 11.9206C68.108 11.3307 67.8164 10.6068 67.8164 9.74998C67.8164 8.8932 68.108 8.16927 68.6936 7.57939C69.2805 6.9883 70.0076 6.69336 70.8798 6.69336C71.7421 6.69336 72.4692 6.9883 73.0561 7.58427C73.6467 8.17902 73.9382 8.89808 73.9382 9.74998C73.9382 10.6068 73.6467 11.3307 73.061 11.9206ZM69.2606 11.4306C69.7023 11.8682 70.2396 12.0875 70.8798 12.0875C71.5151 12.0875 72.0573 11.8682 72.494 11.4306C72.9345 10.9931 73.1578 10.4313 73.1578 9.74998C73.1578 9.0687 72.9345 8.50686 72.494 8.06933C72.0573 7.6318 71.5151 7.41242 70.8798 7.41242C70.2396 7.41242 69.7023 7.6318 69.2606 8.06933C68.8202 8.50686 68.5968 9.0687 68.5968 9.74998C68.5968 10.4313 68.8202 10.9931 69.2606 11.4306V11.4306Z" fill="white" stroke="white" stroke-width="0.16" stroke-miterlimit="10"/>
<path d="M75.0156 12.6732V6.82812H75.9462L78.8396 11.3741H78.8731L78.8396 10.2504V6.82812H79.6051V12.6732H78.8061L75.7762 7.90306H75.7427L75.7762 9.03162V12.6732H75.0156V12.6732Z" fill="white" stroke="white" stroke-width="0.16" stroke-miterlimit="10"/>
<path d="M67.6287 21.2077C65.2973 21.2077 63.3928 22.9506 63.3928 25.3551C63.3928 27.7402 65.2973 29.5013 67.6287 29.5013C69.965 29.5013 71.8695 27.7402 71.8695 25.3551C71.8695 22.9506 69.965 21.2077 67.6287 21.2077ZM67.6287 27.8682C66.3495 27.8682 65.2489 26.831 65.2489 25.3551C65.2489 23.8597 66.3495 22.8409 67.6287 22.8409C68.9079 22.8409 70.0134 23.8597 70.0134 25.3551C70.0134 26.831 68.9079 27.8682 67.6287 27.8682V27.8682ZM58.3864 21.2077C56.0501 21.2077 54.1505 22.9506 54.1505 25.3551C54.1505 27.7402 56.0501 29.5013 58.3864 29.5013C60.7215 29.5013 62.6223 27.7402 62.6223 25.3551C62.6223 22.9506 60.7215 21.2077 58.3864 21.2077ZM58.3864 27.8682C57.1059 27.8682 56.0017 26.831 56.0017 25.3551C56.0017 23.8597 57.1059 22.8409 58.3864 22.8409C59.6656 22.8409 60.7661 23.8597 60.7661 25.3551C60.7661 26.831 59.6656 27.8682 58.3864 27.8682ZM47.3885 22.4789V24.2412H51.6727C51.5474 25.226 51.2124 25.9499 50.6988 26.4545C50.0734 27.0638 49.0994 27.7402 47.3885 27.7402C44.7519 27.7402 42.6873 25.6501 42.6873 23.0602C42.6873 20.4704 44.7519 18.3802 47.3885 18.3802C48.8141 18.3802 49.8513 18.9275 50.6169 19.6368L51.8812 18.3949C50.8104 17.3906 49.3861 16.6191 47.3885 16.6191C43.7729 16.6191 40.7344 19.5088 40.7344 23.0602C40.7344 26.6117 43.7729 29.5013 47.3885 29.5013C49.3426 29.5013 50.8104 28.8725 51.9643 27.6927C53.1467 26.5312 53.5152 24.8981 53.5152 23.5794C53.5152 23.1699 53.4805 22.7933 53.4185 22.4789H47.3885ZM92.3603 23.8451C92.0117 22.9176 90.936 21.2077 88.7448 21.2077C86.5735 21.2077 84.7658 22.8884 84.7658 25.3551C84.7658 27.6781 86.5549 29.5013 88.9533 29.5013C90.8925 29.5013 92.0117 28.3399 92.472 27.6635L91.0328 26.7214C90.5526 27.4112 89.8987 27.8682 88.9533 27.8682C88.014 27.8682 87.3403 27.4453 86.9085 26.6117L92.5551 24.3168L92.3603 23.8451V23.8451ZM86.6033 25.226C86.5549 23.627 87.8676 22.808 88.8081 22.808C89.5451 22.808 90.1704 23.1699 90.3789 23.6879L86.6033 25.226V25.226ZM82.0138 29.249H83.87V17.0616H82.0138V29.249ZM78.974 22.1316H78.912C78.4951 21.6465 77.6998 21.2077 76.6923 21.2077C74.5781 21.2077 72.645 23.031 72.645 25.3685C72.645 27.6927 74.5781 29.5013 76.6923 29.5013C77.6998 29.5013 78.4951 29.0589 78.912 28.5592H78.974V29.154C78.974 30.7396 78.1117 31.5915 76.7208 31.5915C75.5868 31.5915 74.8833 30.7871 74.5929 30.1107L72.9787 30.7725C73.444 31.8718 74.6761 33.2246 76.7208 33.2246C78.8971 33.2246 80.7334 31.9669 80.7334 28.9066V21.46H78.974V22.1316V22.1316ZM76.8511 27.8682C75.5719 27.8682 74.5011 26.8164 74.5011 25.3685C74.5011 23.9073 75.5719 22.8409 76.8511 22.8409C78.1117 22.8409 79.1055 23.9073 79.1055 25.3685C79.1055 26.8164 78.1117 27.8682 76.8511 27.8682V27.8682ZM101.05 17.0616H96.6111V29.249H98.4623V24.6312H101.05C103.106 24.6312 105.123 23.1699 105.123 20.8458C105.123 18.5228 103.101 17.0616 101.05 17.0616V17.0616ZM101.099 22.9359H98.4623V18.7568H101.099C102.481 18.7568 103.27 19.8842 103.27 20.8458C103.27 21.7891 102.481 22.9359 101.099 22.9359ZM112.542 21.1846C111.205 21.1846 109.814 21.7647 109.242 23.0505L110.885 23.7269C111.238 23.0505 111.888 22.8311 112.576 22.8311C113.536 22.8311 114.51 23.3978 114.525 24.3984V24.5264C114.19 24.3363 113.473 24.0547 112.591 24.0547C110.821 24.0547 109.019 25.0115 109.019 26.7969C109.019 28.43 110.468 29.4818 112.097 29.4818C113.343 29.4818 114.03 28.9297 114.462 28.2875H114.525V29.2295H116.313V24.5544C116.313 22.3936 114.67 21.1846 112.542 21.1846ZM112.319 27.8633C111.713 27.8633 110.87 27.5684 110.87 26.831C110.87 25.8877 111.922 25.5258 112.833 25.5258C113.648 25.5258 114.03 25.7025 114.525 25.9353C114.38 27.0638 113.391 27.8633 112.319 27.8633V27.8633ZM122.827 21.4515L120.699 26.7348H120.636L118.436 21.4515H116.439L119.745 28.8347L117.859 32.9431H119.793L124.886 21.4515H122.827V21.4515ZM106.14 29.249H107.996V17.0616H106.14V29.249Z" fill="white"/>
<path d="M10.3588 7.35057C10.0672 7.65038 9.89844 8.11716 9.89844 8.72166V30.2838C9.89844 30.8883 10.0672 31.3551 10.3588 31.6549L10.4307 31.7207L22.7314 19.6429V19.3577L10.4307 7.27988L10.3588 7.35057Z" fill="url(#paint0_linear_502_23110)"/>
<path d="M26.832 23.6699L22.7363 19.642V19.3568L26.837 15.3288L26.9288 15.3812L31.785 18.0954C33.171 18.8656 33.171 20.1331 31.785 20.9082L26.9288 23.6175L26.832 23.6699V23.6699Z" fill="url(#paint1_linear_502_23110)"/>
<path d="M26.9206 23.6182L22.7281 19.5L10.3555 31.6546C10.8158 32.1299 11.5664 32.1872 12.4201 31.7119L26.9206 23.6182" fill="url(#paint2_linear_502_23110)"/>
<path d="M26.9206 15.3818L12.4201 7.28813C11.5664 6.81769 10.8158 6.87497 10.3555 7.35028L22.7281 19.5L26.9206 15.3818Z" fill="url(#paint3_linear_502_23110)"/>
<defs>
<linearGradient id="paint0_linear_502_23110" x1="21.6393" y1="30.5083" x2="5.27904" y2="13.8529" gradientUnits="userSpaceOnUse">
<stop stop-color="#00A0FF"/>
<stop offset="0.0066" stop-color="#00A1FF"/>
<stop offset="0.2601" stop-color="#00BEFF"/>
<stop offset="0.5122" stop-color="#00D2FF"/>
<stop offset="0.7604" stop-color="#00DFFF"/>
<stop offset="1" stop-color="#00E3FF"/>
</linearGradient>
<linearGradient id="paint1_linear_502_23110" x1="33.5897" y1="19.498" x2="9.57207" y2="19.498" gradientUnits="userSpaceOnUse">
<stop stop-color="#FFE000"/>
<stop offset="0.4087" stop-color="#FFBD00"/>
<stop offset="0.7754" stop-color="#FFA500"/>
<stop offset="1" stop-color="#FF9C00"/>
</linearGradient>
<linearGradient id="paint2_linear_502_23110" x1="24.6409" y1="17.2613" x2="2.45507" y2="-5.3248" gradientUnits="userSpaceOnUse">
<stop stop-color="#FF3A44"/>
<stop offset="1" stop-color="#C31162"/>
</linearGradient>
<linearGradient id="paint3_linear_502_23110" x1="7.24101" y1="38.8282" x2="17.148" y2="28.7426" gradientUnits="userSpaceOnUse">
<stop stop-color="#32A071"/>
<stop offset="0.0685" stop-color="#2DA771"/>
<stop offset="0.4762" stop-color="#15CF74"/>
<stop offset="0.8009" stop-color="#06E775"/>
<stop offset="1" stop-color="#00F076"/>
</linearGradient>
</defs>
</svg>
