<svg width="138" height="25" viewBox="0 0 138 25" fill="none" xmlns="http://www.w3.org/2000/svg">
<g clip-path="url(#clip0_502_23136)">
<path d="M12.5553 25C19.4894 25 25.1106 19.4036 25.1106 12.5C25.1106 5.59644 19.4894 0 12.5553 0C5.62121 0 0 5.59644 0 12.5C0 19.4036 5.62121 25 12.5553 25Z" fill="url(#paint0_linear_502_23136)"/>
<path d="M40.7836 25C47.7178 25 53.339 19.4036 53.339 12.5C53.339 5.59644 47.7178 0 40.7836 0C33.8495 0 28.2283 5.59644 28.2283 12.5C28.2283 19.4036 33.8495 25 40.7836 25Z" fill="url(#paint1_linear_502_23136)"/>
<path d="M68.9838 25C75.918 25 81.5392 19.4036 81.5392 12.5C81.5392 5.59644 75.918 0 68.9838 0C62.0497 0 56.4285 5.59644 56.4285 12.5C56.4285 19.4036 62.0497 25 68.9838 25Z" fill="url(#paint2_linear_502_23136)"/>
<path d="M97.2163 25C104.15 25 109.772 19.4036 109.772 12.5C109.772 5.59644 104.15 0 97.2163 0C90.2822 0 84.661 5.59644 84.661 12.5C84.661 19.4036 90.2822 25 97.2163 25Z" fill="url(#paint3_linear_502_23136)"/>
<path d="M125.445 25C132.379 25 138 19.4036 138 12.5C138 5.59644 132.379 0 125.445 0C118.511 0 112.889 5.59644 112.889 12.5C112.889 19.4036 118.511 25 125.445 25Z" fill="url(#paint4_linear_502_23136)"/>
<path d="M12.5554 20.2648C12.2501 20.2648 11.9488 20.1768 11.6876 20.0048C11.2537 19.7168 10.9926 19.2328 10.9926 18.7128V12.5008C10.9926 11.6448 11.6916 10.9488 12.5514 10.9488C13.4112 10.9488 14.1103 11.6448 14.1103 12.5008V16.3888L15.7696 15.7048L17.1035 12.5008L15.7696 9.29682L11.9568 7.72482C11.1613 7.39682 10.7836 6.48882 11.1131 5.69682C11.4425 4.90482 12.3546 4.52882 13.1501 4.85682L17.5615 6.67682C17.9432 6.83282 18.2485 7.13682 18.4052 7.51682L20.2333 11.9088C20.39 12.2888 20.39 12.7168 20.2333 13.0968L18.4052 17.4888C18.2485 17.8688 17.9432 18.1728 17.5615 18.3288L13.1501 20.1488C12.9612 20.2248 12.7563 20.2648 12.5554 20.2648Z" fill="white"/>
<path d="M40.7837 20.2653C40.5787 20.2653 40.3779 20.2253 40.185 20.1453L35.7736 18.3253C35.2915 18.1253 34.9419 17.7013 34.8415 17.1933C34.741 16.6853 34.9017 16.1573 35.2673 15.7933L42.4389 8.65333L40.7796 7.96933L36.9668 9.54133C36.1713 9.86933 35.2593 9.49333 34.9299 8.70133C34.6004 7.90933 34.9781 7.00133 35.7736 6.67333L40.185 4.85333C40.5667 4.69733 40.9966 4.69733 41.3783 4.85333L45.7897 6.67333C46.2718 6.87333 46.6214 7.29733 46.7218 7.80533C46.8223 8.31333 46.6615 8.84133 46.2959 9.20533L39.1284 16.3493L40.7877 17.0333L44.6005 15.4613C45.396 15.1333 46.308 15.5093 46.6374 16.3013C46.9669 17.0933 46.5892 18.0013 45.7937 18.3293L41.3823 20.1493C41.1894 20.2253 40.9886 20.2653 40.7837 20.2653Z" fill="white"/>
<path d="M92.8049 18.4452C92.1942 18.4452 91.6116 18.0852 91.3625 17.4852L89.5344 13.0932C89.3778 12.7132 91.3625 7.51323 91.3625 7.51323C91.5634 7.03323 91.9893 6.68523 92.4995 6.58523C93.0098 6.48523 93.5401 6.64523 93.9057 7.00923L101.077 14.1492L101.764 12.4972L100.185 8.70123C99.8559 7.90923 100.234 7.00123 101.029 6.67323C101.825 6.34523 102.737 6.72123 103.066 7.51323L104.894 11.9052C105.051 12.2852 105.051 12.7132 104.894 13.0932L103.066 17.4852C102.865 17.9652 102.439 18.3132 101.929 18.4132C101.419 18.5132 100.888 18.3532 100.523 17.9892L93.3513 10.8492L92.6642 12.5012L94.2432 16.2972C94.5726 17.0892 94.195 17.9972 93.3995 18.3252C93.2066 18.4092 93.0017 18.4452 92.8049 18.4452Z" fill="white"/>
<path d="M68.9839 18.4446C68.1241 18.4446 67.425 17.7486 67.425 16.8926V8.10864C67.425 7.25264 68.1241 6.55664 68.9839 6.55664C69.8437 6.55664 70.5428 7.25264 70.5428 8.10864V16.8926C70.5468 17.7486 69.8477 18.4446 68.9839 18.4446Z" fill="white"/>
<path d="M125.445 20.2649C125.244 20.2649 125.039 20.2249 124.846 20.1449L120.435 18.3249C120.053 18.1689 119.748 17.8649 119.591 17.4849L117.763 13.0929C117.606 12.7129 117.606 12.2849 117.763 11.9049L119.591 7.51292C119.748 7.13292 120.053 6.82892 120.435 6.67292L124.846 4.85292C125.642 4.52492 126.554 4.90092 126.883 5.69292C127.212 6.48492 126.835 7.39292 126.039 7.72092L122.227 9.29292L120.893 12.4969L122.227 15.7009L123.886 16.3849V12.4969C123.886 11.6409 124.585 10.9449 125.445 10.9449C126.305 10.9449 127.004 11.6409 127.004 12.4969V18.7089C127.004 19.2289 126.742 19.7129 126.309 20.0009C126.051 20.1769 125.75 20.2649 125.445 20.2649Z" fill="white"/>
</g>
<defs>
<linearGradient id="paint0_linear_502_23136" x1="12.5551" y1="0.32916" x2="12.5551" y2="24.3882" gradientUnits="userSpaceOnUse">
<stop stop-color="#FECB25"/>
<stop offset="1" stop-color="#EF7A00"/>
</linearGradient>
<linearGradient id="paint1_linear_502_23136" x1="40.785" y1="0.32916" x2="40.785" y2="24.3882" gradientUnits="userSpaceOnUse">
<stop stop-color="#FECB25"/>
<stop offset="1" stop-color="#EF7A00"/>
</linearGradient>
<linearGradient id="paint2_linear_502_23136" x1="68.9855" y1="0.32916" x2="68.9855" y2="24.3882" gradientUnits="userSpaceOnUse">
<stop stop-color="#FECB25"/>
<stop offset="1" stop-color="#EF7A00"/>
</linearGradient>
<linearGradient id="paint3_linear_502_23136" x1="97.2156" y1="0.32916" x2="97.2156" y2="24.3882" gradientUnits="userSpaceOnUse">
<stop stop-color="#FECB25"/>
<stop offset="1" stop-color="#EF7A00"/>
</linearGradient>
<linearGradient id="paint4_linear_502_23136" x1="125.446" y1="0.32916" x2="125.446" y2="24.3882" gradientUnits="userSpaceOnUse">
<stop stop-color="#FECB25"/>
<stop offset="1" stop-color="#EF7A00"/>
</linearGradient>
<clipPath id="clip0_502_23136">
<rect width="138" height="25" fill="white"/>
</clipPath>
</defs>
</svg>
