<svg width="18" height="18" viewBox="0 0 18 18" fill="none" xmlns="http://www.w3.org/2000/svg">
<g clip-path="url(#clip0_71_1283)">
<path fill-rule="evenodd" clip-rule="evenodd" d="M13.1237 10.7955C12.8997 10.6834 11.7987 10.1417 11.5934 10.0669C11.3882 9.99217 11.2389 9.95487 11.0896 10.179C10.9403 10.4031 10.5112 10.9076 10.3805 11.0571C10.2499 11.2065 10.1193 11.2253 9.89536 11.1131C9.67141 11.0011 8.94983 10.7646 8.09448 10.0016C7.4288 9.4078 6.97932 8.67448 6.84872 8.45029C6.71808 8.2261 6.83476 8.10491 6.94688 7.99326C7.04767 7.89292 7.17086 7.7317 7.28279 7.60091C7.3948 7.4702 7.4321 7.37672 7.50674 7.22734C7.58137 7.07786 7.54407 6.94711 7.48804 6.83503C7.4321 6.72296 6.98425 5.62067 6.79764 5.17221C6.61584 4.73561 6.43124 4.79474 6.29378 4.78782C6.16331 4.78135 6.01383 4.77998 5.86459 4.77998C5.71532 4.77998 5.47267 4.83602 5.26739 5.06014C5.06215 5.28433 4.48365 5.82616 4.48365 6.92834C4.48365 8.03066 5.28606 9.09544 5.39803 9.24493C5.51 9.39441 6.97711 11.6563 9.22359 12.6263C9.75783 12.8571 10.175 12.9948 10.5002 13.098C11.0366 13.2685 11.5248 13.2444 11.9107 13.1868C12.3409 13.1225 13.2356 12.6451 13.4222 12.122C13.6088 11.5988 13.6088 11.1505 13.5528 11.0571C13.4969 10.9636 13.3476 10.9076 13.1237 10.7955ZM9.03765 16.3745H9.03463C7.69792 16.374 6.38691 16.0149 5.2432 15.3362L4.97116 15.1748L2.15184 15.9143L2.90436 13.1655L2.72728 12.8836C1.98158 11.6976 1.58773 10.3269 1.58832 8.91931C1.58998 4.81218 4.93168 1.47075 9.04061 1.47075C11.0303 1.47142 12.9006 2.24729 14.307 3.65533C15.7135 5.06334 16.4875 6.93491 16.4868 8.92532C16.4851 13.0328 13.1434 16.3745 9.03765 16.3745ZM15.3774 2.58542C13.6853 0.891379 11.4351 -0.0419844 9.03755 -0.0429688C4.0976 -0.0429688 0.0770977 3.97729 0.0750937 8.91875C0.0744609 10.4984 0.487125 12.0401 1.27146 13.3993L0 18.0436L4.75105 16.7973C6.06013 17.5113 7.53398 17.8876 9.034 17.8881H9.03769C13.9771 17.8881 17.998 13.8674 18 8.92592C18.0009 6.53118 17.0695 4.27946 15.3774 2.58542Z" fill="#C39027"/>
</g>
<defs>
<clipPath id="clip0_71_1283">
<rect width="18" height="18" fill="white"/>
</clipPath>
</defs>
</svg>
