<svg width="18" height="18" viewBox="0 0 18 18" fill="none" xmlns="http://www.w3.org/2000/svg">
<path d="M16.6936 3.2254L16.6938 3.22441C16.8146 2.65768 16.7583 2.03885 16.3225 1.61675C15.8757 1.18399 15.2694 1.18653 14.806 1.36028L14.806 1.36025L14.7998 1.36267L2.3799 6.14748L2.3799 6.14747L2.37634 6.14887C2.11471 6.25119 1.87095 6.38251 1.67656 6.55394C1.48614 6.72189 1.28491 6.98274 1.25392 7.33614C1.2208 7.71373 1.39638 8.01627 1.6038 8.21143C1.8002 8.39624 2.04626 8.51154 2.28223 8.58522L5.45704 9.57892C5.66677 9.64456 5.89473 9.61492 6.0807 9.49783L7.92928 8.33384L6.99091 9.18178C6.84714 9.31168 6.75924 9.49219 6.7456 9.68547L6.51433 12.964C6.49969 13.1715 6.57194 13.3759 6.7138 13.5281C6.85567 13.6803 7.0544 13.7667 7.26248 13.7667C7.54881 13.7667 7.79958 13.7014 8.02256 13.5718C8.20835 13.4638 8.34862 13.3229 8.42591 13.2453C8.42897 13.2422 8.43194 13.2392 8.43481 13.2363L9.52676 12.1861L12.2368 14.1831C12.2618 14.2015 12.2879 14.2183 12.3149 14.2335C12.6981 14.4484 13.2214 14.6117 13.7377 14.376C14.2494 14.1424 14.4783 13.6419 14.5789 13.1981L14.579 13.1982L14.5811 13.1879L16.6936 3.2254Z" stroke="#C39027" stroke-width="1.5" stroke-miterlimit="10" stroke-linecap="round" stroke-linejoin="round"/>
</svg>
