<svg width="14" height="14" viewBox="0 0 14 14" fill="none" xmlns="http://www.w3.org/2000/svg">
<g clip-path="url(#clip0_71_2157)">
<path d="M0.3 13.7001C0.5 13.9001 0.7 14.0001 1 14.0001C1.3 14.0001 1.5 13.9001 1.7 13.7001L7 8.40006L12.3 13.7001C12.5 13.9001 12.8 14.0001 13 14.0001C13.2 14.0001 13.5 13.9001 13.7 13.7001C14.1 13.3001 14.1 12.7001 13.7 12.3001L8.4 7.00006L13.7 1.70006C14.1 1.30006 14.1 0.700061 13.7 0.300061C13.3 -0.099939 12.7 -0.099939 12.3 0.300061L7 5.60006L1.7 0.300061C1.3 -0.099939 0.7 -0.099939 0.3 0.300061C-0.1 0.700061 -0.1 1.30006 0.3 1.70006L5.6 7.00006L0.3 12.3001C-0.1 12.7001 -0.1 13.3001 0.3 13.7001Z" fill="white"/>
</g>
<defs>
<clipPath id="clip0_71_2157">
<rect width="14" height="14" fill="white"/>
</clipPath>
</defs>
</svg>
