<svg width="41" height="41" viewBox="0 0 41 41" fill="none" xmlns="http://www.w3.org/2000/svg">
<g clip-path="url(#clip0_41_287)">
<path d="M14.4713 23.5696H13.6577C14.9604 23.0805 15.9975 22.0519 16.6636 20.5595C17.8777 17.8402 17.5784 14.1977 15.9975 12.4355C14.8971 11.2087 13.5607 10.6353 11.79 10.6353C10.0152 10.6353 8.67454 11.2087 7.5742 12.4355C5.99325 14.1977 5.69393 17.8402 6.90809 20.5595C7.5742 22.0519 8.6113 23.0805 9.91821 23.5696H9.10455C4.36172 23.5696 0.5 27.4313 0.5 32.1741V36.2888C0.5 38.4136 2.2285 40.1421 4.35329 40.1421H19.2226C21.3474 40.1421 23.0759 38.4136 23.0759 36.2888V32.1741C23.0759 27.4313 19.2184 23.5696 14.4713 23.5696ZM7.80185 20.1632C6.76897 17.8444 7.00084 14.5392 8.30354 13.089C9.21838 12.0687 10.2934 11.6134 11.7943 11.6134C13.2867 11.6134 14.3617 12.0687 15.2766 13.089C16.5793 14.5392 16.8111 17.8444 15.7782 20.1632C15.2175 21.4195 14.0708 22.9203 11.79 22.9203C9.51349 22.9246 8.36256 21.4237 7.80185 20.1632ZM22.102 36.2888C22.102 37.874 20.812 39.1682 19.2226 39.1682H18.6282V31.9254C18.6282 31.6556 18.4089 31.4364 18.1391 31.4364C17.8693 31.4364 17.6501 31.6556 17.6501 31.9254V39.164H5.9258V31.9254C5.9258 31.6556 5.70658 31.4364 5.43676 31.4364C5.16695 31.4364 4.94772 31.6556 4.94772 31.9254V39.164H4.35329C2.76813 39.164 1.47386 37.874 1.47386 36.2846V32.1699C1.47386 27.9625 4.89713 24.5392 9.10455 24.5392H14.4713C18.6787 24.5392 22.102 27.9625 22.102 32.1699V36.2888ZM40.3524 4.92287C40.3524 4.79639 40.3061 4.66991 40.2091 4.57717L35.9174 0.285429C35.8246 0.19268 35.6981 0.14209 35.5717 0.14209H26.2884C25.9132 0.14209 25.6054 0.445631 25.6054 0.825058V20.4203C25.6054 20.7955 25.9089 21.1033 26.2884 21.1033H39.6737C40.0489 21.1033 40.3567 20.7998 40.3567 20.4203L40.3524 4.92287ZM36.0607 1.80735L38.6914 4.43804H36.0607V1.80735ZM26.5835 20.1252V1.11595H35.0826V4.92287C35.0826 5.19268 35.3018 5.4119 35.5717 5.4119H39.3786V20.1252H26.5835ZM28.3963 4.92287C28.3963 4.65305 28.6155 4.43383 28.8853 4.43383H32.7766C33.0464 4.43383 33.2656 4.65305 33.2656 4.92287C33.2656 5.19268 33.0464 5.4119 32.7766 5.4119H28.8853C28.6155 5.4119 28.3963 5.19268 28.3963 4.92287ZM37.2538 8.55271C37.2538 8.82253 37.0346 9.04175 36.7648 9.04175H28.8853C28.6155 9.04175 28.3963 8.82253 28.3963 8.55271C28.3963 8.2829 28.6155 8.06367 28.8853 8.06367H36.7648C37.0346 8.06367 37.2538 8.2829 37.2538 8.55271ZM11.3052 9.17666V5.17582C11.3052 4.37059 11.9629 3.71292 12.7681 3.71292H22.9663L22.2116 2.95828C22.0219 2.76857 22.0219 2.46081 22.2116 2.26688C22.4013 2.07717 22.7091 2.07717 22.903 2.26688L24.4924 3.85625C24.6821 4.04597 24.6821 4.35373 24.4924 4.54766L22.903 6.13703C22.8061 6.234 22.6838 6.28037 22.5573 6.28037C22.4309 6.28037 22.3086 6.234 22.2116 6.13703C22.0219 5.94732 22.0219 5.63956 22.2116 5.44563L22.9663 4.69099H12.7681C12.4983 4.69099 12.2791 4.91022 12.2791 5.18003V9.18088C12.2791 9.45069 12.0599 9.66991 11.79 9.66991C11.5245 9.6657 11.3052 9.44647 11.3052 9.17666ZM33.468 22.562V31.3394C33.468 32.1446 32.8103 32.8023 32.0051 32.8023H25.7192L26.4739 33.5569C26.6636 33.7466 26.6636 34.0544 26.4739 34.2483C26.3769 34.3453 26.2546 34.3917 26.1282 34.3917C26.0017 34.3917 25.8794 34.3453 25.7825 34.2483L24.1931 32.659C24.1003 32.5662 24.0497 32.4439 24.0497 32.3133C24.0497 32.1826 24.1003 32.0603 24.1931 31.9676L25.7825 30.3782C25.9722 30.1885 26.2799 30.1885 26.4739 30.3782C26.6636 30.5679 26.6636 30.8756 26.4739 31.0696L25.7192 31.8242H32.0051C32.2749 31.8242 32.4941 31.605 32.4941 31.3352V22.562C32.4941 22.2922 32.7133 22.0729 32.9831 22.0729C33.2529 22.0772 33.468 22.2922 33.468 22.562ZM37.2538 12.7559C37.2538 13.0257 37.0346 13.245 36.7648 13.245H28.8853C28.6155 13.245 28.3963 13.0257 28.3963 12.7559C28.3963 12.4861 28.6155 12.2669 28.8853 12.2669H36.7648C37.0346 12.2669 37.2538 12.4861 37.2538 12.7559ZM37.2538 16.9591C37.2538 17.2289 37.0346 17.4482 36.7648 17.4482H28.8853C28.6155 17.4482 28.3963 17.2289 28.3963 16.9591C28.3963 16.6893 28.6155 16.4701 28.8853 16.4701H36.7648C37.0346 16.4743 37.2538 16.6935 37.2538 16.9591Z" fill="#C39027"/>
</g>
<defs>
<clipPath id="clip0_41_287">
<rect width="40" height="40" fill="white" transform="translate(0.5 0.14209)"/>
</clipPath>
</defs>
</svg>
