<svg width="41" height="41" viewBox="0 0 41 41" fill="none" xmlns="http://www.w3.org/2000/svg">
<g clip-path="url(#clip0_41_263)">
<path d="M7.64595 10.7819H22.232M7.64595 15.2793H15.4859M12.0825 21.9645V33.1472V37.6445L16.5799 33.1472H36.2711C38.3982 33.1472 40.0999 31.4455 40.0999 29.3183V17.9534C40.0999 15.8262 38.3982 14.1245 36.2711 14.1245H28.9173M34.5086 21.9645H31.166M34.5086 26.4619H31.166M26.6686 26.4619H23.326M4.72874 2.94189H25.0884C27.2156 2.94189 28.9173 4.6436 28.9173 6.77073V22.0253V26.5227L24.4199 22.0253H4.72874C2.60161 22.0253 0.899902 20.3236 0.899902 18.1965V6.77073C0.899902 4.6436 2.60161 2.94189 4.72874 2.94189Z" stroke="#C39027" stroke-miterlimit="10" stroke-linecap="round" stroke-linejoin="round"/>
</g>
<defs>
<clipPath id="clip0_41_263">
<rect width="40" height="40" fill="white" transform="translate(0.5 0.14209)"/>
</clipPath>
</defs>
</svg>
