<svg width="40" height="41" viewBox="0 0 40 41" fill="none" xmlns="http://www.w3.org/2000/svg">
<g clip-path="url(#clip0_41_319)">
<path d="M8.2334 35.803V4.48086C8.2334 2.31517 10.0036 0.544922 12.1693 0.544922H27.8309C29.9966 0.544922 31.7668 2.31517 31.7668 4.48086V35.803C31.7668 37.9687 29.9966 39.7389 27.8309 39.7389H12.1693C10.0036 39.7389 8.2334 37.9687 8.2334 35.803ZM17.0511 21.2966C17.4461 21.6523 18.0574 21.6212 18.4132 21.2262L22.076 17.1632C22.4318 16.7682 22.4006 16.1573 22.0061 15.8011L21.0225 14.9143C20.7971 14.7116 20.7787 14.3644 20.9814 14.139L24.9499 9.73633C25.1531 9.51098 25.5003 9.49255 25.7257 9.69523L27.8101 11.5741C29.2723 12.8923 29.3909 15.1619 28.0723 16.6246L18.4991 27.2451C17.181 28.7078 14.9114 28.8259 13.4487 27.5078L11.3643 25.6289C11.1389 25.4262 11.121 25.079 11.3237 24.8536L15.2922 20.4504C15.4949 20.2255 15.8421 20.2071 16.0675 20.4098L17.0511 21.2966ZM22.72 14.9663C23.6016 15.6839 23.6356 17.1131 22.8735 17.9181L19.2295 21.9608C18.4694 22.8042 17.1602 22.8731 16.3169 22.113L15.7405 21.5933L12.5071 25.1805L14.1834 26.6919C15.1972 27.6056 16.7686 27.5248 17.6828 26.511L27.2564 15.8899C28.1701 14.8761 28.0898 13.3047 27.0754 12.3905L25.3987 10.8787L22.1648 14.466L22.72 14.9663ZM26.7509 4.09298C26.0266 4.09298 26.0266 2.99313 26.7509 2.99313H27.9849C28.7087 2.99313 28.7087 4.09298 27.9849 4.09298H26.7509ZM17.8155 4.09298C17.0917 4.09298 17.0917 2.99313 17.8155 2.99313H22.1847C22.9085 2.99313 22.9085 4.09298 22.1847 4.09298H17.8155ZM18.7169 37.7022C17.9932 37.7022 17.9932 36.6024 18.7169 36.6024H21.2833C22.007 36.6024 22.007 37.7022 21.2833 37.7022H18.7169ZM9.33325 35.803C9.33325 37.3621 10.6107 38.6395 12.1693 38.6395H27.8309C29.3895 38.6395 30.667 37.3621 30.667 35.803V34.3989C29.9479 35.1472 28.9421 35.6121 27.8309 35.6121H12.1693C11.0581 35.6121 10.0523 35.1472 9.33325 34.3989V35.803ZM9.33325 31.6762C9.33325 33.2353 10.6107 34.5123 12.1693 34.5123H27.8309C29.3895 34.5123 30.667 33.2353 30.667 31.6762V4.48086C30.667 2.92179 29.3895 1.6443 27.8309 1.6443H12.1693C10.6107 1.6443 9.33325 2.92179 9.33325 4.48086V31.6762Z" fill="#C39027"/>
</g>
<defs>
<clipPath id="clip0_41_319">
<rect width="40" height="40" fill="white" transform="translate(0 0.14209)"/>
</clipPath>
</defs>
</svg>
