<svg width="100" height="100" viewBox="0 0 100 100" fill="none" xmlns="http://www.w3.org/2000/svg">
<g clip-path="url(#clip0_89_1188)">
<path d="M7.36063 75.5L49.4006 99.78C49.8406 100.02 50.4006 100.02 50.8406 99.78L92.8806 75.5C93.3206 75.26 93.6006 74.78 93.6006 74.26V25.7C93.6006 25.18 93.3206 24.7 92.8806 24.46L50.8406 0.18C50.4006 -0.06 49.8406 -0.06 49.4006 0.18L7.36063 24.46C6.92063 24.7 6.64062 25.18 6.64062 25.7V74.26C6.64062 74.78 6.92063 75.26 7.36063 75.5Z" fill="#333333"/>
<path d="M42.8806 70.78L39.6006 72.26L39.9606 77.7L43.6006 75.5L42.8806 70.78Z" fill="#B0AEAD"/>
<path d="M57.3606 70.78L60.6406 72.26L60.2806 77.7L56.6406 75.5L57.3606 70.78Z" fill="#B0AEAD"/>
<path d="M69.1603 80.6199C67.8403 80.2599 65.7603 80.0199 63.0403 79.8999C61.6803 79.8199 60.4803 79.0199 59.9203 77.8199C59.2003 76.2599 58.5603 74.5399 58.5603 72.7799C58.5603 65.0599 70.3603 58.8199 50.5603 58.6199C50.4003 58.6199 50.2403 58.6199 50.1203 58.6199C49.9603 58.6199 49.8403 58.6199 49.6803 58.6199C29.8803 58.8199 41.6803 65.0599 41.6803 72.7799C41.6803 74.5399 41.0403 76.2599 40.3203 77.8199C39.7603 79.0599 38.5603 79.8599 37.2003 79.8999C34.4803 80.0199 32.4003 80.2199 31.0803 80.6199C27.8803 81.4999 25.7603 83.2599 24.2803 85.2999L49.4003 99.8199C49.8403 100.06 50.4003 100.06 50.8403 99.8199L75.9603 85.2999C74.5203 83.2599 72.3603 81.4999 69.1603 80.6199Z" fill="#E5C6AA"/>
<g opacity="0.1">
<path d="M58.6803 71.78C58.9203 69.94 59.7203 68.18 60.5203 66.58C57.2403 69.74 53.5603 71.62 50.1603 71.62C46.7603 71.62 43.0403 69.66 39.7603 66.46C40.5603 68.06 41.4003 69.86 41.6403 71.74C44.4403 73.94 47.4003 76.86 50.1603 76.86C52.9203 76.86 55.8803 73.98 58.6803 71.78Z" fill="black"/>
</g>
<path d="M69.2402 45.34C69.2402 59.7 58.6402 72.5 50.1202 72.38C41.6402 72.26 31.1202 59.14 31.0002 45.14C30.8402 30.78 37.8402 22.02 50.1202 22.02C62.4002 22.02 69.2402 30.98 69.2402 45.34Z" fill="#EFD2B6"/>
<path d="M68.8521 36.5874C68.6952 34.7488 68.1815 31.8041 67.4824 30.0851C65.3566 24.8834 57.752 22.6412 52.6443 22.133C43.185 21.4006 39.8749 22.837 38.8049 24.8849C38.8049 24.8849 27.077 27.4544 29.2742 43.2241L31.8138 52.985C31.8138 52.985 36.3937 39.8161 42.4003 36.5276L41.1019 33.568C41.5442 34.1808 42.0008 34.7787 42.4716 35.3617C42.7284 35.6756 42.9995 36.0044 43.2706 36.3183C44.7116 37.9925 46.3381 39.5769 48.5067 40.3392C50.6897 41.1016 53.1437 40.9222 55.3408 40.3542C57.3525 39.831 59.6781 38.0821 61.804 38.4409C63.3449 38.695 64.3579 40.115 64.9999 41.4753C66.7263 45.0627 68.3385 48.5687 68.8521 52.4999C69.6226 46.9543 69.3372 42.133 68.8521 36.5874Z" fill="#191919"/>
<path d="M70.9604 80.3799L61.0404 79.1399L53.4004 90.6199L50.4804 96.0599C50.3204 96.2999 49.9604 96.3399 49.8404 96.0599L46.5204 90.6199L39.2804 79.1399L29.2804 80.3799C26.4004 80.7399 24.0004 82.1799 22.3604 84.1799L49.4004 99.7799C49.8404 100.02 50.4004 100.02 50.8404 99.7799L77.8803 84.1799C76.2403 82.1399 73.8004 80.6999 70.9604 80.3799Z" fill="#27C3C3"/>
<path d="M44.6806 77.7L45.0406 85.38C45.0806 85.5799 45.3206 85.78 45.4006 85.9799L50.1206 96.3399C50.1606 96.4199 50.0806 96.5 50.0006 96.42L38.1206 80.1L44.6806 77.7Z" fill="#F1F1F1"/>
<path d="M55.5605 77.7L55.2005 85.38C55.1605 85.5799 54.9205 85.78 54.8405 85.9799L50.1205 96.3399C50.0805 96.4199 50.1605 96.5 50.2405 96.42L62.1205 80.1L55.5605 77.7Z" fill="#F1F1F1"/>
<path d="M39.6005 72.26L44.6805 77.7L40.6805 85.3L37.0405 79.14L39.6005 72.26Z" fill="#E3E3E3"/>
<path d="M60.6405 72.26L55.5605 77.7L59.5605 85.3L63.2005 79.14L60.6405 72.26Z" fill="#E3E3E3"/>
</g>
<defs>
<clipPath id="clip0_89_1188">
<rect width="100" height="100" fill="white"/>
</clipPath>
</defs>
</svg>
