<svg width="140" height="140" viewBox="0 0 140 140" fill="none" xmlns="http://www.w3.org/2000/svg">
<path d="M94.0712 36.3416C96.2062 38.4766 99.6654 38.4824 101.8 36.3416L109.407 28.7349C111.539 26.5999 111.533 23.1408 109.407 21.0029L90.2066 1.80828C88.0775 -0.326719 84.6183 -0.326719 82.4833 1.80828L74.8737 9.41495C72.7446 11.5499 72.7446 15.0091 74.8737 17.1383L94.0712 36.3416Z" fill="white" fill-opacity="0.05"/>
<path d="M48.612 82.6524C50.7441 84.7786 54.2032 84.7786 56.3353 82.6524L63.9449 75.0399C66.0799 72.9107 66.0799 69.4486 63.9449 67.3136L44.7445 48.1132C42.6124 45.9841 39.1532 45.9782 37.0182 48.1132L29.4116 55.7199C27.2766 57.8549 27.2824 61.3141 29.4116 63.4491L48.612 82.6524Z" fill="white" fill-opacity="0.05"/>
<path d="M135.768 84.4784L128.048 76.7492C125.907 74.62 122.456 74.62 120.324 76.7492L116.938 80.1325L84.2567 47.4454L91.3354 40.3638L71.6975 20.7317L64.6158 27.8134L55.5975 36.8259L48.6733 43.75L68.3083 63.3879L75.2413 56.4667L107.917 89.1479L104.86 92.2075C102.725 94.3338 102.719 97.7959 104.86 99.9309L112.58 107.654C114.721 109.795 118.178 109.795 120.31 107.654L135.765 92.2046C137.903 90.0667 137.903 86.6134 135.768 84.4784Z" fill="white" fill-opacity="0.05"/>
<path d="M78.6858 107.955C78.6858 104.458 75.8508 101.617 72.3479 101.617H22.8579C19.3579 101.617 16.52 104.458 16.52 107.955V118.242H2.62793L2.62793 139.793H91.7554V118.242H78.6858V107.955Z" fill="white" fill-opacity="0.05"/>
</svg>
