<svg width="100" height="100" viewBox="0 0 100 100" fill="none" xmlns="http://www.w3.org/2000/svg">
<g clip-path="url(#clip0_89_1319)">
<path d="M7.86336 75.5302L49.9202 99.8199C50.3603 100.06 50.9206 100.06 51.3608 99.8199L93.4176 75.5302C93.8577 75.2901 94.1379 74.8099 94.1379 74.2897V25.7103C94.1379 25.1901 93.8577 24.7099 93.4176 24.4698L51.3608 0.180072C50.9206 -0.060024 50.3603 -0.060024 49.9202 0.180072L7.86336 24.4698C7.42318 24.7099 7.14307 25.1901 7.14307 25.7103V74.2897C7.14307 74.8099 7.42318 75.2901 7.86336 75.5302Z" fill="#333333"/>
<path d="M69.6885 80.8123C68.368 80.4521 66.2872 80.212 63.5661 80.092C62.2056 80.012 61.0051 79.2116 60.4449 78.0111C59.7246 76.4505 59.0843 74.7298 59.0843 72.9691C59.0843 65.246 70.889 59.0035 51.0811 58.8035C50.921 58.8035 50.761 58.8035 50.6409 58.8035C50.4809 58.8035 50.3608 58.8035 50.2008 58.8035C30.3928 59.0035 42.1976 65.246 42.1976 72.9691C42.1976 74.7298 41.5573 76.4505 40.837 78.0111C40.2768 79.2516 39.0763 80.052 37.7158 80.092C34.9947 80.212 32.9138 80.4121 31.5933 80.8123C28.4721 81.6926 26.3512 83.3733 24.9106 85.3341L49.9607 99.7799C50.4008 100.02 50.9611 100.02 51.4012 99.7799L76.4513 85.3341C74.9306 83.4133 72.8498 81.6926 69.6885 80.8123Z" fill="#E5C6AA"/>
<g opacity="0.1">
<path d="M59.2044 72.0086C59.4445 70.1679 60.2448 68.4072 61.0452 66.8066C57.7638 69.9678 54.0824 71.8486 50.681 71.8486C47.2797 71.8486 43.5582 69.8878 40.2769 66.6865C41.0772 68.2872 41.9175 70.0879 42.1576 71.9686C44.9587 74.1695 47.9199 77.0907 50.681 77.0907C53.4421 77.0907 56.4033 74.1695 59.2044 72.0086Z" fill="black"/>
</g>
<path d="M69.6482 45.5181C69.6482 59.8838 59.164 72.6889 50.6406 72.5689C42.1572 72.4488 31.633 59.3236 31.5129 45.318C31.3529 30.9523 38.3557 22.2288 50.6406 22.2288C62.9255 22.2288 69.6482 31.1523 69.6482 45.5181Z" fill="#EFD2B6"/>
<path d="M71.4892 80.4921C70.7289 80.2921 69.7685 80.132 68.6081 80.0119L54.0822 94.8979C52.2815 96.6986 49.2003 96.6986 47.3996 94.8979L32.8738 79.9719C31.5933 80.092 30.5528 80.252 29.7525 80.4521C26.7913 81.2124 24.6705 82.653 23.1099 84.2937L49.9206 99.7798C50.3608 100.02 50.921 100.02 51.3612 99.7798L78.1319 84.3337C76.6113 82.693 74.4904 81.2524 71.4892 80.4921Z" fill="#C39027"/>
<path d="M71.849 92.2169C59.6441 84.6939 66.927 70.2881 70.9686 58.9636C75.0502 47.5591 69.0478 24.4698 55.6025 22.1489C41.837 19.7479 34.7141 26.8708 31.3928 35.1141C28.6317 41.9168 29.432 53.2413 31.2327 60.5242C31.6329 62.0449 32.1131 63.4054 32.4732 64.5258C33.5937 68.0072 35.1143 70.6483 36.7549 72.8092C38.6757 75.4502 38.2755 76.5306 38.2755 78.6915C38.2355 78.6515 40.2763 78.4514 40.0763 76.5306C44.5981 81.1725 48.2395 83.2934 46.1187 91.3366C46.0787 91.5367 46.3588 91.6567 46.4788 91.4566C50.2803 83.6535 46.6789 78.6115 45.7585 77.491C46.3188 77.8912 47.7993 79.0917 50.2803 84.0937C50.3604 84.2537 50.6405 84.2137 50.6405 84.0136C50.2403 76.6107 44.518 72.489 40.5164 66.0064C36.3548 59.2837 34.7141 50.4002 41.2367 37.7551C41.2767 37.6351 41.4368 37.6751 41.5168 37.7551C42.5973 39.0757 50.6805 45.3982 62.9254 51.0805C63.0054 51.1205 63.0454 51.2005 63.0454 51.2805C62.7253 52.8812 59.524 68.2073 55.2423 73.6495C55.1623 73.7695 55.2423 73.9696 55.4024 73.9296C57.1631 73.8496 58.3636 73.0893 59.1239 72.369C59.2839 72.2489 59.484 72.409 59.404 72.5691C58.4036 74.5699 56.3628 78.1713 53.9218 80.4922C53.8017 80.6123 53.9218 80.8524 54.0819 80.8124C54.8422 80.6123 55.4424 80.2921 55.9226 79.972C55.4824 81.4926 55.4824 83.6535 56.883 86.4546C56.963 86.6147 57.2431 86.5747 57.2431 86.3746C57.3232 82.6131 58.1635 81.4526 58.6437 81.0925C58.7637 80.9724 58.9638 81.1325 58.9238 81.2925C58.4036 83.2533 56.3228 92.537 64.9262 95.9784C65.1263 96.0584 65.2863 95.8184 65.1263 95.6583C61.0446 92.0969 61.925 87.5751 62.4452 85.9344C62.4852 85.7743 62.7653 85.7743 62.8053 85.9344C63.2055 87.7751 64.9262 92.8172 71.849 92.6171C71.929 92.5771 72.009 92.337 71.849 92.2169Z" fill="#191919"/>
</g>
<defs>
<clipPath id="clip0_89_1319">
<rect width="100" height="100" fill="white"/>
</clipPath>
</defs>
</svg>
