<svg width="207" height="207" viewBox="0 0 207 207" fill="none" xmlns="http://www.w3.org/2000/svg">
<g clip-path="url(#clip0_89_1225)">
<path d="M80.6515 63.2217C85.2161 60.4043 86.7746 54.5879 84.2303 49.8657C81.4494 44.7337 74.9868 43.0021 70.0126 46.0561C65.448 48.8735 63.8895 54.6898 66.4338 59.4121C69.2147 64.544 75.6773 66.2757 80.6515 63.2217ZM174.298 79.0789L171.84 80.4981L135.099 56.9156C137.399 55.2232 139.306 52.8479 140.939 50.6303C143.349 47.2357 141.509 42.4712 137.552 41.2956L137.337 41.2379C134.967 40.6029 132.33 41.3971 130.834 43.5358C129.395 45.4591 127.215 47.9921 124.621 49.4902C116.973 53.9058 108.512 47.1365 80.3784 63.3794C52.2448 79.6223 53.8769 90.3341 46.229 94.7496C43.4975 96.3266 40.4296 97.0053 37.9657 97.1532C35.444 97.5165 33.3589 99.2667 32.7239 101.636L32.6662 101.852C31.7061 105.866 34.8333 109.705 39.0571 109.452C41.8731 109.283 44.8044 108.683 47.4204 107.537L49.4728 151.147L47.0145 152.566C45.922 153.197 45.6545 154.626 46.4218 155.64C52.9705 163.513 67.8963 163.818 81.4168 156.012C94.9373 148.206 102.136 135.127 98.5918 125.519C98.0976 124.348 96.7262 123.865 95.6337 124.496L93.1754 125.915L56.5129 102.469C67.2963 94.9688 69.9938 85.7635 78.7343 80.7171L117.055 147.09C112.275 149.85 110.601 156.097 113.361 160.877L103.664 166.476C99.8403 168.683 98.1664 174.931 100.926 179.711L170.85 139.34C168.091 134.56 161.843 132.886 156.107 136.198L148.323 140.692C145.563 135.912 139.316 134.238 134.536 136.998L96.2153 70.6244C104.956 65.5781 114.277 67.8447 126.164 62.2562L128.137 105.73L125.679 107.149C124.587 107.78 124.319 109.209 125.087 110.223C131.635 118.096 146.561 118.401 160.081 110.595C173.602 102.789 180.801 89.7102 177.257 80.1024C176.762 78.931 175.391 78.4481 174.298 79.0789ZM84.4349 130.962L58.2133 146.101L57.1313 113.948L84.4349 130.962ZM136.878 100.684L135.796 68.5313L163.1 85.5445L136.878 100.684Z" fill="white" fill-opacity="0.05"/>
</g>
<defs>
<clipPath id="clip0_89_1225">
<rect width="151.109" height="151.109" fill="white" transform="translate(0.317871 75.8206) rotate(-30)"/>
</clipPath>
</defs>
</svg>
