<svg width="20" height="20" viewBox="0 0 20 20" fill="none" xmlns="http://www.w3.org/2000/svg">
<g clip-path="url(#clip0_75_25807)">
<path d="M19.5899 0.0027221C15.6857 -0.0672779 11.2332 1.97356 8.41489 5.13939C5.72155 5.19022 3.09905 6.29439 1.16822 8.22522C1.05572 8.33606 1.01572 8.50189 1.06489 8.65189C1.11489 8.80272 1.24489 8.91189 1.40155 8.93439L4.61322 9.39439L4.21655 9.83856C4.06905 10.0036 4.07655 10.2544 4.23322 10.4111L9.58905 15.7669C9.66989 15.8477 9.77655 15.8886 9.88405 15.8886C9.98322 15.8886 10.0824 15.8536 10.1616 15.7827L10.6057 15.3861L11.0657 18.5977C11.0882 18.7544 11.2116 18.8694 11.3607 18.9194C11.3991 18.9319 11.4391 18.9377 11.4799 18.9377C11.5982 18.9377 11.7191 18.8861 11.8024 18.8036C13.7066 16.8994 14.8107 14.2769 14.8616 11.5836C18.0307 8.75939 20.0882 4.30856 19.9974 0.409389C19.9916 0.187722 19.8124 0.00855544 19.5899 0.0027221ZM15.7499 7.19606C15.3441 7.60189 14.8107 7.80522 14.2766 7.80522C13.7424 7.80522 13.2091 7.60189 12.8032 7.19606C11.9916 6.38356 11.9916 5.06189 12.8032 4.24939C13.6157 3.43689 14.9374 3.43689 15.7499 4.24939C16.5624 5.06189 16.5624 6.38439 15.7499 7.19606Z" fill="white"/>
<path d="M2.27005 14.0873C1.37838 14.979 0.154215 19.0073 0.0175478 19.4631C-0.0266188 19.6098 0.0142145 19.769 0.121715 19.8773C0.201715 19.9573 0.307548 19.9998 0.416715 19.9998C0.456715 19.9998 0.496715 19.994 0.536714 19.9823C0.992548 19.8456 5.02088 18.6215 5.91255 17.7298C6.91671 16.7256 6.91671 15.0915 5.91255 14.0873C4.90755 13.0831 3.27421 13.084 2.27005 14.0873Z" fill="white"/>
</g>
<defs>
<clipPath id="clip0_75_25807">
<rect width="20" height="20" fill="white"/>
</clipPath>
</defs>
</svg>
