<svg width="20" height="20" viewBox="0 0 20 20" fill="none" xmlns="http://www.w3.org/2000/svg">
<path d="M14.454 0.5C14.932 0.5 15.318 0.885998 15.318 1.364L15.318 3.214C16.54 3.524 17.492 4.478 17.804 5.698C18.27 7.538 17.158 9.41 15.318 9.878L15.318 18.636C15.318 19.114 14.932 19.5 14.454 19.5C13.978 19.5 13.59 19.114 13.59 18.636L13.59 9.878C12.37 9.566 11.416 8.614 11.106 7.392C10.638 5.552 11.75 3.68199 13.59 3.214L13.59 1.364C13.59 0.885998 13.978 0.5 14.454 0.5Z" fill="white"/>
<path d="M5.54606 19.5C5.06808 19.5 4.68207 19.114 4.68207 18.636L4.68207 16.786C3.46007 16.476 2.50807 15.522 2.19606 14.302C1.73006 12.462 2.84205 10.59 4.68207 10.122L4.68207 1.364C4.68207 0.885998 5.06808 0.5 5.54606 0.5C6.02206 0.5 6.41007 0.885998 6.41007 1.364L6.41007 10.122C7.63007 10.434 8.58407 11.386 8.89405 12.608C9.36207 14.448 8.25006 16.318 6.41007 16.786L6.41007 18.636C6.41007 19.114 6.02206 19.5 5.54606 19.5Z" fill="white"/>
</svg>
