<svg width="20" height="20" viewBox="0 0 20 20" fill="none" xmlns="http://www.w3.org/2000/svg">
<g clip-path="url(#clip0_14_587)">
<path d="M12.6848 13.1307C12.6848 12.1813 12.6848 11.2254 12.6848 10.276C12.6848 9.88199 12.8075 9.75928 13.195 9.75928H17.2833C17.6321 9.75928 17.7742 9.90137 17.7742 10.2501V14.9972C17.7742 15.1587 17.8 15.2233 17.9809 15.2168C18.3103 15.1974 18.8205 15.2104 19.1499 15.2104C19.2532 15.2104 19.3436 15.2233 19.3888 15.3266C19.4341 15.43 19.3953 15.5075 19.3307 15.585C18.4459 16.6248 16.3339 18.8401 15.4491 19.88C15.3134 20.0414 15.2101 20.0414 15.068 19.8735C14.1896 18.8401 12.1358 16.6313 11.2574 15.5979C11.1864 15.5139 11.1347 15.43 11.1928 15.3202C11.251 15.2104 11.3349 15.2104 11.4383 15.2104C11.7677 15.2104 12.1552 15.1974 12.4846 15.2168C12.6654 15.2233 12.6977 15.1587 12.6977 14.9972C12.6848 14.022 12.6848 14.1059 12.6848 13.1307Z" fill="white"/>
<path d="M8.45431 14.2025C8.36389 14.1444 8.31868 14.0346 8.33159 13.9313C8.33805 13.6406 8.33159 13.3565 8.33805 13.0658C8.33805 12.9883 8.31222 12.9625 8.24117 12.956C7.63406 12.8656 7.05924 12.6266 6.56838 12.2649C6.42629 12.1681 6.29712 12.0583 6.18087 11.9356C6.09044 11.8322 6.07753 11.7483 6.16149 11.6385C6.34879 11.3866 6.53609 11.1411 6.72985 10.8957C6.83319 10.7665 6.93653 10.7536 7.0657 10.8634C7.46613 11.2251 7.95053 11.477 8.47368 11.5933C8.91287 11.6837 9.33268 11.6578 9.73312 11.4189C10.1529 11.167 10.3596 10.5017 9.81062 10.0755C9.52644 9.85588 9.19059 9.72671 8.85474 9.58462C8.43493 9.41023 8.00866 9.25522 7.60822 9.04209C7.20779 8.82895 6.85256 8.57061 6.58776 8.19601C6.31004 7.80203 6.19378 7.32409 6.25191 6.84615C6.35525 5.91611 6.91715 5.34775 7.73094 4.98606C7.89886 4.91502 8.07325 4.86335 8.25409 4.83106C8.32513 4.81814 8.33159 4.78585 8.33159 4.72772C8.33159 4.4177 8.33159 4.10123 8.33159 3.79122C8.33159 3.62329 8.40264 3.55225 8.57056 3.55225H9.29393C9.44248 3.55225 9.50706 3.61683 9.50706 3.76538V4.70188C9.50706 4.76647 9.52644 4.7923 9.59103 4.79876C10.2046 4.86981 10.7859 5.11524 11.2703 5.4963C11.2961 5.51567 11.3219 5.54151 11.3478 5.56734C11.4576 5.67068 11.4705 5.72881 11.393 5.85798C11.2444 6.12924 11.0959 6.39405 10.9473 6.66531C10.8634 6.81386 10.7471 6.83969 10.605 6.7299C10.4177 6.58135 10.2175 6.45218 9.99792 6.34884C9.52644 6.12924 9.04204 6.03236 8.53181 6.16799C8.1895 6.25842 7.8924 6.41988 7.77615 6.78802C7.67927 7.09158 7.77615 7.38222 8.01512 7.5889C8.32513 7.86662 8.70619 8.00871 9.08725 8.15726C9.54582 8.3381 10.0044 8.51248 10.4436 8.74499C10.7536 8.90646 11.0248 9.12605 11.2444 9.39086C11.4834 9.68149 11.5932 10.0303 11.6255 10.4049C11.6255 10.4436 11.632 10.4888 11.632 10.5276C11.6513 10.5663 11.6255 10.618 11.6513 10.6567V10.7213C11.6255 10.8699 11.6384 11.0249 11.5997 11.1734C11.5028 11.548 11.3219 11.8903 11.0571 12.181C10.6761 12.6073 10.1917 12.8527 9.6427 12.9754C9.57811 12.9754 9.5329 13.0335 9.5329 13.0981V13.111C9.53936 13.3952 9.5329 13.6859 9.5329 13.9765C9.5329 14.0863 9.49415 14.1702 9.37789 14.2025H8.45431Z" fill="white"/>
<path d="M9.48774 15.7332C9.28752 15.7526 9.08085 15.7591 8.87417 15.7591C5.07649 15.7591 1.99572 12.6783 1.99572 8.88064C1.99572 5.08296 5.07649 2.00219 8.87417 2.00219C12.6719 2.00219 15.7526 5.08296 15.7526 8.88064H17.7548V8.87418C17.7483 4.04312 13.7052 7.86523e-06 8.88063 7.86523e-06C3.97852 -0.00645077 0 3.96561 0 8.86772V8.88064C0 13.7117 4.04957 17.7548 8.87417 17.7548C9.66213 17.7548 10.4501 17.6515 11.2122 17.4448L9.48774 15.7332Z" fill="white"/>
</g>
<defs>
<clipPath id="clip0_14_587">
<rect width="20" height="20" fill="white"/>
</clipPath>
</defs>
</svg>
