<svg width="20" height="20" viewBox="0 0 20 20" fill="none" xmlns="http://www.w3.org/2000/svg">
<g clip-path="url(#clip0_75_25844)">
<path d="M7.77778 13.3333C7.48309 13.3333 7.20048 13.2163 6.9921 13.0079C6.78373 12.7995 6.66667 12.5169 6.66667 12.2222V7.77778C6.66667 7.48309 6.78373 7.20048 6.9921 6.9921C7.20048 6.78373 7.48309 6.66667 7.77778 6.66667H12.2222C12.5169 6.66667 12.7995 6.78373 13.0079 6.9921C13.2163 7.20048 13.3333 7.48309 13.3333 7.77778V12.2222C13.3333 12.5169 13.2163 12.7995 13.0079 13.0079C12.7995 13.2163 12.5169 13.3333 12.2222 13.3333H7.77778ZM20 8.88889C20 8.29952 19.7659 7.73429 19.3491 7.31754C18.9324 6.90079 18.3671 6.66667 17.7778 6.66667H15.3508C15.4825 7.02247 15.5518 7.39838 15.5556 7.77778V12.2222C15.5546 13.106 15.2031 13.9533 14.5782 14.5782C13.9533 15.2031 13.106 15.5546 12.2222 15.5556H7.77778C7.39838 15.5518 7.02249 15.4825 6.66667 15.3508V17.7778C6.66667 18.3671 6.90079 18.9324 7.31754 19.3491C7.73429 19.7659 8.29952 20 8.88889 20H17.7778C18.3671 20 18.9324 19.7659 19.3491 19.3491C19.7659 18.9324 20 18.3671 20 17.7778V8.88889ZM2.22222 0C1.63285 0 1.06762 0.234126 0.650874 0.650874C0.234126 1.06762 0 1.63285 0 2.22222V11.1111C0 11.7005 0.234126 12.2657 0.650874 12.6825C1.06762 13.0992 1.63285 13.3333 2.22222 13.3333H4.64922C4.51751 12.9775 4.44823 12.6016 4.44444 12.2222V7.77778C4.44542 6.89402 4.79692 6.04674 5.42183 5.42183C6.04674 4.79692 6.89402 4.44542 7.77778 4.44444H12.2222C12.6016 4.44818 12.9775 4.51746 13.3333 4.64922V2.22222C13.3333 1.63285 13.0992 1.06762 12.6825 0.650874C12.2657 0.234126 11.7005 0 11.1111 0H2.22222Z" fill="white"/>
</g>
<defs>
<clipPath id="clip0_75_25844">
<rect width="20" height="20" fill="white"/>
</clipPath>
</defs>
</svg>
