<svg width="20" height="20" viewBox="0 0 20 20" fill="none" xmlns="http://www.w3.org/2000/svg">
<g clip-path="url(#clip0_75_25776)">
<path d="M2.14286 7.85714C2.14286 3.51776 5.66062 0 10 0C14.3394 0 17.8571 3.51776 17.8571 7.85714V8.66143C19.0894 8.97864 20 10.0973 20 11.4286V14.2857C20 15.8636 18.7208 17.1429 17.1429 17.1429C16.9781 17.1429 16.8166 17.1289 16.6596 17.1021C15.6816 18.9616 13.6889 20.1022 11.5714 19.9929C11.5244 19.9976 11.4768 20 11.4286 20H10C9.211 20 8.57143 19.3604 8.57143 18.5714C8.57143 17.7824 9.211 17.1429 10 17.1429H11.4286C12.1745 17.1429 12.7869 17.7146 12.8515 18.4437C13.9036 18.1717 14.8183 17.4795 15.3539 16.5136C14.7026 15.9899 14.2857 15.1865 14.2857 14.2857V11.4286C14.2857 10.0973 15.1963 8.97864 16.4286 8.66143V7.85714C16.4286 4.30674 13.5504 1.42857 10 1.42857C6.44957 1.42857 3.57143 4.30674 3.57143 7.85714V8.66143C4.80374 8.97864 5.71429 10.0973 5.71429 11.4286V14.2857C5.71429 15.8636 4.4351 17.1429 2.85714 17.1429C1.27919 17.1429 0 15.8636 0 14.2857V11.4286C0 10.0973 0.91055 8.97864 2.14286 8.66143V7.85714Z" fill="white"/>
</g>
<defs>
<clipPath id="clip0_75_25776">
<rect width="20" height="20" fill="white"/>
</clipPath>
</defs>
</svg>
