<svg width="18" height="18" viewBox="0 0 18 18" fill="none" xmlns="http://www.w3.org/2000/svg">
<g clip-path="url(#clip0_75_25708)">
<path d="M16.5 4.75004H12.75V2.00001C12.75 1.17275 12.0773 0.5 11.25 0.5H6.75C5.92274 0.5 5.24999 1.17271 5.24999 2.00001V4.75H1.50001C0.672715 4.75004 0 5.42275 0 6.25001V7.99999C0 8.82729 0.672715 9.5 1.50001 9.5H7.50002V9.12499C7.50002 8.91771 7.66775 8.74998 7.87504 8.74998H10.125C10.3323 8.74998 10.5 8.91771 10.5 9.12499V9.5H16.5001C17.3273 9.5 18 8.82729 18 7.99999V6.25001C18 5.42275 17.3273 4.75004 16.5 4.75004ZM11.25 4.75004H6.75V2.00001H11.25V4.75004Z" fill="white"/>
<path d="M17.792 10.4048C17.6642 10.3415 17.5115 10.3561 17.3987 10.4418C17.1321 10.6436 16.8215 10.7502 16.5 10.7502H10.5V11.8752C10.5 12.0825 10.3323 12.2502 10.125 12.2502H7.875C7.66772 12.2502 7.49999 12.0825 7.49999 11.8752V10.7502H1.50001C1.17847 10.7502 0.867938 10.6436 0.601313 10.4418C0.488145 10.3554 0.335813 10.3407 0.207984 10.4048C0.0805781 10.4682 0 10.5982 0 10.7407V16.0002C0 16.8275 0.672715 17.5002 1.50001 17.5002H16.5C17.3273 17.5002 18 16.8275 18 16.0002V10.7407C18 10.5982 17.9194 10.4682 17.792 10.4048Z" fill="white"/>
</g>
<defs>
<clipPath id="clip0_75_25708">
<rect width="18" height="18" fill="white"/>
</clipPath>
</defs>
</svg>
