<svg width="20" height="20" viewBox="0 0 20 20" fill="none" xmlns="http://www.w3.org/2000/svg">
<g clip-path="url(#clip0_81_26021)">
<path d="M13.3664 9.67821C17.4521 11.1242 21.3358 6.90595 19.5568 2.95489C19.4781 2.77915 19.318 2.65339 19.1287 2.6185C18.9393 2.58362 18.745 2.6441 18.6088 2.78024L15.9617 5.42709L14.8664 5.13362L14.5729 4.03829L17.2197 1.39121C17.3558 1.25506 17.4163 1.06063 17.3815 0.871302C17.3466 0.681938 17.2208 0.521878 17.0451 0.443174C13.0924 -1.33614 8.87605 2.54952 10.3218 6.63363L6.63361 10.3218C2.54789 8.87584 -1.33577 13.094 0.443153 17.0451C0.521857 17.2208 0.681917 17.3466 0.871281 17.3815C1.06061 17.4164 1.255 17.3559 1.39118 17.2197L4.0383 14.5729L5.13364 14.8664L5.42707 15.9617L2.78026 18.6088C2.49112 18.8881 2.58528 19.3989 2.95491 19.5568C6.90768 21.3361 11.1239 17.4504 9.67818 13.3663L13.3664 9.67821Z" fill="white"/>
<path d="M1.92644 4.89222C1.95566 4.97303 2.00225 5.04647 2.06305 5.10722L5.89415 8.93833C6.0269 8.95807 6.15894 8.9816 6.28986 9.00997L9.00998 6.28984C8.98162 6.15889 8.95809 6.02688 8.93834 5.89414L5.1072 2.06299C5.04644 2.0022 4.97305 1.95557 4.89224 1.92638L1.42199 0.672554C1.20851 0.595411 0.969706 0.648634 0.809216 0.809163C0.648727 0.969652 0.595464 1.20842 0.672607 1.42189L1.92644 4.89222Z" fill="white"/>
<path d="M14.1058 11.0614C13.9731 11.0416 13.841 11.0181 13.7101 10.9897L10.9899 13.7099C11.0183 13.8408 11.0418 13.9728 11.0616 14.1056L13.225 16.269L16.2693 13.2248L14.1058 11.0614Z" fill="white"/>
<path d="M17.097 14.0527L14.0527 17.097L16.1466 19.1908C16.3751 19.4193 16.7457 19.4193 16.9743 19.1908L19.1908 16.9743C19.4194 16.7457 19.4194 16.3751 19.1908 16.1466L17.097 14.0527Z" fill="white"/>
</g>
<defs>
<clipPath id="clip0_81_26021">
<rect width="20" height="20" fill="white"/>
</clipPath>
</defs>
</svg>
