<svg width="20" height="20" viewBox="0 0 20 20" fill="none" xmlns="http://www.w3.org/2000/svg">
<g clip-path="url(#clip0_81_25954)">
<path d="M10.4219 9.59701C10.4186 9.59358 10.4176 9.58901 10.4143 9.58565L7.07038 6.2417V4.14057C7.07038 3.98491 7.00859 3.83615 6.89874 3.72627L3.38312 0.171624C3.21605 0.00459241 2.9637 -0.0463451 2.74452 0.0446315C2.52538 0.135022 2.38288 0.349046 2.38288 0.585921V2.34373H0.586009C0.349173 2.34369 0.135149 2.48616 0.0447588 2.70533C-0.0462178 2.92448 0.00413379 3.17627 0.17179 3.34393L3.72648 6.89858C3.83636 7.00846 3.98511 7.07026 4.14074 7.07026H6.24187L9.58577 10.4142C9.58913 10.4175 9.5937 10.4185 9.59714 10.4217C9.82527 10.6395 10.1718 10.6424 10.403 10.4217C10.6464 10.1894 10.6409 9.82651 10.4219 9.59701Z" fill="white"/>
<path d="M10 0C8.50079 0 7.08325 0.381445 5.80676 0.977266L7.60418 2.77469C8.35856 2.52383 9.16258 2.38281 10.0001 2.38281C14.2 2.38277 17.6172 5.79996 17.6172 9.99992C17.6172 14.1999 14.2 17.6171 10 17.6171C5.80004 17.6171 2.3829 14.1999 2.3829 9.99992C2.3829 9.16242 2.52395 8.3584 2.77477 7.60402L0.977349 5.8066C0.381606 7.08313 0.00012207 8.50066 0.00012207 9.99992C0.00012207 15.4925 4.50751 19.9999 10 19.9999C15.4926 19.9999 20 15.4925 20 9.99992C20 4.50738 15.4927 0 10 0Z" fill="white"/>
<path d="M10.0001 4.72656C9.38072 4.72656 8.79478 4.85352 8.24224 5.05051V5.75652L9.59681 7.11109C9.72986 7.0925 9.86197 7.07031 10.0001 7.07031C11.6154 7.07031 12.9297 8.38465 12.9297 10C12.9297 11.6154 11.6154 12.9297 10.0001 12.9297C8.3847 12.9297 7.07037 11.6154 7.07037 10C7.07037 9.86188 7.09255 9.72977 7.11115 9.59676L5.75662 8.24215H5.0506C4.85361 8.79469 4.72665 9.38062 4.72665 9.99996C4.72665 12.9079 7.09216 15.2734 10.0001 15.2734C12.9079 15.2734 15.2735 12.9079 15.2735 9.99996C15.2735 7.09203 12.908 4.72656 10.0001 4.72656Z" fill="white"/>
</g>
<defs>
<clipPath id="clip0_81_25954">
<rect width="20" height="20" fill="white"/>
</clipPath>
</defs>
</svg>
