<svg width="20" height="20" viewBox="0 0 20 20" fill="none" xmlns="http://www.w3.org/2000/svg">
<g clip-path="url(#clip0_81_25995)">
<path d="M6.37822 3.88263L6.95178 5.47544C7.5889 7.24325 8.98101 8.63536 10.7488 9.27248L12.3416 9.84604C12.4852 9.89818 12.4852 10.1017 12.3416 10.1532L10.7488 10.7267C8.98101 11.3639 7.5889 12.756 6.95178 14.5238L6.37822 16.1166C6.32608 16.2602 6.12251 16.2602 6.07109 16.1166L5.49753 14.5238C4.86041 12.756 3.4683 11.3639 1.70049 10.7267L0.107676 10.1532C-0.0358919 10.101 -0.0358919 9.89746 0.107676 9.84604L1.70049 9.27248C3.4683 8.63536 4.86041 7.24325 5.49753 5.47544L6.07109 3.88263C6.12251 3.73834 6.32608 3.73834 6.37822 3.88263Z" fill="white"/>
<path d="M13.5481 0.0551771L13.8388 0.861584C14.1616 1.75656 14.8666 2.46154 15.7616 2.78439L16.568 3.0751C16.6409 3.10152 16.6409 3.20438 16.568 3.23081L15.7616 3.52151C14.8666 3.84436 14.1616 4.54934 13.8388 5.44432L13.5481 6.25073C13.5217 6.32358 13.4188 6.32358 13.3924 6.25073L13.1017 5.44432C12.7788 4.54934 12.0738 3.84436 11.1789 3.52151L10.3725 3.23081C10.2996 3.20438 10.2996 3.10152 10.3725 3.0751L11.1789 2.78439C12.0738 2.46154 12.7788 1.75656 13.1017 0.861584L13.3924 0.0551771C13.4188 -0.0183924 13.5224 -0.0183924 13.5481 0.0551771Z" fill="white"/>
<path d="M13.5481 13.7495L13.8388 14.5559C14.1616 15.4508 14.8666 16.1558 15.7616 16.4787L16.568 16.7694C16.6409 16.7958 16.6409 16.8987 16.568 16.9251L15.7616 17.2158C14.8666 17.5387 14.1616 18.2436 13.8388 19.1386L13.5481 19.945C13.5217 20.0179 13.4188 20.0179 13.3924 19.945L13.1017 19.1386C12.7788 18.2436 12.0738 17.5387 11.1789 17.2158L10.3725 16.9251C10.2996 16.8987 10.2996 16.7958 10.3725 16.7694L11.1789 16.4787C12.0738 16.1558 12.7788 15.4508 13.1017 14.5559L13.3924 13.7495C13.4188 13.6766 13.5224 13.6766 13.5481 13.7495Z" fill="white"/>
</g>
<defs>
<clipPath id="clip0_81_25995">
<rect width="20" height="20" fill="white"/>
</clipPath>
</defs>
</svg>
