<svg width="20" height="20" viewBox="0 0 20 20" fill="none" xmlns="http://www.w3.org/2000/svg">
<path fill-rule="evenodd" clip-rule="evenodd" d="M10 10.5426C12.7656 10.5426 15.0213 8.28701 15.0213 5.52137C15.0213 2.75573 12.7656 0.5 10 0.5C7.23439 0.5 4.97873 2.75573 4.97873 5.52137C4.97873 8.28701 7.23439 10.5426 10 10.5426Z" fill="white"/>
<path fill-rule="evenodd" clip-rule="evenodd" d="M15.3185 12.5309C13.9543 11.5999 12.0736 11.0239 9.99997 11.0239C7.92638 11.0239 6.04574 11.5999 4.68148 12.5309C3.29421 13.4777 2.43616 14.7928 2.43616 16.2518V17.9906C2.43616 18.4073 2.60519 18.7847 2.87831 19.0578C3.15141 19.3309 3.52874 19.4998 3.94552 19.4998H16.0545C16.4713 19.4998 16.8486 19.3309 17.1217 19.0578C17.4023 18.7772 17.5681 18.385 17.5637 17.987V16.2518C17.5637 14.7928 16.7058 13.4777 15.3185 12.5309Z" fill="white"/>
</svg>
