<svg width="107" height="36" viewBox="0 0 107 36" fill="none" xmlns="http://www.w3.org/2000/svg">
<path fill-rule="evenodd" clip-rule="evenodd" d="M15.9398 6.60883C15.9398 6.49161 16.0343 6.39659 16.151 6.39659H26.7541C26.8277 6.39659 26.896 6.43509 26.9343 6.49821L30.3138 12.0587C30.3746 12.1587 30.3432 12.2893 30.2436 12.3504C30.1441 12.4115 30.0141 12.3799 29.9533 12.2799L26.6356 6.82106H16.151C16.0343 6.82106 15.9398 6.72604 15.9398 6.60883Z" fill="url(#paint0_linear_28_3)"/>
<path fill-rule="evenodd" clip-rule="evenodd" d="M21.3469 10.429C21.3469 10.3118 21.4415 10.2168 21.5581 10.2168H24.4307C24.5062 10.2168 24.576 10.2573 24.6137 10.3231L28.7958 17.6239C28.854 17.7255 28.8192 17.8552 28.7181 17.9137C28.617 17.9722 28.4879 17.9372 28.4297 17.8356L24.3085 10.6412H21.5581C21.4415 10.6412 21.3469 10.5462 21.3469 10.429Z" fill="url(#paint1_linear_28_3)"/>
<path fill-rule="evenodd" clip-rule="evenodd" d="M10.7299 0.81488C10.7676 0.749227 10.8374 0.708785 10.9128 0.708785H30.387C30.4624 0.708785 30.5322 0.749227 30.5699 0.81488L40.3281 17.7934C40.3658 17.8591 40.3658 17.94 40.3281 18.0057C40.2904 18.0713 40.2207 18.1118 40.1452 18.1118H17.0381C16.9214 18.1118 16.8269 18.0168 16.8269 17.8996C16.8269 17.7823 16.9214 17.6873 17.0381 17.6873H39.7793L30.2651 1.13325H11.0348L1.39853 17.8996L11.0347 34.6659H30.2762L36.6342 25.4193C36.7005 25.3228 36.8321 25.2987 36.928 25.3653C37.024 25.4319 37.048 25.5641 36.9817 25.6605L30.5608 34.9987C30.5213 35.0561 30.4564 35.0903 30.387 35.0903H10.9128C10.8374 35.0903 10.7676 35.0499 10.7299 34.9842L0.971712 18.0057C0.933966 17.94 0.933966 17.8591 0.971712 17.7934L10.7299 0.81488Z" fill="url(#paint2_linear_28_3)"/>
<path d="M38.2442 25.5399C38.2442 26.3464 37.6106 26.9831 36.808 26.9831C36.0053 26.9831 35.3717 26.3464 35.3717 25.5399C35.3717 24.7334 36.0053 24.0967 36.808 24.0967C37.6106 24.0967 38.2442 24.7334 38.2442 25.5399Z" fill="url(#paint3_linear_28_3)"/>
<path d="M17.7985 17.8996C17.7985 18.706 17.1648 19.3427 16.3622 19.3427C15.5596 19.3427 14.9259 18.706 14.9259 17.8996C14.9259 17.0931 15.5596 16.4564 16.3622 16.4564C17.1648 16.4564 17.7985 17.0931 17.7985 17.8996Z" fill="url(#paint4_linear_28_3)"/>
<path fill-rule="evenodd" clip-rule="evenodd" d="M7.08531 20.9868C7.18486 20.9257 7.31486 20.9573 7.37566 21.0573L12.0874 28.8083H26.8385C26.9552 28.8083 27.0498 28.9033 27.0498 29.0205C27.0498 29.1377 26.9552 29.2327 26.8385 29.2327H11.9689C11.8953 29.2327 11.827 29.1942 11.7887 29.1311L7.01516 21.2786C6.95435 21.1785 6.98576 21.0479 7.08531 20.9868Z" fill="url(#paint5_linear_28_3)"/>
<path fill-rule="evenodd" clip-rule="evenodd" d="M5.52261 10.9693C5.62226 10.9083 5.7522 10.9401 5.81284 11.0402L13.5661 23.8421H21.0935C21.2101 23.8421 21.3047 23.9371 21.3047 24.0543C21.3047 24.1715 21.2101 24.2665 21.0935 24.2665H13.4474C13.3737 24.2665 13.3053 24.2279 13.267 24.1646L5.45198 11.2609C5.39133 11.1608 5.42296 11.0302 5.52261 10.9693Z" fill="url(#paint6_linear_28_3)"/>
<path d="M21.8961 25.5399C22.6893 25.5399 23.3324 24.8938 23.3324 24.0967C23.3324 23.2997 22.6893 22.6535 21.8961 22.6535C21.1028 22.6535 20.4598 23.2997 20.4598 24.0967C20.4598 24.8938 21.1028 25.5399 21.8961 25.5399Z" fill="url(#paint7_linear_28_3)"/>
<path d="M28.2748 29.0205C28.2748 29.827 27.6412 30.4637 26.8385 30.4637C26.0359 30.4637 25.4023 29.827 25.4023 29.0205C25.4023 28.214 26.0359 27.5773 26.8385 27.5773C27.6412 27.5773 28.2748 28.214 28.2748 29.0205Z" fill="url(#paint8_linear_28_3)"/>
<path d="M14.7147 8.052C15.5079 8.052 16.151 7.40587 16.151 6.60883C16.151 5.81178 15.5079 5.16565 14.7147 5.16565C13.9215 5.16565 13.2784 5.81178 13.2784 6.60883C13.2784 7.40587 13.9215 8.052 14.7147 8.052Z" fill="url(#paint9_linear_28_3)"/>
<path d="M31.5698 12.1693C31.5698 12.9758 30.9361 13.6125 30.1335 13.6125C29.3309 13.6125 28.6973 12.9758 28.6973 12.1693C28.6973 11.3628 29.3309 10.7261 30.1335 10.7261C30.9361 10.7261 31.5698 11.3628 31.5698 12.1693Z" fill="url(#paint10_linear_28_3)"/>
<path d="M8.63168 21.1679C8.63168 21.9744 7.99803 22.6111 7.19541 22.6111C6.39279 22.6111 5.75914 21.9744 5.75914 21.1679C5.75914 20.3614 6.39279 19.7247 7.19541 19.7247C7.99803 19.7247 8.63168 20.4039 8.63168 21.1679Z" fill="url(#paint11_linear_28_3)"/>
<path d="M21.1357 11.8722C21.9289 11.8722 22.572 11.226 22.572 10.429C22.572 9.63196 21.9289 8.98582 21.1357 8.98582C20.3425 8.98582 19.6994 9.63196 19.6994 10.429C19.6994 11.226 20.3425 11.8722 21.1357 11.8722Z" fill="url(#paint12_linear_28_3)"/>
<path fill-rule="evenodd" clip-rule="evenodd" d="M10.4754 0.668626C10.5653 0.512294 10.7318 0.415283 10.9128 0.415283H30.387C30.568 0.415283 30.7345 0.512293 30.8244 0.668628L40.5826 17.6472C40.6723 17.8034 40.6723 17.9957 40.5826 18.1519C40.4928 18.3082 40.3262 18.4053 40.1452 18.4053H18.0193C17.8068 19.1217 17.1522 19.6362 16.3622 19.6362C15.3962 19.6362 14.6324 18.8668 14.6324 17.8996C14.6324 16.9323 15.3962 16.1629 16.3622 16.1629C17.1522 16.1629 17.8068 16.6774 18.0193 17.3938H27.8384L24.1384 10.9347H22.7909C22.5754 11.6465 21.9167 12.1657 21.1357 12.1657C20.1791 12.1657 19.4059 11.3868 19.4059 10.429C19.4059 9.47119 20.1791 8.69232 21.1357 8.69232C21.9167 8.69232 22.5754 9.21145 22.7909 9.92327H24.4307C24.6119 9.92327 24.7787 10.0206 24.8684 10.1772L29.0023 17.3938H39.2721L30.0952 1.42675H11.2046L5.87185 10.7053C5.94854 10.7466 6.01553 10.8084 6.06389 10.8882L13.7315 23.5486H20.2543C20.4827 22.8586 21.1307 22.36 21.8961 22.36C22.8527 22.36 23.6259 23.1389 23.6259 24.0967C23.6259 25.0545 22.8527 25.8334 21.8961 25.8334C21.0996 25.8334 20.4304 25.2935 20.2286 24.56H13.4474C13.2706 24.56 13.1072 24.4674 13.0159 24.3167L5.3365 11.6368L1.73705 17.8996L11.2046 34.3724H30.1218L35.45 26.6234C35.2166 26.3275 35.0782 25.9516 35.0782 25.5399C35.0782 24.5727 35.8419 23.8032 36.808 23.8032C37.774 23.8032 38.5377 24.5727 38.5377 25.5399C38.5377 26.5072 37.774 27.2766 36.808 27.2766C36.6239 27.2766 36.4471 27.2486 36.2816 27.1967L30.8026 35.165C30.7086 35.3017 30.5534 35.3838 30.387 35.3838H10.9128C10.7318 35.3838 10.5653 35.2868 10.4754 35.1305L0.717245 18.1519C0.627455 17.9957 0.627455 17.8034 0.717246 17.6472L10.4754 0.668626ZM36.6386 26.6776C36.6938 26.6855 36.7503 26.6896 36.808 26.6896C37.4472 26.6896 37.9507 26.1856 37.9507 25.5399C37.9507 24.8942 37.4472 24.3902 36.808 24.3902C36.1688 24.3902 35.6652 24.8942 35.6652 25.5399C35.6652 25.7462 35.7166 25.9381 35.8074 26.1036L36.3923 25.253C36.5505 25.0229 36.8655 24.9646 37.0954 25.1242C37.3245 25.2832 37.3812 25.5976 37.2236 25.8268L36.6386 26.6776ZM36.876 25.5856C36.8757 25.5861 36.8753 25.5866 36.8749 25.5871L36.876 25.5856ZM17.3924 17.3938C17.2092 17.0091 16.8206 16.7499 16.3622 16.7499C15.723 16.7499 15.2194 17.2538 15.2194 17.8996C15.2194 18.5453 15.723 19.0492 16.3622 19.0492C16.8206 19.0492 17.2092 18.7901 17.3924 18.4053H17.0381C16.758 18.4053 16.5334 18.1775 16.5334 17.8996C16.5334 17.6216 16.758 17.3938 17.0381 17.3938H17.3924ZM40.0736 17.9397C40.0736 17.9396 40.0737 17.9398 40.0736 17.9397V17.9397ZM20.8498 24.56C21.0271 24.9647 21.4296 25.2464 21.8961 25.2464C22.5259 25.2464 23.0389 24.733 23.0389 24.0967C23.0389 23.4604 22.5259 22.947 21.8961 22.947C21.4629 22.947 21.085 23.1899 20.8913 23.5486H21.0935C21.3735 23.5486 21.5982 23.7763 21.5982 24.0543C21.5982 24.3323 21.3735 24.56 21.0935 24.56H20.8498ZM22.1623 9.92327C21.9761 9.54147 21.5857 9.27933 21.1357 9.27933C20.5059 9.27933 19.9929 9.79272 19.9929 10.429C19.9929 11.0653 20.5059 11.5787 21.1357 11.5787C21.5857 11.5787 21.9761 11.3165 22.1623 10.9347H21.5581C21.2781 10.9347 21.0534 10.707 21.0534 10.429C21.0534 10.151 21.2781 9.92327 21.5581 9.92327H22.1623ZM14.7147 5.45915C14.0849 5.45915 13.5719 5.97255 13.5719 6.60883C13.5719 7.2451 14.0849 7.7585 14.7147 7.7585C15.2189 7.7585 15.6483 7.42944 15.7994 6.97171C15.7048 6.87959 15.6463 6.75076 15.6463 6.60883C15.6463 6.4669 15.7048 6.33807 15.7994 6.24595C15.6483 5.78822 15.2189 5.45915 14.7147 5.45915ZM16.37 6.10309C16.1544 5.39128 15.4957 4.87215 14.7147 4.87215C13.7581 4.87215 12.9849 5.65101 12.9849 6.60883C12.9849 7.56664 13.7581 8.3455 14.7147 8.3455C15.4957 8.3455 16.1544 7.82637 16.37 7.11456H26.4705L28.8384 11.0106C28.5672 11.3168 28.4038 11.7219 28.4038 12.1693C28.4038 13.1366 29.1675 13.906 30.1335 13.906C31.0996 13.906 31.8633 13.1366 31.8633 12.1693C31.8633 11.2021 31.0996 10.4326 30.1335 10.4326C29.9839 10.4326 29.8391 10.4511 29.7013 10.4859L27.1851 6.34578C27.0938 6.19544 26.9306 6.10309 26.7541 6.10309H16.37ZM29.1659 11.5495C29.0547 11.7272 28.9907 11.9392 28.9907 12.1693C28.9907 12.815 29.4943 13.319 30.1335 13.319C30.7727 13.319 31.2763 12.815 31.2763 12.1693C31.2763 11.5236 30.7727 11.0196 30.1335 11.0196C30.0981 11.0196 30.0631 11.0212 30.0285 11.0242L30.5646 11.9063C30.709 12.1439 30.6349 12.4547 30.3971 12.6006C30.1585 12.747 29.8474 12.6708 29.7025 12.4323L29.1659 11.5495ZM30.063 12.2111C30.0629 12.211 30.0631 12.2113 30.063 12.2111V12.2111ZM30.2041 12.1275L30.2031 12.1259L30.2041 12.1275ZM7.19541 20.0183C6.55621 20.0183 6.05264 20.5222 6.05264 21.1679C6.05264 21.8136 6.55621 22.3176 7.19541 22.3176C7.23089 22.3176 7.26594 22.316 7.30052 22.313L6.76436 21.431C6.61992 21.1934 6.69399 20.8826 6.93179 20.7367C7.17042 20.5902 7.48152 20.6664 7.62646 20.9048L8.16311 21.7876C8.27428 21.61 8.33818 21.3979 8.33818 21.1679C8.33818 20.559 7.82907 20.0183 7.19541 20.0183ZM8.49065 22.3265C8.76183 22.0203 8.92518 21.6153 8.92518 21.1679C8.92518 20.2488 8.16701 19.4312 7.19541 19.4312C6.22937 19.4312 5.46564 20.2007 5.46564 21.1679C5.46564 22.1352 6.22937 22.9046 7.19541 22.9046C7.34508 22.9046 7.48989 22.8861 7.62776 22.8513L11.5379 29.2836C11.6292 29.4339 11.7924 29.5262 11.9689 29.5262H25.1815C25.3939 30.2427 26.0486 30.7572 26.8385 30.7572C27.8046 30.7572 28.5683 29.9877 28.5683 29.0205C28.5683 28.0533 27.8046 27.2838 26.8385 27.2838C26.0486 27.2838 25.3939 27.7983 25.1815 28.5148H12.2525L8.49065 22.3265ZM25.8083 29.5262C25.9915 29.911 26.3802 30.1702 26.8385 30.1702C27.4778 30.1702 27.9813 29.6662 27.9813 29.0205C27.9813 28.3748 27.4778 27.8708 26.8385 27.8708C26.3802 27.8708 25.9915 28.13 25.8083 28.5148H26.8385C27.1186 28.5148 27.3433 28.7425 27.3433 29.0205C27.3433 29.2985 27.1186 29.5262 26.8385 29.5262H25.8083Z" fill="url(#paint13_linear_28_3)"/>
<path d="M60.923 25.299C59.4203 25.299 58.1323 24.9463 57.059 24.241C56.001 23.5357 55.2573 22.5697 54.828 21.343L56.668 20.285C57.2967 22.2323 58.7303 23.206 60.969 23.206C62.073 23.206 62.9163 22.9837 63.499 22.539C64.0817 22.079 64.373 21.4733 64.373 20.722C64.373 19.9553 64.0817 19.3803 63.499 18.997C62.9163 18.6137 61.9427 18.2073 60.578 17.778C59.9033 17.5633 59.3897 17.3947 59.037 17.272C58.6843 17.134 58.2397 16.9347 57.703 16.674C57.1817 16.398 56.7907 16.122 56.53 15.846C56.2693 15.5547 56.0317 15.179 55.817 14.719C55.6177 14.259 55.518 13.7377 55.518 13.155C55.518 11.7597 56.0087 10.6557 56.99 9.843C57.9713 9.015 59.1673 8.601 60.578 8.601C61.8507 8.601 62.9547 8.923 63.89 9.567C64.8407 10.211 65.5537 11.062 66.029 12.12L64.235 13.155C63.545 11.499 62.326 10.671 60.578 10.671C59.704 10.671 58.9987 10.8857 58.462 11.315C57.9253 11.7443 57.657 12.327 57.657 13.063C57.657 13.7683 57.91 14.305 58.416 14.673C58.922 15.041 59.796 15.4243 61.038 15.823C61.4827 15.961 61.797 16.0607 61.981 16.122C62.165 16.1833 62.4487 16.2907 62.832 16.444C63.2307 16.5973 63.522 16.72 63.706 16.812C63.89 16.904 64.1353 17.0343 64.442 17.203C64.764 17.3717 65.0017 17.5327 65.155 17.686C65.3083 17.8393 65.4847 18.031 65.684 18.261C65.8987 18.4757 66.052 18.698 66.144 18.928C66.236 19.158 66.3127 19.4263 66.374 19.733C66.4507 20.0243 66.489 20.3387 66.489 20.676C66.489 22.0867 65.9753 23.2137 64.948 24.057C63.9207 24.885 62.579 25.299 60.923 25.299ZM75.1629 13.201C76.7729 13.201 78.1452 13.7913 79.2799 14.972C80.4145 16.1373 80.9819 17.5633 80.9819 19.25C80.9819 20.9367 80.4145 22.3703 79.2799 23.551C78.1452 24.7163 76.7729 25.299 75.1629 25.299C73.2615 25.299 71.8125 24.54 70.8159 23.022V29.6H68.8149V13.5H70.8159V15.478C71.8125 13.96 73.2615 13.201 75.1629 13.201ZM74.9099 23.367C76.0599 23.367 77.0259 22.976 77.8079 22.194C78.5899 21.3967 78.9809 20.4153 78.9809 19.25C78.9809 18.0847 78.5899 17.111 77.8079 16.329C77.0259 15.5317 76.0599 15.133 74.9099 15.133C73.7445 15.133 72.7709 15.5317 71.9889 16.329C71.2069 17.111 70.8159 18.0847 70.8159 19.25C70.8159 20.4153 71.2069 21.3967 71.9889 22.194C72.7709 22.976 73.7445 23.367 74.9099 23.367ZM83.3696 25V8.21H85.3706V25H83.3696ZM89.4353 11.407C89.0519 11.407 88.7299 11.2767 88.4693 11.016C88.2086 10.7553 88.0783 10.441 88.0783 10.073C88.0783 9.705 88.2086 9.39067 88.4693 9.13C88.7299 8.854 89.0519 8.716 89.4353 8.716C89.8033 8.716 90.1176 8.854 90.3783 9.13C90.6389 9.39067 90.7693 9.705 90.7693 10.073C90.7693 10.441 90.6389 10.7553 90.3783 11.016C90.1176 11.2767 89.8033 11.407 89.4353 11.407ZM88.4233 25V13.5H90.4243V25H88.4233ZM102.999 13.5H105V29.6H102.999V23.022C102.002 24.54 100.553 25.299 98.652 25.299C97.042 25.299 95.6697 24.7163 94.535 23.551C93.4003 22.3703 92.833 20.9367 92.833 19.25C92.833 17.5633 93.4003 16.1373 94.535 14.972C95.6697 13.7913 97.042 13.201 98.652 13.201C100.553 13.201 102.002 13.96 102.999 15.478V13.5ZM98.905 23.367C100.07 23.367 101.044 22.976 101.826 22.194C102.608 21.3967 102.999 20.4153 102.999 19.25C102.999 18.0847 102.608 17.111 101.826 16.329C101.044 15.5317 100.07 15.133 98.905 15.133C97.755 15.133 96.789 15.5317 96.007 16.329C95.225 17.111 94.834 18.0847 94.834 19.25C94.834 20.4153 95.225 21.3967 96.007 22.194C96.789 22.976 97.755 23.367 98.905 23.367Z" fill="white"/>
<defs>
<linearGradient id="paint0_linear_28_3" x1="20.6499" y1="0.415283" x2="20.6499" y2="35.3838" gradientUnits="userSpaceOnUse">
<stop stop-color="#D8D8D8"/>
<stop offset="1" stop-color="#4D4D4D"/>
</linearGradient>
<linearGradient id="paint1_linear_28_3" x1="20.6499" y1="0.415283" x2="20.6499" y2="35.3838" gradientUnits="userSpaceOnUse">
<stop stop-color="#D8D8D8"/>
<stop offset="1" stop-color="#4D4D4D"/>
</linearGradient>
<linearGradient id="paint2_linear_28_3" x1="20.6499" y1="0.415283" x2="20.6499" y2="35.3838" gradientUnits="userSpaceOnUse">
<stop stop-color="#D8D8D8"/>
<stop offset="1" stop-color="#4D4D4D"/>
</linearGradient>
<linearGradient id="paint3_linear_28_3" x1="20.6499" y1="0.415283" x2="20.6499" y2="35.3838" gradientUnits="userSpaceOnUse">
<stop stop-color="#D8D8D8"/>
<stop offset="1" stop-color="#4D4D4D"/>
</linearGradient>
<linearGradient id="paint4_linear_28_3" x1="20.6499" y1="0.415283" x2="20.6499" y2="35.3838" gradientUnits="userSpaceOnUse">
<stop stop-color="#D8D8D8"/>
<stop offset="1" stop-color="#4D4D4D"/>
</linearGradient>
<linearGradient id="paint5_linear_28_3" x1="20.6499" y1="0.415283" x2="20.6499" y2="35.3838" gradientUnits="userSpaceOnUse">
<stop stop-color="#D8D8D8"/>
<stop offset="1" stop-color="#4D4D4D"/>
</linearGradient>
<linearGradient id="paint6_linear_28_3" x1="20.6499" y1="0.415283" x2="20.6499" y2="35.3838" gradientUnits="userSpaceOnUse">
<stop stop-color="#D8D8D8"/>
<stop offset="1" stop-color="#4D4D4D"/>
</linearGradient>
<linearGradient id="paint7_linear_28_3" x1="20.6499" y1="0.415283" x2="20.6499" y2="35.3838" gradientUnits="userSpaceOnUse">
<stop stop-color="#D8D8D8"/>
<stop offset="1" stop-color="#4D4D4D"/>
</linearGradient>
<linearGradient id="paint8_linear_28_3" x1="20.6499" y1="0.415283" x2="20.6499" y2="35.3838" gradientUnits="userSpaceOnUse">
<stop stop-color="#D8D8D8"/>
<stop offset="1" stop-color="#4D4D4D"/>
</linearGradient>
<linearGradient id="paint9_linear_28_3" x1="20.6499" y1="0.415283" x2="20.6499" y2="35.3838" gradientUnits="userSpaceOnUse">
<stop stop-color="#D8D8D8"/>
<stop offset="1" stop-color="#4D4D4D"/>
</linearGradient>
<linearGradient id="paint10_linear_28_3" x1="20.6499" y1="0.415283" x2="20.6499" y2="35.3838" gradientUnits="userSpaceOnUse">
<stop stop-color="#D8D8D8"/>
<stop offset="1" stop-color="#4D4D4D"/>
</linearGradient>
<linearGradient id="paint11_linear_28_3" x1="20.6499" y1="0.415283" x2="20.6499" y2="35.3838" gradientUnits="userSpaceOnUse">
<stop stop-color="#D8D8D8"/>
<stop offset="1" stop-color="#4D4D4D"/>
</linearGradient>
<linearGradient id="paint12_linear_28_3" x1="20.6499" y1="0.415283" x2="20.6499" y2="35.3838" gradientUnits="userSpaceOnUse">
<stop stop-color="#D8D8D8"/>
<stop offset="1" stop-color="#4D4D4D"/>
</linearGradient>
<linearGradient id="paint13_linear_28_3" x1="20.6499" y1="0.415283" x2="20.6499" y2="35.3838" gradientUnits="userSpaceOnUse">
<stop stop-color="#D8D8D8"/>
<stop offset="1" stop-color="#4D4D4D"/>
</linearGradient>
</defs>
</svg>
