<svg width="118" height="27" viewBox="0 0 118 27" fill="none" xmlns="http://www.w3.org/2000/svg">
<g clip-path="url(#clip0_75_23997)">
<path fill-rule="evenodd" clip-rule="evenodd" d="M21.8551 5.29492C22.2937 5.29455 22.7225 5.42672 23.0873 5.67471C23.4522 5.92269 23.7366 6.27535 23.9047 6.68807C24.0728 7.1008 24.117 7.55503 24.0317 7.99334C23.9463 8.43164 23.7353 8.83431 23.4253 9.15041C23.1153 9.4665 22.7203 9.68182 22.2901 9.76913C21.86 9.85644 21.4141 9.81182 21.0089 9.64091C20.6036 9.47 20.2573 9.18047 20.0136 8.80896C19.7699 8.43745 19.6398 8.00065 19.6398 7.5538C19.6398 6.95504 19.8731 6.38076 20.2885 5.95719C20.7039 5.53363 21.2674 5.29542 21.8551 5.29492Z" fill="white" fill-opacity="0.7"/>
<path fill-rule="evenodd" clip-rule="evenodd" d="M21.8551 17.1982C22.2937 17.1979 22.7225 17.33 23.0873 17.578C23.4522 17.826 23.7366 18.1787 23.9047 18.5914C24.0728 19.0041 24.117 19.4584 24.0317 19.8967C23.9463 20.335 23.7353 20.7376 23.4253 21.0537C23.1153 21.3698 22.7203 21.5851 22.2901 21.6725C21.86 21.7598 21.4141 21.7151 21.0089 21.5442C20.6036 21.3733 20.2573 21.0838 20.0136 20.7123C19.7699 20.3408 19.6398 19.904 19.6398 19.4571C19.6398 18.8584 19.8731 18.2841 20.2885 17.8605C20.7039 17.4369 21.2674 17.1987 21.8551 17.1982Z" fill="white" fill-opacity="0.7"/>
<path fill-rule="evenodd" clip-rule="evenodd" d="M21.8551 11.2478C22.2939 11.2474 22.723 11.3797 23.0879 11.628C23.4529 11.8762 23.7373 12.2292 23.9053 12.6422C24.0732 13.0553 24.117 13.5098 24.0313 13.9483C23.9455 14.3867 23.7339 14.7894 23.4234 15.1053C23.1128 15.4211 22.7172 15.636 22.2867 15.7227C21.8563 15.8094 21.4102 15.7639 21.0051 15.5922C20.5999 15.4204 20.2539 15.13 20.0109 14.7577C19.7678 14.3855 19.6387 13.9481 19.6398 13.5011C19.6398 12.9023 19.8731 12.328 20.2885 11.9045C20.7039 11.4809 21.2674 11.2427 21.8551 11.2422V11.2478Z" fill="white" fill-opacity="0.7"/>
<path fill-rule="evenodd" clip-rule="evenodd" d="M16.8927 2.56535C17.2756 2.56498 17.6499 2.68037 17.9684 2.8969C18.2869 3.11343 18.5352 3.42137 18.6818 3.78173C18.8284 4.1421 18.8667 4.53868 18.792 4.92127C18.7172 5.30386 18.5328 5.65525 18.2619 5.93096C17.991 6.20667 17.646 6.39429 17.2704 6.47008C16.8948 6.54586 16.5056 6.50641 16.152 6.3567C15.7984 6.20699 15.4964 5.95376 15.2842 5.62907C15.072 5.30439 14.9591 4.92285 14.9598 4.53275C14.9603 4.01062 15.1641 3.51002 15.5264 3.14081C15.8888 2.77161 16.3802 2.56397 16.8927 2.56348V2.56535Z" fill="white" fill-opacity="0.7"/>
<path fill-rule="evenodd" clip-rule="evenodd" d="M16.8816 20.5073C17.2643 20.507 17.6386 20.6222 17.957 20.8386C18.2754 21.055 18.5236 21.3627 18.6704 21.7228C18.8171 22.083 18.8557 22.4794 18.7812 22.8619C18.7068 23.2444 18.5227 23.5958 18.2521 23.8716C17.9816 24.1475 17.6369 24.3354 17.2616 24.4116C16.8862 24.4878 16.4971 24.4489 16.1435 24.2998C15.7899 24.1506 15.4876 23.898 15.2749 23.5738C15.0622 23.2496 14.9487 22.8684 14.9487 22.4785C14.9487 21.956 15.1523 21.4549 15.5147 21.0853C15.8772 20.7157 16.3688 20.5078 16.8816 20.5073Z" fill="white" fill-opacity="0.7"/>
<path fill-rule="evenodd" clip-rule="evenodd" d="M16.8816 14.5605C17.2643 14.5602 17.6386 14.6755 17.957 14.8918C18.2754 15.1082 18.5236 15.4159 18.6704 15.7761C18.8171 16.1362 18.8557 16.5326 18.7812 16.9151C18.7068 17.2976 18.5227 17.649 18.2521 17.9248C17.9816 18.2007 17.6369 18.3886 17.2616 18.4648C16.8862 18.541 16.4971 18.5021 16.1435 18.353C15.7899 18.2038 15.4876 17.9512 15.2749 17.627C15.0622 17.3028 14.9487 16.9216 14.9487 16.5317C14.9487 16.0092 15.1523 15.5081 15.5147 15.1385C15.8772 14.7689 16.3688 14.561 16.8816 14.5605Z" fill="white" fill-opacity="0.7"/>
<path fill-rule="evenodd" clip-rule="evenodd" d="M16.8816 8.50098C17.2644 8.50061 17.6387 8.61595 17.9572 8.8324C18.2756 9.04885 18.5239 9.35668 18.6705 9.71694C18.8172 10.0772 18.8557 10.4737 18.7811 10.8562C18.7065 11.2388 18.5222 11.5901 18.2515 11.8659C17.9808 12.1417 17.6359 12.3295 17.2604 12.4055C16.885 12.4815 16.4958 12.4423 16.1422 12.2929C15.7886 12.1434 15.4865 11.8905 15.274 11.5661C15.0616 11.2416 14.9484 10.8603 14.9487 10.4703C14.9487 9.94797 15.1524 9.44708 15.5149 9.07777C15.8773 8.70845 16.369 8.50098 16.8816 8.50098Z" fill="white" fill-opacity="0.7"/>
<path fill-rule="evenodd" clip-rule="evenodd" d="M11.9101 0C12.2322 0 12.547 0.0973062 12.8148 0.279613C13.0826 0.46192 13.2913 0.721041 13.4146 1.02421C13.5378 1.32737 13.5701 1.66097 13.5073 1.98281C13.4444 2.30465 13.2893 2.60027 13.0616 2.8323C12.8338 3.06434 12.5437 3.22235 12.2278 3.28637C11.9119 3.35039 11.5845 3.31753 11.2869 3.19195C10.9893 3.06638 10.735 2.85373 10.5561 2.58089C10.3771 2.30804 10.2816 1.98727 10.2816 1.65912C10.2816 1.2191 10.4532 0.797092 10.7586 0.485946C11.064 0.1748 11.4782 0 11.9101 0Z" fill="white" fill-opacity="0.7"/>
<path fill-rule="evenodd" clip-rule="evenodd" d="M11.9101 23.6855C12.2322 23.6855 12.5472 23.7829 12.815 23.9653C13.0828 24.1477 13.2916 24.4069 13.4148 24.7102C13.538 25.0135 13.5701 25.3472 13.5071 25.669C13.4441 25.9909 13.2889 26.2866 13.0609 26.5185C12.833 26.7505 12.5427 26.9083 12.2267 26.9721C11.9106 27.0359 11.5832 27.0028 11.2856 26.877C10.9881 26.7511 10.7339 26.5382 10.5552 26.2651C10.3765 25.992 10.2813 25.671 10.2816 25.3428C10.2816 25.125 10.3238 24.9094 10.4056 24.7082C10.4875 24.507 10.6075 24.3242 10.7587 24.1703C10.9099 24.0164 11.0895 23.8943 11.287 23.8112C11.4846 23.728 11.6963 23.6853 11.9101 23.6855Z" fill="white" fill-opacity="0.7"/>
<path fill-rule="evenodd" clip-rule="evenodd" d="M11.9101 17.7461C12.2317 17.7465 12.546 17.844 12.8133 18.0263C13.0805 18.2086 13.2887 18.4676 13.4116 18.7704C13.5344 19.0733 13.5664 19.4065 13.5034 19.7278C13.4404 20.0492 13.2854 20.3443 13.0578 20.5759C12.8302 20.8075 12.5404 20.9651 12.2249 21.0289C11.9094 21.0927 11.5825 21.0598 11.2853 20.9343C10.9882 20.8088 10.7343 20.5964 10.5556 20.3239C10.377 20.0514 10.2816 19.7311 10.2816 19.4034C10.2816 19.1856 10.3238 18.9699 10.4056 18.7687C10.4875 18.5675 10.6075 18.3848 10.7587 18.2308C10.9099 18.0769 11.0895 17.9549 11.287 17.8717C11.4846 17.7885 11.6963 17.7458 11.9101 17.7461Z" fill="white" fill-opacity="0.7"/>
<path fill-rule="evenodd" clip-rule="evenodd" d="M11.9101 11.8364C12.2322 11.8364 12.547 11.9337 12.8148 12.116C13.0826 12.2983 13.2913 12.5575 13.4146 12.8606C13.5378 13.1638 13.5701 13.4974 13.5073 13.8192C13.4444 14.1411 13.2893 14.4367 13.0616 14.6687C12.8338 14.9008 12.5437 15.0588 12.2278 15.1228C11.9119 15.1868 11.5845 15.154 11.2869 15.0284C10.9893 14.9028 10.735 14.6902 10.5561 14.4173C10.3771 14.1445 10.2816 13.8237 10.2816 13.4956C10.2814 13.2776 10.3233 13.0617 10.4051 12.8603C10.4868 12.6589 10.6068 12.4759 10.758 12.3218C10.9093 12.1677 11.0889 12.0455 11.2866 11.9622C11.4843 11.8789 11.6962 11.8362 11.9101 11.8364Z" fill="white" fill-opacity="0.7"/>
<path fill-rule="evenodd" clip-rule="evenodd" d="M11.9101 5.91553C12.2317 5.9159 12.546 6.01341 12.8133 6.19573C13.0805 6.37806 13.2887 6.63702 13.4116 6.93987C13.5344 7.24273 13.5664 7.57589 13.5034 7.89724C13.4404 8.21859 13.2854 8.51372 13.0578 8.7453C12.8302 8.97688 12.5404 9.13453 12.2249 9.19833C11.9094 9.26212 11.5825 9.2292 11.2853 9.10371C10.9882 8.97822 10.7343 8.76581 10.5556 8.49331C10.377 8.22082 10.2816 7.90048 10.2816 7.57278C10.2816 7.35499 10.3238 7.13934 10.4056 6.93815C10.4875 6.73696 10.6075 6.55418 10.7587 6.40027C10.9099 6.24635 11.0895 6.12432 11.287 6.04115C11.4846 5.95797 11.6963 5.91528 11.9101 5.91553Z" fill="white" fill-opacity="0.7"/>
<path fill-rule="evenodd" clip-rule="evenodd" d="M6.87796 3.16309C7.15796 3.16309 7.43168 3.24768 7.6645 3.40617C7.89731 3.56467 8.07877 3.78993 8.18593 4.05349C8.29308 4.31706 8.32112 4.60707 8.26649 4.88687C8.21187 5.16667 8.07703 5.42368 7.87903 5.6254C7.68104 5.82713 7.42878 5.9645 7.15415 6.02015C6.87953 6.07581 6.59487 6.04724 6.33618 5.93807C6.07749 5.8289 5.85638 5.64403 5.70082 5.40683C5.54525 5.16963 5.46222 4.89076 5.46222 4.60548C5.46198 4.41599 5.49843 4.22831 5.5695 4.0532C5.64056 3.87809 5.74483 3.71899 5.87634 3.585C6.00785 3.45101 6.16402 3.34478 6.33589 3.27238C6.50777 3.19998 6.69197 3.16284 6.87796 3.16309Z" fill="white" fill-opacity="0.7"/>
<path fill-rule="evenodd" clip-rule="evenodd" d="M6.87796 20.9556C7.15796 20.9556 7.43168 21.0402 7.6645 21.1986C7.89731 21.3571 8.07877 21.5824 8.18593 21.846C8.29308 22.1095 8.32112 22.3996 8.26649 22.6794C8.21186 22.9591 8.07703 23.2162 7.87903 23.4179C7.68104 23.6196 7.42878 23.757 7.15415 23.8126C6.87953 23.8683 6.59487 23.8397 6.33618 23.7306C6.07749 23.6214 5.85638 23.4365 5.70081 23.1993C5.54525 22.9621 5.46222 22.6832 5.46222 22.398C5.46222 22.0154 5.61138 21.6485 5.87688 21.378C6.14238 21.1075 6.50248 20.9556 6.87796 20.9556Z" fill="white" fill-opacity="0.7"/>
<path fill-rule="evenodd" clip-rule="evenodd" d="M6.87796 15.0815C7.15796 15.0815 7.43168 15.1661 7.6645 15.3246C7.89731 15.4831 8.07877 15.7084 8.18593 15.972C8.29308 16.2355 8.32112 16.5255 8.26649 16.8053C8.21186 17.0851 8.07703 17.3421 7.87903 17.5439C7.68104 17.7456 7.42878 17.883 7.15415 17.9386C6.87953 17.9943 6.59487 17.9657 6.33618 17.8565C6.07749 17.7474 5.85638 17.5625 5.70081 17.3253C5.54525 17.0881 5.46222 16.8092 5.46222 16.5239C5.46222 16.1414 5.61138 15.7745 5.87688 15.504C6.14238 15.2335 6.50248 15.0815 6.87796 15.0815Z" fill="white" fill-opacity="0.7"/>
<path fill-rule="evenodd" clip-rule="evenodd" d="M6.87796 9.03565C7.15804 9.03565 7.43183 9.12029 7.66469 9.27886C7.89754 9.43744 8.079 9.66282 8.1861 9.92649C8.2932 10.1902 8.32113 10.4803 8.26636 10.7601C8.21158 11.04 8.07656 11.297 7.87838 11.4986C7.68021 11.7003 7.42778 11.8375 7.15303 11.8929C6.87828 11.9484 6.59357 11.9196 6.33491 11.8101C6.07625 11.7006 5.85527 11.5155 5.69993 11.278C5.54458 11.0406 5.46186 10.7615 5.46222 10.4762C5.46222 10.2868 5.49885 10.0994 5.57002 9.92447C5.64119 9.74958 5.74551 9.59069 5.87699 9.4569C6.00848 9.32311 6.16456 9.21705 6.33632 9.14476C6.50807 9.07248 6.69213 9.0354 6.87796 9.03565Z" fill="white" fill-opacity="0.7"/>
<path fill-rule="evenodd" clip-rule="evenodd" d="M1.84585 6.33203C2.07907 6.33203 2.30705 6.40249 2.50097 6.5345C2.69488 6.66651 2.84602 6.85413 2.93527 7.07365C3.02451 7.29318 3.04787 7.53473 3.00237 7.76777C2.95687 8.00082 2.84456 8.21488 2.67966 8.3829C2.51475 8.55091 2.30464 8.66533 2.0759 8.71169C1.84716 8.75804 1.61007 8.73425 1.39461 8.64332C1.17914 8.55239 0.994981 8.39841 0.865413 8.20085C0.735844 8.00328 0.666687 7.77101 0.666687 7.5334C0.666687 7.21478 0.79092 6.9092 1.01206 6.6839C1.23319 6.4586 1.53312 6.33203 1.84585 6.33203Z" fill="white" fill-opacity="0.7"/>
<path fill-rule="evenodd" clip-rule="evenodd" d="M1.84585 18.2505C2.07907 18.2505 2.30705 18.321 2.50097 18.453C2.69488 18.585 2.84602 18.7726 2.93527 18.9921C3.02451 19.2116 3.04787 19.4532 3.00237 19.6862C2.95687 19.9193 2.84456 20.1333 2.67966 20.3014C2.51475 20.4694 2.30464 20.5838 2.0759 20.6301C1.84716 20.6765 1.61007 20.6527 1.39461 20.5618C1.17914 20.4709 0.994981 20.3169 0.865413 20.1193C0.735844 19.9217 0.666687 19.6895 0.666687 19.4519C0.666687 19.1332 0.79092 18.8277 1.01206 18.6024C1.23319 18.3771 1.53312 18.2505 1.84585 18.2505Z" fill="white" fill-opacity="0.7"/>
<path fill-rule="evenodd" clip-rule="evenodd" d="M1.84585 12.2998C2.07907 12.2998 2.30705 12.3703 2.50097 12.5023C2.69488 12.6343 2.84602 12.8219 2.93527 13.0414C3.02451 13.2609 3.04787 13.5025 3.00237 13.7355C2.95687 13.9686 2.84456 14.1827 2.67966 14.3507C2.51475 14.5187 2.30464 14.6331 2.0759 14.6795C1.84716 14.7258 1.61007 14.702 1.39461 14.6111C1.17914 14.5202 0.994981 14.3662 0.865413 14.1686C0.735844 13.9711 0.666687 13.7388 0.666687 13.5012C0.666687 13.1826 0.79092 12.877 1.01206 12.6517C1.23319 12.4264 1.53312 12.2998 1.84585 12.2998Z" fill="white" fill-opacity="0.7"/>
<path fill-rule="evenodd" clip-rule="evenodd" d="M82.7464 5.84033C83.502 5.84033 84.2557 5.84033 85.0112 5.84033C84.9965 11.0569 84.9965 16.274 85.0112 21.4918C84.2557 21.4824 83.5001 21.4918 82.7446 21.4918C82.7556 16.2765 82.7556 11.0618 82.7446 5.84781L82.7464 5.84033Z" fill="white" fill-opacity="0.7"/>
<path fill-rule="evenodd" clip-rule="evenodd" d="M75.6714 13.2935C75.0531 13.4458 74.5021 13.8034 74.1053 14.3099C73.1003 15.5692 73.126 17.5795 74.219 18.7772C74.5268 19.1356 74.9194 19.4078 75.3595 19.5681C75.7997 19.7283 76.2727 19.7713 76.7338 19.6928C77.1948 19.6144 77.6285 19.4172 77.9936 19.1199C78.3588 18.8226 78.6433 18.4352 78.8201 17.9943C79.3702 16.7033 79.1869 15.046 78.1911 14.024C77.8693 13.6901 77.4679 13.4471 77.0261 13.319C76.5843 13.191 76.1175 13.1822 75.6714 13.2935ZM73.6119 11.8698C74.8095 11.1093 76.3627 10.8627 77.6831 11.4494C78.1746 11.6362 78.5652 12.0099 78.9576 12.3537C78.9686 12.0547 78.9686 11.7558 78.9686 11.455H81.1418C81.1418 14.6125 81.1418 17.7695 81.1418 20.9258C81.1418 22.2337 80.9235 23.5901 80.1808 24.6794C79.5144 25.6416 78.5021 26.297 77.364 26.5029C76.2895 26.7358 75.1711 26.6356 74.1529 26.2152C72.9632 25.6754 72.0175 24.6978 71.5048 23.478C72.1614 23.1828 72.8307 22.9175 73.4872 22.6242C73.854 23.4593 74.5417 24.1955 75.4366 24.4346C76.4452 24.6738 77.6538 24.4496 78.3231 23.5827C78.9925 22.7157 79.0016 21.591 78.954 20.5596C78.4573 21.1002 77.822 21.4885 77.1201 21.6806C75.5393 22.088 73.8192 21.4938 72.6822 20.3317C72.1101 19.7552 71.6736 19.0542 71.4054 18.2813C71.1372 17.5084 71.0442 16.6837 71.1335 15.869C71.2228 15.0543 71.492 14.2707 71.9209 13.5771C72.3498 12.8835 72.9273 12.2979 73.6101 11.8642L73.6119 11.8698Z" fill="white" fill-opacity="0.7"/>
<path fill-rule="evenodd" clip-rule="evenodd" d="M52.7482 13.286C52.0095 13.4522 51.3623 13.9027 50.9418 14.5434C50.1092 15.8139 50.2083 17.6749 51.2554 18.7959C51.5928 19.1613 52.016 19.433 52.4852 19.5853C52.9543 19.7377 53.4538 19.7656 53.9365 19.6665C54.5245 19.5441 55.0615 19.2408 55.4751 18.7977C56.669 17.5198 56.6378 15.2665 55.3816 14.0427C55.0371 13.7063 54.6168 13.4614 54.1576 13.3294C53.6984 13.1975 53.2144 13.1826 52.7482 13.286ZM52.8124 11.1542C53.6727 11.0602 54.5427 11.1798 55.3478 11.5029C56.1529 11.826 56.8692 12.3429 57.4355 13.0095C58.9429 14.8106 59.0475 17.6375 57.7069 19.5638C57.2719 20.1899 56.7089 20.7126 56.0568 21.0961C55.4047 21.4795 54.6789 21.7147 53.9292 21.7853C52.5256 21.9399 51.1186 21.5258 50.0121 20.6325C49.4513 20.1555 48.9927 19.5661 48.6647 18.9011C48.3367 18.236 48.1463 17.5093 48.1054 16.7662C48.0645 16.023 48.1739 15.2793 48.4268 14.581C48.6797 13.8827 49.0707 13.2448 49.5756 12.7068C50.4446 11.8217 51.5891 11.2727 52.8124 11.1542Z" fill="white" fill-opacity="0.7"/>
<path fill-rule="evenodd" clip-rule="evenodd" d="M88.9925 14.3605C88.5908 14.9303 88.3899 15.6216 88.4222 16.3223C89.9993 15.6609 91.5739 14.9945 93.1462 14.3232C92.9869 14.0014 92.747 13.7282 92.4507 13.5313C92.1544 13.3344 91.8123 13.2209 91.459 13.2021C90.9844 13.1643 90.5082 13.2515 90.0763 13.4553C89.6443 13.6592 89.2711 13.9728 88.9925 14.3661V14.3605ZM87.5474 12.679C88.152 12.0243 88.9205 11.55 89.7701 11.3074C90.6196 11.0647 91.5181 11.0629 92.3686 11.302C93.5496 11.6383 94.5234 12.522 95.1359 13.5889C95.4275 14.0635 95.5962 14.5978 95.8218 15.106C93.4946 16.1243 91.1436 17.0884 88.8054 18.0805C89.0879 18.7263 89.5995 19.2396 90.2377 19.5173C90.7204 19.7108 91.2439 19.7745 91.7578 19.7022C92.2717 19.6298 92.7587 19.424 93.1719 19.1044C93.4698 18.8554 93.7337 18.567 93.9567 18.2468C94.5436 18.6503 95.1359 19.0502 95.7246 19.4537C95.2766 20.1259 94.6849 20.6859 93.994 21.0916C93.3031 21.4974 92.531 21.7383 91.7355 21.7964C90.9401 21.8545 90.1421 21.7282 89.4015 21.427C88.6609 21.1257 87.9969 20.6574 87.4594 20.0572C85.6861 18.0375 85.7392 14.6539 87.5529 12.679H87.5474Z" fill="white" fill-opacity="0.7"/>
<path fill-rule="evenodd" clip-rule="evenodd" d="M64.2501 13.2859C63.679 13.4156 63.1598 13.7185 62.761 14.1547C61.6094 15.4009 61.6204 17.5645 62.7776 18.8051C63.0521 19.1009 63.3839 19.3354 63.752 19.4938C64.12 19.6522 64.5163 19.7311 64.9159 19.7255C65.3154 19.7199 65.7094 19.6299 66.0731 19.4612C66.4367 19.2924 66.762 19.0487 67.0284 18.7453C68.1728 17.4599 68.1287 15.2459 66.8854 14.0408C66.5404 13.7049 66.1194 13.4609 65.6597 13.3305C65.2 13.2002 64.7158 13.1874 64.2501 13.2934V13.2859ZM64.1181 11.1859C64.9495 11.0594 65.7985 11.1355 66.5954 11.408C67.3924 11.6805 68.1145 12.1416 68.7027 12.7534C70.4302 14.5471 70.5989 17.6112 69.1465 19.6272C68.7126 20.2337 68.1568 20.7391 67.5162 21.1096C66.8755 21.4801 66.1647 21.7072 65.4311 21.7759C64.0647 21.9253 62.6942 21.5333 61.6039 20.681C60.7897 20.0363 60.1806 19.1609 59.853 18.1648C59.5253 17.1686 59.4939 16.0961 59.7624 15.0818C60.031 14.0675 60.5877 13.1566 61.3626 12.4635C62.1375 11.7703 63.0961 11.3259 64.1181 11.1859Z" fill="white" fill-opacity="0.7"/>
<path fill-rule="evenodd" clip-rule="evenodd" d="M33.9145 7.62279C34.7128 6.82812 35.6601 6.20559 36.6999 5.79243C37.7397 5.37927 38.8506 5.18397 39.9662 5.21819C41.9716 5.24249 43.8895 6.05903 45.3156 7.49574C44.7911 8.0164 44.2733 8.5439 43.7623 9.07826C42.6273 7.9963 41.1185 7.41528 39.5648 7.46183C38.0111 7.50837 36.5384 8.17872 35.4678 9.32676C34.8686 9.98552 34.4186 10.7702 34.1495 11.6255C33.8805 12.4808 33.7989 13.3858 33.9107 14.2767C34.0225 15.1676 34.3248 16.0227 34.7963 16.7816C35.2678 17.5404 35.897 18.1846 36.6396 18.6687C37.9893 19.5375 39.682 19.7393 41.2242 19.3936C42.3152 19.1418 43.2999 18.5447 44.0374 17.6878C44.6646 16.9404 44.9543 15.9782 45.0735 15.0235C43.2965 15.0235 41.5195 15.0235 39.7425 15.0235C39.7425 14.2761 39.7425 13.5157 39.7425 12.7608H47.2265C47.54 14.6554 47.254 16.6938 46.282 18.366C45.7744 19.183 45.1137 19.8902 44.3378 20.4471C43.5618 21.0039 42.6858 21.3995 41.7597 21.6114C40.1448 21.984 38.4594 21.8836 36.8982 21.3218C34.86 20.5668 33.1889 19.0357 32.2365 17.0507C31.4814 15.4662 31.2548 13.6739 31.591 11.9462C31.9169 10.3004 32.7274 8.79482 33.9145 7.63026V7.62279Z" fill="white" fill-opacity="0.7"/>
<path fill-rule="evenodd" clip-rule="evenodd" d="M115.792 6.46826H117.667V21.5835H115.792V6.46826Z" fill="white" fill-opacity="0.7"/>
<path fill-rule="evenodd" clip-rule="evenodd" d="M105.039 15.6327H109.807L107.423 9.05037L105.039 15.6327ZM108.565 6.46826L114.067 21.5854H111.958L110.491 17.5384H104.349L102.882 21.5854H100.777L106.278 6.46826H108.565Z" fill="white" fill-opacity="0.7"/>
</g>
<defs>
<clipPath id="clip0_75_23997">
<rect width="117" height="27" fill="white" transform="translate(0.666687)"/>
</clipPath>
</defs>
</svg>
