<svg width="100" height="29" viewBox="0 0 100 29" fill="none" xmlns="http://www.w3.org/2000/svg">
<path d="M37.7048 12.3474C37.7048 9.28466 36.8304 7.71227 35.0812 7.62625C34.3851 7.59344 33.7059 7.70407 33.0448 7.96046C32.5172 8.14891 32.1621 8.33568 31.9753 8.52434V15.8348C33.0941 16.536 34.0875 16.862 34.954 16.8107C36.787 16.6893 37.7048 15.2032 37.7048 12.3474ZM39.8624 12.4744C39.8624 14.0304 39.4969 15.322 38.7619 16.349C37.9428 17.5115 36.8076 18.1101 35.3563 18.1429C34.2621 18.1776 33.1349 17.8354 31.9751 17.1178V23.7621L30.0987 23.0937V8.34577C30.4066 7.96866 30.803 7.64476 31.2832 7.36987C32.4001 6.71996 33.7569 6.38597 35.3542 6.36956L35.3807 6.39606C36.8405 6.37777 37.9651 6.97635 38.7556 8.18992C39.4927 9.30317 39.8624 10.73 39.8624 12.4744ZM51.3297 16.8351C51.3297 18.9221 51.1203 20.3673 50.7016 21.1709C50.2808 21.9744 49.4801 22.6161 48.2977 23.0939C47.339 23.471 46.3021 23.6761 45.1896 23.711L44.8794 22.5303C46.0106 22.3767 46.8072 22.2228 47.269 22.069C48.1785 21.7615 48.8025 21.2902 49.1454 20.6586C49.4205 20.1441 49.5559 19.1621 49.5559 17.7088V17.2208C48.2728 17.8032 46.9283 18.0922 45.5222 18.0922C44.5982 18.0922 43.7834 17.8032 43.0812 17.2208C42.2929 16.5873 41.8988 15.7839 41.8988 14.8101V7.01126L43.7752 6.36956V14.2191C43.7752 15.0574 44.046 15.7033 44.5879 16.1564C45.1298 16.6094 45.832 16.8269 46.6922 16.8103C47.5523 16.7918 48.474 16.4597 49.4531 15.8098V6.65224H51.3295L51.3297 16.8351ZM58.6542 18.0405C58.4487 18.0578 58.2426 18.0666 58.0363 18.067C56.975 18.067 56.1475 17.815 55.5565 17.3085C54.9672 16.8023 54.6717 16.1034 54.6717 15.2114V7.83111H53.3866V6.65245H54.6717V3.52198L56.546 2.85567V6.65245H58.6542V7.83111H56.546V15.1601C56.546 15.8634 56.7347 16.3614 57.1123 16.6527C57.4367 16.8925 57.952 17.0299 58.654 17.0648V18.0405H58.6542ZM70.015 17.8867H68.1386V10.6541C68.1386 9.91816 67.9663 9.28466 67.6235 8.7559C67.2273 8.15711 66.6772 7.85782 65.9708 7.85782C65.1106 7.85782 64.035 8.31086 62.7437 9.21694V17.8867H60.8676V0.598681L62.7437 0.00830078V7.88243C63.9426 7.01105 65.2524 6.57442 66.6751 6.57442C67.6688 6.57442 68.4733 6.90862 69.0893 7.57493C69.7073 8.24103 70.0152 9.07139 70.0152 10.0637L70.015 17.8867ZM79.9878 12.0523C79.9878 10.8756 79.7641 9.90385 79.3185 9.13512C78.7888 8.19833 77.9657 7.70407 76.853 7.65296C74.7959 7.7718 73.7694 9.24365 73.7694 12.0647C73.7694 13.3582 73.983 14.4387 74.4141 15.3058C74.9642 16.4109 75.7896 16.9562 76.8901 16.9377C78.9552 16.9211 79.9878 15.2934 79.9878 12.0523ZM82.0428 12.0645C82.0428 13.7395 81.6137 15.1336 80.7576 16.2466C79.8151 17.4932 78.5139 18.1183 76.853 18.1183C75.2066 18.1183 73.9236 17.493 72.9977 16.2466C72.158 15.1336 71.7391 13.7395 71.7391 12.0645C71.7391 10.4902 72.1927 9.16583 73.1003 8.08749C74.059 6.94354 75.3193 6.36956 76.8777 6.36956C78.4356 6.36956 79.7043 6.94354 80.6816 8.08749C81.5891 9.16583 82.0428 10.4902 82.0428 12.0645ZM92.7997 17.8867H90.9233V10.2442C90.9233 9.40581 90.671 8.7517 90.166 8.28015C89.6609 7.81071 88.9874 7.58313 88.1479 7.60143C87.2572 7.61784 86.409 7.90893 85.6045 8.47281V17.8867H83.7281V8.24124C84.8079 7.45631 85.8016 6.94354 86.7089 6.70377C87.5649 6.4804 88.3204 6.36956 88.9711 6.36956C89.4164 6.36956 89.8355 6.41247 90.2296 6.4987C90.9665 6.66885 91.5661 6.98455 92.0278 7.4479C92.5432 7.96046 92.7997 8.57524 92.7997 9.29497V17.8867Z" fill="white" fill-opacity="0.7"/>
<path d="M11.5667 0.667686C10.6013 0.672103 9.6794 0.75434 8.86832 0.897781C6.47869 1.31948 6.04482 2.20179 6.04482 3.82928V5.97859H11.6918V6.69495H3.92541C2.2843 6.69495 0.847068 7.68011 0.397616 9.5541C-0.120917 11.7021 -0.143874 13.0425 0.397616 15.2854C0.799048 16.955 1.75777 18.1446 3.39887 18.1446H5.34053V15.5681C5.34053 13.7067 6.95321 12.065 8.86832 12.065H14.5088C16.0789 12.065 17.3323 10.774 17.3323 9.19929V3.82907C17.3323 2.30086 16.0412 1.15269 14.5088 0.897571C13.5385 0.736462 12.5322 0.663059 11.5667 0.667686ZM8.5128 2.39613C9.09621 2.39613 9.57241 2.87967 9.57241 3.47405C9.57241 4.06632 9.096 4.54544 8.5128 4.54544C7.92751 4.54544 7.4532 4.06653 7.4532 3.47405C7.4532 2.87967 7.92751 2.39613 8.5128 2.39613Z" fill="white" fill-opacity="0.7"/>
<path d="M18.0366 6.69482V9.19895C18.0366 11.1405 16.3884 12.7745 14.5088 12.7745H8.86836C7.32329 12.7745 6.04486 14.0949 6.04486 15.6401V21.0099C6.04486 22.5384 7.37552 23.4373 8.86836 23.8756C10.6558 24.4006 12.37 24.4954 14.5088 23.8756C15.9305 23.4646 17.3323 22.6372 17.3323 21.0099V18.8608H11.6919V18.1445H20.1558C21.7971 18.1445 22.4086 17.0011 22.9793 15.2853C23.569 13.519 23.544 11.82 22.9793 9.55397C22.5737 7.92249 21.799 6.69482 20.1558 6.69482H18.0366ZM14.8641 20.2936C15.4494 20.2936 15.9237 20.7725 15.9237 21.365C15.9237 21.9593 15.4494 22.4429 14.8641 22.4429C14.2807 22.4429 13.8045 21.9593 13.8045 21.365C13.8045 20.7727 14.2809 20.2936 14.8641 20.2936Z" fill="white" fill-opacity="0.7"/>
<path d="M96.4537 4.98178H96.7827V2.92144H97.5617V2.67578H95.6742V2.92144H96.4535L96.4537 4.98178ZM97.8536 4.98178H98.1346V3.10001L98.7445 4.98157H99.0573L99.6931 3.10632V4.98178H99.9998V2.67599H99.5942L98.8993 4.65157L98.3071 2.67599H97.8536V4.98178Z" fill="white" fill-opacity="0.7"/>
</svg>
