<svg width="100" height="27" viewBox="0 0 100 27" fill="none" xmlns="http://www.w3.org/2000/svg">
<g clip-path="url(#clip0_75_23989)">
<path d="M31.1609 12.9803C31.1609 17.3948 33.9799 20.4728 37.8862 20.4728C41.7925 20.4728 44.6115 17.3948 44.6115 12.9803C44.6115 8.56579 41.7925 5.48779 37.8862 5.48779C33.9799 5.48779 31.1609 8.56579 31.1609 12.9803ZM42.0341 12.9803C42.0341 16.1393 40.3226 18.1845 37.8862 18.1845C35.4498 18.1845 33.7383 16.1393 33.7383 12.9803C33.7383 9.82129 35.4498 7.77604 37.8862 7.77604C40.3226 7.77604 42.0341 9.82129 42.0341 12.9803Z" fill="white" fill-opacity="0.7"/>
<path d="M51.8696 20.4725C54.8295 20.4725 56.5209 17.9615 56.5209 14.9443C56.5209 11.927 54.8295 9.41602 51.8696 9.41602C50.5003 9.41602 49.4936 9.96277 48.8291 10.7525V9.61852H46.4128V23.8948H48.8291V19.136C49.4936 19.9258 50.5003 20.4725 51.8696 20.4725ZM48.7687 14.6405C48.7687 12.6358 49.8963 11.5423 51.3863 11.5423C53.1381 11.5423 54.0845 12.9193 54.0845 14.9443C54.0845 16.9693 53.1381 18.3463 51.3863 18.3463C49.8963 18.3463 48.7687 17.2325 48.7687 15.2683V14.6405Z" fill="white" fill-opacity="0.7"/>
<path d="M63.0599 20.4725C65.1742 20.4725 66.8454 19.3588 67.5904 17.4958L65.5165 16.706C65.1943 17.7995 64.2479 18.407 63.0599 18.407C61.5095 18.407 60.4222 17.2933 60.2409 15.4708H67.6508V14.6608C67.6508 11.7448 66.0199 9.41602 62.9593 9.41602C59.8986 9.41602 57.9254 11.8258 57.9254 14.9443C57.9254 18.2248 60.0396 20.4725 63.0599 20.4725ZM62.9391 11.4613C64.4694 11.4613 65.1943 12.4738 65.2144 13.6483H60.3618C60.7242 12.2105 61.6907 11.4613 62.9391 11.4613Z" fill="white" fill-opacity="0.7"/>
<path d="M69.4639 20.2498H71.8801V14.0128C71.8801 12.494 72.9876 11.684 74.0749 11.684C75.4039 11.684 75.9274 12.6358 75.9274 13.952V20.2498H78.3437V13.2433C78.3437 10.955 77.0147 9.41602 74.7998 9.41602C73.4306 9.41602 72.4842 10.0438 71.8801 10.7525V9.61852H69.4639V20.2498Z" fill="white" fill-opacity="0.7"/>
<path d="M85.4205 5.71045L79.9436 20.25H82.5008L83.7291 16.9289H89.9711L91.2195 20.25H93.817L88.3401 5.71045H85.4205ZM86.83 8.58595L89.1254 14.6609H84.5748L86.83 8.58595Z" fill="white" fill-opacity="0.7"/>
<path d="M97.965 5.75293H95.3876V20.2924H97.965V5.75293Z" fill="white" fill-opacity="0.7"/>
<path d="M25.2562 11.0507C25.8653 9.21219 25.6555 7.19816 24.6815 5.52585C23.2166 2.96084 20.2718 1.64122 17.3957 2.26222C16.1163 0.812657 14.2781 -0.0116873 12.3509 0.000125232C9.41114 -0.00662477 6.80274 1.89688 5.89831 4.70994C4.00976 5.09891 2.37962 6.28775 1.42569 7.97272C-0.0500778 10.531 0.286354 13.7558 2.25796 15.9495C1.64886 17.7881 1.85861 19.8021 2.83267 21.4744C4.29753 24.0394 7.24236 25.359 10.1184 24.738C11.397 26.1876 13.2361 27.0119 15.1632 26.9993C18.1047 27.0069 20.7139 25.1017 21.6183 22.2861C23.5069 21.8971 25.137 20.7083 26.091 19.0233C27.5651 16.4651 27.2278 13.2428 25.257 11.049L25.2562 11.0507ZM15.1649 25.235C13.9878 25.2367 12.8476 24.8224 11.944 24.0639C11.9851 24.0419 12.0564 24.0023 12.1026 23.9736L17.4486 20.8686C17.7221 20.7125 17.8899 20.4197 17.8882 20.1033V12.5239L20.1476 13.8359C20.1719 13.8478 20.1879 13.8714 20.1912 13.8984V20.175C20.1879 22.9662 17.9402 25.2291 15.1649 25.235ZM4.35542 20.5919C3.76562 19.5675 3.55335 18.3669 3.75555 17.2017C3.79498 17.2253 3.86462 17.2683 3.91412 17.297L9.26012 20.402C9.53111 20.5615 9.8667 20.5615 10.1385 20.402L16.665 16.6119V19.2359C16.6667 19.2629 16.6541 19.2891 16.6331 19.306L11.2292 22.4439C8.82217 23.8378 5.74813 23.0092 4.35626 20.5919H4.35542ZM2.94845 8.85613C3.53574 7.83013 4.46281 7.04544 5.56691 6.63791C5.56691 6.68431 5.5644 6.76616 5.5644 6.82353V13.0344C5.56272 13.3499 5.73052 13.6427 6.00319 13.7988L12.5296 17.5881L10.2703 18.9001C10.2476 18.9153 10.2191 18.9178 10.1939 18.9069L4.78918 15.7664C2.38717 14.3675 1.56329 11.2768 2.94761 8.85697L2.94845 8.85613ZM21.5118 13.2006L14.9853 9.41047L17.2447 8.09928C17.2674 8.0841 17.2959 8.08157 17.3211 8.09253L22.7258 11.2304C25.132 12.6285 25.9567 15.7243 24.5665 18.1441C23.9784 19.1684 23.0522 19.9531 21.9489 20.3615V13.965C21.9514 13.6495 21.7845 13.3575 21.5126 13.2006H21.5118ZM23.7603 9.79691C23.7208 9.77244 23.6512 9.73025 23.6017 9.70157L18.2557 6.59656C17.9847 6.4371 17.6491 6.4371 17.3773 6.59656L10.8508 10.3867V7.76263C10.8492 7.73563 10.8617 7.70947 10.8827 7.6926L16.2866 4.55722C18.6936 3.16081 21.771 3.99191 23.1587 6.41347C23.7452 7.4361 23.9574 8.63338 23.7586 9.79691H23.7603ZM9.62256 14.4738L7.36234 13.1618C7.33801 13.15 7.32207 13.1263 7.31871 13.0993V6.82269C7.32039 4.02819 9.57474 1.76356 12.3534 1.76525C13.5289 1.76525 14.6665 2.18038 15.5701 2.93638C15.529 2.95831 15.4585 2.99797 15.4115 3.02666L10.0655 6.13166C9.79203 6.28775 9.62424 6.57969 9.62591 6.8961L9.62256 14.4721V14.4738ZM10.85 11.8126L13.7571 10.1243L16.6641 11.8118V15.1876L13.7571 16.8751L10.85 15.1876V11.8126Z" fill="white" fill-opacity="0.7"/>
</g>
<defs>
<clipPath id="clip0_75_23989">
<rect width="99" height="27" fill="white" transform="translate(0.333344)"/>
</clipPath>
</defs>
</svg>
