<svg width="138" height="25" viewBox="0 0 138 25" fill="none" xmlns="http://www.w3.org/2000/svg">
<g clip-path="url(#clip0_75_24096)">
<path d="M22.5815 5.95293C22.4453 5.50651 22.1187 5.1438 21.7103 4.92059L13.4072 0.847025C13.1895 0.735421 12.9444 0.70752 12.7267 0.70752C12.5089 0.70752 12.2639 0.70752 12.0461 0.763322L3.743 4.86479C3.33465 5.06009 3.03519 5.42281 2.9263 5.89713L0.884557 15.0766C0.802888 15.5509 0.911781 16.0252 1.18401 16.4159L6.92811 23.698C7.25479 24.0329 7.71758 24.2561 8.18038 24.284H17.3274C17.8174 24.3398 18.2802 24.1166 18.5796 23.698L24.3237 16.4159C24.596 16.0252 24.7049 15.5509 24.6504 15.0766L22.5815 5.95293Z" fill="white" fill-opacity="0.7"/>
<path d="M21.3023 14.7138C21.275 14.7138 21.2478 14.7138 21.2478 14.6859C21.2478 14.658 21.1934 14.658 21.1389 14.658C21.03 14.6301 20.9211 14.6301 20.8122 14.6301C20.7578 14.6301 20.7033 14.6301 20.6489 14.6022H20.6217C20.3222 14.5743 19.9955 14.5185 19.6961 14.4348C19.6144 14.4069 19.5327 14.3232 19.5055 14.2395L19.2877 14.1837C19.3966 13.3745 19.3422 12.5375 19.1788 11.7284C18.9883 10.9192 18.6616 10.138 18.226 9.44048L18.3894 9.27307V9.24517C18.3894 9.16147 18.4166 9.04986 18.471 8.99406C18.716 8.77085 18.9611 8.60344 19.2333 8.43604C19.2877 8.40814 19.3422 8.38023 19.3966 8.35233C19.5055 8.29653 19.5872 8.24073 19.6961 8.18493C19.7233 8.15703 19.7505 8.15703 19.7778 8.12913C19.805 8.10122 19.7778 8.10122 19.7778 8.07332C20.0228 7.87801 20.0772 7.5432 19.8866 7.29209C19.805 7.18049 19.6416 7.09678 19.5055 7.09678C19.3694 7.09678 19.2333 7.15259 19.1244 7.23629L19.0972 7.26419C19.07 7.29209 19.0427 7.31999 19.0155 7.31999C18.9338 7.4037 18.8522 7.4874 18.7977 7.5711C18.7705 7.6269 18.716 7.65481 18.6888 7.68271C18.4983 7.90592 18.2533 8.12913 18.0082 8.29653C17.9538 8.32443 17.8994 8.35233 17.8449 8.35233C17.8177 8.35233 17.7632 8.35233 17.736 8.32443H17.7088L17.491 8.46394C17.2732 8.24073 17.0282 8.01752 16.8104 7.79431C15.8032 6.98518 14.5509 6.48296 13.2714 6.34345L13.2442 6.12024V6.14814C13.1625 6.09234 13.1353 6.00864 13.1081 5.92494C13.1081 5.61802 13.1081 5.31111 13.1625 4.9763V4.9484C13.1625 4.89259 13.1897 4.83679 13.1897 4.78099C13.217 4.66939 13.217 4.55778 13.2442 4.44618V4.27877C13.2714 3.99976 13.0536 3.72075 12.7814 3.69285C12.618 3.66494 12.4547 3.74865 12.3186 3.88815C12.2097 3.99976 12.1553 4.13926 12.1553 4.27877V4.41828C12.1553 4.52988 12.1825 4.64148 12.2097 4.75309C12.2369 4.80889 12.2369 4.86469 12.2369 4.9205V4.9484C12.2914 5.25531 12.2914 5.56222 12.2914 5.89703C12.2641 5.98074 12.2369 6.06444 12.1553 6.12024V6.17605L12.128 6.39926C11.8286 6.42716 11.5291 6.48296 11.2024 6.53876C9.92295 6.81777 8.75235 7.5153 7.85399 8.49184L7.69065 8.38024H7.66342C7.6362 8.38024 7.60898 8.40814 7.55453 8.40814C7.50008 8.40814 7.44564 8.38023 7.39119 8.35233C7.14618 8.15703 6.90117 7.93382 6.71061 7.71061C6.68339 7.65481 6.62894 7.6269 6.60172 7.599C6.52005 7.5153 6.4656 7.4316 6.38393 7.34789C6.35671 7.31999 6.32949 7.31999 6.30226 7.29209C6.27504 7.26419 6.27504 7.26419 6.27504 7.26419C6.16615 7.18049 6.03003 7.12468 5.89391 7.12468C5.73058 7.12468 5.59446 7.18049 5.51279 7.31999C5.34945 7.5711 5.4039 7.90592 5.62168 8.10122C5.64891 8.10122 5.64891 8.12913 5.64891 8.12913C5.64891 8.12913 5.70335 8.18493 5.73058 8.18493C5.81225 8.24073 5.92114 8.29653 6.03003 8.35233C6.08448 8.38023 6.13892 8.40814 6.19337 8.43604C6.4656 8.60344 6.73783 8.77085 6.95562 8.99406C7.01007 9.04986 7.06451 9.16147 7.03729 9.24517V9.21727L7.20063 9.38468C7.17341 9.44048 7.14618 9.46838 7.11896 9.52418C6.27504 10.8913 5.92114 12.5096 6.16615 14.1L5.94836 14.1558C5.94836 14.1837 5.92114 14.1837 5.92114 14.1837C5.89391 14.2674 5.81225 14.3232 5.73058 14.379C5.43112 14.4627 5.13166 14.5185 4.80499 14.5464C4.75054 14.5464 4.69609 14.5464 4.64165 14.5743C4.53275 14.5743 4.42386 14.6022 4.31497 14.6022C4.28775 14.6022 4.26052 14.6301 4.20608 14.6301C4.17885 14.6301 4.17885 14.6301 4.15163 14.658C3.85217 14.7138 3.66161 14.9928 3.71606 15.2997C3.7705 15.5508 4.01551 15.7182 4.26052 15.6903C4.31497 15.6903 4.34219 15.6903 4.39664 15.6624C4.42386 15.6624 4.42386 15.6624 4.42386 15.6345C4.42386 15.6066 4.50553 15.6345 4.53275 15.6345C4.64165 15.6066 4.75054 15.5508 4.83221 15.5229C4.88666 15.495 4.9411 15.4671 4.99555 15.4671H5.02277C5.32223 15.3555 5.59446 15.2718 5.92114 15.216H5.94836C6.03003 15.216 6.1117 15.2439 6.16615 15.2997C6.19337 15.2997 6.19337 15.3276 6.19337 15.3276L6.43838 15.2997C6.84673 16.5832 7.60898 17.7271 8.67068 18.5641C8.91569 18.7595 9.13348 18.9269 9.40571 19.0664L9.26959 19.2617C9.26959 19.2896 9.29682 19.2896 9.29682 19.2896C9.35126 19.3733 9.35126 19.4849 9.32404 19.5686C9.21515 19.8476 9.05181 20.1266 8.88847 20.3777V20.4056C8.86125 20.4614 8.83402 20.4893 8.77958 20.5451C8.72513 20.6009 8.67068 20.7125 8.58901 20.8241C8.56179 20.852 8.56179 20.8799 8.53457 20.9078C8.53457 20.9078 8.53457 20.9357 8.50734 20.9357C8.37123 21.2148 8.48012 21.5496 8.72513 21.6891C8.77958 21.717 8.86125 21.7449 8.91569 21.7449C9.13348 21.7449 9.32404 21.6054 9.43293 21.4101C9.43293 21.4101 9.43293 21.3822 9.46016 21.3822C9.46016 21.3543 9.48738 21.3264 9.5146 21.2985C9.54183 21.1869 9.59627 21.1031 9.6235 20.9915L9.67794 20.8241C9.75961 20.5172 9.89573 20.2382 10.0318 19.9592C10.0863 19.8755 10.168 19.8197 10.2496 19.7918C10.2769 19.7918 10.2769 19.7918 10.2769 19.7639L10.3857 19.5407C11.148 19.8476 11.9375 19.9871 12.7542 19.9871C13.2442 19.9871 13.7342 19.9313 14.2242 19.7918C14.5237 19.736 14.8231 19.6244 15.0954 19.5407L15.2043 19.736C15.2315 19.736 15.2315 19.736 15.2315 19.7639C15.3131 19.7918 15.3948 19.8476 15.4493 19.9313C15.5854 20.2103 15.7215 20.4893 15.8032 20.7962V20.8241L15.8576 20.9915C15.8848 21.1031 15.9121 21.2148 15.9665 21.2985C15.9937 21.3264 15.9937 21.3543 16.021 21.3822C16.021 21.3822 16.021 21.4101 16.0482 21.4101C16.1571 21.6054 16.3476 21.7449 16.5654 21.7449C16.6471 21.7449 16.7015 21.717 16.7832 21.6891C16.8921 21.6333 17.001 21.5217 17.0282 21.3822C17.0554 21.2427 17.0554 21.1031 17.001 20.9636C17.001 20.9357 16.9738 20.9357 16.9738 20.9357C16.9738 20.9078 16.9465 20.8799 16.9193 20.852C16.8649 20.7404 16.8104 20.6567 16.7288 20.573C16.7015 20.5172 16.6743 20.4893 16.6199 20.4335V20.3777C16.4293 20.1266 16.2932 19.8476 16.1843 19.5686C16.1571 19.4849 16.1571 19.3733 16.2115 19.2896C16.2115 19.2617 16.2387 19.2617 16.2387 19.2617L16.1571 19.0385C17.5455 18.1735 18.6072 16.8343 19.0972 15.2439L19.315 15.2718C19.3422 15.2718 19.3422 15.2439 19.3422 15.2439C19.3966 15.1881 19.4783 15.1602 19.56 15.1602H19.5872C19.8866 15.216 20.1861 15.2997 20.4583 15.4113H20.4856C20.54 15.4392 20.5944 15.4671 20.6489 15.4671C20.7578 15.5229 20.8395 15.5787 20.9484 15.6066C20.9756 15.6066 21.0028 15.6345 21.0572 15.6345C21.0845 15.6345 21.0845 15.6345 21.1117 15.6624C21.1661 15.6903 21.1934 15.6903 21.2478 15.6903C21.4928 15.6903 21.7106 15.5229 21.7923 15.2997C21.7651 14.9928 21.5473 14.7696 21.3023 14.7138ZM13.4347 13.8489L12.6997 14.2116L11.9647 13.8489L11.7741 13.0397L12.2914 12.3701H13.1081L13.6253 13.0397L13.4347 13.8489ZM17.8721 12.0353C18.0082 12.6212 18.0355 13.2071 17.981 13.7931L15.3948 13.0397C15.1498 12.9839 15.0137 12.7328 15.0681 12.4817C15.0954 12.398 15.1226 12.3422 15.177 12.2864L17.2188 10.3891C17.5182 10.8913 17.736 11.4494 17.8721 12.0353ZM16.4021 9.35677L14.1698 10.975C13.9792 11.0866 13.707 11.0587 13.5709 10.8634C13.5164 10.8076 13.4892 10.7518 13.4892 10.6681L13.3259 7.85011C14.5237 7.98962 15.5854 8.51974 16.4021 9.35677ZM11.4747 7.93382L12.0191 7.82221L11.883 10.6123C11.883 10.8634 11.6652 11.0587 11.4202 11.0587C11.3386 11.0587 11.2841 11.0308 11.2024 11.0029L8.94291 9.35677C9.65072 8.65925 10.5219 8.15703 11.4747 7.93382ZM8.15344 10.3891L10.168 12.2306C10.3585 12.398 10.3857 12.677 10.2224 12.8723C10.168 12.956 10.1135 12.9839 10.0046 13.0118L7.36397 13.7931C7.2823 12.6212 7.55453 11.4215 8.15344 10.3891ZM7.69065 15.1044L10.3857 14.6301C10.6035 14.6301 10.8213 14.7696 10.8485 14.9928C10.8758 15.0765 10.8758 15.1881 10.8213 15.2718L9.78683 17.8387C8.83402 17.197 8.07177 16.2205 7.69065 15.1044ZM13.8703 18.5641C13.4892 18.6478 13.1081 18.7037 12.6997 18.7037C12.128 18.7037 11.5291 18.592 10.9847 18.4246L12.3186 15.9414C12.4547 15.774 12.6725 15.7182 12.8631 15.8298C12.9447 15.8856 12.9992 15.9414 13.0808 16.0251L14.3876 18.4525C14.2242 18.4804 14.0609 18.5083 13.8703 18.5641ZM17.1915 16.1367C16.7832 16.8064 16.2115 17.3923 15.5582 17.8108L14.4965 15.1881C14.442 14.9649 14.5509 14.7417 14.7415 14.658C14.8231 14.6301 14.9048 14.6022 14.9865 14.6022L17.7088 15.0765C17.5727 15.4671 17.4093 15.8298 17.1915 16.1367Z" fill="white" fill-opacity="0.7"/>
<path d="M132.754 18.1458C133.135 18.1737 133.544 18.1179 133.898 17.9784C134.116 17.8668 134.252 17.6157 134.224 17.3646C134.197 17.0856 134.034 16.8345 133.789 16.7508C133.38 16.4996 132.918 16.2764 132.455 16.1369C131.992 15.9695 131.584 15.7742 131.203 15.5789C130.849 15.4115 130.549 15.1883 130.25 14.9093C129.978 14.6303 129.787 14.3234 129.651 13.9606C129.488 13.5421 129.433 13.0957 129.433 12.6493C129.406 11.7286 129.814 10.8357 130.522 10.2777C131.257 9.69177 132.237 9.41276 133.489 9.41276C134.088 9.41276 134.714 9.46856 135.313 9.60807C135.776 9.69177 136.239 9.80338 136.702 9.97079L136.184 12.3424C135.803 12.2029 135.449 12.1192 135.068 12.0076C134.633 11.896 134.17 11.8681 133.734 11.8681C132.809 11.8681 132.346 12.1192 132.346 12.6493C132.346 12.7609 132.373 12.8725 132.4 12.9841C132.455 13.0957 132.537 13.1794 132.645 13.2631C132.754 13.3468 132.918 13.4305 133.108 13.5421C133.299 13.6537 133.571 13.7653 133.898 13.8769C134.442 14.0723 134.987 14.3234 135.477 14.6024C135.858 14.7977 136.184 15.0488 136.457 15.3836C136.702 15.6347 136.865 15.9416 136.974 16.3043C137.083 16.695 137.137 17.0856 137.137 17.4762C137.192 18.4248 136.756 19.3456 135.967 19.8757C135.204 20.4058 134.116 20.6848 132.7 20.6848C131.91 20.7127 131.148 20.629 130.386 20.4337C129.95 20.3221 129.542 20.1826 129.134 20.0431L129.624 17.5878C130.114 17.7831 130.631 17.9505 131.148 18.0621C131.693 18.09 132.21 18.1458 132.754 18.1458ZM117.754 15.0767C117.727 14.2397 117.89 13.4026 118.163 12.6214C118.408 11.9518 118.789 11.3658 119.279 10.8357C119.742 10.3614 120.259 9.99869 120.858 9.77548C121.457 9.52437 122.083 9.41276 122.709 9.41276C124.179 9.41276 125.35 9.88708 126.194 10.8078C127.037 11.7286 127.473 13.0957 127.473 14.8814C127.473 15.0488 127.473 15.2441 127.446 15.4673C127.446 15.6905 127.419 15.8579 127.419 16.0253H120.776C120.831 16.6113 121.13 17.1693 121.62 17.5041C122.219 17.8947 122.927 18.09 123.635 18.0621C124.152 18.0621 124.696 18.0063 125.214 17.9226C125.649 17.8389 126.085 17.6994 126.493 17.5041L126.901 19.9594C126.711 20.071 126.493 20.1268 126.275 20.2105C125.976 20.2942 125.676 20.3779 125.377 20.4058C125.05 20.4616 124.723 20.5174 124.342 20.5732C123.988 20.6011 123.607 20.629 123.226 20.629C122.382 20.6569 121.566 20.5174 120.776 20.2105C120.123 19.9594 119.551 19.5688 119.061 19.0666C118.598 18.5643 118.272 17.9505 118.054 17.3088C117.863 16.5555 117.754 15.8021 117.754 15.0767ZM124.642 13.9327C124.642 13.6816 124.587 13.4305 124.506 13.1794C124.451 12.9283 124.315 12.733 124.179 12.5377C124.016 12.3424 123.825 12.175 123.607 12.0634C123.335 11.9239 123.063 11.8681 122.763 11.8681C122.464 11.8681 122.192 11.9239 121.92 12.0634C121.702 12.175 121.484 12.3145 121.321 12.5098C121.157 12.7051 121.021 12.9283 120.939 13.1794C120.858 13.4305 120.803 13.6816 120.776 13.9327H124.642ZM109.778 7.01327L112.718 6.53895V9.66387H116.257V12.175H112.718V15.9137C112.691 16.4438 112.8 16.974 113.045 17.4204C113.263 17.7831 113.698 17.9784 114.379 17.9784C114.705 17.9784 115.032 17.9505 115.331 17.8947C115.658 17.8389 115.958 17.7552 116.257 17.6436L116.665 19.9873C116.284 20.1547 115.876 20.2663 115.468 20.3779C114.95 20.4895 114.406 20.5453 113.861 20.5453C113.181 20.5732 112.5 20.4616 111.874 20.2105C111.384 20.0152 110.949 19.6804 110.622 19.2898C110.295 18.8712 110.077 18.369 109.941 17.8389C109.805 17.2251 109.751 16.5834 109.778 15.9695V7.01327ZM97.8814 15.0767C97.8542 14.2397 98.0175 13.4026 98.2897 12.6214C98.5348 11.9518 98.9159 11.3658 99.4059 10.8357C99.8687 10.3614 100.386 9.99869 100.985 9.77548C101.584 9.52437 102.21 9.41276 102.836 9.41276C104.306 9.41276 105.477 9.88708 106.321 10.8078C107.165 11.7286 107.6 13.0957 107.6 14.8814C107.6 15.0488 107.6 15.2441 107.573 15.4673C107.546 15.6905 107.546 15.8579 107.546 16.0253H100.876C100.93 16.6113 101.23 17.1693 101.72 17.5041C102.319 17.8947 103.027 18.09 103.734 18.0621C104.252 18.0621 104.796 18.0063 105.313 17.9226C105.749 17.8389 106.184 17.6994 106.62 17.5041L107.028 19.9594C106.838 20.071 106.62 20.1268 106.402 20.2105C106.103 20.2942 105.803 20.3779 105.504 20.4058C105.177 20.4616 104.851 20.5174 104.469 20.5732C104.116 20.6011 103.734 20.629 103.353 20.629C102.509 20.6569 101.693 20.5174 100.903 20.2105C100.25 19.9594 99.6781 19.5688 99.1881 19.0666C98.7253 18.5643 98.3986 17.9505 98.1809 17.3088C97.9631 16.5555 97.8542 15.8021 97.8814 15.0767ZM104.769 13.9327C104.769 13.6816 104.714 13.4305 104.633 13.1794C104.578 12.9283 104.442 12.733 104.306 12.5377C104.143 12.3424 103.952 12.175 103.734 12.0634C103.462 11.9239 103.19 11.8681 102.89 11.8681C102.591 11.8681 102.319 11.9239 102.047 12.0634C101.829 12.175 101.638 12.3145 101.475 12.5098C101.312 12.7051 101.175 12.9283 101.094 13.1794C101.012 13.4305 100.958 13.6816 100.93 13.9327H104.769ZM86.7199 10.0266C87.346 9.85918 87.9994 9.71968 88.6527 9.60807C89.4694 9.46856 90.3133 9.41276 91.13 9.41276C91.8651 9.38486 92.6001 9.52437 93.3079 9.77548C93.8524 9.97079 94.3424 10.3056 94.6963 10.752C95.0502 11.1984 95.2952 11.7286 95.4313 12.2866C95.5946 12.9283 95.6491 13.5979 95.6491 14.2676V20.2663H92.7362V14.6582C92.7362 13.6816 92.6001 13.012 92.3551 12.5935C92.1101 12.2029 91.6473 11.9797 90.9667 11.9797C90.7489 11.9797 90.5311 11.9797 90.2861 12.0076C90.0411 12.0076 89.8506 12.0355 89.66 12.0634V20.2663H86.7199V10.0266ZM84.6509 12.3424C84.3787 12.2866 84.0792 12.2029 83.7253 12.1471C83.3442 12.0634 82.9631 12.0355 82.582 12.0355C82.3642 12.0355 82.1464 12.0634 81.9014 12.0913C81.7108 12.1192 81.5202 12.1471 81.3297 12.2029V20.3221H78.3896V10.2219C78.9885 9.99869 79.6146 9.83128 80.2408 9.69177C81.0302 9.49647 81.8469 9.41276 82.6364 9.44066C82.827 9.44066 83.0175 9.46856 83.2081 9.46856C83.4259 9.46856 83.6437 9.49647 83.8887 9.55227C84.1065 9.58017 84.3242 9.60807 84.5692 9.66387C84.7598 9.69177 84.9504 9.74758 85.1409 9.83128L84.6509 12.3424ZM66.3841 15.0767C66.3569 14.2397 66.5203 13.4026 66.7925 12.6214C67.0375 11.9518 67.4186 11.3658 67.9086 10.8357C68.3714 10.3614 68.8887 9.99869 69.4876 9.77548C70.0865 9.52437 70.7126 9.41276 71.3388 9.41276C72.8088 9.41276 73.9794 9.88708 74.8233 10.8078C75.6673 11.7286 76.1028 13.0957 76.1028 14.8535C76.1028 15.0209 76.1028 15.2162 76.0756 15.4394C76.0484 15.6626 76.0484 15.83 76.0484 15.9974H69.3787C69.4331 16.5834 69.7326 17.1414 70.2226 17.4762C70.8215 17.8668 71.5293 18.0621 72.2371 18.0342C72.7544 18.0342 73.2988 17.9784 73.8161 17.8947C74.2516 17.811 74.6872 17.6715 75.0956 17.5041L75.5039 19.9594C75.3134 20.071 75.0956 20.1268 74.8778 20.2105C74.5783 20.2942 74.2789 20.3779 73.9794 20.4058C73.6527 20.4616 73.3261 20.5174 72.9449 20.5732C72.591 20.6011 72.2099 20.629 71.8288 20.629C70.9849 20.6569 70.1682 20.5174 69.3787 20.2105C68.7253 19.9594 68.1536 19.5688 67.6636 19.0666C67.2008 18.5643 66.8742 17.9505 66.6564 17.3088C66.493 16.5555 66.3841 15.83 66.3841 15.0767ZM73.2988 13.9327C73.2988 13.6816 73.2444 13.4305 73.1627 13.1794C73.1083 12.9283 72.9722 12.733 72.836 12.5377C72.6727 12.3424 72.4821 12.175 72.2644 12.0634C71.9921 11.9239 71.7199 11.8681 71.4204 11.8681C71.121 11.8681 70.8487 11.9239 70.5765 12.0634C70.3587 12.175 70.1409 12.3145 69.9776 12.5098C69.8143 12.7051 69.6781 12.9283 69.5965 13.1794C69.5148 13.4305 69.4604 13.6816 69.4331 13.9327H73.2988ZM61.6201 14.9093C61.6201 12.9562 60.9123 12.0076 59.5239 12.0076C59.2244 12.0076 58.925 12.0355 58.6255 12.1192C58.3805 12.175 58.1355 12.2866 57.9177 12.4261V17.8947C58.0538 17.9226 58.2444 17.9505 58.4622 17.9784C58.68 18.0063 58.925 18.0063 59.1972 18.0063C59.905 18.0621 60.5856 17.7552 61.0212 17.1693C61.4295 16.4996 61.6473 15.7184 61.6201 14.9093ZM64.6146 15.0209C64.6146 15.8021 64.5057 16.5834 64.2335 17.3367C64.0157 18.0063 63.6618 18.5922 63.199 19.0945C62.709 19.5967 62.1373 19.9873 61.5112 20.2384C60.7762 20.5174 60.0139 20.629 59.2244 20.629C58.8705 20.629 58.4894 20.6011 58.1083 20.5732C57.7272 20.5453 57.346 20.4895 56.9649 20.4616C56.611 20.4058 56.2571 20.35 55.9032 20.2663C55.5493 20.2105 55.2498 20.1268 55.0048 20.0152V5.08809L57.9449 4.61377V9.91498C58.2716 9.77548 58.6255 9.66387 58.9794 9.58017C59.3605 9.49647 59.7417 9.46856 60.1228 9.46856C60.8034 9.46856 61.4567 9.58017 62.0829 9.88708C62.6273 10.1382 63.1174 10.5288 63.4985 11.0031C63.9068 11.5332 64.2063 12.1192 64.3696 12.7609C64.533 13.4584 64.6146 14.2397 64.6146 15.0209ZM52.2008 19.9315C51.5747 20.0989 50.9214 20.2384 50.268 20.3221C49.4513 20.4616 48.6074 20.5174 47.7907 20.5174C47.0284 20.5453 46.2934 20.4058 45.5856 20.1547C45.0411 19.9315 44.5783 19.5967 44.1972 19.1503C43.8433 18.6759 43.5983 18.1458 43.4622 17.5599C43.2988 16.9182 43.2444 16.2206 43.2444 15.551V9.66387H46.1845V15.2162C46.1845 16.1927 46.3206 16.8903 46.5656 17.3088C46.8106 17.7273 47.2734 17.9505 47.954 17.9505C48.1718 17.9505 48.3896 17.9505 48.6346 17.9226C48.8796 17.8947 49.0702 17.8947 49.2607 17.8389V9.66387H52.2008V19.9315ZM35.0502 13.5142C35.3497 13.1794 35.6219 12.8446 35.9486 12.5098C36.248 12.1471 36.5475 11.8123 36.8469 11.4774C37.1464 11.1147 37.4186 10.8078 37.6636 10.5009C37.9087 10.194 38.1537 9.91498 38.3442 9.69177H41.8288C41.121 10.5009 40.4404 11.31 39.7871 12.0634C39.1065 12.8167 38.3987 13.5979 37.6092 14.3792C38.0448 14.7977 38.4531 15.2162 38.8342 15.6905C39.2426 16.1927 39.6509 16.695 40.0593 17.253C40.4404 17.7831 40.8215 18.3411 41.1482 18.8712C41.4749 19.4014 41.7471 19.9036 41.9649 20.35H38.5892C38.3714 19.9873 38.1264 19.6246 37.8542 19.2061C37.582 18.7875 37.2825 18.369 37.0103 17.9226C36.7108 17.5041 36.3842 17.0856 36.0302 16.695C35.7308 16.3322 35.4041 15.9974 35.0502 15.7184V20.3779H32.1101V5.08809L35.0502 4.61377V13.5142Z" fill="white" fill-opacity="0.7"/>
</g>
<defs>
<clipPath id="clip0_75_24096">
<rect width="138" height="25" fill="white"/>
</clipPath>
</defs>
</svg>
