<svg width="141" height="31" viewBox="0 0 141 31" fill="none" xmlns="http://www.w3.org/2000/svg">
<g clip-path="url(#clip0_75_24082)">
<path fill-rule="evenodd" clip-rule="evenodd" d="M90.9558 6.53418H92.8766V23.7417H90.9558V6.53418ZM75.0518 8.3455H77.0062V10.7342C77.0062 12.9757 77.0174 13.1115 77.1126 13.0832C77.1742 13.0606 77.4654 12.9813 77.7622 12.8964C78.115 12.8002 78.5406 12.738 78.9942 12.7097C79.5094 12.687 79.8118 12.704 80.1926 12.7776C80.5174 12.8398 80.9038 12.9757 81.2454 13.1455C81.5422 13.2927 81.9342 13.5417 82.119 13.7059C82.2982 13.8644 82.5838 14.1983 82.7462 14.4474C82.9142 14.6964 83.1214 15.0927 83.211 15.3361C83.3062 15.5738 83.4238 16.021 83.4798 16.3323C83.547 16.7398 83.5638 17.0908 83.5414 17.6455C83.5246 18.0587 83.463 18.5738 83.407 18.7889C83.3566 19.004 83.2222 19.3719 83.1158 19.604C83.0094 19.8361 82.7966 20.1927 82.6454 20.3908C82.4998 20.5889 82.203 20.8832 81.9902 21.0474C81.783 21.2115 81.4022 21.438 81.1558 21.5512C80.9094 21.67 80.5006 21.8172 80.2542 21.8851C79.8678 21.9927 79.6214 22.0097 78.5126 22.0153C77.4654 22.021 77.1238 21.9983 76.7094 21.9078C76.4294 21.8455 75.9646 21.7266 75.6846 21.6474C75.4046 21.5681 75.1582 21.4776 75.1358 21.4549C75.1134 21.4323 75.0854 18.4776 75.0742 14.8832L75.0518 8.3455ZM77.4878 14.787L77.0398 14.9455V19.9663C77.9806 20.2153 78.1822 20.2323 78.8094 20.2153C79.4254 20.1983 79.627 20.17 79.9238 20.0568C80.1198 19.9776 80.3942 19.8304 80.523 19.7229C80.6574 19.621 80.8478 19.4285 80.9486 19.2983C81.0494 19.1681 81.195 18.8964 81.2678 18.6983C81.3462 18.5002 81.4358 18.121 81.4694 17.8549C81.5198 17.4927 81.5198 17.2436 81.4638 16.8587C81.419 16.5134 81.3238 16.2021 81.1838 15.9078C81.0718 15.6644 80.8758 15.3644 80.7526 15.2398C80.6294 15.1153 80.4054 14.9398 80.2542 14.8549C80.1086 14.7644 79.823 14.6512 79.6214 14.6002C79.4254 14.5436 79.0726 14.504 78.843 14.5097C78.6134 14.5153 78.311 14.5436 78.1822 14.5719C78.0478 14.6002 77.7398 14.6964 77.4878 14.787ZM43.227 8.95116H45.1478V14.4417H50.3166V16.253H45.1478V22.1681H43.227V16.253H38.0582V14.4417H43.227V8.95116Z" fill="white" fill-opacity="0.7"/>
<path fill-rule="evenodd" clip-rule="evenodd" d="M63.846 12.6304H65.7668V16.2077C65.7668 18.1775 65.7444 20.1757 65.6772 21.5115L65.1956 21.6587C64.9324 21.7379 64.378 21.8624 63.9636 21.936C63.3308 22.0436 63.0452 22.0549 62.1324 22.0323C61.2868 22.0096 60.9452 21.9757 60.57 21.8794C60.3012 21.8058 59.842 21.6304 59.5452 21.4832C59.2316 21.3247 58.8564 21.0757 58.6436 20.8889C58.4476 20.7077 58.1676 20.3851 58.0332 20.1757C57.8932 19.9606 57.7084 19.6209 57.63 19.4228C57.5516 19.2247 57.434 18.8285 57.378 18.5511C57.2996 18.1436 57.2828 17.8436 57.3052 17.1304C57.3332 16.4455 57.3724 16.1115 57.4676 15.7719C57.5404 15.5228 57.7084 15.1153 57.8372 14.8662C57.966 14.6172 58.2236 14.2379 58.414 14.0285C58.61 13.8134 58.9292 13.5304 59.1252 13.3945C59.3212 13.2643 59.646 13.0889 59.8476 13.0096C60.0436 12.9304 60.402 12.8228 60.6428 12.7775C60.8836 12.7323 61.3316 12.6926 61.634 12.6926C61.942 12.6926 62.3788 12.7379 62.614 12.7832C62.8436 12.8341 63.2076 12.9587 63.426 13.0606C63.6388 13.1568 63.8236 13.2417 63.8292 13.236C63.8348 13.236 63.846 13.1002 63.846 12.936V12.6304ZM60.5756 14.8549C60.4132 14.9455 60.178 15.1323 60.0492 15.2738C59.9204 15.4153 59.7468 15.6643 59.6684 15.8341C59.5844 15.9983 59.478 16.304 59.4276 16.5134C59.3772 16.7172 59.338 17.0907 59.338 17.3398C59.338 17.5889 59.366 17.9568 59.3996 18.1549C59.4388 18.353 59.5396 18.6813 59.6348 18.8794C59.7468 19.1172 59.926 19.3606 60.1556 19.5757C60.3796 19.7851 60.6428 19.9606 60.8724 20.0511C61.1524 20.1643 61.3764 20.1983 61.9532 20.2266C62.362 20.2436 62.8772 20.2209 63.1516 20.1813C63.4148 20.1417 63.6612 20.0907 63.7004 20.0681C63.7452 20.0398 63.7788 19.253 63.8068 17.5662L63.846 15.1096C63.3532 14.8379 63.0788 14.7134 62.9108 14.6568C62.7484 14.5945 62.3676 14.5379 62.0708 14.5266C61.7012 14.5096 61.4268 14.5323 61.1972 14.6002C61.018 14.6511 60.738 14.7643 60.5756 14.8549ZM123.296 12.6304H125.216V15.6643C125.216 17.3341 125.2 19.3323 125.127 21.5115L124.645 21.6587C124.382 21.7379 123.85 21.8624 123.458 21.9247C122.96 22.0153 122.484 22.0492 121.84 22.0492C121.33 22.0492 120.742 22.0209 120.529 21.987C120.316 21.9474 119.896 21.8398 119.6 21.7436C119.28 21.6417 118.866 21.4436 118.608 21.2738C118.356 21.1096 118.009 20.8209 117.83 20.6228C117.656 20.4304 117.41 20.0907 117.292 19.8757C117.175 19.6606 117.012 19.2643 116.934 19.004C116.816 18.6247 116.783 18.3304 116.755 17.6455C116.738 17.0964 116.755 16.6096 116.8 16.3436C116.839 16.1115 116.94 15.7209 117.024 15.4719C117.102 15.2228 117.287 14.8266 117.432 14.5945C117.572 14.3624 117.875 13.9945 118.104 13.7794C118.362 13.5417 118.698 13.2983 118.972 13.1624C119.219 13.0436 119.577 12.8964 119.779 12.8398C119.975 12.7889 120.462 12.7266 120.86 12.7096C121.392 12.687 121.7 12.7096 122.03 12.7775C122.282 12.8341 122.657 12.9587 122.876 13.0606C123.088 13.1568 123.273 13.2417 123.279 13.236C123.29 13.236 123.296 13.1002 123.296 12.936V12.6304ZM120.025 14.8549C119.863 14.9455 119.628 15.1323 119.499 15.2738C119.37 15.4153 119.202 15.6643 119.118 15.8341C119.034 15.9983 118.928 16.304 118.877 16.5134C118.827 16.7172 118.788 17.1191 118.788 17.4021C118.788 17.6851 118.827 18.087 118.877 18.2907C118.928 18.5002 119.023 18.7832 119.096 18.9247C119.168 19.0662 119.353 19.3153 119.504 19.4738C119.656 19.6379 119.902 19.8304 120.048 19.904C120.199 19.9832 120.468 20.0907 120.652 20.1417C120.86 20.204 121.201 20.2379 121.599 20.2379C121.935 20.2379 122.411 20.2096 122.646 20.1757C122.887 20.1417 123.116 20.0907 123.15 20.0681C123.2 20.0398 123.228 19.3096 123.245 17.5606L123.262 15.087C122.657 14.7757 122.321 14.6455 122.12 14.5945C121.924 14.5436 121.588 14.504 121.369 14.5096C121.156 14.5096 120.832 14.5549 120.652 14.6002C120.468 14.6511 120.188 14.7643 120.025 14.8549ZM105.264 12.7209C105.611 12.7379 106.053 12.7945 106.255 12.8455C106.451 12.8964 106.776 13.0153 106.972 13.1115C107.173 13.2021 107.498 13.4002 107.694 13.553C107.896 13.7058 108.176 13.9889 108.321 14.1813C108.467 14.3738 108.674 14.7247 108.786 14.9568C108.898 15.1889 109.044 15.5964 109.111 15.8624C109.178 16.1285 109.256 16.6662 109.318 17.7643H102.676L102.716 17.9907C102.732 18.1153 102.805 18.3813 102.861 18.5794C102.923 18.7775 103.08 19.0889 103.203 19.2643C103.326 19.4398 103.511 19.6492 103.606 19.7228C103.707 19.7964 103.908 19.9209 104.06 20.0002C104.205 20.0738 104.463 20.17 104.631 20.2153C104.799 20.2606 105.247 20.3002 105.65 20.3002C106.048 20.3002 106.619 20.2606 106.916 20.2096C107.212 20.1587 107.632 20.0568 107.845 19.9889C108.058 19.9209 108.338 19.8134 108.461 19.7511C108.584 19.6889 108.713 19.6323 108.747 19.6323C108.786 19.6323 108.808 19.9775 108.808 21.4436L108.478 21.5964C108.293 21.6813 107.912 21.8172 107.621 21.9021C107.33 21.9813 106.798 22.0832 106.434 22.1228C105.936 22.1738 105.6 22.1738 105.079 22.1228C104.698 22.0832 104.144 21.9813 103.847 21.8964C103.55 21.8115 103.119 21.6417 102.895 21.5172C102.665 21.3926 102.279 21.104 102.032 20.8719C101.78 20.6398 101.467 20.2606 101.321 20.0285C101.176 19.7964 100.996 19.4002 100.912 19.1511C100.828 18.9021 100.728 18.4662 100.688 18.1889C100.644 17.8775 100.632 17.4417 100.655 17.1021C100.672 16.7851 100.744 16.3096 100.812 16.0436C100.879 15.7775 101.041 15.3417 101.17 15.0757C101.299 14.8096 101.54 14.4304 101.696 14.2323C101.859 14.0341 102.178 13.7285 102.408 13.553C102.637 13.3775 103.024 13.1568 103.264 13.0549C103.5 12.953 103.908 12.8341 104.166 12.7832C104.474 12.7266 104.844 12.704 105.264 12.7209ZM103.948 14.8832C103.768 14.9907 103.516 15.2002 103.382 15.3474C103.253 15.5002 103.08 15.7492 103.001 15.9077C102.923 16.0662 102.856 16.2191 102.856 16.253C102.856 16.2926 103.612 16.3153 105.006 16.3153H107.156C107.095 15.8681 107.039 15.6474 106.994 15.5285C106.944 15.4153 106.798 15.2002 106.669 15.0587C106.512 14.8832 106.322 14.7587 106.104 14.6738C105.919 14.6115 105.583 14.5436 105.353 14.5266C105.084 14.5153 104.81 14.5379 104.597 14.5945C104.418 14.6455 104.127 14.7757 103.948 14.8832ZM132.664 12.8738H134.658L134.652 15.9077C134.652 18.7662 134.658 18.9643 134.77 19.3323C134.843 19.5587 134.977 19.8247 135.089 19.9606C135.196 20.0851 135.42 20.2549 135.588 20.3341C135.75 20.4134 136.064 20.504 136.276 20.5323C136.506 20.5662 136.831 20.5662 137.06 20.5323C137.273 20.504 137.587 20.4134 137.749 20.3341C137.917 20.2549 138.141 20.0851 138.248 19.9606C138.36 19.8247 138.5 19.5587 138.567 19.3323C138.679 18.9643 138.684 18.7662 138.684 12.8738H140.65L140.639 16.1511C140.633 19.253 140.628 19.4398 140.516 19.7851C140.448 19.9832 140.308 20.2832 140.202 20.4474C140.096 20.6172 139.911 20.8492 139.782 20.9738C139.659 21.0983 139.39 21.2964 139.194 21.4153C138.998 21.5341 138.617 21.6983 138.354 21.7832C138.052 21.8794 137.648 21.953 137.273 21.9813C136.937 21.9983 136.4 21.9983 136.069 21.9757C135.694 21.953 135.285 21.8794 134.988 21.7832C134.72 21.6983 134.344 21.5341 134.143 21.4153C133.947 21.2964 133.684 21.0983 133.555 20.9738C133.432 20.8492 133.241 20.6172 133.135 20.4474C133.034 20.2832 132.894 19.9832 132.827 19.7851C132.709 19.4455 132.704 19.236 132.687 16.1511L132.664 12.8738Z" fill="white" fill-opacity="0.7"/>
<path d="M15.3331 1.88679V3.27925H12.8691V4.18491H15.3331V6.95849H16.2963V4.18491H18.8219V3.27925H16.2963V0.5H15.3331V1.88679Z" fill="white" fill-opacity="0.7"/>
<path d="M7.28014 5.4187V7.43946H3.55054V8.70738H7.28014V12.8112H8.66334V8.70738H12.4489V7.43946H8.66334V3.39795H7.28014V5.4187Z" fill="white" fill-opacity="0.7"/>
<path d="M22.9101 5.4187V7.43946H19.1805V8.76965H22.9101V12.8112H24.3493V8.76965H28.0789V7.43946H24.3493V3.39795H22.9101V5.4187Z" fill="white" fill-opacity="0.7"/>
<path d="M14.9747 12.3017V14.5659H10.8251V16.2527H14.9747V20.781H16.6547V16.2527H20.8043V14.5659H16.6547V10.0376H14.9747V12.3017Z" fill="white" fill-opacity="0.7"/>
<path d="M27.1772 13.4454V14.8661H24.6516V16.0152H27.1772V18.851H28.4372V16.0152H30.9628V14.8661H28.4372V12.0303H27.1772V13.4454Z" fill="white" fill-opacity="0.7"/>
<path d="M3.13075 13.5699V14.9284H0.666748V15.8907H3.13075V18.6077H4.09395V15.8907L6.61955 15.8001V14.9284H4.09395V12.2114H3.13075V13.5699Z" fill="white" fill-opacity="0.7"/>
<path d="M7.28014 19.9661V21.9868H3.55054V23.317H7.28014V27.3585H8.71934V23.317H12.4489V21.9868H8.71934V17.9453H7.28014V19.9661Z" fill="white" fill-opacity="0.7"/>
<path d="M22.9101 19.9661V21.9868H19.1805V23.2547H22.9101V27.3585H24.3493V23.2547H28.0789V21.9868H24.3493V17.9453H22.9101V19.9661Z" fill="white" fill-opacity="0.7"/>
<path d="M15.2154 25.1V26.515H12.6898V27.6641H15.2154V30.5H16.4754V27.6641H19.001V26.515H16.4754V23.6792H15.2154V25.1Z" fill="white" fill-opacity="0.7"/>
</g>
<defs>
<clipPath id="clip0_75_24082">
<rect width="140" height="30" fill="white" transform="translate(0.666748 0.5)"/>
</clipPath>
</defs>
</svg>
