<svg width="104" height="35" viewBox="0 0 104 35" fill="none" xmlns="http://www.w3.org/2000/svg">
<g clip-path="url(#clip0_75_23984)">
<path d="M24.8817 10.4474L22.375 12.9313C26.5528 17.0711 26.5528 23.8131 22.375 27.9529C18.1972 32.0928 11.3935 32.0928 7.21569 27.9529C3.03793 23.8131 3.03793 17.0711 7.21569 12.9313L13.9001 6.30759L14.7357 5.36134V0.393555L4.58967 10.4474C3.25651 11.7551 2.19821 13.3118 1.47595 15.0273C0.753687 16.7429 0.381805 18.5833 0.381805 20.4421C0.381805 22.301 0.753687 24.1414 1.47595 25.8569C2.19821 27.5725 3.25651 29.1291 4.58967 30.4368C5.90938 31.7579 7.48029 32.8066 9.21155 33.5223C10.9428 34.238 12.8001 34.6065 14.676 34.6065C16.5519 34.6065 18.4091 34.238 20.1404 33.5223C21.8717 32.8066 23.4426 31.7579 24.7623 30.4368C30.4918 24.8777 30.4918 15.8883 24.8817 10.4474Z" fill="white" fill-opacity="0.7"/>
<path d="M19.8683 9.73762C20.9231 9.73762 21.7782 8.89032 21.7782 7.84513C21.7782 6.79993 20.9231 5.95264 19.8683 5.95264C18.8136 5.95264 17.9585 6.79993 17.9585 7.84513C17.9585 8.89032 18.8136 9.73762 19.8683 9.73762Z" fill="white" fill-opacity="0.7"/>
<path d="M40.2344 19.4715H38.2721V24.4727H36.8073V10.2763H40.3884C44.1874 10.2763 45.978 12.104 45.978 14.7485C45.978 17.8674 43.7527 19.4268 40.2256 19.4803L40.2344 19.4715ZM40.3325 11.6208H38.225V18.1279L40.2874 18.0745C43.0012 18.021 44.467 16.9447 44.467 14.7397C44.467 12.7506 43.0561 11.6208 40.3423 11.6208H40.3325ZM52.6084 24.4182L51.7401 26.6767C50.7629 29.2045 49.7779 29.957 48.3209 29.957C47.5066 29.957 46.91 29.7431 46.2586 29.4728L46.6922 28.1827C47.1808 28.452 47.7224 28.6124 48.3209 28.6124C49.1352 28.6124 49.7318 28.1827 50.4912 26.1818L51.1976 24.354L47.1278 14.0835H48.6486L51.9589 22.6877L55.2163 14.0835H56.6811L52.6084 24.4182ZM61.5613 11.6743V24.5271H60.0964V11.6743H55.0495V10.2763H66.6072V11.6208H61.5603L61.5613 11.6743ZM70.7319 24.7945C67.8013 24.7945 65.63 22.6439 65.63 19.3092C65.63 15.9745 67.8552 13.7704 70.83 13.7704C73.7607 13.7704 75.877 15.921 75.877 19.2557C75.877 22.5904 73.6518 24.7945 70.7211 24.7945H70.7319ZM70.7859 15.0722C68.5607 15.0722 67.0968 16.8465 67.0968 19.2664C67.0968 21.7942 68.6176 23.515 70.8408 23.515C73.0641 23.515 74.5299 21.7407 74.5299 19.3208C74.5299 16.7931 73.0091 15.0722 70.7859 15.0722ZM79.5238 24.5261H78.113V14.0942L79.5238 13.8249V16.0299C80.2303 14.6853 81.2604 13.8249 82.6174 13.8249C83.2635 13.8302 83.8978 13.9967 84.4619 14.309L84.0832 15.6527C83.6495 15.3833 83.053 15.2229 82.4545 15.2229C81.3694 15.2229 80.3382 16.0299 79.4699 17.9121V24.5261H79.5238ZM90.0514 24.7945C86.9039 24.7945 84.8955 22.536 84.8955 19.3092C84.8955 16.0289 87.0658 13.7704 90.0514 13.7704C91.3533 13.7704 92.4395 14.0932 93.3617 14.6843L92.982 15.9745C92.1677 15.4368 91.1915 15.114 90.0514 15.114C87.7722 15.114 86.3623 16.7814 86.3623 19.2557C86.3623 21.7835 87.8831 23.4499 90.1063 23.4499C91.1459 23.4451 92.1626 23.1466 93.037 22.5895L93.3087 23.8796C92.3865 24.4707 91.2464 24.7945 90.0514 24.7945ZM102.153 24.5261V17.8042C102.153 15.9764 101.393 15.1792 99.9275 15.1792C98.7334 15.1792 97.5394 15.7703 96.6701 16.6861V24.5903H95.2592V9.20974L96.6701 8.94043V15.501C97.7552 14.4257 99.1661 13.8336 100.306 13.8336C102.369 13.8336 103.617 15.1238 103.617 17.3822V24.5339L102.153 24.5261Z" fill="white" fill-opacity="0.7"/>
</g>
<defs>
<clipPath id="clip0_75_23984">
<rect width="104" height="35" fill="white"/>
</clipPath>
</defs>
</svg>
