<svg width="45" height="29" viewBox="0 0 45 29" fill="none" xmlns="http://www.w3.org/2000/svg">
<g clip-path="url(#clip0_75_24044)">
<path d="M12.7359 11.3962C12.7359 11.9455 12.7909 12.3917 12.8954 12.7207C13.0109 13.047 13.1594 13.4039 13.3629 13.7915C13.4279 13.8939 13.4631 14.0127 13.4647 14.1345C13.4647 14.2823 13.3767 14.4329 13.1897 14.5806L12.2657 15.2053C12.1548 15.2865 12.0228 15.333 11.8862 15.3391C11.7377 15.3391 11.5919 15.2666 11.4462 15.1328C11.2485 14.9171 11.0717 14.6827 10.9182 14.4329C10.7546 14.1468 10.6032 13.8537 10.4644 13.5545C9.32318 14.9236 7.89043 15.6096 6.16343 15.6096C4.93418 15.6096 3.95243 15.2499 3.23743 14.536C2.51968 13.8222 2.15393 12.8685 2.15393 11.6779C2.15393 10.4119 2.59393 9.38574 3.48493 8.61054C4.37868 7.83535 5.56393 7.45054 7.07093 7.45054C7.56593 7.45054 8.08018 7.49516 8.62193 7.56766C9.16368 7.64295 9.72193 7.76285 10.3049 7.8967V6.8092C10.3049 5.67708 10.0712 4.88795 9.61743 4.42785C9.14993 3.96497 8.35793 3.74189 7.23043 3.74189C6.71893 3.74189 6.19368 3.80324 5.65193 3.93708C5.11368 4.06698 4.58526 4.23564 4.07068 4.44179C3.90455 4.51807 3.73368 4.58327 3.55918 4.63699C3.48356 4.66232 3.40496 4.67732 3.32543 4.6816C3.11918 4.6816 3.01743 4.53102 3.01743 4.21872V3.48814C3.01743 3.25112 3.04493 3.06987 3.11918 2.96949C3.23 2.83267 3.37141 2.72465 3.53168 2.65439C4.04043 2.3867 4.65643 2.16362 5.37418 1.98516C6.08918 1.78997 6.85093 1.70353 7.65668 1.70353C9.39743 1.70353 10.6707 2.10506 11.4902 2.90814C12.2959 3.71122 12.7057 4.93256 12.7057 6.57218V11.3962H12.7332H12.7359ZM6.79318 13.6577C7.27443 13.6577 7.77218 13.5684 8.30018 13.39C8.82543 13.2115 9.29568 12.8825 9.68893 12.4363C9.92474 12.1624 10.0951 11.837 10.1867 11.4854C10.2747 11.1257 10.3352 10.6963 10.3352 10.1888V9.5642C9.89101 9.45498 9.44113 9.37119 8.98768 9.31324C8.5317 9.25343 8.07246 9.22269 7.61268 9.22122C6.63093 9.22122 5.91318 9.41641 5.43193 9.81795C4.94793 10.2195 4.71693 10.7855 4.71693 11.5301C4.71693 12.2272 4.89018 12.7486 5.25593 13.1083C5.60793 13.4792 6.11943 13.6577 6.79318 13.6577ZM18.5439 15.2666C18.2799 15.2666 18.1039 15.222 17.9884 15.116C17.8702 15.0268 17.7684 14.8204 17.6804 14.536L14.2429 3.02804C14.1751 2.83517 14.1299 2.63489 14.1082 2.43131C14.1082 2.19429 14.2264 2.06045 14.4602 2.06045H15.8957C16.1707 2.06045 16.3632 2.10506 16.4649 2.20824C16.5832 2.29747 16.6712 2.5066 16.7592 2.78824L19.2177 12.6454L21.5002 2.78824C21.5717 2.49266 21.6597 2.29747 21.7752 2.20824C21.9516 2.09864 22.1572 2.04703 22.3637 2.06045H23.5324C23.8129 2.06045 23.9999 2.10506 24.1182 2.20824C24.2364 2.29747 24.3382 2.5066 24.3959 2.78824L26.7087 12.7654L29.2387 2.78824C29.2856 2.57234 29.387 2.37249 29.5329 2.20824C29.7033 2.09874 29.9036 2.04698 30.1049 2.06045H31.4662C31.6999 2.06045 31.8319 2.18035 31.8319 2.43131C31.8319 2.5066 31.8154 2.58189 31.8044 2.67112C31.7808 2.79771 31.7458 2.92184 31.6999 3.04199L28.1717 14.55C28.0837 14.8483 27.9819 15.0435 27.8664 15.1328C27.7004 15.2405 27.505 15.2922 27.3082 15.2805H26.0514C25.7737 15.2805 25.5839 15.2359 25.4657 15.1328C25.3474 15.0268 25.2457 14.8344 25.1879 14.536L22.9192 4.93535L20.6642 14.5249C20.5927 14.8232 20.5047 15.0156 20.3892 15.1188C20.2709 15.2248 20.0647 15.2694 19.8034 15.2694H18.5439V15.2666ZM37.3484 15.6681C36.589 15.6692 35.8321 15.5793 35.0934 15.4004C34.3619 15.222 33.7927 15.0268 33.4104 14.8037C33.1767 14.6699 33.0172 14.5221 32.9567 14.3854C32.9008 14.2542 32.8718 14.1129 32.8714 13.97V13.2115C32.8714 12.8992 32.9869 12.7486 33.2069 12.7486C33.2967 12.7488 33.3859 12.7639 33.4709 12.7932C33.5589 12.8239 33.6909 12.8825 33.8367 12.9438C34.3317 13.1669 34.8762 13.3454 35.4454 13.4653C36.0312 13.5824 36.6004 13.6437 37.1862 13.6437C38.1102 13.6437 38.8252 13.4792 39.3229 13.1529C39.562 13.0062 39.7585 12.7977 39.8923 12.5489C40.0261 12.3001 40.0925 12.0197 40.0847 11.7364C40.0896 11.5451 40.0572 11.3547 39.9892 11.1762C39.9212 10.9977 39.8191 10.8346 39.6887 10.6963C39.4274 10.4119 38.9297 10.1581 38.2119 9.92112L36.0889 9.25189C35.0219 8.90891 34.2299 8.40141 33.7487 7.73218C33.2776 7.11381 33.0205 6.35529 33.0172 5.57391C33.0172 4.94929 33.1492 4.39718 33.4104 3.92035C33.6744 3.44631 34.0264 3.02804 34.4664 2.69901C34.9064 2.35881 35.4014 2.10506 35.9872 1.9266C36.5729 1.74814 37.1862 1.67285 37.8297 1.67285C38.1542 1.67285 38.4897 1.68679 38.8114 1.73141C39.1469 1.77603 39.4549 1.83737 39.7629 1.89872C40.0544 1.97122 40.3349 2.04372 40.5962 2.13574C40.8602 2.22497 41.0637 2.3142 41.2122 2.40343C41.3849 2.49135 41.5354 2.61822 41.6522 2.77429C41.7463 2.91948 41.7916 3.09162 41.7814 3.26506V3.96497C41.7814 4.27727 41.6659 4.44179 41.4459 4.44179C41.2511 4.41924 41.0625 4.35864 40.8904 4.26333C40.0061 3.86577 39.0471 3.66786 38.0799 3.68333C37.2467 3.68333 36.5867 3.81718 36.1329 4.1016C35.6792 4.38045 35.4454 4.81545 35.4454 5.42612C35.4454 5.8416 35.5912 6.19853 35.8854 6.48295C36.1769 6.76458 36.7187 7.04622 37.4942 7.29997L39.5732 7.9692C40.6264 8.31218 41.3882 8.78901 41.8419 9.39968C42.2957 10.0104 42.5129 10.7103 42.5129 11.4854C42.5129 12.1268 42.3837 12.704 42.1334 13.2115C41.8743 13.7207 41.5105 14.1677 41.0664 14.5221C40.6127 14.8929 40.0709 15.1634 39.4412 15.3558C38.7812 15.565 38.0937 15.6681 37.3484 15.6681Z" fill="white" fill-opacity="0.7"/>
<path fill-rule="evenodd" clip-rule="evenodd" d="M40.1121 22.9017C35.2996 26.5184 28.3036 28.4396 22.2893 28.4396C13.8606 28.4396 6.26505 25.2691 0.528554 19.9989C0.0748043 19.5807 0.484554 19.0146 1.02355 19.3436C7.2303 23.0049 14.8836 25.2245 22.8036 25.2245C28.1413 25.2245 34.0098 24.0924 39.4108 21.7696C40.2166 21.3987 40.9041 22.305 40.1121 22.9017Z" fill="white" fill-opacity="0.7"/>
<path fill-rule="evenodd" clip-rule="evenodd" d="M42.1168 20.5788C41.5035 19.7785 38.0495 20.194 36.4848 20.3864C36.0173 20.4478 35.943 20.0295 36.3665 19.7172C39.1165 17.7513 43.6403 18.3174 44.1655 18.9727C44.6935 19.6419 44.0198 24.2429 41.443 26.4457C41.0498 26.7887 40.6703 26.6131 40.8435 26.1669C41.4293 24.689 42.7328 21.3707 42.1168 20.5816V20.5788Z" fill="white" fill-opacity="0.7"/>
</g>
<defs>
<clipPath id="clip0_75_24044">
<rect width="44" height="29" fill="white" transform="translate(0.333374)"/>
</clipPath>
</defs>
</svg>
