<svg width="20" height="20" viewBox="0 0 20 20" fill="none" xmlns="http://www.w3.org/2000/svg">
<g clip-path="url(#clip0_75_25872)">
<path d="M4.66667 14.6668C4.399 14.6668 4.14767 14.5625 3.95933 14.3735L0.293 10.7072C0.104333 10.5192 0 10.2678 0 10.0002C0 9.7325 0.104333 9.48116 0.293333 9.29283L3.95967 5.6265C4.14767 5.43783 4.399 5.3335 4.66667 5.3335C5.218 5.3335 5.66667 5.78216 5.66667 6.3335C5.66667 6.60116 5.56233 6.8525 5.37333 7.04083L2.414 10.0002L5.37367 12.9598C5.56267 13.1478 5.66667 13.3992 5.66667 13.6668C5.66667 14.2182 5.218 14.6668 4.66667 14.6668Z" fill="white"/>
<path d="M15.3334 15.0003C14.782 15.0003 14.3334 14.5517 14.3334 14.0003C14.3334 13.7327 14.4377 13.4813 14.6267 13.293L17.586 10.3337L14.6264 7.37399C14.4377 7.18533 14.3334 6.93399 14.3334 6.66699C14.3334 6.11566 14.782 5.66699 15.3334 5.66699C15.601 5.66699 15.8524 5.77133 16.0407 5.96033L19.707 9.62666C19.896 9.81533 20 10.0667 20 10.3337C20 10.6013 19.8957 10.8527 19.7067 11.041L16.0404 14.7073C15.8524 14.8963 15.601 15.0003 15.3334 15.0003Z" fill="white"/>
<path d="M7 17.6668C6.44867 17.6668 6 17.2182 6 16.6668C6 16.5342 6.026 16.4045 6.07667 16.2818L12.077 2.94783C12.2337 2.5745 12.596 2.3335 13 2.3335C13.5513 2.3335 14 2.78216 14 3.3335C14 3.46616 13.974 3.59583 13.9233 3.7185L7.923 17.0525C7.76633 17.4258 7.404 17.6668 7 17.6668Z" fill="white"/>
</g>
<defs>
<clipPath id="clip0_75_25872">
<rect width="20" height="20" fill="white"/>
</clipPath>
</defs>
</svg>
