<svg width="20" height="21" viewBox="0 0 20 21" fill="none" xmlns="http://www.w3.org/2000/svg">
<g clip-path="url(#clip0_75_25862)">
<path d="M10.0001 11.9284C10.7891 11.9284 11.4287 11.2888 11.4287 10.4999C11.4287 9.71088 10.7891 9.07129 10.0001 9.07129C9.21113 9.07129 8.57153 9.71088 8.57153 10.4999C8.57153 11.2888 9.21113 11.9284 10.0001 11.9284Z" fill="white"/>
<path d="M10 0.5C8.02219 0.5 6.08879 1.08649 4.4443 2.1853C2.79981 3.28412 1.51809 4.8459 0.761209 6.67316C0.00433283 8.50043 -0.1937 10.5111 0.192152 12.4509C0.578004 14.3907 1.53041 16.1725 2.92894 17.5711C4.32746 18.9696 6.10929 19.922 8.0491 20.3078C9.98891 20.6937 11.9996 20.4957 13.8268 19.7388C15.6541 18.9819 17.2159 17.7002 18.3147 16.0557C19.4135 14.4112 20 12.4778 20 10.5C20 7.84783 18.9464 5.30429 17.0711 3.42893C15.1957 1.55357 12.6522 0.5 10 0.5ZM14.2279 7.20968L12.085 12.2097C12.013 12.3784 11.8787 12.5128 11.7101 12.585L6.71007 14.7277C6.5789 14.7839 6.43388 14.7996 6.29372 14.7726C6.15357 14.7457 6.02471 14.6773 5.92377 14.5764C5.82283 14.4755 5.75444 14.3467 5.72743 14.2065C5.70041 14.0664 5.71601 13.9214 5.77221 13.7902L7.91507 8.79032C7.98706 8.62161 8.12136 8.48718 8.29 8.41503L13.29 6.27218C13.4212 6.21591 13.5662 6.20024 13.7064 6.22719C13.8465 6.25415 13.9754 6.32249 14.0763 6.4234C14.1773 6.5243 14.2457 6.65315 14.2727 6.7933C14.2997 6.93345 14.2841 7.07848 14.2279 7.20968Z" fill="white"/>
</g>
<defs>
<clipPath id="clip0_75_25862">
<rect width="20" height="20" fill="white" transform="translate(0 0.5)"/>
</clipPath>
</defs>
</svg>
