<svg width="194" height="40" viewBox="0 0 194 40" fill="none" xmlns="http://www.w3.org/2000/svg">
<path d="M0 25.2134V0.337402H6.5269C7.59755 0.337402 8.61514 0.42109 9.57342 0.58228C10.5317 0.74657 11.3838 1.05966 12.1236 1.51843C12.8665 1.9803 13.4471 2.63437 13.8716 3.48372C14.293 4.33306 14.5053 5.45519 14.5053 6.847C14.5053 7.85134 14.3554 8.69448 14.0558 9.37954C13.7561 10.0646 13.3347 10.6133 12.7885 11.0224C12.2422 11.4316 11.5867 11.7075 10.8251 11.8501C11.7928 11.9741 12.6074 12.2841 13.2692 12.7862C13.9278 13.2884 14.4272 13.958 14.7675 14.798C15.1077 15.6381 15.2794 16.6517 15.2794 17.8389C15.2794 19.1284 15.1108 20.2413 14.7675 21.1712C14.4272 22.1043 13.9372 22.8668 13.2973 23.4589C12.6574 24.054 11.8677 24.4942 10.9312 24.7794C9.99168 25.0677 8.9148 25.2103 7.70056 25.2103H0V25.2134ZM5.53429 10.2878H6.61742C7.46332 10.2878 8.10322 10.1607 8.53398 9.90341C8.96786 9.64612 9.26127 9.27415 9.41422 8.78128C9.56717 8.29151 9.64521 7.69634 9.64521 6.99889C9.64521 6.34483 9.52659 5.79617 9.28936 5.35599C9.05213 4.91582 8.70253 4.58413 8.23744 4.35784C7.77547 4.13156 7.19177 4.01998 6.48945 4.01998H5.53116V10.2847L5.53429 10.2878ZM5.53429 21.3758H6.71107C7.92843 21.3758 8.76808 21.0689 9.23318 20.4552C9.69827 19.8414 9.92927 18.9394 9.92927 17.7521C9.92927 16.8098 9.82624 16.0627 9.62023 15.511C9.41422 14.9592 9.07399 14.5531 8.59954 14.2989C8.12508 14.0416 7.48518 13.9146 6.68297 13.9146H5.53741V21.3789L5.53429 21.3758Z" fill="white"/>
<path d="M25.4208 25.5822C23.5043 25.5822 22.0028 25.2692 20.9197 24.6461C19.8366 24.023 19.078 23.1086 18.6473 21.9121C18.2134 20.7155 17.998 19.2462 17.998 17.5041V0.337402H23.473V18.3349C23.473 18.8464 23.5136 19.3578 23.5979 19.8693C23.679 20.3808 23.8601 20.8023 24.1379 21.1278C24.4157 21.4564 24.8434 21.6207 25.4208 21.6207C25.9983 21.6207 26.4509 21.4564 26.7193 21.1278C26.9877 20.7992 27.1563 20.3808 27.2312 19.8693C27.303 19.3578 27.3405 18.8464 27.3405 18.3349V0.337402H32.8467V17.5041C32.8467 19.2462 32.625 20.7155 32.1818 21.9121C31.7386 23.1086 30.9801 24.0199 29.9094 24.6461C28.8388 25.2692 27.3436 25.5822 25.4239 25.5822" fill="white"/>
<path d="M36.3678 25.2134V0.337402H41.9021V10.5017L46.1098 0.337402H51.5224L46.8839 11.5773L51.7377 25.2134H46.1098L42.492 14.2184L41.9021 15.201V25.2134H36.3678Z" fill="white"/>
<path d="M60.3683 25.5827C58.4923 25.5827 57.0065 25.2542 55.914 24.6001C54.8215 23.946 54.038 23.0037 53.5636 21.7762C53.0891 20.5486 52.8519 19.0855 52.8519 17.3837V8.1401C52.8519 6.41971 53.0891 4.9566 53.5636 3.74768C54.038 2.53875 54.8215 1.61192 55.914 0.967158C57.0065 0.322397 58.4923 0 60.3683 0C62.2443 0 63.7644 0.322397 64.8694 0.967158C65.9713 1.61192 66.761 2.53875 67.2355 3.74768C67.7099 4.9566 67.9472 6.41971 67.9472 8.1401V17.3837C67.9472 19.0824 67.7099 20.5455 67.2355 21.7762C66.761 23.0037 65.9713 23.946 64.8694 24.6001C63.7644 25.2542 62.2661 25.5827 60.3683 25.5827ZM60.3683 21.6832C60.9458 21.6832 61.3672 21.5406 61.6356 21.2523C61.9041 20.9671 62.0789 20.5982 62.16 20.1457C62.2412 19.6962 62.2849 19.2343 62.2849 18.7631V6.78548C62.2849 6.29261 62.2443 5.82764 62.16 5.38747C62.0789 4.9473 61.901 4.58463 61.6356 4.29635C61.3672 4.01117 60.9458 3.86547 60.3683 3.86547C59.8314 3.86547 59.4288 4.00807 59.1635 4.29635C58.895 4.58463 58.7202 4.9473 58.639 5.38747C58.5548 5.82764 58.5142 6.29261 58.5142 6.78548V18.7631C58.5142 19.2343 58.5485 19.6962 58.6234 20.1457C58.6952 20.5951 58.8607 20.964 59.1197 21.2523C59.3757 21.5406 59.794 21.6832 60.3714 21.6832" fill="white"/>
<path d="M98.4062 25.2134L93.8926 0.337402H98.6216L101.312 17.2283L103.819 0.337402H108.829L104.253 25.2134H98.4062Z" fill="white"/>
<path d="M116.901 0.337402H111.366V25.2134H116.901V0.337402Z" fill="white"/>
<path d="M120.643 25.2134V0.337402H126.178V21.4967H131.93V25.2134H120.643Z" fill="white"/>
<path d="M134.343 25.2134V0.337402H139.878V21.4967H145.63V25.2134H134.343Z" fill="white"/>
<path d="M146.838 25.2134L151.57 0.337402H157.879L162.549 25.2134H157.445L156.608 19.9623H152.928L152.064 25.2134H146.838ZM153.425 16.6765H156.084L154.754 6.971L153.425 16.6765Z" fill="white"/>
<path d="M171.207 25.5827C169.475 25.5827 168.108 25.2231 167.109 24.5071C166.11 23.791 165.398 22.7836 164.974 21.4817C164.552 20.1829 164.34 18.6826 164.34 16.9839V8.62987C164.34 6.86918 164.568 5.34407 165.021 4.05455C165.473 2.76503 166.254 1.7669 167.356 1.06015C168.457 0.353392 169.959 0 171.857 0C173.754 0 175.172 0.306891 176.233 0.920653C177.294 1.53441 178.053 2.38375 178.505 3.46869C178.958 4.55362 179.186 5.82455 179.186 7.27836V8.87475H173.773V6.84748C173.773 6.31432 173.736 5.82454 173.664 5.37197C173.592 4.9225 173.427 4.55672 173.171 4.28083C172.912 4.00495 172.493 3.86547 171.919 3.86547C171.345 3.86547 170.889 4.02355 170.621 4.34283C170.352 4.66211 170.184 5.05579 170.112 5.52696C170.04 5.99813 170.002 6.48791 170.002 7.00247V18.5183C170.002 19.07 170.059 19.5877 170.174 20.0682C170.287 20.5486 170.493 20.9392 170.792 21.2337C171.092 21.5313 171.52 21.6801 172.075 21.6801C172.631 21.6801 173.096 21.5282 173.405 21.2213C173.714 20.9144 173.929 20.5145 174.054 20.0217C174.179 19.5288 174.238 19.008 174.238 18.4563V15.5393H171.982V12.3156H179.217V25.2138H175.568L175.259 23.1556C174.928 23.853 174.444 24.4296 173.804 24.8915C173.165 25.3533 172.3 25.5827 171.207 25.5827Z" fill="white"/>
<path d="M182.682 25.2134V0.337402H193.938V4.08508H188.216V10.2568H192.577V14.0664H188.216V21.4967H194V25.2134H182.682Z" fill="white"/>
<path d="M65.1567 25.2139H98.5061L81.8657 40H48.5164L65.1567 25.2139Z" fill="#0051D1"/>
</svg>
