<svg width="32" height="32" viewBox="0 0 32 32" fill="none" xmlns="http://www.w3.org/2000/svg">
<path d="M11.1554 15.7277C11.1554 13.242 13.1523 11.2264 15.6163 11.2264C18.0803 11.2264 20.0782 13.242 20.0782 15.7277C20.0782 18.2133 18.0803 20.2289 15.6163 20.2289C13.1523 20.2289 11.1554 18.2133 11.1554 15.7277ZM8.74336 15.7277C8.74336 19.557 11.8204 22.6611 15.6163 22.6611C19.4122 22.6611 22.4892 19.557 22.4892 15.7277C22.4892 11.8983 19.4122 8.79425 15.6163 8.79425C11.8204 8.79425 8.74336 11.8983 8.74336 15.7277ZM21.1551 8.51934C21.155 8.83981 21.2491 9.15311 21.4255 9.41964C21.6018 9.68617 21.8526 9.89395 22.146 10.0167C22.4395 10.1395 22.7624 10.1717 23.074 10.1093C23.3856 10.0469 23.6719 9.89269 23.8966 9.66618C24.1213 9.43966 24.2744 9.15101 24.3365 8.83673C24.3986 8.52245 24.3669 8.19664 24.2455 7.90052C24.124 7.6044 23.9182 7.35126 23.6542 7.17311C23.3901 6.99497 23.0796 6.89981 22.7619 6.89968H22.7613C22.3355 6.89988 21.9272 7.07057 21.626 7.37425C21.3249 7.67793 21.1555 8.08978 21.1551 8.51934ZM10.2088 26.7184C8.90387 26.6585 8.19459 26.4392 7.72323 26.2539C7.09832 26.0085 6.65245 25.7162 6.18366 25.2439C5.71487 24.7717 5.42469 24.3223 5.18248 23.6919C4.99873 23.2166 4.78136 22.5009 4.72204 21.1844C4.65715 19.7611 4.64419 19.3336 4.64419 15.7278C4.64419 12.1219 4.65822 11.6956 4.72204 10.2711C4.78147 8.95466 5.00044 8.24032 5.18248 7.76363C5.42576 7.13322 5.71551 6.68343 6.18366 6.21051C6.6518 5.7376 7.09725 5.44486 7.72323 5.20052C8.19437 5.01516 8.90387 4.79588 10.2088 4.73603C11.6197 4.67057 12.0435 4.6575 15.6163 4.6575C19.1891 4.6575 19.6133 4.67165 21.0253 4.73603C22.3303 4.79598 23.0384 5.01689 23.511 5.20052C24.1359 5.44486 24.5817 5.73825 25.0505 6.21051C25.5193 6.68278 25.8084 7.13322 26.0517 7.76363C26.2355 8.23892 26.4528 8.95466 26.5121 10.2711C26.577 11.6956 26.59 12.1219 26.59 15.7278C26.59 19.3336 26.577 19.7599 26.5121 21.1844C26.4527 22.5009 26.2343 23.2164 26.0517 23.6919C25.8084 24.3223 25.5187 24.7721 25.0505 25.2439C24.5824 25.7158 24.1359 26.0085 23.511 26.2539C23.0398 26.4393 22.3303 26.6586 21.0253 26.7184C19.6145 26.7839 19.1907 26.7969 15.6163 26.7969C12.0419 26.7969 11.6193 26.7839 10.2088 26.7184ZM10.098 2.30687C8.67312 2.37233 7.69946 2.60025 6.84915 2.93404C5.96854 3.27873 5.22306 3.74116 4.47812 4.49147C3.73317 5.24178 3.27595 5.99501 2.93426 6.88337C2.60339 7.7417 2.37745 8.72339 2.31256 10.1608C2.2466 11.6005 2.23151 12.0608 2.23151 15.7277C2.23151 19.3945 2.2466 19.8548 2.31256 21.2945C2.37745 22.732 2.60339 23.7136 2.93426 24.5719C3.27595 25.4598 3.73328 26.2138 4.47812 26.9638C5.22295 27.7138 5.96854 28.1756 6.84915 28.5213C7.70106 28.8551 8.67312 29.083 10.098 29.1484C11.5259 29.2139 11.9814 29.2302 15.6163 29.2302C19.2512 29.2302 19.7074 29.215 21.1346 29.1484C22.5596 29.083 23.5326 28.8551 24.3834 28.5213C25.2635 28.1756 26.0095 27.7141 26.7545 26.9638C27.4994 26.2135 27.9557 25.4598 28.2983 24.5719C28.6292 23.7136 28.8562 22.7319 28.92 21.2945C28.9849 19.8537 29 19.3945 29 15.7277C29 12.0608 28.9849 11.6005 28.92 10.1608C28.8551 8.72328 28.6292 7.74116 28.2983 6.88337C27.9557 5.99555 27.4982 5.24297 26.7545 4.49147C26.0107 3.73998 25.2635 3.27873 24.3845 2.93404C23.5326 2.60025 22.5595 2.37125 21.1356 2.30687C19.7085 2.24141 19.2522 2.2251 15.6174 2.2251C11.9825 2.2251 11.5259 2.24033 10.098 2.30687Z" fill="white"/>
<path d="M11.1554 15.7277C11.1554 13.242 13.1523 11.2264 15.6163 11.2264C18.0803 11.2264 20.0782 13.242 20.0782 15.7277C20.0782 18.2133 18.0803 20.2289 15.6163 20.2289C13.1523 20.2289 11.1554 18.2133 11.1554 15.7277ZM8.74336 15.7277C8.74336 19.557 11.8204 22.6611 15.6163 22.6611C19.4122 22.6611 22.4892 19.557 22.4892 15.7277C22.4892 11.8983 19.4122 8.79425 15.6163 8.79425C11.8204 8.79425 8.74336 11.8983 8.74336 15.7277ZM21.1551 8.51934C21.155 8.83981 21.2491 9.15311 21.4255 9.41964C21.6018 9.68617 21.8526 9.89395 22.146 10.0167C22.4395 10.1395 22.7624 10.1717 23.074 10.1093C23.3856 10.0469 23.6719 9.89269 23.8966 9.66618C24.1213 9.43966 24.2744 9.15101 24.3365 8.83673C24.3986 8.52245 24.3669 8.19664 24.2455 7.90052C24.124 7.6044 23.9182 7.35126 23.6542 7.17311C23.3901 6.99497 23.0796 6.89981 22.7619 6.89968H22.7613C22.3355 6.89988 21.9272 7.07057 21.626 7.37425C21.3249 7.67793 21.1555 8.08978 21.1551 8.51934ZM10.2088 26.7184C8.90387 26.6585 8.19459 26.4392 7.72323 26.2539C7.09832 26.0085 6.65245 25.7162 6.18366 25.2439C5.71487 24.7717 5.42469 24.3223 5.18248 23.6919C4.99873 23.2166 4.78136 22.5009 4.72204 21.1844C4.65715 19.7611 4.64419 19.3336 4.64419 15.7278C4.64419 12.1219 4.65822 11.6956 4.72204 10.2711C4.78147 8.95466 5.00044 8.24032 5.18248 7.76363C5.42576 7.13322 5.71551 6.68343 6.18366 6.21051C6.6518 5.7376 7.09725 5.44486 7.72323 5.20052C8.19437 5.01516 8.90387 4.79588 10.2088 4.73603C11.6197 4.67057 12.0435 4.6575 15.6163 4.6575C19.1891 4.6575 19.6133 4.67165 21.0253 4.73603C22.3303 4.79598 23.0384 5.01689 23.511 5.20052C24.1359 5.44486 24.5817 5.73825 25.0505 6.21051C25.5193 6.68278 25.8084 7.13322 26.0517 7.76363C26.2355 8.23892 26.4528 8.95466 26.5121 10.2711C26.577 11.6956 26.59 12.1219 26.59 15.7278C26.59 19.3336 26.577 19.7599 26.5121 21.1844C26.4527 22.5009 26.2343 23.2164 26.0517 23.6919C25.8084 24.3223 25.5187 24.7721 25.0505 25.2439C24.5824 25.7158 24.1359 26.0085 23.511 26.2539C23.0398 26.4393 22.3303 26.6586 21.0253 26.7184C19.6145 26.7839 19.1907 26.7969 15.6163 26.7969C12.0419 26.7969 11.6193 26.7839 10.2088 26.7184ZM10.098 2.30687C8.67312 2.37233 7.69946 2.60025 6.84915 2.93404C5.96854 3.27873 5.22306 3.74116 4.47812 4.49147C3.73317 5.24178 3.27595 5.99501 2.93426 6.88337C2.60339 7.7417 2.37745 8.72339 2.31256 10.1608C2.2466 11.6005 2.23151 12.0608 2.23151 15.7277C2.23151 19.3945 2.2466 19.8548 2.31256 21.2945C2.37745 22.732 2.60339 23.7136 2.93426 24.5719C3.27595 25.4598 3.73328 26.2138 4.47812 26.9638C5.22295 27.7138 5.96854 28.1756 6.84915 28.5213C7.70106 28.8551 8.67312 29.083 10.098 29.1484C11.5259 29.2139 11.9814 29.2302 15.6163 29.2302C19.2512 29.2302 19.7074 29.215 21.1346 29.1484C22.5596 29.083 23.5326 28.8551 24.3834 28.5213C25.2635 28.1756 26.0095 27.7141 26.7545 26.9638C27.4994 26.2135 27.9557 25.4598 28.2983 24.5719C28.6292 23.7136 28.8562 22.7319 28.92 21.2945C28.9849 19.8537 29 19.3945 29 15.7277C29 12.0608 28.9849 11.6005 28.92 10.1608C28.8551 8.72328 28.6292 7.74116 28.2983 6.88337C27.9557 5.99555 27.4982 5.24297 26.7545 4.49147C26.0107 3.73998 25.2635 3.27873 24.3845 2.93404C23.5326 2.60025 22.5595 2.37125 21.1356 2.30687C19.7085 2.24141 19.2522 2.2251 15.6174 2.2251C11.9825 2.2251 11.5259 2.24033 10.098 2.30687Z" fill="white"/>
</svg>
