<?xml version="1.0" encoding="utf-8"?>
<svg version="1.1" id="Layer_1" xmlns="http://www.w3.org/2000/svg" xmlns:xlink="http://www.w3.org/1999/xlink" x="0px" y="0px"
	 viewBox="0 0 24 24" style="enable-background:new 0 0 24 24;" xml:space="preserve">
<style type="text/css">
	.st0{fill:#0077B5;}
</style>
<path class="st0" d="M20.3,0H3.7C1.7,0,0,1.7,0,3.7v16.6C0,22.3,1.7,24,3.7,24h16.6c2.1,0,3.7-1.7,3.7-3.7V3.7C24,1.7,22.3,0,20.3,0
	L20.3,0z M7.6,20.9l-3.4,0V9.5l3.4,0V20.9L7.6,20.9z M5.9,7.8C4.8,7.8,4,7,4,5.9C4,4.9,4.8,4,5.9,4c1,0,1.9,0.9,1.9,1.9
	C7.8,7,6.9,7.8,5.9,7.8z M21,20.9L17.7,21v-6c0-1.3-0.3-2.2-1.9-2.2c-1.4,0-1.9,0.2-1.9,2.1v6.1l-3.4,0V9.5l3.3,0v1.5l0,0.4
	c1-1,2-1.7,3.6-1.7c1.9,0,3.7,0.8,3.7,3.4L21,20.9L21,20.9z"/>
</svg>
