<?xml version="1.0" encoding="utf-8"?>
<svg version="1.1" id="Layer_1" xmlns="http://www.w3.org/2000/svg" xmlns:xlink="http://www.w3.org/1999/xlink" x="0px" y="0px"
	 viewBox="0 0 24 24" style="enable-background:new 0 0 24 24;" xml:space="preserve">
<style type="text/css">
	.st0{fill:#3B579D;}
</style>
<path class="st0" d="M20.3,0H4C1.9,0,0,1.5,0,3.7V20c0,2.1,1.9,4,4,4h10.1c0-3.1,0-6.6,0-9.7c-0.6,0-1.3,0-1.9,0c0-1.1,0-2.2,0-3.2
	c0.6,0,1.3,0,1.9,0c0-1,0-2.1,0-3.1c0.1-0.8,0.4-1.7,1-2.2c0.7-0.7,1.8-1,2.8-1c1.1,0,2.1,0,3.2,0c0,1.1,0,2.2,0,3.4
	c-0.7,0-1.4,0-2.1,0c-0.4,0-0.9,0.3-1,0.7c0,0.8,0,1.5,0,2.3c1,0,2,0,3,0c-0.1,1.1-0.2,2.2-0.4,3.2c-0.9,0-1.8,0.1-2.7,0.1
	c0,3,0,6.5,0,9.7h2.2c2.1,0,3.7-1.9,3.7-4V3.7C24,1.5,22.4,0,20.3,0z"/>
</svg>
