<svg width="45" height="46" viewBox="0 0 45 46" fill="none" xmlns="http://www.w3.org/2000/svg">
<rect y="0.575012" width="45" height="45" rx="22.5" fill="url(#paint0_linear_137_210)"/>
<g clip-path="url(#clip0_137_210)">
<path d="M10.3662 22.1172C10.1318 22.3516 10 22.668 10 23V28C10 28.332 10.1318 28.6492 10.3662 28.8836C10.6006 29.118 10.918 29.25 11.25 29.25H12.5V21.75H11.25C10.918 21.75 10.6008 21.8828 10.3662 22.1172ZM28.125 16.75H23.75V14.25C23.75 13.5617 23.1883 13 22.5 13C21.8117 13 21.25 13.5617 21.25 14.25V16.75H16.875C15.1484 16.75 13.75 18.1484 13.75 19.875V30.5C13.75 31.882 14.868 33 16.25 33H28.75C30.132 33 31.25 31.882 31.25 30.5V19.875C31.25 18.1484 29.8555 16.75 28.125 16.75ZM20 29.25H17.5V28H20V29.25ZM18.75 24.5625C17.8867 24.5625 17.1875 23.8633 17.1875 23C17.1875 22.1367 17.8867 21.4375 18.75 21.4375C19.6133 21.4375 20.3125 22.1367 20.3125 23C20.3125 23.8633 19.6133 24.5625 18.75 24.5625ZM23.75 29.25H21.25V28H23.75V29.25ZM27.5 29.25H25V28H27.5V29.25ZM26.25 24.5625C25.3859 24.5625 24.6875 23.8641 24.6875 23C24.6875 22.1359 25.3867 21.4375 26.25 21.4375C27.1133 21.4375 27.8125 22.1367 27.8125 23C27.8125 23.8633 27.1133 24.5625 26.25 24.5625ZM34.6328 22.1172C34.3984 21.8828 34.082 21.75 33.75 21.75H32.5V29.25H33.75C34.082 29.25 34.3992 29.1182 34.6336 28.8838C34.868 28.6494 35 28.332 35 28V23C35 22.668 34.8672 22.3516 34.6328 22.1172Z" fill="white"/>
</g>
<defs>
<linearGradient id="paint0_linear_137_210" x1="0" y1="0.575012" x2="45" y2="45.575" gradientUnits="userSpaceOnUse">
<stop stop-color="#FF6FD8"/>
<stop offset="1" stop-color="#3813C2"/>
</linearGradient>
<clipPath id="clip0_137_210">
<rect width="25" height="20" fill="white" transform="translate(10 13)"/>
</clipPath>
</defs>
</svg>
