<svg width="45" height="46" viewBox="0 0 45 46" fill="none" xmlns="http://www.w3.org/2000/svg">
<rect y="0.575012" width="45" height="45" rx="22.5" fill="url(#paint0_linear_137_166)"/>
<path d="M21.9372 24.8058C25.1235 24.8058 27.7064 21.7063 27.7064 17.8827C27.7064 14.0592 25.1235 10.9597 21.9372 10.9597C18.7509 10.9597 16.168 14.0592 16.168 17.8827C16.168 21.7063 18.7509 24.8058 21.9372 24.8058Z" fill="white"/>
<path d="M33.2472 30.6904C32.2088 28.6135 30.2472 26.8827 27.7088 25.8443C27.0165 25.6135 26.2088 25.6135 25.6319 25.9597C24.478 26.652 23.3242 26.9981 21.9396 26.9981C20.5549 26.9981 19.4011 26.652 18.2472 25.9597C17.6703 25.7289 16.8626 25.6135 16.1703 25.9597C13.6319 26.9981 11.6703 28.7289 10.6319 30.8058C9.82417 32.3058 11.0934 34.0366 12.8242 34.0366H31.0549C32.7857 34.0366 34.0549 32.3058 33.2472 30.6904Z" fill="white"/>
<defs>
<linearGradient id="paint0_linear_137_166" x1="0" y1="0.575012" x2="45" y2="45.575" gradientUnits="userSpaceOnUse">
<stop stop-color="#FF6FD8"/>
<stop offset="1" stop-color="#3813C2"/>
</linearGradient>
</defs>
</svg>
