<svg width="45" height="46" viewBox="0 0 45 46" fill="none" xmlns="http://www.w3.org/2000/svg">
<rect y="0.575012" width="45" height="45" rx="22.5" fill="url(#paint0_linear_137_188)"/>
<path d="M15.7923 22.5417H29.209C31.3173 22.5417 33.0423 20.8167 33.0423 18.7083C33.0423 16.6 31.3173 14.875 29.209 14.875H15.7923C13.684 14.875 11.959 16.6 11.959 18.7083C11.959 20.8167 13.684 22.5417 15.7923 22.5417ZM15.7923 16.7917C16.8465 16.7917 17.709 17.6542 17.709 18.7083C17.709 19.7625 16.8465 20.625 15.7923 20.625C14.7382 20.625 13.8757 19.7625 13.8757 18.7083C13.8757 17.6542 14.7382 16.7917 15.7923 16.7917Z" fill="white"/>
<path d="M29.209 24.4583H15.7923C13.684 24.4583 11.959 26.1833 11.959 28.2917C11.959 30.4 13.684 32.125 15.7923 32.125H29.209C31.3173 32.125 33.0423 30.4 33.0423 28.2917C33.0423 26.1833 31.3173 24.4583 29.209 24.4583ZM29.209 30.2083C28.1548 30.2083 27.2923 29.3458 27.2923 28.2917C27.2923 27.2375 28.1548 26.375 29.209 26.375C30.2632 26.375 31.1257 27.2375 31.1257 28.2917C31.1257 29.3458 30.2632 30.2083 29.209 30.2083Z" fill="white"/>
<defs>
<linearGradient id="paint0_linear_137_188" x1="0" y1="0.575012" x2="45" y2="45.575" gradientUnits="userSpaceOnUse">
<stop stop-color="#FF6FD8"/>
<stop offset="1" stop-color="#3813C2"/>
</linearGradient>
</defs>
</svg>
