<svg width="25" height="26" viewBox="0 0 25 26" fill="none" xmlns="http://www.w3.org/2000/svg">
<path fill-rule="evenodd" clip-rule="evenodd" d="M4.16667 3.396H20.8333C23.125 3.396 25 5.271 25 7.56266V17.9793C25 20.271 23.125 22.146 20.8333 22.146H4.16667C1.875 22.146 0 20.271 0 17.9793V7.56266C0 5.271 1.875 3.396 4.16667 3.396ZM4.224 7.89009C3.76185 7.5877 3.14207 7.71721 2.83968 8.17935C2.53729 8.64149 2.6668 9.26127 3.12894 9.56367L12.1189 15.446L12.6769 15.8111L13.2285 15.4364L21.8855 9.554C22.3424 9.24361 22.461 8.62167 22.1506 8.16486C21.8403 7.70805 21.2183 7.58936 20.7615 7.89975L12.656 13.4073L4.224 7.89009Z" fill="#AA37FF"/>
</svg>
