<?xml version="1.0" encoding="UTF-8"?> <svg xmlns="http://www.w3.org/2000/svg" width="75" height="16" viewBox="0 0 75 16" fill="none"><path d="M3.263 12.228H9.458V15H0.365V0.299999H9.353V3.072H3.263V6.201H8.828V8.931H3.263V12.228ZM15.1337 15L10.1987 0.299999H13.3487L16.9397 11.598L20.5097 0.299999H23.6807L18.7247 15H15.1337ZM36.8102 13.089C35.3262 14.559 33.5202 15.294 31.3922 15.294C29.2642 15.294 27.4582 14.559 25.9742 13.089C24.5042 11.605 23.7692 9.792 23.7692 7.65C23.7692 5.508 24.5042 3.702 25.9742 2.232C27.4582 0.747999 29.2642 0.00599903 31.3922 0.00599903C33.5202 0.00599903 35.3262 0.747999 36.8102 2.232C38.2942 3.702 39.0362 5.508 39.0362 7.65C39.0362 9.792 38.2942 11.605 36.8102 13.089ZM28.0112 11.115C28.9212 12.011 30.0482 12.459 31.3922 12.459C32.7362 12.459 33.8632 12.011 34.7732 11.115C35.6832 10.205 36.1382 9.05 36.1382 7.65C36.1382 6.25 35.6832 5.095 34.7732 4.185C33.8632 3.275 32.7362 2.82 31.3922 2.82C30.0482 2.82 28.9212 3.275 28.0112 4.185C27.1012 5.095 26.6462 6.25 26.6462 7.65C26.6462 9.05 27.1012 10.205 28.0112 11.115ZM43.971 12.228H49.578V15H41.073V0.299999H43.971V12.228ZM56.4798 15.294C54.8418 15.294 53.4978 14.832 52.4478 13.908C51.3978 12.984 50.8728 11.745 50.8728 10.191V0.299999H53.7498V9.96C53.7498 10.73 53.9668 11.339 54.4008 11.787C54.8488 12.235 55.5418 12.459 56.4798 12.459C57.4178 12.459 58.1038 12.235 58.5378 11.787C58.9858 11.339 59.2098 10.73 59.2098 9.96V0.299999H62.1078V10.191C62.1078 11.745 61.5828 12.984 60.5328 13.908C59.4828 14.832 58.1318 15.294 56.4798 15.294ZM74.4415 0.299999V3.072H70.4725V15H67.5745V3.072H63.6265V0.299999H74.4415Z" fill="url(#paint0_linear_165_14)"></path><defs><linearGradient id="paint0_linear_165_14" x1="-1" y1="-5" x2="13.8414" y2="40.118" gradientUnits="userSpaceOnUse"><stop stop-color="#FF6FD8"></stop><stop offset="1" stop-color="#3813C2"></stop></linearGradient></defs></svg> 