<svg width="26" height="26" viewBox="0 0 26 26" fill="none" xmlns="http://www.w3.org/2000/svg">
<path d="M12.7615 14.2663C14.6971 14.2663 16.2662 12.6972 16.2662 10.7617C16.2662 8.82615 14.6971 7.25708 12.7615 7.25708C10.826 7.25708 9.25693 8.82615 9.25693 10.7617C9.25693 12.6972 10.826 14.2663 12.7615 14.2663Z" stroke="white" stroke-width="1.5" stroke-linecap="round" stroke-linejoin="round"/>
<path d="M21.5231 10.7615C21.5231 18.6469 12.7615 24.78 12.7615 24.78C12.7615 24.78 4 18.6469 4 10.7615C4 8.43783 4.92309 6.2093 6.5662 4.5662C8.2093 2.92309 10.4378 2 12.7615 2C15.0852 2 17.3138 2.92309 18.9569 4.5662C20.6 6.2093 21.5231 8.43783 21.5231 10.7615Z" stroke="white" stroke-width="1.5" stroke-linecap="round" stroke-linejoin="round"/>
</svg>
