<svg width="27" height="27" viewBox="0 0 27 27" fill="none" xmlns="http://www.w3.org/2000/svg">
<path d="M13.4328 25.1867C10.3156 25.1867 7.32595 23.9483 5.1217 21.7441C2.91744 19.5398 1.67911 16.5502 1.67911 13.4329C1.67911 10.3156 2.91744 7.32604 5.1217 5.12179C7.32595 2.91754 10.3156 1.6792 13.4328 1.6792C20.1022 1.6792 23.9272 5.3514 23.9272 11.7538V12.1736C23.9925 13.5959 23.6561 15.0079 22.9563 16.2479C22.5928 16.8944 22.063 17.4318 21.4218 17.8044C20.7806 18.177 20.0513 18.3713 19.3097 18.367C17.6361 18.367 15.6816 17.4015 15.6816 14.6851V14.6431L15.9334 9.62934C15.7264 9.58848 15.512 9.55168 15.2903 9.51894C14.7207 9.43137 14.1456 9.3841 13.5693 9.37747C13.0444 9.34773 12.5194 9.43385 12.0315 9.62973C11.5437 9.8256 11.1049 10.1264 10.7463 10.5109C9.98237 11.385 9.59066 12.5232 9.65485 13.6823C9.59357 14.5973 9.85091 15.5053 10.3832 16.2521C10.6059 16.5124 10.8869 16.7164 11.2033 16.8477C11.5197 16.9789 11.8626 17.0338 12.2042 17.0077C12.7033 17.0262 13.1965 16.8946 13.6201 16.6299C13.7122 16.5693 13.8153 16.5274 13.9236 16.5066C14.0319 16.4859 14.1433 16.4866 14.2513 16.5089C14.3593 16.5311 14.4619 16.5745 14.5532 16.6364C14.6444 16.6983 14.7226 16.7775 14.7833 16.8696C14.8439 16.9618 14.8858 17.0649 14.9066 17.1732C14.9273 17.2815 14.9266 17.3929 14.9043 17.5009C14.8821 17.6089 14.8387 17.7115 14.7769 17.8027C14.715 17.894 14.6357 17.9722 14.5436 18.0328C13.8471 18.4802 13.0321 18.7076 12.2046 18.6852C11.6148 18.7122 11.0267 18.6028 10.4861 18.3654C9.94553 18.1281 9.46699 17.7692 9.08774 17.3167C8.34977 16.4247 7.97575 15.201 7.97575 13.6823C7.9038 12.0987 8.4571 10.5502 9.51633 9.37076C10.0333 8.81815 10.6628 8.3829 11.3623 8.09439C12.0619 7.80588 12.8152 7.67084 13.5714 7.69837C14.2287 7.70509 14.8848 7.75825 15.5347 7.85746C16.0361 7.92948 16.5332 8.02912 17.0236 8.15593L17.6827 8.32971L17.3607 14.7053C17.3699 16.4293 18.5843 16.6879 19.3097 16.6879C19.7456 16.6885 20.1741 16.5759 20.5533 16.3609C20.9324 16.1459 21.2492 15.8361 21.4724 15.4617C22.0458 14.4646 22.3154 13.3218 22.2481 12.1736V11.7538C22.2481 6.33871 19.1174 3.3583 13.4328 3.3583C11.7849 3.35824 10.162 3.76246 8.7066 4.5355C7.25119 5.30855 6.00763 6.42682 5.08494 7.79229C4.16226 9.15776 3.58863 10.7287 3.41435 12.3675C3.24006 14.0062 3.47044 15.6627 4.08529 17.1917C4.70013 18.7207 5.68067 20.0755 6.94094 21.1373C8.20121 22.1992 9.70272 22.9357 11.3139 23.2823C12.925 23.6288 14.5965 23.5749 16.182 23.1251C17.7674 22.6754 19.2183 21.8436 20.4074 20.7026C20.487 20.6263 20.5808 20.5663 20.6836 20.5262C20.7863 20.4862 20.8959 20.4667 21.0062 20.469C21.1164 20.4713 21.2252 20.4952 21.3261 20.5395C21.4271 20.5838 21.5184 20.6476 21.5948 20.7272C21.6711 20.8067 21.731 20.9006 21.7711 21.0033C21.8112 21.106 21.8307 21.2157 21.8284 21.3259C21.8261 21.4362 21.8021 21.5449 21.7578 21.6459C21.7135 21.7469 21.6498 21.8382 21.5702 21.9145C19.3848 24.0193 16.467 25.1926 13.4328 25.1867Z" fill="white"/>
</svg>
