<svg width="26" height="26" viewBox="0 0 26 26" fill="none" xmlns="http://www.w3.org/2000/svg">
<g clip-path="url(#clip0_6_170)">
<path d="M15.7128 18.3309C15.7128 18.3309 17.8183 17.1256 18.3695 16.8359C18.9192 16.5453 19.4886 16.4719 19.8344 16.6831C20.358 17.0034 24.7551 19.9284 25.1254 20.1873C25.4956 20.4468 25.674 21.1878 25.1649 21.9137C24.6579 22.6397 22.3189 25.5101 21.3278 25.4794C20.3351 25.4471 16.2079 25.3567 8.42505 17.5717C0.643766 9.78942 0.551726 5.66114 0.520006 4.66846C0.488286 3.6763 3.35869 1.33682 4.08461 0.829296C4.81157 0.322296 5.55361 0.513136 5.81153 0.869856C6.10481 1.27598 8.99601 5.65906 9.31425 6.16138C9.53213 6.50458 9.45205 7.0771 9.16137 7.62726C8.87225 8.17846 7.66689 10.2839 7.66689 10.2839C7.66689 10.2839 8.51657 11.7332 11.3901 14.6062C14.2641 17.4797 15.7128 18.3309 15.7128 18.3309Z" stroke="white" stroke-width="1.5" stroke-miterlimit="10"/>
</g>
<defs>
<clipPath id="clip0_6_170">
<rect width="26" height="26" fill="white"/>
</clipPath>
</defs>
</svg>
