<svg width="180" height="65" viewBox="0 0 180 65" fill="none" xmlns="http://www.w3.org/2000/svg">
<g clip-path="url(#clip0_2_5)">
<path d="M74.2247 17.069L80.0902 0.00775146H83.2557L89.1445 17.069H86.4212L85.2807 13.6474H78.0884L76.9479 17.069H74.2247ZM78.81 11.3897H84.5591L81.9755 3.825L81.6962 2.87069L81.3936 3.825L78.81 11.3897Z" fill="#1C1F2A"/>
<path d="M96.436 8.13104C94.5041 8.13104 93.224 9.62069 93.224 11.6224C93.224 13.6009 94.5041 15.0905 96.436 15.0905C98.4145 15.0905 99.7878 13.531 99.7878 11.6224C99.7878 9.69052 98.4145 8.13104 96.436 8.13104ZM90.78 11.6224C90.78 8.52673 92.9214 5.85 96.3895 5.85C97.6697 5.85 99.299 6.36207 99.7878 7.2L99.7412 6.19914V0.00775146H102.069V17.069H99.6481V16.8595L99.6714 15.9285C99.1593 16.7664 97.6697 17.3716 96.3895 17.3716C92.9447 17.3716 90.78 15.0672 90.78 11.6224Z" fill="#1C1F2A"/>
<path d="M115.825 6.12932L111.24 17.069H108.61L104.024 6.12932H106.631L109.262 12.8328L109.937 14.7414L110.612 12.8328L113.242 6.12932H115.825Z" fill="#1C1F2A"/>
<path d="M122.69 15.0905C124.599 15.0905 126.019 13.6241 126.019 11.5991C126.019 9.59742 124.599 8.13104 122.69 8.13104C120.851 8.13104 119.455 9.52759 119.455 11.5991C119.455 13.694 120.851 15.0905 122.69 15.0905ZM117.011 11.5991C117.011 8.10776 119.338 5.85001 122.62 5.85001C123.994 5.85001 125.46 6.50173 125.926 7.31639L125.879 6.38535V6.12932H128.3V17.069H125.972V16.906L126.019 15.975C125.53 16.8362 123.994 17.3716 122.62 17.3716C119.245 17.3716 117.011 14.7647 117.011 11.5991Z" fill="#1C1F2A"/>
<path d="M133.258 17.069H130.861V6.80431C132.141 6.10603 133.747 5.82672 135.236 5.82672C139.542 5.82672 140.986 8.03793 141.009 10.7612C141.032 12.9724 141.032 14.8578 141.009 17.069H138.588C138.611 15.0905 138.611 13.2284 138.588 11.25C138.565 8.99224 137.634 8.17758 135.539 8.17758C134.538 8.17758 133.654 8.36379 133.258 8.61982V17.069Z" fill="#1C1F2A"/>
<path d="M153.415 15.5328C152.414 16.7897 150.762 17.4647 148.97 17.4647C145.478 17.4647 143.197 15.044 143.197 11.6457C143.197 8.20087 145.548 5.85001 148.97 5.85001C150.739 5.85001 152.414 6.54828 153.462 7.80518L151.926 9.36466C151.204 8.52673 150.11 8.08449 148.97 8.08449C147.108 8.08449 145.571 9.55087 145.571 11.6457C145.571 13.9035 146.991 15.2302 148.97 15.2302C150.04 15.2302 151.274 14.7414 151.949 13.9267L153.415 15.5328Z" fill="#1C1F2A"/>
<path d="M165.462 15.5793C164.508 16.7897 162.646 17.4647 160.924 17.4647C157.456 17.4647 155.244 14.9741 155.244 11.6457C155.244 8.24742 157.432 5.85001 160.807 5.85001C164.206 5.85001 166.393 8.24742 166.393 11.6457C166.393 11.925 166.393 12.1578 166.37 12.4371H157.642C157.851 14.206 159.131 15.2535 160.924 15.2535C162.087 15.2535 163.298 14.7414 163.973 13.95L165.462 15.5793ZM157.712 10.5983H163.903C163.693 9.08535 162.413 8.06121 160.807 8.06121C159.201 8.06121 157.921 9.08535 157.712 10.5983Z" fill="#1C1F2A"/>
<path d="M174.061 8.13104C172.129 8.13104 170.848 9.62069 170.848 11.6224C170.848 13.6009 172.129 15.0905 174.061 15.0905C176.039 15.0905 177.412 13.531 177.412 11.6224C177.412 9.69052 176.039 8.13104 174.061 8.13104ZM168.404 11.6224C168.404 8.52673 170.546 5.85 174.014 5.85C175.294 5.85 176.923 6.36207 177.412 7.2L177.366 6.19914V0.00775146H179.693V17.069H177.273V16.8595L177.296 15.9285C176.784 16.7664 175.294 17.3716 174.014 17.3716C170.569 17.3716 168.404 15.0672 168.404 11.6224Z" fill="#1C1F2A"/>
<path d="M77.716 37.9009C78.9497 37.9241 80.0902 37.9241 81.3005 37.9009C85.7928 37.8078 86.9333 34.7353 86.9333 31.5931C86.9333 27.8457 84.5824 25.7276 81.3703 25.6578C80.1367 25.6345 78.9729 25.6345 77.716 25.6578V37.9009ZM75.1091 40.3448V23.2836C77.3902 23.2603 79.3453 23.2603 81.5333 23.2836C86.491 23.3302 89.61 26.7284 89.61 31.5931C89.61 36.4112 87.329 40.275 81.51 40.3448C79.3453 40.3681 77.2505 40.3681 75.1091 40.3448Z" fill="#1C1F2A"/>
<path d="M100.648 38.8552C99.6941 40.0655 97.8321 40.7405 96.1096 40.7405C92.6415 40.7405 90.4303 38.25 90.4303 34.9215C90.4303 31.5233 92.6183 29.1259 95.9933 29.1259C99.3915 29.1259 101.579 31.5233 101.579 34.9215C101.579 35.2009 101.579 35.4336 101.556 35.7129H92.8277C93.0372 37.4819 94.3174 38.5293 96.1096 38.5293C97.2734 38.5293 98.4838 38.0172 99.1588 37.2259L100.648 38.8552ZM92.8976 33.8741H99.089C98.8795 32.3612 97.5993 31.3371 95.9933 31.3371C94.3872 31.3371 93.1071 32.3612 92.8976 33.8741Z" fill="#1C1F2A"/>
<path d="M107.162 40.6707C104.881 40.6707 103.927 39.0647 103.903 36.9C103.903 31.5233 103.88 27.4267 103.903 23.2836H106.254C106.231 27.2173 106.231 31.8491 106.254 36.4112C106.254 37.4819 106.464 38.3897 107.441 38.3897C107.651 38.3897 107.884 38.3664 108.233 38.2966L108.628 40.4612C108.14 40.6009 107.628 40.6707 107.162 40.6707Z" fill="#1C1F2A"/>
<path d="M110.585 24.7966H113.308V27.45H110.585V24.7966ZM109.77 31.5466L110.236 29.4052H113.261V40.3448H110.98V31.5466H109.77Z" fill="#1C1F2A"/>
<path d="M127.249 29.4052L122.663 40.3448H120.033L115.448 29.4052H118.055L120.685 36.1086L121.36 38.0173L122.035 36.1086L124.665 29.4052H127.249Z" fill="#1C1F2A"/>
<path d="M138.699 38.8552C137.744 40.0655 135.882 40.7405 134.16 40.7405C130.692 40.7405 128.481 38.25 128.481 34.9215C128.481 31.5233 130.669 29.1259 134.044 29.1259C137.442 29.1259 139.63 31.5233 139.63 34.9215C139.63 35.2009 139.63 35.4336 139.607 35.7129H130.878C131.088 37.4819 132.368 38.5293 134.16 38.5293C135.324 38.5293 136.534 38.0172 137.209 37.2259L138.699 38.8552ZM130.948 33.8741H137.139C136.93 32.3612 135.65 31.3371 134.044 31.3371C132.438 31.3371 131.157 32.3612 130.948 33.8741Z" fill="#1C1F2A"/>
<path d="M147.181 31.6164C146.575 31.4534 146.133 31.4069 145.644 31.4069C145.156 31.4069 144.737 31.4534 144.294 31.5931V40.3448H141.92V29.8474C142.944 29.3353 144.178 29.1026 145.528 29.1026C146.156 29.1026 147.064 29.1491 147.716 29.3353L147.181 31.6164Z" fill="#1C1F2A"/>
<path d="M160.705 29.4052L153.979 45.4655H151.348L153.513 40.4612L148.881 29.4052H151.488L154.118 36.1086L154.793 38.0405L155.445 36.1086L158.122 29.4052H160.705Z" fill="#1C1F2A"/>
<path d="M77.6462 63.6207H75.1324V46.5595C77.1109 46.5362 79.1359 46.5362 81.1376 46.5595C84.466 46.606 87.0497 48.631 87.0497 51.8431C87.0497 54.869 85.3971 57.2431 81.1376 57.2431H80.0902L79.2988 54.7991C79.9505 54.8224 80.5324 54.8224 81.2307 54.7991C83.2091 54.7293 84.3264 53.8216 84.3264 51.8431C84.3264 50.0974 83.1393 49.0034 80.9048 48.9569C79.8574 48.9336 78.7169 48.9336 77.6462 48.9569V63.6207Z" fill="#1C1F2A"/>
<path d="M92.8521 63.9465C90.571 63.9465 89.6167 62.3405 89.5935 60.1759C89.5935 54.7991 89.5702 50.7026 89.5935 46.5595H91.9443C91.921 50.4931 91.921 55.125 91.9443 59.6871C91.9443 60.7578 92.1538 61.6655 93.1314 61.6655C93.3409 61.6655 93.5736 61.6422 93.9228 61.5724L94.3184 63.7371C93.8297 63.8767 93.3176 63.9465 92.8521 63.9465Z" fill="#1C1F2A"/>
<path d="M101.028 61.6422C102.937 61.6422 104.357 60.1759 104.357 58.1509C104.357 56.1491 102.937 54.6828 101.028 54.6828C99.1893 54.6828 97.7928 56.0793 97.7928 58.1509C97.7928 60.2457 99.1893 61.6422 101.028 61.6422ZM95.3488 58.1509C95.3488 54.6595 97.6764 52.4017 100.958 52.4017C102.332 52.4017 103.798 53.0534 104.263 53.8681L104.217 52.9371V52.681H106.638V63.6207H104.31V63.4578L104.357 62.5267C103.868 63.3879 102.332 63.9233 100.958 63.9233C97.5833 63.9233 95.3488 61.3164 95.3488 58.1509Z" fill="#1C1F2A"/>
<path d="M113.691 63.9465C111.875 63.9465 110.455 62.6198 110.455 60.5715C110.432 58.0112 110.432 56.9172 110.455 54.8224H108.454L108.896 52.681H110.432V50.4H112.853V52.681H114.901V54.8224H112.853C112.829 56.6845 112.829 58.1276 112.853 59.6871C112.853 60.7578 113.109 61.619 114.017 61.619C114.249 61.619 114.482 61.619 114.854 61.5026L115.227 63.7138C114.785 63.9 114.179 63.9465 113.691 63.9465Z" fill="#1C1F2A"/>
<path d="M121.919 46.2336C122.408 46.2336 122.851 46.3035 123.479 46.4431L122.967 48.6078C122.618 48.5147 122.408 48.4914 122.106 48.4914C121.035 48.4914 120.919 49.3526 120.919 50.4931V52.681H123.013V54.8224H120.895V63.6207H118.544V54.8224H116.566L117.008 52.681H118.544C118.568 51.7966 118.568 50.6328 118.591 49.6086C118.591 47.2112 119.988 46.2104 121.919 46.2336Z" fill="#1C1F2A"/>
<path d="M129.965 54.6362C128.149 54.6362 126.543 55.9629 126.543 58.1974C126.543 60.5017 128.033 61.7586 129.965 61.7586C131.873 61.7586 133.386 60.5017 133.386 58.1974C133.386 55.9629 131.78 54.6362 129.965 54.6362ZM124.192 58.1974C124.192 54.7526 126.543 52.4017 129.965 52.4017C133.386 52.4017 135.714 54.7526 135.714 58.1974C135.714 61.5957 133.433 64.0164 129.965 64.0164C126.473 64.0164 124.192 61.5957 124.192 58.1974Z" fill="#1C1F2A"/>
<path d="M143.144 54.8922C142.539 54.7293 142.097 54.6828 141.608 54.6828C141.119 54.6828 140.701 54.7293 140.258 54.869V63.6207H137.884V53.1233C138.908 52.6112 140.142 52.3784 141.492 52.3784C142.12 52.3784 143.028 52.425 143.68 52.6112L143.144 54.8922Z" fill="#1C1F2A"/>
<path d="M147.964 63.6207H145.59V53.356C146.893 52.6578 147.918 52.3784 149.547 52.3784C152.992 52.3784 154.272 54.5897 154.295 57.3828C154.318 59.594 154.318 61.4095 154.295 63.6207H151.898C151.921 61.6422 151.921 59.7802 151.898 57.8017C151.874 55.4741 151.199 54.7293 149.849 54.7293C149.058 54.7293 148.36 54.8922 147.964 55.1483V63.6207ZM154.039 52.7974C154.668 52.4948 155.482 52.3784 156.32 52.3784C159.905 52.3784 160.975 54.5897 160.999 57.3828C161.022 59.594 161.022 61.4095 160.999 63.6207H158.601C158.624 61.6422 158.624 59.7802 158.601 57.8017C158.578 55.5672 157.926 54.7293 156.553 54.7293C155.831 54.7293 155.156 54.8922 154.714 55.1017L154.039 52.7974Z" fill="#1C1F2A"/>
<path d="M68.4445 0L45.8062 63.5948H44.7883L53.3348 10.5566L1.89757e-06 1.01792L0 7.09293e-06L68.4445 0Z" fill="#D83317"/>
<path d="M0 4.07167L4.82821e-07 3.05376L33.3527 24.2565L42.7525 63.5948H41.7346L21.9943 32.2097L0 4.07167Z" fill="#0D9CEC"/>
<path d="M1.90836e-06 2.54479L0 1.52463L47.1133 14.9131L44.2794 63.5948H43.2614L37.8086 21.4283L1.90836e-06 2.54479Z" fill="#78CB0E"/>
</g>
<defs>
<clipPath id="clip0_2_5">
<rect width="180" height="64.1379" fill="white"/>
</clipPath>
</defs>
</svg>
