<svg width="1440" height="1046" viewBox="0 0 1440 1046" fill="none" xmlns="http://www.w3.org/2000/svg">
<g opacity="0.15" clip-path="url(#clip0_972:10899)">
<g opacity="0.047619">
<path opacity="0.047619" d="M1195.5 6.15219C1197.23 6.15219 1199.15 6.34445 1200.88 6.53671C1231.43 10.7661 1242.76 78.4361 1252.75 153.411C1254.67 167.637 1256.4 182.248 1258.32 197.435C1271 299.901 1285.41 416.209 1330.18 450.428C1381.86 489.838 1432 462.155 1480.23 435.241C1518.84 413.71 1555.54 393.332 1592.23 405.828L1591.85 406.789C1555.54 394.485 1519.03 414.671 1480.61 436.202C1432 463.309 1381.67 491.184 1329.41 451.39C1284.26 416.978 1269.85 300.478 1257.17 197.82C1255.25 182.44 1253.52 168.022 1251.6 153.796C1242.19 82.0887 1230.47 11.9195 1200.49 7.88241C1187.05 5.96005 1173.02 11.3429 1158.61 23.8387C1103.86 71.323 1054.87 216.275 1053.91 334.121C1053.52 386.603 1048.91 434.472 1040.46 476.766C1029.7 529.633 1011.83 572.119 985.702 606.53C968.026 629.984 946.893 648.824 922.685 662.473C899.439 675.738 871.773 685.35 840.457 691.118C762.647 705.344 672.926 697.077 593.58 689.772C560.919 686.696 529.987 684.005 500.976 682.659C436.231 679.583 332.677 694.194 236.616 743.6C181.477 772.053 134.791 808.963 97.5192 853.564C53.7152 905.854 22.9756 969.103 6.26099 1041.19L5.30029 1041C22.2072 968.718 52.9468 905.47 96.7507 852.987C134.022 808.387 181.092 771.284 236.232 742.639C332.485 693.04 436.039 678.43 500.976 681.506C529.987 682.851 560.919 685.735 593.58 688.619C672.734 695.924 762.455 704.19 840.073 689.964C871.389 684.197 898.862 674.585 922.109 661.512C946.124 647.863 967.258 629.023 984.741 605.761C1011.25 571.158 1028.93 528.864 1039.69 476.189C1048.14 433.895 1052.75 386.027 1053.14 333.736C1053.52 277.409 1065.24 211.277 1085.03 152.258C1105.2 91.8931 1131.14 45.9468 1158.04 22.6853C1170.91 11.7274 1183.4 6.15219 1195.5 6.15219Z" fill="#5F85DB"/>
</g>
<g opacity="0.095238">
<path opacity="0.095238" d="M1189.54 12.3034C1191.08 12.3034 1192.62 12.3036 1194.15 12.4958C1224.89 15.7639 1237.77 79.7811 1249.48 150.911C1251.79 165.33 1254.1 179.94 1256.4 195.512C1271.39 293.172 1288.1 404.097 1333.25 437.932C1384.74 476.573 1434.5 449.659 1482.53 423.514C1519.99 403.136 1555.54 383.911 1591.46 394.1L1591.27 395.061C1555.73 385.065 1520.38 404.097 1482.91 424.475C1434.5 450.62 1384.55 477.726 1332.67 438.893C1287.33 404.866 1270.23 293.749 1255.44 195.897C1253.14 180.325 1250.83 165.714 1248.52 151.296C1237 80.7423 1224.12 16.9173 1194.15 13.8414C1180.13 12.3034 1165.53 18.0708 1150.93 30.7589C1097.13 77.4743 1048.14 215.505 1044.3 332.198C1042.57 385.834 1037.57 436.009 1029.89 480.995C1020.28 536.745 1003.57 581.346 979.168 617.68C961.685 643.825 940.552 664.011 916.344 678.045C892.521 691.886 863.511 700.922 830.081 704.959C754.769 714.187 669.659 702.844 594.539 692.655C553.617 687.08 514.808 681.89 480.034 680.159C421.053 677.083 317.883 691.694 221.821 743.6C168.603 772.436 123.07 809.347 86.9513 853.371C44.4922 904.893 14.7133 966.603 -1.61719 1036.39L-2.57776 1036.2C13.9448 966.218 43.7238 904.508 86.1829 852.794C122.494 808.578 168.027 771.475 221.437 742.639C317.69 690.733 421.052 675.93 480.226 679.006C515.192 680.736 553.809 685.927 594.923 691.502C670.043 701.691 754.961 713.033 830.273 703.805C863.511 699.768 892.329 690.733 916.152 676.891C940.168 663.05 961.301 642.864 978.592 616.911C1002.99 580.769 1019.32 536.169 1029.12 480.61C1037 435.625 1041.8 385.641 1043.53 332.005C1045.45 276.831 1057.75 212.814 1077.54 156.294C1097.9 97.8521 1123.84 53.0592 1150.35 29.9899C1163.41 18.263 1176.67 12.3034 1189.54 12.3034Z" fill="#5F85DB"/>
</g>
<g opacity="0.1429">
<path opacity="0.1429" d="M1183.59 18.4553C1184.74 18.4553 1185.89 18.4553 1187.24 18.6475C1218.17 20.9544 1232.77 81.5114 1245.84 148.605C1248.72 163.215 1251.6 178.402 1254.48 194.359C1271.58 287.02 1290.98 392.178 1336.13 425.628C1387.24 463.5 1436.81 437.355 1484.64 411.979C1521.15 392.755 1555.54 374.491 1590.7 382.373L1590.5 383.335C1555.73 375.453 1521.53 393.524 1485.22 412.748C1437 438.124 1387.24 464.462 1335.56 426.205C1290.02 392.562 1270.62 287.213 1253.52 194.359C1250.64 178.402 1247.76 163.215 1244.87 148.605C1231.81 81.8959 1217.4 21.9157 1187.05 19.6087C1172.44 18.4553 1157.46 24.6071 1142.28 37.8719C1089.26 84.2028 1040.65 215.313 1033.92 330.083C1030.66 385.065 1025.47 437.163 1018.55 484.839C1009.91 543.666 994.539 590.574 972.061 628.446C954.962 657.09 933.828 678.814 909.429 693.232C884.837 707.65 854.482 716.109 819.323 718.608C744.588 723.799 661.591 708.996 588.392 695.923C541.322 687.465 496.942 679.583 458.517 677.468C402.033 674.008 302.13 689.195 206.453 743.215C154.964 772.437 110.968 809.347 75.8092 852.987C34.8871 903.739 5.87659 963.719 -10.0696 1031.2L-11.0303 1031C5.10804 963.527 33.9265 903.355 75.0408 852.41C110.391 808.578 154.387 771.668 206.068 742.447C301.937 688.234 402.033 673.046 458.709 676.507C497.134 678.621 541.514 686.696 588.584 694.962C661.783 708.035 744.78 722.838 819.323 717.647C854.29 715.148 884.453 706.689 908.853 692.463C933.252 678.237 954.193 656.513 971.292 628.061C993.771 590.382 1008.95 543.474 1017.79 484.839C1024.89 437.163 1030.08 385.257 1033.16 330.275C1039.88 215.121 1088.68 83.6261 1141.9 37.2952C1155.73 24.7993 1169.95 18.4553 1183.59 18.4553Z" fill="#5F85DB"/>
</g>
<g opacity="0.1905">
<path opacity="0.1905" d="M1177.82 24.6076C1178.59 24.6076 1179.55 24.6076 1180.32 24.6076C1211.64 26.1455 1227.01 80.5506 1242.38 146.106C1245.83 161.101 1249.29 176.865 1252.94 193.59C1272.15 281.061 1293.86 380.259 1339.01 413.133C1390.12 450.044 1439.49 424.667 1487.33 400.06C1522.68 381.989 1555.92 364.687 1590.12 370.455L1589.93 371.416C1556.11 365.649 1522.87 382.758 1487.72 400.829C1439.69 425.629 1389.93 451.005 1338.44 413.71C1292.9 380.644 1271.19 281.253 1251.98 193.59C1248.33 176.865 1244.87 161.293 1241.41 146.106C1226.05 80.935 1210.87 26.9145 1180.32 25.5688C1146.51 23.8386 1110.39 58.8269 1078.88 123.998C1050.06 183.593 1029.5 259.914 1023.93 328.161C1019.32 384.873 1013.75 438.894 1007.6 488.877C999.725 551.933 986.276 599.802 965.143 639.404C948.62 670.548 927.487 693.809 902.511 708.42C877.151 723.415 845.45 731.297 808.563 732.066C733.059 733.604 650.446 715.34 577.631 699.384C526.143 688.042 477.344 677.276 437.19 674.777C383.011 671.317 285.99 687.081 191.273 743.216C115.961 787.816 18.3628 873.173 -18.5248 1026.2L-19.4854 1026.01C17.018 872.788 114.808 787.24 190.505 742.447C285.605 686.119 382.819 670.355 437.19 674.008C477.536 676.699 526.143 687.465 577.824 698.807C650.638 714.764 733.251 733.027 808.563 731.489C845.258 730.72 876.766 722.838 901.934 708.035C926.718 693.425 947.66 670.355 964.182 639.404C985.316 599.802 998.764 552.125 1006.64 489.261C1012.79 439.278 1018.36 385.065 1022.97 328.545C1028.54 260.106 1049.1 183.786 1078.11 123.998C1108.85 59.7882 1144.2 24.6076 1177.82 24.6076Z" fill="#5F85DB"/>
</g>
<g opacity="0.2381">
<path opacity="0.2381" d="M1172.25 30.7587C1172.64 30.7587 1173.21 30.7587 1173.6 30.7587C1205.1 31.5277 1221.82 82.2801 1239.11 143.798C1243.53 159.37 1247.76 175.903 1252.17 193.397C1273.31 275.485 1297.32 368.531 1342.28 400.636C1393 436.97 1442.38 412.363 1490.21 388.333C1522.68 371.992 1556.3 355.267 1589.35 358.919L1589.16 360.073C1556.5 356.42 1522.88 373.145 1490.6 389.486C1442.57 413.517 1393 438.316 1341.51 401.597C1296.17 369.108 1272.16 275.87 1251.02 193.782C1246.6 176.287 1242.38 159.754 1237.96 144.183C1220.86 83.2412 1204.34 32.6811 1173.6 31.9121C1139.4 31.1431 1103.09 65.3626 1071.2 128.419C1042.38 185.515 1020.86 259.529 1013.75 326.622C1007.22 387.948 1001.26 445.429 996.459 493.49C989.543 560.199 977.439 610.182 958.035 650.938C942.089 684.581 921.147 709.38 895.595 724.375C869.466 739.947 836.421 747.252 797.805 746.291C721.148 744.369 638.151 722.837 564.76 703.613C509.429 689.195 457.172 675.545 415.673 672.469C363.608 668.624 269.66 684.965 175.712 743.215C103.09 788.2 8.9496 873.172 -27.1694 1021.2L-28.13 1021.01C7.98903 872.595 102.321 787.431 175.136 742.254C269.276 683.812 363.608 667.471 415.673 671.316C457.172 674.392 509.621 688.041 564.952 702.459C638.151 721.492 721.148 743.215 797.805 744.945C836.229 745.907 868.89 738.601 895.019 723.03C920.187 708.035 941.128 683.427 957.074 649.977C976.287 609.221 988.582 559.43 995.307 492.913C1000.3 444.852 1006.26 387.371 1012.6 326.045C1019.71 258.76 1041.22 184.554 1070.04 127.457C1101.74 65.1703 1137.86 30.7587 1172.25 30.7587Z" fill="#5F85DB"/>
</g>
<g opacity="0.2857">
<path opacity="0.2857" d="M1166.87 36.9102C1198.77 36.9102 1216.83 84.2024 1235.65 141.491C1241.03 157.64 1246.22 175.134 1251.79 193.589C1274.65 270.102 1300.78 356.997 1345.35 388.332C1396.08 424.09 1445.64 400.059 1493.29 376.606C1524.41 361.418 1556.69 345.654 1588.58 347.385L1588.58 348.538C1557.07 347 1524.8 362.572 1493.87 377.759C1445.84 401.213 1396.08 425.436 1344.78 389.294C1299.82 357.766 1273.89 270.679 1250.83 193.974C1245.26 175.518 1240.07 158.216 1234.69 142.068C1216.06 85.3558 1198 38.256 1166.87 38.256C1132.29 38.256 1095.6 71.8988 1063.32 132.84C1034.5 187.437 1012.21 259.337 1003.57 325.084C996.076 382.373 989.928 440.431 985.125 497.912C979.169 569.426 968.603 620.179 950.735 662.28C935.558 698.422 914.616 724.567 888.487 740.139C861.398 756.288 827.2 763.208 786.855 760.517C708.277 755.326 624.319 730.142 550.16 708.034C491.562 690.54 436.231 674.007 394.156 670.547C344.204 666.51 253.138 683.427 160.343 743.792C90.4104 789.354 -0.271472 873.749 -35.6219 1016.97L-36.7747 1016.78C-1.23204 872.787 89.642 788.2 159.767 742.446C252.754 681.889 344.204 665.164 394.348 669.009C436.615 672.277 491.947 689.002 550.544 706.496C624.703 728.604 708.661 753.788 787.047 758.979C827.2 761.67 861.206 754.942 888.103 738.793C913.848 723.414 934.789 697.269 949.967 661.511C967.834 619.41 978.401 568.85 984.165 497.527C988.968 440.046 995.116 381.796 1002.61 324.7C1011.06 258.76 1033.54 186.861 1062.36 132.071C1094.64 70.7453 1131.71 36.9102 1166.87 36.9102C1166.68 36.9102 1166.68 36.9102 1166.87 36.9102Z" fill="#5F85DB"/>
</g>
<g opacity="0.3333">
<path opacity="0.3333" d="M1160.92 42.87C1192.62 42.87 1211.25 84.5869 1232.19 138.992C1238.73 155.717 1245.07 174.173 1251.79 193.782C1276.38 264.72 1304.24 345.27 1348.24 375.837C1399.15 411.017 1448.72 387.371 1496.75 364.687C1526.53 350.653 1557.27 336.042 1587.81 335.658L1587.81 336.811C1557.46 337.003 1526.91 351.614 1497.13 365.648C1448.72 388.525 1398.76 412.363 1347.47 376.798C1303.09 346.039 1275.23 265.489 1250.64 194.166C1243.91 174.557 1237.57 156.294 1231.04 139.376C1210.29 85.3559 1191.85 44.0234 1160.92 44.0234C1160.53 44.0234 1160.34 44.0234 1159.96 44.0234C1124.99 44.9846 1087.91 77.8584 1055.44 136.685C1026.43 188.975 1003.38 258.568 993.578 322.97C984.548 381.604 978.208 441.776 974.173 501.949C970.523 558.853 964.375 619.218 943.818 673.238C929.217 711.687 908.467 739.37 881.762 755.326C854.289 771.859 817.785 778.396 776.287 773.974C695.403 765.515 609.909 736.679 534.405 711.495C470.428 689.963 415.097 671.508 372.83 667.855C309.621 662.473 220.284 692.078 145.165 743.407C77.9218 789.354 -9.30199 873.172 -43.884 1011.59L-45.0367 1011.4C-30.6276 953.146 -5.26745 899.509 30.2753 851.641C61.3991 809.731 99.8236 772.821 144.396 742.446C219.708 690.925 309.429 661.127 372.83 666.702C415.289 670.355 470.62 689.002 534.789 710.534C610.293 735.718 695.788 764.554 776.479 773.013C817.785 777.435 853.905 770.898 881.186 754.557C907.699 738.601 928.448 711.11 942.857 673.046C963.222 619.025 969.37 559.045 973.02 502.141C976.863 441.969 983.395 381.796 992.425 323.162C1002.22 258.568 1025.47 188.783 1054.48 136.493C1087.14 77.2816 1124.61 44.2157 1159.96 43.2545C1160.15 42.87 1160.53 42.87 1160.92 42.87Z" fill="#5F85DB"/>
</g>
<g opacity="0.381">
<path opacity="0.381" d="M1155.15 49.0225C1186.47 49.0225 1206.26 87.0868 1228.74 136.686C1236.61 153.988 1244.3 173.597 1252.56 194.359C1278.5 259.722 1307.89 333.928 1351.12 363.342C1402.22 398.138 1452.17 374.876 1500.78 352.384C1528.83 339.311 1558.03 325.854 1587.04 323.932L1587.04 325.085C1558.23 327.007 1529.22 340.464 1501.17 353.537C1452.37 376.03 1402.03 399.483 1350.54 364.303C1306.93 334.697 1277.54 260.299 1251.41 194.744C1243.15 173.981 1235.46 154.564 1227.58 137.262C1205.3 88.0479 1185.7 50.3681 1154.96 50.3681C1154.39 50.3681 1153.62 50.3681 1153.04 50.3681C1117.69 52.2905 1080.23 84.3953 1047.37 141.107C1017.98 191.86 994.539 257.607 983.204 321.625C972.637 381.22 965.913 443.507 962.839 506.563C959.573 576.348 953.809 633.444 936.71 684.774C923.069 725.529 902.128 754.75 874.847 771.283C838.92 793.007 795.692 792.43 765.529 788.201C682.148 776.474 594.732 743.985 517.499 715.533C451.024 690.925 393.58 669.586 351.313 665.741C290.602 659.974 203.571 690.733 129.603 743.792C86.9522 774.552 50.0647 811.078 19.9014 852.603C-14.1042 899.51 -38.5039 951.416 -52.5288 1007.17L-53.6815 1006.97C-39.6565 951.224 -15.0649 898.933 18.9408 852.026C49.104 810.501 86.1837 773.783 128.835 743.023C202.994 689.772 290.218 659.013 351.313 664.78C393.772 668.817 451.217 689.964 517.883 714.764C594.924 743.216 682.34 775.705 765.529 787.432C795.5 791.661 838.536 792.238 874.078 770.707C901.168 754.366 921.917 725.337 935.557 684.774C952.656 633.637 958.42 576.732 961.686 506.948C964.568 443.892 971.484 381.605 982.051 321.817C1004.53 194.167 1076.38 53.6362 1152.85 49.7914C1153.81 49.0224 1154.39 49.0225 1155.15 49.0225Z" fill="#5F85DB"/>
</g>
<g opacity="0.4286">
<path opacity="0.4286" d="M1149.58 54.9821C1180.71 54.9821 1201.46 89.3938 1225.28 134.187C1234.69 152.065 1244.11 172.828 1254.1 194.744C1281.19 254.724 1311.93 322.586 1354.19 350.846C1405.68 385.257 1456.4 362.38 1505.59 340.08C1531.91 328.161 1559.19 315.857 1586.28 312.205L1586.47 313.358C1559.38 317.011 1532.29 329.314 1505.97 341.041C1456.59 363.534 1405.49 386.603 1353.42 351.807C1310.77 323.355 1280.03 255.3 1252.94 195.128C1242.95 173.212 1233.73 152.45 1224.32 134.763C1199.92 88.817 1178.78 53.8286 1146.51 56.3278C1121.34 58.2502 1082.15 75.1677 1039.69 145.145C1010.1 193.782 985.894 257.415 973.406 319.702C961.302 380.259 954.193 444.469 952.08 510.6C950.159 575.771 946.893 638.827 929.986 695.732C917.114 738.986 896.365 769.553 868.123 786.663C831.235 809.156 786.086 807.425 754.962 802.043C668.699 787.047 579.17 750.906 500.208 718.993C431.62 691.31 372.254 667.472 330.18 663.242C271.582 657.283 187.048 688.811 114.618 743.793C27.2023 809.348 -34.8533 901.24 -60.7899 1001.78L-61.9426 1001.4C-36.0061 900.471 26.2416 808.579 113.657 742.255C186.28 687.273 271.198 655.552 329.987 661.512C372.254 665.741 431.62 689.772 500.4 717.455C579.362 749.368 668.891 785.317 754.962 800.312C786.086 805.695 830.659 807.425 867.354 785.125C895.212 768.208 915.769 737.833 928.641 694.963C945.548 638.251 948.814 575.194 950.735 510.216C952.849 444.084 959.957 379.682 972.061 319.125C997.037 193.782 1069.08 60.7494 1146.32 54.9821C1147.28 54.9821 1148.43 54.9821 1149.58 54.9821Z" fill="#5F85DB"/>
</g>
<g opacity="0.4762">
<path opacity="0.4762" d="M1144.2 60.941C1175.13 60.941 1196.84 91.7001 1221.82 131.879C1233.15 150.142 1244.49 172.058 1256.4 195.127C1284.26 249.533 1315.96 311.243 1357.27 338.349C1409.52 372.569 1458.9 350.653 1511.16 327.199C1535.36 316.433 1560.34 305.283 1585.51 300.285L1585.7 301.438C1560.72 306.245 1535.75 317.395 1511.73 328.16C1461.4 350.653 1409.33 373.722 1356.69 339.118C1315.19 311.82 1283.49 249.917 1255.44 195.32C1243.53 172.058 1232.39 150.142 1221.05 132.071C1195.11 90.3544 1172.64 58.6341 1139.78 61.9022C1114.23 64.4014 1074.65 81.5111 1031.62 148.797C1001.65 195.512 976.863 256.838 963.414 317.395C949.774 378.72 942.281 445.045 941.128 514.445C940.168 579.039 939.207 645.748 923.069 706.497C910.965 752.059 890.216 783.971 861.397 801.657C823.357 824.919 776.671 821.843 744.395 815.307C655.25 796.851 563.223 757.057 482.147 721.876C411.638 691.309 350.543 664.78 308.853 660.166C251.6 654.014 171.293 685.734 99.4392 743.023C15.866 809.924 -43.884 899.894 -69.0521 996.977L-70.205 996.593C-44.8447 899.317 15.0974 808.963 98.4787 742.446C170.525 684.965 251.216 653.053 308.853 659.205C350.736 663.818 411.831 690.348 482.34 720.915C563.415 756.096 655.25 796.082 744.395 814.346C776.479 820.882 822.781 823.958 860.629 800.889C889.255 783.394 909.812 751.674 921.724 706.304C937.67 645.748 938.823 579.039 939.783 514.637C940.936 445.237 948.237 378.913 962.07 317.395C975.518 256.646 1000.49 195.127 1030.47 148.412C1073.69 80.9344 1113.65 63.6325 1139.59 61.1333C1141.13 60.9411 1142.66 60.941 1144.2 60.941Z" fill="#5F85DB"/>
</g>
<g opacity="0.5238">
<path opacity="0.5238" d="M1139.21 66.7082C1169.75 66.7082 1192.43 94.0069 1218.36 129.188C1231.81 147.643 1245.26 170.712 1259.48 195.127C1287.91 244.149 1320.19 299.9 1360.15 325.661C1413.37 360.073 1464.28 337.58 1518.07 313.742C1539.78 304.13 1562.07 294.325 1584.55 288.366L1584.93 289.519C1562.45 295.286 1540.17 305.283 1518.46 314.703C1464.28 338.541 1413.17 361.226 1359.38 326.43C1319.23 300.477 1286.76 244.726 1258.32 195.512C1244.11 171.097 1230.85 148.027 1217.4 129.572C1189.93 92.0844 1166.1 63.8245 1132.68 67.8617C1106.74 71.1298 1066.78 88.4317 1023.17 152.641C993.002 197.242 967.258 256.645 952.849 315.28C937.479 377.375 929.794 445.813 929.602 518.289L929.602 525.403C929.602 593.457 929.41 657.859 915.577 717.262C904.434 765.131 883.684 798.581 854.098 816.845C832.388 830.109 793.963 842.99 733.253 828.764C640.842 807.04 546.317 763.208 462.936 724.567C390.698 691.117 328.258 662.088 287.144 657.282C231.813 650.746 153.811 683.427 83.6863 742.638C4.33962 809.347 -52.9128 897.779 -77.6967 991.21L-78.8495 990.825C-53.8735 897.01 3.57118 808.578 82.9177 741.485C153.235 682.274 231.621 649.4 287.144 655.936C328.45 660.742 391.082 689.771 463.32 723.222C546.702 761.863 641.034 805.694 733.445 827.418C793.771 841.644 832.003 828.764 853.329 815.691C882.724 797.62 903.089 764.362 914.232 716.878C928.065 657.474 928.065 593.265 928.257 525.21L928.257 518.097C928.257 445.429 936.134 376.99 951.504 314.703C965.913 255.876 991.657 196.473 1022.01 151.68C1056.59 100.351 1094.83 70.9375 1132.29 66.3236C1134.79 66.9004 1137.09 66.7082 1139.21 66.7082Z" fill="#5F85DB"/>
</g>
<g opacity="0.5714">
<path opacity="0.5714" d="M1134.21 72.6683C1164.76 72.6683 1188.97 97.2755 1214.9 126.881C1230.85 145.144 1246.79 169.559 1263.51 195.128C1293.67 241.266 1324.6 288.943 1363.22 313.358C1418.17 348.154 1471 324.7 1527.1 299.901C1545.54 291.634 1564.76 283.176 1583.97 277.024L1584.35 278.177C1565.14 284.329 1546.12 292.98 1527.49 301.054C1471.19 326.046 1417.98 349.692 1362.45 314.319C1323.64 289.712 1292.52 242.035 1262.36 195.705C1245.64 170.136 1229.89 145.721 1213.94 127.65C1198 109.579 1185.51 96.3143 1172.06 86.8944C1156.3 75.9364 1141.7 71.8993 1125.95 74.2063C1045.07 85.9331 972.635 203.779 942.856 313.935C925.95 376.798 917.688 447.16 918.649 522.904C918.649 529.44 918.841 535.784 918.841 542.321C919.802 608.068 920.57 670.163 908.659 728.797C898.476 778.973 877.727 813.961 847.371 832.801C825.085 846.643 785.316 859.523 722.684 842.99C626.815 817.806 529.601 770.13 443.914 727.836C370.139 691.502 306.355 660.358 265.817 655.168C211.638 648.439 137.863 681.121 68.5067 742.831C-5.65257 808.963 -61.9445 897.78 -85.9598 986.597L-87.1125 986.212C-63.0972 897.203 -6.61314 808.002 67.7382 741.87C137.287 679.967 211.446 647.094 266.009 653.822C306.739 658.82 370.523 690.156 444.491 726.49C530.177 768.592 627.391 816.268 723.068 841.452C785.316 857.793 824.701 844.913 846.795 831.263C876.958 812.616 897.323 778.012 907.506 728.028C919.418 669.394 918.649 607.491 917.688 541.744C917.688 535.4 917.496 528.863 917.496 522.327C916.536 446.391 924.605 375.837 941.704 312.973C971.483 202.433 1044.3 84.2029 1125.76 72.2838C1128.64 72.8606 1131.52 72.6683 1134.21 72.6683Z" fill="#5F85DB"/>
</g>
<g opacity="0.619">
<path opacity="0.619" d="M1130.18 78.4354C1160.34 78.4354 1185.12 99.39 1211.64 124.574C1230.46 142.453 1249.1 167.829 1268.7 194.743C1298.67 235.691 1329.6 278.177 1366.49 301.054C1424.12 336.812 1480.03 311.435 1539.2 284.521C1553.61 277.985 1568.6 271.256 1583.39 265.297L1583.78 266.45C1568.79 272.217 1554 279.138 1539.59 285.482C1480.03 312.396 1423.74 337.965 1365.72 301.823C1328.64 278.754 1297.71 236.268 1267.54 195.128C1247.95 168.406 1229.5 143.029 1210.68 125.151C1181.28 97.0831 1154 74.3983 1119.23 80.3579C1080.99 86.702 1042.18 114.77 1007.03 161.293C975.517 203.01 949.197 256.453 932.866 312.204C914.23 375.645 905.777 447.929 907.698 527.325C907.89 537.322 908.275 547.319 908.467 557.315C910.388 621.333 912.117 681.889 901.742 740.139C892.328 792.622 871.771 828.956 840.647 848.373C797.036 875.479 741.32 865.483 712.117 857.024C612.79 828.379 512.694 776.474 424.51 730.719C349.39 691.886 284.453 658.243 244.683 652.861C192.234 645.94 120.764 679.583 53.5214 743.023C-16.9875 809.539 -70.7819 896.626 -94.413 982.175L-95.5658 981.79C-71.9347 896.049 -17.9482 808.771 52.3686 742.254C119.804 678.621 191.658 644.786 244.491 651.707C284.645 657.09 349.582 690.733 424.702 729.566C512.886 775.32 612.982 827.034 712.117 855.678C741.128 864.137 796.459 874.134 839.687 847.219C870.618 827.995 890.983 791.853 900.205 739.755C910.58 681.697 908.851 621.14 906.93 557.123C906.545 547.319 906.353 537.322 906.161 527.133C904.24 447.736 912.693 375.26 931.329 311.627C947.66 255.684 974.173 202.048 1005.68 160.331C1041.03 113.616 1080.22 85.3562 1118.65 79.0122C1122.68 78.6277 1126.53 78.4354 1130.18 78.4354Z" fill="#5F85DB"/>
</g>
<g opacity="0.6667">
<path opacity="0.6667" d="M1126.33 84.0105C1156.31 84.0105 1182.05 101.889 1207.99 122.075C1230.08 139.184 1251.6 165.714 1274.27 193.59C1303.66 229.731 1334.21 267.219 1369.18 288.558C1430.66 326.046 1491.37 297.017 1555.73 266.258C1564.37 262.029 1573.4 257.799 1582.43 253.57L1583.01 254.723C1573.98 258.76 1564.95 263.182 1556.3 267.411C1491.75 298.363 1430.66 327.391 1368.6 289.519C1333.44 267.988 1302.9 230.5 1273.31 194.166C1250.64 166.291 1229.31 139.953 1207.22 122.844C1177.63 99.7744 1148.04 79.5888 1112.31 86.3173C1073.5 93.6226 1034.12 120.729 998.573 165.137C966.681 205.124 939.591 256.646 922.493 310.282C902.128 374.299 893.29 448.697 896.364 531.362C896.94 544.627 897.517 557.7 898.093 570.58C900.975 633.444 903.472 693.04 894.635 751.097C886.181 805.887 865.624 843.759 833.732 863.752C788.775 891.82 731.523 880.093 701.359 870.673C598.382 838.376 490.793 780.126 404.338 733.026C328.065 691.694 262.167 655.936 222.974 650.361C196.846 646.709 166.682 653.437 133.445 670.547C102.129 686.696 69.2763 711.687 37.9602 742.831C-28.1299 808.963 -79.4265 894.319 -102.673 976.792L-103.826 976.407C-80.3872 893.742 -29.0904 808.194 37.1918 741.87C103.282 676.122 171.293 642.287 223.166 649.592C262.552 655.168 328.45 690.925 404.914 732.45C491.37 779.357 598.766 837.799 701.552 869.904C731.523 879.324 788.391 890.859 832.963 863.176C864.664 843.375 885.029 805.695 893.29 751.482C902.128 693.616 899.63 634.213 896.748 571.349C896.172 558.469 895.595 545.396 895.019 532.131C891.945 449.274 900.783 374.683 921.148 310.474C938.247 256.646 965.336 204.932 997.42 164.945C1033.16 120.345 1072.73 93.0459 1111.93 85.7407C1116.92 84.3949 1121.72 84.0105 1126.33 84.0105Z" fill="#5F85DB"/>
</g>
<g opacity="0.7143">
<path opacity="0.7143" d="M1123.65 89.5852C1153.23 89.5852 1179.74 104.196 1204.53 119.768C1230.08 135.724 1254.86 163.023 1280.8 191.859C1309.43 223.579 1339.01 256.453 1372.25 276.254C1403.38 294.71 1435.84 298.939 1474.46 289.135C1509.04 280.484 1544.2 261.836 1581.47 242.227L1581.86 242.035L1582.43 243.188L1582.05 243.381C1509.23 281.829 1440.26 318.164 1371.68 277.215C1338.44 257.414 1308.66 224.541 1280.03 192.628C1254.1 163.791 1229.5 136.685 1203.95 120.729C1174.37 102.273 1142.28 84.9714 1105.78 92.6612C1041.99 105.926 957.651 177.825 912.694 308.743C890.216 374.106 881.378 448.313 885.605 535.976C886.374 551.932 887.334 568.081 888.295 583.46C891.945 645.747 895.596 704.382 887.911 762.632C880.418 819.728 860.053 858.946 827.008 879.708C780.898 908.545 721.725 895.472 690.793 884.899C584.165 849.142 473.31 786.278 384.357 735.718C307.124 691.886 240.266 654.014 201.841 648.246C151.697 640.749 86.5675 675.353 22.7829 743.215C-38.3121 808.194 -88.264 893.934 -110.935 972.37L-112.279 971.985C-89.4167 893.358 -39.2727 807.425 21.8222 742.254C85.799 674.199 151.505 639.403 202.033 646.901C240.65 652.668 307.508 690.54 384.934 734.372C473.887 784.74 584.741 847.604 691.177 883.361C722.109 893.742 780.706 906.815 826.431 878.17C858.9 857.793 879.265 818.767 886.566 762.055C894.251 703.997 890.6 645.363 886.95 583.268C885.989 567.696 885.029 551.74 884.26 535.784C880.034 448.12 888.871 373.53 911.35 308.167C929.217 256.261 956.883 206.662 989.543 168.405C1025.47 126.112 1065.62 99.3897 1105.39 91.1232C1111.54 90.1619 1117.69 89.5852 1123.65 89.5852Z" fill="#5F85DB"/>
</g>
<g opacity="0.7619">
<path opacity="0.7619" d="M1122.49 94.7766C1151.31 94.7766 1177.82 106.119 1200.88 117.269C1230.46 131.495 1258.32 159.563 1287.91 189.168C1315.57 216.852 1344.01 245.496 1375.13 263.567C1438.34 300.67 1500.78 278.37 1580.9 230.309L1581.66 231.462C1501.16 279.715 1438.34 302.016 1374.56 264.72C1343.43 246.457 1314.81 217.813 1287.14 190.13C1257.55 160.524 1229.7 132.456 1200.49 118.423C1164.18 100.928 1133.06 90.9317 1098.86 98.8137C1058.51 108.041 1018.17 133.802 982.242 173.597C949.005 210.123 920.763 257.607 902.511 307.206C878.304 372.954 869.082 449.275 874.461 540.398C875.614 558.854 876.959 577.501 878.303 595.38C882.914 657.091 887.141 715.533 880.801 773.975C874.269 833.378 853.904 874.134 820.09 895.281C772.636 925.079 711.925 910.276 680.033 898.934C569.563 859.331 455.442 792.046 363.607 738.025C282.147 689.964 217.978 652.092 180.322 646.133C154.77 642.095 126.144 649.401 94.8279 667.856C66.5858 684.581 36.2305 710.726 7.41213 743.6C-49.4562 808.002 -96.9105 892.013 -119.581 967.949L-120.734 967.18C-98.0632 891.051 -50.6089 807.041 6.45156 742.447C68.8914 671.509 130.755 636.905 180.515 644.595C218.363 650.554 282.724 688.618 364.184 736.679C455.826 790.7 569.947 857.986 680.417 897.588C712.117 908.93 772.444 923.733 819.322 894.127C852.751 873.173 872.924 832.609 879.456 773.783C885.796 715.533 881.57 657.283 876.959 595.572C875.614 577.694 874.269 559.046 873.116 540.591C867.737 449.275 876.959 372.762 901.166 306.822C919.418 257.031 947.852 209.546 981.281 172.828C1017.59 132.841 1058.13 106.888 1098.67 97.6603C1106.74 95.7378 1114.81 94.7766 1122.49 94.7766Z" fill="#5F85DB"/>
</g>
<g opacity="0.8095">
<path opacity="0.8095" d="M1124.03 99.775C1149.97 99.775 1174.37 106.888 1197.42 114.962C1231.04 126.881 1262.36 155.526 1295.6 185.9C1321.92 209.931 1349.01 234.73 1378.02 251.263C1408.76 268.95 1440.84 274.14 1475.81 267.027C1506.74 260.876 1539.98 245.496 1579.94 218.582L1580.71 219.735C1540.36 246.65 1507.12 262.029 1476 268.373C1440.65 275.486 1408.37 270.103 1377.44 252.417C1348.43 235.884 1321.15 210.892 1294.83 186.862C1261.78 156.487 1230.47 128.035 1197.04 116.116C1164.76 104.773 1129.6 95.5456 1091.95 104.966C1010.68 125.151 932.292 203.779 892.138 305.476C866.009 371.416 856.595 449.659 863.127 544.628C864.472 565.39 866.393 586.345 868.123 606.53C873.502 668.241 878.689 726.299 873.502 785.125C867.93 846.643 847.565 888.937 812.983 910.853C764.376 941.612 701.937 925.271 668.891 912.775C554.386 869.52 436.808 797.621 342.283 739.756C260.055 689.58 195.117 649.785 158.422 643.633C110.583 635.559 51.2174 671.124 -8.34056 743.408C-60.0215 806.08 -105.939 890.09 -128.417 962.759L-129.762 962.374C-107.284 889.514 -61.3663 805.311 -9.49314 742.447C50.449 669.779 110.199 634.214 158.614 642.288C195.502 648.44 260.631 688.234 342.86 738.602C437.192 796.275 554.771 868.175 669.084 911.43C701.744 923.733 763.8 940.074 811.831 909.699C846.028 888.168 866.201 846.067 871.773 784.933C877.152 726.298 871.965 668.241 866.393 606.53C864.664 586.345 862.743 565.39 861.398 544.628C854.866 449.467 864.28 371.031 890.409 304.707C930.755 202.626 1009.52 123.613 1091.18 103.428C1102.7 100.928 1113.46 99.775 1124.03 99.775Z" fill="#5F85DB"/>
</g>
<g opacity="0.8571">
<path opacity="0.8571" d="M1130.18 103.812C1153.23 103.812 1174.75 107.849 1194.15 112.463C1232 121.498 1266.97 150.527 1304.05 181.478C1328.83 202.241 1354.58 223.772 1381.47 238.767C1441.61 272.602 1504.62 262.413 1579.36 207.047L1580.13 208.2C1505.01 263.951 1441.41 274.14 1380.51 240.113C1353.61 225.118 1327.87 203.586 1302.89 182.824C1266.01 152.065 1231.23 122.844 1193.58 114.001C1162.26 106.695 1124.8 100.543 1085.03 111.117C1042.95 122.267 1001.45 146.682 965.335 181.67C930.176 215.505 901.358 257.799 881.954 303.745C854.096 369.877 844.298 450.235 851.983 549.049C853.712 571.926 856.209 594.995 858.515 617.296C864.855 679.006 870.811 737.064 866.584 796.467C861.973 860.292 841.608 904.124 806.257 926.616C756.498 958.144 692.329 940.266 658.323 926.809C539.783 879.516 418.746 803.003 321.34 741.485C238.535 689.003 173.022 647.67 137.287 641.326C112.503 636.904 85.2215 644.786 56.0188 664.395C30.0823 681.89 3.37722 708.611 -23.5199 743.408C-70.59 804.733 -114.01 886.822 -136.68 957.952L-138.025 957.568C-114.97 886.053 -71.5505 803.772 -24.2883 742.254C2.60879 707.266 29.506 680.544 55.4425 663.05C84.8373 643.056 112.503 635.366 137.671 639.788C173.79 646.132 239.304 687.657 322.301 740.139C419.515 801.658 540.552 878.171 659.091 925.271C692.713 938.728 756.306 956.414 805.681 925.271C840.647 902.97 860.628 859.523 865.239 796.083C869.466 736.871 863.51 678.814 857.17 617.296C854.864 594.995 852.559 571.926 850.638 549.049C842.761 450.043 852.751 369.493 880.609 303.169C900.013 257.03 929.024 214.736 964.374 180.709C1000.88 145.721 1042.38 121.114 1084.64 109.771C1100.4 105.542 1115.57 103.812 1130.18 103.812Z" fill="#5F85DB"/>
</g>
<g opacity="0.9048">
<path opacity="0.9048" d="M1144.2 106.887C1158.61 106.887 1173.98 108.041 1190.5 109.963C1232.77 115.346 1271.39 144.952 1312.12 176.287C1335.36 194.166 1359.38 212.622 1384.16 226.079C1448.14 260.875 1510 251.07 1578.59 195.127L1579.55 196.473C1510.39 252.801 1448.14 262.797 1383.59 227.617C1358.8 214.159 1334.59 195.512 1311.35 177.633C1270.81 146.49 1232.39 116.884 1190.5 111.501C1146.89 105.926 1111.35 107.656 1078.5 117.076C991.08 142.068 912.117 212.814 871.964 301.823C841.8 369.108 832.002 448.889 841.032 553.086C843.145 577.885 846.027 603.069 848.909 627.292C855.825 686.311 862.742 747.445 859.476 807.425C855.825 872.595 835.076 919.119 799.341 941.803C777.439 955.645 728.64 974.1 647.564 940.265C524.99 889.128 400.303 807.809 300.207 742.446C216.826 688.041 150.736 644.978 115.769 638.442C57.5562 627.484 -0.46482 689.195 -38.8894 742.831C-89.4176 813.384 -127.65 899.894 -145.133 952.569L-146.478 952.184C-128.995 899.51 -90.5703 812.807 -40.0421 742.062C-1.42539 688.041 56.9799 626.138 115.961 637.096C151.12 643.633 217.21 686.695 300.783 741.293C400.879 806.656 525.375 887.783 647.949 938.92C728.256 972.37 776.671 954.299 798.381 940.458C843.145 912.005 855.441 852.218 857.939 807.232C861.205 747.445 854.096 686.503 847.372 627.292C844.49 603.069 841.608 577.885 839.495 553.086C830.273 448.697 840.263 368.531 870.427 301.054C910.58 211.853 989.927 140.722 1077.73 115.538C1098.67 109.771 1120.19 106.887 1144.2 106.887Z" fill="#5F85DB"/>
</g>
<g opacity="0.9524">
<path opacity="0.9524" d="M1173.79 107.464C1178.21 107.464 1182.63 107.464 1187.05 107.656C1233.92 109.002 1277.92 140.338 1320.57 170.52C1342.28 185.9 1364.57 201.664 1387.24 213.775C1454.29 249.34 1514.81 239.728 1577.82 183.593L1578.78 184.746C1515.19 241.458 1454.1 251.071 1386.47 215.121C1363.61 203.01 1341.32 187.053 1319.61 171.674C1275.23 140.146 1233.35 110.348 1186.85 109.002C1144.2 107.849 1106.35 112.463 1071.58 123.036C1027.01 136.685 984.548 159.562 948.621 189.36C911.157 220.504 881.955 257.607 861.782 299.901C829.505 367.378 819.323 449.082 829.89 557.315C832.387 584.23 836.038 611.528 839.304 638.058C846.796 697.077 854.673 758.21 852.368 818.575C849.678 886.053 828.929 934.114 792.426 957.375C769.947 971.601 719.995 990.249 636.806 954.299C510.198 899.125 382.244 813.192 279.266 744.177C195.117 687.657 128.45 643.056 94.4445 636.328C49.4878 627.484 -1.80881 664.395 -54.0661 743.215C-97.4859 808.963 -133.797 892.205 -153.202 947.955L-154.546 947.571C-135.142 891.628 -98.8308 808.386 -55.0268 742.254C-30.8193 705.728 -6.61203 677.852 16.8269 659.589C44.1083 638.25 70.4292 629.984 95.0209 634.79C129.411 641.518 196.077 686.119 280.419 742.831C383.205 811.847 511.158 897.78 637.767 952.954C720.38 988.711 769.755 970.256 792.041 956.222C837.767 927.193 849.486 865.29 851.407 818.575C853.713 758.403 845.836 697.461 838.343 638.25C834.885 611.913 831.426 584.614 828.929 557.508C818.362 449.082 828.545 367.186 860.821 299.516C881.186 257.03 910.389 219.735 948.045 188.399C983.972 158.409 1026.62 135.532 1071.39 121.883C1102.7 112.27 1136.33 107.464 1173.79 107.464Z" fill="#5F85DB"/>
</g>
<path d="M1190.89 105.157C1239.49 105.157 1284.83 135.147 1329.02 164.176C1366.49 188.783 1405.3 214.352 1445.83 221.657C1491.37 229.731 1534.21 213.583 1577.05 172.058L1578.01 173.019C1481.57 266.258 1403.57 214.929 1328.06 165.33C1234.31 103.619 1208.37 105.157 1183.39 106.887C1114.23 111.309 1047.37 130.149 990.119 161.1C927.871 194.935 880.033 242.419 851.598 298.362C806.642 386.602 811.445 490.991 818.745 561.737C821.819 590.189 825.854 619.026 829.696 646.709C838.15 706.497 846.795 768.399 845.45 829.725C844.298 878.363 832.962 942.572 785.508 972.755C762.453 987.365 711.349 1006.4 626.046 967.949C494.635 908.545 362.646 817.421 256.403 744.176C172.445 686.119 105.971 640.365 72.9257 633.636C28.3532 624.601 -19.4852 661.319 -69.4371 742.831C-109.207 807.809 -141.675 887.591 -161.848 942.957L-163.193 942.38C-143.02 887.014 -110.359 807.232 -70.5899 742.062C-20.2538 659.974 28.1612 622.87 73.31 632.098C106.739 639.019 173.214 684.773 257.363 742.831C363.415 816.076 495.403 907.199 626.623 966.411C711.157 1004.47 761.877 985.827 784.74 971.409C831.618 941.419 842.761 877.594 843.913 829.533C845.45 768.207 836.613 706.497 828.159 646.709C824.317 618.833 820.09 589.997 817.208 561.545C801.647 413.324 828.544 339.887 850.253 297.401C878.88 241.266 926.91 193.589 989.542 159.562C1046.99 128.419 1114.04 109.579 1183.39 105.157C1186.08 105.157 1188.39 105.157 1190.89 105.157Z" fill="#5F85DB"/>
</g>
<defs>
<clipPath id="clip0_972:10899">
<rect width="1756" height="1046" fill="white" transform="translate(1593 1046) rotate(-180)"/>
</clipPath>
</defs>
</svg>
