<svg width="476" height="98" viewBox="0 0 476 98" fill="none" xmlns="http://www.w3.org/2000/svg">
<path fill-rule="evenodd" clip-rule="evenodd" d="M22 43.5C33.8741 43.5 43.5 33.8741 43.5 22C43.5 10.1259 33.8741 0.5 22 0.5C10.1259 0.5 0.5 10.1259 0.5 22C0.5 33.8741 10.1259 43.5 22 43.5ZM22 44C34.1503 44 44 34.1503 44 22C44 9.84974 34.1503 0 22 0C9.84974 0 0 9.84974 0 22C0 34.1503 9.84974 44 22 44Z" fill="#5F85DB"/>
<path d="M23.1519 21.2798H26.1255V22.5615H23.1519V25.9307H21.7896V22.5615H18.8159V21.2798H21.7896V18.167H23.1519V21.2798Z" fill="#F3F5F8"/>
<path fill-rule="evenodd" clip-rule="evenodd" d="M76 43.5C87.8741 43.5 97.5 33.8741 97.5 22C97.5 10.1259 87.8741 0.5 76 0.5C64.1259 0.5 54.5 10.1259 54.5 22C54.5 33.8741 64.1259 43.5 76 43.5ZM76 44C88.1503 44 98 34.1503 98 22C98 9.84974 88.1503 0 76 0C63.8497 0 54 9.84974 54 22C54 34.1503 63.8497 44 76 44Z" fill="#5F85DB"/>
<path d="M78.2725 23.0229H74.6982V21.917H78.2725V23.0229Z" fill="#F3F5F8"/>
<path fill-rule="evenodd" clip-rule="evenodd" d="M130 43.5C141.874 43.5 151.5 33.8741 151.5 22C151.5 10.1259 141.874 0.5 130 0.5C118.126 0.5 108.5 10.1259 108.5 22C108.5 33.8741 118.126 43.5 130 43.5ZM130 44C142.15 44 152 34.1503 152 22C152 9.84974 142.15 0 130 0C117.85 0 108 9.84974 108 22C108 34.1503 117.85 44 130 44Z" fill="#F3F5F8"/>
<path d="M131.628 27.0005H130.266V17.9697L127.534 18.9731V17.7427L131.416 16.2852H131.628V27.0005Z" fill="#F3F5F8"/>
<path fill-rule="evenodd" clip-rule="evenodd" d="M184 43.5C195.874 43.5 205.5 33.8741 205.5 22C205.5 10.1259 195.874 0.5 184 0.5C172.126 0.5 162.5 10.1259 162.5 22C162.5 33.8741 172.126 43.5 184 43.5ZM184 44C196.15 44 206 34.1503 206 22C206 9.84974 196.15 0 184 0C171.85 0 162 9.84974 162 22C162 34.1503 171.85 44 184 44Z" fill="#F3F5F8"/>
<path d="M188.162 27H181.175V26.0259L184.866 21.9243C185.413 21.3042 185.789 20.8013 185.994 20.4155C186.204 20.0249 186.309 19.6221 186.309 19.207C186.309 18.6504 186.141 18.1938 185.804 17.8374C185.467 17.481 185.018 17.3027 184.456 17.3027C183.782 17.3027 183.257 17.4956 182.881 17.8813C182.51 18.2622 182.325 18.7944 182.325 19.478H180.97C180.97 18.4966 181.285 17.7031 181.915 17.0977C182.549 16.4922 183.396 16.1895 184.456 16.1895C185.447 16.1895 186.231 16.4507 186.807 16.9731C187.383 17.4907 187.671 18.1816 187.671 19.0459C187.671 20.0957 187.002 21.3457 185.665 22.7959L182.808 25.894H188.162V27Z" fill="#F3F5F8"/>
<path fill-rule="evenodd" clip-rule="evenodd" d="M238 43.5C249.874 43.5 259.5 33.8741 259.5 22C259.5 10.1259 249.874 0.5 238 0.5C226.126 0.5 216.5 10.1259 216.5 22C216.5 33.8741 226.126 43.5 238 43.5ZM238 44C250.15 44 260 34.1503 260 22C260 9.84974 250.15 0 238 0C225.85 0 216 9.84974 216 22C216 34.1503 225.85 44 238 44Z" fill="#F3F5F8"/>
<path d="M237.145 21.0088H238.163C238.803 20.999 239.306 20.8306 239.672 20.5034C240.038 20.1763 240.221 19.7344 240.221 19.1777C240.221 17.9277 239.599 17.3027 238.354 17.3027C237.768 17.3027 237.299 17.4712 236.947 17.8081C236.601 18.1401 236.427 18.582 236.427 19.1338H235.072C235.072 18.2891 235.38 17.5884 235.995 17.0317C236.615 16.4702 237.401 16.1895 238.354 16.1895C239.359 16.1895 240.148 16.4556 240.719 16.9878C241.291 17.52 241.576 18.2598 241.576 19.207C241.576 19.6709 241.425 20.1201 241.122 20.5547C240.824 20.9893 240.417 21.314 239.899 21.5288C240.485 21.7144 240.937 22.022 241.254 22.4517C241.576 22.8813 241.737 23.4062 241.737 24.0264C241.737 24.9834 241.425 25.7427 240.8 26.3042C240.175 26.8657 239.362 27.1465 238.361 27.1465C237.36 27.1465 236.544 26.8755 235.915 26.3335C235.29 25.7915 234.977 25.0762 234.977 24.1875H236.339C236.339 24.749 236.522 25.1982 236.889 25.5352C237.255 25.8721 237.746 26.0405 238.361 26.0405C239.015 26.0405 239.516 25.8696 239.862 25.5278C240.209 25.186 240.382 24.6953 240.382 24.0557C240.382 23.4355 240.192 22.9595 239.811 22.6274C239.43 22.2954 238.881 22.1245 238.163 22.1147H237.145V21.0088Z" fill="#F3F5F8"/>
<path fill-rule="evenodd" clip-rule="evenodd" d="M292 43.5C303.874 43.5 313.5 33.8741 313.5 22C313.5 10.1259 303.874 0.5 292 0.5C280.126 0.5 270.5 10.1259 270.5 22C270.5 33.8741 280.126 43.5 292 43.5ZM292 44C304.15 44 314 34.1503 314 22C314 9.84974 304.15 0 292 0C279.85 0 270 9.84974 270 22C270 34.1503 279.85 44 292 44Z" fill="#F3F5F8"/>
<path d="M294.895 23.4185H296.375V24.5244H294.895V27H293.533V24.5244H288.677V23.7261L293.452 16.3359H294.895V23.4185ZM290.215 23.4185H293.533V18.189L293.372 18.4819L290.215 23.4185Z" fill="#F3F5F8"/>
<path fill-rule="evenodd" clip-rule="evenodd" d="M346 43.5C357.874 43.5 367.5 33.8741 367.5 22C367.5 10.1259 357.874 0.5 346 0.5C334.126 0.5 324.5 10.1259 324.5 22C324.5 33.8741 334.126 43.5 346 43.5ZM346 44C358.15 44 368 34.1503 368 22C368 9.84974 358.15 0 346 0C333.85 0 324 9.84974 324 22C324 34.1503 333.85 44 346 44Z" fill="#F3F5F8"/>
<path d="M343.797 21.6533L344.339 16.3359H349.803V17.5884H345.489L345.167 20.4961C345.689 20.1885 346.283 20.0347 346.947 20.0347C347.918 20.0347 348.69 20.3569 349.261 21.0015C349.833 21.6411 350.118 22.5078 350.118 23.6016C350.118 24.7002 349.82 25.5669 349.225 26.2017C348.634 26.8315 347.806 27.1465 346.742 27.1465C345.799 27.1465 345.03 26.8853 344.435 26.3628C343.839 25.8403 343.5 25.1177 343.417 24.1948H344.698C344.781 24.8052 344.999 25.2666 345.35 25.5791C345.702 25.8867 346.166 26.0405 346.742 26.0405C347.372 26.0405 347.865 25.8257 348.221 25.396C348.583 24.9663 348.763 24.373 348.763 23.6162C348.763 22.9033 348.568 22.332 348.177 21.9023C347.792 21.4678 347.276 21.2505 346.632 21.2505C346.041 21.2505 345.577 21.3799 345.24 21.6387L344.881 21.9316L343.797 21.6533Z" fill="#F3F5F8"/>
<path fill-rule="evenodd" clip-rule="evenodd" d="M400 43.5C411.874 43.5 421.5 33.8741 421.5 22C421.5 10.1259 411.874 0.5 400 0.5C388.126 0.5 378.5 10.1259 378.5 22C378.5 33.8741 388.126 43.5 400 43.5ZM400 44C412.15 44 422 34.1503 422 22C422 9.84974 412.15 0 400 0C387.85 0 378 9.84974 378 22C378 34.1503 387.85 44 400 44Z" fill="#F3F5F8"/>
<path d="M402.492 16.3281V17.478H402.243C401.188 17.4976 400.349 17.8101 399.724 18.4155C399.099 19.021 398.737 19.873 398.64 20.9717C399.201 20.3271 399.968 20.0049 400.939 20.0049C401.867 20.0049 402.607 20.332 403.159 20.9863C403.715 21.6406 403.994 22.4854 403.994 23.5205C403.994 24.6191 403.693 25.498 403.093 26.1572C402.497 26.8164 401.696 27.146 400.69 27.146C399.67 27.146 398.842 26.7554 398.208 25.9741C397.573 25.188 397.255 24.1772 397.255 22.9419V22.4219C397.255 20.459 397.673 18.96 398.508 17.9248C399.348 16.8848 400.595 16.3525 402.25 16.3281H402.492ZM400.712 21.1328C400.249 21.1328 399.821 21.272 399.431 21.5503C399.04 21.8286 398.769 22.1777 398.618 22.5977V23.0957C398.618 23.9746 398.815 24.6826 399.211 25.2197C399.606 25.7568 400.1 26.0254 400.69 26.0254C401.301 26.0254 401.779 25.8008 402.126 25.3516C402.478 24.9023 402.653 24.314 402.653 23.5864C402.653 22.854 402.475 22.2632 402.119 21.814C401.767 21.3599 401.298 21.1328 400.712 21.1328Z" fill="#F3F5F8"/>
<path fill-rule="evenodd" clip-rule="evenodd" d="M454 43.5C465.874 43.5 475.5 33.8741 475.5 22C475.5 10.1259 465.874 0.5 454 0.5C442.126 0.5 432.5 10.1259 432.5 22C432.5 33.8741 442.126 43.5 454 43.5ZM454 44C466.15 44 476 34.1503 476 22C476 9.84974 466.15 0 454 0C441.85 0 432 9.84974 432 22C432 34.1503 441.85 44 454 44Z" fill="#F3F5F8"/>
<path d="M458.06 17.0977L453.643 27H452.222L456.624 17.4492H450.853V16.3359H458.06V17.0977Z" fill="#F3F5F8"/>
<path fill-rule="evenodd" clip-rule="evenodd" d="M22 97.5C33.8741 97.5 43.5 87.8741 43.5 76C43.5 64.1259 33.8741 54.5 22 54.5C10.1259 54.5 0.5 64.1259 0.5 76C0.5 87.8741 10.1259 97.5 22 97.5ZM22 98C34.1503 98 44 88.1503 44 76C44 63.8497 34.1503 54 22 54C9.84974 54 0 63.8497 0 76C0 88.1503 9.84974 98 22 98Z" fill="#5F85DB"/>
<path d="M26.0449 76.6055H18.7354V75.2578H26.0449V76.6055ZM21.5918 72.958C21.5918 72.7236 21.6602 72.5283 21.7969 72.3721C21.9385 72.2158 22.1484 72.1377 22.4268 72.1377C22.7051 72.1377 22.915 72.2158 23.0566 72.3721C23.2031 72.5283 23.2764 72.7236 23.2764 72.958C23.2764 73.1875 23.2031 73.3779 23.0566 73.5293C22.915 73.6807 22.7051 73.7563 22.4268 73.7563C22.1484 73.7563 21.9385 73.6807 21.7969 73.5293C21.6602 73.3779 21.5918 73.1875 21.5918 72.958ZM21.5918 78.9419C21.5918 78.7075 21.6602 78.5122 21.7969 78.356C21.9385 78.1997 22.1484 78.1216 22.4268 78.1216C22.7051 78.1216 22.915 78.1997 23.0566 78.356C23.2031 78.5122 23.2764 78.7075 23.2764 78.9419C23.2764 79.1665 23.2031 79.3569 23.0566 79.5132C22.915 79.6646 22.7051 79.7402 22.4268 79.7402C22.1484 79.7402 21.9385 79.6646 21.7969 79.5132C21.6602 79.3569 21.5918 79.1665 21.5918 78.9419Z" fill="#F3F5F8"/>
<path fill-rule="evenodd" clip-rule="evenodd" d="M76 97.5C87.8741 97.5 97.5 87.8741 97.5 76C97.5 64.1259 87.8741 54.5 76 54.5C64.1259 54.5 54.5 64.1259 54.5 76C54.5 87.8741 64.1259 97.5 76 97.5ZM76 98C88.1503 98 98 88.1503 98 76C98 63.8497 88.1503 54 76 54C63.8497 54 54 63.8497 54 76C54 88.1503 63.8497 98 76 98Z" fill="#5F85DB"/>
<path d="M79.6055 75.0386H73.4971V73.8594H79.6055V75.0386ZM79.6055 78.0781H73.4971V76.9062H79.6055V78.0781Z" fill="#F3F5F8"/>
<path fill-rule="evenodd" clip-rule="evenodd" d="M130 97.5C141.874 97.5 151.5 87.8741 151.5 76C151.5 64.1259 141.874 54.5 130 54.5C118.126 54.5 108.5 64.1259 108.5 76C108.5 87.8741 118.126 97.5 130 97.5ZM130 98C142.15 98 152 88.1503 152 76C152 63.8497 142.15 54 130 54C117.85 54 108 63.8497 108 76C108 88.1503 117.85 98 130 98Z" fill="#F3F5F8"/>
<path d="M133.642 73.1191C133.642 73.6514 133.5 74.125 133.217 74.54C132.939 74.9551 132.561 75.2798 132.082 75.5142C132.639 75.7534 133.078 76.1025 133.4 76.5615C133.728 77.0205 133.891 77.5405 133.891 78.1216C133.891 79.0444 133.579 79.7793 132.954 80.3262C132.333 80.873 131.516 81.1465 130.5 81.1465C129.475 81.1465 128.652 80.873 128.032 80.3262C127.417 79.7744 127.109 79.0396 127.109 78.1216C127.109 77.5454 127.265 77.0254 127.578 76.5615C127.895 76.0977 128.332 75.7461 128.889 75.5068C128.415 75.2725 128.042 74.9478 127.768 74.5327C127.495 74.1177 127.358 73.6465 127.358 73.1191C127.358 72.2207 127.646 71.5078 128.222 70.9805C128.798 70.4531 129.558 70.1895 130.5 70.1895C131.438 70.1895 132.194 70.4531 132.771 70.9805C133.352 71.5078 133.642 72.2207 133.642 73.1191ZM132.536 78.0923C132.536 77.4966 132.346 77.0107 131.965 76.6348C131.589 76.2588 131.096 76.0708 130.485 76.0708C129.875 76.0708 129.384 76.2563 129.013 76.6274C128.647 76.9985 128.464 77.4868 128.464 78.0923C128.464 78.6978 128.642 79.1738 128.999 79.5205C129.36 79.8672 129.86 80.0405 130.5 80.0405C131.135 80.0405 131.633 79.8672 131.994 79.5205C132.355 79.1689 132.536 78.6929 132.536 78.0923ZM130.5 71.3027C129.968 71.3027 129.536 71.4688 129.204 71.8008C128.876 72.1279 128.713 72.5747 128.713 73.1411C128.713 73.6831 128.874 74.1226 129.196 74.4595C129.523 74.7915 129.958 74.9575 130.5 74.9575C131.042 74.9575 131.474 74.7915 131.796 74.4595C132.124 74.1226 132.287 73.6831 132.287 73.1411C132.287 72.5991 132.119 72.1572 131.782 71.8154C131.445 71.4736 131.018 71.3027 130.5 71.3027Z" fill="#F3F5F8"/>
<path fill-rule="evenodd" clip-rule="evenodd" d="M184 97.5C195.874 97.5 205.5 87.8741 205.5 76C205.5 64.1259 195.874 54.5 184 54.5C172.126 54.5 162.5 64.1259 162.5 76C162.5 87.8741 172.126 97.5 184 97.5ZM184 98C196.15 98 206 88.1503 206 76C206 63.8497 196.15 54 184 54C171.85 54 162 63.8497 162 76C162 88.1503 171.85 98 184 98Z" fill="#F3F5F8"/>
<path d="M186.368 76.3125C186.084 76.6494 185.745 76.9204 185.35 77.1255C184.959 77.3306 184.529 77.4331 184.061 77.4331C183.445 77.4331 182.908 77.2817 182.449 76.979C181.995 76.6763 181.644 76.2515 181.395 75.7046C181.146 75.1528 181.021 74.5449 181.021 73.8809C181.021 73.168 181.155 72.5259 181.424 71.9546C181.697 71.3833 182.083 70.9463 182.581 70.6436C183.079 70.3408 183.66 70.1895 184.324 70.1895C185.379 70.1895 186.209 70.585 186.814 71.376C187.425 72.1621 187.73 73.2363 187.73 74.5986V74.9941C187.73 77.0693 187.32 78.5854 186.5 79.5425C185.679 80.4946 184.441 80.9829 182.786 81.0073H182.522V79.8647H182.808C183.926 79.8452 184.786 79.5547 185.386 78.9932C185.987 78.4268 186.314 77.5332 186.368 76.3125ZM184.28 76.3125C184.734 76.3125 185.152 76.1733 185.533 75.895C185.918 75.6167 186.199 75.2725 186.375 74.8623V74.3203C186.375 73.4316 186.182 72.709 185.796 72.1523C185.411 71.5957 184.922 71.3174 184.332 71.3174C183.736 71.3174 183.257 71.5469 182.896 72.0059C182.535 72.46 182.354 73.0605 182.354 73.8076C182.354 74.5352 182.527 75.1357 182.874 75.6094C183.226 76.0781 183.694 76.3125 184.28 76.3125Z" fill="#F3F5F8"/>
<path fill-rule="evenodd" clip-rule="evenodd" d="M238 97.5C249.874 97.5 259.5 87.8741 259.5 76C259.5 64.1259 249.874 54.5 238 54.5C226.126 54.5 216.5 64.1259 216.5 76C216.5 87.8741 226.126 97.5 238 97.5ZM238 98C250.15 98 260 88.1503 260 76C260 63.8497 250.15 54 238 54C225.85 54 216 63.8497 216 76C216 88.1503 225.85 98 238 98Z" fill="#F3F5F8"/>
<path d="M235.417 81H234.054V71.9692L231.322 72.9727V71.7422L235.204 70.2847H235.417V81Z" fill="#F3F5F8"/>
<path d="M246.073 76.4517C246.073 78.0386 245.802 79.2178 245.26 79.9893C244.718 80.7607 243.871 81.1465 242.719 81.1465C241.581 81.1465 240.739 80.7705 240.192 80.0186C239.645 79.2617 239.362 78.1338 239.342 76.6348V74.8257C239.342 73.2583 239.613 72.0938 240.155 71.332C240.697 70.5703 241.547 70.1895 242.704 70.1895C243.852 70.1895 244.696 70.5581 245.238 71.2954C245.78 72.0278 246.059 73.1606 246.073 74.6938V76.4517ZM244.718 74.5986C244.718 73.4512 244.557 72.6162 244.235 72.0938C243.913 71.5664 243.402 71.3027 242.704 71.3027C242.011 71.3027 241.505 71.564 241.188 72.0864C240.871 72.6089 240.707 73.4121 240.697 74.4961V76.6641C240.697 77.8164 240.863 78.6685 241.195 79.2202C241.532 79.7671 242.04 80.0405 242.719 80.0405C243.388 80.0405 243.883 79.7817 244.206 79.2642C244.533 78.7466 244.704 77.9312 244.718 76.8179V74.5986Z" fill="#F3F5F8"/>
<path fill-rule="evenodd" clip-rule="evenodd" d="M292 97.5C303.874 97.5 313.5 87.8741 313.5 76C313.5 64.1259 303.874 54.5 292 54.5C280.126 54.5 270.5 64.1259 270.5 76C270.5 87.8741 280.126 97.5 292 97.5ZM292 98C304.15 98 314 88.1503 314 76C314 63.8497 304.15 54 292 54C279.85 54 270 63.8497 270 76C270 88.1503 279.85 98 292 98Z" fill="#F3F5F8"/>
<path d="M289.417 81.0005H288.054V71.9697L285.322 72.9731V71.7427L289.204 70.2852H289.417V81.0005Z" fill="#F3F5F8"/>
<path d="M297.839 81.0005H296.477V71.9697L293.745 72.9731V71.7427L297.627 70.2852H297.839V81.0005Z" fill="#F3F5F8"/>
<path fill-rule="evenodd" clip-rule="evenodd" d="M346 97.5C357.874 97.5 367.5 87.8741 367.5 76C367.5 64.1259 357.874 54.5 346 54.5C334.126 54.5 324.5 64.1259 324.5 76C324.5 87.8741 334.126 97.5 346 97.5ZM346 98C358.15 98 368 88.1503 368 76C368 63.8497 358.15 54 346 54C333.85 54 324 63.8497 324 76C324 88.1503 333.85 98 346 98Z" fill="#F3F5F8"/>
<path d="M343.417 81H342.054V71.9692L339.322 72.9727V71.7422L343.204 70.2847H343.417V81Z" fill="#F3F5F8"/>
<path d="M354.374 81H347.386V80.0259L351.078 75.9243C351.625 75.3042 352 74.8013 352.206 74.4155C352.416 74.0249 352.521 73.6221 352.521 73.207C352.521 72.6504 352.352 72.1938 352.015 71.8374C351.678 71.481 351.229 71.3027 350.667 71.3027C349.994 71.3027 349.469 71.4956 349.093 71.8813C348.722 72.2622 348.536 72.7944 348.536 73.478H347.181C347.181 72.4966 347.496 71.7031 348.126 71.0977C348.761 70.4922 349.608 70.1895 350.667 70.1895C351.659 70.1895 352.442 70.4507 353.019 70.9731C353.595 71.4907 353.883 72.1816 353.883 73.0459C353.883 74.0957 353.214 75.3457 351.876 76.7959L349.02 79.894H354.374V81Z" fill="#F3F5F8"/>
<path fill-rule="evenodd" clip-rule="evenodd" d="M400 97.5C411.874 97.5 421.5 87.8741 421.5 76C421.5 64.1259 411.874 54.5 400 54.5C388.126 54.5 378.5 64.1259 378.5 76C378.5 87.8741 388.126 97.5 400 97.5ZM400 98C412.15 98 422 88.1503 422 76C422 63.8497 412.15 54 400 54C387.85 54 378 63.8497 378 76C378 88.1503 387.85 98 400 98Z" fill="#F3F5F8"/>
<path d="M397.417 81H396.054V71.9692L393.322 72.9727V71.7422L397.204 70.2847H397.417V81Z" fill="#F3F5F8"/>
<path d="M403.356 75.0088H404.375C405.014 74.999 405.517 74.8306 405.883 74.5034C406.25 74.1763 406.433 73.7344 406.433 73.1777C406.433 71.9277 405.81 71.3027 404.565 71.3027C403.979 71.3027 403.51 71.4712 403.159 71.8081C402.812 72.1401 402.639 72.582 402.639 73.1338H401.284C401.284 72.2891 401.591 71.5884 402.207 71.0317C402.827 70.4702 403.613 70.1895 404.565 70.1895C405.571 70.1895 406.359 70.4556 406.931 70.9878C407.502 71.52 407.788 72.2598 407.788 73.207C407.788 73.6709 407.636 74.1201 407.333 74.5547C407.036 74.9893 406.628 75.314 406.11 75.5288C406.696 75.7144 407.148 76.022 407.465 76.4517C407.788 76.8813 407.949 77.4062 407.949 78.0264C407.949 78.9834 407.636 79.7427 407.011 80.3042C406.386 80.8657 405.573 81.1465 404.572 81.1465C403.571 81.1465 402.756 80.8755 402.126 80.3335C401.501 79.7915 401.188 79.0762 401.188 78.1875H402.551C402.551 78.749 402.734 79.1982 403.1 79.5352C403.466 79.8721 403.957 80.0405 404.572 80.0405C405.227 80.0405 405.727 79.8696 406.074 79.5278C406.42 79.186 406.594 78.6953 406.594 78.0557C406.594 77.4355 406.403 76.9595 406.022 76.6274C405.642 76.2954 405.092 76.1245 404.375 76.1147H403.356V75.0088Z" fill="#F3F5F8"/>
<path fill-rule="evenodd" clip-rule="evenodd" d="M454 97.5C465.874 97.5 475.5 87.8741 475.5 76C475.5 64.1259 465.874 54.5 454 54.5C442.126 54.5 432.5 64.1259 432.5 76C432.5 87.8741 442.126 97.5 454 97.5ZM454 98C466.15 98 476 88.1503 476 76C476 63.8497 466.15 54 454 54C441.85 54 432 63.8497 432 76C432 88.1503 441.85 98 454 98Z" fill="#F3F5F8"/>
<path d="M451.417 81.0005H450.054V71.9697L447.322 72.9731V71.7427L451.204 70.2852H451.417V81.0005Z" fill="#F3F5F8"/>
<path d="M461.106 77.4189H462.586V78.5249H461.106V81.0005H459.744V78.5249H454.888V77.7266L459.664 70.3364H461.106V77.4189ZM456.426 77.4189H459.744V72.1895L459.583 72.4824L456.426 77.4189Z" fill="#F3F5F8"/>
</svg>
