<svg width="209" height="66" viewBox="0 0 209 66" fill="none" xmlns="http://www.w3.org/2000/svg">
<g clip-path="url(#clip0_866:3290)">
<path fill-rule="evenodd" clip-rule="evenodd" d="M205.24 15.835C207.41 19.439 207.811 23.495 206.093 27.748C204.484 30.967 202.638 33.558 199.888 36.108C185.621 49.289 153.517 59.121 121.456 59.121C83.6531 59.121 59.8141 45.461 68.4261 28.712C74.3442 17.183 94.3961 6.702 118.411 1.522C121.236 0.914 124.107 0.436 127.021 0C121.371 0.567 115.843 1.392 110.408 2.566C83.7841 8.44 61.2071 17.925 54.6361 31.062C45.1111 50.16 71.5151 65.732 113.453 65.732C147.814 65.732 182.227 55.294 198.757 40.98C200.624 39.373 202.809 37.104 204.523 34.685C205.211 33.742 205.828 32.7497 206.37 31.716C209.328 25.973 208.763 20.534 205.24 15.836V15.835Z" fill="#66859E"/>
<path fill-rule="evenodd" clip-rule="evenodd" d="M26.2081 29.41C25.4071 30.67 24.6031 31.6 23.8181 32.175L23.7881 32.199C22.8821 32.91 21.6961 33.272 20.2621 33.272C19.3311 33.272 18.6921 33.086 18.5131 32.77C18.4951 32.723 18.0751 31.565 19.3711 27.388C20.2291 24.743 21.2281 22.853 22.3411 21.77C23.7241 20.387 25.2071 19.743 27.0091 19.743C27.5761 19.743 28.0461 19.83 28.3321 19.988C28.5471 20.109 28.7161 20.205 28.7831 20.984L29.0451 24.033H43.4181C42.5177 25.2244 41.7486 26.5095 41.1241 27.866H27.1901L26.2081 29.41ZM61.0491 30.296C60.5131 32.003 59.8221 33.243 59.0511 33.879C58.2631 34.51 57.6011 34.792 56.9031 34.792C56.7581 34.792 56.6661 34.779 56.6121 34.767C56.5821 34.578 56.5361 33.909 57.0151 32.38C57.4731 30.823 58.1451 29.64 58.9591 28.962C59.7041 28.366 60.3941 28.1 61.1961 28.1C61.2931 28.1 61.3631 28.105 61.4111 28.112C61.4411 28.323 61.4601 28.952 61.0491 30.296ZM95.3701 30.262C94.9291 31.77 94.3361 32.893 93.7001 33.427C93.1821 33.864 92.7441 34.076 92.3621 34.076C92.3267 34.0756 92.2914 34.0746 92.2561 34.073C92.2641 33.81 92.3241 33.283 92.5981 32.402C93.1911 30.47 93.8601 29.642 94.3181 29.286C94.8421 28.859 95.2921 28.635 95.7651 28.569C95.7371 28.888 95.6451 29.419 95.3811 30.228L95.3701 30.262ZM196.36 15.264L200.171 3.047L180.581 11.173L180.08 11.381L178.87 15.264H174.987L174.827 15.773C173.189 15.04 171.572 14.683 169.887 14.683C168.621 14.674 167.361 14.8699 166.157 15.263H150.813L147.91 24.538C147.914 24.159 147.903 23.771 147.878 23.378C147.74 21.365 147.032 19.581 145.887 18.36C144.46 16.73 142.447 15.678 139.905 15.234C138.021 14.858 135.465 14.683 131.861 14.683C129.752 14.683 127.761 14.826 125.774 15.121C123.526 15.468 121.878 15.923 120.588 16.552C118.675 17.382 117.088 18.392 115.876 19.551C114.808 20.525 113.831 21.766 112.893 23.339C112.706 22.3681 112.412 21.421 112.016 20.515C110.774 17.855 107.976 14.683 101.701 14.683C100.151 14.683 98.6881 14.878 97.2341 15.279L97.2391 15.264H80.4801L78.0681 22.971C77.7849 22.1662 77.4175 21.3936 76.9721 20.666C74.4481 16.696 69.7851 14.683 63.1151 14.683C57.6441 14.683 52.7751 16.149 48.6421 19.04C47.8811 19.576 47.1521 20.15 46.4731 20.748V20.7C46.4731 15.016 44.9301 10.994 41.7551 8.407C38.9891 6.047 34.9111 4.899 29.2871 4.899C22.5781 4.899 16.6721 6.706 11.7331 10.273C6.82209 13.851 3.32809 18.949 1.34909 25.423C-0.250911 30.479 -0.430911 34.818 0.815089 38.323C2.15109 41.983 4.36109 44.593 7.38309 46.073C10.0991 47.432 13.8001 48.12 18.3831 48.12C22.1951 48.12 25.5311 47.585 28.2951 46.528C31.0851 45.515 33.7281 43.933 36.1501 41.824C37.2561 40.83 38.4711 39.514 39.5831 38.107C40.1751 40.858 41.6181 42.803 42.7351 43.957C45.4651 46.69 49.5251 48.075 54.8021 48.075C60.3461 48.075 65.2741 46.595 69.4481 43.675C70.4688 42.9619 71.4318 42.1694 72.3281 41.305L67.3541 57.193H84.8851L88.0621 47.106C89.5921 47.749 91.3521 48.075 93.2971 48.075C97.3791 48.075 101.199 46.709 104.649 44.014C105.653 43.2227 106.578 42.3351 107.409 41.364C107.72 42.634 108.341 43.791 109.253 44.804C111.181 47.004 114.205 48.075 118.5 48.075C121.333 48.075 123.988 47.651 126.393 46.815C126.788 46.675 127.193 46.515 127.596 46.339L127.981 47.492H158.215L161.629 36.578C163.05 32.061 164.352 30.257 164.999 29.586C165.624 29.028 166.042 28.951 166.401 28.951C166.442 28.951 166.83 28.963 167.777 29.381L170.134 30.422L171.255 29.072L174.551 29.081L173.104 33.705C171.973 37.149 171.591 39.605 171.904 41.435C172.231 43.671 173.436 45.522 175.299 46.646C176.889 47.621 179.188 48.075 182.534 48.075C184.975 48.075 187.7 47.784 190.634 47.21L192.059 46.931L192.817 46.781L195.752 32.387L190.501 33.927L192.004 29.084H197.763L202.078 15.266L196.36 15.264Z" fill="white" fill-opacity="0.3"/>
<mask id="mask0_866:3290" style="mask-type:alpha" maskUnits="userSpaceOnUse" x="0" y="14" width="201" height="53">
<path fill-rule="evenodd" clip-rule="evenodd" d="M27.676 39.151L26.955 40.285C26.094 41.637 25.215 42.649 24.334 43.295C23.269 44.132 21.898 44.558 20.261 44.558C18.945 44.558 18.095 44.234 17.735 43.594C17.616 43.387 17.096 42.122 18.523 37.528C19.428 34.735 20.504 32.718 21.725 31.532C23.255 30 24.983 29.256 27.008 29.256C27.743 29.256 28.333 29.376 28.758 29.611C29.265 29.896 29.575 30.265 29.665 31.307L29.857 33.547H45.301C43.796 35.2005 42.5791 37.0948 41.701 39.151H27.676ZM61.896 40.953C61.298 42.857 60.529 44.206 59.616 44.96C58.665 45.722 57.802 46.078 56.901 46.078C56.101 46.078 55.938 45.798 55.828 45.61C55.786 45.54 55.435 44.853 56.168 42.511C56.68 40.773 57.428 39.484 58.387 38.683C59.299 37.953 60.191 37.613 61.195 37.613C61.932 37.613 62.06 37.831 62.2 38.07C62.216 38.095 62.581 38.713 61.896 40.953ZM91.75 42.539C92.273 40.837 92.972 39.609 93.778 38.983C94.548 38.354 95.275 38.061 96.068 38.061C96.476 38.061 96.503 38.111 96.597 38.281C96.677 38.418 96.781 39.195 96.22 40.911C95.723 42.608 95.049 43.852 94.27 44.506C93.586 45.082 92.961 45.362 92.361 45.362C91.636 45.362 91.515 45.159 91.435 45.027C91.433 45.021 91.156 44.459 91.75 42.539ZM111.474 42.104C111.83 40.84 112.071 39.608 112.193 38.429L116.845 38.901C115.153 39.475 113.778 40.184 112.665 41.053C112.244 41.379 111.846 41.731 111.474 42.103V42.104ZM197.113 38.595L200.874 26.549H195.155L198.761 14.991L180.803 22.44L179.524 26.55H175.638L175.365 27.423C173.536 26.445 171.741 25.969 169.887 25.969C168.608 25.969 167.405 26.164 166.305 26.549H151.465L142.668 54.654L142.586 54.157C142.389 52.97 142.37 52.38 142.387 52.096C142.408 51.798 142.517 51.163 142.909 49.836L146.429 38.57C146.921 37.087 147.105 35.539 146.993 33.836C146.869 32.018 146.242 30.426 145.234 29.357C143.943 27.876 142.098 26.917 139.757 26.507C137.914 26.14 135.405 25.969 131.861 25.969C129.797 25.969 127.848 26.109 125.904 26.399C123.74 26.732 122.166 27.165 120.965 27.755C119.137 28.545 117.631 29.5 116.493 30.588C115.28 31.695 114.18 33.176 113.13 35.118L112.281 36.687C112.283 34.72 111.923 32.903 111.203 31.267C110.074 28.85 107.509 25.969 101.702 25.969C99.677 25.969 97.764 26.327 95.879 27.061L96.037 26.55H81.132L77.86 37.003C77.776 35.013 77.226 33.178 76.215 31.526C73.87 27.838 69.463 25.969 63.115 25.969C57.83 25.969 53.131 27.38 49.151 30.166C47.8625 31.0665 46.6684 32.0951 45.587 33.236V31.098C45.587 25.697 44.15 21.9 41.199 19.494C38.589 17.266 34.692 16.184 29.289 16.184C22.769 16.184 17.039 17.934 12.253 21.39C7.50299 24.852 4.11999 29.795 2.19999 36.079C0.655988 40.952 0.471988 45.106 1.65299 48.426C2.90499 51.859 4.96499 54.298 7.77299 55.676C10.37 56.973 13.941 57.632 18.385 57.632C22.088 57.632 25.317 57.116 27.979 56.1C30.677 55.12 33.231 53.59 35.573 51.552C37.129 50.152 38.848 48.152 40.199 46.182C40.299 49.792 41.946 52.265 43.376 53.742C45.926 56.293 49.771 57.587 54.804 57.587C60.164 57.587 64.92 56.161 68.942 53.347C71.188 51.774 73.049 49.901 74.494 47.759L68.563 66.704H84.237L87.52 56.28C87.717 56.381 87.92 56.476 88.12 56.561C89.604 57.243 91.346 57.587 93.298 57.587C97.178 57.587 100.813 56.285 104.105 53.714C105.595 52.543 106.929 51.109 108.075 49.441C108.02 50.381 108.155 51.3225 108.47 52.2098C108.785 53.0971 109.275 53.9122 109.911 54.607C111.667 56.613 114.477 57.587 118.501 57.587C121.234 57.587 123.791 57.18 126.104 56.376C126.758 56.144 127.436 55.856 128.123 55.516L128.62 57.005H157.564L160.783 46.714C162.198 42.218 163.526 40.221 164.381 39.35C165.057 38.737 165.681 38.463 166.401 38.463C166.578 38.463 167.101 38.513 168.136 38.968L169.881 39.74L170.84 38.584L175.757 38.595L173.951 44.366C172.861 47.688 172.489 50.016 172.78 51.691C173.065 53.667 174.122 55.299 175.756 56.286C177.205 57.174 179.359 57.587 182.534 57.587C184.917 57.587 187.584 57.302 190.464 56.739L192.067 56.425L194.59 44.05L190.69 45.195C190.133 45.358 189.627 45.49 189.182 45.585L191.352 38.596L197.113 38.595Z" fill="white"/>
</mask>
<g mask="url(#mask0_866:3290)">
<path fill-rule="evenodd" clip-rule="evenodd" d="M27.676 28.7509L26.955 29.8849C26.094 31.2369 25.215 32.2489 24.334 32.8949C23.269 33.7319 21.898 34.1579 20.261 34.1579C18.945 34.1579 18.095 33.8339 17.735 33.1939C17.616 32.9869 17.096 31.7219 18.523 27.1279C19.428 24.3349 20.504 22.3179 21.725 21.1319C23.255 19.5999 24.983 18.8559 27.008 18.8559C27.743 18.8559 28.333 18.9759 28.758 19.2109C29.265 19.4959 29.575 19.8649 29.665 20.9069L29.857 23.1469H45.301C43.796 24.8004 42.5791 26.6947 41.701 28.7509H27.676ZM61.896 30.5529C61.298 32.4569 60.529 33.8059 59.616 34.5599C58.665 35.3219 57.802 35.6779 56.901 35.6779C56.101 35.6779 55.938 35.3979 55.828 35.2099C55.786 35.1399 55.435 34.4529 56.168 32.1109C56.68 30.3729 57.428 29.0839 58.387 28.2829C59.299 27.5529 60.191 27.2129 61.195 27.2129C61.932 27.2129 62.06 27.4309 62.2 27.6699C62.216 27.6949 62.581 28.3129 61.896 30.5529ZM91.75 32.1389C92.273 30.4369 92.972 29.2089 93.778 28.5829C94.548 27.9539 95.275 27.6609 96.068 27.6609C96.476 27.6609 96.503 27.7109 96.597 27.8809C96.677 28.0179 96.781 28.7949 96.22 30.5109C95.723 32.2079 95.049 33.4519 94.27 34.1059C93.586 34.6819 92.961 34.9619 92.361 34.9619C91.636 34.9619 91.515 34.7589 91.435 34.6269C91.433 34.6209 91.156 34.0589 91.75 32.1389ZM111.474 31.7039C111.83 30.4399 112.071 29.2079 112.193 28.0289L116.845 28.5009C115.153 29.0749 113.778 29.7839 112.665 30.6529C112.244 30.9789 111.846 31.3309 111.474 31.7029V31.7039ZM197.113 28.1949L200.874 16.1489H195.155L198.761 4.59094L180.803 12.0399L179.524 16.1499H175.638L175.365 17.0229C173.536 16.0449 171.741 15.5689 169.887 15.5689C168.608 15.5689 167.405 15.7639 166.305 16.1489H151.465L142.668 44.2539L142.586 43.7569C142.389 42.5699 142.37 41.9799 142.387 41.6959C142.408 41.3979 142.517 40.7629 142.909 39.4359L146.429 28.1699C146.921 26.6869 147.105 25.1389 146.993 23.4359C146.869 21.6179 146.242 20.0259 145.234 18.9569C143.943 17.4759 142.098 16.5169 139.757 16.1069C137.914 15.7399 135.405 15.5689 131.861 15.5689C129.797 15.5689 127.848 15.7089 125.904 15.9989C123.74 16.3319 122.166 16.7649 120.965 17.3549C119.137 18.1449 117.631 19.0999 116.493 20.1879C115.28 21.2949 114.18 22.7759 113.13 24.7179L112.281 26.2869C112.283 24.3199 111.923 22.5029 111.203 20.8669C110.074 18.4499 107.509 15.5689 101.702 15.5689C99.677 15.5689 97.764 15.9269 95.879 16.6609L96.037 16.1499H81.132L77.86 26.6029C77.776 24.6129 77.226 22.7779 76.215 21.1259C73.87 17.4379 69.463 15.5689 63.115 15.5689C57.83 15.5689 53.131 16.9799 49.151 19.7659C47.8625 20.6665 46.6684 21.695 45.587 22.8359V20.6979C45.587 15.2969 44.15 11.4999 41.199 9.09394C38.589 6.86594 34.692 5.78394 29.289 5.78394C22.769 5.78394 17.039 7.53394 12.253 10.9899C7.50299 14.4519 4.11999 19.3949 2.19999 25.6789C0.655988 30.5519 0.471988 34.7059 1.65299 38.0259C2.90499 41.4589 4.96499 43.8979 7.77299 45.2759C10.37 46.5729 13.941 47.2319 18.385 47.2319C22.088 47.2319 25.317 46.7159 27.979 45.6999C30.677 44.7199 33.231 43.1899 35.573 41.1519C37.129 39.7519 38.848 37.7519 40.199 35.7819C40.299 39.3919 41.946 41.8649 43.376 43.3419C45.926 45.8929 49.771 47.1869 54.804 47.1869C60.164 47.1869 64.92 45.7609 68.942 42.9469C71.188 41.3739 73.049 39.5009 74.494 37.3589L68.563 56.3039H84.237L87.52 45.8799C87.717 45.9809 87.92 46.0759 88.12 46.1609C89.604 46.8429 91.346 47.1869 93.298 47.1869C97.178 47.1869 100.813 45.8849 104.105 43.3139C105.595 42.1429 106.929 40.7089 108.075 39.0409C108.02 39.981 108.155 40.9225 108.47 41.8098C108.785 42.697 109.275 43.5121 109.911 44.2069C111.667 46.2129 114.477 47.1869 118.501 47.1869C121.234 47.1869 123.791 46.7799 126.104 45.9759C126.758 45.7439 127.436 45.4559 128.123 45.1159L128.62 46.6049H157.564L160.783 36.3139C162.198 31.8179 163.526 29.8209 164.381 28.9499C165.057 28.3369 165.681 28.0629 166.401 28.0629C166.578 28.0629 167.101 28.1129 168.136 28.5679L169.881 29.3399L170.84 28.1839L175.757 28.1949L173.951 33.9659C172.861 37.2879 172.489 39.6159 172.78 41.2909C173.065 43.2669 174.122 44.8989 175.756 45.8859C177.205 46.7739 179.359 47.1869 182.534 47.1869C184.917 47.1869 187.584 46.9019 190.464 46.3389L192.067 46.0249L194.59 33.6499L190.69 34.7949C190.133 34.9579 189.627 35.0899 189.182 35.1849L191.352 28.1959L197.113 28.1949Z" fill="white" fill-opacity="0.1" stroke="white" stroke-width="0.6"/>
<path fill-rule="evenodd" clip-rule="evenodd" d="M40.0129 31.1999C38.8069 33.9699 36.1699 37.3209 33.9369 39.3309C31.8799 41.1209 29.6009 42.5049 27.1439 43.3989C24.6859 44.3359 21.7379 44.7839 18.3859 44.7839C14.2739 44.7839 11.1029 44.2019 8.86889 43.0849C6.58989 41.9679 4.97989 40.0019 3.95389 37.1869C2.96789 34.4169 3.14789 30.7969 4.53389 26.4169C6.32189 20.5669 9.40389 16.0949 13.6949 12.9699C18.0279 9.84193 23.2119 8.23193 29.2889 8.23193C34.0239 8.23193 37.4649 9.12593 39.6109 10.9579C42.5149 13.3249 43.1409 17.2139 43.1409 20.6989H32.1059C31.9709 19.1349 31.3899 17.8839 29.9609 17.0789C29.1539 16.6319 28.1719 16.4089 27.0099 16.4089C24.3739 16.4089 22.0049 17.3909 19.9939 19.4029C18.4759 20.8779 17.2239 23.2019 16.1959 26.3729C14.9889 30.2599 14.7669 32.9429 15.6159 34.4169C16.4199 35.8489 17.9849 36.6069 20.2629 36.6069C22.4979 36.6069 24.3729 35.9799 25.8489 34.8199C27.0099 33.9699 28.0819 32.6759 29.0219 31.1999H40.0129ZM64.2319 31.2879C63.4729 33.7019 62.4449 35.3999 61.1479 36.4699C59.8079 37.5439 58.4229 38.1249 56.9019 38.1249C55.4289 38.1249 54.3559 37.5449 53.7319 36.4699C53.0599 35.3559 53.1059 33.7019 53.8209 31.4199C54.4909 29.1429 55.5179 27.4899 56.8569 26.3719C58.1979 25.2979 59.6299 24.7649 61.1949 24.7649C62.6219 24.7649 63.6499 25.2979 64.2769 26.3719C64.9469 27.4449 64.9009 29.0999 64.2319 31.2879ZM74.1499 22.4399C72.2749 19.4899 68.6109 18.0159 63.1159 18.0159C58.3319 18.0159 54.1309 19.2689 50.5589 21.7689C46.9389 24.3169 44.5239 27.5339 43.3189 31.4189C41.9789 35.6219 42.6039 39.0189 45.1069 41.6099C47.1609 43.6649 50.3779 44.7379 54.8039 44.7379C59.7159 44.7379 63.9639 43.4419 67.5379 40.9399C71.1119 38.4379 73.4809 35.2199 74.7309 31.2879C75.8479 27.8029 75.6259 24.8539 74.1499 22.4399ZM98.5709 31.1999C97.9029 33.4789 96.9639 35.0419 95.8469 35.9799C94.7299 36.9199 93.5689 37.4109 92.3619 37.4109C90.9769 37.4109 89.9479 36.9189 89.3669 35.9339C88.7419 34.9539 88.7889 33.4339 89.4109 31.4199C90.0829 29.2349 91.0209 27.6239 92.2299 26.6879C93.4339 25.7039 94.6839 25.2129 96.0699 25.2129C97.2769 25.2129 98.1719 25.6599 98.7079 26.6409C99.2859 27.6239 99.2449 29.1429 98.5709 31.1999ZM108.986 21.9039C107.777 19.3139 105.365 18.0169 101.702 18.0169C99.8689 18.0169 98.0819 18.3739 96.2949 19.1349C94.9979 19.6699 93.4339 20.7419 91.5579 22.3509L92.7179 18.5979H82.9319L71.8969 53.8569H82.4429L86.2869 41.6559C87.0009 42.6839 87.9839 43.4429 89.1449 43.9359C90.3069 44.4689 91.6919 44.7399 93.2999 44.7399C96.6069 44.7399 99.7369 43.6199 102.596 41.3889C105.5 39.1089 107.6 35.8919 108.94 31.6459C110.148 27.7589 110.148 24.5419 108.987 21.9039H108.986ZM131.95 33.5679C131.546 34.7749 131.052 35.8009 130.383 36.5619C129.713 37.3199 128.819 37.9459 127.658 38.4819C126.496 39.0199 125.337 39.2879 124.127 39.2879C123.012 39.2879 122.25 39.0199 121.851 38.5269C121.403 38.0369 121.312 37.4099 121.58 36.6519C121.762 35.9799 122.25 35.3999 123.012 34.8629C123.726 34.3269 125.243 33.8349 127.524 33.2979C129.223 32.8959 130.829 32.4939 132.437 32.0029L131.95 33.5679ZM144.549 23.6029C144.46 22.3079 144.058 21.2799 143.384 20.5669C142.449 19.4899 141.062 18.8199 139.276 18.5089C137.49 18.1519 134.984 18.0159 131.859 18.0159C129.989 18.011 128.122 18.1454 126.273 18.4179C124.529 18.6859 123.054 19.0449 121.984 19.5809C120.419 20.2509 119.126 21.0549 118.142 21.9949C117.115 22.9319 116.176 24.2269 115.282 25.8819L124.973 26.8639C125.738 25.7479 126.496 24.9879 127.302 24.5849C128.33 24.0929 129.67 23.8259 131.412 23.8259C132.751 23.8259 133.602 24.0489 134.002 24.5409C134.363 25.0319 134.363 25.8819 134.002 27.0889C132.531 27.5349 131.186 27.9369 129.937 28.2509C127.232 28.8023 124.521 29.323 121.805 29.8129C118.32 30.3929 115.772 31.3309 114.165 32.5849C112.557 33.8349 111.439 35.4449 110.858 37.3659C110.188 39.4659 110.503 41.2069 111.751 42.5929C113.004 44.0239 115.237 44.7389 118.5 44.7389C120.954 44.7389 123.233 44.3789 125.287 43.6659C126.809 43.1289 128.464 42.2359 130.204 41.0299C130.114 41.7439 130.072 42.2799 130.072 42.6379C130.072 42.9979 130.158 43.4829 130.383 44.1559H140.168C139.991 43.0849 139.9 42.1919 139.944 41.5229C139.991 40.8509 140.215 39.9109 140.57 38.7059L144.105 27.4009C144.503 26.1939 144.637 24.9439 144.549 23.6029ZM153.26 18.5979H163.045L161.75 22.7519C163.27 20.9659 164.654 19.7159 165.862 19.0459C167.067 18.3299 168.406 18.0169 169.883 18.0169C171.447 18.0169 172.964 18.4639 174.527 19.3569L169.121 26.3289C168.006 25.8359 167.113 25.6149 166.398 25.6149C165.013 25.6149 163.804 26.1489 162.686 27.1789C161.17 28.6979 159.737 31.4709 158.445 35.5779L155.761 44.1569H145.258L153.26 18.5979ZM194.87 8.85693L191.832 18.5969H197.551L195.317 25.7479H189.554L186.737 34.8199C186.378 35.8909 186.29 36.6059 186.378 36.9629C186.557 37.5009 187.05 37.8129 187.94 37.8129C188.703 37.8129 189.862 37.5899 191.385 37.1419L190 43.9349C187.274 44.4679 184.771 44.7389 182.54 44.7389C179.904 44.7389 178.068 44.4279 177.041 43.7989C176.012 43.1759 175.389 42.1919 175.209 40.9409C174.983 39.6469 175.344 37.5899 176.282 34.7289L179.093 25.7479H175.209L177.442 18.5979H181.329L182.805 13.8619L194.87 8.85693Z" fill="white"/>
</g>
</g>
<defs>
<clipPath id="clip0_866:3290">
<rect width="208.28" height="65.733" fill="white"/>
</clipPath>
</defs>
</svg>
