<svg width="40" height="40" viewBox="0 0 40 40" fill="none" xmlns="http://www.w3.org/2000/svg">
<circle cx="20" cy="20" r="19.75" stroke="#F3F5F8" stroke-width="0.5"/>
<path d="M23.9396 12H17.0604C14.8214 12 13 13.8214 13 16.0604V22.9397C13 25.1785 14.8214 27 17.0604 27H23.9397C26.1785 27 28 25.1785 28 22.9397V16.0604C28 13.8214 26.1785 12 23.9396 12V12ZM20.5 23.6014C18.2384 23.6014 16.3985 21.7616 16.3985 19.5C16.3985 17.2384 18.2384 15.3985 20.5 15.3985C22.7616 15.3985 24.6014 17.2384 24.6014 19.5C24.6014 21.7616 22.7616 23.6014 20.5 23.6014ZM24.6995 16.3658C24.0312 16.3658 23.4876 15.8222 23.4876 15.1539C23.4876 14.4855 24.0312 13.9418 24.6995 13.9418C25.3678 13.9418 25.9115 14.4855 25.9115 15.1539C25.9115 15.8222 25.3678 16.3658 24.6995 16.3658Z" fill="#F3F5F8"/>
<path d="M20.4999 16.2783C18.7233 16.2783 17.2778 17.7237 17.2778 19.5004C17.2778 21.277 18.7233 22.7225 20.4999 22.7225C22.2766 22.7225 23.722 21.277 23.722 19.5004C23.722 17.7237 22.2766 16.2783 20.4999 16.2783Z" fill="#F3F5F8"/>
<path d="M24.6993 14.8213C24.5159 14.8213 24.3667 14.9705 24.3667 15.1539C24.3667 15.3372 24.5159 15.4864 24.6993 15.4864C24.8827 15.4864 25.0319 15.3373 25.0319 15.1539C25.0319 14.9704 24.8827 14.8213 24.6993 14.8213Z" fill="#F3F5F8"/>
</svg>
