<svg width="15" height="15" viewBox="0 0 15 15" fill="none" xmlns="http://www.w3.org/2000/svg">
<g clip-path="url(#clip0_972_3892)">
<path d="M14.9963 14.9987V14.998H15V9.49679C15 6.80554 14.4207 4.73242 11.2744 4.73242C9.76191 4.73242 8.74691 5.56242 8.33254 6.34929H8.28879V4.98367H5.30566V14.998H8.41191V10.0393C8.41191 8.73366 8.65941 7.47117 10.2763 7.47117C11.8694 7.47117 11.8932 8.96116 11.8932 10.123V14.9987H14.9963Z" fill="#F3F5F8"/>
<path d="M0.247559 4.98633H3.35756V15.0007H0.247559V4.98633Z" fill="#F3F5F8"/>
<path d="M1.80125 0C0.806875 0 0 0.806875 0 1.80125C0 2.79562 0.806875 3.61937 1.80125 3.61937C2.79562 3.61937 3.6025 2.79562 3.6025 1.80125C3.60188 0.806875 2.795 0 1.80125 0V0Z" fill="#F3F5F8"/>
</g>
<defs>
<clipPath id="clip0_972_3892">
<rect width="15" height="15" fill="white"/>
</clipPath>
</defs>
</svg>
