<svg width="79" height="28" viewBox="0 0 79 28" fill="none" xmlns="http://www.w3.org/2000/svg">
<path d="M31.3 27.602L35.3013 19.8423L36.2016 21.5147L33.0339 27.602H31.3Z" fill="white"/>
<path d="M37.3318 15.9958L36.4666 17.5741L41.7243 27.6021H43.4214L37.3318 15.9958Z" fill="white"/>
<path d="M46.9967 23.0045L45.4084 20.4395V27.602H46.9967V23.0045Z" fill="white"/>
<path d="M46.0702 17.3886L45.4084 15.9958H50.6364C53.1511 16.2943 53.7775 18.8801 53.2504 20.5056C52.8202 21.8322 51.7945 22.7607 50.471 22.7607H49.3129L48.5187 21.3346H50.2943C50.9811 21.3346 51.9268 20.7072 51.9268 19.3781C51.9268 18.2083 50.8987 17.379 50.2724 17.3886H46.0702Z" fill="white"/>
<path d="M63.69 15.9958H55.4104V17.4216H63.69V15.9958Z" fill="white"/>
<path d="M63.69 26.1765H55.4104V27.6023H63.69V26.1765Z" fill="white"/>
<path d="M61.8354 21.0693H55.4104V22.5285H61.8354V21.0693Z" fill="white"/>
<path d="M69.378 23.4902L65.677 27.6022H68.111L70.5782 24.8275L69.378 23.4902Z" fill="white"/>
<path d="M76.0492 27.6021H78.4605L68.0883 15.9958H65.677L76.0492 27.6021Z" fill="white"/>
<path d="M76.1423 15.9958L73.5923 18.7813L74.8176 20.1409L78.5267 15.9958H76.1423Z" fill="white"/>
<path fill-rule="evenodd" clip-rule="evenodd" d="M13.5881 0L0 27.6297L47.2267 5.62672L21.2934 15.0326L13.5881 0ZM24.5248 21.6671L25.9333 24.6064H20.5478V23.8506L24.5248 21.6671ZM9.27963 18.8957L13.3395 8.98598L16.8193 15.8724L9.27963 18.8957Z" fill="#5F85DB"/>
</svg>
