<svg width="22" height="22" viewBox="0 0 22 22" fill="none" xmlns="http://www.w3.org/2000/svg">
<rect opacity="0.5" width="22" height="22" rx="3" fill="#5F85DB"/>
<g clip-path="url(#clip0_644:1501)">
<path d="M9.96982 12.031C8.82442 10.8856 8.5658 9.74021 8.50745 9.2813C8.49115 9.15441 8.53482 9.02716 8.62559 8.93702L9.55251 8.01052C9.68886 7.87425 9.71305 7.66189 9.61085 7.49844L8.13503 5.20682C8.02197 5.02583 7.78981 4.96051 7.59895 5.05599L5.22974 6.1718C5.07541 6.2478 4.98463 6.41177 5.00215 6.58291C5.12629 7.76224 5.64044 10.6613 8.48945 13.5105C11.3385 16.3598 14.2371 16.8737 15.4171 16.9978C15.5882 17.0154 15.7522 16.9246 15.8282 16.7703L16.944 14.401C17.0391 14.2106 16.9742 13.9791 16.794 13.8658L14.5024 12.3904C14.339 12.2881 14.1267 12.3121 13.9903 12.4483L13.0638 13.3752C12.9737 13.466 12.8464 13.5097 12.7195 13.4934C12.2606 13.435 11.1152 13.1764 9.96982 12.031Z" fill="#F3F5F8"/>
<path d="M14.5181 11.4138C14.2896 11.4138 14.1043 11.2285 14.1043 11C14.1024 9.28674 12.7141 7.89839 11.0008 7.89645C10.7723 7.89645 10.587 7.71118 10.587 7.48265C10.587 7.25411 10.7723 7.06885 11.0008 7.06885C13.1709 7.07124 14.9295 8.82986 14.9319 11C14.9319 11.2285 14.7467 11.4138 14.5181 11.4138Z" fill="#F3F5F8"/>
<path d="M16.5871 11.4139C16.3586 11.4139 16.1733 11.2286 16.1733 11.0001C16.1702 8.14473 13.8562 5.83079 11.0008 5.8276C10.7723 5.8276 10.587 5.64234 10.587 5.4138C10.587 5.18526 10.7723 5 11.0008 5C14.3131 5.00365 16.9973 7.68785 17.0009 11.0001C17.0009 11.1099 16.9573 11.2151 16.8797 11.2927C16.8021 11.3703 16.6969 11.4139 16.5871 11.4139Z" fill="#F3F5F8"/>
</g>
<defs>
<clipPath id="clip0_644:1501">
<rect width="12" height="12" fill="white" transform="translate(5 5)"/>
</clipPath>
</defs>
</svg>
