<svg width="1440" height="1046" viewBox="0 0 1440 1046" fill="none" xmlns="http://www.w3.org/2000/svg">
<g opacity="0.15" clip-path="url(#clip0_792:3243)">
<g opacity="0.047619">
<path opacity="0.047619" d="M355.502 1039.85C353.772 1039.85 351.851 1039.66 350.122 1039.46C319.575 1035.23 308.239 967.564 298.249 892.589C296.328 878.363 294.599 863.753 292.678 848.565C279.997 746.099 265.588 629.792 220.824 595.572C169.143 556.162 118.999 583.845 70.776 610.759C32.1594 632.291 -4.53604 652.669 -41.2314 640.173L-40.8472 639.212C-4.53604 651.515 31.9672 631.33 70.3917 609.798C118.999 582.692 169.335 554.816 221.592 594.611C266.741 629.023 281.15 745.523 293.83 848.181C295.751 863.56 297.481 877.979 299.402 892.205C308.816 963.912 320.535 1034.08 350.506 1038.12C363.955 1040.04 377.98 1034.66 392.389 1022.16C447.144 974.677 496.135 829.725 497.096 711.88C497.48 659.397 502.091 611.528 510.544 569.235C521.303 516.368 539.171 473.882 565.299 439.47C582.975 416.016 604.108 397.176 628.316 383.527C651.562 370.262 679.228 360.65 710.544 354.883C788.354 340.657 878.075 348.923 957.421 356.228C990.082 359.304 1021.01 361.996 1050.02 363.341C1114.77 366.417 1218.32 351.807 1314.39 302.4C1369.52 273.948 1416.21 237.037 1453.48 192.436C1497.29 140.146 1528.03 76.8977 1544.74 4.80615L1545.7 4.9984C1528.79 77.2822 1498.05 140.53 1454.25 193.013C1416.98 237.614 1369.91 274.717 1314.77 303.361C1218.52 352.96 1114.96 367.571 1050.02 364.495C1021.01 363.149 990.082 360.265 957.421 357.382C878.267 350.076 788.546 341.81 710.928 356.036C679.612 361.803 652.139 371.416 628.892 384.488C604.877 398.138 583.743 416.977 566.26 440.239C539.747 474.843 522.072 517.137 511.313 569.811C502.86 612.105 498.249 659.974 497.864 712.264C497.48 768.592 485.761 834.724 465.972 893.743C445.799 954.107 419.863 1000.05 392.965 1023.32C380.093 1034.27 367.605 1039.85 355.502 1039.85Z" fill="#5F85DB"/>
</g>
<g opacity="0.095238">
<path opacity="0.095238" d="M361.457 1033.7C359.92 1033.7 358.383 1033.7 356.846 1033.5C326.107 1030.24 313.235 966.219 301.515 895.089C299.21 880.67 296.904 866.06 294.599 850.488C279.613 752.828 262.899 641.903 217.75 608.068C166.261 569.427 116.501 596.341 68.4706 622.486C31.0067 642.864 -4.53598 662.089 -40.4629 651.9L-40.2708 650.939C-4.7281 660.935 30.6224 641.903 68.0863 621.525C116.501 595.38 166.453 568.274 218.326 607.107C263.667 641.134 280.766 752.251 295.559 850.103C297.865 865.675 300.17 880.286 302.476 894.704C314.003 965.258 326.875 1029.08 356.846 1032.16C370.871 1033.7 385.473 1027.93 400.074 1015.24C453.868 968.526 502.86 830.495 506.702 713.802C508.431 660.166 513.426 609.991 521.111 565.005C530.717 509.255 547.432 464.654 571.832 428.32C589.315 402.175 610.448 381.989 634.656 367.955C658.479 354.114 687.489 345.078 720.919 341.041C796.231 331.813 881.341 343.156 956.461 353.345C997.383 358.92 1036.19 364.11 1070.97 365.841C1129.95 368.917 1233.12 354.306 1329.18 302.4C1382.4 273.563 1427.93 236.653 1464.05 192.629C1506.51 141.107 1536.29 79.3969 1552.62 9.6123L1553.58 9.80455C1537.06 79.7814 1507.28 141.492 1464.82 193.205C1428.51 237.422 1382.97 274.525 1329.56 303.361C1233.31 355.267 1129.95 370.07 1070.77 366.994C1035.81 365.264 997.191 360.073 956.077 354.498C880.957 344.309 796.039 332.967 720.727 342.195C687.489 346.232 658.671 355.267 634.848 369.109C610.833 382.95 589.699 403.136 572.408 429.089C548.008 465.231 531.678 509.831 521.88 565.39C514.003 610.375 509.2 660.359 507.471 713.995C505.549 769.169 493.253 833.186 473.465 889.706C453.1 948.148 427.163 992.941 400.65 1016.01C387.586 1027.74 374.33 1033.7 361.457 1033.7Z" fill="#5F85DB"/>
</g>
<g opacity="0.1429">
<path opacity="0.1429" d="M367.413 1027.54C366.261 1027.54 365.108 1027.54 363.763 1027.35C332.831 1025.05 318.23 964.489 305.166 897.395C302.284 882.785 299.402 867.598 296.52 851.641C279.421 758.98 260.017 653.822 214.868 620.372C163.763 582.5 114.196 608.645 66.3573 634.021C29.854 653.245 -4.53592 671.509 -39.6943 663.627L-39.5022 662.665C-4.72803 670.547 29.4698 652.476 65.7809 633.252C114.004 607.876 163.763 581.538 215.444 619.795C260.977 653.438 280.382 758.787 297.481 851.641C300.363 867.598 303.244 882.785 306.126 897.395C319.191 964.104 333.6 1024.08 363.955 1026.39C378.556 1027.54 393.542 1021.39 408.72 1008.13C461.745 961.797 510.352 830.687 517.077 715.917C520.343 660.935 525.53 608.837 532.447 561.16C541.092 502.334 556.462 455.426 578.94 417.554C596.039 388.91 617.173 367.186 641.572 352.768C666.164 338.35 696.519 329.891 731.678 327.392C806.413 322.201 889.41 337.004 962.609 350.076C1009.68 358.535 1054.06 366.417 1092.48 368.532C1148.97 371.992 1248.87 356.805 1344.55 302.784C1396.04 273.563 1440.03 236.652 1475.19 193.013C1516.11 142.261 1545.12 82.2804 1561.07 14.8027L1562.03 14.995C1545.89 82.4727 1517.07 142.645 1475.96 193.59C1440.61 237.421 1396.61 274.332 1344.93 303.553C1249.06 357.766 1148.97 372.953 1092.29 369.493C1053.87 367.378 1009.49 359.304 962.417 351.038C889.218 337.965 806.221 323.162 731.678 328.353C696.711 330.852 666.548 339.311 642.148 353.537C617.749 367.763 596.808 389.486 579.709 417.939C557.23 455.618 542.053 502.526 533.215 561.16C526.107 608.837 520.919 660.743 517.845 715.725C511.121 830.879 462.322 962.374 409.104 1008.7C395.271 1021.2 381.054 1027.54 367.413 1027.54Z" fill="#5F85DB"/>
</g>
<g opacity="0.1905">
<path opacity="0.1905" d="M373.177 1021.39C372.408 1021.39 371.448 1021.39 370.679 1021.39C339.363 1019.85 323.993 965.45 308.624 899.895C305.165 884.9 301.707 869.136 298.057 852.41C278.845 764.939 257.135 665.741 211.986 632.868C160.881 595.957 111.506 621.333 63.6674 645.94C28.3168 664.011 -4.92036 681.313 -39.1182 675.546L-38.926 674.585C-5.11248 680.352 28.1247 663.242 63.2831 645.171C111.314 620.372 161.074 594.996 212.562 632.291C258.095 665.357 279.805 764.747 299.017 852.41C302.668 869.136 306.126 884.707 309.584 899.895C324.954 965.065 340.132 1019.09 370.679 1020.43C404.493 1022.16 440.612 987.174 472.12 922.003C500.938 862.407 521.495 786.086 527.067 717.84C531.678 661.128 537.249 607.107 543.397 557.123C551.274 494.067 564.723 446.199 585.856 406.596C602.379 375.453 623.512 352.191 648.488 337.581C673.849 322.586 705.549 314.704 742.436 313.935C817.94 312.397 900.553 330.66 973.368 346.616C1024.86 357.959 1073.66 368.724 1113.81 371.223C1167.99 374.684 1265.01 358.92 1359.73 302.785C1435.04 258.184 1532.64 172.828 1569.52 19.8013L1570.48 19.9935C1533.98 173.212 1436.19 258.761 1360.49 303.553C1265.39 359.881 1168.18 375.645 1113.81 371.992C1073.46 369.301 1024.86 358.535 973.175 347.193C900.361 331.237 817.748 312.973 742.436 314.511C705.741 315.28 674.233 323.162 649.065 337.965C624.281 352.576 603.34 375.645 586.817 406.596C565.684 446.199 552.235 493.875 544.358 556.739C538.21 606.722 532.638 660.935 528.028 717.455C522.456 785.894 501.899 862.215 472.888 922.003C442.149 986.212 406.798 1021.39 373.177 1021.39Z" fill="#5F85DB"/>
</g>
<g opacity="0.2381">
<path opacity="0.2381" d="M378.748 1015.24C378.364 1015.24 377.788 1015.24 377.404 1015.24C345.896 1014.47 329.181 963.719 311.89 902.201C307.471 886.63 303.244 870.097 298.825 852.602C277.692 770.514 253.677 677.468 208.72 645.363C158 609.029 108.624 633.636 60.7856 657.667C28.3169 674.008 -5.30453 690.733 -38.3496 687.08L-38.1575 685.927C-5.49665 689.579 28.1248 672.854 60.4014 656.513C108.432 632.483 158 607.683 209.488 644.402C254.829 676.891 278.845 770.13 299.978 852.218C304.397 869.712 308.624 886.245 313.043 901.817C330.141 962.758 346.664 1013.32 377.404 1014.09C411.601 1014.86 447.913 980.637 479.805 917.581C508.623 860.484 530.141 786.47 537.25 719.377C543.782 658.051 549.737 600.57 554.541 552.509C561.457 485.801 573.561 435.817 592.965 395.061C608.911 361.419 629.853 336.619 655.405 321.624C681.534 306.052 714.579 298.747 753.195 299.708C829.852 301.631 912.849 323.162 986.24 342.387C1041.57 356.805 1093.83 370.454 1135.33 373.53C1187.39 377.375 1281.34 361.034 1375.29 302.784C1447.91 257.799 1542.05 172.827 1578.17 24.7993L1579.13 24.9916C1543.01 173.404 1448.68 258.568 1375.86 303.746C1281.72 362.188 1187.39 378.528 1135.33 374.684C1093.83 371.608 1041.38 357.958 986.048 343.54C912.849 324.508 829.852 302.784 753.195 301.054C714.771 300.093 682.11 307.398 655.981 322.97C630.813 337.965 609.872 362.572 593.926 396.023C574.713 436.778 562.418 486.57 555.693 553.086C550.698 601.147 544.742 658.628 538.402 719.954C531.294 787.239 509.776 861.446 480.958 918.542C449.257 980.829 413.138 1015.24 378.748 1015.24Z" fill="#5F85DB"/>
</g>
<g opacity="0.2857">
<path opacity="0.2857" d="M384.128 1009.09C352.236 1009.09 334.176 961.797 315.348 904.508C309.969 888.36 304.781 870.866 299.21 852.41C276.347 775.897 250.219 689.003 205.646 657.667C154.926 621.91 105.358 645.94 57.7117 669.394C26.5879 684.581 -5.68871 700.345 -37.5811 698.615V697.461C-6.07296 698.999 26.2036 683.428 57.1354 668.24C105.166 644.787 154.926 620.564 206.222 656.706C251.179 688.234 277.116 775.32 300.17 852.026C305.742 870.481 310.929 887.783 316.309 903.932C334.945 960.644 353.004 1007.74 384.128 1007.74C418.71 1007.74 455.405 974.101 487.682 913.159C516.5 858.562 538.787 786.663 547.432 720.915C554.925 663.627 561.073 605.569 565.876 548.088C571.832 476.573 582.398 425.821 600.266 383.719C615.443 347.577 636.385 321.432 662.514 305.86C689.603 289.712 723.801 282.791 764.146 285.482C842.724 290.673 926.682 315.857 1000.84 337.965C1059.44 355.459 1114.77 371.992 1156.84 375.453C1206.8 379.49 1297.86 362.572 1390.66 302.208C1460.59 256.646 1551.27 172.251 1586.62 29.0288L1587.78 29.2211C1552.23 173.212 1461.36 257.799 1391.23 303.553C1298.25 364.11 1206.8 380.835 1156.65 376.991C1114.39 373.722 1059.05 356.997 1000.46 339.503C926.298 317.395 842.34 292.211 763.954 287.02C723.801 284.329 689.795 291.057 662.898 307.206C637.153 322.586 616.212 348.731 601.034 384.488C583.167 426.59 572.6 477.15 566.836 548.472C562.033 605.953 555.885 664.203 548.393 721.3C539.939 787.24 517.461 859.139 488.643 913.928C456.366 975.254 419.286 1009.09 384.128 1009.09C384.32 1009.09 384.32 1009.09 384.128 1009.09Z" fill="#5F85DB"/>
</g>
<g opacity="0.3333">
<path opacity="0.3333" d="M390.084 1003.13C358.384 1003.13 339.748 961.413 318.806 907.007C312.274 890.282 305.934 871.827 299.21 852.218C274.618 781.28 246.76 700.73 202.764 670.163C151.852 634.982 102.284 658.628 54.2536 681.313C24.4746 695.347 -6.26502 709.957 -36.8125 710.342V709.188C-6.45714 708.996 24.0903 694.386 53.8693 680.352C102.284 657.475 152.236 633.636 203.533 669.202C247.913 699.961 275.771 780.511 300.363 851.833C307.087 871.442 313.427 889.706 319.959 906.623C340.708 960.644 359.152 1001.98 390.084 1001.98C390.468 1001.98 390.66 1001.98 391.044 1001.98C426.011 1001.01 463.09 968.141 495.559 909.314C524.569 857.024 547.624 787.432 557.422 723.03C566.452 664.396 572.792 604.223 576.827 544.051C580.477 487.146 586.625 426.782 607.182 372.761C621.783 334.312 642.533 306.629 669.238 290.673C696.711 274.14 733.215 267.604 774.713 272.025C855.597 280.484 941.091 309.321 1016.6 334.505C1080.57 356.036 1135.9 374.491 1178.17 378.144C1241.38 383.527 1330.72 353.921 1405.84 302.592C1473.08 256.646 1560.3 172.827 1594.88 34.4116L1596.04 34.6039C1581.63 92.8538 1556.27 146.49 1520.72 194.359C1489.6 236.268 1451.18 273.179 1406.6 303.553C1331.29 355.075 1241.57 384.873 1178.17 379.298C1135.71 375.645 1080.38 356.997 1016.21 335.466C940.707 310.282 855.212 281.445 774.521 272.987C733.215 268.565 697.096 275.101 669.814 291.442C643.301 307.398 622.552 334.889 608.143 372.953C587.778 426.974 581.63 486.954 577.98 543.858C574.137 604.031 567.605 664.203 558.575 722.838C548.777 787.432 525.53 857.216 496.52 909.507C463.859 968.718 426.395 1001.78 391.044 1002.74C390.852 1003.13 390.468 1003.13 390.084 1003.13Z" fill="#5F85DB"/>
</g>
<g opacity="0.381">
<path opacity="0.381" d="M395.847 996.978C364.531 996.978 344.742 958.914 322.264 909.315C314.387 892.013 306.702 872.404 298.441 851.641C272.504 786.279 243.11 712.072 199.882 682.659C148.777 647.863 98.8256 671.124 50.2186 693.617C22.1687 706.689 -7.03393 720.147 -36.0444 722.069V720.916C-7.22605 718.993 21.7845 705.536 49.8343 692.463C98.6335 669.971 148.97 646.517 200.458 681.698C244.07 711.303 273.465 785.702 299.594 851.257C307.855 872.019 315.54 891.436 323.417 908.738C345.703 957.953 365.3 995.632 396.039 995.632C396.616 995.632 397.384 995.632 397.96 995.632C433.311 993.71 470.775 961.605 503.628 904.893C533.023 854.141 556.461 788.393 567.797 724.376C578.363 664.78 585.088 602.493 588.162 539.437C591.428 469.652 597.191 412.556 614.29 361.227C627.931 320.471 648.872 291.25 676.154 274.717C712.081 252.993 755.308 253.57 785.471 257.8C868.853 269.526 956.268 302.016 1033.5 330.468C1099.98 355.075 1157.42 376.414 1199.69 380.259C1260.4 386.026 1347.43 355.267 1421.4 302.208C1464.05 271.449 1500.94 234.922 1531.1 193.398C1565.1 146.49 1589.5 94.5843 1603.53 38.8335L1604.68 39.0257C1590.66 94.7765 1566.07 147.067 1532.06 193.974C1501.9 235.499 1464.82 272.218 1422.17 302.977C1348.01 356.229 1260.78 386.988 1199.69 381.22C1157.23 377.183 1099.78 356.036 1033.12 331.237C956.076 302.785 868.661 270.295 785.471 258.568C755.5 254.339 712.465 253.762 676.922 275.294C649.833 291.634 629.084 320.663 615.443 361.227C598.344 412.364 592.581 469.268 589.314 539.053C586.433 602.109 579.516 664.396 568.949 724.184C546.471 851.834 474.617 992.364 398.152 996.209C397.192 996.978 396.615 996.978 395.847 996.978Z" fill="#5F85DB"/>
</g>
<g opacity="0.4286">
<path opacity="0.4286" d="M401.419 991.018C370.295 991.018 349.546 956.607 325.723 911.814C316.309 893.935 306.895 873.173 296.904 851.257C269.815 791.277 239.075 723.415 196.808 695.155C145.32 660.743 94.5992 683.62 45.4158 705.92C19.095 717.84 -8.18637 730.143 -35.2757 733.796L-35.4678 732.642C-8.37849 728.99 18.7108 716.686 45.0316 704.959C94.4071 682.467 145.512 659.397 197.577 694.194C240.228 722.646 270.968 790.7 298.057 850.872C308.047 872.788 317.269 893.551 326.683 911.237C351.083 957.183 372.216 992.172 404.493 989.673C429.661 987.75 468.854 970.833 511.313 900.856C540.9 852.218 565.107 788.585 577.595 726.298C589.699 665.741 596.808 601.532 598.921 535.4C600.842 470.229 604.108 407.173 621.015 350.269C633.887 307.014 654.636 276.447 682.878 259.337C719.766 236.845 764.915 238.575 796.039 243.958C882.302 258.953 971.831 295.095 1050.79 327.007C1119.38 354.69 1178.75 378.529 1220.82 382.758C1279.42 388.718 1363.95 357.19 1436.38 302.208C1523.8 236.653 1585.85 144.76 1611.79 44.2163L1612.94 44.6008C1587.01 145.529 1524.76 237.422 1437.34 303.746C1364.72 358.728 1279.8 390.448 1221.01 384.488C1178.75 380.259 1119.38 356.228 1050.6 328.545C971.639 296.633 882.109 260.683 796.039 245.688C764.915 240.305 720.342 238.575 683.647 260.875C655.789 277.793 635.232 308.167 622.36 351.038C605.453 407.75 602.187 470.806 600.266 535.784C598.152 601.916 591.044 666.318 578.94 726.875C553.964 852.218 481.918 985.251 404.685 991.018C403.724 991.018 402.572 991.018 401.419 991.018Z" fill="#5F85DB"/>
</g>
<g opacity="0.4762">
<path opacity="0.4762" d="M406.798 985.059C375.867 985.059 354.157 954.3 329.181 914.121C317.846 895.858 306.51 873.942 294.599 850.873C266.741 796.467 235.041 734.757 193.734 707.651C141.477 673.431 92.1017 695.347 39.8443 718.801C15.6369 729.567 -9.33904 740.717 -34.5071 745.715L-34.6992 744.562C-9.72329 739.755 15.2526 728.605 39.268 717.84C89.6041 695.347 141.669 672.278 194.311 706.882C235.809 734.18 267.51 796.083 295.559 850.68C307.471 873.942 318.614 895.858 329.949 913.929C355.886 955.646 378.364 987.366 411.217 984.098C436.769 981.599 476.347 964.489 519.382 897.203C549.353 850.488 574.137 789.162 587.586 728.605C601.226 667.279 608.719 600.955 609.872 531.555C610.832 466.961 611.793 400.252 627.931 339.503C640.035 293.941 660.784 262.029 689.603 244.342C727.643 221.081 774.329 224.157 806.605 230.693C895.75 249.149 987.777 288.943 1068.85 324.124C1139.36 354.691 1200.46 381.22 1242.15 385.834C1299.4 391.986 1379.71 360.266 1451.56 302.977C1535.13 236.076 1594.88 146.106 1620.05 49.0225L1621.2 49.407C1595.84 146.682 1535.9 237.037 1452.52 303.554C1380.48 361.035 1299.78 392.947 1242.15 386.795C1200.26 382.181 1139.17 355.652 1068.66 325.085C987.585 289.904 895.75 249.918 806.605 231.654C774.521 225.118 728.219 222.042 690.371 245.111C661.745 262.606 641.188 294.326 629.276 339.696C613.33 400.252 612.177 466.961 611.217 531.363C610.064 600.763 602.763 667.087 588.931 728.605C575.482 789.354 550.506 850.873 520.535 897.588C477.307 965.066 437.346 982.367 411.409 984.867C409.872 985.059 408.335 985.059 406.798 985.059Z" fill="#5F85DB"/>
</g>
<g opacity="0.5238">
<path opacity="0.5238" d="M411.794 979.291C381.246 979.291 358.576 951.993 332.639 916.812C319.191 898.357 305.742 875.287 291.525 850.872C263.091 801.85 230.814 746.099 190.853 720.339C137.635 685.927 86.7223 708.419 32.928 732.258C11.2181 741.87 -11.0681 751.674 -33.5464 757.634L-33.9307 756.48C-11.4523 750.713 10.8339 740.716 32.5437 731.296C86.7223 707.458 137.827 684.773 191.621 719.57C231.775 745.523 264.243 801.273 292.678 850.488C306.895 874.903 320.151 897.972 333.6 916.428C361.073 953.915 384.896 982.175 418.326 978.138C444.262 974.87 484.224 957.568 527.836 893.358C557.999 848.758 583.743 789.354 598.152 730.72C613.522 668.625 621.207 600.186 621.399 527.71V520.597C621.399 452.543 621.591 388.141 635.424 328.737C646.567 280.869 667.317 247.418 696.903 229.155C718.613 215.89 757.038 203.01 817.748 217.236C910.159 238.959 1004.68 282.791 1088.06 321.432C1160.3 354.883 1222.74 383.911 1263.86 388.717C1319.19 395.254 1397.19 362.572 1467.31 303.361C1546.66 236.652 1603.91 148.22 1628.7 54.7896L1629.85 55.174C1604.87 148.989 1547.43 237.421 1468.08 304.515C1397.77 363.726 1319.38 396.6 1263.86 390.063C1222.55 385.257 1159.92 356.228 1087.68 322.778C1004.3 284.137 909.967 240.305 817.556 218.581C757.23 204.355 718.997 217.236 697.672 230.308C668.277 248.379 647.912 281.638 636.769 329.122C622.936 388.525 622.936 452.735 622.744 520.789V527.902C622.744 600.57 614.867 669.009 599.497 731.296C585.088 790.123 559.344 849.527 528.988 894.319C494.406 945.649 456.174 975.062 418.71 979.676C416.212 979.099 413.907 979.291 411.794 979.291Z" fill="#5F85DB"/>
</g>
<g opacity="0.5714">
<path opacity="0.5714" d="M416.789 973.332C386.241 973.332 362.034 948.724 336.097 919.119C320.151 900.856 304.205 876.441 287.49 850.872C257.327 804.734 226.395 757.057 187.779 732.642C132.831 697.846 79.9978 721.3 23.898 746.099C5.45426 754.366 -13.758 762.824 -32.9702 768.976L-33.3545 767.823C-14.1422 761.671 4.87789 753.02 23.5138 744.946C79.8057 719.954 133.024 696.308 188.547 731.681C227.356 756.288 258.48 803.965 288.643 850.295C305.358 875.864 321.112 900.279 337.058 918.35C353.004 936.421 365.492 949.686 378.94 959.106C394.695 970.064 409.296 974.101 425.05 971.794C505.933 960.067 578.364 842.221 608.143 732.065C625.049 669.202 633.311 598.84 632.35 523.096C632.35 516.56 632.158 510.216 632.158 503.679C631.197 437.932 630.429 375.837 642.34 317.203C652.523 267.027 673.272 232.038 703.628 213.199C725.914 199.357 765.683 186.477 828.315 203.01C924.184 228.194 1021.4 275.87 1107.08 318.164C1180.86 354.498 1244.64 385.642 1285.18 390.832C1339.36 397.561 1413.14 364.879 1482.49 303.169C1556.65 237.037 1612.94 148.22 1636.96 59.4033L1638.11 59.7878C1614.1 148.797 1557.61 237.998 1483.26 304.13C1413.71 366.033 1339.55 398.906 1284.99 392.178C1244.26 387.179 1180.48 355.844 1106.51 319.51C1020.82 277.408 923.608 229.732 827.931 204.548C765.683 188.207 726.298 201.087 704.204 214.737C674.041 233.384 653.676 267.988 643.493 317.972C631.582 376.606 632.35 438.509 633.311 504.256C633.311 510.6 633.503 517.136 633.503 523.673C634.463 599.609 626.394 670.163 609.295 733.027C579.516 843.567 506.702 961.797 425.242 973.716C422.36 973.139 419.478 973.332 416.789 973.332Z" fill="#5F85DB"/>
</g>
<g opacity="0.619">
<path opacity="0.619" d="M420.823 967.565C390.66 967.565 365.876 946.61 339.363 921.426C320.535 903.547 301.899 878.171 282.303 851.257C252.332 810.309 221.4 767.823 184.512 744.946C126.876 709.188 70.9678 734.565 11.7941 761.479C-2.61508 768.015 -17.6006 774.744 -32.3941 780.703L-32.7783 779.55C-17.7928 773.783 -2.99933 766.862 11.4099 760.518C70.9678 733.604 127.26 708.035 185.281 744.177C222.36 767.246 253.292 809.732 283.455 850.872C303.052 877.594 321.496 902.971 340.324 920.849C369.718 948.917 397 971.602 431.774 965.642C470.006 959.298 508.815 931.23 543.974 884.707C575.482 842.99 601.802 789.547 618.133 733.796C636.769 670.355 645.222 598.071 643.301 518.675C643.109 508.678 642.724 498.681 642.532 488.685C640.611 424.667 638.882 364.11 649.257 305.86C658.671 253.378 679.228 217.044 710.352 197.627C753.964 170.521 809.679 180.517 838.882 188.976C938.209 217.62 1038.3 269.526 1126.49 315.28C1201.61 354.114 1266.55 387.756 1306.32 393.139C1358.77 400.06 1430.23 366.417 1497.48 302.977C1567.99 236.46 1621.78 149.374 1645.41 63.8252L1646.56 64.2097C1622.93 149.951 1568.95 237.229 1498.63 303.746C1431.2 367.379 1359.34 401.214 1306.51 394.293C1266.35 388.91 1201.42 355.267 1126.3 316.434C1038.11 270.68 938.017 218.966 838.882 190.322C809.871 181.863 754.54 171.866 711.312 198.781C680.381 218.005 660.016 254.147 650.794 306.245C640.419 364.303 642.148 424.86 644.069 488.877C644.454 498.681 644.646 508.678 644.838 518.867C646.759 598.264 638.306 670.74 619.67 734.372C603.339 790.315 576.827 843.952 545.318 885.669C509.968 932.384 470.775 960.644 432.35 966.988C428.316 967.372 424.473 967.565 420.823 967.565Z" fill="#5F85DB"/>
</g>
<g opacity="0.6667">
<path opacity="0.6667" d="M424.666 961.99C394.694 961.99 368.95 944.111 343.013 923.925C320.919 906.815 299.402 880.286 276.731 852.41C247.336 816.268 216.789 778.781 181.823 757.442C120.343 719.954 59.6327 748.983 -4.72836 779.742C-13.3739 783.971 -22.4036 788.201 -31.4334 792.43L-32.0098 791.277C-22.98 787.24 -13.9502 782.818 -5.30473 778.589C59.2484 747.637 120.343 718.609 182.399 756.481C217.557 778.012 248.105 815.5 277.692 851.834C300.362 879.709 321.688 906.047 343.782 923.156C373.369 946.226 402.956 966.411 438.69 959.683C477.499 952.377 516.884 925.271 552.427 880.863C584.319 840.876 611.409 789.354 628.508 735.718C648.872 671.701 657.71 597.302 654.636 514.638C654.06 501.373 653.483 488.3 652.907 475.42C650.025 412.556 647.528 352.96 656.365 294.903C664.819 240.113 685.376 202.241 717.268 182.248C762.225 154.18 819.477 165.907 849.641 175.327C952.618 207.624 1060.21 265.874 1146.66 312.973C1222.93 354.306 1288.83 390.063 1328.03 395.638C1354.15 399.291 1384.32 392.563 1417.55 375.453C1448.87 359.304 1481.72 334.313 1513.04 303.169C1579.13 237.037 1630.43 151.681 1653.67 69.208L1654.83 69.5925C1631.39 152.257 1580.09 237.806 1513.81 304.13C1447.72 369.878 1379.71 403.713 1327.83 396.407C1288.45 390.832 1222.55 355.075 1146.09 313.55C1059.63 266.643 952.234 208.2 849.448 176.096C819.477 166.676 762.609 155.141 718.037 182.824C686.336 202.625 665.971 240.305 657.71 294.518C648.872 352.384 651.37 411.787 654.252 474.651C654.828 487.531 655.405 500.604 655.981 513.869C659.055 596.726 650.217 671.316 629.852 735.526C612.753 789.354 585.664 841.068 553.58 881.055C517.845 925.655 478.268 952.954 439.075 960.259C434.08 961.605 429.276 961.99 424.666 961.99Z" fill="#5F85DB"/>
</g>
<g opacity="0.7143">
<path opacity="0.7143" d="M427.356 956.414C397.769 956.414 371.256 941.804 346.472 926.232C320.92 910.276 296.136 882.977 270.199 854.14C241.573 822.42 211.986 789.546 178.749 769.745C147.625 751.29 115.156 747.06 76.5398 756.865C41.9577 765.516 6.79928 784.164 -30.4725 803.772L-30.8567 803.965L-31.4331 802.811L-31.0489 802.619C41.7656 764.17 110.738 727.836 179.325 768.784C212.563 788.585 242.342 821.459 270.968 853.371C296.904 882.208 321.496 909.314 347.048 925.271C376.635 943.726 408.72 961.028 445.223 953.338C509.008 940.073 593.349 868.174 638.306 737.256C660.784 671.893 669.622 597.687 665.395 510.023C664.627 494.067 663.666 477.919 662.706 462.539C659.055 400.252 655.405 341.618 663.09 283.368C670.583 226.271 690.948 187.053 723.993 166.291C770.102 137.454 829.276 150.527 860.208 161.1C966.836 196.858 1077.69 259.722 1166.64 310.282C1243.88 354.113 1310.73 391.986 1349.16 397.753C1399.3 405.25 1464.43 370.646 1528.22 302.784C1589.31 237.806 1639.26 152.065 1661.94 73.6294L1663.28 74.0139C1640.42 152.642 1590.27 238.575 1529.18 303.746C1465.2 371.8 1399.5 406.596 1348.97 399.099C1310.35 393.331 1243.49 355.459 1166.07 311.628C1077.11 261.26 966.259 198.396 859.823 162.638C828.892 152.257 770.294 139.185 724.569 167.829C692.1 188.207 671.735 227.232 664.435 283.944C656.75 342.002 660.4 400.637 664.05 462.731C665.011 478.303 665.972 494.259 666.74 510.216C670.967 597.879 662.129 672.47 639.651 737.833C621.784 789.739 594.118 839.338 561.457 877.594C525.53 919.888 485.377 946.61 445.607 954.876C439.459 955.838 433.311 956.414 427.356 956.414Z" fill="#5F85DB"/>
</g>
<g opacity="0.7619">
<path opacity="0.7619" d="M428.508 951.224C399.69 951.224 373.177 939.881 350.122 928.731C320.535 914.505 292.678 886.438 263.091 856.832C235.425 829.149 206.991 800.505 175.867 782.434C112.659 745.33 50.219 767.631 -29.8961 815.692L-30.6646 814.538C49.8348 766.285 112.659 743.985 176.444 781.28C207.567 799.543 236.194 828.188 263.859 855.871C293.446 885.476 321.304 913.544 350.507 927.578C386.818 945.072 417.942 955.069 452.139 947.187C492.485 937.959 532.831 912.198 568.758 872.404C601.995 835.877 630.237 788.393 648.489 738.794C672.696 673.047 681.918 596.726 676.539 505.602C675.386 487.147 674.041 468.499 672.696 450.62C668.085 388.91 663.858 330.468 670.198 272.026C676.731 212.622 697.096 171.866 730.909 150.72C778.363 120.922 839.074 135.724 870.966 147.067C981.437 186.669 1095.56 253.955 1187.39 307.975C1268.85 356.036 1333.02 393.908 1370.68 399.868C1396.23 403.905 1424.86 396.6 1456.17 378.144C1484.41 361.419 1514.77 335.274 1543.59 302.4C1600.46 237.998 1647.91 153.988 1670.58 78.0513L1671.73 78.8202C1649.06 154.949 1601.61 238.96 1544.55 303.554C1482.11 374.492 1420.24 409.096 1370.48 401.406C1332.64 395.446 1268.28 357.382 1186.82 309.321C1095.17 255.3 981.053 188.015 870.582 148.413C838.882 137.07 778.556 122.267 731.678 151.873C698.248 172.828 678.075 213.391 671.543 272.218C665.203 330.468 669.43 388.718 674.041 450.428C675.386 468.307 676.731 486.954 677.883 505.41C683.263 596.726 674.041 673.239 649.833 739.179C631.582 788.97 603.148 836.454 569.718 873.173C533.407 913.16 492.869 939.112 452.331 948.34C444.262 950.263 436.193 951.224 428.508 951.224Z" fill="#5F85DB"/>
</g>
<g opacity="0.8095">
<path opacity="0.8095" d="M426.971 946.225C401.035 946.225 376.635 939.112 353.58 931.038C319.959 919.119 288.643 890.475 255.406 860.1C229.085 836.07 201.996 811.27 172.985 794.737C142.246 777.051 110.161 771.86 75.1948 778.973C44.2631 785.125 11.0259 800.504 -28.9356 827.419L-29.7041 826.265C10.6416 799.351 43.8788 783.971 75.0027 777.627C110.353 770.514 142.63 775.897 173.562 793.584C202.572 810.117 229.853 835.108 256.174 859.139C289.219 889.513 320.535 917.966 353.965 929.885C386.241 941.227 421.4 950.455 459.056 941.035C540.323 920.849 618.71 842.221 658.863 740.524C684.992 674.585 694.406 596.341 687.874 501.373C686.529 480.61 684.608 459.656 682.878 439.47C677.499 377.76 672.312 319.702 677.499 260.875C683.071 199.357 703.436 157.063 738.018 135.148C786.625 104.389 849.064 120.729 882.11 133.225C996.615 176.48 1114.19 248.379 1208.72 306.245C1290.95 356.421 1355.88 396.215 1392.58 402.367C1440.42 410.441 1499.78 374.876 1559.34 302.592C1611.02 239.921 1656.94 155.91 1679.42 83.2417L1680.76 83.6262C1658.28 156.487 1612.37 240.69 1560.49 303.553C1500.55 376.222 1440.8 411.787 1392.39 403.713C1355.5 397.561 1290.37 357.766 1208.14 307.398C1113.81 249.725 996.23 177.826 881.917 134.571C849.257 122.267 787.201 105.927 739.17 136.301C704.973 157.832 684.8 199.934 679.228 261.067C673.849 319.702 679.036 377.76 684.608 439.47C686.337 459.656 688.258 480.61 689.603 501.373C696.135 596.533 686.721 674.969 660.592 741.293C620.247 843.375 541.476 922.387 459.824 942.573C448.297 945.072 437.538 946.225 426.971 946.225Z" fill="#5F85DB"/>
</g>
<g opacity="0.8571">
<path opacity="0.8571" d="M420.823 942.188C397.768 942.188 376.251 938.151 356.846 933.537C318.998 924.502 284.032 895.473 246.952 864.522C222.168 843.759 196.424 822.228 169.527 807.233C109.392 773.398 46.3762 783.587 -28.3594 838.953L-29.1279 837.8C45.992 782.049 109.585 771.86 170.487 805.887C197.385 820.882 223.129 842.414 248.105 863.176C284.992 893.935 319.767 923.156 357.423 931.999C388.739 939.305 426.202 945.456 465.972 934.883C508.047 923.733 549.545 899.318 585.664 864.33C620.823 830.495 649.641 788.201 669.045 742.255C696.903 676.123 706.701 595.764 699.016 496.951C697.287 474.074 694.79 451.005 692.484 428.704C686.144 366.994 680.188 308.936 684.415 249.533C689.026 185.708 709.391 141.876 744.742 119.384C794.501 87.8556 858.67 105.734 892.676 119.191C1011.22 166.483 1132.25 242.997 1229.66 304.515C1312.46 356.997 1377.98 398.33 1413.71 404.674C1438.5 409.095 1465.78 401.213 1494.98 381.605C1520.92 364.11 1547.62 337.388 1574.52 302.592C1621.59 241.266 1665.01 159.178 1687.68 88.0479L1689.02 88.4323C1665.97 159.947 1622.55 242.228 1575.29 303.746C1548.39 338.734 1521.49 365.456 1495.56 382.95C1466.16 402.944 1438.5 410.633 1413.33 406.212C1377.21 399.868 1311.7 358.343 1228.7 305.86C1131.48 244.342 1010.45 167.829 891.908 120.729C858.286 107.272 794.693 89.5858 745.318 120.729C710.352 143.03 690.371 186.477 685.76 249.917C681.533 309.129 687.489 367.186 693.829 428.704C696.135 451.005 698.44 474.074 700.361 496.951C708.238 595.957 698.248 676.507 670.39 742.831C650.986 788.97 621.975 831.264 586.625 865.291C550.122 900.279 508.623 924.886 466.356 936.229C450.602 940.458 435.424 942.188 420.823 942.188Z" fill="#5F85DB"/>
</g>
<g opacity="0.9048">
<path opacity="0.9048" d="M406.798 939.112C392.389 939.112 377.019 937.959 360.497 936.036C318.23 930.653 279.613 901.048 238.883 869.712C215.636 851.833 191.621 833.378 166.837 819.921C102.861 785.125 40.9971 794.929 -27.5907 850.872L-28.5513 849.526C40.6128 793.199 102.861 783.202 167.414 818.383C192.198 831.84 216.405 850.488 239.652 868.366C280.19 899.51 318.614 929.115 360.497 934.498C404.109 940.073 439.651 938.343 472.504 928.923C559.92 903.932 638.882 833.186 679.036 744.177C709.199 676.891 718.997 597.11 709.968 492.914C707.854 468.114 704.972 442.93 702.091 418.707C695.174 359.689 688.258 298.555 691.524 238.575C695.174 173.404 715.924 126.881 751.658 104.196C773.56 90.3545 822.359 71.8991 903.435 105.734C1026.01 156.871 1150.7 238.19 1250.79 303.553C1334.17 357.958 1400.26 401.021 1435.23 407.557C1493.44 418.515 1551.46 356.805 1589.89 303.169C1640.42 232.615 1678.65 146.105 1696.13 93.4304L1697.48 93.8149C1679.99 146.49 1641.57 233.192 1591.04 303.938C1552.42 357.958 1494.02 419.861 1435.04 408.903C1399.88 402.367 1333.79 359.304 1250.22 304.707C1150.12 239.344 1025.62 158.217 903.051 107.08C822.744 73.6293 774.329 91.7003 752.619 105.542C707.854 133.994 695.559 193.782 693.061 238.767C689.795 298.555 696.903 359.496 703.628 418.707C706.51 442.93 709.391 468.114 711.505 492.914C720.727 597.302 710.736 677.468 680.573 744.946C640.419 834.147 561.073 905.277 473.273 930.461C452.331 936.229 430.814 939.112 406.798 939.112Z" fill="#5F85DB"/>
</g>
<g opacity="0.9524">
<path opacity="0.9524" d="M377.212 938.536C372.793 938.536 368.374 938.536 363.955 938.344C317.077 936.998 273.081 905.662 230.43 875.48C208.72 860.1 186.434 844.336 163.763 832.225C96.7127 796.66 36.1941 806.272 -26.8221 862.407L-27.7827 861.254C35.8098 804.542 96.9048 794.929 164.532 830.879C187.395 842.99 209.681 858.947 231.391 874.326C275.771 905.854 317.654 935.652 364.147 936.998C406.798 938.151 444.647 933.537 479.421 922.964C523.993 909.315 566.452 886.438 602.379 856.64C639.843 825.496 669.046 788.393 689.219 746.099C721.495 678.622 731.678 596.918 721.111 488.685C718.613 461.77 714.963 434.472 711.697 407.942C704.204 348.923 696.327 287.789 698.633 227.425C701.322 159.947 722.072 111.886 758.575 88.6246C781.053 74.3985 831.005 55.7509 914.194 91.7005C1040.8 146.875 1168.76 232.808 1271.73 301.823C1355.88 358.343 1422.55 402.944 1456.56 409.672C1501.51 418.515 1552.81 381.605 1605.07 302.785C1648.49 237.037 1684.8 153.795 1704.2 98.0446L1705.55 98.4291C1686.14 154.372 1649.83 237.614 1606.03 303.746C1581.82 340.272 1557.61 368.148 1534.17 386.411C1506.89 407.75 1480.57 416.016 1455.98 411.21C1421.59 404.482 1354.92 359.881 1270.58 303.169C1167.8 234.153 1039.84 148.22 913.234 93.0462C830.621 57.2888 781.245 75.7443 758.959 89.7781C713.234 118.807 701.514 180.71 699.593 227.425C697.288 287.597 705.165 348.539 712.658 407.75C716.116 434.087 719.574 461.386 722.072 488.492C732.638 596.918 722.456 678.814 690.179 746.484C669.814 788.97 640.612 826.265 602.956 857.601C567.029 887.591 524.378 910.468 479.613 924.117C448.297 933.73 414.676 938.536 377.212 938.536Z" fill="#5F85DB"/>
</g>
<path d="M360.112 940.843C311.505 940.843 266.164 910.853 221.976 881.824C184.512 857.217 145.704 831.648 105.166 824.343C59.6326 816.269 16.7893 832.417 -26.054 873.942L-27.0146 872.981C69.4309 779.742 147.433 831.071 222.937 880.67C316.693 942.381 342.629 940.843 367.605 939.113C436.769 934.691 503.628 915.851 560.88 884.9C623.128 851.065 670.967 803.581 699.401 747.638C744.357 659.397 739.554 555.009 732.254 484.263C729.18 455.811 725.145 426.974 721.303 399.291C712.849 339.503 704.204 277.601 705.549 216.275C706.701 167.637 718.037 103.428 765.491 73.2452C788.546 58.6347 839.65 39.6025 924.953 78.0513C1056.36 137.455 1188.35 228.578 1294.6 301.823C1378.55 359.881 1445.03 405.635 1478.07 412.364C1522.65 421.399 1570.48 384.681 1620.44 303.169C1660.21 238.191 1692.67 158.409 1712.85 103.043L1714.19 103.62C1694.02 158.986 1661.36 238.767 1621.59 303.938C1571.25 386.026 1522.84 423.129 1477.69 413.902C1444.26 406.981 1377.79 361.227 1293.64 303.169C1187.58 229.924 1055.6 138.8 924.376 79.5893C839.842 41.5249 789.122 60.1726 766.259 74.5909C719.381 104.581 708.238 168.406 707.086 216.467C705.549 277.793 714.386 339.503 722.84 399.291C726.682 427.167 730.909 456.003 733.791 484.455C749.353 632.675 722.455 706.113 700.746 748.599C672.119 804.734 624.089 852.411 561.457 886.438C504.012 917.581 436.961 936.421 367.605 940.843C364.915 940.843 362.61 940.843 360.112 940.843Z" fill="#5F85DB"/>
</g>
<defs>
<clipPath id="clip0_792:3243">
<rect width="1756" height="1046" fill="white" transform="translate(-42)"/>
</clipPath>
</defs>
</svg>
