<svg width="30" height="30" viewBox="0 0 30 30" fill="none" xmlns="http://www.w3.org/2000/svg">
<g opacity="0.2">
<path d="M17.0832 27.7114V22.7053C17.0832 22.0264 17.6336 21.4763 18.3125 21.4763C20.7348 21.4763 22.0525 18.9919 22.2351 14.0883H18.3125C17.6336 14.0883 17.0832 13.5377 17.0832 12.859V2.28903C17.0832 1.61044 17.6336 1.06025 18.3125 1.06025H28.771C29.4502 1.06025 30 1.61087 30 2.28903V12.859C30 15.2097 29.7633 17.3668 29.2967 19.2712C28.8182 21.2238 28.0837 22.9311 27.1142 24.3458C26.1166 25.7996 24.8687 26.9405 23.405 27.7353C21.9314 28.5349 20.2177 28.9404 18.3121 28.9404C17.6336 28.9404 17.0832 28.3903 17.0832 27.7114ZM1.22938 21.4762C0.550795 21.4762 1.90735e-06 22.0268 1.90735e-06 22.7053V27.7113C1.90735e-06 28.3902 0.550709 28.9403 1.22938 28.9403C3.13426 28.9403 4.84817 28.5347 6.32128 27.7352C7.78528 26.9404 9.03383 25.7996 10.0316 24.3457C11.0008 22.931 11.7353 21.2236 12.2139 19.2706C12.6802 17.3656 12.9169 15.2085 12.9169 12.859V2.28894C12.9169 1.61035 12.3663 1.06016 11.6876 1.06016H1.22947C0.55088 1.06016 0.000600815 1.61078 0.000600815 2.28894V12.859C0.000600815 13.5376 0.550795 14.0883 1.22947 14.0883H5.09611C4.91624 18.9918 3.61785 21.4762 1.22938 21.4762Z" fill="#5F85DB"/>
</g>
</svg>
