<svg width="341" height="341" viewBox="0 0 341 341" fill="none" xmlns="http://www.w3.org/2000/svg">
<rect width="7" height="7" fill="#5F85DB"/>
<rect x="333.801" width="7" height="7" fill="#5F85DB"/>
<rect x="333.801" y="333.801" width="7" height="7" fill="#5F85DB"/>
<rect y="333.801" width="7" height="7" fill="#5F85DB"/>
<path opacity="0.5" d="M3.5 3.5V337.5H337.5V3.5H3.5Z" stroke="#F3F5F8" stroke-width="0.5"/>
<path opacity="0.5" d="M170.5 5.49951L4.49973 171.5L170.5 337.5L336.5 171.5L170.5 5.49951Z" stroke="#F3F5F8" stroke-width="0.5"/>
<g clip-path="url(#clip0_1302_4131)">
<path d="M215.732 122.382C215.894 123.619 216.07 124.92 216.222 126.26C217.412 136.772 217.674 146.67 217.664 146.773L221.34 227.262C221.358 227.491 221.173 227.679 220.964 227.699L215.991 228.035L216.094 234.255C216.091 234.482 215.927 234.672 215.7 234.669L124.668 237.091C124.647 237.089 124.627 237.087 124.606 237.085C124.402 237.063 124.253 236.903 124.233 236.694L120.831 112.608L120.795 111.549C121.106 111.747 121.173 111.899 121.254 112.114C121.335 112.329 121.467 113.253 121.297 113.298L120.792 111.777L120.552 102.874C120.542 102.769 120.596 102.651 120.665 102.575C120.735 102.499 120.844 102.449 120.948 102.439L139.558 101.934C139.684 101.512 139.965 101.189 140.299 100.955C139.828 100.513 139.224 100.161 138.509 100.274C136.874 100.498 136.87 101.346 136.88 101.451C136.887 101.576 136.834 101.695 136.744 101.768C136.653 101.842 136.545 101.892 136.422 101.88L134.152 101.646C134.009 101.631 133.893 101.557 133.824 101.426C133.755 101.295 133.769 101.151 133.823 101.033C133.899 100.896 135.744 97.6296 139.284 97.9734C139.572 97.9824 141.92 98.0587 143.026 100.366C143.074 100.495 143.082 100.62 143.008 100.737C142.934 100.853 142.823 100.925 142.696 100.953C142.676 100.951 142.152 101.021 141.595 101.212C141.937 101.703 142.141 102.138 142.193 102.226L153.838 124.803C154.415 126.021 154.865 128.675 152.545 130.133C150.201 131.63 148.116 129.801 147.348 128.625C147.35 128.605 147.33 128.603 147.332 128.582L138.228 111.234C138.066 111.196 137.844 111.153 137.731 111.245C137.575 111.353 137.543 111.66 137.529 111.803L146.788 129.251C146.875 129.405 149.055 133.126 153.285 130.975C154.224 130.492 154.811 129.808 155.073 128.862C155.851 126.128 153.578 122.313 153.539 122.289C153.539 122.289 153.541 122.268 153.521 122.266L142.855 102.025C142.786 101.894 142.8 101.75 142.876 101.613C142.95 101.497 143.084 101.407 143.227 101.422L208.496 100.941C208.578 100.95 208.68 100.96 208.756 101.03C211.707 103.279 214.015 110.16 215.633 121.543L215.732 122.382ZM121.649 112.693L125.045 236.24L215.267 233.859L215.158 228.095L170.34 231.054C158.927 231.306 150.595 229.144 145.597 227.305C140.162 225.297 137.481 223.241 137.366 223.146C137.346 223.144 137.348 223.124 137.33 223.101C133.79 219.55 131.066 212.088 129.18 200.905C127.782 192.607 127.422 185.264 127.41 185.18L123.959 112.931L121.649 112.693ZM137.888 222.496C138.427 222.883 149.238 230.681 170.302 230.222L215.163 227.247L213.276 121.756C213.268 121.631 213.319 121.533 213.412 121.439C213.502 121.365 213.61 121.315 213.733 121.327L214.776 121.435C213.512 112.633 211.517 104.315 208.348 101.775L143.928 102.239L154.285 121.869C154.462 122.156 156.747 126.055 155.897 129.092C155.57 130.259 154.819 131.133 153.684 131.72C149.736 133.735 146.994 131.259 146.085 129.654L136.752 112.117C136.716 112.071 136.702 112.008 136.708 111.946C136.696 111.862 136.658 111.031 137.24 110.594C137.599 110.32 138.077 110.287 138.654 110.512C138.754 110.543 138.829 110.613 138.882 110.701L148.053 128.201C148.214 128.446 149.931 130.837 152.12 129.448C154.399 127.986 153.168 125.293 153.119 125.164L141.47 102.627C141.47 102.627 141.472 102.607 141.452 102.605C141.452 102.605 141.232 102.127 140.851 101.612C140.562 101.81 140.349 102.077 140.313 102.425C140.292 102.63 140.13 102.8 139.923 102.799L121.379 103.269L121.631 111.863L124.412 112.149C124.616 112.17 124.765 112.331 124.785 112.54L128.24 185.142C128.252 185.433 129.746 214.27 137.888 222.496ZM214.117 122.215L215.973 227.206L220.509 226.907L216.853 146.814C216.856 146.586 216.524 134.156 214.892 122.316L214.115 122.236L214.117 122.215ZM134.909 100.917L136.157 101.045C136.314 100.524 136.811 99.7056 138.426 99.4786C139.537 99.324 140.429 99.8919 141.084 100.559C141.43 100.409 141.77 100.32 142.044 100.265C141.036 98.8161 139.32 98.8257 139.299 98.8236C139.279 98.8214 139.258 98.8193 139.258 98.8193C137.009 98.5877 135.554 100.073 134.909 100.917Z" fill="#F3F5F8"/>
</g>
<defs>
<clipPath id="clip0_1302_4131">
<rect width="113" height="144" fill="white" transform="translate(121.673 92) rotate(5.87967)"/>
</clipPath>
</defs>
</svg>
