<svg width="406" height="408" viewBox="0 0 406 408" fill="none" xmlns="http://www.w3.org/2000/svg">
<rect x="399" y="199.486" width="7" height="7" fill="#5F85DB"/>
<rect y="199.486" width="7" height="7" fill="#5F85DB"/>
<rect x="34" y="367.801" width="7" height="7" fill="#5F85DB"/>
<rect x="367.801" y="367.801" width="7" height="7" fill="#5F85DB"/>
<rect x="200" y="401" width="7" height="7" fill="#5F85DB"/>
<rect x="200" width="7" height="7" fill="#5F85DB"/>
<rect x="367.801" y="34" width="7" height="7" fill="#5F85DB"/>
<rect x="34" y="34" width="7" height="7" fill="#5F85DB"/>
<path opacity="0.5" d="M37.5 37.5V371.5H371.5V37.5H37.5Z" stroke="#F3F5F8" stroke-width="0.5"/>
<path opacity="0.5" d="M204.5 39.4995L38.4997 205.5L204.5 371.5L370.5 205.5L204.5 39.4995Z" stroke="#F3F5F8" stroke-width="0.5"/>
<g clip-path="url(#clip0_792:3927)">
<path d="M249.732 156.382C249.894 157.619 250.07 158.92 250.222 160.26C251.412 170.772 251.674 180.67 251.664 180.773L255.34 261.262C255.358 261.491 255.173 261.679 254.964 261.699L249.991 262.035L250.094 268.255C250.091 268.482 249.927 268.672 249.7 268.669L158.668 271.091C158.647 271.089 158.627 271.087 158.606 271.085C158.402 271.063 158.253 270.903 158.233 270.694L154.831 146.608L154.795 145.549C155.106 145.747 155.173 145.899 155.254 146.114C155.335 146.329 155.467 147.253 155.297 147.298L154.792 145.777L154.552 136.874C154.542 136.769 154.596 136.651 154.665 136.575C154.735 136.499 154.844 136.449 154.948 136.439L173.558 135.934C173.684 135.512 173.965 135.189 174.299 134.955C173.828 134.513 173.224 134.161 172.509 134.274C170.874 134.498 170.87 135.346 170.88 135.451C170.887 135.576 170.834 135.695 170.744 135.768C170.653 135.842 170.545 135.892 170.422 135.88L168.152 135.646C168.009 135.631 167.893 135.557 167.824 135.426C167.755 135.295 167.769 135.151 167.823 135.033C167.899 134.896 169.744 131.63 173.284 131.973C173.572 131.982 175.92 132.059 177.026 134.366C177.074 134.495 177.082 134.62 177.008 134.737C176.934 134.853 176.823 134.925 176.696 134.953C176.676 134.951 176.152 135.021 175.595 135.212C175.937 135.703 176.141 136.138 176.193 136.226L187.838 158.803C188.415 160.021 188.865 162.675 186.545 164.133C184.201 165.63 182.116 163.801 181.348 162.625C181.35 162.605 181.33 162.603 181.332 162.582L172.228 145.234C172.066 145.196 171.844 145.153 171.731 145.245C171.575 145.353 171.543 145.66 171.529 145.803L180.788 163.251C180.875 163.405 183.055 167.126 187.285 164.975C188.224 164.492 188.811 163.808 189.073 162.862C189.851 160.128 187.578 156.313 187.539 156.289C187.539 156.289 187.541 156.268 187.521 156.266L176.855 136.025C176.786 135.894 176.8 135.75 176.876 135.613C176.95 135.497 177.084 135.407 177.227 135.422L242.496 134.941C242.578 134.95 242.68 134.96 242.756 135.03C245.707 137.279 248.015 144.16 249.633 155.543L249.732 156.382ZM155.649 146.693L159.045 270.24L249.267 267.859L249.158 262.095L204.34 265.054C192.927 265.306 184.595 263.144 179.597 261.305C174.162 259.297 171.481 257.241 171.366 257.146C171.346 257.144 171.348 257.124 171.33 257.101C167.79 253.55 165.066 246.088 163.18 234.905C161.782 226.607 161.422 219.264 161.41 219.18L157.959 146.931L155.649 146.693ZM171.888 256.496C172.427 256.883 183.238 264.681 204.302 264.222L249.163 261.247L247.276 155.756C247.268 155.631 247.319 155.533 247.412 155.439C247.502 155.365 247.61 155.315 247.733 155.327L248.776 155.435C247.512 146.633 245.517 138.315 242.348 135.775L177.928 136.239L188.285 155.869C188.462 156.156 190.747 160.055 189.897 163.092C189.57 164.259 188.819 165.133 187.684 165.72C183.736 167.735 180.994 165.259 180.085 163.654L170.752 146.117C170.716 146.071 170.702 146.008 170.708 145.946C170.696 145.862 170.658 145.031 171.24 144.594C171.599 144.32 172.077 144.287 172.654 144.512C172.754 144.543 172.829 144.613 172.882 144.701L182.053 162.201C182.214 162.446 183.931 164.837 186.12 163.448C188.399 161.986 187.168 159.293 187.119 159.164L175.47 136.627C175.47 136.627 175.472 136.607 175.452 136.605C175.452 136.605 175.232 136.127 174.851 135.612C174.562 135.81 174.349 136.077 174.313 136.425C174.292 136.63 174.13 136.8 173.923 136.799L155.379 137.269L155.631 145.863L158.412 146.149C158.616 146.17 158.765 146.331 158.785 146.54L162.24 219.142C162.252 219.433 163.746 248.27 171.888 256.496ZM248.117 156.215L249.973 261.206L254.509 260.907L250.853 180.814C250.856 180.586 250.524 168.156 248.892 156.316L248.115 156.236L248.117 156.215ZM168.909 134.917L170.157 135.045C170.314 134.524 170.811 133.706 172.426 133.479C173.537 133.324 174.429 133.892 175.084 134.559C175.43 134.409 175.77 134.32 176.044 134.265C175.036 132.816 173.32 132.826 173.299 132.824C173.279 132.821 173.258 132.819 173.258 132.819C171.009 132.588 169.554 134.073 168.909 134.917Z" fill="#F3F5F8"/>
</g>
<defs>
<clipPath id="clip0_792:3927">
<rect width="113" height="144" fill="white" transform="translate(155.673 126) rotate(5.87967)"/>
</clipPath>
</defs>
</svg>
