<svg width="406" height="408" viewBox="0 0 406 408" fill="none" xmlns="http://www.w3.org/2000/svg">
<path d="M303 304L403 203.649L303 104L303 304Z" stroke="#F3F5F8" stroke-opacity="0.5" stroke-width="0.5"/>
<rect x="399" y="199.486" width="7" height="7" fill="#5F85DB"/>
<path d="M104 304L3.99999 203.649L104 104L104 304Z" stroke="#F3F5F8" stroke-opacity="0.5" stroke-width="0.5"/>
<rect y="199.486" width="7" height="7" fill="#5F85DB"/>
<rect x="34" y="367.801" width="7" height="7" fill="#5F85DB"/>
<rect x="367.801" y="367.801" width="7" height="7" fill="#5F85DB"/>
<path d="M304 304L203.649 404L104 304L304 304Z" stroke="#F3F5F8" stroke-opacity="0.5" stroke-width="0.5"/>
<rect x="200" y="401" width="7" height="7" fill="#5F85DB"/>
<path d="M304 104L203.649 3.99999L104 104L304 104Z" stroke="#F3F5F8" stroke-opacity="0.5" stroke-width="0.5"/>
<rect x="200" width="7" height="7" fill="#5F85DB"/>
<rect x="367.801" y="34" width="7" height="7" fill="#5F85DB"/>
<rect x="34" y="34" width="7" height="7" fill="#5F85DB"/>
<path d="M214.109 136.996C209.788 136.551 212.556 129.011 204.987 129.336C199.791 129.563 200.087 130.961 198.512 134.417C196.948 137.873 193.819 137.169 193.819 137.169C193.819 137.169 194.147 148.978 193.174 150.376C191.687 152.51 188.219 152.076 181.077 152.423C173.924 152.77 172.71 160.191 172.71 160.191L236.17 160.18C236.17 160.18 235.82 152.932 228.492 152.412C225.014 152.163 222.071 151.914 219.971 151.719C217.992 151.535 216.504 149.866 216.559 147.905L216.46 138.946H192.047V147.266C192.047 148.772 190.812 149.996 189.291 150.007L166.683 150.148C163.697 150.159 161.302 152.564 161.313 155.522L161.499 187.558L171.189 187.579C171.189 187.579 170.38 185.348 169.964 184.643C168.225 181.707 165.983 181.783 165.983 181.783C165.983 181.783 168.652 179.14 171.332 183.257C173.092 179.432 175.346 176.572 180.388 176.485C173.092 180.039 172.25 187.59 172.25 187.59L243.028 187.655L243.094 185.174L181.744 185.033V181.653L242.94 181.642V179.14L181.744 179.302V176.117L243.389 175.911V173.56L163.03 173.43L162.953 200.559L163.041 214.773H171.277C171.277 214.773 170.467 212.541 170.052 211.837C168.313 208.901 166.071 208.977 166.071 208.977C166.071 208.977 168.739 206.333 171.419 210.45C173.18 206.626 175.433 203.765 180.475 203.679C173.169 207.222 172.316 214.773 172.316 214.773L243.094 214.838L243.159 212.357L181.81 212.205V208.825L243.006 208.814V206.311L181.81 206.474V203.289L243.454 203.083V200.732L161.652 200.624L161.553 241.251L171.135 241.414C171.135 241.414 170.325 239.182 169.91 238.478C168.171 235.542 165.928 235.617 165.928 235.617C165.928 235.617 168.597 232.974 171.277 237.091C173.038 233.266 175.291 230.406 180.333 230.32C173.027 233.862 172.174 241.414 172.174 241.414L242.951 241.479L243.017 238.998L181.668 238.857V235.477L242.864 235.466V232.963L181.668 233.126V229.94L243.312 229.735V227.384L162.953 227.221L163.041 248.748V264.642L171.135 264.653C171.135 264.653 170.325 262.421 169.91 261.717C168.171 258.781 165.928 258.856 165.928 258.856C165.928 258.856 168.597 256.213 171.277 260.33C173.038 256.505 175.291 253.645 180.333 253.559C173.027 257.101 172.174 264.653 172.174 264.653L242.951 264.718L243.017 262.237L181.668 262.096V258.716L242.864 258.705V256.202L181.668 256.365V253.179L243.312 252.974V250.623L161.4 250.536V267.09L161.466 271.651C161.466 274.598 163.872 276.982 166.836 277.003L250.236 277.447C253.244 277.458 255.694 275.032 255.661 272.052L254.523 145.966C254.502 143.03 252.084 140.668 249.12 140.668L158.731 140.679C155.756 140.679 153.339 143.063 153.328 146.009L153.405 271.911C153.405 274.002 154.586 275.909 156.456 276.862L160.569 277.675" stroke="#F3F5F8" stroke-width="0.6" stroke-miterlimit="10" stroke-linecap="round" stroke-linejoin="round"/>
</svg>
