<svg width="432" height="495" viewBox="0 0 432 495" fill="none" xmlns="http://www.w3.org/2000/svg">
<path fill-rule="evenodd" clip-rule="evenodd" d="M424 0H0V495H424V0ZM316.665 100.299C288.6 58.3545 260.533 16.4066 212.374 7.80309C143.112 -4.57025 64.2694 24.7126 23.3573 81.9527C-1.8963 117.285 6.56756 160.067 15.255 203.979C19.6697 226.293 24.1422 248.9 24.277 270.969C24.4102 292.775 19.6573 315.661 14.9657 338.252C5.73607 382.694 -3.25663 425.996 25.6529 457.69C69.4936 505.753 148.62 490.126 212.374 477.182C262.868 466.929 299.709 431.172 336.067 394.662C340.467 390.243 344.979 385.83 349.514 381.396C382.325 349.308 416.311 316.071 417.728 270.969C419.055 228.751 391.183 195.694 363.463 162.817C356.865 154.992 350.276 147.177 344.092 139.251C334.519 126.983 325.592 113.641 316.665 100.299Z" fill="white"/>
<path fill-rule="evenodd" clip-rule="evenodd" d="M225.172 10.8031C288.651 22.1433 317.221 91.4139 356.89 142.251C389.06 183.477 432.169 221.703 430.527 273.969C428.914 325.304 385.107 361.269 348.866 397.662C312.508 434.172 275.667 469.929 225.172 480.182C161.419 493.126 82.2925 508.753 38.4517 460.69C-5.15327 412.885 37.4711 338.672 37.0758 273.969C36.6757 208.471 -1.93062 138.24 36.1562 84.9527C77.0683 27.7126 155.911 -1.57025 225.172 10.8031Z" stroke="#EBF1FF"/>
</svg>
