<svg width="296" height="50" viewBox="0 0 296 50" fill="none" xmlns="http://www.w3.org/2000/svg">
<mask id="mask0_57_1418" style="mask-type:luminance" maskUnits="userSpaceOnUse" x="26" y="4" width="34" height="42">
<path d="M30.2844 18.5458C27.9276 21.4383 26.428 25.0853 26.428 29.1169C26.428 38.1648 33.7443 45.5 42.7678 45.5C51.7923 45.5 59.1074 38.1648 59.1074 29.1169C59.1074 27.6011 58.9014 26.1352 58.5172 24.7416C57.0109 18.9258 51.3346 11.5686 42.9002 4.5C39.3879 10.9414 34.4895 13.3865 30.2844 18.5458Z" fill="white"/>
</mask>
<g mask="url(#mask0_57_1418)">
<path d="M26.428 4.5H59.1074V45.5H26.428V4.5Z" fill="#0F8BCC"/>
</g>
<path d="M27.7734 29.3883C27.7734 38.0064 34.7247 45.0086 43.3189 45.0086C51.9131 45.0086 58.8643 38.0064 58.8643 29.3883C58.8643 20.7385 52.3239 13.7363 43.3189 13.7363C34.7247 13.7363 27.7734 20.7385 27.7734 29.3883Z" fill="url(#paint0_linear_57_1418)"/>
<path d="M29.2832 25.2092C29.5363 27.5309 31.6401 28.5045 34.1869 28.3847C36.5123 28.2798 38.7902 28.3997 42.3652 28.3997C46.6995 28.3997 51.0813 28.834 53.9128 29.1336C56.254 29.3883 57.6935 28.0701 57.7093 25.2092V25.1792C57.7093 19.8618 51.6507 13.7205 43.4409 13.7205C35.5632 13.7205 28.7137 19.9816 29.2832 25.2092Z" fill="url(#paint1_radial_57_1418)"/>
<path d="M72.152 32.5397C72.152 33.1198 72.1559 33.6456 72.1604 34.1209C72.1668 34.5988 72.1707 35.025 72.1842 35.4156C72.1939 35.6536 72.3642 35.8185 72.6918 35.9071L74.3247 36.4148L74.3563 37.0434C73.1071 37.0098 71.914 36.9975 70.7622 36.9975C69.593 36.9975 68.3973 37.0098 67.1694 37.0434L67.1133 36.4148L68.8945 35.88C69.139 35.8101 69.2666 35.6601 69.286 35.4299C69.2963 35.0438 69.3028 34.6085 69.3092 34.1274C69.3163 33.6508 69.3176 33.1198 69.3176 32.5397V20.7613C69.3176 20.2672 69.3163 19.8223 69.3092 19.4252C69.3028 19.0301 69.2963 18.6718 69.286 18.3523C69.277 18.1007 69.1622 17.9391 68.9384 17.8582L67.1442 17.2924L67.1133 16.667C68.3573 16.7097 69.5581 16.7258 70.7055 16.7258C71.8644 16.7258 73.0613 16.7097 74.2957 16.667L74.3563 17.2924L72.5583 17.8265C72.3268 17.888 72.2004 18.0354 72.1842 18.276C72.1707 18.6168 72.1668 18.9861 72.1604 19.389C72.1559 19.7899 72.152 20.2278 72.152 20.7024V32.5397Z" fill="#0F8BCC"/>
<path d="M82.2321 35.7043C82.8054 35.7825 83.3607 35.8336 83.9069 35.8563C84.4538 35.8834 84.9994 35.8944 85.5508 35.8944C88.0995 35.8944 90.0381 35.141 91.3731 33.6361C92.7061 32.1299 93.3736 29.8219 93.3736 26.7157C93.3736 23.6943 92.7397 21.4541 91.4724 19.999C90.209 18.5407 88.2066 17.8145 85.4631 17.8145C85.0265 17.8145 84.5492 17.8242 84.0204 17.8416C83.4961 17.8617 82.8996 17.8979 82.2321 17.9483V35.7043ZM80.8403 36.997C79.6737 36.997 78.48 37.01 77.2501 37.043L77.1934 36.4163L78.9727 35.8795C79.2255 35.8032 79.3538 35.65 79.3628 35.432C79.3751 35.0421 79.3854 34.6088 79.388 34.1276C79.3945 33.6503 79.3964 33.12 79.3964 32.5393V20.7615C79.3964 20.2648 79.3945 19.8193 79.388 19.4248C79.3854 19.0303 79.3751 18.6714 79.3628 18.3519C79.3538 18.0977 79.2403 17.9386 79.0178 17.8604L77.2211 17.2894L77.1934 16.6653C78.438 16.7099 79.6511 16.7254 80.8274 16.7254C81.7922 16.7254 82.7248 16.7009 83.6199 16.6504C84.5196 16.6064 85.4373 16.5806 86.3847 16.5806C89.7556 16.5806 92.2972 17.3514 93.994 18.8932C95.6895 20.4382 96.5408 22.7294 96.5408 25.7702C96.5408 29.3504 95.5998 32.1338 93.7109 34.1121C91.8284 36.0949 89.1849 37.0837 85.7765 37.0837C84.8395 37.0837 84.0056 37.0701 83.2723 37.043C82.5416 37.01 81.7323 36.997 80.8403 36.997Z" fill="#0F8BCC"/>
<path d="M109.526 17.9915C108.513 17.6494 107.582 17.4799 106.731 17.4799C105.458 17.4799 104.445 17.7929 103.685 18.4054C102.927 19.0288 102.546 19.8896 102.546 20.9961C102.546 21.6208 102.681 22.1718 102.946 22.651C103.211 23.1257 103.567 23.5402 104.018 23.8998C104.465 24.2561 104.977 24.5769 105.543 24.8575C106.112 25.1389 106.702 25.4137 107.314 25.6834C107.979 25.9751 108.625 26.2829 109.252 26.6062C109.88 26.9296 110.446 27.3118 110.956 27.747C111.459 28.1842 111.866 28.7087 112.171 29.3133C112.475 29.9251 112.628 30.6391 112.628 31.4507C112.628 33.3772 111.876 34.8472 110.376 35.8638C108.875 36.8791 106.929 37.3875 104.543 37.3875C103.01 37.3875 101.312 37.1281 99.451 36.6062L99.3594 36.4898L100.067 31.5516L100.722 31.4507L101.735 35.576C102.763 35.9809 103.809 36.1865 104.879 36.1865C106.319 36.1865 107.439 35.8638 108.244 35.2255C109.052 34.5853 109.456 33.6773 109.456 32.4977C109.456 31.8769 109.325 31.3317 109.062 30.8654C108.801 30.3895 108.456 29.9892 108.014 29.649C107.574 29.3095 107.075 29.0023 106.515 28.7287C105.957 28.45 105.377 28.1777 104.778 27.9068C104.102 27.6177 103.445 27.3014 102.809 26.9613C102.169 26.6256 101.596 26.2305 101.078 25.7785C100.562 25.3271 100.149 24.778 99.8418 24.1216C99.5303 23.471 99.3768 22.7079 99.3768 21.8361C99.3768 20.0836 100.107 18.7307 101.569 17.7697C103.035 16.8106 104.845 16.332 107.01 16.332C108.533 16.332 110.131 16.5092 111.8 16.8669L111.904 16.9716L111.046 21.5031L110.469 21.6046L109.526 17.9915Z" fill="#0F8BCC"/>
<path d="M143.894 17.6315C143.629 17.6426 143.238 17.701 142.725 17.8036C142.213 17.9095 141.794 18.0673 141.471 18.2758C141.148 18.4953 140.924 18.9465 140.8 19.6327C140.677 20.32 140.616 21.1574 140.616 22.1491V30.9692C140.616 32.0934 140.383 33.0697 139.918 33.8993C139.451 34.7278 138.839 35.4096 138.078 35.9436C137.327 36.4576 136.536 36.8261 135.704 37.0501C134.873 37.2751 134.077 37.3876 133.317 37.3876C132.1 37.3876 131.018 37.2277 130.068 36.9089C129.117 36.59 128.319 36.1576 127.672 35.6148C127.036 35.0709 126.555 34.4498 126.232 33.7493C125.91 33.0477 125.749 32.3184 125.749 31.555V19.5621C125.749 19.229 125.693 18.9498 125.583 18.7259C125.475 18.503 125.255 18.2956 124.922 18.1048C124.683 17.9713 124.38 17.8632 124.009 17.7816C123.639 17.7021 123.334 17.6514 123.098 17.6315V16.6177H131.521V17.6315C131.255 17.6426 130.92 17.6856 130.516 17.7606C130.112 17.8378 129.815 17.9095 129.625 17.9757C129.302 18.0893 129.086 18.2802 128.976 18.5472C128.867 18.813 128.813 19.1032 128.813 19.4176V30.6173C128.813 31.159 128.872 31.7271 128.991 32.3217C129.11 32.9164 129.344 33.4724 129.696 33.9865C130.068 34.5094 130.571 34.9385 131.208 35.2717C131.845 35.6038 132.72 35.7715 133.831 35.7715C134.876 35.7715 135.753 35.6038 136.46 35.2717C137.169 34.9385 137.727 34.5017 138.136 33.9578C138.525 33.4437 138.8 32.9064 138.962 32.3438C139.123 31.7812 139.204 31.2152 139.204 30.6438V22.3312C139.204 21.2754 139.129 20.4127 138.976 19.7386C138.824 19.069 138.6 18.6277 138.306 18.4192C137.973 18.1787 137.519 17.9934 136.946 17.861C136.37 17.7275 135.931 17.6514 135.626 17.6315V16.6177H143.894V17.6315Z" fill="#0F8BCC"/>
<path d="M166.837 36.8995H161.164C160.071 35.2039 158.857 33.5204 157.522 31.8469C156.186 30.1744 154.787 28.5527 153.324 26.9818H152.953V34.0411C152.953 34.3567 153.013 34.6369 153.132 34.8851C153.249 35.1322 153.466 35.333 153.78 35.4852C153.933 35.5514 154.215 35.6342 154.628 35.729C155.041 35.8239 155.386 35.8758 155.662 35.8857V36.8995H147.266V35.8857C147.483 35.8658 147.802 35.8383 148.221 35.7997C148.639 35.7621 148.935 35.7048 149.104 35.6287C149.39 35.504 149.596 35.3209 149.724 35.0793C149.853 34.8366 149.917 34.542 149.917 34.1989V19.5616C149.917 19.2373 149.862 18.9571 149.753 18.7188C149.643 18.4816 149.427 18.2852 149.104 18.1319C148.848 18.0083 148.543 17.898 148.193 17.8031C147.84 17.7083 147.531 17.6509 147.266 17.631V16.6172H155.662V17.631C155.396 17.6421 155.062 17.6851 154.664 17.7601C154.265 17.8373 153.97 17.909 153.78 17.9752C153.457 18.0889 153.238 18.2797 153.124 18.5467C153.011 18.8126 152.953 19.1049 152.953 19.4193V26.4235H153.238C154.093 25.6987 154.935 24.9442 155.761 24.1576C156.588 23.371 157.339 22.5866 158.013 21.8055C158.764 20.9395 159.312 20.2445 159.661 19.726C160.006 19.2086 160.18 18.7475 160.18 18.3481C160.18 18.2036 160.092 18.0878 159.916 17.9962C159.74 17.9068 159.538 17.8329 159.31 17.7755C159.044 17.7182 158.807 17.6829 158.598 17.6663C158.388 17.6542 158.218 17.6421 158.084 17.631V16.6172H165.668V17.631C165.639 17.631 165.578 17.6376 165.483 17.6465C165.388 17.6564 165.278 17.6652 165.155 17.6752C165.022 17.6851 164.889 17.7038 164.756 17.7325C164.624 17.7601 164.452 17.7954 164.244 17.8329C163.911 17.909 163.566 18.0304 163.21 18.1981C162.855 18.3636 162.562 18.571 162.334 18.8181C161.356 19.9334 160.335 21.0863 159.274 22.2788C158.211 23.4714 157.157 24.558 156.114 25.541C157.56 27.1781 158.757 28.588 159.704 29.7696C160.65 30.9511 161.656 32.2131 162.722 33.5568C163.129 34.072 163.535 34.4824 163.942 34.7924C164.349 35.1024 164.7 35.333 164.991 35.4852C165.238 35.6099 165.546 35.7048 165.914 35.7721C166.283 35.8383 166.59 35.8758 166.837 35.8857V36.8995Z" fill="#0F8BCC"/>
<path d="M181.892 21.7857C181.892 20.5589 181.542 19.5859 180.838 18.8677C180.134 18.1484 179.142 17.7899 177.859 17.7899H175.435V26.4809H177.302C178.615 26.4809 179.707 26.0595 180.582 25.2166C181.456 24.376 181.892 23.2331 181.892 21.7857ZM189.391 36.8995H183.944C182.738 35.0042 181.648 33.366 180.676 31.9826C179.703 30.6025 178.647 29.1771 177.507 27.7099H175.435V34.1415C175.435 34.4758 175.488 34.7693 175.591 35.0219C175.697 35.2756 175.92 35.4665 176.263 35.6C176.433 35.6662 176.733 35.7301 177.16 35.7864C177.588 35.8438 177.949 35.8758 178.244 35.8857V36.8995H169.691V35.8857C169.919 35.8669 170.249 35.8327 170.683 35.7864C171.114 35.7368 171.416 35.6761 171.587 35.6C171.873 35.4764 172.079 35.2955 172.206 35.0561C172.335 34.8178 172.399 34.5133 172.399 34.1415V19.4756C172.399 19.1424 172.352 18.8479 172.257 18.5908C172.161 18.3327 171.939 18.1374 171.587 18.005C171.349 17.9179 171.041 17.8384 170.661 17.7678C170.28 17.6972 169.957 17.6509 169.691 17.631V16.6172H179.027C179.883 16.6172 180.686 16.7065 181.437 16.8831C182.188 17.0585 182.868 17.342 183.475 17.7325C184.065 18.1142 184.535 18.6118 184.887 19.2274C185.238 19.8396 185.414 20.5821 185.414 21.4492C185.414 22.2303 185.295 22.922 185.057 23.521C184.82 24.1223 184.469 24.6419 184.002 25.0798C183.574 25.4891 183.061 25.8433 182.464 26.1455C181.865 26.4456 181.204 26.6993 180.482 26.9101C181.479 28.2339 182.309 29.3481 182.969 30.2539C183.629 31.1596 184.439 32.2606 185.399 33.5568C185.817 34.1283 186.195 34.5497 186.534 34.82C186.869 35.0925 187.205 35.3142 187.537 35.4852C187.783 35.6099 188.094 35.7048 188.464 35.7721C188.835 35.8383 189.144 35.8758 189.391 35.8857V36.8995Z" fill="#0F8BCC"/>
<path d="M204.052 28.6096L200.989 20.7382L197.969 28.6096H204.052ZM212.19 36.9001H203.782V35.8863C204.524 35.8388 205.138 35.7428 205.628 35.6005C206.118 35.4571 206.362 35.2806 206.362 35.0699C206.362 34.9861 206.352 34.8801 206.332 34.7566C206.314 34.6319 206.285 34.5227 206.249 34.4278L204.573 29.8826H197.473C197.206 30.5501 196.99 31.1304 196.823 31.6257C196.657 32.1221 196.507 32.58 196.374 32.9992C196.249 33.4085 196.164 33.7416 196.115 33.9998C196.068 34.2568 196.045 34.4664 196.045 34.6275C196.045 35.0092 196.344 35.3038 196.943 35.5145C197.542 35.7241 198.217 35.8488 198.968 35.8863V36.9001H191.35V35.8863C191.597 35.8664 191.906 35.8123 192.276 35.7208C192.648 35.6314 192.95 35.509 193.189 35.3556C193.57 35.1008 193.863 34.8316 194.072 34.5503C194.281 34.269 194.486 33.8806 194.684 33.3853C195.702 30.8391 196.824 27.9807 198.049 24.809C199.275 21.634 200.368 18.8087 201.328 16.332H202.469L209.209 33.8266C209.352 34.1984 209.515 34.4984 209.696 34.7279C209.876 34.9563 210.127 35.1813 210.45 35.3998C210.669 35.5332 210.954 35.6447 211.306 35.7351C211.657 35.8278 211.952 35.8763 212.19 35.8863V36.9001Z" fill="#0F8BCC"/>
<path d="M224.044 36.8995H214.936V35.8857C215.191 35.8658 215.562 35.8383 216.046 35.7997C216.532 35.7621 216.873 35.7048 217.073 35.6287C217.387 35.504 217.614 35.3341 217.756 35.1223C217.899 34.9072 217.971 34.6093 217.971 34.2276V19.5341C217.971 19.1998 217.918 18.9218 217.815 18.6956C217.709 18.4728 217.463 18.2852 217.073 18.1319C216.787 18.0183 216.428 17.9123 215.997 17.8109C215.564 17.7105 215.211 17.6509 214.936 17.631V16.6172H224.044V17.631C223.748 17.6421 223.397 17.6774 222.989 17.7413C222.579 17.8009 222.224 17.8792 221.918 17.9752C221.557 18.0889 221.316 18.2753 221.192 18.5334C221.069 18.7905 221.007 19.0762 221.007 19.3906V34.072C221.007 34.3842 221.075 34.6645 221.214 34.9072C221.352 35.1488 221.587 35.3429 221.918 35.4852C222.118 35.5614 222.444 35.6441 222.896 35.7346C223.346 35.8272 223.73 35.8758 224.044 35.8857V36.8995Z" fill="#0F8BCC"/>
<path d="M249.13 17.6315C248.863 17.6426 248.455 17.7187 247.903 17.861C247.353 18.0055 246.957 18.1522 246.72 18.3045C246.377 18.5428 246.147 18.9995 246.029 19.6769C245.909 20.3531 245.851 21.2103 245.851 22.2495V37.1008H244.611L232.351 20.5054V30.9692C232.351 32.1408 232.425 33.0421 232.571 33.671C232.72 34.2998 232.945 34.7466 233.249 35.0136C233.468 35.2232 233.919 35.4195 234.604 35.6005C235.288 35.7814 235.739 35.8763 235.958 35.8862V36.9H227.661V35.8862C227.919 35.8663 228.351 35.7737 228.96 35.6071C229.568 35.4416 229.947 35.2916 230.099 35.1581C230.432 34.8911 230.66 34.4818 230.784 33.9346C230.907 33.3874 230.968 32.4519 230.968 31.1248V21.1353C230.968 20.6962 230.894 20.2582 230.741 19.8192C230.588 19.3812 230.384 19.0425 230.129 18.8053C229.786 18.4887 229.323 18.2217 228.738 17.9967C228.154 17.7738 227.681 17.6514 227.32 17.6315V16.6177H233.099L244.468 32.0813V22.4349C244.468 21.2533 244.391 20.3465 244.239 19.7122C244.088 19.0778 243.87 18.6575 243.584 18.4468C243.318 18.2659 242.883 18.0893 242.279 17.9184C241.676 17.7463 241.218 17.6514 240.904 17.6315V16.6177H249.13V17.6315Z" fill="#0F8BCC"/>
<path d="M269.569 30.9268L269.182 36.8995H252.391V35.8857C252.677 35.8669 253.056 35.8272 253.531 35.7655C254.007 35.7015 254.316 35.6386 254.458 35.5713C254.763 35.4279 254.973 35.2414 255.093 35.0131C255.21 34.7847 255.27 34.4946 255.27 34.1415V19.5616C255.27 19.2472 255.218 18.9681 255.112 18.7254C255.01 18.4838 254.79 18.2852 254.458 18.1319C254.201 18.0083 253.856 17.898 253.424 17.8031C252.992 17.7083 252.648 17.6509 252.391 17.631V16.6172H268.042V21.5066H266.974C266.783 20.7818 266.372 20.0106 265.741 19.1976C265.108 18.3834 264.507 17.9366 263.938 17.8605C263.642 17.8219 263.291 17.7954 262.883 17.7755C262.473 17.7568 262.008 17.7458 261.486 17.7458H258.306V25.808H260.588C261.318 25.808 261.853 25.7396 262.191 25.6017C262.528 25.4638 262.824 25.2321 263.083 24.9077C263.291 24.6319 263.469 24.2624 263.617 23.8012C263.764 23.3379 263.861 22.9032 263.908 22.4917H264.977V30.4392H263.908C263.871 29.9825 263.768 29.4993 263.602 28.9874C263.435 28.4788 263.263 28.1092 263.083 27.8809C262.787 27.5091 262.451 27.2675 262.076 27.1528C261.701 27.0391 261.204 26.9818 260.588 26.9818H258.306V33.0615C258.306 33.6683 258.349 34.1504 258.435 34.5012C258.521 34.8531 258.686 35.1201 258.933 35.301C259.181 35.4819 259.517 35.5978 259.945 35.6496C260.373 35.7015 260.981 35.7302 261.77 35.7302H263.01C263.523 35.7302 263.955 35.7103 264.307 35.6728C264.668 35.6342 265.042 35.5625 265.425 35.4654C265.811 35.3639 266.085 35.2282 266.246 35.0561C266.683 34.5994 267.141 33.9055 267.622 32.9766C268.103 32.0488 268.407 31.3648 268.542 30.9268H269.569Z" fill="#0F8BCC"/>
<defs>
<linearGradient id="paint0_linear_57_1418" x1="43.3189" y1="13.4195" x2="43.3189" y2="45.1037" gradientUnits="userSpaceOnUse">
<stop stop-color="#1E94D2"/>
<stop offset="0.27" stop-color="#1E94D2"/>
<stop offset="0.61" stop-color="#2AAAE2"/>
<stop offset="1" stop-color="white"/>
</linearGradient>
<radialGradient id="paint1_radial_57_1418" cx="0" cy="0" r="1" gradientUnits="userSpaceOnUse" gradientTransform="translate(43.5358 28.9037) scale(15.8187 14.9788)">
<stop stop-color="#2AAAE2"/>
<stop offset="0.81" stop-color="#90C7EC"/>
<stop offset="1" stop-color="white"/>
</radialGradient>
</defs>
</svg>
