<svg width="168" height="50" viewBox="0 0 168 50" fill="none" xmlns="http://www.w3.org/2000/svg">
<path d="M9.39665 41.1319C3.64181 35.8519 3.32756 26.9841 8.68957 21.3173C14.0516 15.6504 23.057 15.3409 28.8119 20.621H34.7926C34.7336 20.5243 34.6649 20.4372 34.606 20.3502C33.2507 18.3678 31.5223 16.6658 29.5091 15.3313C24.2257 11.8112 17.4888 11.173 11.6161 13.6196C8.24765 15.0218 5.37023 17.3621 3.31774 20.3502C-0.247121 25.5529 -0.895277 32.1771 1.58932 37.96C3.0133 41.277 5.38987 44.1201 8.42442 46.1315C11.5375 48.201 15.2104 49.3131 18.9717 49.3034C21.4956 49.3131 23.99 48.8102 26.3174 47.8432C29.6859 46.441 32.5731 44.1008 34.6158 41.1126C34.7238 40.9482 34.8417 40.7838 34.9497 40.6097H29.352C23.9507 46.1122 15.0827 46.3443 9.39665 41.1319Z" fill="#FF4013"/>
<path d="M166.742 29.2178C165.632 26.6358 163.786 24.4213 161.419 22.8547C158.994 21.2397 156.136 20.3791 153.209 20.3888C151.245 20.3888 149.301 20.7756 147.494 21.5299C144.872 22.6226 142.623 24.4407 141.032 26.7712C138.253 30.8231 137.742 35.9775 139.677 40.4839C140.786 43.0659 142.633 45.2804 144.999 46.847C149.114 49.5837 154.349 50.0866 158.925 48.1815C161.547 47.0888 163.786 45.2707 165.387 42.9402C168.166 38.8786 168.677 33.7146 166.742 29.2178ZM153.18 44.8936C147.533 44.8839 142.947 40.3775 142.947 34.817C142.947 29.2469 147.533 24.7404 153.18 24.7404C158.837 24.7404 163.413 29.2565 163.413 34.817C163.413 40.3775 158.837 44.8936 153.18 44.8936Z" fill="#FF4013"/>
<path d="M65.0894 20.3888C57.2821 20.1954 50.8005 26.278 50.6041 33.9564C50.5943 34.2561 50.5943 34.5559 50.6139 34.8557C50.6139 43.327 56.8205 49.3807 66.1304 49.3807C70.4318 49.5837 74.5957 47.8914 77.5026 44.7679L74.6252 41.4413C72.4941 43.7331 69.4497 44.9806 66.2973 44.8743C60.5818 44.8743 56.4964 41.5476 55.8483 36.5674H79.2506C79.3096 36.0838 79.3587 35.4456 79.3587 35.0104C79.3587 26.2877 73.427 20.3888 65.0894 20.3888ZM55.8385 32.8829C56.2215 28.1734 60.297 24.5857 65.0894 24.7405C69.8818 24.5954 73.9574 28.1734 74.3404 32.8829H55.8385Z" fill="#FF4013"/>
<path d="M51.37 20.3887C46.3124 20.3887 42.7181 22.1003 40.862 25.427V20.6594H35.8535V49.0711H41.078V34.9136C41.078 28.6956 44.5643 25.3206 50.1719 25.3206C50.5745 25.3109 50.9673 25.3303 51.37 25.3786V20.3887Z" fill="#FF4013"/>
<path d="M124.424 45.0484C121.546 45.0484 120.623 43.3368 120.623 40.2809V24.8953H128.892V20.6596H120.613V12.3237H115.389V20.6596H113.592V24.8953H115.389V40.4937C115.389 46.2282 117.991 49.3904 123.815 49.3904C125.867 49.4678 127.881 48.7522 129.413 47.408L127.782 43.7139C126.899 44.5842 125.691 45.0581 124.424 45.0484Z" fill="#FF4013"/>
<path d="M136.572 20.6597H131.348V49.0617H136.572V20.6597Z" fill="#FF4013"/>
<path d="M106.041 24.6147C105.383 23.9668 104.666 23.3672 103.88 22.8547C101.455 21.2397 98.5969 20.3791 95.6704 20.3888C93.7063 20.3888 91.7618 20.7756 89.9548 21.5299C87.3327 22.6226 85.0838 24.4407 83.4929 26.7712C80.7137 30.8231 80.203 35.9775 82.1377 40.4839C83.2474 43.0659 85.0936 45.2804 87.4604 46.847C91.5752 49.5837 96.8096 50.0866 101.386 48.1815C103.134 47.4562 104.705 46.3925 106.041 45.087V49.0809H110.548V20.6595H106.041V24.6147ZM95.6507 44.8936C90.0039 44.8839 85.4177 40.3775 85.4177 34.817C85.4177 29.2469 90.0039 24.7404 95.6507 24.7404C101.307 24.7404 105.884 29.2565 105.884 34.817C105.884 40.3775 101.298 44.8936 95.6507 44.8936Z" fill="#FF4013"/>
<path d="M145.754 12.1205L125.534 16.743L131.554 12.1205L106.885 0.603027L145.754 12.1205Z" fill="#0D2E4E"/>
<path d="M145.754 12.1205H131.554L106.885 0.603027L145.754 12.1205Z" fill="#1A4580"/>
</svg>
