<svg width="160" height="46" viewBox="0 0 160 46" fill="none" xmlns="http://www.w3.org/2000/svg">
<g clip-path="url(#clip0_57_1514)">
<mask id="mask0_57_1514" style="mask-type:luminance" maskUnits="userSpaceOnUse" x="0" y="0" width="160" height="45">
<path d="M159.659 0H0.341797V44.9558H159.659V0Z" fill="white"/>
</mask>
<g mask="url(#mask0_57_1514)">
<path d="M15.327 0H0.341797V44.9558H15.327V0Z" fill="#2C3038"/>
<path d="M30.3114 29.9706C33.2753 29.9706 36.1725 29.0916 38.6367 27.4451C41.1011 25.7985 43.0218 23.4581 44.1559 20.7199C45.2902 17.9817 45.587 14.9686 45.0087 12.0618C44.4305 9.15494 43.0034 6.48482 40.9076 4.38909C38.8119 2.29336 36.1417 0.866154 33.2349 0.287945C30.328 -0.290265 27.315 0.00649235 24.5768 1.14069C21.8385 2.27489 19.4983 4.19559 17.8516 6.65991C16.205 9.12422 15.3262 12.0215 15.3262 14.9852H30.3114V29.9706Z" fill="#2C3038"/>
<path d="M16.4669 35.7053C15.7138 33.8872 15.3262 31.9386 15.3262 29.9707H45.2968V44.9559H30.3115C28.3436 44.9559 26.395 44.5684 24.5769 43.8152C22.7588 43.0622 21.1068 41.9584 19.7154 40.5669C18.3238 39.1754 17.22 37.5235 16.4669 35.7053Z" fill="#2C3038"/>
<path d="M30.3114 14.9854H15.3262V29.9706H30.3114V14.9854Z" fill="#9ACEA8"/>
<path d="M53.0508 0.0615234H61.0771C62.3537 0.0615234 63.4816 0.323823 64.4608 0.848421C65.44 1.35553 66.2007 2.06374 66.7427 2.97305C67.2849 3.88235 67.5559 4.91407 67.5559 6.06818C67.5559 7.58952 67.0663 8.89227 66.0871 9.97644C65.1077 11.0431 63.8138 11.6901 62.205 11.9174L69.051 19.3405H64.3296L57.5361 11.9962H56.618V19.3405H53.0508V0.0615234ZM61.0771 8.7961C61.9164 8.7961 62.5897 8.55127 63.0968 8.06166C63.604 7.55454 63.8575 6.8988 63.8575 6.0944C63.8575 5.30751 63.604 4.66925 63.0968 4.17963C62.5897 3.68999 61.9164 3.44519 61.0771 3.44519H56.618V8.7961H61.0771Z" fill="#2C3038"/>
<path d="M69.9082 12.442C69.9082 11.0781 70.2055 9.854 70.8 8.76983C71.4121 7.68566 72.2428 6.83755 73.2919 6.22553C74.3585 5.59601 75.5564 5.28125 76.8854 5.28125C78.2669 5.28125 79.4734 5.57852 80.5051 6.17307C81.5369 6.75013 82.3325 7.58075 82.8921 8.66491C83.4516 9.74908 83.7314 11.0081 83.7314 12.442C83.7314 12.8617 83.7052 13.3076 83.6528 13.7797H73.4231C73.5805 14.6541 73.9739 15.3186 74.6035 15.7732C75.2329 16.2104 76.0636 16.429 77.0952 16.429C77.8122 16.429 78.4505 16.2891 79.01 16.0093C79.5871 15.7121 80.0068 15.3448 80.2691 14.9076L83.0233 16.7437C82.4112 17.618 81.563 18.3176 80.4789 18.8421C79.3947 19.3492 78.2143 19.6028 76.9379 19.6028C75.5564 19.6028 74.3324 19.3143 73.2656 18.7372C72.199 18.1426 71.3684 17.3121 70.7738 16.2453C70.1968 15.1612 69.9082 13.8934 69.9082 12.442ZM80.1903 10.8158C79.8231 9.31192 78.6778 8.55999 76.7542 8.55999C75.8624 8.55999 75.1367 8.75234 74.5772 9.13705C74.0176 9.52175 73.6504 10.0813 73.4756 10.8158H80.1903Z" fill="#2C3038"/>
<path d="M87.9855 5.56982L91.8151 15.4323L95.6971 5.56982H99.2381L93.7037 19.3405H89.8478L84.2871 5.56982H87.9855Z" fill="#2C3038"/>
<path d="M99.6016 12.442C99.6016 11.0781 99.8989 9.854 100.493 8.76983C101.105 7.68566 101.936 6.83755 102.985 6.22553C104.052 5.59601 105.25 5.28125 106.579 5.28125C107.96 5.28125 109.167 5.57852 110.199 6.17307C111.23 6.75013 112.026 7.58075 112.585 8.66491C113.145 9.74908 113.424 11.0081 113.424 12.442C113.424 12.8617 113.399 13.3076 113.346 13.7797H103.116C103.274 14.6541 103.667 15.3186 104.297 15.7732C104.926 16.2104 105.757 16.429 106.789 16.429C107.506 16.429 108.144 16.2891 108.703 16.0093C109.28 15.7121 109.7 15.3448 109.962 14.9076L112.717 16.7437C112.105 17.618 111.256 18.3176 110.172 18.8421C109.088 19.3492 107.908 19.6028 106.631 19.6028C105.25 19.6028 104.026 19.3143 102.959 18.7372C101.892 18.1426 101.062 17.3121 100.467 16.2453C99.8901 15.1612 99.6016 13.8934 99.6016 12.442ZM109.884 10.8158C109.516 9.31192 108.371 8.55999 106.448 8.55999C105.556 8.55999 104.83 8.75234 104.271 9.13705C103.711 9.52175 103.344 10.0813 103.169 10.8158H109.884Z" fill="#2C3038"/>
<path d="M125.037 11.6027C125.037 10.6234 124.81 9.87149 124.355 9.34689C123.9 8.8223 123.253 8.56 122.414 8.56C121.434 8.56 120.657 8.83978 120.08 9.39935C119.52 9.95892 119.24 10.7458 119.24 11.7601V19.3404H115.83V5.56978H119.057V7.45833C119.564 6.77635 120.184 6.24301 120.919 5.85831C121.671 5.47361 122.528 5.28125 123.49 5.28125C125.028 5.28125 126.252 5.77962 127.162 6.77636C128.071 7.75561 128.526 9.22448 128.526 11.183V19.3404H125.037V11.6027Z" fill="#2C3038"/>
<path d="M137.459 19.6028C135.518 19.6028 133.98 19.052 132.844 17.9504C131.724 16.8487 131.164 15.3536 131.164 13.4651V5.56982H134.575V13.4651C134.575 14.3219 134.836 15.0213 135.361 15.5634C135.903 16.0881 136.603 16.3504 137.459 16.3504C138.317 16.3504 139.008 16.0881 139.532 15.5634C140.073 15.0213 140.345 14.3219 140.345 13.4651V5.56982H143.755V13.4651C143.755 14.6716 143.492 15.7383 142.968 16.6651C142.443 17.5919 141.7 18.3176 140.739 18.8421C139.794 19.3492 138.701 19.6028 137.459 19.6028Z" fill="#2C3038"/>
<path d="M145.836 12.442C145.836 11.0781 146.133 9.854 146.728 8.76983C147.34 7.68566 148.171 6.83755 149.22 6.22553C150.287 5.59601 151.485 5.28125 152.813 5.28125C154.194 5.28125 155.402 5.57852 156.433 6.17307C157.465 6.75013 158.26 7.58075 158.82 8.66491C159.38 9.74908 159.66 11.0081 159.66 12.442C159.66 12.8617 159.634 13.3076 159.581 13.7797H149.351C149.508 14.6541 149.902 15.3186 150.531 15.7732C151.161 16.2104 151.992 16.429 153.023 16.429C153.74 16.429 154.378 16.2891 154.938 16.0093C155.515 15.7121 155.935 15.3448 156.197 14.9076L158.952 16.7437C158.339 17.618 157.491 18.3176 156.407 18.8421C155.323 19.3492 154.143 19.6028 152.866 19.6028C151.485 19.6028 150.261 19.3143 149.194 18.7372C148.127 18.1426 147.297 17.3121 146.702 16.2453C146.124 15.1612 145.836 13.8934 145.836 12.442ZM156.119 10.8158C155.752 9.31192 154.606 8.55999 152.682 8.55999C151.79 8.55999 151.064 8.75234 150.506 9.13705C149.946 9.52175 149.579 10.0813 149.404 10.8158H156.119Z" fill="#2C3038"/>
<path d="M52.3965 35.1632C52.3965 33.2571 52.8075 31.5522 53.6293 30.0484C54.4686 28.527 55.614 27.3379 57.0654 26.4811C58.5342 25.6243 60.1868 25.1958 62.0228 25.1958C63.754 25.1958 65.3104 25.5543 66.6918 26.2713C68.0733 26.9707 69.1574 27.9412 69.9444 29.1828L66.7181 31.2288C65.7562 29.515 64.1825 28.6581 61.9967 28.6581C60.825 28.6581 59.7933 28.9205 58.9016 29.4451C58.0097 29.9522 57.3189 30.6954 56.8293 31.6746C56.3397 32.6364 56.0949 33.7905 56.0949 35.137C56.0949 37.2178 56.637 38.8266 57.7212 39.9633C58.8053 41.0999 60.2568 41.6683 62.0753 41.6683C63.0371 41.6683 63.8939 41.5021 64.6458 41.1699C65.4153 40.8201 66.0098 40.3392 66.4295 39.7272C66.8666 39.1152 67.0853 38.4333 67.0853 37.6813V36.8944H62.0753V33.5107H70.6263V44.7634H67.2688V42.9535C66.5694 43.618 65.73 44.1339 64.7507 44.5011C63.789 44.8508 62.7399 45.0256 61.6032 45.0256C59.837 45.0256 58.2545 44.6148 56.8556 43.7928C55.4566 42.971 54.3637 41.8168 53.5768 40.3305C52.79 38.8266 52.3965 37.1042 52.3965 35.1632Z" fill="#2C3038"/>
<path d="M82.0421 30.9927V34.2451H76.6912V44.7634H73.2812V30.9927H82.0421Z" fill="#2C3038"/>
<path d="M87.2585 30.9926V44.7633H83.8485V30.9926H87.2585ZM85.4224 28.8417C84.8104 28.8417 84.2945 28.6407 83.8748 28.2384C83.4725 27.8362 83.2715 27.3203 83.2715 26.6908C83.2715 26.0788 83.4725 25.5717 83.8748 25.1695C84.2945 24.7498 84.8104 24.54 85.4224 24.54C86.0344 24.54 86.5415 24.7498 86.9436 25.1695C87.3459 25.5717 87.5469 26.0788 87.5469 26.6908C87.5469 27.3203 87.3459 27.8362 86.9436 28.2384C86.5415 28.6407 86.0344 28.8417 85.4224 28.8417Z" fill="#2C3038"/>
<path d="M100.166 44.632V42.7697C99.624 43.4516 98.977 43.985 98.2251 44.3697C97.4731 44.7369 96.6688 44.9205 95.812 44.9205C94.6053 44.9205 93.5212 44.6145 92.5594 44.0025C91.6152 43.3905 90.8719 42.5423 90.3299 41.4581C89.8053 40.374 89.543 39.1412 89.543 37.7597C89.543 36.4133 89.814 35.198 90.3562 34.1137C90.9157 33.0121 91.6676 32.1552 92.6118 31.5432C93.5737 30.9137 94.6403 30.599 95.812 30.599C96.6338 30.599 97.3945 30.7563 98.0939 31.0711C98.811 31.3858 99.4404 31.8405 99.9825 32.435V26.7432H103.392V44.632H100.166ZM93.1102 37.7597C93.1102 38.8964 93.4338 39.8318 94.0808 40.5663C94.7452 41.2833 95.6108 41.6418 96.6776 41.6418C97.7267 41.6418 98.5748 41.2833 99.2218 40.5663C99.8863 39.8494 100.219 38.9139 100.219 37.7597C100.219 36.6056 99.8951 35.6701 99.2481 34.9532C98.601 34.2187 97.7442 33.8515 96.6776 33.8515C95.6108 33.8515 94.7452 34.2187 94.0808 34.9532C93.4338 35.6701 93.1102 36.6056 93.1102 37.7597Z" fill="#2C3038"/>
</g>
</g>
<defs>
<clipPath id="clip0_57_1514">
<rect width="159.317" height="46" fill="white" transform="translate(0.341797)"/>
</clipPath>
</defs>
</svg>
