<svg width="1440" height="494" viewBox="0 0 1440 494" fill="none" xmlns="http://www.w3.org/2000/svg">
<path d="M728.5 241.5C788.833 172.333 918.6 34 955 34C1000.5 34 1013 74 1041 72C1063.4 70.4 1091 46 1102 34" stroke="#6794FF" stroke-opacity="0.1"/>
<path d="M1245.5 120.5L1365 1" stroke="#6794FF" stroke-opacity="0.1"/>
<path d="M-44 493L86.5 362.5" stroke="#6794FF" stroke-opacity="0.1"/>
<path d="M347 247.944C355.91 257.27 401.311 255.999 431.013 224.205C431.013 224.205 530.302 143.217 567.5 104.5" stroke="#6794FF" stroke-opacity="0.1"/>
<ellipse cx="1427.12" cy="77.426" rx="2.67692" ry="2.70588" transform="rotate(30 1427.12 77.426)" fill="#6794FF" fill-opacity="0.1"/>
<ellipse cx="1443.35" cy="86.7951" rx="2.67692" ry="2.70588" transform="rotate(30 1443.35 86.7951)" fill="#6794FF" fill-opacity="0.1"/>
<ellipse cx="1417.65" cy="93.8293" rx="2.67692" ry="2.70588" transform="rotate(30 1417.65 93.8293)" fill="#6794FF" fill-opacity="0.1"/>
<ellipse cx="1433.88" cy="103.198" rx="2.67692" ry="2.70588" transform="rotate(30 1433.88 103.198)" fill="#6794FF" fill-opacity="0.1"/>
<ellipse cx="1408.18" cy="110.233" rx="2.67692" ry="2.70588" transform="rotate(30 1408.18 110.233)" fill="#6794FF" fill-opacity="0.1"/>
<ellipse cx="1424.41" cy="119.602" rx="2.67692" ry="2.70588" transform="rotate(30 1424.41 119.602)" fill="#6794FF" fill-opacity="0.1"/>
<ellipse cx="1440.64" cy="128.971" rx="2.67692" ry="2.70588" transform="rotate(30 1440.64 128.971)" fill="#6794FF" fill-opacity="0.1"/>
<ellipse cx="1398.71" cy="126.636" rx="2.67692" ry="2.70588" transform="rotate(30 1398.71 126.636)" fill="#6794FF" fill-opacity="0.1"/>
<ellipse cx="1414.94" cy="136.006" rx="2.67692" ry="2.70588" transform="rotate(30 1414.94 136.006)" fill="#6794FF" fill-opacity="0.1"/>
<ellipse cx="1431.17" cy="145.375" rx="2.67692" ry="2.70588" transform="rotate(30 1431.17 145.375)" fill="#6794FF" fill-opacity="0.1"/>
<ellipse cx="1389.24" cy="143.04" rx="2.67692" ry="2.70588" transform="rotate(30 1389.24 143.04)" fill="#6794FF" fill-opacity="0.1"/>
<ellipse cx="1405.47" cy="152.409" rx="2.67692" ry="2.70588" transform="rotate(30 1405.47 152.409)" fill="#6794FF" fill-opacity="0.1"/>
<ellipse cx="1421.7" cy="161.779" rx="2.67692" ry="2.70588" transform="rotate(30 1421.7 161.779)" fill="#6794FF" fill-opacity="0.1"/>
<ellipse cx="1437.92" cy="171.148" rx="2.67692" ry="2.70588" transform="rotate(30 1437.92 171.148)" fill="#6794FF" fill-opacity="0.1"/>
<ellipse cx="1379.77" cy="159.444" rx="2.67692" ry="2.70588" transform="rotate(30 1379.77 159.444)" fill="#6794FF" fill-opacity="0.1"/>
<ellipse cx="1396" cy="168.813" rx="2.67692" ry="2.70588" transform="rotate(30 1396 168.813)" fill="#6794FF" fill-opacity="0.1"/>
<ellipse cx="1412.23" cy="178.182" rx="2.67692" ry="2.70588" transform="rotate(30 1412.23 178.182)" fill="#6794FF" fill-opacity="0.1"/>
<ellipse cx="1428.45" cy="187.551" rx="2.67692" ry="2.70588" transform="rotate(30 1428.45 187.551)" fill="#6794FF" fill-opacity="0.1"/>
<ellipse cx="1370.3" cy="175.847" rx="2.67692" ry="2.70588" transform="rotate(30 1370.3 175.847)" fill="#6794FF" fill-opacity="0.1"/>
<ellipse cx="1386.53" cy="185.216" rx="2.67692" ry="2.70588" transform="rotate(30 1386.53 185.216)" fill="#6794FF" fill-opacity="0.1"/>
<ellipse cx="1402.75" cy="194.586" rx="2.67692" ry="2.70588" transform="rotate(30 1402.75 194.586)" fill="#6794FF" fill-opacity="0.1"/>
<ellipse cx="1418.98" cy="203.955" rx="2.67692" ry="2.70588" transform="rotate(30 1418.98 203.955)" fill="#6794FF" fill-opacity="0.1"/>
<ellipse cx="1435.21" cy="213.324" rx="2.67692" ry="2.70588" transform="rotate(30 1435.21 213.324)" fill="#6794FF" fill-opacity="0.1"/>
<ellipse cx="1360.83" cy="192.251" rx="2.67692" ry="2.70588" transform="rotate(30 1360.83 192.251)" fill="#6794FF" fill-opacity="0.1"/>
<ellipse cx="1377.06" cy="201.62" rx="2.67692" ry="2.70588" transform="rotate(30 1377.06 201.62)" fill="#6794FF" fill-opacity="0.1"/>
<ellipse cx="1393.28" cy="210.989" rx="2.67692" ry="2.70588" transform="rotate(30 1393.28 210.989)" fill="#6794FF" fill-opacity="0.1"/>
<ellipse cx="1409.51" cy="220.358" rx="2.67692" ry="2.70588" transform="rotate(30 1409.51 220.358)" fill="#6794FF" fill-opacity="0.1"/>
<ellipse cx="1425.74" cy="229.728" rx="2.67692" ry="2.70588" transform="rotate(30 1425.74 229.728)" fill="#6794FF" fill-opacity="0.1"/>
<ellipse cx="1441.97" cy="239.097" rx="2.67692" ry="2.70588" transform="rotate(30 1441.97 239.097)" fill="#6794FF" fill-opacity="0.1"/>
</svg>
