<svg width="728" height="625" viewBox="0 0 728 625" fill="none" xmlns="http://www.w3.org/2000/svg">
<path d="M856.052 290.597C856.472 295.427 856.753 300.287 856.894 305.175L856.145 305.196C856.215 307.624 856.25 310.059 856.25 312.5C856.25 314.941 856.215 317.376 856.145 319.804L856.894 319.825C856.753 324.713 856.472 329.573 856.052 334.403L855.305 334.338C854.884 339.19 854.323 344.011 853.626 348.8L854.368 348.908C853.665 353.737 852.824 358.533 851.848 363.292L851.114 363.142C850.137 367.904 849.025 372.63 847.781 377.317L848.506 377.51C847.256 382.218 845.873 386.888 844.361 391.516L843.648 391.283C842.14 395.897 840.503 400.469 838.739 404.998L839.438 405.27C837.673 409.802 835.782 414.29 833.769 418.731L833.086 418.422C831.085 422.836 828.962 427.203 826.721 431.523L827.386 431.868C825.15 436.179 822.795 440.441 820.326 444.653L819.679 444.273C817.231 448.45 814.669 452.577 811.998 456.65L812.625 457.062C809.965 461.119 807.195 465.125 804.321 469.076L803.714 468.634C800.867 472.547 797.916 476.406 794.864 480.209L795.449 480.679C792.413 484.462 789.278 488.189 786.047 491.858L785.484 491.363C782.286 494.994 778.993 498.569 775.608 502.084L776.148 502.604C772.784 506.099 769.329 509.534 765.787 512.91L765.269 512.367C761.765 515.706 758.174 518.986 754.5 522.204L754.994 522.768C751.35 525.961 747.623 529.093 743.818 532.162L743.347 531.578C739.584 534.614 735.743 537.588 731.827 540.499L732.274 541.101C728.385 543.992 724.422 546.82 720.388 549.585L719.964 548.966C715.973 551.701 711.913 554.372 707.784 556.979L708.184 557.613C704.084 560.202 699.917 562.727 695.686 565.186L695.31 564.537C691.123 566.97 686.873 569.339 682.563 571.641L682.916 572.303C678.641 574.586 674.306 576.805 669.913 578.956L669.583 578.283C665.241 580.409 660.842 582.471 656.389 584.465L656.695 585.149C652.272 587.13 647.795 589.044 643.268 590.891L642.984 590.196C638.502 592.024 633.969 593.785 629.388 595.478L629.647 596.181C625.095 597.863 620.496 599.477 615.852 601.022L615.615 600.311C611.022 601.839 606.385 603.299 601.705 604.689L601.919 605.408C597.275 606.789 592.589 608.101 587.864 609.343L587.673 608.618C582.991 609.848 578.271 611.01 573.513 612.103L573.681 612.834C568.952 613.919 564.186 614.936 559.385 615.882L559.24 615.146C554.486 616.083 549.698 616.95 544.877 617.747L544.999 618.487C540.221 619.277 535.41 619.998 530.57 620.648L530.47 619.904C525.673 620.548 520.846 621.123 515.991 621.626L516.068 622.372C511.241 622.873 506.387 623.303 501.506 623.663L501.451 622.915C496.62 623.271 491.763 623.556 486.882 623.771L486.915 624.52C482.077 624.732 477.215 624.875 472.331 624.946L472.32 624.197C469.886 624.232 467.445 624.25 465 624.25C462.555 624.25 460.114 624.232 457.68 624.197L457.669 624.946C452.785 624.875 447.923 624.732 443.085 624.52L443.118 623.771C438.237 623.556 433.38 623.271 428.549 622.915L428.494 623.663C423.613 623.303 418.759 622.873 413.932 622.372L414.009 621.626C409.154 621.123 404.327 620.548 399.53 619.904L399.43 620.648C394.59 619.998 389.779 619.277 385.001 618.487L385.123 617.747C380.302 616.95 375.514 616.083 370.76 615.146L370.615 615.882C365.814 614.936 361.048 613.919 356.319 612.834L356.487 612.103C351.729 611.01 347.009 609.848 342.327 608.618L342.136 609.343C337.411 608.101 332.725 606.789 328.081 605.408L328.295 604.689C323.615 603.299 318.978 601.839 314.385 600.311L314.148 601.022C309.504 599.477 304.905 597.863 300.353 596.181L300.612 595.478C296.031 593.785 291.498 592.024 287.016 590.196L286.732 590.891C282.205 589.044 277.728 587.13 273.305 585.149L273.611 584.465C269.158 582.471 264.759 580.409 260.417 578.283L260.087 578.956C255.694 576.805 251.359 574.586 247.084 572.303L247.437 571.641C243.127 569.339 238.877 566.97 234.69 564.537L234.314 565.186C230.083 562.727 225.916 560.202 221.816 557.613L222.216 556.979C218.087 554.372 214.027 551.701 210.036 548.966L209.612 549.585C205.577 546.82 201.615 543.992 197.726 541.101L198.173 540.499C194.257 537.588 190.416 534.614 186.653 531.578L186.182 532.162C182.377 529.093 178.65 525.961 175.006 522.768L175.5 522.204C171.826 518.986 168.235 515.706 164.731 512.367L164.213 512.91C160.671 509.534 157.216 506.099 153.852 502.604L154.392 502.084C151.007 498.569 147.714 494.994 144.516 491.363L143.953 491.858C140.722 488.189 137.587 484.462 134.551 480.679L135.136 480.209C132.084 476.406 129.133 472.547 126.286 468.634L125.679 469.076C122.804 465.125 120.035 461.119 117.375 457.062L118.002 456.65C115.331 452.577 112.769 448.45 110.321 444.273L109.674 444.652C107.205 440.441 104.85 436.179 102.614 431.868L103.279 431.522C101.038 427.203 98.9154 422.836 96.9143 418.421L96.2312 418.731C94.2177 414.29 92.3269 409.802 90.5619 405.27L91.2608 404.998C89.4974 400.469 87.86 395.897 86.352 391.283L85.6391 391.516C84.1266 386.888 82.7438 382.218 81.494 377.51L82.2189 377.317C80.9748 372.63 79.8629 367.904 78.8865 363.142L78.1517 363.292C77.1759 358.533 76.3349 353.737 75.632 348.908L76.3742 348.8C75.6772 344.011 75.1165 339.19 74.6951 334.338L73.9479 334.403C73.5284 329.573 73.2466 324.713 73.1056 319.825L73.8553 319.804C73.7852 317.376 73.75 314.941 73.75 312.5C73.75 310.059 73.7852 307.624 73.8553 305.196L73.1056 305.175C73.2466 300.287 73.5284 295.427 73.9479 290.597L74.6951 290.662C75.1165 285.81 75.6772 280.989 76.3742 276.2L75.632 276.092C76.3349 271.263 77.1759 266.467 78.1518 261.708L78.8865 261.858C79.8629 257.096 80.9748 252.37 82.2189 247.683L81.494 247.49C82.7438 242.782 84.1266 238.112 85.6391 233.484L86.352 233.717C87.86 229.103 89.4974 224.531 91.2608 220.002L90.562 219.73C92.3269 215.198 94.2177 210.71 96.2312 206.269L96.9143 206.578C98.9155 202.164 101.038 197.797 103.279 193.477L102.614 193.132C104.85 188.821 107.205 184.559 109.674 180.347L110.321 180.727C112.769 176.55 115.331 172.423 118.002 168.35L117.375 167.938C120.035 163.881 122.805 159.875 125.679 155.924L126.286 156.366C129.133 152.453 132.084 148.594 135.136 144.791L134.551 144.321C137.587 140.538 140.722 136.811 143.953 133.142L144.516 133.637C147.714 130.006 151.007 126.431 154.392 122.916L153.852 122.396C157.216 118.901 160.671 115.466 164.213 112.09L164.731 112.633C168.235 109.294 171.826 106.014 175.5 102.796L175.006 102.232C178.65 99.0394 182.377 95.9074 186.182 92.8379L186.653 93.4217C190.416 90.3862 194.257 87.412 198.173 84.501L197.726 83.8991C201.615 81.0081 205.578 78.1795 209.612 75.4152L210.036 76.0339C214.027 73.2993 218.087 70.6277 222.216 68.0211L221.816 67.3869C225.916 64.7981 230.083 62.2733 234.314 59.8143L234.69 60.4628C238.877 58.0296 243.127 55.661 247.437 53.3588L247.084 52.6972C251.359 50.4136 255.694 48.1952 260.087 46.0439L260.417 46.7175C264.759 44.5905 269.158 42.5292 273.611 40.5353L273.305 39.8508C277.728 37.87 282.205 35.9556 286.732 34.1094L287.016 34.8039C291.498 32.9759 296.031 31.2148 300.612 29.5222L300.353 28.8187C304.905 27.1369 309.504 25.5226 314.148 23.9775L314.385 24.6892C318.978 23.1614 323.615 21.7013 328.295 20.3105L328.081 19.5916C332.725 18.2114 337.411 16.8994 342.136 15.6571L342.327 16.3824C347.009 15.1517 351.729 13.9895 356.487 12.8973L356.319 12.1663C361.048 11.0807 365.814 10.0641 370.615 9.11805L370.76 9.85389C375.514 8.9171 380.302 8.04956 385.123 7.2527L385.001 6.51274C389.779 5.72283 394.59 5.00226 399.43 4.35242L399.53 5.09575C404.327 4.45173 409.154 3.87728 414.009 3.37376L413.932 2.62776C418.759 2.12714 423.613 1.69652 428.494 1.33722L428.549 2.08519C433.38 1.72951 438.237 1.44382 443.118 1.22941L443.085 0.480129C447.923 0.267575 452.785 0.124969 457.669 0.0535603L457.68 0.80348C460.114 0.767878 462.555 0.75 465 0.75C467.445 0.75 469.886 0.767879 472.321 0.803481L472.331 0.0535607C477.215 0.12497 482.077 0.267575 486.915 0.48013L486.882 1.22941C491.763 1.44382 496.62 1.72951 501.451 2.08519L501.506 1.33722C506.387 1.69652 511.241 2.12714 516.068 2.62776L515.991 3.37375C520.846 3.87728 525.673 4.45173 530.47 5.09576L530.57 4.35242C535.41 5.00226 540.221 5.72283 544.999 6.51274L544.877 7.2527C549.698 8.04956 554.486 8.9171 559.24 9.8539L559.385 9.11805C564.186 10.0641 568.952 11.0807 573.681 12.1663L573.513 12.8973C578.271 13.9895 582.991 15.1517 587.673 16.3824L587.864 15.6571C592.589 16.8994 597.275 18.2114 601.919 19.5916L601.705 20.3105C606.385 21.7013 611.022 23.1614 615.615 24.6892L615.852 23.9775C620.496 25.5226 625.095 27.1369 629.647 28.8187L629.388 29.5222C633.969 31.2148 638.502 32.9759 642.984 34.8039L643.268 34.1094C647.795 35.9556 652.272 37.87 656.695 39.8508L656.389 40.5353C660.842 42.5292 665.241 44.5905 669.583 46.7175L669.913 46.0439C674.306 48.1952 678.641 50.4136 682.916 52.6972L682.563 53.3588C686.873 55.661 691.123 58.0296 695.31 60.4628L695.686 59.8143C699.917 62.2733 704.084 64.7981 708.184 67.3869L707.784 68.0211C711.913 70.6277 715.973 73.2993 719.964 76.0339L720.388 75.4152C724.422 78.1795 728.385 81.0082 732.274 83.8991L731.827 84.501C735.743 87.412 739.584 90.3863 743.347 93.4217L743.818 92.8379C747.623 95.9074 751.35 99.0394 754.994 102.232L754.5 102.796C758.174 106.014 761.765 109.294 765.269 112.633L765.787 112.09C769.329 115.466 772.784 118.901 776.148 122.396L775.608 122.916C778.993 126.431 782.286 130.006 785.484 133.637L786.047 133.142C789.278 136.811 792.413 140.538 795.449 144.321L794.864 144.791C797.916 148.594 800.867 152.453 803.714 156.366L804.321 155.924C807.195 159.875 809.965 163.881 812.625 167.938L811.998 168.35C814.669 172.423 817.231 176.55 819.679 180.727L820.326 180.347C822.795 184.559 825.15 188.821 827.386 193.132L826.721 193.478C828.962 197.797 831.085 202.164 833.086 206.579L833.769 206.269C835.782 210.71 837.673 215.198 839.438 219.73L838.739 220.002C840.503 224.531 842.14 229.103 843.648 233.717L844.361 233.484C845.873 238.112 847.256 242.782 848.506 247.49L847.781 247.683C849.025 252.37 850.137 257.096 851.114 261.858L851.848 261.708C852.824 266.467 853.665 271.263 854.368 276.092L853.626 276.2C854.323 280.989 854.884 285.81 855.305 290.662L856.052 290.597Z" stroke="url(#paint0_linear_265_15886)" stroke-width="1.5" stroke-dasharray="15 15"/>
<circle cx="349" cy="611" r="4" fill="#4A7CF2"/>
<circle cx="357" cy="49" r="4" fill="#49E5A7"/>
<circle cx="75.5" cy="283.5" r="4.5" fill="#49E5A7"/>
<path d="M77.932 93.5085C77.8153 92.5505 78.9893 91.9993 79.6518 92.7011L82.9637 96.209C83.1817 96.4399 83.4965 96.5536 83.8117 96.5152L88.6007 95.932C89.5587 95.8153 90.1098 96.9892 89.4081 97.6518L85.9002 100.964C85.6692 101.182 85.5556 101.496 85.594 101.812L86.1772 106.601C86.2939 107.559 85.1199 108.11 84.4574 107.408L81.1455 103.9C80.9275 103.669 80.6127 103.556 80.2975 103.594L75.5085 104.177C74.5505 104.294 73.9994 103.12 74.7011 102.457L78.209 99.1455C78.44 98.9274 78.5536 98.6127 78.5152 98.2974L77.932 93.5085Z" fill="#4A7CF2"/>
<path d="M616.232 168.71C616.115 167.752 617.289 167.201 617.952 167.903L620.243 170.329C620.461 170.56 620.775 170.674 621.091 170.635L624.403 170.232C625.361 170.115 625.912 171.289 625.21 171.952L622.784 174.243C622.553 174.461 622.44 174.775 622.478 175.091L622.881 178.403C622.998 179.361 621.824 179.912 621.162 179.21L618.871 176.784C618.653 176.553 618.338 176.439 618.023 176.478L614.71 176.881C613.752 176.998 613.201 175.824 613.903 175.161L616.329 172.871C616.56 172.653 616.674 172.338 616.636 172.023L616.232 168.71Z" fill="#49E5A7"/>
<circle cx="140.5" cy="291.5" r="4.5" stroke="#4A7CF2" stroke-width="2"/>
<circle cx="668.5" cy="283.5" r="4.5" stroke="#4A7CF2" stroke-width="2"/>
<circle cx="429.5" cy="572.5" r="4.5" stroke="#49E5A7" stroke-width="2"/>
<path d="M505.992 66.7787C507.714 64.4512 511.408 65.6722 511.404 68.5675L511.392 76.7248C511.39 77.6776 511.841 78.5744 512.607 79.141L519.165 83.9927C521.493 85.7146 520.272 89.4087 517.376 89.4044L509.219 89.3923C508.266 89.3909 507.37 89.8421 506.803 90.608L501.951 97.1658C500.229 99.4933 496.535 98.2723 496.54 95.3771L496.552 87.2197C496.553 86.267 496.102 85.3702 495.336 84.8035L488.778 79.9519C486.451 78.2299 487.672 74.5359 490.567 74.5402L498.724 74.5523C499.677 74.5537 500.574 74.1025 501.14 73.3365L505.992 66.7787Z" fill="#4A7CF2"/>
<path d="M265.905 168.298L172.894 332.816C159.257 356.943 166.425 387.364 189.328 402.749L331.817 498.907C344.056 507.124 359.091 509.922 373.427 506.6L566.618 461.842C590.57 456.248 607.529 434.918 607.704 410.267L608.053 247.847C608.053 223.021 590.745 201.341 566.443 195.921L323.425 142.422C300.697 137.702 277.269 148.017 265.905 168.298Z" fill="url(#paint1_radial_265_15886)"/>
<path d="M473.081 505.2L574.134 481.947C577.456 481.247 580.778 483.52 581.128 487.017L586.547 542.614C586.897 546.81 582.876 549.957 578.855 548.733L472.556 512.368C469.234 511.144 469.409 506.074 473.081 505.2Z" fill="url(#paint2_radial_265_15886)"/>
<path d="M473.081 505.2L574.134 481.947C577.456 481.247 580.778 483.52 581.128 487.017L586.547 542.614C586.897 546.81 582.876 549.957 578.855 548.733L472.556 512.368C469.234 511.144 469.409 506.074 473.081 505.2Z" fill="url(#paint3_linear_265_15886)"/>
<path d="M358.75 350.124C358.575 350.124 358.575 350.124 358.4 349.949L282.348 306.066C282.173 305.891 281.998 305.716 281.998 305.366C281.998 305.017 282.173 304.842 282.348 304.667L358.4 260.784C358.575 260.609 358.925 260.609 359.099 260.784L435.152 304.667C435.327 304.842 435.501 305.017 435.501 305.366C435.501 305.541 435.327 305.891 435.152 306.066L359.099 349.949C358.925 350.124 358.925 350.124 358.75 350.124ZM284.096 305.541L358.75 348.55L433.403 305.541L358.75 262.532L284.096 305.541Z" fill="white"/>
<path d="M358.75 300.121L435.152 255.888V221.971L358.75 266.203V300.121Z" fill="url(#paint4_linear_265_15886)"/>
<path d="M358.749 266.204L435.151 221.971L358.749 177.913L282.172 221.971L358.749 266.204Z" fill="url(#paint5_linear_265_15886)"/>
<path d="M358.749 255.539L416.968 221.971L358.749 188.403L300.529 221.971L358.749 255.539Z" fill="white"/>
<path d="M282.172 255.888L358.749 300.121V266.203L282.172 221.971V255.888Z" fill="url(#paint6_linear_265_15886)"/>
<path d="M358.752 245.573L435.154 201.34V167.423L358.752 211.655V245.573Z" fill="url(#paint7_linear_265_15886)"/>
<path d="M358.752 245.573L435.154 201.34V167.423L358.752 211.655V245.573Z" fill="url(#paint8_linear_265_15886)"/>
<path d="M358.749 211.656L435.151 167.423L358.749 123.365L282.172 167.423L358.749 211.656Z" fill="url(#paint9_linear_265_15886)"/>
<path d="M358.749 211.656L435.151 167.423L358.749 123.365L282.172 167.423L358.749 211.656Z" fill="url(#paint10_linear_265_15886)"/>
<path d="M358.749 209.907L433.752 166.549L435.151 167.423L358.749 211.656L282.172 167.423L283.745 166.549L358.749 209.907Z" fill="#A9EBFF"/>
<path d="M358.749 264.455L433.752 221.097L435.151 221.971L358.749 266.203L282.172 221.971L283.745 221.097L358.749 264.455Z" fill="#A9EBFF"/>
<path d="M358.748 140.149L412.247 171.095L358.748 202.04L305.074 171.095L358.748 140.149Z" fill="white"/>
<path d="M358.749 140.149L305.075 171.094L298.781 167.423L358.749 132.806L418.717 167.423L412.248 171.094L358.749 140.149Z" fill="#2573BA"/>
<path d="M358.749 140.149L305.075 171.094L298.781 167.423L358.749 132.806L418.717 167.423L412.248 171.094L358.749 140.149Z" fill="url(#paint11_linear_265_15886)"/>
<path d="M282.172 201.34L358.749 245.573V211.656L282.172 167.423V201.34Z" fill="url(#paint12_linear_265_15886)"/>
<path d="M282.172 201.34L358.749 245.573V211.656L282.172 167.423V201.34Z" fill="url(#paint13_linear_265_15886)"/>
<path d="M331.998 213.229C331.998 216.026 333.921 219.348 336.369 220.747C338.817 222.146 340.74 221.097 340.74 218.299C340.74 215.502 338.817 212.18 336.369 210.781C333.921 209.383 331.998 210.432 331.998 213.229Z" fill="white"/>
<path d="M316.088 203.963C316.088 206.76 318.011 210.082 320.459 211.48C322.906 212.879 324.83 211.83 324.83 209.033C324.83 206.236 322.906 202.914 320.459 201.515C318.011 200.116 316.088 201.165 316.088 203.963Z" fill="white"/>
<path d="M300.18 194.872C300.18 197.669 302.103 200.991 304.551 202.39C306.998 203.788 308.921 202.739 308.921 199.942C308.921 197.145 306.998 193.823 304.551 192.424C302.103 190.851 300.18 192.074 300.18 194.872Z" fill="white"/>
<path d="M334.271 210.082C334.096 210.607 333.921 211.131 333.921 211.83C333.921 214.628 335.844 217.949 338.292 219.348C339.166 219.873 339.866 220.047 340.39 219.873C339.691 221.271 338.117 221.796 336.369 220.747C333.921 219.348 331.998 216.026 331.998 213.229C331.998 211.306 332.872 210.257 334.271 210.082Z" fill="#A9EBFF"/>
<path d="M318.361 200.816C318.186 201.34 318.011 201.865 318.011 202.564C318.011 205.362 319.934 208.683 322.382 210.082C323.256 210.607 323.955 210.781 324.48 210.607C323.781 212.005 322.207 212.53 320.459 211.481C318.011 210.082 316.088 206.76 316.088 203.963C316.088 202.04 316.962 200.991 318.361 200.816Z" fill="#A9EBFF"/>
<path d="M302.452 191.725C302.278 192.249 302.103 192.774 302.103 193.473C302.103 196.27 304.026 199.592 306.474 200.991C307.348 201.515 308.047 201.69 308.572 201.515C307.872 202.914 306.299 203.438 304.551 202.389C302.103 200.991 300.18 197.669 300.18 194.872C300.18 192.948 301.054 191.725 302.452 191.725Z" fill="#A9EBFF"/>
<path d="M331.998 267.778C331.998 270.575 333.921 273.897 336.369 275.295C338.817 276.694 340.74 275.645 340.74 272.848C340.74 270.05 338.817 266.729 336.369 265.33C333.921 263.931 331.998 264.98 331.998 267.778Z" fill="white"/>
<path d="M316.088 258.511C316.088 261.309 318.011 264.63 320.459 266.029C322.906 267.428 324.83 266.379 324.83 263.581C324.83 260.784 322.906 257.462 320.459 256.064C318.011 254.665 316.088 255.714 316.088 258.511Z" fill="white"/>
<path d="M300.18 249.245C300.18 252.042 302.103 255.364 304.551 256.763C306.998 258.161 308.921 257.112 308.921 254.315C308.921 251.518 306.998 248.196 304.551 246.797C302.103 245.399 300.18 246.448 300.18 249.245Z" fill="white"/>
<path d="M334.271 264.63C334.096 265.155 333.921 265.679 333.921 266.378C333.921 269.176 335.844 272.498 338.292 273.896C339.166 274.421 339.866 274.596 340.39 274.421C339.691 275.819 338.117 276.344 336.369 275.295C333.921 273.896 331.998 270.574 331.998 267.777C331.998 265.854 332.872 264.805 334.271 264.63Z" fill="#A9EBFF"/>
<path d="M318.361 255.364C318.186 255.888 318.011 256.413 318.011 257.112C318.011 259.909 319.934 263.231 322.382 264.63C323.256 265.154 323.955 265.329 324.48 265.154C323.781 266.553 322.207 267.078 320.459 266.029C318.011 264.63 316.088 261.308 316.088 258.511C316.088 256.588 316.962 255.539 318.361 255.364Z" fill="#A9EBFF"/>
<path d="M302.452 246.273C302.278 246.797 302.103 247.322 302.103 248.021C302.103 250.818 304.026 254.14 306.474 255.539C307.348 256.063 308.047 256.238 308.572 256.063C307.872 257.462 306.299 257.987 304.551 256.938C302.103 255.539 300.18 252.217 300.18 249.42C300.18 247.497 301.054 246.273 302.452 246.273Z" fill="#A9EBFF"/>
<path d="M358.748 189.102L435.15 145.045V131.058L358.748 175.291V189.102Z" fill="url(#paint14_linear_265_15886)"/>
<path d="M358.748 189.102L435.15 145.045V131.058L358.748 175.291V189.102Z" fill="url(#paint15_linear_265_15886)"/>
<path d="M358.747 175.291L435.149 131.058L358.747 87L282.17 131.058L358.747 175.291Z" fill="url(#paint16_linear_265_15886)"/>
<path d="M358.747 175.291L435.149 131.058L358.747 87L282.17 131.058L358.747 175.291Z" fill="url(#paint17_linear_265_15886)"/>
<path d="M358.747 173.542L433.75 130.359L435.149 131.058L358.747 175.291L282.17 131.058L283.743 130.359L358.747 173.542Z" fill="#80A9FF"/>
<path d="M282.17 145.044L358.747 189.102V175.291L282.17 131.058V145.044Z" fill="url(#paint18_linear_265_15886)"/>
<path d="M282.17 145.044L358.747 189.102V175.291L282.17 131.058V145.044Z" fill="url(#paint19_linear_265_15886)"/>
<path opacity="0.5" d="M435.152 201.341V221.971L358.75 266.204V245.573L435.152 201.341Z" fill="white"/>
<path opacity="0.5" d="M282.17 201.341V221.971L358.747 266.204V245.573L282.17 201.341Z" fill="white"/>
<path d="M263.99 407.119L340.042 363.236L263.99 319.353L187.938 363.236L263.99 407.119Z" fill="#081F56" fill-opacity="0.1"/>
<path d="M263.99 357.642L340.392 313.584V279.666L263.99 323.724V357.642Z" fill="url(#paint20_linear_265_15886)"/>
<path d="M263.99 357.642L340.392 313.584V279.666L263.99 323.724V357.642Z" fill="url(#paint21_linear_265_15886)"/>
<path d="M263.992 323.724L340.394 279.666L263.992 235.433L187.59 279.666L263.992 323.724Z" fill="url(#paint22_linear_265_15886)"/>
<path d="M263.992 323.724L340.394 279.666L263.992 235.433L187.59 279.666L263.992 323.724Z" fill="url(#paint23_linear_265_15886)"/>
<path d="M263.993 313.234L322.212 279.666L263.993 246.098L205.773 279.666L263.993 313.234Z" fill="white"/>
<path d="M187.59 313.584L263.992 357.642V323.724L187.59 279.666V313.584Z" fill="url(#paint24_linear_265_15886)"/>
<path d="M187.59 313.584L263.992 357.642V323.724L187.59 279.666V313.584Z" fill="url(#paint25_linear_265_15886)"/>
<path d="M187.59 313.584L263.992 357.642V323.724L187.59 279.666V313.584Z" fill="url(#paint26_linear_265_15886)"/>
<path d="M263.99 303.094L340.392 259.036V225.118L263.99 269.176V303.094Z" fill="url(#paint27_linear_265_15886)"/>
<path d="M263.99 303.094L340.392 259.036V225.118L263.99 269.176V303.094Z" fill="url(#paint28_linear_265_15886)"/>
<path d="M263.992 269.176L340.394 225.118L263.992 180.885L187.59 225.118L263.992 269.176Z" fill="url(#paint29_linear_265_15886)"/>
<path d="M263.992 269.176L340.394 225.118L263.992 180.885L187.59 225.118L263.992 269.176Z" fill="url(#paint30_linear_265_15886)"/>
<path d="M263.992 267.602L338.995 224.244L340.394 225.118L263.992 269.176L187.59 225.118L188.988 224.244L263.992 267.602Z" fill="#A9EBFF"/>
<path d="M263.992 322.15L338.995 278.792L340.394 279.666L263.992 323.724L187.59 279.666L188.988 278.792L263.992 322.15Z" fill="#A9EBFF"/>
<path d="M263.99 197.844L317.489 228.789L263.99 259.735L210.316 228.789L263.99 197.844Z" fill="white"/>
<path d="M263.993 197.844L210.319 228.789L204.025 225.118L263.993 190.501L323.961 225.118L317.492 228.789L263.993 197.844Z" fill="#2573BA"/>
<path d="M263.993 197.844L210.319 228.789L204.025 225.118L263.993 190.501L323.961 225.118L317.492 228.789L263.993 197.844Z" fill="url(#paint31_linear_265_15886)"/>
<path d="M187.59 259.036L263.992 303.094V269.176L187.59 225.118V259.036Z" fill="url(#paint32_linear_265_15886)"/>
<path d="M187.59 259.036L263.992 303.094V269.176L187.59 225.118V259.036Z" fill="url(#paint33_linear_265_15886)"/>
<path d="M187.59 259.036L263.992 303.094V269.176L187.59 225.118V259.036Z" fill="url(#paint34_linear_265_15886)"/>
<path d="M237.236 270.75C237.236 273.547 239.159 276.869 241.607 278.268C244.055 279.666 245.978 278.617 245.978 275.82C245.978 273.023 244.055 269.701 241.607 268.302C239.334 266.903 237.236 267.952 237.236 270.75Z" fill="white"/>
<path d="M228.737 269.44C230.409 268.475 230.395 265.32 228.706 262.393C227.016 259.466 224.29 257.876 222.618 258.842C220.946 259.808 220.96 262.963 222.649 265.89C224.339 268.816 227.065 270.406 228.737 269.44Z" fill="white"/>
<path d="M205.418 252.392C205.418 255.189 207.341 258.511 209.789 259.91C212.236 261.309 214.16 260.259 214.16 257.462C214.16 254.665 212.236 251.343 209.789 249.944C207.341 248.546 205.418 249.595 205.418 252.392Z" fill="white"/>
<path d="M239.509 267.778C239.334 268.302 239.16 268.827 239.16 269.526C239.16 272.323 241.083 275.645 243.53 277.044C244.404 277.568 245.104 277.743 245.628 277.568C244.929 278.967 243.355 279.491 241.607 278.442C239.159 277.044 237.236 273.722 237.236 270.925C237.236 269.001 238.11 267.778 239.509 267.778Z" fill="#A9EBFF"/>
<path d="M223.599 258.512C223.424 259.036 223.249 259.561 223.249 260.26C223.249 263.057 225.173 266.379 227.62 267.778C228.494 268.302 229.194 268.477 229.718 268.302C229.019 269.701 227.445 270.225 225.697 269.176C223.249 267.778 221.326 264.456 221.326 261.659C221.326 259.735 222.2 258.686 223.599 258.512Z" fill="#A9EBFF"/>
<path d="M207.691 249.245C207.516 249.77 207.341 250.294 207.341 250.994C207.341 253.791 209.264 257.113 211.712 258.512C212.586 259.036 213.285 259.211 213.81 259.036C213.111 260.435 211.537 260.959 209.789 259.91C207.341 258.512 205.418 255.19 205.418 252.392C205.418 250.469 206.292 249.42 207.691 249.245Z" fill="#A9EBFF"/>
<path d="M237.236 325.297C237.236 328.095 239.159 331.417 241.607 332.815C244.055 334.214 245.978 333.165 245.978 330.368C245.978 327.57 244.055 324.248 241.607 322.85C239.334 321.451 237.236 322.5 237.236 325.297Z" fill="white"/>
<path d="M221.326 316.206C221.326 319.004 223.249 322.325 225.697 323.724C228.145 325.123 230.068 324.074 230.068 321.276C230.068 318.479 228.145 315.157 225.697 313.759C223.249 312.185 221.326 313.409 221.326 316.206Z" fill="white"/>
<path d="M205.418 306.939C205.418 309.737 207.341 313.059 209.789 314.457C212.236 315.856 214.16 314.807 214.16 312.01C214.16 309.212 212.236 305.89 209.789 304.492C207.341 303.093 205.418 304.142 205.418 306.939Z" fill="white"/>
<path d="M239.509 322.325C239.334 322.85 239.16 323.374 239.16 324.074C239.16 326.871 241.083 330.193 243.53 331.592C244.404 332.116 245.104 332.291 245.628 332.116C244.929 333.515 243.355 334.039 241.607 332.99C239.159 331.592 237.236 328.27 237.236 325.472C237.236 323.374 238.11 322.325 239.509 322.325Z" fill="#A9EBFF"/>
<path d="M223.599 313.059C223.424 313.584 223.249 314.108 223.249 314.808C223.249 317.605 225.173 320.927 227.62 322.325C228.494 322.85 229.194 323.025 229.718 322.85C229.019 324.249 227.445 324.773 225.697 323.724C223.249 322.325 221.326 319.004 221.326 316.206C221.326 314.283 222.2 313.234 223.599 313.059Z" fill="#A9EBFF"/>
<path d="M207.691 303.793C207.516 304.317 207.341 304.842 207.341 305.541C207.341 308.339 209.264 311.66 211.712 313.059C212.586 313.584 213.285 313.758 213.81 313.584C213.111 314.982 211.537 315.507 209.789 314.458C207.341 313.059 205.418 309.737 205.418 306.94C205.418 305.017 206.292 303.968 207.691 303.793Z" fill="#A9EBFF"/>
<path d="M263.99 246.797L340.392 202.565V188.753L263.99 232.986V246.797Z" fill="url(#paint35_linear_265_15886)"/>
<path d="M263.99 246.797L340.392 202.565V188.753L263.99 232.986V246.797Z" fill="url(#paint36_linear_265_15886)"/>
<path d="M263.992 232.986L340.394 188.753L263.992 144.695L187.59 188.753L263.992 232.986Z" fill="url(#paint37_linear_265_15886)"/>
<path d="M263.992 231.237L338.995 187.879L340.394 188.753L263.992 232.986L187.59 188.753L188.988 187.879L263.992 231.237Z" fill="#80A9FF"/>
<path d="M187.59 202.565L263.992 246.797V232.986L187.59 188.753V202.565Z" fill="url(#paint38_linear_265_15886)"/>
<path opacity="0.5" d="M340.388 259.036V279.666L263.986 323.724V303.094L340.388 259.036Z" fill="white"/>
<path opacity="0.5" d="M187.586 259.036V279.666L263.988 323.724V303.094L187.586 259.036Z" fill="white"/>
<path d="M451.927 402.574L527.98 358.516L451.927 314.633L375.875 358.516L451.927 402.574Z" fill="#053054" fill-opacity="0.1"/>
<path d="M451.926 353.096L528.503 308.863V274.946L451.926 319.178V353.096Z" fill="url(#paint39_linear_265_15886)"/>
<path d="M451.926 353.096L528.503 308.863V274.946L451.926 319.178V353.096Z" fill="url(#paint40_linear_265_15886)"/>
<path d="M451.927 319.178L528.504 274.946L451.927 230.888L375.525 274.946L451.927 319.178Z" fill="url(#paint41_linear_265_15886)"/>
<path d="M451.928 308.688L510.148 274.946L451.928 241.378L393.709 274.946L451.928 308.688Z" fill="white"/>
<path d="M375.525 308.863L451.927 353.096V319.178L375.525 274.946V308.863Z" fill="url(#paint42_linear_265_15886)"/>
<path d="M375.525 308.863L451.927 353.096V319.178L375.525 274.946V308.863Z" fill="url(#paint43_linear_265_15886)"/>
<path d="M451.926 298.548L528.503 254.315V220.398L451.926 264.63V298.548Z" fill="url(#paint44_linear_265_15886)"/>
<path d="M451.926 298.548L528.503 254.315V220.398L451.926 264.63V298.548Z" fill="url(#paint45_linear_265_15886)"/>
<path d="M451.927 264.631L528.504 220.398L451.927 176.34L375.525 220.398L451.927 264.631Z" fill="url(#paint46_linear_265_15886)"/>
<path d="M451.927 264.631L528.504 220.398L451.927 176.34L375.525 220.398L451.927 264.631Z" fill="url(#paint47_linear_265_15886)"/>
<path d="M451.927 262.882L526.931 219.698L528.504 220.398L451.927 264.631L375.525 220.398L376.924 219.698L451.927 262.882Z" fill="#A9EBFF"/>
<path d="M451.927 317.43L526.931 274.246L528.504 274.946L451.927 319.179L375.525 274.946L376.924 274.246L451.927 317.43Z" fill="#A9EBFF"/>
<path d="M451.927 193.298L505.6 224.244L451.927 255.015L398.428 224.244L451.927 193.298Z" fill="white"/>
<path d="M451.929 193.298L398.43 224.244L391.961 220.398L451.929 185.781L511.896 220.398L505.602 224.244L451.929 193.298Z" fill="#2573BA"/>
<path d="M451.929 193.298L398.43 224.244L391.961 220.398L451.929 185.781L511.896 220.398L505.602 224.244L451.929 193.298Z" fill="url(#paint48_linear_265_15886)"/>
<path d="M375.525 254.315L451.927 298.548V264.63L375.525 220.398V254.315Z" fill="url(#paint49_linear_265_15886)"/>
<path d="M375.525 254.315L451.927 298.548V264.63L375.525 220.398V254.315Z" fill="url(#paint50_linear_265_15886)"/>
<path d="M425.357 266.204C425.357 269.001 427.281 272.323 429.728 273.722C432.176 275.12 434.099 274.071 434.099 271.274C434.099 268.477 432.176 265.155 429.728 263.756C427.281 262.183 425.357 263.407 425.357 266.204Z" fill="white"/>
<path d="M409.445 256.938C409.445 259.735 411.368 263.057 413.816 264.456C416.264 265.854 418.187 264.805 418.187 262.008C418.187 259.211 416.264 255.889 413.816 254.49C411.368 253.091 409.445 254.14 409.445 256.938Z" fill="white"/>
<path d="M393.361 247.846C393.361 250.644 395.284 253.966 397.732 255.364C400.18 256.763 402.103 255.714 402.103 252.917C402.103 250.119 400.18 246.797 397.732 245.399C395.459 243.825 393.361 245.049 393.361 247.846Z" fill="white"/>
<path d="M427.452 263.057C427.278 263.581 427.103 264.106 427.103 264.805C427.103 267.602 429.026 270.924 431.474 272.323C432.348 272.847 433.047 273.022 433.572 272.847C432.872 274.246 431.299 274.77 429.551 273.721C427.103 272.323 425.18 269.001 425.18 266.204C425.355 264.28 426.229 263.231 427.452 263.057Z" fill="#A9EBFF"/>
<path d="M411.542 253.965C411.368 254.49 411.193 255.014 411.193 255.714C411.193 258.511 413.116 261.833 415.564 263.232C416.438 263.756 417.137 263.931 417.662 263.756C416.962 265.155 415.389 265.679 413.64 264.63C411.193 263.232 409.27 259.91 409.27 257.112C409.444 255.189 410.319 253.965 411.542 253.965Z" fill="#A9EBFF"/>
<path d="M395.634 244.699C395.459 245.224 395.285 245.748 395.285 246.448C395.285 249.245 397.208 252.567 399.655 253.965C400.529 254.49 401.229 254.665 401.753 254.49C401.054 255.889 399.48 256.413 397.732 255.364C395.284 253.965 393.361 250.644 393.361 247.846C393.361 245.923 394.41 244.874 395.634 244.699Z" fill="#A9EBFF"/>
<path d="M425.357 320.752C425.357 323.549 427.281 326.871 429.728 328.27C432.176 329.669 434.099 328.62 434.099 325.822C434.099 323.025 432.176 319.703 429.728 318.305C427.281 316.731 425.357 317.955 425.357 320.752Z" fill="white"/>
<path d="M409.445 311.486C409.445 314.283 411.368 317.605 413.816 319.003C416.264 320.402 418.187 319.353 418.187 316.556C418.187 313.758 416.264 310.437 413.816 309.038C411.368 307.639 409.445 308.688 409.445 311.486Z" fill="white"/>
<path d="M393.361 302.395C393.361 305.192 395.284 308.514 397.732 309.912C400.18 311.311 402.103 310.262 402.103 307.465C402.103 304.667 400.18 301.346 397.732 299.947C395.284 298.548 393.361 299.597 393.361 302.395Z" fill="white"/>
<path d="M427.452 317.605C427.278 318.129 427.103 318.654 427.103 319.353C427.103 322.151 429.026 325.472 431.474 326.871C432.348 327.396 433.047 327.57 433.572 327.396C432.872 328.794 431.299 329.319 429.551 328.27C427.103 326.871 425.18 323.549 425.18 320.752C425.355 318.829 426.229 317.78 427.452 317.605Z" fill="#A9EBFF"/>
<path d="M411.542 308.514C411.368 309.038 411.193 309.563 411.193 310.262C411.193 313.06 413.116 316.381 415.564 317.78C416.438 318.305 417.137 318.479 417.662 318.305C416.962 319.703 415.389 320.228 413.64 319.179C411.193 317.78 409.27 314.458 409.27 311.661C409.444 309.563 410.319 308.514 411.542 308.514Z" fill="#A9EBFF"/>
<path d="M395.634 299.248C395.459 299.772 395.285 300.297 395.285 300.996C395.285 303.793 397.208 307.115 399.655 308.514C400.529 309.038 401.229 309.213 401.753 309.038C401.054 310.437 399.48 310.961 397.732 309.912C395.284 308.514 393.361 305.192 393.361 302.395C393.361 300.471 394.41 299.422 395.634 299.248Z" fill="#A9EBFF"/>
<path d="M451.928 242.077L528.505 198.019V184.207L451.928 228.265V242.077Z" fill="url(#paint51_linear_265_15886)"/>
<path d="M451.928 242.077L528.505 198.019V184.207L451.928 228.265V242.077Z" fill="url(#paint52_linear_265_15886)"/>
<path d="M451.929 228.265L528.506 184.207L451.929 139.974L375.527 184.207L451.929 228.265Z" fill="url(#paint53_linear_265_15886)"/>
<path d="M451.929 228.265L528.506 184.207L451.929 139.974L375.527 184.207L451.929 228.265Z" fill="url(#paint54_linear_265_15886)"/>
<path d="M451.929 226.517L526.933 183.333L528.506 184.207L451.929 228.265L375.527 184.207L376.926 183.333L451.929 226.517Z" fill="#80A9FF"/>
<path d="M375.527 198.019L451.929 242.077V228.265L375.527 184.207V198.019Z" fill="url(#paint55_linear_265_15886)"/>
<path d="M375.527 198.019L451.929 242.077V228.265L375.527 184.207V198.019Z" fill="url(#paint56_linear_265_15886)"/>
<path opacity="0.5" d="M528.507 254.315V274.945L451.93 319.178V298.548L528.507 254.315Z" fill="white"/>
<path opacity="0.5" d="M375.529 254.315V274.945L451.931 319.178V298.548L375.529 254.315Z" fill="white"/>
<path d="M473.962 330.368L506.481 311.66C509.278 310.087 511.726 305.541 511.726 301.695C511.726 297.849 509.453 296.1 506.481 297.674L473.962 316.556C471.164 318.129 468.717 322.675 468.717 326.521C468.717 330.193 471.164 331.941 473.962 330.368Z" fill="white"/>
<path d="M500.886 307.989C503.683 306.416 506.131 301.87 506.131 298.024V297.849L506.481 297.674C509.278 296.1 511.726 297.849 511.726 301.695C511.726 305.541 509.453 309.912 506.481 311.66L473.962 330.368C471.164 331.941 468.892 330.368 468.717 326.696L500.886 307.989Z" fill="url(#paint57_linear_265_15886)"/>
<path d="M500.886 307.989C503.683 306.416 506.131 301.87 506.131 298.024V297.849L506.481 297.674C509.278 296.1 511.726 297.849 511.726 301.695C511.726 305.541 509.453 309.912 506.481 311.66L473.962 330.368C471.164 331.941 468.892 330.368 468.717 326.696L500.886 307.989Z" fill="url(#paint58_linear_265_15886)"/>
<path d="M357.17 460.094L433.222 416.211L357.17 372.328L281.117 416.211L357.17 460.094Z" fill="#081F56" fill-opacity="0.1"/>
<path d="M357.166 410.616L433.743 366.558V332.641L357.166 376.874V410.616Z" fill="url(#paint59_linear_265_15886)"/>
<path d="M357.166 410.616L433.743 366.558V332.641L357.166 376.874V410.616Z" fill="url(#paint60_linear_265_15886)"/>
<path d="M357.168 376.874L433.745 332.641L357.168 288.408L280.766 332.641L357.168 376.874Z" fill="url(#paint61_linear_265_15886)"/>
<path d="M357.169 366.209L415.388 332.641L357.169 299.073L298.949 332.641L357.169 366.209Z" fill="white"/>
<path d="M280.766 366.558L357.168 410.616V376.874L280.766 332.641V366.558Z" fill="url(#paint62_linear_265_15886)"/>
<path d="M280.766 366.558L357.168 410.616V376.874L280.766 332.641V366.558Z" fill="url(#paint63_linear_265_15886)"/>
<path d="M280.766 366.558L357.168 410.616V376.874L280.766 332.641V366.558Z" fill="url(#paint64_linear_265_15886)"/>
<path d="M280.766 366.558L357.168 410.616V376.874L280.766 332.641V366.558Z" fill="url(#paint65_linear_265_15886)"/>
<path d="M357.166 356.243L433.743 312.01V278.093L357.166 322.325V356.243Z" fill="url(#paint66_linear_265_15886)"/>
<path d="M357.166 356.243L433.743 312.01V278.093L357.166 322.325V356.243Z" fill="url(#paint67_linear_265_15886)"/>
<path d="M357.168 322.325L433.745 278.093L357.168 234.035L280.766 278.093L357.168 322.325Z" fill="url(#paint68_linear_265_15886)"/>
<path d="M357.168 320.577L432.171 277.219L433.745 278.093L357.168 322.326L280.766 278.093L282.164 277.219L357.168 320.577Z" fill="#A9EBFF"/>
<path d="M357.168 375.125L432.171 331.766L433.745 332.64L357.168 376.873L280.766 332.64L282.164 331.766L357.168 375.125Z" fill="#A9EBFF"/>
<path d="M357.167 250.819L410.841 281.764L357.167 312.71L303.668 281.764L357.167 250.819Z" fill="white"/>
<path d="M357.169 250.819L303.67 281.764L297.201 278.093L357.169 243.476L417.137 278.093L410.843 281.764L357.169 250.819Z" fill="#2573BA"/>
<path d="M280.766 312.01L357.168 356.243V322.325L280.766 278.093V312.01Z" fill="url(#paint69_linear_265_15886)"/>
<path d="M280.766 312.01L357.168 356.243V322.325L280.766 278.093V312.01Z" fill="url(#paint70_linear_265_15886)"/>
<path d="M280.766 312.01L357.168 356.243V322.325L280.766 278.093V312.01Z" fill="url(#paint71_linear_265_15886)"/>
<path d="M330.596 323.724C330.596 326.521 332.519 329.843 334.967 331.242C337.414 332.64 339.337 331.591 339.337 328.794C339.337 325.997 337.414 322.675 334.967 321.276C332.519 319.878 330.596 321.101 330.596 323.724Z" fill="white"/>
<path d="M314.684 314.633C314.684 317.43 316.607 320.752 319.054 322.15C321.502 323.549 323.425 322.5 323.425 319.703C323.425 316.905 321.502 313.584 319.054 312.185C316.607 310.786 314.684 311.835 314.684 314.633Z" fill="white"/>
<path d="M298.775 305.367C298.775 308.164 300.699 311.486 303.146 312.884C305.594 314.283 307.517 313.234 307.517 310.437C307.517 307.639 305.594 304.317 303.146 302.919C300.699 301.52 298.775 302.569 298.775 305.367Z" fill="white"/>
<path d="M332.691 320.751C332.516 321.276 332.341 321.8 332.341 322.5C332.341 325.297 334.264 328.619 336.712 330.018C337.586 330.542 338.285 330.717 338.81 330.542C338.111 331.941 336.537 332.465 334.789 331.416C332.341 330.018 330.418 326.696 330.418 323.898C330.593 321.975 331.467 320.751 332.691 320.751Z" fill="#A9EBFF"/>
<path d="M316.781 311.486C316.606 312.01 316.431 312.535 316.431 313.234C316.431 316.031 318.354 319.353 320.802 320.752C321.676 321.276 322.375 321.451 322.9 321.276C322.2 322.675 320.627 323.2 318.879 322.151C316.431 320.752 314.508 317.43 314.508 314.633C314.683 312.71 315.557 311.661 316.781 311.486Z" fill="#A9EBFF"/>
<path d="M300.872 302.394C300.698 302.919 300.523 303.443 300.523 304.142C300.523 306.94 302.446 310.262 304.894 311.66C305.768 312.185 306.467 312.36 306.992 312.185C306.292 313.583 304.719 314.108 302.97 313.059C300.523 311.66 298.6 308.338 298.6 305.541C298.774 303.618 299.649 302.394 300.872 302.394Z" fill="#A9EBFF"/>
<path d="M330.596 378.272C330.596 381.069 332.519 384.391 334.967 385.789C337.414 387.188 339.337 386.139 339.337 383.342C339.337 380.544 337.414 377.223 334.967 375.824C332.519 374.425 330.596 375.474 330.596 378.272Z" fill="white"/>
<path d="M314.684 369.18C314.684 371.977 316.607 375.299 319.054 376.698C321.502 378.097 323.425 377.048 323.425 374.25C323.425 371.453 321.502 368.131 319.054 366.732C316.607 365.159 314.684 366.383 314.684 369.18Z" fill="white"/>
<path d="M298.775 359.914C298.775 362.711 300.699 366.033 303.146 367.432C305.594 368.831 307.517 367.782 307.517 364.984C307.517 362.187 305.594 358.865 303.146 357.466C300.699 356.068 298.775 357.117 298.775 359.914Z" fill="white"/>
<path d="M332.691 375.299C332.516 375.824 332.341 376.348 332.341 377.048C332.341 379.845 334.264 383.167 336.712 384.565C337.586 385.09 338.285 385.265 338.81 385.09C338.111 386.489 336.537 387.013 334.789 385.964C332.341 384.565 330.418 381.244 330.418 378.446C330.593 376.523 331.467 375.299 332.691 375.299Z" fill="#A9EBFF"/>
<path d="M316.781 366.033C316.606 366.558 316.431 367.082 316.431 367.782C316.431 370.579 318.354 373.901 320.802 375.3C321.676 375.824 322.375 375.999 322.9 375.824C322.2 377.223 320.627 377.747 318.879 376.698C316.431 375.3 314.508 371.978 314.508 369.18C314.683 367.257 315.557 366.208 316.781 366.033Z" fill="#A9EBFF"/>
<path d="M300.872 356.942C300.698 357.466 300.523 357.991 300.523 358.69C300.523 361.487 302.446 364.809 304.894 366.208C305.768 366.732 306.467 366.907 306.992 366.732C306.292 368.131 304.719 368.655 302.97 367.606C300.523 366.208 298.6 362.886 298.6 360.089C298.774 357.991 299.649 356.942 300.872 356.942Z" fill="#A9EBFF"/>
<path d="M357.166 299.771L433.743 255.539V241.727L357.166 285.96V299.771Z" fill="url(#paint72_linear_265_15886)"/>
<path d="M357.166 299.771L433.743 255.539V241.727L357.166 285.96V299.771Z" fill="url(#paint73_linear_265_15886)"/>
<path d="M357.168 285.96L433.745 241.727L357.168 197.669L280.766 241.727L357.168 285.96Z" fill="url(#paint74_linear_265_15886)"/>
<path d="M357.168 284.212L432.171 240.853L433.745 241.727L357.168 285.96L280.766 241.727L282.164 240.853L357.168 284.212Z" fill="#80A9FF"/>
<path d="M280.766 255.539L357.168 299.771V285.96L280.766 241.727V255.539Z" fill="url(#paint75_linear_265_15886)"/>
<path d="M280.766 255.539L357.168 299.771V285.96L280.766 241.727V255.539Z" fill="url(#paint76_linear_265_15886)"/>
<path opacity="0.5" d="M433.747 312.01V332.64L357.17 376.873V356.243L433.747 312.01Z" fill="white"/>
<path opacity="0.5" d="M280.77 312.01V332.64L357.172 376.873V356.243L280.77 312.01Z" fill="white"/>
<path d="M379.202 388.063L411.721 369.356C414.518 367.782 416.966 363.236 416.966 359.39C416.966 355.544 414.693 353.795 411.721 355.369L379.202 374.076C376.405 375.65 373.957 380.195 373.957 384.042C373.957 387.888 376.405 389.636 379.202 388.063Z" fill="white"/>
<path d="M406.126 365.684C408.924 364.111 411.371 359.565 411.371 355.719V355.544L411.721 355.369C414.518 353.795 416.966 355.544 416.966 359.39C416.966 363.236 414.693 367.607 411.721 369.356L379.202 388.063C376.405 389.636 374.132 388.063 373.957 384.391L406.126 365.684Z" fill="url(#paint77_linear_265_15886)"/>
<path d="M528.155 468.486V465.513L526.057 464.29L501.58 480.199L528.155 468.486Z" fill="white"/>
<mask id="mask0_265_15886" style="mask-type:luminance" maskUnits="userSpaceOnUse" x="327" y="325" width="205" height="164">
<path d="M461.366 325.997C452.799 327.396 328.843 332.291 327.619 337.186C326.395 341.907 389.86 452.926 389.86 452.926L501.578 488.242V480.374L528.152 465.688L531.474 413.413C531.474 413.239 469.933 324.598 461.366 325.997Z" fill="white"/>
</mask>
<g mask="url(#mask0_265_15886)">
<path d="M379.021 383.167C379.021 379.845 380.945 375.999 383.567 374.6L411.366 358.516C412.589 357.816 413.638 357.816 414.338 358.341L445.108 376.174L411.191 404.497L380.42 386.838C379.546 386.139 379.021 384.915 379.021 383.167Z" fill="url(#paint78_linear_265_15886)"/>
<path d="M379.021 383.167C379.021 379.845 380.945 375.999 383.567 374.6L411.366 358.516C412.589 357.816 413.638 357.816 414.338 358.341L445.108 376.174L411.191 404.497L380.42 386.838C379.546 386.139 379.021 384.915 379.021 383.167Z" fill="url(#paint79_linear_265_15886)"/>
<path d="M379.021 383.167C379.021 379.845 380.945 375.999 383.567 374.6L411.366 358.516C412.589 357.816 413.638 357.816 414.338 358.341L445.108 376.174L411.191 404.497L380.42 386.838C379.546 386.139 379.021 384.915 379.021 383.167Z" fill="url(#paint80_linear_265_15886)"/>
<path d="M379.021 383.167C379.021 379.845 380.945 375.999 383.567 374.6L411.366 358.516C412.589 357.816 413.638 357.816 414.338 358.341L445.108 376.174L411.191 404.497L380.42 386.838C379.546 386.139 379.021 384.915 379.021 383.167Z" fill="url(#paint81_linear_265_15886)"/>
<path d="M379.021 383.167C379.021 379.845 380.945 375.999 383.567 374.6L411.366 358.516C412.589 357.816 413.638 357.816 414.338 358.341L445.108 376.174L411.191 404.497L380.42 386.838C379.546 386.139 379.021 384.915 379.021 383.167Z" fill="#777777"/>
<path d="M379.021 383.167C379.021 379.845 380.945 375.999 383.567 374.6L411.366 358.516C412.589 357.816 413.638 357.816 414.338 358.341L445.108 376.174L411.191 404.497L380.42 386.838C379.546 386.139 379.021 384.915 379.021 383.167Z" fill="#053054" fill-opacity="0.1"/>
<path d="M379.021 383.167C379.021 379.845 380.945 375.999 383.567 374.6L411.366 358.516C412.589 357.816 413.638 357.816 414.338 358.341L445.108 376.174L411.191 404.497L380.42 386.838C379.546 386.139 379.021 384.915 379.021 383.167Z" fill="url(#paint82_linear_265_15886)"/>
<path d="M414.163 404.147L441.961 388.062C444.409 386.664 446.507 382.817 446.507 379.495C446.507 376.174 444.584 374.775 441.961 376.174L414.163 392.258C411.715 393.657 409.617 397.503 409.617 400.825C409.617 404.147 411.715 405.72 414.163 404.147Z" fill="url(#paint83_linear_265_15886)"/>
<path d="M438.637 433.344L484.093 407.119V387.013L438.637 413.238V433.344Z" fill="url(#paint84_linear_265_15886)"/>
<path d="M438.637 433.344L484.093 407.119V387.013L438.637 413.238V433.344Z" fill="url(#paint85_linear_265_15886)"/>
<path d="M438.637 433.344L484.093 407.119V387.013L438.637 413.238V433.344Z" fill="url(#paint86_linear_265_15886)"/>
<path d="M438.636 413.238L484.093 387.013L438.636 360.788L393.18 387.013L438.636 413.238Z" fill="url(#paint87_linear_265_15886)"/>
<path d="M438.636 413.238L484.093 387.013L438.636 360.788L393.18 387.013L438.636 413.238Z" fill="url(#paint88_linear_265_15886)"/>
<path d="M393.18 407.119L438.636 433.344V413.238L393.18 387.013V407.119Z" fill="url(#paint89_linear_265_15886)"/>
<path d="M393.18 407.119L438.636 433.344V413.238L393.18 387.013V407.119Z" fill="url(#paint90_linear_265_15886)"/>
<path d="M393.18 407.119L438.636 433.344V413.238L393.18 387.013V407.119Z" fill="url(#paint91_linear_265_15886)"/>
<path d="M438.636 412.189L483.219 386.489L484.093 387.013L438.636 413.238L393.18 387.013L394.054 386.489L438.636 412.189Z" fill="#A9EBFF"/>
<path d="M447.381 416.735L473.781 401.35L495.984 419.183L497.733 434.393V448.38L576.582 496.459L598.437 509.397L595.115 519.362L579.904 525.481L558.924 519.187L530.601 500.48L484.096 474.605L470.983 464.465L470.109 443.31L468.536 430.372L447.381 416.735Z" fill="white"/>
<path d="M578.858 528.978C583.228 528.978 587.599 527.754 591.446 525.481C599.313 520.935 604.034 512.718 604.034 503.627V409.392C604.034 407.469 602.46 405.895 600.537 405.895C598.614 405.895 597.04 407.469 597.04 409.392V503.627C597.04 510.271 593.544 516.215 587.949 519.537C582.179 522.859 575.361 522.859 569.591 519.537L480.427 467.961C476.405 465.688 473.958 461.317 473.958 456.772V441.037C473.958 434.043 470.111 427.4 463.992 423.903L451.229 416.56C449.656 415.686 447.558 416.21 446.509 417.784C445.635 419.357 446.159 421.455 447.733 422.504L460.496 429.847C464.517 432.12 466.964 436.491 466.964 441.037V456.772C466.964 463.765 470.811 470.409 476.93 473.905L566.095 525.481C570.116 527.929 574.487 528.978 578.858 528.978Z" fill="white"/>
<path d="M472.38 402.574C473.254 401 475.352 400.301 477.101 401.35L489.863 408.693C495.983 412.19 499.829 418.833 499.829 425.826V441.561C499.829 446.107 502.277 450.478 506.298 452.751L600.358 507.124C602.631 508.523 605.253 509.222 607.876 509.572C607.701 511.844 607.701 514.117 607.526 516.39C603.855 516.04 600.358 514.991 596.861 513.068L502.801 458.695C496.682 455.198 492.836 448.555 492.836 441.561V425.826C492.836 421.281 490.388 416.91 486.367 414.637L473.604 407.294C472.03 406.42 471.506 404.322 472.38 402.574Z" fill="white"/>
<path d="M578.858 528.978C583.228 528.978 587.599 527.754 591.446 525.481C599.313 520.935 604.034 512.718 604.034 503.627V409.392C604.034 407.469 602.46 405.895 600.537 405.895C598.614 405.895 597.04 407.469 597.04 409.392V503.627C597.04 510.271 593.544 516.215 587.949 519.537C582.179 522.859 575.361 522.859 569.591 519.537L480.427 467.961C476.405 465.688 473.958 461.317 473.958 456.772V441.037C473.958 434.043 470.111 427.4 463.992 423.903L451.229 416.56C449.656 415.686 447.558 416.21 446.509 417.784C445.635 419.357 446.159 421.455 447.733 422.504L460.496 429.847C464.517 432.12 466.964 436.491 466.964 441.037V456.772C466.964 463.765 470.811 470.409 476.93 473.905L566.095 525.481C570.116 527.929 574.487 528.978 578.858 528.978Z" fill="url(#paint92_linear_265_15886)"/>
<path opacity="0.2" d="M429.023 423.554L433.744 426.351V417.085L429.023 414.287V423.554Z" fill="white"/>
<path opacity="0.2" d="M421.336 419.183L425.882 421.805V412.539L421.336 409.917V419.183Z" fill="white"/>
<path opacity="0.2" d="M413.641 414.812L418.186 417.434V408.168L413.641 405.371V414.812Z" fill="white"/>
<path d="M405.947 410.266L410.493 412.889V403.622L405.947 401V410.266Z" fill="white"/>
<path d="M398.08 405.896L402.801 408.518V399.252L398.08 396.455V405.896Z" fill="white"/>
</g>
<path d="M501.58 488.241L527.98 473.555L528.155 465.513L501.58 480.199V488.241Z" fill="#7BDAFF"/>
<path d="M511.196 479.15C511.196 480.024 510.496 481.248 509.622 481.773C508.748 482.297 508.049 481.948 508.049 480.899C508.049 479.85 508.748 478.801 509.622 478.276C510.496 477.752 511.196 478.276 511.196 479.15Z" fill="#3A9BD5"/>
<path d="M516.614 476.003C516.614 476.878 515.914 478.101 515.04 478.626C514.166 479.15 513.467 478.801 513.467 477.752C513.467 476.703 514.166 475.654 515.04 475.129C516.089 474.605 516.614 475.129 516.614 476.003Z" fill="#3A9BD5"/>
<path d="M522.211 472.856C522.211 473.731 521.512 474.954 520.638 475.479C519.764 476.003 519.064 475.654 519.064 474.605C519.064 473.731 519.764 472.507 520.638 471.982C521.512 471.458 522.211 471.807 522.211 472.856Z" fill="#3A9BD5"/>
<path d="M566.092 353.096L566.616 344.354L588.82 322.15L597.037 330.368L574.833 352.571L566.092 353.096ZM568.365 345.054L568.015 351.173L574.134 350.823L594.764 330.193L588.995 324.423L568.365 345.054Z" fill="white"/>
<path d="M532.174 395.231L523.957 387.013L546.161 364.81L554.903 364.285L554.378 373.027L532.174 395.231ZM526.405 387.013L532.174 392.783L552.804 372.153L553.154 366.033L547.035 366.383L526.405 387.013Z" fill="white"/>
<path d="M588.82 395.231L566.616 373.027L566.092 364.285L574.833 364.81L597.037 387.013L588.82 395.231ZM568.365 372.153L588.995 392.783L594.764 387.013L574.134 366.383L568.015 366.033L568.365 372.153Z" fill="white"/>
<path d="M554.903 353.096L546.161 352.571L523.957 330.368L532.174 322.15L554.378 344.354L554.903 353.096ZM546.86 350.823L552.979 351.173L552.63 345.054L531.999 324.423L526.23 330.193L546.86 350.823Z" fill="white"/>
<g filter="url(#filter0_d_265_15886)">
<rect x="171" y="53" width="59" height="59" rx="5" fill="white"/>
</g>
<path d="M199.904 67H186V81.25H199.904V67Z" fill="#F25022"/>
<path d="M215.271 67H201.367V81.25H215.271V67Z" fill="#7FBA00"/>
<path d="M199.904 82.75H186V97H199.904V82.75Z" fill="#00A4EF"/>
<path d="M215.271 82.75H201.367V97H215.271V82.75Z" fill="#FFB900"/>
<g filter="url(#filter1_d_265_15886)">
<rect x="125" y="467" width="59" height="59" rx="5" fill="white"/>
</g>
<g clip-path="url(#clip0_265_15886)">
<mask id="mask1_265_15886" style="mask-type:luminance" maskUnits="userSpaceOnUse" x="139" y="481" width="30" height="30">
<path d="M169 481H139V511H169V481Z" fill="white"/>
</mask>
<g mask="url(#mask1_265_15886)">
<path fill-rule="evenodd" clip-rule="evenodd" d="M140.231 501.699L139.791 503.307C139.628 503.822 139.398 504.578 139.274 505.25C139.098 505.715 139.002 506.219 139.002 506.746C139.002 508.919 140.643 510.707 142.753 510.941C143.347 511.027 144.019 511.022 144.772 510.912L148.232 510.434C149.102 510.314 149.816 509.686 150.047 508.839L152.429 500.093L140.231 501.699Z" fill="url(#paint93_linear_265_15886)"/>
<path d="M143.605 502.114C139.958 502.679 139.209 505.431 139.209 505.431L142.701 492.598L160.951 490.129L158.462 499.169C158.333 499.653 157.926 500.024 157.421 500.101L157.319 500.118L143.502 502.131L143.605 502.114Z" fill="url(#paint94_linear_265_15886)"/>
<path d="M143.605 502.114C139.958 502.679 139.209 505.431 139.209 505.431L142.701 492.598L160.951 490.129L158.462 499.169C158.333 499.653 157.926 500.024 157.421 500.101L157.319 500.118L143.502 502.131L143.605 502.114Z" fill="url(#paint95_linear_265_15886)" fill-opacity="0.8"/>
<path d="M145.674 493.926L165.877 490.942C166.358 490.876 166.747 490.524 166.87 490.064L168.955 482.518C168.983 482.416 168.998 482.307 168.998 482.196C168.998 481.536 168.463 481 167.802 481C167.751 481 167.7 481.003 167.65 481.009L148.373 483.858C146.279 484.194 144.588 485.739 144.04 487.753L141.26 497.829C141.818 495.79 142.161 494.562 145.674 493.926Z" fill="url(#paint96_linear_265_15886)"/>
<path d="M145.674 493.926L165.877 490.942C166.358 490.876 166.747 490.524 166.87 490.064L168.955 482.518C168.983 482.416 168.998 482.307 168.998 482.196C168.998 481.536 168.463 481 167.802 481C167.751 481 167.7 481.003 167.65 481.009L148.373 483.858C146.279 484.194 144.588 485.739 144.04 487.753L141.26 497.829C141.818 495.79 142.161 494.562 145.674 493.926Z" fill="url(#paint97_linear_265_15886)"/>
<path d="M145.674 493.926L165.877 490.942C166.358 490.876 166.747 490.524 166.87 490.064L168.955 482.518C168.983 482.416 168.998 482.307 168.998 482.196C168.998 481.536 168.463 481 167.802 481C167.751 481 167.7 481.003 167.65 481.009L148.373 483.858C146.279 484.194 144.588 485.739 144.04 487.753L141.26 497.829C141.818 495.79 142.161 494.562 145.674 493.926Z" fill="url(#paint98_linear_265_15886)"/>
<path d="M145.674 493.926L165.877 490.942C166.358 490.876 166.747 490.524 166.87 490.064L168.955 482.518C168.983 482.416 168.998 482.307 168.998 482.196C168.998 481.536 168.463 481 167.802 481C167.751 481 167.7 481.003 167.65 481.009L148.373 483.858C146.279 484.194 144.588 485.739 144.04 487.753L141.26 497.829C141.818 495.79 142.161 494.562 145.674 493.926Z" fill="url(#paint99_linear_265_15886)"/>
<path d="M145.674 493.926L165.877 490.942C166.358 490.876 166.747 490.524 166.87 490.064L168.955 482.518C168.983 482.416 168.998 482.307 168.998 482.196C168.998 481.536 168.463 481 167.802 481C167.751 481 167.7 481.003 167.65 481.009L148.373 483.858C146.279 484.194 144.588 485.739 144.04 487.753L141.26 497.829C141.818 495.79 142.161 494.562 145.674 493.926Z" fill="url(#paint100_linear_265_15886)"/>
<path d="M145.674 493.926L165.877 490.942C166.358 490.876 166.747 490.524 166.87 490.064L168.955 482.518C168.983 482.416 168.998 482.307 168.998 482.196C168.998 481.536 168.463 481 167.802 481C167.751 481 167.7 481.003 167.65 481.009L148.373 483.858C146.279 484.194 144.588 485.739 144.04 487.753L141.26 497.829C141.818 495.79 142.161 494.562 145.674 493.926Z" fill="url(#paint101_linear_265_15886)"/>
<path d="M145.674 493.926L165.877 490.942C166.358 490.876 166.747 490.524 166.87 490.064L168.955 482.518C168.983 482.416 168.998 482.307 168.998 482.196C168.998 481.536 168.463 481 167.802 481C167.751 481 167.7 481.003 167.65 481.009L148.373 483.858C146.279 484.194 144.588 485.739 144.04 487.753L141.26 497.829C141.818 495.79 142.161 494.562 145.674 493.926Z" fill="url(#paint102_linear_265_15886)" fill-opacity="0.4"/>
<path d="M145.674 493.927C142.748 494.456 142.022 495.399 141.538 496.875L139.209 505.432C139.209 505.432 139.953 502.708 143.556 502.125L157.32 500.12L157.422 500.104C157.926 500.027 158.333 499.655 158.463 499.171L160.51 491.735L145.675 493.927H145.674Z" fill="url(#paint103_linear_265_15886)"/>
<path d="M145.674 493.927C142.748 494.456 142.022 495.399 141.538 496.875L139.209 505.432C139.209 505.432 139.953 502.708 143.556 502.125L157.32 500.12L157.422 500.104C157.926 500.027 158.333 499.655 158.463 499.171L160.51 491.735L145.675 493.927H145.674Z" fill="url(#paint104_linear_265_15886)" fill-opacity="0.2"/>
<path fill-rule="evenodd" clip-rule="evenodd" d="M143.557 502.126C140.513 502.618 139.513 504.634 139.274 505.249C139.098 505.715 139.002 506.219 139.002 506.746C139.002 508.919 140.643 510.708 142.753 510.941C143.347 511.027 144.019 511.023 144.772 510.912L148.232 510.434C149.102 510.314 149.816 509.686 150.047 508.839L152.218 500.865L143.558 502.126L143.557 502.126Z" fill="url(#paint105_linear_265_15886)"/>
</g>
</g>
<g filter="url(#filter2_d_265_15886)">
<rect x="71" y="175" width="59" height="59" rx="5" fill="white"/>
</g>
<path d="M111.253 190.256V217.751C111.253 218.435 110.701 219.007 110.002 219.007H102.216C101.535 219.007 100.965 218.453 100.965 217.751V190.256C100.965 189.572 101.517 189 102.216 189H110.002C110.683 189.018 111.253 189.572 111.253 190.256Z" fill="url(#paint106_linear_265_15886)"/>
<path d="M105.181 197.771V219.026H94.8926V197.771C94.8926 197.088 95.4447 196.516 96.1441 196.516H103.929C104.61 196.516 105.181 197.07 105.181 197.771Z" fill="url(#paint107_linear_265_15886)"/>
<path d="M88.8184 205.268V217.77C88.8184 218.453 89.3705 219.026 90.0699 219.026H99.1067V205.268C99.1067 204.585 98.5546 204.013 97.8552 204.013H90.0699C89.3889 204.013 88.8184 204.567 88.8184 205.268Z" fill="url(#paint108_linear_265_15886)"/>
<g filter="url(#filter3_d_265_15886)">
<rect x="44" y="337" width="59" height="59" rx="5" fill="white"/>
</g>
<path d="M86.0498 358.5L72.8976 351L59.6367 358.5V373.5L72.7889 381L85.9411 373.5L86.0498 358.5ZM72.7889 378.174L62.028 372.087V359.913L72.7889 353.826L83.5498 359.913V372.087L72.7889 378.174Z" fill="#0079D5"/>
<path d="M62.1367 359.913L72.8976 353.826L83.6585 359.913L86.1584 358.5L73.0063 351L59.6367 358.5L62.1367 359.913Z" fill="url(#paint109_linear_265_15886)"/>
<path d="M66.1582 377.196L63.6582 375.783L76.9191 368.391L79.5278 369.804L66.1582 377.196Z" fill="url(#paint110_linear_265_15886)"/>
<path d="M69.7457 364.804C69.7457 364.804 72.8979 364.37 75.5066 367.739C75.5066 367.739 79.4196 368.5 77.7892 366.217C76.1588 363.717 73.4414 362.196 70.3979 362.087C70.3979 362.087 68.224 362.848 69.7457 364.804Z" fill="url(#paint111_linear_265_15886)"/>
<path d="M78.0057 372.087C79.7466 372.087 81.1579 370.724 81.1579 369.043C81.1579 367.363 79.7466 366 78.0057 366C76.2648 366 74.8535 367.363 74.8535 369.043C74.8535 370.724 76.2648 372.087 78.0057 372.087Z" fill="url(#paint112_linear_265_15886)"/>
<path d="M67.6795 365.891C69.4204 365.891 70.8317 364.529 70.8317 362.848C70.8317 361.167 69.4204 359.804 67.6795 359.804C65.9386 359.804 64.5273 361.167 64.5273 362.848C64.5273 364.529 65.9386 365.891 67.6795 365.891Z" fill="url(#paint113_linear_265_15886)"/>
<path d="M278.118 519.474C278.002 518.516 279.176 517.965 279.838 518.666L285.665 524.838C285.883 525.069 286.198 525.183 286.513 525.145L294.939 524.118C295.897 524.002 296.448 525.176 295.746 525.838L289.575 531.665C289.344 531.883 289.23 532.198 289.268 532.513L290.294 540.939C290.411 541.897 289.237 542.448 288.575 541.746L282.748 535.574C282.53 535.344 282.215 535.23 281.9 535.268L273.474 536.294C272.516 536.411 271.965 535.237 272.667 534.575L278.838 528.748C279.069 528.53 279.183 528.215 279.145 527.9L278.118 519.474Z" fill="#49E5A7"/>
<defs>
<filter id="filter0_d_265_15886" x="127" y="13" width="147" height="147" filterUnits="userSpaceOnUse" color-interpolation-filters="sRGB">
<feFlood flood-opacity="0" result="BackgroundImageFix"/>
<feColorMatrix in="SourceAlpha" type="matrix" values="0 0 0 0 0 0 0 0 0 0 0 0 0 0 0 0 0 0 127 0" result="hardAlpha"/>
<feOffset dy="4"/>
<feGaussianBlur stdDeviation="22"/>
<feComposite in2="hardAlpha" operator="out"/>
<feColorMatrix type="matrix" values="0 0 0 0 0.176824 0 0 0 0 0.195654 0 0 0 0 0.240093 0 0 0 0.05 0"/>
<feBlend mode="normal" in2="BackgroundImageFix" result="effect1_dropShadow_265_15886"/>
<feBlend mode="normal" in="SourceGraphic" in2="effect1_dropShadow_265_15886" result="shape"/>
</filter>
<filter id="filter1_d_265_15886" x="81" y="427" width="147" height="147" filterUnits="userSpaceOnUse" color-interpolation-filters="sRGB">
<feFlood flood-opacity="0" result="BackgroundImageFix"/>
<feColorMatrix in="SourceAlpha" type="matrix" values="0 0 0 0 0 0 0 0 0 0 0 0 0 0 0 0 0 0 127 0" result="hardAlpha"/>
<feOffset dy="4"/>
<feGaussianBlur stdDeviation="22"/>
<feComposite in2="hardAlpha" operator="out"/>
<feColorMatrix type="matrix" values="0 0 0 0 0.176824 0 0 0 0 0.195654 0 0 0 0 0.240093 0 0 0 0.05 0"/>
<feBlend mode="normal" in2="BackgroundImageFix" result="effect1_dropShadow_265_15886"/>
<feBlend mode="normal" in="SourceGraphic" in2="effect1_dropShadow_265_15886" result="shape"/>
</filter>
<filter id="filter2_d_265_15886" x="27" y="135" width="147" height="147" filterUnits="userSpaceOnUse" color-interpolation-filters="sRGB">
<feFlood flood-opacity="0" result="BackgroundImageFix"/>
<feColorMatrix in="SourceAlpha" type="matrix" values="0 0 0 0 0 0 0 0 0 0 0 0 0 0 0 0 0 0 127 0" result="hardAlpha"/>
<feOffset dy="4"/>
<feGaussianBlur stdDeviation="22"/>
<feComposite in2="hardAlpha" operator="out"/>
<feColorMatrix type="matrix" values="0 0 0 0 0.176824 0 0 0 0 0.195654 0 0 0 0 0.240093 0 0 0 0.05 0"/>
<feBlend mode="normal" in2="BackgroundImageFix" result="effect1_dropShadow_265_15886"/>
<feBlend mode="normal" in="SourceGraphic" in2="effect1_dropShadow_265_15886" result="shape"/>
</filter>
<filter id="filter3_d_265_15886" x="0" y="297" width="147" height="147" filterUnits="userSpaceOnUse" color-interpolation-filters="sRGB">
<feFlood flood-opacity="0" result="BackgroundImageFix"/>
<feColorMatrix in="SourceAlpha" type="matrix" values="0 0 0 0 0 0 0 0 0 0 0 0 0 0 0 0 0 0 127 0" result="hardAlpha"/>
<feOffset dy="4"/>
<feGaussianBlur stdDeviation="22"/>
<feComposite in2="hardAlpha" operator="out"/>
<feColorMatrix type="matrix" values="0 0 0 0 0.176824 0 0 0 0 0.195654 0 0 0 0 0.240093 0 0 0 0.05 0"/>
<feBlend mode="normal" in2="BackgroundImageFix" result="effect1_dropShadow_265_15886"/>
<feBlend mode="normal" in="SourceGraphic" in2="effect1_dropShadow_265_15886" result="shape"/>
</filter>
<linearGradient id="paint0_linear_265_15886" x1="857" y1="312.5" x2="73" y2="312.5" gradientUnits="userSpaceOnUse">
<stop offset="0.31" stop-color="#4A7CF2" stop-opacity="0"/>
<stop offset="1" stop-color="#4A7CF2" stop-opacity="0.2"/>
</linearGradient>
<radialGradient id="paint1_radial_265_15886" cx="0" cy="0" r="1" gradientUnits="userSpaceOnUse" gradientTransform="translate(426.178 98.713) scale(403.609 403.609)">
<stop stop-color="#3A5185"/>
<stop offset="1" stop-color="#5F8AF1"/>
</radialGradient>
<radialGradient id="paint2_radial_265_15886" cx="0" cy="0" r="1" gradientUnits="userSpaceOnUse" gradientTransform="translate(573.454 449.44) scale(106.706 106.706)">
<stop stop-color="#FCB454"/>
<stop offset="1" stop-color="#FF962E"/>
</radialGradient>
<linearGradient id="paint3_linear_265_15886" x1="595.451" y1="500.015" x2="460.543" y2="553.543" gradientUnits="userSpaceOnUse">
<stop stop-color="#7DFDCA"/>
<stop offset="1" stop-color="#2AD692"/>
</linearGradient>
<linearGradient id="paint4_linear_265_15886" x1="441.932" y1="230.023" x2="345.984" y2="296.169" gradientUnits="userSpaceOnUse">
<stop stop-color="#3A9BD5"/>
<stop offset="1" stop-color="#2573BA"/>
</linearGradient>
<linearGradient id="paint5_linear_265_15886" x1="416.052" y1="197.369" x2="308.089" y2="243.752" gradientUnits="userSpaceOnUse">
<stop stop-color="#7BDAFF"/>
<stop offset="1" stop-color="#59BDEF"/>
</linearGradient>
<linearGradient id="paint6_linear_265_15886" x1="368.521" y1="246.548" x2="266.105" y2="277.424" gradientUnits="userSpaceOnUse">
<stop stop-color="#2573BA"/>
<stop offset="1" stop-color="#0063AD"/>
</linearGradient>
<linearGradient id="paint7_linear_265_15886" x1="441.934" y1="175.497" x2="345.986" y2="241.643" gradientUnits="userSpaceOnUse">
<stop stop-color="#3A9BD5"/>
<stop offset="1" stop-color="#2573BA"/>
</linearGradient>
<linearGradient id="paint8_linear_265_15886" x1="440.985" y1="188.589" x2="343.37" y2="210.446" gradientUnits="userSpaceOnUse">
<stop stop-color="#7DFDCA"/>
<stop offset="1" stop-color="#2AD692"/>
</linearGradient>
<linearGradient id="paint9_linear_265_15886" x1="416.052" y1="142.843" x2="308.089" y2="189.226" gradientUnits="userSpaceOnUse">
<stop stop-color="#7BDAFF"/>
<stop offset="1" stop-color="#59BDEF"/>
</linearGradient>
<linearGradient id="paint10_linear_265_15886" x1="415.962" y1="142.813" x2="308" y2="189.196" gradientUnits="userSpaceOnUse">
<stop stop-color="#7DFDCA"/>
<stop offset="1" stop-color="#20B87B"/>
</linearGradient>
<linearGradient id="paint11_linear_265_15886" x1="427.871" y1="143.176" x2="321.634" y2="219.394" gradientUnits="userSpaceOnUse">
<stop stop-color="#3D54A0"/>
<stop offset="1" stop-color="#4D66B9"/>
</linearGradient>
<linearGradient id="paint12_linear_265_15886" x1="368.521" y1="192.022" x2="266.105" y2="222.898" gradientUnits="userSpaceOnUse">
<stop stop-color="#2573BA"/>
<stop offset="1" stop-color="#0063AD"/>
</linearGradient>
<linearGradient id="paint13_linear_265_15886" x1="349.188" y1="184.634" x2="288.677" y2="199.352" gradientUnits="userSpaceOnUse">
<stop stop-color="#699BFF"/>
<stop offset="1" stop-color="#6F9AFF"/>
</linearGradient>
<linearGradient id="paint14_linear_265_15886" x1="437.152" y1="132.42" x2="351.398" y2="191.538" gradientUnits="userSpaceOnUse">
<stop stop-color="#3A9BD5"/>
<stop offset="1" stop-color="#2573BA"/>
</linearGradient>
<linearGradient id="paint15_linear_265_15886" x1="440.981" y1="146.779" x2="347.013" y2="175.108" gradientUnits="userSpaceOnUse">
<stop stop-color="#3D54A0"/>
<stop offset="1" stop-color="#4D66B9"/>
</linearGradient>
<linearGradient id="paint16_linear_265_15886" x1="416.05" y1="106.51" x2="308.088" y2="152.893" gradientUnits="userSpaceOnUse">
<stop stop-color="#7BDAFF"/>
<stop offset="1" stop-color="#59BDEF"/>
</linearGradient>
<linearGradient id="paint17_linear_265_15886" x1="416.049" y1="106.444" x2="308.002" y2="152.916" gradientUnits="userSpaceOnUse">
<stop stop-color="#699BFF"/>
<stop offset="1" stop-color="#6F9AFF"/>
</linearGradient>
<linearGradient id="paint18_linear_265_15886" x1="364.557" y1="146.845" x2="270.588" y2="175.174" gradientUnits="userSpaceOnUse">
<stop stop-color="#2573BA"/>
<stop offset="1" stop-color="#0063AD"/>
</linearGradient>
<linearGradient id="paint19_linear_265_15886" x1="364.591" y1="146.779" x2="270.444" y2="175.227" gradientUnits="userSpaceOnUse">
<stop stop-color="#3D54A0"/>
<stop offset="1" stop-color="#4D66B9"/>
</linearGradient>
<linearGradient id="paint20_linear_265_15886" x1="347.193" y1="287.652" x2="251.245" y2="353.798" gradientUnits="userSpaceOnUse">
<stop stop-color="#3A9BD5"/>
<stop offset="1" stop-color="#2573BA"/>
</linearGradient>
<linearGradient id="paint21_linear_265_15886" x1="346.224" y1="300.785" x2="248.63" y2="322.687" gradientUnits="userSpaceOnUse">
<stop stop-color="#7DFDCA"/>
<stop offset="1" stop-color="#2AD692"/>
</linearGradient>
<linearGradient id="paint22_linear_265_15886" x1="321.316" y1="254.998" x2="213.354" y2="301.38" gradientUnits="userSpaceOnUse">
<stop stop-color="#7BDAFF"/>
<stop offset="1" stop-color="#59BDEF"/>
</linearGradient>
<linearGradient id="paint23_linear_265_15886" x1="321.227" y1="254.881" x2="213.35" y2="301.174" gradientUnits="userSpaceOnUse">
<stop stop-color="#7DFDCA"/>
<stop offset="1" stop-color="#20B87B"/>
</linearGradient>
<linearGradient id="paint24_linear_265_15886" x1="273.785" y1="304.177" x2="171.369" y2="335.053" gradientUnits="userSpaceOnUse">
<stop stop-color="#2573BA"/>
<stop offset="1" stop-color="#0063AD"/>
</linearGradient>
<linearGradient id="paint25_linear_265_15886" x1="269.823" y1="300.785" x2="172.229" y2="322.687" gradientUnits="userSpaceOnUse">
<stop stop-color="#3D54A0"/>
<stop offset="1" stop-color="#4D66B9"/>
</linearGradient>
<linearGradient id="paint26_linear_265_15886" x1="254.453" y1="296.838" x2="194.08" y2="311.523" gradientUnits="userSpaceOnUse">
<stop stop-color="#699BFF"/>
<stop offset="1" stop-color="#6F9AFF"/>
</linearGradient>
<linearGradient id="paint27_linear_265_15886" x1="347.193" y1="233.126" x2="251.245" y2="299.272" gradientUnits="userSpaceOnUse">
<stop stop-color="#3A9BD5"/>
<stop offset="1" stop-color="#2573BA"/>
</linearGradient>
<linearGradient id="paint28_linear_265_15886" x1="346.224" y1="246.237" x2="248.63" y2="268.139" gradientUnits="userSpaceOnUse">
<stop stop-color="#7DFDCA"/>
<stop offset="1" stop-color="#2AD692"/>
</linearGradient>
<linearGradient id="paint29_linear_265_15886" x1="321.316" y1="200.472" x2="213.354" y2="246.855" gradientUnits="userSpaceOnUse">
<stop stop-color="#7BDAFF"/>
<stop offset="1" stop-color="#59BDEF"/>
</linearGradient>
<linearGradient id="paint30_linear_265_15886" x1="321.227" y1="200.333" x2="213.35" y2="246.626" gradientUnits="userSpaceOnUse">
<stop stop-color="#7DFDCA"/>
<stop offset="1" stop-color="#20B87B"/>
</linearGradient>
<linearGradient id="paint31_linear_265_15886" x1="333.115" y1="200.871" x2="226.878" y2="277.089" gradientUnits="userSpaceOnUse">
<stop stop-color="#3D54A0"/>
<stop offset="1" stop-color="#4D66B9"/>
</linearGradient>
<linearGradient id="paint32_linear_265_15886" x1="273.785" y1="249.651" x2="171.369" y2="280.527" gradientUnits="userSpaceOnUse">
<stop stop-color="#2573BA"/>
<stop offset="1" stop-color="#0063AD"/>
</linearGradient>
<linearGradient id="paint33_linear_265_15886" x1="269.823" y1="246.237" x2="172.229" y2="268.139" gradientUnits="userSpaceOnUse">
<stop stop-color="#3D54A0"/>
<stop offset="1" stop-color="#4D66B9"/>
</linearGradient>
<linearGradient id="paint34_linear_265_15886" x1="254.453" y1="242.291" x2="194.08" y2="256.975" gradientUnits="userSpaceOnUse">
<stop stop-color="#699BFF"/>
<stop offset="1" stop-color="#6F9AFF"/>
</linearGradient>
<linearGradient id="paint35_linear_265_15886" x1="342.415" y1="190.048" x2="256.661" y2="249.167" gradientUnits="userSpaceOnUse">
<stop stop-color="#3A9BD5"/>
<stop offset="1" stop-color="#2573BA"/>
</linearGradient>
<linearGradient id="paint36_linear_265_15886" x1="346.224" y1="204.474" x2="252.255" y2="232.803" gradientUnits="userSpaceOnUse">
<stop stop-color="#3D54A0"/>
<stop offset="1" stop-color="#4D66B9"/>
</linearGradient>
<linearGradient id="paint37_linear_265_15886" x1="321.316" y1="164.139" x2="213.354" y2="210.522" gradientUnits="userSpaceOnUse">
<stop stop-color="#699BFF"/>
<stop offset="1" stop-color="#6F9AFF"/>
</linearGradient>
<linearGradient id="paint38_linear_265_15886" x1="269.823" y1="204.474" x2="175.855" y2="232.803" gradientUnits="userSpaceOnUse">
<stop stop-color="#3D54A0"/>
<stop offset="1" stop-color="#4D66B9"/>
</linearGradient>
<linearGradient id="paint39_linear_265_15886" x1="535.172" y1="283.034" x2="439.224" y2="349.18" gradientUnits="userSpaceOnUse">
<stop stop-color="#3A9BD5"/>
<stop offset="1" stop-color="#2573BA"/>
</linearGradient>
<linearGradient id="paint40_linear_265_15886" x1="534.347" y1="296.112" x2="436.53" y2="318.065" gradientUnits="userSpaceOnUse">
<stop stop-color="#7DFDCA"/>
<stop offset="1" stop-color="#2AD692"/>
</linearGradient>
<linearGradient id="paint41_linear_265_15886" x1="509.295" y1="250.38" x2="401.332" y2="296.762" gradientUnits="userSpaceOnUse">
<stop stop-color="#7BDAFF"/>
<stop offset="1" stop-color="#59BDEF"/>
</linearGradient>
<linearGradient id="paint42_linear_265_15886" x1="461.764" y1="299.559" x2="359.347" y2="330.434" gradientUnits="userSpaceOnUse">
<stop stop-color="#2573BA"/>
<stop offset="1" stop-color="#0063AD"/>
</linearGradient>
<linearGradient id="paint43_linear_265_15886" x1="442.388" y1="292.156" x2="382" y2="306.812" gradientUnits="userSpaceOnUse">
<stop stop-color="#699BFF"/>
<stop offset="1" stop-color="#6F9AFF"/>
</linearGradient>
<linearGradient id="paint44_linear_265_15886" x1="535.172" y1="228.508" x2="439.224" y2="294.654" gradientUnits="userSpaceOnUse">
<stop stop-color="#3A9BD5"/>
<stop offset="1" stop-color="#2573BA"/>
</linearGradient>
<linearGradient id="paint45_linear_265_15886" x1="534.347" y1="241.564" x2="436.53" y2="263.517" gradientUnits="userSpaceOnUse">
<stop stop-color="#7DFDCA"/>
<stop offset="1" stop-color="#2AD692"/>
</linearGradient>
<linearGradient id="paint46_linear_265_15886" x1="509.295" y1="195.854" x2="401.332" y2="242.237" gradientUnits="userSpaceOnUse">
<stop stop-color="#7BDAFF"/>
<stop offset="1" stop-color="#59BDEF"/>
</linearGradient>
<linearGradient id="paint47_linear_265_15886" x1="509.315" y1="195.788" x2="401.353" y2="242.171" gradientUnits="userSpaceOnUse">
<stop stop-color="#7DFDCA"/>
<stop offset="1" stop-color="#20B87B"/>
</linearGradient>
<linearGradient id="paint48_linear_265_15886" x1="521.05" y1="196.198" x2="414.485" y2="272.304" gradientUnits="userSpaceOnUse">
<stop stop-color="#3D54A0"/>
<stop offset="1" stop-color="#4D66B9"/>
</linearGradient>
<linearGradient id="paint49_linear_265_15886" x1="461.764" y1="245.033" x2="359.347" y2="275.908" gradientUnits="userSpaceOnUse">
<stop stop-color="#2573BA"/>
<stop offset="1" stop-color="#0063AD"/>
</linearGradient>
<linearGradient id="paint50_linear_265_15886" x1="442.388" y1="237.608" x2="382" y2="252.264" gradientUnits="userSpaceOnUse">
<stop stop-color="#699BFF"/>
<stop offset="1" stop-color="#6F9AFF"/>
</linearGradient>
<linearGradient id="paint51_linear_265_15886" x1="530.396" y1="185.43" x2="444.641" y2="244.549" gradientUnits="userSpaceOnUse">
<stop stop-color="#3A9BD5"/>
<stop offset="1" stop-color="#2573BA"/>
</linearGradient>
<linearGradient id="paint52_linear_265_15886" x1="534.349" y1="199.881" x2="440.249" y2="228.4" gradientUnits="userSpaceOnUse">
<stop stop-color="#3D54A0"/>
<stop offset="1" stop-color="#4D66B9"/>
</linearGradient>
<linearGradient id="paint53_linear_265_15886" x1="509.296" y1="159.521" x2="401.334" y2="205.903" gradientUnits="userSpaceOnUse">
<stop stop-color="#7BDAFF"/>
<stop offset="1" stop-color="#59BDEF"/>
</linearGradient>
<linearGradient id="paint54_linear_265_15886" x1="509.406" y1="159.418" x2="401.359" y2="205.891" gradientUnits="userSpaceOnUse">
<stop stop-color="#699BFF"/>
<stop offset="1" stop-color="#6F9AFF"/>
</linearGradient>
<linearGradient id="paint55_linear_265_15886" x1="457.804" y1="199.856" x2="363.835" y2="228.184" gradientUnits="userSpaceOnUse">
<stop stop-color="#2573BA"/>
<stop offset="1" stop-color="#0063AD"/>
</linearGradient>
<linearGradient id="paint56_linear_265_15886" x1="457.761" y1="199.881" x2="363.839" y2="228.281" gradientUnits="userSpaceOnUse">
<stop stop-color="#3D54A0"/>
<stop offset="1" stop-color="#4D66B9"/>
</linearGradient>
<linearGradient id="paint57_linear_265_15886" x1="512.746" y1="300.312" x2="466.468" y2="332.216" gradientUnits="userSpaceOnUse">
<stop stop-color="#2573BA"/>
<stop offset="1" stop-color="#0063AD"/>
</linearGradient>
<linearGradient id="paint58_linear_265_15886" x1="515.008" y1="306.273" x2="461.801" y2="321.744" gradientUnits="userSpaceOnUse">
<stop stop-color="#3D54A0"/>
<stop offset="1" stop-color="#4D66B9"/>
</linearGradient>
<linearGradient id="paint59_linear_265_15886" x1="440.433" y1="340.663" x2="344.485" y2="406.809" gradientUnits="userSpaceOnUse">
<stop stop-color="#3A9BD5"/>
<stop offset="1" stop-color="#2573BA"/>
</linearGradient>
<linearGradient id="paint60_linear_265_15886" x1="439.588" y1="353.76" x2="341.792" y2="375.757" gradientUnits="userSpaceOnUse">
<stop stop-color="#7DFDCA"/>
<stop offset="1" stop-color="#2AD692"/>
</linearGradient>
<linearGradient id="paint61_linear_265_15886" x1="414.556" y1="308.009" x2="306.593" y2="354.391" gradientUnits="userSpaceOnUse">
<stop stop-color="#7BDAFF"/>
<stop offset="1" stop-color="#59BDEF"/>
</linearGradient>
<linearGradient id="paint62_linear_265_15886" x1="367.025" y1="357.188" x2="264.608" y2="388.063" gradientUnits="userSpaceOnUse">
<stop stop-color="#2573BA"/>
<stop offset="1" stop-color="#0063AD"/>
</linearGradient>
<linearGradient id="paint63_linear_265_15886" x1="362.999" y1="353.76" x2="265.405" y2="375.661" gradientUnits="userSpaceOnUse">
<stop stop-color="#3D54A0"/>
<stop offset="1" stop-color="#4D66B9"/>
</linearGradient>
<linearGradient id="paint64_linear_265_15886" x1="347.629" y1="349.813" x2="287.256" y2="364.498" gradientUnits="userSpaceOnUse">
<stop stop-color="#699BFF"/>
<stop offset="1" stop-color="#6F9AFF"/>
</linearGradient>
<linearGradient id="paint65_linear_265_15886" x1="347.629" y1="349.813" x2="287.256" y2="364.498" gradientUnits="userSpaceOnUse">
<stop stop-color="#699BFF"/>
<stop offset="1" stop-color="#6F9AFF"/>
</linearGradient>
<linearGradient id="paint66_linear_265_15886" x1="440.433" y1="286.137" x2="344.485" y2="352.282" gradientUnits="userSpaceOnUse">
<stop stop-color="#3A9BD5"/>
<stop offset="1" stop-color="#2573BA"/>
</linearGradient>
<linearGradient id="paint67_linear_265_15886" x1="439.588" y1="299.259" x2="341.771" y2="321.212" gradientUnits="userSpaceOnUse">
<stop stop-color="#7DFDCA"/>
<stop offset="1" stop-color="#2AD692"/>
</linearGradient>
<linearGradient id="paint68_linear_265_15886" x1="414.556" y1="253.483" x2="306.593" y2="299.865" gradientUnits="userSpaceOnUse">
<stop stop-color="#7DFDCA"/>
<stop offset="1" stop-color="#20B87B"/>
</linearGradient>
<linearGradient id="paint69_linear_265_15886" x1="367.025" y1="302.662" x2="264.608" y2="333.537" gradientUnits="userSpaceOnUse">
<stop stop-color="#2573BA"/>
<stop offset="1" stop-color="#0063AD"/>
</linearGradient>
<linearGradient id="paint70_linear_265_15886" x1="362.999" y1="299.259" x2="265.384" y2="321.116" gradientUnits="userSpaceOnUse">
<stop stop-color="#3D54A0"/>
<stop offset="1" stop-color="#4D66B9"/>
</linearGradient>
<linearGradient id="paint71_linear_265_15886" x1="347.629" y1="295.304" x2="287.241" y2="309.959" gradientUnits="userSpaceOnUse">
<stop stop-color="#699BFF"/>
<stop offset="1" stop-color="#6F9AFF"/>
</linearGradient>
<linearGradient id="paint72_linear_265_15886" x1="435.655" y1="243.058" x2="349.901" y2="302.177" gradientUnits="userSpaceOnUse">
<stop stop-color="#3A9BD5"/>
<stop offset="1" stop-color="#2573BA"/>
</linearGradient>
<linearGradient id="paint73_linear_265_15886" x1="439.588" y1="257.448" x2="345.44" y2="285.896" gradientUnits="userSpaceOnUse">
<stop stop-color="#3D54A0"/>
<stop offset="1" stop-color="#4D66B9"/>
</linearGradient>
<linearGradient id="paint74_linear_265_15886" x1="414.645" y1="217.113" x2="306.597" y2="263.586" gradientUnits="userSpaceOnUse">
<stop stop-color="#699BFF"/>
<stop offset="1" stop-color="#6F9AFF"/>
</linearGradient>
<linearGradient id="paint75_linear_265_15886" x1="363.063" y1="257.484" x2="269.094" y2="285.813" gradientUnits="userSpaceOnUse">
<stop stop-color="#2573BA"/>
<stop offset="1" stop-color="#0063AD"/>
</linearGradient>
<linearGradient id="paint76_linear_265_15886" x1="362.999" y1="257.448" x2="269.03" y2="285.777" gradientUnits="userSpaceOnUse">
<stop stop-color="#3D54A0"/>
<stop offset="1" stop-color="#4D66B9"/>
</linearGradient>
<linearGradient id="paint77_linear_265_15886" x1="418.008" y1="357.941" x2="371.729" y2="389.845" gradientUnits="userSpaceOnUse">
<stop stop-color="#2573BA"/>
<stop offset="1" stop-color="#0063AD"/>
</linearGradient>
<linearGradient id="paint78_linear_265_15886" x1="428.388" y1="368.437" x2="392.146" y2="393.052" gradientUnits="userSpaceOnUse">
<stop stop-color="#3A9BD5"/>
<stop offset="0.2406" stop-color="#3596D1"/>
<stop offset="0.5394" stop-color="#2587C7"/>
<stop offset="0.8678" stop-color="#0C6FB5"/>
<stop offset="1" stop-color="#0063AD"/>
</linearGradient>
<linearGradient id="paint79_linear_265_15886" x1="436.857" y1="368.214" x2="387.661" y2="385.559" gradientUnits="userSpaceOnUse">
<stop stop-color="#699BFF"/>
<stop offset="1" stop-color="#6F9AFF"/>
</linearGradient>
<linearGradient id="paint80_linear_265_15886" x1="450.152" y1="370.569" x2="369.968" y2="396.653" gradientUnits="userSpaceOnUse">
<stop stop-color="#3D54A0"/>
<stop offset="1" stop-color="#4D66B9"/>
</linearGradient>
<linearGradient id="paint81_linear_265_15886" x1="436.857" y1="368.214" x2="387.661" y2="385.559" gradientUnits="userSpaceOnUse">
<stop stop-color="#508AFF"/>
<stop offset="1" stop-color="#5C8CFC"/>
</linearGradient>
<linearGradient id="paint82_linear_265_15886" x1="450.152" y1="370.569" x2="369.968" y2="396.653" gradientUnits="userSpaceOnUse">
<stop stop-color="#506DCC"/>
<stop offset="1" stop-color="#5B79DB"/>
</linearGradient>
<linearGradient id="paint83_linear_265_15886" x1="441.443" y1="370.231" x2="402.611" y2="398.852" gradientUnits="userSpaceOnUse">
<stop stop-color="#2573BA"/>
<stop offset="1" stop-color="#0063AD"/>
</linearGradient>
<linearGradient id="paint84_linear_265_15886" x1="488.024" y1="391.712" x2="431.054" y2="430.987" gradientUnits="userSpaceOnUse">
<stop stop-color="#3A9BD5"/>
<stop offset="1" stop-color="#2573BA"/>
</linearGradient>
<linearGradient id="paint85_linear_265_15886" x1="487.563" y1="399.562" x2="429.505" y2="412.608" gradientUnits="userSpaceOnUse">
<stop stop-color="#3D54A0"/>
<stop offset="1" stop-color="#4D66B9"/>
</linearGradient>
<linearGradient id="paint86_linear_265_15886" x1="487.563" y1="399.562" x2="429.505" y2="412.608" gradientUnits="userSpaceOnUse">
<stop stop-color="#7DFDCA"/>
<stop offset="1" stop-color="#2AD692"/>
</linearGradient>
<linearGradient id="paint87_linear_265_15886" x1="472.657" y1="372.323" x2="408.554" y2="399.864" gradientUnits="userSpaceOnUse">
<stop stop-color="#7BDAFF"/>
<stop offset="1" stop-color="#59BDEF"/>
</linearGradient>
<linearGradient id="paint88_linear_265_15886" x1="472.742" y1="372.339" x2="408.539" y2="399.964" gradientUnits="userSpaceOnUse">
<stop stop-color="#699BFF"/>
<stop offset="1" stop-color="#6F9AFF"/>
</linearGradient>
<linearGradient id="paint89_linear_265_15886" x1="444.435" y1="401.524" x2="383.625" y2="419.857" gradientUnits="userSpaceOnUse">
<stop stop-color="#2573BA"/>
<stop offset="1" stop-color="#0063AD"/>
</linearGradient>
<linearGradient id="paint90_linear_265_15886" x1="442.106" y1="399.562" x2="384.048" y2="412.608" gradientUnits="userSpaceOnUse">
<stop stop-color="#3D54A0"/>
<stop offset="1" stop-color="#4D66B9"/>
</linearGradient>
<linearGradient id="paint91_linear_265_15886" x1="442.106" y1="399.562" x2="384.048" y2="412.608" gradientUnits="userSpaceOnUse">
<stop stop-color="#7DFDCA"/>
<stop offset="1" stop-color="#2AD692"/>
</linearGradient>
<linearGradient id="paint92_linear_265_15886" x1="604.02" y1="467.557" x2="446.027" y2="467.557" gradientUnits="userSpaceOnUse">
<stop stop-color="#ACDFF7"/>
<stop offset="1" stop-color="#BDEDFF"/>
</linearGradient>
<linearGradient id="paint93_linear_265_15886" x1="145.715" y1="511.001" x2="145.715" y2="500.093" gradientUnits="userSpaceOnUse">
<stop offset="0.056" stop-color="#2AAC94"/>
<stop offset="0.155" stop-color="#239C87"/>
<stop offset="0.372" stop-color="#177E71"/>
<stop offset="0.588" stop-color="#0E6961"/>
<stop offset="0.799" stop-color="#095D57"/>
<stop offset="1" stop-color="#085954"/>
</linearGradient>
<linearGradient id="paint94_linear_265_15886" x1="159.498" y1="503.086" x2="148.965" y2="491.629" gradientUnits="userSpaceOnUse">
<stop offset="0.0417478" stop-color="#ABE88E"/>
<stop offset="0.548926" stop-color="#2AAA92"/>
<stop offset="0.906" stop-color="#117865"/>
</linearGradient>
<linearGradient id="paint95_linear_265_15886" x1="133.613" y1="502.529" x2="143.637" y2="499.11" gradientUnits="userSpaceOnUse">
<stop stop-color="#6AD6F9"/>
<stop offset="1" stop-color="#6AD6F9" stop-opacity="0"/>
</linearGradient>
<linearGradient id="paint96_linear_265_15886" x1="141.26" y1="489.414" x2="167.941" y2="489.414" gradientUnits="userSpaceOnUse">
<stop offset="0.043" stop-color="#25FFD4"/>
<stop offset="0.874" stop-color="#55DDB9"/>
</linearGradient>
<linearGradient id="paint97_linear_265_15886" x1="151.53" y1="482.161" x2="157.251" y2="494.431" gradientUnits="userSpaceOnUse">
<stop stop-color="#F4E084" stop-opacity="0.6"/>
<stop offset="0.534" stop-color="#F4E084" stop-opacity="0"/>
</linearGradient>
<linearGradient id="paint98_linear_265_15886" x1="161.05" y1="474.524" x2="168.763" y2="486.371" gradientUnits="userSpaceOnUse">
<stop stop-color="#ABF5E2"/>
<stop offset="1" stop-color="#4EE6BD"/>
</linearGradient>
<linearGradient id="paint99_linear_265_15886" x1="155.129" y1="481" x2="155.129" y2="497.829" gradientUnits="userSpaceOnUse">
<stop stop-color="#1F937E"/>
<stop offset="1" stop-color="#9EE09F"/>
</linearGradient>
<linearGradient id="paint100_linear_265_15886" x1="155.129" y1="481" x2="155.129" y2="497.829" gradientUnits="userSpaceOnUse">
<stop stop-color="#1F937E"/>
<stop offset="1" stop-color="#C0ECC7"/>
</linearGradient>
<linearGradient id="paint101_linear_265_15886" x1="141.26" y1="485.685" x2="165.295" y2="496.846" gradientUnits="userSpaceOnUse">
<stop stop-color="#6AD6F9"/>
<stop offset="0.229501" stop-color="#60E9D0"/>
<stop offset="0.650711" stop-color="#6DE9BB"/>
<stop offset="0.99354" stop-color="#ABE88E"/>
</linearGradient>
<linearGradient id="paint102_linear_265_15886" x1="143.483" y1="487.773" x2="156.552" y2="490.664" gradientUnits="userSpaceOnUse">
<stop stop-color="white" stop-opacity="0"/>
<stop offset="0.458511" stop-color="white"/>
<stop offset="1" stop-color="white" stop-opacity="0"/>
</linearGradient>
<linearGradient id="paint103_linear_265_15886" x1="147.817" y1="498.969" x2="148.125" y2="489.804" gradientUnits="userSpaceOnUse">
<stop offset="0.204642" stop-color="#063D3B" stop-opacity="0"/>
<stop offset="0.58553" stop-color="#063D3B" stop-opacity="0.236587"/>
<stop offset="0.872285" stop-color="#063D3B" stop-opacity="0.75"/>
</linearGradient>
<linearGradient id="paint104_linear_265_15886" x1="138.107" y1="498.058" x2="149.276" y2="500.158" gradientUnits="userSpaceOnUse">
<stop stop-color="white" stop-opacity="0"/>
<stop offset="0.458511" stop-color="white"/>
<stop offset="1" stop-color="white" stop-opacity="0"/>
</linearGradient>
<linearGradient id="paint105_linear_265_15886" x1="146.176" y1="507.978" x2="143.997" y2="497.323" gradientUnits="userSpaceOnUse">
<stop offset="0.064" stop-color="#063D3B" stop-opacity="0"/>
<stop offset="0.17" stop-color="#063D3B" stop-opacity="0.135"/>
<stop offset="0.562" stop-color="#063D3B" stop-opacity="0.599"/>
<stop offset="0.85" stop-color="#063D3B" stop-opacity="0.9"/>
<stop offset="1" stop-color="#063D3B"/>
</linearGradient>
<linearGradient id="paint106_linear_265_15886" x1="99.2681" y1="189.006" x2="112.225" y2="217.236" gradientUnits="userSpaceOnUse">
<stop stop-color="#E6AD10"/>
<stop offset="1" stop-color="#C87E0E"/>
</linearGradient>
<linearGradient id="paint107_linear_265_15886" x1="94.3337" y1="196.795" x2="105.247" y2="218.549" gradientUnits="userSpaceOnUse">
<stop stop-color="#F6D751"/>
<stop offset="1" stop-color="#E6AD10"/>
</linearGradient>
<linearGradient id="paint108_linear_265_15886" x1="90.6055" y1="203.281" x2="96.617" y2="217.925" gradientUnits="userSpaceOnUse">
<stop stop-color="#F9E589"/>
<stop offset="1" stop-color="#F6D751"/>
</linearGradient>
<linearGradient id="paint109_linear_265_15886" x1="72.8253" y1="350.91" x2="72.8253" y2="360.511" gradientUnits="userSpaceOnUse">
<stop stop-color="#0077D0"/>
<stop offset="1" stop-color="#005BA2"/>
</linearGradient>
<linearGradient id="paint110_linear_265_15886" x1="78.1467" y1="368.95" x2="65.2703" y2="376.487" gradientUnits="userSpaceOnUse">
<stop stop-color="#3ACEEB"/>
<stop offset="1" stop-color="#4FE7FF"/>
</linearGradient>
<linearGradient id="paint111_linear_265_15886" x1="69.7457" y1="362.501" x2="77.7459" y2="367.104" gradientUnits="userSpaceOnUse">
<stop stop-color="#3ACEEB"/>
<stop offset="1" stop-color="#4FE7FF"/>
</linearGradient>
<linearGradient id="paint112_linear_265_15886" x1="77.9741" y1="371.869" x2="77.9741" y2="366.07" gradientUnits="userSpaceOnUse">
<stop stop-color="#1592B9"/>
<stop offset="0.12" stop-color="#22A5C9"/>
<stop offset="0.35" stop-color="#36C2E0"/>
<stop offset="0.57" stop-color="#44D6F1"/>
<stop offset="0.79" stop-color="#4CE3FC"/>
<stop offset="1" stop-color="#4FE7FF"/>
</linearGradient>
<linearGradient id="paint113_linear_265_15886" x1="67.6508" y1="365.691" x2="67.6508" y2="359.886" gradientUnits="userSpaceOnUse">
<stop stop-color="#1592B9"/>
<stop offset="0.12" stop-color="#22A5C9"/>
<stop offset="0.35" stop-color="#36C2E0"/>
<stop offset="0.57" stop-color="#44D6F1"/>
<stop offset="0.79" stop-color="#4CE3FC"/>
<stop offset="1" stop-color="#4FE7FF"/>
</linearGradient>
<clipPath id="clip0_265_15886">
<rect width="30" height="30" fill="white" transform="translate(139 481)"/>
</clipPath>
</defs>
</svg>
