<svg width="18" height="18" viewBox="0 0 18 18" fill="none" xmlns="http://www.w3.org/2000/svg">
<g clip-path="url(#clip0_254_33443)">
<path d="M16.4743 8.03882L16.4689 8.0365L1.99906 2.1549C1.87736 2.10497 1.74492 2.0854 1.6136 2.09791C1.48229 2.11043 1.35618 2.15465 1.24657 2.22662C1.13077 2.30098 1.03564 2.40239 0.969758 2.52173C0.903874 2.64107 0.869298 2.77458 0.869141 2.91027V6.67185C0.869205 6.85734 0.935296 7.03699 1.05602 7.17985C1.17675 7.32271 1.34455 7.41982 1.53049 7.45445L9.42233 8.88451C9.45335 8.89027 9.48133 8.90645 9.50146 8.93028C9.5216 8.9541 9.53261 8.98406 9.53261 9.01499C9.53261 9.04593 9.5216 9.07589 9.50146 9.09971C9.48133 9.12353 9.45335 9.13972 9.42233 9.14548L1.53083 10.5755C1.34494 10.6101 1.17715 10.7071 1.05637 10.8498C0.935588 10.9925 0.869378 11.1721 0.869141 11.3575V15.1197C0.869051 15.2493 0.901786 15.3768 0.964409 15.4909C1.02703 15.6051 1.11758 15.7021 1.22794 15.7735C1.36068 15.8599 1.51647 15.9061 1.67584 15.9063C1.78664 15.9062 1.8963 15.8844 1.99839 15.8422L16.4678 9.99415L16.4743 9.99117C16.669 9.90914 16.835 9.77295 16.9516 9.59945C17.0682 9.42595 17.1304 9.22275 17.1304 9.01499C17.1304 8.80724 17.0682 8.60404 16.9516 8.43054C16.835 8.25704 16.669 8.12085 16.4743 8.03882Z" fill="#2C3038"/>
</g>
<defs>
<clipPath id="clip0_254_33443">
<rect width="17.3469" height="17" fill="white" transform="translate(0.326172 0.5)"/>
</clipPath>
</defs>
</svg>
