<svg width="15" height="16" viewBox="0 0 15 16" fill="none" xmlns="http://www.w3.org/2000/svg">
<g clip-path="url(#clip0_116_3840)">
<path d="M1.57857 2.22729C0.825636 2.22729 0.214844 2.83784 0.214844 3.59102V14.1366C0.214844 14.8895 0.825636 15.5001 1.57857 15.5001H13.3063C14.0592 15.5001 14.67 14.8895 14.67 14.1366V3.59127C14.67 2.83809 14.0592 2.22754 13.3063 2.22754H12.8289V3.09115C12.8289 3.66746 12.36 4.13661 11.7832 4.13661C11.2066 4.13661 10.7377 3.66746 10.7377 3.09115V2.22729H4.14714V3.0909C4.14714 3.66721 3.678 4.13636 3.10168 4.13636C2.52486 4.13636 2.05571 3.66721 2.05571 3.0909V2.22729H1.57857ZM2.44267 6.04593H12.4422C12.7439 6.04593 12.9878 6.26677 12.9878 6.53981V13.3712C12.9878 13.6435 12.7439 13.8641 12.4422 13.8641H2.44267C2.14115 13.8641 1.89683 13.6435 1.89683 13.3712V6.53956C1.89683 6.26677 2.14115 6.04593 2.44267 6.04593Z" fill="#4A7CF2"/>
<path d="M2.60156 0.999875V2.2272V3.09081C2.60156 3.3666 2.82564 3.59093 3.10169 3.59093C3.37748 3.59093 3.60156 3.3666 3.60156 3.09081V2.2272V0.999875C3.60156 0.723832 3.37748 0.5 3.10169 0.5C2.82564 0.5 2.60156 0.723832 2.60156 0.999875Z" fill="#4A7CF2"/>
<path d="M11.2832 0.999875V2.2272V3.09081C11.2832 3.3666 11.5075 3.59093 11.7833 3.59093C12.0591 3.59093 12.2835 3.3666 12.2835 3.09081V2.2272V0.999875C12.2835 0.723832 12.0594 0.5 11.7833 0.5C11.5075 0.5 11.2832 0.723832 11.2832 0.999875Z" fill="#4A7CF2"/>
<path d="M5.49903 6.89771H2.85352V9.60517H5.49903V6.89771Z" fill="#4A7CF2"/>
<path d="M8.82911 6.89771H6.18359V9.60517H8.82911V6.89771Z" fill="#4A7CF2"/>
<path d="M5.49903 10.2256H2.85352V12.9328H5.49903V10.2256Z" fill="#4A7CF2"/>
<path d="M8.82911 10.2253H6.18359V12.9326H8.82911V10.2253Z" fill="#4A7CF2"/>
<path d="M12.2842 6.89771H9.63867V9.60517H12.2842V6.89771Z" fill="#4A7CF2"/>
<path d="M12.2842 10.2256H9.63867V12.9328H12.2842V10.2256Z" fill="#4A7CF2"/>
</g>
<defs>
<clipPath id="clip0_116_3840">
<rect width="15" height="15" fill="white" transform="translate(0 0.5)"/>
</clipPath>
</defs>
</svg>
