<svg width="37" height="37" viewBox="0 0 37 37" fill="none" xmlns="http://www.w3.org/2000/svg">
<rect width="37" height="37" rx="5" fill="#4A7CF2"/>
<path d="M19 13.5C15.4809 13.5 12.7395 15.5969 9.375 19C12.2711 21.909 14.7031 24.5 19 24.5C23.2926 24.5 26.4508 21.2172 28.625 19.0602C26.3992 16.5336 23.2453 13.5 19 13.5ZM19 22.923C16.8773 22.923 15.15 21.1613 15.15 19C15.15 16.8344 16.8773 15.077 19 15.077C21.1227 15.077 22.85 16.8387 22.85 19C22.85 21.1656 21.1227 22.923 19 22.923Z" fill="white"/>
<path d="M18.9992 17.6252C18.9992 17.2857 19.1238 16.9764 19.3258 16.7357C19.2184 16.7186 19.1109 16.71 18.9992 16.71C17.7617 16.71 16.752 17.7369 16.752 19.0002C16.752 20.2635 17.7617 21.2904 18.9992 21.2904C20.2367 21.2904 21.2465 20.2635 21.2465 19.0002C21.2465 18.9014 21.2379 18.8025 21.2293 18.7037C20.993 18.8885 20.7008 19.0002 20.3785 19.0002C19.6137 19.0002 18.9992 18.3857 18.9992 17.6252Z" fill="white"/>
</svg>
