<svg width="24" height="24" viewBox="0 0 24 24" fill="none" xmlns="http://www.w3.org/2000/svg">
<path d="M15.3048 9.4C16.4646 9.4 17.4048 10.3402 17.4048 11.5V17.1988C17.4048 20.1818 14.9866 22.6 12.0036 22.6C9.02055 22.6 6.60232 20.1818 6.60232 17.1988V11.5C6.60232 10.3402 7.54252 9.4 8.70232 9.4H15.3048ZM6.15754 9.39887C5.7382 9.90616 5.46763 10.541 5.41268 11.2365L5.40232 11.5V17.1988C5.40232 18.2147 5.63183 19.1771 6.04184 20.0368C5.64692 20.1436 5.23079 20.2 4.80149 20.2C2.1497 20.2 0 18.0503 0 15.3986V11.5C0 10.3982 0.848532 9.49456 1.92776 9.40696L2.1 9.4L6.15754 9.39887ZM17.8496 9.39887L21.9 9.4C23.0598 9.4 24 10.3402 24 11.5V15.4C24 18.0509 21.8509 20.2 19.2 20.2C18.7723 20.2 18.3576 20.1441 17.9629 20.0391C18.3236 19.2856 18.5446 18.4542 18.5941 17.5773L18.6048 17.1988V11.5C18.6048 10.7016 18.3214 9.96964 17.8496 9.39887ZM12 1C13.9883 1 15.6 2.61178 15.6 4.6C15.6 6.58822 13.9883 8.2 12 8.2C10.0117 8.2 8.4 6.58822 8.4 4.6C8.4 2.61178 10.0117 1 12 1ZM19.8 2.2C21.4568 2.2 22.8 3.54315 22.8 5.2C22.8 6.85685 21.4568 8.2 19.8 8.2C18.1432 8.2 16.8 6.85685 16.8 5.2C16.8 3.54315 18.1432 2.2 19.8 2.2ZM4.2 2.2C5.85685 2.2 7.2 3.54315 7.2 5.2C7.2 6.85685 5.85685 8.2 4.2 8.2C2.54315 8.2 1.2 6.85685 1.2 5.2C1.2 3.54315 2.54315 2.2 4.2 2.2Z" fill="#FFD700"/>
</svg>
