<svg width="20" height="20" viewBox="0 0 20 20" fill="none" xmlns="http://www.w3.org/2000/svg">
<path d="M9.05006 0.88841C9.35157 -0.0283648 10.6484 -0.0283642 10.9499 0.88841L12.8121 6.55041C12.9113 6.85209 13.1479 7.08871 13.4496 7.18793L19.1116 9.05006C20.0284 9.35157 20.0284 10.6484 19.1116 10.9499L13.4496 12.8121C13.1479 12.9113 12.9113 13.1479 12.8121 13.4496L10.9499 19.1116C10.6484 20.0284 9.35157 20.0284 9.05006 19.1116L7.18793 13.4496C7.08871 13.1479 6.85209 12.9113 6.55041 12.8121L0.88841 10.9499C-0.0283648 10.6484 -0.0283642 9.35157 0.88841 9.05006L6.55041 7.18793C6.85209 7.08871 7.08871 6.85209 7.18793 6.55041L9.05006 0.88841Z" fill="#465B9E" fill-opacity="0.8"/>
</svg>
