<svg width="15" height="16" viewBox="0 0 15 16" fill="none" xmlns="http://www.w3.org/2000/svg">
<path d="M7.5 1.125C6.14026 1.125 4.81105 1.52821 3.68046 2.28365C2.54987 3.03908 1.66868 4.11281 1.14833 5.36905C0.627979 6.62529 0.491831 8.00763 0.757104 9.34125C1.02238 10.6749 1.67716 11.8999 2.63864 12.8614C3.60013 13.8228 4.82514 14.4776 6.15876 14.7429C7.49238 15.0082 8.87471 14.872 10.131 14.3517C11.3872 13.8313 12.4609 12.9501 13.2164 11.8195C13.9718 10.689 14.375 9.35975 14.375 8C14.375 6.17664 13.6507 4.42795 12.3614 3.13864C11.0721 1.84933 9.32337 1.125 7.5 1.125ZM9.81688 10.3169C9.69967 10.434 9.54073 10.4999 9.375 10.4999C9.20928 10.4999 9.05033 10.434 8.93313 10.3169L7.05813 8.44187C6.94091 8.32469 6.87504 8.16575 6.875 8V4.25C6.875 4.08424 6.94085 3.92527 7.05806 3.80806C7.17527 3.69085 7.33424 3.625 7.5 3.625C7.66576 3.625 7.82473 3.69085 7.94194 3.80806C8.05915 3.92527 8.125 4.08424 8.125 4.25V7.74125L9.81688 9.43313C9.93405 9.55033 9.99987 9.70927 9.99987 9.875C9.99987 10.0407 9.93405 10.1997 9.81688 10.3169Z" fill="#FFD700"/>
</svg>
