<svg width="251" height="255" viewBox="0 0 251 255" fill="none" xmlns="http://www.w3.org/2000/svg">
<circle cx="125.382" cy="125.382" r="124.756" transform="matrix(-1 0 0 1 250.766 2.50745)" stroke="url(#paint0_linear_254_19330)" stroke-width="1.25382" stroke-dasharray="12.54 12.54"/>
<circle cx="243.662" cy="92.365" r="3.76147" fill="#4A7CF2"/>
<circle cx="151.713" cy="250.347" r="3.76147" stroke="#49E5A7" stroke-width="1.67177"/>
<path d="M168.792 6.27628C168.695 5.4755 169.676 5.01482 170.23 5.60139L172.998 8.53362C173.18 8.72665 173.443 8.82163 173.707 8.78954L177.71 8.30204C178.511 8.20452 178.971 9.18579 178.385 9.73959L175.453 12.508C175.26 12.6902 175.165 12.9533 175.197 13.2168L175.684 17.2198C175.782 18.0206 174.8 18.4813 174.247 17.8947L171.478 14.9625C171.296 14.7695 171.033 14.6745 170.769 14.7066L166.766 15.1941C165.966 15.2916 165.505 14.3103 166.092 13.7565L169.024 10.9881C169.217 10.8059 169.312 10.5428 169.28 10.2793L168.792 6.27628Z" fill="#49E5A7"/>
<path d="M218.945 197.694C218.847 196.893 219.828 196.432 220.382 197.019L223.15 199.951C223.333 200.144 223.596 200.239 223.859 200.207L227.862 199.719C228.663 199.622 229.124 200.603 228.537 201.157L225.605 203.925C225.412 204.107 225.317 204.371 225.349 204.634L225.837 208.637C225.934 209.438 224.953 209.899 224.399 209.312L221.631 206.38C221.448 206.187 221.185 206.092 220.922 206.124L216.919 206.611C216.118 206.709 215.657 205.728 216.244 205.174L219.176 202.405C219.369 202.223 219.464 201.96 219.432 201.697L218.945 197.694Z" fill="#4A7CF2"/>
<path d="M52.6047 16.3068C52.5072 15.506 53.4885 15.0453 54.0423 15.6319L56.8106 18.5641C56.9929 18.7572 57.256 18.8522 57.5195 18.8201L61.5225 18.3326C62.3233 18.235 62.784 19.2163 62.1974 19.7701L59.2652 22.5385C59.0721 22.7207 58.9772 22.9838 59.0093 23.2473L59.4968 27.2504C59.5943 28.0511 58.613 28.5118 58.0592 27.9252L55.2908 24.993C55.1086 24.8 54.8455 24.705 54.582 24.7371L50.579 25.2246C49.7782 25.3221 49.3175 24.3408 49.9041 23.787L52.8363 21.0187C53.0293 20.8364 53.1243 20.5733 53.0922 20.3098L52.6047 16.3068Z" fill="#4A7CF2"/>
<path opacity="0.66" d="M134.702 46.6462L134.289 46.4396C132.74 45.5099 131.5 46.5429 131.5 48.5055V140.851C131.5 142.917 132.74 145.189 134.289 146.119L134.702 146.325C136.252 147.255 137.491 146.222 137.491 144.259V51.9142C137.388 49.9516 136.148 47.5758 134.702 46.6462Z" fill="#48E5A7"/>
<path opacity="0.66" d="M145.753 77.0147L145.34 76.8081C143.79 75.8785 142.551 76.9114 142.551 78.874V123.497C142.551 125.563 143.79 127.836 145.34 128.765L145.753 128.972C147.302 129.901 148.542 128.868 148.542 126.906V82.2827C148.542 80.2168 147.302 77.8411 145.753 77.0147Z" fill="#48E5A7"/>
<path opacity="0.66" d="M156.911 94.0585L156.498 93.8519C154.948 92.9223 153.709 93.9552 153.709 95.9178V153.659C153.709 155.725 154.948 157.998 156.498 158.927L156.911 159.134C158.46 160.064 159.7 159.031 159.7 157.068V99.3265C159.7 97.2606 158.46 94.9882 156.911 94.0585Z" fill="#48E5A7"/>
<path opacity="0.66" d="M167.964 39.0025L167.551 38.7959C166.001 37.8663 164.762 38.8992 164.762 40.8618V160.063C164.762 162.129 166.001 164.402 167.551 165.331L167.964 165.538C169.513 166.468 170.753 165.435 170.753 163.472V44.2705C170.753 42.3079 169.513 39.9321 167.964 39.0025Z" fill="#48E5A7"/>
<path opacity="0.66" d="M179.118 64.4131L178.705 64.2065C177.156 63.2769 175.916 64.3098 175.916 66.2724V166.571C175.916 168.637 177.156 170.91 178.705 171.839L179.118 172.046C180.668 172.976 181.907 171.943 181.907 169.98V69.6812C181.907 67.7186 180.668 65.3428 179.118 64.4131Z" fill="#48E5A7"/>
<path opacity="0.66" d="M190.171 78.7708L189.758 78.5642C188.208 77.6346 186.969 78.6675 186.969 80.6301V118.229C186.969 120.295 188.208 122.568 189.758 123.497L190.171 123.704C191.72 124.633 192.96 123.601 192.96 121.638V84.0388C192.96 81.9729 191.72 79.5972 190.171 78.7708Z" fill="#48E5A7"/>
<path d="M78.69 235.158L182.09 174.995C183.535 174.168 183.329 172.721 181.678 171.687L111.712 131.165C110.061 130.235 107.481 130.131 106.036 130.958L2.63605 191.121C1.19134 191.948 1.39772 193.396 3.04882 194.429L73.0143 234.951C74.6655 235.882 77.2453 235.985 78.69 235.158Z" fill="#E0EAFF" fill-opacity="0.3"/>
<path opacity="0.6" d="M79.045 215.097L177.953 157.653C179.295 156.826 179.192 155.483 177.54 154.553L111.051 116.119C109.502 115.189 107.024 115.086 105.682 115.912L6.77425 173.357C5.43208 174.183 5.53532 175.527 7.18722 176.456L73.6763 214.891C75.3282 215.821 77.7029 215.924 79.045 215.097Z" fill="url(#paint1_linear_254_19330)"/>
<path d="M15.2927 155.829C13.64 155.829 12.0906 155.519 10.851 154.796C9.50822 154.073 8.78516 152.936 8.78516 151.8C8.78516 150.664 9.50822 149.528 10.851 148.805C13.3301 147.359 17.2553 147.359 19.7344 148.805C21.0772 149.528 21.8003 150.664 21.8003 151.8C21.8003 152.936 21.0772 154.073 19.7344 154.796C18.4948 155.519 16.9454 155.829 15.2927 155.829ZM15.2927 149.218C13.9499 149.218 12.6071 149.528 11.5741 150.044C10.7478 150.561 10.2313 151.18 10.2313 151.697C10.2313 152.317 10.7478 152.936 11.5741 153.35C13.5367 154.486 16.9454 154.486 18.908 153.35C19.7344 152.833 20.2508 152.213 20.2508 151.697C20.2508 151.077 19.7344 150.457 18.908 150.044C17.9784 149.528 16.6355 149.218 15.2927 149.218Z" fill="#48E5A7"/>
<path d="M5.68906 163.266C4.75941 163.266 3.82976 163.059 3.1067 162.646C2.28035 162.129 1.86719 161.51 1.86719 160.683C1.86719 159.96 2.38364 159.237 3.1067 158.824C4.55282 157.998 6.722 157.998 8.16812 158.824C8.99447 159.34 9.40766 159.96 9.40766 160.683C9.40766 161.406 8.89118 162.129 8.16812 162.646C7.54835 163.059 6.61871 163.266 5.68906 163.266ZM5.68906 159.754C5.06929 159.754 4.44955 159.857 3.93307 160.167C3.62319 160.373 3.4166 160.58 3.4166 160.683C3.4166 160.89 3.62319 161.096 3.93307 161.2C4.86272 161.716 6.51543 161.716 7.44508 161.2C7.75496 160.993 7.96155 160.786 7.96155 160.683C7.96155 160.477 7.75496 160.27 7.44508 160.167C6.92861 159.857 6.30883 159.754 5.68906 159.754Z" fill="#48E5A7"/>
<path d="M133.667 85.072H138.315C137.592 83.5226 137.179 82.593 137.179 82.593L91.2129 64.6198V141.471V141.574C91.2129 141.677 91.3162 141.884 91.5228 141.987L133.46 166.261C133.564 166.261 133.667 166.365 133.77 166.365V85.072H133.667Z" fill="#799FF7"/>
<path d="M160.629 74.1229L134.186 89.2039V135.48V166.365C134.495 166.365 134.805 166.261 135.012 166.158L160.216 151.594C160.526 151.49 160.629 151.284 160.629 151.077V74.1229Z" fill="url(#paint2_linear_254_19330)"/>
<path d="M132.326 66.0658V134.343V154.279V165.538L133.462 166.158C133.669 166.261 133.979 166.365 134.289 166.365C134.599 166.365 134.599 166.158 134.909 166.055L135.115 165.951L134.909 154.176V135.686L135.425 66.1691H132.326V66.0658Z" fill="#9BBBFF"/>
<path d="M135.322 154.279V136.099V88.584L134.186 89.2038V135.48V166.365C134.289 166.365 134.289 166.365 134.392 166.365C134.495 166.365 134.702 166.261 134.805 166.261C134.909 166.261 134.909 166.158 135.012 166.158L135.218 166.055V154.279H135.322Z" fill="#CAE7FF"/>
<g opacity="0.51">
<path d="M93.1777 68.8551L130.157 90.237V162.13L93.1777 140.748V68.8551Z" fill="#799FF7"/>
</g>
<path d="M133.359 89.3072L91.4211 65.033C91.0079 64.8265 91.0079 64.31 91.5244 64.1034L116.728 49.5389C117.245 49.229 117.968 49.229 118.381 49.4356L160.318 73.7098C160.732 73.9164 160.732 74.4328 160.215 74.6394L135.011 89.2039C134.598 89.5138 133.772 89.5138 133.359 89.3072Z" fill="#BCD5FF"/>
<g opacity="0.78">
<path d="M117.968 50.5717H114.972L91.5244 64.1032C91.0079 64.4131 91.0079 64.8263 91.4211 65.0329L92.5573 65.6526L129.02 86.7247L133.772 86.6214L117.968 50.5717Z" fill="url(#paint3_linear_254_19330)"/>
<path d="M117.968 50.5717H114.972L91.5244 64.1032C91.0079 64.4131 91.0079 64.8263 91.4211 65.0329L92.5573 65.6526L129.02 86.7247L133.772 86.6214L117.968 50.5717Z" fill="url(#paint4_linear_254_19330)"/>
</g>
<path d="M117.966 52.0181L97.8239 63.6903L95.8613 63.3804V64.8266L133.77 86.725L152.983 73.7099L117.966 52.0181Z" fill="url(#paint5_linear_254_19330)"/>
<path d="M117.966 52.0181L97.8239 63.6903L95.8613 63.3804V64.8266L133.77 86.725L152.983 73.7099L117.966 52.0181Z" fill="#91AFFF"/>
<path d="M155.876 72.4702V73.9163L133.771 86.7248V85.2787L155.876 72.4702Z" fill="url(#paint6_linear_254_19330)"/>
<path d="M133.77 85.2787L95.8613 63.3803L117.966 50.5718L155.875 72.4702L133.77 85.2787Z" fill="#E4F7FF"/>
<path d="M110.011 61.7275L109.494 61.4176V61.1078L115.072 57.9056L115.898 58.2155L115.692 58.4221L110.011 61.7275Z" fill="#00FF9A"/>
<path d="M115.176 58.1123L115.693 58.4222L116.106 58.2156L115.176 57.6991L109.082 61.2111L109.495 61.4177L115.176 58.1123Z" fill="#D9D9D9"/>
<path d="M115.176 58.1123L115.693 58.4222L116.106 58.2156L115.176 57.6991L109.082 61.2111L109.495 61.4177L115.176 58.1123Z" fill="url(#paint7_linear_254_19330)"/>
<path d="M111.87 62.7605L111.25 62.4506L111.353 62.1407L116.931 58.9386L117.758 59.2485L117.551 59.5584L111.87 62.7605Z" fill="#00FF9A"/>
<path d="M116.932 59.1453L117.552 59.5585L117.965 59.2486L116.932 58.7322L110.838 62.2442L111.251 62.4508L116.932 59.1453Z" fill="#D9D9D9"/>
<path d="M116.932 59.1453L117.552 59.5585L117.965 59.2486L116.932 58.7322L110.838 62.2442L111.251 62.4508L116.932 59.1453Z" fill="url(#paint8_linear_254_19330)"/>
<path d="M113.729 63.897L113.109 63.4838V63.2772L118.791 59.9718L119.514 60.385L119.41 60.5916L113.729 63.897Z" fill="#00FF9A"/>
<path d="M118.792 60.1784L119.411 60.5916L119.825 60.385L118.792 59.7653L112.697 63.2773L113.11 63.4838L118.792 60.1784Z" fill="#D9D9D9"/>
<path d="M118.792 60.1784L119.411 60.5916L119.825 60.385L118.792 59.7653L112.697 63.2773L113.11 63.4838L118.792 60.1784Z" fill="url(#paint9_linear_254_19330)"/>
<path d="M115.588 64.9297L114.969 64.5165V64.3099L120.547 61.0045L121.373 61.4177L121.27 61.6243L115.588 64.9297Z" fill="#00FF9A"/>
<path d="M120.651 61.3144L121.271 61.6243L121.581 61.4177L120.651 60.798L114.557 64.31L114.97 64.5166L120.651 61.3144Z" fill="#D9D9D9"/>
<path d="M120.651 61.3144L121.271 61.6243L121.581 61.4177L120.651 60.798L114.557 64.31L114.97 64.5166L120.651 61.3144Z" fill="url(#paint10_linear_254_19330)"/>
<path d="M120.965 68.0288L120.346 67.7189V67.4091L125.924 64.1036L126.75 64.5168L126.543 64.7234L120.965 68.0288Z" fill="#00FF9A"/>
<path d="M126.028 64.4133L126.544 64.7232L126.958 64.5166L126.028 64.0001L119.934 67.4088L120.347 67.7187L126.028 64.4133Z" fill="#D9D9D9"/>
<path d="M126.028 64.4133L126.544 64.7232L126.958 64.5166L126.028 64.0001L119.934 67.4088L120.347 67.7187L126.028 64.4133Z" fill="url(#paint11_linear_254_19330)"/>
<path d="M122.721 69.0615L122.102 68.7516L122.205 68.4418L127.783 65.2396L128.609 65.5495L128.403 65.7561L122.721 69.0615Z" fill="#00FF9A"/>
<path d="M127.782 65.4463L128.402 65.7561L128.815 65.5496L127.782 65.0331L121.791 68.5451L122.101 68.7517L127.782 65.4463Z" fill="#D9D9D9"/>
<path d="M127.782 65.4463L128.402 65.7561L128.815 65.5496L127.782 65.0331L121.791 68.5451L122.101 68.7517L127.782 65.4463Z" fill="url(#paint12_linear_254_19330)"/>
<path d="M124.579 70.0944L123.959 69.7845L124.062 69.4746L129.64 66.2725L130.363 66.5823L130.26 66.8922L124.579 70.0944Z" fill="#00FF9A"/>
<path d="M129.641 66.4792L130.261 66.8924L130.674 66.5825L129.641 66.066L123.547 69.5781L123.96 69.7846L129.641 66.4792Z" fill="#D9D9D9"/>
<path d="M129.641 66.4792L130.261 66.8924L130.674 66.5825L129.641 66.066L123.547 69.5781L123.96 69.7846L129.641 66.4792Z" fill="url(#paint13_linear_254_19330)"/>
<path d="M126.44 71.2306L125.82 70.8174V70.6109L131.502 67.3054L132.225 67.7186L132.121 67.9252L126.44 71.2306Z" fill="#00FF9A"/>
<path d="M131.501 67.6153L132.12 67.9252L132.534 67.7186L131.501 67.0989L125.406 70.6109L125.819 70.8175L131.501 67.6153Z" fill="#D9D9D9"/>
<path d="M131.501 67.6153L132.12 67.9252L132.534 67.7186L131.501 67.0989L125.406 70.6109L125.819 70.8175L131.501 67.6153Z" fill="url(#paint14_linear_254_19330)"/>
<path d="M131.809 74.3296L131.189 73.9164V73.7099L136.871 70.4044L137.594 70.8176L137.49 71.0242L131.809 74.3296Z" fill="#00FF9A"/>
<path d="M136.872 70.7145L137.491 71.0244L137.801 70.8178L136.872 70.198L130.777 73.71L131.191 73.9166L136.872 70.7145Z" fill="url(#paint15_linear_254_19330)"/>
<path d="M133.565 75.3629L133.049 75.053V74.7432L138.627 71.4377L139.453 71.8509L139.246 72.0575L133.565 75.3629Z" fill="#00FF9A"/>
<path d="M138.729 71.7474L139.246 72.0573L139.659 71.8507L138.729 71.3342L132.635 74.7429L133.048 75.0528L138.729 71.7474Z" fill="#D9D9D9"/>
<path d="M138.729 71.7474L139.246 72.0573L139.659 71.8507L138.729 71.3342L132.635 74.7429L133.048 75.0528L138.729 71.7474Z" fill="url(#paint16_linear_254_19330)"/>
<path d="M135.426 76.3957L134.807 76.0859L134.91 75.776L140.488 72.5739L141.314 72.8837L141.108 73.0903L135.426 76.3957Z" fill="#00FF9A"/>
<path d="M140.487 72.7805L141.107 73.0904L141.52 72.8838L140.487 72.3673L134.496 75.8793L134.806 76.0859L140.487 72.7805Z" fill="#D9D9D9"/>
<path d="M140.487 72.7805L141.107 73.0904L141.52 72.8838L140.487 72.3673L134.496 75.8793L134.806 76.0859L140.487 72.7805Z" fill="url(#paint17_linear_254_19330)"/>
<path d="M137.282 77.4283L136.662 77.1184L136.765 76.8086L142.343 73.6064L143.066 73.9163L142.963 74.2262L137.282 77.4283Z" fill="#00FF9A"/>
<path d="M142.344 73.8131L142.964 74.2263L143.377 74.0197L142.344 73.3999L136.25 76.9119L136.663 77.1185L142.344 73.8131Z" fill="url(#paint18_linear_254_19330)"/>
<path opacity="0.51" d="M139.246 136.306C139.143 136.306 138.936 136.306 138.833 136.203C138.627 136.099 138.42 135.79 138.42 135.583V111.722C138.42 111.205 138.73 110.689 139.246 110.379L156.496 100.463C156.703 100.36 157.013 100.36 157.22 100.463C157.426 100.566 157.633 100.876 157.633 101.083V124.944C157.633 125.46 157.323 125.977 156.806 126.286L139.556 136.203C139.453 136.203 139.35 136.306 139.246 136.306ZM156.806 100.773H156.703L139.453 110.689C139.143 110.896 138.936 111.205 138.936 111.619V135.48C138.936 135.583 139.04 135.686 139.04 135.686C139.04 135.686 139.143 135.79 139.246 135.686L156.496 125.77C156.806 125.563 157.013 125.253 157.013 124.84V100.979C157.013 100.876 156.91 100.773 156.91 100.773C156.91 100.773 156.91 100.773 156.806 100.773Z" fill="#4553C7"/>
<path d="M131.188 90.4435C131.188 89.927 130.878 89.4105 130.465 89.1007C130.258 88.9974 130.051 88.9974 129.948 89.1007L129.432 89.4106H129.742C129.742 89.4106 129.742 89.5138 129.742 89.6171C129.742 90.1336 130.051 90.6501 130.465 90.96C130.568 90.96 130.568 91.0633 130.671 91.0633L130.568 91.3731L131.084 91.0633C131.084 90.8567 131.188 90.7534 131.188 90.4435Z" fill="url(#paint19_linear_254_19330)"/>
<path d="M130.673 90.7533C130.673 91.2697 130.363 91.373 129.95 91.1664C129.536 90.9598 129.227 90.3401 129.227 89.8236C129.227 89.3071 129.536 89.2038 129.95 89.4104C130.363 89.7203 130.673 90.3401 130.673 90.7533Z" fill="url(#paint20_linear_254_19330)"/>
<path d="M130.363 90.6502C130.363 90.9601 130.157 91.0634 129.95 90.8568C129.744 90.7535 129.537 90.3404 129.537 90.1338C129.537 89.8239 129.744 89.7206 129.95 89.9272C130.157 90.0305 130.363 90.3404 130.363 90.6502Z" fill="#3F38FC"/>
<path d="M94.2091 69.268C94.2091 68.7515 93.8992 68.235 93.4861 67.9251C93.2795 67.8218 93.0729 67.8218 92.9696 67.9251L92.4531 68.235H92.763C92.763 68.235 92.763 68.3383 92.763 68.4416C92.763 68.9581 93.0729 69.4745 93.4861 69.7844C93.5894 69.7844 93.5894 69.8877 93.6927 69.8877L93.5894 70.1976L94.1058 69.8877C94.1058 69.6811 94.2091 69.4745 94.2091 69.268Z" fill="url(#paint21_linear_254_19330)"/>
<path d="M93.6942 69.5778C93.6942 70.0943 93.3843 70.1976 92.9711 69.991C92.5579 69.7844 92.248 69.1647 92.248 68.6482C92.248 68.1317 92.5579 68.0284 92.9711 68.235C93.3843 68.5449 93.6942 69.0614 93.6942 69.5778Z" fill="url(#paint22_linear_254_19330)"/>
<path d="M93.3849 69.3713C93.3849 69.6812 93.1784 69.7845 92.9718 69.5779C92.7652 69.4746 92.5586 69.0614 92.5586 68.8548C92.5586 68.545 92.7652 68.4417 92.9718 68.6483C93.1784 68.8548 93.3849 69.0614 93.3849 69.3713Z" fill="#3F38FC"/>
<path d="M131.19 162.336C131.19 161.82 130.88 161.303 130.467 160.994C130.26 160.89 130.053 160.89 129.95 160.994L129.434 161.303C129.537 161.2 129.743 161.2 129.95 161.407C130.363 161.613 130.673 162.233 130.673 162.75C130.673 162.956 130.57 163.163 130.467 163.266L130.983 162.956C131.086 162.75 131.19 162.646 131.19 162.336Z" fill="url(#paint23_linear_254_19330)"/>
<path d="M130.466 162.853C130.363 162.853 130.363 162.749 130.363 162.749C130.26 162.853 130.156 162.853 129.95 162.749C129.743 162.646 129.536 162.233 129.536 162.026C129.536 161.82 129.64 161.717 129.743 161.717C129.743 161.613 129.743 161.613 129.743 161.51C129.743 161.407 129.743 161.407 129.743 161.303H129.433C129.33 161.407 129.227 161.51 129.227 161.82C129.227 162.336 129.536 162.853 129.95 163.163C130.156 163.266 130.363 163.266 130.466 163.163L130.569 162.853C130.569 162.853 130.569 162.853 130.466 162.853Z" fill="url(#paint24_linear_254_19330)"/>
<path d="M130.673 162.646C130.673 162.13 130.363 161.613 129.95 161.303C129.743 161.2 129.537 161.2 129.434 161.2H129.743C129.743 161.2 129.743 161.303 129.743 161.407C129.743 161.51 129.743 161.51 129.743 161.613C129.847 161.613 129.847 161.613 129.95 161.716C130.157 161.82 130.363 162.233 130.363 162.439C130.363 162.543 130.363 162.543 130.363 162.646L130.467 162.749C130.57 162.749 130.57 162.853 130.673 162.853L130.57 163.163C130.57 163.059 130.673 162.956 130.673 162.646Z" fill="url(#paint25_linear_254_19330)"/>
<path d="M130.673 162.646C130.673 162.13 130.363 161.613 129.95 161.303C129.743 161.2 129.537 161.2 129.434 161.2H129.743C129.743 161.2 129.743 161.303 129.743 161.407C129.743 161.51 129.743 161.51 129.743 161.613C129.847 161.613 129.847 161.613 129.95 161.716C130.157 161.82 130.363 162.233 130.363 162.439C130.363 162.543 130.363 162.543 130.363 162.646L130.467 162.749C130.57 162.749 130.57 162.853 130.673 162.853L130.57 163.163C130.57 163.059 130.673 162.956 130.673 162.646Z" fill="url(#paint26_linear_254_19330)"/>
<path d="M129.535 162.026C129.535 162.336 129.742 162.646 129.948 162.749C130.155 162.853 130.258 162.853 130.362 162.749C130.052 162.543 129.845 162.13 129.742 161.716C129.638 161.716 129.535 161.82 129.535 162.026Z" fill="#3F38FC"/>
<path d="M130.364 162.749C130.364 162.749 130.364 162.646 130.364 162.543C130.364 162.233 130.157 161.923 129.951 161.82C129.847 161.82 129.847 161.716 129.744 161.716C129.847 162.13 130.054 162.439 130.364 162.749Z" fill="#3F38FC"/>
<path d="M93.4861 139.818C93.2795 139.715 93.0729 139.715 92.9696 139.818L92.4531 140.128C92.5564 140.025 92.763 140.025 92.9696 140.231C93.3828 140.438 93.6927 141.058 93.6927 141.574C93.6927 141.781 93.5894 141.987 93.4861 142.091L94.0025 141.781C94.1058 141.677 94.2091 141.574 94.2091 141.264C94.2091 140.644 93.8992 140.128 93.4861 139.818Z" fill="url(#paint27_linear_254_19330)"/>
<path d="M93.4876 141.574C93.3843 141.574 93.3843 141.471 93.3843 141.471C93.281 141.574 93.1777 141.574 92.9711 141.471C92.7645 141.367 92.5579 140.954 92.5579 140.748C92.5579 140.541 92.6612 140.438 92.7645 140.438C92.7645 140.334 92.7645 140.334 92.7645 140.231C92.7645 140.128 92.7645 140.128 92.7645 140.025H92.4546C92.3513 140.128 92.248 140.231 92.248 140.541C92.248 141.057 92.5579 141.574 92.9711 141.884C93.1777 141.987 93.3843 141.987 93.4876 141.884L93.5909 141.574C93.5909 141.677 93.5909 141.574 93.4876 141.574Z" fill="url(#paint28_linear_254_19330)"/>
<path d="M93.6927 141.471C93.6927 140.954 93.3828 140.438 92.9696 140.128C92.763 140.025 92.5564 140.025 92.4531 140.025H92.763C92.763 140.025 92.763 140.128 92.763 140.231C92.763 140.334 92.763 140.334 92.763 140.438C92.8663 140.438 92.8663 140.438 92.9696 140.541C93.1762 140.644 93.3828 141.057 93.3828 141.264C93.3828 141.367 93.3828 141.367 93.3828 141.471L93.4861 141.574C93.5894 141.574 93.5894 141.677 93.6927 141.677L93.5894 141.987C93.5894 141.884 93.6927 141.677 93.6927 141.471Z" fill="url(#paint29_linear_254_19330)"/>
<path d="M93.6927 141.471C93.6927 140.954 93.3828 140.438 92.9696 140.128C92.763 140.025 92.5564 140.025 92.4531 140.025H92.763C92.763 140.025 92.763 140.128 92.763 140.231C92.763 140.334 92.763 140.334 92.763 140.438C92.8663 140.438 92.8663 140.438 92.9696 140.541C93.1762 140.644 93.3828 141.057 93.3828 141.264C93.3828 141.367 93.3828 141.367 93.3828 141.471L93.4861 141.574C93.5894 141.574 93.5894 141.677 93.6927 141.677L93.5894 141.987C93.5894 141.884 93.6927 141.677 93.6927 141.471Z" fill="url(#paint30_linear_254_19330)"/>
<path d="M92.5586 140.748C92.5586 141.058 92.7652 141.368 92.9718 141.471C93.1784 141.574 93.2816 141.574 93.3849 141.471C93.0751 141.264 92.8685 140.851 92.7652 140.438C92.6619 140.438 92.5586 140.645 92.5586 140.748Z" fill="#3F38FC"/>
<path d="M93.3834 141.471C93.3834 141.471 93.3834 141.368 93.3834 141.264C93.3834 140.954 93.1768 140.645 92.9702 140.541C92.8669 140.541 92.867 140.438 92.7637 140.438C92.867 140.851 93.0735 141.264 93.3834 141.471Z" fill="#3F38FC"/>
<g opacity="0.67">
<path d="M100.613 181.135L58.675 156.861C58.2618 156.655 58.2618 156.138 58.7783 155.932L83.9821 141.367C84.4986 141.057 85.2216 141.057 85.6348 141.264L127.572 165.538C127.986 165.745 127.986 166.261 127.469 166.468L102.265 181.032C101.749 181.342 101.026 181.445 100.613 181.135Z" fill="#242993"/>
</g>
<path d="M102.471 184.441C102.161 184.441 101.748 184.338 101.541 184.234L53.8192 156.655C53.5093 156.448 53.3027 156.242 53.3027 155.932C53.3027 155.622 53.5093 155.312 53.9225 155.002L82.6383 138.475C83.2581 138.062 84.291 138.062 84.8075 138.372L132.53 165.951C132.839 166.158 133.046 166.365 133.046 166.674C133.046 166.984 132.839 167.294 132.426 167.604L103.71 184.131C103.297 184.338 102.884 184.441 102.471 184.441ZM101.748 183.615C102.161 183.821 102.884 183.821 103.297 183.511L132.013 166.984C132.22 166.881 132.323 166.674 132.323 166.674C132.323 166.571 132.22 166.468 132.116 166.468L84.3943 138.888C83.9812 138.682 83.2581 138.682 82.8449 138.992L54.1291 155.519C53.9225 155.622 53.8192 155.829 53.8192 155.829C53.8192 155.932 53.9225 156.035 54.0258 156.035L101.748 183.615Z" fill="#48E5A7"/>
<path d="M100.817 93.4387H105.466C104.742 91.8893 104.329 90.9597 104.329 90.9597L58.3633 72.9865V149.837V149.941C58.3633 150.044 58.4666 150.251 58.6732 150.354L100.611 174.628C100.714 174.628 100.817 174.731 100.921 174.731V93.4387H100.817Z" fill="#9BBBFF"/>
<path d="M127.881 82.3861L101.438 97.4671V143.743V174.628C101.747 174.628 102.057 174.525 102.264 174.421L127.468 159.857C127.778 159.754 127.881 159.547 127.881 159.34V82.3861Z" fill="url(#paint31_linear_254_19330)"/>
<path d="M99.4727 74.4324V142.71V162.646V173.905L100.609 174.525C100.815 174.628 101.125 174.731 101.435 174.731C101.745 174.731 101.745 174.525 102.055 174.421L102.262 174.318L102.055 162.542V144.053L102.571 74.5357H99.4727V74.4324Z" fill="#3947BA"/>
<path d="M102.47 162.646V144.466V96.9506L101.334 97.5703V143.846V174.731C101.437 174.731 101.437 174.731 101.541 174.731C101.644 174.731 101.85 174.628 101.954 174.628C102.057 174.628 102.057 174.525 102.16 174.525L102.367 174.421V162.646H102.47Z" fill="#CAE7FF"/>
<g opacity="0.51">
<path d="M60.4316 77.2212L97.411 98.4998V170.393L60.4316 149.114V77.2212Z" fill="#799FF7"/>
</g>
<path d="M100.613 97.5704L58.675 73.2962C58.2618 73.0896 58.2618 72.5732 58.7783 72.3666L83.9821 57.8021C84.4986 57.4922 85.2216 57.4922 85.6348 57.6988L127.572 81.973C127.986 82.1796 127.986 82.696 127.469 82.9026L102.265 97.4671C101.749 97.777 101.026 97.8803 100.613 97.5704Z" fill="#BCD5FF"/>
<path opacity="0.78" d="M85.2216 58.8348H82.2261L58.7783 72.3664C58.2618 72.6763 58.2618 73.0895 58.675 73.296L59.8112 73.9158L96.2742 94.9879L101.026 94.8846L85.2216 58.8348Z" fill="url(#paint32_linear_254_19330)"/>
<path d="M85.2202 60.3843L65.0778 72.0565L63.1152 71.6434V73.0895L101.024 94.9879L120.237 81.9728L85.2202 60.3843Z" fill="url(#paint33_linear_254_19330)"/>
<path d="M85.2202 60.3843L65.0778 72.0565L63.1152 71.6434V73.0895L101.024 94.9879L120.237 81.9728L85.2202 60.3843Z" fill="url(#paint34_linear_254_19330)"/>
<path d="M85.2202 60.3843L65.0778 72.0565L63.1152 71.6434V73.0895L101.024 94.9879L120.237 81.9728L85.2202 60.3843Z" fill="#91AFFF"/>
<path d="M123.128 80.7335V82.2829L101.023 94.9881V93.542L123.128 80.7335Z" fill="url(#paint35_linear_254_19330)"/>
<path d="M101.024 93.5417L63.1152 71.6433L85.2202 58.8348L123.129 80.7332L101.024 93.5417Z" fill="#E4F7FF"/>
<path d="M77.2604 70.0941L76.6406 69.6809L76.7439 69.3711L82.3218 66.1689L83.0449 66.4788L82.9416 66.7887L77.2604 70.0941Z" fill="#00FF9A"/>
<path d="M82.3209 66.3756L82.9407 66.7887L83.3539 66.5822L82.3209 65.9624L76.2266 69.4744L76.6397 69.681L82.3209 66.3756Z" fill="#D9D9D9"/>
<path d="M82.3209 66.3756L82.9407 66.7887L83.3539 66.5822L82.3209 65.9624L76.2266 69.4744L76.6397 69.681L82.3209 66.3756Z" fill="url(#paint36_linear_254_19330)"/>
<path d="M79.1178 71.1271L78.498 70.7139V70.5073L84.1792 67.2019L84.9023 67.6151L84.799 67.8217L79.1178 71.1271Z" fill="#00FF9A"/>
<path d="M84.1803 67.5118L84.8001 67.8217L85.1099 67.6151L84.1803 66.9954L78.0859 70.5074L78.4991 70.7139L84.1803 67.5118Z" fill="#D9D9D9"/>
<path d="M84.1803 67.5118L84.8001 67.8217L85.1099 67.6151L84.1803 66.9954L78.0859 70.5074L78.4991 70.7139L84.1803 67.5118Z" fill="url(#paint37_linear_254_19330)"/>
<path d="M80.8758 72.1605L80.3594 71.8507V71.5408L85.9373 68.2354L86.7636 68.6485L86.557 68.8551L80.8758 72.1605Z" fill="#00FF9A"/>
<path d="M86.0417 68.545L86.5581 68.8549L86.9713 68.6483L86.0417 68.1318L79.9473 71.5406L80.3605 71.8504L86.0417 68.545Z" fill="#D9D9D9"/>
<path d="M86.0417 68.545L86.5581 68.8549L86.9713 68.6483L86.0417 68.1318L79.9473 71.5406L80.3605 71.8504L86.0417 68.545Z" fill="url(#paint38_linear_254_19330)"/>
<path d="M82.7389 73.193L82.1191 72.8831L82.2224 72.5732L87.8003 69.3711L88.6267 69.681L88.4201 69.8876L82.7389 73.193Z" fill="#00FF9A"/>
<path d="M87.7997 69.5777L88.4194 69.8876L88.8326 69.681L87.7997 69.1646L81.8086 72.6766L82.1185 72.8832L87.7997 69.5777Z" fill="#D9D9D9"/>
<path d="M87.7997 69.5777L88.4194 69.8876L88.8326 69.681L87.7997 69.1646L81.8086 72.6766L82.1185 72.8832L87.7997 69.5777Z" fill="url(#paint39_linear_254_19330)"/>
<path d="M88.112 76.2921L87.4922 75.9822L87.5955 75.6723L93.1734 72.4702L93.8964 72.7801L93.7932 73.09L88.112 76.2921Z" fill="#00FF9A"/>
<path d="M93.1725 72.6769L93.7923 73.09L94.2054 72.7801L93.1725 72.2637L87.0781 75.7757L87.4913 75.9823L93.1725 72.6769Z" fill="#D9D9D9"/>
<path d="M93.1725 72.6769L93.7923 73.09L94.2054 72.7801L93.1725 72.2637L87.0781 75.7757L87.4913 75.9823L93.1725 72.6769Z" fill="url(#paint40_linear_254_19330)"/>
<path d="M89.9674 77.4282L89.3477 77.0151V76.7052L95.0288 73.5031L95.7519 73.9162L95.6486 74.1228L89.9674 77.4282Z" fill="#00FF9A"/>
<path d="M95.0299 73.7097L95.6497 74.1229L96.0629 73.9163L95.0299 73.2965L88.9355 76.8085L89.3487 77.0151L95.0299 73.7097Z" fill="#D9D9D9"/>
<path d="M95.0299 73.7097L95.6497 74.1229L96.0629 73.9163L95.0299 73.2965L88.9355 76.8085L89.3487 77.0151L95.0299 73.7097Z" fill="url(#paint41_linear_254_19330)"/>
<path d="M91.8287 78.4611L91.209 78.0479V77.8413L96.7869 74.5359L97.6132 74.9491L97.5099 75.1557L91.8287 78.4611Z" fill="#00FF9A"/>
<path d="M96.8913 74.8458L97.511 75.1557L97.8209 74.9491L96.8913 74.3293L90.7969 77.8414L91.2101 78.0479L96.8913 74.8458Z" fill="#D9D9D9"/>
<path d="M96.8913 74.8458L97.511 75.1557L97.8209 74.9491L96.8913 74.3293L90.7969 77.8414L91.2101 78.0479L96.8913 74.8458Z" fill="url(#paint42_linear_254_19330)"/>
<path d="M93.5866 79.4946L92.9668 79.1848L93.0701 78.8749L98.648 75.5695L99.4744 75.9826L99.2678 76.1892L93.5866 79.4946Z" fill="#00FF9A"/>
<path d="M98.6473 75.8791L99.2671 76.189L99.6803 75.9824L98.6473 75.4659L92.6562 78.8747L92.9661 79.1845L98.6473 75.8791Z" fill="#D9D9D9"/>
<path d="M98.6473 75.8791L99.2671 76.189L99.6803 75.9824L98.6473 75.4659L92.6562 78.8747L92.9661 79.1845L98.6473 75.8791Z" fill="url(#paint43_linear_254_19330)"/>
<path d="M98.9538 82.5929L98.334 82.283L98.4373 81.9732L104.015 78.6677L104.842 79.0809L104.635 79.2875L98.9538 82.5929Z" fill="#00FF9A"/>
<path d="M104.015 78.9774L104.634 79.2873L105.047 79.0807L104.015 78.5642L98.0234 82.0762L98.3333 82.2828L104.015 78.9774Z" fill="#D9D9D9"/>
<path d="M104.015 78.9774L104.634 79.2873L105.047 79.0807L104.015 78.5642L98.0234 82.0762L98.3333 82.2828L104.015 78.9774Z" fill="url(#paint44_linear_254_19330)"/>
<path d="M100.811 83.6254L100.191 83.3155L100.295 83.0056L105.873 79.8035L106.596 80.1134L106.492 80.4232L100.811 83.6254Z" fill="#00FF9A"/>
<path d="M105.874 80.0101L106.493 80.4233L106.907 80.1134L105.874 79.5969L99.7793 83.1089L100.192 83.3155L105.874 80.0101Z" fill="#D9D9D9"/>
<path d="M105.874 80.0101L106.493 80.4233L106.907 80.1134L105.874 79.5969L99.7793 83.1089L100.192 83.3155L105.874 80.0101Z" fill="url(#paint45_linear_254_19330)"/>
<path d="M102.671 84.7619L102.051 84.3487V84.0388L107.732 80.8367L108.455 81.2498L108.352 81.4564L102.671 84.7619Z" fill="#00FF9A"/>
<path d="M107.733 81.0433L108.353 81.4565L108.663 81.2499L107.733 80.6301L101.639 84.1421L102.052 84.3487L107.733 81.0433Z" fill="#D9D9D9"/>
<path d="M107.733 81.0433L108.353 81.4565L108.663 81.2499L107.733 80.6301L101.639 84.1421L102.052 84.3487L107.733 81.0433Z" fill="url(#paint46_linear_254_19330)"/>
<path d="M104.429 85.7948L103.912 85.3816V85.175L109.49 81.8696L110.316 82.2828L110.11 82.4894L104.429 85.7948Z" fill="#00FF9A"/>
<path d="M109.594 82.1796L110.111 82.4894L110.524 82.2828L109.594 81.6631L103.5 85.1751L103.913 85.3817L109.594 82.1796Z" fill="#D9D9D9"/>
<path d="M109.594 82.1796L110.111 82.4894L110.524 82.2828L109.594 81.6631L103.5 85.1751L103.913 85.3817L109.594 82.1796Z" fill="url(#paint47_linear_254_19330)"/>
<path d="M123.956 134.343L105.363 145.086V119.572L123.956 108.829V134.343Z" fill="#BCD5FF"/>
<path d="M122.923 109.449V133.827L105.363 144.053V145.086L123.956 134.343V108.829L122.923 109.449Z" fill="url(#paint48_linear_254_19330)"/>
<path d="M135.215 140.851L134.182 141.367L124.163 135.583C123.956 135.48 123.75 135.48 123.543 135.583L106.293 145.603C106.086 145.499 105.363 145.189 105.363 145.189L105.776 146.119C105.776 146.119 105.776 146.222 105.88 146.222L116.416 152.317C116.622 152.42 116.829 152.42 117.036 152.317L134.699 142.091C134.802 142.091 134.802 141.987 134.802 141.884L135.215 140.851Z" fill="url(#paint49_linear_254_19330)"/>
<path d="M135.007 141.057L116.931 151.49C116.724 151.593 116.414 151.593 116.311 151.49L105.465 145.293C105.258 145.189 105.362 144.983 105.465 144.879L123.541 134.447C123.748 134.343 124.058 134.343 124.161 134.447L135.007 140.644C135.214 140.748 135.214 140.954 135.007 141.057Z" fill="url(#paint50_linear_254_19330)"/>
<path d="M111.459 149.218V149.011L112.182 149.424V149.631L111.459 149.218C111.459 149.321 111.459 149.321 111.459 149.218Z" fill="#2859CB"/>
<path d="M112.488 149.837V149.631L113.211 150.044V150.25L112.488 149.837Z" fill="#2859CB"/>
<path d="M108.255 144.673L123.336 135.996C123.439 135.893 123.543 135.893 123.646 135.996L129.017 139.095C129.121 139.095 129.121 139.301 129.017 139.301L113.936 147.978C113.833 148.081 113.73 148.081 113.626 147.978L108.255 144.879C108.152 144.879 108.152 144.776 108.255 144.673Z" fill="#E4F7FF"/>
<path d="M108.255 144.879L123.336 136.203C123.439 136.099 123.543 136.099 123.646 136.203L128.914 139.301H129.017C129.121 139.301 129.121 139.095 129.017 139.095L123.646 135.996C123.543 135.893 123.439 135.893 123.336 135.996L108.255 144.673C108.152 144.776 108.152 144.879 108.255 144.879Z" fill="#91AFFF"/>
<path d="M124.057 136.822L110.938 144.363L110.422 144.053L123.437 136.513L124.057 136.822Z" fill="#48E5A7"/>
<path d="M125.506 137.649L113.214 144.673L112.594 144.363L124.886 137.339L125.506 137.649Z" fill="#48E5A7"/>
<path d="M126.329 138.165L111.971 146.532L111.352 146.222L125.813 137.855L126.329 138.165Z" fill="#48E5A7"/>
<path d="M127.259 138.682L112.901 147.049L112.281 146.739L126.742 138.372L127.259 138.682Z" fill="#48E5A7"/>
<path d="M128.189 139.198L113.831 147.565L113.211 147.255L127.672 138.888L128.189 139.198Z" fill="#48E5A7"/>
<path d="M110.216 144.776L109.596 145.189L108.977 144.776L109.596 144.466L110.216 144.776Z" fill="#48E5A7"/>
<path d="M112.178 145.293L111.042 146.016L110.422 145.603L111.661 144.983L112.178 145.293Z" fill="#48E5A7"/>
<path d="M123.851 146.842L127.879 144.466C128.086 144.363 128.086 144.26 127.879 144.156L125.09 142.503C124.884 142.4 124.677 142.4 124.471 142.503L120.442 144.879C120.235 144.983 120.235 145.086 120.442 145.189L123.231 146.842C123.438 146.945 123.747 146.945 123.851 146.842Z" fill="url(#paint51_linear_254_19330)"/>
<path d="M120.543 144.983L124.572 142.607C124.778 142.504 124.985 142.504 125.191 142.607L127.98 144.259L128.084 144.363C128.084 144.26 128.084 144.156 127.98 144.156L125.191 142.503C124.985 142.4 124.778 142.4 124.572 142.503L120.543 144.879C120.44 144.983 120.337 145.086 120.543 144.983C120.44 145.086 120.44 145.086 120.543 144.983Z" fill="#91AFFF"/>
<path d="M122.923 109.449L105.363 119.572V144.053L122.923 133.826V109.449Z" fill="#242993"/>
<path d="M122.923 109.449L105.363 119.572V144.053L122.923 133.826V109.449Z" fill="#A1FFDA"/>
<g opacity="0.51">
<path d="M121.89 134.446V111.102L105.363 120.708V144.053L121.89 134.446Z" fill="#51B990"/>
</g>
<g opacity="0.11">
<mask id="mask0_254_19330" style="mask-type:luminance" maskUnits="userSpaceOnUse" x="105" y="111" width="17" height="34">
<path d="M121.892 134.446V111.102L105.365 120.708V144.053L121.892 134.446Z" fill="white"/>
</mask>
<g mask="url(#mask0_254_19330)">
<path d="M123.648 134.446L105.571 144.879C105.365 144.982 105.055 144.982 104.952 144.879L94.2091 138.681C94.0025 138.578 94.1058 138.371 94.2091 138.268L112.182 127.835C112.389 127.732 112.699 127.732 112.802 127.835L123.545 134.033C123.855 134.136 123.855 134.343 123.648 134.446Z" fill="url(#paint52_linear_254_19330)"/>
<path d="M105.571 136.306L109.6 133.93C109.807 133.827 109.807 133.723 109.6 133.62L106.811 132.071C106.604 131.967 106.398 131.967 106.191 132.071L102.163 134.447C101.956 134.55 101.956 134.653 102.163 134.756L104.952 136.306C105.158 136.409 105.365 136.409 105.571 136.306Z" fill="url(#paint53_linear_254_19330)"/>
<path d="M102.268 134.55L106.296 132.174C106.503 132.071 106.709 132.071 106.916 132.174L109.705 133.723L109.808 133.827C109.808 133.723 109.808 133.62 109.705 133.62L106.916 132.071C106.709 131.967 106.503 131.967 106.296 132.071L102.268 134.447C102.164 134.447 102.061 134.55 102.268 134.55C102.164 134.55 102.164 134.55 102.268 134.55Z" fill="#91AFFF"/>
<path d="M100.406 139.921L115.384 131.244C115.487 131.141 115.591 131.141 115.694 131.244L121.065 134.343C121.168 134.343 121.168 134.446 121.065 134.55L106.087 143.226C105.984 143.33 105.881 143.33 105.778 143.226L100.406 140.128C100.406 140.128 100.406 140.024 100.406 139.921Z" fill="#ADC8FF"/>
<path d="M100.406 140.128L115.384 131.554C115.487 131.451 115.591 131.451 115.694 131.554L120.962 134.653H121.065C121.168 134.653 121.168 134.55 121.065 134.447L115.694 131.348C115.591 131.245 115.487 131.245 115.384 131.348L100.406 140.025V140.128Z" fill="#91AFFF"/>
<path d="M119.726 134.136L106.607 141.677L107.124 141.987L120.242 134.446L119.726 134.136Z" fill="#242993"/>
<path d="M118.28 133.413L105.885 140.541L106.401 140.851L118.797 133.723L118.28 133.413Z" fill="#242993"/>
<path d="M104.955 141.057L103.818 141.78L104.335 141.987L105.471 141.367L104.955 141.057Z" fill="#242993"/>
<path d="M105.99 142.09L105.164 142.503L105.681 142.813L106.507 142.4L105.99 142.09Z" fill="#242993"/>
<path d="M117.451 132.897L102.99 141.264L103.507 141.574L117.968 133.207L117.451 132.897Z" fill="#242993"/>
<path d="M116.629 132.381L102.064 140.747L102.684 141.057L117.145 132.691L116.629 132.381Z" fill="#242993"/>
<path d="M115.698 131.864L101.236 140.231L101.753 140.541L116.214 132.174L115.698 131.864Z" fill="#242993"/>
</g>
</g>
<path d="M98.4416 98.8101C98.4416 98.2936 98.1317 97.7771 97.7185 97.4672C97.5119 97.3639 97.3053 97.3639 97.202 97.4672L96.6855 97.7771H96.9954C96.9954 97.7771 96.9954 97.8804 96.9954 97.9837C96.9954 98.5002 97.3053 99.0166 97.7185 99.3265C97.8218 99.3265 97.8218 99.4298 97.9251 99.4298L97.8218 99.7397L98.3383 99.4298C98.3383 99.2232 98.4416 99.0166 98.4416 98.8101Z" fill="url(#paint54_linear_254_19330)"/>
<path d="M97.9266 99.12C97.9266 99.6364 97.6167 99.7397 97.2035 99.5331C96.7904 99.3266 96.4805 98.7068 96.4805 98.1903C96.4805 97.6738 96.7904 97.5705 97.2035 97.7771C97.5134 98.087 97.9266 98.6035 97.9266 99.12Z" fill="url(#paint55_linear_254_19330)"/>
<path d="M97.6174 98.9132C97.6174 99.2231 97.4108 99.3264 97.2042 99.1198C96.9976 99.0165 96.791 98.6034 96.791 98.3968C96.791 98.1902 96.9976 97.9836 97.2042 98.1902C97.4108 98.2935 97.6174 98.6034 97.6174 98.9132Z" fill="#3F38FC"/>
<path d="M61.4611 77.5311C61.4611 77.0147 61.1512 76.4982 60.738 76.1883C60.5314 76.085 60.3248 76.085 60.2215 76.1883L59.7051 76.4982H60.0149C60.0149 76.4982 60.0149 76.6015 60.0149 76.7048C60.0149 77.2213 60.3248 77.7377 60.738 78.0476C60.8413 78.0476 60.8413 78.1509 60.9446 78.1509L60.8413 78.4608L61.3578 78.1509C61.3578 77.9443 61.4611 77.841 61.4611 77.5311Z" fill="url(#paint56_linear_254_19330)"/>
<path d="M60.9461 77.841C60.9461 78.3575 60.6363 78.4608 60.2231 78.2542C59.8099 78.0476 59.5 77.4278 59.5 76.9114C59.5 76.3949 59.8099 76.2916 60.2231 76.4982C60.533 76.8081 60.9461 77.4278 60.9461 77.841Z" fill="url(#paint57_linear_254_19330)"/>
<path d="M60.6369 77.7379C60.6369 78.0478 60.4303 78.1511 60.2237 77.9445C60.0172 77.8412 59.8105 77.428 59.8105 77.2214C59.8105 76.9115 60.0172 76.8082 60.2237 77.0148C60.4303 77.1181 60.6369 77.428 60.6369 77.7379Z" fill="#3F38FC"/>
<path d="M98.4396 170.703C98.4396 170.187 98.1297 169.67 97.7165 169.36C97.5099 169.257 97.3034 169.257 97.2001 169.36L96.6836 169.67C96.7869 169.567 96.9935 169.567 97.2001 169.773C97.6132 169.98 97.9231 170.6 97.9231 171.116C97.9231 171.323 97.8198 171.529 97.7165 171.633L98.233 171.323C98.3363 171.116 98.4396 170.91 98.4396 170.703Z" fill="url(#paint58_linear_254_19330)"/>
<path d="M97.7181 171.116C97.6148 171.116 97.6148 171.013 97.6148 171.013C97.5115 171.116 97.4082 171.116 97.2016 171.013C96.995 170.909 96.7884 170.496 96.7884 170.29C96.7884 170.083 96.8917 169.98 96.995 169.98C96.995 169.877 96.995 169.877 96.995 169.773C96.995 169.67 96.995 169.67 96.995 169.567H96.6851C96.5818 169.67 96.4785 169.773 96.4785 170.083C96.4785 170.6 96.7884 171.116 97.2016 171.426C97.4082 171.529 97.6148 171.529 97.7181 171.426L97.8214 171.116C97.8214 171.219 97.7181 171.116 97.7181 171.116Z" fill="url(#paint59_linear_254_19330)"/>
<path d="M97.9231 171.013C97.9231 170.496 97.6132 169.98 97.2001 169.67C96.9935 169.567 96.7869 169.567 96.6836 169.567H96.9935C96.9935 169.567 96.9935 169.67 96.9935 169.773C96.9935 169.877 96.9935 169.877 96.9935 169.98C97.0968 169.98 97.0968 169.98 97.2001 170.083C97.4067 170.186 97.6132 170.6 97.6132 170.806C97.6132 170.909 97.6132 170.909 97.6132 171.013L97.7165 171.116C97.8198 171.116 97.8198 171.219 97.9231 171.219L97.8198 171.529C97.8198 171.426 97.9231 171.219 97.9231 171.013Z" fill="url(#paint60_linear_254_19330)"/>
<path d="M97.9231 171.013C97.9231 170.496 97.6132 169.98 97.2001 169.67C96.9935 169.567 96.7869 169.567 96.6836 169.567H96.9935C96.9935 169.567 96.9935 169.67 96.9935 169.773C96.9935 169.877 96.9935 169.877 96.9935 169.98C97.0968 169.98 97.0968 169.98 97.2001 170.083C97.4067 170.186 97.6132 170.6 97.6132 170.806C97.6132 170.909 97.6132 170.909 97.6132 171.013L97.7165 171.116C97.8198 171.116 97.8198 171.219 97.9231 171.219L97.8198 171.529C97.8198 171.426 97.9231 171.219 97.9231 171.013Z" fill="url(#paint61_linear_254_19330)"/>
<path d="M96.6836 170.29C96.6836 170.6 96.8902 170.91 97.0968 171.013C97.3034 171.116 97.4066 171.116 97.5099 171.013C97.2001 170.806 96.9935 170.393 96.8902 169.98C96.7869 169.98 96.6836 170.083 96.6836 170.29Z" fill="#3F38FC"/>
<path d="M97.5123 171.013C97.5123 171.013 97.5123 170.91 97.5123 170.806C97.5123 170.496 97.3057 170.187 97.0991 170.083C96.9959 170.083 96.9959 169.98 96.8926 169.98C96.9959 170.393 97.2024 170.806 97.5123 171.013Z" fill="#3F38FC"/>
<path d="M60.738 148.185C60.5314 148.081 60.3248 148.081 60.2215 148.185L59.7051 148.495C59.8084 148.391 60.015 148.391 60.2215 148.598C60.6347 148.805 60.9446 149.424 60.9446 149.941C60.9446 150.147 60.8413 150.354 60.738 150.457L61.2545 150.147C61.3578 150.044 61.4611 149.941 61.4611 149.631C61.4611 149.011 61.1512 148.391 60.738 148.185Z" fill="url(#paint62_linear_254_19330)"/>
<path d="M60.7395 149.838C60.6363 149.838 60.6362 149.734 60.6362 149.734C60.5329 149.837 60.4297 149.837 60.2231 149.734C60.0165 149.631 59.8099 149.218 59.8099 149.011C59.8099 148.805 59.9132 148.701 60.0165 148.701C60.0165 148.598 60.0165 148.598 60.0165 148.495C60.0165 148.391 60.0165 148.391 60.0165 148.288H59.7066C59.6033 148.391 59.5 148.495 59.5 148.805C59.5 149.321 59.8099 149.838 60.2231 150.147C60.4297 150.251 60.6363 150.251 60.7395 150.147L60.8428 149.838C60.8428 149.941 60.7395 149.941 60.7395 149.838Z" fill="url(#paint63_linear_254_19330)"/>
<path d="M60.9446 149.734C60.9446 149.218 60.6347 148.701 60.2215 148.391C60.015 148.288 59.8084 148.288 59.7051 148.288H60.0149C60.0149 148.288 60.0149 148.391 60.0149 148.495C60.0149 148.598 60.0149 148.598 60.0149 148.701C60.1182 148.701 60.1183 148.701 60.2215 148.805C60.4281 148.908 60.6347 149.321 60.6347 149.528C60.6347 149.631 60.6347 149.631 60.6347 149.734L60.738 149.838C60.8413 149.838 60.8413 149.941 60.9446 149.941L60.8413 150.251C60.8413 150.147 60.9446 150.044 60.9446 149.734Z" fill="url(#paint64_linear_254_19330)"/>
<path d="M60.9446 149.734C60.9446 149.218 60.6347 148.701 60.2215 148.391C60.015 148.288 59.8084 148.288 59.7051 148.288H60.0149C60.0149 148.288 60.0149 148.391 60.0149 148.495C60.0149 148.598 60.0149 148.598 60.0149 148.701C60.1182 148.701 60.1183 148.701 60.2215 148.805C60.4281 148.908 60.6347 149.321 60.6347 149.528C60.6347 149.631 60.6347 149.631 60.6347 149.734L60.738 149.838C60.8413 149.838 60.8413 149.941 60.9446 149.941L60.8413 150.251C60.8413 150.147 60.9446 150.044 60.9446 149.734Z" fill="url(#paint65_linear_254_19330)"/>
<path d="M59.7051 149.115C59.7051 149.424 59.9117 149.734 60.1182 149.838C60.3248 149.941 60.4281 149.941 60.5314 149.838C60.2215 149.631 60.0149 149.218 59.9116 148.805C59.8084 148.805 59.7051 148.908 59.7051 149.115Z" fill="#3F38FC"/>
<path d="M60.5319 149.734C60.5319 149.734 60.5319 149.631 60.5319 149.528C60.5319 149.218 60.3253 148.908 60.1187 148.804C60.0154 148.804 60.0154 148.701 59.9121 148.701C60.0154 149.114 60.222 149.528 60.5319 149.734Z" fill="#3F38FC"/>
<path d="M68.3837 122.878H73.0319C72.3089 121.329 71.8957 120.399 71.8957 120.399L25.9297 102.426V179.277V179.38C25.9297 179.483 26.033 179.69 26.2396 179.793L68.1771 204.067C68.2804 204.067 68.3837 204.171 68.487 204.171V122.878H68.3837Z" fill="#9BBBFF"/>
<path d="M95.3457 111.825L68.9023 126.906V173.182V204.067C69.2122 204.067 69.5221 203.964 69.7287 203.861L94.9325 189.296C95.2424 189.193 95.3457 188.986 95.3457 188.78V111.825Z" fill="url(#paint66_linear_254_19330)"/>
<path d="M66.9414 103.872V172.149V192.085V203.344L68.0776 203.964C68.2842 204.067 68.5941 204.171 68.904 204.171C69.2139 204.171 69.2139 203.964 69.5238 203.861L69.7303 203.757L69.5238 191.982V173.492L70.0402 103.975H66.9414V103.872Z" fill="#3947BA"/>
<path d="M69.9351 191.982V173.802V126.287L68.7988 126.906V173.182V204.067C68.9021 204.067 68.9021 204.067 69.0054 204.067C69.1087 204.067 69.3153 203.964 69.4186 203.964C69.5219 203.964 69.5219 203.861 69.6252 203.861L69.8318 203.757V191.982H69.9351Z" fill="#CAE7FF"/>
<g opacity="0.51">
<path d="M27.8965 106.558L64.8759 127.94V199.832L27.8965 178.554V106.558Z" fill="#799FF7"/>
</g>
<path d="M68.0773 127.01L26.1399 102.736C25.7267 102.529 25.7267 102.013 26.2431 101.806L51.447 87.2414C51.9635 86.9315 52.6865 86.9315 53.0997 87.1381L95.0372 111.412C95.4504 111.619 95.4504 112.135 94.9339 112.342L69.7301 126.906C69.2136 127.216 68.4905 127.32 68.0773 127.01Z" fill="#BCD5FF"/>
<g opacity="0.78">
<path d="M52.6865 88.2744H49.691L26.2431 101.806C25.7267 102.116 25.7267 102.529 26.1399 102.736L27.2761 103.355L63.739 124.427L68.4905 124.324L52.6865 88.2744Z" fill="url(#paint67_linear_254_19330)"/>
<path d="M52.6865 88.2744H49.691L26.2431 101.806C25.7267 102.116 25.7267 102.529 26.1399 102.736L27.2761 103.355L63.739 124.427L68.4905 124.324L52.6865 88.2744Z" fill="url(#paint68_linear_254_19330)"/>
</g>
<path d="M52.6851 89.8237L32.5427 101.393L30.5801 101.083V102.529L68.4891 124.427L87.7019 111.412L52.6851 89.8237Z" fill="url(#paint69_linear_254_19330)"/>
<path d="M52.6851 89.8237L32.5427 101.393L30.5801 101.083V102.529L68.4891 124.427L87.7019 111.412L52.6851 89.8237Z" fill="url(#paint70_linear_254_19330)"/>
<path d="M52.6851 89.8237L32.5427 101.393L30.5801 101.083V102.529L68.4891 124.427L87.7019 111.412L52.6851 89.8237Z" fill="#91AFFF"/>
<path d="M90.5952 110.173V111.722L68.4902 124.427V122.981L90.5952 110.173Z" fill="url(#paint71_linear_254_19330)"/>
<path d="M68.4891 122.981L30.5801 101.083L52.6851 88.2744L90.5941 110.173L68.4891 122.981Z" fill="#E4F7FF"/>
<path d="M44.735 99.4304L44.1152 99.1205L44.2185 98.8106L49.7964 95.6085L50.5195 95.9184L50.4162 96.2283L44.735 99.4304Z" fill="#00FF9A"/>
<path d="M49.7975 95.8151L50.4173 96.2283L50.8304 96.0217L49.7975 95.402L43.7031 98.914L44.1163 99.1206L49.7975 95.8151Z" fill="#D9D9D9"/>
<path d="M49.7975 95.8151L50.4173 96.2283L50.8304 96.0217L49.7975 95.402L43.7031 98.914L44.1163 99.1206L49.7975 95.8151Z" fill="url(#paint72_linear_254_19330)"/>
<path d="M46.5944 100.567L45.9746 100.153V99.9468L51.6558 96.6414L52.3789 97.0545L52.2756 97.2611L46.5944 100.567Z" fill="#00FF9A"/>
<path d="M51.6569 96.9513L52.2766 97.2612L52.6898 97.0546L51.6569 96.4348L45.5625 99.9468L45.9757 100.153L51.6569 96.9513Z" fill="#D9D9D9"/>
<path d="M51.6569 96.9513L52.2766 97.2612L52.6898 97.0546L51.6569 96.4348L45.5625 99.9468L45.9757 100.153L51.6569 96.9513Z" fill="url(#paint73_linear_254_19330)"/>
<path d="M48.4537 101.6L47.834 101.29V100.98L53.4119 97.6743L54.2382 98.0875L54.1349 98.2941L48.4537 101.6Z" fill="#00FF9A"/>
<path d="M53.5143 97.9844L54.1341 98.2942L54.444 98.0877L53.5143 97.4679L47.4199 100.98L47.8331 101.29L53.5143 97.9844Z" fill="#D9D9D9"/>
<path d="M53.5143 97.9844L54.1341 98.2942L54.444 98.0877L53.5143 97.4679L47.4199 100.98L47.8331 101.29L53.5143 97.9844Z" fill="url(#paint74_linear_254_19330)"/>
<path d="M50.2116 102.633L49.5918 102.323L49.6951 102.013L55.273 98.7075L56.0994 99.1207L55.8928 99.3273L50.2116 102.633Z" fill="#00FF9A"/>
<path d="M55.2723 99.0172L55.8921 99.3271L56.3053 99.1205L55.2723 98.604L49.2812 102.116L49.5911 102.323L55.2723 99.0172Z" fill="#D9D9D9"/>
<path d="M55.2723 99.0172L55.8921 99.3271L56.3053 99.1205L55.2723 98.604L49.2812 102.116L49.5911 102.323L55.2723 99.0172Z" fill="url(#paint75_linear_254_19330)"/>
<path d="M55.5807 105.732L54.9609 105.422L55.0642 105.112L60.6421 101.91L61.4685 102.22L61.2619 102.529L55.5807 105.732Z" fill="#00FF9A"/>
<path d="M60.6415 102.116L61.2613 102.529L61.6744 102.219L60.6415 101.703L54.6504 105.215L54.9603 105.422L60.6415 102.116Z" fill="#D9D9D9"/>
<path d="M60.6415 102.116L61.2613 102.529L61.6744 102.219L60.6415 101.703L54.6504 105.215L54.9603 105.422L60.6415 102.116Z" fill="url(#paint76_linear_254_19330)"/>
<path d="M57.4381 106.764L56.8184 106.455L56.9217 106.145L62.4995 102.943L63.2226 103.252L63.1193 103.562L57.4381 106.764Z" fill="#00FF9A"/>
<path d="M62.5006 103.149L63.1204 103.562L63.5336 103.356L62.5006 102.736L56.4062 106.248L56.8194 106.455L62.5006 103.149Z" fill="#D9D9D9"/>
<path d="M62.5006 103.149L63.1204 103.562L63.5336 103.356L62.5006 102.736L56.4062 106.248L56.8194 106.455L62.5006 103.149Z" fill="url(#paint77_linear_254_19330)"/>
<path d="M59.3014 107.901L58.6816 107.487V107.281L64.3628 103.975L65.0859 104.389L64.9826 104.595L59.3014 107.901Z" fill="#00FF9A"/>
<path d="M64.362 104.285L64.9817 104.595L65.2916 104.389L64.362 103.769L58.2676 107.281L58.6808 107.488L64.362 104.285Z" fill="#D9D9D9"/>
<path d="M64.362 104.285L64.9817 104.595L65.2916 104.389L64.362 103.769L58.2676 107.281L58.6808 107.488L64.362 104.285Z" fill="url(#paint78_linear_254_19330)"/>
<path d="M61.0555 108.934L60.5391 108.624V108.314L66.117 105.009L66.9433 105.422L66.7367 105.628L61.0555 108.934Z" fill="#00FF9A"/>
<path d="M66.2213 105.318L66.7378 105.628L67.151 105.422L66.2213 104.802L60.127 108.314L60.5401 108.624L66.2213 105.318Z" fill="#D9D9D9"/>
<path d="M66.2213 105.318L66.7378 105.628L67.151 105.422L66.2213 104.802L60.127 108.314L60.5401 108.624L66.2213 105.318Z" fill="url(#paint79_linear_254_19330)"/>
<path d="M66.4266 112.032L65.9102 111.723V111.413L71.488 108.107L72.3144 108.52L72.1078 108.727L66.4266 112.032Z" fill="#00FF9A"/>
<path d="M71.5924 108.417L72.1089 108.727L72.5221 108.52L71.5924 108.004L65.498 111.516L65.9112 111.722L71.5924 108.417Z" fill="#D9D9D9"/>
<path d="M71.5924 108.417L72.1089 108.727L72.5221 108.52L71.5924 108.004L65.498 111.516L65.9112 111.722L71.5924 108.417Z" fill="url(#paint80_linear_254_19330)"/>
<path d="M68.2858 113.065L67.666 112.755L67.7693 112.445L73.3472 109.243L74.1736 109.553L73.967 109.863L68.2858 113.065Z" fill="#00FF9A"/>
<path d="M73.3465 109.45L73.9663 109.863L74.3795 109.553L73.3465 109.037L67.3555 112.549L67.6653 112.755L73.3465 109.45Z" fill="#D9D9D9"/>
<path d="M73.3465 109.45L73.9663 109.863L74.3795 109.553L73.3465 109.037L67.3555 112.549L67.6653 112.755L73.3465 109.45Z" fill="url(#paint81_linear_254_19330)"/>
<path d="M70.1432 114.098L69.5234 113.788V113.478L75.2046 110.276L75.9277 110.586L75.8244 110.896L70.1432 114.098Z" fill="#00FF9A"/>
<path d="M75.2057 110.483L75.8255 110.896L76.2387 110.689L75.2057 110.07L69.1113 113.582L69.5245 113.788L75.2057 110.483Z" fill="#D9D9D9"/>
<path d="M75.2057 110.483L75.8255 110.896L76.2387 110.689L75.2057 110.07L69.1113 113.582L69.5245 113.788L75.2057 110.483Z" fill="url(#paint82_linear_254_19330)"/>
<path d="M72.0045 115.234L71.3848 114.821V114.614L76.9627 111.309L77.789 111.722L77.6857 111.929L72.0045 115.234Z" fill="#00FF9A"/>
<path d="M77.067 111.619L77.6868 111.929L77.9967 111.722L77.067 111.103L70.9727 114.615L71.3858 114.821L77.067 111.619Z" fill="#D9D9D9"/>
<path d="M77.067 111.619L77.6868 111.929L77.9967 111.722L77.067 111.103L70.9727 114.615L71.3858 114.821L77.067 111.619Z" fill="url(#paint83_linear_254_19330)"/>
<path opacity="0.51" d="M73.967 174.009C73.8637 174.009 73.6571 174.009 73.5538 173.905C73.3472 173.802 73.1406 173.492 73.1406 173.285V149.424C73.1406 148.908 73.4505 148.392 73.967 148.082L91.2171 138.165C91.4237 138.062 91.7336 138.062 91.9402 138.165C92.1468 138.269 92.3534 138.579 92.3534 138.785V162.646C92.3534 163.163 92.0435 163.679 91.527 163.989L74.2768 173.905C74.1735 174.009 74.0703 174.009 73.967 174.009ZM91.527 138.475H91.4237L74.1736 148.391C73.8637 148.598 73.6571 148.908 73.6571 149.321V173.182C73.6571 173.285 73.7604 173.389 73.7604 173.389C73.7604 173.389 73.8637 173.492 73.967 173.389L91.2171 163.472C91.527 163.266 91.7336 162.956 91.7336 162.543V138.682C91.7336 138.579 91.6303 138.475 91.6303 138.475C91.6303 138.579 91.6303 138.475 91.527 138.475Z" fill="#4553C7"/>
<path d="M65.9084 128.249C65.9084 127.733 65.5985 127.216 65.1853 126.906C64.9787 126.803 64.7721 126.803 64.6688 126.906L64.1523 127.216H64.4622C64.4622 127.216 64.4622 127.319 64.4622 127.423C64.4622 127.939 64.7721 128.456 65.1853 128.765C65.2886 128.765 65.2886 128.869 65.3919 128.869L65.2886 129.179L65.8051 128.869C65.8051 128.662 65.9084 128.456 65.9084 128.249Z" fill="url(#paint84_linear_254_19330)"/>
<path d="M65.3934 128.559C65.3934 129.075 65.0835 129.179 64.6703 128.972C64.2572 128.766 63.9473 128.146 63.9473 127.629C63.9473 127.113 64.2572 127.009 64.6703 127.216C65.0835 127.423 65.3934 128.042 65.3934 128.559Z" fill="url(#paint85_linear_254_19330)"/>
<path d="M65.0842 128.352C65.0842 128.662 64.8776 128.766 64.671 128.559C64.4644 128.352 64.2578 128.043 64.2578 127.836C64.2578 127.526 64.4644 127.423 64.671 127.629C64.8776 127.733 65.0842 128.043 65.0842 128.352Z" fill="#3F38FC"/>
<path d="M28.9279 106.971C28.9279 106.454 28.618 105.938 28.2048 105.628C27.9982 105.524 27.7916 105.524 27.6883 105.628L27.1719 105.938H27.4817C27.4817 105.938 27.4817 106.041 27.4817 106.144C27.4817 106.661 27.7916 107.177 28.2048 107.487C28.3081 107.487 28.3081 107.59 28.4114 107.59L28.3081 107.9L28.8246 107.59C28.8246 107.384 28.9279 107.177 28.9279 106.971Z" fill="url(#paint86_linear_254_19330)"/>
<path d="M28.4129 107.28C28.4129 107.797 28.103 107.9 27.6899 107.693C27.2767 107.487 26.9668 106.867 26.9668 106.351C26.9668 105.834 27.2767 105.731 27.6899 105.937C28.103 106.247 28.4129 106.867 28.4129 107.28Z" fill="url(#paint87_linear_254_19330)"/>
<path d="M28.1037 107.074C28.1037 107.384 27.8971 107.487 27.6905 107.28C27.484 107.177 27.2773 106.764 27.2773 106.557C27.2773 106.247 27.484 106.144 27.6905 106.351C27.8971 106.557 28.1037 106.867 28.1037 107.074Z" fill="#3F38FC"/>
<path d="M65.9084 200.142C65.9084 199.625 65.5985 199.109 65.1853 198.799C64.9787 198.696 64.7721 198.696 64.6688 198.799L64.1523 199.109C64.2556 199.006 64.4622 199.006 64.6688 199.212C65.082 199.419 65.3919 200.039 65.3919 200.555C65.3919 200.762 65.2886 200.968 65.1853 201.071L65.7018 200.762C65.8051 200.555 65.9084 200.348 65.9084 200.142Z" fill="url(#paint88_linear_254_19330)"/>
<path d="M65.1849 200.555C65.0816 200.555 65.0816 200.451 65.0816 200.451C64.9783 200.555 64.875 200.555 64.6684 200.451C64.4618 200.348 64.2552 199.935 64.2552 199.728C64.2552 199.522 64.3585 199.419 64.4618 199.419C64.4618 199.315 64.4618 199.315 64.4618 199.212C64.4618 199.109 64.4618 199.109 64.4618 199.005H64.1519C64.0486 199.109 63.9453 199.212 63.9453 199.522C63.9453 200.038 64.2552 200.555 64.6684 200.865C64.875 200.968 65.0816 200.968 65.1849 200.865L65.2882 200.555H65.1849Z" fill="url(#paint89_linear_254_19330)"/>
<path d="M65.3919 200.451C65.3919 199.935 65.082 199.419 64.6688 199.109C64.4622 199.005 64.2556 199.005 64.1523 199.005H64.4622C64.4622 199.005 64.4622 199.109 64.4622 199.212C64.4622 199.315 64.4622 199.315 64.4622 199.419C64.5655 199.419 64.5655 199.419 64.6688 199.522C64.8754 199.625 65.082 200.038 65.082 200.245C65.082 200.348 65.082 200.348 65.082 200.451L65.1853 200.555C65.2886 200.555 65.2886 200.658 65.3919 200.658L65.2886 200.968C65.2886 200.865 65.3919 200.658 65.3919 200.451Z" fill="url(#paint90_linear_254_19330)"/>
<path d="M65.3919 200.451C65.3919 199.935 65.082 199.419 64.6688 199.109C64.4622 199.005 64.2556 199.005 64.1523 199.005H64.4622C64.4622 199.005 64.4622 199.109 64.4622 199.212C64.4622 199.315 64.4622 199.315 64.4622 199.419C64.5655 199.419 64.5655 199.419 64.6688 199.522C64.8754 199.625 65.082 200.038 65.082 200.245C65.082 200.348 65.082 200.348 65.082 200.451L65.1853 200.555C65.2886 200.555 65.2886 200.658 65.3919 200.658L65.2886 200.968C65.2886 200.865 65.3919 200.658 65.3919 200.451Z" fill="url(#paint91_linear_254_19330)"/>
<path d="M64.1523 199.729C64.1523 200.039 64.3589 200.349 64.5655 200.452C64.7721 200.555 64.8754 200.555 64.9787 200.452C64.6688 200.245 64.4622 199.832 64.3589 199.419C64.2557 199.419 64.1523 199.522 64.1523 199.729Z" fill="#3F38FC"/>
<path d="M64.9791 200.452C64.9791 200.452 64.9791 200.349 64.9791 200.245C64.9791 199.935 64.7725 199.626 64.5659 199.522C64.4627 199.522 64.4627 199.419 64.3594 199.419C64.4627 199.832 64.6692 200.245 64.9791 200.452Z" fill="#3F38FC"/>
<path d="M28.2048 177.624C27.9982 177.52 27.7916 177.52 27.6883 177.624L27.1719 177.933C27.2752 177.83 27.4818 177.83 27.6883 178.037C28.1015 178.243 28.4114 178.863 28.4114 179.38C28.4114 179.586 28.3081 179.793 28.2048 179.896L28.7213 179.586C28.8246 179.483 28.9279 179.38 28.9279 179.07C28.9279 178.45 28.618 177.83 28.2048 177.624Z" fill="url(#paint92_linear_254_19330)"/>
<path d="M28.2063 179.276C28.103 179.276 28.103 179.173 28.103 179.173C27.9997 179.276 27.8965 179.276 27.6899 179.173C27.4833 179.07 27.2767 178.657 27.2767 178.45C27.2767 178.243 27.38 178.14 27.4833 178.14C27.4833 178.037 27.4833 178.037 27.4833 177.934C27.4833 177.83 27.4833 177.83 27.4833 177.727H27.1734C27.0701 177.83 26.9668 177.934 26.9668 178.243C26.9668 178.76 27.2767 179.276 27.6899 179.586C27.8965 179.69 28.103 179.69 28.2063 179.586L28.3096 179.276C28.3096 179.38 28.2063 179.38 28.2063 179.276Z" fill="url(#paint93_linear_254_19330)"/>
<path d="M28.4114 179.173C28.4114 178.657 28.1015 178.14 27.6883 177.83C27.4818 177.727 27.2752 177.727 27.1719 177.727H27.4817C27.4817 177.727 27.4817 177.83 27.4817 177.934C27.4817 178.037 27.4817 178.037 27.4817 178.14C27.585 178.14 27.5851 178.14 27.6883 178.243C27.8949 178.347 28.1015 178.76 28.1015 178.966C28.1015 179.07 28.1015 179.07 28.1015 179.173L28.2048 179.276C28.3081 179.276 28.3081 179.38 28.4114 179.38L28.3081 179.69C28.3081 179.586 28.4114 179.38 28.4114 179.173Z" fill="url(#paint94_linear_254_19330)"/>
<path d="M28.4114 179.173C28.4114 178.657 28.1015 178.14 27.6883 177.83C27.4818 177.727 27.2752 177.727 27.1719 177.727H27.4817C27.4817 177.727 27.4817 177.83 27.4817 177.934C27.4817 178.037 27.4817 178.037 27.4817 178.14C27.585 178.14 27.5851 178.14 27.6883 178.243C27.8949 178.347 28.1015 178.76 28.1015 178.966C28.1015 179.07 28.1015 179.07 28.1015 179.173L28.2048 179.276C28.3081 179.276 28.3081 179.38 28.4114 179.38L28.3081 179.69C28.3081 179.586 28.4114 179.38 28.4114 179.173Z" fill="url(#paint95_linear_254_19330)"/>
<path d="M27.1719 178.553C27.1719 178.863 27.3785 179.173 27.585 179.276C27.7916 179.38 27.8949 179.38 27.9982 179.276C27.6883 179.07 27.4817 178.657 27.3784 178.243C27.2752 178.243 27.1719 178.347 27.1719 178.553Z" fill="#3F38FC"/>
<path d="M27.9987 179.173C27.9987 179.173 27.9987 179.07 27.9987 178.966C27.9987 178.656 27.7921 178.346 27.5855 178.243C27.4822 178.243 27.4822 178.14 27.3789 178.14C27.4822 178.553 27.6888 178.966 27.9987 179.173Z" fill="#3F38FC"/>
<defs>
<linearGradient id="paint0_linear_254_19330" x1="250.765" y1="125.382" x2="0" y2="125.382" gradientUnits="userSpaceOnUse">
<stop stop-color="#4A7CF2" stop-opacity="0"/>
<stop offset="0.455" stop-color="#4A7CF2" stop-opacity="0.05"/>
<stop offset="1" stop-color="#4A7CF2" stop-opacity="0.1"/>
</linearGradient>
<linearGradient id="paint1_linear_254_19330" x1="144.515" y1="135.426" x2="92.377" y2="225.665" gradientUnits="userSpaceOnUse">
<stop stop-color="#E9FFFF"/>
<stop offset="0.3512" stop-color="#D3E9FF"/>
<stop offset="0.7022" stop-color="#C5DBFF"/>
<stop offset="1" stop-color="#C0D6FF"/>
</linearGradient>
<linearGradient id="paint2_linear_254_19330" x1="147.427" y1="166.353" x2="147.427" y2="74.1188" gradientUnits="userSpaceOnUse">
<stop stop-color="#C0D6FF"/>
<stop offset="0.2978" stop-color="#C5DBFF"/>
<stop offset="0.6488" stop-color="#D3E9FF"/>
<stop offset="1" stop-color="#E9FFFF"/>
</linearGradient>
<linearGradient id="paint3_linear_254_19330" x1="97.7826" y1="68.676" x2="140.443" y2="68.676" gradientUnits="userSpaceOnUse">
<stop stop-color="#E9FFFF"/>
<stop offset="0.0373936" stop-color="#D3EBFF"/>
<stop offset="0.1056" stop-color="#B2CCFF"/>
<stop offset="0.1817" stop-color="#96B2FF"/>
<stop offset="0.2663" stop-color="#7F9DFF"/>
<stop offset="0.3632" stop-color="#6D8CFF"/>
<stop offset="0.4798" stop-color="#6081FF"/>
<stop offset="0.6363" stop-color="#597AFF"/>
<stop offset="1" stop-color="#5778FF"/>
</linearGradient>
<linearGradient id="paint4_linear_254_19330" x1="97.7394" y1="68.7162" x2="140.4" y2="68.7162" gradientUnits="userSpaceOnUse">
<stop stop-color="#E9FFFF"/>
<stop offset="1" stop-color="#8AAEFB"/>
</linearGradient>
<linearGradient id="paint5_linear_254_19330" x1="95.8957" y1="69.359" x2="153.213" y2="69.359" gradientUnits="userSpaceOnUse">
<stop stop-color="#5778FF"/>
<stop offset="0.1779" stop-color="#5C7DFF"/>
<stop offset="0.3876" stop-color="#6A8AFF"/>
<stop offset="0.6134" stop-color="#82A0FF"/>
<stop offset="0.849" stop-color="#A3BEFF"/>
<stop offset="1" stop-color="#BCD5FF"/>
</linearGradient>
<linearGradient id="paint6_linear_254_19330" x1="133.81" y1="79.593" x2="155.924" y2="79.593" gradientUnits="userSpaceOnUse">
<stop stop-color="#C0D6FF"/>
<stop offset="0.2978" stop-color="#C5DBFF"/>
<stop offset="0.6488" stop-color="#D3E9FF"/>
<stop offset="1" stop-color="#E9FFFF"/>
</linearGradient>
<linearGradient id="paint7_linear_254_19330" x1="109.111" y1="59.5594" x2="116.071" y2="59.5594" gradientUnits="userSpaceOnUse">
<stop stop-color="#25BA80"/>
<stop offset="1" stop-color="#36FFB0"/>
</linearGradient>
<linearGradient id="paint8_linear_254_19330" x1="110.867" y1="60.5925" x2="117.929" y2="60.5925" gradientUnits="userSpaceOnUse">
<stop stop-color="#25BA80"/>
<stop offset="1" stop-color="#36FFB0"/>
</linearGradient>
<linearGradient id="paint9_linear_254_19330" x1="112.726" y1="61.6256" x2="119.789" y2="61.6256" gradientUnits="userSpaceOnUse">
<stop stop-color="#25BA80"/>
<stop offset="1" stop-color="#36FFB0"/>
</linearGradient>
<linearGradient id="paint10_linear_254_19330" x1="114.585" y1="62.6583" x2="121.545" y2="62.6583" gradientUnits="userSpaceOnUse">
<stop stop-color="#25BA80"/>
<stop offset="1" stop-color="#36FFB0"/>
</linearGradient>
<linearGradient id="paint11_linear_254_19330" x1="119.962" y1="65.8605" x2="126.922" y2="65.8605" gradientUnits="userSpaceOnUse">
<stop stop-color="#25BA80"/>
<stop offset="1" stop-color="#36FFB0"/>
</linearGradient>
<linearGradient id="paint12_linear_254_19330" x1="121.82" y1="66.8934" x2="128.78" y2="66.8934" gradientUnits="userSpaceOnUse">
<stop stop-color="#25BA80"/>
<stop offset="1" stop-color="#36FFB0"/>
</linearGradient>
<linearGradient id="paint13_linear_254_19330" x1="123.576" y1="67.9264" x2="130.638" y2="67.9264" gradientUnits="userSpaceOnUse">
<stop stop-color="#25BA80"/>
<stop offset="1" stop-color="#36FFB0"/>
</linearGradient>
<linearGradient id="paint14_linear_254_19330" x1="125.435" y1="68.9592" x2="132.498" y2="68.9592" gradientUnits="userSpaceOnUse">
<stop stop-color="#25BA80"/>
<stop offset="1" stop-color="#36FFB0"/>
</linearGradient>
<linearGradient id="paint15_linear_254_19330" x1="130.806" y1="72.0583" x2="137.766" y2="72.0583" gradientUnits="userSpaceOnUse">
<stop stop-color="#25BA80"/>
<stop offset="1" stop-color="#36FFB0"/>
</linearGradient>
<linearGradient id="paint16_linear_254_19330" x1="132.663" y1="73.1946" x2="139.623" y2="73.1946" gradientUnits="userSpaceOnUse">
<stop stop-color="#25BA80"/>
<stop offset="1" stop-color="#36FFB0"/>
</linearGradient>
<linearGradient id="paint17_linear_254_19330" x1="134.525" y1="74.2276" x2="141.485" y2="74.2276" gradientUnits="userSpaceOnUse">
<stop stop-color="#25BA80"/>
<stop offset="1" stop-color="#36FFB0"/>
</linearGradient>
<linearGradient id="paint18_linear_254_19330" x1="136.279" y1="75.2602" x2="143.341" y2="75.2602" gradientUnits="userSpaceOnUse">
<stop stop-color="#25BA80"/>
<stop offset="1" stop-color="#36FFB0"/>
</linearGradient>
<linearGradient id="paint19_linear_254_19330" x1="129.409" y1="90.1811" x2="131.217" y2="90.1811" gradientUnits="userSpaceOnUse">
<stop stop-color="#C0D6FF"/>
<stop offset="0.2978" stop-color="#C5DBFF"/>
<stop offset="0.6488" stop-color="#D3E9FF"/>
<stop offset="1" stop-color="#E9FFFF"/>
</linearGradient>
<linearGradient id="paint20_linear_254_19330" x1="129.19" y1="90.3653" x2="130.686" y2="90.3653" gradientUnits="userSpaceOnUse">
<stop stop-color="#5778FF"/>
<stop offset="0.1779" stop-color="#5C7DFF"/>
<stop offset="0.3876" stop-color="#6A8AFF"/>
<stop offset="0.6134" stop-color="#82A0FF"/>
<stop offset="0.849" stop-color="#A3BEFF"/>
<stop offset="1" stop-color="#BCD5FF"/>
</linearGradient>
<linearGradient id="paint21_linear_254_19330" x1="92.4296" y1="68.9515" x2="94.2381" y2="68.9515" gradientUnits="userSpaceOnUse">
<stop stop-color="#C0D6FF"/>
<stop offset="0.2978" stop-color="#C5DBFF"/>
<stop offset="0.6488" stop-color="#D3E9FF"/>
<stop offset="1" stop-color="#E9FFFF"/>
</linearGradient>
<linearGradient id="paint22_linear_254_19330" x1="92.211" y1="69.1357" x2="93.7066" y2="69.1357" gradientUnits="userSpaceOnUse">
<stop stop-color="#5778FF"/>
<stop offset="0.1779" stop-color="#5C7DFF"/>
<stop offset="0.3876" stop-color="#6A8AFF"/>
<stop offset="0.6134" stop-color="#82A0FF"/>
<stop offset="0.849" stop-color="#A3BEFF"/>
<stop offset="1" stop-color="#BCD5FF"/>
</linearGradient>
<linearGradient id="paint23_linear_254_19330" x1="129.411" y1="162.079" x2="131.219" y2="162.079" gradientUnits="userSpaceOnUse">
<stop stop-color="#C0D6FF"/>
<stop offset="0.2978" stop-color="#C5DBFF"/>
<stop offset="0.6488" stop-color="#D3E9FF"/>
<stop offset="1" stop-color="#E9FFFF"/>
</linearGradient>
<linearGradient id="paint24_linear_254_19330" x1="129.19" y1="162.287" x2="130.686" y2="162.287" gradientUnits="userSpaceOnUse">
<stop stop-color="#5778FF"/>
<stop offset="0.1779" stop-color="#5C7DFF"/>
<stop offset="0.3876" stop-color="#6A8AFF"/>
<stop offset="0.6134" stop-color="#82A0FF"/>
<stop offset="0.849" stop-color="#A3BEFF"/>
<stop offset="1" stop-color="#BCD5FF"/>
</linearGradient>
<linearGradient id="paint25_linear_254_19330" x1="129.411" y1="162.232" x2="131.22" y2="162.232" gradientUnits="userSpaceOnUse">
<stop stop-color="#C0D6FF"/>
<stop offset="0.2978" stop-color="#C5DBFF"/>
<stop offset="0.6488" stop-color="#D3E9FF"/>
<stop offset="1" stop-color="#E9FFFF"/>
</linearGradient>
<linearGradient id="paint26_linear_254_19330" x1="129.191" y1="162.232" x2="130.686" y2="162.232" gradientUnits="userSpaceOnUse">
<stop stop-color="#5778FF"/>
<stop offset="0.1779" stop-color="#5C7DFF"/>
<stop offset="0.3876" stop-color="#6A8AFF"/>
<stop offset="0.6134" stop-color="#82A0FF"/>
<stop offset="0.849" stop-color="#A3BEFF"/>
<stop offset="1" stop-color="#BCD5FF"/>
</linearGradient>
<linearGradient id="paint27_linear_254_19330" x1="92.4296" y1="140.849" x2="94.2381" y2="140.849" gradientUnits="userSpaceOnUse">
<stop stop-color="#C0D6FF"/>
<stop offset="0.2978" stop-color="#C5DBFF"/>
<stop offset="0.6488" stop-color="#D3E9FF"/>
<stop offset="1" stop-color="#E9FFFF"/>
</linearGradient>
<linearGradient id="paint28_linear_254_19330" x1="92.211" y1="141.057" x2="93.7065" y2="141.057" gradientUnits="userSpaceOnUse">
<stop stop-color="#5778FF"/>
<stop offset="0.1779" stop-color="#5C7DFF"/>
<stop offset="0.3876" stop-color="#6A8AFF"/>
<stop offset="0.6134" stop-color="#82A0FF"/>
<stop offset="0.849" stop-color="#A3BEFF"/>
<stop offset="1" stop-color="#BCD5FF"/>
</linearGradient>
<linearGradient id="paint29_linear_254_19330" x1="92.4301" y1="141.003" x2="94.2386" y2="141.003" gradientUnits="userSpaceOnUse">
<stop stop-color="#C0D6FF"/>
<stop offset="0.2978" stop-color="#C5DBFF"/>
<stop offset="0.6488" stop-color="#D3E9FF"/>
<stop offset="1" stop-color="#E9FFFF"/>
</linearGradient>
<linearGradient id="paint30_linear_254_19330" x1="92.2095" y1="141.003" x2="93.7051" y2="141.003" gradientUnits="userSpaceOnUse">
<stop stop-color="#5778FF"/>
<stop offset="0.1779" stop-color="#5C7DFF"/>
<stop offset="0.3876" stop-color="#6A8AFF"/>
<stop offset="0.6134" stop-color="#82A0FF"/>
<stop offset="0.849" stop-color="#A3BEFF"/>
<stop offset="1" stop-color="#BCD5FF"/>
</linearGradient>
<linearGradient id="paint31_linear_254_19330" x1="114.636" y1="174.657" x2="114.636" y2="82.4225" gradientUnits="userSpaceOnUse">
<stop stop-color="#C0D6FF"/>
<stop offset="0.2978" stop-color="#C5DBFF"/>
<stop offset="0.6488" stop-color="#D3E9FF"/>
<stop offset="1" stop-color="#E9FFFF"/>
</linearGradient>
<linearGradient id="paint32_linear_254_19330" x1="64.9933" y1="76.9794" x2="107.654" y2="76.9794" gradientUnits="userSpaceOnUse">
<stop stop-color="#E9FFFF"/>
<stop offset="1" stop-color="#8AAEFB"/>
</linearGradient>
<linearGradient id="paint33_linear_254_19330" x1="63.1496" y1="77.6736" x2="120.467" y2="77.6736" gradientUnits="userSpaceOnUse">
<stop stop-color="#5778FF"/>
<stop offset="0.1779" stop-color="#5C7DFF"/>
<stop offset="0.3876" stop-color="#6A8AFF"/>
<stop offset="0.6134" stop-color="#82A0FF"/>
<stop offset="0.849" stop-color="#A3BEFF"/>
<stop offset="1" stop-color="#BCD5FF"/>
</linearGradient>
<linearGradient id="paint34_linear_254_19330" x1="113.105" y1="68.005" x2="72.1707" y2="84.7788" gradientUnits="userSpaceOnUse">
<stop stop-color="#699BFF"/>
<stop offset="1" stop-color="#6F9AFF"/>
</linearGradient>
<linearGradient id="paint35_linear_254_19330" x1="101.019" y1="87.8967" x2="123.132" y2="87.8967" gradientUnits="userSpaceOnUse">
<stop stop-color="#C0D6FF"/>
<stop offset="0.2978" stop-color="#C5DBFF"/>
<stop offset="0.6488" stop-color="#D3E9FF"/>
<stop offset="1" stop-color="#E9FFFF"/>
</linearGradient>
<linearGradient id="paint36_linear_254_19330" x1="76.2556" y1="67.8227" x2="83.318" y2="67.8227" gradientUnits="userSpaceOnUse">
<stop stop-color="#25BA80"/>
<stop offset="1" stop-color="#36FFB0"/>
</linearGradient>
<linearGradient id="paint37_linear_254_19330" x1="78.1145" y1="68.8557" x2="85.0746" y2="68.8557" gradientUnits="userSpaceOnUse">
<stop stop-color="#25BA80"/>
<stop offset="1" stop-color="#36FFB0"/>
</linearGradient>
<linearGradient id="paint38_linear_254_19330" x1="79.9759" y1="69.9922" x2="86.936" y2="69.9922" gradientUnits="userSpaceOnUse">
<stop stop-color="#25BA80"/>
<stop offset="1" stop-color="#36FFB0"/>
</linearGradient>
<linearGradient id="paint39_linear_254_19330" x1="81.8372" y1="71.0249" x2="88.7973" y2="71.0249" gradientUnits="userSpaceOnUse">
<stop stop-color="#25BA80"/>
<stop offset="1" stop-color="#36FFB0"/>
</linearGradient>
<linearGradient id="paint40_linear_254_19330" x1="87.1072" y1="74.124" x2="94.1696" y2="74.124" gradientUnits="userSpaceOnUse">
<stop stop-color="#25BA80"/>
<stop offset="1" stop-color="#36FFB0"/>
</linearGradient>
<linearGradient id="paint41_linear_254_19330" x1="88.9646" y1="75.1568" x2="96.027" y2="75.1568" gradientUnits="userSpaceOnUse">
<stop stop-color="#25BA80"/>
<stop offset="1" stop-color="#36FFB0"/>
</linearGradient>
<linearGradient id="paint42_linear_254_19330" x1="90.8255" y1="76.1897" x2="97.7856" y2="76.1897" gradientUnits="userSpaceOnUse">
<stop stop-color="#25BA80"/>
<stop offset="1" stop-color="#36FFB0"/>
</linearGradient>
<linearGradient id="paint43_linear_254_19330" x1="92.6849" y1="77.3263" x2="99.6449" y2="77.3263" gradientUnits="userSpaceOnUse">
<stop stop-color="#25BA80"/>
<stop offset="1" stop-color="#36FFB0"/>
</linearGradient>
<linearGradient id="paint44_linear_254_19330" x1="98.052" y1="80.4245" x2="105.012" y2="80.4245" gradientUnits="userSpaceOnUse">
<stop stop-color="#25BA80"/>
<stop offset="1" stop-color="#36FFB0"/>
</linearGradient>
<linearGradient id="paint45_linear_254_19330" x1="99.8083" y1="81.4573" x2="106.871" y2="81.4573" gradientUnits="userSpaceOnUse">
<stop stop-color="#25BA80"/>
<stop offset="1" stop-color="#36FFB0"/>
</linearGradient>
<linearGradient id="paint46_linear_254_19330" x1="101.667" y1="82.4905" x2="108.627" y2="82.4905" gradientUnits="userSpaceOnUse">
<stop stop-color="#25BA80"/>
<stop offset="1" stop-color="#36FFB0"/>
</linearGradient>
<linearGradient id="paint47_linear_254_19330" x1="103.529" y1="83.5234" x2="110.489" y2="83.5234" gradientUnits="userSpaceOnUse">
<stop stop-color="#25BA80"/>
<stop offset="1" stop-color="#36FFB0"/>
</linearGradient>
<linearGradient id="paint48_linear_254_19330" x1="123.627" y1="133.651" x2="108.671" y2="122.541" gradientUnits="userSpaceOnUse">
<stop stop-color="#5778FF"/>
<stop offset="0.1779" stop-color="#5C7DFF"/>
<stop offset="0.3876" stop-color="#6A8AFF"/>
<stop offset="0.6134" stop-color="#82A0FF"/>
<stop offset="0.849" stop-color="#A3BEFF"/>
<stop offset="1" stop-color="#BCD5FF"/>
</linearGradient>
<linearGradient id="paint49_linear_254_19330" x1="105.327" y1="143.984" x2="135.175" y2="143.984" gradientUnits="userSpaceOnUse">
<stop stop-color="#5778FF"/>
<stop offset="0.1779" stop-color="#5C7DFF"/>
<stop offset="0.3876" stop-color="#6A8AFF"/>
<stop offset="0.6134" stop-color="#82A0FF"/>
<stop offset="0.849" stop-color="#A3BEFF"/>
<stop offset="1" stop-color="#BCD5FF"/>
</linearGradient>
<linearGradient id="paint50_linear_254_19330" x1="115.355" y1="142.989" x2="145.218" y2="142.989" gradientUnits="userSpaceOnUse">
<stop stop-color="#C0D6FF"/>
<stop offset="0.2978" stop-color="#C5DBFF"/>
<stop offset="0.6488" stop-color="#D3E9FF"/>
<stop offset="1" stop-color="#E9FFFF"/>
</linearGradient>
<linearGradient id="paint51_linear_254_19330" x1="120.411" y1="144.684" x2="128.055" y2="144.684" gradientUnits="userSpaceOnUse">
<stop stop-color="#C0D6FF"/>
<stop offset="0.2978" stop-color="#C5DBFF"/>
<stop offset="0.6488" stop-color="#D3E9FF"/>
<stop offset="1" stop-color="#E9FFFF"/>
</linearGradient>
<linearGradient id="paint52_linear_254_19330" x1="104.07" y1="136.349" x2="133.792" y2="136.349" gradientUnits="userSpaceOnUse">
<stop stop-color="#C0D6FF"/>
<stop offset="0.2978" stop-color="#C5DBFF"/>
<stop offset="0.6488" stop-color="#D3E9FF"/>
<stop offset="1" stop-color="#E9FFFF"/>
</linearGradient>
<linearGradient id="paint53_linear_254_19330" x1="102.114" y1="134.168" x2="109.722" y2="134.168" gradientUnits="userSpaceOnUse">
<stop stop-color="#C0D6FF"/>
<stop offset="0.2978" stop-color="#C5DBFF"/>
<stop offset="0.6488" stop-color="#D3E9FF"/>
<stop offset="1" stop-color="#E9FFFF"/>
</linearGradient>
<linearGradient id="paint54_linear_254_19330" x1="96.6196" y1="98.4848" x2="98.4281" y2="98.4848" gradientUnits="userSpaceOnUse">
<stop stop-color="#C0D6FF"/>
<stop offset="0.2978" stop-color="#C5DBFF"/>
<stop offset="0.6488" stop-color="#D3E9FF"/>
<stop offset="1" stop-color="#E9FFFF"/>
</linearGradient>
<linearGradient id="paint55_linear_254_19330" x1="96.401" y1="98.6691" x2="97.8967" y2="98.6691" gradientUnits="userSpaceOnUse">
<stop stop-color="#5778FF"/>
<stop offset="0.1779" stop-color="#5C7DFF"/>
<stop offset="0.3876" stop-color="#6A8AFF"/>
<stop offset="0.6134" stop-color="#82A0FF"/>
<stop offset="0.849" stop-color="#A3BEFF"/>
<stop offset="1" stop-color="#BCD5FF"/>
</linearGradient>
<linearGradient id="paint56_linear_254_19330" x1="59.6384" y1="77.255" x2="61.4468" y2="77.255" gradientUnits="userSpaceOnUse">
<stop stop-color="#C0D6FF"/>
<stop offset="0.2978" stop-color="#C5DBFF"/>
<stop offset="0.6488" stop-color="#D3E9FF"/>
<stop offset="1" stop-color="#E9FFFF"/>
</linearGradient>
<linearGradient id="paint57_linear_254_19330" x1="59.4197" y1="77.4393" x2="60.9153" y2="77.4393" gradientUnits="userSpaceOnUse">
<stop stop-color="#5778FF"/>
<stop offset="0.1779" stop-color="#5C7DFF"/>
<stop offset="0.3876" stop-color="#6A8AFF"/>
<stop offset="0.6134" stop-color="#82A0FF"/>
<stop offset="0.849" stop-color="#A3BEFF"/>
<stop offset="1" stop-color="#BCD5FF"/>
</linearGradient>
<linearGradient id="paint58_linear_254_19330" x1="96.6177" y1="170.383" x2="98.4262" y2="170.383" gradientUnits="userSpaceOnUse">
<stop stop-color="#C0D6FF"/>
<stop offset="0.2978" stop-color="#C5DBFF"/>
<stop offset="0.6488" stop-color="#D3E9FF"/>
<stop offset="1" stop-color="#E9FFFF"/>
</linearGradient>
<linearGradient id="paint59_linear_254_19330" x1="96.3991" y1="170.591" x2="97.8947" y2="170.591" gradientUnits="userSpaceOnUse">
<stop stop-color="#5778FF"/>
<stop offset="0.1779" stop-color="#5C7DFF"/>
<stop offset="0.3876" stop-color="#6A8AFF"/>
<stop offset="0.6134" stop-color="#82A0FF"/>
<stop offset="0.849" stop-color="#A3BEFF"/>
<stop offset="1" stop-color="#BCD5FF"/>
</linearGradient>
<linearGradient id="paint60_linear_254_19330" x1="96.6182" y1="170.536" x2="98.4267" y2="170.536" gradientUnits="userSpaceOnUse">
<stop stop-color="#C0D6FF"/>
<stop offset="0.2978" stop-color="#C5DBFF"/>
<stop offset="0.6488" stop-color="#D3E9FF"/>
<stop offset="1" stop-color="#E9FFFF"/>
</linearGradient>
<linearGradient id="paint61_linear_254_19330" x1="96.3976" y1="170.536" x2="97.8932" y2="170.536" gradientUnits="userSpaceOnUse">
<stop stop-color="#5778FF"/>
<stop offset="0.1779" stop-color="#5C7DFF"/>
<stop offset="0.3876" stop-color="#6A8AFF"/>
<stop offset="0.6134" stop-color="#82A0FF"/>
<stop offset="0.849" stop-color="#A3BEFF"/>
<stop offset="1" stop-color="#BCD5FF"/>
</linearGradient>
<linearGradient id="paint62_linear_254_19330" x1="59.6384" y1="149.153" x2="61.4468" y2="149.153" gradientUnits="userSpaceOnUse">
<stop stop-color="#C0D6FF"/>
<stop offset="0.2978" stop-color="#C5DBFF"/>
<stop offset="0.6488" stop-color="#D3E9FF"/>
<stop offset="1" stop-color="#E9FFFF"/>
</linearGradient>
<linearGradient id="paint63_linear_254_19330" x1="59.4197" y1="149.361" x2="60.9153" y2="149.361" gradientUnits="userSpaceOnUse">
<stop stop-color="#5778FF"/>
<stop offset="0.1779" stop-color="#5C7DFF"/>
<stop offset="0.3876" stop-color="#6A8AFF"/>
<stop offset="0.6134" stop-color="#82A0FF"/>
<stop offset="0.849" stop-color="#A3BEFF"/>
<stop offset="1" stop-color="#BCD5FF"/>
</linearGradient>
<linearGradient id="paint64_linear_254_19330" x1="59.6389" y1="149.307" x2="61.4473" y2="149.307" gradientUnits="userSpaceOnUse">
<stop stop-color="#C0D6FF"/>
<stop offset="0.2978" stop-color="#C5DBFF"/>
<stop offset="0.6488" stop-color="#D3E9FF"/>
<stop offset="1" stop-color="#E9FFFF"/>
</linearGradient>
<linearGradient id="paint65_linear_254_19330" x1="59.4182" y1="149.307" x2="60.9138" y2="149.307" gradientUnits="userSpaceOnUse">
<stop stop-color="#5778FF"/>
<stop offset="0.1779" stop-color="#5C7DFF"/>
<stop offset="0.3876" stop-color="#6A8AFF"/>
<stop offset="0.6134" stop-color="#82A0FF"/>
<stop offset="0.849" stop-color="#A3BEFF"/>
<stop offset="1" stop-color="#BCD5FF"/>
</linearGradient>
<linearGradient id="paint66_linear_254_19330" x1="82.1144" y1="204.084" x2="82.1144" y2="111.849" gradientUnits="userSpaceOnUse">
<stop stop-color="#C0D6FF"/>
<stop offset="0.2978" stop-color="#C5DBFF"/>
<stop offset="0.6488" stop-color="#D3E9FF"/>
<stop offset="1" stop-color="#E9FFFF"/>
</linearGradient>
<linearGradient id="paint67_linear_254_19330" x1="32.4722" y1="106.407" x2="75.1325" y2="106.407" gradientUnits="userSpaceOnUse">
<stop stop-color="#E9FFFF"/>
<stop offset="0.0373936" stop-color="#D3EBFF"/>
<stop offset="0.1056" stop-color="#B2CCFF"/>
<stop offset="0.1817" stop-color="#96B2FF"/>
<stop offset="0.2663" stop-color="#7F9DFF"/>
<stop offset="0.3632" stop-color="#6D8CFF"/>
<stop offset="0.4798" stop-color="#6081FF"/>
<stop offset="0.6363" stop-color="#597AFF"/>
<stop offset="1" stop-color="#5778FF"/>
</linearGradient>
<linearGradient id="paint68_linear_254_19330" x1="32.4582" y1="106.419" x2="75.1184" y2="106.419" gradientUnits="userSpaceOnUse">
<stop stop-color="#E9FFFF"/>
<stop offset="1" stop-color="#8AAEFB"/>
</linearGradient>
<linearGradient id="paint69_linear_254_19330" x1="30.6144" y1="107.113" x2="87.9317" y2="107.113" gradientUnits="userSpaceOnUse">
<stop stop-color="#5778FF"/>
<stop offset="0.1779" stop-color="#5C7DFF"/>
<stop offset="0.3876" stop-color="#6A8AFF"/>
<stop offset="0.6134" stop-color="#82A0FF"/>
<stop offset="0.849" stop-color="#A3BEFF"/>
<stop offset="1" stop-color="#BCD5FF"/>
</linearGradient>
<linearGradient id="paint70_linear_254_19330" x1="80.57" y1="97.4444" x2="39.6355" y2="114.218" gradientUnits="userSpaceOnUse">
<stop stop-color="#699BFF"/>
<stop offset="1" stop-color="#6F9AFF"/>
</linearGradient>
<linearGradient id="paint71_linear_254_19330" x1="68.4996" y1="117.324" x2="90.6132" y2="117.324" gradientUnits="userSpaceOnUse">
<stop stop-color="#C0D6FF"/>
<stop offset="0.2978" stop-color="#C5DBFF"/>
<stop offset="0.6488" stop-color="#D3E9FF"/>
<stop offset="1" stop-color="#E9FFFF"/>
</linearGradient>
<linearGradient id="paint72_linear_254_19330" x1="43.7322" y1="97.2623" x2="50.7946" y2="97.2623" gradientUnits="userSpaceOnUse">
<stop stop-color="#25BA80"/>
<stop offset="1" stop-color="#36FFB0"/>
</linearGradient>
<linearGradient id="paint73_linear_254_19330" x1="45.5915" y1="98.2951" x2="52.654" y2="98.2951" gradientUnits="userSpaceOnUse">
<stop stop-color="#25BA80"/>
<stop offset="1" stop-color="#36FFB0"/>
</linearGradient>
<linearGradient id="paint74_linear_254_19330" x1="47.4485" y1="99.3799" x2="54.4086" y2="99.3799" gradientUnits="userSpaceOnUse">
<stop stop-color="#25BA80"/>
<stop offset="1" stop-color="#36FFB0"/>
</linearGradient>
<linearGradient id="paint75_linear_254_19330" x1="49.3099" y1="100.464" x2="56.2699" y2="100.464" gradientUnits="userSpaceOnUse">
<stop stop-color="#25BA80"/>
<stop offset="1" stop-color="#36FFB0"/>
</linearGradient>
<linearGradient id="paint76_linear_254_19330" x1="54.679" y1="103.563" x2="61.6391" y2="103.563" gradientUnits="userSpaceOnUse">
<stop stop-color="#25BA80"/>
<stop offset="1" stop-color="#36FFB0"/>
</linearGradient>
<linearGradient id="paint77_linear_254_19330" x1="56.4353" y1="104.596" x2="63.4977" y2="104.596" gradientUnits="userSpaceOnUse">
<stop stop-color="#25BA80"/>
<stop offset="1" stop-color="#36FFB0"/>
</linearGradient>
<linearGradient id="paint78_linear_254_19330" x1="58.2962" y1="105.629" x2="65.2563" y2="105.629" gradientUnits="userSpaceOnUse">
<stop stop-color="#25BA80"/>
<stop offset="1" stop-color="#36FFB0"/>
</linearGradient>
<linearGradient id="paint79_linear_254_19330" x1="60.1556" y1="106.714" x2="67.1156" y2="106.714" gradientUnits="userSpaceOnUse">
<stop stop-color="#25BA80"/>
<stop offset="1" stop-color="#36FFB0"/>
</linearGradient>
<linearGradient id="paint80_linear_254_19330" x1="65.5267" y1="109.864" x2="72.4868" y2="109.864" gradientUnits="userSpaceOnUse">
<stop stop-color="#25BA80"/>
<stop offset="1" stop-color="#36FFB0"/>
</linearGradient>
<linearGradient id="paint81_linear_254_19330" x1="67.3841" y1="110.897" x2="74.3441" y2="110.897" gradientUnits="userSpaceOnUse">
<stop stop-color="#25BA80"/>
<stop offset="1" stop-color="#36FFB0"/>
</linearGradient>
<linearGradient id="paint82_linear_254_19330" x1="69.1404" y1="111.93" x2="76.2028" y2="111.93" gradientUnits="userSpaceOnUse">
<stop stop-color="#25BA80"/>
<stop offset="1" stop-color="#36FFB0"/>
</linearGradient>
<linearGradient id="paint83_linear_254_19330" x1="71.0013" y1="112.963" x2="77.9613" y2="112.963" gradientUnits="userSpaceOnUse">
<stop stop-color="#25BA80"/>
<stop offset="1" stop-color="#36FFB0"/>
</linearGradient>
<linearGradient id="paint84_linear_254_19330" x1="64.1005" y1="127.911" x2="65.909" y2="127.911" gradientUnits="userSpaceOnUse">
<stop stop-color="#C0D6FF"/>
<stop offset="0.2978" stop-color="#C5DBFF"/>
<stop offset="0.6488" stop-color="#D3E9FF"/>
<stop offset="1" stop-color="#E9FFFF"/>
</linearGradient>
<linearGradient id="paint85_linear_254_19330" x1="63.8819" y1="128.096" x2="65.3775" y2="128.096" gradientUnits="userSpaceOnUse">
<stop stop-color="#5778FF"/>
<stop offset="0.1779" stop-color="#5C7DFF"/>
<stop offset="0.3876" stop-color="#6A8AFF"/>
<stop offset="0.6134" stop-color="#82A0FF"/>
<stop offset="0.849" stop-color="#A3BEFF"/>
<stop offset="1" stop-color="#BCD5FF"/>
</linearGradient>
<linearGradient id="paint86_linear_254_19330" x1="27.1192" y1="106.682" x2="28.9277" y2="106.682" gradientUnits="userSpaceOnUse">
<stop stop-color="#C0D6FF"/>
<stop offset="0.2978" stop-color="#C5DBFF"/>
<stop offset="0.6488" stop-color="#D3E9FF"/>
<stop offset="1" stop-color="#E9FFFF"/>
</linearGradient>
<linearGradient id="paint87_linear_254_19330" x1="26.9006" y1="106.866" x2="28.3962" y2="106.866" gradientUnits="userSpaceOnUse">
<stop stop-color="#5778FF"/>
<stop offset="0.1779" stop-color="#5C7DFF"/>
<stop offset="0.3876" stop-color="#6A8AFF"/>
<stop offset="0.6134" stop-color="#82A0FF"/>
<stop offset="0.849" stop-color="#A3BEFF"/>
<stop offset="1" stop-color="#BCD5FF"/>
</linearGradient>
<linearGradient id="paint88_linear_254_19330" x1="64.1005" y1="199.809" x2="65.909" y2="199.809" gradientUnits="userSpaceOnUse">
<stop stop-color="#C0D6FF"/>
<stop offset="0.2978" stop-color="#C5DBFF"/>
<stop offset="0.6488" stop-color="#D3E9FF"/>
<stop offset="1" stop-color="#E9FFFF"/>
</linearGradient>
<linearGradient id="paint89_linear_254_19330" x1="63.8799" y1="200.017" x2="65.3755" y2="200.017" gradientUnits="userSpaceOnUse">
<stop stop-color="#5778FF"/>
<stop offset="0.1779" stop-color="#5C7DFF"/>
<stop offset="0.3876" stop-color="#6A8AFF"/>
<stop offset="0.6134" stop-color="#82A0FF"/>
<stop offset="0.849" stop-color="#A3BEFF"/>
<stop offset="1" stop-color="#BCD5FF"/>
</linearGradient>
<linearGradient id="paint90_linear_254_19330" x1="64.101" y1="199.962" x2="65.9095" y2="199.962" gradientUnits="userSpaceOnUse">
<stop stop-color="#C0D6FF"/>
<stop offset="0.2978" stop-color="#C5DBFF"/>
<stop offset="0.6488" stop-color="#D3E9FF"/>
<stop offset="1" stop-color="#E9FFFF"/>
</linearGradient>
<linearGradient id="paint91_linear_254_19330" x1="63.8804" y1="199.962" x2="65.376" y2="199.962" gradientUnits="userSpaceOnUse">
<stop stop-color="#5778FF"/>
<stop offset="0.1779" stop-color="#5C7DFF"/>
<stop offset="0.3876" stop-color="#6A8AFF"/>
<stop offset="0.6134" stop-color="#82A0FF"/>
<stop offset="0.849" stop-color="#A3BEFF"/>
<stop offset="1" stop-color="#BCD5FF"/>
</linearGradient>
<linearGradient id="paint92_linear_254_19330" x1="27.1192" y1="178.579" x2="28.9277" y2="178.579" gradientUnits="userSpaceOnUse">
<stop stop-color="#C0D6FF"/>
<stop offset="0.2978" stop-color="#C5DBFF"/>
<stop offset="0.6488" stop-color="#D3E9FF"/>
<stop offset="1" stop-color="#E9FFFF"/>
</linearGradient>
<linearGradient id="paint93_linear_254_19330" x1="26.9006" y1="178.788" x2="28.3962" y2="178.788" gradientUnits="userSpaceOnUse">
<stop stop-color="#5778FF"/>
<stop offset="0.1779" stop-color="#5C7DFF"/>
<stop offset="0.3876" stop-color="#6A8AFF"/>
<stop offset="0.6134" stop-color="#82A0FF"/>
<stop offset="0.849" stop-color="#A3BEFF"/>
<stop offset="1" stop-color="#BCD5FF"/>
</linearGradient>
<linearGradient id="paint94_linear_254_19330" x1="27.1197" y1="178.733" x2="28.9282" y2="178.733" gradientUnits="userSpaceOnUse">
<stop stop-color="#C0D6FF"/>
<stop offset="0.2978" stop-color="#C5DBFF"/>
<stop offset="0.6488" stop-color="#D3E9FF"/>
<stop offset="1" stop-color="#E9FFFF"/>
</linearGradient>
<linearGradient id="paint95_linear_254_19330" x1="26.8991" y1="178.733" x2="28.3947" y2="178.733" gradientUnits="userSpaceOnUse">
<stop stop-color="#5778FF"/>
<stop offset="0.1779" stop-color="#5C7DFF"/>
<stop offset="0.3876" stop-color="#6A8AFF"/>
<stop offset="0.6134" stop-color="#82A0FF"/>
<stop offset="0.849" stop-color="#A3BEFF"/>
<stop offset="1" stop-color="#BCD5FF"/>
</linearGradient>
</defs>
</svg>
