<svg width="257" height="255" viewBox="0 0 257 255" fill="none" xmlns="http://www.w3.org/2000/svg">
<circle cx="131.234" cy="128.726" r="124.756" stroke="url(#paint0_linear_254_19628)" stroke-width="1.25382" stroke-dasharray="12.54 12.54"/>
<circle cx="68.9607" cy="19.6432" r="3.76147" fill="#49E5A7"/>
<circle cx="19.6423" cy="184.312" r="3.76147" stroke="#4A7CF2" stroke-width="1.67177"/>
<circle cx="89.8572" cy="246.167" r="3.76147" fill="#49E5A7"/>
<path d="M170.464 6.27628C170.367 5.4755 171.348 5.01482 171.902 5.60139L174.67 8.53362C174.852 8.72665 175.115 8.82163 175.379 8.78954L179.382 8.30204C180.183 8.20452 180.643 9.18579 180.057 9.73959L177.125 12.508C176.932 12.6902 176.837 12.9533 176.869 13.2168L177.356 17.2198C177.454 18.0206 176.472 18.4813 175.919 17.8947L173.15 14.9625C172.968 14.7695 172.705 14.6745 172.441 14.7066L168.438 15.1941C167.638 15.2916 167.177 14.3103 167.763 13.7565L170.696 10.9881C170.889 10.8059 170.984 10.5428 170.952 10.2793L170.464 6.27628Z" fill="#49E5A7"/>
<path d="M8.30199 88.1928C8.20447 87.392 9.18574 86.9313 9.73954 87.5179L12.5079 90.4501C12.6902 90.6432 12.9532 90.7381 13.2168 90.706L17.2198 90.2185C18.0206 90.121 18.4812 91.1023 17.8947 91.6561L14.9624 94.4245C14.7694 94.6067 14.6744 94.8698 14.7065 95.1333L15.194 99.1363C15.2915 99.9371 14.3103 100.398 13.7565 99.8112L10.9881 96.879C10.8059 96.686 10.5428 96.591 10.2792 96.6231L6.27622 97.1106C5.47544 97.2081 5.01477 96.2268 5.60134 95.673L8.53357 92.9047C8.72659 92.7224 8.82158 92.4593 8.78949 92.1958L8.30199 88.1928Z" fill="#4A7CF2"/>
<path opacity="0.66" d="M44.919 50.3763L45.2851 50.052C46.6286 48.6584 48.0428 49.5768 48.4178 51.8229L66.0634 157.507C66.4581 159.871 65.6755 162.735 64.332 164.129L63.9659 164.453C62.6225 165.847 61.2082 164.929 60.8332 162.683L43.1876 56.9986C42.914 54.7306 43.6769 51.7479 44.919 50.3763Z" fill="#48E5A7"/>
<path opacity="0.66" d="M39.8721 87.4829L40.2382 87.1586C41.5817 85.765 42.9959 86.6834 43.3709 88.9295L51.8976 139.998C52.2924 142.362 51.5097 145.227 50.1663 146.62L49.8002 146.945C48.4567 148.338 47.0425 147.42 46.6674 145.174L38.1407 94.1052C37.746 91.7409 38.5089 88.7583 39.8721 87.4829Z" fill="#48E5A7"/>
<path opacity="0.66" d="M32.1768 109.362L32.5429 109.037C33.8864 107.644 35.3006 108.562 35.6756 110.808L46.709 176.89C47.1038 179.255 46.3212 182.119 44.9777 183.513L44.6116 183.837C43.2681 185.231 41.8539 184.312 41.4789 182.066L30.4455 115.984C30.0507 113.62 30.8333 110.755 32.1768 109.362Z" fill="#48E5A7"/>
<path opacity="0.66" d="M67.126 37.954L67.4921 37.6296C68.8356 36.236 70.2498 37.1544 70.6248 39.4005L89.7902 154.187C90.1849 156.551 89.4023 159.416 88.0589 160.809L87.6927 161.134C86.3493 162.527 84.935 161.609 84.56 159.363L65.3947 44.5763C65.0197 42.3302 65.7826 39.3476 67.126 37.954Z" fill="#48E5A7"/>
<path opacity="0.66" d="M59.0205 56.737L59.3866 56.4127C60.7301 55.0191 62.1443 55.9375 62.5194 58.1836L69.7039 101.214C70.0987 103.578 69.316 106.442 67.9726 107.836L67.6064 108.16C66.263 109.554 64.8487 108.636 64.4737 106.389L57.2892 63.3594C56.8944 60.9951 57.6573 58.0124 59.0205 56.737Z" fill="#48E5A7"/>
<g opacity="0.5">
<path opacity="0.6" d="M177.044 141.264L65.9655 205.51C64.9438 206.095 64.9438 207.412 65.9655 207.998L127.708 243.706C130.482 245.316 133.985 245.316 136.758 243.706L243.312 182.095C244.334 181.509 244.334 180.192 243.312 179.607L177.044 141.264Z" fill="#E0EAFF"/>
<path opacity="0.6" d="M177.044 124.546L65.9655 188.792C64.9438 189.378 64.9438 190.695 65.9655 191.28L127.708 226.989C130.482 228.598 133.985 228.598 136.758 226.989L243.312 165.377C244.334 164.792 244.334 163.474 243.312 162.889L177.044 124.546Z" fill="url(#paint1_linear_254_19628)"/>
</g>
<path d="M160.544 109.854L148.335 37.3169L149.361 36.9065L147.924 36.0858C147.617 35.8806 147.206 35.8806 146.796 36.1884L49.019 92.6178C48.1982 93.1308 47.5826 94.2594 47.7878 95.0802L60.0997 168.233C60.2023 168.644 60.3049 168.849 60.6127 168.951L62.0491 169.772L62.2543 168.438H62.1517L159.313 112.317C160.134 111.906 160.749 110.675 160.544 109.854Z" fill="url(#paint2_linear_254_19628)"/>
<path d="M49.5335 94.5673L47.8919 93.8491C47.6867 94.2595 47.5841 94.6699 47.6867 95.0803L59.9986 168.233C60.1012 168.644 60.2038 168.849 60.5116 168.952L61.948 169.772L62.1532 168.439H62.0506L66.9753 165.566L49.5335 94.5673Z" fill="url(#paint3_linear_254_19628)"/>
<path d="M160.852 113.24L63.075 169.67C62.3568 170.08 61.6386 169.875 61.536 169.054L49.2241 95.901C49.1215 95.0802 49.7371 93.849 50.4553 93.4386L148.232 37.0092C148.95 36.5988 149.669 36.804 149.771 37.6247L162.083 110.778C162.288 111.599 161.673 112.727 160.852 113.24Z" fill="#9BBBFF"/>
<g opacity="0.51">
<path d="M147.003 41.6262L52.7148 96.0037L64.4111 164.95L158.597 110.573L147.003 41.6262Z" fill="#5885EF"/>
</g>
<path d="M222.313 147.816L216.978 150.586L163.421 119.704C162.498 119.191 160.959 119.294 159.933 119.807L67.6962 173.158C66.7728 172.645 62.7715 170.696 62.7715 170.696L64.7209 175.826C64.8235 176.031 64.9261 176.236 65.2339 176.441L121.561 208.965C122.484 209.478 124.023 209.376 125.049 208.863L219.44 154.382C219.851 154.177 220.158 153.869 220.261 153.562L222.313 147.816Z" fill="url(#paint4_linear_254_19628)"/>
<path d="M222.313 147.816L216.978 150.586L163.421 119.704C162.498 119.191 160.959 119.294 159.933 119.807L67.6962 173.158C66.7728 172.645 62.7715 170.696 62.7715 170.696L64.7209 175.826C64.8235 176.031 64.9261 176.236 65.2339 176.441L121.561 208.965C122.484 209.478 124.023 209.376 125.049 208.863L219.44 154.382C219.851 154.177 220.158 153.869 220.261 153.562L222.313 147.816Z" fill="url(#paint5_linear_254_19628)"/>
<path d="M221.492 148.739L124.741 204.656C123.715 205.272 122.074 205.374 121.15 204.759L63.387 171.414C62.4636 170.901 62.5662 169.977 63.6948 169.362L160.446 113.445C161.472 112.83 163.113 112.727 164.037 113.343L221.8 146.687C222.621 147.2 222.518 148.124 221.492 148.739Z" fill="url(#paint6_linear_254_19628)"/>
<path d="M95.502 192.549V191.523C95.502 191.421 95.6045 191.421 95.6045 191.421L99.2981 193.575C99.4007 193.575 99.4007 193.781 99.4007 193.883V194.909C99.4007 195.012 99.2981 195.012 99.2981 195.012L95.6045 192.857C95.6045 192.755 95.502 192.652 95.502 192.549Z" fill="#2859CB"/>
<path d="M101.145 195.73V194.704C101.145 194.601 101.247 194.601 101.247 194.601L104.941 196.756C105.043 196.756 105.043 196.961 105.043 197.063V198.089C105.043 198.192 104.941 198.192 104.941 198.192L101.247 196.037C101.145 195.935 101.145 195.832 101.145 195.73Z" fill="#2859CB"/>
<path d="M78.4685 168.233L158.906 121.756C159.419 121.448 160.137 121.448 160.65 121.756L189.275 138.377C189.686 138.582 189.686 139.198 189.275 139.403L108.838 185.778C108.325 186.086 107.607 186.086 107.094 185.778L78.3659 169.259C78.0581 169.157 78.0581 168.541 78.4685 168.233Z" fill="#E4F7FF"/>
<path d="M78.4685 169.362L78.7763 169.567L158.906 123.295C159.419 122.987 160.137 122.987 160.65 123.295L188.968 139.711L189.275 139.506C189.686 139.3 189.686 138.685 189.275 138.48L160.548 121.859C160.035 121.551 159.316 121.551 158.803 121.859L78.3659 168.336C78.0581 168.541 78.0581 169.157 78.4685 169.362Z" fill="#91AFFF"/>
<path d="M162.806 126.065L92.9365 166.386L89.7559 164.54L159.626 124.218L162.806 126.065Z" fill="#48E5A7"/>
<path d="M170.397 130.477L104.836 168.233L101.758 166.489L167.216 128.63L170.397 130.477Z" fill="#48E5A7"/>
<path d="M175.324 133.349L98.1698 177.877L95.0918 176.031L172.246 131.503L175.324 133.349Z" fill="#48E5A7"/>
<path d="M180.248 136.12L103.094 180.75L100.016 178.903L177.17 134.375L180.248 136.12Z" fill="#48E5A7"/>
<path d="M185.275 138.993L108.121 183.623L105.043 181.776L182.095 137.248L185.275 138.993Z" fill="#48E5A7"/>
<path d="M88.6266 168.849L85.5487 170.593L82.4707 168.849L85.5487 167.002L88.6266 168.849Z" fill="#48E5A7"/>
<path d="M99.6043 171.311L93.1405 175.005L90.0625 173.158L96.5263 169.464L99.6043 171.311Z" fill="#48E5A7"/>
<path d="M161.983 179.519L183.631 167.002C184.452 166.489 184.452 165.668 183.631 165.258L168.754 156.742C167.933 156.229 166.497 156.229 165.676 156.742L144.028 169.259C143.207 169.772 143.207 170.593 144.028 171.004L158.905 179.519C159.725 180.032 161.059 180.032 161.983 179.519Z" fill="url(#paint7_linear_254_19628)"/>
<path d="M144.031 169.875L165.679 157.358C166.5 156.845 167.936 156.845 168.757 157.358L183.634 165.873C183.942 165.976 184.045 166.181 184.147 166.386C184.352 165.976 184.25 165.463 183.634 165.155L168.757 156.64C167.936 156.127 166.5 156.127 165.679 156.64L144.031 169.157C143.415 169.464 143.313 169.977 143.518 170.388C143.621 170.285 143.826 170.08 144.031 169.875Z" fill="#91AFFF"/>
<defs>
<linearGradient id="paint0_linear_254_19628" x1="256.616" y1="128.726" x2="5.85155" y2="128.726" gradientUnits="userSpaceOnUse">
<stop stop-color="#4A7CF2" stop-opacity="0"/>
<stop offset="0.455" stop-color="#4A7CF2" stop-opacity="0.05"/>
<stop offset="1" stop-color="#4A7CF2" stop-opacity="0.1"/>
</linearGradient>
<linearGradient id="paint1_linear_254_19628" x1="208.554" y1="145.289" x2="154.69" y2="238.558" gradientUnits="userSpaceOnUse">
<stop stop-color="#E9FFFF"/>
<stop offset="0.3512" stop-color="#D3E9FF"/>
<stop offset="0.7022" stop-color="#C5DBFF"/>
<stop offset="1" stop-color="#C0D6FF"/>
</linearGradient>
<linearGradient id="paint2_linear_254_19628" x1="47.6559" y1="102.816" x2="160.608" y2="102.816" gradientUnits="userSpaceOnUse">
<stop stop-color="#C0D6FF"/>
<stop offset="0.2978" stop-color="#C5DBFF"/>
<stop offset="0.6488" stop-color="#D3E9FF"/>
<stop offset="1" stop-color="#E9FFFF"/>
</linearGradient>
<linearGradient id="paint3_linear_254_19628" x1="47.6581" y1="131.783" x2="67.0531" y2="131.783" gradientUnits="userSpaceOnUse">
<stop stop-color="#5778FF"/>
<stop offset="0.1779" stop-color="#5C7DFF"/>
<stop offset="0.3876" stop-color="#6A8AFF"/>
<stop offset="0.6134" stop-color="#82A0FF"/>
<stop offset="0.849" stop-color="#A3BEFF"/>
<stop offset="1" stop-color="#BCD5FF"/>
</linearGradient>
<linearGradient id="paint4_linear_254_19628" x1="62.793" y1="164.346" x2="222.318" y2="164.346" gradientUnits="userSpaceOnUse">
<stop stop-color="#5778FF"/>
<stop offset="0.1779" stop-color="#5C7DFF"/>
<stop offset="0.3876" stop-color="#6A8AFF"/>
<stop offset="0.6134" stop-color="#82A0FF"/>
<stop offset="0.849" stop-color="#A3BEFF"/>
<stop offset="1" stop-color="#BCD5FF"/>
</linearGradient>
<linearGradient id="paint5_linear_254_19628" x1="202.394" y1="139.173" x2="90.5532" y2="188.423" gradientUnits="userSpaceOnUse">
<stop stop-color="#699BFF"/>
<stop offset="1" stop-color="#6F9AFF"/>
</linearGradient>
<linearGradient id="paint6_linear_254_19628" x1="116.394" y1="159.026" x2="276.004" y2="159.026" gradientUnits="userSpaceOnUse">
<stop stop-color="#CDEEFF"/>
<stop offset="0.2978" stop-color="#CDEEFF"/>
<stop offset="0.6488" stop-color="#DFF5FF"/>
<stop offset="1" stop-color="#DFF5FF"/>
</linearGradient>
<linearGradient id="paint7_linear_254_19628" x1="143.422" y1="168.087" x2="184.277" y2="168.087" gradientUnits="userSpaceOnUse">
<stop stop-color="#C0D6FF"/>
<stop offset="0.2978" stop-color="#C5DBFF"/>
<stop offset="0.6488" stop-color="#D3E9FF"/>
<stop offset="1" stop-color="#E9FFFF"/>
</linearGradient>
</defs>
</svg>
