<svg width="20" height="20" viewBox="0 0 20 20" fill="none" xmlns="http://www.w3.org/2000/svg">
<path d="M18.6406 5.31439C18.0017 5.59837 17.3141 5.78993 16.5927 5.87566C17.3293 5.43469 17.8941 4.73619 18.1605 3.90293C17.4715 4.3118 16.7088 4.60848 15.8963 4.76864C15.2462 4.07579 14.3194 3.64258 13.2939 3.64258C11.325 3.64258 9.72873 5.2389 9.72873 7.2081C9.72873 7.48714 9.76012 7.75914 9.82115 8.02054C6.85782 7.87167 4.23034 6.45245 2.47174 4.29522C2.16483 4.82156 1.98915 5.43398 1.98915 6.08803C1.98915 7.32487 2.6185 8.41636 3.57523 9.05559C2.99103 9.03689 2.44105 8.87638 1.96022 8.60933C1.95986 8.62415 1.95986 8.63932 1.95986 8.65448C1.95986 10.3817 3.18894 11.8224 4.82018 12.1505C4.52103 12.2316 4.206 12.2754 3.88074 12.2754C3.65073 12.2754 3.42742 12.2532 3.20975 12.2112C3.66378 13.6276 4.98034 14.6588 6.54032 14.6873C5.32007 15.6437 3.78302 16.2138 2.11226 16.2138C1.82475 16.2138 1.54077 16.1969 1.26172 16.1637C2.84004 17.1758 4.714 17.7657 6.7273 17.7657C13.2858 17.7657 16.8718 12.3329 16.8718 7.6212C16.8718 7.46668 16.8686 7.31252 16.8619 7.15941C17.5583 6.65777 18.1629 6.02947 18.6406 5.31439Z" fill="#8DADF7"/>
</svg>
