<svg width="201" height="276" viewBox="0 0 201 276" fill="none" xmlns="http://www.w3.org/2000/svg">
<circle cx="128.597" cy="128.597" r="127.847" transform="matrix(-1 0 0 1 200.193 13.8488)" stroke="url(#paint0_linear_251_15887)" stroke-width="1.5" stroke-dasharray="15 15"/>
<path d="M182.327 193.431C182.21 192.473 183.384 191.922 184.047 192.624L187.297 196.066C187.515 196.297 187.829 196.411 188.145 196.372L192.844 195.8C193.802 195.683 194.353 196.857 193.651 197.52L190.209 200.77C189.978 200.988 189.864 201.302 189.903 201.618L190.475 206.317C190.592 207.275 189.418 207.826 188.755 207.124L185.505 203.682C185.287 203.451 184.973 203.338 184.657 203.376L179.958 203.948C179 204.065 178.449 202.891 179.151 202.228L182.593 198.979C182.824 198.761 182.938 198.446 182.899 198.131L182.327 193.431Z" fill="#49E5A7"/>
<path d="M53.7272 7.45988C53.6106 6.50188 54.7845 5.95075 55.447 6.65249L58.6969 10.0948C58.9149 10.3257 59.2297 10.4393 59.5449 10.4009L64.2443 9.82862C65.2023 9.71195 65.7534 10.8859 65.0517 11.5484L61.6094 14.7983C61.3785 15.0163 61.2648 15.3311 61.3032 15.6464L61.8755 20.3457C61.9922 21.3037 60.8183 21.8548 60.1557 21.1531L56.9058 17.7108C56.6878 17.4799 56.373 17.3662 56.0578 17.4046L51.3585 17.9769C50.4005 18.0936 49.8493 16.9197 50.5511 16.2571L53.9934 13.0072C54.2243 12.7892 54.3379 12.4744 54.2995 12.1592L53.7272 7.45988Z" fill="#4A7CF2"/>
<ellipse cx="83.9632" cy="270.548" rx="4.45144" ry="4.45144" stroke="#4A7CF2" stroke-width="2"/>
<ellipse cx="185.85" cy="82.5989" rx="4.45144" ry="4.45144" stroke="#49E5A7" stroke-width="2"/>
<path d="M69.9316 85.2376L99.893 67.9583L122.087 80.7988L92.2838 98.0781L69.9316 85.2376Z" fill="#8AADFB"/>
<path d="M92.2812 98.078L122.084 80.7987V167.512L92.2812 184.792V98.078Z" fill="#B2CAFF"/>
<path d="M119.864 84.7617V157.525L94.5 172.268V99.5046L116.694 86.5055L119.864 84.7617Z" fill="#3947BA"/>
<path d="M119.864 157.525L110.987 153.72L94.5 166.085V172.268L119.864 157.525Z" fill="#3947BA"/>
<path d="M92.2838 98.078L69.9316 85.2374V171.951L92.2838 184.792V98.078Z" fill="#6A89CF"/>
<path d="M96.7311 160.854V169.732L94.5117 168.464V159.586L96.7311 160.854Z" fill="#BCD5FF"/>
<path d="M119.877 156.257L96.7324 169.732V160.854L119.877 147.38V156.257Z" fill="#E4F7FF"/>
<path d="M119.876 147.38L96.7311 160.854L94.5117 159.586V158.318L116.705 145.477L119.876 147.38Z" fill="#9FB7DF"/>
<path d="M96.7311 151.026V159.903L94.5117 158.635V149.758L96.7311 151.026Z" fill="#BCD5FF"/>
<path d="M119.877 146.587L96.7324 159.903V151.025L119.877 137.551V146.587Z" fill="#E4F7FF"/>
<path d="M119.876 137.551L96.7311 151.026L94.5117 149.757V148.648L116.705 135.649L119.876 137.551Z" fill="#9FB7DF"/>
<path d="M96.7311 141.197V150.075L94.5117 148.807V139.929L96.7311 141.197Z" fill="#BCD5FF"/>
<path d="M119.877 136.758L96.7324 150.075V141.197L119.877 127.722V136.758Z" fill="#E4F7FF"/>
<path d="M119.876 127.723L96.7311 141.197L94.5117 139.929V138.819L116.705 125.82L119.876 127.723Z" fill="#9FB7DF"/>
<path d="M96.7311 131.369V140.246L94.5117 138.978V130.1L96.7311 131.369Z" fill="#BCD5FF"/>
<path d="M119.877 126.93L96.7324 140.246V131.368L119.877 117.894V126.93Z" fill="#E4F7FF"/>
<path d="M119.876 117.894L96.7311 131.369L94.5117 130.1V128.991L116.705 115.992L119.876 117.894Z" fill="#9FB7DF"/>
<path d="M96.7311 121.54V130.417L94.5117 129.149V120.272L96.7311 121.54Z" fill="#BCD5FF"/>
<path d="M119.877 117.101L96.7324 130.417V121.54L119.877 108.065V117.101Z" fill="#E4F7FF"/>
<path d="M119.876 108.065L96.7311 121.54L94.5117 120.272V119.162L116.705 106.163L119.876 108.065Z" fill="#9FB7DF"/>
<path d="M96.7311 111.711V120.589L94.5117 119.321V110.443L96.7311 111.711Z" fill="#BCD5FF"/>
<path d="M119.877 107.273L96.7324 120.589V111.711L119.877 98.2367V107.273Z" fill="#E4F7FF"/>
<path d="M119.876 98.2368L96.7311 111.711L94.5117 110.443V109.334L116.705 96.3345L119.876 98.2368Z" fill="#9FB7DF"/>
<path d="M96.7311 101.883V110.76L94.5117 109.492V100.615L96.7311 101.883Z" fill="#BCD5FF"/>
<path d="M119.877 97.4438L96.7324 110.76V101.883L119.877 88.4078V97.4438Z" fill="#E4F7FF"/>
<path d="M119.876 88.4081L96.7311 101.883L94.5117 100.615V99.5049L116.705 86.5057L119.876 88.4081Z" fill="#9FB7DF"/>
<path d="M119.077 96.6515L97.5176 109.016V102.358L119.077 89.9934V96.6515Z" fill="#E4F7FF"/>
<path d="M72.9492 91.7371V139.77L89.753 149.44V101.407L75.0101 93.0053L72.9492 91.7371Z" fill="#4F883D"/>
<path d="M72.9508 139.77V91.7371L71.207 90.6274V140.722L89.7546 151.343V149.441L72.9508 139.77Z" fill="#31541A"/>
<path d="M77.7051 142.465L89.753 149.441V101.407L77.7051 94.4321V142.465Z" fill="#315C1C"/>
<path d="M72.9508 139.771L71.207 140.722L89.7546 151.343V149.441L72.9508 139.771Z" fill="#3B6820"/>
<path d="M97.8359 174.488V176.073L98.9456 175.439V173.854L97.8359 174.488Z" fill="#3947BA"/>
<path d="M100.846 172.744V174.171L101.955 173.537V172.11L100.846 172.744Z" fill="#3947BA"/>
<path d="M103.863 170.842V172.427L104.973 171.793V170.208L103.863 170.842Z" fill="#3947BA"/>
<path d="M107.033 169.098V170.683L108.143 170.049V168.464L107.033 169.098Z" fill="#3947BA"/>
<path d="M110.039 167.354V168.939L111.149 168.305V166.72L110.039 167.354Z" fill="#3947BA"/>
<path d="M113.055 165.61V167.196L114.164 166.561V164.976L113.055 165.61Z" fill="#3947BA"/>
<path d="M116.066 163.867V165.293L117.176 164.659V163.232L116.066 163.867Z" fill="#3947BA"/>
<path d="M97.8359 176.866V178.293L98.9456 177.658V176.232L97.8359 176.866Z" fill="#3947BA"/>
<path d="M100.846 174.963V176.548L101.955 175.914V174.329L100.846 174.963Z" fill="#3947BA"/>
<path d="M103.863 173.22V174.805L104.973 174.171V172.585L103.863 173.22Z" fill="#3947BA"/>
<path d="M107.033 171.476V173.061L108.143 172.427V170.842L107.033 171.476Z" fill="#3947BA"/>
<path d="M110.039 169.732V171.317L111.149 170.683V169.098L110.039 169.732Z" fill="#3947BA"/>
<path d="M113.055 167.988V169.573L114.164 168.939V167.354L113.055 167.988Z" fill="#3947BA"/>
<path d="M116.066 166.086V167.671L117.176 167.037V165.61L116.066 166.086Z" fill="#3947BA"/>
<path d="M97.8359 179.244V180.67L98.9456 180.036V178.609L97.8359 179.244Z" fill="#3947BA"/>
<path d="M100.846 177.341V178.927L101.955 178.292V176.707L100.846 177.341Z" fill="#3947BA"/>
<path d="M103.863 175.597V177.183L104.973 176.549V174.963L103.863 175.597Z" fill="#3947BA"/>
<path d="M107.033 173.853V175.439L108.143 174.805V173.219L107.033 173.853Z" fill="#3947BA"/>
<path d="M110.039 172.11V173.695L111.149 173.061V171.476L110.039 172.11Z" fill="#3947BA"/>
<path d="M113.055 170.366V171.792L114.164 171.158V169.732L113.055 170.366Z" fill="#3947BA"/>
<path d="M116.066 168.464V170.049L117.176 169.415V167.83L116.066 168.464Z" fill="#3947BA"/>
<path d="M90.2268 174.488V176.073L89.1172 175.439V173.854L90.2268 174.488Z" fill="#3947BA"/>
<path d="M87.2112 172.744V174.171L86.1016 173.537V172.11L87.2112 172.744Z" fill="#3947BA"/>
<path d="M84.0413 170.842V172.427L82.9316 171.793V170.208L84.0413 170.842Z" fill="#3947BA"/>
<path d="M81.0355 169.098V170.683L79.9258 170.049V168.464L81.0355 169.098Z" fill="#3947BA"/>
<path d="M78.0179 167.354V168.939L76.9082 168.305V166.72L78.0179 167.354Z" fill="#3947BA"/>
<path d="M74.8499 165.61V167.196L73.7402 166.561V164.976L74.8499 165.61Z" fill="#3947BA"/>
<path d="M71.8382 163.867V165.293L70.7285 164.659V163.232L71.8382 163.867Z" fill="#3947BA"/>
<path d="M90.2268 176.866V178.293L89.1172 177.658V176.232L90.2268 176.866Z" fill="#3947BA"/>
<path d="M87.2112 174.963V176.548L86.1016 175.914V174.329L87.2112 174.963Z" fill="#3947BA"/>
<path d="M84.0413 173.219V174.805L82.9316 174.171V172.585L84.0413 173.219Z" fill="#3947BA"/>
<path d="M81.0355 171.476V173.061L79.9258 172.427V170.842L81.0355 171.476Z" fill="#3947BA"/>
<path d="M78.0179 169.732V171.317L76.9082 170.683V169.098L78.0179 169.732Z" fill="#3947BA"/>
<path d="M74.8499 167.988V169.573L73.7402 168.939V167.354L74.8499 167.988Z" fill="#3947BA"/>
<path d="M71.8382 166.086V167.671L70.7285 167.037V165.61L71.8382 166.086Z" fill="#3947BA"/>
<path d="M90.2268 179.244V180.67L89.1172 180.036V178.609L90.2268 179.244Z" fill="#3947BA"/>
<path d="M87.2112 177.341V178.926L86.1016 178.292V176.707L87.2112 177.341Z" fill="#3947BA"/>
<path d="M84.0413 175.597V177.183L82.9316 176.548V174.963L84.0413 175.597Z" fill="#3947BA"/>
<path d="M81.0355 173.853V175.439L79.9258 174.805V173.219L81.0355 173.853Z" fill="#3947BA"/>
<path d="M78.0179 172.11V173.695L76.9082 173.061V171.476L78.0179 172.11Z" fill="#3947BA"/>
<path d="M74.8499 170.366V171.792L73.7402 171.158V169.732L74.8499 170.366Z" fill="#3947BA"/>
<path d="M71.8382 168.464V170.049L70.7285 169.415V167.83L71.8382 168.464Z" fill="#3947BA"/>
<path d="M98.625 103.944C98.625 104.578 99.1005 104.895 99.7347 104.578C100.369 104.261 100.844 103.627 100.686 102.834C100.686 102.2 100.21 101.883 99.5762 102.2C98.9421 102.517 98.625 103.31 98.625 103.944Z" fill="#49E5A7"/>
<path d="M98.625 106.797C98.625 107.431 99.1005 107.749 99.7347 107.431C100.369 107.114 100.844 106.48 100.686 105.688C100.686 105.054 100.21 104.737 99.5762 105.054C98.9421 105.371 98.625 106.163 98.625 106.797Z" fill="#49E5A7"/>
<path d="M99.1016 103.785C99.1016 104.261 99.4186 104.419 99.7357 104.261C100.053 104.102 100.37 103.627 100.37 103.151C100.37 102.676 100.053 102.517 99.7357 102.676C99.4186 102.993 99.1016 103.468 99.1016 103.785Z" fill="#49E5A7"/>
<path d="M99.1016 106.639C99.1016 107.114 99.4186 107.273 99.7357 107.114C100.053 106.956 100.37 106.48 100.37 106.005C100.37 105.529 100.053 105.371 99.7357 105.529C99.4186 105.688 99.1016 106.163 99.1016 106.639Z" fill="#49E5A7"/>
<path d="M101.957 102.042V102.993L102.591 102.676V101.724L101.957 102.042Z" fill="#27BF83"/>
<path d="M103.229 101.407V102.2L103.863 101.883V100.932L103.229 101.407Z" fill="#27BF83"/>
<path d="M104.65 100.615V101.407L105.284 101.09V100.298L104.65 100.615Z" fill="#27BF83"/>
<path d="M105.922 99.8221V100.773L106.556 100.298V99.5051L105.922 99.8221Z" fill="#27BF83"/>
<path d="M107.186 99.0294V99.9806L107.82 99.6635V98.7124L107.186 99.0294Z" fill="#27BF83"/>
<path d="M108.617 98.2368V99.188L109.251 98.8709V97.9198L108.617 98.2368Z" fill="#27BF83"/>
<path d="M109.879 97.4443V98.3955L110.513 98.0784V97.1273L109.879 97.4443Z" fill="#27BF83"/>
<path d="M111.154 96.81V97.6027L111.788 97.2856V96.3345L111.154 96.81Z" fill="#27BF83"/>
<path d="M112.576 96.0174V96.81L113.21 96.4929V95.7003L112.576 96.0174Z" fill="#27BF83"/>
<path d="M101.957 103.944V104.736L102.591 104.419V103.468L101.957 103.944Z" fill="#27BF83"/>
<path d="M103.229 103.151V103.944L103.863 103.627V102.676L103.229 103.151Z" fill="#27BF83"/>
<path d="M104.65 102.358V103.309L105.284 102.834V102.041L104.65 102.358Z" fill="#27BF83"/>
<path d="M105.922 101.566V102.517L106.556 102.041V101.249L105.922 101.566Z" fill="#27BF83"/>
<path d="M107.186 100.773V101.724L107.82 101.407V100.456L107.186 100.773Z" fill="#27BF83"/>
<path d="M108.617 99.9804V100.932L109.251 100.614V99.6633L108.617 99.9804Z" fill="#27BF83"/>
<path d="M109.879 99.188V100.139L110.513 99.8221V98.871L109.879 99.188Z" fill="#27BF83"/>
<path d="M111.154 98.5537V99.3464L111.788 99.0293V98.0781L111.154 98.5537Z" fill="#27BF83"/>
<path d="M112.576 97.7612V98.5538L113.21 98.2367V97.4441L112.576 97.7612Z" fill="#27BF83"/>
<path d="M118.127 95.542L114.322 97.7613V94.7493L118.127 92.6885V95.542Z" fill="#27BF83"/>
<path d="M98.625 113.614C98.625 114.248 99.1005 114.565 99.7347 114.248C100.369 113.931 100.844 113.297 100.686 112.504C100.686 111.87 100.21 111.553 99.5762 111.87C98.9421 112.187 98.625 112.98 98.625 113.614Z" fill="#49E5A7"/>
<path d="M98.625 116.626C98.625 117.26 99.1005 117.577 99.7347 117.26C100.369 116.943 100.844 116.309 100.686 115.516C100.686 114.882 100.21 114.565 99.5762 114.882C98.9421 115.199 98.625 115.833 98.625 116.626Z" fill="#49E5A7"/>
<path d="M99.1016 113.614C99.1016 114.089 99.4186 114.248 99.7357 114.089C100.053 113.931 100.37 113.455 100.37 112.98C100.37 112.504 100.053 112.346 99.7357 112.504C99.4186 112.663 99.1016 113.138 99.1016 113.614Z" fill="#49E5A7"/>
<path d="M99.1016 116.309C99.1016 116.784 99.4186 116.943 99.7357 116.784C100.053 116.626 100.37 116.15 100.37 115.675C100.37 115.199 100.053 115.041 99.7357 115.199C99.4186 115.516 99.1016 115.992 99.1016 116.309Z" fill="#49E5A7"/>
<path d="M101.957 111.87V112.821L102.591 112.346V111.553L101.957 111.87Z" fill="#27BF83"/>
<path d="M103.229 111.077V112.029L103.863 111.712V110.76L103.229 111.077Z" fill="#27BF83"/>
<path d="M104.65 110.285V111.236L105.284 110.919V109.968L104.65 110.285Z" fill="#27BF83"/>
<path d="M105.922 109.492V110.443L106.556 110.126V109.175L105.922 109.492Z" fill="#27BF83"/>
<path d="M107.186 108.858V109.651L107.82 109.333V108.382L107.186 108.858Z" fill="#27BF83"/>
<path d="M108.617 108.065V108.858L109.251 108.541V107.748L108.617 108.065Z" fill="#27BF83"/>
<path d="M109.879 107.273V108.224L110.513 107.748V106.956L109.879 107.273Z" fill="#27BF83"/>
<path d="M111.154 106.48V107.431L111.788 107.114V106.163L111.154 106.48Z" fill="#27BF83"/>
<path d="M112.576 105.688V106.639L113.21 106.322V105.37L112.576 105.688Z" fill="#27BF83"/>
<path d="M101.957 113.614V114.565L102.591 114.09V113.297L101.957 113.614Z" fill="#27BF83"/>
<path d="M103.229 112.821V113.772L103.863 113.455V112.504L103.229 112.821Z" fill="#27BF83"/>
<path d="M104.65 112.029V112.98L105.284 112.663V111.712L104.65 112.029Z" fill="#27BF83"/>
<path d="M105.922 111.236V112.187L106.556 111.87V110.919L105.922 111.236Z" fill="#27BF83"/>
<path d="M107.186 110.602V111.394L107.82 111.077V110.126L107.186 110.602Z" fill="#27BF83"/>
<path d="M108.617 109.809V110.602L109.251 110.285V109.492L108.617 109.809Z" fill="#27BF83"/>
<path d="M109.879 109.017V109.968L110.513 109.492V108.699L109.879 109.017Z" fill="#27BF83"/>
<path d="M111.154 108.224V109.175L111.788 108.858V107.907L111.154 108.224Z" fill="#27BF83"/>
<path d="M112.576 107.431V108.382L113.21 108.065V107.114L112.576 107.431Z" fill="#27BF83"/>
<path d="M118.127 105.37L114.322 107.431V104.578L118.127 102.359V105.37Z" fill="#27BF83"/>
<path d="M98.625 123.443C98.625 124.077 99.1005 124.394 99.7347 124.077C100.369 123.76 100.844 123.126 100.686 122.333C100.686 121.699 100.21 121.382 99.5762 121.699C98.9421 122.016 98.625 122.65 98.625 123.443Z" fill="#49E5A7"/>
<path d="M98.625 126.296C98.625 126.93 99.1005 127.247 99.7347 126.93C100.369 126.613 100.844 125.979 100.686 125.187C100.686 124.552 100.21 124.235 99.5762 124.552C98.9421 124.87 98.625 125.662 98.625 126.296Z" fill="#49E5A7"/>
<path d="M99.1016 123.284C99.1016 123.76 99.4186 123.918 99.7357 123.76C100.053 123.601 100.37 123.126 100.37 122.65C100.37 122.175 100.053 122.016 99.7357 122.175C99.4186 122.492 99.1016 122.967 99.1016 123.284Z" fill="#49E5A7"/>
<path d="M99.1016 126.138C99.1016 126.613 99.4186 126.772 99.7357 126.613C100.053 126.455 100.37 125.979 100.37 125.503C100.37 125.028 100.053 124.869 99.7357 125.028C99.4186 125.186 99.1016 125.662 99.1016 126.138Z" fill="#49E5A7"/>
<path d="M101.957 121.54V122.492L102.591 122.174V121.223L101.957 121.54Z" fill="#27BF83"/>
<path d="M103.229 120.906V121.699L103.863 121.382V120.43L103.229 120.906Z" fill="#27BF83"/>
<path d="M104.65 120.114V120.906L105.284 120.589V119.797L104.65 120.114Z" fill="#27BF83"/>
<path d="M105.922 119.321V120.272L106.556 119.796V119.004L105.922 119.321Z" fill="#27BF83"/>
<path d="M107.186 118.528V119.479L107.82 119.004V118.211L107.186 118.528Z" fill="#27BF83"/>
<path d="M108.617 117.736V118.687L109.251 118.37V117.419L108.617 117.736Z" fill="#27BF83"/>
<path d="M109.879 116.943V117.894L110.513 117.577V116.626L109.879 116.943Z" fill="#27BF83"/>
<path d="M111.154 116.309V117.102L111.788 116.785V115.833L111.154 116.309Z" fill="#27BF83"/>
<path d="M112.576 115.516V116.309L113.21 115.992V115.041L112.576 115.516Z" fill="#27BF83"/>
<path d="M101.957 123.284V124.235L102.591 123.918V122.967L101.957 123.284Z" fill="#27BF83"/>
<path d="M103.229 122.65V123.442L103.863 123.125V122.174L103.229 122.65Z" fill="#27BF83"/>
<path d="M104.65 121.857V122.65L105.284 122.333V121.54L104.65 121.857Z" fill="#27BF83"/>
<path d="M105.922 121.064V122.016L106.556 121.54V120.747L105.922 121.064Z" fill="#27BF83"/>
<path d="M107.186 120.272V121.223L107.82 120.906V119.955L107.186 120.272Z" fill="#27BF83"/>
<path d="M108.617 119.479V120.43L109.251 120.113V119.162L108.617 119.479Z" fill="#27BF83"/>
<path d="M109.879 118.687V119.638L110.513 119.321V118.37L109.879 118.687Z" fill="#27BF83"/>
<path d="M111.154 118.052V118.845L111.788 118.528V117.577L111.154 118.052Z" fill="#27BF83"/>
<path d="M112.576 117.26V118.052L113.21 117.735V116.943L112.576 117.26Z" fill="#27BF83"/>
<path d="M118.127 115.041L114.322 117.26V114.248L118.127 112.187V115.041Z" fill="#27BF83"/>
<path d="M98.625 133.112C98.625 133.747 99.1005 134.064 99.7347 133.747C100.369 133.429 100.844 132.795 100.686 132.003C100.686 131.369 100.21 131.052 99.5762 131.369C98.9421 131.686 98.625 132.478 98.625 133.112Z" fill="#49E5A7"/>
<path d="M98.625 136.124C98.625 136.758 99.1005 137.076 99.7347 136.758C100.369 136.441 100.844 135.807 100.686 135.015C100.686 134.381 100.21 134.064 99.5762 134.381C98.9421 134.698 98.625 135.332 98.625 136.124Z" fill="#49E5A7"/>
<path d="M99.1016 133.112C99.1016 133.588 99.4186 133.747 99.7357 133.588C100.053 133.43 100.37 132.954 100.37 132.478C100.37 132.003 100.053 131.844 99.7357 132.003C99.4186 132.161 99.1016 132.637 99.1016 133.112Z" fill="#49E5A7"/>
<path d="M99.1016 135.808C99.1016 136.283 99.4186 136.442 99.7357 136.283C100.053 136.125 100.37 135.649 100.37 135.173C100.37 134.698 100.053 134.539 99.7357 134.698C99.4186 135.015 99.1016 135.491 99.1016 135.808Z" fill="#49E5A7"/>
<path d="M101.957 131.369V132.32L102.591 131.844V131.052L101.957 131.369Z" fill="#27BF83"/>
<path d="M103.229 130.576V131.527L103.863 131.052V130.259L103.229 130.576Z" fill="#27BF83"/>
<path d="M104.65 129.784V130.735L105.284 130.418V129.467L104.65 129.784Z" fill="#27BF83"/>
<path d="M105.922 128.991V129.942L106.556 129.625V128.674L105.922 128.991Z" fill="#27BF83"/>
<path d="M107.186 128.357V129.149L107.82 128.832V127.881L107.186 128.357Z" fill="#27BF83"/>
<path d="M108.617 127.564V128.357L109.251 128.04V127.089L108.617 127.564Z" fill="#27BF83"/>
<path d="M109.879 126.771V127.723L110.513 127.247V126.454L109.879 126.771Z" fill="#27BF83"/>
<path d="M111.154 125.979V126.93L111.788 126.454V125.662L111.154 125.979Z" fill="#27BF83"/>
<path d="M112.576 125.186V126.137L113.21 125.82V124.869L112.576 125.186Z" fill="#27BF83"/>
<path d="M101.957 133.112V134.064L102.591 133.588V132.795L101.957 133.112Z" fill="#27BF83"/>
<path d="M103.229 132.32V133.271L103.863 132.954V132.003L103.229 132.32Z" fill="#27BF83"/>
<path d="M104.65 131.527V132.478L105.284 132.161V131.21L104.65 131.527Z" fill="#27BF83"/>
<path d="M105.922 130.735V131.686L106.556 131.369V130.417L105.922 130.735Z" fill="#27BF83"/>
<path d="M107.186 130.1V130.893L107.82 130.576V129.625L107.186 130.1Z" fill="#27BF83"/>
<path d="M108.617 129.308V130.1L109.251 129.783V128.991L108.617 129.308Z" fill="#27BF83"/>
<path d="M109.879 128.515V129.466L110.513 128.991V128.198L109.879 128.515Z" fill="#27BF83"/>
<path d="M111.154 127.723V128.674L111.788 128.357V127.406L111.154 127.723Z" fill="#27BF83"/>
<path d="M112.576 126.93V127.881L113.21 127.564V126.613L112.576 126.93Z" fill="#27BF83"/>
<path d="M118.127 124.869L114.322 126.93V124.076L118.127 121.857V124.869Z" fill="#27BF83"/>
<path d="M98.625 142.941C98.625 143.575 99.1005 143.892 99.7347 143.575C100.369 143.258 100.844 142.624 100.686 141.831C100.686 141.197 100.21 140.88 99.5762 141.197C98.9421 141.514 98.625 142.148 98.625 142.941Z" fill="#49E5A7"/>
<path d="M98.625 145.794C98.625 146.428 99.1005 146.745 99.7347 146.428C100.369 146.111 100.844 145.477 100.686 144.684C100.686 144.05 100.21 143.733 99.5762 144.05C98.9421 144.367 98.625 145.16 98.625 145.794Z" fill="#49E5A7"/>
<path d="M99.1016 142.782C99.1016 143.258 99.4186 143.416 99.7357 143.258C100.053 143.099 100.37 142.624 100.37 142.148C100.37 141.673 100.053 141.514 99.7357 141.672C99.4186 141.99 99.1016 142.465 99.1016 142.782Z" fill="#49E5A7"/>
<path d="M99.1016 145.636C99.1016 146.111 99.4186 146.27 99.7357 146.111C100.053 145.953 100.37 145.477 100.37 145.002C100.37 144.526 100.053 144.368 99.7357 144.526C99.4186 144.685 99.1016 145.16 99.1016 145.636Z" fill="#49E5A7"/>
<path d="M101.957 141.039V141.99L102.591 141.673V140.722L101.957 141.039Z" fill="#27BF83"/>
<path d="M103.229 140.405V141.197L103.863 140.88V139.929L103.229 140.405Z" fill="#27BF83"/>
<path d="M104.65 139.612V140.405L105.284 140.088V139.136L104.65 139.612Z" fill="#27BF83"/>
<path d="M105.922 138.819V139.77L106.556 139.295V138.502L105.922 138.819Z" fill="#27BF83"/>
<path d="M107.186 138.027V138.978L107.82 138.502V137.71L107.186 138.027Z" fill="#27BF83"/>
<path d="M108.617 137.234V138.185L109.251 137.868V136.917L108.617 137.234Z" fill="#27BF83"/>
<path d="M109.879 136.441V137.393L110.513 137.075V136.124L109.879 136.441Z" fill="#27BF83"/>
<path d="M111.154 135.807V136.6L111.788 136.283V135.332L111.154 135.807Z" fill="#27BF83"/>
<path d="M112.576 135.015V135.807L113.21 135.49V134.539L112.576 135.015Z" fill="#27BF83"/>
<path d="M101.957 142.782V143.733L102.591 143.416V142.465L101.957 142.782Z" fill="#27BF83"/>
<path d="M103.229 142.148V142.941L103.863 142.624V141.673L103.229 142.148Z" fill="#27BF83"/>
<path d="M104.65 141.356V142.148L105.284 141.831V141.038L104.65 141.356Z" fill="#27BF83"/>
<path d="M105.922 140.563V141.514L106.556 141.038V140.246L105.922 140.563Z" fill="#27BF83"/>
<path d="M107.186 139.77V140.722L107.82 140.405V139.453L107.186 139.77Z" fill="#27BF83"/>
<path d="M108.617 138.978V139.929L109.251 139.612V138.661L108.617 138.978Z" fill="#27BF83"/>
<path d="M109.879 138.185V139.136L110.513 138.819V137.868L109.879 138.185Z" fill="#27BF83"/>
<path d="M111.154 137.551V138.344L111.788 138.027V137.075L111.154 137.551Z" fill="#27BF83"/>
<path d="M112.576 136.758V137.551L113.21 137.234V136.283L112.576 136.758Z" fill="#27BF83"/>
<path d="M118.127 134.539L114.322 136.759V133.746L118.127 131.686V134.539Z" fill="#27BF83"/>
<path d="M98.625 152.611C98.625 153.245 99.1005 153.562 99.7347 153.245C100.369 152.928 100.844 152.294 100.686 151.501C100.686 150.867 100.21 150.55 99.5762 150.867C98.9421 151.184 98.625 151.977 98.625 152.611Z" fill="#49E5A7"/>
<path d="M98.625 155.623C98.625 156.257 99.1005 156.574 99.7347 156.257C100.369 155.94 100.844 155.306 100.686 154.513C100.686 153.879 100.21 153.562 99.5762 153.879C98.9421 154.196 98.625 154.83 98.625 155.623Z" fill="#49E5A7"/>
<path d="M99.1016 152.611C99.1016 153.087 99.4186 153.245 99.7357 153.087C100.053 152.928 100.37 152.452 100.37 151.977C100.37 151.501 100.053 151.343 99.7357 151.501C99.4186 151.66 99.1016 152.135 99.1016 152.611Z" fill="#49E5A7"/>
<path d="M99.1016 155.306C99.1016 155.782 99.4186 155.94 99.7357 155.782C100.053 155.623 100.37 155.148 100.37 154.672C100.37 154.196 100.053 154.038 99.7357 154.196C99.4186 154.513 99.1016 154.989 99.1016 155.306Z" fill="#49E5A7"/>
<path d="M101.957 150.867V151.818L102.591 151.343V150.55L101.957 150.867Z" fill="#27BF83"/>
<path d="M103.229 150.075V151.026L103.863 150.55V149.758L103.229 150.075Z" fill="#27BF83"/>
<path d="M104.65 149.282V150.233L105.284 149.916V148.965L104.65 149.282Z" fill="#27BF83"/>
<path d="M105.922 148.489V149.44L106.556 149.123V148.172L105.922 148.489Z" fill="#27BF83"/>
<path d="M107.186 147.855V148.648L107.82 148.331V147.38L107.186 147.855Z" fill="#27BF83"/>
<path d="M108.617 147.063V147.855L109.251 147.538V146.587L108.617 147.063Z" fill="#27BF83"/>
<path d="M109.879 146.27V147.221L110.513 146.746V145.953L109.879 146.27Z" fill="#27BF83"/>
<path d="M111.154 145.477V146.429L111.788 145.953V145.16L111.154 145.477Z" fill="#27BF83"/>
<path d="M112.576 144.685V145.636L113.21 145.319V144.368L112.576 144.685Z" fill="#27BF83"/>
<path d="M101.957 152.611V153.562L102.591 153.087V152.294L101.957 152.611Z" fill="#27BF83"/>
<path d="M103.229 151.818V152.769L103.863 152.452V151.501L103.229 151.818Z" fill="#27BF83"/>
<path d="M104.65 151.026V151.977L105.284 151.66V150.709L104.65 151.026Z" fill="#27BF83"/>
<path d="M105.922 150.233V151.184L106.556 150.867V149.916L105.922 150.233Z" fill="#27BF83"/>
<path d="M107.186 149.599V150.392L107.82 150.075V149.123L107.186 149.599Z" fill="#27BF83"/>
<path d="M108.617 148.806V149.599L109.251 149.282V148.331L108.617 148.806Z" fill="#27BF83"/>
<path d="M109.879 148.014V148.965L110.513 148.489V147.697L109.879 148.014Z" fill="#27BF83"/>
<path d="M111.154 147.221V148.172L111.788 147.697V146.904L111.154 147.221Z" fill="#27BF83"/>
<path d="M112.576 146.428V147.38L113.21 147.062V146.111L112.576 146.428Z" fill="#27BF83"/>
<path d="M118.127 144.368L114.322 146.429V143.575L118.127 141.356V144.368Z" fill="#27BF83"/>
<path d="M98.625 162.44C98.625 163.074 99.1005 163.391 99.7347 163.074C100.369 162.757 100.844 162.123 100.686 161.33C100.686 160.696 100.21 160.379 99.5762 160.696C98.9421 161.013 98.625 161.647 98.625 162.44Z" fill="#49E5A7"/>
<path d="M98.625 165.293C98.625 165.927 99.1005 166.244 99.7347 165.927C100.369 165.61 100.844 164.976 100.686 164.184C100.686 163.55 100.21 163.233 99.5762 163.55C98.9421 163.867 98.625 164.659 98.625 165.293Z" fill="#49E5A7"/>
<path d="M99.1016 162.281C99.1016 162.757 99.4186 162.915 99.7357 162.757C100.053 162.598 100.37 162.123 100.37 161.647C100.37 161.172 100.053 161.013 99.7357 161.172C99.4186 161.33 99.1016 161.806 99.1016 162.281Z" fill="#49E5A7"/>
<path d="M99.1016 165.135C99.1016 165.61 99.4186 165.769 99.7357 165.61C100.053 165.452 100.37 164.976 100.37 164.501C100.37 164.025 100.053 163.867 99.7357 164.025C99.4186 164.184 99.1016 164.659 99.1016 165.135Z" fill="#49E5A7"/>
<path d="M101.957 160.538V161.489L102.591 161.172V160.221L101.957 160.538Z" fill="#27BF83"/>
<path d="M103.229 159.904V160.696L103.863 160.379V159.428L103.229 159.904Z" fill="#27BF83"/>
<path d="M104.65 159.111V159.903L105.284 159.586V158.635L104.65 159.111Z" fill="#27BF83"/>
<path d="M105.922 158.318V159.269L106.556 158.794V158.001L105.922 158.318Z" fill="#27BF83"/>
<path d="M107.186 157.526V158.477L107.82 158.001V157.208L107.186 157.526Z" fill="#27BF83"/>
<path d="M108.617 156.733V157.684L109.251 157.367V156.416L108.617 156.733Z" fill="#27BF83"/>
<path d="M109.879 155.94V156.891L110.513 156.574V155.623L109.879 155.94Z" fill="#27BF83"/>
<path d="M111.154 155.306V156.099L111.788 155.782V154.831L111.154 155.306Z" fill="#27BF83"/>
<path d="M112.576 154.514V155.306L113.21 154.989V154.038L112.576 154.514Z" fill="#27BF83"/>
<path d="M101.957 162.282V163.233L102.591 162.916V161.964L101.957 162.282Z" fill="#27BF83"/>
<path d="M103.229 161.647V162.44L103.863 162.123V161.172L103.229 161.647Z" fill="#27BF83"/>
<path d="M104.65 160.855V161.647L105.284 161.33V160.379L104.65 160.855Z" fill="#27BF83"/>
<path d="M105.922 160.062V161.013L106.556 160.538V159.745L105.922 160.062Z" fill="#27BF83"/>
<path d="M107.186 159.269V160.221L107.82 159.745V158.952L107.186 159.269Z" fill="#27BF83"/>
<path d="M108.617 158.477V159.428L109.251 159.111V158.16L108.617 158.477Z" fill="#27BF83"/>
<path d="M109.879 157.684V158.635L110.513 158.318V157.367L109.879 157.684Z" fill="#27BF83"/>
<path d="M111.154 157.05V157.843L111.788 157.526V156.575L111.154 157.05Z" fill="#27BF83"/>
<path d="M112.576 156.257V157.05L113.21 156.733V155.782L112.576 156.257Z" fill="#27BF83"/>
<path d="M118.127 154.038L114.322 156.257V153.245L118.127 151.184V154.038Z" fill="#27BF83"/>
<path d="M36.9668 105.37L66.7696 88.0912L89.1218 100.932L59.1604 118.211L36.9668 105.37Z" fill="#8AADFB"/>
<path d="M59.1621 118.211L89.1235 100.932V187.487L59.1621 204.766V118.211Z" fill="#B2CAFF"/>
<path d="M86.9055 104.736V177.658L61.3828 192.401V119.479L83.735 106.639L86.9055 104.736Z" fill="#3947BA"/>
<path d="M86.9055 177.658L78.028 173.695L61.3828 186.218V192.401L86.9055 177.658Z" fill="#3947BA"/>
<path d="M59.1604 118.211L36.9668 105.37V191.926L59.1604 204.766V118.211Z" fill="#6A89CF"/>
<path d="M63.5826 180.829V189.706L61.3633 188.438V179.561L63.5826 180.829Z" fill="#BCD5FF"/>
<path d="M86.8873 176.39L63.584 189.706V180.829L86.8873 167.354V176.39Z" fill="#E4F7FF"/>
<path d="M86.8859 167.354L63.5826 180.829L61.3633 179.56V178.451L83.7154 165.61L86.8859 167.354Z" fill="#9FB7DF"/>
<path d="M63.5826 171V179.878L61.3633 178.61V169.732L63.5826 171Z" fill="#BCD5FF"/>
<path d="M86.8873 166.561L63.584 179.878V171L86.8873 157.526V166.561Z" fill="#E4F7FF"/>
<path d="M86.8859 157.525L63.5826 171L61.3633 169.732V168.622L83.7154 155.782L86.8859 157.525Z" fill="#9FB7DF"/>
<path d="M63.5826 161.172V170.049L61.3633 168.781V159.903L63.5826 161.172Z" fill="#BCD5FF"/>
<path d="M86.8873 156.733L63.584 170.049V161.172L86.8873 147.697V156.733Z" fill="#E4F7FF"/>
<path d="M86.8859 147.697L63.5826 161.172L61.3633 159.903V158.794L83.7154 145.953L86.8859 147.697Z" fill="#9FB7DF"/>
<path d="M63.5826 151.343V160.221L61.3633 158.952V150.075L63.5826 151.343Z" fill="#BCD5FF"/>
<path d="M86.8873 146.904L63.584 160.379V151.343L86.8873 137.868V146.904Z" fill="#E4F7FF"/>
<path d="M86.8859 137.868L63.5826 151.343L61.3633 150.075V148.965L83.7154 136.125L86.8859 137.868Z" fill="#9FB7DF"/>
<path d="M63.5826 141.514V150.391L61.3633 149.123V140.246L63.5826 141.514Z" fill="#BCD5FF"/>
<path d="M86.8873 137.075L63.584 150.55V141.514L86.8873 128.039V137.075Z" fill="#E4F7FF"/>
<path d="M86.8859 128.039L63.5826 141.514L61.3633 140.246V139.136L83.7154 126.295L86.8859 128.039Z" fill="#9FB7DF"/>
<path d="M63.5826 131.686V140.722L61.3633 139.295V130.418L63.5826 131.686Z" fill="#BCD5FF"/>
<path d="M86.8873 127.247L63.584 140.722V131.686L86.8873 118.211V127.247Z" fill="#E4F7FF"/>
<path d="M86.8859 118.211L63.5826 131.686L61.3633 130.418V129.308L83.7154 116.468L86.8859 118.211Z" fill="#9FB7DF"/>
<path d="M63.5826 121.857V130.893L61.3633 129.467V120.589L63.5826 121.857Z" fill="#BCD5FF"/>
<path d="M86.8873 117.419L63.584 130.893V121.857L86.8873 108.383V117.419Z" fill="#E4F7FF"/>
<path d="M86.8859 108.383L63.5826 121.857L61.3633 120.589V119.479L83.7154 106.639L86.8859 108.383Z" fill="#9FB7DF"/>
<path d="M85.9518 116.626L64.5508 128.991V122.333L85.9518 109.968V116.626Z" fill="#E4F7FF"/>
<path d="M39.9766 111.712V159.745L56.6218 169.415V121.382L42.0374 112.98L39.9766 111.712Z" fill="#8BE8C2"/>
<path d="M39.9801 159.745V111.712L38.2363 110.76V160.696L56.6253 171.476V169.415L39.9801 159.745Z" fill="#437868"/>
<path d="M44.5742 162.44L56.6222 169.415V121.381L44.5742 114.406V162.44Z" fill="#77D1B6"/>
<path d="M39.9801 159.745L38.2363 160.696L56.6253 171.476V169.415L39.9801 159.745Z" fill="#437868"/>
<path d="M64.709 194.462V196.048L65.8186 195.414V193.828L64.709 194.462Z" fill="#3947BA"/>
<path d="M67.8789 192.719V194.304L68.9886 193.67V192.084L67.8789 192.719Z" fill="#3947BA"/>
<path d="M70.8887 190.975V192.401L71.9983 191.926V190.341L70.8887 190.975Z" fill="#3947BA"/>
<path d="M73.9062 189.072V190.658L75.0159 190.023V188.597L73.9062 189.072Z" fill="#3947BA"/>
<path d="M76.9121 187.328V188.914L78.0218 188.28V186.694L76.9121 187.328Z" fill="#3947BA"/>
<path d="M80.084 185.585V187.17L81.1937 186.536V184.951L80.084 185.585Z" fill="#3947BA"/>
<path d="M83.0977 183.841V185.426L84.2074 184.792V183.207L83.0977 183.841Z" fill="#3947BA"/>
<path d="M64.709 196.84V198.425L65.8186 197.791V196.206L64.709 196.84Z" fill="#3947BA"/>
<path d="M67.8789 195.096V196.682L68.9886 196.047V194.462L67.8789 195.096Z" fill="#3947BA"/>
<path d="M70.8887 193.352V194.779L71.9983 194.145V192.718L70.8887 193.352Z" fill="#3947BA"/>
<path d="M73.9062 191.45V193.035L75.0159 192.401V190.816L73.9062 191.45Z" fill="#3947BA"/>
<path d="M76.9121 189.706V191.291L78.0218 190.657V189.072L76.9121 189.706Z" fill="#3947BA"/>
<path d="M80.084 187.962V189.548L81.1937 188.914V187.328L80.084 187.962Z" fill="#3947BA"/>
<path d="M83.0977 186.219V187.804L84.2074 187.17V185.585L83.0977 186.219Z" fill="#3947BA"/>
<path d="M64.709 199.218V200.803L65.8186 200.169V198.584L64.709 199.218Z" fill="#3947BA"/>
<path d="M67.8789 197.474V199.059L68.9886 198.425V196.84L67.8789 197.474Z" fill="#3947BA"/>
<path d="M70.8887 195.73V197.157L71.9983 196.523V195.096L70.8887 195.73Z" fill="#3947BA"/>
<path d="M73.9062 193.828V195.413L75.0159 194.779V193.194L73.9062 193.828Z" fill="#3947BA"/>
<path d="M76.9121 192.084V193.669L78.0218 193.035V191.45L76.9121 192.084Z" fill="#3947BA"/>
<path d="M80.084 190.34V191.926L81.1937 191.291V189.706L80.084 190.34Z" fill="#3947BA"/>
<path d="M83.0977 188.596V190.182L84.2074 189.548V187.962L83.0977 188.596Z" fill="#3947BA"/>
<path d="M57.094 194.462V196.047L55.9844 195.413V193.828L57.094 194.462Z" fill="#3947BA"/>
<path d="M54.0824 192.719V194.304L52.9727 193.67V192.084L54.0824 192.719Z" fill="#3947BA"/>
<path d="M51.0667 190.975V192.401L49.957 191.926V190.341L51.0667 190.975Z" fill="#3947BA"/>
<path d="M48.0609 189.072V190.658L46.9512 190.023V188.597L48.0609 189.072Z" fill="#3947BA"/>
<path d="M44.8909 187.328V188.914L43.7812 188.28V186.694L44.8909 187.328Z" fill="#3947BA"/>
<path d="M41.8733 185.585V187.17L40.7637 186.536V184.951L41.8733 185.585Z" fill="#3947BA"/>
<path d="M38.8636 183.841V185.426L37.7539 184.792V183.207L38.8636 183.841Z" fill="#3947BA"/>
<path d="M57.094 196.84V198.425L55.9844 197.791V196.206L57.094 196.84Z" fill="#3947BA"/>
<path d="M54.0824 195.096V196.682L52.9727 196.047V194.462L54.0824 195.096Z" fill="#3947BA"/>
<path d="M51.0667 193.352V194.779L49.957 194.145V192.718L51.0667 193.352Z" fill="#3947BA"/>
<path d="M48.0609 191.45V193.035L46.9512 192.401V190.816L48.0609 191.45Z" fill="#3947BA"/>
<path d="M44.8909 189.706V191.291L43.7812 190.657V189.072L44.8909 189.706Z" fill="#3947BA"/>
<path d="M41.8733 187.962V189.548L40.7637 188.914V187.328L41.8733 187.962Z" fill="#3947BA"/>
<path d="M38.8636 186.219V187.804L37.7539 187.17V185.585L38.8636 186.219Z" fill="#3947BA"/>
<path d="M57.094 199.218V200.803L55.9844 200.169V198.584L57.094 199.218Z" fill="#3947BA"/>
<path d="M54.0824 197.474V199.059L52.9727 198.425V196.84L54.0824 197.474Z" fill="#3947BA"/>
<path d="M51.0667 195.73V197.157L49.957 196.523V195.096L51.0667 195.73Z" fill="#3947BA"/>
<path d="M48.0609 193.828V195.413L46.9512 194.779V193.194L48.0609 193.828Z" fill="#3947BA"/>
<path d="M44.8909 192.084V193.669L43.7812 193.035V191.45L44.8909 192.084Z" fill="#3947BA"/>
<path d="M41.8733 190.34V191.926L40.7637 191.291V189.706L41.8733 190.34Z" fill="#3947BA"/>
<path d="M38.8636 188.596V190.182L37.7539 189.548V187.962L38.8636 188.596Z" fill="#3947BA"/>
<path d="M65.502 123.918C65.502 124.552 65.9775 124.869 66.6116 124.552C67.2457 124.235 67.7213 123.601 67.5628 122.808C67.5628 122.174 67.0872 121.857 66.4531 122.174C65.9775 122.491 65.502 123.284 65.502 123.918Z" fill="#49E5A7"/>
<path d="M65.502 126.771C65.502 127.405 65.9775 127.722 66.6116 127.405C67.2457 127.088 67.7213 126.454 67.5628 125.661C67.5628 125.027 67.0872 124.71 66.4531 125.027C65.9775 125.503 65.502 126.137 65.502 126.771Z" fill="#49E5A7"/>
<path d="M66.1387 123.759C66.1387 124.235 66.4557 124.394 66.7728 124.235C67.0898 124.077 67.4069 123.601 67.4069 123.125C67.4069 122.65 67.0898 122.491 66.7728 122.65C66.2972 122.967 66.1387 123.442 66.1387 123.759Z" fill="#49E5A7"/>
<path d="M66.1387 126.613C66.1387 127.088 66.4557 127.247 66.7728 127.088C67.0898 126.93 67.4069 126.454 67.4069 125.979C67.4069 125.503 67.0898 125.345 66.7728 125.503C66.2972 125.82 66.1387 126.296 66.1387 126.613Z" fill="#49E5A7"/>
<path d="M68.8262 122.174V122.967L69.6188 122.65V121.857L68.8262 122.174Z" fill="#27BF83"/>
<path d="M70.2539 121.382V122.333L70.888 121.857V121.065L70.2539 121.382Z" fill="#27BF83"/>
<path d="M71.5195 120.589V121.54L72.1536 121.223V120.272L71.5195 120.589Z" fill="#27BF83"/>
<path d="M72.791 119.797V120.748L73.5836 120.431V119.48L72.791 119.797Z" fill="#27BF83"/>
<path d="M74.2168 119.004V119.955L74.8509 119.638V118.687L74.2168 119.004Z" fill="#27BF83"/>
<path d="M75.4863 118.37V119.162L76.1204 118.845V117.894L75.4863 118.37Z" fill="#27BF83"/>
<path d="M76.9102 117.577V118.37L77.5442 118.053V117.26L76.9102 117.577Z" fill="#27BF83"/>
<path d="M78.1816 116.784V117.735L78.8157 117.26V116.467L78.1816 116.784Z" fill="#27BF83"/>
<path d="M79.4453 115.992V116.943L80.0794 116.626V115.675L79.4453 115.992Z" fill="#27BF83"/>
<path d="M68.8262 123.918V124.869L69.6188 124.394V123.601L68.8262 123.918Z" fill="#27BF83"/>
<path d="M70.2539 123.125V124.076L70.888 123.601V122.808L70.2539 123.125Z" fill="#27BF83"/>
<path d="M71.5195 122.333V123.284L72.1536 122.967V122.016L71.5195 122.333Z" fill="#27BF83"/>
<path d="M72.791 121.54V122.491L73.5836 122.174V121.223L72.791 121.54Z" fill="#27BF83"/>
<path d="M74.2168 120.906V121.699L74.8509 121.382V120.43L74.2168 120.906Z" fill="#27BF83"/>
<path d="M75.4863 120.113V120.906L76.1204 120.589V119.638L75.4863 120.113Z" fill="#27BF83"/>
<path d="M76.9102 119.321V120.113L77.5442 119.796V119.004L76.9102 119.321Z" fill="#27BF83"/>
<path d="M78.1816 118.528V119.479L78.8157 119.003V118.211L78.1816 118.528Z" fill="#27BF83"/>
<path d="M79.4453 117.735V118.687L80.0794 118.369V117.418L79.4453 117.735Z" fill="#27BF83"/>
<path d="M84.9957 115.516L81.3496 117.736V114.882L84.9957 112.663V115.516Z" fill="#27BF83"/>
<path d="M65.502 133.588C65.502 134.222 65.9775 134.539 66.6116 134.222C67.2457 133.905 67.7213 133.271 67.5628 132.478C67.5628 131.844 67.0872 131.527 66.4531 131.844C65.9775 132.32 65.502 132.954 65.502 133.588Z" fill="#49E5A7"/>
<path d="M65.502 136.6C65.502 137.234 65.9775 137.551 66.6116 137.234C67.2457 136.917 67.7213 136.283 67.5628 135.49C67.5628 134.856 67.0872 134.539 66.4531 134.856C65.9775 135.173 65.502 135.966 65.502 136.6Z" fill="#49E5A7"/>
<path d="M66.1387 133.588C66.1387 134.064 66.4557 134.222 66.7728 134.064C67.0898 133.905 67.4069 133.429 67.4069 132.954C67.4069 132.478 67.0898 132.32 66.7728 132.478C66.2972 132.637 66.1387 133.112 66.1387 133.588Z" fill="#49E5A7"/>
<path d="M66.1387 136.441C66.1387 136.917 66.4557 137.075 66.7728 136.917C67.0898 136.758 67.4069 136.283 67.4069 135.807C67.4069 135.332 67.0898 135.173 66.7728 135.332C66.2972 135.49 66.1387 135.966 66.1387 136.441Z" fill="#49E5A7"/>
<path d="M68.8262 131.845V132.796L69.6188 132.479V131.527L68.8262 131.845Z" fill="#27BF83"/>
<path d="M70.2539 131.052V132.003L70.888 131.686V130.735L70.2539 131.052Z" fill="#27BF83"/>
<path d="M71.5195 130.418V131.21L72.1536 130.893V129.942L71.5195 130.418Z" fill="#27BF83"/>
<path d="M72.791 129.625V130.418L73.5836 130.101V129.308L72.791 129.625Z" fill="#27BF83"/>
<path d="M74.2168 128.832V129.784L74.8509 129.308V128.515L74.2168 128.832Z" fill="#27BF83"/>
<path d="M75.4863 128.04V128.991L76.1204 128.674V127.723L75.4863 128.04Z" fill="#27BF83"/>
<path d="M76.9102 127.247V128.198L77.5442 127.881V126.93L76.9102 127.247Z" fill="#27BF83"/>
<path d="M78.1816 126.454V127.405L78.8157 127.088V126.137L78.1816 126.454Z" fill="#27BF83"/>
<path d="M79.4453 125.82V126.613L80.0794 126.296V125.345L79.4453 125.82Z" fill="#27BF83"/>
<path d="M68.8262 133.588V134.539L69.6188 134.222V133.271L68.8262 133.588Z" fill="#27BF83"/>
<path d="M70.2539 132.795V133.747L70.888 133.43V132.478L70.2539 132.795Z" fill="#27BF83"/>
<path d="M71.5195 132.161V132.954L72.1536 132.637V131.686L71.5195 132.161Z" fill="#27BF83"/>
<path d="M72.791 131.369V132.161L73.5836 131.844V131.052L72.791 131.369Z" fill="#27BF83"/>
<path d="M74.2168 130.576V131.527L74.8509 131.052V130.259L74.2168 130.576Z" fill="#27BF83"/>
<path d="M75.4863 129.783V130.735L76.1204 130.418V129.466L75.4863 129.783Z" fill="#27BF83"/>
<path d="M76.9102 128.991V129.942L77.5442 129.625V128.674L76.9102 128.991Z" fill="#27BF83"/>
<path d="M78.1816 128.198V129.149L78.8157 128.832V127.881L78.1816 128.198Z" fill="#27BF83"/>
<path d="M79.4453 127.564V128.357L80.0794 128.04V127.089L79.4453 127.564Z" fill="#27BF83"/>
<path d="M84.9957 125.345L81.3496 127.405V124.552L84.9957 122.491V125.345Z" fill="#27BF83"/>
<path d="M65.502 143.417C65.502 144.051 65.9775 144.368 66.6116 144.051C67.2457 143.734 67.7213 143.1 67.5628 142.307C67.5628 141.673 67.0872 141.356 66.4531 141.673C65.9775 141.99 65.502 142.783 65.502 143.417Z" fill="#49E5A7"/>
<path d="M65.502 146.27C65.502 146.905 65.9775 147.222 66.6116 146.904C67.2457 146.587 67.7213 145.953 67.5628 145.161C67.5628 144.527 67.0872 144.21 66.4531 144.527C65.9775 145.002 65.502 145.636 65.502 146.27Z" fill="#49E5A7"/>
<path d="M66.1387 143.258C66.1387 143.734 66.4557 143.892 66.7728 143.734C67.0898 143.575 67.4069 143.1 67.4069 142.624C67.4069 142.149 67.0898 141.99 66.7728 142.149C66.2972 142.466 66.1387 142.941 66.1387 143.258Z" fill="#49E5A7"/>
<path d="M66.1387 146.112C66.1387 146.587 66.4557 146.746 66.7728 146.587C67.0898 146.429 67.4069 145.953 67.4069 145.478C67.4069 145.002 67.0898 144.843 66.7728 145.002C66.2972 145.319 66.1387 145.795 66.1387 146.112Z" fill="#49E5A7"/>
<path d="M68.8262 141.673V142.466L69.6188 142.149V141.356L68.8262 141.673Z" fill="#27BF83"/>
<path d="M70.2539 140.88V141.832L70.888 141.356V140.563L70.2539 140.88Z" fill="#27BF83"/>
<path d="M71.5195 140.088V141.039L72.1536 140.722V139.771L71.5195 140.088Z" fill="#27BF83"/>
<path d="M72.791 139.295V140.247L73.5836 139.93V138.978L72.791 139.295Z" fill="#27BF83"/>
<path d="M74.2168 138.503V139.454L74.8509 139.137V138.186L74.2168 138.503Z" fill="#27BF83"/>
<path d="M75.4863 137.869V138.661L76.1204 138.344V137.393L75.4863 137.869Z" fill="#27BF83"/>
<path d="M76.9102 137.076V137.869L77.5442 137.552V136.6L76.9102 137.076Z" fill="#27BF83"/>
<path d="M78.1816 136.283V137.234L78.8157 136.759V135.966L78.1816 136.283Z" fill="#27BF83"/>
<path d="M79.4453 135.491V136.442L80.0794 135.966V135.174L79.4453 135.491Z" fill="#27BF83"/>
<path d="M68.8262 143.417V144.21L69.6188 143.892V143.1L68.8262 143.417Z" fill="#27BF83"/>
<path d="M70.2539 142.624V143.575L70.888 143.1V142.307L70.2539 142.624Z" fill="#27BF83"/>
<path d="M71.5195 141.832V142.783L72.1536 142.466V141.515L71.5195 141.832Z" fill="#27BF83"/>
<path d="M72.791 141.039V141.99L73.5836 141.673V140.722L72.791 141.039Z" fill="#27BF83"/>
<path d="M74.2168 140.246V141.197L74.8509 140.88V139.929L74.2168 140.246Z" fill="#27BF83"/>
<path d="M75.4863 139.612V140.405L76.1204 140.088V139.137L75.4863 139.612Z" fill="#27BF83"/>
<path d="M76.9102 138.82V139.612L77.5442 139.295V138.503L76.9102 138.82Z" fill="#27BF83"/>
<path d="M78.1816 138.027V138.978L78.8157 138.502V137.71L78.1816 138.027Z" fill="#27BF83"/>
<path d="M79.4453 137.234V138.185L80.0794 137.868V136.917L79.4453 137.234Z" fill="#27BF83"/>
<path d="M84.9957 135.015L81.3496 137.234V134.222L84.9957 132.161V135.015Z" fill="#27BF83"/>
<path d="M65.502 153.087C65.502 153.721 65.9775 154.038 66.6116 153.721C67.2457 153.404 67.7213 152.77 67.5628 151.977C67.5628 151.343 67.0872 151.026 66.4531 151.343C65.9775 151.819 65.502 152.453 65.502 153.087Z" fill="#49E5A7"/>
<path d="M65.502 156.099C65.502 156.733 65.9775 157.05 66.6116 156.733C67.2457 156.416 67.7213 155.782 67.5628 154.989C67.5628 154.355 67.0872 154.038 66.4531 154.355C65.9775 154.672 65.502 155.465 65.502 156.099Z" fill="#49E5A7"/>
<path d="M66.1387 153.087C66.1387 153.563 66.4557 153.721 66.7728 153.563C67.0898 153.404 67.4069 152.928 67.4069 152.453C67.4069 151.977 67.0898 151.819 66.7728 151.977C66.2972 152.136 66.1387 152.611 66.1387 153.087Z" fill="#49E5A7"/>
<path d="M66.1387 155.94C66.1387 156.416 66.4557 156.574 66.7728 156.416C67.0898 156.257 67.4069 155.782 67.4069 155.306C67.4069 154.831 67.0898 154.672 66.7728 154.831C66.2972 154.989 66.1387 155.465 66.1387 155.94Z" fill="#49E5A7"/>
<path d="M68.8262 151.343V152.294L69.6188 151.977V151.026L68.8262 151.343Z" fill="#27BF83"/>
<path d="M70.2539 150.55V151.501L70.888 151.184V150.233L70.2539 150.55Z" fill="#27BF83"/>
<path d="M71.5195 149.916V150.709L72.1536 150.392V149.441L71.5195 149.916Z" fill="#27BF83"/>
<path d="M72.791 149.124V149.916L73.5836 149.599V148.648L72.791 149.124Z" fill="#27BF83"/>
<path d="M74.2168 148.331V149.282L74.8509 148.807V148.014L74.2168 148.331Z" fill="#27BF83"/>
<path d="M75.4863 147.538V148.489L76.1204 148.014V147.221L75.4863 147.538Z" fill="#27BF83"/>
<path d="M76.9102 146.746V147.697L77.5442 147.38V146.429L76.9102 146.746Z" fill="#27BF83"/>
<path d="M78.1816 145.953V146.904L78.8157 146.587V145.636L78.1816 145.953Z" fill="#27BF83"/>
<path d="M79.4453 145.319V146.112L80.0794 145.795V144.843L79.4453 145.319Z" fill="#27BF83"/>
<path d="M68.8262 153.087V154.038L69.6188 153.721V152.77L68.8262 153.087Z" fill="#27BF83"/>
<path d="M70.2539 152.294V153.246L70.888 152.928V151.977L70.2539 152.294Z" fill="#27BF83"/>
<path d="M71.5195 151.66V152.453L72.1536 152.136V151.185L71.5195 151.66Z" fill="#27BF83"/>
<path d="M72.791 150.868V151.66L73.5836 151.343V150.551L72.791 150.868Z" fill="#27BF83"/>
<path d="M74.2168 150.075V151.026L74.8509 150.551V149.758L74.2168 150.075Z" fill="#27BF83"/>
<path d="M75.4863 149.282V150.233L76.1204 149.916V148.965L75.4863 149.282Z" fill="#27BF83"/>
<path d="M76.9102 148.49V149.441L77.5442 149.124V148.173L76.9102 148.49Z" fill="#27BF83"/>
<path d="M78.1816 147.697V148.648L78.8157 148.331V147.38L78.1816 147.697Z" fill="#27BF83"/>
<path d="M79.4453 147.063V147.856L80.0794 147.539V146.587L79.4453 147.063Z" fill="#27BF83"/>
<path d="M84.9957 144.844L81.3496 146.904V144.051L84.9957 141.832V144.844Z" fill="#27BF83"/>
<path d="M65.502 162.915C65.502 163.549 65.9775 163.866 66.6116 163.549C67.2457 163.232 67.7213 162.598 67.5628 161.806C67.5628 161.171 67.0872 160.854 66.4531 161.172C65.9775 161.489 65.502 162.281 65.502 162.915Z" fill="#49E5A7"/>
<path d="M65.502 165.769C65.502 166.403 65.9775 166.72 66.6116 166.403C67.2457 166.086 67.7213 165.452 67.5628 164.659C67.5628 164.025 67.0872 163.708 66.4531 164.025C65.9775 164.501 65.502 165.135 65.502 165.769Z" fill="#49E5A7"/>
<path d="M66.1387 162.757C66.1387 163.232 66.4557 163.391 66.7728 163.232C67.0898 163.074 67.4069 162.598 67.4069 162.123C67.4069 161.647 67.0898 161.489 66.7728 161.647C66.2972 161.964 66.1387 162.44 66.1387 162.757Z" fill="#49E5A7"/>
<path d="M66.1387 165.61C66.1387 166.086 66.4557 166.244 66.7728 166.086C67.0898 165.927 67.4069 165.452 67.4069 164.976C67.4069 164.5 67.0898 164.342 66.7728 164.5C66.2972 164.817 66.1387 165.293 66.1387 165.61Z" fill="#49E5A7"/>
<path d="M68.8262 161.172V161.965L69.6188 161.648V160.697L68.8262 161.172Z" fill="#27BF83"/>
<path d="M70.2539 160.379V161.33L70.888 160.855V160.062L70.2539 160.379Z" fill="#27BF83"/>
<path d="M71.5195 159.587V160.538L72.1536 160.062V159.27L71.5195 159.587Z" fill="#27BF83"/>
<path d="M72.791 158.794V159.745L73.5836 159.428V158.477L72.791 158.794Z" fill="#27BF83"/>
<path d="M74.2168 158.001V158.953L74.8509 158.635V157.684L74.2168 158.001Z" fill="#27BF83"/>
<path d="M75.4863 157.367V158.16L76.1204 157.843V156.892L75.4863 157.367Z" fill="#27BF83"/>
<path d="M76.9102 156.575V157.367L77.5442 157.05V156.099L76.9102 156.575Z" fill="#27BF83"/>
<path d="M78.1816 155.782V156.733L78.8157 156.257V155.465L78.1816 155.782Z" fill="#27BF83"/>
<path d="M79.4453 154.989V155.94L80.0794 155.465V154.672L79.4453 154.989Z" fill="#27BF83"/>
<path d="M68.8262 162.915V163.708L69.6188 163.391V162.598L68.8262 162.915Z" fill="#27BF83"/>
<path d="M70.2539 162.123V163.074L70.888 162.598V161.806L70.2539 162.123Z" fill="#27BF83"/>
<path d="M71.5195 161.33V162.281L72.1536 161.964V161.013L71.5195 161.33Z" fill="#27BF83"/>
<path d="M72.791 160.538V161.489L73.5836 161.172V160.221L72.791 160.538Z" fill="#27BF83"/>
<path d="M74.2168 159.745V160.696L74.8509 160.379V159.428L74.2168 159.745Z" fill="#27BF83"/>
<path d="M75.4863 159.111V159.903L76.1204 159.586V158.635L75.4863 159.111Z" fill="#27BF83"/>
<path d="M76.9102 158.318V159.111L77.5442 158.794V157.843L76.9102 158.318Z" fill="#27BF83"/>
<path d="M78.1816 157.525V158.476L78.8157 158.001V157.208L78.1816 157.525Z" fill="#27BF83"/>
<path d="M79.4453 156.733V157.684L80.0794 157.208V156.416L79.4453 156.733Z" fill="#27BF83"/>
<path d="M84.9957 154.513L81.3496 156.733V153.721L84.9957 151.66V154.513Z" fill="#27BF83"/>
<path d="M65.502 172.585C65.502 173.219 65.9775 173.536 66.6116 173.219C67.2457 172.902 67.7213 172.268 67.5628 171.475C67.5628 170.841 67.0872 170.524 66.4531 170.841C65.9775 171.317 65.502 171.951 65.502 172.585Z" fill="#49E5A7"/>
<path d="M65.502 175.597C65.502 176.231 65.9775 176.548 66.6116 176.231C67.2457 175.914 67.7213 175.28 67.5628 174.488C67.5628 173.853 67.0872 173.536 66.4531 173.854C65.9775 174.171 65.502 174.963 65.502 175.597Z" fill="#49E5A7"/>
<path d="M66.1387 172.585C66.1387 173.061 66.4557 173.219 66.7728 173.061C67.0898 172.902 67.4069 172.427 67.4069 171.951C67.4069 171.476 67.0898 171.317 66.7728 171.476C66.2972 171.634 66.1387 172.11 66.1387 172.585Z" fill="#49E5A7"/>
<path d="M66.1387 175.439C66.1387 175.914 66.4557 176.073 66.7728 175.914C67.0898 175.756 67.4069 175.28 67.4069 174.805C67.4069 174.329 67.0898 174.17 66.7728 174.329C66.2972 174.487 66.1387 174.963 66.1387 175.439Z" fill="#49E5A7"/>
<path d="M68.8262 170.842V171.793L69.6188 171.476V170.525L68.8262 170.842Z" fill="#27BF83"/>
<path d="M70.2539 170.049V171L70.888 170.683V169.732L70.2539 170.049Z" fill="#27BF83"/>
<path d="M71.5195 169.415V170.207L72.1536 169.89V168.939L71.5195 169.415Z" fill="#27BF83"/>
<path d="M72.791 168.622V169.415L73.5836 169.098V168.147L72.791 168.622Z" fill="#27BF83"/>
<path d="M74.2168 167.83V168.781L74.8509 168.305V167.513L74.2168 167.83Z" fill="#27BF83"/>
<path d="M75.4863 167.037V167.988L76.1204 167.512V166.72L75.4863 167.037Z" fill="#27BF83"/>
<path d="M76.9102 166.244V167.196L77.5442 166.879V165.927L76.9102 166.244Z" fill="#27BF83"/>
<path d="M78.1816 165.451V166.403L78.8157 166.086V165.134L78.1816 165.451Z" fill="#27BF83"/>
<path d="M79.4453 164.818V165.61L80.0794 165.293V164.342L79.4453 164.818Z" fill="#27BF83"/>
<path d="M68.8262 172.585V173.536L69.6188 173.219V172.268L68.8262 172.585Z" fill="#27BF83"/>
<path d="M70.2539 171.793V172.744L70.888 172.427V171.476L70.2539 171.793Z" fill="#27BF83"/>
<path d="M71.5195 171.159V171.951L72.1536 171.634V170.683L71.5195 171.159Z" fill="#27BF83"/>
<path d="M72.791 170.366V171.159L73.5836 170.842V169.891L72.791 170.366Z" fill="#27BF83"/>
<path d="M74.2168 169.573V170.525L74.8509 170.049V169.256L74.2168 169.573Z" fill="#27BF83"/>
<path d="M75.4863 168.781V169.732L76.1204 169.256V168.464L75.4863 168.781Z" fill="#27BF83"/>
<path d="M76.9102 167.988V168.939L77.5442 168.622V167.671L76.9102 167.988Z" fill="#27BF83"/>
<path d="M78.1816 167.195V168.146L78.8157 167.829V166.878L78.1816 167.195Z" fill="#27BF83"/>
<path d="M79.4453 166.561V167.354L80.0794 167.037V166.086L79.4453 166.561Z" fill="#27BF83"/>
<path d="M84.9957 164.342L81.3496 166.403V163.549L84.9957 161.33V164.342Z" fill="#27BF83"/>
<path d="M65.502 182.414C65.502 183.048 65.9775 183.365 66.6116 183.048C67.2457 182.731 67.7213 182.097 67.5628 181.304C67.5628 180.67 67.0872 180.353 66.4531 180.67C65.9775 180.987 65.502 181.78 65.502 182.414Z" fill="#49E5A7"/>
<path d="M65.502 185.268C65.502 185.902 65.9775 186.219 66.6116 185.902C67.2457 185.585 67.7213 184.951 67.5628 184.158C67.5628 183.524 67.0872 183.207 66.4531 183.524C65.9775 184 65.502 184.634 65.502 185.268Z" fill="#49E5A7"/>
<path d="M66.1387 182.256C66.1387 182.731 66.4557 182.89 66.7728 182.731C67.0898 182.573 67.4069 182.097 67.4069 181.622C67.4069 181.146 67.0898 180.987 66.7728 181.146C66.2972 181.463 66.1387 181.939 66.1387 182.256Z" fill="#49E5A7"/>
<path d="M66.1387 185.109C66.1387 185.585 66.4557 185.743 66.7728 185.585C67.0898 185.426 67.4069 184.951 67.4069 184.475C67.4069 183.999 67.0898 183.841 66.7728 183.999C66.2972 184.316 66.1387 184.792 66.1387 185.109Z" fill="#49E5A7"/>
<path d="M68.8262 180.671V181.463L69.6188 181.146V180.195L68.8262 180.671Z" fill="#27BF83"/>
<path d="M70.2539 179.878V180.829L70.888 180.353V179.561L70.2539 179.878Z" fill="#27BF83"/>
<path d="M71.5195 179.085V180.036L72.1536 179.561V178.768L71.5195 179.085Z" fill="#27BF83"/>
<path d="M72.791 178.293V179.244L73.5836 178.927V177.976L72.791 178.293Z" fill="#27BF83"/>
<path d="M74.2168 177.5V178.451L74.8509 178.134V177.183L74.2168 177.5Z" fill="#27BF83"/>
<path d="M75.4863 176.866V177.659L76.1204 177.341V176.39L75.4863 176.866Z" fill="#27BF83"/>
<path d="M76.9102 176.073V176.866L77.5442 176.549V175.598L76.9102 176.073Z" fill="#27BF83"/>
<path d="M78.1816 175.28V176.232L78.8157 175.756V174.963L78.1816 175.28Z" fill="#27BF83"/>
<path d="M79.4453 174.488V175.439L80.0794 174.964V174.171L79.4453 174.488Z" fill="#27BF83"/>
<path d="M68.8262 182.414V183.207L69.6188 182.89V181.939L68.8262 182.414Z" fill="#27BF83"/>
<path d="M70.2539 181.621V182.572L70.888 182.097V181.304L70.2539 181.621Z" fill="#27BF83"/>
<path d="M71.5195 180.829V181.78L72.1536 181.304V180.512L71.5195 180.829Z" fill="#27BF83"/>
<path d="M72.791 180.036V180.987L73.5836 180.67V179.719L72.791 180.036Z" fill="#27BF83"/>
<path d="M74.2168 179.243V180.195L74.8509 179.878V178.926L74.2168 179.243Z" fill="#27BF83"/>
<path d="M75.4863 178.609V179.402L76.1204 179.085V178.134L75.4863 178.609Z" fill="#27BF83"/>
<path d="M76.9102 177.817V178.609L77.5442 178.292V177.341L76.9102 177.817Z" fill="#27BF83"/>
<path d="M78.1816 177.024V177.975L78.8157 177.499V176.707L78.1816 177.024Z" fill="#27BF83"/>
<path d="M79.4453 176.231V177.183L80.0794 176.707V175.914L79.4453 176.231Z" fill="#27BF83"/>
<path d="M84.9957 174.012L81.3496 176.232V173.22L84.9957 171.159V174.012Z" fill="#27BF83"/>
<defs>
<linearGradient id="paint0_linear_251_15887" x1="257.194" y1="128.597" x2="0" y2="128.597" gradientUnits="userSpaceOnUse">
<stop stop-color="#4A7CF2" stop-opacity="0"/>
<stop offset="0.455" stop-color="#4A7CF2" stop-opacity="0.05"/>
<stop offset="1" stop-color="#4A7CF2" stop-opacity="0.1"/>
</linearGradient>
</defs>
</svg>
