<svg width="200" height="276" viewBox="0 0 200 276" fill="none" xmlns="http://www.w3.org/2000/svg">
<path d="M115.033 127.173L114.592 155.242L162.5 184.927L164.263 183.898L164.998 137.607C164.998 134.668 163.528 132.022 161.03 130.553L136.341 116.298C136.341 114.388 135.754 112.477 134.578 111.155C133.99 110.42 133.255 109.685 132.373 109.244L119.882 102.043C119.294 101.749 118.706 101.602 118.119 101.602C117.825 101.602 117.384 101.749 117.09 101.896C116.943 102.043 115.033 102.925 114.886 103.072C114.739 103.219 114.592 103.366 114.739 103.366C114.886 103.513 115.326 103.66 115.473 104.101C115.473 104.248 115.473 104.248 115.473 104.394L115.326 116.592V119.972L115.033 127.173Z" fill="#5677C4"/>
<path d="M161.471 130.846L159.707 131.875L134.431 117.179L136.194 116.151L160.883 130.406C161.177 130.7 161.324 130.846 161.471 130.846Z" fill="#4A6DBD"/>
<path d="M114.297 103.513L115.325 104.1L130.756 113.065L134.43 111.007C133.842 110.273 133.107 109.538 132.225 109.097L119.734 101.896C119.146 101.602 118.558 101.455 117.97 101.455L114.737 103.219L114.297 103.513Z" fill="#4A6DBD"/>
<path d="M117.826 102.925L130.317 110.126C132.816 111.595 134.432 114.388 134.285 117.18L158.974 131.435C161.472 132.904 163.089 135.549 162.942 138.489L162.354 184.78L112.829 156.27L113.564 105.423C113.564 103.219 115.916 101.896 117.826 102.925Z" fill="#799FF7"/>
<path d="M111.354 105.423L161.613 180.665L161.319 133.933L111.648 105.276L111.354 105.423Z" fill="#7DD3FF"/>
<path d="M111.506 152.155L161.324 180.812L161.03 134.227L111.359 105.423L111.506 152.155Z" fill="#CDEEFF"/>
<path d="M110.771 151.862L161.324 180.812L161.177 164.059L159.414 136.578L111.506 108.95L110.771 151.862Z" fill="#7DD3FF"/>
<path d="M110.768 151.862L160.439 180.518L157.941 136.872L108.27 108.215L110.768 151.862Z" fill="#CDEEFF"/>
<path d="M104.447 110.42L159.703 181.106L154.56 138.929L104.741 110.273L104.447 110.42Z" fill="#7DD3FF"/>
<path d="M109.74 152.596L159.412 181.4L154.122 139.223L104.45 110.419L109.74 152.596Z" fill="#CDEEFF"/>
<path d="M159.412 181.253L114.296 155.242L108.565 129.083L105.185 114.975L126.053 127.026L126.935 130.112L155.003 146.277L155.738 152.303L159.412 181.253Z" fill="#9AA2FF"/>
<path d="M103.862 118.796C104.155 118.943 104.449 119.09 104.596 119.531L105.037 121.441L106.948 130.112L112.826 156.27L131.343 166.998L160.881 186.397L162.645 185.074L160.146 175.522L153.533 150.245C152.945 148.188 151.623 146.424 149.712 145.396L125.464 131.435L124.877 128.936C124.73 127.908 124.289 127.026 123.701 126.144C123.113 125.115 122.084 124.381 121.056 123.793L108.858 116.739C108.417 116.445 107.976 116.298 107.389 116.298C106.801 116.298 106.213 116.445 105.772 116.739C105.478 116.886 103.862 118.061 103.568 118.502C103.421 118.502 103.568 118.649 103.862 118.796Z" fill="#5677C4"/>
<path d="M149.567 145.101C149.861 145.248 150.302 145.542 150.596 145.836L148.832 147.159L123.556 132.463L125.319 131.141L149.567 145.101Z" fill="#4A6DBD"/>
<path d="M103.868 118.796C104.162 118.943 104.456 119.09 104.603 119.531L105.043 121.442L119.004 129.524L123.707 125.85C123.119 124.822 122.091 124.087 121.062 123.499L108.864 116.445C108.423 116.151 107.983 116.004 107.395 116.004L103.868 118.796Z" fill="#4A6DBD"/>
<path d="M107.097 117.767C104.893 116.445 102.247 118.502 102.835 120.853L105.186 131.434L111.065 157.593L129.581 168.321L147.51 178.608L160.736 186.25L158.238 176.697L151.625 151.421C151.037 149.363 149.714 147.6 147.804 146.424L123.556 132.463L122.968 129.965C122.527 127.76 121.058 125.85 119.147 124.821L107.097 117.767Z" fill="#799FF7"/>
<path d="M105.186 131.435L111.065 157.593L160.736 186.25L158.238 176.697C148.392 158.328 120.176 139.958 105.186 131.435Z" fill="#6E90DF"/>
<path d="M137.075 167.88C138.398 167.88 139.573 167.586 140.455 166.852C142.219 165.676 142.806 163.325 142.366 160.386L141.337 160.533C141.778 163.031 141.337 164.941 139.867 165.97C137.81 167.44 134.283 166.852 130.315 164.5C123.114 160.239 116.06 151.274 114.738 144.661C114.15 142.016 114.738 139.959 116.207 138.93C118.118 137.607 121.498 138.048 125.172 140.252L125.612 139.371C121.498 136.872 117.824 136.432 115.619 138.048C113.856 139.371 113.121 141.722 113.709 144.808C115.031 151.715 122.232 160.826 129.727 165.235C132.519 167.146 135.018 167.88 137.075 167.88Z" fill="#49E5A7"/>
<path d="M128.113 152.45L139.723 159.357C140.898 165.088 136.637 166.705 130.464 163.031C124.292 159.357 118.267 151.715 117.238 146.131C116.209 140.546 120.03 138.93 126.056 142.31L128.113 152.45Z" fill="#49E5A7"/>
<path d="M59.7718 181.253L100.332 204.766V189.042L59.7718 165.676V181.253Z" fill="#C7D8EA"/>
<path d="M127.518 189.042L100.33 204.766V189.042L127.518 173.317V189.042Z" fill="#597992"/>
<path d="M59.7718 169.937C59.7718 169.937 87.6937 187.131 100.332 195.949C100.332 200.504 100.332 200.504 100.332 200.504C100.332 200.504 96.3642 198.3 86.665 192.716C76.6719 186.984 59.6248 178.608 59.6248 178.608V169.937H59.7718Z" fill="#BACDE0"/>
<path d="M59.7702 165.676L100.33 189.042L127.518 173.318L86.9573 149.951L59.7702 165.676Z" fill="#EEF6FA"/>
<path d="M100.332 196.831V199.329L93.1311 194.92L100.332 196.831Z" fill="#597992"/>
<path d="M127.518 176.403L122.521 179.783L127.518 178.314V176.403Z" fill="#3E4F63"/>
<path d="M59.768 172.289L63.8828 175.375L59.768 174.199V172.289Z" fill="#597992"/>
<path d="M108.559 167.145L93.1281 160.679L100.917 167.733L92.8341 165.235L94.8915 169.203L77.8445 162.149L92.9811 173.611L84.4576 171.701L89.895 177.726L108.559 167.145Z" fill="#90BA34"/>
<path d="M90.0409 180.518L90.9226 180.959L111.938 168.762L111.056 168.321L90.0409 180.518Z" fill="#90CBD3"/>
<path d="M109.882 168.174L112.086 169.496L113.262 167.586L109.882 168.174Z" fill="#90CBD3"/>
<path d="M91.6621 180.518L90.9273 180.959L69.9124 168.762L70.6472 168.321L91.6621 180.518Z" fill="#90CBD3"/>
<path d="M71.8223 168.174L69.6179 169.497L68.5892 167.586L71.8223 168.174Z" fill="#90CBD3"/>
<path d="M63.0024 163.765L100.33 185.221L124.137 171.407L86.9565 149.951L63.0024 163.765Z" fill="#D3EEFF"/>
<path d="M91.5108 130.847L87.8369 129.671L60.6497 145.395L64.3237 146.571C69.1733 148.041 73.582 150.539 77.4029 153.772C79.9011 155.976 82.3994 158.034 84.8977 160.091C89.8943 163.912 95.6256 166.704 101.651 168.027L102.239 168.174L129.426 152.449L128.838 152.302C122.666 150.98 116.934 148.188 112.085 144.367C109.44 142.309 106.941 140.105 104.59 138.048C100.769 134.815 96.3604 132.316 91.5108 130.847Z" fill="#EEF6FA"/>
<path d="M96.943 158.768C99.7352 158.768 102.527 158.034 104.585 156.711C106.642 155.241 107.818 153.184 107.965 150.686C107.965 147.894 106.642 145.248 103.997 143.338L103.556 143.926C105.907 145.689 107.23 148.188 107.23 150.686C107.23 152.89 106.054 154.801 104.291 156.123C99.8822 159.062 92.6813 158.768 87.9786 155.241C85.4804 153.478 84.1577 150.833 84.1577 148.334C84.1577 146.277 85.1864 144.514 86.9499 143.191L86.5091 142.603C84.4517 143.926 83.4229 145.983 83.276 148.334C83.276 150.98 84.7456 153.772 87.3908 155.829C90.036 157.74 93.563 158.768 96.943 158.768Z" fill="#799FF7"/>
<path d="M95.3316 149.363L102.386 144.514C106.353 147.453 106.647 152.009 102.973 154.654C99.1525 157.299 92.8334 156.858 88.8655 153.919C84.8977 150.98 84.6038 146.571 88.1307 144.073C88.1307 143.926 91.2168 145.542 95.3316 149.363Z" fill="#799FF7"/>
<path d="M93.7137 145.836C94.3016 146.277 94.7424 146.718 95.3303 147.159L101.943 142.603C101.502 142.162 101.062 141.868 100.621 141.428C98.7103 139.811 96.7999 138.488 94.5955 137.166L87.9824 141.721C90.0398 143.044 91.9502 144.367 93.7137 145.836Z" fill="#799FF7"/>
<path d="M95.7736 120.119C93.4223 121.441 90.4831 119.825 90.4831 117.179C90.4831 116.004 91.2179 114.828 92.2466 114.093C94.598 112.771 97.5371 114.387 97.5371 117.179C97.5371 118.355 96.8023 119.531 95.7736 120.119Z" fill="#49E5A7"/>
<path d="M134.426 81.1749C132.075 82.4975 129.136 80.881 129.136 78.2357C129.136 77.0601 129.87 75.8844 130.899 75.1496C133.25 73.827 136.189 75.4435 136.189 78.2357C136.189 79.4114 135.455 80.587 134.426 81.1749Z" fill="#49E5A7"/>
<path d="M92.9808 149.951H94.8912V90.4335C94.8912 87.0534 96.8017 83.8204 99.7408 82.0569L123.254 68.2429C125.017 67.2142 127.075 67.3611 128.838 68.3898C130.602 69.4185 131.631 71.182 131.631 73.2394V126.291H133.541V73.0925C133.541 70.4472 132.071 67.949 129.867 66.6264C127.516 65.3037 124.724 65.1568 122.372 66.4794L98.8591 80.2934C95.1851 82.3508 92.9808 86.1717 92.9808 90.2865V149.951Z" fill="#49E5A7"/>
<circle cx="129.513" cy="142.446" r="127.847" stroke="url(#paint0_linear_251_15888)" stroke-width="1.5" stroke-dasharray="15 15"/>
<path d="M18.7825 193.431C18.8992 192.473 17.7253 191.922 17.0627 192.624L13.8128 196.066C13.5948 196.297 13.2801 196.411 12.9648 196.372L8.2655 195.8C7.3075 195.683 6.75637 196.857 7.45811 197.52L10.9004 200.77C11.1313 200.988 11.2449 201.303 11.2065 201.618L10.6342 206.317C10.5176 207.275 11.6915 207.826 12.354 207.124L15.604 203.682C15.822 203.451 16.1367 203.338 16.452 203.376L21.1513 203.948C22.1093 204.065 22.6604 202.891 21.9587 202.229L18.5164 198.979C18.2855 198.761 18.1719 198.446 18.2102 198.131L18.7825 193.431Z" fill="#49E5A7"/>
<path d="M147.382 7.46001C147.499 6.502 146.325 5.95087 145.662 6.65261L142.412 10.0949C142.194 10.3258 141.88 10.4394 141.564 10.401L136.865 9.82875C135.907 9.71208 135.356 10.886 136.058 11.5485L139.5 14.7985C139.731 15.0165 139.845 15.3312 139.806 15.6465L139.234 20.3458C139.117 21.3038 140.291 21.8549 140.954 21.1532L144.204 17.7109C144.422 17.48 144.736 17.3664 145.052 17.4047L149.751 17.977C150.709 18.0937 151.26 16.9198 150.558 16.2572L147.116 13.0073C146.885 12.7893 146.771 12.4746 146.81 12.1593L147.382 7.46001Z" fill="#4A7CF2"/>
<ellipse cx="4.45144" cy="4.45144" rx="4.45144" ry="4.45144" transform="matrix(-1 0 0 1 121.598 266.097)" stroke="#4A7CF2" stroke-width="2"/>
<ellipse cx="4.45144" cy="4.45144" rx="4.45144" ry="4.45144" transform="matrix(-1 0 0 1 19.7109 78.1476)" stroke="#49E5A7" stroke-width="2"/>
<defs>
<linearGradient id="paint0_linear_251_15888" x1="258.11" y1="142.446" x2="0.916016" y2="142.446" gradientUnits="userSpaceOnUse">
<stop stop-color="#4A7CF2" stop-opacity="0"/>
<stop offset="0.455" stop-color="#4A7CF2" stop-opacity="0.05"/>
<stop offset="1" stop-color="#4A7CF2" stop-opacity="0.1"/>
</linearGradient>
</defs>
</svg>
