<svg width="164" height="35" viewBox="0 0 164 35" fill="none" xmlns="http://www.w3.org/2000/svg">
<g clip-path="url(#clip0_274_18578)">
<path d="M68.2036 6.99989V27.9999H64.5602V11.5207H64.5117L58.0022 27.9999H55.5733L48.9181 11.5207H48.8695V27.9999H45.5176V6.99989H50.764L56.7877 22.5554H56.8849L63.2486 6.99989H68.2036ZM71.2154 8.60406C71.2154 8.02073 71.4098 7.53461 71.847 7.14572C72.2842 6.75684 72.7699 6.56239 73.3529 6.56239C73.9844 6.56239 74.5188 6.75684 74.9074 7.14572C75.296 7.53461 75.5389 8.02073 75.5389 8.60406C75.5389 9.18739 75.3446 9.6735 74.9074 10.0624C74.4702 10.4513 73.9844 10.6457 73.3529 10.6457C72.7214 10.6457 72.2356 10.4513 71.847 10.0624C71.4583 9.62489 71.2154 9.13878 71.2154 8.60406ZM75.1503 12.9304V27.9999H71.6041V12.9304H75.1503ZM85.8861 25.4235C86.4204 25.4235 87.0034 25.3263 87.6349 25.0346C88.2664 24.7916 88.8493 24.4513 89.3837 24.0624V27.3679C88.8008 27.7082 88.1692 27.9513 87.4406 28.0971C86.7119 28.2429 85.9346 28.3402 85.0602 28.3402C82.8256 28.3402 81.0282 27.6596 79.668 26.2499C78.2593 24.8402 77.5792 23.0416 77.5792 20.9027C77.5792 18.4721 78.3079 16.4791 79.7166 14.9235C81.1254 13.3679 83.1171 12.5902 85.7403 12.5902C86.4204 12.5902 87.1005 12.6874 87.732 12.8332C88.4121 12.9791 88.9465 13.2221 89.3351 13.4166V16.8193C88.8007 16.4304 88.2178 16.0902 87.6835 15.8957C87.1005 15.7013 86.5176 15.5554 85.9346 15.5554C84.5259 15.5554 83.4086 15.9929 82.5342 16.9166C81.6598 17.8402 81.2711 19.0554 81.2711 20.611C81.2711 22.1179 81.7083 23.3332 82.5342 24.1596C83.36 24.986 84.4773 25.4235 85.8861 25.4235ZM99.4394 12.6874C99.7308 12.6874 99.9737 12.6874 100.217 12.736C100.46 12.7846 100.654 12.8332 100.8 12.8818V16.4791C100.605 16.3332 100.362 16.1874 99.9737 16.0902C99.5851 15.9929 99.1965 15.8957 98.6621 15.8957C97.7877 15.8957 97.059 16.2846 96.4761 17.0138C95.8932 17.7429 95.5531 18.861 95.5531 20.4166V27.9999H92.0069V12.9304H95.5531V15.3124H95.6017C95.9417 14.486 96.4275 13.8541 97.059 13.3679C97.7391 12.9304 98.5164 12.6874 99.4394 12.6874ZM100.994 20.7082C100.994 18.2291 101.723 16.236 103.083 14.7777C104.492 13.3193 106.435 12.5902 108.912 12.5902C111.244 12.5902 113.09 13.2707 114.401 14.6804C115.713 16.0902 116.393 17.986 116.393 20.3679C116.393 22.7985 115.664 24.7429 114.304 26.2013C112.896 27.6596 111.001 28.3888 108.572 28.3888C106.24 28.3888 104.394 27.7082 103.034 26.3471C101.674 24.9374 100.994 23.0416 100.994 20.7082ZM104.686 20.5624C104.686 22.1179 105.026 23.3332 105.755 24.1596C106.483 24.986 107.503 25.4235 108.815 25.4235C110.078 25.4235 111.098 25.0346 111.778 24.1596C112.458 23.3332 112.798 22.1179 112.798 20.4652C112.798 18.861 112.458 17.6457 111.778 16.7707C111.098 15.9443 110.078 15.5068 108.864 15.5068C107.552 15.5068 106.58 15.9443 105.852 16.8193C105.026 17.7429 104.686 18.9582 104.686 20.5624ZM121.688 16.9166C121.688 17.4027 121.834 17.8402 122.174 18.1318C122.514 18.4235 123.194 18.7638 124.311 19.2013C125.72 19.7846 126.74 20.4166 127.275 21.0971C127.858 21.8263 128.149 22.6527 128.149 23.6735C128.149 25.0832 127.615 26.2013 126.497 27.0763C125.429 27.9513 123.923 28.3402 122.077 28.3402C121.445 28.3402 120.765 28.2429 119.988 28.0971C119.211 27.9513 118.579 27.7568 118.045 27.5138V24.0138C118.676 24.4513 119.405 24.8402 120.134 25.0832C120.862 25.3263 121.542 25.4721 122.174 25.4721C122.951 25.4721 123.583 25.3749 123.923 25.1318C124.311 24.8888 124.506 24.5485 124.506 24.0138C124.506 23.5277 124.311 23.1388 123.923 22.7499C123.534 22.4096 122.757 22.0207 121.688 21.5832C120.377 21.0485 119.454 20.4166 118.919 19.736C118.385 19.0554 118.093 18.1804 118.093 17.111C118.093 15.7499 118.628 14.6318 119.696 13.7568C120.765 12.8818 122.174 12.4443 123.874 12.4443C124.409 12.4443 124.992 12.4929 125.623 12.6388C126.255 12.7846 126.837 12.9304 127.275 13.0763V16.5277C126.789 16.236 126.255 15.9443 125.623 15.7013C124.992 15.4582 124.36 15.361 123.777 15.361C123.097 15.361 122.563 15.5068 122.223 15.7499C121.882 16.0902 121.688 16.4304 121.688 16.9166ZM129.655 20.7082C129.655 18.2291 130.384 16.236 131.744 14.7777C133.153 13.3193 135.096 12.5902 137.573 12.5902C139.905 12.5902 141.751 13.2707 143.063 14.6804C144.374 16.0902 145.054 17.986 145.054 20.3679C145.054 22.7985 144.326 24.7429 142.965 26.2013C141.557 27.6596 139.662 28.3888 137.233 28.3888C134.901 28.3888 133.055 27.7082 131.695 26.3471C130.384 24.9374 129.655 23.0416 129.655 20.7082ZM133.347 20.5624C133.347 22.1179 133.687 23.3332 134.416 24.1596C135.144 24.986 136.164 25.4235 137.476 25.4235C138.739 25.4235 139.759 25.0346 140.439 24.1596C141.119 23.3332 141.46 22.1179 141.46 20.4652C141.46 18.861 141.119 17.6457 140.439 16.7707C139.759 15.9443 138.739 15.5068 137.525 15.5068C136.213 15.5068 135.242 15.9443 134.513 16.8193C133.736 17.7429 133.347 18.9582 133.347 20.5624ZM156.859 15.8471H151.564V27.9999H147.969V15.8471H145.443V12.9304H147.969V10.8402C147.969 9.28461 148.503 7.97211 149.523 6.95128C150.544 5.93045 151.855 5.44434 153.458 5.44434C153.896 5.44434 154.284 5.49295 154.624 5.49295C154.964 5.49295 155.256 5.59017 155.499 5.68739V8.74989C155.401 8.70128 155.159 8.60406 154.867 8.50684C154.576 8.40961 154.236 8.361 153.847 8.361C153.118 8.361 152.535 8.60406 152.147 9.04156C151.758 9.47906 151.564 10.2082 151.564 11.0832V12.8818H156.859V9.47906L160.405 8.40961V12.8818H164V15.7985H160.405V22.8471C160.405 23.7707 160.599 24.4027 160.891 24.7916C161.231 25.1804 161.765 25.3749 162.494 25.3749C162.688 25.3749 162.931 25.3263 163.223 25.2291C163.514 25.1318 163.757 25.0346 163.951 24.8888V27.8054C163.708 27.9513 163.368 28.0485 162.834 28.1457C162.3 28.2429 161.814 28.2916 161.279 28.2916C159.773 28.2916 158.656 27.9027 157.928 27.1249C157.199 26.3471 156.81 25.1318 156.81 23.5277L156.859 15.8471Z" fill="#737373"/>
<path d="M16.6137 0H0V16.625H16.6137V0Z" fill="#F25022"/>
<path d="M34.977 0H18.3633V16.625H34.977V0Z" fill="#7FBA00"/>
<path d="M16.6137 18.375H0V35H16.6137V18.375Z" fill="#00A4EF"/>
<path d="M34.977 18.375H18.3633V35H34.977V18.375Z" fill="#FFB900"/>
</g>
<defs>
<clipPath id="clip0_274_18578">
<rect width="164" height="35" fill="white"/>
</clipPath>
</defs>
</svg>
