<svg width="195" height="51" viewBox="0 0 195 51" fill="none" xmlns="http://www.w3.org/2000/svg">
<g clip-path="url(#clip0_80_4025)">
<path d="M44.2446 13.0369L22.4292 0.59668L0.433594 13.0369V37.9172L22.2489 50.3573L44.0643 37.9172L44.2446 13.0369ZM22.2489 45.6697L4.40003 35.5734V15.3807L22.2489 5.28428L40.0979 15.3807V35.5734L22.2489 45.6697Z" fill="#0079D5"/>
<path d="M4.58032 15.3807L22.4292 5.28427L40.2782 15.3807L44.4249 13.0369L22.6096 0.59668L0.433594 13.0369L4.58032 15.3807Z" fill="url(#paint0_linear_80_4025)"/>
<path d="M15.3974 21.3306L11.0703 18.9868L33.4266 6.90723L37.7536 9.43131L15.3974 21.3306Z" fill="url(#paint1_linear_80_4025)"/>
<path d="M11.2483 44.0471L7.10156 41.7033L29.0972 29.4434L33.4242 31.7872L11.2483 44.0471Z" fill="url(#paint2_linear_80_4025)"/>
<path d="M17.2014 23.4936C17.2014 23.4936 22.4299 22.7724 26.757 28.3615C26.757 28.3615 33.2475 29.6236 30.5431 25.8374C27.8387 21.6907 23.3314 19.1666 18.2832 18.9863C18.2832 18.9863 14.6774 20.2484 17.2014 23.4936Z" fill="url(#paint3_linear_80_4025)"/>
<path d="M30.9003 35.5739C33.7879 35.5739 36.1288 33.3138 36.1288 30.5257C36.1288 27.7377 33.7879 25.4775 30.9003 25.4775C28.0127 25.4775 25.6719 27.7377 25.6719 30.5257C25.6719 33.3138 28.0127 35.5739 30.9003 35.5739Z" fill="url(#paint4_linear_80_4025)"/>
<path d="M13.7753 25.2975C16.6629 25.2975 19.0038 23.0374 19.0038 20.2494C19.0038 17.4613 16.6629 15.2012 13.7753 15.2012C10.8877 15.2012 8.54688 17.4613 8.54688 20.2494C8.54688 23.0374 10.8877 25.2975 13.7753 25.2975Z" fill="url(#paint5_linear_80_4025)"/>
<path d="M67.682 32.1479H64.0762L62.9946 28.9026H57.766L56.6844 32.1479H53.0781L58.3068 17.1836H62.2733L67.682 32.1479ZM62.2733 26.1982L60.6505 21.1501C60.4704 20.7895 60.4704 20.2486 60.4704 19.888C60.4704 20.2486 60.2903 20.7895 60.2903 21.1501L58.6674 26.1982H62.2733Z" fill="black"/>
<path d="M77.4182 32.148H68.043V30.7056L73.2711 23.8546H68.5837V21.5107H77.4182V23.1334L72.5503 29.6239H77.5983V32.148H77.4182Z" fill="black"/>
<path d="M89.1357 32.1486H85.8905V30.526C85.1692 31.788 84.0876 32.3289 82.6449 32.3289C80.3012 32.3289 79.0391 30.8865 79.0391 27.8215V21.3311H82.2847V27.461C82.2847 28.9033 82.8255 29.6245 84.0876 29.6245C84.6284 29.6245 85.1692 29.4442 85.5298 29.0836C85.8905 28.723 86.0706 28.1821 86.0706 27.461V21.3311H89.3158V32.1486H89.1357Z" fill="black"/>
<path d="M98.515 24.3957C98.1544 24.2154 97.6136 24.0351 97.0728 24.0351C96.3514 24.0351 95.8107 24.2154 95.45 24.7563C95.0893 25.2971 94.9092 26.0183 94.9092 26.9198V31.968H91.6641V21.3307H94.9092V23.3139C95.45 21.8716 96.3514 21.1504 97.6136 21.1504C97.9743 21.1504 98.1544 21.1504 98.3345 21.3307V24.3957H98.515Z" fill="black"/>
<path d="M109.331 27.8212H102.48C102.66 29.4438 103.562 30.165 105.364 30.165C106.446 30.165 107.528 29.8044 108.43 29.2635V31.6074C107.528 32.1483 106.266 32.3285 104.643 32.3285C103.021 32.3285 101.578 31.7877 100.677 30.8862C99.7751 29.9847 99.2344 28.5424 99.2344 26.9198C99.2344 25.1168 99.7751 23.6745 100.677 22.7731C101.759 21.6913 102.84 21.1504 104.463 21.1504C105.905 21.1504 107.167 21.6913 108.069 22.5928C108.97 23.4942 109.331 24.7563 109.331 26.3789V27.8212ZM106.446 25.6577C106.446 24.2154 105.905 23.3139 104.643 23.3139C104.102 23.3139 103.742 23.4942 103.381 24.0351C103.021 24.3957 102.84 24.9366 102.66 25.6577H106.446Z" fill="black"/>
<path d="M116.723 31.6076V28.3623C117.264 28.9032 117.985 29.2638 118.706 29.444C119.427 29.6243 120.148 29.8047 120.87 29.8047C121.23 29.8047 121.591 29.8046 121.951 29.6243C122.312 29.6243 122.492 29.444 122.673 29.2638C122.853 29.0835 123.033 28.9032 123.213 28.7229C123.394 28.5426 123.394 28.3623 123.394 28.182C123.394 27.8214 123.394 27.6411 123.213 27.4608C123.033 27.2806 122.853 27.1003 122.492 26.7397C122.131 26.3791 121.951 26.3791 121.411 26.1988C121.05 26.0185 120.689 25.8382 120.148 25.6579C119.067 25.1171 118.165 24.5762 117.624 23.855C117.083 23.1339 116.723 22.2324 116.723 21.3309C116.723 20.6097 116.903 19.8886 117.264 19.3477C117.624 18.8068 117.985 18.2659 118.526 17.9054C119.067 17.5448 119.608 17.3645 120.328 17.1842C121.05 17.0039 121.771 17.0039 122.492 17.0039C123.213 17.0039 123.934 17.0039 124.476 17.1842C125.016 17.3645 125.557 17.3645 126.098 17.5448V20.6097C125.918 20.4294 125.557 20.2491 125.377 20.0689C125.016 19.8886 124.836 19.8886 124.476 19.7083C124.115 19.528 123.934 19.528 123.574 19.528C123.213 19.528 123.033 19.528 122.673 19.528C122.312 19.528 121.951 19.528 121.591 19.7083C121.23 19.7083 121.05 19.8886 120.87 20.0689C120.689 20.2491 120.509 20.4294 120.328 20.6097C120.148 20.79 120.148 20.9703 120.148 21.1506C120.148 21.3309 120.148 21.6915 120.328 21.8718C120.509 22.0521 120.689 22.2324 120.87 22.4127C121.05 22.593 121.411 22.7733 121.771 22.9536C122.131 23.1339 122.492 23.3141 122.853 23.4944C123.394 23.6747 123.934 24.0353 124.476 24.2156C125.016 24.5762 125.377 24.7565 125.737 25.1171C126.098 25.4776 126.278 25.8382 126.459 26.3791C126.639 26.92 126.639 27.2806 126.639 28.0017C126.639 28.9032 126.459 29.444 126.098 30.1652C125.737 30.7061 125.377 31.247 124.836 31.6076C124.295 31.9682 123.754 32.1485 123.033 32.3288C122.312 32.509 121.591 32.509 120.87 32.509C120.148 32.509 119.247 32.509 118.526 32.3288C117.805 31.9682 117.264 31.7879 116.723 31.6076Z" fill="black"/>
<path d="M137.998 21.5107L133.851 33.0495C132.769 35.7538 131.327 37.1962 129.344 37.1962C128.623 37.1962 127.901 37.1962 127.361 37.0159V34.3115C127.721 34.4918 128.262 34.6721 128.803 34.6721C129.704 34.6721 130.246 34.3115 130.606 33.4101L131.147 32.148L127 21.5107H130.606L132.589 28.0013C132.769 28.3619 132.769 28.9027 132.95 29.4436C132.95 29.083 133.13 28.5421 133.31 28.0013L135.294 21.5107H137.998Z" fill="black"/>
<path d="M149.355 32.1483H146.11V26.1986C146.11 24.576 145.569 23.6745 144.307 23.6745C143.766 23.6745 143.225 23.8548 142.865 24.3957C142.504 24.7563 142.323 25.2971 142.323 26.0183V32.1483H139.078V21.511H142.323V23.1336C143.045 21.8716 144.127 21.1504 145.749 21.1504C148.093 21.1504 149.175 22.5928 149.175 25.4774V32.1483H149.355Z" fill="black"/>
<path d="M160.711 32.1476H157.646V30.7053C156.925 31.9673 155.843 32.5082 154.581 32.5082C153.499 32.5082 152.778 32.1476 152.237 31.6067C151.696 31.0659 151.336 30.1643 151.336 29.2629C151.336 27.2797 152.598 26.0177 154.942 25.6571L157.826 25.2965C157.826 24.2147 157.285 23.4936 156.023 23.4936C154.761 23.4936 153.68 23.8542 152.417 24.5753V22.0512C152.778 21.871 153.499 21.6907 154.22 21.5104C154.942 21.33 155.663 21.3301 156.384 21.3301C159.268 21.3301 160.891 22.7724 160.891 25.8374V32.1476H160.711ZM157.646 27.8206V27.0994L155.843 27.2797C154.761 27.46 154.22 27.8206 154.22 28.722C154.22 29.0826 154.4 29.4432 154.581 29.6235C154.761 29.8038 155.122 29.9841 155.663 29.9841C156.203 29.9841 156.745 29.8038 157.105 29.2629C157.466 28.9023 157.646 28.3614 157.646 27.8206Z" fill="black"/>
<path d="M166.483 30.8856V37.0155H163.238V21.5104H166.303V23.133C167.024 21.871 168.286 21.3301 169.729 21.3301C170.991 21.3301 172.073 21.871 172.794 22.7724C173.515 23.6739 173.876 24.9359 173.876 26.5585C173.876 28.3614 173.515 29.8038 172.614 30.8856C171.712 31.9673 170.63 32.5082 169.188 32.5082C168.106 32.3279 167.024 31.787 166.483 30.8856ZM166.303 26.5585V27.46C166.303 28.1811 166.483 28.722 166.844 29.2629C167.205 29.8038 167.746 29.9841 168.286 29.9841C169.008 29.9841 169.548 29.6235 169.909 29.0826C170.27 28.5417 170.45 27.6403 170.45 26.5585C170.45 24.7556 169.729 23.6739 168.286 23.6739C167.565 23.6739 167.024 23.8542 166.664 24.395C166.303 24.9359 166.303 25.6571 166.303 26.5585Z" fill="black"/>
<path d="M175.316 31.7877V29.0833C175.857 29.4438 176.398 29.6241 176.939 29.8044C177.48 29.9847 178.021 29.9847 178.381 29.9847C178.922 29.9847 179.463 29.9847 179.644 29.8044C179.824 29.6241 180.184 29.4438 180.184 29.0833C180.184 28.903 180.184 28.7227 180.004 28.5424C179.824 28.3621 179.644 28.3621 179.463 28.1818C179.283 28.0015 178.922 28.0015 178.742 27.8212C178.381 27.8212 178.201 27.6409 178.021 27.4606C177.66 27.2803 177.299 27.1001 176.939 26.9198C176.579 26.7395 176.398 26.5592 176.218 26.1986C176.038 26.0183 175.857 25.6577 175.677 25.2971C175.496 25.4774 175.316 25.1168 175.316 24.576C175.316 24.0351 175.496 23.4942 175.677 22.9534C175.857 22.5928 176.218 22.2322 176.759 21.8716C177.299 21.511 177.66 21.3307 178.201 21.3307C178.742 21.1504 179.283 21.1504 179.824 21.1504C180.364 21.1504 180.725 21.1504 181.266 21.3307C181.807 21.3307 182.167 21.511 182.708 21.6913V24.2154C182.348 24.0351 181.807 23.8548 181.446 23.6745C180.905 23.4942 180.545 23.4942 180.004 23.4942C179.824 23.4942 179.644 23.4942 179.463 23.4942C179.283 23.4942 179.102 23.6745 178.922 23.6745C178.742 23.6745 178.742 23.8548 178.562 24.0351C178.562 24.2154 178.381 24.2154 178.381 24.3957C178.381 24.576 178.381 24.7563 178.562 24.9366C178.742 25.1168 178.922 25.1168 179.102 25.2971C179.283 25.4774 179.463 25.4774 179.824 25.4774C180.184 25.4774 180.364 25.6577 180.545 25.6577C180.905 25.838 181.446 26.0183 181.627 26.1986C181.987 26.3789 182.348 26.5592 182.528 26.9198C182.708 27.1001 182.889 27.4606 183.069 27.8212C183.249 28.1818 183.249 28.5424 183.249 28.903C183.249 29.4438 183.069 29.9847 182.889 30.5256C182.708 31.0665 182.348 31.2468 181.807 31.6074C181.266 31.968 180.905 32.1483 180.184 32.1483C179.644 32.3285 178.922 32.3285 178.381 32.3285C177.48 32.3285 176.398 32.1483 175.316 31.7877Z" fill="black"/>
<path d="M194.608 27.8212H187.757C187.937 29.4438 188.839 30.165 190.642 30.165C191.724 30.165 192.805 29.8044 193.707 29.2635V31.6074C192.805 32.1483 191.543 32.3285 189.92 32.3285C188.298 32.3285 186.856 31.7877 185.954 30.8862C185.053 29.9847 184.512 28.5424 184.512 26.9198C184.512 25.1168 185.053 23.6745 185.954 22.7731C187.036 21.6913 188.118 21.1504 189.74 21.1504C191.183 21.1504 192.445 21.6913 193.346 22.5928C194.248 23.4942 194.608 24.7563 194.608 26.3789V27.8212ZM191.543 25.6577C191.543 24.2154 191.002 23.3139 189.74 23.3139C189.2 23.3139 188.839 23.4942 188.478 24.0351C188.118 24.3957 187.937 24.9366 187.757 25.6577H191.543Z" fill="black"/>
</g>
<defs>
<linearGradient id="paint0_linear_80_4025" x1="22.3094" y1="0.447758" x2="22.3094" y2="16.3723" gradientUnits="userSpaceOnUse">
<stop stop-color="#0077D0"/>
<stop offset="1" stop-color="#005BA2"/>
</linearGradient>
<linearGradient id="paint1_linear_80_4025" x1="14.0421" y1="20.2929" x2="35.4709" y2="7.61811" gradientUnits="userSpaceOnUse">
<stop stop-color="#3ACEEB"/>
<stop offset="1" stop-color="#4FE7FF"/>
</linearGradient>
<linearGradient id="paint2_linear_80_4025" x1="31.1335" y1="30.3693" x2="9.77549" y2="42.8712" gradientUnits="userSpaceOnUse">
<stop stop-color="#3ACEEB"/>
<stop offset="1" stop-color="#4FE7FF"/>
</linearGradient>
<linearGradient id="paint3_linear_80_4025" x1="17.2015" y1="19.6739" x2="30.4712" y2="27.3089" gradientUnits="userSpaceOnUse">
<stop stop-color="#3ACEEB"/>
<stop offset="1" stop-color="#4FE7FF"/>
</linearGradient>
<linearGradient id="paint4_linear_80_4025" x1="30.8479" y1="35.2121" x2="30.8479" y2="25.5944" gradientUnits="userSpaceOnUse">
<stop stop-color="#1592B9"/>
<stop offset="0.12" stop-color="#22A5C9"/>
<stop offset="0.35" stop-color="#36C2E0"/>
<stop offset="0.57" stop-color="#44D6F1"/>
<stop offset="0.79" stop-color="#4CE3FC"/>
<stop offset="1" stop-color="#4FE7FF"/>
</linearGradient>
<linearGradient id="paint5_linear_80_4025" x1="13.7277" y1="24.9649" x2="13.7277" y2="15.3371" gradientUnits="userSpaceOnUse">
<stop stop-color="#1592B9"/>
<stop offset="0.12" stop-color="#22A5C9"/>
<stop offset="0.35" stop-color="#36C2E0"/>
<stop offset="0.57" stop-color="#44D6F1"/>
<stop offset="0.79" stop-color="#4CE3FC"/>
<stop offset="1" stop-color="#4FE7FF"/>
</linearGradient>
<clipPath id="clip0_80_4025">
<rect width="194.175" height="50" fill="white" transform="translate(0.433594 0.5)"/>
</clipPath>
</defs>
</svg>
