<svg width="1440" height="493" viewBox="0 0 1440 493" fill="none" xmlns="http://www.w3.org/2000/svg">
<path d="M1188.44 -138.399C1188.69 -133.341 1188.85 -128.262 1188.94 -123.163L1188.19 -123.151C1188.23 -120.606 1188.25 -118.055 1188.25 -115.5C1188.25 -112.945 1188.23 -110.395 1188.19 -107.849L1188.94 -107.837C1188.85 -102.738 1188.69 -97.6592 1188.44 -92.6015L1187.69 -92.6385C1187.44 -87.5387 1187.1 -82.4605 1186.68 -77.4054L1187.43 -77.3437C1187.01 -72.2584 1186.51 -67.1962 1185.92 -62.1586L1185.18 -62.2451C1184.59 -57.187 1183.92 -52.1536 1183.17 -47.1464L1183.91 -47.0352C1183.16 -41.984 1182.32 -36.9595 1181.39 -31.9628L1180.66 -32.0988C1179.73 -27.0923 1178.73 -22.114 1177.64 -17.1651L1178.38 -17.0045C1177.29 -12.0239 1176.11 -7.07312 1174.86 -2.15356L1174.13 -2.33862C1172.88 2.59827 1171.54 7.5036 1170.12 12.376L1170.84 12.5854C1169.42 17.4796 1167.92 22.3406 1166.34 27.1669L1165.63 26.9336C1164.04 31.7691 1162.38 36.5698 1160.64 41.3342L1161.35 41.5912C1159.6 46.3813 1157.77 51.1348 1155.87 55.8503L1155.18 55.5698C1153.28 60.287 1151.3 64.9661 1149.24 69.6054L1149.93 69.9089C1147.87 74.567 1145.73 79.1851 1143.52 83.7617L1142.84 83.4355C1140.63 88.0167 1138.35 92.5562 1135.99 97.0527L1136.65 97.4012C1134.28 101.911 1131.84 106.377 1129.33 110.799L1128.68 110.429C1126.17 114.849 1123.59 119.225 1120.94 123.555L1121.58 123.946C1118.92 128.29 1116.19 132.587 1113.39 136.836L1112.76 136.423C1109.97 140.668 1107.1 144.865 1104.17 149.012L1104.78 149.445C1101.85 153.602 1098.84 157.709 1095.77 161.764L1095.17 161.311C1092.1 165.363 1088.97 169.364 1085.77 173.312L1086.35 173.784C1083.15 177.739 1079.88 181.64 1076.55 185.488L1075.98 184.997C1072.66 188.838 1069.27 192.625 1065.82 196.356L1066.37 196.865C1062.92 200.602 1059.4 204.282 1055.82 207.905L1055.29 207.379C1051.72 210.994 1048.09 214.553 1044.41 218.052L1044.93 218.596C1041.24 222.1 1037.49 225.544 1033.68 228.929L1033.19 228.368C1029.39 231.744 1025.54 235.059 1021.63 238.313L1022.11 238.889C1018.21 242.144 1014.24 245.338 1010.23 248.468L1009.77 247.877C1005.76 251 1001.7 254.059 997.594 257.054L998.036 257.66C993.926 260.655 989.764 263.585 985.553 266.45L985.131 265.829C980.934 268.684 976.688 271.473 972.393 274.195L972.794 274.828C968.499 277.551 964.155 280.206 959.765 282.793L959.385 282.146C955.011 284.723 950.592 287.232 946.128 289.67L946.487 290.328C942.027 292.765 937.523 295.131 932.976 297.427L932.638 296.757C928.107 299.045 923.533 301.262 918.918 303.407L919.234 304.087C914.625 306.229 909.975 308.299 905.285 310.296L904.991 309.606C900.326 311.593 895.621 313.507 890.878 315.347L891.15 316.046C886.411 317.884 881.636 319.649 876.824 321.338L876.575 320.63C871.789 322.31 866.967 323.916 862.111 325.445L862.336 326.16C857.494 327.685 852.619 329.134 847.711 330.507L847.509 329.784C842.623 331.15 837.706 332.44 832.757 333.652L832.936 334.381C828.004 335.589 823.041 336.72 818.049 337.772L817.895 337.038C812.939 338.083 807.954 339.051 802.942 339.94L803.073 340.679C798.071 341.566 793.042 342.375 787.987 343.104L787.88 342.362C782.867 343.085 777.829 343.73 772.766 344.295L772.849 345.041C767.81 345.603 762.747 346.087 757.661 346.491L757.602 345.743C752.545 346.145 747.466 346.467 742.365 346.709L742.401 347.458C737.342 347.698 732.263 347.859 727.164 347.94L727.152 347.19C724.606 347.23 722.055 347.25 719.5 347.25C716.945 347.25 714.394 347.23 711.848 347.19L711.837 347.94C706.737 347.859 701.658 347.698 696.599 347.458L696.635 346.709C691.534 346.467 686.455 346.145 681.399 345.743L681.339 346.491C676.253 346.087 671.19 345.603 666.151 345.041L666.234 344.295C661.171 343.73 656.133 343.085 651.12 342.362L651.013 343.104C645.958 342.375 640.929 341.566 635.927 340.679L636.058 339.94C631.046 339.051 626.061 338.083 621.105 337.038L620.951 337.772C615.959 336.72 610.996 335.589 606.064 334.381L606.243 333.652C601.294 332.44 596.376 331.15 591.491 329.784L591.289 330.507C586.381 329.134 581.505 327.685 576.664 326.16L576.889 325.445C572.033 323.915 567.211 322.31 562.425 320.63L562.176 321.338C557.364 319.649 552.588 317.884 547.85 316.046L548.121 315.347C543.379 313.507 538.674 311.593 534.009 309.606L533.715 310.296C529.025 308.299 524.375 306.229 519.766 304.087L520.082 303.407C515.467 301.262 510.893 299.045 506.362 296.757L506.024 297.427C501.477 295.131 496.972 292.765 492.513 290.328L492.872 289.67C488.408 287.232 483.989 284.723 479.615 282.146L479.234 282.792C474.845 280.206 470.501 277.551 466.205 274.828L466.607 274.195C462.312 271.473 458.066 268.684 453.868 265.829L453.447 266.449C449.236 263.585 445.074 260.655 440.964 257.66L441.406 257.054C437.296 254.059 433.237 250.999 429.232 247.877L428.771 248.468C424.755 245.338 420.793 242.144 416.885 238.889L417.365 238.313C413.46 235.059 409.609 231.744 405.814 228.368L405.316 228.928C401.512 225.544 397.764 222.1 394.074 218.596L394.59 218.052C390.905 214.553 387.277 210.994 383.709 207.378L383.176 207.905C379.6 204.282 376.085 200.602 372.63 196.865L373.181 196.356C369.732 192.625 366.343 188.838 363.017 184.996L362.45 185.487C359.119 181.64 355.851 177.738 352.647 173.784L353.23 173.312C350.032 169.364 346.898 165.363 343.829 161.311L343.231 161.764C340.16 157.709 337.154 153.602 334.216 149.445L334.828 149.012C331.897 144.865 329.032 140.668 326.236 136.423L325.61 136.836C322.811 132.587 320.081 128.29 317.421 123.946L318.061 123.555C315.41 119.225 312.829 114.849 310.319 110.429L309.666 110.799C307.156 106.377 304.717 101.911 302.35 97.4011L303.014 97.0526C300.655 92.5561 298.368 88.0165 296.155 83.4354L295.48 83.7616C293.269 79.1849 291.132 74.567 289.07 69.9089L289.756 69.6053C287.703 64.966 285.724 60.287 283.822 55.5698L283.127 55.8503C281.225 51.1349 279.4 46.3813 277.652 41.5912L278.357 41.3342C276.618 36.5698 274.957 31.7691 273.374 26.9337L272.661 27.167C271.081 22.3406 269.579 17.4797 268.157 12.5855L268.877 12.3762C267.461 7.50372 266.124 2.59839 264.867 -2.33844L264.14 -2.15344C262.887 -7.073 261.714 -12.0237 260.623 -17.0043L261.355 -17.165C260.27 -22.1138 259.266 -27.0922 258.343 -32.0986L257.605 -31.9626C256.684 -36.9593 255.844 -41.9839 255.086 -47.035L255.828 -47.1462C255.077 -52.1534 254.408 -57.1867 253.82 -62.2449L253.075 -62.1584C252.491 -67.196 251.988 -72.2581 251.568 -77.3435L252.316 -77.4052C251.898 -82.4603 251.563 -87.5384 251.312 -92.6382L250.563 -92.6013C250.314 -97.6589 250.147 -102.738 250.063 -107.837L250.813 -107.849C250.771 -110.394 250.75 -112.945 250.75 -115.5C250.75 -118.055 250.771 -120.605 250.813 -123.151L250.063 -123.163C250.147 -128.262 250.314 -133.341 250.563 -138.399L251.312 -138.362C251.563 -143.461 251.898 -148.54 252.316 -153.595L251.568 -153.656C251.988 -158.742 252.491 -163.804 253.075 -168.841L253.82 -168.755C254.407 -173.813 255.077 -178.846 255.828 -183.854L255.086 -183.965C255.844 -189.016 256.684 -194.041 257.605 -199.037L258.343 -198.901C259.266 -203.908 260.27 -208.886 261.355 -213.835L260.623 -213.996C261.714 -218.976 262.887 -223.927 264.14 -228.846L264.867 -228.661C266.124 -233.598 267.461 -238.504 268.877 -243.376L268.157 -243.585C269.579 -248.48 271.081 -253.341 272.661 -258.167L273.374 -257.934C274.957 -262.769 276.618 -267.57 278.357 -272.334L277.652 -272.591C279.4 -277.381 281.225 -282.135 283.127 -286.85L283.822 -286.57C285.724 -291.287 287.703 -295.966 289.756 -300.605L289.071 -300.909C291.132 -305.567 293.269 -310.185 295.48 -314.762L296.155 -314.436C298.368 -319.017 300.655 -323.556 303.014 -328.053L302.35 -328.401C304.717 -332.911 307.156 -337.377 309.666 -341.799L310.319 -341.429C312.829 -345.849 315.41 -350.225 318.061 -354.555L317.421 -354.946C320.081 -359.29 322.811 -363.587 325.61 -367.836L326.236 -367.423C329.032 -371.668 331.897 -375.865 334.828 -380.012L334.216 -380.445C337.154 -384.602 340.16 -388.709 343.231 -392.764L343.829 -392.311C346.898 -396.363 350.032 -400.364 353.23 -404.312L352.647 -404.784C355.851 -408.739 359.119 -412.64 362.45 -416.488L363.017 -415.997C366.343 -419.838 369.732 -423.625 373.181 -427.356L372.631 -427.865C376.085 -431.602 379.601 -435.282 383.176 -438.905L383.709 -438.379C387.278 -441.994 390.905 -445.553 394.59 -449.052L394.074 -449.596C397.764 -453.1 401.512 -456.544 405.316 -459.929L405.814 -459.368C409.609 -462.744 413.46 -466.059 417.365 -469.313L416.885 -469.889C420.793 -473.144 424.755 -476.338 428.771 -479.468L429.232 -478.877C433.238 -482 437.296 -485.059 441.406 -488.054L440.964 -488.66C445.074 -491.655 449.236 -494.585 453.447 -497.45L453.869 -496.829C458.066 -499.684 462.312 -502.473 466.607 -505.195L466.206 -505.828C470.501 -508.551 474.845 -511.206 479.235 -513.793L479.615 -513.146C483.989 -515.723 488.408 -518.232 492.872 -520.67L492.513 -521.328C496.973 -523.765 501.477 -526.131 506.024 -528.427L506.362 -527.757C510.893 -530.045 515.467 -532.262 520.082 -534.407L519.766 -535.087C524.375 -537.229 529.025 -539.299 533.715 -541.296L534.009 -540.606C538.674 -542.593 543.379 -544.507 548.122 -546.347L547.85 -547.046C552.589 -548.884 557.364 -550.649 562.176 -552.338L562.425 -551.63C567.211 -553.31 572.033 -554.916 576.889 -556.445L576.664 -557.16C581.506 -558.685 586.381 -560.134 591.289 -561.507L591.491 -560.784C596.377 -562.15 601.294 -563.44 606.243 -564.652L606.064 -565.381C610.996 -566.589 615.959 -567.72 620.951 -568.772L621.105 -568.038C626.061 -569.083 631.046 -570.051 636.058 -570.94L635.927 -571.679C640.929 -572.566 645.958 -573.375 651.013 -574.104L651.12 -573.362C656.133 -574.085 661.171 -574.73 666.234 -575.295L666.151 -576.041C671.19 -576.603 676.253 -577.087 681.339 -577.491L681.398 -576.743C686.455 -577.145 691.534 -577.467 696.635 -577.709L696.599 -578.458C701.658 -578.698 706.737 -578.859 711.836 -578.94L711.848 -578.19C714.394 -578.23 716.945 -578.25 719.5 -578.25C722.055 -578.25 724.606 -578.23 727.152 -578.19L727.163 -578.94C732.263 -578.859 737.342 -578.698 742.401 -578.458L742.365 -577.709C747.466 -577.467 752.545 -577.145 757.601 -576.743L757.661 -577.491C762.747 -577.087 767.81 -576.603 772.849 -576.041L772.766 -575.295C777.829 -574.73 782.867 -574.085 787.88 -573.362L787.987 -574.104C793.042 -573.375 798.071 -572.566 803.073 -571.679L802.942 -570.94C807.954 -570.051 812.939 -569.083 817.895 -568.038L818.049 -568.772C823.041 -567.72 828.004 -566.589 832.936 -565.381L832.757 -564.652C837.706 -563.44 842.624 -562.15 847.509 -560.784L847.711 -561.507C852.619 -560.134 857.495 -558.685 862.336 -557.16L862.111 -556.445C866.967 -554.915 871.789 -553.31 876.575 -551.63L876.824 -552.338C881.636 -550.649 886.412 -548.884 891.15 -547.046L890.878 -546.347C895.621 -544.507 900.326 -542.593 904.991 -540.606L905.285 -541.296C909.975 -539.299 914.625 -537.229 919.234 -535.087L918.918 -534.407C923.533 -532.262 928.107 -530.045 932.638 -527.757L932.976 -528.427C937.523 -526.131 942.028 -523.765 946.487 -521.328L946.128 -520.67C950.592 -518.231 955.011 -515.723 959.385 -513.146L959.766 -513.792C964.155 -511.206 968.499 -508.551 972.795 -505.828L972.393 -505.195C976.688 -502.473 980.934 -499.684 985.132 -496.829L985.553 -497.449C989.764 -494.585 993.926 -491.655 998.036 -488.66L997.594 -488.054C1001.7 -485.059 1005.76 -481.999 1009.77 -478.877L1010.23 -479.468C1014.24 -476.338 1018.21 -473.144 1022.12 -469.889L1021.64 -469.313C1025.54 -466.059 1029.39 -462.744 1033.19 -459.368L1033.68 -459.928C1037.49 -456.544 1041.24 -453.1 1044.93 -449.596L1044.41 -449.052C1048.1 -445.553 1051.72 -441.994 1055.29 -438.378L1055.82 -438.905C1059.4 -435.282 1062.92 -431.602 1066.37 -427.865L1065.82 -427.356C1069.27 -423.625 1072.66 -419.838 1075.98 -415.996L1076.55 -416.487C1079.88 -412.64 1083.15 -408.738 1086.35 -404.784L1085.77 -404.312C1088.97 -400.364 1092.1 -396.363 1095.17 -392.311L1095.77 -392.764C1098.84 -388.709 1101.85 -384.602 1104.78 -380.445L1104.17 -380.012C1107.1 -375.865 1109.97 -371.668 1112.76 -367.423L1113.39 -367.836C1116.19 -363.587 1118.92 -359.29 1121.58 -354.946L1120.94 -354.555C1123.59 -350.225 1126.17 -345.849 1128.68 -341.429L1129.33 -341.799C1131.84 -337.377 1134.28 -332.911 1136.65 -328.401L1135.99 -328.053C1138.35 -323.556 1140.63 -319.017 1142.84 -314.435L1143.52 -314.762C1145.73 -310.185 1147.87 -305.567 1149.93 -300.909L1149.24 -300.605C1151.3 -295.966 1153.28 -291.287 1155.18 -286.57L1155.87 -286.85C1157.77 -282.135 1159.6 -277.381 1161.35 -272.591L1160.64 -272.334C1162.38 -267.57 1164.04 -262.769 1165.63 -257.934L1166.34 -258.167C1167.92 -253.341 1169.42 -248.48 1170.84 -243.585L1170.12 -243.376C1171.54 -238.504 1172.88 -233.598 1174.13 -228.662L1174.86 -228.847C1176.11 -223.927 1177.29 -218.976 1178.38 -213.996L1177.64 -213.835C1178.73 -208.886 1179.73 -203.908 1180.66 -198.901L1181.39 -199.037C1182.32 -194.041 1183.16 -189.016 1183.91 -183.965L1183.17 -183.854C1183.92 -178.847 1184.59 -173.813 1185.18 -168.755L1185.92 -168.842C1186.51 -163.804 1187.01 -158.742 1187.43 -153.656L1186.68 -153.595C1187.1 -148.54 1187.44 -143.462 1187.69 -138.362L1188.44 -138.399Z" stroke="url(#paint0_linear_357_3976)" stroke-width="1.5" stroke-dasharray="15 15"/>
<ellipse cx="1282.8" cy="480.65" rx="2.67692" ry="2.70588" transform="rotate(-60 1282.8 480.65)" fill="#E8E8E8"/>
<ellipse cx="1292.16" cy="464.422" rx="2.67692" ry="2.70588" transform="rotate(-60 1292.16 464.422)" fill="#E8E8E8"/>
<ellipse cx="1301.53" cy="448.194" rx="2.67692" ry="2.70588" transform="rotate(-60 1301.53 448.194)" fill="#E8E8E8"/>
<ellipse cx="1310.9" cy="431.966" rx="2.67692" ry="2.70588" transform="rotate(-60 1310.9 431.966)" fill="#E8E8E8"/>
<ellipse cx="1320.27" cy="415.738" rx="2.67692" ry="2.70588" transform="rotate(-60 1320.27 415.738)" fill="#E8E8E8"/>
<ellipse cx="1329.64" cy="399.51" rx="2.67692" ry="2.70588" transform="rotate(-60 1329.64 399.51)" fill="#E8E8E8"/>
<ellipse cx="1339.01" cy="383.283" rx="2.67692" ry="2.70588" transform="rotate(-60 1339.01 383.283)" fill="#E8E8E8"/>
<ellipse cx="1348.38" cy="367.054" rx="2.67692" ry="2.70588" transform="rotate(-60 1348.38 367.054)" fill="#E8E8E8"/>
<ellipse cx="1357.75" cy="350.827" rx="2.67692" ry="2.70588" transform="rotate(-60 1357.75 350.827)" fill="#E8E8E8"/>
<ellipse cx="1299.2" cy="490.121" rx="2.67692" ry="2.70588" transform="rotate(-60 1299.2 490.121)" fill="#E8E8E8"/>
<ellipse cx="1308.57" cy="473.893" rx="2.67692" ry="2.70588" transform="rotate(-60 1308.57 473.893)" fill="#E8E8E8"/>
<ellipse cx="1317.94" cy="457.665" rx="2.67692" ry="2.70588" transform="rotate(-60 1317.94 457.665)" fill="#E8E8E8"/>
<ellipse cx="1327.31" cy="441.437" rx="2.67692" ry="2.70588" transform="rotate(-60 1327.31 441.437)" fill="#E8E8E8"/>
<ellipse cx="1336.67" cy="425.208" rx="2.67692" ry="2.70588" transform="rotate(-60 1336.67 425.208)" fill="#E8E8E8"/>
<ellipse cx="1346.05" cy="408.981" rx="2.67692" ry="2.70588" transform="rotate(-60 1346.05 408.981)" fill="#E8E8E8"/>
<ellipse cx="1355.41" cy="392.752" rx="2.67692" ry="2.70588" transform="rotate(-60 1355.41 392.752)" fill="#E8E8E8"/>
<ellipse cx="1364.78" cy="376.525" rx="2.67692" ry="2.70588" transform="rotate(-60 1364.78 376.525)" fill="#E8E8E8"/>
<ellipse cx="1374.15" cy="360.297" rx="2.67692" ry="2.70588" transform="rotate(-60 1374.15 360.297)" fill="#E8E8E8"/>
<ellipse cx="1324.97" cy="483.364" rx="2.67692" ry="2.70588" transform="rotate(-60 1324.97 483.364)" fill="#E8E8E8"/>
<ellipse cx="1334.34" cy="467.135" rx="2.67692" ry="2.70588" transform="rotate(-60 1334.34 467.135)" fill="#E8E8E8"/>
<ellipse cx="1343.71" cy="450.908" rx="2.67692" ry="2.70588" transform="rotate(-60 1343.71 450.908)" fill="#E8E8E8"/>
<ellipse cx="1353.08" cy="434.679" rx="2.67692" ry="2.70588" transform="rotate(-60 1353.08 434.679)" fill="#E8E8E8"/>
<ellipse cx="1362.45" cy="418.452" rx="2.67692" ry="2.70588" transform="rotate(-60 1362.45 418.452)" fill="#E8E8E8"/>
<ellipse cx="1371.82" cy="402.223" rx="2.67692" ry="2.70588" transform="rotate(-60 1371.82 402.223)" fill="#E8E8E8"/>
<ellipse cx="1381.19" cy="385.996" rx="2.67692" ry="2.70588" transform="rotate(-60 1381.19 385.996)" fill="#E8E8E8"/>
<ellipse cx="1390.56" cy="369.767" rx="2.67692" ry="2.70588" transform="rotate(-60 1390.56 369.767)" fill="#E8E8E8"/>
<ellipse cx="1341.37" cy="492.833" rx="2.67692" ry="2.70588" transform="rotate(-60 1341.37 492.833)" fill="#E8E8E8"/>
<ellipse cx="1350.74" cy="476.606" rx="2.67692" ry="2.70588" transform="rotate(-60 1350.74 476.606)" fill="#E8E8E8"/>
<ellipse cx="1360.11" cy="460.378" rx="2.67692" ry="2.70588" transform="rotate(-60 1360.11 460.378)" fill="#E8E8E8"/>
<ellipse cx="1369.48" cy="444.15" rx="2.67692" ry="2.70588" transform="rotate(-60 1369.48 444.15)" fill="#E8E8E8"/>
<ellipse cx="1378.85" cy="427.922" rx="2.67692" ry="2.70588" transform="rotate(-60 1378.85 427.922)" fill="#E8E8E8"/>
<ellipse cx="1388.22" cy="411.694" rx="2.67692" ry="2.70588" transform="rotate(-60 1388.22 411.694)" fill="#E8E8E8"/>
<ellipse cx="1397.59" cy="395.466" rx="2.67692" ry="2.70588" transform="rotate(-60 1397.59 395.466)" fill="#E8E8E8"/>
<ellipse cx="1406.96" cy="379.238" rx="2.67692" ry="2.70588" transform="rotate(-60 1406.96 379.238)" fill="#E8E8E8"/>
<ellipse cx="1367.15" cy="486.077" rx="2.67692" ry="2.70588" transform="rotate(-60 1367.15 486.077)" fill="#E8E8E8"/>
<ellipse cx="1376.52" cy="469.848" rx="2.67692" ry="2.70588" transform="rotate(-60 1376.52 469.848)" fill="#E8E8E8"/>
<ellipse cx="1385.89" cy="453.621" rx="2.67692" ry="2.70588" transform="rotate(-60 1385.89 453.621)" fill="#E8E8E8"/>
<ellipse cx="1395.26" cy="437.393" rx="2.67692" ry="2.70588" transform="rotate(-60 1395.26 437.393)" fill="#E8E8E8"/>
<ellipse cx="1404.62" cy="421.165" rx="2.67692" ry="2.70588" transform="rotate(-60 1404.62 421.165)" fill="#E8E8E8"/>
<ellipse cx="1413.99" cy="404.937" rx="2.67692" ry="2.70588" transform="rotate(-60 1413.99 404.937)" fill="#E8E8E8"/>
<ellipse cx="1423.36" cy="388.708" rx="2.67692" ry="2.70588" transform="rotate(-60 1423.36 388.708)" fill="#E8E8E8"/>
<ellipse cx="1383.55" cy="495.547" rx="2.67692" ry="2.70588" transform="rotate(-60 1383.55 495.547)" fill="#E8E8E8"/>
<ellipse cx="1392.92" cy="479.319" rx="2.67692" ry="2.70588" transform="rotate(-60 1392.92 479.319)" fill="#E8E8E8"/>
<ellipse cx="1402.29" cy="463.091" rx="2.67692" ry="2.70588" transform="rotate(-60 1402.29 463.091)" fill="#E8E8E8"/>
<ellipse cx="1411.66" cy="446.863" rx="2.67692" ry="2.70588" transform="rotate(-60 1411.66 446.863)" fill="#E8E8E8"/>
<ellipse cx="1421.03" cy="430.635" rx="2.67692" ry="2.70588" transform="rotate(-60 1421.03 430.635)" fill="#E8E8E8"/>
<ellipse cx="1430.4" cy="414.408" rx="2.67692" ry="2.70588" transform="rotate(-60 1430.4 414.408)" fill="#E8E8E8"/>
<ellipse cx="1439.76" cy="398.179" rx="2.67692" ry="2.70588" transform="rotate(-60 1439.76 398.179)" fill="#E8E8E8"/>
<ellipse cx="1409.32" cy="488.79" rx="2.67692" ry="2.70588" transform="rotate(-60 1409.32 488.79)" fill="#E8E8E8"/>
<ellipse cx="1418.69" cy="472.562" rx="2.67692" ry="2.70588" transform="rotate(-60 1418.69 472.562)" fill="#E8E8E8"/>
<ellipse cx="1428.06" cy="456.333" rx="2.67692" ry="2.70588" transform="rotate(-60 1428.06 456.333)" fill="#E8E8E8"/>
<ellipse cx="1437.43" cy="440.106" rx="2.67692" ry="2.70588" transform="rotate(-60 1437.43 440.106)" fill="#E8E8E8"/>
<ellipse cx="1435.1" cy="482.033" rx="2.67692" ry="2.70588" transform="rotate(-60 1435.1 482.033)" fill="#E8E8E8"/>
<ellipse cx="8.0049" cy="174.329" rx="2.67692" ry="2.70588" transform="rotate(-120 8.0049 174.329)" fill="#E8E8E8"/>
<ellipse cx="-1.36424" cy="158.1" rx="2.67692" ry="2.70588" transform="rotate(-120 -1.36424 158.1)" fill="#E8E8E8"/>
<ellipse cx="24.4092" cy="164.858" rx="2.67692" ry="2.70588" transform="rotate(-120 24.4092 164.858)" fill="#E8E8E8"/>
<ellipse cx="15.0401" cy="148.63" rx="2.67692" ry="2.70588" transform="rotate(-120 15.0401 148.63)" fill="#E8E8E8"/>
<ellipse cx="5.67092" cy="132.402" rx="2.67692" ry="2.70588" transform="rotate(-120 5.67092 132.402)" fill="#E8E8E8"/>
<ellipse cx="40.8115" cy="155.387" rx="2.67692" ry="2.70588" transform="rotate(-120 40.8115 155.387)" fill="#E8E8E8"/>
<ellipse cx="31.4424" cy="139.159" rx="2.67692" ry="2.70588" transform="rotate(-120 31.4424 139.159)" fill="#E8E8E8"/>
<ellipse cx="22.0733" cy="122.931" rx="2.67692" ry="2.70588" transform="rotate(-120 22.0733 122.931)" fill="#E8E8E8"/>
<ellipse cx="12.7041" cy="106.703" rx="2.67692" ry="2.70588" transform="rotate(-120 12.7041 106.703)" fill="#E8E8E8"/>
<ellipse cx="3.33498" cy="90.4743" rx="2.67692" ry="2.70588" transform="rotate(-120 3.33498 90.4743)" fill="#E8E8E8"/>
<ellipse cx="57.2158" cy="145.917" rx="2.67692" ry="2.70588" transform="rotate(-120 57.2158 145.917)" fill="#E8E8E8"/>
<ellipse cx="47.8467" cy="129.689" rx="2.67692" ry="2.70588" transform="rotate(-120 47.8467 129.689)" fill="#E8E8E8"/>
<ellipse cx="38.4776" cy="113.461" rx="2.67692" ry="2.70588" transform="rotate(-120 38.4776 113.461)" fill="#E8E8E8"/>
<ellipse cx="29.1084" cy="97.2331" rx="2.67692" ry="2.70588" transform="rotate(-120 29.1084 97.2331)" fill="#E8E8E8"/>
<ellipse cx="19.7393" cy="81.0046" rx="2.67692" ry="2.70588" transform="rotate(-120 19.7393 81.0046)" fill="#E8E8E8"/>
<ellipse cx="10.3701" cy="64.776" rx="2.67692" ry="2.70588" transform="rotate(-120 10.3701 64.776)" fill="#E8E8E8"/>
<ellipse cx="1.00099" cy="48.548" rx="2.67692" ry="2.70588" transform="rotate(-120 1.00099 48.548)" fill="#E8E8E8"/>
<ellipse cx="73.6182" cy="136.446" rx="2.67692" ry="2.70588" transform="rotate(-120 73.6182 136.446)" fill="#E8E8E8"/>
<ellipse cx="64.249" cy="120.218" rx="2.67692" ry="2.70588" transform="rotate(-120 64.249 120.218)" fill="#E8E8E8"/>
<ellipse cx="54.8799" cy="103.99" rx="2.67692" ry="2.70588" transform="rotate(-120 54.8799 103.99)" fill="#E8E8E8"/>
<ellipse cx="45.5108" cy="87.7624" rx="2.67692" ry="2.70588" transform="rotate(-120 45.5108 87.7624)" fill="#E8E8E8"/>
<ellipse cx="36.1416" cy="71.5329" rx="2.67692" ry="2.70588" transform="rotate(-120 36.1416 71.5329)" fill="#E8E8E8"/>
<ellipse cx="26.7725" cy="55.3058" rx="2.67692" ry="2.70588" transform="rotate(-120 26.7725 55.3058)" fill="#E8E8E8"/>
<ellipse cx="17.4033" cy="39.0778" rx="2.67692" ry="2.70588" transform="rotate(-120 17.4033 39.0778)" fill="#E8E8E8"/>
<ellipse cx="8.0342" cy="22.8503" rx="2.67692" ry="2.70588" transform="rotate(-120 8.0342 22.8503)" fill="#E8E8E8"/>
<ellipse cx="-1.33494" cy="6.62174" rx="2.67692" ry="2.70588" transform="rotate(-120 -1.33494 6.62174)" fill="#E8E8E8"/>
<ellipse cx="90.0225" cy="126.975" rx="2.67692" ry="2.70588" transform="rotate(-120 90.0225 126.975)" fill="#E8E8E8"/>
<ellipse cx="80.6533" cy="110.748" rx="2.67692" ry="2.70588" transform="rotate(-120 80.6533 110.748)" fill="#E8E8E8"/>
<ellipse cx="71.2842" cy="94.5192" rx="2.67692" ry="2.70588" transform="rotate(-120 71.2842 94.5192)" fill="#E8E8E8"/>
<ellipse cx="61.9151" cy="78.2917" rx="2.67692" ry="2.70588" transform="rotate(-120 61.9151 78.2917)" fill="#E8E8E8"/>
<ellipse cx="52.5459" cy="62.0627" rx="2.67692" ry="2.70588" transform="rotate(-120 52.5459 62.0627)" fill="#E8E8E8"/>
<ellipse cx="43.1768" cy="45.8356" rx="2.67692" ry="2.70588" transform="rotate(-120 43.1768 45.8356)" fill="#E8E8E8"/>
<ellipse cx="33.8076" cy="29.6071" rx="2.67692" ry="2.70588" transform="rotate(-120 33.8076 29.6071)" fill="#E8E8E8"/>
<ellipse cx="24.4385" cy="13.3796" rx="2.67692" ry="2.70588" transform="rotate(-120 24.4385 13.3796)" fill="#E8E8E8"/>
<ellipse cx="15.0694" cy="-2.84896" rx="2.67692" ry="2.70588" transform="rotate(-120 15.0694 -2.84896)" fill="#E8E8E8"/>
<ellipse cx="106.427" cy="117.505" rx="2.67692" ry="2.70588" transform="rotate(-120 106.427 117.505)" fill="#E8E8E8"/>
<ellipse cx="97.0576" cy="101.276" rx="2.67692" ry="2.70588" transform="rotate(-120 97.0576 101.276)" fill="#E8E8E8"/>
<ellipse cx="87.6885" cy="85.0485" rx="2.67692" ry="2.70588" transform="rotate(-120 87.6885 85.0485)" fill="#E8E8E8"/>
<ellipse cx="78.3194" cy="68.821" rx="2.67692" ry="2.70588" transform="rotate(-120 78.3194 68.821)" fill="#E8E8E8"/>
<ellipse cx="68.9483" cy="52.5915" rx="2.67692" ry="2.70588" transform="rotate(-120 68.9483 52.5915)" fill="#E8E8E8"/>
<ellipse cx="59.5791" cy="36.3649" rx="2.67692" ry="2.70588" transform="rotate(-120 59.5791 36.3649)" fill="#E8E8E8"/>
<ellipse cx="50.21" cy="20.1354" rx="2.67692" ry="2.70588" transform="rotate(-120 50.21 20.1354)" fill="#E8E8E8"/>
<ellipse cx="40.8408" cy="3.90885" rx="2.67692" ry="2.70588" transform="rotate(-120 40.8408 3.90885)" fill="#E8E8E8"/>
<ellipse cx="122.829" cy="108.034" rx="2.67692" ry="2.70588" transform="rotate(-120 122.829 108.034)" fill="#E8E8E8"/>
<ellipse cx="113.46" cy="91.8053" rx="2.67692" ry="2.70588" transform="rotate(-120 113.46 91.8053)" fill="#E8E8E8"/>
<ellipse cx="104.091" cy="75.5778" rx="2.67692" ry="2.70588" transform="rotate(-120 104.091 75.5778)" fill="#E8E8E8"/>
<ellipse cx="94.7217" cy="59.3503" rx="2.67692" ry="2.70588" transform="rotate(-120 94.7217 59.3503)" fill="#E8E8E8"/>
<ellipse cx="85.3526" cy="43.1217" rx="2.67692" ry="2.70588" transform="rotate(-120 85.3526 43.1217)" fill="#E8E8E8"/>
<ellipse cx="75.9834" cy="26.8937" rx="2.67692" ry="2.70588" transform="rotate(-120 75.9834 26.8937)" fill="#E8E8E8"/>
<ellipse cx="66.6143" cy="10.6647" rx="2.67692" ry="2.70588" transform="rotate(-120 66.6143 10.6647)" fill="#E8E8E8"/>
<path d="M1000.93 65.5086C1000.82 64.5506 1001.99 63.9995 1002.65 64.7012L1005.96 68.2091C1006.18 68.4401 1006.5 68.5537 1006.81 68.5153L1011.6 67.9321C1012.56 67.8154 1013.11 68.9894 1012.41 69.6519L1008.9 72.9638C1008.67 73.1818 1008.56 73.4966 1008.59 73.8118L1009.18 78.6008C1009.29 79.5588 1008.12 80.1099 1007.46 79.4082L1004.15 75.9003C1003.93 75.6693 1003.61 75.5557 1003.3 75.5941L998.508 76.1773C997.55 76.294 996.999 75.12 997.701 74.4575L1001.21 71.1456C1001.44 70.9276 1001.55 70.6128 1001.52 70.2976L1000.93 65.5086Z" fill="#4A7CF2" fill-opacity="0.4"/>
<path d="M325.45 279.309C326.169 278.666 327.293 279.315 327.095 280.259L326.109 284.982C326.044 285.293 326.131 285.616 326.342 285.853L329.558 289.449C330.201 290.169 329.553 291.292 328.608 291.095L323.885 290.109C323.574 290.044 323.251 290.13 323.014 290.342L319.418 293.557C318.698 294.201 317.575 293.552 317.772 292.607L318.759 287.885C318.823 287.574 318.737 287.251 318.525 287.014L315.31 283.417C314.667 282.698 315.315 281.575 316.26 281.772L320.982 282.758C321.293 282.823 321.616 282.736 321.853 282.525L325.45 279.309Z" fill="#4A7CF2" fill-opacity="0.4"/>
<circle cx="214.5" cy="68.5" r="4.5" stroke="#4A7CF2" stroke-opacity="0.4" stroke-width="2"/>
<circle cx="1312.5" cy="88.5" r="4.5" stroke="#4A7CF2" stroke-opacity="0.4" stroke-width="2"/>
<circle cx="1142.5" cy="300.5" r="4.5" fill="#4A7CF2" fill-opacity="0.4"/>
<defs>
<linearGradient id="paint0_linear_357_3976" x1="719.5" y1="-579" x2="719.5" y2="348" gradientUnits="userSpaceOnUse">
<stop offset="0.65" stop-color="#4A7CF2" stop-opacity="0"/>
<stop offset="1" stop-color="#4A7CF2" stop-opacity="0.2"/>
</linearGradient>
</defs>
</svg>
