<svg width="204" height="35" viewBox="0 0 204 35" fill="none" xmlns="http://www.w3.org/2000/svg">
<g clip-path="url(#clip0_80_4098)">
<mask id="mask0_80_4098" style="mask-type:luminance" maskUnits="userSpaceOnUse" x="0" y="0" width="36" height="35">
<path d="M35.0152 0H0V34.9997H35.0152V0Z" fill="white"/>
</mask>
<g mask="url(#mask0_80_4098)">
<path fill-rule="evenodd" clip-rule="evenodd" d="M1.43417 24.1491L0.921339 26.0252C0.730214 26.6254 0.462493 27.5069 0.318055 28.2914C0.112341 28.8339 0 29.4223 0 30.037C0 32.5717 1.91563 34.6584 4.37837 34.9312C5.07138 35.0311 5.85557 35.0259 6.7346 34.8968L10.773 34.3398C11.7885 34.1998 12.6223 33.467 12.8922 32.4783L15.6715 22.2744L1.43417 24.1491Z" fill="url(#paint0_linear_80_4098)"/>
<path d="M5.37265 24.632C1.11611 25.2912 0.242188 28.5017 0.242188 28.5017L4.31855 13.5306L25.6187 10.6504L22.7139 21.1963C22.5629 21.7613 22.088 22.1945 21.4993 22.2842L21.3805 22.3038L5.25301 24.6525L5.37265 24.632Z" fill="url(#paint1_linear_80_4098)"/>
<path d="M5.37265 24.632C1.11611 25.2912 0.242188 28.5017 0.242188 28.5017L4.31855 13.5306L25.6187 10.6504L22.7139 21.1963C22.5629 21.7613 22.088 22.1945 21.4993 22.2842L21.3805 22.3038L5.25301 24.6525L5.37265 24.632Z" fill="url(#paint2_linear_80_4098)" fill-opacity="0.8"/>
<path d="M7.78906 15.0805L31.3697 11.5988C31.9306 11.5222 32.3851 11.1117 32.5281 10.5743L34.9616 1.77114C34.9951 1.65155 35.0127 1.5254 35.0127 1.39561C35.0127 0.624891 34.3883 0 33.6164 0C33.5566 0 33.4969 0.00364581 33.4391 0.0109374L10.939 3.33445C8.4952 3.72675 6.52195 5.5285 5.88147 7.87858L2.63672 19.6334C3.28814 17.2555 3.68863 15.822 7.78906 15.0805Z" fill="url(#paint3_linear_80_4098)"/>
<path d="M7.78906 15.0805L31.3697 11.5988C31.9306 11.5222 32.3851 11.1117 32.5281 10.5743L34.9616 1.77114C34.9951 1.65155 35.0127 1.5254 35.0127 1.39561C35.0127 0.624891 34.3883 0 33.6164 0C33.5566 0 33.4969 0.00364581 33.4391 0.0109374L10.939 3.33445C8.4952 3.72675 6.52195 5.5285 5.88147 7.87858L2.63672 19.6334C3.28814 17.2555 3.68863 15.822 7.78906 15.0805Z" fill="url(#paint4_linear_80_4098)"/>
<path d="M7.78906 15.0805L31.3697 11.5988C31.9306 11.5222 32.3851 11.1117 32.5281 10.5743L34.9616 1.77114C34.9951 1.65155 35.0127 1.5254 35.0127 1.39561C35.0127 0.624891 34.3883 0 33.6164 0C33.5566 0 33.4969 0.00364581 33.4391 0.0109374L10.939 3.33445C8.4952 3.72675 6.52195 5.5285 5.88147 7.87858L2.63672 19.6334C3.28814 17.2555 3.68863 15.822 7.78906 15.0805Z" fill="url(#paint5_linear_80_4098)"/>
<path d="M7.78906 15.0805L31.3697 11.5988C31.9306 11.5222 32.3851 11.1117 32.5281 10.5743L34.9616 1.77114C34.9951 1.65155 35.0127 1.5254 35.0127 1.39561C35.0127 0.624891 34.3883 0 33.6164 0C33.5566 0 33.4969 0.00364581 33.4391 0.0109374L10.939 3.33445C8.4952 3.72675 6.52195 5.5285 5.88147 7.87858L2.63672 19.6334C3.28814 17.2555 3.68863 15.822 7.78906 15.0805Z" fill="url(#paint6_linear_80_4098)"/>
<path d="M7.78906 15.0805L31.3697 11.5988C31.9306 11.5222 32.3851 11.1117 32.5281 10.5743L34.9616 1.77114C34.9951 1.65155 35.0127 1.5254 35.0127 1.39561C35.0127 0.624891 34.3883 0 33.6164 0C33.5566 0 33.4969 0.00364581 33.4391 0.0109374L10.939 3.33445C8.4952 3.72675 6.52195 5.5285 5.88147 7.87858L2.63672 19.6334C3.28814 17.2555 3.68863 15.822 7.78906 15.0805Z" fill="url(#paint7_linear_80_4098)"/>
<path d="M7.78906 15.0805L31.3697 11.5988C31.9306 11.5222 32.3851 11.1117 32.5281 10.5743L34.9616 1.77114C34.9951 1.65155 35.0127 1.5254 35.0127 1.39561C35.0127 0.624891 34.3883 0 33.6164 0C33.5566 0 33.4969 0.00364581 33.4391 0.0109374L10.939 3.33445C8.4952 3.72675 6.52195 5.5285 5.88147 7.87858L2.63672 19.6334C3.28814 17.2555 3.68863 15.822 7.78906 15.0805Z" fill="url(#paint8_linear_80_4098)"/>
<path d="M7.78906 15.0805L31.3697 11.5988C31.9306 11.5222 32.3851 11.1117 32.5281 10.5743L34.9616 1.77114C34.9951 1.65155 35.0127 1.5254 35.0127 1.39561C35.0127 0.624891 34.3883 0 33.6164 0C33.5566 0 33.4969 0.00364581 33.4391 0.0109374L10.939 3.33445C8.4952 3.72675 6.52195 5.5285 5.88147 7.87858L2.63672 19.6334C3.28814 17.2555 3.68863 15.822 7.78906 15.0805Z" fill="url(#paint9_linear_80_4098)" fill-opacity="0.4"/>
<path d="M7.78797 15.0815C4.37326 15.6992 3.52559 16.7987 2.96097 18.5218L0.242188 28.5047C0.242188 28.5047 1.111 25.3263 5.31575 24.6466L21.3811 22.3075L21.5001 22.2878C22.0888 22.1982 22.5637 21.7643 22.7147 21.2L25.1044 12.5244L7.78871 15.0815H7.78797Z" fill="url(#paint10_linear_80_4098)"/>
<path d="M7.78797 15.0815C4.37326 15.6992 3.52559 16.7987 2.96097 18.5218L0.242188 28.5047C0.242188 28.5047 1.111 25.3263 5.31575 24.6466L21.3811 22.3075L21.5001 22.2878C22.0888 22.1982 22.5637 21.7643 22.7147 21.2L25.1044 12.5244L7.78871 15.0815H7.78797Z" fill="url(#paint11_linear_80_4098)" fill-opacity="0.2"/>
<path fill-rule="evenodd" clip-rule="evenodd" d="M5.31649 24.6462C1.76316 25.2208 0.595989 27.573 0.318056 28.2899C0.112341 28.8337 0 29.4222 0 30.0369C0 32.5715 1.91563 34.6584 4.37837 34.931C5.07138 35.0309 5.85557 35.0259 6.7346 34.8968L10.773 34.3397C11.7885 34.1997 12.6223 33.4669 12.8922 32.4781L15.4257 23.1748L5.31721 24.647L5.31649 24.6462Z" fill="url(#paint12_linear_80_4098)"/>
</g>
</g>
<path d="M203.536 26.8389C202.656 27.3683 201.611 27.6331 200.403 27.6331C198.769 27.6331 197.448 27.1036 196.441 26.0447C195.441 24.9782 194.941 23.5986 194.941 21.9058C194.941 20.0191 195.482 18.5052 196.564 17.3643C197.646 16.2158 199.09 15.6416 200.895 15.6416C201.902 15.6416 202.79 15.828 203.559 16.2009V18.0802C202.708 17.4836 201.798 17.1853 200.828 17.1853C199.657 17.1853 198.694 17.6066 197.941 18.4493C197.195 19.2845 196.822 20.3845 196.822 21.7492C196.822 23.0915 197.172 24.1505 197.873 24.926C198.582 25.7016 199.53 26.0894 200.716 26.0894C201.716 26.0894 202.656 25.7575 203.536 25.0938V26.8389Z" fill="black"/>
<path d="M191.116 13.0018C190.788 13.0018 190.508 12.8899 190.277 12.6662C190.045 12.4425 189.93 12.1591 189.93 11.8161C189.93 11.473 190.045 11.1896 190.277 10.9659C190.508 10.7347 190.788 10.6191 191.116 10.6191C191.452 10.6191 191.735 10.7347 191.966 10.9659C192.205 11.1896 192.325 11.473 192.325 11.8161C192.325 12.1442 192.205 12.4238 191.966 12.655C191.735 12.8862 191.452 13.0018 191.116 13.0018ZM192.011 27.3647H190.176V15.9102H192.011V27.3647Z" fill="black"/>
<path d="M188.183 17.7672C187.862 17.5211 187.4 17.3981 186.795 17.3981C186.012 17.3981 185.355 17.7672 184.826 18.5055C184.303 19.2438 184.042 20.2505 184.042 21.5257V27.3649H182.207V15.9103H184.042V18.2706H184.087C184.348 17.4652 184.747 16.8388 185.285 16.3913C185.822 15.9364 186.422 15.709 187.086 15.709C187.564 15.709 187.929 15.7612 188.183 15.8656V17.7672Z" fill="black"/>
<path d="M170.614 25.7088H170.57V27.3643H168.734V10.4062H170.57V17.9233H170.614C171.517 16.402 172.838 15.6413 174.576 15.6413C176.046 15.6413 177.195 16.1559 178.023 17.185C178.859 18.2067 179.276 19.5788 179.276 21.3015C179.276 23.218 178.81 24.7543 177.877 25.9102C176.945 27.0586 175.669 27.6328 174.05 27.6328C172.536 27.6328 171.39 26.9915 170.614 25.7088ZM170.57 21.089V22.6886C170.57 23.6357 170.876 24.4411 171.487 25.1048C172.107 25.761 172.89 26.0891 173.837 26.0891C174.949 26.0891 175.818 25.6641 176.445 24.8139C177.079 23.9638 177.396 22.7818 177.396 21.2679C177.396 19.9927 177.102 18.9934 176.512 18.2701C175.923 17.5467 175.124 17.185 174.117 17.185C173.05 17.185 172.192 17.5579 171.543 18.3036C170.894 19.0419 170.57 19.9703 170.57 21.089Z" fill="black"/>
<path d="M165.272 27.3646H163.437V25.5748H163.392C162.594 26.947 161.419 27.6331 159.867 27.6331C158.726 27.6331 157.83 27.3311 157.181 26.727C156.54 26.123 156.219 25.3213 156.219 24.322C156.219 22.1817 157.48 20.9363 160.001 20.5858L163.437 20.1048C163.437 18.1585 162.65 17.1853 161.076 17.1853C159.695 17.1853 158.449 17.6551 157.338 18.5947V16.7155C158.464 15.9996 159.763 15.6416 161.232 15.6416C163.926 15.6416 165.272 17.066 165.272 19.9147V27.3646ZM163.437 21.5702L160.673 21.9505C159.822 22.0699 159.181 22.2824 158.748 22.5882C158.315 22.8865 158.099 23.4197 158.099 24.1878C158.099 24.7471 158.297 25.2057 158.692 25.5637C159.095 25.9141 159.628 26.0894 160.292 26.0894C161.202 26.0894 161.952 25.7725 162.542 25.1386C163.139 24.4972 163.437 23.6881 163.437 22.7112V21.5702Z" fill="black"/>
<path d="M155.124 13.0235H148.857V18.5718H154.654V20.2609H148.857V27.3641H146.977V11.3232H155.124V13.0235Z" fill="black"/>
<path d="M137.989 27.2526C137.556 27.4912 136.986 27.6105 136.277 27.6105C134.27 27.6105 133.266 26.4919 133.266 24.2547V17.4759H131.297V15.9099H133.266V13.1134L135.102 12.5205V15.9099H137.989V17.4759H135.102V23.9303C135.102 24.6984 135.232 25.2465 135.494 25.5747C135.755 25.9028 136.187 26.0668 136.792 26.0668C137.254 26.0668 137.653 25.9401 137.989 25.6865V27.2526Z" fill="black"/>
<path d="M130.728 12.017C130.37 11.8157 129.963 11.715 129.508 11.715C128.225 11.715 127.583 12.5241 127.583 14.1424V15.9098H130.269V17.4759H127.583V27.3643H125.759V17.4759H123.801V15.9098H125.759V14.0529C125.759 12.8523 126.106 11.9052 126.8 11.2116C127.494 10.5107 128.359 10.1602 129.396 10.1602C129.956 10.1602 130.4 10.2273 130.728 10.3615V12.017Z" fill="black"/>
<path d="M116.85 27.6331C115.157 27.6331 113.803 27.0999 112.788 26.0335C111.781 24.9596 111.277 23.539 111.277 21.7716C111.277 19.8476 111.803 18.3449 112.855 17.2636C113.907 16.1823 115.329 15.6416 117.119 15.6416C118.828 15.6416 120.159 16.1673 121.114 17.2188C122.077 18.2703 122.558 19.7282 122.558 21.5926C122.558 23.4197 122.039 24.885 121.002 25.9887C119.973 27.085 118.589 27.6331 116.85 27.6331ZM116.985 17.1853C115.806 17.1853 114.873 17.588 114.187 18.3934C113.501 19.1913 113.157 20.295 113.157 21.7045C113.157 23.0617 113.504 24.1318 114.198 24.9149C114.892 25.6979 115.821 26.0894 116.985 26.0894C118.171 26.0894 119.081 25.7053 119.715 24.9372C120.357 24.1691 120.678 23.0766 120.678 21.6597C120.678 20.2279 120.357 19.1242 119.715 18.3486C119.081 17.5731 118.171 17.1853 116.985 17.1853Z" fill="black"/>
<path d="M101.633 26.9507V24.982C102.633 25.7203 103.733 26.0894 104.934 26.0894C106.546 26.0894 107.351 25.5525 107.351 24.4786C107.351 24.1728 107.281 23.9156 107.139 23.7068C107.005 23.4905 106.818 23.3003 106.579 23.1363C106.348 22.9722 106.072 22.8268 105.751 22.7C105.438 22.5658 105.098 22.4278 104.733 22.2861C104.225 22.0848 103.778 21.8834 103.39 21.6821C103.009 21.4733 102.689 21.2421 102.427 20.9885C102.174 20.7275 101.98 20.433 101.845 20.1048C101.719 19.7767 101.655 19.3927 101.655 18.9527C101.655 18.4157 101.778 17.9422 102.024 17.532C102.271 17.1144 102.599 16.7677 103.009 16.4917C103.42 16.2084 103.886 15.9958 104.408 15.8541C104.938 15.7124 105.483 15.6416 106.042 15.6416C107.034 15.6416 107.922 15.8131 108.706 16.1562V18.013C107.862 17.4612 106.893 17.1853 105.796 17.1853C105.453 17.1853 105.143 17.2263 104.867 17.3083C104.591 17.3829 104.352 17.491 104.151 17.6327C103.957 17.7744 103.804 17.9459 103.692 18.1473C103.588 18.3412 103.535 18.5574 103.535 18.7961C103.535 19.0944 103.588 19.3442 103.692 19.5455C103.804 19.7469 103.964 19.9259 104.173 20.0825C104.382 20.2391 104.636 20.3808 104.934 20.5075C105.233 20.6343 105.572 20.7723 105.953 20.9214C106.46 21.1153 106.915 21.3167 107.318 21.5255C107.721 21.7268 108.064 21.958 108.347 22.219C108.631 22.4726 108.847 22.7671 108.997 23.1027C109.153 23.4383 109.232 23.8373 109.232 24.2996C109.232 24.8664 109.105 25.3586 108.851 25.7762C108.605 26.1938 108.273 26.5406 107.855 26.8165C107.437 27.0924 106.956 27.2975 106.411 27.4317C105.867 27.566 105.296 27.6331 104.699 27.6331C103.52 27.6331 102.498 27.4056 101.633 26.9507Z" fill="black"/>
<path d="M93.6825 27.6321C91.9889 27.6321 90.6348 27.0989 89.6202 26.0325C88.613 24.9586 88.1094 23.538 88.1094 21.7706C88.1094 19.8466 88.6354 18.3439 89.6873 17.2626C90.7393 16.1813 92.1605 15.6406 93.9511 15.6406C95.6596 15.6406 96.9913 16.1664 97.9463 17.2179C98.9087 18.2694 99.3899 19.7273 99.3899 21.5916C99.3899 23.4187 98.8714 24.8841 97.8344 25.9877C96.8048 27.084 95.4209 27.6321 93.6825 27.6321ZM93.8168 17.1843C92.638 17.1843 91.7054 17.587 91.019 18.3924C90.3327 19.1903 89.9895 20.294 89.9895 21.7035C89.9895 23.0607 90.3364 24.1309 91.0302 24.9139C91.7241 25.6969 92.6529 26.0884 93.8168 26.0884C95.0031 26.0884 95.9133 25.7044 96.5474 24.9363C97.189 24.1681 97.5099 23.0756 97.5099 21.6587C97.5099 20.2269 97.189 19.1232 96.5474 18.3477C95.9133 17.5721 95.0031 17.1843 93.8168 17.1843Z" fill="black"/>
<path d="M87.2182 17.7672C86.8974 17.5211 86.4348 17.3981 85.8305 17.3981C85.0471 17.3981 84.3906 17.7672 83.8609 18.5055C83.3386 19.2438 83.0775 20.2505 83.0775 21.5257V27.3649H81.2422V15.9103H83.0775V18.2706H83.1223C83.3834 17.4652 83.7826 16.8388 84.3197 16.3913C84.8569 15.9364 85.4575 15.709 86.1215 15.709C86.599 15.709 86.9645 15.7612 87.2182 15.8656V17.7672Z" fill="black"/>
<path d="M78.4658 26.8379C77.5854 27.3674 76.541 27.6321 75.3323 27.6321C73.6984 27.6321 72.3779 27.1026 71.3707 26.0437C70.371 24.9773 69.8711 23.5977 69.8711 21.9048C69.8711 20.0181 70.412 18.5043 71.4938 17.3633C72.5756 16.2148 74.0192 15.6406 75.8247 15.6406C76.8319 15.6406 77.7197 15.8271 78.4882 16.1999V18.0792C77.6377 17.4826 76.7275 17.1843 75.7576 17.1843C74.5863 17.1843 73.6238 17.6056 72.8703 18.4483C72.1242 19.2836 71.7512 20.3835 71.7512 21.7482C71.7512 23.0906 72.1018 24.1495 72.8031 24.9251C73.5119 25.7006 74.4594 26.0884 75.6457 26.0884C76.6454 26.0884 77.5854 25.7566 78.4658 25.0929V26.8379Z" fill="black"/>
<path d="M66.0456 13.0018C65.7174 13.0018 65.4376 12.8899 65.2063 12.6662C64.975 12.4425 64.8594 12.1591 64.8594 11.8161C64.8594 11.473 64.975 11.1896 65.2063 10.9659C65.4376 10.7347 65.7174 10.6191 66.0456 10.6191C66.3814 10.6191 66.6649 10.7347 66.8961 10.9659C67.1349 11.1896 67.2543 11.473 67.2543 11.8161C67.2543 12.1442 67.1349 12.4238 66.8961 12.655C66.6649 12.8862 66.3814 13.0018 66.0456 13.0018ZM66.9409 27.3647H65.1056V15.9102H66.9409V27.3647Z" fill="black"/>
<path d="M61.1191 27.3641H59.2502V16.6031C59.2502 15.7529 59.3024 14.7126 59.4069 13.4822H59.3621C59.1831 14.2055 59.0227 14.7238 58.8809 15.037L53.3973 27.3641H52.4796L47.0072 15.1265C46.8505 14.7686 46.6901 14.2204 46.526 13.4822H46.4812C46.5409 14.1235 46.5708 15.1713 46.5708 16.6254V27.3641H44.7578V11.3232H47.2422L52.1663 22.5093C52.5468 23.3669 52.793 24.0083 52.9049 24.4333H52.972C53.2928 23.5534 53.5502 22.8971 53.7442 22.4646L58.769 11.3232H61.1191V27.3641Z" fill="black"/>
<defs>
<linearGradient id="paint0_linear_80_4098" x1="7.83539" y1="35.0005" x2="7.83539" y2="22.2744" gradientUnits="userSpaceOnUse">
<stop offset="0.056" stop-color="#2AAC94"/>
<stop offset="0.155" stop-color="#239C87"/>
<stop offset="0.372" stop-color="#177E71"/>
<stop offset="0.588" stop-color="#0E6961"/>
<stop offset="0.799" stop-color="#095D57"/>
<stop offset="1" stop-color="#085954"/>
</linearGradient>
<linearGradient id="paint1_linear_80_4098" x1="23.9229" y1="25.7661" x2="11.6346" y2="12.3949" gradientUnits="userSpaceOnUse">
<stop offset="0.0417478" stop-color="#ABE88E"/>
<stop offset="0.548926" stop-color="#2AAA92"/>
<stop offset="0.906" stop-color="#117865"/>
</linearGradient>
<linearGradient id="paint2_linear_80_4098" x1="-6.28919" y1="25.1163" x2="5.40944" y2="21.125" gradientUnits="userSpaceOnUse">
<stop stop-color="#6AD6F9"/>
<stop offset="1" stop-color="#6AD6F9" stop-opacity="0"/>
</linearGradient>
<linearGradient id="paint3_linear_80_4098" x1="2.63672" y1="9.81669" x2="33.7792" y2="9.81669" gradientUnits="userSpaceOnUse">
<stop offset="0.043" stop-color="#25FFD4"/>
<stop offset="0.874" stop-color="#55DDB9"/>
</linearGradient>
<linearGradient id="paint4_linear_80_4098" x1="14.6236" y1="1.35478" x2="21.2972" y2="15.6719" gradientUnits="userSpaceOnUse">
<stop stop-color="#F4E084" stop-opacity="0.6"/>
<stop offset="0.534" stop-color="#F4E084" stop-opacity="0"/>
</linearGradient>
<linearGradient id="paint5_linear_80_4098" x1="25.7357" y1="-7.55564" x2="34.7327" y2="6.27015" gradientUnits="userSpaceOnUse">
<stop stop-color="#ABF5E2"/>
<stop offset="1" stop-color="#4EE6BD"/>
</linearGradient>
<linearGradient id="paint6_linear_80_4098" x1="18.8247" y1="0" x2="18.8247" y2="19.6334" gradientUnits="userSpaceOnUse">
<stop stop-color="#1F937E"/>
<stop offset="1" stop-color="#9EE09F"/>
</linearGradient>
<linearGradient id="paint7_linear_80_4098" x1="18.8247" y1="0" x2="18.8247" y2="19.6334" gradientUnits="userSpaceOnUse">
<stop stop-color="#1F937E"/>
<stop offset="1" stop-color="#C0ECC7"/>
</linearGradient>
<linearGradient id="paint8_linear_80_4098" x1="2.63672" y1="5.46578" x2="30.6855" y2="18.4961" gradientUnits="userSpaceOnUse">
<stop stop-color="#6AD6F9"/>
<stop offset="0.229501" stop-color="#60E9D0"/>
<stop offset="0.650711" stop-color="#6DE9BB"/>
<stop offset="0.99354" stop-color="#ABE88E"/>
</linearGradient>
<linearGradient id="paint9_linear_80_4098" x1="5.23194" y1="7.90234" x2="20.4854" y2="11.2775" gradientUnits="userSpaceOnUse">
<stop stop-color="white" stop-opacity="0"/>
<stop offset="0.458511" stop-color="white"/>
<stop offset="1" stop-color="white" stop-opacity="0"/>
</linearGradient>
<linearGradient id="paint10_linear_80_4098" x1="10.2889" y1="20.9648" x2="10.649" y2="10.2723" gradientUnits="userSpaceOnUse">
<stop offset="0.204642" stop-color="#063D3B" stop-opacity="0"/>
<stop offset="0.58553" stop-color="#063D3B" stop-opacity="0.236587"/>
<stop offset="0.872285" stop-color="#063D3B" stop-opacity="0.75"/>
</linearGradient>
<linearGradient id="paint11_linear_80_4098" x1="-1.04397" y1="19.9014" x2="11.9913" y2="22.3541" gradientUnits="userSpaceOnUse">
<stop stop-color="white" stop-opacity="0"/>
<stop offset="0.458511" stop-color="white"/>
<stop offset="1" stop-color="white" stop-opacity="0"/>
</linearGradient>
<linearGradient id="paint12_linear_80_4098" x1="8.37303" y1="31.474" x2="5.83241" y2="19.043" gradientUnits="userSpaceOnUse">
<stop offset="0.064" stop-color="#063D3B" stop-opacity="0"/>
<stop offset="0.17" stop-color="#063D3B" stop-opacity="0.135"/>
<stop offset="0.562" stop-color="#063D3B" stop-opacity="0.599"/>
<stop offset="0.85" stop-color="#063D3B" stop-opacity="0.9"/>
<stop offset="1" stop-color="#063D3B"/>
</linearGradient>
<clipPath id="clip0_80_4098">
<rect width="35.0155" height="35" fill="white"/>
</clipPath>
</defs>
</svg>
