<svg width="170" height="50" viewBox="0 0 170 50" fill="none" xmlns="http://www.w3.org/2000/svg">
<path d="M56.2758 27.6556V35.5202H53.8359V14.7129H59.5462C61.7524 14.7129 63.4914 15.2598 64.7113 16.3275C65.9313 17.4212 66.5282 18.9316 66.5282 20.9108C66.5282 22.89 65.8534 24.5046 64.5037 25.7546C63.154 27.0046 61.3112 27.6296 59.0271 27.6296H56.2758V27.6556ZM56.2758 16.9264V25.4681H58.8194C60.5065 25.4681 61.7784 25.0775 62.6609 24.3223C63.5433 23.5671 63.9846 22.4733 63.9846 21.0671C63.9846 18.3327 62.3753 16.9525 59.1309 16.9525H56.2758V16.9264ZM75.1974 35.8848C73.0171 35.8848 71.2522 35.1816 69.9544 33.8014C68.6566 32.4212 68.0077 30.5723 68.0077 28.2806C68.0077 25.7806 68.6826 23.8275 70.0582 22.4212C71.4079 21.015 73.2508 20.3118 75.5608 20.3118C77.767 20.3118 79.4801 20.9889 80.726 22.3691C81.9718 23.7233 82.5948 25.6244 82.5948 28.0462C82.5948 30.416 81.9199 32.3171 80.5962 33.7493C79.2725 35.1816 77.4556 35.8848 75.1974 35.8848ZM75.3791 22.3171C73.8477 22.3171 72.6538 22.8379 71.7713 23.8796C70.8888 24.9212 70.4475 26.3535 70.4475 28.1764C70.4475 29.9473 70.8888 31.3275 71.7972 32.3431C72.7057 33.3587 73.8996 33.8796 75.4051 33.8796C76.9364 33.8796 78.1045 33.3848 78.935 32.3952C79.7656 31.4056 80.1809 29.9733 80.1809 28.1504C80.1809 26.3014 79.7656 24.8691 78.935 23.8535C78.1045 22.8379 76.9105 22.3171 75.3791 22.3171ZM105.02 20.6764L100.582 35.5462H98.1162L95.0535 24.9212C94.9496 24.5046 94.8718 24.0618 94.8199 23.541H94.768C94.742 23.8796 94.6382 24.3483 94.4565 24.8952L91.1342 35.5723H88.7722L84.2819 20.7025H86.7736L89.8364 31.8743C89.9402 32.2129 89.9921 32.6556 90.044 33.2025H90.1479C90.1738 32.7858 90.2517 32.3171 90.4074 31.8483L93.8076 20.7025H95.9879L99.0506 31.9004C99.1545 32.265 99.2323 32.7077 99.2583 33.2285H99.3621C99.3881 32.8639 99.4659 32.3952 99.5957 31.9004L102.607 20.7025H105.02V20.6764ZM119.685 28.6973H109.225C109.251 30.3639 109.718 31.64 110.549 32.5254C111.38 33.4108 112.574 33.8796 114.053 33.8796C115.714 33.8796 117.246 33.3327 118.647 32.2129V34.4525C117.349 35.39 115.636 35.8848 113.482 35.8848C111.38 35.8848 109.744 35.2077 108.55 33.8535C107.356 32.4993 106.759 30.5983 106.759 28.1504C106.759 25.8327 107.408 23.9577 108.706 22.4993C110.004 21.041 111.639 20.3118 113.56 20.3118C115.507 20.3118 116.986 20.9369 118.05 22.1869C119.114 23.4369 119.633 25.1816 119.633 27.4212V28.6973H119.685ZM117.246 26.666C117.246 25.2858 116.908 24.2181 116.259 23.4629C115.61 22.7077 114.702 22.3171 113.56 22.3171C112.444 22.3171 111.483 22.7077 110.705 23.515C109.926 24.3223 109.433 25.3639 109.251 26.666H117.246ZM130.976 23.0723C130.561 22.7598 129.964 22.6035 129.185 22.6035C128.173 22.6035 127.316 23.0723 126.641 24.0358C125.967 24.9993 125.629 26.3014 125.629 27.9421V35.5202H123.267V20.6504H125.629V23.7233H125.681C126.019 22.6816 126.538 21.8744 127.238 21.2754C127.939 20.7025 128.718 20.39 129.574 20.39C130.197 20.39 130.665 20.4681 131.002 20.5983V23.0723H130.976ZM142.007 35.5202V14.7129H147.899C149.69 14.7129 151.118 15.1556 152.156 16.041C153.194 16.9264 153.739 18.0723 153.739 19.4785C153.739 20.6504 153.428 21.6921 152.779 22.5514C152.13 23.4108 151.273 24.0358 150.157 24.4004V24.4525C151.559 24.6087 152.675 25.1556 153.506 26.041C154.336 26.9264 154.751 28.0983 154.751 29.5306C154.751 31.3014 154.103 32.7598 152.831 33.8535C151.559 34.9473 149.95 35.5202 148.003 35.5202H142.007ZM144.421 16.9264V23.6452H146.913C148.237 23.6452 149.301 23.3327 150.053 22.6816C150.806 22.0306 151.195 21.1191 151.195 19.9733C151.195 17.9421 149.872 16.9525 147.224 16.9525H144.421V16.9264ZM144.421 25.8327V33.3327H147.717C149.145 33.3327 150.261 32.9941 151.04 32.3171C151.818 31.64 152.208 30.7025 152.208 29.5306C152.208 27.0827 150.547 25.8327 147.198 25.8327H144.421ZM161.396 35.5202H158.956V14.7129H161.396V35.5202Z" fill="black"/>
<path d="M37.3022 4.2972V43.0733C37.3022 44.0368 36.5235 44.8441 35.5372 44.8441H24.558C23.5976 44.8441 22.793 44.0628 22.793 43.0733V4.2972C22.793 3.33366 23.5716 2.52637 24.558 2.52637H35.5372C36.4975 2.55241 37.3022 3.33366 37.3022 4.2972Z" fill="url(#paint0_linear_80_4090)"/>
<path d="M28.7358 14.8958V44.8698H14.2266V14.8958C14.2266 13.9323 15.0052 13.125 15.9915 13.125H26.9708C27.9311 13.125 28.7358 13.9063 28.7358 14.8958Z" fill="url(#paint1_linear_80_4090)"/>
<path d="M5.66211 25.4691V43.0993C5.66211 44.0628 6.44078 44.8701 7.42709 44.8701H20.1713V25.4691C20.1713 24.5055 19.3926 23.6982 18.4063 23.6982H7.42709C6.46673 23.6982 5.66211 24.4795 5.66211 25.4691Z" fill="url(#paint2_linear_80_4090)"/>
<defs>
<linearGradient id="paint0_linear_80_4090" x1="20.4001" y1="2.53546" x2="38.673" y2="42.3462" gradientUnits="userSpaceOnUse">
<stop stop-color="#E6AD10"/>
<stop offset="1" stop-color="#C87E0E"/>
</linearGradient>
<linearGradient id="paint1_linear_80_4090" x1="13.4384" y1="13.5185" x2="28.8289" y2="44.198" gradientUnits="userSpaceOnUse">
<stop stop-color="#F6D751"/>
<stop offset="1" stop-color="#E6AD10"/>
</linearGradient>
<linearGradient id="paint2_linear_80_4090" x1="8.18238" y1="22.6659" x2="16.6602" y2="43.3177" gradientUnits="userSpaceOnUse">
<stop stop-color="#F9E589"/>
<stop offset="1" stop-color="#F6D751"/>
</linearGradient>
</defs>
</svg>
