<svg xmlns="http://www.w3.org/2000/svg" width="44" height="44" viewBox="0 0 44 44">
  <g id="close" transform="translate(-1746 -38)">
    <rect id="Rectangle_29" data-name="Rectangle 29" width="44" height="44" transform="translate(1746 38)" fill="#020202"/>
    <path id="Icon_metro-cross" data-name="Icon metro-cross" d="M24.4,19.628h0l-6.684-6.684L24.4,6.26h0a.69.69,0,0,0,0-.973L21.244,2.129a.69.69,0,0,0-.973,0h0L13.587,8.813,6.9,2.129h0a.69.69,0,0,0-.973,0L2.772,5.287a.69.69,0,0,0,0,.973h0l6.684,6.684L2.772,19.628h0a.69.69,0,0,0,0,.973l3.157,3.157a.69.69,0,0,0,.973,0h0l6.684-6.684,6.684,6.684h0a.69.69,0,0,0,.973,0L24.4,20.6a.69.69,0,0,0,0-.973Z" transform="translate(1754.838 47.48)" fill="#fff"/>
  </g>
</svg>
