<svg xmlns="http://www.w3.org/2000/svg" width="23" height="22" viewBox="0 0 23 22">
  <g id="instagram" transform="translate(192.153 -524.533)">
    <rect id="Rectangle_32" data-name="Rectangle 32" width="23" height="22" transform="translate(-192.153 524.533)" fill="none"/>
    <path id="Path_13" data-name="Path 13" d="M-130.441,524.64c-2.677,0-3.056.014-4.167.064a7.918,7.918,0,0,0-2.611.5,5.274,5.274,0,0,0-1.9,1.241,5.276,5.276,0,0,0-1.241,1.9,7.909,7.909,0,0,0-.5,2.61c-.053,1.147-.064,1.514-.064,4.434s.012,3.286.064,4.434a7.908,7.908,0,0,0,.5,2.61,5.276,5.276,0,0,0,1.241,1.9,5.273,5.273,0,0,0,1.9,1.241,7.9,7.9,0,0,0,2.611.5c1.147.052,1.513.065,4.434.065s3.286-.013,4.434-.065a7.894,7.894,0,0,0,2.61-.5,5.275,5.275,0,0,0,1.9-1.241,5.274,5.274,0,0,0,1.24-1.9,7.873,7.873,0,0,0,.5-2.61c.051-1.111.064-1.49.065-4.168v-.532c0-2.678-.014-3.057-.065-4.168a7.874,7.874,0,0,0-.5-2.61,5.274,5.274,0,0,0-1.24-1.9,5.276,5.276,0,0,0-1.9-1.241,7.91,7.91,0,0,0-2.61-.5c-1.112-.05-1.49-.064-4.168-.064Zm7.3,5.013a1.29,1.29,0,0,1-1.29,1.29,1.29,1.29,0,0,1-1.29-1.29,1.29,1.29,0,0,1,1.29-1.29,1.29,1.29,0,0,1,1.29,1.29Zm-7.03,9.324a3.584,3.584,0,0,1-3.584-3.584,3.584,3.584,0,0,1,3.584-3.584,3.584,3.584,0,0,1,3.584,3.584,3.584,3.584,0,0,1-3.584,3.584Zm0-9.107a5.522,5.522,0,0,1,5.522,5.522,5.521,5.521,0,0,1-5.522,5.522,5.522,5.522,0,0,1-5.522-5.522,5.522,5.522,0,0,1,5.522-5.522Zm0-3.293c2.871,0,3.211.01,4.345.062a5.972,5.972,0,0,1,2,.37,3.341,3.341,0,0,1,1.236.8,3.342,3.342,0,0,1,.8,1.236,5.96,5.96,0,0,1,.37,2c.052,1.134.063,1.474.063,4.345s-.011,3.211-.063,4.345a5.956,5.956,0,0,1-.37,2,3.342,3.342,0,0,1-.8,1.236,3.342,3.342,0,0,1-1.236.8,5.974,5.974,0,0,1-2,.37c-1.133.052-1.474.062-4.345.062s-3.212-.01-4.345-.062a5.965,5.965,0,0,1-2-.37,3.336,3.336,0,0,1-1.236-.8,3.325,3.325,0,0,1-.8-1.236,5.932,5.932,0,0,1-.37-2c-.052-1.134-.063-1.474-.063-4.345s.011-3.211.063-4.345a5.936,5.936,0,0,1,.37-2,3.325,3.325,0,0,1,.8-1.236,3.335,3.335,0,0,1,1.236-.8,5.963,5.963,0,0,1,2-.37C-133.386,526.588-133.046,526.578-130.175,526.578Z" transform="translate(-50.225)" fill="#fff" fill-rule="evenodd"/>
  </g>
</svg>
