<svg xmlns="http://www.w3.org/2000/svg" width="62" height="150" viewBox="0 0 62 150">
  <g id="play" transform="translate(-1171 -4023)">
    <g id="Ellipse_9" data-name="Ellipse 9" transform="translate(1171 4023)" fill="none" stroke="#fff" stroke-width="2">
      <circle cx="31" cy="31" r="31" stroke="none"/>
      <circle cx="31" cy="31" r="30" fill="none"/>
    </g>
    <g id="Ellipse_10" data-name="Ellipse 10" transform="translate(1171 4111)" fill="none" stroke="#fff" stroke-width="2">
      <circle cx="31" cy="31" r="31" stroke="none"/>
      <circle cx="31" cy="31" r="30" fill="none"/>
    </g>
    <path id="Icon_awesome-play" data-name="Icon awesome-play" d="M18.567,9.394,3.167.29A2.088,2.088,0,0,0,0,2.1V20.3a2.1,2.1,0,0,0,3.167,1.807l15.4-9.1A2.1,2.1,0,0,0,18.567,9.394Z" transform="translate(1194.95 4042.798)" fill="#fff"/>
    <g id="Group_72" data-name="Group 72" transform="translate(-0.5 0.5)">
      <line id="Line_21" data-name="Line 21" y2="22" transform="translate(1197.5 4130.5)" fill="none" stroke="#fff" stroke-linecap="round" stroke-width="3"/>
      <path id="Path_14" data-name="Path 14" d="M0,0V22" transform="translate(1208.5 4130.5)" fill="none" stroke="#fff" stroke-linecap="round" stroke-width="3"/>
    </g>
  </g>
</svg>
