<svg xmlns="http://www.w3.org/2000/svg" width="23" height="22" viewBox="0 0 23 22">
  <g id="twitter" transform="translate(173.153 -524.533)">
    <path id="Path_11" data-name="Path 11" d="M-66.509,531.869A12.482,12.482,0,0,1-79.051,545a12.477,12.477,0,0,1-6.764-1.984,8.871,8.871,0,0,0,6.533-1.827,4.417,4.417,0,0,1-4.122-3.064,4.411,4.411,0,0,0,1.992-.076,4.417,4.417,0,0,1-3.54-4.382,4.4,4.4,0,0,0,2,.552,4.418,4.418,0,0,1-1.365-5.891,12.526,12.526,0,0,0,9.095,4.61,4.417,4.417,0,0,1,4.3-5.418,4.406,4.406,0,0,1,3.22,1.394,8.859,8.859,0,0,0,2.8-1.071,4.434,4.434,0,0,1-1.94,2.442,8.811,8.811,0,0,0,2.533-.7A8.915,8.915,0,0,1-66.509,531.869Z" transform="translate(-86.338 -0.863)" fill="#fff" fill-rule="evenodd"/>
    <rect id="Rectangle_33" data-name="Rectangle 33" width="23" height="22" transform="translate(-173.153 524.533)" fill="none"/>
  </g>
</svg>
