<svg xmlns="http://www.w3.org/2000/svg" width="23" height="22" viewBox="0 0 23 22">
  <g id="youtube" transform="translate(252.153 -524.533)">
    <rect id="Rectangle_30" data-name="Rectangle 30" width="23" height="22" transform="translate(-252.153 524.533)" fill="none"/>
    <path id="Path_10" data-name="Path 10" d="M-229.847,531.835c-.183-1.568-.559-2.026-.825-2.235a4.393,4.393,0,0,0-2.228-.517c-1.658-.113-4.462-.18-7.5-.18s-5.841.067-7.5.18a4.391,4.391,0,0,0-2.228.517c-.266.209-.641.667-.826,2.235a58.878,58.878,0,0,0,0,9.674c.185,1.568.56,2.025.826,2.233a4.379,4.379,0,0,0,2.228.52c1.658.111,4.461.179,7.5.179s5.842-.067,7.5-.179a4.381,4.381,0,0,0,2.228-.52c.265-.208.641-.666.825-2.233a58.569,58.569,0,0,0,0-9.674Zm-13.148,8.219h0v-6.765l6.487,3.382Z" transform="translate(0 -1.279)" fill="#fff" fill-rule="evenodd"/>
  </g>
</svg>
