<svg width="40" height="40" viewBox="0 0 40 40" fill="none" xmlns="http://www.w3.org/2000/svg">
<circle cx="20" cy="20" r="20" fill="#EA4C89"/>
<g clip-path="url(#clip0)">
<path d="M29.8306 24.749C29.7796 24.6635 29.4637 23.977 27.9436 22.5662C26.3522 21.0888 26.566 21.3287 28.4827 18.7742C29.6501 17.2185 30.1168 16.2684 29.9708 15.8623C29.8318 15.4751 28.9732 15.5772 28.9732 15.5772L26.1182 15.5939C26.1182 15.5939 25.9069 15.5654 25.7489 15.6592C25.5957 15.7518 25.4971 15.9656 25.4971 15.9656C25.4971 15.9656 25.0447 17.1698 24.4414 18.1935C23.1695 20.3537 22.66 20.4677 22.4522 20.3335C21.9688 20.0212 22.0899 19.0771 22.0899 18.4073C22.0899 16.3135 22.407 15.4407 21.4712 15.215C21.1601 15.1402 20.932 15.0903 20.1376 15.082C19.1186 15.0713 18.2552 15.0856 17.7671 15.3243C17.4417 15.4834 17.1912 15.8385 17.3444 15.8587C17.5332 15.8836 17.9607 15.9739 18.1875 16.2827C18.4809 16.6805 18.4702 17.5759 18.4702 17.5759C18.4702 17.5759 18.6388 20.0402 18.0771 20.3466C17.6911 20.5568 17.1627 20.1281 16.0285 18.1674C15.4478 17.1638 15.0084 16.0535 15.0084 16.0535C15.0084 16.0535 14.9241 15.8468 14.7732 15.7364C14.5903 15.6022 14.3338 15.5594 14.3338 15.5594L11.619 15.576C11.619 15.576 11.2117 15.5879 11.062 15.7649C10.929 15.9228 11.0513 16.2482 11.0513 16.2482C11.0513 16.2482 13.1771 21.2206 15.5832 23.7276C17.7909 26.0256 20.2967 25.8748 20.2967 25.8748H21.432C21.432 25.8748 21.7752 25.8368 21.9498 25.648C22.1113 25.4746 22.1054 25.1492 22.1054 25.1492C22.1054 25.1492 22.0828 23.6255 22.7906 23.4011C23.4877 23.1802 24.3832 24.8737 25.3321 25.5257C26.0494 26.0185 26.5945 25.9104 26.5945 25.9104L29.1323 25.8748C29.1323 25.8748 30.4601 25.7929 29.8306 24.749Z" fill="white"/>
</g>
<defs>
<clipPath id="clip0">
<rect width="19" height="19" fill="white" transform="translate(11 11)"/>
</clipPath>
</defs>
</svg>
