<svg width="40" height="40" viewBox="0 0 40 40" fill="none" xmlns="http://www.w3.org/2000/svg">
<circle cx="20" cy="20" r="20" fill="#EA4C89"/>
<path d="M20.0022 10H19.9978C15.0354 10 11 14.0365 11 19C11 20.9688 11.6345 22.7935 12.7134 24.2751L11.5918 27.6186L15.0511 26.5128C16.4742 27.4555 18.1719 28 20.0022 28C24.9646 28 29 23.9624 29 19C29 14.0376 24.9646 10 20.0022 10ZM25.2391 22.7091C25.022 23.3223 24.1602 23.8307 23.4729 23.9792C23.0026 24.0794 22.3884 24.1593 20.3206 23.302C17.6757 22.2063 15.9725 19.5186 15.8398 19.3442C15.7126 19.1699 14.771 17.9211 14.771 16.6296C14.771 15.3381 15.4269 14.7092 15.6912 14.4392C15.9084 14.2176 16.2673 14.1164 16.6115 14.1164C16.7229 14.1164 16.823 14.122 16.913 14.1265C17.1774 14.1378 17.3101 14.1535 17.4845 14.5709C17.7016 15.094 18.2304 16.3855 18.2934 16.5182C18.3575 16.651 18.4216 16.831 18.3316 17.0054C18.2473 17.1854 18.173 17.2652 18.0402 17.4183C17.9075 17.5712 17.7815 17.6883 17.6487 17.8525C17.5272 17.9954 17.39 18.1484 17.543 18.4128C17.696 18.6715 18.2248 19.5344 19.0033 20.2274C20.0079 21.1217 20.8224 21.4075 21.1137 21.529C21.3309 21.619 21.5896 21.5976 21.7483 21.4289C21.9496 21.2118 22.1982 20.8518 22.4514 20.4974C22.6314 20.2431 22.8586 20.2116 23.0971 20.3016C23.3401 20.386 24.626 21.0216 24.8904 21.1532C25.1547 21.286 25.3291 21.349 25.3932 21.4604C25.4562 21.5718 25.4562 22.0949 25.2391 22.7091Z" fill="white"/>
</svg>
