<svg width="20" height="20" viewBox="0 0 20 20" fill="none" xmlns="http://www.w3.org/2000/svg">
<path d="M18.7616 5.01526C17.6202 5.01526 16.5671 4.63713 15.7214 3.99924C14.7515 3.26799 14.0546 2.19534 13.8085 0.959009C13.7476 0.65354 13.7147 0.338306 13.7116 0.0152588H10.4511V8.92463L10.4472 13.8047C10.4472 15.1094 9.59755 16.2156 8.41982 16.6047C8.07802 16.7176 7.70888 16.7711 7.3245 16.75C6.83388 16.7231 6.37411 16.575 5.9745 16.336C5.12411 15.8274 4.54755 14.9047 4.53193 13.8492C4.50732 12.1996 5.84091 10.8547 7.48935 10.8547C7.81474 10.8547 8.12724 10.9078 8.41982 11.0043V8.56917V7.69377C8.11122 7.64807 7.79716 7.62424 7.47958 7.62424C5.67529 7.62424 3.98779 8.37424 2.78154 9.72542C1.86982 10.7465 1.32294 12.0492 1.23857 13.4153C1.12802 15.2098 1.78466 16.9156 3.0581 18.1742C3.24521 18.359 3.44169 18.5305 3.64716 18.6887C4.73896 19.5289 6.07372 19.9844 7.47958 19.9844C7.79716 19.9844 8.11122 19.961 8.41982 19.9153C9.7331 19.7207 10.9448 19.1196 11.9011 18.1742C13.0761 17.0129 13.7253 15.4711 13.7323 13.8301L13.7155 6.5426C14.2761 6.97502 14.889 7.33284 15.5468 7.61057C16.5698 8.04221 17.6546 8.26096 18.771 8.26057V5.89299V5.01448C18.7718 5.01526 18.7624 5.01526 18.7616 5.01526Z" fill="black"/>
</svg>
