<svg width="280" height="56" viewBox="0 0 280 56" fill="none" xmlns="http://www.w3.org/2000/svg">
<rect width="280" height="56" fill="white"/>
<path d="M119.28 36H125.928V34.872H120.456V24.48H119.28V36ZM131.643 36.24C132.795 36.24 133.766 35.9867 134.555 35.48C135.345 34.9733 135.942 34.2693 136.347 33.368C136.753 32.4613 136.955 31.4187 136.955 30.24C136.955 29.056 136.753 28.0133 136.347 27.112C135.942 26.2107 135.345 25.5067 134.555 25C133.766 24.4933 132.795 24.24 131.643 24.24C130.497 24.24 129.529 24.4933 128.739 25C127.95 25.5067 127.353 26.2107 126.947 27.112C126.542 28.0133 126.339 29.056 126.339 30.24C126.339 31.4187 126.542 32.4613 126.947 33.368C127.353 34.2693 127.95 34.9733 128.739 35.48C129.529 35.9867 130.497 36.24 131.643 36.24ZM131.643 35.112C130.742 35.1067 129.987 34.8987 129.379 34.488C128.777 34.0773 128.326 33.5067 128.027 32.776C127.729 32.0453 127.582 31.2 127.587 30.24C127.598 29.28 127.753 28.4347 128.051 27.704C128.35 26.968 128.798 26.3947 129.395 25.984C129.993 25.568 130.742 25.3627 131.643 25.368C132.545 25.3733 133.297 25.5813 133.899 25.992C134.502 26.4027 134.953 26.9733 135.251 27.704C135.555 28.4347 135.707 29.28 135.707 30.24C135.707 31.2 135.555 32.048 135.251 32.784C134.953 33.5147 134.502 34.0853 133.899 34.496C133.297 34.9067 132.545 35.112 131.643 35.112ZM143.174 36.24C144.304 36.24 145.243 36.0053 145.99 35.536C146.742 35.0613 147.304 34.4133 147.678 33.592C148.051 32.7707 148.238 31.8427 148.238 30.808C148.238 30.7493 148.235 30.6533 148.23 30.52C148.224 30.3813 148.216 30.2507 148.206 30.128H144.318V31.136H146.974C146.915 32.3627 146.584 33.3333 145.982 34.048C145.379 34.7627 144.459 35.1173 143.222 35.112C142.32 35.1067 141.566 34.8987 140.958 34.488C140.355 34.0773 139.904 33.5067 139.606 32.776C139.307 32.0453 139.16 31.2 139.166 30.24C139.176 29.28 139.331 28.4347 139.63 27.704C139.928 26.9733 140.376 26.4027 140.974 25.992C141.571 25.5813 142.32 25.3787 143.222 25.384C144.07 25.384 144.779 25.5947 145.35 26.016C145.926 26.4373 146.342 27 146.598 27.704L147.782 27.416C147.478 26.4507 146.939 25.6827 146.166 25.112C145.398 24.536 144.4 24.248 143.174 24.248C142.075 24.248 141.134 24.496 140.35 24.992C139.566 25.488 138.963 26.184 138.542 27.08C138.126 27.976 137.918 29.0293 137.918 30.24C137.918 31.456 138.128 32.5147 138.55 33.416C138.976 34.312 139.582 35.008 140.366 35.504C141.15 35.9947 142.086 36.24 143.174 36.24ZM154.503 36.24C155.655 36.24 156.625 35.9867 157.415 35.48C158.204 34.9733 158.801 34.2693 159.207 33.368C159.612 32.4613 159.815 31.4187 159.815 30.24C159.815 29.056 159.612 28.0133 159.207 27.112C158.801 26.2107 158.204 25.5067 157.415 25C156.625 24.4933 155.655 24.24 154.503 24.24C153.356 24.24 152.388 24.4933 151.599 25C150.809 25.5067 150.212 26.2107 149.807 27.112C149.401 28.0133 149.199 29.056 149.199 30.24C149.199 31.4187 149.401 32.4613 149.807 33.368C150.212 34.2693 150.809 34.9733 151.599 35.48C152.388 35.9867 153.356 36.24 154.503 36.24ZM154.503 35.112C153.601 35.1067 152.847 34.8987 152.239 34.488C151.636 34.0773 151.185 33.5067 150.887 32.776C150.588 32.0453 150.441 31.2 150.447 30.24C150.457 29.28 150.612 28.4347 150.911 27.704C151.209 26.968 151.657 26.3947 152.255 25.984C152.852 25.568 153.601 25.3627 154.503 25.368C155.404 25.3733 156.156 25.5813 156.759 25.992C157.361 26.4027 157.812 26.9733 158.111 27.704C158.415 28.4347 158.567 29.28 158.567 30.24C158.567 31.2 158.415 32.048 158.111 32.784C157.812 33.5147 157.361 34.0853 156.759 34.496C156.156 34.9067 155.404 35.112 154.503 35.112Z" fill="#212121"/>
</svg>
