<svg width="88" height="88" viewBox="0 0 88 88" fill="none" xmlns="http://www.w3.org/2000/svg">
<path d="M44 88C68.3005 88 88 68.3005 88 44C88 19.6995 68.3005 0 44 0C19.6995 0 0 19.6995 0 44C0 68.3005 19.6995 88 44 88Z" fill="#27ADE4"/>
<path d="M15.0136 36.1594L13.6402 32.7682L12.2749 36.1594H15.0136ZM45.2545 34.8088C44.9788 34.9791 44.653 34.9847 44.2625 34.9847H41.8253V33.0956H44.2952C44.6446 33.0956 45.0095 33.1102 45.2462 33.2476C45.506 33.3728 45.6666 33.6366 45.6666 34.0008C45.6673 34.3717 45.5138 34.6712 45.2545 34.8088ZM62.6354 36.1594L61.2481 32.7682L59.8683 36.1594H62.6354ZM30.2358 39.8297H28.1793L28.1717 33.1671L25.2634 39.8297H23.5022L20.5871 33.1615V39.8297H16.5074L15.7368 37.9323H11.5615L10.7826 39.8297H8.60459L12.1958 31.3231H15.1763L18.5868 39.3767V31.3231H21.8597L24.4845 37.0938L26.8953 31.3231H30.2357V39.8297H30.2358ZM38.4305 39.8297H31.7304V31.3231H38.4307V33.0954H33.737V34.6287H38.3182V36.3726H33.737V38.0691H38.4307L38.4305 39.8297ZM47.8772 33.6151C47.8772 34.9698 46.9838 35.6722 46.4635 35.8815C46.9026 36.0517 47.2777 36.3505 47.4556 36.5991C47.7391 37.0208 47.7883 37.3996 47.7883 38.1581V39.8297H45.7652L45.7575 38.7571C45.7575 38.245 45.8055 37.5078 45.4408 37.0993C45.1476 36.8006 44.7016 36.7352 43.9789 36.7352H41.8253V39.8297H39.8196V31.3231H44.4335C45.459 31.3231 46.2141 31.3502 46.8616 31.7303C47.4966 32.1117 47.8772 32.6654 47.8772 33.6151ZM51.0871 39.8297H49.0409V31.3238H51.0871V39.8297ZM74.8278 39.8297H71.9849L68.1839 33.4448V39.8297H64.0986L63.3191 37.9323H59.1527L58.3948 39.8297H56.0478C55.0737 39.8297 53.8384 39.6108 53.1395 38.8883C52.4343 38.1664 52.0682 37.1883 52.0682 35.641C52.0682 34.3807 52.2863 33.2254 53.1499 32.3159C53.7981 31.6365 54.8138 31.3231 56.1958 31.3231H58.1369V33.1455H56.2361C55.5045 33.1455 55.0917 33.256 54.6931 33.65C54.3513 34.0091 54.1164 34.6859 54.1164 35.5773C54.1164 36.4881 54.2956 37.1454 54.6688 37.5741C54.9766 37.9111 55.5379 38.0132 56.066 38.0132H56.9663L59.7933 31.324H62.7988L66.1941 39.37V31.324H69.2484L72.7736 37.2475V31.324H74.828L74.8278 39.8297ZM8.58157 41.5006H12.0081L12.7807 39.6108H14.5099L15.2804 41.5006H22.0231V40.0563L22.6255 41.5062H26.1249L26.7265 40.0347V41.5006H43.4828L43.4745 38.3985H43.7988C44.0261 38.4069 44.092 38.4284 44.092 38.8085V41.5006H52.7585V40.7787C53.4581 41.1588 54.5455 41.5006 55.9767 41.5006H59.6221L60.4023 39.6108H62.1323L62.895 41.5006H69.9205V39.7053L70.9848 41.5006H76.6151V29.637H71.0424V31.0383L70.2629 29.637H64.545V31.0383L63.8294 29.637H56.1061C54.8145 29.637 53.678 29.8204 52.7594 30.3297V29.637H47.4299V30.3297C46.8464 29.8044 46.0509 29.637 45.1651 29.637H25.6944L24.3881 32.7008L23.0466 29.637H16.9131V31.0383L16.2391 29.637H11.0099L8.58027 35.2777L5.79492 41.5006H8.58157Z" fill="#2D78BC"/>
<path d="M15.0136 36.8538L13.6402 33.4626L12.2749 36.8538H15.0136ZM45.2545 35.5032C44.9788 35.6735 44.653 35.6791 44.2625 35.6791H41.8253V33.79H44.2952C44.6446 33.79 45.0095 33.8046 45.2462 33.942C45.506 34.0672 45.6666 34.331 45.6666 34.6952C45.6673 35.0663 45.5138 35.3658 45.2545 35.5032ZM62.6354 36.8538L61.2481 33.4626L59.8683 36.8538H62.6354ZM30.2358 40.5243H28.1793L28.1717 33.8616L25.2634 40.5243H23.5022L20.5871 33.8561V40.5243H16.5074L15.7368 38.6269H11.5615L10.7826 40.5243H8.60459L12.1958 32.0177H15.1763L18.5868 40.0713V32.0177H21.8597L24.4845 37.7884L26.8953 32.0177H30.2357V40.5243H30.2358ZM38.4305 40.5243H31.7304V32.0177H38.4307V33.79H33.737V35.3233H38.3182V37.0672H33.737V38.7637H38.4307L38.4305 40.5243ZM47.8772 34.3097C47.8772 35.6644 46.9838 36.3668 46.4635 36.5761C46.9026 36.7463 47.2777 37.0451 47.4556 37.2937C47.7391 37.7154 47.7883 38.0942 47.7883 38.8527V40.5243H45.7652L45.7575 39.4517C45.7575 38.9396 45.8055 38.2024 45.4408 37.7939C45.1476 37.4952 44.7016 37.4298 43.9789 37.4298H41.8253V40.5243H39.8196V32.0177H44.4335C45.459 32.0177 46.2141 32.0448 46.8616 32.4249C47.4966 32.8063 47.8772 33.3599 47.8772 34.3097ZM51.0871 40.5243H49.0409V32.0184H51.0871V40.5243ZM74.8278 40.5243H71.9849L68.1839 34.1394V40.5243H64.0986L63.3191 38.6269H59.1527L58.3948 40.5243H56.0478C55.0737 40.5243 53.8384 40.3054 53.1395 39.5829C52.4343 38.861 52.0682 37.8829 52.0682 36.3356C52.0682 35.0752 52.2863 33.9199 53.1499 33.0105C53.7981 32.3311 54.8138 32.0177 56.1958 32.0177H58.1369V33.8401H56.2361C55.5045 33.8401 55.0917 33.9506 54.6931 34.3446C54.3513 34.7037 54.1164 35.3805 54.1164 36.2719C54.1164 37.1827 54.2956 37.84 54.6688 38.2687C54.9766 38.6057 55.5379 38.7078 56.066 38.7078H56.9663L59.7933 32.0186H62.7988L66.1941 40.0646V32.0186H69.2484L72.7736 37.9421V32.0186H74.828L74.8278 40.5243ZM8.58157 42.1952H12.0081L12.7807 40.3054H14.5099L15.2804 42.1952H22.0231V40.7508L22.6255 42.2008H26.1249L26.7265 40.7293V42.1952H43.4828L43.4745 39.0931H43.7988C44.0261 39.1015 44.092 39.123 44.092 39.5031V42.1952H52.7585V41.4733C53.4581 41.8534 54.5455 42.1952 55.9767 42.1952H59.6221L60.4023 40.3054H62.1323L62.895 42.1952H69.9205V40.3999L70.9848 42.1952H76.6151V30.3315H71.0424V31.7329L70.2629 30.3315H64.545V31.7329L63.8294 30.3315H56.1061C54.8145 30.3315 53.678 30.515 52.7594 31.0243V30.3315H47.4299V31.0243C46.8464 30.499 46.0509 30.3315 45.1651 30.3315H25.6944L24.3881 33.3954L23.0466 30.3315H16.9131V31.7329L16.2391 30.3315H11.0099L8.58027 35.9722L5.79492 42.1952H8.58157Z" fill="white"/>
<path d="M81.1148 49.5214V44.0786H79.7267H76.0904C74.9698 44.0786 74.1547 44.3503 73.5789 44.7719V44.0786H68.0862C67.2079 44.0786 66.1763 44.2981 65.69 44.7719V44.0786H55.8798V44.7719C55.0995 44.2023 53.7816 44.0786 53.1744 44.0786H46.7041V44.7719C46.0866 44.1668 44.7137 44.0786 43.8764 44.0786H36.6356L34.9786 45.894L33.4265 44.0786H22.6099V55.941H33.2223L34.9299 54.097L36.5375 55.941L43.0801 55.9479V53.1564H43.7227C44.5904 53.1703 45.6138 53.1348 46.517 52.7395V55.9402H51.9131V52.8478H52.1744C52.5065 52.8478 52.5385 52.8625 52.5385 53.198V55.9402H68.9294C69.9708 55.9402 71.0589 55.6699 71.6618 55.1816V55.9402H76.86C77.9425 55.9402 78.9992 55.7867 79.803 55.3934V55.381C80.9772 54.6236 81.758 53.2968 81.758 51.7822C81.7595 50.9511 81.522 50.1765 81.1148 49.5214ZM43.8124 51.4194H41.3085V54.2714H37.4087L34.9376 51.4561L32.3704 54.2714H24.4217V45.769H32.4927L34.9611 48.5557L37.5136 45.769H43.9256C45.5173 45.769 47.3063 46.2158 47.3063 48.5696C47.3063 50.9323 45.5659 51.4194 43.8124 51.4194ZM55.8881 51.0339C56.1716 51.4487 56.2125 51.8357 56.2208 52.586V54.2716H54.2074V53.2078C54.2074 52.6965 54.2553 51.9393 53.8822 51.5432C53.5883 51.2389 53.1431 51.1652 52.41 51.1652H50.2652V54.2714H48.2497V45.769H52.8824C53.898 45.769 54.6374 45.8141 55.2967 46.1706C55.9304 46.5576 56.3285 47.0877 56.3285 48.0582C56.3285 49.4152 55.4343 50.1085 54.9064 50.3203C55.3509 50.4871 55.7171 50.7858 55.8881 51.0339ZM64.137 47.5281H59.4377V49.0739H64.0225V50.8087H59.4377V52.5004L64.137 52.5087V54.2727H57.4402V45.769H64.137V47.5281ZM69.2469 54.2721H65.3389V52.4484H69.2324C69.613 52.4484 69.8826 52.3984 70.0522 52.2373C70.189 52.1067 70.2891 51.9149 70.2891 51.6843C70.2891 51.4363 70.1821 51.2391 70.0438 51.1208C69.8895 50.9903 69.6791 50.9325 69.3295 50.9325C67.4528 50.8687 65.1025 50.9908 65.1025 48.3C65.1025 47.0667 65.8681 45.769 67.9713 45.769H71.9947V47.5788H68.3138C67.9492 47.5788 67.7115 47.5927 67.5093 47.7316C67.2904 47.87 67.2078 48.0735 67.2078 48.3444C67.2078 48.6647 67.3953 48.8828 67.6469 48.9781C67.8595 49.0518 68.086 49.0733 68.4278 49.0733L69.5089 49.1045C70.5975 49.1302 71.3458 49.322 71.8001 49.7875C72.1913 50.1959 72.3997 50.7129 72.3997 51.5876C72.3991 53.4176 71.2715 54.2721 69.2469 54.2721ZM79.5746 53.4509C79.046 53.9921 78.1934 54.2721 77.0812 54.2721H73.2057V52.4484H77.065C77.4484 52.4484 77.7167 52.3984 77.8779 52.2373C78.0175 52.1067 78.1148 51.9149 78.1148 51.6843C78.1148 51.4363 78.0175 51.2391 77.8695 51.1208C77.7243 50.9903 77.5125 50.9325 77.1623 50.9325C75.278 50.8687 72.9277 50.9908 72.9277 48.3C72.9277 47.0667 73.7003 45.769 75.8069 45.769H79.7274V47.5783H76.1474C75.7833 47.5783 75.5402 47.5929 75.3352 47.7318C75.1234 47.8694 75.042 48.0737 75.042 48.3433C75.042 48.6648 75.2207 48.8817 75.4812 48.977C75.6938 49.052 75.9203 49.0735 76.2538 49.0735L77.3411 49.1034C78.4388 49.1305 79.1719 49.3216 79.6171 49.7878C79.6985 49.8524 79.7477 49.9254 79.8047 49.9976C79.7818 49.9677 79.7596 49.9393 79.736 49.9094C80.0834 50.3749 80.2924 50.9537 80.2924 51.5824C80.2923 52.3032 80.0178 52.957 79.5746 53.4509ZM31.4513 47.5281L33.6467 50.0056L31.354 52.4998H26.4198V50.8081H30.8254V49.0733H26.4198V47.5281H31.4513ZM36.2299 50.0348L39.3112 46.6826V53.4988L36.2299 50.0348ZM45.1533 48.5702C45.1533 49.3073 44.6732 49.6929 43.9021 49.6929H41.3093V47.5281H43.9264C44.6496 47.5281 45.1533 47.8261 45.1533 48.5702ZM54.1088 48.4465C54.1088 48.8099 53.9532 49.103 53.6927 49.2622C53.4245 49.4233 53.0924 49.4373 52.7026 49.4373H50.2639V47.5281H52.7346C53.0924 47.5281 53.4502 47.5357 53.6927 47.6817C53.9539 47.8185 54.1088 48.0818 54.1088 48.4465Z" fill="#2D78BC"/>
<path d="M81.1148 50.2169V44.7742H79.7267H76.0904C74.9698 44.7742 74.1547 45.0458 73.5789 45.4675V44.7742H68.0862C67.2079 44.7742 66.1763 44.9936 65.69 45.4675V44.7742H55.8798V45.4675C55.0995 44.8978 53.7816 44.7742 53.1744 44.7742H46.7041V45.4675C46.0866 44.8624 44.7137 44.7742 43.8764 44.7742H36.6356L34.9786 46.5895L33.4265 44.7742H22.6099V56.6365H33.2223L34.9299 54.7926L36.5375 56.6365L43.0801 56.6434V53.8519H43.7227C44.5904 53.8659 45.6138 53.8304 46.517 53.4351V56.6358H51.9131V53.5433H52.1744C52.5065 53.5433 52.5385 53.558 52.5385 53.8935V56.6358H68.9294C69.9708 56.6358 71.0589 56.3655 71.6618 55.8771V56.6358H76.86C77.9425 56.6358 78.9992 56.4822 79.803 56.089V56.0765C80.9772 55.3192 81.758 53.9923 81.758 52.4777C81.7595 51.6466 81.522 50.872 81.1148 50.2169ZM43.8124 52.1149H41.3085V54.9669H37.4087L34.9376 52.1517L32.3704 54.9669H24.4217V46.4644H32.4927L34.9611 49.251L37.5136 46.4644H43.9256C45.5173 46.4644 47.3063 46.9111 47.3063 49.265C47.3063 51.6279 45.5659 52.1149 43.8124 52.1149ZM55.8881 51.7293C56.1716 52.1441 56.2125 52.531 56.2208 53.2813V54.9669H54.2074V53.9032C54.2074 53.3918 54.2553 52.6346 53.8822 52.2386C53.5883 51.9343 53.1431 51.8605 52.41 51.8605H50.2652V54.9667H48.2497V46.4642H52.8824C53.898 46.4642 54.6374 46.5093 55.2967 46.8658C55.9304 47.2528 56.3285 47.7829 56.3285 48.7534C56.3285 50.1104 55.4343 50.8037 54.9064 51.0155C55.3509 51.1826 55.7171 51.4814 55.8881 51.7293ZM64.137 48.2237H59.4377V49.7694H64.0225V51.5042H59.4377V53.1959L64.137 53.2043V54.9682H57.4402V46.4644H64.137V48.2237ZM69.2469 54.9677H65.3389V53.1439H69.2324C69.613 53.1439 69.8826 53.094 70.0522 52.9328C70.189 52.8023 70.2891 52.6105 70.2891 52.3799C70.2891 52.1318 70.1821 51.9346 70.0438 51.8164C69.8895 51.6858 69.6791 51.6281 69.3295 51.6281C67.4528 51.5642 65.1025 51.6864 65.1025 48.9955C65.1025 47.7623 65.8681 46.4646 67.9713 46.4646H71.9947V48.2744H68.3138C67.9492 48.2744 67.7115 48.2883 67.5093 48.4272C67.2904 48.5655 67.2078 48.769 67.2078 49.0399C67.2078 49.3602 67.3953 49.5784 67.6469 49.6736C67.8595 49.7474 68.086 49.7689 68.4278 49.7689L69.5089 49.8001C70.5975 49.8257 71.3458 50.0175 71.8001 50.483C72.1913 50.8915 72.3997 51.4084 72.3997 52.2832C72.3991 54.113 71.2715 54.9677 69.2469 54.9677ZM79.5746 54.1464C79.046 54.6877 78.1934 54.9677 77.0812 54.9677H73.2057V53.1439H77.065C77.4484 53.1439 77.7167 53.094 77.8779 52.9328C78.0175 52.8023 78.1148 52.6105 78.1148 52.3799C78.1148 52.1318 78.0175 51.9346 77.8695 51.8164C77.7243 51.6858 77.5125 51.6281 77.1623 51.6281C75.278 51.5642 72.9277 51.6864 72.9277 48.9955C72.9277 47.7623 73.7003 46.4646 75.8069 46.4646H79.7274V48.2738H76.1474C75.7833 48.2738 75.5402 48.2885 75.3352 48.4274C75.1234 48.565 75.042 48.7692 75.042 49.0388C75.042 49.3604 75.2207 49.5773 75.4812 49.6725C75.6938 49.7475 75.9203 49.7691 76.2538 49.7691L77.3411 49.799C78.4388 49.8261 79.1719 50.0171 79.6171 50.4834C79.6985 50.548 79.7477 50.621 79.8047 50.6932C79.7818 50.6633 79.7596 50.6349 79.736 50.605C80.0834 51.0705 80.2924 51.6492 80.2924 52.2779C80.2923 52.9987 80.0178 53.6525 79.5746 54.1464ZM31.4513 48.2237L33.6467 50.7012L31.354 53.1954H26.4198V51.5037H30.8254V49.7689H26.4198V48.2237H31.4513ZM36.2299 50.7303L39.3112 47.3781V54.1943L36.2299 50.7303ZM45.1533 49.2657C45.1533 50.0028 44.6732 50.3885 43.9021 50.3885H41.3093V48.2237H43.9264C44.6496 48.2237 45.1533 48.5217 45.1533 49.2657ZM54.1088 49.142C54.1088 49.5054 53.9532 49.7986 53.6927 49.9577C53.4245 50.1189 53.0924 50.1328 52.7026 50.1328H50.2639V48.2237H52.7346C53.0924 48.2237 53.4502 48.2313 53.6927 48.3772C53.9539 48.5141 54.1088 48.7774 54.1088 49.142Z" fill="white"/>
</svg>
