<svg width="88" height="88" viewBox="0 0 88 88" fill="none" xmlns="http://www.w3.org/2000/svg">
<path d="M44 88C68.3005 88 88 68.3005 88 44C88 19.6995 68.3005 0 44 0C19.6995 0 0 19.6995 0 44C0 68.3005 19.6995 88 44 88Z" fill="#3C80AD"/>
<path d="M29.6155 22.644C18.5125 22.7142 9.52295 31.7669 9.52295 42.9094C9.52295 54.0958 18.582 63.1735 29.7453 63.1735C34.9818 63.1735 39.7576 61.1732 43.3508 57.8934L43.35 57.8927H43.3528C44.09 57.2209 44.7764 56.4942 45.4066 55.7223H41.2645C40.7108 55.0533 40.2078 54.3542 39.7563 53.6338H46.9006C47.3369 52.9377 47.7287 52.2145 48.0796 51.4655H38.5781C38.2538 50.7694 37.9723 50.0599 37.7326 49.3367H48.9252C49.6013 47.3163 49.9659 45.1543 49.9659 42.9094C49.9659 41.4185 49.804 39.9678 49.5004 38.5685H37.1386C37.2929 37.8481 37.4852 37.1373 37.7146 36.4404H48.9128C48.6627 35.697 48.3715 34.9738 48.0408 34.2706H38.5768C38.9179 33.539 39.3049 32.8298 39.7364 32.1418H46.8764C46.4005 31.3824 45.8753 30.6571 45.3076 29.9735H41.3267C41.943 29.246 42.6196 28.5618 43.3539 27.9275C39.762 24.6462 34.9856 22.6446 29.7464 22.6446C29.7009 22.644 29.6578 22.644 29.6155 22.644Z" fill="#931B1D"/>
<path d="M77.0915 42.9158C77.0936 54.1064 68.0451 63.1806 56.874 63.184C45.7078 63.1875 36.6523 54.1166 36.6489 42.9241V42.9158C36.6454 31.7218 45.6968 22.6468 56.8651 22.644C68.0327 22.64 77.0889 31.7114 77.0917 42.9046C77.0915 42.9046 77.0915 42.9096 77.0915 42.9158Z" fill="#F16622"/>
<path d="M77.0915 43.1398C77.0936 54.331 68.0451 63.4067 56.874 63.4087C45.7078 63.4128 36.6523 54.3408 36.6489 43.1502V43.1398C36.6454 31.9479 45.6968 22.8722 56.8651 22.8694C68.0327 22.8653 77.0889 31.9368 77.0917 43.1292C77.0915 43.1294 77.0915 43.1357 77.0915 43.1398Z" fill="#F7981D"/>
<path d="M29.6155 22.874C18.5125 22.9455 9.52295 31.9961 9.52295 43.1394C9.52295 54.3264 18.582 63.4048 29.7453 63.4048C34.9818 63.4048 39.7576 61.4032 43.3508 58.1239L43.35 58.1219H43.3528C44.09 57.4507 44.7764 56.7261 45.4066 55.9515H41.2645C40.7108 55.2838 40.2078 54.5862 39.7563 53.8658H46.9006C47.3369 53.1689 47.7287 52.4437 48.0796 51.6954H38.5781C38.2538 50.9985 37.9723 50.2893 37.7326 49.5673H48.9252C49.6013 47.5455 49.9659 45.3842 49.9659 43.1394C49.9659 41.6491 49.804 40.1977 49.5004 38.7992H37.1386C37.2929 38.0795 37.4852 37.3672 37.7146 36.6711H48.9128C48.6627 35.9271 48.3715 35.2037 48.0408 34.5H38.5768C38.9179 33.7712 39.3049 33.0591 39.7364 32.3719H46.8764C46.4005 31.6132 45.8753 30.8885 45.3076 30.2021H41.3267C41.943 29.4761 42.6196 28.7917 43.3539 28.1561C39.762 24.8754 34.9856 22.8738 29.7464 22.8738C29.7009 22.874 29.6578 22.874 29.6155 22.874Z" fill="#CB2026"/>
<path d="M37.016 48.2984L37.2864 46.4648C37.1391 46.4648 36.9223 46.5274 36.7312 46.5274C35.9822 46.5274 35.8988 46.1285 35.9475 45.8333L36.5526 42.0906H37.6913L37.9665 40.0612H36.8931L37.112 38.8008H34.9583C34.9117 38.8479 33.687 45.8964 33.687 46.753C33.687 48.0237 34.3978 48.5899 35.4023 48.5815C36.1872 48.5743 36.8006 48.3568 37.016 48.2984Z" fill="white"/>
<path d="M37.6992 44.8016C37.6992 47.851 39.7064 48.5763 41.4176 48.5763C42.9975 48.5763 43.6916 48.2213 43.6916 48.2213L44.0717 46.1398C44.0717 46.1398 42.8705 46.6735 41.7852 46.6735C39.4737 46.6735 39.8789 44.945 39.8789 44.945H44.2551C44.2551 44.945 44.5364 43.5457 44.5364 42.9761C44.5364 41.5553 43.8292 39.8225 41.4663 39.8225C39.3007 39.8231 37.6992 42.1594 37.6992 44.8016ZM41.4753 41.7537C42.6899 41.7537 42.4654 43.1224 42.4654 43.2328H40.0753C40.0746 43.0919 40.3006 41.7537 41.4753 41.7537Z" fill="white"/>
<path d="M55.1081 48.2986L55.4938 45.944C55.4938 45.944 54.4371 46.4777 53.7124 46.4777C52.1854 46.4777 51.5732 45.3062 51.5732 44.0529C51.5732 41.5045 52.8871 40.1025 54.351 40.1025C55.4474 40.1025 56.3282 40.7208 56.3282 40.7208L56.6792 38.4364C56.6792 38.4364 55.3737 37.9055 54.2551 37.9055C51.7693 37.9055 49.3501 40.0642 49.3501 44.1257C49.3501 46.8145 50.6569 48.5937 53.2261 48.5937C53.9519 48.594 55.1081 48.2986 55.1081 48.2986Z" fill="white"/>
<path d="M25.1747 39.8562C23.6984 39.8562 22.5665 40.3308 22.5665 40.3308L22.2546 42.19C22.2546 42.19 23.1897 41.8106 24.6008 41.8106C25.4026 41.8106 25.9882 41.9003 25.9882 42.5541C25.9882 42.9501 25.9167 43.0966 25.9167 43.0966C25.9167 43.0966 25.2852 43.0432 24.992 43.0432C23.1308 43.0432 21.1743 43.8394 21.1743 46.2418C21.1743 48.133 22.4568 48.5678 23.2524 48.5678C24.7718 48.5678 25.4249 47.5806 25.4611 47.5763L25.3901 48.4016H27.2855L28.1317 42.4579C28.1317 39.9373 25.9368 39.8562 25.1747 39.8562ZM25.6367 44.6931C25.6777 45.0565 25.4089 46.7586 24.1125 46.7586C23.444 46.7586 23.2697 46.2459 23.2697 45.9429C23.2697 45.353 23.59 44.6437 25.1684 44.6437C25.5346 44.6437 25.5741 44.684 25.6367 44.6931Z" fill="white"/>
<path d="M30.1471 48.5222C30.6314 48.5222 33.4035 48.6466 33.4035 45.7799C33.4035 43.0995 30.8378 43.6283 30.8378 42.5514C30.8378 42.0172 31.2562 41.8462 32.0202 41.8462C32.3238 41.8462 33.4917 41.9442 33.4917 41.9442L33.7641 40.0379C33.7641 40.0379 33.0082 39.8696 31.7785 39.8696C30.1841 39.8696 28.5687 40.5046 28.5687 42.6854C28.5687 45.1581 31.2643 44.908 31.2643 45.9487C31.2643 46.6435 30.5105 46.7005 29.9297 46.7005C28.9265 46.7005 28.0226 46.3552 28.0183 46.3711L27.7314 48.2559C27.7816 48.2736 28.3401 48.5222 30.1471 48.5222Z" fill="white"/>
<path d="M72.9414 38.1467L72.478 41.0342C72.478 41.0342 71.6671 39.9136 70.3993 39.9136C68.4255 39.9136 66.7817 42.2966 66.7817 45.0361C66.7817 46.8043 67.6578 48.535 69.4518 48.535C70.7419 48.535 71.4554 47.6339 71.4554 47.6339L71.3617 48.403H73.4557L75.1016 38.1421L72.9414 38.1467ZM71.9423 43.7793C71.9423 44.918 71.3782 46.4387 70.2116 46.4387C69.4362 46.4387 69.0743 45.787 69.0743 44.7643C69.0743 43.0926 69.8233 41.9865 70.7681 41.9865C71.5442 41.9867 71.9423 42.5217 71.9423 43.7793Z" fill="white"/>
<path d="M13.516 48.4115L14.8284 40.6648L15.0194 48.4115H16.5033L19.2705 40.6648L18.0443 48.4115H20.2481L21.9469 38.1394H18.5378L16.4153 44.4409L16.3049 38.1394H13.1638L11.4414 48.4115H13.516Z" fill="white"/>
<path d="M46.6894 48.4256C47.316 44.8552 47.4321 41.9545 48.9287 42.4833C49.1906 41.1021 49.4428 40.5679 49.7276 39.9823C49.7276 39.9823 49.5943 39.9539 49.3121 39.9539C48.3499 39.9539 47.6348 41.2738 47.6348 41.2738L47.8252 40.0621H45.82L44.4785 48.4256H46.6894Z" fill="white"/>
<path d="M60.0751 39.8562C58.5988 39.8562 57.4677 40.3308 57.4677 40.3308L57.1565 42.19C57.1565 42.19 58.0895 41.8106 59.5019 41.8106C60.303 41.8106 60.8901 41.9003 60.8901 42.5541C60.8901 42.9501 60.8178 43.0966 60.8178 43.0966C60.8178 43.0966 60.1863 43.0432 59.8909 43.0432C58.029 43.0432 56.0747 43.8394 56.0747 46.2418C56.0747 48.133 57.3579 48.5678 58.1528 48.5678C59.6722 48.5678 60.326 47.5806 60.3607 47.5763L60.2905 48.4016H62.1872L63.0328 42.4579C63.0335 39.9373 60.8394 39.8562 60.0751 39.8562ZM60.5378 44.6931C60.5789 45.0565 60.3113 46.7586 59.0129 46.7586C58.3452 46.7586 58.1721 46.2459 58.1721 45.9429C58.1721 45.353 58.4924 44.6437 60.0681 44.6437C60.4365 44.6437 60.4747 44.684 60.5378 44.6931Z" fill="white"/>
<path d="M64.7642 48.4256C65.3916 44.8552 65.5077 41.9545 67.004 42.4833C67.266 41.1021 67.5182 40.5679 67.8045 39.9823C67.8045 39.9823 67.6689 39.9539 67.3884 39.9539C66.4234 39.9539 65.7106 41.2738 65.7106 41.2738L65.9024 40.0621H63.896L62.5537 48.425H64.7644L64.7642 48.4256Z" fill="white"/>
</svg>
