<svg width="88" height="88" viewBox="0 0 88 88" fill="none" xmlns="http://www.w3.org/2000/svg">
<path d="M44 88C68.3005 88 88 68.3005 88 44C88 19.6995 68.3005 0 44 0C19.6995 0 0 19.6995 0 44C0 68.3005 19.6995 88 44 88Z" fill="#00529E"/>
<path d="M47.1252 43.4151C54.1139 43.4491 60.4938 37.7166 60.4938 30.7418C60.4938 23.1168 54.113 17.8449 47.1252 17.8477H41.11C34.0387 17.8449 28.2158 23.1181 28.2158 30.7418C28.2158 37.7179 34.0387 43.4491 41.11 43.4151H47.1252Z" fill="white"/>
<path d="M43.7936 37.5321V23.6847C46.5769 24.7518 48.5527 27.4476 48.5575 30.608C48.5527 33.7686 46.5767 36.4623 43.7936 37.5321ZM33.7223 30.608C33.7278 27.4489 35.701 24.7553 38.4829 23.6847V37.5299C35.701 36.46 33.7278 33.7672 33.7223 30.608ZM41.1382 18.9041C34.6763 18.9054 29.4383 24.1446 29.437 30.608C29.4383 37.0715 34.6763 42.308 41.1382 42.3107C47.603 42.308 52.8422 37.0715 52.8422 30.608C52.8422 24.1446 47.6022 18.9055 41.1382 18.9041Z" fill="#00529E"/>
<path d="M15.1433 52.1392C15.1433 53.1806 15.8868 53.3002 16.5489 53.3002C19.4691 53.3002 20.4272 51.0984 20.4272 49.0844C20.4272 46.5562 18.8057 44.7323 16.1974 44.7323C15.641 44.7323 15.3873 44.7726 15.1428 44.7865V52.1392H15.1433ZM13.8178 45.7987C13.8178 44.5828 13.1841 44.6619 12.5762 44.6502V44.2993C13.1028 44.3244 13.6427 44.3244 14.1706 44.3244C14.7375 44.3244 15.5088 44.2993 16.5099 44.2993C20.0094 44.2993 21.9145 46.6359 21.9145 49.03C21.9145 50.3695 21.1315 53.7343 16.3465 53.7343C15.6573 53.7343 15.021 53.708 14.386 53.708C13.7794 53.708 13.1841 53.7211 12.5762 53.7343V53.3834C13.3863 53.3008 13.7795 53.275 13.8178 52.3551V45.7987Z" fill="white"/>
<path d="M23.8349 45.4755C23.4834 45.4755 23.1742 45.1511 23.1742 44.7987C23.1742 44.4604 23.4986 44.1484 23.8349 44.1484C24.1864 44.1484 24.4983 44.4333 24.4983 44.7987C24.4983 45.1648 24.1995 45.4755 23.8349 45.4755ZM22.3877 53.3833H22.6454C23.0227 53.3833 23.2929 53.3833 23.2929 52.9353V49.2731C23.2929 48.6792 23.0907 48.5963 22.5912 48.329V48.1115C23.2262 47.9218 23.9836 47.6663 24.0363 47.6258C24.1316 47.5709 24.2114 47.5564 24.2809 47.5564C24.3475 47.5564 24.3746 47.6377 24.3746 47.7461V52.9353C24.3746 53.3833 24.6734 53.3833 25.052 53.3833H25.2813V53.7342C24.8214 53.7342 24.3475 53.7079 23.8633 53.7079C23.3762 53.7079 22.8892 53.7211 22.3883 53.7342V53.3833H22.3877Z" fill="white"/>
<path d="M26.5641 49.3547C26.5641 48.8553 26.4148 48.7205 25.7811 48.4633V48.2069C26.3619 48.0171 26.9156 47.8422 27.5638 47.5566C27.6061 47.5566 27.6436 47.5845 27.6436 47.6914V48.571C28.4155 48.0166 29.0776 47.5566 29.9843 47.5566C31.1334 47.5566 31.5391 48.3952 31.5391 49.4498V52.9361C31.5391 53.3841 31.8364 53.3841 32.2137 53.3841H32.4583V53.7351C31.9831 53.7351 31.5113 53.7087 31.025 53.7087C30.538 53.7087 30.0509 53.7219 29.5647 53.7351V53.3841H29.8079C30.1865 53.3841 30.4568 53.3841 30.4568 52.9361V49.4366C30.4568 48.6661 29.9845 48.2882 29.2139 48.2882C28.7811 48.2882 28.0933 48.6377 27.6438 48.9379V52.937C27.6438 53.3851 27.9426 53.3851 28.3227 53.3851H28.5659V53.736C28.0935 53.736 27.6189 53.7096 27.1319 53.7096C26.6462 53.7096 26.1591 53.7228 25.6729 53.736V53.3851H25.9174C26.296 53.3851 26.5648 53.3851 26.5648 52.937V49.3547H26.5641Z" fill="white"/>
<path d="M35.88 49.5709C36.2176 49.5709 36.2558 49.395 36.2558 49.2346C36.2558 48.5454 35.8375 47.9902 35.081 47.9902C34.2557 47.9902 33.6886 48.5974 33.5275 49.5709H35.88ZM33.4866 50.0044C33.4595 50.126 33.4595 50.3282 33.4866 50.7882C33.5665 52.0734 34.3933 53.1268 35.473 53.1268C36.2178 53.1268 36.7986 52.7196 37.2982 52.2214L37.4865 52.4104C36.8639 53.2345 36.0941 53.9374 34.9867 53.9374C32.8371 53.9374 32.4028 51.8553 32.4028 50.9909C32.4028 48.3411 34.187 47.5566 35.1332 47.5566C36.2296 47.5566 37.4072 48.2459 37.4184 49.6791C37.4184 49.7604 37.4184 49.8418 37.4072 49.9237L37.2835 50.0042L33.4866 50.0044Z" fill="white"/>
<path d="M37.7305 53.3838H38.0951C38.471 53.3838 38.7441 53.3838 38.7441 52.9357V49.1388C38.7441 48.7199 38.2431 48.6365 38.0396 48.5309V48.3287C39.0276 47.9083 39.5674 47.5568 39.691 47.5568C39.7709 47.5568 39.8106 47.5984 39.8106 47.7332V48.949H39.839C40.1768 48.4225 40.7457 47.5566 41.569 47.5566C41.9065 47.5566 42.3395 47.7867 42.3395 48.273C42.3395 48.6364 42.0818 48.965 41.7045 48.965C41.2829 48.965 41.2829 48.6364 40.8118 48.6364C40.5812 48.6364 39.8238 48.9483 39.8238 49.7597V52.9348C39.8238 53.3828 40.0941 53.3828 40.4727 53.3828H41.2301V53.7338C40.4867 53.7198 39.9205 53.7074 39.3383 53.7074C38.7846 53.7074 38.2162 53.7206 37.7307 53.7338L37.7305 53.3838Z" fill="white"/>
<path d="M42.9354 51.8553C43.1118 52.7473 43.6517 53.5039 44.6382 53.5039C45.4344 53.5039 45.7319 53.0176 45.7319 52.5445C45.7319 50.9501 42.7861 51.4642 42.7861 49.2873C42.7861 48.5307 43.3955 47.5566 44.8815 47.5566C45.3143 47.5566 45.8951 47.679 46.4231 47.9499L46.5169 49.3256H46.2078C46.0722 48.4759 45.5984 47.9902 44.7327 47.9902C44.193 47.9902 43.6781 48.2994 43.6781 48.8816C43.6781 50.4636 46.8142 49.9753 46.8142 52.0978C46.8142 52.9892 46.0978 53.9369 44.4895 53.9369C43.9497 53.9369 43.3132 53.7471 42.8422 53.4777L42.6914 51.9236L42.9354 51.8553Z" fill="white"/>
<path d="M59.0191 46.7457H58.6828C58.4251 45.1658 57.3031 44.53 55.7913 44.53C54.2349 44.53 51.9771 45.57 51.9771 48.814C51.9771 51.5458 53.9245 53.5051 56.0061 53.5051C57.3443 53.5051 58.4537 52.588 58.724 51.1672L59.0347 51.2471L58.724 53.2208C58.1557 53.5745 56.6287 53.9385 55.7345 53.9385C52.5726 53.9385 50.5737 51.8973 50.5737 48.8563C50.5737 46.0841 53.0464 44.0957 55.6962 44.0957C56.7898 44.0957 57.8445 44.4494 58.8852 44.8148L59.0191 46.7457Z" fill="white"/>
<path d="M59.5073 53.3834H59.7623C60.1423 53.3834 60.4125 53.3834 60.4125 52.9354V45.4089C60.4125 44.5294 60.2118 44.5023 59.6962 44.3535V44.1381C60.2359 43.9617 60.805 43.7192 61.0885 43.5553C61.2365 43.4767 61.345 43.406 61.3858 43.406C61.4671 43.406 61.4943 43.4873 61.4943 43.5971V52.9354C61.4943 53.3834 61.7917 53.3834 62.1703 53.3834H62.3981V53.7343C61.941 53.7343 61.4671 53.708 60.9801 53.708C60.4944 53.708 60.0088 53.7212 59.5079 53.7343V53.3834H59.5073Z" fill="white"/>
<path d="M68.1865 52.99C68.1865 53.2345 68.3345 53.247 68.5638 53.247C68.7265 53.247 68.9272 53.2338 69.1036 53.2338V53.5179C68.5213 53.5728 67.4139 53.8562 67.1562 53.9375L67.0881 53.8972V52.8023C66.2794 53.4636 65.6561 53.9375 64.6947 53.9375C63.9659 53.9375 63.2085 53.4636 63.2085 52.3292V48.8692C63.2085 48.5163 63.1558 48.18 62.3999 48.1119V47.8542C62.8869 47.8417 63.9659 47.7604 64.1423 47.7604C64.2931 47.7604 64.2931 47.8541 64.2931 48.1522V51.6384C64.2931 52.0456 64.2931 53.2085 65.4679 53.2085C65.9265 53.2085 66.5344 52.8556 67.102 52.3832V48.7454C67.102 48.4765 66.4531 48.3286 65.9688 48.193V47.9498C67.1833 47.8671 67.942 47.76 68.0761 47.76C68.1858 47.76 68.1858 47.8538 68.1858 48.0045V52.9894H68.1865V52.99Z" fill="white"/>
<path d="M70.8752 52.2073C70.8752 52.7194 71.3623 53.5871 72.2676 53.5871C73.7141 53.5871 74.322 52.1663 74.322 50.9629C74.322 49.5033 73.2131 48.2873 72.1605 48.2873C71.6583 48.2873 71.242 48.6124 70.8752 48.923V52.2073ZM70.8752 48.5312C71.415 48.0721 72.1466 47.5572 72.89 47.5572C74.4588 47.5572 75.403 48.9238 75.403 50.3967C75.403 52.167 74.1059 53.9387 72.1724 53.9387C71.1733 53.9387 70.6459 53.6136 70.293 53.4649L69.8886 53.7761L69.6065 53.6268C69.7246 52.8299 69.7948 52.0461 69.7948 51.22V45.4091C69.7948 44.5295 69.5913 44.5024 69.0771 44.3537V44.1383C69.6197 43.9619 70.186 43.7194 70.4695 43.5568C70.6188 43.4769 70.726 43.4075 70.7683 43.4075C70.8496 43.4075 70.8752 43.4873 70.8752 43.5972V48.5312Z" fill="white"/>
<path d="M12.5606 61.5946H12.662C12.9268 61.5946 13.206 61.5578 13.206 61.1749V57.321C13.206 56.9381 12.9268 56.9014 12.662 56.9014H12.5606V56.6804C12.8469 56.6804 13.2881 56.7103 13.6487 56.7103C14.0161 56.7103 14.4573 56.6804 14.8034 56.6804V56.9014H14.7005C14.4358 56.9014 14.1565 56.9389 14.1565 57.321V61.1749C14.1565 61.5578 14.4358 61.5946 14.7005 61.5946H14.8034V61.8155C14.4504 61.8155 14.008 61.7856 13.6418 61.7856C13.2805 61.7856 12.8464 61.8155 12.5601 61.8155V61.5946H12.5606Z" fill="white"/>
<path d="M14.7714 61.7836V61.6258H14.7005C14.4372 61.6258 14.1253 61.5799 14.1238 61.1749V57.321C14.1251 56.9153 14.4372 56.8707 14.7005 56.8707H14.7714V56.7124C14.4324 56.7124 14.0059 56.7423 13.6494 56.7423C13.2992 56.7423 12.8775 56.7139 12.5927 56.7124V56.8707H12.6636C12.9269 56.8707 13.2389 56.9151 13.2389 57.321V61.1749C13.2389 61.5799 12.9269 61.6258 12.6636 61.6258H12.5927V61.7834C12.8775 61.7799 13.2931 61.7528 13.6433 61.7528C13.9988 61.753 14.424 61.7814 14.7714 61.7836ZM14.8034 61.8454C14.4463 61.8454 14.0072 61.8163 13.6418 61.8163C13.2805 61.8163 12.8476 61.8454 12.56 61.8454H12.5273V61.8142V61.5948V61.5636H12.56H12.6614C12.929 61.5559 13.1713 61.5351 13.1728 61.1751V57.3212C13.1715 56.9606 12.9282 56.9383 12.6614 56.9335H12.5273V56.9008V56.6487H12.56C12.8476 56.6487 13.2888 56.6778 13.6481 56.6778C14.0142 56.6778 14.4539 56.6487 14.8028 56.6487H14.8355V56.6814V56.9335H14.8028H14.7C14.4324 56.9383 14.1886 56.9606 14.1873 57.3212V61.1751C14.1886 61.535 14.4333 61.5558 14.7 61.5636H14.8355V61.5948V61.8456H14.8034V61.8454Z" fill="white"/>
<path d="M19.8558 60.3655L19.8705 60.3508V57.5926C19.8705 56.9903 19.4508 56.9013 19.2314 56.9013H19.0687V56.6804C19.4146 56.6804 19.7537 56.7103 20.0983 56.7103C20.3998 56.7103 20.7021 56.6804 21.0037 56.6804V56.9013H20.8939C20.5848 56.9013 20.2387 56.9611 20.2387 57.8358V61.1818C20.2387 61.4395 20.2455 61.6972 20.2825 61.9245H20.0025L16.2152 57.7023V60.7335C16.2152 61.3726 16.3404 61.5936 16.9058 61.5936H17.0309V61.8145C16.7162 61.8145 16.4 61.7847 16.0825 61.7847C15.7525 61.7847 15.4135 61.8145 15.0828 61.8145V61.5936H15.1856C15.6927 61.5936 15.8463 61.2477 15.8463 60.6598V57.5618C15.8463 57.1513 15.5085 56.9004 15.1786 56.9004H15.082V56.6794C15.3613 56.6794 15.6489 56.7093 15.9276 56.7093C16.1486 56.7093 16.3619 56.6794 16.5829 56.6794L19.8558 60.3655Z" fill="white"/>
<path d="M19.84 60.3501V60.3488L19.8345 60.3419L19.84 60.3501ZM19.856 60.3655L19.8803 60.3432L19.856 60.3655ZM20.0025 61.8918H20.2458C20.2131 61.6716 20.2075 61.4263 20.2075 61.1818V57.8359C20.2075 56.9535 20.5764 56.8709 20.894 56.8709H20.971V56.7125C20.6806 56.7138 20.3902 56.7409 20.0983 56.7409C19.7621 56.7409 19.4334 56.7138 19.102 56.7125L19.0992 56.8709H19.2297C19.4563 56.8709 19.9015 56.9702 19.9015 57.5941L19.8932 60.3731L19.8785 60.3878L19.8529 60.4121L16.5825 56.7125C16.3644 56.7125 16.1525 56.7409 15.926 56.7409C15.6571 56.7409 15.3819 56.7138 15.1146 56.7125L15.1133 56.8709H15.1786C15.5232 56.8709 15.879 57.1329 15.879 57.5629V60.6609C15.879 61.2501 15.715 61.6246 15.187 61.6281L15.1147 61.6246V61.7837C15.4336 61.7802 15.7609 61.7531 16.0825 61.7531C16.3889 61.7531 16.696 61.7802 16.9983 61.7837V61.6274H16.9058C16.3278 61.6239 16.1839 61.3732 16.1839 60.7339V57.6206L20.0025 61.8918ZM20.2818 61.9559L19.9789 61.9455L16.2459 57.7852V60.7337C16.2542 61.3728 16.3515 61.5557 16.9052 61.5626H17.0629V61.5938V61.8446H17.0302C16.7127 61.8446 16.3952 61.8155 16.0818 61.8155C15.7531 61.8155 15.4155 61.8446 15.0821 61.8446H15.0494V61.8134V61.5626H15.0821H15.1862C15.6705 61.5585 15.8088 61.2464 15.8144 60.66V57.562C15.8131 57.1722 15.4928 56.9333 15.1781 56.9333H15.0488V56.8985V56.6484H15.0815C15.3623 56.6484 15.6499 56.6776 15.9256 56.6776C16.1451 56.6776 16.3571 56.6484 16.6065 56.6588L19.8386 60.2994V57.5934C19.8345 57.0083 19.444 56.9381 19.2292 56.9333H19.0353V56.8985V56.6484H19.068C19.4154 56.6484 19.7545 56.6776 20.0976 56.6776C20.3976 56.6776 20.6986 56.6484 21.0029 56.6484H21.0341V56.6811V56.9333H21.0029H20.8932C20.5889 56.9424 20.2769 56.968 20.2693 57.8351V61.181C20.2693 61.438 20.2762 61.6952 20.3132 61.9196L20.3215 61.9559H20.2818Z" fill="white"/>
<path d="M22.1053 57.0485C21.5529 57.0485 21.5314 57.1805 21.4216 57.7175H21.2007C21.2306 57.5112 21.2673 57.3062 21.2889 57.0922C21.3188 56.8859 21.3333 56.6801 21.3333 56.4683H21.5097C21.5694 56.6892 21.7529 56.6809 21.9523 56.6809H25.7464C25.9459 56.6809 26.1293 56.6746 26.1425 56.4536L26.3189 56.4835C26.2905 56.6809 26.2606 56.8796 26.239 57.079C26.2251 57.2769 26.2251 57.4758 26.2251 57.6744L26.0042 57.7558C25.9882 57.4841 25.9527 57.0485 25.4588 57.0485H24.2542V60.9615C24.2542 61.5278 24.5106 61.5945 24.8635 61.5945H25.0032V61.8154C24.7183 61.8154 24.2027 61.7855 23.8046 61.7855C23.3635 61.7855 22.848 61.8154 22.5617 61.8154V61.5945H22.7013C23.107 61.5945 23.3107 61.5577 23.3107 60.9769V57.0487L22.1053 57.0485Z" fill="white"/>
<path d="M25.0039 61.8462C24.7148 61.8462 24.2007 61.817 23.8041 61.817C23.3642 61.817 22.8488 61.8462 22.5611 61.8462H22.53V61.8163V61.5641H22.5611H22.7008C23.1065 61.553 23.2691 61.5495 23.2775 60.9778V57.0822H22.1048V57.0496V57.0169H23.3408V60.9778C23.3408 61.5684 23.1031 61.6274 22.7002 61.6287H22.5918V61.7836C22.8809 61.7816 23.3776 61.7544 23.8035 61.7544C24.1877 61.7544 24.679 61.7816 24.9707 61.7836V61.6287H24.8622C24.5065 61.6274 24.2217 61.5413 24.2217 60.9625V57.0169H25.459C25.9529 57.0182 26.017 57.4373 26.0329 57.7117L26.1921 57.6534C26.1921 57.4631 26.1934 57.2692 26.206 57.0754C26.2288 56.8856 26.2559 56.6981 26.283 56.5098L26.1713 56.4918C26.1373 56.7051 25.9295 56.7168 25.7453 56.7135H21.9527H21.9131C21.7408 56.7135 21.5518 56.7059 21.4872 56.5009H21.3648C21.3635 56.7031 21.3502 56.8997 21.3205 57.0963C21.3002 57.2986 21.2662 57.4924 21.2406 57.687H21.3969C21.495 57.1756 21.5561 57.0096 22.1062 57.0165V57.0492V57.0819C21.5609 57.091 21.5726 57.1832 21.4525 57.7265L21.4484 57.7509H21.4228H21.165L21.1691 57.7134C21.199 57.5076 21.2373 57.3013 21.2588 57.088C21.2887 56.8837 21.3026 56.6795 21.3026 56.4682V56.4348H21.3353H21.5375L21.5416 56.4584C21.5915 56.6459 21.7278 56.6459 21.9146 56.6487H21.9542H25.7468C25.9518 56.6452 26.1011 56.6424 26.113 56.45L26.1157 56.4153L26.1497 56.4229L26.3575 56.4556L26.3519 56.4882C26.3235 56.6841 26.2936 56.8828 26.2721 57.0815C26.2582 57.2766 26.2582 57.4748 26.2582 57.6747V57.6963L26.2379 57.7059L25.9759 57.8012L25.9746 57.7574C25.9559 57.4822 25.926 57.082 25.462 57.082H24.2885V60.9623C24.2954 61.5181 24.515 61.5563 24.8652 61.5639H25.0375V61.5951V61.846L25.0039 61.8462Z" fill="white"/>
<path d="M26.5542 61.5946H26.6584C26.9231 61.5946 27.2009 61.5578 27.2009 61.1749V57.321C27.2009 56.9381 26.923 56.9014 26.6584 56.9014H26.5542V56.6804C27.0022 56.6804 27.7687 56.7103 28.385 56.7103C29.004 56.7103 29.7675 56.6804 30.2685 56.6804C30.2561 56.9972 30.2629 57.4842 30.2845 57.8066L30.0622 57.8649C30.0282 57.3875 29.9398 57.0054 29.1667 57.0054H28.1447V58.9312H29.0187C29.4599 58.9312 29.5557 58.6824 29.601 58.2843H29.8205C29.8058 58.5719 29.7976 58.8582 29.7976 59.1444C29.7976 59.4236 29.806 59.7036 29.8205 59.9829L29.601 60.0267C29.5566 59.5863 29.5343 59.2992 29.0258 59.2992H28.1447V61.0132C28.1447 61.4911 28.5692 61.4911 29.0402 61.4911C29.9226 61.4911 30.3131 61.4321 30.534 60.5936L30.739 60.643C30.6437 61.0355 30.5555 61.4232 30.4909 61.815C30.0186 61.815 29.1737 61.7851 28.5122 61.7851C27.8487 61.7851 26.9733 61.815 26.5544 61.815L26.5542 61.5946Z" fill="white"/>
<path d="M30.462 61.7821C30.5259 61.4111 30.61 61.0393 30.7009 60.6684L30.5557 60.6316C30.3348 61.4549 29.9083 61.5271 29.0412 61.523C28.577 61.523 28.113 61.523 28.1102 61.0132V59.268H29.0245C29.5386 59.2624 29.5913 59.5723 29.6268 59.9899L29.7859 59.9572C29.772 59.6856 29.7657 59.416 29.7657 59.1443C29.7657 58.8691 29.7726 58.5919 29.7859 58.3155H29.6268C29.5858 58.6996 29.4656 58.9679 29.0174 58.9637H28.11V56.9724H29.1661C29.9317 56.9661 30.0576 57.3622 30.0903 57.8236L30.2494 57.7826C30.2369 57.5735 30.2291 57.3074 30.2291 57.0621C30.2291 56.9357 30.2319 56.8161 30.2347 56.7127C29.7352 56.714 28.9903 56.7411 28.3852 56.7411C27.7814 56.7411 27.0381 56.714 26.5871 56.7127V56.8711H26.6593C26.9213 56.8711 27.2332 56.9154 27.2345 57.3213V61.1753C27.2332 61.5802 26.9211 61.624 26.6593 61.6276H26.5871V61.7824C27.0158 61.7817 27.8655 61.7533 28.5116 61.7533C29.1606 61.7529 29.9866 61.7813 30.462 61.7821ZM30.4891 61.8454C30.0167 61.8454 29.1719 61.8162 28.5103 61.8162C27.8482 61.8162 26.9742 61.8454 26.5538 61.8454H26.5226V61.8155V61.5945V61.5633H26.5538H26.658C26.9241 61.5578 27.1653 61.5349 27.1679 61.1749V57.321C27.1651 56.9624 26.9233 56.9381 26.658 56.9333H26.5225V56.9006V56.6484H26.5537C27.0024 56.6484 27.7682 56.6776 28.3844 56.6776C29.0035 56.6776 29.7657 56.6484 30.268 56.6484H30.3006L30.2986 56.6811C30.293 56.7923 30.2917 56.9236 30.2917 57.0619C30.2917 57.3156 30.2986 57.5941 30.3133 57.8039V57.831L30.2904 57.8386L30.0312 57.9045L30.0299 57.8678C29.9861 57.3899 29.9215 57.0424 29.1656 57.0361H28.1735V58.8988H29.0176C29.4408 58.8948 29.5171 58.6779 29.5672 58.2805L29.57 58.2521H29.5984H29.8505V58.2848C29.8366 58.5724 29.8277 58.8587 29.8277 59.1449C29.8277 59.4241 29.8374 59.7028 29.8505 59.9821V60.0077L29.8249 60.0146L29.57 60.0645L29.5672 60.0306C29.5173 59.5818 29.513 59.335 29.0247 59.3302H28.1735V61.013C28.1748 61.459 28.5605 61.4577 29.0406 61.459C29.925 61.4541 30.2795 61.4111 30.5025 60.585L30.5108 60.5551L30.5407 60.5614L30.7769 60.6212L30.77 60.6524C30.6735 61.0421 30.5866 61.4306 30.5207 61.821L30.5151 61.8454H30.4891Z" fill="white"/>
<path d="M32.6733 59.1658H33.0318C33.7705 59.1658 34.165 58.8873 34.165 58.0187C34.165 57.3656 33.7467 56.9466 33.0916 56.9466C32.8707 56.9466 32.7769 56.9681 32.6733 56.975V59.1658ZM31.7304 57.4594C31.7304 56.9237 31.4372 56.9022 31.2094 56.9022H31.0767V56.6799C31.3128 56.6799 31.7672 56.7098 32.2167 56.7098C32.6579 56.7098 33.0109 56.6799 33.3999 56.6799C34.3268 56.6799 35.1514 56.9293 35.1514 57.9756C35.1514 58.637 34.7102 59.0414 34.1294 59.2699L35.3862 61.1514C35.594 61.4621 35.7392 61.5495 36.0998 61.5941V61.815C35.8566 61.815 35.6211 61.7851 35.3794 61.7851C35.1515 61.7851 34.9152 61.815 34.6888 61.815C34.1233 61.0731 33.6355 60.2774 33.1583 59.4306H32.674V61.0049C32.674 61.5718 32.9388 61.5941 33.2751 61.5941H33.4078V61.815C32.9882 61.815 32.5638 61.7851 32.1434 61.7851C31.7904 61.7851 31.4445 61.815 31.0768 61.815V61.5941H31.2096C31.4813 61.5941 31.7306 61.4697 31.7306 61.1967L31.7304 57.4594Z" fill="white"/>
<path d="M33.032 59.135C33.7608 59.1287 34.1269 58.8766 34.1353 58.0206C34.1312 57.3787 33.7324 56.9806 33.0918 56.9771C32.8924 56.9771 32.7999 56.9958 32.7048 57.0042V59.135H33.032ZM32.672 59.1976H32.6408V56.9466L32.6679 56.9425C32.7693 56.9349 32.8686 56.9154 33.091 56.9154C33.76 56.9154 34.1956 57.3497 34.1971 58.02C34.1943 58.8988 33.774 59.1976 33.0313 59.1976H32.672ZM32.672 59.4004H33.1757L33.1841 59.4156C33.6642 60.2597 34.1477 61.0538 34.689 61.7826C34.9127 61.7826 35.1489 61.752 35.3782 61.752C35.6131 61.752 35.8409 61.7776 36.0688 61.7811V61.6207C35.7228 61.5784 35.5615 61.4747 35.36 61.1704L34.0788 59.2542L34.1171 59.2396C34.6923 59.0138 35.1183 58.6192 35.1196 57.9731C35.1183 56.9524 34.3241 56.7162 33.3987 56.7121C33.0118 56.7121 32.6595 56.742 32.2156 56.742C31.7841 56.742 31.3472 56.7136 31.1054 56.7121V56.8705H31.2083C31.4361 56.8705 31.7607 56.9073 31.7607 57.4597V61.1968C31.7607 61.4935 31.4855 61.6261 31.2083 61.6276H31.1054V61.7824C31.4612 61.7817 31.7959 61.7533 32.142 61.7533C32.5533 61.7533 32.9674 61.7817 33.3753 61.7824V61.6276H33.2739C32.939 61.6261 32.6402 61.5845 32.6402 61.005V59.4L32.672 59.4004ZM36.0999 61.8454C35.8534 61.8454 35.6198 61.8162 35.378 61.8162C35.1543 61.8162 34.9181 61.8454 34.6632 61.8337C34.0983 61.0937 33.6154 60.3044 33.1395 59.4644H32.7052V61.0054C32.7136 61.5577 32.9345 61.5542 33.2749 61.5633H33.4403V61.5945V61.8454H33.4076C32.9859 61.8454 32.5593 61.8162 32.1432 61.8162C31.7917 61.8162 31.4456 61.8454 31.0766 61.8454H31.0439V61.8142V61.5633H31.0766H31.2094C31.4742 61.5592 31.6977 61.4452 31.6977 61.1972V57.46C31.6921 56.939 31.4372 56.9403 31.2094 56.934H31.0439V56.9013V56.6492H31.0766C31.3143 56.6492 31.7686 56.6783 32.2167 56.6783C32.6566 56.6783 33.0093 56.6492 33.3998 56.6492C34.328 56.6512 35.1812 56.9062 35.184 57.9742C35.184 58.6391 34.7456 59.0531 34.1787 59.2852L35.412 61.1361C35.6183 61.4404 35.747 61.5175 36.1053 61.5633L36.131 61.5661V61.5945V61.8454H36.0999Z" fill="white"/>
<path d="M41.0937 60.3655L41.1076 60.3508V57.5926C41.1076 56.9903 40.688 56.9013 40.4698 56.9013H40.3072V56.6804C40.6531 56.6804 40.9908 56.7103 41.3367 56.7103C41.6383 56.7103 41.9378 56.6804 42.2434 56.6804V56.9013H42.1322C41.823 56.9013 41.4769 56.9611 41.4769 57.8358V61.1818C41.4769 61.4395 41.4838 61.6972 41.5213 61.9245H41.2413L37.4542 57.7023V60.7335C37.4542 61.3726 37.5779 61.5936 38.1448 61.5936H38.2684V61.8145C37.9537 61.8145 37.6362 61.7847 37.3215 61.7847C36.9887 61.7847 36.651 61.8145 36.3218 61.8145V61.5936H36.4226C36.9312 61.5936 37.086 61.2477 37.086 60.6598V57.5618C37.086 57.1513 36.7483 56.9004 36.417 56.9004H36.3218V56.6794C36.5997 56.6794 36.8874 56.7093 37.1674 56.7093C37.3855 56.7093 37.6002 56.6794 37.8211 56.6794L41.0937 60.3655Z" fill="white"/>
<path d="M41.076 60.3509V60.3489L41.0704 60.3433L41.076 60.3509ZM41.0934 60.3656L41.1163 60.3433L41.0934 60.3656ZM41.2414 61.8918H41.4832C41.4505 61.6729 41.4436 61.4263 41.4436 61.1818V57.8359C41.4436 56.9536 41.8154 56.8722 42.1314 56.8709H42.2071V56.7126C41.9195 56.7139 41.6276 56.741 41.3359 56.741C40.9997 56.741 40.6697 56.7139 40.3368 56.7126V56.8709H40.4681C40.6931 56.8722 41.1386 56.9703 41.1386 57.5928L41.1289 60.3734L41.1142 60.388L41.0927 60.4124L37.8183 56.7127C37.6001 56.7127 37.3882 56.7411 37.1658 56.7411C36.8927 56.7411 36.6177 56.714 36.3488 56.7127V56.8711H36.4155C36.7601 56.8724 37.1159 57.1316 37.1159 57.5631V60.6589C37.1159 61.2501 36.9491 61.6246 36.4211 61.6282L36.3488 61.6269V61.7832C36.6676 61.7812 36.9963 61.7541 37.3188 61.7541C37.628 61.7541 37.9323 61.7812 38.2359 61.7832V61.6284H38.1434C37.5639 61.6271 37.4187 61.3742 37.4174 60.7336V57.6226L41.2414 61.8918ZM41.5212 61.9559L41.2169 61.9468L37.4839 57.7852V60.7325C37.4935 61.3731 37.5895 61.5558 38.1445 61.5626H38.2994V61.5938V61.8447H38.2682C37.9507 61.8447 37.6345 61.8155 37.3197 61.8155C36.9898 61.8155 36.6507 61.8447 36.3206 61.8447H36.2866V61.8148V61.5626H36.3206H36.4214C36.9085 61.5585 37.0481 61.2464 37.0524 60.658V57.5622C37.0511 57.171 36.7308 56.9335 36.416 56.9335H36.2868V56.9008V56.6487H36.3208C36.6 56.6487 36.8877 56.6778 37.1664 56.6778C37.3825 56.6778 37.5951 56.6487 37.8437 56.6576L41.0758 60.2995V57.5927C41.073 57.0091 40.6825 56.9361 40.4692 56.9341H40.274V56.9014V56.6492H40.3067C40.6526 56.6492 40.9917 56.6784 41.3363 56.6784C41.6364 56.6784 41.9359 56.6492 42.2402 56.6492H42.2729V56.6819V56.9341H42.2402H42.1318C41.8274 56.9404 41.5155 56.9688 41.5079 57.8359V61.1818C41.5079 61.4388 41.5147 61.6945 41.5517 61.921L41.5558 61.9557H41.5212V61.9559Z" fill="white"/>
<path d="M44.4973 57.505H44.4826L43.8004 59.5872H45.1754L44.4973 57.505ZM43.4252 60.7642C43.3509 61.0136 43.2625 61.2069 43.2625 61.3367C43.2625 61.5576 43.5717 61.5944 43.8134 61.5944H43.896V61.8153C43.6001 61.7994 43.3006 61.7855 43.0046 61.7855C42.7398 61.7855 42.4765 61.7994 42.2104 61.8153V61.5944H42.2548C42.5411 61.5944 42.7842 61.4241 42.8926 61.1157L44.0702 57.742C44.1668 57.4683 44.2995 57.1006 44.3433 56.8297C44.5782 56.7478 44.8727 56.6019 45.0123 56.513C45.0352 56.5053 45.0491 56.4983 45.0721 56.4983C45.0924 56.4983 45.1061 56.4983 45.1221 56.5206C45.1449 56.5804 45.1659 56.647 45.1902 56.704L46.5416 60.5509C46.6313 60.8079 46.7195 61.0803 46.8132 61.3027C46.9014 61.5077 47.0578 61.5959 47.3016 61.5959H47.3439V61.8168C47.0139 61.8009 46.6818 61.7869 46.3303 61.7869C45.9689 61.7869 45.6015 61.8009 45.227 61.8168V61.5959H45.3068C45.475 61.5959 45.764 61.566 45.764 61.3825C45.764 61.286 45.6973 61.0873 45.6147 60.8524L45.3284 59.9985H43.6582L43.4252 60.7642Z" fill="white"/>
<path d="M44.4657 57.5144L44.4817 57.5089L44.4657 57.5144ZM43.8426 59.5543H45.1306L44.4887 57.5833L43.8426 59.5543ZM43.7544 59.6183L44.4588 57.4723H44.4817H44.4963V57.505L44.4895 57.5078L44.4963 57.505V57.4723H44.5207L45.2183 59.6183H43.7544ZM45.2563 61.7804C45.621 61.7672 45.9782 61.7533 46.3297 61.7533C46.6701 61.7533 46.9918 61.7679 47.3107 61.7804V61.6261H47.2995C47.0487 61.6281 46.8751 61.5275 46.7841 61.3121C46.6875 61.0898 46.5993 60.8167 46.5124 60.5603L45.1583 56.7127C45.1354 56.6544 45.1145 56.589 45.0944 56.5355C45.0888 56.5279 45.0903 56.5279 45.0833 56.5279H45.0708C45.0562 56.5279 45.0465 56.5328 45.027 56.5383C44.8859 56.6308 44.5899 56.7753 44.3717 56.833C44.3274 57.111 44.1939 57.4792 44.0986 57.7515L42.9223 61.126C42.8098 61.4463 42.5521 61.6277 42.2506 61.6262H42.2409V61.7805C42.4918 61.7674 42.7474 61.7534 43.0024 61.7534C43.2872 61.7534 43.5776 61.7681 43.8569 61.7805V61.6261H43.811C43.572 61.624 43.2371 61.5969 43.2274 61.3377C43.2287 61.1897 43.3184 61.0022 43.3901 60.7541L43.4227 60.7638L43.3901 60.7534L43.6333 59.9656H45.3486L45.6446 60.841C45.7244 61.0772 45.7939 61.2725 45.7939 61.3808C45.7814 61.6058 45.4708 61.6225 45.3055 61.6261H45.2556V61.7804H45.2563ZM47.342 61.8457C47.0106 61.8318 46.6799 61.8166 46.3297 61.8166C45.9684 61.8166 45.6037 61.8318 45.2264 61.8457L45.1924 61.8485V61.8158V61.5609H45.2264H45.3063C45.4771 61.5609 45.7279 61.5219 45.7279 61.3817C45.7307 61.2991 45.6654 61.0954 45.5827 60.862L45.3048 60.0291H43.6818L43.4525 60.7731C43.3795 61.0232 43.2898 61.2191 43.2913 61.3379C43.2941 61.5171 43.5692 61.5602 43.8123 61.5602H43.9248V61.5941V61.8478L43.8921 61.845C43.5975 61.8311 43.2982 61.8158 43.0035 61.8158C42.7402 61.8158 42.4754 61.8311 42.2121 61.845L42.1787 61.8485V61.8158V61.5609H42.2099H42.2522C42.5287 61.5596 42.756 61.4045 42.8629 61.1065L44.0392 57.7307C44.1358 57.4576 44.2685 57.0909 44.3324 56.7985C44.563 56.7199 44.8577 56.5719 45.0001 56.4837C45.0203 56.4754 45.0411 56.4657 45.0723 56.4657C45.0898 56.4644 45.1278 56.4706 45.1522 56.5088C45.1737 56.5699 45.1965 56.6353 45.2188 56.695L46.573 60.5413C46.6599 60.7998 46.7466 61.0714 46.8433 61.2889C46.9302 61.4848 47.0643 61.5613 47.3004 61.5626H47.3747V61.5965V61.8502L47.342 61.8457Z" fill="white"/>
<path d="M47.6681 57.0485C47.1172 57.0485 47.0942 57.1805 46.9845 57.7175H46.7622C46.7906 57.5112 46.8289 57.3062 46.8519 57.0922C46.8818 56.8859 46.8963 56.6801 46.8963 56.4683H47.0727C47.131 56.6892 47.3159 56.6809 47.5125 56.6809H51.3094C51.5061 56.6809 51.6908 56.6746 51.7055 56.4536L51.8819 56.4835C51.8535 56.6809 51.8249 56.8796 51.802 57.079C51.7861 57.2769 51.7861 57.4758 51.7861 57.6744L51.5659 57.755C51.5512 57.4834 51.5159 57.0478 51.0218 57.0478H49.8151V60.9607C49.8151 61.5271 50.0728 61.5937 50.4258 61.5937H50.5654V61.8147C50.2791 61.8147 49.7637 61.7848 49.3656 61.7848C48.9257 61.7848 48.4103 61.8147 48.124 61.8147V61.5937H48.2623C48.668 61.5937 48.8743 61.557 48.8743 60.9762V57.048H47.6681V57.0485Z" fill="white"/>
<path d="M50.565 61.8451C50.2759 61.8451 49.7617 61.8159 49.3651 61.8159C48.9267 61.8159 48.4113 61.8451 48.1235 61.8451H48.0916V61.8152V61.563H48.1242H48.2626C48.6683 61.5519 48.8309 61.5484 48.8406 60.9767V57.0811H47.6678V57.0485V57.0158H48.9052V60.9767C48.9052 61.5673 48.6662 61.6241 48.2618 61.6263H48.1534V61.784C48.4453 61.7804 48.9392 61.7533 49.3651 61.7533C49.7508 61.7533 50.2419 61.7804 50.5338 61.784L50.5325 61.6263H50.4255C50.0712 61.6243 49.7836 61.5402 49.7836 60.9614V57.0158H51.021C51.5149 57.0171 51.5802 57.4362 51.5934 57.7106L51.7533 57.6523C51.7533 57.462 51.7533 57.2681 51.768 57.0756C51.7895 56.8858 51.8166 56.697 51.8437 56.51L51.7325 56.4912C51.6985 56.7046 51.4893 56.7163 51.308 56.7129H47.5111H47.4744C47.3008 56.7142 47.113 56.7053 47.0471 56.4983H46.9276C46.9248 56.7025 46.9101 56.8992 46.8817 57.0958C46.8629 57.298 46.8262 57.4939 46.7991 57.6864H46.9567C47.0533 57.1751 47.1166 57.0071 47.6675 57.016V57.0486V57.0813C47.1221 57.0904 47.1338 57.1827 47.0137 57.726L47.0081 57.7503H46.9838H46.7246L46.7287 57.7141C46.7599 57.5071 46.7954 57.3008 46.8184 57.0887C46.8483 56.883 46.8628 56.6788 46.8628 56.4677V56.4342H46.8954H47.0948L47.1017 56.4578C47.1517 56.6453 47.2865 56.6453 47.4747 56.6481C47.4887 56.6481 47.4991 56.6481 47.5115 56.6481H51.3084C51.5106 56.6446 51.6599 56.6418 51.6731 56.4508V56.4146L51.7085 56.4222L51.9176 56.4548L51.912 56.4875C51.8809 56.6834 51.8537 56.8821 51.8307 57.0808C51.8168 57.2759 51.8168 57.4748 51.8168 57.674V57.6955L51.7953 57.7052L51.5347 57.8004L51.5335 57.7566C51.5147 57.4815 51.4863 57.0813 51.0208 57.0813H49.8481V60.9616C49.8536 61.5173 50.0731 61.5556 50.4248 61.5632H50.5958V61.5944V61.8453H50.5651L50.565 61.8451Z" fill="white"/>
<path d="M52.1526 61.5946H52.254C52.5201 61.5946 52.798 61.5578 52.798 61.1749V57.321C52.798 56.9381 52.5201 56.9014 52.254 56.9014H52.1526V56.6804C52.4402 56.6804 52.8801 56.7103 53.2407 56.7103C53.6096 56.7103 54.0493 56.6804 54.3967 56.6804V56.9014H54.2938C54.0278 56.9014 53.7485 56.9389 53.7485 57.321V61.1749C53.7485 61.5578 54.0278 61.5946 54.2938 61.5946H54.3967V61.8155C54.0424 61.8155 53.6013 61.7856 53.2336 61.7856C52.8723 61.7856 52.4395 61.8155 52.1519 61.8155V61.5946H52.1526Z" fill="white"/>
<path d="M54.3648 61.7821V61.6257H54.2938C54.0306 61.6257 53.7171 61.5798 53.7171 61.1749V57.321C53.7171 56.9153 54.0306 56.8707 54.2938 56.8707H54.3648V56.7123C54.0244 56.7136 53.5992 56.7407 53.2414 56.7407C52.8912 56.7407 52.4709 56.7136 52.1853 56.7123V56.8707H52.2547C52.518 56.8707 52.83 56.9151 52.8314 57.321V61.1749C52.8301 61.5798 52.518 61.6257 52.2547 61.6257H52.1853V61.7821C52.4688 61.7785 52.8842 61.7529 53.2344 61.7529C53.5901 61.7529 54.0174 61.78 54.3648 61.7821ZM54.3962 61.8454C54.0419 61.8454 53.6007 61.8162 53.2346 61.8162C52.8747 61.8162 52.4404 61.8454 52.1528 61.8454H52.1201V61.8155V61.5945V61.5633H52.1528H52.2542C52.5203 61.5578 52.764 61.5349 52.7655 61.1749V57.321C52.7642 56.9624 52.5195 56.9381 52.2542 56.9333H52.1201V56.9006V56.6484H52.1528C52.4404 56.6484 52.8816 56.6776 53.2409 56.6776C53.607 56.6776 54.0482 56.6484 54.3956 56.6484H54.4268V56.6811V56.9333H54.3956H54.2942C54.0239 56.9381 53.7829 56.9624 53.7801 57.321V61.1749C53.7829 61.5347 54.0246 61.5578 54.2942 61.5633H54.427V61.5945V61.8454H54.3962Z" fill="white"/>
<path d="M57.4414 61.6021C58.869 61.6021 59.1171 60.3424 59.1171 59.2705C59.1171 58.1951 58.5376 56.8936 57.3162 56.8936C56.0282 56.8936 55.646 58.0428 55.646 59.0265C55.646 60.3432 56.2499 61.6021 57.4414 61.6021ZM57.3281 56.5706C58.8982 56.5706 60.1482 57.5418 60.1482 59.1091C60.1482 60.7996 58.9337 61.9244 57.3677 61.9244C55.8072 61.9244 54.6157 60.867 54.6157 59.2842C54.6157 57.7552 55.8003 56.5706 57.3281 56.5706Z" fill="white"/>
<path d="M55.6133 59.0275C55.6161 58.0367 56.0031 56.8632 57.3162 56.8632C58.5647 56.8645 59.147 58.1888 59.1497 59.2713C59.147 60.3439 58.8948 61.6327 57.4413 61.6327V61.6028V61.5701C58.8393 61.5681 59.0831 60.3432 59.0844 59.2705C59.0844 58.2047 58.5105 56.9291 57.3162 56.9263C56.0545 56.9276 55.68 58.0469 55.6787 59.0265C55.6787 60.3369 56.2769 61.5666 57.4413 61.5694V61.6021V61.6327C56.2199 61.6321 55.6161 60.351 55.6133 59.0275ZM54.583 59.2852C54.5871 57.7379 55.7829 56.5416 57.3281 56.5388V56.5715V56.6027C55.8163 56.6027 54.6469 57.7726 54.6456 59.2852C54.6497 60.8484 55.8231 61.8919 57.3676 61.8927C58.9169 61.8919 60.114 60.783 60.1168 59.1073C60.1155 57.56 58.885 56.6047 57.3279 56.6027V56.5715V56.5388C58.9085 56.5401 60.1764 57.522 60.1778 59.1073C60.1765 60.8172 58.9481 61.9545 57.3674 61.9565C55.794 61.9545 54.5873 60.8846 54.583 59.2852Z" fill="white"/>
<path d="M65.1024 60.3655L65.1184 60.3508V57.5926C65.1184 56.9903 64.698 56.9013 64.4765 56.9013H64.3166V56.6804C64.6612 56.6804 65.0003 56.7103 65.3449 56.7103C65.6492 56.7103 65.95 56.6804 66.2515 56.6804V56.9013H66.1403C65.8325 56.9013 65.4866 56.9611 65.4866 57.8358V61.1818C65.4866 61.4395 65.4934 61.6972 65.5309 61.9245H65.2517L61.4631 57.7023V60.7335C61.4631 61.3726 61.5868 61.5936 62.1551 61.5936H62.2803V61.8145C61.9628 61.8145 61.6466 61.7847 61.3318 61.7847C61.0004 61.7847 60.6613 61.8145 60.3294 61.8145V61.5936H60.4335C60.9421 61.5936 61.0956 61.2477 61.0956 60.6598V57.5618C61.0956 57.1513 60.7579 56.9004 60.4252 56.9004H60.3286V56.6794C60.6094 56.6794 60.8955 56.7093 61.1755 56.7093C61.3964 56.7093 61.6098 56.6794 61.8293 56.6794L65.1024 60.3655Z" fill="white"/>
<path d="M65.086 60.3509V60.3488L65.0805 60.3432L65.086 60.3509ZM65.102 60.3655L65.1263 60.3432L65.102 60.3655ZM65.2515 61.8918H65.4919C65.4607 61.6716 65.4537 61.4263 65.4537 61.1818V57.8359C65.4537 56.9515 65.8254 56.8722 66.1401 56.8709H66.2187V56.7125C65.9283 56.7138 65.6392 56.7409 65.3447 56.7409C65.0097 56.7409 64.6813 56.7138 64.347 56.7125V56.8709H64.4776C64.7041 56.8722 65.1494 56.9717 65.1494 57.5941L65.141 60.3731L65.1263 60.3878L65.102 60.4121L61.8289 56.7125C61.6115 56.7125 61.3974 56.7409 61.1751 56.7409C60.9035 56.7409 60.6283 56.7138 60.3594 56.7125V56.8709H60.4248C60.7707 56.8722 61.1265 57.1314 61.1265 57.5629V60.6609C61.1265 61.2501 60.9625 61.6246 60.4331 61.6281L60.3602 61.6268V61.7832C60.6805 61.7811 61.0076 61.754 61.3314 61.754C61.6365 61.754 61.9421 61.7811 62.2472 61.7832V61.6283H62.152C61.5752 61.627 61.43 61.3741 61.43 60.7348V57.6216L65.2515 61.8918ZM65.5307 61.9559L65.2257 61.9455L61.4941 57.7852V60.7337C61.5038 61.3728 61.6011 61.5542 62.152 61.5598H62.3111V61.5938V61.8446H62.2799C61.9611 61.8446 61.6449 61.8155 61.3314 61.8155C61 61.8155 60.6638 61.8446 60.329 61.8446H60.2983V61.8134V61.5598H60.3282H60.4324C60.9166 61.5585 61.0563 61.2464 61.0618 60.66V57.562C61.0618 57.1708 60.7403 56.9333 60.424 56.9333H60.2983V56.9006V56.6484H60.3282C60.6103 56.6484 60.8979 56.6776 61.1751 56.6776C61.3933 56.6776 61.6038 56.6484 61.8552 56.6588L65.0858 60.2994V57.5934C65.0844 57.0083 64.6926 56.9381 64.4779 56.9333H64.2841V56.9006V56.6484H64.3168C64.6627 56.6484 65.0017 56.6776 65.3451 56.6776C65.6451 56.6776 65.9461 56.6484 66.2504 56.6484H66.2831V56.6811V56.9333H66.2504H66.1407C65.8378 56.9424 65.5259 56.968 65.5181 57.8351V61.181C65.5181 61.438 65.525 61.6952 65.5604 61.9202L65.566 61.9549H65.5305V61.9559H65.5307Z" fill="white"/>
<path d="M68.5081 57.505H68.4935L67.8098 59.5872H69.1855L68.5081 57.505ZM67.4332 60.7642C67.361 61.0136 67.2721 61.2069 67.2721 61.3367C67.2721 61.5576 67.5812 61.5944 67.823 61.5944H67.9043V61.8153C67.6096 61.7994 67.3088 61.7855 67.0143 61.7855C66.7496 61.7855 66.485 61.7994 66.2217 61.8153V61.5944H66.264C66.5516 61.5944 66.7949 61.4241 66.9031 61.1157L68.0807 57.742C68.1772 57.4683 68.31 57.1006 68.3538 56.8297C68.59 56.7478 68.8832 56.6019 69.0243 56.513C69.0445 56.5053 69.0598 56.4983 69.0813 56.4983C69.1041 56.4983 69.1181 56.4983 69.1327 56.5206C69.1571 56.5804 69.1773 56.647 69.2009 56.704L70.5522 60.5509C70.6404 60.8079 70.7286 61.0803 70.8254 61.3027C70.9136 61.5077 71.0686 61.5959 71.3111 61.5959H71.3549V61.8168C71.025 61.8009 70.6943 61.7869 70.3413 61.7869C69.98 61.7869 69.6125 61.8009 69.2367 61.8168V61.5959H69.318C69.4861 61.5959 69.7752 61.566 69.7752 61.3825C69.7752 61.286 69.707 61.0873 69.6259 60.8524L69.3411 59.9985H67.6709L67.4332 60.7642Z" fill="white"/>
<path d="M68.4784 57.5141L68.493 57.5085L68.4784 57.5141ZM67.8545 59.5539H69.1398L68.5007 57.585L67.8545 59.5539ZM67.7648 59.618L68.4708 57.4719H68.4936H68.5083V57.5046L68.4999 57.5074L68.5083 57.5046V57.4719H68.5311L69.2272 59.618H67.7648ZM69.2682 61.7813C69.6316 61.7666 69.9902 61.7529 70.3403 61.7529C70.6822 61.7529 71.0025 61.7676 71.3228 61.78L71.3215 61.6257H71.309C71.0597 61.627 70.8859 61.5271 70.7949 61.3117C70.6983 61.0895 70.6101 60.8163 70.5232 60.5599L69.1691 56.7123C69.1463 56.654 69.1247 56.5886 69.1065 56.5365C69.1009 56.5274 69.1009 56.5274 69.0954 56.5274H69.0807C69.0647 56.5274 69.0592 56.5337 69.0397 56.5378C68.8958 56.6275 68.6013 56.776 68.3844 56.8324C68.3386 57.1104 68.2052 57.4771 68.11 57.751L66.9324 61.1255C66.8199 61.4458 66.5635 61.6272 66.2634 61.6257H66.2523V61.78C66.5044 61.7668 66.7588 61.7529 67.0137 61.7529C67.2986 61.7529 67.589 61.7676 67.8725 61.78V61.6257H67.8226C67.5836 61.6237 67.2486 61.5979 67.239 61.336C67.2403 61.1894 67.3327 61.0033 67.4029 60.7538L67.4328 60.7634L67.4029 60.753L67.6462 59.9652H69.3602L69.6548 60.8407C69.7361 61.0768 69.8028 61.2722 69.8028 61.3804C69.7932 61.6055 69.484 61.6222 69.3173 61.6257H69.2686L69.2682 61.7813ZM71.3527 61.8454C71.0199 61.8335 70.6905 61.8162 70.3403 61.8162C69.9805 61.8162 69.6116 61.8337 69.237 61.8454L69.2044 61.8481V61.8142V61.5633H69.2356H69.3169C69.4877 61.5633 69.74 61.5217 69.7413 61.3814C69.7426 61.2987 69.676 61.0965 69.5934 60.8616L69.3141 60.0287H67.6911L67.4646 60.7727C67.3916 61.0243 67.3019 61.2187 67.3034 61.3368C67.3034 61.5175 67.5786 61.5633 67.8231 61.5633H67.9356V61.5945V61.8481L67.903 61.8454C67.6083 61.8335 67.3075 61.8162 67.0143 61.8162C66.751 61.8162 66.4862 61.8337 66.2216 61.8454L66.189 61.8481V61.8142V61.5633H66.2216H66.264C66.5371 61.5605 66.7662 61.4034 66.8747 61.1062L68.0509 57.7304C68.1462 57.4574 68.2788 57.0905 68.3428 56.7981C68.5749 56.7182 68.8694 56.5716 69.0133 56.4834C69.0308 56.475 69.0529 56.4674 69.0814 56.4674C69.1017 56.4639 69.1398 56.4702 69.1628 56.5097C69.1843 56.568 69.2066 56.6349 69.2309 56.6945L70.5836 60.5408C70.6705 60.7993 70.7587 61.0709 70.8552 61.2891C70.9406 61.4842 71.0734 61.5607 71.3096 61.5642H71.3866V61.5954V61.8491L71.3527 61.8454Z" fill="white"/>
<path d="M73.209 61.0938C73.209 61.3898 73.4125 61.4773 73.6489 61.5066C73.9504 61.5281 74.2811 61.5281 74.6189 61.4919C74.928 61.4544 75.1928 61.278 75.3261 61.0938C75.4429 60.9319 75.5096 60.7264 75.5526 60.5645H75.7673C75.6874 60.9841 75.5838 61.3961 75.4941 61.8158C74.848 61.8158 74.1998 61.7859 73.5536 61.7859C72.9047 61.7859 72.2593 61.8158 71.6118 61.8158V61.5948H71.7132C71.978 61.5948 72.2656 61.558 72.2656 61.1022V57.322C72.2656 56.9391 71.978 56.9024 71.7132 56.9024H71.6118V56.6814C72.0003 56.6814 72.3837 56.7113 72.7734 56.7113C73.1492 56.7113 73.5154 56.6814 73.8914 56.6814V56.9024H73.7066C73.4274 56.9024 73.2085 56.9115 73.2085 57.2991V61.094L73.209 61.0938Z" fill="white"/>
<path d="M75.4685 61.782C75.5526 61.3839 75.6492 60.9935 75.729 60.5954H75.5782C75.5324 60.7545 75.467 60.9539 75.3489 61.113C75.2134 61.3034 74.9404 61.484 74.6214 61.5236C74.4291 61.5423 74.2386 61.5527 74.0566 61.5527C73.9142 61.5527 73.7773 61.5464 73.6438 61.5375C73.4034 61.5119 73.1728 61.4083 73.1728 61.0935V57.2981C73.1728 56.8896 73.432 56.8709 73.7064 56.8709H73.8572V56.7125C73.4958 56.7138 73.1395 56.7424 72.7726 56.7424C72.3913 56.7424 72.018 56.714 71.6422 56.7125V56.8709H71.7132C71.9751 56.8709 72.2967 56.9152 72.2967 57.3204V61.1013C72.2967 61.578 71.9764 61.6259 71.7132 61.6259H71.6422V61.7822C72.2772 61.7815 72.9136 61.7531 73.5529 61.7531C74.1921 61.7529 74.832 61.7813 75.4685 61.782ZM75.4941 61.8454C74.8452 61.8454 74.1998 61.8162 73.5536 61.8162C72.9061 61.8162 72.2592 61.8454 71.609 61.8454H71.5791V61.8142V61.5633H71.609H71.7132C71.9779 61.5557 72.2301 61.5377 72.2342 61.1019V57.321C72.2301 56.9632 71.9805 56.9388 71.7132 56.934H71.5791V56.9013V56.6492H71.609C72.0008 56.6492 72.3836 56.6783 72.7734 56.6783C73.1464 56.6783 73.5126 56.6492 73.8913 56.6492H73.9212V56.6818V56.934H73.8913H73.7066C73.4218 56.9403 73.2439 56.9292 73.2383 57.2981V61.0935C73.2411 61.368 73.419 61.4422 73.6496 61.4749C73.7788 61.4846 73.9157 61.4896 74.0568 61.4896C74.2374 61.4896 74.4242 61.4805 74.6147 61.4604C74.9135 61.4242 75.1727 61.2527 75.2997 61.0763C75.4122 60.9199 75.4761 60.7164 75.5207 60.5573L75.5275 60.5322H75.5519H75.804L75.7984 60.5718C75.7143 60.9922 75.6137 61.4034 75.524 61.8218L75.5171 61.8461H75.4941V61.8454Z" fill="white"/>
<path d="M75.5525 57.2481H75.645C75.7443 57.2481 75.7917 57.1738 75.7917 57.0515C75.7917 56.9278 75.7187 56.8847 75.6396 56.8847H75.5527V57.2481H75.5525ZM75.292 57.6566V57.6191C75.3873 57.6052 75.4046 57.6087 75.4046 57.5489V56.9757C75.4046 56.8964 75.3962 56.868 75.2948 56.8729V56.8339H75.6922C75.8277 56.8339 75.9527 56.8972 75.9527 57.0381C75.9527 57.1534 75.8769 57.2383 75.7692 57.2715L75.897 57.4501C75.9568 57.5287 76.0234 57.6057 76.0678 57.6321V57.6564H75.9157C75.8435 57.6564 75.7802 57.5043 75.6378 57.3007H75.5524V57.5571C75.5524 57.6085 75.5698 57.605 75.6664 57.6189V57.6564L75.292 57.6566ZM75.6775 57.8763C76.0234 57.8763 76.2897 57.5816 76.2897 57.2481C76.2897 56.9154 76.0277 56.6166 75.6775 56.6166C75.3288 56.6166 75.0627 56.9161 75.0627 57.2481C75.0627 57.5816 75.3288 57.8763 75.6775 57.8763ZM75.6775 56.4722C76.1202 56.4722 76.4521 56.814 76.4521 57.2483C76.4521 57.6832 76.1194 58.0202 75.6775 58.0202C75.2356 58.0202 74.9014 57.6832 74.9014 57.2483C74.9008 56.814 75.235 56.4722 75.6775 56.4722Z" fill="white"/>
</svg>
