<svg width="88" height="88" viewBox="0 0 88 88" fill="none" xmlns="http://www.w3.org/2000/svg">
<g clip-path="url(#clip0)">
<path d="M44.0001 88.0015C68.2996 88.0015 87.9982 68.3029 87.9982 44.0034C87.9982 19.7039 68.2996 0.00524902 44.0001 0.00524902C19.7006 0.00524902 0.00195312 19.7039 0.00195312 44.0034C0.00195312 68.3029 19.7006 88.0015 44.0001 88.0015Z" fill="#F3F2F2"/>
<path d="M32.582 52.4419L35.9488 32.5615H41.3995L38.0329 52.4419H32.582Z" fill="#293688"/>
<path d="M57.4372 33.0751C56.357 32.6722 54.6646 32.2407 52.5511 32.2407C47.1641 32.2407 43.3695 34.9378 43.3369 38.8017C43.307 41.6577 46.0456 43.2508 48.1145 44.2025C50.2362 45.175 50.9497 45.7991 50.9393 46.6682C50.9261 48.0007 49.2441 48.6099 47.6769 48.6099C45.4955 48.6092 44.336 48.3084 42.5455 47.5665L41.8432 47.2497L41.0776 51.7002C42.3511 52.2554 44.7062 52.7368 47.1509 52.7611C52.8803 52.7598 56.6013 50.0962 56.6431 45.9688C56.6639 43.7075 55.2112 41.9865 52.0661 40.5673C50.1604 39.6488 48.9933 39.0353 49.0059 38.1031C49.0059 37.277 49.9944 36.3934 52.128 36.3934C53.9106 36.3656 55.2021 36.7519 56.2088 37.1548L56.6965 37.3841L57.4372 33.0751Z" fill="#293688"/>
<path d="M66.7309 32.5615C65.4249 32.5615 64.4813 32.9603 63.9074 34.2546L55.8291 52.4427H61.6003L62.7223 49.3962H69.6175L70.258 52.4427H75.3887L70.9001 32.5621H66.7311L66.7309 32.5615ZM64.2535 45.4182C64.7037 44.2734 66.4245 39.8617 66.4245 39.8617C66.3933 39.9139 66.8725 38.7113 67.1477 37.9651L67.5166 39.6782C67.5166 39.6782 68.5594 44.424 68.7783 45.4188H64.2535V45.4182Z" fill="#293688"/>
<path d="M22.6419 46.1893L22.1617 43.4639C21.1669 40.2869 18.0794 36.8494 14.6196 35.1271L19.4355 52.4419H25.208L33.865 32.5615H28.0939L22.6419 46.1893Z" fill="#293688"/>
<path d="M8.69336 32.5615V32.8825C15.5331 34.5276 20.2816 38.6864 22.1615 43.464L20.185 34.2582C19.8551 33.0001 18.8552 32.6053 17.6722 32.5617L8.69336 32.5615Z" fill="#F7981D"/>
<path d="M43.9969 87.9996C60.979 87.9996 75.7037 78.3733 83.0381 64.2849H4.95654C12.2914 78.3733 27.0156 87.9996 43.9969 87.9996Z" fill="#F7981D"/>
<path d="M43.9968 0C27.2843 0 12.7484 9.31765 5.30029 23.0422H82.6949C75.2458 9.31839 60.7093 0 43.9968 0Z" fill="#293688"/>
</g>
<defs>
<clipPath id="clip0">
<rect width="88" height="88" fill="white"/>
</clipPath>
</defs>
</svg>
