<svg width="521" height="400" viewBox="0 0 521 400" fill="none" xmlns="http://www.w3.org/2000/svg">
<path d="M481.143 74.9641L95.6866 6.99782C73.7683 3.13303 52.8709 17.7459 49.011 39.6365L7.07427 277.472C3.21436 299.362 17.8536 320.241 39.7719 324.106L425.228 392.072C447.146 395.937 468.044 381.324 471.904 359.434L513.84 121.598C517.7 99.7078 503.061 78.8289 481.143 74.9641Z" fill="#2A3A4D"/>
<path d="M465.766 95.637L103.05 31.6804L55.1304 303.446L417.846 367.403L465.766 95.637Z" fill="white"/>
<g style="mix-blend-mode:overlay">
<path d="M456.062 223.51C455.541 226.466 455.909 229.511 457.12 232.26C458.331 235.008 460.331 237.336 462.866 238.949C465.402 240.563 468.359 241.39 471.364 241.325C474.369 241.26 477.287 240.307 479.749 238.585C482.21 236.864 484.106 234.452 485.194 231.654C486.283 228.856 486.517 225.798 485.866 222.867C485.214 219.936 483.708 217.263 481.536 215.186C479.364 213.11 476.625 211.723 473.665 211.201C469.695 210.501 465.611 211.405 462.31 213.713C459.009 216.021 456.761 219.546 456.062 223.51Z" fill="#313130"/>
</g>
<path d="M465.905 95.6175L103.261 31.6736L55.3641 303.313L418.008 367.257L465.905 95.6175Z" fill="url(#paint0_linear)" fill-opacity="0.72"/>
<path d="M420.621 334.349L64.4072 271.539L64.0586 273.516L420.273 336.326L420.621 334.349Z" fill="#D9E0E6"/>
<path d="M212.21 297.6L64.4072 271.539L64.0586 273.516L211.861 299.577L212.21 297.6Z" fill="#DA0100"/>
<path d="M130.696 294.612L128.355 307.889L138.957 302.913L130.696 294.612Z" fill="white"/>
<path d="M143.971 296.97L141.766 296.582L139.428 309.842L141.632 310.231L143.971 296.97Z" fill="white"/>
<path d="M103.933 289.893L101.592 303.17L112.194 298.194L103.933 289.893Z" fill="white"/>
<path d="M86.5843 286.834L84.2433 300.11L75.983 291.809L86.5843 286.834Z" fill="white"/>
<path d="M70.9847 297.756L73.1896 298.145L75.5277 284.884L73.3229 284.496L70.9847 297.756Z" fill="white"/>
<path d="M350.857 337.758L350.604 336.653C351.099 335.951 351.545 335.216 351.938 334.452L350.834 332.898C349.973 333.025 349.12 333.206 348.282 333.443L347.313 332.824C347.153 331.976 346.934 331.14 346.659 330.322L344.776 329.99C344.251 330.665 343.781 331.38 343.37 332.129L342.231 332.376C341.511 331.882 340.757 331.439 339.976 331.05L338.411 332.116C338.533 332.963 338.718 333.799 338.965 334.617L338.349 335.569C337.489 335.722 336.638 335.926 335.802 336.181L335.473 338.045C336.172 338.556 336.906 339.018 337.669 339.427L337.922 340.532C337.433 341.238 336.987 341.973 336.588 342.733L337.692 344.287C338.553 344.173 339.405 343.997 340.241 343.758L341.229 344.364C341.384 345.21 341.597 346.045 341.867 346.863L343.766 347.197C344.284 346.518 344.754 345.804 345.172 345.059L346.295 344.809C347.022 345.305 347.779 345.754 348.563 346.154L350.131 345.071C350.004 344.224 349.813 343.387 349.561 342.568L350.177 341.616C351.039 341.47 351.89 341.266 352.724 341.004L353.05 339.156C352.352 338.64 351.619 338.173 350.857 337.758ZM347.038 339.09C346.954 339.642 346.707 340.156 346.329 340.566C345.951 340.977 345.459 341.266 344.916 341.396C344.373 341.526 343.803 341.492 343.279 341.297C342.756 341.103 342.302 340.756 341.976 340.303C341.65 339.85 341.467 339.31 341.45 338.752C341.432 338.194 341.582 337.644 341.879 337.172C342.176 336.699 342.608 336.326 343.118 336.1C343.629 335.874 344.196 335.805 344.746 335.902C345.471 336.025 346.118 336.429 346.547 337.026C346.976 337.623 347.153 338.364 347.038 339.09Z" fill="white"/>
<path d="M383.641 352.091L363.975 348.623L366.242 335.764L385.909 339.232L383.641 352.091ZM365.678 347.432L382.464 350.391L384.232 340.362L367.447 337.402L365.678 347.432Z" fill="white"/>
<path d="M407.055 342.961L412.044 343.841L411.166 348.823L412.614 349.079L413.748 342.649L407.31 341.514L407.055 342.961Z" fill="white"/>
<path d="M398.371 346.567L399.25 341.584L404.239 342.464L404.494 341.018L398.056 339.882L396.923 346.312L398.371 346.567Z" fill="white"/>
<path d="M410.67 351.636L409.791 356.619L404.802 355.739L404.547 357.186L410.985 358.321L412.118 351.891L410.67 351.636Z" fill="white"/>
<path d="M401.986 355.242L396.997 354.363L397.876 349.38L396.427 349.125L395.294 355.554L401.731 356.689L401.986 355.242Z" fill="white"/>
<g style="mix-blend-mode:overlay">
<path d="M51.6284 175.366C51.3661 176.854 50.5227 178.177 49.2839 179.043C48.0451 179.909 46.5123 180.248 45.0226 179.986C43.533 179.723 42.2086 178.88 41.3408 177.642C40.473 176.405 40.1328 174.873 40.3951 173.386L48.9627 124.796C49.2251 123.309 50.0684 121.986 51.3072 121.12C52.546 120.254 54.0789 119.914 55.5685 120.177C57.0581 120.44 58.3825 121.283 59.2503 122.52C60.1182 123.758 60.4583 125.289 60.196 126.777L51.6284 175.366Z" fill="#313130"/>
</g>
<path d="M147.332 185.786L152.335 186.668L155.322 169.729L160.568 188.119L162.459 188.453L173.679 172.966L170.692 189.904L175.695 190.787L180.696 162.424L175.89 161.577L163.194 178.753L157.139 158.27L152.333 157.423L147.332 185.786ZM185.889 167.605L191.247 168.549L192.08 163.822L186.723 162.878L185.889 167.605ZM181.618 191.831L186.975 192.776L190.726 171.504L185.368 170.559L181.618 191.831ZM193.274 193.886L198.631 194.831L203.736 165.877L198.379 164.933L193.274 193.886ZM204.93 195.941L210.287 196.886L215.392 167.933L210.035 166.988L204.93 195.941ZM220.858 173.77L226.215 174.715L227.048 169.988L221.691 169.043L220.858 173.77ZM216.586 197.997L221.943 198.941L225.694 177.67L220.337 176.725L216.586 197.997ZM237.316 202.261C239.443 202.636 241.398 202.494 243.18 201.833C244.977 201.162 246.477 200.065 247.679 198.544C248.897 197.013 249.7 195.144 250.089 192.938C250.476 190.745 250.364 188.728 249.755 186.888C249.147 185.034 248.114 183.484 246.655 182.239C245.209 180.995 243.416 180.185 241.275 179.808C239.174 179.437 237.233 179.582 235.451 180.243C233.67 180.904 232.17 182 230.952 183.532C229.736 185.05 228.933 186.919 228.542 189.138C228.155 191.331 228.259 193.353 228.853 195.205C229.463 197.045 230.491 198.587 231.937 199.83C233.383 201.074 235.176 201.884 237.316 202.261ZM238.198 197.259C236.531 196.964 235.362 196.183 234.692 194.914C234.038 193.634 233.878 192.042 234.214 190.139C234.541 188.287 235.212 186.862 236.227 185.863C237.258 184.853 238.647 184.503 240.393 184.811C242.087 185.109 243.261 185.898 243.916 187.178C244.583 188.46 244.75 190.047 244.417 191.938C244.095 193.763 243.404 195.184 242.345 196.202C241.301 197.21 239.918 197.562 238.198 197.259ZM252.506 204.33L257.942 205.289L259.845 194.495C260.079 193.169 260.411 192.131 260.841 191.381C261.284 190.633 261.772 190.096 262.303 189.77C262.837 189.431 263.379 189.236 263.93 189.184C264.48 189.132 264.985 189.147 265.445 189.228C266.587 189.429 267.422 189.84 267.949 190.461C268.489 191.085 268.829 191.801 268.971 192.612C269.112 193.422 269.142 194.212 269.06 194.983C268.981 195.741 268.898 196.363 268.813 196.848L267.042 206.893L272.478 207.852L274.582 195.916C274.645 195.562 274.718 194.992 274.802 194.208C274.886 193.424 274.886 192.544 274.801 191.568C274.718 190.579 274.457 189.598 274.019 188.628C273.594 187.659 272.907 186.8 271.956 186.05C271.005 185.3 269.695 184.778 268.028 184.484C266.492 184.213 265.107 184.233 263.874 184.544C262.642 184.855 261.563 185.368 260.638 186.085L261.023 183.899L256.257 183.059L252.506 204.33ZM281.82 209.499L287.178 210.444L291.297 187.084L300.239 188.661L301.121 183.658L277.879 179.56L276.997 184.563L285.939 186.14L281.82 209.499ZM305.13 214.259C306.666 214.53 308.051 214.51 309.283 214.2C310.516 213.889 311.595 213.375 312.52 212.658L312.135 214.845L316.862 215.678L320.613 194.406L315.216 193.455L313.313 204.248C313.081 205.561 312.743 206.598 312.297 207.359C311.867 208.109 311.385 208.654 310.851 208.993C310.32 209.319 309.779 209.508 309.228 209.56C308.678 209.611 308.172 209.597 307.713 209.516C306.57 209.314 305.729 208.902 305.189 208.279C304.662 207.658 304.328 206.942 304.187 206.132C304.045 205.322 304.014 204.538 304.094 203.78C304.176 203.009 304.259 202.381 304.345 201.895L306.116 191.85L300.68 190.892L298.575 202.827C298.513 203.182 298.44 203.751 298.356 204.535C298.271 205.319 298.271 206.206 298.354 207.195C298.439 208.172 298.694 209.144 299.119 210.113C299.557 211.083 300.251 211.944 301.202 212.694C302.153 213.443 303.462 213.965 305.13 214.259ZM322.327 216.642L327.054 217.475L327.27 216.254C327.916 216.964 328.691 217.561 329.594 218.045C330.497 218.529 331.533 218.874 332.701 219.08C334.658 219.425 336.458 219.235 338.102 218.51C339.747 217.784 341.125 216.646 342.238 215.096C343.364 213.548 344.115 211.71 344.49 209.583C344.872 207.416 344.791 205.419 344.247 203.59C343.718 201.75 342.784 200.211 341.446 198.973C340.107 197.735 338.42 196.937 336.385 196.578C335.452 196.414 334.56 196.371 333.706 196.451C332.866 196.533 332.08 196.726 331.35 197.031L332.725 189.231L327.328 188.279L322.327 216.642ZM332.675 214.161C330.889 213.846 329.733 213.033 329.206 211.722C328.681 210.397 328.589 208.77 328.93 206.839C329.27 204.909 329.905 203.417 330.836 202.362C331.782 201.297 333.089 200.912 334.756 201.206C335.951 201.416 336.877 201.884 337.535 202.609C338.208 203.324 338.641 204.206 338.835 205.255C339.031 206.292 339.025 207.401 338.817 208.583C338.606 209.778 338.237 210.836 337.709 211.759C337.183 212.668 336.501 213.346 335.664 213.795C334.827 214.243 333.831 214.365 332.675 214.161ZM356.732 223.317C358.78 223.679 360.759 223.473 362.669 222.699C364.592 221.928 366.126 220.641 367.269 218.839L362.183 216.358C361.054 218.001 359.426 218.634 357.299 218.259C355.841 218.002 354.764 217.392 354.067 216.43C353.383 215.47 353.077 214.211 353.149 212.653L368.079 215.286C368.756 212.752 368.888 210.466 368.475 208.431C368.062 206.395 367.167 204.714 365.79 203.388C364.413 202.062 362.608 201.202 360.376 200.808C358.275 200.438 356.332 200.59 354.548 201.263C352.766 201.924 351.264 203.033 350.042 204.591C348.819 206.149 348.003 208.09 347.593 210.415C347.218 212.542 347.351 214.515 347.991 216.334C348.647 218.142 349.719 219.664 351.207 220.901C352.71 222.128 354.552 222.933 356.732 223.317ZM359.792 205.498C361.079 205.725 362.007 206.221 362.577 206.984C363.159 207.75 363.421 208.873 363.364 210.352L353.988 208.699C355.035 206.067 356.969 205 359.792 205.498Z" fill="white"/>
<defs>
<linearGradient id="paint0_linear" x1="465.905" y1="95.6175" x2="143.86" y2="397.667" gradientUnits="userSpaceOnUse">
<stop stop-color="#2962FF"/>
<stop offset="1" stop-color="#5B29FF"/>
</linearGradient>
</defs>
</svg>
