<svg width="472" height="540" viewBox="0 0 472 540" fill="none" xmlns="http://www.w3.org/2000/svg">
<path d="M185.932 323.928C174.967 314.348 190.835 293.047 190.835 293.047C179.755 289.859 190.737 277.402 190.737 277.402H228.094C239.19 334.325 217.129 342.222 198.679 367.921C198.927 361.659 200.026 355.461 201.947 349.496C201.947 349.496 192.878 359.093 182.092 350.559C171.306 342.025 185.932 323.928 185.932 323.928Z" fill="#ED9C5A"/>
<path d="M295.03 486.967C288.29 489.37 281.767 492.345 275.534 495.86C273.508 496.972 271.138 498.378 268.654 499.882C256.091 499.466 243.515 500.139 231.068 501.893L229.581 441.405C209.578 423.896 189.968 399.194 190.834 383.68C194.887 337.35 225.92 330.156 225.92 303.28C226.018 268.949 223.322 243.25 241.134 243.25C262.755 243.25 258.588 276.241 258.588 277.401C270.991 277.401 286.14 268.148 286.14 249.397V248.138C286.14 248.138 319.886 272.006 321.144 322.031C322.402 372.056 294.736 424.076 294.736 424.076L295.03 486.967Z" fill="#FFC794"/>
<path d="M259.584 310.686L259.895 350.362C259.895 350.362 287.088 325.693 259.584 310.686Z" fill="#ED9C5A"/>
<path d="M431.701 0H40.2989C18.0424 0 0 18.0493 0 40.3143V282.216C0 304.481 18.0424 322.53 40.2989 322.53H431.701C453.958 322.53 472 304.481 472 282.216V40.3143C472 18.0493 453.958 0 431.701 0Z" fill="#2A3A4D"/>
<path d="M420.148 23.0667H51.8364V299.479H420.148V23.0667Z" fill="white"/>
<g style="mix-blend-mode:overlay">
<path d="M432.796 150.893C432.796 153.9 433.688 156.839 435.358 159.339C437.028 161.84 439.401 163.788 442.178 164.939C444.955 166.09 448.011 166.391 450.959 165.804C453.907 165.217 456.615 163.769 458.741 161.643C460.866 159.517 462.314 156.808 462.9 153.859C463.487 150.909 463.186 147.852 462.035 145.074C460.885 142.296 458.937 139.922 456.438 138.251C453.939 136.581 451 135.689 447.994 135.689C443.964 135.689 440.098 137.291 437.248 140.142C434.398 142.993 432.796 146.86 432.796 150.893Z" fill="#313130"/>
</g>
<path d="M420.282 23.0237H52.0435V299.308H420.282V23.0237Z" fill="url(#paint0_linear)" fill-opacity="0.72"/>
<path d="M417.141 266.392H55.4316V268.403H417.141V266.392Z" fill="#D9E0E6"/>
<path d="M205.515 266.392H55.4316V268.403H205.515V266.392Z" fill="#DA0100"/>
<path d="M124.721 277.622V291.126L134.297 284.374L124.721 277.622Z" fill="white"/>
<path d="M138.203 277.639H135.964V291.126H138.203V277.639Z" fill="white"/>
<path d="M97.5444 277.622V291.126L107.121 284.374L97.5444 277.622Z" fill="white"/>
<path d="M79.9279 277.622V291.126L70.3516 284.374L79.9279 277.622Z" fill="white"/>
<path d="M66.4618 291.109H68.7007V277.622H66.4618V291.109Z" fill="white"/>
<path d="M349.029 281.889L348.587 280.843C348.954 280.065 349.265 279.262 349.519 278.44L348.162 277.099C347.336 277.374 346.528 277.701 345.744 278.08L344.682 277.639C344.377 276.83 344.016 276.044 343.603 275.285H341.691C341.292 276.041 340.953 276.829 340.678 277.639L339.599 278.08C338.804 277.719 337.985 277.413 337.148 277.165L335.792 278.489C336.059 279.302 336.387 280.095 336.772 280.859L336.331 281.906C335.51 282.206 334.708 282.555 333.929 282.952V284.848C334.706 285.231 335.508 285.559 336.331 285.829L336.772 286.875C336.413 287.657 336.102 288.459 335.841 289.279L337.197 290.619C338.026 290.357 338.834 290.035 339.616 289.655L340.694 290.08C340.994 290.888 341.348 291.674 341.756 292.434H343.685C344.077 291.674 344.416 290.887 344.698 290.08L345.76 289.638C346.562 290.001 347.386 290.312 348.228 290.57L349.584 289.23C349.312 288.416 348.978 287.623 348.587 286.859L349.029 285.813C349.852 285.519 350.655 285.17 351.431 284.766V282.886C350.654 282.499 349.851 282.165 349.029 281.889ZM345.499 283.867C345.512 284.426 345.358 284.976 345.057 285.447C344.756 285.918 344.322 286.288 343.81 286.511C343.297 286.734 342.73 286.799 342.181 286.698C341.631 286.597 341.124 286.335 340.725 285.944C340.325 285.554 340.051 285.053 339.937 284.506C339.823 283.959 339.875 283.39 340.085 282.872C340.296 282.355 340.656 281.912 341.12 281.6C341.583 281.288 342.129 281.121 342.688 281.121C343.423 281.116 344.131 281.402 344.657 281.916C345.184 282.431 345.486 283.132 345.499 283.867Z" fill="white"/>
<path d="M383.804 290.325H363.834V277.246H383.804V290.325ZM365.305 288.853H382.349V278.652H365.305V288.853Z" fill="white"/>
<path d="M405.276 277.246H410.342V282.314H411.813V275.775H405.276V277.246Z" fill="white"/>
<path d="M397.351 282.314V277.246H402.417V275.775H395.88V282.314H397.351Z" fill="white"/>
<path d="M410.342 285.175V290.243H405.276V291.714H411.813V285.175H410.342Z" fill="white"/>
<path d="M402.417 290.243H397.351V285.175H395.88V291.714H402.417V290.243Z" fill="white"/>
<g style="mix-blend-mode:overlay">
<path d="M26.1468 173.747C26.1468 175.26 25.5459 176.712 24.4764 177.782C23.4068 178.851 21.9561 179.453 20.4435 179.453C18.9309 179.453 17.4803 178.851 16.4107 177.782C15.3411 176.712 14.7402 175.26 14.7402 173.747V124.327C14.7402 122.814 15.3411 121.363 16.4107 120.293C17.4803 119.223 18.9309 118.622 20.4435 118.622C21.9561 118.622 23.4068 119.223 24.4764 120.293C25.5459 121.363 26.1468 122.814 26.1468 124.327V173.747Z" fill="#313130"/>
</g>
<path d="M275.535 495.86C273.508 496.972 271.139 498.378 268.655 499.882C256.091 499.466 243.516 500.139 231.068 501.893L229.581 441.405C209.579 423.896 189.969 399.194 190.835 383.68C194.888 337.35 225.921 330.156 225.921 303.28C226.019 268.949 223.322 243.25 241.135 243.25C256.235 243.25 258.751 259.32 258.899 269.407C258.506 270.682 260.876 318.827 261.66 321.803C269.259 346.325 270.387 371.648 279.211 395.745C282.986 406.06 286.859 413.09 294.818 424.06L295.03 486.95C288.29 489.359 281.767 492.34 275.535 495.86Z" fill="#FFC794"/>
<path d="M231.003 501.86L229.516 441.372C209.513 423.863 189.903 399.162 190.769 383.647C190.769 382.748 190.949 381.898 191.047 381.032C194.217 384.955 211.344 418.975 242.981 418.142C242.981 419.335 246.854 460.565 250.319 499.996C243.849 500.232 237.399 500.854 231.003 501.86Z" fill="#ED9C5A"/>
<path d="M215.38 453.879H305.194V491.708H215.38V453.879Z" fill="white"/>
<path d="M215.38 453.879H246.936V491.708H215.38V453.879Z" fill="#D8DFEE"/>
<path d="M201.719 475.85H310.277V540H201.719V475.85Z" fill="#FF2962"/>
<path d="M201.718 475.85H260.287V540H201.718V475.85Z" fill="#BC2950"/>
<path d="M123.8 167H128.88V149.8L137.24 167H139.16L147.52 149.8V167H152.6V138.2H147.72L138.2 157.32L128.68 138.2H123.8V167ZM158.614 142.4H164.054V137.6H158.614V142.4ZM158.614 167H164.054V145.4H158.614V167ZM170.45 167H175.89V137.6H170.45V167ZM182.286 167H187.726V137.6H182.286V167ZM194.122 142.4H199.562V137.6H194.122V142.4ZM194.122 167H199.562V145.4H194.122V167ZM215.278 167.6C217.438 167.6 219.338 167.12 220.978 166.16C222.631 165.187 223.918 163.847 224.838 162.14C225.771 160.42 226.238 158.44 226.238 156.2C226.238 153.973 225.778 152.007 224.858 150.3C223.938 148.58 222.651 147.233 220.998 146.26C219.358 145.287 217.451 144.8 215.278 144.8C213.144 144.8 211.258 145.28 209.618 146.24C207.978 147.2 206.691 148.54 205.758 150.26C204.824 151.967 204.358 153.947 204.358 156.2C204.358 158.427 204.811 160.4 205.718 162.12C206.638 163.827 207.918 165.167 209.558 166.14C211.198 167.113 213.104 167.6 215.278 167.6ZM215.278 162.52C213.584 162.52 212.298 161.953 211.418 160.82C210.551 159.673 210.118 158.133 210.118 156.2C210.118 154.32 210.531 152.8 211.358 151.64C212.198 150.467 213.504 149.88 215.278 149.88C216.998 149.88 218.291 150.453 219.158 151.6C220.038 152.747 220.478 154.28 220.478 156.2C220.478 158.053 220.044 159.573 219.178 160.76C218.324 161.933 217.024 162.52 215.278 162.52ZM230.596 167H236.116V156.04C236.116 154.693 236.263 153.613 236.556 152.8C236.863 151.987 237.249 151.373 237.716 150.96C238.183 150.533 238.683 150.247 239.216 150.1C239.749 149.953 240.249 149.88 240.716 149.88C241.876 149.88 242.769 150.14 243.396 150.66C244.036 151.18 244.496 151.827 244.776 152.6C245.056 153.373 245.223 154.147 245.276 154.92C245.329 155.68 245.356 156.307 245.356 156.8V167H250.876V154.88C250.876 154.52 250.849 153.947 250.796 153.16C250.743 152.373 250.589 151.507 250.336 150.56C250.083 149.6 249.656 148.68 249.056 147.8C248.469 146.92 247.643 146.193 246.576 145.62C245.509 145.047 244.129 144.76 242.436 144.76C240.876 144.76 239.516 145.02 238.356 145.54C237.196 146.06 236.223 146.753 235.436 147.62V145.4H230.596V167ZM260.363 167H265.803V143.28H274.883V138.2H251.283V143.28H260.363V167ZM284.145 167.64C285.705 167.64 287.065 167.38 288.225 166.86C289.385 166.34 290.358 165.647 291.145 164.78V167H295.945V145.4H290.465V156.36C290.465 157.693 290.311 158.773 290.005 159.6C289.711 160.413 289.331 161.033 288.865 161.46C288.398 161.873 287.898 162.153 287.365 162.3C286.831 162.447 286.331 162.52 285.865 162.52C284.705 162.52 283.805 162.26 283.165 161.74C282.538 161.22 282.085 160.573 281.805 159.8C281.525 159.027 281.358 158.26 281.305 157.5C281.251 156.727 281.225 156.093 281.225 155.6V145.4H275.705V157.52C275.705 157.88 275.731 158.453 275.785 159.24C275.838 160.027 275.991 160.9 276.245 161.86C276.498 162.807 276.918 163.72 277.505 164.6C278.105 165.48 278.938 166.207 280.005 166.78C281.071 167.353 282.451 167.64 284.145 167.64ZM301.494 167H306.294V165.76C307.054 166.347 307.921 166.8 308.894 167.12C309.868 167.44 310.948 167.6 312.134 167.6C314.121 167.6 315.861 167.1 317.354 166.1C318.848 165.1 320.008 163.74 320.834 162.02C321.674 160.3 322.094 158.36 322.094 156.2C322.094 154 321.668 152.047 320.814 150.34C319.974 148.62 318.788 147.267 317.254 146.28C315.721 145.293 313.921 144.8 311.854 144.8C310.908 144.8 310.021 144.913 309.194 145.14C308.381 145.367 307.641 145.693 306.974 146.12V138.2H301.494V167ZM311.254 162.76C309.441 162.76 308.161 162.16 307.414 160.96C306.668 159.747 306.294 158.16 306.294 156.2C306.294 154.24 306.661 152.66 307.394 151.46C308.141 150.247 309.361 149.64 311.054 149.64C312.268 149.64 313.261 149.94 314.034 150.54C314.821 151.127 315.401 151.92 315.774 152.92C316.148 153.907 316.334 155 316.334 156.2C316.334 157.413 316.154 158.52 315.794 159.52C315.434 160.507 314.881 161.293 314.134 161.88C313.388 162.467 312.428 162.76 311.254 162.76ZM336.535 167.6C338.615 167.6 340.529 167.053 342.275 165.96C344.035 164.867 345.322 163.333 346.135 161.36L340.695 159.8C339.869 161.613 338.375 162.52 336.215 162.52C334.735 162.52 333.569 162.107 332.715 161.28C331.875 160.453 331.355 159.267 331.155 157.72H346.315C346.542 155.107 346.275 152.833 345.515 150.9C344.755 148.967 343.582 147.467 341.995 146.4C340.409 145.333 338.482 144.8 336.215 144.8C334.082 144.8 332.195 145.287 330.555 146.26C328.915 147.22 327.629 148.573 326.695 150.32C325.762 152.067 325.295 154.12 325.295 156.48C325.295 158.64 325.769 160.56 326.715 162.24C327.675 163.907 328.995 165.22 330.675 166.18C332.369 167.127 334.322 167.6 336.535 167.6ZM336.455 149.52C337.762 149.52 338.762 149.847 339.455 150.5C340.162 151.153 340.615 152.213 340.815 153.68H331.295C331.869 150.907 333.589 149.52 336.455 149.52Z" fill="white"/>
<defs>
<linearGradient id="paint0_linear" x1="420.282" y1="23.0237" x2="155.02" y2="376.57" gradientUnits="userSpaceOnUse">
<stop stop-color="#2962FF"/>
<stop offset="1" stop-color="#5B29FF"/>
</linearGradient>
</defs>
</svg>
