<svg width="176" height="176" viewBox="0 0 176 176" fill="none" xmlns="http://www.w3.org/2000/svg">
<circle cx="88" cy="88" r="88" fill="#EEEEEE"/>
<path d="M107.6 82.7733C105.787 73.5733 97.7067 66.6667 88 66.6667C80.2933 66.6667 73.6 71.04 70.2667 77.44C62.24 78.2933 56 85.0933 56 93.3333C56 102.16 63.1733 109.333 72 109.333H106.667C114.027 109.333 120 103.36 120 96C120 88.96 114.533 83.2533 107.6 82.7733ZM93.3333 90.6667V101.333H82.6667V90.6667H74.6667L87.0667 78.2667C87.6 77.7333 88.4267 77.7333 88.96 78.2667L101.333 90.6667H93.3333Z" fill="#212121" fill-opacity="0.4"/>
</svg>
