<svg width="55" height="55" viewBox="0 0 55 55" fill="none" xmlns="http://www.w3.org/2000/svg">
<circle cx="27.5" cy="27.5" r="27.5" fill="#ADD43A" fill-opacity="0.1"/>
<path d="M19.2844 16.0119L17.1977 18.0986C15.4896 19.8067 15.0203 22.3951 16.0198 24.5942C18.9187 30.9718 24.0301 36.0832 30.4077 38.9821C32.6068 39.9817 35.1953 39.5123 36.9034 37.8042L38.9901 35.7175C39.6703 35.0373 39.6703 33.9345 38.9901 33.2543L36.183 30.4472C35.6529 29.9171 34.843 29.7856 34.1724 30.1209L32.6146 30.8998C31.2735 31.5704 29.6537 31.3076 28.5935 30.2473L24.7546 26.4085C23.6944 25.3482 23.4316 23.7285 24.1021 22.3874L24.881 20.8295C25.2163 20.159 25.0849 19.3491 24.5548 18.819L21.7477 16.0119C21.0675 15.3317 19.9646 15.3317 19.2844 16.0119Z" stroke="#ADD43A" stroke-width="1.5" stroke-linejoin="round"/>
</svg>
