<svg width="89" height="15" viewBox="0 0 89 15" fill="none" xmlns="http://www.w3.org/2000/svg">
<path d="M0.2 7.5C0.2 6.12667 0.506667 4.9 1.12 3.82C1.74667 2.72667 2.59333 1.88 3.66 1.28C4.74 0.666666 5.94667 0.36 7.28 0.36C8.84 0.36 10.2067 0.76 11.38 1.56C12.5533 2.36 13.3733 3.46667 13.84 4.88H10.62C10.3 4.21333 9.84667 3.71333 9.26 3.38C8.68667 3.04667 8.02 2.88 7.26 2.88C6.44667 2.88 5.72 3.07333 5.08 3.46C4.45333 3.83333 3.96 4.36667 3.6 5.06C3.25333 5.75333 3.08 6.56667 3.08 7.5C3.08 8.42 3.25333 9.23333 3.6 9.94C3.96 10.6333 4.45333 11.1733 5.08 11.56C5.72 11.9333 6.44667 12.12 7.26 12.12C8.02 12.12 8.68667 11.9533 9.26 11.62C9.84667 11.2733 10.3 10.7667 10.62 10.1H13.84C13.3733 11.5267 12.5533 12.64 11.38 13.44C10.22 14.2267 8.85333 14.62 7.28 14.62C5.94667 14.62 4.74 14.32 3.66 13.72C2.59333 13.1067 1.74667 12.26 1.12 11.18C0.506667 10.1 0.2 8.87333 0.2 7.5ZM27.8116 0.54V14.5H25.0116V8.56H19.0316V14.5H16.2316V0.54H19.0316V6.28H25.0116V0.54H27.8116ZM33.3675 2.8V6.3H38.0675V8.52H33.3675V12.22H38.6675V14.5H30.5675V0.519999H38.6675V2.8H33.3675ZM48.412 14.5L45.332 9.06H44.012V14.5H41.212V0.54H46.452C47.532 0.54 48.452 0.733333 49.212 1.12C49.972 1.49333 50.5387 2.00667 50.912 2.66C51.2987 3.3 51.492 4.02 51.492 4.82C51.492 5.74 51.2254 6.57333 50.692 7.32C50.1587 8.05333 49.3654 8.56 48.312 8.84L51.652 14.5H48.412ZM44.012 6.96H46.352C47.112 6.96 47.6787 6.78 48.052 6.42C48.4254 6.04667 48.612 5.53333 48.612 4.88C48.612 4.24 48.4254 3.74667 48.052 3.4C47.6787 3.04 47.112 2.86 46.352 2.86H44.012V6.96ZM63.6702 0.54C65.1368 0.54 66.4235 0.826666 67.5302 1.4C68.6502 1.97333 69.5102 2.79333 70.1102 3.86C70.7235 4.91333 71.0302 6.14 71.0302 7.54C71.0302 8.94 70.7235 10.1667 70.1102 11.22C69.5102 12.26 68.6502 13.0667 67.5302 13.64C66.4235 14.2133 65.1368 14.5 63.6702 14.5H58.7902V0.54H63.6702ZM63.5702 12.12C65.0368 12.12 66.1702 11.72 66.9702 10.92C67.7702 10.12 68.1702 8.99333 68.1702 7.54C68.1702 6.08667 67.7702 4.95333 66.9702 4.14C66.1702 3.31333 65.0368 2.9 63.5702 2.9H61.5902V12.12H63.5702ZM88.3461 0.54V14.5H85.5461V5.42L81.8061 14.5H79.6861L75.9261 5.42V14.5H73.1261V0.54H76.3061L80.7461 10.92L85.1861 0.54H88.3461Z" fill="#ADD43A"/>
</svg>
