<svg width="23" height="20" viewBox="0 0 23 20" fill="none" xmlns="http://www.w3.org/2000/svg">
<path d="M4.66895 8V20H0.668945V8H4.66895ZM8.66895 20C8.13851 20 7.6298 19.7893 7.25473 19.4142C6.87966 19.0391 6.66895 18.5304 6.66895 18V8C6.66895 7.45 6.88895 6.95 7.25895 6.59L13.8389 0L14.8989 1.06C15.1689 1.33 15.3389 1.7 15.3389 2.11L15.3089 2.43L14.3589 7H20.6689C21.1994 7 21.7081 7.21071 22.0832 7.58579C22.4582 7.96086 22.6689 8.46957 22.6689 9V11C22.6689 11.26 22.6189 11.5 22.5289 11.73L19.5089 18.78C19.2089 19.5 18.4989 20 17.6689 20H8.66895ZM8.66895 18H17.6989L20.6689 11V9H11.8789L13.0089 3.68L8.66895 8.03V18Z" fill="#002C42"/>
</svg>
