<svg width="500" height="397" viewBox="0 0 500 397" fill="none" xmlns="http://www.w3.org/2000/svg">
<path d="M212.41 378.859H263.984C324.653 378.859 373.839 329.662 373.839 268.979V129.724C373.839 69.0414 324.653 19.8447 263.984 19.8447H212.41C151.741 19.8447 102.555 69.0414 102.555 129.724V268.979C102.504 329.662 151.69 378.859 212.41 378.859Z" fill="#FF2978"/>
<path d="M416.936 0C357.775 3.51651 356.657 65.5947 356.657 65.5947V361.216H119.199V65.5947C119.199 65.5947 118.945 3.70406 179.783 0H416.936V0Z" fill="white"/>
<path d="M313.782 52.8779H150.574V67.2609H313.782V52.8779Z" fill="#D6DFEE"/>
<path d="M289.9 86.1689H150.574V96.3844H289.9V86.1689Z" fill="#D6DFEE"/>
<path d="M220.644 113.104H150.574V128.25H220.644V113.104Z" fill="#D6DFEE"/>
<path d="M313.78 113.104H241.322V128.25H313.78V113.104Z" fill="#D6DFEE"/>
<path d="M262.157 142.277H150.574V153.103H262.157V142.277Z" fill="#D6DFEE"/>
<path d="M276.283 169.314H150.574V175.312H276.283V169.314Z" fill="#D6DFEE"/>
<path d="M301.79 196.301H150.574V202.298H301.79V196.301Z" fill="#D6DFEE"/>
<path d="M221.097 256.781H150.113V222.831H221.097V256.781V256.781ZM151.079 255.815H220.183V223.746H151.079V255.815Z" fill="#D6DFEE"/>
<path d="M301.788 223.289H238.172V231.065H301.788V223.289Z" fill="#D6DFEE"/>
<path d="M283.242 239.807H238.172V247.583H283.242V239.807Z" fill="#E0E8EE"/>
<path d="M275.165 277.313H150.574V283.311H275.165V277.313Z" fill="#D6DFEE"/>
<path d="M222.219 304.351H150.574V310.348H222.219V304.351Z" fill="#D6DFEE"/>
<path d="M332.781 320.208H288.016V275.433H332.781V320.208ZM292.233 315.989H328.614V279.6H292.233V315.989Z" fill="#FFCF41"/>
<path d="M311.088 307.146L295.387 292.306L300.163 287.224L311.443 297.846L336.036 277.618L340.508 283.005L311.088 307.146Z" fill="#FFCF41"/>
<path d="M152.958 278.776C152.958 278.776 153.924 279.691 154.279 280.555C154.533 281.267 155.448 282.131 155.855 282.69C156.261 283.198 157.836 285.638 158.09 286.298C158.192 286.552 158.039 288.484 158.294 289.043C158.548 289.602 159.208 290.618 158.7 290.821C158.192 291.025 157.379 290.262 157.379 290.262C157.379 290.262 157.582 290.771 157.227 291.076C156.515 291.635 155.956 291.431 155.956 291.431C155.956 291.431 155.804 292.092 155.448 292.245C154.635 292.6 154.127 292.397 154.127 292.397C154.127 292.397 153.822 292.804 153.263 292.956C152.501 293.109 151.993 292.55 151.993 292.55C151.993 292.55 151.078 292.956 150.672 292.6C150.265 292.245 150.164 291.736 149.96 291.381C149.757 291.025 148.792 287.366 149.249 284.418C149.757 281.521 147.471 279.335 147.471 279.335L152.958 278.776Z" fill="#DBA585"/>
<path d="M160.989 301.139H148.439C147.169 301.139 146.102 300.123 146.102 298.801V290.924C146.102 289.653 147.118 288.586 148.439 288.586H160.989C162.26 288.586 163.327 289.602 163.327 290.924V298.852C163.327 300.123 162.26 301.139 160.989 301.139ZM148.439 290.161C148.032 290.161 147.677 290.517 147.677 290.924V298.852C147.677 299.259 148.032 299.614 148.439 299.614H160.989C161.396 299.614 161.752 299.259 161.752 298.852V290.924C161.752 290.517 161.396 290.161 160.989 290.161H148.439Z" fill="#1A232F"/>
<path d="M178.314 297.733H131.16V331.531H178.314V297.733Z" fill="#5A5C5A"/>
<path d="M134.666 207.32C134.666 207.32 132.227 207.371 131.211 214.588C130.195 221.805 132.126 224.854 132.38 227.853C132.634 230.851 136.14 250.266 136.242 251.13C136.343 251.994 136.801 262.311 138.172 265.055C139.544 267.8 149.656 283.352 149.808 284.114C149.961 284.876 154.737 281.42 154.737 281.42C154.737 281.42 146.81 264.801 146.353 262.921C145.896 261.04 142.695 251.333 143.203 248.385C143.711 245.438 141.78 229.123 141.983 227.294C142.136 225.464 139.341 208.438 134.666 207.32Z" fill="#DBA585"/>
<path d="M134.665 207.319C134.665 207.319 132.226 207.37 131.21 214.587C130.193 221.804 131.108 224.396 131.718 227.547C132.328 230.495 134.309 248.588 134.411 249.452C134.512 250.316 136.901 261.192 138.171 265.054C139.136 267.951 148.13 283.249 148.282 284.011C148.435 284.774 155.294 280.454 155.294 280.454C155.294 280.454 146.504 263.275 146.047 261.344C145.589 259.464 144.116 252.908 144.065 249.909C144.014 246.402 141.779 229.072 141.982 227.293C142.134 225.463 141.423 209.81 134.665 207.319Z" fill="#6C78C2"/>
<path d="M114.495 375.798C114.495 375.798 118.712 382.049 120.389 383.574C120.389 383.574 124.302 384.946 124.556 387.589C124.708 389.317 124.556 392.112 120.084 392.214C115.613 392.316 112.767 390.791 111.954 388.097C111.141 385.404 109.617 384.184 109.617 384.184V389.825H108.601C108.601 389.825 108.347 384.387 108.296 383.371C108.245 382.354 107.585 378.492 109.719 376.815C111.802 375.036 114.495 375.798 114.495 375.798Z" fill="#F4F7FB"/>
<path d="M143.001 370.767C143.001 370.767 143.712 372.495 145.084 374.274C146.1 375.595 149.25 380.982 150.622 381.389C151.994 381.745 156.262 382.507 156.669 384.896C157.025 387.284 157.228 388.962 153.011 389.165C148.793 389.368 146.049 389.622 144.017 386.675C141.984 383.727 138.783 381.592 138.783 381.592V389.266H137.208C137.208 389.266 136.446 381.236 136.039 380.677C135.582 380.118 134.464 373.969 138.377 370.767C142.238 367.565 143.001 370.767 143.001 370.767Z" fill="#F4F7FB"/>
<path d="M111.65 255.195C111.65 255.195 106.314 262.107 104.892 270.289C103.469 278.472 105.755 305.967 105.705 310.033C105.654 314.099 101.894 324.162 102.605 331.785C103.367 339.409 109.668 376.763 109.668 376.763L114.495 375.798C114.495 375.798 114.038 337.071 114.495 333.869C114.952 330.667 115.918 318.978 116.121 317.656C116.324 316.335 128.062 281.724 128.062 275.829C128.062 269.933 124.454 245.589 111.65 255.195Z" fill="#FAB08B"/>
<path d="M138.324 257.888C138.324 257.888 147.063 291.177 148.079 295.802C149.096 300.427 150.62 304.239 150.62 306.17C150.62 310.693 148.943 318.012 148.943 318.012L142.998 370.766H138.324C138.324 370.766 135.377 339.967 134.919 333.767C134.462 327.567 138.324 317.961 137.358 315.318C136.393 312.676 122.216 282.283 122.216 282.283C122.216 282.283 111.444 248.232 138.324 257.888Z" fill="#FAB08B"/>
<path d="M121.099 383.828C121.099 383.828 117.44 385.708 114.087 383.218C110.784 380.728 109.615 376.713 109.615 376.713L114.442 375.747L121.099 383.828Z" fill="#FAB08B"/>
<path d="M150.623 381.387C150.623 381.387 146.863 382.353 145.39 381.387C143.967 380.422 139.038 372.138 137.412 371.629C137.412 371.629 138.987 368.428 142.951 370.765C143.001 370.765 149.556 380.015 150.623 381.387Z" fill="#FAB08B"/>
<path d="M149.502 301.139C149.502 301.139 133.497 310.592 103.416 310.592C103.416 310.592 101.739 275.728 106.058 265.919C110.428 256.11 139.442 262.209 139.442 262.209C139.442 262.209 148.486 293.922 149.502 301.139Z" fill="#2E3048"/>
<path d="M127.603 204.727C127.603 204.727 132.278 206.912 133.904 207.268C135.53 207.573 141.78 215.755 142.898 218.703C144.016 221.701 142.898 226.123 140.611 231.409C138.325 236.643 140.459 238.422 139.442 243.657C138.426 248.892 137.512 260.022 137.715 262.919C137.918 265.816 111.547 266.375 105.5 261.089C105.5 261.089 111.547 252.043 112.309 250.721C113.071 249.451 112.461 242.386 111.75 240.557C111.039 238.727 106.313 223.328 106.313 223.328C106.313 223.328 102.451 211.486 105.957 208.792C109.006 206.404 117.288 205.591 118.762 205.082C120.236 204.523 124.555 204.269 127.603 204.727Z" fill="#E6D8D1"/>
<path d="M129.075 215.148L131.92 211.844L129.481 203.103C129.481 203.103 128.618 207.931 129.075 215.148Z" fill="#CFC3BC"/>
<path d="M121.71 171.642C124.454 170.676 134.667 168.287 137.055 181.298C139.443 194.309 132.279 203.558 125.673 201.119C119.068 198.679 115.003 189.684 114.596 182.823C114.241 175.911 118.255 172.912 121.71 171.642Z" fill="#FAB08B"/>
<path d="M137.056 181.299C137.056 181.299 137.564 170.169 126.487 169.762C115.41 169.356 112.463 178.504 113.327 185.111C114.241 191.769 118.814 195.275 118.814 195.275C118.814 195.275 118.408 189.888 120.542 188.516C122.676 187.144 131.314 184.348 135.023 177.843C135.125 177.894 136.853 179.927 137.056 181.299Z" fill="#2C323D"/>
<path d="M123.282 180.129C121.808 184.551 117.489 187.143 113.627 185.872C109.765 184.602 107.784 179.977 109.257 175.555C110.731 171.134 115.05 168.542 118.912 169.812C122.773 171.083 124.704 175.708 123.282 180.129Z" fill="#2C323D"/>
<path d="M129.837 199.341C129.837 199.341 128.922 207.88 129.125 210.675C129.125 210.675 124.298 215.503 118.76 205.034C118.76 205.034 121.097 200.714 119.319 194.767C117.591 188.872 129.837 199.341 129.837 199.341Z" fill="#FAB08B"/>
<path d="M129.076 210.675V215.147L123.537 210.98L129.076 210.675Z" fill="#DBA585"/>
<path d="M129.076 215.146L126.789 212.25L118.964 204.474L116.475 206.913L129.076 215.146Z" fill="#CFC3BC"/>
<path d="M117.898 205.235C117.898 205.235 124.453 215.146 124.758 219.517C125.063 223.887 122.319 256.567 120.134 267.087C117.949 277.607 102.045 265.918 102.045 265.918C102.045 265.918 112.715 248.638 108.6 234.814C104.484 220.99 103.01 215.451 103.01 215.451C103.01 215.451 104.433 207.776 109.413 206.658C113.833 205.744 117.898 205.235 117.898 205.235Z" fill="#6C78C2"/>
<path d="M143.306 220.026C143.306 220.026 144.475 224.193 139.902 233.443C139.902 233.443 139.953 245.234 140.105 248.944C140.257 252.654 141.121 266.58 141.121 266.58L136.599 269.223C135.684 269.782 134.567 269.019 134.668 267.952C135.938 257.33 140.156 217.078 131.111 206.253L134.719 207.32C134.668 207.32 141.121 212.606 143.306 220.026Z" fill="#6C78C2"/>
<path d="M121.709 186.178C121.303 185.161 119.982 184.856 119.169 185.466C118.407 186.025 117.949 187.804 119.169 190.04C120.388 192.327 124.758 193.903 121.709 186.178Z" fill="#FAB08B"/>
<path d="M131.921 211.792L135.478 212.809L129.482 203.102L131.921 211.792Z" fill="#F3E4DC"/>
<path d="M126.791 212.25L123.539 216.519L116.832 205.388L118.966 204.474L126.791 212.25Z" fill="#F3E4DC"/>
<path d="M129.636 201.222L129.484 202.95C129.484 202.95 125.622 203.661 120.592 197.512C120.592 197.512 124.149 201.882 129.636 201.222Z" fill="#D2997C"/>
<path d="M149.452 253.569C149.452 253.569 151.739 255.043 153.009 254.23C154.127 253.518 156.058 253.417 156.668 253.417C157.481 253.366 159.869 252.349 159.92 253.366C159.97 254.382 156.058 255.246 155.245 255.602C154.483 255.958 157.938 257.635 158.294 258.448C158.7 259.261 155.55 264.852 153.314 263.378C151.078 261.955 149.605 258.906 149.198 258.753C148.741 258.601 147.521 257.788 147.521 257.788L149.452 253.569Z" fill="#FAB08B"/>
<path d="M106.467 208.235C106.467 208.235 109.618 207.473 112.311 210.37C115.004 213.267 116.376 218.095 117.087 219.62C117.798 221.195 126.792 235.527 127.3 235.883C127.808 236.188 136.954 243.608 141.121 247.521C145.288 251.486 153.316 255.856 153.316 255.856L150.267 260.126C150.267 260.126 125.725 247.064 122.625 242.236C119.526 237.458 107.128 224.194 107.128 224.194C107.128 224.194 99.7601 213.063 106.467 208.235Z" fill="#FAB08B"/>
<path d="M157.835 257.99C157.835 257.99 164.389 262.818 164.593 263.53C164.745 264.241 164.491 264.546 163.83 264.14C163.221 263.733 157.327 259.617 157.327 259.617C157.327 259.617 164.135 266.681 164.389 267.189C164.542 267.494 164.034 268.206 163.678 268.002C163.322 267.799 156.158 261.192 156.158 261.192C156.158 261.192 162.509 267.799 162.611 268.307C162.662 268.765 162.052 269.273 161.544 268.816C161.036 268.358 154.786 262.564 154.786 262.564C154.786 262.564 159.105 267.647 158.902 268.104C158.8 268.409 158.394 269.019 157.327 267.647C156.26 266.274 153.363 263.377 153.363 263.377L157.835 257.99Z" fill="#FAB08B"/>
<path d="M140.967 231.104C140.967 231.104 141.171 245.843 140.307 252.958L139.9 233.442L140.967 231.104Z" fill="#515A92"/>
<path d="M108.089 207.168C108.089 207.168 109.867 207.473 112.611 210.37C115.304 213.267 116.676 218.095 117.387 219.62C118.099 221.195 127.092 235.527 127.6 235.883C128.109 236.188 135.629 241.372 139.744 245.285C143.86 249.25 151.584 253.925 151.584 253.925L147.62 259.821C147.62 259.821 125.974 247.826 122.57 243.252C118.912 238.373 105.853 224.092 105.853 224.092C105.853 224.092 97.3674 211.081 108.089 207.168Z" fill="#6C78C2"/>
<path d="M157.431 289.857C157.431 289.857 156.567 286.553 155.551 286.096C154.484 285.587 154.738 286.807 154.738 286.807C154.738 286.807 154.534 285.638 153.518 285.689C152.553 285.74 152.908 287.163 152.908 287.163C152.908 287.163 152.502 286.299 151.587 286.706C150.673 287.112 151.232 288.23 151.232 288.23C151.232 288.23 149.961 287.315 149.656 288.535C149.148 290.619 150.673 292.55 150.673 292.55C150.673 292.55 151.181 293.008 152.045 292.499C152.045 292.499 153.061 293.617 154.179 292.398C154.179 292.398 155.855 292.855 156.008 291.432C155.957 291.432 157.888 291.737 157.431 289.857Z" fill="#C99A7D"/>
<path d="M122.829 246.707L115.41 234.764C115.41 234.764 121.711 242.235 122.371 242.997C123.032 243.81 123.083 243.861 123.083 243.861C123.083 243.861 122.93 246.3 122.829 246.707Z" fill="#515A92"/>
<path d="M337.357 127.03H269.523V177.955V188.679L279.889 177.955H337.357V127.03Z" fill="#FFCF41"/>
<path d="M27.0977 131.349H94.9316V182.273V192.997L84.566 182.273H27.0977V131.349Z" fill="#FFCF41"/>
<path d="M302.65 169.316C301.278 169.214 299.957 168.706 298.992 167.842C297.874 166.876 297.264 165.555 297.264 164.182C297.061 161.489 296.248 158.694 295.537 156.762C292.234 154.12 290.455 150.054 290.76 145.835C291.268 138.822 297.417 133.536 304.429 134.095C311.441 134.603 316.725 140.753 316.166 147.767C315.861 151.578 313.93 155.034 310.78 157.22C309.815 159.812 309.256 162.2 309.103 164.284C309.052 167.079 306.41 169.366 303.158 169.316C302.955 169.366 302.803 169.366 302.65 169.316ZM304.327 135.112C297.874 134.603 292.234 139.482 291.776 145.937C291.472 149.85 293.148 153.662 296.248 156.102L296.35 156.203L296.4 156.356C297.112 158.338 298.026 161.336 298.23 164.233V164.284C298.23 165.351 298.738 166.368 299.601 167.13C300.516 167.943 301.786 168.35 303.107 168.35C305.801 168.35 307.985 166.571 308.036 164.335C308.239 162.099 308.849 159.558 309.865 156.813L309.916 156.661L310.069 156.559C313.016 154.526 314.845 151.324 315.15 147.767C315.607 141.261 310.78 135.62 304.327 135.112Z" fill="white"/>
<path d="M300.263 164.996L298.586 151.07L301.482 153.459L303.311 151.477L304.836 153.357L307.58 151.07L305.903 164.996L304.887 164.843L306.208 153.561L304.734 154.831L303.261 153.052L301.635 154.933L299.958 153.561L301.33 164.843L300.263 164.996Z" fill="white"/>
<path d="M307.654 168.132L298.609 168.071L298.585 171.731L307.629 171.791L307.654 168.132Z" fill="white"/>
<path d="M309.136 164.382L297.195 164.301L297.155 170.196L309.096 170.277L309.136 164.382Z" fill="white"/>
<path d="M69.3753 149.849C69.1213 149.544 68.7656 149.29 68.2575 148.934C67.7494 148.63 67.1904 148.274 66.5807 148.02C65.9201 147.715 65.2088 147.461 64.4466 147.257C63.6844 147.054 62.8714 146.902 62.0584 146.851L62.0076 155.541L62.8206 155.694C64.345 156.05 65.7169 156.456 66.9364 156.914C68.1559 157.371 69.1721 157.93 70.0359 158.591C70.8997 159.252 71.5094 160.014 71.9667 160.98C72.4241 161.945 72.6781 163.063 72.6273 164.435C72.6273 165.909 72.3732 167.18 71.8143 168.247C71.2554 169.315 70.544 170.179 69.5786 170.89C68.6132 171.602 67.5461 172.11 66.2758 172.466C65.0055 172.821 63.6844 172.974 62.2617 173.025V177.446H60.0768V172.923C58.0443 172.77 56.1134 172.364 54.335 171.703C52.5058 171.042 50.829 170.128 49.3555 168.908L51.5404 164.893C51.8452 165.249 52.3026 165.604 52.8615 166.011C53.4712 166.418 54.1318 166.773 54.9448 167.18C55.707 167.536 56.5708 167.891 57.5362 168.146C58.4508 168.451 59.467 168.654 60.4833 168.755L60.5341 160.014C60.3816 159.963 60.1784 159.912 60.026 159.861C59.8227 159.811 59.6703 159.76 59.5178 159.709C58.0443 159.302 56.7232 158.896 55.6053 158.438C54.4875 157.981 53.5729 157.473 52.8615 156.863C52.1501 156.253 51.5912 155.541 51.1847 154.677C50.829 153.864 50.6258 152.848 50.6258 151.679C50.6258 150.307 50.8798 149.087 51.3371 148.02C51.7944 146.952 52.5058 146.038 53.3696 145.275C54.2334 144.513 55.2496 143.903 56.4183 143.496C57.587 143.09 58.8573 142.785 60.28 142.683V138.414H62.4649V142.683C64.2942 142.785 65.9709 143.191 67.4953 143.801C69.0197 144.411 70.3916 145.174 71.5602 146.038L69.3753 149.849ZM55.5037 150.866C55.5037 152.035 55.9102 152.949 56.7232 153.509C57.5362 154.118 58.8065 154.627 60.4833 155.084L60.5341 146.8C58.8065 146.902 57.5362 147.257 56.7232 147.969C55.9102 148.731 55.5037 149.646 55.5037 150.866ZM67.5969 164.893C67.5969 163.673 67.0888 162.708 66.1234 162.098C65.158 161.488 63.786 160.878 62.0076 160.37L61.9568 168.705C63.7352 168.705 65.158 168.349 66.1234 167.688C67.1396 167.078 67.5969 166.113 67.5969 164.893Z" fill="white"/>
<path d="M387.918 290.468C387.918 290.468 385.53 290.976 384.362 290.976C383.193 291.027 377.908 288.588 376.232 288.842C374.555 289.045 363.478 293.772 362.97 294.127C362.461 294.483 363.224 295.245 363.224 295.245L388.579 295.55L387.918 290.468Z" fill="#FAB08B"/>
<path d="M354.27 298.869L396.494 299.188L396.523 295.326L354.299 295.006L354.27 298.869Z" fill="#363957"/>
<path d="M341.949 258.463L354.295 298.852L357.988 297.722L345.641 257.334L341.949 258.463Z" fill="#363957"/>
<path d="M431.357 376.968L432.983 380.475C432.983 380.475 439.843 377.934 439.894 377.832C439.945 377.73 438.014 372.953 438.014 372.953L431.357 376.968Z" fill="#525368"/>
<path d="M372.622 376.917L370.742 382.457C370.742 382.457 378.262 384.134 379.38 384.032C379.482 384.032 380.803 377.73 380.803 377.73L372.622 376.917Z" fill="#6A6B87"/>
<path d="M380.19 382.407C380.19 382.407 374.956 380.984 374.753 380.73C374.601 380.527 372.67 379.205 371.654 379.358C370.637 379.51 370.587 380.73 369.57 380.933C368.554 381.188 360.881 383.627 359.814 384.237C358.747 384.847 353.666 383.017 352.701 384.339C351.735 385.66 350.77 389.116 358.747 390.336C366.725 391.555 375.261 395.113 377.192 394.605C379.174 394.147 380.495 384.542 380.19 382.407Z" fill="#26283A"/>
<path d="M440.406 376.918C440.406 376.918 435.528 379.002 435.274 378.9C435.02 378.798 432.784 379.002 432.124 379.713C431.463 380.425 432.124 381.39 431.514 382.204C430.904 383.017 427.449 387.591 426.433 388.658C425.62 389.522 421.047 390.335 419.573 391.86C418.455 393.029 419.776 397.603 427.5 395.417C435.071 393.283 444.42 389.573 445.589 388.048C446.707 386.523 441.93 378.341 440.406 376.918Z" fill="#26283A"/>
<path d="M435.425 307.798C435.425 307.798 413.983 317.353 409.461 320.606C404.938 323.858 394.979 329.855 394.624 331.329C394.268 332.803 392.337 331.38 395.843 338.699C399.349 346.017 416.066 363.703 417.591 365.635C419.216 367.617 430.802 379.611 430.802 379.611L439.49 373.055C439.49 373.055 422.773 348.457 420.334 344.848C417.895 341.24 416.828 340.681 418.251 339.105C419.674 337.53 425.416 337.53 454.836 325.332C457.783 324.112 465.963 321.266 467.081 317.353C469.012 310.238 467.335 301.191 459.459 297.176C451.533 293.212 435.425 307.798 435.425 307.798Z" fill="#2E3048"/>
<path d="M425.212 238.781C425.415 238.933 425.618 239.289 425.822 239.797C426.127 240.509 426.431 241.525 426.787 242.592C427.752 245.998 428.616 250.368 428.616 250.368C428.616 250.368 440.862 240.153 439.134 239.492C437.407 238.832 436.136 235.884 436.136 235.884C436.136 235.884 423.942 237.663 425.212 238.781Z" fill="#FAB08B"/>
<path d="M435.727 303.935C435.727 303.935 413.573 309.17 408.136 310.898C402.648 312.626 393.248 315.726 390.707 317.149C389.386 317.912 387.303 319.081 384.864 327.06C382.069 336.106 375.718 361.67 374.295 365.635C373.38 368.125 370.789 377.934 370.789 377.934L382.12 379.916C382.12 379.916 395.585 352.776 396.703 345.559C398.532 333.362 403.258 333.311 405.189 332.193C407.12 331.075 416.266 333.159 448.938 330.567C452.19 330.313 461.133 330.16 463.419 326.602C467.586 320.25 471.803 313.033 465.299 306.629C458.744 300.276 435.727 303.935 435.727 303.935Z" fill="#2E3048"/>
<path d="M420.89 213.166C420.89 213.166 417.08 219.773 417.943 221.603C418.807 223.382 413.929 227.752 414.742 228.718C415.555 229.633 417.181 230.751 417.181 231.056C417.13 231.31 418.604 239.95 420.484 240.153C422.364 240.356 435.219 239.696 436.286 235.681C437.353 231.666 440.504 222.873 441.215 221.196C441.927 219.468 434.508 206.864 420.89 213.166Z" fill="#FAB08B"/>
<path d="M436.747 211.895C437.814 212.708 438.677 213.522 439.389 214.386C440.253 214.792 445.181 217.232 444.165 219.925C442.793 223.534 437.153 233.139 436.696 234.156C436.645 234.308 436.645 234.054 436.696 233.495C436.34 230.09 432.173 226.278 432.173 226.278L429.938 225.262C431.106 223.076 430.649 221.094 430.649 221.094C428.109 218.401 419.725 215.453 419.725 215.453C420.893 203.509 431.106 207.728 436.747 211.895Z" fill="#FFCF41"/>
<path d="M432.935 223.482C433.545 222.567 436.644 222.719 436.187 225.413C435.73 228.107 431.868 230.241 431.055 229.022C430.242 227.802 432.325 224.447 432.935 223.482Z" fill="#FAB08B"/>
<path d="M439.184 239.542C439.184 239.542 454.733 248.588 458.239 264.394C461.745 280.2 468.096 307.95 468.198 311.253C468.198 311.253 447.162 301.14 435.78 303.935C435.78 303.935 428.615 278.168 424.855 272.069C421.095 265.97 426.684 251.689 426.684 251.689C426.684 251.689 432.02 243.1 439.184 239.542Z" fill="#5659D6"/>
<path d="M495.789 246.608L483.289 283.353C483.187 283.607 483.137 283.912 483.137 284.217L480.139 332.499L427.802 333.668L412.559 389.218C412.101 390.895 412.406 392.724 413.423 394.147C414.083 395.113 415.049 395.926 416.37 396.079C419.672 396.485 486.897 396.079 486.897 396.079V393.283C486.897 391.911 485.728 390.793 484.356 390.793H421.552C420.536 390.793 419.52 390.336 418.859 389.523C418.504 389.065 418.199 388.455 418.3 387.795C418.555 386.016 431.969 340.783 431.969 340.783L482.578 339.868C484.864 339.818 486.744 338.039 486.846 335.803L489.031 283.861C489.031 283.506 489.081 283.201 489.183 282.896L499.396 247.777C499.396 247.777 500.463 245.338 498.482 245.083C496.551 244.829 496.043 245.998 495.789 246.608Z" fill="#5E5E5B"/>
<path d="M427.498 334.685C427.498 334.685 427.447 330.67 432.935 330.416C439.236 330.111 480.292 329.806 480.292 329.806L480.038 334.075L427.498 334.685Z" fill="#C59661"/>
<path d="M402.142 302.007V303.887H312.967V302.007C312.967 300.279 314.135 298.855 315.609 298.855H399.55C400.973 298.855 402.142 300.279 402.142 302.007Z" fill="#C59661"/>
<path d="M344.979 395.114H318.049V390.794H340.711C343.048 390.794 344.979 392.725 344.979 395.114Z" fill="#7B6F66"/>
<path d="M323.283 303.885H319.727V395.112H323.283V303.885Z" fill="#7B6F66"/>
<path d="M330.449 303.885H326.893V395.112H330.449V303.885Z" fill="#7B6F66"/>
<path d="M425.822 239.847C426.127 240.558 426.432 241.575 426.788 242.642C428.617 241.88 432.123 238.627 432.225 238.525C430.751 239.135 425.822 239.847 425.822 239.847Z" fill="#D2997C"/>
<path d="M364.339 303.887H300.621V302.007C300.621 300.279 302.095 298.855 303.975 298.855H354.38L364.339 303.887Z" fill="#CEAF8A"/>
<path d="M432.323 251.791C432.323 251.791 428.614 257.026 426.327 260.99C423.736 265.513 421.195 269.935 420.636 270.951C419.468 272.984 415.403 274.052 413.624 274.865C411.948 275.576 384.357 290.366 384.001 290.315C383.645 290.264 386.999 295.804 386.999 295.804C386.999 295.804 425.311 284.826 427.039 283.251C428.766 281.675 433.898 274.509 435.982 271.561C437.963 268.766 441.012 264.141 442.638 262.159C444.467 259.923 448.227 252.35 443.4 248.538C437.252 243.659 433.848 249.555 432.323 251.791Z" fill="#5659D6"/>
<path d="M442.842 261.854C442.842 261.854 438.422 273.9 435.729 277.965C433.087 282.082 430.14 285.487 430.14 285.487L428.717 281.32C428.717 281.371 440.2 265.565 442.842 261.854Z" fill="#4649B6"/>
<path d="M26.6924 375.644C26.6924 375.644 23.4405 384.081 21.6112 385.555C19.8328 387.028 15.7171 389.671 16.7333 390.942C17.7496 392.212 24.9648 392.416 26.6924 391.653C28.42 390.891 28.6741 388.096 31.0114 387.181C33.298 386.266 31.5704 381.54 31.3163 379.812C31.0114 377.575 30.4017 377.27 30.4017 376.102C30.4525 374.933 26.6924 375.644 26.6924 375.644Z" fill="#C9D5E9"/>
<path d="M58.0459 373.459C58.0459 373.459 58.8588 376.864 59.2653 377.728C59.6718 378.643 62.3141 383.217 62.873 383.827C63.3811 384.386 70.7488 387.588 69.7834 388.604C68.818 389.621 67.5985 390.84 62.5681 389.671C57.5377 388.503 55.9626 384.589 51.9992 384.233C48.0359 383.827 49.2046 379.507 50.7797 377.576C52.3041 375.644 53.9301 372.29 53.9301 372.29L58.0459 373.459Z" fill="#C9D5E9"/>
<path d="M77.1524 323.856C76.4919 328.379 63.0267 353.231 58.6569 374.78C58.6061 374.933 58.5553 375.085 58.5553 375.238C56.0655 374.933 53.779 374.221 52.3562 373.713C52.4578 370.511 55.4049 344.998 56.9293 340.221C58.5045 335.24 63.3824 324.669 63.1792 321.264C62.9759 317.859 60.791 315.622 59.3175 313.945C58.4537 312.98 53.1692 305.305 48.8502 298.698C46.3604 294.887 44.1755 291.481 43.3625 289.906C43.1084 289.449 43.0068 289.144 43.0068 289.042C43.0068 287.822 23.9015 254.787 57.8947 260.174C57.8947 260.174 58.7585 265.765 58.9618 266.781C59.0634 267.442 61.9597 274.202 64.3987 280.656C65.7198 284.163 66.9392 287.568 67.4982 289.855C68.1587 292.549 69.3782 296.615 70.5977 300.63C72.2745 306.169 74.0021 311.455 74.5102 312.522C75.374 314.352 77.8638 319.383 77.1524 323.856Z" fill="#414D99"/>
<path d="M43.7662 288.179C43.7662 288.179 41.1748 299.411 39.7013 303.934C38.2786 308.457 35.3315 318.317 35.2298 320.909C35.0774 323.501 35.0774 329.142 34.925 331.48C34.7217 333.767 34.9758 343.017 34.366 347.743C33.7563 352.47 31.3173 375.238 31.1141 376.661C31.1141 376.712 31.1141 376.712 31.1141 376.763C28.8276 377.119 26.9475 377.068 25.5248 376.966V376.916C24.2037 370.664 22.7301 347.387 22.6285 343.627C22.5269 339.866 23.5939 331.327 23.1874 328.735C22.7809 326.143 19.2749 299.563 20.3928 288.789C21.5614 278.014 25.2199 260.277 25.2199 260.277C25.2199 260.277 63.4305 246.504 43.7662 288.179Z" fill="#414D99"/>
<path d="M60.8879 270.34C60.7863 269.374 59.7701 262.666 58.9063 258.346C58.0425 254.026 57.3311 250.062 56.823 248.334C56.7722 248.232 56.7214 248.029 56.6706 247.775C56.3657 246.504 55.7051 243.658 54.943 240.964C54.8922 240.761 54.8413 240.608 54.7905 240.405V239.389C54.2824 237.559 55.0954 236.593 55.2478 235.17C55.2987 234.764 55.2986 234.256 55.1462 233.747V233.697C54.5873 231.206 54.1808 229.072 54.1808 227.903C54.1808 223.989 52.3516 204.981 52.3516 204.981C52.3516 204.981 58.3982 207.828 59.262 212.046C60.1258 216.264 60.3798 225.616 60.4814 227.496C60.5831 229.427 63.581 243.81 63.8858 247.063C64.1907 250.316 64.5972 253.111 65.2578 255.296C65.9183 257.482 65.3594 268.714 65.5626 270.442C65.8167 272.221 60.9896 271.306 60.8879 270.34Z" fill="#FAB08B"/>
<path d="M48.5417 187.956C48.5417 187.956 53.2672 174.03 44.2226 169.761C35.1781 165.441 27.5055 171.692 26.032 175.047C24.5584 178.401 24.9649 184.55 26.1844 188.82C27.4039 193.089 27.2515 199.594 24.5584 201.779C21.8654 203.965 19.4773 208.691 17.2923 212.706C15.1074 216.721 36.6517 203.253 36.6517 203.253L48.5417 187.956Z" fill="#2E4254"/>
<path d="M40.4634 172.099C40.4634 172.099 49.8636 174.894 48.5425 187.956C47.2214 201.018 41.0731 200.357 40.4634 200.458C39.9045 200.56 32.5875 201.018 30.301 185.212C27.9636 169.304 40.4634 172.099 40.4634 172.099Z" fill="#FAB08B"/>
<path d="M44.8839 202.593C44.8839 202.593 54.0301 204.931 54.8939 206.506C55.7577 208.031 55.8593 214.739 56.4182 216.976C56.9772 219.161 58.2475 223.888 57.3837 225.819C56.5199 227.75 55.5544 229.58 55.8593 230.901C56.1642 232.223 56.9264 235.984 56.2658 238.88C55.6053 241.777 55.1988 247.724 56.0626 251.84C56.9264 255.957 57.7902 259.616 57.8918 260.277C57.9934 260.938 25.2706 260.277 25.2706 260.277C25.2706 260.277 27.9128 251.078 28.8782 248.943C29.8436 246.809 28.0144 238.677 27.1506 236.746C26.2868 234.815 22.5267 227.039 22.5267 226.175C22.5267 226.175 18.5634 212.656 18.9191 212.148C19.2748 211.69 19.0715 209.657 22.8316 207.319C25.7279 205.541 34.2643 203.406 36.7032 202.999C39.0914 202.644 44.8839 202.593 44.8839 202.593Z" fill="white"/>
<path d="M44.9361 198.02C44.9361 198.02 44.5297 202.696 45.3426 205.339C46.1556 208.032 35.9424 207.88 35.1295 205.847C34.3165 203.814 35.536 200.968 34.4181 196.648C33.2494 192.379 44.9361 198.02 44.9361 198.02Z" fill="#FAB08B"/>
<path d="M54.2323 214.079C54.2323 214.079 56.8237 217.433 57.8399 221.093C58.7545 224.396 57.9415 227.751 55.8582 230.292C55.8582 230.292 47.1694 229.834 44.0699 229.936C41.0212 229.987 31.3161 231.054 25.93 234.002C25.93 234.002 21.8651 226.582 21.9667 225.565C22.0683 224.549 24.5581 217.637 28.5214 216.874C35.8384 215.451 40.7163 224.599 43.0028 224.345C45.2894 224.091 46.8645 215.045 54.2323 214.079Z" fill="white"/>
<path d="M38.0232 177.943C38.0232 177.943 43.1552 186.075 48.4904 187.956C48.4904 187.956 51.4375 174.335 39.2935 171.438C27.1494 168.592 29.0803 185.211 29.9441 189.633C29.9949 189.633 32.5355 183.127 38.0232 177.943Z" fill="#2E4254"/>
<path d="M35.7891 198.577C35.7891 198.577 39.4983 202.44 44.2746 198.984C44.2746 198.984 43.8681 201.474 40.4638 201.779C37.0594 202.084 35.7891 198.577 35.7891 198.577Z" fill="#D2997C"/>
<path d="M48.8471 298.75C46.3573 294.939 44.1724 291.533 43.3594 289.958C43.3594 289.958 46.713 281.47 47.0687 278.167C47.4243 274.813 48.8471 298.75 48.8471 298.75Z" fill="#343D77"/>
<path d="M33.4512 203.71C33.4512 203.71 37.6686 211.029 42.3433 212.198C47.018 213.367 46.9163 206.251 45.5444 202.795C45.5444 202.795 45.392 202.44 40.8189 202.338C36.0426 202.236 33.4512 203.71 33.4512 203.71Z" fill="#FAB08B"/>
<path d="M23.4919 257.176C21.1037 243.657 30.1482 230.748 43.6642 228.41C57.1801 226.021 70.0863 235.068 72.4237 248.587C74.8118 262.106 65.7673 275.015 52.2514 277.352C38.7354 279.741 25.8292 270.695 23.4919 257.176Z" fill="#E7B96B"/>
<path d="M53.724 277.048L45.1367 228.156C58.0938 226.632 70.1362 235.526 72.4227 248.536C74.7093 261.598 66.4269 274.049 53.724 277.048Z" fill="#FFCF41"/>
<path d="M23.4923 257.176C21.4598 245.69 27.6588 234.713 37.8212 230.189L46.1543 277.709C35.0265 276.845 25.4739 268.612 23.4923 257.176Z" fill="#FFCF41"/>
<path d="M29.0844 252.399C29.3384 241.98 38.0273 233.747 48.4437 234.001C58.8601 234.255 67.0917 242.946 66.8376 253.364C66.5836 263.783 57.8947 272.016 47.4783 271.762C37.011 271.457 28.7795 262.817 29.0844 252.399Z" fill="#FFEAAB"/>
<path d="M54.9452 250.367C54.8436 250.163 54.6404 249.859 54.4371 249.604C54.1831 249.299 53.8782 248.995 53.5225 248.69C53.1668 248.385 52.7603 248.08 52.3538 247.826C51.8965 247.572 51.4392 247.317 50.9311 247.114L49.3051 252.603L49.7624 252.857C50.6262 253.365 51.4392 253.874 52.0998 254.382C52.7603 254.89 53.3193 255.449 53.7258 256.008C54.1323 256.567 54.3863 257.177 54.4879 257.889C54.5896 258.549 54.5387 259.312 54.2847 260.176C53.9798 261.09 53.5733 261.853 53.0652 262.412C52.5571 262.971 51.8965 263.377 51.1852 263.632C50.4738 263.886 49.6608 264.038 48.8478 263.987C47.984 263.987 47.1202 263.835 46.2056 263.581L45.3926 266.376L44.0207 265.969L44.8845 263.123C43.665 262.666 42.4963 262.056 41.4801 261.294C40.4639 260.531 39.6001 259.667 38.8379 258.6L40.972 256.466C41.1244 256.72 41.3277 257.075 41.6325 257.431C41.9374 257.787 42.2931 258.143 42.6996 258.549C43.1061 258.905 43.6142 259.312 44.1223 259.667C44.6812 260.023 45.2402 260.328 45.8499 260.582L47.4759 255.093C47.3743 255.042 47.2726 254.941 47.171 254.89C47.0694 254.839 46.9678 254.788 46.8662 254.687C46.0024 254.179 45.291 253.67 44.6812 253.162C44.0715 252.705 43.6142 252.196 43.2585 251.637C42.9028 251.129 42.6996 250.57 42.6488 249.96C42.5472 249.35 42.6488 248.69 42.852 247.978C43.1061 247.114 43.5126 246.403 43.9699 245.793C44.478 245.234 45.0877 244.776 45.7483 244.42C46.4597 244.116 47.171 243.912 47.984 243.861C48.797 243.811 49.6608 243.861 50.5754 244.065L51.3884 241.371L52.7603 241.778L51.9473 244.471C53.0652 244.878 54.0814 245.437 54.8944 246.098C55.7582 246.758 56.4696 247.521 57.0285 248.283L54.9452 250.367ZM46.0024 248.436C45.7991 249.198 45.8499 249.808 46.2564 250.316C46.6629 250.824 47.3743 251.383 48.3397 251.993L49.9149 246.809C48.8478 246.555 47.9332 246.555 47.3235 246.86C46.6629 247.165 46.2564 247.673 46.0024 248.436ZM51.0327 259.515C51.2868 258.753 51.1344 258.041 50.6262 257.482C50.1181 256.923 49.3559 256.262 48.3397 255.652L46.7645 260.887C47.8824 261.192 48.8478 261.243 49.5592 261.04C50.3214 260.785 50.7787 260.277 51.0327 259.515Z" fill="#FFCF41"/>
<path d="M57.5871 275.778C68.0544 271.407 74.4567 260.226 72.4242 248.587C70.3917 236.949 60.5342 228.614 49.2031 228.055L57.5871 275.778Z" fill="#F7F7F7"/>
<path d="M46.1554 277.658L37.8223 230.138C39.6515 229.325 41.5823 228.715 43.6656 228.36C44.1737 228.258 44.631 228.207 45.1392 228.156L53.7264 277.048C53.2691 277.15 52.7609 277.251 52.2528 277.353C50.1695 277.709 48.1371 277.81 46.1554 277.658Z" fill="#F7F7F7"/>
<path d="M21.358 208.284C21.358 208.284 17.9536 210.927 15.3622 215.704C12.7708 220.482 6.82583 228.969 5.65716 231.714C4.48848 234.509 0.677595 239.185 0.118664 242.793C-0.440267 246.351 1.03327 247.621 3.31981 249.146C5.60634 250.671 21.9678 255.702 21.9678 255.702C21.9678 255.702 24.8641 251.077 23.3905 250.772C20.7483 250.213 14.346 246.249 13.2789 245.588C12.1103 244.877 9.21398 242.437 10.6367 241.268C12.0595 240.099 21.8661 225.818 23.8478 223.023C25.8803 220.228 29.4879 213.417 28.1668 209.961C26.8965 206.556 23.7462 206.963 21.358 208.284Z" fill="#FAB08B"/>
<path d="M20.0874 249.908C20.0874 249.908 20.8496 250.315 21.561 250.213C22.7805 250.01 23.9491 248.536 25.4227 249.451C26.8962 250.366 25.1178 255.601 24.254 256.312C23.3902 257.024 21.0021 256.363 18.1566 254.127C15.3111 251.84 20.0874 249.908 20.0874 249.908Z" fill="#FAB08B"/>
<path d="M24.9163 249.197C24.9163 249.197 27.5586 249.604 30.404 250.366C32.8938 251.027 35.6885 252.297 35.7393 252.806C35.7901 253.416 33.0971 252.501 30.5565 251.993C28.2191 251.535 28.5748 251.993 28.5748 251.993C28.5748 251.993 28.4732 251.84 30.9121 252.857C33.5544 253.924 36.095 255.245 36.095 255.855C36.095 256.16 35.9425 256.262 34.9263 256.058C35.4852 256.313 35.4852 256.516 35.3836 256.719C34.9263 257.888 30.8105 256.922 29.1845 256.516C30.4548 256.821 31.3187 257.177 30.5057 257.736C29.591 258.345 23.8493 256.719 21.7152 256.313C19.4795 255.855 24.9163 249.197 24.9163 249.197Z" fill="#FAB08B"/>
<path d="M68.4102 243.455C68.4102 243.455 72.2211 242.591 73.4405 244.42C74.66 246.25 74.7108 248.588 74.406 249.706C74.1011 250.773 73.1357 253.569 71.8146 253.01C67.6989 251.18 68.4102 243.455 68.4102 243.455Z" fill="#FAB08B"/>
<path d="M72.17 243.504C72.17 243.504 71.6619 240.963 70.5948 241.369C69.5786 241.827 70.4932 243.504 70.4932 243.504H72.17Z" fill="#FAB08B"/>
<path d="M22.9329 256.567C22.2216 259.413 21.8151 259.413 21.6118 259.413C21.307 259.413 21.1545 258.956 21.0529 258.651C20.8497 257.837 20.748 256.821 20.748 255.805C20.748 253.263 21.307 250.621 21.4086 250.214C21.4086 250.163 21.4086 250.112 21.4086 250.112L21.561 250.163H21.7135C21.7135 250.214 21.0529 253.213 21.0529 255.957C21.0529 256.872 21.1545 257.787 21.3578 258.549C21.5102 259.057 21.6118 259.108 21.6118 259.108C21.6118 259.108 21.7643 259.057 21.9675 258.549C22.12 258.193 22.3232 257.533 22.6281 256.465C22.7297 256.516 22.8313 256.567 22.9329 256.567Z" fill="#2D374B"/>
<path d="M267.491 381.644C267.491 381.644 269.218 384.845 270.336 386.116C271.454 387.387 275.722 389.674 275.773 393.435C275.773 397.5 268.558 396.382 265.712 396.23C262.867 396.077 262.663 393.892 261.495 391.605C260.326 389.318 259.107 389.674 258.853 387.844C258.649 385.963 260.021 381.694 260.021 381.694H267.491V381.644Z" fill="#26283A"/>
<path d="M224.354 381.288C224.354 381.288 220.848 385.201 217.342 386.015C213.785 386.828 211.346 387.895 211.295 390.131C211.244 392.367 221.508 393.841 225.522 391.605C231.569 388.251 232.179 389.267 232.839 387.59C233.5 385.913 232.026 381.39 232.077 380.881C232.179 380.17 224.354 381.288 224.354 381.288Z" fill="#26283A"/>
<path d="M224.76 379.409C224.76 379.409 224.303 381.239 224.354 381.29C224.404 381.34 232.331 382.255 232.077 380.781C231.874 379.612 231.62 378.291 231.62 378.291L224.76 379.409Z" fill="#807F7D"/>
<path d="M260.075 380.424C260.075 380.424 259.719 382.152 259.821 382.203C259.872 382.254 267.849 383.677 267.799 382.203C267.748 381.034 267.087 379.713 267.087 379.713L260.075 380.424Z" fill="#807F7D"/>
<path d="M231.974 270.139C231.974 270.139 229.078 298.092 227.604 307.698C225.877 318.879 225.267 328.128 224.759 333.922C224.149 341.19 224.048 377.071 223.59 379.155C223.184 381.289 233.143 379.765 233.143 379.765C233.143 379.765 238.021 332.957 239.85 325.181C241.578 317.964 247.878 286.86 249.403 288.842C250.978 290.824 252.858 325.13 254.027 330.822C255.195 336.514 258.701 381.137 258.701 381.137C258.701 381.137 266.628 382.712 268.762 380.934C268.762 380.934 269.727 342.511 268.965 331.788C268.66 327.722 273.742 282.947 267.238 264.956C263.833 255.401 231.974 270.139 231.974 270.139Z" fill="#2E3048"/>
<path d="M257.787 263.938C257.787 263.938 255.856 261.041 253.823 260.685C251.791 260.329 281.821 245.794 281.77 240.61C281.719 236.392 271.252 228.616 271.252 228.616V228.565C271.048 229.378 267.593 241.83 267.492 247.37C267.39 253.113 267.847 272.934 267.847 272.934L260.124 275.017L235.531 275.221L229.891 272.934C229.891 272.934 230.501 266.581 230.755 262.108C230.907 259.262 231.466 254.18 231.314 249.25C231.314 249.25 231.415 244.015 230.907 241.779C230.856 231.868 230.247 222.009 230.247 222.009C229.891 217.486 229.688 213.318 229.535 209.354C230.602 208.795 231.923 208.083 232.99 207.626C236.242 206.101 240.714 204.017 243.61 202.696C245.287 201.934 246.964 201.375 246.964 201.375C246.964 201.375 258.498 200.257 259.463 200.307C259.768 200.307 261.191 200.816 263.071 201.527C267.187 203.103 275.063 206.254 276.333 207.168C278.162 208.49 290.255 240.407 290.408 242.643C290.713 246.506 257.787 263.938 257.787 263.938Z" fill="#D8D6E1"/>
<path d="M230.651 270.748C230.651 270.748 247.571 272.171 262.357 270.748V275.627C262.357 275.627 240.305 277.711 229.889 274.712L230.651 270.748Z" fill="#232536"/>
<path d="M229.282 209.201C229.435 213.216 229.587 217.485 229.943 222.06C229.943 222.06 230.248 233.241 230.908 243.863C231.112 245.387 231.213 246.963 231.112 248.538C230.959 250.622 230.705 252.858 230.451 255.247C230.451 255.298 230.451 255.298 230.451 255.349C230.4 255.908 230.299 256.467 230.248 257.026C228.825 268.868 226.386 282.437 225.116 286.554C224.862 287.418 225.776 288.18 226.437 288.79L231.061 291.687C231.061 291.687 232.992 274.153 233.601 268.207C234.211 262.464 236.142 254.739 236.955 247.217C238.022 237.713 239.496 228.362 240.308 222.822C242.392 208.388 245.136 201.934 245.136 201.934C243.764 202.391 229.282 209.201 229.282 209.201Z" fill="#333685"/>
<path d="M278.315 239.085C280.296 243.456 259.921 251.334 260.378 252.401C261.496 254.993 265.967 260.279 265.967 260.279C265.967 260.279 292.847 247.014 292.542 243.964C292.339 241.779 279.737 208.591 277.908 207.27C276.841 206.508 268.965 203.712 265.103 202.188C264.392 201.934 262.004 201.019 261.343 200.765C260.53 201.679 254.839 207.931 252.858 231.513C252.502 235.477 253.569 243.913 254.281 250.775C255.043 258.093 255.856 263.836 256.516 269.986C257.736 282.082 258.6 291.687 258.6 291.687L270.642 286.351C272.573 285.385 275.977 282.844 275.215 280.811C272.42 273.035 268.254 258.246 268.254 251.435C268.254 251.435 270.235 232.58 271.302 228.921C271.252 228.921 276.079 234.206 278.315 239.085Z" fill="#333685"/>
<path d="M258.347 201.476C258.347 201.476 258.449 197.512 259.973 189.482C260.379 187.348 247.524 195.124 247.524 195.124C247.524 195.124 247.575 195.886 247.575 196.902C247.575 197.461 247.575 198.071 247.575 198.681C247.575 198.884 247.575 199.088 247.575 199.342C247.575 199.901 247.524 200.46 247.473 200.917C247.422 201.375 247.168 202.239 247.067 202.442C246.508 203.611 254.028 204.577 258.347 201.476Z" fill="#FAB08B"/>
<path d="M250.318 205.592L248.184 208.438C248.184 208.438 249.454 210.115 251.639 208.895L250.318 205.592Z" fill="#2E3048"/>
<path d="M248.743 208.591C248.743 208.591 240.664 239.745 242.34 264.039L245.084 268.816L247.625 263.785C247.625 263.785 248.336 220.382 250.521 208.489L248.743 208.591Z" fill="#2E3048"/>
<path d="M248.031 202.95L250.318 205.643C250.318 205.643 253.976 204.932 255.043 203.001C256.161 201.069 248.031 202.95 248.031 202.95Z" fill="#FAB08B"/>
<path d="M247.524 200.612C247.524 200.612 247.778 202.645 250.319 205.644L247.524 209.354L246 201.629L247.524 200.612Z" fill="#C1BFC9"/>
<path d="M258.601 198.325C258.601 198.325 254.028 204.119 250.318 205.593L252.046 209.862L259.922 200.358L258.601 198.325Z" fill="#C1BFC9"/>
<path d="M182.229 241.421C182.229 241.421 173.744 242.437 173.286 242.946C172.829 243.505 172.931 243.962 173.744 243.911C174.557 243.86 181.975 243.2 181.975 243.2C181.975 243.2 172.27 246.046 171.762 246.402C171.457 246.605 171.66 247.52 172.067 247.52C172.524 247.52 182.331 245.233 182.331 245.233C182.331 245.233 173.286 247.926 172.931 248.333C172.677 248.689 173.032 249.502 173.693 249.349C174.404 249.197 182.991 247.164 182.991 247.164C182.991 247.164 176.538 249.553 176.488 250.061C176.437 250.366 176.589 251.179 178.215 250.518C179.841 249.858 183.906 248.689 183.906 248.689L182.229 241.421Z" fill="#FAB08B"/>
<path d="M192.242 241.83C192.242 241.83 189.396 241.982 188.532 240.559C187.821 239.339 185.992 238.221 185.433 237.916C184.671 237.459 182.892 235.274 182.384 236.138C181.876 237.002 185.179 239.899 185.788 240.61C186.398 241.322 182.282 241.067 181.571 241.627C180.809 242.186 181.215 248.894 184.01 248.742C186.805 248.589 189.549 246.607 190.057 246.658C190.565 246.709 192.089 246.658 192.089 246.658L192.242 241.83Z" fill="#FAB08B"/>
<path d="M191.069 248.486C191.069 248.486 211.852 245.589 216.475 244.42C218.61 243.912 221.404 240.964 224.097 237.508C224.961 236.39 225.825 235.17 226.638 234.001C229.89 229.274 232.481 224.751 232.481 224.751C232.481 224.751 242.186 213.418 234.412 208.335C234.412 208.335 231.058 208.285 229.229 209.25C227.349 210.267 223.335 218.652 222.674 220.126C222.014 221.6 214.646 235.373 214.138 235.678C213.63 235.983 206.313 237.609 203.01 238.27C198.285 239.236 189.342 241.116 189.342 241.116L191.069 248.486Z" fill="#333685"/>
<path d="M243.124 277.004H251.051V271.007H243.124V277.004Z" fill="#3E4265"/>
<path d="M256.311 264.294C256.311 264.294 257.277 264.243 257.734 264.04C257.734 264.04 258.445 263.582 259.004 263.277C259.157 263.176 259.309 263.125 259.411 263.074C259.868 262.922 260.834 262.668 261.799 261.956C262.714 261.245 265.762 258.449 265.762 258.449L263.832 255.451L262.917 252.503C262.917 252.503 255.905 253.214 254.939 253.774C254.838 253.824 254.736 253.875 254.685 253.926C253.923 254.485 253.618 255.197 253.263 255.552C253.11 255.654 251.891 256.975 251.992 257.534C252.094 258.297 252.45 258.754 252.907 258.957C252.907 258.957 253.161 260.381 253.923 261.041C253.923 261.041 254.126 262.363 255.244 262.922C255.193 262.82 255.549 264.141 256.311 264.294Z" fill="#FAB08B"/>
<path d="M266.019 260.329C266.019 260.329 262.107 257.127 259.973 252.452L271.964 245.896L276.436 254.993L266.019 260.329Z" fill="#333685"/>
<path d="M240.714 175.355C240.714 175.355 237.869 180.59 239.291 181.403C240.46 182.063 237.92 187.247 237.615 188.061C237.31 188.925 239.698 189.534 240.206 190.043C240.714 190.602 242.239 197.26 244.271 197.463C246.253 197.666 255.297 194.515 257.736 191.974C260.175 189.433 262.208 177.896 260.582 173.068C258.905 168.24 245.694 166.207 240.714 175.355Z" fill="#FAB08B"/>
<path d="M240.153 176.521C240.153 176.521 237.257 170.88 242.49 166.662C247.724 162.443 257.429 169.813 258.496 170.118C259.563 170.422 265.762 170.829 262.663 181.705C259.97 191.006 259.614 191.412 259.614 191.412C259.614 191.412 257.632 186.025 256.464 185.212C254.685 183.941 250.823 184.246 250.823 184.246C250.823 184.246 252.653 179.316 249.807 178.656C246.911 177.893 243.1 175.403 240.153 176.521Z" fill="#1F2531"/>
<path d="M253.928 181.351C254.182 180.69 254.995 177.793 257.485 179.47C259.974 181.148 255.96 186.636 255.503 186.687C255.046 186.789 251.743 187.043 253.928 181.351Z" fill="#FAB08B"/>
<path d="M247.574 198.631C247.574 198.834 247.574 199.037 247.574 199.291C254.942 196.801 256.365 193.091 256.365 193.091C254.078 194.717 247.574 196.903 247.574 196.903C247.574 197.411 247.574 198.021 247.574 198.631Z" fill="#D2997C"/>
</svg>
