<svg width="599" height="525" viewBox="0 0 599 525" fill="none" xmlns="http://www.w3.org/2000/svg">
<g clip-path="url(#clip0)">
<path d="M154.785 192.603V258.994C154.785 265.349 145.371 270.388 133.768 270.388C122.164 270.388 112.75 265.349 112.75 258.994V192.603H154.785Z" fill="#F9B028"/>
<path d="M112.531 192.602C112.531 198.956 121.945 203.996 133.549 203.996C145.152 203.996 154.566 198.956 154.566 192.602C154.566 186.248 145.152 181.208 133.549 181.208C122.164 181.208 112.531 186.248 112.531 192.602Z" fill="#F9DC32"/>
<path d="M133.768 204.215C122.164 204.215 112.75 199.176 112.75 192.821V259.213C112.75 265.568 122.164 270.607 133.768 270.607C136.176 270.607 138.584 270.388 140.773 269.95V203.558C138.584 203.996 136.176 204.215 133.768 204.215Z" fill="#F9C32A"/>
<path d="M154.785 112.188V192.603C154.785 198.957 145.371 203.997 133.768 203.997C122.164 203.997 112.75 198.957 112.75 192.603V112.188H154.785Z" fill="#CD316A"/>
<path d="M112.531 112.187C112.531 118.541 121.945 123.581 133.549 123.581C145.152 123.581 154.566 118.541 154.566 112.187C154.566 105.833 145.152 100.793 133.549 100.793C122.164 100.793 112.531 105.833 112.531 112.187Z" fill="#FF3580"/>
<path d="M133.768 123.581C122.164 123.581 112.75 118.542 112.75 112.188V192.603C112.75 198.957 122.164 203.997 133.768 203.997C136.176 203.997 138.584 203.778 140.773 203.339V122.924C138.584 123.362 136.176 123.581 133.768 123.581Z" fill="#FF5191"/>
<path d="M121.068 226.127V278.715C121.068 285.069 111.654 290.109 100.051 290.109C88.4473 290.109 79.0332 285.069 79.0332 278.715V226.127H121.068Z" fill="#F9B028"/>
<path d="M78.8145 226.127C78.8145 232.481 88.2286 237.521 99.832 237.521C111.435 237.521 120.85 232.481 120.85 226.127C120.85 219.773 111.435 214.733 99.832 214.733C88.4475 214.514 78.8145 219.773 78.8145 226.127Z" fill="#F9DC32"/>
<path d="M100.051 237.521C88.4473 237.521 79.0332 232.481 79.0332 226.127V278.715C79.0332 285.069 88.4473 290.109 100.051 290.109C102.459 290.109 104.867 289.89 107.057 289.451V236.864C104.867 237.302 102.459 237.521 100.051 237.521Z" fill="#F9C32A"/>
<path d="M121.068 173.54V226.128C121.068 232.482 111.654 237.522 100.051 237.522C88.4473 237.522 79.0332 232.482 79.0332 226.128V173.54H121.068Z" fill="#CD316A"/>
<path d="M78.8145 173.539C78.8145 179.894 88.2286 184.933 99.832 184.933C111.435 184.933 120.85 179.894 120.85 173.539C120.85 167.185 111.435 162.146 99.832 162.146C88.4475 162.146 78.8145 167.185 78.8145 173.539Z" fill="#FF3580"/>
<path d="M100.051 184.934C88.4473 184.934 79.0332 179.894 79.0332 173.54V226.128C79.0332 232.482 88.4473 237.522 100.051 237.522C102.459 237.522 104.867 237.303 107.057 236.864V184.277C104.867 184.715 102.459 184.934 100.051 184.934Z" fill="#FF5191"/>
<path d="M87.3554 252.859V297.997C87.3554 304.351 77.9413 309.391 66.3379 309.391C54.7344 309.391 45.3203 304.351 45.3203 297.997V252.859H87.3554Z" fill="#F9B028"/>
<path d="M45.1016 252.859C45.1016 259.213 54.5157 264.253 66.1191 264.253C77.7225 264.253 87.1366 259.213 87.1366 252.859C87.1366 246.505 77.7225 241.465 66.1191 241.465C54.7346 241.465 45.1016 246.505 45.1016 252.859Z" fill="#F9DC32"/>
<path d="M66.3378 264.472C54.7344 264.472 45.3203 259.432 45.3203 253.078V297.997C45.3203 304.351 54.7344 309.391 66.3378 309.391C68.7461 309.391 71.1544 309.172 73.3437 308.733V263.596C71.1544 264.253 68.7461 264.472 66.3378 264.472Z" fill="#F9C32A"/>
<path d="M87.3554 236.205V253.077C87.3554 259.431 77.9413 264.471 66.3379 264.471C54.7344 264.471 45.3203 259.431 45.3203 253.077V236.205H87.3554Z" fill="#C64453"/>
<path d="M45.1016 236.205C45.1016 242.56 54.5157 247.599 66.1191 247.599C77.7225 247.599 87.1366 242.56 87.1366 236.205C87.1366 229.851 77.7225 224.811 66.1191 224.811C54.7346 224.592 45.1016 229.851 45.1016 236.205Z" fill="#FF3580"/>
<path d="M66.3378 247.599C54.7344 247.599 45.3203 242.559 45.3203 236.205V253.077C45.3203 259.431 54.7344 264.471 66.3378 264.471C68.7461 264.471 71.1544 264.252 73.3437 263.814V246.942C71.1544 247.38 68.7461 247.599 66.3378 247.599Z" fill="#FF5191"/>
<path d="M53.6386 290.108V317.498C53.6386 323.852 44.2245 328.892 32.6211 328.892C21.0176 328.892 11.6035 323.852 11.6035 317.498V290.108H53.6386Z" fill="#F9B028"/>
<path d="M11.6035 290.109C11.6035 296.463 21.0176 301.503 32.6211 301.503C44.2245 301.503 53.6386 296.463 53.6386 290.109C53.6386 283.754 44.2245 278.715 32.6211 278.715C21.0176 278.496 11.6035 283.754 11.6035 290.109Z" fill="#F9DC32"/>
<path d="M32.6211 301.502C21.0176 301.502 11.6035 296.463 11.6035 290.108V317.498C11.6035 323.852 21.0176 328.892 32.6211 328.892C35.0293 328.892 37.4376 328.673 39.6269 328.234V300.845C37.4376 301.283 35.0293 301.502 32.6211 301.502Z" fill="#F9C32A"/>
<path d="M53.6386 262.72V290.109C53.6386 296.463 44.2245 301.503 32.6211 301.503C21.0176 301.503 11.6035 296.463 11.6035 290.109V262.72H53.6386Z" fill="#CD316A"/>
<path d="M11.6035 262.72C11.6035 269.074 21.0176 274.114 32.6211 274.114C44.2245 274.114 53.6386 269.074 53.6386 262.72C53.6386 256.366 44.2245 251.326 32.6211 251.326C21.0176 251.107 11.6035 256.366 11.6035 262.72Z" fill="#FF3580"/>
<path d="M32.6211 274.114C21.0176 274.114 11.6035 269.074 11.6035 262.72V290.109C11.6035 296.463 21.0176 301.503 32.6211 301.503C35.0293 301.503 37.4376 301.284 39.6269 300.846V273.456C37.4376 273.895 35.0293 274.114 32.6211 274.114Z" fill="#FF5191"/>
<path d="M26.4899 198.08C29.7739 197.203 33.7147 195.888 33.7147 201.147C33.7147 204.872 31.0875 209.474 26.4899 212.541V215.39L24.5195 216.485V213.637C20.5787 215.609 17.7326 214.732 17.5137 210.35L22.987 207.282C23.2059 208.597 23.6438 209.035 24.7385 208.816V203.338C21.4545 204.215 17.5137 205.529 17.5137 200.052C17.5137 195.669 20.5787 191.506 24.7385 188.877V186.028L26.7088 184.933V187.781C30.8686 185.809 33.4958 186.686 33.7147 190.849L28.2414 193.916C28.0224 192.821 27.5846 192.163 26.7088 192.383L26.4899 198.08ZM26.4899 207.94C27.5846 207.063 28.4603 205.749 28.4603 204.434C28.4603 203.119 27.5846 202.9 26.4899 203.119V207.94ZM24.5195 198.299V193.478C23.4249 194.355 22.7681 195.45 22.7681 196.765C22.7681 198.08 23.4249 198.518 24.5195 198.299Z" fill="#F9DC32"/>
<path d="M121.945 70.335C125.229 69.4586 129.17 68.1439 129.17 73.4026C129.17 77.1276 126.543 81.729 121.945 84.7966V87.6451L119.975 88.7407V85.8922C116.034 87.8642 112.969 86.9878 112.75 82.8246L118.223 79.757C118.442 81.0717 118.88 81.5099 119.975 81.2908V75.8129C116.691 76.6894 112.75 78.004 112.75 72.5262C112.75 68.1439 115.815 63.9807 119.975 61.3513V58.5028L121.945 57.4072V60.2557C126.105 58.2837 128.732 59.1601 128.951 63.3233L123.478 66.3909C123.259 65.2954 122.821 64.638 121.945 64.8571V70.335ZM121.945 80.1952C123.04 79.3187 123.916 78.004 123.916 76.6894C123.916 75.3747 123.04 75.1556 121.945 75.3747V80.1952ZM120.194 70.5541V65.7336C119.099 66.8292 118.223 67.9248 118.223 69.2394C118.223 70.335 119.099 70.7732 120.194 70.5541Z" fill="#F9DC32"/>
<path d="M66.9922 127.963C69.4004 127.305 72.6844 126.21 72.6844 130.373C72.6844 133.221 70.714 136.946 66.9922 139.138V141.329L65.6786 142.205V140.014C62.6135 141.548 60.2053 140.891 60.2053 137.604L64.365 135.194C64.365 136.289 65.0218 136.727 65.6786 136.508V132.345C63.2703 133.002 60.2053 134.098 59.9863 129.935C59.9863 126.648 62.3946 123.142 65.4596 121.17V118.979L66.9922 118.103V120.294C70.0572 118.76 72.2466 119.417 72.4655 122.704L68.0868 124.895C68.0868 124.019 67.649 123.58 66.9922 123.8V127.963ZM66.9922 135.632C67.8679 134.974 68.5247 133.879 68.5247 132.783C68.5247 131.907 67.8679 131.688 66.9922 131.688V135.632ZM65.4596 128.182V124.457C64.5839 125.114 64.146 125.991 64.146 127.086C64.146 127.963 64.8028 128.182 65.4596 128.182Z" fill="#F9DC32"/>
<path d="M34.59 63.7625C36.9983 63.1052 40.2823 62.0096 40.2823 66.1728C40.2823 69.0213 38.3119 72.7463 34.59 74.9374V77.1286L33.0575 78.005V75.8139C29.9924 77.3477 27.5842 76.6903 27.5842 73.4036L31.7439 70.9933C31.7439 72.0889 32.4007 72.5271 33.0575 72.308V68.1448C30.6492 68.8022 27.5842 69.8978 27.3652 65.7346C27.3652 62.4478 29.7735 58.942 32.8386 56.97V54.7788L34.3711 53.9023V56.0935C37.4361 54.5597 39.6255 55.217 39.8444 58.5038L35.6847 60.914C35.6847 60.0376 35.2468 59.5993 34.59 59.8185V63.7625ZM34.59 71.4316C35.4657 70.7742 36.1225 69.6786 36.1225 68.5831C36.1225 67.7066 35.4657 67.4875 34.59 67.4875V71.4316ZM33.0575 63.9816V60.2567C32.1818 60.914 31.7439 61.7905 31.7439 62.8861C31.525 63.7625 32.1818 63.9816 33.0575 63.9816Z" fill="#F9DC32"/>
<path d="M284.834 270.388L325.994 246.504C327.745 245.409 329.935 245.409 331.686 246.504L429.111 302.817C430.863 303.693 430.863 306.104 429.111 307.199L389.046 330.425C387.076 331.521 384.449 331.521 382.259 330.425L285.053 274.332C283.521 273.455 283.521 271.264 284.834 270.388Z" fill="white"/>
<path d="M284.833 274.331L382.039 330.425C384.009 331.52 386.637 331.52 388.826 330.425L428.891 307.199C429.766 306.76 430.204 305.884 430.204 305.008V310.047C430.204 310.924 429.766 311.581 428.891 312.238L388.826 335.465C386.856 336.56 384.228 336.56 382.039 335.465L284.833 279.371C284.176 278.933 283.738 278.275 283.738 277.399V272.359C283.738 273.017 284.176 273.893 284.833 274.331Z" fill="#A7BCCE"/>
<path d="M284.833 274.331L382.039 330.425C382.915 331.082 384.009 331.301 385.104 331.301V336.341C384.009 336.341 382.915 336.122 382.039 335.465L284.833 279.371C284.176 278.933 283.738 278.275 283.738 277.399V272.359C283.738 273.017 284.176 273.893 284.833 274.331Z" fill="#BBCEE1"/>
<path d="M237.322 51.71L467.64 185.37V354.965L237.322 220.648V51.71Z" fill="url(#paint0_linear)"/>
<path d="M467.639 185.371L475.301 180.77V350.146L467.639 354.966V185.371Z" fill="#A7BCCE"/>
<path d="M237.322 51.7108L245.204 47.1094L475.302 180.77L467.64 185.371L237.322 51.7108Z" fill="white"/>
<path d="M237.322 51.71V220.648L467.64 354.965V185.37L237.322 51.71ZM462.166 345.324L242.796 217.58V61.1319L462.166 188.438V345.324Z" fill="#BBCEE1"/>
<path d="M498.07 95.7539L584.768 145.712V249.354L498.07 199.176V95.7539Z" fill="#BBCEE1"/>
<path d="M584.768 145.712L591.336 141.768V245.628L584.768 249.353V145.712Z" fill="#A7BCCE"/>
<path d="M498.07 95.7533L504.857 92.0283L591.336 141.767L584.768 145.712L498.07 95.7533Z" fill="white"/>
<path d="M505.514 108.9L577.543 150.313V236.425L505.514 194.794V108.9Z" fill="#F4F7FF"/>
<path d="M510.77 167.404V190.63L523.687 198.3V174.854L510.77 167.404Z" fill="#F9AE40"/>
<path d="M504.201 184.714V187.124L508.142 189.315V187.124L504.201 184.714Z" fill="#BBCEE1"/>
<path d="M504.201 176.168V178.359L508.142 180.769V178.359L504.201 176.168Z" fill="#BBCEE1"/>
<path d="M504.201 167.403V169.594L508.142 172.005V169.814L504.201 167.403Z" fill="#BBCEE1"/>
<path d="M504.201 158.858V161.05L508.142 163.46V161.05L504.201 158.858Z" fill="#BBCEE1"/>
<path d="M504.201 150.094V152.285L508.142 154.695V152.504L504.201 150.094Z" fill="#BBCEE1"/>
<path d="M504.201 141.329V143.739L508.142 146.15V143.739L504.201 141.329Z" fill="#BBCEE1"/>
<path d="M504.201 132.783V134.974L508.142 137.385V135.193L504.201 132.783Z" fill="#BBCEE1"/>
<path d="M504.201 124.019V126.429L508.142 128.62V126.429L504.201 124.019Z" fill="#BBCEE1"/>
<path d="M526.969 157.105V200.052L539.886 207.721V164.774L526.969 157.105Z" fill="#F9AE40"/>
<path d="M542.951 172.444V209.475L556.087 216.925V179.894L542.951 172.444Z" fill="#F9AE40"/>
<path d="M559.152 159.297V218.896L572.288 226.346V166.747L559.152 159.297Z" fill="#F9AE40"/>
<path d="M392.109 3.06738L478.807 52.8065V156.448L392.109 106.271V3.06738Z" fill="#BBCEE1"/>
<path d="M478.807 52.8064L485.375 48.8623V152.723L478.807 156.448V52.8064Z" fill="#A7BCCE"/>
<path d="M392.109 3.06712L398.896 -0.876953L485.375 48.8622L478.807 52.8063L392.109 3.06712Z" fill="white"/>
<path d="M399.553 15.9951L471.582 57.4079V143.52L399.553 101.888V15.9951Z" fill="#F4F7FF"/>
<path d="M398.24 91.8086V94.2189L402.181 96.6291V94.2189L398.24 91.8086Z" fill="#BBCEE1"/>
<path d="M398.24 83.2627V85.4539L402.181 87.8641V85.673L398.24 83.2627Z" fill="#BBCEE1"/>
<path d="M398.24 74.498V76.9083L402.181 79.0994V76.9083L398.24 74.498Z" fill="#BBCEE1"/>
<path d="M398.24 65.9531V68.1443L402.181 70.5545V68.1443L398.24 65.9531Z" fill="#BBCEE1"/>
<path d="M398.24 57.1885V59.3796L402.181 61.7899V59.5987L398.24 57.1885Z" fill="#BBCEE1"/>
<path d="M398.24 48.6426V50.8337L402.181 53.244V50.8337L398.24 48.6426Z" fill="#BBCEE1"/>
<path d="M398.24 39.8779V42.0691L402.181 44.4793V42.2882L398.24 39.8779Z" fill="#BBCEE1"/>
<path d="M398.24 31.1133V33.5235L402.181 35.9338V33.5235L398.24 31.1133Z" fill="#BBCEE1"/>
<path d="M433.487 420.043L295.56 498.048L207.768 447.213L345.695 368.989L433.487 420.043Z" fill="#FF2978"/>
<path d="M322.707 496.295V499.363L460.635 420.262V418.071L322.707 496.295Z" fill="#F0CEC9"/>
<path d="M460.636 418.071L322.708 496.295L234.697 445.46L372.625 367.236L460.636 418.071Z" fill="#FFFBF0"/>
<path d="M322.708 496.296V499.363L234.697 448.529V445.461L322.708 496.296Z" fill="#F5DDD8"/>
<path d="M371.75 375.562L424.732 406.239L422.542 407.553L369.342 376.877L371.75 375.562Z" fill="#DFBAB8"/>
<path d="M366.275 378.631L419.257 409.307L416.849 410.622L363.867 379.946L366.275 378.631Z" fill="#DFBAB8"/>
<path d="M353.357 385.861L426.481 428.151L424.073 429.465L350.949 387.176L353.357 385.861Z" fill="#DFBAB8"/>
<path d="M348.322 388.93L421.446 431L419.038 432.314L345.914 390.244L348.322 388.93Z" fill="#DFBAB8"/>
<path d="M343.287 391.777L416.411 433.847L414.002 435.162L340.879 393.092L343.287 391.777Z" fill="#DFBAB8"/>
<path d="M338.252 394.626L411.376 436.915L408.967 438.23L335.844 395.941L338.252 394.626Z" fill="#DFBAB8"/>
<path d="M332.996 397.474L406.119 439.763L403.93 441.078L330.807 398.788L332.996 397.474Z" fill="#DFBAB8"/>
<path d="M327.963 400.322L401.086 442.612L398.897 443.926L325.773 401.637L327.963 400.322Z" fill="#DFBAB8"/>
<path d="M322.926 403.172L396.049 445.461L393.86 446.776L320.736 404.487L322.926 403.172Z" fill="#DFBAB8"/>
<path d="M317.891 406.02L391.014 448.309L388.606 449.623L315.482 407.334L317.891 406.02Z" fill="#DFBAB8"/>
<path d="M312.856 408.868L385.979 451.157L383.571 452.472L310.447 410.183L312.856 408.868Z" fill="#DFBAB8"/>
<path d="M307.818 411.937L380.942 454.007L378.534 455.321L305.41 413.251L307.818 411.937Z" fill="#DFBAB8"/>
<path d="M302.785 414.784L375.909 456.854L373.5 458.169L300.377 416.099L302.785 414.784Z" fill="#DFBAB8"/>
<path d="M297.748 417.633L370.872 459.922L368.463 461.237L295.34 418.947L297.748 417.633Z" fill="#DFBAB8"/>
<path d="M292.713 420.481L365.618 462.771L363.428 464.085L290.305 421.796L292.713 420.481Z" fill="#DFBAB8"/>
<path d="M287.459 423.329L360.582 465.618L358.393 466.933L285.27 424.644L287.459 423.329Z" fill="#DFBAB8"/>
<path d="M282.424 426.179L355.547 468.468L353.358 469.783L280.234 427.493L282.424 426.179Z" fill="#DFBAB8"/>
<path d="M341.753 456.636C334.966 452.692 324.019 452.692 317.451 456.636C315.262 457.95 313.948 459.484 313.073 461.018L289.209 465.62L292.931 466.496L299.061 468.03L295.777 471.317L293.588 473.508L315.262 469.344C315.919 469.783 316.576 470.44 317.451 470.878C318.327 471.317 319.203 471.755 320.078 472.193L312.854 484.683L316.576 483.368L322.268 481.396L324.895 484.902L326.428 487.093L334.309 473.289C337.155 472.85 339.563 471.974 341.753 470.659C348.54 466.934 348.321 460.58 341.753 456.636Z" fill="#FF2978"/>
<path d="M318.328 463.429C318.328 466.935 323.364 469.564 329.494 469.564C335.624 469.564 340.659 466.716 340.659 463.429C340.659 459.923 335.624 457.294 329.494 457.294C323.364 457.294 318.328 459.923 318.328 463.429Z" fill="white"/>
<path d="M321.612 365.265V369.866C321.612 376.001 312.417 381.041 301.251 381.041C290.086 381.041 280.891 376.001 280.891 369.866V365.265H321.612Z" fill="#EF9D26"/>
<path d="M309.57 379.945C311.322 379.507 313.073 378.849 314.387 378.192V368.551H309.57V379.945Z" fill="#F9C32A"/>
<path d="M317.014 376.878C318.546 375.782 319.86 374.687 320.517 373.372V365.703H317.014V376.878Z" fill="#F9C32A"/>
<path d="M280.891 365.265C280.891 371.4 290.086 376.44 301.251 376.44C312.417 376.44 321.612 371.4 321.612 365.265C321.612 359.129 312.417 354.09 301.251 354.09C290.086 354.09 280.891 359.129 280.891 365.265Z" fill="#F9DC32"/>
<path d="M285.707 365.046C285.707 369.648 292.713 373.372 301.47 373.372C310.227 373.372 317.233 369.648 317.233 365.046C317.233 360.445 310.227 356.72 301.47 356.72C292.713 356.72 285.707 360.445 285.707 365.046Z" fill="#F9C32A"/>
<path d="M308.256 361.759L309.788 360.882L308.694 360.225L307.161 361.102C304.534 359.787 301.469 359.568 299.28 360.663C296.434 362.197 298.404 363.95 299.718 365.265L296.871 366.799C296.434 366.36 296.653 365.922 297.309 365.484L294.025 363.512C291.836 364.827 292.274 366.579 294.463 368.113L292.931 368.99L294.025 369.647L295.558 368.771C298.404 370.304 301.688 370.304 303.658 369.209C306.504 367.675 304.534 365.922 303.002 364.388L305.848 362.855C306.286 363.293 306.067 363.731 305.629 364.169L308.913 366.141C310.883 364.827 310.445 363.293 308.256 361.759ZM300.374 367.675C299.718 368.113 298.842 368.113 297.966 367.675L300.374 366.141C300.812 366.799 301.031 367.237 300.374 367.675ZM302.345 363.95C301.907 363.512 301.907 362.855 302.564 362.635C303.22 362.197 304.096 362.197 304.753 362.635L302.345 363.95Z" fill="#EF9D26"/>
<path d="M321.612 359.349V363.95C321.612 370.085 312.417 375.125 301.251 375.125C290.086 375.125 280.891 370.085 280.891 363.95V359.349H321.612Z" fill="#EF9D26"/>
<path d="M309.57 374.029C311.322 373.591 313.073 372.933 314.387 372.276V362.635H309.57V374.029Z" fill="#F9C32A"/>
<path d="M317.014 370.962C318.546 369.866 319.86 368.771 320.517 367.456V359.787H317.014V370.962Z" fill="#F9C32A"/>
<path d="M280.891 359.349C280.891 365.484 290.086 370.524 301.251 370.524C312.417 370.524 321.612 365.484 321.612 359.349C321.612 353.214 312.417 348.174 301.251 348.174C290.086 348.393 280.891 353.214 280.891 359.349Z" fill="#F9DC32"/>
<path d="M285.707 359.349C285.707 363.95 292.713 367.675 301.47 367.675C310.227 367.675 317.233 363.95 317.233 359.349C317.233 354.747 310.227 351.022 301.47 351.022C292.713 351.022 285.707 354.747 285.707 359.349Z" fill="#F9C32A"/>
<path d="M308.256 355.843L309.788 354.966L308.694 354.309L307.161 355.186C304.534 353.871 301.469 353.652 299.28 354.747C296.434 356.281 298.404 358.034 299.718 359.349L296.871 360.883C296.434 360.444 296.653 360.006 297.309 359.568L294.025 357.596C291.836 358.911 292.274 360.664 294.463 362.197L292.931 363.074L294.025 363.731L295.558 362.855C298.404 364.388 301.688 364.388 303.658 363.293C306.504 361.759 304.534 360.006 303.002 358.472L305.848 356.939C306.286 357.377 306.067 357.815 305.629 358.253L308.913 360.225C310.883 359.13 310.445 357.377 308.256 355.843ZM300.374 361.759C299.718 362.197 298.842 362.197 297.966 361.759L300.374 360.225C300.812 361.102 301.031 361.54 300.374 361.759ZM302.345 358.034C301.907 357.596 301.907 356.939 302.564 356.719C303.22 356.281 304.096 356.281 304.753 356.719L302.345 358.034Z" fill="#EF9D26"/>
<path d="M321.612 353.651V358.253C321.612 364.388 312.417 369.428 301.251 369.428C290.086 369.428 280.891 364.388 280.891 358.253V353.651H321.612Z" fill="#EF9D26"/>
<path d="M309.57 368.113C311.322 367.675 313.073 367.017 314.387 366.36V356.719H309.57V368.113Z" fill="#F9C32A"/>
<path d="M317.014 365.265C318.546 364.169 319.86 363.074 320.517 361.759V354.09H317.014V365.265Z" fill="#F9C32A"/>
<path d="M280.891 353.651C280.891 359.787 290.086 364.826 301.251 364.826C312.417 364.826 321.612 359.787 321.612 353.651C321.612 347.516 312.417 342.477 301.251 342.477C290.086 342.477 280.891 347.516 280.891 353.651Z" fill="#F9DC32"/>
<path d="M285.707 353.433C285.707 358.034 292.713 361.759 301.47 361.759C310.227 361.759 317.233 358.034 317.233 353.433C317.233 348.831 310.227 345.106 301.47 345.106C292.713 345.106 285.707 348.831 285.707 353.433Z" fill="#F9C32A"/>
<path d="M308.256 350.146L309.788 349.269L308.694 348.612L307.161 349.488C304.534 348.174 301.469 347.955 299.28 349.05C296.434 350.584 298.404 352.337 299.718 353.651L296.871 355.185C296.434 354.747 296.653 354.309 297.309 353.871L294.025 351.899C291.836 353.213 292.274 354.966 294.463 356.5L292.931 357.376L294.025 358.034L295.558 357.157C298.404 358.691 301.688 358.691 303.658 357.596C306.504 356.062 304.534 354.309 303.002 352.775L305.848 351.241C306.286 351.679 306.067 352.118 305.629 352.556L308.913 354.528C310.883 353.213 310.445 351.679 308.256 350.146ZM300.374 356.062C299.718 356.5 298.842 356.5 297.966 356.062L300.374 354.528C300.812 355.185 301.031 355.624 300.374 356.062ZM302.345 352.118C301.907 351.679 301.907 351.022 302.564 350.803C303.22 350.365 304.096 350.365 304.753 350.803L302.345 352.118Z" fill="#EF9D26"/>
<path d="M321.612 347.735V352.337C321.612 358.472 312.417 363.512 301.251 363.512C290.086 363.512 280.891 358.472 280.891 352.337V347.735H321.612Z" fill="#EF9D26"/>
<path d="M309.57 362.415C311.322 361.977 313.073 361.32 314.387 360.663V351.021H309.57V362.415Z" fill="#F9C32A"/>
<path d="M317.014 359.349C318.546 358.253 319.86 357.158 320.517 355.843V348.174H317.014V359.349Z" fill="#F9C32A"/>
<path d="M280.891 347.735C280.891 353.871 290.086 358.91 301.251 358.91C312.417 358.91 321.612 353.871 321.612 347.735C321.612 341.6 312.417 336.561 301.251 336.561C290.086 336.561 280.891 341.6 280.891 347.735Z" fill="#F9DC32"/>
<path d="M285.707 347.517C285.707 352.118 292.713 355.843 301.47 355.843C310.227 355.843 317.233 352.118 317.233 347.517C317.233 342.915 310.227 339.19 301.47 339.19C292.713 339.19 285.707 342.915 285.707 347.517Z" fill="#F9C32A"/>
<path d="M308.256 344.23L309.788 343.353L308.694 342.696L307.161 343.572C304.534 342.258 301.469 342.039 299.28 343.134C296.434 344.668 298.404 346.421 299.718 347.735L296.871 349.269C296.434 348.831 296.653 348.393 297.309 347.955L294.025 345.983C291.836 347.297 292.274 349.05 294.463 350.584L292.931 351.46L294.025 352.118L295.558 351.241C298.404 352.775 301.688 352.775 303.658 351.68C306.504 350.146 304.534 348.393 303.002 346.859L305.848 345.325C306.286 345.763 306.067 346.202 305.629 346.64L308.913 348.612C310.883 347.297 310.445 345.763 308.256 344.23ZM300.374 350.146C299.718 350.584 298.842 350.584 297.966 350.146L300.374 348.612C300.812 349.269 301.031 349.927 300.374 350.146ZM302.345 346.421C301.907 345.983 301.907 345.325 302.564 345.106C303.22 344.668 304.096 344.668 304.753 345.106L302.345 346.421Z" fill="#EF9D26"/>
<path d="M291.399 382.355V386.957C291.399 393.092 282.204 398.132 271.038 398.132C259.873 398.132 250.678 393.092 250.678 386.957V382.355H291.399Z" fill="#EF9D26"/>
<path d="M279.357 397.036C281.109 396.597 282.86 395.94 284.174 395.283V385.642H279.357V397.036Z" fill="#F9C32A"/>
<path d="M286.801 393.969C288.333 392.873 289.647 391.778 290.304 390.463V382.794H286.801V393.969Z" fill="#F9C32A"/>
<path d="M250.678 382.356C250.678 388.491 259.873 393.53 271.038 393.53C282.204 393.53 291.399 388.491 291.399 382.356C291.399 376.22 282.204 371.181 271.038 371.181C259.873 371.181 250.678 376.22 250.678 382.356Z" fill="#F9DC32"/>
<path d="M271.039 390.463C279.744 390.463 286.802 386.735 286.802 382.137C286.802 377.538 279.744 373.811 271.039 373.811C262.333 373.811 255.275 377.538 255.275 382.137C255.275 386.735 262.333 390.463 271.039 390.463Z" fill="#F9C32A"/>
<path d="M278.043 378.85L279.576 377.973L278.481 377.316L276.948 378.192C274.321 376.878 271.256 376.659 269.067 377.754C266.221 379.288 268.191 381.041 269.505 382.356L266.659 383.889C266.221 383.451 266.44 383.013 267.096 382.575L263.812 380.603C261.623 381.917 262.061 383.67 264.25 385.204L262.718 386.081L263.812 386.738L265.345 385.861C268.191 387.395 271.475 387.395 273.445 386.3C276.292 384.766 274.321 383.013 272.789 381.479L275.635 379.945C276.073 380.384 275.854 380.822 275.416 381.26L278.7 383.232C280.67 381.917 280.232 380.384 278.043 378.85ZM270.161 384.766C269.505 385.204 268.629 385.204 267.753 384.766L270.161 383.232C270.599 383.889 270.818 384.328 270.161 384.766ZM272.132 381.041C271.694 380.603 271.694 379.945 272.351 379.726C273.008 379.288 273.883 379.288 274.54 379.726L272.132 381.041Z" fill="#EF9D26"/>
<path d="M291.399 376.438V381.04C291.399 387.175 282.204 392.215 271.038 392.215C259.873 392.215 250.678 387.175 250.678 381.04V376.438H291.399Z" fill="#EF9D26"/>
<path d="M279.357 391.119C281.109 390.68 282.86 390.023 284.174 389.366V379.725H279.357V391.119Z" fill="#F9C32A"/>
<path d="M286.801 388.052C288.333 386.956 289.647 385.861 290.304 384.546V376.877H286.801V388.052Z" fill="#F9C32A"/>
<path d="M250.678 376.439C250.678 382.574 259.873 387.613 271.038 387.613C282.204 387.613 291.399 382.574 291.399 376.439C291.399 370.303 282.204 365.264 271.038 365.264C259.873 365.483 250.678 370.303 250.678 376.439Z" fill="#F9DC32"/>
<path d="M271.039 384.765C279.744 384.765 286.802 381.037 286.802 376.439C286.802 371.84 279.744 368.112 271.039 368.112C262.333 368.112 255.275 371.84 255.275 376.439C255.275 381.037 262.333 384.765 271.039 384.765Z" fill="#F9C32A"/>
<path d="M278.043 372.933L279.576 372.056L278.481 371.399L276.948 372.275C274.321 370.961 271.256 370.742 269.067 371.837C266.221 373.371 268.191 375.124 269.505 376.439L266.659 377.972C266.221 377.534 266.44 377.096 267.096 376.658L263.812 374.686C261.623 376 262.061 377.753 264.25 379.287L262.718 380.164L263.812 380.821L265.345 379.944C268.191 381.478 271.475 381.478 273.445 380.383C276.292 378.849 274.321 377.096 272.789 375.562L275.635 374.028C276.073 374.467 275.854 374.905 275.416 375.343L278.7 377.315C280.67 376.22 280.232 374.467 278.043 372.933ZM270.161 378.849C269.505 379.287 268.629 379.287 267.753 378.849L270.161 377.315C270.599 378.192 270.818 378.63 270.161 378.849ZM272.132 375.124C271.694 374.686 271.694 374.028 272.351 373.809C273.008 373.371 273.883 373.371 274.54 373.809L272.132 375.124Z" fill="#EF9D26"/>
<path d="M291.399 370.741V375.343C291.399 381.478 282.204 386.518 271.038 386.518C259.873 386.518 250.678 381.478 250.678 375.343V370.741H291.399Z" fill="#EF9D26"/>
<path d="M279.357 385.204C281.109 384.765 282.86 384.108 284.174 383.451V373.81H279.357V385.204Z" fill="#F9C32A"/>
<path d="M286.801 382.356C288.333 381.26 289.647 380.164 290.304 378.85V371.181H286.801V382.356Z" fill="#F9C32A"/>
<path d="M250.678 370.742C250.678 376.877 259.873 381.917 271.038 381.917C282.204 381.917 291.399 376.877 291.399 370.742C291.399 364.607 282.204 359.567 271.038 359.567C259.873 359.567 250.678 364.607 250.678 370.742Z" fill="#F9DC32"/>
<path d="M271.039 378.85C279.744 378.85 286.802 375.122 286.802 370.524C286.802 365.925 279.744 362.197 271.039 362.197C262.333 362.197 255.275 365.925 255.275 370.524C255.275 375.122 262.333 378.85 271.039 378.85Z" fill="#F9C32A"/>
<path d="M278.043 367.237L279.576 366.36L278.481 365.703L276.948 366.579C274.321 365.264 271.256 365.045 269.067 366.141C266.221 367.675 268.191 369.428 269.505 370.742L266.659 372.276C266.221 371.838 266.44 371.4 267.096 370.961L263.812 368.989C261.623 370.304 262.061 372.057 264.25 373.591L262.718 374.686L263.812 375.344L265.345 374.467C268.191 376.001 271.475 376.001 273.445 374.906C276.292 373.372 274.321 371.619 272.789 370.085L275.635 368.551C276.073 368.989 275.854 369.428 275.416 369.866L278.7 371.838C280.67 370.304 280.232 368.77 278.043 367.237ZM270.161 373.153C269.505 373.591 268.629 373.591 267.753 373.153L270.161 371.619C270.599 372.276 270.818 372.714 270.161 373.153ZM272.132 369.209C271.694 368.77 271.694 368.113 272.351 367.894C273.008 367.456 273.883 367.456 274.54 367.894L272.132 369.209Z" fill="#EF9D26"/>
<path d="M261.186 399.447V404.049C261.186 410.184 251.991 415.224 240.826 415.224C229.66 415.224 220.465 410.184 220.465 404.049V399.447H261.186Z" fill="#EF9D26"/>
<path d="M249.145 414.127C250.896 413.689 252.647 413.032 253.961 412.374V402.733H249.145V414.127Z" fill="#F9C32A"/>
<path d="M256.588 411.061C258.12 409.965 259.434 408.869 260.091 407.555V399.886H256.588V411.061Z" fill="#F9C32A"/>
<path d="M220.465 399.447C220.465 405.583 229.66 410.622 240.826 410.622C251.991 410.622 261.186 405.583 261.186 399.447C261.186 393.312 251.991 388.272 240.826 388.272C229.66 388.272 220.465 393.312 220.465 399.447Z" fill="#F9DC32"/>
<path d="M225.281 399.229C225.281 403.83 232.287 407.555 241.044 407.555C249.802 407.555 256.808 403.83 256.808 399.229C256.808 394.627 249.802 390.902 241.044 390.902C232.287 390.902 225.281 394.627 225.281 399.229Z" fill="#F9C32A"/>
<path d="M247.83 395.942L249.363 395.065L248.268 394.408L246.735 395.284C244.108 393.97 241.043 393.75 238.854 394.846C236.008 396.38 237.978 398.133 239.292 399.447L236.446 400.981C236.008 400.543 236.227 400.105 236.884 399.667L233.6 397.694C231.41 399.009 231.848 400.762 234.037 402.296L232.505 403.172L233.6 403.83L235.132 402.953C237.978 404.487 241.262 404.487 243.233 403.391C246.079 401.858 244.108 400.105 242.576 398.571L245.422 397.037C245.86 397.475 245.641 397.914 245.203 398.352L248.487 400.324C250.457 399.009 250.019 397.475 247.83 395.942ZM239.949 401.858C239.292 402.296 238.416 402.296 237.54 401.858L239.949 400.324C240.386 400.981 240.605 401.419 239.949 401.858ZM241.919 398.133C241.481 397.694 241.481 397.037 242.138 396.818C242.795 396.38 243.67 396.38 244.327 396.818L241.919 398.133Z" fill="#EF9D26"/>
<path d="M261.186 393.531V398.133C261.186 404.268 251.991 409.308 240.826 409.308C229.66 409.308 220.465 404.268 220.465 398.133V393.531H261.186Z" fill="#EF9D26"/>
<path d="M249.145 408.211C250.896 407.773 252.647 407.116 253.961 406.458V396.817H249.145V408.211Z" fill="#F9C32A"/>
<path d="M256.588 405.145C258.12 404.049 259.434 402.953 260.091 401.639V393.97H256.588V405.145Z" fill="#F9C32A"/>
<path d="M220.465 393.531C220.465 399.667 229.66 404.706 240.826 404.706C251.991 404.706 261.186 399.667 261.186 393.531C261.186 387.396 251.991 382.356 240.826 382.356C229.66 382.576 220.465 387.396 220.465 393.531Z" fill="#F9DC32"/>
<path d="M225.281 393.531C225.281 398.133 232.287 401.858 241.044 401.858C249.802 401.858 256.808 398.133 256.808 393.531C256.808 388.93 249.802 385.205 241.044 385.205C232.287 385.205 225.281 388.93 225.281 393.531Z" fill="#F9C32A"/>
<path d="M247.83 390.026L249.363 389.149L248.268 388.492L246.735 389.368C244.108 388.054 241.043 387.834 238.854 388.93C236.008 390.464 237.978 392.217 239.292 393.531L236.446 395.065C236.008 394.627 236.227 394.189 236.884 393.751L233.6 391.778C231.41 393.093 231.848 394.846 234.037 396.38L232.505 397.256L233.6 397.914L235.132 397.037C237.978 398.571 241.262 398.571 243.233 397.475C246.079 395.942 244.108 394.189 242.576 392.655L245.422 391.121C245.86 391.559 245.641 391.998 245.203 392.436L248.487 394.408C250.457 393.312 250.019 391.559 247.83 390.026ZM239.949 395.942C239.292 396.38 238.416 396.38 237.54 395.942L239.949 394.408C240.386 395.284 240.605 395.723 239.949 395.942ZM241.919 392.217C241.481 391.778 241.481 391.121 242.138 390.902C242.795 390.464 243.67 390.464 244.327 390.902L241.919 392.217Z" fill="#EF9D26"/>
<path d="M230.973 416.538V421.139C230.973 427.275 221.778 432.314 210.613 432.314C199.447 432.314 190.252 427.275 190.252 421.139V416.538H230.973Z" fill="#EF9D26"/>
<path d="M218.932 431.218C220.683 430.78 222.435 430.123 223.748 429.465V419.824H218.932V431.218Z" fill="#F9C32A"/>
<path d="M226.375 428.151C227.908 427.056 229.221 425.96 229.878 424.646V416.977H226.375V428.151Z" fill="#F9C32A"/>
<path d="M190.252 416.538C190.252 422.673 199.447 427.713 210.613 427.713C221.778 427.713 230.973 422.673 230.973 416.538C230.973 410.403 221.778 405.363 210.613 405.363C199.447 405.363 190.252 410.403 190.252 416.538Z" fill="#F9DC32"/>
<path d="M195.068 416.32C195.068 420.921 202.074 424.646 210.832 424.646C219.589 424.646 226.595 420.921 226.595 416.32C226.595 411.718 219.589 407.993 210.832 407.993C202.074 407.993 195.068 411.718 195.068 416.32Z" fill="#F9C32A"/>
<path d="M217.617 413.032L219.15 412.156L218.055 411.499L216.523 412.375C213.895 411.06 210.83 410.841 208.641 411.937C205.795 413.471 207.765 415.224 209.079 416.538L206.233 418.072C205.795 417.634 206.014 417.196 206.671 416.757L203.387 414.785C201.197 416.1 201.635 417.853 203.825 419.387L202.292 420.263L203.387 420.921L204.919 420.044C207.765 421.578 211.049 421.578 213.02 420.482C215.866 418.949 213.895 417.196 212.363 415.662L215.209 414.128C215.647 414.566 215.428 415.004 214.99 415.443L218.274 417.415C220.244 416.1 219.807 414.566 217.617 413.032ZM209.736 418.949C209.079 419.387 208.203 419.387 207.327 418.949L209.736 417.415C210.174 418.072 210.393 418.51 209.736 418.949ZM211.706 415.224C211.268 414.785 211.268 414.128 211.925 413.909C212.582 413.471 213.458 413.471 214.114 413.909L211.706 415.224Z" fill="#EF9D26"/>
<path d="M524.125 332.178L497.854 317.059V347.516L524.125 362.635V332.178Z" fill="#BBCEE1"/>
<path d="M525.001 301.502L497.854 317.059L524.125 332.178L551.054 316.621L525.001 301.502Z" fill="white"/>
<path d="M551.054 316.621L524.125 332.178V362.635L551.054 347.078V316.621Z" fill="#A7BCCE"/>
<path d="M458.882 70.7739C456.036 69.2401 453.847 70.5548 453.847 73.6224C453.847 75.1562 454.285 76.69 455.161 78.2238L435.019 97.2868C434.362 96.4104 433.486 95.5339 432.392 94.8766C430.859 94.0001 429.764 94.0001 428.67 94.6574L417.723 80.415C417.723 79.9767 417.942 79.5385 417.942 79.1003C417.942 76.0326 415.753 72.0886 412.907 70.5548C410.06 69.021 407.871 70.3357 407.871 73.4033C407.871 76.4709 410.06 80.415 412.907 81.9488C414.22 82.6061 415.315 82.8252 415.972 82.387L427.137 97.0677C427.137 97.2868 427.137 97.5059 427.137 97.725C427.137 100.793 429.327 104.737 432.173 106.271C435.019 107.804 437.208 106.49 437.208 103.422C437.208 102.107 436.77 100.793 436.113 99.2589L456.255 79.9767C456.912 80.6341 457.569 81.5105 458.445 81.9488C461.291 83.4826 463.48 82.1679 463.48 79.1003C463.918 76.0326 461.729 72.3077 458.882 70.7739Z" fill="#FF2978"/>
<path d="M199.887 111.53L134.207 149.218V227.661L199.887 189.754V111.53Z" fill="#BBCEE1"/>
<path d="M134.207 149.218L129.391 146.15V224.813L134.207 227.661V149.218Z" fill="#A7BCCE"/>
<path d="M199.887 111.53L194.852 108.462L129.391 146.15L134.207 149.217L199.887 111.53Z" fill="white"/>
<path d="M194.415 121.391L139.9 152.724V217.801L194.415 186.249V121.391Z" fill="#F4F7FF"/>
<path d="M141.872 209.037V210.79L138.807 212.543V211.009L141.872 209.037Z" fill="#BBCEE1"/>
<path d="M141.872 202.682V204.215L138.807 206.187V204.435L141.872 202.682Z" fill="#BBCEE1"/>
<path d="M141.872 196.108V197.642L138.807 199.614V197.861L141.872 196.108Z" fill="#BBCEE1"/>
<path d="M141.872 189.535V191.069L138.807 193.041V191.288L141.872 189.535Z" fill="#BBCEE1"/>
<path d="M141.872 182.962V184.496L138.807 186.468V184.715L141.872 182.962Z" fill="#BBCEE1"/>
<path d="M141.872 176.388V178.141L138.807 179.894V178.141L141.872 176.388Z" fill="#BBCEE1"/>
<path d="M141.872 169.814V171.567L138.807 173.32V171.567L141.872 169.814Z" fill="#BBCEE1"/>
<path d="M141.872 163.241V164.994L138.807 166.747V164.994L141.872 163.241Z" fill="#BBCEE1"/>
<path d="M144.934 209.255L190.472 182.961V144.835L144.934 209.255Z" fill="#F9AE40"/>
<path d="M152.158 150.971V163.899L144.934 168.062V155.134L152.158 150.971Z" fill="#F9AE40"/>
<path d="M144.934 209.255L190.472 144.835V128.84L144.934 209.255Z" fill="#ED5561"/>
<path d="M196.821 460.361V457.513H195.945C195.507 457.074 195.069 456.417 194.413 456.198L138.585 423.769C135.52 422.016 131.798 422.016 128.733 423.769L44.2247 472.631C43.7868 472.851 43.5679 473.07 43.13 473.508L41.8164 473.727V476.795C41.8164 478.328 42.4732 479.862 44.0057 480.739L99.6147 513.168C103.118 515.14 107.277 515.14 110.561 513.168L193.975 464.962C196.164 463.648 196.821 462.114 196.821 460.361Z" fill="#BBCEE1"/>
<path d="M194.414 453.129L138.587 420.7C135.521 418.948 131.8 418.948 128.735 420.7L44.2265 469.563C41.1615 471.316 41.1615 475.698 44.2265 477.451L99.8354 509.88C103.338 511.852 107.498 511.852 110.782 509.88L194.195 461.675C197.698 459.703 197.698 455.102 194.414 453.129Z" fill="#E2F7E8"/>
<path d="M194.412 461.676L110.999 509.881C109.247 510.977 107.277 511.415 105.525 511.415V514.483C107.496 514.483 109.247 514.044 110.999 512.949L194.412 464.744C196.164 463.867 196.82 462.114 196.82 460.361V457.513C196.82 459.047 195.945 460.799 194.412 461.676Z" fill="#A7BCCE"/>
<path d="M170.768 457.731C170.768 460.36 174.708 462.551 179.744 462.551C184.779 462.551 188.72 460.36 188.72 457.731C188.72 455.101 184.779 452.91 179.744 452.91C174.708 452.91 170.768 455.101 170.768 457.731Z" fill="#1C75BC"/>
<path d="M160.916 463.428C160.916 466.057 164.857 468.248 169.892 468.248C174.928 468.248 178.868 466.057 178.868 463.428C178.868 460.799 174.928 458.607 169.892 458.607C164.857 458.607 160.916 460.799 160.916 463.428Z" fill="#F9AE40"/>
<path d="M79.9107 469.344L69.4019 463.209C68.7451 462.77 68.0883 462.77 67.6505 463.209L51.6684 472.411C51.0116 472.85 51.0116 473.507 51.6684 473.945L62.1771 480.08C62.8339 480.519 63.7097 480.519 64.3665 480.08L80.1296 470.878C80.5675 470.658 80.5675 469.563 79.9107 469.344Z" fill="#F9AE40"/>
<path d="M157.849 439.106L73.998 487.312L77.7199 489.503L161.571 441.079L157.849 439.106Z" fill="#A7BCCE"/>
<path d="M164.638 442.831L80.7871 491.255L84.509 493.447L168.36 445.022L164.638 442.831Z" fill="#A7BCCE"/>
<path d="M283.517 92.2469L248.488 71.8691V75.375L283.517 95.7527V92.2469Z" fill="#F4F7FF"/>
<path d="M283.517 97.9441L248.488 77.5664V81.0722L283.517 101.45V97.9441Z" fill="#F4F7FF"/>
<path d="M456.256 323.633L421.227 303.255V306.761L456.256 327.138V323.633Z" fill="#F4F7FF"/>
<path d="M456.256 329.329L421.227 308.951V312.457L456.256 332.835V329.329Z" fill="#F4F7FF"/>
<path d="M415.971 300.187L380.941 279.81V283.315L415.971 303.693V300.187Z" fill="#F4F7FF"/>
<path d="M415.971 305.884L380.941 285.726V289.012L415.971 309.39V305.884Z" fill="#F4F7FF"/>
<path d="M375.469 276.742L340.439 256.583V259.87L375.469 280.247V276.742Z" fill="#F4F7FF"/>
<path d="M375.469 282.657L340.439 262.279V265.566L375.469 285.944V282.657Z" fill="#F4F7FF"/>
<path d="M335.186 253.515L299.938 233.138V236.424L335.186 256.802V253.515Z" fill="#F4F7FF"/>
<path d="M335.186 259.212L299.938 238.834V242.34L335.186 262.498V259.212Z" fill="#F4F7FF"/>
<path d="M283.517 103.86L248.488 83.4824V86.7691L283.517 107.147V103.86Z" fill="#F4F7FF"/>
<path d="M283.517 109.556L248.488 89.1787V92.6846L283.517 112.843V109.556Z" fill="#F4F7FF"/>
<path d="M283.517 115.255L248.488 94.877V98.3828L283.517 118.761V115.255Z" fill="#F4F7FF"/>
<path d="M283.517 120.951L248.488 100.573V104.079L283.517 124.457V120.951Z" fill="#F4F7FF"/>
<path d="M283.517 126.867L248.488 106.489V109.776L283.517 130.154V126.867Z" fill="#F4F7FF"/>
<path d="M283.517 132.563L248.488 112.186V115.691L283.517 135.85V132.563Z" fill="#F4F7FF"/>
<path d="M283.517 138.262L248.488 117.884V121.39L283.517 141.767V138.262Z" fill="#F4F7FF"/>
<path d="M283.517 143.958L248.488 123.8V127.087L283.517 147.464V143.958Z" fill="#F4F7FF"/>
<path d="M283.517 149.875L248.488 129.497V132.784L283.517 153.162V149.875Z" fill="#F4F7FF"/>
<path d="M283.517 155.571L248.488 135.193V138.699L283.517 159.077V155.571Z" fill="#F4F7FF"/>
<path d="M283.517 161.268L248.488 140.891V144.396L283.517 164.774V161.268Z" fill="#F4F7FF"/>
<path d="M283.517 166.966L248.488 146.808V150.094L283.517 170.472V166.966Z" fill="#F4F7FF"/>
<path d="M283.517 172.882L248.488 152.504V155.791L283.517 176.168V172.882Z" fill="#F4F7FF"/>
<path d="M283.517 178.578L248.488 158.2V161.706L283.517 182.084V178.578Z" fill="#F4F7FF"/>
<path d="M283.517 184.275L248.488 163.897V167.403L283.517 187.781V184.275Z" fill="#F4F7FF"/>
<path d="M290.086 95.9727L456.256 192.602V314.869L290.086 218.02V95.9727Z" fill="#F4F7FF"/>
<path d="M294.246 211.227V212.541L451.002 304.131V302.598L294.246 211.227Z" fill="#BBCEE1"/>
<path d="M294.246 196.984V198.299L451.002 289.67V288.355L294.246 196.984Z" fill="#BBCEE1"/>
<path d="M294.246 182.742V184.057L451.002 275.428V274.113L294.246 182.742Z" fill="#BBCEE1"/>
<path d="M294.246 168.28V169.595L451.002 261.185V259.651L294.246 168.28Z" fill="#BBCEE1"/>
<path d="M294.246 154.038V155.353L451.002 246.724V245.409L294.246 154.038Z" fill="#BBCEE1"/>
<path d="M294.246 139.796V141.111L451.002 232.482V231.167L294.246 139.796Z" fill="#BBCEE1"/>
<path d="M294.246 125.335V126.65L451.002 218.021V216.706L294.246 125.335Z" fill="#BBCEE1"/>
<path d="M294.246 111.749V211.227L295.56 212.104V112.625L294.246 111.749Z" fill="#BBCEE1"/>
<path d="M309.354 120.732V220.211L310.667 220.868V121.39L309.354 120.732Z" fill="#BBCEE1"/>
<path d="M324.457 129.497V228.975L325.552 229.633V130.154L324.457 129.497Z" fill="#BBCEE1"/>
<path d="M339.564 138.262V237.74L340.659 238.397V138.919L339.564 138.262Z" fill="#BBCEE1"/>
<path d="M354.672 147.026V246.505L355.767 247.381V147.903L354.672 147.026Z" fill="#BBCEE1"/>
<path d="M369.559 156.011V255.489L370.872 256.146V156.668L369.559 156.011Z" fill="#BBCEE1"/>
<path d="M384.664 164.775V264.254L385.978 264.911V165.433L384.664 164.775Z" fill="#BBCEE1"/>
<path d="M399.771 173.54V273.018L401.085 273.676V174.197L399.771 173.54Z" fill="#BBCEE1"/>
<path d="M414.877 182.305V281.783L416.191 282.659V183.181L414.877 182.305Z" fill="#BBCEE1"/>
<path d="M429.984 191.288V290.766L431.298 291.424V191.945L429.984 191.288Z" fill="#BBCEE1"/>
<path d="M445.092 200.053V299.531L446.405 300.188V200.71L445.092 200.053Z" fill="#BBCEE1"/>
<path d="M325.114 197.642C326.865 198.519 328.179 200.929 328.179 202.901C328.179 204.873 326.865 205.53 325.114 204.654C323.362 203.778 322.049 201.367 322.049 199.395C322.049 197.423 323.362 196.547 325.114 197.642Z" fill="#FF2978"/>
<path d="M325.114 182.961C326.865 183.837 328.179 186.248 328.179 188.22C328.179 190.192 326.865 190.849 325.114 189.973C323.362 189.096 322.049 186.686 322.049 184.714C322.049 182.961 323.362 182.085 325.114 182.961Z" fill="#F9AE40"/>
<path d="M355.11 215.829C356.861 216.705 358.175 219.116 358.175 221.088C358.175 223.06 356.861 223.717 355.11 222.84C353.359 221.964 352.045 219.554 352.045 217.582C352.045 215.61 353.577 214.733 355.11 215.829Z" fill="#F9AE40"/>
<path d="M370.214 195.452C371.965 196.328 373.279 198.739 373.279 200.711C373.279 202.683 371.965 203.34 370.214 202.464C368.462 201.587 367.148 199.177 367.148 197.205C367.148 195.233 368.681 194.356 370.214 195.452Z" fill="#F9AE40"/>
<path d="M385.321 189.754C387.072 190.63 388.386 193.04 388.386 195.012C388.386 196.984 387.072 197.642 385.321 196.765C383.569 195.889 382.256 193.479 382.256 191.507C382.256 189.535 383.569 188.658 385.321 189.754Z" fill="#F9AE40"/>
<path d="M415.536 221.964C417.287 222.84 418.601 225.25 418.601 227.222C418.601 229.194 417.287 229.852 415.536 228.975C413.784 228.099 412.471 225.689 412.471 223.717C412.471 221.744 413.784 220.868 415.536 221.964Z" fill="#F9AE40"/>
<path d="M400.428 241.903C402.18 242.78 403.493 245.19 403.493 247.162C403.493 249.134 402.18 249.791 400.428 248.915C398.677 248.038 397.363 245.628 397.363 243.656C397.363 241.684 398.677 240.807 400.428 241.903Z" fill="#F9AE40"/>
<path d="M430.641 215.171C432.393 216.047 433.706 218.458 433.706 220.43C433.706 222.402 432.393 223.059 430.641 222.183C428.89 221.306 427.576 218.896 427.576 216.924C427.576 215.171 428.89 214.295 430.641 215.171Z" fill="#F9AE40"/>
<path d="M340.221 214.514C341.973 215.39 343.286 217.8 343.286 219.772C343.286 221.745 341.973 222.402 340.221 221.525C338.47 220.649 337.156 218.239 337.156 216.267C337.156 214.295 338.47 213.637 340.221 214.514Z" fill="#FF2978"/>
<path d="M355.11 201.587C356.861 202.463 358.175 204.873 358.175 206.845C358.175 208.817 356.861 209.475 355.11 208.598C353.359 207.722 352.045 205.312 352.045 203.34C352.045 201.368 353.577 200.491 355.11 201.587Z" fill="#FF2978"/>
<path d="M385.321 226.128C387.072 227.004 388.386 229.415 388.386 231.387C388.386 233.359 387.072 234.016 385.321 233.14C383.569 232.263 382.256 229.853 382.256 227.881C382.256 225.909 383.569 225.252 385.321 226.128Z" fill="#FF2978"/>
<path d="M400.428 208.379C402.18 209.255 403.493 211.666 403.493 213.638C403.493 215.61 402.18 216.267 400.428 215.391C398.677 214.514 397.363 212.104 397.363 210.132C397.363 208.379 398.677 207.503 400.428 208.379Z" fill="#FF2978"/>
<path d="M430.641 202.462C432.393 203.338 433.706 205.749 433.706 207.721C433.706 209.693 432.393 210.35 430.641 209.474C428.89 208.597 427.576 206.187 427.576 204.215C427.576 202.243 428.89 201.585 430.641 202.462Z" fill="#FF2978"/>
<path d="M430.421 205.531L400.208 211.447L385.102 228.757L355.108 204.216L340.221 217.363L325.114 200.491L309.789 206.407L310.227 207.503L324.895 201.806L340.002 218.897L355.108 205.969L385.321 230.51L400.865 212.543L430.64 206.626L430.421 205.531Z" fill="#FF2978"/>
<path d="M430.422 218.677L415.096 225.032L400.647 244.095L385.759 193.041L385.541 192.383L369.996 198.519L355.109 218.458L324.896 185.591L308.914 206.845L310.009 207.502L325.115 187.563L354.671 219.773L355.328 220.211L370.653 199.395L384.884 194.136L400.209 246.724L415.972 225.908L430.86 219.773L430.422 218.677Z" fill="#F9AE40"/>
<path d="M310.008 203.557C311.76 204.434 313.073 206.844 313.073 208.816C313.073 210.788 311.76 211.445 310.008 210.569C308.257 209.693 306.943 207.282 306.943 205.31C306.943 203.338 308.257 202.462 310.008 203.557Z" fill="#FF2978"/>
<path d="M151.72 237.74C151.72 237.74 148.436 238.178 147.342 238.398C146.247 238.617 142.087 239.274 140.774 240.37C139.46 241.465 142.744 241.465 143.839 241.684C144.714 241.903 142.525 242.999 141.211 244.095C139.898 245.19 139.022 246.067 138.365 248.915C137.927 250.887 144.277 255.708 146.028 252.859C147.561 250.011 147.779 250.011 150.626 248.477C154.129 246.505 155.88 244.314 156.975 243.437L151.72 237.74Z" fill="#F4C5A2"/>
<path d="M151.94 235.768L149.312 237.521C149.312 237.521 152.378 242.779 154.786 245.847L157.632 244.094L151.94 235.768Z" fill="#E6E7E8"/>
<path d="M175.147 221.305L151.064 235.986L156.757 244.97L184.342 229.632L191.567 219.333L192.443 189.972L175.147 221.305Z" fill="#0F4463"/>
<path d="M204.044 347.078L193.317 346.421C193.317 346.421 192.222 348.393 188.5 349.269C184.778 350.146 177.335 354.528 178.867 358.253C180.4 361.978 186.53 361.759 190.033 360.225C193.536 358.691 197.914 357.815 197.914 357.815L198.79 359.349L205.796 357.596L206.015 347.736L204.044 347.078Z" fill="#9D4D36"/>
<path d="M210.831 351.68C210.831 351.68 209.298 355.405 207.547 356.719C205.796 358.034 200.979 365.703 202.512 368.113C204.044 370.743 207.328 371.619 209.298 371.181C211.269 370.743 216.085 368.333 217.618 365.046L218.932 362.197C218.932 362.197 219.588 363.293 219.807 363.293C220.026 363.293 224.405 360.883 225.062 360.225C225.062 360.225 224.624 352.556 224.405 349.27L210.831 351.68Z" fill="#9D4D36"/>
<path d="M204.92 251.544H190.47C190.251 251.982 189.813 287.041 190.032 292.738C190.251 298.435 192.003 346.859 192.003 346.859C192.003 346.859 197.914 351.46 206.452 348.831L207.985 288.136L204.92 251.544Z" fill="#072944"/>
<path d="M223.092 247.601C223.092 247.601 223.311 265.568 223.092 271.703C222.873 277.619 224.844 303.256 225.063 303.694C225.282 304.351 225.719 350.585 225.719 350.585C225.719 350.585 219.808 355.843 208.643 353.433C208.643 353.433 205.359 290.766 204.045 280.906C202.95 271.046 201.418 251.106 201.418 251.106L223.092 247.601Z" fill="#07304B"/>
<path d="M217.182 186.467L199.229 187.124L192.224 189.973C192.224 189.973 189.377 195.67 188.064 206.625C186.531 217.581 189.596 250.668 189.596 250.668C196.383 253.954 219.152 253.078 219.152 253.078C223.312 242.341 227.472 193.259 227.472 193.259L217.182 186.467Z" fill="#0B3B56"/>
<path d="M203.828 186.905L197.479 192.164C194.852 207.94 195.07 239.055 195.289 252.202C197.698 252.64 200.106 252.859 202.733 252.859C203.39 219.992 214.337 188.658 214.993 186.248L203.828 186.905Z" fill="#D4D6D8"/>
<path d="M198.353 194.793L199.448 199.833C199.448 199.833 197.04 230.29 196.164 243.218L198.791 248.476L202.075 243.875L202.732 201.586L206.016 195.45C206.016 195.45 202.732 193.04 198.353 194.793Z" fill="#0B3B56"/>
<path d="M202.075 194.355L196.164 196.765L198.572 187.124L201.418 185.152L202.075 194.355Z" fill="#E6E7E8"/>
<path d="M214.336 182.522L200.543 184.494L202.076 194.355L215.43 186.467L214.336 182.522Z" fill="#F4C5A2"/>
<path d="M217.838 173.539C217.838 180.989 212.364 187.124 205.578 187.124C198.791 187.124 194.631 180.989 194.631 173.539C194.631 166.089 198.791 159.954 205.578 159.954C212.364 159.735 217.838 165.87 217.838 173.539Z" fill="#FED4BD"/>
<path d="M206.674 172.443C206.674 172.443 204.922 180.112 208.863 180.112C212.804 180.112 211.271 181.427 212.366 183.18C213.46 184.714 216.307 183.618 218.277 179.893C220.028 176.168 221.999 167.623 219.153 163.46C215.869 159.077 209.52 157.324 205.579 157.763C200.543 158.201 194.194 162.145 193.538 165.651C192.224 172.224 206.674 172.443 206.674 172.443Z" fill="#07304B"/>
<path d="M220.466 250.448L202.951 250.01L202.732 260.089L221.561 262.718L220.466 250.448Z" fill="#0B3B56"/>
<path d="M217.838 260.527C217.838 260.527 215.43 262.718 214.773 263.595C214.116 264.471 211.051 267.539 210.613 269.073C210.175 270.826 212.803 268.854 213.897 268.415C214.773 268.196 216.087 268.854 215.649 270.607C215.211 272.36 212.803 275.427 212.146 277.399C211.27 279.371 219.152 279.371 221.56 276.961C223.968 274.551 225.063 271.921 225.282 268.635C225.501 265.348 224.187 262.718 224.625 261.404L217.838 260.527Z" fill="#F4C5A2"/>
<path d="M215.868 258.557L214.773 262.282L225.939 265.568L227.034 261.624L215.868 258.557Z" fill="#E6E7E8"/>
<path d="M227.252 193.479C227.252 193.479 219.59 194.136 220.684 207.064C221.779 219.991 221.56 228.975 221.56 228.975L215.211 259.432L226.814 262.5C226.814 262.5 234.915 231.385 234.915 230.29C234.915 229.194 232.944 202.681 232.944 202.681C232.944 202.681 232.288 195.889 227.252 193.479Z" fill="#0F4463"/>
<path d="M188.94 243.875L188.721 255.926C188.721 256.803 189.378 257.679 190.253 257.898L195.07 259.213L195.289 251.325L188.94 243.875Z" fill="#0B3B56"/>
<path d="M215.648 184.494L202.074 194.354L207.985 200.27L217.181 186.466L215.648 184.494Z" fill="#E6E7E8"/>
<path d="M143.4 265.567C143.4 265.567 145.59 263.376 146.465 262.719C147.341 262.061 150.406 259.213 151.939 258.774C153.69 258.336 151.501 260.966 151.282 261.842C150.844 262.719 151.72 264.033 153.471 263.595C155.223 263.157 158.288 260.966 160.039 260.308C162.01 259.651 161.791 267.101 159.382 269.292C156.974 271.483 154.347 272.579 151.063 272.798C147.998 273.017 145.371 271.483 144.057 271.921L143.4 265.567Z" fill="#F4C5A2"/>
<path d="M77.0635 393.749C77.0635 393.749 76.6256 395.064 82.099 395.283C87.5723 395.502 93.4835 395.502 94.3592 399.227C95.016 402.952 89.9805 407.115 84.0694 407.992C78.815 408.649 69.8387 408.211 64.8033 407.115C63.9275 406.896 63.2707 406.458 63.0518 405.801C62.8329 404.048 62.6139 400.761 63.7086 397.474C65.2411 392.435 77.0635 393.749 77.0635 393.749Z" fill="#933E31"/>
<path d="M92.1688 397.912C92.1688 397.912 91.7309 399.227 97.2042 399.446C102.678 399.665 108.589 399.665 109.464 403.39C110.121 407.115 105.962 409.963 99.8314 410.621C94.577 411.278 84.2872 411.935 80.1275 411.935C79.2518 411.935 78.595 411.278 78.376 410.621C78.1571 408.868 77.9382 405.581 78.1571 402.294C78.376 397.255 92.1688 397.912 92.1688 397.912Z" fill="#9D4D36"/>
<path d="M64.803 308.075C64.803 308.075 64.1462 352.556 63.7083 358.033C63.2704 363.511 62.1758 396.379 62.1758 396.379C62.1758 396.379 71.371 400.98 78.5957 397.912L82.7555 313.334L64.803 308.075Z" fill="#072944"/>
<path d="M77.7197 310.924V355.623C77.2818 368.77 76.625 402.952 76.625 402.952C87.3527 404.048 93.9207 398.351 93.9207 398.351C93.2639 392.435 93.9207 359.567 93.9207 359.567C96.11 342.476 97.4236 315.087 97.6425 310.047C97.6425 309.609 97.6425 309.171 97.6425 309.171L77.7197 310.924Z" fill="#07304B"/>
<path d="M58.2356 245.189C58.2356 245.189 51.4487 266.444 52.9812 277.618C52.9812 277.618 58.4545 282.22 64.8036 285.288L58.2356 245.189Z" fill="#0F4463"/>
<path d="M97.8631 227.66C96.9873 235.767 91.0761 241.902 84.5082 241.245C77.9402 240.588 73.1237 233.576 73.9994 225.25C74.8751 217.142 80.7863 211.007 87.3543 211.664C93.9223 212.322 98.7388 219.553 97.8631 227.66Z" fill="#FED4BD"/>
<path d="M75.7482 234.672C75.7482 234.672 79.9079 235.767 84.7245 233.138C84.7245 233.138 87.7895 231.166 89.541 227.222C89.541 227.222 93.2628 228.755 94.3575 225.688C95.4522 222.62 100.05 222.839 100.269 219.991C100.269 219.991 98.9551 206.625 84.7245 208.816C84.5055 208.816 63.9258 212.979 75.7482 234.672Z" fill="#F99840"/>
<path d="M74.874 237.082C74.874 237.082 83.6313 236.425 90.4182 241.245C90.4182 241.245 90.8561 242.779 92.3886 243.655C93.7022 244.532 103.773 248.476 103.773 248.476C103.773 248.476 97.424 290.765 100.927 310.047C100.927 310.047 86.2585 321.441 63.4895 310.047C63.4895 310.047 60.2055 257.46 58.6729 245.408C58.2351 245.189 62.1759 240.588 74.874 237.082Z" fill="#0B3B56"/>
<path d="M103.554 248.256L120.631 266.881L144.932 262.279C144.932 262.279 147.779 268.634 146.903 273.454L117.347 280.685L98.0809 263.594C98.0809 263.594 91.5129 250.228 103.554 248.256Z" fill="#0F4463"/>
<path d="M555.652 243.436C555.652 243.436 556.09 240.369 556.309 239.273C556.528 238.177 557.185 234.233 558.28 232.7C559.374 231.385 559.374 234.672 559.593 235.548C559.812 236.425 561.345 237.082 562.439 235.548C563.534 234.233 564.629 230.508 565.504 228.756C566.599 227.003 571.197 233.138 570.54 236.205C569.883 239.492 568.569 241.902 566.161 244.094C563.753 246.066 560.907 246.723 560.031 247.599L555.652 243.436Z" fill="#F4C5A2"/>
<path d="M493.694 401.199C493.694 401.199 493.257 402.514 498.73 402.733C504.203 402.952 510.114 402.952 510.99 406.677C511.647 410.402 506.611 414.566 500.7 415.442C495.446 416.099 486.47 415.661 481.434 414.565C480.558 414.346 479.902 413.908 479.683 413.251C479.464 411.498 479.245 408.211 480.339 404.924C482.091 399.885 493.694 401.199 493.694 401.199Z" fill="#933E31"/>
<path d="M508.8 405.143C508.8 405.143 508.362 406.458 513.835 406.677C519.308 406.896 525.22 406.896 526.095 410.621C526.752 414.346 522.592 417.195 516.462 417.852C511.208 418.509 500.918 419.167 496.758 419.167C495.883 419.167 495.226 418.509 495.007 417.852C494.788 416.099 494.569 412.812 494.788 409.526C495.226 404.486 508.8 405.143 508.8 405.143Z" fill="#9D4D36"/>
<path d="M481.434 315.525C481.434 315.525 480.777 360.006 480.339 365.484C479.901 370.962 478.807 403.829 478.807 403.829C478.807 403.829 488.002 408.43 495.227 405.363L499.386 320.784L481.434 315.525Z" fill="#072944"/>
<path d="M494.569 318.374V363.074C494.131 376.22 493.475 410.402 493.475 410.402C504.202 411.498 510.77 405.801 510.77 405.801C510.114 399.885 510.77 367.018 510.77 367.018C512.96 349.927 514.273 322.537 514.492 317.498C514.492 317.059 514.492 316.621 514.492 316.621L494.569 318.374Z" fill="#07304B"/>
<path d="M475.085 252.639C475.085 252.639 468.298 273.893 469.831 285.068C469.831 285.068 475.304 289.669 481.653 292.737L475.085 252.639Z" fill="#0F4463"/>
<path d="M512.085 232.919C512.085 241.027 506.611 247.6 500.043 247.6C493.475 247.6 488.002 241.027 488.002 232.7C488.002 224.593 493.475 218.02 500.043 218.02C506.83 218.239 512.085 224.812 512.085 232.919Z" fill="#FED4BD"/>
<path d="M491.507 244.313C491.507 244.313 500.264 243.656 507.051 248.477C507.051 248.477 507.489 250.01 509.021 250.887C510.335 251.763 520.406 255.707 520.406 255.707C520.406 255.707 514.057 297.997 517.56 317.279C517.56 317.279 502.891 328.673 480.122 317.279C480.122 317.279 476.838 264.691 475.306 252.64C475.087 252.64 478.809 247.819 491.507 244.313Z" fill="#0B3B56"/>
<path d="M520.186 255.707L537.262 259.651L555.434 241.026C555.434 241.026 561.783 242.998 563.097 248.476L541.422 273.236L514.712 270.826C514.712 270.826 508.363 257.46 520.186 255.707Z" fill="#0F4463"/>
<path d="M504.422 217.361C504.422 217.361 513.836 219.114 513.836 227.002L505.079 229.851C505.079 229.851 506.392 236.424 501.576 238.177C501.576 238.177 500.262 244.093 491.286 243.655C491.286 243.655 477.931 226.126 494.351 218.019C494.351 218.019 498.949 216.485 504.422 217.361Z" fill="#0B3B56"/>
</g>
<defs>
<linearGradient id="paint0_linear" x1="237.427" y1="203.314" x2="467.608" y2="203.314" gradientUnits="userSpaceOnUse">
<stop stop-color="#1C75BC"/>
<stop offset="0.2787" stop-color="#2077BC"/>
<stop offset="0.5411" stop-color="#2B7EBC"/>
<stop offset="0.7962" stop-color="#3E88BC"/>
<stop offset="1" stop-color="#5394BC"/>
</linearGradient>
<clipPath id="clip0">
<rect width="599" height="525" fill="white"/>
</clipPath>
</defs>
</svg>
