<svg width="241" height="63" viewBox="0 0 241 63" fill="none" xmlns="http://www.w3.org/2000/svg">
<g clip-path="url(#clip0)">
<path d="M0 13.5618V49.9847H12.232V4.38477L0 13.5618Z" fill="#FFFEE9"/>
<path d="M22.474 30.3057L12.291 37.9557L19.001 49.9837H34.345L22.474 30.3057Z" fill="#FFFEE9"/>
<path d="M22.4668 30.3058V21.3818H34.3448L22.4668 30.3058Z" fill="#FFFEE9"/>
<path d="M52.6291 3.64391C52.3276 2.93471 51.8931 2.28974 51.3491 1.74388C50.8049 1.19885 50.1595 0.765394 49.4491 0.467882C48.7325 0.154682 47.9582 -0.0047369 47.1761 -0.00010472C46.3716 -0.00939061 45.5742 0.150024 44.8351 0.467882C44.1312 0.760489 43.495 1.19483 42.9661 1.74388C42.4382 2.29574 42.0158 2.93974 41.7201 3.64391C41.4118 4.36488 41.2526 5.14076 41.2521 5.92488C41.2464 6.71575 41.4059 7.49913 41.7201 8.2249C42.0206 8.91728 42.4425 9.55026 42.9661 10.0939C43.495 10.643 44.1312 11.0773 44.8351 11.3699C45.5742 11.6877 46.3717 11.8471 47.1761 11.8379C47.9581 11.8423 48.7324 11.6829 49.4491 11.3699C50.1595 11.0724 50.805 10.6389 51.3491 10.0939C51.8886 9.55615 52.3227 8.92226 52.6291 8.2249C52.9433 7.49911 53.1027 6.71575 53.0971 5.92488C53.0965 5.14077 52.9373 4.3649 52.6291 3.64391Z" fill="#FFFEE9"/>
<path d="M52.2199 15.8911V50.0521H41.3199V31.1031C41.3199 30.4841 41.2989 29.9091 41.2549 29.3851V22.2661L52.2199 15.8911Z" fill="#FFFEE9"/>
<path d="M109.91 28.4217C111.754 29.1691 113.477 30.1869 115.022 31.4417C116.479 32.6283 117.74 34.0372 118.759 35.6167C120.791 38.7968 121.753 42.5438 121.504 46.3097L102.744 38.7657V38.7057C99.137 37.2635 96.0591 34.7507 93.9245 31.5057C92.9106 29.9545 92.1535 28.25 91.6826 26.4577C91.1996 24.6189 91.0412 22.7099 91.2145 20.8167L109.91 28.4217ZM91.1495 36.6487C92.3071 38.8301 93.8133 40.8079 95.6086 42.5037C97.2076 44.0328 98.9271 45.4306 100.751 46.6837C102.633 47.9737 104.636 49.0788 106.731 49.9837H91.1495V36.6487ZM120.568 29.9167C119.39 27.7595 117.851 25.8198 116.019 24.1817C114.391 22.7226 112.638 21.4086 110.782 20.2547C108.834 19.0745 106.794 18.0532 104.682 17.2007H120.573L120.568 29.9167Z" fill="#FFFEE9"/>
<path d="M154.712 45.9321C156.032 45.9485 157.349 45.8028 158.634 45.4981C156.893 47.1024 154.878 48.3802 152.684 49.2701C150.359 50.2148 147.87 50.6906 145.36 50.6701C142.877 50.6876 140.413 50.2328 138.1 49.3301C135.914 48.4865 133.905 47.2392 132.18 45.6531C130.501 44.1053 129.145 42.2409 128.189 40.1671C127.213 38.0691 126.712 35.7811 126.724 33.4671C126.709 31.2649 127.132 29.0817 127.97 27.0451C128.773 25.0984 129.925 23.315 131.37 21.7831C132.821 20.2541 134.543 19.0077 136.449 18.1071C138.402 17.1716 140.52 16.6316 142.682 16.5181C141.169 18.2171 140.024 20.2105 139.318 22.3731C138.58 24.7329 138.222 27.1949 138.257 29.6671C138.229 31.9336 138.664 34.1821 139.537 36.2741C140.346 38.2092 141.541 39.9592 143.049 41.4171C144.562 42.8576 146.341 43.99 148.286 44.7511C150.333 45.5504 152.514 45.9513 154.712 45.9321Z" fill="#FFFEE9"/>
<path d="M158.635 16.6411V30.1661L145.235 16.9521L158.635 16.6411Z" fill="#FFFEE9"/>
<path d="M84.5166 29.4307C84.7166 29.7307 84.8906 29.9806 85.0166 30.1646H85.2616L84.5166 29.4307Z" fill="#FFFEE9"/>
<path d="M87.0768 49.2347C85.4138 49.5347 83.7518 49.7547 82.0888 49.9177C80.5258 50.049 78.9567 50.0934 77.3888 50.0507C75.7798 50.0152 74.1794 49.805 72.6158 49.4237C71.1258 49.0326 69.7351 48.3314 68.5348 47.3657C67.2425 46.3405 66.1276 45.1098 65.2348 43.7227C64.2795 42.2432 63.5334 40.6387 63.0178 38.9547C62.4842 37.2179 62.2145 35.4107 62.2178 33.5937V11.8387L73.1248 3.4917V16.6367H85.2738V30.1647L84.5268 29.4307L73.1268 18.1927V34.4617C73.1091 35.8054 73.3094 37.1431 73.7198 38.4227C74.0954 39.5726 74.6303 40.6642 75.3088 41.6657C75.9467 42.6144 76.6983 43.4816 77.5468 44.2477C78.3399 44.9693 79.1967 45.6177 80.1068 46.1847C82.2533 47.5654 84.6061 48.595 87.0768 49.2347Z" fill="#FFFEE9"/>
<path d="M198.449 27.4252C197.896 25.8159 197.098 24.3017 196.082 22.9362C195.112 21.6307 193.946 20.4837 192.624 19.5362C191.376 18.6302 189.97 17.9645 188.478 17.5732C188.389 17.5333 188.293 17.5128 188.195 17.5132C188.098 17.5154 188.002 17.4934 187.916 17.4492V50.0492H199.322V32.6572C199.327 30.8766 199.032 29.1078 198.449 27.4252Z" fill="#FFFEE9"/>
<path d="M176.697 1.87207V50.0491H165.788V8.21106L176.697 1.87207Z" fill="#FFFEE9"/>
<path d="M213.647 17.1411H201.116L220.568 49.9831L227.046 39.8831L213.647 17.1411Z" fill="#FFFEE9"/>
<path d="M240.883 17.1411C239.968 18.4301 238.988 19.8181 237.953 21.3171C236.918 22.8161 235.938 24.2251 235.023 25.5531C233.945 27.0951 232.91 28.6291 231.909 30.1671L223.925 17.1411H240.883Z" fill="#FFFEE9"/>
<path d="M218.197 52.939C217.505 53.914 216.766 54.958 215.989 56.088C215.212 57.218 214.468 58.279 213.777 59.288C212.965 60.448 212.183 61.604 211.431 62.768L205.412 52.943L218.197 52.939Z" fill="#FFFEE9"/>
<path d="M240.883 17.1411L231.909 30.1661C232.909 28.6281 233.945 27.0941 235.023 25.5521C235.938 24.2248 236.915 22.8128 237.953 21.3161C238.989 19.8171 239.968 18.4301 240.883 17.1411Z" fill="#FFFEE9"/>
</g>
<defs>
<clipPath id="clip0">
<rect width="240.883" height="62.763" fill="white"/>
</clipPath>
</defs>
</svg>
