<svg width="20" height="20" viewBox="0 0 20 20" fill="none" xmlns="http://www.w3.org/2000/svg">
<path d="M14.0236 12.8333C13.6793 13.8032 12.7526 14.5001 11.666 14.5001H8.33245C7.24602 14.5001 6.31915 13.8034 5.97562 12.8333H1.66602V16.999C1.66602 17.9196 2.41204 18.6658 3.33245 18.6658L16.6659 18.6665C17.5865 18.6665 18.3324 17.9204 18.3324 17V12.8333L14.0236 12.8333Z" fill="white"/>
<path d="M16.6669 5.3325H15.0001V3.66643C15.0001 2.74585 14.2548 2 13.3333 2H6.66679C5.74621 2 5 2.74603 5 3.66643V5.3325H3.33321C1.49259 5.3325 0 6.82492 0 8.66572V11.1664H7.5V12C7.5 12.4605 7.87266 12.8332 8.33321 12.8332H11.6668C12.1273 12.8332 12.5 12.4606 12.5 12V11.1664H20V8.66572C20 6.82492 18.5074 5.3325 16.6668 5.3325H16.6669ZM6.66687 5.3325V3.66643H13.3334V5.3325H6.66687Z" fill="white"/>
</svg>
