<svg width="15" height="15" viewBox="0 0 15 15" fill="none" xmlns="http://www.w3.org/2000/svg">
<g clip-path="url(#clip0_54_457)">
<path d="M1.84448 11.4738C2.7396 11.0669 3.71609 10.7956 4.74684 10.6058C4.55696 9.73777 4.44846 8.84265 4.42134 7.92041H0C0.0813743 9.3309 0.542496 10.6058 1.30199 11.6908L1.84448 11.4738Z" fill="white"/>
<path d="M2.19659 12.3421L1.87109 12.4777C3.06458 13.8339 4.74632 14.729 6.61793 14.946L6.53656 14.8375C5.85844 13.9153 5.31594 12.7761 4.96332 11.5283C3.9597 11.6911 3.03746 11.9623 2.19659 12.3421Z" fill="white"/>
<path d="M4.93597 3.47197C5.26147 2.30561 5.74972 1.22061 6.37359 0.325497L6.61771 0C4.71897 0.216998 3.06436 1.13924 1.84375 2.49548L2.14212 2.6311C3.01011 3.01085 3.95948 3.30922 4.93597 3.47197Z" fill="white"/>
<path d="M4.71971 4.367C3.66184 4.17712 2.68535 3.87875 1.76311 3.47188L1.27486 3.25488C0.542496 4.33987 0.0813743 5.64186 0 7.02523H4.42134C4.44846 6.10298 4.52984 5.20787 4.71971 4.367Z" fill="white"/>
<path d="M13.019 12.5588L12.8291 12.4232C11.9068 11.9892 10.8761 11.6908 9.79111 11.501C9.43849 12.7487 8.89599 13.888 8.21787 14.8102L8.10938 14.9729C10.0624 14.8102 11.7712 13.9151 13.019 12.5588Z" fill="white"/>
<path d="M12.8564 2.54973L13.0734 2.44123C11.8257 1.05787 10.0897 0.162749 8.13672 0L8.38084 0.352622C9.00471 1.24774 9.46583 2.33273 9.81845 3.49909C10.9034 3.30922 11.9342 2.98372 12.8564 2.54973Z" fill="white"/>
<path d="M5.31641 6.99841H9.41224C9.38512 6.13041 9.27662 5.28955 9.11387 4.50293C8.54425 4.55718 7.97463 4.61143 7.40501 4.61143C6.80827 4.61143 6.21152 4.5843 5.6419 4.50293C5.45203 5.28955 5.34353 6.15754 5.31641 6.99841Z" fill="white"/>
<path d="M13.6427 3.14648L13.263 3.36348C12.2865 3.8246 11.1744 4.17722 10.0352 4.3671C10.225 5.20797 10.3064 6.10308 10.3335 6.9982H14.999C14.9176 5.58771 14.4294 4.2586 13.6427 3.14648Z" fill="white"/>
<path d="M13.2919 11.6362L13.6174 11.8532C14.4311 10.7411 14.9194 9.38488 15.0007 7.94727H10.3353C10.3081 8.86951 10.1996 9.76463 10.0098 10.6326C11.1761 10.8225 12.2611 11.1751 13.2376 11.6362H13.2919Z" fill="white"/>
<path d="M7.37836 0.515137L7.10711 0.867759C6.56462 1.62725 6.15775 2.57662 5.85938 3.60736C6.37475 3.66161 6.89012 3.68873 7.40549 3.68873C7.92086 3.68873 8.4091 3.66161 8.89735 3.60736C8.59898 2.57662 8.16498 1.62725 7.62248 0.840634L7.37836 0.515137Z" fill="white"/>
<path d="M7.37858 14.4309L7.48708 14.2952C8.08382 13.4815 8.54494 12.4779 8.87044 11.3929C8.38219 11.3386 7.89395 11.3115 7.4057 11.3115C6.89033 11.3115 6.37496 11.3386 5.88672 11.3929C6.21222 12.4779 6.67334 13.4815 7.27008 14.2681L7.37858 14.4309Z" fill="white"/>
<path d="M7.40501 10.3885C7.97463 10.3885 8.54425 10.4156 9.11387 10.497C9.30374 9.68325 9.38512 8.81526 9.41224 7.94727H5.31641C5.34353 8.84238 5.45203 9.68325 5.61478 10.497C6.21152 10.4156 6.80827 10.3885 7.40501 10.3885Z" fill="white"/>
</g>
<defs>
<clipPath id="clip0_54_457">
<rect width="15" height="15" fill="white"/>
</clipPath>
</defs>
</svg>
