<svg width="20" height="20" viewBox="0 0 20 20" fill="none" xmlns="http://www.w3.org/2000/svg">
<path d="M13.7903 2.00025H6.27035C5.14335 1.99769 4.06122 2.44177 3.26093 3.23519C2.4606 4.02861 2.00714 5.10684 2 6.23374V17.128C2.00748 17.3612 2.10525 17.5827 2.27266 17.7452C2.44007 17.908 2.66417 17.9993 2.89754 17.9999H13.7903C14.9119 17.9974 15.9862 17.5485 16.776 16.7523C17.5659 15.9561 18.0063 14.8782 17.9999 13.7569V6.23692C18.0076 5.11561 17.5674 4.03759 16.777 3.24208C15.9867 2.44665 14.9116 1.99957 13.7902 2L13.7903 2.00025ZM11.0511 13.3939H5.15204C5.01286 13.3673 4.89423 13.2773 4.83118 13.1504C4.76824 13.0236 4.76824 12.8746 4.83118 12.7477C4.89424 12.6208 5.01288 12.5307 5.15204 12.5043H11.0511C11.1902 12.5307 11.309 12.6208 11.3719 12.7477C11.435 12.8746 11.435 13.0236 11.3719 13.1504C11.309 13.2773 11.1902 13.3673 11.0511 13.3939ZM14.9214 10.8899H5.14375C5.00469 10.8633 4.88594 10.7733 4.82298 10.6465C4.75993 10.5196 4.75993 10.3706 4.82298 10.2437C4.88593 10.1169 5.00468 10.0267 5.14375 10.0003H14.9214C15.0605 10.0267 15.1792 10.1169 15.2422 10.2437C15.3051 10.3706 15.3051 10.5196 15.2422 10.6465C15.1792 10.7733 15.0605 10.8633 14.9214 10.8899ZM14.9214 8.38433H5.14375C5.03717 8.37217 4.93951 8.31893 4.87166 8.23578C4.8038 8.15275 4.7711 8.04639 4.78059 7.93947C4.7711 7.83266 4.8038 7.7263 4.87166 7.64316C4.93951 7.56013 5.03717 7.50678 5.14375 7.49472H14.9214C15.0271 7.508 15.1235 7.56169 15.1904 7.64472C15.2572 7.72764 15.2893 7.83334 15.2798 7.93946C15.2893 8.0456 15.2572 8.15129 15.1904 8.23432C15.1235 8.31724 15.0271 8.37104 14.9214 8.38432V8.38433ZM14.9214 5.87877L5.14375 5.87866C5.03717 5.86661 4.93951 5.81337 4.87166 5.73023C4.8038 5.64708 4.7711 5.54083 4.78059 5.43391C4.7711 5.32711 4.8038 5.22075 4.87166 5.1376C4.93951 5.05457 5.03717 5.00122 5.14375 4.98917H14.9214C15.0271 5.00234 15.1235 5.05613 15.1904 5.13916C15.2572 5.22209 15.2893 5.32778 15.2798 5.43391C15.2893 5.54004 15.2572 5.64574 15.1904 5.72865C15.1235 5.81168 15.0271 5.86548 14.9214 5.87865V5.87877Z" fill="white"/>
</svg>
