<svg width="20" height="20" viewBox="0 0 20 20" fill="none" xmlns="http://www.w3.org/2000/svg">
<path d="M18.32 4.1619C18.1163 4.06068 17.8882 4.01918 17.6619 4.04205C17.4356 4.06506 17.2203 4.15145 17.041 4.2915L14.1429 6.54192V5.21436C14.1429 4.89235 14.015 4.58347 13.7872 4.35575C13.5595 4.12804 13.2506 4 12.9286 4H3.21421C2.8922 4 2.58332 4.12804 2.35561 4.35575C2.1279 4.58346 2 4.89236 2 5.21436V13.3097C2 13.6317 2.1279 13.9406 2.35561 14.1683C2.58332 14.396 2.89221 14.524 3.21421 14.524H12.9286C13.2506 14.524 13.5594 14.396 13.7872 14.1683C14.015 13.9406 14.1429 13.6317 14.1429 13.3097V11.9821L17.041 14.2326V14.2325C17.2532 14.3999 17.5155 14.4911 17.7858 14.4915C17.9717 14.492 18.155 14.4475 18.32 14.3621C18.5244 14.2641 18.6968 14.1101 18.817 13.9181C18.9375 13.7261 19.0008 13.5039 19 13.2774V5.24675C19.0008 5.02017 18.9375 4.79796 18.817 4.60599C18.6968 4.414 18.5244 4.25998 18.32 4.16201L18.32 4.1619Z" fill="white"/>
</svg>
