<svg width="20" height="20" viewBox="0 0 20 20" fill="none" xmlns="http://www.w3.org/2000/svg">
<path d="M11.4544 2L13.699 4.24457C11.5571 6.38649 7.01124 10.9329 6.7893 11.1543C6.22127 11.7223 6.22127 12.643 6.7893 13.2112C7.35733 13.7792 8.2781 13.7792 8.84622 13.2112C9.06734 12.9893 13.6132 8.44356 15.7559 6.30148L18.0005 8.54605V2.00012L11.4544 2Z" fill="white"/>
<path d="M15.819 10.7285C15.4169 10.7285 15.0917 11.0536 15.0917 11.4558V16.547H3.45469V4.90989H8.54584C8.94729 4.90989 9.27312 4.58477 9.27312 4.18261C9.27312 3.78044 8.94729 3.45532 8.54584 3.45532H3.45469C2.65166 3.45532 2 4.10627 2 4.91001V16.5471C2 17.3509 2.65166 18.0018 3.45469 18.0018H15.0917C15.8948 18.0018 16.5464 17.3509 16.5464 16.5471V11.4559C16.5463 11.0536 16.2212 10.7285 15.819 10.7285Z" fill="white"/>
</svg>
