<svg width="18" height="17" viewBox="0 0 18 17" fill="none" xmlns="http://www.w3.org/2000/svg">
<g clip-path="url(#clip0_144_916)">
<path d="M17.9473 3.22894C17.3151 3.50625 16.6415 3.69006 15.9391 3.77931C16.6616 3.34794 17.2131 2.67006 17.4723 1.853C16.7987 2.25462 16.055 2.53831 15.2623 2.69663C14.6227 2.01556 13.7111 1.59375 12.7166 1.59375C10.7871 1.59375 9.2337 3.15988 9.2337 5.07981C9.2337 5.35606 9.25708 5.62169 9.31445 5.87456C6.41702 5.73325 3.8532 4.34456 2.13089 2.22913C1.8302 2.75081 1.65383 3.34794 1.65383 3.99075C1.65383 5.19775 2.27539 6.26769 3.20189 6.88713C2.64195 6.8765 2.09264 6.71394 1.62727 6.45788C1.62727 6.4685 1.62727 6.48231 1.62727 6.49612C1.62727 8.18975 2.83533 9.5965 4.41952 9.92056C4.13583 9.99813 3.82664 10.0353 3.50577 10.0353C3.28264 10.0353 3.05739 10.0226 2.84595 9.97581C3.29752 11.356 4.57889 12.3707 6.10252 12.4036C4.91677 13.3312 3.4112 13.8901 1.78133 13.8901C1.49552 13.8901 1.22139 13.8773 0.947266 13.8422C2.49108 14.8378 4.3207 15.4062 6.29377 15.4062C12.707 15.4062 16.2133 10.0938 16.2133 5.48887C16.2133 5.33481 16.208 5.18606 16.2005 5.03838C16.8922 4.5475 17.4734 3.93444 17.9473 3.22894Z" fill="white"/>
</g>
<defs>
<clipPath id="clip0_144_916">
<rect width="17" height="17" fill="white" transform="translate(0.947266)"/>
</clipPath>
</defs>
</svg>
