<svg width="18" height="16" viewBox="0 0 18 16" fill="none" xmlns="http://www.w3.org/2000/svg">
<path d="M15.525 6.58824C16.1553 6.5882 16.7618 6.83962 17.2209 7.29119C17.6799 7.74277 17.957 8.36049 17.9955 9.01835L18 9.17647V15.2941C17.9999 15.473 17.935 15.6451 17.8182 15.7758C17.7015 15.9065 17.5416 15.986 17.371 15.9981C17.2004 16.0103 17.0317 15.9543 16.899 15.8415C16.7664 15.7286 16.6796 15.5673 16.6563 15.3901L16.65 15.2941V13.1765H1.35V15.2941C1.34999 15.4647 1.29092 15.6295 1.18371 15.7581C1.0765 15.8866 0.928398 15.9702 0.7668 15.9934L0.675 16C0.511886 16 0.354292 15.9382 0.231362 15.8261C0.108433 15.714 0.0284835 15.5591 0.00629998 15.3901L3.04972e-09 15.2941V9.17647C-3.12653e-05 8.51738 0.240383 7.8831 0.672204 7.40301C1.10402 6.92293 1.69472 6.63321 2.3238 6.59294L2.475 6.58824H15.525ZM4.275 3.18922e-09H13.725C14.3553 -3.26958e-05 14.9618 0.251381 15.4209 0.702958C15.8799 1.15454 16.157 1.77226 16.1955 2.43012L16.2 2.58824V5.64706H13.5L13.4937 5.53694C13.47 5.32686 13.3793 5.13124 13.2363 4.98166C13.0933 4.83208 12.9062 4.73725 12.7053 4.71247L12.6 4.70588H10.8C10.5796 4.70591 10.3668 4.79055 10.2021 4.94373C10.0373 5.09692 9.93209 5.308 9.9063 5.53694L9.9 5.64706H8.1L8.0937 5.53694C8.07001 5.32686 7.97933 5.13124 7.83629 4.98166C7.69325 4.83208 7.50619 4.73725 7.3053 4.71247L7.2 4.70588H5.4C5.17956 4.70591 4.9668 4.79055 4.80206 4.94373C4.63733 5.09692 4.53209 5.308 4.5063 5.53694L4.5 5.64706H1.8V2.58824C1.79997 1.92914 2.04038 1.29486 2.4722 0.814779C2.90402 0.334694 3.49472 0.0449706 4.1238 0.00470599L4.275 3.18922e-09Z" fill="#007F8F"/>
</svg>
