<svg width="23" height="16" viewBox="0 0 23 16" fill="none" xmlns="http://www.w3.org/2000/svg">
<path d="M5.75011 14.0455H5.13807L4.79554 14.0398L4.4081 14.0227L4.04873 13.9943L3.67813 13.9432L3.36369 13.8636L3.0717 13.7614L2.87517 13.625V15.2727C2.87517 15.4924 2.94442 15.6686 3.08293 15.8011C3.22144 15.9337 3.39176 16 3.59391 16H5.03138C5.23352 16 5.40385 15.9337 5.54235 15.8011C5.68086 15.6686 5.75011 15.4924 5.75011 15.2727V14.0455ZM17.2499 14.0455H17.8619L18.2045 14.0398L18.5919 14.0227L18.9513 13.9943L19.3219 13.9432L19.6363 13.8636L19.9283 13.7614L20.1248 13.625V15.2727C20.1248 15.4924 20.0556 15.6686 19.9171 15.8011C19.7786 15.9337 19.6082 16 19.4061 16H17.9686C17.7665 16 17.5961 15.9337 17.4576 15.8011C17.3191 15.6686 17.2499 15.4924 17.2499 15.2727V14.0455ZM2.16767 4.35227C1.43396 4.35227 0.887418 4.51515 0.528051 4.84091C0.168683 5.16667 -0.00725764 5.61364 0.000229189 6.18182C0.00771602 6.83333 0.144351 7.32955 0.410133 7.67045C0.675915 8.01136 1.01844 8.18182 1.4377 8.18182C1.4377 8.54545 1.44144 8.8447 1.44893 9.07955C1.45642 9.31439 1.47139 9.58902 1.49385 9.90341C1.51631 10.2178 1.55187 10.4773 1.60054 10.6818C1.6492 10.8864 1.71471 11.1117 1.79707 11.358C1.87942 11.6042 1.98237 11.803 2.1059 11.9545C2.22943 12.1061 2.38104 12.2614 2.56072 12.4205C2.74041 12.5795 2.9463 12.7027 3.17839 12.7898C3.41048 12.8769 3.68188 12.9489 3.99258 13.0057C4.30328 13.0625 4.64955 13.0909 5.03138 13.0909H17.9686C18.3504 13.0909 18.6967 13.0625 19.0074 13.0057C19.3181 12.9489 19.5895 12.8769 19.8216 12.7898C20.0537 12.7027 20.2596 12.5795 20.4393 12.4205C20.619 12.2614 20.7706 12.1061 20.8941 11.9545C21.0176 11.803 21.1206 11.6042 21.2029 11.358C21.2853 11.1117 21.3508 10.8864 21.3995 10.6818C21.4481 10.4773 21.4837 10.2178 21.5061 9.90341C21.5286 9.58902 21.5436 9.31439 21.5511 9.07955C21.5586 8.8447 21.5623 8.54545 21.5623 8.18182C21.9816 8.18182 22.3241 8.01136 22.5899 7.67045C22.8556 7.32955 22.9923 6.83333 22.9998 6.18182C23.0073 5.61364 22.8351 5.16667 22.4832 4.84091C22.1313 4.51515 21.5885 4.35227 20.8548 4.35227C20.4879 4.35227 20.1435 4.48485 19.8216 4.75C19.4997 5.01515 19.2208 5.36932 18.985 5.8125C18.7491 6.25568 18.5488 6.72159 18.3841 7.21023C18.2194 7.69886 18.0847 8.20833 17.9798 8.73864C15.9884 7.73106 13.8303 7.22727 11.5056 7.22727C9.18095 7.22727 7.02287 7.73106 5.03138 8.73864C4.92656 8.20076 4.7918 7.68939 4.62709 7.20455C4.46238 6.7197 4.26398 6.25568 4.03189 5.8125C3.79979 5.36932 3.52278 5.01515 3.20085 4.75C2.87891 4.48485 2.53452 4.35227 2.16767 4.35227ZM5.75011 0C5.27096 0 4.85544 0.0284091 4.50356 0.0852273C4.15168 0.142045 3.85033 0.238636 3.59952 0.375C3.34871 0.511364 3.14283 0.662879 2.98186 0.829545C2.82089 0.996212 2.68613 1.21591 2.57757 1.48864C2.46901 1.76136 2.38853 2.03409 2.33612 2.30682C2.28371 2.57955 2.23505 2.92045 2.19013 3.32955C2.47463 3.36742 2.73667 3.42803 2.97624 3.51136C3.21582 3.5947 3.42171 3.68371 3.59391 3.77841C3.7661 3.87311 3.93269 4.01136 4.09365 4.19318C4.25462 4.375 4.3819 4.52841 4.47548 4.65341C4.56907 4.77841 4.67575 4.97159 4.79554 5.23295C4.91533 5.49432 5.0033 5.69886 5.05945 5.84659C5.1156 5.99432 5.2017 6.23106 5.31775 6.55682C5.43379 6.88258 5.52177 7.125 5.58166 7.28409C7.40845 6.58712 9.3831 6.23864 11.5056 6.23864C13.6281 6.23864 15.6028 6.58712 17.4296 7.28409C17.4895 7.13258 17.5625 6.93561 17.6486 6.69318C17.7347 6.45076 17.8039 6.25947 17.8563 6.11932C17.9087 5.97917 17.9761 5.80682 18.0585 5.60227C18.1408 5.39773 18.2157 5.23295 18.2831 5.10795C18.3504 4.98295 18.4365 4.83712 18.5414 4.67045C18.6462 4.50379 18.7491 4.36932 18.8502 4.26705C18.9513 4.16477 19.0711 4.05492 19.2096 3.9375C19.3481 3.82008 19.4959 3.72538 19.6532 3.65341C19.8104 3.58144 19.9882 3.51705 20.1866 3.46023C20.385 3.40341 20.6002 3.35985 20.8323 3.32955C20.7799 2.8447 20.7163 2.44318 20.6414 2.125C20.5665 1.80682 20.4505 1.5 20.2933 1.20455C20.1361 0.909091 19.932 0.681818 19.6812 0.522727C19.4304 0.363636 19.1047 0.236742 18.7042 0.142045C18.3037 0.0473485 17.8189 0 17.2499 0H5.75011Z" fill="#007F8F"/>
</svg>
