<svg width="10" height="16" viewBox="0 0 10 16" fill="none" xmlns="http://www.w3.org/2000/svg">
<path d="M5.41667 0.666667C5.41667 0.489856 5.35082 0.320286 5.23361 0.195262C5.1164 0.0702379 4.95743 1.98682e-08 4.79167 1.98682e-08C4.62591 1.98682e-08 4.46694 0.0702379 4.34973 0.195262C4.23251 0.320286 4.16667 0.489856 4.16667 0.666667V4.88889C4.16667 5.00676 4.12277 5.11981 4.04463 5.20316C3.96649 5.28651 3.86051 5.33333 3.75 5.33333C3.63949 5.33333 3.53351 5.28651 3.45537 5.20316C3.37723 5.11981 3.33333 5.00676 3.33333 4.88889V0.666667C3.33333 0.579119 3.31717 0.492428 3.28576 0.411544C3.25435 0.330661 3.20831 0.257168 3.15027 0.195262C3.09224 0.133356 3.02334 0.0842501 2.94751 0.050747C2.87168 0.0172438 2.79041 0 2.70833 0C2.62626 0 2.54498 0.0172438 2.46916 0.050747C2.39333 0.0842501 2.32443 0.133356 2.26639 0.195262C2.20835 0.257168 2.16232 0.330661 2.13091 0.411544C2.0995 0.492428 2.08333 0.579119 2.08333 0.666667V4.88889C2.08333 5.00676 2.03943 5.11981 1.96129 5.20316C1.88315 5.28651 1.77717 5.33333 1.66667 5.33333C1.55616 5.33333 1.45018 5.28651 1.37204 5.20316C1.2939 5.11981 1.25 5.00676 1.25 4.88889V0.666667C1.25 0.489856 1.18415 0.320286 1.06694 0.195262C0.949732 0.0702379 0.79076 1.98682e-08 0.625 1.98682e-08C0.45924 1.98682e-08 0.300268 0.0702379 0.183058 0.195262C0.0658479 0.320286 0 0.489856 0 0.666667V4.66667C0 4.72311 0.00875005 4.77733 0.02125 4.82978C0.00875005 4.92178 0 5.01511 0 5.11111C0 6.14044 0.729167 7.75867 1.66667 7.97422V14.8889C1.66667 15.1836 1.77641 15.4662 1.97176 15.6746C2.16711 15.8829 2.43207 16 2.70833 16C2.9846 16 3.24955 15.8829 3.4449 15.6746C3.64025 15.4662 3.75 15.1836 3.75 14.8889V7.97422C4.6875 7.75867 5.41667 6.14044 5.41667 5.11111C5.41667 5.01511 5.40792 4.92178 5.39542 4.82978C5.40792 4.77733 5.41667 4.72311 5.41667 4.66667V0.666667ZM8.95833 1.98682e-08C8.915 1.98682e-08 8.87333 0.00844446 8.83083 0.0137778C8.80417 0.00933335 8.77792 1.98682e-08 8.75 1.98682e-08C7.82958 1.98682e-08 6.66667 2.43422 6.66667 4.88889C6.66667 6.95911 7.19792 8.69333 7.91667 9.18756V14.8889C7.91667 15.1836 8.02641 15.4662 8.22176 15.6746C8.41711 15.8829 8.68207 16 8.95833 16C9.2346 16 9.49955 15.8829 9.6949 15.6746C9.89025 15.4662 10 15.1836 10 14.8889V1.11111C10 0.816426 9.89025 0.533811 9.6949 0.325437C9.49955 0.117063 9.2346 1.98682e-08 8.95833 1.98682e-08Z" fill="#007F8F"/>
</svg>
