<svg width="40" height="40" viewBox="0 0 40 40" fill="none" xmlns="http://www.w3.org/2000/svg">
<circle cx="20" cy="20" r="20" fill="#00B3CA"/>
<path d="M29 25.697C29 26.021 28.9279 26.354 28.7747 26.678C28.6214 27.002 28.4231 27.308 28.1617 27.596C27.7201 28.082 27.2334 28.433 26.6835 28.658C26.1427 28.883 25.5568 29 24.9259 29C24.0065 29 23.024 28.784 21.9875 28.343C20.9509 27.902 19.9144 27.308 18.8868 26.561C17.8503 25.805 16.8678 24.968 15.9304 24.041C15.002 23.105 14.1637 22.124 13.4156 21.098C12.6765 20.072 12.0816 19.046 11.649 18.029C11.2163 17.003 11 16.022 11 15.086C11 14.474 11.1082 13.889 11.3245 13.349C11.5408 12.8 11.8833 12.296 12.361 11.846C12.9379 11.279 13.5689 11 14.2359 11C14.4882 11 14.7406 11.054 14.9659 11.162C15.2003 11.27 15.4076 11.432 15.5699 11.666L17.661 14.609C17.8232 14.834 17.9404 15.041 18.0215 15.239C18.1027 15.428 18.1477 15.617 18.1477 15.788C18.1477 16.004 18.0846 16.22 17.9584 16.427C17.8413 16.634 17.67 16.85 17.4537 17.066L16.7687 17.777C16.6695 17.876 16.6244 17.993 16.6244 18.137C16.6244 18.209 16.6335 18.272 16.6515 18.344C16.6785 18.416 16.7056 18.47 16.7236 18.524C16.8858 18.821 17.1652 19.208 17.5618 19.676C17.9675 20.144 18.4001 20.621 18.8688 21.098C19.3555 21.575 19.8242 22.016 20.302 22.421C20.7707 22.817 21.1582 23.087 21.4647 23.249C21.5098 23.267 21.5638 23.294 21.6269 23.321C21.699 23.348 21.7712 23.357 21.8523 23.357C22.0055 23.357 22.1227 23.303 22.2218 23.204L22.9069 22.529C23.1322 22.304 23.3485 22.133 23.5558 22.025C23.7631 21.899 23.9705 21.836 24.1958 21.836C24.3671 21.836 24.5473 21.872 24.7456 21.953C24.9439 22.034 25.1512 22.151 25.3766 22.304L28.36 24.419C28.5944 24.581 28.7566 24.77 28.8558 24.995C28.9459 25.22 29 25.445 29 25.697Z" fill="white"/>
</svg>
