<svg width="40" height="40" viewBox="0 0 40 40" fill="none" xmlns="http://www.w3.org/2000/svg">
<circle cx="20" cy="20" r="20" fill="#CC362B"/>
<path d="M24.5 13H15.5C12.8 13 11 14.3235 11 17.4118V23.5882C11 26.6765 12.8 28 15.5 28H24.5C27.2 28 29 26.6765 29 23.5882V17.4118C29 14.3235 27.2 13 24.5 13ZM24.923 18.3735L22.106 20.5794C21.512 21.0471 20.756 21.2765 20 21.2765C19.244 21.2765 18.479 21.0471 17.894 20.5794L15.077 18.3735C14.789 18.1441 14.744 17.7206 14.969 17.4382C15.203 17.1559 15.626 17.1029 15.914 17.3324L18.731 19.5382C19.415 20.0765 20.576 20.0765 21.26 19.5382L24.077 17.3324C24.365 17.1029 24.797 17.1471 25.022 17.4382C25.256 17.7206 25.211 18.1441 24.923 18.3735Z" fill="white"/>
</svg>
