<svg width="40" height="40" viewBox="0 0 40 40" fill="none" xmlns="http://www.w3.org/2000/svg">
<circle cx="20" cy="20" r="20" fill="#22C661"/>
<path d="M24.122 21.7871C23.8964 21.6729 22.7979 21.1368 22.5926 21.0603C22.3872 20.9872 22.2382 20.9489 22.0886 21.1745C21.9423 21.3944 21.5114 21.8979 21.3798 22.0447C21.2482 22.1915 21.1188 22.2028 20.8966 22.1032C20.6711 21.989 19.9505 21.7544 19.0949 20.9872C18.4267 20.3926 17.9818 19.6602 17.8496 19.4347C17.7179 19.2119 17.8349 19.0859 17.9463 18.9746C18.0487 18.8722 18.1719 18.7169 18.2861 18.5819C18.3946 18.4469 18.4295 18.3564 18.5088 18.2101C18.5819 18.0521 18.5443 17.9289 18.4886 17.8175C18.4329 17.7061 17.9846 16.6019 17.7972 16.1621C17.6184 15.7256 17.4311 15.7812 17.2933 15.7812C17.1644 15.7694 17.0148 15.7694 16.8658 15.7694C16.7167 15.7694 16.4731 15.8251 16.2678 16.0389C16.0625 16.2644 15.4826 16.8033 15.4826 17.8934C15.4826 18.9864 16.2852 20.0439 16.3966 20.2019C16.5108 20.3482 17.9756 22.5982 20.2227 23.5651C20.7588 23.7907 21.1751 23.9257 21.5002 24.0371C22.0363 24.2069 22.5256 24.1833 22.9121 24.1276C23.3396 24.0573 24.2362 23.5854 24.4241 23.0583C24.6147 22.5279 24.6147 22.0886 24.5591 21.989C24.5034 21.8866 24.3571 21.8309 24.1316 21.7314L24.122 21.7871ZM20.0349 27.3125C18.7046 27.3125 17.3894 26.9519 16.2408 26.2781L15.9714 26.1172L13.1589 26.8496L13.9149 24.113L13.7332 23.8317C12.9904 22.6507 12.5963 21.2838 12.5964 19.8886C12.5964 15.8049 15.9393 12.4737 20.0523 12.4737C22.0447 12.4737 23.9139 13.25 25.3201 14.6562C26.0138 15.3417 26.5641 16.1585 26.9388 17.0588C27.3135 17.9592 27.5052 18.9252 27.5026 19.9004C27.497 23.9814 24.1569 27.3125 20.0495 27.3125H20.0349ZM26.3894 13.5869C24.6783 11.9343 22.4283 11 20.0349 11C15.0984 11 11.0787 15.0022 11.0759 19.9207C11.0759 21.4912 11.486 23.0234 12.2713 24.3796L11 29L15.752 27.7608C17.0684 28.4706 18.5399 28.8439 20.0354 28.8476H20.0382C24.9776 28.8476 28.9972 24.8454 29 19.9235C29 17.5419 28.0713 15.3003 26.3782 13.6156L26.3894 13.5869Z" fill="white"/>
</svg>
