<svg width="26" height="26" viewBox="0 0 26 26" fill="none" xmlns="http://www.w3.org/2000/svg">
<path d="M17.8832 5.84534C18.6586 5.84534 19.4021 5.53741 19.9504 4.98931C20.4986 4.4412 20.8066 3.69781 20.8066 2.92267C20.8066 2.14753 20.4986 1.40414 19.9504 0.85603C19.4021 0.307923 18.6586 0 17.8832 0C17.1079 0 16.3644 0.307923 15.8161 0.85603C15.2679 1.40414 14.9599 2.14753 14.9599 2.92267C14.9599 3.69781 15.2679 4.4412 15.8161 4.98931C16.3644 5.53741 17.1079 5.84534 17.8832 5.84534Z" fill="white"/>
<path d="M12.0105 8.62642C11.2004 8.82775 10.6476 9.13041 10.2013 9.50581C9.53219 10.0696 8.99169 10.8827 8.2615 12.1609C8.0905 12.46 7.80765 12.679 7.47518 12.7696C7.1427 12.8602 6.78784 12.8151 6.48865 12.6441C6.18946 12.4731 5.97046 12.1904 5.87982 11.858C5.78918 11.5256 5.83432 11.1708 6.00532 10.8717C6.73226 9.60064 7.467 8.41144 8.52785 7.51905C9.63483 6.58639 10.99 6.05901 12.8174 5.85573C13.5814 5.77129 14.422 5.78818 15.21 6.13955C16.037 6.50911 16.6411 7.17093 17.053 8.05552C17.6078 9.24602 18.0203 9.95461 18.3503 10.3651C18.5095 10.5625 18.6206 10.6541 18.6836 10.695C18.7336 10.7275 18.755 10.7301 18.7628 10.7314C18.8194 10.7379 19.0032 10.7314 19.5411 10.493C19.7756 10.3891 20.0316 10.2644 20.3447 10.1118L20.4194 10.0754C20.8024 9.88648 21.1887 9.7046 21.5784 9.52985C21.8929 9.39178 22.2494 9.38389 22.5697 9.50789C22.8901 9.6319 23.1483 9.8777 23.2879 10.1915C23.4274 10.5054 23.437 10.8617 23.3144 11.1826C23.1919 11.5034 22.9473 11.7627 22.634 11.9037C22.273 12.0657 21.915 12.2344 21.5602 12.4096L21.4751 12.4512C21.1756 12.5973 20.8742 12.7448 20.5916 12.8695C20.0069 13.128 19.2598 13.4085 18.4497 13.3105C17.5948 13.2066 16.9361 12.724 16.3936 12.0765L14.6182 15.5012L17.0738 18.6953C17.22 18.8863 17.3103 19.1136 17.3356 19.3526L17.8761 24.5459C17.8967 24.717 17.883 24.8905 17.8359 25.0562C17.7887 25.222 17.7091 25.3767 17.6016 25.5114C17.494 25.6461 17.3607 25.758 17.2095 25.8407C17.0583 25.9234 16.8921 25.9752 16.7206 25.993C16.5492 26.0109 16.3759 25.9944 16.2108 25.9446C16.0458 25.8949 15.8923 25.8127 15.7594 25.7031C15.6264 25.5934 15.5166 25.4584 15.4363 25.3059C15.356 25.1534 15.3069 24.9864 15.2918 24.8147L14.789 19.9871L13.2975 18.0465L13.2845 18.0705L13.2299 17.9588L10.4742 14.3737C10.3387 14.1975 10.2507 13.9894 10.2186 13.7695C10.1866 13.5496 10.2115 13.3251 10.291 13.1176L12.0105 8.62642Z" fill="white"/>
<path d="M10.0434 16.2416L9.08719 18.8135L5.31931 18.5148C5.148 18.4989 4.97524 18.5171 4.81105 18.5685C4.64686 18.6199 4.49452 18.7034 4.36285 18.8141C4.23119 18.9248 4.12283 19.0606 4.04406 19.2135C3.9653 19.3664 3.91769 19.5334 3.90402 19.7049C3.89034 19.8764 3.91086 20.0488 3.96438 20.2123C4.0179 20.3758 4.10337 20.527 4.21581 20.6572C4.32826 20.7873 4.46545 20.8939 4.61941 20.9706C4.77338 21.0474 4.94106 21.0928 5.11273 21.1043L9.86025 21.481C10.142 21.5034 10.4234 21.4333 10.6617 21.2814C10.9001 21.1295 11.0824 20.9041 11.181 20.6392L11.9118 18.6726L10.0434 16.2416Z" fill="white"/>
</svg>
