<svg width="26" height="26" viewBox="0 0 26 26" fill="none" xmlns="http://www.w3.org/2000/svg">
<path d="M22.11 11.4584L16.8251 9.19396L15.6482 8.69828C15.4671 8.60815 15.3087 8.37157 15.3087 8.16879V4.72149C15.3087 3.63999 14.5052 2.3557 13.532 1.86002C13.1925 1.69103 12.7851 1.69103 12.4456 1.86002C11.4837 2.3557 10.6802 3.65126 10.6802 4.73276V8.18005C10.6802 8.38284 10.5218 8.61941 10.3407 8.70954L3.8902 11.4696C3.17725 11.7625 2.6001 12.6525 2.6001 13.4186V14.9057C2.6001 15.8632 3.32436 16.3364 4.21838 15.9534L9.88802 13.52C10.3294 13.3285 10.6915 13.565 10.6915 14.0495V17.3278C10.6915 17.5869 10.5444 17.9587 10.3633 18.1389L7.73786 20.7638C7.46626 21.0342 7.34177 21.5637 7.46626 21.9467L7.97551 23.4788C8.1792 24.1435 8.93742 24.4589 9.55984 24.1435L12.2532 21.8904C12.6606 21.5411 13.3283 21.5411 13.7357 21.8904L16.429 24.1435C17.0515 24.4477 17.8097 24.1435 18.036 23.4788L18.5453 21.9467C18.6697 21.5749 18.5453 21.0342 18.2737 20.7638L15.6482 18.1389C15.4558 17.9587 15.3087 17.5869 15.3087 17.3278V14.0495C15.3087 13.565 15.6595 13.3397 16.1122 13.52L21.7818 15.9534C22.6758 16.3364 23.4001 15.8632 23.4001 14.9057V13.4186C23.4001 12.6525 22.8229 11.7625 22.11 11.4584Z" fill="white"/>
</svg>
