<svg width="26" height="26" viewBox="0 0 26 26" fill="none" xmlns="http://www.w3.org/2000/svg">
<path d="M24.2869 23.4417H1.71321C1.25045 23.4417 0.866699 23.8251 0.866699 24.2875C0.866699 24.7499 1.25045 25.1333 1.71321 25.1333H24.2869C24.7496 25.1333 25.1334 24.7499 25.1334 24.2875C25.1334 23.8251 24.7496 23.4417 24.2869 23.4417Z" fill="white"/>
<path d="M18.6434 1.73328H7.35662C3.97058 1.73328 2.84189 3.75188 2.84189 6.24412V24.2875H9.61399V17.4536C9.61399 16.8672 10.088 16.3935 10.6749 16.3935H15.3364C15.912 16.3935 16.3974 16.8672 16.3974 17.4536V24.2875H23.1695V6.24412C23.1582 3.75188 22.0295 1.73328 18.6434 1.73328ZM15.8217 9.90918H13.8465V11.8827C13.8465 12.345 13.4628 12.7285 13 12.7285C12.5373 12.7285 12.1535 12.345 12.1535 11.8827V9.90918H10.1783C9.71557 9.90918 9.33182 9.52576 9.33182 9.0634C9.33182 8.60104 9.71557 8.21761 10.1783 8.21761H12.1535V6.24412C12.1535 5.78176 12.5373 5.39834 13 5.39834C13.4628 5.39834 13.8465 5.78176 13.8465 6.24412V8.21761H15.8217C16.2845 8.21761 16.6682 8.60104 16.6682 9.0634C16.6682 9.52576 16.2845 9.90918 15.8217 9.90918Z" fill="white"/>
</svg>
