<svg width="26" height="26" viewBox="0 0 26 26" fill="none" xmlns="http://www.w3.org/2000/svg">
<path d="M22.5887 19.7819V22.6764H3.41141V19.7819C3.41141 19.2512 3.8429 18.8171 4.37028 18.8171H21.6299C22.1572 18.8171 22.5887 19.2512 22.5887 19.7819Z" fill="white"/>
<path d="M8.20574 12.0633H6.28801V18.8171H8.20574V12.0633Z" fill="white"/>
<path d="M12.0412 12.0633H10.1235V18.8171H12.0412V12.0633Z" fill="white"/>
<path d="M15.8767 12.0633H13.9589V18.8171H15.8767V12.0633Z" fill="white"/>
<path d="M19.7121 12.0633H17.7944V18.8171H19.7121V12.0633Z" fill="white"/>
<path d="M23.5476 23.4H2.45255C2.05941 23.4 1.7334 23.072 1.7334 22.6764C1.7334 22.2808 2.05941 21.9528 2.45255 21.9528H23.5476C23.9407 21.9528 24.2667 22.2808 24.2667 22.6764C24.2667 23.072 23.9407 23.4 23.5476 23.4Z" fill="white"/>
<path d="M21.9846 6.99794L13.3548 3.52456C13.1631 3.44738 12.8371 3.44738 12.6453 3.52456L4.0155 6.99794C3.67989 7.13302 3.41141 7.5286 3.41141 7.89523V11.0985C3.41141 11.6291 3.8429 12.0633 4.37028 12.0633H21.6299C22.1572 12.0633 22.5887 11.6291 22.5887 11.0985V7.89523C22.5887 7.5286 22.3202 7.13302 21.9846 6.99794ZM13.0001 9.65122C12.2042 9.65122 11.5618 9.00478 11.5618 8.20398C11.5618 7.40317 12.2042 6.75674 13.0001 6.75674C13.7959 6.75674 14.4384 7.40317 14.4384 8.20398C14.4384 9.00478 13.7959 9.65122 13.0001 9.65122Z" fill="white"/>
</svg>
