<svg width="26" height="26" viewBox="0 0 26 26" fill="none" xmlns="http://www.w3.org/2000/svg">
<path d="M21.1571 5.76906H20.7065L16.8983 1.9614C16.5941 1.65724 16.0984 1.65724 15.7829 1.9614C15.4787 2.26556 15.4787 2.76123 15.7829 3.07666L18.4757 5.76906H7.52447L10.2172 3.07666C10.5214 2.7725 10.5214 2.27683 10.2172 1.9614C9.913 1.65724 9.41726 1.65724 9.1018 1.9614L5.30493 5.76906H4.85426C3.84027 5.76906 1.7334 5.76906 1.7334 8.65296C1.7334 9.74569 1.95873 10.4667 2.43193 10.9398C2.70233 11.2214 3.02907 11.3679 3.37833 11.4467C3.70507 11.5256 4.05433 11.5369 4.39233 11.5369H21.6078C21.9571 11.5369 22.2838 11.5143 22.5993 11.4467C23.5457 11.2214 24.2667 10.5455 24.2667 8.65296C24.2667 5.76906 22.1599 5.76906 21.1571 5.76906Z" fill="white"/>
<path d="M20.9431 13.0014H4.96693C4.2684 13.0014 3.73887 13.6209 3.85153 14.3081L4.79793 20.0985C5.1134 22.0361 5.9584 24.2666 9.7102 24.2666H16.0308C19.8277 24.2666 20.5037 22.3628 20.9093 20.2336L22.0472 14.3419C22.1824 13.6435 21.6529 13.0014 20.9431 13.0014ZM11.434 20.2674C11.434 20.7068 11.0847 21.056 10.6566 21.056C10.2172 21.056 9.86793 20.7068 9.86793 20.2674V16.5499C9.86793 16.1218 10.2172 15.7613 10.6566 15.7613C11.0847 15.7613 11.434 16.1218 11.434 16.5499V20.2674ZM16.2561 20.2674C16.2561 20.7068 15.9069 21.056 15.4675 21.056C15.0393 21.056 14.6788 20.7068 14.6788 20.2674V16.5499C14.6788 16.1218 15.0393 15.7613 15.4675 15.7613C15.9069 15.7613 16.2561 16.1218 16.2561 16.5499V20.2674Z" fill="white"/>
</svg>
