<svg width="220" height="42" viewBox="0 0 220 42" fill="none" xmlns="http://www.w3.org/2000/svg">
<path d="M44.4467 17.9392L44.4172 18.8723L40.3051 15.8011C40.2569 15.7647 40.1984 15.7442 40.1379 15.7425C40.0775 15.7408 40.0179 15.7579 39.9677 15.7916L39.9573 15.7985C39.9032 15.8349 39.8628 15.8882 39.8425 15.95C39.8222 16.0118 39.8231 16.0786 39.8451 16.1398C40.6336 18.3006 41.0211 20.5862 40.9886 22.8851V22.9016C40.7894 22.8513 40.5303 22.7725 40.2468 22.6859C39.2095 22.3679 37.6382 21.8888 36.0731 21.8888C35.1479 21.8888 33.5175 21.8888 29.4367 23.1173C29.3148 21.9228 28.8506 20.7884 28.0994 19.8495L36.4322 11.5491C36.4527 11.5289 36.4703 11.5058 36.4843 11.4807L44.2946 17.6455C44.3406 17.6798 44.3782 17.724 44.4046 17.7749C44.431 17.8258 44.4454 17.882 44.4467 17.9392Z" fill="#007F8F"/>
<path d="M41.3945 23.5046C41.3989 23.4179 41.4024 23.3382 41.4041 23.2551C41.4058 23.1719 41.4093 23.0948 41.4102 23.0151C41.4516 23.0452 41.4845 23.0856 41.5055 23.1322C41.5266 23.1789 41.5351 23.2301 41.5302 23.281C41.5266 23.3206 41.5151 23.359 41.4964 23.3941C41.4778 23.4292 41.4523 23.4603 41.4215 23.4855C41.413 23.4925 41.404 23.4989 41.3945 23.5046Z" fill="#E9BF72"/>
<path d="M41.4101 23.0151C41.4101 23.0948 41.4101 23.1754 41.4041 23.2551H41.3771C41.3768 23.2187 41.3629 23.1837 41.3382 23.157C41.3134 23.1302 41.2796 23.1136 41.2432 23.1104C41.211 23.1104 41.1762 23.1017 41.1362 23.0948C41.1362 23.0419 41.1362 22.9908 41.1362 22.9388C41.1814 22.9475 41.2232 22.9536 41.2554 22.957C41.3115 22.9611 41.3652 22.9813 41.4101 23.0151Z" fill="#E9BF72"/>
<path d="M41.3762 23.2672C41.3746 23.2863 41.3691 23.3049 41.3602 23.3219C41.3513 23.3389 41.3391 23.3539 41.3243 23.3662C41.3095 23.3785 41.2924 23.3876 41.274 23.3933C41.2556 23.3989 41.2362 23.4008 41.2171 23.3989C41.1879 23.3965 41.1588 23.3925 41.1301 23.3867L41.1397 23.0939C41.1797 23.1008 41.2145 23.106 41.2466 23.1095C41.2828 23.1136 41.3162 23.1309 41.3403 23.1581C41.3644 23.1853 41.3775 23.2205 41.3771 23.2568C41.3771 23.2568 41.3762 23.2637 41.3762 23.2672Z" fill="#E9BF72"/>
<path d="M41.3944 23.5046C41.3377 23.5426 41.2693 23.5595 41.2014 23.5522C41.1739 23.5502 41.1467 23.5468 41.1196 23.5418C41.1196 23.4907 41.1196 23.4379 41.1266 23.3867C41.1553 23.3925 41.1843 23.3965 41.2135 23.3989C41.2327 23.4008 41.252 23.3989 41.2704 23.3933C41.2888 23.3877 41.306 23.3785 41.3208 23.3662C41.3356 23.354 41.3478 23.3389 41.3567 23.3219C41.3656 23.3049 41.371 23.2863 41.3727 23.2672C41.3727 23.2672 41.3727 23.2585 41.3727 23.2542H41.4031C41.4031 23.3382 41.4031 23.4214 41.3944 23.5046Z" fill="#E9BF72"/>
<path d="M41.1364 23.0939L41.1268 23.3867C41.0799 23.3807 41.0286 23.3703 40.9729 23.3582C40.9729 23.2594 40.979 23.1598 40.9816 23.0601C41.0381 23.074 41.0894 23.0835 41.1364 23.0939Z" fill="#E9BF72"/>
<path d="M41.1272 23.387C41.1272 23.4385 41.1228 23.4918 41.1202 23.5433C41.0721 23.5372 41.0215 23.5267 40.9656 23.5145C40.9656 23.463 40.9708 23.4106 40.9726 23.3582C41.0285 23.3704 41.08 23.3809 41.1272 23.387Z" fill="#E9BF72"/>
<path d="M40.9814 23.0614V22.9016C41.0382 22.9164 41.0906 22.9287 41.136 22.9383C41.136 22.9907 41.136 23.0422 41.136 23.0955C41.0898 23.085 41.0382 23.0754 40.9814 23.0614Z" fill="#E9BF72"/>
<path d="M40.3857 16.398C41.0958 18.4882 41.4428 20.6838 41.4117 22.8903C41.4117 22.9319 41.4117 22.977 41.4117 23.0151C41.3674 22.9813 41.3143 22.9608 41.2587 22.9562C41.2248 22.9562 41.1848 22.9466 41.1396 22.938C41.1396 22.9215 41.1396 22.9033 41.1396 22.8869C41.172 20.5693 40.7813 18.2653 39.9866 16.087C39.9763 16.0584 39.9758 16.0272 39.9853 15.9984C39.9947 15.9695 40.0135 15.9446 40.0387 15.9276L40.05 15.9198C40.0736 15.9039 40.1015 15.8958 40.1299 15.8965C40.1583 15.8973 40.1857 15.907 40.2083 15.9241L44.556 19.1729L44.6429 19.2396L44.6377 19.2933H44.6664L44.8203 19.3037C44.8176 19.3407 44.805 19.3763 44.7837 19.4068C44.7625 19.4373 44.7334 19.4615 44.6995 19.4769C44.6632 19.4942 44.6228 19.5008 44.583 19.496C44.5431 19.4913 44.5054 19.4753 44.4743 19.4501L40.3857 16.398Z" fill="#E9BF72"/>
<path d="M44.4465 17.9392C44.4461 17.8826 44.4329 17.8268 44.4079 17.776C44.3829 17.7252 44.3468 17.6806 44.3022 17.6455L36.4919 11.4807C36.5208 11.4315 36.5361 11.3756 36.5363 11.3187L44.4004 17.5251C44.463 17.5758 44.5135 17.6397 44.5483 17.7122C44.583 17.7847 44.6011 17.864 44.6013 17.9444L44.5613 19.1729L40.2136 15.9241C40.191 15.907 40.1635 15.8973 40.1351 15.8966C40.1068 15.8958 40.0788 15.9039 40.0553 15.9198L40.044 15.9276C40.0188 15.9446 40 15.9695 39.9906 15.9984C39.9811 16.0272 39.9816 16.0584 39.9918 16.087C40.7857 18.2654 41.1755 20.5695 41.1422 22.8869C41.1422 22.9033 41.1422 22.9215 41.1422 22.938C41.097 22.9284 41.0449 22.9163 40.9883 22.9016V22.8851C41.0186 20.5858 40.6288 18.3002 39.8379 16.1398C39.8159 16.0786 39.815 16.0118 39.8353 15.95C39.8556 15.8882 39.896 15.8349 39.9501 15.7985L39.9605 15.7916C40.0108 15.7579 40.0703 15.7408 40.1308 15.7425C40.1912 15.7442 40.2497 15.7647 40.2979 15.8011L44.41 18.8723L44.4465 17.9392Z" fill="#E9BF72"/>
<path d="M39.5188 30.3486C40.4718 28.1984 41.0147 25.8901 41.1196 23.5418C41.1467 23.5468 41.1739 23.5502 41.2014 23.5522C41.2693 23.5595 41.3377 23.5426 41.3944 23.5046C41.2917 25.963 40.7158 28.3788 39.6979 30.6207C39.6974 30.563 39.6802 30.5066 39.6485 30.4584C39.6167 30.4102 39.5717 30.3721 39.5188 30.3486Z" fill="#E9BF72"/>
<path d="M39.5876 30.8563C39.6259 30.7781 39.6616 30.6981 39.6981 30.6181C39.6989 30.6526 39.6936 30.6871 39.6824 30.7198C39.6651 30.7737 39.6321 30.8213 39.5876 30.8563Z" fill="#E9BF72"/>
<path d="M41.1196 23.5418C41.0147 25.8901 40.4718 28.1984 39.5188 30.3486C39.51 30.3435 39.5007 30.3394 39.491 30.3365C39.4814 30.3365 39.4414 30.32 39.3718 30.2992C40.3238 28.1573 40.8652 25.8569 40.9683 23.5167C41.0213 23.5254 41.0718 23.5357 41.1196 23.5418Z" fill="#E9BF72"/>
<path d="M39.5198 30.349C39.4988 30.3971 39.4778 30.4434 39.456 30.4914C39.4517 30.4887 39.447 30.4866 39.442 30.4853C39.4324 30.4853 39.3861 30.4661 39.3066 30.4434L39.3722 30.2992C39.442 30.3202 39.4822 30.3333 39.4918 30.3368C39.5016 30.3398 39.511 30.3439 39.5198 30.349Z" fill="#E9BF72"/>
<path d="M39.4415 30.4838C39.4465 30.4851 39.4511 30.4871 39.4554 30.4898C39.4154 30.5765 39.3685 30.6692 39.3302 30.7601C39.3059 30.7523 39.2554 30.7359 39.1807 30.716C39.2233 30.625 39.2676 30.534 39.3067 30.4422C39.3859 30.4647 39.432 30.4803 39.4415 30.4838Z" fill="#E9BF72"/>
<path d="M39.3303 30.7601C39.3729 30.6692 39.4173 30.5799 39.4555 30.4898C39.4894 30.5046 39.5164 30.5315 39.5312 30.5652C39.5461 30.5989 39.5476 30.637 39.5355 30.6718C39.5227 30.7089 39.4957 30.7395 39.4604 30.757C39.4251 30.7745 39.3843 30.7775 39.3468 30.7653L39.3303 30.7601Z" fill="#E9BF72"/>
<path d="M39.3311 30.7605C39.3092 30.8068 39.2874 30.8548 39.2647 30.902C39.2332 30.8915 39.1826 30.8775 39.1118 30.8575C39.1345 30.8112 39.1572 30.7631 39.1808 30.716C39.2559 30.736 39.3066 30.7526 39.3311 30.7605Z" fill="#E9BF72"/>
<path d="M39.5874 30.8554C39.548 30.8887 39.5006 30.9112 39.4499 30.9209C39.3992 30.9306 39.3468 30.9272 39.2978 30.9109L39.2639 30.9005C39.2865 30.8537 39.3083 30.8061 39.33 30.7601L39.3465 30.7653C39.384 30.7775 39.4248 30.7745 39.4601 30.757C39.4953 30.7395 39.5223 30.7089 39.5352 30.6718C39.5473 30.637 39.5457 30.5989 39.5309 30.5652C39.5161 30.5315 39.4891 30.5046 39.4552 30.4898C39.4769 30.4422 39.4978 30.3963 39.5187 30.3486C39.5712 30.3719 39.616 30.4096 39.6477 30.4573C39.6794 30.505 39.6968 30.5608 39.6978 30.6181C39.6639 30.6978 39.6256 30.7775 39.5874 30.8554Z" fill="#E9BF72"/>
<path d="M36.5337 11.316L36.1294 10.9964C36.1784 10.9854 36.2292 10.9854 36.2782 10.9963C36.3273 11.0072 36.3732 11.0289 36.4129 11.0596L36.4372 11.0813C36.4682 11.112 36.4926 11.1487 36.5092 11.189C36.5258 11.2293 36.5341 11.2725 36.5337 11.316Z" fill="#E9BF72"/>
<path d="M36.1277 10.999L36.5338 11.3187C36.5336 11.3756 36.5183 11.4315 36.4895 11.4807L35.9773 11.0769C36.0191 11.0375 36.0713 11.0105 36.1277 10.999Z" fill="#E9BF72"/>
<path d="M44.597 17.9444C44.5968 17.8641 44.5787 17.7847 44.544 17.7122C44.5092 17.6397 44.4587 17.5758 44.3961 17.5251L36.5337 11.3187C36.5338 11.2755 36.5253 11.2328 36.5087 11.193C36.4921 11.1531 36.4678 11.1169 36.4372 11.0865L36.4128 11.0648L36.4998 10.9513L44.5648 17.3155C44.6602 17.3919 44.737 17.4888 44.7897 17.5988C44.8424 17.7089 44.8695 17.8294 44.8691 17.9513L44.8256 19.2976C44.826 19.302 44.826 19.3063 44.8256 19.3106L44.6717 19.3002H44.643L44.6483 19.2465L44.5613 19.1798L44.597 17.9444Z" fill="#E9BF72"/>
<path d="M23.0559 0.683491L36.1277 10.999C36.0706 11.0102 36.0179 11.0372 35.9755 11.0769L23.082 0.905273C23.0797 0.830741 23.0709 0.756543 23.0559 0.683491Z" fill="#E9BF72"/>
<path d="M35.9756 11.0769L35.9686 11.0839L27.6645 19.3583C26.4565 18.1399 24.8292 17.424 23.1116 17.3553L23.082 0.905277L35.9756 11.0769Z" fill="#007F8F"/>
<path d="M40.112 23.1112C39.099 22.8011 37.5695 22.3315 36.0695 22.3315C35.1609 22.3315 33.5557 22.3315 29.481 23.5669L29.4689 23.5271L29.448 23.2715C33.5279 22.0439 35.1496 22.0439 36.0695 22.0439C37.6139 22.0439 39.1677 22.5213 40.1973 22.8357C40.5085 22.931 40.7772 23.009 40.9798 23.0627C40.9798 23.1624 40.9746 23.262 40.9711 23.3607C40.7529 23.3079 40.4677 23.2204 40.112 23.1112Z" fill="#E9BF72"/>
<path d="M35.072 12.2491C35.0976 12.2235 35.1324 12.209 35.1687 12.209C35.205 12.2089 35.2398 12.2232 35.2655 12.2487C35.2912 12.2742 35.3057 12.3088 35.3058 12.345C35.3059 12.3811 35.2916 12.4158 35.266 12.4414L27.9801 19.7048C27.9218 19.6355 27.8618 19.5671 27.7983 19.5003L35.072 12.2491Z" fill="#E9BF72"/>
<path d="M27.6646 19.3583L35.9661 11.0865L35.973 11.0796L36.4852 11.4833C36.4711 11.5084 36.4536 11.5315 36.433 11.5517L28.0993 19.8495C28.0593 19.7992 28.0185 19.7499 27.9767 19.7005L35.2626 12.4414C35.2877 12.4157 35.3018 12.3812 35.3017 12.3453C35.3017 12.3184 35.2937 12.2921 35.2787 12.2697C35.2637 12.2474 35.2424 12.2299 35.2174 12.2196C35.1925 12.2093 35.1651 12.2066 35.1386 12.2119C35.1121 12.2171 35.0878 12.2301 35.0687 12.2491L27.795 19.496C27.7559 19.4449 27.7115 19.4016 27.6646 19.3583Z" fill="#E9BF72"/>
<path d="M40.9814 23.0601C40.777 23.0099 40.5084 22.9284 40.1988 22.8331C39.1693 22.5187 37.6154 22.0413 36.0711 22.0413C35.1511 22.0413 33.5294 22.0413 29.4495 23.2732V23.2395C29.4495 23.1987 29.4426 23.1589 29.4382 23.1173C33.519 21.8888 35.1494 21.8888 36.0746 21.8888C37.6397 21.8888 39.2101 22.3679 40.2484 22.6859C40.5318 22.7725 40.791 22.8513 40.9901 22.9016L40.9814 23.0601Z" fill="#E9BF72"/>
<path d="M35.5196 25.9312C34.9553 25.9312 34.3344 26.1677 33.7345 26.3955C33.1101 26.6329 32.4649 26.8789 31.8502 26.8789C31.3096 26.8852 30.771 26.8135 30.2511 26.6658C30.1427 26.6309 30.0307 26.6082 29.9172 26.5982C29.8807 26.5982 29.8458 26.5838 29.82 26.5582C29.7943 26.5325 29.7798 26.4977 29.7798 26.4614C29.7798 26.4251 29.7943 26.3902 29.82 26.3646C29.8458 26.3389 29.8807 26.3245 29.9172 26.3245C30.0549 26.334 30.191 26.3601 30.3224 26.4025C30.8191 26.5432 31.3337 26.6115 31.8502 26.6052C32.4154 26.6052 33.0362 26.3695 33.6362 26.1408C34.2605 25.9043 34.9049 25.6591 35.5196 25.6591C36.4206 25.6685 37.3106 25.8576 38.1369 26.2153C38.1535 26.2223 38.1685 26.2324 38.1812 26.2451C38.1938 26.2578 38.2038 26.2729 38.2106 26.2895C38.2173 26.3061 38.2208 26.3238 38.2207 26.3417C38.2206 26.3596 38.2169 26.3773 38.21 26.3938C38.203 26.4103 38.1929 26.4253 38.1801 26.4378C38.1673 26.4504 38.1522 26.4604 38.1355 26.4671C38.1189 26.4739 38.1011 26.4773 38.0831 26.4772C38.0652 26.4771 38.0474 26.4735 38.0309 26.4666C37.238 26.1231 36.3842 25.9411 35.5196 25.9312Z" fill="#E9BF72"/>
<path d="M38.1373 26.2153C37.3109 25.8576 36.4209 25.6685 35.52 25.6591C34.9052 25.6591 34.2609 25.9043 33.6365 26.1408C33.0366 26.3695 32.4192 26.6052 31.8505 26.6052C31.3341 26.6115 30.8195 26.5432 30.3227 26.4025C30.1913 26.3601 30.0553 26.334 29.9175 26.3245C29.8811 26.3245 29.8461 26.3389 29.8204 26.3646C29.7946 26.3903 29.7801 26.4251 29.7801 26.4614C29.7801 26.4977 29.7946 26.5325 29.8204 26.5582C29.8461 26.5838 29.8811 26.5983 29.9175 26.5983C30.031 26.6082 30.143 26.6309 30.2514 26.6658C30.7713 26.8135 31.3099 26.8853 31.8505 26.8789C32.4653 26.8789 33.1105 26.6329 33.7348 26.3955C34.3348 26.1677 34.9522 25.9312 35.52 25.9312C36.3845 25.9411 37.2383 26.1231 38.0312 26.4666C38.0478 26.4735 38.0655 26.4771 38.0835 26.4772C38.1014 26.4773 38.1193 26.4739 38.1359 26.4671C38.1525 26.4604 38.1677 26.4504 38.1804 26.4378C38.1932 26.4253 38.2034 26.4103 38.2103 26.3938C38.2173 26.3773 38.2209 26.3596 38.221 26.3417C38.2211 26.3238 38.2177 26.3061 38.2109 26.2895C38.2041 26.2729 38.1941 26.2578 38.1815 26.2451C38.1689 26.2324 38.1538 26.2223 38.1373 26.2153ZM35.52 25.5049C36.4417 25.5138 37.3522 25.7073 38.1973 26.0741C38.2325 26.0886 38.2645 26.1099 38.2914 26.1368C38.3182 26.1638 38.3395 26.1957 38.3538 26.2309C38.3686 26.2663 38.3763 26.3043 38.3763 26.3427C38.3763 26.381 38.3686 26.419 38.3538 26.4544C38.339 26.4898 38.3172 26.5219 38.2897 26.5486C38.2623 26.5754 38.2296 26.5964 38.1938 26.6104C38.1585 26.625 38.1207 26.6325 38.0825 26.6325C38.0443 26.6325 38.0065 26.625 37.9712 26.6104C37.1974 26.2759 36.3643 26.0991 35.5208 26.0906C34.9843 26.0906 34.3765 26.3219 33.7905 26.5445C33.1539 26.7871 32.4948 27.0375 31.8514 27.0375C31.2976 27.0444 30.7458 26.9712 30.2132 26.82C30.1173 26.7894 30.0185 26.7685 29.9184 26.7577C29.8409 26.7577 29.7666 26.727 29.7118 26.6724C29.657 26.6178 29.6262 26.5438 29.6262 26.4666C29.6262 26.3894 29.657 26.3153 29.7118 26.2607C29.7666 26.2061 29.8409 26.1755 29.9184 26.1755C30.0699 26.1854 30.2195 26.2145 30.3636 26.2621C30.8472 26.3998 31.3484 26.4663 31.8514 26.4596C32.387 26.4596 32.9948 26.2292 33.5818 26.0057C34.2183 25.7544 34.8817 25.5093 35.52 25.5093V25.5049Z" fill="#E9BF72"/>
<path d="M29.2905 23.2579C29.2905 23.2273 29.2852 23.1976 29.2817 23.1706L29.4337 23.1234C29.4381 23.1653 29.4425 23.2055 29.4451 23.2465V23.2806L29.2913 23.3269L29.2905 23.2579Z" fill="#E9BF72"/>
<path d="M29.2949 23.3192L29.3018 23.3879L29.0288 23.4105V23.4026L29.2949 23.3192Z" fill="#E9BF72"/>
<path d="M29.2904 23.2571L29.2947 23.3241L29.0278 23.411L29.0173 23.2832V23.2528C29.1043 23.2249 29.1965 23.1971 29.2843 23.1719C29.2852 23.1928 29.2878 23.2223 29.2904 23.2571Z" fill="#E9BF72"/>
<path d="M28.0992 19.8495C28.8479 20.7892 29.3097 21.9235 29.4296 23.1173L29.2783 23.1641C29.1663 21.9944 28.7186 20.8816 27.9888 19.9586L28.0992 19.8495Z" fill="#E9BF72"/>
<path d="M29.0286 23.4101L29.3017 23.3876L29.2947 23.3192L29.4478 23.2733L29.4686 23.5288L28.8878 23.5765L28.8765 23.4491L29.0278 23.4023L29.0286 23.4101Z" fill="#E9BF72"/>
<path d="M28.8625 23.2918L29.0154 23.2447V23.2752L29.0259 23.4036L28.8739 23.4508L28.8625 23.2918Z" fill="#E9BF72"/>
<path d="M27.9922 19.9595C28.722 20.8825 29.1697 21.9953 29.2817 23.165C29.1948 23.1901 29.1078 23.2178 29.0148 23.2455C28.9218 22.1135 28.5027 21.0323 27.8079 20.1319C27.825 20.1241 27.8404 20.1129 27.8531 20.099L27.9922 19.9595Z" fill="#E9BF72"/>
<path d="M28.0992 19.85L27.9888 19.9605C27.9488 19.91 27.9088 19.8605 27.8662 19.8109L27.9766 19.7005C28.0219 19.75 28.0627 19.7996 28.0992 19.85Z" fill="#E9BF72"/>
<path d="M27.9799 19.7048L27.8694 19.8148C27.8121 19.7455 27.7512 19.6762 27.6895 19.6095L27.7981 19.5003C27.8616 19.5627 27.9251 19.6312 27.9799 19.7048Z" fill="#E9BF72"/>
<path d="M27.8696 19.8105L27.6957 19.9838C27.6383 19.9127 27.5783 19.8443 27.5166 19.7776L27.6905 19.6043C27.7514 19.6719 27.8122 19.7412 27.8696 19.8105Z" fill="#E9BF72"/>
<path d="M27.808 20.131C27.7706 20.0825 27.7315 20.0349 27.6924 19.9872L27.8663 19.814C27.9089 19.8633 27.9489 19.9127 27.9889 19.963L27.8498 20.1016C27.8378 20.1139 27.8237 20.1239 27.808 20.131Z" fill="#E9BF72"/>
<path d="M27.7984 19.4965L27.6897 19.6061C27.6462 19.5583 27.6027 19.5113 27.5566 19.4661L27.6645 19.3583C27.7114 19.4018 27.7558 19.4452 27.7984 19.4965Z" fill="#E9BF72"/>
<path d="M27.6931 19.9889L27.6853 19.9977L27.4905 19.8038L27.5132 19.781C27.5778 19.8483 27.6355 19.9173 27.6931 19.9889Z" fill="#E9BF72"/>
<path d="M27.6063 20.0981C27.6224 20.1145 27.6416 20.1275 27.6628 20.1364C27.684 20.1454 27.7067 20.15 27.7297 20.1501C27.757 20.1499 27.7838 20.1434 27.808 20.131C28.5028 21.0315 28.9219 22.1127 29.0149 23.2447L28.8627 23.2914C28.7689 22.0526 28.2722 20.878 27.448 19.9456L27.6063 20.0981Z" fill="#E9BF72"/>
<path d="M27.387 19.6338L27.5566 19.4657C27.6018 19.5107 27.6435 19.5575 27.6896 19.6052L27.5157 19.7784C27.4722 19.7308 27.4288 19.684 27.3835 19.6381L27.387 19.6338Z" fill="#E9BF72"/>
<path d="M27.6922 19.9872C27.7313 20.0349 27.7704 20.0825 27.8078 20.131C27.7836 20.1434 27.7568 20.1499 27.7296 20.1501C27.7066 20.15 27.6838 20.1454 27.6626 20.1364C27.6414 20.1275 27.6222 20.1145 27.6061 20.0981L27.4478 19.9413C27.4191 19.9084 27.3905 19.8755 27.3609 19.8434C27.3452 19.8172 27.3371 19.7873 27.3374 19.7568C27.3375 19.7138 27.3536 19.6725 27.3826 19.6407C27.4278 19.6866 27.4696 19.7334 27.5148 19.781L27.4922 19.8036L27.6861 19.9959L27.6922 19.9872Z" fill="#E9BF72"/>
<path d="M27.3591 19.8434C27.3906 19.8757 27.4194 19.9089 27.4465 19.9421L27.3853 19.881C27.3747 19.8699 27.3658 19.8573 27.3591 19.8434Z" fill="#E9BF72"/>
<path d="M27.3871 19.6338L27.381 19.6407C26.301 18.5301 24.7724 17.8387 23.0281 17.7772C23.0839 17.7178 23.1149 17.6394 23.115 17.558V17.5069C24.7915 17.5752 26.3794 18.2754 27.5575 19.4657L27.3871 19.6338Z" fill="#E9BF72"/>
<path d="M25.0037 33.6424C22.8342 33.6424 21.4743 32.9823 20.5734 32.5448C20.1639 32.3464 19.8413 32.1896 19.6169 32.1896C19.5793 32.1867 19.5442 32.1698 19.5186 32.1423C19.493 32.1147 19.4788 32.0786 19.4788 32.041C19.4788 32.0035 19.493 31.9673 19.5186 31.9397C19.5442 31.9122 19.5793 31.8953 19.6169 31.8924C19.9074 31.8924 20.2404 32.0544 20.7021 32.2788C21.5777 32.7033 22.9012 33.3453 25.0011 33.3453C26.1759 33.3453 27.9636 32.5994 29.8549 31.8093C31.987 30.9187 34.1922 29.9969 35.8504 29.9969C37.6199 29.9969 38.8998 30.3226 39.3042 30.4422C39.2633 30.534 39.2172 30.625 39.1781 30.716C38.0925 30.4293 36.9735 30.2874 35.8504 30.2941C34.2522 30.2941 32.0757 31.2037 29.9705 32.083C28.0523 32.8853 26.2385 33.6424 25.0037 33.6424Z" fill="#E9BF72"/>
<path d="M27.5565 19.4657C26.3784 18.2754 24.7905 17.5752 23.114 17.5069V17.3527C24.831 17.4228 26.4573 18.1396 27.6643 19.3583L27.5565 19.4657Z" fill="#E9BF72"/>
<path d="M23.1153 17.3527V17.5082C23.0524 17.5082 22.9877 17.503 22.9231 17.5021V17.3466C22.9877 17.3475 23.0506 17.3493 23.1153 17.3527Z" fill="#E9BF72"/>
<path d="M23.0281 17.7772C22.9978 17.811 22.9607 17.8381 22.9192 17.8565C22.8777 17.8749 22.8327 17.8844 22.7873 17.8842C22.7416 17.8839 22.6965 17.8742 22.6547 17.8556C22.613 17.8371 22.5755 17.8101 22.5447 17.7764C22.6195 17.7764 22.6942 17.772 22.7699 17.772H22.7864C22.8673 17.772 22.9481 17.7737 23.0281 17.7772Z" fill="#E9BF72"/>
<path d="M27.3593 19.8434C26.255 18.6539 24.6341 17.9288 22.7864 17.9253V17.8855C22.8318 17.8857 22.8767 17.8763 22.9183 17.8579C22.9598 17.8396 22.9969 17.8126 23.0272 17.7789C24.7663 17.8404 26.3002 18.5318 27.3802 19.6424C27.3512 19.6742 27.3351 19.7156 27.3349 19.7585C27.3352 19.7885 27.3436 19.8178 27.3593 19.8434Z" fill="#E9BF72"/>
<path d="M22.9228 17.5927V17.5008C22.9871 17.5008 23.0515 17.5008 23.1141 17.5069V17.558C23.114 17.6394 23.0829 17.7177 23.0271 17.7772C22.9471 17.7772 22.8663 17.772 22.7854 17.772V17.7296C22.8035 17.7297 22.8214 17.7262 22.8381 17.7194C22.8548 17.7125 22.87 17.7025 22.8828 17.6897C22.8956 17.677 22.9057 17.6619 22.9126 17.6452C22.9194 17.6285 22.9229 17.6107 22.9228 17.5927Z" fill="#E9BF72"/>
<path d="M22.9229 17.5008V17.593C22.9229 17.6292 22.9086 17.6639 22.883 17.6895C22.8574 17.7151 22.8226 17.7295 22.7864 17.7295C22.7502 17.7295 22.7155 17.7151 22.6899 17.6895C22.6643 17.6639 22.6499 17.6292 22.6499 17.593V17.5C22.689 17.5 22.729 17.5 22.7699 17.5C22.8108 17.5 22.8725 17.5 22.9229 17.5008Z" fill="#E9BF72"/>
<path d="M22.9229 2.38931V17.3466C22.8716 17.3466 22.8212 17.3466 22.7699 17.3466C22.7186 17.3466 22.6899 17.3466 22.6499 17.3466V2.38931C22.6499 2.35324 22.6643 2.31864 22.6899 2.29313C22.7155 2.26762 22.7502 2.25329 22.7864 2.25329C22.8226 2.25329 22.8574 2.26762 22.883 2.29313C22.9086 2.31864 22.9229 2.35324 22.9229 2.38931Z" fill="#E9BF72"/>
<path d="M22.7871 0.185045C22.7432 0.185205 22.6997 0.194039 22.6593 0.211035L22.6941 0.184179C22.7187 0.164345 22.7494 0.153524 22.781 0.153524C22.8127 0.153524 22.8434 0.164345 22.868 0.184179L36.5015 10.9493L36.4145 11.0628C36.3749 11.032 36.3289 11.0104 36.2799 10.9995C36.2309 10.9885 36.1801 10.9886 36.1311 10.9995L23.0558 0.684055C23.0114 0.461407 22.9158 0.185045 22.7871 0.185045Z" fill="#E9BF72"/>
<path d="M22.6594 0.212899C22.6998 0.195902 22.7433 0.187069 22.7872 0.186909C22.9159 0.186909 23.0115 0.46327 23.0559 0.685919L22.7767 0.465869L22.4602 0.708444V0.510919C22.4602 0.438466 22.4844 0.368065 22.5289 0.310795L22.6594 0.212899Z" fill="#E9BF72"/>
<path d="M22.7758 0.659244L22.4602 0.905283V0.706026L22.7767 0.463451L23.0558 0.683501C23.0706 0.755131 23.0793 0.82787 23.0819 0.900952L22.7758 0.659244Z" fill="#E9BF72"/>
<path d="M22.7699 17.4988C22.729 17.4988 22.689 17.4988 22.6499 17.4988V17.344C22.6899 17.344 22.729 17.344 22.7699 17.344C22.8108 17.344 22.8716 17.344 22.9229 17.344V17.4988C22.8725 17.5006 22.8212 17.4988 22.7699 17.4988Z" fill="#E9BF72"/>
<path d="M22.6599 0.212984L22.5289 0.313436C22.5633 0.269342 22.6084 0.234765 22.6599 0.212984Z" fill="#E9BF72"/>
<path d="M22.7699 17.772C22.6943 17.772 22.6195 17.772 22.5447 17.7763C22.4896 17.7168 22.4587 17.639 22.4578 17.558V17.506C22.5204 17.506 22.5838 17.5008 22.6473 17.5V17.5927C22.6473 17.629 22.6618 17.6638 22.6876 17.6895C22.7133 17.7151 22.7483 17.7295 22.7847 17.7295V17.772H22.7699Z" fill="#E9BF72"/>
<path d="M22.6506 17.3458V17.5013C22.5869 17.5013 22.5231 17.5013 22.4602 17.5074V17.351C22.5231 17.3475 22.5869 17.3466 22.6506 17.3458Z" fill="#E9BF72"/>
<path d="M22.4602 17.351V0.905275L22.7758 0.663567L23.0819 0.905275L23.1141 17.3562C23.0498 17.3562 22.9871 17.351 22.9228 17.3501V2.38931C22.9228 2.35324 22.9084 2.31864 22.8828 2.29313C22.8572 2.26763 22.8225 2.2533 22.7863 2.2533C22.7501 2.2533 22.7154 2.26763 22.6898 2.29313C22.6641 2.31864 22.6498 2.35324 22.6498 2.38931V17.3458C22.5863 17.3466 22.5228 17.3475 22.4602 17.351Z" fill="#E9BF72"/>
<path d="M22.4602 0.905277V17.351C20.4255 17.4298 18.6812 18.2927 17.5316 19.6485L9.03101 11.1783L22.4602 0.905277Z" fill="#007F8F"/>
<path d="M22.4601 0.706024V0.905282L9.03091 11.1783L9.01439 11.1627C8.98101 11.129 8.94023 11.1035 8.89526 11.0882L22.4601 0.706024Z" fill="#E9BF72"/>
<path d="M27.7697 24.1119C24.1959 25.2935 23.1168 25.6505 18.2291 25.6505C18.1903 25.6505 18.1532 25.6351 18.1258 25.6078C18.0984 25.5806 18.083 25.5435 18.083 25.5049C18.083 25.4663 18.0984 25.4293 18.1258 25.402C18.1532 25.3747 18.1903 25.3594 18.2291 25.3594C23.0707 25.3594 24.142 25.0059 27.6766 23.8355L27.7453 23.813C28.1407 23.683 28.5175 23.5617 28.8757 23.4491L28.887 23.5765L29.4679 23.5288L29.4801 23.5687C28.9714 23.722 28.4253 23.8944 27.8358 24.0885L27.7697 24.1119Z" fill="#E9BF72"/>
<path d="M39.3068 30.4422C38.9025 30.3226 37.6225 29.9969 35.853 29.9969C34.1948 29.9969 31.9896 30.9187 29.8575 31.8093C27.9662 32.5994 26.1785 33.3453 25.0037 33.3453C22.9038 33.3453 21.5803 32.7033 20.7047 32.2788C20.243 32.0545 19.91 31.8924 19.6195 31.8924C19.5819 31.8953 19.5468 31.9122 19.5212 31.9397C19.4956 31.9673 19.4814 32.0035 19.4814 32.041C19.4814 32.0786 19.4956 32.1147 19.5212 32.1423C19.5468 32.1698 19.5819 32.1867 19.6195 32.1896C19.8413 32.1896 20.1639 32.3464 20.576 32.5448C21.4769 32.9823 22.8368 33.6424 25.0063 33.6424C26.2411 33.6424 28.0549 32.8853 29.9757 32.083C32.0809 31.2037 34.2574 30.2941 35.8556 30.2941C36.9787 30.2874 38.0977 30.4293 39.1833 30.716C39.1598 30.7627 39.1372 30.8104 39.1146 30.8563C38.05 30.5786 36.9535 30.4411 35.853 30.4474C34.2878 30.4474 32.1235 31.351 30.0331 32.2243C28.0993 33.0343 26.2732 33.7967 25.0037 33.7967C22.7986 33.7967 21.4186 33.127 20.5056 32.6834C20.1299 32.5015 19.8056 32.3429 19.6195 32.3429C19.5388 32.3429 19.4614 32.311 19.4043 32.2541C19.3472 32.1973 19.3152 32.1201 19.3152 32.0397C19.3152 31.9593 19.3472 31.8822 19.4043 31.8253C19.4614 31.7684 19.5388 31.7365 19.6195 31.7365C19.9456 31.7365 20.2925 31.9046 20.7717 32.1385C21.6351 32.5578 22.9394 33.1894 25.0037 33.1894C26.1472 33.1894 27.9202 32.4495 29.7975 31.6655C31.9444 30.7697 34.1635 29.841 35.853 29.841C37.0414 29.8315 38.2255 29.9848 39.372 30.2967L39.3068 30.4422Z" fill="#E9BF72"/>
<path d="M17.5317 19.6485C18.6813 18.2927 20.4256 17.4298 22.4603 17.351V17.506C20.4708 17.584 18.7647 18.4304 17.6422 19.7585L17.5317 19.6485Z" fill="#E9BF72"/>
<path d="M40.0659 23.2568C39.0616 22.9492 37.5442 22.4858 36.066 22.4858C35.053 22.4858 33.167 22.4858 27.8819 24.234L27.815 24.2565C24.2229 25.4452 23.1386 25.803 18.2257 25.803C18.1459 25.803 18.0693 25.7714 18.0129 25.7152C17.9565 25.6589 17.9248 25.5827 17.9248 25.5032C17.9248 25.4237 17.9565 25.3475 18.0129 25.2912C18.0693 25.235 18.1459 25.2035 18.2257 25.2035C23.0412 25.2035 24.1038 24.8526 27.6254 23.6882L27.6924 23.6657C28.1002 23.5297 28.4897 23.4058 28.8593 23.2897L28.8732 23.4474C28.5144 23.56 28.1376 23.6813 27.7428 23.8112L27.6741 23.8338C24.1359 25.0042 23.0655 25.3577 18.2265 25.3577C18.1878 25.3577 18.1506 25.373 18.1232 25.4003C18.0958 25.4276 18.0805 25.4646 18.0805 25.5032C18.0805 25.5418 18.0958 25.5788 18.1232 25.6061C18.1506 25.6334 18.1878 25.6487 18.2265 25.6487C23.1142 25.6487 24.1933 25.2918 27.7671 24.1101L27.8341 24.0876C28.4236 23.8927 28.9697 23.7203 29.4784 23.5678C33.5531 22.3324 35.1582 22.3324 36.0669 22.3324C37.5668 22.3324 39.0964 22.8002 40.1094 23.1121C40.465 23.2213 40.7502 23.3088 40.9702 23.359C40.9702 23.411 40.9702 23.463 40.9633 23.5141C40.7355 23.4638 40.4389 23.372 40.0659 23.2568Z" fill="#E9BF72"/>
<path d="M22.5446 17.7763C20.5446 17.8352 18.8412 18.699 17.7569 20.0539L17.6925 20.0037C17.7144 19.9704 17.7241 19.9306 17.72 19.891C17.7159 19.8514 17.6982 19.8144 17.6699 19.7862L17.6421 19.7585C18.7647 18.4304 20.4707 17.584 22.4602 17.506V17.558C22.4604 17.6387 22.4904 17.7164 22.5446 17.7763Z" fill="#E9BF72"/>
<path d="M17.5316 19.6485L17.6421 19.7589C17.6012 19.8067 17.5612 19.8563 17.5221 19.9067L17.4099 19.792C17.4499 19.7459 17.4908 19.6963 17.5316 19.6485Z" fill="#E9BF72"/>
<path d="M17.356 20.1267C17.4081 20.0519 17.4638 19.9788 17.522 19.9058L17.5664 19.9501L17.3725 20.1432L17.356 20.1267Z" fill="#E9BF72"/>
<path d="M17.5221 19.9058C17.4639 19.9786 17.4082 20.0513 17.3561 20.1258L17.2439 20.015C17.2969 19.9405 17.3526 19.8668 17.41 19.7949L17.5221 19.9058Z" fill="#E9BF72"/>
<path d="M17.67 20.0305L17.4534 20.2463C17.4208 20.2785 17.3768 20.2965 17.3308 20.2965C17.3033 20.2965 17.2762 20.29 17.2517 20.2775C17.2848 20.2255 17.3195 20.1761 17.3561 20.1258L17.3726 20.1423L17.5665 19.95L17.5221 19.9058C17.5613 19.8555 17.6013 19.8062 17.6421 19.7585L17.67 19.7862C17.6982 19.8144 17.7159 19.8514 17.72 19.891C17.7241 19.9306 17.7144 19.9704 17.6926 20.0037C17.686 20.0134 17.6784 20.0224 17.67 20.0305Z" fill="#E9BF72"/>
<path d="M17.2441 20.0149L17.3563 20.1262C17.3197 20.1767 17.285 20.2262 17.2519 20.2784C17.2358 20.2705 17.2211 20.2599 17.2084 20.2471L17.1345 20.1732C17.1693 20.1193 17.2067 20.0671 17.2441 20.0149Z" fill="#E9BF72"/>
<path d="M17.7571 20.0513C18.8414 18.6964 20.5457 17.8327 22.5447 17.7737C22.5756 17.8073 22.613 17.8342 22.6548 17.8527C22.6965 17.8712 22.7417 17.8809 22.7873 17.8812V17.9228H22.7708C19.2874 17.9228 16.6614 20.4022 16.6554 23.69C16.6067 23.69 16.5554 23.6822 16.5006 23.677C16.4935 22.3612 16.9367 21.0824 17.7571 20.0513Z" fill="#E9BF72"/>
<path d="M16.4995 23.7058V23.6796C16.5545 23.6848 16.6061 23.69 16.655 23.6927V23.8499L16.4995 23.835V23.7058Z" fill="#E9BF72"/>
<path d="M16.8482 23.8554C19.5569 23.8554 22.5142 23.1424 22.5429 23.1346C22.581 23.1255 22.6213 23.1317 22.6548 23.152C22.6884 23.1723 22.7125 23.205 22.722 23.2429C22.7267 23.2616 22.7276 23.2811 22.7247 23.3002C22.7218 23.3192 22.7151 23.3376 22.7051 23.3541C22.6951 23.3706 22.6819 23.3849 22.6663 23.3963C22.6507 23.4077 22.633 23.416 22.6142 23.4205C22.5837 23.4275 19.5925 24.15 16.8482 24.15C16.6313 24.1458 16.415 24.1276 16.2004 24.0954V23.9958H16.6543V23.8485C16.7256 23.852 16.7952 23.8554 16.8482 23.8554Z" fill="#E9BF72"/>
<path d="M17.6926 20.0037L17.757 20.0539C16.9363 21.0849 16.4928 22.3637 16.4996 23.6796C16.4126 23.6718 16.3257 23.6596 16.2266 23.6466C16.227 22.4474 16.5837 21.2751 17.2518 20.2775C17.2762 20.29 17.3034 20.2965 17.3309 20.2965C17.3768 20.2965 17.4209 20.2785 17.4535 20.2463L17.67 20.0305C17.6785 20.0224 17.686 20.0134 17.6926 20.0037Z" fill="#E9BF72"/>
<path d="M16.4995 23.8339V23.8417H16.2256V23.8017C16.323 23.8139 16.4151 23.8252 16.4995 23.8339Z" fill="#E9BF72"/>
<path d="M16.4995 23.7058V23.8345C16.4125 23.8258 16.3256 23.8145 16.2256 23.8023V23.7058C16.2256 23.6858 16.2256 23.6666 16.2256 23.6466C16.323 23.6597 16.4151 23.6719 16.4986 23.6797L16.4995 23.7058Z" fill="#E9BF72"/>
<path d="M16.0718 23.625C16.0759 22.3949 16.4456 21.1936 17.1344 20.1726L17.2083 20.2463C17.2209 20.259 17.2356 20.2696 17.2517 20.2775C16.5837 21.2751 16.2269 22.4474 16.2266 23.6466L16.0718 23.625Z" fill="#E9BF72"/>
<path d="M16.071 23.9966V23.7766L16.2258 23.7983V23.8383H16.4997V23.8305L16.6545 23.8453V23.9931H16.071V23.9966Z" fill="#E9BF72"/>
<path d="M16.071 23.7062C16.071 23.6791 16.071 23.6521 16.071 23.625L16.2265 23.6468C16.2265 23.6669 16.2265 23.6861 16.2265 23.7062V23.8032L16.071 23.7813V23.7062Z" fill="#E9BF72"/>
<path d="M16.0439 35.2564C15.4196 35.4938 14.7752 35.7398 14.1596 35.7398C13.6193 35.7462 13.081 35.6744 12.5614 35.5267C12.4527 35.4917 12.3404 35.469 12.2266 35.4591C12.2087 35.4591 12.1909 35.4556 12.1744 35.4488C12.1578 35.442 12.1427 35.4319 12.1301 35.4193C12.1174 35.4067 12.1073 35.3917 12.1005 35.3752C12.0936 35.3587 12.0901 35.341 12.0901 35.3231C12.0901 35.3053 12.0936 35.2876 12.1005 35.2711C12.1073 35.2546 12.1174 35.2396 12.1301 35.227C12.1427 35.2143 12.1578 35.2043 12.1744 35.1975C12.1909 35.1906 12.2087 35.1871 12.2266 35.1871C12.3644 35.1957 12.5005 35.2216 12.6318 35.2642C13.1287 35.4041 13.6433 35.472 14.1596 35.4661C14.7248 35.4661 15.3456 35.2313 15.9456 35.0017C16.57 34.7652 17.2143 34.52 17.8291 34.52C18.7301 34.5294 19.6201 34.7188 20.4464 35.0771C20.4799 35.0911 20.5064 35.1177 20.5203 35.1511C20.5341 35.1846 20.5341 35.2221 20.5203 35.2556C20.5057 35.2887 20.4788 35.3148 20.4451 35.3284C20.4115 35.342 20.3739 35.342 20.3403 35.3283C19.5476 34.984 18.6937 34.8017 17.8291 34.7921C17.2647 34.7921 16.6439 35.0286 16.0439 35.2564Z" fill="#E9BF72"/>
<path d="M12.6718 35.1152C13.1557 35.2516 13.6568 35.3179 14.1596 35.3119C14.6961 35.3119 15.303 35.0806 15.8908 34.8579C16.5273 34.6162 17.1856 34.3658 17.829 34.3658C18.7508 34.3747 19.6613 34.5682 20.5064 34.935C20.5417 34.9497 20.5738 34.9712 20.6008 34.9983C20.6278 35.0254 20.6492 35.0575 20.6637 35.0929C20.6781 35.1282 20.6854 35.1661 20.6851 35.2043C20.6849 35.2425 20.677 35.2802 20.662 35.3153C20.6475 35.3508 20.626 35.3829 20.5986 35.4097C20.5712 35.4365 20.5387 35.4575 20.5029 35.4713C20.4675 35.4861 20.4295 35.4937 20.3911 35.4937C20.3528 35.4937 20.3148 35.4861 20.2794 35.4713C19.5061 35.1349 18.6728 34.9566 17.829 34.9471C17.2934 34.9471 16.6865 35.1785 16.0987 35.4011C15.4613 35.6437 14.803 35.8949 14.1596 35.8949C13.6058 35.9018 13.0539 35.8283 12.5214 35.6766C12.4255 35.6459 12.3267 35.625 12.2266 35.6142C12.1493 35.6142 12.0752 35.5837 12.0206 35.5292C11.966 35.4748 11.9353 35.401 11.9353 35.324C11.9353 35.247 11.966 35.1732 12.0206 35.1188C12.0752 35.0644 12.1493 35.0338 12.2266 35.0338C12.3779 35.0419 12.5275 35.0693 12.6718 35.1152ZM12.2266 35.1871C12.1904 35.1871 12.1557 35.2015 12.1301 35.227C12.1045 35.2525 12.0901 35.2871 12.0901 35.3231C12.0901 35.3592 12.1045 35.3938 12.1301 35.4193C12.1557 35.4448 12.1904 35.4592 12.2266 35.4592C12.3404 35.469 12.4527 35.4917 12.5614 35.5267C13.081 35.6744 13.6193 35.7462 14.1596 35.7398C14.7752 35.7398 15.4195 35.4938 16.0439 35.2564C16.6439 35.0286 17.2612 34.7921 17.829 34.7921C18.6937 34.8017 19.5476 34.984 20.3403 35.3283C20.3739 35.342 20.4115 35.342 20.4451 35.3284C20.4788 35.3148 20.5057 35.2887 20.5203 35.2556C20.5341 35.2221 20.5341 35.1846 20.5203 35.1511C20.5064 35.1177 20.4799 35.0911 20.4464 35.0771C19.6201 34.7188 18.7301 34.5294 17.829 34.52C17.2143 34.52 16.57 34.7652 15.9456 35.0017C15.3456 35.2313 14.7283 35.4661 14.1596 35.4661C13.6433 35.472 13.1287 35.4041 12.6318 35.2642C12.5005 35.2217 12.3644 35.1957 12.2266 35.1871Z" fill="#E9BF72"/>
<path d="M17.244 20.0149L9.64767 12.4466C9.62249 12.4209 9.6084 12.3864 9.6084 12.3505C9.6084 12.3145 9.62249 12.28 9.64767 12.2543C9.67379 12.229 9.70866 12.2148 9.74505 12.2144C9.78033 12.2152 9.81396 12.2295 9.83896 12.2543L17.404 19.7914C17.3527 19.8668 17.297 19.9404 17.244 20.0149Z" fill="#E9BF72"/>
<path d="M14.6325 23.5401C15.169 23.6345 15.6638 23.722 16.0707 23.7801V23.9958H16.2003V24.0954C15.7655 24.0382 15.2151 23.9412 14.5812 23.8294C13.1308 23.5739 11.3274 23.2551 9.90133 23.2551C7.604 23.2551 5.42754 24.1214 4.38061 24.5398C4.19105 24.6161 4.05975 24.6672 3.96497 24.701C3.95454 24.6005 3.94411 24.5 3.93628 24.3978C4.03019 24.3622 4.14845 24.3111 4.27105 24.2661C5.3345 23.8416 7.54661 22.9614 9.90133 22.9614C11.3526 22.9614 13.1708 23.2819 14.6325 23.5401Z" fill="#E9BF72"/>
<path d="M9.03099 11.1783L17.5316 19.6485C17.4899 19.6962 17.4499 19.7455 17.4099 19.7949L9.84488 12.2578C9.81923 12.2323 9.78454 12.218 9.74836 12.2179C9.71196 12.2183 9.67709 12.2325 9.65097 12.2578C9.62579 12.2835 9.6117 12.318 9.6117 12.3539C9.6117 12.3899 9.62579 12.4244 9.65097 12.4501L17.2473 20.0184C17.2099 20.0704 17.1725 20.1224 17.1377 20.1761L8.55622 11.6262C8.54174 11.6116 8.52864 11.5956 8.51709 11.5786L9.03099 11.1783Z" fill="#E9BF72"/>
<path d="M9.0311 11.1783L8.50937 11.5751C8.47799 11.5303 8.45908 11.4779 8.45459 11.4235L8.88936 11.0882C8.93432 11.1035 8.9751 11.129 9.00849 11.1627L9.0311 11.1783Z" fill="#E9BF72"/>
<path d="M8.89546 11.0882L8.46069 11.4235C8.45939 11.4131 8.45939 11.4027 8.46069 11.3923C8.46065 11.3496 8.46916 11.3072 8.48573 11.2678C8.50231 11.2284 8.5266 11.1927 8.5572 11.1627C8.56415 11.1546 8.57203 11.1473 8.58068 11.1411C8.62487 11.1074 8.67664 11.085 8.7315 11.0758C8.78635 11.0666 8.84263 11.0708 8.89546 11.0882Z" fill="#E9BF72"/>
<path d="M8.89534 11.0882C8.8419 11.0701 8.78479 11.0654 8.7291 11.0746C8.67342 11.0839 8.62089 11.1067 8.57621 11.1411L8.50317 11.0449L22.5289 0.310104C22.4843 0.367375 22.4601 0.437775 22.4602 0.510228V0.706021L8.89534 11.0882Z" fill="#E9BF72"/>
<path d="M5.61824 28.8429C6.49474 28.3959 8.12599 27.5668 11.372 27.5668C13.3763 27.5668 15.1284 28.0251 16.9823 28.5103H16.9927C18.8579 28.9971 20.7856 29.5005 23.0099 29.5005C23.0306 29.4989 23.0513 29.5016 23.0709 29.5084C23.0905 29.5152 23.1084 29.526 23.1236 29.54C23.1388 29.554 23.1509 29.571 23.1592 29.5899C23.1675 29.6089 23.1718 29.6293 23.1718 29.6499C23.1718 29.6706 23.1675 29.691 23.1592 29.7099C23.1509 29.7288 23.1388 29.7458 23.1236 29.7598C23.1084 29.7739 23.0905 29.7846 23.0709 29.7914C23.0513 29.7982 23.0306 29.8009 23.0099 29.7994C20.743 29.7994 18.7926 29.29 16.9057 28.797C15.071 28.3171 13.3406 27.8622 11.372 27.8622C8.19817 27.8622 6.66951 28.6419 5.75563 29.1063C5.54428 29.2252 5.32178 29.3233 5.0913 29.3991C5.05391 29.3047 5.01913 29.2094 4.98608 29.115C5.14347 29.0855 5.34607 28.9807 5.61824 28.8429Z" fill="#E9BF72"/>
<path d="M5.54844 28.7069C6.43363 28.2547 8.08402 27.4126 11.3744 27.4126C13.3986 27.4126 15.1595 27.8735 17.022 28.3612L16.9951 28.5137H16.9846C15.1308 28.0286 13.3786 27.5703 11.3744 27.5703C8.12836 27.5703 6.49711 28.3994 5.62061 28.8464C5.34844 28.9841 5.14323 29.089 4.98845 29.1219C4.97048 29.0745 4.95309 29.026 4.93628 28.9763C5.06671 28.9547 5.27801 28.8481 5.54496 28.7164L5.54844 28.7069Z" fill="#E9BF72"/>
<path d="M5.75192 29.1098C6.6658 28.6454 8.19445 27.8657 11.3683 27.8657C13.3334 27.8657 15.0673 28.3205 16.902 28.8005C18.7889 29.2934 20.7393 29.8028 23.0062 29.8028C23.0269 29.8044 23.0476 29.8017 23.0672 29.7949C23.0867 29.7881 23.1047 29.7774 23.1199 29.7633C23.1351 29.7493 23.1472 29.7323 23.1555 29.7134C23.1638 29.6945 23.1681 29.674 23.1681 29.6534C23.1681 29.6327 23.1638 29.6123 23.1555 29.5934C23.1472 29.5745 23.1351 29.5575 23.1199 29.5435C23.1047 29.5294 23.0867 29.5187 23.0672 29.5119C23.0476 29.5051 23.0269 29.5024 23.0062 29.5039C20.7819 29.5039 18.8541 29.0006 16.989 28.5137L17.0281 28.3647C18.8828 28.8481 20.801 29.3497 23.0062 29.3497C23.0481 29.3466 23.0902 29.3521 23.1299 29.3659C23.1695 29.3797 23.2059 29.4015 23.2367 29.43C23.2676 29.4584 23.2921 29.4929 23.3089 29.5313C23.3258 29.5697 23.3344 29.6111 23.3344 29.653C23.3344 29.6948 23.3258 29.7362 23.3089 29.7746C23.2921 29.813 23.2676 29.8475 23.2367 29.8759C23.2059 29.9044 23.1695 29.9262 23.1299 29.94C23.0902 29.9538 23.0481 29.9593 23.0062 29.9562C20.7184 29.9562 18.7594 29.445 16.8629 28.9486C15.036 28.4704 13.3169 28.0216 11.3718 28.0216C8.24141 28.0216 6.73102 28.7884 5.8293 29.2466C5.61207 29.3691 5.38348 29.4703 5.14671 29.549C5.12759 29.5005 5.10846 29.452 5.09106 29.4043C5.32042 29.3277 5.54174 29.2291 5.75192 29.1098Z" fill="#E9BF72"/>
<path d="M9.10052 35.9443C7.31582 34.1198 5.91848 31.9556 4.99194 29.5811C5.04436 29.5748 5.09614 29.5641 5.14672 29.549C6.06366 31.896 7.44591 34.0348 9.21095 35.8377C12.6595 39.3698 17.2594 41.352 22.1671 41.4187H22.4201C27.22 41.4187 31.772 39.5604 35.2641 36.1704C36.8496 34.6363 38.1533 32.8375 39.1162 30.8554C39.1866 30.8754 39.237 30.8892 39.2684 30.8996C38.2953 32.9062 36.9769 34.7274 35.3728 36.2804C31.7886 39.7597 27.0965 41.637 22.1654 41.5703C17.2159 41.5036 12.5769 39.505 9.10052 35.9443Z" fill="#E9BF72"/>
<path d="M4.98609 29.1184C5.01914 29.2129 5.05392 29.3082 5.09131 29.4026C5.04543 29.4149 4.9986 29.4233 4.95131 29.4277C4.94584 29.4286 4.94027 29.4286 4.93479 29.4277C4.90175 29.3411 4.86958 29.2545 4.8374 29.1678C4.86156 29.1462 4.89203 29.1328 4.92436 29.1297C4.94518 29.1274 4.96581 29.1237 4.98609 29.1184Z" fill="#E9BF72"/>
<path d="M5.14428 29.5484C5.09347 29.5636 5.04146 29.5744 4.9888 29.5808C4.97046 29.531 4.95037 29.4803 4.93115 29.4297C4.93665 29.4305 4.94225 29.4305 4.94775 29.4297C4.99525 29.4252 5.04229 29.4167 5.08838 29.4043C5.10935 29.4506 5.12856 29.4995 5.14428 29.5484Z" fill="#E9BF72"/>
<path d="M4.9346 29.4304C4.8975 29.4291 4.86215 29.4144 4.83511 29.3889C4.80808 29.3635 4.79121 29.3291 4.78765 29.2922C4.78568 29.2689 4.78913 29.2455 4.79773 29.2237C4.80633 29.202 4.81984 29.1826 4.83721 29.167C4.86938 29.2548 4.90156 29.3426 4.9346 29.4304Z" fill="#E9BF72"/>
<path d="M4.83746 29.1685L4.78418 29.0165C4.82287 28.9937 4.86612 28.9797 4.91084 28.9755H4.93442C4.95073 29.0256 4.9682 29.0745 4.98683 29.1222C4.96644 29.1272 4.94571 29.1307 4.92481 29.1327C4.89265 29.1351 4.86207 29.1477 4.83746 29.1685Z" fill="#E9BF72"/>
<path d="M4.9695 29.581C4.92983 29.5849 4.88978 29.5809 4.8517 29.5691C4.81363 29.5574 4.77829 29.5382 4.74777 29.5126C4.70889 29.4806 4.67895 29.4391 4.66082 29.3922C4.64889 29.3647 4.64155 29.3354 4.63908 29.3056C4.6341 29.2483 4.64551 29.1908 4.67198 29.1398C4.69845 29.0887 4.7389 29.0462 4.78864 29.0171L4.84168 29.1678C4.82431 29.1834 4.8108 29.2027 4.8022 29.2244C4.7936 29.246 4.79015 29.2694 4.79212 29.2926C4.79568 29.3294 4.81255 29.3636 4.83958 29.389C4.86662 29.4143 4.90197 29.429 4.93907 29.4303C4.9582 29.4806 4.9782 29.5308 4.99646 29.5802L4.9695 29.581Z" fill="#E9BF72"/>
<path d="M4.99207 29.5811C5.9184 31.9562 7.31575 34.121 9.10065 35.946C12.5788 39.5067 17.2161 41.5053 22.1611 41.5729C27.0923 41.6396 31.7843 39.7623 35.3686 36.283C36.9727 34.73 38.2911 32.9088 39.2641 30.9022L39.298 30.9126C39.347 30.9289 39.3994 30.9324 39.4501 30.9227C39.5008 30.9129 39.5482 30.8904 39.5876 30.8572C38.5953 32.9571 37.2305 34.8613 35.559 36.478C31.9861 39.9433 27.328 41.8493 22.4185 41.8493C22.3316 41.8493 22.2446 41.8493 22.1577 41.8493C17.1396 41.7808 12.4327 39.7536 8.90326 36.1401C7.02318 34.2182 5.56819 31.9251 4.63208 29.4087L4.65643 29.3991C4.67456 29.446 4.7045 29.4875 4.74338 29.5195C4.77497 29.5444 4.81127 29.5627 4.85012 29.5733C4.88897 29.5838 4.92956 29.5865 4.96946 29.5811H4.99207Z" fill="#E9BF72"/>
<path d="M3.75197 24.9072C3.77883 24.9074 3.80565 24.9048 3.83196 24.8994C3.9962 26.3028 4.31702 27.6836 4.78846 29.0162C4.73871 29.0453 4.69827 29.0878 4.6718 29.1389C4.64532 29.19 4.63392 29.2474 4.6389 29.3047C4.64137 29.3346 4.64871 29.3638 4.66064 29.3913L4.63629 29.4009C4.08962 27.9258 3.72606 26.3896 3.55371 24.8266C3.60728 24.8773 3.67806 24.9061 3.75197 24.9072Z" fill="#E9BF72"/>
<path d="M5.14335 29.5473C5.38011 29.4686 5.6087 29.3673 5.82594 29.2449C6.73113 28.7866 8.23891 28.0216 11.3719 28.0216C13.3144 28.0216 15.0361 28.4721 16.8665 28.9512C18.763 29.4476 20.722 29.9588 23.0098 29.9588C23.0517 29.9619 23.0938 29.9564 23.1335 29.9426C23.1731 29.9288 23.2095 29.907 23.2403 29.8785C23.2711 29.8501 23.2957 29.8156 23.3125 29.7772C23.3293 29.7388 23.338 29.6974 23.338 29.6556C23.338 29.6137 23.3293 29.5723 23.3125 29.5339C23.2957 29.4955 23.2711 29.461 23.2403 29.4326C23.2095 29.4041 23.1731 29.3823 23.1335 29.3685C23.0938 29.3547 23.0517 29.3492 23.0098 29.3523C20.8046 29.3523 18.8864 28.8507 17.0317 28.3673L16.9926 28.5163L17.0195 28.3638C15.157 27.8735 13.3962 27.4152 11.3719 27.4152C8.08413 27.4152 6.43375 28.2573 5.54595 28.7095H5.53638C5.27552 28.8438 5.06161 28.9504 4.9277 28.9694C4.45699 27.6373 4.13819 26.2566 3.97729 24.8534C4.07816 24.8197 4.21903 24.7668 4.43207 24.6802C5.4703 24.2669 7.62762 23.4067 9.89539 23.4067C11.3075 23.4067 13.104 23.7246 14.5483 23.9793C15.5691 24.1586 16.3743 24.3016 16.8421 24.3016C19.5516 24.3016 22.5168 23.599 22.6437 23.5678C22.6823 23.5584 22.7187 23.5414 22.7507 23.518C22.7827 23.4946 22.8098 23.4651 22.8304 23.4312C22.851 23.3973 22.8647 23.3598 22.8707 23.3206C22.8767 23.2815 22.8749 23.2415 22.8654 23.2031C22.8564 23.1644 22.8394 23.128 22.8156 23.0961C22.7918 23.0642 22.7617 23.0375 22.7272 23.0177C22.6937 22.9969 22.6563 22.9831 22.6173 22.977C22.5783 22.9709 22.5385 22.9726 22.5002 22.9822C22.4707 22.9891 19.5238 23.6986 16.8421 23.6986C16.7856 23.6986 16.7204 23.6986 16.6482 23.69C16.6543 20.4022 19.2803 17.9227 22.7637 17.9227H22.7802C24.628 17.9227 26.2488 18.6513 27.3531 19.8408C27.3603 19.8547 27.3697 19.8672 27.381 19.8781L27.4418 19.9387C28.266 20.871 28.7627 22.0456 28.8566 23.2845C28.487 23.4006 28.0975 23.5245 27.6897 23.6605L27.6227 23.683C24.1011 24.8474 23.0385 25.1982 18.223 25.1982C18.1432 25.1982 18.0667 25.2298 18.0102 25.286C17.9538 25.3423 17.9221 25.4185 17.9221 25.498C17.9221 25.5775 17.9538 25.6537 18.0102 25.71C18.0667 25.7662 18.1432 25.7978 18.223 25.7978C23.1359 25.7978 24.2228 25.44 27.8123 24.2513L27.8792 24.2288C33.1643 22.4805 35.0503 22.4805 36.0633 22.4805C37.5415 22.4805 39.0554 22.944 40.0632 23.2516C40.4363 23.3651 40.7328 23.4569 40.9632 23.5063C40.8614 25.8475 40.3208 28.1491 39.3693 30.2923C38.2235 29.9822 37.0403 29.8303 35.8529 29.841C34.1634 29.841 31.9443 30.7671 29.7974 31.6646C27.9201 32.4486 26.1454 33.1885 25.0036 33.1885C22.9394 33.1885 21.635 32.5569 20.7716 32.1376C20.2925 31.9037 19.9455 31.7356 19.6195 31.7356C19.5387 31.7356 19.4613 31.7676 19.4043 31.8244C19.3472 31.8813 19.3151 31.9584 19.3151 32.0389C19.3151 32.1193 19.3472 32.1964 19.4043 32.2533C19.4613 32.3101 19.5387 32.3421 19.6195 32.3421C19.8055 32.3421 20.1299 32.5006 20.5055 32.6825C21.4185 33.1261 22.7985 33.7958 25.0036 33.7958C26.2706 33.7958 28.0975 33.0334 30.0331 32.2242C32.12 31.351 34.2851 30.4474 35.8529 30.4474C36.9525 30.441 38.0481 30.5782 39.1119 30.8554C38.149 32.8375 36.8454 34.6363 35.2599 36.1704C31.7678 39.5604 27.2158 41.4187 22.4159 41.4187H22.1629C17.2595 41.352 12.6597 39.3698 9.20671 35.8377C7.44179 34.0342 6.05982 31.8948 5.14335 29.5473ZM38.3494 26.4544C38.3642 26.419 38.3718 26.381 38.3718 26.3427C38.3718 26.3043 38.3642 26.2663 38.3494 26.2309C38.335 26.1957 38.3138 26.1638 38.2869 26.1368C38.2601 26.1099 38.2281 26.0886 38.1928 26.0741C37.3488 25.7094 36.4398 25.5173 35.5199 25.5093C34.8773 25.5093 34.2156 25.7588 33.5808 26.0013C32.9939 26.2249 32.386 26.4553 31.8504 26.4553C31.3464 26.4608 30.8443 26.3928 30.36 26.2534C30.2159 26.2058 30.0663 26.1767 29.9148 26.1668C29.8373 26.1668 29.763 26.1975 29.7082 26.2521C29.6534 26.3067 29.6226 26.3807 29.6226 26.4579C29.6226 26.5351 29.6534 26.6091 29.7082 26.6637C29.763 26.7183 29.8373 26.749 29.9148 26.749C30.0149 26.7599 30.1137 26.7808 30.2096 26.8114C30.7422 26.9625 31.294 27.0357 31.8478 27.0288C32.4913 27.0288 33.1521 26.7785 33.7869 26.5359C34.3729 26.3132 34.9808 26.0819 35.5173 26.0819C36.3607 26.0905 37.1938 26.2672 37.9676 26.6017C38.0029 26.6163 38.0407 26.6238 38.0789 26.6238C38.1171 26.6238 38.1549 26.6163 38.1902 26.6017C38.2257 26.5891 38.2584 26.5695 38.2863 26.5443C38.3142 26.519 38.3368 26.4885 38.3528 26.4544H38.3494ZM20.662 35.3153C20.677 35.2802 20.6849 35.2425 20.6852 35.2043C20.6855 35.1661 20.6782 35.1282 20.6637 35.0929C20.6492 35.0575 20.6279 35.0254 20.6009 34.9983C20.5739 34.9712 20.5418 34.9497 20.5064 34.935C19.6613 34.5682 18.7508 34.3747 17.8291 34.3658C17.1856 34.3658 16.5248 34.6162 15.8909 34.8579C15.3031 35.0806 14.6961 35.3119 14.1596 35.3119C13.6568 35.3179 13.1557 35.2516 12.6718 35.1152C12.5276 35.069 12.3779 35.0413 12.2266 35.0329C12.1494 35.0329 12.0753 35.0635 12.0206 35.1179C11.966 35.1723 11.9353 35.2462 11.9353 35.3231C11.9353 35.4001 11.966 35.4739 12.0206 35.5284C12.0753 35.5828 12.1494 35.6134 12.2266 35.6134C12.3267 35.6242 12.4255 35.6451 12.5214 35.6757C13.0539 35.8274 13.6058 35.901 14.1596 35.8941C14.8031 35.8941 15.4639 35.6428 16.0987 35.4002C16.6865 35.1776 17.2934 34.9463 17.8291 34.9463C18.673 34.9563 19.5062 35.1351 20.2794 35.4721C20.3148 35.4869 20.3528 35.4946 20.3912 35.4946C20.4295 35.4946 20.4675 35.4869 20.5029 35.4721C20.5388 35.4582 20.5714 35.4371 20.5988 35.4102C20.6261 35.3832 20.6477 35.3509 20.662 35.3153Z" fill="#007F8F"/>
<path d="M3.92579 24.2375C3.88144 23.7107 3.85971 23.1788 3.85971 22.6452C3.85589 20.3841 4.25876 18.1406 5.04924 16.0211C5.06229 15.9826 5.06718 15.9417 5.06359 15.9011C5.06 15.8606 5.048 15.8212 5.02837 15.7855C5.00914 15.7492 4.98262 15.7172 4.95046 15.6916C4.91829 15.666 4.88118 15.6472 4.84142 15.6365C4.79709 15.6233 4.75022 15.621 4.7048 15.6297C4.65938 15.6385 4.61675 15.658 4.58055 15.6867L0.621537 18.7518L0.585885 17.8526C0.582937 17.7903 0.594974 17.7283 0.620991 17.6716C0.647009 17.615 0.686252 17.5653 0.735446 17.5268L8.51522 11.5716C8.52677 11.5887 8.53987 11.6046 8.55435 11.6193L17.1341 20.1726C16.4454 21.1936 16.0757 22.3949 16.0715 23.625C15.6715 23.5669 15.1837 23.4803 14.6542 23.3867C13.189 23.1268 11.3638 22.8063 9.90127 22.8063C7.51786 22.8063 5.28662 23.6952 4.21361 24.1223C4.12144 24.1595 4.01274 24.2028 3.92579 24.2375Z" fill="#007F8F"/>
<path d="M9.90144 23.4093C7.63368 23.4093 5.47635 24.2695 4.43812 24.6828C4.22508 24.7694 4.08422 24.8231 3.98335 24.856C3.97639 24.8049 3.97117 24.753 3.96509 24.7001C4.05987 24.6663 4.19117 24.6135 4.38073 24.539C5.42765 24.1231 7.60411 23.2568 9.90144 23.2568C11.3275 23.2568 13.1309 23.5756 14.5813 23.8312C15.2152 23.9429 15.7665 24.04 16.2004 24.0971C16.4149 24.1293 16.6313 24.1476 16.8482 24.1517C19.5925 24.1517 22.5872 23.4292 22.6141 23.4223C22.6329 23.4177 22.6506 23.4095 22.6663 23.3981C22.6819 23.3867 22.6951 23.3723 22.7051 23.3558C22.7151 23.3393 22.7217 23.321 22.7246 23.3019C22.7275 23.2828 22.7266 23.2634 22.7219 23.2447C22.7125 23.2067 22.6883 23.174 22.6548 23.1537C22.6212 23.1335 22.581 23.1272 22.5428 23.1364C22.5141 23.1442 19.5568 23.8572 16.8482 23.8572C16.7908 23.8572 16.7256 23.8572 16.6543 23.8502V23.69C16.7265 23.6952 16.7917 23.6986 16.8482 23.6986C19.5299 23.6986 22.4767 22.9891 22.5063 22.9822C22.5446 22.9726 22.5844 22.9709 22.6234 22.977C22.6624 22.9831 22.6997 22.9969 22.7332 23.0177C22.7678 23.0375 22.7979 23.0642 22.8217 23.0961C22.8455 23.128 22.8624 23.1644 22.8715 23.2031C22.881 23.2415 22.8828 23.2815 22.8768 23.3206C22.8707 23.3598 22.8571 23.3973 22.8365 23.4312C22.8159 23.4651 22.7888 23.4946 22.7568 23.518C22.7247 23.5414 22.6884 23.5584 22.6498 23.5678C22.5228 23.599 19.5577 24.3016 16.8482 24.3016C16.3821 24.3016 15.5752 24.1586 14.5544 23.9793C13.11 23.7272 11.3171 23.4093 9.90144 23.4093Z" fill="#E9BF72"/>
<path d="M4.78413 29.0162C4.31269 27.6836 3.99187 26.3028 3.82764 24.8994C3.87911 24.8892 3.9297 24.875 3.97894 24.8569C4.14111 26.2608 4.46137 27.6421 4.93369 28.9746H4.91022C4.86563 28.9791 4.82257 28.9933 4.78413 29.0162Z" fill="#E9BF72"/>
<path d="M3.96515 24.701C3.91605 24.7193 3.8658 24.7343 3.81472 24.746C3.80429 24.6473 3.79385 24.5494 3.78516 24.4506C3.8182 24.4411 3.87211 24.4229 3.93646 24.3978C3.94428 24.5 3.95472 24.6005 3.96515 24.701Z" fill="#E9BF72"/>
<path d="M16.0708 23.7766C15.6639 23.7185 15.1691 23.631 14.6326 23.5366C13.1709 23.2767 11.3527 22.9579 9.90146 22.9579C7.54674 22.9579 5.33463 23.8381 4.27119 24.2626C4.14858 24.3111 4.03032 24.3588 3.93641 24.3943C3.92946 24.3406 3.92598 24.2877 3.92163 24.234C4.00858 24.1994 4.12163 24.156 4.2138 24.1188C5.28681 23.6917 7.51805 22.8028 9.90146 22.8028C11.364 22.8028 13.1892 23.1242 14.6544 23.3833C15.1839 23.4768 15.6717 23.5635 16.0717 23.6215C16.0717 23.6484 16.0717 23.6752 16.0717 23.7021L16.0708 23.7766Z" fill="#E9BF72"/>
<path d="M3.83192 24.9045C3.82581 24.8529 3.81969 24.8023 3.81445 24.7499C3.86577 24.7381 3.91625 24.7229 3.96557 24.7044C3.97168 24.7577 3.97692 24.8101 3.98391 24.8617C3.93445 24.8799 3.88363 24.8942 3.83192 24.9045Z" fill="#E9BF72"/>
<path d="M3.78522 24.4524C3.7791 24.3999 3.77561 24.3475 3.77124 24.296C3.80618 24.2829 3.85859 24.2628 3.92235 24.2375C3.92672 24.2916 3.93022 24.3449 3.9372 24.3991C3.87169 24.4244 3.81841 24.4428 3.78522 24.4524Z" fill="#E9BF72"/>
<path d="M3.60522 24.6065C3.60522 24.5676 3.62065 24.5301 3.64816 24.5024C3.67567 24.4747 3.71304 24.4589 3.75218 24.4584C3.76348 24.4572 3.77459 24.4546 3.78522 24.4506C3.79392 24.5494 3.80435 24.6473 3.81478 24.746C3.79424 24.7508 3.77326 24.7534 3.75218 24.7538C3.71312 24.7536 3.67575 24.738 3.64821 24.7104C3.62068 24.6828 3.60522 24.6455 3.60522 24.6065Z" fill="#E9BF72"/>
<path d="M3.83206 24.9028C3.80575 24.9083 3.77893 24.9109 3.75207 24.9106C3.6769 24.9111 3.60439 24.8829 3.54946 24.8318C3.54077 24.7608 3.53294 24.6897 3.52686 24.6178L3.60511 24.61C3.60511 24.6489 3.62057 24.6863 3.6481 24.7138C3.67564 24.7414 3.71301 24.7571 3.75207 24.7573C3.77315 24.7568 3.79413 24.7542 3.81467 24.7495C3.81989 24.798 3.82598 24.8483 3.83206 24.9028Z" fill="#E9BF72"/>
<path d="M3.75188 24.4584C3.71275 24.4589 3.67537 24.4747 3.64786 24.5024C3.62035 24.5301 3.60492 24.5675 3.60493 24.6065L3.52667 24.6143C3.51884 24.5528 3.51363 24.4913 3.50928 24.4289C3.53547 24.3924 3.56967 24.3622 3.60929 24.3407C3.64891 24.3193 3.69291 24.3071 3.73797 24.3051L3.77101 24.2955C3.77536 24.3466 3.77883 24.3986 3.78492 24.4506C3.77429 24.4546 3.76318 24.4572 3.75188 24.4584Z" fill="#E9BF72"/>
<path d="M3.52696 24.6143C3.53305 24.6862 3.54087 24.7573 3.54957 24.8283C3.51831 24.8004 3.49332 24.7662 3.47623 24.728C3.45915 24.6898 3.45036 24.6484 3.45044 24.6065C3.45019 24.5425 3.47095 24.4801 3.50957 24.4289C3.51392 24.4913 3.51914 24.5563 3.52696 24.6143Z" fill="#E9BF72"/>
<path d="M0.429524 17.863C0.425554 17.7761 0.442413 17.6895 0.478703 17.6104C0.514994 17.5313 0.569673 17.462 0.638214 17.4081L8.45886 11.4235C8.46335 11.478 8.48225 11.5303 8.51364 11.5751L0.733863 17.5303C0.684668 17.5688 0.645425 17.6184 0.619407 17.6751C0.59339 17.7318 0.581353 17.7938 0.584302 17.856L0.621692 18.7518L4.58158 15.6833C4.61777 15.6546 4.6604 15.635 4.70582 15.6262C4.75124 15.6175 4.79811 15.6198 4.84244 15.633C4.8822 15.6437 4.91932 15.6625 4.95148 15.6881C4.98365 15.7138 5.01017 15.7457 5.02939 15.782C5.04903 15.8177 5.06102 15.8571 5.06461 15.8977C5.0682 15.9382 5.06332 15.9791 5.05026 16.0177C4.25979 18.1372 3.85691 20.3806 3.86073 22.6417C3.86073 23.1754 3.88247 23.7073 3.92681 24.234C3.86508 24.2591 3.81117 24.2791 3.77638 24.2921C3.72943 23.7463 3.70595 23.1961 3.70595 22.6417C3.70248 20.3621 4.10828 18.1003 4.90418 15.9631C4.90997 15.9448 4.91188 15.9255 4.90978 15.9064C4.90769 15.8873 4.90163 15.8688 4.892 15.8522C4.87209 15.8175 4.8393 15.792 4.8007 15.7812C4.78852 15.7778 4.77595 15.776 4.76331 15.776C4.73194 15.7756 4.70134 15.7856 4.67636 15.8046L0.477348 19.0611L0.429524 17.863Z" fill="#E9BF72"/>
<path d="M0.638296 17.4081C0.569755 17.462 0.515076 17.5313 0.478785 17.6104C0.442495 17.6895 0.425636 17.7761 0.429606 17.863L0.47743 19.0611L4.6747 15.8063C4.69968 15.7874 4.73028 15.7773 4.76166 15.7777C4.77429 15.7778 4.78687 15.7795 4.79905 15.7829C4.83765 15.7937 4.87043 15.8192 4.89035 15.8539C4.89998 15.8706 4.90603 15.889 4.90813 15.9081C4.91022 15.9272 4.90831 15.9465 4.90252 15.9648C4.10662 18.102 3.70082 20.3638 3.70429 22.6434C3.70429 23.1967 3.72777 23.7468 3.77473 24.2938L3.74169 24.3033C3.69663 24.3053 3.65263 24.3175 3.61301 24.339C3.57339 24.3605 3.53919 24.3906 3.513 24.4272C3.45821 23.8381 3.43126 23.2421 3.43126 22.6434C3.4277 20.483 3.78685 18.3372 4.49384 16.2949L0.562645 19.3409C0.531117 19.3646 0.493725 19.3792 0.454479 19.3833C0.415233 19.3874 0.375613 19.3807 0.339867 19.3641C0.304122 19.3474 0.273599 19.3214 0.251571 19.2888C0.229544 19.2562 0.216842 19.2182 0.214829 19.1789L0.161787 17.8725C0.155702 17.7428 0.18059 17.6136 0.234404 17.4953C0.288218 17.3771 0.369422 17.2733 0.471343 17.1924L8.50329 11.0414L8.57633 11.1376C8.56768 11.1439 8.5598 11.1511 8.55285 11.1592C8.52225 11.1892 8.49795 11.2249 8.48138 11.2643C8.46481 11.3038 8.45629 11.3461 8.45633 11.3888C8.45504 11.3992 8.45504 11.4097 8.45633 11.42L0.638296 17.4081Z" fill="#E9BF72"/>
<path d="M41.5666 22.8921C41.5417 25.4504 41.0071 27.9784 39.9939 30.3293C38.9806 32.6802 37.509 34.8073 35.6642 36.5871C32.0669 40.0767 27.3627 42 22.415 42C22.3281 42 22.2411 42 22.1542 42C17.0943 41.9316 12.3483 39.8861 8.79105 36.2441C6.3322 33.7056 4.60627 30.5533 3.79518 27.1193C2.98409 23.6853 3.1179 20.0969 4.18249 16.7324L0.653027 19.4683C0.598955 19.5101 0.534366 19.5362 0.466361 19.5438C0.398357 19.5514 0.329569 19.5401 0.267559 19.5113C0.205549 19.4825 0.152717 19.4372 0.114873 19.3804C0.0770278 19.3236 0.0556346 19.2575 0.0530445 19.1893L0.00087219 17.8855C-0.0057007 17.7304 0.0249518 17.5761 0.0902841 17.4352C0.155616 17.2943 0.253743 17.171 0.376514 17.0755L22.6002 0.061463C22.6515 0.0216303 22.7147 0 22.7798 0C22.8448 0 22.908 0.0216303 22.9593 0.061463L44.6631 17.1924C44.7763 17.2837 44.8676 17.3991 44.9302 17.5301C44.9928 17.6611 45.0251 17.8045 45.0248 17.9496L44.9822 19.3011C44.9804 19.3695 44.9595 19.436 44.9218 19.4932C44.884 19.5503 44.831 19.5958 44.7686 19.6245C44.7063 19.6531 44.6371 19.6639 44.569 19.6554C44.5008 19.6469 44.4365 19.6196 44.3831 19.5766L40.6841 16.8138C41.2971 18.7811 41.5949 20.8324 41.5666 22.8921ZM41.4119 22.8921C41.443 20.6856 41.096 18.4899 40.3858 16.3997L44.4805 19.4579C44.5116 19.4831 44.5493 19.4991 44.5892 19.5038C44.629 19.5086 44.6694 19.502 44.7057 19.4848C44.7396 19.4693 44.7687 19.4451 44.7899 19.4146C44.8112 19.3841 44.8238 19.3485 44.8265 19.3115C44.8269 19.3072 44.8269 19.3028 44.8265 19.2985L44.87 17.9522C44.8704 17.8302 44.8433 17.7098 44.7906 17.5997C44.7379 17.4896 44.661 17.3928 44.5657 17.3163L36.5007 10.9522L22.8637 0.184483C22.8391 0.164649 22.8084 0.153829 22.7767 0.153829C22.7451 0.153829 22.7144 0.164649 22.6898 0.184483L22.655 0.21134C22.6037 0.232942 22.5588 0.267235 22.5246 0.310968L8.50324 11.0414L0.471293 17.1924C0.368013 17.2728 0.285493 17.3767 0.230593 17.4952C0.175693 17.6138 0.15 17.7438 0.15565 17.8742L0.208692 19.185C0.210706 19.2243 0.223407 19.2622 0.245434 19.2949C0.267462 19.3275 0.297985 19.3535 0.33373 19.3702C0.369476 19.3868 0.409096 19.3934 0.448342 19.3894C0.487588 19.3853 0.52498 19.3706 0.556508 19.347L4.4877 16.301C3.78071 18.3433 3.42156 20.4891 3.42512 22.6495C3.42512 23.2481 3.45208 23.8442 3.50686 24.4333C3.46824 24.4845 3.44748 24.5468 3.44773 24.6109C3.44765 24.6527 3.45644 24.6941 3.47352 24.7323C3.49061 24.7705 3.51559 24.8047 3.54686 24.8327C4.01314 29.0914 5.89802 33.0718 8.90062 36.1384C12.4301 39.7519 17.1369 41.7791 22.155 41.8475C22.242 41.8475 22.3289 41.8475 22.4159 41.8475C27.3253 41.8475 31.9808 39.9416 35.5564 36.4762C37.2279 34.8595 38.5927 32.9554 39.585 30.8554C39.6294 30.8205 39.6624 30.7732 39.6797 30.7194C39.6909 30.6868 39.6962 30.6525 39.6954 30.6181C40.7129 28.377 41.2888 25.9621 41.3919 23.5046C41.4013 23.4989 41.4103 23.4925 41.4188 23.4855C41.4496 23.4603 41.4751 23.4292 41.4938 23.3941C41.5124 23.359 41.5239 23.3206 41.5275 23.281C41.5324 23.2302 41.5239 23.1789 41.5029 23.1322C41.4818 23.0856 41.449 23.0452 41.4075 23.0151C41.411 22.9735 41.4119 22.9319 41.4119 22.8903V22.8921Z" fill="#E9BF72"/>
<path d="M67.589 25.138C67.5926 25.3398 67.5531 25.54 67.4732 25.7247C67.3932 25.9095 67.2748 26.0744 67.126 26.2081C66.8395 26.4874 66.4572 26.6425 66.0601 26.6406C65.8623 26.6503 65.6647 26.6183 65.4797 26.5465C65.2947 26.4747 65.1264 26.3647 64.9854 26.2236C64.8443 26.0824 64.7336 25.913 64.6603 25.7262C64.5869 25.5393 64.5525 25.3391 64.5592 25.138V10.908C64.5538 10.7082 64.5897 10.5094 64.6647 10.3245C64.7396 10.1397 64.8519 9.97283 64.9942 9.83477C65.1424 9.69091 65.3175 9.57879 65.5091 9.50504C65.7008 9.43129 65.905 9.39742 66.1098 9.40547C66.3007 9.40465 66.4898 9.44215 66.6663 9.51583C66.8428 9.5895 67.0033 9.69789 67.1384 9.83477C67.2841 9.97105 67.3995 10.1372 67.4772 10.3222C67.5549 10.5072 67.593 10.7069 67.589 10.908V25.138Z" fill="#007F8F"/>
<path d="M77.5985 9.38021C77.8473 9.38538 78.0917 9.44799 78.3132 9.5633C78.5426 9.66858 78.7393 9.8356 78.8819 10.0463L84.7863 19.2541L83.5743 19.2036L89.6092 10.0494C89.7348 9.8448 89.9097 9.67621 90.1175 9.55964C90.3253 9.44306 90.5589 9.38239 90.7963 9.38337C91.1835 9.38227 91.5563 9.53261 91.8373 9.8032C91.9886 9.93763 92.1085 10.1045 92.1886 10.2917C92.2687 10.4789 92.3068 10.6819 92.3003 10.8859V25.1412C92.3051 25.3433 92.2683 25.5442 92.1925 25.7311C92.1167 25.918 92.0035 26.0869 91.86 26.227C91.7165 26.3671 91.546 26.4754 91.3591 26.545C91.1722 26.6145 90.9732 26.6439 90.7745 26.6311C90.5713 26.6392 90.3687 26.605 90.179 26.5307C89.9892 26.4563 89.8165 26.3433 89.6714 26.1987C89.5327 26.0591 89.4237 25.8921 89.351 25.708C89.2783 25.524 89.2435 25.3268 89.2487 25.1286V13.5406L90.181 13.7616L85.2369 21.4195C85.0831 21.6068 84.8979 21.7649 84.6899 21.8867C84.4915 22.0136 84.259 22.0743 84.0249 22.0603C83.7979 22.0726 83.5728 22.0118 83.3817 21.8867C83.1737 21.7649 82.9885 21.6068 82.8347 21.4195L78.2076 13.9857L78.8291 12.6789V25.138C78.8413 25.5319 78.7032 25.9152 78.4437 26.2081C78.3145 26.3505 78.1566 26.4629 77.9806 26.5375C77.8047 26.6121 77.615 26.6473 77.4245 26.6406C77.2377 26.6462 77.0521 26.6103 76.8803 26.5357C76.7086 26.461 76.555 26.3492 76.43 26.2081C76.1697 25.9156 76.0306 25.5322 76.0416 25.138V10.8828C76.0396 10.6838 76.0786 10.4866 76.1562 10.3039C76.2338 10.1213 76.3483 9.95713 76.4922 9.82214C76.6371 9.67569 76.8101 9.56092 77.0003 9.48492C77.1906 9.40892 77.3942 9.37328 77.5985 9.38021Z" fill="#007F8F"/>
<path d="M102.297 9.38021C102.546 9.38538 102.791 9.448 103.012 9.5633C103.242 9.66774 103.439 9.83494 103.581 10.0463L109.485 19.2541L108.273 19.2036L114.308 10.0494C114.434 9.84481 114.609 9.67621 114.816 9.55964C115.024 9.44306 115.258 9.38239 115.495 9.38337C115.883 9.38276 116.257 9.53297 116.539 9.8032C116.689 9.93835 116.809 10.1054 116.888 10.2925C116.967 10.4796 117.005 10.6822 116.999 10.8859V25.1412C117.005 25.3424 116.971 25.5427 116.897 25.7295C116.823 25.9164 116.712 26.0857 116.571 26.2268C116.43 26.368 116.261 26.4779 116.076 26.5496C115.891 26.6214 115.693 26.6534 115.495 26.6437C115.292 26.6518 115.089 26.6177 114.9 26.5433C114.71 26.4689 114.537 26.3559 114.392 26.2113C114.253 26.0717 114.144 25.9047 114.072 25.7207C113.999 25.5366 113.964 25.3394 113.969 25.1412V13.5406L114.902 13.7616L109.958 21.4195C109.807 21.6093 109.625 21.7707 109.42 21.8962C109.221 22.023 108.989 22.0837 108.755 22.0698C108.528 22.0821 108.303 22.0213 108.112 21.8962C107.904 21.7751 107.72 21.6169 107.568 21.429L102.938 13.9952L103.559 12.6884V25.1475C103.57 25.5417 103.431 25.925 103.171 26.2176C103.041 26.36 102.883 26.4723 102.707 26.547C102.532 26.6216 102.342 26.6568 102.151 26.6501C101.965 26.6556 101.779 26.6198 101.607 26.5451C101.435 26.4705 101.282 26.3587 101.157 26.2176C100.897 25.9247 100.759 25.5413 100.772 25.1475V10.8828C100.769 10.684 100.807 10.4869 100.885 10.3042C100.962 10.1215 101.076 9.95729 101.219 9.82214C101.361 9.67919 101.529 9.56644 101.714 9.49055C101.899 9.41465 102.098 9.37714 102.297 9.38021Z" fill="#007F8F"/>
<path d="M141.08 18.023C141.089 19.2002 140.884 20.369 140.474 21.4701C140.085 22.5113 139.505 23.468 138.765 24.2889C138.011 25.1181 137.096 25.7798 136.079 26.2324C135.061 26.685 133.962 26.9187 132.851 26.9187C131.74 26.9187 130.641 26.685 129.623 26.2324C128.605 25.7798 127.691 25.1181 126.937 24.2889C126.197 23.468 125.617 22.5113 125.228 21.4701C124.42 19.2453 124.42 16.8007 125.228 14.576C125.616 13.5344 126.196 12.5776 126.937 11.7571C127.684 10.9245 128.597 10.2624 129.615 9.81459C130.633 9.36676 131.732 9.14341 132.842 9.15926C133.978 9.14894 135.104 9.38347 136.145 9.8474C137.135 10.291 138.025 10.9355 138.761 11.7414C139.503 12.5619 140.083 13.5186 140.471 14.5602C140.884 15.666 141.09 16.8403 141.08 18.023ZM137.929 18.023C137.943 16.9872 137.719 15.9623 137.273 15.0306C136.868 14.174 136.25 13.4396 135.48 12.8998C134.692 12.3865 133.775 12.1137 132.838 12.1137C131.902 12.1137 130.985 12.3865 130.197 12.8998C129.429 13.4339 128.814 14.1646 128.413 15.0179C127.991 15.9594 127.772 16.9821 127.772 18.0167C127.772 19.0514 127.991 20.074 128.413 21.0155C128.81 21.8746 129.426 22.6102 130.197 23.1462C130.985 23.6614 131.902 23.9354 132.838 23.9354C133.775 23.9354 134.692 23.6614 135.48 23.1462C136.251 22.608 136.87 21.8732 137.273 21.0155C137.719 20.0838 137.943 19.0588 137.929 18.023Z" fill="#007F8F"/>
<path d="M150.266 9.40547C150.456 9.40465 150.646 9.44215 150.822 9.51583C150.999 9.5895 151.159 9.69789 151.294 9.83477C151.441 9.97054 151.556 10.1366 151.634 10.3217C151.712 10.5069 151.75 10.7068 151.745 10.908V25.138C151.748 25.3395 151.709 25.5393 151.63 25.7239C151.55 25.9086 151.433 26.0737 151.285 26.2081C150.997 26.4876 150.614 26.6427 150.216 26.6406C150.018 26.6503 149.821 26.6183 149.636 26.5465C149.451 26.4747 149.282 26.3647 149.141 26.2236C149 26.0824 148.889 25.913 148.816 25.7262C148.743 25.5393 148.708 25.3391 148.715 25.138V10.908C148.71 10.7083 148.746 10.5097 148.821 10.3249C148.896 10.1401 149.008 9.97318 149.15 9.83477C149.298 9.69121 149.474 9.57927 149.665 9.50554C149.857 9.43181 150.061 9.39778 150.266 9.40547ZM150.194 16.5678H161.005V19.4088H150.194V16.5678ZM161.005 9.40547C161.203 9.39531 161.401 9.42703 161.587 9.4986C161.772 9.57018 161.941 9.68006 162.082 9.8213C162.224 9.96254 162.335 10.132 162.408 10.3191C162.482 10.5062 162.516 10.7067 162.509 10.908V25.138C162.514 25.3365 162.479 25.5338 162.405 25.7178C162.332 25.9018 162.223 26.0687 162.084 26.2081C161.935 26.3542 161.759 26.4679 161.565 26.5422C161.372 26.6166 161.165 26.6501 160.959 26.6406C160.767 26.6409 160.578 26.6029 160.401 26.5287C160.223 26.4545 160.063 26.3455 159.927 26.2081C159.782 26.0722 159.667 25.9064 159.59 25.722C159.513 25.5375 159.475 25.3384 159.48 25.138V10.908C159.475 10.706 159.514 10.5053 159.593 10.32C159.673 10.1347 159.791 9.96915 159.939 9.83477C160.226 9.55634 160.609 9.40236 161.005 9.40547Z" fill="#007F8F"/>
<path d="M172.469 9.40547H180.583C180.973 9.39449 181.351 9.53962 181.636 9.80952C181.776 9.94388 181.886 10.1068 181.959 10.2874C182.031 10.4681 182.066 10.6624 182.059 10.8575C182.066 11.0453 182.032 11.2322 181.959 11.4048C181.886 11.5773 181.776 11.7311 181.636 11.855C181.346 12.1132 180.969 12.2497 180.583 12.237H173.802L174.02 11.8171V16.6183L173.824 16.4226H179.498C179.888 16.4116 180.267 16.5568 180.552 16.8267C180.691 16.961 180.801 17.1239 180.874 17.3046C180.947 17.4852 180.981 17.6796 180.975 17.8747C180.982 18.0624 180.947 18.2494 180.874 18.4219C180.801 18.5945 180.691 18.7483 180.552 18.8722C180.261 19.1303 179.885 19.2668 179.498 19.2541H173.905L174.026 19.0552V24.0301L173.83 23.8091H180.583C180.778 23.8038 180.972 23.8392 181.153 23.913C181.335 23.9868 181.499 24.0976 181.636 24.2384C181.77 24.3666 181.877 24.5213 181.949 24.6928C182.022 24.8643 182.059 25.0492 182.059 25.2359C182.065 25.4253 182.03 25.6138 181.957 25.7882C181.884 25.9626 181.775 26.1188 181.636 26.246C181.347 26.507 180.97 26.6449 180.583 26.6311H172.469C172.274 26.6354 172.079 26.5995 171.898 26.5255C171.717 26.4515 171.552 26.341 171.414 26.2006C171.276 26.0602 171.167 25.8929 171.094 25.7086C171.021 25.5244 170.986 25.3271 170.99 25.1286V10.908C170.985 10.7094 171.02 10.5119 171.093 10.3274C171.166 10.143 171.274 9.97546 171.413 9.83498C171.551 9.69449 171.716 9.58399 171.898 9.51016C172.079 9.43634 172.274 9.40071 172.469 9.40547Z" fill="#007F8F"/>
<path d="M199.057 23.7586C199.449 23.748 199.828 23.8943 200.114 24.1658C200.253 24.2999 200.362 24.4623 200.435 24.6424C200.508 24.8224 200.543 25.0161 200.537 25.2106C200.541 25.4017 200.506 25.5916 200.433 25.7679C200.36 25.9441 200.251 26.1027 200.114 26.2334C199.828 26.5049 199.449 26.6512 199.057 26.6406H191.18C190.985 26.644 190.791 26.6075 190.61 26.5332C190.429 26.4589 190.264 26.3483 190.126 26.2081C189.988 26.0679 189.879 25.9009 189.806 25.7171C189.733 25.5332 189.697 25.3363 189.701 25.138V10.908C189.696 10.7079 189.732 10.509 189.808 10.3242C189.883 10.1393 189.996 9.97255 190.139 9.83477C190.287 9.69091 190.462 9.57879 190.654 9.50504C190.845 9.43129 191.05 9.39742 191.254 9.40547C191.64 9.40451 192.01 9.5589 192.283 9.83477C192.428 9.97121 192.543 10.1375 192.62 10.3225C192.697 10.5075 192.735 10.7071 192.73 10.908V24.1658L192.199 23.746L199.057 23.7586Z" fill="#007F8F"/>
<path d="M215.176 9.40546C216.02 9.40654 216.843 9.66379 217.541 10.1441C218.287 10.6495 218.898 11.3336 219.322 12.1359C219.78 12.9982 220.014 13.9654 219.999 14.9453C220.009 15.8873 219.789 16.817 219.361 17.6523C218.932 18.4875 218.307 19.2025 217.541 19.7339C216.846 20.2221 216.021 20.4841 215.176 20.4852H210.726L210.969 20.0401V25.138C210.98 25.5322 210.841 25.9156 210.58 26.2081C210.452 26.3508 210.295 26.4633 210.119 26.538C209.944 26.6127 209.754 26.6477 209.564 26.6406C209.377 26.6462 209.192 26.6103 209.02 26.5357C208.848 26.461 208.695 26.3492 208.57 26.2081C208.309 25.9156 208.17 25.5322 208.181 25.138V10.908C208.177 10.7094 208.212 10.5119 208.284 10.3274C208.357 10.143 208.466 9.97545 208.604 9.83497C208.742 9.69449 208.907 9.58398 209.089 9.51016C209.27 9.43633 209.465 9.40071 209.66 9.40546H215.176ZM215.176 17.679C215.514 17.6657 215.834 17.525 216.074 17.2844C216.382 16.9966 216.629 16.6488 216.802 16.2616C216.992 15.8499 217.091 15.4004 217.091 14.9453C217.092 14.5068 217.002 14.073 216.826 13.6722C216.651 13.2713 216.395 12.9124 216.074 12.6189C215.831 12.384 215.512 12.248 215.176 12.237H210.667L210.959 11.7919V18.0704L210.692 17.679H215.176Z" fill="#007F8F"/>
<path d="M66.8756 38.2852C66.4366 38.2852 66.041 38.1939 65.689 38.0114C65.337 37.8248 65.0595 37.5689 64.8565 37.2434C64.6577 36.918 64.5583 36.5548 64.5583 36.154C64.5583 35.7531 64.6577 35.39 64.8565 35.0646C65.0595 34.7391 65.337 34.4851 65.689 34.3026C66.041 34.116 66.4366 34.0228 66.8756 34.0228C67.3104 34.0228 67.7039 34.116 68.0559 34.3026C68.408 34.4851 68.6834 34.7391 68.8822 35.0646C69.081 35.386 69.1804 35.7492 69.1804 36.154C69.1804 36.5588 69.081 36.9239 68.8822 37.2494C68.6834 37.5708 68.408 37.8248 68.0559 38.0114C67.7039 38.1939 67.3104 38.2852 66.8756 38.2852ZM66.8756 37.7554C67.1945 37.7554 67.4803 37.6859 67.7329 37.547C67.9897 37.4081 68.1905 37.2176 68.3355 36.9755C68.4846 36.7295 68.5591 36.4556 68.5591 36.154C68.5591 35.8524 68.4846 35.5805 68.3355 35.3384C68.1905 35.0923 67.9897 34.8999 67.7329 34.761C67.4803 34.622 67.1945 34.5526 66.8756 34.5526C66.5567 34.5526 66.2668 34.622 66.0058 34.761C65.7491 34.8999 65.5461 35.0923 65.397 35.3384C65.2521 35.5805 65.1796 35.8524 65.1796 36.154C65.1796 36.4556 65.2521 36.7295 65.397 36.9755C65.5461 37.2176 65.7491 37.4081 66.0058 37.547C66.2668 37.6859 66.5567 37.7554 66.8756 37.7554Z" fill="#007F8F"/>
<path d="M71.9315 38.2852C71.3517 38.2852 70.9002 38.1265 70.5772 37.809C70.2542 37.4915 70.0926 37.0351 70.0926 36.4397V34.0704H70.7139V36.4159C70.7139 37.3089 71.1218 37.7554 71.9377 37.7554C72.3353 37.7554 72.6397 37.6462 72.8509 37.428C73.0622 37.2057 73.1678 36.8684 73.1678 36.4159V34.0704H73.7704V36.4397C73.7704 37.039 73.6089 37.4974 73.2858 37.8149C72.9628 38.1285 72.5113 38.2852 71.9315 38.2852Z" fill="#007F8F"/>
<path d="M77.9514 38.2376L77.0133 36.9577C76.8974 36.9656 76.8063 36.9696 76.74 36.9696H75.6653V38.2376H75.044V34.0704H76.74C77.3033 34.0704 77.7464 34.1994 78.0695 34.4573C78.3925 34.7153 78.554 35.0705 78.554 35.523C78.554 35.8444 78.4712 36.1183 78.3055 36.3445C78.1399 36.5707 77.9038 36.7354 77.5973 36.8386L78.6286 38.2376H77.9514ZM76.7214 36.4636C77.1148 36.4636 77.4151 36.3822 77.6222 36.2195C77.8292 36.0568 77.9328 35.8246 77.9328 35.523C77.9328 35.2213 77.8292 34.9911 77.6222 34.8324C77.4151 34.6697 77.1148 34.5883 76.7214 34.5883H75.6653V36.4636H76.7214Z" fill="#007F8F"/>
<path d="M84.9659 34.0704V38.2376H84.3447V36.3802H81.8473V38.2376H81.2261V34.0704H81.8473V35.8623H84.3447V34.0704H84.9659Z" fill="#007F8F"/>
<path d="M88.2307 38.2852C87.7917 38.2852 87.3962 38.1939 87.0441 38.0114C86.6921 37.8248 86.4146 37.5689 86.2117 37.2434C86.0129 36.918 85.9135 36.5548 85.9135 36.154C85.9135 35.7531 86.0129 35.39 86.2117 35.0646C86.4146 34.7391 86.6921 34.4851 87.0441 34.3026C87.3962 34.116 87.7917 34.0228 88.2307 34.0228C88.6656 34.0228 89.059 34.116 89.4111 34.3026C89.7631 34.4851 90.0385 34.7391 90.2373 35.0646C90.4361 35.386 90.5355 35.7492 90.5355 36.154C90.5355 36.5588 90.4361 36.9239 90.2373 37.2494C90.0385 37.5708 89.7631 37.8248 89.4111 38.0114C89.059 38.1939 88.6656 38.2852 88.2307 38.2852ZM88.2307 37.7554C88.5496 37.7554 88.8354 37.6859 89.088 37.547C89.3448 37.4081 89.5457 37.2176 89.6906 36.9755C89.8397 36.7295 89.9143 36.4556 89.9143 36.154C89.9143 35.8524 89.8397 35.5805 89.6906 35.3384C89.5457 35.0923 89.3448 34.8999 89.088 34.761C88.8354 34.622 88.5496 34.5526 88.2307 34.5526C87.9118 34.5526 87.6219 34.622 87.361 34.761C87.1042 34.8999 86.9013 35.0923 86.7522 35.3384C86.6072 35.5805 86.5347 35.8524 86.5347 36.154C86.5347 36.4556 86.6072 36.7295 86.7522 36.9755C86.9013 37.2176 87.1042 37.4081 87.361 37.547C87.6219 37.6859 87.9118 37.7554 88.2307 37.7554Z" fill="#007F8F"/>
<path d="M95.5169 38.2376L95.5107 35.2015L93.9389 37.7316H93.6532L92.0814 35.2193V38.2376H91.485V34.0704H91.9945L93.8085 36.9993L95.5977 34.0704H96.1071L96.1133 38.2376H95.5169Z" fill="#007F8F"/>
<path d="M100.574 37.7197V38.2376H97.4184V34.0704H100.487V34.5883H98.0396V35.8682H100.22V36.3743H98.0396V37.7197H100.574Z" fill="#007F8F"/>
<path d="M103.249 34.0704H103.87V38.2376H103.249V34.0704Z" fill="#007F8F"/>
<path d="M108.912 34.0704V38.2376H108.402L105.793 35.1301V38.2376H105.172V34.0704H105.681L108.29 37.1779V34.0704H108.912Z" fill="#007F8F"/>
<path d="M113.149 38.2852C112.822 38.2852 112.505 38.2376 112.198 38.1423C111.896 38.0431 111.658 37.9161 111.484 37.7613L111.714 37.297C111.88 37.4399 112.091 37.5569 112.348 37.6482C112.608 37.7355 112.876 37.7792 113.149 37.7792C113.509 37.7792 113.778 37.7217 113.957 37.6066C114.135 37.4875 114.224 37.3307 114.224 37.1363C114.224 36.9934 114.174 36.8783 114.075 36.791C113.979 36.6997 113.859 36.6302 113.714 36.5826C113.573 36.535 113.373 36.4814 113.112 36.4219C112.784 36.3465 112.519 36.2711 112.316 36.1957C112.118 36.1203 111.946 36.0052 111.801 35.8504C111.66 35.6916 111.59 35.4793 111.59 35.2134C111.59 34.9911 111.65 34.7907 111.77 34.6121C111.894 34.4335 112.08 34.2907 112.329 34.1835C112.577 34.0763 112.886 34.0228 113.255 34.0228C113.511 34.0228 113.764 34.0545 114.012 34.118C114.261 34.1815 114.474 34.2728 114.652 34.3919L114.447 34.8681C114.265 34.757 114.07 34.6736 113.863 34.6181C113.656 34.5585 113.453 34.5288 113.255 34.5288C112.903 34.5288 112.637 34.5903 112.459 34.7133C112.285 34.8364 112.198 34.9951 112.198 35.1896C112.198 35.3325 112.248 35.4495 112.348 35.5408C112.447 35.6281 112.569 35.6976 112.714 35.7492C112.863 35.7968 113.064 35.8484 113.317 35.904C113.644 35.9794 113.907 36.0548 114.106 36.1302C114.304 36.2056 114.474 36.3207 114.615 36.4755C114.76 36.6302 114.833 36.8386 114.833 37.1005C114.833 37.3188 114.77 37.5192 114.646 37.7018C114.522 37.8804 114.333 38.0233 114.081 38.1304C113.828 38.2336 113.518 38.2852 113.149 38.2852Z" fill="#007F8F"/>
<path d="M117.436 34.0704C117.999 34.0704 118.442 34.1994 118.766 34.4573C119.089 34.7153 119.25 35.0705 119.25 35.523C119.25 35.9754 119.089 36.3306 118.766 36.5886C118.442 36.8465 117.999 36.9755 117.436 36.9755H116.361V38.2376H115.74V34.0704H117.436ZM117.417 36.4576C117.811 36.4576 118.111 36.3782 118.318 36.2195C118.525 36.0568 118.629 35.8246 118.629 35.523C118.629 35.2213 118.525 34.9911 118.318 34.8324C118.111 34.6697 117.811 34.5883 117.417 34.5883H116.361V36.4576H117.417Z" fill="#007F8F"/>
<path d="M122.715 37.1958H120.404L119.926 38.2376H119.286L121.255 34.0704H121.87L123.846 38.2376H123.193L122.715 37.1958ZM122.498 36.7195L121.56 34.6776L120.622 36.7195H122.498Z" fill="#007F8F"/>
<path d="M124.494 34.0704H125.116V38.2376H124.494V34.0704Z" fill="#007F8F"/>
<path d="M130.158 34.0704V38.2376H129.648L127.039 35.1301V38.2376H126.418V34.0704H126.927L129.536 37.1779V34.0704H130.158Z" fill="#007F8F"/>
</svg>
