<svg width="255" height="56" viewBox="0 0 255 56" fill="none" xmlns="http://www.w3.org/2000/svg">
<path d="M59.7136 23.919L59.6739 25.1631L54.1493 21.0682C54.0845 21.0196 54.006 20.9923 53.9248 20.99C53.8435 20.9878 53.7635 21.0106 53.6961 21.0555L53.6821 21.0647C53.6094 21.1133 53.5551 21.1843 53.5278 21.2667C53.5006 21.3492 53.5018 21.4382 53.5314 21.5198C54.5907 24.4009 55.1112 27.4484 55.0676 30.5136V30.5355C54.8 30.4685 54.4519 30.3634 54.0711 30.2479C52.6774 29.824 50.5664 29.1852 48.4636 29.1852C47.2206 29.1852 45.0302 29.1852 39.5478 30.8231C39.384 29.2304 38.7603 27.7179 37.751 26.466L48.9461 15.3989C48.9737 15.3719 48.9973 15.3412 49.0162 15.3076L59.5091 23.5274C59.571 23.5731 59.6216 23.6321 59.657 23.6999C59.6924 23.7678 59.7117 23.8427 59.7136 23.919Z" fill="#007F8F"/>
<path d="M55.6131 31.3392C55.619 31.2237 55.6236 31.1174 55.626 31.0065C55.6283 30.8956 55.633 30.7928 55.6342 30.6865C55.6898 30.7267 55.734 30.7805 55.7623 30.8427C55.7905 30.9049 55.8019 30.9733 55.7954 31.0411C55.7905 31.0939 55.7751 31.1451 55.75 31.1919C55.725 31.2387 55.6907 31.2801 55.6493 31.3138C55.638 31.3231 55.6259 31.3316 55.6131 31.3392Z" fill="#E9BF72"/>
<path d="M55.6342 30.6866C55.6342 30.7929 55.6342 30.9003 55.626 31.0066H55.5898C55.5894 30.9581 55.5707 30.9114 55.5375 30.8758C55.5042 30.8401 55.4587 30.818 55.4099 30.8137C55.3666 30.8137 55.3199 30.8021 55.2662 30.7929C55.2662 30.7224 55.2662 30.6543 55.2662 30.585C55.3269 30.5965 55.383 30.6046 55.4262 30.6092C55.5016 30.6147 55.5738 30.6416 55.6342 30.6866Z" fill="#E9BF72"/>
<path d="M55.5886 31.023C55.5864 31.0485 55.5791 31.0733 55.5671 31.096C55.5552 31.1186 55.5388 31.1387 55.5189 31.155C55.499 31.1714 55.476 31.1836 55.4513 31.1911C55.4265 31.1986 55.4005 31.2011 55.3748 31.1986C55.3356 31.1955 55.2966 31.1901 55.258 31.1824L55.2708 30.792C55.3246 30.8012 55.3713 30.8082 55.4145 30.8128C55.4632 30.8182 55.508 30.8413 55.5404 30.8776C55.5728 30.9139 55.5904 30.9608 55.5898 31.0092C55.5898 31.0092 55.5886 31.0184 55.5886 31.023Z" fill="#E9BF72"/>
<path d="M55.6131 31.3397C55.537 31.3904 55.4451 31.4129 55.3538 31.4032C55.317 31.4006 55.2803 31.396 55.244 31.3894C55.244 31.3212 55.244 31.2507 55.2533 31.1826C55.2919 31.1903 55.3309 31.1957 55.3702 31.1988C55.3959 31.2013 55.4219 31.1988 55.4466 31.1913C55.4713 31.1838 55.4943 31.1715 55.5142 31.1552C55.5341 31.1389 55.5505 31.1188 55.5625 31.0961C55.5745 31.0735 55.5817 31.0487 55.5839 31.0232C55.5839 31.0232 55.5839 31.0116 55.5839 31.0059H55.6248C55.6248 31.1179 55.6248 31.2288 55.6131 31.3397Z" fill="#E9BF72"/>
<path d="M55.2662 30.7921L55.2533 31.1825C55.1902 31.1745 55.1213 31.1606 55.0465 31.1444C55.0465 31.0127 55.0547 30.8799 55.0582 30.7471C55.1342 30.7656 55.2031 30.7783 55.2662 30.7921Z" fill="#E9BF72"/>
<path d="M55.2533 31.1822C55.2533 31.2503 55.2475 31.3208 55.244 31.3889C55.1797 31.3808 55.112 31.367 55.0372 31.3508C55.0372 31.2827 55.0442 31.2133 55.0465 31.144C55.1213 31.1602 55.1902 31.1741 55.2533 31.1822Z" fill="#E9BF72"/>
<path d="M55.0582 30.747V30.5356C55.1342 30.5553 55.2043 30.5715 55.265 30.5842C55.265 30.6535 55.265 30.7216 55.265 30.7921C55.2031 30.7782 55.1342 30.7655 55.0582 30.747Z" fill="#E9BF72"/>
<path d="M54.258 21.864C55.2121 24.6509 55.6783 27.5784 55.6365 30.5204C55.6365 30.5759 55.6365 30.6359 55.6365 30.6867C55.5769 30.6417 55.5056 30.6144 55.4309 30.6082C55.3853 30.6082 55.3316 30.5955 55.2708 30.5839C55.2708 30.562 55.2708 30.5377 55.2708 30.5158C55.3144 27.4258 54.7895 24.3537 53.7218 21.4493C53.708 21.4112 53.7074 21.3696 53.7201 21.3312C53.7327 21.2927 53.758 21.2595 53.7919 21.2367L53.8071 21.2263C53.8386 21.2052 53.8762 21.1943 53.9143 21.1954C53.9524 21.1964 53.9893 21.2093 54.0197 21.2321L59.8608 25.5638L59.9776 25.6528L59.9706 25.7244H60.0091L60.2159 25.7382C60.2123 25.7876 60.1953 25.8351 60.1667 25.8757C60.1382 25.9164 60.0991 25.9487 60.0535 25.9693C60.0048 25.9922 59.9506 26.001 59.897 25.9947C59.8434 25.9883 59.7928 25.9671 59.751 25.9334L54.258 21.864Z" fill="#E9BF72"/>
<path d="M59.7136 23.9187C59.713 23.8432 59.6953 23.7689 59.6617 23.7011C59.6281 23.6333 59.5796 23.5739 59.5197 23.5271L49.0267 15.3073C49.0655 15.2418 49.086 15.1672 49.0863 15.0913L59.6517 23.3666C59.7358 23.4341 59.8036 23.5193 59.8503 23.616C59.897 23.7127 59.9213 23.8185 59.9215 23.9256L59.8678 25.5636L54.0267 21.2319C53.9963 21.2091 53.9595 21.1962 53.9213 21.1952C53.8832 21.1941 53.8457 21.205 53.8141 21.2261L53.7989 21.2365C53.765 21.2593 53.7398 21.2925 53.7271 21.3309C53.7144 21.3694 53.715 21.411 53.7288 21.4491C54.7953 24.3537 55.319 27.4258 55.2743 30.5156C55.2743 30.5375 55.2743 30.5618 55.2743 30.5837C55.2136 30.571 55.1435 30.5549 55.0676 30.5352V30.5133C55.1082 27.4475 54.5845 24.4 53.522 21.5195C53.4925 21.4379 53.4912 21.3489 53.5185 21.2664C53.5458 21.184 53.6 21.113 53.6727 21.0644L53.6867 21.0552C53.7542 21.0103 53.8342 20.9875 53.9154 20.9897C53.9967 20.992 54.0752 21.0193 54.14 21.0679L59.6645 25.1628L59.7136 23.9187Z" fill="#E9BF72"/>
<path d="M53.0933 40.4648C54.3737 37.5978 55.103 34.5201 55.244 31.389C55.2803 31.3956 55.317 31.4003 55.3538 31.4029C55.4451 31.4126 55.537 31.3901 55.6131 31.3394C55.4752 34.6172 54.7014 37.8384 53.3339 40.8275C53.3333 40.7506 53.3102 40.6755 53.2675 40.6112C53.2249 40.5468 53.1644 40.496 53.0933 40.4648Z" fill="#E9BF72"/>
<path d="M53.1855 41.1407C53.2369 41.0368 53.2848 40.9305 53.3339 40.8242C53.335 40.8701 53.3278 40.9159 53.3129 40.9594C53.2897 41.031 53.2453 41.0942 53.1855 41.1407Z" fill="#E9BF72"/>
<path d="M55.244 31.3895C55.103 34.5205 54.3737 37.5982 53.0933 40.4652C53.0815 40.4584 53.069 40.4529 53.0559 40.449C53.0431 40.449 52.9893 40.4271 52.8959 40.3994C54.1748 37.5435 54.9022 34.4763 55.0407 31.356C55.112 31.3675 55.1797 31.3814 55.244 31.3895Z" fill="#E9BF72"/>
<path d="M53.0933 40.4643C53.0652 40.5278 53.0372 40.589 53.008 40.6526C53.0022 40.6489 52.9959 40.6462 52.9893 40.6445C52.9764 40.6445 52.9145 40.6191 52.8082 40.589L52.8958 40.3984C52.9893 40.4262 53.043 40.4435 53.0559 40.4481C53.069 40.452 53.0815 40.4574 53.0933 40.4643Z" fill="#E9BF72"/>
<path d="M52.9893 40.6453C52.9959 40.647 53.0022 40.6497 53.008 40.6534C52.9542 40.7689 52.8912 40.8925 52.8398 41.0138C52.807 41.0034 52.7393 40.9814 52.6388 40.9549C52.6961 40.8336 52.7556 40.7123 52.8082 40.5898C52.9145 40.6199 52.9764 40.6407 52.9893 40.6453Z" fill="#E9BF72"/>
<path d="M52.8398 41.0137C52.897 40.8924 52.9566 40.7735 53.008 40.6533C53.0534 40.673 53.0898 40.7089 53.1097 40.7538C53.1296 40.7988 53.1317 40.8495 53.1155 40.8959C53.0982 40.9454 53.0619 40.9862 53.0145 41.0095C52.9671 41.0328 52.9123 41.0368 52.8619 41.0207L52.8398 41.0137Z" fill="#E9BF72"/>
<path d="M52.8398 41.0135C52.8106 41.0747 52.7814 41.1383 52.751 41.2006C52.709 41.1868 52.6412 41.1683 52.5466 41.1417C52.5769 41.0805 52.6073 41.017 52.6389 40.9546C52.7393 40.9812 52.8071 41.0031 52.8398 41.0135Z" fill="#E9BF72"/>
<path d="M53.1856 41.1406C53.1326 41.1849 53.069 41.215 53.0008 41.2279C52.9327 41.2409 52.8623 41.2362 52.7965 41.2145L52.751 41.2007C52.7814 41.1383 52.8105 41.0747 52.8398 41.0135L52.862 41.0205C52.9123 41.0366 52.9671 41.0326 53.0145 41.0093C53.0619 40.986 53.0982 40.9452 53.1155 40.8957C53.1317 40.8493 53.1296 40.7986 53.1097 40.7536C53.0898 40.7087 53.0535 40.6728 53.008 40.6531C53.0372 40.5896 53.0652 40.5284 53.0933 40.4648C53.1638 40.4958 53.2239 40.5461 53.2666 40.6098C53.3092 40.6734 53.3326 40.7478 53.3339 40.8241C53.2884 40.9304 53.237 41.0366 53.1856 41.1406Z" fill="#E9BF72"/>
<path d="M49.0827 15.0881L48.5395 14.6619C48.6054 14.6472 48.6737 14.6472 48.7395 14.6618C48.8054 14.6764 48.8671 14.7052 48.9204 14.7462L48.9531 14.7751C48.9947 14.8161 49.0275 14.8649 49.0498 14.9187C49.0721 14.9724 49.0833 15.03 49.0827 15.0881Z" fill="#E9BF72"/>
<path d="M48.5372 14.665L49.0827 15.0913C49.0825 15.1672 49.0619 15.2417 49.0232 15.3073L48.3351 14.769C48.3913 14.7164 48.4613 14.6804 48.5372 14.665Z" fill="#E9BF72"/>
<path d="M59.9157 23.9262C59.9155 23.819 59.8911 23.7132 59.8445 23.6165C59.7978 23.5198 59.7299 23.4346 59.6458 23.3671L49.0828 15.0918C49.0828 15.0343 49.0714 14.9774 49.0492 14.9242C49.0269 14.8711 48.9943 14.8229 48.9531 14.7822L48.9204 14.7534L49.0372 14.6021L59.8724 23.0875C60.0006 23.1895 60.1039 23.3186 60.1746 23.4654C60.2454 23.6121 60.2819 23.7728 60.2813 23.9354L60.2229 25.7304C60.2235 25.7362 60.2235 25.742 60.2229 25.7478L60.0161 25.7339H59.9776L59.9846 25.6623L59.8678 25.5733L59.9157 23.9262Z" fill="#E9BF72"/>
<path d="M30.9753 0.911133L48.5372 14.6651C48.4605 14.68 48.3896 14.7161 48.3328 14.7691L31.0104 1.20684C31.0072 1.10747 30.9955 1.00854 30.9753 0.911133Z" fill="#E9BF72"/>
<path d="M48.3328 14.7693L48.3234 14.7785L37.1669 25.811C35.5439 24.1865 33.3577 23.232 31.0501 23.1404L31.0104 1.20703L48.3328 14.7693Z" fill="#007F8F"/>
<path d="M53.89 30.8152C52.529 30.4017 50.4741 29.7756 48.4589 29.7756C47.2381 29.7756 45.0816 29.7756 39.6073 31.4228L39.591 31.3696L39.5629 31.0289C45.0442 29.3921 47.2229 29.3921 48.4589 29.3921C50.5337 29.3921 52.6213 30.0286 54.0045 30.4479C54.4227 30.5749 54.7837 30.6789 55.0559 30.7505C55.0559 30.8833 55.0489 31.0162 55.0442 31.1479C54.751 31.0774 54.3678 30.9607 53.89 30.8152Z" fill="#E9BF72"/>
<path d="M47.119 16.3323C47.1534 16.2982 47.2001 16.2789 47.2488 16.2788C47.2976 16.2787 47.3444 16.2977 47.3789 16.3317C47.4135 16.3658 47.4329 16.4119 47.433 16.4601C47.4332 16.5083 47.4139 16.5546 47.3795 16.5888L37.591 26.2733C37.5127 26.1809 37.4321 26.0896 37.3468 26.0007L47.119 16.3323Z" fill="#E9BF72"/>
<path d="M37.1669 25.8108L48.3199 14.7817L48.3293 14.7725L49.0174 15.3107C48.9985 15.3443 48.9749 15.375 48.9473 15.402L37.751 26.4657C37.6973 26.3987 37.6424 26.3329 37.5863 26.267L47.3748 16.5883C47.4086 16.554 47.4275 16.508 47.4274 16.4601C47.4274 16.4242 47.4166 16.3892 47.3965 16.3594C47.3763 16.3295 47.3477 16.3063 47.3142 16.2926C47.2807 16.2788 47.2438 16.2753 47.2082 16.2823C47.1727 16.2892 47.14 16.3065 47.1143 16.3319L37.3422 25.9944C37.2896 25.9263 37.23 25.8685 37.1669 25.8108Z" fill="#E9BF72"/>
<path d="M55.0582 30.7468C54.7837 30.6798 54.4227 30.5712 54.0068 30.4441C52.6237 30.0248 50.5361 29.3884 48.4613 29.3884C47.2253 29.3884 45.0466 29.3884 39.5653 31.0309V30.9859C39.5653 30.9316 39.556 30.8785 39.5501 30.823C45.0326 29.1851 47.223 29.1851 48.466 29.1851C50.5688 29.1851 52.6786 29.8238 54.0734 30.2478C54.4543 30.3633 54.8024 30.4684 55.0699 30.5354L55.0582 30.7468Z" fill="#E9BF72"/>
<path d="M47.7206 34.5751C46.9624 34.5751 46.1283 34.8905 45.3223 35.1943C44.4835 35.5108 43.6167 35.8388 42.7907 35.8388C42.0645 35.8472 41.3408 35.7515 40.6424 35.5546C40.4967 35.508 40.3462 35.4778 40.1938 35.4645C40.1448 35.4645 40.0979 35.4453 40.0633 35.4111C40.0286 35.3769 40.0092 35.3304 40.0092 35.282C40.0092 35.2336 40.0286 35.1872 40.0633 35.153C40.0979 35.1188 40.1448 35.0995 40.1938 35.0995C40.3788 35.1122 40.5616 35.1471 40.7382 35.2035C41.4055 35.3912 42.0969 35.4822 42.7907 35.4738C43.5501 35.4738 44.3842 35.1596 45.1902 34.8546C46.029 34.5393 46.8947 34.2124 47.7206 34.2124C48.9311 34.2248 50.1267 34.477 51.237 34.954C51.2592 34.9632 51.2794 34.9767 51.2964 34.9937C51.3133 35.0107 51.3267 35.0308 51.3359 35.0529C51.345 35.075 51.3496 35.0986 51.3495 35.1225C51.3493 35.1463 51.3444 35.1699 51.3351 35.1919C51.3257 35.2139 51.3121 35.2339 51.2949 35.2507C51.2778 35.2675 51.2574 35.2807 51.2351 35.2897C51.2127 35.2987 51.1888 35.3033 51.1647 35.3032C51.1405 35.3031 51.1167 35.2982 51.0944 35.289C50.0292 34.831 48.8821 34.5883 47.7206 34.5751Z" fill="#E9BF72"/>
<path d="M51.237 34.954C50.1267 34.477 48.9311 34.2249 47.7206 34.2124C46.8947 34.2124 46.029 34.5393 45.1903 34.8547C44.3842 35.1596 43.5548 35.4738 42.7907 35.4738C42.0969 35.4823 41.4056 35.3912 40.7382 35.2035C40.5617 35.1471 40.3788 35.1122 40.1938 35.0996C40.1448 35.0996 40.0979 35.1188 40.0633 35.153C40.0287 35.1873 40.0092 35.2337 40.0092 35.2821C40.0092 35.3305 40.0287 35.3769 40.0633 35.4111C40.0979 35.4454 40.1448 35.4646 40.1938 35.4646C40.3463 35.4779 40.4967 35.5081 40.6424 35.5547C41.3409 35.7515 42.0645 35.8473 42.7907 35.8388C43.6167 35.8388 44.4835 35.5108 45.3223 35.1943C46.1283 34.8905 46.9578 34.5752 47.7206 34.5752C48.8821 34.5883 50.0292 34.8311 51.0944 35.289C51.1167 35.2983 51.1406 35.3031 51.1647 35.3032C51.1888 35.3034 51.2127 35.2988 51.2351 35.2898C51.2574 35.2808 51.2778 35.2675 51.2949 35.2507C51.3121 35.2339 51.3257 35.214 51.3351 35.192C51.3445 35.17 51.3493 35.1464 51.3495 35.1225C51.3496 35.0987 51.345 35.075 51.3359 35.0529C51.3268 35.0308 51.3133 35.0107 51.2964 34.9937C51.2794 34.9768 51.2592 34.9633 51.237 34.954ZM47.7206 34.0068C48.959 34.0186 50.1822 34.2767 51.3176 34.7657C51.3649 34.785 51.4079 34.8135 51.444 34.8494C51.4801 34.8853 51.5086 34.9279 51.5279 34.9748C51.5478 35.022 51.558 35.0727 51.558 35.1238C51.558 35.175 51.5478 35.2256 51.5279 35.2728C51.508 35.32 51.4787 35.3627 51.4418 35.3985C51.4049 35.4342 51.361 35.4622 51.3129 35.4808C51.2655 35.5002 51.2147 35.5102 51.1634 35.5102C51.1121 35.5102 51.0612 35.5002 51.0138 35.4808C49.9743 35.0348 48.8549 34.7991 47.7218 34.7877C47.001 34.7877 46.1844 35.0961 45.397 35.393C44.5419 35.7164 43.6564 36.0502 42.7919 36.0502C42.0479 36.0595 41.3066 35.9618 40.591 35.7603C40.4621 35.7195 40.3295 35.6916 40.195 35.6771C40.0908 35.6771 39.991 35.6362 39.9174 35.5635C39.8438 35.4907 39.8024 35.3919 39.8024 35.289C39.8024 35.1861 39.8438 35.0874 39.9174 35.0146C39.991 34.9418 40.0908 34.9009 40.195 34.9009C40.3985 34.9141 40.5995 34.9529 40.7931 35.0164C41.4428 35.1999 42.1162 35.2887 42.7919 35.2798C43.5115 35.2798 44.3281 34.9725 45.1167 34.6745C45.9718 34.3395 46.8632 34.0126 47.7206 34.0126V34.0068Z" fill="#E9BF72"/>
<path d="M39.3515 31.0094C39.3515 30.969 39.3445 30.9297 39.3398 30.8939L39.5431 30.8315C39.5489 30.887 39.5548 30.9401 39.5583 30.9944V31.0395L39.3527 31.1007L39.3515 31.0094Z" fill="#E9BF72"/>
<path d="M39.3573 31.0923L39.3667 31.1835L38.9998 31.2136V31.2032L39.3573 31.0923Z" fill="#E9BF72"/>
<path d="M39.3515 31.0087L39.3574 31.0977L38.9987 31.2132L38.9847 31.0434V31.0029C39.1015 30.966 39.2254 30.929 39.3434 30.8955C39.3445 30.9232 39.348 30.9625 39.3515 31.0087Z" fill="#E9BF72"/>
<path d="M37.7511 26.4658C38.757 27.7187 39.3774 29.2312 39.5384 30.8229L39.3352 30.8853C39.1847 29.3257 38.5832 27.842 37.6027 26.6114L37.7511 26.4658Z" fill="#E9BF72"/>
<path d="M38.9999 31.2133L39.3667 31.1832L39.3574 31.092L39.563 31.0308L39.591 31.3715L38.8106 31.4351L38.7954 31.2653L38.9987 31.2029L38.9999 31.2133Z" fill="#E9BF72"/>
<path d="M38.7768 31.0555L38.9812 30.9932V31.0336L38.9952 31.2034L38.792 31.2658L38.7768 31.0555Z" fill="#E9BF72"/>
<path d="M37.6073 26.6128C38.5879 27.8434 39.1893 29.3272 39.3398 30.8867C39.223 30.9202 39.1062 30.9572 38.9812 30.9942C38.8562 29.4848 38.2932 28.0432 37.3597 26.8427C37.3828 26.8323 37.4034 26.8174 37.4204 26.7988L37.6073 26.6128Z" fill="#E9BF72"/>
<path d="M37.7511 26.4663L37.6027 26.613C37.549 26.546 37.4952 26.4801 37.438 26.4143L37.5864 26.2676C37.6471 26.3334 37.702 26.3993 37.7511 26.4663Z" fill="#E9BF72"/>
<path d="M37.591 26.2731L37.4426 26.4198C37.3655 26.3274 37.2837 26.235 37.2008 26.146L37.3468 26.0005C37.4321 26.0837 37.5174 26.1749 37.591 26.2731Z" fill="#E9BF72"/>
<path d="M37.4426 26.4141L37.209 26.6451C37.1319 26.5504 37.0513 26.4591 36.9683 26.3702L37.202 26.1392C37.2837 26.2293 37.3655 26.3217 37.4426 26.4141Z" fill="#E9BF72"/>
<path d="M37.3597 26.8412C37.3095 26.7765 37.2569 26.713 37.2043 26.6495L37.438 26.4185C37.4952 26.4843 37.5489 26.5501 37.6027 26.6171L37.4158 26.802C37.3997 26.8184 37.3807 26.8317 37.3597 26.8412Z" fill="#E9BF72"/>
<path d="M37.3468 25.9947L37.2008 26.1402C37.1424 26.0767 37.084 26.0143 37.0221 25.9543L37.1669 25.811C37.23 25.8688 37.2896 25.9265 37.3468 25.9947Z" fill="#E9BF72"/>
<path d="M37.2043 26.6494L37.1938 26.661L36.9333 26.4045L36.9637 26.3745C37.0501 26.4635 37.1272 26.5547 37.2043 26.6494Z" fill="#E9BF72"/>
<path d="M37.0887 26.7971C37.1103 26.8189 37.1361 26.8362 37.1646 26.8481C37.193 26.86 37.2236 26.8662 37.2545 26.8664C37.2911 26.8661 37.3271 26.8574 37.3597 26.8409C38.2932 28.0415 38.8562 29.4831 38.9812 30.9924L38.7767 31.0548C38.6506 29.403 37.9833 27.8368 36.876 26.5938L37.0887 26.7971Z" fill="#E9BF72"/>
<path d="M36.7943 26.1782L37.0221 25.9541C37.0828 26.0142 37.1389 26.0765 37.2008 26.1401L36.9672 26.3711C36.9088 26.3076 36.8504 26.2452 36.7896 26.184L36.7943 26.1782Z" fill="#E9BF72"/>
<path d="M37.2043 26.6495C37.2569 26.7131 37.3094 26.7766 37.3597 26.8413C37.3271 26.8578 37.2911 26.8665 37.2545 26.8667C37.2236 26.8666 37.193 26.8604 37.1646 26.8485C37.1361 26.8366 37.1103 26.8192 37.0887 26.7974L36.876 26.5883C36.8375 26.5444 36.7989 26.5005 36.7592 26.4578C36.7382 26.4229 36.7273 26.3829 36.7277 26.3423C36.7278 26.285 36.7495 26.2299 36.7884 26.1875C36.8492 26.2487 36.9052 26.3111 36.966 26.3746L36.9356 26.4047L37.1961 26.6611L37.2043 26.6495Z" fill="#E9BF72"/>
<path d="M36.7569 26.458C36.799 26.5007 36.8375 26.5446 36.8737 26.5885L36.7919 26.5077C36.7777 26.4931 36.7658 26.4763 36.7569 26.458Z" fill="#E9BF72"/>
<path d="M36.7943 26.1786L36.7861 26.1878C35.3352 24.707 33.2814 23.7852 30.938 23.7032C31.0129 23.6239 31.0547 23.5195 31.0548 23.4109V23.3428C33.3072 23.4339 35.4405 24.3674 37.0232 25.9545L36.7943 26.1786Z" fill="#E9BF72"/>
<path d="M33.5922 44.8568C30.6775 44.8568 28.8504 43.9766 27.6401 43.3933C27.0899 43.1288 26.6565 42.9197 26.3551 42.9197C26.3046 42.9159 26.2574 42.8934 26.223 42.8566C26.1886 42.8199 26.1694 42.7717 26.1694 42.7216C26.1694 42.6715 26.1886 42.6233 26.223 42.5866C26.2574 42.5498 26.3046 42.5273 26.3551 42.5235C26.7452 42.5235 27.1927 42.7395 27.813 43.0387C28.9894 43.6047 30.7674 44.4606 33.5887 44.4606C35.1669 44.4606 37.5688 43.4661 40.1097 42.4126C42.9742 41.2251 45.9368 39.9961 48.1646 39.9961C50.5419 39.9961 52.2615 40.4304 52.8047 40.5898C52.7498 40.7123 52.6879 40.8336 52.6353 40.9548C51.1768 40.5726 49.6734 40.3835 48.1646 40.3923C46.0174 40.3923 43.0933 41.6052 40.2651 42.7776C37.688 43.8473 35.2511 44.8568 33.5922 44.8568Z" fill="#E9BF72"/>
<path d="M37.0221 25.954C35.4393 24.3669 33.306 23.4334 31.0536 23.3423V23.1367C33.3604 23.2301 35.5454 24.1859 37.1669 25.8108L37.0221 25.954Z" fill="#E9BF72"/>
<path d="M31.0536 23.137V23.3426C30.9695 23.3426 30.8831 23.3357 30.7966 23.3345V23.1289C30.8831 23.1301 30.9672 23.1324 31.0536 23.137Z" fill="#E9BF72"/>
<path d="M30.938 23.7027C30.8972 23.7477 30.8473 23.7835 30.7916 23.808C30.7358 23.8325 30.6754 23.8451 30.6144 23.8448C30.553 23.8444 30.4924 23.8315 30.4363 23.8069C30.3802 23.7822 30.3299 23.7464 30.2885 23.7016C30.3889 23.7016 30.4894 23.6958 30.591 23.6958H30.6132C30.7219 23.6958 30.8305 23.6981 30.938 23.7027Z" fill="#E9BF72"/>
<path d="M36.7569 26.4577C35.2732 24.8717 33.0957 23.9049 30.6132 23.9003V23.8472C30.6742 23.8474 30.7346 23.8349 30.7904 23.8104C30.8462 23.7859 30.8961 23.75 30.9368 23.7051C33.2733 23.7871 35.334 24.7089 36.7849 26.1897C36.746 26.2321 36.7243 26.2873 36.7242 26.3445C36.7246 26.3845 36.7359 26.4236 36.7569 26.4577Z" fill="#E9BF72"/>
<path d="M30.7966 23.4569V23.3345C30.8831 23.3345 30.9695 23.3345 31.0536 23.3426V23.4107C31.0535 23.5192 31.0118 23.6237 30.9368 23.703C30.8293 23.703 30.7207 23.696 30.6121 23.696V23.6394C30.6363 23.6396 30.6604 23.635 30.6829 23.6258C30.7053 23.6167 30.7258 23.6033 30.7429 23.5863C30.7601 23.5693 30.7737 23.5492 30.7829 23.5269C30.7921 23.5047 30.7968 23.4809 30.7966 23.4569Z" fill="#E9BF72"/>
<path d="M30.7966 23.3347V23.4571C30.7966 23.5052 30.7773 23.5513 30.7429 23.5853C30.7085 23.6193 30.6619 23.6384 30.6132 23.6384C30.5646 23.6384 30.5179 23.6193 30.4835 23.5853C30.4491 23.5513 30.4298 23.5052 30.4298 23.4571V23.3335C30.4824 23.3335 30.5361 23.3335 30.591 23.3335C30.6459 23.3335 30.7289 23.3335 30.7966 23.3347Z" fill="#E9BF72"/>
<path d="M30.7966 3.18575V23.1288C30.7277 23.1288 30.6599 23.1288 30.591 23.1288C30.5221 23.1288 30.4835 23.1288 30.4298 23.1288V3.18575C30.4298 3.13765 30.4491 3.09152 30.4835 3.05751C30.5179 3.0235 30.5646 3.00439 30.6132 3.00439C30.6619 3.00439 30.7085 3.0235 30.7429 3.05751C30.7773 3.09152 30.7966 3.13765 30.7966 3.18575Z" fill="#E9BF72"/>
<path d="M30.6144 0.245641C30.5554 0.245854 30.497 0.257632 30.4426 0.280294L30.4894 0.244485C30.5224 0.218041 30.5637 0.203613 30.6062 0.203613C30.6487 0.203613 30.6899 0.218041 30.723 0.244485L49.0395 14.598L48.9227 14.7493C48.8695 14.7083 48.8077 14.6795 48.7418 14.6649C48.676 14.6503 48.6077 14.6503 48.5419 14.665L30.9753 0.910988C30.9158 0.614123 30.7873 0.245641 30.6144 0.245641Z" fill="#E9BF72"/>
<path d="M30.4426 0.2827C30.497 0.260038 30.5554 0.24826 30.6144 0.248047C30.7873 0.248047 30.9158 0.616529 30.9753 0.913394L30.6003 0.619994L30.1751 0.943427V0.68006C30.1751 0.583457 30.2076 0.489589 30.2674 0.413229L30.4426 0.2827Z" fill="#E9BF72"/>
<path d="M30.5992 0.87922L30.1751 1.20727V0.941597L30.6003 0.618164L30.9753 0.911563C30.9952 1.00707 31.0069 1.10405 31.0104 1.2015L30.5992 0.87922Z" fill="#E9BF72"/>
<path d="M30.591 23.3311C30.5361 23.3311 30.4824 23.3311 30.4298 23.3311V23.1255C30.4835 23.1255 30.5361 23.1255 30.591 23.1255C30.6459 23.1255 30.7277 23.1255 30.7966 23.1255V23.3311C30.7289 23.3334 30.6599 23.3311 30.591 23.3311Z" fill="#E9BF72"/>
<path d="M30.4427 0.282715L30.2674 0.415553C30.3134 0.357243 30.3738 0.311519 30.4427 0.282715Z" fill="#E9BF72"/>
<path d="M30.591 23.6962C30.4894 23.6962 30.3889 23.6962 30.2885 23.702C30.2144 23.6226 30.1728 23.5189 30.1716 23.4109V23.3416C30.2557 23.3416 30.341 23.3347 30.4263 23.3335V23.4571C30.4263 23.5055 30.4457 23.5519 30.4804 23.5861C30.515 23.6204 30.5619 23.6396 30.6109 23.6396V23.6962H30.591Z" fill="#E9BF72"/>
<path d="M30.4298 23.1279V23.3335C30.3445 23.3335 30.2592 23.3335 30.1751 23.3416V23.1349C30.2592 23.1302 30.3445 23.1291 30.4298 23.1279Z" fill="#E9BF72"/>
<path d="M30.1751 23.1341V1.20656L30.5992 0.884277L31.0104 1.20656L31.0536 23.1411C30.9672 23.1411 30.8831 23.1341 30.7966 23.133V3.18527C30.7966 3.13717 30.7773 3.09104 30.7429 3.05703C30.7085 3.02302 30.6618 3.00392 30.6132 3.00392C30.5645 3.00392 30.5179 3.02302 30.4835 3.05703C30.4491 3.09104 30.4298 3.13717 30.4298 3.18527V23.1272C30.3445 23.1284 30.2592 23.1295 30.1751 23.1341Z" fill="#E9BF72"/>
<path d="M30.1751 1.20703V23.1346C27.4415 23.2397 25.098 24.3902 23.5536 26.198L12.1331 14.9044L30.1751 1.20703Z" fill="#007F8F"/>
<path d="M30.1751 0.941406V1.20708L12.1331 14.9045L12.1109 14.8837C12.0661 14.8387 12.0113 14.8047 11.9509 14.7843L30.1751 0.941406Z" fill="#E9BF72"/>
<path d="M37.3083 32.1493C32.5069 33.7249 31.0571 34.2008 24.4906 34.2008C24.4385 34.2008 24.3886 34.1803 24.3518 34.1439C24.315 34.1075 24.2943 34.0582 24.2943 34.0067C24.2943 33.9553 24.315 33.9059 24.3518 33.8695C24.3886 33.8331 24.4385 33.8127 24.4906 33.8127C30.9952 33.8127 32.4345 33.3414 37.1833 31.7808L37.2756 31.7508C37.8067 31.5775 38.313 31.4158 38.7943 31.2656L38.8094 31.4354L39.5898 31.3719L39.6062 31.425C38.9228 31.6295 38.1891 31.8594 37.3971 32.1181L37.3083 32.1493Z" fill="#E9BF72"/>
<path d="M52.8082 40.5898C52.265 40.4304 50.5454 39.9961 48.1681 39.9961C45.9403 39.9961 42.9777 41.2251 40.1132 42.4126C37.5723 43.466 35.1704 44.4606 33.5922 44.4606C30.7709 44.4606 28.9929 43.6047 27.8165 43.0387C27.1962 42.7395 26.7487 42.5235 26.3586 42.5235C26.3081 42.5273 26.2609 42.5498 26.2265 42.5865C26.192 42.6233 26.1729 42.6715 26.1729 42.7216C26.1729 42.7716 26.192 42.8199 26.2265 42.8566C26.2609 42.8933 26.3081 42.9159 26.3586 42.9197C26.6564 42.9197 27.0899 43.1287 27.6436 43.3933C28.8539 43.9766 30.681 44.8568 33.5957 44.8568C35.2545 44.8568 37.6915 43.8472 40.2721 42.7776C43.1003 41.6051 46.0244 40.3923 48.1716 40.3923C49.6804 40.3834 51.1838 40.5726 52.6423 40.9548C52.6108 41.0172 52.5804 41.0807 52.55 41.1419C51.1198 40.7716 49.6465 40.5883 48.1681 40.5967C46.0653 40.5967 43.1576 41.8015 40.3492 42.9659C37.751 44.0459 35.2978 45.0624 33.5922 45.0624C30.6296 45.0624 28.7756 44.1695 27.549 43.5781C27.0443 43.3355 26.6086 43.1241 26.3586 43.1241C26.2501 43.1241 26.1461 43.0815 26.0694 43.0057C25.9928 42.9299 25.9497 42.8271 25.9497 42.7198C25.9497 42.6126 25.9928 42.5098 26.0694 42.434C26.1461 42.3581 26.2501 42.3155 26.3586 42.3155C26.7966 42.3155 27.2628 42.5396 27.9064 42.8515C29.0665 43.4106 30.8188 44.2527 33.5922 44.2527C35.1284 44.2527 37.5104 43.2662 40.0326 42.2208C42.9169 41.0264 45.8982 39.7882 48.1681 39.7882C49.7647 39.7755 51.3555 39.9799 52.8958 40.3957L52.8082 40.5898Z" fill="#E9BF72"/>
<path d="M23.5536 26.1981C25.098 24.3904 27.4415 23.2399 30.1751 23.1348V23.3415C27.5022 23.4455 25.2102 24.574 23.702 26.3448L23.5536 26.1981Z" fill="#E9BF72"/>
<path d="M53.8281 31.0089C52.4788 30.5988 50.4402 29.9808 48.4543 29.9808C47.0933 29.9808 44.5594 29.9808 37.459 32.3119L37.369 32.3419C32.5431 33.9267 31.0863 34.4038 24.4859 34.4038C24.3787 34.4038 24.2759 34.3617 24.2001 34.2867C24.1243 34.2118 24.0817 34.1101 24.0817 34.0041C24.0817 33.8981 24.1243 33.7964 24.2001 33.7215C24.2759 33.6465 24.3787 33.6044 24.4859 33.6044C30.9555 33.6044 32.3831 33.1366 37.1144 31.5841L37.2043 31.5541C37.7522 31.3727 38.2756 31.2076 38.7721 31.0528L38.7908 31.263C38.3087 31.4132 37.8024 31.5749 37.2721 31.7482L37.1798 31.7782C32.4263 33.3387 30.9882 33.81 24.4871 33.81C24.435 33.81 24.3851 33.8305 24.3483 33.8669C24.3115 33.9033 24.2908 33.9526 24.2908 34.0041C24.2908 34.0556 24.3115 34.1049 24.3483 34.1413C24.3851 34.1777 24.435 34.1982 24.4871 34.1982C31.0536 34.1982 32.5034 33.7222 37.3048 32.1467L37.3947 32.1166C38.1868 31.8567 38.9204 31.6269 39.6038 31.4236C45.0781 29.7764 47.2347 29.7764 48.4554 29.7764C50.4706 29.7764 52.5255 30.4001 53.8865 30.816C54.3643 30.9615 54.7475 31.0782 55.043 31.1452C55.043 31.2145 55.043 31.2838 55.0337 31.3519C54.7276 31.285 54.3293 31.1625 53.8281 31.0089Z" fill="#E9BF72"/>
<path d="M30.2885 23.7022C27.6015 23.7807 25.313 24.9324 23.8562 26.739L23.7698 26.672C23.7992 26.6276 23.8122 26.5745 23.8067 26.5217C23.8011 26.4689 23.7774 26.4196 23.7394 26.3821L23.702 26.3451C25.2102 24.5743 27.5022 23.4458 30.1751 23.3418V23.4111C30.1754 23.5186 30.2157 23.6223 30.2885 23.7022Z" fill="#E9BF72"/>
<path d="M23.5537 26.1978L23.702 26.3445C23.6471 26.408 23.5934 26.4738 23.5408 26.5408L23.3901 26.3883C23.4438 26.3271 23.4987 26.2613 23.5537 26.1978Z" fill="#E9BF72"/>
<path d="M23.3177 26.8344C23.3878 26.7351 23.4625 26.638 23.5408 26.541L23.6004 26.5999L23.3399 26.8564L23.3177 26.8344Z" fill="#E9BF72"/>
<path d="M23.5408 26.5409C23.4625 26.638 23.3878 26.735 23.3177 26.8343L23.167 26.6865C23.2383 26.5871 23.313 26.4889 23.3901 26.3931L23.5408 26.5409Z" fill="#E9BF72"/>
<path d="M23.7394 26.7074L23.4485 26.9951C23.4047 27.038 23.3455 27.0621 23.2838 27.0621C23.2468 27.062 23.2104 27.0533 23.1775 27.0366C23.2219 26.9673 23.2686 26.9015 23.3177 26.8345L23.3399 26.8564L23.6004 26.6L23.5408 26.5411C23.5934 26.4741 23.6471 26.4083 23.702 26.3447L23.7394 26.3817C23.7774 26.4192 23.8011 26.4685 23.8067 26.5213C23.8122 26.5741 23.7992 26.6272 23.7698 26.6716C23.7609 26.6846 23.7508 26.6966 23.7394 26.7074Z" fill="#E9BF72"/>
<path d="M23.167 26.6865L23.3177 26.8344C23.2686 26.9014 23.2219 26.9672 23.1775 27.0365C23.1558 27.026 23.136 27.012 23.1191 26.9949L23.0198 26.8968C23.0665 26.8251 23.1167 26.7558 23.167 26.6865Z" fill="#E9BF72"/>
<path d="M23.8562 26.735C25.313 24.9284 27.6027 23.7768 30.2884 23.6982C30.3298 23.743 30.3802 23.7789 30.4363 23.8036C30.4924 23.8282 30.553 23.8411 30.6144 23.8415V23.8969H30.5922C25.9123 23.8969 22.3843 27.2029 22.3761 31.5865C22.3107 31.5865 22.2417 31.5761 22.1681 31.5692C22.1586 29.8149 22.754 28.1098 23.8562 26.735Z" fill="#E9BF72"/>
<path d="M22.167 31.6079V31.5732C22.2406 31.5802 22.3095 31.5871 22.3749 31.5906V31.7985L22.167 31.7789V31.6079Z" fill="#E9BF72"/>
<path d="M22.6354 31.8074C26.2744 31.8074 30.2476 30.8567 30.2861 30.8463C30.3374 30.8341 30.3914 30.8424 30.4365 30.8695C30.4816 30.8965 30.514 30.9401 30.5268 30.9907C30.533 31.0157 30.5343 31.0416 30.5304 31.067C30.5265 31.0925 30.5176 31.1169 30.5041 31.1389C30.4906 31.1609 30.4729 31.18 30.4519 31.1952C30.431 31.2105 30.4072 31.2214 30.3819 31.2275C30.341 31.2367 26.3223 32.2001 22.6354 32.2001C22.344 32.1946 22.0533 32.1703 21.7651 32.1273V31.9945H22.3749V31.7981C22.4707 31.8028 22.5642 31.8074 22.6354 31.8074Z" fill="#E9BF72"/>
<path d="M23.7698 26.6714L23.8562 26.7384C22.7536 28.113 22.1578 29.8181 22.167 31.5725C22.0502 31.5622 21.9333 31.546 21.8002 31.5287C21.8007 29.9296 22.2799 28.3665 23.1775 27.0364C23.2104 27.0531 23.2468 27.0618 23.2838 27.0618C23.3455 27.0619 23.4047 27.0378 23.4485 26.9948L23.7394 26.7072C23.7508 26.6963 23.761 26.6843 23.7698 26.6714Z" fill="#E9BF72"/>
<path d="M22.167 31.7791V31.7896H21.799V31.7358C21.9298 31.7522 22.0537 31.7674 22.167 31.7791Z" fill="#E9BF72"/>
<path d="M22.167 31.6074V31.7783C22.0501 31.7668 21.9333 31.7517 21.799 31.7356V31.6074C21.799 31.5808 21.799 31.5554 21.799 31.5288C21.9298 31.5461 22.0537 31.5623 22.1658 31.5727L22.167 31.6074Z" fill="#E9BF72"/>
<path d="M21.5922 31.4996C21.5978 29.8595 22.0945 28.2577 23.0198 26.8965L23.1191 26.9947C23.136 27.0117 23.1558 27.0258 23.1775 27.0363C22.2799 28.3664 21.8007 29.9295 21.8002 31.5285L21.5922 31.4996Z" fill="#E9BF72"/>
<path d="M21.591 31.9944V31.7021L21.799 31.731V31.7842H22.167V31.7738L22.3749 31.7934V31.9898H21.591V31.9944Z" fill="#E9BF72"/>
<path d="M21.591 31.6074C21.591 31.5716 21.591 31.5358 21.591 31.5L21.799 31.5289C21.799 31.5554 21.799 31.5809 21.799 31.6074V31.7356L21.591 31.7068V31.6074Z" fill="#E9BF72"/>
<path d="M21.5548 47.0087C20.716 47.3252 19.8504 47.6533 19.0233 47.6533C18.2974 47.6617 17.5742 47.566 16.8761 47.3691C16.7301 47.3224 16.5792 47.2921 16.4263 47.279C16.4022 47.279 16.3784 47.2743 16.3561 47.2652C16.3339 47.2561 16.3137 47.2427 16.2966 47.2259C16.2796 47.209 16.2661 47.189 16.2569 47.167C16.2477 47.145 16.2429 47.1215 16.2429 47.0976C16.2429 47.0738 16.2477 47.0503 16.2569 47.0282C16.2661 47.0062 16.2796 46.9863 16.2966 46.9694C16.3137 46.9526 16.3339 46.9392 16.3561 46.9301C16.3784 46.921 16.4022 46.9163 16.4263 46.9163C16.6114 46.9278 16.7944 46.9623 16.9707 47.0191C17.6383 47.2055 18.3296 47.2962 19.0233 47.2882C19.7826 47.2882 20.6167 46.9752 21.4228 46.6691C22.2616 46.3538 23.1272 46.0269 23.9532 46.0269C25.1637 46.0393 26.3595 46.2919 27.4695 46.7696C27.5145 46.7882 27.5502 46.8237 27.5688 46.8683C27.5874 46.9129 27.5874 46.963 27.5688 47.0075C27.5493 47.0517 27.513 47.0866 27.4679 47.1047C27.4227 47.1228 27.3721 47.1228 27.327 47.1046C26.2621 46.6455 25.1148 46.4023 23.9532 46.3896C23.195 46.3896 22.3609 46.7049 21.5548 47.0087Z" fill="#E9BF72"/>
<path d="M17.0245 46.82C17.6745 47.0019 18.3477 47.0902 19.0233 47.0822C19.7441 47.0822 20.5595 46.7738 21.3492 46.4769C22.2043 46.1546 23.0887 45.8208 23.9532 45.8208C25.1915 45.8326 26.4148 46.0907 27.5501 46.5797C27.5976 46.5993 27.6408 46.628 27.6771 46.6641C27.7133 46.7002 27.742 46.7431 27.7614 46.7902C27.7809 46.8374 27.7907 46.8878 27.7903 46.9387C27.7899 46.9896 27.7794 47.04 27.7592 47.0868C27.7398 47.134 27.7108 47.1768 27.674 47.2126C27.6373 47.2483 27.5935 47.2763 27.5454 47.2947C27.4979 47.3145 27.4469 47.3246 27.3953 47.3246C27.3438 47.3246 27.2927 47.3145 27.2452 47.2947C26.2063 46.8462 25.0868 46.6085 23.9532 46.5959C23.2335 46.5959 22.4181 46.9043 21.6284 47.2012C20.7721 47.5246 19.8878 47.8596 19.0233 47.8596C18.2792 47.8688 17.5378 47.7707 16.8224 47.5685C16.6935 47.5276 16.5608 47.4997 16.4263 47.4853C16.3225 47.4853 16.223 47.4446 16.1496 47.372C16.0762 47.2994 16.035 47.201 16.035 47.0984C16.035 46.9957 16.0762 46.8973 16.1496 46.8247C16.223 46.7522 16.3225 46.7114 16.4263 46.7114C16.6296 46.7222 16.8306 46.7587 17.0245 46.82ZM16.4263 46.9158C16.3777 46.9158 16.331 46.935 16.2966 46.969C16.2622 47.003 16.2429 47.0491 16.2429 47.0972C16.2429 47.1453 16.2622 47.1914 16.2966 47.2254C16.331 47.2595 16.3777 47.2786 16.4263 47.2786C16.5792 47.2917 16.7301 47.3219 16.8761 47.3687C17.5742 47.5655 18.2974 47.6613 19.0233 47.6528C19.8504 47.6528 20.716 47.3248 21.5548 47.0083C22.3609 46.7045 23.1903 46.3891 23.9532 46.3891C25.1148 46.4019 26.2621 46.645 27.327 47.1041C27.3721 47.1223 27.4227 47.1224 27.4679 47.1043C27.513 47.0861 27.5493 47.0513 27.5688 47.0071C27.5874 46.9625 27.5874 46.9125 27.5688 46.8679C27.5502 46.8233 27.5145 46.7878 27.4695 46.7692C26.3595 46.2914 25.1637 46.0389 23.9532 46.0264C23.1272 46.0264 22.2616 46.3533 21.4228 46.6687C20.6167 46.9748 19.7873 47.2878 19.0233 47.2878C18.3296 47.2957 17.6383 47.2051 16.9707 47.0187C16.7943 46.9619 16.6114 46.9273 16.4263 46.9158Z" fill="#E9BF72"/>
<path d="M23.167 26.6868L12.9614 16.5957C12.9276 16.5614 12.9086 16.5154 12.9086 16.4675C12.9086 16.4196 12.9276 16.3736 12.9614 16.3393C12.9965 16.3056 13.0433 16.2866 13.0922 16.2861C13.1396 16.2872 13.1848 16.3062 13.2184 16.3393L23.3819 26.3888C23.313 26.4893 23.2382 26.5875 23.167 26.6868Z" fill="#E9BF72"/>
<path d="M19.6588 31.3869C20.3796 31.5128 21.0443 31.6294 21.591 31.7068V31.9944H21.7651V32.1273C21.181 32.051 20.4415 31.9217 19.5899 31.7727C17.6413 31.4319 15.2184 31.0068 13.3025 31.0068C10.2161 31.0068 7.29201 32.1619 5.88547 32.7199C5.6308 32.8215 5.4544 32.8897 5.32706 32.9347C5.31305 32.8007 5.29903 32.6667 5.28851 32.5304C5.41468 32.4831 5.57356 32.4149 5.73828 32.3548C7.16701 31.7888 10.139 30.6152 13.3025 30.6152C15.2523 30.6152 17.695 31.0426 19.6588 31.3869Z" fill="#E9BF72"/>
<path d="M12.1332 14.9048L23.5537 26.1984C23.4976 26.2619 23.4439 26.3277 23.3901 26.3936L13.2266 16.3441C13.1922 16.3102 13.1456 16.2911 13.0969 16.2909C13.0481 16.2914 13.0012 16.3104 12.9661 16.3441C12.9323 16.3784 12.9134 16.4244 12.9134 16.4723C12.9134 16.5202 12.9323 16.5662 12.9661 16.6005L23.1717 26.6916C23.1214 26.7609 23.0712 26.8302 23.0245 26.9018L11.4953 15.502C11.4759 15.4824 11.4583 15.4612 11.4427 15.4384L12.1332 14.9048Z" fill="#E9BF72"/>
<path d="M12.1331 14.9043L11.4322 15.4334C11.39 15.3736 11.3647 15.3038 11.3586 15.2312L11.9427 14.7842C12.0031 14.8046 12.0579 14.8386 12.1028 14.8835L12.1331 14.9043Z" fill="#E9BF72"/>
<path d="M11.9509 14.7841L11.3668 15.2312C11.3651 15.2174 11.3651 15.2034 11.3668 15.1896C11.3668 15.1326 11.3782 15.0762 11.4005 15.0236C11.4227 14.9711 11.4554 14.9234 11.4965 14.8835C11.5058 14.8727 11.5164 14.863 11.528 14.8546C11.5874 14.8097 11.6569 14.7798 11.7306 14.7675C11.8043 14.7553 11.88 14.761 11.9509 14.7841Z" fill="#E9BF72"/>
<path d="M11.9509 14.7844C11.8791 14.7602 11.8024 14.754 11.7275 14.7663C11.6527 14.7786 11.5822 14.809 11.5221 14.8548L11.424 14.7266L30.2674 0.413574C30.2076 0.489935 30.1751 0.583802 30.1751 0.680406V0.941463L11.9509 14.7844Z" fill="#E9BF72"/>
<path d="M7.54787 38.4573C8.72544 37.8613 10.917 36.7559 15.278 36.7559C17.9707 36.7559 20.3247 37.3669 22.8153 38.0138H22.8294C25.3352 38.663 27.9251 39.3341 30.9134 39.3341C30.9412 39.332 30.9691 39.3356 30.9954 39.3447C31.0217 39.3537 31.0458 39.3681 31.0662 39.3868C31.0866 39.4055 31.1029 39.4281 31.114 39.4534C31.1252 39.4786 31.1309 39.5058 31.1309 39.5333C31.1309 39.5609 31.1252 39.5881 31.114 39.6133C31.1029 39.6385 31.0866 39.6612 31.0662 39.6799C31.0458 39.6986 31.0217 39.713 30.9954 39.722C30.9691 39.7311 30.9412 39.7347 30.9134 39.7326C27.8679 39.7326 25.2476 39.0534 22.7125 38.3961C20.2476 37.7562 17.9228 37.1498 15.278 37.1498C11.014 37.1498 8.96025 38.1894 7.73245 38.8085C7.44851 38.9671 7.14958 39.0978 6.83993 39.1989C6.7897 39.073 6.74297 38.946 6.69858 38.8201C6.91003 38.7808 7.18222 38.641 7.54787 38.4573Z" fill="#E9BF72"/>
<path d="M7.45442 38.276C8.64366 37.6731 10.8609 36.5503 15.2815 36.5503C18.0011 36.5503 20.3668 37.1648 22.8691 37.8151L22.8329 38.0184H22.8188C20.3282 37.3716 17.9742 36.7605 15.2815 36.7605C10.9205 36.7605 8.72895 37.866 7.55138 38.462C7.18573 38.6457 6.91003 38.7854 6.70208 38.8293C6.67794 38.7662 6.65457 38.7015 6.63199 38.6353C6.80722 38.6064 7.0911 38.4643 7.44974 38.2887L7.45442 38.276Z" fill="#E9BF72"/>
<path d="M7.72778 38.813C8.95558 38.1939 11.0093 37.1543 15.2733 37.1543C17.9135 37.1543 20.2429 37.7607 22.7079 38.4007C25.2429 39.0579 27.8632 39.7371 30.9088 39.7371C30.9365 39.7392 30.9644 39.7356 30.9907 39.7266C31.017 39.7175 31.0411 39.7032 31.0615 39.6845C31.0819 39.6657 31.0982 39.6431 31.1093 39.6178C31.1205 39.5926 31.1262 39.5654 31.1262 39.5379C31.1262 39.5104 31.1205 39.4831 31.1093 39.4579C31.0982 39.4327 31.0819 39.41 31.0615 39.3913C31.0411 39.3726 31.017 39.3583 30.9907 39.3492C30.9644 39.3401 30.9365 39.3365 30.9088 39.3386C27.9205 39.3386 25.3305 38.6675 22.8247 38.0183L22.8773 37.8196C25.3691 38.4642 27.9462 39.133 30.9088 39.133C30.9651 39.1288 31.0216 39.1361 31.0749 39.1545C31.1282 39.1729 31.1771 39.202 31.2185 39.24C31.2599 39.2779 31.2929 39.3239 31.3155 39.3751C31.3381 39.4263 31.3498 39.4815 31.3498 39.5373C31.3498 39.5931 31.3381 39.6483 31.3155 39.6995C31.2929 39.7507 31.2599 39.7967 31.2185 39.8346C31.1771 39.8726 31.1282 39.9017 31.0749 39.9201C31.0216 39.9385 30.9651 39.9458 30.9088 39.9416C27.8352 39.9416 25.2032 39.2601 22.6553 38.5982C20.2009 37.9606 17.8913 37.3622 15.278 37.3622C11.0724 37.3622 9.0432 38.3845 7.83175 38.9956C7.5399 39.1588 7.23279 39.2938 6.9147 39.3987C6.889 39.334 6.8633 39.2693 6.83994 39.2058C7.14807 39.1037 7.44542 38.9721 7.72778 38.813Z" fill="#E9BF72"/>
<path d="M12.2266 47.926C9.82887 45.4933 7.95155 42.6077 6.70676 39.4417C6.77718 39.4333 6.84674 39.419 6.9147 39.3989C8.14659 42.5283 10.0036 45.38 12.375 47.7839C17.0081 52.4933 23.188 55.1362 29.7814 55.2252H30.1214C36.57 55.2252 42.6856 52.7475 47.3772 48.2275C49.5072 46.182 51.2588 43.7836 52.5524 41.1408C52.647 41.1674 52.7148 41.1859 52.7568 41.1998C51.4496 43.8752 49.6782 46.3034 47.5232 48.3742C42.7078 53.0131 36.4041 55.5163 29.7791 55.4273C23.1296 55.3384 16.8971 52.6735 12.2266 47.926Z" fill="#E9BF72"/>
<path d="M6.69858 38.8247C6.74297 38.9506 6.7897 39.0777 6.83993 39.2036C6.77829 39.2199 6.71538 39.2311 6.65185 39.2371C6.64449 39.2382 6.63701 39.2382 6.62965 39.2371C6.58526 39.1216 6.54203 39.0061 6.49881 38.8905C6.53127 38.8617 6.5722 38.8439 6.61563 38.8397C6.64361 38.8367 6.67133 38.8317 6.69858 38.8247Z" fill="#E9BF72"/>
<path d="M6.91002 39.3962C6.84206 39.4162 6.77249 39.4305 6.70207 39.4389C6.67754 39.3731 6.65067 39.3061 6.62497 39.2391C6.63232 39.2402 6.63981 39.2402 6.64717 39.2391C6.7107 39.2331 6.77361 39.2219 6.83525 39.2056C6.86329 39.2668 6.88899 39.3315 6.91002 39.3962Z" fill="#E9BF72"/>
<path d="M6.62964 39.2396C6.5798 39.2379 6.5323 39.2183 6.49598 39.1845C6.45966 39.1508 6.437 39.1051 6.43221 39.056C6.42957 39.0251 6.4342 38.9939 6.44576 38.9651C6.45731 38.9362 6.47546 38.9104 6.4988 38.8896C6.54202 39.0063 6.58525 39.123 6.62964 39.2396Z" fill="#E9BF72"/>
<path d="M6.49881 38.8891L6.42755 38.6881C6.4793 38.6579 6.53713 38.6394 6.59694 38.6338H6.62849C6.65029 38.7 6.67366 38.7647 6.69858 38.8278C6.6713 38.8344 6.64358 38.8391 6.61563 38.8417C6.57262 38.8449 6.53172 38.8615 6.49881 38.8891Z" fill="#E9BF72"/>
<path d="M6.67638 39.4414C6.62308 39.4466 6.56927 39.4412 6.51812 39.4255C6.46696 39.4099 6.41948 39.3843 6.37848 39.3502C6.32625 39.3075 6.28602 39.2522 6.26166 39.1896C6.24564 39.1529 6.23577 39.1139 6.23246 39.0741C6.22577 38.9978 6.24109 38.9211 6.27666 38.853C6.31222 38.785 6.36656 38.7282 6.43339 38.6895L6.50465 38.8904C6.48132 38.9112 6.46316 38.937 6.45161 38.9659C6.44006 38.9947 6.43542 39.0259 6.43807 39.0568C6.44285 39.1059 6.46551 39.1515 6.50183 39.1853C6.53815 39.2191 6.58566 39.2387 6.63549 39.2404C6.66119 39.3074 6.68806 39.3744 6.7126 39.4403L6.67638 39.4414Z" fill="#E9BF72"/>
<path d="M6.70676 39.4413C7.95127 42.6082 9.8286 45.4946 12.2266 47.9279C16.8995 52.6755 23.1296 55.3403 29.7733 55.4304C36.3982 55.5194 42.702 53.0162 47.5174 48.3773C49.6724 46.3065 51.4437 43.8783 52.751 41.2029L52.7965 41.2167C52.8624 41.2384 52.9327 41.2431 53.0008 41.2301C53.069 41.2172 53.1326 41.1871 53.1856 41.1428C51.8524 43.9427 50.0189 46.4816 47.7732 48.6372C42.973 53.2577 36.7148 55.7989 30.1191 55.7989C30.0022 55.7989 29.8854 55.7989 29.7686 55.7989C23.0268 55.7077 16.7032 53.0047 11.9614 48.1867C9.43554 45.6242 7.48077 42.5667 6.22311 39.2114L6.25582 39.1987C6.28018 39.2613 6.32041 39.3166 6.37265 39.3593C6.41508 39.3925 6.46386 39.4168 6.51605 39.4309C6.56825 39.445 6.62278 39.4486 6.67638 39.4413H6.70676Z" fill="#E9BF72"/>
<path d="M5.04089 33.2095C5.07699 33.2098 5.11302 33.2063 5.14837 33.1991C5.36902 35.0703 5.80003 36.9114 6.43341 38.6882C6.36658 38.727 6.31224 38.7837 6.27667 38.8518C6.24111 38.9199 6.22578 38.9965 6.23247 39.0729C6.23579 39.1127 6.24566 39.1517 6.26168 39.1884L6.22897 39.2011C5.49452 37.2343 5.00609 35.1861 4.77454 33.1021C4.8465 33.1697 4.9416 33.2081 5.04089 33.2095Z" fill="#E9BF72"/>
<path d="M6.91003 39.3968C7.22811 39.2919 7.53522 39.1569 7.82708 38.9937C9.0432 38.3826 11.0689 37.3627 15.278 37.3627C17.8878 37.3627 20.2009 37.9633 22.66 38.6021C25.2079 39.264 27.8399 39.9455 30.9134 39.9455C30.9697 39.9497 31.0263 39.9424 31.0796 39.924C31.1329 39.9056 31.1818 39.8765 31.2232 39.8385C31.2646 39.8006 31.2976 39.7546 31.3202 39.7034C31.3428 39.6523 31.3544 39.597 31.3544 39.5412C31.3544 39.4854 31.3428 39.4302 31.3202 39.379C31.2976 39.3278 31.2646 39.2819 31.2232 39.2439C31.1818 39.2059 31.1329 39.1769 31.0796 39.1584C31.0263 39.14 30.9697 39.1327 30.9134 39.1369C27.9508 39.1369 25.3737 38.4681 22.8819 37.8235L22.8294 38.0222L22.8656 37.8189C20.3633 37.1651 17.9976 36.5541 15.278 36.5541C10.8609 36.5541 8.64367 37.6769 7.45092 38.2798H7.43806C7.0876 38.4589 6.80022 38.6009 6.62031 38.6264C5.98791 36.8502 5.5596 35.0093 5.34344 33.1384C5.47896 33.0933 5.66821 33.0229 5.95443 32.9074C7.34928 32.3564 10.2476 31.2094 13.2944 31.2094C15.1915 31.2094 17.6051 31.6333 19.5455 31.9729C20.917 32.212 21.9988 32.4026 22.6273 32.4026C26.2674 32.4026 30.2511 31.4658 30.4216 31.4242C30.4735 31.4116 30.5223 31.3891 30.5654 31.3578C30.6084 31.3266 30.6448 31.2872 30.6725 31.2421C30.7001 31.1969 30.7185 31.1468 30.7266 31.0946C30.7347 31.0424 30.7323 30.9892 30.7195 30.9379C30.7073 30.8863 30.6845 30.8378 30.6526 30.7952C30.6206 30.7527 30.5802 30.7171 30.5338 30.6907C30.4887 30.663 30.4386 30.6446 30.3862 30.6364C30.3338 30.6283 30.2803 30.6307 30.2289 30.6433C30.1891 30.6526 26.2301 31.5986 22.6273 31.5986C22.5513 31.5986 22.4637 31.5986 22.3667 31.5871C22.3749 27.2034 25.903 23.8975 30.5828 23.8975H30.605C33.0875 23.8975 35.2651 24.8689 36.7487 26.4549C36.7584 26.4733 36.771 26.4901 36.7861 26.5046L36.8679 26.5854C37.9752 27.8285 38.6425 29.3947 38.7686 31.0465C38.2721 31.2013 37.7487 31.3664 37.2008 31.5478L37.1109 31.5778C32.3796 33.1303 30.952 33.5981 24.4824 33.5981C24.3752 33.5981 24.2724 33.6402 24.1966 33.7152C24.1208 33.7901 24.0782 33.8918 24.0782 33.9978C24.0782 34.1038 24.1208 34.2055 24.1966 34.2804C24.2724 34.3554 24.3752 34.3975 24.4824 34.3975C31.0828 34.3975 32.5431 33.9204 37.3655 32.3356L37.4555 32.3056C44.5559 29.9745 47.0898 29.9745 48.4508 29.9745C50.4367 29.9745 52.4706 30.5925 53.8246 31.0026C54.3258 31.1539 54.7241 31.2763 55.0337 31.3422C54.8969 34.4639 54.1706 37.5327 52.8923 40.3902C51.3529 39.9767 49.7633 39.7742 48.1681 39.7884C45.8982 39.7884 42.9169 41.0232 40.0326 42.2199C37.5104 43.2653 35.1261 44.2518 33.5922 44.2518C30.8188 44.2518 29.0665 43.4097 27.9065 42.8506C27.2628 42.5387 26.7966 42.3146 26.3586 42.3146C26.2501 42.3146 26.1461 42.3572 26.0694 42.4331C25.9928 42.5089 25.9497 42.6117 25.9497 42.7189C25.9497 42.8262 25.9928 42.929 26.0694 43.0048C26.1461 43.0806 26.2501 43.1232 26.3586 43.1232C26.6086 43.1232 27.0443 43.3346 27.549 43.5772C28.7756 44.1686 30.6296 45.0615 33.5922 45.0615C35.2943 45.0615 37.7487 44.045 40.3492 42.9661C43.1529 41.8018 46.0618 40.597 48.1681 40.597C49.6453 40.5885 51.1173 40.7714 52.5466 41.141C51.2529 43.7838 49.5014 46.1822 47.3713 48.2277C42.6798 52.7477 36.5641 55.2254 30.1156 55.2254H29.7756C23.188 55.1364 17.0081 52.4935 12.3691 47.7841C9.99796 45.3794 8.1413 42.5269 6.91003 39.3968ZM51.522 35.2731C51.5419 35.2258 51.5522 35.1752 51.5522 35.124C51.5522 35.0729 51.5419 35.0222 51.522 34.975C51.5028 34.9281 51.4743 34.8855 51.4382 34.8496C51.4021 34.8137 51.3591 34.7853 51.3117 34.766C50.1778 34.2797 48.9566 34.0236 47.7206 34.0128C46.8573 34.0128 45.9683 34.3455 45.1155 34.6689C44.327 34.9669 43.5104 35.2742 42.7907 35.2742C42.1136 35.2815 41.439 35.1909 40.7884 35.0051C40.5948 34.9416 40.3938 34.9028 40.1903 34.8896C40.0862 34.8896 39.9863 34.9304 39.9127 35.0032C39.8391 35.076 39.7978 35.1747 39.7978 35.2777C39.7978 35.3806 39.8391 35.4793 39.9127 35.5521C39.9863 35.6249 40.0862 35.6658 40.1903 35.6658C40.3248 35.6803 40.4575 35.7082 40.5863 35.749C41.3019 35.9505 42.0433 36.0481 42.7872 36.0389C43.6517 36.0389 44.5396 35.7051 45.3924 35.3816C46.1798 35.0848 46.9963 34.7764 47.7171 34.7764C48.8503 34.7878 49.9696 35.0234 51.0092 35.4694C51.0566 35.4889 51.1074 35.4989 51.1587 35.4989C51.21 35.4989 51.2608 35.4889 51.3082 35.4694C51.3559 35.4525 51.3998 35.4265 51.4373 35.3928C51.4748 35.3591 51.5052 35.3184 51.5267 35.2731H51.522ZM27.7593 47.0876C27.7794 47.0407 27.79 46.9904 27.7903 46.9395C27.7907 46.8886 27.7809 46.8381 27.7615 46.791C27.742 46.7439 27.7134 46.701 27.6771 46.6649C27.6408 46.6287 27.5977 46.6001 27.5501 46.5805C26.4148 46.0915 25.1915 45.8334 23.9532 45.8216C23.0887 45.8216 22.2009 46.1554 21.3492 46.4777C20.5595 46.7746 19.7441 47.083 19.0233 47.083C18.3477 47.091 17.6746 47.0027 17.0245 46.8208C16.8307 46.7591 16.6296 46.7222 16.4264 46.711C16.3226 46.711 16.223 46.7518 16.1496 46.8244C16.0762 46.8969 16.035 46.9954 16.035 47.098C16.035 47.2006 16.0762 47.299 16.1496 47.3716C16.223 47.4442 16.3226 47.4849 16.4264 47.4849C16.5609 47.4993 16.6936 47.5272 16.8224 47.5681C17.5378 47.7704 18.2793 47.8684 19.0233 47.8592C19.8878 47.8592 20.7756 47.5242 21.6284 47.2008C22.4181 46.9039 23.2336 46.5955 23.9532 46.5955C25.087 46.6089 26.2064 46.8473 27.2452 47.2967C27.2928 47.3164 27.3438 47.3266 27.3954 47.3266C27.4469 47.3266 27.4979 47.3164 27.5455 47.2967C27.5937 47.2781 27.6375 47.25 27.6743 47.214C27.711 47.1781 27.74 47.135 27.7593 47.0876Z" fill="#007F8F"/>
<path d="M5.27452 32.317C5.21494 31.6147 5.18574 30.9055 5.18574 30.1939C5.18061 27.1791 5.72187 24.1879 6.78386 21.3619C6.80141 21.3104 6.80797 21.256 6.80315 21.2019C6.79832 21.1478 6.78221 21.0953 6.75583 21.0477C6.73 20.9993 6.69437 20.9567 6.65116 20.9225C6.60795 20.8883 6.55808 20.8633 6.50466 20.849C6.44511 20.8314 6.38214 20.8283 6.32111 20.84C6.26009 20.8516 6.20282 20.8777 6.15419 20.916L0.835287 25.0028L0.78739 23.8038C0.783429 23.7208 0.799601 23.6381 0.834555 23.5625C0.869509 23.487 0.922232 23.4208 0.988324 23.3695L11.4404 15.4292C11.4559 15.4519 11.4735 15.4732 11.493 15.4927L23.0198 26.8972C22.0945 28.2585 21.5978 29.8602 21.5922 31.5003C21.0548 31.4229 20.3995 31.3074 19.688 31.1827C17.7196 30.8361 15.2675 30.4088 13.3025 30.4088C10.1004 30.4088 7.10279 31.5939 5.6612 32.1634C5.53737 32.213 5.39135 32.2708 5.27452 32.317Z" fill="#007F8F"/>
<path d="M13.3025 31.212C10.2558 31.212 7.35745 32.359 5.9626 32.91C5.67639 33.0255 5.48713 33.0971 5.35162 33.141C5.34228 33.0729 5.33526 33.0036 5.32709 32.9331C5.45442 32.8881 5.63082 32.8176 5.8855 32.7182C7.29203 32.1638 10.2161 31.0087 13.3025 31.0087C15.2184 31.0087 17.6413 31.4338 19.5899 31.7745C20.4415 31.9235 21.1822 32.0529 21.7651 32.1291C22.0533 32.1721 22.344 32.1964 22.6354 32.2019C26.3223 32.2019 30.3457 31.2385 30.3819 31.2293C30.4072 31.2232 30.431 31.2123 30.452 31.197C30.4729 31.1818 30.4906 31.1627 30.5041 31.1407C30.5176 31.1187 30.5265 31.0942 30.5304 31.0688C30.5343 31.0434 30.533 31.0175 30.5268 30.9925C30.514 30.9419 30.4816 30.8983 30.4365 30.8713C30.3914 30.8442 30.3374 30.8359 30.2861 30.8481C30.2476 30.8585 26.2744 31.8092 22.6354 31.8092C22.5583 31.8092 22.4707 31.8092 22.3749 31.7999V31.5862C22.4719 31.5932 22.5595 31.5978 22.6354 31.5978C26.2382 31.5978 30.1973 30.6517 30.237 30.6425C30.2885 30.6298 30.342 30.6275 30.3944 30.6356C30.4467 30.6437 30.4969 30.6622 30.542 30.6899C30.5884 30.7163 30.6288 30.7519 30.6608 30.7944C30.6927 30.8369 30.7155 30.8855 30.7277 30.9371C30.7404 30.9883 30.7428 31.0416 30.7348 31.0938C30.7267 31.146 30.7083 31.1961 30.6806 31.2412C30.653 31.2864 30.6166 31.3257 30.5735 31.357C30.5305 31.3882 30.4817 31.4108 30.4298 31.4234C30.2592 31.4649 26.2756 32.4017 22.6354 32.4017C22.0093 32.4017 20.9252 32.2112 19.5537 31.972C17.6133 31.6359 15.2044 31.212 13.3025 31.212Z" fill="#E9BF72"/>
<path d="M6.42753 38.6883C5.79415 36.9115 5.36314 35.0704 5.14249 33.1992C5.21164 33.1856 5.2796 33.1667 5.34576 33.1426C5.56363 35.0145 5.99391 36.8561 6.62846 38.6328H6.59692C6.53702 38.6388 6.47918 38.6577 6.42753 38.6883Z" fill="#E9BF72"/>
<path d="M5.32709 32.9346C5.26112 32.9589 5.19361 32.979 5.12499 32.9946C5.11097 32.8629 5.09695 32.7324 5.08527 32.6007C5.12966 32.588 5.20209 32.5638 5.28854 32.5303C5.29905 32.6666 5.31307 32.8006 5.32709 32.9346Z" fill="#E9BF72"/>
<path d="M21.591 31.7022C21.0443 31.6248 20.3796 31.5081 19.6588 31.3822C17.695 31.0357 15.2523 30.6106 13.3025 30.6106C10.139 30.6106 7.167 31.7842 5.73827 32.3502C5.57355 32.4149 5.41467 32.4784 5.28851 32.5258C5.27916 32.4541 5.27449 32.3837 5.26865 32.3121C5.38547 32.2659 5.53734 32.2081 5.66117 32.1584C7.10275 31.589 10.1004 30.4038 13.3025 30.4038C15.2674 30.4038 17.7195 30.8324 19.688 31.1777C20.3994 31.3025 21.0548 31.418 21.5922 31.4954C21.5922 31.5312 21.5922 31.567 21.5922 31.6028L21.591 31.7022Z" fill="#E9BF72"/>
<path d="M5.14836 33.204C5.14019 33.1358 5.13201 33.0688 5.125 32.9995C5.19363 32.9839 5.26114 32.9638 5.3271 32.9395C5.33528 33.0099 5.34229 33.0792 5.35163 33.1474C5.28548 33.1715 5.21751 33.1904 5.14836 33.204Z" fill="#E9BF72"/>
<path d="M5.08528 32.6006C5.0771 32.5313 5.07243 32.4619 5.06659 32.3938C5.11332 32.3765 5.18341 32.3499 5.26869 32.3164C5.27453 32.388 5.2792 32.4585 5.28855 32.5301C5.20093 32.5636 5.12967 32.5879 5.08528 32.6006Z" fill="#E9BF72"/>
<path d="M4.84344 32.809C4.84344 32.757 4.86417 32.7071 4.90113 32.6701C4.93809 32.6332 4.9883 32.6121 5.04087 32.6115C5.05606 32.6099 5.07098 32.6064 5.08527 32.6011C5.09695 32.7328 5.11097 32.8633 5.12499 32.995C5.09739 33.0013 5.0692 33.0048 5.04087 33.0054C4.98841 33.0051 4.93819 32.9842 4.9012 32.9474C4.86421 32.9107 4.84344 32.8609 4.84344 32.809Z" fill="#E9BF72"/>
<path d="M5.14836 33.2039C5.11301 33.2111 5.07698 33.2146 5.04088 33.2143C4.93989 33.215 4.84248 33.1774 4.76868 33.1092C4.757 33.0145 4.74649 32.9197 4.73831 32.8239L4.84345 32.8135C4.84345 32.8654 4.86421 32.9151 4.90121 32.9519C4.9382 32.9887 4.98841 33.0095 5.04088 33.0098C5.0692 33.0093 5.09739 33.0058 5.12499 32.9995C5.132 33.0641 5.14018 33.1311 5.14836 33.2039Z" fill="#E9BF72"/>
<path d="M5.04087 32.6112C4.98829 32.6118 4.93808 32.6329 4.90112 32.6699C4.86416 32.7068 4.84343 32.7567 4.84344 32.8087L4.7383 32.8191C4.72779 32.7371 4.72078 32.6551 4.71494 32.5719C4.75013 32.5232 4.79608 32.483 4.84931 32.4543C4.90254 32.4257 4.96165 32.4094 5.02218 32.4068L5.06657 32.394C5.07241 32.4622 5.07708 32.5315 5.08526 32.6008C5.07097 32.6061 5.05605 32.6096 5.04087 32.6112Z" fill="#E9BF72"/>
<path d="M4.73834 32.819C4.74651 32.9148 4.75703 33.0096 4.76871 33.1043C4.72671 33.067 4.69313 33.0214 4.67018 32.9705C4.64723 32.9195 4.63543 32.8644 4.63553 32.8086C4.63519 32.7232 4.66309 32.64 4.71497 32.5718C4.72081 32.6549 4.72782 32.7416 4.73834 32.819Z" fill="#E9BF72"/>
<path d="M0.577119 23.8174C0.571786 23.7016 0.594435 23.5862 0.643191 23.4807C0.691948 23.3753 0.765409 23.2828 0.857492 23.211L11.3645 15.2314C11.3705 15.3041 11.3959 15.3738 11.4381 15.4336L0.985996 23.3739C0.919904 23.4252 0.86718 23.4914 0.832226 23.5669C0.797272 23.6425 0.781101 23.7252 0.785062 23.8082L0.835295 25.0026L6.15537 20.9112C6.204 20.8729 6.26126 20.8468 6.32229 20.8351C6.38331 20.8235 6.44628 20.8266 6.50583 20.8442C6.55925 20.8585 6.60912 20.8835 6.65233 20.9176C6.69554 20.9518 6.73117 20.9944 6.757 21.0428C6.78338 21.0904 6.7995 21.143 6.80432 21.197C6.80915 21.2511 6.80258 21.3056 6.78504 21.357C5.72305 24.183 5.18178 27.1743 5.18691 30.1891C5.18691 30.9006 5.21612 31.6098 5.2757 32.3122C5.19276 32.3457 5.12033 32.3722 5.0736 32.3896C5.01051 31.6618 4.97897 30.9283 4.97897 30.1891C4.97431 27.1496 5.51949 24.1339 6.58878 21.2843C6.59656 21.2598 6.59912 21.2341 6.59631 21.2086C6.59349 21.1832 6.58536 21.1586 6.57242 21.1364C6.54567 21.0902 6.50162 21.0561 6.44976 21.0417C6.4334 21.0372 6.41651 21.0349 6.39953 21.0348C6.35738 21.0342 6.31627 21.0477 6.28271 21.0729L0.641371 25.415L0.577119 23.8174Z" fill="#E9BF72"/>
<path d="M0.857487 23.2106C0.765404 23.2824 0.691943 23.3749 0.643187 23.4803C0.59443 23.5858 0.571781 23.7012 0.577114 23.8171L0.641366 25.4146L6.28036 21.0748C6.31393 21.0496 6.35504 21.0362 6.39719 21.0367C6.41417 21.0368 6.43106 21.0391 6.44742 21.0436C6.49928 21.0581 6.54333 21.0921 6.57008 21.1384C6.58302 21.1605 6.59115 21.1851 6.59397 21.2106C6.59678 21.236 6.59422 21.2618 6.58644 21.2862C5.51715 24.1358 4.97196 27.1516 4.97663 30.191C4.97663 30.9287 5.00817 31.6622 5.07126 32.3915L5.02687 32.4042C4.96634 32.4069 4.90722 32.4232 4.85399 32.4518C4.80077 32.4804 4.75482 32.5206 4.71962 32.5694C4.64603 31.7839 4.60981 30.9892 4.60981 30.191C4.60503 27.3105 5.08754 24.4494 6.03737 21.7263L0.755852 25.7877C0.713493 25.8192 0.663258 25.8387 0.610531 25.8442C0.557804 25.8496 0.504575 25.8408 0.456551 25.8186C0.408528 25.7964 0.36752 25.7617 0.337926 25.7182C0.308332 25.6747 0.291268 25.624 0.288564 25.5717L0.217302 23.8298C0.209127 23.6569 0.242563 23.4845 0.314862 23.3269C0.38716 23.1693 0.496258 23.0308 0.633188 22.923L11.424 14.7217L11.5222 14.8499C11.5105 14.8583 11.5 14.868 11.4906 14.8788C11.4495 14.9187 11.4169 14.9664 11.3946 15.0189C11.3723 15.0715 11.3609 15.1279 11.361 15.1849C11.3592 15.1987 11.3592 15.2127 11.361 15.2265L0.857487 23.2106Z" fill="#E9BF72"/>
<path d="M55.8444 30.5227C55.8109 33.9339 55.0927 37.3045 53.7314 40.4391C52.3702 43.5736 50.393 46.4097 47.9146 48.7828C43.0816 53.4356 36.7616 56 30.1144 56C29.9976 56 29.8807 56 29.7639 56C22.966 55.9087 16.5899 53.1815 11.8107 48.3254C8.50726 44.9408 6.18848 40.7377 5.09879 36.1591C4.0091 31.5804 4.18887 26.7959 5.61914 22.3099L0.877337 25.9577C0.804691 26.0134 0.717916 26.0483 0.626553 26.0584C0.535189 26.0685 0.442773 26.0535 0.359463 26.0151C0.276153 25.9766 0.205175 25.9162 0.15433 25.8405C0.103486 25.7647 0.0747446 25.6766 0.0712648 25.5858L0.00117178 23.8473C-0.00765884 23.6406 0.0335226 23.4347 0.121296 23.2469C0.209069 23.0591 0.340902 22.8946 0.505843 22.7673L30.3632 0.0819506C30.4322 0.0288404 30.5171 0 30.6045 0C30.6918 0 30.7767 0.0288404 30.8457 0.0819506L60.0045 22.9232C60.1566 23.0449 60.2792 23.1988 60.3633 23.3735C60.4474 23.5482 60.4909 23.7393 60.4904 23.9328L60.4332 25.7348C60.4308 25.826 60.4027 25.9147 60.352 25.9909C60.3013 26.0671 60.23 26.1277 60.1463 26.166C60.0625 26.2042 59.9696 26.2185 59.8781 26.2072C59.7865 26.1959 59.7 26.1595 59.6283 26.1021L54.6587 22.4184C55.4822 25.0415 55.8824 27.7765 55.8444 30.5227ZM55.6365 30.5227C55.6783 27.5807 55.2121 24.6533 54.258 21.8663L59.7591 25.9439C59.801 25.9775 59.8516 25.9988 59.9052 26.0051C59.9587 26.0114 60.013 26.0026 60.0617 25.9797C60.1072 25.9591 60.1463 25.9268 60.1749 25.8861C60.2035 25.8455 60.2204 25.798 60.2241 25.7486C60.2246 25.7429 60.2246 25.7371 60.2241 25.7313L60.2825 23.9363C60.2831 23.7737 60.2466 23.613 60.1758 23.4663C60.105 23.3195 60.0017 23.1903 59.8736 23.0884L49.0384 14.6029L30.7172 0.245977C30.6841 0.219533 30.6429 0.205105 30.6004 0.205105C30.5578 0.205105 30.5166 0.219533 30.4835 0.245977L30.4368 0.281786C30.3679 0.31059 30.3076 0.356314 30.2616 0.414624L11.424 14.7219L0.633178 22.9232C0.494422 23.0305 0.383557 23.1689 0.309799 23.327C0.236042 23.4851 0.201524 23.6583 0.209115 23.8323L0.280376 25.58C0.283081 25.6324 0.300145 25.683 0.329739 25.7265C0.359333 25.77 0.40034 25.8047 0.448364 25.8269C0.496388 25.8491 0.549617 25.8579 0.602344 25.8525C0.65507 25.847 0.705306 25.8275 0.747664 25.796L6.02919 21.7346C5.07935 24.4577 4.59684 27.3188 4.60162 30.1993C4.60162 30.9975 4.63784 31.7922 4.71143 32.5777C4.65955 32.646 4.63166 32.7291 4.632 32.8145C4.63189 32.8703 4.6437 32.9255 4.66665 32.9764C4.6896 33.0274 4.72317 33.073 4.76517 33.1102C5.39162 38.7886 7.92394 44.0957 11.9579 48.1845C16.6997 53.0025 23.0233 55.7055 29.7651 55.7967C29.8819 55.7967 29.9987 55.7967 30.1156 55.7967C36.7113 55.7967 42.966 53.2554 47.7697 48.635C50.0154 46.4794 51.8489 43.9405 53.1821 41.1406C53.2418 41.094 53.2862 41.0309 53.3094 40.9592C53.3243 40.9157 53.3315 40.87 53.3304 40.8241C54.6975 37.836 55.4712 34.6161 55.6096 31.3394C55.6223 31.3319 55.6344 31.3234 55.6458 31.314C55.6872 31.2804 55.7214 31.239 55.7465 31.1922C55.7716 31.1454 55.787 31.0941 55.7919 31.0414C55.7984 30.9735 55.787 30.9052 55.7587 30.843C55.7305 30.7808 55.6863 30.727 55.6306 30.6868C55.6353 30.6313 55.6365 30.5759 55.6365 30.5204V30.5227Z" fill="#E9BF72"/>
<path d="M90.0145 29.3781C90.0184 29.5949 89.9756 29.8099 89.8891 30.0084C89.8026 30.2068 89.6743 30.384 89.5133 30.5277C89.2031 30.8278 88.7893 30.9944 88.3595 30.9923C88.1454 31.0028 87.9314 30.9683 87.7312 30.8912C87.5309 30.8141 87.3487 30.696 87.196 30.5443C87.0434 30.3926 86.9235 30.2107 86.8441 30.0099C86.7647 29.8092 86.7275 29.5941 86.7347 29.3781V14.0905C86.7289 13.8758 86.7678 13.6623 86.8489 13.4637C86.93 13.2651 87.0515 13.0858 87.2056 12.9375C87.366 12.7829 87.5555 12.6625 87.763 12.5833C87.9705 12.504 88.1916 12.4677 88.4133 12.4763C88.6199 12.4754 88.8246 12.5157 89.0157 12.5949C89.2068 12.674 89.3805 12.7904 89.5268 12.9375C89.6844 13.0839 89.8094 13.2624 89.8935 13.4612C89.9776 13.66 90.0188 13.8745 90.0145 14.0905V29.3781Z" fill="#E9BF72"/>
<path d="M100.85 12.4492C101.119 12.4547 101.384 12.522 101.624 12.6459C101.872 12.759 102.085 12.9384 102.239 13.1647L108.631 23.0569L107.319 23.0026L113.851 13.1681C113.987 12.9483 114.177 12.7672 114.402 12.6419C114.627 12.5167 114.88 12.4515 115.136 12.4525C115.556 12.4514 115.959 12.6129 116.263 12.9036C116.427 13.048 116.557 13.2272 116.644 13.4284C116.73 13.6295 116.772 13.8476 116.765 14.0668V29.3815C116.77 29.5986 116.73 29.8144 116.648 30.0153C116.566 30.2161 116.443 30.3975 116.288 30.548C116.133 30.6985 115.948 30.8148 115.746 30.8896C115.543 30.9643 115.328 30.9958 115.113 30.9821C114.893 30.9909 114.674 30.9541 114.468 30.8742C114.263 30.7943 114.076 30.673 113.919 30.5175C113.769 30.3676 113.651 30.1882 113.572 29.9905C113.493 29.7927 113.456 29.5809 113.461 29.3679V16.9188L114.47 17.1562L109.118 25.3832C108.952 25.5844 108.751 25.7543 108.526 25.8851C108.312 26.0214 108.06 26.0866 107.806 26.0717C107.561 26.0848 107.317 26.0196 107.11 25.8851C106.885 25.7543 106.685 25.5844 106.518 25.3832L101.509 17.3969L102.182 15.993V29.3781C102.195 29.8012 102.046 30.2131 101.765 30.5277C101.625 30.6807 101.454 30.8014 101.263 30.8816C101.073 30.9618 100.868 30.9995 100.661 30.9923C100.459 30.9983 100.258 30.9598 100.072 30.8796C99.8865 30.7994 99.7202 30.6793 99.585 30.5277C99.3031 30.2134 99.1525 29.8016 99.1645 29.3781V14.0634C99.1623 13.8496 99.2045 13.6378 99.2886 13.4415C99.3726 13.2453 99.4965 13.069 99.6522 12.9239C99.8091 12.7666 99.9963 12.6433 100.202 12.5616C100.408 12.48 100.629 12.4417 100.85 12.4492Z" fill="#E9BF72"/>
<path d="M127.586 12.4492C127.856 12.4547 128.12 12.522 128.36 12.6459C128.609 12.7581 128.822 12.9377 128.976 13.1647L135.367 23.0569L134.055 23.0026L140.588 13.1681C140.724 12.9483 140.913 12.7672 141.138 12.6419C141.363 12.5167 141.616 12.4515 141.873 12.4526C142.293 12.4519 142.698 12.6133 143.003 12.9036C143.166 13.0488 143.295 13.2282 143.381 13.4293C143.467 13.6303 143.508 13.8479 143.501 14.0668V29.3815C143.508 29.5976 143.47 29.8128 143.391 30.0136C143.311 30.2143 143.191 30.3962 143.038 30.5478C142.885 30.6995 142.702 30.8175 142.502 30.8946C142.301 30.9717 142.087 31.0061 141.873 30.9957C141.653 31.0044 141.434 30.9677 141.228 30.8878C141.023 30.8079 140.836 30.6865 140.679 30.5311C140.529 30.3811 140.411 30.2018 140.332 30.004C140.253 29.8063 140.216 29.5945 140.221 29.3815V16.9188L141.231 17.1562L135.879 25.3832C135.716 25.5871 135.519 25.7605 135.297 25.8953C135.082 26.0316 134.83 26.0968 134.577 26.0818C134.331 26.095 134.087 26.0297 133.88 25.8953C133.656 25.7653 133.456 25.5952 133.292 25.3934L128.279 17.4071L128.952 16.0032V29.3883C128.964 29.8118 128.814 30.2236 128.532 30.5379C128.392 30.6909 128.221 30.8116 128.03 30.8918C127.84 30.9719 127.635 31.0097 127.428 31.0025C127.226 31.0085 127.025 30.97 126.839 30.8898C126.653 30.8096 126.487 30.6895 126.352 30.5379C126.071 30.2232 125.922 29.8114 125.935 29.3883V14.0634C125.932 13.8499 125.974 13.6381 126.057 13.4418C126.14 13.2456 126.264 13.0691 126.419 12.9239C126.573 12.7704 126.755 12.6492 126.955 12.5677C127.156 12.4862 127.37 12.4459 127.586 12.4492Z" fill="#E9BF72"/>
<path d="M169.568 21.7343C169.579 22.999 169.356 24.2546 168.913 25.4375C168.492 26.5562 167.864 27.5839 167.062 28.4659C166.247 29.3567 165.257 30.0676 164.155 30.5538C163.053 31.0401 161.863 31.2911 160.661 31.2911C159.458 31.2911 158.268 31.0401 157.167 30.5538C156.065 30.0676 155.075 29.3567 154.259 28.4659C153.457 27.5839 152.83 26.5562 152.409 25.4375C151.534 23.0474 151.534 20.4212 152.409 18.0311C152.829 16.9121 153.457 15.8842 154.259 15.0027C155.068 14.1082 156.056 13.3969 157.158 12.9158C158.26 12.4347 159.45 12.1948 160.651 12.2118C161.881 12.2007 163.1 12.4527 164.227 12.9511C165.298 13.4276 166.262 14.12 167.059 14.9858C167.861 15.8673 168.489 16.8951 168.909 18.0141C169.356 19.2021 169.58 20.4637 169.568 21.7343ZM166.157 21.7343C166.173 20.6215 165.93 19.5204 165.448 18.5194C165.009 17.5992 164.34 16.8103 163.507 16.2304C162.653 15.6789 161.661 15.3858 160.647 15.3858C159.634 15.3858 158.641 15.6789 157.788 16.2304C156.957 16.8042 156.291 17.5892 155.857 18.5059C155.4 19.5174 155.163 20.616 155.163 21.7275C155.163 22.8391 155.4 23.9377 155.857 24.9492C156.287 25.8721 156.953 26.6624 157.788 27.2382C158.641 27.7917 159.633 28.0861 160.647 28.0861C161.661 28.0861 162.654 27.7917 163.507 27.2382C164.342 26.66 165.011 25.8706 165.448 24.9492C165.93 23.9482 166.173 22.8471 166.157 21.7343Z" fill="#E9BF72"/>
<path d="M179.512 12.4763C179.719 12.4754 179.924 12.5157 180.115 12.5949C180.306 12.674 180.479 12.7904 180.626 12.9375C180.784 13.0834 180.91 13.2618 180.994 13.4607C181.078 13.6596 181.119 13.8743 181.114 14.0905V29.3781C181.117 29.5945 181.075 29.8092 180.989 30.0075C180.903 30.2059 180.776 30.3833 180.616 30.5277C180.304 30.828 179.889 30.9946 179.459 30.9923C179.244 31.0028 179.03 30.9683 178.83 30.8912C178.63 30.8141 178.448 30.696 178.295 30.5443C178.142 30.3926 178.023 30.2107 177.943 30.0099C177.864 29.8092 177.826 29.5941 177.834 29.3781V14.0905C177.829 13.8759 177.868 13.6625 177.949 13.464C178.03 13.2655 178.151 13.0862 178.305 12.9375C178.465 12.7833 178.655 12.663 178.862 12.5838C179.07 12.5046 179.291 12.468 179.512 12.4763ZM179.435 20.171H191.138V23.223H179.435V20.171ZM191.138 12.4763C191.353 12.4654 191.567 12.4995 191.767 12.5764C191.968 12.6532 192.151 12.7713 192.304 12.923C192.457 13.0748 192.577 13.2569 192.657 13.4578C192.736 13.6588 192.774 13.8742 192.766 14.0905V29.3781C192.771 29.5913 192.733 29.8032 192.654 30.0009C192.574 30.1986 192.456 30.3779 192.305 30.5277C192.144 30.6846 191.953 30.8068 191.744 30.8866C191.535 30.9665 191.311 31.0025 191.088 30.9923C190.88 30.9927 190.675 30.9518 190.483 30.8721C190.292 30.7924 190.118 30.6753 189.971 30.5277C189.814 30.3816 189.69 30.2036 189.606 30.0054C189.522 29.8072 189.482 29.5934 189.486 29.3781V14.0905C189.482 13.8734 189.524 13.6579 189.61 13.4588C189.696 13.2597 189.823 13.0819 189.984 12.9375C190.295 12.6384 190.709 12.473 191.138 12.4763Z" fill="#E9BF72"/>
<path d="M203.548 12.4763H212.331C212.753 12.4645 213.162 12.6204 213.471 12.9104C213.622 13.0547 213.741 13.2297 213.82 13.4238C213.899 13.6179 213.936 13.8266 213.929 14.0363C213.936 14.2379 213.899 14.4388 213.82 14.6242C213.741 14.8096 213.622 14.9748 213.471 15.1079C213.156 15.3853 212.749 15.5319 212.331 15.5182H204.991L205.226 15.0672V20.2252L205.014 20.015H211.157C211.579 20.0032 211.988 20.1591 212.297 20.449C212.448 20.5934 212.567 20.7684 212.646 20.9625C212.725 21.1565 212.762 21.3653 212.755 21.5749C212.762 21.7766 212.725 21.9774 212.646 22.1628C212.567 22.3482 212.448 22.5135 212.297 22.6465C211.982 22.9239 211.575 23.0706 211.157 23.0569H205.102L205.233 22.8432V28.1878L205.021 27.9504H212.331C212.542 27.9447 212.752 27.9827 212.949 28.062C213.145 28.1413 213.323 28.2603 213.471 28.4116C213.616 28.5494 213.731 28.7155 213.81 28.8998C213.889 29.0841 213.929 29.2826 213.929 29.4832C213.935 29.6867 213.898 29.8892 213.819 30.0766C213.74 30.264 213.621 30.4318 213.471 30.5684C213.158 30.8488 212.75 30.997 212.331 30.9821H203.548C203.336 30.9868 203.126 30.9482 202.93 30.8687C202.733 30.7892 202.555 30.6705 202.405 30.5197C202.256 30.3688 202.138 30.189 202.059 29.9911C201.98 29.7931 201.942 29.5812 201.946 29.3679V14.0905C201.941 13.8771 201.979 13.6649 202.058 13.4668C202.137 13.2686 202.254 13.0886 202.404 12.9377C202.554 12.7868 202.732 12.6681 202.929 12.5888C203.126 12.5095 203.336 12.4712 203.548 12.4763Z" fill="#E9BF72"/>
<path d="M232.33 27.8962C232.753 27.8847 233.164 28.0419 233.473 28.3336C233.624 28.4777 233.742 28.6522 233.821 28.8456C233.9 29.039 233.937 29.2471 233.931 29.4561C233.936 29.6614 233.897 29.8654 233.819 30.0547C233.74 30.2441 233.622 30.4145 233.473 30.5548C233.164 30.8466 232.753 31.0037 232.33 30.9923H223.802C223.591 30.996 223.381 30.9568 223.185 30.8769C222.989 30.7971 222.811 30.6783 222.662 30.5277C222.512 30.3771 222.394 30.1977 222.315 30.0002C222.236 29.8027 222.197 29.5911 222.201 29.3781V14.0905C222.195 13.8756 222.235 13.6619 222.317 13.4633C222.398 13.2646 222.52 13.0855 222.675 12.9375C222.835 12.7829 223.025 12.6625 223.232 12.5833C223.44 12.504 223.661 12.4677 223.883 12.4763C224.3 12.4753 224.7 12.6411 224.996 12.9375C225.153 13.0841 225.278 13.2627 225.361 13.4615C225.445 13.6603 225.486 13.8747 225.481 14.0905V28.3336L224.905 27.8826L232.33 27.8962Z" fill="#E9BF72"/>
<path d="M249.778 12.4763C250.691 12.4774 251.583 12.7538 252.338 13.2698C253.145 13.8128 253.807 14.5477 254.266 15.4097C254.762 16.336 255.015 17.3751 254.999 18.4279C255.009 19.4398 254.772 20.4387 254.308 21.336C253.844 22.2333 253.167 23.0014 252.338 23.5723C251.586 24.0968 250.693 24.3783 249.778 24.3795H244.961L245.224 23.9013V29.3781C245.236 29.8016 245.085 30.2134 244.803 30.5277C244.664 30.681 244.494 30.8019 244.304 30.8821C244.114 30.9623 243.909 31 243.703 30.9923C243.501 30.9983 243.3 30.9598 243.114 30.8796C242.928 30.7994 242.762 30.6793 242.627 30.5277C242.345 30.2134 242.194 29.8016 242.206 29.3781V14.0905C242.201 13.8771 242.239 13.6649 242.318 13.4668C242.396 13.2686 242.514 13.0886 242.664 12.9377C242.814 12.7868 242.992 12.6681 243.189 12.5888C243.385 12.5094 243.596 12.4712 243.807 12.4763H249.778ZM249.778 21.3647C250.144 21.3504 250.49 21.1992 250.751 20.9408C251.084 20.6316 251.351 20.2579 251.538 19.842C251.744 19.3997 251.851 18.9167 251.851 18.4279C251.852 17.9567 251.754 17.4907 251.565 17.0601C251.375 16.6294 251.098 16.2439 250.751 15.9285C250.488 15.6761 250.141 15.5301 249.778 15.5182H244.897L245.214 15.04V21.7852L244.924 21.3647H249.778Z" fill="#E9BF72"/>
<path d="M89.2422 43.5031C88.767 43.5031 88.3388 43.405 87.9577 43.2089C87.5767 43.0085 87.2763 42.7335 87.0566 42.3838C86.8414 42.0342 86.7338 41.6441 86.7338 41.2134C86.7338 40.7828 86.8414 40.3927 87.0566 40.0431C87.2763 39.6934 87.5767 39.4206 87.9577 39.2244C88.3388 39.024 88.767 38.9238 89.2422 38.9238C89.713 38.9238 90.1389 39.024 90.5199 39.2244C90.901 39.4206 91.1992 39.6934 91.4144 40.0431C91.6296 40.3884 91.7372 40.7785 91.7372 41.2134C91.7372 41.6483 91.6296 42.0406 91.4144 42.3902C91.1992 42.7356 90.901 43.0085 90.5199 43.2089C90.1389 43.405 89.713 43.5031 89.2422 43.5031ZM89.2422 42.9339C89.5874 42.9339 89.8968 42.8592 90.1702 42.71C90.4482 42.5608 90.6657 42.3561 90.8226 42.096C90.984 41.8317 91.0647 41.5375 91.0647 41.2134C91.0647 40.8894 90.984 40.5973 90.8226 40.3373C90.6657 40.0729 90.4482 39.8661 90.1702 39.7169C89.8968 39.5676 89.5874 39.493 89.2422 39.493C88.897 39.493 88.5832 39.5676 88.3007 39.7169C88.0227 39.8661 87.8031 40.0729 87.6417 40.3373C87.4847 40.5973 87.4063 40.8894 87.4063 41.2134C87.4063 41.5375 87.4847 41.8317 87.6417 42.096C87.8031 42.3561 88.0227 42.5608 88.3007 42.71C88.5832 42.8592 88.897 42.9339 89.2422 42.9339Z" fill="#E9BF72"/>
<path d="M94.7153 43.5031C94.0876 43.5031 93.5989 43.3325 93.2492 42.9914C92.8995 42.6503 92.7247 42.16 92.7247 41.5204V38.975H93.3972V41.4949C93.3972 42.4542 93.8388 42.9339 94.722 42.9339C95.1524 42.9339 95.4819 42.8166 95.7106 42.5821C95.9392 42.3433 96.0535 41.9809 96.0535 41.4949V38.975H96.7059V41.5204C96.7059 42.1643 96.531 42.6567 96.1813 42.9978C95.8316 43.3346 95.3429 43.5031 94.7153 43.5031Z" fill="#E9BF72"/>
<path d="M101.232 43.4519L100.216 42.0768C100.091 42.0854 99.9922 42.0896 99.9205 42.0896H98.7571V43.4519H98.0846V38.975H99.9205C100.53 38.975 101.01 39.1136 101.36 39.3907C101.709 39.6678 101.884 40.0494 101.884 40.5355C101.884 40.8809 101.795 41.1751 101.615 41.4181C101.436 41.6611 101.18 41.8381 100.849 41.9489L101.965 43.4519H101.232ZM99.9003 41.546C100.326 41.546 100.651 41.4586 100.875 41.2838C101.1 41.109 101.212 40.8596 101.212 40.5355C101.212 40.2115 101.1 39.9642 100.875 39.7936C100.651 39.6188 100.326 39.5314 99.9003 39.5314H98.7571V41.546H99.9003Z" fill="#E9BF72"/>
<path d="M108.825 38.975V43.4519H108.153V41.4565H105.449V43.4519H104.777V38.975H105.449V40.9001H108.153V38.975H108.825Z" fill="#E9BF72"/>
<path d="M112.359 43.5031C111.884 43.5031 111.456 43.405 111.075 43.2089C110.694 43.0085 110.393 42.7335 110.174 42.3838C109.958 42.0342 109.851 41.6441 109.851 41.2134C109.851 40.7828 109.958 40.3927 110.174 40.0431C110.393 39.6934 110.694 39.4206 111.075 39.2244C111.456 39.024 111.884 38.9238 112.359 38.9238C112.83 38.9238 113.256 39.024 113.637 39.2244C114.018 39.4206 114.316 39.6934 114.531 40.0431C114.747 40.3884 114.854 40.7785 114.854 41.2134C114.854 41.6483 114.747 42.0406 114.531 42.3902C114.316 42.7356 114.018 43.0085 113.637 43.2089C113.256 43.405 112.83 43.5031 112.359 43.5031ZM112.359 42.9339C112.704 42.9339 113.014 42.8592 113.287 42.71C113.565 42.5608 113.783 42.3561 113.94 42.096C114.101 41.8317 114.182 41.5375 114.182 41.2134C114.182 40.8894 114.101 40.5973 113.94 40.3373C113.783 40.0729 113.565 39.8661 113.287 39.7169C113.014 39.5676 112.704 39.493 112.359 39.493C112.014 39.493 111.7 39.5676 111.418 39.7169C111.14 39.8661 110.92 40.0729 110.759 40.3373C110.602 40.5973 110.523 40.8894 110.523 41.2134C110.523 41.5375 110.602 41.8317 110.759 42.096C110.92 42.3561 111.14 42.5608 111.418 42.71C111.7 42.8592 112.014 42.9339 112.359 42.9339Z" fill="#E9BF72"/>
<path d="M120.247 43.4519L120.24 40.1902L118.538 42.9083H118.229L116.528 40.2093V43.4519H115.882V38.975H116.434L118.397 42.1216L120.334 38.975H120.885L120.892 43.4519H120.247Z" fill="#E9BF72"/>
<path d="M125.721 42.8955V43.4519H122.305V38.975H125.627V39.5314H122.977V40.9065H125.338V41.4501H122.977V42.8955H125.721Z" fill="#E9BF72"/>
<path d="M128.616 38.975H129.289V43.4519H128.616V38.975Z" fill="#E9BF72"/>
<path d="M134.746 38.975V43.4519H134.195L131.37 40.1134V43.4519H130.698V38.975H131.249L134.074 42.3135V38.975H134.746Z" fill="#E9BF72"/>
<path d="M139.333 43.5031C138.979 43.5031 138.636 43.4519 138.304 43.3496C137.977 43.243 137.719 43.1065 137.531 42.9403L137.78 42.4414C137.959 42.5949 138.188 42.7207 138.466 42.8187C138.748 42.9125 139.037 42.9594 139.333 42.9594C139.723 42.9594 140.015 42.8976 140.208 42.774C140.4 42.6461 140.497 42.4776 140.497 42.2687C140.497 42.1152 140.443 41.9916 140.335 41.8978C140.232 41.7997 140.102 41.7251 139.945 41.6739C139.793 41.6228 139.575 41.5652 139.293 41.5012C138.939 41.4202 138.652 41.3392 138.432 41.2582C138.217 41.1772 138.031 41.0536 137.874 40.8873C137.722 40.7167 137.645 40.4886 137.645 40.2029C137.645 39.9642 137.71 39.7489 137.84 39.557C137.975 39.3651 138.177 39.2116 138.446 39.0965C138.715 38.9814 139.049 38.9238 139.448 38.9238C139.726 38.9238 139.999 38.9579 140.268 39.0262C140.537 39.0944 140.768 39.1924 140.961 39.3204L140.739 39.832C140.542 39.7126 140.331 39.6231 140.107 39.5634C139.883 39.4994 139.663 39.4675 139.448 39.4675C139.067 39.4675 138.78 39.5335 138.587 39.6657C138.399 39.7979 138.304 39.9684 138.304 40.1774C138.304 40.3309 138.358 40.4566 138.466 40.5547C138.573 40.6485 138.706 40.7231 138.863 40.7785C139.024 40.8297 139.241 40.8851 139.515 40.9448C139.869 41.0258 140.154 41.1069 140.369 41.1879C140.584 41.2689 140.768 41.3925 140.92 41.5588C141.077 41.7251 141.156 41.9489 141.156 42.2303C141.156 42.4648 141.089 42.6802 140.954 42.8763C140.82 43.0682 140.616 43.2217 140.342 43.3368C140.069 43.4476 139.732 43.5031 139.333 43.5031Z" fill="#E9BF72"/>
<path d="M143.974 38.975C144.584 38.975 145.064 39.1136 145.413 39.3907C145.763 39.6678 145.938 40.0494 145.938 40.5355C145.938 41.0216 145.763 41.4032 145.413 41.6803C145.064 41.9575 144.584 42.096 143.974 42.096H142.811V43.4519H142.138V38.975H143.974ZM143.954 41.5396C144.38 41.5396 144.705 41.4543 144.929 41.2838C145.153 41.109 145.265 40.8596 145.265 40.5355C145.265 40.2115 145.153 39.9642 144.929 39.7936C144.705 39.6188 144.38 39.5314 143.954 39.5314H142.811V41.5396H143.954Z" fill="#E9BF72"/>
<path d="M149.689 42.3327H147.187L146.669 43.4519H145.977L148.108 38.975H148.774L150.913 43.4519H150.207L149.689 42.3327ZM149.453 41.821L148.438 39.6273L147.422 41.821H149.453Z" fill="#E9BF72"/>
<path d="M151.615 38.975H152.287V43.4519H151.615V38.975Z" fill="#E9BF72"/>
<path d="M157.745 38.975V43.4519H157.194L154.369 40.1134V43.4519H153.697V38.975H154.248L157.073 42.3135V38.975H157.745Z" fill="#E9BF72"/>
</svg>
