<svg width="18" height="20" viewBox="0 0 18 20" fill="none" xmlns="http://www.w3.org/2000/svg">
<path d="M16.4348 3.85L10.5504 0.42C9.58943 -0.14 8.40066 -0.14 7.42983 0.42L1.55531 3.85C0.594386 4.41 0 5.45 0 6.58V13.42C0 14.54 0.594386 15.58 1.55531 16.15L7.43974 19.58C8.40066 20.14 9.58943 20.14 10.5603 19.58L16.4447 16.15C17.4056 15.59 18 14.55 18 13.42V6.58C17.9901 5.45 17.3957 4.42 16.4348 3.85ZM8.25206 5.75C8.25206 5.34 8.58888 5 8.99505 5C9.40121 5 9.73803 5.34 9.73803 5.75V11C9.73803 11.41 9.40121 11.75 8.99505 11.75C8.58888 11.75 8.25206 11.41 8.25206 11V5.75ZM9.90644 14.63C9.85691 14.75 9.78756 14.86 9.6984 14.96C9.51018 15.15 9.26252 15.25 8.99505 15.25C8.86626 15.25 8.73748 15.22 8.6186 15.17C8.48982 15.12 8.39075 15.05 8.29169 14.96C8.20253 14.86 8.13319 14.75 8.07375 14.63C8.02422 14.51 8.0044 14.38 8.0044 14.25C8.0044 13.99 8.10347 13.73 8.29169 13.54C8.39075 13.45 8.48982 13.38 8.6186 13.33C8.98514 13.17 9.42102 13.26 9.6984 13.54C9.78756 13.64 9.85691 13.74 9.90644 13.87C9.95597 13.99 9.98569 14.12 9.98569 14.25C9.98569 14.38 9.95597 14.51 9.90644 14.63Z" fill="white"/>
</svg>
