<svg width="11" height="16" viewBox="0 0 11 16" fill="none" xmlns="http://www.w3.org/2000/svg">
<path d="M5.5 0C3.45312 0 1.78906 1.704 1.78906 3.8C1.78906 5.856 3.35938 7.52 5.40625 7.592C5.46875 7.584 5.53125 7.584 5.57812 7.592C5.59375 7.592 5.60156 7.592 5.61719 7.592C5.625 7.592 5.625 7.592 5.63281 7.592C7.63281 7.52 9.20312 5.856 9.21094 3.8C9.21094 1.704 7.54687 0 5.5 0Z" fill="#007F8F"/>
<path d="M9.46875 9.72C7.28906 8.232 3.73437 8.232 1.53906 9.72C0.546875 10.4 0 11.32 0 12.304C0 13.288 0.546875 14.2 1.53125 14.872C2.625 15.624 4.0625 16 5.5 16C6.9375 16 8.375 15.624 9.46875 14.872C10.4531 14.192 11 13.28 11 12.288C10.9922 11.304 10.4531 10.392 9.46875 9.72Z" fill="#007F8F"/>
</svg>
