<svg width="28" height="28" viewBox="0 0 28 28" fill="none" xmlns="http://www.w3.org/2000/svg">
<rect width="28" height="28" rx="4" fill="#007F8F"/>
<path d="M9.24 4H7.34C5.15 4 4 5.15 4 7.33V9.23C4 11.41 5.15 12.56 7.33 12.56H9.23C11.41 12.56 12.56 11.41 12.56 9.23V7.33C12.57 5.15 11.42 4 9.24 4Z" fill="white"/>
<path d="M20.67 4H18.77C16.59 4 15.44 5.15 15.44 7.33V9.23C15.44 11.41 16.59 12.56 18.77 12.56H20.67C22.85 12.56 24 11.41 24 9.23V7.33C24 5.15 22.85 4 20.67 4Z" fill="white"/>
<path d="M20.67 15.43H18.77C16.59 15.43 15.44 16.58 15.44 18.76V20.66C15.44 22.84 16.59 23.99 18.77 23.99H20.67C22.85 23.99 24 22.84 24 20.66V18.76C24 16.58 22.85 15.43 20.67 15.43Z" fill="white"/>
<path d="M9.24 15.43H7.34C5.15 15.43 4 16.58 4 18.76V20.66C4 22.85 5.15 24 7.33 24H9.23C11.41 24 12.56 22.85 12.56 20.67V18.77C12.57 16.58 11.42 15.43 9.24 15.43Z" fill="white"/>
</svg>
