<svg width="90" height="90" viewBox="0 0 90 90" fill="none" xmlns="http://www.w3.org/2000/svg">
<path d="M34.3256 88.7011C35.707 88.7011 37.0047 87.7793 37.3814 86.3548C37.8 84.6788 36.8372 82.9609 35.1628 82.5C18.1674 78.0168 6.32093 62.5978 6.32093 45C6.32093 23.6313 23.693 6.24302 45.0419 6.24302C63.1674 6.24302 75.0558 16.8436 80.6233 23.2542H68.3163C66.6 23.2542 65.1767 24.6788 65.1767 26.3967C65.1767 28.1145 66.5163 29.581 68.2744 29.581H86.8186C87.1116 29.581 87.4047 29.5391 87.6977 29.4553C88.0744 29.3296 88.4093 29.162 88.7023 28.9525C89.0791 28.7011 89.3721 28.3659 89.5814 27.9888C89.7907 27.5698 89.9581 27.1508 90 26.6899C90 26.5642 90 26.4804 90 26.3547V7.3324C90 5.61452 88.5767 4.18994 86.8605 4.18994C85.1442 4.18994 83.7209 5.61452 83.7209 7.3324V17.3464C76.8977 10.014 64.0465 0 45 0C20.1767 0 0 20.1955 0 45.0419C0 65.4888 13.7721 83.4218 33.5302 88.6173C33.7814 88.6592 34.0744 88.7011 34.3256 88.7011Z" fill="white"/>
<path d="M47.9721 90C48.0558 90 48.1814 90 48.2651 89.9581C52.7442 89.6648 57.1395 88.6592 61.3256 87.0251C62.5395 86.5643 63.3349 85.3492 63.3349 84.0503C63.3349 83.6732 63.2512 83.2961 63.1256 82.9609C62.4977 81.3687 60.6558 80.5307 59.0651 81.1592C55.4651 82.5838 51.6558 83.4218 47.8046 83.7151H47.7628C46.0884 83.7989 44.8326 85.2235 44.8326 86.8994C44.8326 86.9413 44.8326 87.0251 44.8326 87.067C44.9581 88.7011 46.3395 90 47.9721 90ZM71.0372 80.9916C71.7488 80.9916 72.4186 80.7821 73.0047 80.3212C76.5209 77.514 79.5767 74.2039 82.1302 70.4749C82.507 69.9302 82.7163 69.3436 82.7163 68.7151C82.7163 67.6676 82.214 66.7039 81.3349 66.1173C79.9535 65.1536 77.9023 65.5307 76.9814 66.9134C74.7628 70.1397 72.1256 72.9888 69.0698 75.3771C68.3581 75.9637 67.8977 76.8436 67.8977 77.8073C67.8977 78.5196 68.107 79.2318 68.5674 79.8184C69.1535 80.5726 70.0744 80.9916 71.0372 80.9916ZM85.0186 60.5447C86.4 60.5447 87.614 59.6648 87.9907 58.3659C89.3302 54.0503 90 49.567 90 45.0419C90 43.324 88.5767 41.8994 86.8605 41.8994C85.1442 41.8994 83.7209 43.324 83.7209 45.0419C83.7209 48.9385 83.1349 52.7933 82.0047 56.4804C81.9209 56.7737 81.8791 57.1089 81.8791 57.4441C81.8791 58.8268 82.7581 60 84.0558 60.419C84.3907 60.5028 84.6837 60.5447 85.0186 60.5447Z" fill="white"/>
</svg>
