<svg width="197" height="533" viewBox="0 0 197 533" fill="none" xmlns="http://www.w3.org/2000/svg">
<path opacity="0.5" d="M40 532L20.5 478.9C7.91444 444.629 7.91443 406.971 20.5 372.7C33.0856 338.429 33.0856 300.771 20.5 266.5C7.91442 232.229 7.91442 194.571 20.5 160.3C33.0856 126.029 33.0856 88.3715 20.5 54.1L0.999977 1.00001M79 532L59.5 478.9C46.9144 444.629 46.9144 406.971 59.5 372.7C72.0856 338.429 72.0856 300.771 59.5 266.5C46.9144 232.229 46.9144 194.571 59.5 160.3C72.0856 126.029 72.0856 88.3715 59.5 54.1L40 1.00001M118 532L98.5 478.9C85.9144 444.629 85.9144 406.971 98.5 372.7C111.086 338.429 111.086 300.771 98.5 266.5C85.9144 232.229 85.9144 194.571 98.5 160.3C111.086 126.029 111.086 88.3715 98.5 54.1L79 1M157 532L137.5 478.9C124.914 444.629 124.914 406.971 137.5 372.7C150.086 338.429 150.086 300.771 137.5 266.5C124.914 232.229 124.914 194.571 137.5 160.3C150.086 126.029 150.086 88.3715 137.5 54.1L118 1M196 532L176.5 478.9C163.914 444.629 163.914 406.971 176.5 372.7C189.086 338.429 189.086 300.771 176.5 266.5C163.914 232.229 163.914 194.571 176.5 160.3C189.086 126.029 189.086 88.3715 176.5 54.1L157 1" stroke="#92AB68" stroke-linecap="round"/>
</svg>
