<svg width="18" height="18" viewBox="0 0 18 18" fill="none" xmlns="http://www.w3.org/2000/svg">
<path d="M12.7774 0H5.23161C1.95397 0 0 1.953 0 5.229V12.762C0 16.047 1.95397 18 5.23161 18H12.7684C16.046 18 18 16.047 18 12.771V5.229C18.009 1.953 16.055 0 12.7774 0ZM11.3997 10.557L10.2471 11.223L9.09453 11.889C7.60879 12.744 6.39319 12.042 6.39319 10.332V9V7.668C6.39319 5.949 7.60879 5.256 9.09453 6.111L10.2471 6.777L11.3997 7.443C12.8854 8.298 12.8854 9.702 11.3997 10.557Z" fill="#007F8F"/>
</svg>
