<svg width="22" height="22" viewBox="0 0 22 22" fill="none" xmlns="http://www.w3.org/2000/svg">
<path d="M16.499 5.80455H16.509M5.99902 1.30455H15.999C18.7604 1.30455 20.999 3.54313 20.999 6.30455V16.3046C20.999 19.066 18.7604 21.3046 15.999 21.3046H5.99902C3.2376 21.3046 0.999023 19.066 0.999023 16.3046V6.30455C0.999023 3.54313 3.2376 1.30455 5.99902 1.30455ZM14.999 10.6746C15.1224 11.5068 14.9803 12.3568 14.5928 13.1036C14.2053 13.8504 13.5922 14.456 12.8406 14.8342C12.0891 15.2125 11.2375 15.3441 10.4068 15.2105C9.57615 15.0768 8.80878 14.6846 8.21386 14.0897C7.61894 13.4948 7.22676 12.7274 7.09309 11.8968C6.95943 11.0661 7.09109 10.2144 7.46935 9.46292C7.84761 8.7114 8.45321 8.09829 9.20001 7.71079C9.94681 7.32329 10.7968 7.18114 11.629 7.30455C12.4779 7.43043 13.2639 7.82601 13.8707 8.43286C14.4776 9.0397 14.8731 9.82563 14.999 10.6746Z" stroke="black" stroke-linecap="round" stroke-linejoin="round"/>
</svg>
