<svg width="22" height="22" viewBox="0 0 22 22" fill="none" xmlns="http://www.w3.org/2000/svg">
<path d="M16.4989 5.80457H16.5089M5.9989 1.30457H15.9989C18.7603 1.30457 20.9989 3.54314 20.9989 6.30457V16.3046C20.9989 19.066 18.7603 21.3046 15.9989 21.3046H5.9989C3.23748 21.3046 0.998901 19.066 0.998901 16.3046V6.30457C0.998901 3.54314 3.23748 1.30457 5.9989 1.30457ZM14.9989 10.6746C15.1223 11.5068 14.9802 12.3568 14.5927 13.1036C14.2052 13.8504 13.592 14.456 12.8405 14.8342C12.089 15.2125 11.2373 15.3442 10.4067 15.2105C9.57603 15.0768 8.80866 14.6846 8.21374 14.0897C7.61882 13.4948 7.22663 12.7274 7.09297 11.8968C6.9593 11.0661 7.09097 10.2145 7.46923 9.46294C7.84749 8.71142 8.45309 8.09831 9.19989 7.71081C9.94669 7.32331 10.7967 7.18115 11.6289 7.30457C12.4778 7.43045 13.2638 7.82603 13.8706 8.43287C14.4774 9.03971 14.873 9.82564 14.9989 10.6746Z" stroke="white" stroke-linecap="round" stroke-linejoin="round"/>
</svg>
