<svg width="22" height="20" viewBox="0 0 22 20" fill="none" xmlns="http://www.w3.org/2000/svg">
<path d="M20.5813 5.19146C20.4733 4.76169 20.2534 4.36792 19.9438 4.04992C19.6341 3.73191 19.2457 3.50094 18.8178 3.38034C17.2542 3 11 3 11 3C11 3 4.74578 3 3.18222 3.41656C2.75429 3.53717 2.36588 3.76814 2.05623 4.08614C1.74659 4.40414 1.52666 4.79791 1.41868 5.22768C1.13253 6.80839 0.992553 8.41192 1.00052 10.0181C0.99032 11.6364 1.1303 13.2521 1.41868 14.8448C1.53773 15.2612 1.76258 15.64 2.0715 15.9445C2.38043 16.2491 2.76299 16.4692 3.18222 16.5834C4.74578 17 11 17 11 17C11 17 17.2542 17 18.8178 16.5834C19.2457 16.4628 19.6341 16.2319 19.9438 15.9139C20.2534 15.5959 20.4733 15.2021 20.5813 14.7723C20.8653 13.2035 21.0052 11.6122 20.9995 10.0181C21.0097 8.39983 20.8697 6.78407 20.5813 5.19146Z" stroke="white" stroke-linecap="round" stroke-linejoin="round"/>
<path d="M8.95465 12.9793L14.1817 10.0181L8.95465 7.05692V12.9793Z" stroke="white" stroke-linecap="round" stroke-linejoin="round"/>
</svg>
