<svg width="16" height="16" viewBox="0 0 16 16" fill="none" xmlns="http://www.w3.org/2000/svg">
<path d="M12 0H4C1.792 0 0 1.78489 0 3.98599V8.77239V9.57279C0 11.7739 1.792 13.5588 4 13.5588H5.2C5.416 13.5588 5.704 13.7029 5.84 13.8789L7.04 15.4717C7.568 16.1761 8.432 16.1761 8.96 15.4717L10.16 13.8789C10.312 13.6788 10.552 13.5588 10.8 13.5588H12C14.208 13.5588 16 11.7739 16 9.57279V3.98599C16 1.78489 14.208 0 12 0ZM8.8 9.4047H4C3.672 9.4047 3.4 9.13257 3.4 8.8044C3.4 8.47624 3.672 8.2041 4 8.2041H8.8C9.128 8.2041 9.4 8.47624 9.4 8.8044C9.4 9.13257 9.128 9.4047 8.8 9.4047ZM12 5.4027H4C3.672 5.4027 3.4 5.13057 3.4 4.8024C3.4 4.47424 3.672 4.2021 4 4.2021H12C12.328 4.2021 12.6 4.47424 12.6 4.8024C12.6 5.13057 12.328 5.4027 12 5.4027Z" fill="#007F8F"/>
</svg>
