<svg width="112" height="77" viewBox="0 0 112 77" fill="none" xmlns="http://www.w3.org/2000/svg">
<path d="M22.4387 38.2883H24.5504C25.4822 38.2883 26.1827 38.4273 26.652 38.7054C27.1213 38.9835 27.3559 39.4566 27.3559 40.1246C27.3559 40.4129 27.2998 40.6723 27.1876 40.9029C27.0788 41.1301 26.9189 41.3183 26.7081 41.4675C26.4973 41.6167 26.2371 41.7201 25.9277 41.7778V41.8287C26.2541 41.8795 26.5432 41.9728 26.7948 42.1084C27.0464 42.2441 27.2437 42.434 27.3865 42.6781C27.5293 42.9223 27.6007 43.2326 27.6007 43.609C27.6007 44.0668 27.4936 44.4534 27.2794 44.7688C27.0686 45.0842 26.7693 45.3232 26.3816 45.486C25.994 45.6454 25.5349 45.7251 25.0044 45.7251H22.4387V38.2883ZM23.3058 41.4777H24.7341C25.3836 41.4777 25.8325 41.3709 26.0807 41.1572C26.3323 40.9436 26.4582 40.6316 26.4582 40.2213C26.4582 39.7974 26.3085 39.4922 26.0093 39.3057C25.7134 39.1191 25.2408 39.0259 24.5913 39.0259H23.3058V41.4777ZM23.3058 42.2051V44.9875H24.8565C25.5196 44.9875 25.9889 44.8586 26.2643 44.6009C26.5398 44.3398 26.6775 43.9888 26.6775 43.548C26.6775 43.2665 26.6146 43.0257 26.4888 42.8257C26.3663 42.6256 26.1657 42.473 25.8869 42.3679C25.6114 42.2593 25.2425 42.2051 24.78 42.2051H23.3058Z" fill="#919191"/>
<path d="M33.6809 40.15V45.7251H32.9872L32.8648 44.9417H32.8189C32.7033 45.135 32.5536 45.2978 32.37 45.43C32.1864 45.5623 31.9789 45.6606 31.7477 45.7251C31.5199 45.7929 31.2767 45.8268 31.0183 45.8268C30.5762 45.8268 30.2056 45.7556 29.9063 45.6132C29.6071 45.4707 29.3809 45.2503 29.2279 44.9519C29.0783 44.6535 29.0035 44.2703 29.0035 43.8023V40.15H29.8604V43.7413C29.8604 44.2059 29.9658 44.5534 30.1767 44.784C30.3875 45.0112 30.7088 45.1249 31.1407 45.1249C31.5556 45.1249 31.8854 45.0469 32.1303 44.8909C32.3785 44.7349 32.557 44.506 32.6659 44.2042C32.7747 43.899 32.8291 43.5259 32.8291 43.0851V40.15H33.6809Z" fill="#919191"/>
<path d="M39.0878 44.1991C39.0878 44.5551 38.9977 44.8553 38.8174 45.0994C38.6406 45.3402 38.3856 45.5216 38.0523 45.6437C37.7225 45.7658 37.328 45.8268 36.8689 45.8268C36.4779 45.8268 36.1395 45.7963 35.8539 45.7353C35.5682 45.6742 35.3183 45.5877 35.104 45.4758V44.6976C35.3319 44.8095 35.6039 44.9112 35.9202 45.0028C36.2364 45.0943 36.5595 45.1401 36.8893 45.1401C37.3722 45.1401 37.7225 45.0621 37.9401 44.9061C38.1577 44.7501 38.2666 44.5382 38.2666 44.2703C38.2666 44.1177 38.2224 43.9837 38.1339 43.8684C38.0489 43.7497 37.9044 43.6361 37.7004 43.5276C37.4963 43.4157 37.2141 43.2936 36.8536 43.1614C36.4966 43.0257 36.1871 42.8918 35.9253 42.7595C35.6668 42.6239 35.4662 42.4594 35.3234 42.2661C35.184 42.0728 35.1143 41.8219 35.1143 41.5133C35.1143 41.0419 35.3047 40.6808 35.6855 40.4298C36.0698 40.1755 36.5731 40.0483 37.1954 40.0483C37.532 40.0483 37.8466 40.0822 38.139 40.15C38.4349 40.2145 38.7103 40.3027 38.9654 40.4146L38.6797 41.0911C38.4485 40.9927 38.202 40.9097 37.9401 40.8418C37.6783 40.774 37.4113 40.7401 37.1393 40.7401C36.7482 40.7401 36.4473 40.8045 36.2364 40.9334C36.029 41.0623 35.9253 41.2386 35.9253 41.4624C35.9253 41.6354 35.9729 41.7778 36.0681 41.8897C36.1667 42.0016 36.3231 42.1067 36.5374 42.2051C36.7516 42.3034 37.0339 42.4187 37.3841 42.551C37.7344 42.6798 38.037 42.8138 38.2921 42.9528C38.5471 43.0885 38.7426 43.2546 38.8787 43.4513C39.0181 43.6446 39.0878 43.8939 39.0878 44.1991Z" fill="#919191"/>
<path d="M41.2964 40.15V45.7251H40.4497V40.15H41.2964ZM40.8833 38.0645C41.0227 38.0645 41.1417 38.1103 41.2403 38.2018C41.3424 38.29 41.3934 38.429 41.3934 38.6189C41.3934 38.8055 41.3424 38.9445 41.2403 39.0361C41.1417 39.1276 41.0227 39.1734 40.8833 39.1734C40.7371 39.1734 40.6146 39.1276 40.516 39.0361C40.4208 38.9445 40.3732 38.8055 40.3732 38.6189C40.3732 38.429 40.4208 38.29 40.516 38.2018C40.6146 38.1103 40.7371 38.0645 40.8833 38.0645Z" fill="#919191"/>
<path d="M45.7393 40.0483C46.4024 40.0483 46.904 40.2111 47.244 40.5366C47.5841 40.8588 47.7541 41.3776 47.7541 42.0932V45.7251H46.9176V42.1491C46.9176 41.6845 46.8104 41.3369 46.5962 41.1063C46.3854 40.8758 46.0606 40.7604 45.6219 40.7604C45.003 40.7604 44.5678 40.9351 44.3161 41.2844C44.0645 41.6337 43.9387 42.1406 43.9387 42.8053V45.7251H43.0919V40.15H43.7754L43.903 40.9537H43.9489C44.0679 40.7571 44.2192 40.5926 44.4029 40.4603C44.5865 40.3247 44.7922 40.223 45.0201 40.1551C45.2479 40.0839 45.4876 40.0483 45.7393 40.0483Z" fill="#919191"/>
<path d="M51.6511 40.0483C52.1272 40.0483 52.5353 40.1534 52.8753 40.3637C53.2154 40.5739 53.4755 40.869 53.6557 41.2488C53.836 41.6252 53.9261 42.066 53.9261 42.5713V43.0953H50.0648C50.075 43.7497 50.2382 44.2482 50.5544 44.5907C50.8707 44.9332 51.3162 45.1045 51.8909 45.1045C52.2445 45.1045 52.5574 45.0723 52.8294 45.0079C53.1015 44.9434 53.3837 44.8485 53.6761 44.723V45.4657C53.3939 45.5911 53.1134 45.6827 52.8345 45.7403C52.5591 45.798 52.2326 45.8268 51.8551 45.8268C51.3179 45.8268 50.8486 45.7183 50.4473 45.5013C50.0495 45.2808 49.74 44.9587 49.519 44.5348C49.2979 44.1109 49.1874 43.5921 49.1874 42.9783C49.1874 42.378 49.2877 41.8592 49.4884 41.4217C49.6924 40.9809 49.978 40.6418 50.3453 40.4044C50.716 40.167 51.1512 40.0483 51.6511 40.0483ZM51.6409 40.7401C51.1886 40.7401 50.8282 40.8876 50.5595 41.1826C50.2909 41.4777 50.1311 41.8897 50.0801 42.4187H53.0385C53.0351 42.0864 52.9824 41.7948 52.8804 41.5438C52.7818 41.2895 52.6305 41.0928 52.4264 40.9537C52.2224 40.8113 51.9606 40.7401 51.6409 40.7401Z" fill="#919191"/>
<path d="M58.981 44.1991C58.981 44.5551 58.8909 44.8553 58.7107 45.0994C58.5338 45.3402 58.2788 45.5216 57.9455 45.6437C57.6157 45.7658 57.2212 45.8268 56.7621 45.8268C56.3711 45.8268 56.0327 45.7963 55.7471 45.7353C55.4614 45.6742 55.2115 45.5877 54.9973 45.4758V44.6976C55.2251 44.8095 55.4971 44.9112 55.8134 45.0028C56.1296 45.0943 56.4527 45.1401 56.7825 45.1401C57.2654 45.1401 57.6157 45.0621 57.8333 44.9061C58.0509 44.7501 58.1598 44.5382 58.1598 44.2703C58.1598 44.1177 58.1156 43.9837 58.0271 43.8684C57.9421 43.7497 57.7976 43.6361 57.5936 43.5276C57.3895 43.4157 57.1073 43.2936 56.7468 43.1614C56.3898 43.0257 56.0803 42.8918 55.8185 42.7595C55.56 42.6239 55.3594 42.4594 55.2166 42.2661C55.0772 42.0728 55.0075 41.8219 55.0075 41.5133C55.0075 41.0419 55.1979 40.6808 55.5788 40.4298C55.963 40.1755 56.4663 40.0483 57.0886 40.0483C57.4253 40.0483 57.7398 40.0822 58.0322 40.15C58.3281 40.2145 58.6035 40.3027 58.8586 40.4146L58.5729 41.0911C58.3417 40.9927 58.0952 40.9097 57.8333 40.8418C57.5715 40.774 57.3045 40.7401 57.0325 40.7401C56.6414 40.7401 56.3405 40.8045 56.1296 40.9334C55.9222 41.0623 55.8185 41.2386 55.8185 41.4624C55.8185 41.6354 55.8661 41.7778 55.9613 41.8897C56.0599 42.0016 56.2164 42.1067 56.4306 42.2051C56.6448 42.3034 56.9271 42.4187 57.2773 42.551C57.6276 42.6798 57.9302 42.8138 58.1853 42.9528C58.4403 43.0885 58.6358 43.2546 58.7719 43.4513C58.9113 43.6446 58.981 43.8939 58.981 44.1991Z" fill="#919191"/>
<path d="M63.9594 44.1991C63.9594 44.5551 63.8693 44.8553 63.6891 45.0994C63.5122 45.3402 63.2572 45.5216 62.9239 45.6437C62.5941 45.7658 62.1996 45.8268 61.7405 45.8268C61.3495 45.8268 61.0111 45.7963 60.7255 45.7353C60.4398 45.6742 60.1899 45.5877 59.9757 45.4758V44.6976C60.2035 44.8095 60.4755 44.9112 60.7918 45.0028C61.108 45.0943 61.4311 45.1401 61.7609 45.1401C62.2438 45.1401 62.5941 45.0621 62.8117 44.9061C63.0294 44.7501 63.1382 44.5382 63.1382 44.2703C63.1382 44.1177 63.094 43.9837 63.0055 43.8684C62.9205 43.7497 62.776 43.6361 62.572 43.5276C62.3679 43.4157 62.0857 43.2936 61.7252 43.1614C61.3682 43.0257 61.0587 42.8918 60.7969 42.7595C60.5385 42.6239 60.3378 42.4594 60.195 42.2661C60.0556 42.0728 59.9859 41.8219 59.9859 41.5133C59.9859 41.0419 60.1763 40.6808 60.5572 40.4298C60.9414 40.1755 61.4447 40.0483 62.067 40.0483C62.4037 40.0483 62.7182 40.0822 63.0106 40.15C63.3065 40.2145 63.5819 40.3027 63.837 40.4146L63.5513 41.0911C63.3201 40.9927 63.0736 40.9097 62.8117 40.8418C62.5499 40.774 62.2829 40.7401 62.0109 40.7401C61.6198 40.7401 61.3189 40.8045 61.108 40.9334C60.9006 41.0623 60.7969 41.2386 60.7969 41.4624C60.7969 41.6354 60.8445 41.7778 60.9397 41.8897C61.0383 42.0016 61.1948 42.1067 61.409 42.2051C61.6232 42.3034 61.9055 42.4187 62.2557 42.551C62.606 42.6798 62.9086 42.8138 63.1637 42.9528C63.4187 43.0885 63.6142 43.2546 63.7503 43.4513C63.8897 43.6446 63.9594 43.8939 63.9594 44.1991Z" fill="#919191"/>
<path d="M28.3608 56.2114C28.3608 57.049 28.2077 57.7493 27.9017 58.3122C27.5956 58.8718 27.1519 59.294 26.5704 59.5788C25.9923 59.8603 25.2901 60.001 24.4637 60.001H22.4387V52.5643H24.6882C25.4465 52.5643 26.0994 52.7033 26.6469 52.9814C27.1944 53.2561 27.616 53.6647 27.9119 54.2073C28.2111 54.7465 28.3608 55.4145 28.3608 56.2114ZM27.4477 56.242C27.4477 55.5739 27.3355 55.0228 27.1111 54.5888C26.89 54.1547 26.5636 53.8325 26.1317 53.6223C25.7032 53.4087 25.1778 53.3018 24.5555 53.3018H23.3058V59.2584H24.3617C25.3887 59.2584 26.1589 59.0057 26.6724 58.5005C27.1893 57.9952 27.4477 57.2423 27.4477 56.242Z" fill="#919191"/>
<path d="M32.0436 54.3243C32.5196 54.3243 32.9277 54.4294 33.2677 54.6396C33.6078 54.8499 33.868 55.1449 34.0482 55.5247C34.2284 55.9011 34.3185 56.342 34.3185 56.8473V57.3712H30.4572C30.4674 58.0257 30.6306 58.5242 30.9469 58.8667C31.2631 59.2092 31.7086 59.3805 32.2833 59.3805C32.637 59.3805 32.9498 59.3482 33.2218 59.2838C33.4939 59.2194 33.7761 59.1244 34.0686 58.9989V59.7416C33.7863 59.8671 33.5058 59.9586 33.2269 60.0163C32.9515 60.0739 32.625 60.1028 32.2476 60.1028C31.7103 60.1028 31.241 59.9942 30.8398 59.7772C30.4419 59.5568 30.1324 59.2346 29.9114 58.8107C29.6904 58.3868 29.5799 57.868 29.5799 57.2542C29.5799 56.654 29.6802 56.1351 29.8808 55.6977C30.0848 55.2568 30.3705 54.9177 30.7377 54.6803C31.1084 54.443 31.5437 54.3243 32.0436 54.3243ZM32.0334 55.0161C31.5811 55.0161 31.2206 55.1636 30.952 55.4586C30.6833 55.7536 30.5235 56.1657 30.4725 56.6947H33.431C33.4276 56.3623 33.3749 56.0707 33.2729 55.8198C33.1742 55.5654 33.0229 55.3687 32.8189 55.2297C32.6148 55.0873 32.353 55.0161 32.0334 55.0161Z" fill="#919191"/>
<path d="M36.9863 60.001L34.8643 54.426H35.7723L37.0016 57.7985C37.0866 58.0291 37.1733 58.2834 37.2617 58.5615C37.3501 58.8396 37.4113 59.0634 37.4453 59.2329H37.481C37.5218 59.0634 37.5899 58.8396 37.6851 58.5615C37.7803 58.28 37.867 58.0257 37.9452 57.7985L39.1745 54.426H40.0825L37.9554 60.001H36.9863Z" fill="#919191"/>
<path d="M43.1327 54.3243C43.6088 54.3243 44.0169 54.4294 44.3569 54.6396C44.697 54.8499 44.9571 55.1449 45.1374 55.5247C45.3176 55.9011 45.4077 56.342 45.4077 56.8473V57.3712H41.5464C41.5566 58.0257 41.7198 58.5242 42.0361 58.8667C42.3523 59.2092 42.7978 59.3805 43.3725 59.3805C43.7261 59.3805 44.039 59.3482 44.311 59.2838C44.5831 59.2194 44.8653 59.1244 45.1578 58.9989V59.7416C44.8755 59.8671 44.595 59.9586 44.3161 60.0163C44.0407 60.0739 43.7142 60.1028 43.3368 60.1028C42.7995 60.1028 42.3302 59.9942 41.929 59.7772C41.5311 59.5568 41.2216 59.2346 41.0006 58.8107C40.7796 58.3868 40.669 57.868 40.669 57.2542C40.669 56.654 40.7694 56.1351 40.97 55.6977C41.174 55.2568 41.4597 54.9177 41.8269 54.6803C42.1976 54.443 42.6329 54.3243 43.1327 54.3243ZM43.1225 55.0161C42.6703 55.0161 42.3098 55.1636 42.0412 55.4586C41.7725 55.7536 41.6127 56.1657 41.5617 56.6947H44.5202C44.5168 56.3623 44.4641 56.0707 44.362 55.8198C44.2634 55.5654 44.1121 55.3687 43.9081 55.2297C43.704 55.0873 43.4422 55.0161 43.1225 55.0161Z" fill="#919191"/>
<path d="M47.698 60.001H46.8461V52.0861H47.698V60.001Z" fill="#919191"/>
<path d="M54.3086 57.2033C54.3086 57.6611 54.2491 58.0698 54.1301 58.4292C54.0111 58.7887 53.8394 59.0922 53.6149 59.3398C53.3905 59.5873 53.1185 59.7772 52.7988 59.9095C52.4826 60.0383 52.1238 60.1028 51.7225 60.1028C51.3485 60.1028 51.005 60.0383 50.6922 59.9095C50.3827 59.7772 50.1141 59.5873 49.8862 59.3398C49.6618 59.0922 49.4867 58.7887 49.3609 58.4292C49.2384 58.0698 49.1772 57.6611 49.1772 57.2033C49.1772 56.5929 49.2809 56.0741 49.4884 55.6468C49.6958 55.2161 49.9917 54.8889 50.3759 54.6651C50.7636 54.4379 51.2243 54.3243 51.7582 54.3243C52.2683 54.3243 52.7138 54.4379 53.0947 54.6651C53.4789 54.8923 53.7765 55.2212 53.9873 55.6519C54.2015 56.0792 54.3086 56.5963 54.3086 57.2033ZM50.0546 57.2033C50.0546 57.651 50.1141 58.0393 50.2331 58.3682C50.3521 58.6971 50.5357 58.9515 50.784 59.1312C51.0322 59.3109 51.3519 59.4008 51.7429 59.4008C52.1306 59.4008 52.4485 59.3109 52.6968 59.1312C52.9484 58.9515 53.1338 58.6971 53.2528 58.3682C53.3718 58.0393 53.4313 57.651 53.4313 57.2033C53.4313 56.7591 53.3718 56.3759 53.2528 56.0537C53.1338 55.7282 52.9501 55.4772 52.7019 55.3009C52.4536 55.1246 52.1323 55.0364 51.7378 55.0364C51.1563 55.0364 50.7296 55.228 50.4575 55.6112C50.1889 55.9944 50.0546 56.5251 50.0546 57.2033Z" fill="#919191"/>
<path d="M58.3995 54.3243C59.0966 54.3243 59.6526 54.5633 60.0675 55.0415C60.4823 55.5196 60.6898 56.2386 60.6898 57.1983C60.6898 57.8324 60.5946 58.3648 60.4041 58.7955C60.2137 59.2262 59.9451 59.5517 59.5982 59.7721C59.2547 59.9926 58.8484 60.1028 58.3791 60.1028C58.0833 60.1028 57.8231 60.0638 57.5987 59.9858C57.3742 59.9078 57.1821 59.8027 57.0223 59.6704C56.8625 59.5381 56.7298 59.394 56.6244 59.238H56.5632C56.5734 59.3703 56.5853 59.5297 56.5989 59.7162C56.6159 59.9027 56.6244 60.0655 56.6244 60.2045V62.4935H55.7726V54.426H56.4714L56.5836 55.25H56.6244C56.7332 55.0805 56.8659 54.9262 57.0223 54.7872C57.1787 54.6447 57.3691 54.5328 57.5936 54.4514C57.8214 54.3666 58.0901 54.3243 58.3995 54.3243ZM58.2516 55.0364C57.8639 55.0364 57.5511 55.111 57.313 55.2602C57.0784 55.4094 56.9067 55.6332 56.7978 55.9317C56.689 56.2267 56.6312 56.598 56.6244 57.0457V57.2084C56.6244 57.6798 56.6754 58.0783 56.7774 58.4038C56.8829 58.7294 57.0546 58.9769 57.2926 59.1465C57.5341 59.316 57.8571 59.4008 58.2618 59.4008C58.6086 59.4008 58.8977 59.3075 59.1289 59.121C59.3602 58.9345 59.5319 58.6751 59.6441 58.3428C59.7597 58.007 59.8175 57.6221 59.8175 57.1881C59.8175 56.5302 59.6883 56.008 59.4299 55.6214C59.1748 55.2314 58.7821 55.0364 58.2516 55.0364Z" fill="#919191"/>
<path d="M68.239 54.3243C68.8545 54.3243 69.3187 54.4853 69.6315 54.8075C69.9444 55.1263 70.1008 55.64 70.1008 56.3488V60.001H69.2643V56.3895C69.2643 55.9384 69.1656 55.601 68.9684 55.3772C68.7746 55.15 68.4855 55.0364 68.1013 55.0364C67.5606 55.0364 67.1678 55.1924 66.923 55.5044C66.6781 55.8164 66.5557 56.2759 66.5557 56.8829V60.001H65.7141V56.3895C65.7141 56.0877 65.6699 55.8367 65.5815 55.6366C65.4965 55.4366 65.3672 55.2873 65.1938 55.189C65.0238 55.0873 64.8078 55.0364 64.546 55.0364C64.1753 55.0364 63.8778 55.1127 63.6534 55.2653C63.4289 55.4179 63.2657 55.6451 63.1637 55.9469C63.0651 56.2453 63.0157 56.6133 63.0157 57.0507V60.001H62.169V54.426H62.8525L62.98 55.2144H63.026C63.1382 55.0211 63.2793 54.8584 63.4493 54.7261C63.6193 54.5939 63.8098 54.4938 64.0206 54.426C64.2314 54.3582 64.4559 54.3243 64.6939 54.3243C65.119 54.3243 65.4743 54.404 65.76 54.5633C66.049 54.7193 66.2582 54.9584 66.3874 55.2806H66.4333C66.6169 54.9584 66.8686 54.7193 67.1882 54.5633C67.5079 54.404 67.8581 54.3243 68.239 54.3243Z" fill="#919191"/>
<path d="M73.9927 54.3243C74.4688 54.3243 74.8769 54.4294 75.2169 54.6396C75.557 54.8499 75.8171 55.1449 75.9973 55.5247C76.1776 55.9011 76.2677 56.342 76.2677 56.8473V57.3712H72.4064C72.4166 58.0257 72.5798 58.5242 72.896 58.8667C73.2123 59.2092 73.6578 59.3805 74.2325 59.3805C74.5861 59.3805 74.899 59.3482 75.171 59.2838C75.443 59.2194 75.7253 59.1244 76.0177 58.9989V59.7416C75.7355 59.8671 75.455 59.9586 75.1761 60.0163C74.9007 60.0739 74.5742 60.1028 74.1967 60.1028C73.6595 60.1028 73.1902 59.9942 72.7889 59.7772C72.3911 59.5568 72.0816 59.2346 71.8606 58.8107C71.6395 58.3868 71.529 57.868 71.529 57.2542C71.529 56.654 71.6293 56.1351 71.83 55.6977C72.034 55.2568 72.3196 54.9177 72.6869 54.6803C73.0576 54.443 73.4928 54.3243 73.9927 54.3243ZM73.9825 55.0161C73.5302 55.0161 73.1698 55.1636 72.9011 55.4586C72.6325 55.7536 72.4727 56.1657 72.4217 56.6947H75.3801C75.3767 56.3623 75.324 56.0707 75.222 55.8198C75.1234 55.5654 74.9721 55.3687 74.768 55.2297C74.564 55.0873 74.3022 55.0161 73.9825 55.0161Z" fill="#919191"/>
<path d="M80.3534 54.3243C81.0165 54.3243 81.5181 54.487 81.8582 54.8126C82.1982 55.1347 82.3683 55.6536 82.3683 56.3691V60.001H81.5317V56.4251C81.5317 55.9605 81.4246 55.6129 81.2104 55.3823C80.9995 55.1517 80.6748 55.0364 80.2361 55.0364C79.6172 55.0364 79.182 55.211 78.9303 55.5603C78.6787 55.9096 78.5528 56.4166 78.5528 57.0813V60.001H77.7061V54.426H78.3896L78.5171 55.2297H78.5631C78.6821 55.033 78.8334 54.8685 79.017 54.7363C79.2007 54.6006 79.4064 54.4989 79.6342 54.4311C79.8621 54.3599 80.1018 54.3243 80.3534 54.3243Z" fill="#919191"/>
<path d="M85.9184 59.411C86.0579 59.411 86.2007 59.3991 86.3469 59.3754C86.4931 59.3516 86.6122 59.3228 86.704 59.2889V59.9451C86.6054 59.9892 86.4676 60.0265 86.2908 60.057C86.1174 60.0875 85.9473 60.1028 85.7807 60.1028C85.4849 60.1028 85.2162 60.0519 84.9748 59.9502C84.7334 59.845 84.5395 59.6687 84.3933 59.4211C84.2505 59.1736 84.1791 58.8311 84.1791 58.3936V55.0873H83.3833V54.6752L84.1842 54.3446L84.5208 53.134H85.0309V54.426H86.6683V55.0873H85.0309V58.3682C85.0309 58.7175 85.1108 58.9786 85.2706 59.1516C85.4339 59.3245 85.6498 59.411 85.9184 59.411Z" fill="#919191"/>
<path d="M25.6267 67.4964C25.2153 67.4964 24.8446 67.5676 24.5147 67.71C24.1883 67.8491 23.9094 68.0525 23.6782 68.3204C23.4504 68.585 23.2752 68.9054 23.1528 69.2818C23.0304 69.6583 22.9692 70.0821 22.9692 70.5535C22.9692 71.1775 23.0661 71.7201 23.2599 72.1813C23.4572 72.6391 23.7496 72.9934 24.1373 73.2444C24.5283 73.4953 25.0163 73.6208 25.6012 73.6208C25.9345 73.6208 26.2473 73.5937 26.5398 73.5394C26.8356 73.4818 27.123 73.4105 27.4018 73.3258V74.0786C27.1298 74.1803 26.8441 74.2549 26.5449 74.3024C26.2456 74.3533 25.8903 74.3787 25.4788 74.3787C24.7205 74.3787 24.0863 74.2227 23.5762 73.9107C23.0695 73.5954 22.6886 73.1511 22.4336 72.578C22.182 72.0049 22.0561 71.3284 22.0561 70.5484C22.0561 69.9855 22.1344 69.4717 22.2908 69.0071C22.4506 68.5392 22.6818 68.1356 22.9845 67.7965C23.2905 67.4574 23.6646 67.1963 24.1067 67.0132C24.5521 66.8266 25.0622 66.7334 25.6369 66.7334C26.0144 66.7334 26.3782 66.7707 26.7285 66.8453C27.0788 66.9199 27.395 67.0267 27.6773 67.1658L27.3304 67.8982C27.0924 67.7897 26.8305 67.6965 26.5449 67.6185C26.2626 67.5371 25.9566 67.4964 25.6267 67.4964Z" fill="#919191"/>
<path d="M33.7115 71.4793C33.7115 71.9371 33.652 72.3457 33.533 72.7052C33.414 73.0647 33.2422 73.3682 33.0178 73.6157C32.7934 73.8633 32.5213 74.0532 32.2017 74.1854C31.8854 74.3143 31.5267 74.3787 31.1254 74.3787C30.7513 74.3787 30.4079 74.3143 30.095 74.1854C29.7856 74.0532 29.5169 73.8633 29.2891 73.6157C29.0647 73.3682 28.8895 73.0647 28.7637 72.7052C28.6413 72.3457 28.5801 71.9371 28.5801 71.4793C28.5801 70.8689 28.6838 70.35 28.8912 69.9228C29.0987 69.4921 29.3945 69.1648 29.7788 68.941C30.1665 68.7138 30.6272 68.6002 31.1611 68.6002C31.6712 68.6002 32.1167 68.7138 32.4975 68.941C32.8818 69.1682 33.1793 69.4972 33.3902 69.9278C33.6044 70.3551 33.7115 70.8723 33.7115 71.4793ZM29.4574 71.4793C29.4574 71.9269 29.5169 72.3152 29.636 72.6441C29.755 72.9731 29.9386 73.2274 30.1869 73.4072C30.4351 73.5869 30.7547 73.6768 31.1458 73.6768C31.5335 73.6768 31.8514 73.5869 32.0997 73.4072C32.3513 73.2274 32.5366 72.9731 32.6557 72.6441C32.7747 72.3152 32.8342 71.9269 32.8342 71.4793C32.8342 71.0351 32.7747 70.6519 32.6557 70.3297C32.5366 70.0042 32.353 69.7532 32.1048 69.5769C31.8565 69.4005 31.5352 69.3124 31.1407 69.3124C30.5592 69.3124 30.1324 69.504 29.8604 69.8872C29.5918 70.2704 29.4574 70.8011 29.4574 71.4793Z" fill="#919191"/>
<path d="M39.7917 68.7019V74.277H39.098L38.9756 73.4936H38.9297C38.814 73.6869 38.6644 73.8497 38.4808 73.982C38.2972 74.1142 38.0897 74.2126 37.8585 74.277C37.6307 74.3448 37.3875 74.3787 37.1291 74.3787C36.687 74.3787 36.3163 74.3075 36.0171 74.1651C35.7178 74.0227 35.4917 73.8022 35.3387 73.5038C35.1891 73.2054 35.1143 72.8222 35.1143 72.3542V68.7019H35.9712V72.2932C35.9712 72.7578 36.0766 73.1053 36.2874 73.3359C36.4983 73.5632 36.8196 73.6768 37.2515 73.6768C37.6664 73.6768 37.9962 73.5988 38.2411 73.4428C38.4893 73.2868 38.6678 73.0579 38.7766 72.7561C38.8855 72.4509 38.9399 72.0778 38.9399 71.637V68.7019H39.7917Z" fill="#919191"/>
<path d="M44.2294 68.6002C44.8925 68.6002 45.3941 68.763 45.7342 69.0885C46.0742 69.4107 46.2442 69.9295 46.2442 70.6451V74.277H45.4077V70.701C45.4077 70.2364 45.3006 69.8888 45.0864 69.6582C44.8755 69.4277 44.5508 69.3124 44.1121 69.3124C43.4932 69.3124 43.0579 69.487 42.8063 69.8363C42.5547 70.1856 42.4288 70.6926 42.4288 71.3572V74.277H41.5821V68.7019H42.2656L42.3931 69.5057H42.439C42.5581 69.309 42.7094 69.1445 42.893 69.0122C43.0766 68.8766 43.2824 68.7749 43.5102 68.707C43.738 68.6358 43.9778 68.6002 44.2294 68.6002Z" fill="#919191"/>
<path d="M50.228 74.3787C49.7247 74.3787 49.2809 74.2753 48.8967 74.0684C48.5124 73.8616 48.2132 73.5462 47.9989 73.1223C47.7847 72.6984 47.6776 72.1643 47.6776 71.52C47.6776 70.8452 47.7898 70.2941 48.0142 69.8668C48.2421 69.4361 48.5549 69.1174 48.9528 68.9105C49.3506 68.7036 49.8029 68.6002 50.3096 68.6002C50.5884 68.6002 50.8571 68.629 51.1155 68.6867C51.3774 68.7409 51.5916 68.8105 51.7582 68.8952L51.5032 69.6023C51.3332 69.5345 51.1359 69.4734 50.9115 69.4192C50.6905 69.3649 50.483 69.3378 50.2892 69.3378C49.9015 69.3378 49.5785 69.4209 49.32 69.587C49.065 69.7532 48.8729 69.9974 48.7436 70.3195C48.6178 70.6417 48.5549 71.0384 48.5549 71.5098C48.5549 71.9608 48.6161 72.3457 48.7385 72.6645C48.8644 72.9833 49.0497 73.2274 49.2945 73.397C49.5428 73.5632 49.8522 73.6462 50.2229 73.6462C50.5187 73.6462 50.7857 73.6157 51.0237 73.5547C51.2618 73.4902 51.4777 73.4156 51.6715 73.3309V74.0837C51.4845 74.1786 51.2754 74.2516 51.0441 74.3024C50.8163 74.3533 50.5442 74.3787 50.228 74.3787Z" fill="#919191"/>
<path d="M53.8445 68.7019V74.277H52.9977V68.7019H53.8445ZM53.4313 66.6164C53.5707 66.6164 53.6897 66.6622 53.7884 66.7537C53.8904 66.8419 53.9414 66.9809 53.9414 67.1708C53.9414 67.3574 53.8904 67.4964 53.7884 67.588C53.6897 67.6795 53.5707 67.7253 53.4313 67.7253C53.2851 67.7253 53.1627 67.6795 53.064 67.588C52.9688 67.4964 52.9212 67.3574 52.9212 67.1708C52.9212 66.9809 52.9688 66.8419 53.064 66.7537C53.1627 66.6622 53.2851 66.6164 53.4313 66.6164Z" fill="#919191"/>
<path d="M56.4918 74.277H55.64V66.3621H56.4918V74.277Z" fill="#919191"/>
<path fill-rule="evenodd" clip-rule="evenodd" d="M58.8356 0.764078C56.67 1.17493 54.8875 1.51287 54.8744 1.51515C54.8613 1.51743 54.8507 1.62083 54.8507 1.74503C54.8507 2.04071 54.9983 2.15237 55.5545 2.27714C56.493 2.48755 57.0435 2.98804 57.3304 3.89151C57.6404 4.868 57.7041 7.52314 57.6755 18.2764L57.6496 27.9595L58.978 28.2184C60.5808 28.5309 62.2823 28.7448 63.8168 28.8267C70.8885 29.2043 75.4358 24.829 75.439 17.6442C75.4396 16.0251 75.316 15.0994 74.953 14.0054C74.1962 11.7249 72.7691 9.91688 70.9923 8.98777C68.963 7.92649 66.4339 7.95564 63.9177 9.06933C63.6244 9.19913 63.343 9.30529 63.2922 9.30529C63.2339 9.30529 63.2001 7.60005 63.2001 4.65265V0L62.9866 0.00854533C62.8692 0.0132929 61.0013 0.353316 58.8356 0.764078ZM0.0578765 1.46872L0.885699 1.58665C1.83392 1.72176 2.20765 1.85773 2.64524 2.227C3.35636 2.8271 3.70997 3.88705 3.91605 6.03629C4.08598 7.80875 4.08351 20.5758 3.91282 22.626C3.73958 24.7072 3.44621 25.7175 2.82247 26.381C2.394 26.8367 2.07444 26.981 1.00667 27.2001L0.0578765 27.3949L0 28.2957H14.3372V27.389L13.6104 27.2732C12.2922 27.0633 11.7715 26.8723 11.3401 26.4406C10.416 25.5159 10.1872 23.9801 10.0165 17.556C9.96129 15.4789 9.97097 15.2133 10.1041 15.1622C10.1864 15.1306 11.0758 15.1457 12.0806 15.1957C13.7482 15.2789 13.9509 15.3081 14.4059 15.5309C15.2426 15.9405 15.9372 17.0115 16.2835 18.4258L16.445 19.0853H17.47L17.4208 9.82753L16.4423 9.77074L16.3419 10.239C16.0903 11.4133 15.561 12.4623 14.9483 13.0005C14.4191 13.4656 14.1095 13.5607 12.7692 13.6696C10.9862 13.8146 10.0741 13.8004 10.0076 13.627C9.93814 13.4458 10.1602 3.20957 10.2445 2.70613L10.3082 2.32632L13.2953 2.36088C16.1429 2.39383 16.3097 2.4057 16.8702 2.61583C18.0437 3.05574 18.9903 3.82485 19.7668 4.96912C20.1936 5.59808 20.9598 7.18055 21.2111 7.95223C21.3933 8.5113 21.4565 8.53513 22.1388 8.3025L22.5736 8.15419L22.5331 6.04739C22.5108 4.8886 22.4675 3.16067 22.437 2.20763L22.3814 0.47476H0.000474136L0.0578765 1.46872ZM52.6685 8.02496C50.9879 8.4869 49.834 9.52074 48.3974 11.8518C48.1758 12.2114 48.0637 12.3208 48.0083 12.2316C47.9654 12.1627 47.9574 11.1707 47.9905 10.0271L48.0504 7.94786L47.8215 7.99514C47.6955 8.02106 45.8419 8.39537 43.7024 8.82673C41.5629 9.25819 39.759 9.65443 39.6937 9.70722C39.5168 9.8506 39.5481 10.2343 39.7412 10.2894C39.8324 10.3154 40.1634 10.3867 40.4765 10.4478C41.5418 10.6557 41.9309 11.0634 42.2118 12.2661C42.3556 12.8818 42.3739 13.6149 42.3722 18.7055C42.37 24.9352 42.3341 25.4861 41.8745 26.3311C41.5569 26.9152 41.3578 27.047 40.4755 27.2573C40.0892 27.3494 39.7286 27.4523 39.6742 27.486C39.6197 27.5197 39.5751 27.716 39.5751 27.9222V28.2971L51.3876 28.2482L51.4166 27.8478C51.4497 27.3916 51.4606 27.3974 50.3914 27.3039C48.626 27.1494 48.2363 26.641 48.0223 24.2127C47.9694 23.6122 47.9257 21.0239 47.9254 18.4609L47.9245 13.8012L48.1383 13.6002C48.4766 13.2821 49.3892 12.9067 50.0527 12.8127C51.0798 12.6671 52.5711 12.9491 53.628 13.4887L53.9844 13.6706L54.453 12.4612C55.4579 9.86779 55.9178 8.55394 55.8672 8.42167C55.7095 8.01053 53.6501 7.75511 52.6685 8.02496ZM27.7626 8.12285C24.0279 8.81857 21.3182 11.3799 20.3337 15.1448C19.4551 18.505 20.0399 22.6451 21.743 25.1224C22.8786 26.7742 24.556 27.9465 26.5768 28.5007C27.3047 28.7004 27.5817 28.7219 29.423 28.7222C31.6375 28.7226 31.8979 28.6816 33.4278 28.092C36.3871 26.9515 38.5705 24.0458 39.1486 20.4785C39.3302 19.3578 39.3302 17.1038 39.1486 15.9831C38.495 11.9506 36.0984 9.15071 32.5291 8.25009C31.4801 7.98536 28.8741 7.91586 27.7626 8.12285ZM85.0816 8.11811C83.0685 8.53504 81.7222 9.26389 80.2737 10.7207C78.9366 12.0657 78.1726 13.5018 77.6587 15.6362C77.4283 16.5928 77.4185 16.7434 77.4541 18.7889C77.4892 20.8053 77.5075 20.9892 77.7527 21.791C77.8963 22.2606 78.1779 22.9953 78.3783 23.4233C79.6509 26.1411 81.8827 27.9246 84.8519 28.5968C86.1938 28.9005 88.2472 28.8775 89.5224 28.5442C91.0759 28.1382 92.6054 27.2974 93.8075 26.1884C94.4008 25.6412 94.6441 25.2227 94.5124 24.9762C94.3637 24.6982 94.2093 24.7297 93.3086 25.221C92.3292 25.7553 91.8762 25.8974 90.7515 26.0228C88.3863 26.2868 86.0424 25.3776 84.7388 23.6905C83.7705 22.4374 83.175 20.4653 83.1048 18.2782L83.0773 17.4237L94.9847 17.3748L94.9842 16.9719C94.9834 16.2459 94.6221 14.1161 94.3694 13.348C94.0711 12.441 93.5659 11.4127 93.1205 10.8053C92.2536 9.62348 90.7728 8.60692 89.3394 8.20945C88.5467 7.98964 85.969 7.93437 85.0816 8.11811ZM102.499 8.07557C101.816 8.19796 100.432 8.72798 99.7625 9.12327C98.953 9.60135 97.9403 10.6528 97.5293 11.4417C97.039 12.383 96.8605 13.1532 96.8579 14.339C96.8544 15.9365 97.2208 16.9194 98.2174 17.9855C99.0874 18.9162 99.8297 19.343 102.196 20.2727C103.465 20.7714 104.674 21.4097 105.158 21.8355C105.385 22.0353 105.695 22.4276 105.847 22.7073C106.088 23.1505 106.123 23.3132 106.121 23.9754C106.119 24.6382 106.08 24.8101 105.818 25.3248C105.286 26.3674 104.63 26.8627 103.504 27.0702C103.054 27.1532 102.714 27.1571 102.234 27.0845C100.256 26.7854 99.043 25.6927 97.7553 23.0506C97.4056 22.3331 97.0681 21.7455 97.0053 21.745C96.9425 21.7445 96.7769 21.7961 96.6374 21.8597C96.3866 21.9741 96.3842 21.984 96.4432 22.6812C96.4759 23.0692 96.5028 24.301 96.5028 25.4183C96.5028 27.9276 96.4014 27.7594 98.1698 28.1871C100.125 28.6599 101.2 28.7925 103.097 28.7941C105.01 28.7957 105.767 28.6779 107.133 28.1662C109.8 27.1664 111.336 24.9594 111.338 22.1238C111.339 20.6116 110.95 19.5108 110.086 18.5858C109.322 17.7669 108.298 17.1653 105.848 16.0963C103.695 15.1565 102.488 14.3238 102.048 13.4739C101.832 13.0576 101.759 11.9326 101.908 11.3123C102.483 8.91418 105.643 8.50513 107.581 10.578C108.238 11.2813 108.571 11.8358 109.124 13.1508C109.344 13.6731 109.558 14.137 109.599 14.1818C109.64 14.2267 109.826 14.2129 110.014 14.1507L110.355 14.0382L110.355 13.1672C110.355 12.6882 110.326 11.5547 110.292 10.6484L110.23 9.00059L109.826 8.8274C109.604 8.73216 108.896 8.5189 108.252 8.35349C107.149 8.06997 106.965 8.05079 105.042 8.01907C103.92 8.00056 102.776 8.02591 102.499 8.07557ZM30.1236 9.41952C30.7176 9.59318 31.6801 10.5978 32.1066 11.4892C33.0159 13.3896 33.3992 16.4619 33.2141 20.3672C33.0546 23.7355 32.5844 25.475 31.5261 26.613C30.9681 27.2131 30.4912 27.4364 29.7614 27.439C28.431 27.444 27.4263 26.39 26.7312 24.2602C26.1205 22.3885 25.9727 20.9464 26.0322 17.4383C26.0842 14.3841 26.1891 13.5212 26.6968 11.9735C27.3867 9.86997 28.5921 8.97163 30.1236 9.41952ZM87.1364 9.43642C88.2088 9.89684 88.8665 11.6514 88.9769 14.346L89.0338 15.731L87.0127 15.794C84.2718 15.8794 83.2196 15.8732 83.2196 15.7714C83.2196 15.7244 83.3058 15.1797 83.411 14.5608C83.9214 11.5605 84.7816 9.89152 86.052 9.43737C86.5028 9.27614 86.7628 9.27595 87.1364 9.43642ZM66.5363 10.7454C67.6814 11.3563 68.5357 12.6715 69.0546 14.6226C69.3135 15.5957 69.3198 15.68 69.3185 18.1358C69.3172 20.3829 69.2945 20.7547 69.1059 21.6114C68.4534 24.5775 67.2471 26.6135 65.8294 27.1416C65.1356 27.4001 63.7708 27.4342 63.5749 27.198C63.4066 26.995 63.2282 15.3939 63.351 12.6313L63.4373 10.6874L63.8168 10.5734C64.0255 10.5106 64.596 10.456 65.0844 10.452C65.9067 10.4453 66.0142 10.4669 66.5363 10.7454Z" fill="#919191"/>
<path d="M5.72266 35.8994V77.0009" stroke="#919191" stroke-width="2"/>
</svg>
