<svg width="45" height="45" viewBox="0 0 45 45" fill="none" xmlns="http://www.w3.org/2000/svg">
<g clip-path="url(#clip0)">
<path d="M22.6499 39C17.6086 39 13.392 37.8324 10 35.4973V26.9038C11.307 28.1181 13.1741 29.1768 15.6014 30.0797C17.9354 30.9515 20.1759 31.3874 22.3232 31.3874C25.6529 31.3874 27.3178 30.5312 27.3178 28.8187C27.3178 28.1336 26.8977 27.4955 26.0574 26.9038C25.8707 26.7482 25.1706 26.468 23.9569 26.0632L21.0162 25.1758L18.6355 24.4753L16.4883 23.6346C15.5236 23.261 14.8079 22.9186 14.3411 22.6071C12.6607 21.3617 11.6026 20.3654 11.167 19.6181C10.389 18.1236 10 16.5202 10 14.8077C10 11.6941 11.1358 9.28121 13.4075 7.56868C15.7103 5.85622 18.8534 5 22.8366 5C26.8199 5 30.5074 5.90292 33.8995 7.70879V15.7885C32.4369 14.8856 30.7098 14.1383 28.7181 13.5467C26.6643 12.9241 24.7349 12.6126 22.93 12.6126C20.067 12.6126 18.6355 13.3287 18.6355 14.761C18.6355 15.3836 19.0868 15.8819 19.9892 16.2555L21.4829 16.7692C21.8252 16.8938 22.5566 17.1117 23.6768 17.4231C24.7971 17.7345 25.5595 17.9523 25.9641 18.0769C29.076 19.1044 31.5343 20.3966 33.3393 21.9533C35.1131 23.479 36 25.6584 36 28.4918C36 31.6676 34.7552 34.2208 32.2657 36.1511C29.8072 38.0504 26.602 39 22.6499 39Z" fill="#FFDE2D"/>
<path d="M37.4845 6.3652C28.9763 -2.12173 15.0287 -2.12173 6.38104 6.3652C-2.12701 14.8522 -2.12701 28.7652 6.38104 37.3914C14.0523 45.0434 25.9078 45.8782 34.4161 39.8958C34.5555 40.7305 34.9739 41.5653 35.6713 42.2609L48.0847 54.6436C49.8979 56.4521 52.827 56.4521 54.6401 54.6436C56.4533 52.8348 56.4533 49.9131 54.6401 48.1043L42.2267 35.7219C41.5293 35.0261 40.6925 34.6087 39.8556 34.4695C45.853 25.8435 45.0162 14.0174 37.4845 6.3652ZM33.4396 33.4957C27.0237 39.8958 16.7023 39.8958 10.2866 33.4957C3.87056 27.0957 3.87056 16.7999 10.2866 10.4001C16.7023 4.00001 27.0237 4.00001 33.4396 10.4001C39.8556 16.6609 39.8556 27.0957 33.4396 33.4957Z" fill="url(#paint0_linear)"/>
</g>
<defs>
<linearGradient id="paint0_linear" x1="28.0001" y1="4.81307e-06" x2="28.0001" y2="56.0001" gradientUnits="userSpaceOnUse">
<stop stop-color="#6F97FF"/>
<stop offset="1" stop-color="#326CFF"/>
</linearGradient>
<clipPath id="clip0">
<rect width="45" height="45" fill="white"/>
</clipPath>
</defs>
</svg>
