<svg width="27" height="27" viewBox="0 0 27 27" fill="none" xmlns="http://www.w3.org/2000/svg">
<g clip-path="url(#clip0_9_332)">
<path d="M0.267676 0.00144995C0.191431 0.0159979 0.122777 0.0570122 0.0738305 0.117254C0.024884 0.177496 -0.00120799 0.253092 0.000159771 0.3307V7.34785C-0.000457259 7.39148 0.00760306 7.43479 0.0238725 7.47528C0.040142 7.51577 0.0642962 7.55262 0.0949311 7.58369C0.125566 7.61476 0.162071 7.63943 0.202324 7.65627C0.242577 7.67311 0.285776 7.68179 0.32941 7.68179C0.373044 7.68179 0.416243 7.67311 0.456496 7.65627C0.496749 7.63943 0.533254 7.61476 0.563889 7.58369C0.594524 7.55262 0.618678 7.51577 0.634947 7.47528C0.651217 7.43479 0.659277 7.39148 0.65866 7.34785V0.65995H7.35684C7.40047 0.660567 7.44379 0.652507 7.48428 0.636238C7.52477 0.619968 7.56161 0.595814 7.59269 0.565179C7.62376 0.534544 7.64843 0.498039 7.66527 0.457786C7.68211 0.417533 7.69078 0.374334 7.69078 0.3307C7.69078 0.287066 7.68211 0.243867 7.66527 0.203614C7.64843 0.163361 7.62376 0.126856 7.59269 0.0962213C7.56161 0.0655864 7.52477 0.0414322 7.48428 0.0251627C7.44379 0.00889323 7.40047 0.000832917 7.35684 0.00144995H0.32941C0.308877 -0.000483316 0.288208 -0.000483316 0.267676 0.00144995ZM19.5803 0.00144995C19.4929 0.00963644 19.4124 0.0521763 19.3565 0.119711C19.3005 0.187247 19.2737 0.274245 19.2819 0.361567C19.2901 0.44889 19.3326 0.529384 19.4001 0.585342C19.4677 0.641299 19.5547 0.668137 19.642 0.65995H26.3402V7.34785C26.3396 7.39148 26.3476 7.43479 26.3639 7.47528C26.3802 7.51577 26.4043 7.55262 26.4349 7.58369C26.4656 7.61476 26.5021 7.63943 26.5423 7.65627C26.5826 7.67311 26.6258 7.68179 26.6694 7.68179C26.7131 7.68179 26.7563 7.67311 26.7965 7.65627C26.8368 7.63943 26.8733 7.61476 26.9039 7.58369C26.9345 7.55262 26.9587 7.51577 26.975 7.47528C26.9912 7.43479 26.9993 7.39148 26.9987 7.34785V0.3307C26.9987 0.24338 26.964 0.159639 26.9022 0.0978949C26.8405 0.0361504 26.7567 0.00145868 26.6694 0.00144995H19.642C19.6215 -0.000483316 19.6008 -0.000483316 19.5803 0.00144995ZM0.32941 19.3037C0.285294 19.3037 0.241624 19.3126 0.200994 19.3298C0.160364 19.347 0.123602 19.3721 0.0928908 19.4038C0.0621796 19.4355 0.0381455 19.473 0.0222159 19.5141C0.00628625 19.5553 -0.00121431 19.5992 0.000159771 19.6433V26.6707C0.000168502 26.758 0.0348602 26.8418 0.0966047 26.9035C0.158349 26.9653 0.24209 27 0.32941 27H7.35684C7.40047 27.0006 7.44379 26.9925 7.48428 26.9763C7.52477 26.96 7.56161 26.9358 7.59269 26.9052C7.62376 26.8746 7.64843 26.8381 7.66527 26.7978C7.68211 26.7575 7.69078 26.7144 7.69078 26.6707C7.69078 26.6271 7.68211 26.5839 7.66527 26.5436C7.64843 26.5034 7.62376 26.4669 7.59269 26.4362C7.56161 26.4056 7.52477 26.3814 7.48428 26.3652C7.44379 26.3489 7.40047 26.3408 7.35684 26.3415H0.65866V19.6433C0.660034 19.5992 0.652534 19.5553 0.636604 19.5141C0.620674 19.473 0.59664 19.4355 0.565929 19.4038C0.535218 19.3721 0.498456 19.347 0.457826 19.3298C0.417196 19.3126 0.373526 19.3037 0.32941 19.3037ZM26.6694 19.3037C26.6253 19.3037 26.5816 19.3126 26.541 19.3298C26.5004 19.347 26.4636 19.3721 26.4329 19.4038C26.4022 19.4355 26.3782 19.473 26.3622 19.5141C26.3463 19.5553 26.3388 19.5992 26.3402 19.6433V26.3415H19.642C19.5984 26.3408 19.555 26.3489 19.5146 26.3652C19.4741 26.3814 19.4372 26.4056 19.4062 26.4362C19.3751 26.4669 19.3504 26.5034 19.3336 26.5436C19.3167 26.5839 19.3081 26.6271 19.3081 26.6707C19.3081 26.7144 19.3167 26.7575 19.3336 26.7978C19.3504 26.8381 19.3751 26.8746 19.4062 26.9052C19.4372 26.9358 19.4741 26.96 19.5146 26.9763C19.555 26.9925 19.5984 27.0006 19.642 27H26.6694C26.7567 27 26.8405 26.9653 26.9022 26.9035C26.964 26.8418 26.9987 26.758 26.9987 26.6707V19.6433C27.0001 19.5992 26.9926 19.5553 26.9766 19.5141C26.9607 19.473 26.9367 19.4355 26.9059 19.4038C26.8752 19.3721 26.8385 19.347 26.7978 19.3298C26.7572 19.3126 26.7135 19.3037 26.6694 19.3037Z" fill="white"/>
</g>
<defs>
<clipPath id="clip0_9_332">
<rect width="27" height="27" fill="white"/>
</clipPath>
</defs>
</svg>
