<svg width="18" height="10" viewBox="0 0 18 10" fill="none" xmlns="http://www.w3.org/2000/svg">
<mask id="path-1-inside-1_79_632" fill="white">
<path d="M1.02746 5.2799L5.28535 9.59287L4.9184 10L0 5L4.9184 0L5.28535 0.407125L1.02746 4.7201H18V5.2799H1.02746Z"/>
</mask>
<path d="M1.02746 5.2799L5.28535 9.59287L4.9184 10L0 5L4.9184 0L5.28535 0.407125L1.02746 4.7201H18V5.2799H1.02746Z" fill="white"/>
<path d="M1.02746 5.2799L0.315823 5.98245L-1.36498 4.2799H1.02746V5.2799ZM5.28535 9.59287L5.99699 8.89033L6.65974 9.56165L6.02816 10.2624L5.28535 9.59287ZM4.9184 10L5.66121 10.6695L4.95022 11.4583L4.2055 10.7013L4.9184 10ZM0 5L-0.7129 5.70127L-1.40272 5L-0.7129 4.29873L0 5ZM4.9184 0L4.2055 -0.701266L4.95022 -1.45834L5.66121 -0.669507L4.9184 0ZM5.28535 0.407125L6.02816 -0.262382L6.65974 0.438347L5.99699 1.10967L5.28535 0.407125ZM1.02746 4.7201V5.7201H-1.36498L0.315823 4.01755L1.02746 4.7201ZM18 4.7201V3.7201H19V4.7201H18ZM18 5.2799H19V6.2799H18V5.2799ZM1.7391 4.57735L5.99699 8.89033L4.57371 10.2954L0.315823 5.98245L1.7391 4.57735ZM6.02816 10.2624L5.66121 10.6695L4.17559 9.33049L4.54254 8.92337L6.02816 10.2624ZM4.2055 10.7013L-0.7129 5.70127L0.7129 4.29873L5.6313 9.29873L4.2055 10.7013ZM-0.7129 4.29873L4.2055 -0.701266L5.6313 0.701266L0.7129 5.70127L-0.7129 4.29873ZM5.66121 -0.669507L6.02816 -0.262382L4.54255 1.07663L4.1756 0.669507L5.66121 -0.669507ZM5.99699 1.10967L1.7391 5.42265L0.315823 4.01755L4.57371 -0.295423L5.99699 1.10967ZM1.02746 3.7201H18V5.7201H1.02746V3.7201ZM19 4.7201V5.2799H17V4.7201H19ZM18 6.2799H1.02746V4.2799H18V6.2799Z" fill="white" mask="url(#path-1-inside-1_79_632)"/>
</svg>
