<svg width="17" height="17" viewBox="0 0 17 17" fill="none" xmlns="http://www.w3.org/2000/svg">
<g clip-path="url(#clip0_21_58)">
<path d="M8.46304 16.9632C3.80652 16.9632 0 13.1567 0 8.50015C0 3.84363 3.80652 0.0371094 8.46304 0.0371094C13.1196 0.0371094 16.9261 3.84363 16.9261 8.50015C16.963 13.1567 13.1565 16.9632 8.46304 16.9632ZM8.46304 0.924064C4.28695 0.924064 0.923913 4.32406 0.923913 8.46319C0.923913 12.6023 4.32391 16.0023 8.46304 16.0023C12.6022 16.0023 16.0022 12.6023 16.0022 8.46319C16.0022 4.32406 12.6391 0.924064 8.46304 0.924064Z" fill="white" fill-opacity="0.7"/>
<path d="M11.1237 12.8242L7.98242 9.68285V3.95459H8.98024V9.27633L11.8259 12.122L11.1237 12.8242Z" fill="white" fill-opacity="0.7"/>
</g>
<defs>
<clipPath id="clip0_21_58">
<rect width="17" height="17" fill="white"/>
</clipPath>
</defs>
</svg>
