<svg width="37" height="37" viewBox="0 0 37 37" fill="none" xmlns="http://www.w3.org/2000/svg">
<g clip-path="url(#clip0_145_23)">
<path d="M19.2658 10.4315C19.8736 10.1071 20.4832 9.91406 22.3355 9.91406C22.7286 9.91406 23.0784 9.94219 23.3859 9.99601V11.2283H22.3355C20.9355 11.2283 20.418 11.3064 19.8873 11.5904C19.4959 11.7989 19.1996 12.0951 18.991 12.4865C18.7069 13.0173 18.6288 13.5348 18.6288 14.9351V17.3141H23.2736L22.9451 18.6283H18.6288V28.1426H17.3145V18.6283H13.0859V17.3141H17.3145V14.9351C17.3145 13.0828 17.5075 12.4731 17.8319 11.8653L17.8325 11.8641C18.1555 11.254 18.6544 10.7551 19.2646 10.4321L19.2658 10.4315Z" fill="white"/>
<rect x="0.5" y="0.5" width="36" height="36" rx="7.5" stroke="white"/>
</g>
<defs>
<clipPath id="clip0_145_23">
<rect width="37" height="37" fill="white"/>
</clipPath>
</defs>
</svg>
