<svg width="32" height="33" viewBox="0 0 32 33" fill="none" xmlns="http://www.w3.org/2000/svg">
<path d="M30.3484 19.7706L26.8526 17.4085C26.6159 17.3132 26.4119 17.144 26.2678 16.9231C26.1236 16.7022 26.0459 15.44 26.0451 15.1712V14.7583C26.6211 14.1585 27.0765 13.4408 27.3835 12.6486C27.6906 11.8564 27.8429 11.0063 27.8313 10.1498C27.8217 8.93669 27.361 7.77672 26.5496 6.92249C25.7381 6.06826 24.6417 5.58897 23.499 5.58897C22.3562 5.58897 21.2598 6.06826 20.4483 6.92249C19.6369 7.77672 19.1762 8.93669 19.1666 10.1498C19.1548 11.0066 19.307 11.857 19.6141 12.6495C19.9211 13.4419 20.3766 14.1599 20.9528 14.7599V15.1716C20.9518 15.4402 20.8741 16.7023 20.73 16.9231C20.5858 17.1439 20.3819 17.3132 20.1453 17.4085L15.5916 19.0984L15.0065 18.8653C14.684 18.7357 14.4061 18.5053 14.2096 18.2044C14.0132 17.9036 13.9073 16.5465 13.9061 16.1805V15.6139C14.6425 14.8562 15.225 13.9463 15.6174 12.9404C16.0098 11.9345 16.204 10.8539 16.1878 9.76524C16.1878 8.23621 15.6157 6.76979 14.5973 5.6886C13.5789 4.60741 12.1976 4 10.7574 4C9.31715 4 7.9359 4.60741 6.91749 5.6886C5.89909 6.76979 5.32696 8.23621 5.32696 9.76524C5.31082 10.8544 5.50519 11.9355 5.89807 12.9418C6.29095 13.9481 6.87398 14.8582 7.61117 15.6158V16.1818C7.60987 16.5479 7.50395 16.9049 7.30742 17.2058C7.11089 17.5066 6.833 18.737 6.51048 18.8666L2.04492 20.6453C1.44557 20.8858 0.929135 21.3138 0.563977 21.8728C0.19882 22.4318 0.00215108 23.0953 0 23.7755V27.496C0.000570184 27.8947 0.150008 28.2769 0.41556 28.5588C0.681113 28.8407 1.04111 28.9994 1.41666 29H20.0975C20.473 28.9993 20.833 28.8406 21.0985 28.5587C21.364 28.2768 21.5135 27.8947 21.5142 27.496V26.4801H30.8078C31.1239 26.4799 31.4269 26.3465 31.6504 26.1093C31.874 25.872 31.9997 25.5503 32 25.2148V22.301C31.9985 21.7512 31.8398 21.2149 31.5448 20.7631C31.2499 20.3113 30.8327 19.9652 30.3484 19.7706ZM19.9257 10.1492C19.9257 9.14328 20.3021 8.1786 20.9721 7.46732C21.642 6.75605 22.5507 6.35647 23.4982 6.35647C24.4457 6.35647 25.3543 6.75605 26.0243 7.46732C26.6943 8.1786 27.0706 9.14328 27.0706 10.1492C27.0706 12.7822 25.4008 15.0918 23.4982 15.0918C21.5955 15.0918 19.9257 12.7822 19.9257 10.1492ZM6.08672 9.76459C6.08672 8.44948 6.5788 7.18823 7.45473 6.2583C8.33065 5.32838 9.51865 4.80595 10.7574 4.80595C11.9961 4.80595 13.1841 5.32838 14.0601 6.2583C14.936 7.18823 15.4281 8.44948 15.4281 9.76459C15.4281 13.1885 13.2455 16.1919 10.7574 16.1919C8.2693 16.1919 6.08672 13.1882 6.08672 9.76459ZM20.7572 27.496C20.7569 27.6812 20.6875 27.8588 20.5641 27.9898C20.4408 28.1207 20.2735 28.1944 20.099 28.1947H1.41666C1.24238 28.1942 1.07539 28.1204 0.952268 27.9894C0.829146 27.8584 0.759924 27.681 0.759762 27.496V23.7755C0.761229 23.2596 0.910209 22.7564 1.18699 22.3323C1.46377 21.9083 1.8553 21.5835 2.30977 21.4009L6.77688 19.6222C7.23587 19.4369 7.63233 18.1105 7.91549 17.6845C8.19866 17.2586 8.35563 16.7527 8.36631 16.2315C9.07451 16.7327 9.90658 17.0001 10.7577 17.0001C11.6088 17.0001 12.4409 16.7327 13.1491 16.2315C13.1595 16.753 13.3163 18.2593 13.5996 18.6855C13.8828 19.1116 14.2795 19.4383 14.7388 19.6235L19.2044 21.4012C19.6592 21.5833 20.0512 21.9077 20.3285 22.3315C20.6057 22.7553 20.7552 23.2585 20.7572 23.7746V27.496ZM31.2418 25.2145C31.2418 25.2746 31.2306 25.3341 31.209 25.3897C31.1873 25.4452 31.1555 25.4956 31.1155 25.5382C31.0755 25.5807 31.0279 25.6144 30.9756 25.6374C30.9233 25.6604 30.8672 25.6722 30.8106 25.6722H21.5154V23.7746C21.5134 23.0946 21.317 22.4313 20.9521 21.8724C20.5873 21.3135 20.0713 20.8854 19.4723 20.6446L16.6741 19.5307L20.4126 18.1637C20.7656 18.0207 21.0734 17.7751 21.301 17.455C21.5286 17.1349 21.6666 15.7532 21.6993 15.3537C22.2394 15.7105 22.8628 15.8996 23.499 15.8996C24.1351 15.8996 24.7585 15.7105 25.2986 15.3537C25.331 15.7534 25.4689 17.1354 25.6965 17.4557C25.9241 17.7761 26.2321 18.0218 26.5853 18.1647L30.081 20.5269C30.4208 20.6634 30.7136 20.9061 30.9206 21.2231C31.1276 21.54 31.239 21.9163 31.2402 22.3019L31.2418 25.2145Z" fill="white"/>
</svg>
