<svg width="40" height="40" viewBox="0 0 40 40" fill="none" xmlns="http://www.w3.org/2000/svg">
<path d="M8 39.5H31.259L31.259 11.0723L22.3313 0.5L17.3976 0.5L8 11.0723L8 39.5Z" stroke="white"/>
<circle cx="19.514" cy="8.72148" r="2.08434" stroke="white"/>
<path d="M19.6175 30.3533C18.6561 30.3533 17.8494 30.2152 17.1975 29.9389C16.5566 29.6516 16.0704 29.2704 15.7389 28.7952C15.4184 28.309 15.2582 27.7676 15.2582 27.1709C15.2582 26.8283 15.308 26.5355 15.4074 26.2924C15.5179 26.0383 15.6616 25.8173 15.8384 25.6294H17.8273C17.5732 25.762 17.3411 25.9001 17.1312 26.0438C16.9323 26.1874 16.7721 26.3587 16.6505 26.5576C16.54 26.7455 16.4848 26.9775 16.4848 27.2538C16.4848 27.6295 16.5897 27.972 16.7997 28.2814C17.0207 28.5908 17.3577 28.8394 17.8108 29.0273C18.2749 29.2041 18.866 29.2925 19.5843 29.2925C20.3688 29.2925 21.1092 29.1709 21.8053 28.9278C22.5015 28.6737 23.054 28.3588 23.4628 27.9831L23.8607 28.9113C23.3634 29.3422 22.7336 29.6903 21.9711 29.9555C21.2087 30.2207 20.4241 30.3533 19.6175 30.3533ZM14.2969 25.9112V25.1985H24.6728V25.9112H14.2969ZM14.2969 23.6238V22.9111H24.6728V23.6238H14.2969ZM20.9269 23.2923C21.1921 23.1487 21.4352 23.005 21.6562 22.8614C21.8772 22.7177 22.054 22.552 22.1866 22.3641C22.3302 22.1652 22.4021 21.9387 22.4021 21.6846C22.4021 21.2868 22.2971 20.9332 22.0871 20.6238C21.8772 20.3033 21.5457 20.0492 21.0926 19.8613C20.6396 19.6735 20.0594 19.5795 19.3522 19.5795C18.8329 19.5795 18.2915 19.6514 17.7279 19.795C17.1644 19.9387 16.6284 20.1597 16.1201 20.458L15.7886 19.4801C16.2859 19.1817 16.8439 18.9497 17.4627 18.7839C18.0815 18.6071 18.7003 18.5187 19.3191 18.5187C20.2694 18.5187 21.0595 18.6624 21.6893 18.9497C22.3302 19.237 22.8109 19.6237 23.1314 20.1099C23.4518 20.5851 23.612 21.121 23.612 21.7177C23.612 22.0603 23.5623 22.3586 23.4628 22.6128C23.3634 22.8669 23.2308 23.0934 23.0651 23.2923H20.9269Z" fill="white"/>
</svg>
