<svg width="19" height="20" viewBox="0 0 19 20" fill="none" xmlns="http://www.w3.org/2000/svg">
<path d="M7.62926 9.15982C7.61857 9.32324 7.60788 9.48665 7.59719 9.65007C7.59719 9.81349 7.59719 9.9718 7.59719 10.125C7.59719 10.268 7.59719 10.411 7.59719 10.554C7.59719 10.697 7.60254 10.8399 7.61323 10.9829H11.0281L10.8517 11.7949H7.69339C7.75752 12.183 7.85371 12.5558 7.98196 12.9133C8.11022 13.2606 8.28657 13.567 8.51102 13.8325C8.74616 14.0981 9.04542 14.3126 9.40882 14.476C9.77221 14.6394 10.2158 14.7211 10.7395 14.7211C11.2204 14.7211 11.6266 14.6802 11.9579 14.5985C12.2999 14.5066 12.5671 14.4096 12.7595 14.3075L13 15.1654C12.9252 15.2062 12.813 15.2522 12.6633 15.3033C12.5137 15.3543 12.3373 15.4003 12.1343 15.4412C11.9312 15.4922 11.7067 15.5331 11.4609 15.5637C11.2151 15.6046 10.9639 15.625 10.7074 15.625C10.0127 15.625 9.41951 15.5229 8.92786 15.3186C8.44689 15.1143 8.04075 14.8386 7.70942 14.4913C7.38878 14.144 7.13226 13.7406 6.93988 13.281C6.75818 12.8112 6.62993 12.3158 6.55511 11.7949H5V10.9829H6.45892C6.44823 10.8399 6.44289 10.697 6.44289 10.554C6.44289 10.411 6.44289 10.268 6.44289 10.125C6.44289 9.80838 6.45892 9.48665 6.49098 9.15982H5V8.34784H6.58717C6.68337 7.84738 6.82766 7.37245 7.02004 6.92305C7.21242 6.47365 7.47428 6.08043 7.80561 5.74338C8.13694 5.39612 8.53774 5.12546 9.00802 4.93141C9.47829 4.72714 10.0394 4.625 10.6914 4.625C10.9265 4.625 11.1349 4.63521 11.3166 4.65564C11.509 4.66585 11.68 4.68628 11.8297 4.71692C11.99 4.73735 12.1396 4.76799 12.2786 4.80884C12.4282 4.8497 12.5778 4.89566 12.7275 4.94673L12.4709 5.83531C12.2144 5.73317 11.9259 5.65657 11.6052 5.6055C11.2846 5.54422 10.98 5.51358 10.6914 5.51358C10.2104 5.51358 9.79893 5.59018 9.45691 5.74338C9.1149 5.89659 8.82632 6.10597 8.59118 6.37152C8.36673 6.62686 8.18504 6.92816 8.04609 7.27542C7.90715 7.61247 7.80561 7.96994 7.74148 8.34784H11.5731L11.4128 9.15982H7.62926Z" fill="#9E6132"/>
<path d="M9.375 19.375C7.5208 19.375 5.70824 18.8252 4.16653 17.795C2.62482 16.7649 1.42321 15.3007 0.713634 13.5877C0.00406212 11.8746 -0.181594 9.9896 0.180142 8.17103C0.541879 6.35246 1.43476 4.68199 2.74588 3.37088C4.05699 2.05976 5.72746 1.16688 7.54603 0.805142C9.3646 0.443406 11.2496 0.629062 12.9627 1.33863C14.6757 2.04821 16.1399 3.24982 17.17 4.79153C18.2002 6.33324 18.75 8.1458 18.75 10C18.75 12.4864 17.7623 14.871 16.0041 16.6291C14.246 18.3873 11.8614 19.375 9.375 19.375ZM9.375 1.875C7.76803 1.875 6.19714 2.35153 4.861 3.24431C3.52485 4.1371 2.48344 5.40605 1.86848 6.8907C1.25352 8.37535 1.09262 10.009 1.40612 11.5851C1.71963 13.1612 2.49346 14.6089 3.62976 15.7452C4.76606 16.8815 6.2138 17.6554 7.78989 17.9689C9.36599 18.2824 10.9997 18.1215 12.4843 17.5065C13.969 16.8916 15.2379 15.8502 16.1307 14.514C17.0235 13.1779 17.5 11.607 17.5 10C17.5 7.84512 16.644 5.77849 15.1202 4.25476C13.5965 2.73103 11.5299 1.875 9.375 1.875Z" fill="#9E6132"/>
</svg>
