<svg width="25" height="24" viewBox="0 0 25 24" fill="none" xmlns="http://www.w3.org/2000/svg">
<path d="M12.7489 21.2942L4.11516 12.6604C1.68399 10.1669 1.74633 6.17733 4.23984 3.74616C6.5775 1.47083 10.2866 2.23504 12.7489 4.38569C15.2424 2.23504 18.9827 1.47083 21.3204 3.80849C23.7515 6.23966 23.7827 10.1981 21.3827 12.6604L12.7489 21.2942ZM4.89438 12.0994L12.7801 19.9851L20.697 12.0682C22.7853 9.97992 22.7853 6.55135 20.697 4.46304C18.6087 2.37473 15.2113 3.26362 13.0918 5.35193L12.7489 5.69479L12.4061 5.35193C10.3178 3.23245 6.92036 2.34356 4.80087 4.4007C2.68139 6.45785 2.68139 9.88642 4.73854 12.0059L4.80087 12.0371L4.89438 12.0994Z" fill="#C19857"/>
</svg>
