<svg width="27" height="28" viewBox="0 0 27 28" fill="none" xmlns="http://www.w3.org/2000/svg">
<path d="M13.4995 24.2429L3.78654 14.5299C1.05147 11.7247 1.1216 7.23636 3.9268 4.50129C6.55667 1.94155 10.7294 2.80129 13.4995 5.22077C16.3047 2.80129 20.5125 1.94155 23.1424 4.57142C25.8774 7.30649 25.9125 11.7597 23.2125 14.5299L13.4995 24.2429ZM4.66316 13.8987L13.5346 22.7701L22.4411 13.8636C24.7904 11.5143 24.7904 7.65714 22.4411 5.30778C20.0917 2.95843 16.2697 3.95843 13.8852 6.30778L13.4995 6.6935L13.1138 6.30778C10.7645 3.92337 6.94238 2.92337 4.55797 5.23765C2.17355 7.55194 2.17355 11.4091 4.48784 13.7935L4.55797 13.8286L4.66316 13.8987Z" fill="#575149"/>
</svg>
