<svg width="30" height="24" viewBox="0 0 30 24" fill="none" xmlns="http://www.w3.org/2000/svg">
<g clip-path="url(#clip0_122_332)">
<path d="M0 0.537109H30V23.0371H0V0.537109Z" fill="#012169"/>
<path d="M3.51562 0.537109L14.9531 9.02148L26.3438 0.537109H30V3.44336L18.75 11.834L30 20.1777V23.0371H26.25L15 14.6465L3.79688 23.0371H0V20.2246L11.2031 11.8809L0 3.53711V0.537109H3.51562Z" fill="white"/>
<path d="M19.875 13.709L30 21.1621V23.0371L17.2969 13.709H19.875ZM11.25 14.6465L11.5312 16.2871L2.53125 23.0371H0L11.25 14.6465ZM30 0.537109V0.677734L18.3281 9.49023L18.4219 7.42773L27.6562 0.537109H30ZM0 0.537109L11.2031 8.78711H8.39062L0 2.50586V0.537109Z" fill="#C8102E"/>
<path d="M11.2969 0.537109V23.0371H18.7969V0.537109H11.2969ZM0 8.03711V15.5371H30V8.03711H0Z" fill="white"/>
<path d="M0 9.58398V14.084H30V9.58398H0ZM12.7969 0.537109V23.0371H17.2969V0.537109H12.7969Z" fill="#C8102E"/>
</g>
<defs>
<clipPath id="clip0_122_332">
<rect width="30" height="22.5" fill="white" transform="translate(0 0.537109)"/>
</clipPath>
</defs>
</svg>
