<svg width="140" height="62" viewBox="0 0 140 62" fill="none" xmlns="http://www.w3.org/2000/svg">
<path d="M140 30.787C140 47.7902 108.66 61.5741 70 61.5741C31.3401 61.5741 0 47.7902 0 30.787C0 13.7838 31.3401 0 70 0C108.66 0 140 13.7838 140 30.787Z" fill="#88001B"/>
<path fill-rule="evenodd" clip-rule="evenodd" d="M132.942 41.2732C136.217 37.8671 137.84 34.327 137.84 30.787C137.84 27.2471 136.217 23.707 132.942 20.3009C129.656 16.8842 124.798 13.7087 118.628 10.995C106.293 5.57022 89.1027 2.16049 70 2.16049C50.8973 2.16049 33.7065 5.57022 21.3723 10.995C15.2022 13.7087 10.344 16.8842 7.05819 20.3009C3.78263 23.707 2.16049 27.2471 2.16049 30.787C2.16049 34.327 3.78263 37.8671 7.05819 41.2732C10.344 44.6899 15.2022 47.8654 21.3723 50.5791C33.7065 56.0039 50.8973 59.4136 70 59.4136C89.1027 59.4136 106.293 56.0039 118.628 50.5791C124.798 47.8654 129.656 44.6899 132.942 41.2732ZM70 61.5741C108.66 61.5741 140 47.7902 140 30.787C140 13.7838 108.66 0 70 0C31.3401 0 0 13.7838 0 30.787C0 47.7902 31.3401 61.5741 70 61.5741Z" fill="#FFCA18"/>
<path fill-rule="evenodd" clip-rule="evenodd" d="M126.099 39.5163C129.124 36.7592 130.709 33.8084 130.709 30.7868C130.709 27.7652 129.124 24.8144 126.099 22.0573C123.074 19.2999 118.661 16.787 113.153 14.6632C102.141 10.4174 86.8843 7.77754 69.9996 7.77754C53.115 7.77754 37.8581 10.4174 26.8461 14.6632C21.338 16.787 16.9249 19.2999 13.9001 22.0573C10.8755 24.8144 9.28975 27.7652 9.28975 30.7868C9.28975 33.8084 10.8755 36.7592 13.9001 39.5163C16.9249 42.2737 21.338 44.7866 26.8461 46.9104C37.8581 51.1562 53.115 53.7961 69.9996 53.7961C86.8843 53.7961 102.141 51.1562 113.153 46.9104C118.661 44.7866 123.074 42.2737 126.099 39.5163ZM69.9996 54.4442C103.887 54.4442 131.358 43.8524 131.358 30.7868C131.358 17.7212 103.887 7.12939 69.9996 7.12939C36.1125 7.12939 8.6416 17.7212 8.6416 30.7868C8.6416 43.8524 36.1125 54.4442 69.9996 54.4442Z" fill="#FFCA18"/>
<rect x="7.56152" y="23.9814" width="125.957" height="13.6111" fill="#88001B"/>
<path d="M30.2678 32.5204V37.7284H31.6021V39.3209H25.4902V37.7284H27.0828V24.9882H25.4902V23.3957H32.3553C34.0698 23.3957 35.3897 23.7436 36.3151 24.4394C37.2405 25.1281 37.7031 26.1109 37.7031 27.3878C37.7031 28.471 37.4449 29.3892 36.9284 30.1424C36.4191 30.8956 35.6479 31.4802 34.6149 31.8963L38.8115 37.7284H39.8767V39.3209H35.7878L31.4945 32.5204H30.2678ZM30.2678 30.9924H30.8273C32.0397 30.9924 32.9471 30.7091 33.5497 30.1424C34.1523 29.5685 34.4535 28.7113 34.4535 27.5707C34.4535 26.7099 34.1917 26.0642 33.668 25.6338C33.1515 25.2034 32.3732 24.9882 31.3331 24.9882H30.2678V30.9924Z" fill="#FFCA18"/>
<path d="M46.2145 24.9882V37.7284H47.807V39.3209H41.3078V37.7284H42.9004V24.9882H41.3078V23.3957H47.807V24.9882H46.2145Z" fill="#FFCA18"/>
<path d="M49.5502 39.3209V37.7284H51.1427V24.9882H49.5502V23.3957H55.6513V24.9882H54.3278L54.3493 31.0355L59.9984 24.9882H58.6749V23.3957H63.2373V24.9882H62.172L57.19 30.3253L63.3018 37.7284H64.507V39.3209H58.4597V37.7284H59.5142L54.3278 31.4767V37.7284H55.6513V39.3209H49.5502Z" fill="#FFCA18"/>
<path d="M70.7479 24.9882V37.7284H72.3405V39.3209H65.8413V37.7284H67.4338V24.9882H65.8413V23.3957H72.3405V24.9882H70.7479Z" fill="#FFCA18"/>
<path d="M74.3849 39.0842V35.5548H76.2464V37.2119C76.7773 37.5347 77.2758 37.7786 77.7421 37.9436C78.2156 38.1086 78.6567 38.1911 79.0656 38.1911C79.8619 38.1911 80.5039 37.9759 80.9917 37.5454C81.4795 37.1079 81.7234 36.5376 81.7234 35.8346C81.7234 35.1674 81.5692 34.6258 81.2607 34.2098C80.9451 33.8009 80.3461 33.3525 79.4638 32.8647L78.3985 32.2837C76.9566 31.4874 75.9308 30.7163 75.3211 29.9702C74.7113 29.2313 74.4064 28.3885 74.4064 27.4416C74.4064 26.136 74.8799 25.0707 75.8268 24.2458C76.7737 23.4136 77.9932 22.9976 79.4853 22.9976C80.2672 22.9976 81.0419 23.0514 81.8095 23.159C82.5842 23.2666 83.3518 23.4316 84.1122 23.6539V26.882H82.2507V25.3541C81.7987 25.0743 81.3612 24.8663 80.9379 24.73C80.5147 24.5865 80.1022 24.5148 79.7005 24.5148C79.0907 24.5148 78.5707 24.73 78.1402 25.1604C77.717 25.5908 77.5054 26.1145 77.5054 26.7314C77.5054 27.2335 77.6596 27.6639 77.9681 28.0226C78.2765 28.3885 78.8576 28.8153 79.7112 29.3031L80.7873 29.9272C82.3368 30.8167 83.4056 31.6201 83.9938 32.3375C84.5821 33.062 84.8762 33.9228 84.8762 34.9199C84.8762 36.3762 84.3346 37.5419 83.2514 38.417C82.1682 39.285 80.7263 39.719 78.9257 39.719C78.2586 39.719 77.5448 39.6652 76.7845 39.5576C76.0312 39.45 75.2314 39.2922 74.3849 39.0842Z" fill="#FFCA18"/>
<path d="M86.9744 39.0842V35.5548H88.836V37.2119C89.3668 37.5347 89.8654 37.7786 90.3316 37.9436C90.8051 38.1086 91.2463 38.1911 91.6552 38.1911C92.4514 38.1911 93.0934 37.9759 93.5812 37.5454C94.069 37.1079 94.3129 36.5376 94.3129 35.8346C94.3129 35.1674 94.1587 34.6258 93.8502 34.2098C93.5346 33.8009 92.9356 33.3525 92.0533 32.8647L90.988 32.2837C89.5461 31.4874 88.5203 30.7163 87.9106 29.9702C87.3008 29.2313 86.9959 28.3885 86.9959 27.4416C86.9959 26.136 87.4694 25.0707 88.4163 24.2458C89.3632 23.4136 90.5827 22.9976 92.0748 22.9976C92.8567 22.9976 93.6315 23.0514 94.399 23.159C95.1738 23.2666 95.9413 23.4316 96.7017 23.6539V26.882H94.8402V25.3541C94.3883 25.0743 93.9507 24.8663 93.5274 24.73C93.1042 24.5865 92.6917 24.5148 92.29 24.5148C91.6803 24.5148 91.1602 24.73 90.7298 25.1604C90.3065 25.5908 90.0949 26.1145 90.0949 26.7314C90.0949 27.2335 90.2491 27.6639 90.5576 28.0226C90.8661 28.3885 91.4471 28.8153 92.3008 29.3031L93.3768 29.9272C94.9263 30.8167 95.9951 31.6201 96.5834 32.3375C97.1716 33.062 97.4657 33.9228 97.4657 34.9199C97.4657 36.3762 96.9241 37.5419 95.8409 38.417C94.7577 39.285 93.3158 39.719 91.5153 39.719C90.8481 39.719 90.1344 39.6652 89.374 39.5576C88.6208 39.45 87.8209 39.2922 86.9744 39.0842Z" fill="#FFCA18"/>
<path d="M102.857 34.7047L101.662 37.7284H103.255V39.3209H98.9506V37.7284H99.8868L105.622 23.1912H108.118L113.864 37.7284H114.79V39.3209H108.85V37.7284H110.443L109.248 34.7047H102.857ZM103.513 33.0477H108.592L106.042 26.6453L103.513 33.0477Z" fill="#FFCA18"/>
</svg>
