<svg width="37" height="29" viewBox="0 0 37 29" fill="none" xmlns="http://www.w3.org/2000/svg">
<path d="M28.4511 14.5245C28.6464 14.3292 28.6464 14.0126 28.4511 13.8173L25.2691 10.6354C25.0739 10.4401 24.7573 10.4401 24.562 10.6354C24.3668 10.8306 24.3668 11.1472 24.562 11.3425L27.3905 14.1709L24.562 16.9993C24.3668 17.1946 24.3668 17.5112 24.562 17.7064C24.7573 17.9017 25.0739 17.9017 25.2691 17.7064L28.4511 14.5245ZM0 14.6709H28.0976V13.6709H0V14.6709Z" fill="#92897B"/>
<path fill-rule="evenodd" clip-rule="evenodd" d="M15.3672 0.561035H36.4404V28.6586H15.3672V21.9725H16.2452V27.7805H35.5623V1.43908H16.2452V6.80094H15.3672V0.561035Z" fill="#92897B"/>
</svg>
