<svg width="173" height="42" viewBox="0 0 173 42" fill="none" xmlns="http://www.w3.org/2000/svg">
<path d="M9.71094 23.8906V32.3984H11.8906V35H1.90625V32.3984H4.50781V11.5859H1.90625V8.98438H13.1211C15.9219 8.98438 18.0781 9.55273 19.5898 10.6895C21.1016 11.8145 21.8574 13.4199 21.8574 15.5059C21.8574 17.2754 21.4355 18.7754 20.5918 20.0059C19.7598 21.2363 18.5 22.1914 16.8125 22.8711L23.668 32.3984H25.4082V35H18.7285L11.7148 23.8906H9.71094ZM9.71094 21.3945H10.625C12.6055 21.3945 14.0879 20.9316 15.0723 20.0059C16.0566 19.0684 16.5488 17.668 16.5488 15.8047C16.5488 14.3984 16.1211 13.3438 15.2656 12.6406C14.4219 11.9375 13.1504 11.5859 11.4512 11.5859H9.71094V21.3945ZM35.7617 11.5859V32.3984H38.3633V35H27.7461V32.3984H30.3477V11.5859H27.7461V8.98438H38.3633V11.5859H35.7617ZM41.2109 35V32.3984H43.8125V11.5859H41.2109V8.98438H51.1777V11.5859H49.0156L49.0508 21.4648L58.2793 11.5859H56.1172V8.98438H63.5703V11.5859H61.8301L53.6914 20.3047L63.6758 32.3984H65.6445V35H55.7656V32.3984H57.4883L49.0156 22.1855V32.3984H51.1777V35H41.2109ZM75.8398 11.5859V32.3984H78.4414V35H67.8242V32.3984H70.4258V11.5859H67.8242V8.98438H78.4414V11.5859H75.8398ZM81.7812 34.6133V28.8477H84.8223V31.5547C85.6895 32.082 86.5039 32.4805 87.2656 32.75C88.0391 33.0195 88.7598 33.1543 89.4277 33.1543C90.7285 33.1543 91.7773 32.8027 92.5742 32.0996C93.3711 31.3848 93.7695 30.4531 93.7695 29.3047C93.7695 28.2148 93.5176 27.3301 93.0137 26.6504C92.498 25.9824 91.5195 25.25 90.0781 24.4531L88.3379 23.5039C85.9824 22.2031 84.3066 20.9434 83.3105 19.7246C82.3145 18.5176 81.8164 17.1406 81.8164 15.5938C81.8164 13.4609 82.5898 11.7207 84.1367 10.373C85.6836 9.01367 87.6758 8.33398 90.1133 8.33398C91.3906 8.33398 92.6562 8.42188 93.9102 8.59766C95.1758 8.77344 96.4297 9.04297 97.6719 9.40625V14.6797H94.6309V12.1836C93.8926 11.7266 93.1777 11.3867 92.4863 11.1641C91.7949 10.9297 91.1211 10.8125 90.4648 10.8125C89.4688 10.8125 88.6191 11.1641 87.916 11.8672C87.2246 12.5703 86.8789 13.4258 86.8789 14.4336C86.8789 15.2539 87.1309 15.957 87.6348 16.543C88.1387 17.1406 89.0879 17.8379 90.4824 18.6348L92.2402 19.6543C94.7715 21.1074 96.5176 22.4199 97.4785 23.5918C98.4395 24.7754 98.9199 26.1816 98.9199 27.8105C98.9199 30.1895 98.0352 32.0938 96.2656 33.5234C94.4961 34.9414 92.1406 35.6504 89.1992 35.6504C88.1094 35.6504 86.9434 35.5625 85.7012 35.3867C84.4707 35.2109 83.1641 34.9531 81.7812 34.6133ZM102.348 34.6133V28.8477H105.389V31.5547C106.256 32.082 107.07 32.4805 107.832 32.75C108.605 33.0195 109.326 33.1543 109.994 33.1543C111.295 33.1543 112.344 32.8027 113.141 32.0996C113.938 31.3848 114.336 30.4531 114.336 29.3047C114.336 28.2148 114.084 27.3301 113.58 26.6504C113.064 25.9824 112.086 25.25 110.645 24.4531L108.904 23.5039C106.549 22.2031 104.873 20.9434 103.877 19.7246C102.881 18.5176 102.383 17.1406 102.383 15.5938C102.383 13.4609 103.156 11.7207 104.703 10.373C106.25 9.01367 108.242 8.33398 110.68 8.33398C111.957 8.33398 113.223 8.42188 114.477 8.59766C115.742 8.77344 116.996 9.04297 118.238 9.40625V14.6797H115.197V12.1836C114.459 11.7266 113.744 11.3867 113.053 11.1641C112.361 10.9297 111.688 10.8125 111.031 10.8125C110.035 10.8125 109.186 11.1641 108.482 11.8672C107.791 12.5703 107.445 13.4258 107.445 14.4336C107.445 15.2539 107.697 15.957 108.201 16.543C108.705 17.1406 109.654 17.8379 111.049 18.6348L112.807 19.6543C115.338 21.1074 117.084 22.4199 118.045 23.5918C119.006 24.7754 119.486 26.1816 119.486 27.8105C119.486 30.1895 118.602 32.0938 116.832 33.5234C115.062 34.9414 112.707 35.6504 109.766 35.6504C108.676 35.6504 107.51 35.5625 106.268 35.3867C105.037 35.2109 103.73 34.9531 102.348 34.6133ZM128.293 27.459L126.342 32.3984H128.943V35H121.912V32.3984H123.441L132.811 8.65039H136.889L146.275 32.3984H147.787V35H138.084V32.3984H140.686L138.734 27.459H128.293ZM129.365 24.752H137.662L133.496 14.293L129.365 24.752ZM160.355 25.4551C157.988 25.4551 155.967 24.623 154.291 22.959C152.627 21.2832 151.795 19.2617 151.795 16.8945C151.795 14.5273 152.627 12.5117 154.291 10.8477C155.967 9.17188 157.988 8.33398 160.355 8.33398C162.723 8.33398 164.744 9.17188 166.42 10.8477C168.096 12.5117 168.934 14.5273 168.934 16.8945C168.934 19.2617 168.096 21.2832 166.42 22.959C164.744 24.623 162.723 25.4551 160.355 25.4551ZM160.355 23.293C162.125 23.293 163.631 22.6719 164.873 21.4297C166.127 20.1758 166.754 18.6641 166.754 16.8945C166.754 15.125 166.127 13.6191 164.873 12.377C163.631 11.123 162.125 10.4961 160.355 10.4961C158.598 10.4961 157.092 11.123 155.838 12.377C154.584 13.6309 153.957 15.1367 153.957 16.8945C153.957 18.6641 154.584 20.1758 155.838 21.4297C157.092 22.6719 158.598 23.293 160.355 23.293ZM159.688 18.0898V21.5H156.646V19.7598H157.525V14.1348H156.646V12.3945H159.582C161.469 12.3945 162.723 12.5527 163.344 12.8691C163.977 13.1738 164.293 13.8008 164.293 14.75C164.293 15.3477 164.141 15.8926 163.836 16.3848C163.531 16.877 163.068 17.3105 162.447 17.6855L163.484 19.7598H164.346V21.5H161.85L160.408 18.0898H159.688ZM159.688 16.5605H160.408C160.982 16.5605 161.41 16.4492 161.691 16.2266C161.984 16.0039 162.131 15.6699 162.131 15.2246C162.131 14.8613 161.984 14.5918 161.691 14.416C161.41 14.2285 160.982 14.1348 160.408 14.1348H159.688V16.5605Z" fill="white"/>
</svg>
