<svg width="91" height="40" viewBox="0 0 91 40" fill="none" xmlns="http://www.w3.org/2000/svg">
<path d="M42.9131 19.6032V30.1648H39.5625V4.08232H48.4488C49.5095 4.06016 50.5641 4.24829 51.5518 4.63584C52.5394 5.02339 53.4405 5.60269 54.2031 6.34032C54.9734 7.03316 55.5864 7.88286 56.001 8.8323C56.4156 9.78175 56.6221 10.8089 56.6068 11.8448C56.6288 12.8863 56.4254 13.9202 56.0105 14.8757C55.5957 15.8312 54.9791 16.6857 54.2031 17.3806C52.6492 18.8623 50.7311 19.6025 48.4488 19.6011H42.9131V19.6032ZM42.9131 7.29347V16.3983H48.5321C49.1481 16.4166 49.7611 16.3061 50.332 16.0738C50.9028 15.8416 51.4189 15.4928 51.8473 15.0498C52.2734 14.6355 52.6121 14.14 52.8434 13.5925C53.0747 13.0451 53.1938 12.4568 53.1938 11.8625C53.1938 11.2682 53.0747 10.68 52.8434 10.1325C52.6121 9.5851 52.2734 9.08959 51.8473 8.67532C51.4243 8.2229 50.91 7.86556 50.3384 7.62696C49.7669 7.38837 49.1512 7.27398 48.5321 7.29139H42.9131V7.29347Z" fill="#C19857"/>
<path d="M64.3259 11.7363C66.8024 11.7363 68.7573 12.3981 70.1905 13.7217C71.6237 15.0453 72.3396 16.86 72.3382 19.1659V30.1645H69.1333V27.688H68.9876C67.6002 29.7275 65.7549 30.7472 63.4518 30.7472C61.4859 30.7472 59.8411 30.1645 58.5175 28.9991C57.8823 28.4642 57.3745 27.7943 57.031 27.0383C56.6876 26.2822 56.5171 25.4591 56.5322 24.6288C56.5322 22.7821 57.23 21.3136 58.6258 20.2231C60.0215 19.1326 61.8848 18.5859 64.2156 18.5832C66.2052 18.5832 67.8437 18.9474 69.1312 19.6757V18.9099C69.135 18.3439 69.0128 17.7841 68.7734 17.2712C68.534 16.7582 68.1835 16.305 67.7473 15.9443C66.8612 15.1449 65.7065 14.7087 64.5132 14.7227C62.6416 14.7227 61.1605 15.5121 60.07 17.091L57.119 15.2326C58.7423 12.9017 61.1446 11.7363 64.3259 11.7363ZM59.991 24.7016C59.9887 25.128 60.0884 25.5488 60.2817 25.9289C60.475 26.309 60.7563 26.6374 61.1023 26.8868C61.8433 27.4697 62.7631 27.7785 63.7057 27.7608C65.1196 27.7585 66.4749 27.1957 67.4746 26.1959C68.5846 25.1511 69.1395 23.9254 69.1395 22.5185C68.0948 21.6861 66.638 21.2699 64.7692 21.2699C63.4081 21.2699 62.2732 21.598 61.3645 22.2542C60.4467 22.9202 59.991 23.7297 59.991 24.7016Z" fill="#C19857"/>
<path d="M90.7345 12.3193L79.5465 38.0314H76.0877L80.2395 29.0348L72.8828 12.3193H76.5247L81.842 25.139H81.9148L87.0864 12.3193H90.7345Z" fill="#C19857"/>
<path d="M29.3731 17.326C29.3744 16.3049 29.2881 15.2856 29.1151 14.2793H14.9844V20.0502H23.0778C22.9122 20.9719 22.5616 21.8505 22.0473 22.6331C21.533 23.4157 20.8655 24.086 20.0852 24.6037V28.3497H24.9154C27.7436 25.742 29.3731 21.8857 29.3731 17.326Z" fill="#C19857"/>
<path d="M14.9854 31.9687C19.029 31.9687 22.4337 30.641 24.9165 28.3518L20.0862 24.6058C18.7418 25.5173 17.0103 26.0376 14.9854 26.0376C11.0771 26.0376 7.75981 23.4029 6.57358 19.8525H1.59766V23.713C2.84479 26.1947 4.75715 28.2809 7.12121 29.7387C9.48527 31.1965 12.208 31.9686 14.9854 31.9687Z" fill="#C19857"/>
<path d="M6.57145 19.8528C5.94433 17.9924 5.94433 15.9777 6.57145 14.1173V10.2568H1.59553C0.54639 12.3445 0 14.6486 0 16.9851C0 19.3215 0.54639 21.6256 1.59553 23.7133L6.57145 19.8528Z" fill="#C19857"/>
<path d="M14.9854 7.93214C17.1223 7.89723 19.187 8.70459 20.7334 10.1797L25.0101 5.90306C22.2983 3.35594 18.7056 1.95753 14.9854 2.00098C12.208 2.00111 9.48527 2.77319 7.12121 4.23102C4.75715 5.68885 2.84479 7.77506 1.59766 10.2567L6.57358 14.1172C7.75981 10.5668 11.0771 7.93214 14.9854 7.93214Z" fill="#C19857"/>
</svg>
