<svg width="196" height="40" viewBox="0 0 196 40" fill="none" xmlns="http://www.w3.org/2000/svg">
<path d="M54.3046 30.7231V30.1525H54.5423V30.0573H53.9717V30.1525H54.2095V30.7231H54.3046ZM55.3983 30.7231V30.0573H55.2081L55.0179 30.5329L54.8276 30.0573H54.6374V30.7231H54.7801V30.2L54.9703 30.628H55.113L55.3032 30.2V30.7231H55.3983ZM85.4039 25.8727V18.7399C85.4039 16.0294 83.692 14.2224 80.9339 14.2224C79.4598 14.2224 77.9857 14.6503 76.9395 16.2671C76.1311 14.9832 74.8948 14.2224 73.1829 14.2224C71.9465 14.2224 70.7577 14.6028 69.8542 15.9343V14.5077H67.3815V25.8727H69.9018V19.5483C69.9018 17.551 70.9955 16.5049 72.7074 16.5049C74.3717 16.5049 75.1801 17.5986 75.1801 19.5007V25.8252H77.7004V19.5007C77.7004 17.5035 78.8416 16.4573 80.506 16.4573C82.2178 16.4573 83.0262 17.5511 83.0262 19.4532V25.7776H85.4039V25.8727ZM122.4 14.5077H118.358V11.0364H115.837V14.5077H113.507V16.7902H115.837V21.9734C115.837 24.6364 116.884 26.2056 119.784 26.2056C120.878 26.2056 122.114 25.8727 122.875 25.3021L122.162 23.1622C121.401 23.5902 120.593 23.828 119.974 23.828C118.738 23.828 118.31 23.0671 118.31 21.9259V16.7902H122.352V14.5077H122.4ZM143.513 14.2224C142.086 14.2224 141.135 14.8881 140.517 15.8867V14.5077H138.044V25.8727H140.517V19.5007C140.517 17.5986 141.326 16.5525 142.942 16.5525C143.465 16.5525 143.988 16.6476 144.512 16.8378L145.272 14.5077C144.749 14.3175 144.036 14.2224 143.513 14.2224ZM111.605 15.4112C110.416 14.6028 108.752 14.2224 106.945 14.2224C104.044 14.2224 102.19 15.6014 102.19 17.8839C102.19 19.7385 103.569 20.8797 106.137 21.2601L107.326 21.4503C108.705 21.6406 109.323 22.021 109.323 22.6392C109.323 23.5427 108.419 24.0182 106.707 24.0182C104.995 24.0182 103.759 23.4476 102.903 22.8294L101.714 24.779C103.093 25.7776 104.805 26.2531 106.66 26.2531C109.941 26.2531 111.843 24.6839 111.843 22.5441C111.843 20.5469 110.321 19.5007 107.849 19.1203L106.66 18.9301C105.566 18.7874 104.71 18.5497 104.71 17.7888C104.71 16.9329 105.519 16.4573 106.898 16.4573C108.372 16.4573 109.751 17.028 110.464 17.4559L111.605 15.4112ZM177.941 14.2224C176.514 14.2224 175.563 14.8881 174.945 15.8867V14.5077H172.472V25.8727H174.945V19.5007C174.945 17.5986 175.753 16.5525 177.37 16.5525C177.893 16.5525 178.416 16.6476 178.939 16.8378L179.7 14.5077C179.177 14.3175 178.464 14.2224 177.941 14.2224ZM146.033 20.214C146.033 23.6853 148.458 26.2056 152.12 26.2056C153.832 26.2056 154.973 25.8252 156.209 24.8266L155.021 22.8294C154.07 23.4951 153.119 23.8755 152.025 23.8755C150.028 23.8755 148.601 22.4014 148.601 20.214C148.601 18.0266 150.075 16.6 152.025 16.5525C153.119 16.5525 154.07 16.9329 155.021 17.5986L156.209 15.6014C154.973 14.6028 153.832 14.2224 152.12 14.2224C148.458 14.2224 146.033 16.7427 146.033 20.214ZM169.239 20.214V14.5077H166.766V15.8867C165.958 14.8406 164.769 14.2224 163.152 14.2224C159.966 14.2224 157.446 16.7427 157.446 20.214C157.446 23.6853 159.966 26.2056 163.152 26.2056C164.769 26.2056 165.958 25.5399 166.766 24.5413V25.9203H169.239V20.214ZM160.014 20.214C160.014 18.2168 161.345 16.5525 163.485 16.5525C165.53 16.5525 166.909 18.1217 166.909 20.214C166.909 22.3063 165.53 23.8755 163.485 23.8755C161.345 23.828 160.014 22.2112 160.014 20.214ZM130.103 14.2224C126.774 14.2224 124.444 16.6476 124.444 20.214C124.444 23.828 126.87 26.2056 130.293 26.2056C132.005 26.2056 133.574 25.7776 134.953 24.5888L133.717 22.7343C132.766 23.4951 131.53 23.9231 130.388 23.9231C128.772 23.9231 127.345 23.1622 126.965 21.1175H135.429C135.477 20.7846 135.477 20.4993 135.477 20.1664C135.524 16.6476 133.337 14.2224 130.103 14.2224ZM130.056 16.4098C131.672 16.4098 132.671 17.4084 132.956 19.1678H127.06C127.298 17.5511 128.296 16.4098 130.056 16.4098ZM192.207 20.214V9.94266H189.734V15.8867C188.926 14.8406 187.737 14.2224 186.12 14.2224C182.934 14.2224 180.414 16.7427 180.414 20.214C180.414 23.6853 182.934 26.2056 186.12 26.2056C187.737 26.2056 188.926 25.5399 189.734 24.5413V25.9203H192.207V20.214ZM195.107 24.8266C195.202 24.8266 195.298 24.8266 195.393 24.8741C195.488 24.9217 195.583 24.9692 195.63 25.0168C195.678 25.0643 195.773 25.1594 195.773 25.2545C195.821 25.3496 195.821 25.4448 195.821 25.5399C195.821 25.635 195.821 25.7301 195.773 25.8252C195.726 25.9203 195.678 25.9678 195.63 26.0629C195.583 26.1105 195.488 26.158 195.393 26.2056C195.298 26.2531 195.202 26.2531 195.107 26.2531C195.012 26.2531 194.917 26.2531 194.822 26.2056C194.727 26.158 194.632 26.1105 194.584 26.0629C194.537 26.0154 194.489 25.9203 194.442 25.8252C194.394 25.7301 194.394 25.635 194.394 25.5399C194.394 25.4448 194.394 25.3496 194.442 25.2545C194.489 25.1594 194.537 25.1119 194.584 25.0168C194.632 24.9692 194.727 24.9217 194.822 24.8741C194.917 24.8741 195.012 24.8266 195.107 24.8266ZM195.107 26.1105C195.202 26.1105 195.25 26.1105 195.345 26.0629C195.393 26.0154 195.488 26.0154 195.535 25.9203C195.583 25.8727 195.63 25.8252 195.678 25.7301C195.725 25.6825 195.725 25.5874 195.725 25.4923C195.725 25.3972 195.725 25.3496 195.678 25.2545C195.63 25.207 195.63 25.1119 195.535 25.0643C195.488 25.0168 195.44 24.9692 195.345 24.9217C195.298 24.8741 195.202 24.8741 195.107 24.8741C195.012 24.8741 194.965 24.8741 194.87 24.9217C194.822 24.9692 194.727 24.9692 194.679 25.0643C194.632 25.1119 194.584 25.1594 194.537 25.2545C194.489 25.3021 194.489 25.3972 194.489 25.4923C194.489 25.5874 194.489 25.635 194.537 25.7301C194.584 25.7776 194.584 25.8727 194.679 25.9203C194.727 25.9678 194.774 26.0154 194.87 26.0629C194.965 26.1105 195.012 26.1105 195.107 26.1105ZM195.155 25.207C195.25 25.207 195.298 25.207 195.345 25.2545C195.393 25.3021 195.393 25.3497 195.393 25.3972C195.393 25.4448 195.393 25.4923 195.345 25.5399C195.298 25.5874 195.25 25.5874 195.202 25.5874L195.44 25.8252H195.25L195.06 25.5874H195.012V25.8252H194.87V25.1594H195.155V25.207ZM194.965 25.3497V25.5399H195.107C195.155 25.5399 195.155 25.5399 195.202 25.5399L195.25 25.4923C195.25 25.4448 195.25 25.4448 195.202 25.4448C195.202 25.4448 195.155 25.4448 195.107 25.4448H194.965V25.3497ZM182.981 20.214C182.981 18.2168 184.313 16.5525 186.453 16.5525C188.498 16.5525 189.877 18.1217 189.877 20.214C189.877 22.3063 188.498 23.8755 186.453 23.8755C184.313 23.828 182.981 22.2112 182.981 20.214ZM99.3367 20.214V14.5077H96.864V15.8867C96.0556 14.8406 94.8668 14.2224 93.25 14.2224C90.064 14.2224 87.5437 16.7427 87.5437 20.214C87.5437 23.6853 90.064 26.2056 93.25 26.2056C94.8668 26.2056 96.0556 25.5399 96.864 24.5413V25.9203H99.3367V20.214ZM90.1115 20.214C90.1115 18.2168 91.443 16.5525 93.5829 16.5525C95.6276 16.5525 97.0067 18.1217 97.0067 20.214C97.0067 22.3063 95.6276 23.8755 93.5829 23.8755C91.443 23.828 90.1115 22.2112 90.1115 20.214ZM26.7242 34.0517C26.8668 34.1469 27.0095 34.2895 27.1521 34.3846C24.4416 36.1916 21.1605 37.2378 17.6892 37.2378C8.22626 37.2378 0.570312 29.5818 0.570312 20.1189C0.570312 10.6559 8.22626 3 17.6892 3C21.2081 3 24.4416 4.04615 27.1521 5.85315C27.0095 5.94825 26.8668 6.09092 26.7242 6.18602C22.6822 9.7049 20.3997 14.7455 20.3997 20.1189C20.3997 25.4448 22.6822 30.5329 26.7242 34.0517ZM38.8025 3C35.2836 3 32.05 4.04615 29.3395 5.85315C29.4822 5.94825 29.6249 6.09092 29.7675 6.18602C33.8095 9.7049 36.092 14.7455 36.092 20.1189C36.092 25.4448 33.7619 30.5329 29.7675 34.0517C29.6249 34.1469 29.4822 34.2895 29.3395 34.3846C32.05 36.1916 35.3311 37.2378 38.8025 37.2378C48.2654 37.2378 55.9214 29.5818 55.9214 20.1189C55.9214 10.6559 48.2654 3 38.8025 3ZM28.2458 6.66155C28.0081 6.85175 27.8179 6.9944 27.5801 7.18461C23.9661 10.3231 21.6836 14.9357 21.6836 20.1189C21.6836 25.2546 23.9661 29.9147 27.5801 33.0532C27.7703 33.2434 28.0081 33.4336 28.2458 33.5762C28.4836 33.386 28.6738 33.2434 28.9116 33.0532C32.5256 29.9147 34.8081 25.3021 34.8081 20.1189C34.8081 14.9832 32.5256 10.3231 28.9116 7.18461C28.6738 7.04195 28.4836 6.85175 28.2458 6.66155Z" fill="#C19857"/>
</svg>
