<svg width="73" height="40" viewBox="0 0 73 40" fill="none" xmlns="http://www.w3.org/2000/svg">
<path fill-rule="evenodd" clip-rule="evenodd" d="M20.7656 21.5891L27.164 0.412598H32.9019L26.4622 21.5891H20.7656Z" fill="#C19857"/>
<path fill-rule="evenodd" clip-rule="evenodd" d="M18.1631 0.454102L13.0031 9.41179C11.6821 11.7647 10.9391 12.9618 10.5676 14.4479H10.5263C10.6089 12.549 10.3612 10.2374 10.3199 8.95771L9.742 0.454102H0.0825644L0 1.03201C2.47678 1.03201 3.96285 2.27041 4.33436 4.82975L6.23323 21.6306H12.1775L24.1899 0.454102H18.1631Z" fill="#C19857"/>
<path fill-rule="evenodd" clip-rule="evenodd" d="M62.7033 21.5893L62.5381 18.452H55.3968L53.952 21.5893H47.7188L58.9881 0.454102H66.6248L68.5237 21.5893H62.7033ZM62.0428 9.12283C61.9602 7.5542 61.9189 5.44894 62.0428 4.16927H61.9602C61.63 5.20126 60.1026 8.37979 59.4422 9.90714L57.2956 14.5305H62.3317L62.0428 9.12283Z" fill="#C19857"/>
<path fill-rule="evenodd" clip-rule="evenodd" d="M38.8853 22.2085C34.8399 22.2085 32.1567 20.9288 30.2578 19.773L32.9823 15.6037C34.716 16.5531 36.037 17.6677 39.1742 17.6677C40.1649 17.6677 41.1556 17.42 41.6923 16.4706C42.4766 15.1084 41.5272 14.3653 39.2568 13.0857L38.1422 12.3839C34.8399 10.1135 33.3951 7.96697 34.9637 4.21052C35.9544 1.8163 38.5963 0 42.9307 0C45.9441 0 48.7511 1.27967 50.361 2.55934L47.2238 6.23323C45.6138 4.95356 44.2929 4.29309 42.7656 4.29309C41.5684 4.29309 40.619 4.74716 40.3301 5.40763C39.7521 6.60474 40.5365 7.38905 42.2702 8.46232L43.5912 9.28792C47.6366 11.8473 48.586 14.4892 47.554 16.9659C45.8615 21.259 42.4353 22.2085 38.8853 22.2085Z" fill="#C19857"/>
<path fill-rule="evenodd" clip-rule="evenodd" d="M5.24219 40.0002C20.0616 33.6431 40.8253 27.9052 68.3588 33.6431L68.6477 26.6668C39.6281 23.4883 18.7819 32.735 5.24219 39.2984V40.0002Z" fill="#C19857"/>
<path fill-rule="evenodd" clip-rule="evenodd" d="M70.0904 3.71519H69.7189V1.40354H70.5857C71.1224 1.40354 71.4113 1.60993 71.4113 2.06401C71.4113 2.4768 71.1637 2.64192 70.8334 2.6832L71.4939 3.67392H71.0811L70.5032 2.6832H70.1317V3.71519H70.0904ZM70.5445 2.39425C70.8334 2.39425 71.0811 2.35297 71.0811 2.02274C71.0811 1.73378 70.7921 1.69249 70.5857 1.69249H70.1317V2.35297H70.5445V2.39425ZM70.5032 4.58207C69.3061 4.58207 68.4805 3.67392 68.4805 2.51808C68.4805 1.27969 69.4299 0.454102 70.5032 0.454102C71.5764 0.454102 72.5259 1.27969 72.5259 2.51808C72.5672 3.75647 71.6177 4.58207 70.5032 4.58207ZM70.5032 0.825622C69.595 0.825622 68.8933 1.52737 68.8933 2.51808C68.8933 3.46752 69.5125 4.21055 70.5032 4.21055C71.37 4.21055 72.0718 3.5088 72.0718 2.51808C72.1131 1.52737 71.4113 0.825622 70.5032 0.825622Z" fill="#C19857"/>
</svg>
