<svg width="100" height="40" viewBox="0 0 100 40" fill="none" xmlns="http://www.w3.org/2000/svg">
<g clip-path="url(#clip0_244_4942)">
<path d="M67.5517 7H59.7647C59.2324 7 58.7792 7.38742 58.6963 7.91309L55.5472 27.8803C55.4849 28.2744 55.789 28.6313 56.1883 28.6313H60.1837C60.556 28.6313 60.8742 28.3601 60.9316 27.9919L61.8251 22.3311C61.9076 21.805 62.3609 21.418 62.8939 21.418H65.3581C70.487 21.418 73.4471 18.9356 74.2209 14.0156C74.5691 11.8643 74.2349 10.1732 73.2273 8.98996C72.12 7.68805 70.1569 7 67.5517 7ZM68.4505 14.2925C68.0249 17.0877 65.8904 17.0877 63.8252 17.0877H62.651L63.4748 11.8689C63.5249 11.5539 63.7968 11.3215 64.116 11.3215H64.6546C66.0601 11.3215 67.3883 11.3215 68.0725 12.1223C68.4816 12.601 68.6055 13.3111 68.4505 14.2925Z" fill="#C19857"/>
<path d="M12.0129 7H4.22594C3.69363 7 3.24041 7.38742 3.15711 7.91309L0.00802664 27.8803C-0.0539192 28.2744 0.25056 28.6313 0.649533 28.6313H4.36768C4.89999 28.6313 5.35321 28.2439 5.43651 27.7179L6.28625 22.3311C6.36919 21.805 6.82241 21.418 7.35473 21.418H9.81891C14.9482 21.418 17.9083 18.9356 18.6821 14.0156C19.0303 11.8643 18.6961 10.1732 17.6888 8.98996C16.5805 7.68805 14.6178 7 12.0129 7ZM12.9113 14.2925C12.4857 17.0877 10.3509 17.0877 8.28637 17.0877H7.11149L7.93534 11.8689C7.98538 11.5539 8.25697 11.3215 8.57649 11.3215H9.11511C10.5206 11.3215 11.8484 11.3215 12.5326 12.1223C12.9421 12.601 13.066 13.3111 12.9113 14.2925Z" fill="#C19857"/>
<path d="M35.2863 14.2032H31.5581C31.2389 14.2032 30.9669 14.4356 30.9169 14.7513L30.7528 15.7939L30.492 15.4166C29.6843 14.2438 27.8847 13.8525 26.0876 13.8525C21.9683 13.8525 18.449 16.9743 17.7641 21.3532C17.4075 23.5371 17.9135 25.6247 19.1521 27.0813C20.2899 28.42 21.9138 28.9771 23.8484 28.9771C27.1686 28.9771 29.0106 26.8437 29.0106 26.8437L28.844 27.8803C28.7813 28.2744 29.0858 28.6313 29.4851 28.6313H32.8432C33.3755 28.6313 33.8283 28.2439 33.9116 27.7182L35.9279 14.9536C35.9894 14.5591 35.6853 14.2032 35.2863 14.2032ZM30.0896 21.461C29.7298 23.5917 28.0383 25.0217 25.8811 25.0217C24.7997 25.0217 23.9338 24.6738 23.3774 24.0155C22.8258 23.3624 22.6183 22.4326 22.7932 21.3966C23.1289 19.2852 24.8476 17.8087 26.972 17.8087C28.0306 17.8087 28.8905 18.16 29.4578 18.8243C30.029 19.4938 30.2533 20.43 30.0896 21.461Z" fill="#C19857"/>
<path d="M90.829 14.2032H87.1008C86.7812 14.2032 86.5093 14.4356 86.4596 14.7513L86.2951 15.7939L86.0347 15.4166C85.2266 14.2438 83.4274 13.8525 81.6303 13.8525C77.5107 13.8525 73.9917 16.9743 73.3072 21.3532C72.9502 23.5371 73.4569 25.6247 74.6952 27.0813C75.8329 28.42 77.4572 28.9771 79.3915 28.9771C82.7117 28.9771 84.5536 26.8437 84.5536 26.8437L84.387 27.8803C84.3244 28.2744 84.6285 28.6313 85.0282 28.6313H88.3862C88.9185 28.6313 89.371 28.2439 89.4547 27.7182L91.4706 14.9536C91.5328 14.5591 91.228 14.2032 90.829 14.2032ZM85.633 21.461C85.2728 23.5917 83.5817 25.0217 81.4245 25.0217C80.3424 25.0217 79.4772 24.6738 78.9204 24.0155C78.3692 23.3624 78.1613 22.4326 78.3363 21.3966C78.6723 19.2852 80.3903 17.8087 82.5147 17.8087C83.573 17.8087 84.4329 18.16 85.0009 18.8243C85.5714 19.4938 85.796 20.43 85.633 21.461Z" fill="#C19857"/>
<path d="M55.1477 14.2031H51.3998C51.0415 14.2031 50.7065 14.3813 50.5046 14.6773L45.3347 22.2918L43.1435 14.9752C43.006 14.5171 42.585 14.2031 42.1073 14.2031H38.4231C37.9782 14.2031 37.6654 14.6406 37.8085 15.062L41.9354 27.1753L38.0538 32.6518C37.749 33.0819 38.0566 33.6765 38.5837 33.6765H42.3274C42.6826 33.6765 43.0148 33.5026 43.2167 33.211L55.6811 15.2223C55.9793 14.7918 55.6709 14.2031 55.1477 14.2031Z" fill="#C19857"/>
<path d="M95.2239 7.5482L92.0276 27.8808C91.9656 28.2748 92.2697 28.6315 92.6687 28.6315H95.8832C96.4156 28.6315 96.8688 28.244 96.9524 27.7184L100.104 7.75119C100.166 7.35712 99.8618 7.00049 99.4624 7.00049H95.8654C95.5455 6.99979 95.2736 7.23252 95.2239 7.5482Z" fill="#C19857"/>
</g>
<defs>
<clipPath id="clip0_244_4942">
<rect width="100" height="40" fill="white"/>
</clipPath>
</defs>
</svg>
