<svg width="590" height="721" viewBox="0 0 590 721" fill="none" xmlns="http://www.w3.org/2000/svg">
<g opacity="0.7">
<path d="M209.701 87.2202C219.436 84.6116 225.214 74.605 222.605 64.8696C219.997 55.1342 209.99 49.3566 200.254 51.9652C190.519 54.5738 184.742 64.5807 187.35 74.3161C189.959 84.0516 199.966 89.8288 209.701 87.2202Z" fill="white"/>
<path d="M224.637 158.006C236.705 154.772 243.866 142.368 240.633 130.3C237.399 118.232 224.995 111.071 212.927 114.304C200.859 117.538 193.698 129.942 196.931 142.01C200.165 154.078 212.569 161.24 224.637 158.006Z" fill="white"/>
<path d="M281.715 236.587C298.702 232.036 308.782 214.576 304.23 197.59C299.679 180.603 282.219 170.523 265.233 175.074C248.247 179.626 238.166 197.086 242.718 214.072C247.269 231.058 264.729 241.139 281.715 236.587Z" fill="white"/>
<path d="M367.971 674.582C384.957 670.031 395.038 652.571 390.486 635.584C385.935 618.598 368.475 608.518 351.489 613.069C334.503 617.621 324.422 635.08 328.974 652.067C333.525 669.053 350.985 679.133 367.971 674.582Z" fill="white"/>
<path d="M249.014 114.576C254.135 113.203 257.174 107.939 255.802 102.818C254.43 97.6967 249.166 94.6578 244.044 96.03C238.923 97.4022 235.884 102.666 237.256 107.787C238.628 112.909 243.892 115.948 249.014 114.576Z" fill="white"/>
<path d="M244.872 338.565C253.492 336.255 258.608 327.395 256.298 318.775C253.988 310.155 245.128 305.039 236.508 307.349C227.888 309.659 222.773 318.519 225.082 327.139C227.392 335.759 236.252 340.874 244.872 338.565Z" fill="white"/>
<path d="M416.078 588.98C421.199 587.608 424.238 582.344 422.866 577.223C421.494 572.101 416.23 569.062 411.109 570.434C405.988 571.807 402.948 577.071 404.321 582.192C405.693 587.313 410.957 590.352 416.078 588.98Z" fill="white"/>
<path d="M347.45 289.822C344.292 270.692 328.509 256.225 309.328 257.724C291.023 259.184 276.507 274.784 276.633 293.25C276.713 303.462 280.991 312.451 287.74 318.909C290.504 321.514 293.11 324.26 295.054 327.478C298.68 333.296 301.259 339.985 301.935 347.282C302.096 348.617 302.098 350.092 302.142 351.36C302.138 363.464 297.7 373.707 287.854 383.233C271.476 399.233 266.542 425.254 281.472 447.92C289.801 460.645 303.943 469.353 319.153 470.296C356.332 472.437 381.366 440.637 372.674 406.36C368.035 388.316 352.502 377.719 352.502 377.719C341.589 370.409 333.792 357.836 332.827 344.319C331.857 331.885 334.653 325.428 338.209 318.867C340.554 314.4 341.71 313.205 343.323 310.411C345.474 306.686 349.01 298.949 347.45 289.822Z" fill="white"/>
<path d="M331.219 590.659C355.101 584.26 369.274 559.712 362.875 535.83C356.475 511.947 331.927 497.775 308.045 504.174C284.163 510.573 269.99 535.121 276.39 559.003C282.789 582.885 307.337 597.058 331.219 590.659Z" fill="white"/>
</g>
</svg>
