<svg width="25" height="25" viewBox="0 0 25 25" fill="none" xmlns="http://www.w3.org/2000/svg">
<g clip-path="url(#clip0_109_3401)">
<path d="M12.5 0C5.6075 0 0 5.6075 0 12.5C0 19.3925 5.6075 25 12.5 25C19.3925 25 25 19.3925 25 12.5C25 5.6075 19.3925 0 12.5 0ZM12.5 22.5C6.98625 22.5 2.5 18.0138 2.5 12.5C2.5 6.98625 6.98625 2.5 12.5 2.5C18.0138 2.5 22.5 6.98625 22.5 12.5C22.5 18.0138 18.0138 22.5 12.5 22.5Z" fill="#63A1C6"/>
<path d="M12.5 6.25C10.4325 6.25 8.75 7.9325 8.75 10C8.75 10.69 9.31 11.25 10 11.25C10.69 11.25 11.25 10.69 11.25 10C11.25 9.31125 11.8112 8.75 12.5 8.75C13.1887 8.75 13.75 9.31125 13.75 10C13.75 10.5212 13.5963 10.6675 12.8788 11.12C12.3713 11.44 11.7412 11.8375 11.3787 12.5725C11.1225 13.0925 11.2075 13.7075 11.2812 14.0287C11.4112 14.6 11.91 14.955 12.47 14.955C12.57 14.955 12.6713 14.9438 12.7725 14.9213C13.385 14.7812 13.7825 14.1737 13.735 13.56C13.8612 13.4562 14.0625 13.33 14.2112 13.2362C14.9738 12.755 16.25 11.95 16.25 10C16.25 7.9325 14.5675 6.25 12.5 6.25Z" fill="#63A1C6"/>
<path d="M12.5 18.75C13.1904 18.75 13.75 18.1904 13.75 17.5C13.75 16.8096 13.1904 16.25 12.5 16.25C11.8096 16.25 11.25 16.8096 11.25 17.5C11.25 18.1904 11.8096 18.75 12.5 18.75Z" fill="#63A1C6"/>
</g>
<defs>
<clipPath id="clip0_109_3401">
<rect width="25" height="25" fill="white"/>
</clipPath>
</defs>
</svg>
