<svg width="17" height="17" viewBox="0 0 17 17" fill="none" xmlns="http://www.w3.org/2000/svg">
<path d="M8.49981 3.6543C6.75956 3.6543 5.34375 5.07011 5.34375 6.81035C5.34375 8.5506 6.75956 9.96641 8.49981 9.96641C10.24 9.96641 11.6559 8.5506 11.6559 6.81035C11.6559 5.07011 10.2401 3.6543 8.49981 3.6543ZM8.49981 8.63755C7.49229 8.63755 6.67261 7.81787 6.67261 6.81035C6.67261 5.80284 7.49229 4.98315 8.49981 4.98315C9.50732 4.98315 10.327 5.80284 10.327 6.81035C10.327 7.81787 9.50732 8.63755 8.49981 8.63755Z" fill="white"/>
<path d="M8.49991 0C4.74461 0 1.68945 3.05519 1.68945 6.81046V6.99872C1.68945 8.89794 2.77832 11.1111 4.92589 13.5767C6.48272 15.3641 8.0178 16.6104 8.08235 16.6626L8.49991 17L8.91747 16.6626C8.98205 16.6104 10.5171 15.3641 12.0739 13.5767C14.2215 11.1111 15.3104 8.89797 15.3104 6.99875V6.81049C15.3104 3.05519 12.2552 0 8.49991 0ZM13.9815 6.99875C13.9815 10.2083 9.84603 14.0936 8.49991 15.273C7.15343 14.0932 3.01831 10.2081 3.01831 6.99875V6.81049C3.01831 3.78795 5.47737 1.32889 8.49991 1.32889C11.5225 1.32889 13.9815 3.78795 13.9815 6.81049V6.99875Z" fill="white"/>
</svg>
