<svg width="41" height="40" viewBox="0 0 41 40" fill="none" xmlns="http://www.w3.org/2000/svg">
<g clip-path="url(#clip0_169_4389)">
<path fill-rule="evenodd" clip-rule="evenodd" d="M10.7793 3.89168C10.7793 2.36256 12.0237 1.11816 13.5527 1.11816H27.1152C28.6443 1.11816 29.8887 2.36256 29.8887 3.89168V7.8666H35.8264C38.1738 7.8666 40.084 9.77678 40.084 12.1242V34.6236C40.084 36.971 38.1738 38.8811 35.8264 38.8811H4.84156C2.49416 38.8811 0.583984 36.971 0.583984 34.6236V12.1242C0.583984 9.77678 2.49416 7.8666 4.84156 7.8666H10.7793V3.89168ZM13.5527 3.11816C13.1309 3.11816 12.7793 3.46991 12.7793 3.89168V7.8666H27.8887V3.89168C27.8887 3.4698 27.5371 3.11816 27.1152 3.11816H13.5527ZM4.84156 9.8666C3.59645 9.8666 2.58398 10.8792 2.58398 12.1242V34.6236C2.58398 35.8686 3.59645 36.8811 4.84156 36.8811H35.8264C37.0715 36.8811 38.084 35.8686 38.084 34.6236V12.1242C38.084 10.8791 37.0714 9.8666 35.8264 9.8666H4.84156ZM16.3751 15.5614C16.3751 15.0091 16.8228 14.5614 17.3751 14.5614H23.293C23.8452 14.5614 24.293 15.0091 24.293 15.5614V19.4149H28.1465C28.6987 19.4149 29.1465 19.8626 29.1465 20.4149V26.3328C29.1465 26.885 28.6987 27.3328 28.1465 27.3328H24.2929V31.1863C24.2929 31.7385 23.8451 32.1863 23.2929 32.1863H17.375C16.8228 32.1863 16.375 31.7385 16.375 31.1863V27.3328H12.5215C11.9692 27.3328 11.5215 26.885 11.5215 26.3328V20.4149C11.5215 19.8626 11.9692 19.4149 12.5215 19.4149H16.3751V15.5614ZM22.2929 16.5614H18.375V20.4149C18.375 20.9671 17.9272 21.4149 17.375 21.4149H13.5215V25.3328H17.3751C17.9273 25.3328 18.3751 25.7805 18.3751 26.3328V30.1863H22.293V26.3328C22.293 25.7805 22.7407 25.3328 23.293 25.3328H27.1465V21.4149H23.2929C22.7406 21.4149 22.2929 20.9671 22.2929 20.4149V16.5614Z" fill="white"/>
</g>
<defs>
<clipPath id="clip0_169_4389">
<rect width="40" height="40" fill="white" transform="translate(0.333984)"/>
</clipPath>
</defs>
</svg>
