<svg width="41" height="40" viewBox="0 0 41 40" fill="none" xmlns="http://www.w3.org/2000/svg">
<g clip-path="url(#clip0_169_4420)">
<path d="M14.3362 4.34709L14.3362 4.34709L17.8745 3.35296L19.8665 0.331287C20.044 0.0620483 20.3449 -0.1 20.6674 -0.1C20.9899 -0.1 21.2908 0.0620541 21.4684 0.331361L21.4684 0.331365L23.4605 3.35304L26.9987 4.34716L26.9987 4.34717L14.3362 4.34709ZM14.3362 4.34709C14.0242 4.43483 13.7774 4.67414 13.6804 4.9835C13.5833 5.29284 13.649 5.6302 13.8551 5.88051L14.3362 4.34709ZM24.9791 13.1883L24.9208 13.107L17.2692 13.3L17.2692 13.3L20.6674 11.9493L24.0656 13.3002L24.0656 13.3002C24.3694 13.4209 24.7136 13.3787 24.9791 13.1883C24.9791 13.1883 24.9791 13.1883 24.9791 13.1883ZM17.9503 10.9646L18.0836 8.3933L17.9837 8.38812L18.0836 8.39329C18.096 8.15407 18.0185 7.91885 17.8662 7.73387L17.8662 7.73386L16.2712 5.79652L18.738 5.10339C18.738 5.10339 18.738 5.10338 18.738 5.10338C18.9601 5.04101 19.1524 4.90058 19.2794 4.70785L19.1959 4.65281L19.2794 4.70785L20.6674 2.6024L22.0553 4.708L22.0553 4.70803C22.1824 4.90068 22.3746 5.04109 22.5968 5.10354L22.6239 5.00727L22.5968 5.10354L25.0635 5.7966L23.4686 7.73386L23.4686 7.73387C23.3163 7.91885 23.2388 8.15407 23.2511 8.39329L23.3844 10.9646L21.0218 10.0254L20.9848 10.1184L21.0218 10.0254C20.7942 9.93499 20.5407 9.93499 20.3131 10.0254L20.3131 10.0254L17.9503 10.9646Z" fill="#63A1C6" stroke="#63A1C6" stroke-width="0.2"/>
<path d="M15.3981 20.2651L15.398 20.2651V20.2692C15.398 23.1381 17.7319 25.472 20.6008 25.472C23.4697 25.472 25.8035 23.1382 25.8035 20.2692H25.8036L25.8034 20.2651C25.5189 13.3699 15.6837 13.3677 15.3981 20.2651ZM23.8848 20.2673C23.703 24.6247 17.4992 24.6259 17.3168 20.2672C17.3179 18.4575 18.7908 16.9853 20.6008 16.9853C22.4108 16.9853 23.8837 18.4575 23.8848 20.2673Z" fill="#63A1C6" stroke="#63A1C6" stroke-width="0.2"/>
<path d="M13.2818 30.4778L13.2237 30.5592L13.2818 30.4778C9.93685 28.0905 7.93984 24.2152 7.93984 20.1117V17.7156C7.93984 16.8735 8.62466 16.1883 9.46617 16.1883C10.3083 16.1883 10.9935 16.8735 10.9935 17.7156V20.157C10.9935 25.4905 15.333 29.8295 20.6671 29.8295C26.0005 29.8295 30.3395 25.4905 30.3395 20.157V17.7156C30.3395 16.8735 31.0244 16.1883 31.867 16.1883C32.7084 16.1883 33.3932 16.8735 33.3932 17.7156V19.9639C33.3932 24.17 31.3454 28.1237 27.9157 30.5399L27.9733 30.6217L27.9157 30.5399C27.6606 30.7197 27.5088 31.0122 27.5088 31.3242V38.1812H13.6838V31.2587C13.6838 30.9486 13.5341 30.6579 13.2818 30.4778ZM12.7245 40.0999H28.4682C28.998 40.0999 29.4276 39.6704 29.4276 39.1406V31.8114C33.1216 29.0158 35.312 24.6247 35.312 19.964V17.7157C35.312 15.8155 33.7666 14.2696 31.8659 14.2696C29.9662 14.2696 28.4208 15.8154 28.4208 17.7157V20.157C28.4208 24.4324 24.9424 27.9108 20.6671 27.9108C16.3912 27.9108 12.9123 24.4324 12.9123 20.157V17.7157C12.9123 15.8155 11.3665 14.2696 9.46617 14.2696C7.56646 14.2696 6.02109 15.8154 6.02109 17.7157V20.1117C6.02109 24.6673 8.15909 28.9776 11.7651 31.7422V39.1406C11.7651 39.6704 12.1946 40.0999 12.7245 40.0999Z" fill="#63A1C6" stroke="#63A1C6" stroke-width="0.2"/>
<path d="M12.2015 11.5046C13.0454 11.5098 13.485 10.4679 12.8801 9.86673C12.8801 9.86668 12.88 9.86663 12.88 9.86659L8.32108 5.30768L8.32113 5.30762L8.31818 5.3049C7.38322 4.44223 6.10225 5.73267 6.96157 6.66161L6.96151 6.66166L6.96426 6.66441L11.5235 11.2236C11.7107 11.4109 11.9563 11.5046 12.2015 11.5046ZM12.2015 11.5046C12.2014 11.5046 12.2013 11.5046 12.2012 11.5046L12.2019 11.4046V11.5046C12.2017 11.5046 12.2016 11.5046 12.2015 11.5046Z" fill="#63A1C6" stroke="#63A1C6" stroke-width="0.2"/>
<path d="M29.416 11.5044C29.6613 11.5043 29.9068 11.4106 30.0941 11.2234L30.0941 11.2233L34.6533 6.66421C35.0279 6.28953 35.0279 5.68215 34.6533 5.30747L34.6532 5.30746C34.2785 4.9328 33.6712 4.9328 33.2965 5.30746L33.2964 5.30747L28.7375 9.86641C28.7375 9.86645 28.7374 9.86649 28.7374 9.86652C28.1313 10.4694 28.5736 11.509 29.416 11.5044ZM29.416 11.5044C29.4159 11.5044 29.4158 11.5044 29.4157 11.5044V11.4044L29.4162 11.5044C29.4162 11.5044 29.4161 11.5044 29.416 11.5044Z" fill="#63A1C6" stroke="#63A1C6" stroke-width="0.2"/>
</g>
<defs>
<clipPath id="clip0_169_4420">
<rect width="40" height="40" fill="white" transform="translate(0.666016)"/>
</clipPath>
</defs>
</svg>
