<svg width="17" height="17" viewBox="0 0 17 17" fill="none" xmlns="http://www.w3.org/2000/svg">
<g clip-path="url(#clip0_117_6263)">
<path d="M16.3929 4.32435e-08C16.2986 -3.5531e-05 16.2056 0.0218782 16.1212 0.0640337L11.5204 2.36508L6.31784 0.0525076C6.30934 0.048879 6.29963 0.0482387 6.29052 0.0446101C6.26711 0.0358589 6.24317 0.0285661 6.21887 0.0227675C6.19472 0.0162575 6.17017 0.0111704 6.14541 0.00757735C6.09611 0.00352189 6.04655 0.00352189 5.99728 0.00757735C5.97252 0.0111704 5.94798 0.0162575 5.92382 0.0227675C5.89952 0.0285661 5.87558 0.0358589 5.85217 0.0446101C5.84307 0.0482387 5.83336 0.0488435 5.82485 0.0525076L0.360652 2.48105C0.141301 2.57846 -3.55675e-05 2.79596 6.71393e-09 3.03594V16.3929C0.000106729 16.5983 0.104019 16.7897 0.276234 16.9017C0.448484 17.0138 0.665736 17.0312 0.853604 16.9478L6.07131 14.6286L11.289 16.9478C11.2981 16.9514 11.3078 16.9478 11.3169 16.9533C11.4639 17.019 11.6327 17.0153 11.7765 16.943C11.7862 16.9387 11.7972 16.943 11.8069 16.9363L16.6639 14.5077C16.8698 14.4049 16.9998 14.1945 16.9997 13.9643V0.60743C16.9999 0.272107 16.7282 0.00014234 16.3929 4.32435e-08ZM5.4642 13.5697L1.21426 15.4585V3.4306L5.4642 1.54179V13.5697ZM10.9284 15.4585L6.67846 13.5697V1.54179L10.9284 3.43057V15.4585ZM15.7855 13.5891L12.1427 15.4105V3.41114L15.7855 1.58974V13.5891Z" fill="white"/>
</g>
<defs>
<clipPath id="clip0_117_6263">
<rect width="17" height="17" fill="white"/>
</clipPath>
</defs>
</svg>
