<svg width="18" height="19" viewBox="0 0 18 19" fill="none" xmlns="http://www.w3.org/2000/svg">
<path d="M9.001 6.82129C7.483 6.82129 6.25 8.05429 6.25 9.57229C6.25 11.0903 7.483 12.3263 9.001 12.3263C10.519 12.3263 11.755 11.0903 11.755 9.57229C11.755 8.05429 10.519 6.82129 9.001 6.82129Z" fill="#19181C"/>
<path d="M13.152 2.07129H4.848C3.003 2.07129 1.5 3.57429 1.5 5.41929V13.7233C1.5 15.5713 3.003 17.0713 4.848 17.0713H13.152C15 17.0713 16.5 15.5713 16.5 13.7233V5.41929C16.5 3.57429 15 2.07129 13.152 2.07129ZM9 14.4313C6.321 14.4313 4.14 12.2503 4.14 9.57129C4.14 6.89229 6.321 4.71429 9 4.71429C11.679 4.71429 13.86 6.89229 13.86 9.57129C13.86 12.2503 11.679 14.4313 9 14.4313ZM13.962 5.59629C13.395 5.59629 12.933 5.13729 12.933 4.57029C12.933 4.00329 13.395 3.54129 13.962 3.54129C14.529 3.54129 14.991 4.00329 14.991 4.57029C14.991 5.13729 14.529 5.59629 13.962 5.59629Z" fill="#19181C"/>
</svg>
