<svg width="15" height="15" viewBox="0 0 15 15" fill="none" xmlns="http://www.w3.org/2000/svg">
<g clip-path="url(#clip0_189_8372)">
<path fill-rule="evenodd" clip-rule="evenodd" d="M0.320513 13.2296C-0.0799997 13.6302 -0.079938 14.2796 0.320636 14.6801C0.721211 15.0806 1.37061 15.0806 1.77111 14.68L7.49956 8.95053L13.2285 14.6795C13.629 15.08 14.2784 15.08 14.6789 14.6795C15.0795 14.2789 15.0795 13.6295 14.6789 13.229L8.94992 7.49997L14.6785 1.77035C15.0789 1.36977 15.0789 0.72038 14.6783 0.319878C14.2778 -0.0806352 13.6284 -0.080574 13.2279 0.32L7.49935 6.04951L1.77041 0.320493C1.36988 -0.0800405 0.720472 -0.0800405 0.319939 0.320493C-0.0806046 0.721036 -0.0806046 1.37043 0.319939 1.77097L6.0491 7.50007L0.320513 13.2296Z" fill="black"/>
</g>
<defs>
<clipPath id="clip0_189_8372">
<rect width="15" height="15" fill="white"/>
</clipPath>
</defs>
</svg>
