<svg width="18" height="19" viewBox="0 0 18 19" fill="none" xmlns="http://www.w3.org/2000/svg">
<path d="M5.19053 16.4605C6.32157 17.0871 7.62063 17.4463 9.00384 17.4463C13.3521 17.4463 16.8751 13.9157 16.8751 9.56744C16.8751 5.21919 13.3521 1.69629 9.00384 1.69629C4.65559 1.69629 1.125 5.21919 1.125 9.56744C1.125 10.9659 1.49184 12.265 2.12609 13.4037L1.125 17.4463L5.19053 16.4605ZM5.62613 6.09038C5.8095 5.91459 6.07701 5.84583 6.32157 5.89935L6.5737 5.95284C6.8259 6.00629 7.03225 6.17445 7.1316 6.40369L7.62829 7.50414C7.75058 7.77159 7.70475 8.09256 7.50603 8.31417L7.20033 8.67336C7.10101 8.78796 7.07811 8.9637 7.1545 9.10131C8.05624 10.7214 9.24073 11.2487 9.76801 11.4091C9.92086 11.4626 10.0967 11.3939 10.1807 11.2563L10.4023 10.9124C10.6163 10.5838 11.0366 10.4692 11.5027 10.6984L12.4198 11.157C12.7713 11.3251 12.9318 11.7377 12.8019 12.1046C12.3358 13.4571 11.1436 13.2891 11.1436 13.2891C8.4995 13.2203 6.4285 10.7825 5.53443 9.52926C5.12175 8.9408 4.86958 8.23013 4.94597 7.50414C5.02243 6.78577 5.35868 6.33492 5.62613 6.09038Z" fill="#19181C"/>
</svg>
