<svg width="19" height="18" viewBox="0 0 19 18" fill="none" xmlns="http://www.w3.org/2000/svg">
<path d="M9.66602 0.75C8.03432 0.75 6.43927 1.23385 5.08256 2.14038C3.72586 3.0469 2.66844 4.33537 2.04401 5.84286C1.41959 7.35035 1.25621 9.00915 1.57454 10.6095C1.89287 12.2098 2.67861 13.6798 3.83239 14.8336C4.98617 15.9874 6.45618 16.7732 8.05652 17.0915C9.65687 17.4098 11.3157 17.2464 12.8232 16.622C14.3306 15.9976 15.6191 14.9402 16.5256 13.5835C17.4322 12.2268 17.916 10.6317 17.916 9C17.9134 6.81276 17.0434 4.71584 15.4968 3.16922C13.9502 1.6226 11.8533 0.75258 9.66602 0.75ZM9.66602 15.75C8.331 15.75 7.02595 15.3541 5.91592 14.6124C4.80589 13.8707 3.94072 12.8165 3.42983 11.5831C2.91894 10.3497 2.78527 8.99251 3.04572 7.68314C3.30617 6.37377 3.94904 5.17103 4.89305 4.22703C5.83705 3.28302 7.03979 2.64015 8.34916 2.3797C9.65853 2.11925 11.0157 2.25292 12.2491 2.76381C13.4825 3.2747 14.5367 4.13987 15.2784 5.2499C16.0201 6.35993 16.416 7.66498 16.416 9C16.4138 10.7895 15.702 12.5052 14.4366 13.7706C13.1712 15.036 11.4556 15.7478 9.66602 15.75Z" fill="white"/>
<path d="M10.416 8.6895V4.5C10.416 4.30109 10.337 4.11032 10.1963 3.96967C10.0557 3.82902 9.86493 3.75 9.66602 3.75C9.4671 3.75 9.27634 3.82902 9.13569 3.96967C8.99503 4.11032 8.91602 4.30109 8.91602 4.5V9C8.91606 9.1989 8.9951 9.38963 9.13577 9.53025L11.3858 11.7802C11.5272 11.9169 11.7167 11.9925 11.9133 11.9908C12.11 11.989 12.2981 11.9102 12.4371 11.7711C12.5762 11.6321 12.6551 11.4439 12.6568 11.2473C12.6585 11.0507 12.5829 10.8612 12.4463 10.7198L10.416 8.6895Z" fill="white"/>
</svg>
