<svg width="17" height="18" viewBox="0 0 17 18" fill="none" xmlns="http://www.w3.org/2000/svg">
<g clip-path="url(#clip0_117_6239)">
<path d="M11.7656 17C11.3724 16.9988 10.9834 16.9191 10.6214 16.7654C5.95032 14.7656 2.22947 11.0427 0.232155 6.37047C0.00632913 5.84466 -0.0565977 5.26321 0.051508 4.70126C0.159614 4.13931 0.433782 3.62271 0.838576 3.21822L2.55486 1.50193C2.87667 1.18053 3.31289 1 3.7677 1C4.22252 1 4.65874 1.18053 4.98055 1.50193L7.00004 3.52143C7.32145 3.84324 7.50198 4.27946 7.50198 4.73427C7.50198 5.18909 7.32145 5.62531 7.00004 5.94712L6.06753 6.89107C6.42827 7.80662 6.97351 8.63815 7.66933 9.33398C8.36516 10.0298 9.1967 10.575 10.1122 10.9358L11.0734 9.98039C11.3952 9.65898 11.8314 9.47845 12.2862 9.47845C12.741 9.47845 13.1772 9.65898 13.499 9.98039L15.5185 11.9999C15.8399 12.3217 16.0205 12.7579 16.0205 13.2127C16.0205 13.6675 15.8399 14.1038 15.5185 14.4256L13.8023 16.1419C13.5367 16.4128 13.2198 16.6282 12.8702 16.7756C12.5205 16.9229 12.145 16.9992 11.7656 17ZM3.79059 2.12552C3.7153 2.12508 3.64066 2.13951 3.57096 2.16798C3.50125 2.19645 3.43786 2.2384 3.3844 2.29143L1.66811 4.00771C1.42439 4.25034 1.25917 4.56059 1.19389 4.89823C1.1286 5.23588 1.16626 5.58536 1.30197 5.90135C3.17436 10.3132 6.67951 13.8307 11.0848 15.7185C11.4008 15.8542 11.7503 15.8919 12.0879 15.8266C12.4256 15.7613 12.7358 15.5961 12.9784 15.3524L14.6947 13.6361C14.7483 13.5829 14.7909 13.5196 14.82 13.4499C14.849 13.3802 14.864 13.3054 14.864 13.2299C14.864 13.1544 14.849 13.0796 14.82 13.0099C14.7909 12.9402 14.7483 12.8769 14.6947 12.8237L12.6695 10.8042C12.5623 10.6977 12.4173 10.6378 12.2662 10.6378C12.115 10.6378 11.97 10.6977 11.8629 10.8042L10.65 12.017C10.576 12.0896 10.4837 12.1407 10.383 12.1649C10.2822 12.1891 10.1768 12.1854 10.0779 12.1544C8.86293 11.7494 7.75892 11.067 6.85332 10.1614C5.94772 9.25584 5.2654 8.15183 4.86041 6.93684C4.82934 6.83799 4.8257 6.73255 4.84988 6.63179C4.87406 6.53103 4.92516 6.43873 4.99771 6.36474L6.21055 5.1519C6.26358 5.09845 6.30552 5.03505 6.33399 4.96535C6.36246 4.89564 6.3769 4.82101 6.37646 4.74571C6.37583 4.59563 6.31624 4.45181 6.21055 4.34525L4.19678 2.29143C4.14332 2.2384 4.07992 2.19645 4.01022 2.16798C3.94052 2.13951 3.86588 2.12508 3.79059 2.12552Z" fill="white" stroke="white" stroke-width="0.2"/>
</g>
<defs>
<clipPath id="clip0_117_6239">
<rect width="17" height="17" fill="white" transform="translate(0 0.5)"/>
</clipPath>
</defs>
</svg>
