<svg width="17" height="18" viewBox="0 0 17 18" fill="none" xmlns="http://www.w3.org/2000/svg">
<path d="M14.0909 15.3636H3.90909C3.1378 15.3628 2.39834 15.0561 1.85296 14.5107C1.30758 13.9653 1.00082 13.2258 1 12.4545V5.90909C1.00082 5.1378 1.30758 4.39834 1.85296 3.85296C2.39834 3.30758 3.1378 3.00082 3.90909 3H14.0909C14.8622 3.00082 15.6017 3.30758 16.147 3.85296C16.6924 4.39834 16.9992 5.1378 17 5.90909V12.4545C16.9992 13.2258 16.6924 13.9653 16.147 14.5107C15.6017 15.0561 14.8622 15.3628 14.0909 15.3636ZM3.90909 4.45455C3.52346 4.45499 3.15374 4.60837 2.88106 4.88106C2.60837 5.15374 2.45499 5.52346 2.45455 5.90909V12.4545C2.45499 12.8402 2.60837 13.2099 2.88106 13.4826C3.15374 13.7553 3.52346 13.9087 3.90909 13.9091H14.0909C14.4765 13.9087 14.8463 13.7553 15.1189 13.4826C15.3916 13.2099 15.545 12.8402 15.5455 12.4545V5.90909C15.545 5.52346 15.3916 5.15374 15.1189 4.88106C14.8463 4.60837 14.4765 4.45499 14.0909 4.45455H3.90909Z" fill="white"/>
<path d="M9.00154 10.2242C8.1926 10.2245 7.40672 9.95471 6.76859 9.45755L2.00931 5.75585C1.85702 5.63737 1.75803 5.46324 1.73412 5.27178C1.71022 5.08031 1.76335 4.88719 1.88183 4.7349C2.00031 4.58261 2.17444 4.48362 2.3659 4.45971C2.55737 4.4358 2.75049 4.48893 2.90278 4.60741L7.66201 8.30912C8.04474 8.60754 8.51617 8.76961 9.0015 8.76961C9.48683 8.76961 9.95826 8.60754 10.341 8.30912L15.1002 4.60741C15.2525 4.48893 15.4456 4.4358 15.6371 4.45971C15.8286 4.48362 16.0027 4.58261 16.1212 4.7349C16.2397 4.88719 16.2928 5.08031 16.2689 5.27178C16.245 5.46324 16.146 5.63737 15.9937 5.75585L11.2344 9.45755C10.5962 9.95454 9.81042 10.2244 9.00154 10.2242Z" fill="white"/>
</svg>
