<svg width="18" height="19" viewBox="0 0 18 19" fill="none" xmlns="http://www.w3.org/2000/svg">
<path d="M16.2005 16.7728V11.4988C16.2005 8.90676 15.6425 6.92676 12.6185 6.92676C11.1605 6.92676 10.1885 7.71876 9.79253 8.47476H9.75653V7.16076H6.89453V16.7728H9.88253V12.0028C9.88253 10.7428 10.1165 9.53676 11.6645 9.53676C13.1945 9.53676 13.2125 10.9588 13.2125 12.0748V16.7548H16.2005V16.7728Z" fill="#19181C"/>
<path d="M2.03516 7.15918H5.02316V16.7712H2.03516V7.15918Z" fill="#19181C"/>
<path d="M3.52878 2.37207C2.57478 2.37207 1.80078 3.14607 1.80078 4.10007C1.80078 5.05407 2.57478 5.84607 3.52878 5.84607C4.48278 5.84607 5.25678 5.05407 5.25678 4.10007C5.25678 3.14607 4.48278 2.37207 3.52878 2.37207Z" fill="#19181C"/>
</svg>
