<svg width="40" height="40" viewBox="0 0 40 40" fill="none" xmlns="http://www.w3.org/2000/svg">
<path d="M11.732 5.26976C9.45027 7.41754 9.41012 11.0106 11.61 13.2105L19.9304 21.5324L20.0011 21.6031L20.0719 21.5324L28.3923 13.212C30.5922 11.0121 30.552 7.41904 28.2703 5.27126C27.2907 4.34822 25.9607 3.78063 24.4953 3.82422C23.0519 3.86716 21.4861 4.50267 20.0012 5.9589C18.5183 4.50409 16.9525 3.86862 15.5087 3.82513C14.0428 3.78098 12.7117 4.34743 11.732 5.26976ZM11.732 5.26976L11.8005 5.34258M11.732 5.26976L11.8005 5.34258M11.8005 5.34258C13.7231 3.53248 17.0214 3.1214 19.9976 6.09608L11.6807 13.1398C9.52057 10.9797 9.56003 7.45156 11.8005 5.34258ZM27.2176 12.0358L27.2883 12.1065L27.2176 12.0358L20.0011 19.2537L12.7847 12.0373C12.7847 12.0373 12.7847 12.0373 12.7847 12.0373C11.2431 10.4942 11.2731 7.98544 12.8717 6.48085L12.8719 6.48069C13.551 5.83846 14.4615 5.48496 15.4368 5.48496C17.2388 5.48496 18.1584 6.42665 19.4098 7.70813C19.5765 7.87885 19.7491 8.0556 19.9304 8.23695L20.0011 8.30766L20.0719 8.23695C20.2567 8.05208 20.4329 7.87103 20.6035 7.69567C21.8193 6.44601 22.7543 5.48496 24.5655 5.48496C25.5408 5.48496 26.4513 5.83845 27.132 6.47936C28.7265 7.98117 28.7634 10.49 27.2176 12.0358Z" fill="#63A1C6" stroke="#63A1C6" stroke-width="0.2"/>
<path d="M22.8238 27.891H22.8238C22.8343 26.4837 23.4349 25.1376 24.471 24.1936C24.4712 24.1935 24.4713 24.1933 24.4715 24.1932L31.8515 17.3231C32.1657 17.0094 32.5654 16.791 33.0008 16.6851L33.9187 7.62064L22.8238 27.891ZM22.8238 27.891V27.8917M22.8238 27.891V27.8917M22.8238 27.8917V36.0777V36.1777M22.8238 27.8917V36.1777M22.8238 36.1777H22.9238M22.8238 36.1777H22.9238M22.9238 36.1777H31.693H31.793M22.9238 36.1777H31.793M31.793 36.1777V36.0777M31.793 36.1777V36.0777M31.793 36.0777V32.2251C31.793 31.6586 32.031 31.1058 32.4648 30.6944L32.4648 30.6944M31.793 36.0777L32.4648 30.6944M32.4648 30.6944L32.467 30.6922M32.4648 30.6944L32.467 30.6922M32.467 30.6922L38.0135 25.0946L38.0135 25.0945M32.467 30.6922L38.0135 25.0945M38.0135 25.0945C38.7145 24.386 39.1006 23.4473 39.1006 22.4519V7.88348C39.1006 6.4515 37.9348 5.28574 36.5028 5.28574C35.164 5.28574 34.0525 6.28909 33.9187 7.62056L38.0135 25.0945ZM25.5979 25.4189L25.597 25.4197C24.8942 26.0586 24.4926 26.96 24.4853 27.9009V34.5162H30.1314V32.2251C30.1314 31.2013 30.5589 30.211 31.3044 29.5053L36.8322 23.9264L25.5979 25.4189ZM25.5979 25.4189L33.0034 18.522L33.0034 18.522M25.5979 25.4189L33.0034 18.522M33.0034 18.522L33.006 18.5195M33.0034 18.522L33.006 18.5195M33.006 18.5195C33.1833 18.3422 33.4255 18.2546 33.6837 18.2809L33.6846 18.2809M33.006 18.5195L33.6846 18.2809M33.6846 18.2809C33.8297 18.2943 34.0338 18.3457 34.2077 18.5195C34.3688 18.6806 34.4575 18.8949 34.4575 19.1211C34.4575 19.348 34.367 19.561 34.234 19.6964L28.5347 24.8654L28.4605 24.9326M33.6846 18.2809L28.4605 24.9326M28.4605 24.9326L28.5278 25.0067M28.4605 24.9326L28.5278 25.0067M28.5278 25.0067L29.51 26.0882L29.5771 26.1622M28.5278 25.0067L29.5771 26.1622M29.5771 26.1622L29.6512 26.095M29.5771 26.1622L29.6512 26.095M29.6512 26.095L35.3789 20.8993L35.379 20.8994M29.6512 26.095L35.379 20.8994M35.379 20.8994L35.3824 20.896M35.379 20.8994L35.3824 20.896M35.3824 20.896C35.8571 20.4213 36.1191 19.7908 36.1191 19.1197C36.1191 18.4488 35.8588 17.8184 35.384 17.345C35.1705 17.1287 34.9244 16.9589 34.6556 16.8371L35.5705 7.78983C35.5705 7.78981 35.5705 7.78979 35.5705 7.78978C35.6194 7.30891 36.0206 6.94726 36.5028 6.94726C37.0191 6.94726 37.439 7.36726 37.439 7.88348V22.4519C37.439 23.0072 37.2244 23.53 36.8322 23.9264L35.3824 20.896Z" fill="#63A1C6" stroke="#63A1C6" stroke-width="0.2"/>
<path d="M4.61809 20.8931L4.61817 20.893C4.14348 20.4184 3.8815 19.7879 3.8815 19.1167C3.8815 18.4457 4.14338 17.8153 4.61651 17.3421C4.83015 17.1271 5.07624 16.9574 5.34499 16.8344L4.43009 7.78696C4.38125 7.30911 3.9801 6.94726 3.49774 6.94726C2.98151 6.94726 2.56152 7.36726 2.56152 7.88348V22.4519C2.56152 23.0072 2.77617 23.53 3.16832 23.9264L4.61809 20.8931ZM4.61809 20.8931L4.62169 20.8964L10.3494 26.0921L10.4234 26.1593L10.4906 26.0853L11.4728 25.0037L11.54 24.9297L11.4659 24.8624L5.76639 19.6933C5.63242 19.5583 5.54303 19.3469 5.54303 19.1182C5.54303 18.8906 5.63174 18.6778 5.79289 18.5166L5.79315 18.5163C5.96535 18.3429 6.17057 18.2914 6.31592 18.278L6.31634 18.278C6.57673 18.253 6.81746 18.3395 6.9946 18.5166L6.99456 18.5167L6.99716 18.5191L14.4027 25.416L14.4036 25.4168C15.1063 26.0557 15.508 26.9571 15.5152 27.8979V34.5162H9.86913V32.2251C9.86913 31.2028 9.44167 30.211 8.69613 29.5053L3.16837 23.9264L4.61809 20.8931ZM7.53358 30.6908L7.53355 30.6908L7.5358 30.6929C7.96953 31.1043 8.20761 31.6585 8.20761 32.2251V36.0777V36.1777H8.30761H17.0767H17.1767V36.0777L17.1767 27.8917L17.1767 27.8911C17.1678 26.4835 16.5656 25.1389 15.5295 24.1936C15.5294 24.1935 15.5293 24.1934 15.5292 24.1933L8.14904 17.3231C7.83502 17.0095 7.43543 16.7897 6.99971 16.6849L6.08183 7.62064C5.94807 6.28913 4.83658 5.28574 3.49774 5.28574C2.06576 5.28574 0.9 6.4515 0.9 7.88348V22.4519C0.9 23.4473 1.286 24.386 1.98711 25.0931C1.98711 25.0931 1.98712 25.0931 1.98713 25.0932L7.53358 30.6908Z" fill="#63A1C6" stroke="#63A1C6" stroke-width="0.2"/>
</svg>
