<svg width="82" height="13" viewBox="0 0 82 13" fill="none" xmlns="http://www.w3.org/2000/svg">
<g clip-path="url(#clip0_109_3252)">
<path d="M12.8399 5.48717L10.032 8.22432L10.6951 12.0902C10.724 12.2593 10.6545 12.4301 10.5157 12.5311C10.4373 12.5883 10.344 12.6172 10.2506 12.6172C10.179 12.6172 10.1068 12.6001 10.041 12.5654L6.5691 10.7401L3.09763 12.5649C2.94616 12.6451 2.76179 12.6321 2.62295 12.5306C2.48411 12.4297 2.41469 12.2588 2.44354 12.0898L3.10664 8.22387L0.298267 5.48717C0.175654 5.36726 0.131027 5.18785 0.184219 5.02512C0.237411 4.86239 0.378506 4.74293 0.548452 4.71814L4.42924 4.15466L6.16475 0.637652C6.31667 0.329767 6.82154 0.329767 6.97346 0.637652L8.70897 4.15466L12.5898 4.71814C12.7597 4.74293 12.9008 4.86194 12.954 5.02512C13.0072 5.1883 12.9626 5.36681 12.8399 5.48717Z" fill="#DDC71E"/>
</g>
<g clip-path="url(#clip1_109_3252)">
<path d="M29.8497 5.48717L27.0418 8.22432L27.7049 12.0902C27.7337 12.2593 27.6643 12.4301 27.5255 12.5311C27.447 12.5883 27.3537 12.6172 27.2604 12.6172C27.1887 12.6172 27.1166 12.6001 27.0508 12.5654L23.5789 10.7401L20.1074 12.5649C19.9559 12.6451 19.7716 12.6321 19.6327 12.5306C19.4939 12.4297 19.4245 12.2588 19.4533 12.0898L20.1164 8.22387L17.308 5.48717C17.1854 5.36726 17.1408 5.18785 17.194 5.02512C17.2472 4.86239 17.3883 4.74293 17.5582 4.71814L21.439 4.15466L23.1745 0.637652C23.3264 0.329767 23.8313 0.329767 23.9832 0.637652L25.7187 4.15466L29.5995 4.71814C29.7695 4.74293 29.9106 4.86194 29.9638 5.02512C30.0169 5.1883 29.9723 5.36681 29.8497 5.48717Z" fill="#DDC71E"/>
</g>
<g clip-path="url(#clip2_109_3252)">
<path d="M46.8634 5.48717L44.0555 8.22432L44.7186 12.0902C44.7474 12.2593 44.678 12.4301 44.5391 12.5311C44.4607 12.5883 44.3674 12.6172 44.2741 12.6172C44.2024 12.6172 44.1303 12.6001 44.0645 12.5654L40.5925 10.7401L37.1211 12.5649C36.9696 12.6451 36.7852 12.6321 36.6464 12.5306C36.5075 12.4297 36.4381 12.2588 36.467 12.0898L37.1301 8.22387L34.3217 5.48717C34.1991 5.36726 34.1545 5.18785 34.2077 5.02512C34.2608 4.86239 34.4019 4.74293 34.5719 4.71814L38.4527 4.15466L40.1882 0.637652C40.3401 0.329767 40.845 0.329767 40.9969 0.637652L42.7324 4.15466L46.6132 4.71814C46.7831 4.74293 46.9242 4.86194 46.9774 5.02512C47.0306 5.1883 46.986 5.36681 46.8634 5.48717Z" fill="#DDC71E"/>
</g>
<g clip-path="url(#clip3_109_3252)">
<path d="M63.8731 5.48717L61.0652 8.22432L61.7283 12.0902C61.7572 12.2593 61.6877 12.4301 61.5489 12.5311C61.4705 12.5883 61.3772 12.6172 61.2838 12.6172C61.2122 12.6172 61.14 12.6001 61.0742 12.5654L57.6023 10.7401L54.1308 12.5649C53.9794 12.6451 53.795 12.6321 53.6562 12.5306C53.5173 12.4297 53.4479 12.2588 53.4767 12.0898L54.1398 8.22387L51.3315 5.48717C51.2089 5.36726 51.1642 5.18785 51.2174 5.02512C51.2706 4.86239 51.4117 4.74293 51.5817 4.71814L55.4624 4.15466L57.198 0.637652C57.3499 0.329767 57.8547 0.329767 58.0067 0.637652L59.7422 4.15466L63.623 4.71814C63.7929 4.74293 63.934 4.86194 63.9872 5.02512C64.0404 5.1883 63.9958 5.36681 63.8731 5.48717Z" fill="#DDC71E"/>
</g>
<g clip-path="url(#clip4_109_3252)">
<path d="M80.8829 5.48717L78.075 8.22432L78.7381 12.0902C78.7669 12.2593 78.6975 12.4301 78.5587 12.5311C78.4802 12.5883 78.3869 12.6172 78.2936 12.6172C78.2219 12.6172 78.1498 12.6001 78.084 12.5654L74.6121 10.7401L71.1406 12.5649C70.9891 12.6451 70.8048 12.6321 70.6659 12.5306C70.5271 12.4297 70.4577 12.2588 70.4865 12.0898L71.1496 8.22387L68.3412 5.48717C68.2186 5.36726 68.174 5.18785 68.2272 5.02512C68.2804 4.86239 68.4215 4.74293 68.5914 4.71814L72.4722 4.15466L74.2077 0.637652C74.3596 0.329767 74.8645 0.329767 75.0164 0.637652L76.7519 4.15466L80.6327 4.71814C80.8027 4.74293 80.9438 4.86194 80.997 5.02512C81.0501 5.1883 81.0055 5.36681 80.8829 5.48717Z" fill="#DDC71E"/>
</g>
<defs>
<clipPath id="clip0_109_3252">
<rect width="12.96" height="12.96" fill="white" transform="translate(0.0917969 0.0200195)"/>
</clipPath>
<clipPath id="clip1_109_3252">
<rect width="12.96" height="12.96" fill="white" transform="translate(17.1016 0.0200195)"/>
</clipPath>
<clipPath id="clip2_109_3252">
<rect width="12.96" height="12.96" fill="white" transform="translate(34.1113 0.0200195)"/>
</clipPath>
<clipPath id="clip3_109_3252">
<rect width="12.96" height="12.96" fill="white" transform="translate(51.1211 0.0200195)"/>
</clipPath>
<clipPath id="clip4_109_3252">
<rect width="12.96" height="12.96" fill="white" transform="translate(68.1309 0.0200195)"/>
</clipPath>
</defs>
</svg>
