<svg width="145" height="64" viewBox="0 0 145 64" fill="none" xmlns="http://www.w3.org/2000/svg">
<path d="M5.67078 3.58765C6.66148 3.58765 7.4646 2.78454 7.4646 1.79384C7.4646 0.803136 6.66148 0 5.67078 0C4.68007 0 3.87695 0.803136 3.87695 1.79384C3.87695 2.78454 4.68007 3.58765 5.67078 3.58765Z" fill="white"/>
<path d="M5.28806 10.6884C6.51612 10.6884 7.51165 9.69287 7.51165 8.46481C7.51165 7.23675 6.51612 6.24121 5.28806 6.24121C4.06 6.24121 3.06445 7.23675 3.06445 8.46481C3.06445 9.69287 4.06 10.6884 5.28806 10.6884Z" fill="white"/>
<path d="M8.70798 19.6015C10.4365 19.6015 11.8378 18.2002 11.8378 16.4717C11.8378 14.7431 10.4365 13.3418 8.70798 13.3418C6.97941 13.3418 5.57812 14.7431 5.57812 16.4717C5.57812 18.2002 6.97941 19.6015 8.70798 19.6015Z" fill="white"/>
<path d="M5.75486 63.3818C7.48343 63.3818 8.88471 61.9805 8.88471 60.2519C8.88471 58.5233 7.48343 57.1221 5.75486 57.1221C4.02629 57.1221 2.625 58.5233 2.625 60.2519C2.625 61.9805 4.02629 63.3818 5.75486 63.3818Z" fill="white"/>
<path d="M8.7073 7.18461C9.22845 7.18461 9.65093 6.76212 9.65093 6.24097C9.65093 5.71982 9.22845 5.29736 8.7073 5.29736C8.18615 5.29736 7.76367 5.71982 7.76367 6.24097C7.76367 6.76212 8.18615 7.18461 8.7073 7.18461Z" fill="white"/>
<path d="M2.61563 28.346C3.49282 28.346 4.20391 27.6349 4.20391 26.7577C4.20391 25.8805 3.49282 25.1694 2.61563 25.1694C1.73845 25.1694 1.02734 25.8805 1.02734 26.7577C1.02734 27.6349 1.73845 28.346 2.61563 28.346Z" fill="white"/>
<path d="M12.5003 56.4776C13.0214 56.4776 13.4439 56.0551 13.4439 55.534C13.4439 55.0128 13.0214 54.5903 12.5003 54.5903C11.9791 54.5903 11.5566 55.0128 11.5566 55.534C11.5566 56.0551 11.9791 56.4776 12.5003 56.4776Z" fill="white"/>
<path d="M13.595 26.3283C13.7819 24.4317 12.6514 22.6566 10.7922 22.3109C9.01705 21.9839 7.2419 23.0957 6.78411 24.8521C6.53185 25.8238 6.70936 26.7861 7.18585 27.5709C7.38205 27.8886 7.55956 28.2156 7.66234 28.5706C7.85854 29.2152 7.93327 29.9159 7.81182 30.626C7.79313 30.7568 7.75576 30.897 7.72774 31.0184C7.41942 32.1676 6.73739 33.0271 5.56019 33.6811C3.5982 34.7836 2.46771 37.1286 3.30856 39.6605C3.77571 41.0807 4.89685 42.2672 6.31696 42.7437C9.7925 43.8928 12.9784 41.5104 13.0251 38.0349C13.0438 36.2037 11.8386 34.8023 11.8386 34.8023C10.9884 33.8306 10.568 32.4385 10.8202 31.1305C11.0444 29.9253 11.4742 29.3834 11.9787 28.8509C12.3151 28.4865 12.4552 28.4024 12.6794 28.1782C12.9784 27.8792 13.511 27.2345 13.595 26.3283Z" fill="white"/>
<path d="M4.40048 54.4782C6.8308 54.4782 8.80096 52.508 8.80096 50.0777C8.80096 47.6474 6.8308 45.6772 4.40048 45.6772C1.97016 45.6772 0 47.6474 0 50.0777C0 52.508 1.97016 54.4782 4.40048 54.4782Z" fill="white"/>
<path d="M25.2434 35.3816L23.2347 41.4264H20.9551L27.0933 24.3477H29.9616L35.8569 41.4264H33.5586L31.5312 35.3816H25.2434ZM30.9613 33.6531L28.4854 26.0294L25.832 33.6531H30.9613Z" fill="white"/>
<path d="M48.3126 41.4264H45.8367L42.3986 36.1571L38.9791 41.4264H36.5312L41.2307 34.793L36.6994 28.3091H39.222L42.5107 33.3822L45.7994 28.3091H48.2472L43.6412 34.7463L48.3126 41.4264Z" fill="white"/>
<path d="M53.4859 25.3568C53.4859 26.1229 52.888 26.7208 52.1219 26.7208C51.3558 26.7208 50.7578 26.1229 50.7578 25.3568C50.7578 24.5906 51.3558 23.9927 52.1219 23.9927C52.8973 24.002 53.4859 24.5906 53.4859 25.3568ZM51.0661 41.4264V28.3091H53.1963V41.4264H51.0661Z" fill="white"/>
<path d="M66.2113 32.0463H63.9877C63.6888 30.514 62.7451 29.5984 61.2129 29.5984C59.7274 29.5984 59.036 30.4112 59.036 31.5511C59.036 32.8591 60.1291 33.3823 61.9043 33.8494C64.922 34.6436 66.3608 35.8301 66.3608 38.0537C66.3608 40.5296 64.2587 41.7628 61.4838 41.7628C58.7838 41.7628 56.7283 40.5202 56.3359 37.5585H58.5689C58.9146 39.4645 60.1291 40.1372 61.6427 40.1372C63.0534 40.1372 64.1933 39.4925 64.1933 38.2312C64.1933 36.97 63.3057 36.2973 61.1008 35.7087C58.7464 35.064 56.8685 34.1017 56.8685 31.794C56.8685 29.3929 58.6997 27.9541 61.3998 27.9541C64.3334 27.9541 65.9404 29.6452 66.2113 32.0463Z" fill="white"/>
<path d="M93.2015 41.4264H91.0713V32.6348C91.0713 30.5046 91.0713 28.1316 91.1181 26.2723C90.5481 28.1316 89.754 30.5327 89.0346 32.6068L86.0169 41.4171H83.3448L80.271 32.5507C79.5796 30.5233 78.7855 28.1409 78.2436 26.3097C78.2903 28.1689 78.2903 30.514 78.2903 32.6255V41.4171H76.1602V24.3384H79.6731L84.7275 39.6139L89.754 24.3384H93.1922V41.4264H93.2015Z" fill="white"/>
<path d="M108.3 35.5125H98.7886C98.9848 38.9787 100.62 40.1372 102.554 40.1372C104.263 40.1372 105.646 39.0721 105.945 37.1942H108.178C107.655 40.3614 105.16 41.7722 102.46 41.7722C99.0408 41.7722 96.4902 39.5486 96.4902 34.9145C96.4902 30.6542 99.1436 27.9541 102.731 27.9541C106.347 27.9541 108.346 30.6542 108.346 34.4941C108.346 34.6903 108.346 35.036 108.3 35.5125ZM98.8166 33.8775H106.197C106.001 31.1587 104.833 29.5984 102.685 29.5984C100.601 29.5891 99.0689 31.0746 98.8166 33.8775Z" fill="white"/>
<path d="M123.26 41.4264H121.13V39.3243L120.139 40.7351C119.392 41.3517 118.009 41.7721 116.673 41.7721C112.833 41.7721 110.703 38.9038 110.703 35.0639C110.703 30.215 113.721 27.954 117.112 27.954C118.205 27.954 119.588 28.2717 120.261 28.8229L121.13 30.1122V23.2266H123.26V41.4264ZM121.13 34.9892V34.2698C121.13 30.8783 119 29.589 117.122 29.589C114.823 29.589 113.039 31.3735 113.039 34.8117C113.039 37.7827 114.375 40.1371 117 40.1371C119.168 40.1371 121.13 38.7544 121.13 34.9892Z" fill="white"/>
<path d="M130.062 25.3568C130.062 26.1229 129.464 26.7208 128.698 26.7208C127.932 26.7208 127.334 26.1229 127.334 25.3568C127.334 24.5906 127.932 23.9927 128.698 23.9927C129.473 24.002 130.062 24.5906 130.062 25.3568ZM127.642 41.4264V28.3091H129.772V41.4264H127.642Z" fill="white"/>
<path d="M144.766 32.7096H142.542C142.075 30.6075 140.935 29.5891 139.179 29.5891C137.124 29.5891 135.395 31.1961 135.395 34.737C135.395 38.5489 137.077 40.1372 139.039 40.1372C140.767 40.1372 141.982 39.1468 142.43 37.2409H144.663C144.019 40.2867 141.842 41.7722 138.917 41.7722C135.601 41.7722 133.078 39.6887 133.078 34.8865C133.078 30.458 135.946 27.9541 139.244 27.9541C142.365 27.9541 144.374 29.8414 144.766 32.7096Z" fill="white"/>
<path d="M35.6322 52.881L33.4273 48.7608C33.4367 49.312 33.446 49.9847 33.446 50.536V52.881H32.8574V48.1909H33.7543L35.9592 52.3111C35.9499 51.7599 35.9406 51.0872 35.9406 50.536V48.1909H36.5105L36.5198 52.881H35.6322Z" fill="white"/>
<path d="M40.7717 51.2645H38.165C38.2211 52.2175 38.6695 52.5352 39.2021 52.5352C39.6692 52.5352 40.0523 52.2456 40.1364 51.7224H40.7437C40.6035 52.5912 39.9121 52.9743 39.1741 52.9743C38.2398 52.9743 37.5391 52.367 37.5391 51.0964C37.5391 49.9285 38.2678 49.1904 39.2488 49.1904C40.2391 49.1904 40.7904 49.9285 40.7904 50.9843C40.7904 51.0403 40.7904 51.1337 40.7717 51.2645ZM38.1744 50.8161H40.2018C40.1457 50.0687 39.8281 49.6389 39.2395 49.6389C38.6602 49.6389 38.2398 50.05 38.1744 50.8161Z" fill="white"/>
<path d="M44.4338 52.8812H43.7518L42.8081 51.4331L41.8739 52.8812H41.2012L42.4905 51.0593L41.2479 49.2842H41.9393L42.8455 50.6763L43.7518 49.2842H44.4245L43.1632 51.05L44.4338 52.8812Z" fill="white"/>
<path d="M45.9831 51.8345C45.9831 51.956 45.9831 52.0214 45.9924 52.1148C46.0204 52.4605 46.1606 52.5353 46.6184 52.4792V52.909C46.4502 52.937 46.282 52.9463 46.1232 52.9463C45.6747 52.9463 45.4412 52.7595 45.4131 52.311C45.4038 52.2176 45.4038 52.0681 45.4038 51.8626V49.7604H44.918V49.312H45.4038V48.4805H45.9924V49.312H46.6651V49.7604H45.9924V51.8345H45.9831Z" fill="white"/>
<path d="M49.9835 51.853C49.9835 51.9651 49.9836 52.0772 49.9929 52.1893C50.0022 52.4229 50.1144 52.4976 50.432 52.4602V52.8807C50.3012 52.8994 50.1517 52.9087 50.0209 52.9087C49.6846 52.9087 49.4323 52.7966 49.4136 52.3481C49.4043 52.2267 49.4043 52.0678 49.4043 51.8716V47.8916H49.9929V51.853H49.9835Z" fill="white"/>
<path d="M54.3186 51.2645H51.7119C51.768 52.2175 52.2164 52.5352 52.749 52.5352C53.2161 52.5352 53.5992 52.2456 53.6832 51.7224H54.2905C54.1504 52.5912 53.459 52.9743 52.7209 52.9743C51.7867 52.9743 51.0859 52.367 51.0859 51.0964C51.0859 49.9285 51.8147 49.1904 52.7957 49.1904C53.786 49.1904 54.3373 49.9285 54.3373 50.9843C54.3373 51.0403 54.3372 51.1337 54.3186 51.2645ZM51.7213 50.8161H53.7486C53.6926 50.0687 53.3749 49.6389 52.7863 49.6389C52.2071 49.6389 51.7867 50.05 51.7213 50.8161Z" fill="white"/>
<path d="M56.9608 52.8812H56.2508L54.8867 49.2842H55.5314L56.6338 52.4607L57.7176 49.2842H58.3342L56.9608 52.8812Z" fill="white"/>
<path d="M62.0354 51.2645H59.4287C59.4848 52.2175 59.9332 52.5352 60.4658 52.5352C60.9329 52.5352 61.316 52.2456 61.4 51.7224H62.0073C61.8672 52.5912 61.1758 52.9743 60.4377 52.9743C59.5034 52.9743 58.8027 52.367 58.8027 51.0964C58.8027 49.9285 59.5315 49.1904 60.5125 49.1904C61.5028 49.1904 62.054 49.9285 62.054 50.9843C62.0447 51.0403 62.0447 51.1337 62.0354 51.2645ZM59.4287 50.8161H61.4561C61.4 50.0687 61.0824 49.6389 60.4938 49.6389C59.9239 49.6389 59.5034 50.05 59.4287 50.8161Z" fill="white"/>
<path d="M63.6515 51.853C63.6515 51.9651 63.6515 52.0772 63.6609 52.1893C63.6702 52.4229 63.7823 52.4976 64.1 52.4602V52.8807C63.9692 52.8994 63.8197 52.9087 63.6889 52.9087C63.3526 52.9087 63.1003 52.7966 63.0816 52.3481C63.0723 52.2267 63.0723 52.0678 63.0723 51.8716V47.8916H63.6609V51.853H63.6515Z" fill="white"/>
<path d="M71.032 50.5449C71.032 51.9744 70.2472 52.9834 68.8178 52.9834C67.3883 52.9834 66.6035 51.9744 66.6035 50.5449C66.6035 49.1155 67.3883 48.1064 68.8178 48.1064C70.2379 48.1064 71.032 49.1061 71.032 50.5449ZM70.378 50.5449C70.378 49.321 69.7988 48.5643 68.8178 48.5643C67.8368 48.5643 67.2575 49.321 67.2575 50.5449C67.2575 51.7595 67.8368 52.5256 68.8178 52.5256C69.7988 52.5256 70.378 51.7595 70.378 50.5449Z" fill="white"/>
<path d="M73.7236 49.2469V49.686C73.1163 49.6486 72.6491 50.0037 72.6491 50.8258V52.8813H72.0605V49.2843H72.6491V49.8449L72.9761 49.359C73.1256 49.2563 73.3125 49.2002 73.4806 49.2002C73.5741 49.2002 73.6582 49.2189 73.7236 49.2469Z" fill="white"/>
<path d="M75.2838 51.8345C75.2838 51.956 75.2838 52.0214 75.2932 52.1148C75.3212 52.4605 75.4613 52.5353 75.9191 52.4792V52.909C75.751 52.937 75.5828 52.9463 75.424 52.9463C74.9755 52.9463 74.7419 52.7595 74.7139 52.311C74.7046 52.2176 74.7046 52.0681 74.7046 51.8626V49.7604H74.2188V49.312H74.7046V48.4805H75.2932V49.312H75.9659V49.7604H75.2932V51.8345H75.2838Z" fill="white"/>
<path d="M80.0204 50.8628V52.8902H79.4318V50.9095C79.4318 50.7227 79.4318 50.5732 79.4224 50.3957C79.3851 49.9752 79.1608 49.6482 78.6003 49.6576C78.0397 49.6669 77.5632 50.078 77.5632 51.3113V52.8902H76.9746V47.8638H77.5632V49.9005L77.7874 49.4894C78.0957 49.2558 78.3573 49.1904 78.7217 49.1904C79.5065 49.1904 79.955 49.6109 80.0017 50.2462C80.0204 50.4237 80.0204 50.5638 80.0204 50.8628Z" fill="white"/>
<path d="M84.5514 51.087C84.5514 52.0961 83.9908 52.9836 82.7669 52.9836C81.543 52.9836 80.9824 52.0961 80.9824 51.087C80.9824 50.0687 81.543 49.1904 82.7669 49.1904C83.9908 49.1904 84.5514 50.0687 84.5514 51.087ZM83.9161 51.087C83.9161 50.2368 83.4956 49.6389 82.7669 49.6389C82.0382 49.6389 81.6177 50.2368 81.6177 51.087C81.6177 51.9279 82.0382 52.5352 82.7669 52.5352C83.4956 52.5352 83.9161 51.9279 83.9161 51.087Z" fill="white"/>
<path d="M90.8476 52.881H90.203C90.0722 52.582 90.0161 52.2831 89.9507 51.7038C89.8947 51.218 89.7172 50.9003 89.25 50.8723C89.1379 50.863 89.0258 50.863 88.9137 50.863H88.0261V52.881H87.4375V48.1909H88.9697C89.2033 48.1909 89.3715 48.1909 89.577 48.2189C90.259 48.303 90.7449 48.6767 90.7449 49.4709C90.7449 50.0875 90.3431 50.4425 89.9134 50.5827C90.2964 50.7602 90.4739 51.19 90.5206 51.6571C90.586 52.2644 90.6608 52.6381 90.8476 52.881ZM88.9324 50.3958C89.1472 50.3958 89.2594 50.3958 89.3902 50.3865C89.8293 50.3491 90.1469 50.0688 90.1469 49.5363C90.1469 49.0131 89.8947 48.7795 89.4649 48.7048C89.3341 48.6861 89.2033 48.6767 88.9978 48.6767H88.0448V50.3958H88.9324Z" fill="white"/>
<path d="M94.697 51.2645H92.0904C92.1465 52.2175 92.5949 52.5352 93.1181 52.5352C93.5852 52.5352 93.9683 52.2456 94.0524 51.7224H94.6597C94.5195 52.5912 93.8282 52.9743 93.0901 52.9743C92.1558 52.9743 91.4551 52.367 91.4551 51.0964C91.4551 49.9285 92.1838 49.1904 93.1648 49.1904C94.1552 49.1904 94.7064 49.9285 94.7064 50.9843C94.7064 51.0403 94.7064 51.1337 94.697 51.2645ZM92.0904 50.8161H94.1178C94.0617 50.0687 93.7441 49.6389 93.1555 49.6389C92.5856 49.6389 92.1558 50.05 92.0904 50.8161Z" fill="white"/>
<path d="M98.7997 50.8628V52.8902H98.2111V50.9095C98.2111 50.7227 98.2111 50.5732 98.2017 50.3957C98.1644 49.9752 97.9401 49.6482 97.3796 49.6576C96.819 49.6669 96.3425 50.078 96.3425 51.3113V52.8902H95.7539V47.8638H96.3425V49.9005L96.5667 49.4894C96.875 49.2558 97.1366 49.1904 97.501 49.1904C98.2858 49.1904 98.7343 49.6109 98.781 50.2462C98.7997 50.4237 98.7997 50.5638 98.7997 50.8628Z" fill="white"/>
<path d="M102.06 52.3671L101.864 52.7501C101.621 52.9183 101.303 52.9743 100.957 52.9743C100.303 52.9743 99.7988 52.61 99.7988 51.9466C99.7988 51.1338 100.406 50.7134 101.826 50.7134H102.06V50.6199C102.06 50.4611 102.06 50.321 102.05 50.1808C102.022 49.8445 101.836 49.6296 101.35 49.6296C100.864 49.6296 100.612 49.8912 100.574 50.3864H99.967C100.023 49.6202 100.556 49.1812 101.35 49.1812C102.209 49.1812 102.564 49.5455 102.63 50.1341C102.639 50.2743 102.648 50.4518 102.648 50.6106V51.9653C102.648 52.2362 102.658 52.4792 102.714 52.8809H102.125L102.06 52.3671ZM102.06 51.5169V51.1525C101.069 51.0777 100.443 51.2926 100.443 51.9092C100.443 52.3484 100.724 52.5352 101.163 52.5352C101.705 52.5352 102.06 52.1709 102.06 51.5169Z" fill="white"/>
<path d="M107.385 51.0307C107.385 52.3668 106.554 52.9834 105.629 52.9834C105.33 52.9834 104.947 52.8993 104.769 52.7498L104.536 52.3948V52.89H103.947V47.9009H104.536V49.8722L104.807 49.4892C105.012 49.321 105.395 49.2089 105.76 49.2089C106.797 49.1902 107.385 49.975 107.385 51.0307ZM106.741 51.0961C106.741 50.2833 106.376 49.6387 105.657 49.6387C105.059 49.6387 104.527 50.0217 104.527 51.0494V51.2456C104.527 52.1799 105.115 52.5256 105.629 52.5256C106.255 52.5349 106.741 52.0398 106.741 51.0961Z" fill="white"/>
<path d="M109.029 48.4802C109.029 48.6951 108.87 48.8539 108.655 48.8539C108.44 48.8539 108.281 48.6951 108.281 48.4802C108.281 48.2653 108.44 48.1064 108.655 48.1064C108.861 48.1064 109.029 48.2653 109.029 48.4802ZM108.365 52.8807V49.2837H108.954V52.8807H108.365Z" fill="white"/>
<path d="M110.816 51.853C110.816 51.9651 110.816 52.0772 110.825 52.1893C110.834 52.4229 110.946 52.4976 111.264 52.4602V52.8807C111.133 52.8994 110.984 52.9087 110.853 52.9087C110.517 52.9087 110.264 52.7966 110.246 52.3481C110.236 52.2267 110.236 52.0678 110.236 51.8716V47.8916H110.825V51.853H110.816Z" fill="white"/>
<path d="M112.87 48.4802C112.87 48.6951 112.712 48.8539 112.497 48.8539C112.282 48.8539 112.123 48.6951 112.123 48.4802C112.123 48.2653 112.282 48.1064 112.497 48.1064C112.702 48.1064 112.87 48.2653 112.87 48.4802ZM112.207 52.8807V49.2837H112.796V52.8807H112.207Z" fill="white"/>
<path d="M114.794 51.8345C114.794 51.956 114.794 52.0214 114.803 52.1148C114.831 52.4605 114.971 52.5353 115.429 52.4792V52.909C115.261 52.937 115.093 52.9463 114.934 52.9463C114.485 52.9463 114.252 52.7595 114.224 52.311C114.214 52.2176 114.214 52.0681 114.214 51.8626V49.7604H113.729V49.312H114.214V48.4805H114.803V49.312H115.476V49.7604H114.803V51.8345H114.794Z" fill="white"/>
<path d="M118.493 52.3671L118.297 52.7501C118.054 52.9183 117.737 52.9743 117.391 52.9743C116.737 52.9743 116.232 52.61 116.232 51.9466C116.232 51.1338 116.84 50.7134 118.26 50.7134H118.493V50.6199C118.493 50.4611 118.493 50.321 118.484 50.1808C118.456 49.8445 118.269 49.6296 117.783 49.6296C117.298 49.6296 117.045 49.8912 117.008 50.3864H116.401C116.457 49.6202 116.989 49.1812 117.783 49.1812C118.643 49.1812 118.998 49.5455 119.063 50.1341C119.073 50.2743 119.082 50.4518 119.082 50.6106V51.9653C119.082 52.2362 119.091 52.4792 119.147 52.8809H118.559L118.493 52.3671ZM118.484 51.5169V51.1525C117.494 51.0777 116.868 51.2926 116.868 51.9092C116.868 52.3484 117.148 52.5352 117.587 52.5352C118.138 52.5352 118.484 52.1709 118.484 51.5169Z" fill="white"/>
<path d="M121.073 51.8345C121.073 51.956 121.073 52.0214 121.082 52.1148C121.11 52.4605 121.25 52.5353 121.708 52.4792V52.909C121.54 52.937 121.372 52.9463 121.213 52.9463C120.765 52.9463 120.531 52.7595 120.503 52.311C120.494 52.2176 120.494 52.0681 120.494 51.8626V49.7604H120.008V49.312H120.494V48.4805H121.082V49.312H121.755V49.7604H121.082V51.8345H121.073Z" fill="white"/>
<path d="M123.437 48.4802C123.437 48.6951 123.278 48.8539 123.063 48.8539C122.848 48.8539 122.689 48.6951 122.689 48.4802C122.689 48.2653 122.848 48.1064 123.063 48.1064C123.278 48.1064 123.437 48.2653 123.437 48.4802ZM122.774 52.8807V49.2837H123.362V52.8807H122.774Z" fill="white"/>
<path d="M127.93 51.087C127.93 52.0961 127.37 52.9836 126.146 52.9836C124.922 52.9836 124.361 52.0961 124.361 51.087C124.361 50.0687 124.922 49.1904 126.146 49.1904C127.37 49.1904 127.93 50.0687 127.93 51.087ZM127.295 51.087C127.295 50.2368 126.875 49.6389 126.146 49.6389C125.417 49.6389 124.997 50.2368 124.997 51.087C124.997 51.9279 125.417 52.5352 126.146 52.5352C126.875 52.5352 127.295 51.9279 127.295 51.087Z" fill="white"/>
<path d="M131.958 50.8628V52.8902H131.369V50.9095C131.369 50.7227 131.369 50.5732 131.36 50.3957C131.323 49.9752 131.098 49.6576 130.538 49.6576C129.977 49.6576 129.501 50.078 129.501 51.3113V52.8902H128.912V49.2932H129.501V49.9005L129.725 49.4894C130.033 49.2558 130.295 49.1904 130.659 49.1904C131.444 49.1904 131.892 49.6109 131.939 50.2462C131.958 50.4237 131.958 50.5638 131.958 50.8628Z" fill="white"/>
</svg>
