<svg width="136" height="44" viewBox="0 0 136 44" fill="none" xmlns="http://www.w3.org/2000/svg">
<g clip-path="url(#clip0_109_2853)">
<path d="M25.4827 12.3088C25.9501 14.0406 26.515 16.1978 26.662 16.7367C26.9298 17.8721 26.7596 18.1839 25.3357 18.3838V18.9787H30.4909V18.3838C29.2141 18.2143 28.9185 17.8993 28.2329 15.5166C27.337 12.2687 26.461 9.01495 25.605 5.75556L24.2307 0.502441L23.6673 0.758301L19.4933 15.3455C18.7566 17.8721 18.5106 18.1839 17.209 18.3838V18.9787H21.8504V18.3838C20.2285 18.1839 20.0582 17.8721 20.4018 16.1403C20.6231 14.9777 21.1137 13.0476 21.3103 12.3088H25.4827ZM21.5796 11.2581C22.1692 8.98898 22.7821 6.74701 23.3965 4.36272H23.4445L25.1871 11.2581H21.5796ZM32.1887 22.9237C32.1887 24.7116 32.0169 24.9402 30.6411 25.1385V25.735H35.8938V25.1385C34.0784 24.9402 33.8818 24.7116 33.8818 22.6407V18.7804C34.1511 18.9787 34.6928 19.2617 35.2329 19.3193C38.2988 18.6109 40.755 15.8284 40.755 11.4852C40.755 9.01937 39.4054 6.2353 36.9756 6.2353C36.7543 6.2353 36.4355 6.32165 36.2142 6.46237L33.8818 7.96714V5.95225C32.8016 6.46237 31.8699 6.91652 30.7401 7.20117V7.74007C32.1392 7.99433 32.1887 8.02471 32.1887 9.8685V22.9237ZM33.8818 8.84666C34.47 8.27897 35.3057 7.76725 36.0424 7.76725C37.785 7.76725 38.9396 9.44313 38.9396 12.5934C38.9396 16.7079 37.4182 17.9281 36.0192 17.9281C35.0859 17.9281 34.326 17.4755 33.8834 16.7927L33.8818 8.84666ZM43.3457 22.9237C43.3457 24.7116 43.174 24.9402 41.7996 25.1385V25.735H47.0524V25.1385C45.2354 24.9402 45.0389 24.7116 45.0389 22.6407V18.7804C45.3097 18.9787 45.8498 19.2617 46.39 19.3193C49.4574 18.6109 51.912 15.8284 51.912 11.4852C51.912 9.01937 50.5625 6.2353 48.1326 6.2353C47.9113 6.2353 47.5925 6.32165 47.3712 6.46237L45.0389 7.96714V5.95225C43.9586 6.46237 43.0269 6.91652 41.8971 7.20117V7.74007C43.2978 7.99433 43.3473 8.02471 43.3473 9.8685L43.3457 22.9237ZM45.0389 8.84666C45.6285 8.27897 46.4627 7.76725 47.1994 7.76725C48.9421 7.76725 50.0966 9.44313 50.0966 12.5934C50.0966 16.7079 48.5753 17.9281 47.1746 17.9281C46.243 17.9281 45.4815 17.4755 45.0389 16.7927V8.84666ZM58.4802 6.2353C57.5486 6.2353 56.4915 6.80298 55.6573 7.71129C54.4796 9.01777 53.7429 11.0598 53.7429 13.3018C53.7429 16.5944 55.3865 19.3193 58.1367 19.3193C58.7991 19.3193 60.3452 18.7516 61.5725 16.7367L61.2304 16.225C60.4442 17.2197 59.7075 17.5587 58.9213 17.5587C57.2282 17.5587 55.3617 16.0827 55.4128 11.7411C58.2342 11.6275 60.8605 11.3717 61.1794 11.3157C61.5972 11.1734 61.721 11.0311 61.721 10.3514C61.721 8.33654 60.2972 6.2353 58.505 6.2353H58.4802ZM57.9401 7.19957C59.2401 7.19957 59.9289 8.50445 59.9041 9.95325C59.9041 10.4634 59.8066 10.6617 59.4615 10.6617L55.5583 10.7464C55.7548 8.47567 56.8846 7.19957 57.9154 7.19957H57.9401ZM70.261 9.75496C70.261 8.67715 70.1124 7.71129 69.3757 7.00128C68.9362 6.51994 68.2243 6.2353 67.486 6.2353C66.0622 6.60469 64.6631 7.59775 64.0982 8.13665C63.6571 8.56202 63.3863 8.93142 63.3863 9.35678C63.3863 9.92287 63.976 10.3786 64.3691 10.3786C64.6879 10.3786 64.9076 10.1803 64.9819 9.81253C65.1042 9.15849 65.2775 8.56202 65.5716 8.10787C65.8161 7.71129 66.186 7.39946 66.7014 7.39946C67.9519 7.39946 68.5911 8.4197 68.6143 10.2091L68.5926 11.1462C68.0277 11.7411 65.8672 12.5358 64.8612 13.0763C63.6819 13.6984 63.1665 14.5795 63.1665 15.9132C63.1665 17.6162 64.2716 19.3193 65.8177 19.3193C66.333 19.3193 67.6594 18.2975 68.6174 17.5315C68.7149 17.9569 68.8619 18.411 69.1327 18.7804C69.4036 19.0922 69.7967 19.3193 69.9932 19.3193L71.9789 17.9281L71.7343 17.3604C71.4651 17.5315 71.1447 17.645 70.9002 17.645C70.5318 17.645 70.2625 17.1909 70.2625 16.0555L70.261 9.75496ZM68.5926 16.6232C68.0757 17.2197 67.2663 17.7298 66.6039 17.7298C65.8424 17.7298 64.9835 16.935 64.9835 15.459C64.9835 14.4372 65.3518 13.9543 66.1133 13.3882C66.5543 13.1035 68.102 12.3951 68.5926 12.0849V16.6232ZM74.3004 16.169C74.3004 17.9569 74.1255 18.1839 72.8007 18.3838V18.9787H77.7857V18.3838C76.139 18.1839 75.9935 17.9569 75.9935 16.0555V10.4922C76.5321 8.90263 77.196 8.27897 77.7098 8.27897C78.055 8.27897 78.3227 8.47726 78.592 8.84666C78.691 8.98898 78.9402 9.04495 79.208 8.90263C79.4259 8.77271 79.608 8.58715 79.7367 8.36372C79.8654 8.14029 79.9365 7.88646 79.9431 7.62653C79.9431 7.03006 79.3782 6.2353 78.691 6.2353C77.6355 6.2353 76.5568 7.82482 76.0399 9.01777H75.9919V6.17933C74.9101 6.71823 74.0512 7.05884 72.9245 7.3147V7.85361C74.2477 8.10787 74.3004 8.16544 74.3004 10.038V16.169ZM88.1658 9.75496C88.1658 8.67715 88.0172 7.71129 87.2836 7.00128C86.8394 6.51994 86.1291 6.2353 85.3908 6.2353C83.967 6.60469 82.5679 7.59775 82.003 8.13665C81.5619 8.56202 81.2927 8.93142 81.2927 9.35678C81.2927 9.92287 81.8823 10.3786 82.2754 10.3786C82.5927 10.3786 82.814 10.1803 82.8883 9.81253C83.0121 9.15849 83.1808 8.56202 83.4779 8.10787C83.7225 7.71129 84.0893 7.39946 84.6077 7.39946C85.8598 7.39946 86.4974 8.4197 86.5175 10.2091L86.4959 11.1462C85.931 11.7411 83.7689 12.5358 82.7629 13.0763C81.5836 13.6984 81.0698 14.5795 81.0698 15.9132C81.0698 17.6162 82.1733 19.3193 83.7209 19.3193C84.2378 19.3193 85.5611 18.2975 86.5175 17.5315C86.6166 17.9569 86.7652 18.411 87.0344 18.7804C87.3037 19.0922 87.6968 19.3193 87.8934 19.3193L89.8821 17.9281L89.6376 17.3604C89.3683 17.5315 89.0479 17.645 88.8034 17.645C88.4351 17.645 88.1658 17.1909 88.1658 16.0555V9.75496ZM86.4974 16.6232C85.9805 17.2197 85.1711 17.7298 84.5087 17.7298C83.7472 17.7298 82.8883 16.935 82.8883 15.459C82.8883 14.4372 83.2566 13.9543 84.0165 13.3882C84.4576 13.1035 86.0053 12.3951 86.499 12.0849L86.4974 16.6232ZM92.3011 16.169C92.3011 17.9569 92.1525 18.1839 90.6807 18.3838V18.9787H95.3453V18.3838C94.118 18.1839 93.9942 17.9569 93.9942 16.169V9.15849C94.6319 8.4197 95.5171 7.74007 96.3281 7.74007C97.8974 7.74007 98.3137 8.98898 98.3137 10.8328V15.8844C98.3137 17.9281 98.193 18.1839 96.8419 18.3822V18.9771H101.358V18.3822C100.131 18.1823 100.01 17.9265 100.01 16.1674V10.0668C100.01 7.79604 99.0272 6.2353 97.235 6.2353C96.6222 6.2353 96.0805 6.51994 95.4661 6.97409C94.9516 7.34905 94.46 7.75654 93.9942 8.19422V6.17933C93.0277 6.69025 92.0058 7.08051 90.95 7.34189V7.88239C92.25 8.16544 92.3011 8.22141 92.3011 9.98204V16.169ZM108.194 6.2353C107.532 6.2353 106.085 6.57591 104.76 7.96714C103.481 9.30081 102.67 11.1734 102.67 13.4154C102.67 16.5097 104.314 19.3193 106.965 19.3193C108.291 19.3193 109.689 18.0416 110.599 16.5384L110.209 16.0555C109.2 17.2756 108.613 17.5875 107.603 17.5875C106.354 17.5875 104.413 16.3961 104.438 12.1393C104.463 8.76031 105.738 7.54178 106.94 7.54178C107.727 7.54178 108.46 7.76725 109.223 8.78909C109.395 8.98898 109.471 9.04495 109.591 9.04495C109.884 9.04495 110.33 8.30776 110.378 7.82482C110.426 7.42664 110.305 7.17238 110.108 6.97409C109.667 6.49115 108.757 6.2353 108.219 6.2353H108.194ZM116.353 6.2353C115.418 6.2353 114.364 6.80298 113.53 7.71129C112.351 9.01777 111.614 11.0598 111.614 13.3018C111.614 16.5944 113.261 19.3193 116.01 19.3193C116.672 19.3193 118.22 18.7516 119.447 16.7367L119.102 16.225C118.316 17.2197 117.582 17.5587 116.796 17.5587C115.1 17.5587 113.235 16.0827 113.286 11.7411C116.109 11.6275 118.735 11.3717 119.054 11.3157C119.472 11.1734 119.592 11.0311 119.592 10.3514C119.592 8.33654 118.172 6.2353 116.379 6.2353H116.353ZM115.812 7.19957C117.115 7.19957 117.8 8.50445 117.777 9.95325C117.777 10.4634 117.678 10.6617 117.336 10.6617L113.431 10.7464C113.628 8.47567 114.758 7.19957 115.788 7.19957H115.812Z" fill="#1A3B73"/>
<path d="M50.5442 25.7683H119.172V25.3638H50.5442V25.7683ZM17.3672 25.9315H27.9578V25.5253H17.3672V25.9315Z" fill="#F5D782"/>
<path d="M17.0977 34.9329V29.3024H19.5693C19.5693 29.3024 22.7884 33.6584 23.1118 34.1205C23.4755 33.6152 26.7798 29.3024 26.7798 29.3024H28.9852V34.9329H27.4019V30.2235L23.7634 34.9329H22.2792L18.6809 30.1371V34.9329H17.0977ZM36.3628 34.9681V29.2352H41.8864V29.9069H37.3781V31.6691H41.5986V32.3423H37.3781V34.2948H42.069V34.9681H36.3628ZM49.1217 34.9681V29.2352H52.6503C53.4458 29.2352 54.0541 29.264 54.4735 29.3168C56.5876 29.5902 57.5905 30.652 57.5905 32.0721C57.5905 32.9436 57.1865 33.6232 56.6201 34.0646C56.0521 34.5027 55.4206 34.7426 54.4642 34.8721C53.919 34.9416 53.3699 34.9742 52.8206 34.9697H49.1217V34.9681ZM50.4805 34.2948H52.6643C54.0123 34.2948 54.7118 34.1477 55.1684 33.8919C55.8106 33.5305 56.1867 32.926 56.1867 32.0577C56.1867 31.458 56.0103 30.9975 55.6605 30.6744C55.2972 30.3444 54.8555 30.1203 54.3806 30.0252C54.0169 29.9468 53.4335 29.9085 52.6287 29.9085H50.4805V34.2948ZM64.64 34.8961H66.0468V29.2368H64.64V34.8961ZM81.1968 30.6632V29.8189C80.1594 29.424 79.0616 29.2257 77.956 29.2336C76.5105 29.2336 75.2987 29.5007 74.2927 30.0332C73.2589 30.5881 72.7513 31.2645 72.7513 32.1088C72.7513 33.0747 73.5344 33.8951 74.9675 34.442C75.901 34.7837 76.8852 34.9537 77.8755 34.9441C79.075 34.9441 80.2187 34.7394 81.1968 34.3508V33.4921C80.3023 34.0694 79.2143 34.3508 77.9715 34.3508C76.6359 34.3508 75.4349 33.999 74.6502 33.3849C74.1968 33.0283 73.9755 32.6046 73.9755 32.1009C73.9755 31.4644 74.3469 30.9303 75.1052 30.4969C75.8342 30.078 76.8819 29.8349 77.9158 29.8349C79.1988 29.8349 80.2481 30.094 81.1968 30.6632ZM97.0928 34.9297V29.2384H98.563L104.234 33.7064V29.2384H105.605V34.9297H104.136L98.4655 30.4602V34.9297H97.0928ZM112.826 34.9425V29.24H118.597V29.9085H113.888V31.6595H118.296V32.3295H113.888V34.2725H118.785V34.9425H112.826ZM88.6782 34.8929H90.0865V29.2336H88.6782V34.8929ZM38.528 40.4339C38.5327 40.8145 38.5326 41.1647 38.5404 41.3214C38.641 41.4877 39.0093 41.6764 39.4845 41.6764C40.1283 41.6764 40.7226 41.2174 40.7226 40.4355C40.7226 39.9573 40.4471 39.6087 40.1097 39.3177L39.9534 39.1898C39.647 38.9323 39.4535 38.686 39.4535 38.331C39.4535 37.9153 39.712 37.5858 40.0849 37.5858C40.6158 37.5858 40.7164 38.0896 40.7613 38.4462L40.9114 38.4318C40.9176 38.1359 40.9114 37.8657 40.9377 37.573C40.7783 37.5187 40.4657 37.3923 40.1933 37.3923C39.5108 37.3923 39.0109 37.8721 39.0109 38.5101C39.0109 39.0267 39.3916 39.3753 39.6052 39.556L39.7491 39.6791C40.0865 39.9701 40.2552 40.242 40.2552 40.6354C40.2552 41.1455 39.9998 41.4749 39.5556 41.4749C38.9737 41.4749 38.7354 40.8033 38.6719 40.4163L38.528 40.4339ZM43.3551 38.6956C43.1679 38.6956 42.9419 38.7788 42.6912 38.9403C42.2594 39.2249 41.8725 39.8838 41.8725 40.7505C41.8725 41.2222 42.0536 41.6748 42.5596 41.6748C42.8351 41.6748 43.1679 41.5005 43.3985 41.2926C43.7916 40.9264 44.0547 40.2084 44.0547 39.6007C44.0547 39.0554 43.8411 38.6956 43.3613 38.6956H43.3551ZM43.1787 38.9195C43.4604 38.9195 43.5919 39.1482 43.5919 39.6311C43.5919 40.509 43.2236 41.2846 42.9481 41.4077C42.8847 41.4269 42.8351 41.4445 42.7593 41.4445C42.4854 41.4445 42.3461 41.1375 42.3461 40.6658C42.3461 39.6311 42.7454 39.089 42.9713 38.9707C43.0328 38.9366 43.1013 38.9185 43.171 38.9179L43.1787 38.9195ZM46.6779 40.8672C46.5093 41.0336 46.2214 41.3262 45.9088 41.3262C45.6519 41.3262 45.5528 41.0527 45.5528 40.6721C45.5528 40.2084 45.6844 39.6775 45.8592 39.3673C45.997 39.1162 46.1394 38.9947 46.322 38.9947C46.4907 38.9947 46.6083 39.0778 46.7027 39.2377C46.746 39.3161 46.8343 39.3161 46.9039 39.2505C46.9968 39.1802 47.0525 39.0906 47.0525 39.0011C47.0587 38.8571 46.89 38.6972 46.6516 38.6972C46.3591 38.6972 45.9583 38.9307 45.7339 39.1562C45.3021 39.5959 45.0962 40.2868 45.0962 40.8481C45.0962 41.3726 45.2897 41.678 45.6271 41.678C45.9521 41.678 46.3777 41.4381 46.7662 40.992L46.6779 40.8672ZM48.9128 40.9888C48.758 41.1311 48.5382 41.2606 48.4825 41.2606C48.4392 41.2606 48.4268 41.1951 48.4763 40.944C48.5878 40.3683 48.7394 39.7798 48.8632 39.3097C48.9638 38.9371 48.9716 38.6956 48.84 38.6956C48.6822 38.6956 48.2519 38.9611 47.9563 39.2313L48.026 39.3545C48.1637 39.2377 48.3958 39.1082 48.4516 39.1082C48.4949 39.1082 48.5073 39.161 48.4562 39.3737C48.2751 40.0741 48.1436 40.6466 48.0383 41.1199C47.9393 41.5836 48.0321 41.6764 48.1204 41.6764C48.3076 41.6764 48.8013 41.307 48.9948 41.1071L48.9128 40.9888ZM48.9638 37.2356C48.7394 37.2356 48.6264 37.4419 48.6264 37.6034C48.6264 37.7458 48.7193 37.8625 48.8694 37.8625C48.9145 37.8621 48.959 37.8525 49.0004 37.8342C49.0419 37.816 49.0794 37.7894 49.1109 37.7562C49.1424 37.7229 49.1672 37.6835 49.184 37.6403C49.2007 37.597 49.209 37.5508 49.2084 37.5043C49.2084 37.3636 49.1325 37.234 48.9716 37.234H48.9638V37.2356ZM51.6892 40.8289C51.3905 41.1711 51.0965 41.3278 50.8458 41.3278C50.4945 41.3278 50.4387 40.9456 50.4387 40.6098C50.4387 40.517 50.4387 40.4531 50.4527 40.3763C51.0516 40.1988 51.9709 39.8214 51.9709 39.1898C51.9722 39.1254 51.9609 39.0614 51.9379 39.0016C51.9149 38.9418 51.8805 38.8874 51.8368 38.8415C51.7931 38.7956 51.741 38.7592 51.6835 38.7344C51.626 38.7097 51.5643 38.697 51.502 38.6972C51.259 38.6972 50.9324 38.8635 50.6771 39.0922C50.2577 39.4664 49.9946 40.138 49.9946 40.7905C49.9946 41.5005 50.3149 41.6764 50.5765 41.6764C50.8334 41.6764 51.2389 41.5773 51.7837 40.952L51.6892 40.8289ZM51.2652 38.9547C51.4261 38.9547 51.5407 39.0762 51.5407 39.2841C51.5407 39.6327 51.29 39.9366 50.4759 40.1812C50.5904 39.46 50.8705 39.1418 50.9773 39.057C51.0593 38.9951 51.1575 38.96 51.259 38.9563H51.2652V38.9547ZM53.4056 39.0442C53.2679 39.6775 53.1425 40.3043 53.0233 40.88C52.8995 41.4813 53.0048 41.6748 53.1224 41.6748C53.3545 41.6748 53.842 41.2526 54.0293 41.0351L53.9473 40.9328C53.8157 41.0623 53.5526 41.2622 53.4536 41.2622C53.3963 41.2622 53.3654 41.1903 53.4102 40.9264C53.548 40.1876 53.6656 39.6391 53.8095 39.0442L54.3342 39.0187L54.5044 38.8124H53.8544C53.9163 38.5741 53.9983 38.2815 54.0726 37.9984L54.0045 37.9648L53.565 38.3598C53.5217 38.5341 53.4907 38.6892 53.4598 38.8124H53.1224L52.9707 38.9739L52.9908 39.0442H53.4056ZM55.2674 39.3928C55.4253 39.2058 55.5506 39.1146 55.6187 39.1146C55.693 39.1146 55.7131 39.3145 55.7689 39.6247C55.8184 39.9286 55.9128 41.1247 55.8927 41.5757C55.5862 42.0474 55.0306 42.6295 54.3063 43.122L54.362 43.2643L55.026 43.0836C55.3881 42.6886 55.7766 42.1657 56.1264 41.6156C56.5164 40.9867 56.8895 40.3468 57.2453 39.6967C57.4047 39.4184 57.4899 39.1802 57.4899 39.0123C57.4899 38.8252 57.3831 38.6956 57.2391 38.6956C57.0766 38.6956 56.9451 38.8763 56.99 38.9995C57.0428 39.137 57.0599 39.2864 57.0395 39.4328C57.0209 39.5959 56.9342 39.8326 56.7702 40.1556C56.6149 40.4555 56.4481 40.7489 56.2703 41.0351H56.2564C56.244 40.4896 56.2084 39.9448 56.1496 39.4024C56.1001 38.9627 56.0118 38.6972 55.8586 38.6972C55.6822 38.6972 55.3696 39.0139 55.1808 39.2697L55.2674 39.3928ZM61.6499 38.6956C61.4627 38.6956 61.2367 38.7788 60.986 38.9403C60.5558 39.2249 60.1673 39.8838 60.1673 40.7505C60.1673 41.2222 60.3484 41.6748 60.856 41.6748C61.1299 41.6748 61.4642 41.5005 61.6933 41.2926C62.0879 40.9264 62.351 40.2084 62.351 39.6007C62.351 39.0554 62.1375 38.6956 61.6561 38.6956H61.6499ZM61.4751 38.9195C61.7552 38.9195 61.8883 39.1482 61.8883 39.6311C61.8883 40.509 61.5184 41.2846 61.2429 41.4077C61.181 41.4269 61.1299 41.4445 61.0556 41.4445C60.7802 41.4445 60.6424 41.1375 60.6424 40.6658C60.6424 39.6311 61.0433 39.089 61.2677 38.9707C61.3297 38.9366 61.3987 38.9185 61.4689 38.9179L61.4751 38.9195ZM63.829 39.0442C63.7408 39.6663 63.6665 40.1812 63.5226 41.0799C63.3291 42.3464 63.1666 42.6567 63.0722 42.7542C62.9438 42.8997 62.7132 42.8534 62.5662 42.7606C62.5042 42.7206 62.4346 42.7606 62.3975 42.799C62.334 42.8629 62.2721 42.9653 62.2721 43.0325C62.2721 43.1732 62.4532 43.2387 62.5909 43.2387C62.7101 43.2387 62.9856 43.13 63.2409 42.8054C63.4731 42.5191 63.7795 41.9067 64.0349 40.4579C64.1045 40.0773 64.1602 39.7718 64.2794 39.0554L64.8428 38.9931L64.9557 38.8124H64.3181C64.4992 37.629 64.6679 37.3188 64.917 37.3188C65.0764 37.3188 65.2126 37.3971 65.3241 37.5171C65.4262 37.6258 65.6181 37.4499 65.6305 37.2852C65.6429 37.1557 65.4804 37.007 65.2761 37.007C64.9681 37.007 64.6261 37.234 64.363 37.5571C64.1262 37.8609 63.9683 38.339 63.8739 38.8108H63.5505L63.374 38.9723L63.3988 39.0426L63.829 39.0442ZM69.2984 40.0773C69.348 40.4723 69.3882 40.9312 69.4052 41.1055C69.43 41.3518 69.3665 41.4157 69.0044 41.4637L68.9719 41.5964H70.2595L70.292 41.4637C69.9531 41.4173 69.8896 41.3646 69.82 40.8465C69.659 39.3673 69.4517 37.3907 69.4517 37.3907L69.2954 37.4483L67.6007 40.7969C67.3175 41.3534 67.2679 41.4109 66.9352 41.4637L66.9042 41.5964H68.1006L68.1377 41.4637C67.7121 41.4109 67.6811 41.347 67.8251 40.984C67.9319 40.6929 68.0835 40.3635 68.2135 40.0789H69.2984V40.0773ZM68.3343 39.8326C68.585 39.2841 68.8342 38.7852 69.1034 38.2367H69.1158L69.2737 39.8326H68.3343ZM73.262 38.8555C73.2008 39.2281 73.1202 39.597 73.0205 39.9605C72.9571 40.1732 72.8209 40.4195 72.564 40.7361C72.3133 41.0335 72.0626 41.2782 71.8861 41.2782C71.7561 41.2782 71.7499 41.0911 71.8103 40.7617C71.931 40.1604 72.0672 39.6375 72.1755 39.2425C72.2715 38.8555 72.2173 38.694 72.1059 38.694C71.9542 38.694 71.5859 38.9195 71.281 39.2169L71.3475 39.3401C71.4558 39.2293 71.5886 39.1475 71.7345 39.1018C71.7855 39.1018 71.8041 39.1466 71.7623 39.3209C71.5874 39.9797 71.4868 40.4211 71.4063 40.7889C71.2315 41.5757 71.4636 41.6748 71.5998 41.6748C71.7422 41.6748 71.9202 41.582 72.1012 41.4413C72.3767 41.2286 72.7064 40.8353 72.906 40.5506H72.9184L72.7884 41.1311C72.7002 41.5101 72.7528 41.6748 72.8704 41.6748C73.0221 41.6748 73.4028 41.4221 73.6768 41.1583L73.5947 41.0415C73.4771 41.1439 73.2836 41.2622 73.2264 41.2622C73.1877 41.2622 73.1691 41.1967 73.214 40.952C73.3533 40.1828 73.5313 39.4472 73.7278 38.6972H73.6257L73.262 38.8555ZM75.9425 38.6956C75.6856 38.6956 75.4287 38.8619 75.2538 39.0123C75.1624 39.0918 75.0885 39.1906 75.037 39.302C74.9855 39.4134 74.9576 39.5349 74.9551 39.6583C74.9551 39.9605 75.212 40.1668 75.4302 40.3491C75.7057 40.5762 75.7568 40.7633 75.7568 40.9504C75.7568 41.4493 75.243 41.5357 74.887 41.0527C74.7725 40.904 74.5419 41.0943 74.5419 41.2798C74.5357 41.4877 74.8623 41.6748 75.0743 41.6748C75.5726 41.6748 76.1205 41.1711 76.1205 40.6578C76.1205 40.4003 76.0261 40.2212 75.6949 39.9557C75.4658 39.7814 75.2956 39.6135 75.2956 39.3817C75.2956 39.161 75.438 39.0011 75.6314 39.0011C75.8187 39.0011 75.958 39.1162 76.0509 39.2569C76.1422 39.3817 76.3434 39.169 76.3434 39.0203C76.3496 38.8635 76.1437 38.6972 75.9503 38.6972L75.9425 38.6956ZM77.7842 39.0442C77.6449 39.6775 77.5211 40.3043 77.4035 40.88C77.2766 41.4813 77.3818 41.6748 77.5026 41.6748C77.7316 41.6748 78.2191 41.2526 78.4095 41.0351L78.3275 40.9328C78.1944 41.0623 77.9313 41.2622 77.8353 41.2622C77.778 41.2622 77.744 41.1903 77.7904 40.9264C77.9266 40.1876 78.0473 39.6391 78.1897 39.0442L78.7159 39.0187L78.8846 38.8124H78.2346L78.4528 37.9984L78.3832 37.9648L77.9452 38.3598C77.9034 38.5341 77.8724 38.6892 77.8399 38.8124H77.5041L77.3524 38.9739L77.371 39.0442H77.7842ZM80.0902 41.5325C80.1227 41.2462 80.2079 40.8081 80.3054 40.4387C80.3967 40.0517 80.5406 39.767 80.7046 39.508C80.8532 39.2649 80.9337 39.2105 81.0033 39.2105C81.0575 39.2105 81.1148 39.2361 81.1658 39.2953C81.2835 39.4168 81.5853 39.0906 81.4831 38.8619C81.4351 38.766 81.3407 38.6956 81.2417 38.6956C81.0575 38.6956 80.7093 39.0906 80.3765 39.8134H80.3642L80.4524 39.3481C80.5406 38.9083 80.5035 38.6956 80.3765 38.6956C80.2527 38.6956 79.8952 38.9211 79.5903 39.2441L79.6662 39.3673C79.7838 39.2441 80.002 39.1082 80.0717 39.1082C80.1227 39.1082 80.1227 39.201 80.0655 39.548C79.9324 40.2788 79.7838 40.9888 79.6337 41.6236L79.6909 41.6748L80.0902 41.5325ZM83.8077 38.6956C83.4022 38.6956 82.9766 38.9355 82.6717 39.2441C82.291 39.6327 82.0155 40.3555 82.0155 40.9968C82.0155 41.5069 82.2028 41.6764 82.3513 41.6764C82.52 41.6764 82.6903 41.5405 82.8652 41.3902C83.1345 41.1583 83.3759 40.8465 83.5972 40.5266H83.6096L83.4858 41.1455C83.3914 41.6044 83.4982 41.6764 83.5802 41.6764C83.704 41.6764 84.1064 41.4477 84.3927 41.1519L84.3169 41.0367C84.1807 41.1455 83.9872 41.2702 83.9238 41.2702C83.8851 41.2702 83.8789 41.2127 83.9114 40.9792C84.0352 40.1828 84.2225 39.3049 84.3463 38.8076L84.3339 38.7804C84.1791 38.7612 83.9888 38.7164 83.8139 38.6972L83.8077 38.6956ZM83.5399 38.9467C83.673 38.9467 83.8092 38.9787 83.8789 39.0251C83.8603 39.2649 83.7179 39.9925 83.6158 40.1812C83.5167 40.3747 83.3651 40.597 83.1902 40.8097C82.9967 41.0367 82.7785 41.275 82.6454 41.275C82.534 41.275 82.4845 41.1071 82.4845 40.8688C82.4845 40.5586 82.5541 40.0869 82.7197 39.6919C82.8714 39.3305 83.0339 39.1418 83.1701 39.0522C83.2803 38.9839 83.4068 38.9485 83.5353 38.9499H83.5399V38.9467ZM86.3164 40.9824C86.1679 41.1247 85.9419 41.2606 85.8785 41.2606C85.8336 41.2606 85.815 41.1951 85.8537 40.9616C86.0719 39.7527 86.3288 38.5133 86.6028 37.2724C86.6414 37.1045 86.6476 37.007 86.578 37.007C86.5022 37.007 86.1849 37.1557 85.7221 37.2084V37.338H85.8831C86.1462 37.338 86.1679 37.3684 86.1044 37.6994L85.4544 40.9488C85.3399 41.5245 85.4327 41.6732 85.5364 41.6732C85.6788 41.6732 86.123 41.4077 86.4047 41.0911L86.3164 40.9824ZM89.144 38.6956C88.7385 38.6956 88.3129 38.9355 88.008 39.2441C87.6242 39.6327 87.3487 40.3555 87.3487 40.9968C87.3487 41.5069 87.536 41.6764 87.6877 41.6764C87.8564 41.6764 88.0266 41.5405 88.2015 41.3902C88.4708 41.1583 88.7122 40.8465 88.9335 40.5266H88.9459L88.8221 41.1455C88.7261 41.6044 88.8345 41.6764 88.9165 41.6764C89.0403 41.6764 89.4396 41.4477 89.729 41.1519L89.6532 41.0367C89.5139 41.1455 89.3204 41.2702 89.2601 41.2702C89.2214 41.2702 89.2152 41.2127 89.2446 40.9792C89.3715 40.1828 89.5588 39.3049 89.6826 38.8076L89.6702 38.7804C89.5123 38.7612 89.3251 38.7164 89.1502 38.6972L89.144 38.6956ZM88.8747 38.9467C89.0078 38.9467 89.144 38.9787 89.2136 39.0251C89.192 39.2649 89.0511 39.9925 88.9505 40.1812C88.8515 40.3747 88.6998 40.597 88.5249 40.8097C88.3315 41.0367 88.1133 41.275 87.9833 41.275C87.7233 41.275 87.7573 40.3907 88.056 39.6919C88.2077 39.3305 88.3702 39.1418 88.5064 39.0522C88.6157 38.9844 88.741 38.9489 88.8685 38.9499H88.8747V38.9467ZM91.9886 38.6956C91.7348 38.6956 91.4779 38.8619 91.303 39.0123C91.2116 39.0918 91.1377 39.1906 91.0862 39.302C91.0347 39.4134 91.0068 39.5349 91.0043 39.6583C91.0043 39.9605 91.2581 40.1668 91.4794 40.3491C91.7549 40.5762 91.8029 40.7633 91.8029 40.9504C91.8029 41.4493 91.2921 41.5373 90.9346 41.0527C90.8232 40.9056 90.5895 41.0927 90.5895 41.2798C90.5833 41.4877 90.9099 41.6748 91.1219 41.6748C91.6202 41.6748 92.1681 41.1711 92.1681 40.6578C92.1681 40.4003 92.0722 40.2212 91.7425 39.9557C91.5104 39.7814 91.3432 39.6135 91.3432 39.3817C91.3432 39.161 91.4856 39.0011 91.6791 39.0011C91.8663 39.0011 92.0056 39.1162 92.0985 39.2569C92.1898 39.3817 92.391 39.169 92.391 39.0203C92.3972 38.8635 92.1913 38.6972 91.9979 38.6972L91.9886 38.6956ZM94.3426 40.9888C94.1847 41.1311 93.968 41.2606 93.9139 41.2606C93.869 41.2606 93.8566 41.1951 93.9046 40.944C94.0191 40.3683 94.1677 39.7798 94.2946 39.3097C94.3936 38.9371 94.3998 38.6956 94.2667 38.6956C94.112 38.6956 93.6802 38.9611 93.3877 39.2313L93.4573 39.3545C93.5935 39.2377 93.8257 39.1082 93.8798 39.1082C93.9247 39.1082 93.9371 39.161 93.886 39.3737C93.7049 40.0741 93.5749 40.6466 93.4666 41.1199C93.3675 41.5836 93.4635 41.6764 93.5486 41.6764C93.7359 41.6764 94.2311 41.307 94.4246 41.1071L94.3426 40.9888ZM94.3936 37.2356C94.1677 37.2356 94.0547 37.4419 94.0547 37.6034C94.0547 37.7458 94.1491 37.8625 94.2992 37.8625C94.3441 37.8619 94.3884 37.8521 94.4296 37.8337C94.4707 37.8154 94.508 37.7888 94.5392 37.7555C94.5704 37.7222 94.5949 37.6829 94.6114 37.6398C94.6278 37.5967 94.6359 37.5506 94.6351 37.5043C94.6351 37.3636 94.5623 37.234 94.3998 37.234H94.3936V37.2356ZM97.2057 38.6956C96.8002 38.6956 96.3746 38.9355 96.0697 39.2441C95.689 39.6327 95.4135 40.3555 95.4135 40.9968C95.4135 41.5069 95.6008 41.6764 95.7494 41.6764C95.9181 41.6764 96.0883 41.5405 96.2632 41.3902C96.5325 41.1583 96.777 40.8465 96.9952 40.5266H97.0076L96.8838 41.1455C96.7894 41.6044 96.8962 41.6764 96.9782 41.6764C97.102 41.6764 97.5013 41.4477 97.7907 41.1519L97.7149 41.0367C97.5787 41.1455 97.3853 41.2702 97.3218 41.2702C97.2831 41.2702 97.2769 41.2127 97.3063 40.9792C97.4332 40.1828 97.6205 39.3049 97.7443 38.8076L97.7319 38.7804C97.5772 38.7612 97.3899 38.7164 97.2119 38.6972L97.2057 38.6956ZM96.9395 38.9467C97.0561 38.9434 97.1715 38.9703 97.2754 39.0251C97.2568 39.2649 97.1129 39.9925 97.0123 40.1812C96.9132 40.3747 96.7646 40.597 96.5898 40.8097C96.3932 41.0367 96.175 41.275 96.045 41.275C95.785 41.275 95.819 40.3907 96.1177 39.6919C96.2694 39.3305 96.4319 39.1418 96.5681 39.0522C96.6776 38.9847 96.8028 38.9494 96.9302 38.9499H96.9395V38.9467Z" fill="#1A3B73"/>
<path d="M0 43.4976H12.7697V0.605957H0V43.4976Z" fill="#F5D782"/>
<path d="M7.77917 3.93555C7.77917 3.93555 5.96223 6.74041 5.16519 9.33898C4.39291 11.856 3.97659 13.8213 4.27374 14.4962C4.57089 15.171 4.74732 15.6827 4.27374 16.5222C3.71968 17.5041 1.65975 20.309 1.06546 21.1277C0.509849 21.8905 0.369012 22.487 0.906048 22.9907C1.32237 23.3777 1.85785 23.5216 2.68894 23.8286C3.33741 24.0669 3.19038 24.1165 2.90716 24.7497C2.5512 25.5477 2.21227 26.2241 2.83288 26.7454C3.28324 27.1212 3.36372 27.1964 3.60515 27.2811C3.99207 27.4203 3.84814 27.5434 3.65004 27.9112C3.35289 28.4661 3.50146 28.8035 3.97659 29.1089C4.45172 29.416 4.51208 29.9069 4.09421 30.6441C3.83111 31.1126 3.44575 32.3088 3.81409 32.9005C4.34803 33.7608 4.48113 33.9127 5.43293 34.4036C6.38319 34.8962 7.73584 34.6963 8.86408 34.2661C10.2059 33.756 10.599 33.7928 11.1082 34.6963C11.5229 35.4335 11.8216 36.9063 12.2952 37.9505C12.7719 38.9947 12.8911 39.3625 12.8911 39.3625V37.2133C12.8911 37.2133 12.4778 35.0881 11.5229 33.9591C11.0772 33.433 9.82981 33.1147 9.02813 33.5305C7.83953 34.143 6.88773 34.2053 5.99783 34.0214C5.10638 33.8375 4.21493 33.1003 4.21493 32.3024C4.21493 31.7251 4.27374 31.159 4.69006 30.6441C4.98721 30.2763 5.10638 29.6015 4.74887 29.2928C4.09267 28.7267 4.28303 28.4469 4.36196 28.1111C4.45172 27.7449 4.74887 27.513 5.28436 27.5738C5.8183 27.6361 6.11545 27.2076 6.11545 27.2076C6.11545 27.2076 5.28436 26.9613 4.80768 26.9005C4.33255 26.8382 4.43779 26.8542 4.21493 26.8382C3.99207 26.8238 3.24455 26.5935 3.16407 26.1426C3.05419 25.5109 3.52158 25.1175 3.6392 24.6282C3.75837 24.1373 4.09421 23.8302 3.20431 23.4001C2.31286 22.9699 1.06546 23.0323 1.18463 22.1703C1.27284 21.5211 2.37168 20.2066 3.08514 19.204C3.83266 18.1517 4.92685 16.3991 5.16519 15.6619C5.40198 14.9263 4.51208 14.3123 4.86804 13.0234C5.224 11.7329 5.10638 10.9957 5.87866 8.84645C6.65094 6.69883 7.77917 3.93555 7.77917 3.93555Z" fill="white"/>
<path d="M6.5332 15.355C6.5332 15.355 7.54382 16.7686 7.24667 17.7521C6.94952 18.7323 7.7218 17.565 7.78061 17.0756C7.84097 16.5831 7.42465 16.1529 8.13812 16.5223C8.85159 16.8901 9.02957 17.1364 9.44434 17.0756C9.86066 17.0133 9.62387 17.1364 8.3161 16.2777C7.00833 15.4173 6.5332 15.355 6.5332 15.355Z" fill="white"/>
<path d="M123.174 43.4977H135.999V0.529297H123.174V43.4977Z" fill="#F5D782"/>
<path d="M130.354 4.46652C130.491 4.78154 130.573 5.13015 130.706 5.45637C131.353 6.5038 131.888 7.76071 132.041 8.95525C132.15 10.0123 132.52 11.0645 132.721 12.1215C132.945 12.7995 133.31 13.4488 133.516 14.1476C133.779 15.5021 132.764 16.8997 133.009 18.2541C133.1 18.9594 133.142 19.6694 133.105 20.3714L132.645 23.7471L132.376 27.1661C132.287 28.1463 132.29 29.1218 132.521 30.0877C132.877 31.207 132.899 32.3408 132.876 33.4682C132.845 34.3669 133.066 35.2688 133.123 36.1723C133.317 36.8999 133.32 37.8498 132.685 38.3967C132.394 38.6622 132.023 38.3935 131.69 38.3167C131.141 37.9905 130.539 37.7123 130.114 37.2469C129.556 36.4793 129.613 35.5918 129.601 34.7523C129.499 34.1778 129.304 33.6253 129.023 33.118C128.554 32.1121 129.619 31.343 129.68 30.3227C129.961 28.5237 129.286 26.7503 128.887 24.9721C128.678 24.1917 128.376 23.4145 128.219 22.6341C127.931 20.8239 127.914 19.0057 128.575 17.1715C129.249 15.6924 128.686 14.0181 127.734 12.8107C126.702 11.4723 125.715 10.0973 124.775 8.6882L124.096 7.52404C124.071 7.27138 124.292 7.15304 124.461 7.03151C124.835 6.93716 124.854 7.44728 125.074 7.62638C125.295 7.86785 125.448 8.18448 125.606 8.48831C126.307 9.48456 126.812 10.6935 127.61 11.5938C128.166 12.3918 128.708 13.2153 129.139 14.1588C129.393 15.0783 129.481 15.9962 129.17 16.9301C128.814 17.9999 128.787 19.0585 128.708 20.1139C128.675 21.4044 128.717 22.6837 129.155 23.9598C129.726 25.8756 130.246 27.7913 130.294 29.7183C130.227 30.5514 129.907 31.4021 129.545 32.2001C129.406 32.747 129.771 33.2747 129.884 33.812C130.147 34.578 130.065 35.3632 130.119 36.1371C130.201 36.6425 130.573 36.9719 130.896 37.2837C131.232 37.6499 131.794 37.6707 132.199 37.9409C132.317 37.9745 132.453 37.9202 132.535 37.8306C132.937 37.4004 132.605 36.8663 132.541 36.3866C132.199 35.1201 132.348 33.8472 132.233 32.5727C132.139 31.4501 131.777 30.3339 131.684 29.2065C131.665 26.9742 131.789 24.7386 132.198 22.4854C132.451 20.7696 132.458 19.0521 132.349 17.3363C132.289 16.4503 132.787 15.5516 132.79 14.6721C132.821 13.8134 132.122 12.985 131.995 12.1375C131.627 10.343 131.158 8.572 130.593 6.83322C130.285 6.11521 129.85 5.32844 129.752 4.56566C129.765 4.41854 129.918 4.36577 130.028 4.35938C130.145 4.36081 130.258 4.39811 130.354 4.46652Z" fill="white"/>
</g>
<defs>
<clipPath id="clip0_109_2853">
<rect width="136" height="43" fill="white" transform="translate(0 0.5)"/>
</clipPath>
</defs>
</svg>
