<svg width="130" height="30" viewBox="0 0 130 30" fill="none" xmlns="http://www.w3.org/2000/svg">
<g clip-path="url(#clip0_117_3855)">
<path d="M46.5568 27.2126C42.6849 27.1619 40.8509 26.7059 39.73 25.895C38.6092 25.0842 38.0488 23.7667 38.0488 21.9423C38.0488 20.8782 38.2017 19.4592 38.5073 17.6856L39.5772 12.2633C39.9338 10.3883 40.4433 8.81734 41.0546 7.60113C41.666 6.38491 42.4302 5.47275 43.3982 4.76329C44.3152 4.10451 45.436 3.59775 46.7096 3.34437C47.9833 3.09099 49.5626 2.93896 51.3967 2.93896C53.0269 2.93896 54.3006 2.98964 55.2176 3.04032C56.1346 3.09099 56.9498 3.29369 57.663 3.54707C58.3763 3.80045 58.9367 4.25653 59.2933 4.91532C59.7009 5.52342 59.9046 6.38491 59.9046 7.49978C59.9046 8.15856 59.8537 8.96937 59.7009 9.83086L59.4461 11.1484H54.861L55.1157 9.83086C55.2176 9.3241 55.2686 8.96937 55.2686 8.61464C55.2686 7.8545 54.9119 7.39842 54.3006 7.19572C53.6383 6.99302 52.4156 6.89167 50.6325 6.89167C49.3588 6.89167 48.3909 6.94234 47.7286 7.09437C47.0153 7.2464 46.4549 7.49978 46.0473 7.85451C45.5888 8.20924 45.2322 8.76667 44.9775 9.42545C44.7227 10.1349 44.4171 11.0471 44.1623 12.314L43.1434 17.5842C42.8887 19.0032 42.7359 20.0167 42.7359 20.6754C42.7359 21.689 43.0925 22.3477 43.7548 22.7025C44.4171 23.0572 45.6398 23.2092 47.4229 23.2092C48.5437 23.2092 49.1041 23.1586 49.7155 23.1079C50.3268 23.0572 50.8872 22.9559 51.3457 22.7532C51.8042 22.5505 52.2118 22.2464 52.4665 21.7903C52.7722 21.3342 53.0269 20.6755 53.1798 19.814L53.4345 18.4964H58.0196L57.714 20.0673C57.4083 21.689 56.9498 23.0065 56.3894 23.9694C55.778 24.9322 55.0648 25.6923 54.2496 26.0977C53.3836 26.5538 52.4665 26.8072 51.4986 26.9592C50.4796 27.1113 49.1041 27.2126 47.2191 27.1619M81.8623 27.1113H77.8376L80.8944 11.6045C81.0472 10.895 81.7095 10.3376 82.4227 10.3376H85.1738L81.8623 27.1113ZM101.426 21.6383C101.171 22.9052 100.763 23.9187 100.254 24.6788C99.7444 25.439 99.0821 25.9964 98.3688 26.3511C97.6046 26.7059 96.7895 26.9086 95.8725 27.0099C94.9554 27.1113 93.7837 27.1619 92.3572 27.1619C89.9627 27.1619 88.2815 26.8579 87.3136 26.1991C86.3456 25.5403 85.8361 24.4254 85.8361 22.8038C85.8361 21.7903 86.0399 20.4221 86.3965 18.6484C86.7531 17.0268 87.1098 15.6586 87.5173 14.645C87.9249 13.5809 88.4853 12.7194 89.1476 12.0606C89.8099 11.4018 90.7269 10.895 91.7968 10.5403C92.8667 10.1856 94.2931 10.0336 95.9744 10.0336C98.4707 10.0336 100.203 10.3376 101.171 10.9457C102.139 11.5538 102.597 12.6687 102.597 14.2396C102.597 15.3545 102.343 17.0775 101.833 19.3579H90.2175C89.9118 20.7768 89.759 21.689 89.759 22.1957C89.759 22.9052 89.9627 23.4119 90.4213 23.6653C90.8798 23.9694 91.6949 24.1214 92.9176 24.1214C94.2931 24.1214 95.3121 23.9694 95.9744 23.716C96.5857 23.4626 97.0442 22.7532 97.299 21.6383H101.426ZM98.4198 16.5707C98.6236 15.6079 98.7254 15.1011 98.7254 14.6957C98.7254 14.0369 98.5217 13.5809 98.0632 13.3782C97.6046 13.1755 96.7386 13.0741 95.414 13.0741C94.4969 13.0741 93.7837 13.1248 93.2742 13.2261C92.7648 13.3275 92.3572 13.5302 92.0515 13.7836C91.7459 14.0369 91.5421 14.3917 91.3383 14.8477C91.1855 15.3038 90.9817 15.7092 90.8288 16.5707H98.4198ZM116.353 15.0505C116.404 14.7464 116.607 14.189 116.607 13.9863C116.607 13.6315 116.455 13.4288 116.047 13.2768C115.64 13.1248 114.875 13.0741 113.755 13.0234C112.43 13.0234 111.411 13.1248 110.8 13.3275C110.188 13.5302 109.73 13.7836 109.475 14.7971C109.424 15.1011 109.373 15.3545 109.373 15.5572C109.373 16.0133 109.577 16.3173 110.035 16.4187C110.494 16.5707 111.513 16.6721 113.041 16.7734L113.907 16.8241C114.926 16.8748 115.741 16.9761 116.353 17.0268C116.964 17.0775 117.474 17.2802 118.034 17.4829C118.543 17.7363 118.951 18.091 119.257 18.5471C119.562 19.0032 119.664 19.6619 119.664 20.4221C119.664 20.9795 119.562 21.5876 119.359 22.2971C119.104 23.4119 118.645 24.2734 118.085 24.9322C117.525 25.591 116.811 26.0977 116.047 26.4525C115.232 26.8072 114.366 27.0099 113.449 27.1113C112.532 27.2126 111.411 27.2126 110.137 27.2126C108.864 27.2126 107.845 27.1619 107.132 27.1113C106.418 27.0606 105.756 26.9086 105.145 26.7059C104.584 26.5032 104.126 26.0977 103.82 25.6417C103.514 25.1349 103.362 24.4761 103.412 23.6653C103.412 23.1079 103.616 22.4491 103.82 21.689H107.896C107.794 22.1957 107.641 22.6011 107.641 22.9052C107.641 23.3613 107.845 23.6146 108.252 23.8173C108.66 24.02 109.526 24.1214 110.8 24.1214C112.277 24.1721 113.347 24.02 113.958 23.8173C114.57 23.564 114.977 23.3106 115.232 22.2971C115.334 21.8917 115.385 21.5876 115.385 21.3849C115.385 20.9288 115.13 20.5741 114.621 20.3207C114.111 20.118 113.092 19.966 111.564 19.9153C109.017 19.814 107.284 19.5606 106.367 19.1552C105.45 18.7498 104.992 17.939 105.043 16.7734C105.043 16.216 105.196 15.4559 105.45 14.493C105.705 13.3782 106.164 12.5167 106.673 11.8579C107.233 11.1991 107.845 10.743 108.609 10.4896C109.373 10.2363 110.188 10.0336 111.054 9.98288C111.92 9.93221 113.041 9.88153 114.366 9.93221C115.385 9.93221 116.2 9.98288 116.862 10.0336C117.524 10.0842 118.187 10.2363 118.798 10.4896C119.41 10.6923 119.868 11.0471 120.225 11.5538C120.581 12.0099 120.734 12.6687 120.734 13.4795C120.734 13.9356 120.479 14.5944 120.377 15.1011L116.353 15.0505ZM124.81 27.1113H120.785L123.842 11.6552C123.995 10.895 124.657 10.3376 125.472 10.3376H128.172L124.81 27.1113ZM70.8071 27.1113H74.7809L76.8696 16.216C77.0225 15.3038 77.1244 14.341 77.1244 13.6822C77.1244 12.466 76.4621 11.7059 75.6979 11.1484C74.9337 10.591 73.2525 10.2363 71.5713 10.2363C70.1448 10.2363 68.3107 10.0842 66.5786 11.1484L68.2088 2.93896H65.7634C64.8464 2.93896 64.0313 3.59775 63.8784 4.50991L59.4461 27.1619H63.4709L65.8653 14.9998C66.4767 12.6687 70.858 13.2768 71.5713 13.3275C73.0487 13.3782 73.3034 14.6957 73.2015 15.2025" fill="#1C1C1A"/>
<path d="M34.9926 14.9495L28.013 2.88867L25.0072 8.10827L27.4526 12.3143H20.9824C21.7976 13.0238 22.307 13.9866 22.307 15.1015C22.307 16.1657 21.7976 17.1285 20.9824 17.838H27.3507L24.9562 21.9934L27.962 27.213L34.9416 15.1522C34.9926 15.1015 34.9926 15.0002 34.9926 14.9495Z" fill="#AF0061"/>
<path d="M23.2745 24.8818H11.8627L6.15671 15.0507L11.8627 5.21959H23.2745L26.2804 0H10.4871C9.46819 0 8.55117 0.557432 8.04171 1.41892L0.96022 13.5811C0.45076 14.4426 0.45076 15.5574 0.96022 16.4189L8.04171 28.6318C8.55117 29.4932 9.46819 30 10.4362 30H26.2294L23.2745 24.8818Z" fill="#BBBBBB"/>
<path d="M20.1669 15.1012C20.1669 16.5201 19.0461 17.6349 17.6196 17.6349C16.1931 17.6349 15.0723 16.5201 15.0723 15.1012C15.0723 13.6822 16.1931 12.5674 17.6196 12.5674C18.9951 12.5674 20.1669 13.6822 20.1669 15.1012Z" fill="#AF0061"/>
<path d="M86.448 5.11824C86.4989 6.28378 85.48 7.34797 84.2573 7.44932C83.0346 7.55067 81.9647 6.73986 81.9647 5.52365C81.9138 4.35811 82.9327 3.29392 84.1554 3.19256C85.429 3.04054 86.448 3.90202 86.448 5.11824ZM129.497 5.06757C129.548 6.23311 128.529 7.29729 127.307 7.39865C126.084 7.5 125.014 6.68919 125.014 5.47297C124.963 4.30743 125.982 3.24324 127.205 3.14189C128.427 3.04054 129.446 3.90202 129.497 5.06757Z" fill="#1C1C1A"/>
</g>
<defs>
<clipPath id="clip0_117_3855">
<rect width="130" height="30" fill="white"/>
</clipPath>
</defs>
</svg>
