<svg width="138" height="38" viewBox="0 0 138 38" fill="none" xmlns="http://www.w3.org/2000/svg">
<path fill-rule="evenodd" clip-rule="evenodd" d="M8.83487 9.59605H8.93263C9.61773 7.63208 11.1598 6.50259 13.6558 6.50259C16.1029 6.50259 17.6206 7.55852 18.0857 9.59605H18.1835C18.5753 7.70564 20.4595 6.50259 22.8822 6.50259C26.284 6.50259 27.361 8.41751 27.361 11.0205V28.0855H20.8024V13.2788C20.8024 12.3462 20.7291 11.3631 19.4322 11.3631C18.1353 11.3631 18.0865 12.3454 18.0865 13.2788V28.0848H11.5524V13.2788C11.5524 12.3462 11.4546 11.3631 10.1822 11.3631C8.88527 11.3631 8.83639 12.3454 8.83639 13.2788V28.0848H2.30078V6.77231H8.83487V9.59605ZM34.9712 14.5562V11.6589C34.9712 10.8244 35.4608 10.3822 36.3903 10.3822C37.345 10.3822 37.8094 10.8244 37.8094 11.6589V14.5562H34.9712ZM44.6138 18.091V12.5179C44.6138 7.92633 40.7469 6.50259 36.3911 6.50259C31.105 6.50259 28.1683 8.66272 28.1683 12.5179V22.6825C28.1683 26.6365 32.0597 28.3545 36.3911 28.3545C41.1876 28.3545 44.6138 26.8066 44.6138 22.7814V19.6626H37.8102V22.4135C37.8102 23.6902 37.4672 24.4756 36.3911 24.4756C35.4852 24.4756 34.972 23.6902 34.972 22.4135V18.0917L44.6138 18.091ZM52.1508 12.8121C52.1508 11.8795 52.7626 11.3631 53.5943 11.3631C54.4024 11.3631 55.0134 11.8788 55.0134 12.8121V22.0442C55.0134 22.9768 54.4016 23.4932 53.5943 23.4932C52.7626 23.4932 52.1508 22.9768 52.1508 22.0442V12.8121ZM55.0142 28.0848H61.8179V1.54248H55.0142V9.66961H54.9164C54.3046 7.73016 52.5915 6.50259 50.0955 6.50259C46.6447 6.50259 45.3478 8.51559 45.3478 11.2412V23.0266C45.3478 25.5798 46.4736 28.3545 50.2177 28.3545C52.7137 28.3545 54.5742 27.5192 54.9164 25.4074H55.0142V28.0848ZM62.5763 6.77231H69.3792V28.0848H62.5763V6.77231ZM62.5763 1.54248H69.3792V5.32405H62.5763V1.54248ZM76.9658 20.3009C76.9658 18.6067 78.4842 18.14 79.8047 17.3055V21.0136C79.8047 22.904 79.6344 23.7132 78.2145 23.7132C77.5791 23.7132 76.9658 23.3453 76.9658 22.6089V20.3009ZM79.804 28.0848H86.6077V12.3217C86.6077 8.02518 82.4726 6.50259 78.3849 6.50259C74.2971 6.50259 70.1628 8.02441 70.1628 12.3217V14.2857H76.965V11.9531C76.965 11.0933 77.2591 10.3815 78.3849 10.3815C79.5107 10.3815 79.8032 11.0933 79.8032 11.9531C79.8032 15.9063 70.1621 15.219 70.1621 20.8174V23.9844C70.1621 26.7829 71.973 28.3545 74.9341 28.3545C77.6509 28.3545 78.8989 27.1016 79.7299 25.5798H79.8032L79.804 28.0848Z" fill="#7581BC"/>
<path fill-rule="evenodd" clip-rule="evenodd" d="M87.3915 1.54248H94.1952V28.0848H87.3915V1.54248ZM95.0025 6.77231H101.806V28.0848H95.0025V6.77231ZM95.0025 1.54248H101.806V5.32405H95.0025V1.54248ZM109.392 9.4244H109.491C110.128 7.55852 111.767 6.50259 114.434 6.50259C117.494 6.50259 119.035 8.34395 119.035 11.3884V28.0855H112.231V13.2788C112.231 12.3462 112.158 11.3631 110.862 11.3631C109.564 11.3631 109.392 12.3454 109.392 13.2788V28.0848H102.59V6.77231H109.392V9.4244ZM126.45 14.5562V11.6589C126.45 10.8244 126.94 10.3822 127.894 10.3822C128.824 10.3822 129.313 10.8244 129.313 11.6589V14.5562H126.45ZM136.116 18.091V12.5179C136.116 7.92633 132.226 6.50259 127.894 6.50259C122.583 6.50259 119.646 8.66272 119.646 12.5179V22.6825C119.646 26.6365 123.538 28.3545 127.894 28.3545C132.666 28.3545 136.116 26.8066 136.116 22.7814V19.6626H129.313V22.4135C129.313 23.6902 128.946 24.4756 127.894 24.4756C126.989 24.4756 126.45 23.6902 126.45 22.4135V18.0917L136.116 18.091ZM1.88477 32.1108L3.25498 36.2854H4.01417L4.74815 33.6587L5.48214 36.2854H6.24133L7.61078 32.1108H6.80347L6.09392 34.5912L5.38438 32.1108H4.62595L3.8912 34.5912L3.18165 32.1108H1.88477ZM9.88759 32.1108L11.2578 36.2854H12.0162L12.7754 33.6587L13.485 36.2854H14.2678L15.638 32.1108H14.8307L14.0967 34.5912L13.3864 32.1108H12.628L11.9185 34.5912L11.1845 32.1108H9.88759ZM17.9141 32.1108L19.2851 36.2854H20.0435L20.7775 33.6587L21.5122 36.2854H22.2706L23.6409 32.1108H22.8328L22.1232 34.5912L21.4137 32.1108H20.6553L19.9457 34.5912L19.211 32.1108H17.9141ZM25.7458 35.5981L26.5776 36.4571L27.4093 35.5981L26.5776 34.7629L25.7458 35.5981ZM30.5668 32.1108V36.2847H31.8148V34.2464C31.8148 33.7813 31.8148 32.8962 32.4021 32.8962C32.8672 32.8962 32.8672 33.3874 32.8672 33.7552V36.2847H34.0908V34.2226C34.0908 33.6587 34.1152 32.897 34.6781 32.897C35.1425 32.897 35.1425 33.3882 35.1425 33.756V36.2854H36.3905V33.4372C36.3905 32.6755 36.0476 32.038 35.167 32.038C34.7507 32.038 34.2611 32.2579 33.9923 32.7744C33.7968 32.2104 33.3072 32.038 32.8909 32.038C32.4502 32.038 31.9858 32.2341 31.7162 32.7744L31.6674 32.1115L30.5668 32.1108ZM43.0231 33.9521C43.0231 33.0433 42.6076 32.038 41.3344 32.038C40.3316 32.038 39.4013 32.7981 39.4013 34.1973C39.4013 35.4755 40.1842 36.3582 41.3841 36.3582C42.0692 36.3582 42.6076 36.0632 42.8521 35.9169L42.5336 35.3031C42.3617 35.4004 41.9951 35.6219 41.6529 35.6219C41.09 35.6219 40.7226 35.2042 40.7226 34.1973H43.0231V33.9521ZM40.7471 33.6088C40.7715 33.1659 40.8945 32.6748 41.3589 32.6748C41.8973 32.6748 41.8973 33.4364 41.8973 33.6088H40.7471ZM48.2359 30.1713V32.7008C48.1381 32.5284 47.8693 32.038 47.2323 32.038C46.425 32.038 45.7643 32.7981 45.7643 34.1973C45.7643 35.3766 46.2539 36.3582 47.1834 36.3582C47.5256 36.3582 47.9418 36.2609 48.3337 35.6219L48.3825 36.2847H49.4831V30.1706L48.2359 30.1713ZM47.0612 34.1973C47.0612 33.6088 47.159 32.897 47.6485 32.897C48.0892 32.897 48.2367 33.4134 48.2367 34.1973C48.2367 34.5912 48.1878 35.4993 47.6485 35.4993C47.1834 35.4993 47.0612 34.91 47.0612 34.1973ZM52.6406 30.7851L53.4234 31.5705L54.2063 30.7851L53.4234 29.9997L52.6406 30.7851ZM52.8124 32.1108V36.2847H54.036V32.1108H52.8124ZM60.5945 36.2854C60.4723 35.7943 60.4723 35.0579 60.4723 34.7636V33.3882C60.4723 32.5782 59.9827 32.038 58.808 32.038C58.2696 32.038 57.78 32.1843 57.2416 32.4303L57.5112 33.0931C57.7311 32.9705 58.0985 32.7981 58.514 32.7981C59.028 32.7981 59.2724 32.9958 59.2724 33.5108C57.8044 34.0019 57.0216 34.346 57.0216 35.2288C57.0216 35.7943 57.4134 36.359 58.1718 36.359C58.6858 36.359 59.0777 36.1138 59.3465 35.6464L59.4198 36.2854H60.5945ZM59.2724 34.3215C59.2724 34.8855 59.2235 35.5981 58.6606 35.5981C58.4407 35.5981 58.1711 35.4257 58.1711 35.0579C58.1711 34.6403 58.4407 34.4678 59.2717 34.1L59.2724 34.3215ZM63.7512 30.1713V36.2854H64.9992V30.1713H63.7512ZM68.1559 30.7851L68.9387 31.5705L69.7224 30.7851L68.9387 29.9997L68.1559 30.7851ZM68.3025 32.1108V36.2847H69.552V32.1108H68.3025ZM72.8798 32.1108V36.2847H74.1286V33.9276C74.1286 33.4127 74.3241 32.8962 74.7404 32.8962C75.2299 32.8962 75.204 33.51 75.204 33.805V36.2847H76.4527V33.3874C76.4527 32.602 76.0617 32.0372 75.2292 32.0372C74.8626 32.0372 74.3478 32.1598 74.0301 32.7736L73.9812 32.1108H72.8798ZM83.0846 33.9521C83.0846 33.0433 82.6683 32.038 81.4196 32.038C80.3915 32.038 79.4865 32.7981 79.4865 34.1973C79.4865 35.4755 80.2693 36.3582 81.4692 36.3582C82.1535 36.3582 82.6928 36.0632 82.9372 35.9169L82.5958 35.3031C82.4484 35.4004 82.0573 35.6219 81.7144 35.6219C81.1522 35.6219 80.7849 35.2042 80.7849 34.1973H83.0854L83.0846 33.9521ZM80.8337 33.6088C80.8574 33.1659 80.9796 32.6748 81.4455 32.6748C81.984 32.6748 81.984 33.4364 81.984 33.6088H80.8337ZM86.0954 32.1108V36.2847H87.3426V33.9276C87.3426 33.4127 87.5145 32.8962 87.9307 32.8962C88.4455 32.8962 88.4203 33.51 88.4203 33.805V36.2847H89.6691V33.3874C89.6691 32.602 89.2765 32.0372 88.4455 32.0372C88.0774 32.0372 87.5641 32.1598 87.2464 32.7736L87.1731 32.1108H86.0954ZM96.3002 33.9521C96.3002 33.0433 95.8839 32.038 94.6351 32.038C93.6071 32.038 92.6783 32.7981 92.6783 34.1973C92.6783 35.4755 93.4857 36.3582 94.6848 36.3582C95.3454 36.3582 95.9083 36.0632 96.1527 35.9169L95.8098 35.3031C95.6395 35.4004 95.2729 35.6219 94.9299 35.6219C94.3678 35.6219 94.0004 35.2042 94.0004 34.1973H96.3009L96.3002 33.9521ZM94.0478 33.6088C94.0478 33.1659 94.17 32.6748 94.6359 32.6748C95.1744 32.6748 95.1744 33.4364 95.1744 33.6088H94.0478ZM98.8199 32.1108L100.191 36.2854H100.974L101.708 33.6587L102.418 36.2854H103.201L104.572 32.1108H103.764L103.03 34.5912L102.345 32.1108H101.562L100.851 34.5912L100.141 32.1108H98.8199ZM109.589 32.2579C109.266 32.1129 108.915 32.038 108.561 32.038C107.655 32.038 107.068 32.602 107.068 33.2656C107.068 33.8295 107.434 34.1981 107.997 34.5659L108.145 34.6648C108.511 34.91 108.683 35.0326 108.683 35.2786C108.683 35.5498 108.463 35.6724 108.218 35.6724C107.851 35.6724 107.534 35.5245 107.337 35.4272L107.068 36.0648C107.446 36.2608 107.866 36.362 108.291 36.3598C109.319 36.3598 109.834 35.7222 109.834 35.0341C109.834 34.4203 109.418 34.0763 108.856 33.7085L108.684 33.5859C108.268 33.3161 108.194 33.1935 108.194 33.0456C108.194 32.8748 108.34 32.7269 108.634 32.7269C108.928 32.7269 109.173 32.8257 109.345 32.8993L109.589 32.2579ZM112.524 35.5981L113.382 36.4571L114.213 35.5981L113.382 34.7629L112.524 35.5981ZM120.332 32.3069C119.94 32.1345 119.598 32.0372 119.157 32.0372C117.983 32.0372 117.102 32.8472 117.102 34.1966C117.102 35.3759 117.786 36.3575 119.06 36.3575C119.695 36.3575 120.135 36.1376 120.38 36.0134L120.063 35.3759C119.891 35.4747 119.623 35.6211 119.305 35.6211C118.619 35.6211 118.424 34.8111 118.424 34.1721C118.424 33.1652 118.889 32.7728 119.378 32.7728C119.672 32.7728 119.917 32.8717 120.039 32.9453L120.332 32.3069ZM122.901 34.2464C122.901 35.4257 123.587 36.3582 124.81 36.3582C126.083 36.3582 126.793 35.4004 126.793 34.1491C126.793 33.0686 126.229 32.0372 124.907 32.0372C123.611 32.038 122.901 32.9958 122.901 34.2464ZM124.223 34.1736C124.223 33.4372 124.296 32.7008 124.86 32.7008C125.324 32.7008 125.472 33.2157 125.472 34.1498C125.472 35.1552 125.275 35.7215 124.835 35.7215C124.345 35.7207 124.223 35.0579 124.223 34.1736ZM129.828 32.1108V36.2847H131.076V34.2464C131.076 33.7813 131.076 32.8962 131.663 32.8962C132.104 32.8962 132.104 33.3874 132.104 33.7552V36.2847H133.352V34.2226C133.352 33.6587 133.377 32.897 133.94 32.897C134.405 32.897 134.405 33.3882 134.405 33.756V36.2854H135.652V33.4372C135.652 32.6755 135.311 32.038 134.429 32.038C133.989 32.038 133.523 32.2579 133.255 32.7744C133.058 32.2104 132.569 32.038 132.152 32.038C131.713 32.038 131.247 32.2341 130.979 32.7744L130.93 32.1115L129.828 32.1108Z" fill="black"/>
</svg>
