<svg width="62" height="60" viewBox="0 0 62 60" fill="none" xmlns="http://www.w3.org/2000/svg">
<g clip-path="url(#clip0_117_3865)">
<path d="M49.6643 7.30057C48.3832 3.45113 45.3907 0.499974 38.1756 1.02872C26.3542 1.36646 18.5963 8.37962 14.3241 12.395C13.2254 13.4276 12.4098 14.4517 11.8177 15.342C9.43228 18.9274 10.6141 21.2031 11.5992 24.7573C12.2245 27.0134 13.1371 28.7457 13.9665 30.1787C15.5646 32.9408 17.2962 34.6674 19.5174 36.3966C21.5094 37.9473 24.312 39.1954 26.3096 40.047C28.7288 40.9532 30.409 41.3102 31.7321 41.3102C34.4639 41.3102 35.2094 40.8844 37.0129 40.1059C39.6666 39.4599 42.3187 37.4792 44.4031 34.9737C47.3933 31.3788 51.2123 25.3769 51.2123 17.5496C51.2122 11.0149 50.5487 9.9574 49.6643 7.30057ZM49.4888 17.0548C49.4888 29.3677 41.8734 35.692 41.8734 35.692C41.8734 35.692 48.1541 27.8672 48.1541 17.6737C48.1541 8.15323 44.2638 3.76671 44.2638 3.76671C44.2638 3.76671 49.4888 4.54014 49.4888 17.0548ZM39.7561 36.8696C39.7561 36.8696 46.0397 27.6854 46.1763 15.7091C46.1763 15.7091 46.6275 13.2323 46.7227 11.3022C46.7227 11.3022 47.7129 14.0273 47.7129 17.9634C47.713 30.0742 39.7561 36.8696 39.7561 36.8696ZM45.7366 8.09362C46.9149 10.8844 46.0123 14.0951 46.0123 14.0951C44.7085 5.92036 39.5692 4.31508 39.5692 4.31508C39.5692 4.31508 43.9844 3.9436 45.7366 8.09362ZM45.7114 16.0213C45.7114 19.6271 43.4301 23.0599 43.4301 23.0599C43.4301 23.0599 44.6587 18.9354 44.6587 15.9968C44.6587 11.5265 44.032 9.50149 44.032 9.50149C44.032 9.50149 45.7114 11.3537 45.7114 16.0213ZM24.9213 11.3761C24.9213 11.3761 31.4594 5.27209 37.442 5.27209C44.493 5.27209 44.0444 15.2174 44.0444 15.2174C44.0444 20.3637 42.4606 24.5565 42.4606 24.5565C42.4606 24.5565 38.2923 31.534 29.8537 31.534C29.8537 31.534 25.9047 31.5979 22.5166 29.2137C20.9953 28.227 18.5006 26.0696 18.5006 22.5866C18.5003 17.0431 24.9213 11.3761 24.9213 11.3761ZM16.968 24.1342C16.968 24.1342 20.0442 32.0638 29.8759 32.0638C37.8967 32.0638 41.6913 26.3147 41.6913 26.3147C41.6913 26.3147 40.6044 29.7555 38.0114 32.582C36.2038 34.5516 33.9151 36.205 30.2531 36.205C26.7746 36.205 23.956 35.2574 22.0164 33.6861C16.8918 29.5369 16.968 24.1342 16.968 24.1342ZM17.1302 32.8834C14.6512 30.3338 12.5433 25.9177 12.5433 22.7174C12.5433 18.517 16.2201 15.2602 16.2201 15.2602C16.2201 15.2602 14.3971 17.9081 14.3971 21.7433C14.3971 31.7572 24.964 38.1489 24.964 38.1489C24.964 38.1488 21.4332 37.5435 17.1302 32.8834ZM21.4913 34.3568C21.4913 34.3568 22.7215 35.2655 24.7997 36.0268C25.9325 36.7732 29.645 39.0967 33.1781 39.9361C32.856 39.984 32.5279 40.009 32.1938 40.009C26.9254 40.009 21.4913 34.3568 21.4913 34.3568ZM34.1434 39.7198C33.0013 39.6057 29.6473 39.054 25.9951 36.4153C27.2783 36.7806 28.7899 37.0471 30.4698 37.0471C39.0953 37.0471 42.8689 24.721 42.8689 24.721C42.8689 24.721 44.8561 22.2793 45.3903 19.4379C45.3903 19.4379 44.7065 25.1209 42.0556 30.9929C40.3089 34.9636 37.6118 38.6778 34.1434 39.7198ZM46.0755 32.4586C43.244 36.3758 39.3437 38.4819 39.3437 38.4819C39.3437 38.4819 43.4905 35.7382 46.4066 30.7985C47.7924 28.4096 48.6092 26.8215 49.2569 22.8944C49.5519 21.2407 49.7918 19.1257 49.7918 17.1763C49.7918 11.2752 49.0604 9.18233 49.0604 9.18233C49.0604 9.18233 50.6972 11.4467 50.6972 17.8281C50.6972 19.9303 50.4167 21.9062 50.0343 23.6506C49.2276 27.3331 47.7147 30.2352 46.0755 32.4586Z" fill="#FFE60E"/>
<path d="M6.09866 48.07C2.86538 48.07 0.244141 50.6287 0.244141 53.7848C0.244141 56.941 2.86538 59.4997 6.09866 59.4997C9.33195 59.4997 11.9532 56.941 11.9532 53.7848C11.9532 50.6287 9.3321 48.07 6.09866 48.07ZM6.09866 56.7732C4.4996 56.7732 3.20324 55.4353 3.20324 53.7847C3.20324 52.1341 4.49945 50.7961 6.09866 50.7961C7.69773 50.7961 8.99394 52.1342 8.99394 53.7847C8.99394 55.4352 7.69773 56.7732 6.09866 56.7732ZM31.5871 48.7949C30.7178 48.3946 29.6227 48.0425 28.0694 48.0425C24.6333 48.0425 22.2148 50.6287 22.2148 53.785C22.2148 56.9413 24.2767 59.4998 27.51 59.4998C28.9702 59.4998 30.2669 58.7816 30.8579 57.7858V59.261H33.6581V50.2768C33.6581 50.2767 32.8978 49.4179 31.5871 48.7949ZM26.384 56.2123C25.6506 55.656 25.1993 54.7842 25.1993 53.7688C25.1993 52.0806 26.4787 50.7264 28.1987 50.7264C29.9079 50.7264 30.7238 51.5257 30.7238 51.5257V55.4826C29.7422 56.8747 28.1175 56.7981 28.1175 56.7981C27.3971 56.7981 26.8703 56.5808 26.384 56.2123ZM55.9014 48.07C52.6681 48.07 50.047 50.6287 50.047 53.7848C50.047 56.941 52.6681 59.4997 55.9014 59.4997C59.1349 59.4997 61.756 56.941 61.756 53.7848C61.756 50.6287 59.1349 48.07 55.9014 48.07ZM55.9014 56.7732C54.3024 56.7732 53.0062 55.4353 53.0062 53.7847C53.0062 52.1341 54.3024 50.7961 55.9014 50.7961C57.5006 50.7961 58.7968 52.1342 58.7968 53.7847C58.7968 55.4352 57.5006 56.7732 55.9014 56.7732ZM20.3411 50.9221H20.9161V48.1118H20.256C16.5943 48.1118 14.4229 49.9574 14.4229 49.9574V59.248H17.3609V51.6141C17.3608 51.614 18.4677 50.9221 20.3411 50.9221ZM42.7097 48.0893C41.2593 48.0893 40.2436 48.6653 39.6969 49.7416V48.3543H36.8993V59.2558H39.8225V52.1525C39.8225 52.1525 40.8437 50.7998 42.5664 50.7998C43.943 50.7998 44.808 51.7532 44.808 53.1242V59.2558H47.7668V53.513C47.7669 49.4496 45.0671 48.0893 42.7097 48.0893Z" fill="black"/>
</g>
<defs>
<clipPath id="clip0_117_3865">
<rect width="62" height="59" fill="white" transform="translate(0 0.5)"/>
</clipPath>
</defs>
</svg>
