<svg width="40" height="40" viewBox="0 0 40 40" fill="none" xmlns="http://www.w3.org/2000/svg">
<mask id="mask0_109_3229" style="mask-type:luminance" maskUnits="userSpaceOnUse" x="0" y="0" width="40" height="40">
<path d="M38.6364 16.3636H20V24.0909H30.7273C29.7273 29 25.5455 31.8182 20 31.8182C13.4545 31.8182 8.18182 26.5455 8.18182 20C8.18182 13.4545 13.4545 8.18182 20 8.18182C22.8182 8.18182 25.3636 9.18184 27.3636 10.8182L33.1818 5C29.6364 1.90909 25.0909 0 20 0C8.90909 0 0 8.90909 0 20C0 31.0909 8.90909 40 20 40C30 40 39.0909 32.7273 39.0909 20C39.0909 18.8182 38.9091 17.5455 38.6364 16.3636Z" fill="white"/>
</mask>
<g mask="url(#mask0_109_3229)">
<path d="M-1.82031 31.818V8.18164L13.6342 19.9998L-1.82031 31.818Z" fill="#FBBC05"/>
</g>
<mask id="mask1_109_3229" style="mask-type:luminance" maskUnits="userSpaceOnUse" x="0" y="0" width="40" height="40">
<path d="M38.6364 16.3636H20V24.0909H30.7273C29.7273 29 25.5455 31.8182 20 31.8182C13.4545 31.8182 8.18182 26.5455 8.18182 20C8.18182 13.4545 13.4545 8.18182 20 8.18182C22.8182 8.18182 25.3636 9.18184 27.3636 10.8182L33.1818 5C29.6364 1.90909 25.0909 0 20 0C8.90909 0 0 8.90909 0 20C0 31.0909 8.90909 40 20 40C30 40 39.0909 32.7273 39.0909 20C39.0909 18.8182 38.9091 17.5455 38.6364 16.3636Z" fill="white"/>
</mask>
<g mask="url(#mask1_109_3229)">
<path d="M-1.82031 8.18164L13.6342 19.9998L19.9979 14.4544L41.8161 10.9089V-1.81836H-1.82031V8.18164Z" fill="#EA4335"/>
</g>
<mask id="mask2_109_3229" style="mask-type:luminance" maskUnits="userSpaceOnUse" x="0" y="0" width="40" height="40">
<path d="M38.6383 16.3636H20.002V24.0909H30.7292C29.7292 29 25.5474 31.8182 20.002 31.8182C13.4565 31.8182 8.18377 26.5455 8.18377 20C8.18377 13.4545 13.4565 8.18182 20.002 8.18182C22.8201 8.18182 25.3656 9.18184 27.3656 10.8182L33.1838 5C29.6383 1.90909 25.0929 0 20.002 0C8.91104 0 0.00195312 8.90909 0.00195312 20C0.00195312 31.0909 8.91104 40 20.002 40C30.002 40 39.0929 32.7273 39.0929 20C39.0929 18.8182 38.911 17.5455 38.6383 16.3636Z" fill="white"/>
</mask>
<g mask="url(#mask2_109_3229)">
<path d="M-1.81836 31.818L25.4544 10.9089L32.6362 11.818L41.818 -1.81836V41.818H-1.81836V31.818Z" fill="#34A853"/>
</g>
<mask id="mask3_109_3229" style="mask-type:luminance" maskUnits="userSpaceOnUse" x="0" y="0" width="40" height="40">
<path d="M38.6383 16.3636H20.002V24.0909H30.7292C29.7292 29 25.5474 31.8182 20.002 31.8182C13.4565 31.8182 8.18377 26.5455 8.18377 20C8.18377 13.4545 13.4565 8.18182 20.002 8.18182C22.8201 8.18182 25.3656 9.18184 27.3656 10.8182L33.1838 5C29.6383 1.90909 25.0929 0 20.002 0C8.91104 0 0.00195312 8.90909 0.00195312 20C0.00195312 31.0909 8.91104 40 20.002 40C30.002 40 39.0929 32.7273 39.0929 20C39.0929 18.8182 38.911 17.5455 38.6383 16.3636Z" fill="white"/>
</mask>
<g mask="url(#mask3_109_3229)">
<path d="M41.8182 41.818L13.6364 19.9998L10 17.2725L41.8182 8.18164V41.818Z" fill="#4285F4"/>
</g>
</svg>
