<svg width="46" height="46" viewBox="0 0 46 46" fill="none" xmlns="http://www.w3.org/2000/svg">
<g clip-path="url(#clip0_193_1684)">
<path d="M8.26953 22.2363C8.26953 27.1481 8.89341 30.7165 10.3608 35.4123C11.8282 40.108 11.861 41.6494 11.861 44.4951" stroke="#AFE1FF" stroke-width="2" stroke-miterlimit="2.6131" stroke-linecap="round" stroke-linejoin="round"/>
<path fill-rule="evenodd" clip-rule="evenodd" d="M42.458 45.0117C42.5489 43.0801 41.9125 37.959 41.9125 37.959C43.5037 33.2871 44.2765 26.9772 42.9127 22.6647C45.2768 15.9713 41.7805 10.957 36.3661 9.52344C30.9517 8.08989 28.9102 4.94141 28.9102 0.988281H17.0898C17.0898 4.94141 15.0484 8.08989 9.63396 9.52344C4.21953 10.957 0.723352 15.9713 3.08732 22.6647C1.7234 26.9772 2.49633 33.2871 4.08746 37.959C4.08746 37.959 3.45101 43.0801 3.54193 45.0117H42.458Z" stroke="#AFE1FF" stroke-width="2" stroke-miterlimit="2.6131" stroke-linecap="round" stroke-linejoin="round"/>
<path d="M37.7302 22.2363C37.7302 27.1481 37.1063 30.7165 35.6389 35.4123C34.1715 40.108 34.1387 41.6494 34.1387 44.4951" stroke="#AFE1FF" stroke-width="2" stroke-miterlimit="2.6131" stroke-linecap="round" stroke-linejoin="round"/>
<path d="M23 5.98535V9.73633" stroke="#AFE1FF" stroke-width="2" stroke-miterlimit="2.6131" stroke-linecap="round" stroke-linejoin="round"/>
<path d="M23 40.9795V44.4388" stroke="#AFE1FF" stroke-width="2" stroke-miterlimit="2.6131" stroke-linecap="round" stroke-linejoin="round"/>
<path d="M23 20.9219C26.1012 20.9219 28.6152 19.323 28.6152 17.3506C28.6152 15.3782 26.1012 13.7793 23 13.7793C19.8988 13.7793 17.3848 15.3782 17.3848 17.3506C17.3848 19.323 19.8988 20.9219 23 20.9219Z" stroke="#AFE1FF" stroke-width="2" stroke-miterlimit="2.6131" stroke-linecap="round" stroke-linejoin="round"/>
<path d="M22.9991 31.3581C25.5087 31.3581 27.5431 30.0642 27.5431 28.4681C27.5431 26.872 25.5087 25.5781 22.9991 25.5781C20.4895 25.5781 18.4551 26.872 18.4551 28.4681C18.4551 30.0642 20.4895 31.3581 22.9991 31.3581Z" stroke="#AFE1FF" stroke-width="2" stroke-miterlimit="2.6131" stroke-linecap="round" stroke-linejoin="round"/>
<path d="M22.9994 40.418C25.0669 40.418 26.7429 39.352 26.7429 38.0371C26.7429 36.7222 25.0669 35.6562 22.9994 35.6562C20.9319 35.6562 19.2559 36.7222 19.2559 38.0371C19.2559 39.352 20.9319 40.418 22.9994 40.418Z" stroke="#AFE1FF" stroke-width="2" stroke-miterlimit="2.6131" stroke-linecap="round" stroke-linejoin="round"/>
</g>
<defs>
<clipPath id="clip0_193_1684">
<rect width="46" height="46" fill="white"/>
</clipPath>
</defs>
</svg>
