<svg width="46" height="46" viewBox="0 0 46 46" fill="none" xmlns="http://www.w3.org/2000/svg">
<g clip-path="url(#clip0_193_1284)">
<path d="M38.1445 0C35.1968 0 32.7988 2.39802 32.7988 5.3457C32.7988 8.29339 35.1968 10.6914 38.1445 10.6914C41.0922 10.6914 43.4902 8.29339 43.4902 5.3457C43.4902 2.39802 41.0922 0 38.1445 0ZM38.1445 7.99609C36.683 7.99609 35.4941 6.8071 35.4941 5.3457C35.4941 3.8843 36.683 2.69531 38.1445 2.69531C39.606 2.69531 40.7949 3.8843 40.7949 5.3457C40.7949 6.8071 39.606 7.99609 38.1445 7.99609Z" fill="#AFE1FF" stroke="#413F43" stroke-width="0.5"/>
<path d="M33.1439 29.496C33.0597 28.9448 33.1463 29.3402 28.2568 22.2664L32.1247 17.9687C36.4289 13.1862 34.3565 5.59688 28.328 3.58761L21.6932 1.37602C19.1053 0.513337 16.3001 1.53387 14.8716 3.85786L11.1211 9.9587C10.1195 11.588 10.5621 13.7236 12.1291 14.8204C13.7448 15.9515 15.9956 15.5683 17.1459 13.9659L20.2702 9.61406L22.8858 10.5731L16.5125 18.0799C14.7911 20.1075 13.8431 22.6888 13.8431 25.3485V41.7081C13.8431 44.0182 15.6875 46.0002 18.0777 46.0002C20.1833 46.0002 21.9715 44.4507 22.2695 42.3644L23.7007 32.346L25.1603 34.306L26.864 42.7104C27.2872 44.798 29.2749 46.2324 31.394 45.9686C33.6912 45.6829 35.2951 43.5619 34.9452 41.2743L33.1439 29.496ZM19.6012 41.9832C19.4904 42.7588 18.8106 43.332 18.026 43.304C17.2057 43.2774 16.5384 42.5615 16.5384 41.7081V25.3485C16.5384 23.3271 17.2589 21.3654 18.5671 19.8244L26.1907 10.8451C26.7966 10.1316 26.5071 9.03026 25.6273 8.70763L20.2367 6.73106C19.6709 6.52353 19.0322 6.71678 18.678 7.21038L14.9564 12.3941C14.6625 12.8035 14.0877 12.9014 13.6746 12.6123C13.2743 12.3321 13.1612 11.7866 13.4171 11.3702L17.1676 5.2694C17.9369 4.01805 19.4472 3.46839 20.8409 3.93306L27.4757 6.14465C28.6111 6.52308 29.6064 7.21712 30.3539 8.15167H30.3541C32.2573 10.5307 32.1594 13.9011 30.1212 16.1656L22.2749 24.8838C22.096 25.0826 21.9803 25.3301 21.9425 25.5947L19.6012 41.9832ZM31.0613 43.2938C30.3354 43.3842 29.6511 42.8926 29.5057 42.1749C27.5867 32.9332 27.8225 33.3678 27.5021 32.9378C24.1774 28.4828 24.375 28.7177 24.239 28.5785L24.5528 26.382L26.4061 24.3227L30.5273 30.2144L32.281 41.6816C32.4011 42.4675 31.85 43.1957 31.0613 43.2938Z" fill="#AFE1FF" stroke="#413F43" stroke-width="0.5"/>
<path d="M9.63034 25.9215L8.37702 26.6005L8.23578 25.1821C8.14073 24.226 7.10007 23.6716 6.25275 24.1307L3.21756 25.7755C2.56314 26.1301 2.3202 26.948 2.67472 27.6024C3.02934 28.2567 3.84709 28.4999 4.5017 28.1452L5.75466 27.4663L5.89589 28.8845C5.99175 29.8479 7.04005 30.3906 7.87883 29.9359L10.9143 28.2912C11.5687 27.9367 11.8117 27.1187 11.4572 26.4643C11.1027 25.8101 10.2848 25.5668 9.63034 25.9215Z" fill="#AFE1FF" stroke="#413F43" stroke-width="0.5"/>
<path d="M11.7961 17.1198L8.78976 15.4222C7.95196 14.949 6.9007 15.4834 6.78867 16.4388L6.62273 17.8544L5.38171 17.1536C4.73367 16.7877 3.91169 17.0163 3.54549 17.6644C3.17955 18.3124 3.40821 19.1346 4.05634 19.5005L7.06242 21.1981C7.89527 21.6686 8.95094 21.1425 9.0636 20.1816L9.22954 18.7659L10.4708 19.4667C11.119 19.8328 11.941 19.604 12.307 18.9558C12.6729 18.3078 12.4442 17.4857 11.7961 17.1198Z" fill="#AFE1FF" stroke="#413F43" stroke-width="0.5"/>
</g>
<defs>
<clipPath id="clip0_193_1284">
<rect width="46" height="46" fill="white"/>
</clipPath>
</defs>
</svg>
