<svg width="40" height="40" viewBox="0 0 40 40" fill="none" xmlns="http://www.w3.org/2000/svg">
<g clip-path="url(#clip0_189_7417)">
<path d="M40 28.9844C40 27.0459 38.4229 25.4688 36.4844 25.4688H34.4383C34.5684 25.102 34.6398 24.7077 34.6398 24.2969V20.495L34.9605 20.3098C36.6393 19.3406 37.2166 17.1862 36.2473 15.5074C35.6385 14.4528 34.562 13.8333 33.4296 13.7584C32.7793 12.6992 31.8958 11.7977 30.8402 11.1249C29.9696 10.5701 29.0077 10.1895 28.003 9.99492C28.8115 8.99023 29.2969 7.71516 29.2969 6.32812C29.2969 3.09727 26.6684 0.46875 23.4375 0.46875C20.2066 0.46875 17.5781 3.09727 17.5781 6.32812C17.5781 7.6968 18.0511 8.95641 18.8405 9.95484C14.9555 10.599 11.9836 13.9821 11.9836 18.0469V21.1719C11.9836 21.8754 12.1546 22.5394 12.4557 23.1261C11.1929 23.1379 10.048 23.6512 9.21102 24.4766C8.28914 23.1869 6.7807 22.3438 5.07812 22.3438C2.27805 22.3438 0 24.6218 0 27.4219C0 28.8754 0.614844 30.1873 1.59688 31.1138C0.623672 31.9022 0 33.1059 0 34.4531V38.3594C0 39.0066 0.524687 39.5312 1.17188 39.5312H38.8281C39.4753 39.5312 40 39.0066 40 38.3594V34.4531C40 33.339 39.5736 32.3227 38.8756 31.5584C39.5666 30.9159 40 30 40 28.9844ZM32.2961 24.2969C32.2961 24.943 31.7704 25.4688 31.1242 25.4688C30.478 25.4688 29.9523 24.943 29.9523 24.2969C29.9523 24.2959 29.9522 24.2948 29.9522 24.2938V23.2014L32.2961 21.8481V24.2969ZM23.4375 2.8125C25.376 2.8125 26.9531 4.38961 26.9531 6.32812C26.9531 8.26664 25.376 9.84375 23.4375 9.84375C21.499 9.84375 19.9219 8.26664 19.9219 6.32812C19.9219 4.38961 21.499 2.8125 23.4375 2.8125ZM14.3273 18.0469C14.3273 14.816 16.9559 12.1875 20.1867 12.1875H26.4367C28.2802 12.1875 29.9642 13.0288 31.0601 14.4429L24.6791 18.127C24.2833 18.3555 23.9433 18.6582 23.6704 19.0112C23.1177 18.6491 22.4578 18.4376 21.7491 18.4376H19.0148V17.2657C19.0148 16.6185 18.4902 16.0938 17.843 16.0938C17.1958 16.0938 16.6711 16.6185 16.6711 17.2657V19.6095C16.6711 20.2566 17.1958 20.7813 17.843 20.7813H21.7491C22.3952 20.7813 22.9209 21.307 22.9209 21.9532C22.9209 22.5994 22.3952 23.1251 21.7491 23.1251H16.2805C15.2035 23.1251 14.3273 22.2489 14.3273 21.172V18.0469ZM12.5 25.4688H24.0928C24.74 25.4688 25.2647 24.9441 25.2647 24.2969C25.2647 24.2969 25.2747 21.2249 25.2748 21.173C25.2752 20.7447 25.4906 20.3648 25.851 20.1566L32.6169 16.2504C33.1765 15.9272 33.8945 16.1196 34.2177 16.6793C34.5408 17.2389 34.3484 17.957 33.7887 18.2801L28.1945 21.51C27.8319 21.7194 27.6085 22.1062 27.6085 22.5248V26.6406C27.6085 27.2878 28.1332 27.8125 28.7804 27.8125H36.4844C37.1305 27.8125 37.6562 28.3382 37.6562 28.9844C37.6562 29.6305 37.1305 30.1562 36.4844 30.1562H12.5C11.2077 30.1562 10.1562 29.1048 10.1562 27.8125C10.1562 26.5202 11.2077 25.4688 12.5 25.4688ZM5.07812 24.6875C6.58586 24.6875 7.8125 25.9141 7.8125 27.4219C7.8125 28.9296 6.58586 30.1562 5.07812 30.1562C3.57039 30.1562 2.34375 28.9296 2.34375 27.4219C2.34375 25.9141 3.57039 24.6875 5.07812 24.6875ZM37.6562 37.1875H2.34375V34.4531C2.34375 33.3762 3.21992 32.5 4.29688 32.5H35.7031C36.7801 32.5 37.6562 33.3762 37.6562 34.4531V37.1875Z" fill="white" stroke="#19181C" stroke-width="0.4"/>
</g>
<defs>
<clipPath id="clip0_189_7417">
<rect width="40" height="40" fill="white"/>
</clipPath>
</defs>
</svg>
