<svg width="46" height="46" viewBox="0 0 46 46" fill="none" xmlns="http://www.w3.org/2000/svg">
<g clip-path="url(#clip0_189_7468)">
<path d="M18.5018 0C15.1935 0 12.502 2.69154 12.502 5.99987C12.502 9.30819 15.1935 11.9997 18.5018 11.9997C21.8101 11.9997 24.5017 9.30819 24.5017 5.99987C24.5017 2.69154 21.8101 0 18.5018 0ZM18.5018 8.99975C16.8477 8.99975 15.5019 7.65398 15.5019 5.99987C15.5019 4.34575 16.8477 2.99998 18.5018 2.99998C20.1559 2.99998 21.5017 4.34575 21.5017 5.99987C21.5018 7.65398 20.156 8.99975 18.5018 8.99975Z" fill="white" stroke="#19181C"/>
<path d="M33.2072 37.0979C33.3969 36.6006 33.4918 36.0618 33.4918 35.4988V28.4064C33.4918 25.9252 31.4832 23.9066 29.002 23.9066H21.3776C21.4602 22.8224 21.4922 21.7452 21.4922 20.683V16.4995C21.4922 12.5157 16.6484 10.491 13.8204 13.319L7.82056 19.3189C6.06159 21.0779 6.06141 23.923 7.82056 25.6822L11.4183 29.2799C10.5071 32.928 9.07693 36.2753 7.25867 39.0025C5.87795 41.0723 6.43319 43.863 8.50669 45.2431C10.5806 46.6252 13.3708 46.0596 14.7464 43.9952C16.8583 40.8283 18.5671 37.0558 19.7357 33H24.5015L24.5021 35.499C24.5021 36.0619 24.6071 36.6006 24.7967 37.0978C21.2322 37.676 18.5016 40.7742 18.5016 44.4996C18.5016 45.328 19.1731 45.9996 20.0015 45.9996H38.001C38.8294 45.9996 39.501 45.328 39.501 44.4996C39.5008 40.7746 36.771 37.6767 33.2072 37.0979ZM12.2502 42.331C11.7904 43.0211 10.8593 43.2056 10.1695 42.746C9.47898 42.2864 9.29265 41.359 9.75445 40.6667C11.4703 38.0933 12.8676 35.0371 13.8587 31.7183C14.6104 32.4529 15.5738 32.8934 16.6103 32.9823C15.5397 36.4327 14.0527 39.628 12.2502 42.331ZM18.5022 20.6829C18.5022 21.6214 18.4662 22.5731 18.3966 23.5316L16.3049 21.4398C15.7192 20.8541 14.7694 20.8541 14.1837 21.4398C13.5979 22.0255 13.5979 22.9753 14.1837 23.561L18.0624 27.4399C18.3458 27.7233 18.502 28.1 18.502 28.5002C18.502 28.9005 18.3458 29.2772 18.0624 29.5606C17.4776 30.1453 16.5263 30.1453 15.9415 29.5606L9.94168 23.5607C9.35509 22.9739 9.35518 22.0265 9.94168 21.4398C16.7244 14.6572 15.8507 15.5301 15.9566 15.4264C16.9076 14.5013 18.5022 15.1841 18.5022 16.4992V20.6829ZM21.2436 30.0098C21.5954 29.0098 21.5828 27.8898 21.2081 26.8963H29.0019C29.829 26.8963 30.5018 27.5792 30.5018 28.4062V35.4986C30.5018 36.3257 29.829 36.9986 29.0019 36.9986C28.1748 36.9986 27.492 36.3257 27.492 35.4983L27.4912 31.4994C27.491 30.6711 26.8295 30.0097 26.0012 30.0097L21.2436 30.0098ZM21.7583 43.0094C22.3773 41.2634 24.0456 39.9994 26.0012 39.9994H32.0011C33.9567 39.9994 35.6248 41.2633 36.2439 43.0094H21.7583Z" fill="white" stroke="#19181C"/>
</g>
<defs>
<clipPath id="clip0_189_7468">
<rect width="46" height="46" fill="white"/>
</clipPath>
</defs>
</svg>
