<svg width="46" height="46" viewBox="0 0 46 46" fill="none" xmlns="http://www.w3.org/2000/svg">
<g clip-path="url(#clip0_189_7737)">
<path d="M41.745 37.7862H44.3571C44.7929 37.7862 45.2107 37.6131 45.5188 37.305C45.8269 36.9969 46 36.579 46 36.1433C46 35.7076 45.8269 35.2897 45.5188 34.9816C45.2107 34.6735 44.7929 34.5004 44.3571 34.5004H42.7143V29.5719H44.3571C44.7929 29.5719 45.2107 29.3988 45.5188 29.0907C45.8269 28.7826 46 28.3647 46 27.929C46 27.4933 45.8269 27.0754 45.5188 26.7673C45.2107 26.4592 44.7929 26.2862 44.3571 26.2862H41.8436C41.3465 25.6157 41.0761 24.8043 41.0714 23.9697V12.059C41.0772 10.9076 40.8408 9.76775 40.3776 8.71355C39.9144 7.65935 39.2348 6.71431 38.3828 5.93975C37.5308 5.16518 36.5254 4.57841 35.432 4.21748C34.3385 3.85656 33.1814 3.72956 32.0357 3.84472C29.9493 4.04187 27.83 4.30472 25.7107 4.56758C25.4278 4.17322 25.0555 3.8515 24.6243 3.62876C24.1932 3.40603 23.7153 3.28862 23.23 3.28615H19.4843C18.7387 3.28345 18.0176 3.55196 17.4554 4.04163C16.8932 4.5313 16.5282 5.20871 16.4286 5.94758L12.995 6.57187H8.37857C7.52492 6.57505 6.68974 6.32335 5.98 5.84901L5.78286 5.71758C5.22126 5.3471 4.5699 5.13544 3.89779 5.10504C3.22569 5.07464 2.55787 5.22663 1.96512 5.54489C1.37237 5.86316 0.876755 6.33586 0.530799 6.91289C0.184844 7.48992 0.00143204 8.14979 0 8.82258C0.00191019 9.40015 0.137945 9.96937 0.39738 10.4854C0.656816 11.0014 1.03256 11.4501 1.495 11.7962L6.06214 15.2133C7.14447 16.0384 8.47703 16.4672 9.83741 16.4284C11.1978 16.3895 12.5037 15.8852 13.5371 14.9997C14.5229 15.3283 15.525 15.5912 16.5436 15.8212C16.7222 16.4651 17.106 17.0332 17.6367 17.4394C18.1674 17.8456 18.816 18.0676 19.4843 18.0719H19.7143V32.8576C18.7974 33.0191 17.9663 33.4974 17.3658 34.2089C16.7654 34.9204 16.4337 35.8201 16.4286 36.7512V39.429H1.64286C1.20714 39.429 0.789277 39.6021 0.481182 39.9102C0.173086 40.2183 0 40.6362 0 41.0719C0 41.5076 0.173086 41.9254 0.481182 42.2335C0.789277 42.5416 1.20714 42.7147 1.64286 42.7147H44.3571C44.7929 42.7147 45.2107 42.5416 45.5188 42.2335C45.8269 41.9254 46 41.5076 46 41.0719C46 40.6362 45.8269 40.2183 45.5188 39.9102C45.2107 39.6021 44.7929 39.429 44.3571 39.429H39.9871C40.2229 39.2568 40.4478 39.0702 40.6607 38.8704L41.745 37.7862ZM14.7857 9.5783L16.4286 9.28258V12.4533C15.87 12.3054 15.3279 12.1576 14.7857 11.9769V9.5783ZM8.03357 12.6012L3.46643 9.16758C3.41112 9.12852 3.36588 9.07686 3.33446 9.01688C3.30304 8.95689 3.28633 8.8903 3.28571 8.82258C3.28472 8.74219 3.30559 8.66303 3.3461 8.59358C3.38662 8.52413 3.44524 8.467 3.51571 8.4283C3.58256 8.38768 3.65928 8.3662 3.7375 8.3662C3.81572 8.3662 3.89244 8.38768 3.95929 8.4283L4.15643 8.55972C5.40315 9.40317 6.87334 9.8551 8.37857 9.85758H11.5V12.4204C11.026 12.8345 10.4266 13.0775 9.79804 13.1102C9.16946 13.143 8.54809 12.9637 8.03357 12.6012ZM32.3479 7.11401C33.0349 7.05006 33.7277 7.13107 34.3814 7.35181C35.0351 7.57255 35.6352 7.9281 36.1429 8.39544C36.6585 8.85661 37.0712 9.42115 37.3543 10.0523C37.6373 10.6835 37.7843 11.3673 37.7857 12.059V23.9697C37.7785 25.643 38.3601 27.2655 39.4286 28.5533V35.4697L38.3443 36.554C37.8033 37.0956 37.1252 37.48 36.3826 37.666C35.64 37.8519 34.8608 37.8325 34.1284 37.6097C33.396 37.387 32.7379 36.9693 32.2246 36.4013C31.7113 35.8334 31.3621 35.1366 31.2143 34.3854L31.5 35.2879L31.2143 34.2047C30.8197 31.4287 30.9873 28.6018 31.7071 25.8919C32.363 22.7767 32.7478 19.6106 32.8571 16.429C32.8571 15.2954 32.8571 14.1454 32.8571 13.0447C32.8502 12.7832 32.7808 12.5271 32.6549 12.2977C32.529 12.0684 32.3501 11.8724 32.1331 11.7262C31.9162 11.5799 31.6674 11.4876 31.4076 11.4569C31.1478 11.4262 30.8843 11.4581 30.6393 11.5497C29.2312 12.1036 27.7734 12.5217 26.2857 12.7983V7.86972C28.3064 7.55758 30.3436 7.31115 32.3479 7.11401ZM19.7143 6.57187H23V14.7862H19.7143V6.57187ZM19.7143 39.429V36.8169C19.7143 36.7284 19.7317 36.6408 19.7656 36.5591C19.7994 36.4774 19.849 36.4031 19.9116 36.3406C19.9741 36.278 20.0484 36.2284 20.1301 36.1946C20.2118 36.1607 20.2994 36.1433 20.3879 36.1433H22.3264C22.4149 36.1433 22.5025 36.1607 22.5842 36.1946C22.6659 36.2284 22.7402 36.278 22.8027 36.3406C22.8653 36.4031 22.9149 36.4774 22.9487 36.5591C22.9826 36.6408 23 36.7284 23 36.8169V39.429H19.7143ZM26.2857 39.429V36.8169C26.2961 35.8746 25.9715 34.9592 25.3697 34.2341C24.7679 33.5089 23.9281 33.0211 23 32.8576V18.0719H23.23C23.8426 18.067 24.4399 17.8801 24.946 17.5349C25.4521 17.1897 25.8441 16.7019 26.0721 16.1333C27.254 15.9739 28.4232 15.7324 29.5714 15.4104C29.5714 15.7062 29.5714 16.0347 29.5714 16.3797C29.4537 19.3688 29.08 22.3423 28.4543 25.2676C27.6296 28.3856 27.4507 31.6393 27.9286 34.829V34.9933C28.2823 36.7568 29.2628 38.3325 30.6886 39.429H26.2857Z" fill="white" stroke="#19181C" stroke-width="1.2"/>
</g>
<defs>
<clipPath id="clip0_189_7737">
<rect width="46" height="46" fill="white"/>
</clipPath>
</defs>
</svg>
