<svg width="46" height="46" viewBox="0 0 46 46" fill="none" xmlns="http://www.w3.org/2000/svg">
<g clip-path="url(#clip0_189_7758)">
<path d="M23.0878 6.41113L22.9901 6.41149C19.4159 6.43665 16.0452 7.8501 13.4989 10.3913C10.9525 12.9327 9.53253 16.3006 9.50054 19.8747C9.4664 23.6903 11.0513 27.3671 13.8488 29.9623C14.8348 30.877 15.4003 32.157 15.4003 33.474V40.8288H18.148V41.0606C18.148 43.7845 20.364 46.0005 23.0878 46.0005C25.8117 46.0005 28.0277 43.7845 28.0277 41.0606V40.8288H30.7753V33.4576C30.7753 32.1453 31.3294 30.882 32.2954 29.9915C35.079 27.4253 36.6757 23.7832 36.6757 19.999C36.6756 12.5066 30.5801 6.41113 23.0878 6.41113ZM25.3318 41.0605C25.3318 42.298 24.3252 43.3047 23.0877 43.3047C21.8502 43.3047 20.8435 42.298 20.8435 41.0605V40.8287H25.3317V41.0605H25.3318ZM18.096 38.1331V34.8219H28.0795V38.1331H18.096ZM30.4681 28.0094C29.2807 29.104 28.4895 30.5576 28.2011 32.1261H24.4356V27.4381L28.0991 25.0818V21.0245H25.4034V23.6105L23.0878 25.0999L20.7721 23.6105V21.0245H18.0764V25.0818L21.7399 27.4381V32.1261H17.9705C17.677 30.5572 16.8787 29.096 15.682 27.986C13.4393 25.9054 12.1687 22.9578 12.1961 19.8989C12.249 13.9899 17.0997 9.14879 23.0089 9.1071L23.0877 9.10683C29.0936 9.10683 33.9798 13.993 33.9798 19.9989C33.9799 23.0324 32.6999 25.9521 30.4681 28.0094Z" fill="white"/>
<path d="M21.6523 0H24.348V3.64225H21.6523V0Z" fill="white"/>
<path d="M11.8281 3.34473L14.1626 1.99688L15.9884 5.15916L13.6539 6.507L11.8281 3.34473Z" fill="white"/>
<path d="M4.99805 11.1621L6.3459 8.82764L9.50817 10.6534L8.16032 12.9879L4.99805 11.1621Z" fill="white"/>
<path d="M2.99219 18.6504H6.64378V21.3461H2.99219V18.6504Z" fill="white"/>
<path d="M39.3574 18.6504H43.009V21.3461H39.3574V18.6504Z" fill="white"/>
<path d="M36.4902 10.6523L39.6526 8.8265L41.0004 11.161L37.8381 12.9868L36.4902 10.6523Z" fill="white"/>
<path d="M30.0117 5.16016L31.8375 1.99788L34.172 3.34573L32.3462 6.508L30.0117 5.16016Z" fill="white"/>
</g>
<defs>
<clipPath id="clip0_189_7758">
<rect width="46" height="46" fill="white"/>
</clipPath>
</defs>
</svg>
