<svg width="123" height="54" viewBox="0 0 123 54" fill="none" xmlns="http://www.w3.org/2000/svg">
<g clip-path="url(#clip0_179_7072)">
<path d="M20.3045 41H17.6813C17.0472 41 16.6668 41.0709 16.2072 41.5988L9.64504 48.5558L8.18679 41.6067C8.10754 41.0788 7.7509 41 7.12481 41H4.69968H4.69175L0 53.9764H3.62184L5.68241 48.2958L6.99008 53.9764H8.59098L14.1624 48.2721L12.0939 53.9764H15.6128L20.3204 41H20.3045Z" fill="white" fill-opacity="0.6"/>
<path d="M123 44.2461H120.781L121.367 42.623H117.73L117.143 44.2461H114.916L114.14 46.3891H116.359L113.617 53.9764H117.246L119.996 46.3891H122.223L123 44.2461ZM84.3406 41H84.3327H75.9161C75.0205 41 74.0378 41.7248 73.7128 42.623L70.1861 52.3533C69.8612 53.2515 70.3208 53.9764 71.2084 53.9764H82.8665L83.5639 52.0855H76.2014V52.0776H75.1077C74.545 52.0776 74.1804 51.597 74.2993 51.0533L75.4643 47.823C75.4722 47.8152 75.4722 47.8152 75.4722 47.8073L76.13 45.9873L76.5738 44.7661C76.7403 44.317 77.2316 43.9545 77.6755 43.9545H82.066C82.5099 43.9545 82.7397 44.3091 82.5812 44.7661L81.9868 46.3891H85.6245L86.3932 44.2461C87.051 42.4497 86.1317 41 84.3406 41ZM113.292 42.6309H114.702L115.289 41.0158H111.072C111.065 41.0158 111.057 41.0158 111.049 41.0158C110.161 41.0158 109.178 41.7327 108.853 42.6309C108.845 42.6388 108.846 42.6388 108.846 42.6467L108.267 44.2461H106.048L105.271 46.3812H107.49L104.74 53.9606H108.37L111.12 46.3812H113.339L114.108 44.2461H111.889L112.19 43.4424C112.348 42.9933 112.84 42.6309 113.292 42.6309ZM103.75 44.2461H96.2047L95.4201 46.3812H100.136C100.579 46.3812 100.809 46.7436 100.651 47.1927L99.1925 51.2739C99.0261 51.7152 98.5347 52.0855 98.0909 52.0855H95.1982C94.7544 52.0855 94.5246 51.723 94.6831 51.2818L94.9129 50.6279C95.0793 50.1867 95.5707 49.8321 96.0066 49.8321H99.0182L99.668 48.0752H93.8034C92.9157 48.0752 91.9251 48.8236 91.5922 49.7139L90.657 52.3533C90.3321 53.2436 90.7918 53.9685 91.6794 53.9685H96.3949C97.0131 53.9685 97.5203 53.7321 98.4951 53.157L98.2019 53.9685H100.69H101.84L104.78 45.8691C105.105 44.9709 104.645 44.2461 103.75 44.2461ZM51.0466 44.2461H48.8196L49.414 42.623H45.7763L45.1819 44.2461H42.9628L42.1861 46.3812H44.4052L41.6552 53.9764H45.2929L48.0429 46.3812H50.262L51.0466 44.2461ZM53.3449 44.2461C52.4494 44.2461 51.4666 44.9709 51.1417 45.8691L48.7879 52.3612C48.463 53.2594 48.9226 53.9842 49.8102 53.9842H59.5662L60.2557 52.0855H53.3291C52.8853 52.0855 52.6554 51.723 52.8139 51.2739L54.2959 47.2006C54.4624 46.7515 54.9537 46.3891 55.3976 46.3891H57.8306C58.2744 46.3891 58.5043 46.7515 58.3458 47.2006L58.0367 48.083H54.6447L54.0265 49.8321H61.0483L61.8883 47.4921C62.5382 45.7036 61.6189 44.2539 59.8357 44.2539C59.8357 44.2539 59.8331 44.2539 59.8278 44.2539L53.3449 44.2461ZM69.449 44.2461C68.8309 44.2461 68.3237 44.4903 67.3488 45.0576L67.6421 44.2461H64.0123L60.4856 53.9685H64.1233L66.588 47.1927C66.7465 46.7436 67.2379 46.3812 67.6896 46.3812H71.3194L72.0882 44.2461H69.449ZM30.322 44.2461H20.1539L19.3693 46.3812H26.716C27.1599 46.3812 27.3897 46.7436 27.2233 47.1927L25.765 51.2739C25.5986 51.7152 25.1072 52.0855 24.6634 52.0855H21.7707C21.3269 52.0855 21.105 51.723 21.2555 51.2818L21.4854 50.6279C21.6518 50.1867 22.1352 49.8242 22.5791 49.8242H25.5907L26.2326 48.0752H20.3758C19.4803 48.0752 18.4896 48.8236 18.1647 49.7139L17.2216 52.3533C16.9046 53.2436 17.3642 53.9685 18.2519 53.9685H22.9595C23.5856 53.9685 24.0928 53.7321 25.0676 53.157L24.7744 53.9685H27.2629H28.4121L31.3523 45.8691C31.6773 44.9709 31.2176 44.2461 30.322 44.2461ZM41.457 50.2261C41.457 48.9812 40.5932 48.0988 39.1983 48.0988H35.4972C35.2753 48.0988 35.1564 47.9097 35.2357 47.6891L35.2278 47.7206L35.5606 46.7358C35.6557 46.5309 35.8776 46.3812 36.0837 46.3812H41.4016L42.1782 44.2461H34.4352C33.5397 44.2461 32.557 44.9709 32.232 45.8691L31.4157 48.2091C31.0987 49.0994 31.5505 49.8164 32.4302 49.8242V49.8321H37.328C37.7718 49.8321 38.0016 50.1945 37.8352 50.6436L37.5974 51.2739C37.4389 51.723 36.9476 52.0855 36.5037 52.0855H29.9733L29.2918 53.9764H38.6753C39.5629 53.9764 40.5615 53.2515 40.8785 52.3533C41.2034 51.4552 41.465 50.5727 41.457 50.2261ZM92.7731 44.2461C92.147 44.2461 91.6398 44.4903 90.665 45.0576L90.9661 44.2461H87.3284L83.8096 53.9685H87.4394L89.9041 47.1927C90.0706 46.7436 90.5619 46.3812 91.0057 46.3812H94.6434L95.4122 44.2461H92.7731Z" fill="white" fill-opacity="0.7"/>
</g>
<defs>
<clipPath id="clip0_179_7072">
<rect width="123" height="13" fill="white" transform="translate(0 41)"/>
</clipPath>
</defs>
</svg>
