<svg width="74" height="74" viewBox="0 0 74 74" fill="none" xmlns="http://www.w3.org/2000/svg">
<rect width="74" height="74" fill="#557A95"/>
<circle cx="36.5" cy="36.5" r="22" stroke="white"/>
<path d="M34.312 40.147C34.312 39.595 34.3733 39.089 34.496 38.629C34.634 38.169 34.841 37.755 35.117 37.387C35.4083 37.0037 35.784 36.6663 36.244 36.375C36.52 36.191 36.8343 35.9993 37.187 35.8C37.555 35.6007 37.9 35.3707 38.222 35.11C38.5593 34.834 38.8353 34.512 39.05 34.144C39.2647 33.7607 39.372 33.3083 39.372 32.787C39.372 32.2043 39.234 31.7213 38.958 31.338C38.6973 30.9393 38.3523 30.6403 37.923 30.441C37.4937 30.2417 37.0337 30.142 36.543 30.142C36.037 30.142 35.5617 30.2417 35.117 30.441C34.6723 30.6403 34.2813 30.9087 33.944 31.246C33.622 31.568 33.3537 31.9283 33.139 32.327L31.782 31.43C32.058 30.8013 32.4413 30.2647 32.932 29.82C33.438 29.3753 34.0053 29.038 34.634 28.808C35.2627 28.578 35.9143 28.463 36.589 28.463C37.1563 28.463 37.7083 28.555 38.245 28.739C38.797 28.9077 39.2877 29.176 39.717 29.544C40.1617 29.912 40.5143 30.372 40.775 30.924C41.0357 31.476 41.166 32.1277 41.166 32.879C41.166 33.4617 41.0893 33.96 40.936 34.374C40.7827 34.788 40.568 35.1483 40.292 35.455C40.0313 35.7617 39.7247 36.03 39.372 36.26C39.0193 36.49 38.6513 36.7123 38.268 36.927C37.9 37.1263 37.5397 37.3487 37.187 37.594C36.8497 37.8393 36.566 38.1613 36.336 38.56C36.1213 38.9433 36.014 39.4723 36.014 40.147H34.312ZM34.358 45V42.332H36.06V45H34.358Z" fill="white"/>
</svg>
