<svg width="18" height="19" viewBox="0 0 18 19" fill="none" xmlns="http://www.w3.org/2000/svg">
<g clip-path="url(#clip0_29_146)">
<path d="M7.35849 14.8222C3.32076 14.8222 0 11.5392 0 7.46372C0 3.42598 3.28302 0.105225 7.35849 0.105225C11.434 0.105225 14.717 3.38824 14.717 7.46372C14.6792 11.5392 11.3962 14.8222 7.35849 14.8222ZM7.35849 1.19956C3.88679 1.19956 1.0566 4.02975 1.0566 7.50145C1.0566 10.9731 3.88679 13.8033 7.35849 13.8033C10.8302 13.8033 13.6604 10.9731 13.6604 7.50145C13.6226 4.02975 10.7925 1.19956 7.35849 1.19956Z" fill="#7795AA"/>
<path d="M17.1698 18.1052L12.0377 13.0109L12.8679 12.1807L17.9623 17.3127L17.1698 18.1052Z" fill="#7795AA"/>
</g>
<defs>
<clipPath id="clip0_29_146">
<rect width="18" height="18" fill="white" transform="translate(0 0.105225)"/>
</clipPath>
</defs>
</svg>
