<svg width="18" height="18" viewBox="0 0 18 18" fill="none" xmlns="http://www.w3.org/2000/svg">
<g clip-path="url(#clip0_176_2696)">
<path d="M7.35849 14.717C3.32076 14.717 0 11.434 0 7.35849C0 3.32075 3.28302 0 7.35849 0C11.434 0 14.717 3.28302 14.717 7.35849C14.6792 11.434 11.3962 14.717 7.35849 14.717ZM7.35849 1.09434C3.88679 1.09434 1.0566 3.92453 1.0566 7.39622C1.0566 10.8679 3.88679 13.6981 7.35849 13.6981C10.8302 13.6981 13.6604 10.8679 13.6604 7.39622C13.6226 3.92453 10.7925 1.09434 7.35849 1.09434Z" fill="#062843"/>
<path d="M17.1697 18L12.0376 12.9057L12.8678 12.0755L17.9621 17.2075L17.1697 18Z" fill="#062843"/>
</g>
<defs>
<clipPath id="clip0_176_2696">
<rect width="18" height="18" fill="white"/>
</clipPath>
</defs>
</svg>
