<svg width="22" height="21" viewBox="0 0 22 21" fill="none" xmlns="http://www.w3.org/2000/svg">
<g clip-path="url(#clip0_109_7960)">
<path d="M10.9143 13.4432C12.7143 13.4432 14.1734 11.984 14.1734 10.1841C14.1734 8.38418 12.7143 6.92505 10.9143 6.92505C9.1144 6.92505 7.65527 8.38418 7.65527 10.1841C7.65527 11.984 9.1144 13.4432 10.9143 13.4432Z" fill="#7395AE"/>
<path d="M15.3952 0H6.43283C4.92021 0 3.46955 0.600886 2.39996 1.67047C1.33038 2.74005 0.729492 4.19072 0.729492 5.70334V14.6657C0.729492 16.1784 1.33038 17.629 2.39996 18.6986C3.46955 19.7682 4.92021 20.3691 6.43283 20.3691H15.3952C16.9078 20.3691 18.3585 19.7682 19.4281 18.6986C20.4977 17.629 21.0986 16.1784 21.0986 14.6657V5.70334C21.0986 4.19072 20.4977 2.74005 19.4281 1.67047C18.3585 0.600886 16.9078 0 15.3952 0ZM10.914 15.0731C9.94716 15.0731 9.002 14.7864 8.19808 14.2492C7.39416 13.7121 6.76758 12.9486 6.39757 12.0553C6.02757 11.162 5.93076 10.1791 6.11938 9.23082C6.30801 8.28253 6.7736 7.41147 7.45728 6.72779C8.14096 6.04411 9.01202 5.57852 9.96031 5.38989C10.9086 5.20126 11.8915 5.29808 12.7848 5.66808C13.6781 6.03808 14.4416 6.66467 14.9787 7.46859C15.5159 8.27251 15.8026 9.21767 15.8026 10.1845C15.8026 11.4811 15.2876 12.7245 14.3708 13.6413C13.454 14.5581 12.2106 15.0731 10.914 15.0731ZM16.21 6.11072C15.9683 6.11072 15.732 6.03904 15.531 5.90475C15.33 5.77046 15.1734 5.57959 15.0809 5.35627C14.9884 5.13295 14.9642 4.88722 15.0113 4.65015C15.0585 4.41308 15.1749 4.19531 15.3458 4.02439C15.5167 3.85347 15.7345 3.73707 15.9716 3.68992C16.2086 3.64276 16.4544 3.66696 16.6777 3.75946C16.901 3.85196 17.0919 4.00861 17.2262 4.20959C17.3605 4.41057 17.4321 4.64686 17.4321 4.88858C17.4321 5.21271 17.3034 5.52357 17.0742 5.75276C16.845 5.98196 16.5341 6.11072 16.21 6.11072Z" fill="#7395AE"/>
</g>
<defs>
<clipPath id="clip0_109_7960">
<rect width="20.3691" height="20.3691" fill="white" transform="translate(0.729492)"/>
</clipPath>
</defs>
</svg>
