<svg width="26" height="26" viewBox="0 0 26 26" fill="none" xmlns="http://www.w3.org/2000/svg">
<path d="M24.0146 5.57576C23.1948 5.94014 22.3126 6.18593 21.387 6.29592C22.3321 5.73011 23.0568 4.83387 23.3985 3.76472C22.5145 4.28934 21.5359 4.67001 20.4934 4.87551C19.6592 3.98651 18.4701 3.43066 17.1543 3.43066C14.628 3.43066 12.5798 5.47889 12.5798 8.00557C12.5798 8.36362 12.6201 8.71261 12.6984 9.04802C8.89617 8.857 5.52485 7.036 3.2684 4.26806C2.8746 4.94341 2.64918 5.72921 2.64918 6.56842C2.64918 8.1554 3.4567 9.55589 4.68428 10.3761C3.9347 10.3521 3.22902 10.1461 2.61206 9.80349C2.61161 9.8225 2.61161 9.84196 2.61161 9.86143C2.61161 12.0776 4.18863 13.9262 6.28168 14.3472C5.89783 14.4513 5.49362 14.5074 5.07628 14.5074C4.78115 14.5074 4.49462 14.4789 4.21534 14.425C4.7979 16.2424 6.48718 17.5655 8.48879 17.6022C6.92308 18.8293 4.95089 19.5608 2.80715 19.5608C2.43825 19.5608 2.07386 19.539 1.71582 19.4965C3.74097 20.7951 6.14543 21.552 8.72869 21.552C17.1439 21.552 21.745 14.5812 21.745 8.53562C21.745 8.33736 21.7409 8.13956 21.7323 7.94311C22.6259 7.29944 23.4017 6.49328 24.0146 5.57576Z" fill="#7395AE"/>
</svg>
