<svg width="34" height="35" viewBox="0 0 34 35" fill="none" xmlns="http://www.w3.org/2000/svg">
<rect y="0.105225" width="34" height="34" fill="#8DAEC6"/>
<g clip-path="url(#clip0_19_1191)">
<path d="M17 20.0579C18.631 20.0579 19.9532 18.7357 19.9532 17.1048C19.9532 15.4738 18.631 14.1516 17 14.1516C15.369 14.1516 14.0469 15.4738 14.0469 17.1048C14.0469 18.7357 15.369 20.0579 17 20.0579Z" fill="#557A95"/>
<path d="M21.0606 7.87671H12.9394C11.5688 7.87671 10.2543 8.42119 9.2851 9.39038C8.31591 10.3596 7.77142 11.6741 7.77142 13.0447V21.1658C7.77142 22.5365 8.31591 23.851 9.2851 24.8202C10.2543 25.7894 11.5688 26.3338 12.9394 26.3338H21.0606C22.4312 26.3338 23.7457 25.7894 24.7149 24.8202C25.6841 23.851 26.2286 22.5365 26.2286 21.1658V13.0447C26.2286 11.6741 25.6841 10.3596 24.7149 9.39038C23.7457 8.42119 22.4312 7.87671 21.0606 7.87671ZM17 21.535C16.1239 21.535 15.2674 21.2752 14.539 20.7885C13.8105 20.3017 13.2427 19.6099 12.9075 18.8005C12.5722 17.991 12.4845 17.1004 12.6554 16.2411C12.8263 15.3818 13.2482 14.5925 13.8677 13.973C14.4872 13.3535 15.2765 12.9316 16.1358 12.7607C16.9951 12.5898 17.8857 12.6775 18.6952 13.0128C19.5046 13.348 20.1964 13.9158 20.6832 14.6443C21.1699 15.3727 21.4297 16.2292 21.4297 17.1053C21.4297 18.2801 20.963 19.4068 20.1323 20.2376C19.3015 21.0683 18.1748 21.535 17 21.535ZM21.7989 13.4139C21.5798 13.4139 21.3657 13.3489 21.1836 13.2272C21.0015 13.1055 20.8595 12.9326 20.7757 12.7302C20.6919 12.5279 20.67 12.3052 20.7127 12.0904C20.7554 11.8756 20.8609 11.6782 21.0158 11.5234C21.1707 11.3685 21.368 11.263 21.5828 11.2203C21.7976 11.1775 22.0203 11.1995 22.2226 11.2833C22.425 11.3671 22.598 11.5091 22.7196 11.6912C22.8413 11.8733 22.9063 12.0874 22.9063 12.3064C22.9063 12.6001 22.7896 12.8818 22.5819 13.0895C22.3742 13.2972 22.0926 13.4139 21.7989 13.4139Z" fill="#557A95"/>
</g>
<defs>
<clipPath id="clip0_19_1191">
<rect width="18.4571" height="18.4571" fill="white" transform="translate(7.77142 7.87671)"/>
</clipPath>
</defs>
</svg>
