<svg width="34" height="35" viewBox="0 0 34 35" fill="none" xmlns="http://www.w3.org/2000/svg">
<rect y="0.105225" width="34" height="34" fill="#8DAEC6"/>
<path d="M26.6172 10.9862C25.8744 11.3164 25.075 11.5391 24.2362 11.6388C25.0926 11.1261 25.7493 10.314 26.0589 9.34518C25.2579 9.82055 24.3711 10.1655 23.4265 10.3517C22.6706 9.54616 21.5931 9.04248 20.4008 9.04248C18.1117 9.04248 16.2557 10.8985 16.2557 13.188C16.2557 13.5124 16.2922 13.8286 16.3632 14.1326C12.9178 13.9595 9.86294 12.3094 7.81829 9.80128C7.46146 10.4132 7.2572 11.1253 7.2572 11.8857C7.2572 13.3237 7.98892 14.5928 9.10128 15.336C8.42205 15.3142 7.78261 15.1276 7.22356 14.8171C7.22315 14.8344 7.22315 14.852 7.22315 14.8696C7.22315 16.8778 8.65215 18.5529 10.5487 18.9343C10.2009 19.0286 9.83464 19.0795 9.45647 19.0795C9.18905 19.0795 8.92942 19.0537 8.67635 19.0049C9.20423 20.6517 10.7349 21.8505 12.5487 21.8838C11.1299 22.9957 9.34286 23.6585 7.40034 23.6585C7.06606 23.6585 6.73588 23.6388 6.41145 23.6003C8.2465 24.777 10.4253 25.4628 12.7661 25.4628C20.3913 25.4628 24.5606 19.1464 24.5606 13.6683C24.5606 13.4886 24.5569 13.3094 24.5491 13.1314C25.3588 12.5481 26.0618 11.8176 26.6172 10.9862Z" fill="#557A95"/>
</svg>
