<svg width="212" height="161" viewBox="0 0 212 161" fill="none" xmlns="http://www.w3.org/2000/svg">
<g clip-path="url(#clip0_265_4875)">
<rect x="0.25" y="46" width="211" height="211" rx="105.5" fill="#E31E24"/>
<path d="M38.8203 132.25L42.8265 101.111C43.2362 97.7879 45.0117 94.7832 47.6522 92.7346L67.319 77.7568L77.9719 111.582L53.5249 138.851L38.8203 132.25Z" fill="#F6B381"/>
<path d="M66.8641 88.2273L53.07 99.6541C52.6148 100.064 52.3872 100.656 52.5237 101.293L57.4404 120.368C57.7591 121.643 59.398 122.007 60.2175 120.96L70.0509 108.395C70.4606 107.849 70.5061 107.12 70.0964 106.528L69.1404 88.546C68.6396 87.7721 67.5925 87.6355 66.8641 88.2273Z" fill="#F6906B"/>
<path d="M166.925 107.667L162.919 76.5282C162.509 73.2049 160.734 70.2002 158.093 68.1516L138.426 53.1738L127.773 86.999L152.22 114.268L166.925 107.667Z" fill="#F6B381"/>
<path d="M138.881 63.6443L152.675 75.0711C153.13 75.4809 153.358 76.0727 153.221 76.71L148.305 95.785C147.986 97.0597 146.347 97.424 145.528 96.3769L135.694 83.812C135.285 83.2657 135.239 82.5372 135.649 81.9454L136.605 63.963C137.106 63.1891 138.198 63.0525 138.881 63.6443Z" fill="#F6906B"/>
<path d="M128.781 126.423H79.3407C72.9217 126.423 67.7773 121.233 67.7773 114.859V11.6083C67.7773 5.18925 72.9672 0.0449219 79.3407 0.0449219H128.781C135.2 0.0449219 140.344 5.23478 140.344 11.6083V114.859C140.344 121.233 135.2 126.423 128.781 126.423Z" fill="#1F1F1F"/>
<path d="M135.148 108.487H72.961C72.3236 108.487 71.7773 107.986 71.7773 107.303V21.0333C71.7773 20.3959 72.2781 19.8496 72.961 19.8496H135.194C135.831 19.8496 136.377 20.3504 136.377 21.0333V107.303C136.332 107.941 135.786 108.487 135.148 108.487Z" fill="#F9FBFC"/>
<path d="M104.056 119.914C106.143 119.914 107.835 118.222 107.835 116.135C107.835 114.048 106.143 112.356 104.056 112.356C101.969 112.356 100.277 114.048 100.277 116.135C100.277 118.222 101.969 119.914 104.056 119.914Z" fill="white"/>
<path d="M110.428 13.6126H97.6808C96.9069 13.6126 96.2695 12.9752 96.2695 12.2013C96.2695 11.4274 96.9069 10.79 97.6808 10.79H110.428C111.202 10.79 111.839 11.4274 111.839 12.2013C111.839 12.9752 111.202 13.6126 110.428 13.6126Z" fill="white"/>
<path d="M104.422 45.3431C109.375 45.3431 113.39 41.3278 113.39 36.3747C113.39 31.4216 109.375 27.4062 104.422 27.4062C99.4684 27.4062 95.4531 31.4216 95.4531 36.3747C95.4531 41.3278 99.4684 45.3431 104.422 45.3431Z" fill="#E31E26"/>
<path d="M107.975 33.8253C107.975 35.6463 106.472 37.1486 104.651 37.1486C102.83 37.1486 101.328 35.6463 101.328 33.8253C101.328 32.0043 102.83 30.502 104.651 30.502C106.472 30.502 107.975 32.0043 107.975 33.8253Z" fill="white"/>
<path d="M99.0508 43.5216C99.0508 40.5169 101.509 38.0586 104.514 38.0586C107.518 38.0586 109.977 40.5169 109.977 43.5216C109.977 43.5216 107.473 45.6613 104.423 45.7068C101.418 45.7523 99.0508 43.5216 99.0508 43.5216Z" fill="white"/>
<path d="M129.19 58.9103H81.1159C80.433 58.9103 79.8867 58.364 79.8867 57.6811V53.1286C79.8867 52.4457 80.433 51.8994 81.1159 51.8994H129.19C129.873 51.8994 130.42 52.4457 130.42 53.1286V57.6811C130.465 58.364 129.873 58.9103 129.19 58.9103Z" fill="#D8DEE8"/>
<path d="M84.5368 57.2852V54.0703L84.6348 54.1683H83.3313V53.8547H86.1001V54.1683H84.8015L84.8946 54.0703V57.2852H84.5368ZM87.0601 55.3886H88.8734V55.6973H87.0601V55.3886ZM87.0993 56.9715H89.1625V57.2852H86.7367V53.8547H89.089V54.1683H87.0993V56.9715ZM89.7172 57.3146C89.6714 57.3146 89.6273 57.3113 89.5849 57.3048C89.5424 57.3015 89.495 57.2933 89.4427 57.2803L89.4722 56.9568C89.5277 56.9699 89.5816 56.9764 89.6339 56.9764C89.7809 56.9764 89.8985 56.9192 89.9867 56.8049C90.0782 56.6873 90.1468 56.5076 90.1926 56.2658C90.2383 56.0208 90.2677 55.7071 90.2808 55.3249L90.3298 53.8547H92.6576V57.2852H92.2998V54.0703L92.393 54.1683H90.5601L90.6483 54.0654L90.6042 55.3151C90.5911 55.6581 90.5666 55.9554 90.5307 56.207C90.4948 56.4553 90.4425 56.6628 90.3739 56.8294C90.3053 56.9927 90.2171 57.1153 90.1092 57.1969C90.0014 57.2754 89.8707 57.3146 89.7172 57.3146ZM94.1384 55.3886H95.9516V55.6973H94.1384V55.3886ZM94.1776 56.9715H96.2408V57.2852H93.8149V53.8547H96.1673V54.1683H94.1776V56.9715ZM98.6579 57.0499C98.2495 57.0499 97.8999 56.9927 97.6092 56.8784C97.3184 56.7608 97.0946 56.5909 96.9378 56.3687C96.781 56.1466 96.7025 55.8787 96.7025 55.565C96.7025 55.2514 96.781 54.9851 96.9378 54.7662C97.0946 54.544 97.3184 54.3741 97.6092 54.2565C97.8999 54.1389 98.2495 54.0801 98.6579 54.0801C98.6612 54.0801 98.6693 54.0801 98.6824 54.0801C98.6955 54.0801 98.7086 54.0801 98.7216 54.0801C98.7347 54.0801 98.7429 54.0801 98.7461 54.0801C99.1578 54.0801 99.509 54.1389 99.7998 54.2565C100.091 54.3741 100.314 54.544 100.471 54.7662C100.628 54.9851 100.706 55.2514 100.706 55.565C100.706 55.8787 100.628 56.1466 100.471 56.3687C100.318 56.5909 100.095 56.7608 99.8047 56.8784C99.5139 56.9927 99.166 57.0499 98.7608 57.0499C98.7543 57.0499 98.7429 57.0499 98.7265 57.0499C98.7135 57.0499 98.6988 57.0499 98.6824 57.0499C98.6693 57.0499 98.6612 57.0499 98.6579 57.0499ZM98.6971 56.7657C98.7037 56.7657 98.7102 56.7657 98.7167 56.7657C98.7233 56.7657 98.7282 56.7657 98.7314 56.7657C99.0745 56.7624 99.3669 56.715 99.6086 56.6236C99.8537 56.5288 100.04 56.3932 100.167 56.2168C100.295 56.0371 100.358 55.8199 100.358 55.565C100.358 55.3069 100.293 55.0896 100.162 54.9132C100.035 54.7368 99.8504 54.6028 99.6086 54.5114C99.3701 54.4166 99.081 54.3692 98.7412 54.3692C98.738 54.3692 98.7314 54.3692 98.7216 54.3692C98.7118 54.3692 98.7037 54.3692 98.6971 54.3692C98.3508 54.3692 98.0551 54.415 97.8101 54.5065C97.5651 54.5979 97.3772 54.7335 97.2465 54.9132C97.1158 55.0896 97.0505 55.3069 97.0505 55.565C97.0505 55.8264 97.1158 56.0469 97.2465 56.2266C97.3805 56.403 97.57 56.537 97.815 56.6285C98.0633 56.7199 98.3573 56.7657 98.6971 56.7657ZM98.5354 57.4028V53.7371H98.8735V57.4028H98.5354ZM103.034 57.3146C102.776 57.3146 102.536 57.2721 102.314 57.1871C102.095 57.0989 101.904 56.9764 101.74 56.8196C101.58 56.6595 101.455 56.4749 101.363 56.2658C101.275 56.0535 101.231 55.8215 101.231 55.5699C101.231 55.3183 101.275 55.088 101.363 54.8789C101.455 54.6666 101.58 54.482 101.74 54.3251C101.904 54.1651 102.095 54.0425 102.314 53.9576C102.533 53.8694 102.773 53.8253 103.034 53.8253C103.292 53.8253 103.531 53.8694 103.75 53.9576C103.969 54.0425 104.158 54.1634 104.318 54.3202C104.482 54.4771 104.607 54.6617 104.696 54.874C104.787 55.0864 104.833 55.3183 104.833 55.5699C104.833 55.8215 104.787 56.0535 104.696 56.2658C104.607 56.4782 104.482 56.6628 104.318 56.8196C104.158 56.9764 103.969 57.0989 103.75 57.1871C103.531 57.2721 103.292 57.3146 103.034 57.3146ZM103.034 56.9911C103.24 56.9911 103.43 56.9568 103.603 56.8882C103.779 56.8163 103.931 56.7167 104.058 56.5893C104.189 56.4586 104.29 56.3083 104.362 56.1384C104.434 55.9652 104.47 55.7757 104.47 55.5699C104.47 55.3641 104.434 55.1762 104.362 55.0063C104.29 54.8332 104.189 54.6829 104.058 54.5555C103.931 54.4248 103.779 54.3251 103.603 54.2565C103.43 54.1847 103.24 54.1487 103.034 54.1487C102.828 54.1487 102.637 54.1847 102.461 54.2565C102.284 54.3251 102.131 54.4248 102 54.5555C101.873 54.6829 101.771 54.8332 101.696 55.0063C101.624 55.1762 101.588 55.3641 101.588 55.5699C101.588 55.7725 101.624 55.9603 101.696 56.1335C101.771 56.3067 101.873 56.4586 102 56.5893C102.131 56.7167 102.284 56.8163 102.461 56.8882C102.637 56.9568 102.828 56.9911 103.034 56.9911ZM108.207 53.8547H108.565V57.2852H108.207V53.8547ZM106.061 57.2852H105.698V53.8547H106.061V57.2852ZM108.242 55.7022H106.022V55.3837H108.242V55.7022Z" fill="#606565"/>
<path d="M129.19 68.88H81.1159C80.433 68.88 79.8867 68.3337 79.8867 67.6508V63.0983C79.8867 62.4154 80.433 61.8691 81.1159 61.8691H129.19C129.873 61.8691 130.42 62.4154 130.42 63.0983V67.6508C130.465 68.2882 129.873 68.88 129.19 68.88Z" fill="#D8DEE8"/>
<path d="M85.0612 65.0698L84.3849 65.452V65.3736L85.0612 65.7559L84.9485 65.9617L84.282 65.5745L84.3359 65.55V66.2998H84.1105L84.1154 65.55L84.1644 65.5745L83.5028 65.9617L83.3852 65.7559L84.0664 65.3736V65.452L83.3852 65.0698L83.5028 64.8639L84.1644 65.2511L84.1154 65.2756L84.1105 64.5258H84.3359V65.2756L84.282 65.2511L84.9485 64.8639L85.0612 65.0698ZM87.0473 65.0698L86.371 65.452V65.3736L87.0473 65.7559L86.9346 65.9617L86.2681 65.5745L86.322 65.55V66.2998H86.0966L86.1015 65.55L86.1505 65.5745L85.4889 65.9617L85.3713 65.7559L86.0525 65.3736V65.452L85.3713 65.0698L85.4889 64.8639L86.1505 65.2511L86.1015 65.2756L86.0966 64.5258H86.322V65.2756L86.2681 65.2511L86.9346 64.8639L87.0473 65.0698ZM89.0334 65.0698L88.3571 65.452V65.3736L89.0334 65.7559L88.9207 65.9617L88.2542 65.5745L88.3081 65.55V66.2998H88.0827L88.0876 65.55L88.1366 65.5745L87.475 65.9617L87.3574 65.7559L88.0386 65.3736V65.452L87.3574 65.0698L87.475 64.8639L88.1366 65.2511L88.0876 65.2756L88.0827 64.5258H88.3081V65.2756L88.2542 65.2511L88.9207 64.8639L89.0334 65.0698ZM91.0195 65.0698L90.3433 65.452V65.3736L91.0195 65.7559L90.9068 65.9617L90.2403 65.5745L90.2942 65.55V66.2998H90.0688L90.0737 65.55L90.1227 65.5745L89.4611 65.9617L89.3435 65.7559L90.0247 65.3736V65.452L89.3435 65.0698L89.4611 64.8639L90.1227 65.2511L90.0737 65.2756L90.0688 64.5258H90.2942V65.2756L90.2403 65.2511L90.9068 64.8639L91.0195 65.0698ZM93.0057 65.0698L92.3294 65.452V65.3736L93.0057 65.7559L92.8929 65.9617L92.2265 65.5745L92.2804 65.55V66.2998H92.0549L92.0598 65.55L92.1088 65.5745L91.4472 65.9617L91.3296 65.7559L92.0108 65.3736V65.452L91.3296 65.0698L91.4472 64.8639L92.1088 65.2511L92.0598 65.2756L92.0549 64.5258H92.2804V65.2756L92.2265 65.2511L92.8929 64.8639L93.0057 65.0698ZM94.9918 65.0698L94.3155 65.452V65.3736L94.9918 65.7559L94.8791 65.9617L94.2126 65.5745L94.2665 65.55V66.2998H94.041L94.0459 65.55L94.095 65.5745L93.4334 65.9617L93.3157 65.7559L93.9969 65.3736V65.452L93.3157 65.0698L93.4334 64.8639L94.095 65.2511L94.0459 65.2756L94.041 64.5258H94.2665V65.2756L94.2126 65.2511L94.8791 64.8639L94.9918 65.0698ZM96.9779 65.0698L96.3016 65.452V65.3736L96.9779 65.7559L96.8652 65.9617L96.1987 65.5745L96.2526 65.55V66.2998H96.0272L96.0321 65.55L96.0811 65.5745L95.4195 65.9617L95.3019 65.7559L95.9831 65.3736V65.452L95.3019 65.0698L95.4195 64.8639L96.0811 65.2511L96.0321 65.2756L96.0272 64.5258H96.2526V65.2756L96.1987 65.2511L96.8652 64.8639L96.9779 65.0698ZM98.964 65.0698L98.2877 65.452V65.3736L98.964 65.7559L98.8513 65.9617L98.1848 65.5745L98.2387 65.55V66.2998H98.0133L98.0182 65.55L98.0672 65.5745L97.4056 65.9617L97.288 65.7559L97.9692 65.3736V65.452L97.288 65.0698L97.4056 64.8639L98.0672 65.2511L98.0182 65.2756L98.0133 64.5258H98.2387V65.2756L98.1848 65.2511L98.8513 64.8639L98.964 65.0698ZM100.95 65.0698L100.274 65.452V65.3736L100.95 65.7559L100.837 65.9617L100.171 65.5745L100.225 65.55V66.2998H99.9994L100.004 65.55L100.053 65.5745L99.3917 65.9617L99.2741 65.7559L99.9553 65.3736V65.452L99.2741 65.0698L99.3917 64.8639L100.053 65.2511L100.004 65.2756L99.9994 64.5258H100.225V65.2756L100.171 65.2511L100.837 64.8639L100.95 65.0698ZM102.936 65.0698L102.26 65.452V65.3736L102.936 65.7559L102.824 65.9617L102.157 65.5745L102.211 65.55V66.2998H101.986L101.99 65.55L102.039 65.5745L101.378 65.9617L101.26 65.7559L101.941 65.3736V65.452L101.26 65.0698L101.378 64.8639L102.039 65.2511L101.99 65.2756L101.986 64.5258H102.211V65.2756L102.157 65.2511L102.824 64.8639L102.936 65.0698Z" fill="#606565"/>
<path d="M110.474 85.5874H94.9044C93.2655 85.5874 91.9453 84.2672 91.9453 82.6283V81.5812C91.9453 79.9423 93.2655 78.6221 94.9044 78.6221H110.474C112.113 78.6221 113.433 79.9423 113.433 81.5812V82.6283C113.433 84.2672 112.113 85.5874 110.474 85.5874Z" fill="#E31E26"/>
<path d="M110.474 96.9243H94.9044C93.5417 96.9243 92.4453 95.8279 92.4453 94.4652V93.4181C92.4453 92.0554 93.5417 90.959 94.9044 90.959H110.474C111.837 90.959 112.933 92.0554 112.933 93.4181V94.4652C112.933 95.8279 111.837 96.9243 110.474 96.9243Z" stroke="#E31E26"/>
<path d="M144.895 127.607L142.482 120.004C142.345 119.64 142.072 119.321 141.708 119.185L132.694 115.588C124.408 112.265 124.727 99.3356 124.955 95.8757C125 95.3294 124.681 94.8741 124.226 94.6465L114.802 90.0485C111.57 88.5006 108.93 84.2668 108.93 80.6703C108.93 76.9373 111.798 74.8886 115.349 76.1633L139.431 84.8586C139.705 84.9497 139.932 85.1773 140.114 85.4049L152.725 106.574C153.043 107.075 153.681 107.348 154.227 107.12L164.88 103.569C165.608 103.342 166.382 103.752 166.564 104.525L171.527 126.924C171.709 127.743 171.071 128.517 170.252 128.517H146.033C145.577 128.517 145.077 128.153 144.895 127.607Z" fill="#F6B381"/>
<path d="M144.394 113.494C126.867 110.353 131.237 92.1884 131.237 92.1884L109.203 82.5371C109.886 85.6328 112.162 88.7285 114.848 90.0487L124.272 94.6468L125.046 95.0565C125.046 95.0565 125 95.4207 124.955 96.0581C124.955 96.1036 124.955 96.1491 124.955 96.1946C124.955 96.2857 124.955 96.3767 124.955 96.4678C124.955 96.5133 124.955 96.5588 124.955 96.6044C124.955 96.7409 124.955 96.923 124.955 97.1051C124.955 97.1507 124.955 97.1962 124.955 97.2417C124.955 97.3783 124.955 97.5149 124.955 97.6514C124.955 97.697 124.955 97.788 124.955 97.8791C124.955 98.0156 124.955 98.1522 124.955 98.2433C124.955 98.3343 124.955 98.4254 124.955 98.4709C124.955 98.6075 124.955 98.744 124.955 98.8806C124.955 98.9717 124.955 99.0627 124.955 99.1538C124.955 99.2903 124.955 99.4269 124.955 99.5635C124.955 99.6545 124.955 99.7456 124.955 99.8366C124.955 99.9732 124.955 100.155 124.955 100.337C124.955 100.428 124.955 100.52 124.955 100.565C124.955 100.793 125 101.066 125 101.339V101.384C125 101.612 125.046 101.885 125.046 102.113C125.046 102.204 125.046 102.295 125.091 102.386C125.091 102.568 125.137 102.75 125.137 102.932C125.137 103.023 125.182 103.114 125.182 103.251C125.182 103.433 125.228 103.57 125.273 103.752C125.273 103.843 125.319 103.979 125.319 104.07C125.365 104.253 125.365 104.389 125.41 104.571C125.41 104.662 125.456 104.799 125.456 104.89C125.501 105.072 125.547 105.254 125.547 105.436C125.547 105.527 125.592 105.618 125.592 105.709C125.638 105.937 125.683 106.165 125.774 106.392C125.774 106.438 125.82 106.483 125.82 106.574C125.911 106.848 125.956 107.121 126.047 107.394C126.093 107.485 126.093 107.53 126.138 107.621C126.184 107.804 126.275 108.031 126.321 108.213C126.366 108.304 126.412 108.395 126.412 108.486C126.457 108.669 126.548 108.805 126.594 108.987C126.639 109.078 126.685 109.215 126.73 109.306C126.821 109.488 126.867 109.625 126.958 109.807C127.003 109.898 127.049 109.989 127.094 110.125C127.186 110.307 127.277 110.444 127.322 110.626C127.368 110.717 127.413 110.808 127.459 110.899C127.55 111.081 127.686 111.263 127.777 111.446C127.823 111.491 127.868 111.582 127.914 111.628C128.051 111.855 128.233 112.083 128.415 112.311C128.46 112.356 128.506 112.402 128.506 112.447C128.642 112.629 128.779 112.811 128.915 112.948C128.961 113.039 129.052 113.084 129.098 113.175C129.234 113.312 129.325 113.449 129.462 113.585C129.553 113.676 129.598 113.722 129.689 113.813C129.826 113.949 129.963 114.04 130.099 114.177C130.19 114.268 130.281 114.314 130.372 114.405C130.509 114.496 130.645 114.632 130.782 114.723C130.873 114.769 130.964 114.86 131.055 114.905C131.237 114.996 131.374 115.088 131.556 115.179C131.647 115.224 131.738 115.27 131.784 115.315C132.057 115.452 132.33 115.588 132.603 115.679C133.696 116.135 134.697 116.499 135.562 116.863L135.881 117C136.518 117.273 137.064 117.5 137.611 117.682L138.703 118.138C142.209 119.549 142.209 119.549 142.209 119.549L144.804 127.744C144.986 128.29 145.487 128.654 146.033 128.654H151.86L148.446 114.268L144.394 113.494Z" fill="#F6906B"/>
<path d="M112.801 80.488L113.62 78.8946C114.03 78.0752 114.986 77.711 115.851 78.0296L119.903 79.4865C120.904 79.8507 121.405 81.0343 120.904 81.9903L119.721 84.2666C119.265 85.1771 118.082 85.5413 117.217 84.995L113.529 82.8098C112.664 82.3545 112.346 81.3075 112.801 80.488Z" fill="white"/>
<path d="M172.844 131.75L143.435 136.393C141.796 136.666 140.293 135.528 140.02 133.935L139.337 129.61C139.064 127.971 140.202 126.469 141.796 126.195L171.205 121.506C172.844 121.233 174.346 122.371 174.619 123.965L175.302 128.29C175.575 129.929 174.483 131.476 172.844 131.75Z" fill="#F1E8E1"/>
<path d="M158.139 134.071L144.026 136.302C142.068 136.621 140.247 135.3 139.974 133.343L139.473 130.156C139.155 128.198 140.475 126.377 142.432 126.104L156.545 123.874C158.503 123.555 160.324 124.875 160.597 126.833L161.098 130.019C161.416 131.932 160.096 133.753 158.139 134.071Z" fill="#DDD3D2"/>
<path d="M185.545 176L177.67 127.789L137.016 134.254L143.89 176H185.545Z" fill="#1F1F1F"/>
<path d="M168.747 176L162.419 137.622C161.781 133.616 158.048 130.93 154.042 131.567L137.016 134.253L143.89 176H168.747Z" fill="#3D3D3D"/>
<path d="M60.899 152.19L63.3119 144.587C63.4485 144.223 63.7216 143.904 64.0858 143.768L73.0998 140.171C81.3853 136.848 81.0667 123.919 80.839 120.459C80.7935 119.912 81.1122 119.457 81.5674 119.23L90.9911 114.632C94.2234 113.084 96.8639 108.85 96.8639 105.253C96.8639 101.52 93.9958 99.4716 90.4448 100.746L66.271 109.396C65.9979 109.487 65.7702 109.715 65.5881 109.942L52.9777 131.112C52.659 131.612 52.0217 131.886 51.4754 131.658L40.8225 128.107C40.0941 127.879 39.3202 128.289 39.1381 129.063L34.1758 151.461C33.9937 152.281 34.6311 153.055 35.4505 153.055H59.6699C60.2162 153.1 60.7169 152.736 60.899 152.19Z" fill="#F6B381"/>
<path d="M61.3985 138.077C78.9257 134.936 74.5553 116.771 74.5553 116.771L96.5894 107.12C95.9065 110.216 93.6303 113.312 90.9443 114.632L81.5206 119.23L80.7467 119.64C80.7467 119.64 80.7922 120.004 80.8377 120.641C80.8377 120.687 80.8377 120.732 80.8377 120.778C80.8377 120.869 80.8377 120.96 80.8377 121.051C80.8377 121.096 80.8377 121.142 80.8377 121.187C80.8377 121.324 80.8377 121.506 80.8377 121.688C80.8377 121.734 80.8377 121.779 80.8377 121.825C80.8377 121.961 80.8377 122.098 80.8377 122.234C80.8377 122.28 80.8377 122.371 80.8377 122.462C80.8377 122.599 80.8377 122.735 80.8377 122.826C80.8377 122.917 80.8377 123.008 80.8377 123.054C80.8377 123.19 80.8377 123.327 80.8377 123.464C80.8377 123.555 80.8377 123.646 80.8377 123.737C80.8377 123.873 80.8377 124.01 80.8377 124.146C80.8377 124.238 80.8377 124.329 80.8377 124.42C80.8377 124.556 80.8377 124.738 80.8377 124.92C80.8377 125.011 80.8377 125.103 80.8377 125.148C80.8377 125.376 80.7922 125.649 80.7922 125.922V125.968C80.7922 126.195 80.7467 126.468 80.7467 126.696C80.7467 126.787 80.7467 126.878 80.7011 126.969C80.7011 127.151 80.6556 127.333 80.6556 127.515C80.6556 127.606 80.6101 127.697 80.6101 127.834C80.6101 128.016 80.5646 128.153 80.519 128.335C80.519 128.426 80.4735 128.562 80.4735 128.653C80.428 128.836 80.428 128.972 80.3825 129.154C80.3825 129.245 80.3369 129.382 80.3369 129.473C80.2914 129.655 80.2459 129.837 80.2459 130.019C80.2459 130.11 80.2004 130.201 80.2004 130.292C80.1548 130.52 80.1093 130.748 80.0183 130.975C80.0183 131.021 79.9727 131.066 79.9727 131.157C79.8817 131.431 79.8362 131.704 79.7451 131.977C79.6996 132.068 79.6996 132.113 79.6541 132.204C79.6085 132.387 79.5175 132.614 79.472 132.796C79.4264 132.887 79.3809 132.978 79.3809 133.069C79.3354 133.252 79.2443 133.388 79.1988 133.57C79.1533 133.661 79.1078 133.798 79.0622 133.889C78.9712 134.071 78.9257 134.208 78.8346 134.39C78.7891 134.481 78.7436 134.572 78.698 134.708C78.607 134.89 78.5159 135.027 78.4704 135.209C78.4249 135.3 78.3794 135.391 78.3338 135.482C78.2428 135.664 78.1062 135.846 78.0152 136.029C77.9696 136.074 77.9241 136.165 77.8786 136.211C77.742 136.438 77.5599 136.666 77.3778 136.894C77.3323 136.939 77.2868 136.985 77.2868 137.03C77.1502 137.212 77.0136 137.394 76.877 137.531C76.8315 137.622 76.7405 137.667 76.6949 137.758C76.5584 137.895 76.4673 138.032 76.3307 138.168C76.2397 138.259 76.1942 138.305 76.1031 138.396C75.9665 138.532 75.83 138.623 75.6934 138.76C75.6023 138.851 75.5113 138.897 75.4202 138.988C75.2837 139.079 75.1471 139.215 75.0105 139.306C74.9195 139.352 74.8284 139.443 74.7374 139.488C74.5553 139.579 74.4187 139.671 74.2366 139.762C74.1455 139.807 74.0545 139.853 74.0089 139.898C73.7358 140.035 73.4626 140.171 73.1895 140.262C72.0969 140.718 71.0953 141.082 70.2304 141.446L69.9117 141.583C69.2743 141.856 68.728 142.083 68.1817 142.265L67.0891 142.721C63.5837 144.132 63.5837 144.132 63.5837 144.132L60.9888 152.327C60.8067 152.873 60.3059 153.237 59.7596 153.237H54.0234L57.4378 138.851L61.3985 138.077Z" fill="#F6906B"/>
<path d="M92.9952 105.071L92.1758 103.478C91.7661 102.658 90.81 102.294 89.9451 102.613L85.8933 104.069C84.8918 104.434 84.391 105.617 84.8918 106.573L86.0754 108.85C86.5307 109.76 87.7143 110.124 88.5793 109.578L92.2668 107.393C93.1318 106.938 93.405 105.89 92.9952 105.071Z" fill="white"/>
<path d="M32.9455 156.333L62.3547 161.022C63.9936 161.295 65.4959 160.157 65.7691 158.564L66.452 154.239C66.7251 152.6 65.587 151.098 63.9936 150.824L34.5844 146.135C32.9455 145.862 31.4432 147 31.17 148.594L30.4871 152.919C30.214 154.512 31.3066 156.06 32.9455 156.333Z" fill="#F1E8E1"/>
<path d="M47.6043 158.654L61.7171 160.885C63.6746 161.204 65.4956 159.883 65.7688 157.926L66.2696 154.739C66.5882 152.781 65.268 150.96 63.3104 150.687L49.1977 148.457C47.2401 148.138 45.4191 149.458 45.1459 151.416L44.6452 154.603C44.372 156.515 45.6922 158.336 47.6043 158.654Z" fill="#DDD3D2"/>
<path d="M65.9055 176L68.728 158.837L28.1196 152.372L24.25 176H65.9055Z" fill="#1F1F1F"/>
<path d="M65.9036 176L68.7261 158.837L51.6997 156.151C47.6935 155.514 43.9605 158.245 43.3231 162.206L41.0469 176H65.9036Z" fill="#3D3D3D"/>
</g>
<defs>
<clipPath id="clip0_265_4875">
<rect width="211" height="161" fill="white" transform="translate(0.25)"/>
</clipPath>
</defs>
</svg>
