<svg width="55" height="55" viewBox="0 0 55 55" fill="none" xmlns="http://www.w3.org/2000/svg">
<rect width="55" height="55" rx="4" fill="#E31E24"/>
<g clip-path="url(#clip0_252_4763)">
<path d="M34.1292 21.3904C33.9733 21.4386 33.8098 21.4597 33.6462 21.4482C33.4615 21.4405 33.2806 21.3827 33.1247 21.2808L32.3261 20.7881C31.9875 20.5938 31.5564 20.6977 31.3409 21.0248C31.1523 21.3654 31.2543 21.7926 31.5776 22.0101L32.3666 22.5027C32.5455 22.6085 32.738 22.6913 32.9381 22.749V23.4879C32.9381 23.8959 33.2691 24.2269 33.677 24.2269C34.085 24.2269 34.416 23.8959 34.416 23.4879V22.799C34.4987 22.7837 34.5814 22.7644 34.6623 22.7394C35.2857 22.5027 35.7745 22.0062 36.0016 21.3789C36.6327 19.4681 34.9374 18.758 33.9233 18.3443V18.3462C33.5808 18.2057 33.2518 18.0383 32.9381 17.8421C32.6033 17.615 32.5744 17.4476 32.6321 17.1724C32.6995 16.9319 32.8785 16.7375 33.1151 16.6509C33.2806 16.572 33.4654 16.5412 33.6462 16.5624C33.829 16.5701 34.008 16.6278 34.16 16.7298L34.9586 17.2224H34.9567C35.3031 17.4399 35.7591 17.336 35.9766 16.9915C36.194 16.6452 36.0901 16.1891 35.7456 15.9717L34.9471 15.479C34.7739 15.3617 34.5853 15.2731 34.3852 15.2116V14.4938C34.3852 14.0859 34.0542 13.7549 33.6463 13.7549C33.2383 13.7549 32.9073 14.0859 32.9073 14.4938V15.1827C32.7899 15.1827 32.661 15.2423 32.5321 15.2904H32.534C31.8528 15.5695 31.3506 16.1602 31.1832 16.878C30.9773 17.7189 31.3294 18.5983 32.0606 19.064C32.4686 19.318 32.9015 19.5335 33.3518 19.7048C34.6526 20.2475 34.7604 20.4341 34.593 20.9171C34.5141 21.1345 34.3447 21.3058 34.1292 21.3904Z" fill="white"/>
<path d="M43.814 27.587C43.1385 27.306 42.3746 27.3272 41.7165 27.6466L34.4351 30.8294C34.1773 30.0962 33.5134 29.5825 32.7398 29.5189L25.2215 28.0507H25.2234C24.7673 28.016 24.3113 28.1045 23.9033 28.3066C23.8475 28.3316 23.7994 28.3643 23.7551 28.4047L18.061 33.0942L17.1335 31.9319C16.8814 31.6491 16.4561 31.6009 16.1482 31.8242L10.9274 36.0307C10.7754 36.1519 10.6792 36.329 10.66 36.5233C10.6407 36.7177 10.6965 36.912 10.8178 37.066L17.8125 45.7252C17.9337 45.8792 18.1126 45.9773 18.3051 46.0004H18.384C18.5533 46.0023 18.7188 45.9427 18.8477 45.833L24.0202 41.6457C24.305 41.3936 24.3512 40.9684 24.128 40.6605L23.5661 39.9716L23.9798 39.6368H23.9818C24.255 39.5675 24.5379 39.5444 24.8188 39.5675L32.3465 39.7946H32.3446C33.1085 39.86 33.8687 39.6272 34.4632 39.1442L45.3009 30.3559C45.5452 30.1519 45.6357 29.817 45.5279 29.5188C45.2566 28.6606 44.6331 27.9582 43.8134 27.5868L43.814 27.587ZM18.4944 44.1976L12.4347 36.7103L16.4545 33.4582L22.5142 40.9361L18.4944 44.1976ZM33.5291 37.9108V37.9127C33.225 38.1667 32.8286 38.2841 32.4361 38.2379L24.8985 38.0108C24.3905 37.9704 23.8806 38.0339 23.4014 38.1975C23.3148 38.2206 23.234 38.261 23.1647 38.3168L22.6432 38.7498L18.9986 34.2373L24.6135 29.6075H24.6116C24.7405 29.5517 24.8771 29.5228 25.0157 29.5189L32.5434 30.9467C32.9571 30.9467 33.1438 31.2123 33.1052 31.7453C33.1052 32.2476 32.73 32.7306 32.3856 32.7306L26.6318 32.2572C26.4278 32.2225 26.2181 32.2764 26.0564 32.4034C25.8929 32.5304 25.7909 32.7209 25.7755 32.9268C25.7582 33.1327 25.8294 33.3367 25.9698 33.4887C26.1084 33.6388 26.3066 33.7254 26.5125 33.7254L32.2756 34.1988H32.2776C33.3629 34.2007 34.2923 33.4233 34.4847 32.3553L42.3666 28.9262C42.6591 28.7896 42.9978 28.7896 43.2922 28.9262C43.5597 29.0398 43.7887 29.2284 43.9522 29.4689L33.5291 37.9108Z" fill="white"/>
<path d="M33.6345 27.9909C35.9167 27.9794 38.1103 27.1019 39.769 25.5355C41.4278 23.9691 42.4284 21.8294 42.5708 19.5527C42.7113 17.2743 41.982 15.0287 40.5291 13.2678C39.0763 11.509 37.0077 10.366 34.7448 10.0735C32.4818 9.78293 30.1919 10.3602 28.3388 11.6938C26.4876 13.0254 25.2099 15.0132 24.7673 17.251H23.5954C23.3318 17.2587 23.0894 17.3992 22.9546 17.6262C22.8276 17.8552 22.8276 18.1342 22.9546 18.3652L24.7384 21.4383C24.8693 21.6673 25.1137 21.8097 25.3792 21.8097C25.6429 21.8097 25.8872 21.6673 26.0181 21.4383L27.7923 18.3652C27.9309 18.1381 27.9309 17.8533 27.7923 17.6262C27.6634 17.3973 27.4229 17.2549 27.1612 17.251H26.3241C26.7629 15.4114 27.8809 13.8027 29.4531 12.7501C31.0252 11.6975 32.936 11.2742 34.8063 11.5686C36.6748 11.863 38.3644 12.8521 39.5382 14.3377C40.7101 15.8232 41.2797 17.6955 41.1315 19.5831C40.9834 21.4689 40.1289 23.2296 38.7396 24.5152C37.3503 25.8006 35.528 26.5126 33.6346 26.5126C33.2267 26.5126 32.8957 26.8436 32.8957 27.2515C32.8957 27.6595 33.2267 27.9904 33.6346 27.9904L33.6345 27.9909Z" fill="white"/>
</g>
<defs>
<clipPath id="clip0_252_4763">
<rect width="36" height="36" fill="white" transform="translate(10 10)"/>
</clipPath>
</defs>
</svg>
