<svg width="212" height="161" viewBox="0 0 212 161" fill="none" xmlns="http://www.w3.org/2000/svg">
<g clip-path="url(#clip0_265_4929)">
<rect x="0.75" y="46" width="211" height="211" rx="105.5" fill="#E31E24"/>
<path d="M71.111 4.68652C65.1075 4.68652 60.2812 9.7383 60.2812 15.8856V205.114C60.2812 211.322 65.1664 216.313 71.111 216.313H143.388C149.391 216.313 154.217 211.262 154.217 205.114V15.8856C154.217 9.67744 149.332 4.68652 143.388 4.68652H71.111Z" fill="white"/>
<path d="M143.388 0H71.1117C62.6363 0 55.75 7.12118 55.75 15.8857V205.114C55.75 213.879 62.6363 221 71.1117 221H143.388C151.864 221 158.75 213.879 158.75 205.114V15.8857C158.75 7.12118 151.864 0 143.388 0ZM154.218 205.114C154.218 211.323 149.333 216.313 143.388 216.313H71.1117C65.1083 216.313 60.282 211.262 60.282 205.114V15.8857C60.282 9.6775 65.1671 4.68659 71.1117 4.68659H91.8883L93.0654 7.18205C93.5951 8.33848 94.7134 9.00799 95.8906 9.00799H118.668C119.904 9.00799 120.964 8.27761 121.493 7.18205L122.671 4.68659H143.447C149.451 4.68659 154.277 9.73837 154.277 15.8857V205.114H154.218Z" fill="#1F1F1F"/>
<path d="M145.864 12.5391H137.742V15.5214H145.864V12.5391Z" stroke="#1F1F1F" stroke-width="0.75" stroke-miterlimit="10"/>
<path d="M143.687 12.5391H137.742V15.5214H143.687V12.5391Z" fill="#1F1F1F" stroke="#1F1F1F" stroke-width="0.75" stroke-miterlimit="10"/>
<path d="M146.688 13.2695H145.805V14.7912H146.688V13.2695Z" fill="#1F1F1F" stroke="#1F1F1F" stroke-width="0.75" stroke-miterlimit="10"/>
<path d="M129.793 14.1816V15.7033" stroke="#1F1F1F" stroke-width="0.75" stroke-miterlimit="10"/>
<path d="M131.145 13.2686V15.7031" stroke="#1F1F1F" stroke-width="0.75" stroke-miterlimit="10"/>
<path d="M132.504 12.3555V15.703" stroke="#1F1F1F" stroke-width="0.75" stroke-miterlimit="10"/>
<path d="M133.852 11.3818V15.7032" stroke="#1F1F1F" stroke-width="0.75" stroke-miterlimit="10"/>
<path d="M135.152 10.4688V15.7031" stroke="#1F1F1F" stroke-width="0.75" stroke-miterlimit="10"/>
<path d="M107.262 79.875C96.0796 79.875 87.0156 70.5018 87.0156 58.9375C87.0156 47.3732 96.0796 38 107.262 38C118.445 38 127.509 47.3732 127.509 58.9375C127.509 70.5018 118.445 79.875 107.262 79.875ZM107.262 41.2258C97.8453 41.2258 90.1351 49.1383 90.1351 58.9375C90.1351 68.7367 97.7865 76.6491 107.262 76.6491C116.738 76.6491 124.39 68.7367 124.39 58.9375C124.39 49.1383 116.738 41.2258 107.262 41.2258Z" fill="#E31E24"/>
<path d="M107.262 79.5095L94.0781 72.8752C94.0781 68.0669 97.845 64.2324 102.436 64.2324H112.03C116.679 64.2324 120.387 68.1278 120.387 72.8752L107.262 79.5095Z" fill="#E31E24"/>
<path d="M107.259 61.8592C111.745 61.8592 115.381 58.0987 115.381 53.4599C115.381 48.8211 111.745 45.0605 107.259 45.0605C102.773 45.0605 99.1367 48.8211 99.1367 53.4599C99.1367 58.0987 102.773 61.8592 107.259 61.8592Z" fill="#E31E24"/>
<path d="M97.0627 104.063C96.644 104.063 96.2568 103.995 95.9009 103.859C95.5503 103.717 95.2441 103.521 94.9825 103.27C94.726 103.014 94.5245 102.715 94.378 102.375C94.2315 102.035 94.1582 101.661 94.1582 101.252C94.1582 100.844 94.2315 100.47 94.378 100.13C94.5245 99.7898 94.7286 99.4941 94.9903 99.2429C95.252 98.9865 95.5581 98.7902 95.9088 98.6541C96.2646 98.5128 96.6519 98.4422 97.0706 98.4422C97.4945 98.4422 97.8843 98.5155 98.2402 98.662C98.6013 98.8033 98.9075 99.0152 99.1587 99.2978L98.6484 99.7924C98.4391 99.5726 98.2036 99.4104 97.9419 99.3057C97.6802 99.1958 97.4003 99.1408 97.102 99.1408C96.7932 99.1408 96.5054 99.1932 96.2384 99.2978C95.9768 99.4025 95.7491 99.549 95.5555 99.7374C95.3619 99.9258 95.2101 100.151 95.1002 100.413C94.9955 100.669 94.9432 100.949 94.9432 101.252C94.9432 101.556 94.9955 101.839 95.1002 102.1C95.2101 102.357 95.3619 102.579 95.5555 102.768C95.7491 102.956 95.9768 103.102 96.2384 103.207C96.5054 103.312 96.7932 103.364 97.102 103.364C97.4003 103.364 97.6802 103.312 97.9419 103.207C98.2036 103.097 98.4391 102.93 98.6484 102.705L99.1587 103.199C98.9075 103.482 98.6013 103.696 98.2402 103.843C97.8843 103.99 97.4918 104.063 97.0627 104.063ZM101.791 104.047C101.346 104.047 100.954 103.956 100.613 103.772C100.278 103.589 100.017 103.338 99.8284 103.019C99.6452 102.7 99.5536 102.333 99.5536 101.92C99.5536 101.506 99.6426 101.14 99.8205 100.821C100.004 100.502 100.252 100.253 100.566 100.075C100.885 99.8918 101.244 99.8002 101.642 99.8002C102.045 99.8002 102.401 99.8892 102.709 100.067C103.018 100.245 103.259 100.496 103.432 100.821C103.609 101.14 103.698 101.514 103.698 101.943C103.698 101.975 103.696 102.011 103.691 102.053C103.691 102.095 103.688 102.134 103.683 102.171H100.142V101.629H103.29L102.984 101.818C102.989 101.551 102.934 101.313 102.819 101.103C102.704 100.894 102.544 100.732 102.34 100.617C102.141 100.496 101.909 100.436 101.642 100.436C101.38 100.436 101.147 100.496 100.943 100.617C100.739 100.732 100.579 100.897 100.464 101.111C100.349 101.321 100.292 101.561 100.292 101.833V101.959C100.292 102.236 100.354 102.485 100.48 102.705C100.611 102.919 100.791 103.087 101.022 103.207C101.252 103.328 101.516 103.388 101.814 103.388C102.06 103.388 102.283 103.346 102.482 103.262C102.686 103.178 102.864 103.053 103.015 102.885L103.432 103.372C103.243 103.592 103.008 103.759 102.725 103.874C102.448 103.99 102.136 104.047 101.791 104.047ZM107.073 104.047C106.728 104.047 106.411 103.969 106.124 103.812C105.841 103.649 105.613 103.411 105.441 103.097C105.273 102.783 105.189 102.391 105.189 101.92C105.189 101.449 105.27 101.056 105.433 100.742C105.6 100.428 105.825 100.193 106.108 100.036C106.396 99.8787 106.717 99.8002 107.073 99.8002C107.482 99.8002 107.843 99.8892 108.157 100.067C108.471 100.245 108.719 100.494 108.902 100.813C109.086 101.127 109.177 101.496 109.177 101.92C109.177 102.344 109.086 102.715 108.902 103.034C108.719 103.354 108.471 103.602 108.157 103.78C107.843 103.958 107.482 104.047 107.073 104.047ZM104.868 105.523V99.8395H105.59V100.962L105.543 101.928L105.621 102.893V105.523H104.868ZM107.011 103.388C107.277 103.388 107.516 103.328 107.725 103.207C107.939 103.087 108.107 102.917 108.227 102.697C108.353 102.472 108.416 102.213 108.416 101.92C108.416 101.621 108.353 101.365 108.227 101.15C108.107 100.931 107.939 100.761 107.725 100.64C107.516 100.52 107.277 100.46 107.011 100.46C106.749 100.46 106.511 100.52 106.296 100.64C106.087 100.761 105.919 100.931 105.794 101.15C105.673 101.365 105.613 101.621 105.613 101.92C105.613 102.213 105.673 102.472 105.794 102.697C105.919 102.917 106.087 103.087 106.296 103.207C106.511 103.328 106.749 103.388 107.011 103.388ZM110.272 104V99.8395H113.334V100.499H110.845L111.026 100.326V104H110.272ZM114.105 104V99.8395H114.859V104H114.105ZM114.482 99.0388C114.335 99.0388 114.212 98.9917 114.113 98.8975C114.019 98.8033 113.972 98.6882 113.972 98.5521C113.972 98.4108 114.019 98.293 114.113 98.1988C114.212 98.1046 114.335 98.0575 114.482 98.0575C114.628 98.0575 114.749 98.1046 114.843 98.1988C114.942 98.2878 114.992 98.4003 114.992 98.5364C114.992 98.6777 114.945 98.7981 114.851 98.8975C114.757 98.9917 114.634 99.0388 114.482 99.0388ZM116.328 104V99.8395H117.082V102.87L119.633 99.8395H120.316V104H119.562V100.97L117.019 104H116.328ZM118.275 99.2978C117.893 99.2978 117.592 99.2063 117.372 99.0231C117.158 98.8347 117.048 98.5652 117.043 98.2145H117.553C117.558 98.4134 117.623 98.5704 117.749 98.6855C117.88 98.8007 118.053 98.8582 118.267 98.8582C118.482 98.8582 118.654 98.8007 118.785 98.6855C118.916 98.5704 118.984 98.4134 118.989 98.2145H119.515C119.51 98.5652 119.398 98.8347 119.178 99.0231C118.958 99.2063 118.657 99.2978 118.275 99.2978Z" fill="#1F1F1F"/>
<path d="M70.1 118.81V114.19H71.39V118.81H70.1ZM68.37 117.11V115.89H73.13V117.11H68.37ZM79.2284 120.12C78.7417 120.12 78.2584 120.057 77.7784 119.93C77.2984 119.797 76.8917 119.61 76.5584 119.37L77.1884 118.13C77.455 118.323 77.765 118.477 78.1184 118.59C78.4717 118.703 78.8284 118.76 79.1884 118.76C79.595 118.76 79.915 118.68 80.1484 118.52C80.3817 118.36 80.4984 118.14 80.4984 117.86C80.4984 117.593 80.395 117.383 80.1884 117.23C79.9817 117.077 79.6484 117 79.1884 117H78.4484V115.93L80.3984 113.72L80.5784 114.3H76.9084V113H81.8084V114.05L79.8684 116.26L79.0484 115.79H79.5184C80.3784 115.79 81.0284 115.983 81.4684 116.37C81.9084 116.757 82.1284 117.253 82.1284 117.86C82.1284 118.253 82.025 118.623 81.8184 118.97C81.6117 119.31 81.295 119.587 80.8684 119.8C80.4417 120.013 79.895 120.12 79.2284 120.12ZM85.7763 120.12C85.1897 120.12 84.6763 120.033 84.2363 119.86C83.7963 119.68 83.453 119.43 83.2063 119.11C82.9597 118.783 82.8363 118.403 82.8363 117.97C82.8363 117.537 82.9563 117.17 83.1963 116.87C83.443 116.563 83.7863 116.333 84.2263 116.18C84.6663 116.02 85.183 115.94 85.7763 115.94C86.3763 115.94 86.8963 116.02 87.3363 116.18C87.783 116.333 88.1263 116.563 88.3663 116.87C88.613 117.17 88.7363 117.537 88.7363 117.97C88.7363 118.403 88.613 118.783 88.3663 119.11C88.1197 119.43 87.773 119.68 87.3263 119.86C86.8863 120.033 86.3697 120.12 85.7763 120.12ZM85.7763 118.93C86.183 118.93 86.503 118.84 86.7363 118.66C86.9763 118.48 87.0963 118.233 87.0963 117.92C87.0963 117.607 86.9763 117.363 86.7363 117.19C86.503 117.01 86.183 116.92 85.7763 116.92C85.3763 116.92 85.0597 117.01 84.8263 117.19C84.593 117.363 84.4763 117.607 84.4763 117.92C84.4763 118.233 84.593 118.48 84.8263 118.66C85.0597 118.84 85.3763 118.93 85.7763 118.93ZM85.7763 116.76C85.2363 116.76 84.763 116.687 84.3563 116.54C83.9563 116.393 83.643 116.18 83.4163 115.9C83.1963 115.613 83.0863 115.273 83.0863 114.88C83.0863 114.467 83.1997 114.113 83.4263 113.82C83.653 113.52 83.9697 113.29 84.3763 113.13C84.783 112.963 85.2497 112.88 85.7763 112.88C86.3163 112.88 86.7863 112.963 87.1863 113.13C87.593 113.29 87.9097 113.52 88.1363 113.82C88.3697 114.113 88.4863 114.467 88.4863 114.88C88.4863 115.273 88.373 115.613 88.1463 115.9C87.9263 116.18 87.613 116.393 87.2063 116.54C86.7997 116.687 86.323 116.76 85.7763 116.76ZM85.7763 115.81C86.1163 115.81 86.383 115.733 86.5763 115.58C86.7763 115.427 86.8763 115.217 86.8763 114.95C86.8763 114.67 86.773 114.453 86.5663 114.3C86.3663 114.147 86.103 114.07 85.7763 114.07C85.4563 114.07 85.1963 114.147 84.9963 114.3C84.7963 114.453 84.6963 114.67 84.6963 114.95C84.6963 115.217 84.793 115.427 84.9863 115.58C85.1797 115.733 85.443 115.81 85.7763 115.81ZM92.4779 120.12C91.9046 120.12 91.3912 119.98 90.9379 119.7C90.4846 119.413 90.1279 119 89.8679 118.46C89.6079 117.92 89.4779 117.267 89.4779 116.5C89.4779 115.733 89.6079 115.08 89.8679 114.54C90.1279 114 90.4846 113.59 90.9379 113.31C91.3912 113.023 91.9046 112.88 92.4779 112.88C93.0579 112.88 93.5712 113.023 94.0179 113.31C94.4712 113.59 94.8279 114 95.0879 114.54C95.3479 115.08 95.4779 115.733 95.4779 116.5C95.4779 117.267 95.3479 117.92 95.0879 118.46C94.8279 119 94.4712 119.413 94.0179 119.7C93.5712 119.98 93.0579 120.12 92.4779 120.12ZM92.4779 118.75C92.7512 118.75 92.9879 118.673 93.1879 118.52C93.3946 118.367 93.5546 118.123 93.6679 117.79C93.7879 117.457 93.8479 117.027 93.8479 116.5C93.8479 115.973 93.7879 115.543 93.6679 115.21C93.5546 114.877 93.3946 114.633 93.1879 114.48C92.9879 114.327 92.7512 114.25 92.4779 114.25C92.2112 114.25 91.9746 114.327 91.7679 114.48C91.5679 114.633 91.4079 114.877 91.2879 115.21C91.1746 115.543 91.1179 115.973 91.1179 116.5C91.1179 117.027 91.1746 117.457 91.2879 117.79C91.4079 118.123 91.5679 118.367 91.7679 118.52C91.9746 118.673 92.2112 118.75 92.4779 118.75ZM101.557 112.88C102.204 112.88 102.76 113.013 103.227 113.28C103.694 113.547 104.054 113.937 104.307 114.45C104.56 114.957 104.687 115.59 104.687 116.35C104.687 117.157 104.534 117.84 104.227 118.4C103.927 118.96 103.51 119.387 102.977 119.68C102.444 119.973 101.824 120.12 101.117 120.12C100.75 120.12 100.397 120.08 100.057 120C99.717 119.92 99.4237 119.8 99.177 119.64L99.777 118.45C99.9704 118.583 100.177 118.677 100.397 118.73C100.617 118.777 100.847 118.8 101.087 118.8C101.687 118.8 102.164 118.617 102.517 118.25C102.877 117.883 103.057 117.34 103.057 116.62C103.057 116.5 103.054 116.367 103.047 116.22C103.04 116.073 103.024 115.927 102.997 115.78L103.437 116.2C103.324 116.46 103.164 116.68 102.957 116.86C102.75 117.033 102.51 117.167 102.237 117.26C101.964 117.347 101.657 117.39 101.317 117.39C100.87 117.39 100.464 117.3 100.097 117.12C99.737 116.94 99.447 116.687 99.227 116.36C99.0137 116.033 98.907 115.65 98.907 115.21C98.907 114.73 99.0237 114.317 99.257 113.97C99.497 113.623 99.817 113.357 100.217 113.17C100.624 112.977 101.07 112.88 101.557 112.88ZM101.657 114.09C101.424 114.09 101.22 114.133 101.047 114.22C100.874 114.3 100.737 114.42 100.637 114.58C100.537 114.733 100.487 114.917 100.487 115.13C100.487 115.45 100.594 115.707 100.807 115.9C101.027 116.087 101.317 116.18 101.677 116.18C101.91 116.18 102.117 116.137 102.297 116.05C102.484 115.957 102.627 115.83 102.727 115.67C102.827 115.51 102.877 115.33 102.877 115.13C102.877 114.93 102.827 114.753 102.727 114.6C102.634 114.44 102.497 114.317 102.317 114.23C102.137 114.137 101.917 114.09 101.657 114.09ZM107.924 112.88C108.571 112.88 109.128 113.013 109.594 113.28C110.061 113.547 110.421 113.937 110.674 114.45C110.928 114.957 111.054 115.59 111.054 116.35C111.054 117.157 110.901 117.84 110.594 118.4C110.294 118.96 109.878 119.387 109.344 119.68C108.811 119.973 108.191 120.12 107.484 120.12C107.118 120.12 106.764 120.08 106.424 120C106.084 119.92 105.791 119.8 105.544 119.64L106.144 118.45C106.338 118.583 106.544 118.677 106.764 118.73C106.984 118.777 107.214 118.8 107.454 118.8C108.054 118.8 108.531 118.617 108.884 118.25C109.244 117.883 109.424 117.34 109.424 116.62C109.424 116.5 109.421 116.367 109.414 116.22C109.408 116.073 109.391 115.927 109.364 115.78L109.804 116.2C109.691 116.46 109.531 116.68 109.324 116.86C109.118 117.033 108.878 117.167 108.604 117.26C108.331 117.347 108.024 117.39 107.684 117.39C107.238 117.39 106.831 117.3 106.464 117.12C106.104 116.94 105.814 116.687 105.594 116.36C105.381 116.033 105.274 115.65 105.274 115.21C105.274 114.73 105.391 114.317 105.624 113.97C105.864 113.623 106.184 113.357 106.584 113.17C106.991 112.977 107.438 112.88 107.924 112.88ZM108.024 114.09C107.791 114.09 107.588 114.133 107.414 114.22C107.241 114.3 107.104 114.42 107.004 114.58C106.904 114.733 106.854 114.917 106.854 115.13C106.854 115.45 106.961 115.707 107.174 115.9C107.394 116.087 107.684 116.18 108.044 116.18C108.278 116.18 108.484 116.137 108.664 116.05C108.851 115.957 108.994 115.83 109.094 115.67C109.194 115.51 109.244 115.33 109.244 115.13C109.244 114.93 109.194 114.753 109.094 114.6C109.001 114.44 108.864 114.317 108.684 114.23C108.504 114.137 108.284 114.09 108.024 114.09ZM115.743 120V113.6L116.443 114.3H114.343V113H117.363V120H115.743ZM119.659 120V113.6L120.359 114.3H118.259V113H121.279V120H119.659ZM123.575 120V113.6L124.275 114.3H122.175V113H125.195V120H123.575ZM130.324 120V113.6L131.024 114.3H128.924V113H131.944V120H130.324ZM134.24 120V113.6L134.94 114.3H132.84V113H135.86V120H134.24ZM140.988 120V113.6L141.688 114.3H139.588V113H142.608V120H140.988ZM144.904 120V113.6L145.604 114.3H143.504V113H146.524V120H144.904Z" fill="#1F1F1F"/>
</g>
<defs>
<clipPath id="clip0_265_4929">
<rect width="211" height="161" fill="white" transform="translate(0.75)"/>
</clipPath>
</defs>
</svg>
