<svg width="212" height="161" viewBox="0 0 212 161" fill="none" xmlns="http://www.w3.org/2000/svg">
<g clip-path="url(#clip0_265_4962)">
<rect x="0.25" y="46" width="211" height="211" rx="105.5" fill="#E31E24"/>
<path d="M123.397 53.704C123.351 53.7105 123.312 53.7105 123.266 53.7105C122.576 53.7105 121.984 53.1442 121.919 52.3956C120.734 39.0249 116.672 26.3182 110.488 16.6255C105.007 8.03282 98.491 2.90978 93.0425 2.90978C93.036 2.90978 93.0295 2.90978 93.023 2.90978C73.1753 2.94884 69.0222 51.8944 68.9831 52.3891C68.918 53.1898 68.2671 53.7821 67.5185 53.717C66.7699 53.6454 66.2231 52.9424 66.2816 52.1417C66.4509 50.0131 70.7017 0.0520766 93.0165 0C93.023 0 93.0295 0 93.0425 0C99.4805 0 106.654 5.46154 112.727 14.985C119.165 25.0814 123.39 38.2763 124.62 52.1287C124.686 52.9229 124.139 53.6324 123.397 53.704Z" fill="#343434"/>
<path d="M40.5801 154.439L66.703 168.643L82.5343 116.469L56.4504 46.5234L49.0556 48.4698L37.833 148.926C37.5792 151.204 38.6793 153.404 40.5801 154.439Z" fill="#4A4A4A"/>
<path d="M56.25 47L154.642 52.3574L185.908 158.789L66.5091 169.12L56.25 47Z" fill="#353535"/>
<path d="M86.6307 56.1056C86.0188 56.1056 85.459 55.65 85.3157 54.9795C85.0358 53.7101 78.6369 23.7595 87.6657 9.05441C90.25 4.84271 93.8628 2.27143 98.4065 1.40565C121.737 -3.00784 136.097 50.8068 136.696 53.0982C136.898 53.8728 136.481 54.6735 135.758 54.8949C135.036 55.1162 134.287 54.6605 134.086 53.8859C133.942 53.3521 119.803 0.299024 98.8752 4.26987C95.0411 4.99243 92.1183 7.082 89.9245 10.6493C81.5337 24.3129 87.887 54.0095 87.9521 54.3025C88.1214 55.0836 87.6722 55.8648 86.9431 56.0536C86.839 56.0926 86.7348 56.1056 86.6307 56.1056Z" fill="#616161"/>
<path d="M162.366 103.093L131.823 73.3047C131.178 72.6798 130.254 72.504 129.453 72.8555L113.153 79.9705C111.78 80.5694 111.305 82.4051 112.196 83.681L138.801 121.775C139.537 122.83 140.917 123.057 141.919 122.296L162.164 106.875C163.336 105.976 163.44 104.141 162.366 103.093ZM127.435 83.7786C126.407 84.5207 124.786 83.8632 123.809 82.3139C122.84 80.7647 122.885 78.9029 123.914 78.1543C124.942 77.4122 126.563 78.0697 127.539 79.619C128.516 81.1748 128.464 83.0365 127.435 83.7786Z" fill="#D8DEE8"/>
<path d="M162.366 102.688L131.823 72.9004C131.178 72.2755 130.254 72.0997 129.453 72.4512L113.153 79.5662C111.78 80.1651 111.305 82.0008 112.196 83.2767L138.801 121.371C139.537 122.425 140.917 122.653 141.919 121.891L162.164 106.47C163.336 105.572 163.44 103.73 162.366 102.688ZM127.435 83.3743C126.407 84.1164 124.786 83.4589 123.809 81.9096C122.84 80.3604 122.885 78.4986 123.914 77.75C124.942 77.0079 126.563 77.6654 127.539 79.2147C128.516 80.7705 128.464 82.6322 127.435 83.3743Z" fill="#F4F7FA"/>
<path d="M121.094 76.0579C120.996 76.0579 120.905 75.9993 120.866 75.9082C119.805 73.415 118.379 71.2604 116.622 69.5028C111.811 64.6922 105.594 63.9371 99.5794 63.208C93.5971 62.4789 87.9468 61.7954 84.5748 57.0304C83.7221 55.8261 82.3941 53.6454 83.1037 52.5974C83.3901 52.1743 83.9564 51.9855 84.7962 52.0245C84.9329 52.0311 85.0435 52.1482 85.037 52.2849C85.0305 52.4216 84.9133 52.5323 84.7766 52.5258C84.3275 52.5063 83.7481 52.5518 83.5203 52.8838C83.1427 53.4436 83.7156 54.9539 84.985 56.744C88.2332 61.3202 93.7729 61.9972 99.6445 62.7133C105.737 63.4554 112.045 64.2235 116.98 69.1513C118.783 70.9544 120.247 73.1611 121.328 75.7129C121.38 75.8431 121.321 75.9863 121.198 76.0384C121.159 76.0514 121.126 76.0579 121.094 76.0579Z" fill="white"/>
<path d="M123.705 81.0958C123.64 81.0958 123.574 81.0698 123.529 81.0242C123.431 80.9266 123.431 80.7703 123.529 80.6727C123.548 80.6532 125.644 78.5375 125.631 75.7124C125.625 73.9808 124.837 72.3274 123.288 70.8042C120.001 67.5754 111.284 63.8389 103.59 60.5451C98.8966 58.5336 94.4571 56.6328 91.5473 54.9924C90.8898 54.6214 90.1868 54.2698 89.4708 53.9444C89.3471 53.8858 89.2885 53.736 89.3471 53.6124C89.4057 53.4887 89.5554 53.4301 89.6791 53.4887C90.4081 53.8207 91.1242 54.1787 91.7947 54.5563C94.6849 56.1836 99.1049 58.0779 103.785 60.0829C111.519 63.3963 120.281 67.1523 123.633 70.4461C125.28 72.067 126.12 73.8376 126.126 75.7124C126.133 78.7458 123.965 80.9331 123.874 81.0242C123.835 81.0763 123.77 81.0958 123.705 81.0958Z" fill="white"/>
<path d="M162.364 102.688L131.821 72.9004C131.177 72.2755 130.252 72.0997 129.452 72.4512L128 73.0827C128.378 74.4692 128.95 76.025 129.816 77.6133C134.327 85.887 141.729 85.529 143.441 91.2704C144.957 96.3609 139.873 99.0884 139.203 106.229C138.871 109.797 139.633 114.542 143.727 120.505L162.162 106.464C163.334 105.572 163.438 103.73 162.364 102.688Z" fill="white"/>
<path d="M139.05 113.598C138.639 113.598 138.242 113.377 138.015 112.973C137.67 112.361 137.852 111.56 138.418 111.183L153.13 101.594C153.703 101.223 154.445 101.418 154.796 102.03C155.141 102.642 154.959 103.443 154.386 103.82L139.674 113.409C139.486 113.539 139.264 113.598 139.05 113.598Z" fill="#D8DEE8"/>
<path d="M31.1016 157.808V161.381C31.1016 162.534 38.3142 163.471 47.2193 163.471C56.1244 163.471 63.337 162.534 63.337 161.381V157.808H31.1016Z" fill="#F49B51"/>
<path d="M63.3292 157.808C63.3292 158.961 56.1166 159.898 47.2115 159.898C38.3064 159.898 31.0938 158.961 31.0938 157.808C31.0938 156.656 38.3064 155.719 47.2115 155.719C56.1166 155.719 63.3292 156.656 63.3292 157.808Z" fill="#FCC659"/>
<path d="M47.2102 160.048C39.3271 160.048 31.0859 159.293 31.0859 157.841C31.0859 157.763 31.112 157.62 31.1966 157.62C31.2747 157.62 31.2422 157.731 31.2422 157.809C31.2422 158.727 37.8038 159.755 47.2102 159.755C56.623 159.755 63.1782 158.727 63.1782 157.809C63.1782 157.731 63.1912 157.653 63.2693 157.653C63.3474 157.653 63.3279 157.757 63.3279 157.841C63.3409 159.293 55.0933 160.048 47.2102 160.048Z" fill="url(#paint0_linear_265_4962)"/>
<path d="M45.6929 157.924C45.8491 157.814 46.0184 157.71 46.2006 157.599C46.3764 157.495 46.6107 157.397 46.8907 157.312C47.1706 157.228 47.5286 157.156 47.9517 157.104C48.3748 157.052 48.9086 157.02 49.5401 157.02C50.165 157.02 50.7443 157.039 51.2911 157.078C51.8379 157.124 52.3196 157.182 52.7363 157.267C53.1529 157.352 53.4914 157.456 53.7517 157.579C54.0121 157.703 54.1619 157.846 54.2139 158.009L56.0301 158.029C56.1603 158.029 56.2775 158.042 56.3751 158.061C56.4793 158.081 56.5248 158.107 56.5248 158.139V158.289L54.1944 158.269C54.1098 158.452 53.9015 158.621 53.5695 158.771C53.2375 158.92 52.8079 159.057 52.2936 159.168L51.4409 159.051C51.3627 159.038 51.3042 159.024 51.2521 159.005C51.2 158.985 51.1805 158.966 51.1805 158.946C51.1805 158.92 51.2456 158.888 51.3758 158.849C51.5059 158.81 51.6557 158.764 51.8184 158.712C51.9811 158.66 52.1439 158.595 52.3066 158.517C52.4629 158.445 52.5735 158.354 52.6256 158.25L47.1185 158.198C46.9753 158.302 46.8125 158.406 46.6303 158.51C46.448 158.614 46.2137 158.706 45.9142 158.79C45.6148 158.875 45.2502 158.94 44.8076 158.992C44.3649 159.044 43.8116 159.07 43.1346 159.077C42.6269 159.077 42.1387 159.057 41.657 159.018C41.1753 158.979 40.7456 158.914 40.3746 158.836C40.0035 158.758 39.6976 158.653 39.4567 158.536C39.2159 158.419 39.0857 158.282 39.0531 158.126L37.5624 158.113C37.4322 158.113 37.3151 158.1 37.2109 158.081C37.1068 158.061 37.0547 158.035 37.0547 158.002V157.853L39.0987 157.872C39.1898 157.716 39.3721 157.579 39.6585 157.462C39.9384 157.345 40.2899 157.241 40.6935 157.15L41.377 157.241C41.5854 157.267 41.6895 157.306 41.6895 157.345C41.6895 157.365 41.6505 157.391 41.5593 157.423C41.4747 157.456 41.3705 157.495 41.2534 157.534C41.1362 157.579 41.0255 157.631 40.9149 157.69C40.8042 157.749 40.7196 157.814 40.6675 157.892L45.6929 157.924ZM40.648 158.126C40.687 158.224 40.7782 158.308 40.9214 158.38C41.0581 158.452 41.2338 158.51 41.4421 158.556C41.6504 158.601 41.8848 158.634 42.1387 158.653C42.399 158.673 42.6725 158.686 42.9524 158.686C43.2844 158.686 43.5708 158.673 43.8181 158.64C44.0655 158.614 44.2803 158.575 44.4626 158.53C44.6449 158.484 44.8141 158.432 44.9508 158.367C45.0875 158.308 45.2112 158.237 45.3219 158.165L40.648 158.126ZM52.6386 157.996C52.5996 157.898 52.4954 157.807 52.3392 157.736C52.1829 157.664 51.9811 157.599 51.7403 157.547C51.4994 157.495 51.2195 157.456 50.894 157.436C50.5751 157.41 50.2171 157.397 49.833 157.404C49.488 157.404 49.1885 157.423 48.9412 157.449C48.6938 157.475 48.479 157.514 48.2967 157.566C48.1145 157.618 47.9582 157.67 47.8345 157.736C47.7044 157.801 47.5872 157.872 47.4765 157.944L52.6386 157.996Z" fill="#FCB048"/>
<path d="M47.2154 155.946C40.0288 155.946 32.5493 156.578 31.3516 157.802C31.3971 157.847 31.4427 157.893 31.4818 157.938C32.4907 157.085 38.6683 156.233 47.2154 156.233C55.9838 156.233 62.259 157.131 63.0207 158.003C63.0597 157.958 63.0988 157.912 63.1443 157.867C62.1484 156.604 54.5257 155.946 47.2154 155.946Z" fill="url(#paint1_linear_265_4962)"/>
<path d="M26.625 154.06V157.633C26.625 158.786 33.8376 159.723 42.7427 159.723C51.6413 159.723 58.8604 158.786 58.8604 157.633V154.06H26.625Z" fill="#F49B51"/>
<path d="M58.8526 154.06C58.8526 155.212 51.64 156.15 42.7349 156.15C33.8363 156.15 26.6172 155.212 26.6172 154.06C26.6172 152.908 33.8298 151.971 42.7349 151.971C51.6335 151.964 58.8526 152.902 58.8526 154.06Z" fill="#FCC659"/>
<path d="M42.7336 156.292C34.8505 156.292 26.6094 155.537 26.6094 154.086C26.6094 154.007 26.6354 153.864 26.72 153.864C26.7982 153.864 26.7656 153.975 26.7656 154.053C26.7656 154.971 33.3273 155.999 42.7336 155.999C52.1399 155.999 58.7016 154.971 58.7016 154.053C58.7016 153.975 58.7146 153.897 58.7927 153.897C58.8708 153.897 58.8513 154.001 58.8513 154.086C58.8578 155.537 50.6167 156.292 42.7336 156.292Z" fill="url(#paint2_linear_265_4962)"/>
<path d="M41.2124 154.17C41.3687 154.06 41.5379 153.956 41.7202 153.845C41.8959 153.741 42.1303 153.643 42.4102 153.559C42.6901 153.474 43.0481 153.402 43.4713 153.35C43.8944 153.298 44.4282 153.266 45.0596 153.266C45.6845 153.266 46.2639 153.285 46.8107 153.324C47.3575 153.37 47.8392 153.428 48.2558 153.513C48.6724 153.598 49.0109 153.702 49.2713 153.825C49.5317 153.949 49.6814 154.092 49.7335 154.255L51.5496 154.275C51.6798 154.275 51.797 154.288 51.8946 154.307C51.9988 154.327 52.0444 154.353 52.0444 154.385V154.535L49.7139 154.515C49.6293 154.698 49.421 154.867 49.089 155.017C48.757 155.166 48.3274 155.303 47.8131 155.414L46.9604 155.297C46.8823 155.284 46.8237 155.271 46.7716 155.251C46.7195 155.232 46.7 155.212 46.7 155.192C46.7 155.166 46.7651 155.134 46.8953 155.095C47.0255 155.056 47.1752 155.01 47.3379 154.958C47.5007 154.906 47.6634 154.841 47.8262 154.763C47.9824 154.691 48.0931 154.6 48.1451 154.496L42.638 154.444C42.4948 154.548 42.3321 154.652 42.1498 154.756C41.9675 154.86 41.7332 154.952 41.4338 155.036C41.1343 155.121 40.7698 155.186 40.3271 155.238C39.8845 155.29 39.3312 155.316 38.6542 155.323C38.1464 155.323 37.6582 155.303 37.1765 155.264C36.6948 155.225 36.2651 155.16 35.8941 155.082C35.5231 155.004 35.2171 154.9 34.9763 154.782C34.7354 154.665 34.6052 154.528 34.5727 154.372L33.082 154.359C32.9518 154.359 32.8346 154.346 32.7305 154.327C32.6263 154.307 32.5742 154.281 32.5742 154.249V154.099L34.6182 154.118C34.7094 153.962 34.8916 153.825 35.178 153.708C35.458 153.591 35.8095 153.487 36.2131 153.396L36.8966 153.487C37.1049 153.513 37.209 153.552 37.209 153.591C37.209 153.611 37.17 153.637 37.0788 153.669C36.9942 153.702 36.8901 153.741 36.7729 153.78C36.6557 153.825 36.5451 153.878 36.4344 153.936C36.3237 153.995 36.2391 154.06 36.187 154.138L41.2124 154.17ZM36.174 154.379C36.2131 154.476 36.3042 154.561 36.4474 154.633C36.5841 154.704 36.7599 154.763 36.9682 154.808C37.1765 154.854 37.4108 154.887 37.6647 154.906C37.9251 154.926 38.1985 154.939 38.4784 154.939C38.8104 154.939 39.0968 154.926 39.3442 154.893C39.5915 154.867 39.8064 154.828 39.9886 154.782C40.1709 154.737 40.3401 154.685 40.4768 154.62C40.6135 154.561 40.7372 154.489 40.8479 154.418L36.174 154.379ZM48.1647 154.242C48.1256 154.144 48.0214 154.053 47.8652 153.982C47.709 153.91 47.5072 153.845 47.2663 153.793C47.0255 153.741 46.7456 153.702 46.4201 153.682C46.1011 153.656 45.7431 153.643 45.359 153.65C45.014 153.65 44.7146 153.669 44.4672 153.695C44.2199 153.721 44.005 153.76 43.8228 153.812C43.6405 153.865 43.4843 153.917 43.3606 153.982C43.2304 154.047 43.1132 154.118 43.0026 154.19L48.1647 154.242Z" fill="#FCB048"/>
<path d="M42.7388 152.192C35.5523 152.192 28.0728 152.824 26.875 154.048C26.9206 154.093 26.9661 154.139 27.0052 154.184C28.0142 153.332 34.1918 152.479 42.7388 152.479C51.5072 152.479 57.7825 153.377 58.5441 154.249C58.5832 154.204 58.6222 154.158 58.6678 154.113C57.6718 152.85 50.0491 152.192 42.7388 152.192Z" fill="url(#paint3_linear_265_4962)"/>
<path d="M30.4922 150.308V153.881C30.4922 155.034 37.7048 155.971 46.6099 155.971C55.5085 155.971 62.7276 155.034 62.7276 153.881V150.308H30.4922Z" fill="#F49B51"/>
<path d="M62.7198 150.308C62.7198 151.461 55.5072 152.398 46.6021 152.398C37.7035 152.398 30.4844 151.461 30.4844 150.308C30.4844 149.156 37.697 148.219 46.6021 148.219C55.5007 148.219 62.7198 149.156 62.7198 150.308Z" fill="#FCC659"/>
<path d="M46.6008 152.548C38.7177 152.548 30.4766 151.793 30.4766 150.341C30.4766 150.263 30.5026 150.12 30.5872 150.12C30.6653 150.12 30.6328 150.231 30.6328 150.309C30.6328 151.227 37.1944 152.255 46.6008 152.255C56.0071 152.255 62.5688 151.227 62.5688 150.309C62.5688 150.231 62.5818 150.153 62.6599 150.153C62.738 150.153 62.7185 150.257 62.7185 150.341C62.725 151.793 54.4839 152.548 46.6008 152.548Z" fill="url(#paint4_linear_265_4962)"/>
<path d="M45.0796 150.425C45.2358 150.315 45.4051 150.211 45.5874 150.1C45.7631 149.996 45.9975 149.898 46.2774 149.813C46.5573 149.729 46.9153 149.657 47.3384 149.605C47.7616 149.553 48.2953 149.521 48.9268 149.521C49.5517 149.521 50.131 149.54 50.6779 149.579C51.2247 149.625 51.7064 149.683 52.123 149.768C52.5396 149.852 52.8781 149.957 53.1385 150.08C53.3989 150.204 53.5486 150.347 53.6007 150.51L55.4168 150.529C55.547 150.529 55.6642 150.543 55.7618 150.562C55.866 150.582 55.9116 150.608 55.9116 150.64V150.79L53.5811 150.77C53.4965 150.953 53.2882 151.122 52.9562 151.272C52.6242 151.421 52.1946 151.558 51.6803 151.669L50.8276 151.551C50.7495 151.538 50.6909 151.525 50.6388 151.506C50.5867 151.486 50.5672 151.467 50.5672 151.447C50.5672 151.421 50.6323 151.389 50.7625 151.35C50.8927 151.311 51.0424 151.265 51.2051 151.213C51.3679 151.161 51.5306 151.096 51.6933 151.018C51.8496 150.946 51.9602 150.855 52.0123 150.751L46.5052 150.699C46.362 150.803 46.1993 150.907 46.017 151.011C45.8347 151.115 45.6004 151.206 45.3009 151.291C45.0015 151.376 44.637 151.441 44.1943 151.493C43.7517 151.545 43.1983 151.571 42.5213 151.578C42.0136 151.578 41.5254 151.558 41.0437 151.519C40.562 151.48 40.1323 151.415 39.7613 151.337C39.3902 151.259 39.0843 151.154 38.8434 151.037C38.6026 150.92 38.4724 150.783 38.4398 150.627L36.9492 150.614C36.819 150.614 36.7018 150.601 36.5976 150.582C36.4935 150.562 36.4414 150.536 36.4414 150.503V150.354L38.4854 150.373C38.5765 150.217 38.7588 150.08 39.0452 149.963C39.3251 149.846 39.6767 149.742 40.0803 149.651L40.7638 149.742C40.9721 149.768 41.0762 149.807 41.0762 149.846C41.0762 149.866 41.0372 149.892 40.946 149.924C40.8614 149.957 40.7573 149.996 40.6401 150.035C40.5229 150.08 40.4122 150.132 40.3016 150.191C40.1909 150.25 40.1063 150.315 40.0542 150.393L45.0796 150.425ZM40.0412 150.634C40.0803 150.731 40.1714 150.816 40.3146 150.888C40.4513 150.959 40.6271 151.018 40.8354 151.063C41.0437 151.109 41.278 151.141 41.5319 151.161C41.7923 151.18 42.0657 151.193 42.3456 151.193C42.6776 151.193 42.964 151.18 43.2114 151.148C43.4587 151.122 43.6735 151.083 43.8558 151.037C44.0381 150.992 44.2073 150.94 44.344 150.875C44.4807 150.816 44.6044 150.744 44.7151 150.673L40.0412 150.634ZM52.0253 150.497C51.9863 150.399 51.8821 150.308 51.7259 150.237C51.5697 150.165 51.3679 150.1 51.127 150.048C50.8862 149.996 50.6062 149.957 50.2808 149.937C49.9618 149.911 49.6038 149.898 49.2197 149.905C48.8747 149.905 48.5753 149.924 48.3279 149.95C48.0805 149.976 47.8657 150.015 47.6834 150.067C47.5012 150.119 47.3449 150.171 47.2213 150.237C47.0911 150.302 46.9739 150.373 46.8632 150.445L52.0253 150.497Z" fill="#FCB048"/>
<path d="M46.5982 148.446C39.4116 148.446 31.9321 149.078 30.7344 150.302C30.7799 150.347 30.8255 150.393 30.8646 150.438C31.8736 149.585 38.0511 148.733 46.5982 148.733C55.3666 148.733 61.6419 149.631 62.4035 150.503C62.4425 150.458 62.4816 150.412 62.5272 150.367C61.5377 149.104 53.915 148.446 46.5982 148.446Z" fill="url(#paint5_linear_265_4962)"/>
<path d="M32.832 146.561V150.134C32.832 151.287 40.0446 152.224 48.9497 152.224C57.8483 152.224 65.0675 151.287 65.0675 150.134V146.561H32.832Z" fill="#F49B51"/>
<path d="M48.9419 148.651C57.8435 148.651 65.0597 147.715 65.0597 146.561C65.0597 145.407 57.8435 144.472 48.9419 144.472C40.0404 144.472 32.8242 145.407 32.8242 146.561C32.8242 147.715 40.0404 148.651 48.9419 148.651Z" fill="#FCC659"/>
<path d="M48.9406 148.793C41.0575 148.793 32.8164 148.038 32.8164 146.587C32.8164 146.508 32.8424 146.365 32.9271 146.365C33.0052 146.365 32.9726 146.476 32.9726 146.554C32.9726 147.472 39.5343 148.5 48.9406 148.5C58.3535 148.5 64.9086 147.472 64.9086 146.554C64.9086 146.476 64.9216 146.398 64.9998 146.398C65.0779 146.398 65.0583 146.502 65.0583 146.587C65.0649 148.045 56.8237 148.793 48.9406 148.793Z" fill="url(#paint6_linear_265_4962)"/>
<path d="M47.4234 146.678C47.5796 146.568 47.7488 146.463 47.9311 146.353C48.1069 146.249 48.3412 146.151 48.6211 146.066C48.901 145.982 49.2591 145.91 49.6822 145.858C50.1053 145.806 50.6391 145.773 51.2705 145.773C51.8954 145.773 52.4748 145.793 53.0216 145.832C53.5684 145.878 54.0501 145.936 54.4667 146.021C54.8833 146.105 55.2218 146.21 55.4822 146.333C55.7426 146.457 55.8923 146.6 55.9444 146.763L57.7606 146.782C57.8908 146.782 58.0079 146.795 58.1056 146.815C58.2097 146.834 58.2553 146.861 58.2553 146.893V147.043L55.9249 147.023C55.8402 147.206 55.6319 147.375 55.3 147.525C54.968 147.674 54.5383 147.811 54.0241 147.922L53.1713 147.804C53.0932 147.791 53.0346 147.778 52.9825 147.759C52.9305 147.739 52.9109 147.72 52.9109 147.7C52.9109 147.674 52.976 147.642 53.1062 147.603C53.2364 147.564 53.3861 147.518 53.5489 147.466C53.7116 147.414 53.8744 147.349 54.0371 147.271C54.1933 147.199 54.304 147.108 54.3561 147.004L48.849 146.952C48.7058 147.056 48.543 147.16 48.3607 147.264C48.1785 147.368 47.9441 147.459 47.6447 147.544C47.3453 147.629 46.9807 147.694 46.5381 147.746C46.0954 147.798 45.5421 147.824 44.8651 147.83C44.3574 147.83 43.8691 147.811 43.3874 147.772C42.9057 147.733 42.4761 147.668 42.105 147.59C41.734 147.511 41.428 147.407 41.1872 147.29C40.9463 147.173 40.8161 147.036 40.7836 146.88L39.2929 146.867C39.1627 146.867 39.0455 146.854 38.9414 146.834C38.8372 146.815 38.7852 146.789 38.7852 146.756V146.607L40.8292 146.626C40.9203 146.47 41.1026 146.333 41.389 146.216C41.6689 146.099 42.0204 145.995 42.424 145.904L43.1075 145.995C43.3158 146.021 43.42 146.06 43.42 146.099C43.42 146.118 43.3809 146.144 43.2898 146.177C43.2052 146.21 43.101 146.249 42.9838 146.288C42.8667 146.333 42.756 146.385 42.6453 146.444C42.5347 146.502 42.45 146.568 42.398 146.646L47.4234 146.678ZM42.3784 146.88C42.4175 146.978 42.5086 147.062 42.6518 147.134C42.7885 147.206 42.9643 147.264 43.1726 147.31C43.3809 147.355 43.6153 147.388 43.8691 147.407C44.1295 147.427 44.4029 147.44 44.6828 147.44C45.0148 147.44 45.3012 147.427 45.5486 147.394C45.796 147.368 46.0108 147.329 46.1931 147.284C46.3753 147.238 46.5446 147.186 46.6813 147.121C46.818 147.062 46.9417 146.991 47.0523 146.919L42.3784 146.88ZM54.3691 146.743C54.33 146.646 54.2259 146.555 54.0696 146.483C53.9134 146.411 53.7116 146.346 53.4708 146.294C53.2299 146.242 52.95 146.203 52.6245 146.184C52.3056 146.157 51.9475 146.144 51.5635 146.151C51.2184 146.151 50.919 146.171 50.6716 146.197C50.4243 146.223 50.2095 146.262 50.0272 146.314C49.8449 146.366 49.6887 146.418 49.565 146.483C49.4348 146.548 49.3177 146.62 49.207 146.691L54.3691 146.743Z" fill="#FCB048"/>
<path d="M48.9459 144.693C41.7593 144.693 34.2798 145.325 33.082 146.549C33.1276 146.594 33.1732 146.64 33.2122 146.685C34.2212 145.833 40.3988 144.98 48.9459 144.98C57.7143 144.98 63.9895 145.878 64.7511 146.75C64.7902 146.705 64.8292 146.659 64.8748 146.614C63.8788 145.351 56.2561 144.693 48.9459 144.693Z" fill="url(#paint7_linear_265_4962)"/>
<path d="M31.1016 142.503V146.077C31.1016 147.229 38.3142 148.166 47.2193 148.166C56.1244 148.166 63.337 147.229 63.337 146.077V142.503H31.1016Z" fill="#F49B51"/>
<path d="M63.3292 142.504C63.3292 143.656 56.1166 144.593 47.2115 144.593C38.3064 144.593 31.0938 143.656 31.0938 142.504C31.0938 141.351 38.3064 140.414 47.2115 140.414C56.1166 140.414 63.3292 141.351 63.3292 142.504Z" fill="#FCC659"/>
<path d="M47.2102 144.744C39.3271 144.744 31.0859 143.988 31.0859 142.537C31.0859 142.459 31.112 142.315 31.1966 142.315C31.2747 142.315 31.2422 142.426 31.2422 142.504C31.2422 143.422 37.8038 144.451 47.2102 144.451C56.623 144.451 63.1782 143.422 63.1782 142.504C63.1782 142.426 63.1912 142.348 63.2693 142.348C63.3474 142.348 63.3279 142.452 63.3279 142.537C63.3409 143.988 55.0933 144.744 47.2102 144.744Z" fill="url(#paint8_linear_265_4962)"/>
<path d="M45.6929 142.621C45.8491 142.51 46.0184 142.406 46.2006 142.295C46.3764 142.191 46.6107 142.093 46.8907 142.009C47.1706 141.924 47.5286 141.853 47.9517 141.8C48.3748 141.748 48.9086 141.716 49.5401 141.716C50.165 141.716 50.7443 141.735 51.2911 141.774C51.8379 141.82 52.3196 141.879 52.7363 141.963C53.1529 142.048 53.4914 142.152 53.7517 142.276C54.0121 142.399 54.1619 142.543 54.2139 142.705L56.0301 142.725C56.1603 142.725 56.2775 142.738 56.3751 142.757C56.4793 142.777 56.5248 142.803 56.5248 142.835V142.985L54.1944 142.966C54.1098 143.148 53.9015 143.317 53.5695 143.467C53.2375 143.617 52.8079 143.753 52.2936 143.864L51.4409 143.747C51.3627 143.734 51.3042 143.721 51.2521 143.701C51.2 143.682 51.1805 143.662 51.1805 143.643C51.1805 143.617 51.2456 143.584 51.3758 143.545C51.5059 143.506 51.6557 143.46 51.8184 143.408C51.9811 143.356 52.1439 143.291 52.3066 143.213C52.4629 143.141 52.5735 143.05 52.6256 142.946L47.1185 142.894C46.9753 142.998 46.8125 143.102 46.6303 143.207C46.448 143.311 46.2137 143.402 45.9142 143.486C45.6148 143.571 45.2502 143.636 44.8076 143.688C44.3649 143.74 43.8116 143.766 43.1346 143.773C42.6269 143.773 42.1387 143.753 41.657 143.714C41.1753 143.675 40.7456 143.61 40.3746 143.532C40.0035 143.454 39.6976 143.35 39.4567 143.233C39.2159 143.115 39.0857 142.979 39.0531 142.822L37.5624 142.809C37.4322 142.809 37.3151 142.796 37.2109 142.777C37.1068 142.757 37.0547 142.731 37.0547 142.699V142.549L39.0987 142.569C39.1898 142.412 39.3721 142.276 39.6585 142.158C39.9384 142.041 40.2899 141.937 40.6935 141.846L41.377 141.937C41.5854 141.963 41.6895 142.002 41.6895 142.041C41.6895 142.061 41.6505 142.087 41.5593 142.119C41.4747 142.152 41.3705 142.191 41.2534 142.23C41.1362 142.276 41.0255 142.328 40.9149 142.386C40.8042 142.445 40.7196 142.51 40.6675 142.588L45.6929 142.621ZM40.648 142.829C40.687 142.927 40.7782 143.011 40.9214 143.083C41.0581 143.154 41.2338 143.213 41.4421 143.259C41.6504 143.304 41.8848 143.337 42.1387 143.356C42.399 143.376 42.6725 143.389 42.9524 143.389C43.2844 143.389 43.5708 143.376 43.8181 143.343C44.0655 143.317 44.2803 143.278 44.4626 143.233C44.6449 143.187 44.8141 143.135 44.9508 143.07C45.0875 143.011 45.2112 142.94 45.3219 142.868L40.648 142.829ZM52.6386 142.692C52.5996 142.595 52.4954 142.503 52.3392 142.432C52.1829 142.36 51.9811 142.295 51.7403 142.243C51.4994 142.191 51.2195 142.152 50.894 142.132C50.5751 142.106 50.2171 142.093 49.833 142.1C49.488 142.1 49.1885 142.119 48.9412 142.145C48.6938 142.171 48.479 142.211 48.2967 142.263C48.1145 142.315 47.9582 142.367 47.8345 142.432C47.7044 142.497 47.5872 142.569 47.4765 142.64L52.6386 142.692Z" fill="#FCB048"/>
<path d="M47.2154 140.642C40.0288 140.642 32.5493 141.273 31.3516 142.497C31.3971 142.542 31.4427 142.588 31.4818 142.634C32.4907 141.781 38.6683 140.928 47.2154 140.928C55.9838 140.928 62.259 141.826 63.0207 142.699C63.0597 142.653 63.0988 142.607 63.1443 142.562C62.1484 141.299 54.5257 140.642 47.2154 140.642Z" fill="url(#paint9_linear_265_4962)"/>
<path d="M26.625 138.755V142.329C26.625 143.481 33.8376 144.418 42.7427 144.418C51.6413 144.418 58.8604 143.481 58.8604 142.329V138.755H26.625Z" fill="#F49B51"/>
<path d="M42.7349 140.845C51.6365 140.845 58.8526 139.91 58.8526 138.756C58.8526 137.602 51.6365 136.666 42.7349 136.666C33.8333 136.666 26.6172 137.602 26.6172 138.756C26.6172 139.91 33.8333 140.845 42.7349 140.845Z" fill="#FCC659"/>
<path d="M42.7336 140.988C34.8505 140.988 26.6094 140.233 26.6094 138.781C26.6094 138.703 26.6354 138.56 26.72 138.56C26.7982 138.56 26.7656 138.67 26.7656 138.748C26.7656 139.666 33.3273 140.695 42.7336 140.695C52.1399 140.695 58.7016 139.666 58.7016 138.748C58.7016 138.67 58.7146 138.592 58.7927 138.592C58.8708 138.592 58.8513 138.696 58.8513 138.781C58.8578 140.239 50.6167 140.988 42.7336 140.988Z" fill="url(#paint10_linear_265_4962)"/>
<path d="M41.2124 138.873C41.3687 138.762 41.5379 138.658 41.7202 138.547C41.8959 138.443 42.1303 138.345 42.4102 138.261C42.6901 138.176 43.0481 138.104 43.4713 138.052C43.8944 138 44.4282 137.968 45.0596 137.968C45.6845 137.968 46.2639 137.987 46.8107 138.026C47.3575 138.072 47.8392 138.131 48.2558 138.215C48.6724 138.3 49.0109 138.404 49.2713 138.528C49.5317 138.651 49.6814 138.794 49.7335 138.957L51.5496 138.977C51.6798 138.977 51.797 138.99 51.8946 139.009C51.9988 139.029 52.0444 139.055 52.0444 139.087V139.237L49.7139 139.218C49.6293 139.4 49.421 139.569 49.089 139.719C48.757 139.869 48.3274 140.005 47.8131 140.116L46.9604 139.999C46.8823 139.986 46.8237 139.973 46.7716 139.953C46.7195 139.934 46.7 139.914 46.7 139.895C46.7 139.869 46.7651 139.836 46.8953 139.797C47.0255 139.758 47.1752 139.712 47.3379 139.66C47.5007 139.608 47.6634 139.543 47.8262 139.465C47.9824 139.393 48.0931 139.302 48.1451 139.198L42.638 139.146C42.4948 139.25 42.3321 139.354 42.1498 139.458C41.9675 139.563 41.7332 139.654 41.4338 139.738C41.1343 139.823 40.7698 139.888 40.3271 139.94C39.8845 139.992 39.3312 140.018 38.6542 140.025C38.1464 140.025 37.6582 140.005 37.1765 139.966C36.6948 139.927 36.2651 139.862 35.8941 139.784C35.5231 139.706 35.2171 139.602 34.9763 139.485C34.7354 139.367 34.6052 139.231 34.5727 139.074L33.082 139.061C32.9518 139.061 32.8346 139.048 32.7305 139.029C32.6263 139.009 32.5742 138.983 32.5742 138.951V138.801L34.6182 138.821C34.7094 138.664 34.8916 138.528 35.178 138.41C35.458 138.293 35.8095 138.189 36.2131 138.098L36.8966 138.189C37.1049 138.215 37.209 138.254 37.209 138.293C37.209 138.313 37.17 138.339 37.0788 138.371C36.9942 138.404 36.8901 138.443 36.7729 138.482C36.6557 138.528 36.5451 138.58 36.4344 138.638C36.3237 138.697 36.2391 138.762 36.187 138.84L41.2124 138.873ZM36.174 139.074C36.2131 139.172 36.3042 139.257 36.4474 139.328C36.5841 139.4 36.7599 139.458 36.9682 139.504C37.1765 139.55 37.4108 139.582 37.6647 139.602C37.9251 139.621 38.1985 139.634 38.4784 139.634C38.8104 139.634 39.0968 139.621 39.3442 139.589C39.5915 139.563 39.8064 139.524 39.9886 139.478C40.1709 139.432 40.3401 139.38 40.4768 139.315C40.6135 139.257 40.7372 139.185 40.8479 139.113L36.174 139.074ZM48.1647 138.938C48.1256 138.84 48.0214 138.749 47.8652 138.677C47.709 138.606 47.5072 138.541 47.2663 138.489C47.0255 138.436 46.7456 138.397 46.4201 138.378C46.1011 138.352 45.7431 138.339 45.359 138.345C45.014 138.345 44.7146 138.365 44.4672 138.391C44.2199 138.417 44.005 138.456 43.8228 138.508C43.6405 138.56 43.4843 138.612 43.3606 138.677C43.2304 138.742 43.1132 138.814 43.0026 138.886L48.1647 138.938Z" fill="#FCB048"/>
<path d="M42.7388 136.888C35.5523 136.888 28.0728 137.519 26.875 138.743C26.9206 138.788 26.9661 138.834 27.0052 138.88C28.0142 138.027 34.1918 137.174 42.7388 137.174C51.5072 137.174 57.7825 138.072 58.5441 138.945C58.5832 138.899 58.6222 138.854 58.6678 138.808C57.6718 137.545 50.0491 136.888 42.7388 136.888Z" fill="url(#paint11_linear_265_4962)"/>
<path d="M30.4922 135.011V138.584C30.4922 139.737 37.7048 140.674 46.6099 140.674C55.5085 140.674 62.7276 139.737 62.7276 138.584V135.011H30.4922Z" fill="#F49B51"/>
<path d="M46.6021 137.101C55.5037 137.101 62.7198 136.165 62.7198 135.011C62.7198 133.857 55.5037 132.922 46.6021 132.922C37.7005 132.922 30.4844 133.857 30.4844 135.011C30.4844 136.165 37.7005 137.101 46.6021 137.101Z" fill="#FCC659"/>
<path d="M46.6008 137.244C38.7177 137.244 30.4766 136.488 30.4766 135.037C30.4766 134.959 30.5026 134.815 30.5872 134.815C30.6653 134.815 30.6328 134.926 30.6328 135.004C30.6328 135.922 37.1944 136.951 46.6008 136.951C56.0071 136.951 62.5688 135.922 62.5688 135.004C62.5688 134.926 62.5818 134.848 62.6599 134.848C62.738 134.848 62.7185 134.952 62.7185 135.037C62.725 136.495 54.4839 137.244 46.6008 137.244Z" fill="url(#paint12_linear_265_4962)"/>
<path d="M45.0796 135.128C45.2358 135.018 45.4051 134.914 45.5874 134.803C45.7631 134.699 45.9975 134.601 46.2774 134.517C46.5573 134.432 46.9153 134.36 47.3384 134.308C47.7616 134.256 48.2953 134.224 48.9268 134.224C49.5517 134.224 50.131 134.243 50.6779 134.282C51.2247 134.328 51.7064 134.386 52.123 134.471C52.5396 134.556 52.8781 134.66 53.1385 134.783C53.3989 134.907 53.5486 135.05 53.6007 135.213L55.4168 135.233C55.547 135.233 55.6642 135.246 55.7618 135.265C55.866 135.285 55.9116 135.311 55.9116 135.343V135.493L53.5811 135.473C53.4965 135.656 53.2882 135.825 52.9562 135.975C52.6242 136.124 52.1946 136.261 51.6803 136.372L50.8276 136.255C50.7495 136.242 50.6909 136.229 50.6388 136.209C50.5867 136.19 50.5672 136.17 50.5672 136.15C50.5672 136.124 50.6323 136.092 50.7625 136.053C50.8927 136.014 51.0424 135.968 51.2051 135.916C51.3679 135.864 51.5306 135.799 51.6933 135.721C51.8496 135.649 51.9602 135.558 52.0123 135.454L46.5052 135.402C46.362 135.506 46.1993 135.61 46.017 135.714C45.8347 135.818 45.6004 135.91 45.3009 135.994C45.0015 136.079 44.637 136.144 44.1943 136.196C43.7517 136.248 43.1983 136.274 42.5213 136.281C42.0136 136.281 41.5254 136.261 41.0437 136.222C40.562 136.183 40.1323 136.118 39.7613 136.04C39.3902 135.962 39.0843 135.858 38.8434 135.74C38.6026 135.623 38.4724 135.486 38.4398 135.33L36.9492 135.317C36.819 135.317 36.7018 135.304 36.5976 135.285C36.4935 135.265 36.4414 135.239 36.4414 135.207V135.057L38.4854 135.076C38.5765 134.92 38.7588 134.783 39.0452 134.666C39.3251 134.549 39.6767 134.445 40.0803 134.354L40.7638 134.445C40.9721 134.471 41.0762 134.51 41.0762 134.549C41.0762 134.569 41.0372 134.595 40.946 134.627C40.8614 134.66 40.7573 134.699 40.6401 134.738C40.5229 134.783 40.4122 134.836 40.3016 134.894C40.1909 134.953 40.1063 135.018 40.0542 135.096L45.0796 135.128ZM40.0412 135.33C40.0803 135.428 40.1714 135.513 40.3146 135.584C40.4513 135.656 40.6271 135.714 40.8354 135.76C41.0437 135.805 41.278 135.838 41.5319 135.858C41.7923 135.877 42.0657 135.89 42.3456 135.89C42.6776 135.89 42.964 135.877 43.2114 135.845C43.4587 135.818 43.6735 135.779 43.8558 135.734C44.0381 135.688 44.2073 135.636 44.344 135.571C44.4807 135.513 44.6044 135.441 44.7151 135.369L40.0412 135.33ZM52.0253 135.194C51.9863 135.096 51.8821 135.005 51.7259 134.933C51.5697 134.862 51.3679 134.796 51.127 134.744C50.8862 134.692 50.6062 134.653 50.2808 134.634C49.9618 134.608 49.6038 134.595 49.2197 134.601C48.8747 134.601 48.5753 134.621 48.3279 134.647C48.0805 134.673 47.8657 134.712 47.6834 134.764C47.5012 134.816 47.3449 134.868 47.2213 134.933C47.0911 134.998 46.9739 135.07 46.8632 135.141L52.0253 135.194Z" fill="#FCB048"/>
<path d="M46.5982 133.144C39.4116 133.144 31.9321 133.775 30.7344 134.999C30.7799 135.044 30.8255 135.09 30.8646 135.135C31.8736 134.283 38.0511 133.43 46.5982 133.43C55.3666 133.43 61.6419 134.328 62.4035 135.201C62.4425 135.155 62.4816 135.109 62.5272 135.064C61.5377 133.801 53.915 133.144 46.5982 133.144Z" fill="url(#paint13_linear_265_4962)"/>
<path d="M28.4805 131.255V134.829C28.4805 135.981 35.6931 136.918 44.5982 136.918C53.4968 136.918 60.7159 135.981 60.7159 134.829V131.255H28.4805Z" fill="#F49B51"/>
<path d="M44.5904 133.345C53.4919 133.345 60.7081 132.41 60.7081 131.256C60.7081 130.102 53.4919 129.166 44.5904 129.166C35.6888 129.166 28.4727 130.102 28.4727 131.256C28.4727 132.41 35.6888 133.345 44.5904 133.345Z" fill="#FCC659"/>
<path d="M44.5891 133.488C36.706 133.488 28.4648 132.733 28.4648 131.281C28.4648 131.203 28.4909 131.06 28.5755 131.06C28.6536 131.06 28.6211 131.17 28.6211 131.248C28.6211 132.166 35.1827 133.195 44.5891 133.195C54.0019 133.195 60.5571 132.166 60.5571 131.248C60.5571 131.17 60.5701 131.092 60.6482 131.092C60.7263 131.092 60.7068 131.196 60.7068 131.281C60.7133 132.739 52.4722 133.488 44.5891 133.488Z" fill="url(#paint14_linear_265_4962)"/>
<path d="M43.0653 131.373C43.2215 131.262 43.3908 131.158 43.573 131.047C43.7488 130.943 43.9831 130.845 44.2631 130.761C44.543 130.676 44.901 130.604 45.3241 130.552C45.7472 130.5 46.281 130.468 46.9125 130.468C47.5374 130.468 48.1167 130.487 48.6635 130.526C49.2103 130.572 49.692 130.631 50.1087 130.715C50.5253 130.8 50.8638 130.904 51.1241 131.028C51.3845 131.151 51.5343 131.294 51.5863 131.457L53.4025 131.477C53.5327 131.477 53.6499 131.49 53.7475 131.509C53.8517 131.529 53.8972 131.555 53.8972 131.587V131.737L51.5668 131.718C51.4822 131.9 51.2739 132.069 50.9419 132.219C50.6099 132.369 50.1803 132.505 49.666 132.616L48.8132 132.499C48.7351 132.486 48.6766 132.473 48.6245 132.453C48.5724 132.434 48.5529 132.414 48.5529 132.395C48.5529 132.369 48.618 132.336 48.7482 132.297C48.8783 132.258 49.0281 132.212 49.1908 132.16C49.3535 132.108 49.5163 132.043 49.679 131.965C49.8353 131.893 49.9459 131.802 49.998 131.698L44.4974 131.639C44.3542 131.744 44.1915 131.848 44.0092 131.952C43.8269 132.056 43.5926 132.147 43.2931 132.232C42.9937 132.317 42.6292 132.382 42.1865 132.434C41.7438 132.486 41.1905 132.512 40.5135 132.518C40.0058 132.518 39.5176 132.499 39.0359 132.46C38.5542 132.421 38.1245 132.356 37.7535 132.277C37.3824 132.199 37.0765 132.095 36.8356 131.978C36.5948 131.861 36.4646 131.724 36.432 131.568L34.9413 131.555C34.8111 131.555 34.694 131.542 34.5898 131.522C34.4857 131.503 34.4336 131.477 34.4336 131.444V131.294L36.4776 131.314C36.5687 131.158 36.751 131.021 37.0374 130.904C37.3173 130.787 37.6689 130.683 38.0724 130.591L38.756 130.683C38.9643 130.709 39.0684 130.748 39.0684 130.787C39.0684 130.806 39.0294 130.832 38.9382 130.865C38.8536 130.897 38.7494 130.936 38.6323 130.976C38.5151 131.021 38.4044 131.073 38.2938 131.132C38.1831 131.19 38.0985 131.255 38.0464 131.334L43.0653 131.373ZM38.0269 131.574C38.0659 131.672 38.1571 131.757 38.3003 131.828C38.437 131.9 38.6127 131.958 38.821 132.004C39.0294 132.05 39.2637 132.082 39.5176 132.102C39.778 132.121 40.0514 132.134 40.3313 132.134C40.6633 132.134 40.9497 132.121 41.197 132.089C41.4444 132.063 41.6592 132.024 41.8415 131.978C42.0238 131.932 42.193 131.88 42.3297 131.815C42.4664 131.757 42.5901 131.685 42.7008 131.613L38.0269 131.574ZM50.0175 131.444C49.9785 131.347 49.8743 131.255 49.7181 131.184C49.5619 131.112 49.3601 131.047 49.1192 130.995C48.8783 130.943 48.5984 130.904 48.273 130.884C47.954 130.858 47.596 130.845 47.2119 130.852C46.8669 130.852 46.5674 130.871 46.3201 130.897C46.0727 130.923 45.8579 130.962 45.6756 131.015C45.4934 131.067 45.3371 131.119 45.2135 131.184C45.0833 131.249 44.9661 131.321 44.8554 131.392L50.0175 131.444Z" fill="#FCB048"/>
<path d="M44.5943 129.388C37.4077 129.388 29.9282 130.019 28.7305 131.243C28.776 131.288 28.8216 131.334 28.8607 131.38C29.8696 130.527 36.0472 129.674 44.5943 129.674C53.3627 129.674 59.638 130.572 60.3996 131.445C60.4386 131.399 60.4777 131.354 60.5232 131.308C59.5273 130.045 51.9046 129.388 44.5943 129.388Z" fill="url(#paint15_linear_265_4962)"/>
<path d="M65.2928 133.775L62.383 135.845C61.4392 136.516 64.8632 142.934 70.0188 150.193C75.1744 157.444 80.1216 162.782 81.0655 162.112L83.9753 160.042L65.2928 133.775Z" fill="#F49B51"/>
<path d="M83.9757 160.041C83.0318 160.711 78.091 155.373 72.9289 148.122C67.7733 140.87 64.3493 134.445 65.2932 133.775C66.2371 133.104 71.1779 138.442 76.3399 145.694C81.4955 152.945 84.9131 159.37 83.9757 160.041Z" fill="#FCC659"/>
<path d="M72.8137 148.2C68.244 141.775 64.0779 134.621 65.2626 133.781C65.3277 133.735 65.4579 133.677 65.5035 133.742C65.549 133.807 65.4384 133.84 65.3733 133.892C64.6247 134.425 67.5865 140.362 73.0416 148.037C78.4966 155.712 83.1379 160.457 83.8865 159.923C83.9516 159.878 84.0232 159.845 84.0688 159.91C84.1144 159.975 84.0167 160.021 83.9516 160.067C82.7734 160.906 77.3835 154.625 72.8137 148.2Z" fill="url(#paint16_linear_265_4962)"/>
<path d="M73.6591 145.732C73.8414 145.797 74.0236 145.875 74.2189 145.96C74.4077 146.044 74.6225 146.174 74.8569 146.357C75.0912 146.539 75.3516 146.786 75.6445 147.099C75.9375 147.411 76.2695 147.828 76.634 148.349C76.9985 148.856 77.3175 149.345 77.6039 149.813C77.8838 150.282 78.1117 150.712 78.2874 151.102C78.4567 151.486 78.5673 151.825 78.6194 152.111C78.665 152.398 78.6389 152.606 78.5413 152.736L79.5763 154.227C79.6544 154.338 79.713 154.435 79.7521 154.526C79.7911 154.624 79.8042 154.676 79.7781 154.696L79.6544 154.78L78.32 152.866C78.1247 152.905 77.8643 152.834 77.5453 152.645C77.2264 152.463 76.8748 152.189 76.4843 151.831L76.0872 151.07C76.0546 150.998 76.0286 150.94 76.0156 150.894C76.0026 150.842 76.0026 150.816 76.0221 150.803C76.0481 150.783 76.1132 150.822 76.2174 150.907C76.3215 150.992 76.4452 151.089 76.5884 151.187C76.7251 151.291 76.8748 151.382 77.0246 151.473C77.1743 151.558 77.311 151.597 77.4282 151.577L74.284 147.06C74.1148 147.001 73.9325 146.93 73.7437 146.845C73.555 146.76 73.3401 146.617 73.1058 146.422C72.8649 146.227 72.5981 145.966 72.2986 145.634C71.9992 145.302 71.6542 144.866 71.2636 144.319C70.9707 143.909 70.6973 143.499 70.4564 143.082C70.209 142.666 70.0137 142.282 69.864 141.93C69.7143 141.579 69.6167 141.273 69.5776 141.006C69.5385 140.739 69.5711 140.55 69.6818 140.44L68.829 139.216C68.7509 139.105 68.6923 139.007 68.6467 138.91C68.6012 138.812 68.5947 138.754 68.6207 138.734L68.7444 138.649L69.9096 140.322C70.0919 140.303 70.3067 140.374 70.5671 140.537C70.8274 140.7 71.1139 140.921 71.4198 141.201L71.7388 141.813C71.8364 142.002 71.869 142.106 71.8364 142.126C71.8169 142.139 71.7713 142.119 71.6997 142.067C71.6216 142.015 71.537 141.956 71.4328 141.885C71.3287 141.813 71.2245 141.754 71.1074 141.696C70.9967 141.637 70.8925 141.611 70.8014 141.611L73.6591 145.732ZM70.5736 141.741C70.515 141.833 70.502 141.956 70.5215 142.113C70.541 142.269 70.5996 142.438 70.6777 142.64C70.7623 142.835 70.8665 143.043 71.0032 143.265C71.1334 143.486 71.2831 143.714 71.4524 143.948C71.6477 144.215 71.8234 144.443 71.9861 144.632C72.1489 144.814 72.3051 144.97 72.4483 145.094C72.5915 145.218 72.7347 145.322 72.8584 145.4C72.9886 145.478 73.1123 145.537 73.236 145.589L70.5736 141.741ZM77.63 151.434C77.6885 151.343 77.7016 151.213 77.669 151.044C77.6365 150.874 77.5779 150.673 77.4737 150.451C77.3761 150.223 77.2394 149.976 77.0766 149.696C76.9139 149.423 76.7121 149.123 76.4908 148.811C76.289 148.531 76.1067 148.297 75.9375 148.114C75.7682 147.932 75.612 147.776 75.4688 147.652C75.3256 147.535 75.1889 147.437 75.0587 147.372C74.9285 147.307 74.8048 147.249 74.6811 147.203L77.63 151.434Z" fill="#FCB048"/>
<path d="M76.1614 145.824C71.9953 139.972 67.1456 134.237 65.4531 133.97C65.4466 134.035 65.4336 134.093 65.4141 134.158C66.6899 134.49 70.9667 139.028 75.9205 145.993C81.0045 153.134 83.9078 158.771 83.6344 159.897C83.693 159.897 83.7581 159.904 83.8166 159.917C84.2788 158.374 80.3991 151.786 76.1614 145.824Z" fill="url(#paint17_linear_265_4962)"/>
<path d="M167.531 165.452L165.839 165.588C165.401 165.626 164.963 165.603 164.525 165.535L157.809 164.44L157.695 164.425L149.899 163.148H149.854L143.742 162.159V127.771H149.892H149.907L157.703 128.156L157.816 128.216L167.252 128.579L167.531 165.452Z" fill="#E3E3E3"/>
<path d="M191.269 129.947V162.046C191.269 163.194 190.385 164.131 189.245 164.199L166.861 165.528C165.954 165.581 165.184 164.833 165.184 163.896V130.453C165.184 129.516 165.916 128.745 166.823 128.715L189.373 128.088C190.416 128.073 191.269 128.904 191.269 129.947Z" fill="white"/>
<path d="M143.781 127.765L165.168 128.778L189.358 128.105L164.564 127.297L143.781 127.765Z" fill="#979797"/>
<path opacity="0.7" d="M189.331 128.104L171.676 128.595C170.671 128.626 169.848 129.472 169.856 130.499C169.856 132.214 170.143 133.982 170.898 135.689C173.414 141.385 179.034 141.597 180.198 146.817C181.172 151.168 177.72 153.042 177.357 158.609C177.259 160.075 177.387 161.646 177.826 163.331C178.052 164.215 178.883 164.819 179.782 164.766L189.505 164.185C190.502 164.124 191.273 163.308 191.273 162.304V129.978C191.265 128.913 190.396 128.074 189.331 128.104Z" fill="#F4F7FA"/>
<path d="M173.023 165.166L181.326 164.674V128.322L173.023 128.556V165.166Z" fill="url(#paint18_linear_265_4962)"/>
<path d="M173.402 165.143L181.327 164.674V128.322L173.402 128.541V165.143Z" fill="#E31E24"/>
<path d="M157.588 128.253V164.432L149.988 163.14V128.049L152.406 128.004L157.588 128.253Z" fill="#E31E24"/>
<path d="M158.366 127.432L181.505 128.746H173.188L152.957 127.553L158.366 127.432Z" fill="#770F12"/>
<path d="M169.627 126.319C170.163 123.018 170.556 120.608 172.717 118.379C173.623 117.442 174.62 116.415 176.245 116.143C178.118 115.833 180.505 116.566 181.163 118.1C181.782 119.55 180.317 120.494 180.944 122.164C181.571 123.841 183.391 123.803 183.588 125.156C183.754 126.304 182.636 127.603 181.51 128.215C179.561 129.265 178.451 127.785 174.643 128.026C172.014 128.192 170.503 129.023 169.793 128.185C169.446 127.777 169.476 127.226 169.627 126.319Z" fill="#A81418"/>
<g opacity="0.3">
<path d="M180.052 125.027C177.703 124.129 176.494 122.172 175.451 122.633C174.522 123.041 175.089 124.763 174.001 126.161C173.004 127.437 171.183 127.74 169.566 127.74C169.604 127.906 169.672 128.049 169.778 128.17C170.488 129.009 172.007 128.178 174.628 128.012C178.435 127.77 179.546 129.25 181.495 128.2C182.53 127.641 183.557 126.501 183.588 125.428C182.5 125.556 181.276 125.496 180.052 125.027Z" fill="url(#paint19_linear_265_4962)"/>
</g>
<path d="M155.423 118.162C157.002 116.916 158.671 118.306 160.62 116.931C162.592 115.541 162.018 113.312 163.551 112.678C165.327 111.945 167.963 114.188 169.225 115.609C172.428 119.22 173.931 125.641 171.401 127.9C170.449 128.746 167.759 128.398 162.426 127.666C156.322 126.827 155.446 126.23 154.864 125.445C153.277 123.322 153.625 119.575 155.423 118.162Z" fill="#A81418"/>
<g opacity="0.3">
<path d="M165.444 120.875C164.567 120.595 164.167 121.608 162.354 122.008C162.022 122.084 158.834 122.748 157.126 120.746C156.446 119.953 156.129 118.888 156.167 117.755C155.918 117.838 155.668 117.974 155.426 118.163C153.636 119.576 153.289 123.323 154.86 125.438C155.442 126.223 156.325 126.82 162.422 127.659C167.763 128.392 170.452 128.739 171.397 127.893C171.525 127.78 171.638 127.651 171.744 127.515C170.46 127.47 169.123 127.16 168.148 126.223C166.282 124.41 166.94 121.343 165.444 120.875Z" fill="url(#paint20_linear_265_4962)"/>
</g>
<path d="M165.819 128.111L157.706 128.421L149.895 128.05L152.418 128.005L163.478 127.809L165.819 128.111Z" fill="#770F12"/>
</g>
<defs>
<linearGradient id="paint0_linear_265_4962" x1="46.9677" y1="155.737" x2="47.568" y2="160.763" gradientUnits="userSpaceOnUse">
<stop stop-color="#FFDB44"/>
<stop offset="1" stop-color="#FEEF06"/>
</linearGradient>
<linearGradient id="paint1_linear_265_4962" x1="47.5307" y1="160.235" x2="46.9325" y2="155.227" gradientUnits="userSpaceOnUse">
<stop offset="0.00359712" stop-color="#F36F56"/>
<stop offset="0.3059" stop-color="#F99C4C"/>
<stop offset="0.545" stop-color="#FDB946"/>
<stop offset="0.6817" stop-color="#FFC444"/>
<stop offset="0.8038" stop-color="#FFC244"/>
<stop offset="0.8667" stop-color="#FEBA46"/>
<stop offset="0.916" stop-color="#FCAD49"/>
<stop offset="0.958" stop-color="#F99A4D"/>
<stop offset="0.9955" stop-color="#F58152"/>
<stop offset="1" stop-color="#F57E53"/>
</linearGradient>
<linearGradient id="paint2_linear_265_4962" x1="42.4898" y1="151.983" x2="43.0901" y2="157.008" gradientUnits="userSpaceOnUse">
<stop stop-color="#FFDB44"/>
<stop offset="1" stop-color="#FEEF06"/>
</linearGradient>
<linearGradient id="paint3_linear_265_4962" x1="43.0529" y1="156.483" x2="42.4547" y2="151.475" gradientUnits="userSpaceOnUse">
<stop offset="0.00359712" stop-color="#F36F56"/>
<stop offset="0.3059" stop-color="#F99C4C"/>
<stop offset="0.545" stop-color="#FDB946"/>
<stop offset="0.6817" stop-color="#FFC444"/>
<stop offset="0.8038" stop-color="#FFC244"/>
<stop offset="0.8667" stop-color="#FEBA46"/>
<stop offset="0.916" stop-color="#FCAD49"/>
<stop offset="0.958" stop-color="#F99A4D"/>
<stop offset="0.9955" stop-color="#F58152"/>
<stop offset="1" stop-color="#F57E53"/>
</linearGradient>
<linearGradient id="paint4_linear_265_4962" x1="46.3558" y1="148.238" x2="46.9562" y2="153.264" gradientUnits="userSpaceOnUse">
<stop stop-color="#FFDB44"/>
<stop offset="1" stop-color="#FEEF06"/>
</linearGradient>
<linearGradient id="paint5_linear_265_4962" x1="46.9176" y1="152.736" x2="46.3194" y2="147.728" gradientUnits="userSpaceOnUse">
<stop offset="0.00359712" stop-color="#F36F56"/>
<stop offset="0.3059" stop-color="#F99C4C"/>
<stop offset="0.545" stop-color="#FDB946"/>
<stop offset="0.6817" stop-color="#FFC444"/>
<stop offset="0.8038" stop-color="#FFC244"/>
<stop offset="0.8667" stop-color="#FEBA46"/>
<stop offset="0.916" stop-color="#FCAD49"/>
<stop offset="0.958" stop-color="#F99A4D"/>
<stop offset="0.9955" stop-color="#F58152"/>
<stop offset="1" stop-color="#F57E53"/>
</linearGradient>
<linearGradient id="paint6_linear_265_4962" x1="48.6979" y1="144.485" x2="49.2983" y2="149.511" gradientUnits="userSpaceOnUse">
<stop stop-color="#FFDB44"/>
<stop offset="1" stop-color="#FEEF06"/>
</linearGradient>
<linearGradient id="paint7_linear_265_4962" x1="49.261" y1="148.985" x2="48.6628" y2="143.977" gradientUnits="userSpaceOnUse">
<stop offset="0.00359712" stop-color="#F36F56"/>
<stop offset="0.3059" stop-color="#F99C4C"/>
<stop offset="0.545" stop-color="#FDB946"/>
<stop offset="0.6817" stop-color="#FFC444"/>
<stop offset="0.8038" stop-color="#FFC244"/>
<stop offset="0.8667" stop-color="#FEBA46"/>
<stop offset="0.916" stop-color="#FCAD49"/>
<stop offset="0.958" stop-color="#F99A4D"/>
<stop offset="0.9955" stop-color="#F58152"/>
<stop offset="1" stop-color="#F57E53"/>
</linearGradient>
<linearGradient id="paint8_linear_265_4962" x1="46.9677" y1="140.433" x2="47.568" y2="145.459" gradientUnits="userSpaceOnUse">
<stop stop-color="#FFDB44"/>
<stop offset="1" stop-color="#FEEF06"/>
</linearGradient>
<linearGradient id="paint9_linear_265_4962" x1="47.5307" y1="144.931" x2="46.9325" y2="139.924" gradientUnits="userSpaceOnUse">
<stop offset="0.00359712" stop-color="#F36F56"/>
<stop offset="0.3059" stop-color="#F99C4C"/>
<stop offset="0.545" stop-color="#FDB946"/>
<stop offset="0.6817" stop-color="#FFC444"/>
<stop offset="0.8038" stop-color="#FFC244"/>
<stop offset="0.8667" stop-color="#FEBA46"/>
<stop offset="0.916" stop-color="#FCAD49"/>
<stop offset="0.958" stop-color="#F99A4D"/>
<stop offset="0.9955" stop-color="#F58152"/>
<stop offset="1" stop-color="#F57E53"/>
</linearGradient>
<linearGradient id="paint10_linear_265_4962" x1="42.4898" y1="136.679" x2="43.0901" y2="141.705" gradientUnits="userSpaceOnUse">
<stop stop-color="#FFDB44"/>
<stop offset="1" stop-color="#FEEF06"/>
</linearGradient>
<linearGradient id="paint11_linear_265_4962" x1="43.0529" y1="141.179" x2="42.4547" y2="136.171" gradientUnits="userSpaceOnUse">
<stop offset="0.00359712" stop-color="#F36F56"/>
<stop offset="0.3059" stop-color="#F99C4C"/>
<stop offset="0.545" stop-color="#FDB946"/>
<stop offset="0.6817" stop-color="#FFC444"/>
<stop offset="0.8038" stop-color="#FFC244"/>
<stop offset="0.8667" stop-color="#FEBA46"/>
<stop offset="0.916" stop-color="#FCAD49"/>
<stop offset="0.958" stop-color="#F99A4D"/>
<stop offset="0.9955" stop-color="#F58152"/>
<stop offset="1" stop-color="#F57E53"/>
</linearGradient>
<linearGradient id="paint12_linear_265_4962" x1="46.3558" y1="132.935" x2="46.9562" y2="137.96" gradientUnits="userSpaceOnUse">
<stop stop-color="#FFDB44"/>
<stop offset="1" stop-color="#FEEF06"/>
</linearGradient>
<linearGradient id="paint13_linear_265_4962" x1="46.9176" y1="137.434" x2="46.3194" y2="132.427" gradientUnits="userSpaceOnUse">
<stop offset="0.00359712" stop-color="#F36F56"/>
<stop offset="0.3059" stop-color="#F99C4C"/>
<stop offset="0.545" stop-color="#FDB946"/>
<stop offset="0.6817" stop-color="#FFC444"/>
<stop offset="0.8038" stop-color="#FFC244"/>
<stop offset="0.8667" stop-color="#FEBA46"/>
<stop offset="0.916" stop-color="#FCAD49"/>
<stop offset="0.958" stop-color="#F99A4D"/>
<stop offset="0.9955" stop-color="#F58152"/>
<stop offset="1" stop-color="#F57E53"/>
</linearGradient>
<linearGradient id="paint14_linear_265_4962" x1="44.345" y1="129.18" x2="44.9453" y2="134.206" gradientUnits="userSpaceOnUse">
<stop stop-color="#FFDB44"/>
<stop offset="1" stop-color="#FEEF06"/>
</linearGradient>
<linearGradient id="paint15_linear_265_4962" x1="44.908" y1="133.68" x2="44.3098" y2="128.672" gradientUnits="userSpaceOnUse">
<stop offset="0.00359712" stop-color="#F36F56"/>
<stop offset="0.3059" stop-color="#F99C4C"/>
<stop offset="0.545" stop-color="#FDB946"/>
<stop offset="0.6817" stop-color="#FFC444"/>
<stop offset="0.8038" stop-color="#FFC244"/>
<stop offset="0.8667" stop-color="#FEBA46"/>
<stop offset="0.916" stop-color="#FCAD49"/>
<stop offset="0.958" stop-color="#F99A4D"/>
<stop offset="0.9955" stop-color="#F58152"/>
<stop offset="1" stop-color="#F57E53"/>
</linearGradient>
<linearGradient id="paint16_linear_265_4962" x1="76.1829" y1="145.504" x2="72.436" y2="148.906" gradientUnits="userSpaceOnUse">
<stop stop-color="#FFDB44"/>
<stop offset="1" stop-color="#FEEF06"/>
</linearGradient>
<linearGradient id="paint17_linear_265_4962" x1="72.8465" y1="148.571" x2="76.58" y2="145.182" gradientUnits="userSpaceOnUse">
<stop offset="0.00359712" stop-color="#F36F56"/>
<stop offset="0.3059" stop-color="#F99C4C"/>
<stop offset="0.545" stop-color="#FDB946"/>
<stop offset="0.6817" stop-color="#FFC444"/>
<stop offset="0.8038" stop-color="#FFC244"/>
<stop offset="0.8667" stop-color="#FEBA46"/>
<stop offset="0.916" stop-color="#FCAD49"/>
<stop offset="0.958" stop-color="#F99A4D"/>
<stop offset="0.9955" stop-color="#F58152"/>
<stop offset="1" stop-color="#F57E53"/>
</linearGradient>
<linearGradient id="paint18_linear_265_4962" x1="174.041" y1="130.961" x2="184.193" y2="182.103" gradientUnits="userSpaceOnUse">
<stop stop-color="#AB316D"/>
<stop offset="1" stop-color="#792D3D"/>
</linearGradient>
<linearGradient id="paint19_linear_265_4962" x1="184.35" y1="118.969" x2="174.897" y2="128.8" gradientUnits="userSpaceOnUse">
<stop stop-color="#AB316D"/>
<stop offset="1" stop-color="#792D3D"/>
</linearGradient>
<linearGradient id="paint20_linear_265_4962" x1="160.794" y1="123.401" x2="185.898" y2="119.689" gradientUnits="userSpaceOnUse">
<stop stop-color="#AB316D"/>
<stop offset="1" stop-color="#792D3D"/>
</linearGradient>
<clipPath id="clip0_265_4962">
<rect width="211" height="161" fill="white" transform="translate(0.25)"/>
</clipPath>
</defs>
</svg>
