<svg width="55" height="55" viewBox="0 0 55 55" fill="none" xmlns="http://www.w3.org/2000/svg">
<rect width="55" height="55" rx="4" fill="#E31E24"/>
<g clip-path="url(#clip0_252_4816)">
<path d="M45.8043 24.4501C45.5926 24.2985 45.3005 24.3465 45.1525 24.5634L44.4535 25.4917C43.1969 18.4779 37.9232 12.9834 30.9958 11.6258C25.8999 10.6236 20.7125 12.029 16.7662 15.4791C16.5696 15.6519 16.5453 15.9553 16.7138 16.1569C16.8824 16.3585 17.1783 16.3834 17.3749 16.2106C21.1055 12.9467 26.0047 11.6201 30.8235 12.5685C37.4306 13.8606 42.4402 19.1443 43.562 25.8642L42.4611 24.9407C42.2494 24.789 41.9573 24.837 41.8093 25.054C41.6614 25.271 41.7082 25.5705 41.9198 25.7222L44.2044 27.5096L44.5209 27.0526C44.5302 27.0373 44.5396 27.0277 44.549 27.0142L45.9184 25.1222C46.0626 24.9033 46.0159 24.6018 45.8043 24.4501Z" fill="white"/>
<path d="M38.6269 40.0087C34.896 43.2736 29.9964 44.6008 25.1771 43.652C18.5748 42.3633 13.5647 37.0721 12.4427 30.3559L13.5439 31.28C13.7556 31.4318 14.0478 31.3838 14.1957 31.1667C14.3437 30.9497 14.2969 30.6501 14.0852 30.4984L11.8003 28.71L11.4838 29.1632C11.4744 29.1786 11.4651 29.192 11.4557 29.2074L10.086 31.1006C9.93805 31.3177 9.98487 31.6173 10.1965 31.769C10.2789 31.8285 10.3744 31.8574 10.47 31.8574C10.6142 31.8574 10.7584 31.7882 10.8539 31.6557L11.5531 30.7266C12.8024 37.7407 18.0764 43.2429 25.0048 44.595C26.0836 44.8063 27.1624 44.91 28.2356 44.91C32.24 44.91 36.1225 43.4599 39.2353 40.7365C39.432 40.5637 39.4563 40.2602 39.2878 40.0586C39.1192 39.8608 38.8236 39.8358 38.6269 40.0087Z" fill="white"/>
<path d="M41.0369 28.1093C41.0369 20.9213 35.1869 15.0713 27.9989 15.0713C20.8109 15.0713 14.9609 20.9213 14.9609 28.1093C14.9609 35.2973 20.8109 41.1473 27.9989 41.1473C35.1869 41.1473 41.0369 35.2973 41.0369 28.1093ZM16.1297 28.1093C16.1297 21.5633 21.4524 16.2407 27.9983 16.2407C34.5443 16.2407 39.8669 21.5633 39.8669 28.1093C39.8669 34.6552 34.5443 39.9779 27.9983 39.9779C21.4524 39.9779 16.1297 34.6552 16.1297 28.1093Z" fill="white"/>
<path d="M28.1078 21.1438C28.4312 21.1438 28.6961 20.8789 28.6961 20.5555V18.2328C28.6961 17.9094 28.4312 17.6445 28.1078 17.6445C27.7844 17.6445 27.5195 17.9094 27.5195 18.2328V20.5555C27.5266 20.8859 27.7891 21.1438 28.1078 21.1438Z" fill="white"/>
<path d="M24.3644 22.2525C24.4675 22.2525 24.5613 22.2291 24.6574 22.1752C24.9386 22.0135 25.0347 21.6525 24.873 21.3783L23.7082 19.3674C23.5464 19.0861 23.1855 18.99 22.9113 19.1517C22.6301 19.3134 22.534 19.6744 22.6957 19.9486L23.8605 21.9595C23.9613 22.1517 24.1605 22.2525 24.3644 22.2525Z" fill="white"/>
<path d="M19.3662 23.8488L21.3772 25.0136C21.4663 25.0675 21.5694 25.091 21.6702 25.091C21.8741 25.091 22.0733 24.9878 22.1811 24.798C22.3428 24.5167 22.2467 24.1628 21.9655 24.0011L19.9545 22.8363C19.6733 22.6746 19.3193 22.7707 19.1576 23.0519C18.9889 23.3285 19.085 23.6871 19.3662 23.8488Z" fill="white"/>
<path d="M21.3391 28.3021C21.3391 27.9787 21.0742 27.7139 20.7508 27.7139H18.4281C18.1047 27.7139 17.8398 27.9787 17.8398 28.3021C17.8398 28.6256 18.1047 28.8904 18.4281 28.8904H20.7508C21.0766 28.8904 21.3391 28.6256 21.3391 28.3021Z" fill="white"/>
<path d="M21.5668 31.5482L19.5558 32.7131C19.2746 32.8748 19.1785 33.2357 19.3402 33.5099C19.448 33.6951 19.6472 33.8029 19.8511 33.8029C19.9543 33.8029 20.048 33.7794 20.1441 33.7255L22.1551 32.5607C22.4363 32.399 22.5324 32.038 22.3707 31.7638C22.209 31.4826 21.848 31.3865 21.5668 31.5482Z" fill="white"/>
<path d="M24.9855 34.2357C24.7042 34.074 24.3503 34.1701 24.1886 34.4513L23.0238 36.4623C22.8621 36.7435 22.9582 37.0975 23.2394 37.2592C23.3285 37.3131 23.4316 37.3365 23.5324 37.3365C23.7363 37.3365 23.9355 37.2334 24.0433 37.0435L25.2082 35.0326C25.3629 34.756 25.2667 34.3974 24.9855 34.2357Z" fill="white"/>
<path d="M28.4984 38.5676C28.8219 38.5676 29.0867 38.3027 29.0867 37.9793V35.6566C29.0867 35.3332 28.8219 35.0684 28.4984 35.0684C28.175 35.0684 27.9102 35.3332 27.9102 35.6566V37.9793C27.9125 38.3027 28.175 38.5676 28.4984 38.5676Z" fill="white"/>
<path d="M31.9543 34.0443C31.673 34.206 31.5769 34.567 31.7386 34.8412L32.9035 36.8521C33.0113 37.0373 33.2105 37.1451 33.4144 37.1451C33.5175 37.1451 33.6113 37.1217 33.7074 37.0678C33.9886 36.906 34.0847 36.5451 33.923 36.2709L32.7582 34.2599C32.5894 33.9787 32.2308 33.8826 31.9543 34.0443Z" fill="white"/>
<path d="M37.2457 32.3703L35.2347 31.2054C34.9535 31.0437 34.5996 31.1398 34.4379 31.4211C34.2762 31.7023 34.3722 32.0562 34.6535 32.2179L36.6644 33.3828C36.7535 33.4367 36.8566 33.4601 36.9574 33.4601C37.1613 33.4601 37.3605 33.3523 37.4683 33.1671C37.6183 32.8906 37.5222 32.532 37.2457 32.3703Z" fill="white"/>
<path d="M35.2656 27.9174C35.2656 28.2408 35.5305 28.5057 35.8539 28.5057H38.1766C38.5 28.5057 38.7648 28.2408 38.7648 27.9174C38.7648 27.5939 38.5 27.3291 38.1766 27.3291H35.8539C35.5305 27.3291 35.2656 27.5939 35.2656 27.9174Z" fill="white"/>
<path d="M34.7425 24.756C34.8457 24.756 34.9394 24.7326 35.0355 24.6787L37.0465 23.5138C37.3277 23.3521 37.4238 22.9912 37.2621 22.717C37.1004 22.4357 36.7394 22.3396 36.4652 22.5013L34.4543 23.6662C34.173 23.8279 34.0769 24.1888 34.2386 24.463C34.3465 24.6482 34.5457 24.756 34.7425 24.756Z" fill="white"/>
<path d="M31.6178 21.9828C31.7069 22.0367 31.81 22.0601 31.9108 22.0601C32.1147 22.0601 32.3139 21.957 32.4217 21.7672L33.5865 19.7562C33.7483 19.4749 33.6522 19.121 33.3709 18.9593C33.0897 18.7976 32.7358 18.8937 32.5741 19.175L31.4092 21.1859C31.2381 21.4625 31.3342 21.8211 31.6178 21.9828Z" fill="white"/>
<path d="M30.2813 31.2779C30.4195 31.2779 30.5578 31.231 30.6656 31.1349C30.9117 30.9193 30.9352 30.5537 30.7195 30.3076L28.7391 28.0389V23.7006C28.7391 23.3771 28.4742 23.1123 28.1508 23.1123C27.8273 23.1123 27.5625 23.3771 27.5625 23.7006V28.2545C27.5625 28.3974 27.6164 28.531 27.7055 28.6388L29.8289 31.0693C29.9578 31.2123 30.1195 31.2779 30.2813 31.2779Z" fill="white"/>
</g>
<defs>
<clipPath id="clip0_252_4816">
<rect width="36" height="36" fill="white" transform="translate(10 10)"/>
</clipPath>
</defs>
</svg>
