<svg width="138" height="25" viewBox="0 0 138 25" fill="none" xmlns="http://www.w3.org/2000/svg">
<g clip-path="url(#clip0_329_5801)">
<path d="M12.5553 25C19.4894 25 25.1106 19.4036 25.1106 12.5C25.1106 5.59644 19.4894 0 12.5553 0C5.62121 0 0 5.59644 0 12.5C0 19.4036 5.62121 25 12.5553 25Z" fill="url(#paint0_linear_329_5801)"/>
<path d="M40.7838 25C47.7179 25 53.3391 19.4036 53.3391 12.5C53.3391 5.59644 47.7179 0 40.7838 0C33.8497 0 28.2285 5.59644 28.2285 12.5C28.2285 19.4036 33.8497 25 40.7838 25Z" fill="url(#paint1_linear_329_5801)"/>
<path d="M68.984 25C75.9181 25 81.5393 19.4036 81.5393 12.5C81.5393 5.59644 75.9181 0 68.984 0C62.0499 0 56.4287 5.59644 56.4287 12.5C56.4287 19.4036 62.0499 25 68.984 25Z" fill="url(#paint2_linear_329_5801)"/>
<path d="M97.2164 25C104.151 25 109.772 19.4036 109.772 12.5C109.772 5.59644 104.151 0 97.2164 0C90.2823 0 84.6611 5.59644 84.6611 12.5C84.6611 19.4036 90.2823 25 97.2164 25Z" fill="url(#paint3_linear_329_5801)"/>
<path d="M125.445 25C132.379 25 138 19.4036 138 12.5C138 5.59644 132.379 0 125.445 0C118.511 0 112.89 5.59644 112.89 12.5C112.89 19.4036 118.511 25 125.445 25Z" fill="url(#paint4_linear_329_5801)"/>
<path d="M12.5551 20.2643C12.2497 20.2643 11.9484 20.1763 11.6873 20.0043C11.2533 19.7163 10.9922 19.2323 10.9922 18.7123V12.5003C10.9922 11.6443 11.6913 10.9483 12.5511 10.9483C13.4108 10.9483 14.1099 11.6443 14.1099 12.5003V16.3883L15.7692 15.7043L17.1031 12.5003L15.7692 9.29633L11.9564 7.72433C11.1609 7.39633 10.7833 6.48834 11.1127 5.69634C11.4422 4.90434 12.3542 4.52834 13.1497 4.85634L17.5611 6.67634C17.9428 6.83234 18.2482 7.13633 18.4048 7.51633L20.2329 11.9083C20.3896 12.2883 20.3896 12.7163 20.2329 13.0963L18.4048 17.4883C18.2482 17.8683 17.9428 18.1723 17.5611 18.3283L13.1497 20.1483C12.9609 20.2243 12.756 20.2643 12.5551 20.2643Z" fill="white"/>
<path d="M40.7834 20.2641C40.5785 20.2641 40.3776 20.2241 40.1848 20.1441L35.7733 18.3241C35.2912 18.1241 34.9417 17.7001 34.8412 17.1921C34.7408 16.6841 34.9015 16.1561 35.2671 15.7921L42.4387 8.65211L40.7794 7.96811L36.9666 9.54011C36.1711 9.86811 35.2591 9.49211 34.9296 8.70011C34.6002 7.90811 34.9778 7.00011 35.7733 6.67211L40.1848 4.85211C40.5664 4.69611 40.9963 4.69611 41.378 4.85211L45.7895 6.67211C46.2716 6.87211 46.6211 7.29611 46.7216 7.80411C46.822 8.31211 46.6613 8.84011 46.2957 9.20411L39.1281 16.3481L40.7874 17.0321L44.6002 15.4601C45.3957 15.1321 46.3077 15.5081 46.6372 16.3001C46.9667 17.0921 46.589 18.0001 45.7935 18.3281L41.382 20.1481C41.1892 20.2241 40.9883 20.2641 40.7834 20.2641Z" fill="white"/>
<path d="M92.8046 18.444C92.1939 18.444 91.6114 18.084 91.3623 17.484L89.5342 13.092C89.3775 12.712 91.3623 7.51201 91.3623 7.51201C91.5631 7.03201 91.989 6.68401 92.4993 6.58401C93.0095 6.48401 93.5399 6.64401 93.9055 7.00801L101.077 14.148L101.764 12.496L100.185 8.70001C99.8557 7.90801 100.233 7.00001 101.029 6.67201C101.824 6.34401 102.736 6.72001 103.066 7.51201L104.894 11.904C105.051 12.284 105.051 12.712 104.894 13.092L103.066 17.484C102.865 17.964 102.439 18.312 101.929 18.412C101.419 18.512 100.888 18.352 100.523 17.988L93.351 10.848L92.664 12.5L94.2429 16.296C94.5724 17.088 94.1947 17.996 93.3992 18.324C93.2064 18.408 93.0015 18.444 92.8046 18.444Z" fill="white"/>
<path d="M68.9837 18.444C68.1239 18.444 67.4248 17.748 67.4248 16.892V8.10803C67.4248 7.25203 68.1239 6.55603 68.9837 6.55603C69.8435 6.55603 70.5425 7.25203 70.5425 8.10803V16.892C70.5466 17.748 69.8475 18.444 68.9837 18.444Z" fill="white"/>
<path d="M125.444 20.2641C125.243 20.2641 125.038 20.2241 124.845 20.1441L120.434 18.3241C120.052 18.1681 119.747 17.8641 119.59 17.4841L117.762 13.0921C117.605 12.7121 117.605 12.2841 117.762 11.9041L119.59 7.51206C119.747 7.13206 120.052 6.82806 120.434 6.67206L124.845 4.85206C125.641 4.52406 126.553 4.90006 126.882 5.69206C127.212 6.48406 126.834 7.39206 126.039 7.72006L122.226 9.29206L120.892 12.4961L122.226 15.7001L123.885 16.3841V12.4961C123.885 11.6401 124.584 10.9441 125.444 10.9441C126.304 10.9441 127.003 11.6401 127.003 12.4961V18.7081C127.003 19.2281 126.742 19.7121 126.308 20.0001C126.051 20.1761 125.749 20.2641 125.444 20.2641Z" fill="white"/>
</g>
<defs>
<linearGradient id="paint0_linear_329_5801" x1="12.5551" y1="0.32916" x2="12.5551" y2="24.3882" gradientUnits="userSpaceOnUse">
<stop stop-color="#FECB25"/>
<stop offset="1" stop-color="#EF7A00"/>
</linearGradient>
<linearGradient id="paint1_linear_329_5801" x1="40.7852" y1="0.32916" x2="40.7852" y2="24.3882" gradientUnits="userSpaceOnUse">
<stop stop-color="#FECB25"/>
<stop offset="1" stop-color="#EF7A00"/>
</linearGradient>
<linearGradient id="paint2_linear_329_5801" x1="68.9857" y1="0.32916" x2="68.9857" y2="24.3882" gradientUnits="userSpaceOnUse">
<stop stop-color="#FECB25"/>
<stop offset="1" stop-color="#EF7A00"/>
</linearGradient>
<linearGradient id="paint3_linear_329_5801" x1="97.2157" y1="0.32916" x2="97.2157" y2="24.3882" gradientUnits="userSpaceOnUse">
<stop stop-color="#FECB25"/>
<stop offset="1" stop-color="#EF7A00"/>
</linearGradient>
<linearGradient id="paint4_linear_329_5801" x1="125.446" y1="0.32916" x2="125.446" y2="24.3882" gradientUnits="userSpaceOnUse">
<stop stop-color="#FECB25"/>
<stop offset="1" stop-color="#EF7A00"/>
</linearGradient>
<clipPath id="clip0_329_5801">
<rect width="138" height="25" fill="white"/>
</clipPath>
</defs>
</svg>
