<svg width="50" height="50" viewBox="0 0 50 50" fill="none" xmlns="http://www.w3.org/2000/svg">
<g clip-path="url(#clip0_502_563)">
<circle cx="25" cy="25" r="24.6936" stroke="url(#paint0_linear_502_563)" stroke-width="0.612828"/>
<path d="M15.4527 23.0689V22.7625V13.9537C15.4534 13.3954 15.6755 12.8602 16.0702 12.4655C16.465 12.0708 17.0001 11.8487 17.5583 11.8479H37.588C38.1462 11.8487 38.6813 12.0708 39.076 12.4655C39.4707 12.8602 39.6928 13.3953 39.6936 13.9535V25.824C39.6928 26.3822 39.4707 26.9174 39.076 27.3121C38.6813 27.7068 38.1461 27.9289 37.5878 27.9296H33.8537H33.5473V28.236L33.5473 37.0458C33.5473 37.046 33.5473 37.0461 33.5473 37.0462C33.5465 37.6044 33.3244 38.1394 32.9298 38.5341C32.535 38.9288 31.9998 39.1509 31.4415 39.1516H11.4122C10.8539 39.1509 10.3187 38.9288 9.92397 38.5341C9.52922 38.1393 9.30713 37.6041 9.30641 37.0458V25.1756C9.30689 24.6171 9.52888 24.0817 9.92366 23.6868C10.3183 23.2919 10.8535 23.0697 11.4118 23.0689C11.4119 23.0689 11.4121 23.0689 11.4122 23.0689M15.4527 23.0689L11.4118 22.7625L11.4122 23.0689M15.4527 23.0689H15.1463L11.4122 23.0689M15.4527 23.0689L11.4122 23.0689M37.5882 27.7158H37.5886C38.09 27.7151 38.5706 27.5157 38.9251 27.1612C39.2796 26.8066 39.4791 26.326 39.4797 25.8246L39.4797 25.8242L39.4797 19.9921V19.6857H39.1733H15.9729H15.6665V19.9921V22.7625V23.0689H15.9729L31.4415 23.0689L31.4419 23.0689M37.5882 27.7158L31.4419 23.0689M37.5882 27.7158H33.8537H33.5473M37.5882 27.7158H33.5473M31.4419 23.0689C32.0002 23.0697 32.5354 23.2919 32.9301 23.6868C33.3248 24.0817 33.5468 24.617 33.5473 25.1753M31.4419 23.0689L33.5473 25.1753M33.5473 25.1753C33.5473 25.1754 33.5473 25.1755 33.5473 25.1756M33.5473 25.1753L33.5473 25.1756M33.5473 25.1756L33.5473 27.4094M33.5473 25.1756L33.5473 27.4094M33.5473 27.7158V27.4094M33.5473 27.7158V27.4094M39.1733 15.7022H39.4797V16.0086V19.1654V19.4719H39.1733H15.9729H15.6665V19.1654V16.0086V15.7022H15.9729H39.1733ZM17.5577 12.0618H17.5581H37.5882V12.3681L37.5886 12.0618C38.09 12.0624 38.5706 12.2619 38.9251 12.6164C39.2796 12.9709 39.4791 13.4515 39.4797 13.9529V13.9533V15.1819V15.4884H39.1733H15.9729H15.6665V15.1819V13.9533V13.9529C15.6672 13.4515 15.8666 12.9709 16.2211 12.6164C16.5757 12.2619 17.0563 12.0624 17.5577 12.0618ZM9.52025 37.0466V37.0462V25.1753V25.1751C9.52058 24.6735 9.71989 24.1926 10.0744 23.8378C10.429 23.483 10.9098 23.2834 11.4114 23.2827H11.4118H31.4419L31.4423 23.2827C31.9439 23.2834 32.4247 23.483 32.7793 23.8378C33.1338 24.1926 33.3332 24.6735 33.3335 25.1751V25.1753V37.0462L33.3335 37.0466C33.3328 37.548 33.1334 38.0286 32.7789 38.3832C32.4243 38.7377 31.9437 38.9371 31.4423 38.9378H31.4419L11.4118 38.9378L11.4114 38.9378C10.91 38.9371 10.4294 38.7377 10.0749 38.3832C9.72036 38.0286 9.52091 37.548 9.52025 37.0466Z" stroke="url(#paint1_linear_502_563)" stroke-width="0.612828"/>
<path d="M29.6439 29.6532V29.653C29.6441 29.1722 29.5017 28.702 29.2348 28.3021C28.9678 27.9022 28.5882 27.5904 28.144 27.4063C27.6998 27.2221 27.211 27.1738 26.7394 27.2674C26.2678 27.3611 25.8345 27.5925 25.4944 27.9325C25.1543 28.2724 24.9227 28.7055 24.8288 29.1771C24.7349 29.6487 24.7829 30.1376 24.9669 30.5818C25.1509 31.0261 25.4624 31.4058 25.8622 31.673C26.262 31.9402 26.7321 32.0828 27.2129 32.0828V31.7764L27.2131 32.0828C27.8575 32.0825 28.4754 31.8264 28.9311 31.3709C29.3869 30.9153 29.6432 30.2975 29.6439 29.6532ZM25.7436 27.4538C26.1784 27.1632 26.6897 27.0081 27.2128 27.0081C27.914 27.0089 28.5863 27.2878 29.0822 27.7836C29.5781 28.2795 29.857 28.9519 29.8577 29.6532C29.8576 30.1762 29.7025 30.6874 29.412 31.1222C29.1214 31.5572 28.7083 31.8961 28.225 32.0963C27.7418 32.2965 27.21 32.3489 26.6969 32.2468C26.1839 32.1448 25.7127 31.8929 25.3428 31.523C24.9729 31.1531 24.721 30.6819 24.619 30.1688C24.5169 29.6558 24.5693 29.124 24.7695 28.6407C24.9696 28.1575 25.3086 27.7444 25.7436 27.4538Z" stroke="url(#paint2_linear_502_563)" stroke-width="0.612828"/>
<path d="M15.1494 34.6968H12.2747C12.165 34.6968 12.0599 34.7403 11.9824 34.8178C11.9049 34.8954 11.8613 35.0005 11.8613 35.1101C11.8613 35.2197 11.9049 35.3249 11.9824 35.4024C12.0599 35.4799 12.165 35.5234 12.2747 35.5234H15.1494C15.259 35.5234 15.3642 35.4799 15.4417 35.4024C15.5192 35.3249 15.5627 35.2197 15.5627 35.1101C15.5627 35.0005 15.5192 34.8954 15.4417 34.8178C15.3642 34.7403 15.259 34.6968 15.1494 34.6968Z" fill="black"/>
<path d="M19.9138 34.6968H17.0442C16.9346 34.6968 16.8294 34.7403 16.7519 34.8178C16.6744 34.8954 16.6309 35.0005 16.6309 35.1101C16.6309 35.2197 16.6744 35.3249 16.7519 35.4024C16.8294 35.4799 16.9346 35.5234 17.0442 35.5234H19.9138C20.0234 35.5234 20.1285 35.4799 20.206 35.4024C20.2835 35.3249 20.3271 35.2197 20.3271 35.1101C20.3271 35.0005 20.2835 34.8954 20.206 34.8178C20.1285 34.7403 20.0234 34.6968 19.9138 34.6968V34.6968Z" fill="black"/>
<path d="M25.1599 34.6968H22.2903C22.1807 34.6968 22.0755 34.7403 21.998 34.8178C21.9205 34.8954 21.877 35.0005 21.877 35.1101C21.877 35.2197 21.9205 35.3249 21.998 35.4024C22.0755 35.4799 22.1807 35.5234 22.2903 35.5234H25.1599C25.2695 35.5234 25.3746 35.4799 25.4521 35.4024C25.5296 35.3249 25.5732 35.2197 25.5732 35.1101C25.5732 35.0005 25.5296 34.8954 25.4521 34.8178C25.3746 34.7403 25.2695 34.6968 25.1599 34.6968Z" fill="black"/>
<path d="M29.9294 34.6968H27.0598C26.9502 34.6968 26.8451 34.7403 26.7675 34.8178C26.69 34.8954 26.6465 35.0005 26.6465 35.1101C26.6465 35.2197 26.69 35.3249 26.7675 35.4024C26.8451 35.4799 26.9502 35.5234 27.0598 35.5234H29.9294C30.039 35.5234 30.1441 35.4799 30.2217 35.4024C30.2992 35.3249 30.3427 35.2197 30.3427 35.1101C30.3427 35.0005 30.2992 34.8954 30.2217 34.8178C30.1441 34.7403 30.039 34.6968 29.9294 34.6968Z" fill="black"/>
</g>
<defs>
<linearGradient id="paint0_linear_502_563" x1="78.7356" y1="-39.9194" x2="-25.0184" y2="-27.371" gradientUnits="userSpaceOnUse">
<stop stop-color="#3EB9FF"/>
<stop offset="1" stop-color="#C32FFF"/>
</linearGradient>
<linearGradient id="paint1_linear_502_563" x1="-8.81609" y1="-10.7467" x2="55.296" y2="-2.13633" gradientUnits="userSpaceOnUse">
<stop stop-color="#3EB9FF"/>
<stop offset="1" stop-color="#C32FFF"/>
</linearGradient>
<linearGradient id="paint2_linear_502_563" x1="33.5563" y1="21.9893" x2="21.3083" y2="23.4706" gradientUnits="userSpaceOnUse">
<stop stop-color="#2996D3"/>
<stop offset="1" stop-color="#B500FF"/>
</linearGradient>
<clipPath id="clip0_502_563">
<rect width="50" height="50" fill="white"/>
</clipPath>
</defs>
</svg>
