<svg width="50" height="50" viewBox="0 0 50 50" fill="none" xmlns="http://www.w3.org/2000/svg">
<g clip-path="url(#clip0_502_2460)">
<path d="M25.1113 24.6701C25.2083 24.5397 25.2648 24.3836 25.2711 24.2203L25.2801 23.9869L25.0575 23.9164C24.9952 23.8966 24.9304 23.8866 24.8653 23.8863L23.3766 23.8466L23.3766 23.8466L23.3725 23.8465C23.116 23.8431 22.8167 23.9451 22.5566 24.0911C22.2921 24.2396 22.0254 24.4573 21.8511 24.7287L21.2182 25.7119C21.1229 25.8414 21.0664 25.9953 21.0578 26.1567L21.0467 26.3668L21.2387 26.4526L22.9726 27.2278L22.9725 27.2278L22.9753 27.229C23.066 27.2685 23.1451 27.3247 23.2083 27.3928C23.2713 27.4607 23.317 27.5388 23.3437 27.6216C23.4113 27.8321 23.3738 28.117 23.1702 28.4342C23.1702 28.4342 23.1702 28.4343 23.1702 28.4343L22.5319 29.4259C22.5319 29.4259 22.5318 29.426 22.5318 29.4261C22.1354 30.0385 21.3219 30.4933 20.6563 30.4933H20.6138L20.1748 30.4813L20.0021 30.4766L19.9087 30.622L19.2805 31.5996C19.2804 31.5997 19.2804 31.5998 19.2803 31.5998C19.2549 31.6392 19.2096 31.6732 19.1497 31.6872L19.2191 31.9856L19.1497 31.6872C19.0894 31.7012 19.0265 31.6918 18.9762 31.6637C18.9265 31.6358 18.8972 31.5947 18.8865 31.5546L18.5917 31.6336L18.8865 31.5546C18.876 31.5153 18.8819 31.4726 18.9066 31.4342L18.9067 31.4342L18.9089 31.4307L19.2328 30.9127L19.5027 30.4812L18.9951 30.4446C18.8668 30.4353 18.7441 30.3971 18.6376 30.3346C18.5328 30.273 18.4477 30.1902 18.3876 30.0947C18.2619 29.8712 18.2677 29.5422 18.5116 29.1627L18.9285 28.5154C18.955 28.478 18.9998 28.4465 19.0576 28.4338C19.1169 28.4207 19.1785 28.4302 19.2279 28.4578L19.3772 28.1902L19.2279 28.4578C19.2767 28.4851 19.3059 28.5252 19.3171 28.5646C19.3279 28.6023 19.3234 28.643 19.3019 28.6802L18.8919 29.319C18.7972 29.4482 18.741 29.6014 18.7319 29.7621L18.7187 29.995L18.9397 30.0697C19.0042 30.0915 19.0718 30.1022 19.1396 30.1016L20.6258 30.1425L20.6258 30.1426H20.6343H20.6563C20.9119 30.1426 21.2073 30.0388 21.4637 29.8924C21.7244 29.7436 21.9861 29.5275 22.1578 29.2609C22.1578 29.2608 22.1579 29.2608 22.1579 29.2607L22.795 28.2745C22.8896 28.1452 22.9456 27.9917 22.954 27.8309L22.9649 27.621L22.773 27.5353L21.0392 26.7601L21.0392 26.7601L21.0373 26.7592C20.9466 26.7195 20.8676 26.663 20.8046 26.5948L20.5795 26.8027L20.8046 26.5948C20.7416 26.5267 20.6961 26.4483 20.6695 26.3654L20.6693 26.3649C20.6013 26.1544 20.6392 25.863 20.841 25.5566L20.841 25.5566L20.8428 25.5537L21.48 24.5618C21.48 24.5617 21.4801 24.5616 21.4801 24.5616C21.8763 23.9483 22.6896 23.4946 23.3555 23.4946H23.3941L23.8331 23.5066L24.0057 23.5113L24.0991 23.3661L24.7247 22.3938C24.7512 22.3565 24.796 22.3249 24.8538 22.3122C24.9131 22.2991 24.9747 22.3087 25.0241 22.3362C25.0729 22.3635 25.1021 22.4036 25.1133 22.443C25.1241 22.4808 25.1196 22.5215 25.0981 22.5587L24.7679 23.0735L24.4903 23.5062L25.003 23.5445C25.1312 23.554 25.2538 23.5925 25.3601 23.6552C25.465 23.7171 25.5502 23.8002 25.6102 23.896C25.7375 24.1195 25.734 24.4494 25.4913 24.8261L25.4912 24.8262L25.0715 25.4781L25.1113 24.6701ZM25.1113 24.6701L24.6977 25.3125L24.6976 25.3126C24.6851 25.332 24.6775 25.3524 24.6743 25.3725C24.6711 25.3925 24.6721 25.413 24.6775 25.433C24.6882 25.4731 24.7175 25.5143 24.7672 25.5421C24.8175 25.5702 24.8804 25.5796 24.9407 25.5656C25.0006 25.5517 25.046 25.5176 25.0714 25.4782L25.1113 24.6701Z" stroke="url(#paint0_linear_502_2460)" stroke-width="0.612828"/>
<path d="M23.9089 35.606L23.9089 35.606L23.9072 35.6087C23.8901 35.6364 23.8675 35.6578 23.8426 35.6721C23.8181 35.6861 23.7915 35.6932 23.7652 35.6936H9.4818C9.48178 35.6936 9.48177 35.6936 9.48175 35.6936C9.4528 35.6936 9.42352 35.6854 9.39689 35.6688C9.37012 35.6521 9.34648 35.6271 9.32994 35.595C9.31335 35.5629 9.305 35.5257 9.30661 35.4877C9.30821 35.4498 9.31959 35.414 9.33845 35.384C9.3385 35.3839 9.33854 35.3838 9.33859 35.3838L20.0903 18.3902L20.0905 18.3898C20.1079 18.3624 20.1305 18.3413 20.1555 18.3273C20.1803 18.3133 20.2071 18.3064 20.2337 18.3064C20.2337 18.3064 20.2337 18.3064 20.2338 18.3064L34.5175 18.3064L34.5179 18.3064C34.547 18.3064 34.5763 18.3145 34.603 18.3311C34.6299 18.3478 34.6536 18.3729 34.6701 18.4051C34.6867 18.4373 34.6951 18.4746 34.6934 18.5127C34.6917 18.5507 34.6802 18.5867 34.6611 18.6167L34.6609 18.6171L23.9089 35.606ZM10.1191 34.825L9.82131 35.2953H10.3779H23.5077H23.6764L23.7666 35.1528L33.885 19.17L34.1827 18.6997H33.6261H20.4963H20.3276L20.2374 18.8422L10.1191 34.825Z" stroke="url(#paint1_linear_502_2460)" stroke-width="0.612828"/>
<path d="M25.328 37.6203L25.3277 37.6206C25.3127 37.6441 25.2927 37.6625 25.2702 37.6749C25.2478 37.6873 25.2232 37.6936 25.1987 37.6936C25.1987 37.6936 25.1987 37.6936 25.1986 37.6936H11.4633C11.4242 37.6936 11.3851 37.6777 11.3551 37.6469C11.3248 37.6158 11.3064 37.5721 11.3064 37.5249C11.3064 37.4777 11.3248 37.4339 11.3551 37.4028C11.3851 37.372 11.4242 37.3562 11.4633 37.3562H24.9531H25.1203L25.2108 37.2156L35.404 21.3808L35.4043 21.3803C35.4164 21.3615 35.4316 21.3458 35.4488 21.3338C35.466 21.3219 35.4849 21.3138 35.5044 21.3096C35.5238 21.3055 35.5438 21.3053 35.5633 21.3092C35.5828 21.313 35.6018 21.3208 35.6191 21.3325C35.6365 21.3441 35.6519 21.3596 35.6642 21.3781L35.9196 21.209L35.6642 21.3781C35.6765 21.3967 35.6854 21.418 35.69 21.4409C35.6946 21.4637 35.6948 21.4873 35.6905 21.5102C35.6862 21.5331 35.6777 21.5546 35.6656 21.5734C35.6656 21.5734 35.6656 21.5734 35.6656 21.5735L25.328 37.6203Z" stroke="url(#paint2_linear_502_2460)" stroke-width="0.612828"/>
<path d="M26.6755 40.3001H26.5068H12.4818C12.4397 40.3001 12.3965 40.3174 12.3624 40.353L12.1411 40.141L12.3624 40.353C12.328 40.3889 12.3064 40.4405 12.3064 40.4968C12.3064 40.5532 12.328 40.6047 12.3624 40.6407L12.1411 40.8526L12.3624 40.6407C12.3965 40.6762 12.4397 40.6936 12.4818 40.6936H26.7657C26.7657 40.6936 26.7658 40.6936 26.7658 40.6936C26.7923 40.6936 26.8192 40.6867 26.844 40.6727C26.8689 40.6587 26.8916 40.6376 26.9089 40.6101L26.9092 40.6097L37.6613 23.6164C37.6613 23.6164 37.6613 23.6164 37.6613 23.6164C37.6893 23.572 37.7003 23.5159 37.6895 23.4611C37.6789 23.4064 37.6485 23.3621 37.6099 23.3354L37.7841 23.0833L37.6101 23.3355C37.572 23.3093 37.5277 23.301 37.4861 23.3098C37.4442 23.3188 37.4035 23.3455 37.3757 23.3893L26.6755 40.3001ZM26.6755 40.3001L26.7657 40.1575L37.3756 23.3895L26.6755 40.3001Z" stroke="url(#paint3_linear_502_2460)" stroke-width="0.612828"/>
<path d="M37.7797 14.3146H38.0983C39.4845 14.3861 40.8032 14.9278 41.8205 15.848C42.9154 16.8384 43.579 18.1929 43.6801 19.6364C43.7812 21.0799 43.3125 22.508 42.3665 23.6318C41.4203 24.7558 40.0667 25.4915 38.5786 25.687C38.53 25.6934 38.4819 25.6805 38.4452 25.6533C38.4088 25.6264 38.3873 25.5887 38.3819 25.5499C38.3766 25.5113 38.3869 25.471 38.4132 25.4376C38.4398 25.4038 38.4812 25.3794 38.5297 25.373L38.53 25.373C39.9251 25.1891 41.1982 24.4985 42.0907 23.4379C42.9834 22.377 43.428 21.0254 43.3321 19.6565C43.2362 18.2877 42.6073 17.0075 41.5757 16.0739C40.5444 15.1406 39.1874 14.623 37.7797 14.6234C37.7797 14.6234 37.7797 14.6234 37.7796 14.6234H14.2179H14.2178C12.8103 14.6236 11.4538 15.1416 10.4229 16.0751C9.39178 17.0089 8.76333 18.2892 8.66779 19.6577C8.57224 21.0264 9.01706 22.3777 9.90975 23.4384C10.8022 24.4987 12.0751 25.1891 13.47 25.373L13.4802 25.3743L13.4904 25.375C13.5396 25.3781 13.5833 25.4 13.6128 25.4326C13.6419 25.4649 13.6551 25.505 13.6524 25.544C13.6498 25.5831 13.6311 25.6219 13.5969 25.6509L13.7951 25.8846L13.5969 25.6509C13.5624 25.6802 13.5153 25.6964 13.4661 25.6932L13.4481 25.692L13.4301 25.693C13.4227 25.6934 13.4153 25.6935 13.4079 25.6934C11.9251 25.4952 10.5768 24.7605 9.63347 23.6399C8.68747 22.5162 8.21884 21.088 8.31994 19.6446C8.42104 18.2011 9.08464 16.8466 10.1795 15.8562C11.2747 14.8655 12.7193 14.3135 14.2213 14.3146H14.2215H37.7797Z" stroke="url(#paint4_linear_502_2460)" stroke-width="0.612828"/>
<circle cx="25" cy="25" r="24.6936" stroke="url(#paint5_linear_502_2460)" stroke-width="0.612828"/>
</g>
<defs>
<linearGradient id="paint0_linear_502_2460" x1="30.5977" y1="14.0161" x2="13.9104" y2="15.6307" gradientUnits="userSpaceOnUse">
<stop stop-color="#3EB9FF"/>
<stop offset="1" stop-color="#C32FFF"/>
</linearGradient>
<linearGradient id="paint1_linear_502_2460" x1="49.9425" y1="3.62903" x2="-3.1776" y2="12.9089" gradientUnits="userSpaceOnUse">
<stop stop-color="#2996D3"/>
<stop offset="1" stop-color="#B500FF"/>
</linearGradient>
<linearGradient id="paint2_linear_502_2460" x1="50.3678" y1="7.42742" x2="-0.654037" y2="16.5021" gradientUnits="userSpaceOnUse">
<stop stop-color="#3EB9FF"/>
<stop offset="1" stop-color="#C32FFF"/>
</linearGradient>
<linearGradient id="paint3_linear_502_2460" x1="52.9425" y1="8.62903" x2="-0.177599" y2="17.9089" gradientUnits="userSpaceOnUse">
<stop stop-color="#3EB9FF"/>
<stop offset="1" stop-color="#C32FFF"/>
</linearGradient>
<linearGradient id="paint4_linear_502_2460" x1="64.6897" y1="4.41935" x2="-2.28858" y2="28.7211" gradientUnits="userSpaceOnUse">
<stop stop-color="#3EB9FF"/>
<stop offset="1" stop-color="#C32FFF"/>
</linearGradient>
<linearGradient id="paint5_linear_502_2460" x1="78.7356" y1="-39.9194" x2="-25.0184" y2="-27.371" gradientUnits="userSpaceOnUse">
<stop stop-color="#3EB9FF"/>
<stop offset="1" stop-color="#C32FFF"/>
</linearGradient>
<clipPath id="clip0_502_2460">
<rect width="50" height="50" fill="white"/>
</clipPath>
</defs>
</svg>
