<svg width="50" height="50" viewBox="0 0 50 50" fill="none" xmlns="http://www.w3.org/2000/svg">
<g clip-path="url(#clip0_502_614)">
<path d="M20.0823 38.8159H17.9755C17.94 38.8159 17.9059 38.8018 17.8808 38.7767C17.8557 38.7516 17.8416 38.7175 17.8416 38.682C17.8416 38.6465 17.8557 38.6124 17.8808 38.5873C17.9059 38.5622 17.94 38.5481 17.9755 38.5481H20.0823C20.1179 38.5481 20.1519 38.5622 20.177 38.5873C20.2021 38.6124 20.2162 38.6465 20.2162 38.682C20.2162 38.7175 20.2021 38.7516 20.177 38.7767C20.1519 38.8018 20.1179 38.8159 20.0823 38.8159Z" stroke="url(#paint0_linear_502_614)" stroke-width="0.612828"/>
<mask id="path-2-inside-1_502_614" fill="white">
<path d="M33.3862 8H23.4297C22.8485 8.00203 22.2917 8.23382 21.8807 8.64481C21.4697 9.05579 21.2379 9.61262 21.2359 10.1938V19.6143L17.9071 22.943C17.3901 23.4571 16.9802 24.0687 16.7012 24.7423C16.4221 25.4159 16.2794 26.1382 16.2813 26.8673V36.3405H15.4403C15.3235 36.3405 15.2115 36.3869 15.129 36.4695C15.0464 36.5521 15 36.6641 15 36.7808V40.5829C15 40.6997 15.0464 40.8117 15.129 40.8943C15.2115 40.9768 15.3235 41.0232 15.4403 41.0232H28.0112C28.1279 41.0232 28.2399 40.9768 28.3225 40.8943C28.4051 40.8117 28.4515 40.6997 28.4515 40.5829V36.7808C28.4515 36.6641 28.4051 36.5521 28.3225 36.4695C28.2399 36.3869 28.1279 36.3405 28.0112 36.3405H27.2527V35.7494C27.2518 35.4612 27.3082 35.1757 27.4186 34.9094C27.5289 34.6432 27.6911 34.4015 27.8956 34.1984L28.7487 33.3442C29.0352 33.0595 29.2625 32.7207 29.4172 32.3475C29.572 31.9744 29.6512 31.5742 29.6502 31.1702V29.267H33.3862C33.9675 29.2649 34.5243 29.0331 34.9353 28.6222C35.3463 28.2112 35.578 27.6543 35.5801 27.0731V10.1938C35.578 9.61262 35.3463 9.05579 34.9353 8.64481C34.5243 8.23382 33.9675 8.00203 33.3862 8V8ZM23.4297 8.88062H31.1891V28.3863H25.4948V28.022L26.2312 27.3219C26.8367 26.7518 27.2289 25.9916 27.3425 25.1677C27.456 24.3439 27.2841 23.5059 26.8553 22.7933C26.7286 22.5808 26.555 22.4 26.3479 22.2647C26.1407 22.1294 25.9053 22.0431 25.6598 22.0126C25.4142 21.982 25.1649 22.0079 24.9309 22.0882C24.6968 22.1686 24.4842 22.3013 24.3092 22.4763L22.1165 24.669V10.1938C22.1168 9.84564 22.2552 9.51179 22.5015 9.26558C22.7477 9.01936 23.0815 8.88091 23.4297 8.88062ZM27.5708 40.1426H15.8806V37.2212H27.5708V40.1426ZM28.7696 31.1702C28.7702 31.4584 28.7138 31.7438 28.6034 32.01C28.4931 32.2763 28.3311 32.518 28.1267 32.7212L27.2714 33.5754C26.9852 33.8603 26.7583 34.1992 26.6037 34.5723C26.4492 34.9455 26.3701 35.3455 26.371 35.7494V36.3405H17.1619V26.8673C17.1604 26.2537 17.2805 25.6459 17.5154 25.0791C17.7502 24.5123 18.0951 23.9976 18.5302 23.5649L21.2359 20.8592V25.5496L19.2644 27.5211C19.1818 27.6038 19.1354 27.7158 19.1354 27.8327C19.1354 27.9495 19.1818 28.0616 19.2644 28.1442C19.347 28.2268 19.4591 28.2732 19.5759 28.2732C19.6928 28.2732 19.8048 28.2268 19.8874 28.1442L24.9323 23.0982C25.0125 23.0179 25.1099 22.957 25.2173 22.9201C25.3246 22.8833 25.439 22.8715 25.5516 22.8856C25.6642 22.8997 25.772 22.9394 25.8669 23.0017C25.9618 23.0639 26.0413 23.147 26.0991 23.2446C26.4241 23.7863 26.5538 24.4229 26.4667 25.0486C26.3796 25.6742 26.0809 26.2512 25.6203 26.6834L24.7474 27.5134C24.704 27.5545 24.6694 27.604 24.6457 27.6589C24.6221 27.7138 24.6098 27.7729 24.6098 27.8327V31.2164C24.6098 31.3529 24.5437 32.5517 22.3565 32.5517C22.2397 32.5517 22.1277 32.5981 22.0451 32.6806C21.9626 32.7632 21.9162 32.8752 21.9162 32.992C21.9162 33.1088 21.9626 33.2208 22.0451 33.3033C22.1277 33.3859 22.2397 33.4323 22.3565 33.4323C23.4936 33.4323 24.3478 33.1461 24.8982 32.5825C25.2636 32.2165 25.4755 31.7247 25.4904 31.2076V29.267H28.7652L28.7696 31.1702ZM34.6995 27.0731C34.6992 27.4213 34.5607 27.7552 34.3145 28.0014C34.0683 28.2476 33.7344 28.386 33.3862 28.3863H32.0653V8.88062H33.3862C33.7344 8.88091 34.0683 9.01936 34.3145 9.26558C34.5607 9.51179 34.6992 9.84564 34.6995 10.1938V27.0731Z"/>
</mask>
<path d="M33.3862 8H23.4297C22.8485 8.00203 22.2917 8.23382 21.8807 8.64481C21.4697 9.05579 21.2379 9.61262 21.2359 10.1938V19.6143L17.9071 22.943C17.3901 23.4571 16.9802 24.0687 16.7012 24.7423C16.4221 25.4159 16.2794 26.1382 16.2813 26.8673V36.3405H15.4403C15.3235 36.3405 15.2115 36.3869 15.129 36.4695C15.0464 36.5521 15 36.6641 15 36.7808V40.5829C15 40.6997 15.0464 40.8117 15.129 40.8943C15.2115 40.9768 15.3235 41.0232 15.4403 41.0232H28.0112C28.1279 41.0232 28.2399 40.9768 28.3225 40.8943C28.4051 40.8117 28.4515 40.6997 28.4515 40.5829V36.7808C28.4515 36.6641 28.4051 36.5521 28.3225 36.4695C28.2399 36.3869 28.1279 36.3405 28.0112 36.3405H27.2527V35.7494C27.2518 35.4612 27.3082 35.1757 27.4186 34.9094C27.5289 34.6432 27.6911 34.4015 27.8956 34.1984L28.7487 33.3442C29.0352 33.0595 29.2625 32.7207 29.4172 32.3475C29.572 31.9744 29.6512 31.5742 29.6502 31.1702V29.267H33.3862C33.9675 29.2649 34.5243 29.0331 34.9353 28.6222C35.3463 28.2112 35.578 27.6543 35.5801 27.0731V10.1938C35.578 9.61262 35.3463 9.05579 34.9353 8.64481C34.5243 8.23382 33.9675 8.00203 33.3862 8V8ZM23.4297 8.88062H31.1891V28.3863H25.4948V28.022L26.2312 27.3219C26.8367 26.7518 27.2289 25.9916 27.3425 25.1677C27.456 24.3439 27.2841 23.5059 26.8553 22.7933C26.7286 22.5808 26.555 22.4 26.3479 22.2647C26.1407 22.1294 25.9053 22.0431 25.6598 22.0126C25.4142 21.982 25.1649 22.0079 24.9309 22.0882C24.6968 22.1686 24.4842 22.3013 24.3092 22.4763L22.1165 24.669V10.1938C22.1168 9.84564 22.2552 9.51179 22.5015 9.26558C22.7477 9.01936 23.0815 8.88091 23.4297 8.88062ZM27.5708 40.1426H15.8806V37.2212H27.5708V40.1426ZM28.7696 31.1702C28.7702 31.4584 28.7138 31.7438 28.6034 32.01C28.4931 32.2763 28.3311 32.518 28.1267 32.7212L27.2714 33.5754C26.9852 33.8603 26.7583 34.1992 26.6037 34.5723C26.4492 34.9455 26.3701 35.3455 26.371 35.7494V36.3405H17.1619V26.8673C17.1604 26.2537 17.2805 25.6459 17.5154 25.0791C17.7502 24.5123 18.0951 23.9976 18.5302 23.5649L21.2359 20.8592V25.5496L19.2644 27.5211C19.1818 27.6038 19.1354 27.7158 19.1354 27.8327C19.1354 27.9495 19.1818 28.0616 19.2644 28.1442C19.347 28.2268 19.4591 28.2732 19.5759 28.2732C19.6928 28.2732 19.8048 28.2268 19.8874 28.1442L24.9323 23.0982C25.0125 23.0179 25.1099 22.957 25.2173 22.9201C25.3246 22.8833 25.439 22.8715 25.5516 22.8856C25.6642 22.8997 25.772 22.9394 25.8669 23.0017C25.9618 23.0639 26.0413 23.147 26.0991 23.2446C26.4241 23.7863 26.5538 24.4229 26.4667 25.0486C26.3796 25.6742 26.0809 26.2512 25.6203 26.6834L24.7474 27.5134C24.704 27.5545 24.6694 27.604 24.6457 27.6589C24.6221 27.7138 24.6098 27.7729 24.6098 27.8327V31.2164C24.6098 31.3529 24.5437 32.5517 22.3565 32.5517C22.2397 32.5517 22.1277 32.5981 22.0451 32.6806C21.9626 32.7632 21.9162 32.8752 21.9162 32.992C21.9162 33.1088 21.9626 33.2208 22.0451 33.3033C22.1277 33.3859 22.2397 33.4323 22.3565 33.4323C23.4936 33.4323 24.3478 33.1461 24.8982 32.5825C25.2636 32.2165 25.4755 31.7247 25.4904 31.2076V29.267H28.7652L28.7696 31.1702ZM34.6995 27.0731C34.6992 27.4213 34.5607 27.7552 34.3145 28.0014C34.0683 28.2476 33.7344 28.386 33.3862 28.3863H32.0653V8.88062H33.3862C33.7344 8.88091 34.0683 9.01936 34.3145 9.26558C34.5607 9.51179 34.6992 9.84564 34.6995 10.1938V27.0731Z" stroke="url(#paint1_linear_502_614)" stroke-width="1.22566" mask="url(#path-2-inside-1_502_614)"/>
<circle cx="25" cy="25" r="24.6936" stroke="url(#paint2_linear_502_614)" stroke-width="0.612828"/>
</g>
<defs>
<linearGradient id="paint0_linear_502_614" x1="22.2396" y1="37.5386" x2="16.8559" y2="39.7475" gradientUnits="userSpaceOnUse">
<stop stop-color="#3EB9FF"/>
<stop offset="1" stop-color="#C32FFF"/>
</linearGradient>
<linearGradient id="paint1_linear_502_614" x1="47.4077" y1="-18.3653" x2="4.32248" y2="-15.1179" gradientUnits="userSpaceOnUse">
<stop stop-color="#2996D3"/>
<stop offset="1" stop-color="#B500FF"/>
</linearGradient>
<linearGradient id="paint2_linear_502_614" x1="78.7356" y1="-39.9194" x2="-25.0184" y2="-27.371" gradientUnits="userSpaceOnUse">
<stop stop-color="#3EB9FF"/>
<stop offset="1" stop-color="#C32FFF"/>
</linearGradient>
<clipPath id="clip0_502_614">
<rect width="50" height="50" fill="white"/>
</clipPath>
</defs>
</svg>
