<svg width="50" height="50" viewBox="0 0 50 50" fill="none" xmlns="http://www.w3.org/2000/svg">
<g clip-path="url(#clip0_502_792)">
<path d="M41.4264 30.9808V30.9805V15.1119V15.1116C41.4258 14.4387 41.1581 13.7935 40.6823 13.3177C40.2065 12.8419 39.5613 12.5742 38.8884 12.5736H38.8881L12.1119 12.5736L12.1116 12.5736C11.4387 12.5742 10.7935 12.8419 10.3177 13.3177C9.84186 13.7935 9.57425 14.4387 9.57359 15.1116V15.1119L9.57359 30.9805L9.57359 30.9808C9.57425 31.6537 9.84186 32.2989 10.3177 32.7747C10.7935 33.2505 11.4387 33.5182 12.1116 33.5188H12.1119H38.8881H38.8884C39.5613 33.5182 40.2065 33.2505 40.6823 32.7747C41.1581 32.2989 41.4258 31.6537 41.4264 30.9808ZM10.1291 13.1291C10.6551 12.6031 11.3682 12.3072 12.1121 12.3064H38.8879C39.6318 12.3072 40.3449 12.6031 40.8709 13.1291C41.3969 13.6551 41.6928 14.3683 41.6936 15.1122V30.9802C41.6928 31.7241 41.3969 32.4373 40.8709 32.9633C40.3449 33.4893 39.6317 33.7852 38.8878 33.786H12.1122C11.3683 33.7852 10.6551 33.4893 10.1291 32.9633C9.6031 32.4373 9.30724 31.7242 9.30641 30.9803V15.1121C9.30724 14.3682 9.6031 13.6551 10.1291 13.1291Z" stroke="url(#paint0_linear_502_792)" stroke-width="0.612828"/>
<path d="M13.44 23.3528H37.254C37.2894 23.3528 37.3234 23.3669 37.3484 23.3919C37.3735 23.417 37.3876 23.451 37.3876 23.4864C37.3876 23.5218 37.3735 23.5558 37.3484 23.5808C37.3234 23.6059 37.2894 23.62 37.254 23.62H13.44C13.4046 23.62 13.3706 23.6059 13.3455 23.5808C13.3205 23.5558 13.3064 23.5218 13.3064 23.4864C13.3064 23.451 13.3205 23.417 13.3455 23.3919C13.3706 23.3669 13.4046 23.3528 13.44 23.3528Z" stroke="url(#paint1_linear_502_792)" stroke-width="0.612828"/>
<path d="M13.44 25.9309H37.254C37.2894 25.9309 37.3234 25.945 37.3484 25.9701C37.3735 25.9951 37.3876 26.0291 37.3876 26.0645C37.3876 26.0999 37.3735 26.1339 37.3484 26.159C37.3234 26.184 37.2894 26.1981 37.254 26.1981H13.44C13.4046 26.1981 13.3706 26.184 13.3455 26.159C13.3205 26.1339 13.3064 26.0999 13.3064 26.0645C13.3064 26.0291 13.3205 25.9951 13.3455 25.9701C13.3706 25.945 13.4046 25.9309 13.44 25.9309Z" stroke="url(#paint2_linear_502_792)" stroke-width="0.612828"/>
<path d="M13.44 28.5091H37.254C37.2894 28.5091 37.3234 28.5231 37.3484 28.5482C37.3735 28.5732 37.3876 28.6072 37.3876 28.6426C37.3876 28.6781 37.3735 28.712 37.3484 28.7371C37.3234 28.7621 37.2894 28.7762 37.254 28.7762H13.44C13.4046 28.7762 13.3706 28.7621 13.3455 28.7371C13.3205 28.712 13.3064 28.6781 13.3064 28.6426C13.3064 28.6072 13.3205 28.5732 13.3455 28.5482C13.3706 28.5231 13.4046 28.5091 13.44 28.5091Z" stroke="url(#paint3_linear_502_792)" stroke-width="0.612828"/>
<path d="M20.4006 35.5943L21.0769 33.606L25.496 33.606L29.9244 33.606L30.6007 35.5943M20.4777 35.405L20.2279 36.1968C19.8731 37.3237 18.2231 37.4984 16.9311 37.4984H12.2208C11.9003 37.4984 11.6406 37.8089 11.6406 38.1922C11.6406 38.5754 11.9003 38.886 12.2208 38.886H25.3718H38.7805C39.101 38.886 39.3606 38.5754 39.3606 38.1922C39.3606 37.8089 39.101 37.4984 38.7805 37.4984H34.0702C32.7781 37.4984 31.1281 37.3237 30.7734 36.1968L30.5236 35.405" stroke="url(#paint4_linear_502_792)" stroke-width="0.612828"/>
<circle cx="16.2611" cy="17.9398" r="2.33359" stroke="url(#paint5_linear_502_792)" stroke-width="0.612828"/>
<circle cx="25" cy="25" r="24.6936" stroke="url(#paint6_linear_502_792)" stroke-width="0.612828"/>
</g>
<defs>
<linearGradient id="paint0_linear_502_792" x1="60.9655" y1="-5.63829" x2="-6.3179" y2="6.51688" gradientUnits="userSpaceOnUse">
<stop stop-color="#3EB9FF"/>
<stop offset="1" stop-color="#C32FFF"/>
</linearGradient>
<linearGradient id="paint1_linear_502_792" x1="51.8859" y1="22.3438" x2="47.7326" y2="36.4394" gradientUnits="userSpaceOnUse">
<stop stop-color="#2996D3"/>
<stop offset="1" stop-color="#B500FF"/>
</linearGradient>
<linearGradient id="paint2_linear_502_792" x1="51.8859" y1="24.9219" x2="47.7326" y2="39.0176" gradientUnits="userSpaceOnUse">
<stop stop-color="#3EB9FF"/>
<stop offset="1" stop-color="#C32FFF"/>
</linearGradient>
<linearGradient id="paint3_linear_502_792" x1="51.8859" y1="27.5001" x2="47.7326" y2="41.5957" gradientUnits="userSpaceOnUse">
<stop stop-color="#3EB9FF"/>
<stop offset="1" stop-color="#C32FFF"/>
</linearGradient>
<linearGradient id="paint4_linear_502_792" x1="55.2917" y1="29.3905" x2="13.6981" y2="55.8004" gradientUnits="userSpaceOnUse">
<stop stop-color="#3EB9FF"/>
<stop offset="1" stop-color="#C32FFF"/>
</linearGradient>
<linearGradient id="paint5_linear_502_792" x1="21.9356" y1="11.0843" x2="10.9791" y2="12.4094" gradientUnits="userSpaceOnUse">
<stop stop-color="#3EB9FF"/>
<stop offset="1" stop-color="#C32FFF"/>
</linearGradient>
<linearGradient id="paint6_linear_502_792" x1="78.7356" y1="-39.9194" x2="-25.0184" y2="-27.371" gradientUnits="userSpaceOnUse">
<stop stop-color="#3EB9FF"/>
<stop offset="1" stop-color="#C32FFF"/>
</linearGradient>
<clipPath id="clip0_502_792">
<rect width="50" height="50" fill="white"/>
</clipPath>
</defs>
</svg>
