<svg width="46" height="47" viewBox="0 0 46 47" fill="none" xmlns="http://www.w3.org/2000/svg">
<g clip-path="url(#clip0)">
<path d="M39.2634 7.56665C34.9193 3.22244 29.1434 0.830078 23 0.830078C16.8566 0.830078 11.0807 3.22244 6.73657 7.56665C2.39236 11.9108 0 17.6867 0 23.8301C0 29.9735 2.39236 35.7494 6.73657 40.0935C11.0807 44.4377 16.8566 46.8301 23 46.8301C29.1434 46.8301 34.9193 44.4377 39.2634 40.0935C43.6076 35.7493 46 29.9735 46 23.8301C46 17.6867 43.6076 11.9108 39.2634 7.56665ZM23 45.3775C11.1187 45.3775 1.45259 35.7114 1.45259 23.8301C1.45259 11.9488 11.1187 2.28267 23 2.28267C34.8813 2.28267 44.5474 11.9488 44.5474 23.8301C44.5474 35.7114 34.8813 45.3775 23 45.3775Z" fill="white"/>
<path d="M35.3852 13.5898H29.0492C28.5844 13.5898 28.2064 13.9679 28.2064 14.4327V16.7885C28.2064 17.2531 28.5844 17.6313 29.0492 17.6313H35.3852C35.85 17.6313 36.2281 17.2532 36.2281 16.7885V14.4327C36.2281 13.9679 35.85 13.5898 35.3852 13.5898ZM34.7755 16.1787H29.659V15.0425H34.7755V16.1787Z" fill="white"/>
<path d="M32.2172 18.1074C27.7416 18.1074 24.1004 21.7931 24.1004 26.3233C24.1004 30.8536 27.7417 34.5391 32.2172 34.5391C35.3973 34.5391 38.4067 32.5187 39.706 29.5116C39.7392 29.4347 39.7876 29.1556 39.7876 29.0919C39.7876 28.6907 39.4625 28.3656 39.0613 28.3656H35.2461C34.9789 28.3656 34.7333 28.5123 34.6066 28.7474C34.2174 29.4699 32.7242 29.6054 32.2334 29.5983C32.228 29.5983 32.2226 29.5982 32.2172 29.5982C30.7344 29.5982 30.1823 28.5898 29.9769 27.8494H39.5569C39.5585 27.8494 39.56 27.8493 39.5616 27.8493C39.9316 27.8514 40.2492 27.5738 40.2885 27.1988C40.3188 26.9094 40.3343 26.6148 40.3343 26.3232C40.3341 21.793 36.6929 18.1074 32.2172 18.1074ZM38.8795 26.3971H29.1297C28.9338 26.3971 28.7462 26.4763 28.6096 26.6166C28.4728 26.7569 28.3985 26.9465 28.4036 27.1424C28.4062 27.2406 28.4415 28.1291 28.8958 29.0464C29.5349 30.337 30.7115 31.0486 32.2094 31.051C32.2272 31.0513 32.2514 31.0516 32.2814 31.0516C32.7526 31.0516 34.666 30.9777 35.6276 29.8184H37.912C36.6852 31.8058 34.5031 33.0867 32.2172 33.0867C28.5425 33.0867 25.553 30.0527 25.553 26.3235C25.553 22.5942 28.5425 19.5602 32.2172 19.5602C35.8919 19.5602 38.8813 22.5942 38.8813 26.3235C38.8814 26.3479 38.8798 26.3726 38.8795 26.3971Z" fill="white"/>
<path d="M16.6169 16.3984H11.7235C11.3224 16.3984 10.9972 16.7237 10.9972 17.1247V20.8462C10.9972 21.2474 11.3225 21.5724 11.7235 21.5724H16.6169C17.9464 21.5724 19.028 20.4908 19.028 19.1613V18.8096C19.028 17.4801 17.9464 16.3984 16.6169 16.3984ZM17.5754 19.1614C17.5754 19.69 17.1454 20.1199 16.6169 20.1199H12.4498V17.8511H16.6169C17.1454 17.8511 17.5754 18.2811 17.5754 18.8097V19.1614Z" fill="white"/>
<path d="M15.9671 24.3525H11.7234C11.3223 24.3525 10.9971 24.6778 10.9971 25.0788V29.7477C10.9971 30.1489 11.3224 30.474 11.7234 30.474H15.9671C17.6549 30.474 19.0279 29.101 19.0279 27.4132C19.0279 25.7255 17.6549 24.3525 15.9671 24.3525ZM15.9671 29.0215H12.4497V25.8052H15.9671C16.8539 25.8052 17.5753 26.5266 17.5753 27.4134C17.5753 28.3001 16.8539 29.0215 15.9671 29.0215Z" fill="white"/>
<path d="M35.485 22.7872C35.042 22.0067 34.1197 21.077 32.2398 21.0697C31.9874 21.0562 30.4503 21.0174 29.3896 21.999C28.7352 22.6047 28.4033 23.4448 28.4033 24.4956C28.4034 24.8966 28.7285 25.2218 29.1297 25.2218H35.2455C35.4399 25.2218 35.6261 25.1439 35.7626 25.0056C35.899 24.8673 35.9744 24.68 35.9717 24.4857C35.9707 24.3976 35.9468 23.6008 35.485 22.7872ZM29.9497 23.7691C30.0333 23.4864 30.1732 23.2548 30.3712 23.0698C31.033 22.4513 32.1533 22.5193 32.1611 22.5201C32.1798 22.5215 32.1985 22.5222 32.2172 22.5222C33.171 22.5222 33.8191 22.8304 34.1983 23.4642C34.2593 23.5661 34.3088 23.6695 34.3489 23.7692H29.9497V23.7691Z" fill="white"/>
<path d="M20.9573 22.7464C22.2912 21.845 23.1693 20.3179 23.1672 18.5898C23.1639 15.8394 20.8265 13.5898 18.0761 13.5898H7.52297C7.12182 13.5898 6.79668 13.9151 6.79668 14.3161V25.691C6.79668 26.0921 7.12191 26.4173 7.52297 26.4173C7.92413 26.4173 8.24927 26.092 8.24927 25.691V15.0425H18.0933C20.0212 15.0425 21.6494 16.5503 21.7126 18.4772C21.7785 20.4835 20.1714 22.1378 18.1821 22.1494C17.7918 22.1518 17.4524 22.4533 17.4354 22.8434C17.4173 23.2594 17.7491 23.6021 18.1611 23.6021H18.4743C20.6917 23.6021 22.4891 25.3996 22.4891 27.617V28.1207C22.4891 30.3381 20.6916 32.1356 18.4743 32.1356H8.24927V24.6415C8.24927 24.2404 7.92404 23.9152 7.52297 23.9152C7.12182 23.9152 6.79668 24.2405 6.79668 24.6415V32.8619C6.79668 33.2631 7.12191 33.5882 7.52297 33.5882H18.4743C21.4939 33.5882 23.9418 31.1404 23.9418 28.1207V27.617C23.9419 25.4955 22.7276 23.6525 20.9573 22.7464Z" fill="white"/>
</g>
<defs>
<clipPath id="clip0">
<rect width="46" height="46" fill="white" transform="translate(0 0.830078)"/>
</clipPath>
</defs>
</svg>
