<svg width="59" height="58" viewBox="0 0 59 58" fill="none" xmlns="http://www.w3.org/2000/svg">
<g clip-path="url(#clip0)">
<path d="M56.6977 44.7339L44.9703 36.9131C43.4821 35.9286 41.4872 36.2526 40.3869 37.6575L36.9709 42.0497C36.5319 42.6286 35.7338 42.7965 35.0987 42.4437L34.4489 42.0855C32.2948 40.9113 29.6145 39.4496 24.2143 34.0474C18.8141 28.6453 17.3494 25.963 16.1753 23.8129L15.819 23.1631C15.4613 22.5281 15.6261 21.7266 16.2051 21.2841L20.5944 17.8691C21.9988 16.7687 22.3232 14.7744 21.3398 13.2857L13.519 1.55835C12.5112 0.0423923 10.4893 -0.412689 8.92905 0.525195L4.02511 3.471C2.48426 4.37687 1.35379 5.84394 0.870765 7.56481C-0.895136 13.9991 0.433334 25.1037 16.7914 41.4636C29.8038 54.4751 39.491 57.9742 46.1493 57.9742C47.6817 57.9807 49.208 57.7814 50.6873 57.3814C52.4086 56.8989 53.8759 55.7684 54.7812 54.2271L57.7299 49.326C58.6691 47.7655 58.2143 45.7423 56.6977 44.7339ZM56.0662 48.3353L53.1242 53.2393C52.4742 54.3517 51.4188 55.1697 50.1793 55.5218C44.2394 57.1526 33.8619 55.8018 18.1575 40.0975C2.45314 24.3931 1.10249 14.0165 2.73329 8.07567C3.08586 6.83467 3.90483 5.77798 5.01866 5.12692L9.92261 2.18496C10.5996 1.77763 11.4771 1.97507 11.9145 2.63292L16.1628 9.01118L19.7286 14.3592C20.1556 15.005 20.0153 15.8704 19.4061 16.3483L15.0159 19.7633C13.6798 20.7849 13.2983 22.6334 14.1208 24.1005L14.4695 24.7339C15.7035 26.9971 17.2376 29.8125 22.8387 35.4127C28.4397 41.0127 31.2543 42.547 33.5165 43.7809L34.1508 44.1304C35.6177 44.9529 37.4663 44.5715 38.488 43.2354L41.903 38.8451C42.3809 38.2363 43.2461 38.0961 43.892 38.5227L55.6183 46.3435C56.2766 46.7804 56.4741 47.6585 56.0662 48.3353Z" fill="url(#paint0_linear)"/>
<path d="M33.1088 9.69759C42.1698 9.70766 49.5126 17.0506 49.5228 26.1116C49.5228 26.6449 49.955 27.0771 50.4883 27.0771C51.0216 27.0771 51.4538 26.6449 51.4538 26.1116C51.4426 15.9845 43.2359 7.77769 33.1088 7.7666C32.5755 7.7666 32.1433 8.19883 32.1433 8.73209C32.1433 9.26536 32.5755 9.69759 33.1088 9.69759Z" fill="url(#paint1_linear)"/>
<path d="M33.1088 15.4906C38.9717 15.4975 43.7227 20.2485 43.7296 26.1114C43.7296 26.6447 44.162 27.0769 44.6951 27.0769C45.2284 27.0769 45.6606 26.6447 45.6606 26.1114C45.6526 19.1825 40.0376 13.5675 33.1088 13.5596C32.5755 13.5596 32.1433 13.9918 32.1433 14.5251C32.1433 15.0583 32.5755 15.4906 33.1088 15.4906Z" fill="url(#paint2_linear)"/>
<path d="M33.1088 21.2835C35.7736 21.2867 37.9332 23.4462 37.9365 26.1112C37.9365 26.6445 38.3688 27.0767 38.902 27.0767C39.4351 27.0767 39.8674 26.6445 39.8674 26.1112C39.8631 22.3803 36.8397 19.3567 33.1088 19.3525C32.5755 19.3525 32.1433 19.7848 32.1433 20.318C32.1433 20.8513 32.5755 21.2835 33.1088 21.2835Z" fill="url(#paint3_linear)"/>
</g>
<defs>
<linearGradient id="paint0_linear" x1="29.2479" y1="0.0380859" x2="29.2479" y2="57.9743" gradientUnits="userSpaceOnUse">
<stop stop-color="#82B1FF"/>
<stop offset="1" stop-color="#A6A7CF"/>
</linearGradient>
<linearGradient id="paint1_linear" x1="41.7985" y1="7.7666" x2="41.7985" y2="27.0771" gradientUnits="userSpaceOnUse">
<stop stop-color="#82B1FF"/>
<stop offset="1" stop-color="#A6A7CF"/>
</linearGradient>
<linearGradient id="paint2_linear" x1="38.9019" y1="13.5596" x2="38.9019" y2="27.0769" gradientUnits="userSpaceOnUse">
<stop stop-color="#82B1FF"/>
<stop offset="1" stop-color="#A6A7CF"/>
</linearGradient>
<linearGradient id="paint3_linear" x1="36.0054" y1="19.3525" x2="36.0054" y2="27.0767" gradientUnits="userSpaceOnUse">
<stop stop-color="#82B1FF"/>
<stop offset="1" stop-color="#A6A7CF"/>
</linearGradient>
<clipPath id="clip0">
<rect width="57.9404" height="57.9404" fill="white" transform="translate(0.277618 0.0351562)"/>
</clipPath>
</defs>
</svg>
