<svg width="599" height="625" viewBox="0 0 599 625" fill="none" xmlns="http://www.w3.org/2000/svg">
<g filter="url(#filter0_d)">
<path d="M415.41 188.534L403.828 181.801V98.4102L415.41 104.971V188.534Z" fill="#4043BD"/>
<path d="M443.07 204.419L431.487 197.685V86.1523L443.07 92.8858V204.419Z" fill="#4043BD"/>
<path d="M470.729 220.475L459.147 213.742V80.1094L470.729 86.8428V220.475Z" fill="url(#paint0_linear)"/>
<path d="M498.389 236.36L486.634 229.627V69.751L498.389 76.4844V236.36Z" fill="#4043BD"/>
<path d="M526.048 252.243L514.293 245.509V66.124L526.048 72.8575V252.243Z" fill="url(#paint1_linear)"/>
<path d="M553.708 268.3L541.952 261.567V60.7725L553.708 67.5059V268.3Z" fill="#4043BD"/>
<path d="M409.533 82.6996L468.309 48.8599V69.2328L521.554 38.5007V54.9027L579.638 21.4082" stroke="white" stroke-width="2.1283" stroke-miterlimit="10" stroke-linecap="round" stroke-linejoin="round"/>
<path d="M584.133 18.1281L566.327 16.5742L576.527 34.3574L584.133 18.1281Z" fill="white"/>
<path d="M161.635 602.382L230.438 562.845L201.395 546.098L132.592 585.635L117.207 576.83L118.071 610.842L177.193 611.36L161.635 602.382Z" fill="#6C6FDA"/>
<path d="M265.876 557.665L197.074 597.375L226.116 614.122L294.919 574.412L310.304 583.39L309.44 549.377L250.491 548.859L265.876 557.665Z" fill="#4043BD"/>
<path d="M434.945 485.151L486.633 455.109V465.123L434.945 494.992V485.151Z" fill="#4043BD"/>
<path d="M318.257 417.817L369.772 387.775L486.633 455.11L434.945 485.151L318.257 417.817Z" fill="#6C6FDA"/>
<path d="M434.945 485.152V494.993L318.257 427.831V417.817L434.945 485.152Z" fill="#5659D6"/>
<path d="M435.463 372.582L454.134 361.878L453.788 437.327L435.291 448.031L435.463 372.582Z" fill="#4043BD"/>
<path d="M435.463 372.582L435.291 448.031L378.589 415.4L378.762 339.778L435.463 372.582Z" fill="#5659D6"/>
<path d="M582.231 237.396L274.347 59.9097C272.964 59.0465 271.754 59.0465 270.717 59.5644L259.307 66.1252C260.172 65.6072 261.555 65.6072 262.938 66.4705L570.822 243.957C573.588 245.511 575.835 249.309 575.835 252.589L575.144 471.857C575.144 473.411 574.625 474.447 573.761 474.965L585.17 468.404C586.035 467.886 586.553 466.85 586.553 465.296L587.245 246.028C587.245 242.921 584.997 239.122 582.231 237.396Z" fill="#6C6FDA"/>
<path d="M570.822 244.129C573.588 245.683 575.835 249.481 575.835 252.762L575.144 472.03C575.144 475.137 572.896 476.518 570.13 474.792L262.246 297.306C259.48 295.752 257.233 291.954 257.233 288.673L257.924 69.4052C257.924 66.2974 260.172 64.9162 262.938 66.6427L570.822 244.129Z" fill="#190F4B"/>
<path d="M563.907 455.629C565.117 456.319 566.154 458.046 566.154 459.427C566.154 460.808 565.117 461.326 563.907 460.636C562.697 459.945 561.66 458.219 561.66 456.837C561.66 455.456 562.697 454.938 563.907 455.629Z" fill="#FF5C98"/>
<path d="M566.673 255.352L566.154 442.334C566.154 444.406 564.771 445.096 563.043 444.233L373.402 334.772L269.68 275.034C267.951 273.998 266.568 271.581 266.568 269.509L267.086 82.5273C267.086 80.4555 268.469 79.7649 270.198 80.6281L532.963 232.217L563.388 249.827C565.29 250.863 566.673 253.28 566.673 255.352Z" fill="url(#paint2_linear)"/>
<path d="M548.521 446.822C549.732 447.513 550.769 449.239 550.769 450.621C550.769 452.002 549.732 452.52 548.521 451.829C547.311 451.139 546.274 449.412 546.274 448.031C546.274 446.65 547.311 445.959 548.521 446.822Z" fill="#FF5C98"/>
<path d="M527.777 259.841C527.777 256.56 525.357 252.417 522.418 250.69L310.65 128.625C307.711 126.899 305.291 128.28 305.291 131.733V146.063L527.604 274.171V259.841H527.777Z" fill="url(#paint3_linear)"/>
<path d="M305.464 146.062V276.587C305.464 279.868 307.884 284.011 310.823 285.738L522.591 407.803C525.53 409.529 527.95 408.148 527.95 404.695V274.17L305.464 146.062Z" fill="url(#paint4_linear)"/>
<path d="M319.639 143.991C319.639 141.92 321.022 141.056 322.924 142.092C324.826 143.128 326.209 145.718 326.209 147.617C326.209 149.689 324.826 150.552 322.924 149.516C321.022 148.48 319.639 146.063 319.639 143.991Z" fill="#190F4B"/>
<path d="M336.581 153.659C336.581 151.588 337.964 150.724 339.865 151.76C341.594 152.796 343.15 155.386 343.15 157.285C343.15 159.357 341.767 160.22 339.865 159.184C337.964 158.321 336.581 155.731 336.581 153.659Z" fill="#190F4B"/>
<path d="M353.522 163.501C353.522 161.429 354.905 160.566 356.807 161.602C358.536 162.638 360.091 165.228 360.091 167.127C360.091 169.026 358.708 170.062 356.807 169.026C354.905 168.163 353.522 165.573 353.522 163.501Z" fill="#190F4B"/>
<path d="M478.508 314.053L354.732 242.748V219.095L478.508 290.4V314.053Z" fill="#FF5C98"/>
<path d="M478.508 314.053L457.937 302.312V278.659L478.508 290.4V314.053Z" fill="#190F4B"/>
<path d="M462.777 291.781C462.777 289.191 464.679 288.155 466.926 289.364C469.173 290.745 471.075 293.853 471.075 296.615C471.075 299.205 469.173 300.241 466.926 299.032C464.679 297.651 462.777 294.543 462.777 291.781Z" stroke="white" stroke-width="1.4349" stroke-miterlimit="10"/>
<path d="M469.692 299.377L474.359 307.492" stroke="white" stroke-width="1.4349" stroke-miterlimit="10"/>
<path d="M537.976 375.517C537.976 373.446 536.593 371.029 534.865 370.165L409.533 297.824C407.804 296.788 406.421 297.651 406.421 299.551V308.01L538.149 383.977V375.517H537.976Z" fill="url(#paint5_linear)"/>
<path d="M406.421 308.01V385.358C406.421 387.43 407.804 389.847 409.533 390.71L534.865 463.051C536.593 464.087 537.976 463.224 537.976 461.325V383.977L406.421 308.01Z" fill="url(#paint6_linear)"/>
<path d="M414.719 306.802C414.719 305.594 415.583 305.076 416.62 305.766C417.658 306.457 418.522 307.838 418.522 309.047C418.522 310.255 417.658 310.773 416.62 310.083C415.583 309.565 414.719 308.011 414.719 306.802Z" fill="#190F4B"/>
<path d="M424.745 312.671C424.745 311.463 425.61 310.945 426.647 311.635C427.684 312.326 428.549 313.707 428.549 314.916C428.549 316.124 427.684 316.642 426.647 315.952C425.61 315.261 424.745 313.88 424.745 312.671Z" fill="#190F4B"/>
<path d="M434.772 318.37C434.772 317.161 435.636 316.643 436.674 317.334C437.711 318.024 438.575 319.406 438.575 320.614C438.575 321.823 437.711 322.341 436.674 321.65C435.636 321.132 434.772 319.578 434.772 318.37Z" fill="#190F4B"/>
<path d="M421.461 334.254C421.461 332.182 423.017 331.146 424.918 332.355C426.82 333.39 428.376 335.98 428.376 338.225C428.376 340.469 426.82 341.332 424.918 340.124C423.017 339.088 421.461 336.325 421.461 334.254Z" fill="#FF5C98"/>
<path d="M421.461 351.864C421.461 349.792 423.017 348.756 424.918 349.965C426.82 351.001 428.376 353.591 428.376 355.835C428.376 358.079 426.82 358.943 424.918 357.734C423.017 356.698 421.461 354.109 421.461 351.864Z" fill="#FF5C98"/>
<path d="M421.461 369.475C421.461 367.404 423.017 366.368 424.918 367.576C426.82 368.612 428.376 371.202 428.376 373.446C428.376 375.691 426.82 376.554 424.918 375.346C423.017 374.31 421.461 371.72 421.461 369.475Z" fill="#FF5C98"/>
<path d="M514.811 386.221L436.846 341.159V339.26L514.811 384.149V386.221Z" fill="#6C6FDA"/>
<path d="M514.811 390.02L436.846 344.958V343.059L514.811 388.121V390.02Z" fill="#6C6FDA"/>
<path d="M514.811 393.991L436.846 348.928V347.029L514.811 391.919V393.991Z" fill="#6C6FDA"/>
<path d="M492.338 384.841L436.846 352.9V350.828L492.338 382.941V384.841Z" fill="#6C6FDA"/>
<path d="M514.811 404.696L436.846 359.806V357.734L514.811 402.797V404.696Z" fill="#6C6FDA"/>
<path d="M514.811 408.666L436.846 363.604V361.705L514.811 406.767V408.666Z" fill="#6C6FDA"/>
<path d="M514.811 412.464L436.846 367.575V365.676L514.811 410.565V412.464Z" fill="#6C6FDA"/>
<path d="M492.338 403.487L436.846 371.374V369.475L492.338 401.415V403.487Z" fill="#6C6FDA"/>
<path d="M514.811 423.342L436.846 378.453V376.381L514.811 421.443V423.342Z" fill="#6C6FDA"/>
<path d="M514.811 427.313L436.846 382.251V380.352L514.811 425.241V427.313Z" fill="#6C6FDA"/>
<path d="M514.811 431.112L436.846 386.222V384.15L514.811 429.213V431.112Z" fill="#6C6FDA"/>
<path d="M492.338 421.961L436.846 390.02V388.121L492.338 420.062V421.961Z" fill="#6C6FDA"/>
<path d="M305.118 452.693L141.928 547.306V555.421L305.118 460.808C307.193 459.599 308.23 458.045 308.23 456.492V448.377C308.23 449.931 307.193 451.485 305.118 452.693Z" fill="#6C6FDA"/>
<path d="M126.715 547.307L14.8669 482.908C12.7925 481.699 11.7552 480.145 11.7552 478.419V486.534C11.7552 488.087 12.7925 489.814 14.8669 491.023L126.715 555.594C130.864 558.011 137.779 558.011 141.928 555.594V547.48C137.779 549.724 131.037 549.724 126.715 547.307Z" fill="#6C6FDA"/>
<path d="M305.118 443.888C309.267 446.305 309.267 450.276 305.118 452.693L141.928 547.306C137.779 549.723 130.864 549.723 126.715 547.306L14.8669 482.907C10.718 480.49 10.718 476.519 14.8669 474.102L178.058 379.489C182.207 377.071 188.949 377.071 193.27 379.489L305.118 443.888Z" fill="#190F4B"/>
<path d="M113.058 527.624C114.095 528.142 114.095 529.178 113.058 529.868C112.021 530.386 110.292 530.386 109.255 529.868C108.218 529.35 108.218 528.314 109.255 527.624C110.292 527.106 112.021 527.106 113.058 527.624Z" fill="#FF5C98"/>
<path d="M132.074 538.846C133.111 539.364 133.111 540.4 132.074 541.09C131.037 541.608 129.308 541.608 128.271 541.09C127.233 540.573 127.233 539.537 128.271 538.846C129.308 538.155 131.037 538.155 132.074 538.846Z" fill="#FF5C98"/>
<path d="M295.783 449.585L143.829 537.81C142.446 538.673 140.026 538.673 138.47 537.81L111.502 522.271L30.5982 475.655C29.2153 474.792 29.0424 473.411 30.5982 472.547L182.552 384.322C183.935 383.459 186.356 383.459 187.739 384.322L205.89 394.854L295.61 446.65C297.339 447.34 297.339 448.721 295.783 449.585Z" fill="url(#paint7_linear)"/>
<path d="M562.005 531.25V539.71C562.005 531.94 556.992 524.344 546.793 518.474C526.567 506.906 493.894 506.906 473.841 518.474C463.814 524.344 458.801 531.768 458.801 539.364V530.904C458.801 523.308 463.814 515.711 473.841 510.014C493.894 498.446 526.567 498.446 546.793 510.014C556.992 515.884 562.178 523.653 562.005 531.25Z" fill="#FF2978"/>
<path d="M449.639 539.364V530.904C449.639 539.019 454.479 547.134 464.16 553.867V562.327C454.306 555.766 449.639 547.479 449.639 539.364Z" fill="#FF2978"/>
<path d="M571.513 531.25V539.71C571.513 548.688 565.636 557.666 553.88 564.399C531.407 577.521 495.623 578.039 471.594 566.471V558.011C495.623 569.751 531.407 569.061 553.88 555.939C565.636 549.206 571.513 540.228 571.513 531.25Z" fill="#FF2978"/>
<path d="M471.421 558.011V566.471L443.07 583.045V574.585L471.421 558.011Z" fill="#FF2978"/>
<path opacity="0.64" d="M546.793 514.158C567.019 525.725 567.192 544.717 546.966 556.285C526.913 567.853 494.24 567.853 474.014 556.285C453.788 544.717 453.788 525.725 473.841 514.158C494.067 502.417 526.74 502.417 546.793 514.158Z" fill="url(#paint8_linear)"/>
<path opacity="0.4" d="M507.032 516.057C511.527 518.647 511.527 522.79 507.032 525.38C502.538 527.97 495.45 527.97 490.955 525.38C486.461 522.79 486.461 518.647 490.955 516.057C495.45 513.64 502.538 513.64 507.032 516.057Z" fill="white"/>
<path opacity="0.4" d="M521.726 515.021C523.455 516.057 523.455 517.611 521.726 518.647C519.998 519.683 517.059 519.683 515.33 518.647C513.601 517.611 513.601 516.057 515.33 515.021C517.059 513.985 519.998 513.985 521.726 515.021Z" fill="white"/>
<path d="M553.535 506.216C577.391 520.028 577.564 542.3 553.88 556.112C531.407 569.234 495.623 569.751 471.594 558.184L443.243 574.586L435.809 570.269L464.16 553.867C443.934 540.055 444.971 519.337 467.445 506.216C490.955 492.403 529.678 492.403 553.535 506.216ZM474.187 552.141C494.413 563.709 527.085 563.709 547.139 552.141C567.192 540.573 567.019 521.582 546.966 510.014C526.74 498.446 494.067 498.446 474.014 510.014C453.961 521.754 453.961 540.573 474.187 552.141Z" fill="#FF5C98"/>
<path d="M449.639 574.585V583.045L394.666 614.985V606.526L449.639 574.585Z" fill="#4043BD"/>
<path d="M394.666 606.525V614.985L380.317 606.698V598.238L394.666 606.525Z" fill="#5659D6"/>
<path d="M449.639 574.585L394.666 606.526L380.317 598.238L435.118 566.298L449.639 574.585Z" fill="#6C6FDA"/>
<path d="M415.756 537.638V544.717C415.756 549.379 412.644 554.04 406.594 557.493C394.32 564.572 374.44 564.572 361.993 557.493C355.77 553.868 352.658 549.206 352.658 544.545V537.466C352.658 542.127 355.77 546.789 361.993 550.415C374.267 557.493 394.32 557.493 406.594 550.415C412.644 546.962 415.756 542.3 415.756 537.638Z" fill="#FF2978"/>
<path d="M406.421 524.69C418.695 531.769 418.868 543.336 406.594 550.415C394.32 557.494 374.44 557.494 361.993 550.415C349.546 543.336 349.546 531.769 361.82 524.69C374.094 517.611 393.974 517.611 406.421 524.69Z" fill="#FF5C98"/>
<path d="M391.9 533.15C396.222 535.567 396.222 539.71 391.9 542.127C387.578 544.545 380.663 544.545 376.341 542.127C372.02 539.71 372.02 535.567 376.341 533.15C380.663 530.733 387.578 530.56 391.9 533.15Z" fill="#FF2978"/>
<path d="M398.123 522.445L382.91 531.25L369.081 507.597" stroke="white" stroke-width="5.5836" stroke-miterlimit="10" stroke-linecap="round" stroke-linejoin="round"/>
<path d="M234.068 278.833H178.403H122.566C122.739 308.874 135.531 338.743 137.951 344.095C139.507 348.584 143.138 352.901 149.188 356.354C165.265 365.677 191.196 365.677 207.273 356.354C212.978 353.073 216.608 349.102 218.164 344.959C218.337 344.959 233.895 312.155 234.068 278.833Z" fill="url(#paint9_linear)"/>
<path d="M138.816 253.798C160.598 241.195 195.863 241.195 217.645 253.798C239.427 266.402 239.427 286.775 217.645 299.206C195.863 311.81 160.598 311.81 138.816 299.206C117.034 286.775 117.034 266.402 138.816 253.798Z" fill="white"/>
<path d="M224.56 288.329C222.14 291.609 218.683 294.544 214.015 297.134C194.308 308.529 162.326 308.529 142.446 297.134C137.952 294.544 134.321 291.437 131.901 288.329C123.776 277.625 127.233 264.676 142.446 255.87C162.154 244.475 194.135 244.475 214.015 255.87C229.228 264.676 232.685 277.625 224.56 288.329Z" fill="url(#paint10_linear)"/>
<path d="M224.56 288.329C222.14 291.609 218.683 294.544 214.015 297.134C194.308 308.529 162.326 308.529 142.446 297.134C137.951 294.544 134.321 291.437 131.901 288.329C133.111 282.631 137.606 277.107 145.212 272.618C163.364 262.086 192.925 262.086 211.076 272.618C218.855 277.107 223.177 282.631 224.56 288.329Z" fill="#190F4B"/>
<path d="M173.044 295.752C173.044 295.752 204.161 286.084 211.941 298.17C219.72 310.255 249.972 310.946 245.65 291.091C241.329 271.236 271.581 285.739 271.063 268.301C270.717 250.69 243.576 250.518 231.648 262.085C219.72 273.653 213.842 260.013 203.297 258.632C196.036 257.942 192.06 262.085 173.044 295.752Z" fill="url(#paint11_linear)"/>
<path d="M261.382 265.71C261.382 265.71 244.095 260.703 229.055 279.004C214.015 297.306 207.273 262.43 181.861 279.004" stroke="#FFB3CF" stroke-miterlimit="10" stroke-linecap="round" stroke-linejoin="round"/>
<path d="M244.44 267.265C244.44 267.265 245.65 261.567 251.528 258.114" stroke="#FFB3CF" stroke-miterlimit="10" stroke-linecap="round" stroke-linejoin="round"/>
<path d="M241.502 268.646C241.502 268.646 251.009 270.199 253.084 272.271" stroke="#FFB3CF" stroke-miterlimit="10" stroke-linecap="round" stroke-linejoin="round"/>
<path d="M221.621 284.185C221.621 284.185 230.265 289.537 231.648 295.58" stroke="#FFB3CF" stroke-miterlimit="10" stroke-linecap="round" stroke-linejoin="round"/>
<path d="M173.044 295.581C173.044 295.581 159.733 266.575 173.909 256.734C188.084 246.72 184.454 244.303 185.837 234.98C187.047 227.211 199.84 218.923 209.175 226.865C218.683 234.98 210.212 243.44 204.161 246.893C198.111 250.173 196.728 250.519 199.148 262.086C201.568 273.309 195.518 282.804 173.044 295.581Z" fill="#FF2978"/>
<path d="M199.494 235.152C199.494 235.152 190.504 242.404 188.43 257.77C186.528 273.136 178.749 265.021 172.007 293.163" stroke="#FF99BF" stroke-miterlimit="10" stroke-linecap="round" stroke-linejoin="round"/>
<path d="M177.366 277.452C177.366 277.452 185.664 274.345 190.332 274.345" stroke="#FF99BF" stroke-miterlimit="10" stroke-linecap="round" stroke-linejoin="round"/>
<path d="M178.231 260.705C178.231 260.705 181.515 263.122 181.861 270.719" stroke="#FF99BF" stroke-miterlimit="10" stroke-linecap="round" stroke-linejoin="round"/>
<path d="M173.044 295.753C173.044 295.753 140.199 266.92 123.949 277.452C107.699 288.156 70.3587 272.272 86.6086 250.345C102.859 228.419 57.7391 229.627 67.9385 208.391C78.1379 186.982 111.502 201.658 119.8 222.376C128.098 243.094 142.792 229.627 156.449 233.771C165.438 236.706 168.204 243.957 173.044 295.753Z" fill="url(#paint12_linear)"/>
<path d="M94.0421 219.613C94.0421 219.613 110.119 227.555 112.712 242.403C115.651 259.669 123.085 258.287 138.816 253.798C150.571 250.518 165.611 268.819 173.044 295.753" stroke="#FF99BF" stroke-miterlimit="10" stroke-linecap="round" stroke-linejoin="round"/>
<path d="M155.066 260.704C155.066 260.704 153.164 248.964 155.066 242.403" stroke="#FF99BF" stroke-miterlimit="10" stroke-linecap="round" stroke-linejoin="round"/>
<path d="M111.502 238.087C111.502 238.087 101.303 234.634 96.1166 235.325" stroke="#FF99BF" stroke-miterlimit="10" stroke-linecap="round" stroke-linejoin="round"/>
<path d="M158.523 264.849C158.523 264.849 150.398 263.985 142.1 267.266" stroke="#FF99BF" stroke-miterlimit="10" stroke-linecap="round" stroke-linejoin="round"/>
<path d="M107.526 230.836C107.526 230.836 106.662 223.757 107.526 218.06" stroke="#FF99BF" stroke-miterlimit="10" stroke-linecap="round" stroke-linejoin="round"/>
<path d="M99.2283 419.027L142.273 393.992V425.069L99.2283 449.931V419.027Z" fill="#FF2978"/>
<path d="M95.7708 416.954L138.816 391.92L142.273 393.992L99.2282 419.026L95.7708 416.954Z" fill="#FF5C98"/>
<path d="M99.2283 449.931L142.273 425.069L220.584 470.304L177.712 495.166L99.2283 449.931Z" fill="url(#paint13_linear)"/>
<path d="M181.169 466.16L224.214 441.298L224.042 476.174L181.169 501.208V466.16Z" fill="#FF2978"/>
<path d="M177.712 464.261L220.757 439.227L224.214 441.298L181.169 466.16L177.712 464.261Z" fill="#FF5C98"/>
<path d="M181.169 466.16V501.208L95.7708 452.002V416.954L99.2282 419.026V449.931L177.712 495.165V464.261L181.169 466.16Z" fill="#FF5C98"/>
<path d="M144.693 376.553L151.435 372.755L166.648 381.387L159.906 385.358L144.693 376.553Z" fill="url(#paint14_linear)"/>
<path d="M188.43 401.761L195.172 397.963L210.385 406.596L203.47 410.567L188.43 401.761Z" fill="url(#paint15_linear)"/>
<path d="M160.079 333.045L166.821 329.074L195.345 345.649L188.603 349.447L160.079 333.045Z" fill="url(#paint16_linear)"/>
<path d="M188.603 349.447L195.345 345.648L195.172 397.962L188.43 401.76L188.603 349.447Z" fill="#FF2978"/>
<path d="M188.43 401.76L203.47 410.566L174.082 426.45L144.693 376.553L159.906 385.358L160.079 333.045L188.603 349.447L188.43 401.76Z" fill="#FF5C98"/>
<path d="M313.589 358.77C314.28 355.49 315.145 351.519 316.528 349.792" stroke="#FAB08B" stroke-width="4.2475" stroke-miterlimit="10" stroke-linecap="round" stroke-linejoin="round"/>
<path d="M304.6 405.385C303.217 392.091 299.759 380.351 313.07 359.46" stroke="white" stroke-width="4.7716" stroke-miterlimit="10" stroke-linecap="round" stroke-linejoin="round"/>
<path d="M317.046 534.357C317.046 534.357 315.491 541.263 317.046 543.162C318.602 545.061 320.158 547.478 323.788 545.752C327.419 544.025 341.594 537.464 342.286 533.493C342.977 529.522 336.062 527.105 323.443 531.594L317.046 534.357Z" fill="#190F4B"/>
<path d="M302.007 527.968C302.007 527.968 300.451 534.874 302.007 536.773C303.563 538.673 305.118 541.09 308.749 539.363C312.379 537.637 326.554 531.076 327.246 527.105C327.937 523.134 321.023 520.717 308.403 525.206L302.007 527.968Z" fill="#190F4B"/>
<path d="M304.081 450.103C304.081 450.103 312.725 483.77 307.193 527.278" stroke="#FF2978" stroke-width="6" stroke-miterlimit="10" stroke-linecap="round" stroke-linejoin="round"/>
<path d="M318.775 455.628C318.775 455.628 327.419 489.295 321.887 532.803" stroke="#FF2978" stroke-width="6" stroke-miterlimit="10" stroke-linecap="round" stroke-linejoin="round"/>
<path d="M306.501 467.713C306.501 467.713 314.626 474.274 318.775 474.619C322.924 474.792 322.578 463.914 319.467 459.08C316.355 454.246 307.539 448.721 305.464 453.037C303.563 457.526 306.501 467.713 306.501 467.713Z" fill="#FF2978"/>
<path d="M327.246 420.062L327.073 457.355C327.246 465.642 326.381 464.951 323.616 466.678C323.616 466.678 318.602 468.577 313.416 465.124L300.105 457.355C297.339 455.801 295.61 452.693 295.61 449.585V419.889C295.61 419.371 295.783 418.853 295.783 418.335C296.129 413.328 298.203 405.559 303.908 402.451C312.725 397.617 321.195 405.386 321.368 405.559C326.554 410.221 327.246 415.228 327.246 420.062Z" fill="white"/>
<path d="M313.243 395.027C311.86 394.337 309.786 394.164 308.403 394.855C307.02 395.545 307.02 396.927 308.403 397.617C309.786 398.308 311.86 398.308 313.243 397.617C314.626 397.099 314.626 395.718 313.243 395.027Z" fill="#FAA379"/>
<path d="M313.243 397.79C311.86 398.481 309.786 398.481 308.403 397.79C307.711 397.445 307.366 396.927 307.366 396.236V402.624C307.366 403.142 307.711 403.66 308.403 404.006C309.786 404.696 311.86 404.696 313.243 404.006C313.935 403.66 314.281 403.142 314.281 402.624V396.236C314.281 396.927 313.935 397.445 313.243 397.79Z" fill="#FAB08B"/>
<path d="M322.751 381.215V389.33C322.751 395.89 317.565 401.07 310.996 401.07C304.427 401.07 299.241 395.89 299.241 389.33V381.215C299.241 380.352 299.414 379.316 299.586 378.453C299.586 378.28 299.759 377.935 299.759 377.762C301.142 372.928 305.637 369.475 310.996 369.475C314.28 369.475 317.219 370.856 319.294 372.928C321.368 374.999 322.751 377.935 322.751 381.215Z" fill="#FAB08B"/>
<path d="M354.214 377.761C353.349 374.481 351.966 370.683 350.411 369.129" stroke="#FAB08B" stroke-width="4.2475" stroke-miterlimit="10" stroke-linecap="round" stroke-linejoin="round"/>
<path d="M322.578 416.263C333.642 408.839 344.879 404.005 352.658 380.352" stroke="white" stroke-width="4.7716" stroke-miterlimit="10" stroke-linecap="round" stroke-linejoin="round"/>
<path d="M308.921 367.921C307.193 368.094 305.637 368.612 304.427 369.13C303.217 366.022 300.797 362.223 295.783 364.468C288.004 368.266 283.682 378.28 289.906 382.424C292.499 383.978 295.265 385.186 298.031 385.877C297.858 391.229 299.068 397.272 304.773 399.516C307.711 400.552 311.169 400.725 312.725 399.171C314.281 397.617 314.972 394.682 314.972 394.682C314.972 394.682 312.725 395.891 312.379 393.128C312.033 390.366 312.725 389.848 314.281 390.538C315.663 391.229 316.874 389.33 316.874 389.33C316.874 389.33 317.392 385.531 319.64 383.632C321.887 381.733 322.751 378.107 322.751 378.107C324.307 373.791 315.491 367.403 308.921 367.921Z" fill="#190F4B"/>
<path d="M340.73 263.985C328.629 257.079 317.738 256.388 309.959 261.05L303.908 264.503C311.687 260.014 322.578 260.532 334.679 267.438C358.536 281.25 377.897 314.572 377.724 342.023C377.724 355.663 372.884 365.159 365.105 369.648L371.155 366.195C378.934 361.706 383.775 352.037 383.775 338.57C383.948 311.119 364.586 277.797 340.73 263.985Z" fill="#FF2978"/>
<path d="M334.679 267.611C358.536 281.423 377.897 314.745 377.724 342.196C377.724 369.648 358.19 380.698 334.334 366.886C310.477 353.073 291.116 319.752 291.289 292.3C291.461 264.848 310.823 253.799 334.679 267.611Z" fill="#FF5C98"/>
<path d="M334.679 281.596C351.794 291.437 365.623 315.436 365.623 334.945C365.623 354.455 351.621 362.397 334.506 352.556C317.392 342.715 303.562 318.716 303.562 299.206C303.562 279.697 317.565 271.755 334.679 281.596ZM334.506 338.571C344.879 344.441 353.176 339.78 353.349 327.867C353.349 315.954 345.052 301.624 334.679 295.581C324.307 289.711 316.009 294.372 315.836 306.285C315.836 318.198 324.134 332.701 334.506 338.571Z" fill="white"/>
<path d="M334.679 267.611C358.536 281.423 377.897 314.745 377.724 342.196C377.724 369.648 358.19 380.698 334.334 366.886C310.477 353.073 291.116 319.752 291.289 292.3C291.461 264.848 310.823 253.799 334.679 267.611ZM334.506 352.728C351.621 362.569 365.45 354.627 365.623 335.118C365.623 315.435 351.794 291.609 334.679 281.768C317.565 271.927 303.735 279.869 303.562 299.551C303.562 318.888 317.392 342.887 334.506 352.728Z" fill="url(#paint17_linear)"/>
<path d="M334.506 309.739C338.137 311.81 340.903 316.817 340.903 320.788C340.903 324.932 337.964 326.486 334.506 324.414C330.876 322.342 328.11 317.335 328.11 313.364C328.11 309.393 331.049 307.667 334.506 309.739Z" fill="#190F4B"/>
<path d="M334.679 295.753C345.052 301.623 353.349 316.126 353.349 328.039C353.349 339.952 344.879 344.614 334.506 338.744C324.134 332.873 315.836 318.371 315.836 306.458C315.836 294.545 324.307 289.71 334.679 295.753ZM334.506 324.586C338.137 326.658 340.903 324.931 340.903 320.96C340.903 316.817 337.964 311.81 334.506 309.911C330.876 307.839 328.11 309.565 328.11 313.536C328.11 317.507 330.876 322.514 334.506 324.586Z" fill="url(#paint18_linear)"/>
<path d="M273.829 342.541L268.988 356.008L287.14 349.275L290.597 336.153L273.829 342.541Z" fill="#9193FA"/>
<path d="M274.001 341.85L261.382 335.289L279.188 328.038L290.77 335.289L274.001 341.85Z" fill="#9193FA"/>
<path d="M335.025 317.507L266.914 344.613" stroke="#6C6FDA" stroke-width="3" stroke-miterlimit="10" stroke-linecap="round" stroke-linejoin="round"/>
</g>
<defs>
<filter id="filter0_d" x="-4" y="0" width="607" height="633" filterUnits="userSpaceOnUse" color-interpolation-filters="sRGB">
<feFlood flood-opacity="0" result="BackgroundImageFix"/>
<feColorMatrix in="SourceAlpha" type="matrix" values="0 0 0 0 0 0 0 0 0 0 0 0 0 0 0 0 0 0 127 0"/>
<feOffset dy="4"/>
<feGaussianBlur stdDeviation="2"/>
<feColorMatrix type="matrix" values="0 0 0 0 0 0 0 0 0 0 0 0 0 0 0 0 0 0 0.25 0"/>
<feBlend mode="normal" in2="BackgroundImageFix" result="effect1_dropShadow"/>
<feBlend mode="normal" in="SourceGraphic" in2="effect1_dropShadow" result="shape"/>
</filter>
<linearGradient id="paint0_linear" x1="337.953" y1="73.7147" x2="587.87" y2="224.778" gradientUnits="userSpaceOnUse">
<stop stop-color="white"/>
<stop offset="0.2266" stop-color="#CAD6E9"/>
<stop offset="0.603" stop-color="#7897C6"/>
<stop offset="0.8698" stop-color="#446FB0"/>
<stop offset="1" stop-color="#3060A8"/>
</linearGradient>
<linearGradient id="paint1_linear" x1="352.112" y1="76.1059" x2="580.187" y2="189.133" gradientUnits="userSpaceOnUse">
<stop stop-color="white"/>
<stop offset="0.2266" stop-color="#CAD6E9"/>
<stop offset="0.603" stop-color="#7897C6"/>
<stop offset="0.8698" stop-color="#446FB0"/>
<stop offset="1" stop-color="#3060A8"/>
</linearGradient>
<linearGradient id="paint2_linear" x1="257.391" y1="174.719" x2="581.316" y2="353.753" gradientUnits="userSpaceOnUse">
<stop stop-color="white"/>
<stop offset="0.2266" stop-color="#CAD6E9"/>
<stop offset="0.603" stop-color="#7897C6"/>
<stop offset="0.8698" stop-color="#446FB0"/>
<stop offset="1" stop-color="#3060A8"/>
</linearGradient>
<linearGradient id="paint3_linear" x1="372.511" y1="175.252" x2="635.979" y2="323.154" gradientUnits="userSpaceOnUse">
<stop stop-color="#6C6FDA"/>
<stop offset="1" stop-color="#190F4B"/>
</linearGradient>
<linearGradient id="paint4_linear" x1="298.32" y1="210.271" x2="578.195" y2="372.008" gradientUnits="userSpaceOnUse">
<stop stop-color="white"/>
<stop offset="0.1764" stop-color="#EDFDFF"/>
<stop offset="0.7288" stop-color="#BAF6FF"/>
<stop offset="1" stop-color="#A6F3FF"/>
</linearGradient>
<linearGradient id="paint5_linear" x1="440.876" y1="322.229" x2="604.139" y2="414.776" gradientUnits="userSpaceOnUse">
<stop stop-color="#6C6FDA"/>
<stop offset="1" stop-color="#190F4B"/>
</linearGradient>
<linearGradient id="paint6_linear" x1="406.394" y1="385.77" x2="538.039" y2="385.77" gradientUnits="userSpaceOnUse">
<stop stop-color="white"/>
<stop offset="0.1764" stop-color="#EDFDFF"/>
<stop offset="0.7288" stop-color="#BAF6FF"/>
<stop offset="1" stop-color="#A6F3FF"/>
</linearGradient>
<linearGradient id="paint7_linear" x1="57.6554" y1="382.382" x2="227.237" y2="508.94" gradientUnits="userSpaceOnUse">
<stop stop-color="white"/>
<stop offset="0.2266" stop-color="#CAD6E9"/>
<stop offset="0.603" stop-color="#7897C6"/>
<stop offset="0.8698" stop-color="#446FB0"/>
<stop offset="1" stop-color="#3060A8"/>
</linearGradient>
<linearGradient id="paint8_linear" x1="458.969" y1="535.222" x2="562.08" y2="535.222" gradientUnits="userSpaceOnUse">
<stop stop-color="white"/>
<stop offset="0.2266" stop-color="#CAD6E9"/>
<stop offset="0.603" stop-color="#7897C6"/>
<stop offset="0.8698" stop-color="#446FB0"/>
<stop offset="1" stop-color="#3060A8"/>
</linearGradient>
<linearGradient id="paint9_linear" x1="122.646" y1="321.089" x2="234.003" y2="321.089" gradientUnits="userSpaceOnUse">
<stop stop-color="white"/>
<stop offset="0.2266" stop-color="#CAD6E9"/>
<stop offset="0.603" stop-color="#7897C6"/>
<stop offset="0.8698" stop-color="#446FB0"/>
<stop offset="1" stop-color="#3060A8"/>
</linearGradient>
<linearGradient id="paint10_linear" x1="127.701" y1="276.556" x2="228.796" y2="276.556" gradientUnits="userSpaceOnUse">
<stop stop-color="white"/>
<stop offset="0.2266" stop-color="#CAD6E9"/>
<stop offset="0.603" stop-color="#7897C6"/>
<stop offset="0.8698" stop-color="#446FB0"/>
<stop offset="1" stop-color="#3060A8"/>
</linearGradient>
<linearGradient id="paint11_linear" x1="194.727" y1="289.154" x2="351.52" y2="244.874" gradientUnits="userSpaceOnUse">
<stop stop-color="#FF5C98"/>
<stop offset="1" stop-color="white"/>
</linearGradient>
<linearGradient id="paint12_linear" x1="86.9833" y1="220.927" x2="197.496" y2="320.054" gradientUnits="userSpaceOnUse">
<stop stop-color="#FF5C98"/>
<stop offset="1" stop-color="#4534D0"/>
</linearGradient>
<linearGradient id="paint13_linear" x1="120.734" y1="437.322" x2="228.421" y2="500.171" gradientUnits="userSpaceOnUse">
<stop stop-color="#FF5C98"/>
<stop offset="1" stop-color="white"/>
</linearGradient>
<linearGradient id="paint14_linear" x1="140.879" y1="370.353" x2="170.248" y2="387.651" gradientUnits="userSpaceOnUse">
<stop stop-color="#FF5C98"/>
<stop offset="1" stop-color="white"/>
</linearGradient>
<linearGradient id="paint15_linear" x1="155.087" y1="378.462" x2="262.774" y2="441.311" gradientUnits="userSpaceOnUse">
<stop stop-color="#FF5C98"/>
<stop offset="1" stop-color="white"/>
</linearGradient>
<linearGradient id="paint16_linear" x1="153.974" y1="325.742" x2="205.347" y2="355.319" gradientUnits="userSpaceOnUse">
<stop stop-color="#FF5C98"/>
<stop offset="1" stop-color="white"/>
</linearGradient>
<linearGradient id="paint17_linear" x1="388.121" y1="370.665" x2="247.835" y2="230.201" gradientUnits="userSpaceOnUse">
<stop stop-color="#FF5C98"/>
<stop offset="1" stop-color="white"/>
</linearGradient>
<linearGradient id="paint18_linear" x1="388.121" y1="370.665" x2="247.835" y2="230.201" gradientUnits="userSpaceOnUse">
<stop stop-color="#FF5C98"/>
<stop offset="1" stop-color="white"/>
</linearGradient>
</defs>
</svg>
