<svg width="58" height="58" viewBox="0 0 58 58" fill="none" xmlns="http://www.w3.org/2000/svg">
<g clip-path="url(#clip0)">
<path d="M55.0434 6.7594H2.89702C1.2971 6.7594 0 8.05638 0 9.65642V48.2833C0 49.8832 1.29698 51.1803 2.89702 51.1803H55.0434C56.6433 51.1803 57.9404 49.8833 57.9404 48.2833V9.65642C57.9404 8.05649 56.6434 6.7594 55.0434 6.7594ZM56.009 48.2834C56.009 48.8168 55.5767 49.2491 55.0434 49.2491H2.89702C2.36367 49.2491 1.93138 48.8168 1.93138 48.2834V9.65642C1.93138 9.12307 2.36367 8.69078 2.89702 8.69078H55.0434C55.5767 8.69078 56.009 9.12307 56.009 9.65642V48.2834V48.2834Z" fill="url(#paint0_linear)"/>
<path d="M53.196 10.6259C52.9408 10.6036 52.6872 10.6836 52.4911 10.8484L30.2129 29.563C29.4944 30.167 28.4457 30.167 27.7272 29.563L5.44925 10.8483C5.18501 10.6265 4.82243 10.5624 4.49821 10.6804C4.17399 10.7983 3.93725 11.0803 3.87727 11.4201C3.8173 11.7599 3.94314 12.1059 4.20738 12.3277L26.4855 31.0414C27.9213 32.2504 30.0189 32.2504 31.4549 31.0414L53.7328 12.3278C53.9291 12.1632 54.0517 11.9273 54.074 11.6721C54.0963 11.4169 54.0163 11.1633 53.8515 10.9672C53.687 10.7709 53.4512 10.6482 53.196 10.6259Z" fill="url(#paint1_linear)"/>
<path d="M18.5731 30.9081C18.2312 30.8318 17.875 30.9466 17.6419 31.208L4.12241 45.6931C3.87775 45.9436 3.7879 46.3071 3.88771 46.6428C3.98752 46.9785 4.26127 47.2338 4.60302 47.3101C4.9449 47.3864 5.30114 47.2716 5.53426 47.0102L19.0537 32.5251C19.2984 32.2746 19.3882 31.9111 19.2884 31.5754C19.1886 31.2398 18.915 30.9844 18.5731 30.9081Z" fill="url(#paint2_linear)"/>
<path d="M40.2987 31.208C40.0657 30.9466 39.7093 30.8318 39.3674 30.9081C39.0256 30.9844 38.7519 31.2398 38.6521 31.5754C38.5523 31.9112 38.6422 32.2746 38.8868 32.5251L52.4063 47.0102C52.7729 47.3857 53.3723 47.3997 53.756 47.0417C54.1397 46.6836 54.1673 46.0847 53.8181 45.693L40.2987 31.208Z" fill="url(#paint3_linear)"/>
</g>
<defs>
<linearGradient id="paint0_linear" x1="28.9702" y1="6.7594" x2="28.9702" y2="51.1803" gradientUnits="userSpaceOnUse">
<stop stop-color="#82B1FF"/>
<stop offset="1" stop-color="#A6A7CF"/>
</linearGradient>
<linearGradient id="paint1_linear" x1="28.9701" y1="10.6222" x2="28.9701" y2="31.9481" gradientUnits="userSpaceOnUse">
<stop stop-color="#82B1FF"/>
<stop offset="1" stop-color="#A6A7CF"/>
</linearGradient>
<linearGradient id="paint2_linear" x1="11.5881" y1="30.8849" x2="11.5881" y2="47.3333" gradientUnits="userSpaceOnUse">
<stop stop-color="#82B1FF"/>
<stop offset="1" stop-color="#A6A7CF"/>
</linearGradient>
<linearGradient id="paint3_linear" x1="46.3375" y1="30.8849" x2="46.3375" y2="47.3013" gradientUnits="userSpaceOnUse">
<stop stop-color="#82B1FF"/>
<stop offset="1" stop-color="#A6A7CF"/>
</linearGradient>
<clipPath id="clip0">
<rect width="57.9404" height="57.9404" fill="white"/>
</clipPath>
</defs>
</svg>
