<svg width="50" height="50" viewBox="0 0 50 50" fill="none" xmlns="http://www.w3.org/2000/svg">
<g clip-path="url(#clip0)">
<path d="M44.9203 0.822266H4.0837C1.79678 0.822266 0 2.61905 0 4.90596V45.7426C0 48.0295 1.79678 49.8262 4.0837 49.8262H22.8686H32.6694H44.9204C47.2072 49.8262 49.004 48.0295 49.004 45.7425V4.90596C49.004 2.61905 47.2072 0.822266 44.9203 0.822266ZM24.502 48.1928V31.8582H17.9681V25.3243H24.502V19.6072C24.502 14.9518 28.0956 11.0315 32.6693 10.6231H40.0199V17.157H33.486C32.0975 17.157 31.0358 18.2187 31.0358 19.6072V25.3243H39.2032V31.8582H31.0359V48.1928H24.502V48.1928ZM47.3705 45.7425C47.3705 47.131 46.3088 48.1928 44.9203 48.1928H32.6693V33.4916H40.8366V23.6908H32.6693V19.6071C32.6693 19.117 32.996 18.7904 33.486 18.7904H41.6534V8.98956H32.5877C27.1156 9.4796 22.8685 14.135 22.8685 19.6071V23.6908H16.3346V33.4916H22.8685V48.1928H4.0837C2.69522 48.1928 1.6335 47.131 1.6335 45.7425V4.90596C1.6335 3.51748 2.69522 2.45576 4.0837 2.45576H44.9204C46.3089 2.45576 47.3706 3.51748 47.3706 4.90596V45.7425H47.3705Z" fill="white"/>
</g>
<defs>
<clipPath id="clip0">
<rect width="49.004" height="49.004" fill="white" transform="translate(0 0.822266)"/>
</clipPath>
</defs>
</svg>
