<svg width="658" height="669" viewBox="0 0 658 669" fill="none" xmlns="http://www.w3.org/2000/svg">
<path d="M548.682 497.24C548.682 497.763 548.682 498.024 548.42 498.547C548.42 498.547 548.42 498.547 548.42 498.808C548.159 499.07 548.159 499.593 547.897 499.854C547.897 499.854 547.897 500.116 547.636 500.116C547.374 500.377 547.113 500.9 546.59 501.161C546.328 501.423 546.067 501.684 545.805 501.684C545.544 501.946 545.282 501.946 545.021 502.207L396.997 588.218C396.212 588.74 395.428 589.002 394.643 589.263C394.382 589.263 394.12 589.525 393.597 589.525C393.074 589.525 392.812 589.786 392.289 589.786C391.766 589.786 391.243 590.048 390.72 590.048H390.459C389.674 590.048 389.151 590.048 388.366 590.048H388.105C387.32 590.048 386.797 590.048 386.013 590.048H385.751C384.967 590.048 384.444 589.786 383.659 589.786H383.397C382.874 589.525 382.351 589.525 381.567 589.263H381.305C380.521 589.002 379.998 588.74 379.475 588.479L155.87 459.332C153.516 458.025 152.208 456.195 152.208 454.365V460.64C152.208 462.47 153.516 464.3 155.87 465.607L379.475 594.753C379.998 595.015 380.521 595.276 381.305 595.538H381.567C381.828 595.799 382.351 595.799 382.613 595.799C382.874 595.799 383.136 595.799 383.136 596.06H383.397H383.659C384.182 596.06 384.444 596.322 384.967 596.322C385.228 596.322 385.228 596.322 385.49 596.322H385.751C386.013 596.322 386.013 596.322 386.274 596.322C386.797 596.322 387.059 596.322 387.582 596.322H387.843H388.105C388.366 596.322 388.366 596.322 388.628 596.322C389.151 596.322 389.413 596.322 389.936 596.322C389.936 596.322 389.936 596.322 390.197 596.322H390.459C390.72 596.322 391.243 596.322 391.505 596.06C391.766 596.06 391.766 596.06 392.028 596.06C392.551 596.06 392.812 595.799 393.335 595.799C393.597 595.799 393.858 595.799 394.12 595.538H394.382C395.166 595.276 395.951 595.015 396.735 594.492L544.759 508.481C544.759 508.481 544.759 508.481 545.021 508.481C545.282 508.22 545.544 508.22 545.544 507.958C545.805 507.697 546.067 507.436 546.328 507.436C546.59 507.174 546.851 506.913 547.113 506.651C547.113 506.651 547.113 506.39 547.374 506.39C547.374 506.39 547.374 506.128 547.636 506.128L547.897 505.867C548.159 505.606 548.159 505.344 548.159 505.083C548.159 505.083 548.159 505.083 548.159 504.821C548.159 504.56 548.159 504.56 548.159 504.298C548.159 504.037 548.159 503.776 548.159 503.514L548.682 497.24Z" fill="url(#paint0_linear)"/>
<path d="M545.021 492.011C549.728 494.887 549.99 499.331 545.021 502.207L396.997 588.218C392.289 591.093 384.443 591.093 379.474 588.218L155.87 459.071C151.162 456.195 150.901 451.751 155.87 448.875L303.893 362.865C308.601 359.989 316.447 359.989 321.416 362.865L545.021 492.011Z" fill="#CFCFF9"/>
<path d="M509.192 490.965L324.816 384.563C323.508 383.779 321.677 383.779 320.37 384.563L248.973 426.131C247.665 426.915 247.665 427.961 248.973 428.745L433.349 535.147C434.657 535.931 436.487 535.931 437.795 535.147L509.192 493.58C510.238 492.795 510.238 491.75 509.192 490.965Z" fill="#C1C1F7"/>
<path d="M331.354 391.883L324.293 387.701C322.985 386.916 321.154 386.916 319.847 387.701L317.754 388.746C316.447 389.531 316.447 390.576 317.754 391.361L324.816 395.543C326.123 396.328 327.954 396.328 329.262 395.543L331.354 394.498C332.661 393.713 332.661 392.668 331.354 391.883Z" fill="#3B2F77"/>
<path d="M344.692 399.465L337.63 395.282C336.323 394.498 334.492 394.498 333.184 395.282L331.092 396.328C329.785 397.112 329.785 398.158 331.092 398.942L338.153 403.125C339.461 403.909 341.292 403.909 342.599 403.125L344.692 402.079C345.999 401.295 345.999 400.249 344.692 399.465Z" fill="#3B2F77"/>
<path d="M358.029 407.308L350.968 403.125C349.661 402.341 347.83 402.341 346.522 403.125L344.43 404.171C343.122 404.955 343.122 406.001 344.43 406.785L351.491 410.968C352.799 411.752 354.63 411.752 355.937 410.968L358.029 409.922C359.076 409.138 359.076 407.831 358.029 407.308Z" fill="#3B2F77"/>
<path d="M371.106 414.889L364.045 410.706C362.737 409.922 360.906 409.922 359.599 410.706L357.506 411.752C356.199 412.536 356.199 413.582 357.506 414.366L364.568 418.549C365.875 419.334 367.706 419.334 369.014 418.549L371.106 417.504C372.413 416.719 372.413 415.674 371.106 414.889Z" fill="#3B2F77"/>
<path d="M384.444 422.471L377.382 418.288C376.075 417.504 374.244 417.504 372.936 418.288L370.844 419.334C369.537 420.118 369.537 421.164 370.844 421.948L377.905 426.131C379.213 426.915 381.044 426.915 382.351 426.131L384.444 425.085C385.751 424.301 385.751 423.255 384.444 422.471Z" fill="#3B2F77"/>
<path d="M397.781 430.314L390.72 426.131C389.413 425.346 387.582 425.346 386.274 426.131L384.182 427.176C382.874 427.961 382.874 429.006 384.182 429.791L391.243 433.974C392.551 434.758 394.382 434.758 395.689 433.974L397.781 432.928C398.828 432.144 398.828 430.836 397.781 430.314Z" fill="#3B2F77"/>
<path d="M410.858 437.895L403.796 433.712C402.489 432.928 400.658 432.928 399.351 433.712L397.258 434.758C395.951 435.542 395.951 436.588 397.258 437.372L404.32 441.555C405.627 442.339 407.458 442.339 408.766 441.555L410.858 440.509C412.165 439.725 412.165 438.418 410.858 437.895Z" fill="#3B2F77"/>
<path d="M424.196 445.477L417.134 441.294C415.827 440.509 413.996 440.509 412.688 441.294L410.596 442.34C409.289 443.124 409.289 444.17 410.596 444.954L417.657 449.137C418.965 449.921 420.796 449.921 422.103 449.137L424.196 448.091C425.503 447.307 425.503 446.261 424.196 445.477Z" fill="#3B2F77"/>
<path d="M437.533 453.058L430.472 448.875C429.165 448.091 427.334 448.091 426.026 448.875L423.934 449.921C422.626 450.705 422.626 451.751 423.934 452.535L430.995 456.718C432.303 457.502 434.134 457.502 435.441 456.718L437.533 455.672C438.579 454.888 438.579 453.842 437.533 453.058Z" fill="#3B2F77"/>
<path d="M450.61 460.901L443.548 456.718C442.241 455.934 440.41 455.934 439.103 456.718L437.01 457.764C435.703 458.548 435.703 459.594 437.01 460.378L444.072 464.561C445.379 465.345 447.21 465.345 448.517 464.561L450.61 463.515C451.917 462.731 451.917 461.424 450.61 460.901Z" fill="#3B2F77"/>
<path d="M463.948 468.483L456.886 464.3C455.579 463.515 453.748 463.515 452.44 464.3L450.348 465.345C449.041 466.13 449.041 467.175 450.348 467.96L457.409 472.143C458.717 472.927 460.548 472.927 461.855 472.143L463.948 471.097C465.255 470.313 465.255 469.005 463.948 468.483Z" fill="#3B2F77"/>
<path d="M477.285 476.064L470.224 471.881C468.917 471.097 467.086 471.097 465.778 471.881L463.686 472.927C462.378 473.711 462.378 474.757 463.686 475.541L470.747 479.724C472.055 480.508 473.886 480.508 475.193 479.724L477.285 478.678C478.332 477.894 478.332 476.848 477.285 476.064Z" fill="#3B2F77"/>
<path d="M490.362 483.646L483.3 479.463C481.993 478.678 480.162 478.678 478.855 479.463L476.762 480.508C475.455 481.293 475.455 482.339 476.762 483.123L483.824 487.306C485.131 488.09 486.962 488.09 488.269 487.306L490.362 486.26C491.669 485.476 491.669 484.43 490.362 483.646Z" fill="#3B2F77"/>
<path d="M503.7 491.488L496.638 487.306C495.331 486.521 493.5 486.521 492.192 487.306L490.1 488.351C488.792 489.136 488.792 490.181 490.1 490.966L497.161 495.148C498.469 495.933 500.3 495.933 501.607 495.148L503.7 494.103C505.007 493.318 505.007 492.011 503.7 491.488Z" fill="#3B2F77"/>
<path d="M322.985 396.328L316.447 392.668C315.139 391.883 313.308 391.883 312.001 392.668L305.463 396.328C304.155 397.112 304.155 398.158 305.463 398.942L312.001 402.602C313.308 403.386 315.139 403.386 316.447 402.602L322.985 398.942C324.031 398.158 324.031 396.85 322.985 396.328Z" fill="#3B2F77"/>
<path d="M335.8 403.648L329.262 399.988C327.954 399.203 326.123 399.203 324.816 399.988L318.277 403.648C316.97 404.432 316.97 405.478 318.277 406.262L324.816 409.922C326.123 410.706 327.954 410.706 329.262 409.922L335.8 406.262C336.846 405.478 336.846 404.432 335.8 403.648Z" fill="#3B2F77"/>
<path d="M348.614 410.968L342.076 407.308C340.769 406.524 338.938 406.524 337.63 407.308L331.092 410.968C329.785 411.752 329.785 412.798 331.092 413.582L337.63 417.242C338.938 418.027 340.769 418.027 342.076 417.242L348.614 413.582C349.661 412.798 349.661 411.752 348.614 410.968Z" fill="#3B2F77"/>
<path d="M361.429 418.549L354.891 414.889C353.584 414.105 351.753 414.105 350.445 414.889L343.907 418.549C342.599 419.334 342.599 420.379 343.907 421.164L350.445 424.824C351.753 425.608 353.584 425.608 354.891 424.824L361.429 421.164C362.475 420.118 362.475 419.072 361.429 418.549Z" fill="#3B2F77"/>
<path d="M374.244 425.869L367.706 422.209C366.398 421.425 364.568 421.425 363.26 422.209L356.722 425.869C355.414 426.654 355.414 427.699 356.722 428.484L363.26 432.144C364.568 432.928 366.398 432.928 367.706 432.144L374.244 428.484C375.29 427.699 375.29 426.392 374.244 425.869Z" fill="#3B2F77"/>
<path d="M387.059 433.189L380.521 429.529C379.213 428.745 377.382 428.745 376.075 429.529L369.537 433.189C368.229 433.974 368.229 435.019 369.537 435.804L376.075 439.464C377.382 440.248 379.213 440.248 380.521 439.464L387.059 435.804C388.105 435.019 388.105 433.974 387.059 433.189Z" fill="#3B2F77"/>
<path d="M399.874 440.509L393.335 436.849C392.028 436.065 390.197 436.065 388.89 436.849L382.351 440.509C381.044 441.294 381.044 442.339 382.351 443.124L388.89 446.784C390.197 447.568 392.028 447.568 393.335 446.784L399.874 443.124C400.92 442.339 400.92 441.294 399.874 440.509Z" fill="#3B2F77"/>
<path d="M412.427 448.091L405.889 444.431C404.581 443.647 402.75 443.647 401.443 444.431L394.905 448.091C393.597 448.875 393.597 449.921 394.905 450.705L401.443 454.365C402.75 455.15 404.581 455.15 405.889 454.365L412.427 450.705C413.735 449.921 413.735 448.614 412.427 448.091Z" fill="#3B2F77"/>
<path d="M425.503 455.411L418.965 451.489C417.657 450.705 415.827 450.705 414.519 451.489L407.981 455.149C406.673 455.934 406.673 456.979 407.981 457.764L414.519 461.685C415.827 462.47 417.657 462.47 418.965 461.685L425.503 458.025C426.549 457.241 426.549 456.195 425.503 455.411Z" fill="#3B2F77"/>
<path d="M438.056 462.731L431.518 458.809C430.211 458.025 428.38 458.025 427.072 458.809L420.534 462.469C419.227 463.254 419.227 464.299 420.534 465.084L427.072 469.005C428.38 469.789 430.211 469.789 431.518 469.005L438.056 465.345C439.364 464.561 439.364 463.515 438.056 462.731Z" fill="#3B2F77"/>
<path d="M450.871 470.051L444.333 466.129C443.025 465.345 441.195 465.345 439.887 466.129L433.349 469.79C432.041 470.574 432.041 471.62 433.349 472.404L439.887 476.325C441.195 477.11 443.025 477.11 444.333 476.325L450.871 472.665C452.179 471.881 452.179 470.835 450.871 470.051Z" fill="#3B2F77"/>
<path d="M463.686 477.632L457.148 473.711C455.84 472.927 454.01 472.927 452.702 473.711L446.164 477.371C444.856 478.155 444.856 479.201 446.164 479.985L452.702 483.907C454.01 484.691 455.84 484.691 457.148 483.907L463.686 480.247C464.994 479.462 464.994 478.155 463.686 477.632Z" fill="#3B2F77"/>
<path d="M476.501 484.953L469.963 481.031C468.655 480.247 466.824 480.247 465.517 481.031L458.979 484.691C457.671 485.475 457.671 486.521 458.979 487.305L465.517 491.227C466.824 492.011 468.655 492.011 469.963 491.227L476.501 487.567C477.808 486.783 477.808 485.737 476.501 484.953Z" fill="#3B2F77"/>
<path d="M495.854 495.933L483.039 488.351C481.731 487.567 479.901 487.567 478.593 488.351L472.055 492.011C470.747 492.795 470.747 493.841 472.055 494.625L484.87 502.207C486.177 502.991 488.008 502.991 489.316 502.207L495.854 498.547C496.9 497.763 496.9 496.717 495.854 495.933Z" fill="#3B2F77"/>
<path d="M483.3 503.253L476.762 499.593C475.455 498.809 473.624 498.809 472.316 499.593L465.778 503.253C464.471 504.037 464.471 505.083 465.778 505.867L472.316 509.527C473.624 510.311 475.455 510.311 476.762 509.527L483.3 505.867C484.608 505.083 484.608 503.776 483.3 503.253Z" fill="#3B2F77"/>
<path d="M470.486 495.671L463.948 492.011C462.64 491.227 460.809 491.227 459.502 492.011L452.963 495.671C451.656 496.455 451.656 497.501 452.963 498.285L459.502 501.945C460.809 502.73 462.64 502.73 463.948 501.945L470.486 498.285C471.793 497.501 471.793 496.455 470.486 495.671Z" fill="#3B2F77"/>
<path d="M457.932 488.351L451.394 484.691C450.087 483.907 448.256 483.907 446.948 484.691L440.41 488.351C439.102 489.136 439.102 490.181 440.41 490.966L446.948 494.626C448.256 495.41 450.087 495.41 451.394 494.626L457.932 490.966C458.979 490.181 458.979 489.136 457.932 488.351Z" fill="#3B2F77"/>
<path d="M445.118 481.031L438.58 477.371C437.272 476.587 435.441 476.587 434.134 477.371L427.595 481.031C426.288 481.815 426.288 482.861 427.595 483.645L434.134 487.305C435.441 488.09 437.272 488.09 438.58 487.305L445.118 483.645C446.164 482.861 446.164 481.815 445.118 481.031Z" fill="#3B2F77"/>
<path d="M432.303 473.711L425.765 470.051C424.457 469.267 422.626 469.267 421.319 470.051L414.781 473.711C413.473 474.495 413.473 475.541 414.781 476.325L421.319 479.986C422.626 480.77 424.457 480.77 425.765 479.986L432.303 476.325C433.349 475.541 433.349 474.234 432.303 473.711Z" fill="#3B2F77"/>
<path d="M419.488 466.13L412.95 462.47C411.642 461.686 409.812 461.686 408.504 462.47L401.966 466.13C400.658 466.914 400.658 467.96 401.966 468.744L408.504 472.404C409.812 473.188 411.642 473.188 412.95 472.404L419.488 468.744C420.534 467.96 420.534 466.914 419.488 466.13Z" fill="#3B2F77"/>
<path d="M406.673 458.81L400.135 455.149C398.827 454.365 396.997 454.365 395.689 455.149L389.151 458.81C387.843 459.594 387.843 460.64 389.151 461.424L395.689 465.084C396.997 465.868 398.827 465.868 400.135 465.084L406.673 461.424C407.719 460.64 407.719 459.594 406.673 458.81Z" fill="#3B2F77"/>
<path d="M393.858 451.489L387.32 447.829C386.013 447.045 384.182 447.045 382.874 447.829L376.336 451.489C375.029 452.274 375.029 453.319 376.336 454.104L382.874 457.764C384.182 458.548 386.013 458.548 387.32 457.764L393.858 454.104C394.905 453.319 394.905 452.012 393.858 451.489Z" fill="#3B2F77"/>
<path d="M381.044 444.17L374.506 440.248C373.198 439.464 371.367 439.464 370.06 440.248L363.521 443.908C362.214 444.692 362.214 445.738 363.521 446.522L370.06 450.444C371.367 451.228 373.198 451.228 374.506 450.444L381.044 446.784C382.09 445.738 382.09 444.692 381.044 444.17Z" fill="#3B2F77"/>
<path d="M368.229 436.588L361.691 432.666C360.383 431.882 358.552 431.882 357.245 432.666L350.707 436.326C349.399 437.111 349.399 438.156 350.707 438.941L357.245 442.862C358.552 443.646 360.383 443.646 361.691 442.862L368.229 439.202C369.275 438.418 369.275 437.372 368.229 436.588Z" fill="#3B2F77"/>
<path d="M355.414 429.268L348.876 425.346C347.568 424.562 345.738 424.562 344.43 425.346L337.892 429.006C336.584 429.791 336.584 430.836 337.892 431.621L344.43 435.542C345.738 436.326 347.568 436.326 348.876 435.542L355.414 431.882C356.46 431.098 356.46 430.052 355.414 429.268Z" fill="#3B2F77"/>
<path d="M342.599 421.948L336.061 418.027C334.754 417.242 332.923 417.242 331.615 418.027L325.077 421.687C323.769 422.471 323.769 423.517 325.077 424.301L331.615 428.223C332.923 429.007 334.754 429.007 336.061 428.223L342.599 424.562C343.645 423.778 343.645 422.471 342.599 421.948Z" fill="#3B2F77"/>
<path d="M329.785 414.366L323.246 410.445C321.939 409.661 320.108 409.661 318.8 410.445L312.262 414.105C310.955 414.889 310.955 415.935 312.262 416.719L318.8 420.641C320.108 421.425 321.939 421.425 323.246 420.641L329.785 416.981C330.831 416.196 330.831 415.151 329.785 414.366Z" fill="#3B2F77"/>
<path d="M316.97 407.046L304.155 399.465C302.847 398.681 301.017 398.681 299.709 399.465L293.171 403.125C291.863 403.909 291.863 404.955 293.171 405.739L305.986 413.321C307.293 414.105 309.124 414.105 310.432 413.321L316.97 409.661C318.277 408.876 318.016 407.831 316.97 407.046Z" fill="#3B2F77"/>
<path d="M307.816 416.196L291.602 406.785C290.294 406.001 288.463 406.001 287.156 406.785L280.618 410.445C279.31 411.229 279.31 412.275 280.618 413.059L296.832 422.471C298.14 423.255 299.971 423.255 301.278 422.471L307.816 418.811C309.124 418.026 309.124 416.719 307.816 416.196Z" fill="#3B2F77"/>
<path d="M471.009 510.311L454.794 500.9C453.487 500.116 451.656 500.116 450.348 500.9L443.81 504.56C442.502 505.344 442.502 506.39 443.81 507.174L460.025 516.586C461.332 517.37 463.163 517.37 464.471 516.586L471.009 512.926C472.316 512.141 472.316 511.096 471.009 510.311Z" fill="#3B2F77"/>
<path d="M320.631 423.517L314.093 419.595C312.785 418.811 310.955 418.811 309.647 419.595L303.109 423.255C301.801 424.039 301.801 425.085 303.109 425.869L309.647 429.791C310.955 430.575 312.785 430.575 314.093 429.791L320.631 426.131C321.939 425.347 321.939 424.301 320.631 423.517Z" fill="#3B2F77"/>
<path d="M333.446 430.837L326.908 426.915C325.6 426.131 323.769 426.131 322.462 426.915L315.924 430.575C314.616 431.359 314.616 432.405 315.924 433.189L322.462 437.111C323.769 437.895 325.6 437.895 326.908 437.111L333.446 433.451C334.754 432.667 334.754 431.621 333.446 430.837Z" fill="#3B2F77"/>
<path d="M346.261 438.418L339.723 434.496C338.415 433.712 336.584 433.712 335.277 434.496L328.739 438.156C327.431 438.941 327.431 439.986 328.739 440.771L335.277 444.692C336.584 445.476 338.415 445.476 339.723 444.692L346.261 441.032C347.568 440.248 347.568 438.941 346.261 438.418Z" fill="#3B2F77"/>
<path d="M359.076 445.738L352.537 441.816C351.23 441.032 349.399 441.032 348.091 441.816L341.553 445.476C340.246 446.261 340.246 447.306 341.553 448.091L348.091 452.012C349.399 452.797 351.23 452.797 352.537 452.012L359.076 448.352C360.383 447.568 360.383 446.522 359.076 445.738Z" fill="#3B2F77"/>
<path d="M371.89 453.058L365.352 449.137C364.045 448.352 362.214 448.352 360.906 449.137L354.368 452.797C353.06 453.581 353.06 454.627 354.368 455.411L360.906 459.332C362.214 460.117 364.045 460.117 365.352 459.332L371.89 455.672C373.198 454.888 373.198 453.842 371.89 453.058Z" fill="#3B2F77"/>
<path d="M384.705 460.378L378.167 456.718C376.859 455.934 375.029 455.934 373.721 456.718L367.183 460.378C365.875 461.162 365.875 462.208 367.183 462.992L373.721 466.653C375.029 467.437 376.859 467.437 378.167 466.653L384.705 462.992C386.013 462.208 386.013 461.162 384.705 460.378Z" fill="#3B2F77"/>
<path d="M397.52 467.96L390.982 464.3C389.674 463.515 387.843 463.515 386.536 464.3L379.998 467.96C378.69 468.744 378.69 469.79 379.998 470.574L386.536 474.234C387.843 475.018 389.674 475.018 390.982 474.234L397.52 470.574C398.828 469.79 398.566 468.483 397.52 467.96Z" fill="#3B2F77"/>
<path d="M410.335 475.28L403.797 471.62C402.489 470.835 400.658 470.835 399.351 471.62L392.812 475.28C391.505 476.064 391.505 477.11 392.812 477.894L399.351 481.554C400.658 482.338 402.489 482.338 403.797 481.554L410.335 477.894C411.642 477.11 411.381 476.064 410.335 475.28Z" fill="#3B2F77"/>
<path d="M423.149 482.6L416.611 478.94C415.304 478.155 413.473 478.155 412.165 478.94L405.627 482.6C404.32 483.384 404.32 484.43 405.627 485.214L412.165 488.874C413.473 489.658 415.304 489.658 416.611 488.874L423.149 485.214C424.457 484.43 424.196 483.384 423.149 482.6Z" fill="#3B2F77"/>
<path d="M435.964 490.181L429.426 486.521C428.118 485.737 426.288 485.737 424.98 486.521L418.442 490.181C417.134 490.966 417.134 492.011 418.442 492.796L424.98 496.456C426.288 497.24 428.118 497.24 429.426 496.456L435.964 492.796C437.01 491.75 437.01 490.704 435.964 490.181Z" fill="#3B2F77"/>
<path d="M448.779 497.501L442.241 493.841C440.933 493.057 439.102 493.057 437.795 493.841L431.257 497.501C429.949 498.286 429.949 499.331 431.257 500.116L437.795 503.776C439.102 504.56 440.933 504.56 442.241 503.776L448.779 500.116C449.825 499.331 449.825 498.024 448.779 497.501Z" fill="#3B2F77"/>
<path d="M302.586 427.438L286.894 418.288L284.802 417.242L278.525 413.582C277.741 413.059 276.695 413.059 275.91 413.582L267.541 418.55C266.757 419.072 266.757 419.595 267.541 420.118L273.818 423.778L275.91 424.824L291.602 433.974C292.386 434.497 293.432 434.497 294.217 433.974L302.586 429.007C303.37 428.484 303.37 427.7 302.586 427.438Z" fill="#3B2F77"/>
<path d="M459.763 518.154L444.072 509.004L441.979 507.959L435.703 504.299C434.918 503.776 433.872 503.776 433.087 504.299L424.719 509.266C423.934 509.789 423.934 510.312 424.719 510.834L430.995 514.494L433.087 515.54L448.779 524.69C449.564 525.213 450.61 525.213 451.394 524.69L459.763 519.723C460.286 519.2 460.286 518.416 459.763 518.154Z" fill="#3B2F77"/>
<path d="M314.355 434.235L307.816 430.575C306.509 429.791 304.678 429.791 303.37 430.575L296.832 434.235C295.525 435.019 295.525 436.065 296.832 436.849L303.37 440.509C304.678 441.294 306.509 441.294 307.816 440.509L314.355 436.849C315.662 436.065 315.662 435.019 314.355 434.235Z" fill="#3B2F77"/>
<path d="M327.169 441.555L320.631 437.895C319.324 437.111 317.493 437.111 316.185 437.895L309.647 441.555C308.339 442.339 308.339 443.385 309.647 444.169L316.185 447.829C317.493 448.614 319.324 448.614 320.631 447.829L327.169 444.169C328.477 443.385 328.477 442.339 327.169 441.555Z" fill="#3B2F77"/>
<path d="M339.984 449.137L333.446 445.477C332.138 444.692 330.308 444.692 329 445.477L322.462 449.137C321.154 449.921 321.154 450.967 322.462 451.751L329 455.411C330.308 456.195 332.138 456.195 333.446 455.411L339.984 451.751C341.292 450.967 341.292 449.66 339.984 449.137Z" fill="#3B2F77"/>
<path d="M352.799 456.457L346.261 452.796C344.953 452.012 343.122 452.012 341.815 452.796L335.277 456.457C333.969 457.241 333.969 458.287 335.277 459.071L341.815 462.731C343.122 463.515 344.953 463.515 346.261 462.731L352.799 459.071C354.107 458.287 354.107 457.241 352.799 456.457Z" fill="#3B2F77"/>
<path d="M365.614 463.777L359.076 460.117C357.768 459.332 355.937 459.332 354.63 460.117L348.091 463.777C346.784 464.561 346.784 465.607 348.091 466.391L354.63 470.051C355.937 470.835 357.768 470.835 359.076 470.051L365.614 466.391C366.921 465.607 366.921 464.561 365.614 463.777Z" fill="#3B2F77"/>
<path d="M378.428 471.097L371.89 467.437C370.583 466.653 368.752 466.653 367.444 467.437L360.906 471.097C359.599 471.881 359.599 472.927 360.906 473.711L367.444 477.371C368.752 478.156 370.583 478.156 371.89 477.371L378.428 473.711C379.736 472.927 379.736 471.881 378.428 471.097Z" fill="#3B2F77"/>
<path d="M391.243 478.678L384.705 475.018C383.397 474.234 381.567 474.234 380.259 475.018L373.721 478.678C372.413 479.463 372.413 480.508 373.721 481.293L380.259 484.953C381.567 485.737 383.397 485.737 384.705 484.953L391.243 481.293C392.551 480.508 392.551 479.201 391.243 478.678Z" fill="#3B2F77"/>
<path d="M404.058 485.998L397.52 482.338C396.212 481.554 394.382 481.554 393.074 482.338L386.536 485.998C385.228 486.783 385.228 487.828 386.536 488.613L393.074 492.273C394.382 493.057 396.212 493.057 397.52 492.273L404.058 488.613C405.366 487.828 405.366 486.783 404.058 485.998Z" fill="#3B2F77"/>
<path d="M416.873 493.318L410.335 489.658C409.027 488.874 407.196 488.874 405.889 489.658L399.351 493.318C398.043 494.103 398.043 495.148 399.351 495.933L405.889 499.593C407.196 500.377 409.027 500.377 410.335 499.593L416.873 495.933C418.18 495.148 418.18 494.103 416.873 493.318Z" fill="#3B2F77"/>
<path d="M429.688 500.639L423.149 496.979C421.842 496.194 420.011 496.194 418.704 496.979L412.165 500.639C410.858 501.423 410.858 502.469 412.165 503.253L418.704 506.913C420.011 507.697 421.842 507.697 423.149 506.913L429.688 503.253C430.995 502.469 430.995 501.423 429.688 500.639Z" fill="#3B2F77"/>
<path d="M273.556 424.824L267.018 421.164C265.711 420.379 263.88 420.379 262.572 421.164L254.465 425.869C253.157 426.654 253.157 427.699 254.465 428.484L261.003 432.144C262.311 432.928 264.142 432.928 265.449 432.144L273.556 427.438C274.864 426.654 274.864 425.608 273.556 424.824Z" fill="#3B2F77"/>
<path d="M286.371 432.405L279.833 428.745C278.526 427.961 276.695 427.961 275.387 428.745L267.28 433.451C265.972 434.235 265.972 435.281 267.28 436.065L273.818 439.725C275.126 440.509 276.956 440.509 278.264 439.725L286.371 435.019C287.679 434.235 287.679 432.928 286.371 432.405Z" fill="#3B2F77"/>
<path d="M299.186 439.725L292.648 436.065C291.34 435.281 289.51 435.281 288.202 436.065L280.095 440.771C278.787 441.555 278.787 442.601 280.095 443.385L286.633 447.045C287.94 447.829 289.771 447.829 291.079 447.045L299.186 442.339C300.494 441.555 300.494 440.509 299.186 439.725Z" fill="#3B2F77"/>
<path d="M314.878 448.875L305.463 443.385C304.155 442.601 302.324 442.601 301.017 443.385L292.909 448.091C291.602 448.875 291.602 449.921 292.909 450.705L302.324 456.195C303.632 456.98 305.463 456.98 306.77 456.195L314.878 451.49C316.185 450.705 316.185 449.398 314.878 448.875Z" fill="#3B2F77"/>
<path d="M378.952 485.737L321.154 452.274C319.847 451.489 318.016 451.489 316.708 452.274L308.601 456.98C307.293 457.764 307.293 458.81 308.601 459.594L366.398 493.057C367.706 493.841 369.537 493.841 370.844 493.057L378.952 488.351C380.259 487.567 380.259 486.521 378.952 485.737Z" fill="#3B2F77"/>
<path d="M395.166 495.148L385.49 489.658C384.182 488.874 382.351 488.874 381.044 489.658L372.936 494.364C371.629 495.148 371.629 496.194 372.936 496.978L382.613 502.468C383.921 503.253 385.751 503.253 387.059 502.468L395.166 497.763C396.474 496.978 396.474 495.933 395.166 495.148Z" fill="#3B2F77"/>
<path d="M407.981 502.468L401.443 498.808C400.135 498.024 398.305 498.024 396.997 498.808L388.89 503.514C387.582 504.298 387.582 505.344 388.89 506.129L395.428 509.789C396.735 510.573 398.566 510.573 399.874 509.789L407.981 505.083C409.289 504.298 409.289 503.253 407.981 502.468Z" fill="#3B2F77"/>
<path d="M414.519 513.448L407.981 509.788C406.673 509.004 404.843 509.004 403.535 509.788L401.704 510.834C400.397 511.618 400.397 512.664 401.704 513.448L408.242 517.108C409.55 517.893 411.381 517.893 412.688 517.108L414.519 516.063C415.827 515.278 415.827 514.233 414.519 513.448Z" fill="#3B2F77"/>
<path d="M440.149 528.35L433.61 524.69C432.303 523.905 430.472 523.905 429.165 524.69L427.334 525.736C426.026 526.52 426.026 527.566 427.334 528.35L433.872 532.01C435.18 532.794 437.01 532.794 438.318 532.01L440.149 530.964C441.456 530.18 441.456 529.134 440.149 528.35Z" fill="#3B2F77"/>
<path d="M434.395 517.893L426.026 512.926C425.242 512.403 424.196 512.403 423.411 512.926L418.965 515.54L429.949 521.814L434.395 519.2C435.18 518.939 435.18 518.154 434.395 517.893Z" fill="#3B2F77"/>
<path d="M428.903 522.599L417.919 516.324L413.734 518.939C412.95 519.462 412.95 519.984 413.734 520.507L422.103 525.474C422.888 525.997 423.934 525.997 424.719 525.474L428.903 522.599Z" fill="#3B2F77"/>
<path d="M364.045 506.913L297.094 468.221C295.786 467.437 293.955 467.437 292.648 468.221L245.573 495.41C244.265 496.194 244.265 497.24 245.573 498.024L312.524 536.716C313.831 537.5 315.662 537.5 316.97 536.716L364.045 509.527C365.091 508.743 365.091 507.697 364.045 506.913Z" fill="#C1C1F7"/>
<path d="M554.174 310.317C554.174 310.056 554.174 310.056 554.174 309.794C554.174 309.533 554.174 309.533 554.174 309.272C554.174 309.01 554.174 309.01 554.174 308.749C554.174 308.487 554.174 308.487 554.174 308.226C554.174 307.964 554.174 307.964 554.174 307.703C554.174 307.442 554.174 307.442 554.174 307.18C554.174 306.919 554.174 306.919 554.174 306.657C554.174 306.396 554.174 306.396 554.174 306.134V305.873C554.174 305.612 554.174 305.612 553.912 305.35C553.912 305.089 553.912 305.089 553.651 304.827C553.651 304.566 553.651 304.566 553.389 304.304C553.389 304.043 553.389 304.043 553.128 303.782C553.128 303.782 553.128 303.52 552.866 303.52C552.866 303.259 552.866 303.259 552.605 302.997C552.605 302.736 552.343 302.736 552.343 302.474C552.343 302.213 552.082 302.213 552.082 301.952C552.082 301.69 551.82 301.69 551.82 301.429C551.559 301.167 551.297 300.644 551.297 300.383C551.036 300.122 551.036 299.86 550.774 299.599C550.774 299.337 550.513 299.337 550.513 299.076C550.513 298.814 550.251 298.814 550.251 298.553C550.251 298.292 549.99 298.292 549.99 298.03L549.728 297.769L549.466 297.507L549.205 297.246L548.943 296.984L548.682 296.723C548.682 296.723 548.42 296.723 548.42 296.462C548.42 296.462 548.42 296.462 548.159 296.462L547.897 296.2L547.636 295.939L547.374 295.677L547.113 295.416L323.508 166.269C323.508 166.269 323.246 166.269 323.246 166.008C323.246 166.008 322.985 166.008 322.985 165.746C322.985 165.746 322.723 165.746 322.723 165.485C322.723 165.485 322.462 165.485 322.462 165.224C322.462 165.224 322.2 165.224 322.2 164.962H321.939H321.677H321.416H321.154H320.893C320.631 164.962 320.631 164.962 320.37 164.962C320.108 164.962 320.108 164.962 319.847 164.962C319.585 164.962 319.585 164.962 319.323 164.962C319.062 164.962 318.8 164.962 318.8 165.224C318.539 165.224 318.277 165.485 318.016 165.485L313.57 168.099C314.093 167.838 314.354 167.838 314.878 167.576C315.401 167.576 315.924 167.576 316.447 167.576C316.97 167.576 317.493 167.838 318.016 167.838C318.539 168.099 319.062 168.361 319.847 168.622L543.451 297.769C543.974 298.03 544.759 298.553 545.282 299.076C545.805 299.599 546.328 300.122 546.851 300.644C547.374 301.167 547.897 301.69 548.42 302.474C548.943 302.997 549.205 303.782 549.728 304.304C549.99 305.089 550.513 305.612 550.774 306.396C551.036 307.18 551.297 307.703 551.559 308.487C551.82 309.272 551.82 310.056 552.082 310.579C552.082 311.363 552.343 311.886 552.343 312.67L551.82 483.907C551.82 484.691 551.82 485.214 551.559 485.737C551.559 486.26 551.297 486.783 551.036 487.306C550.774 487.567 550.513 488.09 550.251 488.351L549.99 488.613C549.728 488.874 549.466 489.136 548.943 489.397L553.389 486.783C553.651 486.521 554.174 486.26 554.435 485.998L554.697 485.737C554.697 485.476 554.959 485.476 554.959 485.476C554.959 485.214 555.22 485.214 555.22 484.953C555.22 484.691 555.22 484.691 555.482 484.43C555.482 484.168 555.482 484.168 555.743 483.907C555.743 483.646 555.743 483.646 555.743 483.384C555.743 483.384 555.743 483.384 555.743 483.123C555.743 483.123 555.743 483.123 555.743 482.861C555.743 482.6 555.743 482.6 555.743 482.338C555.743 482.077 555.743 482.077 555.743 481.816C555.743 481.554 555.743 481.554 555.743 481.293C555.743 481.031 555.743 481.031 555.743 480.77L556.266 309.533C554.174 310.579 554.174 310.317 554.174 310.317Z" fill="#9385F4"/>
<path d="M541.098 298.03C546.067 300.906 549.728 307.703 549.728 313.193L549.205 484.43C549.205 489.92 545.282 492.273 540.313 489.397L316.708 360.251C312.001 357.375 308.078 350.839 308.078 345.088L308.601 173.851C308.601 168.361 312.524 166.008 317.493 168.884L541.098 298.03Z" fill="#3B2F77"/>
<path d="M538.221 305.35L318.8 178.818L318.539 344.826L537.698 471.359L538.221 305.35Z" fill="#9385F4"/>
<path d="M517.299 307.964L339.461 205.484C337.107 204.176 335.015 205.222 335.015 207.837L334.754 334.369C334.754 337.245 336.584 340.382 338.938 341.95L516.776 444.431C519.13 445.738 521.222 444.692 521.222 441.817L521.483 315.284C521.745 312.67 519.653 309.533 517.299 307.964Z" fill="url(#paint1_linear)"/>
<path d="M437.533 378.812V327.31L439.364 328.617V380.119L437.533 378.812Z" fill="white"/>
<path d="M383.136 347.441V291.495L385.228 292.54L384.967 348.748L383.136 347.441Z" fill="white"/>
<path d="M478.07 402.341L478.332 345.349L480.162 346.395V403.386L478.07 402.341Z" fill="white"/>
<path d="M417.134 367.048V306.657L419.226 307.703L418.965 368.355L417.134 367.048Z" fill="white"/>
<path d="M451.133 386.655V326.264L452.963 327.31V387.7L451.133 386.655Z" fill="white"/>
<path d="M512.068 421.948L512.33 361.558L514.161 362.603V422.994L512.068 421.948Z" fill="white"/>
<path d="M471.27 398.419L471.532 333.846L473.363 334.892V399.465L471.27 398.419Z" fill="white"/>
<path d="M505.269 418.027L505.53 353.454L507.361 354.499V419.073L505.269 418.027Z" fill="white"/>
<path d="M355.937 331.755L356.199 265.874L358.029 267.181L357.768 333.062L355.937 331.755Z" fill="white"/>
<path d="M430.734 374.891V309.01L432.826 310.317L432.564 376.198L430.734 374.891Z" fill="white"/>
<path d="M389.936 351.362V283.652L392.028 284.697L391.766 352.669L389.936 351.362Z" fill="white"/>
<path d="M410.335 363.126V293.586L412.427 294.631L412.165 364.433L410.335 363.126Z" fill="white"/>
<path d="M464.471 394.498L464.732 322.604L466.824 323.65L466.563 395.544L464.471 394.498Z" fill="white"/>
<path d="M491.669 410.184L491.931 338.291L493.762 339.336V411.491L491.669 410.184Z" fill="white"/>
<path d="M342.338 323.912L342.599 247.574L344.43 248.62L344.169 325.219L342.338 323.912Z" fill="white"/>
<path d="M376.336 343.519L376.598 267.181L378.428 268.227L378.167 344.826L376.336 343.519Z" fill="white"/>
<path d="M396.735 355.283L396.997 278.946L398.827 279.992L398.566 356.591L396.735 355.283Z" fill="white"/>
<path d="M484.87 406.262L485.131 328.618L487.223 329.925L486.962 407.57L484.87 406.262Z" fill="white"/>
<path d="M423.934 370.969V292.017L426.026 293.063L425.765 372.276L423.934 370.969Z" fill="white"/>
<path d="M457.671 390.576L457.932 310.056L460.025 311.102L459.763 391.622L457.671 390.576Z" fill="white"/>
<path d="M362.737 335.676L362.998 253.326L364.829 254.371L364.568 336.983L362.737 335.676Z" fill="white"/>
<path d="M444.333 382.734V300.383L446.425 301.429L446.164 384.041L444.333 382.734Z" fill="white"/>
<path d="M498.469 414.105L498.73 327.833L500.823 328.879L500.561 415.412L498.469 414.105Z" fill="white"/>
<path d="M403.535 359.205L403.797 270.58L405.627 271.887L405.366 360.512L403.535 359.205Z" fill="white"/>
<path d="M369.537 339.597L369.798 248.097L371.629 249.143L371.367 340.905L369.537 339.597Z" fill="white"/>
<path d="M349.137 327.833L349.399 231.104L351.23 232.15L350.968 329.14L349.137 327.833Z" fill="white"/>
<path d="M271.203 293.586V363.911L295.786 349.794V279.469L271.203 293.586Z" fill="#01D9EE"/>
<path d="M271.203 293.586V363.911L246.881 349.794V279.469L271.203 293.586Z" fill="#00B1C6"/>
<path d="M246.881 279.469L271.203 293.586L295.786 279.469L271.203 265.352L246.881 279.469Z" fill="#01F8FF"/>
<path d="M210.267 300.122V398.681L234.589 384.564V286.266L210.267 300.122Z" fill="#9385F4"/>
<path d="M210.267 300.122V398.681L185.945 384.564V286.266L210.267 300.122Z" fill="#715BE4"/>
<path d="M185.945 286.266L210.267 300.122L234.589 286.266L210.267 272.149L185.945 286.266Z" fill="#C1C1F7"/>
<path d="M149.331 293.847V434.235L173.653 420.118V279.73L149.331 293.847Z" fill="#3D7EDC"/>
<path d="M149.331 293.847V434.235L125.01 420.118V279.73L149.331 293.847Z" fill="#0154B4"/>
<path d="M125.01 279.73L149.331 293.847L173.653 279.73L149.331 265.613L125.01 279.73Z" fill="#90C0FE"/>
<path d="M549.728 177.511L431.518 109.278C429.949 108.232 428.38 109.016 428.38 111.108L428.118 183.263C428.118 185.093 429.426 187.445 430.995 188.491L472.839 212.543L490.1 242.607L507.622 232.673L549.467 256.724C551.036 257.77 552.605 256.986 552.605 255.156L552.866 183.001C552.866 180.91 551.559 178.557 549.728 177.511Z" fill="#B1D7FF"/>
<path d="M522.006 554.493C522.006 554.755 522.006 555.016 522.006 555.016C522.006 555.278 522.006 555.278 521.745 555.539C521.745 555.801 521.745 556.062 521.483 556.062C521.483 556.323 521.222 556.323 521.222 556.585C521.222 556.846 520.96 557.108 520.96 557.108C520.96 557.369 520.699 557.369 520.699 557.631C520.437 557.892 520.437 558.154 520.176 558.415C520.176 558.676 519.914 558.676 519.914 558.938C519.653 559.199 519.391 559.461 519.13 559.984L518.868 560.245C518.607 560.506 518.345 560.506 518.345 560.768C518.083 561.029 518.083 561.029 517.822 561.291C517.56 561.552 517.299 561.552 517.037 561.814C516.776 562.075 516.514 562.075 516.253 562.336C515.468 562.859 514.422 563.382 513.376 563.644C513.114 563.644 512.853 563.905 512.591 563.905C511.545 564.166 510.499 564.689 509.453 564.951H509.192C508.145 565.212 507.099 565.474 506.053 565.474C505.792 565.474 505.53 565.474 505.53 565.474C504.484 565.474 503.176 565.735 502.13 565.735C501.869 565.735 501.869 565.735 501.607 565.735C500.561 565.735 499.254 565.735 498.207 565.474C497.946 565.474 497.946 565.474 497.684 565.474C496.638 565.212 495.331 565.212 494.285 564.951C494.023 564.951 493.762 564.951 493.762 564.689C492.715 564.428 491.931 564.166 490.885 563.905C490.623 563.905 490.623 563.905 490.362 563.644C489.316 563.121 488.269 562.598 487.223 562.075C483.039 559.722 480.947 556.585 480.947 553.448L480.685 615.145C480.685 618.282 482.777 621.42 486.962 623.772C488.008 624.295 488.792 624.818 490.1 625.341C490.1 625.341 490.1 625.341 490.362 625.341C490.623 625.341 490.623 625.341 490.885 625.602C491.408 625.864 492.192 626.125 492.715 626.125C492.977 626.125 493.5 626.387 493.762 626.387C494.023 626.387 494.285 626.387 494.285 626.648C494.546 626.648 494.546 626.648 494.808 626.91C495.592 627.171 496.115 627.171 496.9 627.171C497.161 627.171 497.423 627.171 497.684 627.171C497.946 627.171 497.946 627.171 498.207 627.171C498.469 627.171 498.731 627.171 498.992 627.171C499.777 627.171 500.3 627.171 501.084 627.171C501.346 627.171 501.607 627.171 501.607 627.171C501.869 627.171 501.869 627.171 502.13 627.171C502.392 627.171 502.653 627.171 503.176 627.171C503.961 627.171 504.746 627.171 505.53 626.91H505.792C506.053 626.91 506.315 626.91 506.315 626.91C506.838 626.91 507.622 626.648 508.145 626.648C508.669 626.648 509.192 626.387 509.453 626.387H509.715C510.499 626.125 511.284 626.125 511.807 625.864C512.068 625.864 512.33 625.602 512.591 625.602C512.853 625.602 513.114 625.341 513.376 625.341C514.422 624.818 515.468 624.557 516.253 624.034C516.253 624.034 516.514 624.034 516.514 623.772C516.776 623.772 516.776 623.511 517.037 623.511C517.299 623.25 517.56 623.25 517.822 622.988C518.083 622.727 518.345 622.727 518.345 622.465C518.607 622.204 518.868 622.204 518.868 621.942L519.13 621.681C519.391 621.42 519.653 621.158 519.914 620.635L520.176 620.374C520.176 620.374 520.176 620.112 520.437 620.112C520.699 619.851 520.699 619.59 520.96 619.328L521.222 619.067C521.222 619.067 521.222 619.067 521.222 618.805C521.222 618.544 521.483 618.282 521.483 618.282C521.483 618.282 521.483 618.021 521.745 618.021C521.745 617.76 521.745 617.498 522.006 617.498C522.006 617.237 522.006 617.237 522.006 616.975C522.006 616.714 522.006 616.452 522.006 616.452C522.006 616.191 522.006 616.191 522.006 615.93C522.006 615.93 522.006 615.93 522.006 615.668L522.268 553.971C522.006 554.232 522.006 554.493 522.006 554.493Z" fill="url(#paint2_linear)"/>
<path d="M515.991 545.344C524.099 550.049 524.099 557.631 515.991 562.337C507.884 567.042 494.546 567.042 486.439 562.337C478.331 557.631 478.331 550.049 486.439 545.344C494.546 540.638 507.884 540.638 515.991 545.344Z" fill="#90C0FE"/>
<path d="M241.65 559.199V574.362C241.65 575.669 241.389 576.976 241.127 578.284V563.121C241.389 561.814 241.65 560.506 241.65 559.199Z" fill="#443789"/>
<path d="M241.127 563.121V578.284C240.866 579.591 240.604 580.898 240.081 582.205V567.042C240.604 565.735 240.866 564.428 241.127 563.121Z" fill="#46388D"/>
<path d="M240.081 567.042V582.205C239.558 583.512 239.035 584.819 238.25 586.126V570.963C239.035 569.656 239.558 568.349 240.081 567.042Z" fill="#483A92"/>
<path d="M238.25 570.702V585.865C237.466 587.173 236.681 588.48 235.635 590.048V574.885C236.681 573.578 237.466 572.271 238.25 570.702Z" fill="#4B3C96"/>
<path d="M235.635 574.885V590.048C234.327 591.617 233.02 593.185 231.451 594.492V579.329C232.758 578.022 234.327 576.454 235.635 574.885Z" fill="#4D3E9B"/>
<path d="M231.189 579.33V594.493C228.835 596.845 225.959 598.937 222.559 600.767V585.604C225.959 583.774 228.835 581.682 231.189 579.33Z" fill="#4F40A0"/>
<path d="M222.82 585.865V601.028C222.559 601.29 222.297 601.29 222.036 601.551C217.59 604.166 212.621 606.257 207.129 608.087V592.924C212.359 591.094 217.59 589.003 222.036 586.388C222.036 586.127 222.297 585.865 222.82 585.865Z" fill="#5142A4"/>
<path d="M207.129 592.924V608.087C202.944 609.394 198.76 610.44 194.314 611.224V596.061C198.498 595.277 202.944 594.231 207.129 592.924Z" fill="#4F40A0"/>
<path d="M194.052 596.061V611.224C191.176 611.747 188.299 612.008 185.422 612.531V597.368C188.299 596.845 191.437 596.584 194.052 596.061Z" fill="#4D3E9B"/>
<path d="M185.422 597.106V612.269C182.807 612.531 180.453 612.792 177.838 612.792V597.629C180.453 597.629 183.068 597.368 185.422 597.106Z" fill="#4B3C96"/>
<path d="M178.099 597.63V612.793C175.746 612.793 173.392 612.793 171.038 612.793V597.63C173.392 597.891 175.746 597.891 178.099 597.63Z" fill="#483A92"/>
<path d="M171.038 597.63V612.793C168.684 612.793 166.592 612.531 164.238 612.531V597.368C166.592 597.63 168.684 597.63 171.038 597.63Z" fill="#46388D"/>
<path d="M164.238 597.368V612.531C162.146 612.27 159.793 612.008 157.7 611.747V596.584C159.793 596.845 162.146 597.107 164.238 597.368Z" fill="#443789"/>
<path d="M157.7 596.584V611.747C155.347 611.485 153.254 610.963 150.901 610.701V595.538C153.254 595.8 155.347 596.322 157.7 596.584Z" fill="#423584"/>
<path d="M150.901 595.538V610.701C148.547 610.178 146.193 609.656 143.839 608.871V593.708C146.193 594.493 148.547 595.015 150.901 595.538Z" fill="#3F3380"/>
<path d="M143.839 593.708V608.871C140.963 608.087 138.347 607.041 135.471 605.995V590.832C138.347 591.878 141.224 592.924 143.839 593.708Z" fill="#3D317B"/>
<path d="M135.732 590.832V605.995C132.332 604.688 128.932 603.12 126.056 601.29C112.718 593.447 105.918 583.512 105.918 573.317V558.154C105.918 568.349 112.456 578.545 126.056 586.127C128.932 587.957 132.332 589.525 135.732 590.832Z" fill="#3B2F77"/>
<path d="M221.512 530.703C248.188 546.128 248.188 570.964 221.773 586.388C195.359 601.812 152.469 601.812 125.793 586.388C99.3791 570.964 99.1176 546.128 125.532 530.703C151.946 515.279 195.098 515.279 221.512 530.703Z" fill="#614EC4"/>
<path d="M221.774 530.703L173.915 558.415H105.918C105.918 548.481 112.456 538.285 125.533 530.703C99.1184 546.128 99.1184 570.964 125.794 586.388C152.47 601.812 195.36 601.812 221.774 586.388L173.653 558.676L221.774 530.703Z" fill="#7265EA"/>
<path d="M221.775 530.703C195.099 515.279 152.209 515.279 125.795 530.703C112.718 538.285 105.919 548.481 106.18 558.415H174.177L221.775 530.703Z" fill="#715BE4"/>
<path d="M221.774 530.703L173.915 558.415L222.036 586.127C248.45 570.964 248.188 546.128 221.774 530.703Z" fill="#7F73EF"/>
<path d="M345.999 604.427V613.838C345.999 613.838 345.999 613.838 345.999 614.099V604.427C345.738 604.688 345.999 604.688 345.999 604.427Z" fill="#01A4A8"/>
<path d="M345.738 604.688V614.1C345.738 614.1 345.738 614.361 345.476 614.361L345.738 604.688C345.738 604.95 345.738 604.688 345.738 604.688Z" fill="#01A9AD"/>
<path d="M345.738 604.949V614.361L345.476 614.622V605.211C345.476 604.949 345.476 604.949 345.738 604.949Z" fill="#01AEB2"/>
<path d="M261.003 605.211V614.622C260.48 614.361 260.219 613.838 260.219 613.315V603.904C260.219 604.427 260.48 604.95 261.003 605.211Z" fill="#018185"/>
<path d="M345.215 605.211V614.622L336.323 619.851L336.584 610.178L345.215 605.211Z" fill="#01BFC5"/>
<path d="M269.895 610.178V619.851L261.003 614.622V605.211L269.895 610.178Z" fill="#018589"/>
<path d="M323.77 620.635V630.047C323.77 626.909 321.677 624.034 317.754 621.681C316.708 621.158 315.924 620.635 314.878 620.374V610.962C315.924 611.485 316.97 611.746 317.754 612.269C321.677 614.361 323.77 617.498 323.77 620.635Z" fill="#018185"/>
<path d="M314.616 610.701V620.112C313.832 619.851 313.047 619.589 312.001 619.328V609.917C313.047 610.178 313.832 610.439 314.616 610.701Z" fill="#01868A"/>
<path d="M312.262 609.917V619.328C311.478 619.067 310.955 619.067 310.17 618.805V609.394C310.693 609.655 311.478 609.655 312.262 609.917Z" fill="#018B8F"/>
<path d="M310.17 609.394V618.805C309.386 618.544 308.863 618.544 308.078 618.544V609.132C308.601 609.132 309.386 609.132 310.17 609.394Z" fill="#019094"/>
<path d="M308.078 609.133V618.544C307.293 618.544 306.77 618.283 305.986 618.283V608.871C306.77 608.871 307.293 608.871 308.078 609.133Z" fill="#019599"/>
<path d="M305.986 608.871V618.283C305.201 618.283 304.678 618.283 303.893 618.283V608.871C304.678 608.61 305.463 608.871 305.986 608.871Z" fill="#019A9E"/>
<path d="M303.894 608.609V618.021C303.109 618.021 302.586 618.021 301.801 618.021V608.609C302.586 608.609 303.37 608.609 303.894 608.609Z" fill="#019FA3"/>
<path d="M301.801 608.609V618.021C301.017 618.021 300.232 618.021 299.448 618.282V608.871C300.494 608.871 301.278 608.609 301.801 608.609Z" fill="#01A4A8"/>
<path d="M299.709 608.871V618.283C298.925 618.283 297.879 618.544 297.094 618.544V609.133C297.879 609.133 298.663 608.871 299.709 608.871Z" fill="#01A9AD"/>
<path d="M297.094 609.132V618.544C295.786 618.805 294.479 619.067 293.171 619.59V610.178C294.479 609.917 295.786 609.394 297.094 609.132Z" fill="#01AEB2"/>
<path d="M293.171 610.178V619.59C291.602 620.113 290.033 620.635 288.725 621.681C288.725 621.681 288.464 621.681 288.464 621.943V612.531C288.464 612.531 288.725 612.531 288.725 612.27C290.033 611.485 291.602 610.701 293.171 610.178Z" fill="#01B3B8"/>
<path d="M288.464 612.269V621.681C287.417 622.204 286.633 622.988 285.848 623.511V614.099C286.633 613.576 287.417 612.792 288.464 612.269Z" fill="#01AEB2"/>
<path d="M285.848 614.1V623.511C285.325 624.034 285.064 624.295 284.541 624.818V615.407C285.064 615.145 285.325 614.622 285.848 614.1Z" fill="#01A9AD"/>
<path d="M284.541 615.668V625.079C284.279 625.602 284.018 625.864 283.756 626.387V616.975C284.018 616.452 284.279 615.929 284.541 615.668Z" fill="#01A4A8"/>
<path d="M283.756 616.714V626.125C283.495 626.387 283.233 626.91 283.233 627.171V617.76C283.495 617.498 283.495 617.237 283.756 616.714Z" fill="#019FA3"/>
<path d="M283.233 618.021V627.433C282.971 627.694 282.971 628.217 282.971 628.478V619.067C282.971 618.805 282.971 618.282 283.233 618.021Z" fill="#019A9E"/>
<path d="M282.971 619.067V628.478C282.971 628.739 282.971 629.262 282.71 629.524V620.112C282.71 619.851 282.71 619.59 282.971 619.067Z" fill="#019599"/>
<path d="M251.85 625.08V634.752L251.588 625.341L251.85 615.929V625.08Z" fill="#007C80"/>
<path d="M354.368 625.864V635.275C354.368 635.275 354.368 635.537 354.107 635.537L354.368 625.864C354.368 626.125 354.368 625.864 354.368 625.864Z" fill="#01A9AD"/>
<path d="M354.368 626.125V635.537L354.107 635.798V626.386C354.107 626.386 354.107 626.125 354.368 626.125Z" fill="#01AEB2"/>
<path d="M353.845 626.387V635.798C353.583 635.798 353.322 636.06 353.06 636.06V626.648C353.322 626.648 353.583 626.387 353.845 626.387Z" fill="#01B3B8"/>
<path d="M353.06 626.648V636.06C352.799 636.06 352.799 636.06 352.537 636.321V626.91C352.799 626.91 353.06 626.648 353.06 626.648Z" fill="#01AEB2"/>
<path d="M352.537 626.91V636.321H352.276V626.91C352.276 626.91 352.537 626.91 352.537 626.91Z" fill="#01A9AD"/>
<path d="M352.276 626.91V636.321H352.014V626.91C352.014 626.91 352.014 626.91 352.276 626.91Z" fill="#01A4A8"/>
<path d="M352.014 626.91V636.321C352.014 636.321 352.014 636.321 351.753 636.321L352.014 626.91C351.753 626.91 351.753 626.91 352.014 626.91Z" fill="#019FA3"/>
<path d="M351.753 626.909V636.321H339.2V626.909H351.753Z" fill="#01ADB2"/>
<path d="M267.28 626.909V636.321H254.727V626.909H267.28Z" fill="#01ADB2"/>
<path d="M254.727 626.91V636.321C254.727 636.321 254.727 636.321 254.465 636.321L254.727 626.91Z" fill="#019FA3"/>
<path d="M254.727 626.91V636.321H254.465V626.91C254.465 626.91 254.465 626.91 254.727 626.91Z" fill="#019A9E"/>
<path d="M254.204 626.91V636.321H253.942V626.91C254.204 626.91 254.204 626.91 254.204 626.91Z" fill="#019599"/>
<path d="M253.942 626.91V636.321H253.681V626.91C253.942 626.91 253.942 626.91 253.942 626.91Z" fill="#019094"/>
<path d="M253.68 626.91V636.321H253.419V626.91C253.419 626.648 253.68 626.91 253.68 626.91Z" fill="#018B8F"/>
<path d="M253.419 626.648V636.06H253.157V626.648C253.157 626.648 253.419 626.648 253.419 626.648Z" fill="#01868A"/>
<path d="M253.157 626.648V636.06C252.896 636.06 252.896 636.06 252.634 635.798C252.111 635.537 251.85 635.014 251.85 634.491V625.08C251.85 625.602 252.111 625.864 252.634 626.387C252.896 626.387 252.896 626.648 253.157 626.648Z" fill="#018185"/>
<path d="M339.2 626.909V636.321C339.2 636.321 339.2 636.582 338.938 636.582V627.171C339.2 627.171 339.2 626.909 339.2 626.909Z" fill="#019FA3"/>
<path d="M339.2 627.171V636.582C338.676 637.367 338.153 638.151 337.63 638.935V629.524C338.153 629.001 338.676 628.217 339.2 627.171Z" fill="#01A4A8"/>
<path d="M337.369 629.785V639.197C337.107 639.458 336.846 639.981 336.584 640.242V630.831C336.846 630.308 337.107 630.047 337.369 629.785Z" fill="#01A9AD"/>
<path d="M269.895 630.831V640.242C268.849 638.935 267.803 637.628 267.018 636.321V626.909C267.803 628.217 268.849 629.524 269.895 630.831Z" fill="#018185"/>
<path d="M345.999 637.89V647.301C345.999 647.301 345.999 647.563 345.738 647.563L345.999 637.89Z" fill="#01A9AD"/>
<path d="M345.738 637.89V647.301L345.476 647.563V638.151C345.476 638.151 345.738 638.151 345.738 637.89Z" fill="#01AEB2"/>
<path d="M261.265 638.413V647.824C260.742 647.563 260.48 647.04 260.48 646.517V637.105C260.219 637.628 260.742 637.89 261.265 638.413Z" fill="#018185"/>
<path d="M321.154 639.72V649.131C319.062 649.916 316.708 650.438 314.355 650.7V641.288C316.708 641.027 318.801 640.504 321.154 639.72Z" fill="#01AEB2"/>
<path d="M292.386 641.288V650.699C291.863 650.699 291.34 650.438 290.556 650.438V641.026C291.079 641.288 291.602 641.288 292.386 641.288Z" fill="#019094"/>
<path d="M290.556 641.027V650.438C289.248 650.177 287.94 649.915 286.633 649.392V639.981C287.94 640.504 289.248 640.765 290.556 641.027Z" fill="#018B8F"/>
<path d="M286.633 640.242V649.654C286.371 649.654 285.848 649.392 285.587 649.392V639.981C285.848 639.981 286.371 639.981 286.633 640.242Z" fill="#01868A"/>
<path d="M345.476 638.413V647.824L333.969 654.36V644.948L345.476 638.413Z" fill="#01BFC5"/>
<path d="M329.785 644.948V654.36L320.893 649.393L321.154 639.72L329.785 644.948Z" fill="#018589"/>
<path d="M285.587 639.72V649.393L276.695 654.36L276.956 644.948L285.587 639.72Z" fill="#01BFC5"/>
<path d="M272.51 644.948V654.36L261.265 647.824V638.413L272.51 644.948Z" fill="#018589"/>
<path d="M333.969 644.948V654.36C333.708 654.36 333.446 654.621 333.446 654.621V645.21C333.708 645.21 333.969 644.948 333.969 644.948Z" fill="#01B3B8"/>
<path d="M333.446 645.21V654.621C333.185 654.621 333.185 654.621 332.923 654.883V645.471C332.923 645.21 333.185 645.21 333.446 645.21Z" fill="#01AEB2"/>
<path d="M332.923 645.21V654.621H332.661V645.21C332.661 645.471 332.661 645.471 332.923 645.21Z" fill="#01A9AD"/>
<path d="M332.4 645.471V654.882H332.138V645.471H332.4Z" fill="#01A4A8"/>
<path d="M332.138 645.471V654.882H331.877V645.471H332.138Z" fill="#019FA3"/>
<path d="M331.877 645.471V654.882H331.615V645.471C331.615 645.471 331.615 645.471 331.877 645.471Z" fill="#019A9E"/>
<path d="M331.615 645.471V654.882H331.354V645.471C331.354 645.471 331.354 645.471 331.615 645.471Z" fill="#019599"/>
<path d="M331.354 645.471V654.883H331.092V645.471C331.092 645.21 331.092 645.21 331.354 645.471Z" fill="#019094"/>
<path d="M330.831 645.21V654.621H330.569V645.21C330.831 645.21 330.831 645.21 330.831 645.21Z" fill="#018B8F"/>
<path d="M330.57 645.21V654.622H330.309V645.21C330.309 645.21 330.57 645.21 330.57 645.21Z" fill="#01868A"/>
<path d="M330.308 645.21V654.621C330.046 654.621 330.046 654.621 329.785 654.36V644.948C330.046 644.948 330.046 644.948 330.308 645.21Z" fill="#018185"/>
<path d="M276.956 644.948V654.36C276.695 654.36 276.433 654.621 276.433 654.621V645.21C276.433 645.21 276.695 644.948 276.956 644.948Z" fill="#01B3B8"/>
<path d="M276.172 645.21V654.621C275.91 654.621 275.91 654.621 275.649 654.883V645.471C275.91 645.21 275.91 645.21 276.172 645.21Z" fill="#01AEB2"/>
<path d="M275.649 645.21V654.621H275.387V645.21C275.387 645.471 275.649 645.471 275.649 645.21Z" fill="#01A9AD"/>
<path d="M275.387 645.471V654.882H275.126V645.471C275.126 645.471 275.126 645.471 275.387 645.471Z" fill="#01A4A8"/>
<path d="M274.864 645.471V654.882H274.603V645.471C274.864 645.471 274.864 645.471 274.864 645.471Z" fill="#019FA3"/>
<path d="M274.603 645.471V654.882H274.341V645.471H274.603Z" fill="#019A9E"/>
<path d="M274.341 645.471V654.882H274.08V645.471C274.08 645.471 274.341 645.471 274.341 645.471Z" fill="#019599"/>
<path d="M274.08 645.471V654.883H273.818V645.471C273.818 645.21 274.08 645.21 274.08 645.471Z" fill="#019094"/>
<path d="M273.818 645.21V654.621H273.556V645.21C273.556 645.21 273.556 645.21 273.818 645.21Z" fill="#018B8F"/>
<path d="M273.556 645.21V654.621H273.295V645.21C273.295 645.21 273.295 645.21 273.556 645.21Z" fill="#01868A"/>
<path d="M273.033 645.21V654.621C272.772 654.621 272.772 654.621 272.51 654.36V644.948C272.772 644.948 273.033 644.948 273.033 645.21Z" fill="#018185"/>
<path d="M314.355 649.131V658.543C314.355 658.543 314.355 658.543 314.355 658.804V649.131C314.093 649.393 314.093 649.131 314.355 649.131Z" fill="#01A4A8"/>
<path d="M314.093 649.393V658.804C314.093 658.804 314.093 659.066 313.832 659.066L314.093 649.393Z" fill="#01A9AD"/>
<path d="M313.832 649.654V659.065L313.57 659.327V649.915C313.832 649.654 313.832 649.654 313.832 649.654Z" fill="#01AEB2"/>
<path d="M313.57 649.916V659.327C313.309 659.327 313.047 659.589 312.785 659.589V650.177C313.047 649.916 313.309 649.916 313.57 649.916Z" fill="#01B3B8"/>
<path d="M312.785 650.177V659.589C312.524 659.589 312.524 659.589 312.262 659.85V650.438C312.524 650.177 312.785 650.177 312.785 650.177Z" fill="#01AEB2"/>
<path d="M312.262 650.177V659.589H312.001V650.177C312.001 650.177 312.262 650.177 312.262 650.177Z" fill="#01A9AD"/>
<path d="M312.001 650.438V659.85H311.739V650.438C311.739 650.438 311.739 650.438 312.001 650.438Z" fill="#01A4A8"/>
<path d="M311.739 650.438V659.85C311.739 659.85 311.739 659.85 311.478 659.85L311.739 650.438C311.478 650.438 311.478 650.438 311.739 650.438Z" fill="#019FA3"/>
<path d="M311.478 650.438V659.85H295.263V650.438H311.478Z" fill="#01ADB2"/>
<path d="M345.477 635.798C346.523 636.583 346.523 637.628 345.477 638.151L334.231 644.687C333.185 645.471 331.093 645.471 330.047 644.687L321.155 639.72C319.063 640.504 316.709 641.027 314.355 641.288V648.347C314.355 649.393 313.048 650.177 311.479 650.177H295.525C294.741 650.177 293.956 649.915 293.433 649.654C292.91 649.393 292.649 648.87 292.649 648.347V641.288C290.295 640.765 288.203 640.243 285.849 639.72L277.219 644.687C276.173 645.471 274.08 645.471 273.034 644.687L261.527 638.151C260.481 637.367 260.219 636.321 261.527 635.798L270.157 630.831C269.111 629.524 268.065 628.217 267.281 626.91H254.989C254.204 626.91 253.42 626.648 252.897 626.387C252.374 626.125 252.112 625.602 252.112 625.08V615.668C252.112 614.622 253.42 613.838 254.989 613.838H267.281C268.065 612.531 268.85 611.224 269.896 609.917L261.004 604.949C259.958 604.165 259.958 603.119 261.004 602.597L272.25 596.061C273.296 595.277 275.388 595.277 276.434 596.061L285.326 601.028C287.418 600.244 289.772 599.721 292.126 599.459V592.401C292.126 591.355 293.433 590.571 295.002 590.571H310.955C311.74 590.571 312.525 590.832 313.048 591.094C313.571 591.355 313.832 591.878 313.832 592.401V599.459C316.186 599.982 318.278 600.505 320.632 601.028L329.262 596.061C330.308 595.277 332.401 595.277 333.447 596.061L344.954 602.597C346 603.381 346 604.427 344.954 604.949L336.324 609.917C337.37 611.224 338.416 612.531 339.2 613.838H351.492C352.277 613.838 353.061 614.1 353.584 614.361C354.107 614.622 354.369 615.145 354.369 615.668V625.08C354.369 626.125 353.061 626.91 351.492 626.91H339.2C338.416 628.217 337.631 629.524 336.585 630.831L345.477 635.798ZM288.726 629.001C296.833 633.707 309.648 633.707 317.755 629.001C325.601 624.295 325.601 616.975 317.755 612.27C309.648 607.564 296.833 607.564 288.726 612.27C280.88 616.714 280.88 624.295 288.726 629.001Z" fill="#01D6DC"/>
<path d="M295.263 650.438V659.85C295.263 659.85 295.263 659.85 295.002 659.85L295.263 650.438Z" fill="#019FA3"/>
<path d="M295.263 650.438V659.85H295.002V650.438C295.002 650.438 295.002 650.438 295.263 650.438Z" fill="#019A9E"/>
<path d="M295.002 650.438V659.85H294.74V650.438C294.74 650.177 294.74 650.438 295.002 650.438Z" fill="#019599"/>
<path d="M294.74 650.177V659.588H294.479V650.177C294.479 650.177 294.479 650.177 294.74 650.177Z" fill="#019094"/>
<path d="M294.217 650.177V659.588H293.956V650.177C294.217 650.177 294.217 650.177 294.217 650.177Z" fill="#018B8F"/>
<path d="M293.956 650.177V659.588H293.694V650.177C293.694 650.177 293.956 650.177 293.956 650.177Z" fill="#01868A"/>
<path d="M293.694 649.916V659.327C293.432 659.327 293.432 659.327 293.171 659.066C292.648 658.804 292.386 658.281 292.386 657.758V648.347C292.386 648.87 292.648 649.393 293.171 649.654C293.432 649.916 293.432 649.916 293.694 649.916Z" fill="#018185"/>
<path d="M66.4283 515.28V520.77V515.28C66.1668 515.541 66.4283 515.28 66.4283 515.28Z" fill="#4B3C96"/>
<path d="M66.1662 515.541V521.031C66.1662 521.031 66.1662 521.031 65.9046 521.292L66.1662 515.541C65.9046 515.802 66.1662 515.541 66.1662 515.541Z" fill="#4F40A0"/>
<path d="M18.5684 515.802V521.292C18.3069 521.03 18.0453 520.769 18.0453 520.508V515.018C18.0453 515.279 18.3069 515.54 18.5684 515.802Z" fill="#3B2F77"/>
<path d="M65.9046 515.802V521.031L60.9356 523.906V518.678L65.9046 515.802Z" fill="#5746B0"/>
<path d="M23.5373 518.678V523.906L18.5683 521.031V515.802L23.5373 518.678Z" fill="#3D317A"/>
<path d="M53.8744 524.429V529.919C53.8744 528.089 52.8283 526.521 50.4745 525.214C49.9515 524.952 49.4284 524.691 48.9054 524.429V518.939C49.4284 519.201 49.9515 519.462 50.4745 519.724C52.5668 521.031 53.8744 522.599 53.8744 524.429Z" fill="#3B2F77"/>
<path d="M48.6438 518.939V524.429C48.1208 524.168 47.5977 524.168 47.3362 523.906V518.417C47.8593 518.417 48.3823 518.678 48.6438 518.939Z" fill="#3D317B"/>
<path d="M47.3362 518.416V523.906C47.0747 523.906 46.5516 523.645 46.0286 523.645V518.155C46.5516 518.155 47.0747 518.416 47.3362 518.416Z" fill="#3F3380"/>
<path d="M46.0286 518.155V523.645C45.7671 523.645 45.244 523.384 44.9825 523.384V517.894C45.5056 517.894 45.7671 518.155 46.0286 518.155Z" fill="#423584"/>
<path d="M44.9825 517.894V523.384C44.721 523.384 44.1979 523.384 43.9364 523.384V517.894C44.1979 517.894 44.721 517.894 44.9825 517.894Z" fill="#443789"/>
<path d="M43.9363 517.893V523.383C43.6748 523.383 43.1518 523.383 42.8902 523.383V517.893C43.1518 517.632 43.4133 517.632 43.9363 517.893Z" fill="#46388D"/>
<path d="M42.6288 517.632V523.122C42.1057 523.122 41.8442 523.122 41.3211 523.122V517.632C41.8442 517.632 42.3672 517.632 42.6288 517.632Z" fill="#483A92"/>
<path d="M41.5826 517.632V523.122C41.0596 523.122 40.798 523.122 40.275 523.122V517.632C40.798 517.894 41.0596 517.632 41.5826 517.632Z" fill="#4B3C96"/>
<path d="M40.275 517.894V523.384C39.752 523.384 39.2289 523.384 38.7059 523.645V518.155C39.2289 517.894 39.752 517.894 40.275 517.894Z" fill="#4D3E9B"/>
<path d="M38.7059 517.894V523.384C37.9213 523.645 37.1367 523.645 36.6137 523.906V518.416C37.3983 518.416 38.1828 518.155 38.7059 517.894Z" fill="#4F40A0"/>
<path d="M36.6136 518.678V524.168C35.829 524.429 34.7829 524.952 33.9983 525.213C33.9983 525.213 33.9983 525.213 33.7368 525.213V519.723C33.7368 519.723 33.7368 519.723 33.9983 519.723C34.7829 519.201 35.829 518.939 36.6136 518.678Z" fill="#5142A4"/>
<path d="M33.9984 519.724V525.214C33.4753 525.475 32.9523 525.998 32.4292 526.259V520.769C32.9523 520.508 33.4753 519.985 33.9984 519.724Z" fill="#4F40A0"/>
<path d="M32.4292 520.769V526.259C32.1677 526.521 31.9061 526.782 31.6446 527.043V521.553C31.9061 521.292 32.1677 521.03 32.4292 520.769Z" fill="#4D3E9B"/>
<path d="M31.9062 521.553V527.044C31.6447 527.305 31.6447 527.566 31.3831 527.828V522.338C31.3831 522.076 31.6447 521.815 31.9062 521.553Z" fill="#4B3C96"/>
<path d="M31.3831 522.338V527.828C31.3831 528.089 31.1216 528.351 31.1216 528.612V523.122C31.1216 522.599 31.1216 522.599 31.3831 522.338Z" fill="#483A92"/>
<path d="M31.1216 522.861V528.351C31.1216 528.612 30.8601 528.874 30.8601 528.874V523.383C30.8601 523.383 30.8601 523.122 31.1216 522.861Z" fill="#46388D"/>
<path d="M71.3967 527.043V532.533V527.043C71.1351 527.305 71.3967 527.043 71.3967 527.043Z" fill="#46388D"/>
<path d="M71.1351 527.566V533.056C71.1351 533.056 70.8736 533.056 70.8736 533.317L71.1351 527.566C70.8736 527.566 70.8736 527.566 71.1351 527.566Z" fill="#4F40A0"/>
<path d="M70.8736 527.566V533.056C70.8736 533.056 70.6121 533.056 70.6121 533.317V527.827C70.6121 527.827 70.6121 527.827 70.8736 527.566Z" fill="#5142A4"/>
<path d="M70.3505 527.828V533.318H70.089V527.828C70.3505 527.828 70.3505 527.828 70.3505 527.828Z" fill="#4F40A0"/>
<path d="M70.0889 527.828V533.318H69.8274L70.0889 527.828C70.0889 528.089 70.0889 527.828 70.0889 527.828Z" fill="#4D3E9B"/>
<path d="M69.8275 528.089V533.579C69.8275 533.579 69.8275 533.579 69.5659 533.579L69.8275 528.089Z" fill="#4B3C96"/>
<path d="M69.8275 528.089V533.579V528.089C69.566 528.089 69.566 528.089 69.8275 528.089Z" fill="#483A92"/>
<path d="M69.566 528.089V533.318H62.5048V528.089H69.566Z" fill="#4F409F"/>
<path d="M21.9682 528.089V533.318H14.907V528.089H21.9682Z" fill="#4F3F9F"/>
<path d="M14.907 528.089V533.579C14.907 533.579 14.907 533.579 14.6454 533.579L14.907 528.089Z" fill="#46388D"/>
<path d="M14.6455 528.089V533.579C14.6455 533.579 14.6455 533.579 14.3839 533.579L14.6455 528.089Z" fill="#443789"/>
<path d="M14.6455 528.089V533.579C14.6455 533.579 14.6455 533.579 14.3839 533.579L14.6455 528.089C14.3839 527.827 14.6455 527.827 14.6455 528.089Z" fill="#423584"/>
<path d="M14.3839 527.828V533.318C14.3839 533.318 14.3839 533.318 14.1224 533.318L14.3839 527.828Z" fill="#3F3380"/>
<path d="M14.3839 527.828V533.318H14.1224L14.3839 527.828C14.1224 527.828 14.1224 527.828 14.3839 527.828Z" fill="#3D317B"/>
<path d="M14.1224 527.827V533.318H13.8609C13.5993 533.056 13.3378 532.795 13.3378 532.533V527.043C13.3378 527.305 13.5993 527.566 14.1224 527.827C13.8609 527.827 13.8609 527.827 14.1224 527.827Z" fill="#3B2F77"/>
<path d="M62.5048 528.089V533.579C62.5048 533.579 62.5048 533.841 62.2433 533.841V528.351C62.5048 528.089 62.5048 528.089 62.5048 528.089Z" fill="#483A92"/>
<path d="M62.5056 528.351V533.841C62.2441 534.364 61.9825 534.625 61.721 535.148V529.658C61.9825 529.135 62.2441 528.613 62.5056 528.351Z" fill="#4B3C96"/>
<path d="M61.7202 529.396V534.886C61.4587 535.148 61.4587 535.409 61.1972 535.671V530.181C61.1972 529.919 61.4587 529.658 61.7202 529.396Z" fill="#4D3E9B"/>
<path d="M23.5374 530.181V535.671C23.0143 534.886 22.2298 534.364 21.9682 533.579V528.089C22.4913 528.612 23.0143 529.396 23.5374 530.181Z" fill="#3B2F77"/>
<path d="M66.1662 534.364V539.854C66.1662 539.854 65.9046 539.854 65.9046 540.115L66.1662 534.364Z" fill="#4F40A0"/>
<path d="M66.1662 534.364V539.854H65.9046L66.1662 534.364Z" fill="#5142A4"/>
<path d="M18.5684 534.363V539.853C18.3069 539.592 18.0453 539.33 18.0453 539.069V533.579C18.0453 534.102 18.3069 534.102 18.5684 534.363Z" fill="#3B2F77"/>
<path d="M52.3052 535.148V540.638C50.9976 540.899 49.9515 541.422 48.6438 541.422V535.932C49.9515 535.932 50.9976 535.671 52.3052 535.148Z" fill="#4F40A0"/>
<path d="M36.0907 536.194V541.684C35.8291 541.684 35.5676 541.684 35.0446 541.422V535.932C35.5676 535.932 35.8291 536.194 36.0907 536.194Z" fill="#423584"/>
<path d="M35.3061 535.932V541.422C34.5215 541.161 33.7369 541.161 33.2139 540.899V535.409C33.7369 535.671 34.5215 535.932 35.3061 535.932Z" fill="#3F3380"/>
<path d="M32.9523 535.409V540.899C32.6908 540.899 32.4293 540.899 32.4293 540.638V535.148C32.6908 535.409 32.6908 535.409 32.9523 535.409Z" fill="#3D317B"/>
<path d="M57.2742 538.023V543.513L52.3052 540.638V535.148L57.2742 538.023Z" fill="#3D317A"/>
<path d="M66.1661 534.363L65.9046 539.853L59.628 543.513V538.023L66.1661 534.363Z" fill="#5746B0"/>
<path d="M32.4293 535.148V540.638L27.4603 543.513V538.023L32.4293 535.148Z" fill="#5746B0"/>
<path d="M25.1065 538.023V543.513L18.5683 539.853V534.363L25.1065 538.023Z" fill="#3D317A"/>
<path d="M59.628 538.023V543.514C59.628 543.514 59.3665 543.514 59.3665 543.775V538.285C59.3665 538.285 59.628 538.285 59.628 538.023Z" fill="#5142A4"/>
<path d="M59.3665 538.285V543.775H59.105V538.285C59.105 538.285 59.105 538.285 59.3665 538.285Z" fill="#4F40A0"/>
<path d="M59.1049 538.285V543.775H58.8434L59.1049 538.285C58.8434 538.285 58.8434 538.285 59.1049 538.285Z" fill="#4D3E9B"/>
<path d="M58.8434 538.285V543.775C58.8434 543.775 58.8434 543.775 58.5819 543.775L58.8434 538.285C58.5819 538.285 58.5819 538.285 58.8434 538.285Z" fill="#4B3C96"/>
<path d="M58.5819 538.285V543.775C58.5819 543.775 58.5819 543.775 58.3204 543.775L58.5819 538.285Z" fill="#483A92"/>
<path d="M58.3204 538.285V543.775C58.3204 543.775 58.3204 543.775 58.0588 543.775L58.3204 538.285Z" fill="#46388D"/>
<path d="M58.3204 538.285V543.775C58.3204 543.775 58.3204 543.775 58.0588 543.775L58.3204 538.285C58.0588 538.285 58.0588 538.285 58.3204 538.285Z" fill="#443789"/>
<path d="M58.0596 538.286V543.776C58.0596 543.776 58.0596 543.776 57.7981 543.776L58.0596 538.286Z" fill="#423584"/>
<path d="M57.7977 538.286V543.776C57.7977 543.776 57.7977 543.776 57.5361 543.776L57.7977 538.286Z" fill="#3F3380"/>
<path d="M57.7977 538.286V543.776H57.5361L57.7977 538.286C57.5361 538.286 57.5361 538.286 57.7977 538.286Z" fill="#3D317B"/>
<path d="M57.5358 538.286V543.776H57.2743L57.5358 538.286C57.2743 538.286 57.5358 538.286 57.5358 538.286Z" fill="#3B2F77"/>
<path d="M27.4602 538.023V543.514C27.4602 543.514 27.1987 543.514 27.1987 543.775V538.285C27.1987 538.285 27.4602 538.285 27.4602 538.023Z" fill="#5142A4"/>
<path d="M27.1987 538.285V543.775H26.9372V538.285C26.9372 538.285 26.9372 538.285 27.1987 538.285Z" fill="#4F40A0"/>
<path d="M26.6756 538.285V543.775H26.4141L26.6756 538.285Z" fill="#4D3E9B"/>
<path d="M26.4141 538.285V543.775C26.4141 543.775 26.4141 543.775 26.1526 543.775L26.4141 538.285Z" fill="#4B3C96"/>
<path d="M26.4141 538.285V543.775C26.4141 543.775 26.4141 543.775 26.1526 543.775L26.4141 538.285C26.1526 538.285 26.4141 538.285 26.4141 538.285Z" fill="#483A92"/>
<path d="M26.1525 538.285V543.775C26.1525 543.775 26.1525 543.775 25.891 543.775L26.1525 538.285Z" fill="#46388D"/>
<path d="M25.8918 538.286V543.776C25.8918 543.776 25.8918 543.776 25.6303 543.776L25.8918 538.286Z" fill="#443789"/>
<path d="M25.8918 538.286V543.776C25.8918 543.776 25.8918 543.776 25.6303 543.776L25.8918 538.286C25.6303 538.286 25.8918 538.286 25.8918 538.286Z" fill="#423584"/>
<path d="M25.6299 538.286V543.776C25.6299 543.776 25.6299 543.776 25.3683 543.776L25.6299 538.286Z" fill="#3F3380"/>
<path d="M25.6299 538.286V543.776H25.3683L25.6299 538.286C25.3683 538.286 25.3683 538.286 25.6299 538.286Z" fill="#3D317B"/>
<path d="M25.368 538.286V543.776H25.1065L25.368 538.286C25.1065 538.286 25.1065 538.286 25.368 538.286Z" fill="#3B2F77"/>
<path d="M48.3824 540.637V546.127C48.3824 546.127 48.1209 546.127 48.1209 546.389L48.3824 540.637C48.1209 540.899 48.3824 540.899 48.3824 540.637Z" fill="#4F40A0"/>
<path d="M48.1209 540.899V546.389C48.1209 546.389 47.8594 546.389 47.8594 546.651V541.161C47.8594 540.899 48.1209 540.899 48.1209 540.899Z" fill="#5142A4"/>
<path d="M47.5978 541.16V546.65H47.3363V541.16C47.5978 541.16 47.5978 541.16 47.5978 541.16Z" fill="#4F40A0"/>
<path d="M47.3363 541.16V546.65H47.0747L47.3363 541.16Z" fill="#4D3E9B"/>
<path d="M47.0748 541.16V546.65C47.0748 546.65 47.0748 546.65 46.8132 546.65L47.0748 541.16Z" fill="#4B3C96"/>
<path d="M47.0747 541.16V546.65V541.16C46.8132 541.16 47.0747 541.16 47.0747 541.16Z" fill="#483A92"/>
<path d="M46.8132 541.161V546.651H37.9213V541.161H46.8132Z" fill="#4F3F9F"/>
<path d="M65.9046 533.056C66.6892 533.318 66.6892 534.102 65.9046 534.363L59.628 538.023C59.1049 538.285 57.7973 538.285 57.2743 538.023L52.3053 535.148C50.9976 535.409 49.9515 535.932 48.6439 535.932V539.853C48.6439 540.376 47.8593 540.899 47.0747 540.899H37.9213C37.3983 540.899 37.1367 540.899 36.6137 540.638C36.3521 540.376 36.0906 540.115 36.0906 539.853V535.932C34.783 535.671 33.4754 535.409 32.4293 535.148L27.4603 538.023C26.6757 538.285 25.6296 538.285 25.1065 538.023L18.5684 534.363C18.0453 534.102 17.7838 533.318 18.5684 533.056L23.5374 530.181C23.0143 529.396 22.2297 528.873 21.9682 528.089H14.907C14.3839 528.089 14.1224 528.089 13.5994 527.828C13.3378 527.566 13.0763 527.305 13.0763 527.043V521.815C13.0763 521.292 13.8609 520.769 14.6455 520.769H21.7067C22.2297 519.985 22.4913 519.2 23.2758 518.678L18.3068 515.802C17.7838 515.54 17.5223 514.756 18.3068 514.495L24.5835 510.835C25.368 510.573 26.4141 510.573 26.9372 510.835L31.9062 513.71C33.2138 513.449 34.2599 512.926 35.5676 512.926V508.743C35.5676 508.22 36.3521 507.698 37.1367 507.698H46.2901C46.8132 507.698 47.0747 507.698 47.3363 507.959C47.5978 508.22 47.8593 508.482 47.8593 508.743V512.926C49.1669 513.188 50.4746 513.449 51.5207 513.71L56.4897 510.835C57.0127 510.573 58.3204 510.573 58.8434 510.835L65.3816 514.495C65.9046 514.756 66.1661 515.54 65.3816 515.802L60.4126 518.678C60.9356 519.462 61.4587 519.985 61.9817 520.769H69.0429C69.566 520.769 69.8275 520.769 70.3506 521.03C70.6121 521.292 70.8736 521.553 70.8736 521.815V527.043C70.8736 527.566 70.089 528.089 69.3045 528.089H62.2432C61.9817 528.873 61.4587 529.658 60.6741 530.181L65.9046 533.056ZM34.2599 529.135C38.7059 531.749 46.0286 531.749 50.4746 529.135C54.9205 526.52 54.9205 522.338 50.4746 519.723C46.0286 517.109 38.7059 517.109 34.2599 519.723C29.5525 522.338 29.5525 526.52 34.2599 529.135Z" fill="#614EC4"/>
<path d="M37.6598 541.16V546.65C37.6598 546.65 37.6598 546.65 37.3982 546.65L37.6598 541.16Z" fill="#46388D"/>
<path d="M37.6598 541.16V546.65C37.6598 546.65 37.6598 546.65 37.3982 546.65L37.6598 541.16C37.3982 541.16 37.6598 541.16 37.6598 541.16Z" fill="#443789"/>
<path d="M37.3983 541.16V546.65C37.3983 546.65 37.3983 546.65 37.1367 546.65L37.3983 541.16Z" fill="#423584"/>
<path d="M37.3983 541.16V546.65C37.3983 546.65 37.3983 546.65 37.1367 546.65L37.3983 541.16C37.1368 541.16 37.1368 541.16 37.3983 541.16Z" fill="#3F3380"/>
<path d="M37.1367 541.16V546.65H36.8752L37.1367 541.16C36.8752 541.16 37.1367 541.16 37.1367 541.16Z" fill="#3D317B"/>
<path d="M36.8752 540.899V546.389H36.6137C36.3521 546.128 36.0906 545.866 36.0906 545.605V540.115C36.0906 540.376 36.3521 540.638 36.8752 540.899C36.6137 540.899 36.8752 540.899 36.8752 540.899Z" fill="#3B2F77"/>
<path d="M104.872 456.719V460.117V456.719C104.611 456.719 104.611 456.719 104.872 456.719Z" fill="#013777"/>
<path d="M104.61 456.98V460.379C104.61 460.379 104.61 460.379 104.349 460.379L104.61 456.98Z" fill="#013B7E"/>
<path d="M73.7504 456.98V460.378C73.4889 460.378 73.4889 460.117 73.4889 459.856V456.457C73.2274 456.718 73.4889 456.98 73.7504 456.98Z" fill="#012C5E"/>
<path d="M104.611 456.98V460.64L101.211 462.47V458.81L104.611 456.98Z" fill="#01418B"/>
<path d="M76.8887 458.81V462.47L73.7504 460.64V456.98L76.8887 458.81Z" fill="#012D61"/>
<path d="M96.5032 462.731V466.13C96.5032 465.084 95.7186 463.777 94.411 462.993C94.1495 462.731 93.6264 462.731 93.3649 462.47V459.071C93.6264 459.333 94.1495 459.333 94.411 459.594C95.9802 460.378 96.5032 461.686 96.5032 462.731Z" fill="#012C5E"/>
<path d="M93.3649 459.071V462.47C93.1034 462.47 92.8419 462.208 92.5803 462.208V458.81C92.5803 458.81 93.1034 459.071 93.3649 459.071Z" fill="#012D61"/>
<path d="M92.3188 458.81V462.208C92.0573 462.208 91.7957 461.947 91.5342 461.947V458.548C91.7957 458.548 92.0573 458.81 92.3188 458.81Z" fill="#012F65"/>
<path d="M91.5342 458.548V461.947C91.2727 461.947 91.0112 461.947 90.7496 461.947V458.548C91.0112 458.548 91.2727 458.548 91.5342 458.548Z" fill="#013168"/>
<path d="M90.7496 458.548V461.947C90.4881 461.947 90.2266 461.947 89.9651 461.947V458.548C90.4881 458.287 90.7496 458.287 90.7496 458.548Z" fill="#01326C"/>
<path d="M90.2266 458.287V461.685C89.9651 461.685 89.7035 461.685 89.442 461.685V458.287C89.7035 458.287 89.9651 458.287 90.2266 458.287Z" fill="#013470"/>
<path d="M89.442 458.287V461.685C89.1805 461.685 88.919 461.685 88.6574 461.685V458.287C88.919 458.287 89.1805 458.287 89.442 458.287Z" fill="#013673"/>
<path d="M88.6575 458.287V461.685C88.3959 461.685 88.1344 461.685 87.8729 461.685V458.287C88.1344 458.287 88.3959 458.287 88.6575 458.287Z" fill="#013777"/>
<path d="M87.8728 458.287V461.685C87.6113 461.685 87.3498 461.685 86.8268 461.947V458.548C87.0883 458.548 87.3498 458.287 87.8728 458.287Z" fill="#01397A"/>
<path d="M86.8268 458.548V461.947C86.3037 461.947 85.7807 462.208 85.5191 462.208V458.81C85.7807 458.81 86.3037 458.548 86.8268 458.548Z" fill="#013B7E"/>
<path d="M85.5191 458.81V462.208C84.9961 462.47 84.473 462.731 83.95 462.993V459.594C84.2115 459.332 84.7346 459.071 85.5191 458.81Z" fill="#013C82"/>
<path d="M83.6885 459.594V462.993C83.4269 463.254 82.9039 463.515 82.6424 463.777V460.378C82.9039 460.117 83.4269 459.855 83.6885 459.594Z" fill="#013B7E"/>
<path d="M82.6424 460.378V463.777C82.3808 464.038 82.3808 464.038 82.1193 464.3V460.901C82.3808 460.64 82.6424 460.378 82.6424 460.378Z" fill="#01397A"/>
<path d="M82.3808 460.901V464.3C82.3808 464.561 82.1193 464.561 82.1193 464.823V461.424C82.1193 461.163 82.1193 460.901 82.3808 460.901Z" fill="#013777"/>
<path d="M81.8577 461.163V464.561C81.8577 464.823 81.5962 464.823 81.5962 465.084V461.686C81.8578 461.686 81.8577 461.424 81.8577 461.163Z" fill="#013673"/>
<path d="M81.8577 461.686V465.084C81.8577 465.346 81.8577 465.346 81.8577 465.607V462.208C81.5962 461.947 81.8577 461.947 81.8577 461.686Z" fill="#013470"/>
<path d="M107.75 464.823V468.222C107.75 468.222 107.75 468.222 107.488 468.222L107.75 464.823Z" fill="#013B7E"/>
<path d="M107.75 464.823V468.222H107.488L107.75 464.823C107.488 464.823 107.488 464.823 107.75 464.823Z" fill="#013C82"/>
<path d="M107.488 464.823V468.222H107.226L107.488 464.823C107.226 465.085 107.226 464.823 107.488 464.823Z" fill="#013B7E"/>
<path d="M107.226 465.084V468.483C107.226 468.483 107.226 468.483 106.964 468.483L107.226 465.084Z" fill="#01397A"/>
<path d="M106.964 465.084V468.483H102.257V465.084H106.964Z" fill="#013B7E"/>
<path d="M75.8426 465.084V468.483H71.3966V465.084H75.8426Z" fill="#013B7E"/>
<path d="M71.3966 465.084V468.483V465.084C71.1352 465.084 71.3966 465.084 71.3966 465.084Z" fill="#013470"/>
<path d="M70.8744 464.823V468.222C70.8744 468.222 70.8744 468.222 70.6129 468.222L70.8744 464.823Z" fill="#012D61"/>
<path d="M70.6121 464.823V468.221C70.6121 468.221 70.6121 468.221 70.3505 468.221C70.089 468.221 70.089 467.96 70.089 467.698V464.3C70.3505 464.561 70.3505 464.561 70.6121 464.823Z" fill="#012C5E"/>
<path d="M102.257 465.084V468.483C101.996 468.744 101.996 469.006 101.734 469.267V465.869C101.996 465.607 101.996 465.346 102.257 465.084Z" fill="#013777"/>
<path d="M101.734 465.869V469.267C101.734 469.529 101.472 469.529 101.472 469.79V466.391C101.472 466.391 101.472 466.13 101.734 465.869Z" fill="#01397A"/>
<path d="M76.8887 466.391V469.79C76.3657 469.267 76.1041 468.744 75.8426 468.483V465.084C76.1041 465.607 76.6272 465.869 76.8887 466.391Z" fill="#012C5E"/>
<path d="M104.873 469.006V472.405V469.006C104.611 469.006 104.873 469.006 104.873 469.006Z" fill="#01397A"/>
<path d="M104.61 469.006V472.405C104.61 472.405 104.61 472.405 104.349 472.405L104.61 469.006C104.61 469.268 104.61 469.006 104.61 469.006Z" fill="#013B7E"/>
<path d="M73.7504 469.267V472.666C73.4888 472.666 73.4888 472.404 73.4888 472.143V468.744C73.4888 469.006 73.4888 469.006 73.7504 469.267Z" fill="#012C5E"/>
<path d="M95.7186 469.79V473.189C94.934 473.45 94.1495 473.712 93.3649 473.712V470.313C93.888 470.051 94.934 470.051 95.7186 469.79Z" fill="#013B7E"/>
<path d="M84.996 470.313V473.712C84.7344 473.712 84.4729 473.712 84.2114 473.45V470.052C84.7344 470.313 84.7344 470.313 84.996 470.313Z" fill="#013168"/>
<path d="M84.4737 470.051V473.45C83.9507 473.45 83.4276 473.189 83.1661 473.189V469.79C83.4276 470.051 83.9507 470.051 84.4737 470.051Z" fill="#012F65"/>
<path d="M82.9038 469.79V473.189H82.6423V469.79C82.6423 469.79 82.9038 469.79 82.9038 469.79Z" fill="#012D61"/>
<path d="M104.61 469.267V472.666L100.426 475.019V471.62L104.61 469.267Z" fill="#01418B"/>
<path d="M98.8569 471.62V475.019L95.7186 473.189V469.79L98.8569 471.62Z" fill="#012D61"/>
<path d="M82.6422 469.79V473.189L79.5039 475.019V471.62L82.6422 469.79Z" fill="#01418B"/>
<path d="M77.9348 471.62V475.019L73.7504 472.666V469.267L77.9348 471.62Z" fill="#012D61"/>
<path d="M100.426 471.62V475.018H100.165L100.426 471.62C100.165 471.62 100.426 471.62 100.426 471.62Z" fill="#013C82"/>
<path d="M100.165 471.62V475.018H99.903L100.165 471.62C99.903 471.62 100.165 471.62 100.165 471.62Z" fill="#013B7E"/>
<path d="M99.903 471.62V475.018C99.903 475.018 99.903 475.018 99.6415 475.018L99.903 471.62C99.903 471.881 99.903 471.881 99.903 471.62Z" fill="#01397A"/>
<path d="M99.903 471.881V475.28V471.881C99.6414 471.881 99.903 471.881 99.903 471.881Z" fill="#013777"/>
<path d="M99.3804 471.62V475.018V471.62C99.1189 471.62 99.1189 471.62 99.3804 471.62Z" fill="#012F65"/>
<path d="M99.1184 471.62V475.018C99.1184 475.018 99.1184 475.018 98.8569 475.018L99.1184 471.62Z" fill="#012D61"/>
<path d="M99.1184 471.62V475.018C99.1184 475.018 99.1184 475.018 98.8569 475.018L99.1184 471.62C98.8569 471.62 98.8569 471.62 99.1184 471.62Z" fill="#012C5E"/>
<path d="M79.504 471.62V475.018H79.2424L79.504 471.62C79.2424 471.62 79.2424 471.62 79.504 471.62Z" fill="#013C82"/>
<path d="M79.2425 471.62V475.018H78.981L79.2425 471.62C78.981 471.62 79.2425 471.62 79.2425 471.62Z" fill="#013B7E"/>
<path d="M78.9809 471.62V475.018C78.9809 475.018 78.9809 475.018 78.7194 475.018L78.9809 471.62C78.9809 471.881 78.9809 471.62 78.9809 471.62Z" fill="#01397A"/>
<path d="M78.9809 471.881V475.28V471.881C78.7194 471.881 78.7194 471.881 78.9809 471.881Z" fill="#013777"/>
<path d="M78.7194 471.881V475.28V471.881C78.4578 471.881 78.7194 471.881 78.7194 471.881Z" fill="#013470"/>
<path d="M78.1963 471.62V475.018C78.1963 475.018 78.1963 475.018 77.9348 475.018L78.1963 471.62Z" fill="#012D61"/>
<path d="M78.1963 471.62V475.018C78.1963 475.018 78.1963 475.018 77.9348 475.018L78.1963 471.62C77.9348 471.62 77.9348 471.62 78.1963 471.62Z" fill="#012C5E"/>
<path d="M93.1033 473.189V476.588V473.189C92.8418 473.45 93.1033 473.45 93.1033 473.189Z" fill="#013B7E"/>
<path d="M92.8425 473.451V476.849H92.5809L92.8425 473.451Z" fill="#013C82"/>
<path d="M92.5806 473.451V476.849C92.5806 476.849 92.5806 476.849 92.3191 476.849L92.5806 473.451Z" fill="#013B7E"/>
<path d="M92.5806 473.451V476.849C92.5806 476.849 92.5806 476.849 92.3191 476.849L92.5806 473.451C92.3191 473.451 92.3191 473.451 92.5806 473.451Z" fill="#01397A"/>
<path d="M92.3187 473.451V476.849V473.451C92.0572 473.451 92.0572 473.451 92.3187 473.451Z" fill="#013673"/>
<path d="M92.0572 473.45V477.11H86.3036V473.45H92.0572Z" fill="#013B7E"/>
<path d="M104.611 468.221C105.134 468.483 105.134 468.744 104.611 469.006L100.427 471.359C99.9038 471.62 99.3807 471.62 98.8577 471.359L95.7194 469.529C94.9348 469.79 94.1502 470.051 93.3656 470.051V472.666C93.3656 472.927 92.8426 473.189 92.3195 473.189H86.3044C86.0429 473.189 85.7814 473.189 85.5199 472.927C85.2583 472.666 85.2583 472.666 85.2583 472.404V469.79C84.4737 469.529 83.6892 469.529 82.9046 469.267L79.7663 471.097C79.2432 471.359 78.7202 471.359 78.1971 471.097L74.0127 468.744C73.4896 468.483 73.4896 468.221 74.0127 467.96L77.151 466.13C76.628 465.607 76.3664 465.084 76.1049 464.823H71.659C71.3974 464.823 71.1359 464.823 70.8744 464.561C70.6129 464.561 70.6129 464.3 70.6129 464.039V460.64C70.6129 460.378 71.1359 460.117 71.659 460.117H75.8434C76.1049 459.594 76.3664 459.071 76.8895 458.81L73.7512 456.98C73.2281 456.718 73.2281 456.196 73.7512 456.196L77.9356 453.843C78.4586 453.581 78.9817 453.581 79.5047 453.843L82.6431 455.673C83.4276 455.411 84.2122 455.15 84.9968 455.15V452.536C84.9968 452.274 85.5199 452.013 86.0429 452.013H92.058C92.3195 452.013 92.5811 452.013 92.8426 452.274C93.1041 452.274 93.1041 452.536 93.1041 452.797V455.411C93.8887 455.673 94.6733 455.673 95.4578 455.934L98.5962 454.104C99.1192 453.843 99.6423 453.843 100.165 454.104L104.35 456.457C104.873 456.718 104.873 456.98 104.35 457.241L101.211 459.071C101.734 459.594 101.996 460.117 102.258 460.378H106.703C106.965 460.378 107.227 460.378 107.488 460.64C107.75 460.64 107.75 460.901 107.75 461.163V464.561C107.75 464.823 107.227 465.084 106.703 465.084H102.258C101.996 465.607 101.734 466.13 101.211 466.391L104.611 468.221ZM83.9507 465.607C86.8275 467.176 91.535 467.437 94.6733 465.607C97.5501 464.039 97.5501 461.163 94.6733 459.594C91.7965 458.026 87.089 458.026 84.2122 459.594C80.8124 461.163 80.8124 464.039 83.9507 465.607Z" fill="#01489B"/>
<path d="M86.0421 473.45V476.849V473.45C85.7806 473.45 86.0421 473.45 86.0421 473.45Z" fill="#013168"/>
<path d="M85.7806 473.45V476.849V473.45C85.5191 473.45 85.7806 473.45 85.7806 473.45Z" fill="#012D61"/>
<path d="M85.5191 473.45V476.849C85.5191 476.849 85.5191 476.849 85.2575 476.849C84.996 476.849 84.996 476.587 84.996 476.326V472.927C85.2576 473.189 85.2576 473.189 85.5191 473.45Z" fill="#012C5E"/>
<path opacity="0.15" d="M283.233 166.269L116.379 69.8015C115.072 69.0172 114.025 69.5401 114.025 71.1086L113.764 157.119C113.764 158.426 114.81 160.256 116.118 161.041L282.971 257.247C284.279 258.031 285.325 257.508 285.325 255.94L285.587 169.929C285.587 168.622 284.541 166.792 283.233 166.269Z" fill="#01D9EE"/>
<path d="M178.884 120.519V151.629L151.947 135.943C151.947 153.198 163.977 174.112 178.884 182.739C193.791 191.367 206.083 184.569 206.083 167.315C206.083 150.061 194.052 129.146 178.884 120.519Z" fill="#5AC9D1"/>
<path d="M178.884 120.519C163.977 111.892 151.685 118.95 151.685 135.943L178.622 151.629L178.884 120.519Z" fill="#7EEFF2"/>
<path d="M135.732 95.6829L124.225 88.8857V92.8072L135.732 99.6044V95.6829Z" fill="#5AC9D1"/>
<path d="M135.732 105.356L124.225 98.5591V102.481L135.732 109.278V105.356Z" fill="#5AC9D1"/>
<path d="M135.732 115.029L124.225 108.232L123.963 112.153L135.732 118.951V115.029Z" fill="#5AC9D1"/>
<path d="M135.732 124.702L123.963 118.166V121.826L135.732 128.623V124.702Z" fill="#5AC9D1"/>
<path d="M135.732 134.375L123.963 127.839V131.761L135.732 138.296V134.375Z" fill="#5AC9D1"/>
<path d="M135.732 144.309L123.963 137.512V141.433L135.732 147.969V144.309Z" fill="#5AC9D1"/>
<path d="M135.471 153.982L123.963 147.185V151.106L135.471 157.903V153.982Z" fill="#5AC9D1"/>
<path d="M275.387 182.478L218.636 149.799V155.551L275.387 188.491V182.478Z" fill="#5AC9D1"/>
<path d="M275.387 197.118L218.636 164.439V170.191L275.387 202.87V197.118Z" fill="#5AC9D1"/>
<path d="M263.357 204.7L218.636 178.818V184.831L263.357 210.451V204.7Z" fill="#5AC9D1"/>
<path d="M251.85 212.804L218.374 193.458V199.209L251.85 218.555V212.804Z" fill="#5AC9D1"/>
<path d="M540.052 190.321L441.195 133.329V141.172L540.052 198.425V190.321Z" fill="#67A7F4"/>
<path d="M540.052 207.576L441.195 150.322V158.427L540.052 215.68V207.576Z" fill="#67A7F4"/>
<path d="M540.052 224.83L440.933 167.577V175.681L540.052 232.934V224.83Z" fill="#67A7F4"/>
<path d="M382.874 93.5919L251.327 17.7771C249.758 16.9928 248.45 17.5156 248.45 19.6071L248.188 98.8204C248.188 100.65 249.496 103.003 251.065 104.049L382.613 179.864C384.182 180.91 385.49 180.125 385.49 178.295L385.751 99.0819C385.751 96.9904 384.444 94.6376 382.874 93.5919Z" fill="#C1C1F7"/>
<path opacity="0.3608" d="M380.521 75.0305L377.644 73.4619V84.442L380.521 86.0106V75.0305Z" fill="#C1C1F7"/>
<path opacity="0.3608" d="M375.29 71.8933L372.413 70.3247V81.5662L375.29 83.1348V71.8933Z" fill="#C1C1F7"/>
<path opacity="0.3608" d="M370.06 69.0176L367.444 67.449V78.6905L370.06 80.2591V69.0176Z" fill="#C1C1F7"/>
<path opacity="0.3608" d="M365.091 66.1418L362.214 64.5732V75.5533L365.091 77.1219V66.1418Z" fill="#C1C1F7"/>
<path opacity="0.3608" d="M359.86 63.0046L356.983 61.436V72.6775L359.86 74.2461V63.0046Z" fill="#C1C1F7"/>
<path opacity="0.3608" d="M354.63 60.1289L352.014 58.5603V69.5404L354.63 71.3704V60.1289Z" fill="#C1C1F7"/>
<path opacity="0.3608" d="M349.661 56.9917L346.784 55.4231V66.6646L349.399 68.2332L349.661 56.9917Z" fill="#C1C1F7"/>
<path opacity="0.3608" d="M344.43 54.1162L341.553 52.5476V63.7891L344.43 65.3577V54.1162Z" fill="#C1C1F7"/>
<path opacity="0.3608" d="M339.2 51.2402L336.584 49.6716V60.6517L339.2 62.2203V51.2402Z" fill="#C1C1F7"/>
<path opacity="0.3608" d="M334.231 48.1033L331.354 46.5347V57.7762L333.969 59.3448L334.231 48.1033Z" fill="#C1C1F7"/>
<path opacity="0.3608" d="M329 45.2273L326.123 43.6587V54.9002L329 56.4688V45.2273Z" fill="#C1C1F7"/>
<path opacity="0.3608" d="M323.77 42.3518L321.154 40.7832L320.893 51.7633L323.77 53.3319V42.3518Z" fill="#C1C1F7"/>
<path opacity="0.3608" d="M318.539 39.2143L315.924 37.6458V48.8873L318.539 50.4558V39.2143Z" fill="#C1C1F7"/>
<path opacity="0.3608" d="M313.57 36.3388L310.693 34.7703V46.0118L313.57 47.5804V36.3388Z" fill="#C1C1F7"/>
<path opacity="0.3608" d="M308.339 33.4633L305.724 31.6333L305.463 42.8748L308.339 44.4434V33.4633Z" fill="#C1C1F7"/>
<path opacity="0.3608" d="M303.109 30.3259L300.494 28.7573V39.9988L303.109 41.5674V30.3259Z" fill="#C1C1F7"/>
<path d="M329.785 110.585C329 110.062 328.215 110.846 327.431 111.892C329.785 116.336 330.831 133.591 334.492 135.682C335.277 136.205 335.8 135.421 336.584 134.114C333.446 129.408 332.661 112.153 329.785 110.585ZM371.89 133.068C370.844 132.284 369.798 132.806 368.752 133.591C372.936 135.944 375.813 154.244 376.859 161.041L380.259 163.132C380.259 162.871 376.859 135.944 371.89 133.068ZM291.863 82.3504C291.079 81.8275 290.294 82.3504 289.51 83.6575C292.648 88.6247 294.217 110.585 297.355 112.415C297.878 112.676 298.663 111.892 299.448 110.323C296.832 104.049 295.263 84.1804 291.863 82.3504ZM349.922 109.801C349.137 109.278 348.353 109.801 347.568 111.108C351.491 116.075 352.799 138.296 356.983 140.911C358.029 141.695 359.075 141.172 360.122 140.388C355.676 137.774 354.63 112.676 349.922 109.801ZM312.524 85.2261C311.739 84.7032 310.955 85.4875 310.17 86.5332C313.57 92.0233 314.878 117.643 318.016 119.212C319.062 119.735 320.108 119.473 320.893 118.428C317.754 114.768 316.447 87.3175 312.524 85.2261ZM268.587 52.2859C268.064 52.0244 267.28 52.5473 266.495 54.1159C270.68 61.4359 276.695 94.3762 280.095 96.4676C281.141 96.9905 281.925 96.4676 282.448 95.1604C278.525 88.8861 272.51 54.6387 268.587 52.2859Z" fill="#715BE4"/>
<path d="M265.449 52.8094C261.265 50.4565 253.419 92.0239 253.419 92.0239L376.859 163.394C376.859 163.394 376.859 162.349 376.598 161.041C375.552 154.244 372.675 136.206 368.49 133.591C365.091 131.761 362.998 138.036 360.122 140.389C359.076 141.173 358.029 141.434 356.983 140.911C352.537 138.297 351.491 116.075 347.568 111.108C347.307 110.847 347.045 110.585 346.784 110.324C343.122 108.233 339.984 128.363 336.584 134.114C335.8 135.421 335.277 135.944 334.492 135.683C330.831 133.591 329.785 116.075 327.431 111.893C327.169 111.37 326.908 111.108 326.646 111.108C324.293 109.801 322.985 116.076 320.631 118.69C319.847 119.736 318.801 119.997 317.754 119.474C314.616 117.644 313.57 92.2853 309.909 86.7953C309.647 86.2724 309.386 86.011 309.124 85.7496C305.724 83.6581 302.063 103.527 299.186 110.324C298.401 111.893 297.878 112.938 297.094 112.415C294.217 110.585 292.648 88.8867 289.248 83.6581C288.987 83.1353 288.725 82.8739 288.463 82.8739C285.587 81.3053 284.279 91.2396 282.187 95.1611C281.402 96.4682 280.618 96.9911 279.833 96.4682C276.433 94.6382 270.418 61.4366 266.234 54.1165C266.234 53.3322 265.711 53.0708 265.449 52.8094Z" fill="#9385F4"/>
<path opacity="0.3608" d="M406.673 190.059L396.997 184.569V187.707L406.673 193.197V190.059Z" fill="#C1C1F7"/>
<path opacity="0.3608" d="M406.935 184.046L396.997 178.556V181.694L406.935 187.445V184.046Z" fill="#C1C1F7"/>
<path opacity="0.3608" d="M406.935 178.295L396.997 172.543V175.681L406.935 181.432V178.295Z" fill="#C1C1F7"/>
<path opacity="0.3608" d="M406.935 172.282L397.258 166.792V169.929L406.935 175.419V172.282Z" fill="#C1C1F7"/>
<path opacity="0.3608" d="M406.935 166.531L397.258 160.779V163.916L406.935 169.668V166.531Z" fill="#C1C1F7"/>
<path opacity="0.3608" d="M406.935 160.518L397.258 154.767V158.165L406.935 163.655V160.518Z" fill="#C1C1F7"/>
<path opacity="0.3608" d="M406.935 154.505L397.258 149.015V152.152L406.935 157.642V154.505Z" fill="#C1C1F7"/>
<path opacity="0.3608" d="M406.935 148.754L397.258 143.002V146.139L406.935 151.891V148.754Z" fill="#C1C1F7"/>
<path opacity="0.3608" d="M406.935 142.74L397.258 137.25V140.387L406.935 145.877V142.74Z" fill="#C1C1F7"/>
<path opacity="0.3608" d="M406.935 136.728L397.258 131.238V134.375L406.935 140.126V136.728Z" fill="#C1C1F7"/>
<path opacity="0.3608" d="M406.935 130.976L397.258 125.225V128.362L406.935 134.113V130.976Z" fill="#C1C1F7"/>
<path opacity="0.3608" d="M406.935 124.963L397.258 119.473V122.611L406.935 128.101V124.963Z" fill="#C1C1F7"/>
<path opacity="0.3608" d="M406.935 119.212L397.258 113.46V116.598L406.935 122.349V119.212Z" fill="#C1C1F7"/>
<path opacity="0.3608" d="M406.935 113.199L397.258 107.448V110.846L406.935 116.336V113.199Z" fill="#C1C1F7"/>
<path opacity="0.3608" d="M406.935 107.186L397.258 101.696V104.833L406.935 110.323V107.186Z" fill="#C1C1F7"/>
<path opacity="0.3608" d="M406.935 101.435L397.259 95.6831V98.8203L406.935 104.572V101.435Z" fill="#C1C1F7"/>
<path d="M605.172 348.748C593.403 341.951 583.727 325.219 583.727 311.625C583.727 298.03 593.403 292.54 605.172 299.338C616.94 306.135 626.617 322.866 626.617 336.461C626.617 350.055 616.94 355.545 605.172 348.748ZM605.433 290.449V299.599C593.665 292.802 583.988 298.292 583.988 311.886L576.142 307.442C576.142 326.003 589.219 348.748 605.433 358.159C621.648 367.571 634.724 359.989 634.724 341.428C634.724 322.605 621.386 299.86 605.433 290.449Z" fill="#9385F4"/>
<path d="M605.433 290.449C589.219 281.037 576.142 288.619 576.142 307.18L583.988 311.625C583.988 298.03 593.665 292.54 605.433 299.337V290.449Z" fill="#C1C1F7"/>
<path d="M605.172 371.492V380.642C593.403 373.845 583.727 379.335 583.727 392.929C583.727 379.335 593.403 373.845 605.172 380.642C616.94 387.439 626.617 404.171 626.617 417.765C626.617 431.36 616.94 436.85 605.172 430.053V438.941C588.957 429.53 575.881 406.785 575.881 388.224C575.881 406.785 588.957 429.53 605.172 438.941C621.386 448.353 634.463 440.771 634.463 422.21C634.463 403.648 621.125 380.904 605.172 371.492Z" fill="#3D7EDC"/>
<path d="M605.172 371.492C588.957 362.081 575.881 369.662 575.881 388.224C575.881 406.785 588.957 429.53 605.172 438.941V430.052C593.403 423.255 583.727 406.524 583.727 392.929C583.727 379.335 593.403 373.845 605.172 380.642V371.492Z" fill="#90C0FE"/>
<path d="M605.695 209.405C600.726 206.53 596.018 205.222 592.095 205.484L595.757 215.68C592.095 215.68 588.957 217.51 586.865 220.647C590.526 215.157 597.587 214.111 605.695 218.817C617.463 225.614 627.14 242.346 627.14 255.94C627.14 269.534 617.463 275.024 605.695 268.227C593.926 261.43 584.25 244.698 584.25 231.104C584.25 226.921 585.296 223.523 586.865 220.908L580.065 212.804C577.973 216.203 576.665 220.908 576.665 226.66C576.665 245.221 589.742 267.966 605.956 277.377C622.171 286.789 635.247 279.207 635.247 260.646C634.986 241.3 621.909 218.817 605.695 209.405Z" fill="#01D9EE"/>
<path d="M592.095 205.484C586.865 205.745 582.68 208.098 579.804 212.543L586.603 220.647C586.603 220.647 586.603 220.647 586.603 220.385C588.696 217.248 591.834 215.68 595.495 215.418L592.095 205.484Z" fill="#01F8FF"/>
<path d="M644.139 462.993C644.139 463.255 644.139 463.516 644.139 463.516C644.139 463.777 644.139 464.039 644.139 464.3C644.139 464.562 644.139 464.562 643.878 464.823C643.878 465.085 643.878 465.346 643.616 465.346C643.616 465.607 643.355 465.607 643.355 465.869C643.355 466.13 643.093 466.392 643.093 466.392C643.093 466.653 642.831 466.653 642.831 466.915C642.57 467.176 642.57 467.437 642.308 467.699C642.308 467.96 642.047 467.96 642.047 468.222C641.785 468.483 641.524 468.745 641.262 469.267L641.001 469.529C640.739 469.79 640.478 469.79 640.478 470.052C640.216 470.313 640.216 470.313 639.955 470.575C639.693 470.836 639.432 470.836 639.17 471.097C638.909 471.359 638.647 471.359 638.386 471.62C637.601 472.143 636.555 472.666 635.509 472.927C635.247 472.927 634.986 473.189 634.724 473.189C633.678 473.45 632.632 473.973 631.586 474.235H631.324C630.278 474.496 629.232 474.758 628.186 474.758C627.924 474.758 627.663 474.758 627.663 474.758C626.617 474.758 625.309 475.019 624.263 475.019C624.002 475.019 624.002 475.019 623.74 475.019C622.694 475.019 621.386 475.019 620.34 474.758C620.079 474.758 620.079 474.758 619.817 474.758C618.771 474.496 617.463 474.496 616.417 474.235C616.156 474.235 615.894 474.235 615.894 473.973C614.848 473.712 614.064 473.45 613.017 473.189C612.756 473.189 612.756 473.189 612.494 472.927C611.448 472.405 610.402 471.882 609.356 471.359C605.172 469.006 603.08 465.869 603.08 462.732L602.818 545.082C602.818 548.219 604.91 551.357 609.095 553.709C610.141 554.232 610.925 554.755 611.971 555.278C611.971 555.278 611.971 555.278 612.233 555.278C612.494 555.278 612.494 555.278 612.756 555.539C613.279 555.801 614.064 556.062 614.587 556.062C614.848 556.062 615.371 556.324 615.633 556.324C615.894 556.324 616.156 556.324 616.156 556.585C616.417 556.585 616.417 556.585 616.679 556.847C617.463 557.108 617.987 557.108 618.771 557.108C619.033 557.108 619.294 557.108 619.556 557.108C619.817 557.108 619.817 557.108 620.079 557.108C620.34 557.108 620.602 557.108 620.863 557.108C621.648 557.108 622.171 557.108 622.955 557.108C623.217 557.108 623.479 557.108 623.479 557.108C623.74 557.108 623.74 557.108 624.002 557.108C624.263 557.108 624.525 557.108 625.048 557.108C625.832 557.108 626.617 557.108 627.401 556.847H627.663C627.924 556.847 628.186 556.847 628.186 556.847C628.709 556.847 629.494 556.585 630.017 556.585C630.54 556.585 631.063 556.324 631.324 556.324H631.586C632.37 556.062 633.155 556.062 633.678 555.801C633.94 555.801 634.201 555.539 634.463 555.539C634.724 555.539 634.986 555.278 635.247 555.278C636.293 554.755 637.339 554.494 638.124 553.971C638.124 553.971 638.386 553.971 638.386 553.709C638.647 553.709 638.647 553.448 638.909 553.448C639.17 553.187 639.432 553.187 639.693 552.925C639.955 552.664 640.216 552.664 640.216 552.402C640.478 552.141 640.739 552.141 640.739 551.879L641.001 551.618C641.262 551.357 641.524 551.095 641.785 550.572L642.047 550.311C642.047 550.311 642.047 550.049 642.308 550.049C642.57 549.788 642.57 549.527 642.831 549.265L643.093 549.004C643.093 549.004 643.093 549.004 643.093 548.742C643.093 548.481 643.355 548.219 643.355 548.219C643.355 548.219 643.355 547.958 643.616 547.958C643.616 547.697 643.616 547.435 643.878 547.435C643.878 547.174 643.878 547.174 643.878 546.912C643.878 546.651 643.878 546.389 643.878 546.128C643.878 545.867 643.878 545.867 643.878 545.605C643.878 545.605 643.878 545.605 643.878 545.344L644.139 462.993Z" fill="url(#paint3_linear)"/>
<path d="M637.863 454.366C645.97 459.071 645.97 466.653 637.863 471.359C629.755 476.064 616.679 476.064 608.31 471.359C600.203 466.653 600.203 459.071 608.31 454.366C616.679 449.66 629.755 449.66 637.863 454.366Z" fill="#01F8FF"/>
<path d="M583.203 478.679C583.203 478.94 583.203 479.202 583.203 479.463C583.203 479.725 583.203 479.725 582.942 479.986C582.942 480.247 582.942 480.509 582.68 480.509C582.68 480.77 582.419 480.77 582.419 481.032C582.419 481.293 582.157 481.555 582.157 481.555C582.157 481.816 581.896 481.816 581.896 482.077C581.634 482.339 581.634 482.6 581.373 482.862C581.373 483.123 581.111 483.123 581.111 483.385C580.85 483.646 580.588 483.907 580.327 484.43L580.065 484.692C579.804 484.953 579.542 484.953 579.542 485.215C579.281 485.476 579.281 485.476 579.019 485.737C578.757 485.999 578.496 485.999 578.234 486.26C577.973 486.522 577.711 486.522 577.45 486.783C576.665 487.306 575.619 487.829 574.573 488.09C574.312 488.09 574.05 488.352 573.788 488.352C572.742 488.613 571.696 489.136 570.65 489.397H570.389C569.343 489.659 568.296 489.92 567.25 489.92C566.989 489.92 566.727 489.92 566.727 489.92C565.681 489.92 564.374 490.182 563.327 490.182C563.066 490.182 563.066 490.182 562.804 490.182C561.758 490.182 560.451 490.182 559.405 489.92C559.143 489.92 559.143 489.92 558.881 489.92C557.835 489.659 556.528 489.659 555.482 489.397C555.22 489.397 554.959 489.397 554.959 489.136C553.912 488.875 553.128 488.613 552.082 488.352C551.82 488.352 551.82 488.352 551.559 488.09C550.513 487.567 549.467 487.045 548.42 486.522C544.236 484.169 542.144 481.032 542.144 477.895L541.882 580.114C541.882 583.251 543.974 586.388 548.159 588.741C549.205 589.264 549.99 589.787 551.297 590.31C551.297 590.31 551.297 590.31 551.559 590.31C551.82 590.31 551.82 590.31 552.082 590.571C552.605 590.832 553.389 591.094 553.912 591.094C554.174 591.094 554.697 591.355 554.959 591.355C555.22 591.355 555.482 591.355 555.482 591.617C555.743 591.617 555.743 591.617 556.005 591.878C556.789 592.14 557.312 592.14 558.097 592.14C558.358 592.14 558.62 592.14 558.881 592.14C559.143 592.14 559.143 592.14 559.405 592.14C559.666 592.14 559.928 592.14 560.189 592.14C560.974 592.14 561.497 592.14 562.281 592.14C562.543 592.14 562.804 592.14 562.804 592.14C563.066 592.14 563.066 592.14 563.327 592.14C563.589 592.14 563.85 592.14 564.374 592.14C565.158 592.14 565.943 592.14 566.727 591.878H566.989C567.25 591.878 567.512 591.878 567.512 591.878C568.035 591.878 568.819 591.617 569.343 591.617C569.866 591.617 570.389 591.355 570.65 591.355H570.912C571.696 591.094 572.481 591.094 573.004 590.832C573.265 590.832 573.527 590.571 573.788 590.571C574.05 590.571 574.312 590.31 574.573 590.31C575.619 589.787 576.665 589.525 577.45 589.002C577.45 589.002 577.711 589.002 577.711 588.741C577.973 588.741 577.973 588.48 578.234 588.48C578.496 588.218 578.757 588.218 579.019 587.957C579.281 587.695 579.542 587.695 579.542 587.434C579.804 587.172 580.065 587.172 580.065 586.911L580.327 586.649C580.588 586.388 580.85 586.127 581.111 585.604L581.373 585.342C581.373 585.342 581.373 585.081 581.634 585.081C581.896 584.819 581.896 584.558 582.157 584.297L582.419 584.035C582.419 584.035 582.419 584.035 582.419 583.774C582.419 583.512 582.68 583.251 582.68 583.251C582.68 583.251 582.68 582.989 582.942 582.989C582.942 582.728 582.942 582.467 583.203 582.467C583.203 582.205 583.203 582.205 583.203 581.944C583.203 581.682 583.203 581.421 583.203 581.159C583.203 580.898 583.203 580.898 583.203 580.637C583.203 580.637 583.203 580.637 583.203 580.375L583.465 478.156C583.203 478.417 583.203 478.679 583.203 478.679Z" fill="url(#paint4_linear)"/>
<path d="M576.927 469.529C585.034 474.235 585.034 481.816 576.927 486.522C568.82 491.227 555.743 491.227 547.374 486.522C539.267 481.816 539.267 474.235 547.374 469.529C555.743 464.823 568.82 464.823 576.927 469.529Z" fill="#C1C1F7"/>
<defs>
<linearGradient id="paint0_linear" x1="332.426" y1="525.265" x2="668.17" y2="525.265" gradientUnits="userSpaceOnUse">
<stop offset="0.0102564" stop-color="#3B2F77"/>
<stop offset="1" stop-color="#9385F4"/>
</linearGradient>
<linearGradient id="paint1_linear" x1="480.571" y1="206.493" x2="351.63" y2="499.331" gradientUnits="userSpaceOnUse">
<stop stop-color="white"/>
<stop offset="1" stop-opacity="0"/>
</linearGradient>
<linearGradient id="paint2_linear" x1="480.252" y1="590.821" x2="522.123" y2="590.821" gradientUnits="userSpaceOnUse">
<stop stop-color="#0154B4"/>
<stop offset="1" stop-color="#3D7EDC"/>
</linearGradient>
<linearGradient id="paint3_linear" x1="604.026" y1="510.192" x2="642.315" y2="510.192" gradientUnits="userSpaceOnUse">
<stop stop-color="#00B1C6"/>
<stop offset="1" stop-color="#01D9EE"/>
</linearGradient>
<linearGradient id="paint4_linear" x1="541.136" y1="535.158" x2="583.177" y2="535.158" gradientUnits="userSpaceOnUse">
<stop stop-color="#715BE4"/>
<stop offset="1" stop-color="#9385F4"/>
</linearGradient>
</defs>
</svg>
