<svg width="175" height="175" viewBox="0 0 175 175" fill="none" xmlns="http://www.w3.org/2000/svg">
<path d="M88.3562 175C40.839 175 2.22601 136.121 2.22601 88.2759C2.22601 40.4311 40.839 1.55176 88.3562 1.55176C135.873 1.55176 174.486 40.4311 174.486 88.2759C174.486 136.121 135.873 175 88.3562 175ZM88.3562 5.7759C43.1507 5.7759 6.42122 42.7587 6.42122 88.2759C6.42122 133.793 43.1507 170.776 88.3562 170.776C133.562 170.776 170.291 133.793 170.291 88.2759C170.291 42.8449 133.476 5.7759 88.3562 5.7759Z" fill="url(#paint0_linear)"/>
<path d="M27.9966 32.5861C27.9966 32.5861 49.9144 6.37923 87.7568 5.77578L87.3288 1.46544C87.3288 1.46544 52.3116 -0.344905 24.9144 29.5689" fill="#DBDCEC"/>
<defs>
<linearGradient id="paint0_linear" x1="88.336" y1="1.54831" x2="88.336" y2="175.018" gradientUnits="userSpaceOnUse">
<stop stop-color="#82B1FF"/>
<stop offset="1" stop-color="#A6A7CF"/>
</linearGradient>
</defs>
</svg>
