<svg width="175" height="175" viewBox="0 0 175 175" fill="none" xmlns="http://www.w3.org/2000/svg">
<path d="M88.3562 175C40.839 175 2.22601 136.12 2.22601 88.2754C2.22601 40.4306 40.839 1.55127 88.3562 1.55127C135.873 1.55127 174.486 40.4306 174.486 88.2754C174.486 136.12 135.873 175 88.3562 175ZM88.3562 5.77541C43.1507 5.77541 6.42122 42.7582 6.42122 88.2754C6.42122 133.793 43.1507 170.775 88.3562 170.775C133.562 170.775 170.291 133.793 170.291 88.2754C170.291 42.8444 133.476 5.77541 88.3562 5.77541Z" fill="url(#paint0_linear)"/>
<path d="M60.4452 10.6035C60.4452 10.6035 74.3151 5.5173 87.8425 5.77592L87.4144 1.46558C87.4144 1.46558 72.4315 1.8104 58.9897 6.63799" fill="#DBDCEC"/>
<defs>
<linearGradient id="paint0_linear" x1="88.336" y1="1.54782" x2="88.336" y2="175.018" gradientUnits="userSpaceOnUse">
<stop stop-color="#82B1FF"/>
<stop offset="1" stop-color="#A6A7CF"/>
</linearGradient>
</defs>
</svg>
