<svg width="90" height="90" viewBox="0 0 90 90" fill="none" xmlns="http://www.w3.org/2000/svg">
<path fill-rule="evenodd" clip-rule="evenodd" d="M84.2037 0H5.79737C2.60102 0 0 2.60034 0 5.79737V69.53C0 72.7264 2.60102 75.3267 5.79737 75.3267H10.7543C11.4814 75.3267 12.0713 74.7375 12.0713 74.0097C12.0713 73.2825 11.4814 72.6927 10.7543 72.6927H5.79737C4.05328 72.6927 2.63467 71.2741 2.63467 69.53V64.5333H50.6225V66.8033H49.5781C48.1491 66.8033 46.9873 67.9651 46.9873 69.3941V72.6927H18.7627C18.0355 72.6927 17.4457 73.2825 17.4457 74.0097C17.4457 74.7375 18.0355 75.3267 18.7627 75.3267H31.4272V80.0508H27.4501C24.7969 80.0508 22.6388 82.2097 22.6388 84.8622V87.7076C22.6388 88.9182 23.6234 89.9029 24.834 89.9029H65.0661C66.2767 89.9029 67.2613 88.9182 67.2613 87.7076V84.8622C67.2613 82.2097 65.1032 80.0508 62.45 80.0508H58.4729V78.3857H82.8235C84.2517 78.3857 85.4135 77.2239 85.4135 75.795V75.1749C87.9809 74.5789 89.9001 72.2752 89.9001 69.53L89.9997 5.79668C90.0004 2.60034 87.4 0 84.2037 0ZM49.622 61.3973V55.0836H82.7796V61.3973H49.622ZM53.2564 52.4489V49.6776H79.1444V52.4489H53.2564ZM79.1444 64.0313V66.8033H53.2564V64.0313H79.1444ZM34.0612 75.3267H46.9873V75.7957C46.9873 77.2239 48.1491 78.3857 49.5781 78.3857H55.8389V80.0508H34.0612V75.3267ZM62.4507 82.6855C63.6509 82.6855 64.6273 83.6619 64.6273 84.8622V87.2689H25.2728V84.8622C25.2728 83.6619 26.2499 82.6855 27.4501 82.6855H62.4507ZM82.7796 75.751H49.622V69.438H82.7796V75.751ZM87.2661 69.53C87.2661 70.8058 86.5053 71.9051 85.4142 72.4043V69.3934C85.4142 67.9651 84.2517 66.8033 82.8235 66.8033H81.7791V64.5333H87.2661V69.53ZM87.2661 61.8993H85.371C85.3978 61.7503 85.4142 55.0397 85.4142 55.0397C85.4142 53.6108 84.2517 52.4489 82.8235 52.4489H81.7791V49.6776H82.8235C84.2517 49.6776 85.4142 48.5151 85.4142 47.0869V40.6853C85.4142 39.2571 84.2517 38.0946 82.8235 38.0946H75.3837C74.6558 38.0946 74.0667 38.6844 74.0667 39.4122C74.0667 40.1394 74.6558 40.7292 75.3837 40.7292H82.7796V47.043H49.622V40.7292H67.1878C67.9157 40.7292 68.5048 40.1394 68.5048 39.4122C68.5048 38.6844 67.9157 38.0946 67.1878 38.0946H49.5781C48.1491 38.0946 46.9873 39.2571 46.9873 40.6853V47.0869C46.9873 48.5151 48.1491 49.6776 49.5781 49.6776H50.6225V52.4489H49.5781C48.1491 52.4489 46.9873 53.6114 46.9873 55.0397C46.9873 55.0397 47.0038 61.7503 47.0306 61.8993H2.63467V17.9174H87.2661V61.8993ZM87.2661 15.2827H2.73149V5.79668C2.73149 4.05329 4.1501 2.63467 5.89419 2.63467H84.1034C85.8475 2.63467 87.2661 4.05329 87.2661 5.79737V15.2827ZM14.2685 33.0861C14.4265 33.1479 14.5899 33.1775 14.7499 33.1775C15.2759 33.1775 15.7723 32.8602 15.9762 32.3418L19.2207 24.0821C19.4871 23.4051 19.1534 22.6409 18.4763 22.3744C17.8 22.1087 17.0351 22.4417 16.7693 23.1188L13.5242 31.3785C13.2585 32.0555 13.5915 32.8204 14.2685 33.0861ZM20.2369 30.9287L23.4353 27.7303L20.2376 24.5319C19.7226 24.0176 19.7226 23.184 20.2376 22.669C20.7519 22.1547 21.5855 22.1547 22.0998 22.669L26.23 26.7992C26.7443 27.3128 26.7443 28.1471 26.23 28.6614L22.0998 32.7916C21.843 33.0484 21.5058 33.1775 21.1687 33.1775C20.8315 33.1775 20.4944 33.0484 20.2376 32.7916C19.7226 32.2773 19.7226 31.443 20.2369 30.9287ZM11.2954 33.1775C10.9582 33.1775 10.6211 33.0484 10.3643 32.7916L6.23476 28.6621C5.98756 28.4149 5.84886 28.0798 5.84886 27.7303C5.84886 27.3815 5.98756 27.0464 6.23476 26.7992L10.3643 22.6697C10.8786 22.1554 11.7128 22.1554 12.2271 22.6697C12.7414 23.184 12.7414 24.0176 12.2271 24.5326L9.02873 27.7303L12.2271 30.9287C12.7414 31.443 12.7414 32.2773 12.2271 32.7916C11.9696 33.0491 11.6325 33.1775 11.2954 33.1775ZM16.7851 40.905H7.91155C7.18371 40.905 6.59456 40.3152 6.59456 39.5873C6.59456 38.8602 7.18371 38.2703 7.91155 38.2703H16.7851C17.5123 38.2703 18.1021 38.8602 18.1021 39.5873C18.1021 40.3152 17.5123 40.905 16.7851 40.905ZM37.2225 38.2703H21.6219C20.8947 38.2703 20.3049 38.8602 20.3049 39.5873C20.3049 40.3152 20.8947 40.905 21.6219 40.905H37.2225C37.9503 40.905 38.5402 40.3152 38.5402 39.5873C38.5402 38.8602 37.9503 38.2703 37.2225 38.2703ZM11.6916 46.4607H7.91155C7.18371 46.4607 6.59456 45.8709 6.59456 45.143C6.59456 44.4158 7.18371 43.826 7.91155 43.826H11.6916C12.4187 43.826 13.0085 44.4158 13.0085 45.143C13.0085 45.8709 12.4187 46.4607 11.6916 46.4607ZM32.4036 43.826C31.6758 43.826 31.0866 44.4158 31.0866 45.143C31.0866 45.8709 31.6758 46.4607 32.4036 46.4607H34.7052C35.4331 46.4607 36.0229 45.8709 36.0229 45.143C36.0229 44.4158 35.4331 43.826 34.7052 43.826H32.4036ZM27.6197 43.826C28.3469 43.826 28.9367 44.4158 28.9367 45.143C28.9367 45.8709 28.3469 46.4607 27.6197 46.4607H16.3134C15.5855 46.4607 14.9964 45.8709 14.9964 45.143C14.9964 44.4158 15.5855 43.826 16.3134 43.826H27.6197ZM37.5651 45.143C37.5651 45.8709 38.155 46.4607 38.8821 46.4607H43.1936C43.9214 46.4607 44.5113 45.8709 44.5113 45.143C44.5113 44.4158 43.9214 43.826 43.1936 43.826H38.8821C38.155 43.826 37.5651 44.4158 37.5651 45.143ZM34.9394 28.787H30.3917C29.6639 28.787 29.074 28.1972 29.074 27.4694C29.074 26.7422 29.6639 26.1524 30.3917 26.1524H34.9394C35.6672 26.1524 36.2571 26.7422 36.2571 27.4694C36.2571 28.1972 35.6672 28.787 34.9394 28.787ZM40.033 28.787H67.7811C68.509 28.787 69.0981 28.1972 69.0981 27.4694C69.0981 26.7422 68.509 26.1524 67.7811 26.1524H40.033C39.3051 26.1524 38.7153 26.7422 38.7153 27.4694C38.7153 28.1972 39.3051 28.787 40.033 28.787ZM52.326 31.9477H63.5664C64.2936 31.9477 64.8834 32.5375 64.8834 33.2654C64.8834 33.9925 64.2936 34.5824 63.5664 34.5824H52.326C51.5989 34.5824 51.009 33.9925 51.009 33.2654C51.009 32.5375 51.5989 31.9477 52.326 31.9477ZM48.1114 31.9477H44.2476C43.5198 31.9477 42.9306 32.5375 42.9306 33.2654C42.9306 33.9925 43.5198 34.5824 44.2476 34.5824H48.1114C48.8392 34.5824 49.4283 33.9925 49.4283 33.2654C49.4283 32.5375 48.8392 31.9477 48.1114 31.9477ZM39.8572 34.5824H30.3917C29.6639 34.5824 29.074 33.9925 29.074 33.2654C29.074 32.5375 29.6639 31.9477 30.3917 31.9477H39.8572C40.5843 31.9477 41.1742 32.5375 41.1742 33.2654C41.1742 33.9925 40.5843 34.5824 39.8572 34.5824ZM27.6362 49.335H18.7633C18.0355 49.335 17.4457 49.9248 17.4457 50.652C17.4457 51.3791 18.0355 51.969 18.7633 51.969H27.6362C28.3634 51.969 28.9532 51.3791 28.9532 50.652C28.9532 49.9248 28.3634 49.335 27.6362 49.335ZM7.91155 49.335H14.7286C15.4564 49.335 16.0456 49.9248 16.0456 50.652C16.0456 51.3791 15.4564 51.969 14.7286 51.969H7.91155C7.18371 51.969 6.59456 51.3791 6.59456 50.652C6.59456 49.9248 7.18371 49.335 7.91155 49.335ZM43.7209 49.335H32.1296C31.4018 49.335 30.8126 49.9248 30.8126 50.652C30.8126 51.3791 31.4018 51.969 32.1296 51.969H43.7209C44.4481 51.969 45.0379 51.3791 45.0379 50.652C45.0379 49.9248 44.4481 49.335 43.7209 49.335ZM53.058 42.5687H59.3964C60.1243 42.5687 60.7134 43.1586 60.7134 43.8857C60.7134 44.6136 60.1243 45.2034 59.3964 45.2034H53.058C52.3308 45.2034 51.741 44.6136 51.741 43.8857C51.741 43.1586 52.3308 42.5687 53.058 42.5687ZM70.3952 45.2034H79.3429C80.0707 45.2034 80.6606 44.6136 80.6606 43.8857C80.6606 43.1586 80.0707 42.5687 79.3429 42.5687H70.3952C69.6673 42.5687 69.0782 43.1586 69.0782 43.8857C69.0782 44.6136 69.668 45.2034 70.3952 45.2034ZM63.8706 42.5687H65.921C66.6488 42.5687 67.238 43.1586 67.238 43.8857C67.238 44.6136 66.6488 45.2034 65.921 45.2034H63.8706C63.1428 45.2034 62.553 44.6136 62.553 43.8857C62.553 43.1586 63.1428 42.5687 63.8706 42.5687ZM53.058 59.5571H59.3964C60.1243 59.5571 60.7134 58.968 60.7134 58.2401C60.7134 57.513 60.1243 56.9231 59.3964 56.9231H53.058C52.3308 56.9231 51.741 57.513 51.741 58.2401C51.741 58.968 52.3308 59.5571 53.058 59.5571ZM79.3429 59.5571H70.3952C69.668 59.5571 69.0782 58.968 69.0782 58.2401C69.0782 57.513 69.6673 56.9231 70.3952 56.9231H79.3429C80.0707 56.9231 80.6606 57.513 80.6606 58.2401C80.6606 58.968 80.0707 59.5571 79.3429 59.5571ZM63.8706 59.5571H65.921C66.6488 59.5571 67.2387 58.968 67.2387 58.2401C67.2387 57.513 66.6488 56.9231 65.921 56.9231H63.8706C63.1428 56.9231 62.5536 57.513 62.5536 58.2401C62.5536 58.968 63.1428 59.5571 63.8706 59.5571ZM53.058 71.2775H59.3964C60.1243 71.2775 60.7134 71.8673 60.7134 72.5945C60.7134 73.3217 60.1243 73.9115 59.3964 73.9115H53.058C52.3308 73.9115 51.741 73.3217 51.741 72.5945C51.741 71.8673 52.3308 71.2775 53.058 71.2775ZM79.3429 71.2775H70.3952C69.6673 71.2775 69.0782 71.8673 69.0782 72.5945C69.0782 73.3217 69.6673 73.9115 70.3952 73.9115H79.3429C80.0707 73.9115 80.6606 73.3217 80.6606 72.5945C80.6606 71.8673 80.0707 71.2775 79.3429 71.2775ZM63.8706 71.2775H65.921C66.6488 71.2775 67.238 71.8673 67.238 72.5945C67.238 73.3217 66.6488 73.9115 65.921 73.9115H63.8706C63.1428 73.9115 62.553 73.3217 62.553 72.5945C62.553 71.8673 63.1428 71.2775 63.8706 71.2775ZM5.84886 8.92093C5.84886 6.78958 7.58265 5.05579 9.714 5.05579C11.8454 5.05579 13.5798 6.78958 13.5798 8.92093C13.5798 11.0523 11.8454 12.7868 9.714 12.7868C7.58265 12.7868 5.84886 11.0523 5.84886 8.92093ZM8.48284 8.92093C8.48284 9.60003 9.03559 10.1521 9.714 10.1521C10.3931 10.1521 10.9452 9.60003 10.9452 8.92093C10.9452 8.24253 10.3931 7.68977 9.714 7.68977C9.03559 7.68977 8.48284 8.24253 8.48284 8.92093ZM19.5557 5.05579C17.4244 5.05579 15.6899 6.78958 15.6899 8.92093C15.6899 11.0523 17.4244 12.7868 19.5557 12.7868C21.6871 12.7868 23.4209 11.0523 23.4209 8.92093C23.4209 6.78958 21.6864 5.05579 19.5557 5.05579ZM19.5557 10.1521C18.8766 10.1521 18.3246 9.60003 18.3246 8.92093C18.3246 8.24253 18.8766 7.68977 19.5557 7.68977C20.2341 7.68977 20.7869 8.24253 20.7869 8.92093C20.7869 9.60003 20.2341 10.1521 19.5557 10.1521ZM25.5316 8.92093C25.5316 6.78958 27.2654 5.05579 29.3968 5.05579C31.5281 5.05579 33.2626 6.78958 33.2626 8.92093C33.2626 11.0523 31.5281 12.7868 29.3968 12.7868C27.2654 12.7868 25.5316 11.0523 25.5316 8.92093ZM28.1656 8.92093C28.1656 9.60003 28.7184 10.1521 29.3968 10.1521C30.0759 10.1521 30.6279 9.60003 30.6279 8.92093C30.6279 8.24253 30.0759 7.68977 29.3968 7.68977C28.7184 7.68977 28.1656 8.24253 28.1656 8.92093Z" fill="url(#paint0_linear)"/>
<defs>
<linearGradient id="paint0_linear" x1="44.9998" y1="89.9029" x2="44.9998" y2="0" gradientUnits="userSpaceOnUse">
<stop stop-color="#82B1FF"/>
<stop offset="1" stop-color="#A6A7CF"/>
</linearGradient>
</defs>
</svg>
