<svg width="547" height="601" viewBox="0 0 547 601" fill="none" xmlns="http://www.w3.org/2000/svg">
<path d="M515.054 305.781C515.054 305.599 515.054 305.508 515.054 305.326C515.054 305.235 515.054 305.144 515.054 305.144V305.053C515.054 304.962 515.054 304.962 515.054 304.871C515.054 304.689 515.054 304.598 514.963 304.416C514.963 304.233 514.872 304.051 514.872 303.96C514.872 303.778 514.781 303.596 514.781 303.505C514.781 303.323 514.69 303.141 514.69 302.959C514.69 302.868 514.69 302.868 514.599 302.777V302.685C514.599 302.594 514.599 302.503 514.508 302.503C514.417 302.321 514.417 302.139 514.326 301.957C514.326 301.866 514.235 301.684 514.235 301.593V301.502V301.411C514.144 301.228 514.144 301.046 514.053 300.864C513.962 300.682 513.962 300.5 513.871 300.318V300.227V300.136C513.78 300.045 513.78 299.954 513.78 299.772C513.689 299.589 513.689 299.498 513.598 299.316C513.507 299.225 513.507 299.043 513.415 298.952V298.861V298.77C513.324 298.588 513.233 298.497 513.233 298.315C513.142 298.132 513.051 297.95 512.96 297.768C512.96 297.768 512.96 297.677 512.869 297.677L512.778 297.586C512.687 297.404 512.596 297.313 512.596 297.131C512.505 296.949 512.414 296.767 512.323 296.584C512.232 296.493 512.232 296.402 512.141 296.311C512.141 296.311 512.141 296.22 512.05 296.22C511.959 296.038 511.868 295.947 511.777 295.765C511.686 295.583 511.504 295.31 511.322 295.127L511.231 295.036C511.049 294.763 510.776 294.399 510.594 294.126C510.412 293.944 510.321 293.762 510.139 293.579C510.048 293.397 509.866 293.306 509.775 293.124C509.684 292.942 509.502 292.851 509.411 292.669C509.32 292.487 509.138 292.396 509.047 292.213L508.956 292.122L508.865 292.031C508.774 291.94 508.683 291.849 508.592 291.758C508.41 291.576 508.319 291.485 508.137 291.303C508.046 291.212 508.046 291.212 507.955 291.212L507.864 291.121C507.773 291.03 507.682 291.03 507.682 290.939C507.5 290.848 507.409 290.665 507.226 290.574C507.135 290.483 507.135 290.483 507.044 290.392L506.953 290.301C506.862 290.21 506.862 290.21 506.771 290.21C506.589 290.119 506.498 290.028 506.316 289.846C506.225 289.755 506.134 289.664 506.043 289.664C506.043 289.664 505.952 289.664 505.952 289.573C505.952 289.573 505.952 289.573 505.861 289.482C505.679 289.391 505.588 289.3 505.406 289.208C505.224 289.117 505.133 289.026 504.951 288.935L504.86 288.844L267.402 151.252C267.311 151.161 267.22 151.161 267.129 151.07C266.947 150.978 266.856 150.887 266.674 150.887C266.583 150.796 266.492 150.796 266.401 150.796H266.31C266.31 150.796 266.219 150.796 266.219 150.705C266.128 150.614 265.946 150.614 265.855 150.523C265.673 150.432 265.582 150.432 265.491 150.341H265.4H265.309C265.218 150.341 265.127 150.25 265.036 150.25C264.854 150.159 264.763 150.159 264.581 150.159C264.49 150.159 264.49 150.159 264.399 150.068H264.308C264.217 150.068 264.216 150.068 264.216 150.068C264.034 150.068 263.943 149.977 263.761 149.977C263.67 149.977 263.579 149.977 263.488 149.977H263.397H263.306C263.124 149.977 263.033 149.977 262.851 149.977C262.76 149.977 262.76 149.977 262.669 149.977C262.578 149.977 262.578 149.977 262.487 149.977C262.396 149.977 262.396 149.977 262.305 149.977C262.123 149.977 261.941 150.068 261.759 150.068C261.668 150.068 261.668 150.068 261.668 150.068C261.486 150.159 261.304 150.159 261.122 150.25C261.122 150.25 261.122 150.25 261.031 150.25C260.758 150.341 260.485 150.432 260.303 150.614L256.48 152.891C256.753 152.709 256.935 152.618 257.208 152.527C257.39 152.435 257.572 152.435 257.845 152.344C257.936 152.344 257.936 152.344 257.936 152.344C258.21 152.253 258.392 152.253 258.665 152.253C258.756 152.253 258.756 152.253 258.847 152.253C259.12 152.253 259.302 152.253 259.575 152.253H259.666C259.939 152.253 260.212 152.344 260.485 152.344H260.576C260.849 152.435 261.122 152.527 261.486 152.618H261.577C261.85 152.709 262.214 152.891 262.487 152.982H262.578C262.851 153.164 263.215 153.255 263.579 153.528L501.311 291.303C501.675 291.485 501.948 291.758 502.312 291.94C502.312 291.94 502.312 291.94 502.403 292.031C502.676 292.213 503.04 292.487 503.313 292.76L503.404 292.851C503.677 293.124 503.95 293.306 504.223 293.579L504.314 293.67C504.587 293.944 504.86 294.217 505.133 294.49L505.224 294.581C505.497 294.854 505.77 295.218 506.043 295.492C506.589 296.129 507.044 296.858 507.591 297.495C507.773 297.677 507.864 297.95 507.955 298.132C508.046 298.315 508.137 298.497 508.319 298.679C508.41 298.77 508.41 298.861 508.501 298.952C508.683 299.316 508.865 299.589 509.047 299.863C509.047 299.863 509.047 299.954 509.138 299.954C509.32 300.318 509.502 300.682 509.684 301.137V301.228C509.866 301.593 509.957 301.957 510.139 302.412V302.503C510.321 302.868 510.412 303.323 510.503 303.687V303.778C510.594 304.142 510.685 304.507 510.776 304.962V305.053C510.867 305.417 510.958 305.873 510.958 306.237C511.049 306.601 511.049 307.056 511.14 307.421V307.512C511.14 307.876 511.231 308.24 511.231 308.695L510.685 490.817L514.508 488.54L515.054 306.146C515.054 306.146 515.054 305.964 515.054 305.781Z" fill="#448AFF"/>
<path d="M501.31 291.394C506.771 294.581 511.231 302.23 511.231 308.513L510.685 490.908L253.113 341.659L253.659 159.265C253.659 152.982 258.118 150.432 263.579 153.619L501.31 291.394Z" fill="#263238"/>
<path d="M502.949 312.975L502.494 463.225L261.577 323.629L262.032 173.379L502.949 312.975Z" fill="url(#paint0_linear)"/>
<path d="M514.69 485.99C514.69 486.173 514.69 486.264 514.599 486.446C514.599 486.537 514.508 486.719 514.508 486.81C514.417 486.992 514.417 487.083 514.417 487.265C514.326 487.356 514.326 487.538 514.235 487.63C514.144 487.812 514.053 487.903 514.053 488.085C513.962 488.176 513.962 488.267 513.871 488.449C513.78 488.631 513.689 488.813 513.507 488.995C513.416 489.087 513.325 489.178 513.234 489.269C513.051 489.451 512.869 489.724 512.596 489.997C512.505 490.088 512.414 490.179 512.323 490.27C512.141 490.361 512.05 490.543 511.868 490.635C511.686 490.726 511.595 490.817 511.413 490.908C511.231 490.999 511.049 491.181 510.867 491.272C510.685 491.363 510.503 491.545 510.321 491.636L364.242 576.869C363.605 577.233 362.877 577.597 362.149 577.871C361.967 577.962 361.785 578.053 361.603 578.053C361.147 578.235 360.692 578.326 360.237 578.508C359.782 578.69 359.236 578.781 358.781 578.872C358.235 578.963 357.598 579.145 356.961 579.236C356.779 579.236 356.688 579.328 356.506 579.328C355.687 579.419 354.867 579.419 354.048 579.51C353.957 579.51 353.775 579.51 353.684 579.51C352.865 579.51 352.046 579.419 351.227 579.328C351.136 579.328 350.954 579.328 350.863 579.236C350.044 579.145 349.224 578.963 348.496 578.781C348.314 578.781 348.223 578.69 348.041 578.69C347.313 578.508 346.676 578.326 345.948 578.053C345.857 577.962 345.675 577.962 345.584 577.962C344.765 577.688 344.037 577.324 343.309 576.869L100.39 436.089C97.4771 434.359 96.0208 432.174 96.0208 429.988V437.455C96.0208 439.641 97.4771 441.917 100.39 443.556L343.309 584.336C344.037 584.7 344.674 585.064 345.493 585.338C345.584 585.338 345.584 585.338 345.584 585.429C345.675 585.52 345.857 585.52 345.948 585.52C346.403 585.702 346.858 585.793 347.222 585.975C347.495 586.066 347.677 586.066 347.95 586.157C348.132 586.157 348.223 586.248 348.405 586.248C348.496 586.248 348.678 586.339 348.769 586.339C349.225 586.43 349.771 586.521 350.226 586.612C350.408 586.612 350.59 586.703 350.772 586.703C350.863 586.703 351.045 586.703 351.136 586.795C351.318 586.795 351.5 586.886 351.682 586.886C352.137 586.977 352.683 586.977 353.138 586.977C353.32 586.977 353.411 586.977 353.593 586.977C353.684 586.977 353.866 586.977 353.957 586.977C354.139 586.977 354.412 586.977 354.594 586.977C355.14 586.977 355.687 586.886 356.233 586.886C356.324 586.886 356.324 586.886 356.415 586.886C356.597 586.886 356.688 586.795 356.87 586.795C357.325 586.703 357.689 586.703 358.144 586.612C358.326 586.612 358.508 586.521 358.69 586.43C359.236 586.339 359.691 586.157 360.146 586.066C360.419 585.975 360.692 585.975 360.965 585.884C361.147 585.793 361.421 585.702 361.603 585.702C361.785 585.611 361.967 585.52 362.149 585.52C362.877 585.246 363.605 584.882 364.242 584.518L510.321 499.285C510.412 499.285 510.412 499.194 510.503 499.194C510.685 499.103 510.776 499.012 510.867 498.921C511.049 498.83 511.231 498.648 511.413 498.557C511.595 498.466 511.686 498.375 511.868 498.284C512.05 498.193 512.141 498.01 512.323 497.919L512.414 497.828C512.505 497.737 512.505 497.737 512.596 497.646C512.778 497.464 513.051 497.191 513.234 496.918C513.325 496.827 513.324 496.827 513.415 496.736C513.507 496.645 513.507 496.645 513.507 496.553C513.598 496.371 513.78 496.189 513.871 496.007C513.962 495.916 513.962 495.825 514.053 495.825C514.053 495.734 514.053 495.734 514.144 495.734C514.235 495.552 514.326 495.461 514.326 495.279C514.417 495.188 514.417 495.096 514.417 495.005V494.914C514.508 494.732 514.508 494.641 514.508 494.459C514.508 494.368 514.599 494.277 514.599 494.186V494.095C514.599 493.913 514.69 493.822 514.69 493.64C514.69 493.548 514.69 493.457 514.69 493.366C514.69 493.275 514.69 493.275 514.69 493.275V485.808C514.781 485.717 514.781 485.808 514.69 485.99Z" fill="#82B1FF"/>
<path d="M510.412 479.434C516.237 482.803 516.237 488.267 510.503 491.636L364.424 576.869C358.599 580.238 349.224 580.238 343.399 576.869L100.39 436.089C94.5645 432.72 94.5645 427.256 100.298 423.887L246.378 338.654C252.202 335.285 261.577 335.285 267.402 338.654L510.412 479.434Z" fill="#448AFF"/>
<path d="M499.217 482.985C501.948 484.534 501.948 487.083 499.217 488.722L359.145 570.404C356.415 571.952 352.046 571.952 349.315 570.404L111.493 432.629C108.763 431.081 108.763 428.531 111.493 426.892L251.565 345.211C254.296 343.663 258.665 343.663 261.395 345.211L499.217 482.985Z" fill="#90CAF9"/>
<path d="M302.625 509.393L284.786 519.774C282.875 520.867 280.599 520.867 278.688 519.774L184.123 465.047C182.485 464.136 182.485 461.768 184.123 460.858L201.962 450.477C203.874 449.384 206.149 449.384 208.06 450.477L302.625 505.204C304.263 506.115 304.263 508.391 302.625 509.393Z" fill="#BBDEFB"/>
<path d="M277.232 357.868V362.148L270.497 366.064V361.784L277.232 357.868Z" fill="#1E88E5"/>
<path d="M270.496 361.784V366.064L257.026 358.232V353.953L270.496 361.784Z" fill="#1565C0"/>
<path d="M277.232 357.868L270.496 361.784L257.026 353.953L263.761 350.037L277.232 357.868Z" fill="#42A5F5"/>
<path d="M297.892 369.797V374.077L291.157 377.993V373.713L297.892 369.797Z" fill="#1E88E5"/>
<path d="M291.248 373.713V377.993L277.778 370.161V365.882L291.248 373.713Z" fill="#1565C0"/>
<path d="M297.892 369.797L291.157 373.713L277.596 365.882L284.331 361.966L297.892 369.797Z" fill="#42A5F5"/>
<path d="M318.643 381.817V386.097L311.908 390.013V385.733L318.643 381.817Z" fill="#1E88E5"/>
<path d="M311.908 385.733V390.013L298.438 382.181V377.902L311.908 385.733Z" fill="#1565C0"/>
<path d="M318.643 381.817L311.908 385.733L298.347 377.902L305.082 373.986L318.643 381.817Z" fill="#42A5F5"/>
<path d="M339.304 393.746V398.026L332.569 401.941V397.662L339.304 393.746Z" fill="#1E88E5"/>
<path d="M332.569 397.662V401.941L319.007 394.11V389.83L332.569 397.662Z" fill="#1565C0"/>
<path d="M339.304 393.746L332.569 397.662L319.099 389.83L325.834 385.915L339.304 393.746Z" fill="#42A5F5"/>
<path d="M359.964 405.766V409.955L353.229 413.87V409.591L359.964 405.766Z" fill="#1E88E5"/>
<path d="M353.229 409.682V413.962L339.668 406.13V401.85L353.229 409.682Z" fill="#1565C0"/>
<path d="M359.964 405.766L353.229 409.682L339.759 401.85L346.494 397.935L359.964 405.766Z" fill="#42A5F5"/>
<path d="M380.625 417.695V421.975L373.89 425.89V421.611L380.625 417.695Z" fill="#1E88E5"/>
<path d="M373.89 421.611V425.89L360.419 418.059V413.779L373.89 421.611Z" fill="#1565C0"/>
<path d="M380.625 417.695L373.89 421.611L360.419 413.779L367.154 409.864L380.625 417.695Z" fill="#42A5F5"/>
<path d="M401.285 429.715V433.995L394.55 437.91V433.631L401.285 429.715Z" fill="#1E88E5"/>
<path d="M394.641 433.631V437.91L381.171 430.079V425.799L394.641 433.631Z" fill="#1565C0"/>
<path d="M401.285 429.715L394.55 433.631L381.08 425.799L387.815 421.884L401.285 429.715Z" fill="#42A5F5"/>
<path d="M421.945 441.644V445.833L415.21 449.748V445.468L421.945 441.644Z" fill="#1E88E5"/>
<path d="M415.301 445.56V449.839L401.831 442.008V437.728L415.301 445.56Z" fill="#1565C0"/>
<path d="M421.945 441.644L415.21 445.56L401.649 437.728L408.384 433.813L421.945 441.644Z" fill="#42A5F5"/>
<path d="M442.697 453.664V457.944L435.962 461.859V457.58L442.697 453.664Z" fill="#1E88E5"/>
<path d="M435.962 457.58V461.859L422.492 454.028V449.748L435.962 457.58Z" fill="#1565C0"/>
<path d="M442.697 453.664L435.962 457.58L422.492 449.748L429.227 445.833L442.697 453.664Z" fill="#42A5F5"/>
<path d="M463.357 465.593V469.873L456.622 473.788V469.6L463.357 465.593Z" fill="#1E88E5"/>
<path d="M456.622 469.508V473.697L443.061 465.866V461.586L456.622 469.508Z" fill="#1565C0"/>
<path d="M463.357 465.593L456.622 469.508L443.152 461.677L449.887 457.762L463.357 465.593Z" fill="#42A5F5"/>
<path d="M484.018 477.613V481.802L477.283 485.717V481.437L484.018 477.613Z" fill="#1E88E5"/>
<path d="M477.283 481.528V485.808L463.812 477.977V473.697L477.283 481.528Z" fill="#1565C0"/>
<path d="M484.018 477.613L477.283 481.529L463.812 473.697L470.547 469.782L484.018 477.613Z" fill="#42A5F5"/>
<path d="M264.216 365.426V369.706L250.746 377.537V373.348L264.216 365.426Z" fill="#1E88E5"/>
<path d="M250.746 373.257V377.446L237.276 369.615V365.335L250.746 373.257Z" fill="#1565C0"/>
<path d="M264.216 365.426L250.746 373.257L237.276 365.426L250.746 357.595L264.216 365.426Z" fill="#42A5F5"/>
<path d="M284.877 377.446V381.726L271.498 389.557V385.277L284.877 377.446Z" fill="#1E88E5"/>
<path d="M271.498 385.277V389.557L257.936 381.726V377.446L271.498 385.277Z" fill="#1565C0"/>
<path d="M284.877 377.446L271.407 385.277L257.936 377.446L271.407 369.615L284.877 377.446Z" fill="#42A5F5"/>
<path d="M305.628 389.375V393.655L292.158 401.486V397.206L305.628 389.375Z" fill="#1E88E5"/>
<path d="M292.158 397.206V401.486L278.688 393.655V389.375L292.158 397.206Z" fill="#1565C0"/>
<path d="M305.628 389.375L292.158 397.206L278.597 389.375L292.067 381.544L305.628 389.375Z" fill="#42A5F5"/>
<path d="M326.289 401.395V405.675L312.818 413.506V409.226L326.289 401.395Z" fill="#1E88E5"/>
<path d="M312.819 409.226V413.506L299.348 405.675V401.395L312.819 409.226Z" fill="#1565C0"/>
<path d="M326.289 401.395L312.91 409.226L299.348 401.395L312.819 393.564L326.289 401.395Z" fill="#42A5F5"/>
<path d="M346.949 413.324V417.604L333.479 425.435V421.155L346.949 413.324Z" fill="#1E88E5"/>
<path d="M333.479 421.155V425.435L319.918 417.604V413.324L333.479 421.155Z" fill="#1565C0"/>
<path d="M346.949 413.324L333.479 421.155L320.009 413.324L333.479 405.493L346.949 413.324Z" fill="#42A5F5"/>
<path d="M367.609 425.344V429.624L354.139 437.455V433.175L367.609 425.344Z" fill="#1E88E5"/>
<path d="M354.139 433.175V437.455L340.669 429.624V425.344L354.139 433.175Z" fill="#1565C0"/>
<path d="M367.609 425.344L354.23 433.175L340.76 425.344L354.139 417.513L367.609 425.344Z" fill="#42A5F5"/>
<path d="M388.27 437.273V441.553L374.8 449.384V445.104L388.27 437.273Z" fill="#1E88E5"/>
<path d="M374.8 445.104V449.384L361.329 441.553V437.273L374.8 445.104Z" fill="#1565C0"/>
<path d="M388.27 437.273L374.8 445.104L361.329 437.273L374.8 429.442L388.27 437.273Z" fill="#42A5F5"/>
<path d="M408.93 449.293V453.573L395.46 461.404V457.124L408.93 449.293Z" fill="#1E88E5"/>
<path d="M395.551 457.124V461.404L382.081 453.573V449.293L395.551 457.124Z" fill="#1565C0"/>
<path d="M408.93 449.293L395.46 457.124L381.99 449.293L395.369 441.462L408.93 449.293Z" fill="#42A5F5"/>
<path d="M429.591 461.222V465.502L416.12 473.333V469.053L429.591 461.222Z" fill="#1E88E5"/>
<path d="M416.211 469.053V473.333L402.741 465.502V461.222L416.211 469.053Z" fill="#1565C0"/>
<path d="M429.591 461.222L416.211 469.053L402.65 461.222L416.12 453.391L429.591 461.222Z" fill="#42A5F5"/>
<path d="M450.342 473.242V477.522L436.872 485.353V481.073L450.342 473.242Z" fill="#1E88E5"/>
<path d="M436.872 481.073V485.353L423.402 477.522V473.242L436.872 481.073Z" fill="#1565C0"/>
<path d="M450.342 473.242L436.872 481.073L423.402 473.242L436.872 465.411L450.342 473.242Z" fill="#42A5F5"/>
<path d="M471.003 485.171V489.451L457.532 497.282V493.002L471.003 485.171Z" fill="#1E88E5"/>
<path d="M457.532 493.002V497.282L444.062 489.451V485.171L457.532 493.002Z" fill="#1565C0"/>
<path d="M471.003 485.171L457.623 493.002L444.153 485.171L457.623 477.34L471.003 485.171Z" fill="#42A5F5"/>
<path d="M244.466 376.9V381.18L230.996 389.011V384.731L244.466 376.9Z" fill="#1E88E5"/>
<path d="M231.087 384.731V389.011L217.617 381.18V376.9L231.087 384.731Z" fill="#1565C0"/>
<path d="M244.466 376.9L231.087 384.731L217.617 376.9L231.087 369.069L244.466 376.9Z" fill="#42A5F5"/>
<path d="M265.127 388.92V393.2L251.656 401.031V396.842L265.127 388.92Z" fill="#1E88E5"/>
<path d="M251.747 396.751V400.94L238.277 393.109V388.829L251.747 396.751Z" fill="#1565C0"/>
<path d="M265.127 388.92L251.656 396.751L238.186 388.92L251.656 381.089L265.127 388.92Z" fill="#42A5F5"/>
<path d="M285.787 400.94V405.22L272.408 413.051V408.771L285.787 400.94Z" fill="#1E88E5"/>
<path d="M272.408 408.771V413.051L258.847 405.22V400.94L272.408 408.771Z" fill="#1565C0"/>
<path d="M285.787 400.94L272.317 408.771L258.847 400.94L272.317 393.109L285.787 400.94Z" fill="#42A5F5"/>
<path d="M306.538 412.869V417.149L293.068 424.98V420.7L306.538 412.869Z" fill="#1E88E5"/>
<path d="M293.068 420.7V424.98L279.598 417.149V412.869L293.068 420.7Z" fill="#1565C0"/>
<path d="M306.538 412.869L293.068 420.7L279.507 412.869L292.977 405.038L306.538 412.869Z" fill="#42A5F5"/>
<path d="M327.199 424.889V429.169L313.729 437V432.72L327.199 424.889Z" fill="#1E88E5"/>
<path d="M313.729 432.72V437L300.258 429.169V424.889L313.729 432.72Z" fill="#1565C0"/>
<path d="M327.199 424.889L313.82 432.72L300.258 424.889L313.729 417.058L327.199 424.889Z" fill="#42A5F5"/>
<path d="M347.859 436.818V441.098L334.389 448.929V444.649L347.859 436.818Z" fill="#1E88E5"/>
<path d="M334.389 444.649V448.929L320.919 441.098V436.818L334.389 444.649Z" fill="#1565C0"/>
<path d="M347.859 436.818L334.389 444.649L320.919 436.818L334.389 428.987L347.859 436.818Z" fill="#42A5F5"/>
<path d="M368.52 448.838V453.118L355.049 460.949V456.669L368.52 448.838Z" fill="#1E88E5"/>
<path d="M355.14 456.669V460.949L341.67 453.118V448.838L355.14 456.669Z" fill="#1565C0"/>
<path d="M368.52 448.838L355.14 456.669L341.67 448.838L355.049 441.007L368.52 448.838Z" fill="#42A5F5"/>
<path d="M389.18 460.767V465.047L375.71 472.878V468.598L389.18 460.767Z" fill="#1E88E5"/>
<path d="M375.801 468.598V472.878L362.24 465.047V460.767L375.801 468.598Z" fill="#1565C0"/>
<path d="M389.18 460.767L375.71 468.598L362.24 460.767L375.71 452.935L389.18 460.767Z" fill="#42A5F5"/>
<path d="M409.931 472.787V477.067L396.461 484.898V480.618L409.931 472.787Z" fill="#1E88E5"/>
<path d="M396.461 480.618V484.898L382.991 477.067V472.787L396.461 480.618Z" fill="#1565C0"/>
<path d="M409.931 472.787L396.461 480.618L382.991 472.787L396.37 464.955L409.931 472.787Z" fill="#42A5F5"/>
<path d="M430.592 484.716V488.995L417.122 496.827V492.547L430.592 484.716Z" fill="#1E88E5"/>
<path d="M417.122 492.547V496.827L403.651 488.995V484.716L417.122 492.547Z" fill="#1565C0"/>
<path d="M430.592 484.716L417.213 492.547L403.651 484.716L417.122 476.884L430.592 484.716Z" fill="#42A5F5"/>
<path d="M451.252 496.736V501.015L437.782 508.847V504.567L451.252 496.736Z" fill="#1E88E5"/>
<path d="M437.782 504.567V508.847L424.312 501.015V496.736L437.782 504.567Z" fill="#1565C0"/>
<path d="M451.252 496.736L437.782 504.567L424.312 496.736L437.782 488.904L451.252 496.736Z" fill="#42A5F5"/>
<path d="M224.716 388.465V392.653L211.246 400.485V396.205L224.716 388.465Z" fill="#1E88E5"/>
<path d="M211.246 396.296V400.576L197.776 392.744V388.465L211.246 396.296Z" fill="#1565C0"/>
<path d="M224.716 388.465L211.246 396.296L197.776 388.465L211.246 380.633L224.716 388.465Z" fill="#42A5F5"/>
<path d="M245.376 400.393V404.673L231.906 412.505V408.225L245.376 400.393Z" fill="#1E88E5"/>
<path d="M231.997 408.225V412.505L218.527 404.673V400.393L231.997 408.225Z" fill="#1565C0"/>
<path d="M245.376 400.393L231.997 408.225L218.436 400.393L231.906 392.562L245.376 400.393Z" fill="#42A5F5"/>
<path d="M266.037 412.413V416.693L252.567 424.525V420.336L266.037 412.413Z" fill="#1E88E5"/>
<path d="M252.658 420.245V424.434L239.187 416.602V412.322L252.658 420.245Z" fill="#1565C0"/>
<path d="M266.037 412.413L252.567 420.245L239.096 412.413L252.567 404.582L266.037 412.413Z" fill="#42A5F5"/>
<path d="M286.788 424.434V428.713L273.409 436.545V432.265L286.788 424.434Z" fill="#1E88E5"/>
<path d="M273.318 432.265V436.545L259.757 428.713V424.434L273.318 432.265Z" fill="#1565C0"/>
<path d="M286.788 424.433L273.318 432.265L259.848 424.433L273.318 416.602L286.788 424.433Z" fill="#42A5F5"/>
<path d="M307.449 436.362V440.642L293.978 448.473V444.194L307.449 436.362Z" fill="#1E88E5"/>
<path d="M293.978 444.194V448.473L280.508 440.642V436.362L293.978 444.194Z" fill="#1565C0"/>
<path d="M307.449 436.362L293.978 444.194L280.417 436.362L293.887 428.531L307.449 436.362Z" fill="#42A5F5"/>
<path d="M328.109 448.291V452.571L314.73 460.402V456.214L328.109 448.291Z" fill="#1E88E5"/>
<path d="M314.639 456.214V460.402L301.169 452.571V448.291L314.639 456.214Z" fill="#1565C0"/>
<path d="M328.109 448.291L314.639 456.123L301.169 448.291L314.639 440.46L328.109 448.291Z" fill="#42A5F5"/>
<path d="M348.769 460.311V464.591L335.299 472.422V468.143L348.769 460.311Z" fill="#1E88E5"/>
<path d="M335.39 468.143V472.422L321.92 464.591V460.311L335.39 468.143Z" fill="#1565C0"/>
<path d="M348.769 460.311L335.299 468.143L321.829 460.311L335.299 452.48L348.769 460.311Z" fill="#42A5F5"/>
<path d="M369.43 472.331V476.611L355.96 484.442V480.163L369.43 472.331Z" fill="#1E88E5"/>
<path d="M356.051 480.163V484.442L342.58 476.611V472.331L356.051 480.163Z" fill="#1565C0"/>
<path d="M369.43 472.331L356.051 480.163L342.489 472.331L355.96 464.5L369.43 472.331Z" fill="#42A5F5"/>
<path d="M390.09 484.26V488.54L376.62 496.371V492.092L390.09 484.26Z" fill="#1E88E5"/>
<path d="M376.711 492.092V496.371L363.15 488.54V484.26L376.711 492.092Z" fill="#1565C0"/>
<path d="M390.09 484.26L376.62 492.092L363.15 484.26L376.62 476.429L390.09 484.26Z" fill="#42A5F5"/>
<path d="M410.842 496.28V500.56L397.371 508.391V504.111L410.842 496.28Z" fill="#1E88E5"/>
<path d="M397.371 504.111V508.391L383.901 500.56V496.28L397.371 504.111Z" fill="#1565C0"/>
<path d="M410.842 496.28L397.371 504.112L383.901 496.28L397.28 488.449L410.842 496.28Z" fill="#42A5F5"/>
<path d="M431.502 508.209V512.489L418.032 520.32V516.04L431.502 508.209Z" fill="#1E88E5"/>
<path d="M418.032 516.04V520.32L404.562 512.489V508.209L418.032 516.04Z" fill="#1565C0"/>
<path d="M431.502 508.209L418.032 516.04L404.562 508.209L418.032 500.378L431.502 508.209Z" fill="#42A5F5"/>
<path d="M204.966 399.938V404.218L191.495 412.049V407.769L204.966 399.938Z" fill="#1E88E5"/>
<path d="M191.495 407.769V412.049L178.025 404.218V399.938L191.495 407.769Z" fill="#1565C0"/>
<path d="M204.966 399.938L191.495 407.769L178.025 399.938L191.495 392.107L204.966 399.938Z" fill="#42A5F5"/>
<path d="M225.626 411.958V416.147L212.156 423.978V419.698L225.626 411.958Z" fill="#1E88E5"/>
<path d="M212.247 419.789V424.069L198.777 416.238V412.049L212.247 419.789Z" fill="#1565C0"/>
<path d="M225.626 411.958L212.156 419.789L198.686 411.958L212.065 404.127L225.626 411.958Z" fill="#42A5F5"/>
<path d="M246.286 423.887V428.167L232.816 435.998V431.718L246.286 423.887Z" fill="#1E88E5"/>
<path d="M232.907 431.718V435.998L219.437 428.167V423.887L232.907 431.718Z" fill="#1565C0"/>
<path d="M246.286 423.887L232.907 431.718L219.346 423.887L232.816 416.056L246.286 423.887Z" fill="#42A5F5"/>
<path d="M267.038 435.907V440.187L253.568 448.018V443.829L267.038 435.907Z" fill="#1E88E5"/>
<path d="M253.568 443.738V447.927L240.006 440.096V435.816L253.568 443.738Z" fill="#1565C0"/>
<path d="M267.038 435.907L253.568 443.738L240.098 435.907L253.568 428.076L267.038 435.907Z" fill="#42A5F5"/>
<path d="M287.698 447.927V452.207L274.319 460.038V455.758L287.698 447.927Z" fill="#1E88E5"/>
<path d="M274.228 455.758V460.038L260.667 452.207V447.927L274.228 455.758Z" fill="#1565C0"/>
<path d="M287.698 447.927L274.228 455.758L260.758 447.927L274.228 440.096L287.698 447.927Z" fill="#42A5F5"/>
<path d="M308.359 459.856V464.136L294.889 471.967V467.687L308.359 459.856Z" fill="#1E88E5"/>
<path d="M294.889 467.687V471.967L281.418 464.136V459.856L294.889 467.687Z" fill="#1565C0"/>
<path d="M308.359 459.856L294.889 467.687L281.418 459.856L294.889 452.025L308.359 459.856Z" fill="#42A5F5"/>
<path d="M329.019 471.785V476.065L315.64 483.896V479.707L329.019 471.785Z" fill="#1E88E5"/>
<path d="M315.549 479.707V483.896L302.079 476.065V471.785L315.549 479.707Z" fill="#1565C0"/>
<path d="M329.019 471.785L315.549 479.616L302.079 471.785L315.549 463.954L329.019 471.785Z" fill="#42A5F5"/>
<path d="M349.68 483.805V488.085L336.209 495.916V491.636L349.68 483.805Z" fill="#1E88E5"/>
<path d="M336.3 491.636V495.916L322.83 488.085V483.805L336.3 491.636Z" fill="#1565C0"/>
<path d="M349.68 483.805L336.209 491.636L322.648 483.805L336.118 475.974L349.68 483.805Z" fill="#42A5F5"/>
<path d="M370.34 495.825V500.105L356.87 507.936V503.656L370.34 495.825Z" fill="#1E88E5"/>
<path d="M356.961 503.656V507.936L343.49 500.105V495.825L356.961 503.656Z" fill="#1565C0"/>
<path d="M370.34 495.825L356.961 503.656L343.399 495.825L356.87 487.994L370.34 495.825Z" fill="#42A5F5"/>
<path d="M391.091 507.754V512.034L377.621 519.865V515.585L391.091 507.754Z" fill="#1E88E5"/>
<path d="M377.621 515.585V519.865L364.06 512.034V507.754L377.621 515.585Z" fill="#1565C0"/>
<path d="M391.091 507.754L377.621 515.585L364.151 507.754L377.621 499.923L391.091 507.754Z" fill="#42A5F5"/>
<path d="M411.752 519.774V524.054L398.282 531.885V527.605L411.752 519.774Z" fill="#1E88E5"/>
<path d="M398.282 527.605V531.885L384.811 524.054V519.774L398.282 527.605Z" fill="#1565C0"/>
<path d="M411.752 519.774L398.282 527.605L384.811 519.774L398.191 511.943L411.752 519.774Z" fill="#42A5F5"/>
<path d="M185.215 411.503V415.783L171.745 423.614V419.334L185.215 411.503Z" fill="#1E88E5"/>
<path d="M171.836 419.334V423.614L158.366 415.783V411.503L171.836 419.334Z" fill="#1565C0"/>
<path d="M185.215 411.503L171.836 419.334L158.366 411.503L171.745 403.672L185.215 411.503Z" fill="#42A5F5"/>
<path d="M205.876 423.432V427.712L192.406 435.543V431.263L205.876 423.432Z" fill="#1E88E5"/>
<path d="M192.497 431.263V435.543L178.935 427.712V423.432L192.497 431.263Z" fill="#1565C0"/>
<path d="M205.876 423.432L192.406 431.263L178.935 423.432L192.406 415.601L205.876 423.432Z" fill="#42A5F5"/>
<path d="M226.536 435.452V439.732L213.066 447.563V443.283L226.536 435.452Z" fill="#1E88E5"/>
<path d="M213.157 443.283V447.563L199.687 439.732V435.452L213.157 443.283Z" fill="#1565C0"/>
<path d="M226.536 435.452L213.066 443.283L199.596 435.452L212.975 427.621L226.536 435.452Z" fill="#42A5F5"/>
<path d="M247.197 447.381V451.661L233.726 459.492V455.212L247.197 447.381Z" fill="#1E88E5"/>
<path d="M233.817 455.212V459.492L220.256 451.661V447.381L233.817 455.212Z" fill="#1565C0"/>
<path d="M247.197 447.381L233.817 455.212L220.256 447.381L233.726 439.55L247.197 447.381Z" fill="#42A5F5"/>
<path d="M267.948 459.401V463.681L254.478 471.512V467.232L267.948 459.401Z" fill="#1E88E5"/>
<path d="M254.478 467.232V471.512L240.917 463.681V459.401L254.478 467.232Z" fill="#1565C0"/>
<path d="M267.948 459.401L254.478 467.232L241.008 459.401L254.478 451.57L267.948 459.401Z" fill="#42A5F5"/>
<path d="M288.609 471.421V475.701L275.138 483.532V479.252L288.609 471.421Z" fill="#1E88E5"/>
<path d="M275.138 479.252V483.532L261.668 475.701V471.421L275.138 479.252Z" fill="#1565C0"/>
<path d="M288.609 471.421L275.229 479.252L261.759 471.421L275.138 463.59L288.609 471.421Z" fill="#42A5F5"/>
<path d="M309.269 483.35V487.63L295.799 495.461V491.181L309.269 483.35Z" fill="#1E88E5"/>
<path d="M295.799 491.181V495.461L282.328 487.63V483.35L295.799 491.181Z" fill="#1565C0"/>
<path d="M309.269 483.35L295.799 491.181L282.328 483.35L295.799 475.518L309.269 483.35Z" fill="#42A5F5"/>
<path d="M329.929 495.279V499.558L316.55 507.39V503.201L329.929 495.279Z" fill="#1E88E5"/>
<path d="M316.55 503.201V507.39L302.989 499.558V495.279L316.55 503.201Z" fill="#1565C0"/>
<path d="M329.929 495.279L316.459 503.11L302.989 495.279L316.368 487.447L329.929 495.279Z" fill="#42A5F5"/>
<path d="M350.681 507.299V511.578L337.21 519.41V515.13L350.681 507.299Z" fill="#1E88E5"/>
<path d="M337.21 515.13V519.41L323.74 511.578V507.299L337.21 515.13Z" fill="#1565C0"/>
<path d="M350.681 507.299L337.21 515.13L323.649 507.299L337.119 499.467L350.681 507.299Z" fill="#42A5F5"/>
<path d="M371.341 519.319V523.599L357.871 531.43V527.15L371.341 519.319Z" fill="#1E88E5"/>
<path d="M357.871 527.15V531.43L344.401 523.599V519.319L357.871 527.15Z" fill="#1565C0"/>
<path d="M371.341 519.319L357.962 527.15L344.401 519.319L357.871 511.487L371.341 519.319Z" fill="#42A5F5"/>
<path d="M392.001 531.248V535.527L378.531 543.359V539.17L392.001 531.248Z" fill="#1E88E5"/>
<path d="M378.531 539.079V543.268L365.061 535.436V531.156L378.531 539.079Z" fill="#1565C0"/>
<path d="M392.002 531.248L378.531 539.079L365.061 531.248L378.531 523.416L392.002 531.248Z" fill="#42A5F5"/>
<path d="M229.085 463.681C230.814 462.679 232.634 461.677 234.455 460.858C235.092 460.585 235.729 460.311 236.366 460.038C237.458 459.583 238.55 459.037 239.642 458.581C239.824 458.49 240.098 458.399 240.28 458.399C240.735 458.217 241.099 458.126 241.554 457.944C243.01 457.397 244.557 456.851 246.013 456.396C246.56 456.214 247.015 456.123 247.561 455.94C247.925 455.849 248.289 455.758 248.562 455.667C250.018 455.212 251.565 454.848 253.113 454.483C253.386 454.392 253.75 454.301 254.114 454.301C254.842 454.119 255.57 453.937 256.298 453.846C256.935 453.755 257.572 453.664 258.118 453.573C259.393 453.3 260.758 453.118 262.032 452.844C262.578 452.753 263.033 452.662 263.579 452.571C264.125 452.48 264.763 452.48 265.309 452.389C266.583 452.207 267.766 452.116 269.04 451.934C269.586 451.843 270.223 451.752 270.77 451.752C271.316 451.661 271.862 451.661 272.408 451.661C273.682 451.57 274.956 451.478 276.23 451.478C276.868 451.478 277.505 451.387 278.142 451.387C278.688 451.387 279.143 451.387 279.689 451.387C281.054 451.387 282.419 451.387 283.785 451.387C284.513 451.387 285.15 451.387 285.787 451.387C286.515 451.387 287.152 451.478 287.789 451.478C288.153 451.478 288.517 451.478 288.882 451.57C290.611 451.661 292.249 451.752 293.978 451.934C294.251 451.934 294.615 452.025 294.889 452.025C295.435 452.116 295.89 452.116 296.345 452.207C298.074 452.389 299.803 452.662 301.442 452.935C301.897 453.026 302.261 453.027 302.716 453.118C302.898 453.118 303.171 453.209 303.353 453.209C304.172 453.391 304.9 453.573 305.719 453.755C307.085 454.028 308.45 454.301 309.815 454.666C310.816 454.939 311.726 455.212 312.727 455.485C314.002 455.849 315.276 456.214 316.55 456.578C316.823 456.669 317.096 456.76 317.369 456.851C318.916 457.306 320.373 457.853 321.829 458.399C322.011 458.49 322.193 458.581 322.375 458.672C324.013 459.31 325.561 460.038 327.199 460.676C327.654 460.858 328.109 461.131 328.564 461.313C330.293 462.133 331.932 463.043 333.57 463.954C333.843 464.136 334.207 464.318 334.48 464.5C334.753 464.682 335.026 464.864 335.299 465.047C335.754 465.32 336.209 465.593 336.664 465.866C337.028 466.139 337.484 466.412 337.848 466.686C338.303 466.959 338.667 467.232 339.122 467.596C339.486 467.869 339.85 468.143 340.214 468.416C340.578 468.689 341.033 468.962 341.397 469.326C341.761 469.6 342.125 469.873 342.398 470.146C342.762 470.419 343.126 470.783 343.491 471.056C343.673 471.148 343.764 471.33 343.946 471.421C344.037 471.512 344.219 471.694 344.31 471.785C344.856 472.331 345.402 472.878 345.948 473.424C346.13 473.606 346.312 473.788 346.494 473.97C347.222 474.699 347.768 475.427 348.405 476.247L348.496 476.338C348.678 476.52 348.769 476.702 348.86 476.884C349.224 477.34 349.589 477.795 349.953 478.341C350.135 478.615 350.317 478.888 350.499 479.161C350.772 479.616 351.045 480.072 351.318 480.527C351.409 480.618 351.5 480.709 351.5 480.891C351.591 481.073 351.682 481.255 351.773 481.437C351.955 481.802 352.137 482.166 352.319 482.53C352.501 482.803 352.592 483.168 352.774 483.441C352.956 483.805 353.047 484.169 353.229 484.533C353.32 484.716 353.411 484.807 353.411 484.989C353.502 485.171 353.502 485.262 353.593 485.444C353.684 485.808 353.866 486.173 353.957 486.537C354.048 486.81 354.139 487.174 354.23 487.539C354.321 487.903 354.412 488.267 354.503 488.631C354.594 488.813 354.594 488.995 354.685 489.178C354.685 489.269 354.776 489.451 354.776 489.542C354.867 489.906 354.867 490.27 354.958 490.635C355.049 490.908 355.049 491.272 355.049 491.636C355.14 492 355.14 492.365 355.14 492.729C355.14 492.911 355.231 493.184 355.231 493.366C355.231 493.548 355.231 493.822 355.231 494.004L355.322 510.668C355.322 510.213 355.322 509.757 355.231 509.393C355.231 509.029 355.14 508.665 355.14 508.3C355.14 508.027 355.049 507.663 355.049 507.299C354.958 506.934 354.958 506.57 354.867 506.206C354.776 505.933 354.776 505.568 354.685 505.204C354.594 504.84 354.503 504.476 354.412 504.111C354.321 503.838 354.23 503.474 354.139 503.11C354.048 502.746 353.957 502.381 353.775 502.017C353.684 501.744 353.502 501.38 353.411 501.107C353.229 500.742 353.138 500.378 352.956 500.014C352.774 499.741 352.683 499.376 352.501 499.103C352.319 498.739 352.137 498.375 351.955 498.01C351.773 497.737 351.682 497.464 351.5 497.1C351.227 496.645 350.954 496.189 350.681 495.734C350.499 495.461 350.317 495.188 350.135 494.914C349.771 494.459 349.407 493.913 349.042 493.457C348.86 493.275 348.769 493.093 348.587 492.911C347.95 492.183 347.313 491.363 346.676 490.635C346.494 490.452 346.312 490.27 346.13 490.088C345.584 489.542 345.038 488.995 344.492 488.449C344.219 488.176 343.946 487.903 343.673 487.721C343.309 487.447 342.944 487.083 342.58 486.81C342.216 486.537 341.852 486.264 341.579 485.99C341.215 485.717 340.851 485.353 340.396 485.08C340.032 484.807 339.668 484.533 339.304 484.26C338.849 483.987 338.485 483.714 338.03 483.35C337.666 483.076 337.211 482.803 336.846 482.53C336.391 482.257 335.936 481.984 335.481 481.711C334.935 481.346 334.389 480.982 333.752 480.618C332.114 479.707 330.475 478.797 328.746 477.977C328.291 477.795 327.836 477.522 327.381 477.34C325.834 476.611 324.195 475.974 322.557 475.245C322.375 475.154 322.193 475.063 322.011 474.972C320.282 474.335 318.461 473.697 316.732 473.151C315.458 472.787 314.184 472.422 312.909 472.058C311.908 471.785 310.998 471.512 309.997 471.239C308.632 470.965 307.267 470.692 305.901 470.328C304.9 470.146 303.899 469.873 302.898 469.691C302.443 469.6 302.079 469.508 301.624 469.508C299.985 469.235 298.256 468.962 296.527 468.78C296.072 468.689 295.526 468.689 295.071 468.598C293.068 468.416 291.066 468.234 289.064 468.052C288.7 468.052 288.335 467.96 287.971 467.96C286.606 467.869 285.332 467.869 283.967 467.869C282.602 467.869 281.236 467.869 279.871 467.869C278.779 467.869 277.596 467.96 276.504 467.96C275.229 468.052 273.955 468.051 272.681 468.143C271.498 468.234 270.405 468.325 269.222 468.416C267.948 468.507 266.765 468.689 265.491 468.871C264.399 469.053 263.306 469.144 262.214 469.326C260.94 469.508 259.575 469.782 258.301 470.055C256.935 470.328 255.57 470.601 254.296 470.874C254.023 470.965 253.659 471.056 253.295 471.056C251.383 471.512 249.563 471.967 247.743 472.514C247.197 472.696 246.742 472.787 246.196 472.969C244.648 473.424 243.192 473.97 241.736 474.517C241.281 474.699 240.826 474.79 240.462 474.972C239.096 475.518 237.822 476.065 236.548 476.611C235.911 476.884 235.274 477.158 234.637 477.431C232.816 478.341 230.996 479.252 229.267 480.254C214.704 488.722 207.423 499.832 207.423 510.85L207.332 494.186C207.241 483.259 214.522 472.149 229.085 463.681Z" fill="#7B1FA2"/>
<path d="M189.22 496.007C189.22 496.462 189.311 496.918 189.311 497.373C189.402 497.828 189.402 498.193 189.493 498.557C189.584 499.012 189.584 499.467 189.675 499.923C189.766 500.378 189.857 500.742 189.948 501.107C190.039 501.562 190.13 502.017 190.221 502.472C190.312 502.928 190.403 503.292 190.585 503.656C190.767 504.111 190.858 504.567 191.04 505.022C191.222 505.386 191.313 505.842 191.495 506.206C191.677 506.661 191.86 507.117 192.042 507.572C192.224 507.936 192.406 508.391 192.588 508.756C192.77 509.211 193.043 509.666 193.316 510.122C193.498 510.486 193.771 510.85 193.953 511.214C194.226 511.761 194.59 512.307 194.954 512.853C195.136 513.127 195.409 513.491 195.591 513.855C196.046 514.492 196.501 515.039 196.865 515.676C197.047 515.949 197.229 516.131 197.411 516.405C198.14 517.315 198.959 518.317 199.778 519.228C199.96 519.501 200.233 519.683 200.506 519.956C201.143 520.685 201.871 521.322 202.599 522.05C202.872 522.324 203.236 522.688 203.6 522.961C204.056 523.325 204.511 523.781 204.875 524.145C205.33 524.509 205.694 524.873 206.149 525.238C206.604 525.602 207.059 525.966 207.605 526.33C208.06 526.695 208.515 527.059 208.97 527.332C209.516 527.696 209.972 528.06 210.518 528.425C210.973 528.789 211.519 529.153 211.974 529.426C212.52 529.791 213.066 530.155 213.612 530.519C214.34 530.974 214.977 531.43 215.796 531.885C217.162 532.705 218.618 533.433 219.983 534.161C220.438 534.344 220.802 534.617 221.257 534.799C222.35 535.345 223.533 535.892 224.625 536.347C224.989 536.529 225.444 536.711 225.808 536.893C227.355 537.531 228.812 538.168 230.359 538.806C230.632 538.897 230.905 538.988 231.178 539.079C232.452 539.534 233.817 539.989 235.183 540.536C235.729 540.718 236.275 540.9 236.821 541.082C237.549 541.355 238.277 541.537 239.096 541.811C239.733 541.993 240.371 542.175 241.008 542.357C241.736 542.539 242.555 542.812 243.283 542.994C243.92 543.176 244.557 543.268 245.194 543.45C246.013 543.632 246.742 543.814 247.561 543.996C248.198 544.178 248.835 544.269 249.472 544.451C250.291 544.633 251.019 544.725 251.838 544.907C252.476 544.998 253.113 545.18 253.659 545.271C255.388 545.544 257.117 545.817 258.847 546.09C259.029 546.09 259.302 546.181 259.575 546.181C261.122 546.364 262.669 546.546 264.216 546.728C264.763 546.819 265.4 546.819 265.946 546.91C266.947 547.001 267.948 547.092 268.949 547.183C269.586 547.274 270.223 547.274 270.77 547.274C271.862 547.365 272.863 547.365 273.864 547.456C274.41 547.456 275.047 547.547 275.593 547.547C276.503 547.547 277.414 547.638 278.324 547.638C278.961 547.638 279.598 547.638 280.235 547.638C281.236 547.638 282.146 547.638 283.148 547.638C283.694 547.638 284.24 547.638 284.786 547.638C285.696 547.638 286.606 547.547 287.516 547.547C288.062 547.547 288.699 547.456 289.337 547.456C290.338 547.365 291.339 547.365 292.249 547.274C292.795 547.183 293.25 547.183 293.796 547.183C295.162 547.092 296.527 546.91 297.801 546.819C297.892 546.819 298.074 546.819 298.165 546.728C299.621 546.546 301.078 546.364 302.625 546.181C302.898 546.09 303.262 546.09 303.626 545.999C304.809 545.817 305.901 545.635 307.085 545.453C307.631 545.362 308.177 545.271 308.723 545.18C309.633 544.998 310.543 544.816 311.544 544.633C312.09 544.542 312.545 544.451 313.091 544.269C314.093 544.087 315.185 543.814 316.186 543.541C316.732 543.359 317.369 543.268 317.915 543.085C318.825 542.812 319.736 542.63 320.737 542.357C321.283 542.175 321.829 542.084 322.284 541.902C323.74 541.446 325.196 540.991 326.653 540.536C326.926 540.445 327.108 540.354 327.381 540.354C329.019 539.807 330.657 539.17 332.205 538.532C332.569 538.441 332.933 538.259 333.206 538.077C335.299 537.258 337.301 536.347 339.304 535.436C339.486 535.345 339.668 535.254 339.941 535.163C342.034 534.162 344.037 533.069 345.948 531.976C353.866 527.332 360.055 522.141 364.515 516.587C365.789 515.039 366.972 513.4 367.883 511.761C368.884 510.122 369.703 508.391 370.431 506.752C371.159 505.022 371.705 503.383 372.069 501.653C372.251 500.833 372.433 499.923 372.615 499.103C372.888 497.373 373.07 495.643 373.07 493.913L373.161 510.577C373.252 524.418 364.151 538.168 346.039 548.731C344.128 549.824 342.125 550.917 340.032 551.918C339.85 552.009 339.668 552.1 339.395 552.192C337.393 553.102 335.39 554.013 333.297 554.832C333.115 554.923 332.933 555.014 332.751 555.105C332.569 555.196 332.478 555.196 332.296 555.288C330.657 555.925 329.11 556.471 327.381 557.109C327.108 557.2 326.926 557.291 326.653 557.291C325.196 557.746 323.74 558.201 322.284 558.657C322.011 558.748 321.829 558.839 321.556 558.839C321.283 558.93 321.01 559.021 320.646 559.021C319.736 559.294 318.825 559.567 317.824 559.75C317.278 559.932 316.641 560.023 316.095 560.205C315.094 560.478 314.093 560.66 313 560.933C312.636 561.024 312.181 561.115 311.817 561.206C311.726 561.206 311.635 561.298 311.453 561.298C310.543 561.48 309.633 561.662 308.632 561.844C308.086 561.935 307.54 562.026 306.993 562.117C305.81 562.299 304.718 562.481 303.535 562.663C303.262 562.755 302.898 562.754 302.625 562.846H302.534C301.078 563.028 299.621 563.21 298.074 563.392C297.983 563.392 297.983 563.392 297.983 563.392C296.527 563.574 295.071 563.665 293.705 563.847H293.614C293.159 563.938 292.704 563.938 292.158 563.938C291.157 564.029 290.156 564.12 289.155 564.12C288.517 564.12 287.971 564.211 287.334 564.211C286.424 564.303 285.514 564.303 284.695 564.303C284.604 564.303 284.513 564.303 284.513 564.303C284.058 564.303 283.512 564.303 283.057 564.303C282.055 564.303 281.145 564.303 280.144 564.303C279.507 564.303 278.87 564.303 278.233 564.303C277.323 564.303 276.412 564.303 275.502 564.211C275.32 564.211 275.138 564.211 274.956 564.211C274.501 564.211 274.137 564.12 273.682 564.12C272.59 564.029 271.589 564.029 270.587 563.938C269.95 563.847 269.313 563.847 268.767 563.847C267.766 563.756 266.765 563.665 265.764 563.574C265.4 563.574 265.036 563.483 264.672 563.483C264.398 563.483 264.216 563.392 263.943 563.392C262.396 563.21 260.849 563.028 259.302 562.846C259.12 562.846 258.847 562.755 258.665 562.755C256.935 562.481 255.206 562.208 253.477 561.935C253.295 561.935 253.113 561.844 253.022 561.844C252.567 561.753 252.111 561.662 251.656 561.571C250.837 561.389 250.018 561.298 249.199 561.115C248.562 560.933 247.925 560.842 247.288 560.66C246.469 560.478 245.74 560.296 244.921 560.114C244.284 559.932 243.647 559.841 243.01 559.658C242.282 559.476 241.463 559.294 240.735 559.021C240.097 558.839 239.46 558.657 238.823 558.475C238.095 558.293 237.367 558.019 236.548 557.746C236.184 557.655 235.911 557.564 235.547 557.473C235.365 557.382 235.092 557.291 234.819 557.2C233.453 556.745 232.088 556.289 230.814 555.743C230.541 555.652 230.268 555.561 229.995 555.47C228.448 554.923 226.9 554.286 225.444 553.557C225.08 553.375 224.625 553.193 224.261 553.011C223.078 552.465 221.985 551.918 220.893 551.372C220.438 551.19 220.074 550.917 219.619 550.735C218.163 550.006 216.798 549.278 215.432 548.458C215.068 548.276 214.704 548.003 214.34 547.821C213.976 547.638 213.612 547.365 213.339 547.183C212.793 546.819 212.247 546.455 211.701 546.09C211.155 545.817 210.7 545.453 210.245 545.089C209.698 544.724 209.152 544.36 208.697 543.996C208.242 543.632 207.787 543.268 207.332 542.994C206.877 542.63 206.331 542.266 205.876 541.902C205.421 541.537 205.057 541.173 204.602 540.809C204.147 540.445 203.691 540.08 203.327 539.625C203.145 539.443 202.963 539.352 202.781 539.17C202.599 538.988 202.508 538.897 202.326 538.715C201.598 537.986 200.87 537.349 200.233 536.62C200.051 536.347 199.778 536.165 199.505 535.892C198.686 534.981 197.867 534.07 197.138 533.069L197.047 532.978C196.865 532.796 196.774 532.522 196.592 532.34C196.137 531.703 195.682 531.156 195.318 530.519C195.136 530.246 194.863 529.882 194.681 529.517C194.317 528.971 193.953 528.425 193.68 527.878C193.589 527.696 193.498 527.605 193.407 527.423C193.316 527.241 193.225 526.968 193.043 526.695C192.77 526.239 192.588 525.784 192.315 525.329C192.133 524.964 191.951 524.509 191.769 524.145C191.586 523.69 191.313 523.234 191.222 522.779C191.131 522.597 191.04 522.324 190.949 522.142C190.858 521.959 190.858 521.777 190.767 521.595C190.585 521.14 190.494 520.685 190.312 520.229C190.221 519.774 190.039 519.41 189.948 519.045C189.857 518.59 189.766 518.135 189.675 517.68C189.584 517.406 189.584 517.224 189.493 516.951C189.493 516.769 189.402 516.587 189.402 516.496C189.311 516.04 189.22 515.585 189.22 515.13C189.129 514.675 189.129 514.31 189.038 513.946C188.947 513.491 188.947 513.035 188.947 512.58C188.947 512.307 188.856 512.034 188.856 511.761C188.856 511.487 188.856 511.214 188.856 510.941L188.765 494.277C189.129 494.914 189.22 495.461 189.22 496.007Z" fill="#7B1FA2"/>
<path d="M216.252 456.214C180.21 477.066 180.028 511.032 215.797 531.976C251.565 552.829 310.088 552.829 346.039 531.976C382.081 511.123 382.263 477.158 346.494 456.214C310.816 435.361 252.385 435.361 216.252 456.214ZM333.388 524.509C304.445 541.264 257.481 541.264 228.721 524.509C199.96 507.754 200.142 480.436 229.085 463.681C258.027 446.925 304.991 446.925 333.752 463.681C362.513 480.527 362.331 507.754 333.388 524.509Z" fill="url(#paint1_linear)"/>
<path d="M337.848 547.73C337.848 547.638 337.848 547.638 337.848 547.547C337.848 547.456 337.848 547.365 337.848 547.274C337.848 547.183 337.848 547.092 337.848 547.001C337.848 546.91 337.848 546.819 337.848 546.728C337.848 546.637 337.848 546.546 337.939 546.364C337.939 546.273 337.939 546.273 337.939 546.273C337.939 546.182 337.939 546.182 337.939 546.09C337.939 545.999 338.03 545.908 338.03 545.726C338.03 545.635 338.121 545.544 338.121 545.362C338.121 545.271 338.212 545.18 338.212 544.998C338.212 544.907 338.303 544.816 338.303 544.633V544.542C338.303 544.451 338.394 544.36 338.394 544.269C338.394 544.178 338.485 544.087 338.485 543.996C338.576 543.905 338.576 543.814 338.576 543.723C338.667 543.632 338.667 543.541 338.667 543.359C338.758 543.268 338.758 543.177 338.758 543.085C338.758 542.994 338.758 542.994 338.849 542.994C338.849 542.903 338.94 542.903 338.94 542.812C339.031 542.721 339.031 542.63 339.122 542.539C339.213 542.448 339.213 542.357 339.304 542.175C339.395 541.993 339.486 541.811 339.577 541.72C339.577 541.629 339.668 541.628 339.668 541.537C339.759 541.355 339.85 541.173 339.941 540.991C340.123 540.809 340.214 540.536 340.396 540.263C340.487 540.172 340.578 539.989 340.669 539.898C340.76 539.807 340.851 539.716 340.942 539.534C341.033 539.443 341.124 539.352 341.215 539.261C341.306 539.17 341.397 539.079 341.488 538.988C341.579 538.897 341.67 538.806 341.761 538.715L341.852 538.623C341.943 538.532 341.943 538.532 341.943 538.441C342.034 538.35 342.125 538.259 342.216 538.168C342.307 538.077 342.398 537.986 342.489 537.895C342.58 537.804 342.671 537.713 342.762 537.622C342.853 537.531 342.944 537.531 342.944 537.44C342.944 537.44 342.944 537.44 343.035 537.44C343.126 537.349 343.217 537.258 343.309 537.258C343.4 537.167 343.491 537.075 343.582 537.075C343.673 536.984 343.764 536.984 343.855 536.893C343.946 536.802 344.037 536.802 344.128 536.711C344.219 536.711 344.219 536.62 344.31 536.62C344.401 536.62 344.401 536.529 344.401 536.529C344.492 536.438 344.583 536.438 344.674 536.347C344.765 536.256 344.856 536.256 344.947 536.256C345.038 536.165 345.129 536.165 345.22 536.165C345.311 536.165 345.402 536.074 345.493 536.074H345.584C345.675 536.074 345.675 536.074 345.766 535.983C345.857 535.983 345.948 535.892 346.039 535.892C346.13 535.892 346.221 535.801 346.312 535.801C346.403 535.801 346.494 535.801 346.585 535.71C346.676 535.71 346.767 535.71 346.767 535.71C346.767 535.71 346.767 535.71 346.858 535.71C346.949 535.71 347.04 535.71 347.131 535.71C347.222 535.71 347.313 535.71 347.495 535.71C347.586 535.71 347.768 535.71 347.859 535.801C348.041 535.801 348.132 535.892 348.314 535.892C348.496 535.983 348.678 536.074 348.769 536.074L432.503 583.698C432.23 583.516 431.866 583.425 431.593 583.334C431.229 583.243 430.865 583.243 430.501 583.243C430.137 583.243 429.773 583.334 429.318 583.516C428.863 583.698 428.499 583.881 428.043 584.063C427.588 584.336 427.133 584.609 426.769 584.973C426.314 585.338 425.95 585.702 425.586 586.066C425.222 586.521 424.858 586.886 424.494 587.432C424.221 587.796 424.039 588.16 423.766 588.525C423.675 588.707 423.584 588.889 423.493 589.071C423.22 589.526 422.947 589.982 422.765 590.528C422.492 591.074 422.31 591.621 422.127 592.167C421.945 592.713 421.854 593.26 421.763 593.806C421.672 594.353 421.581 594.899 421.581 595.354C421.581 595.901 421.672 596.356 421.672 596.811C421.763 597.267 421.854 597.631 422.036 597.995C422.036 597.995 422.036 597.995 422.036 598.086C422.219 598.359 422.31 598.632 422.492 598.906C422.583 598.997 422.583 599.088 422.674 599.088C422.856 599.361 423.129 599.543 423.402 599.634L339.668 552.009C339.395 551.827 339.122 551.645 338.94 551.463C338.849 551.372 338.849 551.281 338.758 551.281C338.667 551.19 338.576 551.099 338.485 551.008C338.394 550.826 338.303 550.735 338.212 550.552C338.212 550.552 338.212 550.552 338.212 550.461C338.121 550.37 338.121 550.279 338.121 550.188C338.03 550.097 338.03 550.006 338.03 549.824C338.03 549.733 337.939 549.642 337.939 549.46C337.939 549.369 337.939 549.369 337.848 549.278V549.186C337.848 549.095 337.848 549.004 337.757 548.913C337.757 548.822 337.757 548.731 337.757 548.64C337.757 548.549 337.757 548.458 337.757 548.367C337.757 548.276 337.757 548.185 337.757 548.094C337.848 547.821 337.848 547.73 337.848 547.73Z" fill="#AB47BC"/>
<path d="M428.134 583.972C424.585 586.066 421.581 591.165 421.581 595.354C421.581 599.543 424.403 601.273 428.043 599.179C431.593 597.084 434.597 592.076 434.597 587.796C434.597 583.607 431.684 581.877 428.134 583.972Z" fill="#7B1FA2"/>
<path opacity="0.34" d="M329.292 520.958C302.625 535.71 259.302 535.71 232.816 520.958C206.331 506.206 206.513 482.075 233.089 467.323C259.757 452.571 303.08 452.571 329.565 467.323C356.142 482.075 355.96 506.115 329.292 520.958Z" fill="white"/>
<path d="M2.27539 481.255C2.27539 481.346 2.27539 481.437 2.27539 481.528C2.27539 481.62 2.27539 481.711 2.27539 481.802C2.27539 481.893 2.36641 481.984 2.36641 482.075C2.36641 482.166 2.45742 482.257 2.45742 482.348C2.45742 482.439 2.54844 482.53 2.54844 482.621C2.63945 482.712 2.63945 482.803 2.73047 482.894C2.82148 482.985 2.82148 483.077 2.82148 483.077C2.9125 483.168 3.00351 483.259 3.00351 483.441C3.09453 483.532 3.09453 483.532 3.18554 483.623C3.27656 483.805 3.45859 483.896 3.64062 484.078C3.73163 484.169 3.73163 484.169 3.82265 484.26C3.91366 484.351 4.00468 484.442 4.09569 484.533C4.18671 484.625 4.27772 484.716 4.36874 484.716C4.45975 484.807 4.55076 484.898 4.73279 484.898C4.82381 484.989 5.00584 485.08 5.09685 485.171L102.847 542.175C103.302 542.448 103.757 542.63 104.212 542.812C104.303 542.903 104.485 542.903 104.576 542.994C104.849 543.085 105.122 543.177 105.486 543.268C105.759 543.359 106.123 543.45 106.397 543.541C106.761 543.632 107.125 543.723 107.58 543.723C107.671 543.723 107.762 543.723 107.853 543.814C108.399 543.905 108.945 543.905 109.491 543.905C109.582 543.905 109.673 543.905 109.764 543.905C110.31 543.905 110.856 543.905 111.311 543.814C111.402 543.814 111.493 543.814 111.584 543.814C112.13 543.723 112.586 543.632 113.132 543.541C113.223 543.541 113.314 543.45 113.405 543.45C113.86 543.359 114.315 543.177 114.679 542.994C114.77 542.994 114.861 542.903 114.952 542.903C115.498 542.721 115.953 542.448 116.408 542.175L161.37 516.132C163.281 515.039 164.191 513.582 164.191 512.125V517.771C164.191 519.228 163.281 520.594 161.37 521.777L116.408 547.821C115.953 548.094 115.498 548.276 115.043 548.458H114.952C114.861 548.458 114.77 548.549 114.679 548.549C114.406 548.64 114.133 548.731 113.86 548.822C113.678 548.913 113.587 548.913 113.405 548.913C113.314 548.913 113.223 549.004 113.132 549.004C113.041 549.004 112.95 549.095 112.859 549.095C112.586 549.187 112.221 549.187 111.948 549.278C111.857 549.278 111.766 549.278 111.584 549.369C111.493 549.369 111.402 549.369 111.311 549.369C111.22 549.369 111.038 549.369 110.947 549.46C110.674 549.46 110.31 549.551 110.037 549.551C109.946 549.551 109.855 549.551 109.764 549.551C109.673 549.551 109.582 549.551 109.491 549.551C109.309 549.551 109.218 549.551 109.036 549.551C108.672 549.551 108.308 549.551 107.944 549.46C107.853 549.46 107.853 549.46 107.853 549.46C107.762 549.46 107.671 549.46 107.58 549.369C107.307 549.369 107.034 549.278 106.761 549.278C106.67 549.278 106.579 549.187 106.397 549.187C106.123 549.095 105.759 549.004 105.486 548.913C105.304 548.822 105.122 548.822 104.94 548.822C104.849 548.731 104.667 548.731 104.576 548.64C104.485 548.549 104.303 548.549 104.212 548.458C103.757 548.276 103.302 548.094 102.847 547.821L5.00584 490.726C4.91482 490.726 4.91482 490.635 4.91482 490.635C4.82381 490.543 4.73279 490.543 4.64178 490.452C4.55077 490.361 4.36873 490.27 4.27772 490.27C4.1867 490.179 4.09569 490.088 4.00468 490.088C3.91366 489.997 3.82265 489.906 3.73163 489.815C3.73163 489.815 3.64062 489.815 3.64062 489.724C3.5496 489.724 3.5496 489.633 3.5496 489.633C3.36757 489.451 3.27656 489.36 3.09453 489.178L3.00351 489.087V488.995C2.9125 488.904 2.82148 488.813 2.82148 488.631C2.82148 488.54 2.73047 488.54 2.73047 488.449V488.358C2.63945 488.267 2.63945 488.176 2.54844 488.085C2.54844 487.994 2.45742 487.994 2.45742 487.903V487.812C2.45742 487.721 2.36641 487.63 2.36641 487.539C2.36641 487.447 2.27539 487.447 2.27539 487.356C2.27539 487.356 2.27539 487.356 2.27539 487.265C2.27539 487.174 2.27539 487.083 2.27539 486.992C2.27539 486.901 2.27539 486.901 2.27539 486.81V486.719V481.255Z" fill="#82B1FF"/>
<path d="M5.09681 477.249C1.3652 479.434 1.3652 482.985 5.0058 485.08L102.847 542.084C106.579 544.269 112.586 544.269 116.408 542.084L161.37 516.04C165.101 513.855 165.101 510.304 161.461 508.209L63.6194 451.205C59.8878 449.02 53.8808 449.02 50.0582 451.205L5.09681 477.249Z" fill="#263238"/>
<path d="M11.1948 480.982C9.37451 482.075 9.37451 483.805 11.1948 484.807L104.849 539.443C106.67 540.536 109.673 540.536 111.493 539.443L158.002 512.489C159.822 511.396 159.822 509.666 158.002 508.665L64.3476 454.028C62.5273 452.935 59.5238 452.935 57.7035 454.028L48.2379 459.492L48.511 461.677C48.693 462.77 47.9649 463.863 46.5996 464.682L29.5798 474.517C28.2146 475.336 26.3033 475.701 24.392 475.61L20.6604 475.427L11.1948 480.982Z" fill="url(#paint2_linear)"/>
<path d="M271.407 111.367L485.565 235.483L485.11 403.307L271.407 279.465V111.367Z" fill="url(#paint3_linear)"/>
<path d="M271.407 145.606V111.367L485.565 235.483L485.474 269.63L271.407 145.606Z" fill="url(#paint4_linear)"/>
<path d="M456.349 281.559V290.028L463.721 294.308V285.839L456.349 281.559Z" fill="#FF4081"/>
<path d="M445.609 275.367V283.836L452.982 288.116V279.647L445.609 275.367Z" fill="#FF4081"/>
<path d="M434.779 269.175V277.644L442.151 281.924V273.455L434.779 269.175Z" fill="#FF4081"/>
<path d="M424.13 262.892V271.361L431.502 275.64V267.172L424.13 262.892Z" fill="#FF4081"/>
<path d="M413.39 256.7V265.168L420.762 269.448V260.98L413.39 256.7Z" fill="#FF4081"/>
<path d="M402.65 250.508V258.976L410.022 263.256V254.788L402.65 250.508Z" fill="#FF4081"/>
<path d="M391.819 244.225V252.693L399.192 256.973V248.504L391.819 244.225Z" fill="#FF4081"/>
<path d="M381.171 238.032V246.501L388.543 250.781V242.312L381.171 238.032Z" fill="#FF4081"/>
<path d="M370.34 231.749V240.218L377.712 244.498V236.029L370.34 231.749Z" fill="#FF4081"/>
<path d="M359.6 225.557V234.026L366.972 238.306V229.837L359.6 225.557Z" fill="#FF4081"/>
<path d="M348.86 219.365V227.834L356.233 232.113V223.645L348.86 219.365Z" fill="#FF4081"/>
<path d="M338.121 213.173V221.642L345.493 225.921V217.453L338.121 213.173Z" fill="#FF4081"/>
<path d="M286.788 179.754L286.697 195.689L290.884 198.148L290.975 182.212L286.788 179.754Z" fill="#FF4081"/>
<path d="M456.258 302.048V310.517L463.63 314.797V306.328L456.258 302.048Z" fill="#E040FB"/>
<path d="M445.518 295.856V304.325L452.891 308.604V300.136L445.518 295.856Z" fill="#E040FB"/>
<path d="M434.779 289.573V298.041L442.151 302.321V293.853L434.779 289.573Z" fill="#E040FB"/>
<path d="M424.039 283.381V291.849L431.411 296.129V287.66L424.039 283.381Z" fill="#E040FB"/>
<path d="M413.299 277.188V285.657L420.671 289.937V281.468L413.299 277.188Z" fill="#E040FB"/>
<path d="M402.559 270.905V279.374L409.931 283.654V275.185L402.559 270.905Z" fill="#E040FB"/>
<path d="M391.819 264.713V273.182L399.192 277.462V268.993L391.819 264.713Z" fill="#E040FB"/>
<path d="M381.08 258.521V266.99L388.452 271.27V262.801L381.08 258.521Z" fill="#E040FB"/>
<path d="M370.34 252.238V260.706L377.712 264.986V256.518L370.34 252.238Z" fill="#E040FB"/>
<path d="M286.788 200.242L286.697 216.178L290.884 218.637L290.975 202.701L286.788 200.242Z" fill="#E040FB"/>
<path d="M456.167 322.537V331.096L463.539 335.376V326.817L456.167 322.537Z" fill="#7C4DFF"/>
<path d="M445.427 316.345V324.813L452.799 329.093V320.533L445.427 316.345Z" fill="#7C4DFF"/>
<path d="M434.688 310.061V318.53L442.06 322.81V314.25L434.688 310.061Z" fill="#7C4DFF"/>
<path d="M423.948 303.869V312.429L431.32 316.709V308.24L423.948 303.869Z" fill="#7C4DFF"/>
<path d="M413.208 297.586V306.146L420.58 310.426V301.866L413.208 297.586Z" fill="#7C4DFF"/>
<path d="M402.468 291.394V299.954L409.84 304.233V295.674L402.468 291.394Z" fill="#7C4DFF"/>
<path d="M391.728 285.202V293.67L399.101 297.95V289.482L391.728 285.202Z" fill="#7C4DFF"/>
<path d="M380.989 279.01V287.478L388.361 291.758V283.29L380.989 279.01Z" fill="#7C4DFF"/>
<path d="M370.249 272.727V281.286L377.621 285.566V277.097L370.249 272.727Z" fill="#7C4DFF"/>
<path d="M359.509 266.534V275.094L366.881 279.374V270.814L359.509 266.534Z" fill="#7C4DFF"/>
<path d="M348.769 260.251V268.811L356.142 273.091V264.531L348.769 260.251Z" fill="#7C4DFF"/>
<path d="M286.697 220.64L286.606 236.575L290.793 239.034L290.884 223.098L286.697 220.64Z" fill="#7C4DFF"/>
<path d="M286.606 241.128V257.064L290.793 259.523V243.587L286.606 241.128Z" fill="#448AFF"/>
<path d="M456.167 343.025V351.494L463.539 355.774V347.305L456.167 343.025Z" fill="#448AFF"/>
<path d="M445.336 336.742V345.211L452.708 349.491V341.022L445.336 336.742Z" fill="#448AFF"/>
<path d="M434.688 330.55V339.019L442.06 343.298V334.83L434.688 330.55Z" fill="#448AFF"/>
<path d="M423.948 324.358V332.826L431.32 337.106V328.638L423.948 324.358Z" fill="#448AFF"/>
<path d="M413.208 318.075V326.543L420.58 330.823V322.355L413.208 318.075Z" fill="#448AFF"/>
<path d="M402.468 311.883V320.351L409.84 324.631V316.162L402.468 311.883Z" fill="#448AFF"/>
<path d="M463.812 236.302C461.901 235.21 460.263 236.12 460.263 238.306C460.263 240.582 461.81 243.314 463.812 244.498C465.815 245.682 467.362 244.771 467.362 242.494C467.362 240.218 465.815 237.486 463.812 236.302Z" fill="#263238"/>
<path d="M445.518 225.739C443.607 224.646 441.969 225.557 441.969 227.743C441.969 230.019 443.516 232.751 445.518 233.935C447.521 235.118 449.068 234.208 449.068 231.931C449.068 229.655 447.521 226.832 445.518 225.739Z" fill="#263238"/>
<path d="M427.315 215.176C425.313 213.992 423.766 214.903 423.766 217.18C423.766 219.456 425.313 222.188 427.315 223.372C429.227 224.464 430.865 223.554 430.865 221.368C430.865 219.092 429.227 216.269 427.315 215.176Z" fill="#263238"/>
<path d="M208.515 209.622L302.716 264.167L302.534 338.017L208.515 283.563V209.622Z" fill="#B2EBF2"/>
<path d="M208.515 224.647V209.622L302.716 264.167V279.192L208.515 224.647Z" fill="#EA80FC"/>
<path d="M88.1025 311.154L88.1935 328.456L104.94 338.199L104.849 320.898L88.1025 311.154Z" fill="#2979FF"/>
<path d="M104.849 320.807L104.94 338.108L141.801 316.709L141.71 299.407L104.849 320.807Z" fill="#1976D2"/>
<path d="M88.1025 311.154L104.849 320.898L141.71 299.589L124.964 289.846L88.1025 311.154Z" fill="#448AFF"/>
<path d="M45.1434 364.425L45.2344 381.726L61.8902 391.47L61.7992 374.168L45.1434 364.425Z" fill="#7E57C2"/>
<path d="M61.8902 374.168L61.9812 391.47L166.284 331.096L166.193 313.795L61.8902 374.168Z" fill="#5E35B1"/>
<path d="M45.1434 364.425L61.8902 374.168L166.193 313.795L149.447 304.051L45.1434 364.425Z" fill="#7C4DFF"/>
<path d="M112.586 353.862L112.677 371.163L129.423 380.907L129.332 363.605L112.586 353.862Z" fill="#F06292"/>
<path d="M129.241 363.605L129.332 380.907L190.676 345.393L190.585 328.091L129.241 363.605Z" fill="#EC407A"/>
<path d="M112.586 353.862L129.332 363.605L190.676 328.091L173.93 318.348L112.586 353.862Z" fill="#FF80AB"/>
<path d="M439.602 152.709C439.147 152.435 438.783 152.618 438.783 153.164C438.783 153.71 439.147 154.348 439.602 154.621L445.973 158.354C446.428 158.628 446.793 158.445 446.793 157.899C446.793 157.353 446.428 156.715 445.973 156.442L439.602 152.709Z" fill="white"/>
<path d="M429.682 151.252C429.227 150.978 428.863 151.161 428.863 151.707C428.863 152.253 429.227 152.891 429.682 153.164L446.064 162.634C446.519 162.907 446.884 162.725 446.884 162.179C446.884 161.633 446.519 160.995 446.064 160.722L429.682 151.252Z" fill="white"/>
<path d="M427.861 140.598C425.95 139.505 424.403 140.415 424.403 142.51L424.312 155.896C424.312 158.081 425.859 160.722 427.77 161.815L438.692 168.189L445.336 179.116C445.518 179.389 445.7 179.572 445.882 179.663L446.246 179.754C446.519 179.754 446.701 179.572 446.701 179.207V172.924L447.703 173.47C449.614 174.563 451.161 173.653 451.161 171.467L451.252 158.081C451.252 155.896 449.705 153.255 447.885 152.162L427.861 140.598ZM426.041 156.897L426.132 143.512C426.132 142.419 426.951 141.963 427.952 142.51L447.976 154.075C448.977 154.621 449.705 155.987 449.705 157.171L449.614 170.557C449.614 171.649 448.795 172.105 447.885 171.558L446.064 170.465C445.609 170.192 445.245 170.374 445.245 170.921V176.02L439.693 167.005C439.511 166.732 439.329 166.55 439.147 166.459L427.861 159.993C426.86 159.447 426.041 158.081 426.041 156.897Z" fill="white"/>
<path d="M437.873 124.753C420.671 114.827 406.655 122.841 406.564 142.601C406.473 168.735 435.962 217.18 437.6 219.729C439.147 218.91 468.818 204.34 468.909 178.752C469 158.901 455.075 134.679 437.873 124.753ZM437.691 190.226C423.584 182.03 412.116 162.179 412.207 145.879C412.298 129.579 423.766 123.023 437.873 131.218C451.98 139.414 463.448 159.265 463.357 175.565C463.357 191.774 451.889 198.421 437.691 190.226Z" fill="#448AFF"/>
<path d="M515.418 106.45C511.14 103.991 507.682 105.995 507.591 110.912V112.096V113.006C507.591 113.553 507.955 114.19 508.41 114.463L522.335 122.477C522.79 122.75 523.154 122.568 523.154 122.021V121.111V119.927C523.154 114.918 519.696 108.908 515.418 106.45ZM509.32 113.006V111.822C509.32 107.907 512.05 106.359 515.509 108.362C518.876 110.365 521.607 115.101 521.607 118.925V120.109L509.32 113.006Z" fill="white"/>
<path d="M515.418 121.657C514.963 121.384 514.599 121.566 514.599 122.112V127.485C514.599 128.031 514.963 128.669 515.418 128.942C515.873 129.215 516.237 129.033 516.237 128.487V123.114C516.237 122.568 515.873 121.93 515.418 121.657Z" fill="white"/>
<path d="M505.679 110.912C505.224 110.639 504.86 110.821 504.86 111.367V119.472C504.86 126.21 509.502 134.314 515.327 137.684C521.152 141.053 525.885 138.321 525.885 131.674V123.478C525.885 122.932 525.521 122.294 525.065 122.021L523.154 120.928V121.839C523.154 122.385 522.79 122.568 522.335 122.294L524.246 123.387V130.581C524.246 136.227 520.242 138.503 515.327 135.68C510.412 132.857 506.498 125.937 506.498 120.291V113.097L508.41 114.19C507.955 113.917 507.591 113.279 507.591 112.733V111.822L505.679 110.912Z" fill="white"/>
<path d="M515.509 86.1433C498.307 76.2177 484.291 84.231 484.2 103.991C484.109 130.035 513.598 178.57 515.236 181.12C516.783 180.3 546.454 165.73 546.545 140.142C546.636 120.291 532.711 96.16 515.509 86.1433ZM515.327 151.616C501.219 143.42 489.752 123.569 489.843 107.269C489.934 90.9695 501.402 84.4132 515.509 92.6086C529.616 100.804 541.084 120.655 540.993 136.955C540.993 153.255 529.434 159.811 515.327 151.616Z" fill="#FF4081"/>
<path d="M357.325 38.8829C357.143 38.7918 356.87 38.7007 356.779 38.7918C356.597 38.8829 356.506 39.065 356.506 39.3382C356.506 39.6114 356.597 39.8845 356.779 40.1577C356.961 40.4309 357.143 40.613 357.325 40.7951C357.507 40.8862 357.78 40.9773 357.871 40.8862C357.962 40.7951 358.144 40.613 358.144 40.3398C358.144 40.1577 358.053 39.7935 357.871 39.5203C357.78 39.2471 357.598 39.065 357.325 38.8829Z" fill="white"/>
<path d="M363.605 42.5253C363.15 42.2521 362.786 42.4343 362.786 42.9806C362.786 43.527 363.15 44.1644 363.605 44.4376C364.06 44.7108 364.424 44.5286 364.424 43.9823C364.424 43.4359 364.06 42.7985 363.605 42.5253Z" fill="white"/>
<path d="M360.328 6.46531C343.126 -3.4603 329.11 4.55304 329.019 24.3132C328.928 50.3565 358.417 98.8918 360.055 101.442C361.602 100.622 391.273 86.0523 391.364 60.4643C391.455 40.613 377.53 16.482 360.328 6.46531ZM360.146 71.9379C346.039 63.7424 334.571 43.8912 334.662 27.5914C334.753 11.2915 346.221 4.73516 360.328 12.9306C374.436 21.1261 385.903 40.9773 385.812 57.2771C385.721 73.577 374.254 80.1333 360.146 71.9379Z" fill="#7C4DFF"/>
<path d="M369.885 46.1677C369.703 46.0767 369.43 45.9856 369.339 46.0767C369.157 46.1677 369.066 46.3498 369.066 46.623C369.066 46.8962 369.157 47.1694 369.339 47.4426C369.521 47.7157 369.703 47.8979 369.885 48.08C370.067 48.1711 370.34 48.2621 370.431 48.1711C370.613 48.08 370.704 47.8979 370.704 47.6247C370.704 47.3515 370.613 47.0783 370.431 46.8051C370.34 46.532 370.067 46.2588 369.885 46.1677Z" fill="white"/>
<path d="M373.889 39.2471V44.4376C373.889 44.984 373.525 45.1661 373.07 44.8929L372.251 44.4376L372.16 57.7324L348.132 43.7091L348.223 30.4143L347.404 29.959C346.949 29.6858 346.585 29.0483 346.585 28.502L346.494 43.7091C346.494 44.2555 346.858 44.8929 347.313 45.1661L372.979 60.009C373.434 60.2821 373.799 60.1 373.799 59.5537L373.889 39.2471Z" fill="white"/>
<path d="M347.404 22.9473C346.949 22.6741 346.585 22.8562 346.585 23.4026V28.593C346.585 29.1394 346.949 29.7768 347.404 30.05L348.223 30.5053L372.251 44.4376L373.07 44.8929C373.525 45.1661 373.889 44.9839 373.889 44.4376V39.2471C373.889 38.7008 373.525 38.0633 373.07 37.7902L347.404 22.9473ZM348.223 28.593V25.3149L372.251 39.2471V42.5253L348.223 28.593Z" fill="white"/>
<path d="M178.571 154.348V159.993L218.163 182.941V177.386L178.571 154.348Z" fill="#64FFDA"/>
<path d="M178.662 138.412V143.967L218.254 166.914V161.359L178.662 138.412Z" fill="#448AFF"/>
<path d="M178.662 122.568V128.122L218.254 151.07V145.515L178.662 122.568Z" fill="#7C4DFF"/>
<path d="M178.753 106.632V112.187L218.345 135.134V129.579L178.753 106.632Z" fill="#E040FB"/>
<path d="M198.868 31.2338L164.828 46.7141L172.473 51.1761L172.109 171.376L224.716 201.881L225.08 81.6814L232.725 86.1433L198.868 31.2338ZM178.571 159.902V154.348L218.163 177.295V182.85L178.571 159.902ZM178.662 128.122V122.568L218.254 145.515V151.07L178.662 128.122ZM178.753 112.187V106.632L218.345 129.579V135.134L178.753 112.187ZM178.662 143.967V138.412L218.254 161.359V166.914L178.662 143.967Z" fill="#263238"/>
<defs>
<linearGradient id="paint0_linear" x1="519.464" y1="455.179" x2="239.648" y2="176.283" gradientUnits="userSpaceOnUse">
<stop stop-color="#FF2ABA"/>
<stop offset="0.9892" stop-color="#448AFF"/>
</linearGradient>
<linearGradient id="paint1_linear" x1="373.317" y1="494.119" x2="189.141" y2="494.119" gradientUnits="userSpaceOnUse">
<stop offset="0.0108" stop-color="#FF8A80"/>
<stop offset="1" stop-color="#FF2ABA"/>
</linearGradient>
<linearGradient id="paint2_linear" x1="159.383" y1="496.725" x2="9.80219" y2="496.725" gradientUnits="userSpaceOnUse">
<stop stop-color="#FF2ABA"/>
<stop offset="0.9892" stop-color="#448AFF"/>
</linearGradient>
<linearGradient id="paint3_linear" x1="504.859" y1="383.466" x2="251.702" y2="131.141" gradientUnits="userSpaceOnUse">
<stop stop-color="#263238"/>
<stop offset="0.1948" stop-color="#27323C" stop-opacity="0.8052"/>
<stop offset="0.3827" stop-color="#2C3147" stop-opacity="0.6173"/>
<stop offset="0.5681" stop-color="#33305B" stop-opacity="0.4319"/>
<stop offset="0.7518" stop-color="#3E2F76" stop-opacity="0.2482"/>
<stop offset="0.9326" stop-color="#4B2E99" stop-opacity="0.0674"/>
<stop offset="1" stop-color="#512DA8" stop-opacity="0"/>
</linearGradient>
<linearGradient id="paint4_linear" x1="485.629" y1="190.472" x2="271.438" y2="190.472" gradientUnits="userSpaceOnUse">
<stop offset="0.0108" stop-color="#FF8A80"/>
<stop offset="1" stop-color="#FF2ABA"/>
</linearGradient>
</defs>
</svg>
