<svg width="90" height="80" viewBox="0 0 90 80" fill="none" xmlns="http://www.w3.org/2000/svg">
<path fill-rule="evenodd" clip-rule="evenodd" d="M12.2951 76.9633H71.5917C72.3203 76.9633 72.9101 77.5532 72.9101 78.2817C72.9101 79.0096 72.3203 79.6001 71.5917 79.6001H12.2951C5.51582 79.6001 0 74.0842 0 67.305V12.2951C0 5.51514 5.51582 0 12.2951 0H15.0039C16.7006 0 18.0801 1.38016 18.0801 3.07617V12.3349C18.0801 13.0634 17.4902 13.6533 16.7617 13.6533C16.0339 13.6533 15.4433 13.0634 15.4433 12.3349V3.07617C15.4433 2.83379 15.2463 2.63672 15.0039 2.63672H12.2951C6.96945 2.63672 2.63672 6.96945 2.63672 12.2951V59.0083C4.8896 56.1511 8.38188 54.3137 12.2944 54.3137H15.0039C15.2463 54.3137 15.4433 54.1166 15.4433 53.8742V18.0759C15.4433 17.3481 16.0339 16.7576 16.7617 16.7576C17.4902 16.7576 18.0801 17.3481 18.0801 18.0759V22.6538H28.3516C29.0801 22.6538 29.67 23.2436 29.67 23.9722C29.67 24.7 29.0801 25.2905 28.3516 25.2905H18.0801V53.8742C18.0801 55.5702 16.7006 56.9504 15.0039 56.9504H12.2944C6.96877 56.9504 2.63672 61.2824 2.63672 66.608V67.305C2.63672 72.6306 6.96945 76.9633 12.2951 76.9633ZM72.8407 22.6538H86.9238C88.6199 22.6538 90 24.0333 90 25.73V76.5239C90 78.2199 88.6199 79.6001 86.9238 79.6001H77.3328C76.6049 79.6001 76.0144 79.0096 76.0144 78.2817C76.0144 77.5532 76.6049 76.9633 77.3328 76.9633H86.9238C87.1662 76.9633 87.3633 76.7663 87.3633 76.5239V25.73C87.3633 25.4876 87.1662 25.2905 86.9238 25.2905H70.4725L58.5324 38.5826C58.0648 39.1031 57.4235 39.4093 56.7258 39.4471C56.6778 39.4498 56.6304 39.4512 56.583 39.4512C56.5494 39.4512 56.5171 39.4478 56.4841 39.4464L51.2608 42.0433C50.9615 42.1916 50.6415 42.2644 50.3243 42.2644C49.8196 42.2644 49.3211 42.0804 48.9262 41.7254C48.2822 41.1472 48.0604 40.2491 48.3604 39.4375L50.3819 33.9711C50.3703 33.8901 50.362 33.809 50.3572 33.7267C50.3201 33.029 50.5563 32.3582 51.0233 31.8384L56.9051 25.2905H34.0926C33.3648 25.2905 32.7743 24.7007 32.7743 23.9722C32.7743 23.2436 33.3648 22.6538 34.0926 22.6538H59.2733L73.7416 6.54716C74.705 5.47394 76.3625 5.38536 77.4358 6.34941L81.0523 9.59724C81.5721 10.0642 81.8791 10.7055 81.9168 11.4038C81.9539 12.1014 81.717 12.7716 81.2501 13.2921L72.8407 22.6538ZM77.7091 13.288L79.2753 11.5453L75.6896 8.3242L74.1234 10.0676L77.7091 13.288ZM73.1738 12.7586L72.3615 12.0293L52.9987 33.5845L53.811 34.3144L73.1738 12.7586ZM53.7911 37.841L52.2681 36.4725L51.3055 39.0763L53.7911 37.841ZM55.7721 36.0764L56.5844 36.8056L75.9471 15.2497L75.1355 14.5205L55.7721 36.0764ZM70.3468 36.5721C64.9615 36.5721 60.5457 40.7936 60.2298 46.1007H54.1605C53.4327 46.1007 52.8422 46.6912 52.8422 47.4191V62.4786C52.8422 63.2071 53.4327 63.7969 54.1605 63.7969H69.22C69.9486 63.7969 70.5384 63.2071 70.5384 62.4786V56.8426C76.0405 56.7396 80.4845 52.2352 80.4845 46.7097C80.4845 41.1198 75.9368 36.5721 70.3468 36.5721ZM67.9024 53.7994C65.5932 53.0008 63.7928 51.105 63.1274 48.7374H67.9024V53.7994ZM55.4789 61.1602V48.7374H60.4138C61.1938 52.5634 64.1354 55.6107 67.9024 56.5473V61.1602H55.4789ZM70.5391 54.2059V47.4191C70.5391 46.6912 69.9486 46.1007 69.2207 46.1007H62.8734C63.1844 42.2486 66.4165 39.2088 70.3475 39.2088C74.4832 39.2088 77.8484 42.5734 77.8484 46.7097C77.8477 50.7816 74.5862 54.1035 70.5391 54.2059ZM73.9263 59.0762C73.9263 58.3477 74.5161 57.7579 75.2447 57.7579H78.1773C78.9059 57.7579 79.4957 58.3477 79.4957 59.0762C79.4957 59.8041 78.9059 60.3946 78.1773 60.3946H75.2447C74.5161 60.3946 73.9263 59.8041 73.9263 59.0762ZM79.4957 62.4786C79.4957 61.7507 78.9059 61.1602 78.1773 61.1602H75.2447C74.5161 61.1602 73.9263 61.7507 73.9263 62.4786C73.9263 63.2071 74.5161 63.7969 75.2447 63.7969H78.1773C78.9059 63.7969 79.4957 63.2071 79.4957 62.4786ZM26.1914 36.0468H24.082C23.3542 36.0468 22.7637 35.457 22.7637 34.7285C22.7637 34.0006 23.3542 33.4101 24.082 33.4101H26.1914C26.9193 33.4101 27.5098 34.0006 27.5098 34.7285C27.5098 35.457 26.9193 36.0468 26.1914 36.0468ZM24.082 39.8879H34.2588C34.9873 39.8879 35.5772 39.2974 35.5772 38.5696C35.5772 37.841 34.9873 37.2512 34.2588 37.2512H24.082C23.3542 37.2512 22.7637 37.841 22.7637 38.5696C22.7637 39.2974 23.3542 39.8879 24.082 39.8879ZM34.2588 36.0468H32.1494C31.4216 36.0468 30.8311 35.457 30.8311 34.7285C30.8311 34.0006 31.4216 33.4101 32.1494 33.4101H34.2588C34.9873 33.4101 35.5772 34.0006 35.5772 34.7285C35.5772 35.457 34.9873 36.0468 34.2588 36.0468ZM42.3262 33.4101H40.2168C39.489 33.4101 38.8985 34.0006 38.8985 34.7285C38.8985 35.457 39.489 36.0468 40.2168 36.0468H42.3262C43.0547 36.0468 43.6446 35.457 43.6446 34.7285C43.6446 34.0006 43.0547 33.4101 42.3262 33.4101ZM34.2588 43.7002H24.082C23.3542 43.7002 22.7637 43.1097 22.7637 42.3818C22.7637 41.6533 23.3542 41.0635 24.082 41.0635H34.2588C34.9873 41.0635 35.5772 41.6533 35.5772 42.3818C35.5772 43.1097 34.9873 43.7002 34.2588 43.7002ZM22.7637 46.1934C22.7637 46.9219 23.3542 47.5117 24.082 47.5117H40.2168C40.9454 47.5117 41.5352 46.9219 41.5352 46.1934C41.5352 45.4655 40.9454 44.875 40.2168 44.875H24.082C23.3542 44.875 22.7637 45.4655 22.7637 46.1934ZM42.3262 48.6873C43.0547 48.6873 43.6446 49.2778 43.6446 50.0056C43.6446 50.7342 43.0547 51.324 42.3262 51.324H24.082C23.3542 51.324 22.7637 50.7342 22.7637 50.0056C22.7637 49.2778 23.3542 48.6873 24.082 48.6873H42.3262ZM29.0334 56.1477C29.0334 55.4192 28.4429 54.8293 27.7151 54.8293H24.082C23.3542 54.8293 22.7637 55.4192 22.7637 56.1477V59.78C22.7637 60.5086 23.3542 61.0984 24.082 61.0984H27.7151C28.4429 61.0984 29.0334 60.5086 29.0334 59.78V56.1477ZM26.3967 58.4624H25.4004V57.466H26.3967V58.4624ZM36.4314 54.8293C37.1592 54.8293 37.7497 55.4192 37.7497 56.1477V59.78C37.7497 60.5086 37.1592 61.0984 36.4314 61.0984H32.7983C32.0705 61.0984 31.4799 60.5086 31.4799 59.78V56.1477C31.4799 55.4192 32.0705 54.8293 32.7983 54.8293H36.4314ZM34.1167 58.4624H35.113V57.466H34.1167V58.4624ZM46.4667 56.1477C46.4667 55.4192 45.8762 54.8293 45.1483 54.8293H41.5153C40.7867 54.8293 40.1969 55.4192 40.1969 56.1477V59.78C40.1969 60.5086 40.7867 61.0984 41.5153 61.0984H45.1483C45.8762 61.0984 46.4667 60.5086 46.4667 59.78V56.1477ZM43.83 58.4624H42.8336V57.466H43.83V58.4624ZM24.082 64.0874H27.7151C28.4429 64.0874 29.0334 64.6772 29.0334 65.4057V69.0381C29.0334 69.7666 28.4429 70.3564 27.7151 70.3564H24.082C23.3542 70.3564 22.7637 69.7666 22.7637 69.0381V65.4057C22.7637 64.6772 23.3542 64.0874 24.082 64.0874ZM25.4004 67.7197H26.3967V66.7234H25.4004V67.7197ZM36.4314 64.0874H32.7983C32.0705 64.0874 31.4799 64.6772 31.4799 65.4057V69.0381C31.4799 69.7666 32.0705 70.3564 32.7983 70.3564H36.4314C37.1592 70.3564 37.7497 69.7666 37.7497 69.0381V65.4057C37.7497 64.6772 37.1592 64.0874 36.4314 64.0874ZM35.113 67.7197H34.1167V66.7234H35.113V67.7197ZM45.1483 70.3564H41.5153C40.7867 70.3564 40.1969 69.7666 40.1969 69.0381V65.405C40.1969 64.6772 40.7867 64.0867 41.5153 64.0867H45.1483C45.8762 64.0867 46.4667 64.6772 46.4667 65.405V69.0381C46.4667 69.7666 45.8762 70.3564 45.1483 70.3564ZM43.83 66.7241H42.8336V67.7197H43.83V66.7241Z" fill="url(#paint0_linear)"/>
<defs>
<linearGradient id="paint0_linear" x1="45" y1="79.6001" x2="45" y2="0" gradientUnits="userSpaceOnUse">
<stop stop-color="#82B1FF"/>
<stop offset="1" stop-color="#A6A7CF"/>
</linearGradient>
</defs>
</svg>
