<svg width="90" height="90" viewBox="0 0 90 90" fill="none" xmlns="http://www.w3.org/2000/svg">
<path d="M74.5312 25.3125H77.3438C77.3438 32.2903 71.6667 37.9688 64.6875 37.9688V35.1562C70.1142 35.1562 74.5312 30.7406 74.5312 25.3125ZM74.2205 22.8516L76.9458 22.1484C76.6786 21.1134 76.2792 20.115 75.7603 19.1812L73.3022 20.5467C73.7044 21.2709 74.0137 22.0472 74.2205 22.8516ZM82.9688 25.3125C82.9688 35.3925 74.7675 43.5938 64.6875 43.5938C54.6075 43.5938 46.4062 35.3925 46.4062 25.3125C46.4062 15.2325 54.6075 7.03125 64.6875 7.03125C74.7675 7.03125 82.9688 15.2325 82.9688 25.3125ZM80.1562 25.3125C80.1562 16.7836 73.2164 9.84375 64.6875 9.84375C56.1586 9.84375 49.2188 16.7836 49.2188 25.3125C49.2188 33.8414 56.1586 40.7812 64.6875 40.7812C73.2164 40.7812 80.1562 33.8414 80.1562 25.3125ZM88.5938 25.3125C88.5938 38.4947 77.8697 49.2188 64.6875 49.2188C60.0441 49.2188 55.7198 47.8673 52.0467 45.5667L48.3947 49.2188L49.8009 50.625L46.9153 53.5106C47.4806 54.6736 47.9742 55.8591 48.3258 57.0769L52.0312 57.9487V68.6137L48.3258 69.4856C47.8589 71.1155 47.2078 72.6848 46.3838 74.1712L48.3891 77.4098L40.8473 84.9516L37.6087 82.9463C36.1223 83.7703 34.553 84.4214 32.9231 84.8883L32.0513 88.5938H21.3862L20.5144 84.8883C18.8845 84.4214 17.3152 83.7703 15.8287 82.9463L12.5902 84.9516L5.04844 77.4098L7.05375 74.1712C6.22969 72.6848 5.57859 71.1155 5.11172 69.4856L1.40625 68.6137V57.9487L5.11172 57.0769C5.57859 55.447 6.22969 53.8777 7.05375 52.3913L5.04844 49.1527L12.5902 41.6123L15.8287 43.6163C17.3137 42.7922 18.8831 42.1411 20.5144 41.6742L21.3862 37.9688H32.0513L32.9231 41.6742C34.1381 42.0258 35.325 42.518 36.488 43.0847L39.375 40.1991L40.7798 41.6039L44.4291 37.9448C42.1312 34.2745 40.7812 29.9531 40.7812 25.3125C40.7812 12.1303 51.5053 1.40625 64.6875 1.40625C77.8697 1.40625 88.5938 12.1303 88.5938 25.3125ZM39.375 44.1759L22.4283 61.1227C21.5677 61.9833 21.0938 63.1294 21.0938 64.3472C21.0938 66.8616 23.1384 68.9062 25.6528 68.9062C26.8706 68.9062 28.0167 68.4323 28.8773 67.5717L45.8241 50.625L39.375 44.1759ZM40.3861 60.0398L30.8658 69.5602C29.4736 70.9523 27.623 71.7188 25.6528 71.7188C21.5888 71.7188 18.2812 68.4112 18.2812 64.3472C18.2812 62.3784 19.0477 60.5264 20.4398 59.1342L29.9602 49.6139C28.9013 49.3608 27.8184 49.2188 26.7188 49.2188C18.9647 49.2188 12.6562 55.5272 12.6562 63.2812C12.6562 71.0353 18.9647 77.3438 26.7188 77.3438C34.4728 77.3438 40.7812 71.0353 40.7812 63.2812C40.7812 62.1816 40.6392 61.0988 40.3861 60.0398ZM44.8102 55.6158L42.6488 57.7772C43.2633 59.5519 43.5938 61.3955 43.5938 63.2812C43.5938 72.5864 36.0239 80.1562 26.7188 80.1562C17.4136 80.1562 9.84375 72.5864 9.84375 63.2812C9.84375 53.9761 17.4136 46.4062 26.7188 46.4062C28.6045 46.4062 30.4481 46.7367 32.2228 47.3512L34.3856 45.1884C33.4111 44.7708 32.4183 44.4263 31.4142 44.1802L30.5775 43.9748L29.8237 40.7812H23.6138L22.8614 43.9762L22.0247 44.1816C20.0883 44.6555 18.2419 45.4219 16.5347 46.4569L15.7992 46.9041L13.0064 45.1758L8.61469 49.5675L10.343 52.3603L9.89578 53.0958C8.86078 54.8044 8.09438 56.6494 7.62188 58.5844L7.41656 59.4225L4.21875 60.1763V66.3863L7.41516 67.1386L7.62047 67.9767C8.09297 69.9117 8.85937 71.7567 9.89437 73.4653L10.3416 74.2008L8.61328 76.9936L13.005 81.3853L15.7978 79.657L16.5333 80.1042C18.2419 81.1392 20.0869 81.9056 22.0219 82.3781L22.86 82.5834L23.6138 85.7812H29.8237L30.5761 82.5848L31.4142 82.3795C33.3492 81.907 35.1942 81.1406 36.9028 80.1056L37.6383 79.6584L40.4311 81.3867L44.8228 76.995L43.0945 74.2022L43.5417 73.4667C44.5767 71.7581 45.3431 69.9131 45.8156 67.9781L46.0209 67.14L49.2188 66.3863V60.1763L46.0238 59.4239L45.8184 58.5872C45.5709 57.5817 45.2264 56.5889 44.8102 55.6158ZM49.7152 43.9214C48.375 42.84 47.1544 41.6194 46.0744 40.2778L42.7697 43.5923L46.4062 47.2303L49.7152 43.9214ZM85.7812 25.3125C85.7812 13.6814 76.3186 4.21875 64.6875 4.21875C53.0564 4.21875 43.5938 13.6814 43.5938 25.3125C43.5938 36.9436 53.0564 46.4062 64.6875 46.4062C76.3186 46.4062 85.7812 36.9436 85.7812 25.3125ZM25.3125 66.0938C26.0888 66.0938 26.7188 65.4638 26.7188 64.6875C26.7188 63.9113 26.0888 63.2812 25.3125 63.2812C24.5362 63.2812 23.9062 63.9113 23.9062 64.6875C23.9062 65.4638 24.5362 66.0938 25.3125 66.0938ZM26.3067 22.088L32.9259 15.4688L26.3067 8.84953L24.3183 10.838L28.9491 15.4688L24.3183 20.0995L26.3067 22.088ZM15.0567 20.0995L10.4259 15.4688L15.0567 10.838L13.0683 8.84953L6.44906 15.4688L13.0683 22.088L15.0567 20.0995ZM22.4803 7.26328L19.7058 6.80062L16.8933 23.6756L19.6678 24.1383L22.4803 7.26328ZM1.40625 25.3125V5.625C1.40625 3.29906 3.29906 1.40625 5.625 1.40625H33.75C36.0759 1.40625 37.9688 3.29906 37.9688 5.625V25.3125C37.9688 27.6384 36.0759 29.5312 33.75 29.5312H25.3125V36.3783L15.0427 29.5312H5.625C3.29906 29.5312 1.40625 27.6384 1.40625 25.3125ZM4.21875 25.3125C4.21875 26.0873 4.84875 26.7188 5.625 26.7188H15.8948L22.5 31.1217V26.7188H33.75C34.5262 26.7188 35.1562 26.0873 35.1562 25.3125V5.625C35.1562 4.85016 34.5262 4.21875 33.75 4.21875H5.625C4.84875 4.21875 4.21875 4.85016 4.21875 5.625V25.3125Z" fill="url(#paint0_linear)"/>
<defs>
<linearGradient id="paint0_linear" x1="45" y1="88.5938" x2="45" y2="1.40625" gradientUnits="userSpaceOnUse">
<stop stop-color="#82B1FF"/>
<stop offset="1" stop-color="#A6A7CF"/>
</linearGradient>
</defs>
</svg>
