<svg width="50" height="50" viewBox="0 0 50 50" fill="none" xmlns="http://www.w3.org/2000/svg">
<g clip-path="url(#clip0)">
<path d="M35.0777 0.822266H14.006C6.32873 0.822266 0.039856 7.11114 0.039856 14.7884V35.8601C0.039856 43.5374 6.32873 49.8262 14.006 49.8262H35.0777C42.755 49.8262 49.0438 43.5374 49.0438 35.8601V14.7884C49.0438 7.11114 42.755 0.822266 35.0777 0.822266ZM47.4103 35.8601C47.4103 42.639 41.8565 48.1928 35.0777 48.1928H14.006C7.22707 48.1928 1.67335 42.6389 1.67335 35.8601V14.7884C1.67335 8.00948 7.22717 2.45576 14.006 2.45576H35.0777C41.8566 2.45576 47.4103 8.00958 47.4103 14.7884V35.8601Z" fill="white"/>
<path d="M35.0777 5.72266H14.006C9.02394 5.72266 4.94025 9.80635 4.94025 14.7884V35.8601C4.94025 40.8421 9.02394 44.9258 14.006 44.9258H35.0777C40.0597 44.9258 44.1434 40.8421 44.1434 35.8601V14.7884C44.1434 9.80635 40.0597 5.72266 35.0777 5.72266ZM42.5099 35.8601C42.5099 39.9438 39.1613 43.2923 35.0777 43.2923H14.006C9.92229 43.2923 6.57374 39.9437 6.57374 35.8601V14.7884C6.57374 10.7047 9.92238 7.35615 14.006 7.35615H35.0777C39.1614 7.35615 42.5099 10.7048 42.5099 14.7884V35.8601Z" fill="white"/>
<path d="M24.5418 12.2568C17.3546 12.2568 11.4742 18.1373 11.4742 25.3245C11.4742 32.5118 17.3546 38.3922 24.5418 38.3922C31.7291 38.3922 37.6095 32.5118 37.6095 25.3245C37.6095 18.1373 31.7291 12.2568 24.5418 12.2568ZM24.5418 36.7588C18.253 36.7588 13.1076 31.6134 13.1076 25.3245C13.1076 19.0357 18.253 13.8902 24.5418 13.8902C30.8307 13.8902 35.9761 19.0357 35.9761 25.3245C35.9761 31.6134 30.8307 36.7588 24.5418 36.7588Z" fill="white"/>
<path d="M24.5419 16.3398C19.5598 16.3398 15.5578 20.3418 15.5578 25.3239C15.5578 30.306 19.5597 34.308 24.5419 34.308C29.524 34.308 33.526 30.3061 33.526 25.3239C33.526 20.3418 29.5239 16.3398 24.5419 16.3398ZM24.5419 32.6745C20.4582 32.6745 17.1913 29.4076 17.1913 25.3239C17.1913 21.2402 20.4582 17.9733 24.5419 17.9733C28.6256 17.9733 31.8925 21.2402 31.8925 25.3239C31.8925 29.4076 28.6256 32.6745 24.5419 32.6745Z" fill="white"/>
<path d="M37.6095 9.80664C36.2211 9.80664 35.1593 10.8684 35.1593 12.2568C35.1593 13.6453 36.2211 14.707 37.6095 14.707C38.998 14.707 40.0597 13.6453 40.0597 12.2568C40.0597 10.8684 38.998 9.80664 37.6095 9.80664Z" fill="white"/>
</g>
<defs>
<clipPath id="clip0">
<rect width="49.004" height="49.004" fill="white" transform="translate(0.039856 0.822266)"/>
</clipPath>
</defs>
</svg>
