<svg width="50" height="28" viewBox="0 0 50 28" fill="none" xmlns="http://www.w3.org/2000/svg">
<path fill-rule="evenodd" clip-rule="evenodd" d="M1.56246 2H48.4375C49.3001 2 50 1.55195 50 1C50 0.447964 49.2999 0 48.4375 0H1.56246C0.699926 0 0 0.448047 0 1C0 1.55195 0.700056 2 1.56246 2ZM48.8438 13H14.1562C13.5179 13 13 13.448 13 14C13 14.552 13.518 15 14.1562 15H48.8438C49.4821 15 50 14.552 50 14C50 13.448 49.4821 13 48.8438 13ZM27.0909 26H48.9091C49.5113 26 50.0001 26.448 50 27C50 27.552 49.5113 28 48.9091 28H27.0909C26.4888 28 26 27.552 26 27C26 26.448 26.4887 26 27.0909 26Z" fill="url(#paint0_linear)"/>
<defs>
<linearGradient id="paint0_linear" x1="25" y1="0" x2="25" y2="28" gradientUnits="userSpaceOnUse">
<stop stop-color="#82B1FF"/>
<stop offset="1" stop-color="#A6A7CF"/>
</linearGradient>
</defs>
</svg>
