<svg width="105" height="63" viewBox="0 0 105 63" fill="none" xmlns="http://www.w3.org/2000/svg">
<g clip-path="url(#clip0)">
<path d="M29.4697 40.89V42.4157H27.8906V40.89H29.4697ZM29.4697 46.6878V62.6979H27.8906V46.6878H29.4697Z" fill="#1C1C33"/>
<path d="M33.9609 44.0839H34.9453L35.2529 46.6675H39.2109V48.0304H35.54V58.141C35.54 60.2364 36.3193 61.2942 37.8984 61.2942H39.2109V62.6572H37.9189C35.2939 62.6572 33.9609 61.2128 33.9609 58.3445V44.0839Z" fill="#1C1C33"/>
<path d="M24.6099 29.681C26.025 28.4808 27.1119 27.1178 27.8707 25.5514C28.7935 23.334 29.1421 21.1572 29.1421 18.716C29.1421 -4.12943 0.0210571 0.366428 0.0210571 0.366428V35.2348C5.96832 35.4992 18.0474 35.2144 24.6099 29.681ZM23.5845 17.7802C23.5845 31.4713 5.35309 30.4337 5.35309 30.4337V5.61499C5.35309 5.63533 23.5845 2.99071 23.5845 17.7802Z" fill="url(#paint0_linear)"/>
<path d="M23.0918 32.6509C23.8506 31.7965 24.5068 31.0031 25.1016 30.2097L25.0811 30.2301C22.1279 32.7119 18.1289 34.1563 14.2119 34.97L5.33203 44.1042L5.35254 36.0075C4.49121 36.0482 3.6709 36.0482 2.91211 36.0482C1.86621 36.0482 0.881836 36.0279 0.0410156 35.9872V62.6775H5.37305V49.8816V47.0946L17.8418 62.6775H24.4658L10.7051 45.5485L23.0918 32.6509Z" fill="url(#paint1_linear)"/>
<path d="M31.7666 27.4838C31.7666 22.2963 34.2686 19.6923 39.252 19.6923C44.2353 19.6923 46.7373 22.2963 46.7373 27.4838C46.7373 32.6713 44.2353 35.2549 39.252 35.2549C34.2686 35.2549 31.7871 32.6713 31.7666 27.4838ZM39.252 33.9326C43.1894 33.9326 45.1582 31.7559 45.1582 27.4227C45.1582 23.1507 43.1894 21.035 39.252 21.035C35.3145 21.035 33.3457 23.171 33.3457 27.4227C33.3252 31.7559 35.2939 33.9326 39.252 33.9326Z" fill="#1C1C33"/>
<path d="M63.7178 19.6923V35.2752H62.5488L62.3643 33.2816C59.7598 34.6039 57.5039 35.2752 55.5762 35.2752C52.1719 35.2752 50.4492 33.3426 50.4492 29.4774V19.6923H52.0283V29.5181C52.0283 32.4272 53.4844 33.8919 56.3965 33.8919C57.9756 33.8919 59.9033 33.2409 62.1182 31.9186V19.6923H63.7178Z" fill="#1C1C33"/>
<path d="M68.209 14.0369H69.7881V20.4246C71.7773 19.9364 73.4385 19.6923 74.792 19.6923C79.7549 19.6923 82.2363 22.1945 82.2363 27.1786C82.2363 32.5899 79.6318 35.2752 74.4023 35.2752C72.1465 35.2752 70.0752 35.0718 68.1885 34.6446V14.0369H68.209ZM69.7676 33.4443C71.4697 33.7291 72.9668 33.8715 74.2793 33.8715C78.5654 33.8715 80.7188 31.5931 80.7188 27.0565C80.7188 23.1303 78.7295 21.157 74.7715 21.157C73.3359 21.157 71.6748 21.4215 69.7676 21.9504V33.4443Z" fill="#1C1C33"/>
<path d="M87.5478 14.0369V35.2549H85.9688V14.0369H87.5478Z" fill="#1C1C33"/>
<path d="M104.631 27.8093H92.8594C92.8594 31.8779 95.2793 33.9326 100.14 33.9326C101.534 33.9326 102.908 33.7902 104.303 33.485V34.8277C102.908 35.1328 101.227 35.2752 99.2373 35.2752C93.9463 35.2752 91.3008 32.6103 91.3008 27.3007C91.3008 22.2149 93.8027 19.6923 98.8271 19.6923C103.421 19.6923 105.369 22.398 104.631 27.8093ZM92.8594 26.4259H103.154C103.4 22.8048 101.801 20.9943 98.376 20.9943C94.8691 20.9943 93.0439 22.8048 92.8594 26.4259Z" fill="#1C1C33"/>
</g>
<defs>
<linearGradient id="paint0_linear" x1="14.5931" y1="35.3201" x2="14.5931" y2="0.0291757" gradientUnits="userSpaceOnUse">
<stop offset="4.68846e-07" stop-color="#A6A7CF"/>
<stop offset="1" stop-color="#70AFC9"/>
</linearGradient>
<linearGradient id="paint1_linear" x1="12.5674" y1="62.6799" x2="12.5674" y2="30.2135" gradientUnits="userSpaceOnUse">
<stop offset="4.68846e-07" stop-color="#A6A7CF"/>
<stop offset="1" stop-color="#70AFC9"/>
</linearGradient>
<clipPath id="clip0">
<rect width="105" height="62.5962" fill="white"/>
</clipPath>
</defs>
</svg>
