<svg width="50" height="28" viewBox="0 0 50 28" fill="none" xmlns="http://www.w3.org/2000/svg">
<path d="M1.56246 2H48.4375C49.3001 2 50 1.55195 50 1C50 0.447964 49.2999 0 48.4375 0H1.56246C0.699927 0 0 0.448047 0 1C0 1.55195 0.700056 2 1.56246 2Z" fill="white"/>
<path d="M48.8438 13H14.1562C13.5179 13 13 13.448 13 14C13 14.552 13.518 15 14.1562 15H48.8438C49.4821 15 50 14.552 50 14C50 13.448 49.4821 13 48.8438 13Z" fill="white"/>
<path d="M48.9091 26H27.0909C26.4887 26 26 26.448 26 27C26 27.552 26.4888 28 27.0909 28H48.9091C49.5113 28 50 27.552 50 27C50.0001 26.448 49.5113 26 48.9091 26Z" fill="white"/>
</svg>
