<svg width="100" height="100" viewBox="0 0 100 100" fill="none" xmlns="http://www.w3.org/2000/svg">
<path d="M99.3982 86.7198L79.3809 66.7026H92.5125C93.6471 66.7026 94.5672 65.7825 94.5672 64.6479V55.4493C94.5672 51.7921 92.5602 48.5966 89.5912 46.9003C90.3172 45.8503 90.7439 44.5782 90.7439 43.2079V37.3815C90.7439 33.7921 87.8236 30.872 84.2342 30.872H81.9869C80.4605 30.872 79.0477 31.362 77.8926 32.1901C72.4342 20.7665 60.7658 12.855 47.2834 12.855C33.8773 12.855 22.2645 20.677 16.7672 31.9966C15.725 31.2878 14.4686 30.872 13.116 30.872H10.8689C6.98398 30.872 3.82324 34.0327 3.82324 37.9175V42.6722C3.82324 44.2106 4.32031 45.6347 5.16035 46.7946C2.08965 48.462 0 51.7161 0 55.4493V64.6479C0 65.7825 0.919922 66.7026 2.05469 66.7026H19.8877C26.0588 75.1558 36.0398 80.6595 47.2838 80.6595C53.1404 80.6595 58.8582 79.1569 63.9217 76.3001L86.8695 99.2483C87.2709 99.6493 87.7967 99.8501 88.3225 99.8501C88.8482 99.8501 89.374 99.6493 89.7754 99.2483L99.398 89.6257C100.201 88.8231 100.201 87.5222 99.3982 86.7198ZM81.9869 34.9813H84.2342C85.5576 34.9813 86.6346 36.0579 86.6346 37.3815V43.2079C86.6346 44.5313 85.5578 45.6083 84.2342 45.6083H81.9869C81.6994 45.6083 81.4223 45.5649 81.1596 45.4878C81.0414 42.2956 80.4803 39.2155 79.5352 36.3062C80.0607 35.5089 80.9629 34.9813 81.9869 34.9813ZM81.0531 49.7179H84.726C87.8865 49.7179 90.4576 52.2892 90.4576 55.4495V62.5933H77.2602C79.3748 58.5995 80.6611 54.2323 81.0531 49.7179ZM7.93262 37.9175C7.93262 36.2983 9.2498 34.9813 10.8689 34.9813H13.1162C13.949 34.9813 14.6836 35.4079 15.1143 36.0536C14.109 39.0677 13.517 42.2687 13.4039 45.5894C13.3094 45.6007 13.2139 45.6083 13.1162 45.6083H10.8689C9.2498 45.6083 7.93262 44.2911 7.93262 42.672V37.9175ZM4.10938 62.5931V55.4493C4.10938 52.2888 6.68066 49.7177 9.84102 49.7177H13.5121C13.9135 54.3345 15.2436 58.6888 17.315 62.5931H4.10938ZM88.3225 94.8894L65.6959 72.263C65.2992 71.8665 64.773 71.6612 64.2424 71.6612C63.8646 71.6612 63.4846 71.7649 63.1473 71.9778C58.4025 74.969 52.917 76.5499 47.2836 76.5499C30.8559 76.5499 17.4908 63.1849 17.4908 46.7571C17.4908 30.3294 30.8559 16.9644 47.2836 16.9644C63.7113 16.9644 77.0764 30.3294 77.0764 46.7571C77.0764 52.5706 75.4 58.2046 72.2283 63.0499C71.6955 63.864 71.8066 64.9399 72.4945 65.628L95.0393 88.1727L88.3225 94.8894Z" fill="white"/>
<path d="M47.2836 22.1006C33.6883 22.1006 22.6276 33.1613 22.6276 46.7566C22.6276 60.352 33.6883 71.4127 47.2836 71.4127C60.8789 71.4127 71.9397 60.352 71.9397 46.7566C71.9397 33.1613 60.8789 22.1006 47.2836 22.1006ZM47.2836 67.3035C41.0717 67.3035 35.4953 64.5324 31.7244 60.1617C32.2061 56.2658 35.7324 54.1977 39.6815 53.6736L45.5502 62.8938C45.9274 63.4863 46.5813 63.8451 47.2836 63.8451C47.9862 63.8451 48.6399 63.4863 49.017 62.8938L54.8858 53.6736C58.8348 54.1977 62.3614 56.2658 62.843 60.1617C59.0719 64.5322 53.4955 67.3035 47.2836 67.3035ZM47.9514 49.4279H46.6158C43.3158 49.4279 41.8387 46.6156 41.8387 43.8289V40.2332C41.8387 37.4465 43.3158 34.6342 46.6158 34.6342H47.9514C51.2514 34.6342 52.7285 37.4465 52.7285 40.2332V43.8289C52.7285 46.6156 51.2514 49.4279 47.9514 49.4279ZM50.1014 53.5371L47.2836 57.9637L44.466 53.5371H50.1014ZM55.257 49.5721C56.2631 47.9951 56.8379 46.0311 56.8379 43.8289V40.2332C56.8379 34.6078 53.1006 30.5248 47.9514 30.5248H46.6158C41.4666 30.5248 37.7293 34.6076 37.7293 40.2332V43.8289C37.7293 46.0311 38.3041 47.9951 39.3102 49.5721C34.4735 50.1516 30.7323 52.4637 28.8684 55.8623C27.5051 53.1162 26.7369 50.0248 26.7369 46.7568C26.7369 35.4271 35.9541 26.2102 47.2836 26.2102C58.6133 26.2102 67.8303 35.4271 67.8303 46.7568C67.8303 50.0248 67.0621 53.1164 65.6988 55.8623C63.8348 52.4635 60.0938 50.1514 55.257 49.5721Z" fill="white"/>
<path d="M47.2836 8.16367C48.4181 8.16367 49.3383 7.24355 49.3383 6.10898V2.20508C49.3383 1.07051 48.4181 0.150391 47.2836 0.150391C46.1488 0.150391 45.2289 1.07051 45.2289 2.20508V6.10898C45.2289 7.24355 46.1488 8.16367 47.2836 8.16367Z" fill="white"/>
<path d="M65.6558 13.0864C65.9795 13.2731 66.3326 13.3622 66.681 13.3622C67.3912 13.3622 68.0818 12.9936 68.4625 12.3345L70.4144 8.9534C70.982 7.97059 70.6451 6.71394 69.6625 6.14676C68.6793 5.57918 67.4228 5.91629 66.8558 6.89871L64.9039 10.2798C64.3363 11.2626 64.6732 12.5192 65.6558 13.0864Z" fill="white"/>
<path d="M26.1047 12.3341C26.4851 12.9933 27.1757 13.3619 27.8859 13.3619C28.2343 13.3619 28.5879 13.2728 28.9113 13.0861C29.8941 12.5187 30.2308 11.2621 29.6632 10.2794L27.7113 6.89839C27.1437 5.91558 25.8873 5.57867 24.9047 6.14644C23.9218 6.71382 23.5851 7.97046 24.1527 8.95308L26.1047 12.3341Z" fill="white"/>
</svg>
