<svg width="100" height="100" viewBox="0 0 100 100" fill="none" xmlns="http://www.w3.org/2000/svg">
<path d="M17.1875 64.0625H32.8125C35.3969 64.0625 37.5 61.9594 37.5 59.375C37.5 56.7906 35.3969 54.6875 32.8125 54.6875H17.1875C14.6031 54.6875 12.5 56.7906 12.5 59.375C12.5 61.9594 14.6031 64.0625 17.1875 64.0625ZM17.1875 57.8125H32.8125C33.675 57.8125 34.375 58.5125 34.375 59.375C34.375 60.2375 33.675 60.9375 32.8125 60.9375H17.1875C16.325 60.9375 15.625 60.2375 15.625 59.375C15.625 58.5125 16.325 57.8125 17.1875 57.8125Z" fill="white"/>
<path d="M93.75 35.9375C96.3344 35.9375 98.4375 33.8344 98.4375 31.25V6.25C98.4375 3.66562 96.3344 1.5625 93.75 1.5625H82.8125C81.3438 1.5625 79.9422 2.26406 79.0641 3.4375L75.7812 7.8125H62.5C59.9156 7.8125 57.8125 9.91562 57.8125 12.5V18.75H43.6703C42.8719 9.14219 34.8125 1.5625 25 1.5625C14.6609 1.5625 6.25 9.97344 6.25 20.3125C6.25 30.1234 13.8281 38.1844 23.4375 38.9828V48.4719C10.8656 48.825 1.5625 53.3875 1.5625 59.375V89.0625C1.5625 95.1516 13.6391 98.4375 25 98.4375C36.3609 98.4375 48.4375 95.1516 48.4375 89.0625V79.6875H57.8922C58.6953 90.1578 67.4531 98.4375 78.125 98.4375C89.325 98.4375 98.4375 89.325 98.4375 78.125C98.4375 67.4531 90.1578 58.6953 79.6875 57.8922V35.9375H93.75ZM93.75 32.8125H62.5C61.6375 32.8125 60.9375 32.1109 60.9375 31.25V17.1875H95.3125V31.25C95.3125 32.1109 94.6125 32.8125 93.75 32.8125ZM62.5 10.9375H77.3438L81.5641 5.31094C81.8562 4.92031 82.3234 4.6875 82.8125 4.6875H93.75C94.6125 4.6875 95.3125 5.38906 95.3125 6.25V14.0625H60.9375V12.5C60.9375 11.6391 61.6375 10.9375 62.5 10.9375ZM9.375 20.3125C9.375 18.6797 9.62969 17.1062 10.0953 15.625H16.0969C15.8078 17.0844 15.625 18.6406 15.625 20.3125C15.625 21.9844 15.8078 23.5406 16.0984 25H10.0953C9.62969 23.5187 9.375 21.9453 9.375 20.3125ZM18.75 20.3125C18.75 18.6266 18.9656 17.0688 19.3031 15.625H30.7031C31.0375 17.0672 31.25 18.625 31.25 20.3125C31.25 21.9984 31.0344 23.5562 30.6969 25H19.2969C18.9625 23.5578 18.75 22 18.75 20.3125ZM25.0031 5.26719C26.2172 6.50156 28.2906 8.96562 29.7188 12.5H20.2906C21.7219 8.975 23.7938 6.50625 25.0031 5.26719ZM29.7094 28.125C28.2781 31.6516 26.2063 34.1203 24.9969 35.3578C23.7828 34.1234 21.7094 31.6594 20.2812 28.125H29.7094ZM33.0734 28.125H38.5109C36.4766 31.6281 33.1281 34.2641 29.1391 35.3641C30.5063 33.6016 32.0234 31.1797 33.0734 28.125ZM40.625 20.3125C40.625 21.9453 40.3719 23.5187 39.9047 25H33.9031C34.1922 23.5406 34.375 21.9844 34.375 20.3125C34.375 18.6406 34.1922 17.0844 33.9016 15.625H39.9031C40.3719 17.1062 40.625 18.6797 40.625 20.3125ZM38.5109 12.5H33.0734C32.0234 9.44531 30.5063 7.02344 29.1391 5.26094C33.1281 6.36094 36.4766 8.99687 38.5109 12.5ZM20.8609 5.26094C19.4937 7.02344 17.9766 9.44531 16.9266 12.5H11.4891C13.5234 8.99687 16.8719 6.36094 20.8609 5.26094ZM11.4891 28.125H16.9266C17.9766 31.1797 19.4937 33.6016 20.8609 35.3641C16.8719 34.2641 13.5234 31.6281 11.4891 28.125ZM25 51.5625C36.9703 51.5625 45.3125 55.6797 45.3125 59.375C45.3125 63.0703 36.9703 67.1875 25 67.1875C13.0297 67.1875 4.6875 63.0703 4.6875 59.375C4.6875 55.6797 13.0297 51.5625 25 51.5625ZM4.6875 64.9734C8.6625 68.2141 16.0906 70.3125 25 70.3125C33.9094 70.3125 41.3375 68.2141 45.3125 64.9734V70.3125C45.3125 72.8609 37.4 76.5625 25 76.5625C12.6 76.5625 4.6875 72.8609 4.6875 70.3125V64.9734ZM4.6875 75.1672C9.01094 78.1281 17.1734 79.6875 25 79.6875C32.8266 79.6875 40.9891 78.1281 45.3125 75.1672V79.6875C45.3125 82.2359 37.4 85.9375 25 85.9375C12.6 85.9375 4.6875 82.2359 4.6875 79.6875V75.1672ZM25 95.3125C12.6 95.3125 4.6875 91.6109 4.6875 89.0625V84.5422C9.01094 87.5031 17.1734 89.0625 25 89.0625C32.8266 89.0625 40.9891 87.5031 45.3125 84.5422V89.0625C45.3125 91.6109 37.4 95.3125 25 95.3125ZM66.1719 90.45C67.6016 85.9234 71.7406 82.8125 76.5625 82.8125H79.6875C84.5125 82.8125 88.6516 85.9234 90.0781 90.45C86.9813 93.4531 82.7688 95.3125 78.125 95.3125C73.4812 95.3125 69.2687 93.4531 66.1719 90.45ZM78.125 79.6875C74.6781 79.6875 71.875 76.8844 71.875 73.4375C71.875 69.9906 74.6781 67.1875 78.125 67.1875C81.5719 67.1875 84.375 69.9906 84.375 73.4375C84.375 76.8844 81.5719 79.6875 78.125 79.6875ZM95.3125 78.125C95.3125 81.6719 94.2312 84.9703 92.3844 87.7109C90.7672 84.2828 87.8531 81.6828 84.3141 80.4625C86.2625 78.7422 87.5 76.2344 87.5 73.4375C87.5 68.2672 83.2953 64.0625 78.125 64.0625C72.9547 64.0625 68.75 68.2672 68.75 73.4375C68.75 76.2344 69.9875 78.7422 71.9375 80.4625C68.3984 81.6844 65.4859 84.2844 63.8672 87.7109C62.0187 84.9703 60.9375 81.6719 60.9375 78.125C60.9375 68.6484 68.6484 60.9375 78.125 60.9375C87.6016 60.9375 95.3125 68.6484 95.3125 78.125ZM76.5625 57.8922C66.6094 58.6547 58.6547 66.6094 57.8922 76.5625H48.4375V59.375C48.4375 53.3875 39.1344 48.825 26.5625 48.4719V38.9828C35.6547 38.2266 42.9156 30.9672 43.6703 21.875H57.8125V31.25C57.8125 33.8344 59.9156 35.9375 62.5 35.9375H76.5625V57.8922Z" fill="white"/>
<path d="M89.0625 7.8125H92.1875V10.9375H89.0625V7.8125Z" fill="white"/>
<path d="M82.8125 7.8125H85.9375V10.9375H82.8125V7.8125Z" fill="white"/>
<path d="M64.0625 26.5625H67.1875V29.6875H64.0625V26.5625Z" fill="white"/>
<path d="M70.3125 26.5625H73.4375V29.6875H70.3125V26.5625Z" fill="white"/>
<path d="M76.5625 26.5625H79.6875V29.6875H76.5625V26.5625Z" fill="white"/>
<path d="M26.5625 18.75H29.6875V21.875H26.5625V18.75Z" fill="white"/>
<path d="M20.3125 18.75H23.4375V21.875H20.3125V18.75Z" fill="white"/>
</svg>
