<svg width="100" height="100" viewBox="0 0 100 100" fill="none" xmlns="http://www.w3.org/2000/svg">
<g clip-path="url(#clip0)">
<path d="M88.7097 66.129H83.0228C84.0466 64.7776 84.6774 63.1127 84.6774 61.2903C84.6774 59.5112 83.2307 58.0645 81.4516 58.0645H79.0323V54.0401C91.0432 51.1278 100 40.3131 100 27.4194C100 12.3 87.7 0 72.5806 0C57.4613 0 45.1613 12.3 45.1613 27.4194C45.1613 40.3131 54.1181 51.1278 66.129 54.0401V58.0645H64.4256C63.182 58.0645 61.9338 58.3598 60.8194 58.9143L50.6419 64.005C49.9724 64.3405 49.2243 64.5161 48.4777 64.5161H40.3226V61.2903H19.3548V64.5161H30.6452V75.8064H33.871V64.5161H37.0968V90.3226H33.871V79.0323H30.6452V90.3226H19.3548V93.5484H40.3226V90.3226H48.4777C49.2243 90.3226 49.9724 90.4982 50.6419 90.8321L57.5951 94.31C58.7079 94.866 59.9562 95.1613 61.1998 95.1613H66.129V100H79.0323V95.1613H88.7097C91.3771 95.1613 93.5484 92.99 93.5484 90.3226C93.5484 89.079 93.0633 87.9552 92.2907 87.0968C93.0648 86.2383 93.5484 85.1145 93.5484 83.871C93.5484 82.6274 93.0633 81.5036 92.2907 80.6452C93.0648 79.7867 93.5484 78.6629 93.5484 77.4194C93.5484 76.1758 93.0633 75.052 92.2907 74.1936C93.0648 73.3351 93.5484 72.2113 93.5484 70.9677C93.5484 68.3003 91.3771 66.129 88.7097 66.129ZM90.3226 70.9677C90.3226 71.8577 89.598 72.5806 88.7097 72.5806H77.4194C76.531 72.5806 75.8065 71.8577 75.8065 70.9677C75.8065 70.0778 76.531 69.3548 77.4194 69.3548H88.7097C89.598 69.3548 90.3226 70.0778 90.3226 70.9677ZM90.3226 77.4194C90.3226 78.3093 89.598 79.0323 88.7097 79.0323H77.4194C76.531 79.0323 75.8065 78.3093 75.8065 77.4194C75.8065 76.5294 76.531 75.8064 77.4194 75.8064H88.7097C89.598 75.8064 90.3226 76.5294 90.3226 77.4194ZM90.3226 83.871C90.3226 84.7609 89.598 85.4839 88.7097 85.4839H77.4194C76.531 85.4839 75.8065 84.7609 75.8065 83.871C75.8065 82.981 76.531 82.2581 77.4194 82.2581H88.7097C89.598 82.2581 90.3226 82.981 90.3226 83.871ZM48.3871 27.4194C48.3871 14.079 59.2403 3.22581 72.5806 3.22581C85.921 3.22581 96.7742 14.079 96.7742 27.4194C96.7742 40.7597 85.921 51.6129 72.5806 51.6129C59.2403 51.6129 48.3871 40.7597 48.3871 27.4194ZM69.3548 54.6324C70.4149 54.7568 71.4867 54.8387 72.5806 54.8387C73.6746 54.8387 74.7464 54.7568 75.8065 54.6324V58.0645H69.3548V54.6324ZM61.1998 91.9355C60.4532 91.9355 59.705 91.7599 59.0356 91.4259L52.0823 87.9481C50.9695 87.3921 49.7212 87.0968 48.4777 87.0968H40.3226V67.7419H48.4777C49.7212 67.7419 50.9695 67.4466 52.0839 66.8922L62.2614 61.8014C62.9308 61.4659 63.679 61.2903 64.4256 61.2903H81.4516C81.4516 63.9578 79.2803 66.129 76.6129 66.129H66.8788L62.0676 73.3485C60.8375 75.1953 59.1387 76.6932 57.1549 77.684C55.39 78.566 53.4164 79.0323 51.4452 79.0323H48.3871V82.2581H51.4452C53.9141 82.2581 56.3886 81.6745 58.5969 80.5696C61.0824 79.3276 63.2096 77.4485 64.7516 75.137L66.129 73.0697V91.9355H61.1998ZM69.3548 96.7742V69.3548H72.8776C72.6964 69.8612 72.5806 70.3999 72.5806 70.9677C72.5806 72.2113 73.0658 73.3351 73.8384 74.1936C73.0642 75.052 72.5806 76.1758 72.5806 77.4194C72.5806 78.6629 73.0658 79.7867 73.8384 80.6452C73.0642 81.5036 72.5806 82.6274 72.5806 83.871C72.5806 85.1145 73.0658 86.2383 73.8384 87.0968C73.0642 87.9552 72.5806 89.079 72.5806 90.3226C72.5806 92.4222 73.9337 94.1965 75.8065 94.8644V96.7742H69.3548ZM88.7097 91.9355H77.4194C76.531 91.9355 75.8065 91.2125 75.8065 90.3226C75.8065 89.4326 76.531 88.7097 77.4194 88.7097H88.7097C89.598 88.7097 90.3226 89.4326 90.3226 90.3226C90.3226 91.2125 89.598 91.9355 88.7097 91.9355Z" fill="white"/>
<path d="M79.6127 14.7197L78.0486 17.5392C81.6406 19.5309 83.871 23.3182 83.871 27.4198H87.0968C87.0968 22.1455 84.2293 17.2793 79.6127 14.7197Z" fill="white"/>
<path d="M72.5807 16.1291C73.5352 16.1291 74.4857 16.2488 75.4048 16.4859L76.2065 13.3601C75.026 13.0585 73.8061 12.9033 72.5807 12.9033V16.1291Z" fill="white"/>
<path d="M72.5806 9.67747C82.3628 9.67747 90.3226 17.6372 90.3226 27.4194C90.3226 31.6037 88.831 35.6674 86.1226 38.868L88.5837 40.9535C91.7858 37.1709 93.5484 32.3644 93.5484 27.4194C93.5484 15.8582 84.1419 6.45166 72.5806 6.45166C67.6356 6.45166 62.8292 8.21656 59.0466 11.418L61.1304 13.8775C64.3303 11.1691 68.3964 9.67747 72.5806 9.67747Z" fill="white"/>
<path d="M86.1147 43.4208L84.0308 40.9612C80.831 43.6696 76.7649 45.1612 72.5806 45.1612C62.7985 45.1612 54.8387 37.2015 54.8387 27.4193C54.8387 23.2351 56.3303 19.1713 59.0387 15.9707L56.5776 13.8853C53.3754 17.6679 51.6129 22.4743 51.6129 27.4193C51.6129 38.9805 61.0194 48.387 72.5806 48.387C77.5257 48.387 82.3321 46.6221 86.1147 43.4208Z" fill="white"/>
<path d="M24.4385 33.3953C25.4371 33.1181 26.3932 32.7212 27.2981 32.2101L29.2677 33.1953L33.1937 29.2678L32.2084 27.2981C32.7196 26.3916 33.1165 25.4371 33.3953 24.4385L35.4839 23.7439V18.1932L33.3969 17.4971C33.1196 16.4984 32.7227 15.54 32.21 14.6375L33.1952 12.6662L29.2693 8.74028L27.2996 9.72551C26.3955 9.21439 25.4387 8.81746 24.4401 8.54024L23.7439 6.45166H18.1916L17.497 8.54024C16.4984 8.81746 15.5423 9.21439 14.6374 9.72551L12.6662 8.74028L8.74023 12.6662L9.72546 14.6375C9.21434 15.5424 8.81741 16.4984 8.53862 17.4971L6.45161 18.1917V23.7423L8.53862 24.4385C8.81584 25.4371 9.21276 26.3932 9.72546 27.2981L8.74023 29.2678L12.6662 33.1953L14.6358 32.2101C15.5399 32.7212 16.4968 33.1181 17.4954 33.3953L18.1916 35.4839H23.7439L24.4385 33.3953ZM21.9577 30.6373L21.4174 32.2581H20.5181L19.9778 30.6373L19.0595 30.4546C17.8238 30.2081 16.6646 29.7277 15.61 29.0244L14.8304 28.5046L13.3033 29.2709L12.6662 28.6322L13.4309 27.1036L12.9111 26.3255C12.2078 25.2725 11.7274 24.1117 11.4809 22.876L11.2966 21.9577L9.67742 21.4175V20.5165L11.2966 19.9778L11.4809 19.0596C11.7274 17.8223 12.2094 16.663 12.9111 15.6101L13.4309 14.832L12.6662 13.3018L13.3033 12.6646L14.8304 13.4309L15.61 12.9111C16.663 12.2079 17.8238 11.729 19.0595 11.481L19.9778 11.2982L20.5181 9.67747H21.4174L21.9577 11.2982L22.876 11.481C24.1116 11.7275 25.2709 12.2079 26.3254 12.9111L27.1051 13.4309L28.6322 12.6646L29.2693 13.3018L28.5046 14.832L29.0244 15.6101C29.7277 16.6615 30.2081 17.8223 30.4546 19.0596L30.6389 19.9778L32.2581 20.5181V21.4191L30.6389 21.9577L30.4546 22.876C30.2081 24.1117 29.7261 25.271 29.0244 26.3255L28.5046 27.1036L29.2693 28.6322L28.6322 29.2709L27.1051 28.5046L26.3254 29.0244C25.2725 29.7277 24.1116 30.2065 22.876 30.4546L21.9577 30.6373Z" fill="white"/>
<path d="M20.9678 14.5161C17.4096 14.5161 14.5161 17.4096 14.5161 20.9677C14.5161 24.5259 17.4096 27.4193 20.9678 27.4193C24.5259 27.4193 27.4194 24.5259 27.4194 20.9677C27.4194 17.4096 24.5259 14.5161 20.9678 14.5161ZM20.9678 24.1935C19.1887 24.1935 17.7419 22.7468 17.7419 20.9677C17.7419 19.1887 19.1887 17.7419 20.9678 17.7419C22.7468 17.7419 24.1936 19.1887 24.1936 20.9677C24.1936 22.7468 22.7468 24.1935 20.9678 24.1935Z" fill="white"/>
<path d="M32.2581 50V41.9355H41.9355V0H0V41.9355H21.5049L32.2581 50ZM3.22581 3.22581H38.7097V38.7097H29.0323V43.5484L22.5806 38.7097H3.22581V3.22581Z" fill="white"/>
<path d="M0 54.8389H3.22581V58.0647H0V54.8389Z" fill="white"/>
<path d="M6.45161 54.8389H9.67742V58.0647H6.45161V54.8389Z" fill="white"/>
<path d="M12.9032 54.8389H16.129V58.0647H12.9032V54.8389Z" fill="white"/>
<path d="M6.45161 61.2905H9.67742V64.5163H6.45161V61.2905Z" fill="white"/>
<path d="M12.9032 61.2905H16.129V64.5163H12.9032V61.2905Z" fill="white"/>
<path d="M0 96.7739H3.22581V99.9997H0V96.7739Z" fill="white"/>
<path d="M6.45161 96.7739H9.67742V99.9997H6.45161V96.7739Z" fill="white"/>
<path d="M12.9032 96.7739H16.129V99.9997H12.9032V96.7739Z" fill="white"/>
<path d="M6.45161 90.3223H9.67742V93.5481H6.45161V90.3223Z" fill="white"/>
<path d="M12.9032 90.3223H16.129V93.5481H12.9032V90.3223Z" fill="white"/>
</g>
<defs>
<clipPath id="clip0">
<rect width="100" height="100" fill="white"/>
</clipPath>
</defs>
</svg>
