<svg width="100" height="100" viewBox="0 0 100 100" fill="none" xmlns="http://www.w3.org/2000/svg">
<path d="M89.4547 4.8584H24.7912C19.1794 4.8584 14.6136 9.38142 14.6136 14.9229L14.1969 71.8624H1.57752C0.683198 71.8624 0 72.6532 0 73.5475V81.3837C0 88.7194 5.87044 94.7188 12.9555 95.0477V95.1418H67.4089V95.0358C67.8138 95.0524 68.0589 95.1418 68.3372 95.1418H68.376C75.9323 95.0975 82.0233 88.9385 81.9838 81.3821V31.579H98.4225C99.3168 31.579 100 30.7693 100 29.8758V15.4978C100.01 9.65423 95.2982 4.90031 89.4547 4.8584V4.8584ZM13.664 91.9029H13.6529C7.89236 91.9029 3.23887 87.1419 3.23887 81.3821V75.1013H54.6559V81.3553C54.6432 85.0006 56.0831 88.5004 58.657 91.0814C58.9306 91.3565 59.2168 91.4981 59.5094 91.9029H13.664ZM78.7449 81.3806C78.7449 87.1419 74.1365 91.9029 68.3736 91.9029H68.3404C62.549 91.861 57.8813 87.1474 57.8947 81.3561V73.5475C57.8995 72.6405 57.1823 71.8941 56.2753 71.8624H17.4358L17.8525 14.934C17.8525 11.1677 20.9649 8.09726 24.7912 8.09726H81.809C79.9634 10.1216 78.7449 12.6828 78.7449 15.5413V81.3806ZM96.7611 15.5263V28.3402H81.9838V15.5381C81.9838 11.4848 85.3555 8.09726 89.4072 8.09726H89.4523C93.5143 8.13759 96.7801 11.4516 96.7611 15.5144V15.5263Z" fill="white"/>
<path d="M38.0274 44.7193L46.3768 50.4276C46.9216 50.8032 47.642 50.8032 48.1868 50.4276L56.5109 44.7209C59.4027 42.748 61.5385 38.6235 61.5385 35.126V23.5765C61.5558 22.9661 61.219 22.3999 60.675 22.1223L47.9623 15.8692C47.5163 15.6478 46.9928 15.6478 46.5468 15.8692L33.8578 22.1049C33.3138 22.3825 32.9778 22.9487 32.9959 23.5591V35.126C32.9959 38.6235 35.1365 42.748 38.0274 44.7193ZM36.2348 24.5697L47.2672 19.1262L58.2996 24.5847V35.126C58.2996 37.5655 56.7007 40.6683 54.6835 42.0434L47.2482 47.1287L39.8422 42.0442C37.825 40.6675 36.2348 37.5655 36.2348 35.126V24.5697Z" fill="white"/>
<path d="M44.5281 37.5711C44.8301 37.8795 45.2429 38.0542 45.6747 38.0566H45.6786C46.1088 38.055 46.5207 37.8827 46.8236 37.5774L53.2658 31.1329C53.8991 30.5003 53.8991 29.4739 53.2665 28.8413C52.6347 28.208 51.6084 28.208 50.9758 28.8406L45.6841 34.1314L43.5689 31.9956C42.9387 31.3598 41.9131 31.3551 41.2774 31.9853C40.6416 32.6155 40.6377 33.6411 41.2671 34.2769L44.5281 37.5711Z" fill="white"/>
<path d="M67.4089 55.0605H28.5425C27.6482 55.0605 26.9231 55.7857 26.9231 56.68C26.9231 57.5743 27.6482 58.2994 28.5425 58.2994H67.4089C68.3032 58.2994 69.0283 57.5743 69.0283 56.68C69.0283 55.7857 68.3032 55.0605 67.4089 55.0605Z" fill="white"/>
<path d="M67.4089 62.5508H28.5425C27.6482 62.5508 26.9231 63.2759 26.9231 64.1702C26.9231 65.0645 27.6482 65.7896 28.5425 65.7896H67.4089C68.3032 65.7896 69.0283 65.0645 69.0283 64.1702C69.0283 63.2759 68.3032 62.5508 67.4089 62.5508Z" fill="white"/>
</svg>
