<svg width="100" height="100" viewBox="0 0 100 100" fill="none" xmlns="http://www.w3.org/2000/svg">
<g clip-path="url(#clip0)">
<path d="M94.1152 24.1062C93.9798 23.2479 93.1985 22.6445 92.3339 22.7303C88.4049 23.1093 85.4656 26.5078 85.6579 30.4512L85.9536 42.541C82.721 42.8631 79.8915 44.8512 78.4932 47.7833L74.0746 57.0604C73.387 58.498 72.3854 59.7641 71.1433 60.7626L70.225 61.499C65.554 65.2252 62.952 70.9644 63.2261 76.9328L61.4207 76.0729C60.6025 75.6835 59.6233 76.0313 59.233 76.8494L54.3889 87.0216C53.9987 87.8398 54.3465 88.819 55.1646 89.2093L77.4875 99.8406C77.8801 100.028 78.3313 100.051 78.7416 99.9063C79.1519 99.7605 79.4876 99.4576 79.6743 99.0649L84.5192 88.892C84.9095 88.0738 84.5617 87.0946 83.7435 86.7051L82.7915 86.2515L82.5535 83.0694C82.4582 81.8258 82.85 80.5941 83.6458 79.6349L95.2059 65.6459C95.2291 65.6179 95.2515 65.589 95.2732 65.5586C97.6556 62.2322 98.9121 58.2304 98.8584 54.1379C98.8576 54.0602 98.8504 53.9825 98.8383 53.9063L94.1152 24.1062ZM77.417 96.1713L58.0575 86.9511L61.4912 79.7423L80.8507 88.9625L77.417 96.1713ZM92.6392 63.5985L81.1151 77.5442C79.7777 79.1565 79.119 81.2256 79.2793 83.3138L79.3778 84.6256L66.6895 78.5827C65.7872 73.0872 67.9243 67.5331 72.278 64.0601L73.1963 63.3237C74.8246 62.0143 76.1372 60.3563 77.0379 58.4716L81.4565 49.1945C82.6112 46.776 85.2284 45.4154 87.8712 45.8585L81.4124 59.4203C81.0326 60.2369 81.382 61.2065 82.1945 61.5936C83.0079 61.9814 83.9807 61.6409 84.3758 60.8315L91.6375 45.582C92.0278 44.7639 91.68 43.7846 90.8618 43.3952C90.3417 43.1476 89.7992 42.9496 89.2431 42.803L88.9386 30.351C88.9386 30.3366 88.9386 30.3222 88.937 30.3077C88.8529 28.693 89.7223 27.1777 91.1599 26.4357L95.5785 54.3022C95.5977 57.6318 94.5696 60.8844 92.64 63.5985H92.6392Z" fill="url(#paint0_linear)"/>
<path d="M40.7485 76.8488C40.3591 76.0306 39.3799 75.6829 38.5609 76.0723L36.7563 76.9322C37.0295 70.9638 34.4268 65.2246 29.7566 61.4984L28.8383 60.762C27.5962 59.7635 26.5945 58.4974 25.907 57.0598L21.4884 47.7827C20.09 44.8506 17.2605 42.8625 14.0279 42.5403L14.3236 30.4505C14.5159 26.5072 11.5766 23.1087 7.64767 22.7296C6.78302 22.6447 6.00252 23.2481 5.86629 24.1055L1.14321 53.9057C1.13119 53.9818 1.12397 54.0596 1.12317 54.1373C1.06948 58.2297 2.32598 62.2316 4.70836 65.558C4.72919 65.5884 4.75243 65.6173 4.77567 65.6453L16.3358 79.6343C17.1315 80.5935 17.5242 81.8251 17.4288 83.0688L17.1908 86.2509L16.238 86.7045C15.4198 87.0939 15.0721 88.0732 15.4623 88.8913L20.3072 99.0643C20.4939 99.457 20.8297 99.7599 21.24 99.9057C21.6503 100.051 22.1014 100.028 22.4941 99.84L44.8169 89.2087C45.6351 88.8184 45.9829 87.8392 45.5934 87.021L40.7485 76.8488ZM18.8664 77.5436L7.34156 63.5979C5.41193 60.8838 4.38462 57.6311 4.40385 54.3016L8.82163 26.435C10.2584 27.1771 11.1279 28.6916 11.0445 30.3071C11.0445 30.3215 11.0445 30.3359 11.0429 30.3504L10.7384 42.8024C10.1815 42.949 9.6398 43.1469 9.11973 43.3946C8.30156 43.784 7.95378 44.7632 8.34323 45.5814L15.6058 60.8301C15.8542 61.3654 16.371 61.7252 16.9592 61.774C17.5466 61.8221 18.1155 61.5513 18.4481 61.0649C18.7815 60.5776 18.8271 59.9494 18.5691 59.4189L12.1111 45.8579C14.7539 45.4147 17.3703 46.7754 18.5258 49.1938L22.9436 58.4709C23.8443 60.3557 25.1577 62.0136 26.786 63.323L27.7036 64.0587C32.0572 67.5325 34.1944 73.0865 33.2921 78.5821L20.6037 84.625L20.7015 83.3132C20.8617 81.2249 20.2038 79.1559 18.8664 77.5436ZM22.5646 96.1707L19.1308 88.9618L38.4904 79.7408L41.9241 86.9505L22.5646 96.1707Z" fill="url(#paint1_linear)"/>
<path d="M57.5814 50.1849V42.8694C62.9151 40.1353 66.1646 34.8344 66.1646 29.0864C66.171 24.8441 64.408 20.791 61.3012 17.903C57.9725 14.7994 53.5146 13.1991 48.9719 13.478C44.9123 13.7128 41.0859 15.4533 38.2419 18.3589C35.4244 21.1981 33.8346 25.0309 33.8161 29.0311C33.7945 34.8505 37.0672 40.1553 42.4009 42.8294V50.1849C42.3881 51.3861 42.8576 52.5424 43.7047 53.3942C44.5517 54.2468 45.7048 54.7236 46.9068 54.718H53.0747C54.2767 54.7236 55.4298 54.2468 56.2768 53.3942C57.1239 52.5424 57.5934 51.3861 57.5814 50.1849ZM37.0648 29.0432C37.0968 25.8939 38.3621 22.8825 40.5899 20.6564C42.8657 18.3333 45.926 16.9422 49.173 16.7546C49.439 16.7394 49.7043 16.7314 49.9687 16.7314C53.344 16.7194 56.5966 17.9919 59.0663 20.2909C61.5176 22.5595 62.9127 25.7465 62.9167 29.0864C62.9167 33.8864 59.9101 38.3034 55.3104 40.3396C54.7086 40.5985 54.3128 41.185 54.2991 41.8405V43.0249H45.6832V41.786C45.6687 41.1233 45.2641 40.5311 44.6518 40.2771C40.0465 38.3106 37.0479 33.9009 37.0648 29.0432ZM53.0747 51.4358H46.9068C46.5751 51.4422 46.2561 51.3115 46.0245 51.0744C45.7929 50.838 45.6695 50.5158 45.6832 50.1849V46.3072H54.2991V50.1849C54.3128 50.5158 54.1886 50.838 53.957 51.0744C53.7254 51.3115 53.4065 51.4422 53.0747 51.4358Z" fill="url(#paint2_linear)"/>
<path d="M48.35 1.64114V8.79549C48.35 9.7018 49.0849 10.4366 49.9912 10.4366C50.8975 10.4366 51.6323 9.7018 51.6323 8.79549V1.64114C51.6323 0.734827 50.8975 0 49.9912 0C49.0849 0 48.35 0.734827 48.35 1.64114Z" fill="url(#paint3_linear)"/>
<path d="M22.1719 26.8184C21.2656 26.8184 20.5308 27.5532 20.5308 28.4595C20.5308 29.3658 21.2656 30.1006 22.1719 30.1006H29.6187C30.525 30.1006 31.2599 29.3658 31.2599 28.4595C31.2599 27.5532 30.525 26.8184 29.6187 26.8184H22.1719Z" fill="url(#paint4_linear)"/>
<path d="M70.3636 30.1006H77.8104C78.7168 30.1006 79.4516 29.3658 79.4516 28.4595C79.4516 27.5532 78.7168 26.8184 77.8104 26.8184H70.3636C69.4573 26.8184 68.7225 27.5532 68.7225 28.4595C68.7225 29.3658 69.4573 30.1006 70.3636 30.1006Z" fill="url(#paint5_linear)"/>
<path d="M35.6344 16.1607C36.3059 16.1607 36.9102 15.752 37.1586 15.1278C37.4078 14.5044 37.2515 13.792 36.7651 13.3296L31.4635 8.29319C30.8064 7.66895 29.7678 7.69539 29.1436 8.35249C28.5193 9.00958 28.5458 10.0481 29.2029 10.6724L34.5045 15.7096C34.809 15.9997 35.2137 16.1615 35.6344 16.1607Z" fill="url(#paint6_linear)"/>
<path d="M70.838 8.35249C70.2138 7.69539 69.1752 7.66895 68.5181 8.29319L63.2173 13.3296C62.7854 13.7319 62.6035 14.3353 62.7397 14.909C62.8759 15.4828 63.3094 15.9396 63.876 16.1054C64.4417 16.2705 65.0532 16.1199 65.4771 15.7096L70.7787 10.6724C71.4358 10.0481 71.4631 9.00958 70.838 8.35249Z" fill="url(#paint7_linear)"/>
</g>
<defs>
<linearGradient id="paint0_linear" x1="76.5444" y1="22.7222" x2="76.5444" y2="100" gradientUnits="userSpaceOnUse">
<stop stop-color="white"/>
</linearGradient>
<linearGradient id="paint1_linear" x1="23.4373" y1="22.7217" x2="23.4373" y2="99.9998" gradientUnits="userSpaceOnUse">
<stop stop-color="white"/>
</linearGradient>
<linearGradient id="paint2_linear" x1="49.9903" y1="13.4468" x2="49.9903" y2="54.7181" gradientUnits="userSpaceOnUse">
<stop stop-color="white"/>
</linearGradient>
<linearGradient id="paint3_linear" x1="49.9912" y1="0" x2="49.9912" y2="10.4366" gradientUnits="userSpaceOnUse">
<stop stop-color="white"/>
</linearGradient>
<linearGradient id="paint4_linear" x1="25.8953" y1="26.8184" x2="25.8953" y2="30.1006" gradientUnits="userSpaceOnUse">
<stop stop-color="white"/>
</linearGradient>
<linearGradient id="paint5_linear" x1="74.087" y1="26.8184" x2="74.087" y2="30.1006" gradientUnits="userSpaceOnUse">
<stop stop-color="white"/>
</linearGradient>
<linearGradient id="paint6_linear" x1="32.984" y1="7.8418" x2="32.984" y2="16.1607" gradientUnits="userSpaceOnUse">
<stop stop-color="white"/>
</linearGradient>
<linearGradient id="paint7_linear" x1="66.9925" y1="7.8418" x2="66.9925" y2="16.1712" gradientUnits="userSpaceOnUse">
<stop stop-color="white"/>
</linearGradient>
<clipPath id="clip0">
<rect width="100" height="100" fill="white"/>
</clipPath>
</defs>
</svg>
