<svg width="100" height="100" viewBox="0 0 100 100" fill="none" xmlns="http://www.w3.org/2000/svg">
<path d="M72.713 9.91406H5.63106C2.52598 9.91406 0 12.44 0 15.5449V55.7903C0 58.8952 2.52598 61.4214 5.63106 61.4214H9.98088V76.4038C9.98088 77.3577 10.5555 78.2181 11.4371 78.5833C11.7289 78.7044 12.0356 78.763 12.3395 78.763C12.9535 78.763 13.5567 78.5232 14.008 78.072L30.6586 61.4216H33.9993C35.3022 61.4216 36.3583 60.3655 36.3583 59.0626C36.3583 57.7595 35.3018 56.7034 33.9993 56.7034C33.9993 56.7034 29.5676 56.7065 29.5213 56.7112C28.9721 56.7485 28.4331 56.9747 28.0131 57.3944L14.6989 70.7087C14.6989 70.7087 14.6948 58.9134 14.6871 58.8522C14.5807 57.6479 13.5705 56.7034 12.3387 56.7034H5.63106C5.12755 56.7034 4.71817 56.2938 4.71817 55.7905V15.5449C4.71817 15.0414 5.12774 14.632 5.63106 14.632H72.713C73.2165 14.632 73.6259 15.0416 73.6259 15.5449V30.9854C73.6259 32.2883 74.6824 33.3444 75.9849 33.3444C77.2874 33.3444 78.3439 32.2883 78.3439 30.9854V15.5449C78.3439 12.44 75.8179 9.91406 72.713 9.91406Z" fill="white"/>
<path d="M94.3691 38.7681H47.413C44.3081 38.7681 41.7819 41.294 41.7819 44.3991V71.8543C41.7819 74.9591 44.3079 77.4853 47.413 77.4853H76.8103L88.7205 89.3955C89.1719 89.8469 89.7752 90.0865 90.389 90.0865C90.6929 90.0865 90.9996 90.0277 91.2914 89.9068C92.1726 89.5416 92.7476 88.6816 92.7476 87.7273V77.4851H94.3689C97.4738 77.4851 100 74.9591 100 71.8541V44.3989C100 41.294 97.4742 38.7681 94.3691 38.7681ZM95.2822 71.8543C95.2822 72.3576 94.8727 72.7671 94.3693 72.7671H90.3896C89.1482 72.7671 88.133 73.7265 88.0398 74.9443C88.0338 74.9959 88.0299 82.0322 88.0299 82.0322L79.4646 73.4668C79.4556 73.4578 79.4462 73.4494 79.4373 73.4404C79.4037 73.4076 79.3718 73.3791 79.3418 73.3535C78.9265 72.9894 78.3841 72.767 77.7888 72.767H47.413C46.9095 72.767 46.5001 72.3574 46.5001 71.8541V44.3989C46.5001 43.8954 46.9097 43.486 47.413 43.486H94.3693C94.8727 43.486 95.2822 43.8956 95.2822 44.3989V71.8543Z" fill="white"/>
<path d="M70.8915 55.7681C69.5894 55.7681 68.5326 56.8249 68.5326 58.1271C68.5326 59.4292 69.5894 60.486 70.8915 60.486C72.1939 60.486 73.2505 59.4292 73.2505 58.1271C73.2505 56.8249 72.1937 55.7681 70.8915 55.7681Z" fill="white"/>
<path d="M60.6392 25.5103H17.7051C16.4024 25.5103 15.3461 26.5663 15.3461 27.8692C15.3461 29.1722 16.4026 30.2282 17.7051 30.2282H60.6392C61.9419 30.2282 62.9982 29.1722 62.9982 27.8692C62.9982 26.5663 61.9419 25.5103 60.6392 25.5103Z" fill="white"/>
<path d="M33.9991 41.1064H17.7051C16.4024 41.1064 15.3461 42.1625 15.3461 43.4654C15.3461 44.7684 16.4026 45.8244 17.7051 45.8244H33.9991C35.302 45.8244 36.3581 44.7684 36.3581 43.4654C36.3581 42.1625 35.3018 41.1064 33.9991 41.1064Z" fill="white"/>
<path d="M59.9292 55.7681C58.6273 55.7681 57.5702 56.8249 57.5702 58.1271C57.5702 59.4292 58.6273 60.486 59.9292 60.486C61.2316 60.486 62.2882 59.4292 62.2882 58.1271C62.2882 56.8249 61.2316 55.7681 59.9292 55.7681Z" fill="white"/>
<path d="M81.8515 55.7681C80.5494 55.7681 79.4925 56.8249 79.4925 58.1271C79.4925 59.4292 80.5494 60.486 81.8515 60.486C83.1539 60.486 84.2105 59.4292 84.2105 58.1271C84.2105 56.8249 83.1537 55.7681 81.8515 55.7681Z" fill="white"/>
</svg>
