<svg width="100" height="100" viewBox="0 0 100 100" fill="none" xmlns="http://www.w3.org/2000/svg">
<g clip-path="url(#clip0)">
<path d="M9.76562 88.2798C8.68683 88.2798 7.8125 89.1541 7.8125 90.2329V90.2344C7.8125 91.3125 8.68683 92.1868 9.76562 92.1868C10.8444 92.1868 11.7188 91.3117 11.7188 90.2329C11.7188 89.1541 10.8444 88.2798 9.76562 88.2798Z" fill="white"/>
<path d="M98.0469 0H82.4219C81.3431 0 80.4687 0.874328 80.4687 1.95312V3.9917L77.8625 3.97568C77.8587 3.97568 77.8541 3.97568 77.8503 3.97568C76.7776 3.97568 75.9041 4.84161 75.8972 5.91583C75.8903 6.99463 76.7593 7.87506 77.8381 7.88193L80.4687 7.89795V28.1616C75.3548 31.3828 70.739 29.528 65.8668 27.5658C62.6564 26.2726 59.3353 24.9359 56.0219 25.3517C54.9766 25.4829 52.1553 25.8926 49.1691 26.326C46.3394 26.7365 43.4128 27.1614 42.4065 27.2881C41.8945 27.3521 41.3841 27.2095 40.9691 26.8867C40.5456 26.5564 40.2756 26.0826 40.2099 25.5516C40.1672 25.206 40.0535 24.2867 42.5011 23.1506C47.6822 20.7481 53.2036 18.6913 57.65 17.5079C58.6922 17.2302 59.3124 16.1606 59.0347 15.1176C58.7578 14.0755 57.6881 13.456 56.6452 13.7329C51.9897 14.9719 46.2349 17.1135 40.8577 19.6075C38.987 20.475 37.8372 21.4844 37.1597 22.5021L17.5781 27.8419C15.5182 28.36 14.4615 27.5398 14.1586 26.5991C13.8611 25.6729 14.2204 24.4789 15.6936 23.8976C17.2264 23.3139 20.8847 21.7033 25.5142 19.6663C31.6498 16.9662 39.2845 13.6055 45.3728 11.1359C52.6077 8.20084 54.8126 7.75833 62.22 7.78503H62.2261C63.3018 7.78503 64.1754 6.91452 64.1792 5.83801C64.1823 4.75922 63.3102 3.88184 62.2314 3.87878C54.3304 3.85208 51.5892 4.39911 43.9049 7.51648C37.7632 10.0075 30.0995 13.3804 23.941 16.0904C19.5335 18.0305 15.7265 19.706 14.2937 20.2507C14.2876 20.253 14.2814 20.2553 14.2753 20.2576C10.6262 21.6888 9.58403 25.1328 10.44 27.7946C11.2831 30.4176 14.1823 32.7347 18.5547 31.6246C18.5661 31.6216 18.5768 31.6193 18.5882 31.6154L36.4647 26.741C36.7821 28.0182 37.513 29.1466 38.5696 29.969C39.8094 30.9341 41.3452 31.3583 42.8932 31.1638C43.9369 31.0326 46.7506 30.6236 49.7299 30.1918C52.5673 29.7798 55.5 29.3541 56.5086 29.2274C58.8165 28.9375 61.5326 30.0308 64.4073 31.189C67.4538 32.4158 70.9244 33.8142 74.6803 33.8135C76.5449 33.8135 78.4805 33.4656 80.4687 32.5836V33.2031C80.4687 34.2819 81.3431 35.1562 82.4219 35.1562H98.0469C99.1257 35.1562 100 34.2819 100 33.2031V1.95312C100 0.874328 99.1257 0 98.0469 0ZM96.0938 31.25H84.375V5.97153V5.97C84.375 5.97 84.375 5.96848 84.375 5.96771V3.90625H96.0938V31.25Z" fill="white"/>
<path d="M90.2344 11.7205C91.3132 11.7205 92.1875 10.8462 92.1875 9.76736V9.76584C92.1875 8.68781 91.3132 7.81348 90.2344 7.81348C89.1556 7.81348 88.2812 8.68857 88.2812 9.76736C88.2812 10.8462 89.1556 11.7205 90.2344 11.7205Z" fill="white"/>
<path d="M36.3281 63.6719C40.963 63.6719 45.0645 61.351 47.538 57.8125H54.7539C55.2719 57.8125 55.7686 57.6065 56.1348 57.2403L59.4688 53.9062H61.7577L65.0917 57.2403C65.4579 57.6065 65.9546 57.8125 66.4726 57.8125H69.5312C70.0493 57.8125 70.546 57.6065 70.9122 57.2403L76.7715 51.3809C77.1378 51.0147 77.3438 50.518 77.3438 50V44.1406C77.3438 43.0626 76.4694 42.1875 75.3906 42.1875H47.5388C45.0645 38.649 40.9637 36.3281 36.3281 36.3281C28.7895 36.3281 22.6562 42.4614 22.6562 50C22.6562 57.5386 28.7895 63.6719 36.3281 63.6719ZM73.4375 46.0938V49.1913L68.7225 53.9062H67.2821L63.9473 50.5722C63.5811 50.206 63.0844 50 62.5664 50H58.6601C58.1421 50 57.6454 50.206 57.2792 50.5722L53.9452 53.9062H49.4286C49.7986 52.668 50 51.3573 50 50C50 48.6427 49.7986 47.332 49.4286 46.0938H73.4375ZM36.3281 40.2344C41.713 40.2344 46.0938 44.6152 46.0938 50C46.0938 55.3848 41.713 59.7656 36.3281 59.7656C30.9433 59.7656 26.5625 55.3848 26.5625 50C26.5625 44.6152 30.9433 40.2344 36.3281 40.2344Z" fill="white"/>
<path d="M32.4219 51.9529C33.5007 51.9529 34.375 51.0778 34.375 49.999C34.375 48.9202 33.5007 48.0459 32.4219 48.0459C31.3431 48.0459 30.4688 48.9202 30.4688 49.999V50.0005C30.4688 51.0793 31.3431 51.9529 32.4219 51.9529Z" fill="white"/>
<path d="M70.0378 7.83301H70.0386C71.1174 7.83301 71.991 6.95792 71.991 5.87988C71.991 4.80109 71.1159 3.92676 70.0378 3.92676C68.959 3.92676 68.0847 4.80109 68.0847 5.87988C68.0847 6.95792 68.959 7.83301 70.0378 7.83301Z" fill="white"/>
<path d="M81.4453 68.3756C81.4339 68.3787 81.4232 68.381 81.4117 68.3848L63.5353 73.2592C63.2179 71.982 62.487 70.8536 61.4304 70.0312C60.1906 69.0661 58.6548 68.6419 57.1068 68.8364C56.0631 68.9677 53.2494 69.3766 50.2701 69.8084C47.4327 70.2204 44.5 70.6461 43.4914 70.7728C41.1842 71.0619 38.4674 69.9694 35.5927 68.8112C31.0333 66.9756 25.5226 64.757 19.5312 67.4143V66.7979C19.5312 65.7191 18.6569 64.8447 17.5781 64.8447H1.95312C0.874328 64.8447 0 65.7191 0 66.7979V98.0471C0 99.1259 0.874328 100 1.95312 100H17.5781C18.6569 100 19.5312 99.1259 19.5312 98.0471V96.0085L22.1375 96.0245H22.1497C23.2224 96.0245 24.0959 95.1586 24.1028 94.0836C24.1096 93.0056 23.2407 92.1252 22.1619 92.1183L19.5312 92.1023V71.8386C24.6452 68.6175 29.261 70.4722 34.1331 72.4337C37.3444 73.7276 40.6662 75.0643 43.9781 74.6477C45.0241 74.5165 47.8447 74.1076 50.8308 73.6742C53.6606 73.263 56.5872 72.8388 57.5935 72.7122C58.1055 72.6481 58.6159 72.79 59.0309 73.1135C59.4551 73.4438 59.7244 73.9176 59.79 74.4486C59.8328 74.7942 59.9472 75.7136 57.4989 76.8488C52.3178 79.2521 46.7972 81.309 42.3508 82.4923C41.3086 82.77 40.6883 83.8396 40.9653 84.8818C41.243 85.9247 42.3134 86.5435 43.3548 86.2673C48.0103 85.0283 53.7651 82.8867 59.1431 80.3927C61.013 79.5252 62.1628 78.5158 62.841 77.4981L82.4219 72.1583C84.481 71.6395 85.5385 72.4604 85.8414 73.4011C86.1389 74.3273 85.7796 75.5213 84.3071 76.1027C82.7751 76.6863 79.1153 78.2969 74.485 80.3347C68.3502 83.0347 60.7155 86.3947 54.6272 88.8643C47.3923 91.7994 45.1828 92.2434 37.78 92.2152C37.7785 92.2152 37.7762 92.2152 37.7739 92.2152C36.6982 92.2152 35.8246 93.0857 35.8208 94.1622C35.8177 95.241 36.6898 96.1184 37.7686 96.1214C37.928 96.1222 38.0852 96.1222 38.2408 96.1222C45.7832 96.1222 48.5664 95.5385 56.0951 92.4837C62.236 89.9927 69.9005 86.6198 76.0582 83.9098C80.4665 81.9697 84.2735 80.2943 85.7056 79.7495C85.7117 79.7472 85.7178 79.7449 85.7246 79.7426C89.3738 78.3114 90.416 74.8675 89.5599 72.2056C88.7169 69.5833 85.8177 67.2663 81.4453 68.3756ZM3.90625 96.094V68.7502H15.625V94.031V94.0333V96.094H3.90625Z" fill="white"/>
<path d="M29.9629 92.167H29.9614C28.8826 92.167 28.009 93.0421 28.009 94.1201C28.009 95.1989 28.8841 96.0732 29.9629 96.0732C31.0417 96.0732 31.916 95.1989 31.916 94.1201C31.916 93.0421 31.0417 92.167 29.9629 92.167Z" fill="white"/>
</g>
<defs>
<clipPath id="clip0">
<rect width="100" height="100" fill="white"/>
</clipPath>
</defs>
</svg>
