<svg width="58" height="58" viewBox="0 0 58 58" fill="none" xmlns="http://www.w3.org/2000/svg">
<g clip-path="url(#clip0)">
<path d="M56.42 44.6984L44.6926 36.8776C43.2044 35.8931 41.2095 36.2171 40.1092 37.622L36.6932 42.0142C36.2542 42.5931 35.4561 42.761 34.821 42.4082L34.1712 42.05C32.0171 40.8758 29.3369 39.4141 23.9367 34.0119C18.5364 28.6098 17.0717 25.9275 15.8976 23.7773L15.5413 23.1275C15.1836 22.4925 15.3484 21.6911 15.9275 21.2486L20.3167 17.8336C21.7211 16.7332 22.0455 14.7389 21.0621 13.2502L13.2413 1.52283C12.2335 0.0068698 10.2116 -0.448212 8.65137 0.489672L3.74743 3.43548C2.20658 4.34134 1.07611 5.80842 0.593086 7.52929C-1.17282 13.9636 0.155654 25.0681 16.5137 41.4281C29.5262 54.4395 39.2133 57.9387 45.8716 57.9387C47.404 57.9452 48.9304 57.7458 50.4097 57.3459C52.1309 56.8634 53.5982 55.7328 54.5035 54.1915L57.4522 49.2905C58.3915 47.73 57.9366 45.7068 56.42 44.6984ZM55.7885 48.2998L52.8465 53.2037C52.1965 54.3162 51.1412 55.1342 49.9016 55.4863C43.9617 57.1171 33.5842 55.7663 17.8798 40.0619C2.17546 24.3576 0.824813 13.981 2.45561 8.04015C2.80818 6.79914 3.62715 5.74246 4.74098 5.0914L9.64493 2.14944C10.3219 1.74211 11.1995 1.93955 11.6368 2.59739L15.8852 8.97566L19.4509 14.3237C19.8779 14.9694 19.7376 15.8349 19.1284 16.3127L14.7382 19.7278C13.4021 20.7494 13.0206 22.5979 13.8432 24.065L14.1918 24.6984C15.4258 26.9616 16.9599 29.777 22.561 35.3772C28.1621 40.9772 30.9766 42.5115 33.2388 43.7454L33.8731 44.0949C35.34 44.9174 37.1887 44.5359 38.2103 43.1999L41.6253 38.8096C42.1032 38.2008 42.9684 38.0606 43.6143 38.4872L55.3407 46.3079C55.999 46.7449 56.1964 47.6229 55.7885 48.2998Z" fill="white"/>
<path d="M32.8312 9.66231C41.8922 9.67238 49.2351 17.0153 49.2453 26.0763C49.2453 26.6096 49.6775 27.0418 50.2107 27.0418C50.744 27.0418 51.1762 26.6096 51.1762 26.0763C51.165 15.9493 42.9583 7.74241 32.8312 7.73132C32.298 7.73132 31.8657 8.16355 31.8657 8.69682C31.8657 9.23008 32.298 9.66231 32.8312 9.66231Z" fill="white"/>
<path d="M32.8312 15.4553C38.6941 15.4622 43.4452 20.2133 43.4521 26.0761C43.4521 26.6094 43.8844 27.0416 44.4176 27.0416C44.9508 27.0416 45.3831 26.6094 45.3831 26.0761C45.375 19.1472 39.7601 13.5322 32.8312 13.5243C32.298 13.5243 31.8657 13.9565 31.8657 14.4898C31.8657 15.0231 32.298 15.4553 32.8312 15.4553Z" fill="white"/>
<path d="M32.8312 21.2484C35.4961 21.2515 37.6556 23.4111 37.6589 26.0761C37.6589 26.6093 38.0912 27.0415 38.6244 27.0415C39.1575 27.0415 39.5899 26.6093 39.5899 26.0761C39.5856 22.3451 36.5622 19.3216 32.8312 19.3174C32.298 19.3174 31.8657 19.7496 31.8657 20.2829C31.8657 20.8161 32.298 21.2484 32.8312 21.2484Z" fill="white"/>
</g>
<defs>
<clipPath id="clip0">
<rect width="57.9404" height="57.9404" fill="white"/>
</clipPath>
</defs>
</svg>
