<svg width="58" height="58" viewBox="0 0 58 58" fill="none" xmlns="http://www.w3.org/2000/svg">
<g clip-path="url(#clip0)">
<path d="M56.2022 33.9917C56.4919 32.35 56.685 30.7084 56.685 29.0667C56.685 13.9057 44.3244 1.54504 29.1634 1.54504C27.5217 1.54504 25.8801 1.73821 24.2384 2.02791C21.8242 0.675933 19.1203 0 16.3198 0C7.33908 0 0 7.33908 0 16.3198C0 19.0237 0.675933 21.8242 2.02791 24.2383C1.73821 25.88 1.54504 27.5216 1.54504 29.1632C1.54504 44.3243 13.9057 56.6849 29.0667 56.6849C30.7084 56.6849 32.35 56.4918 33.9917 56.2021C36.1161 57.3609 38.7234 57.9403 41.9101 57.9403C50.891 57.9404 57.9404 50.891 57.9404 41.9102C57.9404 38.7235 57.361 36.1162 56.2022 33.9917ZM41.9102 56.009C38.9167 56.009 36.5991 55.4296 34.6677 54.3673L34.378 54.1741L33.9918 54.2707C32.3501 54.5604 30.7085 54.7535 29.0668 54.7535C14.968 54.7535 3.47654 43.262 3.47654 29.1632C3.47654 27.5216 3.66971 25.88 3.95941 24.2383L4.05594 23.8521L3.86277 23.5624C2.60743 21.3413 1.93138 18.8306 1.93138 16.3198C1.93138 8.40135 8.40136 1.93127 16.3199 1.93127C18.8307 1.93127 21.3414 2.6072 23.5625 3.86265L23.8522 4.05583L24.2384 3.9593C25.8801 3.6696 27.5217 3.47642 29.1634 3.47642C43.2622 3.47642 54.7537 14.968 54.7537 29.0667C54.7537 30.7084 54.5605 32.35 54.2708 33.9917L54.1743 34.3779L54.3674 34.6676C55.4297 36.599 56.0091 38.9166 56.0091 41.9101C56.009 49.8287 49.8287 56.009 41.9102 56.009Z" fill="url(#paint0_linear)"/>
<path d="M31.4809 24.3349C24.2383 22.8864 23.1761 21.0516 23.0795 20.5688C22.8864 19.8928 23.3692 19.3134 23.8521 18.9271C25.1074 17.8648 28.1011 16.9957 30.7084 17.4786C31.6741 17.6717 33.026 18.1545 33.702 19.3133C35.3437 22.5 37.0819 25.0108 40.6548 24.1417C41.8136 23.852 42.6827 23.0794 43.2621 21.9206C43.9381 20.3756 43.9381 18.251 43.069 16.6095C42.1033 14.7747 37.9509 10.0428 29.8392 10.0428C22.1138 10.0428 13.2297 12.8433 13.2297 20.7618C13.2297 27.0387 18.734 31.4808 28.2942 32.8328C33.1226 33.5087 34.6676 35.0539 35.1505 35.923C35.4402 36.5024 35.4402 37.0818 35.247 37.6612C34.4744 39.4959 31.8671 41.2341 27.8113 40.8479C23.1761 40.365 21.631 36.2127 21.3413 35.3436C20.5687 32.9294 17.9614 32.5431 16.6096 32.6397C15.9336 32.7362 14.3885 33.2191 13.4228 34.6676C12.8434 35.5367 12.264 37.1784 13.1331 39.6891C14.1954 42.9723 17.7684 48.3801 29.6461 48.3801C39.5925 48.3801 45.5798 42.1032 45.6763 36.3092C45.6763 29.9357 41.3308 26.2663 31.4809 24.3349ZM29.5495 46.4488C21.631 46.4488 16.4164 43.8414 14.8712 39.1097C14.3884 37.6612 14.3884 36.5024 14.9678 35.7298C15.5472 34.9572 16.4163 34.571 16.8025 34.571C16.8025 34.571 16.899 34.571 17.0922 34.571C17.6716 34.571 19.1201 34.6675 19.3133 35.8263C19.6995 36.8886 21.6309 42.1032 27.4249 42.6826C32.5431 43.1655 35.8263 40.7512 36.8886 38.2406C37.3715 37.0818 37.2748 35.8264 36.6954 34.7642C35.9228 33.3156 33.7984 31.4809 28.4872 30.7083C23.4658 29.9357 15.0644 27.7148 15.0644 20.5688C15.0644 14.0988 22.9829 11.7812 29.7427 11.7812C36.8887 11.7812 40.4616 15.7405 41.2342 17.2855C41.7171 18.3478 41.8136 19.8928 41.3308 20.9551C41.041 21.631 40.5582 22.0174 39.9788 22.1139C38.2406 22.5001 37.1783 22.1139 35.1504 18.2513C34.3778 16.8027 32.8328 15.8371 30.8048 15.4508C27.8113 14.9679 24.1417 15.7405 22.307 17.3821C21.1481 18.4444 20.6653 19.6998 20.955 20.9551C21.6309 23.2727 24.8176 24.9144 30.9014 26.0732C42.0066 28.2943 43.5517 32.3501 43.5517 36.1162C43.5517 41.1376 38.3371 46.4488 29.5495 46.4488Z" fill="url(#paint1_linear)"/>
</g>
<defs>
<linearGradient id="paint0_linear" x1="28.9702" y1="0" x2="28.9702" y2="57.9403" gradientUnits="userSpaceOnUse">
<stop stop-color="#82B1FF"/>
<stop offset="1" stop-color="#A6A7CF"/>
</linearGradient>
<linearGradient id="paint1_linear" x1="29.1831" y1="10.0428" x2="29.1831" y2="48.3801" gradientUnits="userSpaceOnUse">
<stop stop-color="#82B1FF"/>
<stop offset="1" stop-color="#A6A7CF"/>
</linearGradient>
<clipPath id="clip0">
<rect width="57.9404" height="57.9404" fill="white"/>
</clipPath>
</defs>
</svg>
