<svg width="100" height="100" viewBox="0 0 100 100" fill="none" xmlns="http://www.w3.org/2000/svg">
<path d="M95.4012 4.69678H4.59883C2.06301 4.69678 0 6.75979 0 9.2956V68.7868C0 71.3226 2.06301 73.3856 4.59883 73.3856H35.5297L33.2374 81.4091H26.5166C25.7061 81.4091 25.0489 82.0662 25.0489 82.8768C25.0489 83.6874 25.7061 84.3445 26.5166 84.3445H34.3397C34.3415 84.3445 34.3434 84.3449 34.3452 84.3449C34.3468 84.3449 34.3483 84.3445 34.3499 84.3445H53.1311C53.9417 84.3445 54.5988 83.6874 54.5988 82.8768C54.5988 82.0662 53.9417 81.4091 53.1311 81.4091H36.2902L38.5826 73.3856H53.1311C53.9417 73.3856 54.5988 72.7285 54.5988 71.9179C54.5988 71.1073 53.9417 70.4502 53.1311 70.4502H4.59883C3.6816 70.4502 2.93542 69.704 2.93542 68.7868V9.2956C2.93542 8.37838 3.6816 7.6322 4.59883 7.6322H95.4012C96.3184 7.6322 97.0646 8.37838 97.0646 9.2956V68.7868C97.0646 69.5974 97.7217 70.2545 98.5323 70.2545C99.3429 70.2545 100 69.5974 100 68.7868V9.2956C100 6.75979 97.937 4.69678 95.4012 4.69678Z" fill="url(#paint0_linear)"/>
<path d="M92.27 10.959H7.72992C6.91935 10.959 6.26221 11.6161 6.26221 12.4267V65.6557C6.26221 66.4662 6.91935 67.1234 7.72992 67.1234H53.1311C53.9417 67.1234 54.5988 66.4662 54.5988 65.6557C54.5988 64.8451 53.9417 64.188 53.1311 64.188H9.19763V26.4189H90.8023V32.7789C90.8023 33.5895 91.4595 34.2467 92.27 34.2467C93.0806 34.2467 93.7377 33.5895 93.7377 32.7789V12.4267C93.7377 11.6161 93.0806 10.959 92.27 10.959ZM9.19763 23.4834V13.8944H90.8023V23.4834H9.19763Z" fill="url(#paint1_linear)"/>
<path d="M76.6145 17.2212H29.6478C28.8372 17.2212 28.1801 17.8783 28.1801 18.6889C28.1801 19.4995 28.8372 20.1566 29.6478 20.1566H76.6145C77.4251 20.1566 78.0822 19.4995 78.0822 18.6889C78.0822 17.8783 77.4251 17.2212 76.6145 17.2212Z" fill="url(#paint2_linear)"/>
<path d="M86.0078 17.2212H82.8767C82.0661 17.2212 81.409 17.8783 81.409 18.6889C81.409 19.4995 82.0661 20.1566 82.8767 20.1566H86.0078C86.8184 20.1566 87.4755 19.4995 87.4755 18.6889C87.4755 17.8783 86.8184 17.2212 86.0078 17.2212Z" fill="url(#paint3_linear)"/>
<path d="M13.9922 17.2212C13.6067 17.2212 13.227 17.3777 12.955 17.6517C12.681 17.9237 12.5245 18.3034 12.5245 18.6889C12.5245 19.0744 12.681 19.4541 12.955 19.7261C13.227 20.0001 13.6067 20.1566 13.9922 20.1566C14.3777 20.1566 14.7574 20.0001 15.0294 19.7261C15.3033 19.4541 15.4599 19.0744 15.4599 18.6889C15.4599 18.3034 15.3033 17.9237 15.0294 17.6517C14.7574 17.3777 14.3777 17.2212 13.9922 17.2212Z" fill="url(#paint4_linear)"/>
<path d="M18.6888 17.2212C18.3014 17.2212 17.9237 17.3777 17.6517 17.6517C17.3777 17.9237 17.2211 18.3014 17.2211 18.6889C17.2211 19.0744 17.3777 19.4541 17.6517 19.7261C17.9237 20.0001 18.3033 20.1566 18.6888 20.1566C19.0744 20.1566 19.454 20.0001 19.726 19.7261C20 19.4541 20.1566 19.0744 20.1566 18.6889C20.1566 18.3014 20 17.9237 19.726 17.6517C19.454 17.3777 19.0763 17.2212 18.6888 17.2212Z" fill="url(#paint5_linear)"/>
<path d="M23.3855 17.2212C23 17.2212 22.6203 17.3777 22.3483 17.6517C22.0743 17.9237 21.9178 18.3034 21.9178 18.6889C21.9178 19.0744 22.0743 19.4541 22.3483 19.7261C22.6203 20.0001 23 20.1566 23.3855 20.1566C23.773 20.1566 24.1507 20.0001 24.4227 19.7261C24.6967 19.4541 24.8532 19.0744 24.8532 18.6889C24.8532 18.3034 24.6967 17.9237 24.4227 17.6517C24.1507 17.3777 23.773 17.2212 23.3855 17.2212Z" fill="url(#paint6_linear)"/>
<path d="M89.139 37.5732H62.5245C59.9887 37.5732 57.9257 39.6363 57.9257 42.1721V90.7044C57.9257 93.2402 59.9887 95.3032 62.5245 95.3032H89.139C91.6748 95.3032 93.7378 93.2402 93.7378 90.7044V42.1721C93.7378 39.6363 91.6748 37.5732 89.139 37.5732ZM60.8611 46.7709H90.8024V53.2288H60.8611V46.7709ZM60.8611 56.1642H90.8024V86.1055H60.8611V56.1642ZM62.5245 40.5087H89.139C90.0562 40.5087 90.8024 41.2548 90.8024 42.1721V43.8355H60.8611V42.1721C60.8611 41.2548 61.6073 40.5087 62.5245 40.5087ZM89.139 92.3678H62.5245C61.6073 92.3678 60.8611 91.6216 60.8611 90.7044V89.0409H90.8024V90.7044C90.8024 91.6216 90.0562 92.3678 89.139 92.3678Z" fill="url(#paint7_linear)"/>
<path d="M81.3112 48.5322H64.09C63.2795 48.5322 62.6223 49.1894 62.6223 49.9999C62.6223 50.8105 63.2795 51.4677 64.09 51.4677H81.3112C82.1217 51.4677 82.7789 50.8105 82.7789 49.9999C82.7789 49.1894 82.1217 48.5322 81.3112 48.5322Z" fill="url(#paint8_linear)"/>
<path d="M87.5734 48.5322H86.0078C85.1972 48.5322 84.5401 49.1894 84.5401 49.9999C84.5401 50.8105 85.1972 51.4677 86.0078 51.4677H87.5734C88.3839 51.4677 89.0411 50.8105 89.0411 49.9999C89.0411 49.1894 88.3839 48.5322 87.5734 48.5322Z" fill="url(#paint9_linear)"/>
<path d="M17.1233 31.311C15.4507 31.311 14.09 32.6717 14.09 34.3443V54.6965C14.09 56.3691 15.4507 57.7298 17.1233 57.7298H40.6067C42.2793 57.7298 43.6399 56.3691 43.6399 54.6965V34.3443C43.6399 32.6717 42.2793 31.311 40.6067 31.311H17.1233ZM31.0834 44.5204L40.7045 36.0312V53.0099L31.0834 44.5204ZM28.865 42.5631L19.4395 34.2465H38.2904L28.865 42.5631ZM17.0254 53.0097V36.0312L26.6466 44.5204L17.0254 53.0097ZM28.865 46.4778L38.2904 54.7944H19.4395L28.865 46.4778Z" fill="url(#paint10_linear)"/>
<path d="M50 34.2465H86.0078C86.8184 34.2465 87.4755 33.5893 87.4755 32.7787C87.4755 31.9682 86.8184 31.311 86.0078 31.311H50C49.1894 31.311 48.5323 31.9682 48.5323 32.7787C48.5323 33.5893 49.1894 34.2465 50 34.2465Z" fill="url(#paint11_linear)"/>
<path d="M53.1311 39.1392H50C49.1894 39.1392 48.5323 39.7963 48.5323 40.6069C48.5323 41.4174 49.1894 42.0746 50 42.0746H53.1311C53.9417 42.0746 54.5988 41.4174 54.5988 40.6069C54.5988 39.7963 53.9417 39.1392 53.1311 39.1392Z" fill="url(#paint12_linear)"/>
<path d="M53.1311 46.9668H50C49.1894 46.9668 48.5323 47.6239 48.5323 48.4345C48.5323 49.2451 49.1894 49.9022 50 49.9022H53.1311C53.9417 49.9022 54.5988 49.2451 54.5988 48.4345C54.5988 47.6239 53.9417 46.9668 53.1311 46.9668Z" fill="url(#paint13_linear)"/>
<path d="M53.1311 54.7944H50C49.1894 54.7944 48.5323 55.4516 48.5323 56.2621C48.5323 57.0727 49.1894 57.7299 50 57.7299H53.1311C53.9417 57.7299 54.5988 57.0727 54.5988 56.2621C54.5988 55.4516 53.9417 54.7944 53.1311 54.7944Z" fill="url(#paint14_linear)"/>
<path d="M84.4423 59.4912H67.2211C65.5485 59.4912 64.1879 60.8519 64.1879 62.5245V73.4834C64.1879 75.156 65.5485 76.5166 67.2211 76.5166H84.4423C86.1149 76.5166 87.4755 75.156 87.4755 73.4834V62.5245C87.4755 60.8519 86.1149 59.4912 84.4423 59.4912ZM78.5656 68.0039L84.5401 64.202V71.8059L78.5656 68.0039ZM75.8317 66.2642L69.8012 62.4266H81.8622L75.8317 66.2642ZM67.1233 71.8059V64.202L73.0978 68.0039L67.1233 71.8059ZM75.8317 69.7437L81.8622 73.5812H69.8012L75.8317 69.7437Z" fill="url(#paint15_linear)"/>
<path d="M86.0078 79.8438H65.6556C64.845 79.8438 64.1879 80.5009 64.1879 81.3115C64.1879 82.122 64.845 82.7792 65.6556 82.7792H86.0078C86.8184 82.7792 87.4755 82.122 87.4755 81.3115C87.4755 80.5009 86.8184 79.8438 86.0078 79.8438Z" fill="url(#paint16_linear)"/>
<defs>
<linearGradient id="paint0_linear" x1="50" y1="4.69678" x2="50" y2="84.3449" gradientUnits="userSpaceOnUse">
<stop stop-color="#82B1FF"/>
<stop offset="1" stop-color="#A6A7CF"/>
</linearGradient>
<linearGradient id="paint1_linear" x1="50" y1="10.959" x2="50" y2="67.1234" gradientUnits="userSpaceOnUse">
<stop stop-color="#82B1FF"/>
<stop offset="1" stop-color="#A6A7CF"/>
</linearGradient>
<linearGradient id="paint2_linear" x1="53.1311" y1="17.2212" x2="53.1311" y2="20.1566" gradientUnits="userSpaceOnUse">
<stop stop-color="#82B1FF"/>
<stop offset="1" stop-color="#A6A7CF"/>
</linearGradient>
<linearGradient id="paint3_linear" x1="84.4423" y1="17.2212" x2="84.4423" y2="20.1566" gradientUnits="userSpaceOnUse">
<stop stop-color="#82B1FF"/>
<stop offset="1" stop-color="#A6A7CF"/>
</linearGradient>
<linearGradient id="paint4_linear" x1="13.9922" y1="17.2212" x2="13.9922" y2="20.1566" gradientUnits="userSpaceOnUse">
<stop stop-color="#82B1FF"/>
<stop offset="1" stop-color="#A6A7CF"/>
</linearGradient>
<linearGradient id="paint5_linear" x1="18.6888" y1="17.2212" x2="18.6888" y2="20.1566" gradientUnits="userSpaceOnUse">
<stop stop-color="#82B1FF"/>
<stop offset="1" stop-color="#A6A7CF"/>
</linearGradient>
<linearGradient id="paint6_linear" x1="23.3855" y1="17.2212" x2="23.3855" y2="20.1566" gradientUnits="userSpaceOnUse">
<stop stop-color="#82B1FF"/>
<stop offset="1" stop-color="#A6A7CF"/>
</linearGradient>
<linearGradient id="paint7_linear" x1="75.8317" y1="37.5732" x2="75.8317" y2="95.3032" gradientUnits="userSpaceOnUse">
<stop stop-color="#82B1FF"/>
<stop offset="1" stop-color="#A6A7CF"/>
</linearGradient>
<linearGradient id="paint8_linear" x1="72.7006" y1="48.5322" x2="72.7006" y2="51.4677" gradientUnits="userSpaceOnUse">
<stop stop-color="#82B1FF"/>
<stop offset="1" stop-color="#A6A7CF"/>
</linearGradient>
<linearGradient id="paint9_linear" x1="86.7906" y1="48.5322" x2="86.7906" y2="51.4677" gradientUnits="userSpaceOnUse">
<stop stop-color="#82B1FF"/>
<stop offset="1" stop-color="#A6A7CF"/>
</linearGradient>
<linearGradient id="paint10_linear" x1="28.865" y1="31.311" x2="28.865" y2="57.7298" gradientUnits="userSpaceOnUse">
<stop stop-color="#82B1FF"/>
<stop offset="1" stop-color="#A6A7CF"/>
</linearGradient>
<linearGradient id="paint11_linear" x1="68.0039" y1="31.311" x2="68.0039" y2="34.2465" gradientUnits="userSpaceOnUse">
<stop stop-color="#82B1FF"/>
<stop offset="1" stop-color="#A6A7CF"/>
</linearGradient>
<linearGradient id="paint12_linear" x1="51.5656" y1="39.1392" x2="51.5656" y2="42.0746" gradientUnits="userSpaceOnUse">
<stop stop-color="#82B1FF"/>
<stop offset="1" stop-color="#A6A7CF"/>
</linearGradient>
<linearGradient id="paint13_linear" x1="51.5656" y1="46.9668" x2="51.5656" y2="49.9022" gradientUnits="userSpaceOnUse">
<stop stop-color="#82B1FF"/>
<stop offset="1" stop-color="#A6A7CF"/>
</linearGradient>
<linearGradient id="paint14_linear" x1="51.5656" y1="54.7944" x2="51.5656" y2="57.7299" gradientUnits="userSpaceOnUse">
<stop stop-color="#82B1FF"/>
<stop offset="1" stop-color="#A6A7CF"/>
</linearGradient>
<linearGradient id="paint15_linear" x1="75.8317" y1="59.4912" x2="75.8317" y2="76.5166" gradientUnits="userSpaceOnUse">
<stop stop-color="#82B1FF"/>
<stop offset="1" stop-color="#A6A7CF"/>
</linearGradient>
<linearGradient id="paint16_linear" x1="75.8317" y1="79.8438" x2="75.8317" y2="82.7792" gradientUnits="userSpaceOnUse">
<stop stop-color="#82B1FF"/>
<stop offset="1" stop-color="#A6A7CF"/>
</linearGradient>
</defs>
</svg>
