<svg width="100" height="100" viewBox="0 0 100 100" fill="none" xmlns="http://www.w3.org/2000/svg">
<path d="M57.5625 12.7168H31.2373C30.4256 12.7168 29.7678 13.3746 29.7678 14.1863C29.7678 14.998 30.4258 15.6559 31.2373 15.6559H57.5625C58.3742 15.6559 59.032 14.998 59.032 14.1863C59.032 13.3746 58.3742 12.7168 57.5625 12.7168Z" fill="url(#paint0_linear)"/>
<path d="M9.36717 15.6504C10.1762 15.6504 10.832 14.9946 10.832 14.1855C10.832 13.3765 10.1762 12.7207 9.36717 12.7207C8.55816 12.7207 7.90233 13.3765 7.90233 14.1855C7.90233 14.9946 8.55816 15.6504 9.36717 15.6504Z" fill="url(#paint1_linear)"/>
<path d="M16.6562 15.6504C17.4653 15.6504 18.1211 14.9946 18.1211 14.1855C18.1211 13.3765 17.4653 12.7207 16.6562 12.7207C15.8472 12.7207 15.1914 13.3765 15.1914 14.1855C15.1914 14.9946 15.8472 15.6504 16.6562 15.6504Z" fill="url(#paint2_linear)"/>
<path d="M23.543 15.6504C24.352 15.6504 25.0078 14.9946 25.0078 14.1855C25.0078 13.3765 24.352 12.7207 23.543 12.7207C22.734 12.7207 22.0781 13.3765 22.0781 14.1855C22.0781 14.9946 22.734 15.6504 23.543 15.6504Z" fill="url(#paint3_linear)"/>
<path d="M82.4707 15.6504C83.2797 15.6504 83.9355 14.9946 83.9355 14.1855C83.9355 13.3765 83.2797 12.7207 82.4707 12.7207C81.6617 12.7207 81.0059 13.3765 81.0059 14.1855C81.0059 14.9946 81.6617 15.6504 82.4707 15.6504Z" fill="url(#paint4_linear)"/>
<path d="M10.4277 31.0475C11.2393 31.0475 11.8973 30.3895 11.8973 29.5779C11.8973 28.7663 11.2393 28.1084 10.4277 28.1084C9.61612 28.1084 8.95819 28.7663 8.95819 29.5779C8.95819 30.3895 9.61612 31.0475 10.4277 31.0475Z" fill="url(#paint5_linear)"/>
<path d="M35.498 28.1079H16.2556C15.4439 28.1079 14.7861 28.7657 14.7861 29.5774C14.7861 30.3892 15.4439 31.047 16.2556 31.047H35.498C36.3097 31.047 36.9676 30.3892 36.9676 29.5774C36.9676 28.7657 36.3097 28.1079 35.498 28.1079Z" fill="url(#paint6_linear)"/>
<path d="M84.3617 26.6382H69.8945C69.0828 26.6382 68.425 27.296 68.425 28.1077C68.425 28.9194 69.0828 29.5772 69.8945 29.5772H84.3617C85.1734 29.5772 85.8312 28.9194 85.8312 28.1077C85.8312 27.2962 85.1734 26.6382 84.3617 26.6382Z" fill="url(#paint7_linear)"/>
<path d="M84.3617 32.957H69.8945C69.0828 32.957 68.425 33.6148 68.425 34.4266C68.425 35.2383 69.0828 35.8961 69.8945 35.8961H84.3617C85.1734 35.8961 85.8312 35.2383 85.8312 34.4266C85.8312 33.6148 85.1734 32.957 84.3617 32.957Z" fill="url(#paint8_linear)"/>
<path d="M10.4277 37.2193C11.2393 37.2193 11.8973 36.5614 11.8973 35.7498C11.8973 34.9382 11.2393 34.2803 10.4277 34.2803C9.61612 34.2803 8.95819 34.9382 8.95819 35.7498C8.95819 36.5614 9.61612 37.2193 10.4277 37.2193Z" fill="url(#paint9_linear)"/>
<path d="M26.3537 34.2798H16.2556C15.4439 34.2798 14.7861 34.9376 14.7861 35.7493C14.7861 36.561 15.4439 37.2188 16.2556 37.2188H26.3537C27.1654 37.2188 27.8232 36.561 27.8232 35.7493C27.8232 34.9376 27.1654 34.2798 26.3537 34.2798Z" fill="url(#paint10_linear)"/>
<path d="M10.4277 55.44C11.2393 55.44 11.8973 54.7821 11.8973 53.9705C11.8973 53.1589 11.2393 52.501 10.4277 52.501C9.61612 52.501 8.95819 53.1589 8.95819 53.9705C8.95819 54.7821 9.61612 55.44 10.4277 55.44Z" fill="url(#paint11_linear)"/>
<path d="M31.458 52.502H16.2556C15.4439 52.502 14.7861 53.1598 14.7861 53.9715C14.7861 54.7832 15.4439 55.441 16.2556 55.441H31.458C32.2697 55.441 32.9275 54.7832 32.9275 53.9715C32.9275 53.1598 32.2697 52.502 31.458 52.502Z" fill="url(#paint12_linear)"/>
<path d="M10.4277 61.4654C11.2393 61.4654 11.8973 60.8075 11.8973 59.9959C11.8973 59.1843 11.2393 58.5264 10.4277 58.5264C9.61612 58.5264 8.95819 59.1843 8.95819 59.9959C8.95819 60.8075 9.61612 61.4654 10.4277 61.4654Z" fill="url(#paint13_linear)"/>
<path d="M31.458 58.5269H16.2556C15.4439 58.5269 14.7861 59.1847 14.7861 59.9964C14.7861 60.8081 15.4439 61.4659 16.2556 61.4659H31.458C32.2697 61.4659 32.9275 60.8081 32.9275 59.9964C32.9275 59.1847 32.2697 58.5269 31.458 58.5269Z" fill="url(#paint14_linear)"/>
<path d="M41.6982 52.502H36.3301C35.5184 52.502 34.8605 53.1598 34.8605 53.9715C34.8605 54.7832 35.5184 55.441 36.3301 55.441H41.6982C42.51 55.441 43.1678 54.7832 43.1678 53.9715C43.1678 53.1598 42.51 52.502 41.6982 52.502Z" fill="url(#paint15_linear)"/>
<path d="M42.4781 34.2798H32.3799C31.5682 34.28 30.9104 34.9378 30.9104 35.7493C30.9104 36.561 31.5682 37.2188 32.3799 37.2188H42.4781C43.2899 37.2188 43.9477 36.561 43.9477 35.7493C43.9477 34.9376 43.2899 34.2798 42.4781 34.2798Z" fill="url(#paint16_linear)"/>
<path d="M10.4277 43.3912C11.2393 43.3912 11.8973 42.7333 11.8973 41.9217C11.8973 41.1101 11.2393 40.4521 10.4277 40.4521C9.61612 40.4521 8.95819 41.1101 8.95819 41.9217C8.95819 42.7333 9.61612 43.3912 10.4277 43.3912Z" fill="url(#paint17_linear)"/>
<path d="M36.3301 40.4521H22.3867C21.575 40.4521 20.9172 41.11 20.9172 41.9217C20.9172 42.7334 21.575 43.3912 22.3867 43.3912H36.3303C37.142 43.3912 37.7998 42.7334 37.7998 41.9217C37.7996 41.11 37.1418 40.4521 36.3301 40.4521Z" fill="url(#paint18_linear)"/>
<path d="M10.4277 49.2682C11.2393 49.2682 11.8973 48.6102 11.8973 47.7986C11.8973 46.987 11.2393 46.3291 10.4277 46.3291C9.61612 46.3291 8.95819 46.987 8.95819 47.7986C8.95819 48.6102 9.61612 49.2682 10.4277 49.2682Z" fill="url(#paint19_linear)"/>
<path d="M92.1762 39.2287H91.6348V30.7244C91.6348 29.9127 90.977 29.2549 90.1652 29.2549C89.3535 29.2549 88.6957 29.9127 88.6957 30.7244V39.2287H65.1482V22.7434H88.6957V25.1728C88.6957 25.9846 89.3535 26.6424 90.1652 26.6424C90.977 26.6424 91.6348 25.9846 91.6348 25.1728V12.8754C91.6348 8.76816 88.2934 5.42676 84.1863 5.42676H7.44863C3.34141 5.42676 0 8.76816 0 12.8754V73.818C0 77.925 3.34141 81.2664 7.44863 81.2664H45.6309V86.7494C45.6309 91.0635 49.1406 94.5732 53.4547 94.5732H92.1762C96.4902 94.5732 100 91.0635 100 86.7494V47.0525C100 42.7385 96.4902 39.2287 92.1762 39.2287ZM47.1004 61.2578C46.2887 61.2578 45.6309 61.9156 45.6309 62.7273V78.3277H7.44863V78.3273C4.96211 78.3273 2.93906 76.3045 2.93906 73.818V22.7434H10.0945C10.9062 22.7434 11.5641 22.0855 11.5641 21.2738C11.5641 20.4621 10.9062 19.8043 10.0945 19.8043H2.93906V12.8754C2.93906 10.3889 4.96211 8.36582 7.44863 8.36582H84.1863C86.6729 8.36582 88.6957 10.3889 88.6957 12.8754V19.8045H16.6557C15.8439 19.8045 15.1861 20.4623 15.1861 21.274C15.1861 22.0857 15.8439 22.7436 16.6557 22.7436H62.2092V39.2289H53.4547C51.9131 39.2289 50.4754 39.6789 49.2625 40.452H42.4781C41.6664 40.452 41.0086 41.1098 41.0086 41.9215C41.0086 42.7332 41.6664 43.391 42.4781 43.391H46.5436C46.0691 44.2828 45.7627 45.2764 45.6656 46.3301H22.3867C21.575 46.3301 20.9172 46.9879 20.9172 47.7996C20.9172 48.6113 21.575 49.2691 22.3867 49.2691H45.6309V55.4408C45.6309 56.2525 46.2887 56.9104 47.1004 56.9104C47.9121 56.9104 48.5699 56.2525 48.5699 55.4408V47.0527C48.5699 44.3592 50.7611 42.168 53.4547 42.168H92.1762C94.8697 42.168 97.0609 44.3592 97.0609 47.0527V66.45H89.1998C87.6689 66.45 86.2232 67.2623 85.4273 68.5697L84.758 69.6688L79.9973 55.3043C79.6529 54.2654 78.7234 53.5707 77.6299 53.534C76.5402 53.4996 75.5629 54.1283 75.1496 55.1414L68.2199 72.1332L64.5979 61.7994C64.3018 60.9553 63.6047 60.3326 62.7326 60.1338C61.86 59.9354 60.9625 60.1939 60.3299 60.8264L55.1395 66.0168C54.8602 66.2961 54.4889 66.45 54.0939 66.45H48.5699V62.7273C48.5699 61.9156 47.9121 61.2578 47.1004 61.2578ZM97.0611 86.7492C97.0609 89.443 94.8697 91.6342 92.1762 91.6342H53.4547C50.7611 91.6342 48.5699 89.443 48.5699 86.7494V69.3887H54.0939C55.2736 69.3887 56.383 68.9293 57.2176 68.0947L62.0102 63.3019L65.7551 73.9863C66.1139 75.0096 67.0463 75.6883 68.1303 75.7154C68.1527 75.716 68.175 75.7162 68.1975 75.7162C69.2541 75.7162 70.1879 75.0904 70.5887 74.1072L77.509 57.1381L82.2088 71.3184C82.5293 72.2855 83.3574 72.9584 84.3699 73.0736C85.3836 73.1883 86.3406 72.7201 86.8705 71.8498L87.9377 70.0979C88.2041 69.6602 88.6877 69.3885 89.2 69.3885H97.0611V86.7492Z" fill="url(#paint20_linear)"/>
<defs>
<linearGradient id="paint0_linear" x1="44.3999" y1="12.7168" x2="44.3999" y2="15.6559" gradientUnits="userSpaceOnUse">
<stop stop-color="#82B1FF"/>
<stop offset="1" stop-color="#A6A7CF"/>
</linearGradient>
<linearGradient id="paint1_linear" x1="9.36717" y1="12.7207" x2="9.36717" y2="15.6504" gradientUnits="userSpaceOnUse">
<stop stop-color="#82B1FF"/>
<stop offset="1" stop-color="#A6A7CF"/>
</linearGradient>
<linearGradient id="paint2_linear" x1="16.6562" y1="12.7207" x2="16.6562" y2="15.6504" gradientUnits="userSpaceOnUse">
<stop stop-color="#82B1FF"/>
<stop offset="1" stop-color="#A6A7CF"/>
</linearGradient>
<linearGradient id="paint3_linear" x1="23.543" y1="12.7207" x2="23.543" y2="15.6504" gradientUnits="userSpaceOnUse">
<stop stop-color="#82B1FF"/>
<stop offset="1" stop-color="#A6A7CF"/>
</linearGradient>
<linearGradient id="paint4_linear" x1="82.4707" y1="12.7207" x2="82.4707" y2="15.6504" gradientUnits="userSpaceOnUse">
<stop stop-color="#82B1FF"/>
<stop offset="1" stop-color="#A6A7CF"/>
</linearGradient>
<linearGradient id="paint5_linear" x1="10.4277" y1="28.1084" x2="10.4277" y2="31.0475" gradientUnits="userSpaceOnUse">
<stop stop-color="#82B1FF"/>
<stop offset="1" stop-color="#A6A7CF"/>
</linearGradient>
<linearGradient id="paint6_linear" x1="25.8768" y1="28.1079" x2="25.8768" y2="31.047" gradientUnits="userSpaceOnUse">
<stop stop-color="#82B1FF"/>
<stop offset="1" stop-color="#A6A7CF"/>
</linearGradient>
<linearGradient id="paint7_linear" x1="77.1281" y1="26.6382" x2="77.1281" y2="29.5772" gradientUnits="userSpaceOnUse">
<stop stop-color="#82B1FF"/>
<stop offset="1" stop-color="#A6A7CF"/>
</linearGradient>
<linearGradient id="paint8_linear" x1="77.1281" y1="32.957" x2="77.1281" y2="35.8961" gradientUnits="userSpaceOnUse">
<stop stop-color="#82B1FF"/>
<stop offset="1" stop-color="#A6A7CF"/>
</linearGradient>
<linearGradient id="paint9_linear" x1="10.4277" y1="34.2803" x2="10.4277" y2="37.2193" gradientUnits="userSpaceOnUse">
<stop stop-color="#82B1FF"/>
<stop offset="1" stop-color="#A6A7CF"/>
</linearGradient>
<linearGradient id="paint10_linear" x1="21.3047" y1="34.2798" x2="21.3047" y2="37.2188" gradientUnits="userSpaceOnUse">
<stop stop-color="#82B1FF"/>
<stop offset="1" stop-color="#A6A7CF"/>
</linearGradient>
<linearGradient id="paint11_linear" x1="10.4277" y1="52.501" x2="10.4277" y2="55.44" gradientUnits="userSpaceOnUse">
<stop stop-color="#82B1FF"/>
<stop offset="1" stop-color="#A6A7CF"/>
</linearGradient>
<linearGradient id="paint12_linear" x1="23.8568" y1="52.502" x2="23.8568" y2="55.441" gradientUnits="userSpaceOnUse">
<stop stop-color="#82B1FF"/>
<stop offset="1" stop-color="#A6A7CF"/>
</linearGradient>
<linearGradient id="paint13_linear" x1="10.4277" y1="58.5264" x2="10.4277" y2="61.4654" gradientUnits="userSpaceOnUse">
<stop stop-color="#82B1FF"/>
<stop offset="1" stop-color="#A6A7CF"/>
</linearGradient>
<linearGradient id="paint14_linear" x1="23.8568" y1="58.5269" x2="23.8568" y2="61.4659" gradientUnits="userSpaceOnUse">
<stop stop-color="#82B1FF"/>
<stop offset="1" stop-color="#A6A7CF"/>
</linearGradient>
<linearGradient id="paint15_linear" x1="39.0142" y1="52.502" x2="39.0142" y2="55.441" gradientUnits="userSpaceOnUse">
<stop stop-color="#82B1FF"/>
<stop offset="1" stop-color="#A6A7CF"/>
</linearGradient>
<linearGradient id="paint16_linear" x1="37.429" y1="34.2798" x2="37.429" y2="37.2188" gradientUnits="userSpaceOnUse">
<stop stop-color="#82B1FF"/>
<stop offset="1" stop-color="#A6A7CF"/>
</linearGradient>
<linearGradient id="paint17_linear" x1="10.4277" y1="40.4521" x2="10.4277" y2="43.3912" gradientUnits="userSpaceOnUse">
<stop stop-color="#82B1FF"/>
<stop offset="1" stop-color="#A6A7CF"/>
</linearGradient>
<linearGradient id="paint18_linear" x1="29.3585" y1="40.4521" x2="29.3585" y2="43.3912" gradientUnits="userSpaceOnUse">
<stop stop-color="#82B1FF"/>
<stop offset="1" stop-color="#A6A7CF"/>
</linearGradient>
<linearGradient id="paint19_linear" x1="10.4277" y1="46.3291" x2="10.4277" y2="49.2682" gradientUnits="userSpaceOnUse">
<stop stop-color="#82B1FF"/>
<stop offset="1" stop-color="#A6A7CF"/>
</linearGradient>
<linearGradient id="paint20_linear" x1="50" y1="5.42676" x2="50" y2="94.5732" gradientUnits="userSpaceOnUse">
<stop stop-color="#82B1FF"/>
<stop offset="1" stop-color="#A6A7CF"/>
</linearGradient>
</defs>
</svg>
