<svg width="100" height="100" viewBox="0 0 100 100" fill="none" xmlns="http://www.w3.org/2000/svg">
<g clip-path="url(#clip0)">
<path d="M1.46484 19.9295C0.656128 19.9295 0 19.2734 0 18.4647V6.4476C0 2.8923 2.8923 0 6.4476 0H37.368C38.1767 0 38.8329 0.656128 38.8329 1.46484C38.8329 2.27432 38.1767 2.93045 37.368 2.93045H6.4476C4.50821 2.93045 2.93045 4.50821 2.93045 6.4476V18.4647C2.93045 19.2734 2.27432 19.9295 1.46484 19.9295Z" fill="url(#paint0_linear)"/>
<path d="M6.39728 9.92346C6.39728 12.2939 8.32599 14.2226 10.6972 14.2226C13.0677 14.2226 14.9964 12.2939 14.9964 9.92346C14.9964 7.55225 13.0677 5.62354 10.6972 5.62354C8.32599 5.62354 6.39728 7.55225 6.39728 9.92346ZM12.0667 9.92346C12.0667 10.678 11.4518 11.2922 10.6972 11.2922C9.94189 11.2922 9.32773 10.678 9.32773 9.92346C9.32773 9.16815 9.94189 8.55399 10.6972 8.55399C11.4518 8.55399 12.0667 9.16815 12.0667 9.92346Z" fill="url(#paint1_linear)"/>
<path d="M17.3447 9.92346C17.3447 12.2939 19.2734 14.2226 21.6438 14.2226C24.0143 14.2226 25.943 12.2939 25.943 9.92346C25.943 7.55225 24.0143 5.62354 21.6438 5.62354C19.2726 5.62354 17.3447 7.55225 17.3447 9.92346ZM23.0133 9.92346C23.0133 10.678 22.3984 11.2922 21.6438 11.2922C20.8885 11.2922 20.2744 10.678 20.2744 9.92346C20.2744 9.16815 20.8885 8.55399 21.6438 8.55399C22.3984 8.55399 23.0133 9.16815 23.0133 9.92346Z" fill="url(#paint2_linear)"/>
<path d="M28.2913 9.92346C28.2913 12.2939 30.22 14.2226 32.5905 14.2226C34.9609 14.2226 36.8904 12.2939 36.8904 9.92346C36.8904 7.55225 34.9609 5.62354 32.5905 5.62354C30.22 5.62354 28.2913 7.55225 28.2913 9.92346ZM33.96 9.92346C33.96 10.678 33.345 11.2922 32.5905 11.2922C31.8352 11.2922 31.221 10.678 31.221 9.92346C31.221 9.16815 31.8352 8.55399 32.5905 8.55399C33.345 8.55399 33.96 9.16815 33.96 9.92346Z" fill="url(#paint3_linear)"/>
<path d="M93.5524 0H46.6148C45.8054 0 45.15 0.656128 45.15 1.46484C45.15 2.27432 45.8054 2.93045 46.6148 2.93045H93.5524C95.4918 2.93045 97.0703 4.50821 97.0703 6.4476V16.9991H2.93045V6.4476C2.93045 4.50821 4.50821 2.93045 6.4476 2.93045H37.368C38.1767 2.93045 38.8329 2.27432 38.8329 1.46484C38.8329 0.656128 38.1767 0 37.368 0H6.4476C2.8923 0 0 2.8923 0 6.4476V93.5524C0 97.1077 2.8923 100 6.4476 100H93.5524C97.1077 100 100 97.1077 100 93.5524V6.4476C100 2.8923 97.1077 0 93.5524 0V0ZM97.0695 93.5524C97.0695 95.4918 95.4918 97.0695 93.5524 97.0695H6.4476C4.50821 97.0695 2.93045 95.4918 2.93045 93.5524V19.9295H97.0695V93.5524Z" fill="url(#paint4_linear)"/>
<path d="M7.86288 35.8134C8.6716 35.8134 9.32773 35.1572 9.32773 34.3477V32.2016C9.32773 31.4593 9.54135 30.7413 9.94647 30.1249C10.3905 29.4482 10.2028 28.5403 9.52609 28.0955C8.85013 27.6514 7.94147 27.8399 7.49744 28.5158C6.77798 29.6114 6.39728 30.8863 6.39728 32.2016V34.3477C6.39728 35.1572 7.05341 35.8134 7.86288 35.8134Z" fill="url(#paint5_linear)"/>
<path d="M12.043 90.7357C12.3962 90.7929 12.7579 90.8212 13.118 90.8212H17.469C18.2777 90.8212 18.9339 90.165 18.9339 89.3563C18.9339 88.5469 18.2777 87.8915 17.469 87.8915H13.118C12.9135 87.8915 12.7083 87.8747 12.5091 87.8427C11.7096 87.7137 10.9581 88.2569 10.8292 89.0557C10.701 89.8553 11.2442 90.6068 12.043 90.7357Z" fill="url(#paint6_linear)"/>
<path d="M13.118 28.4109H18.3037C19.1124 28.4109 19.7685 27.7548 19.7685 26.9453C19.7685 26.1366 19.1124 25.4805 18.3037 25.4805H13.1065C12.2978 25.4805 11.647 26.1366 11.647 26.9453C11.647 27.7548 12.3085 28.4109 13.118 28.4109Z" fill="url(#paint7_linear)"/>
<path d="M22.6654 90.8213H27.8625C28.672 90.8213 29.3274 90.1652 29.3274 89.3564C29.3274 88.547 28.672 87.8916 27.8625 87.8916H22.6654C21.8567 87.8916 21.2006 88.547 21.2006 89.3564C21.2006 90.1652 21.8567 90.8213 22.6654 90.8213Z" fill="url(#paint8_linear)"/>
<path d="M23.5008 28.4109H28.6972C29.5067 28.4109 30.1621 27.7548 30.1621 26.9453C30.1621 26.1366 29.5067 25.4805 28.6972 25.4805H23.5008C22.6913 25.4805 22.0352 26.1366 22.0352 26.9453C22.0352 27.7548 22.6913 28.4109 23.5008 28.4109Z" fill="url(#paint9_linear)"/>
<path d="M7.86288 46.2069C8.6716 46.2069 9.32773 45.5508 9.32773 44.7421V39.5449C9.32773 38.7362 8.6716 38.0801 7.86288 38.0801C7.05341 38.0801 6.39728 38.7362 6.39728 39.5449V44.7421C6.39728 45.5508 7.05341 46.2069 7.86288 46.2069Z" fill="url(#paint10_linear)"/>
<path d="M8.32217 87.7168C8.52206 87.7168 8.72653 87.6756 8.92108 87.5878C9.65961 87.2567 9.9892 86.3893 9.65808 85.6507C9.43835 85.1632 9.32773 84.6414 9.32773 84.1004V81.1196C9.32773 80.3102 8.6716 79.6548 7.86288 79.6548C7.05341 79.6548 6.39728 80.3102 6.39728 81.1196V84.1004C6.39728 85.0579 6.59488 85.9834 6.98474 86.8508C7.22812 87.3948 7.76294 87.7168 8.32217 87.7168Z" fill="url(#paint11_linear)"/>
<path d="M33.0597 90.8213H38.2561C39.0656 90.8213 39.7217 90.1652 39.7217 89.3564C39.7217 88.547 39.0656 87.8916 38.2561 87.8916H33.0597C32.2502 87.8916 31.5941 88.547 31.5941 89.3564C31.5941 90.1652 32.2502 90.8213 33.0597 90.8213Z" fill="url(#paint12_linear)"/>
<path d="M7.86288 56.6C8.6716 56.6 9.32773 55.9446 9.32773 55.1351V49.938C9.32773 49.1293 8.6716 48.4731 7.86288 48.4731C7.05341 48.4731 6.39728 49.1293 6.39728 49.938V55.1351C6.39728 55.9446 7.05341 56.6 7.86288 56.6Z" fill="url(#paint13_linear)"/>
<path d="M7.86288 77.3878C8.6716 77.3878 9.32773 76.7317 9.32773 75.923V70.7259C9.32773 69.9164 8.6716 69.2603 7.86288 69.2603C7.05341 69.2603 6.39728 69.9164 6.39728 70.7259V75.923C6.39728 76.7317 7.05341 77.3878 7.86288 77.3878Z" fill="url(#paint14_linear)"/>
<path d="M7.86288 66.9943C8.6716 66.9943 9.32773 66.3382 9.32773 65.5287V60.3323C9.32773 59.5228 8.6716 58.8667 7.86288 58.8667C7.05341 58.8667 6.39728 59.5228 6.39728 60.3323V65.5287C6.39728 66.3382 7.05341 66.9943 7.86288 66.9943Z" fill="url(#paint15_linear)"/>
<path d="M53.9055 49.2964C53.096 49.2964 52.4399 49.9525 52.4399 50.7612V55.9584C52.4399 56.7679 53.096 57.424 53.9055 57.424C54.715 57.424 55.3703 56.7679 55.3703 55.9584V50.7612C55.3703 49.9525 54.715 49.2964 53.9055 49.2964Z" fill="url(#paint16_linear)"/>
<path d="M53.9055 38.9028C53.096 38.9028 52.4399 39.559 52.4399 40.3677V45.5648C52.4399 46.3743 53.096 47.0297 53.9055 47.0297C54.715 47.0297 55.3703 46.3743 55.3703 45.5648V40.3677C55.3703 39.559 54.715 38.9028 53.9055 38.9028Z" fill="url(#paint17_linear)"/>
<path d="M53.9055 59.6909C53.096 59.6909 52.4399 60.3463 52.4399 61.1558V66.3529C52.4399 67.1616 53.096 67.8178 53.9055 67.8178C54.715 67.8178 55.3703 67.1616 55.3703 66.3529V61.1558C55.3703 60.3463 54.715 59.6909 53.9055 59.6909Z" fill="url(#paint18_linear)"/>
<path d="M52.4398 32.2014V35.1715C52.4398 35.9802 53.096 36.6363 53.9055 36.6363C54.7149 36.6363 55.3703 35.9802 55.3703 35.1715V32.2014C55.3703 31.2385 55.1712 30.3085 54.7775 29.438C54.4441 28.7002 53.5759 28.3722 52.8389 28.7056C52.1019 29.0382 51.7738 29.9064 52.1072 30.6434C52.3277 31.1333 52.4398 31.6574 52.4398 32.2014Z" fill="url(#paint19_linear)"/>
<path d="M53.9055 70.0845C53.096 70.0845 52.4399 70.7406 52.4399 71.5493V76.7465C52.4399 77.5559 53.096 78.2113 53.9055 78.2113C54.715 78.2113 55.3703 77.5559 55.3703 76.7465V71.5493C55.3703 70.7398 54.715 70.0845 53.9055 70.0845Z" fill="url(#paint20_linear)"/>
<path d="M44.2878 28.4109H48.6503C48.8517 28.4109 49.0539 28.4269 49.2508 28.4582C49.3286 28.4704 49.4064 28.4765 49.4827 28.4765C50.1907 28.4765 50.8133 27.9623 50.9277 27.2413C51.0551 26.4425 50.5104 25.691 49.7116 25.5644C49.3629 25.5087 49.0059 25.4805 48.6503 25.4805H44.2878C43.4791 25.4805 42.823 26.1366 42.823 26.9453C42.823 27.7548 43.4791 28.4109 44.2878 28.4109Z" fill="url(#paint21_linear)"/>
<path d="M33.8943 28.4109H39.0915C39.9002 28.4109 40.5563 27.7548 40.5563 26.9453C40.5563 26.1366 39.9002 25.4805 39.0915 25.4805H33.8943C33.0849 25.4805 32.4295 26.1366 32.4295 26.9453C32.4295 27.7548 33.0849 28.4109 33.8943 28.4109Z" fill="url(#paint22_linear)"/>
<path d="M43.4532 90.8213H48.6725C49.4812 90.8213 50.1373 90.1652 50.1373 89.3564C50.1373 88.547 49.4812 87.8916 48.6725 87.8916H43.4532C42.6437 87.8916 41.9876 88.547 41.9876 89.3564C41.9876 90.1652 42.6437 90.8213 43.4532 90.8213Z" fill="url(#paint23_linear)"/>
<path d="M62.2933 52.194C62.3818 52.294 62.4817 52.3771 62.5885 52.4473C63.8001 53.6245 65.4511 54.3516 67.2692 54.3516H71.2937C72.1024 54.3516 72.7585 53.6955 72.7585 52.8868C72.7585 52.0773 72.1024 51.4212 71.2937 51.4212H67.2692C66.7252 51.4212 66.2102 51.3044 65.7425 51.0977L76.1383 41.8959L86.5509 51.1114C86.0909 51.3098 85.5843 51.4212 85.0525 51.4212H80.0522C79.2427 51.4212 78.5874 52.0773 78.5874 52.8868C78.5874 53.6955 79.2427 54.3516 80.0522 54.3516H85.0525C86.9484 54.3516 88.662 53.5612 89.885 52.294C89.9193 52.2627 89.9529 52.2291 89.9842 52.194C89.9903 52.1872 89.9956 52.1788 90.0017 52.1719C91.1003 50.9749 91.7725 49.3803 91.7725 47.6317V32.2012C91.7725 28.4956 88.7581 25.4805 85.0525 25.4805H67.2692C65.3542 25.4805 63.6254 26.2869 62.4001 27.5763C62.3635 27.6098 62.3276 27.6465 62.2933 27.6854C62.2788 27.7006 62.2673 27.7182 62.2536 27.7342C61.1946 28.9221 60.5492 30.4876 60.5492 32.2004V47.6309C60.5492 49.2643 61.1351 50.7628 62.1071 51.9285C62.1582 52.0216 62.22 52.1109 62.2933 52.194ZM88.8428 32.2012V47.6309C88.8428 48.1131 88.749 48.5731 88.5834 48.9973L78.3493 39.9397L88.5964 30.8699C88.7528 31.2849 88.8428 31.732 88.8428 32.2012ZM67.2692 28.4109H85.0525C85.598 28.4109 86.1153 28.5292 86.5845 28.7375L76.1383 37.9828L65.7074 28.7512C66.185 28.5345 66.7122 28.4109 67.2692 28.4109ZM63.4789 32.2012C63.4789 31.7434 63.5643 31.3063 63.7139 30.8996L73.9281 39.9397L63.7268 48.9683C63.5697 48.5518 63.4789 48.1024 63.4789 47.6309V32.2012Z" fill="url(#paint24_linear)"/>
<path d="M52.2507 88.199C52.4979 88.3607 52.7756 88.4385 53.051 88.4385C53.5286 88.4385 53.9978 88.2043 54.2786 87.7748C54.9927 86.6823 55.3703 85.412 55.3703 84.1012V81.9436C55.3703 81.1342 54.715 80.478 53.9055 80.478C53.096 80.478 52.4407 81.1342 52.4407 81.9436V84.1012C52.4407 84.8405 52.2278 85.5569 51.8257 86.1711C51.3832 86.8486 51.5732 87.7565 52.2507 88.199Z" fill="url(#paint25_linear)"/>
<path d="M62.3146 88.6396C62.3466 88.6762 62.381 88.7098 62.4161 88.7419C63.6398 90.0213 65.3625 90.8209 67.2691 90.8209H85.0525C86.9591 90.8209 88.6818 90.0213 89.9063 88.7411C89.9406 88.7091 89.9742 88.6762 90.0063 88.6396C90.0124 88.6328 90.0177 88.6244 90.0238 88.6175C91.1095 87.4235 91.7725 85.8381 91.7725 84.1001V68.6704C91.7725 66.9325 91.1102 65.3471 90.0238 64.1531C90.0177 64.1462 90.0124 64.1378 90.0063 64.131C89.9719 64.092 89.9353 64.0554 89.8979 64.0211C88.6742 62.7462 86.9553 61.9497 85.0525 61.9497H67.2691C65.3664 61.9497 63.6467 62.7462 62.4229 64.0211C62.3856 64.0554 62.3497 64.092 62.3146 64.131C62.3085 64.1378 62.3032 64.1462 62.2971 64.1531C61.2114 65.3471 60.5484 66.9325 60.5484 68.6704V84.1001C60.5484 85.8381 61.2114 87.4235 62.2971 88.6175C62.3032 88.6251 62.3085 88.6328 62.3146 88.6396ZM85.0525 87.8912H67.2691C66.7244 87.8912 66.2079 87.7729 65.7394 87.5654L76.1604 78.3422L86.5822 87.5654C86.1137 87.7729 85.5972 87.8912 85.0525 87.8912ZM88.8428 68.6704V84.1009C88.8428 84.5709 88.7527 85.0187 88.5956 85.4345L78.3714 76.3853L88.5956 67.3368C88.7527 67.7519 88.8428 68.2005 88.8428 68.6704ZM67.2691 64.8802H85.0525C85.5965 64.8802 86.1137 64.9977 86.5822 65.2052L76.1604 74.4291L65.7394 65.2052C66.2079 64.9977 66.7244 64.8802 67.2691 64.8802ZM63.4789 68.6704C63.4789 68.2005 63.5689 67.7519 63.726 67.3361L73.9502 76.3853L63.726 85.4345C63.5689 85.0187 63.4789 84.5709 63.4789 84.1001V68.6704Z" fill="url(#paint26_linear)"/>
</g>
<defs>
<linearGradient id="paint0_linear" x1="19.4164" y1="0" x2="19.4164" y2="19.9295" gradientUnits="userSpaceOnUse">
<stop stop-color="#82B1FF"/>
<stop offset="1" stop-color="#A6A7CF"/>
</linearGradient>
<linearGradient id="paint1_linear" x1="10.6968" y1="5.62354" x2="10.6968" y2="14.2226" gradientUnits="userSpaceOnUse">
<stop stop-color="#82B1FF"/>
<stop offset="1" stop-color="#A6A7CF"/>
</linearGradient>
<linearGradient id="paint2_linear" x1="21.6438" y1="5.62354" x2="21.6438" y2="14.2226" gradientUnits="userSpaceOnUse">
<stop stop-color="#82B1FF"/>
<stop offset="1" stop-color="#A6A7CF"/>
</linearGradient>
<linearGradient id="paint3_linear" x1="32.5909" y1="5.62354" x2="32.5909" y2="14.2226" gradientUnits="userSpaceOnUse">
<stop stop-color="#82B1FF"/>
<stop offset="1" stop-color="#A6A7CF"/>
</linearGradient>
<linearGradient id="paint4_linear" x1="50" y1="0" x2="50" y2="100" gradientUnits="userSpaceOnUse">
<stop stop-color="#82B1FF"/>
<stop offset="1" stop-color="#A6A7CF"/>
</linearGradient>
<linearGradient id="paint5_linear" x1="8.29221" y1="27.855" x2="8.29221" y2="35.8134" gradientUnits="userSpaceOnUse">
<stop stop-color="#82B1FF"/>
<stop offset="1" stop-color="#A6A7CF"/>
</linearGradient>
<linearGradient id="paint6_linear" x1="14.8721" y1="87.8237" x2="14.8721" y2="90.8212" gradientUnits="userSpaceOnUse">
<stop stop-color="#82B1FF"/>
<stop offset="1" stop-color="#A6A7CF"/>
</linearGradient>
<linearGradient id="paint7_linear" x1="15.7078" y1="25.4805" x2="15.7078" y2="28.4109" gradientUnits="userSpaceOnUse">
<stop stop-color="#82B1FF"/>
<stop offset="1" stop-color="#A6A7CF"/>
</linearGradient>
<linearGradient id="paint8_linear" x1="25.264" y1="87.8916" x2="25.264" y2="90.8213" gradientUnits="userSpaceOnUse">
<stop stop-color="#82B1FF"/>
<stop offset="1" stop-color="#A6A7CF"/>
</linearGradient>
<linearGradient id="paint9_linear" x1="26.0986" y1="25.4805" x2="26.0986" y2="28.4109" gradientUnits="userSpaceOnUse">
<stop stop-color="#82B1FF"/>
<stop offset="1" stop-color="#A6A7CF"/>
</linearGradient>
<linearGradient id="paint10_linear" x1="7.8625" y1="38.0801" x2="7.8625" y2="46.2069" gradientUnits="userSpaceOnUse">
<stop stop-color="#82B1FF"/>
<stop offset="1" stop-color="#A6A7CF"/>
</linearGradient>
<linearGradient id="paint11_linear" x1="8.09204" y1="79.6548" x2="8.09204" y2="87.7168" gradientUnits="userSpaceOnUse">
<stop stop-color="#82B1FF"/>
<stop offset="1" stop-color="#A6A7CF"/>
</linearGradient>
<linearGradient id="paint12_linear" x1="35.6579" y1="87.8916" x2="35.6579" y2="90.8213" gradientUnits="userSpaceOnUse">
<stop stop-color="#82B1FF"/>
<stop offset="1" stop-color="#A6A7CF"/>
</linearGradient>
<linearGradient id="paint13_linear" x1="7.8625" y1="48.4731" x2="7.8625" y2="56.6" gradientUnits="userSpaceOnUse">
<stop stop-color="#82B1FF"/>
<stop offset="1" stop-color="#A6A7CF"/>
</linearGradient>
<linearGradient id="paint14_linear" x1="7.8625" y1="69.2603" x2="7.8625" y2="77.3878" gradientUnits="userSpaceOnUse">
<stop stop-color="#82B1FF"/>
<stop offset="1" stop-color="#A6A7CF"/>
</linearGradient>
<linearGradient id="paint15_linear" x1="7.8625" y1="58.8667" x2="7.8625" y2="66.9943" gradientUnits="userSpaceOnUse">
<stop stop-color="#82B1FF"/>
<stop offset="1" stop-color="#A6A7CF"/>
</linearGradient>
<linearGradient id="paint16_linear" x1="53.9051" y1="49.2964" x2="53.9051" y2="57.424" gradientUnits="userSpaceOnUse">
<stop stop-color="#82B1FF"/>
<stop offset="1" stop-color="#A6A7CF"/>
</linearGradient>
<linearGradient id="paint17_linear" x1="53.9051" y1="38.9028" x2="53.9051" y2="47.0297" gradientUnits="userSpaceOnUse">
<stop stop-color="#82B1FF"/>
<stop offset="1" stop-color="#A6A7CF"/>
</linearGradient>
<linearGradient id="paint18_linear" x1="53.9051" y1="59.6909" x2="53.9051" y2="67.8178" gradientUnits="userSpaceOnUse">
<stop stop-color="#82B1FF"/>
<stop offset="1" stop-color="#A6A7CF"/>
</linearGradient>
<linearGradient id="paint19_linear" x1="53.6736" y1="28.5752" x2="53.6736" y2="36.6363" gradientUnits="userSpaceOnUse">
<stop stop-color="#82B1FF"/>
<stop offset="1" stop-color="#A6A7CF"/>
</linearGradient>
<linearGradient id="paint20_linear" x1="53.9051" y1="70.0845" x2="53.9051" y2="78.2113" gradientUnits="userSpaceOnUse">
<stop stop-color="#82B1FF"/>
<stop offset="1" stop-color="#A6A7CF"/>
</linearGradient>
<linearGradient id="paint21_linear" x1="46.8846" y1="25.4805" x2="46.8846" y2="28.4765" gradientUnits="userSpaceOnUse">
<stop stop-color="#82B1FF"/>
<stop offset="1" stop-color="#A6A7CF"/>
</linearGradient>
<linearGradient id="paint22_linear" x1="36.4929" y1="25.4805" x2="36.4929" y2="28.4109" gradientUnits="userSpaceOnUse">
<stop stop-color="#82B1FF"/>
<stop offset="1" stop-color="#A6A7CF"/>
</linearGradient>
<linearGradient id="paint23_linear" x1="46.0625" y1="87.8916" x2="46.0625" y2="90.8213" gradientUnits="userSpaceOnUse">
<stop stop-color="#82B1FF"/>
<stop offset="1" stop-color="#A6A7CF"/>
</linearGradient>
<linearGradient id="paint24_linear" x1="76.1608" y1="25.4805" x2="76.1608" y2="54.3516" gradientUnits="userSpaceOnUse">
<stop stop-color="#82B1FF"/>
<stop offset="1" stop-color="#A6A7CF"/>
</linearGradient>
<linearGradient id="paint25_linear" x1="53.4786" y1="80.478" x2="53.4786" y2="88.4385" gradientUnits="userSpaceOnUse">
<stop stop-color="#82B1FF"/>
<stop offset="1" stop-color="#A6A7CF"/>
</linearGradient>
<linearGradient id="paint26_linear" x1="76.1604" y1="61.9497" x2="76.1604" y2="90.8209" gradientUnits="userSpaceOnUse">
<stop stop-color="#82B1FF"/>
<stop offset="1" stop-color="#A6A7CF"/>
</linearGradient>
<clipPath id="clip0">
<rect width="100" height="100" fill="white"/>
</clipPath>
</defs>
</svg>
