<svg width="100" height="100" viewBox="0 0 100 100" fill="none" xmlns="http://www.w3.org/2000/svg">
<g clip-path="url(#clip0)">
<path d="M21.8445 30.8741C21.8445 30.8352 21.8575 30.7833 21.8704 30.7314L24.2897 22.7961C24.4331 22.3406 25.0183 22.1201 25.6165 22.1201C26.2154 22.1201 26.8005 22.3406 26.9432 22.7961L29.3762 30.7314C29.3892 30.7833 29.4022 30.8352 29.4022 30.8741C29.4022 31.3555 28.6606 31.7065 28.1013 31.7065C27.7756 31.7065 27.5162 31.6027 27.4376 31.3296L26.9958 29.7037H24.2508L23.8083 31.3296C23.7305 31.6027 23.4703 31.7065 23.1453 31.7065C22.5853 31.7065 21.8445 31.3555 21.8445 30.8741ZM26.5663 28.1428L25.6165 24.6561L24.6674 28.1428H26.5663Z" fill="url(#paint0_linear)"/>
<path d="M71.1395 22.8218C71.1395 22.406 71.582 22.1978 72.0245 22.1978H74.691C75.9918 22.1978 77.2926 22.6662 77.2926 24.5133C77.2926 25.5669 76.8768 26.2558 76.1871 26.5557C76.9806 26.8547 77.5269 27.3361 77.5269 28.637V28.9101C77.5269 30.9655 76.3824 31.707 74.9123 31.707H72.0245C71.4783 31.707 71.1395 31.4202 71.1395 31.0951V22.8218ZM73.156 25.7752H74.5224C75.016 25.7752 75.264 25.3197 75.264 24.8772C75.264 24.4217 75.0168 23.967 74.5224 23.967H73.156V25.7752ZM74.4568 29.9378C75.1076 29.9378 75.4982 29.5731 75.4982 28.7407V28.5324C75.4982 27.6482 75.1076 27.3361 74.4568 27.3361H73.1567V29.9378H74.4568Z" fill="url(#paint1_linear)"/>
<path d="M55.0369 79.8289H62.0468C62.8563 79.8289 63.5117 79.1728 63.5117 78.3633C63.5117 77.5546 62.8563 76.8984 62.0468 76.8984H55.0369C54.2274 76.8984 53.5721 77.5546 53.5721 78.3633C53.5721 79.1728 54.2274 79.8289 55.0369 79.8289Z" fill="url(#paint2_linear)"/>
<path d="M81.1203 78.3633C81.1203 77.5538 80.4642 76.8984 79.6555 76.8984H66.9464C66.1377 76.8984 65.4816 77.5538 65.4816 78.3633C65.4816 79.1728 66.1377 79.8281 66.9464 79.8281H79.6555C80.4642 79.8289 81.1203 79.1728 81.1203 78.3633Z" fill="url(#paint3_linear)"/>
<path d="M93.2785 76.8984H85.5446C84.7351 76.8984 84.0797 77.5538 84.0797 78.3633C84.0797 79.1728 84.7351 79.8281 85.5446 79.8281H93.2785C94.088 79.8281 94.7433 79.1728 94.7433 78.3633C94.7433 77.5538 94.088 76.8984 93.2785 76.8984Z" fill="url(#paint4_linear)"/>
<path d="M55.0369 85.3892H63.9191C64.7285 85.3892 65.3839 84.7338 65.3839 83.9243C65.3839 83.1148 64.7285 82.4595 63.9191 82.4595H55.0369C54.2274 82.4595 53.5721 83.1148 53.5721 83.9243C53.5721 84.7338 54.2274 85.3892 55.0369 85.3892Z" fill="url(#paint5_linear)"/>
<path d="M86.1084 83.9243C86.1084 83.1148 85.453 82.4595 84.6435 82.4595H69.5938C68.7843 82.4595 68.1282 83.1148 68.1282 83.9243C68.1282 84.7338 68.7843 85.3892 69.5938 85.3892H84.6435C85.453 85.3892 86.1084 84.7338 86.1084 83.9243Z" fill="url(#paint6_linear)"/>
<path d="M93.2785 82.4595H89.8247C89.0152 82.4595 88.3599 83.1148 88.3599 83.9243C88.3599 84.7338 89.0152 85.3892 89.8247 85.3892H93.2785C94.088 85.3892 94.7434 84.7338 94.7434 83.9243C94.7434 83.1148 94.088 82.4595 93.2785 82.4595Z" fill="url(#paint7_linear)"/>
<path d="M55.0369 91.4339H70.3331C71.1426 91.4339 71.7987 90.7777 71.7987 89.969C71.7987 89.1595 71.1426 88.5034 70.3331 88.5034H55.0369C54.2274 88.5034 53.5721 89.1595 53.5721 89.969C53.5721 90.7777 54.2274 91.4339 55.0369 91.4339Z" fill="url(#paint8_linear)"/>
<path d="M82.1762 88.5034H75.515C74.7055 88.5034 74.0502 89.1595 74.0502 89.969C74.0502 90.7777 74.7055 91.4339 75.515 91.4339H82.1762C82.9857 91.4339 83.6411 90.7777 83.6411 89.969C83.6418 89.1595 82.9857 88.5034 82.1762 88.5034Z" fill="url(#paint9_linear)"/>
<path d="M93.2785 88.5034H86.8637C86.0542 88.5034 85.3989 89.1595 85.3989 89.969C85.3989 90.7777 86.0542 91.4339 86.8637 91.4339H93.2785C94.088 91.4339 94.7433 90.7777 94.7433 89.969C94.7433 89.1595 94.088 88.5034 93.2785 88.5034Z" fill="url(#paint10_linear)"/>
<path d="M56.5994 73.8381H91.7168C93.3861 73.8381 94.7433 72.4801 94.7433 70.8115V57.5859C94.7433 55.9166 93.3861 54.5594 91.7168 54.5594H70.6757C69.8662 54.5594 69.2101 55.2147 69.2101 56.0242C69.2101 56.8337 69.8662 57.489 70.6757 57.489H91.7168C91.7702 57.489 91.8137 57.5325 91.8137 57.5859V70.8115C91.8137 70.8649 91.7702 70.9084 91.7168 70.9084H90.3282L83.2138 62.8899C82.769 62.3886 82.1297 62.0896 81.4598 62.0697C80.7907 62.0461 80.1346 62.3101 79.6608 62.7838L76.5015 65.9409L71.8742 60.7262C71.4294 60.2249 70.7901 59.9266 70.121 59.906C69.4466 59.8938 68.7958 60.1464 68.3212 60.6202L58.0284 70.9084H56.5987C56.5453 70.9084 56.5018 70.8649 56.5018 70.8115V57.5859C56.5018 57.5325 56.5453 57.489 56.5987 57.489H61.5356C62.3451 57.489 63.0005 56.8329 63.0005 56.0242C63.0005 55.2147 62.3451 54.5586 61.5356 54.5586H56.5994C54.9301 54.5586 53.5721 55.9166 53.5721 57.5859V70.8115C53.5721 72.4801 54.9301 73.8381 56.5994 73.8381ZM70.0264 63.0585L76.1589 69.97C76.6968 70.5758 77.6222 70.6307 78.228 70.0936C78.7956 69.59 78.8795 68.7447 78.4447 68.142L81.366 65.2222L86.4105 70.9084H62.1735L70.0264 63.0585Z" fill="url(#paint11_linear)"/>
<path d="M57.1426 51.042H69.3825C71.3516 51.042 72.953 49.4406 72.953 47.4715V36.6736C72.953 34.7044 71.3516 33.103 69.3825 33.103H57.1426C55.1735 33.103 53.5721 34.7044 53.5721 36.6736V47.4715C53.5721 49.4406 55.1735 51.042 57.1426 51.042ZM58.4358 48.1123L63.2629 43.8605L68.0901 48.1123H58.4358ZM70.0233 37.9065V45.9105L65.4793 41.9081L70.0233 37.9065ZM67.717 36.0327L63.2629 39.9565L58.8081 36.0327H67.717ZM56.5018 37.9065L61.0458 41.9089L56.5018 45.9105V37.9065Z" fill="url(#paint12_linear)"/>
<path d="M78.933 51.042H91.1728C93.142 51.042 94.7434 49.4406 94.7434 47.4715V36.6736C94.7434 34.7044 93.142 33.103 91.1728 33.103H78.933C76.9638 33.103 75.3624 34.7044 75.3624 36.6736V47.4715C75.3624 49.4406 76.9638 51.042 78.933 51.042ZM80.2262 48.1123L85.0533 43.8605L89.8804 48.1123H80.2262ZM91.8137 37.9065V45.9105L87.2696 41.9081L91.8137 37.9065ZM89.5073 36.0327L85.0533 39.9565L80.5985 36.0327H89.5073ZM78.2921 37.9065L82.8362 41.9089L78.2921 45.9105V37.9065Z" fill="url(#paint13_linear)"/>
<path d="M10.6971 5.62354C8.32593 5.62354 6.39722 7.55225 6.39722 9.92346C6.39722 12.2939 8.32593 14.2226 10.6971 14.2226C13.0676 14.2226 14.9963 12.2939 14.9963 9.92346C14.9963 7.55225 13.0676 5.62354 10.6971 5.62354ZM10.6971 11.2922C9.94183 11.2922 9.32767 10.678 9.32767 9.92346C9.32767 9.16815 9.94183 8.55398 10.6971 8.55398C11.4517 8.55398 12.0666 9.16815 12.0666 9.92346C12.0666 10.678 11.4517 11.2922 10.6971 11.2922Z" fill="url(#paint14_linear)"/>
<path d="M21.6438 5.62354C19.2726 5.62354 17.3447 7.55225 17.3447 9.92346C17.3447 12.2939 19.2726 14.2226 21.6438 14.2226C24.0143 14.2226 25.943 12.2939 25.943 9.92346C25.943 7.55225 24.0143 5.62354 21.6438 5.62354ZM21.6438 11.2922C20.8885 11.2922 20.2744 10.678 20.2744 9.92346C20.2744 9.16815 20.8885 8.55398 21.6438 8.55398C22.3984 8.55398 23.0125 9.16815 23.0125 9.92346C23.0125 10.678 22.3984 11.2922 21.6438 11.2922Z" fill="url(#paint15_linear)"/>
<path d="M32.5905 5.62354C30.22 5.62354 28.2913 7.55225 28.2913 9.92346C28.2913 12.2939 30.22 14.2226 32.5905 14.2226C34.9609 14.2226 36.8896 12.2939 36.8896 9.92346C36.8896 7.55225 34.9609 5.62354 32.5905 5.62354ZM32.5905 11.2922C31.8352 11.2922 31.221 10.678 31.221 9.92346C31.221 9.16815 31.8352 8.55398 32.5905 8.55398C33.3458 8.55398 33.96 9.16815 33.96 9.92346C33.96 10.678 33.3458 11.2922 32.5905 11.2922Z" fill="url(#paint16_linear)"/>
<path d="M93.5516 0H6.4476C2.8923 0 0 2.8923 0 6.4476V18.4647C0 18.4792 0.00152588 18.4937 0.00228883 18.5089C0.00152588 18.5242 0 18.5387 0 18.5539V26.6891C0 27.4986 0.656128 28.154 1.46484 28.154C2.27432 28.154 2.92969 27.4986 2.92969 26.6891V20.0188H48.4253V97.0016H6.43692C4.50363 97.0016 2.93045 95.4231 2.93045 93.483V35.8704C2.93045 35.0609 2.27432 34.4055 1.46561 34.4055C0.656128 34.4055 0 35.0609 0 35.8704V93.483C0 96.8742 2.62756 99.6605 5.95016 99.9107C6.1058 99.9672 6.27289 99.9992 6.4476 99.9992H93.5516C97.1069 99.9992 100 97.1069 100 93.5516V6.4476C100 2.8923 97.1069 0 93.5516 0V0ZM97.0695 93.5516C97.0695 95.4918 95.4918 97.0695 93.5516 97.0695H51.3557V19.9295H97.0695V93.5516ZM97.0695 16.9991H2.93045V6.4476C2.93045 4.50821 4.50821 2.93045 6.44836 2.93045H93.5524C95.4918 2.93045 97.0703 4.50821 97.0703 6.4476V16.9991H97.0695Z" fill="url(#paint17_linear)"/>
<path d="M46.209 36.1296C46.209 34.4611 44.8509 33.103 43.1816 33.103H8.06427C6.39496 33.103 5.03693 34.4611 5.03693 36.1296V49.3552C5.03693 51.0245 6.39496 52.3825 8.06427 52.3825H43.1816C44.8509 52.3825 46.209 51.0245 46.209 49.3552V36.1296ZM13.6383 49.4521L21.4912 41.6029L27.6245 48.5144C28.1616 49.1194 29.0878 49.1751 29.6928 48.638C30.2605 48.1337 30.3444 47.2884 29.9095 46.6856L32.8308 43.7666L37.8754 49.4521H13.6383ZM43.2785 49.3552C43.2785 49.4086 43.2358 49.4521 43.1816 49.4521H41.7938L34.6786 41.4343C34.2346 40.9331 33.5953 40.634 32.9254 40.6134C32.2479 40.5913 31.6002 40.8537 31.1256 41.3275L27.9671 44.4846L23.3391 39.2699C22.8951 38.7686 22.2557 38.4703 21.5858 38.4497C20.9213 38.4322 20.2606 38.69 19.7868 39.1638L9.49402 49.4521H8.06427C8.01086 49.4521 7.96738 49.4086 7.96738 49.3552V36.1296C7.96738 36.077 8.0101 36.0327 8.06427 36.0327H43.1816C43.235 36.0327 43.2785 36.077 43.2785 36.1296V49.3552Z" fill="url(#paint18_linear)"/>
<path d="M10.8902 55.9121H7.3631C6.55362 55.9121 5.89825 56.5675 5.89825 57.377C5.89825 58.1857 6.55362 58.8418 7.3631 58.8418H10.8902C11.6996 58.8418 12.3558 58.1857 12.3558 57.377C12.3558 56.5675 11.6996 55.9121 10.8902 55.9121Z" fill="url(#paint19_linear)"/>
<path d="M16.2087 58.8418H43.8828C44.6923 58.8418 45.3476 58.1857 45.3476 57.377C45.3476 56.5675 44.6923 55.9121 43.8828 55.9121H16.2087C15.3992 55.9121 14.7438 56.5675 14.7438 57.377C14.7438 58.1857 15.3992 58.8418 16.2087 58.8418Z" fill="url(#paint20_linear)"/>
<path d="M10.8902 61.6699H7.3631C6.55362 61.6699 5.89825 62.3253 5.89825 63.1348C5.89825 63.9442 6.55362 64.5996 7.3631 64.5996H10.8902C11.6996 64.5996 12.3558 63.9442 12.3558 63.1348C12.3558 62.3253 11.6996 61.6699 10.8902 61.6699Z" fill="url(#paint21_linear)"/>
<path d="M16.2087 64.5996H43.8828C44.6923 64.5996 45.3476 63.9442 45.3476 63.1348C45.3476 62.326 44.6923 61.6699 43.8828 61.6699H16.2087C15.3992 61.6699 14.7438 62.326 14.7438 63.1348C14.7438 63.9442 15.3992 64.5996 16.2087 64.5996Z" fill="url(#paint22_linear)"/>
<path d="M10.8902 67.4277H7.3631C6.55362 67.4277 5.89825 68.0839 5.89825 68.8926C5.89825 69.7021 6.55362 70.3582 7.3631 70.3582H10.8902C11.6996 70.3582 12.3558 69.7021 12.3558 68.8926C12.3558 68.0839 11.6996 67.4277 10.8902 67.4277Z" fill="url(#paint23_linear)"/>
<path d="M16.2087 70.3582H43.8828C44.6923 70.3582 45.3476 69.7021 45.3476 68.8933C45.3476 68.0839 44.6923 67.4277 43.8828 67.4277H16.2087C15.3992 67.4277 14.7438 68.0839 14.7438 68.8933C14.7438 69.7021 15.3992 70.3582 16.2087 70.3582Z" fill="url(#paint24_linear)"/>
<path d="M5.03693 87.8624C5.03693 89.8315 6.6391 91.4329 8.60748 91.4329H20.8481C22.8165 91.4329 24.4186 89.8315 24.4186 87.8624V77.0645C24.4186 75.0953 22.8165 73.4932 20.8481 73.4932H8.60748C6.6391 73.4932 5.03693 75.0953 5.03693 77.0645V87.8624ZM9.90067 88.5032L14.7278 84.2521L19.5549 88.5032H9.90067ZM21.4882 78.2974V86.3014L16.9441 82.2998L21.4882 78.2974ZM19.1826 76.4236L14.7278 80.3474L10.273 76.4236H19.1826ZM7.96738 78.2974L12.5114 82.2998L7.96738 86.3014V78.2974Z" fill="url(#paint25_linear)"/>
<path d="M30.3978 91.4329H42.6376C44.6068 91.4329 46.2089 89.8315 46.2089 87.8624V77.0645C46.2089 75.0953 44.6068 73.4932 42.6376 73.4932H30.3978C28.4294 73.4932 26.8272 75.0953 26.8272 77.0645V87.8624C26.8272 89.8315 28.4294 91.4329 30.3978 91.4329ZM31.6909 88.5032L36.5181 84.2521L41.3452 88.5032H31.6909ZM43.2785 78.2974V86.3014L38.7352 82.299L43.2785 78.2974ZM40.9729 76.4236L36.5181 80.3474L32.0633 76.4236H40.9729ZM29.7577 78.2974L34.3017 82.2998L29.7577 86.3014V78.2974Z" fill="url(#paint26_linear)"/>
</g>
<defs>
<linearGradient id="paint0_linear" x1="25.6233" y1="22.1201" x2="25.6233" y2="31.7065" gradientUnits="userSpaceOnUse">
<stop stop-color="#82B1FF"/>
<stop offset="1" stop-color="#A6A7CF"/>
</linearGradient>
<linearGradient id="paint1_linear" x1="74.3332" y1="22.1978" x2="74.3332" y2="31.707" gradientUnits="userSpaceOnUse">
<stop stop-color="#82B1FF"/>
<stop offset="1" stop-color="#A6A7CF"/>
</linearGradient>
<linearGradient id="paint2_linear" x1="58.5419" y1="76.8984" x2="58.5419" y2="79.8289" gradientUnits="userSpaceOnUse">
<stop stop-color="#82B1FF"/>
<stop offset="1" stop-color="#A6A7CF"/>
</linearGradient>
<linearGradient id="paint3_linear" x1="73.3009" y1="76.8984" x2="73.3009" y2="79.8281" gradientUnits="userSpaceOnUse">
<stop stop-color="#82B1FF"/>
<stop offset="1" stop-color="#A6A7CF"/>
</linearGradient>
<linearGradient id="paint4_linear" x1="89.4115" y1="76.8984" x2="89.4115" y2="79.8281" gradientUnits="userSpaceOnUse">
<stop stop-color="#82B1FF"/>
<stop offset="1" stop-color="#A6A7CF"/>
</linearGradient>
<linearGradient id="paint5_linear" x1="59.478" y1="82.4595" x2="59.478" y2="85.3892" gradientUnits="userSpaceOnUse">
<stop stop-color="#82B1FF"/>
<stop offset="1" stop-color="#A6A7CF"/>
</linearGradient>
<linearGradient id="paint6_linear" x1="77.1183" y1="82.4595" x2="77.1183" y2="85.3892" gradientUnits="userSpaceOnUse">
<stop stop-color="#82B1FF"/>
<stop offset="1" stop-color="#A6A7CF"/>
</linearGradient>
<linearGradient id="paint7_linear" x1="91.5516" y1="82.4595" x2="91.5516" y2="85.3892" gradientUnits="userSpaceOnUse">
<stop stop-color="#82B1FF"/>
<stop offset="1" stop-color="#A6A7CF"/>
</linearGradient>
<linearGradient id="paint8_linear" x1="62.6854" y1="88.5034" x2="62.6854" y2="91.4339" gradientUnits="userSpaceOnUse">
<stop stop-color="#82B1FF"/>
<stop offset="1" stop-color="#A6A7CF"/>
</linearGradient>
<linearGradient id="paint9_linear" x1="78.8456" y1="88.5034" x2="78.8456" y2="91.4339" gradientUnits="userSpaceOnUse">
<stop stop-color="#82B1FF"/>
<stop offset="1" stop-color="#A6A7CF"/>
</linearGradient>
<linearGradient id="paint10_linear" x1="90.0711" y1="88.5034" x2="90.0711" y2="91.4339" gradientUnits="userSpaceOnUse">
<stop stop-color="#82B1FF"/>
<stop offset="1" stop-color="#A6A7CF"/>
</linearGradient>
<linearGradient id="paint11_linear" x1="74.1577" y1="54.5586" x2="74.1577" y2="73.8381" gradientUnits="userSpaceOnUse">
<stop stop-color="#82B1FF"/>
<stop offset="1" stop-color="#A6A7CF"/>
</linearGradient>
<linearGradient id="paint12_linear" x1="63.2626" y1="33.103" x2="63.2626" y2="51.042" gradientUnits="userSpaceOnUse">
<stop stop-color="#82B1FF"/>
<stop offset="1" stop-color="#A6A7CF"/>
</linearGradient>
<linearGradient id="paint13_linear" x1="85.0529" y1="33.103" x2="85.0529" y2="51.042" gradientUnits="userSpaceOnUse">
<stop stop-color="#82B1FF"/>
<stop offset="1" stop-color="#A6A7CF"/>
</linearGradient>
<linearGradient id="paint14_linear" x1="10.6968" y1="5.62354" x2="10.6968" y2="14.2226" gradientUnits="userSpaceOnUse">
<stop stop-color="#82B1FF"/>
<stop offset="1" stop-color="#A6A7CF"/>
</linearGradient>
<linearGradient id="paint15_linear" x1="21.6438" y1="5.62354" x2="21.6438" y2="14.2226" gradientUnits="userSpaceOnUse">
<stop stop-color="#82B1FF"/>
<stop offset="1" stop-color="#A6A7CF"/>
</linearGradient>
<linearGradient id="paint16_linear" x1="32.5905" y1="5.62354" x2="32.5905" y2="14.2226" gradientUnits="userSpaceOnUse">
<stop stop-color="#82B1FF"/>
<stop offset="1" stop-color="#A6A7CF"/>
</linearGradient>
<linearGradient id="paint17_linear" x1="50" y1="0" x2="50" y2="99.9992" gradientUnits="userSpaceOnUse">
<stop stop-color="#82B1FF"/>
<stop offset="1" stop-color="#A6A7CF"/>
</linearGradient>
<linearGradient id="paint18_linear" x1="25.6229" y1="33.103" x2="25.6229" y2="52.3825" gradientUnits="userSpaceOnUse">
<stop stop-color="#82B1FF"/>
<stop offset="1" stop-color="#A6A7CF"/>
</linearGradient>
<linearGradient id="paint19_linear" x1="9.12701" y1="55.9121" x2="9.12701" y2="58.8418" gradientUnits="userSpaceOnUse">
<stop stop-color="#82B1FF"/>
<stop offset="1" stop-color="#A6A7CF"/>
</linearGradient>
<linearGradient id="paint20_linear" x1="30.0457" y1="55.9121" x2="30.0457" y2="58.8418" gradientUnits="userSpaceOnUse">
<stop stop-color="#82B1FF"/>
<stop offset="1" stop-color="#A6A7CF"/>
</linearGradient>
<linearGradient id="paint21_linear" x1="9.12701" y1="61.6699" x2="9.12701" y2="64.5996" gradientUnits="userSpaceOnUse">
<stop stop-color="#82B1FF"/>
<stop offset="1" stop-color="#A6A7CF"/>
</linearGradient>
<linearGradient id="paint22_linear" x1="30.0457" y1="61.6699" x2="30.0457" y2="64.5996" gradientUnits="userSpaceOnUse">
<stop stop-color="#82B1FF"/>
<stop offset="1" stop-color="#A6A7CF"/>
</linearGradient>
<linearGradient id="paint23_linear" x1="9.12701" y1="67.4277" x2="9.12701" y2="70.3582" gradientUnits="userSpaceOnUse">
<stop stop-color="#82B1FF"/>
<stop offset="1" stop-color="#A6A7CF"/>
</linearGradient>
<linearGradient id="paint24_linear" x1="30.0457" y1="67.4277" x2="30.0457" y2="70.3582" gradientUnits="userSpaceOnUse">
<stop stop-color="#82B1FF"/>
<stop offset="1" stop-color="#A6A7CF"/>
</linearGradient>
<linearGradient id="paint25_linear" x1="14.7278" y1="73.4932" x2="14.7278" y2="91.4329" gradientUnits="userSpaceOnUse">
<stop stop-color="#82B1FF"/>
<stop offset="1" stop-color="#A6A7CF"/>
</linearGradient>
<linearGradient id="paint26_linear" x1="36.5181" y1="73.4932" x2="36.5181" y2="91.4329" gradientUnits="userSpaceOnUse">
<stop stop-color="#82B1FF"/>
<stop offset="1" stop-color="#A6A7CF"/>
</linearGradient>
<clipPath id="clip0">
<rect width="100" height="100" fill="white"/>
</clipPath>
</defs>
</svg>
