<svg width="100" height="100" viewBox="0 0 100 100" xmlns="http://www.w3.org/2000/svg">
<path d="M80.393 9.96777H39.9294C38.8528 9.96777 37.98 10.637 37.98 11.4622C37.98 12.2874 38.853 12.9565 39.9294 12.9565H80.393C81.4696 12.9565 82.3424 12.2873 82.3424 11.4622C82.3424 10.637 81.4694 9.96777 80.393 9.96777Z" fill="white"/>
<path d="M18.7815 10.4496C18.496 10.1641 18.1002 10 17.6964 10C17.2928 10 16.8969 10.1641 16.6115 10.4496C16.326 10.7351 16.1618 11.1295 16.1618 11.5347C16.1618 11.9383 16.326 12.3342 16.6115 12.6196C16.8967 12.9051 17.2928 13.0693 17.6964 13.0693C18.1002 13.0693 18.496 12.9051 18.7815 12.6196C19.067 12.3344 19.2311 11.9383 19.2311 11.5347C19.2311 11.1309 19.067 10.735 18.7815 10.4496Z" fill="white"/>
<path d="M13.1415 10.4496C12.8559 10.1641 12.4602 10 12.0564 10C11.6528 10 11.2569 10.1641 10.9715 10.4496C10.686 10.7351 10.5217 11.131 10.5217 11.5347C10.5217 11.9383 10.686 12.3342 10.9715 12.6196C11.2567 12.9051 11.6528 13.0693 12.0564 13.0693C12.4602 13.0693 12.8559 12.9051 13.1415 12.6196C13.427 12.3344 13.5911 11.9383 13.5911 11.5347C13.5912 11.1309 13.4271 10.735 13.1415 10.4496Z" fill="white"/>
<path d="M24.4215 10.4496C24.1346 10.1641 23.7402 10 23.3349 10C22.9313 10 22.5369 10.1641 22.25 10.4496C21.9646 10.7351 21.8003 11.131 21.8003 11.5347C21.8003 11.9383 21.9645 12.3342 22.25 12.6196C22.5368 12.9051 22.9313 13.0693 23.3349 13.0693C23.7402 13.0693 24.1345 12.9051 24.4215 12.6196C24.707 12.3344 24.8696 11.9383 24.8696 11.5347C24.8697 11.1309 24.707 10.735 24.4215 10.4496Z" fill="white"/>
<path d="M99.4291 84.3181L83.4737 68.5368L86.49 65.6074C86.49 65.6074 86.4914 65.5193 86.492 65.6057C86.4926 65.5181 86.4932 65.5174 86.4937 65.6037L88.9008 63.2836L96.4822 70.8653C97.2437 71.6264 98.6733 72.4567 99.4348 71.6956C100.196 70.9343 100.001 69.7392 99.2393 68.9778L90.2795 60.0181C89.5183 59.2571 88.2844 59.2567 87.5225 60.0181L85.1135 62.4268L83.9465 61.2599C87.2984 57.2858 89.3217 52.1563 89.3217 46.5626C89.3217 33.9745 79.0805 23.7333 66.4924 23.7333C60.0072 23.7333 54.1449 26.4517 49.9852 30.8085C49.9668 30.8079 49.949 30.8058 49.9307 30.8058H12.4764C11.3998 30.8058 10.527 31.6788 10.527 32.7552V60.0474C10.527 61.1239 11.4 61.9968 12.4764 61.9968H49.6863C53.8621 66.5399 59.85 69.3921 66.4922 69.3921C72.0859 69.3921 77.215 67.3686 81.1894 64.0169L82.3564 65.1839L79.9469 67.5935C79.5814 67.9589 79.376 68.455 79.376 68.972C79.376 69.489 79.5814 69.9847 79.9469 70.3505L88.1146 77.6487V86.9497C88.1146 89.3145 86.1908 92.1079 83.826 92.1079H8.1877C5.82285 92.1079 3.02946 89.3145 3.02946 86.9497V21.0573C3.03668 20.1878 3.91328 20.1889 3.92031 20.1889H88.9844V29.8452C88.9844 30.9218 89.4454 31.7825 90.5217 31.7825C91.5981 31.7825 92.0137 30.9216 92.0137 29.8452V11.3112C92.0137 6.79658 88.3408 3.12354 83.826 3.12354H8.1877C3.67285 3.12354 0 6.79658 0 11.3112V86.9495C0 91.4642 3.67285 95.1372 8.1877 95.1372H83.826C88.3406 95.1372 92.0137 91.4644 92.0137 86.9495V82.4167L96.913 87.1304C97.6005 87.6931 98.913 87.8695 99.3913 87.4782C100.152 86.7169 100.19 85.0794 99.4291 84.3181ZM43.6703 47.156L44 50.5C44.9561 50.0051 43.5051 49.5438 44 50.5C43.0439 50.9949 44.3828 51.4345 44.8777 52.3909L42.3287 53.046C42.6754 53.7157 43.3562 54.0995 44.0615 54.0995C44.3361 54.0995 44.6141 54.0382 44.8777 53.9159C45.3779 55.3825 46.8942 57.6513 47.668 58.9673H13.5562V33.8348H47.8604C45.7496 37.2932 43.6627 42.2229 43.6627 46.5624C43.6627 46.761 43.6652 46.9589 43.6703 47.156ZM66.4922 66.3622C56.0541 66.3622 47.5617 57.0007 47.5617 46.5624C47.5617 46.4138 47.5639 46.2657 47.5674 46.1179L50.5 51.5L51.5 52C51.8354 52.6479 52.1568 54.0989 52.8846 54.0989C54 54.5 52.9043 54.0989 52.9139 54.0987C52.8846 54.0989 50.1801 48.6662 50.5 48L47.5674 43.8159C47.5674 34.3248 57.8578 26.7624 66.4922 26.7624C76.9305 26.7624 86.2922 36.1243 86.2922 46.5624C86.2922 57.0005 76.9303 66.3622 66.4922 66.3622ZM3.02926 11.3112C3.02926 8.94639 5.82266 6.15299 8.1875 6.15299H83.8258C86.1906 6.15299 88.984 8.94639 88.984 11.3112V17.1595H3.92012C3.91289 17.1595 3.03629 17.1604 3.02926 17.1606V11.3112Z" fill="white"/>
<path d="M13.1149 78.0974C12.8326 77.8134 12.4405 77.6523 12.0409 77.6523C11.6414 77.6523 11.2494 77.8134 10.9668 78.0974C10.6841 78.3801 10.5217 78.772 10.5217 79.1715C10.5217 79.5711 10.6841 79.963 10.9668 80.2455C11.2494 80.5282 11.6414 80.6908 12.0409 80.6908C12.4405 80.6908 12.8324 80.5282 13.1149 80.2455C13.3975 79.9632 13.5601 79.5711 13.5601 79.1715C13.5601 78.772 13.3975 78.3801 13.1149 78.0974Z" fill="white"/>
<path d="M57.1319 77.6836H19.1694C18.0928 77.6836 17.22 78.3579 17.22 79.1896C17.22 80.0213 18.093 80.6957 19.1694 80.6957H57.1317C58.2082 80.6957 59.0811 80.0212 59.0811 79.1896C59.0813 78.3579 58.2084 77.6836 57.1319 77.6836Z" fill="white"/>
<path d="M49.9058 68.3257H38.404C37.3274 68.3257 36.4546 68.9927 36.4546 69.8151C36.4546 70.6376 37.3276 71.3044 38.404 71.3044H49.9058C50.9823 71.3044 51.8552 70.6374 51.8552 69.8151C51.8552 68.9927 50.9823 68.3257 49.9058 68.3257Z" fill="white"/>
<path d="M29.6491 68.3257H12.4763C11.3997 68.3257 10.5269 68.9927 10.5269 69.8151C10.5269 70.6376 11.3999 71.3044 12.4763 71.3044H29.6491C30.7257 71.3044 31.5985 70.6374 31.5985 69.8151C31.5985 68.9927 30.7257 68.3257 29.6491 68.3257Z" fill="white"/>
<path d="M52.2116 54.6722C52.2489 54.6722 52.2863 54.6707 52.3245 54.6676C52.8494 54.6272 53.3125 54.3083 53.5368 53.8322L58.605 43.09C58.9506 42.3584 58.637 41.4856 57.9054 41.1407C57.1745 40.7951 56.3009 41.1079 55.9561 41.8403L51.985 50.2556L49.3147 46.3043C49.0423 45.9015 48.5884 45.6604 48.1024 45.6596C48.1016 45.6596 48.1016 45.6596 48.1008 45.6596C47.6156 45.6596 47.1617 45.9007 46.8885 46.302L44.2007 50.2609L40.2273 41.8403C39.8825 41.1087 39.0089 40.7951 38.278 41.1407C37.5463 41.4856 37.2328 42.3584 37.5776 43.09L42.6466 53.8322C42.8709 54.3083 43.3332 54.6272 43.8574 54.6676C44.3823 54.7081 44.8873 54.4647 45.1834 54.0298L48.0978 49.7368L50.9985 54.0275C51.2716 54.4326 51.7279 54.6722 52.2116 54.6722Z" fill="white"/>
<path d="M65.8887 53.8322C66.113 54.3083 66.5754 54.6272 67.0995 54.6676C67.6244 54.7081 68.1303 54.4647 68.4255 54.0298L71.3407 49.7368L74.2406 54.0275C74.5145 54.4326 74.97 54.6722 75.4537 54.6722C75.4911 54.6722 75.5292 54.6707 75.5666 54.6676C76.0915 54.6272 76.5546 54.3083 76.7789 53.8322L81.8479 43.09C82.1928 42.3584 81.88 41.4856 81.1475 41.1407C80.4166 40.7951 79.5431 41.1079 79.1982 41.8403L75.2271 50.2556L72.5568 46.3043C72.2845 45.9015 71.8305 45.6604 71.3445 45.6596C71.3438 45.6596 71.3438 45.6596 71.343 45.6596C70.8578 45.6596 70.4038 45.9007 70.1314 46.302L67.4428 50.2609L63.4695 41.8403C63.1246 41.1087 62.251 40.7951 61.5201 41.1407C60.7885 41.4856 60.4749 42.3584 60.8205 43.09L65.8887 53.8322Z" fill="white"/>
<path d="M34.4679 41.1407C33.737 40.7951 32.8634 41.1079 32.5186 41.8403L28.5475 50.2556L25.8772 46.3043C25.6048 45.9015 25.1509 45.6604 24.6649 45.6596C24.6641 45.6596 24.6641 45.6596 24.6633 45.6596C24.1781 45.6596 23.7242 45.9007 23.451 46.302L20.7632 50.2609L16.7898 41.8403C16.445 41.1087 15.5714 40.7951 14.8405 41.1407C14.1088 41.4856 13.7953 42.3584 14.1401 43.09L19.2091 53.8322C19.4334 54.3083 19.8957 54.6272 20.4199 54.6676C20.944 54.7081 21.4498 54.4647 21.7459 54.0298L24.6603 49.7368L27.561 54.0275C27.8341 54.4326 28.2904 54.6722 28.7741 54.6722C28.8114 54.6722 28.8488 54.6707 28.887 54.6676C29.4119 54.6272 29.8742 54.3083 30.0993 53.8322L35.1675 43.09C35.5131 42.3584 35.1995 41.4856 34.4679 41.1407Z" fill="white"/>
</svg>
