<svg width="58" height="58" viewBox="0 0 58 58" fill="none" xmlns="http://www.w3.org/2000/svg">
<g clip-path="url(#clip0)">
<path d="M57.2443 5.26878C56.7041 4.81854 55.9604 4.7014 55.3079 4.96353L6.39277 24.707C5.89805 24.907 5.65912 25.4703 5.85912 25.965C6.05911 26.4597 6.62242 26.6986 7.11714 26.4986L53.8457 7.6438L30.6659 34.9825C30.321 35.3895 30.3714 35.999 30.7784 36.3438C31.1854 36.6887 31.7949 36.6383 32.1397 36.2313L55.67 8.47728L52.5253 24.2627L49.3574 45.4307C49.3139 45.7269 49.1356 45.9863 48.8745 46.1329C48.6241 46.2726 48.3225 46.2866 48.0602 46.1706L34.8893 40.9918L28.569 38.3455C28.0772 38.1391 27.5112 38.3704 27.3047 38.8621C27.2837 38.9283 27.27 38.9967 27.2642 39.066H27.241L24.103 51.1832L19.6004 35.4548L43.0699 17.9734C43.3698 17.7764 43.5359 17.4293 43.5009 17.0721C43.4659 16.7149 43.2358 16.4066 42.9034 16.2715C42.571 16.1363 42.1909 16.1967 41.9167 16.4281L18.3265 33.9914L1.3222 27.108C0.828722 26.9123 0.269827 27.1515 0.0707386 27.6436C-0.128349 28.1357 0.10707 28.6962 0.597829 28.8987L17.6929 35.8159L22.2516 51.7308C22.4889 52.5528 23.2426 53.1177 24.0982 53.1148H24.1204C24.5869 53.1064 25.0338 52.9265 25.376 52.6096C25.4097 52.5894 25.442 52.5667 25.4725 52.5421L34.8081 42.9959L47.3252 47.9593C48.1296 48.301 49.0472 48.2496 49.8083 47.8202C50.5927 47.3851 51.1305 46.6104 51.2639 45.7234L54.4231 24.595L57.9001 7.15123C58.0447 6.45086 57.7928 5.72762 57.2443 5.26878ZM26.8103 48.4179L28.8492 40.559L32.0422 41.8995L32.865 42.2259L26.8103 48.4179Z" fill="url(#paint0_linear)"/>
</g>
<defs>
<linearGradient id="paint0_linear" x1="28.9701" y1="4.82568" x2="28.9701" y2="53.1148" gradientUnits="userSpaceOnUse">
<stop stop-color="#82B1FF"/>
<stop offset="1" stop-color="#A6A7CF"/>
</linearGradient>
<clipPath id="clip0">
<rect width="57.9404" height="57.9404" fill="white"/>
</clipPath>
</defs>
</svg>
