<svg width="58" height="58" viewBox="0 0 58 58" fill="none" xmlns="http://www.w3.org/2000/svg">
<g clip-path="url(#clip0)">
<path d="M41.8356 32.5843L35.7902 29.8073C34.9217 29.4187 34.0645 29.7158 33.4931 30.3787L31.1961 33.35C29.4705 32.6757 24.6707 30.5729 21.8936 25.3846L24.0078 22.8933C24.4878 22.3219 24.5792 21.5448 24.2935 20.8819L21.6994 14.7451C21.4137 14.0708 20.8308 13.5908 20.0651 13.5908L18.2481 13.4994C17.4824 13.4994 16.6139 13.6937 16.0425 14.2651C15.1739 15.0308 13.5511 16.665 13.0712 18.8706C12.3969 22.0362 13.4597 25.7732 16.1453 29.4187C17.7795 31.7158 22.7622 38.5269 32.3503 41.2125C33.3103 41.4982 34.2702 41.6011 35.1274 41.6011C36.7616 41.6011 38.2929 41.1211 39.63 40.3554C41.1614 39.3954 42.2242 37.7612 42.6013 36.0356L42.887 34.6871C43.0813 33.8414 42.6013 32.9728 41.8356 32.5843ZM40.59 35.567C40.3043 36.8127 39.5386 37.9669 38.4758 38.6412C36.8416 39.6926 34.9217 39.8868 32.8189 39.3154C23.8936 36.8241 19.1966 30.3901 17.6652 28.2873C15.3682 25.1218 14.4082 21.8647 14.9796 19.2706C15.3682 17.5449 16.6139 16.2993 17.3795 15.625C17.5738 15.4307 17.8595 15.3393 18.1452 15.3393L20.0651 15.5336L22.6593 21.579L20.3508 24.1504C19.9623 24.6303 19.8709 25.396 20.1566 25.9674C23.3221 32.1043 29.0819 34.5042 30.8075 35.0756C31.4818 35.2699 32.1561 35.0756 32.6246 34.5042L34.9217 31.4301L40.9671 34.2071L40.59 35.567Z" fill="white"/>
<path d="M18.2622 57.9177L17.5765 49.3124H17.5308C10.4568 49.3124 4.69702 43.5526 4.69702 36.4787V12.9482C4.69702 5.87426 10.4453 0.114502 17.5308 0.114502H41.0612C48.1352 0.114502 53.8949 5.87426 53.8949 12.9482V36.4787C53.8949 43.5526 48.1352 49.3124 41.0612 49.3124H28.1817L18.2622 57.9177ZM17.5308 2.05728C11.5196 2.05728 6.6398 6.9485 6.6398 12.9482V36.4787C6.6398 42.4898 11.531 47.3696 17.5308 47.3696H19.3707L19.8964 53.9293L27.4618 47.3696H41.0612C47.0723 47.3696 51.9521 42.4784 51.9521 36.4787V12.9482C51.9521 6.93707 47.0609 2.05728 41.0612 2.05728H17.5308Z" fill="white"/>
<path d="M29.699 18.5279C29.0819 18.3565 28.4534 18.7108 28.282 19.3165C28.1105 19.9222 28.4648 20.5621 29.0705 20.7336C30.7847 21.225 32.1561 22.5849 32.6361 24.3105C32.7732 24.8134 33.2417 25.1448 33.7446 25.1448C33.8474 25.1448 33.9503 25.1334 34.0531 25.0991C34.6588 24.9277 35.0245 24.2877 34.8531 23.682C34.156 21.2135 32.1789 19.225 29.699 18.5279Z" fill="white"/>
<path d="M38.4644 25.3955C38.5672 25.3955 38.6701 25.3841 38.7729 25.3498C39.39 25.1784 39.7443 24.5384 39.5729 23.9327C38.2129 19.1215 34.3845 15.2816 29.5733 13.9103C28.9676 13.7388 28.3277 14.0931 28.1562 14.6988C27.9848 15.3045 28.3391 15.9445 28.9448 16.1159C32.9903 17.2701 36.213 20.5043 37.3558 24.5498C37.5044 25.0641 37.9615 25.3955 38.4644 25.3955Z" fill="white"/>
<path d="M29.0706 8.55089C28.4535 8.37946 27.825 8.73374 27.6535 9.33942C27.4821 9.94511 27.8364 10.5851 28.4421 10.7565C35.2989 12.7107 40.7616 18.1848 42.7043 25.0416C42.8415 25.5444 43.31 25.8759 43.8129 25.8759C43.9157 25.8759 44.0186 25.8644 44.1214 25.8301C44.7271 25.6587 45.0928 25.0188 44.9214 24.4131C42.7729 16.802 36.6932 10.7222 29.0706 8.55089Z" fill="white"/>
</g>
<defs>
<clipPath id="clip0">
<rect width="57.9404" height="57.9404" fill="white"/>
</clipPath>
</defs>
</svg>
