<svg width="51" height="52" viewBox="0 0 51 52" fill="none" xmlns="http://www.w3.org/2000/svg">
<g clip-path="url(#clip0)">
<path d="M38.5964 28.9763C38.1997 28.4471 38.2856 28.1 38.5893 27.5695C38.9682 26.9083 39.7225 25.8987 40.5211 24.8302C43.0823 21.4025 44.7352 19.0292 44.393 17.3364C44.2863 16.8099 43.8211 16.432 43.2819 16.432C43.2788 16.432 37.7053 16.4333 35.6483 16.4434C35.1489 16.4456 34.7098 16.7624 34.5677 17.2383C34.3203 18.068 33.3539 20.3115 32.1827 22.3654C30.6639 25.0286 29.6688 25.8631 29.3182 26.0096L29.2629 25.9924C29.1482 25.8516 28.949 25.4716 28.8671 24.4875C28.7817 23.4581 28.8574 22.2132 28.9309 21.0092C29.0168 19.6015 29.0911 18.3856 28.9136 17.5186C28.7915 17.2014 28.8844 16.1593 27.9079 15.9406C26.5631 15.6393 24.738 15.5386 23.4366 15.5249C20.3544 15.4946 19.4473 15.9367 19.0029 16.3269C18.6997 16.593 18.562 16.9999 18.6426 17.3941C18.7227 17.7882 19.0082 18.1102 19.392 18.2382C20.083 18.4692 20.3296 18.7622 20.527 20.1457C20.6523 21.0285 20.7178 22.511 20.5819 23.8338C20.3907 25.6999 19.9352 26.0734 19.8904 26.1037C19.7935 26.072 19.0366 25.7456 17.6696 22.9892C16.4935 20.6181 15.5063 17.7693 15.0451 16.5877C14.876 16.1544 14.4564 15.8689 13.9885 15.8689H7.21311C6.83951 15.8689 6.4898 16.0519 6.27821 16.3581C6.06706 16.6643 6.02103 17.0545 6.15604 17.4011C8.27859 22.8629 10.7141 28.4572 14.1301 32.3719C17.6648 36.423 22.0276 38.392 27.4679 38.392C28.0938 38.392 28.6011 37.8878 28.6011 37.2658C28.6011 35.3232 28.876 34.7465 29.3049 33.9371C29.5426 33.4901 29.775 33.2983 29.9016 33.2702C30.0163 33.2438 30.2186 33.3278 30.4435 33.4945C31.088 33.9714 31.5997 34.5991 32.1411 35.2634C32.9215 36.2206 33.7284 37.2108 35.0099 37.8601C35.7085 38.2125 36.9576 38.3911 37.6748 38.3805H43.3328C43.9769 38.3805 44.4917 37.8588 44.4652 37.2192C44.3266 33.8904 39.6322 30.27 38.5964 28.9763ZM37.6668 36.1397C37.6606 36.1397 37.6548 36.1397 37.6486 36.1397C37.1759 36.1511 36.3171 35.9941 36.0374 35.8524C35.1866 35.4213 34.5912 34.6911 33.902 33.846C33.2964 33.1026 32.67 32.3341 31.7976 31.6883C30.1903 30.4975 28.3705 30.8731 27.3006 32.8861C26.7012 34.0158 26.4688 34.7601 26.3723 36.1097C22.0905 35.8704 18.7223 34.197 15.8423 30.896C12.9633 27.5963 10.7787 22.8863 8.87353 18.1212H13.2045C14.8981 22.6544 17.0951 28.3582 19.8869 28.3582C20.573 28.3582 21.1883 28.0692 21.6668 27.522C23.5043 25.4205 22.7788 19.8866 22.7708 19.8302C22.6739 19.1488 22.5349 18.4327 22.198 17.7944C23.6371 17.7381 25.5667 17.8309 26.6986 17.9981C26.8079 18.5844 26.7371 19.7475 26.6685 20.8728C26.5016 23.6125 26.3289 26.4407 27.8079 27.7309C27.8521 27.7696 28.6733 28.265 29.1801 28.283C30.1017 28.3195 31.6085 27.873 34.0458 23.6649C35.0396 21.9488 35.963 19.9728 36.4601 18.6817C38.0975 18.6786 40.3918 18.6733 41.8982 18.6746C41.2337 20.1325 39.7645 22.065 38.7013 23.4876C37.8244 24.6613 37.067 25.6748 36.6199 26.4552C35.7881 27.9069 35.928 29.1997 36.7939 30.3409C36.7983 30.3475 36.8032 30.3536 36.808 30.3598C37.8832 31.7173 40.6742 33.8223 41.8371 36.1397H37.6668Z" fill="white"/>
<path d="M46.0549 0.822266H5.30761C2.58087 0.822266 0.362549 3.04059 0.362549 5.76733V46.5147C0.362549 49.2414 2.58087 51.4597 5.30761 51.4597H46.0549C48.7817 51.4597 51 49.2414 51 46.5147V5.76733C51 3.04059 48.7817 0.822266 46.0549 0.822266ZM49.022 46.5147C49.022 48.1508 47.6911 49.4817 46.0549 49.4817H5.30761C3.67149 49.4817 2.34057 48.1508 2.34057 46.5147V5.76733C2.34057 4.13121 3.67149 2.80029 5.30761 2.80029H46.0549C47.6911 2.80029 49.022 4.13121 49.022 5.76733V46.5147Z" fill="white"/>
</g>
<defs>
<clipPath id="clip0">
<rect width="50.6375" height="50.6375" fill="white" transform="translate(0.362549 0.822266)"/>
</clipPath>
</defs>
</svg>
