<svg width="140" height="140" viewBox="0 0 140 140" fill="none" xmlns="http://www.w3.org/2000/svg">
<path d="M130.791 23.0431L134.054 17.6509L122.347 5.94344L116.957 9.20937C116.233 8.8725 115.507 8.56844 114.78 8.29937L113.278 2.1875H96.7225L95.2197 8.29937C94.4934 8.56844 93.7672 8.8725 93.0431 9.20937L87.6509 5.94562L75.9434 17.6531L79.2072 23.0453C78.8703 23.7694 78.5662 24.4956 78.2972 25.2219L72.1875 26.7225V43.2775L78.2994 44.7803C78.4416 45.1675 78.6209 45.5525 78.7828 45.9375H2.1875V137.812H129.062V57.3409L134.054 52.3491L130.791 46.9569C131.128 46.2328 131.432 45.5066 131.701 44.7803L137.812 43.2775V26.7225L131.701 25.2197C131.432 24.4934 131.128 23.7672 130.791 23.0431ZM77.1772 50.3125L75.9456 52.3491L87.0341 63.4375H6.5625V50.3125H77.1772ZM6.5625 133.438V67.8125H96.7225H113.278H124.688V133.438H6.5625ZM88.6725 63.4375L93.0453 60.7906C93.7672 61.1275 94.4956 61.4316 95.2219 61.7006L95.6462 63.4375H88.6725ZM114.354 63.4375L114.78 61.7006C115.507 61.4316 116.233 61.1275 116.957 60.7906L121.327 63.4375H114.354ZM124.688 63.4375H122.966L124.688 61.7159V63.4375ZM133.438 39.8475L128.303 41.1097L127.934 42.2822C127.538 43.5291 127.006 44.8 126.354 46.0556L125.788 47.145L128.533 51.6819L121.68 58.5353L117.143 55.79L116.053 56.3566C114.8 57.0084 113.529 57.54 112.28 57.9359L111.107 58.3056L109.847 63.4375H100.153L98.8903 58.3078L97.7222 57.9359C96.4688 57.5378 95.1978 57.0062 93.9444 56.3544L92.855 55.7878L88.3181 58.5331L81.4647 51.6797L84.21 47.1428L83.6434 46.0534C82.9916 44.8022 82.46 43.5312 82.0619 42.2756L81.69 41.1075L76.5625 39.8475V30.1525L81.6966 28.8903L82.0662 27.7178C82.4622 26.4709 82.9938 25.2 83.6456 23.9444L84.2122 22.855L81.4669 18.3181L88.3203 11.4647L92.8572 14.21L93.9466 13.6434C95.2 12.9916 96.4709 12.46 97.72 12.0641L98.8925 11.6944L100.153 6.5625H109.847L111.11 11.6966L112.282 12.0662C113.529 12.4622 114.8 12.9937 116.056 13.6456L117.145 14.2122L121.682 11.4669L128.535 18.3203L125.79 22.8572L126.357 23.9466C127.008 25.2 127.54 26.4709 127.936 27.72L128.306 28.8925L133.438 30.1525V39.8475ZM105 15.3125C94.1434 15.3125 85.3125 24.1434 85.3125 35C85.3125 45.8566 94.1434 54.6875 105 54.6875C115.857 54.6875 124.688 45.8566 124.688 35C124.688 24.1434 115.857 15.3125 105 15.3125ZM105 50.3125C96.5584 50.3125 89.6875 43.4416 89.6875 35C89.6875 26.5584 96.5584 19.6875 105 19.6875C113.442 19.6875 120.312 26.5584 120.312 35C120.312 43.4416 113.442 50.3125 105 50.3125ZM105 24.0625C98.9691 24.0625 94.0625 28.9691 94.0625 35C94.0625 41.0309 98.9691 45.9375 105 45.9375C111.031 45.9375 115.938 41.0309 115.938 35C115.938 28.9691 111.031 24.0625 105 24.0625ZM105 41.5625C101.382 41.5625 98.4375 38.6181 98.4375 35C98.4375 31.3819 101.382 28.4375 105 28.4375C108.618 28.4375 111.562 31.3819 111.562 35C111.562 38.6181 108.618 41.5625 105 41.5625ZM15.3125 59.0625H10.9375V54.6875H15.3125V59.0625ZM24.0625 59.0625H19.6875V54.6875H24.0625V59.0625ZM32.8125 59.0625H28.4375V54.6875H32.8125V59.0625ZM72.1875 120.312V102.812H76.5625V120.312H72.1875ZM85.3125 102.812C82.8997 102.812 80.9375 104.775 80.9375 107.188V115.938C80.9375 118.35 82.8997 120.312 85.3125 120.312H89.6875C92.1003 120.312 94.0625 118.35 94.0625 115.938V107.188C94.0625 104.775 92.1003 102.812 89.6875 102.812H85.3125ZM89.6875 115.938H85.3125V107.188H89.6875V115.938ZM98.4375 120.312V102.812H102.812V120.312H98.4375ZM115.938 102.812H111.562C109.15 102.812 107.188 104.775 107.188 107.188V115.938C107.188 118.35 109.15 120.312 111.562 120.312H115.938C118.35 120.312 120.312 118.35 120.312 115.938V107.188C120.312 104.775 118.35 102.812 115.938 102.812ZM115.938 115.938H111.562V107.188H115.938V115.938ZM115.938 72.1875H120.312V76.5625H115.938V72.1875ZM111.562 76.5625H107.188V72.1875H111.562V76.5625ZM102.812 76.5625H98.4375V72.1875H102.812V76.5625ZM39.375 72.1875C23.695 72.1875 10.9375 84.945 10.9375 100.625C10.9375 116.305 23.695 129.062 39.375 129.062H120.312V124.688H54.46C62.4641 119.65 67.8125 110.76 67.8125 100.625C67.8125 99.8856 67.7578 99.1616 67.7009 98.4375H120.312V94.0625H67.0184C64.0434 81.5413 52.7931 72.1875 39.375 72.1875ZM34.3766 111.562C33.6284 108.913 33.0706 105.978 32.8869 102.812H45.8588C45.675 105.976 45.1128 108.911 44.3625 111.562H34.3766ZM42.8816 115.938C41.6916 118.928 40.3856 121.328 39.3706 122.979C38.3534 121.332 37.0475 118.932 35.8575 115.938H42.8816ZM15.4241 102.812H28.5119C28.6716 105.945 29.1463 108.887 29.8222 111.562H17.9681C16.5987 108.892 15.7063 105.941 15.4241 102.812ZM44.3734 89.6875C45.1216 92.3366 45.6794 95.2722 45.8631 98.4375H32.8913C33.075 95.2744 33.6372 92.3388 34.3875 89.6875H44.3734ZM35.8684 85.3125C37.0584 82.3222 38.3644 79.9225 39.3794 78.2709C40.3966 79.9181 41.7025 82.3178 42.8925 85.3125H35.8684ZM63.3259 98.4375H50.2381C50.0784 95.305 49.6038 92.3628 48.9278 89.6875H60.7819C62.1512 92.3584 63.0437 95.3094 63.3259 98.4375ZM28.5119 98.4375H15.4241C15.7084 95.3094 16.5988 92.3584 17.9703 89.6875H29.8244C29.1462 92.3628 28.6716 95.305 28.5119 98.4375ZM50.2381 102.812H63.3259C63.0416 105.941 62.1512 108.892 60.7797 111.562H48.9256C49.6037 108.887 50.0784 105.945 50.2381 102.812ZM57.9228 85.3125H47.5891C46.3619 81.8759 44.9291 79.0563 43.7128 76.9737C49.3894 78.015 54.3834 81.0338 57.9228 85.3125ZM35.0372 76.9737C33.8209 79.0541 32.3881 81.8759 31.1609 85.3125H20.8272C24.3666 81.0338 29.3606 78.015 35.0372 76.9737ZM20.8272 115.938H31.1609C32.3881 119.374 33.8209 122.194 35.0372 124.276C29.3606 123.235 24.3666 120.216 20.8272 115.938ZM43.7128 124.276C44.9291 122.196 46.3619 119.374 47.5891 115.938H57.9228C54.3834 120.216 49.3894 123.235 43.7128 124.276Z" fill="url(#paint0_linear)"/>
<defs>
<linearGradient id="paint0_linear" x1="70" y1="137.812" x2="70" y2="2.1875" gradientUnits="userSpaceOnUse">
<stop stop-color="#82B1FF"/>
<stop offset="1" stop-color="#A6A7CF"/>
</linearGradient>
</defs>
</svg>
