<svg width="140" height="140" viewBox="0 0 140 140" fill="none" xmlns="http://www.w3.org/2000/svg">
<path d="M77.2034 37.8284L84.4069 30.625L77.2034 23.4216L80.2966 20.3284L90.5931 30.625L80.2966 40.9216L77.2034 37.8284ZM62.7966 37.8284L55.5931 30.625L62.7966 23.4216L59.7034 20.3284L49.4069 30.625L59.7034 40.9216L62.7966 37.8284ZM74.3444 17.8609L70.0284 17.1412L65.6534 43.3913L69.9694 44.1109L74.3444 17.8609ZM137.812 39.375V126.875C137.812 132.906 132.906 137.812 126.875 137.812H13.125C7.09406 137.812 2.1875 132.906 2.1875 126.875V39.375C2.1875 33.3441 7.09406 28.4375 13.125 28.4375H41.6741C42.7984 13.7791 55.0594 2.1875 70 2.1875C84.9406 2.1875 97.2016 13.7791 98.3259 28.4375H126.875C132.906 28.4375 137.812 33.3441 137.812 39.375ZM43.7566 41.5625H15.3125V72.1875H124.688V41.5625H96.2434C91.9494 51.8284 81.8059 59.0625 70 59.0625C58.1941 59.0625 48.0506 51.8284 43.7566 41.5625ZM45.9375 30.625C45.9375 43.8922 56.7328 54.6875 70 54.6875C83.2672 54.6875 94.0625 43.8922 94.0625 30.625C94.0625 17.3578 83.2672 6.5625 70 6.5625C56.7328 6.5625 45.9375 17.3578 45.9375 30.625ZM6.5625 39.375V80.9375H133.438V39.375C133.438 35.7569 130.493 32.8125 126.875 32.8125H98.3259C98.2122 34.3066 97.9803 35.7656 97.6413 37.1875H124.688C127.1 37.1875 129.062 39.1497 129.062 41.5625V72.1875C129.062 74.6003 127.1 76.5625 124.688 76.5625H15.3125C12.8997 76.5625 10.9375 74.6003 10.9375 72.1875V41.5625C10.9375 39.1497 12.8997 37.1875 15.3125 37.1875H42.3566C42.0197 35.7656 41.7878 34.3066 41.6719 32.8125H13.125C9.50688 32.8125 6.5625 35.7569 6.5625 39.375ZM6.5625 85.3125V115.938H133.438V85.3125H6.5625ZM133.438 126.875V120.312H6.5625V126.875C6.5625 130.493 9.50688 133.438 13.125 133.438H126.875C130.493 133.438 133.438 130.493 133.438 126.875ZM61.25 129.062H78.75V124.688H61.25V129.062ZM83.125 129.062H87.5V124.688H83.125V129.062ZM52.5 129.062H56.875V124.688H52.5V129.062ZM10.9375 107.188V94.0625C10.9375 91.6497 12.8997 89.6875 15.3125 89.6875H124.688C127.1 89.6875 129.062 91.6497 129.062 94.0625V107.188C129.062 109.6 127.1 111.562 124.688 111.562H15.3125C12.8997 111.562 10.9375 109.6 10.9375 107.188ZM15.3125 107.188H19.6875V102.812H15.3125V107.188ZM41.5625 107.188H45.9375V102.812H41.5625V107.188ZM37.1875 102.812H32.8125V107.188H37.1875V102.812ZM50.3125 107.188H54.6875V102.812H50.3125V107.188ZM59.0625 107.188H63.4375V102.812H59.0625V107.188ZM67.8125 107.188H72.1875V102.812H67.8125V107.188ZM76.5625 107.188H80.9375V102.812H76.5625V107.188ZM85.3125 107.188H89.6875V102.812H85.3125V107.188ZM94.0625 107.188H98.4375V102.812H94.0625V107.188ZM102.812 107.188H107.188V102.812H102.812V107.188ZM111.562 107.188H115.938V102.812H111.562V107.188ZM115.938 98.4375V94.0625H111.562V98.4375H115.938ZM107.188 94.0625H102.812V98.4375H107.188V94.0625ZM98.4375 94.0625H94.0625V98.4375H98.4375V94.0625ZM89.6875 94.0625H85.3125V98.4375H89.6875V94.0625ZM80.9375 94.0625H76.5625V98.4375H80.9375V94.0625ZM72.1875 94.0625H67.8125V98.4375H72.1875V94.0625ZM63.4375 94.0625H59.0625V98.4375H63.4375V94.0625ZM54.6875 94.0625H50.3125V98.4375H54.6875V94.0625ZM45.9375 94.0625H41.5625V98.4375H45.9375V94.0625ZM37.1875 94.0625H32.8125V98.4375H37.1875V94.0625ZM28.4375 94.0625H24.0625V98.4375H28.4375V94.0625ZM24.0625 102.812V107.188H28.4375V102.812H24.0625ZM124.692 107.188L124.69 102.812H120.312V107.188H124.692ZM124.688 94.0625H120.312V98.4375H124.69L124.688 94.0625ZM15.3125 94.0625V98.4375H19.6875V94.0625H15.3125ZM41.5625 45.9375H19.6875V50.3125H41.5625V45.9375ZM41.5625 54.6875H19.6875V59.0625H41.5625V54.6875ZM120.312 45.9375H115.938V50.3125H120.312V45.9375ZM111.562 45.9375H107.188V50.3125H111.562V45.9375ZM102.812 45.9375H98.4375V50.3125H102.812V45.9375ZM120.312 54.6875H98.4375V59.0625H120.312V54.6875ZM94.0625 63.4375H19.6875V67.8125H94.0625V63.4375ZM120.312 63.4375H98.4375V67.8125H120.312V63.4375Z" fill="url(#paint0_linear)"/>
<defs>
<linearGradient id="paint0_linear" x1="70" y1="137.812" x2="70" y2="2.1875" gradientUnits="userSpaceOnUse">
<stop stop-color="#82B1FF"/>
<stop offset="1" stop-color="#A6A7CF"/>
</linearGradient>
</defs>
</svg>
