<svg width="140" height="140" viewBox="0 0 140 140" fill="none" xmlns="http://www.w3.org/2000/svg">
<path d="M137.812 12.1078C137.812 6.63687 133.361 2.1875 127.89 2.1875C125.239 2.1875 122.747 3.22 120.875 5.0925L80.0297 45.9375H2.1875V137.812H137.812V45.9375H108.093L134.905 19.1231C136.78 17.2506 137.812 14.7569 137.812 12.1078ZM74.375 73.4694L66.5306 65.625L100.625 31.5306L108.469 39.375L74.375 73.4694ZM58.9641 73.1916L63.4375 68.7181L71.2819 76.5625L66.8084 81.0359C65.3822 77.4637 62.5341 74.6156 58.9641 73.1916ZM53.7819 76.5625C59.1063 76.5625 63.4375 80.8938 63.4375 86.2181C63.4375 90.9584 60.0447 94.9638 55.37 95.7425L42.035 97.965L44.2575 84.63C45.0384 79.9553 49.0438 76.5625 53.7819 76.5625ZM103.718 28.4375L107.188 24.9681L115.032 32.8125L111.562 36.2819L103.718 28.4375ZM75.6547 50.3125L62.5297 63.4375H6.5625V50.3125H75.6547ZM6.5625 133.438V67.8125H58.1547L53.7797 72.1875C46.8934 72.1875 41.0747 77.1181 39.9416 83.9103L36.7106 103.285L56.0853 100.054C62.8797 98.9231 67.8103 93.1022 67.8103 86.2159L86.2181 67.8125H133.438V133.438H6.5625ZM133.438 50.3125V63.4375H90.5931L103.718 50.3125H133.438ZM131.812 16.03L118.125 29.7194L110.281 21.875L123.97 8.18563C125.016 7.14 126.409 6.5625 127.89 6.5625C130.948 6.5625 133.438 9.05187 133.438 12.1078C133.438 13.5887 132.86 14.9822 131.812 16.03ZM15.3125 59.0625H10.9375V54.6875H15.3125V59.0625ZM24.0625 59.0625H19.6875V54.6875H24.0625V59.0625ZM32.8125 59.0625H28.4375V54.6875H32.8125V59.0625ZM10.9375 129.062H32.8125V107.188H10.9375V129.062ZM15.3125 111.562H28.4375V124.688H15.3125V111.562ZM72.1875 129.062H129.062V85.3125H72.1875V129.062ZM76.5625 89.6875H124.688V124.688H76.5625V89.6875ZM10.9375 72.1875H32.8125V76.5625H10.9375V72.1875ZM10.9375 80.9375H32.8125V85.3125H10.9375V80.9375ZM10.9375 89.6875H32.8125V94.0625H10.9375V89.6875ZM10.9375 98.4375H32.8125V102.812H10.9375V98.4375ZM37.1875 107.188H67.8125V111.562H37.1875V107.188ZM63.4375 115.938H67.8125V120.312H63.4375V115.938ZM59.0625 120.312H37.1875V115.938H59.0625V120.312ZM37.1875 124.688H67.8125V129.062H37.1875V124.688Z" fill="url(#paint0_linear)"/>
<defs>
<linearGradient id="paint0_linear" x1="70" y1="137.812" x2="70" y2="2.1875" gradientUnits="userSpaceOnUse">
<stop stop-color="#82B1FF"/>
<stop offset="1" stop-color="#A6A7CF"/>
</linearGradient>
</defs>
</svg>
