<svg width="140" height="140" viewBox="0 0 140 140" fill="none" xmlns="http://www.w3.org/2000/svg">
<path d="M126.875 24.0625H120.312V2.1875H19.6875V24.0625H13.125C7.09406 24.0625 2.1875 28.9691 2.1875 35V100.625C2.1875 106.656 7.09406 111.562 13.125 111.562H51.1481L46.7731 120.312H43.75C37.7191 120.312 32.8125 125.219 32.8125 131.25V137.812H107.188V131.25C107.188 125.219 102.281 120.312 96.25 120.312H93.2269L88.8519 111.562H126.875C132.906 111.562 137.812 106.656 137.812 100.625V35C137.812 28.9691 132.906 24.0625 126.875 24.0625ZM120.312 85.3125V37.1875H124.688V94.0625H46.8431L43.75 90.9694C42.9231 90.1425 41.825 89.6875 40.6569 89.6875H15.3125V37.1875H19.6875V85.3125H120.312ZM24.0625 24.0625H115.938V80.9375H24.0625V24.0625ZM115.938 6.5625V19.6875H24.0625V6.5625H115.938ZM102.812 131.25V133.438H37.1875V131.25C37.1875 127.632 40.1319 124.688 43.75 124.688H96.25C99.8681 124.688 102.812 127.632 102.812 131.25ZM88.3356 120.312H51.6644L56.0394 111.562H83.9606L88.3356 120.312ZM133.438 100.625C133.438 104.243 130.493 107.188 126.875 107.188H13.125C9.50688 107.188 6.5625 104.243 6.5625 100.625V35C6.5625 31.3819 9.50688 28.4375 13.125 28.4375H19.6875V32.8125H15.3125C12.8997 32.8125 10.9375 34.7747 10.9375 37.1875V89.6875C10.9375 92.1003 12.8997 94.0625 15.3125 94.0625H40.6569L43.75 97.1556C44.5769 97.9825 45.675 98.4375 46.8431 98.4375H124.688C127.1 98.4375 129.062 96.4753 129.062 94.0625V37.1875C129.062 34.7747 127.1 32.8125 124.688 32.8125H120.312V28.4375H126.875C130.493 28.4375 133.438 31.3819 133.438 35V100.625ZM15.3125 98.4375H19.6875V102.812H15.3125V98.4375ZM24.0625 98.4375H28.4375V102.812H24.0625V98.4375ZM32.8125 98.4375H37.1875V102.812H32.8125V98.4375ZM32.8125 15.3125H28.4375V10.9375H32.8125V15.3125ZM41.5625 15.3125H37.1875V10.9375H41.5625V15.3125ZM50.3125 15.3125H45.9375V10.9375H50.3125V15.3125ZM85.3125 28.4375H111.562V32.8125H85.3125V28.4375ZM107.188 37.1875H111.562V41.5625H107.188V37.1875ZM102.812 37.1875V41.5625H98.4375V37.1875H102.812ZM94.0625 41.5625H85.3125V37.1875H94.0625V41.5625ZM85.3125 45.9375H111.562V50.3125H85.3125V45.9375ZM107.188 54.6875H111.562V59.0625H107.188V54.6875ZM102.812 54.6875V59.0625H98.4375V54.6875H102.812ZM94.0625 59.0625H85.3125V54.6875H94.0625V59.0625ZM85.3125 63.4375H111.562V67.8125H85.3125V63.4375ZM107.188 72.1875H111.562V76.5625H107.188V72.1875ZM98.4375 72.1875H102.812V76.5625H98.4375V72.1875ZM85.3125 72.1875H94.0625V76.5625H85.3125V72.1875ZM28.4375 50.3125H63.4375V28.4375H28.4375V50.3125ZM32.8125 32.8125H59.0625V45.9375H32.8125V32.8125ZM32.8125 59.0625H28.4375V54.6875H32.8125V59.0625ZM37.1875 54.6875H63.4375V59.0625H37.1875V54.6875ZM28.4375 63.4375H63.4375V67.8125H28.4375V63.4375ZM28.4375 72.1875H63.4375V76.5625H28.4375V72.1875ZM67.8125 76.5625H80.9375V63.4375H67.8125V76.5625ZM72.1875 67.8125H76.5625V72.1875H72.1875V67.8125ZM67.8125 59.0625H80.9375V45.9375H67.8125V59.0625ZM72.1875 50.3125H76.5625V54.6875H72.1875V50.3125ZM67.8125 41.5625H80.9375V28.4375H67.8125V41.5625ZM72.1875 32.8125H76.5625V37.1875H72.1875V32.8125Z" fill="url(#paint0_linear)"/>
<defs>
<linearGradient id="paint0_linear" x1="70" y1="137.812" x2="70" y2="2.1875" gradientUnits="userSpaceOnUse">
<stop stop-color="#82B1FF"/>
<stop offset="1" stop-color="#A6A7CF"/>
</linearGradient>
</defs>
</svg>
