<svg width="100" height="100" viewBox="0 0 100 100" fill="none" xmlns="http://www.w3.org/2000/svg">
<g clip-path="url(#clip0)">
<path d="M26.9643 26.6822C26.9643 28.6117 25.4254 30.1833 23.5349 30.1833C21.6443 30.1833 20.1055 28.6117 20.1055 26.6822C20.1055 24.7527 21.6443 23.1826 23.5349 23.1826C25.4254 23.1826 26.9643 24.7527 26.9643 26.6822Z" fill="#E96D5A"/>
<path d="M24.3902 0L0 13.4146V40.2439L23.5352 54.2815L47.0703 40.4822V12.8806L24.3902 0ZM23.5352 36.0839C18.4143 36.0839 14.2464 31.8648 14.2464 26.6814C14.2464 21.498 18.4143 17.2812 23.5352 17.2812C28.656 17.2812 32.8239 21.498 32.8239 26.6814C32.8239 31.8648 28.656 36.0839 23.5352 36.0839Z" fill="#E96D5A"/>
<path d="M79.894 26.6822C79.894 28.6117 78.3551 30.1833 76.4646 30.1833C74.574 30.1833 73.0352 28.6117 73.0352 26.6822C73.0352 24.7527 74.574 23.1826 76.4646 23.1826C78.3551 23.1826 79.894 24.7527 79.894 26.6822Z" fill="#E96D5A"/>
<path d="M100 13.4146L76.8293 0L52.9297 12.8815V40.4831L76.4648 54.2824L100 40.2439V13.4146ZM76.4648 36.0847C71.344 36.0847 67.1761 31.8657 67.1761 26.6823C67.1761 21.4989 71.344 17.2821 76.4648 17.2821C81.5857 17.2821 85.7536 21.4989 85.7536 26.6823C85.7536 31.8657 81.5857 36.0847 76.4648 36.0847Z" fill="#E96D5A"/>
<path d="M53.5432 73.3177C53.5432 75.2472 52.0043 76.8188 50.113 76.8188C48.2209 76.8188 46.6836 75.2472 46.6836 73.3177C46.6836 71.3875 48.2209 69.8181 50.113 69.8181C52.0043 69.8181 53.5432 71.3875 53.5432 73.3177Z" fill="#E96D5A"/>
<path d="M50.1133 45.7178L26.5781 59.5186V83.7587L50.0013 100L73.6484 83.7587V59.5186L50.1133 45.7178ZM50.1133 82.7203C44.9909 82.7203 40.8245 78.5028 40.8245 73.3179C40.8245 68.1345 44.9909 63.9169 50.1133 63.9169C55.2349 63.9169 59.4028 68.1345 59.4028 73.3179C59.4028 78.5028 55.2349 82.7203 50.1133 82.7203Z" fill="#E96D5A"/>
</g>
<defs>
<clipPath id="clip0">
<rect width="100" height="100" fill="white"/>
</clipPath>
</defs>
</svg>
