<svg width="100" height="100" viewBox="0 0 100 100" fill="none" xmlns="http://www.w3.org/2000/svg">
<path d="M41.0937 92.1876L35.9375 91.797L34.375 90.2345L32.8125 78.1251L34.243 71.6878C33.5633 71.8093 32.8746 71.872 32.1842 71.8751H30.824C29.9529 71.8692 29.0848 71.7718 28.234 71.5845L29.6875 78.1251L28.125 90.2345L26.5625 91.797L21.4062 92.1876C19.0764 92.1876 17.1875 94.0765 17.1875 96.4063V96.8751H45.3125V96.4063C45.3125 94.0765 43.4236 92.1876 41.0937 92.1876Z" fill="#E96D5A"/>
<path d="M43.1475 43.1507C41.258 42.6474 35.5534 31.4219 33.5584 30.8219C28.4764 29.2933 26.5622 32.1916 20.5447 36.3014L17.2557 52.9491C16.6389 56.0661 18.0284 60.4116 20.359 62.6562L23.984 66.1448C25.4786 67.5835 28.4036 68.7499 30.5172 68.7499H31.9063C34.02 68.7499 36.9454 67.5835 38.4395 66.1448L42.0626 62.6562C44.3932 60.4124 45.7825 56.0669 45.1659 52.9491L43.1475 43.1507ZM26.5622 51.5624H23.4372V53.9169H26.5622V51.5624ZM37.4997 56.2499H34.3747V57.2345H37.4997V56.2499Z" fill="#E96D5A"/>
<path d="M38.6439 40.1588C40.0892 40.5937 41.7697 42.7601 43.1496 43.1507L40.2536 28.125H22.1677L20.5469 36.3014C27.6307 37.3764 33.4901 38.6088 38.6439 40.1588Z" fill="#E96D5A"/>
<path d="M65.625 13.0779H75V20.3125H65.625V13.0779Z" fill="#E96D5A"/>
<path d="M65.625 3.125H75V14.0625H65.625V3.125Z" fill="#E96D5A"/>
<path d="M75 32.1586V19.3279H65.625V32.1586C60.9027 34.0701 57.8121 38.6554 57.8125 43.75V45.3125H72.8693C73.7322 45.3125 74.4318 46.0121 74.4318 46.875V87.5C74.4318 88.3629 73.7322 89.0625 72.8693 89.0625H57.8125V94.9218C57.8125 96.0006 58.6869 96.875 59.7656 96.875H80.8594C81.9381 96.875 82.8125 96.0006 82.8125 94.9218V43.75C82.8129 38.6554 79.7223 34.0701 75 32.1586Z" fill="#E96D5A"/>
<path d="M57.8125 48.4375H71.3068V85.9375H57.8125V48.4375Z" fill="#E96D5A"/>
</svg>
