<svg width="21" height="21" viewBox="0 0 21 21" fill="none" xmlns="http://www.w3.org/2000/svg">
<path d="M19.8908 17.3825C20.5963 18.088 20.5963 19.1854 19.8908 19.8909C19.5381 20.2437 19.107 20.4004 18.6367 20.4004C18.1663 20.4004 17.7352 20.2437 17.3825 19.8909L10.21 12.7184L3.03749 19.8909C2.68474 20.2437 2.25363 20.4004 1.7833 20.4004C1.31298 20.4004 0.881862 20.2437 0.529117 19.8909C-0.176372 19.1854 -0.176372 18.088 0.529117 17.3825L7.70156 10.21L0.529117 3.03754C-0.176372 2.33205 -0.176372 1.23461 0.529117 0.529118C1.23461 -0.176373 2.332 -0.176373 3.03749 0.529118L10.21 7.7016L17.3825 0.529118C18.088 -0.176373 19.1854 -0.176373 19.8908 0.529118C20.5963 1.23461 20.5963 2.33205 19.8908 3.03754L12.7183 10.21L19.8908 17.3825Z" fill="#F7941F"/>
</svg>
