<svg width="42" height="52" viewBox="0 0 42 52" fill="none" xmlns="http://www.w3.org/2000/svg">
<path d="M42 52H0V47.0476C0 43.764 1.38281 40.6148 3.84422 38.293C6.30564 35.9711 9.64403 34.6667 13.125 34.6667H28.875C32.356 34.6667 35.6944 35.9711 38.1558 38.293C40.6172 40.6148 42 43.764 42 47.0476V52ZM21 29.7143C18.9317 29.7143 16.8836 29.33 14.9727 28.5834C13.0619 27.8367 11.3256 26.7423 9.86307 25.3627C8.40055 23.9831 7.24041 22.3453 6.4489 20.5427C5.65739 18.7402 5.25 16.8082 5.25 14.8571C5.25 12.9061 5.65739 10.9741 6.4489 9.17156C7.24041 7.36901 8.40055 5.73117 9.86307 4.35156C11.3256 2.97194 13.0619 1.87757 14.9727 1.13093C16.8836 0.384291 18.9317 -2.90732e-08 21 0C25.1772 5.87159e-08 29.1832 1.5653 32.1369 4.35156C35.0906 7.13781 36.75 10.9168 36.75 14.8571C36.75 18.7975 35.0906 22.5765 32.1369 25.3627C29.1832 28.149 25.1772 29.7143 21 29.7143Z" fill="#DDDDDD"/>
</svg>
