<svg width="211" height="44" viewBox="0 0 211 44" fill="none" xmlns="http://www.w3.org/2000/svg">
<path fill-rule="evenodd" clip-rule="evenodd" d="M57.8691 13.3544C57.8691 13.3544 57.8691 13.3544 61.0395 13.3544C62.1947 13.3544 62.7766 13.9578 62.7766 15.3202C62.7766 15.3202 62.7766 15.3202 62.7766 20.148C62.7766 20.148 62.7766 20.148 68.987 20.148C68.987 20.148 68.987 20.148 68.987 15.3202C68.987 13.9578 69.5602 13.3544 70.8631 13.3544C70.8631 13.3544 70.8631 13.3544 73.8945 13.3544C73.8945 13.3544 73.8945 13.3544 73.8945 16.5272C73.8945 16.5272 73.8945 16.5272 72.6003 16.5272L72.4526 16.6826C72.4526 16.6826 72.4526 16.6826 72.4526 30.27C72.4526 30.27 72.4526 30.27 68.987 30.27C68.987 30.27 68.987 30.27 68.987 23.4763C68.987 23.4763 68.987 23.4763 62.7766 23.4763C62.7766 23.4763 62.7766 23.4763 62.7766 30.27C62.7766 30.27 62.7766 30.27 59.311 30.27C59.311 30.27 59.311 30.27 59.311 16.6826C59.311 16.6826 59.311 16.5272 59.1633 16.5272C59.1633 16.5272 59.1633 16.5272 57.8691 16.5272C57.8691 16.5272 57.8691 16.5272 57.8691 13.3544Z" fill="#ED1C24"/>
<path fill-rule="evenodd" clip-rule="evenodd" d="M83.6058 13.3544L83.6881 13.3632V16.7269L83.6058 16.7092C80.8699 16.7092 78.738 18.8987 78.738 21.6709C78.738 24.5844 80.8699 26.9151 83.6058 26.9151L83.6881 26.8975V30.2612L83.6058 30.27C78.738 30.27 74.7852 26.4825 74.7852 21.6709C74.7852 17.0006 78.738 13.3544 83.6058 13.3544Z" fill="#ED1C24"/>
<path fill-rule="evenodd" clip-rule="evenodd" d="M83.6875 13.3544L85.4122 13.5135C89.5047 14.2735 92.5905 17.5789 92.5905 21.6708C92.5905 25.8776 89.5047 29.3155 85.4122 30.1021L83.6875 30.27V26.9028L85.58 26.5139C87.4072 25.7185 88.7216 23.8537 88.7216 21.6708C88.7216 19.585 87.4072 17.8352 85.58 17.0928L83.6875 16.7216V13.3544Z" fill="#ED1C24"/>
<path fill-rule="evenodd" clip-rule="evenodd" d="M92.5898 13.3544C92.5898 13.3544 92.5898 13.3544 98.0127 13.3544H100.603V16.5272H100.359C100.038 16.5272 99.3855 16.5272 98.0906 16.5272C98.0906 16.5272 98.0906 16.5272 98.0906 20.0017C98.0906 20.0017 98.0906 20.0017 99.1908 20.0017H100.603V23.0191H99.7749C99.366 23.0191 98.8208 23.0191 98.0906 23.0191C98.0906 23.0191 98.0906 23.0191 98.0906 26.7954C98.0906 26.9509 98.0906 26.9509 98.2561 26.9509C98.2561 26.9509 98.2561 26.9509 99.4147 26.9509H100.603V30.27H100.262C99.6776 30.27 98.4995 30.27 96.1532 30.27C94.8583 30.27 94.2157 29.6665 94.2157 28.3041V16.5272C94.2157 16.5272 94.2157 16.5272 92.5898 16.5272C92.5898 16.5272 92.5898 16.5272 92.5898 13.3544Z" fill="#ED1C24"/>
<path fill-rule="evenodd" clip-rule="evenodd" d="M100.604 13.3544H100.667C103.572 13.3544 105.286 15.1648 105.286 17.8896C105.286 19.5446 104.628 20.6052 103.969 21.3641C105.159 21.9676 105.945 23.4763 105.945 25.1313C105.945 28.3041 103.834 30.27 100.802 30.27C100.802 30.27 100.802 30.27 100.746 30.27H100.604V26.9509H100.929C101.985 26.9509 102.651 26.1919 102.651 24.985C102.651 23.778 101.985 23.0191 100.929 23.0191C100.929 23.0191 100.929 23.0191 100.635 23.0191H100.604V20.0017H100.667C101.596 20.0017 102.12 19.2428 102.12 18.1913C102.12 17.1307 101.596 16.5272 100.667 16.5272C100.667 16.5272 100.667 16.5272 100.635 16.5272H100.604V13.3544Z" fill="#ED1C24"/>
<path fill-rule="evenodd" clip-rule="evenodd" d="M113.003 13.3544C113.003 13.3544 113.003 13.3544 114.561 13.3544H114.849V18.1913C114.7 18.4931 114.543 18.9411 114.543 19.3983C114.543 19.3983 114.543 19.3983 113.309 22.8728C113.309 22.8728 113.309 22.8728 114.617 22.8728H114.849V26.0365H114.014C113.541 26.0365 113.003 26.0365 112.391 26.0365C112.391 26.0365 112.391 26.0365 111.306 28.7613C111 29.8128 110.388 30.27 109.154 30.27C109.154 30.27 109.154 30.27 106.836 30.27C106.836 30.27 106.836 30.27 106.836 26.9509C106.836 26.9509 106.836 26.9509 107.606 26.9509C107.921 26.9509 107.921 26.9509 108.069 26.7954C108.069 26.7954 108.069 26.7954 113.003 13.3544Z" fill="#ED1C24"/>
<path fill-rule="evenodd" clip-rule="evenodd" d="M114.848 13.3544H116.527C116.527 13.3544 116.527 13.3544 120.996 26.7954C121.13 26.9509 121.13 26.9509 121.407 26.9509C121.407 26.9509 121.407 26.9509 121.97 26.9509C121.97 26.9509 121.97 26.9509 121.97 30.27C121.97 30.27 121.97 30.27 120.013 30.27C118.896 30.27 118.342 29.8128 118.056 28.6059C118.056 28.6059 118.056 28.6059 117.082 26.0365C117.082 26.0365 117.082 26.0365 115.2 26.0365H114.848V22.8728H116.242C116.242 22.8728 116.242 22.8728 115.133 19.3983C115.133 18.9411 114.99 18.4931 114.848 18.1913V13.3544Z" fill="#ED1C24"/>
<path fill-rule="evenodd" clip-rule="evenodd" d="M124.641 13.3544C124.641 13.3544 124.641 13.3544 137.429 13.3544C138.605 13.3544 139.339 13.9578 139.339 15.3202C139.339 15.3202 139.339 15.3202 139.339 26.7954C139.339 26.9417 139.339 26.9417 139.49 26.9417C139.49 26.9417 139.49 26.9417 140.666 26.9417C140.666 26.9417 140.666 26.9417 140.666 30.27C140.666 30.27 140.666 30.27 137.579 30.27C136.253 30.27 135.669 29.6665 135.669 28.3041C135.669 28.3041 135.669 28.3041 135.669 16.6826C135.669 16.6826 135.669 16.5272 135.519 16.5272C135.519 16.5272 135.519 16.5272 129.637 16.5272C129.637 16.5272 129.637 16.5272 129.637 30.27C129.637 30.27 129.637 30.27 126.109 30.27C126.109 30.27 126.109 30.27 126.109 16.5272C126.109 16.5272 126.109 16.5272 124.641 16.5272C124.641 16.5272 124.641 16.5272 124.641 13.3544Z" fill="#ED1C24"/>
<path fill-rule="evenodd" clip-rule="evenodd" d="M149.502 13.3544L149.569 13.3632V16.7269L149.502 16.7092C146.988 16.7092 145.043 18.8987 145.043 21.6709C145.043 24.5844 146.988 26.9151 149.502 26.9151L149.569 26.8975V30.2612L149.502 30.27C145.043 30.27 141.557 26.4737 141.557 21.6709C141.557 17.0006 145.043 13.3544 149.502 13.3544Z" fill="#ED1C24"/>
<path fill-rule="evenodd" clip-rule="evenodd" d="M149.57 13.3544L151.349 13.5135C155.512 14.2735 158.473 17.5789 158.473 21.6708C158.473 25.8776 155.512 29.3155 151.349 30.1021L149.57 30.27V26.9028L151.535 26.5139C153.389 25.7185 154.608 23.8537 154.608 21.6708C154.608 19.585 153.389 17.8352 151.535 17.0928L149.57 16.7216V13.3544Z" fill="#ED1C24"/>
<path fill-rule="evenodd" clip-rule="evenodd" d="M159.363 13.3544C159.363 13.3544 159.363 13.3544 162.587 13.3544C163.758 13.3544 164.34 13.9578 164.34 15.3202C164.34 15.3202 164.34 15.3202 164.34 26.7954C164.34 26.9417 164.34 26.9417 164.489 26.9417C164.489 26.9417 164.489 26.9417 168.735 26.9417C168.735 26.9417 168.735 26.9417 168.735 13.3544C168.735 13.3544 168.735 13.3544 172.249 13.3544C172.249 13.3544 172.249 13.3544 172.249 26.9417C172.249 26.9417 172.249 26.9417 176.495 26.9417C176.644 26.9417 176.644 26.9417 176.644 26.7954C176.644 26.7954 176.644 26.7954 176.644 15.3202C176.644 13.9578 177.226 13.3544 178.397 13.3544C178.397 13.3544 178.397 13.3544 181.621 13.3544C181.621 13.3544 181.621 13.3544 181.621 16.5272C181.621 16.5272 181.621 16.5272 180.299 16.5272C180.15 16.5272 180.15 16.6826 180.15 16.6826C180.15 16.6826 180.15 16.6826 180.15 28.3041C180.15 29.6665 179.568 30.27 178.397 30.27C178.397 30.27 178.397 30.27 162.728 30.27C161.416 30.27 160.825 29.6665 160.825 28.3041C160.825 28.3041 160.825 28.3041 160.825 16.6826C160.825 16.6826 160.825 16.5272 160.684 16.5272C160.684 16.5272 160.684 16.5272 159.363 16.5272C159.363 16.5272 159.363 16.5272 159.363 13.3544Z" fill="#ED1C24"/>
<path fill-rule="evenodd" clip-rule="evenodd" d="M184.109 13.3544C184.109 13.3544 184.109 13.3544 195.007 13.3544C196.318 13.3544 196.754 13.9578 196.754 15.1648C196.754 15.1648 196.754 15.1648 196.754 18.0359H193.556C193.556 18.0359 193.556 18.0359 193.556 16.6826C193.556 16.5272 193.556 16.5272 193.407 16.5272C193.407 16.5272 193.407 16.5272 191.38 16.5272C191.38 16.5272 191.38 16.5272 191.38 30.27C191.38 30.27 191.38 30.27 187.884 30.27C187.884 30.27 187.884 30.27 187.884 16.5272C187.884 16.5272 187.884 16.5272 185.857 16.5272C185.708 16.5272 185.708 16.5272 185.708 16.6826C185.708 16.6826 185.708 16.6826 185.708 18.0359C185.708 18.0359 185.708 18.0359 182.51 18.0359C182.51 18.0359 182.51 18.0359 182.51 15.1648C182.51 13.9578 182.947 13.3544 184.109 13.3544Z" fill="#ED1C24"/>
<path fill-rule="evenodd" clip-rule="evenodd" d="M202.032 13.3544C202.032 13.3544 202.032 13.3544 203.59 13.3544H203.878V18.1913C203.72 18.4931 203.572 18.9411 203.572 19.3983C203.572 19.3983 203.572 19.3983 202.338 22.8728C202.338 22.8728 202.338 22.8728 203.637 22.8728H203.878V26.0365H203.043C202.57 26.0365 202.032 26.0365 201.411 26.0365C201.411 26.0365 201.411 26.0365 200.335 28.6059C200.029 29.8128 199.408 30.27 198.174 30.27C198.174 30.27 198.174 30.27 195.865 30.27C195.865 30.27 195.865 30.27 195.865 26.9417C195.865 26.9417 195.865 26.9417 196.635 26.9417C196.95 26.9417 196.95 26.9417 197.099 26.7954C197.099 26.7954 197.099 26.7954 202.032 13.3544Z" fill="#ED1C24"/>
<path fill-rule="evenodd" clip-rule="evenodd" d="M203.877 13.3544H205.548C205.548 13.3544 205.548 13.3544 210.025 26.7954C210.159 26.9417 210.159 26.9417 210.445 26.9417H210.999C210.999 26.9417 210.999 26.9417 210.999 30.27C210.999 30.27 210.999 30.27 209.042 30.27C207.925 30.27 207.371 29.8128 207.085 28.6059C207.085 28.6059 207.085 28.6058 206.111 26.0365C206.111 26.0365 206.111 26.0365 204.23 26.0365H203.877V22.8728H205.271C205.271 22.8728 205.271 22.8728 204.154 19.3983C204.154 18.9411 204.02 18.4931 203.877 18.1913V13.3544Z" fill="#ED1C24"/>
<path fill-rule="evenodd" clip-rule="evenodd" d="M35.1265 12.8027C35.259 12.761 35.4335 12.8444 35.6079 13.0736C35.6079 13.0736 35.6079 13.0736 43.4922 20.7566C43.9527 21.2151 43.9527 21.9097 43.4922 22.2501C43.4922 22.2501 43.4922 22.2501 35.6079 30.0512C35.4335 30.2805 35.259 30.336 35.1265 30.2666C34.9939 30.1971 34.9102 29.9956 34.9102 29.7039V13.3028C34.9102 13.018 34.9939 12.8444 35.1265 12.8027Z" fill="#ED1C24"/>
<path fill-rule="evenodd" clip-rule="evenodd" d="M21.6404 0H22.1986L22.7358 0.222294C22.7358 0.222294 22.7358 0.222293 30.8504 8.25262C31.1993 8.7111 31.0807 9.05843 30.5016 9.05843C30.5016 9.05843 30.5016 9.05843 27.1385 9.05843C26.5594 9.05843 26.0989 9.51692 26.0989 10.0935C26.0989 10.0935 26.0989 10.0935 26.0989 16.0537C26.0989 16.6303 25.6314 17.0888 24.9337 17.0888C24.9337 17.0888 24.9337 17.0888 19.0239 17.0888C18.4448 17.0888 17.9773 16.6303 17.9773 16.0537C17.9773 16.0537 17.9773 16.0537 17.9773 10.0935C17.9773 9.51692 17.5168 9.05843 16.9308 9.05843H13.3375C12.7583 9.05843 12.6397 8.7111 12.9886 8.25262C12.9886 8.25262 12.9886 8.25262 21.1101 0.222294L21.6404 0Z" fill="#ED1C24"/>
<path fill-rule="evenodd" clip-rule="evenodd" d="M8.92743 12.6291C9.07395 12.6985 9.16465 12.9 9.16465 13.1917V29.9332C9.16465 30.2249 9.07395 30.3986 8.92743 30.4542C8.78788 30.5097 8.58554 30.4542 8.34831 30.2805C8.34831 30.2805 8.34831 30.2805 0.345375 22.2502C-0.115125 21.9098 -0.115125 21.2151 0.345375 20.7566C0.345375 20.7566 0.345376 20.7566 8.34831 12.8444C8.58554 12.6152 8.78788 12.5596 8.92743 12.6291Z" fill="#ED1C24"/>
<path fill-rule="evenodd" clip-rule="evenodd" d="M19.0227 25.8069C19.0227 25.8069 19.0227 25.8069 24.9325 25.8069C25.6302 25.8069 26.0977 26.2654 26.0977 26.8419C26.0977 26.8419 26.0977 26.8419 26.0977 33.1495C26.0977 33.8372 26.5582 34.2957 27.1373 34.2957H30.2701C30.8492 34.2957 31.0795 34.6361 30.619 34.9834C30.619 34.9834 30.619 34.9834 22.7347 42.8957C22.4974 43.1249 22.2114 43.243 21.9183 43.243C21.6322 43.243 21.3392 43.1249 21.1089 42.8957C21.1089 42.8957 21.1089 42.8957 13.2246 34.9834C12.7571 34.6361 12.9874 34.2957 13.5665 34.2957C13.5665 34.2957 13.5665 34.2957 16.9296 34.2957C17.5156 34.2957 17.9761 33.8372 17.9761 33.1495C17.9761 33.1495 17.9761 33.1495 17.9761 26.8419C17.9761 26.2654 18.4436 25.8069 19.0227 25.8069Z" fill="#ED1C24"/>
</svg>
