<svg width="165" height="42" viewBox="0 0 165 42" fill="none" xmlns="http://www.w3.org/2000/svg">
<path d="M68.1906 17.6972V22.8934H75.8577V24.7176H68.1906V30.743H66V15.8362H76.783V17.6972H68.1906Z" fill="#1F1F1F"/>
<path d="M84.7713 15.8362V30.743H82.6184V17.6788H79.1626V15.8177H84.7713V15.8362Z" fill="#1F1F1F"/>
<path d="M98.5378 30.3928C97.4614 30.0427 96.6305 29.6005 96.0073 29.0477L96.8193 27.3894C97.4048 27.9053 98.1413 28.3107 99.0477 28.6423C99.9542 28.9556 100.898 29.1214 101.861 29.1214C103.127 29.1214 104.071 28.9187 104.694 28.4949C105.317 28.0711 105.638 27.5183 105.638 26.8181C105.638 26.3022 105.468 25.8968 105.128 25.5652C104.789 25.2519 104.373 24.9939 103.863 24.8281C103.353 24.6623 102.655 24.4596 101.729 24.2569C100.577 23.9805 99.652 23.7225 98.9533 23.4461C98.2546 23.1698 97.6503 22.7644 97.1404 22.1932C96.6305 21.6404 96.385 20.8849 96.385 19.9267C96.385 19.1344 96.5927 18.4158 97.0271 17.7709C97.4614 17.126 98.1035 16.6285 98.9722 16.2415C99.8409 15.8546 100.936 15.6703 102.22 15.6703C103.127 15.6703 104.014 15.7808 104.883 16.002C105.752 16.2231 106.507 16.5547 107.13 16.9785L106.413 18.6738C105.771 18.2684 105.091 17.9736 104.354 17.7709C103.618 17.5682 102.919 17.4576 102.22 17.4576C100.974 17.4576 100.049 17.6787 99.4443 18.121C98.8211 18.5632 98.5189 19.1344 98.5189 19.8162C98.5189 20.3321 98.6889 20.7375 99.0477 21.0692C99.3876 21.3824 99.822 21.6404 100.351 21.8062C100.861 21.9905 101.578 22.1747 102.466 22.3774C103.618 22.6538 104.543 22.9118 105.242 23.1882C105.94 23.4646 106.545 23.8699 107.036 24.4227C107.527 24.9755 107.791 25.731 107.791 26.6523C107.791 27.4262 107.565 28.1448 107.13 28.7897C106.696 29.4347 106.035 29.9506 105.147 30.3191C104.26 30.6876 103.164 30.8903 101.88 30.8903C100.728 30.9272 99.6142 30.7429 98.5378 30.3928Z" fill="#1F1F1F"/>
<path d="M122.181 25.7863H112.796C112.928 26.7813 113.381 27.5737 114.136 28.1817C114.892 28.7898 115.855 29.0846 116.988 29.0846C118.366 29.0846 119.481 28.624 120.33 27.7211L121.482 29.0478C120.954 29.6374 120.312 30.0981 119.537 30.4113C118.763 30.7245 117.894 30.872 116.931 30.872C115.704 30.872 114.627 30.6324 113.683 30.1349C112.739 29.6374 112.002 28.9556 111.493 28.0712C110.983 27.1867 110.718 26.1917 110.718 25.0861C110.718 23.999 110.964 23.004 111.474 22.1195C111.984 21.235 112.663 20.5533 113.551 20.0558C114.438 19.5583 115.42 19.3187 116.535 19.3187C117.649 19.3187 118.631 19.5583 119.5 20.0558C120.368 20.5533 121.048 21.235 121.539 22.1195C122.03 23.004 122.276 24.0174 122.276 25.1414C122.219 25.3257 122.2 25.5284 122.181 25.7863ZM113.985 21.9721C113.305 22.5617 112.909 23.3541 112.796 24.3122H120.217C120.104 23.3541 119.707 22.5802 119.027 21.9721C118.348 21.364 117.517 21.0692 116.497 21.0692C115.477 21.0692 114.665 21.3825 113.985 21.9721Z" fill="#1F1F1F"/>
<path d="M136.627 25.7863H127.242C127.374 26.7813 127.827 27.5737 128.583 28.1817C129.338 28.7898 130.301 29.0846 131.434 29.0846C132.813 29.0846 133.927 28.624 134.777 27.7211L135.929 29.0478C135.4 29.6374 134.758 30.0981 133.984 30.4113C133.209 30.7245 132.341 30.872 131.378 30.872C130.15 30.872 129.074 30.6324 128.129 30.1349C127.185 29.6374 126.449 28.9556 125.939 28.0712C125.429 27.1867 125.165 26.1917 125.165 25.0861C125.165 23.999 125.41 23.004 125.92 22.1195C126.43 21.235 127.11 20.5533 127.997 20.0558C128.885 19.5583 129.867 19.3187 130.981 19.3187C132.095 19.3187 133.077 19.5583 133.946 20.0558C134.814 20.5533 135.494 21.235 135.985 22.1195C136.476 23.004 136.722 24.0174 136.722 25.1414C136.665 25.3257 136.665 25.5284 136.627 25.7863ZM128.432 21.9721C127.752 22.5617 127.355 23.3541 127.242 24.3122H134.663C134.55 23.3541 134.154 22.5802 133.474 21.9721C132.794 21.364 131.963 21.0692 130.943 21.0692C129.923 21.0692 129.111 21.3825 128.432 21.9721Z" fill="#1F1F1F"/>
<path d="M151.584 14.9518V30.7431H149.582V28.9557C149.11 29.5822 148.525 30.0613 147.807 30.3745C147.089 30.7062 146.315 30.872 145.446 30.872C144.332 30.872 143.313 30.6325 142.425 30.1534C141.537 29.6743 140.839 28.9926 140.348 28.1265C139.838 27.2605 139.592 26.2471 139.592 25.1046C139.592 23.9622 139.838 22.9672 140.348 22.1012C140.858 21.2351 141.537 20.5534 142.425 20.0743C143.313 19.5952 144.313 19.3556 145.446 19.3556C146.277 19.3556 147.033 19.5031 147.731 19.8163C148.43 20.1295 149.016 20.5718 149.469 21.1614V14.9333H151.584V14.9518ZM147.618 28.5872C148.222 28.2555 148.676 27.7764 149.016 27.1868C149.356 26.5787 149.525 25.897 149.525 25.1046C149.525 24.3307 149.356 23.6305 149.016 23.0225C148.676 22.4144 148.222 21.9537 147.618 21.6221C147.014 21.2904 146.353 21.1246 145.635 21.1246C144.899 21.1246 144.219 21.2904 143.634 21.6221C143.048 21.9537 142.576 22.4144 142.236 23.0225C141.896 23.6305 141.726 24.3123 141.726 25.1046C141.726 25.8785 141.896 26.5787 142.236 27.1868C142.576 27.7949 143.048 28.2555 143.634 28.5872C144.219 28.9189 144.88 29.0847 145.635 29.0847C146.353 29.0847 147.014 28.9189 147.618 28.5872Z" fill="#1F1F1F"/>
<path d="M157.23 30.5034C156.362 30.2639 155.682 29.9322 155.172 29.5637L156.041 27.9422C156.55 28.2923 157.174 28.5871 157.891 28.7898C158.628 29.0109 159.345 29.103 160.101 29.103C161.932 29.103 162.858 28.5871 162.858 27.5737C162.858 27.242 162.726 26.9656 162.48 26.7629C162.235 26.5602 161.932 26.4128 161.555 26.3207C161.177 26.2285 160.648 26.118 159.969 26.0074C159.043 25.86 158.269 25.6942 157.683 25.5099C157.098 25.3257 156.588 25.0124 156.173 24.5702C155.757 24.128 155.531 23.5199 155.531 22.7091C155.531 21.6957 155.965 20.8665 156.834 20.24C157.702 19.6135 158.873 19.3187 160.346 19.3187C161.12 19.3187 161.895 19.4109 162.669 19.5951C163.443 19.7794 164.066 20.0373 164.576 20.3322L163.689 21.9537C162.745 21.364 161.63 21.0508 160.346 21.0508C159.459 21.0508 158.779 21.1982 158.307 21.4746C157.835 21.751 157.608 22.1379 157.608 22.5986C157.608 22.9671 157.74 23.2619 158.005 23.4646C158.269 23.6673 158.59 23.8331 158.968 23.9253C159.345 24.0174 159.893 24.1464 160.592 24.2569C161.517 24.4044 162.272 24.5886 162.858 24.7545C163.424 24.9387 163.915 25.2335 164.331 25.6573C164.746 26.0811 164.935 26.6708 164.935 27.4447C164.935 28.4581 164.482 29.2873 163.594 29.8769C162.707 30.485 161.479 30.7798 159.931 30.7798C159.024 30.8719 158.118 30.7614 157.23 30.5034Z" fill="#1F1F1F"/>
<path d="M23.8188 40.579L25.2611 42V39.1718L23.8188 40.579Z" fill="#1A6000"/>
<path d="M26.731 40.579L25.2607 39.1718V42L26.731 40.579Z" fill="#1A4C00"/>
<path d="M27.8372 7.43266L25.2607 0V7.82889L27.8372 7.43266Z" fill="#5AD100"/>
<path d="M29.5456 12.3924C28.8174 10.302 28.1033 8.21153 27.3752 6.12109C27.0391 6.32604 26.675 6.57197 26.2969 6.87256C25.8769 7.20047 25.5408 7.52838 25.2607 7.82897C25.9609 8.56677 26.717 9.37288 27.4032 10.1107C28.1033 10.8485 28.8594 11.6546 29.5456 12.3924Z" fill="#4AA800"/>
<path d="M29.2937 11.6409C27.3753 9.46853 25.2749 7.81531 25.2749 7.81531V18.2538C25.2749 18.2538 29.8398 19.5791 31.6881 18.5271L29.2937 11.6409Z" fill="#248F00"/>
<path d="M30.0497 13.8542C29.1255 14.3325 27.8792 15.1249 26.703 16.3819C26.0869 17.0377 25.6108 17.6935 25.2607 18.2674C26.1009 20.4808 26.9411 22.6942 27.7812 24.9213L32.3461 20.4671C31.59 18.2537 30.8198 16.054 30.0497 13.8542Z" fill="#206E00"/>
<path d="M25.2607 18.2673V27.2712C25.2607 27.2712 25.2747 27.2849 25.3168 27.3259L28.9575 23.7735C28.9014 20.5491 25.2607 18.2673 25.2607 18.2673Z" fill="#1A4C00"/>
<path d="M0 18.6909L5.48906 21.7787C5.6991 21.2322 5.90914 20.6857 6.11918 20.1392C4.07479 19.661 2.04439 19.1691 0 18.6909Z" fill="#5AD100"/>
<path d="M5.48909 21.7787C6.81934 21.4918 8.1356 21.2048 9.46585 20.9179C8.00957 20.5763 6.55329 20.2348 5.08301 19.8932C5.11101 20.1801 5.16702 20.4807 5.23704 20.8086C5.30705 21.1638 5.40507 21.4781 5.48909 21.7787Z" fill="#4AA800"/>
<path d="M13.1487 21.7788C11.6785 21.4372 10.2222 21.0956 8.75189 20.754C8.00974 20.9316 7.22559 21.1639 6.41344 21.4372C6.09137 21.5465 5.78331 21.6558 5.48926 21.7788C8.58385 23.5003 11.6644 25.2355 14.759 26.957C14.8291 26.9297 15.4732 26.6974 15.6832 26.0143C15.8373 25.5224 15.6972 24.9896 15.3192 24.607C14.591 23.6642 13.8769 22.7215 13.1487 21.7788Z" fill="#248F00"/>
<path d="M13.1484 21.7787C13.2325 22.7488 13.4565 23.9648 13.9746 25.2901C14.2126 25.9186 14.4927 26.4788 14.7587 26.957C17.0832 27.3532 19.3936 27.7494 21.7181 28.1456L15.851 22.4345L13.1484 21.7787Z" fill="#206E00"/>
<path d="M21.6904 30.851L23.1047 29.471C21.9145 28.3233 20.7243 27.1756 19.534 26.0279C18.6799 25.9869 17.5317 26.0416 16.2434 26.4105C15.6833 26.5744 15.1792 26.7657 14.7451 26.957C17.0696 28.255 19.38 29.553 21.6904 30.851Z" fill="#1A4C00"/>
<path d="M3.86474 23.7326L5.48906 21.7788L0 18.6909L3.86474 23.7326Z" fill="#5AE500"/>
<path d="M5.48905 21.7787C5.09697 21.8743 4.66289 21.9973 4.2008 22.1613C3.76671 22.3252 3.37464 22.4892 3.03857 22.6531C4.63488 24.7299 6.23119 26.8067 7.8275 28.8835C7.04335 26.5061 6.2732 24.1287 5.48905 21.7787Z" fill="#4ABC00"/>
<path d="M14.759 26.957L5.48926 21.7787C5.48926 21.7787 6.03536 25.1944 7.33761 28.2686L8.13577 29.307L13.5548 30.3454C14.325 28.7468 14.759 26.957 14.759 26.957Z" fill="#24A300"/>
<path d="M8.13529 29.3071C11.5799 29.9629 15.0246 30.6187 18.4553 31.2882L14.7446 26.9707C13.6383 26.9297 11.664 27.0253 9.64758 28.1184C9.01745 28.4599 8.48535 28.8562 8.05127 29.2251C8.09328 29.2387 8.12128 29.2797 8.13529 29.3071Z" fill="#208200"/>
<path d="M21.6901 30.851L14.7588 26.957C14.7588 26.957 14.8708 28.9928 15.865 30.7827L20.794 31.7254L21.6901 30.851Z" fill="#1A6000"/>
<path d="M6.65128 34.9636C4.43886 35.6331 2.21243 36.2889 0 36.9584C2.33845 36.8491 4.6769 36.7398 7.02936 36.6305L6.65128 34.9636Z" fill="#5AD100"/>
<path d="M5.65723 35.2643C5.83926 35.4966 6.0493 35.7288 6.30135 35.9884C6.5394 36.2344 6.79144 36.453 7.01549 36.6443C7.44957 36.2207 7.88365 35.7835 8.31774 35.3599C8.73782 34.95 9.1439 34.5265 9.54997 34.1166C8.26173 34.4991 6.95948 34.8817 5.65723 35.2643Z" fill="#4AA800"/>
<path d="M16.6073 33.4744C15.5991 33.2831 14.5769 33.0781 13.5687 32.8868L9.08787 34.2532C8.38773 35.0456 7.7016 35.8517 7.00146 36.6442C10.0681 36.5076 13.1347 36.3709 16.2012 36.2343C16.3413 35.3052 16.4813 34.3898 16.6073 33.4744Z" fill="#248F00"/>
<path d="M13.5827 32.8868C13.2607 32.9825 12.9246 33.0918 12.6025 33.1874C13.1486 33.8569 13.8908 34.6084 14.857 35.3325C15.3191 35.6741 15.7671 35.9747 16.2012 36.2069C16.9154 35.6604 17.6155 35.1002 18.3296 34.5537C18.3717 34.3078 18.3997 34.0755 18.4417 33.8296C17.9096 33.7203 17.3635 33.611 16.8314 33.5153C15.7391 33.2967 14.6469 33.0918 13.5827 32.8868Z" fill="#206E00"/>
<path d="M20.0658 34.1438C19.5197 34.0345 18.9736 33.9389 18.4274 33.8296C17.9233 34.2122 17.3492 34.7177 16.7891 35.3872C16.5511 35.6741 16.355 35.9473 16.187 36.2069C18.0774 36.125 19.9537 36.043 21.8441 35.9473C21.5501 35.6468 21.256 35.3462 20.9479 35.0319C20.6539 34.745 20.3598 34.4444 20.0658 34.1438Z" fill="#1A4C00"/>
<path d="M6.83347 38.3795C6.88949 37.8056 6.9455 37.2181 7.01551 36.6443C4.67706 36.7536 2.33861 36.8629 0.0141602 36.9722C2.2826 37.4504 4.55103 37.9149 6.83347 38.3795Z" fill="#5AE500"/>
<path d="M9.95601 39.0216C9.46592 38.6254 8.98982 38.2292 8.48573 37.833C7.99563 37.4367 7.49153 37.0405 7.00144 36.6443C6.7914 36.8629 6.58136 37.1088 6.35731 37.3957C6.14727 37.669 5.95124 37.9286 5.7832 38.1745C6.16128 38.2565 7.47753 38.5161 7.86961 38.5981C8.26168 38.6664 9.57794 38.9397 9.95601 39.0216Z" fill="#4ABC00"/>
<path d="M16.1869 36.2069L7.01514 36.6441C7.01514 36.6441 7.98132 37.6962 9.36759 38.8985C11.1039 39.2538 12.8263 39.609 14.5626 39.9643C15.3607 39.7593 16.1449 39.527 16.943 39.3221C16.747 37.7782 16.1869 36.2069 16.1869 36.2069Z" fill="#24A300"/>
<path d="M14.549 39.9643C17.0135 39.3084 19.5059 38.6389 21.9844 37.9831L16.2013 36.2069C15.7952 36.4802 15.3611 36.8218 14.913 37.218C13.9889 38.0514 13.3307 38.8985 12.8687 39.609C13.1487 39.6637 13.4428 39.7183 13.7228 39.773C13.9889 39.8413 14.2689 39.8959 14.549 39.9643Z" fill="#208200"/>
<path d="M21.8161 35.9337L16.187 36.207C16.187 36.207 17.4473 37.9149 19.2956 38.6937C20.6679 38.3384 22.0542 37.9559 23.4264 37.587C22.8943 37.0404 22.3622 36.4802 21.8161 35.9337Z" fill="#1A6000"/>
<path d="M22.6982 7.43266L25.2607 0V7.82889L22.6982 7.43266Z" fill="#5AE500"/>
<path d="M20.9897 12.3924C21.7179 10.302 22.432 8.21153 23.1602 6.12109C23.4962 6.31238 23.8603 6.55831 24.2524 6.87256C24.6585 7.20047 25.0085 7.52838 25.2746 7.82897C24.5744 8.59409 23.8603 9.34556 23.1462 10.1107C22.418 10.8621 21.7039 11.6273 20.9897 12.3924Z" fill="#4ABC00"/>
<path d="M21.2559 11.6408C22.0681 10.7527 22.9643 9.83731 23.9865 8.92189C24.4205 8.53933 24.8406 8.17043 25.2607 7.82886C25.2607 11.3129 25.2607 14.7833 25.2607 18.2674C24.5886 18.486 23.7484 18.7046 22.7682 18.8002C21.1579 18.9642 19.7997 18.7592 18.8755 18.5406L21.2559 11.6408Z" fill="#24A300"/>
<path d="M20.4859 13.8542C21.4101 14.3325 22.6563 15.1112 23.8325 16.3819C24.4487 17.0377 24.9107 17.6935 25.2608 18.2674C24.4206 20.4808 23.5945 22.6942 22.7543 24.9213L18.1895 20.4671C18.9596 18.2537 19.7157 16.054 20.4859 13.8542Z" fill="#208200"/>
<path d="M25.2607 18.2673V27.2712C25.2607 27.2712 25.2467 27.2849 25.2047 27.3259C23.9864 26.1372 22.7822 24.9485 21.564 23.7599C21.718 22.9127 22.1241 21.3142 23.4403 19.8113C24.0704 19.0871 24.7286 18.5952 25.2607 18.2673Z" fill="#1A6000"/>
<path d="M50.5362 18.7046L45.0471 21.7924C44.8371 21.2459 44.627 20.6994 44.417 20.1529C46.4474 19.6747 48.4918 19.1965 50.5362 18.7046Z" fill="#5AD100"/>
<path d="M45.0471 21.7925C43.7168 21.5056 42.4006 21.2186 41.0703 20.9317C42.5266 20.5901 43.9829 20.2486 45.4532 19.907C45.4252 20.1939 45.3691 20.4945 45.2991 20.8224C45.2291 21.1776 45.1311 21.5056 45.0471 21.7925Z" fill="#4AA800"/>
<path d="M37.3875 21.7924C38.8578 21.4508 40.3141 21.1093 41.7844 20.7677C42.5265 20.9453 43.3107 21.1776 44.1228 21.4508C44.4449 21.5602 44.753 21.6695 45.047 21.7924C41.9524 23.514 38.8718 25.2492 35.7772 26.9707C35.7072 26.9434 35.0631 26.7111 34.8531 26.0279C34.699 25.5361 34.8391 25.0032 35.2171 24.6207C35.9453 23.6779 36.6594 22.7352 37.3875 21.7924Z" fill="#248F00"/>
<path d="M37.3875 21.7924C37.3035 22.7624 37.0795 23.9784 36.5614 25.3037C36.3233 25.9322 36.0433 26.4924 35.7772 26.9706C33.4528 27.3669 31.1423 27.7631 28.8179 28.1593L34.685 22.4345L37.3875 21.7924Z" fill="#206E00"/>
<path d="M28.8318 30.8647L27.4175 29.4848C28.6077 28.3371 29.7979 27.1894 30.9882 26.0417C31.8423 26.0007 32.9906 26.0554 34.2788 26.4243C34.8389 26.5882 35.343 26.7795 35.7771 26.9708C33.4666 28.2688 31.1562 29.5668 28.8318 30.8647Z" fill="#1A4C00"/>
<path d="M46.6712 23.7599L45.0469 21.7924L50.5359 18.7046L46.6712 23.7599Z" fill="#5AE500"/>
<path d="M45.047 21.7924C45.439 21.888 45.8731 22.011 46.3352 22.1749C46.7693 22.3389 47.1614 22.5028 47.4974 22.6668C45.9011 24.7436 44.3048 26.8203 42.7085 28.8971C43.4926 26.5334 44.2628 24.1561 45.047 21.7924Z" fill="#4ABC00"/>
<path d="M35.7769 26.9706L45.0467 21.7924C45.0467 21.7924 44.5006 25.2081 43.1983 28.2823L42.4001 29.3207L36.9811 30.359C36.2109 28.7605 35.7769 26.9706 35.7769 26.9706Z" fill="#24A300"/>
<path d="M42.3864 29.3207C38.9417 29.9765 35.4971 30.6324 32.0664 31.3018L35.7771 26.9844C36.8833 26.9434 38.8577 27.039 40.8741 28.132C41.5042 28.4736 42.0363 28.8698 42.4704 29.2387C42.4424 29.2661 42.4144 29.2934 42.3864 29.3207Z" fill="#208200"/>
<path d="M28.8315 30.8647L35.7629 26.9707C35.7629 26.9707 35.6508 29.0065 34.6566 30.7963L29.7277 31.7391L28.8315 30.8647Z" fill="#1A6000"/>
<path d="M43.8708 34.9908C46.0832 35.6603 48.3096 36.3162 50.522 36.9857C48.1836 36.8764 45.8451 36.7671 43.4927 36.6578L43.8708 34.9908Z" fill="#5AD100"/>
<path d="M44.8786 35.2914C44.6966 35.5236 44.4865 35.7559 44.2345 36.0155C43.9964 36.2614 43.7444 36.48 43.5203 36.6713C43.0862 36.2478 42.6522 35.8106 42.2181 35.387C41.798 34.9771 41.3919 34.5536 40.9858 34.1437C42.2741 34.5126 43.5763 34.8951 44.8786 35.2914Z" fill="#4AA800"/>
<path d="M33.9146 33.4879C34.9227 33.2966 35.9449 33.0917 36.9531 32.9004L41.434 34.2667C42.1341 35.0591 42.8203 35.8653 43.5204 36.6577C40.4538 36.5211 37.3872 36.3845 34.3206 36.2478C34.1946 35.3187 34.0546 34.4033 33.9146 33.4879Z" fill="#248F00"/>
<path d="M36.9532 32.9004C37.2752 32.996 37.6113 33.1053 37.9334 33.201C37.3873 33.8705 36.6451 34.6219 35.6789 35.346C35.2168 35.6876 34.7688 35.9882 34.3347 36.2205C33.6205 35.6739 32.9204 35.1138 32.2063 34.5673C32.1643 34.3213 32.1362 34.0891 32.0942 33.8431C32.6263 33.7338 33.1724 33.6245 33.7045 33.5289C34.7968 33.3103 35.875 33.1053 36.9532 32.9004Z" fill="#206E00"/>
<path d="M30.4561 34.1575C31.0022 34.0482 31.5483 33.9526 32.0944 33.8433C32.5985 34.2258 33.1726 34.7313 33.7327 35.4008C33.9708 35.6877 34.1668 35.961 34.3349 36.2206C32.4445 36.1386 30.5681 36.0566 28.6777 35.961C28.9718 35.6604 29.2658 35.3598 29.5739 35.0456C29.882 34.7587 30.176 34.4581 30.4561 34.1575Z" fill="#1A4C00"/>
<path d="M43.7025 38.3929C43.6465 37.819 43.5905 37.2316 43.5205 36.6577C45.859 36.767 48.1974 36.8763 50.5219 36.9856C48.2534 37.4638 45.971 37.9283 43.7025 38.3929Z" fill="#5AE500"/>
<path d="M40.5801 39.0351C41.0702 38.6388 41.5463 38.2426 42.0504 37.8464C42.5405 37.4502 43.0446 37.0539 43.5346 36.6577C43.7447 36.8763 43.9547 37.1223 44.1788 37.4092C44.3888 37.6824 44.5848 37.942 44.7529 38.188C44.3748 38.2699 43.0586 38.5295 42.6665 38.6115C42.2744 38.6798 40.9582 38.9531 40.5801 39.0351Z" fill="#4ABC00"/>
<path d="M34.3486 36.2205L43.5343 36.6577C43.5343 36.6577 42.5682 37.7097 41.1819 38.9121C39.4456 39.2673 37.7232 39.6226 35.9869 39.9778C35.1887 39.7729 34.4046 39.5406 33.6064 39.3357C33.7745 37.7917 34.3486 36.2205 34.3486 36.2205Z" fill="#24A300"/>
<path d="M35.9867 39.9778C33.5222 39.322 31.0298 38.6525 28.5513 37.9967L34.3344 36.2205C34.7405 36.4937 35.1746 36.8353 35.6226 37.2315C36.5468 38.065 37.205 38.9121 37.667 39.6226C37.387 39.6772 37.0929 39.7319 36.8129 39.7865C36.5328 39.8549 36.2528 39.9232 35.9867 39.9778Z" fill="#208200"/>
<path d="M28.7197 35.9473L34.3488 36.2205C34.3488 36.2205 33.0885 37.9284 31.2402 38.7072C29.8679 38.3519 28.4816 37.9694 27.1094 37.6005C27.6415 37.054 28.1596 36.4938 28.7197 35.9473Z" fill="#1A6000"/>
</svg>
