<svg width="18" height="14" viewBox="0 0 18 14" fill="none" xmlns="http://www.w3.org/2000/svg">
<path d="M16.2 0C16.6774 0 17.1352 0.184374 17.4728 0.512563C17.8104 0.840752 18 1.28587 18 1.75V12.25C18 12.7141 17.8104 13.1592 17.4728 13.4874C17.1352 13.8156 16.6774 14 16.2 14H1.8C1.32261 14 0.864773 13.8156 0.527208 13.4874C0.189642 13.1592 0 12.7141 0 12.25V1.75C0 0.7875 0.81 0 1.8 0H16.2ZM12.267 7.9625L18 12.25V10.5L13.392 7.0875L18 3.5V1.75L9 8.75L0 1.75V3.5L4.608 7.0875L0 10.5V12.25L5.733 7.9625L9 10.5L12.267 7.9625Z" fill="white"/>
</svg>
