<svg width="18" height="18" viewBox="0 0 18 18" fill="none" xmlns="http://www.w3.org/2000/svg">
<path d="M14.5519 1.71959L15.0612 4.79257L17.9917 6.2176L16.5139 9.00398L18 11.7904L15.0445 13.2154L14.5352 16.2884L11.2876 15.8027L8.97495 18L6.65399 15.7709L3.43135 16.2804L2.91373 13.1835L0 11.7665L1.48609 8.9801L0.00834879 6.2176L2.93878 4.77665L3.44805 1.72755L6.67903 2.23706L9 0L11.3126 2.20522L14.5519 1.71959ZM6.9128 5.02344C6.58067 5.02344 6.26213 5.14925 6.02728 5.3732C5.79242 5.59715 5.66048 5.90089 5.66048 6.2176C5.66048 6.53431 5.79242 6.83805 6.02728 7.062C6.26213 7.28595 6.58067 7.41177 6.9128 7.41177C7.24494 7.41177 7.56347 7.28595 7.79832 7.062C8.03318 6.83805 8.16512 6.53431 8.16512 6.2176C8.16512 5.90089 8.03318 5.59715 7.79832 5.3732C7.56347 5.14925 7.24494 5.02344 6.9128 5.02344ZM11.0872 10.5962C10.7551 10.5962 10.4365 10.722 10.2017 10.946C9.96682 11.1699 9.83488 11.4736 9.83488 11.7904C9.83488 12.1071 9.96682 12.4108 10.2017 12.6348C10.4365 12.8587 10.7551 12.9845 11.0872 12.9845C11.4193 12.9845 11.7379 12.8587 11.9727 12.6348C12.2076 12.4108 12.3395 12.1071 12.3395 11.7904C12.3395 11.4736 12.2076 11.1699 11.9727 10.946C11.7379 10.722 11.4193 10.5962 11.0872 10.5962ZM6.00278 12.9845L13.1744 6.14595L11.9972 5.02344L4.8256 11.862L6.00278 12.9845Z" fill="white"/>
</svg>
