<svg width="25" height="15" viewBox="0 0 25 15" fill="none" xmlns="http://www.w3.org/2000/svg">
<path d="M11.7714 13.6001C11.8312 13.6499 11.8961 13.6997 11.9596 13.7483C10.6962 14.5656 9.2132 15.0008 7.69679 14.9994C6.68601 15.0002 5.68499 14.8068 4.75096 14.4303C3.81694 14.0538 2.96823 13.5016 2.25339 12.8052C1.53855 12.1088 0.971587 11.2819 0.584931 10.3718C0.198275 9.46171 -0.000490885 8.48627 9.10387e-07 7.50126C-0.000130582 6.14463 0.37731 4.81336 1.09213 3.64923C1.80695 2.48509 2.83238 1.53168 4.05922 0.890525C5.28606 0.249368 6.66837 -0.0555262 8.05896 0.00830984C9.44954 0.0721459 10.7963 0.502322 11.9559 1.25303C11.8936 1.30526 11.8312 1.35263 11.7839 1.40608C10.8854 2.1621 10.1645 3.09781 9.67028 4.14956C9.17603 5.20132 8.91998 6.34446 8.91955 7.50126C8.91955 9.83949 9.95784 12.0623 11.7714 13.6001ZM17.2071 0.00192477C15.6921 -0.000946577 14.2102 0.434475 12.9493 1.25303C13.0104 1.30526 13.0727 1.35263 13.1201 1.40608C14.9424 2.9402 15.9856 5.16425 15.9856 7.50126C15.9856 9.83827 14.9449 12.0599 13.1338 13.6001C13.0727 13.6499 13.0079 13.6997 12.9456 13.7483C14.2079 14.5658 15.6902 15.0011 17.2059 14.9994C18.2247 15.0121 19.2359 14.8276 20.1808 14.4564C21.1258 14.0853 21.9858 13.5351 22.7108 12.8376C23.4359 12.14 24.0116 11.3092 24.4046 10.3931C24.7975 9.47709 24.9999 8.49413 25 7.50127C25.0001 6.50841 24.7979 5.52542 24.405 4.60932C24.0122 3.69322 23.4367 2.86225 22.7117 2.16462C21.9868 1.46699 21.1269 0.916581 20.182 0.545329C19.2371 0.174076 18.2259 -0.0106301 17.2071 0.00192477ZM12.452 1.61014C11.5356 2.31035 10.7949 3.20474 10.2861 4.22548C9.77726 5.24621 9.51369 6.36647 9.51535 7.50126C9.51293 8.6367 9.77616 9.75774 10.285 10.7792C10.7939 11.8006 11.535 12.6956 12.452 13.396C13.3687 12.6953 14.1097 11.8003 14.6187 10.7789C15.1277 9.75758 15.3915 8.63669 15.3898 7.50126C15.3915 6.36634 15.1278 5.24596 14.6188 4.22519C14.1097 3.20442 13.3687 2.3101 12.452 1.61014Z" fill="white"/>
</svg>
