<svg width="18" height="18" viewBox="0 0 18 18" fill="none" xmlns="http://www.w3.org/2000/svg">
<path d="M9.00619 4.5C10.9539 4.5 12.2412 5.44725 13.1967 6.5445L13.3828 6.76425C13.4444 6.84 13.5059 6.91425 13.5644 6.98925C13.8902 7.416 14.1717 7.84875 14.4426 8.24475C14.6228 8.51175 14.7916 8.7645 14.9598 9.00075L15.1302 9.24075C15.1857 9.3195 15.2412 9.399 15.3103 9.47325C16.0068 10.3515 16.7281 10.8982 17.7744 10.9665C18.0752 9.67323 18.0752 8.32827 17.7744 7.035C16.7274 7.10325 16.0068 7.64925 15.2968 8.52825C15.1617 8.34375 15.0288 8.14575 14.8802 7.93125C14.5713 7.45509 14.2407 6.99335 13.8894 6.5475C14.6445 5.67075 15.5782 4.91625 16.8407 4.62975C15.3448 1.8675 12.395 0 9.00619 0C5.62859 0 2.67131 1.8675 1.13262 4.62975C2.39434 4.91775 3.32656 5.67075 4.08314 6.54675C4.14769 6.61425 4.20924 6.68175 4.27004 6.7605L4.44793 6.9855C4.80745 7.44675 5.13395 7.91925 5.42743 8.36925L5.844 8.98875L6.02414 9.2355C6.07968 9.3135 6.14798 9.393 6.20353 9.47175C6.99239 10.551 7.791 11.2942 9.0182 11.2942C10.2566 11.2942 11.0455 10.5517 11.8441 9.47175L12.1256 9.888C12.4641 10.383 12.8251 10.923 13.2177 11.4292C12.2622 12.5325 10.9659 13.4767 9.0182 13.4767C7.0712 13.4767 5.78771 12.5205 4.83072 11.4292L4.47044 10.9792C4.14394 10.5517 3.86247 10.1137 3.59227 9.71925C3.42376 9.46511 3.25136 9.21359 3.07512 8.96475L2.90549 8.71725C2.84994 8.63925 2.79365 8.55975 2.72535 8.48175C1.99278 7.65 1.27148 7.09875 0.225173 7.03125C0.0788107 7.668 0 8.325 0 9C0 9.675 0.076559 10.332 0.217668 10.9657C1.26698 10.8975 1.98528 10.3515 2.69082 9.4725C2.81992 9.657 2.95653 9.855 3.09914 10.0695C3.3806 10.494 3.7041 10.9755 4.08465 11.4532C3.32731 12.33 2.39359 13.0845 1.13487 13.371C1.91356 14.7747 3.05433 15.9444 4.43857 16.7585C5.82281 17.5725 7.4 18.0012 9.00619 18C12.395 18 15.3418 16.1325 16.8797 13.3702C15.6188 13.0822 14.6866 12.3292 13.93 11.4532C13.8654 11.3857 13.8024 11.3182 13.7423 11.2395L13.5652 11.0145C13.2187 10.5677 12.8919 10.106 12.5857 9.63075L12.1699 9C12.1139 8.91642 12.0563 8.8339 11.9972 8.7525C11.9401 8.67062 11.882 8.58936 11.8231 8.50875C11.0342 7.42875 10.2469 6.6855 9.00844 6.6855C7.76998 6.6855 6.98263 7.428 6.19377 8.50875L5.9123 8.08875C5.57248 7.55714 5.2078 7.04182 4.81946 6.5445C5.77495 5.44725 7.03592 4.5 9.00619 4.5Z" fill="#24A300"/>
</svg>
