<svg width="20" height="18" viewBox="0 0 20 18" fill="none" xmlns="http://www.w3.org/2000/svg">
<path d="M10 4.55556C10 3.61256 9.62072 2.70819 8.94558 2.0414C8.27045 1.3746 7.35478 1 6.4 1H1V14.3333H7.3C8.01608 14.3333 8.70284 14.6143 9.20919 15.1144C9.71554 15.6145 10 16.2928 10 17M10 4.55556V17M10 4.55556C10 3.61256 10.3793 2.70819 11.0544 2.0414C11.7295 1.3746 12.6452 1 13.6 1H19V14.3333H12.7C11.9839 14.3333 11.2972 14.6143 10.7908 15.1144C10.2845 15.6145 10 16.2928 10 17" stroke="white" stroke-width="2" stroke-linecap="round" stroke-linejoin="round"/>
</svg>
