<svg width="51" height="42" viewBox="0 0 51 42" fill="none" xmlns="http://www.w3.org/2000/svg">
<path d="M23.8186 40.5792L25.2609 42.0001V39.1719L23.8186 40.5792Z" fill="#1A6000"/>
<path d="M26.7311 40.5792L25.2609 39.1719V42.0001L26.7311 40.5792Z" fill="#1A4C00"/>
<path d="M27.8374 7.43266L25.2609 0V7.82889L27.8374 7.43266Z" fill="#5AD100"/>
<path d="M29.5457 12.3924C28.8176 10.302 28.1034 8.21153 27.3753 6.12109C27.0392 6.32604 26.6751 6.57197 26.2971 6.87256C25.877 7.20047 25.5409 7.52838 25.2609 7.82897C25.961 8.56677 26.7171 9.37288 27.4033 10.1107C28.1034 10.8485 28.8596 11.6546 29.5457 12.3924Z" fill="#4AA800"/>
<path d="M29.2939 11.6408C27.3756 9.46841 25.2751 7.81519 25.2751 7.81519V18.2537C25.2751 18.2537 29.84 19.579 31.6884 18.527L29.2939 11.6408Z" fill="#248F00"/>
<path d="M30.0498 13.8542C29.1256 14.3325 27.8794 15.1249 26.7031 16.3819C26.087 17.0377 25.6109 17.6935 25.2609 18.2674C26.101 20.4808 26.9412 22.6942 27.7813 24.9213L32.3462 20.4671C31.5901 18.2537 30.8199 16.054 30.0498 13.8542Z" fill="#206E00"/>
<path d="M25.2609 18.2673V27.2712C25.2609 27.2712 25.2749 27.2849 25.3169 27.3259L28.9576 23.7735C28.9016 20.5491 25.2609 18.2673 25.2609 18.2673Z" fill="#1A4C00"/>
<path d="M0 18.6909L5.48906 21.7787C5.6991 21.2322 5.90914 20.6857 6.11918 20.1392C4.07479 19.661 2.04439 19.1691 0 18.6909Z" fill="#5AD100"/>
<path d="M5.48909 21.7788C6.81934 21.4919 8.1356 21.205 9.46585 20.918C8.00957 20.5765 6.55329 20.2349 5.08301 19.8933C5.11101 20.1802 5.16702 20.4808 5.23704 20.8087C5.30705 21.164 5.40507 21.4782 5.48909 21.7788Z" fill="#4AA800"/>
<path d="M13.1486 21.7789C11.6783 21.4373 10.222 21.0957 8.75177 20.7542C8.00962 20.9318 7.22547 21.164 6.41331 21.4373C6.09125 21.5466 5.78319 21.6559 5.48914 21.7789C8.58373 23.5004 11.6643 25.2356 14.7589 26.9571C14.8289 26.9298 15.4731 26.6975 15.6831 26.0144C15.8371 25.5225 15.6971 24.9897 15.319 24.6071C14.5909 23.6644 13.8768 22.7216 13.1486 21.7789Z" fill="#248F00"/>
<path d="M13.1484 21.7788C13.2325 22.7489 13.4565 23.9649 13.9746 25.2902C14.2126 25.9187 14.4927 26.4789 14.7587 26.9571C17.0832 27.3533 19.3936 27.7495 21.7181 28.1458L15.851 22.4346L13.1484 21.7788Z" fill="#206E00"/>
<path d="M21.6902 30.851L23.1045 29.471C21.9142 28.3233 20.724 27.1756 19.5338 26.0279C18.6796 25.9869 17.5314 26.0416 16.2432 26.4105C15.6831 26.5744 15.179 26.7657 14.7449 26.957C17.0693 28.255 19.3798 29.553 21.6902 30.851Z" fill="#1A4C00"/>
<path d="M3.86474 23.7326L5.48906 21.7788L0 18.6909L3.86474 23.7326Z" fill="#5AE500"/>
<path d="M5.48905 21.7788C5.09697 21.8744 4.66289 21.9974 4.2008 22.1614C3.76671 22.3253 3.37464 22.4893 3.03857 22.6532C4.63488 24.73 6.23119 26.8068 7.8275 28.8836C7.04335 26.5062 6.2732 24.1288 5.48905 21.7788Z" fill="#4ABC00"/>
<path d="M14.7589 26.9571L5.48914 21.7788C5.48914 21.7788 6.03524 25.1946 7.33749 28.2687L8.13565 29.3071L13.5547 30.3455C14.3248 28.7469 14.7589 26.9571 14.7589 26.9571Z" fill="#24A300"/>
<path d="M8.13541 29.3069C11.5801 29.9628 15.0247 30.6186 18.4554 31.2881L14.7447 26.9706C13.6385 26.9296 11.6641 27.0252 9.6477 28.1182C9.01758 28.4598 8.48548 28.856 8.05139 29.225C8.0934 29.2386 8.1214 29.2796 8.13541 29.3069Z" fill="#208200"/>
<path d="M21.6902 30.851L14.7589 26.957C14.7589 26.957 14.8709 28.9928 15.8651 30.7827L20.7941 31.7254L21.6902 30.851Z" fill="#1A6000"/>
<path d="M6.65128 34.9636C4.43886 35.6331 2.21243 36.2889 0 36.9584C2.33845 36.8491 4.6769 36.7398 7.02936 36.6305L6.65128 34.9636Z" fill="#5AD100"/>
<path d="M5.6571 35.2642C5.83914 35.4964 6.04918 35.7287 6.30123 35.9883C6.53927 36.2342 6.79132 36.4529 7.01537 36.6441C7.44945 36.2206 7.88353 35.7834 8.31761 35.3598C8.7377 34.9499 9.14377 34.5263 9.54985 34.1165C8.2616 34.499 6.95935 34.8816 5.6571 35.2642Z" fill="#4AA800"/>
<path d="M16.6072 33.4742C15.599 33.2829 14.5768 33.078 13.5686 32.8867L9.08775 34.253C8.38761 35.0455 7.70148 35.8516 7.00134 36.6441C10.0679 36.5074 13.1345 36.3708 16.2011 36.2342C16.3411 35.3051 16.4812 34.3897 16.6072 33.4742Z" fill="#248F00"/>
<path d="M13.5826 32.8867C13.2605 32.9824 12.9245 33.0917 12.6024 33.1873C13.1485 33.8568 13.8907 34.6082 14.8569 35.3324C15.3189 35.674 15.767 35.9745 16.2011 36.2068C16.9152 35.6603 17.6154 35.1001 18.3295 34.5536C18.3715 34.3077 18.3995 34.0754 18.4415 33.8295C17.9094 33.7202 17.3633 33.6109 16.8312 33.5152C15.739 33.2966 14.6468 33.0917 13.5826 32.8867Z" fill="#206E00"/>
<path d="M20.0658 34.1438C19.5197 34.0345 18.9736 33.9389 18.4274 33.8296C17.9233 34.2122 17.3492 34.7177 16.7891 35.3872C16.5511 35.6741 16.355 35.9473 16.187 36.2069C18.0774 36.125 19.9537 36.043 21.8441 35.9473C21.5501 35.6468 21.256 35.3462 20.9479 35.0319C20.6539 34.745 20.3598 34.4444 20.0658 34.1438Z" fill="#1A4C00"/>
<path d="M6.8336 38.3792C6.88961 37.8054 6.94562 37.2179 7.01563 36.644C4.67718 36.7533 2.33873 36.8626 0.0142822 36.9719C2.28272 37.4501 4.55116 37.9147 6.8336 38.3792Z" fill="#5AE500"/>
<path d="M9.95589 39.0214C9.46579 38.6252 8.9897 38.2289 8.4856 37.8327C7.99551 37.4365 7.49141 37.0403 7.00132 36.644C6.79128 36.8626 6.58124 37.1086 6.35719 37.3955C6.14715 37.6688 5.95111 37.9284 5.78308 38.1743C6.16115 38.2563 7.47741 38.5159 7.86948 38.5978C8.26156 38.6662 9.57782 38.9394 9.95589 39.0214Z" fill="#4ABC00"/>
<path d="M16.1871 36.2068L7.01538 36.644C7.01538 36.644 7.98157 37.6961 9.36783 38.8984C11.1042 39.2537 12.8265 39.6089 14.5628 39.9641C15.361 39.7592 16.1451 39.5269 16.9433 39.322C16.7472 37.778 16.1871 36.2068 16.1871 36.2068Z" fill="#24A300"/>
<path d="M14.5489 39.9641C17.0133 39.3083 19.5058 38.6388 21.9843 37.983L16.2012 36.2068C15.7951 36.48 15.361 36.8216 14.9129 37.2179C13.9887 38.0513 13.3306 38.8984 12.8685 39.6089C13.1486 39.6636 13.4426 39.7182 13.7227 39.7729C13.9887 39.8412 14.2688 39.8958 14.5489 39.9641Z" fill="#208200"/>
<path d="M21.8161 35.9336L16.187 36.2069C16.187 36.2069 17.4473 37.9148 19.2956 38.6936C20.6679 38.3383 22.0542 37.9557 23.4264 37.5868C22.8943 37.0403 22.3622 36.4801 21.8161 35.9336Z" fill="#1A6000"/>
<path d="M22.6985 7.43266L25.261 0V7.82889L22.6985 7.43266Z" fill="#5AE500"/>
<path d="M20.9901 12.3924C21.7183 10.302 22.4324 8.21153 23.1605 6.12109C23.4966 6.31238 23.8607 6.55831 24.2527 6.87256C24.6588 7.20047 25.0089 7.52838 25.2749 7.82897C24.5748 8.59409 23.8607 9.34556 23.1465 10.1107C22.4184 10.8621 21.7043 11.6273 20.9901 12.3924Z" fill="#4ABC00"/>
<path d="M21.2562 11.6408C22.0683 10.7527 22.9645 9.83731 23.9867 8.92189C24.4208 8.53933 24.8409 8.17043 25.261 7.82886C25.261 11.3129 25.261 14.7833 25.261 18.2674C24.5888 18.486 23.7487 18.7046 22.7685 18.8002C21.1582 18.9642 19.7999 18.7592 18.8757 18.5406L21.2562 11.6408Z" fill="#24A300"/>
<path d="M20.486 13.8542C21.4102 14.3325 22.6564 15.1112 23.8327 16.3819C24.4488 17.0377 24.9109 17.6935 25.2609 18.2674C24.4208 20.4808 23.5946 22.6942 22.7545 24.9213L18.1896 20.4671C18.9597 18.2537 19.7159 16.054 20.486 13.8542Z" fill="#208200"/>
<path d="M25.2609 18.2673V27.2712C25.2609 27.2712 25.2469 27.2849 25.2049 27.3259C23.9867 26.1372 22.7824 24.9485 21.5642 23.7599C21.7182 22.9127 22.1243 21.3142 23.4406 19.8113C24.0707 19.0871 24.7288 18.5952 25.2609 18.2673Z" fill="#1A6000"/>
<path d="M50.5358 18.7046L45.0467 21.7924C44.8367 21.2459 44.6267 20.6994 44.4166 20.1529C46.447 19.6747 48.4914 19.1965 50.5358 18.7046Z" fill="#5AD100"/>
<path d="M45.0468 21.7925C43.7166 21.5056 42.4003 21.2186 41.0701 20.9317C42.5264 20.5901 43.9826 20.2486 45.4529 19.907C45.4249 20.1939 45.3689 20.4945 45.2989 20.8224C45.2289 21.1776 45.1309 21.5056 45.0468 21.7925Z" fill="#4AA800"/>
<path d="M37.3873 21.7925C38.8576 21.451 40.3139 21.1094 41.7842 20.7678C42.5263 20.9454 43.3104 21.1777 44.1226 21.451C44.4447 21.5603 44.7527 21.6696 45.0468 21.7925C41.9522 23.5141 38.8716 25.2493 35.777 26.9708C35.707 26.9435 35.0629 26.7112 34.8528 26.0281C34.6988 25.5362 34.8388 25.0033 35.2169 24.6208C35.945 23.678 36.6592 22.7353 37.3873 21.7925Z" fill="#248F00"/>
<path d="M37.3873 21.7925C37.3033 22.7626 37.0792 23.9786 36.5611 25.3039C36.3231 25.9324 36.043 26.4925 35.777 26.9707C33.4525 27.367 31.1421 27.7632 28.8176 28.1594L34.6848 22.4346L37.3873 21.7925Z" fill="#206E00"/>
<path d="M28.8316 30.8646L27.4174 29.4847C28.6076 28.337 29.7978 27.1893 30.988 26.0416C31.8422 26.0006 32.9904 26.0553 34.2787 26.4242C34.8388 26.5881 35.3429 26.7794 35.777 26.9707C33.4665 28.2687 31.1561 29.5666 28.8316 30.8646Z" fill="#1A4C00"/>
<path d="M46.6711 23.7599L45.0468 21.7924L50.5358 18.7046L46.6711 23.7599Z" fill="#5AE500"/>
<path d="M45.0468 21.7925C45.4389 21.8881 45.873 22.0111 46.3351 22.175C46.7692 22.339 47.1612 22.503 47.4973 22.6669C45.901 24.7437 44.3047 26.8205 42.7084 28.8972C43.4925 26.5335 44.2627 24.1562 45.0468 21.7925Z" fill="#4ABC00"/>
<path d="M35.777 26.9707L45.0468 21.7925C45.0468 21.7925 44.5007 25.2082 43.1984 28.2824L42.4003 29.3208L36.9812 30.3592C36.2111 28.7606 35.777 26.9707 35.777 26.9707Z" fill="#24A300"/>
<path d="M42.3863 29.3208C38.9416 29.9767 35.4969 30.6325 32.0663 31.302L35.777 26.9845C36.8832 26.9435 38.8576 27.0391 40.874 28.1322C41.5041 28.4737 42.0362 28.87 42.4703 29.2389C42.4423 29.2662 42.4143 29.2935 42.3863 29.3208Z" fill="#208200"/>
<path d="M28.8317 30.8647L35.763 26.9707C35.763 26.9707 35.651 29.0065 34.6568 30.7963L29.7278 31.7391L28.8317 30.8647Z" fill="#1A6000"/>
<path d="M43.8705 34.9907C46.0829 35.6602 48.3094 36.3161 50.5218 36.9856C48.1833 36.8762 45.8449 36.7669 43.4924 36.6576L43.8705 34.9907Z" fill="#5AD100"/>
<path d="M44.8786 35.2915C44.6966 35.5238 44.4865 35.756 44.2345 36.0156C43.9964 36.2616 43.7444 36.4802 43.5203 36.6715C43.0862 36.2479 42.6522 35.8107 42.2181 35.3871C41.798 34.9772 41.3919 34.5537 40.9858 34.1438C42.2741 34.5127 43.5763 34.8953 44.8786 35.2915Z" fill="#4AA800"/>
<path d="M33.9144 33.4879C34.9226 33.2966 35.9448 33.0917 36.953 32.9004L41.4339 34.2667C42.134 35.0591 42.8201 35.8653 43.5203 36.6577C40.4537 36.5211 37.3871 36.3845 34.3205 36.2478C34.1945 35.3187 34.0545 34.4033 33.9144 33.4879Z" fill="#248F00"/>
<path d="M36.9531 32.9004C37.2751 32.996 37.6112 33.1053 37.9332 33.201C37.3871 33.8705 36.645 34.6219 35.6788 35.346C35.2167 35.6876 34.7686 35.9882 34.3345 36.2205C33.6204 35.6739 32.9203 35.1138 32.2061 34.5673C32.1641 34.3213 32.1361 34.0891 32.0941 33.8431C32.6262 33.7338 33.1723 33.6245 33.7044 33.5289C34.7966 33.3103 35.8748 33.1053 36.9531 32.9004Z" fill="#206E00"/>
<path d="M30.4558 34.1575C31.0019 34.0482 31.5481 33.9526 32.0942 33.8433C32.5983 34.2258 33.1724 34.7313 33.7325 35.4008C33.9705 35.6877 34.1666 35.961 34.3346 36.2206C32.4442 36.1386 30.5679 36.0566 28.6775 35.961C28.9715 35.6604 29.2656 35.3598 29.5737 35.0456C29.8817 34.7587 30.1758 34.4581 30.4558 34.1575Z" fill="#1A4C00"/>
<path d="M43.7023 38.3929C43.6463 37.819 43.5903 37.2316 43.5203 36.6577C45.8587 36.767 48.1972 36.8763 50.5216 36.9856C48.2532 37.4638 45.9707 37.9283 43.7023 38.3929Z" fill="#5AE500"/>
<path d="M40.5797 39.0351C41.0698 38.6388 41.5459 38.2426 42.05 37.8464C42.5401 37.4502 43.0442 37.0539 43.5343 36.6577C43.7443 36.8763 43.9544 37.1223 44.1784 37.4092C44.3884 37.6824 44.5845 37.942 44.7525 38.188C44.3744 38.2699 43.0582 38.5295 42.6661 38.6115C42.274 38.6798 40.9578 38.9531 40.5797 39.0351Z" fill="#4ABC00"/>
<path d="M34.3485 36.2205L43.5342 36.6577C43.5342 36.6577 42.568 37.7097 41.1818 38.9121C39.4454 39.2673 37.7231 39.6226 35.9868 39.9778C35.1886 39.7729 34.4045 39.5406 33.6063 39.3357C33.7744 37.7917 34.3485 36.2205 34.3485 36.2205Z" fill="#24A300"/>
<path d="M35.9868 39.9778C33.5224 39.322 31.0299 38.6525 28.5514 37.9967L34.3345 36.2205C34.7406 36.4937 35.1747 36.8353 35.6228 37.2315C36.547 38.065 37.2051 38.9121 37.6672 39.6226C37.3871 39.6772 37.0931 39.7319 36.813 39.7865C36.5329 39.8549 36.2529 39.9232 35.9868 39.9778Z" fill="#208200"/>
<path d="M28.7196 35.9473L34.3486 36.2205C34.3486 36.2205 33.0884 37.9284 31.24 38.7072C29.8678 38.3519 28.4815 37.9694 27.1093 37.6005C27.6414 37.054 28.1595 36.4938 28.7196 35.9473Z" fill="#1A6000"/>
</svg>
