<svg width="165" height="42" viewBox="0 0 165 42" fill="none" xmlns="http://www.w3.org/2000/svg">
<path d="M68.1906 17.6973V22.8935H75.8577V24.7177H68.1906V30.743H66V15.8362H76.783V17.6973H68.1906Z" fill="white"/>
<path d="M84.7712 15.8361V30.743H82.6184V17.6788H79.1625V15.8177H84.7712V15.8361Z" fill="white"/>
<path d="M98.5376 30.3928C97.4612 30.0427 96.6303 29.6005 96.0071 29.0477L96.8192 27.3894C97.4046 27.9053 98.1411 28.3107 99.0475 28.6424C99.954 28.9556 100.898 29.1214 101.861 29.1214C103.127 29.1214 104.071 28.9187 104.694 28.4949C105.317 28.0711 105.638 27.5184 105.638 26.8182C105.638 26.3022 105.468 25.8968 105.128 25.5652C104.788 25.2519 104.373 24.994 103.863 24.8281C103.353 24.6623 102.654 24.4596 101.729 24.2569C100.577 23.9805 99.6518 23.7226 98.9531 23.4462C98.2544 23.1698 97.6501 22.7644 97.1402 22.1932C96.6303 21.6404 96.3848 20.8849 96.3848 19.9268C96.3848 19.1344 96.5925 18.4158 97.0269 17.7709C97.4612 17.126 98.1033 16.6285 98.972 16.2415C99.8407 15.8546 100.936 15.6703 102.22 15.6703C103.127 15.6703 104.014 15.7809 104.883 16.002C105.751 16.2231 106.507 16.5548 107.13 16.9786L106.412 18.6738C105.77 18.2684 105.091 17.9736 104.354 17.7709C103.618 17.5682 102.919 17.4576 102.22 17.4576C100.974 17.4576 100.048 17.6788 99.4441 18.121C98.8209 18.5632 98.5188 19.1344 98.5188 19.8162C98.5188 20.3321 98.6887 20.7375 99.0475 21.0692C99.3874 21.3824 99.8218 21.6404 100.351 21.8062C100.86 21.9905 101.578 22.1748 102.466 22.3774C103.618 22.6538 104.543 22.9118 105.242 23.1882C105.94 23.4646 106.545 23.87 107.036 24.4228C107.527 24.9755 107.791 25.731 107.791 26.6523C107.791 27.4262 107.564 28.1448 107.13 28.7898C106.696 29.4347 106.035 29.9506 105.147 30.3191C104.26 30.6877 103.164 30.8903 101.88 30.8903C100.728 30.9272 99.614 30.7429 98.5376 30.3928Z" fill="white"/>
<path d="M122.181 25.7863H112.795C112.928 26.7814 113.381 27.5737 114.136 28.1818C114.892 28.7898 115.855 29.0846 116.988 29.0846C118.366 29.0846 119.481 28.624 120.33 27.7211L121.482 29.0478C120.954 29.6374 120.311 30.0981 119.537 30.4113C118.763 30.7246 117.894 30.872 116.931 30.872C115.704 30.872 114.627 30.6324 113.683 30.1349C112.739 29.6374 112.002 28.9556 111.492 28.0712C110.983 27.1867 110.718 26.1917 110.718 25.0861C110.718 23.999 110.964 23.004 111.474 22.1195C111.983 21.2351 112.663 20.5533 113.551 20.0558C114.438 19.5583 115.42 19.3187 116.535 19.3187C117.649 19.3187 118.631 19.5583 119.499 20.0558C120.368 20.5533 121.048 21.2351 121.539 22.1195C122.03 23.004 122.275 24.0174 122.275 25.1414C122.219 25.3257 122.2 25.5284 122.181 25.7863ZM113.985 21.9721C113.305 22.5618 112.909 23.3541 112.795 24.3122H120.217C120.104 23.3541 119.707 22.5802 119.027 21.9721C118.347 21.3641 117.517 21.0692 116.497 21.0692C115.477 21.0692 114.665 21.3825 113.985 21.9721Z" fill="white"/>
<path d="M136.627 25.7863H127.242C127.374 26.7814 127.827 27.5737 128.583 28.1818C129.338 28.7898 130.301 29.0846 131.434 29.0846C132.813 29.0846 133.927 28.624 134.777 27.7211L135.929 29.0478C135.4 29.6374 134.758 30.0981 133.984 30.4113C133.209 30.7246 132.341 30.872 131.378 30.872C130.15 30.872 129.074 30.6324 128.129 30.1349C127.185 29.6374 126.449 28.9556 125.939 28.0712C125.429 27.1867 125.165 26.1917 125.165 25.0861C125.165 23.999 125.41 23.004 125.92 22.1195C126.43 21.2351 127.11 20.5533 127.997 20.0558C128.885 19.5583 129.867 19.3187 130.981 19.3187C132.095 19.3187 133.077 19.5583 133.946 20.0558C134.815 20.5533 135.494 21.2351 135.985 22.1195C136.476 23.004 136.722 24.0174 136.722 25.1414C136.665 25.3257 136.665 25.5284 136.627 25.7863ZM128.432 21.9721C127.752 22.5618 127.355 23.3541 127.242 24.3122H134.664C134.55 23.3541 134.154 22.5802 133.474 21.9721C132.794 21.3641 131.963 21.0692 130.943 21.0692C129.924 21.0692 129.111 21.3825 128.432 21.9721Z" fill="white"/>
<path d="M151.584 14.9518V30.743H149.582V28.9557C149.11 29.5822 148.525 30.0613 147.807 30.3745C147.089 30.7062 146.315 30.872 145.447 30.872C144.332 30.872 143.313 30.6325 142.425 30.1534C141.537 29.6743 140.839 28.9925 140.348 28.1265C139.838 27.2605 139.592 26.247 139.592 25.1046C139.592 23.9622 139.838 22.9672 140.348 22.1011C140.858 21.2351 141.537 20.5533 142.425 20.0743C143.313 19.5952 144.313 19.3556 145.447 19.3556C146.277 19.3556 147.033 19.503 147.732 19.8163C148.43 20.1295 149.016 20.5718 149.469 21.1614V14.9333H151.584V14.9518ZM147.618 28.5872C148.223 28.2555 148.676 27.7764 149.016 27.1868C149.356 26.5787 149.526 25.8969 149.526 25.1046C149.526 24.3307 149.356 23.6305 149.016 23.0224C148.676 22.4144 148.223 21.9537 147.618 21.6221C147.014 21.2904 146.353 21.1245 145.635 21.1245C144.899 21.1245 144.219 21.2904 143.634 21.6221C143.048 21.9537 142.576 22.4144 142.236 23.0224C141.896 23.6305 141.726 24.3123 141.726 25.1046C141.726 25.8785 141.896 26.5787 142.236 27.1868C142.576 27.7948 143.048 28.2555 143.634 28.5872C144.219 28.9188 144.88 29.0847 145.635 29.0847C146.353 29.0847 147.014 28.9188 147.618 28.5872Z" fill="white"/>
<path d="M157.23 30.5034C156.362 30.2639 155.682 29.9322 155.172 29.5637L156.041 27.9422C156.55 28.2923 157.174 28.5871 157.891 28.7898C158.628 29.0109 159.345 29.1031 160.101 29.1031C161.932 29.1031 162.858 28.5871 162.858 27.5737C162.858 27.242 162.726 26.9656 162.48 26.7629C162.235 26.5602 161.932 26.4128 161.555 26.3207C161.177 26.2286 160.648 26.118 159.968 26.0075C159.043 25.86 158.269 25.6942 157.683 25.51C157.098 25.3257 156.588 25.0124 156.173 24.5702C155.757 24.128 155.531 23.5199 155.531 22.7092C155.531 21.6957 155.965 20.8665 156.834 20.2401C157.702 19.6136 158.873 19.3187 160.346 19.3187C161.12 19.3187 161.895 19.4109 162.669 19.5951C163.443 19.7794 164.066 20.0374 164.576 20.3322L163.689 21.9537C162.744 21.3641 161.63 21.0508 160.346 21.0508C159.459 21.0508 158.779 21.1982 158.307 21.4746C157.835 21.751 157.608 22.138 157.608 22.5986C157.608 22.9671 157.74 23.262 158.005 23.4646C158.269 23.6673 158.59 23.8332 158.968 23.9253C159.345 24.0174 159.893 24.1464 160.592 24.257C161.517 24.4044 162.272 24.5886 162.858 24.7545C163.424 24.9387 163.915 25.2336 164.331 25.6574C164.746 26.0812 164.935 26.6708 164.935 27.4447C164.935 28.4581 164.482 29.2873 163.594 29.877C162.707 30.485 161.479 30.7798 159.931 30.7798C159.024 30.872 158.118 30.7614 157.23 30.5034Z" fill="white"/>
<path d="M23.8186 40.579L25.2609 42V39.1718L23.8186 40.579Z" fill="#1A6000"/>
<path d="M26.7312 40.579L25.2609 39.1718V42L26.7312 40.579Z" fill="#1A4C00"/>
<path d="M27.8374 7.43266L25.2609 0V7.82889L27.8374 7.43266Z" fill="#5AD100"/>
<path d="M29.5457 12.3923C28.8176 10.3019 28.1034 8.21148 27.3753 6.12104C27.0392 6.32599 26.6752 6.57192 26.2971 6.8725C25.877 7.20042 25.5409 7.52833 25.2609 7.82891C25.961 8.56671 26.7172 9.37283 27.4033 10.1106C28.1034 10.8484 28.8596 11.6545 29.5457 12.3923Z" fill="#4AA800"/>
<path d="M29.2939 11.6409C27.3756 9.46847 25.2752 7.81525 25.2752 7.81525V18.2538C25.2752 18.2538 29.84 19.5791 31.6884 18.527L29.2939 11.6409Z" fill="#248F00"/>
<path d="M30.0498 13.8543C29.1256 14.3325 27.8794 15.1249 26.7032 16.3819C26.087 17.0377 25.6109 17.6936 25.2609 18.2674C26.101 20.4808 26.9412 22.6942 27.7814 24.9213L32.3462 20.4672C31.5901 18.2538 30.8199 16.054 30.0498 13.8543Z" fill="#206E00"/>
<path d="M25.2609 18.2674V27.2713C25.2609 27.2713 25.2749 27.285 25.3169 27.3259L28.9576 23.7736C28.9016 20.5491 25.2609 18.2674 25.2609 18.2674Z" fill="#1A4C00"/>
<path d="M0 18.691L5.48906 21.7788C5.6991 21.2323 5.90914 20.6858 6.11918 20.1393C4.07479 19.661 2.04439 19.1692 0 18.691Z" fill="#5AD100"/>
<path d="M5.48908 21.7787C6.81933 21.4918 8.13559 21.2049 9.46584 20.918C8.00956 20.5764 6.55328 20.2348 5.083 19.8933C5.11101 20.1802 5.16702 20.4808 5.23703 20.8087C5.30704 21.1639 5.40506 21.4782 5.48908 21.7787Z" fill="#4AA800"/>
<path d="M13.1487 21.7788C11.6784 21.4372 10.2221 21.0957 8.75183 20.7541C8.00968 20.9317 7.22553 21.164 6.41337 21.4372C6.09131 21.5465 5.78325 21.6559 5.4892 21.7788C8.58379 23.5004 11.6644 25.2356 14.759 26.9571C14.829 26.9298 15.4731 26.6975 15.6832 26.0143C15.8372 25.5225 15.6972 24.9896 15.3191 24.6071C14.591 23.6643 13.8768 22.7216 13.1487 21.7788Z" fill="#248F00"/>
<path d="M13.1485 21.7788C13.2325 22.7488 13.4565 23.9648 13.9746 25.2902C14.2127 25.9186 14.4927 26.4788 14.7588 26.957C17.0832 27.3533 19.3937 27.7495 21.7181 28.1457L15.851 22.4346L13.1485 21.7788Z" fill="#206E00"/>
<path d="M21.6903 30.851L23.1045 29.471C21.9143 28.3233 20.7241 27.1756 19.5338 26.028C18.6797 25.987 17.5315 26.0416 16.2432 26.4105C15.6831 26.5745 15.179 26.7658 14.7449 26.957C17.0694 28.255 19.3798 29.553 21.6903 30.851Z" fill="#1A4C00"/>
<path d="M3.86474 23.7326L5.48906 21.7788L0 18.691L3.86474 23.7326Z" fill="#5AE500"/>
<path d="M5.48905 21.7788C5.09698 21.8744 4.66289 21.9974 4.20081 22.1613C3.76672 22.3253 3.37465 22.4892 3.03858 22.6532C4.63489 24.73 6.2312 26.8068 7.8275 28.8835C7.04335 26.5062 6.27321 24.1288 5.48905 21.7788Z" fill="#4ABC00"/>
<path d="M14.759 26.957L5.4892 21.7788C5.4892 21.7788 6.0353 25.1945 7.33755 28.2687L8.13571 29.3071L13.5548 30.3455C14.3249 28.7469 14.759 26.957 14.759 26.957Z" fill="#24A300"/>
<path d="M8.13542 29.3071C11.5801 29.9629 15.0247 30.6187 18.4554 31.2882L14.7447 26.9707C13.6385 26.9297 11.6641 27.0254 9.64771 28.1184C9.01758 28.46 8.48548 28.8562 8.0514 29.2251C8.09341 29.2388 8.12141 29.2797 8.13542 29.3071Z" fill="#208200"/>
<path d="M21.6903 30.851L14.7589 26.957C14.7589 26.957 14.871 28.9928 15.8651 30.7827L20.7941 31.7254L21.6903 30.851Z" fill="#1A6000"/>
<path d="M6.65128 34.9636C4.43886 35.6331 2.21243 36.2889 0 36.9584C2.33845 36.8491 4.6769 36.7398 7.02936 36.6305L6.65128 34.9636Z" fill="#5AD100"/>
<path d="M5.65709 35.2642C5.83912 35.4965 6.04916 35.7288 6.30121 35.9884C6.53926 36.2343 6.79131 36.4529 7.01535 36.6442C7.44943 36.2206 7.88352 35.7834 8.3176 35.3599C8.73768 34.95 9.14376 34.5264 9.54984 34.1165C8.26159 34.4991 6.95934 34.8817 5.65709 35.2642Z" fill="#4AA800"/>
<path d="M16.6072 33.4743C15.5991 33.283 14.5769 33.0781 13.5687 32.8868L9.08779 34.2531C8.38766 35.0456 7.70152 35.8517 7.00139 36.6442C10.068 36.5075 13.1346 36.3709 16.2012 36.2343C16.3412 35.3052 16.4812 34.3897 16.6072 33.4743Z" fill="#248F00"/>
<path d="M13.5826 32.8868C13.2605 32.9824 12.9244 33.0918 12.6024 33.1874C13.1485 33.8569 13.8906 34.6083 14.8568 35.3325C15.3189 35.674 15.767 35.9746 16.2011 36.2069C16.9152 35.6604 17.6153 35.1002 18.3295 34.5537C18.3715 34.3078 18.3995 34.0755 18.4415 33.8295C17.9094 33.7202 17.3633 33.6109 16.8312 33.5153C15.739 33.2967 14.6468 33.0918 13.5826 32.8868Z" fill="#206E00"/>
<path d="M20.0658 34.1438C19.5197 34.0345 18.9736 33.9389 18.4275 33.8296C17.9234 34.2121 17.3493 34.7176 16.7892 35.3871C16.5511 35.6741 16.3551 35.9473 16.1871 36.2069C18.0774 36.1249 19.9538 36.043 21.8442 35.9473C21.5501 35.6467 21.256 35.3461 20.948 35.0319C20.6539 34.745 20.3599 34.4444 20.0658 34.1438Z" fill="#1A4C00"/>
<path d="M6.8336 38.3794C6.88962 37.8055 6.94563 37.218 7.01564 36.6442C4.67719 36.7535 2.33874 36.8628 0.0142899 36.9721C2.28273 37.4503 4.55116 37.9148 6.8336 38.3794Z" fill="#5AE500"/>
<path d="M9.95594 39.0215C9.46585 38.6253 8.98975 38.2291 8.48566 37.8329C7.99556 37.4367 7.49146 37.0404 7.00137 36.6442C6.79133 36.8628 6.58129 37.1087 6.35725 37.3957C6.14721 37.6689 5.95117 37.9285 5.78313 38.1744C6.16121 38.2564 7.47746 38.516 7.86954 38.598C8.26161 38.6663 9.57787 38.9396 9.95594 39.0215Z" fill="#4ABC00"/>
<path d="M16.1871 36.2069L7.01536 36.6441C7.01536 36.6441 7.98154 37.6961 9.36781 38.8985C11.1041 39.2537 12.8265 39.609 14.5628 39.9642C15.361 39.7593 16.1451 39.527 16.9433 39.322C16.7472 37.7781 16.1871 36.2069 16.1871 36.2069Z" fill="#24A300"/>
<path d="M14.5489 39.9642C17.0134 39.3084 19.5058 38.6389 21.9843 37.9831L16.2012 36.2069C15.7951 36.4801 15.361 36.8217 14.9129 37.2179C13.9888 38.0514 13.3306 38.8985 12.8686 39.609C13.1486 39.6636 13.4427 39.7183 13.7227 39.7729C13.9888 39.8412 14.2688 39.8959 14.5489 39.9642Z" fill="#208200"/>
<path d="M21.8161 35.9337L16.1871 36.2069C16.1871 36.2069 17.4473 37.9148 19.2957 38.6936C20.6679 38.3384 22.0542 37.9558 23.4265 37.5869C22.8944 37.0404 22.3623 36.4802 21.8161 35.9337Z" fill="#1A6000"/>
<path d="M22.6984 7.43266L25.2609 0V7.82889L22.6984 7.43266Z" fill="#5AE500"/>
<path d="M20.9901 12.3923C21.7182 10.3019 22.4324 8.21148 23.1605 6.12104C23.4966 6.31232 23.8606 6.55826 24.2527 6.8725C24.6588 7.20042 25.0089 7.52833 25.2749 7.82891C24.5748 8.59404 23.8606 9.3455 23.1465 10.1106C22.4184 10.8621 21.7042 11.6272 20.9901 12.3923Z" fill="#4ABC00"/>
<path d="M21.2562 11.6409C22.0683 10.7528 22.9645 9.83735 23.9867 8.92193C24.4208 8.53937 24.8408 8.17047 25.2609 7.82889C25.2609 11.3129 25.2609 14.7833 25.2609 18.2674C24.5888 18.486 23.7486 18.7046 22.7684 18.8003C21.1581 18.9642 19.7999 18.7593 18.8757 18.5407L21.2562 11.6409Z" fill="#24A300"/>
<path d="M20.486 13.8543C21.4102 14.3325 22.6564 15.1113 23.8327 16.3819C24.4488 17.0377 24.9109 17.6936 25.2609 18.2674C24.4208 20.4808 23.5946 22.6942 22.7545 24.9213L18.1896 20.4672C18.9597 18.2538 19.7159 16.054 20.486 13.8543Z" fill="#208200"/>
<path d="M25.2609 18.2674V27.2713C25.2609 27.2713 25.2469 27.285 25.2049 27.3259C23.9867 26.1373 22.7824 24.9486 21.5642 23.7599C21.7182 22.9128 22.1243 21.3142 23.4406 19.8113C24.0707 19.0872 24.7288 18.5953 25.2609 18.2674Z" fill="#1A6000"/>
<path d="M50.5358 18.7046L45.0467 21.7924C44.8367 21.2459 44.6267 20.6994 44.4166 20.1529C46.447 19.6747 48.4914 19.1965 50.5358 18.7046Z" fill="#5AD100"/>
<path d="M45.0468 21.7925C43.7165 21.5055 42.4003 21.2186 41.07 20.9317C42.5263 20.5901 43.9826 20.2486 45.4528 19.907C45.4248 20.1939 45.3688 20.4945 45.2988 20.8224C45.2288 21.1776 45.1308 21.5055 45.0468 21.7925Z" fill="#4AA800"/>
<path d="M37.3873 21.7925C38.8576 21.4509 40.3139 21.1093 41.7842 20.7678C42.5263 20.9454 43.3105 21.1777 44.1226 21.4509C44.4447 21.5602 44.7528 21.6695 45.0468 21.7925C41.9522 23.514 38.8716 25.2492 35.777 26.9708C35.707 26.9434 35.0629 26.7112 34.8528 26.028C34.6988 25.5362 34.8388 25.0033 35.2169 24.6207C35.9451 23.678 36.6592 22.7352 37.3873 21.7925Z" fill="#248F00"/>
<path d="M37.3873 21.7924C37.3032 22.7625 37.0792 23.9785 36.5611 25.3038C36.3231 25.9323 36.043 26.4925 35.7769 26.9707C33.4525 27.3669 31.1421 27.7632 28.8176 28.1594L34.6847 22.4346L37.3873 21.7924Z" fill="#206E00"/>
<path d="M28.8316 30.8647L27.4174 29.4848C28.6076 28.3371 29.7978 27.1894 30.988 26.0417C31.8422 26.0007 32.9904 26.0554 34.2787 26.4243C34.8388 26.5882 35.3429 26.7795 35.777 26.9708C33.4665 28.2688 31.1561 29.5668 28.8316 30.8647Z" fill="#1A4C00"/>
<path d="M46.6711 23.7599L45.0468 21.7924L50.5358 18.7046L46.6711 23.7599Z" fill="#5AE500"/>
<path d="M45.0468 21.7924C45.4388 21.8881 45.8729 22.0111 46.335 22.175C46.7691 22.339 47.1612 22.5029 47.4972 22.6669C45.9009 24.7436 44.3046 26.8204 42.7083 28.8972C43.4925 26.5335 44.2626 24.1561 45.0468 21.7924Z" fill="#4ABC00"/>
<path d="M35.7769 26.9707L45.0467 21.7924C45.0467 21.7924 44.5006 25.2082 43.1984 28.2824L42.4002 29.3207L36.9812 30.3591C36.211 28.7606 35.7769 26.9707 35.7769 26.9707Z" fill="#24A300"/>
<path d="M42.3863 29.3208C38.9416 29.9766 35.4969 30.6324 32.0663 31.3019L35.777 26.9844C36.8832 26.9434 38.8576 27.0391 40.874 28.1321C41.5041 28.4737 42.0362 28.8699 42.4703 29.2388C42.4423 29.2661 42.4143 29.2935 42.3863 29.3208Z" fill="#208200"/>
<path d="M28.8316 30.8647L35.763 26.9708C35.763 26.9708 35.6509 29.0065 34.6568 30.7964L29.7278 31.7391L28.8316 30.8647Z" fill="#1A6000"/>
<path d="M43.8705 34.9909C46.0829 35.6604 48.3093 36.3162 50.5218 36.9857C48.1833 36.8764 45.8449 36.7671 43.4924 36.6578L43.8705 34.9909Z" fill="#5AD100"/>
<path d="M44.8786 35.2914C44.6966 35.5237 44.4865 35.756 44.2345 36.0156C43.9965 36.2615 43.7444 36.4801 43.5204 36.6714C43.0863 36.2478 42.6522 35.8106 42.2181 35.3871C41.798 34.9772 41.3919 34.5536 40.9859 34.1437C42.2741 34.5126 43.5764 34.8952 44.8786 35.2914Z" fill="#4AA800"/>
<path d="M33.9145 33.488C34.9227 33.2967 35.9449 33.0917 36.9531 32.9005L41.434 34.2668C42.1341 35.0592 42.8202 35.8653 43.5204 36.6578C40.4538 36.5211 37.3872 36.3845 34.3206 36.2479C34.1946 35.3188 34.0545 34.4034 33.9145 33.488Z" fill="#248F00"/>
<path d="M36.9531 32.9005C37.2752 32.9961 37.6112 33.1054 37.9333 33.201C37.3872 33.8705 36.6451 34.622 35.6789 35.3461C35.2168 35.6877 34.7687 35.9883 34.3346 36.2205C33.6205 35.674 32.9203 35.1138 32.2062 34.5673C32.1642 34.3214 32.1362 34.0891 32.0942 33.8432C32.6263 33.7339 33.1724 33.6246 33.7045 33.5289C34.7967 33.3103 35.8749 33.1054 36.9531 32.9005Z" fill="#206E00"/>
<path d="M30.4558 34.1575C31.0019 34.0482 31.548 33.9526 32.0941 33.8433C32.5982 34.2258 33.1723 34.7313 33.7325 35.4008C33.9705 35.6877 34.1665 35.961 34.3346 36.2206C32.4442 36.1386 30.5678 36.0566 28.6775 35.961C28.9715 35.6604 29.2656 35.3598 29.5736 35.0456C29.8817 34.7587 30.1758 34.4581 30.4558 34.1575Z" fill="#1A4C00"/>
<path d="M43.7023 38.393C43.6463 37.8191 43.5903 37.2316 43.5203 36.6578C45.8587 36.7671 48.1972 36.8764 50.5216 36.9857C48.2532 37.4639 45.9708 37.9284 43.7023 38.393Z" fill="#5AE500"/>
<path d="M40.5798 39.0351C41.0699 38.6389 41.546 38.2427 42.0501 37.8465C42.5402 37.4502 43.0443 37.054 43.5344 36.6578C43.7444 36.8764 43.9544 37.1223 44.1785 37.4092C44.3885 37.6825 44.5846 37.9421 44.7526 38.188C44.3745 38.27 43.0583 38.5296 42.6662 38.6116C42.2741 38.6799 40.9579 38.9532 40.5798 39.0351Z" fill="#4ABC00"/>
<path d="M34.3485 36.2205L43.5343 36.6577C43.5343 36.6577 42.5681 37.7098 41.1818 38.9121C39.4455 39.2673 37.7232 39.6226 35.9869 39.9778C35.1887 39.7729 34.4046 39.5406 33.6064 39.3357C33.7744 37.7917 34.3485 36.2205 34.3485 36.2205Z" fill="#24A300"/>
<path d="M35.9868 39.9778C33.5224 39.322 31.0299 38.6525 28.5514 37.9967L34.3345 36.2205C34.7406 36.4937 35.1747 36.8353 35.6228 37.2315C36.547 38.065 37.2051 38.9121 37.6672 39.6226C37.3871 39.6772 37.0931 39.7319 36.813 39.7865C36.5329 39.8549 36.2529 39.9232 35.9868 39.9778Z" fill="#208200"/>
<path d="M28.7196 35.9473L34.3486 36.2205C34.3486 36.2205 33.0884 37.9284 31.24 38.7072C29.8678 38.352 28.4815 37.9694 27.1093 37.6005C27.6414 37.054 28.1595 36.4938 28.7196 35.9473Z" fill="#1A6000"/>
</svg>
