<svg width="223" height="38" viewBox="0 0 223 38" fill="none" xmlns="http://www.w3.org/2000/svg">
<path d="M42.286 32.4285H36.8574V12.9999H56.7146V32.4285H51.286V16.7142H42.4289V32.4285H42.286Z" fill="#5DB12E"/>
<path d="M64.1423 25.2857C64.1423 21.2857 66.5709 20.5714 68.1423 20.5714C69.5709 20.5714 72.1423 21.2857 72.1423 25.2857C72.1423 27.7143 71.1423 30 68.1423 30C65.1423 30.1428 64.1423 27.7143 64.1423 25.2857ZM59.2852 18.2857V37.5714H64.2852V31C65.9994 32.8571 68.7137 33 69.428 33C74.2852 33 77.2852 29.8571 77.2852 25.4285C77.2852 20.7143 74.2852 17.8571 69.5709 17.8571C68.428 17.8571 65.9994 18 64.1423 20.1428H63.9994V18.4285H59.2852V18.2857Z" fill="#5DB12E"/>
<path d="M89.8583 30.7143C88.0011 32.4286 86.144 33 84.144 33C78.7154 33 78.4297 28.8571 78.4297 27.1429V18.2857H83.4297V26.4286C83.4297 29.2857 84.4297 30 86.2868 30C89.4297 30 89.7154 27.1428 89.7154 26.1428V18.2857H94.7154V32.4286H89.7154V30.7143H89.8583Z" fill="#5DB12E"/>
<path d="M102.143 21.1428H104.857C106.285 21.1428 107.571 21.4286 107.571 22.5714C107.571 23.8571 105.571 23.8571 104.857 23.8571H102.285V21.1428H102.143ZM97.1426 18.2857V32.4286H107.143C110.857 32.4286 113.285 31.7143 113.285 28.8571C113.285 26.5714 112 25.7143 109.285 25.1428V25C111.143 24.7143 112.714 23.5714 112.714 21.7143C112.714 18.2857 108.714 18.2857 107.143 18.2857H97.1426ZM102.143 26.4286H105.285C107.714 26.4286 108.143 27.1428 108.143 28.1428C108.143 28.7143 107.857 29.5714 105.285 29.5714H102.143V26.4286Z" fill="#5DB12E"/>
<path d="M125.571 26.5714C125.571 29.4285 123.143 30.1428 121.857 30.1428C120.857 30.1428 119.285 29.8571 119.285 28.5714C119.285 27 121.143 26.7143 122.285 26.5714C124.285 26.2857 124.143 26.4285 125.571 25.8571V26.5714ZM119.714 22.8571C119.714 20.7143 121.857 20.5714 122.857 20.5714C123.428 20.5714 125.571 20.5714 125.571 22.4285C125.571 22.5714 125.571 22.7143 125.571 22.8571C125.428 24.2857 124.143 24 120.428 24.4285C117.428 24.8571 114.143 25.5714 114.143 28.8571C114.143 30 114.714 33 120 33C122 33 124.285 32.4285 125.714 31.1428H125.857L126.285 32.5714H131.571V32.2857C130.571 32.1428 130.571 31.1428 130.571 29.5714L130.714 23.1428C130.714 21.5714 130.571 17.8571 123 17.8571C121.143 17.8571 115.285 18 115 23H119.714V22.8571Z" fill="#5DB12E"/>
<path d="M131.145 21.1428V18.2857H147.43V21.1428H141.859V32.4286H136.859V21.1428H131.145Z" fill="#5DB12E"/>
<path d="M153.859 23.9999H158.43C159.716 23.9999 162.43 24.1428 162.43 26.4285C162.43 28.2857 160.43 28.5714 158.287 28.5714H153.859V23.9999ZM153.859 16.7142H166.43V12.9999H148.287V32.4285H159.43C164.859 32.4285 168.287 30.5714 168.287 26.5714C168.287 20.2857 161.287 20.1428 159.43 20.1428H153.859V16.7142Z" fill="#5DB12E"/>
<path d="M180.856 26.5714C180.856 29.4285 178.428 30.1428 177.142 30.1428C176.142 30.1428 174.571 29.8571 174.571 28.5714C174.571 27 176.428 26.7143 177.571 26.5714C179.571 26.2857 179.428 26.4285 180.856 25.8571V26.5714ZM174.999 22.8571C174.999 20.7143 177.142 20.5714 178.142 20.5714C178.713 20.5714 180.856 20.5714 180.856 22.4285C180.856 22.5714 180.856 22.7143 180.856 22.8571C180.713 24.2857 179.428 24 175.713 24.4285C172.713 24.8571 169.428 25.5714 169.428 28.8571C169.428 30 169.856 33 175.285 33C177.285 33 179.571 32.4285 180.999 31.1428H181.142L181.571 32.5714H186.856V32.2857C185.856 32.1428 185.856 31.1428 185.856 29.5714L185.999 23.1428C185.999 21.5714 185.856 17.8571 178.285 17.8571C176.428 17.8571 170.571 18 170.285 23H174.999V22.8571Z" fill="#5DB12E"/>
<path d="M193.143 32.4286H188.143V18.2857H193.143V23.5714H199.285V18.2857H204.285V32.4286H199.285V26.4286H193.143V32.4286Z" fill="#5DB12E"/>
<path d="M217.142 18.2857H222.713L215.713 24.8572L222.999 32.2857H216.999L211.571 26.1429H211.428V32.2857H206.428V18.1429H211.428V23.8572H211.571L217.142 18.2857Z" fill="#5DB12E"/>
<path d="M12.7143 19.7143H0V32.4286H12.7143V19.7143Z" fill="black"/>
<path d="M0 0V15.8571H3.28571C12.1429 15.8571 16.5714 20.2857 16.5714 29.1429V32.4286H32.4286V0H0ZM25.8571 6.71428C25.8571 11 25.8571 21.4286 25.8571 25.7143C24.7143 25.7143 24.4286 25.7143 23.2857 25.7143C22.1429 16.2857 16.2857 10.4286 6.85714 9.28572C6.85714 8.14286 6.85714 7.85714 6.85714 6.71428C11.1429 6.71428 21.4286 6.71428 25.8571 6.71428Z" fill="#5DB12E"/>
</svg>
