<svg width="120" height="44" viewBox="0 0 120 44" fill="none" xmlns="http://www.w3.org/2000/svg">
<path d="M79.7294 9.3149V29.8565C79.7294 30.1819 79.4858 30.426 79.161 30.426H74.9797C74.6549 30.426 74.4114 30.1819 74.4114 29.8565V9.3149C74.4114 8.98949 74.6549 8.74543 74.9797 8.74543H79.161C79.4858 8.74543 79.7294 8.98949 79.7294 9.3149ZM112.409 8.74543H107.74C107.497 8.74543 107.294 8.90814 107.212 9.1522L103.518 21.3144L99.4587 9.1522C99.3775 8.90814 99.1746 8.78611 98.931 8.78611H95.6428C95.3992 8.78611 95.1962 8.94881 95.115 9.1522L91.0555 21.3144L87.2801 9.1522C87.1989 8.90814 86.9959 8.74543 86.7524 8.74543H82.0839C81.9215 8.74543 81.7185 8.82679 81.6373 8.98949C81.5156 9.1522 81.5156 9.3149 81.5562 9.47761L88.4574 30.0599C88.5386 30.3039 88.7415 30.426 88.9851 30.426H92.7199C92.9635 30.426 93.1664 30.2633 93.2476 30.0599L97.2666 18.0603L101.286 30.0599C101.367 30.3039 101.57 30.426 101.813 30.426H105.548C105.792 30.426 105.995 30.2633 106.076 30.0599L112.977 9.47761C113.018 9.3149 113.018 9.11152 112.896 8.98949C112.733 8.82679 112.571 8.74543 112.409 8.74543ZM119.432 8.74543H115.25C114.926 8.74543 114.682 8.98949 114.682 9.3149V29.8565C114.682 30.1819 114.926 30.426 115.25 30.426H119.432C119.756 30.426 120 30.1819 120 29.8565V9.3149C120 8.98949 119.756 8.74543 119.432 8.74543ZM72.0162 29.6938C72.2598 29.9785 72.0568 30.3853 71.6915 30.3853H66.5765C66.3735 30.3853 66.1705 30.3039 66.0487 30.1412L65.1962 29.0836C63.41 30.2226 61.299 30.9141 59.0663 30.9141C52.8146 30.9141 47.7402 25.8295 47.7402 19.5654C47.7402 13.3012 52.8146 8.21664 59.0663 8.21664C65.318 8.21664 70.3924 13.3012 70.3924 19.5654C70.3924 21.8026 69.7429 23.9177 68.6062 25.7075L72.0162 29.6938ZM61.8268 25.138L59.594 22.4127C59.3505 22.128 59.5535 21.6805 59.9188 21.6805H64.6279C64.8714 21.0297 64.9932 20.2975 64.9932 19.5654C64.9932 16.1892 62.4763 13.2605 59.0257 13.2605C55.5751 13.2605 53.0582 16.1892 53.0582 19.5654C53.0582 22.9415 55.5751 25.8295 59.0257 25.8295C60.0406 25.8702 61.0149 25.5855 61.8268 25.138ZM34.7903 29.6124C34.912 30.4666 34.6279 30.8327 34.3843 30.8327C34.1001 30.8327 33.7348 30.4666 33.2882 29.8158C32.8417 29.1243 32.6793 28.3515 32.9229 27.9854C33.0447 27.7413 33.3694 27.6193 33.7348 27.7413C34.4249 27.9854 34.7091 29.0836 34.7903 29.6124ZM30.8119 31.4836C31.6644 32.2157 31.9486 33.1106 31.502 33.7208C31.2585 34.0462 30.8525 34.2496 30.3248 34.2496C29.8376 34.2496 29.3505 34.0868 28.9851 33.7614C28.2138 33.0699 27.9702 31.931 28.498 31.3209C28.7009 31.0768 29.0257 30.9548 29.4317 30.9548C29.8782 30.9141 30.3654 31.1175 30.8119 31.4836ZM29.3505 38.5613C33.0853 38.5613 37.1448 39.8629 41.6509 43.8492C42.0974 44.256 42.7064 43.7678 42.3004 43.239C37.8755 37.6664 33.816 36.6088 29.7564 35.7139C24.7632 34.6156 22.2057 31.809 20.4195 28.7176C20.0541 28.1074 19.8917 28.2294 19.8917 29.0023C19.8511 29.9785 19.9323 31.2395 20.1353 32.5005C19.9323 32.5005 19.7294 32.5005 19.5264 32.5005C12.4222 32.5005 6.61705 26.7244 6.61705 19.5654C6.61705 12.4063 12.3816 6.67094 19.4858 6.67094C26.59 6.67094 32.3951 12.447 32.3951 19.606C32.3951 20.0942 32.3545 20.6229 32.3139 21.1111C31.3802 20.9484 29.5129 20.9077 28.2138 21.0297C27.7267 21.0704 27.8078 21.3144 28.1732 21.3551C32.4357 22.128 35.3586 24.7719 36.0487 29.5718C36.0487 29.6938 36.2111 29.7345 36.2517 29.6124C37.9973 26.6837 39.0122 23.2669 39.0122 19.5654C39.0122 8.78611 30.2842 0 19.4858 0C8.72801 0.0406764 0 8.78611 0 19.5654C0 30.3446 8.72801 39.1307 19.5264 39.1307C22.3275 39.1307 25.1691 38.5613 29.3505 38.5613Z" fill="#FF8C00"/>
</svg>
