<svg width="20" height="24" viewBox="0 0 20 24" fill="none" xmlns="http://www.w3.org/2000/svg">
<path d="M14.7364 9.02463L10.7545 1.2481C10.6695 1.09108 10.5563 0.963609 10.4247 0.876818C10.2932 0.790027 10.1474 0.746559 10 0.750213C9.70909 0.750213 9.41818 0.916175 9.24545 1.25996L5.26364 9.02463H0.909091C0.409091 9.02463 0 9.55809 0 10.2101C0 10.3168 0.00909088 10.4235 0.0363636 10.5302L2.34545 21.5192C2.55455 22.515 3.25455 23.25 4.09091 23.25H15.9091C16.7455 23.25 17.4455 22.515 17.6636 21.5192L19.9727 10.5302L20 10.2101C20 9.55809 19.5909 9.02463 19.0909 9.02463H14.7364ZM7.27273 9.02463L10 3.80867L12.7273 9.02463H7.27273ZM10 18.5082C9 18.5082 8.18182 17.4413 8.18182 16.1373C8.18182 14.8333 9 13.7664 10 13.7664C11 13.7664 11.8182 14.8333 11.8182 16.1373C11.8182 17.4413 11 18.5082 10 18.5082Z" fill="#1F1F1F"/>
</svg>
