<svg width="18" height="18" viewBox="0 0 18 18" fill="none" xmlns="http://www.w3.org/2000/svg">
<path d="M9 0C4.0294 0 0 4.0294 0 9C0 13.9706 4.0294 18 9 18C13.9706 18 18 13.9706 18 9C18 4.0294 13.9706 0 9 0Z" fill="#40B3E0"/>
<path d="M13.3793 5.17629L11.7717 13.2811C11.7717 13.2811 11.5469 13.8432 10.9287 13.5734L7.21912 10.7294L5.87024 10.0775L3.59957 9.31306C3.59957 9.31306 3.2511 9.18945 3.21735 8.91966C3.1836 8.64987 3.61082 8.50376 3.61082 8.50376L12.6373 4.96282C12.6373 4.96282 13.3792 4.63685 13.3792 5.17643" fill="white"/>
<path d="M6.93407 13.191C6.93407 13.191 6.82579 13.1809 6.69079 12.7537C6.556 12.3265 5.87024 10.0784 5.87024 10.0784L11.3221 6.61619C11.3221 6.61619 11.6369 6.42508 11.6257 6.61619C11.6257 6.61619 11.6818 6.64994 11.5132 6.8073C11.3446 6.96473 7.23043 10.663 7.23043 10.663" fill="#D2E5F1"/>
<path d="M8.64148 11.8197L7.17427 13.1574C7.17427 13.1574 7.05952 13.2445 6.93408 13.1899L7.21505 10.7051" fill="#B5CFE4"/>
</svg>
