<svg width="159" height="43" viewBox="0 0 159 43" fill="none" xmlns="http://www.w3.org/2000/svg">
<path d="M27.9457 24.6856C27.9446 24.6854 13.8647 21.4639 13.8647 21.4639C9.66802 20.5036 7.0354 16.2853 7.98483 12.0418C8.93482 7.79836 13.107 5.13714 17.3037 6.09709C21.5007 7.05739 24.133 11.2757 23.1835 15.5189C22.7078 17.6433 21.4242 19.3697 19.7343 20.4452C19.734 20.4452 19.73 20.4487 19.7284 20.4495C19.6787 20.4856 19.6465 20.5443 19.6465 20.6104C19.6465 20.7029 19.7097 20.7807 19.7951 20.8015C19.7954 20.8017 26.0586 22.2338 26.0597 22.2338C26.2088 22.2679 26.3635 22.2098 26.4551 22.0875C26.4556 22.0864 26.4554 22.0872 26.4554 22.0872C28.1809 19.7787 29.2173 16.8982 29.2173 13.7826C29.2173 6.44552 23.5478 0.449429 16.3966 0.0235519C16.3329 0.019989 15.9453 0.00468063 15.8144 0.00279236C12.6482 -0.0474625 9.43789 0.87048 6.64623 2.84721C-0.403719 7.8382 -2.11659 17.6621 2.81922 24.7899L15.3461 42.8785C15.3996 42.9522 15.4858 43 15.5824 43C15.6799 43 15.7663 42.9514 15.8195 42.8771C15.8195 42.8771 28.1207 25.1402 28.1218 25.1386C28.1531 25.0916 28.1717 25.0346 28.1717 24.9734C28.1717 24.8331 28.0753 24.7156 27.9457 24.6856Z" fill="#FABC26"/>
<path d="M39.998 8.4698C40.1487 8.4698 40.2486 8.52027 40.2986 8.62155L44.4755 15.8285H44.6754L48.2272 8.72234C48.302 8.54515 48.4524 8.4698 48.6525 8.4698H51.2036C51.4289 8.4698 51.5536 8.69745 51.4534 8.87415L44.0999 22.0247C44.0251 22.1762 43.8753 22.2524 43.6748 22.2524H41.1738C40.8986 22.2524 40.8737 22.0752 40.9739 21.8728L42.9495 18.4586L37.047 8.79852C36.9465 8.62155 37.0219 8.4698 37.1968 8.4698H39.998Z" fill="#2C2E2C"/>
<path d="M55.8457 8.4698C56.0709 8.4698 56.196 8.5959 56.196 8.82362V14.2321L61.8242 8.6718C61.974 8.54515 62.199 8.4698 62.4741 8.4698H65.5256C65.7508 8.4698 65.8261 8.6718 65.6506 8.84899L59.6725 14.5138L66.026 21.8728C66.201 22.0495 66.1013 22.2524 65.8761 22.2524H62.8746C62.5995 22.2524 62.3996 22.1762 62.2489 21.999L57.4892 16.3224L56.196 17.5385V21.898C56.196 22.1257 56.0709 22.2524 55.8457 22.2524H53.6449C53.4196 22.2524 53.2949 22.1257 53.2949 21.898V8.82362C53.2949 8.5959 53.4196 8.4698 53.6449 8.4698H55.8457Z" fill="#2C2E2C"/>
<path d="M74.3199 15.8033C75.8456 15.8033 76.7208 14.8425 76.7208 13.5023C76.7208 12.1871 75.8456 11.2516 74.3199 11.2516H70.6926V15.8033H74.3199ZM74.3199 8.4695C77.3457 8.4695 79.6215 10.6695 79.6215 13.5023C79.6215 16.4357 77.3457 18.5853 74.3199 18.5853H70.6926V21.898C70.6926 22.1254 70.5675 22.2521 70.3428 22.2521H68.1413C67.9164 22.2521 67.791 22.1254 67.791 21.898V8.82359C67.791 8.59587 67.9164 8.4695 68.1413 8.4695H74.3199Z" fill="#2C2E2C"/>
<path d="M93.2932 8.4698C93.5178 8.4698 93.6437 8.5959 93.6437 8.82362V21.898C93.6437 22.1257 93.5178 22.2524 93.2932 22.2524H91.0914C90.8674 22.2524 90.7416 22.1257 90.7416 21.898V11.226H84.6885V21.898C84.6885 22.1257 84.5634 22.2524 84.3387 22.2524H82.1376C81.9122 22.2524 81.7871 22.1257 81.7871 21.898V8.82362C81.7871 8.5959 81.9122 8.4698 82.1376 8.4698H93.2932Z" fill="#2C2E2C"/>
<path d="M99.1529 15.3733C99.1529 17.877 100.903 19.6973 103.404 19.6973C105.881 19.6973 107.632 17.877 107.632 15.3733C107.632 12.8191 105.881 11.0237 103.404 11.0237C100.903 11.0237 99.1529 12.8191 99.1529 15.3733ZM103.404 8.26685C107.332 8.26685 110.559 11.327 110.559 15.3733C110.559 19.4448 107.332 22.4544 103.404 22.4544C99.4529 22.4544 96.2266 19.4448 96.2266 15.3733C96.2266 11.327 99.4529 8.26685 103.404 8.26685Z" fill="#2C2E2C"/>
<path d="M120.269 19.4959V8.82334C120.269 8.59618 120.394 8.4698 120.62 8.4698H122.77C122.996 8.4698 123.121 8.59618 123.121 8.82334V19.4959H127.398V8.82334C127.398 8.59618 127.523 8.4698 127.748 8.4698H129.899C130.125 8.4698 130.249 8.59618 130.249 8.82334V21.898C130.249 22.1257 130.125 22.2524 129.899 22.2524H113.491C113.316 22.2524 113.141 22.1257 113.141 21.898V8.82334C113.141 8.59618 113.265 8.4698 113.491 8.4698H115.642C115.867 8.4698 115.992 8.59618 115.992 8.82334V19.4959H120.269Z" fill="#2C2E2C"/>
<path d="M144.148 8.4698C144.372 8.4698 144.498 8.5959 144.498 8.82362V10.8973C144.498 11.125 144.372 11.2512 144.148 11.2512H139.796V21.898C139.796 22.1257 139.67 22.2524 139.445 22.2524H137.244C137.019 22.2524 136.894 22.1257 136.894 21.898V11.2512H132.542C132.317 11.2512 132.191 11.125 132.191 10.8973V8.82362C132.191 8.5959 132.317 8.4698 132.542 8.4698H144.148Z" fill="#2C2E2C"/>
<path d="M149.097 16.8658H153.85L151.649 11.2012H151.374L149.097 16.8658ZM154.851 19.521H148.047L147.097 21.9484C147.022 22.1511 146.872 22.2521 146.672 22.2521H144.195C143.946 22.2521 143.871 22.1254 143.946 21.898L149.848 8.67206C149.898 8.54541 149.998 8.4695 150.174 8.4695H153.025C153.2 8.4695 153.3 8.54541 153.35 8.67206L158.978 21.8472C159.053 22.0501 158.928 22.2521 158.702 22.2521H156.326C156.077 22.2521 155.901 22.1254 155.801 21.898L154.851 19.521Z" fill="#2C2E2C"/>
<path d="M38.9727 34.0689V28.1668H42.8132V28.8466H39.7441V34.0689H38.9727Z" fill="#617171"/>
<path d="M44.7048 31.1095C44.7048 32.5852 45.5006 33.5384 46.7398 33.5384C47.9626 33.5384 48.7584 32.5765 48.7584 31.1095C48.7584 29.6507 47.9626 28.7057 46.7234 28.7057C45.3448 28.7057 44.7048 29.8494 44.7048 31.1095ZM49.5302 31.068C49.5302 32.8009 48.5864 34.2097 46.7317 34.2097C44.8609 34.2097 43.9336 32.7673 43.9336 31.0513C43.9336 29.2116 45.0248 28.0259 46.7234 28.0259C48.5369 28.0259 49.5302 29.3105 49.5302 31.068Z" fill="#617171"/>
<path d="M55.5696 34.0689H54.7984V28.8466H52.6402L52.5254 32.1704C52.4844 33.3562 52.0574 34.1934 51.1714 34.1934C51.007 34.1934 50.761 34.1352 50.6133 34.0771V33.4139C50.7202 33.4805 50.9417 33.4971 51.0316 33.4971C51.4501 33.4971 51.7542 33.2648 51.795 31.7642L51.9017 28.1667H55.5696V34.0689Z" fill="#617171"/>
<path d="M58.1604 31.1095C58.1604 32.5852 58.9563 33.5384 60.1955 33.5384C61.418 33.5384 62.2141 32.5765 62.2141 31.1095C62.2141 29.6507 61.418 28.7057 60.1791 28.7057C58.8005 28.7057 58.1604 29.8494 58.1604 31.1095ZM62.9853 31.068C62.9853 32.8009 62.0421 34.2097 60.1874 34.2097C58.3163 34.2097 57.3887 32.7673 57.3887 31.0513C57.3887 29.2116 58.4805 28.0259 60.1791 28.0259C61.9926 28.0259 62.9853 29.3105 62.9853 31.068Z" fill="#617171"/>
<path d="M65.5555 33.4139H67.0985C67.8779 33.4139 68.641 33.3645 68.641 32.3283C68.641 31.3003 67.7466 31.3085 66.9673 31.3085H65.5555V33.4139ZM65.5555 30.695H66.9424C67.599 30.695 68.3869 30.6453 68.3869 29.7586C68.3869 28.8712 67.7054 28.83 67.0165 28.83H65.5555V30.695ZM67.2954 28.1668C68.2638 28.1668 69.1577 28.5566 69.1577 29.6423C69.1577 30.2224 68.8217 30.7201 68.2964 30.9105C69.0186 31.0767 69.4204 31.6233 69.4204 32.4029C69.4204 33.7623 68.321 34.0689 67.2052 34.0689H64.8008V28.1668H67.2954Z" fill="#617171"/>
<path d="M75.892 34.0689H75.1205V31.3085H72.0352V34.0689H71.2637V28.1668H72.0352V30.6284H75.1205V28.1668H75.892V34.0689Z" fill="#617171"/>
<path d="M80.2005 28.9127L79.1912 31.6403H81.1939L80.2005 28.9127ZM82.9332 34.0689H82.0719L81.4234 32.262H78.97L78.3056 34.0689H77.4844L79.7823 28.1668H80.6519L82.9332 34.0689Z" fill="#617171"/>
<path d="M92.4447 34.0689H91.6732V28.8466H88.5879V34.0689H87.8164V28.1668H92.4447V34.0689Z" fill="#617171"/>
<path d="M95.043 31.1095C95.043 32.5852 95.8387 33.5384 97.0775 33.5384C98.3004 33.5384 99.0961 32.5765 99.0961 31.1095C99.0961 29.6507 98.3004 28.7057 97.0616 28.7057C95.6824 28.7057 95.043 29.8494 95.043 31.1095ZM99.8676 31.068C99.8676 32.8009 98.924 34.2097 97.0699 34.2097C95.1985 34.2097 94.2715 32.7673 94.2715 31.0513C94.2715 29.2116 95.3624 28.0259 97.0616 28.0259C98.8749 28.0259 99.8676 29.3105 99.8676 31.068Z" fill="#617171"/>
<path d="M101.684 28.1668H102.455V33.3893H105.048V28.1668H105.819V33.3893H108.412V28.1668H109.184V34.0689H101.684V28.1668Z" fill="#617171"/>
<path d="M115.52 28.8466H113.559V34.0689H112.787V28.8466H110.826V28.1668H115.52V28.8466Z" fill="#617171"/>
<path d="M118.507 28.9127L117.499 31.6403H119.501L118.507 28.9127ZM121.241 34.0689H120.379L119.73 32.262H117.277L116.612 34.0689H115.791L118.089 28.1668H118.959L121.241 34.0689Z" fill="#617171"/>
<path d="M128.404 30.5378L130.964 34.0689H129.98L127.862 31.068L126.895 31.9968V34.0689H126.123V28.1668H126.895V31.0931L129.857 28.1668H130.866L128.404 30.5378Z" fill="#617171"/>
<path d="M133.363 30.9935H134.848C135.596 30.9935 136.17 30.7862 136.17 29.9161C136.17 28.9708 135.505 28.8382 134.742 28.8382H133.363V30.9935ZM134.996 28.1668C136.113 28.1668 136.941 28.6391 136.941 29.8661C136.941 31.2009 136.088 31.6485 134.947 31.6485H133.363V34.0689H132.592V28.1668H134.996Z" fill="#617171"/>
<path d="M140.355 28.9127L139.345 31.6403H141.348L140.355 28.9127ZM143.088 34.0689H142.226L141.578 32.262H139.124L138.459 34.0689H137.639L139.936 28.1668H140.806L143.088 34.0689Z" fill="#617171"/>
<path d="M146.227 27.6611H145.488V26.824H146.227V27.6611ZM145.464 34.0689H144.692V28.1668H145.464V34.0689ZM144.676 27.6611H143.938V26.824H144.676V27.6611Z" fill="#617171"/>
<path d="M152.227 34.0689H151.456V31.3085H148.371V34.0689H147.6V28.1668H148.371V30.6284H151.456V28.1668H152.227V34.0689Z" fill="#617171"/>
<path d="M154.35 28.1668H155.121V33.1654H155.137L158.001 28.1668H158.977V34.0689H158.206V29.0536H158.19L155.317 34.0689H154.35V28.1668Z" fill="#617171"/>
</svg>
