<?xml version="1.0" encoding="utf-8"?>
<!-- Generator: Adobe Illustrator 23.1.0, SVG Export Plug-In . SVG Version: 6.00 Build 0)  -->
<svg version="1.1" id="Layer_1" xmlns="http://www.w3.org/2000/svg" xmlns:xlink="http://www.w3.org/1999/xlink" x="0px" y="0px"
	 viewBox="0 0 58.9 17.7" style="enable-background:new 0 0 58.9 17.7;" xml:space="preserve">
<style type="text/css">
	.st0{fill:#D52228;}
</style>
<polygon class="st0" points="32.8,0 24,8.8 32.8,17.7 34.9,15.7 28,8.8 34.9,2 "/>
<polygon class="st0" points="44.8,0 35.9,8.8 44.8,17.7 46.8,15.7 40,8.8 46.8,2 "/>
<polygon class="st0" points="56.8,0 48,8.8 56.8,17.7 58.9,15.7 52,8.8 58.9,2 "/>
<polygon class="st0" points="8.8,0 0,8.8 8.8,17.7 10.9,15.7 4,8.8 10.9,2 "/>
<polygon class="st0" points="20.8,0 11.9,8.8 20.8,17.7 22.8,15.7 16,8.8 22.8,2 "/>
</svg>
