<svg width="70" height="71" viewBox="0 0 70 71" fill="none" xmlns="http://www.w3.org/2000/svg">
<path d="M33.3839 21.3386C35.223 21.2307 37.0512 20.982 38.8523 20.5949C40.0463 19.7233 41.0109 18.5749 41.6631 17.2483C42.4177 20.1028 44.452 21.8745 47.0331 21.8745C51.7687 21.8745 56.8762 19.4794 56.8762 14.2188C57.0162 11.3509 57.3819 8.49852 57.9699 5.68808C58.0239 5.42645 57.9804 5.15408 57.8474 4.92238C57.7144 4.69067 57.5012 4.51565 57.248 4.43034C56.8652 4.31004 53.3327 3.33666 46.5628 6.68333C44.7181 7.5839 43.2336 9.08382 42.3521 10.9377C41.2584 6.80363 37.0587 3.28198 32.8152 3.28198C30.1466 3.28198 23.508 0.963379 21.1785 0.077498C21.0245 0.0162478 20.8587 -0.00923468 20.6935 0.00297424C20.5283 0.0151832 20.368 0.0647644 20.2248 0.147975C20.0815 0.231186 19.959 0.345852 19.8666 0.483317C19.7741 0.620782 19.7141 0.777453 19.6911 0.941505C19.6254 1.40085 18.138 12.3814 24.2189 18.0795C26.7313 20.3207 30.0206 21.4904 33.3839 21.3386V21.3386ZM47.5252 8.63008C49.9236 7.31561 52.591 6.5674 55.3232 6.44272H55.5856C55.0813 9.00691 54.7814 11.6071 54.6888 14.2188C54.6888 17.981 50.7188 19.6872 47.0331 19.6872C46.771 19.6896 46.5097 19.6565 46.2566 19.5887L51.2 12.6658C51.3394 12.4303 51.3856 12.1511 51.3292 11.8833C51.2729 11.6155 51.1182 11.3785 50.8957 11.2192C50.6732 11.0599 50.399 10.9898 50.1274 11.0227C49.8557 11.0556 49.6062 11.1892 49.4282 11.3971L44.5067 18.2763C44.157 17.7682 43.9014 17.2015 43.752 16.603C43.4013 15.0436 43.5822 13.4117 44.266 11.9669C44.9497 10.5222 46.097 9.34761 47.5252 8.63008V8.63008ZM21.7472 2.61484C24.3501 3.5554 30.0263 5.46934 32.8152 5.46934C34.7971 5.61598 36.6603 6.46965 38.0655 7.87485C39.4707 9.28005 40.3243 11.1433 40.471 13.1251C40.4745 14.062 40.2916 14.9903 39.933 15.8559C39.5744 16.7215 39.0472 17.5071 38.3821 18.167L29.2498 8.01761C29.1565 7.90138 29.0404 7.80546 28.9086 7.73573C28.7768 7.66601 28.6322 7.62396 28.4836 7.61216C28.335 7.60037 28.1856 7.61908 28.0444 7.66715C27.9033 7.71521 27.7735 7.79162 27.663 7.89167C27.5525 7.99173 27.4636 8.11332 27.4018 8.24897C27.34 8.38463 27.3066 8.53149 27.3036 8.68054C27.3006 8.82958 27.3282 8.97766 27.3845 9.11568C27.4408 9.2537 27.5248 9.37875 27.6312 9.48315L36.0963 18.9435C31.5903 19.5559 28.0905 18.7357 25.6844 16.4827C21.6269 12.6548 21.5722 5.57871 21.7472 2.61484Z" fill="#D52228"/>
<path d="M42.6581 32.8117V21.8749C42.6581 21.5849 42.5428 21.3067 42.3377 21.1016C42.1326 20.8965 41.8544 20.7812 41.5644 20.7812C41.2743 20.7812 40.9961 20.8965 40.791 21.1016C40.5859 21.3067 40.4707 21.5849 40.4707 21.8749V32.8117C40.4707 33.1018 40.5859 33.38 40.791 33.5851C40.9961 33.7902 41.2743 33.9054 41.5644 33.9054C41.8544 33.9054 42.1326 33.7902 42.3377 33.5851C42.5428 33.38 42.6581 33.1018 42.6581 32.8117Z" fill="#D52228"/>
<path d="M68.9063 43.7495H67.4408C67.6544 43.0385 67.7793 42.3038 67.8126 41.5622C67.8126 41.2721 67.6974 40.9939 67.4923 40.7888C67.2872 40.5837 67.009 40.4685 66.719 40.4685H64.8816C65.3097 39.4236 65.561 38.3148 65.6253 37.1874C65.6253 36.8974 65.5101 36.6192 65.305 36.4141C65.0998 36.209 64.8217 36.0938 64.5316 36.0938H60.1569C59.9606 36.0938 59.7679 36.1467 59.5991 36.2469L54.1307 39.5279C53.9117 39.6872 53.7596 39.922 53.7038 40.1869C53.648 40.4518 53.6924 40.728 53.8285 40.9621C53.9646 41.1962 54.1826 41.3715 54.4405 41.454C54.6983 41.5366 54.9777 41.5205 55.2244 41.409L60.4631 38.2811H63.2739C63.1754 38.7514 62.6177 40.4685 62.6177 40.4685H62.3442C62.1479 40.4685 61.9553 40.5214 61.7865 40.6216L56.3181 43.9026C56.0991 44.0619 55.947 44.2967 55.8912 44.5616C55.8353 44.8265 55.8798 45.1028 56.0158 45.3368C56.1519 45.5709 56.37 45.7462 56.6278 45.8287C56.8857 45.9113 57.165 45.8953 57.4117 45.7838L62.6505 42.6558H65.4612L65.1441 43.7495H64.5316C64.3353 43.7496 64.1426 43.8025 63.9738 43.9026L45.7422 54.6207L26.2528 50.7163C25.9427 50.6474 25.6681 50.4685 25.4799 50.2126C25.2916 49.9567 25.2027 49.6412 25.2294 49.3246C25.2561 49.0081 25.3967 48.712 25.6251 48.4913C25.8535 48.2705 26.1543 48.1401 26.4715 48.1242H42.658C43.8183 48.1242 44.931 47.6633 45.7514 46.8429C46.5718 46.0225 47.0327 44.9098 47.0327 43.7495C47.0327 42.5893 46.5718 41.4765 45.7514 40.6561C44.931 39.8357 43.8183 39.3748 42.658 39.3748H18.0393C16.0166 39.3601 14.0703 40.1465 12.6255 41.5622L0.321642 53.9098C0.115698 54.1157 -7.51701e-09 54.3951 0 54.6863C7.51701e-09 54.9776 0.115698 55.2569 0.321642 55.4628C0.527586 55.6688 0.806906 55.7845 1.09816 55.7845C1.3894 55.7845 1.66872 55.6688 1.87467 55.4628L14.2223 43.1589C15.2364 42.1473 16.6069 41.574 18.0393 41.5622H42.658C43.2381 41.5622 43.7945 41.7926 44.2047 42.2028C44.6149 42.613 44.8454 43.1694 44.8454 43.7495C44.8454 44.3296 44.6149 44.886 44.2047 45.2962C43.7945 45.7064 43.2381 45.9369 42.658 45.9369H26.4715C25.6099 45.9462 24.7821 46.2731 24.1465 46.8549C23.5109 47.4366 23.1123 48.2324 23.027 49.0898C22.9417 49.9472 23.1756 50.806 23.6841 51.5016C24.1925 52.1972 24.9397 52.6809 25.7825 52.8599L45.7203 56.8737C45.9865 56.9279 46.2633 56.8811 46.4968 56.7424L64.8269 45.9369H67.6595C67.2986 47.6102 66.0409 50.9022 61.7537 53.7676L45.2938 64.4638C43.7468 65.464 41.9916 66.0972 40.1625 66.3152C38.3333 66.5332 36.4785 66.3301 34.7398 65.7215L22.239 61.3468C22.051 61.286 21.85 61.2773 21.6574 61.3216C21.4649 61.3659 21.2879 61.4616 21.1453 61.5984L14.5832 68.1605C14.4807 68.2621 14.3994 68.3831 14.3438 68.5164C14.2883 68.6496 14.2597 68.7926 14.2597 68.937C14.2597 69.0813 14.2883 69.2243 14.3438 69.3576C14.3994 69.4908 14.4807 69.6118 14.5832 69.7135C14.6849 69.816 14.8059 69.8974 14.9391 69.9529C15.0724 70.0084 15.2154 70.037 15.3597 70.037C15.5041 70.037 15.6471 70.0084 15.7803 69.9529C15.9136 69.8974 16.0346 69.816 16.1363 69.7135L22.2062 63.6326L34.007 67.8105C36.065 68.5232 38.2584 68.7577 40.4206 68.4962C42.5829 68.2347 44.6571 67.484 46.4859 66.3012L62.8911 55.5941C69.9234 50.9459 70 45.0947 70 44.8432C70 44.5531 69.8848 44.2749 69.6797 44.0698C69.4746 43.8647 69.1964 43.7495 68.9063 43.7495Z" fill="#D52228"/>
<path d="M33.9085 32.8125C32.4542 32.8086 31.0195 33.1483 29.7214 33.804C28.4233 34.4597 27.2985 35.4128 26.4386 36.5857C26.2793 36.8255 26.2209 37.1185 26.2762 37.401C26.3315 37.6836 26.496 37.933 26.7339 38.095C26.8531 38.1756 26.987 38.2319 27.1279 38.2607C27.2689 38.2895 27.4141 38.2902 27.5553 38.2628C27.6965 38.2353 27.8309 38.1803 27.9509 38.1009C28.0708 38.0214 28.1738 37.9191 28.2542 37.7997C28.9188 36.9311 29.7746 36.2274 30.7552 35.743C31.7358 35.2586 32.8148 35.0066 33.9085 35.0066C35.0022 35.0066 36.0812 35.2586 37.0618 35.743C38.0423 36.2274 38.8982 36.9311 39.5628 37.7997C39.6631 37.9481 39.7984 38.0696 39.9567 38.1536C40.1149 38.2375 40.2914 38.2812 40.4706 38.2809C40.6856 38.2834 40.896 38.2184 41.0721 38.095C41.3118 37.9347 41.4785 37.6861 41.5359 37.4034C41.5932 37.1207 41.5366 36.8268 41.3783 36.5857C40.5185 35.4128 39.3937 34.4597 38.0956 33.804C36.7975 33.1483 35.3628 32.8086 33.9085 32.8125V32.8125Z" fill="#D52228"/>
<path d="M43.7519 37.1874C47.3829 37.1874 49.3187 40.9277 49.3406 40.9606C49.4315 41.1409 49.5705 41.2926 49.7423 41.3988C49.9141 41.5049 50.112 41.5615 50.314 41.5621C50.4855 41.5641 50.6548 41.5227 50.8061 41.4418C51.0637 41.3107 51.2589 41.0829 51.3491 40.8083C51.4393 40.5337 51.4171 40.2345 51.2873 39.9762C51.1889 39.7794 48.75 35 43.7519 35C43.4618 35 43.1836 35.1152 42.9785 35.3203C42.7734 35.5254 42.6582 35.8036 42.6582 36.0937C42.6582 36.3837 42.7734 36.6619 42.9785 36.867C43.1836 37.0721 43.4618 37.1874 43.7519 37.1874Z" fill="#D52228"/>
<path d="M49.7675 44.2967C50.3476 44.2967 50.904 44.5272 51.3142 44.9374C51.7244 45.3476 51.9549 45.904 51.9549 46.4841C51.9549 46.7742 52.0701 47.0523 52.2752 47.2574C52.4803 47.4625 52.7585 47.5778 53.0485 47.5778C53.3386 47.5778 53.6168 47.4625 53.8219 47.2574C54.027 47.0523 54.1422 46.7742 54.1422 46.4841C54.1422 45.3238 53.6813 44.2111 52.8609 43.3907C52.0405 42.5703 50.9278 42.1094 49.7675 42.1094C49.4774 42.1094 49.1993 42.2246 48.9942 42.4297C48.7891 42.6348 48.6738 42.913 48.6738 43.2031C48.6738 43.4931 48.7891 43.7713 48.9942 43.9764C49.1993 44.1815 49.4774 44.2967 49.7675 44.2967Z" fill="#D52228"/>
</svg>
