<svg width="70" height="71" viewBox="0 0 70 71" fill="none" xmlns="http://www.w3.org/2000/svg">
<path d="M66.7188 40.5015H63.4375V33.939C63.4375 33.6489 63.3223 33.3707 63.1171 33.1656C62.912 32.9605 62.6338 32.8452 62.3438 32.8452H49.1094C48.8894 31.7775 48.3554 30.7999 47.5758 30.0379C46.7963 29.2759 45.8068 28.7643 44.7344 28.5687C44.0891 26.1843 41.2125 24.5109 38.3141 24.1937V21.164C40.0237 21.8931 41.8588 22.2831 43.7172 22.3124C45.4531 22.3338 47.1634 21.892 48.6719 21.0327C53.8891 18.014 54.0641 11.2765 54.0641 10.9921C54.0677 10.7946 54.0177 10.5998 53.9195 10.4284C53.8213 10.257 53.6785 10.1154 53.5062 10.0187C53.2219 9.87648 47.2938 6.64992 42.0766 9.65773C39.9374 10.9532 38.3316 12.9702 37.5484 15.3452C37.4384 11.3176 35.7954 7.48382 32.9547 4.62648C26.3922 -1.93602 17.5656 0.371793 17.2047 0.481168C17.0196 0.529699 16.8504 0.625946 16.7142 0.760295C16.5779 0.894645 16.4793 1.0624 16.4281 1.24679C16.3297 1.61867 14.0219 10.4343 20.5844 16.9968C22.1094 18.5039 23.9212 19.6899 25.9125 20.4846C27.9039 21.2793 30.0345 21.6665 32.1781 21.6234C33.4936 21.6433 34.8071 21.5149 36.0938 21.2405V24.1718C33.1953 24.5109 30.3187 26.1843 29.6734 28.5468C28.601 28.7424 27.6115 29.254 26.832 30.016C26.0524 30.7781 25.5184 31.7557 25.2984 32.8234H1.09375C0.803669 32.8234 0.52547 32.9386 0.320352 33.1437C0.115234 33.3488 0 33.627 0 33.9171L0 68.939C0 69.2291 0.115234 69.5073 0.320352 69.7124C0.52547 69.9175 0.803669 70.0327 1.09375 70.0327H62.3438C62.6338 70.0327 62.912 69.9175 63.1171 69.7124C63.3223 69.5073 63.4375 69.2291 63.4375 68.939V62.3765H66.7188C67.589 62.3765 68.4236 62.0308 69.0389 61.4154C69.6543 60.8001 70 59.9655 70 59.0952V43.7827C70 42.9125 69.6543 42.0779 69.0389 41.4625C68.4236 40.8472 67.589 40.5015 66.7188 40.5015ZM43.1703 11.5609C46.4516 9.65773 50.3125 10.9921 51.7891 11.6374C51.6141 13.2343 50.8484 17.2374 47.5453 19.1296C46.4249 19.6958 45.1998 20.0249 43.9464 20.0964C42.6931 20.168 41.4385 19.9803 40.2609 19.5452L47.8078 15.1702C47.9328 15.0984 48.0424 15.0027 48.1303 14.8885C48.2183 14.7743 48.2829 14.644 48.3205 14.5048C48.3581 14.3657 48.3679 14.2205 48.3493 14.0776C48.3308 13.9346 48.2843 13.7968 48.2125 13.6718C48.1407 13.5468 48.045 13.4372 47.9308 13.3493C47.8166 13.2613 47.6862 13.1967 47.5471 13.1591C47.408 13.1215 47.2628 13.1117 47.1198 13.1303C46.9769 13.1488 46.839 13.1953 46.7141 13.2671L39.1781 17.6421C39.392 16.4092 39.8567 15.2334 40.5434 14.1874C41.2301 13.1414 42.1242 12.2474 43.1703 11.5609V11.5609ZM22.1266 15.4874C17.4125 10.7734 18.0578 4.48429 18.4078 2.48273C20.4094 2.13273 26.6984 1.49835 31.4125 6.20148C32.87 7.73834 33.9737 9.57535 34.6463 11.5838C35.3189 13.5922 35.5442 15.7234 35.3062 17.828L24.4453 6.97804C24.2361 6.79886 23.9669 6.70523 23.6917 6.71586C23.4164 6.72649 23.1553 6.8406 22.9605 7.0354C22.7657 7.23019 22.6516 7.49131 22.6409 7.76658C22.6303 8.04185 22.7239 8.31099 22.9031 8.52023L33.7531 19.3812C31.6484 19.6214 29.5165 19.3972 27.5078 18.7245C25.499 18.0517 23.6621 16.9468 22.1266 15.4874V15.4874ZM30.625 30.6577C31.0892 30.6556 31.5486 30.752 31.9728 30.9405C32.3971 31.129 32.7765 31.4055 33.0859 31.7515C33.2788 31.969 33.5503 32.1011 33.8405 32.1185C34.1308 32.1359 34.416 32.0374 34.6336 31.8444C34.8512 31.6515 34.9832 31.3801 35.0006 31.0899C35.018 30.7996 34.9195 30.5144 34.7266 30.2968C33.996 29.4811 33.041 28.899 31.9812 28.6234C32.7359 27.3765 35 26.2827 37.1875 26.2827C39.375 26.2827 41.6391 27.3765 42.3937 28.6452C41.334 28.9209 40.379 29.503 39.6484 30.3187C39.4888 30.5397 39.4174 30.8123 39.4483 31.0832C39.4792 31.3541 39.6102 31.6037 39.8155 31.783C40.0209 31.9624 40.2858 32.0586 40.5584 32.0527C40.831 32.0469 41.0916 31.9395 41.2891 31.7515C41.6687 31.3253 42.153 31.0056 42.694 30.8238C43.235 30.642 43.8141 30.6045 44.374 30.7149C44.934 30.8254 45.4555 31.08 45.8869 31.4536C46.3184 31.8271 46.645 32.3068 46.8344 32.8452H27.5406C27.7663 32.207 28.1838 31.6541 28.736 31.2625C29.2882 30.8709 29.948 30.6596 30.625 30.6577V30.6577ZM61.25 67.8452H2.1875V35.0327H61.25V67.8452ZM67.8125 59.0952C67.8125 59.3853 67.6973 59.6635 67.4921 59.8686C67.287 60.0737 67.0088 60.189 66.7188 60.189H63.4375V42.689H66.7188C67.0088 42.689 67.287 42.8042 67.4921 43.0093C67.6973 43.2145 67.8125 43.4927 67.8125 43.7827V59.0952Z" fill="#D52228"/>
<path d="M41.486 49.929C41.42 49.7696 41.3173 49.628 41.1861 49.5158C41.0549 49.4037 40.8991 49.3241 40.7313 49.2837L32.8126 47.3041V38.3134C32.8216 38.0679 32.7478 37.8265 32.603 37.6281C32.4581 37.4297 32.2507 37.2858 32.0141 37.2197C31.7854 37.1561 31.5421 37.1686 31.3211 37.2554C31.1001 37.3422 30.9134 37.4986 30.7891 37.7009L22.0391 51.9197C21.9431 52.0859 21.8926 52.2746 21.8926 52.4665C21.8926 52.6585 21.9431 52.8471 22.0391 53.0134C22.125 53.1894 22.2567 53.3391 22.4202 53.4468C22.5837 53.5546 22.7732 53.6164 22.9688 53.6259H30.6251V64.5634C30.616 64.8089 30.6898 65.0503 30.8347 65.2487C30.9795 65.4471 31.1869 65.591 31.4235 65.6572C31.5213 65.6731 31.621 65.6731 31.7188 65.6572C31.9057 65.6564 32.0893 65.6077 32.2521 65.5158C32.4148 65.4239 32.5513 65.2918 32.6485 65.1322L41.3985 50.9134C41.4893 50.7677 41.5446 50.6027 41.5598 50.4317C41.575 50.2607 41.5497 50.0885 41.486 49.929ZM32.8126 60.7025V52.5322C32.8126 52.2421 32.6973 51.9639 32.4922 51.7588C32.2871 51.5537 32.0089 51.4384 31.7188 51.4384H24.9266L30.6251 42.1744V48.1572C30.6178 48.407 30.6963 48.6518 30.8475 48.8508C30.9988 49.0498 31.2136 49.191 31.4563 49.2509L38.7516 51.0775L32.8126 60.7025Z" fill="#D52228"/>
<path d="M19.6875 39.4102H25.1562V37.2227H5.46875C5.17867 37.2227 4.90047 37.3379 4.69535 37.543C4.49023 37.7481 4.375 38.0263 4.375 38.3164V64.5664C4.375 64.8565 4.49023 65.1347 4.69535 65.3398C4.90047 65.5449 5.17867 65.6602 5.46875 65.6602H25.1562V63.4727H19.6875V39.4102ZM6.5625 39.4102H17.5V63.4727H6.5625V39.4102Z" fill="#D52228"/>
<path d="M57.9688 37.2227H38.2812V39.4102H43.75V63.4727H38.2812V65.6602H57.9688C58.2588 65.6602 58.537 65.5449 58.7421 65.3398C58.9473 65.1347 59.0625 64.8565 59.0625 64.5664V38.3164C59.0625 38.0263 58.9473 37.7481 58.7421 37.543C58.537 37.3379 58.2588 37.2227 57.9688 37.2227ZM56.875 63.4727H45.9375V39.4102H56.875V63.4727Z" fill="#D52228"/>
</svg>
