<svg width="80" height="80" viewBox="0 0 80 80" fill="none" xmlns="http://www.w3.org/2000/svg">
<g clip-path="url(#clip0)">
<path d="M40.0004 -0.0996094C17.8004 -0.0996094 -0.0996094 17.9004 -0.0996094 40.0004C-0.0996094 62.2004 17.9004 80.1004 40.0004 80.1004C62.2004 80.1004 80.1004 62.1004 80.1004 40.0004C80.1004 17.8004 62.2004 -0.0996094 40.0004 -0.0996094ZM66.7004 50.6004C66.7004 59.4004 59.5004 66.6004 50.7004 66.6004H29.5004C20.7004 66.6004 13.5004 59.4004 13.5004 50.6004V29.4004C13.5004 20.6004 20.7004 13.4004 29.5004 13.4004H50.7004C59.5004 13.4004 66.7004 20.6004 66.7004 29.4004V50.6004Z" fill="white"/>
<path d="M40.3004 31.5996C35.7004 31.5996 31.9004 35.3996 31.9004 39.9996C31.9004 44.5996 35.7004 48.3996 40.3004 48.3996C44.9004 48.3996 48.7004 44.5996 48.7004 39.9996C48.7004 35.3996 45.0004 31.5996 40.3004 31.5996Z" fill="white"/>
<path d="M50.7 18.4004H29.5C23.5 18.4004 18.5 23.3004 18.5 29.4004V50.6004C18.5 56.6004 23.4 61.6004 29.5 61.6004H50.7C56.7 61.6004 61.7 56.7004 61.7 50.6004V29.4004C61.7 23.3004 56.8 18.4004 50.7 18.4004ZM40.3 53.1004C33.1 53.1004 27.2 47.2004 27.2 40.0004C27.2 32.8004 33.1 26.9004 40.3 26.9004C47.5 26.9004 53.4 32.8004 53.4 40.0004C53.4 47.2004 47.6 53.1004 40.3 53.1004ZM54.2 29.1004C52.5 29.1004 51.1 27.7004 51.1 26.0004C51.1 24.3004 52.5 22.9004 54.2 22.9004C55.9 22.9004 57.3 24.3004 57.3 26.0004C57.3 27.8004 55.9 29.1004 54.2 29.1004Z" fill="white"/>
</g>
<defs>
<clipPath id="clip0">
<rect width="80" height="80" fill="white"/>
</clipPath>
</defs>
</svg>
