<svg width="80" height="80" viewBox="0 0 80 80" fill="none" xmlns="http://www.w3.org/2000/svg">
<path fill-rule="evenodd" clip-rule="evenodd" d="M62.4493 58.8493V43.2333C62.4493 34.8667 57.9827 30.9733 52.028 30.9733C47.2227 30.9733 45.0693 33.6173 43.8693 35.472V31.6133H34.816C34.936 34.1693 34.816 58.8493 34.816 58.8493H43.8693V43.6387C43.8693 42.8267 43.928 42.0133 44.168 41.432C44.8213 39.8053 46.3107 38.1213 48.8107 38.1213C52.088 38.1213 53.3973 40.6187 53.3973 44.2787V58.8507H62.4493V58.8493ZM25.2787 27.896C28.4347 27.896 30.4013 25.8027 30.4013 23.188C30.3427 20.5173 28.4347 18.484 25.3387 18.484C22.2427 18.484 20.2173 20.516 20.2173 23.188C20.2173 25.8027 22.1827 27.896 25.2213 27.896H25.2787ZM40 80C17.9093 80 0 62.0907 0 40C0 17.908 17.9093 0 40 0C62.0907 0 80 17.908 80 40C80 62.0907 62.0907 80 40 80ZM29.8053 58.8493V31.6133H20.7533V58.8493H29.8053Z" fill="white"/>
</svg>
