<?xml version="1.0" encoding="utf-8"?>
<!-- Generator: Adobe Illustrator 21.1.0, SVG Export Plug-In . SVG Version: 6.00 Build 0)  -->
<svg version="1.1" id="Слой_1" xmlns="http://www.w3.org/2000/svg" xmlns:xlink="http://www.w3.org/1999/xlink" x="0px" y="0px"
	 viewBox="0 0 1000 1000" style="enable-background:new 0 0 1000 1000;" xml:space="preserve">
<style type="text/css">
	.st0{fill:#F7AA02;}
	.st1{fill:#43AC4E;}
	.st2{fill:#B5B333;}
</style>
<g>
	<path class="st0" d="M196.5,702.8h-28l-5.8,13.2H155l23.8-52.6h7.4l23.9,52.6h-7.9L196.5,702.8z M193.9,696.7L182.5,671l-11.4,25.8
		H193.9z"/>
	<path class="st0" d="M247.4,682.4h-22.1v33.5h-7.2v-39.9h29.3V682.4z"/>
	<path class="st0" d="M288.9,698.4h-32.3c0.5,3.5,2,6.3,4.6,8.5c2.6,2.1,5.9,3.2,9.8,3.2c4.8,0,8.6-1.6,11.5-4.8l4,4.7
		c-1.8,2.1-4,3.7-6.7,4.8c-2.7,1.1-5.7,1.7-9,1.7c-4.2,0-7.9-0.9-11.2-2.6c-3.3-1.7-5.8-4.1-7.6-7.3c-1.8-3.1-2.7-6.6-2.7-10.5
		c0-3.9,0.9-7.3,2.6-10.5c1.7-3.1,4.1-5.5,7.1-7.3c3-1.7,6.5-2.6,10.3-2.6c3.8,0,7.2,0.9,10.2,2.6c3,1.7,5.3,4.1,7,7.3
		c1.7,3.1,2.5,6.7,2.5,10.7C289.1,696.8,289,697.5,288.9,698.4z M260.7,684.9c-2.3,2.1-3.7,4.9-4.1,8.3h25.6
		c-0.4-3.4-1.8-6.1-4.1-8.2c-2.3-2.1-5.2-3.2-8.7-3.2S263,682.8,260.7,684.9z"/>
	<path class="st0" d="M300.3,676.1h7.2V693h22.7v-16.9h7.2v39.9h-7.2v-16.7h-22.7v16.7h-7.2V676.1z"/>
	<path class="st0" d="M394,709.6v15.9h-6.8v-9.6h-35.7v-39.9h7.2v33.5h21.8v-33.5h7.2v33.5H394z"/>
	<path class="st0" d="M403.5,667c-0.9-0.9-1.4-2-1.4-3.3c0-1.3,0.5-2.4,1.4-3.3c0.9-0.9,2.1-1.4,3.5-1.4c1.4,0,2.6,0.4,3.5,1.3
		c0.9,0.9,1.4,2,1.4,3.3c0,1.4-0.5,2.5-1.4,3.4c-0.9,0.9-2.1,1.4-3.5,1.4C405.6,668.4,404.4,667.9,403.5,667z M403.4,676.1h7.2v39.9
		h-7.2V676.1z"/>
	<path class="st0" d="M456.6,676.1v39.9h-6.5v-12.6h-11.6h-0.8l-8.7,12.6h-7.7l9.7-13.6c-3-0.9-5.3-2.4-6.9-4.5
		c-1.6-2.1-2.4-4.7-2.4-7.8c0-4.6,1.6-8,4.7-10.4c3.1-2.4,7.4-3.6,12.9-3.6H456.6z M431.5,696.2c1.7,1.3,4.2,1.9,7.6,1.9h11.1v-15.7
		h-10.8c-6.9,0-10.4,2.6-10.4,7.9C429,692.9,429.9,694.9,431.5,696.2z"/>
	<path class="st0" d="M522.4,678.3c3.1,1.7,5.5,4.1,7.2,7.1c1.7,3.1,2.6,6.6,2.6,10.6c0,4-0.9,7.6-2.6,10.6
		c-1.7,3.1-4.1,5.5-7.2,7.2c-3.1,1.7-6.5,2.6-10.4,2.6c-2.9,0-5.5-0.6-7.9-1.7c-2.4-1.1-4.4-2.7-6.1-4.8v20.6h-7.2v-54.4h6.9v6.3
		c1.6-2.2,3.6-3.9,6.1-5c2.5-1.1,5.2-1.7,8.1-1.7C515.9,675.7,519.4,676.5,522.4,678.3z M518.3,708.3c2-1.2,3.6-2.8,4.8-5
		c1.2-2.1,1.8-4.6,1.8-7.3c0-2.8-0.6-5.2-1.8-7.3c-1.2-2.1-2.8-3.8-4.8-4.9c-2-1.2-4.3-1.7-6.9-1.7c-2.5,0-4.8,0.6-6.8,1.8
		c-2,1.2-3.6,2.8-4.8,4.9c-1.2,2.1-1.8,4.5-1.8,7.3c0,2.8,0.6,5.2,1.7,7.3c1.2,2.1,2.8,3.8,4.8,5c2.1,1.2,4.3,1.8,6.8,1.8
		C514,710.1,516.3,709.5,518.3,708.3z"/>
	<path class="st0" d="M549,713.7c-3.2-1.8-5.6-4.2-7.4-7.3c-1.8-3.1-2.7-6.6-2.7-10.5s0.9-7.4,2.7-10.5c1.8-3.1,4.2-5.5,7.4-7.2
		c3.2-1.7,6.7-2.6,10.7-2.6c4,0,7.5,0.9,10.6,2.6c3.1,1.7,5.6,4.1,7.4,7.2s2.7,6.6,2.7,10.5s-0.9,7.4-2.7,10.5
		c-1.8,3.1-4.2,5.5-7.4,7.3c-3.1,1.8-6.7,2.6-10.6,2.6C555.7,716.4,552.2,715.5,549,713.7z M566.6,708.3c2-1.2,3.6-2.8,4.8-5
		c1.2-2.1,1.7-4.6,1.7-7.3c0-2.8-0.6-5.2-1.7-7.3c-1.2-2.1-2.7-3.8-4.8-4.9c-2-1.2-4.3-1.7-6.9-1.7c-2.6,0-4.9,0.6-6.9,1.7
		c-2,1.2-3.6,2.8-4.8,4.9c-1.2,2.1-1.8,4.6-1.8,7.3c0,2.8,0.6,5.2,1.8,7.3c1.2,2.1,2.8,3.8,4.8,5c2,1.2,4.3,1.8,6.9,1.8
		C562.3,710.1,564.6,709.5,566.6,708.3z"/>
	<path class="st0" d="M618.1,698.6c1.5,1.6,2.2,3.5,2.2,5.8c0,2.4-0.8,4.4-2.4,6.3c-1.6,1.8-3.8,3.3-6.7,4.3c-2.8,1-6,1.5-9.5,1.5
		c-3,0-5.9-0.4-8.7-1.2c-2.8-0.8-5.4-1.9-7.6-3.3l2.2-5.5c1.9,1.2,4.1,2.1,6.5,2.8c2.5,0.7,4.9,1,7.4,1c3.4,0,6.1-0.6,8.2-1.8
		c2-1.2,3-2.8,3-4.8c0-1.9-0.8-3.3-2.4-4.3c-1.6-1-3.9-1.5-6.9-1.5h-7.3v-5.2h6.8c2.7,0,4.8-0.5,6.4-1.4c1.6-1,2.3-2.3,2.3-3.9
		c0-1.8-0.9-3.2-2.7-4.2c-1.8-1-4.3-1.5-7.4-1.5c-4,0-8.1,1-12.6,3.1l-2-5.6c4.9-2.5,10-3.7,15.3-3.7c3.2,0,6.1,0.5,8.6,1.4
		c2.6,0.9,4.6,2.2,6,3.8c1.5,1.7,2.2,3.5,2.2,5.6c0,2-0.7,3.7-2,5.3c-1.3,1.6-3.1,2.7-5.3,3.5C614.6,695.9,616.7,697,618.1,698.6z"
		/>
	<path class="st0" d="M666.2,704.9c0,3.5-1.3,6.2-3.9,8.1c-2.6,1.9-6.6,2.9-11.8,2.9h-19.2v-39.9h18.5c4.7,0,8.4,0.9,11.1,2.7
		c2.7,1.8,4,4.3,4,7.6c0,2.1-0.6,3.9-1.7,5.5c-1.1,1.5-2.7,2.7-4.7,3.5C663.6,696.5,666.2,699.8,666.2,704.9z M638.4,693.2h10.8
		c2.8,0,4.9-0.5,6.3-1.5c1.4-1,2.1-2.5,2.1-4.4c0-3.8-2.8-5.7-8.4-5.7h-10.8V693.2z M656.7,708.9c1.5-1,2.3-2.4,2.3-4.4
		c0-2.1-0.7-3.6-2.1-4.6c-1.4-1-3.5-1.5-6.5-1.5h-12v12h11.6C652.9,710.4,655.2,709.9,656.7,708.9z"/>
	<path class="st0" d="M677.5,676.1h7.2v29l24.4-29h6.5v39.9h-7.2v-29l-24.4,29h-6.6V676.1z"/>
	<path class="st0" d="M759.4,682.4h-14.6v33.5h-7.2v-33.5H723v-6.3h36.4V682.4z"/>
	<path class="st0" d="M782.2,699.1h-8.3v16.8h-7.2v-39.9h7.2v16.8h8.4l12.9-16.8h7.7l-15.1,19.2l16.2,20.7h-8.5L782.2,699.1z"/>
	<path class="st0" d="M845,676.1l-19.3,43.8c-1.7,4.1-3.7,6.9-6,8.6c-2.3,1.7-5,2.5-8.2,2.5c-2,0-3.8-0.3-5.7-0.9
		c-1.8-0.6-3.3-1.5-4.5-2.7l3.1-5.4c2.1,2,4.4,2.9,7.1,2.9c1.8,0,3.2-0.5,4.4-1.4c1.2-0.9,2.2-2.5,3.2-4.8l1.3-2.8l-17.6-39.8h7.5
		l13.9,31.9l13.8-31.9H845z"/>
	<path class="st1" d="M292.2,762.2V827h-85.5v-64.8h14.9v52.6h20.4v-52.6H257v52.6h20.4v-52.6H292.2z"/>
	<path class="st1" d="M358.5,814.9v12h-50.2v-64.8h48.9v12h-34.1v14.1h30.1v11.7h-30.1v15H358.5z"/>
	<path class="st1" d="M429.6,762.2V827h-14.9v-52.6h-29.2V827h-14.9v-64.8H429.6z"/>
	<path class="st1" d="M495.9,814.9v12h-50.2v-64.8h48.9v12h-34.1v14.1h30.1v11.7h-30.1v15H495.9z"/>
	<path class="st1" d="M557.5,774.4h-20.7V827H522v-52.6h-20.6v-12.2h56.2V774.4z"/>
	<path class="st1" d="M567,762.2h14.9V827H567V762.2z"/>
	<path class="st1" d="M651.9,798.9c2.1,2.7,3.1,5.9,3.1,9.8c0,5.7-2.2,10.2-6.5,13.4c-4.3,3.2-10.6,4.8-18.6,4.8H598v-64.8h30.2
		c7.5,0,13.4,1.5,17.6,4.3c4.2,2.9,6.3,7,6.3,12.4c0,3.2-0.8,6-2.4,8.5c-1.6,2.4-3.9,4.4-6.8,5.8
		C646.8,794.4,649.8,796.3,651.9,798.9z M612.9,789h14c3.3,0,5.7-0.7,7.4-2c1.7-1.3,2.5-3.3,2.5-5.9c0-2.5-0.8-4.5-2.5-5.8
		c-1.7-1.4-4.1-2-7.4-2h-14V789z M639.9,807.5c0-5.4-3.5-8.1-10.5-8.1h-16.5v16.4h16.5C636.4,815.9,639.9,813.1,639.9,807.5z"/>
	<path class="st1" d="M692,800.9h-10.4V827h-14.9v-64.8h14.9v26.2h10.7l17-26.2h15.8L704,793.5l21.8,33.5h-17L692,800.9z"/>
	<path class="st1" d="M732.9,762.2h14.9v42.2l30.9-42.2h14.1V827h-14.8v-42.1L747,827h-14.2V762.2z"/>
</g>
<g>
	<path class="st2" d="M390.7,322.4h-90.9c-5.8,0-10.5,4.7-10.5,10.5v90.9c0,5.8,4.7,10.5,10.5,10.5h90.9c5.8,0,10.5-4.7,10.5-10.5
		v-90.9C401.2,327.1,396.5,322.4,390.7,322.4z"/>
	<path class="st2" d="M520.8,322.4h-41.6c-19.4,0-35.1,15.7-35.1,35.1v41.6c0,19.4,15.7,35.1,35.1,35.1h41.6
		c19.4,0,35.1-15.7,35.1-35.1v-41.6C556,338.2,540.2,322.4,520.8,322.4z M500,394.9c-9.1,0-16.5-7.4-16.5-16.5s7.4-16.5,16.5-16.5
		s16.5,7.4,16.5,16.5S509.1,394.9,500,394.9z"/>
	<path class="st2" d="M706.3,371.5l-1.7-0.3c-2.1-0.3-3.8-1.9-4.3-3.9c-0.2-0.7-0.3-1.4-0.5-2.1c-0.6-2,0.1-4.2,1.8-5.5l1.3-1.1
		c2-1.6,2.6-4.5,1.3-6.7l-0.9-1.5l-0.9-1.5c-1.3-2.2-4-3.2-6.5-2.3l-1.6,0.6c-2,0.8-4.2,0.3-5.7-1.2c-0.5-0.5-1-1-1.5-1.5
		c-1.5-1.5-2-3.7-1.2-5.7l0.6-1.6c0.9-2.4,0-5.2-2.3-6.5l-1.5-0.9l-1.5-0.9c-2.2-1.3-5.1-0.8-6.7,1.3l-1.1,1.3
		c-1.3,1.7-3.5,2.4-5.5,1.8c-0.7-0.2-1.4-0.4-2.1-0.5c-2.1-0.5-3.6-2.2-3.9-4.3l-0.3-1.7c-0.4-2.6-2.6-4.5-5.2-4.5h-1.7H653
		c-2.6,0-4.8,1.9-5.2,4.5l-0.3,1.7c-0.3,2.1-1.9,3.8-3.9,4.3c-0.7,0.2-1.4,0.3-2.1,0.5c-2,0.6-4.2-0.1-5.5-1.8l-1.1-1.3
		c-1.6-2-4.5-2.6-6.7-1.3l-1.5,0.9l-1.5,0.9c-2.2,1.3-3.2,4-2.3,6.5l0.6,1.6c0.8,2,0.3,4.2-1.2,5.7c-0.5,0.5-1,1-1.5,1.5
		c-1.5,1.5-3.7,2-5.7,1.2l-1.6-0.6c-2.4-0.9-5.2,0-6.5,2.3l-0.9,1.5l-0.9,1.5c-1.3,2.2-0.8,5.1,1.3,6.7l1.3,1.1
		c1.7,1.3,2.4,3.5,1.8,5.5c-0.2,0.7-0.4,1.4-0.5,2.1c-0.5,2.1-2.2,3.6-4.3,3.9l-1.7,0.3c-2.6,0.4-4.5,2.6-4.5,5.2v1.7v1.7
		c0,2.6,1.9,4.8,4.5,5.2l1.7,0.3c2.1,0.3,3.8,1.9,4.3,3.9c0.2,0.7,0.3,1.4,0.5,2.1c0.6,2-0.1,4.2-1.8,5.5l-1.3,1.1
		c-2,1.6-2.6,4.5-1.3,6.7l0.9,1.5l0.9,1.5c1.3,2.2,4,3.2,6.5,2.3l1.6-0.6c2-0.8,4.2-0.3,5.7,1.2c0.5,0.5,1,1,1.5,1.5
		c1.5,1.5,2,3.7,1.2,5.7l-0.6,1.6c-0.9,2.4,0,5.2,2.3,6.5l1.5,0.9l1.5,0.9c2.2,1.3,5.1,0.8,6.7-1.3l1.1-1.3c1.3-1.7,3.5-2.4,5.5-1.8
		c0.7,0.2,1.4,0.4,2.1,0.5c2.1,0.5,3.6,2.2,3.9,4.3l0.3,1.7c0.4,2.6,2.6,4.5,5.2,4.5h1.7h1.7c2.6,0,4.8-1.9,5.2-4.5l0.3-1.7
		c0.3-2.1,1.9-3.8,3.9-4.3c0.7-0.2,1.4-0.3,2.1-0.5c2-0.6,4.2,0.1,5.5,1.8l1.1,1.3c1.6,2,4.5,2.6,6.7,1.3l1.5-0.9l1.5-0.9
		c2.2-1.3,3.2-4,2.3-6.5l-0.6-1.6c-0.8-2-0.3-4.2,1.2-5.7c0.5-0.5,1-1,1.5-1.5c1.5-1.5,3.7-2,5.7-1.2l1.6,0.6c2.4,0.9,5.2,0,6.5-2.3
		l0.9-1.5l0.9-1.5c1.3-2.2,0.8-5.1-1.3-6.7l-1.3-1.1c-1.7-1.3-2.4-3.5-1.8-5.5c0.2-0.7,0.4-1.4,0.5-2.1c0.5-2.1,2.2-3.6,4.3-3.9
		l1.7-0.3c2.6-0.4,4.5-2.6,4.5-5.2v-1.7v-1.7C710.7,374,708.8,371.8,706.3,371.5z M654.8,399c-11.4,0-20.6-9.2-20.6-20.6
		c0-11.4,9.2-20.6,20.6-20.6s20.6,9.2,20.6,20.6C675.4,389.8,666.2,399,654.8,399z"/>
</g>
<g>
	<path class="st1" d="M390.7,169.4h-90.9c-5.8,0-10.5,4.7-10.5,10.5v90.9c0,5.8,4.7,10.5,10.5,10.5h90.9c5.8,0,10.5-4.7,10.5-10.5
		v-90.9C401.2,174.1,396.5,169.4,390.7,169.4z"/>
	<path class="st1" d="M444,203.9v42.9c0,19.1,15.5,34.5,34.5,34.5h42.9c19.1,0,34.5-15.5,34.5-34.5v-77.4h-77.4
		C459.5,169.4,444,184.8,444,203.9z"/>
	<path class="st1" d="M654.8,169.4c-30.9,0-56,25.1-56,56v23.6c0,0.1,0,0.1,0,0.2c0,6.8,7.8,10.6,13.3,6.7l42.6-30.4L624.3,268
		c-3.9,5.5-0.1,13.3,6.7,13.3c0.1,0,0.1,0,0.2,0h23.6c30.9,0,56-25.1,56-56v-56H654.8z"/>
</g>
<g>
	<path class="st0" d="M390.7,475.5h-90.9c-5.8,0-10.5,4.7-10.5,10.5v90.9c0,5.8,4.7,10.5,10.5,10.5h90.9c5.8,0,10.5-4.7,10.5-10.5
		V486C401.2,480.2,396.5,475.5,390.7,475.5z"/>
	<path class="st0" d="M539.2,475.5h-76.1c-10.1,0-17.9,8.9-16.6,18.9l12.2,93l84.5-20.6c7.5-1.8,12.8-8.5,12.8-16.2v-58.3
		C556,483,548.5,475.5,539.2,475.5z"/>
	<path class="st0" d="M687.4,479.6l-58.2-2.7c-16.5-0.8-30.3,12.4-30.3,29v45.8c0,13.8,12.2,24.3,25.8,22.3l9.6-1.4l-5.7,27.6
		l28.8-30.9l23.9-3.5c16.9-2.5,29.5-17,29.5-34.1V504C710.7,491,700.4,480.2,687.4,479.6z"/>
</g>
</svg>
