<?xml version="1.0" encoding="utf-8"?>
<!-- Generator: Adobe Illustrator 22.0.1, SVG Export Plug-In . SVG Version: 6.00 Build 0)  -->
<svg version="1.1" id="Слой_1" xmlns="http://www.w3.org/2000/svg" xmlns:xlink="http://www.w3.org/1999/xlink" x="0px" y="0px"
	 viewBox="0 0 790.3 890.9" style="enable-background:new 0 0 790.3 890.9;" xml:space="preserve">
<style type="text/css">
	.st0{fill:#F7AA02;}
	.st1{fill:#43AC4E;}
	.st2{fill:#B5B333;}
</style>
<g>
	<path class="st0" d="M88.9,765.7h-28l-5.8,13.2h-7.7l23.8-52.6h7.4l23.9,52.6h-7.9L88.9,765.7z M86.3,759.6l-11.4-25.7l-11.4,25.8
		L86.3,759.6L86.3,759.6z"/>
	<path class="st0" d="M139.8,745.3h-22.1v33.5h-7.2v-39.9h29.3V745.3z"/>
	<path class="st0" d="M181.3,761.3H149c0.5,3.5,2,6.3,4.6,8.5c2.6,2.1,5.9,3.2,9.8,3.2c4.8,0,8.6-1.6,11.5-4.8l4,4.7
		c-1.8,2.1-4,3.7-6.7,4.8s-5.7,1.7-9,1.7c-4.2,0-7.9-0.9-11.2-2.6c-3.3-1.7-5.8-4.1-7.6-7.3c-1.8-3.1-2.7-6.6-2.7-10.5
		s0.9-7.3,2.6-10.5c1.7-3.1,4.1-5.5,7.1-7.3c3-1.7,6.5-2.6,10.3-2.6s7.2,0.9,10.2,2.6c3,1.7,5.3,4.1,7,7.3c1.7,3.1,2.5,6.7,2.5,10.7
		C181.5,759.7,181.4,760.4,181.3,761.3z M153.1,747.8c-2.3,2.1-3.7,4.9-4.1,8.3h25.6c-0.4-3.4-1.8-6.1-4.1-8.2
		c-2.3-2.1-5.2-3.2-8.7-3.2S155.4,745.7,153.1,747.8z"/>
	<path class="st0" d="M192.7,739h7.2v16.9h22.7V739h7.2v39.9h-7.2v-16.7h-22.7v16.7h-7.2V739z"/>
	<path class="st0" d="M286.4,772.5v15.9h-6.8v-9.6h-35.7v-39.9h7.2v33.5h21.8v-33.5h7.2v33.5L286.4,772.5L286.4,772.5z"/>
	<path class="st0" d="M295.9,729.9c-0.9-0.9-1.4-2-1.4-3.3s0.5-2.4,1.4-3.3c0.9-0.9,2.1-1.4,3.5-1.4s2.6,0.4,3.5,1.3
		c0.9,0.9,1.4,2,1.4,3.3c0,1.4-0.5,2.5-1.4,3.4s-2.1,1.4-3.5,1.4S296.8,730.8,295.9,729.9z M295.8,739h7.2v39.9h-7.2V739z"/>
	<path class="st0" d="M349,739v39.9h-6.5v-12.6h-11.6h-0.8l-8.7,12.6h-7.7l9.7-13.6c-3-0.9-5.3-2.4-6.9-4.5s-2.4-4.7-2.4-7.8
		c0-4.6,1.6-8,4.7-10.4s7.4-3.6,12.9-3.6L349,739L349,739z M323.9,759.1c1.7,1.3,4.2,1.9,7.6,1.9h11.1v-15.7h-10.8
		c-6.9,0-10.4,2.6-10.4,7.9C321.4,755.8,322.3,757.8,323.9,759.1z"/>
	<path class="st0" d="M414.8,741.2c3.1,1.7,5.5,4.1,7.2,7.1c1.7,3.1,2.6,6.6,2.6,10.6s-0.9,7.6-2.6,10.6c-1.7,3.1-4.1,5.5-7.2,7.2
		c-3.1,1.7-6.5,2.6-10.4,2.6c-2.9,0-5.5-0.6-7.9-1.7c-2.4-1.1-4.4-2.7-6.1-4.8v20.6h-7.2V739h6.9v6.3c1.6-2.2,3.6-3.9,6.1-5
		s5.2-1.7,8.1-1.7C408.3,738.6,411.8,739.4,414.8,741.2z M410.7,771.2c2-1.2,3.6-2.8,4.8-5c1.2-2.1,1.8-4.6,1.8-7.3
		c0-2.8-0.6-5.2-1.8-7.3s-2.8-3.8-4.8-4.9c-2-1.2-4.3-1.7-6.9-1.7c-2.5,0-4.8,0.6-6.8,1.8s-3.6,2.8-4.8,4.9
		c-1.2,2.1-1.8,4.5-1.8,7.3s0.6,5.2,1.7,7.3c1.2,2.1,2.8,3.8,4.8,5c2.1,1.2,4.3,1.8,6.8,1.8C406.4,773,408.7,772.4,410.7,771.2z"/>
	<path class="st0" d="M441.4,776.6c-3.2-1.8-5.6-4.2-7.4-7.3c-1.8-3.1-2.7-6.6-2.7-10.5s0.9-7.4,2.7-10.5s4.2-5.5,7.4-7.2
		s6.7-2.6,10.7-2.6s7.5,0.9,10.6,2.6c3.1,1.7,5.6,4.1,7.4,7.2s2.7,6.6,2.7,10.5s-0.9,7.4-2.7,10.5s-4.2,5.5-7.4,7.3
		c-3.1,1.8-6.7,2.6-10.6,2.6C448.1,779.3,444.6,778.4,441.4,776.6z M459,771.2c2-1.2,3.6-2.8,4.8-5c1.2-2.1,1.7-4.6,1.7-7.3
		c0-2.8-0.6-5.2-1.7-7.3c-1.2-2.1-2.7-3.8-4.8-4.9c-2-1.2-4.3-1.7-6.9-1.7c-2.6,0-4.9,0.6-6.9,1.7c-2,1.2-3.6,2.8-4.8,4.9
		c-1.2,2.1-1.8,4.6-1.8,7.3c0,2.8,0.6,5.2,1.8,7.3s2.8,3.8,4.8,5s4.3,1.8,6.9,1.8S457,772.4,459,771.2z"/>
	<path class="st0" d="M510.5,761.5c1.5,1.6,2.2,3.5,2.2,5.8c0,2.4-0.8,4.4-2.4,6.3c-1.6,1.8-3.8,3.3-6.7,4.3c-2.8,1-6,1.5-9.5,1.5
		c-3,0-5.9-0.4-8.7-1.2s-5.4-1.9-7.6-3.3l2.2-5.5c1.9,1.2,4.1,2.1,6.5,2.8c2.5,0.7,4.9,1,7.4,1c3.4,0,6.1-0.6,8.2-1.8
		c2-1.2,3-2.8,3-4.8c0-1.9-0.8-3.3-2.4-4.3c-1.6-1-3.9-1.5-6.9-1.5h-7.3v-5.2h6.8c2.7,0,4.8-0.5,6.4-1.4c1.6-1,2.3-2.3,2.3-3.9
		c0-1.8-0.9-3.2-2.7-4.2s-4.3-1.5-7.4-1.5c-4,0-8.1,1-12.6,3.1l-2-5.6c4.9-2.5,10-3.7,15.3-3.7c3.2,0,6.1,0.5,8.6,1.4
		c2.6,0.9,4.6,2.2,6,3.8c1.5,1.7,2.2,3.5,2.2,5.6c0,2-0.7,3.7-2,5.3s-3.1,2.7-5.3,3.5C507,758.8,509.1,759.9,510.5,761.5z"/>
	<path class="st0" d="M558.6,767.8c0,3.5-1.3,6.2-3.9,8.1c-2.6,1.9-6.6,2.9-11.8,2.9h-19.2v-39.9h18.5c4.7,0,8.4,0.9,11.1,2.7
		c2.7,1.8,4,4.3,4,7.6c0,2.1-0.6,3.9-1.7,5.5c-1.1,1.5-2.7,2.7-4.7,3.5C556,759.4,558.6,762.7,558.6,767.8z M530.8,756.1h10.8
		c2.8,0,4.9-0.5,6.3-1.5c1.4-1,2.1-2.5,2.1-4.4c0-3.8-2.8-5.7-8.4-5.7h-10.8L530.8,756.1L530.8,756.1z M549.1,771.8
		c1.5-1,2.3-2.4,2.3-4.4c0-2.1-0.7-3.6-2.1-4.6c-1.4-1-3.5-1.5-6.5-1.5h-12v12h11.6C545.3,773.3,547.6,772.8,549.1,771.8z"/>
	<path class="st0" d="M569.9,739h7.2v29l24.4-29h6.5v39.9h-7.2v-29l-24.4,29h-6.6L569.9,739L569.9,739z"/>
	<path class="st0" d="M651.8,745.3h-14.6v33.5H630v-33.5h-14.6V739h36.4V745.3z"/>
	<path class="st0" d="M674.6,762h-8.3v16.8h-7.2v-39.9h7.2v16.8h8.4l12.9-16.8h7.7l-15.1,19.2l16.2,20.7h-8.5L674.6,762z"/>
	<path class="st0" d="M737.4,739l-19.3,43.8c-1.7,4.1-3.7,6.9-6,8.6c-2.3,1.7-5,2.5-8.2,2.5c-2,0-3.8-0.3-5.7-0.9
		c-1.8-0.6-3.3-1.5-4.5-2.7l3.1-5.4c2.1,2,4.4,2.9,7.1,2.9c1.8,0,3.2-0.5,4.4-1.4s2.2-2.5,3.2-4.8l1.3-2.8L695.2,739h7.5l13.9,31.9
		l13.8-31.9L737.4,739L737.4,739z"/>
	<path class="st1" d="M184.6,825.1v64.8H99.1v-64.8H114v52.6h20.4v-52.6h15v52.6h20.4v-52.6H184.6z"/>
	<path class="st1" d="M250.9,877.8v12h-50.2V825h48.9v12h-34.1v14.1h30.1v11.7h-30.1v15H250.9z"/>
	<path class="st1" d="M322,825.1v64.8h-14.9v-52.6h-29.2v52.6H263v-64.8H322z"/>
	<path class="st1" d="M388.3,877.8v12h-50.2V825H387v12h-34.1v14.1H383v11.7h-30.1v15H388.3z"/>
	<path class="st1" d="M449.9,837.3h-20.7v52.6h-14.8v-52.6h-20.6v-12.2H450L449.9,837.3L449.9,837.3z"/>
	<path class="st1" d="M459.4,825.1h14.9v64.8h-14.9V825.1z"/>
	<path class="st1" d="M544.3,861.8c2.1,2.7,3.1,5.9,3.1,9.8c0,5.7-2.2,10.2-6.5,13.4s-10.6,4.8-18.6,4.8h-31.9V825h30.2
		c7.5,0,13.4,1.5,17.6,4.3c4.2,2.9,6.3,7,6.3,12.4c0,3.2-0.8,6-2.4,8.5c-1.6,2.4-3.9,4.4-6.8,5.8
		C539.2,857.3,542.2,859.2,544.3,861.8z M505.3,851.9h14c3.3,0,5.7-0.7,7.4-2s2.5-3.3,2.5-5.9c0-2.5-0.8-4.5-2.5-5.8
		c-1.7-1.4-4.1-2-7.4-2h-14V851.9z M532.3,870.4c0-5.4-3.5-8.1-10.5-8.1h-16.5v16.4h16.5C528.8,878.8,532.3,876,532.3,870.4z"/>
	<path class="st1" d="M584.4,863.8H574v26.1h-14.9v-64.8H574v26.2h10.7l17-26.2h15.8l-21.1,31.3l21.8,33.5h-17L584.4,863.8z"/>
	<path class="st1" d="M625.3,825.1h14.9v42.2l30.9-42.2h14.1v64.8h-14.8v-42.1l-31,42.1h-14.2v-64.8H625.3z"/>
</g>
<g>
	<path class="st2" d="M283.1,385.3h-90.9c-5.8,0-10.5,4.7-10.5,10.5v90.9c0,5.8,4.7,10.5,10.5,10.5h90.9c5.8,0,10.5-4.7,10.5-10.5
		v-90.9C293.6,390,288.9,385.3,283.1,385.3z"/>
	<path class="st2" d="M413.2,385.3h-41.6c-19.4,0-35.1,15.7-35.1,35.1V462c0,19.4,15.7,35.1,35.1,35.1h41.6
		c19.4,0,35.1-15.7,35.1-35.1v-41.6C448.4,401.1,432.6,385.3,413.2,385.3z M392.4,457.8c-9.1,0-16.5-7.4-16.5-16.5
		s7.4-16.5,16.5-16.5s16.5,7.4,16.5,16.5S401.5,457.8,392.4,457.8z"/>
	<path class="st2" d="M598.7,434.4l-1.7-0.3c-2.1-0.3-3.8-1.9-4.3-3.9c-0.2-0.7-0.3-1.4-0.5-2.1c-0.6-2,0.1-4.2,1.8-5.5l1.3-1.1
		c2-1.6,2.6-4.5,1.3-6.7l-0.9-1.5l-0.9-1.5c-1.3-2.2-4-3.2-6.5-2.3l-1.6,0.6c-2,0.8-4.2,0.3-5.7-1.2c-0.5-0.5-1-1-1.5-1.5
		c-1.5-1.5-2-3.7-1.2-5.7l0.6-1.6c0.9-2.4,0-5.2-2.3-6.5l-1.5-0.9l-1.5-0.9c-2.2-1.3-5.1-0.8-6.7,1.3l-1.1,1.3
		c-1.3,1.7-3.5,2.4-5.5,1.8c-0.7-0.2-1.4-0.4-2.1-0.5c-2.1-0.5-3.6-2.2-3.9-4.3l-0.3-1.7c-0.4-2.6-2.6-4.5-5.2-4.5h-1.7h-1.7
		c-2.6,0-4.8,1.9-5.2,4.5l-0.3,1.7c-0.3,2.1-1.9,3.8-3.9,4.3c-0.7,0.2-1.4,0.3-2.1,0.5c-2,0.6-4.2-0.1-5.5-1.8l-1.1-1.3
		c-1.6-2-4.5-2.6-6.7-1.3l-1.5,0.9l-1.5,0.9c-2.2,1.3-3.2,4-2.3,6.5l0.6,1.6c0.8,2,0.3,4.2-1.2,5.7c-0.5,0.5-1,1-1.5,1.5
		c-1.5,1.5-3.7,2-5.7,1.2l-1.6-0.6c-2.4-0.9-5.2,0-6.5,2.3l-0.9,1.5l-0.9,1.5c-1.3,2.2-0.8,5.1,1.3,6.7l1.3,1.1
		c1.7,1.3,2.4,3.5,1.8,5.5c-0.2,0.7-0.4,1.4-0.5,2.1c-0.5,2.1-2.2,3.6-4.3,3.9l-1.7,0.3c-2.6,0.4-4.5,2.6-4.5,5.2v1.7v1.7
		c0,2.6,1.9,4.8,4.5,5.2l1.7,0.3c2.1,0.3,3.8,1.9,4.3,3.9c0.2,0.7,0.3,1.4,0.5,2.1c0.6,2-0.1,4.2-1.8,5.5l-1.3,1.1
		c-2,1.6-2.6,4.5-1.3,6.7l0.9,1.5l0.9,1.5c1.3,2.2,4,3.2,6.5,2.3l1.6-0.6c2-0.8,4.2-0.3,5.7,1.2c0.5,0.5,1,1,1.5,1.5
		c1.5,1.5,2,3.7,1.2,5.7l-0.6,1.6c-0.9,2.4,0,5.2,2.3,6.5l1.5,0.9l1.5,0.9c2.2,1.3,5.1,0.8,6.7-1.3l1.1-1.3c1.3-1.7,3.5-2.4,5.5-1.8
		c0.7,0.2,1.4,0.4,2.1,0.5c2.1,0.5,3.6,2.2,3.9,4.3l0.3,1.7c0.4,2.6,2.6,4.5,5.2,4.5h1.7h1.7c2.6,0,4.8-1.9,5.2-4.5l0.3-1.7
		c0.3-2.1,1.9-3.8,3.9-4.3c0.7-0.2,1.4-0.3,2.1-0.5c2-0.6,4.2,0.1,5.5,1.8l1.1,1.3c1.6,2,4.5,2.6,6.7,1.3l1.5-0.9l1.5-0.9
		c2.2-1.3,3.2-4,2.3-6.5l-0.6-1.6c-0.8-2-0.3-4.2,1.2-5.7c0.5-0.5,1-1,1.5-1.5c1.5-1.5,3.7-2,5.7-1.2l1.6,0.6c2.4,0.9,5.2,0,6.5-2.3
		l0.9-1.5l0.9-1.5c1.3-2.2,0.8-5.1-1.3-6.7L594,460c-1.7-1.3-2.4-3.5-1.8-5.5c0.2-0.7,0.4-1.4,0.5-2.1c0.5-2.1,2.2-3.6,4.3-3.9
		l1.7-0.3c2.6-0.4,4.5-2.6,4.5-5.2v-1.7v-1.7C603.1,436.9,601.2,434.7,598.7,434.4z M547.2,461.9c-11.4,0-20.6-9.2-20.6-20.6
		s9.2-20.6,20.6-20.6s20.6,9.2,20.6,20.6C567.8,452.7,558.6,461.9,547.2,461.9z"/>
</g>
<g>
	<path class="st1" d="M283.1,232.3h-90.9c-5.8,0-10.5,4.7-10.5,10.5v90.9c0,5.8,4.7,10.5,10.5,10.5h90.9c5.8,0,10.5-4.7,10.5-10.5
		v-90.9C293.6,237,288.9,232.3,283.1,232.3z"/>
	<path class="st1" d="M336.4,266.8v42.9c0,19.1,15.5,34.5,34.5,34.5h42.9c19.1,0,34.5-15.5,34.5-34.5v-77.4h-77.4
		C351.9,232.3,336.4,247.7,336.4,266.8z"/>
	<path class="st1" d="M547.2,232.3c-30.9,0-56,25.1-56,56v23.6c0,0.1,0,0.1,0,0.2c0,6.8,7.8,10.6,13.3,6.7l42.6-30.4l-30.4,42.5
		c-3.9,5.5-0.1,13.3,6.7,13.3c0.1,0,0.1,0,0.2,0h23.6c30.9,0,56-25.1,56-56v-56h-56V232.3z"/>
</g>
<g>
	<path class="st0" d="M283.1,538.4h-90.9c-5.8,0-10.5,4.7-10.5,10.5v90.9c0,5.8,4.7,10.5,10.5,10.5h90.9c5.8,0,10.5-4.7,10.5-10.5
		v-90.9C293.6,543.1,288.9,538.4,283.1,538.4z"/>
	<path class="st0" d="M431.6,538.4h-76.1c-10.1,0-17.9,8.9-16.6,18.9l12.2,93l84.5-20.6c7.5-1.8,12.8-8.5,12.8-16.2v-58.3
		C448.4,545.9,440.9,538.4,431.6,538.4z"/>
	<path class="st0" d="M579.8,542.5l-58.2-2.7c-16.5-0.8-30.3,12.4-30.3,29v45.8c0,13.8,12.2,24.3,25.8,22.3l9.6-1.4l-5.7,27.6
		l28.8-30.9l23.9-3.5c16.9-2.5,29.5-17,29.5-34.1v-27.7C603.1,553.9,592.8,543.1,579.8,542.5z"/>
</g>
<g>
	<path class="st1" d="M108.5,63.7c-4.6-1.3-8.3-3.1-11.1-5.2l4.9-10.9c2.7,2,5.8,3.5,9.5,4.7c3.7,1.2,7.4,1.8,11,1.8
		c4.1,0,7.1-0.6,9.1-1.8c2-1.2,2.9-2.8,2.9-4.9c0-1.5-0.6-2.7-1.7-3.7c-1.2-1-2.6-1.8-4.5-2.4c-1.8-0.6-4.3-1.2-7.3-2
		c-4.7-1.1-8.6-2.3-11.7-3.4c-3-1.1-5.6-2.9-7.8-5.4c-2.2-2.5-3.2-5.8-3.2-10c0-3.6,1-6.9,2.9-9.8s4.9-5.3,8.9-7
		c3.9-1.7,8.8-2.6,14.5-2.6c4,0,7.9,0.5,11.7,1.4c3.8,0.9,7.1,2.3,10,4.1l-4.5,10.9c-5.8-3.3-11.5-4.9-17.3-4.9c-4,0-7,0.7-8.9,2
		c-1.9,1.3-2.9,3-2.9,5.2c0,2.1,1.1,3.7,3.3,4.8c2.2,1,5.6,2.1,10.2,3.1c4.7,1.1,8.6,2.3,11.7,3.4c3,1.1,5.6,2.9,7.8,5.3
		c2.2,2.4,3.2,5.7,3.2,9.9c0,3.6-1,6.8-3,9.7c-2,2.9-5,5.3-8.9,7c-4,1.7-8.8,2.6-14.5,2.6C117.9,65.7,113.1,65,108.5,63.7z"/>
	<path class="st1" d="M216.3,2.3v62.3h-14.4V39.1h-28.3v25.5h-14.4V2.3h14.4v24.6h28.3V2.3H216.3z"/>
	<path class="st1" d="M279.3,53.1v11.6H231V2.3h47.1v11.6h-32.8v13.5h28.9v11.2h-28.9v14.4H279.3z"/>
	<path class="st1" d="M332.1,5.1c4.1,1.8,7.2,4.5,9.4,7.8c2.2,3.4,3.3,7.4,3.3,12c0,4.6-1.1,8.6-3.3,12c-2.2,3.4-5.3,6-9.4,7.8
		c-4.1,1.8-8.9,2.7-14.4,2.7h-12.5v17.2h-14.4V2.3h27C323.2,2.3,328,3.3,332.1,5.1z M326.8,32.9c2.3-1.9,3.4-4.5,3.4-8
		c0-3.5-1.1-6.2-3.4-8.1c-2.3-1.9-5.5-2.8-9.9-2.8h-11.7v21.6h11.7C321.2,35.7,324.5,34.8,326.8,32.9z"/>
	<path class="st1" d="M403.2,53.1v11.6H355V2.3h47.1v11.6h-32.8v13.5h28.9v11.2h-28.9v14.4H403.2z"/>
	<path class="st1" d="M427.6,14.1h-19.9V2.3H462v11.7h-19.9v50.6h-14.4V14.1z"/>
	<path class="st1" d="M469.7,2.3h14.4v62.3h-14.4V2.3z"/>
	<path class="st1" d="M558.5,2.3l-27,62.3h-14.2L490.4,2.3H506l19,44.5l19.2-44.5H558.5z"/>
	<path class="st1" d="M586.3,40.2l-8.4,8.7v15.8h-14.3V2.3H578v29.1l27.6-29.1h16l-25.8,27.8l27.3,34.5h-16.8L586.3,40.2z"/>
	<path class="st1" d="M667.8,51.3h-28.9l-5.5,13.4h-14.8l27.8-62.3h14.2l27.9,62.3h-15.1L667.8,51.3z M663.2,40.3l-9.9-23.9
		l-9.9,23.9H663.2z"/>
	<path class="st0" d="M0.1,101.1h21.5c5.4,0,10.2,1.1,14.4,3.2c4.2,2.1,7.4,5.1,9.7,9c2.3,3.9,3.5,8.3,3.5,13.3
		c0,5-1.2,9.5-3.5,13.3c-2.3,3.9-5.6,6.9-9.7,9c-4.2,2.1-9,3.2-14.4,3.2H0.1V101.1z M21.2,145.9c4.1,0,7.8-0.8,10.9-2.4
		c3.1-1.6,5.6-3.9,7.3-6.8c1.7-2.9,2.6-6.2,2.6-10c0-3.8-0.9-7.1-2.6-10c-1.7-2.9-4.1-5.1-7.3-6.8c-3.1-1.6-6.8-2.4-10.9-2.4H7.4
		v38.4H21.2z"/>
	<path class="st0" d="M94.2,135.2H62.8c0.4,3.4,1.9,6.1,4.5,8.2c2.6,2.1,5.7,3.1,9.5,3.1c4.6,0,8.3-1.6,11.2-4.7l3.9,4.5
		c-1.8,2-3.9,3.6-6.5,4.7c-2.6,1.1-5.5,1.6-8.7,1.6c-4.1,0-7.7-0.8-10.9-2.5c-3.2-1.7-5.6-4-7.3-7c-1.7-3-2.6-6.4-2.6-10.2
		c0-3.7,0.8-7.1,2.5-10.1c1.7-3,4-5.4,6.9-7c2.9-1.7,6.3-2.5,10-2.5c3.7,0,7,0.8,9.9,2.5c2.9,1.7,5.2,4,6.8,7
		c1.6,3,2.4,6.5,2.4,10.4C94.3,133.7,94.3,134.4,94.2,135.2z M66.8,122.2c-2.3,2-3.6,4.7-4,8h24.8c-0.4-3.3-1.7-5.9-4-8
		c-2.3-2.1-5.1-3.1-8.4-3.1S69.1,120.1,66.8,122.2z"/>
	<path class="st0" d="M137.6,113.6l-16.9,38.7h-7.2l-16.9-38.7h7.3l13.3,31l13.6-31H137.6z"/>
	<path class="st0" d="M177.9,135.2h-31.4c0.4,3.4,1.9,6.1,4.5,8.2c2.6,2.1,5.7,3.1,9.5,3.1c4.6,0,8.3-1.6,11.2-4.7l3.9,4.5
		c-1.8,2-3.9,3.6-6.5,4.7c-2.6,1.1-5.5,1.6-8.7,1.6c-4.1,0-7.7-0.8-10.9-2.5c-3.2-1.7-5.6-4-7.3-7c-1.7-3-2.6-6.4-2.6-10.2
		c0-3.7,0.8-7.1,2.5-10.1c1.7-3,4-5.4,6.9-7c2.9-1.7,6.3-2.5,10-2.5c3.7,0,7,0.8,9.9,2.5c2.9,1.7,5.2,4,6.8,7
		c1.6,3,2.4,6.5,2.4,10.4C178,133.7,178,134.4,177.9,135.2z M150.4,122.2c-2.3,2-3.6,4.7-4,8h24.8c-0.4-3.3-1.7-5.9-4-8
		c-2.3-2.1-5.1-3.1-8.4-3.1S152.7,120.1,150.4,122.2z"/>
	<path class="st0" d="M187.7,98.1h7v54.2h-7V98.1z"/>
	<path class="st0" d="M214.3,150.1c-3.1-1.7-5.5-4.1-7.2-7c-1.7-3-2.6-6.4-2.6-10.2c0-3.8,0.9-7.2,2.6-10.2c1.7-3,4.1-5.3,7.2-7
		c3.1-1.7,6.5-2.5,10.4-2.5c3.8,0,7.3,0.8,10.3,2.5c3,1.7,5.4,4,7.2,7c1.7,3,2.6,6.4,2.6,10.2c0,3.8-0.9,7.2-2.6,10.2
		c-1.7,3-4.1,5.3-7.2,7c-3,1.7-6.5,2.6-10.3,2.6C220.8,152.7,217.3,151.8,214.3,150.1z M231.3,144.8c2-1.1,3.5-2.7,4.6-4.8
		c1.1-2.1,1.7-4.4,1.7-7.1c0-2.7-0.6-5-1.7-7.1c-1.1-2.1-2.7-3.7-4.6-4.8c-2-1.1-4.2-1.7-6.7-1.7s-4.7,0.6-6.7,1.7
		c-2,1.1-3.5,2.7-4.7,4.8c-1.1,2.1-1.7,4.4-1.7,7.1c0,2.7,0.6,5,1.7,7.1c1.1,2.1,2.7,3.7,4.7,4.8c2,1.1,4.2,1.7,6.7,1.7
		S229.4,146,231.3,144.8z"/>
	<path class="st0" d="M285,115.7c3,1.7,5.3,4,7,6.9c1.7,3,2.5,6.4,2.5,10.3c0,3.9-0.8,7.3-2.5,10.3c-1.7,3-4,5.3-7,7
		c-3,1.7-6.3,2.5-10.1,2.5c-2.8,0-5.3-0.5-7.6-1.6c-2.3-1.1-4.3-2.6-5.9-4.7v20h-7v-52.9h6.7v6.1c1.6-2.1,3.5-3.8,5.9-4.9
		c2.4-1.1,5-1.6,7.9-1.6C278.7,113.2,282,114,285,115.7z M281,144.8c2-1.1,3.5-2.7,4.7-4.8c1.1-2.1,1.7-4.4,1.7-7.1
		c0-2.7-0.6-5-1.7-7.1c-1.1-2.1-2.7-3.7-4.7-4.8c-2-1.1-4.2-1.7-6.7-1.7c-2.4,0-4.6,0.6-6.6,1.7c-2,1.1-3.5,2.7-4.7,4.8
		c-1.1,2-1.7,4.4-1.7,7.1c0,2.7,0.6,5,1.7,7.1c1.1,2.1,2.7,3.7,4.7,4.8c2,1.1,4.2,1.7,6.6,1.7C276.8,146.5,279.1,146,281,144.8z"/>
	<path class="st0" d="M364.2,117.4c2.8,2.8,4.3,7,4.3,12.6v22.3h-7v-21.5c0-3.7-0.9-6.6-2.6-8.5c-1.7-1.9-4.2-2.8-7.4-2.8
		c-3.6,0-6.4,1.1-8.5,3.3c-2.1,2.2-3.1,5.4-3.1,9.5v19.9h-7v-21.5c0-3.7-0.9-6.6-2.6-8.5c-1.7-1.9-4.2-2.8-7.4-2.8
		c-3.6,0-6.4,1.1-8.5,3.3c-2.1,2.2-3.1,5.4-3.1,9.5v19.9h-7v-38.7h6.7v5.8c1.4-2,3.3-3.5,5.5-4.6c2.3-1,4.9-1.6,7.8-1.6
		c3,0,5.7,0.6,8,1.8c2.3,1.2,4.1,3,5.4,5.3c1.5-2.2,3.5-4,6.1-5.3c2.6-1.3,5.5-1.9,8.8-1.9C357.5,113.2,361.3,114.6,364.2,117.4z"/>
	<path class="st0" d="M416.4,135.2H385c0.4,3.4,1.9,6.1,4.5,8.2c2.6,2.1,5.7,3.1,9.5,3.1c4.6,0,8.3-1.6,11.2-4.7l3.9,4.5
		c-1.8,2-3.9,3.6-6.5,4.7c-2.6,1.1-5.5,1.6-8.7,1.6c-4.1,0-7.7-0.8-10.9-2.5c-3.2-1.7-5.6-4-7.3-7c-1.7-3-2.6-6.4-2.6-10.2
		c0-3.7,0.8-7.1,2.5-10.1c1.7-3,4-5.4,6.9-7c2.9-1.7,6.3-2.5,10-2.5s7,0.8,9.9,2.5c2.9,1.7,5.2,4,6.8,7c1.6,3,2.4,6.5,2.4,10.4
		C416.6,133.7,416.5,134.4,416.4,135.2z M389,122.2c-2.3,2-3.6,4.7-4,8h24.8c-0.4-3.3-1.7-5.9-4-8c-2.3-2.1-5.1-3.1-8.4-3.1
		C394.1,119.1,391.3,120.1,389,122.2z"/>
	<path class="st0" d="M458.6,117.5c2.9,2.8,4.3,7,4.3,12.5v22.3h-7v-21.5c0-3.7-0.9-6.6-2.7-8.5s-4.4-2.8-7.7-2.8
		c-3.8,0-6.8,1.1-9,3.3c-2.2,2.2-3.3,5.4-3.3,9.5v19.9h-7v-38.7h6.7v5.8c1.4-2,3.3-3.5,5.7-4.6c2.4-1.1,5.1-1.6,8.2-1.6
		C451.8,113.2,455.7,114.6,458.6,117.5z"/>
	<path class="st0" d="M497.7,150c-1,0.9-2.3,1.5-3.8,2c-1.5,0.5-3.1,0.7-4.7,0.7c-3.9,0-6.9-1-9.1-3.1c-2.1-2.1-3.2-5.1-3.2-9v-21.2
		h-6.6v-5.8h6.6v-8.5h7v8.5h11.1v5.8H484v21c0,2.1,0.5,3.7,1.6,4.8c1,1.1,2.5,1.7,4.5,1.7c2.1,0,4-0.6,5.5-1.8L497.7,150z"/>
	<path class="st0" d="M552.2,117.1c2.8,2.6,4.3,6.5,4.3,11.8v23.4h-6.6v-5.1c-1.2,1.8-2.8,3.2-5,4.1c-2.2,0.9-4.7,1.4-7.7,1.4
		c-4.3,0-7.8-1-10.4-3.1c-2.6-2.1-3.9-4.8-3.9-8.2c0-3.4,1.2-6.1,3.7-8.2c2.5-2.1,6.4-3.1,11.8-3.1h11.1v-1.4c0-3-0.9-5.3-2.6-6.9
		s-4.3-2.4-7.7-2.4c-2.3,0-4.5,0.4-6.7,1.1c-2.2,0.8-4,1.8-5.5,3l-2.9-5.3c2-1.6,4.4-2.8,7.2-3.7c2.8-0.9,5.7-1.3,8.8-1.3
		C545.3,113.2,549.4,114.5,552.2,117.1z M545.3,145.5c1.9-1.2,3.4-2.9,4.2-5.1V135h-10.8c-5.9,0-8.9,2-8.9,6c0,1.9,0.8,3.5,2.3,4.6
		c1.5,1.1,3.6,1.7,6.3,1.7C541,147.3,543.3,146.7,545.3,145.5z"/>
	<path class="st0" d="M606.7,113.6V147c0,6.8-1.7,11.8-5,15c-3.4,3.2-8.4,4.9-15,4.9c-3.6,0-7.1-0.5-10.4-1.5c-3.3-1-6-2.4-8-4.3
		l3.4-5.4c1.8,1.6,4,2.8,6.7,3.7c2.7,0.9,5.4,1.4,8.2,1.4c4.5,0,7.9-1.1,10-3.2c2.2-2.1,3.2-5.4,3.2-9.8v-3.1
		c-1.7,2-3.7,3.5-6.1,4.5c-2.4,1-5,1.5-7.8,1.5c-3.7,0-7-0.8-10-2.4c-3-1.6-5.3-3.8-7-6.6c-1.7-2.8-2.6-6.1-2.6-9.7
		c0-3.6,0.9-6.9,2.6-9.7c1.7-2.8,4.1-5,7-6.6c3-1.6,6.3-2.3,10-2.3c2.9,0,5.6,0.5,8.1,1.6c2.5,1.1,4.6,2.7,6.2,4.7v-6H606.7z
		 M593.4,142.9c2-1.1,3.6-2.6,4.7-4.5c1.1-1.9,1.7-4.1,1.7-6.5c0-3.7-1.2-6.8-3.7-9.1c-2.5-2.3-5.7-3.5-9.6-3.5
		c-3.9,0-7.2,1.2-9.6,3.5c-2.5,2.3-3.7,5.3-3.7,9.1c0,2.4,0.6,4.6,1.7,6.5c1.1,1.9,2.7,3.4,4.7,4.5c2,1.1,4.3,1.6,6.9,1.6
		C589.1,144.5,591.4,144,593.4,142.9z"/>
	<path class="st0" d="M654.9,135.2h-31.4c0.4,3.4,1.9,6.1,4.5,8.2c2.6,2.1,5.7,3.1,9.5,3.1c4.6,0,8.3-1.6,11.2-4.7l3.9,4.5
		c-1.8,2-3.9,3.6-6.5,4.7c-2.6,1.1-5.5,1.6-8.7,1.6c-4.1,0-7.7-0.8-10.9-2.5c-3.2-1.7-5.6-4-7.3-7c-1.7-3-2.6-6.4-2.6-10.2
		c0-3.7,0.8-7.1,2.5-10.1c1.7-3,4-5.4,6.9-7c2.9-1.7,6.3-2.5,10-2.5c3.7,0,7,0.8,9.9,2.5c2.9,1.7,5.2,4,6.8,7
		c1.6,3,2.4,6.5,2.4,10.4C655,133.7,655,134.4,654.9,135.2z M627.5,122.2c-2.3,2-3.6,4.7-4,8h24.8c-0.4-3.3-1.7-5.9-4-8
		c-2.3-2.1-5.1-3.1-8.4-3.1C632.6,119.1,629.8,120.1,627.5,122.2z"/>
	<path class="st0" d="M697.1,117.5c2.9,2.8,4.3,7,4.3,12.5v22.3h-7v-21.5c0-3.7-0.9-6.6-2.7-8.5c-1.8-1.9-4.4-2.8-7.7-2.8
		c-3.8,0-6.8,1.1-9,3.3c-2.2,2.2-3.3,5.4-3.3,9.5v19.9h-7v-38.7h6.7v5.8c1.4-2,3.3-3.5,5.7-4.6c2.4-1.1,5.1-1.6,8.2-1.6
		C690.3,113.2,694.2,114.6,697.1,117.5z"/>
	<path class="st0" d="M721,150.1c-3.1-1.7-5.5-4.1-7.3-7c-1.8-3-2.6-6.4-2.6-10.2c0-3.8,0.9-7.2,2.6-10.2c1.8-3,4.2-5.3,7.3-7
		c3.1-1.7,6.6-2.5,10.5-2.5c3.5,0,6.6,0.7,9.4,2.1c2.7,1.4,4.9,3.5,6.4,6.1l-5.3,3.4c-1.2-1.8-2.7-3.2-4.5-4.2
		c-1.8-0.9-3.8-1.4-6-1.4c-2.5,0-4.8,0.6-6.8,1.7c-2,1.1-3.6,2.7-4.7,4.8c-1.1,2.1-1.7,4.4-1.7,7.1c0,2.7,0.6,5.1,1.7,7.2
		c1.1,2.1,2.7,3.7,4.7,4.8c2,1.1,4.3,1.7,6.8,1.7c2.2,0,4.2-0.5,6-1.4c1.8-0.9,3.3-2.3,4.5-4.2l5.3,3.4c-1.5,2.7-3.6,4.7-6.4,6.2
		c-2.8,1.4-5.9,2.2-9.4,2.2C727.6,152.7,724.1,151.8,721,150.1z"/>
	<path class="st0" d="M790.1,113.6l-18.8,42.6c-1.7,3.9-3.6,6.7-5.8,8.3c-2.2,1.6-4.9,2.4-8,2.4c-1.9,0-3.7-0.3-5.5-0.9
		c-1.8-0.6-3.2-1.5-4.4-2.7l3-5.3c2,1.9,4.3,2.8,6.9,2.8c1.7,0,3.1-0.5,4.3-1.4c1.1-0.9,2.2-2.4,3.1-4.6l1.2-2.7l-17.1-38.6h7.3
		l13.5,31l13.4-31H790.1z"/>
</g>
</svg>
