<svg width="20" height="21" viewBox="0 0 20 21" fill="none" xmlns="http://www.w3.org/2000/svg">
<g clip-path="url(#clip0_35_2)">
<path d="M6.37996 16.0564C5.22678 16.0564 4.29199 16.9912 4.29199 18.1443C4.29199 19.2975 5.22682 20.2323 6.37996 20.2323C7.53313 20.2323 8.46792 19.2974 8.46792 18.1443C8.46796 16.9912 7.53313 16.0564 6.37996 16.0564ZM6.37996 19.3043C5.73931 19.3043 5.21999 18.785 5.21999 18.1444C5.21999 17.5037 5.73931 16.9844 6.37996 16.9844C7.0206 16.9844 7.53993 17.5037 7.53993 18.1444C7.53997 18.785 7.0206 19.3043 6.37996 19.3043Z" fill="white"/>
<path d="M15.1959 16.0564C14.0427 16.0564 13.1079 16.9912 13.1079 18.1443C13.1079 19.2975 14.0427 20.2323 15.1959 20.2323C16.349 20.2323 17.2838 19.2974 17.2838 18.1443C17.2838 16.9912 16.3491 16.0564 15.1959 16.0564ZM15.1959 19.3043C14.5552 19.3043 14.0359 18.785 14.0359 18.1444C14.0359 17.5037 14.5552 16.9844 15.1959 16.9844C15.8365 16.9844 16.3558 17.5037 16.3558 18.1444C16.3559 18.785 15.8365 19.3043 15.1959 19.3043Z" fill="white"/>
<path d="M19.9054 3.87649C19.8088 3.77094 19.6766 3.70486 19.5342 3.69087L4.43117 3.48208L4.01358 2.20607C3.71939 1.35308 2.92062 0.777226 2.01838 0.767679H0.463997C0.207731 0.767679 0 0.97541 0 1.23168C0 1.48794 0.207731 1.69567 0.463997 1.69567H2.01838C2.52287 1.70682 2.96711 2.03076 3.13199 2.50768L6.07836 11.3932L5.84639 11.9268C5.58763 12.594 5.66534 13.345 6.05518 13.9452C6.44129 14.5346 7.09086 14.8984 7.79518 14.9196H16.8199C17.0762 14.9196 17.2839 14.7118 17.2839 14.4556C17.2839 14.1993 17.0762 13.9916 16.8199 13.9916H7.79514C7.3974 13.9816 7.03127 13.7724 6.82074 13.4348C6.61257 13.1013 6.5698 12.6904 6.70475 12.3212L6.89037 11.9036L16.6575 10.8828C17.7303 10.7646 18.6129 9.98429 18.8615 8.93396L19.9751 4.27081C20.0253 4.13653 19.9986 3.98551 19.9054 3.87649ZM17.9567 8.72521C17.806 9.40133 17.232 9.90006 16.5415 9.95481L6.89037 10.9524L4.73278 4.41007L18.9542 4.61887L17.9567 8.72521Z" fill="white"/>
</g>
<defs>
<clipPath id="clip0_35_2">
<rect width="20" height="20" fill="white" transform="translate(0 0.5)"/>
</clipPath>
</defs>
</svg>
