<svg width="20" height="20" viewBox="0 0 20 20" fill="none" xmlns="http://www.w3.org/2000/svg">
<g clip-path="url(#clip0_35_33)">
<path d="M19.8104 18.9119L14.6467 13.8308C15.9989 12.3616 16.8297 10.4187 16.8297 8.28068C16.8291 3.7071 13.0619 0 8.41459 0C3.76725 0 0.00012207 3.7071 0.00012207 8.28068C0.00012207 12.8543 3.76725 16.5614 8.41459 16.5614C10.4226 16.5614 12.2642 15.8668 13.7108 14.7122L18.8946 19.8134C19.1471 20.0622 19.5572 20.0622 19.8098 19.8134C20.0629 19.5646 20.0629 19.1607 19.8104 18.9119ZM8.41459 15.2873C4.48243 15.2873 1.29481 12.1504 1.29481 8.28068C1.29481 4.41101 4.48243 1.27403 8.41459 1.27403C12.3468 1.27403 15.5344 4.41101 15.5344 8.28068C15.5344 12.1504 12.3468 15.2873 8.41459 15.2873Z" fill="white"/>
</g>
<defs>
<clipPath id="clip0_35_33">
<rect width="20" height="20" fill="white"/>
</clipPath>
</defs>
</svg>
