<svg width="56" height="44" viewBox="0 0 56 44" fill="none" xmlns="http://www.w3.org/2000/svg">
<path d="M11.3546 0H55.2L44.2454 43.1404H0.400024L11.3546 0Z" fill="#D52F36"/>
<path d="M34.4305 15.3507C33.4281 15.3507 32.5033 15.0187 31.7607 14.4585C30.9089 13.8164 30.297 12.8744 30.0809 11.7887C30.0274 11.5205 29.9985 11.2436 29.9958 10.96H27.1325V18.7838L27.1291 23.0692C27.1291 24.215 26.383 25.1864 25.3488 25.5281C25.0486 25.6272 24.7245 25.6742 24.3869 25.6557C23.9561 25.632 23.5523 25.502 23.2014 25.2921C22.4546 24.8454 21.9483 24.0352 21.9346 23.1083C21.913 21.6597 23.0841 20.4787 24.5317 20.4787C24.8174 20.4787 25.0918 20.5253 25.3488 20.6101V18.4716V17.7029C25.0778 17.6628 24.802 17.6418 24.5231 17.6418C22.9387 17.6418 21.4568 18.3004 20.3975 19.487C19.5969 20.3837 19.1166 21.5277 19.0425 22.7272C18.9454 24.3031 19.5221 25.8011 20.6404 26.9064C20.8047 27.0686 20.9772 27.2192 21.1576 27.3581C22.1164 28.096 23.2885 28.496 24.5231 28.496C24.802 28.496 25.0778 28.4754 25.3488 28.4352C26.502 28.2644 27.5661 27.7365 28.4059 26.9064C29.4377 25.8865 30.0078 24.5326 30.014 23.0915L29.9992 16.692C30.4915 17.0717 31.0297 17.3859 31.6073 17.6298C32.5057 18.0089 33.4583 18.201 34.4387 18.2006V16.1215V15.35C34.4394 15.3507 34.4312 15.3507 34.4305 15.3507Z" fill="white"/>
</svg>
