<svg width="56" height="44" viewBox="0 0 56 44" fill="none" xmlns="http://www.w3.org/2000/svg">
<path d="M11.5546 0H55.4L44.4454 43.1404H0.599976L11.5546 0Z" fill="#D52F36"/>
<g clip-path="url(#clip0_68_428)">
<path d="M35.3107 16.1693C35.1086 15.418 34.5163 14.8258 33.7651 14.6235C32.3929 14.248 26.9038 14.248 26.9038 14.248C26.9038 14.248 21.4149 14.248 20.0426 14.6093C19.3059 14.8114 18.6992 15.4181 18.4971 16.1693C18.136 17.5414 18.136 20.3871 18.136 20.3871C18.136 20.3871 18.136 23.247 18.4971 24.6048C18.6994 25.356 19.2915 25.9482 20.0428 26.1505C21.4293 26.5261 26.904 26.5261 26.904 26.5261C26.904 26.5261 32.3929 26.5261 33.7651 26.1648C34.5164 25.9626 35.1086 25.3704 35.3109 24.6193C35.6719 23.247 35.6719 20.4015 35.6719 20.4015C35.6719 20.4015 35.6864 17.5414 35.3107 16.1693ZM25.1562 23.016V17.7581L29.7206 20.3871L25.1562 23.016Z" fill="white"/>
</g>
<defs>
<clipPath id="clip0_68_428">
<rect width="17.536" height="17.536" fill="white" transform="translate(18.136 12.0562)"/>
</clipPath>
</defs>
</svg>
