<svg width="25" height="24" viewBox="0 0 25 24" fill="none" xmlns="http://www.w3.org/2000/svg">
<path d="M16.7656 16.594C16.7657 16.7663 16.7318 16.937 16.6658 17.0963C16.5999 17.2556 16.5032 17.4003 16.3813 17.5221C16.2594 17.644 16.1147 17.7407 15.9555 17.8066C15.7962 17.8726 15.6255 17.9065 15.4531 17.9065H9.54688C9.19892 17.906 8.86535 17.7676 8.6193 17.5215C8.37326 17.2755 8.23483 16.9419 8.23438 16.594H3.96875C3.38441 16.5948 2.81312 16.4212 2.32812 16.0952V19.219C2.32829 19.654 2.50119 20.0712 2.80883 20.3789C3.11647 20.6865 3.53368 20.8594 3.96875 20.8596H21.0312C21.2468 20.8598 21.4602 20.8175 21.6593 20.7351C21.8585 20.6527 22.0394 20.5319 22.1918 20.3795C22.3442 20.2271 22.465 20.0462 22.5474 19.847C22.6298 19.6479 22.6721 19.4345 22.6719 19.219V16.0952C22.1869 16.4211 21.6156 16.5948 21.0312 16.594H16.7656Z" fill="white"/>
<path d="M15.4551 13.9685H9.54883V16.5935H15.4551V13.9685Z" fill="white"/>
<path d="M21.0312 6.42203H16.767L16.7671 6.42163V5.11057C16.7665 4.58825 16.5588 4.08747 16.1895 3.71811C15.8201 3.34875 15.3194 3.14098 14.797 3.14038H10.206C9.68365 3.14095 9.18286 3.34871 8.8135 3.71807C8.44414 4.08743 8.23639 4.58822 8.23582 5.11057V6.42163L8.23586 6.42203H3.96875C3.53368 6.42219 3.11647 6.59509 2.80883 6.90273C2.50118 7.21038 2.32828 7.62759 2.32812 8.06266V13.6408C2.32829 14.0759 2.50119 14.4931 2.80883 14.8007C3.11647 15.1083 3.53368 15.2812 3.96875 15.2814H8.23438V13.9689C8.23483 13.621 8.37326 13.2874 8.6193 13.0413C8.86534 12.7953 9.19892 12.6569 9.54688 12.6564H15.4531C15.6255 12.6564 15.7962 12.6903 15.9555 12.7562C16.1147 12.8222 16.2594 12.9188 16.3813 13.0407C16.5032 13.1626 16.5999 13.3073 16.6658 13.4666C16.7318 13.6258 16.7657 13.7965 16.7656 13.9689V15.2814H21.0312C21.2468 15.2816 21.4602 15.2393 21.6593 15.1569C21.8585 15.0745 22.0394 14.9537 22.1918 14.8013C22.3442 14.6489 22.465 14.468 22.5474 14.2689C22.6298 14.0697 22.6721 13.8563 22.6719 13.6408V8.06266C22.6721 7.84715 22.6298 7.63372 22.5474 7.43459C22.465 7.23545 22.3442 7.05451 22.1918 6.90212C22.0394 6.74973 21.8585 6.62889 21.6593 6.54652C21.4602 6.46414 21.2468 6.42184 21.0312 6.42203ZM9.54828 6.42203L9.54832 6.42163V5.11057C9.54855 4.93621 9.61791 4.76906 9.7412 4.64576C9.8645 4.52247 10.0317 4.45311 10.206 4.45288H14.797C14.9714 4.45311 15.1385 4.52248 15.2618 4.64578C15.3851 4.76908 15.4544 4.93623 15.4546 5.11057V6.42163L15.4546 6.42203H9.54828Z" fill="white"/>
</svg>
