<svg width="25" height="24" viewBox="0 0 25 24" fill="none" xmlns="http://www.w3.org/2000/svg">
<path d="M12.5 14C15.2614 14 17.5 11.3137 17.5 8C17.5 4.68629 15.2614 2 12.5 2C9.73858 2 7.5 4.68629 7.5 8C7.5 11.3137 9.73858 14 12.5 14Z" fill="white"/>
<path d="M22.3002 19.0999C21.4002 17.2999 19.7002 15.7999 17.5002 14.8999C16.9002 14.6999 16.2002 14.6999 15.7002 14.9999C14.7002 15.5999 13.7002 15.8999 12.5002 15.8999C11.3002 15.8999 10.3002 15.5999 9.30022 14.9999C8.80022 14.7999 8.10022 14.6999 7.50022 14.9999C5.30022 15.8999 3.60022 17.3999 2.70022 19.1999C2.00022 20.4999 3.10022 21.9999 4.60022 21.9999H20.4002C21.9002 21.9999 23.0002 20.4999 22.3002 19.0999Z" fill="white"/>
</svg>
