<svg width="53" height="37" viewBox="0 0 53 37" fill="none" xmlns="http://www.w3.org/2000/svg">
<path d="M21.6 0.999998C22.3667 0.999998 22.75 1.38333 22.75 2.15V2.9C22.75 3.1 22.7 3.28333 22.6 3.45C22.5333 3.58333 22.45 3.71667 22.35 3.85L11.8 16.2H12.8C14.5 16.2 16.05 16.4 17.45 16.8C18.8833 17.2 20.1 17.8167 21.1 18.65C22.1 19.45 22.8667 20.4833 23.4 21.75C23.9667 22.9833 24.25 24.4333 24.25 26.1C24.25 27.7667 23.95 29.25 23.35 30.55C22.75 31.8167 21.9167 32.9 20.85 33.8C19.7833 34.6667 18.5167 35.3333 17.05 35.8C15.5833 36.2667 14 36.5 12.3 36.5C10.4333 36.5 8.76667 36.2667 7.3 35.8C5.83333 35.3 4.58333 34.65 3.55 33.85C2.55 33.05 1.76667 32.15 1.2 31.15C0.666667 30.1167 0.383333 29.05 0.35 27.95C0.35 27.65 0.45 27.4167 0.65 27.25C0.85 27.0833 1.1 27 1.4 27H2.1C2.36667 27 2.61667 27.0667 2.85 27.2C3.11667 27.3333 3.31667 27.65 3.45 28.15C3.71667 29.25 4.15 30.15 4.75 30.85C5.38333 31.5167 6.1 32.05 6.9 32.45C7.73333 32.85 8.61667 33.1333 9.55 33.3C10.4833 33.4333 11.4 33.5 12.3 33.5C13.6 33.5 14.7833 33.35 15.85 33.05C16.9167 32.75 17.8333 32.3 18.6 31.7C19.4 31.0667 20.0167 30.2833 20.45 29.35C20.8833 28.4167 21.1 27.3333 21.1 26.1C21.1 23.6333 20.35 21.8667 18.85 20.8C17.3833 19.7333 15.3667 19.2 12.8 19.2H8.4C7.66667 19.2 7.3 18.8333 7.3 18.1V17.35C7.3 17.0833 7.33333 16.8667 7.4 16.7C7.5 16.5 7.61667 16.3167 7.75 16.15L18.05 4H2.95C2.21667 4 1.85 3.63333 1.85 2.9V2.15C1.85 1.38333 2.21667 0.999998 2.95 0.999998H21.6ZM30.9586 11.85C30.2586 11.85 29.9086 11.5333 29.9086 10.9C29.9419 9.76667 30.1753 8.58333 30.6086 7.35C31.0419 6.11667 31.6919 5 32.5586 4C33.4586 2.96667 34.5919 2.13333 35.9586 1.5C37.3253 0.833331 38.9586 0.499998 40.8586 0.499998C42.7586 0.499998 44.3753 0.783332 45.7086 1.35C47.0419 1.91666 48.1253 2.66666 48.9586 3.6C49.8253 4.53333 50.4419 5.61667 50.8086 6.85C51.2086 8.08333 51.4086 9.35 51.4086 10.65C51.4086 12.7167 50.9586 14.55 50.0586 16.15C49.1586 17.75 47.7919 19.4 45.9586 21.1L34.2586 33H51.0086C51.7753 33 52.1586 33.3833 52.1586 34.15V34.9C52.1586 35.6333 51.7753 36 51.0086 36H30.5086C29.7753 36 29.4086 35.6333 29.4086 34.9V34.15C29.4086 33.8167 29.4919 33.5 29.6586 33.2C29.8586 32.8667 30.1919 32.4833 30.6586 32.05L43.6086 19.1C44.5419 18.2333 45.3086 17.45 45.9086 16.75C46.5086 16.05 46.9753 15.3833 47.3086 14.75C47.6753 14.0833 47.9253 13.4333 48.0586 12.8C48.1919 12.1333 48.2586 11.4167 48.2586 10.65C48.2586 8.41667 47.6253 6.66667 46.3586 5.4C45.0919 4.13333 43.2586 3.5 40.8586 3.5C38.5586 3.5 36.7586 4.16667 35.4586 5.5C34.1586 6.8 33.3753 8.53333 33.1086 10.7C33.0419 11.1 32.8753 11.4 32.6086 11.6C32.3753 11.7667 32.1586 11.85 31.9586 11.85H30.9586Z" fill="white"/>
</svg>
