<svg width="172" height="55" viewBox="0 0 172 55" fill="none" xmlns="http://www.w3.org/2000/svg">
<g clip-path="url(#clip0)">
<path d="M34.6151 14.8384C36.0784 14.8384 37.2646 16.013 37.2646 17.4618C37.2646 18.9106 36.0784 20.0852 34.6151 20.0852H25.128C22.2014 20.0852 19.8289 22.4342 19.8289 25.3319V39.0367C19.8289 39.1864 19.8341 39.336 19.8444 39.4854C20.0947 43.099 23.2562 45.8275 26.9059 45.5797C33.5044 45.1317 38.1597 42.7142 41.1284 38.3051C41.9401 37.0996 43.5851 36.7739 44.8027 37.5776C46.0202 38.3812 46.3492 40.01 45.5375 41.2155C41.607 47.053 35.4316 50.2599 27.2684 50.8141C22.7809 51.1188 18.7034 48.9237 16.4261 45.4285C15.6385 42.7109 17.3787 39.5629 19.3588 37.6024C17.668 38.7185 16.1412 39.9969 14.7783 41.4376C14.6695 40.9195 14.5953 40.3874 14.5577 39.8443C14.5391 39.5755 14.5298 39.3061 14.5298 39.0367V25.3319C14.5298 19.5365 19.2748 14.8384 25.128 14.8384H34.6151Z" fill="white"/>
<path d="M45.0424 23.2162C45.0424 29.5539 43.9676 33.8052 41.0862 38.3699C40.3106 39.5986 40.6878 41.217 41.9287 41.9849C43.1696 42.7528 44.8042 42.3793 45.5798 41.1507C49.0243 35.694 50.3415 30.4837 50.3415 23.2162V3.07565C50.3415 1.28372 48.5766 0.0388695 46.8884 0.57555L46.7079 0.639925C44.765 1.4094 39.8731 1.86579 32.3428 1.8899L26.4955 1.89091C11.8624 1.89091 0 13.6361 0 28.1245V51.9885C0 53.4374 1.18624 54.6119 2.64955 54.6119C4.11286 54.6119 5.2991 53.4374 5.2991 51.9885V28.1245C5.2991 16.5338 14.7891 7.13762 26.4955 7.13762H31.7091C37.2516 7.13762 41.5272 6.92928 44.627 6.47769L45.0424 6.41459V23.2162Z" fill="white"/>
<path d="M32.4356 27.7859C27.0172 27.7859 21.6539 29.6445 16.3864 33.2953C11.2477 36.8569 5.95853 42.5925 0.466213 50.5023C-0.362792 51.6962 -0.057319 53.3295 1.14851 54.1503C2.35433 54.9711 4.00389 54.6686 4.83289 53.4747C9.99576 46.0393 14.8775 40.7456 19.4253 37.5936C23.8443 34.5309 28.1676 33.0327 32.4356 33.0327C33.8989 33.0327 35.0852 31.8581 35.0852 30.4093C35.0852 28.9605 33.8989 27.7859 32.4356 27.7859Z" fill="white"/>
<path d="M111.668 8.38163C113.289 8.38163 114.74 8.73888 116.01 9.45557C117.281 10.1724 118.284 11.1657 119.012 12.4276C119.691 13.606 120.053 14.951 120.098 16.4545L120.103 16.7791V22.8599L120.097 23.1845C120.05 24.6312 119.695 25.9602 119.032 27.1641C118.316 28.4633 117.316 29.4994 116.038 30.2648C114.754 31.0335 113.275 31.4167 111.611 31.4167C110.179 31.4167 108.832 31.1374 107.576 30.5787C106.312 30.0161 105.238 29.1904 104.355 28.0976C104.009 27.6515 103.872 27.1554 103.973 26.6454C104.07 26.1549 104.345 25.7516 104.782 25.4559C105.251 25.1476 105.766 25.0395 106.293 25.146C106.804 25.2493 107.228 25.5148 107.533 25.9152C107.989 26.4806 108.562 26.921 109.26 27.2395C109.96 27.559 110.761 27.7203 111.668 27.7203C112.481 27.7203 113.224 27.5302 113.905 27.1488C114.51 26.8109 115.003 26.3269 115.386 25.6975L115.51 25.4824L115.613 25.2806C115.854 24.7778 116.012 24.1986 116.085 23.5416L116.111 23.2552L116.122 23.0359L116.066 23.0963C115.855 23.3119 115.63 23.513 115.394 23.6996L115.153 23.8812L114.904 24.0532C113.797 24.7834 112.524 25.1485 111.098 25.1485C109.566 25.1485 108.199 24.7878 107.01 24.0648C105.826 23.3446 104.893 22.3489 104.216 21.0868C103.542 19.8281 103.206 18.3895 103.206 16.7791C103.206 15.144 103.568 13.6902 104.296 12.4276C105.024 11.1657 106.027 10.1724 107.298 9.45557C108.569 8.7387 110.029 8.38163 111.668 8.38163ZM146.508 8.38163C147.836 8.38163 149.024 8.59166 150.069 9.01521C151.126 9.44419 151.977 10.0445 152.598 10.7996C152.962 11.2091 153.143 11.6701 153.115 12.1607C153.086 12.6683 152.833 13.1003 152.374 13.4383C151.937 13.7343 151.419 13.8283 150.855 13.7272C150.329 13.6329 149.874 13.4151 149.499 13.0696C149.087 12.6802 148.652 12.4183 148.19 12.2771C147.698 12.1267 147.118 12.05 146.451 12.05C145.698 12.05 145.077 12.1732 144.583 12.4125C144.195 12.6005 144.042 12.8172 144.042 13.125C144.042 13.3491 144.099 13.5416 144.216 13.717C144.32 13.8732 144.585 14.0539 145.018 14.2291C145.465 14.4103 146.124 14.5938 146.985 14.7752L147.25 14.8296C148.728 15.1207 149.906 15.493 150.79 15.9533C151.703 16.429 152.376 16.9964 152.798 17.6635C153.22 18.3307 153.43 19.0989 153.43 19.9554C153.43 20.9317 153.163 21.8222 152.632 22.6123C152.103 23.3997 151.332 24.0214 150.334 24.4769C149.347 24.9273 148.138 25.1485 146.708 25.1485C145.31 25.1485 144.012 24.9361 142.814 24.51C141.607 24.0802 140.654 23.527 139.946 22.8296C139.543 22.4057 139.364 21.8918 139.434 21.3318C139.501 20.7894 139.77 20.3343 140.208 20.0044C140.705 19.613 141.234 19.4349 141.774 19.5032C142.225 19.5602 142.626 19.7467 142.967 20.0597L143.092 20.183C143.351 20.4685 143.803 20.7582 144.446 21.037C145.083 21.313 145.797 21.4521 146.594 21.4521C147.597 21.4521 148.337 21.2957 148.81 21.0051C149.231 20.7466 149.419 20.4597 149.431 20.1044C149.443 19.7471 149.27 19.4358 148.855 19.1314C148.384 18.7856 147.436 18.4726 146.024 18.2229C144.011 17.8301 142.527 17.2316 141.571 16.4036C140.579 15.5448 140.071 14.4672 140.071 13.2093C140.071 12.1138 140.407 11.182 141.079 10.4433C141.717 9.74065 142.534 9.21844 143.519 8.87786C144.475 8.54706 145.473 8.38163 146.508 8.38163ZM92.8933 8.35353C94.3002 8.35353 95.5703 8.65239 96.6951 9.25211C97.8319 9.85831 98.731 10.7491 99.3842 11.9135C99.9921 12.9971 100.313 14.2966 100.353 15.806L100.357 16.1326L100.357 23.072L100.349 23.249C100.307 23.731 100.111 24.1517 99.7698 24.4874C99.3816 24.8699 98.8851 25.0642 98.3147 25.0642C97.7444 25.0642 97.2479 24.8699 96.8597 24.4874C96.5094 24.1424 96.3138 23.7096 96.2781 23.2146L96.2722 23.0473L96.2723 16.1418L96.2683 15.8883C96.2408 15.0309 96.0663 14.3416 95.7541 13.8143C95.4123 13.2371 94.9606 12.8158 94.3902 12.5388C93.7986 12.2515 93.1115 12.1062 92.3227 12.1062C91.612 12.1062 90.9785 12.2458 90.4151 12.5233C89.9237 12.7653 89.527 13.0739 89.2268 13.4397L89.1041 13.6L88.9952 13.7639C88.8128 14.0615 88.6989 14.3873 88.6537 14.7349L88.6367 14.9104L88.6299 15.1207L88.6295 23.0712L88.6217 23.2473C88.5813 23.7258 88.3931 24.1444 88.064 24.4802C87.6826 24.8693 87.1778 25.0642 86.5874 25.0642C86.0171 25.0642 85.5206 24.8699 85.1324 24.4874C84.7821 24.1424 84.5865 23.7096 84.5508 23.2146L84.5449 23.0473L84.5454 10.4872L84.5534 10.3047C84.5952 9.80728 84.7925 9.37985 85.1397 9.04961C85.5278 8.68051 86.0212 8.49407 86.5874 8.49407C87.1151 8.49407 87.5742 8.64551 87.9541 8.96564L88.0778 9.07862L88.1917 9.20429C88.257 9.28366 88.3148 9.36728 88.3654 9.45491L88.4358 9.58931L88.4794 9.69419L88.6893 9.55207L88.8179 9.47053L88.9488 9.39123L89.2177 9.23931C90.314 8.64838 91.5422 8.35353 92.8933 8.35353ZM157.979 1.91669C158.506 1.91669 158.965 2.06813 159.345 2.38826L159.469 2.50124L159.583 2.62691C159.844 2.94438 159.987 3.32997 160.016 3.7672L160.021 3.93355L160.021 9.59252L160.08 9.55207L160.209 9.47053L160.34 9.39123L160.609 9.23931C161.705 8.64838 162.933 8.35353 164.284 8.35353C165.691 8.35353 166.961 8.65239 168.086 9.25211C169.223 9.85831 170.122 10.7491 170.775 11.9135C171.383 12.9971 171.704 14.2966 171.744 15.806L171.748 16.1326L171.748 23.072L171.74 23.249C171.698 23.731 171.502 24.1517 171.161 24.4874C170.773 24.8699 170.276 25.0642 169.706 25.0642C169.136 25.0642 168.639 24.8699 168.251 24.4874C167.901 24.1424 167.705 23.7096 167.669 23.2146L167.663 23.0473L167.663 16.1418L167.659 15.8883C167.632 15.0309 167.457 14.3416 167.145 13.8143C166.803 13.2371 166.352 12.8158 165.781 12.5388C165.19 12.2515 164.503 12.1062 163.714 12.1062C163.003 12.1062 162.37 12.2458 161.806 12.5233C161.315 12.7653 160.918 13.0739 160.618 13.4397L160.495 13.6L160.386 13.7639C160.204 14.0615 160.09 14.3873 160.045 14.7349L160.028 14.9104L160.021 15.1207L160.021 23.0712L160.013 23.2473C159.972 23.7258 159.784 24.1444 159.455 24.4802C159.074 24.8693 158.569 25.0642 157.979 25.0642C157.408 25.0642 156.912 24.8699 156.523 24.4874C156.173 24.1424 155.978 23.7096 155.942 23.2146L155.936 23.0473L155.936 3.90982L155.945 3.72732C155.986 3.2299 156.184 2.80247 156.531 2.47223C156.919 2.10313 157.412 1.91669 157.979 1.91669ZM134.153 8.49407C134.739 8.49407 135.241 8.68104 135.622 9.05675C135.966 9.39575 136.155 9.83209 136.19 10.3393L136.195 10.5109L136.195 23.0431L136.187 23.2192C136.147 23.6977 135.959 24.1163 135.63 24.4521C135.248 24.8412 134.743 25.0361 134.153 25.0361C133.583 25.0361 133.086 24.8417 132.698 24.4593C132.348 24.1143 132.152 23.6815 132.116 23.1865L132.11 23.0192L132.111 10.4872L132.119 10.3047C132.161 9.80728 132.358 9.37985 132.705 9.04961C133.093 8.68051 133.587 8.49407 134.153 8.49407ZM124.708 1.91669C125.277 1.91669 125.769 2.10516 126.149 2.47937C126.492 2.817 126.682 3.24549 126.717 3.73869L126.722 3.90544L126.722 19.2401L126.727 19.4536C126.749 19.9559 126.856 20.3597 127.041 20.6716C127.187 20.9186 127.327 21.0296 127.49 21.0535L127.562 21.0586L128.301 21.0591L128.468 21.0671C128.931 21.109 129.331 21.3056 129.639 21.6451C129.978 22.0195 130.146 22.4966 130.146 23.0473C130.146 23.65 129.873 24.1604 129.363 24.5302C128.946 24.833 128.436 24.9972 127.844 25.0299L127.619 25.0361H127.547L127.306 25.0298C126.452 24.9871 125.679 24.7284 124.999 24.256C124.265 23.7456 123.695 23.0508 123.291 22.1815C122.932 21.4094 122.736 20.5401 122.7 19.5771L122.694 19.2527L122.695 3.88153L122.703 3.70552C122.743 3.22517 122.934 2.80817 123.268 2.47937C123.647 2.10516 124.139 1.91669 124.708 1.91669ZM79.8468 1.91709L80.0298 1.92432C80.525 1.96195 80.952 2.14 81.2866 2.45792C81.6729 2.82485 81.8675 3.31087 81.8675 3.87734C81.8675 4.42991 81.6689 4.9051 81.2786 5.26211C80.94 5.57183 80.5115 5.74153 80.0145 5.77542L79.825 5.78177L68.9981 5.78169V11.445L76.6225 11.4459L76.8055 11.4531C77.3007 11.4907 77.7277 11.6688 78.0623 11.9867C78.447 12.352 78.6432 12.8284 78.6432 13.378C78.6432 13.9276 78.447 14.4039 78.0623 14.7693C77.7192 15.0952 77.2813 15.2729 76.7728 15.3052L76.6006 15.3105L68.9981 15.31V21.1709L79.846 21.1714L80.0282 21.1783C80.5198 21.2142 80.944 21.3846 81.2786 21.6906C81.6689 22.0477 81.8675 22.5228 81.8675 23.0754C81.8675 23.6419 81.6729 24.1279 81.2866 24.4948C80.9435 24.8208 80.5056 24.9984 79.9971 25.0307L79.825 25.0361L66.9025 25.0355L66.7224 25.0272C66.2343 24.9846 65.8056 24.7872 65.4584 24.4453C65.1006 24.0928 64.8995 23.6557 64.8628 23.1589L64.8567 22.9911L64.8572 3.93714L64.8655 3.75369C64.9088 3.25476 65.1115 2.82367 65.4655 2.48652C65.8224 2.14673 66.2615 1.957 66.7596 1.92245L66.9277 1.91669L79.8468 1.91709ZM111.668 12.0781C110.782 12.0781 110.011 12.2762 109.344 12.6706C108.674 13.0664 108.149 13.6126 107.761 14.3179C107.373 15.0256 107.177 15.8431 107.177 16.7791C107.177 17.7144 107.372 18.5263 107.76 19.2237C108.147 19.9206 108.673 20.4631 109.344 20.8595C110.011 21.2539 110.782 21.4521 111.668 21.4521C112.555 21.4521 113.326 21.2539 113.993 20.8595C114.663 20.4639 115.182 19.9231 115.56 19.2284C115.94 18.5299 116.132 17.7163 116.132 16.7791C116.132 15.8412 115.94 15.022 115.559 14.3132C115.181 13.61 114.661 13.0656 113.993 12.6706C113.326 12.2762 112.555 12.0781 111.668 12.0781ZM134.153 2.2821C134.822 2.2821 135.413 2.52612 135.893 2.99938C136.375 3.47355 136.623 4.05798 136.623 4.72059C136.623 5.3832 136.375 5.96763 135.893 6.4418C135.413 6.91506 134.822 7.15908 134.153 7.15908C133.484 7.15908 132.893 6.91506 132.413 6.4418C131.931 5.96763 131.682 5.3832 131.682 4.72059C131.682 4.05798 131.931 3.47355 132.413 2.99938C132.893 2.52612 133.484 2.2821 134.153 2.2821Z" fill="#262A4C"/>
<path d="M105.342 37.6757C106.924 37.6757 108.301 38.0334 109.459 38.7534C110.614 39.4717 111.499 40.4637 112.105 41.7184C112.703 42.9568 113 44.3756 113 45.9692C113 46.4292 112.854 46.8375 112.553 47.1823L112.433 47.3086L112.316 47.4113C112.02 47.6463 111.669 47.7781 111.277 47.8074L111.107 47.8137L101.044 47.8133L101.112 48.0189C101.153 48.1314 101.198 48.2418 101.247 48.3501L101.323 48.5109L101.45 48.7464C101.871 49.4783 102.45 50.0537 103.193 50.4799C103.934 50.9048 104.789 51.1183 105.768 51.1183C106.285 51.1183 106.819 51.0207 107.372 50.8231C107.935 50.6223 108.379 50.3958 108.711 50.1448C109.09 49.8642 109.514 49.7129 109.968 49.6998C110.445 49.6861 110.876 49.836 111.243 50.1495C111.675 50.5338 111.921 50.989 111.949 51.4979C111.979 52.0427 111.736 52.5182 111.277 52.8722C110.577 53.4333 109.716 53.8854 108.698 54.2313C107.683 54.5762 106.706 54.75 105.768 54.75C104.099 54.75 102.604 54.3868 101.292 53.6583C99.9785 52.9285 98.9454 51.9168 98.2014 50.6309C97.4575 49.3453 97.0867 47.874 97.0867 46.2272C97.0867 44.5664 97.4359 43.0901 98.1377 41.807C98.8413 40.5205 99.8201 39.5067 101.067 38.7744C102.315 38.0413 103.744 37.6757 105.342 37.6757ZM122.977 37.6757C124.56 37.6757 125.936 38.0334 127.094 38.7534C128.25 39.4717 129.134 40.4637 129.74 41.7184C130.339 42.9568 130.636 44.3756 130.636 45.9692C130.636 46.4292 130.49 46.8375 130.189 47.1823L130.069 47.3086L129.951 47.4113C129.656 47.6463 129.305 47.7781 128.913 47.8074L128.742 47.8137L118.68 47.8133L118.748 48.0189C118.789 48.1314 118.833 48.2418 118.882 48.3501L118.959 48.5109L119.085 48.7464C119.507 49.4783 120.085 50.0537 120.829 50.4799C121.57 50.9048 122.424 51.1183 123.403 51.1183C123.921 51.1183 124.455 51.0207 125.008 50.8231C125.57 50.6223 126.015 50.3958 126.347 50.1448C126.726 49.8642 127.149 49.7129 127.604 49.6998C128.08 49.6861 128.512 49.836 128.879 50.1495C129.31 50.5338 129.556 50.989 129.584 51.4979C129.614 52.0427 129.371 52.5182 128.912 52.8722C128.212 53.4333 127.352 53.8854 126.334 54.2313C125.319 54.5762 124.342 54.75 123.403 54.75C121.734 54.75 120.239 54.3868 118.928 53.6583C117.614 52.9285 116.581 51.9168 115.837 50.6309C115.093 49.3453 114.722 47.874 114.722 46.2272C114.722 44.5664 115.072 43.0901 115.773 41.807C116.477 40.5205 117.456 39.5067 118.703 38.7744C119.951 38.0413 121.379 37.6757 122.977 37.6757ZM80.3468 31.0838L80.5181 31.0915C80.9884 31.1314 81.3975 31.3183 81.7207 31.6444C82.0877 32.0148 82.2728 32.4923 82.2728 33.0424C82.2728 33.5376 82.1228 33.9739 81.8102 34.3407L81.6999 34.4604L81.5784 34.5705C81.2738 34.822 80.9089 34.9634 80.5001 34.9948L80.3223 35.0016L74.8031 35.0008L74.8033 52.5865L74.795 52.7668C74.7521 53.2548 74.5536 53.6836 74.2092 54.0312C73.8139 54.4302 73.3125 54.6353 72.7398 54.6353C72.2244 54.6353 71.7667 54.4692 71.3785 54.1307L71.2517 54.0114L71.1336 53.8796C70.8631 53.5493 70.7117 53.1594 70.6814 52.726L70.6758 52.5616L70.6751 35.0008L65.1044 35.0011L64.9331 34.9934C64.4629 34.9535 64.0537 34.7666 63.7305 34.4405C63.3636 34.0701 63.1785 33.5926 63.1785 33.0424C63.1785 32.4923 63.3636 32.0148 63.7305 31.6444C64.0625 31.3094 64.4831 31.1229 64.9658 31.089L65.1289 31.0833L80.3468 31.0838ZM92.2782 37.6183C93.5204 37.6183 94.4761 37.8285 95.1474 38.2764C95.8987 38.7776 96.2271 39.4626 96.0336 40.2138C95.9525 40.5958 95.7849 40.912 95.5244 41.144C95.2835 41.3585 95.0003 41.4977 94.6852 41.5556C94.4517 41.5984 94.2075 41.5987 93.9622 41.5604L93.7782 41.5246C92.6432 41.2919 91.6368 41.2742 90.7568 41.4658C89.9767 41.6356 89.3617 41.9307 88.9097 42.3384L88.779 42.4641L88.6668 42.586C88.3562 42.9454 88.1727 43.3729 88.115 43.8728L88.0993 44.0637L88.0945 44.2495L88.0942 52.6381L88.0876 52.8255C88.053 53.3314 87.8864 53.7575 87.5788 54.0803C87.22 54.457 86.7103 54.6353 86.0873 54.6353C85.4894 54.6353 84.9914 54.4655 84.6261 54.111C84.2919 53.7866 84.1169 53.3421 84.0853 52.8023L84.08 52.6189L84.0804 39.7868L84.0873 39.5986C84.1235 39.089 84.298 38.6599 84.6179 38.3371C84.9833 37.9683 85.4852 37.7903 86.0873 37.7903C86.6443 37.7903 87.1096 37.9281 87.475 38.2371L87.593 38.3464L87.6882 38.4551C87.7806 38.5717 87.8566 38.7001 87.9168 38.8397L87.9717 38.983L87.9985 39.0733L88.0658 39.0206C88.1772 38.9362 88.2917 38.8549 88.4091 38.7766L88.5876 38.6614L88.8639 38.4972C89.9 37.9116 91.0415 37.6183 92.2782 37.6183ZM105.342 41.3073C104.368 41.3073 103.553 41.5182 102.885 41.9347C102.281 42.3112 101.81 42.8103 101.471 43.4302L101.363 43.6413L101.255 43.8809L101.164 44.1142L101.083 44.3533H109.09L109.03 44.1314C108.981 43.9671 108.924 43.8076 108.86 43.6528L108.758 43.4242C108.443 42.7636 108.002 42.2483 107.429 41.8683C106.868 41.496 106.177 41.3073 105.342 41.3073ZM122.977 41.3073C122.004 41.3073 121.189 41.5182 120.521 41.9347C119.916 42.3112 119.445 42.8103 119.107 43.4302L118.998 43.6413L118.891 43.8809L118.8 44.1142L118.719 44.3533H126.725L126.666 44.1314C126.616 43.9671 126.56 43.8076 126.496 43.6528L126.394 43.4242C126.079 42.7636 125.638 42.2483 125.065 41.8683C124.504 41.496 123.813 41.3073 122.977 41.3073Z" fill="white"/>
</g>
<defs>
<clipPath id="clip0">
<rect width="172" height="55" fill="white"/>
</clipPath>
</defs>
</svg>
