<svg width="55" height="55" viewBox="0 0 55 55" fill="none" xmlns="http://www.w3.org/2000/svg">
<g clip-path="url(#clip0)">
<path d="M22.2487 17.5046C21.8036 17.5046 21.443 17.8653 21.443 18.3102V19.1854C21.443 19.6303 21.8036 19.9911 22.2487 19.9911C22.6937 19.9911 23.0543 19.6303 23.0543 19.1854V18.3102C23.0543 17.8653 22.6937 17.5046 22.2487 17.5046Z" fill="white"/>
<path d="M32.7513 17.5046C32.3063 17.5046 31.9457 17.8653 31.9457 18.3102V19.1854C31.9457 19.6303 32.3063 19.9911 32.7513 19.9911C33.1964 19.9911 33.557 19.6303 33.557 19.1854V18.3102C33.557 17.8653 33.1964 17.5046 32.7513 17.5046Z" fill="white"/>
<path d="M30.6993 23.8707C30.3866 23.5539 29.8765 23.5507 29.5599 23.8632C29.2593 24.1599 28.5394 24.5062 27.5001 24.5062C26.4608 24.5062 25.741 24.1598 25.4403 23.8632C25.1237 23.5506 24.6137 23.554 24.301 23.8707C23.9885 24.1874 23.9919 24.6975 24.3086 25.01C25.0114 25.7035 26.2044 26.1175 27.5001 26.1175C28.7959 26.1175 29.9889 25.7035 30.6916 25.01C31.0084 24.6975 31.0118 24.1874 30.6993 23.8707Z" fill="white"/>
<path d="M44.963 39.1844L42.6119 38.4929C42.9828 37.375 43.1844 36.1803 43.1844 34.9395C43.1844 31.5996 40.4672 28.8825 37.1274 28.8825H36.7259C38.2214 27.1487 39.2382 24.9912 39.5675 22.6168H40.0659C41.6552 22.6168 43.0183 21.4361 43.1691 19.929C43.2536 19.0842 42.9774 18.2408 42.411 17.6149C41.9272 17.0803 41.2669 16.7404 40.5588 16.6523V7.02099C42.1778 5.44296 43.1844 3.23974 43.1844 0.805664C43.1844 0.360723 42.8237 0 42.3787 0H23.124C18.3364 0 14.4413 3.89501 14.4413 8.6827V16.6675C13.0715 16.8812 11.9659 17.9683 11.8309 19.317C11.7463 20.1618 12.0226 21.0053 12.589 21.6311C13.1556 22.2575 13.9651 22.6167 14.8093 22.6167H15.432C15.7613 24.9912 16.7778 27.1486 18.273 28.8824H17.8726C14.5328 28.8824 11.8157 31.5995 11.8157 34.9395C11.8157 36.1803 12.0172 37.3749 12.3881 38.4929L10.037 39.1845C7.477 39.9374 5.68896 42.327 5.68896 44.9954V54.1943C5.68896 54.6393 6.04958 55 6.49463 55C6.93968 55 7.30029 54.6393 7.30029 54.1943V44.9953C7.30029 43.0367 8.61267 41.2829 10.4916 40.7302L13.0082 39.9899C14.7526 43.4698 18.24 45.9302 22.3182 46.2187V54.1943C22.3182 54.6393 22.6788 55 23.1239 55C23.5689 55 23.9295 54.6393 23.9295 54.1943V46.2477H31.0704V54.1943C31.0704 54.6393 31.431 55 31.8761 55C32.3211 55 32.6817 54.6393 32.6817 54.1943V46.2187C36.7599 45.9302 40.2473 43.4698 41.9918 39.9899L44.5083 40.7301C46.3872 41.2828 47.6996 43.0365 47.6996 44.9952V54.1943C47.6996 54.6393 48.0602 55 48.5053 55C48.9503 55 49.3109 54.6393 49.3109 54.1943V44.9953C49.3112 42.3268 47.523 39.9373 44.963 39.1844ZM16.9279 20.9359C16.9279 20.4908 16.5673 20.1302 16.1222 20.1302C15.6772 20.1302 15.3165 20.4909 15.3165 20.9359V21.0054H14.8093C14.4194 21.0054 14.0456 20.8394 13.7837 20.55C13.5184 20.2569 13.3943 19.8759 13.4343 19.4775C13.5037 18.7839 14.1625 18.2406 14.9341 18.2406H15.2469C15.692 18.2406 16.0526 17.8798 16.0526 17.4349V8.6827C16.0526 4.7836 19.2248 1.61133 23.124 1.61133H41.5275C41.1263 5.1324 38.1284 7.87703 34.5019 7.87703H18.7477C18.3027 7.87703 17.942 8.23775 17.942 8.6827C17.942 9.12764 18.3027 9.48836 18.7477 9.48836H34.5018C36.1252 9.48836 37.6462 9.04041 38.9474 8.26171V17.435C38.9474 17.8799 39.308 18.2407 39.7531 18.2407H40.1907C40.5806 18.2407 40.9543 18.4066 41.2162 18.6959C41.4815 18.9891 41.6056 19.37 41.5657 19.7684C41.4963 20.462 40.8376 21.0054 40.0659 21.0054H39.6832V20.9443C39.6832 20.4994 39.3226 20.1387 38.8778 20.1386C38.8777 20.1386 38.8776 20.1386 38.8775 20.1386C38.4328 20.1386 38.0722 20.4989 38.0718 20.9437C38.0675 26.769 33.3251 31.5081 27.5 31.5081C21.6704 31.5081 16.9279 26.7654 16.9279 20.9359ZM32.6817 44.6026V43.6916C32.6817 43.2467 32.3211 42.8859 31.8761 42.8859C31.431 42.8859 31.0704 43.2467 31.0704 43.6916V44.6364H23.9295V43.6916C23.9295 43.2467 23.5689 42.8859 23.1239 42.8859C22.6788 42.8859 22.3182 43.2467 22.3182 43.6916V44.6026C17.3468 44.1919 13.4268 40.015 13.4268 34.9393C13.4268 32.4879 15.4211 30.4936 17.8724 30.4936H19.9536C20.1533 30.6517 20.3581 30.8038 20.5675 30.9492V31.5079H18.1052C16.8741 31.5079 15.8481 32.2693 15.4913 33.4476C15.1346 34.6259 15.5659 35.8286 16.5902 36.5115L25.5964 42.5156C26.1745 42.901 26.8371 43.0937 27.4998 43.0937C28.1624 43.0937 28.8251 42.901 29.4032 42.5155L31.4477 41.1526C31.8178 40.9058 31.9179 40.4056 31.6711 40.0354C31.4242 39.6651 30.9241 39.5651 30.5539 39.8119L28.5095 41.1749C27.8963 41.5837 27.1036 41.5837 26.4902 41.1749L20.8606 37.4218C21.6705 36.7829 22.1789 35.7944 22.1789 34.725V31.8942C23.7875 32.6785 25.5931 33.1191 27.4998 33.1191C29.4063 33.1191 31.212 32.6783 32.8207 31.8937V34.725C32.8207 35.7944 33.329 36.7829 34.139 37.4218L33.6173 37.7696C33.2471 38.0164 33.147 38.5167 33.3938 38.8868C33.549 39.1197 33.8045 39.2457 34.0649 39.2457C34.2185 39.2457 34.3737 39.2019 34.511 39.1103L38.4092 36.5114C39.4336 35.8285 39.865 34.6258 39.5082 33.4475C39.1514 32.2692 38.1254 31.5078 36.8943 31.5078H34.4319V30.9482C34.6411 30.8029 34.8453 30.6512 35.0447 30.4934H37.127C39.5783 30.4934 41.5727 32.4877 41.5727 34.9392C41.5731 40.0151 37.6531 44.1919 32.6817 44.6026ZM20.5679 33.1195V34.7253C20.5678 35.4864 20.0832 36.1712 19.3761 36.4322L17.4843 35.171C16.9746 34.8311 16.9173 34.2992 17.0338 33.9147C17.1502 33.5302 17.4928 33.1195 18.1055 33.1195H20.5679ZM34.4324 34.7252V33.1193H36.8947C37.5073 33.1193 37.8501 33.5301 37.9664 33.9146C38.0829 34.2992 38.0256 34.831 37.5159 35.1709L35.624 36.4322C34.9168 36.1712 34.4324 35.4864 34.4324 34.7252Z" fill="white"/>
<path d="M23.9159 15.2076C23.8338 14.7703 23.4118 14.4825 22.9756 14.5643L21.2251 14.8926C20.7877 14.9746 20.4996 15.3956 20.5817 15.8329C20.6542 16.2201 20.9925 16.4902 21.3726 16.4902C21.4219 16.4902 21.4718 16.4857 21.522 16.4763L23.2725 16.148C23.7097 16.0659 23.9978 15.6449 23.9159 15.2076Z" fill="white"/>
<path d="M33.7749 14.8926L32.0244 14.5643C31.5879 14.4825 31.1661 14.7703 31.0841 15.2076C31.0022 15.6451 31.2902 16.066 31.7275 16.148L33.478 16.4763C33.5282 16.4856 33.5781 16.4902 33.6274 16.4902C34.0075 16.4902 34.3458 16.2201 34.4183 15.8329C34.5005 15.3956 34.2124 14.9746 33.7749 14.8926Z" fill="white"/>
</g>
<defs>
<clipPath id="clip0">
<rect width="55" height="55" fill="white"/>
</clipPath>
</defs>
</svg>
