<svg width="55" height="55" viewBox="0 0 55 55" fill="none" xmlns="http://www.w3.org/2000/svg">
<g clip-path="url(#clip0)">
<path d="M1.34928 34.2751C1.65067 34.4845 1.96893 34.6684 2.30078 34.8251C2.69678 35.0277 3.36137 35.3668 3.40812 35.6043C3.46573 35.9176 3.42805 36.2411 3.29995 36.5328C3.16337 36.8262 3.02037 37.0783 2.89662 37.2955C2.56112 37.8886 1.9992 38.8823 2.8462 39.5743C3.0442 39.7577 3.38612 40.0226 3.69778 40.2618C3.46835 40.663 3.36457 41.1238 3.39987 41.5846C3.44851 41.9475 3.6453 42.274 3.94345 42.4866C4.14695 42.6296 4.3642 42.7542 4.57778 42.8762C5.12045 43.1842 5.3322 43.3281 5.40278 43.6159C5.45371 43.9849 5.42241 44.3605 5.31112 44.7159C5.25703 44.9607 5.20478 45.2063 5.17362 45.4493C5.08259 46.2847 5.1858 47.1298 5.4752 47.9188C5.88753 49.3752 7.20491 50.3899 8.71837 50.4167C8.97099 50.4159 9.22287 50.3892 9.47003 50.3369C12.0887 49.7162 14.6692 48.944 17.1985 48.0242C19.2637 49.236 20.5681 52.921 20.9082 54.3043C21.0097 54.7132 21.377 55.0002 21.7983 55L44.8066 54.9358C45.0982 54.9353 45.3721 54.796 45.5444 54.5608C45.7167 54.3255 45.7668 54.0223 45.6793 53.7442C45.4526 53.1231 45.1401 52.5368 44.7507 52.0025C44.5309 51.6856 44.3327 51.3543 44.1576 51.0107C43.7424 50.1706 43.3963 49.2981 43.1227 48.4018C42.5992 46.631 42.2363 44.8166 42.0383 42.9807C41.799 40.8574 42.0019 38.7077 42.6341 36.6667H44.9166C46.4354 36.6667 47.6666 35.4355 47.6666 33.9167V22C47.6666 21.4937 47.2562 21.0833 46.75 21.0833H43.0503C43.0718 20.9315 43.0828 20.7784 43.0833 20.625C43.0833 18.8531 41.6469 17.4167 39.875 17.4167C38.103 17.4167 36.6666 18.8531 36.6666 20.625C36.667 20.7784 36.6781 20.9315 36.6996 21.0833H33.9166V18.3013C34.4231 18.3734 34.9395 18.3247 35.4236 18.1592C36.4701 17.8028 37.2567 16.929 37.5017 15.851C37.7416 14.8186 37.4561 13.7344 36.739 12.954C36.0218 12.1736 34.9655 11.7977 33.9166 11.9497V8.25C33.9166 7.74374 33.5062 7.33333 33 7.33333H21.0833C19.5645 7.33333 18.3333 8.56455 18.3333 10.0833V33.9167C18.3333 35.4355 19.5645 36.6667 21.0833 36.6667H40.7091C40.1322 38.7944 39.9664 41.0126 40.2205 43.2025C40.432 45.149 40.8179 47.0726 41.3737 48.95C41.6753 49.9354 42.0557 50.8948 42.5113 51.8192C42.7204 52.2343 42.9578 52.6346 43.2217 53.0173L43.2831 53.1089L22.4913 53.1667C21.8828 50.9922 20.7783 48.9884 19.2646 47.3128L20.0896 47.0241C20.7038 46.8096 21.1667 46.6483 21.4041 46.5722C25.3311 45.3301 27.2946 43.5417 27.2415 41.2555C27.2296 40.7492 26.8095 40.3485 26.3032 40.3604C25.797 40.3723 25.3962 40.7923 25.4081 41.2986C25.4301 42.2418 24.6574 43.6177 20.8468 44.8232C20.5984 44.9029 20.1199 45.0698 19.4846 45.2916C18.8035 45.5299 17.9373 45.8324 16.9821 46.1569H16.9757C14.396 47.1025 11.7639 47.8983 9.09237 48.5402C8.23935 48.7022 7.41012 48.1635 7.21137 47.3183C7.01553 46.7968 6.94184 46.2374 6.99595 45.683C7.01978 45.4905 7.06378 45.2998 7.10595 45.1082C7.29274 44.4745 7.32013 43.8045 7.1857 43.1576C6.91908 42.3155 6.29947 41.631 5.48803 41.2821L5.29828 41.1739C5.39726 40.9741 5.51546 40.7844 5.6512 40.6074C5.80498 40.4126 5.87316 40.1637 5.84017 39.9177C5.80717 39.6716 5.67581 39.4495 5.47612 39.3021C5.25612 39.1408 4.73728 38.7521 4.35778 38.4459C4.40178 38.3662 4.44945 38.2782 4.49528 38.1984C4.6392 37.9463 4.80328 37.653 4.9637 37.3138C5.25378 36.6713 5.33922 35.9551 5.20845 35.2623C4.98845 34.144 3.91687 33.5958 3.13587 33.1962C2.87214 33.0708 2.6192 32.924 2.37962 32.7571C2.18471 32.6254 2.00188 32.4766 1.83328 32.3125C1.83328 32.1732 1.9827 31.8358 2.6812 30.9861C4.32302 28.8725 5.73069 26.587 6.87953 24.1698C7.09435 23.791 7.21536 23.3664 7.23245 22.9313C7.13777 22.0099 6.64949 21.1744 5.8932 20.6397C5.52653 20.2996 5.17362 19.9788 5.13237 19.6799C5.13845 19.4636 5.18704 19.2505 5.27537 19.0529C5.42478 18.6597 5.59712 18.2747 5.77037 17.8888C6.14625 17.1137 6.44647 16.3042 6.66687 15.4715L6.75853 15.081C6.95203 14.1646 7.20152 13.2609 7.50562 12.375C8.22822 10.3806 9.34702 8.55302 10.7946 7.00242C12.5482 5.14708 15.3083 3.83442 19.0116 3.09833C21.8434 2.47655 24.7169 2.06264 27.609 1.85992C31.7858 1.65127 35.9208 2.77578 39.4166 5.071V5.95833C39.4166 6.30554 39.6128 6.62295 39.9233 6.77822C40.2339 6.9335 40.6055 6.89999 40.8833 6.69167C41.4823 6.26904 42.305 6.37452 42.778 6.93458C43.0445 7.26764 43.1422 7.70504 43.0429 8.11983C42.9353 8.5712 42.6049 8.93651 42.1666 9.08875C41.731 9.24218 41.2476 9.16825 40.8778 8.89167C40.6001 8.68659 40.2307 8.65495 39.9221 8.80981C39.6135 8.96467 39.4182 9.27976 39.4166 9.625V13.75C39.4166 14.7625 40.2374 15.5833 41.25 15.5833H45.375C45.7222 15.5833 46.0396 15.3872 46.1948 15.0766C46.3501 14.7661 46.3166 14.3944 46.1083 14.1167C45.6828 13.5494 45.7585 12.7516 46.2831 12.2745C46.8076 11.7974 47.609 11.7974 48.1335 12.2745C48.658 12.7516 48.7337 13.5494 48.3083 14.1167C48.1 14.3944 48.0664 14.7661 48.2217 15.0766C48.377 15.3872 48.6944 15.5833 49.0416 15.5833H54.0833C54.5895 15.5833 55 15.1729 55 14.6667V2.75C55 1.23122 53.7687 0 52.25 0H40.3333C39.827 0 39.4166 0.410406 39.4166 0.916667V2.87558C35.8048 0.805401 31.6741 -0.182899 27.5164 0.0284167C24.5337 0.235298 21.5701 0.660549 18.6495 1.30075C14.5163 2.12575 11.5124 3.575 9.46178 5.742C7.84424 7.47282 6.59358 9.51299 5.78503 11.7398C5.45491 12.6979 5.18369 13.6754 4.97287 14.6667L4.8812 15.0535C4.68556 15.7724 4.42317 16.4715 4.09745 17.1417C3.91412 17.5597 3.72345 17.9777 3.55937 18.4103C3.34839 18.892 3.26505 19.4198 3.31737 19.943C3.50181 20.7645 3.97593 21.4921 4.65295 21.9927C5.1012 22.4033 5.39545 22.693 5.39912 22.9451C5.36632 23.0844 5.31385 23.2184 5.24328 23.3429C4.14556 25.654 2.80092 27.8396 1.23287 29.8613C0.568284 30.6698 -0.128383 31.6131 0.0182841 32.5573C0.212727 33.2856 0.692542 33.9049 1.34928 34.2751ZM20.1666 10.0833C20.1666 9.57707 20.577 9.16667 21.0833 9.16667H32.0833V13.2917C32.0833 13.6389 32.2795 13.9563 32.59 14.1116C32.9006 14.2668 33.2722 14.2333 33.5499 14.025C34.149 13.6024 34.9717 13.7079 35.4447 14.2679C35.7111 14.601 35.8089 15.0384 35.7096 15.4532C35.602 15.9045 35.2716 16.2698 34.8333 16.4221C34.3963 16.5755 33.9115 16.5001 33.5417 16.2213C33.2635 16.0175 32.8944 15.9871 32.5865 16.1426C32.2787 16.2982 32.0842 16.6134 32.0833 16.9583V21.0833H29.3021C29.3731 20.5773 29.3241 20.0617 29.1591 19.5782C28.8035 18.531 27.9301 17.7433 26.8519 17.4973C25.8981 17.2755 24.8953 17.5013 24.1287 18.1106C23.3621 18.7198 22.9158 19.6458 22.9166 20.625C22.9171 20.7784 22.9281 20.9315 22.9496 21.0833H20.1666V10.0833ZM20.1666 33.9167V22.9167H24.2916C24.6388 22.9167 24.9562 22.7205 25.1115 22.4099C25.2668 22.0994 25.2333 21.7278 25.025 21.45C24.5818 20.8559 24.6892 20.0175 25.2679 19.5543C25.6014 19.2881 26.0391 19.1906 26.454 19.2903C26.9055 19.3973 27.2709 19.728 27.422 20.1667C27.5765 20.6034 27.5007 21.0886 27.2204 21.4573C27.0159 21.7357 26.9852 22.1054 27.1411 22.4136C27.297 22.7219 27.6129 22.9163 27.9583 22.9167H32.0833V25.6997C30.8396 25.5199 29.6054 26.0828 28.9257 27.1398C28.2461 28.1968 28.2461 29.5532 28.9257 30.6102C29.6054 31.6672 30.8396 32.2301 32.0833 32.0503V34.8333H21.0833C20.577 34.8333 20.1666 34.4229 20.1666 33.9167ZM33.4079 29.8833C33.0957 29.7301 32.7239 29.7656 32.4463 29.975C31.879 30.4004 31.0813 30.3248 30.6041 29.8002C30.127 29.2757 30.127 28.4743 30.6041 27.9498C31.0813 27.4252 31.879 27.3496 32.4463 27.775C32.724 27.9833 33.0957 28.0168 33.4062 27.8616C33.7168 27.7063 33.9129 27.3889 33.9129 27.0417V22.9167H38.0379C38.3852 22.9167 38.7026 22.7205 38.8578 22.4099C39.0131 22.0994 38.9796 21.7278 38.7713 21.45C38.3458 20.8827 38.4215 20.085 38.9461 19.6078C39.4706 19.1307 40.272 19.1307 40.7965 19.6078C41.321 20.085 41.3967 20.8827 40.9713 21.45C40.763 21.7278 40.7295 22.0994 40.8847 22.4099C41.04 22.7205 41.3574 22.9167 41.7046 22.9167H45.8333V33.9167C45.8333 34.4229 45.4229 34.8333 44.9166 34.8333H33.9166V30.7083C33.9182 30.3588 33.7209 30.0389 33.4079 29.8833ZM41.25 1.83333H52.25C52.7562 1.83333 53.1666 2.24374 53.1666 2.75V13.75H50.3836C50.4052 13.5982 50.4162 13.445 50.4166 13.2917C50.4166 11.5198 48.9802 10.0833 47.2083 10.0833C45.4364 10.0833 44 11.5198 44 13.2917C44.0004 13.445 44.0114 13.5982 44.0329 13.75H41.25V10.9679C41.7565 11.0401 42.2729 10.9914 42.757 10.8258C43.8034 10.4694 44.5901 9.59567 44.835 8.51767C45.0749 7.48529 44.7895 6.40106 44.0723 5.62065C43.3552 4.84025 42.2989 4.46437 41.25 4.61633V1.83333Z" fill="white"/>
<path d="M10.2354 16.3084L10.3271 15.9106C10.4898 15.1444 10.6961 14.3882 10.9449 13.6455C11.4964 12.1134 12.3544 10.7098 13.4667 9.5205C14.18 8.80312 15.0271 8.23258 15.96 7.84117C16.2692 7.71395 16.4846 7.42851 16.5221 7.0963C16.5596 6.76409 16.4133 6.4378 16.1403 6.24486C15.8672 6.05191 15.5108 6.0229 15.2102 6.16917C14.0566 6.65772 13.0109 7.36921 12.1329 8.26283C10.8494 9.63285 9.85901 11.2505 9.22252 13.0167C8.94591 13.8309 8.71727 14.6607 8.53777 15.5018L8.44611 15.9051C8.39138 16.1428 8.43363 16.3925 8.56352 16.5989C8.69342 16.8054 8.90023 16.9516 9.13819 17.0051C9.20464 17.0203 9.2726 17.028 9.34077 17.028C9.77088 17.0277 10.143 16.7285 10.2354 16.3084Z" fill="white"/>
<path d="M8.25004 20.1667C8.7563 20.1667 9.16671 19.7563 9.16671 19.25C9.16671 18.7438 8.7563 18.3334 8.25004 18.3334C7.74378 18.3334 7.33337 18.7438 7.33337 19.25C7.33337 19.7563 7.74378 20.1667 8.25004 20.1667Z" fill="white"/>
</g>
<defs>
<clipPath id="clip0">
<rect width="55" height="55" fill="white"/>
</clipPath>
</defs>
</svg>
