<svg width="55" height="55" viewBox="0 0 55 55" fill="none" xmlns="http://www.w3.org/2000/svg">
<path d="M52.476 36.6184L47.7943 34.5376C47.4637 34.3907 47.25 34.0619 47.25 33.7001V32.4144C48.8227 31.1614 49.8334 29.2318 49.8334 27.0694V25.2596C50.3515 24.9733 50.6945 24.4201 50.6945 23.8005V23.6249C50.6945 19.8569 47.629 16.7914 43.8611 16.7914H42.1389C38.3708 16.7914 35.3055 19.8569 35.3055 23.6249V25.2185C35.3055 25.7631 35.5398 26.2565 35.9484 26.5722C36.0177 26.6257 36.0906 26.6727 36.1665 26.7135V27.0694C36.1665 29.2318 37.1773 31.1614 38.7498 32.4143V33.7001C38.7498 34.062 38.5362 34.3907 38.2056 34.5376L33.5239 36.6184C31.9906 37.2999 30.9999 38.8243 30.9999 40.5021V51.1803C30.9999 51.6252 31.3606 51.986 31.8055 51.986C32.2505 51.986 32.6112 51.6252 32.6112 51.1803V40.5022C32.6112 40.4089 32.6179 40.3166 32.6275 40.2251L34.7848 42.3823C35.1206 42.7181 35.3055 43.1646 35.3055 43.6394V51.1804C35.3055 51.6253 35.6662 51.9861 36.1111 51.9861C36.5561 51.9861 36.9168 51.6253 36.9168 51.1804V43.6394C36.9168 42.7343 36.5643 41.8832 35.9242 41.243L33.3523 38.6712C33.584 38.4308 33.862 38.2316 34.1783 38.0909L38.781 36.0453L42.1943 39.4586V51.1805C42.1943 51.6255 42.555 51.9862 43 51.9862C43.4449 51.9862 43.8056 51.6255 43.8056 51.1805V39.4586L47.219 36.0453L51.8216 38.0908C52.1379 38.2315 52.4159 38.4307 52.6476 38.6712L50.0758 41.243C49.4357 41.8832 49.0832 42.7343 49.0832 43.6394V51.1804C49.0832 51.6253 49.4439 51.9861 49.8888 51.9861C50.3338 51.9861 50.6945 51.6253 50.6945 51.1804V43.6394C50.6945 43.1646 50.8794 42.7181 51.2152 42.3823L53.3723 40.2252C53.382 40.3167 53.3886 40.4089 53.3886 40.5022V51.1804C53.3886 51.6253 53.7494 51.9861 54.1943 51.9861C54.6392 51.9861 55 51.6253 55 51.1804V40.5022C55 38.8243 54.0092 37.2999 52.476 36.6184ZM43.0001 37.9855L40.0049 34.9903C40.2327 34.6071 40.3613 34.1639 40.3613 33.7001V33.3722C41.1736 33.7136 42.0651 33.9028 43.0001 33.9028C43.935 33.9028 44.8265 33.7136 45.6387 33.3723V33.7001C45.6387 34.1639 45.7673 34.6073 45.9951 34.9904L43.0001 37.9855ZM43 32.2915C40.1205 32.2915 37.7779 29.9488 37.7779 27.0694V26.7069C38.2806 26.5076 38.7713 26.1906 39.2411 25.7571C39.568 25.4553 39.5885 24.9456 39.2866 24.6186C38.985 24.2917 38.4753 24.2713 38.1482 24.5731C37.7452 24.945 37.3426 25.1854 36.9518 25.2873C36.9424 25.2898 36.9354 25.2909 36.9304 25.2913C36.9246 25.2801 36.9168 25.2564 36.9168 25.2185V23.6249C36.9168 20.7454 39.2594 18.4028 42.1389 18.4028H43.8611C46.7405 18.4028 49.0832 20.7454 49.0832 23.6249V23.8005C49.0832 23.8266 49.0675 23.8494 49.0469 23.8535C44.2221 24.8061 41.8027 23.0104 40.9864 22.1941C40.6717 21.8795 40.1616 21.8795 39.847 22.1941C39.5324 22.5088 39.5324 23.0189 39.847 23.3334C42.3488 25.8352 45.9995 25.8803 48.2221 25.6134V27.0694C48.2221 29.9488 45.8794 32.2915 43 32.2915Z" fill="white"/>
<path d="M17.7979 37.5324L14.2615 36.2062C13.9058 36.0728 13.6669 35.728 13.6669 35.348V34.7217C15.7226 33.5423 17.1113 31.3267 17.1113 28.7916V26.2082C17.1113 24.0236 16.0797 22.0766 14.4793 20.8248C14.5116 20.6121 14.528 20.3962 14.528 20.1804C14.528 17.8369 12.6213 15.9304 10.2779 15.9304C7.9344 15.9304 6.02776 17.837 6.02776 20.1804C6.02776 20.3962 6.04592 20.6112 6.07815 20.8235C4.47681 22.0753 3.44438 24.0228 3.44438 26.2082V28.7916C3.44438 31.3267 4.83313 33.5422 6.88886 34.7216V35.3479C6.88886 35.7279 6.64984 36.0728 6.29406 36.2061L2.75773 37.5323C1.10827 38.151 0 39.7502 0 41.5118V51.1803C0 51.6253 0.360723 51.986 0.805664 51.986C1.25061 51.986 1.61133 51.6253 1.61133 51.1803V41.5118C1.61133 41.3733 1.6225 41.2366 1.64388 41.1024L2.9237 42.3824C3.2595 42.7182 3.44438 43.1646 3.44438 43.6394V51.1804C3.44438 51.6254 3.8051 51.9861 4.25004 51.9861C4.69498 51.9861 5.0557 51.6254 5.0557 51.1804V43.6394C5.0557 42.7343 4.70325 41.8832 4.06313 41.243L2.42816 39.6081C2.68125 39.3647 2.98332 39.1687 3.32353 39.0412L6.23917 37.9479L9.47225 41.1808V51.1804C9.47225 51.6254 9.83297 51.9861 10.2779 51.9861C10.7229 51.9861 11.0836 51.6254 11.0836 51.1804V41.1808L14.3165 37.9479L17.2321 39.0412C17.5723 39.1688 17.8744 39.3648 18.1276 39.6081L16.4925 41.243C15.8525 41.8832 15.4999 42.7343 15.4999 43.6394V51.1804C15.4999 51.6254 15.8606 51.9861 16.3056 51.9861C16.7505 51.9861 17.1112 51.6254 17.1112 51.1804V43.6394C17.1112 43.1646 17.2961 42.7182 17.6319 42.3824L18.9117 41.1025C18.933 41.2367 18.9443 41.3734 18.9443 41.5119V51.1804C18.9443 51.6254 19.305 51.9861 19.7499 51.9861C20.1949 51.9861 20.5556 51.6254 20.5556 51.1804V41.5119C20.5556 39.7502 19.4474 38.151 17.7979 37.5324ZM10.2779 17.5417C11.638 17.5417 12.7608 18.5761 12.9015 19.8994C12.0931 19.562 11.207 19.3748 10.2778 19.3748C9.3486 19.3748 8.46248 19.562 7.65424 19.8994C7.79507 18.5761 8.91784 17.5417 10.2779 17.5417ZM5.05581 26.2083C5.0557 23.3287 7.39836 20.9862 10.2779 20.9862C13.1574 20.9862 15.5 23.3288 15.5 26.2083V27.093C11.7489 26.8088 8.1472 24.6791 8.10906 24.6563C7.91656 24.5409 7.68475 24.5109 7.46926 24.5736C7.25377 24.6364 7.07427 24.7861 6.97394 24.9869C6.61042 25.7139 5.78037 26.3022 5.05581 26.6924V26.2083ZM5.0557 28.7916V28.4791C5.79552 28.1596 7.11036 27.4822 7.96018 26.414C9.27233 27.1007 12.2935 28.497 15.4999 28.7081V28.7916C15.4999 31.671 13.1572 34.0137 10.2778 34.0137C7.39836 34.0137 5.0557 31.6711 5.0557 28.7916ZM10.2779 39.7077L7.72997 37.1598C8.20059 36.7011 8.48762 36.067 8.49868 35.3885C9.0663 35.5418 9.66238 35.625 10.2779 35.625C10.8933 35.625 11.4894 35.5418 12.057 35.3885C12.0681 36.067 12.3551 36.7012 12.8257 37.1598L10.2779 39.7077Z" fill="white"/>
<path d="M26.6388 8.18042H24.9164C24.4714 8.18042 24.1107 8.54114 24.1107 8.98608C24.1107 9.43103 24.4714 9.79175 24.9164 9.79175H26.6388C27.0837 9.79175 27.4444 9.43103 27.4444 8.98608C27.4444 8.54114 27.0837 8.18042 26.6388 8.18042Z" fill="white"/>
<path d="M21.472 8.18042H14.5833C14.1383 8.18042 13.7776 8.54114 13.7776 8.98608C13.7776 9.43103 14.1383 9.79175 14.5833 9.79175H21.472C21.9169 9.79175 22.2777 9.43103 22.2777 8.98608C22.2777 8.54114 21.9169 8.18042 21.472 8.18042Z" fill="white"/>
<path d="M26.6389 12.486H19.75C19.3051 12.486 18.9443 12.8467 18.9443 13.2916C18.9443 13.7366 19.3051 14.0973 19.75 14.0973H26.6389C27.0838 14.0973 27.4445 13.7366 27.4445 13.2916C27.4445 12.8467 27.0838 12.486 26.6389 12.486Z" fill="white"/>
<path d="M16.3058 12.486H14.5833C14.1383 12.486 13.7776 12.8467 13.7776 13.2916C13.7776 13.7366 14.1383 14.0973 14.5833 14.0973H16.3058C16.7507 14.0973 17.1114 13.7366 17.1114 13.2916C17.1114 12.8467 16.7507 12.486 16.3058 12.486Z" fill="white"/>
<path d="M28.3611 3.01379H12.8612C10.5177 3.01379 8.61121 4.92042 8.61121 7.26383V13.2916C8.61121 13.7365 8.97193 14.0973 9.41687 14.0973C9.86181 14.0973 10.2225 13.7365 10.2225 13.2916V7.26383C10.2225 5.8088 11.4063 4.62512 12.8612 4.62512H28.3612C29.8163 4.62512 31.0001 5.80891 31.0001 7.26383V15.0139C31.0001 16.4689 29.8163 17.6526 28.3612 17.6526H26.6391C26.3561 17.6526 26.0938 17.8011 25.9482 18.0437C24.6295 20.2417 22.5539 21.4674 21.0449 22.1087C21.0245 22.1173 20.9992 22.1281 20.9685 22.0951C20.9471 22.072 20.9514 22.0637 20.963 22.0412C21.8131 20.3971 22.2364 18.7241 22.254 18.6537C22.3143 18.413 22.2601 18.158 22.1075 17.9624C21.9548 17.7668 21.7205 17.6526 21.4724 17.6526H17.1668C16.7219 17.6526 16.3612 18.0133 16.3612 18.4583C16.3612 18.9032 16.7219 19.2639 17.1668 19.2639H20.3855C20.1914 19.8341 19.9059 20.5774 19.5316 21.3012C19.2061 21.9308 19.3062 22.6725 19.7869 23.1907C20.1131 23.5424 20.5539 23.729 21.0082 23.729C21.2312 23.729 21.4575 23.6841 21.675 23.5916C23.314 22.8951 25.5423 21.5871 27.0829 19.2639H28.3611C30.7047 19.2639 32.6113 17.3573 32.6113 15.0139V7.26383C32.6113 4.92032 30.7047 3.01379 28.3611 3.01379Z" fill="white"/>
<path d="M25.7777 27.1247C25.3328 27.1247 24.972 27.4854 24.972 27.9304V32.2359C24.972 32.6809 25.3328 33.0416 25.7777 33.0416C26.2227 33.0416 26.5834 32.6809 26.5834 32.2359V27.9304C26.5834 27.4854 26.2227 27.1247 25.7777 27.1247Z" fill="white"/>
<path d="M25.7777 34.0136C25.3328 34.0136 24.972 34.3743 24.972 34.8193C24.972 35.2642 25.3328 35.6249 25.7777 35.6249H25.7863C26.2312 35.6249 26.5877 35.2642 26.5877 34.8193C26.5877 34.3743 26.2227 34.0136 25.7777 34.0136Z" fill="white"/>
<path d="M35.3671 30.7817C34.2094 30.3455 33.6281 30.1104 33.3383 29.9864C32.9968 28.1296 31.9634 26.4292 30.4588 25.271C28.8228 24.0116 26.7805 23.4724 24.7082 23.7528C21.1701 24.2315 18.5274 26.9414 18.1321 30.4961C17.8885 32.6859 18.5849 34.8758 20.0425 36.5045C21.5013 38.1345 23.5917 39.0693 25.7777 39.0693C28.8545 39.0695 31.6466 37.2062 32.8485 34.3927L35.2914 33.6159C35.9097 33.4193 36.3204 32.8731 36.3374 32.2245C36.3545 31.5767 35.9736 31.0103 35.3671 30.7817ZM31.9965 32.9728C31.7591 33.0483 31.5698 33.2296 31.4841 33.4635C30.6091 35.8528 28.3158 37.4581 25.7776 37.4581C24.0494 37.4581 22.3965 36.719 21.2431 35.4301C20.0739 34.1236 19.5378 32.4348 19.7335 30.6743C20.0457 27.8674 22.1316 25.7275 24.9241 25.3497C25.209 25.3113 25.4928 25.2922 25.7746 25.2922C27.1175 25.2922 28.4075 25.7256 29.4759 26.5479C30.7755 27.5483 31.6028 28.9921 31.8052 30.6129C31.87 31.1342 32.2568 31.2907 33.104 31.6334C33.4603 31.7775 33.9291 31.9599 34.5002 32.1766L31.9965 32.9728Z" fill="white"/>
</svg>
