<svg width="55" height="55" viewBox="0 0 55 55" fill="none" xmlns="http://www.w3.org/2000/svg">
<g clip-path="url(#clip0)">
<path d="M18.3334 0C10.7395 0 4.58337 6.1561 4.58337 13.75V23.8333C4.58738 27.3754 7.45793 30.246 11 30.25H11.9167V28.4167H11C8.47004 28.4137 6.41969 26.3633 6.41671 23.8333V13.75C6.41671 7.16856 11.7519 1.83333 18.3334 1.83333C24.9148 1.83333 30.25 7.16856 30.25 13.75V23.8333C30.2471 26.3633 28.1967 28.4137 25.6667 28.4167H24.75V30.25H25.6667C29.2088 30.246 32.0794 27.3754 32.0834 23.8333V13.75C32.0834 6.1561 25.9273 0 18.3334 0Z" fill="white"/>
<path d="M7.55423 43.2015L8.22431 42.1464L6.67606 41.1638L6.00598 42.2198C3.97935 45.4134 4.12979 49.5256 6.38456 52.5625V54.9999H8.21789V52.2499C8.21801 52.0417 8.1472 51.8396 8.01714 51.677C6.06831 49.2407 5.88234 45.8356 7.55423 43.2015Z" fill="white"/>
<path d="M50.4166 0H38.5C35.97 0.00297917 33.9196 2.05333 33.9166 4.58333V13.75C33.9196 16.28 35.97 18.3304 38.5 18.3333H40.3333V22C40.3332 22.3707 40.5564 22.705 40.8989 22.847C41.0101 22.8934 41.1294 22.917 41.25 22.9167C41.4931 22.9167 41.7262 22.82 41.898 22.6481L46.2128 18.3333H50.4166C52.9466 18.3304 54.997 16.28 55 13.75V4.58333C54.997 2.05333 52.9466 0.00297917 50.4166 0ZM53.1666 13.75C53.1666 15.2688 51.9354 16.5 50.4166 16.5H45.8333C45.5901 16.5 45.3571 16.5967 45.1852 16.7686L42.1666 19.7872V17.4167C42.1666 16.9104 41.7562 16.5 41.25 16.5H38.5C36.9812 16.5 35.75 15.2688 35.75 13.75V4.58333C35.75 3.06453 36.9812 1.83333 38.5 1.83333H50.4166C51.9354 1.83333 53.1666 3.06453 53.1666 4.58333V13.75Z" fill="white"/>
<path d="M44.9167 4.58337H38.5V6.41671H44.9167V4.58337Z" fill="white"/>
<path d="M50.4167 4.58337H46.75V6.41671H50.4167V4.58337Z" fill="white"/>
<path d="M50.4167 8.25006H38.5V10.0834H50.4167V8.25006Z" fill="white"/>
<path d="M44.9167 11.9167H38.5V13.7501H44.9167V11.9167Z" fill="white"/>
<path d="M30.6607 42.2198L29.9906 41.1638L28.4424 42.1464L29.1125 43.2024C30.7845 45.8361 30.5985 49.2411 28.6495 51.677C28.5195 51.8396 28.4487 52.0417 28.4488 52.2499V54.9999H30.2821V52.5625C32.5369 49.5256 32.6874 45.4134 30.6607 42.2198Z" fill="white"/>
<path d="M54.0833 31.1667H45.8333C42.394 31.1707 39.5695 33.8856 39.4295 37.3221L36.6667 42.2959V38.5C36.6627 34.9579 33.7921 32.0874 30.25 32.0834H26.8996L26.8748 32.0641L26.8583 32.0834H24.75C23.7374 32.0834 22.9167 31.2626 22.9167 30.25V28.0931C25.7491 26.4578 27.4956 23.4373 27.5 20.1667V12.8334C27.4986 11.3146 27.1207 9.81983 26.4 8.48287C26.1691 8.05753 25.6473 7.88486 25.2083 8.0887L9.69283 15.389C9.37154 15.5403 9.16655 15.8635 9.16667 16.2186V20.1667C9.17102 23.4373 10.9176 26.4578 13.75 28.0931V30.25C13.75 31.2626 12.9292 32.0834 11.9167 32.0834H6.41667C2.87455 32.0874 0.00401042 34.9579 0 38.5V55H1.83333V38.5C1.83631 35.97 3.88667 33.9197 6.41667 33.9167H9.3335L17.5881 45.4502C17.7577 45.6873 18.0299 45.8295 18.3214 45.8334H18.3333C18.6219 45.8334 18.8935 45.6975 19.0667 45.4667L27.775 33.9167H30.25C32.78 33.9197 34.8304 35.97 34.8333 38.5V45.8334C34.8338 46.3396 35.2446 46.7497 35.7508 46.7492C36.0833 46.7489 36.3896 46.5686 36.5512 46.2779L40.8723 38.5H46.1276L37.1901 55H39.2755L48.2167 38.5H48.5833C52.1255 38.496 54.996 35.6255 55 32.0834C55 31.5771 54.5896 31.1667 54.0833 31.1667ZM11 20.1667V16.8007L25.1543 10.1402C25.4928 10.9977 25.6667 11.9114 25.6667 12.8334V20.1667C25.6667 24.2168 22.3834 27.5 18.3333 27.5C14.2833 27.5 11 24.2168 11 20.1667ZM18.3526 43.3694L15.5238 39.4167H21.3318L18.3526 43.3694ZM22.7187 37.5834H14.2083L11.5839 33.9167H11.9167C13.9417 33.9167 15.5833 32.2751 15.5833 30.25V28.9108C17.3734 29.4742 19.2933 29.4742 21.0833 28.9108V30.25C21.0833 32.2751 22.725 33.9167 24.75 33.9167H25.4833L22.7187 37.5834ZM48.5833 36.6667H41.3417C41.7799 34.534 43.656 33.0024 45.8333 33H53.075C52.6367 35.1328 50.7606 36.6643 48.5833 36.6667Z" fill="white"/>
</g>
<defs>
<clipPath id="clip0">
<rect width="55" height="55" fill="white"/>
</clipPath>
</defs>
</svg>
