<svg width="172" height="55" viewBox="0 0 172 55" fill="none" xmlns="http://www.w3.org/2000/svg">
<path d="M34.6151 14.8384C36.0784 14.8384 37.2646 16.0129 37.2646 17.4617C37.2646 18.9106 36.0784 20.0851 34.6151 20.0851H25.128C22.2014 20.0851 19.8289 22.4341 19.8289 25.3318V39.0366C19.8289 39.1863 19.8341 39.336 19.8444 39.4853C20.0947 43.0989 23.2562 45.8275 26.9059 45.5797C33.5044 45.1317 38.1597 42.7142 41.1284 38.3051C41.9401 37.0996 43.5851 36.7738 44.8027 37.5775C46.0202 38.3812 46.3492 40.0099 45.5375 41.2154C41.607 47.0529 35.4316 50.2599 27.2684 50.8141C22.7809 51.1188 18.7034 48.9236 16.4261 45.4284C15.6385 42.7108 17.3787 39.5628 19.3588 37.6023C17.668 38.7184 16.1412 39.9968 14.7783 41.4375C14.6695 40.9194 14.5953 40.3874 14.5577 39.8442C14.5391 39.5754 14.5298 39.3061 14.5298 39.0366V25.3318C14.5298 19.5364 19.2748 14.8384 25.128 14.8384H34.6151Z" fill="#0EB58E"/>
<path d="M45.0424 23.2162C45.0424 29.5539 43.9676 33.8052 41.0862 38.3699C40.3106 39.5986 40.6878 41.217 41.9287 41.9849C43.1696 42.7528 44.8042 42.3793 45.5798 41.1507C49.0243 35.694 50.3415 30.4837 50.3415 23.2162V3.07565C50.3415 1.28372 48.5766 0.0388695 46.8884 0.57555L46.7079 0.639925C44.765 1.4094 39.8731 1.86579 32.3428 1.8899L26.4955 1.89091C11.8624 1.89091 0 13.6361 0 28.1245V51.9885C0 53.4374 1.18624 54.6119 2.64955 54.6119C4.11286 54.6119 5.2991 53.4374 5.2991 51.9885V28.1245C5.2991 16.5338 14.7891 7.13762 26.4955 7.13762H31.7091C37.2516 7.13762 41.5272 6.92928 44.627 6.47769L45.0424 6.41459V23.2162Z" fill="#0EB58E"/>
<path d="M32.4356 27.7859C27.0172 27.7859 21.6539 29.6445 16.3864 33.2953C11.2477 36.8568 5.95853 42.5924 0.466213 50.5023C-0.362792 51.6962 -0.057319 53.3294 1.14851 54.1502C2.35433 54.971 4.00389 54.6686 4.83289 53.4747C9.99576 46.0393 14.8775 40.7455 19.4253 37.5935C23.8443 34.5308 28.1676 33.0326 32.4356 33.0326C33.8989 33.0326 35.0852 31.8581 35.0852 30.4092C35.0852 28.9604 33.8989 27.7859 32.4356 27.7859Z" fill="#0EB58E"/>
<path d="M111.668 8.3817C113.289 8.3817 114.74 8.73894 116.01 9.45564C117.281 10.1725 118.284 11.1658 119.012 12.4276C119.691 13.6061 120.052 14.9511 120.098 16.4546L120.102 16.7792V22.86L120.097 23.1846C120.05 24.6313 119.695 25.9603 119.032 27.1642C118.316 28.4634 117.316 29.4995 116.038 30.2648C114.754 31.0335 113.275 31.4167 111.611 31.4167C110.179 31.4167 108.832 31.1374 107.576 30.5787C106.312 30.0162 105.238 29.1905 104.355 28.0977C104.009 27.6516 103.872 27.1555 103.973 26.6455C104.07 26.1549 104.345 25.7517 104.782 25.456C105.251 25.1477 105.766 25.0395 106.293 25.1461C106.804 25.2493 107.228 25.5149 107.533 25.9153C107.989 26.4807 108.562 26.921 109.26 27.2396C109.96 27.5591 110.761 27.7203 111.668 27.7203C112.481 27.7203 113.224 27.5303 113.905 27.1489C114.509 26.811 115.003 26.327 115.386 25.6976L115.51 25.4824L115.613 25.2806C115.854 24.7779 116.011 24.1987 116.084 23.5416L116.111 23.2553L116.122 23.0359L116.066 23.0964C115.854 23.3119 115.63 23.5131 115.394 23.6996L115.153 23.8813L114.904 24.0533C113.797 24.7835 112.523 25.1486 111.098 25.1486C109.566 25.1486 108.199 24.7879 107.01 24.0649C105.826 23.3447 104.893 22.349 104.216 21.0869C103.542 19.8281 103.206 18.3895 103.206 16.7792C103.206 15.1441 103.568 13.6902 104.296 12.4276C105.024 11.1658 106.027 10.1725 107.298 9.45564C108.569 8.73876 110.029 8.3817 111.668 8.3817ZM146.508 8.3817C147.836 8.3817 149.024 8.59173 150.068 9.01527C151.126 9.44425 151.977 10.0446 152.598 10.7997C152.962 11.2091 153.143 11.6702 153.115 12.1608C153.085 12.6683 152.833 13.1003 152.374 13.4384C151.937 13.7344 151.419 13.8284 150.855 13.7273C150.329 13.633 149.874 13.4151 149.498 13.0697C149.087 12.6803 148.651 12.4183 148.19 12.2772C147.698 12.1267 147.118 12.05 146.451 12.05C145.698 12.05 145.077 12.1733 144.583 12.4126C144.195 12.6006 144.042 12.8172 144.042 13.1251C144.042 13.3491 144.099 13.5417 144.216 13.7171C144.32 13.8732 144.584 14.054 145.017 14.2292C145.465 14.4103 146.124 14.5938 146.985 14.7753L147.25 14.8297C148.727 15.1208 149.906 15.493 150.79 15.9534C151.703 16.429 152.376 16.9965 152.798 17.6635C153.219 18.3307 153.43 19.099 153.43 19.9554C153.43 20.9317 153.163 21.8222 152.632 22.6123C152.102 23.3998 151.332 24.0214 150.334 24.4769C149.347 24.9274 148.137 25.1486 146.708 25.1486C145.31 25.1486 144.012 24.9362 142.814 24.51C141.607 24.0802 140.654 23.527 139.946 22.8297C139.543 22.4058 139.364 21.8918 139.434 21.3318C139.501 20.7895 139.77 20.3344 140.208 20.0044C140.704 19.613 141.233 19.435 141.774 19.5033C142.225 19.5602 142.626 19.7468 142.967 20.0598L143.092 20.1831C143.351 20.4686 143.803 20.7583 144.446 21.037C145.083 21.3131 145.797 21.4521 146.593 21.4521C147.597 21.4521 148.336 21.2958 148.81 21.0052C149.231 20.7466 149.419 20.4597 149.431 20.1045C149.443 19.7472 149.269 19.4358 148.855 19.1314C148.384 18.7856 147.436 18.4727 146.024 18.2229C144.01 17.8302 142.527 17.2316 141.571 16.4037C140.579 15.5449 140.071 14.4672 140.071 13.2094C140.071 12.1138 140.407 11.1821 141.079 10.4433C141.717 9.74071 142.534 9.2185 143.518 8.87792C144.475 8.54712 145.472 8.3817 146.508 8.3817ZM92.8932 8.35359C94.3001 8.35359 95.5702 8.65245 96.6949 9.25217C97.8318 9.85838 98.7308 10.7492 99.3841 11.9136C99.9919 12.9972 100.313 14.2966 100.353 15.806L100.357 16.1327L100.357 23.0721L100.348 23.2491C100.306 23.7311 100.11 24.1518 99.7697 24.4875C99.3815 24.8699 98.8849 25.0642 98.3146 25.0642C97.7443 25.0642 97.2477 24.8699 96.8595 24.4875C96.5093 24.1425 96.3137 23.7096 96.278 23.2146L96.2721 23.0474L96.2722 16.1419L96.2682 15.8884C96.2407 15.031 96.0662 14.3416 95.7539 13.8143C95.4122 13.2372 94.9605 12.8159 94.3901 12.5388C93.7985 12.2516 93.1114 12.1062 92.3226 12.1062C91.6119 12.1062 90.9783 12.2458 90.4149 12.5233C89.9236 12.7654 89.5269 13.0739 89.2267 13.4398L89.104 13.6001L88.9951 13.764C88.8127 14.0616 88.6988 14.3873 88.6535 14.7349L88.6366 14.9105L88.6298 15.1208L88.6293 23.0713L88.6215 23.2474C88.5812 23.7259 88.393 24.1444 88.0639 24.4802C87.6825 24.8694 87.1777 25.0642 86.5873 25.0642C86.017 25.0642 85.5204 24.8699 85.1322 24.4875C84.782 24.1425 84.5863 23.7096 84.5507 23.2146L84.5448 23.0474L84.5452 10.4873L84.5533 10.3048C84.5951 9.80734 84.7924 9.37991 85.1396 9.04967C85.5277 8.68058 86.0211 8.49413 86.5873 8.49413C87.115 8.49413 87.5741 8.64557 87.954 8.9657L88.0777 9.07868L88.1916 9.20436C88.2568 9.28372 88.3147 9.36735 88.3653 9.45497L88.4357 9.58937L88.4793 9.69425L88.6892 9.55213L88.8178 9.4706L88.9487 9.39129L89.2176 9.23937C90.3139 8.64844 91.5421 8.35359 92.8932 8.35359ZM157.978 1.91675C158.506 1.91675 158.965 2.06819 159.345 2.38832L159.469 2.5013L159.583 2.62697C159.844 2.94444 159.987 3.33003 160.016 3.76726L160.021 3.93361L160.02 9.59258L160.08 9.55213L160.209 9.4706L160.34 9.39129L160.609 9.23937C161.705 8.64844 162.933 8.35359 164.284 8.35359C165.691 8.35359 166.961 8.65245 168.086 9.25217C169.223 9.85838 170.122 10.7492 170.775 11.9136C171.383 12.9972 171.704 14.2966 171.744 15.806L171.748 16.1327L171.748 23.0721L171.74 23.2491C171.698 23.7311 171.502 24.1518 171.161 24.4875C170.773 24.8699 170.276 25.0642 169.706 25.0642C169.135 25.0642 168.639 24.8699 168.251 24.4875C167.9 24.1425 167.705 23.7096 167.669 23.2146L167.663 23.0474L167.663 16.1419L167.659 15.8884C167.632 15.031 167.457 14.3416 167.145 13.8143C166.803 13.2372 166.352 12.8159 165.781 12.5388C165.19 12.2516 164.503 12.1062 163.714 12.1062C163.003 12.1062 162.369 12.2458 161.806 12.5233C161.315 12.7654 160.918 13.0739 160.618 13.4398L160.495 13.6001L160.386 13.764C160.204 14.0616 160.09 14.3873 160.045 14.7349L160.028 14.9105L160.021 15.1208L160.02 23.0713L160.013 23.2474C159.972 23.7259 159.784 24.1444 159.455 24.4802C159.074 24.8694 158.569 25.0642 157.978 25.0642C157.408 25.0642 156.912 24.8699 156.523 24.4875C156.173 24.1425 155.977 23.7096 155.942 23.2146L155.936 23.0474L155.936 3.90988L155.944 3.72738C155.986 3.22996 156.184 2.80253 156.531 2.47229C156.919 2.10319 157.412 1.91675 157.978 1.91675ZM134.153 8.49413C134.739 8.49413 135.241 8.6811 135.622 9.05681C135.966 9.39581 136.155 9.83215 136.19 10.3393L136.195 10.511L136.195 23.0431L136.187 23.2193C136.147 23.6978 135.959 24.1163 135.629 24.4521C135.248 24.8412 134.743 25.0361 134.153 25.0361C133.583 25.0361 133.086 24.8418 132.698 24.4594C132.348 24.1144 132.152 23.6815 132.116 23.1865L132.11 23.0193L132.111 10.4873L132.119 10.3048C132.161 9.80734 132.358 9.37991 132.705 9.04967C133.093 8.68058 133.587 8.49413 134.153 8.49413ZM124.708 1.91675C125.277 1.91675 125.769 2.10522 126.149 2.47943C126.492 2.81706 126.682 3.24556 126.716 3.73875L126.722 3.9055L126.722 19.2401L126.727 19.4536C126.749 19.9559 126.856 20.3598 127.041 20.6716C127.187 20.9186 127.327 21.0297 127.49 21.0536L127.562 21.0586L128.301 21.0592L128.467 21.0672C128.931 21.1091 129.331 21.3057 129.639 21.6452C129.978 22.0196 130.146 22.4966 130.146 23.0474C130.146 23.6501 129.873 24.1604 129.363 24.5302C128.946 24.833 128.436 24.9972 127.844 25.03L127.619 25.0361H127.547L127.306 25.0298C126.452 24.9872 125.679 24.7285 124.999 24.2561C124.265 23.7457 123.694 23.0508 123.29 22.1816C122.932 21.4095 122.736 20.5401 122.7 19.5772L122.694 19.2527L122.695 3.88159L122.703 3.70558C122.743 3.22523 122.934 2.80823 123.267 2.47943C123.647 2.10522 124.139 1.91675 124.708 1.91675ZM79.8467 1.91715L80.0297 1.92438C80.5249 1.96201 80.9518 2.14006 81.2865 2.45798C81.6728 2.82491 81.8674 3.31093 81.8674 3.8774C81.8674 4.42997 81.6687 4.90516 81.2785 5.26217C80.9399 5.57189 80.5114 5.74159 80.0144 5.77548L79.8248 5.78183L68.998 5.78175V11.4451L76.6224 11.4459L76.8054 11.4531C77.3006 11.4908 77.7275 11.6688 78.0622 11.9867C78.4468 12.3521 78.6431 12.8285 78.6431 13.3781C78.6431 13.9277 78.4468 14.404 78.0622 14.7694C77.7191 15.0953 77.2812 15.273 76.7726 15.3052L76.6005 15.3106L68.998 15.3101V21.1709L79.8459 21.1714L80.028 21.1783C80.5196 21.2143 80.9439 21.3847 81.2785 21.6907C81.6687 22.0477 81.8674 22.5229 81.8674 23.0755C81.8674 23.6419 81.6728 24.128 81.2865 24.4949C80.9434 24.8208 80.5055 24.9985 79.9969 25.0308L79.8248 25.0361L66.9023 25.0356L66.7223 25.0273C66.2342 24.9846 65.8054 24.7873 65.4583 24.4453C65.1005 24.0929 64.8993 23.6557 64.8627 23.1589L64.8566 22.9912L64.8571 3.9372L64.8654 3.75375C64.9087 3.25482 65.1114 2.82373 65.4654 2.48659C65.8222 2.14679 66.2614 1.95706 66.7595 1.92251L66.9276 1.91675L79.8467 1.91715ZM111.668 12.0781C110.782 12.0781 110.011 12.2763 109.344 12.6707C108.674 13.0665 108.149 13.6126 107.761 14.318C107.372 15.0257 107.177 15.8431 107.177 16.7792C107.177 17.7145 107.372 18.5263 107.76 19.2238C108.147 19.9206 108.673 20.4631 109.344 20.8596C110.011 21.254 110.782 21.4521 111.668 21.4521C112.555 21.4521 113.326 21.254 113.993 20.8596C114.662 20.464 115.182 19.9232 115.56 19.2285C115.94 18.53 116.131 17.7163 116.131 16.7792C116.131 15.8413 115.94 15.0221 115.559 14.3133C115.181 13.6101 114.661 13.0656 113.993 12.6707C113.326 12.2763 112.555 12.0781 111.668 12.0781ZM134.153 2.28216C134.822 2.28216 135.413 2.52618 135.893 2.99944C136.375 3.47361 136.623 4.05804 136.623 4.72065C136.623 5.38326 136.375 5.96769 135.893 6.44186C135.413 6.91512 134.822 7.15914 134.153 7.15914C133.484 7.15914 132.893 6.91512 132.412 6.44186C131.931 5.96769 131.682 5.38326 131.682 4.72065C131.682 4.05804 131.931 3.47361 132.412 2.99944C132.893 2.52618 133.484 2.28216 134.153 2.28216Z" fill="#262A4C"/>
<path d="M105.342 37.6756C106.924 37.6756 108.301 38.0333 109.459 38.7534C110.614 39.4717 111.499 40.4636 112.105 41.7184C112.703 42.9568 113 44.3756 113 45.9691C113 46.4292 112.854 46.8374 112.554 47.1823L112.433 47.3086L112.316 47.4112C112.02 47.6462 111.669 47.7781 111.277 47.8073L111.107 47.8136L101.045 47.8133L101.113 48.0188C101.153 48.1313 101.198 48.2417 101.247 48.35L101.323 48.5109L101.45 48.7463C101.871 49.4782 102.45 50.0536 103.193 50.4799C103.934 50.9048 104.789 51.1183 105.768 51.1183C106.285 51.1183 106.819 51.0206 107.372 50.8231C107.935 50.6222 108.38 50.3957 108.711 50.1447C109.09 49.8641 109.514 49.7128 109.968 49.6997C110.445 49.686 110.876 49.8359 111.243 50.1495C111.675 50.5338 111.921 50.9889 111.949 51.4978C111.979 52.0427 111.736 52.5181 111.277 52.8721C110.577 53.4332 109.716 53.8854 108.698 54.2313C107.683 54.5762 106.706 54.7499 105.768 54.7499C104.099 54.7499 102.604 54.3868 101.292 53.6582C99.9787 52.9285 98.9456 51.9168 98.2015 50.6308C97.4576 49.3453 97.0868 47.8739 97.0868 46.2271C97.0868 44.5663 97.436 43.0901 98.1378 41.8069C98.8414 40.5205 99.8203 39.5067 101.067 38.7744C102.315 38.0412 103.744 37.6756 105.342 37.6756ZM122.978 37.6756C124.56 37.6756 125.937 38.0333 127.095 38.7534C128.25 39.4717 129.134 40.4636 129.741 41.7184C130.339 42.9568 130.636 44.3756 130.636 45.9691C130.636 46.4292 130.49 46.8374 130.189 47.1823L130.069 47.3086L129.951 47.4112C129.656 47.6462 129.305 47.7781 128.913 47.8073L128.742 47.8136L118.68 47.8133L118.748 48.0188C118.789 48.1313 118.833 48.2417 118.882 48.35L118.959 48.5109L119.085 48.7463C119.507 49.4782 120.086 50.0536 120.829 50.4799C121.57 50.9048 122.425 51.1183 123.404 51.1183C123.921 51.1183 124.455 51.0206 125.008 50.8231C125.571 50.6222 126.015 50.3957 126.347 50.1447C126.726 49.8641 127.15 49.7128 127.604 49.6997C128.08 49.686 128.512 49.8359 128.879 50.1495C129.311 50.5338 129.557 50.9889 129.585 51.4978C129.615 52.0427 129.371 52.5181 128.913 52.8721C128.212 53.4332 127.352 53.8854 126.334 54.2313C125.319 54.5762 124.342 54.7499 123.404 54.7499C121.735 54.7499 120.24 54.3868 118.928 53.6582C117.614 52.9285 116.581 51.9168 115.837 50.6308C115.093 49.3453 114.723 47.8739 114.723 46.2271C114.723 44.5663 115.072 43.0901 115.773 41.8069C116.477 40.5205 117.456 39.5067 118.703 38.7744C119.951 38.0412 121.38 37.6756 122.978 37.6756ZM80.3469 31.0838L80.5182 31.0914C80.9885 31.1313 81.3977 31.3182 81.7208 31.6444C82.0878 32.0148 82.2729 32.4922 82.2729 33.0424C82.2729 33.5375 82.123 33.9738 81.8103 34.3407L81.7 34.4604L81.5785 34.5705C81.274 34.822 80.909 34.9634 80.5003 34.9948L80.3224 35.0015L74.8033 35.0008L74.8035 52.5864L74.7951 52.7668C74.7522 53.2547 74.5537 53.6835 74.2093 54.0312C73.814 54.4301 73.3126 54.6353 72.7399 54.6353C72.2245 54.6353 71.7668 54.4691 71.3787 54.1306L71.2519 54.0114L71.1338 53.8795C70.8632 53.5492 70.7119 53.1593 70.6816 52.726L70.6759 52.5615L70.6753 35.0008L65.1045 35.001L64.9333 34.9933C64.463 34.9534 64.0538 34.7665 63.7307 34.4404C63.3637 34.07 63.1786 33.5926 63.1786 33.0424C63.1786 32.4922 63.3637 32.0148 63.7307 31.6444C64.0626 31.3094 64.4832 31.1229 64.9659 31.0889L65.129 31.0833L80.3469 31.0838ZM92.2784 37.6183C93.5205 37.6183 94.4763 37.8285 95.1475 38.2763C95.8988 38.7775 96.2272 39.4625 96.0337 40.2137C95.9526 40.5957 95.785 40.9119 95.5245 41.1439C95.2836 41.3584 95.0004 41.4977 94.6854 41.5555C94.4518 41.5984 94.2076 41.5986 93.9624 41.5604L93.7784 41.5245C92.6433 41.2918 91.6369 41.2741 90.757 41.4657C89.9768 41.6355 89.3618 41.9306 88.9098 42.3384L88.7791 42.4641L88.6669 42.5859C88.3564 42.9454 88.1728 43.3729 88.1152 43.8728L88.0994 44.0636L88.0947 44.2494L88.0943 52.638L88.0878 52.8254C88.0531 53.3313 87.8865 53.7575 87.579 54.0803C87.2201 54.4569 86.7104 54.6353 86.0874 54.6353C85.4896 54.6353 84.9916 54.4655 84.6262 54.1109C84.292 53.7866 84.1171 53.3421 84.0854 52.8023L84.0801 52.6188L84.0805 39.7867L84.0874 39.5985C84.1236 39.089 84.2982 38.6599 84.618 38.337C84.9835 37.9682 85.4853 37.7903 86.0874 37.7903C86.6444 37.7903 87.1097 37.9281 87.4751 38.237L87.5932 38.3464L87.6883 38.4551C87.7807 38.5717 87.8567 38.7001 87.9169 38.8397L87.9719 38.983L87.9986 39.0733L88.066 39.0205C88.1773 38.9361 88.2918 38.8548 88.4093 38.7765L88.5877 38.6613L88.864 38.4972C89.9002 37.9115 91.0417 37.6183 92.2784 37.6183ZM105.342 41.3072C104.368 41.3072 103.554 41.5181 102.885 41.9346C102.281 42.3111 101.81 42.8102 101.471 43.4301L101.363 43.6412L101.255 43.8808L101.164 44.1142L101.083 44.3533H109.09L109.03 44.1314C108.981 43.9671 108.924 43.8076 108.86 43.6528L108.758 43.4241C108.444 42.7635 108.002 42.2482 107.43 41.8683C106.868 41.496 106.177 41.3072 105.342 41.3072ZM122.978 41.3072C122.004 41.3072 121.189 41.5181 120.521 41.9346C119.916 42.3111 119.445 42.8102 119.107 43.4301L118.999 43.6412L118.891 43.8808L118.8 44.1142L118.719 44.3533H126.725L126.666 44.1314C126.616 43.9671 126.56 43.8076 126.496 43.6528L126.394 43.4241C126.079 42.7635 125.638 42.2482 125.065 41.8683C124.504 41.496 123.813 41.3072 122.978 41.3072Z" fill="#0EB58E"/>
</svg>
