<svg width="190" height="190" viewBox="0 0 190 190" fill="none" xmlns="http://www.w3.org/2000/svg">
<g filter="url(#filter0_d)">
<circle cx="95" cy="88" r="75" fill="white"/>
</g>
<path d="M139.805 70.207V125.617L50.293 121.652V70.207C50.293 66.5156 53.2812 63.5273 56.9727 63.5273H133.125C136.816 63.5469 139.805 66.5352 139.805 70.207Z" fill="#9D9DA3"/>
<path d="M139.805 119.738V125.617L50.293 121.652V119.738H139.805Z" fill="#7E7E82"/>
<path d="M145 121.652H45.0977V123.312C45.0977 129.152 49.8242 133.879 55.6641 133.879H134.434C140.273 133.879 145 129.152 145 123.312V121.652Z" fill="#9D9DA3"/>
<path d="M63.7305 133.977H55.5664C49.7266 133.977 45 129.25 45 123.41V121.75H53.1641V123.41C53.1641 129.25 57.8906 133.977 63.7305 133.977Z" fill="#7E7E82"/>
<path d="M101.934 127.355H88.1641C85.2148 127.355 82.8125 124.953 82.8125 122.004V121.633H107.285V122.004C107.285 124.953 104.883 127.355 101.934 127.355Z" fill="#7E7E82"/>
<path d="M133.691 70.207V115.52H56.4258V70.207C56.4258 69.8945 56.6797 69.6406 56.9727 69.6406H133.125C133.438 69.6602 133.691 69.9141 133.691 70.207Z" fill="#2A74B4"/>
<path d="M133.691 70.207V115.52H94.9414V70.207C94.9414 69.8945 95.0586 69.6406 95.2148 69.6406H133.398C133.555 69.6602 133.691 69.9141 133.691 70.207Z" fill="#E65B56"/>
<path d="M95.0586 54.1523C95.0586 54.5234 95.0391 54.9141 95 55.2656C94.4531 59.9141 90.4883 63.5273 85.6836 63.5273C80.8789 63.5273 76.9336 59.9141 76.3672 55.2656C76.3281 54.8945 76.3086 54.5234 76.3086 54.1523C76.3086 53.7812 76.3281 53.3906 76.3672 53.0391C76.9141 48.3906 80.8789 44.7773 85.6836 44.7773C90.4883 44.7773 94.4336 48.3906 95 53.0391C95.0195 53.4102 95.0586 53.7812 95.0586 54.1523Z" fill="#EAEAEA"/>
<path d="M80.4492 55.2852C80.4102 54.9141 80.3906 54.543 80.3906 54.1719C80.3906 53.8008 80.4102 53.4102 80.4492 53.0586C80.918 49.0937 83.8867 45.8711 87.7148 45.0312C87.0508 44.8945 86.3672 44.8164 85.6836 44.8164C80.8789 44.8164 76.9336 48.4297 76.3672 53.0781C76.3281 53.4492 76.3086 53.8203 76.3086 54.1914C76.3086 54.5625 76.3281 54.9531 76.3672 55.3047C76.9141 59.9531 80.8789 63.5664 85.6836 63.5664C86.3867 63.5664 87.0703 63.4883 87.7148 63.3516C83.8672 62.4727 80.918 59.25 80.4492 55.2852Z" fill="#BFBFBF"/>
<path d="M95.0586 54.1523C95.0586 54.5234 95.0391 54.9141 95 55.2656H76.3867C76.3477 54.8945 76.3281 54.5234 76.3281 54.1523C76.3281 53.7812 76.3477 53.3906 76.3867 53.0391H95C95.0195 53.4102 95.0586 53.7812 95.0586 54.1523Z" fill="#7E7E82"/>
<path d="M85.6641 57.6094C87.5733 57.6094 89.1211 56.0616 89.1211 54.1523C89.1211 52.2431 87.5733 50.6953 85.6641 50.6953C83.7548 50.6953 82.207 52.2431 82.207 54.1523C82.207 56.0616 83.7548 57.6094 85.6641 57.6094Z" fill="#7E7E82"/>
<path d="M88.0664 85.2852L88.1055 94.3281C88.1055 99.9531 83.5547 104.504 77.9297 104.504C76.4258 104.504 75 104.172 73.7109 103.586C70.6055 102.16 68.3398 99.2305 67.8516 95.7148C67.4023 95.5586 66.9727 95.3047 66.6211 94.9336C65.332 93.6445 65.332 91.5742 66.6211 90.3047C67.9102 89.0156 69.9805 89.0156 71.2695 90.3047L72.1289 85.4023L72.7148 82.0625L88.0664 85.2852Z" fill="#FCD2BE"/>
<path d="M73.7109 103.566C70.6055 102.141 68.3398 99.2109 67.8516 95.6953C67.4023 95.5391 66.9727 95.2852 66.6211 94.9141C65.332 93.625 65.332 91.5547 66.6211 90.2852C67.9102 88.9961 69.9805 88.9961 71.2695 90.2852L71.3672 87.9219L74.8047 85.9297C73.6719 87.8828 68.9063 94.9922 73.7109 103.566Z" fill="#FAB998"/>
<path d="M67.8125 85.4024V89.5235C68.9648 89.0938 70.332 89.3477 71.25 90.2852V87.8243C71.9336 87.8243 72.5 87.7266 73.0078 87.5704C75.9961 86.5938 76.1719 83.1759 76.1719 83.1759C79.4141 86.418 88.0859 85.4024 88.0859 85.4024C88.0859 83.1173 87.1484 81.0274 85.6641 79.543C84.1602 78.0391 82.0898 77.1212 79.8047 77.1212H76.1133C71.5234 77.1016 67.8125 80.8321 67.8125 85.4024Z" fill="#7E7E82"/>
<path d="M67.8125 85.4024V89.5234C68.9648 89.0938 70.332 89.3477 71.25 90.2852V87.8242C71.9336 87.8242 72.5 87.7266 73.0078 87.5703C72.1289 82.7852 74.2773 77.1016 78.3203 77.1016H76.0937C71.5234 77.1016 67.8125 80.832 67.8125 85.4024Z" fill="#393A42"/>
<path d="M78.3984 93.4688C77.5586 93.4688 76.875 92.7852 76.875 91.9453V90.2656C76.875 89.4258 77.5586 88.7422 78.3984 88.7422C79.2383 88.7422 79.9219 89.4258 79.9219 90.2656V91.9453C79.9414 92.7852 79.2578 93.4688 78.3984 93.4688Z" fill="#464649"/>
<path d="M83.7891 93.4688C82.9492 93.4688 82.2656 92.7852 82.2656 91.9453V90.2656C82.2656 89.4258 82.9492 88.7422 83.7891 88.7422C84.6289 88.7422 85.3125 89.4258 85.3125 90.2656V91.9453C85.332 92.7852 84.6484 93.4688 83.7891 93.4688Z" fill="#404040"/>
<path d="M79.8827 101.066C79.8632 101.066 79.8241 101.066 79.8046 101.066C77.3632 100.93 75.4882 99.8555 74.3944 97.9414C73.9843 97.1992 74.2382 96.2813 74.9608 95.8516C75.703 95.4414 76.621 95.6953 77.0507 96.418C77.6171 97.4141 78.5741 97.9414 79.9608 98.0195C80.8007 98.0586 81.4452 98.7813 81.4061 99.6211C81.3671 100.441 80.703 101.066 79.8827 101.066Z" fill="white"/>
<path d="M106.074 108.234V95.6758L103.223 85.1289C103.223 80.6953 106.816 77.1016 111.25 77.1016H119.805C124.238 77.1016 127.832 80.6953 127.832 85.1289V107.219L124.375 108.234" fill="#F4AF40"/>
<path d="M113.809 77.1016H119.805C124.238 77.1016 127.832 80.6953 127.832 85.1289V108.234H122.695V85.1289C122.676 80.6953 118.242 77.1016 113.809 77.1016Z" fill="#F79D3E"/>
<path d="M103.242 85.1289V93.4297C103.242 98.7617 107.559 103.078 112.891 103.078C114.316 103.078 115.664 102.766 116.895 102.219C119.844 100.871 121.992 98.0976 122.441 94.7578C122.871 94.6016 123.262 94.3672 123.613 94.0156C124.824 92.8047 124.824 90.832 123.613 89.6211C122.402 88.4102 120.43 88.4102 119.219 89.6211V85.1484H117.852L103.242 85.1289Z" fill="#FCD2BE"/>
<path d="M116.875 102.199C119.824 100.852 121.973 98.0781 122.422 94.7383C122.852 94.582 123.242 94.3477 123.594 93.9961C124.805 92.7852 124.805 90.8125 123.594 89.6016C122.383 88.3906 120.41 88.3906 119.199 89.6016L119.258 85.0703L115.859 85.1289C116.934 86.9844 121.445 94.0742 116.875 102.199Z" fill="#FAB998"/>
<path d="M112.5 92.707C111.66 92.707 110.977 92.0234 110.977 91.1836V89.582C110.977 88.7422 111.66 88.0586 112.5 88.0586C113.34 88.0586 114.023 88.7422 114.023 89.582V91.1836C114.023 92.0234 113.34 92.707 112.5 92.707Z" fill="#464649"/>
<path d="M107.324 92.707C106.484 92.707 105.801 92.0234 105.801 91.1836V89.582C105.801 88.7422 106.484 88.0586 107.324 88.0586C108.164 88.0586 108.848 88.7422 108.848 89.582V91.1836C108.848 92.0234 108.164 92.707 107.324 92.707Z" fill="#464649"/>
<path d="M111.035 99.9141C110.234 99.9141 109.551 99.2892 109.512 98.4688C109.473 97.629 110.117 96.9063 110.957 96.8673C112.246 96.7892 113.125 96.3204 113.652 95.4024C114.062 94.6603 115 94.4063 115.742 94.836C116.484 95.2462 116.738 96.1837 116.309 96.9259C115.254 98.7618 113.457 99.8165 111.113 99.9337C111.094 99.9142 111.055 99.9141 111.035 99.9141Z" fill="white"/>
<path d="M103.984 43H133.906C135.801 43 137.344 44.543 137.344 46.4375V61.5352C137.344 63.4297 135.801 64.9727 133.906 64.9727H117.031V71.1836L111.484 64.9727H103.984C102.09 64.9727 100.547 63.4297 100.547 61.5352V46.4375C100.547 44.543 102.09 43 103.984 43Z" fill="#2A74B4"/>
<path d="M131.133 50.2656H117.656C116.973 50.2656 116.426 49.7188 116.426 49.0352C116.426 48.3516 116.973 47.8047 117.656 47.8047H131.133C131.816 47.8047 132.363 48.3516 132.363 49.0352C132.363 49.7188 131.797 50.2656 131.133 50.2656Z" fill="white"/>
<path d="M112.461 50.2656H106.777C106.094 50.2656 105.547 49.7188 105.547 49.0352C105.547 48.3516 106.094 47.8047 106.777 47.8047H112.461C113.145 47.8047 113.691 48.3516 113.691 49.0352C113.691 49.7188 113.125 50.2656 112.461 50.2656Z" fill="white"/>
<path d="M131.133 55.168H128.203C127.52 55.168 126.973 54.6211 126.973 53.9375C126.973 53.2539 127.52 52.707 128.203 52.707H131.133C131.816 52.707 132.363 53.2539 132.363 53.9375C132.363 54.6211 131.797 55.168 131.133 55.168Z" fill="white"/>
<path d="M122.988 55.168H106.758C106.074 55.168 105.527 54.6211 105.527 53.9375C105.527 53.2539 106.074 52.707 106.758 52.707H122.988C123.672 52.707 124.219 53.2539 124.219 53.9375C124.219 54.6211 123.672 55.168 122.988 55.168Z" fill="white"/>
<path d="M123.711 60.0703H106.758C106.074 60.0703 105.527 59.5234 105.527 58.8398C105.527 58.1562 106.074 57.6094 106.758 57.6094H123.711C124.395 57.6094 124.941 58.1562 124.941 58.8398C124.941 59.5234 124.395 60.0703 123.711 60.0703Z" fill="white"/>
<defs>
<filter id="filter0_d" x="0" y="0" width="190" height="190" filterUnits="userSpaceOnUse" color-interpolation-filters="sRGB">
<feFlood flood-opacity="0" result="BackgroundImageFix"/>
<feColorMatrix in="SourceAlpha" type="matrix" values="0 0 0 0 0 0 0 0 0 0 0 0 0 0 0 0 0 0 127 0"/>
<feOffset dy="7"/>
<feGaussianBlur stdDeviation="10"/>
<feColorMatrix type="matrix" values="0 0 0 0 0.0761458 0 0 0 0 0.262556 0 0 0 0 0.425 0 0 0 0.1 0"/>
<feBlend mode="normal" in2="BackgroundImageFix" result="effect1_dropShadow"/>
<feBlend mode="normal" in="SourceGraphic" in2="effect1_dropShadow" result="shape"/>
</filter>
</defs>
</svg>
