<svg width="190" height="190" viewBox="0 0 190 190" fill="none" xmlns="http://www.w3.org/2000/svg">
<g filter="url(#filter0_d)">
<circle cx="95" cy="88" r="75" fill="white"/>
</g>
<path d="M120.471 67.3919C119.678 67.3919 119.005 66.778 118.965 65.9659C118.926 65.1341 119.56 64.4211 120.391 64.3814C122.273 64.2824 123.56 63.5694 124.333 62.2028C124.749 61.4898 125.66 61.2323 126.393 61.6482C127.106 62.0642 127.363 62.9752 126.947 63.708C125.66 65.9659 123.442 67.2533 120.55 67.3919C120.53 67.3919 120.49 67.3919 120.471 67.3919Z" fill="white"/>
<path d="M80.6806 84.4845C79.1357 85.0588 77.5314 86.168 75.9073 87.7723C75.7093 87.9703 75.531 88.1486 75.333 88.3268C72.3819 91.06 69.7675 91.8325 67.7671 91.8325C66.5788 91.8325 65.6083 91.5552 64.9151 91.2779C61.4688 89.8519 59.6665 86.1878 59.6665 83.2961C59.6665 82.4643 60.3399 81.7909 61.1718 81.7909C62.0036 81.7909 62.677 82.4643 62.677 83.2961C62.677 85.1381 63.8654 87.594 66.0638 88.4853C68.2821 89.3963 71.0153 88.3862 73.7881 85.6332C73.8673 85.554 73.9466 85.4748 74.0258 85.3955C75.8677 83.613 77.7493 82.3454 79.6308 81.6522C80.4033 81.3551 81.2747 81.7513 81.5718 82.5435C81.8689 83.3357 81.4728 84.1874 80.6806 84.4845Z" fill="#FCD2BE"/>
<path d="M119.678 91.8324C117.539 91.8324 114.727 90.9609 111.538 87.7722C109.934 86.1679 108.329 85.0587 106.765 84.4844C105.992 84.1873 105.576 83.3356 105.874 82.5434C106.171 81.771 107.022 81.355 107.815 81.6521C109.775 82.3849 111.736 83.7119 113.657 85.6331C116.41 88.3861 119.144 89.3962 121.362 88.4852C123.56 87.5741 124.749 85.1182 124.749 83.2762C124.749 82.4444 125.422 81.771 126.254 81.771C127.086 81.771 127.759 82.4444 127.759 83.2762C127.759 86.1679 125.957 89.832 122.511 91.258C121.837 91.5749 120.867 91.8324 119.678 91.8324Z" fill="#B37854"/>
<path d="M104.309 136.495C104.309 137.208 103.834 137.802 103.16 137.96C103.041 138 102.923 138 102.804 138H84.9189C84.0871 138 83.4137 137.327 83.4137 136.495C83.4137 135.663 84.0871 134.99 84.9189 134.99H102.804C103.636 134.99 104.309 135.663 104.309 136.495Z" fill="#ED8E40"/>
<path d="M104.309 136.495C104.309 137.208 103.834 137.802 103.16 137.96H90.524C89.6922 137.96 89.0188 137.287 89.0188 136.455C89.0188 135.742 89.5139 135.148 90.1675 134.99H102.784C103.636 134.99 104.309 135.663 104.309 136.495Z" fill="#F79D3E"/>
<path d="M77.7097 44.1597V59.3904C77.7097 66.3621 72.0452 72.0266 65.0735 72.0266C63.2118 72.0266 61.4292 71.6106 59.8448 70.8976C55.9826 69.1349 53.1702 65.4906 52.576 61.1333C52.0214 60.9353 51.4867 60.6184 51.0311 60.1628C49.4467 58.5784 49.4467 55.9838 51.0311 54.3993C52.6156 52.8148 55.2102 52.8148 56.7946 54.3993L57.8642 48.3189L58.597 44.1795C58.5772 44.1597 77.7097 44.1597 77.7097 44.1597Z" fill="#FCD2BE"/>
<path d="M59.8448 70.8976C55.9826 69.1349 53.1702 65.4906 52.576 61.1333C52.0214 60.9352 51.4867 60.6183 51.0311 60.1628C49.4467 58.5783 49.4467 55.9837 51.0311 54.3993C52.6156 52.8148 55.2102 52.8148 56.7946 54.3993L57.8642 48.3188L61.1717 48.9922C59.7853 51.4086 53.8634 60.2222 59.8448 70.8976Z" fill="#FAB998"/>
<path d="M83.6317 38C83.6317 44.0606 78.7198 48.9725 72.6592 48.9725H61.1718V49.9826C61.1718 52.3989 59.211 54.3795 56.7749 54.3795C55.6063 53.2109 53.8832 52.894 52.4374 53.4486V48.9923C52.4374 42.9317 57.3492 38.0198 63.4098 38.0198C63.4297 38 83.6317 38 83.6317 38Z" fill="#F9CE55"/>
<path d="M72.3819 38H63.4296C57.3492 38 52.4374 42.9317 52.4374 48.9923V53.4684C53.8832 52.9138 55.6063 53.2109 56.7749 54.3993C59.1912 54.3993 61.1718 52.4385 61.1718 50.0024V48.9923H61.3896C61.4094 42.9317 66.3213 38 72.3819 38Z" fill="#E2A11E"/>
<path d="M66.9352 57.7465C66.2222 57.7465 65.6281 57.1523 65.6281 56.4393V54.3399C65.6281 53.6269 66.2222 53.0327 66.9352 53.0327C67.6483 53.0327 68.2424 53.6269 68.2424 54.3399V56.4393C68.2424 57.1523 67.6483 57.7465 66.9352 57.7465Z" fill="#404040"/>
<path d="M72.362 57.7465C71.649 57.7465 71.0548 57.1523 71.0548 56.4393V54.3399C71.0548 53.6269 71.649 53.0327 72.362 53.0327C73.075 53.0327 73.6692 53.6269 73.6692 54.3399V56.4393C73.6692 57.1523 73.0948 57.7465 72.362 57.7465Z" fill="#404040"/>
<path d="M67.5096 67.3919C67.4898 67.3919 67.4502 67.3919 67.4304 67.3919C64.5388 67.2335 62.3205 65.9659 61.0331 63.708C60.6172 62.995 60.8747 62.0642 61.5877 61.6482C62.3007 61.2323 63.2316 61.4898 63.6475 62.2028C64.4199 63.5496 65.7469 64.2824 67.5889 64.3814C68.4207 64.4211 69.0545 65.1341 69.0149 65.9659C68.9753 66.7582 68.3019 67.3919 67.5096 67.3919Z" fill="white"/>
<path d="M75.3527 88.3268C72.4017 91.0601 69.7873 91.8325 67.7869 91.8325C66.5985 91.8325 65.628 91.5552 64.9348 91.2779C61.4886 89.8519 59.6863 86.1878 59.6863 83.2961C59.6863 82.4643 60.3597 81.7909 61.1915 81.7909C62.0234 81.7909 62.6968 82.4643 62.6968 83.2961C62.6968 85.1381 63.8851 87.594 66.0836 88.4853C68.3018 89.3964 71.0351 88.3863 73.8079 85.6332C73.8871 85.554 73.9663 85.4748 74.0456 85.3956L75.3527 88.3268Z" fill="#0B8D7A"/>
<path d="M109.954 129.285C109.934 129.88 109.577 130.414 109.043 130.632L104.329 132.633C104.131 132.712 103.933 132.751 103.735 132.751C103.14 132.751 102.586 132.415 102.348 131.84C102.031 131.068 102.388 130.196 103.14 129.86L106.923 128.255C106.884 127.859 106.765 127.483 106.527 126.711C106.428 126.394 106.329 126.017 106.191 125.582L109.122 124.849C109.241 125.225 109.34 125.562 109.419 125.839C109.815 127.226 109.973 127.741 109.954 129.285Z" fill="#EF4A6E"/>
<path d="M117.678 131.563C117.658 132.157 117.302 132.692 116.767 132.91L112.053 134.91C111.855 134.99 111.657 135.029 111.459 135.029C110.865 135.029 110.31 134.692 110.073 134.118C109.756 133.346 110.112 132.474 110.865 132.137L114.648 130.533C114.608 130.137 114.489 129.761 114.252 128.988C114.133 128.632 114.014 128.196 113.855 127.642L116.826 127.047C116.945 127.463 117.044 127.8 117.143 128.097C117.559 129.503 117.718 130.018 117.678 131.563Z" fill="#EF4A6E"/>
<path d="M78.185 129.285C78.2048 129.88 78.5613 130.414 79.096 130.632L83.8098 132.633C84.0079 132.712 84.206 132.751 84.404 132.751C84.9982 132.751 85.5528 132.415 85.7904 131.84C86.1073 131.068 85.7508 130.196 84.9982 129.86L81.2153 128.255C81.2549 127.859 81.3737 127.483 81.6114 126.711C81.7104 126.394 81.8094 126.017 81.9481 125.582L79.0168 124.849C78.898 125.225 78.7989 125.562 78.7197 125.839C78.3038 127.226 78.1453 127.741 78.185 129.285Z" fill="#0B8D7A"/>
<path d="M71.0548 131.563C71.0746 132.157 71.4311 132.692 71.9659 132.91L76.6797 134.91C76.8778 134.99 77.0758 135.029 77.2739 135.029C77.8681 135.029 78.4226 134.692 78.6603 134.118C78.9772 133.346 78.6207 132.474 77.8681 132.137L74.0851 130.533C74.1247 130.137 74.2436 129.761 74.4813 128.988C74.6001 128.632 74.7189 128.196 74.8774 127.642L71.9065 127.047C71.7876 127.463 71.6886 127.8 71.5896 128.097C71.1737 129.503 71.0152 130.018 71.0548 131.563Z" fill="#0B8D7A"/>
<path d="M71.8471 109.321C71.8471 107.38 70.2824 105.815 68.3414 105.815H47.0105V68.818C47.0105 67.9861 46.3371 67.3127 45.5052 67.3127C44.6734 67.3127 44 67.9861 44 68.818V136.495C44 137.327 44.6734 138 45.5052 138C46.3371 138 47.0105 137.327 47.0105 136.495V124.789H65.6875V136.495C65.6875 137.327 66.3609 138 67.1927 138C68.0246 138 68.698 137.327 68.698 136.495V123.74C68.7376 123.601 68.7772 123.443 68.7772 123.284C68.7772 123.126 68.7574 122.967 68.698 122.829V112.827V112.807C70.4607 112.629 71.8471 111.123 71.8471 109.321ZM47.0105 121.779V112.827H65.6875V121.779H47.0105Z" fill="#F79D3E"/>
<path d="M77.2739 135.049C77.0758 135.049 76.8777 135.009 76.6797 134.93L71.9659 132.93C71.4113 132.692 71.0548 132.177 71.0548 131.583C71.0152 130.038 71.1736 129.523 71.5896 128.137C71.8867 127.166 72.3224 125.701 72.9958 122.948C74.6397 116.233 74.402 111.282 72.3224 108.628C71.0746 107.043 69.094 106.231 66.4598 106.231C65.628 106.231 64.9546 105.558 64.9546 104.726C64.9546 103.894 65.628 103.221 66.4598 103.221C70.0249 103.221 72.8769 104.449 74.6991 106.766C77.4125 110.212 77.8284 115.897 75.9271 123.661C75.2338 126.493 74.7783 128.018 74.4812 129.008C74.2436 129.781 74.1445 130.137 74.0851 130.553L77.868 132.157C78.6405 132.474 78.997 133.365 78.6603 134.138C78.4028 134.712 77.8482 135.049 77.2739 135.049Z" fill="#50515B"/>
<path d="M84.4832 132.771C84.2852 132.771 84.0871 132.732 83.8891 132.652L79.1555 130.652C78.6009 130.414 78.2444 129.899 78.2444 129.305C78.2048 127.76 78.3632 127.245 78.7791 125.859C79.0762 124.888 79.512 123.423 80.1854 120.67C81.8292 113.956 81.5916 109.004 79.512 106.35C78.2642 104.766 76.2836 103.954 73.6494 103.954C72.8176 103.954 72.1442 103.28 72.1442 102.448C72.1442 101.617 72.8176 100.943 73.6494 100.943C77.2145 100.943 80.0665 102.171 81.8887 104.488C84.6021 107.935 85.018 113.619 83.1166 121.383C82.4234 124.215 81.9679 125.74 81.6708 126.73C81.4331 127.503 81.3341 127.859 81.2747 128.275L85.0576 129.88C85.83 130.196 86.1865 131.088 85.8498 131.86C85.632 132.435 85.0774 132.771 84.4832 132.771Z" fill="#50515B"/>
<path d="M89.3357 79.3943V73.6506H98.387H101.813L98.387 79.0774C100.209 80.4044 101.397 82.5633 101.397 84.9994C101.397 86.9008 100.684 88.6239 99.4961 89.9311H88.6227C87.4343 88.6239 86.7213 86.9008 86.7213 84.9994C86.7213 82.7613 87.7314 80.7411 89.3357 79.3943Z" fill="#2A74B4"/>
<path d="M92.4848 79.3943C91.9105 80.7411 91.5341 82.7613 91.5341 84.9994C91.5341 86.9008 91.7916 88.6239 92.2274 89.9311H88.6227C87.4343 88.6239 86.7213 86.9008 86.7213 84.9994C86.7213 82.7415 87.7314 80.7411 89.3357 79.3943V73.6506H92.4848V79.3943Z" fill="#246493"/>
<path d="M75.5311 104.152C75.5311 104.152 67.3711 108.232 59.0922 106.627C56.0025 106.033 52.8929 104.647 50.1993 101.933C50.1993 101.933 52.7939 84.6033 57.6266 74.4825C58.2801 73.1357 58.9535 71.9275 59.6864 70.8778L62.6969 71.1155L68.7971 71.5908C68.7971 72.4425 68.8961 74.1062 69.1338 76.265C69.8666 83.6724 71.9462 97.0018 75.5311 104.152Z" fill="#3DB275"/>
<path d="M59.0922 106.647C56.0025 106.053 52.8929 104.667 50.1993 101.953C50.1993 101.953 53.5267 79.7112 59.6864 70.8976L62.6969 71.1353L63.5683 72.0067C61.3105 76.6215 56.0223 94.5458 59.0922 106.647Z" fill="#0B8D7A"/>
<path d="M123.778 104.726C123.778 105.558 123.105 106.231 122.273 106.231C119.639 106.231 117.658 107.043 116.41 108.628C114.331 111.282 114.093 116.233 115.737 122.948C116.193 124.849 116.549 126.136 116.826 127.087C116.945 127.503 117.044 127.84 117.143 128.137C117.559 129.523 117.718 130.038 117.678 131.583C117.658 132.177 117.302 132.712 116.767 132.93L112.053 134.93C111.855 135.009 111.657 135.049 111.459 135.049C110.865 135.049 110.31 134.712 110.073 134.138C109.756 133.365 110.112 132.494 110.865 132.157L114.648 130.553C114.608 130.157 114.489 129.781 114.252 129.008C114.133 128.652 114.014 128.216 113.855 127.661C113.578 126.711 113.241 125.443 112.806 123.641C110.924 115.877 111.34 110.193 114.034 106.746C115.856 104.429 118.708 103.201 122.273 103.201C123.085 103.221 123.778 103.894 123.778 104.726Z" fill="#B37854"/>
<path d="M143.901 71.9473C143.069 71.9473 142.396 72.6207 142.396 73.4525V105.815H121.085C119.144 105.815 117.579 107.38 117.579 109.321C117.579 111.123 118.945 112.629 120.708 112.807V112.827V122.868C120.669 123.007 120.649 123.146 120.649 123.284C120.649 123.423 120.669 123.561 120.708 123.7V136.495C120.708 137.327 121.382 138 122.213 138C123.045 138 123.719 137.327 123.719 136.495V124.789H142.396V136.495C142.396 137.327 143.069 138 143.901 138C144.733 138 145.406 137.327 145.406 136.495V73.4525C145.406 72.6207 144.733 71.9473 143.901 71.9473ZM142.396 121.779H123.719V112.827H142.396V121.779Z" fill="#F79D3E"/>
<path d="M135.523 84.9004L132.453 80.5035L110.251 48.715C109.221 44.8925 109.617 38 120.272 38C122.629 38 124.966 38.0396 127.205 38.2773C135.127 39.1091 141.861 42.3177 143.584 54.5379C145.802 70.2242 135.523 84.9004 135.523 84.9004Z" fill="#6B4B3D"/>
<path d="M111.241 92.4465C111.241 93.1397 110.964 93.7735 110.508 94.229C110.053 94.6846 109.419 94.9618 108.726 94.9618H78.1651C76.7787 94.9618 75.6498 93.8329 75.6498 92.4465C75.6498 91.7533 75.9271 91.1195 76.3826 90.664C76.8381 90.2084 77.4719 89.9312 78.1651 89.9312H108.726C110.112 89.9312 111.241 91.0601 111.241 92.4465Z" fill="#ED8E40"/>
<path d="M111.241 92.4465C111.241 93.1397 110.964 93.7735 110.508 94.229C110.053 94.6846 109.419 94.9618 108.726 94.9618H87.5135C86.1271 94.9618 84.9982 93.8329 84.9982 92.4465C84.9982 91.7533 85.2755 91.1195 85.731 90.664C86.1865 90.2084 86.8203 89.9312 87.5135 89.9312H108.726C110.112 89.9312 111.241 91.0601 111.241 92.4465Z" fill="#F79D3E"/>
<path d="M96.9808 94.9618H90.7419V136.515H96.9808V94.9618Z" fill="#ED8E40"/>
<path d="M96.961 98.5071H93.9109V136.515H96.961V98.5071Z" fill="#F79D3E"/>
<path d="M116.034 102.448C116.034 103.28 115.361 103.954 114.529 103.954C111.895 103.954 109.914 104.766 108.666 106.35C106.587 109.004 106.349 113.956 107.993 120.67C108.468 122.631 108.825 123.938 109.102 124.869C109.221 125.245 109.32 125.582 109.399 125.859C109.815 127.245 109.973 127.76 109.934 129.305C109.914 129.899 109.558 130.434 109.023 130.652L104.309 132.652C104.111 132.732 103.913 132.771 103.715 132.771C103.121 132.771 102.566 132.435 102.328 131.86C102.012 131.088 102.368 130.216 103.121 129.88L106.904 128.275C106.864 127.879 106.745 127.503 106.507 126.73C106.408 126.414 106.309 126.037 106.171 125.601C105.893 124.631 105.517 123.324 105.062 121.383C103.18 113.619 103.596 107.935 106.29 104.488C108.112 102.171 110.964 100.943 114.529 100.943C115.361 100.943 116.034 101.617 116.034 102.448Z" fill="#B37854"/>
<path d="M135.523 84.9004L132.453 80.5035C133.245 71.6701 135.563 39.1488 127.224 38.2971C135.147 39.129 141.881 42.3375 143.604 54.5578C145.802 70.2242 135.523 84.9004 135.523 84.9004Z" fill="#5B3D2D"/>
<path d="M112.509 103.973C112.509 103.973 120.629 108.034 128.848 106.449C131.918 105.855 135.008 104.469 137.702 101.795C137.702 101.795 135.127 84.5637 130.314 74.4825C129.68 73.1356 128.987 71.9275 128.274 70.8976L125.283 71.1353L119.223 71.6106C119.223 72.4622 119.124 74.1061 118.886 76.2452C118.133 83.5932 116.074 96.8433 112.509 103.973Z" fill="#EF4A6E"/>
<path d="M128.868 106.429C131.938 105.835 135.028 104.449 137.722 101.775C137.722 101.775 134.414 79.6518 128.294 70.8976L125.303 71.1353L124.432 71.9869C126.65 76.5819 131.918 94.427 128.868 106.429Z" fill="#D8254F"/>
<path d="M136.949 60.1628C136.494 60.6183 135.979 60.9352 135.404 61.1333C134.691 66.3026 130.869 70.4619 125.878 71.67C124.927 71.9077 123.917 72.0265 122.887 72.0265C115.915 72.0265 110.251 66.3621 110.251 59.3904V48.715C110.251 48.715 115.856 48.9131 118.054 46.7146C121.263 50.8738 125.442 51.468 128.195 51.2898C129.958 51.1709 131.166 50.7352 131.166 50.7352V54.3993C132.334 53.2307 134.057 52.9138 135.503 53.4684C136.018 53.6665 136.513 53.9834 136.929 54.3993C138.534 55.9838 138.534 58.5585 136.949 60.1628Z" fill="#B37854"/>
<path d="M136.949 60.1628C136.494 60.6184 135.979 60.9353 135.404 61.1333C134.691 66.3027 130.869 70.4619 125.878 71.6701C132.433 68.0654 128.254 51.5077 128.215 51.2898C129.977 51.171 131.186 50.7352 131.186 50.7352V54.3993C132.354 53.2308 134.077 52.9139 135.523 53.4684C136.038 53.6665 136.533 53.9834 136.949 54.3993C138.534 55.9838 138.534 58.5586 136.949 60.1628Z" fill="#946032"/>
<path d="M121.045 57.7465C120.332 57.7465 119.738 57.1523 119.738 56.4393V54.3399C119.738 53.6269 120.332 53.0327 121.045 53.0327C121.758 53.0327 122.352 53.6269 122.352 54.3399V56.4393C122.352 57.1523 121.758 57.7465 121.045 57.7465Z" fill="#404040"/>
<path d="M115.618 57.7465C114.905 57.7465 114.311 57.1523 114.311 56.4393V54.3399C114.311 53.6269 114.905 53.0327 115.618 53.0327C116.331 53.0327 116.925 53.6269 116.925 54.3399V56.4393C116.905 57.1523 116.331 57.7465 115.618 57.7465Z" fill="#404040"/>
<defs>
<filter id="filter0_d" x="0" y="0" width="190" height="190" filterUnits="userSpaceOnUse" color-interpolation-filters="sRGB">
<feFlood flood-opacity="0" result="BackgroundImageFix"/>
<feColorMatrix in="SourceAlpha" type="matrix" values="0 0 0 0 0 0 0 0 0 0 0 0 0 0 0 0 0 0 127 0"/>
<feOffset dy="7"/>
<feGaussianBlur stdDeviation="10"/>
<feColorMatrix type="matrix" values="0 0 0 0 0.0761458 0 0 0 0 0.262556 0 0 0 0 0.425 0 0 0 0.1 0"/>
<feBlend mode="normal" in2="BackgroundImageFix" result="effect1_dropShadow"/>
<feBlend mode="normal" in="SourceGraphic" in2="effect1_dropShadow" result="shape"/>
</filter>
</defs>
</svg>
