<svg width="20" height="20" viewBox="0 0 20 20" fill="none" xmlns="http://www.w3.org/2000/svg">
<path d="M6.87545 14.8895C6.76741 14.8895 6.65937 14.8615 6.56297 14.8059C6.36949 14.6943 6.25049 14.4879 6.25049 14.2645V5.62504C6.25049 5.40164 6.36949 5.19596 6.56237 5.08428C6.75585 4.9726 6.99389 4.97076 7.18737 5.08368L14.6874 9.40129C14.8809 9.51237 15.0005 9.71929 15.0005 9.94269C15.0005 10.1661 14.8815 10.3724 14.6874 10.4841L7.18737 14.806C7.09089 14.8615 6.98285 14.8895 6.87545 14.8895ZM7.50045 6.70597V13.183L13.123 9.94265C13.123 9.94265 7.50045 6.70597 7.50045 6.70597Z" fill="#198C7A"/>
<path d="M10 20C4.48609 20 0 15.5139 0 9.99998C0 4.48605 4.48609 0 10 0C15.514 0 20 4.48609 20 10C20 15.514 15.5139 20 10 20ZM10 1.25C5.17521 1.25 1.25 5.17517 1.25 10C1.25 14.8249 5.17517 18.75 10 18.75C14.8249 18.75 18.75 14.8248 18.75 10C18.75 5.17521 14.8248 1.25 10 1.25Z" fill="#198C7A"/>
</svg>
