<svg width="362" height="235" viewBox="0 0 362 235" fill="none" xmlns="http://www.w3.org/2000/svg">
<path fill-rule="evenodd" clip-rule="evenodd" d="M42.9789 131.623C42.9789 131.623 20.5902 135.286 9.31519 106.349C38.2752 107.317 42.9789 131.623 42.9789 131.623ZM287.848 72.5735C281.622 12.2798 236.776 8.2019 236.776 8.2019C236.583 13.145 237.048 18.0918 238.159 22.9124C238.084 22.8768 238.014 22.8302 237.952 22.7742C237.952 22.7742 213.753 63.7379 257.089 102.524C263.246 85.3372 263.868 71.1796 261.701 59.9019C269.58 65.6677 278.438 69.9608 287.848 72.5735ZM149.873 136.945C149.873 136.945 195.146 132.66 183.306 103.93C163.165 101.937 149.873 136.945 149.873 136.945ZM212.127 140.332C212.127 140.332 193.682 181.699 223.46 196.409C241.606 176.446 212.127 140.332 212.127 140.332ZM299.273 147.37C299.273 147.37 319.113 131.07 297.197 105.52C276.238 124.654 299.25 147.37 299.25 147.37H299.273ZM311.781 102.144C311.781 102.144 302.662 133.42 341.571 147.232C349.918 112.155 311.758 102.144 311.758 102.144H311.781ZM301.486 180.478C301.486 180.478 300.656 213.412 341.433 216.592C340.511 180.178 301.463 180.524 301.463 180.524L301.486 180.478ZM148.927 74.8774C148.927 74.8774 156.536 104.287 121.627 120.449C118.999 82.2499 148.927 74.8774 148.927 74.8774Z" fill="url(#paint0_linear)"/>
<defs>
<linearGradient id="paint0_linear" x1="162.842" y1="97.9627" x2="260.176" y2="222.057" gradientUnits="userSpaceOnUse">
<stop stop-color="#149572"/>
<stop offset="1" stop-color="#18AE85"/>
</linearGradient>
</defs>
</svg>
