<svg width="624" height="648" viewBox="0 0 624 648" fill="none" xmlns="http://www.w3.org/2000/svg">
<mask id="mask0" mask-type="alpha" maskUnits="userSpaceOnUse" x="0" y="0" width="624" height="648">
<rect width="624" height="648" transform="matrix(-1 0 0 1 624 0)" fill="#C4C4C4"/>
</mask>
<g mask="url(#mask0)">
<path fill-rule="evenodd" clip-rule="evenodd" d="M404.889 1491.35C404.889 1491.35 329.126 1478.28 314.441 1473.2C278.617 1460.85 232.707 1454.4 217.861 1453.91C201.562 1453.35 157.67 1452.86 134.432 1436C110.792 1418.81 105.224 1408.97 99.9799 1376.78C92.0727 1328.21 91.9114 1270.35 91.75 1210.57C91.5886 1146.42 89.6522 1106.32 89.6522 1066.87C89.6522 990.7 81.4223 888.875 81.4223 814.968C81.4223 741.06 75.2096 740.979 75.2096 676.673C75.2096 612.367 61.251 491.259 116.924 436.554C172.516 381.931 64.7205 406.701 63.1068 359.904C62.0579 331.018 2.10888 -18.9129 -0.0696195 -53.2041C-1.2799 -72.8912 0.495176 69.518 -0.0696195 56.3663C-0.957155 35.4688 -0.0696195 24.8991 -0.0696195 17.3954C-0.0696195 -37.4705 -0.0696195 1491.35 -0.0696195 1491.35H404.889Z" fill="url(#paint0_linear)"/>
<path fill-rule="evenodd" clip-rule="evenodd" d="M384.476 119.058C384.476 119.058 300.805 112.119 301.854 -2.37268C401.904 27.0774 384.476 119.058 384.476 119.058Z" fill="url(#paint1_linear)"/>
<path fill-rule="evenodd" clip-rule="evenodd" d="M351.072 189.497C337.033 168.519 334.209 155.044 328.319 140.521C311.617 99.6135 288.622 86.2198 278.294 71.2123C267.966 56.2049 261.431 35.8723 264.739 32.1608C279.666 67.0167 314.199 84.6868 338.485 116.557C346.634 127.208 364.466 140.117 372.534 135.922C378.666 132.775 380.845 170.374 373.583 189.255C368.742 201.599 356.074 196.92 351.072 189.497Z" fill="url(#paint2_linear)"/>
<path opacity="0.8" fill-rule="evenodd" clip-rule="evenodd" d="M346.553 182.235C342.519 180.944 334.209 154.963 328.319 140.521C311.617 99.6135 288.622 86.2198 278.294 71.2123C267.966 56.2049 261.431 35.8723 264.739 32.1608C271.758 48.5398 279.988 63.4666 292.575 75.5693C306.776 89.1244 320.169 108.005 333.079 124.868C336.064 128.821 359.786 154.963 368.258 175.054C377.133 195.871 370.759 210.717 370.436 217.252C370.194 221.69 351.314 183.687 346.553 182.235Z" fill="url(#paint3_linear)"/>
<path fill-rule="evenodd" clip-rule="evenodd" d="M312.908 93.078C312.908 93.078 272.969 70.1634 244.406 99.0487C288.622 125.271 312.908 93.078 312.908 93.078Z" fill="url(#paint4_linear)"/>
<path fill-rule="evenodd" clip-rule="evenodd" d="M68.9161 514.335C68.9161 480.044 161.059 389.838 202.934 359.903C259.898 319.319 320.896 248.961 348.167 222.658C382.378 189.658 467.097 121.64 506.713 50.9603C549.315 -24.9644 546.088 -104.116 563.112 -146.476C596.112 -228.129 571.988 -267.665 571.988 -267.665C571.988 -267.665 556.819 -251.851 541.65 -196.501C526.481 -141.151 496.063 -29.8055 485.897 12.3121C475.811 54.5104 352.363 148.912 291.607 212.169C265.304 239.521 235.773 267.277 203.015 295.436C194.624 302.698 152.748 324.079 101.271 334.246C80.9382 338.28 42.048 334.246 42.048 334.246C42.048 334.246 37.0455 504.975 68.9161 514.335Z" fill="url(#paint5_linear)"/>
<path opacity="0.8" fill-rule="evenodd" clip-rule="evenodd" d="M68.9161 514.335C68.9161 480.044 161.058 389.838 202.934 359.903C259.898 319.319 320.896 248.961 348.167 222.658C382.378 189.658 467.097 121.64 506.713 50.9603C549.315 -24.9644 546.088 -104.116 563.112 -146.476C596.112 -228.129 571.988 -267.665 571.988 -267.665C571.988 -267.665 556.819 -251.851 541.65 -196.501C526.481 -141.151 522.85 -29.8055 512.684 12.3121C502.598 54.5104 352.363 191.756 291.607 255.013C265.304 282.365 244.406 301.81 211.648 329.889C193.978 345.057 116.44 362.163 91.5079 402.747C66.7376 443.413 37.0455 504.975 68.9161 514.335Z" fill="url(#paint6_linear)"/>
<path fill-rule="evenodd" clip-rule="evenodd" d="M452.735 88.8016C452.735 88.8016 421.591 103.002 403.194 62.4176C443.94 52.8968 452.735 88.8016 452.735 88.8016Z" fill="url(#paint7_linear)"/>
<path fill-rule="evenodd" clip-rule="evenodd" d="M453.381 87.1073C453.381 87.1073 436.033 92.5938 423.688 72.3419C446.684 69.5986 453.381 87.1073 453.381 87.1073Z" fill="url(#paint8_linear)"/>
<path fill-rule="evenodd" clip-rule="evenodd" d="M449.427 119.946C448.055 114.137 446.845 108.892 445.877 104.293C440.955 81.4592 426.997 44.7475 426.997 44.7475C426.997 44.7475 414.894 14.652 412.312 3.67879C407.471 -16.8959 410.214 -27.627 411.021 -28.3532C411.586 -28.8373 415.055 -12.9423 421.107 4.56634C426.109 18.9283 433.451 34.6619 437.244 40.6326C445.231 53.2195 453.945 67.9848 458.706 77.1022C462.659 84.6866 468.63 89.3664 476.779 91.1415C482.104 92.2711 452.493 132.936 449.427 119.946Z" fill="url(#paint9_linear)"/>
<path opacity="0.8" fill-rule="evenodd" clip-rule="evenodd" d="M445.877 104.212C440.955 81.3785 424.818 39.9064 423.124 34.2584C422.317 31.5151 416.992 20.0578 413.038 6.26069C411.505 0.854788 410.617 -9.39221 410.617 -9.39221C410.617 -9.39221 416.992 9.56877 420.219 16.9918C432.322 44.7475 441.6 60.8038 445.957 68.7109C454.268 83.9604 456.366 96.0632 456.366 100.501C456.366 104.939 450.799 127.046 445.877 104.212Z" fill="url(#paint10_linear)"/>
<path fill-rule="evenodd" clip-rule="evenodd" d="M379.312 97.2735C379.312 97.2735 393.593 42.2462 354.38 16.6691C337.759 77.7477 379.312 97.2735 379.312 97.2735Z" fill="url(#paint11_linear)"/>
<path fill-rule="evenodd" clip-rule="evenodd" d="M400.451 143.264C400.451 143.264 445.07 134.711 461.126 190.061C404.808 190.061 400.451 143.264 400.451 143.264Z" fill="url(#paint12_linear)"/>
<path fill-rule="evenodd" clip-rule="evenodd" d="M400.451 143.264C400.451 143.264 445.07 134.711 461.126 190.061C450.799 180.379 438.615 171.181 428.368 161.822C420.138 154.076 400.451 143.264 400.451 143.264Z" fill="url(#paint13_linear)"/>
<path opacity="0.8" fill-rule="evenodd" clip-rule="evenodd" d="M177.518 1491.83C177.518 1491.83 129.349 1481.51 109.259 1475.54C59.476 1460.69 72.3049 1397.51 66.1729 1368.63C60.0408 1339.74 59.7988 1273.18 59.9601 1220.65C60.1215 1171.6 59.9601 1147.07 59.9601 1110.44C59.9601 1034.35 35.1898 975.369 35.1898 901.462C35.1898 827.474 36.2387 780.354 36.2387 720.324C36.2387 680.304 39.2241 591.228 37.0456 496.584C35.9967 449.222 28.9771 405.894 28.9771 377.332C28.9771 291.644 28.9771 1491.92 28.9771 1491.92H177.518V1491.83Z" fill="url(#paint14_linear)"/>
<path fill-rule="evenodd" clip-rule="evenodd" d="M165.173 277.685C165.173 277.685 130.479 276.394 123.298 229.274C166.303 239.521 165.173 277.685 165.173 277.685Z" fill="url(#paint15_linear)"/>
<path fill-rule="evenodd" clip-rule="evenodd" d="M172.677 233.228C172.677 233.228 153.878 251.866 124.992 232.582C152.909 213.944 172.677 233.228 172.677 233.228Z" fill="url(#paint16_linear)"/>
<path fill-rule="evenodd" clip-rule="evenodd" d="M48.4221 258.886C48.4221 258.886 68.0286 260.257 71.0946 286.964C47.0505 280.348 48.4221 258.886 48.4221 258.886Z" fill="url(#paint17_linear)"/>
<path fill-rule="evenodd" clip-rule="evenodd" d="M17.2776 -233.939C17.1969 -234.019 17.1162 -234.1 17.1162 -234.1H190.993H503.809C503.809 -234.1 625.966 -98.0651 604.907 -90.8841C614.267 -6.00343 504.051 -4.14766 504.051 -4.14766C504.051 -4.14766 513.168 10.1336 493.965 35.8721C469.033 12.2314 434.339 -6.7296 434.339 -6.7296C434.339 -6.7296 402.791 7.63235 421.51 56.2855C389.074 53.4615 373.422 33.4516 365.837 13.6031C358.011 16.3463 349.377 17.1532 340.421 14.9747C332.837 51.6057 355.429 62.0141 355.429 62.0141C355.429 62.0141 313.553 103.809 273.291 69.1951C273.453 98.5645 256.67 129.063 256.67 129.063L215.763 93.8847C215.763 93.8847 243.277 167.55 181.391 194.58C184.699 142.296 150.408 138.826 150.408 138.826C150.408 138.826 111.114 173.682 94.4126 204.262C68.5126 185.946 68.5126 149.396 68.5126 149.396C68.5126 149.396 35.0283 156.335 16.7935 204.181C-5.3142 204.181 16.9549 -233.939 16.9549 -233.939H17.2776Z" fill="url(#paint18_linear)"/>
<path opacity="0.4" fill-rule="evenodd" clip-rule="evenodd" d="M377.456 -18.1061C406.906 26.6741 375.6 65.7257 375.6 65.7257C375.6 65.7257 347.441 45.3931 330.013 30.305C343.73 61.7722 302.096 89.0437 302.096 89.0437C302.096 89.0437 294.512 69.0338 269.177 59.513C276.68 91.9484 239.565 131.323 239.565 131.323C239.565 131.323 226.091 81.7821 210.68 73.3908C213.504 98.968 177.68 143.103 177.68 143.103C177.68 143.103 170.821 120.672 150.247 96.9509C134.755 119.139 127.009 141.65 94.4933 152.22C82.1485 145.12 86.7475 95.4178 86.7475 95.4178C86.7475 95.4178 78.9211 110.99 56.5713 119.704C35.1091 125.433 48.4221 123.738 19.2141 112.039C2.99642 105.584 13.9696 -73.6174 26.7178 -76.28C89.4101 -89.5124 144.195 -105.649 191.638 -120.173C265.546 -142.765 279.181 -259.435 319.04 -255.562C330.013 -254.513 381.894 -161.241 393.512 -146.96C405.131 -132.679 412.635 -119.124 441.116 -122.19C447.168 -113.96 423.608 -86.285 400.128 -90.7226C399.886 -70.2286 438.857 -50.9449 449.346 -52.3972C452.977 -15.9276 386.412 -4.06688 377.456 -18.1061Z" fill="url(#paint19_linear)"/>
<path fill-rule="evenodd" clip-rule="evenodd" d="M201.24 237.746C201.24 237.746 222.702 186.269 286.443 218.14C248.925 273.812 201.24 237.746 201.24 237.746Z" fill="url(#paint20_linear)"/>
<path fill-rule="evenodd" clip-rule="evenodd" d="M91.3466 179.895C91.3466 179.895 136.369 170.132 150.085 231.372C93.6057 231.695 91.3466 179.895 91.3466 179.895Z" fill="url(#paint21_linear)"/>
<path fill-rule="evenodd" clip-rule="evenodd" d="M129.914 198.049C129.914 198.049 141.533 169.648 178.971 180.863C158.154 212.734 129.914 198.049 129.914 198.049Z" fill="url(#paint22_linear)"/>
<path fill-rule="evenodd" clip-rule="evenodd" d="M221.169 244.201C221.169 244.201 172.193 229.436 189.46 162.064C244.971 192.159 221.169 244.201 221.169 244.201Z" fill="url(#paint23_linear)"/>
<path fill-rule="evenodd" clip-rule="evenodd" d="M287.734 76.9408C287.734 76.9408 235.612 72.6645 236.338 1.17749C298.627 19.493 287.734 76.9408 287.734 76.9408Z" fill="url(#paint24_linear)"/>
<path fill-rule="evenodd" clip-rule="evenodd" d="M266.837 146.976C256.186 131.081 245.536 108.085 241.017 97.0316C228.35 65.9678 210.922 55.8015 203.095 44.3442C195.269 32.8869 190.347 17.4761 192.768 14.7328C204.064 41.1975 230.286 54.6719 248.682 78.7967C254.895 86.9459 262.641 91.8677 271.92 93.5621C277.487 94.611 279.666 127.531 274.179 141.892C270.629 151.333 270.71 152.704 266.837 146.976Z" fill="url(#paint25_linear)"/>
<path opacity="0.8" fill-rule="evenodd" clip-rule="evenodd" d="M254.895 128.822C251.829 127.934 245.536 108.085 241.098 97.1123C228.43 66.0486 211.002 55.8822 203.176 44.4249C195.35 32.9677 190.428 17.5568 192.848 14.8135C198.174 27.239 204.386 38.6156 213.907 47.733C224.638 58.0607 234.805 72.4227 244.567 85.2516C246.827 88.2369 264.819 108.166 271.194 123.416C277.89 139.23 273.049 150.526 272.807 155.448C272.727 158.836 258.445 129.87 254.895 128.822Z" fill="url(#paint26_linear)"/>
<path fill-rule="evenodd" clip-rule="evenodd" d="M229.318 61.0459C229.318 61.0459 199.061 43.6986 177.357 65.645C210.922 85.5742 229.318 61.0459 229.318 61.0459Z" fill="url(#paint27_linear)"/>
<path fill-rule="evenodd" clip-rule="evenodd" d="M258.203 187.56C258.203 187.56 202.692 189.739 206.807 114.056C272.565 125.513 258.203 187.56 258.203 187.56Z" fill="url(#paint28_linear)"/>
<path fill-rule="evenodd" clip-rule="evenodd" d="M89.3295 393.469C89.3295 393.469 188.33 267.923 242.147 215.8C295.964 163.677 303.71 -2.61452 328.641 -64.742C353.654 -126.87 347.844 -156.965 347.844 -156.965C347.844 -156.965 336.306 -144.943 324.769 -102.825C313.231 -60.7078 290.155 -0.597382 282.49 31.4346C274.824 63.4666 259.494 159.724 213.342 207.812C186.232 236.133 154.604 264.937 118.376 294.307C113.616 298.179 54.3121 352.803 54.3121 352.803L89.3295 393.469Z" fill="url(#paint29_linear)"/>
<path opacity="0.5" fill-rule="evenodd" clip-rule="evenodd" d="M86.4248 348.608C68.9161 358.209 64.8012 359.258 59.6373 395.647C54.3928 432.117 80.212 418.158 80.212 390.322C80.212 362.485 103.933 338.925 86.4248 348.608Z" fill="url(#paint30_linear)"/>
<path fill-rule="evenodd" clip-rule="evenodd" d="M119.264 265.744C119.264 265.744 106.677 249.203 124.428 227.176C136.127 251.14 119.264 265.744 119.264 265.744Z" fill="url(#paint31_linear)"/>
<path fill-rule="evenodd" clip-rule="evenodd" d="M121.281 280.509C121.281 280.509 96.1877 293.096 81.261 259.773C114.1 250.898 121.281 280.509 121.281 280.509Z" fill="url(#paint32_linear)"/>
<path fill-rule="evenodd" clip-rule="evenodd" d="M125.799 317.544C122.975 303.021 120.474 291.241 118.376 282.365C112.486 257.192 100.464 247.348 95.8649 237.746C91.2658 228.064 89.4101 215.8 91.5886 213.944C96.9945 235.407 115.31 248.881 126.445 269.456C130.156 276.395 135.481 281.074 142.42 283.495C149.117 285.754 128.3 330.373 125.799 317.544Z" fill="url(#paint33_linear)"/>
<path opacity="0.8" fill-rule="evenodd" clip-rule="evenodd" d="M125.073 308.104C122.814 306.974 120.474 291.241 118.376 282.285C112.486 257.111 100.464 247.267 95.8649 237.666C91.2658 227.983 89.4101 215.719 91.5886 213.864C94.0898 223.949 97.5593 233.389 103.691 241.458C110.63 250.575 116.682 262.759 122.491 273.732C126.202 280.671 135.32 313.187 125.073 308.104Z" fill="url(#paint34_linear)"/>
<path fill-rule="evenodd" clip-rule="evenodd" d="M102.723 245.573C102.723 245.573 86.102 252.108 76.8232 230.727C98.4468 226.854 102.723 245.573 102.723 245.573Z" fill="url(#paint35_linear)"/>
<path fill-rule="evenodd" clip-rule="evenodd" d="M103.53 246.299C103.53 246.299 94.9774 241.377 99.8992 228.71C109.259 237.02 103.53 246.299 103.53 246.299Z" fill="url(#paint36_linear)"/>
<path opacity="0.8" fill-rule="evenodd" clip-rule="evenodd" d="M102.723 375.234C102.723 375.234 190.912 267.358 243.277 215.316C295.641 163.274 303.226 -2.85657 328.399 -64.9034C353.573 -126.95 347.764 -156.965 347.764 -156.965C347.764 -156.965 347.764 -144.943 336.145 -102.906C324.526 -60.7885 303.226 -8.74658 297.336 31.2732C291.526 71.293 270.225 171.423 223.67 219.431C177.115 267.438 142.904 297.857 126.283 322.869C109.823 347.801 102.723 375.234 102.723 375.234Z" fill="url(#paint37_linear)"/>
<path fill-rule="evenodd" clip-rule="evenodd" d="M229.802 232.179C243.277 226.854 259.736 217.171 267.321 212.25C288.541 198.372 303.629 199.663 313.392 195.871C323.155 192.159 332.837 184.655 332.514 181.831C314.118 193.45 292.252 190.465 270.467 197.565C263.125 199.905 256.267 199.663 249.731 196.677C245.858 194.902 230.206 214.509 227.382 225.805C225.526 233.228 224.961 234.115 229.802 232.179Z" fill="url(#paint38_linear)"/>
<path opacity="0.8" fill-rule="evenodd" clip-rule="evenodd" d="M244.406 224.837C249.328 222.255 260.14 216.768 267.643 212.008C288.864 198.372 303.952 199.663 313.634 196.032C323.316 192.401 332.998 185.059 332.756 182.315C324.123 187.641 315.409 191.917 305.565 193.45C294.511 195.144 282.086 199.582 270.548 203.294C267.885 204.181 248.279 208.619 237.709 215.154C226.817 222.013 224.88 230.969 222.944 234.196C221.572 236.213 239.484 227.418 244.406 224.837Z" fill="url(#paint39_linear)"/>
<path fill-rule="evenodd" clip-rule="evenodd" d="M254.653 209.507C254.653 209.507 274.986 208.7 280.23 181.67C254.895 187.722 254.653 209.507 254.653 209.507Z" fill="url(#paint40_linear)"/>
<path fill-rule="evenodd" clip-rule="evenodd" d="M305.162 195.709C305.162 195.709 307.018 216.445 333.644 219.431C326.382 194.015 305.162 195.709 305.162 195.709Z" fill="url(#paint41_linear)"/>
<path fill-rule="evenodd" clip-rule="evenodd" d="M308.309 196.436C308.309 196.436 320.896 203.374 334.693 189.819C317.103 184.091 308.309 196.436 308.309 196.436Z" fill="url(#paint42_linear)"/>
<path fill-rule="evenodd" clip-rule="evenodd" d="M261.431 169.81C261.431 169.81 277.729 127.692 331.869 147.218C302.338 194.096 261.431 169.81 261.431 169.81Z" fill="url(#paint43_linear)"/>
<path fill-rule="evenodd" clip-rule="evenodd" d="M189.54 263.082C189.54 263.082 212.051 219.027 265.788 252.834C228.915 299.39 189.54 263.082 189.54 263.082Z" fill="url(#paint44_linear)"/>
<path fill-rule="evenodd" clip-rule="evenodd" d="M188.491 262.597C188.491 262.597 190.993 299.47 230.851 298.583C229.318 269.778 188.491 262.597 188.491 262.597Z" fill="url(#paint45_linear)"/>
<path fill-rule="evenodd" clip-rule="evenodd" d="M246.181 175.054C246.181 175.054 264.819 136.648 238.678 111.878C214.391 153.027 246.181 175.054 246.181 175.054Z" fill="url(#paint46_linear)"/>
<path fill-rule="evenodd" clip-rule="evenodd" d="M287.573 125.271C287.573 125.271 272.242 74.6818 337.113 58.5447C343.487 122.125 287.573 125.271 287.573 125.271Z" fill="url(#paint47_linear)"/>
<path fill-rule="evenodd" clip-rule="evenodd" d="M280.553 124.545C280.553 124.545 274.098 90.6574 316.055 78.3126C316.055 121.318 280.553 124.545 280.553 124.545Z" fill="url(#paint48_linear)"/>
<path fill-rule="evenodd" clip-rule="evenodd" d="M271.597 131.081C271.597 131.081 246.988 120.672 257.154 86.0583C284.749 104.939 271.597 131.081 271.597 131.081Z" fill="url(#paint49_linear)"/>
<path fill-rule="evenodd" clip-rule="evenodd" d="M258.607 140.843C258.607 140.843 236.983 139.23 236.418 109.618C262.48 117.122 258.607 140.843 258.607 140.843Z" fill="url(#paint50_linear)"/>
<path fill-rule="evenodd" clip-rule="evenodd" d="M272.162 140.521C272.162 140.521 255.944 118.736 281.279 94.0462C296.125 124.707 272.162 140.521 272.162 140.521Z" fill="url(#paint51_linear)"/>
<path fill-rule="evenodd" clip-rule="evenodd" d="M72.5469 140.844C72.5469 140.844 93.5251 107.198 55.6031 69.6793C37.4489 116.961 72.5469 140.844 72.5469 140.844Z" fill="url(#paint52_linear)"/>
<path fill-rule="evenodd" clip-rule="evenodd" d="M41.4025 288.417C41.4025 288.417 70.8525 193.45 91.1852 159.401C111.518 125.352 172.758 56.5276 167.675 -21.4949C162.511 -99.5174 175.985 -209.491 175.985 -209.491C175.985 -209.491 157.67 -173.586 153.958 -144.056C150.247 -114.605 153.393 -38.4388 146.535 0.935562C139.758 40.2292 128.542 70.0827 100.303 98.4838C72.0628 126.885 26.5564 206.844 26.5564 206.844L41.4025 288.417Z" fill="url(#paint53_linear)"/>
<path fill-rule="evenodd" clip-rule="evenodd" d="M120.877 92.9972C114.907 72.0998 111.518 43.6179 110.55 30.1435C107.806 -7.85915 92.5569 -24.803 88.1192 -39.8911C83.6815 -54.9793 83.8429 -73.2948 87.3931 -75.4733C90.2977 -43.0379 113.777 -19.3971 125.154 13.119C128.946 24.0115 135.562 32.0799 145.083 37.1631C150.731 40.2291 141.533 76.5374 130.56 90.0925C123.379 98.9679 122.894 100.42 120.877 92.9972Z" fill="url(#paint54_linear)"/>
<path opacity="0.8" fill-rule="evenodd" clip-rule="evenodd" d="M114.261 69.1144C111.276 67.0166 111.437 43.5372 110.469 30.1435C107.726 -7.85915 92.4762 -24.803 88.0385 -39.8911C83.6009 -54.9793 83.7622 -73.2948 87.3124 -75.4733C88.684 -60.2238 91.4273 -45.7812 98.4469 -32.5488C106.435 -17.6221 112.325 1.33894 118.376 18.6055C119.748 22.6398 132.173 50.3148 133.787 69.0337C135.401 88.3981 126.283 98.8872 124.266 104.212C123.056 107.763 117.731 71.6156 114.261 69.1144Z" fill="url(#paint55_linear)"/>
<path opacity="0.8" fill-rule="evenodd" clip-rule="evenodd" d="M50.52 261.71C50.52 261.71 70.8527 193.45 91.1853 159.401C111.518 125.433 172.758 56.5276 167.675 -21.4949C162.511 -99.5174 175.985 -209.491 175.985 -209.491C175.985 -209.491 167.029 -175.119 163.398 -145.669C159.687 -116.219 163.721 -35.2114 156.944 4.16295C150.085 43.5373 132.254 89.4471 104.014 117.848C75.6938 146.249 62.4614 176.022 55.1998 195.79C47.9381 215.719 50.52 261.71 50.52 261.71Z" fill="url(#paint56_linear)"/>
<path fill-rule="evenodd" clip-rule="evenodd" d="M125.557 98.3225C125.557 98.3225 158.235 115.428 185.99 76.3762C141.694 63.1438 125.557 98.3225 125.557 98.3225Z" fill="url(#paint57_linear)"/>
<path fill-rule="evenodd" clip-rule="evenodd" d="M152.264 178.846C152.264 178.846 183.731 164.081 171.87 117.929C136.288 144.152 152.264 178.846 152.264 178.846Z" fill="url(#paint58_linear)"/>
<path fill-rule="evenodd" clip-rule="evenodd" d="M132.012 135.922C132.012 135.922 156.621 145.685 175.582 116.719C142.662 110.345 132.012 135.922 132.012 135.922Z" fill="url(#paint59_linear)"/>
<path fill-rule="evenodd" clip-rule="evenodd" d="M118.618 87.5107C118.618 87.5107 159.848 76.2148 169.53 66.8553C179.132 57.4958 215.279 8.35861 234.24 -1.08154C222.541 13.9259 204.386 31.1925 193.171 51.4445C182.037 71.6964 165.658 80.7331 151.941 89.3664C138.225 97.9997 110.953 103.244 110.953 103.244L118.618 87.5107Z" fill="url(#paint60_linear)"/>
<path opacity="0.8" fill-rule="evenodd" clip-rule="evenodd" d="M114.181 96.1439C114.181 96.1439 133.706 91.3835 141.21 88.2367C158.073 81.2978 167.997 73.4714 172.435 69.1144C178.325 63.3857 194.22 42.569 210.034 25.3024C219.959 14.4099 226.898 2.62985 234.24 -1.00098C222.541 14.0065 204.386 31.2731 193.171 51.525C182.037 71.777 165.658 80.8137 151.941 89.447C138.225 98.0803 110.953 103.325 110.953 103.325L114.181 96.1439Z" fill="url(#paint61_linear)"/>
<path fill-rule="evenodd" clip-rule="evenodd" d="M78.679 169.245C78.679 169.245 97.4786 172.391 104.256 147.863C80.454 148.589 78.679 169.245 78.679 169.245Z" fill="url(#paint62_linear)"/>
<path fill-rule="evenodd" clip-rule="evenodd" d="M63.2681 202.568C63.2681 202.568 90.5396 247.348 147.987 214.59C104.66 167.066 63.2681 202.568 63.2681 202.568Z" fill="url(#paint63_linear)"/>
<path fill-rule="evenodd" clip-rule="evenodd" d="M71.6594 173.924C71.6594 173.924 100.061 197.162 138.063 169.567C96.9945 146.814 71.6594 173.924 71.6594 173.924Z" fill="url(#paint64_linear)"/>
<path fill-rule="evenodd" clip-rule="evenodd" d="M101.674 104.132C101.674 104.132 134.916 70.244 99.9798 17.8794C66.5762 68.1462 101.674 104.132 101.674 104.132Z" fill="url(#paint65_linear)"/>
<path fill-rule="evenodd" clip-rule="evenodd" d="M39.3854 105.342C39.3854 105.342 72.6276 128.257 62.0579 160.208C37.3682 147.218 39.3854 105.342 39.3854 105.342Z" fill="url(#paint66_linear)"/>
<path fill-rule="evenodd" clip-rule="evenodd" d="M406.26 152.22C406.26 152.22 390.608 154.802 382.7 134.55C402.952 135.196 406.26 152.22 406.26 152.22ZM577.636 110.909C573.279 68.7111 541.892 65.8064 541.892 65.8064C541.892 65.8064 541.569 70.0827 542.86 76.1341C542.78 76.0534 542.699 76.0534 542.699 76.0534C542.699 76.0534 525.755 104.777 556.093 131.888C560.369 119.865 560.853 109.941 559.32 102.034C564 105.503 569.971 108.57 577.636 110.909ZM481.136 155.932C481.136 155.932 512.846 152.946 504.535 132.775C490.415 131.403 481.136 155.932 481.136 155.932ZM524.626 158.352C524.626 158.352 511.716 187.318 532.533 197.646C545.281 183.607 524.626 158.352 524.626 158.352ZM585.623 163.274C585.623 163.274 599.501 151.897 584.171 133.985C569.486 147.379 585.623 163.274 585.623 163.274ZM594.418 131.565C594.418 131.565 588.044 153.511 615.235 163.113C621.125 138.584 594.418 131.565 594.418 131.565ZM587.156 186.511C587.156 186.511 586.592 209.587 615.154 211.846C614.509 186.269 587.156 186.511 587.156 186.511ZM480.41 112.442C480.41 112.442 485.735 133.017 461.288 144.394C459.513 117.687 480.41 112.442 480.41 112.442Z" fill="url(#paint67_linear)"/>
<path fill-rule="evenodd" clip-rule="evenodd" d="M115.955 256.223C115.955 256.223 106.031 266.632 91.1045 255.174C105.789 244.927 115.955 256.223 115.955 256.223Z" fill="url(#paint68_linear)"/>
<path fill-rule="evenodd" clip-rule="evenodd" d="M212.778 235.729C212.778 235.729 189.298 227.903 194.543 194.661C221.572 210.152 212.778 235.729 212.778 235.729Z" fill="url(#paint69_linear)"/>
<path fill-rule="evenodd" clip-rule="evenodd" d="M37.2069 255.578C37.2069 255.578 37.8524 223.949 77.6301 220.964C69.4809 259.45 37.2069 255.578 37.2069 255.578Z" fill="url(#paint70_linear)"/>
<path fill-rule="evenodd" clip-rule="evenodd" d="M35.7545 262.194C35.7545 262.194 50.7619 241.942 78.4369 259.451C55.2803 280.429 35.7545 262.194 35.7545 262.194Z" fill="url(#paint71_linear)"/>
<path fill-rule="evenodd" clip-rule="evenodd" d="M177.357 301.165C177.357 301.165 199.707 311.815 189.54 343.767C164.609 325.048 177.357 301.165 177.357 301.165Z" fill="url(#paint72_linear)"/>
<path fill-rule="evenodd" clip-rule="evenodd" d="M173.403 297.05C173.403 297.05 205.919 286.803 222.783 330.211C180.746 334.326 173.403 297.05 173.403 297.05Z" fill="url(#paint73_linear)"/>
<path fill-rule="evenodd" clip-rule="evenodd" d="M41.0798 217.978C41.0798 217.978 34.9478 198.13 58.5885 186.673C61.5738 212.492 41.0798 217.978 41.0798 217.978Z" fill="url(#paint74_linear)"/>
</g>
<defs>
<linearGradient id="paint0_linear" x1="568.48" y1="867.199" x2="-189.888" y2="668.416" gradientUnits="userSpaceOnUse">
<stop stop-color="#8A4E55"/>
<stop offset="1" stop-color="#B54F3A"/>
</linearGradient>
<linearGradient id="paint1_linear" x1="315.535" y1="82.4611" x2="371.052" y2="34.029" gradientUnits="userSpaceOnUse">
<stop stop-color="#49C894"/>
<stop offset="1" stop-color="#0F6218"/>
</linearGradient>
<linearGradient id="paint2_linear" x1="381.401" y1="210.46" x2="299.578" y2="52.7516" gradientUnits="userSpaceOnUse">
<stop stop-color="#8A4E55" stop-opacity="0.01"/>
<stop offset="0.1393" stop-color="#A24E46"/>
<stop offset="1" stop-color="#B54F3A"/>
</linearGradient>
<linearGradient id="paint3_linear" x1="278.364" y1="37.3878" x2="365.151" y2="204.081" gradientUnits="userSpaceOnUse">
<stop stop-color="#874048"/>
<stop offset="0.7698" stop-color="#553952"/>
<stop offset="1" stop-color="#503953" stop-opacity="0.01"/>
</linearGradient>
<linearGradient id="paint4_linear" x1="273.435" y1="112.111" x2="283.841" y2="79.9706" gradientUnits="userSpaceOnUse">
<stop stop-color="#49C894"/>
<stop offset="1" stop-color="#0F6218"/>
</linearGradient>
<linearGradient id="paint5_linear" x1="-56.0125" y1="191.038" x2="203.958" y2="144.288" gradientUnits="userSpaceOnUse">
<stop stop-color="#8A4E55" stop-opacity="0.01"/>
<stop offset="0.182" stop-color="#AC4F40"/>
<stop offset="1" stop-color="#A94935"/>
</linearGradient>
<linearGradient id="paint6_linear" x1="639.175" y1="-83.619" x2="-31.7687" y2="352.061" gradientUnits="userSpaceOnUse">
<stop stop-color="#874048"/>
<stop offset="0.7698" stop-color="#553952"/>
<stop offset="1" stop-color="#503953" stop-opacity="0.01"/>
</linearGradient>
<linearGradient id="paint7_linear" x1="422.348" y1="89.5882" x2="433.719" y2="61.3996" gradientUnits="userSpaceOnUse">
<stop stop-color="#49C894"/>
<stop offset="1" stop-color="#0F6218"/>
</linearGradient>
<linearGradient id="paint8_linear" x1="435.964" y1="86.2047" x2="441.162" y2="73.1775" gradientUnits="userSpaceOnUse">
<stop stop-color="#49C894"/>
<stop offset="1" stop-color="#0F6218"/>
</linearGradient>
<linearGradient id="paint9_linear" x1="466.95" y1="112.709" x2="416.101" y2="17.1286" gradientUnits="userSpaceOnUse">
<stop stop-color="#8A4E55" stop-opacity="0.01"/>
<stop offset="0.2107" stop-color="#A24E46"/>
<stop offset="1" stop-color="#B54F3A"/>
</linearGradient>
<linearGradient id="paint10_linear" x1="415.551" y1="-3.92596" x2="452.943" y2="105.308" gradientUnits="userSpaceOnUse">
<stop stop-color="#874048"/>
<stop offset="0.7698" stop-color="#553952"/>
<stop offset="1" stop-color="#503953" stop-opacity="0.01"/>
</linearGradient>
<linearGradient id="paint11_linear" x1="347.975" y1="55.6749" x2="385.922" y2="58.2308" gradientUnits="userSpaceOnUse">
<stop stop-color="#49C894"/>
<stop offset="1" stop-color="#0F6218"/>
</linearGradient>
<linearGradient id="paint12_linear" x1="422.875" y1="174.798" x2="443.975" y2="153.17" gradientUnits="userSpaceOnUse">
<stop stop-color="#49C894"/>
<stop offset="1" stop-color="#0F6218"/>
</linearGradient>
<linearGradient id="paint13_linear" x1="417.616" y1="179.38" x2="444.466" y2="153.503" gradientUnits="userSpaceOnUse">
<stop stop-color="#49C894"/>
<stop offset="1" stop-color="#0F6218"/>
</linearGradient>
<linearGradient id="paint14_linear" x1="-43.8418" y1="922.68" x2="247.844" y2="961.343" gradientUnits="userSpaceOnUse">
<stop stop-color="#874048"/>
<stop offset="1" stop-color="#503953"/>
</linearGradient>
<linearGradient id="paint15_linear" x1="134.553" y1="264" x2="154.076" y2="242.92" gradientUnits="userSpaceOnUse">
<stop stop-color="#49C894"/>
<stop offset="1" stop-color="#0F6218"/>
</linearGradient>
<linearGradient id="paint16_linear" x1="149.641" y1="243.361" x2="148.096" y2="222.377" gradientUnits="userSpaceOnUse">
<stop stop-color="#49C894"/>
<stop offset="1" stop-color="#0F6218"/>
</linearGradient>
<linearGradient id="paint17_linear" x1="65.4017" y1="267.182" x2="54.0078" y2="278.655" gradientUnits="userSpaceOnUse">
<stop stop-color="#49C894"/>
<stop offset="1" stop-color="#0F6218"/>
</linearGradient>
<linearGradient id="paint18_linear" x1="99.6973" y1="-476.482" x2="329.031" y2="97.9095" gradientUnits="userSpaceOnUse">
<stop stop-color="#1C845A"/>
<stop offset="1" stop-color="#07583B"/>
</linearGradient>
<linearGradient id="paint19_linear" x1="197.508" y1="-58.5545" x2="274.341" y2="69.072" gradientUnits="userSpaceOnUse">
<stop stop-color="#098C69"/>
<stop offset="1" stop-color="#13A77F"/>
</linearGradient>
<linearGradient id="paint20_linear" x1="235.67" y1="204.163" x2="252.096" y2="251.961" gradientUnits="userSpaceOnUse">
<stop stop-color="#49C894"/>
<stop offset="1" stop-color="#0F6218"/>
</linearGradient>
<linearGradient id="paint21_linear" x1="134.602" y1="190.741" x2="114.311" y2="212.409" gradientUnits="userSpaceOnUse">
<stop stop-color="#1C845A"/>
<stop offset="1" stop-color="#07583B"/>
</linearGradient>
<linearGradient id="paint22_linear" x1="149.32" y1="177.908" x2="159.73" y2="201.149" gradientUnits="userSpaceOnUse">
<stop stop-color="#49C894"/>
<stop offset="1" stop-color="#0F6218"/>
</linearGradient>
<linearGradient id="paint23_linear" x1="185.289" y1="213.806" x2="225.513" y2="192.354" gradientUnits="userSpaceOnUse">
<stop stop-color="#49C894"/>
<stop offset="1" stop-color="#0F6218"/>
</linearGradient>
<linearGradient id="paint24_linear" x1="243.155" y1="51.1318" x2="270.771" y2="33.5405" gradientUnits="userSpaceOnUse">
<stop stop-color="#1C845A"/>
<stop offset="1" stop-color="#07583B"/>
</linearGradient>
<linearGradient id="paint25_linear" x1="287.249" y1="155.574" x2="217.044" y2="32.4778" gradientUnits="userSpaceOnUse">
<stop stop-color="#8A4E55" stop-opacity="0.01"/>
<stop offset="0.1393" stop-color="#A24E46"/>
<stop offset="1" stop-color="#B54F3A"/>
</linearGradient>
<linearGradient id="paint26_linear" x1="203.042" y1="18.801" x2="269.148" y2="145.307" gradientUnits="userSpaceOnUse">
<stop stop-color="#874048"/>
<stop offset="0.7698" stop-color="#553952"/>
<stop offset="1" stop-color="#503953" stop-opacity="0.01"/>
</linearGradient>
<linearGradient id="paint27_linear" x1="197.687" y1="74.5166" x2="205.964" y2="58.2377" gradientUnits="userSpaceOnUse">
<stop stop-color="#1C845A"/>
<stop offset="1" stop-color="#07583B"/>
</linearGradient>
<linearGradient id="paint28_linear" x1="213.215" y1="168.782" x2="251.972" y2="132.719" gradientUnits="userSpaceOnUse">
<stop stop-color="#49C894"/>
<stop offset="1" stop-color="#0F6218"/>
</linearGradient>
<linearGradient id="paint29_linear" x1="-16.2934" y1="237.29" x2="100.587" y2="178.06" gradientUnits="userSpaceOnUse">
<stop stop-color="#AB4D3D"/>
<stop offset="0.2107" stop-color="#AB4E3E"/>
<stop offset="1" stop-color="#A94935"/>
</linearGradient>
<linearGradient id="paint30_linear" x1="100.605" y1="372.04" x2="49.8976" y2="395.285" gradientUnits="userSpaceOnUse">
<stop stop-color="#874048"/>
<stop offset="0.7698" stop-color="#553952"/>
<stop offset="1" stop-color="#503953" stop-opacity="0.01"/>
</linearGradient>
<linearGradient id="paint31_linear" x1="113.572" y1="246.235" x2="130.045" y2="246.74" gradientUnits="userSpaceOnUse">
<stop stop-color="#49C894"/>
<stop offset="1" stop-color="#0F6218"/>
</linearGradient>
<linearGradient id="paint32_linear" x1="96.7245" y1="281.951" x2="105.84" y2="258.217" gradientUnits="userSpaceOnUse">
<stop stop-color="#49C894"/>
<stop offset="1" stop-color="#0F6218"/>
</linearGradient>
<linearGradient id="paint33_linear" x1="144.177" y1="324.864" x2="105.736" y2="229.538" gradientUnits="userSpaceOnUse">
<stop stop-color="#8A4E55" stop-opacity="0.01"/>
<stop offset="0.2107" stop-color="#A24E46"/>
<stop offset="1" stop-color="#B54F3A"/>
</linearGradient>
<linearGradient id="paint34_linear" x1="96.5697" y1="217.695" x2="124.916" y2="303.24" gradientUnits="userSpaceOnUse">
<stop stop-color="#874048"/>
<stop offset="0.7698" stop-color="#553952"/>
<stop offset="1" stop-color="#503953" stop-opacity="0.01"/>
</linearGradient>
<linearGradient id="paint35_linear" x1="86.6676" y1="245.204" x2="92.9828" y2="230.974" gradientUnits="userSpaceOnUse">
<stop stop-color="#49C894"/>
<stop offset="1" stop-color="#0F6218"/>
</linearGradient>
<linearGradient id="paint36_linear" x1="97.7633" y1="238.81" x2="105.708" y2="236.203" gradientUnits="userSpaceOnUse">
<stop stop-color="#49C894"/>
<stop offset="1" stop-color="#0F6218"/>
</linearGradient>
<linearGradient id="paint37_linear" x1="403.007" y1="29.9578" x2="31.3381" y2="195.562" gradientUnits="userSpaceOnUse">
<stop stop-color="#874048"/>
<stop offset="0.7698" stop-color="#553952"/>
<stop offset="1" stop-color="#503953" stop-opacity="0.01"/>
</linearGradient>
<linearGradient id="paint38_linear" x1="213.177" y1="227.875" x2="310.132" y2="182.72" gradientUnits="userSpaceOnUse">
<stop stop-color="#6F3E4A" stop-opacity="0.01"/>
<stop offset="0.1393" stop-color="#6E3E4A"/>
<stop offset="1" stop-color="#B54F3A"/>
</linearGradient>
<linearGradient id="paint39_linear" x1="324.715" y1="180.22" x2="229.685" y2="229.673" gradientUnits="userSpaceOnUse">
<stop stop-color="#874048"/>
<stop offset="0.7698" stop-color="#553952"/>
<stop offset="1" stop-color="#503953" stop-opacity="0.01"/>
</linearGradient>
<linearGradient id="paint40_linear" x1="272.792" y1="201.611" x2="261.999" y2="189.526" gradientUnits="userSpaceOnUse">
<stop stop-color="#49C894"/>
<stop offset="1" stop-color="#0F6218"/>
</linearGradient>
<linearGradient id="paint41_linear" x1="313.715" y1="213.321" x2="325.119" y2="201.598" gradientUnits="userSpaceOnUse">
<stop stop-color="#49C894"/>
<stop offset="1" stop-color="#0F6218"/>
</linearGradient>
<linearGradient id="paint42_linear" x1="322.364" y1="198.569" x2="320.698" y2="187.714" gradientUnits="userSpaceOnUse">
<stop stop-color="#49C894"/>
<stop offset="1" stop-color="#0F6218"/>
</linearGradient>
<linearGradient id="paint43_linear" x1="289.097" y1="140.764" x2="304.387" y2="176.686" gradientUnits="userSpaceOnUse">
<stop stop-color="#49C894"/>
<stop offset="1" stop-color="#0F6218"/>
</linearGradient>
<linearGradient id="paint44_linear" x1="222.243" y1="236.127" x2="233.181" y2="280.183" gradientUnits="userSpaceOnUse">
<stop stop-color="#49C894"/>
<stop offset="1" stop-color="#0F6218"/>
</linearGradient>
<linearGradient id="paint45_linear" x1="230.776" y1="264.458" x2="206.375" y2="283.082" gradientUnits="userSpaceOnUse">
<stop stop-color="#49C894"/>
<stop offset="1" stop-color="#0F6218"/>
</linearGradient>
<linearGradient id="paint46_linear" x1="226.481" y1="136.997" x2="258.242" y2="149.881" gradientUnits="userSpaceOnUse">
<stop stop-color="#49C894"/>
<stop offset="1" stop-color="#0F6218"/>
</linearGradient>
<linearGradient id="paint47_linear" x1="292.299" y1="79.832" x2="332.798" y2="104.182" gradientUnits="userSpaceOnUse">
<stop stop-color="#49C894"/>
<stop offset="1" stop-color="#0F6218"/>
</linearGradient>
<linearGradient id="paint48_linear" x1="304.5" y1="107.506" x2="288.082" y2="91.4994" gradientUnits="userSpaceOnUse">
<stop stop-color="#49C894"/>
<stop offset="1" stop-color="#0F6218"/>
</linearGradient>
<linearGradient id="paint49_linear" x1="271.017" y1="107.04" x2="253.262" y2="111.12" gradientUnits="userSpaceOnUse">
<stop stop-color="#49C894"/>
<stop offset="1" stop-color="#0F6218"/>
</linearGradient>
<linearGradient id="paint50_linear" x1="252.361" y1="122.402" x2="239.394" y2="130.092" gradientUnits="userSpaceOnUse">
<stop stop-color="#49C894"/>
<stop offset="1" stop-color="#0F6218"/>
</linearGradient>
<linearGradient id="paint51_linear" x1="283.244" y1="119.208" x2="265.994" y2="113.975" gradientUnits="userSpaceOnUse">
<stop stop-color="#49C894"/>
<stop offset="1" stop-color="#0F6218"/>
</linearGradient>
<linearGradient id="paint52_linear" x1="79.0186" y1="101.168" x2="57.1762" y2="107.095" gradientUnits="userSpaceOnUse">
<stop stop-color="#1C845A"/>
<stop offset="1" stop-color="#07583B"/>
</linearGradient>
<linearGradient id="paint53_linear" x1="-33.5813" y1="91.2081" x2="37.8184" y2="65.2322" gradientUnits="userSpaceOnUse">
<stop stop-color="#8A4E55" stop-opacity="0.01"/>
<stop offset="0.2107" stop-color="#A24E46"/>
<stop offset="1" stop-color="#B54F3A"/>
</linearGradient>
<linearGradient id="paint54_linear" x1="139.768" y1="109.338" x2="107.228" y2="-47.8946" gradientUnits="userSpaceOnUse">
<stop stop-color="#8A4E55" stop-opacity="0.01"/>
<stop offset="0.1393" stop-color="#A24E46"/>
<stop offset="1" stop-color="#B54F3A"/>
</linearGradient>
<linearGradient id="paint55_linear" x1="96.8901" y1="-67.5291" x2="123.82" y2="91.9415" gradientUnits="userSpaceOnUse">
<stop stop-color="#874048"/>
<stop offset="0.7698" stop-color="#553952"/>
<stop offset="1" stop-color="#503953" stop-opacity="0.01"/>
</linearGradient>
<linearGradient id="paint56_linear" x1="229.062" y1="-16.7122" x2="-13.8772" y2="73.0994" gradientUnits="userSpaceOnUse">
<stop stop-color="#874048"/>
<stop offset="0.7698" stop-color="#553952"/>
<stop offset="1" stop-color="#503953" stop-opacity="0.01"/>
</linearGradient>
<linearGradient id="paint57_linear" x1="161.491" y1="100.978" x2="153.067" y2="81.0479" gradientUnits="userSpaceOnUse">
<stop stop-color="#1C845A"/>
<stop offset="1" stop-color="#07583B"/>
</linearGradient>
<linearGradient id="paint58_linear" x1="175.501" y1="152.384" x2="155.843" y2="146.56" gradientUnits="userSpaceOnUse">
<stop stop-color="#1C845A"/>
<stop offset="1" stop-color="#07583B"/>
</linearGradient>
<linearGradient id="paint59_linear" x1="158.354" y1="135.523" x2="151.69" y2="122.062" gradientUnits="userSpaceOnUse">
<stop stop-color="#1C845A"/>
<stop offset="1" stop-color="#07583B"/>
</linearGradient>
<linearGradient id="paint60_linear" x1="193.551" y1="70.7279" x2="176.018" y2="54.3579" gradientUnits="userSpaceOnUse">
<stop stop-color="#8A4E55" stop-opacity="0.01"/>
<stop offset="0.2107" stop-color="#A24E46"/>
<stop offset="1" stop-color="#B54F3A"/>
</linearGradient>
<linearGradient id="paint61_linear" x1="199.766" y1="64.2427" x2="145.592" y2="38.0744" gradientUnits="userSpaceOnUse">
<stop stop-color="#874048"/>
<stop offset="0.7698" stop-color="#553952"/>
<stop offset="1" stop-color="#503953" stop-opacity="0.01"/>
</linearGradient>
<linearGradient id="paint62_linear" x1="95.98" y1="165.229" x2="86.9256" y2="151.74" gradientUnits="userSpaceOnUse">
<stop stop-color="#49C894"/>
<stop offset="1" stop-color="#0F6218"/>
</linearGradient>
<linearGradient id="paint63_linear" x1="100.557" y1="230.263" x2="110.703" y2="186.536" gradientUnits="userSpaceOnUse">
<stop stop-color="#49C894"/>
<stop offset="1" stop-color="#0F6218"/>
</linearGradient>
<linearGradient id="paint64_linear" x1="104.77" y1="185.529" x2="104.893" y2="157.725" gradientUnits="userSpaceOnUse">
<stop stop-color="#49C894"/>
<stop offset="1" stop-color="#0F6218"/>
</linearGradient>
<linearGradient id="paint65_linear" x1="119.325" y1="59.9643" x2="92.2528" y2="61.533" gradientUnits="userSpaceOnUse">
<stop stop-color="#1C845A"/>
<stop offset="1" stop-color="#07583B"/>
</linearGradient>
<linearGradient id="paint66_linear" x1="40.9751" y1="142.438" x2="60.6693" y2="122.816" gradientUnits="userSpaceOnUse">
<stop stop-color="#49C894"/>
<stop offset="1" stop-color="#0F6218"/>
</linearGradient>
<linearGradient id="paint67_linear" x1="490.165" y1="128.661" x2="558.347" y2="215.527" gradientUnits="userSpaceOnUse">
<stop stop-color="#149572"/>
<stop offset="1" stop-color="#18AE85"/>
</linearGradient>
<linearGradient id="paint68_linear" x1="85.7541" y1="255.618" x2="112.661" y2="255.78" gradientUnits="userSpaceOnUse">
<stop stop-color="#49C894"/>
<stop offset="1" stop-color="#0F6218"/>
</linearGradient>
<linearGradient id="paint69_linear" x1="194.77" y1="220.343" x2="212.535" y2="210.011" gradientUnits="userSpaceOnUse">
<stop stop-color="#49C894"/>
<stop offset="1" stop-color="#0F6218"/>
</linearGradient>
<linearGradient id="paint70_linear" x1="49.8035" y1="228.126" x2="60.9548" y2="243.072" gradientUnits="userSpaceOnUse">
<stop stop-color="#1C845A"/>
<stop offset="1" stop-color="#07583B"/>
</linearGradient>
<linearGradient id="paint71_linear" x1="54.8256" y1="249.561" x2="58.0519" y2="265.586" gradientUnits="userSpaceOnUse">
<stop stop-color="#1C845A"/>
<stop offset="1" stop-color="#07583B"/>
</linearGradient>
<linearGradient id="paint72_linear" x1="193.873" y1="317.666" x2="179.055" y2="324.494" gradientUnits="userSpaceOnUse">
<stop stop-color="#1C845A"/>
<stop offset="1" stop-color="#07583B"/>
</linearGradient>
<linearGradient id="paint73_linear" x1="205.026" y1="298.731" x2="195.21" y2="319.812" gradientUnits="userSpaceOnUse">
<stop stop-color="#1C845A"/>
<stop offset="1" stop-color="#07583B"/>
</linearGradient>
<linearGradient id="paint74_linear" x1="56.5206" y1="178.518" x2="46.2009" y2="214.431" gradientUnits="userSpaceOnUse">
<stop stop-color="#49C894"/>
<stop offset="1" stop-color="#0F6218"/>
</linearGradient>
</defs>
</svg>
