<svg width="208" height="135" viewBox="0 0 208 135" fill="none" xmlns="http://www.w3.org/2000/svg">
<path fill-rule="evenodd" clip-rule="evenodd" d="M24.695 75.6131C24.695 75.6131 11.8308 77.7175 5.35229 61.094C21.9923 61.6499 24.695 75.6131 24.695 75.6131ZM165.393 41.6911C161.816 7.05432 136.048 4.71167 136.048 4.71167C135.937 7.55132 136.204 10.3931 136.843 13.1624C136.799 13.1419 136.759 13.1152 136.723 13.083C136.723 13.083 122.819 36.6153 147.72 58.897C151.257 49.0234 151.615 40.8903 150.369 34.4117C154.897 37.724 159.986 40.1902 165.393 41.6911ZM86.1146 78.6705C86.1146 78.6705 112.128 76.2087 105.325 59.7043C93.7523 58.5595 86.1146 78.6705 86.1146 78.6705ZM121.885 80.6161C121.885 80.6161 111.287 104.38 128.397 112.831C138.823 101.362 121.885 80.6161 121.885 80.6161ZM171.958 84.6595C171.958 84.6595 183.358 75.2955 170.765 60.6175C158.722 71.6095 171.944 84.6595 171.944 84.6595H171.958ZM179.145 58.6786C179.145 58.6786 173.905 76.6455 196.262 84.58C201.058 64.4293 179.132 58.6786 179.132 58.6786H179.145ZM173.23 103.679C173.23 103.679 172.753 122.598 196.182 124.425C195.652 103.507 173.216 103.705 173.216 103.705L173.23 103.679ZM85.5714 43.0146C85.5714 43.0146 89.9434 59.9095 69.8853 69.194C68.375 47.2499 85.5714 43.0146 85.5714 43.0146Z" fill="url(#paint0_linear)"/>
<defs>
<linearGradient id="paint0_linear" x1="93.5668" y1="56.2764" x2="149.479" y2="127.576" gradientUnits="userSpaceOnUse">
<stop stop-color="#149572"/>
<stop offset="1" stop-color="#18AE85"/>
</linearGradient>
</defs>
</svg>
