<svg width="1440" height="691" viewBox="0 0 1440 691" fill="none" xmlns="http://www.w3.org/2000/svg">
<path d="M-3.75667e-05 -143.427C23.8034 -128.749 47.1572 -113.261 71.5386 -99.5872C103.923 -81.4236 136.706 -63.7231 172.443 -52.7503C201.5 -43.8229 231.585 -41.4818 261.747 -40.4269C294.312 -39.2821 325.977 -44.2474 356.781 -55.1558C366.595 -58.629 377.142 -59.9283 387.162 -62.9127C393.418 -64.7779 399.352 -67.7753 405.287 -70.5795C408.923 -72.2904 409.565 -75.1204 406.867 -78.3878C403.476 -82.5042 400.457 -86.9808 396.693 -90.7241C362.922 -124.389 337.923 -163.945 318.128 -207.038C314.827 -214.216 311.512 -221.368 308.16 -228.611C312.347 -230.888 313.221 -228.109 314.66 -225.318C326.889 -201.584 338.591 -177.542 351.758 -154.335C367.212 -127.129 388.575 -104.437 411.505 -83.4947C425.481 -70.7339 443.144 -74.9274 454.628 -89.2191C481.553 -122.729 503.34 -159.429 522.159 -197.982C526.565 -207 530.239 -216.377 534.542 -225.446C535.416 -227.286 537.613 -228.495 539.205 -230C540.028 -229.357 540.85 -228.726 541.672 -228.083C530.907 -206.755 520.618 -185.17 509.236 -164.176C500.681 -148.405 490.494 -133.548 481.515 -117.995C478.252 -112.335 475.734 -106.045 473.987 -99.7416C471.238 -89.7722 481.271 -78.4392 491.509 -78.182C526.539 -77.3073 561.57 -76.4068 596.575 -74.8246C617.899 -73.8598 639.146 -71.4157 660.458 -70.0778C673.753 -69.2417 685.16 -75.0432 696.76 -80.922C715.412 -90.3897 716.568 -107.82 716.8 -124.684C717.313 -160.137 712.727 -195.036 700.562 -228.804C704.994 -231.261 706.767 -228.096 707.602 -224.764C712.304 -205.958 717.712 -187.254 721.039 -168.19C724.186 -150.142 726.139 -131.824 724.032 -113.261C723.248 -106.431 725.085 -99.2657 725.907 -92.2807C726.897 -83.8806 731.02 -76.9343 738.291 -72.998C750.61 -66.3217 763.456 -60.6488 776.006 -54.4098C792.038 -46.4343 808.262 -38.8189 823.921 -30.1745C853.004 -14.1205 876.949 8.00509 896.257 34.9289C902.577 43.7406 907.561 53.5556 912.673 63.1649C917.709 72.6197 923.233 80.9811 934.293 84.5315C942.81 87.2586 950.44 84.9303 956.324 80.0035C969.183 69.2494 981.373 57.6206 993.204 45.7088C1004.88 33.9513 1008.31 18.3861 1008.63 2.64095C1009.36 -32.9788 1016.42 -67.1964 1027.94 -100.796C1040.67 -137.921 1062.75 -168.331 1092.79 -192.952C1107.96 -205.392 1124.26 -216.467 1140.29 -227.8C1142.69 -229.498 1146.44 -229.292 1149.58 -229.974C1149.78 -229.421 1149.99 -228.881 1150.19 -228.328C1141.02 -222.23 1131.67 -216.403 1122.73 -209.997C1089.95 -186.456 1060.16 -159.944 1041.97 -122.948C1026.72 -91.959 1017.91 -58.9636 1014.62 -24.6302C1013.98 -17.9668 1015.36 -10.9561 1016.78 -4.30553C1018.42 3.45131 1026.4 8.99556 1035.83 8.95699C1040.84 8.93123 1046.19 8.09511 1050.81 6.1913C1070.33 -1.83568 1089.81 -10.0556 1109.01 -18.8287C1169.26 -46.3313 1232.43 -56.8153 1298.29 -52.3773C1310.43 -51.5541 1322.56 -50.2677 1334.71 -49.8689C1364.89 -48.8655 1379.89 -61.3434 1390.31 -86.0675C1391.09 -87.9456 1391.12 -90.2482 1391.05 -92.345C1390.05 -125.791 1387.25 -159.018 1374.91 -190.521C1371.19 -200.002 1365.66 -208.788 1360.78 -217.792C1358.75 -221.536 1356.27 -225.022 1354.65 -229.575C1355.75 -229.074 1357.35 -228.881 1357.89 -228.019C1367.8 -212.57 1376.58 -196.786 1382.73 -179.124C1393.46 -148.38 1394.15 -116.645 1396.24 -84.8969C1397.44 -66.7719 1401.77 -49.5731 1416.09 -37.1981C1421.55 -32.49 1429 -30.0201 1435.68 -26.8042C1439.79 -24.8232 1439.91 -25.0548 1439.38 -19.0988C1421.37 -25.5307 1408.32 -16.6547 1397.23 -4.22833C1392.87 0.659851 1389.02 7.29761 1387.93 13.6652C1380.06 59.3572 1361.3 100.174 1333.52 136.836C1311.45 165.946 1288.48 194.362 1265.68 222.907C1256.69 234.163 1256.34 247.785 1254 260.932C1252.11 271.558 1256.21 280.395 1263.1 287.882C1284.11 310.702 1304.69 334.333 1330.74 351.416C1348.65 363.16 1368.2 372.885 1388.04 381.041C1402.47 386.984 1418.34 384.604 1433.18 378.983C1435.13 378.237 1437.11 377.568 1439.97 376.539C1439.97 386.444 1440.1 395.757 1439.82 405.045C1439.78 406.395 1437.99 408.119 1436.59 408.942C1426.83 414.667 1416.95 420.16 1407.14 425.781C1388.36 436.522 1368.19 441.783 1346.53 441.655C1330.09 441.552 1313.53 440.677 1297.21 442.182C1263.3 445.295 1232.97 459.085 1204.44 476.953C1182.39 490.769 1163.39 507.659 1152.18 531.933C1146.13 545.028 1140.12 558.162 1133.75 571.103C1107.85 623.664 1066.52 659.181 1012.59 680.766C1001.18 685.333 989.466 689.346 978.547 694.916C968.913 699.83 968.707 703.831 974.925 712.694C975.631 713.697 976.094 714.868 976.659 715.974C972.381 715.974 968.103 715.974 963.826 715.974C962.58 714.881 961.449 713.633 960.088 712.733C941.525 700.551 922.025 689.578 904.619 675.929C887.92 662.821 871.451 648.465 858.464 631.858C845.181 614.891 835.046 595.094 825.681 575.502C807.761 538.017 796.393 498.037 784.369 458.378C773.578 422.809 763.25 387.1 752.242 351.596C748.028 338.012 735.991 330.191 724.148 332.223C719.112 333.085 714.115 334.448 709.259 336.069C700.755 338.912 694.923 348.972 697.223 357.565C699.381 365.579 701.513 373.811 705.264 381.131C732.395 434.22 746.962 490.782 752.627 549.865C755.042 575.026 764.766 596.367 782.057 615.097C795.84 630.032 813.362 639.422 829.24 651.244C858.592 673.022 888.189 694.427 917.658 715.987C914.241 715.987 910.811 715.987 907.394 715.987C903.322 712.643 899.391 709.079 895.139 705.979C875.562 691.726 856.19 677.151 836.138 663.593C821.031 653.379 806.027 642.638 788.056 637.518C781.17 635.563 777.496 637.428 778.126 644.413C778.781 651.72 779.847 659.67 783.341 665.883C790.304 678.271 799.078 689.642 807.029 701.49C810.228 706.249 813.195 711.15 816.265 716C813.272 716 810.279 716 807.286 716C806.49 714.739 805.732 713.466 804.884 712.244C795.75 698.878 786.578 685.526 777.484 672.135C770.431 661.766 764.252 650.678 756.249 641.12C746.268 629.195 734.989 618.338 723.916 607.366C713.845 597.396 702.785 588.932 688.693 584.944C662.128 577.419 635.28 571.759 607.738 569.25C561.737 565.044 516.918 569.045 473.704 586.462C464.751 590.064 458.97 595.981 457.955 605.565C456.118 622.879 462.529 638.059 474.257 649.79C495.273 670.823 518.562 689.269 544.639 703.921C551.448 707.716 558.025 711.948 564.717 715.987C560.44 715.987 556.162 715.987 551.884 715.987C550.42 714.842 549.033 713.569 547.465 712.578C521.761 696.434 497.469 678.399 475.426 657.509C461.372 644.195 445.315 634.804 426.997 628.642C416.771 625.208 407.689 626.095 399.211 632.347C395.473 635.113 392.095 638.496 389.024 642.008C379.223 653.263 369.139 664.326 360.108 676.187C350.333 689.038 341.597 702.686 332.413 715.987C330.704 715.987 328.996 715.987 327.274 715.987C327.994 714.276 328.418 712.36 329.471 710.88C339.722 696.396 349.639 681.654 360.507 667.632C373.545 650.807 387.046 634.302 401.022 618.248C410.451 607.404 410.143 594.425 407.985 582.564C405.583 569.405 399.237 556.901 393.932 544.385C391.067 537.618 387.303 531.097 383.038 525.102C373.545 511.762 358.914 507.041 343.833 504.391C330.82 502.102 317.37 502.269 304.383 499.876C265.19 492.647 229.954 476.631 199.278 450.801C191.776 444.485 183.606 438.915 175.436 433.461C164.748 426.321 146.225 428.315 140.123 437.088C136.346 442.517 132.595 448.048 129.615 453.94C116.474 479.809 104.039 506.051 90.4863 531.714C82.1493 547.498 76.7027 563.912 75.1355 581.548C73.427 600.921 75.3153 619.406 89.677 634.611C96.4211 641.75 101.868 650.125 108.817 657.02C115.703 663.863 123.256 670.257 131.349 675.595C152.352 689.423 173.805 702.57 195.077 715.987C191.224 715.987 187.383 715.987 183.529 715.987C178.866 713.093 174.151 710.263 169.527 707.278C151.08 695.354 132.557 683.545 114.315 671.324C109.421 668.044 104.912 663.889 101.084 659.4C90.4349 646.883 80.8519 633.44 69.7402 621.374C55.1473 605.526 43.8173 602.001 27.6957 620.075C27.4131 620.397 27.1433 620.731 26.8479 621.04C17.9071 630.417 8.95357 639.808 -2.92055e-06 649.186C-3.05156e-06 646.188 -3.18257e-06 643.191 -3.31359e-06 640.194C14.0662 627.819 26.3854 613.63 32.924 596.161C38.9358 580.095 42.8281 563.05 45.8855 546.121C49.3281 527.044 50.1374 507.504 53.2975 488.363C57.3697 463.626 66.4774 440.33 74.8272 416.738C82.2264 395.796 78.7452 381.375 54.9932 379.369C36.7263 377.838 18.3439 377.632 0.012831 376.847C0.012831 374.712 0.0128309 372.564 0.0128308 370.428C13.8992 370.853 27.7856 371.046 41.6463 371.779C48.8785 372.152 56.0594 373.966 63.2916 374.236C85.2837 375.059 100.789 363.109 113.558 346.978C119.235 339.813 123.603 331.606 128.574 323.874C144.863 298.52 161.999 273.461 171.685 244.672C191.211 186.631 188.179 128.937 163.823 73.0957C142.178 23.4416 112.324 -21.4271 75.9319 -61.4977C54.8518 -84.7039 31.832 -106.135 9.51875 -128.209C6.8725 -130.82 3.21143 -132.39 0.0128087 -134.448C0.0128086 -137.445 0.0128084 -140.442 0.0128083 -143.44L-3.75667e-05 -143.427ZM1150.77 454.351C1150.77 447.675 1151.22 440.999 1150.67 434.425C1149.89 425.099 1150.22 415.066 1146.78 406.704C1140.15 390.663 1129.43 376.86 1116.87 364.704C1111.59 359.597 1105.58 358.323 1098.64 361.372C1095.55 362.736 1092.16 363.508 1088.84 364.292C1066.49 369.541 1043.75 370.75 1020.87 371.998C977.494 374.377 936.027 364.82 894.432 354.979C890.617 354.078 886.455 354.027 882.537 354.387C867.315 355.751 858.567 367.47 853.454 378.815C841.829 404.607 831.937 431.377 823.754 458.468C817.254 480.027 816.561 502.783 821.237 525.192C828.019 557.686 841.572 587.633 856.601 616.949C859.312 622.249 862.009 627.845 865.953 632.18C876.872 644.156 888.344 655.643 899.789 667.118C914.819 682.194 933.137 689.243 954.307 687.61C963.171 686.928 971.854 684.304 980.68 682.85C1007.85 678.361 1032.46 667.967 1055.58 652.916C1094.02 627.883 1121.78 594.18 1137.42 551.434C1148.79 520.355 1153.82 487.707 1150.78 454.364L1150.77 454.351ZM116.525 371.354C117.206 381.607 119.197 390.985 128.908 396.194C138.376 401.276 147.561 399.089 155.165 392.605C169.912 380.038 184.223 366.942 198.43 353.77C209.259 343.736 219.318 332.84 230.339 323.038C239.935 314.497 250.212 306.676 260.553 299.035C277.728 286.338 295.275 274.156 312.463 261.485C317.884 257.485 323.215 253.085 327.608 248.03C336.96 237.263 336.806 223.692 337.512 210.403C338.54 191.185 338.553 171.799 341.276 152.812C351.219 83.3996 377.938 20.5215 417.517 -37.1209C420.6 -41.6232 423.182 -46.7688 424.659 -52.0043C426.766 -59.4395 422.308 -63.8904 414.78 -62.0637C391.337 -56.3779 367.983 -50.332 344.591 -44.4404C334.262 -41.8419 324.037 -38.6517 313.581 -36.7865C284.061 -31.4995 254.361 -32.7087 224.739 -35.8474C197.467 -38.7289 170.567 -43.5527 145.3 -54.9243C129.936 -61.845 114.829 -69.3574 99.3243 -75.9308C94.6997 -77.8861 89.0861 -78.0662 83.9349 -78.0147C80.762 -77.9761 78.3213 -75.1975 79.9527 -71.5571C82.2906 -66.3215 84.2432 -60.5458 87.9043 -56.3265C108.997 -32.0269 127.264 -5.7591 144.079 21.615C169.424 62.8819 188.976 106.027 192.084 155.424C194.538 194.452 189.708 232.182 171.775 266.978C159.083 291.599 143.296 314.612 129.217 338.539C123.192 348.791 116.718 359.044 116.512 371.342L116.525 371.354ZM1280.93 -47.1804C1234.44 -45.6368 1194.78 -44.2217 1157.13 -30.4189C1131.12 -20.874 1105.72 -9.61827 1080.09 0.981459C1076.97 2.26784 1073.72 3.78578 1071.24 5.99837C1055.33 20.1228 1041.32 36.0095 1030.7 54.4818C1025.54 63.4478 1021.17 73.0313 1024.12 84.3C1031.09 110.928 1042.08 135.935 1054.12 160.505C1056.21 164.788 1060.27 169.304 1064.52 171.092C1074.66 175.35 1085.3 178.72 1096.01 181.19C1109.67 184.328 1124.05 184.83 1137.35 188.985C1161.45 196.523 1182.68 210.056 1201.9 226.29C1218.74 240.517 1248.76 236.285 1261.17 219.935C1283.64 190.323 1307.05 161.444 1329.65 131.922C1353.34 100.971 1369.37 66.1879 1379.44 28.6129C1382.41 17.5114 1384.59 5.99829 1379.38 -4.65289C1374.93 -13.7347 1368.57 -21.9288 1362.79 -30.316C1357.32 -38.2529 1349.36 -41.5461 1339.88 -42.2665C1317.95 -43.9259 1296.05 -45.9069 1280.95 -47.1804L1280.93 -47.1804ZM416.27 254.217C412.404 254.217 404.735 253.162 397.477 254.41C375.266 258.244 363.525 263.029 356.177 284.306C352.953 293.67 350.114 304.013 350.757 313.686C352.067 333.638 355.561 353.474 358.657 373.284C362.408 397.326 367.867 421.163 370.359 445.308C372.505 466.109 382.73 480.375 399.481 490.782C403.283 493.136 409.077 494.088 413.496 493.251C422.886 491.463 432.187 488.659 441.153 485.263C476.415 471.898 507.245 450.557 538.255 429.717C562.726 413.277 586.414 395.667 610.718 378.97C620.379 372.332 630.745 366.698 640.855 360.729C651.954 354.168 654.96 346.965 650.862 334.924C647.496 325.006 641.549 316.709 633.494 310.007C617.912 297.041 599.132 290.184 580.595 283.161C528.865 263.556 474.925 255.594 416.27 254.217ZM395.768 532.55C396.616 536.255 396.783 540.294 398.428 543.6C403.168 553.094 409.141 562.008 413.47 571.669C420.587 587.53 439.406 594.721 455.052 587.44C487.282 572.428 520.939 562.793 556.663 560.567C606.685 557.454 654.895 566.922 702.566 580.468C715.477 584.134 725.458 581.818 730.224 571.81C737.417 556.708 740.937 540.255 739.691 523.867C738.304 505.626 734.437 487.488 730.481 469.556C723.955 439.931 711.199 412.57 698.443 385.234C693.356 374.339 685.404 366.325 675.821 359.661C670.593 356.021 665.005 354.915 659.006 358.349C649.012 364.061 638.44 368.897 628.947 375.329C596.716 397.108 565.167 419.889 532.77 441.41C498.086 464.462 463.402 487.656 422.347 498.641C409.616 502.05 397.053 519.506 395.756 532.563L395.768 532.55ZM695.617 331.811C703.401 329.856 711.109 327.399 718.996 326.087C726.781 324.788 731.316 319.719 732.305 313.172C733.551 304.965 734.617 295.561 731.881 288.087C713.948 238.884 695 190.014 668.011 144.837C657.85 127.844 648.395 110.31 631.76 98.0899C621.239 90.3588 610.23 89.111 599.298 96.3147C591.45 101.473 583.806 106.979 575.726 111.725C513.629 148.143 451.43 184.38 389.32 220.784C383.822 224 378.439 227.589 373.609 231.731C369.357 235.372 368.895 241.894 373.018 245.341C376.14 247.953 380.996 249.921 385.029 249.818C428.564 248.673 471.777 251.529 514.529 259.942C567.235 270.31 616.884 288.435 661.203 319.526C671.505 326.756 682.655 330.757 695.604 331.811L695.617 331.811ZM827.017 160.466C835.83 159.386 850.05 157.996 864.142 155.771C869.293 154.961 874.958 153.237 878.94 150.098C889.756 141.582 900.187 132.475 910.053 122.84C919.096 114.002 921.216 102.605 916.707 90.9377C907.561 67.2813 895.833 44.9369 878.619 26.0144C844.436 -11.5606 804.858 -40.4012 753.706 -50.3062C733.114 -54.294 710.454 -42.5752 704.789 -23.7169C700.935 -10.8661 694.139 1.75327 686.098 12.546C672.892 30.2722 657.657 46.5063 643.129 63.2292C639.506 67.397 636.706 72.0794 639.159 77.1349C641.857 82.7177 645.261 88.6608 649.95 92.4556C660.021 100.598 671.389 107.133 681.769 114.929C723.223 146.02 770.457 158.781 827.017 160.453L827.017 160.466ZM341.225 189.281C341.739 198.003 342.214 206.724 342.766 215.433C343.152 221.569 346.415 224.926 352.465 226.393C361.521 228.593 368.779 224.438 375.999 220.347C400.072 206.737 424.106 193.063 448.025 179.196C470.763 166.01 493.371 152.606 515.967 139.19C533.553 128.744 551.075 118.209 568.533 107.571C578.835 101.293 588.11 93.6905 594.623 83.3995C600.467 74.1633 602.471 64.1682 595.894 54.5076C593.081 50.3783 588.778 47.188 584.86 43.9078C550.69 15.2088 512.332 -7.32845 474.449 -30.5089C464.879 -36.362 454.461 -40.4784 442.771 -40.9543C430.902 -41.4303 422.141 -36.8894 415.911 -27.0357C411.004 -19.266 405.891 -11.625 401.331 -3.64943C367.135 56.1927 344.809 119.727 341.225 189.281ZM939.303 191.88C937.941 180.521 936.67 166.281 934.434 152.195C932.752 141.621 925.751 136.977 915.384 139.923C905.814 142.637 896.668 146.895 887.444 150.754C879.788 153.944 872.569 158.382 864.694 160.788C846.671 166.293 827.942 166.113 809.367 165.303C773.026 163.708 738.471 154.729 706.305 137.595C695.206 131.69 684.968 124.19 674.087 117.862C671.903 116.588 667.202 116.125 666.058 117.411C664.427 119.251 663.952 123.444 664.864 125.953C667.472 133.144 670.465 140.322 674.293 146.934C694.268 181.473 708.951 218.392 723.865 255.233C729.684 269.615 735.503 284.061 742.427 297.928C750.482 314.085 764.676 320.35 782.429 322.035C800.606 323.759 818.488 328.544 836.652 330.756C845.323 331.811 854.983 331.888 863.063 329.11C878.979 323.643 891.401 312.053 903.412 300.527C910.965 293.284 918.48 285.888 925.018 277.758C929.129 272.651 933.432 266.283 934.152 260.083C936.631 238.446 937.582 216.629 939.316 191.88L939.303 191.88ZM365.889 441.256C365.683 441.23 365.465 441.218 365.26 441.192C364.759 436.316 364.425 431.402 363.731 426.553C356.935 378.532 344.475 331.361 342.33 282.672C341.674 267.904 329.921 265.782 319.22 270.503C305.423 276.587 291.588 283.572 279.667 292.667C256.262 310.535 233.641 329.534 211.726 349.216C198.623 360.986 187.768 375.226 175.32 387.782C164.607 398.587 163.862 413.792 175.115 423.993C183.94 431.994 193.472 439.211 202.567 446.916C235.722 474.972 274.388 489.817 317.023 495.67C334.763 498.101 350.23 494.769 362.177 480.799C364.399 478.201 365.555 473.994 365.722 470.47C366.197 460.758 365.889 450.994 365.889 441.256ZM1331.95 433.075C1351.62 433.461 1372.29 434.631 1391.12 425.447C1405.63 418.371 1409.19 407.72 1396.33 397.455C1386.67 389.737 1374.8 384.784 1363.91 378.622C1351.33 371.509 1337.95 365.527 1326.34 357.089C1299.95 337.922 1278.07 313.789 1255.9 290.03C1243.1 276.304 1222.23 276.536 1208.86 290.068C1203.76 295.24 1198.2 299.961 1193.16 305.196C1183.71 315.024 1172.38 323.823 1165.6 335.284C1153.34 355.982 1151.29 379.806 1152.09 403.578C1152.62 419.143 1153.87 434.696 1155 450.235C1155.55 457.876 1156.21 465.543 1157.5 473.081C1159.12 482.459 1168.32 488.312 1177.21 485.417C1182.81 483.591 1188.42 481.056 1193.24 477.699C1234.77 448.846 1279.33 429.602 1331.94 433.075L1331.95 433.075ZM1018.64 364.267C1047.54 364.382 1072.6 361.81 1096.97 354.657C1106.61 351.827 1115.19 346.373 1118.41 336.211C1122.16 324.402 1123.06 311.461 1118.09 300.398C1106.45 274.49 1093.45 249.162 1079.93 224.18C1076.78 218.379 1070 212.629 1063.73 210.776C1041.53 204.203 1019.36 207.162 1000.69 220.63C970.339 242.524 941.769 266.798 915.795 293.902C908.73 301.286 902.294 309.325 896.102 317.481C885.517 331.451 892.762 349.409 908.704 351.158C914.639 351.814 920.548 352.946 926.342 354.361C957.84 362.08 989.672 366.505 1018.63 364.267L1018.64 364.267ZM498.433 -71.9302C488.606 -70.6953 479.652 -70.6438 471.354 -68.2898C457.724 -64.4178 450.967 -60.7902 461.668 -45.8425C462.862 -44.1831 464.764 -42.9353 466.536 -41.8161C475.04 -36.4906 483.634 -31.2936 492.164 -26.0066C527.76 -3.93246 563.677 17.64 594.969 45.9145C598.476 49.079 603.268 51.5489 607.867 52.6424C623.577 56.36 638.877 56.8616 650.759 42.9173C656.976 35.6236 663.656 28.7157 669.578 21.1905C682.475 4.80203 693.857 -12.3711 696.606 -33.8792C697.775 -43.0768 693.51 -52.7504 685.366 -55.3746C676.245 -58.3075 667.022 -61.6521 657.606 -62.7455C637.322 -65.1253 616.91 -66.6046 596.511 -67.6852C563.471 -69.4347 530.406 -70.5666 498.433 -71.9173L498.433 -71.9302ZM943.349 220.437C943.234 222.842 943.195 224.566 943.067 226.264C942.566 233.056 943.966 239.257 950.299 242.768C956.838 246.396 962.708 244.724 968.45 239.861C983.429 227.203 998.535 214.674 1014.04 202.672C1021.08 197.218 1029.38 193.423 1036.73 188.329C1047.76 180.688 1049.92 173.935 1045.71 161.277C1036.29 132.925 1026.81 104.586 1017.15 76.3116C1013 64.1682 1008.53 60.4506 998.895 61.3125C989.428 62.1615 980.076 64.3612 973.435 71.8479C962.657 83.9784 952.213 96.4047 941.885 108.921C940.254 110.902 939.085 113.989 939.149 116.524C939.367 125.4 939.521 134.379 940.96 143.1C945.251 169.033 945.482 195.018 943.349 220.411L943.349 220.437ZM1118.16 192.587C1118.01 193.076 1117.89 193.565 1117.75 194.041C1114.34 194.349 1110.89 194.349 1107.55 195.005C1092.34 197.964 1084.46 208.023 1087.81 220.874C1089.57 227.628 1091.73 234.536 1095.14 240.556C1106.98 261.524 1115.75 283.971 1128.38 304.695C1138.39 321.109 1164.98 327.052 1178.08 312.58C1187.67 301.993 1198.3 292.384 1207.97 281.874C1217.71 271.287 1219.01 263.157 1212.57 251.657C1209.07 245.393 1204.88 238.948 1199.46 234.433C1181.19 219.202 1161.42 206.081 1138.85 197.938C1132.17 195.533 1125.07 194.336 1118.16 192.574L1118.16 192.587ZM780.824 327.734C780.734 328.209 780.657 328.673 780.567 329.149C778.434 329.149 776.302 329.174 774.169 329.149C765.64 329.046 761.709 331.001 760.257 339.118C758.96 346.437 758.446 354.554 760.219 361.655C765.408 382.34 771.639 402.793 777.972 423.17C784.652 444.716 791.794 466.109 799.078 487.463C799.977 490.1 802.995 492.016 805.025 494.268C806.695 491.939 809.007 489.83 809.919 487.231C813.208 477.995 815.88 468.553 819.027 459.265C827.043 435.635 834.686 411.862 843.511 388.54C847.596 377.735 849.074 367.135 847.224 356.034C845.708 346.875 841.405 338.925 831.68 336.867C814.827 333.303 797.767 330.731 780.798 327.734L780.824 327.734ZM60.1701 512.367C60.1701 515.557 59.2066 519.198 60.3884 521.86C62.2639 526.054 64.8717 530.621 68.4813 533.142C72.7205 536.113 76.7155 532.434 79.1434 528.794C85.0525 519.982 91.0002 511.158 96.1642 501.909C108.638 479.577 120.584 456.937 132.942 434.541C141.395 419.208 130.437 399.783 116.551 398.651C106.094 397.802 89.4715 403.025 85.0011 415.619C82.008 424.057 78.514 432.316 75.2511 440.664C66.259 463.729 61.2491 487.643 60.1701 512.367Z" fill="white" fill-opacity="0.05"/>
</svg>
