<svg width="15" height="16" viewBox="0 0 15 16" fill="none" xmlns="http://www.w3.org/2000/svg">
<path d="M6.86931 9.1329L0.395674 4.42449C0.383145 4.43087 0.387529 4.42864 0.375 4.43502V11.56C0.375 12.347 1.01299 12.985 1.8 12.985H13.2C13.987 12.985 14.625 12.347 14.625 11.56V4.41795C14.6227 4.41678 14.6235 4.41719 14.6212 4.41602L8.13085 9.13312C7.75474 9.40648 7.24533 9.40639 6.86931 9.1329Z" fill="white"/>
<path d="M8.13216 7.3733L13.8815 3.19227C13.6801 3.08207 13.4483 3.01367 13.2013 3.01367H1.80129C1.55429 3.01367 1.32629 3.08207 1.12109 3.19227L6.87043 7.3733C7.24654 7.64681 7.75605 7.64681 8.13216 7.3733Z" fill="white"/>
</svg>
