<svg width="15" height="16" viewBox="0 0 15 16" fill="none" xmlns="http://www.w3.org/2000/svg">
<g clip-path="url(#clip0_119_4926)">
<path d="M13.7964 10.3458C12.878 10.3458 11.9763 10.2021 11.1218 9.91977C10.7031 9.77695 10.1884 9.90797 9.93285 10.1704L8.24625 11.4436C6.29027 10.3995 5.08543 9.19508 4.05559 7.25379L5.29133 5.61113C5.61238 5.29051 5.72754 4.82215 5.58957 4.3827C5.30598 3.52371 5.16191 2.62242 5.16191 1.70367C5.16195 1.03996 4.62199 0.5 3.95832 0.5H1.20363C0.539961 0.5 0 1.03996 0 1.70363C0 9.31105 6.18898 15.5 13.7964 15.5C14.4601 15.5 15 14.96 15 14.2964V11.5494C15 10.8857 14.46 10.3458 13.7964 10.3458Z" fill="white"/>
</g>
<defs>
<clipPath id="clip0_119_4926">
<rect width="15" height="15" fill="white" transform="translate(0 0.5)"/>
</clipPath>
</defs>
</svg>
