<svg width="42" height="46" viewBox="0 0 42 46" fill="none" xmlns="http://www.w3.org/2000/svg">
<path d="M11.0469 4.27832C14.3963 8.96747 14.7125 11.9286 14.3963 15.6663" stroke="white"/>
<path d="M41 30.3994C35.6037 28.3778 32.6617 28.8388 29.1332 30.1116" stroke="white"/>
<path d="M36.5006 44.0565C31.1416 33.3384 20.4235 37.3577 15.7344 40.7071C20.0216 38.5637 25.7826 41.3766 29.132 44.0565C31.0934 45.6258 37.5724 46.1998 36.5006 44.0565Z" stroke="white"/>
<path d="M2.3986 9.08726C13.1167 14.4463 9.09739 25.1644 5.748 29.8535C7.89133 25.5663 5.07847 19.8053 2.3986 16.4559C0.829246 14.4945 0.255267 8.01545 2.3986 9.08726Z" stroke="white"/>
<path d="M31.1491 3.1096C36.5081 17.1763 17.7515 33.9233 10.3828 34.5831C22.1727 29.7596 20.431 22.3664 21.1009 12.9884C21.1009 3.10846 29.2977 -1.74953 31.1491 3.1096Z" stroke="white"/>
</svg>
