<svg width="63" height="63" viewBox="0 0 63 63" fill="none" xmlns="http://www.w3.org/2000/svg">
<rect width="63" height="63" rx="31.5" fill="#E7266F"/>
<path d="M31.5142 7.71467C26.8098 7.71467 22.2111 9.10969 18.2995 11.7233C14.3879 14.3369 11.3392 18.0518 9.53894 22.3981C7.73864 26.7444 7.2676 31.5269 8.18538 36.141C9.10317 40.755 11.3686 44.9932 14.6951 48.3197C18.0216 51.6462 22.2598 53.9116 26.8738 54.8294C31.4878 55.7472 36.2704 55.2762 40.6167 53.4759C44.963 51.6756 48.6779 48.6269 51.2915 44.7153C53.9051 40.8037 55.3001 36.205 55.3001 31.5006" stroke="url(#paint0_linear_135_2455)" stroke-width="1.51206" stroke-linecap="round"/>
<mask id="mask0_135_2455" style="mask-type:luminance" maskUnits="userSpaceOnUse" x="21" y="20" width="21" height="23">
<path d="M24.9001 41.4266H24.9069C24.9489 41.4266 24.9841 41.4171 25.0167 41.3941C25.0451 41.3737 25.0655 41.3453 25.0641 41.3127C24.9299 38.6712 25.7336 40.5551 27.5796 41.6218H27.5864C27.6203 41.6489 27.6609 41.6705 27.7029 41.6922C27.7436 41.7193 27.7856 41.741 27.8263 41.7681C28.4782 42.1436 29.1762 42.4322 29.923 42.6233C30.6698 42.8199 31.4518 42.9175 32.2609 42.9175C32.3572 42.9175 32.4602 42.912 32.5564 42.912C32.6038 42.9066 32.6526 42.9066 32.7001 42.9066C32.7407 42.9012 32.7895 42.8958 32.837 42.8958H32.8437C32.8437 42.8958 32.8505 42.8903 32.8573 42.8903C33.8304 42.8307 34.7358 42.6288 35.572 42.2967C36.4083 41.9647 37.1347 41.5282 37.765 40.9902C38.3884 40.4507 38.8818 39.8395 39.2314 39.1483C40.6166 36.4186 39.6665 32.9029 36.4489 31.267L35.2237 30.6435L38.528 21.8257C38.6188 21.5899 38.7584 21.3703 38.9428 21.1792C39.1325 20.984 39.3426 20.8295 39.5784 20.7143C39.8142 20.5991 40.6911 20.5652 40.931 20.5612C40.9609 20.5612 40.9853 20.5503 41.011 20.5259C41.0313 20.5056 41.0408 20.4812 41.0462 20.446C41.0408 20.4107 41.0313 20.3863 41.011 20.366C40.9866 20.3403 40.9609 20.3308 40.931 20.3308H40.7155C39.4524 20.3308 38.1933 20.3199 36.9301 20.3416C36.8948 20.3416 36.8732 20.3538 36.8501 20.3769C36.8271 20.3999 36.8149 20.4229 36.8149 20.4568C36.8149 20.4907 36.8271 20.5137 36.8501 20.5368C36.8732 20.5598 36.8948 20.572 36.9301 20.572C37.9656 20.572 38.7774 20.4243 38.3125 21.7403L35.0163 30.5378L29.9609 27.9667C28.4186 27.1834 27.6149 25.889 27.6189 24.432C27.6216 23.6798 27.8425 22.9927 28.2627 22.3733C29.4107 20.6832 32.2515 19.8171 34.4607 20.5788C34.7656 20.6845 35.0353 20.8336 35.282 20.8621C35.549 20.8932 35.9475 20.8932 35.343 20.633C33.6366 19.8957 31.5453 19.7642 29.7631 20.4649C28.9282 20.7943 28.199 21.2266 27.5701 21.7661C26.9453 22.3041 26.4547 22.9222 26.1036 23.612C25.7553 24.2992 25.5724 25.0338 25.5696 25.8131C25.5656 27.0194 26.4222 28.1036 27.0985 28.6824C29.0908 30.3887 31.7107 31.5218 34.1815 32.7633L32.3748 37.5856L30.7769 33.323C30.274 33.1495 28.6463 32.2821 27.2055 30.9661L30.8392 40.6581C30.8487 40.6839 31.0574 41.2829 31.0737 41.2965C31.0926 41.3127 31.1184 41.3168 31.1428 41.3168C31.1631 41.3168 31.1875 41.3127 31.2078 41.2965C31.2282 41.2816 31.2377 41.2667 31.2472 41.2409L32.4832 37.9542V37.9501L34.3875 32.8676C34.5013 32.9259 34.6138 32.9828 34.7263 33.0411C36.8623 34.143 37.4478 36.7073 37.2838 38.4774C37.071 40.7584 34.9798 42.4526 32.8153 42.6396C32.7678 42.645 32.7258 42.645 32.6784 42.6505C32.631 42.6505 32.5889 42.6505 32.5415 42.6545C31.7188 42.6816 30.9232 42.6003 30.1561 42.4146C29.389 42.2289 28.6747 41.9416 28.0174 41.5594H28.0106C27.9347 41.5106 27.8534 41.4618 27.7775 41.4171C26.9074 40.8614 26.1064 40.2068 25.6361 39.4342C25.1671 38.6644 25.0709 37.8282 25.0641 36.9404C25.0641 36.9079 25.0506 36.8754 25.0167 36.8537C24.9896 36.832 24.9543 36.8157 24.9069 36.8157C24.8662 36.8157 24.8242 36.832 24.7971 36.8537C24.77 36.8754 24.7483 36.9092 24.7483 36.9404V41.2938C24.7483 41.3263 24.7619 41.3588 24.789 41.3805C24.8161 41.4022 24.8581 41.413 24.8988 41.4185M21.875 20.4189V20.4324C21.875 20.4636 21.8872 20.488 21.9102 20.507C21.9306 20.5314 21.9604 20.5422 21.9902 20.5422C22.2301 20.5476 22.4659 20.6018 22.7058 20.717C22.9403 20.8322 23.1517 20.9868 23.3361 21.1819C23.5258 21.3717 23.6613 21.5926 23.7562 21.8284V21.8325L24.1587 22.9059C24.1926 22.8327 24.2279 22.7609 24.2645 22.6877C24.85 21.537 25.5141 20.6954 26.8017 20.3104H21.9902C21.955 20.3104 21.9306 20.3213 21.9102 20.3457C21.8872 20.3647 21.8764 20.3877 21.875 20.4189Z" fill="white"/>
</mask>
<g mask="url(#mask0_135_2455)">
<path d="M41.0476 19.7695H21.875V42.92H41.0476V19.7695Z" fill="white"/>
</g>
<defs>
<linearGradient id="paint0_linear_135_2455" x1="13.4277" y1="13.5303" x2="57.5682" y2="38.5956" gradientUnits="userSpaceOnUse">
<stop stop-color="white"/>
<stop offset="0.56" stop-color="white" stop-opacity="0.2"/>
</linearGradient>
</defs>
</svg>
