<svg width="17" height="18" viewBox="0 0 17 18" fill="none" xmlns="http://www.w3.org/2000/svg">
<g clip-path="url(#clip0_119_4991)">
<path fill-rule="evenodd" clip-rule="evenodd" d="M8.5 0.900391C5.86287 0.900391 3.71875 3.06364 3.71875 5.73193C3.71875 6.63577 4.11683 7.75706 4.69625 8.87552C5.97196 11.3384 8.09696 13.819 8.09696 13.819C8.19754 13.9366 8.34487 14.0046 8.5 14.0046C8.65512 14.0046 8.80246 13.9366 8.90304 13.819C8.90304 13.819 11.028 11.3384 12.3038 8.87552C12.8832 7.75706 13.2812 6.63577 13.2812 5.73193C13.2812 3.06364 11.1371 0.900391 8.5 0.900391ZM8.5 3.73372C7.42475 3.73372 6.55208 4.60639 6.55208 5.68164C6.55208 6.75689 7.42475 7.62956 8.5 7.62956C9.57525 7.62956 10.4479 6.75689 10.4479 5.68164C10.4479 4.60639 9.57525 3.73372 8.5 3.73372Z" fill="white"/>
<path fill-rule="evenodd" clip-rule="evenodd" d="M11.8874 12.3236C12.4632 12.4965 12.9378 12.7104 13.2658 12.9611C13.4783 13.1226 13.6341 13.2806 13.6341 13.4732C13.6341 13.5866 13.5697 13.6893 13.479 13.792C13.3288 13.9613 13.1057 14.1136 12.8294 14.2552C11.8534 14.7546 10.2752 15.067 8.4987 15.067C6.7222 15.067 5.14403 14.7546 4.16795 14.2552C3.8917 14.1136 3.66857 13.9613 3.51841 13.792C3.42774 13.6893 3.36328 13.5866 3.36328 13.4732C3.36328 13.2806 3.51911 13.1226 3.73161 12.9611C4.05957 12.7104 4.53416 12.4965 5.11003 12.3236C5.39053 12.2393 5.54991 11.9425 5.46561 11.662C5.38132 11.3808 5.08453 11.2215 4.80403 11.3057C3.92711 11.57 3.2457 11.9319 2.83628 12.3321C2.47645 12.6827 2.30078 13.0752 2.30078 13.4732C2.30078 13.9705 2.58199 14.4663 3.15361 14.88C4.15661 15.6053 6.17111 16.1295 8.4987 16.1295C10.8263 16.1295 12.8408 15.6053 13.8438 14.88C14.4154 14.4663 14.6966 13.9705 14.6966 13.4732C14.6966 13.0752 14.5209 12.6827 14.1611 12.3321C13.7517 11.9319 13.0703 11.57 12.1934 11.3057C11.9129 11.2215 11.6161 11.3808 11.5318 11.662C11.4475 11.9425 11.6069 12.2393 11.8874 12.3236Z" fill="white"/>
</g>
<defs>
<clipPath id="clip0_119_4991">
<rect width="17" height="17" fill="white" transform="translate(0 0.015625)"/>
</clipPath>
</defs>
</svg>
