<svg width="15" height="15" viewBox="0 0 15 15" fill="none" xmlns="http://www.w3.org/2000/svg">
<path d="M6.86931 8.6329L0.395674 3.92449C0.383145 3.93087 0.387529 3.92864 0.375 3.93502V11.06C0.375 11.847 1.01299 12.485 1.8 12.485H13.2C13.987 12.485 14.625 11.847 14.625 11.06V3.91795C14.6227 3.91678 14.6235 3.91719 14.6212 3.91602L8.13085 8.63312C7.75474 8.90648 7.24533 8.90639 6.86931 8.6329Z" fill="#1F26A3"/>
<path d="M8.13606 6.8733L13.8854 2.69227C13.684 2.58207 13.4522 2.51367 13.2052 2.51367H1.8052C1.5582 2.51367 1.3302 2.58207 1.125 2.69227L6.87434 6.8733C7.25044 7.14681 7.75996 7.14681 8.13606 6.8733Z" fill="#1F26A3"/>
</svg>
