<svg width="17" height="17" viewBox="0 0 17 17" fill="none" xmlns="http://www.w3.org/2000/svg">
<path fill-rule="evenodd" clip-rule="evenodd" d="M8.5 0.884766C5.86287 0.884766 3.71875 3.04802 3.71875 5.71631C3.71875 6.62014 4.11683 7.74143 4.69625 8.85989C5.97196 11.3228 8.09696 13.8034 8.09696 13.8034C8.19754 13.9209 8.34487 13.9889 8.5 13.9889C8.65512 13.9889 8.80246 13.9209 8.90304 13.8034C8.90304 13.8034 11.028 11.3228 12.3038 8.85989C12.8832 7.74143 13.2812 6.62014 13.2812 5.71631C13.2812 3.04802 11.1371 0.884766 8.5 0.884766ZM8.5 3.7181C7.42475 3.7181 6.55208 4.59077 6.55208 5.66602C6.55208 6.74127 7.42475 7.61393 8.5 7.61393C9.57525 7.61393 10.4479 6.74127 10.4479 5.66602C10.4479 4.59077 9.57525 3.7181 8.5 3.7181Z" fill="#1F26A3"/>
<path fill-rule="evenodd" clip-rule="evenodd" d="M11.8835 12.308C12.4593 12.4808 12.9339 12.6947 13.2619 12.9455C13.4744 13.107 13.6302 13.265 13.6302 13.4576C13.6302 13.571 13.5658 13.6737 13.4751 13.7764C13.3249 13.9457 13.1018 14.098 12.8255 14.2396C11.8495 14.739 10.2713 15.0514 8.49479 15.0514C6.71829 15.0514 5.14013 14.739 4.16404 14.2396C3.88779 14.098 3.66467 13.9457 3.5145 13.7764C3.42383 13.6737 3.35938 13.571 3.35938 13.4576C3.35938 13.265 3.51521 13.107 3.72771 12.9455C4.05567 12.6947 4.53025 12.4808 5.10613 12.308C5.38663 12.2237 5.546 11.9269 5.46171 11.6464C5.37742 11.3652 5.08063 11.2058 4.80013 11.2901C3.92321 11.5543 3.24179 11.9163 2.83238 12.3165C2.47254 12.6671 2.29688 13.0595 2.29688 13.4576C2.29688 13.9549 2.57808 14.4507 3.14971 14.8644C4.15271 15.5897 6.16721 16.1139 8.49479 16.1139C10.8224 16.1139 12.8369 15.5897 13.8399 14.8644C14.4115 14.4507 14.6927 13.9549 14.6927 13.4576C14.6927 13.0595 14.517 12.6671 14.1572 12.3165C13.7478 11.9163 13.0664 11.5543 12.1895 11.2901C11.909 11.2058 11.6122 11.3652 11.5279 11.6464C11.4436 11.9269 11.603 12.2237 11.8835 12.308Z" fill="#1F26A3"/>
</svg>
