<svg width="82" height="13" viewBox="0 0 82 13" fill="none" xmlns="http://www.w3.org/2000/svg">
<g clip-path="url(#clip0_119_4790)">
<path d="M12.8419 5.48668L10.034 8.22383L10.6971 12.0897C10.7259 12.2588 10.6565 12.4296 10.5177 12.5306C10.4392 12.5879 10.3459 12.6167 10.2526 12.6167C10.1809 12.6167 10.1088 12.5996 10.043 12.5649L6.57106 10.7397L3.09958 12.5644C2.94812 12.6447 2.76375 12.6316 2.62491 12.5302C2.48606 12.4292 2.41664 12.2583 2.44549 12.0893L3.1086 8.22338L0.30022 5.48668C0.177607 5.36677 0.13298 5.18736 0.186172 5.02463C0.239365 4.8619 0.38046 4.74244 0.550405 4.71765L4.43119 4.15417L6.16671 0.637163C6.31862 0.329279 6.82349 0.329279 6.97541 0.637163L8.71092 4.15417L12.5917 4.71765C12.7617 4.74244 12.9027 4.86145 12.9559 5.02463C13.0091 5.18781 12.9645 5.36632 12.8419 5.48668Z" fill="#DDC71E"/>
</g>
<g clip-path="url(#clip1_119_4790)">
<path d="M29.8536 5.48668L27.0457 8.22383L27.7088 12.0897C27.7376 12.2588 27.6682 12.4296 27.5294 12.5306C27.4509 12.5879 27.3576 12.6167 27.2643 12.6167C27.1926 12.6167 27.1205 12.5996 27.0547 12.5649L23.5828 10.7397L20.1113 12.5644C19.9598 12.6447 19.7755 12.6316 19.6366 12.5302C19.4978 12.4292 19.4284 12.2583 19.4572 12.0893L20.1203 8.22338L17.3119 5.48668C17.1893 5.36677 17.1447 5.18736 17.1979 5.02463C17.2511 4.8619 17.3922 4.74244 17.5621 4.71765L21.4429 4.15417L23.1784 0.637163C23.3303 0.329279 23.8352 0.329279 23.9871 0.637163L25.7226 4.15417L29.6034 4.71765C29.7734 4.74244 29.9145 4.86145 29.9677 5.02463C30.0209 5.18781 29.9762 5.36632 29.8536 5.48668Z" fill="#DDC71E"/>
</g>
<g clip-path="url(#clip2_119_4790)">
<path d="M46.8653 5.48668L44.0574 8.22383L44.7205 12.0897C44.7494 12.2588 44.6799 12.4296 44.5411 12.5306C44.4627 12.5879 44.3693 12.6167 44.276 12.6167C44.2044 12.6167 44.1322 12.5996 44.0664 12.5649L40.5945 10.7397L37.123 12.5644C36.9716 12.6447 36.7872 12.6316 36.6483 12.5302C36.5095 12.4292 36.4401 12.2583 36.4689 12.0893L37.132 8.22338L34.3237 5.48668C34.201 5.36677 34.1564 5.18736 34.2096 5.02463C34.2628 4.8619 34.4039 4.74244 34.5738 4.71765L38.4546 4.15417L40.1901 0.637163C40.3421 0.329279 40.8469 0.329279 40.9988 0.637163L42.7344 4.15417L46.6151 4.71765C46.7851 4.74244 46.9262 4.86145 46.9794 5.02463C47.0326 5.18781 46.9879 5.36632 46.8653 5.48668Z" fill="#DDC71E"/>
</g>
<g clip-path="url(#clip3_119_4790)">
<path d="M63.877 5.48668L61.0691 8.22383L61.7322 12.0897C61.7611 12.2588 61.6917 12.4296 61.5528 12.5306C61.4744 12.5879 61.3811 12.6167 61.2878 12.6167C61.2161 12.6167 61.144 12.5996 61.0781 12.5649L57.6062 10.7397L54.1347 12.5644C53.9833 12.6447 53.7989 12.6316 53.6601 12.5302C53.5212 12.4292 53.4518 12.2583 53.4807 12.0893L54.1438 8.22338L51.3354 5.48668C51.2128 5.36677 51.1681 5.18736 51.2213 5.02463C51.2745 4.8619 51.4156 4.74244 51.5856 4.71765L55.4663 4.15417L57.2019 0.637163C57.3538 0.329279 57.8587 0.329279 58.0106 0.637163L59.7461 4.15417L63.6269 4.71765C63.7968 4.74244 63.9379 4.86145 63.9911 5.02463C64.0443 5.18781 63.9997 5.36632 63.877 5.48668Z" fill="#DDC71E"/>
</g>
<g clip-path="url(#clip4_119_4790)">
<path d="M80.8849 5.48668L78.0769 8.22383L78.74 12.0897C78.7689 12.2588 78.6995 12.4296 78.5606 12.5306C78.4822 12.5879 78.3889 12.6167 78.2956 12.6167C78.2239 12.6167 78.1518 12.5996 78.086 12.5649L74.614 10.7397L71.1425 12.5644C70.9911 12.6447 70.8067 12.6316 70.6679 12.5302C70.529 12.4292 70.4596 12.2583 70.4885 12.0893L71.1516 8.22338L68.3432 5.48668C68.2206 5.36677 68.1759 5.18736 68.2291 5.02463C68.2823 4.8619 68.4234 4.74244 68.5934 4.71765L72.4742 4.15417L74.2097 0.637163C74.3616 0.329279 74.8665 0.329279 75.0184 0.637163L76.7539 4.15417L80.6347 4.71765C80.8046 4.74244 80.9457 4.86145 80.9989 5.02463C81.0521 5.18781 81.0075 5.36632 80.8849 5.48668Z" fill="#DDC71E"/>
</g>
<defs>
<clipPath id="clip0_119_4790">
<rect width="12.96" height="12.96" fill="white" transform="translate(0.09375 0.0195312)"/>
</clipPath>
<clipPath id="clip1_119_4790">
<rect width="12.96" height="12.96" fill="white" transform="translate(17.1055 0.0195312)"/>
</clipPath>
<clipPath id="clip2_119_4790">
<rect width="12.96" height="12.96" fill="white" transform="translate(34.1133 0.0195312)"/>
</clipPath>
<clipPath id="clip3_119_4790">
<rect width="12.96" height="12.96" fill="white" transform="translate(51.125 0.0195312)"/>
</clipPath>
<clipPath id="clip4_119_4790">
<rect width="12.96" height="12.96" fill="white" transform="translate(68.1328 0.0195312)"/>
</clipPath>
</defs>
</svg>
