<svg width="15" height="15" viewBox="0 0 15 15" fill="none" xmlns="http://www.w3.org/2000/svg">
<g clip-path="url(#clip0_146_2617)">
<path d="M7.50391 7.78913C9.64678 7.78913 11.3985 6.03744 11.3985 3.89456C11.3985 1.75169 9.64678 0 7.50391 0C5.36104 0 3.60938 1.75169 3.60938 3.89456C3.60938 6.03744 5.36107 7.78913 7.50391 7.78913Z" fill="#1F26A3"/>
<path d="M14.1872 10.9C14.0851 10.6449 13.9491 10.4069 13.796 10.1858C13.0137 9.02928 11.8063 8.26398 10.4457 8.0769C10.2757 8.05991 10.0886 8.0939 9.95252 8.19595C9.23822 8.72316 8.3879 8.99526 7.50353 8.99526C6.61915 8.99526 5.76882 8.72316 5.05453 8.19595C4.91847 8.0939 4.73139 8.04289 4.56134 8.0769C3.20079 8.26398 1.97631 9.02928 1.21101 10.1858C1.05795 10.4069 0.921884 10.662 0.819866 10.9C0.768857 11.0021 0.785849 11.1211 0.836858 11.2232C0.972926 11.4613 1.14298 11.6994 1.29604 11.9035C1.53412 12.2266 1.78923 12.5157 2.07836 12.7878C2.31645 13.0259 2.58855 13.247 2.86069 13.4681C4.20421 14.4715 5.81987 14.9987 7.48653 14.9987C9.1532 14.9987 10.7689 14.4715 12.1124 13.4681C12.3845 13.264 12.6566 13.0259 12.8947 12.7878C13.1668 12.5157 13.4389 12.2266 13.677 11.9035C13.8471 11.6824 14.0002 11.4613 14.1362 11.2232C14.2212 11.1211 14.2382 11.0021 14.1872 10.9Z" fill="#1F26A3"/>
</g>
<defs>
<clipPath id="clip0_146_2617">
<rect width="15" height="15" fill="white"/>
</clipPath>
</defs>
</svg>
