<svg width="88" height="50" viewBox="0 0 88 50" fill="none" xmlns="http://www.w3.org/2000/svg">
<path d="M6.60314 46.7435H6.61785C6.70861 46.7435 6.78465 46.7239 6.85823 46.6724C6.92201 46.6283 6.96616 46.5669 6.96371 46.4934C6.66936 40.7266 8.42562 44.8401 12.4532 47.1679C12.4532 47.1679 12.4532 47.1679 12.468 47.1679C12.5415 47.2268 12.6323 47.2758 12.7231 47.3224C12.8138 47.3813 12.9021 47.4303 12.9929 47.4892C14.4131 48.3085 15.9388 48.9389 17.5699 49.3559C19.2011 49.7827 20.9058 49.9985 22.6719 49.9985C22.8804 49.9985 23.1061 49.9863 23.3146 49.9863C23.42 49.974 23.5231 49.974 23.6285 49.974C23.7193 49.9617 23.8223 49.9495 23.9278 49.9495C23.9425 49.9495 23.9425 49.9495 23.9425 49.9495C23.9572 49.9495 23.9572 49.9372 23.9719 49.9372C26.0961 49.8072 28.0707 49.3657 29.8956 48.6421C31.7206 47.916 33.3051 46.9668 34.6812 45.7894C36.0425 44.612 37.1169 43.2801 37.8822 41.7716C40.9041 35.8135 38.829 28.1434 31.8089 24.572L29.1352 23.2131L36.3467 3.9679C36.5429 3.45525 36.8495 2.97448 37.2518 2.55995C37.6663 2.13315 38.125 1.79466 38.6377 1.54446C39.1503 1.29427 41.066 1.21823 41.5885 1.21087C41.6547 1.20842 41.7086 1.18879 41.7626 1.13483C41.8068 1.09068 41.8288 1.03672 41.8386 0.960679C41.8288 0.88464 41.8068 0.830679 41.7626 0.786527C41.7086 0.732564 41.6522 0.710488 41.5885 0.710488C41.5664 0.710488 41.4143 0.710488 41.12 0.710488C38.3654 0.710488 35.6182 0.688406 32.8587 0.735011C32.7826 0.737464 32.7336 0.762 32.6845 0.811057C32.6355 0.860114 32.6085 0.90917 32.6085 0.985209C32.6085 1.06125 32.6355 1.1103 32.6845 1.15936C32.7336 1.20842 32.7826 1.2354 32.8587 1.2354C35.1178 1.2354 36.8888 0.914077 35.8757 3.78394L28.6814 22.9826L17.6484 17.3729C14.2831 15.6607 12.5293 12.8375 12.5391 9.66102C12.544 8.02005 13.0272 6.51889 13.9446 5.16735C16.449 1.47823 22.6474 -0.410474 27.4697 1.25503C28.1369 1.4856 28.7231 1.80937 29.2603 1.87315C29.8417 1.94183 30.71 1.94183 29.3928 1.37276C25.6718 -0.236325 21.107 -0.523309 17.2167 1.00728C15.3942 1.72598 13.8023 2.66788 12.4312 3.84771C11.0674 5.02018 9.99546 6.36927 9.23016 7.87778C8.46977 9.37649 8.06995 10.9807 8.0626 12.6805C8.05278 15.3149 9.92187 17.6819 11.3985 18.9451C15.7474 22.6711 21.4651 25.1387 26.8541 27.8491L22.9123 38.3743L19.4268 29.0731C18.3303 28.6953 14.7761 26.8017 11.6315 23.9294L19.5617 45.083C19.5813 45.1369 20.0375 46.4468 20.0743 46.4762C20.116 46.5105 20.1724 46.5203 20.2264 46.5203C20.2705 46.5203 20.3245 46.5105 20.3687 46.4762C20.4128 46.4443 20.4349 46.41 20.4545 46.356L23.1502 39.1813C23.1502 39.1715 23.1502 39.1715 23.1502 39.1715L27.3054 28.0796C27.5531 28.2047 27.8009 28.3323 28.0462 28.4598C32.7066 30.8661 33.987 36.4611 33.624 40.3244C33.1579 45.3037 28.5956 49.0002 23.8714 49.4074C23.7659 49.4196 23.6776 49.4196 23.5721 49.4319C23.4666 49.4319 23.3783 49.4319 23.2729 49.4442C21.4774 49.503 19.7432 49.3264 18.0679 48.9217C16.3925 48.517 14.8374 47.889 13.4 47.0551C13.4 47.0551 13.4 47.0551 13.3853 47.0551C13.221 46.9471 13.0419 46.8417 12.8776 46.746C10.9791 45.5343 9.23016 44.1043 8.20241 42.4191C7.17956 40.7389 6.96616 38.914 6.9539 36.9762C6.9539 36.9051 6.92446 36.834 6.84842 36.7849C6.78956 36.7383 6.71351 36.7015 6.60804 36.7015C6.51728 36.7015 6.42898 36.7383 6.36766 36.7849C6.30879 36.8315 6.26219 36.9026 6.26219 36.9762V46.4762C6.26219 46.5473 6.29162 46.6185 6.35294 46.6675C6.42408 46.7068 6.51483 46.7313 6.60314 46.7435ZM0.250194 1.16426C0.775109 1.17408 1.28776 1.29427 1.81267 1.54692C2.32532 1.79956 2.78401 2.1356 3.18873 2.5624C3.60327 2.97694 3.89762 3.4577 4.10611 3.97035V3.98262L4.98424 6.32511C5.05783 6.16567 5.13387 6.00869 5.21481 5.85171C6.4903 3.33751 7.93995 1.50522 10.7509 0.663883H8.61449C8.61449 0.663883 8.61449 0.663883 8.60223 0.663883H3.22062H0.250194C0.174155 0.663883 0.120194 0.685958 0.0760422 0.739922C0.022079 0.784073 0 0.838034 0 0.914073C0 0.990113 0.022079 1.04407 0.0760422 1.08823C0.120194 1.14219 0.186419 1.16426 0.250194 1.16426Z" fill="url(#paint0_linear_119_4961)"/>
<mask id="mask0_119_4961" style="mask-type:luminance" maskUnits="userSpaceOnUse" x="0" y="0" width="42" height="51">
<path d="M6.60314 46.7465H6.61785C6.70861 46.7465 6.78465 46.7269 6.85823 46.6754C6.92201 46.6312 6.96616 46.5699 6.96371 46.4963C6.66936 40.7296 8.42562 44.843 12.4532 47.1708C12.4532 47.1708 12.4532 47.1708 12.468 47.1708C12.5415 47.2297 12.6323 47.2787 12.7231 47.3254C12.8138 47.3842 12.9021 47.4333 12.9929 47.4921C14.4131 48.3114 15.9388 48.9418 17.5699 49.3588C19.2011 49.7856 20.9058 50.0014 22.6719 50.0014C22.8804 50.0014 23.1061 49.9892 23.3146 49.9892C23.42 49.9769 23.5231 49.9769 23.6285 49.9769C23.7193 49.9646 23.8223 49.9524 23.9278 49.9524C23.9425 49.9524 23.9425 49.9524 23.9425 49.9524C23.9572 49.9524 23.9572 49.9401 23.9719 49.9401C26.0961 49.8101 28.0707 49.3686 29.8956 48.645C31.7206 47.9189 33.3051 46.9697 34.6812 45.7923C36.0425 44.6149 37.1169 43.283 37.8822 41.7745C40.9041 35.8165 38.829 28.1463 31.8089 24.575L29.1352 23.2161L36.3467 3.97083C36.5429 3.45818 36.8495 2.97741 37.2518 2.56288C37.6663 2.13608 38.125 1.79759 38.6377 1.54739C39.1503 1.2972 41.066 1.22116 41.5885 1.2138C41.6547 1.21135 41.7086 1.19172 41.7626 1.13776C41.8068 1.09361 41.8288 1.03965 41.8386 0.963608C41.8288 0.887569 41.8068 0.833608 41.7626 0.789456C41.7086 0.735493 41.6522 0.713418 41.5885 0.713418C41.5664 0.713418 41.4143 0.713418 41.12 0.713418C38.3654 0.713418 35.6182 0.691336 32.8587 0.737941C32.7826 0.740394 32.7336 0.764929 32.6845 0.813987C32.6355 0.863044 32.6085 0.9121 32.6085 0.988139C32.6085 1.06418 32.6355 1.11323 32.6845 1.16229C32.7336 1.21135 32.7826 1.23833 32.8587 1.23833C35.1178 1.23833 36.8888 0.917006 35.8757 3.78687L28.6814 22.9855L17.6484 17.3758C14.2831 15.6637 12.5293 12.8404 12.5391 9.66395C12.544 8.02298 13.0272 6.52182 13.9446 5.17028C16.449 1.48116 22.6474 -0.407545 27.4697 1.25796C28.1369 1.48853 28.7231 1.8123 29.2603 1.87608C29.8417 1.94476 30.71 1.94476 29.3928 1.37569C25.6718 -0.233395 21.107 -0.520379 17.2167 1.01021C15.3942 1.72891 13.8023 2.67081 12.4312 3.85064C11.0674 5.02311 9.99546 6.3722 9.23016 7.88071C8.46977 9.37942 8.06995 10.9836 8.0626 12.6834C8.05278 15.3178 9.92187 17.6848 11.3985 18.9481C15.7474 22.674 21.4651 25.1416 26.8541 27.852L22.9123 38.3773L19.4268 29.076C18.3303 28.6982 14.7761 26.8046 11.6315 23.9323L19.5617 45.0859C19.5813 45.1398 20.0375 46.4497 20.0743 46.4791C20.116 46.5135 20.1724 46.5233 20.2264 46.5233C20.2705 46.5233 20.3245 46.5135 20.3687 46.4791C20.4128 46.4472 20.4349 46.4129 20.4545 46.3589L23.1502 39.1843C23.1502 39.1745 23.1502 39.1745 23.1502 39.1745L27.3054 28.0826C27.5531 28.2077 27.8009 28.3352 28.0462 28.4628C32.7066 30.869 33.987 36.464 33.624 40.3273C33.1579 45.3066 28.5956 49.0031 23.8714 49.4103C23.7659 49.4226 23.6776 49.4226 23.5721 49.4348C23.4666 49.4348 23.3783 49.4348 23.2729 49.4471C21.4774 49.506 19.7432 49.3294 18.0679 48.9246C16.3925 48.5199 14.8374 47.892 13.4 47.058C13.4 47.058 13.4 47.058 13.3853 47.058C13.221 46.9501 13.0419 46.8446 12.8776 46.7489C10.9791 45.5372 9.23016 44.1072 8.20241 42.4221C7.17956 40.7418 6.96616 38.9169 6.9539 36.9791C6.9539 36.908 6.92446 36.8369 6.84842 36.7878C6.78956 36.7412 6.71351 36.7044 6.60804 36.7044C6.51728 36.7044 6.42898 36.7412 6.36766 36.7878C6.30879 36.8344 6.26219 36.9056 6.26219 36.9791V46.4791C6.26219 46.5503 6.29162 46.6214 6.35294 46.6704C6.42408 46.7097 6.51483 46.7342 6.60314 46.7465ZM0.250194 1.16719C0.775109 1.17701 1.28776 1.2972 1.81267 1.54985C2.32532 1.80249 2.78401 2.13853 3.18873 2.56533C3.60327 2.97987 3.89762 3.46063 4.10611 3.97328V3.98555L4.98424 6.32804C5.05783 6.1686 5.13387 6.01162 5.21481 5.85464C6.4903 3.34044 7.93995 1.50815 10.7509 0.666813H8.61449C8.61449 0.666813 8.61449 0.666813 8.60223 0.666813H3.22062H0.250194C0.174155 0.666813 0.120194 0.688888 0.0760422 0.742851C0.022079 0.787003 0 0.840964 0 0.917003C0 0.993042 0.022079 1.047 0.0760422 1.09116C0.120194 1.14512 0.186419 1.16719 0.250194 1.16719Z" fill="white"/>
</mask>
<g mask="url(#mask0_119_4961)">
<path d="M41.8386 -0.520508H0V50.0013H41.8386V-0.520508Z" fill="url(#paint1_linear_119_4961)"/>
</g>
<path d="M83.2784 43.3972C83.2686 43.8903 83.1631 44.2263 82.9767 44.3857L82.6872 44.5673C81.4314 45.3571 79.5893 44.7095 78.586 43.1299C77.5828 41.5404 77.7864 39.6002 79.0423 38.8005C79.0472 38.8005 79.0472 38.7957 79.0521 38.7957C79.0521 38.7907 79.0521 38.7907 79.057 38.7907L80.6906 37.7532L81.2891 37.3754L81.3946 37.3092C81.4387 37.2822 81.4829 37.2552 81.527 37.2258L81.6325 37.1596C82.0716 36.902 82.6897 36.5733 83.0184 36.7205C83.1557 36.7867 83.244 36.9339 83.2882 37.1743V43.3948H83.2784V43.3972ZM69.7385 31.7338H70.3959V44.2533C70.3959 45.3988 71.328 46.3309 72.4686 46.3309C73.592 46.3309 74.502 45.4552 74.5413 44.3293C74.5462 44.2631 74.4922 44.2091 74.426 44.2042C74.3548 44.1944 74.2935 44.2484 74.2886 44.3146C74.2616 44.5991 74.0188 44.8125 73.7343 44.8125C73.4277 44.8125 73.1799 44.5599 73.1799 44.2533V31.7338H74.4137C74.4848 31.7338 74.5388 31.6799 74.5388 31.6087C74.5388 31.5376 74.4848 31.4812 74.4137 31.4812H73.1799V28.3121C73.1848 28.2728 73.175 28.2287 73.1407 28.1968C73.1137 28.1698 73.0695 28.1575 73.0303 28.1698C73.0254 28.1698 73.0254 28.1698 73.018 28.1698C72.9959 28.1747 72.9739 28.187 72.9567 28.2041L69.6453 31.5204C69.6061 31.5523 69.5963 31.6087 69.6183 31.6578C69.6404 31.6995 69.6895 31.7338 69.7385 31.7338ZM64.0601 31.7387C64.7886 31.7068 65.5245 31.8663 66.1549 32.2097C66.4394 32.3642 66.7092 32.5555 66.9496 32.7738C67.7787 33.5367 68.2374 34.5767 68.2374 35.7001C68.2374 35.7712 68.2913 35.8252 68.3625 35.8252C68.4287 35.8252 68.4876 35.7712 68.4876 35.7001V31.6063C68.4876 31.5351 68.4336 31.4787 68.3625 31.4787C68.2864 31.4787 68.2374 31.5278 68.2374 31.5989C68.1981 32.4697 68.0019 32.7444 67.8425 32.8155C67.6732 32.8989 67.4255 32.8155 67.109 32.5801C66.8564 32.3495 66.5768 32.1484 66.2751 31.9816C65.6668 31.6529 64.9824 31.4812 64.2858 31.4763C64.2809 31.4763 64.276 31.4763 64.2686 31.4763C64.1926 31.4763 64.1215 31.4763 64.0503 31.4812C61.8035 31.5965 60.0423 33.4435 60.0423 35.6977C60.0423 37.2552 60.891 38.6804 62.2671 39.4187L65.5171 41.1283C66.3658 41.5821 66.8932 42.4725 66.8932 43.4365C66.8932 44.8027 65.8286 45.9531 64.4649 46.0611C63.7413 46.0929 63.0054 45.936 62.3701 45.5901C62.0856 45.438 61.8231 45.2442 61.5803 45.0259C60.7463 44.2631 60.2925 43.2231 60.2925 42.0997C60.2925 42.0285 60.2386 41.9721 60.1674 41.9721C60.0963 41.9721 60.0423 42.0261 60.0423 42.0997V46.1935C60.0423 46.2646 60.0963 46.3186 60.1674 46.3186C60.2337 46.3186 60.2925 46.2696 60.2925 46.1984C60.3318 45.3277 60.528 45.0578 60.6874 44.9818C60.8518 44.8984 61.0995 44.9818 61.4159 45.2173C61.6686 45.4478 61.9531 45.649 62.2499 45.8158C62.8631 46.1445 63.5597 46.3211 64.2613 46.3211C64.3324 46.3211 64.4035 46.3211 64.4796 46.3162C66.7264 46.2058 68.4851 44.3539 68.4851 42.0997C68.4851 40.5421 67.6291 39.117 66.2604 38.3787L63.0103 36.669C62.1616 36.2079 61.6342 35.3199 61.6342 34.3559C61.6367 32.9946 62.6988 31.8491 64.0601 31.7387ZM56.1275 39.4677L47.9644 41.5895C47.5204 41.6557 47.2408 41.484 47.0862 41.0572C46.944 40.3606 46.8679 39.637 46.8679 38.8987C46.8679 35.0992 48.791 31.9595 51.2414 31.7461L51.3444 31.7412C51.3984 31.7363 51.4548 31.7363 51.5088 31.7363C51.5578 31.7363 51.6143 31.7363 51.6682 31.7412L51.7737 31.7461C54.2241 31.9644 56.1423 35.1065 56.1423 38.8987C56.1447 39.09 56.1374 39.2764 56.1275 39.4677ZM87.4262 44.3342V44.3269C87.4237 44.2582 87.3747 44.2067 87.306 44.2018C87.2349 44.192 87.1809 44.2459 87.1736 44.3122C87.1417 44.5967 86.9062 44.8101 86.6192 44.8101C86.3126 44.8101 86.0599 44.5574 86.0599 44.2508V36.225C86.0599 33.6103 83.9333 31.4836 81.3185 31.4787C81.3185 31.4787 81.3185 31.4787 81.3136 31.4787H80.4159C78.7921 31.4787 77.3081 32.2906 76.4251 33.6495C76.4202 33.6544 76.4153 33.6593 76.4079 33.6716C76.4079 33.6716 76.3907 33.6937 76.3907 33.7035C76.3858 33.7035 76.3858 33.7084 76.3785 33.7133C75.9124 34.4639 75.6598 35.3297 75.6598 36.225C75.6598 36.9928 76.2853 37.6183 77.053 37.6183C77.8207 37.6183 78.4462 36.9928 78.4462 36.225C78.4462 35.4573 77.8207 34.8318 77.053 34.8318C77.0432 34.8318 77.0358 34.8367 77.026 34.8367C77.0211 34.8367 77.0162 34.8318 77.0039 34.8318C76.7685 34.8367 76.5158 34.8048 76.4226 34.6503C76.3294 34.5031 76.3907 34.2235 76.5992 33.8457C77.4258 32.5187 78.8534 31.7289 80.4134 31.7289H81.3063H81.3112C82.3242 31.7289 83.1754 33.522 83.2686 35.8179L81.7012 36.8039L81.6399 36.8481L80.5263 37.5496L79.0178 38.5038L78.9025 38.5798C78.8976 38.5798 78.8976 38.5798 78.8976 38.5847L77.3621 39.5536C76.5354 40.0809 75.959 40.8904 75.7456 41.8495C75.5322 42.8036 75.7064 43.7848 76.2288 44.6065C76.9254 45.7078 78.1151 46.3112 79.3317 46.3112C80.0014 46.3112 80.6808 46.1297 81.2891 45.7471L82.8172 44.7708L83.2882 44.474C83.4035 45.5092 84.2816 46.3211 85.3486 46.3211C86.472 46.3309 87.382 45.4527 87.4262 44.3342ZM56.7579 33.652C55.4309 32.3299 53.6722 31.5695 51.7982 31.4934H51.7933C51.7001 31.4885 51.6069 31.4812 51.5137 31.4812C51.4156 31.4812 51.3175 31.4861 51.2242 31.4934C49.3429 31.5695 47.5842 32.3323 46.2645 33.652C43.3702 36.5464 43.3702 41.2485 46.2645 44.1429C47.6676 45.546 49.5318 46.3186 51.5112 46.3186H51.5161C52.6788 46.3186 53.7973 46.0439 54.8103 45.5411C54.8324 45.5312 54.8594 45.519 54.8815 45.5092C55.063 45.416 55.2372 45.3105 55.4089 45.2074C55.4628 45.1756 55.5192 45.1486 55.5683 45.1093C55.7228 45.0112 55.87 44.9008 56.0172 44.7856C56.0711 44.7414 56.1324 44.7046 56.1913 44.6605C56.39 44.4961 56.5764 44.3269 56.7604 44.1454C57.3025 43.6033 57.3025 42.7202 56.7604 42.1782C56.2183 41.6361 55.3304 41.6361 54.7858 42.1782C54.2437 42.7202 54.2437 43.6033 54.7858 44.1454C54.7907 44.1503 54.7956 44.1503 54.7956 44.1576C55.0311 44.3882 55.1243 44.5893 55.0924 44.7708C55.0434 45.0456 54.6926 45.3178 54.05 45.5975H54.045C53.2454 45.9041 52.3894 46.0684 51.5112 46.0684H51.5063C49.7354 46.0684 48.1066 44.4789 47.334 42.0163L48.0183 41.8347L56.2796 39.686L58.8331 39.0189C58.887 39.0066 58.9263 38.9575 58.9263 38.8987C58.9287 36.9192 58.1561 35.055 56.7579 33.652Z" fill="url(#paint2_linear_119_4961)"/>
<mask id="mask1_119_4961" style="mask-type:luminance" maskUnits="userSpaceOnUse" x="44" y="28" width="44" height="19">
<path d="M83.2823 43.3992C83.2725 43.8922 83.167 44.2283 82.9806 44.3877L82.6912 44.5692C81.4353 45.359 79.5932 44.7115 78.59 43.1318C77.5867 41.5424 77.7903 39.6021 79.0462 38.8025C79.0511 38.8025 79.0511 38.7976 79.056 38.7976C79.056 38.7927 79.056 38.7927 79.0609 38.7927L80.6945 37.7551L81.293 37.3774L81.3985 37.3111C81.4426 37.2842 81.4868 37.2572 81.5309 37.2278L81.6364 37.1615C82.0755 36.904 82.6936 36.5753 83.0223 36.7225C83.1597 36.7887 83.248 36.9359 83.2921 37.1762V43.3967H83.2823V43.3992ZM69.7424 31.7358H70.3998V44.2552C70.3998 45.4007 71.3319 46.3328 72.4725 46.3328C73.5959 46.3328 74.5059 45.4572 74.5452 44.3313C74.5501 44.2651 74.4961 44.2111 74.4299 44.2062C74.3587 44.1964 74.2974 44.2503 74.2925 44.3166C74.2655 44.6011 74.0227 44.8145 73.7382 44.8145C73.4316 44.8145 73.1838 44.5619 73.1838 44.2552V31.7358H74.4176C74.4887 31.7358 74.5427 31.6818 74.5427 31.6107C74.5427 31.5395 74.4887 31.4831 74.4176 31.4831H73.1838V28.314C73.1887 28.2748 73.1789 28.2306 73.1446 28.1987C73.1176 28.1718 73.0734 28.1595 73.0342 28.1718C73.0293 28.1718 73.0293 28.1718 73.0219 28.1718C72.9998 28.1767 72.9778 28.1889 72.9606 28.2061L69.6492 31.5224C69.61 31.5543 69.6002 31.6107 69.6222 31.6597C69.6443 31.7014 69.6934 31.7358 69.7424 31.7358ZM64.064 31.7407C64.7925 31.7088 65.5284 31.8682 66.1588 32.2116C66.4433 32.3662 66.7131 32.5575 66.9535 32.7758C67.7826 33.5386 68.2413 34.5786 68.2413 35.7021C68.2413 35.7732 68.2952 35.8272 68.3664 35.8272C68.4326 35.8272 68.4915 35.7732 68.4915 35.7021V31.6082C68.4915 31.5371 68.4375 31.4807 68.3664 31.4807C68.2903 31.4807 68.2413 31.5297 68.2413 31.6009C68.202 32.4716 68.0058 32.7464 67.8464 32.8175C67.6771 32.9009 67.4294 32.8175 67.113 32.582C66.8603 32.3514 66.5807 32.1503 66.279 31.9835C65.6707 31.6548 64.9863 31.4831 64.2897 31.4782C64.2848 31.4782 64.2799 31.4782 64.2725 31.4782C64.1965 31.4782 64.1254 31.4782 64.0542 31.4831C61.8074 31.5984 60.0462 33.4454 60.0462 35.6996C60.0462 37.2572 60.8949 38.6823 62.271 39.4206L65.521 41.1303C66.3697 41.5841 66.8971 42.4745 66.8971 43.4384C66.8971 44.8047 65.8326 45.9551 64.4688 46.063C63.7452 46.0949 63.0093 45.9379 62.374 45.5921C62.0895 45.44 61.827 45.2462 61.5842 45.0279C60.7502 44.265 60.2964 43.225 60.2964 42.1016C60.2964 42.0305 60.2425 41.9741 60.1713 41.9741C60.1002 41.9741 60.0462 42.028 60.0462 42.1016V46.1955C60.0462 46.2666 60.1002 46.3206 60.1713 46.3206C60.2376 46.3206 60.2964 46.2715 60.2964 46.2004C60.3357 45.3296 60.5319 45.0598 60.6913 44.9837C60.8557 44.9003 61.1034 44.9837 61.4198 45.2192C61.6725 45.4498 61.957 45.6509 62.2538 45.8177C62.867 46.1464 63.5637 46.323 64.2652 46.323C64.3363 46.323 64.4074 46.323 64.4835 46.3181C66.7303 46.2077 68.489 44.3558 68.489 42.1016C68.489 40.544 67.633 39.1189 66.2643 38.3806L63.0142 36.671C62.1655 36.2098 61.6381 35.3219 61.6381 34.3579C61.6406 32.9966 62.7027 31.8511 64.064 31.7407ZM56.1314 39.4697L47.9683 41.5914C47.5243 41.6576 47.2447 41.4859 47.0902 41.0591C46.9479 40.3625 46.8719 39.6389 46.8719 38.9006C46.8719 35.1011 48.7949 31.9614 51.2453 31.748L51.3483 31.7431C51.4023 31.7382 51.4587 31.7382 51.5127 31.7382C51.5617 31.7382 51.6182 31.7382 51.6721 31.7431L51.7776 31.748C54.228 31.9663 56.1462 35.1085 56.1462 38.9006C56.1486 39.0919 56.1413 39.2784 56.1314 39.4697ZM87.4301 44.3362V44.3288C87.4277 44.2601 87.3786 44.2086 87.3099 44.2037C87.2388 44.1939 87.1848 44.2479 87.1775 44.3141C87.1456 44.5986 86.9101 44.812 86.6231 44.812C86.3165 44.812 86.0639 44.5594 86.0639 44.2528V36.227C86.0639 33.6122 83.9372 31.4856 81.3224 31.4807C81.3224 31.4807 81.3224 31.4807 81.3175 31.4807H80.4198C78.796 31.4807 77.312 32.2926 76.429 33.6515C76.4241 33.6564 76.4192 33.6613 76.4118 33.6735C76.4118 33.6735 76.3946 33.6956 76.3946 33.7054C76.3897 33.7054 76.3897 33.7103 76.3824 33.7152C75.9163 34.4658 75.6637 35.3317 75.6637 36.227C75.6637 36.9947 76.2892 37.6202 77.0569 37.6202C77.8247 37.6202 78.4501 36.9947 78.4501 36.227C78.4501 35.4592 77.8247 34.8338 77.0569 34.8338C77.0471 34.8338 77.0397 34.8387 77.0299 34.8387C77.025 34.8387 77.0201 34.8338 77.0078 34.8338C76.7724 34.8387 76.5197 34.8068 76.4265 34.6522C76.3333 34.5051 76.3946 34.2254 76.6031 33.8477C77.4297 32.5207 78.8573 31.7309 80.4173 31.7309H81.3102H81.3151C82.3281 31.7309 83.1793 33.5239 83.2725 35.8198L81.7051 36.8059L81.6438 36.85L80.5302 37.5515L79.0217 38.5057L78.9064 38.5817C78.9015 38.5817 78.9015 38.5817 78.9015 38.5866L77.366 39.5555C76.5394 40.0829 75.9629 40.8923 75.7495 41.8514C75.5361 42.8056 75.7103 43.7867 76.2327 44.6084C76.9294 45.7098 78.119 46.3132 79.3356 46.3132C80.0053 46.3132 80.6847 46.1317 81.293 45.749L82.8212 44.7728L83.2921 44.476C83.4074 45.5111 84.2855 46.323 85.3525 46.323C86.4759 46.3328 87.386 45.4547 87.4301 44.3362ZM56.7618 33.6539C55.4348 32.3318 53.6761 31.5714 51.8021 31.4954H51.7972C51.704 31.4905 51.6108 31.4831 51.5176 31.4831C51.4195 31.4831 51.3214 31.488 51.2281 31.4954C49.3468 31.5714 47.5881 32.3343 46.2684 33.6539C43.3741 36.5483 43.3741 41.2505 46.2684 44.1449C47.6715 45.5479 49.5357 46.3206 51.5151 46.3206H51.52C52.6827 46.3206 53.8012 46.0458 54.8143 45.543C54.8363 45.5332 54.8633 45.5209 54.8854 45.5111C55.0669 45.4179 55.2411 45.3124 55.4128 45.2094C55.4667 45.1775 55.5231 45.1505 55.5722 45.1113C55.7267 45.0132 55.8739 44.9028 56.0211 44.7875C56.075 44.7434 56.1363 44.7066 56.1952 44.6624C56.3939 44.4981 56.5803 44.3288 56.7643 44.1473C57.3064 43.6052 57.3064 42.7222 56.7643 42.1801C56.2222 41.638 55.3343 41.638 54.7897 42.1801C54.2476 42.7222 54.2476 43.6052 54.7897 44.1473C54.7946 44.1522 54.7995 44.1522 54.7995 44.1596C55.035 44.3902 55.1282 44.5913 55.0963 44.7728C55.0473 45.0475 54.6965 45.3198 54.0539 45.5994H54.049C53.2493 45.906 52.3933 46.0704 51.5151 46.0704H51.5102C49.7393 46.0704 48.1106 44.4809 47.3379 42.0182L48.0223 41.8367L56.2835 39.688L58.837 39.0208C58.8909 39.0085 58.9302 38.9595 58.9302 38.9006C58.9326 36.9212 58.16 35.057 56.7618 33.6539Z" fill="white"/>
</mask>
<g mask="url(#mask1_119_4961)">
<path d="M87.4281 28.1572H43.3672V46.3281H87.4281V28.1572Z" fill="url(#paint3_linear_119_4961)"/>
</g>
<defs>
<linearGradient id="paint0_linear_119_4961" x1="-0.000122644" y1="24.9984" x2="41.8391" y2="24.9984" gradientUnits="userSpaceOnUse">
<stop stop-color="#009EE3"/>
<stop offset="0.0804" stop-color="#A1DAF8"/>
<stop offset="0.18" stop-color="#4D3E92"/>
<stop offset="0.34" stop-color="#0069B4"/>
<stop offset="0.38" stop-color="#5858A3"/>
<stop offset="0.58" stop-color="#E5007D"/>
<stop offset="0.76" stop-color="#E5007D"/>
<stop offset="1" stop-color="#E7266F"/>
</linearGradient>
<linearGradient id="paint1_linear_119_4961" x1="47.6636" y1="32.0069" x2="-7.55026" y2="17.003" gradientUnits="userSpaceOnUse">
<stop stop-color="#009EE3"/>
<stop offset="0.0804" stop-color="#A1DAF8"/>
<stop offset="0.18" stop-color="#4D3E92"/>
<stop offset="0.34" stop-color="#0069B4"/>
<stop offset="0.38" stop-color="#5858A3"/>
<stop offset="0.58" stop-color="#E5007D"/>
<stop offset="0.76" stop-color="#E5007D"/>
<stop offset="1" stop-color="#E7266F"/>
</linearGradient>
<linearGradient id="paint2_linear_119_4961" x1="44.0899" y1="37.2479" x2="87.4265" y2="37.2479" gradientUnits="userSpaceOnUse">
<stop stop-color="#009EE3"/>
<stop offset="0.0804" stop-color="#A1DAF8"/>
<stop offset="0.18" stop-color="#4D3E92"/>
<stop offset="0.34" stop-color="#0069B4"/>
<stop offset="0.38" stop-color="#5858A3"/>
<stop offset="0.58" stop-color="#E5007D"/>
<stop offset="0.76" stop-color="#E5007D"/>
<stop offset="1" stop-color="#E7266F"/>
</linearGradient>
<linearGradient id="paint3_linear_119_4961" x1="43.8704" y1="35.6325" x2="95.0756" y2="39.466" gradientUnits="userSpaceOnUse">
<stop stop-color="#009EE3"/>
<stop offset="0.0804" stop-color="#A1DAF8"/>
<stop offset="0.18" stop-color="#4D3E92"/>
<stop offset="0.34" stop-color="#0069B4"/>
<stop offset="0.38" stop-color="#5858A3"/>
<stop offset="0.58" stop-color="#E5007D"/>
<stop offset="0.76" stop-color="#E5007D"/>
<stop offset="1" stop-color="#E7266F"/>
</linearGradient>
</defs>
</svg>
