<svg width="16" height="16" viewBox="0 0 16 16" fill="none" xmlns="http://www.w3.org/2000/svg">
<g clip-path="url(#clip0_129_670)">
<path d="M15.7415 6.7487L12.2749 10.1279L13.0936 14.9006C13.1292 15.1093 13.0435 15.3202 12.8721 15.4449C12.7752 15.5156 12.66 15.5512 12.5448 15.5512C12.4563 15.5512 12.3673 15.5301 12.286 15.4872L7.99971 13.2338L3.71394 15.4866C3.52695 15.5857 3.29933 15.5696 3.12792 15.4444C2.95651 15.3197 2.87081 15.1088 2.90643 14.9001L3.72507 10.1273L0.25794 6.7487C0.106566 6.60067 0.0514702 6.37917 0.11714 6.17827C0.182809 5.97736 0.357001 5.82988 0.566809 5.79928L5.3579 5.10362L7.50051 0.761641C7.68806 0.381536 8.31137 0.381536 8.49891 0.761641L10.6415 5.10362L15.4326 5.79928C15.6424 5.82988 15.8166 5.97681 15.8823 6.17827C15.948 6.37973 15.8929 6.60011 15.7415 6.7487Z" fill="#C4C4C4"/>
</g>
<defs>
<clipPath id="clip0_129_670">
<rect width="16" height="16" fill="white"/>
</clipPath>
</defs>
</svg>
