<svg width="690" height="568" viewBox="0 0 690 568" fill="none" xmlns="http://www.w3.org/2000/svg">
<path d="M0 0H690V557H0V0Z" fill="#B1B8C0"/>
<g clip-path="url(#clip0_132_1897)">
<path d="M-133 15.6411C-117.693 25.0744 -102.675 35.0286 -86.9967 43.8171C-66.1717 55.491 -45.0906 66.8672 -22.1096 73.9195C-3.42409 79.6572 15.9222 81.1619 35.3182 81.8398C56.2588 82.5756 76.6212 79.3844 96.4301 72.3734C102.741 70.1412 109.523 69.3061 115.967 67.388C119.989 66.1892 123.806 64.2629 127.622 62.4605C129.96 61.3609 130.373 59.542 128.638 57.4421C126.457 54.7964 124.516 51.9194 122.096 49.5135C100.379 27.8771 84.3036 2.45428 71.574 -25.2423C69.451 -29.8555 67.3198 -34.4523 65.1637 -39.107C67.8567 -40.5704 68.4184 -38.7846 69.3436 -36.9905C77.2077 -21.7368 84.7331 -6.28462 93.2002 8.63012C103.138 26.1161 116.875 40.7002 131.62 54.1598C140.608 62.3613 151.966 59.6661 159.351 50.4808C176.665 28.9437 190.675 5.35619 202.777 -19.4218C205.611 -25.2175 207.973 -31.2445 210.74 -37.0732C211.302 -38.2554 212.715 -39.0327 213.739 -40C214.268 -39.5866 214.796 -39.1815 215.325 -38.7681C208.403 -25.0604 201.786 -11.1873 194.467 2.30547C188.965 12.4415 182.415 21.9906 176.641 31.9861C174.542 35.6239 172.923 39.6667 171.8 43.7179C170.032 50.1252 176.484 57.409 183.067 57.5744C205.594 58.1366 228.121 58.7153 250.631 59.7322C264.344 60.3523 278.007 61.9231 291.711 62.783C300.261 63.3204 307.596 59.5917 315.055 55.8134C327.05 49.7284 327.793 38.5258 327.942 27.6869C328.272 4.90141 325.323 -17.5286 317.501 -39.2311C320.35 -40.8102 321.49 -38.7763 322.027 -36.635C325.051 -24.5478 328.528 -12.5267 330.668 -0.274129C332.692 11.3254 333.947 23.0984 332.593 35.0286C332.089 39.4187 333.27 44.0237 333.799 48.513C334.435 53.9118 337.086 58.3763 341.762 60.9062C349.684 65.1971 357.945 68.8431 366.015 72.8529C376.324 77.9788 386.758 82.8733 396.827 88.4291C415.529 98.7471 430.927 112.967 443.343 130.271C447.407 135.935 450.612 142.243 453.9 148.419C457.138 154.496 460.69 159.869 467.802 162.151C473.279 163.904 478.186 162.408 481.969 159.241C490.238 152.329 498.077 144.856 505.686 137.2C513.194 129.643 515.4 119.639 515.606 109.52C516.077 86.6267 520.612 64.6349 528.022 43.0399C536.208 19.1796 550.408 -0.365081 569.722 -16.1892C579.478 -24.1841 589.96 -31.3024 600.27 -38.5862C601.814 -39.6775 604.226 -39.5453 606.242 -39.9834C606.374 -39.6279 606.506 -39.2807 606.638 -38.9252C600.74 -35.0063 594.727 -31.2611 588.977 -27.1438C567.896 -12.0141 548.74 5.02548 537.043 28.8031C527.237 48.7198 521.571 69.9262 519.456 91.9924C519.043 96.2751 519.935 100.781 520.844 105.055C521.901 110.041 527.031 113.604 533.094 113.579C536.316 113.563 539.761 113.025 542.726 111.802C555.282 106.643 567.805 101.36 580.155 95.7211C618.897 78.045 659.523 71.3069 701.875 74.1592C709.681 74.6883 717.479 75.5151 725.294 75.7714C744.698 76.4163 754.346 68.3967 761.046 52.5063C761.55 51.2992 761.566 49.8194 761.525 48.4717C760.881 26.9759 759.08 5.62069 751.141 -14.6267C748.754 -20.7199 745.194 -26.3667 742.055 -32.154C740.749 -34.5599 739.155 -36.8004 738.114 -39.7271C738.825 -39.4047 739.849 -39.2807 740.196 -38.7267C746.573 -28.7973 752.215 -18.653 756.172 -7.30161C763.07 12.458 763.516 32.8542 764.862 53.2586C765.63 64.9077 768.414 75.9615 777.625 83.9149C781.136 86.9409 785.927 88.5283 790.222 90.5952C792.866 91.8684 792.94 91.7196 792.601 95.5475C781.02 91.4137 772.627 97.1183 765.498 105.105C762.69 108.247 760.22 112.513 759.517 116.605C754.454 145.972 742.393 172.205 724.526 195.767C710.334 214.477 695.564 232.74 680.901 251.086C675.119 258.32 674.896 267.076 673.392 275.525C672.178 282.354 674.813 288.034 679.241 292.846C692.755 307.512 705.989 322.7 722.741 333.679C734.257 341.228 746.829 347.478 759.584 352.72C768.869 356.539 779.07 355.01 788.611 351.397C789.867 350.917 791.139 350.487 792.981 349.826C792.981 356.192 793.064 362.178 792.882 368.147C792.857 369.015 791.709 370.123 790.809 370.652C784.531 374.331 778.178 377.862 771.867 381.474C759.79 388.378 746.821 391.759 732.894 391.677C722.32 391.611 711.672 391.048 701.181 392.016C679.373 394.016 659.87 402.879 641.523 414.363C627.34 423.242 615.122 434.098 607.919 449.699C604.028 458.115 600.162 466.556 596.065 474.874C579.411 508.655 552.829 531.482 518.151 545.355C510.815 548.29 503.282 550.869 496.26 554.449C490.065 557.608 489.933 560.179 493.931 565.875C494.385 566.52 494.682 567.272 495.046 567.983C492.295 567.983 489.544 567.983 486.794 567.983C485.992 567.281 485.265 566.479 484.39 565.9C472.453 558.071 459.914 551.018 448.72 542.246C437.982 533.822 427.392 524.595 419.04 513.922C410.499 503.017 403.981 490.293 397.959 477.701C386.435 453.609 379.125 427.914 371.393 402.425C364.454 379.565 357.812 356.614 350.733 333.795C348.024 325.065 340.283 320.038 332.667 321.344C329.429 321.898 326.216 322.774 323.093 323.816C317.625 325.643 313.874 332.109 315.353 337.631C316.741 342.782 318.112 348.073 320.524 352.778C337.97 386.898 347.338 423.251 350.981 461.224C352.534 477.395 358.787 491.111 369.906 503.149C378.77 512.748 390.037 518.783 400.247 526.381C419.123 540.378 438.155 554.135 457.105 567.992C454.908 567.992 452.702 567.992 450.505 567.992C447.886 565.842 445.358 563.552 442.624 561.56C430.035 552.399 417.578 543.032 404.683 534.318C394.969 527.753 385.32 520.85 373.764 517.559C369.336 516.303 366.973 517.501 367.378 521.991C367.799 526.687 368.485 531.796 370.732 535.789C375.209 543.751 380.851 551.06 385.965 558.674C388.021 561.733 389.93 564.883 391.904 568C389.979 568 388.054 568 386.13 568C385.618 567.19 385.13 566.371 384.585 565.586C378.712 556.996 372.814 548.414 366.965 539.807C362.43 533.144 358.457 526.017 353.31 519.874C346.892 512.21 339.639 505.232 332.518 498.18C326.042 491.773 318.93 486.333 309.868 483.77C292.785 478.933 275.52 475.295 257.809 473.683C228.228 470.98 199.407 473.551 171.618 484.745C165.861 487.06 162.143 490.863 161.491 497.023C160.309 508.151 164.432 517.907 171.973 525.447C185.488 538.964 200.464 550.82 217.233 560.237C221.611 562.676 225.841 565.396 230.145 567.992C227.394 567.992 224.643 567.992 221.892 567.992C220.951 567.256 220.058 566.437 219.051 565.801C202.521 555.425 186.9 543.834 172.725 530.407C163.688 521.85 153.362 515.815 141.583 511.855C135.007 509.647 129.167 510.218 123.715 514.236C121.311 516.013 119.139 518.188 117.164 520.445C110.861 527.679 104.377 534.789 98.5697 542.412C92.2833 550.671 86.6661 559.443 80.7598 567.992C79.6611 567.992 78.5625 567.992 77.4556 567.992C77.9182 566.892 78.1908 565.66 78.8681 564.709C85.4601 555.4 91.8373 545.925 98.8258 536.914C107.21 526.1 115.892 515.492 124.88 505.174C130.943 498.205 130.745 489.863 129.357 482.24C127.812 473.782 123.731 465.746 120.32 457.702C118.478 453.353 116.057 449.161 113.315 445.309C107.21 436.735 97.8014 433.701 88.1035 431.998C79.7355 430.526 71.0866 430.634 62.7351 429.096C37.532 424.45 14.8732 414.156 -4.85317 397.555C-9.67737 393.496 -14.9311 389.916 -20.1849 386.41C-27.0577 381.822 -38.9695 383.103 -42.8933 388.742C-45.3219 392.231 -47.734 395.786 -49.6505 399.572C-58.1011 416.198 -66.0973 433.064 -74.8123 449.558C-80.1734 459.703 -83.6759 470.252 -84.6837 481.587C-85.7824 494.038 -84.5681 505.919 -75.3327 515.691C-70.9959 520.279 -67.4934 525.662 -63.0244 530.093C-58.5967 534.491 -53.7394 538.6 -48.5353 542.031C-35.0292 550.919 -21.234 559.369 -7.55438 567.992C-10.0326 567.992 -12.5025 567.992 -14.9807 567.992C-17.9793 566.132 -21.0109 564.313 -23.9847 562.395C-35.847 554.73 -47.7588 547.141 -59.4888 539.287C-62.6361 537.178 -65.5356 534.508 -67.9973 531.623C-74.8453 523.578 -81.0077 514.938 -88.1532 507.183C-97.5372 496.998 -104.823 494.732 -115.19 506.348C-115.372 506.555 -115.545 506.77 -115.735 506.969C-121.485 512.996 -127.242 519.031 -133 525.058C-133 523.132 -133 521.205 -133 519.279C-123.955 511.326 -116.033 502.206 -111.828 490.979C-107.962 480.653 -105.459 469.698 -103.493 458.818C-101.279 446.557 -100.759 433.999 -98.7267 421.696C-96.1081 405.798 -90.2514 390.825 -84.882 375.662C-80.1238 362.203 -82.3625 352.935 -97.6363 351.645C-109.383 350.661 -121.204 350.529 -132.992 350.024C-132.992 348.652 -132.992 347.271 -132.992 345.899C-124.062 346.172 -115.132 346.296 -106.219 346.767C-101.568 347.007 -96.9507 348.173 -92.3 348.346C-78.1578 348.875 -68.1873 341.195 -59.9762 330.827C-56.325 326.222 -53.5164 320.947 -50.3196 315.978C-39.8451 299.683 -28.8255 283.578 -22.597 265.075C-10.0408 227.771 -11.9904 190.691 -27.6525 154.801C-41.5716 122.889 -60.7693 94.0511 -84.1716 68.2975C-97.7272 53.3827 -112.53 39.6089 -126.879 25.4216C-128.581 23.7433 -130.935 22.7347 -132.992 21.4119C-132.992 19.4855 -132.992 17.5592 -132.992 15.6328L-133 15.6411ZM607.01 399.837C607.01 395.546 607.299 391.255 606.944 387.03C606.44 381.036 606.655 374.588 604.441 369.214C600.179 358.904 593.289 350.033 585.21 342.22C581.815 338.938 577.949 338.119 573.489 340.079C571.498 340.955 569.317 341.451 567.186 341.955C552.812 345.328 538.191 346.106 523.479 346.908C495.583 348.437 468.918 342.294 442.17 335.97C439.716 335.391 437.04 335.358 434.52 335.589C424.732 336.466 419.106 343.997 415.818 351.289C408.343 367.866 401.982 385.071 396.72 402.482C392.54 416.339 392.094 430.964 395.101 445.367C399.462 466.251 408.177 485.498 417.842 504.339C419.585 507.746 421.32 511.342 423.856 514.128C430.877 521.825 438.254 529.208 445.614 536.583C455.279 546.273 467.059 550.803 480.672 549.753C486.372 549.315 491.956 547.629 497.631 546.694C515.103 543.809 530.93 537.129 545.799 527.456C570.515 511.367 588.366 489.706 598.427 462.232C605.738 442.258 608.968 421.275 607.018 399.845L607.01 399.837ZM-58.068 346.494C-57.6302 353.084 -56.3498 359.111 -50.1048 362.459C-44.0167 365.725 -38.1104 364.319 -33.2201 360.152C-23.7369 352.075 -14.5346 343.658 -5.39837 335.192C1.56531 328.744 8.03338 321.741 15.121 315.441C21.2916 309.951 27.9001 304.925 34.5499 300.014C45.5944 291.854 56.8784 284.024 67.9311 275.881C71.417 273.309 74.8452 270.482 77.6703 267.233C83.684 260.313 83.5849 251.59 84.0392 243.05C84.7001 230.698 84.7084 218.239 86.4596 206.036C92.8533 161.424 110.035 121.012 135.486 83.9646C137.469 81.0709 139.129 77.7639 140.079 74.3989C141.434 69.6203 138.568 66.7597 133.727 67.9337C118.651 71.5879 103.633 75.4737 88.5908 79.2603C81.9493 80.9303 75.3738 82.9807 68.6497 84.1796C49.6668 87.5775 30.5683 86.8003 11.5193 84.7831C-6.01794 82.9311 -23.3156 79.8308 -39.5643 72.5222C-49.444 68.0743 -59.1584 63.246 -69.129 59.0212C-72.1028 57.7646 -75.7127 57.6488 -79.0252 57.6819C-81.0656 57.7067 -82.6351 59.4925 -81.586 61.8322C-80.0826 65.1971 -78.8269 68.9093 -76.4727 71.6211C-62.9088 87.2386 -51.1622 104.121 -40.349 121.715C-24.0508 148.237 -11.4782 175.967 -9.47913 207.714C-7.90134 232.798 -11.0073 257.047 -22.5391 279.411C-30.7006 295.235 -40.8529 310.026 -49.9065 325.404C-53.7808 331.993 -57.9441 338.582 -58.0763 346.486L-58.068 346.494ZM690.707 77.4993C660.812 78.4914 635.311 79.4008 611.099 88.272C594.371 94.4066 578.04 101.641 561.56 108.453C559.553 109.28 557.463 110.256 555.869 111.678C545.634 120.755 536.63 130.966 529.798 142.838C526.477 148.601 523.669 154.76 525.569 162.003C530.046 179.116 537.117 195.189 544.857 210.98C546.204 213.733 548.814 216.635 551.548 217.784C558.066 220.521 564.906 222.687 571.795 224.274C580.576 226.291 589.828 226.614 598.378 229.284C613.875 234.129 627.53 242.827 639.887 253.26C650.717 262.404 670.022 259.684 678.002 249.176C692.45 230.144 707.509 211.583 722.039 192.609C737.272 172.717 747.581 150.362 754.057 126.212C755.965 119.077 757.37 111.678 754.016 104.832C751.158 98.995 747.069 93.7286 743.352 88.3382C739.832 83.237 734.711 81.1205 728.615 80.6575C714.514 79.591 700.429 78.3178 690.723 77.4993L690.707 77.4993ZM134.685 271.209C132.199 271.209 127.267 270.531 122.6 271.333C108.317 273.797 100.767 276.873 96.0419 290.547C93.9685 296.566 92.1429 303.213 92.5559 309.431C93.3985 322.254 95.6454 335.002 97.6362 347.734C100.048 363.187 103.559 378.506 105.162 394.025C106.541 407.393 113.117 416.562 123.888 423.251C126.334 424.764 130.059 425.375 132.901 424.838C138.939 423.689 144.92 421.887 150.686 419.704C173.361 411.114 193.187 397.398 213.128 384.004C228.864 373.438 244.097 362.12 259.726 351.389C265.938 347.123 272.604 343.501 279.105 339.665C286.242 335.449 288.175 330.819 285.54 323.08C283.376 316.706 279.551 311.373 274.372 307.066C264.352 298.732 252.275 294.326 240.355 289.811C207.089 277.212 172.403 272.094 134.685 271.209ZM121.501 450.096C122.046 452.477 122.154 455.073 123.211 457.198C126.259 463.299 130.1 469.028 132.884 475.237C137.461 485.431 149.562 490.053 159.624 485.374C180.35 475.725 201.992 469.533 224.965 468.102C257.132 466.102 288.134 472.187 318.789 480.892C327.091 483.249 333.51 481.761 336.574 475.328C341.2 465.622 343.464 455.048 342.662 444.515C341.77 432.792 339.284 421.134 336.74 409.609C332.543 390.569 324.34 372.984 316.138 355.415C312.866 348.412 307.753 343.262 301.591 338.979C298.229 336.639 294.635 335.928 290.778 338.136C284.351 341.806 277.552 344.915 271.448 349.049C250.722 363.046 230.434 377.688 209.601 391.52C187.297 406.335 164.993 421.242 138.592 428.302C130.406 430.493 122.327 441.712 121.493 450.104L121.501 450.096ZM314.32 321.08C319.326 319.823 324.283 318.244 329.355 317.4C334.361 316.565 337.277 313.308 337.913 309.1C338.714 303.825 339.399 297.781 337.64 292.978C326.108 261.354 313.924 229.946 296.568 200.91C290.034 189.988 283.954 178.72 273.257 170.865C266.491 165.897 259.412 165.095 252.382 169.724C247.335 173.04 242.42 176.578 237.224 179.629C197.292 203.035 157.294 226.325 117.354 249.722C113.819 251.789 110.358 254.095 107.252 256.758C104.517 259.097 104.22 263.289 106.872 265.505C108.879 267.183 112.001 268.448 114.595 268.382C142.59 267.646 170.379 269.481 197.87 274.888C231.764 281.552 263.691 293.201 292.19 313.184C298.815 317.83 305.985 320.402 314.312 321.08L314.32 321.08ZM398.818 210.955C404.485 210.261 413.629 209.368 422.691 207.937C426.004 207.417 429.647 206.309 432.207 204.291C439.163 198.818 445.87 192.965 452.215 186.772C458.03 181.092 459.393 173.767 456.494 166.269C450.612 151.064 443.07 136.704 432.001 124.542C410.019 100.392 384.568 81.8563 351.675 75.4903C338.433 72.9273 323.861 80.4591 320.218 92.5794C317.74 100.839 313.37 108.949 308.199 115.886C299.707 127.279 289.91 137.712 280.567 148.46C278.238 151.139 276.437 154.148 278.015 157.397C279.75 160.986 281.939 164.805 284.954 167.244C291.43 172.478 298.741 176.678 305.415 181.688C332.072 201.671 362.447 209.872 398.818 210.947L398.818 210.955ZM86.4266 229.474C86.757 235.08 87.0626 240.685 87.4178 246.283C87.6656 250.226 89.7638 252.384 93.6546 253.327C99.4783 254.74 104.146 252.07 108.788 249.441C124.268 240.694 139.724 231.905 155.105 222.993C169.727 214.518 184.265 205.904 198.796 197.28C210.104 190.567 221.372 183.796 232.598 176.959C239.223 172.924 245.187 168.038 249.375 161.424C253.134 155.488 254.423 149.064 250.193 142.855C248.384 140.201 245.617 138.15 243.097 136.042C221.124 117.597 196.458 103.112 172.097 88.2141C165.943 84.4524 159.244 81.8067 151.727 81.5008C144.094 81.1949 138.46 84.1134 134.454 90.4464C131.298 95.4401 128.01 100.351 125.078 105.477C103.088 143.938 88.7313 184.772 86.4266 229.474ZM471.024 231.145C470.148 223.844 469.331 214.692 467.893 205.639C466.811 198.843 462.309 195.858 455.643 197.752C449.489 199.496 443.607 202.233 437.676 204.713C432.753 206.763 428.11 209.616 423.046 211.162C411.457 214.7 399.413 214.585 387.468 214.064C364.099 213.038 341.878 207.268 321.193 196.255C314.056 192.46 307.472 187.64 300.475 183.573C299.071 182.754 296.048 182.457 295.313 183.283C294.264 184.466 293.958 187.161 294.544 188.773C296.221 193.395 298.146 198.008 300.608 202.258C313.453 224.456 322.895 248.184 332.485 271.863C336.227 281.106 339.969 290.39 344.422 299.303C349.601 309.687 358.729 313.713 370.145 314.796C381.834 315.904 393.333 318.98 405.013 320.402C410.589 321.08 416.801 321.129 421.997 319.343C432.232 315.83 440.22 308.381 447.944 300.973C452.801 296.318 457.634 291.564 461.838 286.339C464.482 283.057 467.249 278.964 467.712 274.979C469.306 261.073 469.917 247.051 471.032 231.145L471.024 231.145ZM102.287 391.42C102.155 391.404 102.014 391.396 101.882 391.379C101.56 388.246 101.345 385.087 100.899 381.971C96.5293 351.108 88.5165 320.79 87.137 289.497C86.7157 280.006 79.1572 278.642 72.2761 281.676C63.4042 285.587 54.5076 290.076 46.8417 295.921C31.7909 307.405 17.244 319.616 3.15136 332.266C-5.27446 339.831 -12.2547 348.983 -20.2592 357.052C-27.1486 363.997 -27.6277 373.769 -20.3914 380.325C-14.7163 385.468 -8.58697 390.106 -2.73846 395.058C18.5822 413.09 43.4466 422.631 70.8636 426.392C82.2715 427.955 92.2172 425.814 99.8996 416.835C101.329 415.165 102.072 412.461 102.18 410.196C102.485 403.954 102.287 397.679 102.287 391.42ZM723.518 386.162C736.165 386.41 749.456 387.163 761.566 381.259C770.901 376.712 773.189 369.867 764.92 363.269C758.708 358.309 751.075 355.126 744.07 351.165C735.983 346.593 727.376 342.749 719.908 337.325C702.941 325.007 688.873 309.497 674.615 294.226C666.379 285.405 652.964 285.554 644.365 294.251C641.085 297.575 637.508 300.609 634.27 303.974C628.19 310.29 620.905 315.945 616.543 323.312C608.662 336.614 607.341 351.926 607.861 367.205C608.2 377.208 609.001 387.204 609.728 397.191C610.083 402.102 610.504 407.03 611.339 411.874C612.38 417.902 618.294 421.663 624.01 419.803C627.612 418.629 631.222 417 634.32 414.843C661.026 396.298 689.682 383.93 723.51 386.162L723.518 386.162ZM522.041 341.939C540.628 342.013 556.744 340.36 572.415 335.763C578.61 333.944 584.128 330.438 586.202 323.907C588.614 316.317 589.192 308 585.995 300.89C578.511 284.239 570.151 267.96 561.453 251.904C559.429 248.176 555.067 244.48 551.036 243.29C536.762 239.065 522.504 240.966 510.501 249.623C490.982 263.694 472.61 279.295 455.907 296.715C451.364 301.461 447.225 306.628 443.244 311.869C436.437 320.848 441.096 332.39 451.347 333.514C455.164 333.936 458.964 334.663 462.689 335.573C482.944 340.533 503.414 343.377 522.033 341.939L522.041 341.939ZM187.52 61.5924C181.201 62.3861 175.443 62.4192 170.107 63.9322C161.342 66.4207 156.997 68.7522 163.878 78.3591C164.646 79.4257 165.869 80.2276 167.009 80.9469C172.477 84.3697 178.004 87.7098 183.489 91.1078C206.379 105.295 229.476 119.16 249.598 137.332C251.854 139.366 254.935 140.953 257.892 141.656C267.995 144.045 277.833 144.368 285.474 135.406C289.472 130.718 293.768 126.278 297.576 121.442C305.87 110.909 313.189 99.8715 314.956 86.048C315.708 80.1367 312.966 73.9194 307.728 72.2328C301.863 70.3478 295.932 68.1983 289.877 67.4955C276.834 65.966 263.707 65.0152 250.59 64.3207C229.343 63.1963 208.081 62.4688 187.52 61.6007L187.52 61.5924ZM473.626 249.499C473.552 251.045 473.527 252.153 473.444 253.244C473.122 257.609 474.023 261.594 478.095 263.851C482.3 266.183 486.075 265.108 489.767 261.983C499.399 253.847 509.114 245.795 519.084 238.081C523.611 234.576 528.947 232.137 533.672 228.863C540.768 223.952 542.156 219.611 539.447 211.476C533.392 193.254 527.295 175.041 521.083 156.868C518.415 149.064 515.54 146.674 509.345 147.228C503.257 147.774 497.243 149.188 492.972 153.999C486.042 161.796 479.326 169.782 472.684 177.827C471.635 179.1 470.884 181.084 470.925 182.713C471.065 188.418 471.164 194.188 472.09 199.794C474.849 216.461 474.997 233.162 473.626 249.482L473.626 249.499ZM586.036 231.599C585.946 231.913 585.863 232.228 585.772 232.533C583.583 232.732 581.361 232.732 579.213 233.154C569.433 235.055 564.369 241.52 566.525 249.78C567.657 254.12 569.044 258.56 571.234 262.429C578.85 275.905 584.492 290.332 592.612 303.651C599.047 314.201 616.146 318.021 624.572 308.719C630.735 301.915 637.574 295.739 643.795 288.985C650.056 282.18 650.891 276.955 646.752 269.564C644.497 265.538 641.804 261.396 638.318 258.494C626.571 248.705 613.858 240.272 599.344 235.039C595.049 233.493 590.481 232.724 586.036 231.591L586.036 231.599ZM369.113 318.459C369.055 318.765 369.006 319.062 368.948 319.368C367.576 319.368 366.205 319.385 364.834 319.368C359.349 319.302 356.821 320.559 355.888 325.776C355.053 330.48 354.723 335.697 355.863 340.26C359.2 353.555 363.207 366.7 367.279 379.796C371.575 393.644 376.167 407.393 380.851 421.118C381.429 422.813 383.371 424.044 384.676 425.491C385.75 423.995 387.237 422.639 387.823 420.969C389.938 415.033 391.656 408.964 393.68 402.995C398.835 387.807 403.75 372.529 409.425 357.54C412.052 350.595 413.002 343.782 411.812 336.647C410.837 330.761 408.07 325.652 401.817 324.329C390.979 322.039 380.009 320.385 369.096 318.459L369.113 318.459ZM-94.3073 437.124C-94.3073 439.174 -94.9269 441.514 -94.1669 443.225C-92.9608 445.92 -91.2839 448.855 -88.9627 450.476C-86.2367 452.386 -83.6676 450.021 -82.1064 447.681C-78.3065 442.018 -74.4818 436.347 -71.1611 430.402C-63.14 416.05 -55.4577 401.499 -47.511 387.105C-42.0755 377.25 -49.1218 364.766 -58.0515 364.038C-64.7756 363.492 -75.4649 366.849 -78.3396 374.943C-80.2643 380.367 -82.5112 385.674 -84.6094 391.04C-90.3918 405.864 -93.6134 421.233 -94.3073 437.124Z" fill="#D4DCE4" fill-opacity="0.3"/>
</g>
<defs>
<clipPath id="clip0_132_1897">
<rect width="718" height="568" fill="white" transform="translate(1)"/>
</clipPath>
</defs>
</svg>
