<svg width="19" height="21" viewBox="0 0 19 21" fill="none" xmlns="http://www.w3.org/2000/svg">
<g clip-path="url(#clip0_129_496)">
<path d="M1.90933 19.7711L1.90933 4.68016L3.67753 4.68016L3.67753 19.7711L4.79113 19.7711L4.79112 0.0019543L14.2132 2.92177L14.2132 7.10449L10.1883 7.1045L10.1883 19.7711L11.3019 19.7711L11.3019 8.33531L15.9787 8.33531L15.9787 19.7711L18.2617 19.7711L18.2617 21.002L0.739942 21.002L0.739942 19.7711L1.90933 19.7711ZM8.07088 12.7547L8.07088 10.2791L6.95729 10.2791L6.95729 12.7547L8.07088 12.7547ZM6.95729 14.8004L6.95729 17.276L8.07088 17.276L8.07088 14.8004L6.95729 14.8004ZM8.07088 8.23344L8.07088 5.75782L6.95729 5.75782L6.95729 8.23344L8.07088 8.23344ZM14.1971 10.2791L13.0835 10.2791L13.0835 12.7547L14.1971 12.7547L14.1971 10.2791ZM14.1971 14.8004L13.0835 14.8004L13.0835 17.276L14.1971 17.276L14.1971 14.8004Z" fill="white"/>
</g>
<defs>
<clipPath id="clip0_129_496">
<rect width="19" height="21" fill="white" transform="matrix(-1 8.74228e-08 8.74228e-08 1 19 0.00195312)"/>
</clipPath>
</defs>
</svg>
