<svg width="20" height="20" viewBox="0 0 20 20" fill="none" xmlns="http://www.w3.org/2000/svg">
<g clip-path="url(#clip0_129_595)">
<path d="M9.16667 11.459C9.16667 11.1148 8.885 10.834 8.54167 10.834H5.41667V13.334C5.41667 13.794 5.04333 14.1673 4.58333 14.1673C4.12333 14.1673 3.75 13.794 3.75 13.334V10.834H0.625C0.280833 10.834 0 11.1148 0 11.459V19.3757C0 19.7198 0.280833 20.0007 0.625 20.0007H8.54167C8.885 20.0007 9.16667 19.7198 9.16667 19.3757V11.459Z" fill="white"/>
<path d="M19.9987 11.459C19.9987 11.1148 19.717 10.834 19.3737 10.834H16.2487V13.334C16.2487 13.794 15.8754 14.1673 15.4154 14.1673C14.9554 14.1673 14.582 13.794 14.582 13.334V10.834H11.457C11.1129 10.834 10.832 11.1148 10.832 11.459V19.3757C10.832 19.7198 11.1129 20.0007 11.457 20.0007H19.3737C19.717 20.0007 19.9987 19.7198 19.9987 19.3757V11.459Z" fill="white"/>
<path d="M14.5846 0.625C14.5846 0.281667 14.303 0 13.9596 0H10.8346V2.5C10.8346 2.96 10.4613 3.33333 10.0013 3.33333C9.5413 3.33333 9.16797 2.96 9.16797 2.5V0H6.04297C5.6988 0 5.41797 0.281667 5.41797 0.625V8.54167C5.41797 8.88583 5.6988 9.16667 6.04297 9.16667H13.9596C14.303 9.16667 14.5846 8.88583 14.5846 8.54167V0.625Z" fill="white"/>
</g>
<defs>
<clipPath id="clip0_129_595">
<rect width="20" height="20" fill="white"/>
</clipPath>
</defs>
</svg>
