<svg width="20" height="20" viewBox="0 0 20 20" fill="none" xmlns="http://www.w3.org/2000/svg">
<g clip-path="url(#clip0_129_626)">
<path d="M13.501 15.3613H6.52344C6.96456 15.9123 7.2293 16.6103 7.2293 17.3694C7.2293 17.5382 7.21606 17.704 7.19088 17.8659H12.8335C12.8084 17.704 12.7951 17.5382 12.7951 17.3694C12.7952 16.6104 13.0599 15.9123 13.501 15.3613Z" fill="white"/>
<path d="M16.538 -2H15.2857V-0.614462H4.6351V-2H3.38281V1.89012H16.538V-2Z" fill="white"/>
<path d="M11.7336 14.1132L13.3153 12.5451L10.8497 10.0898L13.3142 7.63553L10.8497 5.18135L12.8687 3.17084L12.8425 3.14453H11.1204L9.96229 4.29773L8.8042 3.14453H7.08211L7.05588 3.17084L9.07491 5.18135L6.61034 7.63553L9.07491 10.0898L6.60938 12.5451L8.19075 14.1132H11.7336ZM8.38505 7.63558L9.96225 6.06501L11.5395 7.63558L9.96225 9.20622L8.38505 7.63558ZM9.96229 10.9735L11.5385 12.5432L9.96212 14.1062L8.38601 12.5432L9.96229 10.9735Z" fill="white"/>
<path d="M4.00805 19.3794C5.11707 19.3794 6.0161 18.4803 6.0161 17.3713C6.0161 16.2623 5.11707 15.3633 4.00805 15.3633C2.89903 15.3633 2 16.2623 2 17.3713C2 18.4803 2.89903 19.3794 4.00805 19.3794Z" fill="white"/>
<path d="M17.8784 18.1437C18.3032 17.1189 17.8168 15.9439 16.792 15.5191C15.7673 15.0944 14.5923 15.5808 14.1675 16.6055C13.7428 17.6302 14.2291 18.8053 15.2539 19.23C16.2786 19.6548 17.4536 19.1684 17.8784 18.1437Z" fill="white"/>
</g>
<defs>
<clipPath id="clip0_129_626">
<rect width="20" height="20" fill="white"/>
</clipPath>
</defs>
</svg>
