<svg width="20" height="20" viewBox="0 0 20 20" fill="none" xmlns="http://www.w3.org/2000/svg">
<g clip-path="url(#clip0_129_394)">
<path d="M0.833333 0.833984C0.373096 0.833984 0 1.20708 0 1.66732C0 2.12756 0.373096 2.50065 0.833333 2.50065H2.31608C2.43741 2.50065 2.55567 2.53883 2.65409 2.60977C2.75252 2.68072 2.82613 2.78084 2.86449 2.89594L5.61198 11.14C5.73399 11.506 5.7495 11.9001 5.65592 12.2744L5.42969 13.181C5.09773 14.5088 6.13132 15.834 7.5 15.834H17.5C17.9602 15.834 18.3333 15.4609 18.3333 15.0007C18.3333 14.5404 17.9602 14.1673 17.5 14.1673H7.5C7.17551 14.1673 6.9672 13.9011 7.0459 13.5863L7.21651 12.9048C7.24542 12.7894 7.31208 12.6869 7.40591 12.6137C7.49974 12.5404 7.61535 12.5007 7.73438 12.5007H16.6667C17.0255 12.5008 17.3441 12.2714 17.4577 11.931L19.6794 5.26432C19.8593 4.7245 19.4574 4.16706 18.8883 4.16732H5.46224C5.34091 4.16732 5.22265 4.12914 5.12422 4.0582C5.02579 3.98725 4.95218 3.88714 4.91381 3.77203L4.12435 1.40365C4.0108 1.06328 3.69214 0.833797 3.33333 0.833984H0.833333ZM6.66667 16.6673C5.74619 16.6673 5 17.4135 5 18.334C5 19.2545 5.74619 20.0007 6.66667 20.0007C7.58714 20.0007 8.33333 19.2545 8.33333 18.334C8.33333 17.4135 7.58714 16.6673 6.66667 16.6673ZM16.6667 16.6673C15.7462 16.6673 15 17.4135 15 18.334C15 19.2545 15.7462 20.0007 16.6667 20.0007C17.5871 20.0007 18.3333 19.2545 18.3333 18.334C18.3333 17.4135 17.5871 16.6673 16.6667 16.6673Z" fill="white"/>
</g>
<defs>
<clipPath id="clip0_129_394">
<rect width="20" height="20" fill="white"/>
</clipPath>
</defs>
</svg>
