<svg width="26" height="26" viewBox="0 0 26 26" fill="none" xmlns="http://www.w3.org/2000/svg">
<g clip-path="url(#clip0_158_1744)">
<path d="M25.649 8.53883L13.4615 0.143C13.1842 -0.0476667 12.818 -0.0476667 12.5396 0.143L0.352083 8.53883C0.131083 8.6905 0 8.94075 0 9.20833V24.9167C0 25.5147 0.485333 26 1.08333 26H3.25V13C3.25 12.402 3.73533 11.9167 4.33333 11.9167H21.6667C22.2647 11.9167 22.75 12.402 22.75 13V26H24.9167C25.5147 26 26 25.5147 26 24.9167V9.20833C26 8.94075 25.8689 8.6905 25.649 8.53883Z" fill="#1F26A3"/>
<path d="M10.0234 20.582V21.3945C10.0234 21.843 9.65944 22.207 9.21094 22.207C8.76244 22.207 8.39844 21.843 8.39844 21.3945V20.582H6.5026C6.2036 20.582 5.96094 20.8247 5.96094 21.1237V25.457C5.96094 25.756 6.2036 25.9987 6.5026 25.9987H11.9193C12.2183 25.9987 12.4609 25.756 12.4609 25.457V21.1237C12.4609 20.8247 12.2183 20.582 11.9193 20.582H10.0234Z" fill="#1F26A3"/>
<path d="M17.6016 20.582V21.3945C17.6016 21.843 17.2376 22.207 16.7891 22.207C16.3406 22.207 15.9766 21.843 15.9766 21.3945V20.582H14.0807C13.7817 20.582 13.5391 20.8247 13.5391 21.1237V25.457C13.5391 25.756 13.7817 25.9987 14.0807 25.9987H19.4974C19.7964 25.9987 20.0391 25.756 20.0391 25.457V21.1237C20.0391 20.8247 19.7964 20.582 19.4974 20.582H17.6016Z" fill="#1F26A3"/>
<path d="M13.8125 14.082V14.8945C13.8125 15.343 13.4485 15.707 13 15.707C12.5515 15.707 12.1875 15.343 12.1875 14.8945V14.082H10.2917C9.99267 14.082 9.75 14.3247 9.75 14.6237V18.957C9.75 19.256 9.99267 19.4987 10.2917 19.4987H15.7083C16.0073 19.4987 16.25 19.256 16.25 18.957V14.6237C16.25 14.3247 16.0073 14.082 15.7083 14.082H13.8125Z" fill="#1F26A3"/>
</g>
<defs>
<clipPath id="clip0_158_1744">
<rect width="26" height="26" fill="white"/>
</clipPath>
</defs>
</svg>
