<svg width="18" height="18" viewBox="0 0 18 18" fill="none" xmlns="http://www.w3.org/2000/svg">
<path d="M9.001 6.24805C7.483 6.24805 6.25 7.48105 6.25 8.99905C6.25 10.517 7.483 11.753 9.001 11.753C10.519 11.753 11.755 10.517 11.755 8.99905C11.755 7.48105 10.519 6.24805 9.001 6.24805Z" fill="#160C28"/>
<path d="M13.152 1.49805H4.848C3.003 1.49805 1.5 3.00105 1.5 4.84605V13.15C1.5 14.998 3.003 16.498 4.848 16.498H13.152C15 16.498 16.5 14.998 16.5 13.15V4.84605C16.5 3.00105 15 1.49805 13.152 1.49805ZM9 13.858C6.321 13.858 4.14 11.677 4.14 8.99805C4.14 6.31905 6.321 4.14105 9 4.14105C11.679 4.14105 13.86 6.31905 13.86 8.99805C13.86 11.677 11.679 13.858 9 13.858ZM13.962 5.02305C13.395 5.02305 12.933 4.56405 12.933 3.99705C12.933 3.43005 13.395 2.96805 13.962 2.96805C14.529 2.96805 14.991 3.43005 14.991 3.99705C14.991 4.56405 14.529 5.02305 13.962 5.02305Z" fill="#160C28"/>
</svg>
