<svg width="18" height="18" viewBox="0 0 18 18" fill="none" xmlns="http://www.w3.org/2000/svg">
<path d="M5.19053 15.8872C6.32157 16.5138 7.62063 16.873 9.00384 16.873C13.3521 16.873 16.8751 13.3425 16.8751 8.9942C16.8751 4.64595 13.3521 1.12305 9.00384 1.12305C4.65559 1.12305 1.125 4.64595 1.125 8.9942C1.125 10.3927 1.49184 11.6918 2.12609 12.8305L1.125 16.873L5.19053 15.8872ZM5.62613 5.51713C5.8095 5.34135 6.07701 5.27259 6.32157 5.32611L6.5737 5.3796C6.8259 5.43305 7.03225 5.60121 7.1316 5.83045L7.62829 6.9309C7.75058 7.19835 7.70475 7.51932 7.50603 7.74093L7.20033 8.10012C7.10101 8.21472 7.07811 8.39046 7.1545 8.52807C8.05624 10.1481 9.24073 10.6754 9.76801 10.8359C9.92086 10.8894 10.0967 10.8206 10.1807 10.683L10.4023 10.3392C10.6163 10.0106 11.0366 9.89593 11.5027 10.1252L12.4198 10.5837C12.7713 10.7518 12.9318 11.1645 12.8019 11.5313C12.3358 12.8839 11.1436 12.7158 11.1436 12.7158C8.4995 12.647 6.4285 10.2092 5.53443 8.95602C5.12175 8.36756 4.86958 7.65688 4.94597 6.93089C5.02243 6.21253 5.35868 5.76168 5.62613 5.51713Z" fill="#160C28"/>
</svg>
