<svg width="18" height="18" viewBox="0 0 18 18" fill="none" xmlns="http://www.w3.org/2000/svg">
<path d="M16.2005 16.1995V10.9255C16.2005 8.33352 15.6425 6.35352 12.6185 6.35352C11.1605 6.35352 10.1885 7.14552 9.79253 7.90152H9.75653V6.58752H6.89453V16.1995H9.88253V11.4295C9.88253 10.1695 10.1165 8.96352 11.6645 8.96352C13.1945 8.96352 13.2125 10.3855 13.2125 11.5015V16.1815H16.2005V16.1995Z" fill="#160C28"/>
<path d="M2.03516 6.58594H5.02316V16.1979H2.03516V6.58594Z" fill="#160C28"/>
<path d="M3.52878 1.79883C2.57478 1.79883 1.80078 2.57283 1.80078 3.52683C1.80078 4.48083 2.57478 5.27283 3.52878 5.27283C4.48278 5.27283 5.25678 4.48083 5.25678 3.52683C5.25678 2.57283 4.48278 1.79883 3.52878 1.79883Z" fill="#160C28"/>
</svg>
