<svg width="42" height="42" viewBox="0 0 42 42" fill="none" xmlns="http://www.w3.org/2000/svg">
<rect width="42" height="42" rx="21" fill="#E42C70"/>
<path d="M20.2463 22.3595L12.4779 16.7094C12.4629 16.717 12.4682 16.7144 12.4531 16.722V25.272C12.4531 26.2164 13.2187 26.982 14.1631 26.982H27.8431C28.7875 26.982 29.5531 26.2164 29.5531 25.272V16.7015C29.5504 16.7001 29.5513 16.7006 29.5486 16.6992L21.7601 22.3597C21.3088 22.6878 20.6975 22.6877 20.2463 22.3595Z" fill="white"/>
<path d="M21.757 20.2491L28.6562 15.2319C28.4146 15.0997 28.1364 15.0176 27.84 15.0176H14.16C13.8636 15.0176 13.59 15.0997 13.3438 15.2319L20.243 20.2491C20.6943 20.5773 21.3057 20.5773 21.757 20.2491Z" fill="white"/>
</svg>
