<svg width="128" height="36" viewBox="0 0 128 36" fill="none" xmlns="http://www.w3.org/2000/svg">
<g clip-path="url(#clip0_119_4692)">
<path d="M40.0508 17.3342C40.0508 22.9961 43.6663 26.9438 48.6764 26.9438C53.6865 26.9438 57.302 22.9961 57.302 17.3342C57.302 11.6723 53.6865 7.72461 48.6764 7.72461C43.6663 7.72461 40.0508 11.6723 40.0508 17.3342ZM53.9964 17.3342C53.9964 21.3858 51.8012 24.009 48.6764 24.009C45.5515 24.009 43.3564 21.3858 43.3564 17.3342C43.3564 13.2826 45.5515 10.6594 48.6764 10.6594C51.8012 10.6594 53.9964 13.2826 53.9964 17.3342Z" fill="#160C28"/>
<path d="M66.608 26.9424C70.4043 26.9424 72.5736 23.7218 72.5736 19.852C72.5736 15.9822 70.4043 12.7617 66.608 12.7617C64.8519 12.7617 63.5606 13.463 62.7084 14.4759V13.0214H59.6094V31.3316H62.7084V25.2282C63.5606 26.2411 64.8519 26.9424 66.608 26.9424ZM62.6309 19.4625C62.6309 16.8912 64.0771 15.4888 65.9882 15.4888C68.235 15.4888 69.4488 17.2549 69.4488 19.852C69.4488 22.4492 68.235 24.2153 65.9882 24.2153C64.0771 24.2153 62.6309 22.7869 62.6309 20.2676V19.4625Z" fill="#160C28"/>
<path d="M80.9643 26.9424C83.676 26.9424 85.8194 25.5139 86.775 23.1245L84.115 22.1116C83.7018 23.5141 82.488 24.2932 80.9643 24.2932C78.9758 24.2932 77.5812 22.8648 77.3488 20.5273H86.8524V19.4884C86.8524 15.7485 84.7606 12.7617 80.8352 12.7617C76.9098 12.7617 74.3789 15.8524 74.3789 19.852C74.3789 24.0595 77.0905 26.9424 80.9643 26.9424ZM80.8094 15.3849C82.7721 15.3849 83.7018 16.6835 83.7276 18.1898H77.5037C77.9686 16.3458 79.2082 15.3849 80.8094 15.3849Z" fill="#160C28"/>
<path d="M89.1758 26.6567H92.2748V18.6573C92.2748 16.7094 93.6952 15.6706 95.0897 15.6706C96.7942 15.6706 97.4657 16.8912 97.4657 18.5794V26.6567H100.565V17.6704C100.565 14.7356 98.8602 12.7617 96.0194 12.7617C94.2633 12.7617 93.0496 13.5668 92.2748 14.4759V13.0214H89.1758V26.6567Z" fill="#160C28"/>
<path d="M109.642 8.00977L102.617 26.6576H105.897L107.472 22.3982H115.478L117.079 26.6576H120.411L113.386 8.00977H109.642ZM111.449 11.6978L114.393 19.4893H108.557L111.449 11.6978Z" fill="#160C28"/>
<path d="M125.731 8.06445H122.426V26.7123H125.731V8.06445Z" fill="#160C28"/>
<path d="M32.482 14.8588C33.2632 12.5007 32.9942 9.91763 31.7449 7.77278C29.8661 4.48301 26.0892 2.79051 22.4005 3.58698C20.7595 1.72783 18.4019 0.670557 15.9302 0.685707C12.1597 0.67705 8.81432 3.11841 7.65434 6.72633C5.23216 7.22521 3.1414 8.74998 1.91793 10.9111C0.0251638 14.1922 0.456659 18.3282 2.98537 21.1418C2.20416 23.4998 2.47317 26.083 3.72246 28.2278C5.60124 31.5176 9.37817 33.2101 13.0669 32.4136C14.7068 34.2728 17.0654 35.33 19.5371 35.3138C23.3098 35.3235 26.6563 32.88 27.8162 29.2688C30.2384 28.77 32.3292 27.2452 33.5526 25.0841C35.4433 21.803 35.0107 17.6702 32.4831 14.8566L32.482 14.8588ZM19.5393 33.051C18.0296 33.0532 16.5672 32.5218 15.4083 31.549C15.4611 31.5208 15.5525 31.47 15.6117 31.4332L22.4683 27.4508C22.8191 27.2506 23.0343 26.8751 23.0321 26.4693V16.7482L25.9299 18.431C25.9611 18.4461 25.9816 18.4764 25.9859 18.5111V26.5613C25.9816 30.1411 23.0988 33.0434 19.5393 33.051ZM5.67549 27.0959C4.91903 25.7821 4.64679 24.2422 4.90611 22.7477C4.95669 22.778 5.046 22.8332 5.10949 22.87L11.9661 26.8524C12.3136 27.0569 12.744 27.0569 13.0927 26.8524L21.4633 21.9913V25.3568C21.4654 25.3915 21.4493 25.425 21.4224 25.4466L14.4915 29.4712C11.4044 31.2589 7.46173 30.1962 5.67656 27.0959H5.67549ZM3.87096 12.0441C4.62419 10.7282 5.81322 9.72176 7.2293 9.19907C7.2293 9.25859 7.22607 9.36356 7.22607 9.43715V17.4029C7.22392 17.8077 7.43913 18.1832 7.78885 18.3834L16.1594 23.2434L13.2616 24.9261C13.2326 24.9456 13.196 24.9488 13.1637 24.9348L6.2318 20.907C3.15108 19.1128 2.0944 15.1488 3.86988 12.0452L3.87096 12.0441ZM27.6796 17.6161L19.309 12.7551L22.2068 11.0734C22.2359 11.0539 22.2724 11.0507 22.3047 11.0647L29.2366 15.0893C32.3227 16.8824 33.3805 20.8529 31.5975 23.9565C30.8432 25.2703 29.6552 26.2767 28.2402 26.8004V18.5966C28.2434 18.1918 28.0293 17.8174 27.6807 17.6161H27.6796ZM30.5634 13.2507C30.5128 13.2193 30.4235 13.1652 30.36 13.1284L23.5034 9.14605C23.1559 8.94152 22.7255 8.94152 22.3768 9.14605L14.0062 14.0071V10.6416C14.0041 10.607 14.0202 10.5734 14.0471 10.5518L20.978 6.53046C24.0651 4.73948 28.0121 5.80541 29.7919 8.91122C30.544 10.2228 30.8163 11.7584 30.5612 13.2507H30.5634ZM12.4309 19.2491L9.53204 17.5663C9.50084 17.5512 9.48039 17.5209 9.47609 17.4863V9.43607C9.47824 5.85195 12.3696 2.94742 15.9334 2.94959C17.441 2.94959 18.9001 3.48201 20.059 4.45163C20.0063 4.47977 19.9159 4.53063 19.8556 4.56742L12.9991 8.54977C12.6483 8.74998 12.4331 9.1244 12.4352 9.53021L12.4309 19.2469V19.2491ZM14.0052 15.836L17.7337 13.6706L21.4622 15.8349V20.1646L17.7337 22.3289L14.0052 20.1646V15.836Z" fill="#160C28"/>
</g>
<defs>
<clipPath id="clip0_119_4692">
<rect width="126.974" height="34.6292" fill="white" transform="translate(0.511719 0.685547)"/>
</clipPath>
</defs>
</svg>
