<svg width="180" height="40" viewBox="0 0 180 40" fill="none" xmlns="http://www.w3.org/2000/svg">
<g clip-path="url(#clip0_119_4736)">
<path fill-rule="evenodd" clip-rule="evenodd" d="M116.016 8.50586H118.48V30.5756H116.016V8.50586ZM95.6184 10.829H98.1251V13.8926C98.1251 16.7675 98.1394 16.9417 98.2615 16.9054C98.3405 16.8764 98.714 16.7748 99.0947 16.6659C99.5472 16.5424 100.093 16.4626 100.675 16.4263C101.336 16.3972 101.723 16.419 102.212 16.5134C102.628 16.5933 103.124 16.7675 103.562 16.9853C103.943 17.174 104.446 17.4935 104.683 17.704C104.912 17.9073 105.279 18.3356 105.487 18.655C105.702 18.9745 105.968 19.4826 106.083 19.7948C106.205 20.0997 106.356 20.6733 106.428 21.0725C106.514 21.5952 106.536 22.0454 106.507 22.7568C106.485 23.2868 106.406 23.9474 106.334 24.2233C106.27 24.4992 106.097 24.971 105.961 25.2687C105.825 25.5663 105.552 26.0237 105.358 26.2778C105.171 26.5319 104.79 26.9094 104.517 27.1199C104.252 27.3305 103.763 27.6209 103.447 27.7661C103.131 27.9185 102.607 28.1073 102.291 28.1944C101.795 28.3323 101.479 28.3541 100.057 28.3614C98.714 28.3686 98.2759 28.3396 97.7444 28.2234C97.3853 28.1436 96.7892 27.9911 96.43 27.8895C96.0709 27.7878 95.7549 27.6717 95.7262 27.6426C95.6974 27.6136 95.6615 23.824 95.6472 19.214L95.6184 10.829ZM98.7428 19.0906L98.1682 19.2939V25.7333C99.3748 26.0528 99.6334 26.0745 100.438 26.0528C101.228 26.031 101.486 25.9947 101.867 25.8495C102.118 25.7478 102.47 25.5591 102.636 25.4212C102.808 25.2905 103.052 25.0436 103.181 24.8767C103.311 24.7097 103.497 24.3612 103.591 24.1071C103.691 23.853 103.806 23.3666 103.849 23.0254C103.914 22.5608 103.914 22.2414 103.842 21.7477C103.785 21.3049 103.663 20.9056 103.483 20.5281C103.339 20.2159 103.088 19.8311 102.93 19.6714C102.772 19.5117 102.485 19.2866 102.291 19.1777C102.104 19.0616 101.738 18.9164 101.479 18.851C101.228 18.7785 100.775 18.7276 100.481 18.7349C100.186 18.7422 99.7986 18.7785 99.6334 18.8148C99.461 18.851 99.066 18.9745 98.7428 19.0906ZM54.8012 11.6058H57.2647V18.6478H63.894V20.9709H57.2647V28.5574H54.8012V20.9709H48.1719V18.6478H54.8012V11.6058Z" fill="#160C28"/>
<path fill-rule="evenodd" clip-rule="evenodd" d="M81.2523 16.3262H83.7158V20.9144C83.7158 23.4408 83.6871 26.0035 83.6009 27.7168L82.9832 27.9055C82.6456 28.0072 81.9346 28.1669 81.4031 28.2613C80.5915 28.3992 80.2252 28.4137 79.0545 28.3847C77.9699 28.3556 77.5318 28.3121 77.0506 28.1887C76.7058 28.0943 76.1169 27.8692 75.7362 27.6805C75.334 27.4772 74.8528 27.1578 74.5799 26.9182C74.3285 26.6859 73.9694 26.2721 73.797 26.0035C73.6174 25.7276 73.3804 25.292 73.2799 25.0379C73.1793 24.7838 73.0285 24.2756 72.9566 23.9199C72.8561 23.3972 72.8345 23.0124 72.8633 22.0977C72.8992 21.2193 72.9495 20.7909 73.0716 20.3554C73.1649 20.0359 73.3804 19.5132 73.5456 19.1938C73.7108 18.8744 74.0412 18.3879 74.2854 18.1193C74.5368 17.8435 74.9462 17.4805 75.1975 17.3062C75.4489 17.1393 75.8655 16.9142 76.1241 16.8126C76.3754 16.7109 76.8351 16.573 77.144 16.5149C77.4528 16.4568 78.0274 16.406 78.4152 16.406C78.8103 16.406 79.3705 16.4641 79.6721 16.5222C79.9666 16.5875 80.4335 16.7472 80.7136 16.8779C80.9865 17.0013 81.2235 17.1102 81.2307 17.103C81.2379 17.103 81.2523 16.9287 81.2523 16.7182V16.3262ZM77.0578 19.1793C76.8495 19.2954 76.5478 19.535 76.3826 19.7165C76.2174 19.898 75.9948 20.2174 75.8942 20.4352C75.7865 20.6457 75.65 21.0378 75.5854 21.3064C75.5207 21.5677 75.4705 22.0469 75.4705 22.3663C75.4705 22.6857 75.5064 23.1576 75.5495 23.4117C75.5997 23.6658 75.729 24.0869 75.8511 24.341C75.9948 24.6459 76.2246 24.9581 76.5191 25.2339C76.8064 25.5025 77.144 25.7276 77.4384 25.8437C77.7975 25.9889 78.0848 26.0325 78.8246 26.0688C79.3489 26.0906 80.0097 26.0615 80.3616 26.0107C80.6992 25.9599 81.0152 25.8946 81.0655 25.8655C81.123 25.8292 81.1661 24.8201 81.202 22.6567L81.2523 19.506C80.6202 19.1575 80.2683 18.9978 80.0528 18.9252C79.8445 18.8453 79.3561 18.7727 78.9755 18.7582C78.5014 18.7364 78.1495 18.7655 77.855 18.8526C77.6252 18.9179 77.2661 19.0631 77.0578 19.1793ZM157.5 16.3262H159.964V20.2174C159.964 22.3591 159.942 24.9218 159.849 27.7168L159.231 27.9055C158.893 28.0072 158.211 28.1669 157.708 28.2467C157.069 28.3629 156.459 28.4064 155.633 28.4064C154.979 28.4064 154.225 28.3701 153.952 28.3266C153.679 28.2758 153.14 28.1378 152.76 28.0144C152.35 27.8837 151.819 27.6297 151.488 27.4119C151.165 27.2013 150.72 26.8311 150.49 26.577C150.267 26.3302 149.951 25.8946 149.801 25.6187C149.65 25.3428 149.441 24.8346 149.341 24.5007C149.19 24.0143 149.147 23.6368 149.111 22.7583C149.089 22.0541 149.111 21.4298 149.169 21.0886C149.219 20.7909 149.348 20.29 149.456 19.9706C149.556 19.6512 149.793 19.143 149.98 18.8453C150.16 18.5477 150.548 18.0758 150.842 17.7999C151.172 17.495 151.603 17.1828 151.955 17.0086C152.271 16.8561 152.731 16.6674 152.99 16.5948C153.241 16.5294 153.866 16.4496 154.376 16.4278C155.058 16.3988 155.453 16.4278 155.877 16.5149C156.2 16.5875 156.681 16.7472 156.961 16.8779C157.234 17.0013 157.471 17.1102 157.478 17.103C157.493 17.103 157.5 16.9287 157.5 16.7182V16.3262ZM153.306 19.1793C153.097 19.2954 152.796 19.535 152.63 19.7165C152.465 19.898 152.25 20.2174 152.142 20.4352C152.034 20.6457 151.898 21.0378 151.833 21.3064C151.769 21.5677 151.718 22.0832 151.718 22.4462C151.718 22.8092 151.769 23.3246 151.833 23.586C151.898 23.8546 152.02 24.2176 152.113 24.399C152.207 24.5805 152.444 24.9 152.638 25.1032C152.831 25.3138 153.148 25.5606 153.334 25.655C153.528 25.7566 153.873 25.8946 154.11 25.9599C154.376 26.0398 154.814 26.0833 155.324 26.0833C155.755 26.0833 156.365 26.047 156.667 26.0035C156.976 25.9599 157.27 25.8946 157.313 25.8655C157.378 25.8292 157.414 24.8927 157.435 22.6494L157.457 19.4769C156.681 19.0776 156.25 18.9107 155.992 18.8453C155.74 18.78 155.309 18.7292 155.029 18.7364C154.756 18.7364 154.34 18.7945 154.11 18.8526C153.873 18.9179 153.514 19.0631 153.306 19.1793ZM134.373 16.4423C134.818 16.4641 135.386 16.5367 135.644 16.602C135.896 16.6674 136.312 16.8198 136.563 16.9433C136.822 17.0594 137.239 17.3135 137.49 17.5095C137.749 17.7055 138.108 18.0685 138.294 18.3154C138.481 18.5622 138.747 19.0123 138.891 19.3099C139.034 19.6076 139.221 20.1303 139.307 20.4715C139.393 20.8127 139.494 21.5024 139.573 22.9108H131.055L131.105 23.2012C131.126 23.3609 131.22 23.7021 131.292 23.9562C131.371 24.2103 131.572 24.6096 131.73 24.8346C131.888 25.0597 132.125 25.3283 132.247 25.4227C132.376 25.5171 132.635 25.6768 132.829 25.7784C133.015 25.8728 133.346 25.9962 133.561 26.0543C133.777 26.1124 134.351 26.1632 134.868 26.1632C135.378 26.1632 136.111 26.1124 136.492 26.047C136.872 25.9817 137.411 25.851 137.684 25.7639C137.957 25.6768 138.316 25.5388 138.474 25.459C138.632 25.3791 138.797 25.3065 138.84 25.3065C138.891 25.3065 138.919 25.7494 138.919 27.6297L138.496 27.8257C138.259 27.9346 137.77 28.1088 137.397 28.2177C137.023 28.3193 136.341 28.45 135.874 28.5008C135.235 28.5662 134.804 28.5662 134.136 28.5008C133.647 28.45 132.936 28.3193 132.556 28.2104C132.175 28.1015 131.622 27.8837 131.335 27.724C131.04 27.5643 130.545 27.1941 130.229 26.8964C129.905 26.5988 129.503 26.1124 129.317 25.8147C129.13 25.5171 128.9 25.0089 128.792 24.6894C128.684 24.37 128.555 23.811 128.505 23.4553C128.447 23.056 128.433 22.497 128.462 22.0614C128.483 21.6549 128.577 21.045 128.663 20.7038C128.749 20.3626 128.957 19.8036 129.123 19.4624C129.288 19.1212 129.597 18.6348 129.798 18.3807C130.006 18.1266 130.415 17.7346 130.71 17.5095C131.004 17.2845 131.5 17.0013 131.809 16.8707C132.11 16.74 132.635 16.5875 132.965 16.5222C133.36 16.4496 133.834 16.4205 134.373 16.4423ZM132.685 19.2156C132.455 19.3535 132.132 19.6221 131.96 19.8109C131.794 20.0069 131.572 20.3263 131.471 20.5296C131.371 20.7329 131.284 20.9289 131.284 20.9724C131.284 21.0233 132.254 21.0523 134.042 21.0523H136.801C136.721 20.4788 136.65 20.1956 136.592 20.0432C136.528 19.898 136.341 19.6221 136.176 19.4406C135.975 19.2156 135.73 19.0559 135.45 18.947C135.213 18.8671 134.782 18.78 134.488 18.7582C134.143 18.7437 133.791 18.7727 133.518 18.8453C133.288 18.9107 132.915 19.0776 132.685 19.2156ZM169.516 16.6383H172.073L172.066 20.5296C172.066 24.1958 172.073 24.4499 172.217 24.9218C172.31 25.2121 172.482 25.5534 172.626 25.7276C172.762 25.8873 173.05 26.1051 173.265 26.2067C173.474 26.3084 173.876 26.4245 174.149 26.4608C174.443 26.5044 174.86 26.5044 175.154 26.4608C175.427 26.4245 175.829 26.3084 176.038 26.2067C176.253 26.1051 176.54 25.8873 176.677 25.7276C176.821 25.5534 177 25.2121 177.086 24.9218C177.23 24.4499 177.237 24.1958 177.237 16.6383H179.758L179.744 20.8418C179.737 24.8201 179.729 25.0597 179.586 25.5025C179.5 25.7566 179.32 26.1414 179.184 26.3519C179.047 26.5697 178.81 26.8674 178.645 27.0271C178.487 27.1868 178.142 27.4409 177.891 27.5934C177.639 27.7458 177.151 27.9563 176.813 28.0652C176.425 28.1887 175.908 28.283 175.427 28.3193C174.996 28.3411 174.307 28.3411 173.883 28.3121C173.402 28.283 172.877 28.1887 172.497 28.0652C172.152 27.9563 171.671 27.7458 171.412 27.5934C171.161 27.4409 170.823 27.1868 170.658 27.0271C170.5 26.8674 170.256 26.5697 170.119 26.3519C169.99 26.1414 169.811 25.7566 169.724 25.5025C169.574 25.0669 169.566 24.7983 169.545 20.8418L169.516 16.6383Z" fill="#160C28"/>
<path d="M19.0274 2.54622V4.33213H15.8672V5.4937H19.0274V9.05099H20.2628V5.4937H23.502V4.33213H20.2628V0.767578H19.0274V2.54622Z" fill="#160C28"/>
<path d="M8.6975 7.07807V9.66981H3.91406V11.296H8.6975V16.5593H10.4715V11.296H15.3268V9.66981H10.4715V4.48633H8.6975V7.07807Z" fill="#160C28"/>
<path d="M28.7522 7.07807V9.66981H23.9688V11.3759H28.7522V16.5593H30.5981V11.3759H35.3815V9.66981H30.5981V4.48633H28.7522V7.07807Z" fill="#160C28"/>
<path d="M18.5721 15.9039V18.8078H13.25V20.9712H18.5721V26.7791H20.7268V20.9712H26.0489V18.8078H20.7268V13H18.5721V15.9039Z" fill="#160C28"/>
<path d="M34.2158 17.3696V19.1918H30.9766V20.6656H34.2158V24.3027H35.8318V20.6656H39.0711V19.1918H35.8318V15.5547H34.2158V17.3696Z" fill="#160C28"/>
<path d="M3.37898 17.5295V19.2718H0.21875V20.506H3.37898V23.9907H4.61434V20.506L7.85358 20.3898V19.2718H4.61434V15.7871H3.37898V17.5295Z" fill="#160C28"/>
<path d="M8.6975 25.7343V28.3261H3.91406V30.0321H8.6975V35.2156H10.5434V30.0321H15.3268V28.3261H10.5434V23.1426H8.6975V25.7343Z" fill="#160C28"/>
<path d="M28.7522 25.7343V28.3261H23.9688V29.9523H28.7522V35.2156H30.5981V29.9523H35.3815V28.3261H30.5981V23.1426H28.7522V25.7343Z" fill="#160C28"/>
<path d="M18.8799 32.3203V34.1352H15.6406V35.6089H18.8799V39.2461H20.4959V35.6089H23.7351V34.1352H20.4959V30.498H18.8799V32.3203Z" fill="#160C28"/>
</g>
<defs>
<clipPath id="clip0_119_4736">
<rect width="179.559" height="38.4768" fill="white" transform="translate(0.21875 0.761719)"/>
</clipPath>
</defs>
</svg>
