<svg width="130" height="38" viewBox="0 0 130 38" fill="none" xmlns="http://www.w3.org/2000/svg">
<g clip-path="url(#clip0_119_4730)">
<path d="M49.228 16.2397C49.228 12.3116 48.1064 10.2949 45.863 10.1846C44.9703 10.1425 44.0991 10.2844 43.2512 10.6132C42.5745 10.8549 42.1191 11.0944 41.8795 11.3364V20.7125C43.3144 21.6119 44.5886 22.03 45.6999 21.9642C48.0508 21.8085 49.228 19.9024 49.228 16.2397ZM51.9952 16.4027C51.9952 18.3983 51.5265 20.0549 50.5838 21.3721C49.5332 22.863 48.0773 23.6307 46.2158 23.6728C44.8125 23.7173 43.3668 23.2784 41.8792 22.358V30.8798L39.4727 30.0225V11.1074C39.8676 10.6237 40.376 10.2083 40.9918 9.85572C42.4243 9.02218 44.1645 8.59381 46.2131 8.57277L46.2471 8.60676C48.1194 8.58329 49.5619 9.35101 50.5756 10.9075C51.5211 12.3353 51.9952 14.1653 51.9952 16.4027ZM66.7027 21.9955C66.7027 24.6722 66.4342 26.5257 65.8972 27.5564C65.3575 28.5869 64.3305 29.4099 62.814 30.0228C61.5844 30.5065 60.2545 30.7695 58.8277 30.8143L58.4298 29.2999C59.8807 29.1029 60.9023 28.9055 61.4947 28.7083C62.6611 28.3139 63.4615 27.7094 63.9012 26.8993C64.254 26.2395 64.4277 24.98 64.4277 23.116V22.4902C62.7821 23.2371 61.0576 23.6078 59.2543 23.6078C58.0692 23.6078 57.0241 23.2371 56.1235 22.4902C55.1124 21.6777 54.607 20.6472 54.607 19.3983V9.39579L57.0136 8.57277V18.6403C57.0136 19.7155 57.3609 20.5439 58.056 21.125C58.751 21.706 59.6516 21.9849 60.7548 21.9636C61.858 21.9399 63.0401 21.514 64.2959 20.6804V8.93532H66.7024L66.7027 21.9955ZM76.0969 23.5414C75.8333 23.5637 75.5689 23.575 75.3043 23.5754C73.9432 23.5754 72.8818 23.2522 72.1239 22.6027C71.3681 21.9534 70.9891 21.057 70.9891 19.913V10.4473H69.3408V8.93559H70.9891V4.92057L73.3929 4.06599V8.93559H76.0969V10.4473H73.3929V19.8471C73.3929 20.7492 73.635 21.388 74.1193 21.7616C74.5353 22.0691 75.1963 22.2453 76.0966 22.29V23.5414H76.0969ZM90.6678 23.3442H88.2612V14.0679C88.2612 13.1241 88.0402 12.3116 87.6005 11.6334C87.0924 10.8654 86.3868 10.4816 85.4808 10.4816C84.3776 10.4816 82.9981 11.0626 81.3419 12.2247V23.3442H78.9356V1.17126L81.3419 0.414062V10.5131C82.8795 9.39552 84.5594 8.83551 86.3841 8.83551C87.6586 8.83551 88.6904 9.26415 89.4806 10.1187C90.2731 10.973 90.668 12.038 90.668 13.3107L90.6678 23.3442ZM103.458 15.8613C103.458 14.352 103.172 13.1057 102.6 12.1198C101.921 10.9183 100.865 10.2844 99.4379 10.2188C96.7996 10.3712 95.483 12.259 95.483 15.8772C95.483 17.5362 95.7569 18.9219 96.3099 20.0341C97.0155 21.4514 98.0741 22.1508 99.4855 22.1271C102.134 22.1058 103.458 20.0182 103.458 15.8613ZM106.094 15.8769C106.094 18.0252 105.544 19.8132 104.446 21.2407C103.237 22.8395 101.568 23.6412 99.4379 23.6412C97.3264 23.6412 95.6808 22.8393 94.4933 21.2407C93.4163 19.8132 92.879 18.0252 92.879 15.8769C92.879 13.8578 93.4609 12.1592 94.6248 10.7761C95.8545 9.30893 97.4709 8.57277 99.4695 8.57277C101.468 8.57277 103.095 9.30893 104.348 10.7761C105.512 12.1592 106.094 13.8578 106.094 15.8769ZM119.891 23.3442H117.484V13.5422C117.484 12.4669 117.16 11.628 116.513 11.0232C115.865 10.4211 115.001 10.1293 113.924 10.1527C112.782 10.1738 111.694 10.5471 110.662 11.2703V23.3442H108.256V10.9733C109.641 9.96659 110.915 9.30893 112.079 9.00141C113.177 8.71493 114.146 8.57277 114.98 8.57277C115.551 8.57277 116.089 8.6278 116.594 8.7384C117.539 8.95663 118.308 9.36153 118.901 9.9558C119.562 10.6132 119.891 11.4017 119.891 12.3248V23.3442Z" fill="#160C28"/>
<path d="M15.706 1.26003C14.4678 1.26569 13.2854 1.37117 12.2452 1.55514C9.18033 2.096 8.62387 3.22762 8.62387 5.31497V8.07159H15.8665V8.99037H5.90559C3.80077 8.99037 1.95743 10.2539 1.38098 12.6574C0.715932 15.4124 0.686489 17.1315 1.38098 20.0082C1.89584 22.1495 3.12546 23.6752 5.23028 23.6752H7.72057V20.3707C7.72057 17.9834 9.78893 15.8777 12.2452 15.8777H19.4794C21.4932 15.8777 23.1007 14.222 23.1007 12.2023V5.3147C23.1007 3.35467 21.4449 1.88208 19.4794 1.55487C18.235 1.34824 16.9443 1.25409 15.706 1.26003ZM11.7892 3.47687C12.5375 3.47687 13.1482 4.09703 13.1482 4.85936C13.1482 5.61898 12.5372 6.23348 11.7892 6.23348C11.0385 6.23348 10.4302 5.61925 10.4302 4.85936C10.4302 4.09703 11.0385 3.47687 11.7892 3.47687Z" fill="#160C28"/>
<path d="M24.0013 8.99023V12.2019C24.0013 14.692 21.8873 16.7877 19.4767 16.7877H12.2424C10.2608 16.7877 8.62109 18.4813 8.62109 20.4631V27.3502C8.62109 29.3105 10.3278 30.4635 12.2424 31.0256C14.535 31.6989 16.7335 31.8206 19.4767 31.0256C21.3 30.4985 23.098 29.4373 23.098 27.3502V24.5939H15.8637V23.6751H26.7193C28.8244 23.6751 29.6085 22.2087 30.3406 20.0081C31.0969 17.7427 31.0648 15.5636 30.3406 12.6573C29.8203 10.5648 28.8268 8.99023 26.7193 8.99023H24.0013ZM19.9324 26.4314C20.683 26.4314 21.2914 27.0457 21.2914 27.8056C21.2914 28.5679 20.683 29.1881 19.9324 29.1881C19.1841 29.1881 18.5734 28.5679 18.5734 27.8056C18.5734 27.0459 19.1844 26.4314 19.9324 26.4314Z" fill="#160C28"/>
<path d="M124.582 6.79157H125.004V4.14906H126.003V3.83398H123.582V4.14906H124.582L124.582 6.79157ZM126.377 6.79157H126.738V4.37808L127.52 6.7913H127.921L128.737 4.38617V6.79157H129.13V3.83425H128.61L127.718 6.36805L126.959 3.83425H126.377V6.79157Z" fill="#160C28"/>
</g>
<defs>
<clipPath id="clip0_119_4730">
<rect width="128.256" height="37.1943" fill="white" transform="translate(0.871094 0.402344)"/>
</clipPath>
</defs>
</svg>
