<svg width="152" height="36" viewBox="0 0 152 36" fill="none" xmlns="http://www.w3.org/2000/svg">
<g clip-path="url(#clip0_119_4701)">
<path fill-rule="evenodd" clip-rule="evenodd" d="M28.142 7.47852C28.7046 7.47804 29.2546 7.64756 29.7225 7.96561C30.1904 8.28367 30.5553 8.73598 30.7709 9.26532C30.9865 9.79466 31.0431 10.3772 30.9336 10.9394C30.8242 11.5015 30.5535 12.018 30.156 12.4234C29.7584 12.8288 29.2517 13.105 28.7 13.217C28.1483 13.3289 27.5765 13.2717 27.0567 13.0525C26.537 12.8333 26.0927 12.462 25.7802 11.9855C25.4676 11.509 25.3008 10.9488 25.3008 10.3757C25.3008 9.60771 25.6001 8.87117 26.1328 8.32792C26.6656 7.78467 27.3883 7.47915 28.142 7.47852Z" fill="#160C28"/>
<path fill-rule="evenodd" clip-rule="evenodd" d="M28.142 22.7461C28.7046 22.7456 29.2546 22.9151 29.7225 23.2332C30.1904 23.5513 30.5553 24.0035 30.7709 24.5329C30.9865 25.0622 31.0431 25.6448 30.9336 26.207C30.8242 26.7691 30.5535 27.2856 30.156 27.691C29.7584 28.0964 29.2517 28.3726 28.7 28.4845C28.1483 28.5965 27.5765 28.5393 27.0567 28.3201C26.537 28.1009 26.0927 27.7296 25.7802 27.2531C25.4676 26.7766 25.3008 26.2164 25.3008 25.6432C25.3008 24.8753 25.6001 24.1387 26.1328 23.5955C26.6656 23.0522 27.3883 22.7467 28.142 22.7461Z" fill="#160C28"/>
<path fill-rule="evenodd" clip-rule="evenodd" d="M28.142 15.1127C28.7049 15.1122 29.2552 15.2819 29.7232 15.6003C30.1913 15.9186 30.5562 16.3714 30.7715 16.9011C30.9869 17.4309 31.0432 18.0138 30.9331 18.5762C30.8231 19.1385 30.5518 19.655 30.1535 20.0601C29.7552 20.4652 29.2478 20.7408 28.6957 20.852C28.1436 20.9631 27.5715 20.9049 27.0518 20.6846C26.5322 20.4643 26.0885 20.0918 25.7768 19.6144C25.465 19.137 25.2994 18.576 25.3008 18.0026C25.3008 17.2347 25.6001 16.4981 26.1328 15.9549C26.6656 15.4116 27.3883 15.1061 28.142 15.1055V15.1127Z" fill="#160C28"/>
<path fill-rule="evenodd" clip-rule="evenodd" d="M21.7798 3.97505C22.2709 3.97458 22.7511 4.12257 23.1595 4.40029C23.568 4.67801 23.8864 5.07296 24.0745 5.53515C24.2625 5.99734 24.3117 6.50598 24.2158 6.99667C24.12 7.48737 23.8834 7.93805 23.536 8.29166C23.1885 8.64527 22.746 8.88591 22.2643 8.98311C21.7825 9.08031 21.2833 9.02971 20.8299 8.83769C20.3764 8.64568 19.989 8.3209 19.7168 7.90447C19.4447 7.48804 19.2999 6.99869 19.3008 6.49838C19.3014 5.82871 19.5628 5.18665 20.0276 4.71312C20.4923 4.2396 21.1225 3.97329 21.7798 3.97266V3.97505Z" fill="#160C28"/>
<path fill-rule="evenodd" clip-rule="evenodd" d="M21.7642 26.9883C22.2551 26.9878 22.7351 27.1357 23.1434 27.4132C23.5518 27.6907 23.8702 28.0854 24.0584 28.5473C24.2466 29.0092 24.296 29.5176 24.2006 30.0081C24.1051 30.4987 23.8689 30.9494 23.522 31.3032C23.1751 31.657 22.7329 31.898 22.2515 31.9958C21.7701 32.0935 21.2711 32.0436 20.8175 31.8523C20.3639 31.661 19.9763 31.337 19.7035 30.9212C19.4307 30.5054 19.2852 30.0165 19.2852 29.5164C19.2852 28.8463 19.5463 28.2036 20.0111 27.7296C20.476 27.2556 21.1065 26.9889 21.7642 26.9883Z" fill="#160C28"/>
<path fill-rule="evenodd" clip-rule="evenodd" d="M21.7642 19.3594C22.2551 19.3589 22.7351 19.5068 23.1434 19.7843C23.5518 20.0618 23.8702 20.4565 24.0584 20.9184C24.2466 21.3803 24.296 21.8887 24.2006 22.3792C24.1051 22.8698 23.8689 23.3205 23.522 23.6743C23.1751 24.0281 22.7329 24.2691 22.2515 24.3668C21.7701 24.4646 21.2711 24.4147 20.8175 24.2234C20.3639 24.0321 19.9763 23.7081 19.7035 23.2923C19.4307 22.8765 19.2852 22.3876 19.2852 21.8875C19.2852 21.2174 19.5463 20.5747 20.0111 20.1007C20.476 19.6266 21.1065 19.36 21.7642 19.3594Z" fill="#160C28"/>
<path fill-rule="evenodd" clip-rule="evenodd" d="M21.7642 11.5898C22.2552 11.5894 22.7352 11.7373 23.1437 12.0149C23.5521 12.2925 23.8705 12.6873 24.0586 13.1494C24.2467 13.6114 24.296 14.1199 24.2004 14.6106C24.1047 15.1012 23.8683 15.5519 23.5212 15.9056C23.174 16.2593 22.7316 16.5001 22.2501 16.5976C21.7685 16.6951 21.2694 16.6448 20.8159 16.4532C20.3624 16.2615 19.9748 15.9371 19.7024 15.521C19.4299 15.1049 19.2847 14.6158 19.2852 14.1156C19.2852 13.4457 19.5463 12.8033 20.0113 12.3296C20.4762 11.8559 21.1067 11.5898 21.7642 11.5898Z" fill="#160C28"/>
<path fill-rule="evenodd" clip-rule="evenodd" d="M15.3894 0.685547C15.8025 0.685547 16.2063 0.810348 16.5498 1.04417C16.8932 1.27799 17.1609 1.61033 17.319 1.99915C17.4771 2.38798 17.5185 2.81584 17.4379 3.22862C17.3573 3.6414 17.1584 4.02055 16.8663 4.31815C16.5742 4.61575 16.202 4.81841 15.7969 4.90052C15.3917 4.98263 14.9718 4.94048 14.5901 4.77942C14.2085 4.61837 13.8823 4.34563 13.6528 3.99569C13.4233 3.64576 13.3008 3.23434 13.3008 2.81348C13.3008 2.24911 13.5208 1.70787 13.9125 1.3088C14.3042 0.909739 14.8355 0.685547 15.3894 0.685547Z" fill="#160C28"/>
<path fill-rule="evenodd" clip-rule="evenodd" d="M15.3894 31.0645C15.8026 31.0645 16.2065 31.1893 16.55 31.4232C16.8935 31.6572 17.1612 31.9896 17.3192 32.3786C17.4772 32.7676 17.5185 33.1956 17.4377 33.6084C17.3569 34.0212 17.1578 34.4004 16.8654 34.6979C16.5731 34.9954 16.2007 35.1979 15.7954 35.2797C15.3901 35.3615 14.9701 35.3191 14.5885 35.1576C14.2069 34.9962 13.8809 34.7231 13.6516 34.3728C13.4224 34.0226 13.3003 33.611 13.3008 33.19C13.3008 32.9107 13.3548 32.6341 13.4598 32.376C13.5648 32.118 13.7187 31.8836 13.9127 31.6862C14.1066 31.4888 14.3369 31.3322 14.5903 31.2256C14.8437 31.1189 15.1152 31.0641 15.3894 31.0645Z" fill="#160C28"/>
<path fill-rule="evenodd" clip-rule="evenodd" d="M15.3894 23.4473C15.8019 23.4477 16.205 23.5728 16.5478 23.8067C16.8906 24.0405 17.1576 24.3726 17.3152 24.7611C17.4727 25.1495 17.5137 25.5768 17.4329 25.989C17.3521 26.4011 17.1533 26.7796 16.8614 27.0766C16.5695 27.3736 16.1978 27.5758 15.7932 27.6577C15.3886 27.7395 14.9692 27.6973 14.5881 27.5363C14.207 27.3754 13.8814 27.1029 13.6522 26.7534C13.4231 26.4039 13.3008 25.9931 13.3008 25.5728C13.3008 25.2935 13.3548 25.0169 13.4598 24.7588C13.5648 24.5008 13.7187 24.2664 13.9127 24.069C14.1066 23.8716 14.3369 23.7151 14.5903 23.6084C14.8437 23.5017 15.1152 23.447 15.3894 23.4473Z" fill="#160C28"/>
<path fill-rule="evenodd" clip-rule="evenodd" d="M15.3894 15.8652C15.8025 15.8652 16.2063 15.99 16.5498 16.2239C16.8932 16.4577 17.1609 16.79 17.319 17.1788C17.4771 17.5677 17.5185 17.9955 17.4379 18.4083C17.3573 18.8211 17.1584 19.2002 16.8663 19.4978C16.5742 19.7954 16.202 19.9981 15.7969 20.0802C15.3917 20.1623 14.9718 20.1202 14.5901 19.9591C14.2085 19.7981 13.8823 19.5253 13.6528 19.1754C13.4233 18.8254 13.3008 18.414 13.3008 17.9932C13.3005 17.7136 13.3543 17.4368 13.4591 17.1785C13.564 16.9202 13.7178 16.6854 13.9118 16.4878C14.1058 16.2901 14.3362 16.1334 14.5897 16.0266C14.8433 15.9197 15.115 15.8649 15.3894 15.8652Z" fill="#160C28"/>
<path fill-rule="evenodd" clip-rule="evenodd" d="M15.3894 8.27149C15.8019 8.27196 16.205 8.39702 16.5478 8.63087C16.8906 8.86471 17.1576 9.19684 17.3152 9.58527C17.4727 9.9737 17.5137 10.401 17.4329 10.8132C17.3521 11.2253 17.1533 11.6038 16.8614 11.9008C16.5695 12.1979 16.1978 12.4001 15.7932 12.4819C15.3886 12.5637 14.9692 12.5215 14.5881 12.3605C14.207 12.1996 13.8814 11.9271 13.6522 11.5777C13.4231 11.2282 13.3008 10.8173 13.3008 10.397C13.3008 10.1177 13.3548 9.8411 13.4598 9.58306C13.5648 9.32502 13.7187 9.0906 13.9127 8.89319C14.1066 8.69579 14.3369 8.53927 14.5903 8.4326C14.8437 8.32592 15.1152 8.27117 15.3894 8.27149Z" fill="#160C28"/>
<path fill-rule="evenodd" clip-rule="evenodd" d="M8.94077 4.74219C9.2999 4.74219 9.65096 4.85069 9.94956 5.05396C10.2482 5.25724 10.4809 5.54616 10.6183 5.88419C10.7558 6.22223 10.7917 6.59419 10.7217 6.95305C10.6516 7.3119 10.4787 7.64154 10.2247 7.90026C9.97077 8.15898 9.64724 8.33517 9.29501 8.40655C8.94279 8.47793 8.57769 8.44129 8.24591 8.30128C7.91412 8.16126 7.63053 7.92415 7.43101 7.61993C7.23149 7.3157 7.125 6.95803 7.125 6.59215C7.12469 6.34912 7.17145 6.10841 7.26259 5.88382C7.35373 5.65923 7.48747 5.45517 7.65614 5.28332C7.82481 5.11147 8.0251 4.97522 8.24554 4.88236C8.46598 4.78951 8.70223 4.74187 8.94077 4.74219Z" fill="#160C28"/>
<path fill-rule="evenodd" clip-rule="evenodd" d="M8.94077 27.5605C9.29989 27.5605 9.65095 27.669 9.94956 27.8723C10.2482 28.0756 10.4809 28.3645 10.6183 28.7026C10.7558 29.0406 10.7917 29.4125 10.7217 29.7714C10.6516 30.1303 10.4787 30.4599 10.2247 30.7186C9.97077 30.9773 9.64723 31.1535 9.29501 31.2249C8.94279 31.2963 8.57769 31.2597 8.2459 31.1196C7.91412 30.9796 7.63053 30.7425 7.43101 30.4383C7.23149 30.1341 7.125 29.7764 7.125 29.4105C7.125 28.9199 7.3163 28.4493 7.65683 28.1024C7.99735 27.7554 8.4592 27.5605 8.94077 27.5605Z" fill="#160C28"/>
<path fill-rule="evenodd" clip-rule="evenodd" d="M8.94077 20.0293C9.29989 20.0293 9.65095 20.1378 9.94956 20.3411C10.2482 20.5443 10.4809 20.8333 10.6183 21.1713C10.7558 21.5093 10.7917 21.8813 10.7217 22.2402C10.6516 22.599 10.4787 22.9286 10.2247 23.1874C9.97077 23.4461 9.64723 23.6223 9.29501 23.6937C8.94279 23.765 8.57769 23.7284 8.2459 23.5884C7.91412 23.4484 7.63053 23.2113 7.43101 22.907C7.23149 22.6028 7.125 22.2451 7.125 21.8793C7.125 21.3886 7.3163 20.9181 7.65683 20.5711C7.99735 20.2242 8.4592 20.0293 8.94077 20.0293Z" fill="#160C28"/>
<path fill-rule="evenodd" clip-rule="evenodd" d="M8.94077 12.2734C9.3 12.2734 9.65115 12.382 9.9498 12.5854C10.2485 12.7888 10.4812 13.0778 10.6185 13.416C10.7559 13.7542 10.7917 14.1263 10.7215 14.4852C10.6512 14.8441 10.4781 15.1737 10.2239 15.4324C9.9697 15.691 9.64595 15.867 9.29357 15.9381C8.94119 16.0092 8.57602 15.9722 8.24428 15.8318C7.91253 15.6915 7.62911 15.454 7.42987 15.1494C7.23064 14.8449 7.12454 14.487 7.125 14.121C7.125 13.8782 7.17198 13.6377 7.26326 13.4134C7.35454 13.1891 7.48833 12.9853 7.65697 12.8137C7.82561 12.6421 8.0258 12.5061 8.24609 12.4134C8.46637 12.3207 8.70243 12.2731 8.94077 12.2734Z" fill="#160C28"/>
<path fill-rule="evenodd" clip-rule="evenodd" d="M2.4811 8.80859C2.78022 8.80859 3.07262 8.89896 3.32133 9.06827C3.57003 9.23758 3.76388 9.47822 3.87834 9.75977C3.99281 10.0413 4.02276 10.3511 3.9644 10.65C3.90605 10.9489 3.76201 11.2235 3.55051 11.439C3.339 11.6544 3.06952 11.8012 2.77615 11.8606C2.48278 11.9201 2.1787 11.8896 1.90235 11.773C1.62601 11.6563 1.38981 11.4589 1.22363 11.2055C1.05745 10.9521 0.96875 10.6542 0.96875 10.3494C0.96875 9.94077 1.12809 9.54885 1.41171 9.25989C1.69533 8.97093 2.08 8.80859 2.4811 8.80859Z" fill="#160C28"/>
<path fill-rule="evenodd" clip-rule="evenodd" d="M2.4811 24.0918C2.78022 24.0918 3.07262 24.1822 3.32133 24.3515C3.57003 24.5208 3.76388 24.7614 3.87834 25.043C3.99281 25.3245 4.02276 25.6343 3.9644 25.9332C3.90605 26.2321 3.76201 26.5067 3.55051 26.7222C3.339 26.9376 3.06952 27.0844 2.77615 27.1439C2.48278 27.2033 2.1787 27.1728 1.90235 27.0562C1.62601 26.9395 1.38981 26.7421 1.22363 26.4887C1.05745 26.2353 0.96875 25.9374 0.96875 25.6326C0.96875 25.224 1.12809 24.8321 1.41171 24.5431C1.69533 24.2541 2.08 24.0918 2.4811 24.0918Z" fill="#160C28"/>
<path fill-rule="evenodd" clip-rule="evenodd" d="M2.4811 16.459C2.78022 16.459 3.07262 16.5494 3.32133 16.7187C3.57003 16.888 3.76388 17.1286 3.87834 17.4102C3.99281 17.6917 4.02276 18.0015 3.9644 18.3004C3.90605 18.5993 3.76201 18.8739 3.55051 19.0893C3.339 19.3048 3.06952 19.4516 2.77615 19.511C2.48278 19.5705 2.1787 19.54 1.90235 19.4234C1.62601 19.3067 1.38981 19.1092 1.22363 18.8559C1.05745 18.6025 0.96875 18.3046 0.96875 17.9998C0.96875 17.5912 1.12809 17.1992 1.41171 16.9103C1.69533 16.6213 2.08 16.459 2.4811 16.459Z" fill="#160C28"/>
<path fill-rule="evenodd" clip-rule="evenodd" d="M106.241 8.17578C107.21 8.17578 108.176 8.17578 109.145 8.17578C109.127 14.8663 109.127 21.5576 109.145 28.2497C108.176 28.2377 107.207 28.2497 106.238 28.2497C106.252 21.5608 106.252 14.8727 106.238 8.18537L106.241 8.17578Z" fill="#160C28"/>
<path fill-rule="evenodd" clip-rule="evenodd" d="M97.167 17.7375C96.374 17.9329 95.6674 18.3915 95.1584 19.0411C93.8694 20.6562 93.9024 23.2347 95.3042 24.7707C95.699 25.2304 96.2025 25.5795 96.767 25.7851C97.3316 25.9906 97.9383 26.0457 98.5296 25.9451C99.1209 25.8445 99.6771 25.5916 100.145 25.2103C100.614 24.829 100.979 24.3321 101.205 23.7667C101.911 22.1108 101.676 19.9853 100.399 18.6745C99.986 18.2462 99.4711 17.9346 98.9045 17.7703C98.3379 17.6061 97.7392 17.5948 97.167 17.7375ZM94.5257 15.9115C96.0615 14.9362 98.0537 14.6199 99.7472 15.3724C100.378 15.612 100.878 16.0913 101.382 16.5322C101.396 16.1488 101.396 15.7654 101.396 15.3796H104.183C104.183 19.4293 104.183 23.4783 104.183 27.5265C104.183 29.2039 103.903 30.9436 102.951 32.3407C102.096 33.5748 100.798 34.4153 99.3379 34.6795C97.9597 34.9782 96.5253 34.8496 95.2195 34.3104C93.6936 33.6181 92.4807 32.3643 91.8232 30.7999C92.6652 30.4212 93.5237 30.081 94.3657 29.7047C94.8361 30.7759 95.7181 31.72 96.8659 32.0268C98.1595 32.3335 99.7095 32.0459 100.568 30.934C101.427 29.8222 101.438 28.3796 101.377 27.0568C100.74 27.7502 99.9254 28.2482 99.0251 28.4946C96.9976 29.017 94.7914 28.255 93.3332 26.7644C92.5995 26.0251 92.0396 25.126 91.6956 24.1347C91.3516 23.1435 91.2324 22.0857 91.3469 21.0408C91.4614 19.9958 91.8067 18.9909 92.3568 18.1013C92.9069 17.2118 93.6476 16.4606 94.5233 15.9043L94.5257 15.9115Z" fill="#160C28"/>
<path fill-rule="evenodd" clip-rule="evenodd" d="M67.7661 17.7253C66.8187 17.9385 65.9887 18.5163 65.4494 19.338C64.3816 20.9675 64.5086 23.3543 65.8516 24.7921C66.2843 25.2607 66.8271 25.6092 67.4288 25.8046C68.0305 26 68.6712 26.0358 69.2902 25.9087C70.0444 25.7517 70.7332 25.3628 71.2636 24.7944C72.7948 23.1554 72.7548 20.2654 71.1436 18.6958C70.7019 18.2644 70.1628 17.9502 69.5738 17.781C68.9848 17.6117 68.3641 17.5926 67.7661 17.7253ZM67.8485 14.9911C68.9519 14.8705 70.0677 15.024 71.1003 15.4383C72.1329 15.8527 73.0516 16.5157 73.7779 17.3707C75.7113 19.6807 75.8454 23.3063 74.126 25.7769C73.568 26.5799 72.8461 27.2503 72.0097 27.7422C71.1733 28.234 70.2424 28.5356 69.2808 28.6262C67.4806 28.8244 65.6761 28.2933 64.2569 27.1476C63.5376 26.5358 62.9495 25.78 62.5288 24.9269C62.1081 24.0739 61.864 23.142 61.8115 22.1888C61.759 21.2357 61.8993 20.2818 62.2237 19.3862C62.548 18.4906 63.0496 17.6724 63.6971 16.9825C64.8116 15.8472 66.2795 15.143 67.8485 14.9911Z" fill="#160C28"/>
<path fill-rule="evenodd" clip-rule="evenodd" d="M114.253 19.1022C113.738 19.833 113.48 20.7196 113.522 21.6183C115.545 20.77 117.564 19.9153 119.581 19.0543C119.376 18.6415 119.069 18.2912 118.689 18.0387C118.309 17.7862 117.87 17.6405 117.417 17.6165C116.808 17.5679 116.197 17.6798 115.643 17.9412C115.089 18.2027 114.611 18.605 114.253 19.1094V19.1022ZM112.4 16.9455C113.175 16.1058 114.161 15.4976 115.251 15.1864C116.34 14.8751 117.493 14.8728 118.583 15.1794C120.098 15.6108 121.347 16.7442 122.133 18.1125C122.507 18.7212 122.723 19.4065 123.012 20.0583C120.028 21.3643 117.012 22.6008 114.013 23.8733C114.376 24.7016 115.032 25.3598 115.85 25.716C116.47 25.9642 117.141 26.0459 117.8 25.9532C118.459 25.8604 119.084 25.5964 119.614 25.1864C119.996 24.8671 120.334 24.4972 120.62 24.0865C121.373 24.6041 122.133 25.1169 122.888 25.6346C122.313 26.4966 121.554 27.2148 120.668 27.7352C119.782 28.2556 118.792 28.5647 117.771 28.6392C116.751 28.7137 115.728 28.5517 114.778 28.1653C113.828 27.779 112.976 27.1784 112.287 26.4086C110.013 23.8182 110.081 19.4784 112.407 16.9455H112.4Z" fill="#160C28"/>
<path fill-rule="evenodd" clip-rule="evenodd" d="M82.5148 17.7267C81.7823 17.893 81.1164 18.2815 80.6049 18.841C79.1279 20.4393 79.142 23.2142 80.6261 24.8054C80.9782 25.1847 81.4038 25.4855 81.8759 25.6887C82.3479 25.8919 82.8562 25.993 83.3686 25.9858C83.881 25.9786 84.3864 25.8632 84.8528 25.6468C85.3192 25.4304 85.7364 25.1178 86.0781 24.7287C87.5458 23.08 87.4893 20.2404 85.8947 18.6948C85.4522 18.264 84.9122 17.9511 84.3226 17.7839C83.7331 17.6167 83.1121 17.6003 82.5148 17.7363V17.7267ZM82.3454 15.0332C83.4118 14.871 84.5006 14.9687 85.5228 15.3181C86.5449 15.6676 87.4711 16.259 88.2255 17.0437C90.4411 19.3442 90.6575 23.2741 88.7947 25.8598C88.2382 26.6377 87.5254 27.2858 86.7037 27.761C85.882 28.2362 84.9704 28.5275 84.0295 28.6155C82.277 28.8072 80.5192 28.3044 79.1208 27.2113C78.0766 26.3844 77.2953 25.2617 76.8751 23.9841C76.455 22.7065 76.4146 21.3309 76.759 20.03C77.1035 18.729 77.8175 17.5608 78.8114 16.6718C79.8052 15.7828 81.0347 15.2128 82.3454 15.0332Z" fill="#160C28"/>
<path fill-rule="evenodd" clip-rule="evenodd" d="M43.6158 10.464C44.6396 9.44475 45.8547 8.64632 47.1883 8.11642C48.5219 7.58652 49.9467 7.33603 51.3775 7.37991C53.9496 7.41108 56.4093 8.45835 58.2384 10.301C57.5657 10.9688 56.9016 11.6453 56.2462 12.3307C54.7905 10.943 52.8554 10.1978 50.8627 10.2575C48.8699 10.3172 46.9812 11.177 45.608 12.6494C44.8394 13.4943 44.2623 14.5007 43.9172 15.5977C43.5722 16.6947 43.4676 17.8554 43.6109 18.9981C43.7543 20.1407 44.142 21.2374 44.7467 22.2107C45.3515 23.184 46.1585 24.0102 47.1109 24.631C48.842 25.7453 51.0129 26.0041 52.991 25.5608C54.3902 25.2378 55.6532 24.472 56.599 23.3729C57.4034 22.4144 57.775 21.1803 57.9279 19.9558C55.6488 19.9558 53.3697 19.9558 51.0906 19.9558C51.0906 18.9972 51.0906 18.022 51.0906 17.0538H60.6892C61.0914 19.4837 60.7245 22.0981 59.4779 24.2428C58.8268 25.2907 57.9795 26.1977 56.9843 26.9119C55.9891 27.6261 54.8655 28.1335 53.6778 28.4052C51.6066 28.8831 49.445 28.7543 47.4426 28.0338C44.8285 27.0655 42.6852 25.1017 41.4637 22.5558C40.4953 20.5236 40.2046 18.2249 40.6358 16.009C41.0537 13.8981 42.0932 11.9672 43.6158 10.4736V10.464Z" fill="#160C28"/>
<path fill-rule="evenodd" clip-rule="evenodd" d="M148.625 8.98242H151.029V28.3686H148.625V8.98242Z" fill="#160C28"/>
<path fill-rule="evenodd" clip-rule="evenodd" d="M134.829 20.7364H140.945L137.887 12.2941L134.829 20.7364ZM139.352 8.98242L146.408 28.371H143.704L141.822 23.1806H133.945L132.063 28.371H129.363L136.419 8.98242H139.352Z" fill="#160C28"/>
</g>
<defs>
<clipPath id="clip0_119_4701">
<rect width="150.06" height="34.6292" fill="white" transform="translate(0.96875 0.685547)"/>
</clipPath>
</defs>
</svg>
