<svg width="93" height="93" viewBox="0 0 93 93" fill="none" xmlns="http://www.w3.org/2000/svg">
<g clip-path="url(#clip0)">
<path d="M70.8372 78.2058L55.1598 67.7542C54.4585 67.2912 53.5192 67.4437 53.0003 68.1046L48.4356 73.9733C46.9561 75.9013 44.2861 76.4517 42.165 75.2656L41.3211 74.8022C38.2763 73.141 34.4856 71.0746 26.9609 63.5498C19.4361 56.0251 17.368 52.2345 15.7086 49.188L15.2435 48.3441C14.0576 46.2235 14.6079 43.5539 16.5358 42.0751L22.4028 37.5087C23.0645 36.9902 23.2171 36.0506 22.7533 35.3493L12.3033 19.6702C11.828 18.9588 10.8784 18.7448 10.1438 19.1835L3.58416 23.1169C2.17685 23.9383 1.14181 25.2722 0.695595 26.8394C-1.4588 34.6849 0.353486 48.422 21.2184 69.2888C42.0834 90.1556 55.8175 91.9712 63.6695 89.8149C65.237 89.3682 66.5708 88.3326 67.392 86.9246L71.3237 80.3649C71.7636 79.6309 71.5494 78.6807 70.8372 78.2058Z" fill="#D93F87"/>
<path d="M92.7344 2.75384C92.5625 2.58197 92.3285 2.48659 92.0854 2.48931H22.4854C22.2423 2.48659 22.0083 2.58197 21.8365 2.75384C21.6646 2.92572 21.5692 3.15972 21.5719 3.40281V27.5851L25.5186 33.5052C26.9421 35.656 26.4743 38.5393 24.444 40.1297L18.582 44.6962C17.9545 45.1722 17.7721 46.037 18.1534 46.7261L18.6318 47.5982C20.157 50.4989 22.0174 53.2107 24.1749 55.6778H92.0854C92.5838 55.6814 92.9917 55.2824 92.9991 54.7841V3.40281C93.0019 3.15972 92.9065 2.92572 92.7344 2.75384ZM45.5399 32.9636V32.9553L28.5237 51.1859C27.8979 51.857 26.8467 51.8937 26.1758 51.2682C25.5046 50.6424 25.4679 49.5912 26.0935 48.9203L43.1097 30.6981C43.7354 30.0269 44.7866 29.9902 45.4576 30.6158C46.1287 31.2415 46.1656 32.2927 45.5399 32.9636ZM57.2854 31.6548C56.0883 31.6603 54.9219 31.2755 53.9632 30.5585L26.1998 9.50571C25.4687 8.94885 25.3273 7.90472 25.8842 7.17345C26.441 6.44236 27.4852 6.30101 28.2164 6.85787L55.9684 27.9107C56.7538 28.4814 57.8174 28.4814 58.603 27.9107L86.363 6.85787C87.0941 6.30338 88.1364 6.44654 88.6911 7.17763C89.2458 7.90872 89.1024 8.95103 88.3713 9.50571L60.6077 30.5585C59.649 31.2755 58.4827 31.6603 57.2854 31.6548ZM88.5009 51.2674C88.1787 51.5683 87.7501 51.7287 87.3096 51.7135C86.869 51.6982 86.4526 51.5085 86.1521 51.186L69.1375 32.9555C68.5594 32.278 68.6186 31.2651 69.2714 30.6595C69.9244 30.0538 70.9387 30.0709 71.571 30.6981L88.5823 48.9203C89.2076 49.5909 89.1713 50.6415 88.5009 51.2674Z" fill="#D93F87"/>
</g>
<defs>
<clipPath id="clip0">
<rect width="93" height="93" fill="white"/>
</clipPath>
</defs>
</svg>
