<svg width="93" height="93" viewBox="0 0 93 93" fill="none" xmlns="http://www.w3.org/2000/svg">
<g clip-path="url(#clip0)">
<path fill-rule="evenodd" clip-rule="evenodd" d="M19.574 0H34.2876C38.7931 0 42.4614 3.66829 42.4614 8.17383V13.0767H46.6392C48.1441 13.0767 49.3638 14.2971 49.3638 15.8013C49.3638 17.3062 48.1441 18.5259 46.6392 18.5259H42.4025C41.7093 26.4975 35.0163 32.6946 26.9312 32.6946C18.3543 32.6946 11.4002 25.7405 11.4002 17.1636C11.4002 14.1701 11.4002 11.1702 11.4002 8.17383C11.4002 3.66829 15.0685 0 19.574 0Z" fill="#D93F87"/>
<path fill-rule="evenodd" clip-rule="evenodd" d="M33.2802 39.5124C35.2683 40.41 37.0343 41.7105 38.4704 43.3077L53.118 58.3058H73.564C78.0652 58.3058 81.7378 61.9791 81.7378 66.4804C81.7378 70.9809 78.0645 74.6542 73.564 74.6542H50.6765C48.1655 74.6542 45.6765 74.0234 43.8068 72.1403L41.371 69.6882V90.2739C41.371 91.5936 40.4337 92.7487 39.1885 92.9999L14.1214 92.9985C12.6186 92.9971 11.4003 91.7774 11.4003 90.2739V53.674C11.4003 42.4854 23.0225 34.8827 33.2802 39.5124Z" fill="#D93F87"/>
<path fill-rule="evenodd" clip-rule="evenodd" d="M74.2495 52.8564H54.6316C53.1267 52.8564 51.907 51.6368 51.907 50.1318V30.6963C51.907 29.1914 53.1267 27.9717 54.6316 27.9717H61.7156V32.6518C61.7156 34.1567 62.936 35.3764 64.4402 35.3764C65.9451 35.3764 67.1648 34.1567 67.1648 32.6518V27.9717H74.2495C75.7537 27.9717 76.9741 29.1914 76.9741 30.6963V50.1318C76.9741 51.6368 75.7537 52.8564 74.2495 52.8564Z" fill="#D93F87"/>
</g>
<defs>
<clipPath id="clip0">
<rect width="93" height="93" fill="white" transform="matrix(-1 0 0 1 93 0)"/>
</clipPath>
</defs>
</svg>
