<svg width="93" height="92" viewBox="0 0 93 92" fill="none" xmlns="http://www.w3.org/2000/svg">
<path fill-rule="evenodd" clip-rule="evenodd" d="M74.5199 27.1606C74.8011 27.0722 75.1712 27.249 75.5412 27.7353C75.5412 27.7353 75.5412 27.7353 92.2673 44.0343C93.2442 45.0069 93.2442 46.4806 92.2673 47.2027C92.2673 47.2027 92.2673 47.2027 75.5412 63.7522C75.1712 64.2386 74.8011 64.3565 74.5199 64.2091C74.2387 64.0617 74.061 63.6344 74.061 63.0154V28.2216C74.061 27.6174 74.2387 27.249 74.5199 27.1606Z" fill="#ED1C24"/>
<path fill-rule="evenodd" clip-rule="evenodd" d="M45.908 0H47.0921L48.2319 0.471582C48.2319 0.471582 48.2319 0.471581 65.4464 17.5074C66.1865 18.48 65.9349 19.2169 64.7063 19.2169C64.7063 19.2169 64.7063 19.2169 57.5718 19.2169C56.3433 19.2169 55.3663 20.1895 55.3663 21.4127C55.3663 21.4127 55.3663 21.4127 55.3663 34.0569C55.3663 35.2801 54.3746 36.2527 52.8944 36.2527C52.8944 36.2527 52.8944 36.2527 40.3573 36.2527C39.1287 36.2527 38.137 35.2801 38.137 34.0569C38.137 34.0569 38.137 34.0569 38.137 21.4127C38.137 20.1895 37.1601 19.2169 35.9167 19.2169H28.2938C27.0652 19.2169 26.8136 18.48 27.5537 17.5074C27.5537 17.5074 27.5537 17.5074 44.783 0.471582L45.908 0Z" fill="#ED1C24"/>
<path fill-rule="evenodd" clip-rule="evenodd" d="M18.939 26.7918C19.2498 26.9391 19.4422 27.3665 19.4422 27.9855V63.5014C19.4422 64.1203 19.2498 64.4887 18.939 64.6066C18.6429 64.7245 18.2137 64.6066 17.7104 64.2382C17.7104 64.2382 17.7104 64.2382 0.732691 47.2024C-0.24423 46.4803 -0.24423 45.0066 0.732691 44.0339C0.732691 44.0339 0.732693 44.0339 17.7104 27.2486C18.2137 26.7623 18.6429 26.6444 18.939 26.7918Z" fill="#ED1C24"/>
<path fill-rule="evenodd" clip-rule="evenodd" d="M40.3566 54.748C40.3566 54.748 40.3566 54.748 52.8938 54.748C54.374 54.748 55.3657 55.7207 55.3657 56.9438C55.3657 56.9438 55.3657 56.9438 55.3657 70.3249C55.3657 71.7839 56.3426 72.7565 57.5712 72.7565H64.2172C65.4457 72.7565 65.9342 73.4786 64.9573 74.2155C64.9573 74.2155 64.9573 74.2155 48.2312 91.0008C47.7279 91.4871 47.121 91.7376 46.4994 91.7376C45.8925 91.7376 45.2708 91.4871 44.7824 91.0008C44.7824 91.0008 44.7824 91.0008 28.0563 74.2155C27.0645 73.4786 27.553 72.7565 28.7816 72.7565C28.7816 72.7565 28.7816 72.7565 35.916 72.7565C37.1594 72.7565 38.1363 71.7839 38.1363 70.3249C38.1363 70.3249 38.1363 70.3249 38.1363 56.9438C38.1363 55.7207 39.128 54.748 40.3566 54.748Z" fill="#ED1C24"/>
</svg>
