<svg width="64" height="94" viewBox="0 0 64 94" fill="none" xmlns="http://www.w3.org/2000/svg">
<path d="M61.1112 54.2875C61.1088 54.2869 30.3192 47.3194 30.3192 47.3194C21.1419 45.2425 15.3849 36.1189 17.4611 26.9411C19.5385 17.7632 28.6621 12.0074 37.8394 14.0836C47.0173 16.1606 52.7737 25.284 50.6973 34.4613C49.6569 39.0562 46.8501 42.7901 43.1547 45.1162C43.1541 45.1162 43.1451 45.1237 43.1417 45.1255C43.033 45.2035 42.9627 45.3305 42.9627 45.4734C42.9627 45.6735 43.1009 45.8418 43.2876 45.8867C43.2882 45.8873 56.9846 48.9845 56.987 48.9845C57.313 49.0585 57.6513 48.9327 57.8516 48.6681C57.8526 48.6657 57.8522 48.6675 57.8522 48.6675C61.6255 43.6746 63.892 37.4446 63.892 30.7062C63.892 14.8372 51.494 1.86866 35.8559 0.947556C35.7165 0.93985 34.869 0.906738 34.5827 0.902657C27.6588 0.793968 20.6386 2.77932 14.5339 7.05465C-0.882846 17.8493 -4.62852 39.0969 6.16503 54.5131L33.5586 93.6357C33.6757 93.7951 33.864 93.8984 34.0754 93.8984C34.2885 93.8984 34.4775 93.7933 34.5939 93.6327C34.5939 93.6327 61.4938 55.2706 61.4962 55.2672C61.5647 55.1656 61.6055 55.0422 61.6055 54.9099C61.6055 54.6064 61.3946 54.3524 61.1112 54.2875Z" fill="#FABC26"/>
</svg>
