<svg width="224" height="53" viewBox="0 0 224 53" fill="none" xmlns="http://www.w3.org/2000/svg">
<path d="M53.2373 49.0906C51.4785 49.0906 50.0487 48.5044 48.9479 47.3318C47.8472 46.1593 47.2968 44.6816 47.2968 42.8988C47.2968 41.1161 47.8472 39.6384 48.9479 38.4659C50.0487 37.2933 51.4785 36.707 53.2373 36.707C54.9842 36.707 56.408 37.2933 57.5088 38.4659C58.6215 39.6384 59.1779 41.1161 59.1779 42.8988C59.1779 44.6816 58.6215 46.1593 57.5088 47.3318C56.408 48.5044 54.9842 49.0906 53.2373 49.0906ZM53.2373 47.7625C54.5535 47.7625 55.6124 47.3079 56.414 46.3986C57.2276 45.4773 57.6344 44.3107 57.6344 42.8988C57.6344 41.475 57.2276 40.3084 56.414 39.3991C55.6124 38.4898 54.5535 38.0351 53.2373 38.0351C51.9092 38.0351 50.8444 38.4898 50.0427 39.3991C49.2411 40.3084 48.8403 41.475 48.8403 42.8988C48.8403 44.3107 49.2411 45.4773 50.0427 46.3986C50.8444 47.3079 51.9092 47.7625 53.2373 47.7625Z" fill="white" fill-opacity="0.7"/>
<path d="M64.2327 39.9914C65.2138 39.9914 66.0035 40.4999 66.6017 41.5169V36.9045H67.9478V41.499C68.211 41.0443 68.546 40.6794 68.9528 40.4042C69.3716 40.129 69.8203 39.9914 70.2989 39.9914C71.2321 39.9914 71.9859 40.4042 72.5602 41.2297C73.1345 42.0434 73.4217 43.1441 73.4217 44.532C73.4217 45.92 73.1286 47.0267 72.5423 47.8523C71.968 48.6779 71.2202 49.0906 70.2989 49.0906C69.3178 49.0906 68.5341 48.5821 67.9478 47.5651V52.1776H66.6017V47.5831C66.3385 48.0377 65.9975 48.4027 65.5787 48.6779C65.16 48.953 64.7113 49.0906 64.2327 49.0906C63.2994 49.0906 62.5457 48.6838 61.9713 47.8702C61.397 47.0447 61.1099 45.9379 61.1099 44.55C61.1099 43.1621 61.397 42.0553 61.9713 41.2297C62.5576 40.4042 63.3114 39.9914 64.2327 39.9914ZM64.6096 41.1938C63.9515 41.1938 63.4311 41.5109 63.0482 42.1451C62.6653 42.7672 62.4739 43.5689 62.4739 44.55C62.4739 45.5311 62.6653 46.3327 63.0482 46.9549C63.4311 47.5771 63.9515 47.8882 64.6096 47.8882C65.0164 47.8882 65.4053 47.7566 65.7762 47.4933C66.1471 47.2301 66.4223 46.9011 66.6017 46.5062V42.5937C66.4103 42.1989 66.1291 41.8699 65.7582 41.6066C65.3873 41.3314 65.0044 41.1938 64.6096 41.1938ZM69.922 47.8882C70.5801 47.8882 71.1005 47.5771 71.4834 46.9549C71.8663 46.3208 72.0577 45.5132 72.0577 44.532C72.0577 43.5509 71.8663 42.7493 71.4834 42.1271C71.1005 41.5049 70.5801 41.1938 69.922 41.1938C69.5271 41.1938 69.1443 41.3314 68.7734 41.6066C68.4025 41.8699 68.1273 42.1929 67.9478 42.5758V46.4883C68.1392 46.8831 68.4144 47.2181 68.7734 47.4933C69.1443 47.7566 69.5271 47.8882 69.922 47.8882Z" fill="white" fill-opacity="0.7"/>
<path d="M77.0623 48.8753H75.7701V40.2067H77.1162V46.8293L81.6568 40.2067H82.9849V48.8753H81.6389V42.1271L77.0623 48.8753Z" fill="white" fill-opacity="0.7"/>
<path d="M89.4954 49.0906C88.2152 49.0906 87.1743 48.6599 86.3726 47.7984C85.571 46.925 85.1701 45.8362 85.1701 44.532C85.1701 43.2279 85.571 42.1451 86.3726 41.2836C87.1743 40.4221 88.2152 39.9914 89.4954 39.9914C90.8355 39.9914 91.8944 40.4939 92.6721 41.499L91.7747 42.3245C91.2244 41.5707 90.4885 41.1938 89.5672 41.1938C88.6579 41.1938 87.928 41.5049 87.3777 42.1271C86.8392 42.7493 86.57 43.5509 86.57 44.532C86.57 45.5132 86.8392 46.3208 87.3777 46.9549C87.928 47.5771 88.6579 47.8882 89.5672 47.8882C90.4766 47.8882 91.2124 47.5113 91.7747 46.7575L92.6721 47.5831C91.8944 48.5881 90.8355 49.0906 89.4954 49.0906Z" fill="white" fill-opacity="0.7"/>
<path d="M108.841 48.8753H106.975C106.616 48.5642 106.179 48.1454 105.665 47.619C104.684 48.6001 103.535 49.0906 102.219 49.0906C101.13 49.0906 100.233 48.8035 99.5267 48.2292C98.8327 47.6429 98.4858 46.8173 98.4858 45.7525C98.4858 44.9029 98.7191 44.209 99.1857 43.6706C99.6523 43.1322 100.298 42.6416 101.124 42.1989C100.514 41.158 100.209 40.2606 100.209 39.5068C100.209 38.7171 100.496 38.0591 101.07 37.5326C101.656 36.9942 102.374 36.725 103.224 36.725C104.025 36.725 104.678 36.9344 105.18 37.3531C105.683 37.7599 105.934 38.3342 105.934 39.0761C105.934 39.5068 105.856 39.8957 105.701 40.2426C105.545 40.5777 105.294 40.8887 104.947 41.1759C104.6 41.4511 104.295 41.6665 104.031 41.822C103.78 41.9775 103.397 42.1869 102.883 42.4502C103.266 42.9766 103.726 43.5449 104.265 44.1551C104.696 44.6696 105.168 45.2021 105.683 45.7525C106.209 44.9747 106.64 44.0654 106.975 43.0245L108.141 43.527C107.555 44.891 107.011 45.92 106.508 46.6139C107.106 47.2361 107.884 47.9899 108.841 48.8753ZM102.344 47.9779C103.23 47.9779 104.067 47.5831 104.857 46.7934C104.067 45.9678 103.517 45.3636 103.206 44.9807C102.655 44.3466 102.153 43.7124 101.698 43.0783C101.136 43.4253 100.699 43.8022 100.388 44.209C100.089 44.6038 99.9395 45.0884 99.9395 45.6627C99.9395 46.3806 100.173 46.9489 100.639 47.3677C101.118 47.7745 101.686 47.9779 102.344 47.9779ZM101.609 39.5248C101.609 40.0871 101.848 40.7751 102.326 41.5887C103.104 41.2058 103.69 40.8349 104.085 40.476C104.492 40.117 104.696 39.6683 104.696 39.1299C104.696 38.6992 104.564 38.3701 104.301 38.1428C104.037 37.9035 103.696 37.7839 103.278 37.7839C102.811 37.7839 102.416 37.9514 102.093 38.2864C101.77 38.6094 101.609 39.0222 101.609 39.5248Z" fill="white" fill-opacity="0.7"/>
<path d="M125.343 48.8753H123.853V43.3834H116.854V48.8753H115.364V36.9045H116.854V42.0553H123.853V36.9045H125.343V48.8753Z" fill="white" fill-opacity="0.7"/>
<path d="M133.597 49.0906C131.838 49.0906 130.408 48.5044 129.308 47.3318C128.207 46.1593 127.656 44.6816 127.656 42.8988C127.656 41.1161 128.207 39.6384 129.308 38.4659C130.408 37.2933 131.838 36.707 133.597 36.707C135.344 36.707 136.768 37.2933 137.868 38.4659C138.981 39.6384 139.537 41.1161 139.537 42.8988C139.537 44.6816 138.981 46.1593 137.868 47.3318C136.768 48.5044 135.344 49.0906 133.597 49.0906ZM133.597 47.7625C134.913 47.7625 135.972 47.3079 136.774 46.3986C137.587 45.4773 137.994 44.3107 137.994 42.8988C137.994 41.475 137.587 40.3084 136.774 39.3991C135.972 38.4898 134.913 38.0351 133.597 38.0351C132.269 38.0351 131.204 38.4898 130.402 39.3991C129.601 40.3084 129.2 41.475 129.2 42.8988C129.2 44.3107 129.601 45.4773 130.402 46.3986C131.204 47.3079 132.269 47.7625 133.597 47.7625Z" fill="white" fill-opacity="0.7"/>
<path d="M150.551 48.8753H148.792L145.741 44.1193H143.354V48.8753H141.864V36.9045H146.674C147.787 36.9045 148.69 37.2335 149.384 37.8915C150.078 38.5496 150.425 39.423 150.425 40.5119C150.425 41.5408 150.126 42.3604 149.528 42.9706C148.93 43.5808 148.194 43.9218 147.32 43.9936L150.551 48.8753ZM146.495 42.8091C147.201 42.8091 147.775 42.5937 148.218 42.163C148.66 41.7323 148.882 41.1819 148.882 40.5119C148.882 39.8418 148.66 39.2974 148.218 38.8786C147.775 38.4479 147.201 38.2325 146.495 38.2325H143.354V42.8091H146.495Z" fill="white" fill-opacity="0.7"/>
<path d="M160.626 48.8753H152.783V36.9045H160.626V38.2325H154.273V42.0912H160.501V43.4193H154.273V47.5472H160.626V48.8753Z" fill="white" fill-opacity="0.7"/>
<path d="M168.673 49.0906C166.926 49.0906 165.46 48.5163 164.276 47.3677C163.103 46.2071 162.517 44.7175 162.517 42.8988C162.517 41.0802 163.103 39.5965 164.276 38.4479C165.46 37.2873 166.926 36.707 168.673 36.707C170.587 36.707 172.101 37.4967 173.213 39.0761L171.957 39.776C171.61 39.2615 171.143 38.8428 170.557 38.5197C169.971 38.1967 169.343 38.0351 168.673 38.0351C167.357 38.0351 166.256 38.4958 165.37 39.4171C164.497 40.3264 164.06 41.487 164.06 42.8988C164.06 44.3107 164.497 45.4773 165.37 46.3986C166.256 47.3079 167.357 47.7625 168.673 47.7625C169.343 47.7625 169.971 47.607 170.557 47.2959C171.143 46.9729 171.61 46.5481 171.957 46.0217L173.231 46.7216C172.071 48.301 170.551 49.0906 168.673 49.0906Z" fill="white" fill-opacity="0.7"/>
<path d="M185.325 48.8753H183.62L182.561 46.2191H176.603L175.544 48.8753H173.839L178.649 36.9045H180.497L185.325 48.8753ZM182.113 44.891L179.582 38.4479L177.033 44.891H182.113Z" fill="white" fill-opacity="0.7"/>
<path d="M60.7473 11.2388C61.887 11.5564 62.765 12.1356 63.3816 12.9763C64.0168 13.817 64.3344 14.8445 64.3344 16.0589C64.3344 17.7403 63.7272 19.0574 62.5128 20.0102C61.3171 20.963 59.6638 21.4394 57.5526 21.4394H50.3226C49.7808 21.4394 49.3511 21.2899 49.0335 20.991C48.7346 20.6921 48.5851 20.2717 48.5851 19.7299V3.39219C48.5851 2.8504 48.7346 2.43005 49.0335 2.13113C49.3511 1.83221 49.7808 1.68275 50.3226 1.68275H57.2724C59.3275 1.68275 60.9342 2.14047 62.0925 3.05591C63.2695 3.95266 63.858 5.21372 63.858 6.83909C63.858 7.8853 63.5777 8.7914 63.0172 9.55738C62.4755 10.3234 61.7188 10.8838 60.7473 11.2388ZM52.1161 10.0058H56.6839C59.1687 10.0058 60.4111 9.08098 60.4111 7.23142C60.4111 6.2973 60.1028 5.60605 59.4863 5.15768C58.8698 4.7093 57.9356 4.48511 56.6839 4.48511H52.1161V10.0058ZM57.1603 18.637C58.4681 18.637 59.4209 18.4035 60.0187 17.9364C60.6166 17.4694 60.9155 16.7408 60.9155 15.7506C60.9155 14.7604 60.6072 14.0225 59.9907 13.5367C59.3929 13.051 58.4494 12.8081 57.1603 12.8081H52.1161V18.637H57.1603Z" fill="white"/>
<path d="M69.1437 21.6075C68.6393 21.6075 68.2189 21.4674 67.8826 21.1872C67.565 20.8882 67.4062 20.4679 67.4062 19.9261V9.109C67.4062 8.56721 67.565 8.1562 67.8826 7.87596C68.2189 7.59573 68.6393 7.45561 69.1437 7.45561C69.6481 7.45561 70.0685 7.59573 70.4047 7.87596C70.741 8.1562 70.9092 8.56721 70.9092 9.109V19.9261C70.9092 20.4679 70.741 20.8882 70.4047 21.1872C70.0685 21.4674 69.6481 21.6075 69.1437 21.6075ZM69.1437 4.96151C68.5085 4.96151 68.0041 4.79337 67.6304 4.45709C67.2568 4.10212 67.0699 3.6444 67.0699 3.08393C67.0699 2.52346 67.2568 2.07508 67.6304 1.7388C68.0041 1.40252 68.5085 1.23438 69.1437 1.23438C69.7602 1.23438 70.2553 1.40252 70.6289 1.7388C71.0213 2.07508 71.2174 2.52346 71.2174 3.08393C71.2174 3.6444 71.0306 4.10212 70.657 4.45709C70.2833 4.79337 69.7789 4.96151 69.1437 4.96151Z" fill="white"/>
<path d="M90.8033 7.39956C92.2979 7.39956 93.4375 7.84794 94.2222 8.7447C95.0255 9.62277 95.4272 11.052 95.4272 13.0323V19.9261C95.4272 20.4679 95.259 20.8882 94.9228 21.1872C94.6052 21.4674 94.1848 21.6075 93.6617 21.6075C93.1573 21.6075 92.7369 21.4674 92.4006 21.1872C92.083 20.8882 91.9242 20.4679 91.9242 19.9261V13.0323C91.9242 12.0048 91.7374 11.2762 91.3638 10.8465C91.0088 10.3981 90.4577 10.1739 89.7104 10.1739C88.7949 10.1739 88.0663 10.4915 87.5245 11.1267C86.9827 11.7432 86.7118 12.5933 86.7118 13.6768V19.9261C86.7118 20.4679 86.5437 20.8882 86.2074 21.1872C85.8898 21.4674 85.4788 21.6075 84.9744 21.6075C84.47 21.6075 84.0496 21.4674 83.7133 21.1872C83.377 20.8882 83.2089 20.4679 83.2089 19.9261V13.0323C83.2089 12.0048 83.0221 11.2762 82.6484 10.8465C82.2935 10.3981 81.7423 10.1739 80.995 10.1739C80.0796 10.1739 79.351 10.4915 78.8092 11.1267C78.2861 11.7432 78.0245 12.5933 78.0245 13.6768V19.9261C78.0245 20.4679 77.8564 20.8882 77.5201 21.1872C77.1838 21.4674 76.7635 21.6075 76.259 21.6075C75.7546 21.6075 75.3343 21.4674 74.998 21.1872C74.6804 20.8882 74.5216 20.4679 74.5216 19.9261V9.08098C74.5216 8.55787 74.6897 8.1562 75.026 7.87596C75.3623 7.59573 75.7826 7.45561 76.2871 7.45561C76.7728 7.45561 77.1651 7.59573 77.4641 7.87596C77.7817 8.13752 77.9405 8.52051 77.9405 9.02493V9.6975C78.3702 8.9502 78.94 8.38039 79.6499 7.98806C80.3785 7.59573 81.2099 7.39956 82.144 7.39956C84.1991 7.39956 85.5722 8.25895 86.2635 9.97773C86.6745 9.19307 87.2817 8.56721 88.085 8.10015C88.8883 7.63309 89.7944 7.39956 90.8033 7.39956Z" fill="white"/>
<path d="M111.458 11.2388C112.598 11.5564 113.476 12.1356 114.092 12.9763C114.727 13.817 115.045 14.8445 115.045 16.0589C115.045 17.7403 114.438 19.0574 113.223 20.0102C112.028 20.963 110.374 21.4394 108.263 21.4394H101.033C100.491 21.4394 100.062 21.2899 99.7441 20.991C99.4452 20.6921 99.2957 20.2717 99.2957 19.7299V3.39219C99.2957 2.8504 99.4452 2.43005 99.7441 2.13113C100.062 1.83221 100.491 1.68275 101.033 1.68275H107.983C110.038 1.68275 111.645 2.14047 112.803 3.05591C113.98 3.95266 114.569 5.21372 114.569 6.83909C114.569 7.8853 114.288 8.7914 113.728 9.55738C113.186 10.3234 112.429 10.8838 111.458 11.2388ZM102.827 10.0058H107.395C109.879 10.0058 111.122 9.08098 111.122 7.23142C111.122 6.2973 110.813 5.60605 110.197 5.15768C109.58 4.7093 108.646 4.48511 107.395 4.48511H102.827V10.0058ZM107.871 18.637C109.179 18.637 110.132 18.4035 110.729 17.9364C111.327 17.4694 111.626 16.7408 111.626 15.7506C111.626 14.7604 111.318 14.0225 110.701 13.5367C110.104 13.051 109.16 12.8081 107.871 12.8081H102.827V18.637H107.871Z" fill="white"/>
<path d="M124.058 7.39956C125.963 7.39956 127.374 7.87596 128.289 8.82877C129.224 9.76289 129.691 11.1921 129.691 13.1164V19.9541C129.691 20.4586 129.541 20.8602 129.242 21.1591C128.943 21.4394 128.532 21.5795 128.009 21.5795C127.523 21.5795 127.122 21.43 126.804 21.1311C126.505 20.8322 126.356 20.4399 126.356 19.9541V19.3376C126.038 20.0662 125.534 20.636 124.843 21.047C124.17 21.4581 123.385 21.6636 122.489 21.6636C121.573 21.6636 120.742 21.4767 119.994 21.1031C119.247 20.7294 118.659 20.2157 118.229 19.5618C117.799 18.9079 117.584 18.1793 117.584 17.376C117.584 16.3671 117.837 15.5731 118.341 14.994C118.864 14.4148 119.705 13.9944 120.863 13.7329C122.021 13.4713 123.619 13.3406 125.655 13.3406H126.356V12.696C126.356 11.7806 126.16 11.1174 125.767 10.7063C125.375 10.2767 124.74 10.0618 123.862 10.0618C123.32 10.0618 122.769 10.1459 122.208 10.314C121.648 10.4635 120.985 10.6877 120.219 10.9866C119.733 11.2295 119.378 11.3509 119.154 11.3509C118.817 11.3509 118.537 11.2295 118.313 10.9866C118.108 10.7437 118.005 10.4261 118.005 10.0338C118.005 9.71618 118.079 9.44528 118.229 9.2211C118.397 8.97822 118.668 8.75404 119.042 8.54853C119.696 8.19356 120.471 7.91333 121.368 7.70782C122.283 7.50232 123.18 7.39956 124.058 7.39956ZM123.189 19.1414C124.123 19.1414 124.88 18.8332 125.459 18.2167C126.057 17.5815 126.356 16.7688 126.356 15.7786V15.1901H125.851C124.6 15.1901 123.628 15.2462 122.937 15.3583C122.246 15.4704 121.751 15.6665 121.452 15.9468C121.153 16.227 121.003 16.61 121.003 17.0957C121.003 17.6936 121.209 18.1886 121.62 18.581C122.049 18.9546 122.573 19.1414 123.189 19.1414Z" fill="white"/>
<path d="M141.125 7.39956C142.321 7.39956 143.377 7.68914 144.292 8.26829C145.207 8.84745 145.917 9.66947 146.422 10.7344C146.945 11.7993 147.206 13.0416 147.206 14.4615C147.206 15.8814 146.945 17.1424 146.422 18.2447C145.917 19.3283 145.198 20.169 144.264 20.7668C143.349 21.3646 142.302 21.6636 141.125 21.6636C140.135 21.6636 139.248 21.4487 138.463 21.019C137.697 20.5893 137.109 19.9915 136.698 19.2255V19.9261C136.698 20.4305 136.539 20.8322 136.221 21.1311C135.904 21.43 135.483 21.5795 134.96 21.5795C134.437 21.5795 134.017 21.43 133.699 21.1311C133.4 20.8322 133.251 20.4305 133.251 19.9261V3.168C133.251 2.68226 133.409 2.28993 133.727 1.99101C134.063 1.69209 134.493 1.54263 135.016 1.54263C135.539 1.54263 135.96 1.68275 136.277 1.96299C136.595 2.24322 136.754 2.62621 136.754 3.11195V9.72552C137.165 8.97823 137.753 8.40841 138.519 8.01608C139.285 7.60507 140.154 7.39956 141.125 7.39956ZM140.201 18.9453C141.303 18.9453 142.162 18.5529 142.779 17.7683C143.395 16.9836 143.703 15.8814 143.703 14.4615C143.703 13.0603 143.395 11.9861 142.779 11.2388C142.181 10.4915 141.321 10.1179 140.201 10.1179C139.08 10.1179 138.211 10.5008 137.594 11.2668C136.997 12.0141 136.698 13.0977 136.698 14.5176C136.698 15.9374 136.997 17.0303 137.594 17.7963C138.211 18.5623 139.08 18.9453 140.201 18.9453Z" fill="white"/>
<path d="M156.331 21.6636C154.929 21.6636 153.696 21.374 152.631 20.7948C151.585 20.2157 150.773 19.3843 150.193 18.3007C149.614 17.2172 149.325 15.9561 149.325 14.5176C149.325 13.079 149.614 11.8273 150.193 10.7624C150.773 9.67882 151.585 8.84745 152.631 8.26829C153.696 7.68914 154.929 7.39956 156.331 7.39956C157.732 7.39956 158.955 7.68914 160.002 8.26829C161.067 8.84745 161.879 9.67882 162.44 10.7624C163.019 11.8273 163.308 13.079 163.308 14.5176C163.308 15.9561 163.019 17.2172 162.44 18.3007C161.879 19.3843 161.067 20.2157 160.002 20.7948C158.955 21.374 157.732 21.6636 156.331 21.6636ZM156.302 18.9453C157.442 18.9453 158.311 18.5716 158.909 17.8243C159.507 17.077 159.805 15.9748 159.805 14.5176C159.805 13.079 159.507 11.9861 158.909 11.2388C158.311 10.4728 157.451 10.0898 156.331 10.0898C155.21 10.0898 154.341 10.4728 153.724 11.2388C153.126 11.9861 152.828 13.079 152.828 14.5176C152.828 15.9748 153.126 17.077 153.724 17.8243C154.322 18.5716 155.182 18.9453 156.302 18.9453Z" fill="white"/>
<path d="M167.475 21.4375C166.877 21.4375 166.382 21.2413 165.99 20.849C165.597 20.4379 165.401 19.9335 165.401 19.3357C165.401 18.7378 165.597 18.2428 165.99 17.8504C166.382 17.4394 166.877 17.2339 167.475 17.2339C168.073 17.2339 168.568 17.4394 168.96 17.8504C169.353 18.2428 169.549 18.7378 169.549 19.3357C169.549 19.9335 169.353 20.4379 168.96 20.849C168.568 21.2413 168.073 21.4375 167.475 21.4375Z" fill="white"/>
<path d="M178.498 21.4935C177.134 21.4935 175.929 21.2039 174.883 20.6248C173.855 20.0456 173.061 19.2236 172.501 18.1587C171.941 17.0938 171.66 15.8514 171.66 14.4316C171.66 13.0117 171.95 11.76 172.529 10.6764C173.127 9.57413 173.958 8.72408 175.023 8.12625C176.088 7.52841 177.312 7.22949 178.694 7.22949C179.423 7.22949 180.151 7.33225 180.88 7.53775C181.627 7.74326 182.281 8.02349 182.842 8.37846C183.44 8.77079 183.738 9.26587 183.738 9.86371C183.738 10.2747 183.636 10.611 183.43 10.8726C183.243 11.1154 182.991 11.2369 182.674 11.2369C182.468 11.2369 182.253 11.1902 182.029 11.0967C181.805 11.0033 181.581 10.8912 181.356 10.7605C180.945 10.5176 180.553 10.3308 180.179 10.2C179.806 10.0505 179.376 9.9758 178.89 9.9758C177.732 9.9758 176.835 10.3588 176.2 11.1248C175.584 11.8721 175.275 12.9556 175.275 14.3755C175.275 15.7767 175.584 16.8603 176.2 17.6262C176.835 18.3735 177.732 18.7472 178.89 18.7472C179.357 18.7472 179.768 18.6818 180.123 18.551C180.497 18.4016 180.908 18.2054 181.356 17.9625C181.637 17.7944 181.88 17.6729 182.085 17.5982C182.291 17.5048 182.496 17.4581 182.702 17.4581C183.001 17.4581 183.253 17.5889 183.458 17.8504C183.664 18.112 183.766 18.4389 183.766 18.8313C183.766 19.1489 183.692 19.4291 183.542 19.672C183.412 19.8962 183.187 20.1017 182.87 20.2885C182.291 20.6621 181.618 20.961 180.852 21.1852C180.086 21.3907 179.301 21.4935 178.498 21.4935Z" fill="white"/>
<path d="M192.35 21.4935C190.948 21.4935 189.715 21.2039 188.65 20.6248C187.604 20.0456 186.792 19.2142 186.212 18.1307C185.633 17.0471 185.344 15.786 185.344 14.3475C185.344 12.9089 185.633 11.6572 186.212 10.5923C186.792 9.50874 187.604 8.67738 188.65 8.09822C189.715 7.51907 190.948 7.22949 192.35 7.22949C193.751 7.22949 194.974 7.51907 196.021 8.09822C197.086 8.67738 197.898 9.50874 198.459 10.5923C199.038 11.6572 199.327 12.9089 199.327 14.3475C199.327 15.786 199.038 17.0471 198.459 18.1307C197.898 19.2142 197.086 20.0456 196.021 20.6248C194.974 21.2039 193.751 21.4935 192.35 21.4935ZM192.322 18.7752C193.461 18.7752 194.33 18.4016 194.928 17.6543C195.526 16.907 195.825 15.8047 195.825 14.3475C195.825 12.9089 195.526 11.816 194.928 11.0687C194.33 10.3027 193.471 9.91976 192.35 9.91976C191.229 9.91976 190.36 10.3027 189.743 11.0687C189.146 11.816 188.847 12.9089 188.847 14.3475C188.847 15.8047 189.146 16.907 189.743 17.6543C190.341 18.4016 191.201 18.7752 192.322 18.7752Z" fill="white"/>
<path d="M218.501 7.22949C219.996 7.22949 221.135 7.67787 221.92 8.57463C222.723 9.4527 223.125 10.8819 223.125 12.8622V19.756C223.125 20.2978 222.957 20.7182 222.621 21.0171C222.303 21.2973 221.883 21.4375 221.359 21.4375C220.855 21.4375 220.435 21.2973 220.098 21.0171C219.781 20.7182 219.622 20.2978 219.622 19.756V12.8622C219.622 11.8347 219.435 11.1061 219.062 10.6764C218.707 10.228 218.155 10.0038 217.408 10.0038C216.493 10.0038 215.764 10.3214 215.222 10.9566C214.681 11.5731 214.41 12.4232 214.41 13.5068V19.756C214.41 20.2978 214.241 20.7182 213.905 21.0171C213.588 21.2973 213.177 21.4375 212.672 21.4375C212.168 21.4375 211.747 21.2973 211.411 21.0171C211.075 20.7182 210.907 20.2978 210.907 19.756V12.8622C210.907 11.8347 210.72 11.1061 210.346 10.6764C209.991 10.228 209.44 10.0038 208.693 10.0038C207.777 10.0038 207.049 10.3214 206.507 10.9566C205.984 11.5731 205.722 12.4232 205.722 13.5068V19.756C205.722 20.2978 205.554 20.7182 205.218 21.0171C204.882 21.2973 204.461 21.4375 203.957 21.4375C203.452 21.4375 203.032 21.2973 202.696 21.0171C202.378 20.7182 202.219 20.2978 202.219 19.756V8.91091C202.219 8.3878 202.388 7.98613 202.724 7.70589C203.06 7.42566 203.48 7.28554 203.985 7.28554C204.471 7.28554 204.863 7.42566 205.162 7.70589C205.479 7.96745 205.638 8.35044 205.638 8.85486V9.52743C206.068 8.78013 206.638 8.21032 207.348 7.81799C208.076 7.42566 208.908 7.22949 209.842 7.22949C211.897 7.22949 213.27 8.08888 213.961 9.80766C214.372 9.023 214.979 8.39714 215.783 7.93008C216.586 7.46302 217.492 7.22949 218.501 7.22949Z" fill="white"/>
<path fill-rule="evenodd" clip-rule="evenodd" d="M21.8036 21.358C28.3793 22.3963 33.4717 28.1315 33.4717 35.0038V35.1521C33.4717 42.7661 27.2421 48.9957 19.6282 48.9957H10.2838C17.8977 48.9957 24.1273 42.7661 24.1273 35.1521V35.0038C24.1273 28.1315 19.0349 22.3963 12.4592 21.358C15.8212 19.3804 18.0955 15.7217 18.0955 11.5192V11.4203C18.0955 6.32786 14.684 1.97704 10.0366 0.543241C10.4321 0.394917 10.9265 0.197152 11.322 0.0488281H16.019C22.298 0.0488281 27.4399 5.19072 27.4399 11.4698V11.5686C27.4399 15.6723 25.1656 19.3804 21.8036 21.358Z" fill="white" fill-opacity="0.7"/>
<path fill-rule="evenodd" clip-rule="evenodd" d="M10.9265 0H16.0684C8.00948 2.47206 11.767 16.8595 10.9265 38.0203C10.6793 44.0027 6.03183 48.9468 0 48.9468V10.9265C0 4.94412 4.94413 0 10.9265 0Z" fill="white"/>
</svg>
