<svg width="224" height="50" viewBox="0 0 224 50" fill="none" xmlns="http://www.w3.org/2000/svg">
<path d="M60.6855 36.9043H62.1751V48.8751H47.7814V36.9043H49.271V47.547H54.2424V36.9043H55.732V47.547H60.6855V36.9043Z" fill="white" fill-opacity="0.7"/>
<path d="M72.5487 48.8751H70.8258L67.703 44.9806L66.2672 46.3984V48.8751H64.9211V40.2066H66.2672V44.819L70.8258 40.2066H72.5308L68.6901 44.137L72.5487 48.8751Z" fill="white" fill-opacity="0.7"/>
<path d="M80.9793 47.7803C80.2016 48.6538 79.1666 49.0905 77.8744 49.0905C76.5822 49.0905 75.5413 48.6538 74.7516 47.7803C73.9739 46.9069 73.585 45.8241 73.585 44.5319C73.585 43.2397 73.9739 42.1628 74.7516 41.3014C75.5413 40.4279 76.5822 39.9912 77.8744 39.9912C79.1666 39.9912 80.2016 40.4279 80.9793 41.3014C81.769 42.1628 82.1638 43.2397 82.1638 44.5319C82.1638 45.8241 81.769 46.9069 80.9793 47.7803ZM75.7567 46.9189C76.2831 47.565 76.989 47.888 77.8744 47.888C78.7598 47.888 79.4598 47.565 79.9743 46.9189C80.4888 46.2608 80.746 45.4651 80.746 44.5319C80.746 43.5986 80.4888 42.8089 79.9743 42.1628C79.4598 41.5167 78.7598 41.1937 77.8744 41.1937C76.989 41.1937 76.2831 41.5227 75.7567 42.1808C75.2422 42.8269 74.9849 43.6106 74.9849 44.5319C74.9849 45.4651 75.2422 46.2608 75.7567 46.9189Z" fill="white" fill-opacity="0.7"/>
<path d="M83.3352 49.0905V47.9778C83.742 47.9778 84.077 47.7085 84.3402 47.1701C84.6035 46.6317 84.8188 45.7344 84.9863 44.478L85.5427 40.2066H91.573V48.8751H90.2269V41.3911H86.7272L86.3324 44.6396C86.1409 46.2309 85.8059 47.3735 85.3273 48.0675C84.8487 48.7495 84.1847 49.0905 83.3352 49.0905Z" fill="white" fill-opacity="0.7"/>
<path d="M101.027 48.8751H99.6808V47.888C98.9509 48.6897 97.9937 49.0905 96.8092 49.0905C96.0076 49.0905 95.3017 48.8332 94.6914 48.3188C94.0812 47.8043 93.7761 47.1043 93.7761 46.2189C93.7761 45.3096 94.0753 44.6097 94.6735 44.1191C95.2837 43.6166 95.9956 43.3653 96.8092 43.3653C98.0416 43.3653 98.9988 43.7602 99.6808 44.5498V42.9884C99.6808 42.4141 99.4774 41.9654 99.0706 41.6424C98.6638 41.3193 98.1373 41.1578 97.4912 41.1578C96.4742 41.1578 95.5888 41.5586 94.835 42.3603L94.2069 41.427C95.1282 40.4698 96.2828 39.9912 97.6707 39.9912C98.6638 39.9912 99.4714 40.2305 100.094 40.7091C100.716 41.1877 101.027 41.9235 101.027 42.9166V48.8751ZM97.2938 48.1213C98.3706 48.1213 99.1663 47.7624 99.6808 47.0445V45.4113C99.1663 44.6934 98.3706 44.3345 97.2938 44.3345C96.6716 44.3345 96.1571 44.5139 95.7503 44.8729C95.3555 45.2199 95.1581 45.6745 95.1581 46.2369C95.1581 46.7873 95.3555 47.2419 95.7503 47.6009C96.1571 47.9478 96.6716 48.1213 97.2938 48.1213Z" fill="white" fill-opacity="0.7"/>
<path d="M60.7473 11.2388C61.8869 11.5564 62.765 12.1356 63.3815 12.9763C64.0167 13.817 64.3343 14.8445 64.3343 16.0589C64.3343 17.7403 63.7272 19.0574 62.5128 20.0102C61.3171 20.963 59.6637 21.4394 57.5526 21.4394H50.3225C49.7808 21.4394 49.3511 21.2899 49.0335 20.991C48.7345 20.6921 48.5851 20.2717 48.5851 19.7299V3.39219C48.5851 2.8504 48.7345 2.43005 49.0335 2.13113C49.3511 1.83221 49.7808 1.68275 50.3225 1.68275H57.2724C59.3275 1.68275 60.9341 2.14047 62.0925 3.05591C63.2694 3.95266 63.8579 5.21372 63.8579 6.83909C63.8579 7.8853 63.5777 8.7914 63.0172 9.55738C62.4754 10.3234 61.7188 10.8838 60.7473 11.2388ZM52.1161 10.0058H56.6839C59.1687 10.0058 60.411 9.08098 60.411 7.23142C60.411 6.2973 60.1028 5.60605 59.4863 5.15768C58.8697 4.7093 57.9356 4.48511 56.6839 4.48511H52.1161V10.0058ZM57.1603 18.637C58.4681 18.637 59.4209 18.4035 60.0187 17.9364C60.6165 17.4694 60.9155 16.7408 60.9155 15.7506C60.9155 14.7604 60.6072 14.0225 59.9907 13.5367C59.3928 13.051 58.4494 12.8081 57.1603 12.8081H52.1161V18.637H57.1603Z" fill="white"/>
<path d="M69.1437 21.6075C68.6392 21.6075 68.2189 21.4674 67.8826 21.1872C67.565 20.8882 67.4062 20.4679 67.4062 19.9261V9.109C67.4062 8.56721 67.565 8.1562 67.8826 7.87596C68.2189 7.59573 68.6392 7.45561 69.1437 7.45561C69.6481 7.45561 70.0684 7.59573 70.4047 7.87596C70.741 8.1562 70.9092 8.56721 70.9092 9.109V19.9261C70.9092 20.4679 70.741 20.8882 70.4047 21.1872C70.0684 21.4674 69.6481 21.6075 69.1437 21.6075ZM69.1437 4.96151C68.5085 4.96151 68.004 4.79337 67.6304 4.45709C67.2567 4.10212 67.0699 3.6444 67.0699 3.08393C67.0699 2.52346 67.2567 2.07508 67.6304 1.7388C68.004 1.40252 68.5085 1.23438 69.1437 1.23438C69.7602 1.23438 70.2553 1.40252 70.6289 1.7388C71.0212 2.07508 71.2174 2.52346 71.2174 3.08393C71.2174 3.6444 71.0306 4.10212 70.6569 4.45709C70.2833 4.79337 69.7789 4.96151 69.1437 4.96151Z" fill="white"/>
<path d="M90.8033 7.39956C92.2979 7.39956 93.4375 7.84794 94.2221 8.7447C95.0255 9.62277 95.4272 11.052 95.4272 13.0323V19.9261C95.4272 20.4679 95.259 20.8882 94.9227 21.1872C94.6051 21.4674 94.1848 21.6075 93.6617 21.6075C93.1572 21.6075 92.7369 21.4674 92.4006 21.1872C92.083 20.8882 91.9242 20.4679 91.9242 19.9261V13.0323C91.9242 12.0048 91.7374 11.2762 91.3637 10.8465C91.0088 10.3981 90.4576 10.1739 89.7104 10.1739C88.7949 10.1739 88.0663 10.4915 87.5245 11.1267C86.9827 11.7432 86.7118 12.5933 86.7118 13.6768V19.9261C86.7118 20.4679 86.5437 20.8882 86.2074 21.1872C85.8898 21.4674 85.4788 21.6075 84.9744 21.6075C84.4699 21.6075 84.0496 21.4674 83.7133 21.1872C83.377 20.8882 83.2089 20.4679 83.2089 19.9261V13.0323C83.2089 12.0048 83.0221 11.2762 82.6484 10.8465C82.2934 10.3981 81.7423 10.1739 80.995 10.1739C80.0796 10.1739 79.351 10.4915 78.8092 11.1267C78.2861 11.7432 78.0245 12.5933 78.0245 13.6768V19.9261C78.0245 20.4679 77.8564 20.8882 77.5201 21.1872C77.1838 21.4674 76.7635 21.6075 76.259 21.6075C75.7546 21.6075 75.3342 21.4674 74.998 21.1872C74.6804 20.8882 74.5216 20.4679 74.5216 19.9261V9.08098C74.5216 8.55787 74.6897 8.1562 75.026 7.87596C75.3623 7.59573 75.7826 7.45561 76.2871 7.45561C76.7728 7.45561 77.1651 7.59573 77.464 7.87596C77.7816 8.13752 77.9404 8.52051 77.9404 9.02493V9.6975C78.3701 8.9502 78.94 8.38039 79.6499 7.98806C80.3785 7.59573 81.2099 7.39956 82.144 7.39956C84.199 7.39956 85.5722 8.25895 86.2634 9.97773C86.6745 9.19307 87.2816 8.56721 88.085 8.10015C88.8883 7.63309 89.7944 7.39956 90.8033 7.39956Z" fill="white"/>
<path d="M111.458 11.2388C112.598 11.5564 113.476 12.1356 114.092 12.9763C114.727 13.817 115.045 14.8445 115.045 16.0589C115.045 17.7403 114.438 19.0574 113.223 20.0102C112.028 20.963 110.374 21.4394 108.263 21.4394H101.033C100.491 21.4394 100.062 21.2899 99.7441 20.991C99.4452 20.6921 99.2957 20.2717 99.2957 19.7299V3.39219C99.2957 2.8504 99.4452 2.43005 99.7441 2.13113C100.062 1.83221 100.491 1.68275 101.033 1.68275H107.983C110.038 1.68275 111.645 2.14047 112.803 3.05591C113.98 3.95266 114.569 5.21372 114.569 6.83909C114.569 7.8853 114.288 8.7914 113.728 9.55738C113.186 10.3234 112.429 10.8838 111.458 11.2388ZM102.827 10.0058H107.395C109.879 10.0058 111.122 9.08098 111.122 7.23142C111.122 6.2973 110.813 5.60605 110.197 5.15768C109.58 4.7093 108.646 4.48511 107.395 4.48511H102.827V10.0058ZM107.871 18.637C109.179 18.637 110.132 18.4035 110.729 17.9364C111.327 17.4694 111.626 16.7408 111.626 15.7506C111.626 14.7604 111.318 14.0225 110.701 13.5367C110.103 13.051 109.16 12.8081 107.871 12.8081H102.827V18.637H107.871Z" fill="white"/>
<path d="M124.058 7.39956C125.963 7.39956 127.374 7.87596 128.289 8.82877C129.224 9.76289 129.691 11.1921 129.691 13.1164V19.9541C129.691 20.4586 129.541 20.8602 129.242 21.1591C128.943 21.4394 128.532 21.5795 128.009 21.5795C127.523 21.5795 127.122 21.43 126.804 21.1311C126.505 20.8322 126.356 20.4399 126.356 19.9541V19.3376C126.038 20.0662 125.534 20.636 124.843 21.047C124.17 21.4581 123.385 21.6636 122.489 21.6636C121.573 21.6636 120.742 21.4767 119.994 21.1031C119.247 20.7294 118.659 20.2157 118.229 19.5618C117.799 18.9079 117.584 18.1793 117.584 17.376C117.584 16.3671 117.837 15.5731 118.341 14.994C118.864 14.4148 119.705 13.9944 120.863 13.7329C122.021 13.4713 123.619 13.3406 125.655 13.3406H126.356V12.696C126.356 11.7806 126.16 11.1174 125.767 10.7063C125.375 10.2767 124.74 10.0618 123.862 10.0618C123.32 10.0618 122.769 10.1459 122.208 10.314C121.648 10.4635 120.985 10.6877 120.219 10.9866C119.733 11.2295 119.378 11.3509 119.154 11.3509C118.817 11.3509 118.537 11.2295 118.313 10.9866C118.108 10.7437 118.005 10.4261 118.005 10.0338C118.005 9.71618 118.079 9.44528 118.229 9.2211C118.397 8.97822 118.668 8.75404 119.042 8.54853C119.696 8.19356 120.471 7.91333 121.368 7.70782C122.283 7.50232 123.18 7.39956 124.058 7.39956ZM123.189 19.1414C124.123 19.1414 124.88 18.8332 125.459 18.2167C126.057 17.5815 126.356 16.7688 126.356 15.7786V15.1901H125.851C124.6 15.1901 123.628 15.2462 122.937 15.3583C122.246 15.4704 121.751 15.6665 121.452 15.9468C121.153 16.227 121.003 16.61 121.003 17.0957C121.003 17.6936 121.209 18.1886 121.62 18.581C122.049 18.9546 122.573 19.1414 123.189 19.1414Z" fill="white"/>
<path d="M141.125 7.39956C142.321 7.39956 143.377 7.68914 144.292 8.26829C145.207 8.84745 145.917 9.66947 146.422 10.7344C146.945 11.7993 147.206 13.0416 147.206 14.4615C147.206 15.8814 146.945 17.1424 146.422 18.2447C145.917 19.3283 145.198 20.169 144.264 20.7668C143.349 21.3646 142.302 21.6636 141.125 21.6636C140.135 21.6636 139.248 21.4487 138.463 21.019C137.697 20.5893 137.109 19.9915 136.698 19.2255V19.9261C136.698 20.4305 136.539 20.8322 136.221 21.1311C135.904 21.43 135.483 21.5795 134.96 21.5795C134.437 21.5795 134.017 21.43 133.699 21.1311C133.4 20.8322 133.251 20.4305 133.251 19.9261V3.168C133.251 2.68226 133.409 2.28993 133.727 1.99101C134.063 1.69209 134.493 1.54263 135.016 1.54263C135.539 1.54263 135.96 1.68275 136.277 1.96299C136.595 2.24322 136.754 2.62621 136.754 3.11195V9.72552C137.165 8.97823 137.753 8.40841 138.519 8.01608C139.285 7.60507 140.154 7.39956 141.125 7.39956ZM140.201 18.9453C141.303 18.9453 142.162 18.5529 142.779 17.7683C143.395 16.9836 143.703 15.8814 143.703 14.4615C143.703 13.0603 143.395 11.9861 142.779 11.2388C142.181 10.4915 141.321 10.1179 140.201 10.1179C139.08 10.1179 138.211 10.5008 137.594 11.2668C136.996 12.0141 136.698 13.0977 136.698 14.5176C136.698 15.9374 136.996 17.0303 137.594 17.7963C138.211 18.5623 139.08 18.9453 140.201 18.9453Z" fill="white"/>
<path d="M156.331 21.6636C154.929 21.6636 153.696 21.374 152.631 20.7948C151.585 20.2157 150.772 19.3843 150.193 18.3007C149.614 17.2172 149.325 15.9561 149.325 14.5176C149.325 13.079 149.614 11.8273 150.193 10.7624C150.772 9.67882 151.585 8.84745 152.631 8.26829C153.696 7.68914 154.929 7.39956 156.331 7.39956C157.732 7.39956 158.955 7.68914 160.002 8.26829C161.066 8.84745 161.879 9.67882 162.44 10.7624C163.019 11.8273 163.308 13.079 163.308 14.5176C163.308 15.9561 163.019 17.2172 162.44 18.3007C161.879 19.3843 161.066 20.2157 160.002 20.7948C158.955 21.374 157.732 21.6636 156.331 21.6636ZM156.302 18.9453C157.442 18.9453 158.311 18.5716 158.909 17.8243C159.507 17.077 159.805 15.9748 159.805 14.5176C159.805 13.079 159.507 11.9861 158.909 11.2388C158.311 10.4728 157.451 10.0898 156.331 10.0898C155.21 10.0898 154.341 10.4728 153.724 11.2388C153.126 11.9861 152.828 13.079 152.828 14.5176C152.828 15.9748 153.126 17.077 153.724 17.8243C154.322 18.5716 155.182 18.9453 156.302 18.9453Z" fill="white"/>
<path d="M167.475 21.4375C166.877 21.4375 166.382 21.2413 165.99 20.849C165.597 20.4379 165.401 19.9335 165.401 19.3357C165.401 18.7378 165.597 18.2428 165.99 17.8504C166.382 17.4394 166.877 17.2339 167.475 17.2339C168.073 17.2339 168.568 17.4394 168.96 17.8504C169.353 18.2428 169.549 18.7378 169.549 19.3357C169.549 19.9335 169.353 20.4379 168.96 20.849C168.568 21.2413 168.073 21.4375 167.475 21.4375Z" fill="white"/>
<path d="M178.498 21.4935C177.134 21.4935 175.929 21.2039 174.883 20.6248C173.855 20.0456 173.061 19.2236 172.501 18.1587C171.941 17.0938 171.66 15.8514 171.66 14.4316C171.66 13.0117 171.95 11.76 172.529 10.6764C173.127 9.57413 173.958 8.72408 175.023 8.12625C176.088 7.52841 177.312 7.22949 178.694 7.22949C179.423 7.22949 180.151 7.33225 180.88 7.53775C181.627 7.74326 182.281 8.02349 182.842 8.37846C183.44 8.77079 183.738 9.26587 183.738 9.86371C183.738 10.2747 183.636 10.611 183.43 10.8726C183.243 11.1154 182.991 11.2369 182.674 11.2369C182.468 11.2369 182.253 11.1902 182.029 11.0967C181.805 11.0033 181.581 10.8912 181.356 10.7605C180.945 10.5176 180.553 10.3308 180.179 10.2C179.806 10.0505 179.376 9.9758 178.89 9.9758C177.732 9.9758 176.835 10.3588 176.2 11.1248C175.584 11.8721 175.275 12.9556 175.275 14.3755C175.275 15.7767 175.584 16.8603 176.2 17.6262C176.835 18.3735 177.732 18.7472 178.89 18.7472C179.357 18.7472 179.768 18.6818 180.123 18.551C180.497 18.4016 180.908 18.2054 181.356 17.9625C181.637 17.7944 181.88 17.6729 182.085 17.5982C182.291 17.5048 182.496 17.4581 182.702 17.4581C183.001 17.4581 183.253 17.5889 183.458 17.8504C183.664 18.112 183.766 18.4389 183.766 18.8313C183.766 19.1489 183.692 19.4291 183.542 19.672C183.412 19.8962 183.187 20.1017 182.87 20.2885C182.291 20.6621 181.618 20.961 180.852 21.1852C180.086 21.3907 179.301 21.4935 178.498 21.4935Z" fill="white"/>
<path d="M192.35 21.4935C190.948 21.4935 189.715 21.2039 188.65 20.6248C187.604 20.0456 186.792 19.2142 186.212 18.1307C185.633 17.0471 185.344 15.786 185.344 14.3475C185.344 12.9089 185.633 11.6572 186.212 10.5923C186.792 9.50874 187.604 8.67738 188.65 8.09822C189.715 7.51907 190.948 7.22949 192.35 7.22949C193.751 7.22949 194.974 7.51907 196.021 8.09822C197.086 8.67738 197.898 9.50874 198.459 10.5923C199.038 11.6572 199.327 12.9089 199.327 14.3475C199.327 15.786 199.038 17.0471 198.459 18.1307C197.898 19.2142 197.086 20.0456 196.021 20.6248C194.974 21.2039 193.751 21.4935 192.35 21.4935ZM192.322 18.7752C193.461 18.7752 194.33 18.4016 194.928 17.6543C195.526 16.907 195.825 15.8047 195.825 14.3475C195.825 12.9089 195.526 11.816 194.928 11.0687C194.33 10.3027 193.471 9.91976 192.35 9.91976C191.229 9.91976 190.36 10.3027 189.743 11.0687C189.146 11.816 188.847 12.9089 188.847 14.3475C188.847 15.8047 189.146 16.907 189.743 17.6543C190.341 18.4016 191.201 18.7752 192.322 18.7752Z" fill="white"/>
<path d="M218.501 7.22949C219.996 7.22949 221.135 7.67787 221.92 8.57463C222.723 9.4527 223.125 10.8819 223.125 12.8622V19.756C223.125 20.2978 222.957 20.7182 222.621 21.0171C222.303 21.2973 221.883 21.4375 221.359 21.4375C220.855 21.4375 220.435 21.2973 220.098 21.0171C219.781 20.7182 219.622 20.2978 219.622 19.756V12.8622C219.622 11.8347 219.435 11.1061 219.062 10.6764C218.707 10.228 218.155 10.0038 217.408 10.0038C216.493 10.0038 215.764 10.3214 215.222 10.9566C214.681 11.5731 214.41 12.4232 214.41 13.5068V19.756C214.41 20.2978 214.241 20.7182 213.905 21.0171C213.588 21.2973 213.177 21.4375 212.672 21.4375C212.168 21.4375 211.747 21.2973 211.411 21.0171C211.075 20.7182 210.907 20.2978 210.907 19.756V12.8622C210.907 11.8347 210.72 11.1061 210.346 10.6764C209.991 10.228 209.44 10.0038 208.693 10.0038C207.777 10.0038 207.049 10.3214 206.507 10.9566C205.984 11.5731 205.722 12.4232 205.722 13.5068V19.756C205.722 20.2978 205.554 20.7182 205.218 21.0171C204.882 21.2973 204.461 21.4375 203.957 21.4375C203.452 21.4375 203.032 21.2973 202.696 21.0171C202.378 20.7182 202.219 20.2978 202.219 19.756V8.91091C202.219 8.3878 202.387 7.98613 202.724 7.70589C203.06 7.42566 203.48 7.28554 203.985 7.28554C204.471 7.28554 204.863 7.42566 205.162 7.70589C205.479 7.96745 205.638 8.35044 205.638 8.85486V9.52743C206.068 8.78013 206.638 8.21032 207.348 7.81799C208.076 7.42566 208.908 7.22949 209.842 7.22949C211.897 7.22949 213.27 8.08888 213.961 9.80766C214.372 9.023 214.979 8.39714 215.783 7.93008C216.586 7.46302 217.492 7.22949 218.501 7.22949Z" fill="white"/>
<path fill-rule="evenodd" clip-rule="evenodd" d="M21.8036 21.358C28.3793 22.3963 33.4717 28.1315 33.4717 35.0038V35.1521C33.4717 42.7661 27.2421 48.9957 19.6282 48.9957H10.2838C17.8977 48.9957 24.1273 42.7661 24.1273 35.1521V35.0038C24.1273 28.1315 19.0349 22.3963 12.4592 21.358C15.8212 19.3804 18.0955 15.7217 18.0955 11.5192V11.4203C18.0955 6.32786 14.684 1.97704 10.0366 0.543241C10.4321 0.394917 10.9265 0.197152 11.322 0.0488281H16.019C22.298 0.0488281 27.4399 5.19072 27.4399 11.4698V11.5686C27.4399 15.6723 25.1656 19.3804 21.8036 21.358Z" fill="white" fill-opacity="0.7"/>
<path fill-rule="evenodd" clip-rule="evenodd" d="M10.9265 0H16.0684C8.00948 2.47206 11.767 16.8595 10.9265 38.0203C10.6793 44.0027 6.03183 48.9468 0 48.9468V10.9265C0 4.94412 4.94413 0 10.9265 0Z" fill="white"/>
</svg>
