<svg width="46" height="46" viewBox="0 0 46 46" fill="none" xmlns="http://www.w3.org/2000/svg">
<path d="M2.875 24.4102V41.6602C2.875 43.2472 4.16587 44.5352 5.75 44.5352H20.125V24.4102H2.875Z" fill="white"/>
<path d="M43.125 12.9095H34.0285C34.6811 12.4639 35.2417 12.0211 35.6328 11.6244C37.9529 9.29275 37.9529 5.49775 35.6328 3.16613C33.3787 0.894876 29.4515 0.900626 27.2004 3.16613C25.9526 4.41675 22.6464 9.50838 23.1035 12.9095H22.8965C23.3507 9.50838 20.0445 4.41675 18.7996 3.16613C16.5456 0.900626 12.6184 0.900626 10.3672 3.16613C8.05 5.49775 8.05 9.29275 10.3644 11.6244C10.7583 12.0211 11.3189 12.4639 11.9715 12.9095H2.875C1.29087 12.9095 0 14.2004 0 15.7845V20.097C0 20.8905 0.644 21.5345 1.4375 21.5345H20.125V15.7845H25.875V21.5345H44.5625C45.356 21.5345 46 20.8905 46 20.097V15.7845C46 14.2004 44.712 12.9095 43.125 12.9095ZM19.9554 12.8146C19.9554 12.8146 19.8346 12.9095 19.4235 12.9095C17.4369 12.9095 13.6448 10.8453 12.4056 9.5975C11.201 8.38425 11.201 6.40625 12.4056 5.193C12.9893 4.6065 13.7626 4.2845 14.5849 4.2845C15.4043 4.2845 16.1776 4.6065 16.7612 5.193C18.699 7.14225 20.6252 12.1218 19.9554 12.8146ZM26.5736 12.9095C26.1654 12.9095 26.0446 12.8175 26.0446 12.8146C25.3748 12.1218 27.301 7.14225 29.2388 5.193C30.3974 4.02288 32.4243 4.01713 33.5944 5.193C34.8019 6.40625 34.8019 8.38425 33.5944 9.5975C32.3553 10.8453 28.5631 12.9095 26.5736 12.9095Z" fill="white"/>
<path d="M25.875 24.4102V44.5352H40.25C41.837 44.5352 43.125 43.2472 43.125 41.6602V24.4102H25.875Z" fill="white"/>
</svg>
