<svg width="33" height="35" viewBox="0 0 33 35" fill="none" xmlns="http://www.w3.org/2000/svg">
<path d="M31.7672 20.2604C32.8114 11.471 31.2655 5.92202 28.4772 3.41223L28.4787 3.41077C23.9783 -0.875269 8.77951 -1.50964 3.39534 3.60327C0.977422 6.10431 0.125755 9.77494 0.0324221 14.3191C-0.0609112 18.8647 -0.171745 27.3799 7.76305 29.6899H7.77034L7.76305 33.2176C7.76305 33.2176 7.70909 34.6468 8.62201 34.9341C9.66617 35.2724 10.1387 34.6089 13.3864 30.7297C18.8172 31.2008 22.988 30.1216 23.462 29.9641C24.5587 29.5966 30.7639 28.7756 31.7672 20.2604ZM13.9216 28.2476C13.9216 28.2476 10.4843 32.5337 9.41534 33.6464C9.06534 34.0081 8.6818 33.9745 8.68763 33.257C8.68763 32.786 8.71388 27.4004 8.71388 27.4004C1.98659 25.4724 2.38326 18.2216 2.45617 14.4285C2.52909 10.6339 3.22326 7.52619 5.27076 5.43348C9.9943 1.00452 23.3191 1.99473 26.7141 5.18556C30.8645 8.86494 29.3872 19.2599 29.396 19.6143C28.5428 26.7222 23.5145 27.1729 22.5899 27.4806C22.1947 27.6118 18.527 28.5554 13.9216 28.2476Z" fill="#8E24AA"/>
<path d="M15.8234 6.2666C15.262 6.2666 15.262 7.1416 15.8234 7.14889C20.1795 7.18244 23.767 10.2187 23.8064 15.7881C23.8064 16.3758 24.6668 16.3685 24.6595 15.7808H24.658C24.6114 9.77973 20.6943 6.30014 15.8234 6.2666Z" fill="#8E24AA"/>
<path d="M21.5535 14.8644C21.5404 15.4448 22.3994 15.4725 22.4067 14.8848C22.4781 11.5758 20.4379 8.85019 16.604 8.5629C16.0425 8.52206 15.9842 9.40436 16.5442 9.44519C19.8692 9.69748 21.6206 11.9666 21.5535 14.8644Z" fill="#8E24AA"/>
<path d="M20.6344 18.6288C19.914 18.2117 19.1805 18.4713 18.8771 18.8811L18.2427 19.7022C17.9205 20.1192 17.3182 20.0638 17.3182 20.0638C12.9227 18.9015 11.7473 14.3019 11.7473 14.3019C11.7473 14.3019 11.6934 13.6792 12.0959 13.3453L12.8892 12.689C13.2859 12.374 13.5367 11.6157 13.1327 10.8705C12.0536 8.92069 11.3288 8.2484 10.9598 7.73215C10.5719 7.24653 9.98858 7.13715 9.38191 7.46528H9.36879C8.10733 8.20319 6.72629 9.58424 7.16816 11.0061C7.92212 12.5053 9.30754 17.2842 13.7234 20.8951C15.7986 22.6028 19.0827 24.3528 20.4769 24.7567L20.49 24.7772C21.8638 25.2351 23.1996 23.8001 23.9127 22.5007V22.4905C24.2292 21.8619 24.1242 21.2669 23.6619 20.8776C22.8423 20.0784 21.6057 19.1961 20.6344 18.6288Z" fill="#8E24AA"/>
<path d="M17.2035 11.8178C18.605 11.8995 19.2845 12.6315 19.3575 14.1351C19.3837 14.7228 20.2368 14.682 20.2106 14.0943C20.1172 12.1313 19.0935 11.0376 17.2502 10.9355C16.6887 10.902 16.6362 11.7843 17.2035 11.8178Z" fill="#8E24AA"/>
</svg>
