<svg width="59" height="59" viewBox="0 0 59 59" fill="none" xmlns="http://www.w3.org/2000/svg">
<circle cx="29.5" cy="29.5" r="29.5" fill="#D93F87"/>
<g clip-path="url(#clip0)">
<path d="M34.8786 32.8468C36.0104 31.3012 36.6874 29.4028 36.6874 27.3447C36.6874 22.1928 32.4956 18.001 27.3437 18.001C22.1917 18.001 18 22.1928 18 27.3447C18 32.4967 22.1918 36.6884 27.3437 36.6884C29.4018 36.6884 31.3004 36.0114 32.846 34.8796L38.9673 41.0008L41 38.9681C41 38.9681 34.8786 32.8468 34.8786 32.8468ZM27.3437 33.8134C23.7767 33.8134 20.875 30.9118 20.875 27.3447C20.875 23.7776 23.7767 20.876 27.3437 20.876C30.9108 20.876 33.8124 23.7776 33.8124 27.3447C33.8124 30.9118 30.9108 33.8134 27.3437 33.8134Z" fill="white"/>
</g>
<defs>
<clipPath id="clip0">
<rect width="23" height="23" fill="white" transform="translate(18 18)"/>
</clipPath>
</defs>
</svg>
