<svg width="36" height="36" viewBox="0 0 36 36" fill="none" xmlns="http://www.w3.org/2000/svg">
<g clip-path="url(#clip0)">
<path d="M28.0372 35.4152C30.4362 35.4152 32.381 33.4704 32.381 31.0714C32.381 28.6723 30.4362 26.7275 28.0372 26.7275C25.6382 26.7275 23.6934 28.6723 23.6934 31.0714C23.6934 33.4704 25.6382 35.4152 28.0372 35.4152Z" fill="#D93F87"/>
<path d="M34.9875 7.53507C34.869 7.49558 34.7505 7.49558 34.6321 7.49558H9.1615L8.01632 1.69066C7.89785 1.05883 7.30551 0.584961 6.67368 0.584961H0V3.34921H5.52849L9.63538 24.0021C9.75384 24.6339 10.3462 25.1078 10.978 25.1078H30.7226C31.3545 25.1078 31.9073 24.6734 32.0653 24.0811L35.9352 9.23311C36.1721 8.48281 35.7378 7.73251 34.9875 7.53507Z" fill="#D93F87"/>
<path d="M12.6758 35.4152C15.0749 35.4152 17.0197 33.4704 17.0197 31.0714C17.0197 28.6723 15.0749 26.7275 12.6758 26.7275C10.2768 26.7275 8.33203 28.6723 8.33203 31.0714C8.33203 33.4704 10.2768 35.4152 12.6758 35.4152Z" fill="#D93F87"/>
</g>
<defs>
<clipPath id="clip0">
<rect width="36" height="36" fill="white"/>
</clipPath>
</defs>
</svg>
