<svg width="40" height="40" viewBox="0 0 40 40" fill="none" xmlns="http://www.w3.org/2000/svg">
<circle cx="20" cy="20" r="20" fill="#D93F87"/>
<g clip-path="url(#clip0)">
<path d="M19.9989 17.2764C18.496 17.2764 17.2734 18.499 17.2734 20.0018C17.2734 21.5046 18.4961 22.7273 19.9989 22.7273C21.5017 22.7273 22.7243 21.5046 22.7243 20.0018C22.7243 18.499 21.5017 17.2764 19.9989 17.2764Z" fill="white"/>
<path d="M25.3787 11.4302H14.6197C12.8597 11.4302 11.4277 12.8621 11.4277 14.6221V25.3811C11.4277 27.1411 12.8597 28.573 14.6197 28.573H25.3787C27.1387 28.573 28.5706 27.1411 28.5706 25.3811V14.6221C28.5706 12.8621 27.1387 11.4302 25.3787 11.4302ZM19.9992 23.7315C17.9425 23.7315 16.2693 22.0582 16.2693 20.0016C16.2693 17.945 17.9425 16.2717 19.9992 16.2717C22.0559 16.2717 23.7291 17.9449 23.7291 20.0016C23.7291 22.0583 22.0559 23.7315 19.9992 23.7315ZM25.1957 15.5153C25.1023 15.6087 24.9731 15.6623 24.8408 15.6623C24.7085 15.6623 24.579 15.6087 24.4855 15.5153C24.3921 15.4219 24.3385 15.2923 24.3385 15.1601C24.3385 15.0278 24.3921 14.8985 24.4855 14.8051C24.579 14.7114 24.7085 14.6578 24.8408 14.6578C24.9727 14.6578 25.1023 14.7114 25.1957 14.8051C25.2895 14.8985 25.343 15.0278 25.343 15.1601C25.343 15.2923 25.2895 15.4219 25.1957 15.5153Z" fill="white"/>
</g>
<defs>
<clipPath id="clip0">
<rect width="17.1429" height="17.1429" fill="white" transform="translate(11.4277 11.4302)"/>
</clipPath>
</defs>
</svg>
