<svg width="224" height="54" viewBox="0 0 224 54" fill="none" xmlns="http://www.w3.org/2000/svg">
<path d="M49.2172 49.6056H47.7814V37.6348H49.271V46.9853L56.1627 37.6348H57.6883V49.6056H56.1986V40.0576L49.2172 49.6056Z" fill="#948D9D"/>
<path d="M66.5005 40.9371V42.1216H61.7804V49.6056H60.4343V40.9371H66.5005Z" fill="#948D9D"/>
<path d="M72.5227 49.821C71.3022 49.821 70.3271 49.3125 69.5972 48.2954V52.9079H68.2512V40.9371H69.5972V42.2293C69.9203 41.7746 70.3391 41.4097 70.8536 41.1345C71.368 40.8593 71.9244 40.7217 72.5227 40.7217C73.6713 40.7217 74.5986 41.1345 75.3045 41.9601C76.0224 42.7737 76.3813 43.8744 76.3813 45.2624C76.3813 46.6503 76.0224 47.757 75.3045 48.5826C74.5986 49.4082 73.6713 49.821 72.5227 49.821ZM72.1817 48.6185C73.0312 48.6185 73.7072 48.3074 74.2097 47.6852C74.7122 47.0511 74.9635 46.2435 74.9635 45.2624C74.9635 44.2812 74.7122 43.4796 74.2097 42.8574C73.7072 42.2352 73.0312 41.9242 72.1817 41.9242C71.6672 41.9242 71.1646 42.0618 70.6741 42.3369C70.1955 42.6002 69.8365 42.9232 69.5972 43.3061V47.2186C69.8365 47.6134 70.1955 47.9485 70.6741 48.2237C71.1646 48.4869 71.6672 48.6185 72.1817 48.6185Z" fill="#948D9D"/>
<path d="M78.0372 52.9976L78.2526 51.7772C78.468 51.8729 78.7132 51.9208 78.9884 51.9208C79.2995 51.9208 79.5568 51.855 79.7602 51.7234C79.9636 51.5918 80.1371 51.3525 80.2806 51.0055L80.8549 49.6953L77.2296 40.9371H78.6833L81.5728 48.0442L84.4444 40.9371H85.9161L81.5728 51.3644C81.0942 52.513 80.2447 53.0993 79.0243 53.1233C78.6654 53.1233 78.3364 53.0814 78.0372 52.9976Z" fill="#948D9D"/>
<path d="M97.3347 40.9371H98.6808V49.6056H87.3202V40.9371H88.6662V48.4211H92.3275V40.9371H93.6735V48.4211H97.3347V40.9371Z" fill="#948D9D"/>
<path d="M109.004 49.6056H107.281L104.158 45.711L102.723 47.1289V49.6056H101.377V40.9371H102.723V45.5495L107.281 40.9371H108.986L105.145 44.8675L109.004 49.6056Z" fill="#948D9D"/>
<path d="M111.888 49.6056H110.596V40.9371H111.942V47.5596L116.482 40.9371H117.81V49.6056H116.464V42.8574L111.888 49.6056Z" fill="#948D9D"/>
<path d="M60.7473 11.9693C61.8869 12.2869 62.765 12.866 63.3815 13.7067C64.0167 14.5474 64.3343 15.575 64.3343 16.7893C64.3343 18.4707 63.7272 19.7878 62.5128 20.7406C61.3171 21.6934 59.6637 22.1698 57.5526 22.1698H50.3225C49.7808 22.1698 49.3511 22.0204 49.0335 21.7215C48.7345 21.4226 48.5851 21.0022 48.5851 20.4604V4.12266C48.5851 3.58087 48.7345 3.16052 49.0335 2.8616C49.3511 2.56268 49.7808 2.41322 50.3225 2.41322H57.2724C59.3275 2.41322 60.9341 2.87094 62.0925 3.78638C63.2694 4.68313 63.8579 5.94419 63.8579 7.56956C63.8579 8.61577 63.5777 9.52187 63.0172 10.2878C62.4754 11.0538 61.7188 11.6143 60.7473 11.9693ZM52.1161 10.7362H56.6839C59.1687 10.7362 60.411 9.81145 60.411 7.96189C60.411 7.02777 60.1028 6.33652 59.4863 5.88815C58.8697 5.43977 57.9356 5.21558 56.6839 5.21558H52.1161V10.7362ZM57.1603 19.3675C58.4681 19.3675 59.4209 19.134 60.0187 18.6669C60.6165 18.1998 60.9155 17.4712 60.9155 16.4811C60.9155 15.4909 60.6072 14.7529 59.9907 14.2672C59.3928 13.7815 58.4494 13.5386 57.1603 13.5386H52.1161V19.3675H57.1603Z" fill="#44318D"/>
<path d="M69.1437 22.338C68.6392 22.338 68.2189 22.1979 67.8826 21.9176C67.565 21.6187 67.4062 21.1984 67.4062 20.6566V9.83947C67.4062 9.29768 67.565 8.88667 67.8826 8.60643C68.2189 8.3262 68.6392 8.18608 69.1437 8.18608C69.6481 8.18608 70.0684 8.3262 70.4047 8.60643C70.741 8.88667 70.9092 9.29768 70.9092 9.83947V20.6566C70.9092 21.1984 70.741 21.6187 70.4047 21.9176C70.0684 22.1979 69.6481 22.338 69.1437 22.338ZM69.1437 5.69198C68.5085 5.69198 68.004 5.52384 67.6304 5.18756C67.2567 4.83259 67.0699 4.37487 67.0699 3.8144C67.0699 3.25393 67.2567 2.80555 67.6304 2.46927C68.004 2.13299 68.5085 1.96484 69.1437 1.96484C69.7602 1.96484 70.2553 2.13299 70.6289 2.46927C71.0212 2.80555 71.2174 3.25393 71.2174 3.8144C71.2174 4.37487 71.0306 4.83259 70.6569 5.18756C70.2833 5.52384 69.7789 5.69198 69.1437 5.69198Z" fill="#44318D"/>
<path d="M90.8033 8.13003C92.2979 8.13003 93.4375 8.57841 94.2221 9.47516C95.0255 10.3532 95.4272 11.7824 95.4272 13.7628V20.6566C95.4272 21.1984 95.259 21.6187 94.9227 21.9176C94.6051 22.1979 94.1848 22.338 93.6617 22.338C93.1572 22.338 92.7369 22.1979 92.4006 21.9176C92.083 21.6187 91.9242 21.1984 91.9242 20.6566V13.7628C91.9242 12.7352 91.7374 12.0066 91.3637 11.5769C91.0088 11.1286 90.4576 10.9044 89.7104 10.9044C88.7949 10.9044 88.0663 11.222 87.5245 11.8572C86.9827 12.4737 86.7118 13.3237 86.7118 14.4073V20.6566C86.7118 21.1984 86.5437 21.6187 86.2074 21.9176C85.8898 22.1979 85.4788 22.338 84.9744 22.338C84.4699 22.338 84.0496 22.1979 83.7133 21.9176C83.377 21.6187 83.2089 21.1984 83.2089 20.6566V13.7628C83.2089 12.7352 83.0221 12.0066 82.6484 11.5769C82.2934 11.1286 81.7423 10.9044 80.995 10.9044C80.0796 10.9044 79.351 11.222 78.8092 11.8572C78.2861 12.4737 78.0245 13.3237 78.0245 14.4073V20.6566C78.0245 21.1984 77.8564 21.6187 77.5201 21.9176C77.1838 22.1979 76.7635 22.338 76.259 22.338C75.7546 22.338 75.3342 22.1979 74.998 21.9176C74.6804 21.6187 74.5216 21.1984 74.5216 20.6566V9.81145C74.5216 9.28834 74.6897 8.88667 75.026 8.60643C75.3623 8.3262 75.7826 8.18608 76.2871 8.18608C76.7728 8.18608 77.1651 8.3262 77.464 8.60643C77.7816 8.86799 77.9404 9.25098 77.9404 9.7554V10.428C78.3701 9.68067 78.94 9.11086 79.6499 8.71853C80.3785 8.3262 81.2099 8.13003 82.144 8.13003C84.199 8.13003 85.5722 8.98942 86.2634 10.7082C86.6745 9.92354 87.2816 9.29768 88.085 8.83062C88.8883 8.36356 89.7944 8.13003 90.8033 8.13003Z" fill="#44318D"/>
<path d="M111.458 11.9693C112.598 12.2869 113.476 12.866 114.092 13.7067C114.727 14.5474 115.045 15.575 115.045 16.7893C115.045 18.4707 114.438 19.7878 113.223 20.7406C112.028 21.6934 110.374 22.1698 108.263 22.1698H101.033C100.491 22.1698 100.062 22.0204 99.7441 21.7215C99.4452 21.4226 99.2957 21.0022 99.2957 20.4604V4.12266C99.2957 3.58087 99.4452 3.16052 99.7441 2.8616C100.062 2.56268 100.491 2.41322 101.033 2.41322H107.983C110.038 2.41322 111.645 2.87094 112.803 3.78638C113.98 4.68313 114.569 5.94419 114.569 7.56956C114.569 8.61577 114.288 9.52187 113.728 10.2878C113.186 11.0538 112.429 11.6143 111.458 11.9693ZM102.827 10.7362H107.395C109.879 10.7362 111.122 9.81145 111.122 7.96189C111.122 7.02777 110.813 6.33652 110.197 5.88815C109.58 5.43977 108.646 5.21558 107.395 5.21558H102.827V10.7362ZM107.871 19.3675C109.179 19.3675 110.132 19.134 110.729 18.6669C111.327 18.1998 111.626 17.4712 111.626 16.4811C111.626 15.4909 111.318 14.7529 110.701 14.2672C110.103 13.7815 109.16 13.5386 107.871 13.5386H102.827V19.3675H107.871Z" fill="#44318D"/>
<path d="M124.058 8.13003C125.963 8.13003 127.374 8.60643 128.289 9.55923C129.224 10.4934 129.691 11.9226 129.691 13.8468V20.6846C129.691 21.189 129.541 21.5907 129.242 21.8896C128.943 22.1698 128.532 22.31 128.009 22.31C127.523 22.31 127.122 22.1605 126.804 21.8616C126.505 21.5627 126.356 21.1703 126.356 20.6846V20.0681C126.038 20.7967 125.534 21.3665 124.843 21.7775C124.17 22.1885 123.385 22.394 122.489 22.394C121.573 22.394 120.742 22.2072 119.994 21.8336C119.247 21.4599 118.659 20.9461 118.229 20.2923C117.799 19.6384 117.584 18.9098 117.584 18.1064C117.584 17.0976 117.837 16.3036 118.341 15.7244C118.864 15.1453 119.705 14.7249 120.863 14.4634C122.021 14.2018 123.619 14.071 125.655 14.071H126.356V13.4265C126.356 12.5111 126.16 11.8478 125.767 11.4368C125.375 11.0071 124.74 10.7923 123.862 10.7923C123.32 10.7923 122.769 10.8763 122.208 11.0445C121.648 11.1939 120.985 11.4181 120.219 11.7171C119.733 11.9599 119.378 12.0814 119.154 12.0814C118.817 12.0814 118.537 11.9599 118.313 11.7171C118.108 11.4742 118.005 11.1566 118.005 10.7642C118.005 10.4466 118.079 10.1758 118.229 9.95156C118.397 9.70869 118.668 9.48451 119.042 9.279C119.696 8.92403 120.471 8.6438 121.368 8.43829C122.283 8.23278 123.18 8.13003 124.058 8.13003ZM123.189 19.8719C124.123 19.8719 124.88 19.5637 125.459 18.9471C126.057 18.3119 126.356 17.4992 126.356 16.5091V15.9206H125.851C124.6 15.9206 123.628 15.9766 122.937 16.0887C122.246 16.2008 121.751 16.397 121.452 16.6772C121.153 16.9575 121.003 17.3405 121.003 17.8262C121.003 18.424 121.209 18.9191 121.62 19.3114C122.049 19.6851 122.573 19.8719 123.189 19.8719Z" fill="#44318D"/>
<path d="M141.125 8.13003C142.321 8.13003 143.377 8.41961 144.292 8.99876C145.207 9.57792 145.917 10.3999 146.422 11.4648C146.945 12.5297 147.206 13.7721 147.206 15.192C147.206 16.6118 146.945 17.8729 146.422 18.9752C145.917 20.0587 145.198 20.8994 144.264 21.4973C143.349 22.0951 142.302 22.394 141.125 22.394C140.135 22.394 139.248 22.1792 138.463 21.7495C137.697 21.3198 137.109 20.722 136.698 19.956V20.6566C136.698 21.161 136.539 21.5627 136.221 21.8616C135.904 22.1605 135.483 22.31 134.96 22.31C134.437 22.31 134.017 22.1605 133.699 21.8616C133.4 21.5627 133.251 21.161 133.251 20.6566V3.89847C133.251 3.41273 133.409 3.0204 133.727 2.72148C134.063 2.42256 134.493 2.2731 135.016 2.2731C135.539 2.2731 135.96 2.41322 136.277 2.69346C136.595 2.97369 136.754 3.35668 136.754 3.84242V10.456C137.165 9.70869 137.753 9.13888 138.519 8.74655C139.285 8.33554 140.154 8.13003 141.125 8.13003ZM140.201 19.6757C141.303 19.6757 142.162 19.2834 142.779 18.4988C143.395 17.7141 143.703 16.6118 143.703 15.192C143.703 13.7908 143.395 12.7166 142.779 11.9693C142.181 11.222 141.321 10.8483 140.201 10.8483C139.08 10.8483 138.211 11.2313 137.594 11.9973C136.996 12.7446 136.698 13.8282 136.698 15.248C136.698 16.6679 136.996 17.7608 137.594 18.5268C138.211 19.2928 139.08 19.6757 140.201 19.6757Z" fill="#44318D"/>
<path d="M156.331 22.394C154.929 22.394 153.696 22.1045 152.631 21.5253C151.585 20.9462 150.772 20.1148 150.193 19.0312C149.614 17.9476 149.325 16.6866 149.325 15.248C149.325 13.8095 149.614 12.5578 150.193 11.4929C150.772 10.4093 151.585 9.57792 152.631 8.99876C153.696 8.41961 154.929 8.13003 156.331 8.13003C157.732 8.13003 158.955 8.41961 160.002 8.99876C161.066 9.57792 161.879 10.4093 162.44 11.4929C163.019 12.5578 163.308 13.8095 163.308 15.248C163.308 16.6866 163.019 17.9476 162.44 19.0312C161.879 20.1148 161.066 20.9462 160.002 21.5253C158.955 22.1045 157.732 22.394 156.331 22.394ZM156.302 19.6757C157.442 19.6757 158.311 19.3021 158.909 18.5548C159.507 17.8075 159.805 16.7052 159.805 15.248C159.805 13.8095 159.507 12.7166 158.909 11.9693C158.311 11.2033 157.451 10.8203 156.331 10.8203C155.21 10.8203 154.341 11.2033 153.724 11.9693C153.126 12.7166 152.828 13.8095 152.828 15.248C152.828 16.7052 153.126 17.8075 153.724 18.5548C154.322 19.3021 155.182 19.6757 156.302 19.6757Z" fill="#44318D"/>
<path d="M167.475 22.1679C166.877 22.1679 166.382 21.9718 165.99 21.5794C165.597 21.1684 165.401 20.664 165.401 20.0661C165.401 19.4683 165.597 18.9732 165.99 18.5809C166.382 18.1699 166.877 17.9644 167.475 17.9644C168.073 17.9644 168.568 18.1699 168.96 18.5809C169.353 18.9732 169.549 19.4683 169.549 20.0661C169.549 20.664 169.353 21.1684 168.96 21.5794C168.568 21.9718 168.073 22.1679 167.475 22.1679Z" fill="#D93F87"/>
<path d="M178.498 22.224C177.134 22.224 175.929 21.9344 174.883 21.3552C173.855 20.7761 173.061 19.9541 172.501 18.8892C171.941 17.8243 171.66 16.5819 171.66 15.162C171.66 13.7422 171.95 12.4904 172.529 11.4069C173.127 10.3046 173.958 9.45455 175.023 8.85672C176.088 8.25888 177.312 7.95996 178.694 7.95996C179.423 7.95996 180.151 8.06271 180.88 8.26822C181.627 8.47373 182.281 8.75396 182.842 9.10893C183.44 9.50126 183.738 9.99634 183.738 10.5942C183.738 11.0052 183.636 11.3415 183.43 11.603C183.243 11.8459 182.991 11.9673 182.674 11.9673C182.468 11.9673 182.253 11.9206 182.029 11.8272C181.805 11.7338 181.581 11.6217 181.356 11.4909C180.945 11.2481 180.553 11.0612 180.179 10.9305C179.806 10.781 179.376 10.7063 178.89 10.7063C177.732 10.7063 176.835 11.0893 176.2 11.8552C175.584 12.6025 175.275 13.6861 175.275 15.106C175.275 16.5072 175.584 17.5907 176.2 18.3567C176.835 19.104 177.732 19.4777 178.89 19.4777C179.357 19.4777 179.768 19.4123 180.123 19.2815C180.497 19.132 180.908 18.9359 181.356 18.693C181.637 18.5249 181.88 18.4034 182.085 18.3287C182.291 18.2353 182.496 18.1886 182.702 18.1886C183.001 18.1886 183.253 18.3193 183.458 18.5809C183.664 18.8425 183.766 19.1694 183.766 19.5617C183.766 19.8793 183.692 20.1596 183.542 20.4024C183.412 20.6266 183.187 20.8321 182.87 21.019C182.291 21.3926 181.618 21.6915 180.852 21.9157C180.086 22.1212 179.301 22.224 178.498 22.224Z" fill="#D93F87"/>
<path d="M192.35 22.224C190.948 22.224 189.715 21.9344 188.65 21.3552C187.604 20.7761 186.792 19.9447 186.212 18.8611C185.633 17.7776 185.344 16.5165 185.344 15.078C185.344 13.6394 185.633 12.3877 186.212 11.3228C186.792 10.2392 187.604 9.40785 188.65 8.82869C189.715 8.24954 190.948 7.95996 192.35 7.95996C193.751 7.95996 194.974 8.24954 196.021 8.82869C197.086 9.40785 197.898 10.2392 198.459 11.3228C199.038 12.3877 199.327 13.6394 199.327 15.078C199.327 16.5165 199.038 17.7776 198.459 18.8611C197.898 19.9447 197.086 20.7761 196.021 21.3552C194.974 21.9344 193.751 22.224 192.35 22.224ZM192.322 19.5057C193.461 19.5057 194.33 19.132 194.928 18.3847C195.526 17.6374 195.825 16.5352 195.825 15.078C195.825 13.6394 195.526 12.5465 194.928 11.7992C194.33 11.0332 193.471 10.6502 192.35 10.6502C191.229 10.6502 190.36 11.0332 189.743 11.7992C189.146 12.5465 188.847 13.6394 188.847 15.078C188.847 16.5352 189.146 17.6374 189.743 18.3847C190.341 19.132 191.201 19.5057 192.322 19.5057Z" fill="#D93F87"/>
<path d="M218.501 7.95996C219.996 7.95996 221.135 8.40834 221.92 9.30509C222.723 10.1832 223.125 11.6124 223.125 13.5927V20.4865C223.125 21.0283 222.957 21.4486 222.621 21.7476C222.303 22.0278 221.883 22.1679 221.359 22.1679C220.855 22.1679 220.435 22.0278 220.098 21.7476C219.781 21.4486 219.622 21.0283 219.622 20.4865V13.5927C219.622 12.5652 219.435 11.8366 219.062 11.4069C218.707 10.9585 218.155 10.7343 217.408 10.7343C216.493 10.7343 215.764 11.0519 215.222 11.6871C214.681 12.3036 214.41 13.1537 214.41 14.2372V20.4865C214.41 21.0283 214.241 21.4486 213.905 21.7476C213.588 22.0278 213.177 22.1679 212.672 22.1679C212.168 22.1679 211.747 22.0278 211.411 21.7476C211.075 21.4486 210.907 21.0283 210.907 20.4865V13.5927C210.907 12.5652 210.72 11.8366 210.346 11.4069C209.991 10.9585 209.44 10.7343 208.693 10.7343C207.777 10.7343 207.049 11.0519 206.507 11.6871C205.984 12.3036 205.722 13.1537 205.722 14.2372V20.4865C205.722 21.0283 205.554 21.4486 205.218 21.7476C204.882 22.0278 204.461 22.1679 203.957 22.1679C203.452 22.1679 203.032 22.0278 202.696 21.7476C202.378 21.4486 202.219 21.0283 202.219 20.4865V9.64138C202.219 9.11827 202.387 8.7166 202.724 8.43636C203.06 8.15613 203.48 8.01601 203.985 8.01601C204.471 8.01601 204.863 8.15613 205.162 8.43636C205.479 8.69791 205.638 9.0809 205.638 9.58533V10.2579C206.068 9.5106 206.638 8.94079 207.348 8.54846C208.076 8.15613 208.908 7.95996 209.842 7.95996C211.897 7.95996 213.27 8.81935 213.961 10.5381C214.372 9.75347 214.979 9.12761 215.783 8.66055C216.586 8.19349 217.492 7.95996 218.501 7.95996Z" fill="#D93F87"/>
<path fill-rule="evenodd" clip-rule="evenodd" d="M21.8036 22.0885C28.3793 23.1267 33.4717 28.8619 33.4717 35.7343V35.8826C33.4717 43.4965 27.2421 49.7261 19.6282 49.7261H10.2838C17.8977 49.7261 24.1273 43.4965 24.1273 35.8826V35.7343C24.1273 28.8619 19.0349 23.1267 12.4592 22.0885C15.8212 20.1108 18.0955 16.4522 18.0955 12.2497V12.1508C18.0955 7.05833 14.684 2.70751 10.0366 1.27371C10.4321 1.12539 10.9265 0.927621 11.322 0.779297H16.019C22.298 0.779297 27.4399 5.92119 27.4399 12.2002V12.2991C27.4399 16.4027 25.1656 20.1108 21.8036 22.0885Z" fill="#44318D"/>
<path fill-rule="evenodd" clip-rule="evenodd" d="M10.9265 0.730469H16.0684C8.00948 3.20253 11.767 17.5899 10.9265 38.7508C10.6793 44.7332 6.03183 49.6773 0 49.6773V11.657C0 5.67459 4.94413 0.730469 10.9265 0.730469Z" fill="#D93F87"/>
</svg>
