<svg width="204" height="48" viewBox="0 0 204 48" fill="none" xmlns="http://www.w3.org/2000/svg">
<path d="M48.5108 44.4205C46.9081 44.4205 45.6053 43.8863 44.6022 42.8178C43.5992 41.7493 43.0977 40.4029 43.0977 38.7784C43.0977 37.1539 43.5992 35.8074 44.6022 34.7389C45.6053 33.6705 46.9081 33.1362 48.5108 33.1362C50.1026 33.1362 51.4 33.6705 52.4031 34.7389C53.417 35.8074 53.924 37.1539 53.924 38.7784C53.924 40.4029 53.417 41.7493 52.4031 42.8178C51.4 43.8863 50.1026 44.4205 48.5108 44.4205ZM48.5108 43.2103C49.7101 43.2103 50.675 42.796 51.4055 41.9674C52.1469 41.1279 52.5176 40.0649 52.5176 38.7784C52.5176 37.4809 52.1469 36.4179 51.4055 35.5893C50.675 34.7607 49.7101 34.3464 48.5108 34.3464C47.3006 34.3464 46.3303 34.7607 45.5998 35.5893C44.8693 36.4179 44.5041 37.4809 44.5041 38.7784C44.5041 40.0649 44.8693 41.1279 45.5998 41.9674C46.3303 42.796 47.3006 43.2103 48.5108 43.2103Z" fill="white" fill-opacity="0.7"/>
<path d="M58.5301 36.129C59.4241 36.129 60.1437 36.5924 60.6888 37.5191V33.3161H61.9154V37.5028C62.1552 37.0885 62.4605 36.7559 62.8312 36.5052C63.2128 36.2544 63.6217 36.129 64.0578 36.129C64.9082 36.129 65.595 36.5052 66.1184 37.2574C66.6417 37.9988 66.9034 39.0019 66.9034 40.2666C66.9034 41.5313 66.6362 42.5398 66.102 43.2921C65.5787 44.0444 64.8973 44.4205 64.0578 44.4205C63.1637 44.4205 62.4496 43.9571 61.9154 43.0304V47.2334H60.6888V43.0468C60.449 43.4611 60.1382 43.7936 59.7567 44.0444C59.3751 44.2951 58.9662 44.4205 58.5301 44.4205C57.6797 44.4205 56.9928 44.0498 56.4695 43.3084C55.9462 42.5561 55.6845 41.5476 55.6845 40.2829C55.6845 39.0182 55.9462 38.0097 56.4695 37.2574C57.0037 36.5052 57.6906 36.129 58.5301 36.129ZM58.8735 37.2247C58.2739 37.2247 57.7996 37.5137 57.4507 38.0915C57.1019 38.6584 56.9274 39.3889 56.9274 40.2829C56.9274 41.177 57.1019 41.9074 57.4507 42.4744C57.7996 43.0413 58.2739 43.3248 58.8735 43.3248C59.2442 43.3248 59.5986 43.2049 59.9365 42.965C60.2745 42.7251 60.5253 42.4253 60.6888 42.0655V38.5003C60.5144 38.1406 60.2582 37.8407 59.9202 37.6009C59.5822 37.3501 59.2333 37.2247 58.8735 37.2247ZM63.7143 43.3248C64.314 43.3248 64.7882 43.0413 65.1371 42.4744C65.486 41.8965 65.6605 41.1606 65.6605 40.2666C65.6605 39.3726 65.486 38.6421 65.1371 38.0751C64.7882 37.5082 64.314 37.2247 63.7143 37.2247C63.3545 37.2247 63.0057 37.3501 62.6677 37.6009C62.3297 37.8407 62.0789 38.1351 61.9154 38.484V42.0492C62.0898 42.409 62.3406 42.7142 62.6677 42.965C63.0057 43.2049 63.3545 43.3248 63.7143 43.3248Z" fill="white" fill-opacity="0.7"/>
<path d="M70.2208 44.2243H69.0433V36.3253H70.2699V42.3599L74.4074 36.3253H75.6176V44.2243H74.3911V38.0751L70.2208 44.2243Z" fill="white" fill-opacity="0.7"/>
<path d="M81.5502 44.4205C80.3836 44.4205 79.4351 44.028 78.7046 43.243C77.9741 42.4471 77.6089 41.455 77.6089 40.2666C77.6089 39.0782 77.9741 38.0915 78.7046 37.3065C79.4351 36.5215 80.3836 36.129 81.5502 36.129C82.7713 36.129 83.7362 36.5869 84.4448 37.5028L83.6271 38.255C83.1256 37.5682 82.4551 37.2247 81.6156 37.2247C80.787 37.2247 80.1219 37.5082 79.6204 38.0751C79.1298 38.6421 78.8845 39.3726 78.8845 40.2666C78.8845 41.1606 79.1298 41.8965 79.6204 42.4744C80.1219 43.0413 80.787 43.3248 81.6156 43.3248C82.4442 43.3248 83.1147 42.9814 83.6271 42.2945L84.4448 43.0468C83.7362 43.9626 82.7713 44.4205 81.5502 44.4205Z" fill="white" fill-opacity="0.7"/>
<path d="M99.1787 44.2243H97.4778C97.1508 43.9408 96.7528 43.5592 96.284 43.0795C95.39 43.9735 94.3433 44.4205 93.144 44.4205C92.1519 44.4205 91.3342 44.1588 90.6909 43.6355C90.0586 43.1013 89.7424 42.349 89.7424 41.3787C89.7424 40.6046 89.955 39.9722 90.3802 39.4816C90.8054 38.991 91.3941 38.544 92.1464 38.1406C91.5904 37.192 91.3124 36.3743 91.3124 35.6875C91.3124 34.9679 91.574 34.3682 92.0974 33.8885C92.6316 33.3979 93.2858 33.1526 94.0599 33.1526C94.7903 33.1526 95.3845 33.3434 95.8424 33.725C96.3004 34.0957 96.5293 34.619 96.5293 35.295C96.5293 35.6875 96.4584 36.0418 96.3167 36.358C96.175 36.6632 95.946 36.9467 95.6298 37.2084C95.3137 37.4591 95.0356 37.6554 94.7958 37.7971C94.5668 37.9389 94.2179 38.1297 93.7491 38.3695C94.098 38.8492 94.5178 39.3671 95.0084 39.9232C95.4009 40.392 95.8315 40.8771 96.3004 41.3787C96.7801 40.67 97.1726 39.8414 97.4778 38.8928L98.5409 39.3508C98.0066 40.5937 97.5105 41.5313 97.0526 42.1637C97.5978 42.7306 98.3064 43.4175 99.1787 44.2243ZM93.2585 43.4066C94.0653 43.4066 94.8285 43.0468 95.5481 42.3272C94.8285 41.5749 94.327 41.0243 94.0435 40.6754C93.542 40.0976 93.0841 39.5198 92.6698 38.9419C92.1573 39.2581 91.7594 39.6015 91.4759 39.9722C91.2033 40.332 91.0671 40.7736 91.0671 41.2969C91.0671 41.951 91.2797 42.4689 91.7049 42.8505C92.141 43.2212 92.6589 43.4066 93.2585 43.4066ZM92.588 35.7038C92.588 36.2162 92.806 36.8431 93.2421 37.5845C93.9508 37.2356 94.4851 36.8977 94.8448 36.5706C95.2155 36.2435 95.4009 35.8346 95.4009 35.344C95.4009 34.9515 95.281 34.6517 95.0411 34.4446C94.8012 34.2265 94.4905 34.1175 94.1089 34.1175C93.6837 34.1175 93.3239 34.2701 93.0295 34.5754C92.7352 34.8698 92.588 35.2459 92.588 35.7038Z" fill="white" fill-opacity="0.7"/>
<path d="M114.215 44.2243H112.858V39.2199H106.48V44.2243H105.122V33.3161H106.48V38.0097H112.858V33.3161H114.215V44.2243Z" fill="white" fill-opacity="0.7"/>
<path d="M121.737 44.4205C120.134 44.4205 118.831 43.8863 117.828 42.8178C116.825 41.7493 116.323 40.4029 116.323 38.7784C116.323 37.1539 116.825 35.8074 117.828 34.7389C118.831 33.6705 120.134 33.1362 121.737 33.1362C123.328 33.1362 124.626 33.6705 125.629 34.7389C126.643 35.8074 127.15 37.1539 127.15 38.7784C127.15 40.4029 126.643 41.7493 125.629 42.8178C124.626 43.8863 123.328 44.4205 121.737 44.4205ZM121.737 43.2103C122.936 43.2103 123.901 42.796 124.631 41.9674C125.373 41.1279 125.743 40.0649 125.743 38.7784C125.743 37.4809 125.373 36.4179 124.631 35.5893C123.901 34.7607 122.936 34.3464 121.737 34.3464C120.526 34.3464 119.556 34.7607 118.826 35.5893C118.095 36.4179 117.73 37.4809 117.73 38.7784C117.73 40.0649 118.095 41.1279 118.826 41.9674C119.556 42.796 120.526 43.2103 121.737 43.2103Z" fill="white" fill-opacity="0.7"/>
<path d="M137.185 44.2243H135.583L132.803 39.8904H130.627V44.2243H129.27V33.3161H133.653C134.667 33.3161 135.49 33.6159 136.122 34.2156C136.755 34.8152 137.071 35.6111 137.071 36.6033C137.071 37.5409 136.798 38.2877 136.253 38.8438C135.708 39.3998 135.038 39.7105 134.242 39.776L137.185 44.2243ZM133.489 38.6966C134.133 38.6966 134.656 38.5003 135.059 38.1079C135.463 37.7154 135.664 37.2138 135.664 36.6033C135.664 35.9927 135.463 35.4967 135.059 35.1151C134.656 34.7226 134.133 34.5263 133.489 34.5263H130.627V38.6966H133.489Z" fill="white" fill-opacity="0.7"/>
<path d="M146.367 44.2243H139.22V33.3161H146.367V34.5263H140.577V38.0424H146.252V39.2526H140.577V43.0141H146.367V44.2243Z" fill="white" fill-opacity="0.7"/>
<path d="M153.699 44.4205C152.107 44.4205 150.771 43.8972 149.692 42.8505C148.623 41.793 148.089 40.4356 148.089 38.7784C148.089 37.1212 148.623 35.7692 149.692 34.7226C150.771 33.665 152.107 33.1362 153.699 33.1362C155.443 33.1362 156.822 33.8558 157.836 35.295L156.691 35.9328C156.375 35.464 155.95 35.0824 155.416 34.788C154.882 34.4936 154.309 34.3464 153.699 34.3464C152.499 34.3464 151.496 34.7662 150.689 35.6057C149.894 36.4343 149.496 37.4919 149.496 38.7784C149.496 40.0649 149.894 41.1279 150.689 41.9674C151.496 42.796 152.499 43.2103 153.699 43.2103C154.309 43.2103 154.882 43.0686 155.416 42.7851C155.95 42.4907 156.375 42.1037 156.691 41.624L157.853 42.2618C156.795 43.7009 155.41 44.4205 153.699 44.4205Z" fill="white" fill-opacity="0.7"/>
<path d="M168.873 44.2243H167.319L166.354 41.8039H160.925L159.96 44.2243H158.406L162.789 33.3161H164.473L168.873 44.2243ZM165.945 40.5937L163.639 34.7226L161.317 40.5937H165.945Z" fill="white" fill-opacity="0.7"/>
<path d="M55.354 9.90487C56.3925 10.1943 57.1926 10.722 57.7544 11.4881C58.3332 12.2542 58.6226 13.1905 58.6226 14.297C58.6226 15.8292 58.0693 17.0294 56.9628 17.8976C55.8733 18.7658 54.3666 19.1999 52.443 19.1999H45.8547C45.361 19.1999 44.9695 19.0637 44.6801 18.7913C44.4077 18.519 44.2715 18.1359 44.2715 17.6422V2.75483C44.2715 2.26114 44.4077 1.8781 44.6801 1.60572C44.9695 1.33334 45.361 1.19715 45.8547 1.19715H52.1876C54.0602 1.19715 55.5243 1.61423 56.5798 2.4484C57.6523 3.26555 58.1885 4.41466 58.1885 5.89574C58.1885 6.84908 57.9332 7.67474 57.4224 8.37272C56.9287 9.0707 56.2393 9.58141 55.354 9.90487ZM47.489 8.78129H51.6513C53.9155 8.78129 55.0476 7.93861 55.0476 6.25324C55.0476 5.40205 54.7667 4.77216 54.2049 4.36359C53.6431 3.95502 52.7919 3.75073 51.6513 3.75073H47.489V8.78129ZM52.0854 16.6463C53.2771 16.6463 54.1453 16.4335 54.6901 16.0079C55.2349 15.5823 55.5073 14.9184 55.5073 14.0161C55.5073 13.1139 55.2264 12.4414 54.6646 11.9988C54.1198 11.5562 53.2601 11.3349 52.0854 11.3349H47.489V16.6463H52.0854Z" fill="white"/>
<path d="M63.005 19.3531C62.5454 19.3531 62.1623 19.2254 61.8559 18.9701C61.5665 18.6977 61.4218 18.3147 61.4218 17.821V7.96414C61.4218 7.47045 61.5665 7.09592 61.8559 6.84057C62.1623 6.58521 62.5454 6.45753 63.005 6.45753C63.4647 6.45753 63.8477 6.58521 64.1541 6.84057C64.4606 7.09592 64.6138 7.47045 64.6138 7.96414V17.821C64.6138 18.3147 64.4606 18.6977 64.1541 18.9701C63.8477 19.2254 63.4647 19.3531 63.005 19.3531ZM63.005 4.18484C62.4262 4.18484 61.9666 4.03163 61.6261 3.72519C61.2856 3.40174 61.1154 2.98466 61.1154 2.47394C61.1154 1.96322 61.2856 1.55465 61.6261 1.24822C61.9666 0.941789 62.4262 0.788574 63.005 0.788574C63.5668 0.788574 64.0179 0.941789 64.3584 1.24822C64.7159 1.55465 64.8947 1.96322 64.8947 2.47394C64.8947 2.98466 64.7244 3.40174 64.3839 3.72519C64.0435 4.03163 63.5838 4.18484 63.005 4.18484Z" fill="white"/>
<path d="M82.7418 6.40646C84.1037 6.40646 85.1422 6.81503 85.8572 7.63218C86.5892 8.4323 86.9552 9.73463 86.9552 11.5392V17.821C86.9552 18.3147 86.802 18.6977 86.4956 18.9701C86.2062 19.2254 85.8231 19.3531 85.3465 19.3531C84.8868 19.3531 84.5038 19.2254 84.1974 18.9701C83.908 18.6977 83.7632 18.3147 83.7632 17.821V11.5392C83.7632 10.6028 83.593 9.93891 83.2525 9.54737C82.9291 9.13879 82.4269 8.93451 81.7459 8.93451C80.9117 8.93451 80.2478 9.22391 79.7541 9.80272C79.2604 10.3645 79.0136 11.1391 79.0136 12.1265V17.821C79.0136 18.3147 78.8604 18.6977 78.5539 18.9701C78.2645 19.2254 77.89 19.3531 77.4304 19.3531C76.9707 19.3531 76.5877 19.2254 76.2812 18.9701C75.9748 18.6977 75.8216 18.3147 75.8216 17.821V11.5392C75.8216 10.6028 75.6514 9.93891 75.3109 9.54737C74.9874 9.13879 74.4852 8.93451 73.8043 8.93451C72.9701 8.93451 72.3062 9.22391 71.8125 9.80272C71.3358 10.3645 71.0975 11.1391 71.0975 12.1265V17.821C71.0975 18.3147 70.9443 18.6977 70.6378 18.9701C70.3314 19.2254 69.9484 19.3531 69.4887 19.3531C69.0291 19.3531 68.646 19.2254 68.3396 18.9701C68.0502 18.6977 67.9055 18.3147 67.9055 17.821V7.93861C67.9055 7.46194 68.0587 7.09592 68.3651 6.84057C68.6716 6.58521 69.0546 6.45753 69.5143 6.45753C69.9569 6.45753 70.3144 6.58521 70.5868 6.84057C70.8762 7.0789 71.0209 7.42789 71.0209 7.88754V8.50039C71.4124 7.81944 71.9316 7.30021 72.5786 6.94271C73.2425 6.58521 74 6.40646 74.8512 6.40646C76.7239 6.40646 77.9751 7.18956 78.605 8.75575C78.9795 8.04075 79.5328 7.47045 80.2648 7.04485C80.9969 6.61926 81.8225 6.40646 82.7418 6.40646Z" fill="white"/>
<path d="M101.563 9.90487C102.601 10.1943 103.402 10.722 103.963 11.4881C104.542 12.2542 104.832 13.1905 104.832 14.297C104.832 15.8292 104.278 17.0294 103.172 17.8976C102.082 18.7658 100.576 19.1999 98.6518 19.1999H92.0636C91.5699 19.1999 91.1783 19.0637 90.8889 18.7913C90.6166 18.519 90.4804 18.1359 90.4804 17.6422V2.75483C90.4804 2.26114 90.6166 1.8781 90.8889 1.60572C91.1783 1.33334 91.5699 1.19715 92.0636 1.19715H98.3965C100.269 1.19715 101.733 1.61423 102.789 2.4484C103.861 3.26555 104.397 4.41466 104.397 5.89574C104.397 6.84908 104.142 7.67474 103.631 8.37272C103.138 9.0707 102.448 9.58141 101.563 9.90487ZM93.6979 8.78129H97.8602C100.124 8.78129 101.256 7.93861 101.256 6.25324C101.256 5.40205 100.976 4.77216 100.414 4.36359C99.852 3.95502 99.0008 3.75073 97.8602 3.75073H93.6979V8.78129ZM98.2943 16.6463C99.486 16.6463 100.354 16.4335 100.899 16.0079C101.444 15.5823 101.716 14.9184 101.716 14.0161C101.716 13.1139 101.435 12.4414 100.873 11.9988C100.329 11.5562 99.469 11.3349 98.2943 11.3349H93.6979V16.6463H98.2943Z" fill="white"/>
<path d="M113.044 6.40646C114.781 6.40646 116.066 6.84057 116.9 7.70879C117.751 8.55998 118.177 9.86231 118.177 11.6158V17.8465C118.177 18.3062 118.041 18.6722 117.768 18.9446C117.496 19.1999 117.121 19.3276 116.645 19.3276C116.202 19.3276 115.836 19.1914 115.547 18.919C115.274 18.6466 115.138 18.2891 115.138 17.8465V17.2847C114.849 17.9487 114.389 18.4679 113.759 18.8424C113.146 19.2169 112.431 19.4042 111.614 19.4042C110.78 19.4042 110.023 19.234 109.342 18.8935C108.661 18.553 108.124 18.0848 107.733 17.489C107.341 16.8932 107.145 16.2292 107.145 15.4972C107.145 14.5779 107.375 13.8544 107.835 13.3267C108.312 12.7989 109.078 12.4159 110.133 12.1776C111.189 11.9392 112.644 11.8201 114.5 11.8201H115.138V11.2327C115.138 10.3986 114.959 9.79421 114.602 9.41969C114.244 9.02814 113.666 8.83236 112.866 8.83236C112.372 8.83236 111.87 8.90897 111.359 9.06218C110.848 9.19837 110.244 9.40266 109.546 9.67504C109.103 9.89635 108.78 10.007 108.576 10.007C108.269 10.007 108.014 9.89635 107.809 9.67504C107.622 9.45373 107.529 9.16433 107.529 8.80683C107.529 8.51742 107.597 8.27057 107.733 8.06629C107.886 7.84498 108.133 7.64069 108.473 7.45343C109.069 7.12997 109.776 6.87461 110.593 6.68735C111.427 6.50009 112.244 6.40646 113.044 6.40646ZM112.253 17.106C113.104 17.106 113.793 16.8251 114.321 16.2633C114.866 15.6845 115.138 14.9439 115.138 14.0417V13.5054H114.679C113.538 13.5054 112.653 13.5565 112.023 13.6586C111.393 13.7608 110.942 13.9395 110.669 14.1949C110.397 14.4502 110.261 14.7992 110.261 15.2419C110.261 15.7866 110.448 16.2378 110.823 16.5953C111.214 16.9357 111.691 17.106 112.253 17.106Z" fill="white"/>
<path d="M128.597 6.40646C129.686 6.40646 130.648 6.67033 131.482 7.19807C132.316 7.72581 132.963 8.47486 133.423 9.44522C133.9 10.4156 134.138 11.5477 134.138 12.8415C134.138 14.1353 133.9 15.2844 133.423 16.2888C132.963 17.2762 132.308 18.0423 131.457 18.587C130.622 19.1318 129.669 19.4042 128.597 19.4042C127.694 19.4042 126.886 19.2084 126.171 18.8169C125.473 18.4253 124.936 17.8806 124.562 17.1826V17.821C124.562 18.2806 124.417 18.6466 124.128 18.919C123.838 19.1914 123.455 19.3276 122.979 19.3276C122.502 19.3276 122.119 19.1914 121.83 18.919C121.557 18.6466 121.421 18.2806 121.421 17.821V2.55055C121.421 2.10793 121.566 1.75042 121.855 1.47804C122.162 1.20566 122.553 1.06947 123.03 1.06947C123.506 1.06947 123.889 1.19715 124.179 1.45251C124.468 1.70786 124.613 2.05685 124.613 2.49947V8.52593C124.988 7.84497 125.524 7.32575 126.222 6.96825C126.92 6.59372 127.711 6.40646 128.597 6.40646ZM127.754 16.9272C128.758 16.9272 129.541 16.5697 130.103 15.8547C130.665 15.1397 130.946 14.1353 130.946 12.8415C130.946 11.5647 130.665 10.5858 130.103 9.90487C129.558 9.22391 128.775 8.88343 127.754 8.88343C126.732 8.88343 125.941 9.23242 125.379 9.9304C124.834 10.6114 124.562 11.5987 124.562 12.8926C124.562 14.1864 124.834 15.1823 125.379 15.8803C125.941 16.5782 126.732 16.9272 127.754 16.9272Z" fill="white"/>
<path d="M142.452 19.4042C141.175 19.4042 140.052 19.1403 139.081 18.6126C138.128 18.0848 137.387 17.3273 136.86 16.3399C136.332 15.3525 136.068 14.2034 136.068 12.8926C136.068 11.5817 136.332 10.4411 136.86 9.47076C137.387 8.48337 138.128 7.72581 139.081 7.19807C140.052 6.67033 141.175 6.40646 142.452 6.40646C143.729 6.40646 144.844 6.67033 145.797 7.19807C146.768 7.72581 147.508 8.48337 148.019 9.47076C148.547 10.4411 148.81 11.5817 148.81 12.8926C148.81 14.2034 148.547 15.3525 148.019 16.3399C147.508 17.3273 146.768 18.0848 145.797 18.6126C144.844 19.1403 143.729 19.4042 142.452 19.4042ZM142.426 16.9272C143.465 16.9272 144.257 16.5867 144.801 15.9058C145.346 15.2248 145.618 14.2204 145.618 12.8926C145.618 11.5817 145.346 10.5858 144.801 9.90487C144.257 9.20689 143.473 8.8579 142.452 8.8579C141.431 8.8579 140.639 9.20689 140.077 9.90487C139.532 10.5858 139.26 11.5817 139.26 12.8926C139.26 14.2204 139.532 15.2248 140.077 15.9058C140.622 16.5867 141.405 16.9272 142.426 16.9272Z" fill="white"/>
<path d="M152.952 19.3531C152.407 19.3531 151.956 19.1744 151.599 18.8169C151.241 18.4423 151.063 17.9827 151.063 17.4379C151.063 16.8932 151.241 16.442 151.599 16.0845C151.956 15.71 152.407 15.5227 152.952 15.5227C153.497 15.5227 153.948 15.71 154.306 16.0845C154.663 16.442 154.842 16.8932 154.842 17.4379C154.842 17.9827 154.663 18.4423 154.306 18.8169C153.948 19.1744 153.497 19.3531 152.952 19.3531Z" fill="white"/>
<path d="M162.997 19.4042C161.754 19.4042 160.656 19.1403 159.703 18.6126C158.766 18.0848 158.043 17.3358 157.532 16.3654C157.021 15.3951 156.766 14.263 156.766 12.9692C156.766 11.6754 157.03 10.5348 157.558 9.54737C158.102 8.54296 158.86 7.76837 159.83 7.2236C160.801 6.67884 161.916 6.40646 163.175 6.40646C163.839 6.40646 164.503 6.50009 165.167 6.68735C165.848 6.87461 166.444 7.12997 166.955 7.45343C167.5 7.81093 167.772 8.26206 167.772 8.80683C167.772 9.18135 167.678 9.48778 167.491 9.72611C167.321 9.94742 167.091 10.0581 166.802 10.0581C166.614 10.0581 166.419 10.0155 166.214 9.9304C166.01 9.84528 165.806 9.74314 165.601 9.62397C165.227 9.40266 164.869 9.23242 164.529 9.11326C164.188 8.97707 163.797 8.90897 163.354 8.90897C162.299 8.90897 161.482 9.25796 160.903 9.95594C160.341 10.6369 160.06 11.6243 160.06 12.9181C160.06 14.1949 160.341 15.1823 160.903 15.8803C161.482 16.5612 162.299 16.9017 163.354 16.9017C163.78 16.9017 164.154 16.8421 164.478 16.7229C164.818 16.5867 165.193 16.408 165.601 16.1867C165.857 16.0335 166.078 15.9228 166.265 15.8547C166.453 15.7696 166.64 15.727 166.827 15.727C167.1 15.727 167.329 15.8462 167.517 16.0845C167.704 16.3229 167.797 16.6208 167.797 16.9783C167.797 17.2677 167.729 17.5231 167.593 17.7444C167.474 17.9487 167.27 18.1359 166.98 18.3062C166.453 18.6466 165.84 18.919 165.142 19.1233C164.444 19.3106 163.729 19.4042 162.997 19.4042Z" fill="white"/>
<path d="M175.619 19.4042C174.342 19.4042 173.218 19.1403 172.248 18.6126C171.295 18.0848 170.554 17.3273 170.026 16.3399C169.499 15.3525 169.235 14.2034 169.235 12.8926C169.235 11.5817 169.499 10.4411 170.026 9.47076C170.554 8.48337 171.295 7.72581 172.248 7.19807C173.218 6.67033 174.342 6.40646 175.619 6.40646C176.895 6.40646 178.01 6.67033 178.964 7.19807C179.934 7.72581 180.675 8.48337 181.185 9.47076C181.713 10.4411 181.977 11.5817 181.977 12.8926C181.977 14.2034 181.713 15.3525 181.185 16.3399C180.675 17.3273 179.934 18.0848 178.964 18.6126C178.01 19.1403 176.895 19.4042 175.619 19.4042ZM175.593 16.9272C176.632 16.9272 177.423 16.5867 177.968 15.9058C178.513 15.2248 178.785 14.2204 178.785 12.8926C178.785 11.5817 178.513 10.5858 177.968 9.90487C177.423 9.20689 176.64 8.8579 175.619 8.8579C174.597 8.8579 173.806 9.20689 173.244 9.90487C172.699 10.5858 172.427 11.5817 172.427 12.8926C172.427 14.2204 172.699 15.2248 173.244 15.9058C173.789 16.5867 174.572 16.9272 175.593 16.9272Z" fill="white"/>
<path d="M199.449 6.40646C200.81 6.40646 201.849 6.81503 202.564 7.63218C203.296 8.4323 203.662 9.73463 203.662 11.5392V17.821C203.662 18.3147 203.509 18.6977 203.202 18.9701C202.913 19.2254 202.53 19.3531 202.053 19.3531C201.594 19.3531 201.211 19.2254 200.904 18.9701C200.615 18.6977 200.47 18.3147 200.47 17.821V11.5392C200.47 10.6028 200.3 9.93891 199.959 9.54737C199.636 9.13879 199.134 8.93451 198.453 8.93451C197.618 8.93451 196.955 9.22391 196.461 9.80272C195.967 10.3645 195.72 11.1391 195.72 12.1265V17.821C195.72 18.3147 195.567 18.6977 195.261 18.9701C194.971 19.2254 194.597 19.3531 194.137 19.3531C193.677 19.3531 193.294 19.2254 192.988 18.9701C192.682 18.6977 192.528 18.3147 192.528 17.821V11.5392C192.528 10.6028 192.358 9.93891 192.018 9.54737C191.694 9.13879 191.192 8.93451 190.511 8.93451C189.677 8.93451 189.013 9.22391 188.519 9.80272C188.043 10.3645 187.804 11.1391 187.804 12.1265V17.821C187.804 18.3147 187.651 18.6977 187.345 18.9701C187.038 19.2254 186.655 19.3531 186.195 19.3531C185.736 19.3531 185.353 19.2254 185.046 18.9701C184.757 18.6977 184.612 18.3147 184.612 17.821V7.93861C184.612 7.46194 184.765 7.09592 185.072 6.84057C185.378 6.58521 185.761 6.45753 186.221 6.45753C186.664 6.45753 187.021 6.58521 187.293 6.84057C187.583 7.0789 187.728 7.42789 187.728 7.88754V8.50039C188.119 7.81944 188.638 7.30021 189.285 6.94271C189.949 6.58521 190.707 6.40646 191.558 6.40646C193.431 6.40646 194.682 7.18956 195.312 8.75575C195.686 8.04075 196.24 7.47045 196.972 7.04485C197.704 6.61926 198.529 6.40646 199.449 6.40646Z" fill="white"/>
<path fill-rule="evenodd" clip-rule="evenodd" d="M19.8689 19.4619C25.8608 20.408 30.5012 25.6341 30.5012 31.8963V32.0315C30.5012 38.9695 24.8246 44.6461 17.8866 44.6461H9.37175C16.3098 44.6461 21.9864 38.9695 21.9864 32.0315V31.8963C21.9864 25.6341 17.346 20.408 11.354 19.4619C14.4176 17.6598 16.49 14.326 16.49 10.4965V10.4064C16.49 5.76606 13.3814 1.80147 9.14648 0.494955C9.5069 0.359799 9.95743 0.17959 10.3178 0.0444336H14.5978C20.3194 0.0444336 25.0048 4.72986 25.0048 10.4515V10.5416C25.0048 14.2809 22.9324 17.6598 19.8689 19.4619Z" fill="white" fill-opacity="0.7"/>
<path fill-rule="evenodd" clip-rule="evenodd" d="M9.95653 0H14.642C7.29845 2.25261 10.7224 15.3628 9.95653 34.6451C9.73127 40.0964 5.49636 44.6016 0 44.6016V9.95652C0 4.50521 4.50522 0 9.95653 0Z" fill="white"/>
</svg>
