<svg width="30" height="45" viewBox="0 0 30 45" fill="none" xmlns="http://www.w3.org/2000/svg">
<path fill-rule="evenodd" clip-rule="evenodd" d="M19.5421 19.9056C25.4358 20.8362 30 25.9765 30 32.136V32.269C30 39.0932 24.4166 44.6766 17.5924 44.6766H9.21717C16.0414 44.6766 21.6248 39.0932 21.6248 32.269V32.136C21.6248 25.9765 17.0606 20.8362 11.1669 19.9056C14.1802 18.1331 16.2186 14.8539 16.2186 11.0873V10.9987C16.2186 6.43441 13.161 2.53485 8.99561 1.24977C9.35011 1.11683 9.79324 0.93958 10.1477 0.806641H14.3575C19.9853 0.806641 24.5938 5.41521 24.5938 11.043V11.1316C24.5938 14.8096 22.5554 18.1331 19.5421 19.9056Z" fill="#44318D"/>
<path fill-rule="evenodd" clip-rule="evenodd" d="M9.79321 0.763672H14.4018C7.17873 2.97933 10.5465 15.8744 9.79321 34.8405C9.57164 40.2024 5.4062 44.6337 0 44.6337V10.5569C0 5.19498 4.43132 0.763672 9.79321 0.763672Z" fill="#D93F87"/>
</svg>
