<svg width="224" height="50" viewBox="0 0 224 50" fill="none" xmlns="http://www.w3.org/2000/svg">
<path d="M60.7482 24.0044C61.8878 24.322 62.7659 24.9012 63.3824 25.7419C64.0176 26.5826 64.3352 27.6101 64.3352 28.8245C64.3352 30.5059 63.728 31.823 62.5137 32.7758C61.318 33.7286 59.6646 34.205 57.5535 34.205H50.3234C49.7816 34.205 49.3519 34.0555 49.0343 33.7566C48.7354 33.4577 48.5859 33.0374 48.5859 32.4956V16.1578C48.5859 15.616 48.7354 15.1957 49.0343 14.8968C49.3519 14.5978 49.7816 14.4484 50.3234 14.4484H57.2732C59.3283 14.4484 60.935 14.9061 62.0933 15.8215C63.2703 16.7183 63.8588 17.9793 63.8588 19.6047C63.8588 20.6509 63.5786 21.557 63.0181 22.323C62.4763 23.089 61.7197 23.6495 60.7482 24.0044ZM52.1169 22.7714H56.6848C59.1695 22.7714 60.4119 21.8466 60.4119 19.997C60.4119 19.0629 60.1036 18.3717 59.4871 17.9233C58.8706 17.4749 57.9365 17.2507 56.6848 17.2507H52.1169V22.7714ZM57.1612 31.4026C58.4689 31.4026 59.4217 31.1691 60.0196 30.7021C60.6174 30.235 60.9163 29.5064 60.9163 28.5162C60.9163 27.526 60.6081 26.7881 59.9915 26.3024C59.3937 25.8166 58.4502 25.5737 57.1612 25.5737H52.1169V31.4026H57.1612Z" fill="#44318D"/>
<path d="M69.1445 34.3731C68.6401 34.3731 68.2197 34.233 67.8835 33.9528C67.5659 33.6539 67.4071 33.2335 67.4071 32.6917V21.8746C67.4071 21.3328 67.5659 20.9218 67.8835 20.6416C68.2197 20.3614 68.6401 20.2212 69.1445 20.2212C69.6489 20.2212 70.0693 20.3614 70.4056 20.6416C70.7419 20.9218 70.91 21.3328 70.91 21.8746V32.6917C70.91 33.2335 70.7419 33.6539 70.4056 33.9528C70.0693 34.233 69.6489 34.3731 69.1445 34.3731ZM69.1445 17.7271C68.5093 17.7271 68.0049 17.559 67.6312 17.2227C67.2576 16.8677 67.0708 16.41 67.0708 15.8496C67.0708 15.2891 67.2576 14.8407 67.6312 14.5044C68.0049 14.1681 68.5093 14 69.1445 14C69.761 14 70.2561 14.1681 70.6298 14.5044C71.0221 14.8407 71.2183 15.2891 71.2183 15.8496C71.2183 16.41 71.0314 16.8677 70.6578 17.2227C70.2841 17.559 69.7797 17.7271 69.1445 17.7271Z" fill="#44318D"/>
<path d="M90.8041 20.1652C92.2987 20.1652 93.4383 20.6136 94.223 21.5103C95.0263 22.3884 95.428 23.8176 95.428 25.7979V32.6917C95.428 33.2335 95.2599 33.6539 94.9236 33.9528C94.606 34.233 94.1856 34.3731 93.6625 34.3731C93.1581 34.3731 92.7378 34.233 92.4015 33.9528C92.0839 33.6539 91.9251 33.2335 91.9251 32.6917V25.7979C91.9251 24.7704 91.7382 24.0418 91.3646 23.6121C91.0096 23.1637 90.4585 22.9395 89.7112 22.9395C88.7958 22.9395 88.0672 23.2571 87.5254 23.8923C86.9836 24.5088 86.7127 25.3589 86.7127 26.4425V32.6917C86.7127 33.2335 86.5445 33.6539 86.2083 33.9528C85.8907 34.233 85.4796 34.3731 84.9752 34.3731C84.4708 34.3731 84.0504 34.233 83.7142 33.9528C83.3779 33.6539 83.2097 33.2335 83.2097 32.6917V25.7979C83.2097 24.7704 83.0229 24.0418 82.6493 23.6121C82.2943 23.1637 81.7432 22.9395 80.9959 22.9395C80.0804 22.9395 79.3518 23.2571 78.81 23.8923C78.2869 24.5088 78.0254 25.3589 78.0254 26.4425V32.6917C78.0254 33.2335 77.8572 33.6539 77.5209 33.9528C77.1847 34.233 76.7643 34.3731 76.2599 34.3731C75.7555 34.3731 75.3351 34.233 74.9988 33.9528C74.6812 33.6539 74.5224 33.2335 74.5224 32.6917V21.8466C74.5224 21.3235 74.6906 20.9218 75.0268 20.6416C75.3631 20.3614 75.7835 20.2212 76.2879 20.2212C76.7736 20.2212 77.166 20.3614 77.4649 20.6416C77.7825 20.9031 77.9413 21.2861 77.9413 21.7906V22.4631C78.371 21.7158 78.9408 21.146 79.6507 20.7537C80.3793 20.3614 81.2107 20.1652 82.1448 20.1652C84.1999 20.1652 85.5731 21.0246 86.2643 22.7434C86.6753 21.9587 87.2825 21.3328 88.0858 20.8658C88.8892 20.3987 89.7953 20.1652 90.8041 20.1652Z" fill="#44318D"/>
<path d="M111.459 24.0044C112.598 24.322 113.477 24.9012 114.093 25.7419C114.728 26.5826 115.046 27.6101 115.046 28.8245C115.046 30.5059 114.439 31.823 113.224 32.7758C112.029 33.7286 110.375 34.205 108.264 34.205H101.034C100.492 34.205 100.063 34.0555 99.745 33.7566C99.446 33.4577 99.2966 33.0374 99.2966 32.4956V16.1578C99.2966 15.616 99.446 15.1957 99.745 14.8968C100.063 14.5978 100.492 14.4484 101.034 14.4484H107.984C110.039 14.4484 111.646 14.9061 112.804 15.8215C113.981 16.7183 114.569 17.9793 114.569 19.6047C114.569 20.6509 114.289 21.557 113.729 22.323C113.187 23.089 112.43 23.6495 111.459 24.0044ZM102.828 22.7714H107.395C109.88 22.7714 111.123 21.8466 111.123 19.997C111.123 19.0629 110.814 18.3717 110.198 17.9233C109.581 17.4749 108.647 17.2507 107.395 17.2507H102.828V22.7714ZM107.872 31.4026C109.18 31.4026 110.132 31.1691 110.73 30.7021C111.328 30.235 111.627 29.5064 111.627 28.5162C111.627 27.526 111.319 26.7881 110.702 26.3024C110.104 25.8166 109.161 25.5737 107.872 25.5737H102.828V31.4026H107.872Z" fill="#44318D"/>
<path d="M124.059 20.1652C125.964 20.1652 127.375 20.6416 128.29 21.5944C129.224 22.5285 129.691 23.9577 129.691 25.882V32.7198C129.691 33.2242 129.542 33.6259 129.243 33.9248C128.944 34.205 128.533 34.3451 128.01 34.3451C127.524 34.3451 127.123 34.1957 126.805 33.8967C126.506 33.5978 126.357 33.2055 126.357 32.7198V32.1032C126.039 32.8318 125.535 33.4017 124.843 33.8127C124.171 34.2237 123.386 34.4292 122.489 34.4292C121.574 34.4292 120.743 34.2424 119.995 33.8687C119.248 33.4951 118.659 32.9813 118.23 32.3274C117.8 31.6735 117.585 30.9449 117.585 30.1416C117.585 29.1327 117.837 28.3387 118.342 27.7596C118.865 27.1804 119.706 26.7601 120.864 26.4985C122.022 26.237 123.62 26.1062 125.656 26.1062H126.357V25.4616C126.357 24.5462 126.16 23.883 125.768 23.472C125.376 23.0423 124.741 22.8274 123.863 22.8274C123.321 22.8274 122.77 22.9115 122.209 23.0796C121.649 23.2291 120.985 23.4533 120.219 23.7522C119.734 23.9951 119.379 24.1165 119.155 24.1165C118.818 24.1165 118.538 23.9951 118.314 23.7522C118.108 23.5093 118.006 23.1917 118.006 22.7994C118.006 22.4818 118.08 22.2109 118.23 21.9867C118.398 21.7438 118.669 21.5197 119.042 21.3142C119.696 20.9592 120.472 20.679 121.368 20.4734C122.284 20.2679 123.181 20.1652 124.059 20.1652ZM123.19 31.9071C124.124 31.9071 124.881 31.5988 125.46 30.9823C126.058 30.3471 126.357 29.5344 126.357 28.5442V27.9557H125.852C124.6 27.9557 123.629 28.0118 122.938 28.1239C122.247 28.236 121.751 28.4321 121.453 28.7124C121.154 28.9926 121.004 29.3756 121.004 29.8613C121.004 30.4592 121.21 30.9543 121.621 31.3466C122.05 31.7202 122.573 31.9071 123.19 31.9071Z" fill="#44318D"/>
<path d="M141.126 20.1652C142.322 20.1652 143.377 20.4548 144.293 21.0339C145.208 21.6131 145.918 22.4351 146.423 23.5C146.946 24.5649 147.207 25.8073 147.207 27.2271C147.207 28.647 146.946 29.9081 146.423 31.0103C145.918 32.0939 145.199 32.9346 144.265 33.5324C143.349 34.1303 142.303 34.4292 141.126 34.4292C140.136 34.4292 139.249 34.2143 138.464 33.7847C137.698 33.355 137.109 32.7571 136.698 31.9911V32.6917C136.698 33.1962 136.54 33.5978 136.222 33.8967C135.904 34.1957 135.484 34.3451 134.961 34.3451C134.438 34.3451 134.018 34.1957 133.7 33.8967C133.401 33.5978 133.252 33.1962 133.252 32.6917V15.9336C133.252 15.4479 133.41 15.0556 133.728 14.7566C134.064 14.4577 134.494 14.3083 135.017 14.3083C135.54 14.3083 135.96 14.4484 136.278 14.7286C136.596 15.0088 136.754 15.3918 136.754 15.8776V22.4911C137.165 21.7439 137.754 21.174 138.52 20.7817C139.286 20.3707 140.155 20.1652 141.126 20.1652ZM140.201 31.7109C141.304 31.7109 142.163 31.3186 142.78 30.5339C143.396 29.7493 143.704 28.647 143.704 27.2271C143.704 25.826 143.396 24.7517 142.78 24.0044C142.182 23.2571 141.322 22.8835 140.201 22.8835C139.08 22.8835 138.212 23.2665 137.595 24.0324C136.997 24.7797 136.698 25.8633 136.698 27.2832C136.698 28.703 136.997 29.796 137.595 30.5619C138.212 31.3279 139.08 31.7109 140.201 31.7109Z" fill="#44318D"/>
<path d="M156.331 34.4292C154.93 34.4292 153.697 34.1396 152.632 33.5605C151.586 32.9813 150.773 32.1499 150.194 31.0664C149.615 29.9828 149.325 28.7217 149.325 27.2832C149.325 25.8446 149.615 24.5929 150.194 23.528C150.773 22.4444 151.586 21.6131 152.632 21.0339C153.697 20.4548 154.93 20.1652 156.331 20.1652C157.733 20.1652 158.956 20.4548 160.002 21.0339C161.067 21.6131 161.88 22.4444 162.44 23.528C163.02 24.5929 163.309 25.8446 163.309 27.2832C163.309 28.7217 163.02 29.9828 162.44 31.0664C161.88 32.1499 161.067 32.9813 160.002 33.5605C158.956 34.1396 157.733 34.4292 156.331 34.4292ZM156.303 31.7109C157.443 31.7109 158.312 31.3373 158.91 30.59C159.507 29.8427 159.806 28.7404 159.806 27.2832C159.806 25.8446 159.507 24.7517 158.91 24.0044C158.312 23.2384 157.452 22.8555 156.331 22.8555C155.21 22.8555 154.342 23.2384 153.725 24.0044C153.127 24.7517 152.828 25.8446 152.828 27.2832C152.828 28.7404 153.127 29.8427 153.725 30.59C154.323 31.3373 155.182 31.7109 156.303 31.7109Z" fill="#44318D"/>
<path d="M167.476 34.2031C166.878 34.2031 166.383 34.0069 165.991 33.6146C165.599 33.2036 165.402 32.6991 165.402 32.1013C165.402 31.5035 165.599 31.0084 165.991 30.6161C166.383 30.205 166.878 29.9995 167.476 29.9995C168.074 29.9995 168.569 30.205 168.961 30.6161C169.354 31.0084 169.55 31.5035 169.55 32.1013C169.55 32.6991 169.354 33.2036 168.961 33.6146C168.569 34.0069 168.074 34.2031 167.476 34.2031Z" fill="#D93F87"/>
<path d="M178.499 34.2591C177.135 34.2591 175.93 33.9695 174.884 33.3904C173.857 32.8112 173.063 31.9892 172.502 30.9243C171.942 29.8594 171.661 28.617 171.661 27.1972C171.661 25.7773 171.951 24.5256 172.53 23.442C173.128 22.3398 173.959 21.4897 175.024 20.8919C176.089 20.294 177.313 19.9951 178.695 19.9951C179.424 19.9951 180.153 20.0979 180.881 20.3034C181.629 20.5089 182.282 20.7891 182.843 21.1441C183.441 21.5364 183.74 22.0315 183.74 22.6293C183.74 23.0403 183.637 23.3766 183.431 23.6382C183.245 23.8811 182.992 24.0025 182.675 24.0025C182.469 24.0025 182.254 23.9558 182.03 23.8624C181.806 23.769 181.582 23.6569 181.358 23.5261C180.947 23.2832 180.554 23.0964 180.181 22.9656C179.807 22.8162 179.377 22.7414 178.892 22.7414C177.733 22.7414 176.836 23.1244 176.201 23.8904C175.585 24.6377 175.276 25.7213 175.276 27.1411C175.276 28.5423 175.585 29.6259 176.201 30.3919C176.836 31.1392 177.733 31.5128 178.892 31.5128C179.359 31.5128 179.77 31.4474 180.125 31.3166C180.498 31.1672 180.909 30.971 181.358 30.7281C181.638 30.56 181.881 30.4386 182.086 30.3638C182.292 30.2704 182.497 30.2237 182.703 30.2237C183.002 30.2237 183.254 30.3545 183.459 30.6161C183.665 30.8776 183.768 31.2046 183.768 31.5969C183.768 31.9145 183.693 32.1947 183.543 32.4376C183.413 32.6618 183.188 32.8673 182.871 33.0541C182.292 33.4278 181.619 33.7267 180.853 33.9509C180.087 34.1564 179.303 34.2591 178.499 34.2591Z" fill="#D93F87"/>
<path d="M192.351 34.2591C190.95 34.2591 189.717 33.9695 188.652 33.3904C187.605 32.8112 186.793 31.9799 186.214 30.8963C185.634 29.8127 185.345 28.5517 185.345 27.1131C185.345 25.6746 185.634 24.4228 186.214 23.3579C186.793 22.2744 187.605 21.443 188.652 20.8638C189.717 20.2847 190.95 19.9951 192.351 19.9951C193.752 19.9951 194.976 20.2847 196.022 20.8638C197.087 21.443 197.899 22.2744 198.46 23.3579C199.039 24.4228 199.329 25.6746 199.329 27.1131C199.329 28.5517 199.039 29.8127 198.46 30.8963C197.899 31.9799 197.087 32.8112 196.022 33.3904C194.976 33.9695 193.752 34.2591 192.351 34.2591ZM192.323 31.5408C193.462 31.5408 194.331 31.1672 194.929 30.4199C195.527 29.6726 195.826 28.5703 195.826 27.1131C195.826 25.6746 195.527 24.5816 194.929 23.8343C194.331 23.0684 193.472 22.6854 192.351 22.6854C191.23 22.6854 190.361 23.0684 189.745 23.8343C189.147 24.5816 188.848 25.6746 188.848 27.1131C188.848 28.5703 189.147 29.6726 189.745 30.4199C190.342 31.1672 191.202 31.5408 192.323 31.5408Z" fill="#D93F87"/>
<path d="M218.502 19.9951C219.997 19.9951 221.136 20.4435 221.921 21.3403C222.724 22.2183 223.126 23.6475 223.126 25.6279V32.5217C223.126 33.0634 222.958 33.4838 222.622 33.7827C222.304 34.063 221.884 34.2031 221.361 34.2031C220.856 34.2031 220.436 34.063 220.1 33.7827C219.782 33.4838 219.623 33.0634 219.623 32.5217V25.6279C219.623 24.6003 219.436 23.8717 219.063 23.442C218.708 22.9936 218.157 22.7695 217.409 22.7695C216.494 22.7695 215.765 23.0871 215.223 23.7223C214.682 24.3388 214.411 25.1888 214.411 26.2724V32.5217C214.411 33.0634 214.243 33.4838 213.906 33.7827C213.589 34.063 213.178 34.2031 212.673 34.2031C212.169 34.2031 211.749 34.063 211.412 33.7827C211.076 33.4838 210.908 33.0634 210.908 32.5217V25.6279C210.908 24.6003 210.721 23.8717 210.347 23.442C209.992 22.9936 209.441 22.7695 208.694 22.7695C207.779 22.7695 207.05 23.0871 206.508 23.7223C205.985 24.3388 205.723 25.1888 205.723 26.2724V32.5217C205.723 33.0634 205.555 33.4838 205.219 33.7827C204.883 34.063 204.462 34.2031 203.958 34.2031C203.454 34.2031 203.033 34.063 202.697 33.7827C202.379 33.4838 202.221 33.0634 202.221 32.5217V21.6765C202.221 21.1534 202.389 20.7518 202.725 20.4715C203.061 20.1913 203.482 20.0512 203.986 20.0512C204.472 20.0512 204.864 20.1913 205.163 20.4715C205.481 20.7331 205.639 21.1161 205.639 21.6205V22.2931C206.069 21.5458 206.639 20.9759 207.349 20.5836C208.077 20.1913 208.909 19.9951 209.843 19.9951C211.898 19.9951 213.271 20.8545 213.962 22.5733C214.373 21.7886 214.981 21.1628 215.784 20.6957C216.587 20.2286 217.493 19.9951 218.502 19.9951Z" fill="#D93F87"/>
<path fill-rule="evenodd" clip-rule="evenodd" d="M21.8041 21.6161C28.3798 22.6598 33.4723 28.425 33.4723 35.3333V35.4824C33.4723 43.1362 27.2427 49.3984 19.6287 49.3984H10.2843C17.8983 49.3984 24.1279 43.1362 24.1279 35.4824V35.3333C24.1279 28.425 19.0354 22.6598 12.4597 21.6161C15.8217 19.628 18.096 15.9502 18.096 11.7257V11.6263C18.096 6.50722 14.6846 2.13362 10.0371 0.692313C10.4326 0.543213 10.9271 0.344413 11.3226 0.195312H16.0195C22.2986 0.195312 27.4404 5.36412 27.4404 11.676V11.7754C27.4404 15.9005 25.1661 19.628 21.8041 21.6161Z" fill="#44318D"/>
<path fill-rule="evenodd" clip-rule="evenodd" d="M10.9265 0.146484H16.0684C8.00949 2.63149 11.767 17.0942 10.9265 38.3659C10.6793 44.3796 6.03184 49.3496 0 49.3496V11.1302C0 5.11649 4.94413 0.146484 10.9265 0.146484Z" fill="#D93F87"/>
</svg>
