<svg width="19" height="18" viewBox="0 0 19 18" fill="none" xmlns="http://www.w3.org/2000/svg">
<path d="M9.02542 0.463656C9.17509 0.00300059 9.8268 0.00299987 9.97647 0.463655L11.7461 5.90996C11.813 6.11597 12.005 6.25545 12.2216 6.25545H17.9482C18.4326 6.25545 18.6339 6.87526 18.2421 7.15996L13.6092 10.526C13.4339 10.6533 13.3606 10.879 13.4275 11.085L15.1972 16.5313C15.3468 16.9919 14.8196 17.375 14.4277 17.0903L9.79484 13.7243C9.61959 13.597 9.38229 13.597 9.20705 13.7243L4.57415 17.0903C4.18229 17.375 3.65505 16.9919 3.80473 16.5313L5.57434 11.085C5.64128 10.879 5.56795 10.6533 5.3927 10.526L0.7598 7.15996C0.367944 6.87526 0.569331 6.25545 1.05369 6.25545H6.78028C6.99689 6.25545 7.18887 6.11597 7.2558 5.90996L9.02542 0.463656Z" fill="#E8E8E8"/>
</svg>
