<svg width="18" height="18" viewBox="0 0 18 18" fill="none" xmlns="http://www.w3.org/2000/svg">
<path d="M8.47268 0.463656C8.62236 0.00300059 9.27406 0.00299987 9.42374 0.463655L11.1933 5.90996C11.2603 6.11597 11.4523 6.25545 11.6689 6.25545H17.3955C17.8798 6.25545 18.0812 6.87526 17.6894 7.15996L13.0565 10.526C12.8812 10.6533 12.8079 10.879 12.8748 11.085L14.6444 16.5313C14.7941 16.9919 14.2669 17.375 13.875 17.0903L9.2421 13.7243C9.06686 13.597 8.82956 13.597 8.65432 13.7243L4.02141 17.0903C3.62956 17.375 3.10232 16.9919 3.25199 16.5313L5.0216 11.085C5.08854 10.879 5.01521 10.6533 4.83997 10.526L0.207066 7.15996C-0.184791 6.87526 0.0165963 6.25545 0.500958 6.25545H6.22754C6.44415 6.25545 6.63613 6.11597 6.70307 5.90996L8.47268 0.463656Z" fill="#EFBA31"/>
</svg>
