<svg width="27" height="27" viewBox="0 0 27 27" fill="none" xmlns="http://www.w3.org/2000/svg">
<path d="M7.17188 12.0234V7.01378C7.17188 6.52519 7.39758 6.06408 7.78344 5.76439C8.06388 5.54655 8.40618 5.43175 8.75401 5.43175C8.88469 5.43175 9.01605 5.44794 9.1453 5.48095L13.869 6.68693C14.1575 6.76055 14.4545 6.79794 14.7518 6.79794C15.6518 6.79794 16.5117 6.4617 17.1731 5.85125C17.4712 5.57613 17.8562 5.43169 18.2465 5.43169C18.4608 5.43169 18.6766 5.4752 18.8806 5.56458C19.4562 5.8166 19.8281 6.38539 19.8281 7.01378V12.0234C19.8281 12.37 19.7997 12.7099 19.7459 13.0414C20.9772 11.7296 21.6738 9.9851 21.6738 8.17383C21.6738 3.66673 18.007 0 13.5 0C8.99295 0 5.32617 3.66673 5.32617 8.17383C5.32617 9.9851 6.02279 11.7296 7.25414 13.0414C7.2003 12.7099 7.17188 12.37 7.17188 12.0234Z" fill="#D93F87"/>
<path d="M18.2461 11.8651V7.01367C16.9635 8.19751 15.1688 8.65145 13.4776 8.21966L8.75391 7.01367V11.8651C8.75391 14.4864 10.8788 16.6112 13.5 16.6112C16.1212 16.6112 18.2461 14.4864 18.2461 11.8651Z" fill="#D93F87"/>
<path d="M21.1568 19.0058L15.0794 17.9746L13.8384 19.4036C13.8384 21.1482 15.1319 19.4036 13.3872 19.4036C11.6425 19.4036 13.0487 21.1482 13.0487 19.4036L11.9206 17.9746L5.84323 19.0058C4.01578 19.3839 2.68945 21.0128 2.68945 22.8788V26.2086C2.68945 26.6455 3.04362 26.9997 3.48047 26.9997H6.11719V23.7525C6.11719 23.3265 6.44451 22.96 6.86997 22.9401C7.32422 22.9186 7.69922 23.2806 7.69922 23.7301V26.9997H19.3008V23.7525C19.3008 23.3265 19.6281 22.96 20.0536 22.9401C20.5078 22.9186 20.8828 23.2806 20.8828 23.7301V26.9997H23.5195C23.9564 26.9997 24.3105 26.6455 24.3105 26.2086V22.8788C24.3105 21.0128 22.9842 19.3839 21.1568 19.0058Z" fill="#D93F87"/>
<path d="M11.918 17.9902V18.4571C11.918 19.3295 12.6277 20.0392 13.5 20.0392C14.3723 20.0392 15.082 19.3295 15.082 18.4571V17.9949C14.5715 18.1258 14.0411 18.1935 13.5003 18.1935C13.5001 18.1935 13.4523 18.1933 13.4523 18.1933C12.9231 18.1894 12.4092 18.1188 11.918 17.9902Z" fill="#D93F87"/>
</svg>
