<svg width="27" height="27" viewBox="0 0 27 27" fill="none" xmlns="http://www.w3.org/2000/svg">
<g clip-path="url(#clip0)">
<path d="M24.9649 10.4055L23.0713 4.0935C22.6395 2.65402 21.3401 1.6875 19.838 1.6875H7.16199C5.65988 1.6875 4.36047 2.65402 3.9287 4.0935L2.03511 10.4055C0.839418 10.9251 0 12.115 0 13.5V20.25C0 21.1819 0.755585 21.9375 1.6875 21.9375H1.6876L1.6875 23.6249C1.6875 24.5569 2.44298 25.3125 3.375 25.3125H5.0626C5.99452 25.3125 6.7501 24.5569 6.7501 23.625L6.74938 21.9375H20.25L20.2499 23.6249C20.2499 24.5569 21.0054 25.3125 21.9374 25.3125H23.625C24.557 25.3125 25.3125 24.5569 25.3125 23.625V21.9376L25.3119 21.9375H25.3125C26.2444 21.9375 27 21.1819 27 20.25V13.5C27 12.115 26.1606 10.9251 24.9649 10.4055L24.9649 10.4055ZM7.16194 5.0625H19.838L21.3568 10.125H5.64314L7.16193 5.0625H7.16194ZM6.74995 17.7188C5.81793 17.7188 5.06245 16.9632 5.06245 16.0312C5.06245 15.0992 5.81793 14.3438 6.74995 14.3438C7.68197 14.3438 8.43745 15.0992 8.43745 16.0312C8.43745 16.9632 7.68197 17.7188 6.74995 17.7188ZM20.2499 17.7188C19.3179 17.7188 18.5624 16.9632 18.5624 16.0312C18.5624 15.0992 19.3179 14.3438 20.2499 14.3438C21.182 14.3438 21.9374 15.0992 21.9374 16.0312C21.9374 16.9632 21.182 17.7188 20.2499 17.7188Z" fill="#D93F87"/>
</g>
<defs>
<clipPath id="clip0">
<rect width="27" height="27" fill="white"/>
</clipPath>
</defs>
</svg>
