<svg width="27" height="27" viewBox="0 0 27 27" fill="none" xmlns="http://www.w3.org/2000/svg">
<path d="M20.7085 4.52316H7.81341C7.41394 4.52316 7.09011 4.17342 7.09011 3.742V3.35113C7.09011 2.91128 6.75993 2.55469 6.35265 2.55469H2.47492C1.66036 2.55469 1 3.26781 1 4.14758V17.5507L2.89245 7.60727C2.96159 7.24404 3.25759 6.98337 3.60096 6.98337H22.1834V6.11605C22.1834 5.23628 21.5231 4.52316 20.7085 4.52316Z" fill="#D93F87"/>
<path d="M24.5258 8.54297H4.19141L1.34533 23.4967C1.25197 23.9873 1.59895 24.447 2.06277 24.447H23.223C23.9748 24.447 24.6063 23.8363 24.689 23.0292L25.9918 10.311C26.0885 9.36768 25.4046 8.54297 24.5258 8.54297Z" fill="#D93F87"/>
</svg>
