<svg width="27" height="27" viewBox="0 0 27 27" fill="none" xmlns="http://www.w3.org/2000/svg">
<path d="M16.6641 3.16406C17.1013 3.16406 17.4551 2.81027 17.4551 2.37305V0.791016C17.4551 0.353795 17.1013 0 16.6641 0H10.3359C9.89872 0 9.54492 0.353795 9.54492 0.791016V2.37305C9.54492 2.81027 9.89872 3.16406 10.3359 3.16406H16.6641Z" fill="#D93F87"/>
<path d="M7.17188 26.209C7.17188 26.6462 7.52567 27 7.96289 27H19.0371C19.4743 27 19.8281 26.6462 19.8281 26.209V20.6191C19.8281 20.0475 19.5825 19.5068 19.1213 19.0371C19.5825 18.5675 19.8281 18.0267 19.8281 17.4551C19.8281 16.8834 19.5825 16.3427 19.1213 15.873C19.5825 15.4034 19.8281 14.8627 19.8281 14.291C19.8281 13.7194 19.5825 13.1786 19.1213 12.709C19.5825 12.2393 19.8281 11.6986 19.8281 11.127V9.49219C19.8281 7.58183 18.467 5.98435 16.6641 5.61669V4.74609H10.3359V5.61669C8.533 5.9844 7.17188 7.58188 7.17188 9.49219V11.127C7.17188 11.6986 7.41751 12.2393 7.87867 12.709C7.41751 13.1786 7.17188 13.7194 7.17188 14.291C7.17188 14.8627 7.41751 15.4034 7.87867 15.873C7.41751 16.3427 7.17188 16.8834 7.17188 17.4551C7.17188 18.0267 7.41751 18.5675 7.87867 19.0371C7.41751 19.5068 7.17188 20.0475 7.17188 20.6191V26.209Z" fill="#D93F87"/>
</svg>
