<svg width="27" height="27" viewBox="0 0 27 27" fill="none" xmlns="http://www.w3.org/2000/svg">
<g clip-path="url(#clip0)">
<path d="M26.0716 2.78302H17.7282V2.31884C17.7282 1.55115 17.1085 0.929688 16.3399 0.929688H10.6592C9.89153 0.929688 9.27007 1.55115 9.27007 2.31884V2.78302H0.926666C0.412324 2.78302 0 3.2081 0 3.72244V20.4857C0 20.9992 0.412324 21.4388 0.926666 21.4388H5.68497L3.98977 26.073H7.22545L8.92065 21.4388H11.1242V24.2196H15.8741V21.4388H18.0776L19.7729 26.073H23.0094L21.3142 21.4388H26.0742C26.5877 21.4388 27.0009 20.9992 27.0009 20.4857V3.72329C27 3.2081 26.5851 2.78302 26.0716 2.78302ZM25.1441 19.5846H1.85333V4.6372H25.1441V19.5846Z" fill="#D93F87"/>
<path d="M23 7H4V17H23V7Z" fill="#D93F87"/>
</g>
<defs>
<clipPath id="clip0">
<rect width="27" height="27" fill="white"/>
</clipPath>
</defs>
</svg>
