<svg width="27" height="27" viewBox="0 0 27 27" fill="none" xmlns="http://www.w3.org/2000/svg">
<g clip-path="url(#clip0)">
<path d="M17.0419 9.69478C18.8954 7.84132 21.9005 7.84132 23.7539 9.69478L9.69603 23.7527C7.84257 21.8992 7.84257 18.8941 9.69603 17.0407L17.0419 9.69478Z" fill="#D93F87"/>
<path d="M10.1438 5.03125L15.707 8.79016L8.7942 15.7031L5.03524 10.1398L10.1438 5.03125Z" fill="#D93F87"/>
<path d="M8.46391 0C9.69953 1.23562 9.69953 3.239 8.46391 4.47467L4.47403 8.46455C3.23841 9.70017 1.23503 9.70017 -0.000640869 8.46455L8.46391 0Z" fill="#D93F87"/>
<path d="M27.002 25.8789L18.4053 17.2822L17.2868 18.4007L25.8835 26.9974L27.002 25.8789Z" fill="#D93F87"/>
</g>
<defs>
<clipPath id="clip0">
<rect width="27" height="27" fill="white" transform="matrix(-1 0 0 1 27 0)"/>
</clipPath>
</defs>
</svg>
