<svg width="27" height="27" viewBox="0 0 27 27" fill="none" xmlns="http://www.w3.org/2000/svg">
<g clip-path="url(#clip0)">
<path d="M27 5.65699C25.7524 3.87526 23.2719 3.40571 21.4898 4.6533L12.3268 11.0692L8.99491 8.73594C10.2355 6.59398 9.65198 3.8222 7.58638 2.37602C5.40507 0.849146 2.39969 1.37902 0.872183 3.5599C-0.654635 5.74089 -0.125182 8.74691 2.05618 10.2744C3.55299 11.3225 5.4384 11.401 6.96728 10.6426L11.0483 13.5L6.96764 16.3571C5.43877 15.5991 3.55346 15.6776 2.05654 16.7253C-0.124707 18.2528 -0.654213 21.2585 0.872552 23.4394C2.40006 25.6207 5.40576 26.1506 7.58669 24.6237C9.65203 23.1775 10.2355 20.4057 8.99523 18.2638L12.3271 15.9305L21.4898 22.3461C23.2718 23.594 25.7524 23.1241 27 21.3424L15.7986 13.5L27 5.65699ZM4.8319 8.83498C3.45168 8.83498 2.33271 7.71601 2.33271 6.33579C2.33271 4.95557 3.45174 3.8366 4.8319 3.8366C6.21244 3.8366 7.33109 4.95557 7.33109 6.33579C7.33109 7.71601 6.21244 8.83498 4.8319 8.83498ZM4.8319 23.1636C3.45168 23.1636 2.33271 22.0447 2.33271 20.6645C2.33271 19.2842 3.45168 18.1653 4.8319 18.1653C6.21244 18.1653 7.33109 19.2842 7.33109 20.6645C7.33109 22.0446 6.21244 23.1636 4.8319 23.1636Z" fill="#D93F87"/>
</g>
<defs>
<clipPath id="clip0">
<rect width="27" height="27" fill="white"/>
</clipPath>
</defs>
</svg>
