<svg width="27" height="27" viewBox="0 0 27 27" fill="none" xmlns="http://www.w3.org/2000/svg">
<g clip-path="url(#clip0)">
<path d="M26.9991 10.9633C26.9989 10.7006 26.9899 10.4392 26.9727 10.1795C25.7769 10.1795 5.44646 10.1795 4.80285 10.1795L3.78347 6.86653C3.39009 5.58813 2.15951 4.69531 0.790992 4.69531C0.354154 4.69531 0 5.04947 0 5.4863C0 5.92314 0.354154 6.2773 0.790992 6.2773C1.4608 6.2773 2.08342 6.72078 2.27141 7.33174C3.58119 11.5884 3.454 11.177 3.47056 11.2256C3.49603 11.3 3.62881 11.6708 4.95831 15.3934C5.44408 16.7537 6.97233 17.6676 8.76114 17.6676H11.4875L10.749 19.5136C8.44817 19.1255 6.38067 20.9084 6.38067 23.2045C6.38067 25.2814 8.06243 27.0013 10.1247 27.0013C11.9373 27.0013 13.4287 25.6809 13.7854 23.9955H16.5888C16.7372 24.6967 17.0813 25.3449 17.5953 25.8715C19.0662 27.3788 21.4323 27.3792 22.9037 25.8715C23.6064 25.1514 23.9935 24.2042 23.9935 23.2045C23.9935 20.9081 21.9256 19.1257 19.6252 19.5136L18.8866 17.6676H21.613C23.3998 17.6676 24.9267 16.7556 25.4142 15.3979C27.0478 10.9806 26.9991 11.1681 26.9991 10.9633ZM16.5902 22.4135H13.7839C13.5771 21.4561 13.0037 20.6334 12.2177 20.1016L13.1914 17.6676H17.1827L18.1564 20.1016C17.3705 20.6334 16.797 21.4561 16.5902 22.4135Z" fill="#D93F87"/>
<path d="M26.7597 8.59545C25.7839 3.83136 21.8136 0 16.8744 0H15.6089C15.2679 0 14.9654 0.218419 14.8581 0.542041L12.1875 8.59545H26.7597Z" fill="#D93F87"/>
</g>
<defs>
<clipPath id="clip0">
<rect width="27" height="27" fill="white"/>
</clipPath>
</defs>
</svg>
