<svg width="28" height="28" viewBox="0 0 28 28" fill="none" xmlns="http://www.w3.org/2000/svg">
<path d="M7.8882 5.18601L9.01101 10.7976C9.033 10.9064 9.08573 11.0064 9.16483 11.0849L13.1023 15.0223C13.2122 15.1321 13.3561 15.1871 13.5 15.1871C13.6439 15.1871 13.7878 15.1321 13.8977 15.0223L17.8352 11.0849C17.9143 11.0064 17.9671 10.9064 17.9891 10.7976L19.1085 5.19867L20.2335 0.698833C20.2906 0.468123 20.1972 0.225863 19.9984 0.0940812C19.8018 -0.036646 19.5425 -0.0300543 19.3502 0.112749L14.9997 3.37502H12.0004L7.64989 0.112749C7.45762 -0.0311617 7.19944 -0.0372261 7.00169 0.0940812C6.80283 0.225916 6.70944 0.468175 6.7666 0.698833L7.8882 5.18601ZM15.5 9.5C15.6066 9.3698 16.5986 6.18743 16.7666 6.18743H14.0624C14.2306 6.18743 14.3909 6.26326 14.4975 6.3934C14.6041 6.5236 14.6469 6.69499 14.6139 6.86031L14.0514 9.67271C13.9987 9.93527 13.768 10.1248 13.4999 10.1248C13.2319 10.1248 13.0012 9.93527 12.9484 9.67271L13.5 11.5C13.4671 11.3346 15.3934 9.63015 15.5 9.5Z" fill="#D93F87"/>
<path d="M4.50985 25.1727C4.55051 25.3776 4.70212 25.5429 4.90208 25.6017L10.6094 27.2819L2.71094 16.1758L4.50985 25.1727Z" fill="#D93F87"/>
<path d="M22.0953 25.6028C22.2953 25.544 22.4469 25.3786 22.4876 25.1738L24.2864 16.1797L16.3906 27.2832L22.0953 25.6028Z" fill="#D93F87"/>
<path d="M26.7373 1.08749C26.5407 0.963351 26.2891 0.973213 26.1001 1.11333L21.6727 4.4333L20.6213 4.78382L20.1994 6.47231L19.6241 9.35395L23.5 9C23.7834 8.87639 22.3308 7.24185 22.4549 7.52915C22.5769 7.81423 22.445 8.14492 22.1594 8.26742L19.6241 9.35395L19.1541 11.7084L21.6727 12.0202C21.9693 11.9224 21.2476 10.09 21.3465 10.385C21.4442 10.6799 21.2849 10.9985 20.9905 11.0963L19.1541 11.7084L19.0921 12.0191C19.0262 12.3476 18.8657 12.6453 18.6307 12.881L14.6932 16.8183C14.3746 17.1369 13.9505 17.3127 13.5001 17.3127C13.0496 17.3127 12.6256 17.1369 12.307 16.8183L8.3695 12.881C8.13441 12.6453 7.97399 12.3476 7.90807 12.0202L7.84574 11.7083L6.00966 11.0963C5.71524 10.9985 5.55593 10.6799 5.6537 10.385C5.75258 10.09 4.70775 11.6112 5 11.7084L7.84574 11.7083L7.37499 9.35353L4.84076 8.26742C4.5551 8.14492 4.42326 7.81423 4.54524 7.52915C4.66937 7.24185 3.21656 8.87586 3.5 9L7.37499 9.35353L6.78859 6.4201L6.37921 4.78392L5.32744 4.43324L0.899902 1.11327C0.712064 0.972105 0.459364 0.962191 0.262719 1.08743C0.0649672 1.21157 -0.0350162 1.4445 0.0111259 1.67352L2.17954 12.5185C2.19948 12.539 2.22426 12.5525 2.24135 12.5765L12.3544 26.7967L13.0419 27.763C13.1474 27.9119 13.3177 27.9997 13.5001 27.9997C13.6825 27.9997 13.8528 27.9118 13.9582 27.763L14.6452 26.7969L14.647 26.7964L24.7588 12.5766C24.7756 12.5531 24.8001 12.5399 24.8197 12.5198L26.989 1.67352C27.035 1.44508 26.9351 1.21162 26.7373 1.08749ZM12.3124 19.2577C12.2157 19.4472 12.0213 19.5626 11.8125 19.5626C11.7818 19.5626 11.751 19.5598 11.7203 19.5549L8.34529 18.9924C8.15081 18.96 7.98823 18.8287 7.91572 18.6464L6.7907 15.8339C6.7039 15.6175 6.75995 15.3693 6.93134 15.2111C7.10383 15.0534 7.35321 15.0172 7.56414 15.1221L9.81414 16.2471C9.86798 16.274 9.91739 16.3097 9.96027 16.3525L12.2103 18.6025C12.3827 18.7754 12.4245 19.0402 12.3124 19.2577ZM20.2093 15.8339L19.0843 18.6464C19.0118 18.8287 18.8492 18.96 18.6548 18.9924L15.2798 19.5549C15.249 19.5598 15.2183 19.5626 15.1875 19.5626C14.9788 19.5626 14.7854 19.4472 14.6876 19.2577C14.5756 19.0402 14.6174 18.7754 14.7898 18.6024L17.0398 16.3524C17.0827 16.3096 17.1321 16.2739 17.186 16.247L19.436 15.122C19.6458 15.017 19.8952 15.0533 20.0688 15.2109C20.24 15.3693 20.2961 15.6175 20.2093 15.8339Z" fill="#D93F87"/>
</svg>
