<svg width="27" height="27" viewBox="0 0 27 27" fill="none" xmlns="http://www.w3.org/2000/svg">
<g clip-path="url(#clip0)">
<path d="M17.9128 21.0341C17.9128 20.7869 17.7118 20.5859 17.4647 20.5859H9.33093C9.08382 20.5859 8.88281 20.7869 8.88281 21.0341V25.9744H17.9128V21.0341Z" fill="#D93F87"/>
<path d="M9.45199 3.42613C6.60343 4.21081 4.44977 6.73943 4.259 9.81983L3.50016 22.6057C3.44615 23.4776 3.75762 24.3407 4.35449 24.9756C4.95137 25.6106 5.79355 25.9748 6.66512 25.9748H7.29272V21.0345C7.29272 19.9098 8.20768 18.9948 9.33236 18.9948H17.4661C18.5908 18.9948 19.5058 19.9098 19.5058 21.0345V25.9748H20.3134C21.1849 25.9748 22.0271 25.6106 22.624 24.9756C23.2209 24.3406 23.5324 23.4791 23.4787 22.6118L22.7191 9.81362C22.5286 6.73677 20.3751 4.21001 17.5265 3.42587C17.4399 2.7787 17.2013 2.17917 16.8471 1.66463C16.1117 0.596501 14.8812 -0.105469 13.4892 -0.105469C12.0973 -0.105469 10.8667 0.596501 10.1314 1.66468C9.77714 2.17933 9.53863 2.77891 9.45199 3.42613ZM18.3387 12.2822H17.0124H15.4209H8.61729V10.6907H18.3387V12.2822ZM14.1702 1.58187C14.9549 1.80606 15.5816 2.40702 15.8416 3.17605C15.7788 3.1744 15.7159 3.1734 15.6528 3.1734H11.3256C11.2625 3.1734 11.1996 3.1744 11.1368 3.17605C11.3968 2.40702 12.0235 1.80606 12.8082 1.58187C13.0248 1.52001 13.253 1.48617 13.4892 1.48617C13.7254 1.48617 13.9536 1.52001 14.1702 1.58187Z" fill="#D93F87"/>
</g>
<defs>
<clipPath id="clip0">
<rect width="27" height="27" fill="white"/>
</clipPath>
</defs>
</svg>
