<svg width="27" height="27" viewBox="0 0 27 27" fill="none" xmlns="http://www.w3.org/2000/svg">
<path d="M25.418 13.1211H1.58203C0.708275 13.1211 0 13.8294 0 14.7031C0 15.5768 0.708275 16.2852 1.58203 16.2852H25.418C26.2917 16.2852 27 15.5768 27 14.7031C27 13.8294 26.2917 13.1211 25.418 13.1211Z" fill="#D93F87"/>
<path d="M24.8786 15.8672H2.12109L4.19751 22.4043H22.8022L24.8786 15.8672Z" fill="#D93F87"/>
<path d="M7.85137 4H5.19751L2.12109 10.5371H24.8786L21.8022 4H18.1485L16.8826 8.16407H10.1172L7.85137 4Z" fill="#D93F87"/>
<path d="M9.18745 8.58203H17.8115L18.5 4H7L9.18745 8.58203Z" fill="#D93F87"/>
</svg>
