<svg width="27" height="27" viewBox="0 0 27 27" fill="none" xmlns="http://www.w3.org/2000/svg">
<g clip-path="url(#clip0)">
<path d="M8.98958 12.9183L16.7915 20.7202C16.8274 20.0279 16.8585 18.5001 16.596 16.6695C16.1229 13.3702 14.9062 10.6595 13.0772 8.83069C11.2484 7.00181 8.5377 5.78501 5.23843 5.31193C2.78354 4.95988 0.871971 5.13575 0.791814 5.1435C0.399102 5.18105 0.0882323 5.49191 0.0506855 5.88463C0.0429862 5.96478 -0.132883 7.8763 0.219119 10.3312C0.692199 13.6305 1.90894 16.3412 3.73787 18.17C5.56675 19.9989 8.27741 21.2157 11.5767 21.6888C12.7918 21.863 13.8734 21.9079 14.666 21.9079C15.0674 21.9079 15.3945 21.8964 15.6273 21.8842L7.82547 14.0824C7.504 13.761 7.504 13.2398 7.82547 12.9183C8.14689 12.5969 8.66812 12.5969 8.98958 12.9183Z" fill="#D93F87"/>
<path d="M26.9628 10.8529C26.9253 10.4602 26.6144 10.1493 26.2217 10.1118C26.0017 10.0908 20.798 9.63166 17.7679 12.6619C17.6499 12.7799 17.5374 12.9013 17.4297 13.0255C17.7844 14.0863 18.0517 15.2265 18.225 16.4353C18.2805 16.8224 18.3237 17.196 18.3573 17.553L20.5082 15.4022C20.8296 15.0808 21.3508 15.0808 21.6723 15.4022C21.9939 15.7236 21.9938 16.2448 21.6723 16.5663L18.4617 19.777C18.4609 20.6161 18.4131 21.1631 18.4027 21.2723C18.3842 21.4655 18.3432 21.652 18.2828 21.8296C20.1114 21.6606 22.6356 21.0838 24.4127 19.3067C27.4429 16.2766 26.9839 11.073 26.9628 10.8529Z" fill="#D93F87"/>
</g>
<defs>
<clipPath id="clip0">
<rect width="27" height="27" fill="white"/>
</clipPath>
</defs>
</svg>
