<svg width="27" height="27" viewBox="0 0 27 27" fill="none" xmlns="http://www.w3.org/2000/svg">
<g clip-path="url(#clip0)">
<path d="M26.9984 13.3618C26.9275 6.26881 21.108 0.279393 14.0251 0.0105049C10.3116 -0.133457 6.80388 1.20639 4.13657 3.77472C1.46921 6.34305 0 9.79673 0 13.5001C0 20.7596 5.59338 26.6163 12.7967 26.9819C12.8405 26.9932 12.8878 26.9999 12.9373 26.9999C12.9958 26.9999 13.0543 26.9976 13.1128 26.9943C13.1229 26.9943 13.1319 26.9954 13.1421 26.9954C13.1961 26.9987 13.2523 26.9897 13.3041 26.9751C14.681 26.7962 15.7498 25.615 15.7498 24.1874C15.7498 23.6215 15.5844 23.0804 15.2177 22.5551L15.2233 22.5517C14.9533 22.141 14.7058 21.8092 14.4865 21.5133C13.9161 20.7461 13.6011 20.3242 13.5134 19.3095C13.5044 19.2487 13.4999 19.188 13.4999 19.125C13.4999 18.504 14.005 18 14.6248 18C15.4089 18 16.3393 18.2329 17.3248 18.4803C19.5961 19.0484 22.4232 19.7561 25.0736 17.8976C27.0288 16.5241 27.0085 14.3889 26.9984 13.3618ZM6.18737 19.1251C4.63606 19.1251 3.37494 17.8639 3.37494 16.3126C3.37494 14.7613 4.63606 13.5002 6.18737 13.5002C7.73874 13.5002 8.99981 14.7613 8.99981 16.3126C8.99986 17.8639 7.73763 19.1251 6.18737 19.1251ZM7.31239 11.2502C5.76102 11.2502 4.49996 9.98799 4.49996 8.43779C4.49996 6.88758 5.76108 5.62535 7.31239 5.62535C8.86376 5.62535 10.1248 6.88758 10.1248 8.43779C10.1248 9.98799 8.8626 11.2502 7.31239 11.2502ZM15.1872 9.00024C13.6359 9.00024 12.3748 7.73801 12.3748 6.18781C12.3748 4.6376 13.6359 3.37537 15.1872 3.37537C16.7385 3.37537 17.9997 4.6376 17.9997 6.18781C17.9997 7.73801 16.7386 9.00024 15.1872 9.00024ZM20.8122 14.6252C19.2608 14.6252 17.9997 13.3629 17.9997 11.8127C17.9997 10.2625 19.2608 9.00029 20.8122 9.00029C22.3635 9.00029 23.6246 10.2625 23.6246 11.8127C23.6246 13.3629 22.3635 14.6252 20.8122 14.6252Z" fill="#D93F87"/>
</g>
<defs>
<clipPath id="clip0">
<rect width="27" height="27" fill="white"/>
</clipPath>
</defs>
</svg>
