<svg width="27" height="27" viewBox="0 0 27 27" fill="none" xmlns="http://www.w3.org/2000/svg">
<g clip-path="url(#clip0)">
<path d="M24.6634 8.30804H23.0622C22.6735 4.80817 19.698 0.59375 16.0961 0.59375H10.9038C7.30192 0.59375 4.32638 4.80817 3.93768 8.30804H2.33655C1.04815 8.30804 0 9.35624 0 10.6446V24.1446C0 25.433 1.04815 26.4812 2.33655 26.4812H24.6635C25.9518 26.4812 27 25.433 27 24.1446V10.6446C27 9.35624 25.9519 8.30804 24.6634 8.30804ZM10.9038 4.74764H16.0962C17.4008 4.74764 18.5031 7.11087 18.8431 8.3081H8.1569C8.49688 7.11087 9.59918 4.74764 10.9038 4.74764ZM18.9519 18.0141C18.9519 18.4442 18.6032 18.7929 18.1731 18.7929H14.8983V22.0677C14.8983 22.4978 14.5496 22.8465 14.1195 22.8465H12.8805C12.4504 22.8465 12.1017 22.4978 12.1017 22.0677V20.6528V18.7929H8.82694C8.39679 18.7929 8.04811 18.4442 8.04811 18.0141V16.7751C8.04811 16.3449 8.39684 15.9963 8.82694 15.9963H12.1017V12.7215C12.1017 12.2913 12.4504 11.9427 12.8805 11.9427H14.1195C14.5497 11.9427 14.8983 12.2914 14.8983 12.7215V15.9963H18.1731C18.6033 15.9963 18.9519 16.345 18.9519 16.7751V18.0141Z" fill="#D93F87"/>
</g>
<defs>
<clipPath id="clip0">
<rect width="27" height="27" fill="white"/>
</clipPath>
</defs>
</svg>
