<svg width="27" height="27" viewBox="0 0 27 27" fill="none" xmlns="http://www.w3.org/2000/svg">
<g clip-path="url(#clip0)">
<path d="M7.27201 9H22.728H22.9135H25C24.8733 4.01709 20.4359 0 15 0C9.5641 0 5.12721 4.01709 5 9H7.08646H7.27201Z" fill="#D93F87"/>
<path d="M8.18626 10C8.06266 10.5573 8 11.1113 8 11.6495C8 15.7023 11.14 19 15 19C18.86 19 21.9996 15.7023 22 11.6495C22 11.1104 21.9369 10.5563 21.8137 10H8.18626Z" fill="#D93F87"/>
<path d="M17.7342 20H11.2658C8.36214 20 6 22.3068 6 25.142V34.9996L22.5654 35H23V25.1424C23 22.3068 20.6379 20 17.7342 20ZM20.1115 29.875L18.194 28.514L16.2765 29.875L17.0097 27.6734L15 28L17.7342 27.6734L18.5 28V27.6734L21.5 27.5L19.3792 27.6734L20.1115 29.875Z" fill="#D93F87"/>
</g>
<defs>
<clipPath id="clip0">
<rect width="27" height="27" fill="white"/>
</clipPath>
</defs>
</svg>
