<svg width="27" height="27" viewBox="0 0 27 27" fill="none" xmlns="http://www.w3.org/2000/svg">
<path d="M27 4.57581C27.0029 2.20236 25.0812 0.276092 22.7077 0.273224C20.9113 0.271092 19.3032 1.38648 18.6758 3.06979C15.3947 1.54642 11.6089 1.54642 8.32781 3.06979C7.50244 0.844524 5.02943 -0.290354 2.80417 0.535012C0.578899 1.36038 -0.555979 3.83346 0.269387 6.05873C0.673613 7.14846 1.50192 8.02802 2.56554 8.49674C-0.65665 14.5367 1.62752 22.0451 7.66746 25.2673C13.7074 28.4895 21.2158 26.2053 24.438 20.1654C26.3833 16.5191 26.3833 12.1431 24.438 8.49674C25.9929 7.81204 26.9974 6.2747 27 4.57581ZM5.75994 4.28166C5.35542 5.05798 4.64183 5.62737 3.79506 5.84945C3.74417 5.85312 3.69299 5.85312 3.64211 5.84945C3.42996 5.85878 3.22597 5.76716 3.09206 5.60237C2.52348 4.88517 2.64401 3.8428 3.3612 3.27422C4.0784 2.70564 5.12077 2.82617 5.68934 3.54336C5.85024 3.75779 5.87642 4.04458 5.757 4.2846L5.75994 4.28166ZM17.2198 9.14385L17.2315 9.13797C18.0438 9.13797 18.7022 9.79641 18.7022 10.6087C18.7022 11.421 18.0438 12.0794 17.2315 12.0794C16.4193 12.0794 15.7608 11.421 15.7608 10.6087C15.764 9.80332 16.4144 9.15032 17.2198 9.14385ZM9.78382 9.14385L9.79558 9.13797C10.6079 9.13797 11.2663 9.79641 11.2663 10.6087C11.2663 11.421 10.6079 12.0794 9.79558 12.0794C8.98331 12.0794 8.32487 11.421 8.32487 10.6087C8.3281 9.80332 8.97845 9.15032 9.78382 9.14385ZM13.5018 23.8451C10.2662 23.8451 7.61892 21.592 7.61892 18.8241C7.61892 16.3327 9.76029 14.2678 12.5576 13.8766C11.681 14.1438 11.068 14.9347 11.028 15.8503C11.028 17.0269 12.137 17.9887 13.5018 17.9887C14.8666 17.9887 15.9755 17.0269 15.9755 15.8503C15.936 14.939 15.3288 14.1505 14.4578 13.8796C17.2551 14.2678 19.3847 16.3357 19.3847 18.8241C19.3847 21.592 16.7374 23.8451 13.5018 23.8451ZM23.9115 5.62296L23.9027 5.60825C23.7688 5.77304 23.5648 5.86467 23.3526 5.85533C23.3046 5.85665 23.2564 5.85467 23.2085 5.84945C22.3661 5.63075 21.6543 5.06827 21.2466 4.29931C21.1296 4.06091 21.1557 3.77706 21.3142 3.56395C21.8828 2.84676 22.9252 2.72623 23.6424 3.29481C24.3596 3.86339 24.4801 4.90576 23.9115 5.62296Z" fill="#D93F87"/>
</svg>
