<svg width="27" height="27" viewBox="0 0 27 27" fill="none" xmlns="http://www.w3.org/2000/svg">
<g clip-path="url(#clip0)">
<path d="M13.4644 18.0508H13.4483C9.87245 18.0508 6.25076 18.4161 2.67383 19.1355L4.4359 23.9781C4.7251 24.773 5.48772 25.3071 6.33358 25.3071H20.5812C21.425 25.3071 22.1871 24.7747 22.4774 23.9823L24.2529 19.136C20.6619 18.4174 17.0353 18.0519 13.4644 18.0508Z" fill="#D93F87"/>
<path d="M26.9084 11.127C26.8038 10.9288 26.6199 10.7842 26.4026 10.7292C24.1213 10.1517 21.8037 9.73435 19.4698 9.47672V7.65732C19.4698 4.36558 16.7918 1.6875 13.5 1.6875C10.2083 1.6875 7.53021 4.36553 7.53021 7.65732V9.54892C5.43322 9.8063 3.35081 10.1931 1.29758 10.7095L0.598674 10.8854C0.381311 10.94 0.197307 11.0842 0.092321 11.2822C-0.0126655 11.4801 -0.0289228 11.7133 0.0477189 11.9239L2.09519 17.5508C5.86072 16.7763 9.67839 16.3825 13.4472 16.3825H13.4639C17.2286 16.3837 21.0519 16.7777 24.8331 17.5518L26.9517 11.7691C27.0288 11.5586 27.0131 11.3252 26.9084 11.127ZM17.8863 9.32665C14.9673 9.09541 12.0301 9.11288 9.11377 9.37949V7.65732C9.11377 5.23872 11.0814 3.27101 13.5001 3.27101C15.9186 3.27101 17.8863 5.23867 17.8863 7.65732V9.32665H17.8863Z" fill="#D93F87"/>
</g>
<defs>
<clipPath id="clip0">
<rect width="27" height="27" fill="white"/>
</clipPath>
</defs>
</svg>
