<svg width="27" height="27" viewBox="0 0 27 27" fill="none" xmlns="http://www.w3.org/2000/svg">
<g clip-path="url(#clip0)">
<path d="M15.4349 10.7648C15.4349 9.01037 14.4311 7.48705 12.9681 6.73579V4.46635L14.126 4.06137C14.409 5.54659 15.7165 6.67296 17.2829 6.67296H17.7783V5.09175H17.2829C16.4055 5.09175 15.6879 4.39652 15.6514 3.52805L16.759 3.14058V2.63692H18.346V1.05572H16.759V0H6.50404V2.93047L8.83672 5.16179V6.74135C7.37972 7.49446 6.38086 9.01469 6.38086 10.7648V10.8002H15.4349V10.7648Z" fill="#D93F87"/>
<path d="M6.38086 27.0013H17.2182C19.0886 27.0013 20.6101 25.4796 20.6101 23.6094V21.8164H6.38086V27.0013Z" fill="#D93F87"/>
<path d="M20.6101 19.6301C20.6101 18.4388 20.1089 17.2912 19.2351 16.4817L15.4349 12.9612V12.3828H6.38086V20.2353H20.6101V19.6301Z" fill="#D93F87"/>
</g>
<defs>
<clipPath id="clip0">
<rect width="27" height="27" fill="white"/>
</clipPath>
</defs>
</svg>
