<svg width="27" height="27" viewBox="0 0 27 27" fill="none" xmlns="http://www.w3.org/2000/svg">
<path d="M13.5 0L24.0547 5.08289L26.6615 16.504L19.3574 25.6631H7.64257L0.338473 16.504L2.94528 5.08289L13.5 0Z" fill="#D93F87"/>
<path d="M10.4581 13.2338C9.71524 13.2338 9.11106 13.006 8.64554 12.5504C8.18002 12.0848 7.94727 11.5005 7.94727 10.7972C7.94727 10.0841 8.18002 9.48983 8.64554 9.0144C9.11106 8.53898 9.71524 8.30127 10.4581 8.30127C11.2108 8.30127 11.82 8.53898 12.2855 9.0144C12.751 9.48983 12.9838 10.0841 12.9838 10.7972C12.9838 11.5005 12.751 12.0848 12.2855 12.5504C11.82 13.006 11.2108 13.2338 10.4581 13.2338ZM10.6067 18.3594H9.49239L15.8214 8.44984H16.9506L10.6067 18.3594ZM17.7231 17.8394C17.2576 18.3049 16.6534 18.5377 15.9106 18.5377C15.1677 18.5377 14.5636 18.3049 14.098 17.8394C13.6325 17.3739 13.3998 16.7895 13.3998 16.0863C13.3998 15.3732 13.6325 14.7789 14.098 14.3035C14.5636 13.8281 15.1677 13.5903 15.9106 13.5903C16.6534 13.5903 17.2576 13.8281 17.7231 14.3035C18.1986 14.7789 18.4363 15.3732 18.4363 16.0863C18.4363 16.7895 18.1986 17.3739 17.7231 17.8394ZM10.4581 12.0749C10.8048 12.0749 11.087 11.961 11.3049 11.7332C11.5228 11.4955 11.6318 11.1835 11.6318 10.7972C11.6318 10.3911 11.5228 10.0692 11.3049 9.83154C11.087 9.59382 10.8048 9.47497 10.4581 9.47497C10.1114 9.47497 9.82915 9.59382 9.61124 9.83154C9.39334 10.0692 9.28439 10.3911 9.28439 10.7972C9.28439 11.1736 9.39334 11.4807 9.61124 11.7184C9.83905 11.9561 10.1213 12.0749 10.4581 12.0749ZM15.0637 17.0372C15.2816 17.265 15.5639 17.3789 15.9106 17.3789C16.2572 17.3789 16.5395 17.265 16.7574 17.0372C16.9852 16.7994 17.0991 16.4825 17.0991 16.0863C17.0991 15.6802 16.9852 15.3583 16.7574 15.1206C16.5395 14.8829 16.2572 14.764 15.9106 14.764C15.5639 14.764 15.2816 14.8829 15.0637 15.1206C14.8458 15.3583 14.7369 15.6802 14.7369 16.0863C14.7369 16.4825 14.8458 16.7994 15.0637 17.0372Z" fill="white"/>
</svg>
