<svg width="27" height="27" viewBox="0 0 27 27" fill="none" xmlns="http://www.w3.org/2000/svg">
<path d="M21.9375 13.5C21.006 13.5 20.25 14.256 20.25 15.1875C20.25 16.119 21.006 16.875 21.9375 16.875H27V13.5H21.9375Z" fill="#D93F87"/>
<path d="M21.9375 11.8125H25.3125V7.59375C25.3125 7.128 24.9345 6.75 24.4688 6.75H21.9375V4.21875C21.9375 3.753 21.5595 3.375 21.0938 3.375H2.53125C1.13569 3.375 0 4.51069 0 5.90625V21.0938C0 22.4893 1.13569 23.625 2.53125 23.625H24.4688C24.9345 23.625 25.3125 23.247 25.3125 22.7812V18.5625H21.9375C20.0762 18.5625 18.5625 17.0488 18.5625 15.1875C18.5625 13.3262 20.0762 11.8125 21.9375 11.8125ZM2.53125 6.75C2.0655 6.75 1.6875 6.372 1.6875 5.90625C1.6875 5.4405 2.0655 5.0625 2.53125 5.0625H20.25V6.75H2.53125Z" fill="#D93F87"/>
</svg>
