<svg width="27" height="27" viewBox="0 0 27 27" fill="none" xmlns="http://www.w3.org/2000/svg">
<path d="M17.628 10.9252C17.628 10.281 17.101 9.69531 16.4567 9.69531H1.22986C0.585649 9.69531 0 10.2224 0 10.9252V12.5064C0 13.1506 0.527084 13.7363 1.22986 13.7363H1.81551L3.10394 23.868C3.16251 24.4537 3.68959 24.9222 4.27524 24.9222H13.3528C13.9384 24.9222 14.4656 24.4537 14.5241 23.868L15.8125 13.7363H16.3982C17.0424 13.7363 17.5695 13.2092 17.5695 12.5064L17.628 10.9252Z" fill="#D93F87"/>
<path d="M6.44308 4.60192C6.56021 4.36766 6.79447 4.25053 7.02873 4.25053C7.26299 4.25053 7.49725 4.36766 7.61438 4.54336L8.72712 6.12461C9.42989 7.06165 10.6012 7.53017 11.7725 7.23734L12.241 7.12021C12.5924 7.06165 12.9438 7.23734 13.0609 7.53017L13.3537 8.23295H15.6963L15.1692 6.76882C14.6421 5.42183 13.178 4.66049 11.7724 5.01188L11.3039 5.12901C11.0111 5.18757 10.7183 5.07044 10.5426 4.83618L9.42985 3.25493C8.8442 2.43502 7.90716 2.02506 6.97012 2.08363C5.97452 2.14219 5.09604 2.66928 4.62752 3.48919L1.81641 8.23295H4.33474L6.44308 4.60192Z" fill="#D93F87"/>
<path d="M23.1923 13.6193V3.25333C23.1923 2.60912 22.6652 2.08203 22.021 2.08203C21.3767 2.08203 20.8497 2.60912 20.8497 3.25333V13.6193C18.6241 14.1464 16.9844 16.1376 16.9844 18.4802V23.9267C16.9844 24.5124 17.4528 24.9224 17.98 24.9224H25.9448C26.5304 24.9224 26.999 24.4538 26.999 23.9267V18.4802C27.0576 16.1376 25.4177 14.1464 23.1923 13.6193Z" fill="#D93F87"/>
</svg>
