<svg width="27" height="27" viewBox="0 0 27 27" fill="none" xmlns="http://www.w3.org/2000/svg">
<path d="M13.5 1.17188C6.04448 1.17188 0 4.32503 0 8.21536C0 12.1057 6.04448 15.2588 13.5 15.2588C20.9556 15.2588 27 12.1057 27 8.21536C27 4.32498 20.9555 1.17188 13.5 1.17188ZM13.5 10.5632C10.5829 10.5632 8.2174 9.51257 8.2174 8.21536C8.2174 6.91814 10.5829 5.86751 13.5 5.86751C16.4172 5.86751 18.7827 6.91814 18.7827 8.21536C18.7827 9.51257 16.4172 10.5632 13.5 10.5632Z" fill="#D93F87"/>
<path d="M23.4783 22.297C23.4783 21.4165 22.3044 21.4165 22.3044 20.535C22.3044 19.6568 23.4783 19.6568 23.4783 18.7787C23.4783 17.8982 22.3044 17.8982 22.3044 17.019C22.3044 16.3029 23.0745 16.1644 23.3633 15.6643C20.6914 16.8887 17.2964 17.6083 13.5 17.6083C7.64687 17.6083 2.73993 15.9073 0 13.2578V18.7823C0 22.5693 5.73224 25.6485 12.9131 25.8105V25.8258H23.4783C23.4783 24.9441 22.3045 24.9441 22.3045 24.0614C22.3044 23.1785 23.4783 23.1798 23.4783 22.297Z" fill="#D93F87"/>
<path d="M25.6424 14.3518C25.7598 14.6312 25.8255 14.9376 25.8255 15.2605C25.8255 16.0047 25.5896 16.5811 25.2949 17.0189C25.5896 17.4568 25.8255 18.0343 25.8255 18.7786C25.8255 19.5229 25.5896 20.1004 25.2949 20.5383C25.5074 20.8529 25.6847 21.2427 25.7704 21.7111C26.5569 20.8201 26.9995 19.8293 26.9995 18.7822V13.2578C26.598 13.6464 26.1331 14.0067 25.6424 14.3518Z" fill="#D93F87"/>
</svg>
