<svg width="33" height="33" viewBox="0 0 33 33" fill="none" xmlns="http://www.w3.org/2000/svg">
<circle cx="16.5" cy="16.5" r="16.5" fill="#D93F87"/>
<g clip-path="url(#clip0)">
<path d="M21.5382 17.5131C21.3115 17.2268 21.3763 17.0994 21.5382 16.8434C21.5411 16.8405 23.4129 14.2541 23.6057 13.3769L23.6069 13.3763C23.7027 13.0567 23.6069 12.8218 23.1435 12.8218H21.6101C21.2197 12.8218 21.0397 13.0234 20.9433 13.249C20.9433 13.249 20.1626 15.1178 19.0581 16.3292C18.7017 16.6792 18.5369 16.7914 18.3423 16.7914C18.2464 16.7914 18.0974 16.6792 18.0974 16.3596V13.3763C18.0974 12.993 17.9881 12.8218 17.665 12.8218H15.2538C15.009 12.8218 14.8635 13.0006 14.8635 13.1671C14.8635 13.5306 15.4157 13.6142 15.473 14.6368V16.8557C15.473 17.3419 15.3847 17.4313 15.189 17.4313C14.6677 17.4313 13.4025 15.5549 12.6528 13.4073C12.5014 12.9907 12.3536 12.8224 11.9603 12.8224H10.4263C9.98863 12.8224 9.90039 13.024 9.90039 13.2495C9.90039 13.6481 10.4217 15.6297 12.3244 18.2477C13.5925 20.0347 15.3783 21.003 17.0029 21.003C17.9794 21.003 18.0986 20.788 18.0986 20.4181C18.0986 18.7105 18.0103 18.5492 18.4995 18.5492C18.7262 18.5492 19.1166 18.6614 20.0282 19.5234C21.0701 20.5455 21.2414 21.003 21.8246 21.003H23.358C23.7951 21.003 24.0166 20.788 23.8892 20.3637C23.5976 19.4714 21.627 17.6359 21.5382 17.5131Z" fill="white"/>
</g>
<defs>
<clipPath id="clip0">
<rect width="14.025" height="14.025" fill="white" transform="translate(9.90039 9.8999)"/>
</clipPath>
</defs>
</svg>
