<svg width="142" height="51" viewBox="0 0 142 51" fill="none" xmlns="http://www.w3.org/2000/svg">
<path d="M132.108 49.7374H10.2731C5.33765 49.7374 1.28857 45.6883 1.28857 40.7529V10.0725C1.28857 5.13698 5.33765 1.08789 10.2731 1.08789H132.108C137.044 1.08789 141.093 5.13698 141.093 10.0725V40.7529C141.093 45.6883 137.044 49.7374 132.108 49.7374Z" fill="#37AFAE"/>
<path d="M134.365 50.8251H7.63484C3.4246 50.8251 0 47.4005 0 43.1902V7.63484C0 3.4246 3.4246 0 7.63484 0H134.365C138.575 0 142 3.4246 142 7.63484V43.1902C142 47.4005 138.575 50.8251 134.365 50.8251ZM7.63484 2.19577C4.63328 2.19577 2.19577 4.63328 2.19577 7.63484V43.1902C2.19577 46.1918 4.63328 48.6293 7.63484 48.6293H134.365C137.367 48.6293 139.804 46.1918 139.804 43.1902V7.63484C139.804 4.63328 137.367 2.19577 134.365 2.19577H7.63484Z" fill="white"/>
<path d="M27.5397 26.4488C27.5104 23.1641 30.2097 21.5661 30.3332 21.4917C28.8044 19.2465 26.435 18.9398 25.6023 18.9153C23.6122 18.7043 21.6818 20.1148 20.668 20.1148C19.634 20.1148 18.0728 18.9357 16.3903 18.9703C14.2251 19.004 12.1997 20.2667 11.0887 22.2275C8.79616 26.2256 10.5059 32.101 12.7025 35.3327C13.8012 36.9165 15.0852 38.6827 16.7656 38.6205C18.4097 38.5532 19.0239 37.5657 21.0079 37.5657C22.9737 37.5657 23.5505 38.6205 25.2643 38.5807C27.0289 38.5532 28.1397 36.9909 29.2001 35.3939C30.4698 33.5808 30.9797 31.7932 31 31.7015C30.9594 31.6872 27.5741 30.3848 27.5397 26.4488ZM24.3021 16.7894C25.1863 15.6754 25.7914 14.16 25.6235 12.6221C24.3435 12.6792 22.743 13.5138 21.8212 14.6033C21.0057 15.5633 20.2773 17.1369 20.4655 18.6167C21.9032 18.7247 23.3794 17.886 24.3021 16.7894Z" fill="white"/>
<path d="M48.9645 38.1485H46.3439L44.9084 33.6544H39.9187L38.5513 38.1485H36L40.9446 22.8484H43.9979L48.9645 38.1485ZM44.4758 31.7689L43.1776 27.7737C43.0403 27.3655 42.7818 26.4044 42.4032 24.8914H42.3571C42.2048 25.5421 41.9613 26.5033 41.6278 27.7737L40.3516 31.7689H44.4758ZM61.6556 32.4966C61.6556 34.3729 61.1444 35.856 60.1207 36.9449C59.2046 37.914 58.0657 38.3981 56.7074 38.3981C55.2407 38.3981 54.186 37.8772 53.5456 36.8334V42.6221H51.0854V30.7422C51.0854 29.5637 51.0544 28.3554 50.9943 27.116H53.158L53.2953 28.8647H53.3414C54.1618 27.5472 55.4069 26.8883 57.0778 26.8883C58.3841 26.8883 59.4745 27.4022 60.3469 28.4312C61.2181 29.4626 61.6556 30.8169 61.6556 32.4966ZM59.1491 32.5863C59.1491 31.5125 58.9068 30.6272 58.4198 29.9294C57.8879 29.2039 57.1736 28.8407 56.2781 28.8407C55.6712 28.8407 55.1196 29.0429 54.6268 29.4419C54.133 29.8443 53.8099 30.3697 53.6588 31.0204C53.5826 31.3239 53.5445 31.5711 53.5445 31.7667V33.6072C53.5445 34.4086 53.7915 35.0858 54.2854 35.64C54.7793 36.1918 55.4208 36.4688 56.2101 36.4688C57.1368 36.4688 57.8581 36.1114 58.3738 35.4019C58.8906 34.6902 59.1491 33.7521 59.1491 32.5863ZM74.3915 32.4966C74.3915 34.3729 73.8803 35.856 72.8567 36.9449C71.9394 37.914 70.8016 38.3981 69.4422 38.3981C67.9756 38.3981 66.9209 37.8772 66.2805 36.8334V42.6221H63.8203V30.7422C63.8203 29.5637 63.7891 28.3554 63.7291 27.116H65.8927L66.03 28.8647H66.0762C66.8955 27.5472 68.1406 26.8883 69.8126 26.8883C71.1177 26.8883 72.2081 27.4022 73.0829 28.4312C73.9531 29.4626 74.3915 30.8169 74.3915 32.4966ZM71.884 32.5863C71.884 31.5125 71.6406 30.6272 71.1535 29.9294C70.6216 29.2039 69.9096 28.8407 69.0141 28.8407C68.4072 28.8407 67.8556 29.0429 67.3605 29.4419C66.8667 29.8443 66.5448 30.3697 66.3935 31.0204C66.3185 31.3239 66.2781 31.5711 66.2781 31.7667V33.6072C66.2781 34.4086 66.5262 35.0858 67.0178 35.64C67.5117 36.1907 68.1533 36.4688 68.9449 36.4688C69.8726 36.4688 70.5938 36.1114 71.1085 35.4019C71.6255 34.6902 71.884 33.7521 71.884 32.5863ZM88.631 33.8567C88.631 35.1593 88.1741 36.2182 87.266 37.0356C86.2666 37.9278 84.8716 38.375 83.0829 38.375C81.4305 38.375 80.1058 38.0577 79.1065 37.4219L79.6754 35.3789C80.7543 36.0158 81.9394 36.3332 83.2295 36.3332C84.1572 36.3332 84.8784 36.1239 85.3931 35.7089C85.9088 35.2927 86.1697 34.7362 86.1697 34.0418C86.1697 33.4199 85.9539 32.899 85.5304 32.4749C85.1046 32.0518 84.4007 31.6574 83.4119 31.2953C80.7231 30.2962 79.3776 28.8349 79.3776 26.9126C79.3776 25.6572 79.8531 24.6294 80.8017 23.8257C81.7502 23.0232 83.008 22.6221 84.5728 22.6221C85.9702 22.6221 87.1345 22.8647 88.0588 23.3487L87.4414 25.3468C86.5714 24.8777 85.5893 24.6432 84.4907 24.6432C83.6231 24.6432 82.9421 24.8558 82.4552 25.2789C82.0455 25.6572 81.8378 26.1183 81.8378 26.6655C81.8378 27.2691 82.0745 27.7704 82.5452 28.1636C82.9537 28.5257 83.6991 28.9201 84.7769 29.3432C86.0993 29.8744 87.0708 30.4929 87.6929 31.2034C88.3195 31.9137 88.631 32.8001 88.631 33.8567ZM96.786 28.9556H94.0742V34.312C94.0742 35.6744 94.552 36.3538 95.5098 36.3538C95.9493 36.3538 96.314 36.317 96.6025 36.24L96.6705 38.1014C96.186 38.282 95.5477 38.3727 94.7573 38.3727C93.7857 38.3727 93.0264 38.0772 92.4783 37.4863C91.9325 36.8954 91.6579 35.9055 91.6579 34.512V28.951H90.0423V27.1114H91.6579V25.0914L94.0742 24.3648V27.1114H96.786V28.9556ZM108.997 32.5415C108.997 34.2372 108.51 35.6294 107.538 36.7183C106.522 37.8393 105.169 38.398 103.483 38.398C101.856 38.398 100.563 37.8611 99.5981 36.7884C98.6334 35.7134 98.151 34.3591 98.151 32.7254C98.151 31.0157 98.6495 29.6155 99.6431 28.5267C100.639 27.4368 101.98 26.892 103.666 26.892C105.29 26.892 106.596 27.4299 107.583 28.5037C108.527 29.5454 108.997 30.8905 108.997 32.5415ZM106.447 32.5978C106.447 31.5871 106.228 30.7202 105.788 29.9948C105.272 29.1187 104.533 28.6808 103.577 28.6808C102.591 28.6808 101.836 29.1187 101.321 29.9948C100.88 30.7202 100.661 31.6021 100.661 32.6437C100.661 33.6555 100.88 34.5246 101.321 35.2478C101.853 36.1239 102.595 36.5619 103.556 36.5619C104.497 36.5619 105.234 36.1147 105.767 35.226C106.219 34.4833 106.447 33.6107 106.447 32.5978ZM116.997 29.2717C116.754 29.2268 116.493 29.2038 116.222 29.2038C115.356 29.2038 114.687 29.5281 114.216 30.181C113.808 30.7559 113.602 31.4825 113.602 32.3597V38.1484H111.142V30.5904C111.142 29.32 111.118 28.1611 111.071 27.1172H113.214L113.304 29.2279H113.372C113.632 28.5026 114.041 27.9173 114.602 27.4793C115.15 27.085 115.742 26.8883 116.38 26.8883C116.607 26.8883 116.813 26.9044 116.995 26.9332L116.997 29.2717ZM128 32.1103C128 32.5495 127.971 32.9196 127.91 33.2221H120.529C120.557 34.312 120.915 35.1467 121.6 35.7215C122.222 36.2344 123.026 36.4918 124.014 36.4918C125.107 36.4918 126.104 36.3194 127.001 35.971L127.386 37.6714C126.338 38.1267 125.101 38.3532 123.674 38.3532C121.957 38.3532 120.609 37.8495 119.628 36.8448C118.65 35.8388 118.159 34.4867 118.159 32.7932C118.159 31.1307 118.615 29.7454 119.528 28.6405C120.483 27.461 121.774 26.8711 123.399 26.8711C124.995 26.8711 126.203 27.4609 127.024 28.6405C127.673 29.5752 128 30.7341 128 32.1103ZM125.654 31.4745C125.671 30.7468 125.51 30.1202 125.176 29.5902C124.75 28.9073 124.095 28.567 123.217 28.567C122.413 28.567 121.757 28.8992 121.259 29.566C120.849 30.0961 120.605 30.733 120.531 31.4722L125.654 31.4745Z" fill="white"/>
<path d="M42.2496 18.4996H40.9856L40.2942 16.3001H37.8897L37.23 18.4996H36L38.383 11.0102H39.854L42.2496 18.4996ZM40.086 15.3772L39.4603 13.4216C39.3946 13.2212 39.2736 12.7552 39.0869 12.0109H39.0642C38.9873 12.3327 38.8775 12.7998 38.7123 13.4216L38.0979 15.3772H40.086ZM48.2083 13.0998L46.1873 18.4996H45.0342L43.079 13.0998H44.3531L45.2651 15.9554C45.419 16.4329 45.5503 16.8886 45.6487 17.3214H45.6815C45.7699 16.9332 45.901 16.4775 46.0651 15.9554L46.9658 13.0998H48.2083ZM52.5104 18.4996L52.4221 17.8777H52.3892C52.0271 18.3781 51.4998 18.622 50.83 18.622C49.8749 18.622 49.1937 17.9442 49.1937 17.0327C49.1937 15.7 50.3355 15.0107 52.3123 15.0107V14.9111C52.3123 14.2001 51.9389 13.844 51.2034 13.844C50.676 13.844 50.2144 13.9779 49.8093 14.2447L49.5682 13.4558C50.0627 13.1444 50.6772 12.9887 51.4024 12.9887C52.7965 12.9887 53.5003 13.7329 53.5003 15.2225V17.2114C53.5003 17.7564 53.5229 18.1789 53.5773 18.5006L52.5104 18.4996ZM52.3452 15.81C51.027 15.81 50.3684 16.1329 50.3684 16.8989C50.3684 17.4656 50.709 17.7427 51.1808 17.7427C51.785 17.7427 52.3452 17.2767 52.3452 16.6436V15.81ZM56.1415 12.2102C55.7466 12.2102 55.4388 11.8987 55.4388 11.4877C55.4388 11.0766 55.7569 10.7767 56.1642 10.7767C56.5704 10.7767 56.8997 11.0766 56.8884 11.4877C56.8884 11.9216 56.5818 12.2102 56.1415 12.2102ZM56.7571 18.4996H55.5712V13.0998H56.7571V18.4996ZM60.0499 18.4996H58.864V10.6221H60.0499V18.4996ZM65.0898 18.4996L65.0014 17.8777H64.9687C64.6066 18.3781 64.0793 18.622 63.4094 18.622C62.4544 18.622 61.7732 17.9442 61.7732 17.0327C61.7732 15.7 62.9149 15.0107 64.8917 15.0107V14.9111C64.8917 14.2001 64.5183 13.844 63.7828 13.844C63.2555 13.844 62.7938 13.9779 62.3887 14.2447L62.1466 13.4547C62.6411 13.1432 63.2556 12.9875 63.9809 12.9875C65.3749 12.9875 66.0787 13.7318 66.0787 15.2214V17.2102C66.0787 17.7552 66.1025 18.1777 66.1546 18.4995H65.0898V18.4996ZM64.9246 15.81C63.6063 15.81 62.9478 16.1329 62.9478 16.8989C62.9478 17.4656 63.2883 17.7427 63.7601 17.7427C64.3644 17.7427 64.9246 17.2767 64.9246 16.6436V15.81ZM70.8834 18.6221C70.1264 18.6221 69.5673 18.2992 69.2052 17.666H69.1815L69.1136 18.4996H68.1031C68.1359 18.0668 68.1472 17.5767 68.1472 17.0443V10.6221H69.3342V13.8899H69.3569C69.7087 13.2899 70.278 12.9899 71.0587 12.9899C72.3441 12.9899 73.2449 14.1017 73.2449 15.723C73.2449 17.3992 72.2446 18.6221 70.8834 18.6221ZM70.6423 13.9322C69.96 13.9322 69.3354 14.5322 69.3354 15.3657V16.3104C69.3354 17.0546 69.8966 17.666 70.622 17.666C71.5103 17.666 72.0387 16.9332 72.0387 15.7665C72.0375 14.6776 71.4876 13.9322 70.6423 13.9322ZM76.1835 18.4996H74.9988V10.6221H76.1835V18.4996ZM82.639 16.0882H79.0792C79.103 17.1107 79.7705 17.6878 80.7594 17.6878C81.2867 17.6878 81.7699 17.5985 82.1976 17.4324L82.3821 18.266C81.8774 18.4881 81.2845 18.5992 80.5931 18.5992C78.9229 18.5992 77.9351 17.5321 77.9351 15.8776C77.9351 14.2219 78.9468 12.9773 80.4596 12.9773C81.8209 12.9773 82.6785 13.9998 82.6785 15.5444C82.6831 15.755 82.6729 15.944 82.639 16.0882ZM81.5515 15.2329C81.5515 14.3994 81.1339 13.8109 80.3759 13.8109C79.6946 13.8109 79.1583 14.4108 79.0791 15.2329H81.5515ZM89.8265 18.6221C88.2673 18.6221 87.2568 17.4439 87.2568 15.8444C87.2568 14.1773 88.2888 12.9888 89.9159 12.9888C91.4513 12.9888 92.4857 14.1108 92.4857 15.7562C92.4857 17.4439 91.4197 18.6221 89.8265 18.6221ZM89.8718 13.8658C89.0152 13.8658 88.4665 14.6765 88.4665 15.81C88.4665 16.9218 89.0266 17.7324 89.8606 17.7324C90.6945 17.7324 91.2534 16.8657 91.2534 15.7871C91.2545 14.6879 90.7057 13.8658 89.8718 13.8658ZM98.8608 18.4996H97.6762V15.399C97.6762 14.444 97.314 13.9654 96.6001 13.9654C95.8974 13.9654 95.4131 14.5769 95.4131 15.2879V18.4996H94.2283V14.6433C94.2283 14.1658 94.2159 13.654 94.1842 13.0987H95.2275L95.2829 13.9322H95.3158C95.6325 13.3552 96.2821 12.9876 97.0063 12.9876C98.1254 12.9876 98.8609 13.8544 98.8609 15.265V18.4996H98.8608ZM106.62 13.9998H105.315V16.6218C105.315 17.2893 105.545 17.6225 106.005 17.6225C106.215 17.6225 106.391 17.5996 106.533 17.5664L106.566 18.4778C106.335 18.5672 106.026 18.6118 105.644 18.6118C104.71 18.6118 104.152 18.0897 104.152 16.7226V13.9998H103.373V13.0998H104.152V12.1106L105.315 11.7545V13.0987H106.62V13.9998ZM112.9 18.4996H111.713V15.4219C111.713 14.4555 111.351 13.9666 110.637 13.9666C110.022 13.9666 109.452 14.3891 109.452 15.2444V18.4996H108.265V10.6221H109.452V13.8658H109.475C109.848 13.2773 110.387 12.9876 111.078 12.9876C112.209 12.9876 112.9 13.8761 112.9 15.2879V18.4996ZM118.959 16.0882H115.401C115.423 17.1107 116.091 17.6878 117.08 17.6878C117.608 17.6878 118.09 17.5985 118.518 17.4324L118.704 18.266C118.199 18.4881 117.605 18.5992 116.914 18.5992C115.244 18.5992 114.256 17.5321 114.256 15.8776C114.256 14.2219 115.267 12.9773 116.78 12.9773C118.141 12.9773 118.999 13.9998 118.999 15.5444C119.003 15.755 118.992 15.944 118.959 16.0882ZM117.872 15.2329C117.872 14.3994 117.455 13.8109 116.697 13.8109C116.015 13.8109 115.479 14.4108 115.401 15.2329H117.872Z" fill="white"/>
</svg>
