<svg width="142" height="51" viewBox="0 0 142 51" fill="none" xmlns="http://www.w3.org/2000/svg">
<path d="M132.108 49.7376H10.2732C5.33778 49.7376 1.2887 45.6885 1.2887 40.7531V10.0727C1.2887 5.13722 5.33778 1.08813 10.2732 1.08813H132.108C137.044 1.08813 141.093 5.13722 141.093 10.0727V40.7531C141.093 45.6885 137.044 49.7376 132.108 49.7376Z" fill="#37AFAE"/>
<path opacity="0.18" d="M134.545 1.08813H9.10425C23.8905 12.1476 37.3068 24.9193 48.7893 39.8264C51.2873 43.0697 53.624 46.3734 55.8601 49.7376H134.545C138.151 49.7376 141.092 46.7965 141.092 43.1906V7.63516C141.092 4.02926 138.151 1.08813 134.545 1.08813Z" fill="white"/>
<path d="M134.365 50.8251H7.63484C3.4246 50.8251 0 47.4005 0 43.1902V7.63484C0 3.4246 3.4246 0 7.63484 0H134.365C138.575 0 142 3.4246 142 7.63484V43.1902C142 47.4005 138.575 50.8251 134.365 50.8251ZM7.63484 2.19577C4.63328 2.19577 2.19577 4.63328 2.19577 7.63484V43.1902C2.19577 46.1918 4.63328 48.6293 7.63484 48.6293H134.365C137.367 48.6293 139.804 46.1918 139.804 43.1902V7.63484C139.804 4.63328 137.367 2.19577 134.365 2.19577H7.63484Z" fill="white"/>
<path d="M27.5397 26.4483C27.5104 23.1636 30.2097 21.5656 30.3332 21.4912C28.8044 19.246 26.435 18.9393 25.6023 18.9148C23.6122 18.7038 21.6818 20.1143 20.668 20.1143C19.634 20.1143 18.0728 18.9352 16.3903 18.9698C14.2251 19.0035 12.1997 20.2662 11.0887 22.227C8.79615 26.2251 10.5059 32.1005 12.7025 35.3322C13.8012 36.916 15.0852 38.6822 16.7656 38.62C18.4097 38.5527 19.0239 37.5652 21.0079 37.5652C22.9737 37.5652 23.5505 38.62 25.2643 38.5802C27.0289 38.5527 28.1397 36.9904 29.2001 35.3934C30.4698 33.5803 30.9797 31.7927 31 31.701C30.9594 31.6867 27.5741 30.3843 27.5397 26.4483ZM24.3021 16.7889C25.1863 15.6749 25.7914 14.1595 25.6235 12.6216C24.3435 12.6787 22.743 13.5133 21.8212 14.6028C21.0057 15.5628 20.2773 17.1364 20.4655 18.6162C21.9032 18.7242 23.3794 17.8855 24.3021 16.7889Z" fill="white"/>
<path d="M48.9645 38.148H46.3439L44.9084 33.6539H39.9187L38.5513 38.148H36L40.9446 22.8479H43.9979L48.9645 38.148ZM44.4758 31.7684L43.1776 27.7732C43.0403 27.365 42.7818 26.4039 42.4032 24.8909H42.3571C42.2048 25.5416 41.9613 26.5028 41.6278 27.7732L40.3516 31.7684H44.4758ZM61.6556 32.4961C61.6556 34.3724 61.1444 35.8555 60.1207 36.9444C59.2046 37.9135 58.0657 38.3976 56.7074 38.3976C55.2407 38.3976 54.186 37.8767 53.5456 36.8329V42.6216H51.0854V30.7417C51.0854 29.5632 51.0544 28.3549 50.9943 27.1155H53.158L53.2953 28.8642H53.3414C54.1618 27.5467 55.4069 26.8878 57.0778 26.8878C58.3841 26.8878 59.4745 27.4017 60.3469 28.4307C61.2181 29.4621 61.6556 30.8164 61.6556 32.4961ZM59.1491 32.5858C59.1491 31.512 58.9068 30.6267 58.4198 29.9289C57.8879 29.2034 57.1736 28.8402 56.2781 28.8402C55.6712 28.8402 55.1196 29.0424 54.6268 29.4414C54.133 29.8438 53.8099 30.3692 53.6588 31.0199C53.5826 31.3234 53.5445 31.5706 53.5445 31.7662V33.6067C53.5445 34.4081 53.7915 35.0853 54.2854 35.6395C54.7793 36.1913 55.4208 36.4683 56.2101 36.4683C57.1368 36.4683 57.8581 36.1109 58.3738 35.4014C58.8906 34.6897 59.1491 33.7516 59.1491 32.5858ZM74.3915 32.4961C74.3915 34.3724 73.8803 35.8555 72.8567 36.9444C71.9394 37.9135 70.8016 38.3976 69.4422 38.3976C67.9756 38.3976 66.9209 37.8767 66.2805 36.8329V42.6216H63.8203V30.7417C63.8203 29.5632 63.7891 28.3549 63.7291 27.1155H65.8927L66.03 28.8642H66.0762C66.8955 27.5467 68.1406 26.8878 69.8126 26.8878C71.1177 26.8878 72.2081 27.4017 73.0829 28.4307C73.9531 29.4621 74.3915 30.8164 74.3915 32.4961ZM71.884 32.5858C71.884 31.512 71.6406 30.6267 71.1535 29.9289C70.6216 29.2034 69.9096 28.8402 69.0141 28.8402C68.4072 28.8402 67.8556 29.0424 67.3605 29.4414C66.8667 29.8438 66.5448 30.3692 66.3935 31.0199C66.3185 31.3234 66.2781 31.5706 66.2781 31.7662V33.6067C66.2781 34.4081 66.5262 35.0853 67.0178 35.6395C67.5117 36.1902 68.1533 36.4683 68.9449 36.4683C69.8726 36.4683 70.5938 36.1109 71.1085 35.4014C71.6255 34.6897 71.884 33.7516 71.884 32.5858ZM88.631 33.8562C88.631 35.1588 88.1741 36.2177 87.266 37.0351C86.2666 37.9273 84.8716 38.3745 83.0829 38.3745C81.4305 38.3745 80.1058 38.0572 79.1065 37.4214L79.6754 35.3784C80.7543 36.0153 81.9394 36.3327 83.2295 36.3327C84.1572 36.3327 84.8784 36.1234 85.3931 35.7084C85.9088 35.2922 86.1697 34.7357 86.1697 34.0413C86.1697 33.4194 85.9539 32.8985 85.5304 32.4744C85.1046 32.0513 84.4007 31.6569 83.4119 31.2948C80.7231 30.2957 79.3776 28.8344 79.3776 26.9121C79.3776 25.6567 79.8531 24.6289 80.8017 23.8252C81.7502 23.0227 83.008 22.6216 84.5728 22.6216C85.9702 22.6216 87.1345 22.8642 88.0588 23.3482L87.4414 25.3463C86.5714 24.8772 85.5893 24.6427 84.4907 24.6427C83.6231 24.6427 82.9421 24.8553 82.4552 25.2784C82.0455 25.6567 81.8378 26.1178 81.8378 26.665C81.8378 27.2686 82.0745 27.7699 82.5452 28.1631C82.9537 28.5252 83.6991 28.9196 84.7769 29.3427C86.0993 29.8739 87.0708 30.4924 87.6929 31.2029C88.3195 31.9132 88.631 32.7996 88.631 33.8562ZM96.786 28.9551H94.0742V34.3115C94.0742 35.6739 94.552 36.3533 95.5098 36.3533C95.9493 36.3533 96.314 36.3165 96.6025 36.2395L96.6705 38.1009C96.186 38.2815 95.5477 38.3722 94.7573 38.3722C93.7857 38.3722 93.0264 38.0767 92.4783 37.4858C91.9325 36.8949 91.6579 35.905 91.6579 34.5115V28.9505H90.0423V27.1109H91.6579V25.0909L94.0742 24.3643V27.1109H96.786V28.9551ZM108.997 32.541C108.997 34.2367 108.51 35.6289 107.538 36.7178C106.522 37.8388 105.169 38.3975 103.483 38.3975C101.856 38.3975 100.563 37.8606 99.5981 36.7879C98.6334 35.7129 98.151 34.3586 98.151 32.7249C98.151 31.0152 98.6495 29.615 99.6431 28.5262C100.639 27.4363 101.98 26.8915 103.666 26.8915C105.29 26.8915 106.596 27.4294 107.583 28.5032C108.527 29.5449 108.997 30.89 108.997 32.541ZM106.447 32.5973C106.447 31.5866 106.228 30.7197 105.788 29.9943C105.272 29.1182 104.533 28.6803 103.577 28.6803C102.591 28.6803 101.836 29.1182 101.321 29.9943C100.88 30.7197 100.661 31.6016 100.661 32.6432C100.661 33.655 100.88 34.5241 101.321 35.2473C101.853 36.1234 102.595 36.5614 103.556 36.5614C104.497 36.5614 105.234 36.1142 105.767 35.2255C106.219 34.4828 106.447 33.6102 106.447 32.5973ZM116.997 29.2712C116.754 29.2263 116.493 29.2033 116.222 29.2033C115.356 29.2033 114.687 29.5276 114.216 30.1805C113.808 30.7554 113.602 31.482 113.602 32.3592V38.1479H111.142V30.5899C111.142 29.3195 111.118 28.1606 111.071 27.1167H113.214L113.304 29.2274H113.372C113.632 28.5021 114.041 27.9168 114.602 27.4788C115.15 27.0845 115.742 26.8878 116.38 26.8878C116.607 26.8878 116.813 26.9039 116.995 26.9327L116.997 29.2712ZM128 32.1098C128 32.549 127.971 32.9191 127.91 33.2216H120.529C120.557 34.3115 120.915 35.1462 121.6 35.721C122.222 36.2339 123.026 36.4913 124.014 36.4913C125.107 36.4913 126.104 36.3189 127.001 35.9705L127.386 37.6709C126.338 38.1262 125.101 38.3527 123.674 38.3527C121.957 38.3527 120.609 37.849 119.628 36.8443C118.65 35.8383 118.159 34.4862 118.159 32.7927C118.159 31.1302 118.615 29.7449 119.528 28.64C120.483 27.4605 121.774 26.8706 123.399 26.8706C124.995 26.8706 126.203 27.4604 127.024 28.64C127.673 29.5747 128 30.7336 128 32.1098ZM125.654 31.474C125.671 30.7463 125.51 30.1197 125.176 29.5897C124.75 28.9068 124.095 28.5665 123.217 28.5665C122.413 28.5665 121.757 28.8987 121.259 29.5655C120.849 30.0956 120.605 30.7325 120.531 31.4717L125.654 31.474Z" fill="white"/>
<path d="M42.2496 18.4991H40.9856L40.2942 16.2996H37.8897L37.23 18.4991H36L38.383 11.0097H39.854L42.2496 18.4991ZM40.086 15.3767L39.4603 13.4211C39.3946 13.2207 39.2736 12.7547 39.0869 12.0104H39.0642C38.9873 12.3322 38.8775 12.7993 38.7123 13.4211L38.0979 15.3767H40.086ZM48.2083 13.0993L46.1873 18.4991H45.0342L43.079 13.0993H44.3531L45.2651 15.9549C45.419 16.4324 45.5503 16.8881 45.6487 17.3209H45.6815C45.7699 16.9327 45.901 16.477 46.0651 15.9549L46.9658 13.0993H48.2083ZM52.5104 18.4991L52.4221 17.8772H52.3892C52.0271 18.3776 51.4998 18.6215 50.83 18.6215C49.8749 18.6215 49.1937 17.9437 49.1937 17.0322C49.1937 15.6995 50.3355 15.0102 52.3123 15.0102V14.9106C52.3123 14.1996 51.9389 13.8435 51.2034 13.8435C50.676 13.8435 50.2144 13.9774 49.8093 14.2442L49.5682 13.4553C50.0627 13.1439 50.6772 12.9882 51.4024 12.9882C52.7965 12.9882 53.5003 13.7324 53.5003 15.222V17.2109C53.5003 17.7559 53.5229 18.1784 53.5773 18.5001L52.5104 18.4991ZM52.3452 15.8095C51.027 15.8095 50.3684 16.1324 50.3684 16.8984C50.3684 17.4651 50.709 17.7422 51.1808 17.7422C51.785 17.7422 52.3452 17.2762 52.3452 16.6431V15.8095ZM56.1415 12.2097C55.7466 12.2097 55.4388 11.8982 55.4388 11.4872C55.4388 11.0761 55.7569 10.7762 56.1642 10.7762C56.5704 10.7762 56.8997 11.0761 56.8884 11.4872C56.8884 11.9211 56.5818 12.2097 56.1415 12.2097ZM56.7571 18.4991H55.5712V13.0993H56.7571V18.4991ZM60.0499 18.4991H58.864V10.6216H60.0499V18.4991ZM65.0898 18.4991L65.0014 17.8772H64.9687C64.6066 18.3776 64.0793 18.6215 63.4094 18.6215C62.4544 18.6215 61.7732 17.9437 61.7732 17.0322C61.7732 15.6995 62.9149 15.0102 64.8917 15.0102V14.9106C64.8917 14.1996 64.5183 13.8435 63.7828 13.8435C63.2555 13.8435 62.7938 13.9774 62.3887 14.2442L62.1466 13.4542C62.6411 13.1427 63.2556 12.987 63.9809 12.987C65.3749 12.987 66.0787 13.7313 66.0787 15.2209V17.2097C66.0787 17.7547 66.1025 18.1772 66.1546 18.499H65.0898V18.4991ZM64.9246 15.8095C63.6063 15.8095 62.9478 16.1324 62.9478 16.8984C62.9478 17.4651 63.2883 17.7422 63.7601 17.7422C64.3644 17.7422 64.9246 17.2762 64.9246 16.6431V15.8095ZM70.8834 18.6216C70.1264 18.6216 69.5673 18.2987 69.2052 17.6655H69.1815L69.1136 18.4991H68.1031C68.1359 18.0663 68.1472 17.5762 68.1472 17.0438V10.6216H69.3342V13.8894H69.3569C69.7087 13.2894 70.278 12.9894 71.0587 12.9894C72.3441 12.9894 73.2449 14.1012 73.2449 15.7225C73.2449 17.3987 72.2446 18.6216 70.8834 18.6216ZM70.6423 13.9317C69.96 13.9317 69.3354 14.5317 69.3354 15.3652V16.3099C69.3354 17.0541 69.8966 17.6655 70.622 17.6655C71.5103 17.6655 72.0387 16.9327 72.0387 15.766C72.0375 14.6771 71.4876 13.9317 70.6423 13.9317ZM76.1835 18.4991H74.9988V10.6216H76.1835V18.4991ZM82.639 16.0877H79.0792C79.103 17.1102 79.7705 17.6873 80.7594 17.6873C81.2867 17.6873 81.7699 17.598 82.1976 17.4319L82.3821 18.2655C81.8774 18.4876 81.2845 18.5987 80.5931 18.5987C78.9229 18.5987 77.9351 17.5316 77.9351 15.8771C77.9351 14.2214 78.9468 12.9768 80.4596 12.9768C81.8209 12.9768 82.6785 13.9993 82.6785 15.5439C82.6831 15.7545 82.6729 15.9435 82.639 16.0877ZM81.5515 15.2324C81.5515 14.3989 81.1339 13.8104 80.3759 13.8104C79.6946 13.8104 79.1583 14.4103 79.0791 15.2324H81.5515ZM89.8265 18.6216C88.2673 18.6216 87.2568 17.4434 87.2568 15.8439C87.2568 14.1768 88.2888 12.9883 89.9159 12.9883C91.4513 12.9883 92.4857 14.1103 92.4857 15.7557C92.4857 17.4434 91.4197 18.6216 89.8265 18.6216ZM89.8718 13.8653C89.0152 13.8653 88.4665 14.676 88.4665 15.8095C88.4665 16.9213 89.0266 17.7319 89.8606 17.7319C90.6945 17.7319 91.2534 16.8652 91.2534 15.7866C91.2545 14.6874 90.7057 13.8653 89.8718 13.8653ZM98.8608 18.4991H97.6762V15.3985C97.6762 14.4435 97.314 13.9649 96.6001 13.9649C95.8974 13.9649 95.4131 14.5764 95.4131 15.2874V18.4991H94.2283V14.6428C94.2283 14.1653 94.2159 13.6535 94.1842 13.0982H95.2275L95.2829 13.9317H95.3158C95.6325 13.3547 96.2821 12.9871 97.0063 12.9871C98.1254 12.9871 98.8609 13.8539 98.8609 15.2645V18.4991H98.8608ZM106.62 13.9993H105.315V16.6213C105.315 17.2888 105.545 17.622 106.005 17.622C106.215 17.622 106.391 17.5991 106.533 17.5659L106.566 18.4773C106.335 18.5667 106.026 18.6113 105.644 18.6113C104.71 18.6113 104.152 18.0892 104.152 16.7221V13.9993H103.373V13.0993H104.152V12.1101L105.315 11.754V13.0982H106.62V13.9993ZM112.9 18.4991H111.713V15.4214C111.713 14.455 111.351 13.9661 110.637 13.9661C110.022 13.9661 109.452 14.3886 109.452 15.2439V18.4991H108.265V10.6216H109.452V13.8653H109.475C109.848 13.2768 110.387 12.9871 111.078 12.9871C112.209 12.9871 112.9 13.8756 112.9 15.2874V18.4991ZM118.959 16.0877H115.401C115.423 17.1102 116.091 17.6873 117.08 17.6873C117.608 17.6873 118.09 17.598 118.518 17.4319L118.704 18.2655C118.199 18.4876 117.605 18.5987 116.914 18.5987C115.244 18.5987 114.256 17.5316 114.256 15.8771C114.256 14.2214 115.267 12.9768 116.78 12.9768C118.141 12.9768 118.999 13.9993 118.999 15.5439C119.003 15.7545 118.992 15.9435 118.959 16.0877ZM117.872 15.2324C117.872 14.3989 117.455 13.8104 116.697 13.8104C116.015 13.8104 115.479 14.4103 115.401 15.2324H117.872Z" fill="white"/>
</svg>
