<svg width="142" height="52" viewBox="0 0 142 52" fill="none" xmlns="http://www.w3.org/2000/svg">
<path d="M132.108 50.1163H10.2731C5.33765 50.1163 1.28857 46.0672 1.28857 41.1317V10.4513C1.28857 5.51588 5.33765 1.4668 10.2731 1.4668H132.108C137.044 1.4668 141.093 5.51588 141.093 10.4513V41.1317C141.093 46.0672 137.044 50.1163 132.108 50.1163Z" fill="#EA4C89"/>
<path d="M134.365 51.204H7.63484C3.4246 51.204 0 47.7794 0 43.5692V8.01375C0 3.80351 3.4246 0.378906 7.63484 0.378906H134.365C138.575 0.378906 142 3.80351 142 8.01375V43.5692C142 47.7794 138.575 51.204 134.365 51.204ZM7.63484 2.57468C4.63328 2.57468 2.19577 5.01219 2.19577 8.01375V43.5692C2.19577 46.5707 4.63328 49.0082 7.63484 49.0082H134.365C137.367 49.0082 139.804 46.5707 139.804 43.5692V8.01375C139.804 5.01219 137.367 2.57468 134.365 2.57468H7.63484Z" fill="white"/>
<path d="M27.5397 26.8267C27.5104 23.542 30.2097 21.944 30.3332 21.8696C28.8044 19.6244 26.435 19.3177 25.6023 19.2932C23.6122 19.0823 21.6818 20.4928 20.668 20.4928C19.634 20.4928 18.0728 19.3136 16.3903 19.3483C14.2251 19.3819 12.1997 20.6446 11.0887 22.6054C8.79616 26.6036 10.5059 32.4789 12.7025 35.7106C13.8012 37.2944 15.0852 39.0606 16.7656 38.9984C18.4097 38.9311 19.0239 37.9436 21.0079 37.9436C22.9737 37.9436 23.5505 38.9984 25.2643 38.9587C27.0289 38.9311 28.1397 37.3688 29.2001 35.7718C30.4698 33.9587 30.9797 32.1711 31 32.0794C30.9594 32.0652 27.5741 30.7627 27.5397 26.8267ZM24.3021 17.1673C25.1863 16.0534 25.7914 14.5379 25.6235 13C24.3435 13.0571 22.743 13.8918 21.8212 14.9812C21.0057 15.9413 20.2773 17.5148 20.4655 18.9946C21.9032 19.1026 23.3794 18.2639 24.3021 17.1673Z" fill="white"/>
<path d="M48.9645 38.5264H46.3439L44.9084 34.0323H39.9187L38.5513 38.5264H36L40.9446 23.2263H43.9979L48.9645 38.5264ZM44.4758 32.1468L43.1776 28.1516C43.0403 27.7435 42.7818 26.7823 42.4032 25.2693H42.3571C42.2048 25.92 41.9613 26.8812 41.6278 28.1516L40.3516 32.1468H44.4758ZM61.6556 32.8745C61.6556 34.7508 61.1444 36.2339 60.1207 37.3228C59.2046 38.2919 58.0657 38.776 56.7074 38.776C55.2407 38.776 54.186 38.2551 53.5456 37.2113V43H51.0854V31.1201C51.0854 29.9416 51.0544 28.7333 50.9943 27.494H53.158L53.2953 29.2427H53.3414C54.1618 27.9251 55.4069 27.2662 57.0778 27.2662C58.3841 27.2662 59.4745 27.7801 60.3469 28.8091C61.2181 29.8405 61.6556 31.1948 61.6556 32.8745ZM59.1491 32.9642C59.1491 31.8904 58.9068 31.0051 58.4198 30.3073C57.8879 29.5818 57.1736 29.2186 56.2781 29.2186C55.6712 29.2186 55.1196 29.4209 54.6268 29.8198C54.133 30.2222 53.8099 30.7476 53.6588 31.3983C53.5826 31.7019 53.5445 31.949 53.5445 32.1446V33.9851C53.5445 34.7865 53.7915 35.4637 54.2854 36.0179C54.7793 36.5698 55.4208 36.8467 56.2101 36.8467C57.1368 36.8467 57.8581 36.4893 58.3738 35.7798C58.8906 35.0682 59.1491 34.13 59.1491 32.9642ZM74.3915 32.8745C74.3915 34.7508 73.8803 36.2339 72.8567 37.3228C71.9394 38.2919 70.8016 38.776 69.4422 38.776C67.9756 38.776 66.9209 38.2551 66.2805 37.2113V43H63.8203V31.1201C63.8203 29.9416 63.7891 28.7333 63.7291 27.494H65.8927L66.03 29.2427H66.0762C66.8955 27.9251 68.1406 27.2662 69.8126 27.2662C71.1177 27.2662 72.2081 27.7801 73.0829 28.8091C73.9531 29.8405 74.3915 31.1948 74.3915 32.8745ZM71.884 32.9642C71.884 31.8904 71.6406 31.0051 71.1535 30.3073C70.6216 29.5818 69.9096 29.2186 69.0141 29.2186C68.4072 29.2186 67.8556 29.4209 67.3605 29.8198C66.8667 30.2222 66.5448 30.7476 66.3935 31.3983C66.3185 31.7019 66.2781 31.949 66.2781 32.1446V33.9851C66.2781 34.7865 66.5262 35.4637 67.0178 36.0179C67.5117 36.5686 68.1533 36.8467 68.9449 36.8467C69.8726 36.8467 70.5938 36.4893 71.1085 35.7798C71.6255 35.0682 71.884 34.13 71.884 32.9642ZM88.631 34.2346C88.631 35.5372 88.1741 36.5961 87.266 37.4135C86.2666 38.3057 84.8716 38.7529 83.0829 38.7529C81.4305 38.7529 80.1058 38.4356 79.1065 37.7998L79.6754 35.7568C80.7543 36.3938 81.9394 36.7111 83.2295 36.7111C84.1572 36.7111 84.8784 36.5018 85.3931 36.0868C85.9088 35.6706 86.1697 35.1141 86.1697 34.4197C86.1697 33.7978 85.9539 33.2769 85.5304 32.8528C85.1046 32.4297 84.4007 32.0354 83.4119 31.6732C80.7231 30.6741 79.3776 29.2129 79.3776 27.2906C79.3776 26.0351 79.8531 25.0073 80.8017 24.2036C81.7502 23.4011 83.008 23 84.5728 23C85.9702 23 87.1345 23.2426 88.0588 23.7266L87.4414 25.7247C86.5714 25.2556 85.5893 25.0211 84.4907 25.0211C83.6231 25.0211 82.9421 25.2338 82.4552 25.6568C82.0455 26.0351 81.8378 26.4962 81.8378 27.0434C81.8378 27.6471 82.0745 28.1483 82.5452 28.5415C82.9537 28.9036 83.6991 29.298 84.7769 29.7211C86.0993 30.2523 87.0708 30.8708 87.6929 31.5813C88.3195 32.2916 88.631 33.1781 88.631 34.2346ZM96.786 29.3335H94.0742V34.6899C94.0742 36.0523 94.552 36.7318 95.5098 36.7318C95.9493 36.7318 96.314 36.6949 96.6025 36.6179L96.6705 38.4793C96.186 38.6599 95.5477 38.7506 94.7573 38.7506C93.7857 38.7506 93.0264 38.4552 92.4783 37.8642C91.9325 37.2733 91.6579 36.2834 91.6579 34.89V29.3289H90.0423V27.4894H91.6579V25.4694L94.0742 24.7427V27.4894H96.786V29.3335ZM108.997 32.9194C108.997 34.6151 108.51 36.0074 107.538 37.0962C106.522 38.2172 105.169 38.7759 103.483 38.7759C101.856 38.7759 100.563 38.239 99.5981 37.1663C98.6334 36.0913 98.151 34.737 98.151 33.1033C98.151 31.3936 98.6495 29.9934 99.6431 28.9046C100.639 27.8147 101.98 27.2699 103.666 27.2699C105.29 27.2699 106.596 27.8078 107.583 28.8816C108.527 29.9233 108.997 31.2684 108.997 32.9194ZM106.447 32.9757C106.447 31.965 106.228 31.0982 105.788 30.3727C105.272 29.4966 104.533 29.0587 103.577 29.0587C102.591 29.0587 101.836 29.4966 101.321 30.3727C100.88 31.0982 100.661 31.98 100.661 33.0216C100.661 34.0334 100.88 34.9025 101.321 35.6258C101.853 36.5018 102.595 36.9399 103.556 36.9399C104.497 36.9399 105.234 36.4926 105.767 35.6039C106.219 34.8612 106.447 33.9886 106.447 32.9757ZM116.997 29.6496C116.754 29.6047 116.493 29.5817 116.222 29.5817C115.356 29.5817 114.687 29.906 114.216 30.559C113.808 31.1338 113.602 31.8604 113.602 32.7376V38.5263H111.142V30.9683C111.142 29.6979 111.118 28.539 111.071 27.4951H113.214L113.304 29.6059H113.372C113.632 28.8805 114.041 28.2952 114.602 27.8572C115.15 27.4629 115.742 27.2662 116.38 27.2662C116.607 27.2662 116.813 27.2823 116.995 27.3112L116.997 29.6496ZM128 32.4882C128 32.9274 127.971 33.2975 127.91 33.6H120.529C120.557 34.6899 120.915 35.5246 121.6 36.0994C122.222 36.6123 123.026 36.8697 124.014 36.8697C125.107 36.8697 126.104 36.6973 127.001 36.3489L127.386 38.0493C126.338 38.5046 125.101 38.7311 123.674 38.7311C121.957 38.7311 120.609 38.2274 119.628 37.2227C118.65 36.2167 118.159 34.8647 118.159 33.1712C118.159 31.5086 118.615 30.1233 119.528 29.0185C120.483 27.8389 121.774 27.249 123.399 27.249C124.995 27.249 126.203 27.8388 127.024 29.0185C127.673 29.9532 128 31.1121 128 32.4882ZM125.654 31.8525C125.671 31.1247 125.51 30.4981 125.176 29.9681C124.75 29.2852 124.095 28.9449 123.217 28.9449C122.413 28.9449 121.757 29.2771 121.259 29.944C120.849 30.474 120.605 31.1109 120.531 31.8502L125.654 31.8525Z" fill="white"/>
<path d="M42.2496 18.8775H40.9856L40.2942 16.678H37.8897L37.23 18.8775H36L38.383 11.3881H39.854L42.2496 18.8775ZM40.086 15.7551L39.4603 13.7995C39.3946 13.5991 39.2736 13.1331 39.0869 12.3889H39.0642C38.9873 12.7106 38.8775 13.1778 38.7123 13.7995L38.0979 15.7551H40.086ZM48.2083 13.4777L46.1873 18.8775H45.0342L43.079 13.4777H44.3531L45.2651 16.3333C45.419 16.8108 45.5503 17.2665 45.6487 17.6993H45.6815C45.7699 17.3112 45.901 16.8554 46.0651 16.3333L46.9658 13.4777H48.2083ZM52.5104 18.8775L52.4221 18.2557H52.3892C52.0271 18.756 51.4998 18.9999 50.83 18.9999C49.8749 18.9999 49.1937 18.3221 49.1937 17.4107C49.1937 16.0779 50.3355 15.3886 52.3123 15.3886V15.289C52.3123 14.578 51.9389 14.2219 51.2034 14.2219C50.676 14.2219 50.2144 14.3559 49.8093 14.6226L49.5682 13.8337C50.0627 13.5223 50.6772 13.3666 51.4024 13.3666C52.7965 13.3666 53.5003 14.1108 53.5003 15.6004V17.5893C53.5003 18.1343 53.5229 18.5568 53.5773 18.8785L52.5104 18.8775ZM52.3452 16.1879C51.027 16.1879 50.3684 16.5108 50.3684 17.2768C50.3684 17.8436 50.709 18.1207 51.1808 18.1207C51.785 18.1207 52.3452 17.6546 52.3452 17.0215V16.1879ZM56.1415 12.5881C55.7466 12.5881 55.4388 12.2767 55.4388 11.8656C55.4388 11.4546 55.7569 11.1546 56.1642 11.1546C56.5704 11.1546 56.8997 11.4546 56.8884 11.8656C56.8884 12.2996 56.5818 12.5881 56.1415 12.5881ZM56.7571 18.8775H55.5712V13.4777H56.7571V18.8775ZM60.0499 18.8775H58.864V11H60.0499V18.8775ZM65.0898 18.8775L65.0014 18.2557H64.9687C64.6066 18.756 64.0793 18.9999 63.4094 18.9999C62.4544 18.9999 61.7732 18.3221 61.7732 17.4107C61.7732 16.0779 62.9149 15.3886 64.8917 15.3886V15.289C64.8917 14.578 64.5183 14.2219 63.7828 14.2219C63.2555 14.2219 62.7938 14.3559 62.3887 14.6226L62.1466 13.8326C62.6411 13.5212 63.2556 13.3654 63.9809 13.3654C65.3749 13.3654 66.0787 14.1097 66.0787 15.5993V17.5881C66.0787 18.1332 66.1025 18.5557 66.1546 18.8774H65.0898V18.8775ZM64.9246 16.1879C63.6063 16.1879 62.9478 16.5108 62.9478 17.2768C62.9478 17.8436 63.2883 18.1207 63.7601 18.1207C64.3644 18.1207 64.9246 17.6546 64.9246 17.0215V16.1879ZM70.8834 19C70.1264 19 69.5673 18.6771 69.2052 18.0439H69.1815L69.1136 18.8775H68.1031C68.1359 18.4447 68.1472 17.9546 68.1472 17.4222V11H69.3342V14.2678H69.3569C69.7087 13.6678 70.278 13.3678 71.0587 13.3678C72.3441 13.3678 73.2449 14.4796 73.2449 16.1009C73.2449 17.7772 72.2446 19 70.8834 19ZM70.6423 14.3101C69.96 14.3101 69.3354 14.9101 69.3354 15.7437V16.6883C69.3354 17.4325 69.8966 18.0439 70.622 18.0439C71.5103 18.0439 72.0387 17.3111 72.0387 16.1444C72.0375 15.0555 71.4876 14.3101 70.6423 14.3101ZM76.1835 18.8775H74.9988V11H76.1835V18.8775ZM82.639 16.4662H79.0792C79.103 17.4886 79.7705 18.0657 80.7594 18.0657C81.2867 18.0657 81.7699 17.9764 82.1976 17.8104L82.3821 18.6439C81.8774 18.866 81.2845 18.9771 80.5931 18.9771C78.9229 18.9771 77.9351 17.91 77.9351 16.2555C77.9351 14.5998 78.9468 13.3552 80.4596 13.3552C81.8209 13.3552 82.6785 14.3777 82.6785 15.9223C82.6831 16.133 82.6729 16.3219 82.639 16.4662ZM81.5515 15.6108C81.5515 14.7773 81.1339 14.1888 80.3759 14.1888C79.6946 14.1888 79.1583 14.7888 79.0791 15.6108H81.5515ZM89.8265 19C88.2673 19 87.2568 17.8218 87.2568 16.2223C87.2568 14.5552 88.2888 13.3667 89.9159 13.3667C91.4513 13.3667 92.4857 14.4888 92.4857 16.1341C92.4857 17.8218 91.4197 19 89.8265 19ZM89.8718 14.2437C89.0152 14.2437 88.4665 15.0544 88.4665 16.1879C88.4665 17.2997 89.0266 18.1103 89.8606 18.1103C90.6945 18.1103 91.2534 17.2436 91.2534 16.165C91.2545 15.0658 90.7057 14.2437 89.8718 14.2437ZM98.8608 18.8775H97.6762V15.7769C97.6762 14.822 97.314 14.3434 96.6001 14.3434C95.8974 14.3434 95.4131 14.9548 95.4131 15.6658V18.8775H94.2283V15.0212C94.2283 14.5437 94.2159 14.0319 94.1842 13.4766H95.2275L95.2829 14.3101H95.3158C95.6325 13.7331 96.2821 13.3655 97.0063 13.3655C98.1254 13.3655 98.8609 14.2323 98.8609 15.6429V18.8775H98.8608ZM106.62 14.3777H105.315V16.9997C105.315 17.6672 105.545 18.0004 106.005 18.0004C106.215 18.0004 106.391 17.9775 106.533 17.9443L106.566 18.8557C106.335 18.9451 106.026 18.9897 105.644 18.9897C104.71 18.9897 104.152 18.4676 104.152 17.1005V14.3777H103.373V13.4777H104.152V12.4885L105.315 12.1324V13.4766H106.62V14.3777ZM112.9 18.8775H111.713V15.7998C111.713 14.8334 111.351 14.3445 110.637 14.3445C110.022 14.3445 109.452 14.767 109.452 15.6223V18.8775H108.265V11H109.452V14.2437H109.475C109.848 13.6552 110.387 13.3655 111.078 13.3655C112.209 13.3655 112.9 14.254 112.9 15.6658V18.8775ZM118.959 16.4662H115.401C115.423 17.4886 116.091 18.0657 117.08 18.0657C117.608 18.0657 118.09 17.9764 118.518 17.8104L118.704 18.6439C118.199 18.866 117.605 18.9771 116.914 18.9771C115.244 18.9771 114.256 17.91 114.256 16.2555C114.256 14.5998 115.267 13.3552 116.78 13.3552C118.141 13.3552 118.999 14.3777 118.999 15.9223C119.003 16.133 118.992 16.3219 118.959 16.4662ZM117.872 15.6108C117.872 14.7773 117.455 14.1888 116.697 14.1888C116.015 14.1888 115.479 14.7888 115.401 15.6108H117.872Z" fill="white"/>
</svg>
