<svg width="29" height="24" viewBox="0 0 29 24" fill="none" xmlns="http://www.w3.org/2000/svg">
<path d="M27.669 5.67091L14.6656 0.744118C14.4921 0.678393 14.3005 0.678393 14.1269 0.744118L1.1236 5.67091C0.961637 5.73815 0.823236 5.85187 0.725869 5.99772C0.628503 6.14357 0.576538 6.31499 0.576538 6.49035C0.576538 6.66571 0.628503 6.83714 0.725869 6.98299C0.823236 7.12883 0.961637 7.24256 1.1236 7.30979L14.1257 12.2695C14.3004 12.3362 14.4935 12.3362 14.6682 12.2695L27.6702 7.30853C27.8322 7.24129 27.9706 7.12757 28.068 6.98172C28.1653 6.83587 28.2173 6.66445 28.2173 6.48909C28.2173 6.31373 28.1653 6.14229 28.068 5.99645C27.9706 5.8506 27.8322 5.73688 27.6702 5.66964L27.669 5.67091Z" fill="white"/>
<path d="M26.123 17.2714V9.69043L24.3852 10.3077V17.2701C24.119 17.4231 23.8978 17.6435 23.744 17.9092C23.5902 18.1749 23.5093 18.4765 23.5093 18.7835C23.5093 19.0905 23.5902 19.3921 23.744 19.6578C23.8978 19.9236 24.119 20.144 24.3852 20.2969V22.4922C24.3808 22.6091 24.3999 22.7257 24.4416 22.835C24.4832 22.9444 24.5465 23.0441 24.6276 23.1284C24.7088 23.2127 24.806 23.2798 24.9137 23.3256C25.0213 23.3714 25.1371 23.3949 25.2541 23.3949C25.3711 23.3949 25.4868 23.3714 25.5945 23.3256C25.7021 23.2798 25.7994 23.2127 25.8806 23.1284C25.9617 23.0441 26.025 22.9444 26.0666 22.835C26.1083 22.7257 26.1274 22.6091 26.123 22.4922V20.2944C26.3892 20.1415 26.6103 19.921 26.7641 19.6553C26.9179 19.3896 26.9989 19.088 26.9989 18.781C26.9989 18.474 26.9179 18.1724 26.7641 17.9067C26.6103 17.641 26.3892 17.4205 26.123 17.2676V17.2714Z" fill="white"/>
<path d="M14.3971 14.0609C14.1329 14.0606 13.8713 14.0094 13.6264 13.9101L6.69446 11.1216V14.9456C6.69446 15.8811 7.55637 16.672 9.25609 17.2969C12.5913 18.4231 16.2041 18.4231 19.5394 17.2969C21.2391 16.672 22.101 15.8811 22.101 14.9456V11.1216L15.169 13.9101C14.9238 14.0096 14.6617 14.0608 14.3971 14.0609Z" fill="white"/>
</svg>
