<svg width="23" height="22" viewBox="0 0 23 22" fill="none" xmlns="http://www.w3.org/2000/svg">
<path d="M15.1846 0.485352C12.9507 1.18684 10.9969 2.57879 9.60414 4.46099C8.2114 6.34319 7.45153 8.61863 7.43384 10.96C7.43384 11.1768 7.45665 11.3872 7.46933 11.5938C8.83474 11.552 10.171 11.1885 11.3694 10.5329C11.7117 6.66064 14.1579 3.66679 18.2811 2.01777C17.3373 1.34515 16.2919 0.827808 15.1846 0.485352Z" fill="white"/>
<path d="M19.442 2.97803C17.3255 3.65475 15.4611 4.95168 14.0906 6.70068C16.0269 7.07641 17.8239 7.97359 19.2878 9.29546C20.7518 10.6173 21.8271 12.3137 22.3978 14.2018C23.0053 12.2418 23.0503 10.1507 22.5278 8.16647C22.0052 6.18221 20.9361 4.38452 19.442 2.97803Z" fill="white"/>
<path d="M21.27 14.8576C20.7833 13.0494 19.7774 11.4235 18.3767 10.1807C16.976 8.93793 15.2419 8.13278 13.3887 7.86475C12.9935 8.70862 12.7486 9.61494 12.6649 10.543C16.3217 11.9981 18.209 15.7993 18.8757 19.4079C19.9532 18.5251 20.853 17.4454 21.5273 16.2265C21.4741 15.7647 21.3881 15.3072 21.27 14.8576Z" fill="white"/>
<path d="M11.9967 11.6586C10.5968 12.4297 9.03138 12.851 7.43364 12.8868C5.09367 12.8754 2.8245 12.0831 0.985838 10.6357C0.985838 10.7447 0.96936 10.8499 0.96936 10.9602C0.970913 12.3289 1.23154 13.6849 1.73747 14.9567C2.25461 14.9123 3.96321 16.7401 7.43364 16.7401C8.80584 16.744 10.1609 16.4349 11.3957 15.8364C12.6305 15.2379 13.7125 14.3657 14.5596 13.2861C13.8329 12.5647 12.9585 12.0095 11.9967 11.6586Z" fill="white"/>
<path d="M12.8711 0.0456302C12.5733 0.0215476 12.2754 0 11.9725 0C9.39214 0.0112444 6.89703 0.924732 4.91941 2.5822C2.94179 4.23967 1.60625 6.5367 1.14417 9.07534C2.52533 10.3947 4.2876 11.2445 6.17997 11.5039C6.17236 11.3226 6.15081 11.1439 6.15081 10.9601C6.16891 8.70092 6.80464 6.48972 7.9892 4.56588C9.17375 2.64205 10.862 1.07889 12.8711 0.0456302Z" fill="white"/>
<path d="M15.4071 14.2632C13.9093 16.0737 11.841 17.322 9.54111 17.8037C7.24119 18.2855 4.84586 17.972 2.74731 16.9148C3.75269 18.4451 5.12099 19.7029 6.7303 20.5762C8.33961 21.4495 10.14 21.9112 11.9709 21.9202C14.0055 21.9045 15.9948 21.3183 17.7127 20.2281C17.4404 18.0819 16.649 16.0345 15.4071 14.2632Z" fill="white"/>
</svg>
