<svg width="22" height="23" viewBox="0 0 22 23" fill="none" xmlns="http://www.w3.org/2000/svg">
<g clip-path="url(#clip0)">
<path d="M15.2422 12.332H6.75781C6.63723 12.332 6.53982 12.4314 6.54292 12.5519C6.56857 13.5465 6.63595 14.4965 6.73843 15.3949C6.75316 15.5241 6.87799 15.6114 7.00406 15.5793C8.3012 15.2489 9.63795 15.082 11 15.082C12.3621 15.082 13.6988 15.2489 14.996 15.5793C15.122 15.6114 15.2469 15.5241 15.2616 15.3949C15.3641 14.4965 15.4315 13.5464 15.4571 12.5519C15.4602 12.4314 15.3628 12.332 15.2422 12.332Z" fill="white"/>
<path d="M15.2616 7.89426C15.2469 7.76501 15.1221 7.6777 14.996 7.7098C13.6989 8.04031 12.3621 8.20716 11 8.20716C9.63796 8.20716 8.3012 8.04031 7.00406 7.70984C6.87803 7.67774 6.75317 7.76505 6.73843 7.8943C6.63595 8.7927 6.56857 9.74278 6.54292 10.7373C6.53982 10.8579 6.63719 10.9572 6.75781 10.9572H15.2422C15.3628 10.9572 15.4602 10.8578 15.4571 10.7373C15.4315 9.74273 15.3641 8.79265 15.2616 7.89426Z" fill="white"/>
<path d="M14.9959 6.08094C14.6109 3.95076 14.0208 2.20378 13.3398 0.969203C13.3095 0.914203 13.2563 0.875402 13.1947 0.862984C12.4799 0.718953 11.7457 0.644531 10.9999 0.644531C10.2542 0.644531 9.51996 0.718953 8.80517 0.863027C8.7436 0.875445 8.6904 0.914246 8.66007 0.969246C7.97901 2.20378 7.38892 3.95076 7.00392 6.08098C6.9842 6.19004 7.05127 6.29686 7.15827 6.32569C8.38373 6.65577 9.67164 6.83203 10.9999 6.83203C12.3282 6.83203 13.6161 6.65577 14.8416 6.32564C14.9486 6.29686 15.0157 6.18999 14.9959 6.08094Z" fill="white"/>
<path d="M15.5723 1.63422C15.3973 1.55417 15.2149 1.72896 15.2841 1.90857C15.2853 1.91175 15.2865 1.91493 15.2877 1.91811C15.7059 3.00539 16.0456 4.23976 16.2998 5.57467C16.3252 5.70809 16.4673 5.7841 16.5929 5.73253C17.4386 5.38548 18.2452 4.96202 19.0042 4.47114C19.1166 4.39848 19.1368 4.24178 19.0456 4.14381C18.9583 4.05001 18.8693 3.95745 18.7782 3.86636C17.835 2.92307 16.7503 2.17279 15.5723 1.63422Z" fill="white"/>
<path d="M17.0471 10.9571H21.7471C21.8731 10.9571 21.9718 10.8492 21.9614 10.7236C21.8095 8.87947 21.2026 7.12853 20.1949 5.6019C20.129 5.502 19.9951 5.47497 19.8952 5.54093C19.0742 6.08332 18.2039 6.55018 17.2889 6.93715C17.1013 7.01656 16.9125 7.09214 16.7226 7.16411C16.6295 7.19943 16.5725 7.29315 16.5849 7.39202C16.7202 8.47049 16.804 9.5955 16.8326 10.7471C16.8355 10.8638 16.9304 10.9571 17.0471 10.9571Z" fill="white"/>
<path d="M7.00392 17.2081C7.38892 19.3383 7.97901 21.0853 8.66007 22.3199C8.6904 22.3749 8.7436 22.4137 8.80517 22.4261C9.51996 22.5701 10.2542 22.6445 10.9999 22.6445C11.7457 22.6445 12.4799 22.5701 13.1947 22.426C13.2563 22.4136 13.3095 22.3748 13.3398 22.3198C14.0208 21.0853 14.6109 19.3383 14.9959 17.2081C15.0157 17.099 14.9486 16.9922 14.8416 16.9634C13.6161 16.6333 12.3282 16.457 10.9999 16.457C9.67164 16.457 8.38373 16.6333 7.15827 16.9634C7.05127 16.9922 6.9842 17.0991 7.00392 17.2081Z" fill="white"/>
<path d="M4.71105 16.3519C4.89874 16.2725 5.08755 16.1969 5.27738 16.125C5.37054 16.0896 5.42747 15.9959 5.41505 15.8971C5.27979 14.8186 5.196 13.6936 5.16738 12.542C5.16446 12.4253 5.06963 12.332 4.95292 12.332H0.252916C0.126932 12.332 0.0282328 12.4399 0.0385883 12.5655C0.190483 14.4097 0.797416 16.1606 1.80512 17.6872C1.87103 17.7871 2.00492 17.8141 2.10478 17.7482C2.92579 17.2058 3.79608 16.7389 4.71105 16.3519Z" fill="white"/>
<path d="M19.0042 18.8182C18.2452 18.3273 17.4386 17.9038 16.5929 17.5568C16.4673 17.5052 16.3252 17.5812 16.2998 17.7147C16.0456 19.0496 15.706 20.2839 15.2877 21.3712C15.2865 21.3744 15.2853 21.3776 15.2841 21.3807C15.2149 21.5604 15.3973 21.7352 15.5723 21.6551C16.7503 21.1165 17.835 20.3663 18.7782 19.423C18.8693 19.3319 18.9584 19.2393 19.0457 19.1455C19.1368 19.0475 19.1166 18.8908 19.0042 18.8182Z" fill="white"/>
<path d="M16.8326 12.542C16.804 13.6936 16.7202 14.8187 16.5849 15.8971C16.5725 15.996 16.6295 16.0897 16.7226 16.125C16.9125 16.197 17.1013 16.2726 17.2889 16.352C18.2039 16.739 19.0742 17.2059 19.8952 17.7482C19.9951 17.8142 20.1289 17.7871 20.1949 17.6872C21.2026 16.1606 21.8095 14.4097 21.9614 12.5655C21.9718 12.4399 21.8731 12.332 21.7471 12.332H17.0471C16.9304 12.3321 16.8355 12.4254 16.8326 12.542Z" fill="white"/>
<path d="M2.99576 4.47114C3.75481 4.96202 4.56137 5.38552 5.40708 5.73253C5.53272 5.7841 5.67478 5.70809 5.70017 5.57467C5.95438 4.23976 6.29404 3.00539 6.71226 1.91811C6.71346 1.91493 6.71471 1.91175 6.71591 1.90857C6.78513 1.72896 6.60273 1.55417 6.42768 1.63422C5.24973 2.17283 4.16507 2.92311 3.22178 3.86636C3.13069 3.95745 3.04161 4.05001 2.9543 4.14381C2.86316 4.24178 2.8834 4.39848 2.99576 4.47114Z" fill="white"/>
<path d="M5.16278 10.9571C5.18603 9.73226 5.27162 8.53592 5.41505 7.39201C5.42747 7.29314 5.37054 7.19942 5.27738 7.1641C5.08755 7.09213 4.89874 7.01655 4.71105 6.93714C3.79608 6.55012 2.92579 6.08327 2.10478 5.54091C2.00492 5.47496 1.87108 5.50203 1.80512 5.60189C0.797416 7.12852 0.190483 8.87946 0.0385883 10.7236C0.0282328 10.8492 0.126932 10.9571 0.252916 10.9571H5.16278Z" fill="white"/>
<path d="M6.42769 21.6551C6.60275 21.7352 6.78515 21.5604 6.71592 21.3807C6.71472 21.3776 6.71348 21.3744 6.71227 21.3712C6.2941 20.2839 5.95439 19.0496 5.70018 17.7147C5.67479 17.5812 5.53273 17.5052 5.40709 17.5568C4.56138 17.9038 3.75481 18.3273 2.99577 18.8182C2.88336 18.8908 2.86317 19.0475 2.95435 19.1455C3.04166 19.2393 3.13073 19.3319 3.22183 19.423C4.16504 20.3663 5.2497 21.1165 6.42769 21.6551Z" fill="white"/>
</g>
<defs>
<clipPath id="clip0">
<rect width="22" height="22" fill="white" transform="translate(0 0.644531)"/>
</clipPath>
</defs>
</svg>
