<svg width="24" height="23" viewBox="0 0 24 23" fill="none" xmlns="http://www.w3.org/2000/svg">
<path d="M13.838 7.94531H10.0279C9.98773 8.39124 9.91443 8.83356 9.80859 9.2686H14.0712C13.9601 8.83405 13.8821 8.39167 13.838 7.94531Z" fill="white"/>
<path d="M14.5275 1.89766C14.3508 1.33384 13.9945 0.843311 13.5129 0.500913C13.0314 0.158515 12.451 -0.0169493 11.8605 0.00129102C11.2699 0.0195314 10.7015 0.230475 10.242 0.601937C9.78249 0.973399 9.45712 1.48498 9.31554 2.05864C9.22304 2.4772 9.23216 2.91183 9.34215 3.32614L9.84914 5.2274C9.96594 5.68128 10.036 6.14591 10.0583 6.61405H13.805C13.8246 6.212 13.8841 5.8129 13.9825 5.42259L14.5427 3.32868C14.6674 2.85911 14.6622 2.36448 14.5275 1.89766Z" fill="white"/>
<path d="M14.7761 11.0494C14.6912 10.9061 14.6164 10.7477 14.5416 10.5918H9.34482C9.28018 10.7262 9.21807 10.8643 9.14583 10.9873C8.35777 12.3651 7.87247 13.8952 7.72232 15.4754C7.57217 17.0556 7.76061 18.6497 8.27505 20.1513L8.91766 21.7585C9.01556 22.0044 9.18515 22.2152 9.40441 22.3635C9.62367 22.5118 9.88245 22.5907 10.1471 22.59H13.7367C14.0015 22.5909 14.2603 22.512 14.4796 22.3637C14.6989 22.2154 14.8685 22.0045 14.9662 21.7585L15.4555 20.5328C16.0161 18.9933 16.2453 17.3528 16.1282 15.7186C16.0112 14.0844 15.5504 12.4933 14.7761 11.0494Z" fill="white"/>
<path d="M21.9363 12.0646C21.9072 12.0164 21.8933 11.9645 21.8666 11.915H16.6242C17.7346 14.8462 17.7567 18.0785 16.6863 21.0246L16.2681 22.0716C16.6247 22.4005 17.0909 22.5853 17.5761 22.59H20.4166C20.8049 22.5903 21.1838 22.4707 21.5014 22.2474C21.8191 22.0241 22.0599 21.7082 22.1911 21.3427L22.579 20.3731C23.105 19.0293 23.3204 17.584 23.2091 16.1452C23.0978 14.7065 22.6627 13.3115 21.9363 12.0646Z" fill="white"/>
<path d="M18.9942 2.65186C18.5375 2.65205 18.0869 2.75728 17.6773 2.95941C17.2677 3.16155 16.9101 3.45518 16.6321 3.81759C16.3541 4.18 16.1632 4.6015 16.0741 5.04948C15.985 5.49746 16.0001 5.95993 16.1182 6.40114L16.5315 7.94496H21.386L21.7992 6.39987C21.8662 6.14848 21.8998 5.88938 21.8993 5.62922C21.9076 5.24204 21.8386 4.8571 21.6965 4.49687C21.5543 4.13664 21.3418 3.80835 21.0713 3.53117C20.8009 3.25399 20.4779 3.03347 20.1212 2.8825C19.7646 2.73152 19.3815 2.65311 18.9942 2.65186Z" fill="white"/>
<path d="M21.1997 9.26855H16.7241C16.731 9.71461 16.6786 10.1596 16.5682 10.5918H21.3569C21.2468 10.1595 21.1939 9.71463 21.1997 9.26855Z" fill="white"/>
<path d="M7.0481 20.6431C6.04732 17.8063 6.12128 14.701 7.25597 11.915H1.99458C1.96416 11.9683 1.94769 12.0278 1.91473 12.0798C1.17456 13.3796 0.743802 14.8325 0.655876 16.3257C0.567951 17.8189 0.825223 19.3122 1.40773 20.6899L1.66884 21.3427C1.82214 21.7133 2.0823 22.0298 2.41616 22.2519C2.75002 22.474 3.14247 22.5917 3.54347 22.59H6.38774C6.84651 22.5858 7.28927 22.4207 7.63876 22.1235L7.0481 20.6431Z" fill="white"/>
<path d="M4.96817 2.65186C4.17548 2.65148 3.41468 2.96404 2.85121 3.52159C2.28773 4.07913 1.96713 4.83657 1.95911 5.62922C1.95873 5.88987 1.99282 6.14943 2.06051 6.40114L2.47372 7.94496H7.43094L7.84415 6.39987C7.96185 5.95866 7.97659 5.4963 7.88721 5.0485C7.79783 4.60069 7.60673 4.17941 7.32867 3.8172C7.05061 3.45498 6.69302 3.16152 6.28351 2.95946C5.87401 2.7574 5.42355 2.65216 4.96691 2.65186H4.96817Z" fill="white"/>
<path d="M7.38293 10.5918C7.27906 10.1587 7.23219 9.71384 7.24351 9.26855H2.66147C2.66753 9.71449 2.61554 10.1593 2.50684 10.5918H7.38293Z" fill="white"/>
</svg>
