<svg width="24" height="23" viewBox="0 0 24 23" fill="none" xmlns="http://www.w3.org/2000/svg">
<path d="M19.4065 13.8107C18.9596 13.8105 18.5153 13.8798 18.0896 14.016L4.50574 0.432129C4.21367 0.724147 3.98198 1.07084 3.8239 1.45241C3.66583 1.83398 3.58447 2.24295 3.58447 2.65597C3.58447 3.06899 3.66583 3.47796 3.8239 3.85953C3.98198 4.2411 4.21367 4.58779 4.50574 4.87981L15.6408 16.0148C15.1755 16.8425 14.9957 17.8002 15.1292 18.7402C15.2626 19.6802 15.7018 20.5502 16.379 21.2156C17.0561 21.8811 17.9336 22.3051 18.8758 22.4221C19.818 22.5391 20.7725 22.3426 21.5918 21.863C22.4112 21.3834 23.0499 20.6474 23.4092 19.7686C23.7685 18.8898 23.8285 17.9171 23.5798 17.0008C23.3311 16.0845 22.7877 15.2756 22.0334 14.699C21.2791 14.1224 20.356 13.8102 19.4065 13.8107ZM19.4065 20.1C19.0177 20.1 18.6376 19.9847 18.3144 19.7687C17.9911 19.5527 17.7391 19.2457 17.5903 18.8864C17.4415 18.5272 17.4026 18.1319 17.4784 17.7506C17.5543 17.3692 17.7415 17.019 18.0164 16.744C18.2914 16.4691 18.6417 16.2818 19.023 16.206C19.4044 16.1301 19.7996 16.1691 20.1589 16.3179C20.5181 16.4667 20.8251 16.7186 21.0411 17.0419C21.2572 17.3652 21.3725 17.7453 21.3725 18.1341C21.3721 18.6553 21.1648 19.155 20.7962 19.5234C20.4276 19.8918 19.9277 20.0987 19.4065 20.0987V20.1Z" fill="white"/>
<path d="M8.62869 12.1465L6.60067 14.1745C5.67658 13.7688 4.63976 13.6987 3.66947 13.9764C2.69919 14.2541 1.85644 14.8621 1.28695 15.6953C0.717458 16.5286 0.457018 17.5346 0.550662 18.5395C0.644306 19.5444 1.08615 20.4849 1.79979 21.1986C2.51343 21.9122 3.45401 22.354 4.4589 22.4477C5.46379 22.5413 6.46981 22.2809 7.30303 21.7114C8.13625 21.1419 8.74427 20.2992 9.02198 19.3289C9.29969 18.3586 9.22962 17.3218 8.82389 16.3977L10.8519 14.3697L8.62869 12.1465ZM4.86546 20.1001C4.47664 20.1001 4.09655 19.9848 3.77326 19.7688C3.44997 19.5527 3.19799 19.2457 3.04919 18.8865C2.9004 18.5273 2.86147 18.132 2.93732 17.7506C3.01318 17.3693 3.20041 17.019 3.47535 16.7441C3.75029 16.4691 4.10058 16.2819 4.48193 16.2061C4.86327 16.1302 5.25855 16.1691 5.61777 16.3179C5.977 16.4667 6.28403 16.7187 6.50005 17.042C6.71606 17.3653 6.83136 17.7454 6.83136 18.1342C6.83136 18.6556 6.62424 19.1556 6.25556 19.5243C5.88688 19.893 5.38685 20.1001 4.86546 20.1001Z" fill="white"/>
<path d="M20.342 4.87981C20.634 4.58779 20.8657 4.2411 21.0238 3.85953C21.1819 3.47796 21.2632 3.06899 21.2632 2.65597C21.2632 2.24295 21.1819 1.83398 21.0238 1.45241C20.8657 1.07084 20.634 0.724147 20.342 0.432129L13.9968 6.77726L16.22 9.00047L20.342 4.87981Z" fill="white"/>
</svg>
