<svg width="26" height="24" viewBox="0 0 26 24" fill="none" xmlns="http://www.w3.org/2000/svg">
<path d="M12.8905 2.49916C11.5994 1.22455 9.882 0.473324 8.06965 0.390475C6.2573 0.307625 4.47849 0.899018 3.07652 2.05052C1.67455 3.20203 0.748792 4.83202 0.477913 6.62593C0.207033 8.41984 0.61023 10.2505 1.60969 11.7646H7.0004L7.9599 10.165C8.02409 10.0577 8.11467 9.96866 8.22302 9.90627C8.33138 9.84388 8.45389 9.81027 8.57891 9.80862C8.70393 9.80697 8.82729 9.83734 8.93725 9.89684C9.04722 9.95634 9.14012 10.043 9.20712 10.1486L11.2351 13.33L14.1859 7.10021C14.2441 6.97786 14.335 6.87402 14.4486 6.80017C14.5622 6.72632 14.694 6.68536 14.8294 6.68182C14.9649 6.67827 15.0986 6.71229 15.2159 6.78009C15.3332 6.8479 15.4294 6.94685 15.494 7.06598L18.029 11.7646H24.1827C28.7457 4.63998 19.7312 -3.47713 12.9019 2.49916H12.8905Z" fill="white"/>
<path d="M16.9375 13.1004L14.8879 9.29785L11.9891 15.4174C11.9329 15.5357 11.846 15.6368 11.7375 15.7102C11.6289 15.7837 11.5027 15.8267 11.3719 15.8348C11.2412 15.843 11.1106 15.816 10.9938 15.7566C10.877 15.6972 10.7782 15.6077 10.7077 15.4972L8.60744 12.2017L8.04467 13.1397C7.97916 13.249 7.88624 13.3394 7.77509 13.4019C7.66394 13.4644 7.53841 13.4967 7.41091 13.4958H2.7655C2.91127 13.6479 2.13175 12.8735 12.3732 23.0591C12.5105 23.196 12.6965 23.2728 12.8903 23.2728C13.0842 23.2728 13.2702 23.196 13.4075 23.0591C23.4892 13.0306 22.8694 13.6479 23.0152 13.4958H17.5827C17.4493 13.4949 17.3188 13.4575 17.2051 13.3878C17.0914 13.3182 16.9989 13.2188 16.9375 13.1004Z" fill="white"/>
</svg>
