<svg width="23" height="23" viewBox="0 0 23 23" fill="none" xmlns="http://www.w3.org/2000/svg">
<path d="M21.5324 19.3195L12.945 10.7297L2.9102 0.694824H2.12561L1.96591 1.10169C1.55416 2.10745 1.37562 3.19342 1.44369 4.27806C1.5053 5.35328 1.95159 6.37047 2.70106 7.14389L10.5355 14.9783L11.5685 13.9453L18.8111 22.0434C19.1768 22.3816 19.6592 22.565 20.1572 22.5551C20.6552 22.5453 21.13 22.3429 21.482 21.9906C21.8341 21.6382 22.036 21.1632 22.0453 20.6652C22.0547 20.1672 21.8709 19.6849 21.5324 19.3195Z" fill="white"/>
<path d="M6.90528 13.1641L0.773088 19.3001C0.42591 19.6641 0.234893 20.1495 0.240858 20.6526C0.246824 21.1556 0.449299 21.6363 0.805014 21.992C1.16073 22.3477 1.64146 22.5502 2.14449 22.5562C2.64751 22.5621 3.13291 22.3711 3.49696 22.024L9.63296 15.888L6.90528 13.1641Z" fill="white"/>
<path d="M21.1748 4.34107L17.6993 7.82164L16.7917 6.9141L20.2723 3.43354L19.3648 2.526L15.8779 6.00657L14.9703 5.09904L18.4509 1.61847L17.5434 0.710938L13.0032 5.25114C12.4481 5.80551 12.1158 6.54423 12.069 7.32731C12.0582 7.52595 12.0154 7.72154 11.9423 7.90656L14.8917 10.856C15.0767 10.7829 15.2723 10.7401 15.471 10.7293C16.2541 10.6826 16.9928 10.3502 17.5472 9.79514L22.0874 5.25494L21.1748 4.34107Z" fill="white"/>
</svg>
