<svg width="26" height="21" viewBox="0 0 26 21" fill="none" xmlns="http://www.w3.org/2000/svg">
<path d="M24.8749 7.27286H20.6922L17.3485 0.494236C17.3105 0.439183 17.2619 0.3922 17.2056 0.355999C17.1494 0.319799 17.0865 0.295095 17.0206 0.283313C16.9548 0.27153 16.8872 0.272903 16.8219 0.28735C16.7565 0.301796 16.6947 0.329033 16.64 0.367488L15.6614 0.813647C15.6064 0.851676 15.5594 0.900228 15.5232 0.956501C15.487 1.01277 15.4623 1.07566 15.4505 1.14152C15.4387 1.20739 15.4401 1.27493 15.4546 1.34027C15.469 1.4056 15.4962 1.46743 15.5347 1.52219L18.2243 7.27793H8.09571L10.7854 1.52219C10.8238 1.46743 10.851 1.4056 10.8655 1.34027C10.8799 1.27493 10.8813 1.20739 10.8695 1.14152C10.8577 1.07566 10.833 1.01277 10.7968 0.956501C10.7606 0.900228 10.7137 0.851676 10.6586 0.813647L9.67502 0.367488C9.62026 0.329033 9.55844 0.301796 9.4931 0.28735C9.42777 0.272903 9.36022 0.27153 9.29436 0.283313C9.22849 0.295095 9.16561 0.319799 9.10934 0.355999C9.05307 0.3922 9.00451 0.439183 8.96649 0.494236L5.62788 7.27286H1.44511C1.31065 7.27286 1.18169 7.32627 1.08661 7.42136C0.991526 7.51644 0.93811 7.6454 0.93811 7.77986L0.93811 8.79387C0.93811 8.92833 0.991526 9.05729 1.08661 9.15237C1.18169 9.24745 1.31065 9.30087 1.44511 9.30087H2.09154L5.20453 19.086C5.33293 19.5009 5.59115 19.8637 5.94118 20.1208C6.29121 20.378 6.71455 20.516 7.14888 20.5145H19.175C19.6078 20.516 20.0297 20.3791 20.3791 20.1237C20.7284 19.8682 20.987 19.5077 21.1168 19.0949L24.2298 9.30974H24.8762C25.0107 9.30974 25.1396 9.25632 25.2347 9.16124C25.3298 9.06616 25.3832 8.93721 25.3832 8.80274V7.78874C25.3844 7.72131 25.3721 7.65432 25.3471 7.59169C25.322 7.52907 25.2848 7.47207 25.2374 7.42403C25.1901 7.37598 25.1337 7.33787 25.0714 7.31192C25.0092 7.28596 24.9424 7.27268 24.8749 7.27286Z" fill="white"/>
</svg>
