<svg width="124" height="160" viewBox="0 0 124 160" fill="none" xmlns="http://www.w3.org/2000/svg">
<path d="M61.706 160C95.7853 160 123.412 158.96 123.412 157.677C123.412 156.394 95.7853 155.354 61.706 155.354C27.6267 155.354 0 156.394 0 157.677C0 158.96 27.6267 160 61.706 160Z" fill="#90A2BF"/>
<path d="M38.6203 151.143C38.6203 152.305 38.1847 152.74 37.7491 152.74H35.7164C35.2809 152.74 34.8453 152.305 34.8453 151.869V120.218C34.8453 119.782 35.2809 119.347 35.7164 119.347H37.7491C38.1847 119.347 38.6203 119.782 38.6203 119.347V151.143Z" fill="#B1D9DF"/>
<path d="M41.0887 128.203C41.0887 129.22 40.0722 129.946 38.7655 129.946H34.5551C33.2484 129.946 32.2319 129.22 32.2319 128.203V121.379C32.2319 120.363 33.2484 119.637 34.5551 119.637H38.7655C40.0722 119.637 41.0887 120.363 41.0887 121.379V128.203Z" fill="#B1D9DF"/>
<path d="M60.6894 151.869C60.6894 152.45 60.2537 152.886 59.6729 152.886H13.9379C13.3571 152.886 12.9216 152.45 12.9216 151.869C12.9216 151.289 13.3571 150.853 13.9379 149.837H59.6729C60.2537 150.853 60.6894 151.289 60.6894 151.869Z" fill="#B1D9DF"/>
<path d="M14.2284 157.822C16.4736 157.822 18.2936 156.067 18.2936 153.902C18.2936 151.737 16.4736 149.982 14.2284 149.982C11.9831 149.982 10.163 151.737 10.163 153.902C10.163 156.067 11.9831 157.822 14.2284 157.822Z" fill="#93CBCD"/>
<path d="M59.9635 157.677C62.2087 157.677 64.0287 155.922 64.0287 153.757C64.0287 151.592 62.2087 149.837 59.9635 149.837C57.7183 149.837 55.8981 151.592 55.8981 153.757C55.8981 155.922 57.7183 157.677 59.9635 157.677Z" fill="#93CBCD"/>
<path d="M40.3627 105.408C40.3627 110.345 37.0233 114.265 33.1032 114.265H15.6803C11.615 114.265 8.42078 110.345 8.42078 105.408V68.8203C8.42078 63.8838 11.7602 59.9637 15.6803 59.9637H33.1032C37.1685 59.9637 40.3627 63.8838 40.3627 68.8203V105.408Z" fill="#B1D9DF"/>
<path d="M65.1903 119.492C65.1903 120.508 63.8835 121.379 62.4316 121.379H11.1793C9.58216 121.379 8.42078 120.508 8.42078 119.492V116.298C8.42078 115.281 9.72735 114.41 11.1793 114.41H62.4316C64.0287 114.41 65.1903 115.281 65.1903 116.298V119.492Z" fill="#93CBCD"/>
<path d="M49.6547 78.8385C51.6874 80.5808 54.7364 84.7914 57.6402 84.9366C60.8344 85.0817 62.722 80.726 63.7383 78.403C64.7547 76.2251 67.6584 70.7079 67.0776 68.2396C66.2065 64.4647 59.9633 67.8041 57.4951 68.8204C53.2845 70.5627 48.7837 73.1761 49.3644 77.9674L49.6547 78.8385Z" fill="#647AAB"/>
<path d="M77.5315 148.675C77.6767 149.837 78.2574 150.998 78.4026 152.16C80.2901 152.45 82.6131 152.305 84.5005 152.015C84.3553 150.708 83.9199 148.53 83.3391 147.368L77.5315 148.675Z" fill="#E0C3C1"/>
<path d="M90.0178 144.319C90.0178 145.481 90.3082 146.788 90.5986 147.949C92.4861 147.949 94.5188 147.078 96.2611 146.643C95.8255 145.626 95.3899 143.739 95.5351 142.577L90.0178 144.319Z" fill="#E0C3C1"/>
<path d="M32.5223 34.5554C30.9252 31.3612 27.7311 21.9238 29.4733 18.7296C31.2156 15.5354 34.8454 15.3902 39.0559 15.5354C43.4116 15.6806 44.4278 19.02 46.0249 21.1978C46.3153 21.6334 46.4606 24.1016 46.4606 24.1016C46.3154 30.0545 42.976 33.2487 37.604 35.2813C36.7328 35.5717 36.0068 35.8621 35.1356 36.1525L32.5223 34.5554Z" fill="#3D3B3E"/>
<path d="M45.1538 48.4937C45.0086 50.236 44.4279 52.9945 44.1376 54.5916C43.8472 56.7695 42.1048 53.7205 40.6529 53.1397C36.7328 51.833 33.103 48.3485 30.6348 45.0091C30.054 44.138 28.6022 42.5408 29.4733 41.6697C30.1993 41.0889 30.78 40.6533 31.2156 40.0726C32.0867 39.0563 32.232 37.8947 32.3772 36.4428C32.5223 35.5717 32.5223 34.8458 32.6675 34.1198C32.6675 33.6842 32.6675 33.1035 32.6675 32.6679C32.8127 31.5064 32.9578 30.49 32.8126 29.3285L42.5405 33.9746C42.3953 34.4102 42.3952 34.8458 42.25 35.4265C41.9596 37.1688 41.5241 39.637 42.25 41.2341C42.25 41.2341 42.25 41.3793 42.3952 41.3793C42.9759 42.2505 43.9923 41.9601 44.4279 43.1216C45.1538 44.1379 45.299 47.0418 45.1538 48.4937Z" fill="#E0C3C1"/>
<path d="M42.2501 35.2813C41.9598 37.0236 41.5242 39.4918 42.2501 41.0889C42.2501 41.0889 42.2501 41.2341 42.3953 41.2341C41.6693 41.6697 40.9434 41.9601 40.0723 41.8149C37.4588 41.6697 35.2811 39.0563 33.8292 34.8458C33.684 33.8294 33.3935 32.6679 33.3935 32.2323C33.1032 30.9256 33.1031 30.49 32.8127 29.3285L42.5406 33.9746C42.5406 34.265 42.3953 34.8457 42.2501 35.2813Z" fill="#BE9DA5"/>
<path d="M46.6059 28.4574C46.4607 34.7006 45.0088 40.0727 41.3791 40.5082C37.7493 40.9438 32.9581 35.5717 32.3773 29.3285C31.6514 23.0853 34.9907 17.1325 38.4752 16.697C42.105 16.4066 46.7511 17.2777 46.6059 28.4574Z" fill="#E0C3C1"/>
<path d="M30.7799 28.0218C31.9414 27.7314 32.8127 30.49 33.2483 31.3612C33.829 31.3612 33.3935 29.1833 33.8291 28.167C33.9743 27.441 34.9904 27.0054 35.1356 26.2795C35.1356 25.5535 35.1357 25.118 34.9905 24.392C34.9905 24.392 35.7165 21.9238 38.1848 21.6334C39.7819 21.4882 39.9269 23.5209 41.6692 23.6661C42.8307 23.6661 47.1866 25.4084 47.7673 24.5372C48.2029 23.8113 44.8634 18.7296 43.8471 18.0037C43.4115 17.7133 43.1212 17.2777 42.6857 16.9873C41.9597 16.5517 40.9433 16.2614 40.2173 15.971C35.8616 14.8095 31.9415 19.7459 30.6348 23.3757C30.3444 24.2468 30.4896 24.8276 30.3445 25.6987C30.3445 26.4247 29.9088 27.1506 30.4896 27.7314L30.7799 28.0218Z" fill="#3D3B3E"/>
<path d="M48.4934 89.5826C54.1558 90.1633 68.2392 92.196 72.7401 93.3575C77.241 94.5191 78.8382 95.0998 81.1613 98.5844C82.3228 100.327 85.517 105.844 86.9689 109.329C90.7438 118.04 92.9216 132.559 98.2936 142.577C98.2936 142.577 89.4372 145.336 89.0016 145.481C89.0016 145.481 84.3554 132.123 78.9834 119.492C75.2084 110.635 70.272 98.0036 68.8201 97.4229C65.0451 95.971 48.0577 95.5354 42.3953 95.245C43.8472 93.2123 46.1703 91.6152 48.4934 89.5826Z" fill="#D972AA"/>
<path d="M30.7799 40.7985C31.5059 40.7985 34.555 45.2995 35.4261 45.5898C37.604 46.6062 39.201 46.6061 41.5241 45.8802C42.1048 45.735 41.9596 45.735 42.3952 45.2994C42.6855 45.0091 43.1211 42.686 43.1211 41.8149C44.8634 42.3956 44.428 43.7023 44.7184 44.4283C45.0087 45.5898 45.8799 46.6062 46.1703 47.7677C46.751 50.0907 47.7673 52.7042 46.4606 54.882C46.6058 54.882 46.8962 57.2051 47.0414 57.2051C43.4116 58.0762 39.4914 56.6243 35.8616 57.2051C36.4424 56.1888 35.4261 54.882 34.9905 53.8657C34.7001 52.9945 34.7001 51.9782 34.4097 50.9619C34.1193 49.3648 33.5386 48.0581 32.8126 46.7513C32.0867 45.2994 30.9251 43.7024 30.6348 42.1053L30.7799 40.7985Z" fill="white"/>
<path d="M55.6077 90.5989C54.7365 88.8566 54.0106 83.9201 53.4298 81.5971C52.8491 79.274 51.8327 67.2232 52.1231 64.6098C52.4134 61.9964 55.3172 58.5118 54.7364 55.7532C54.1556 52.9946 52.4134 46.0254 50.8163 44.8639C49.3644 43.7024 45.4442 42.2504 42.976 41.8149C44.2827 43.8475 43.1213 55.4628 35.281 46.3158C33.9743 44.7187 31.7963 41.8149 30.6348 40.7985C28.3117 42.2504 24.682 43.8475 23.2301 44.5735C21.7782 45.4446 19.1648 47.9129 18.1484 49.6552C16.261 52.9945 17.4224 59.9637 19.1647 68.3847C20.907 76.8058 23.5204 84.5009 23.5204 87.2595C23.3752 90.0181 55.6077 90.5989 55.6077 90.5989Z" fill="#647AAB"/>
<path d="M76.3699 113.249C73.6112 105.844 72.0141 100.472 69.1103 96.9873C66.0613 93.5027 57.7854 95.3902 54.0105 94.5191C50.0903 93.6479 49.6549 93.9383 44.7184 94.0835C46.1703 93.7931 44.7184 94.0835 44.7184 94.0835C39.6367 94.2287 29.3281 97.7133 24.1012 99.6007C23.3753 110.635 25.2629 113.394 29.4734 114.555C31.5061 115.136 34.9905 114.991 37.1684 114.991C44.7183 114.991 55.4625 115.136 59.9634 115.136C63.8836 115.136 65.045 115.281 66.2065 117.895C68.8199 124.428 68.2392 125.735 71.143 131.688C73.9016 137.35 75.7892 148.094 77.3863 150.998L85.5169 148.094C82.1775 139.819 79.1285 120.799 76.3699 113.249Z" fill="#D972AA"/>
<path d="M34.5551 45.4446C34.5551 45.4446 36.4424 79.8548 40.2173 92.0508L40.7981 97.2777L23.3753 100.327C23.3753 100.327 23.8109 98.1488 23.8109 95.0998C23.8109 95.0998 23.8108 90.0182 23.5204 88.2759C23.5204 88.2759 23.2302 86.098 23.085 85.6624C22.9398 85.3721 22.5042 83.3394 22.359 82.0327L20.1812 49.0744L34.5551 45.4446Z" fill="#647AAB"/>
<path d="M43.2666 42.2504C43.2666 42.2504 43.1214 42.2504 43.2666 42.2504C43.1214 41.8149 42.9761 41.6697 42.9761 41.6697C42.9761 41.5245 42.3953 41.2341 42.3953 41.2341L39.3463 42.8312V44.5735L39.9271 46.0254C39.9271 46.0254 42.2502 46.3158 42.8309 44.8639C42.8309 44.8639 43.2666 42.9764 43.2666 42.2504Z" fill="white"/>
<path d="M34.5551 45.4446C34.5551 45.4446 34.8453 50.9619 35.1357 53.1397C35.2809 55.4628 37.8944 83.1942 38.9108 86.824C38.9108 86.824 39.7818 92.196 40.653 94.8094C40.653 94.8094 51.6874 92.7768 54.0105 90.4537C54.0105 90.4537 43.702 46.0254 43.4116 44.8639C43.4116 44.8639 39.4915 48.6388 34.5551 45.4446Z" fill="white"/>
<path d="M40.3627 46.3158L39.927 44.7187L30.4896 40.6534L34.555 45.4447C34.555 45.4447 39.0559 47.6225 40.3627 46.3158Z" fill="white"/>
<path d="M38.9107 45.4447C38.4752 47.4774 41.5241 77.0962 41.9597 81.7423C42.3953 84.9365 44.2827 87.55 45.8798 89.7278C46.7509 86.9692 46.8962 84.3558 46.4606 81.3068C46.025 78.2578 40.5077 45.7351 40.2173 45.1543L38.9107 45.4447Z" fill="#71B9B0"/>
<path d="M78.2574 152.16C79.8545 154.483 76.9507 157.967 81.1613 157.387C83.9199 157.096 89.2919 156.806 92.0506 156.515C94.2284 156.225 96.1158 156.08 97.5677 154.483C96.9869 151.869 95.3899 152.45 93.5025 152.16C91.4698 151.869 90.8889 151.869 88.8563 151.289C87.6947 150.853 85.0814 150.998 84.2102 149.982L78.2574 152.16Z" fill="#2B3548"/>
<path d="M90.3081 147.659C91.9052 149.982 89.0014 153.466 93.2119 152.886C95.9705 152.595 101.343 152.305 104.101 152.015C106.279 151.724 108.167 151.579 109.619 149.982C109.038 147.368 107.441 147.949 105.553 147.659C103.52 147.368 102.94 147.368 100.907 146.788C99.7456 146.352 97.1322 146.497 96.2611 145.481L90.3081 147.659Z" fill="#2B3548"/>
<path d="M41.9597 73.1761C41.9597 73.3213 41.8146 73.4665 41.8146 73.4665C41.8146 73.4665 21.6331 82.6135 20.1811 83.049C18.7292 83.4846 15.3899 82.4683 14.9543 81.5971C14.3736 80.5808 12.7764 76.8058 13.7927 66.2069C14.8091 56.7695 18.1484 49.6552 18.1484 49.6552C18.1484 49.6552 25.6983 56.0436 26.2791 56.9147C26.7147 57.7859 27.0051 60.9801 26.8599 62.2868C26.7147 63.5935 26.2791 69.4011 26.2791 69.4011C26.2791 69.4011 37.6041 64.0291 40.3627 62.5772C40.6531 62.432 40.7981 62.432 40.9433 62.432C41.6692 62.7224 42.6857 66.4973 43.2665 68.53C43.4117 70.2723 42.2501 72.1598 41.9597 73.1761Z" fill="#647AAB"/>
<path d="M31.6512 39.637L39.4914 42.8312L40.0722 44.7187C38.9106 44.7187 30.6348 40.6534 30.6348 40.6534C30.6348 40.6534 31.3608 39.9274 31.6512 39.637Z" fill="white"/>
<path d="M54.0105 63.4483C54.1557 63.5935 54.0106 64.0291 53.7202 64.1742C53.4298 64.3194 53.1394 64.3194 52.9942 64.029L45.0088 52.1234C44.8636 51.9783 45.0087 51.5427 45.2991 51.3975C45.5894 51.2523 45.8798 51.2523 46.025 51.5427L54.0105 63.4483Z" fill="#444E78"/>
<path d="M41.6693 73.4665C40.6529 73.4665 39.927 72.305 39.4914 71.1434C39.3462 70.8531 39.3463 70.7079 39.2011 70.4175C39.2011 70.2723 39.2011 70.2723 39.0559 70.1271C38.6204 68.6752 38.33 67.0781 38.4751 65.6262C38.6203 64.6098 38.9106 63.7387 39.4914 63.0128C39.6366 62.8676 39.7819 62.7224 39.927 62.5772C40.2174 62.432 40.3627 62.432 40.5078 62.432C40.5078 62.432 40.653 62.432 40.653 62.5772C40.9434 62.8675 41.2338 63.3031 41.379 64.0291C41.8145 65.1906 42.2502 66.6425 42.5406 67.804C42.5406 68.0944 42.6857 68.2396 42.6857 68.53C42.6857 68.6752 42.6857 68.8204 42.8309 69.1107C43.2664 70.853 41.9596 73.4665 41.6693 73.4665Z" fill="#566688"/>
<path d="M39.6123 46.3582C40.5668 46.2369 41.2506 45.4292 41.1393 44.5542C41.0281 43.6792 40.164 43.0682 39.2095 43.1895C38.2549 43.3109 37.5714 44.1186 37.6826 44.9936C37.7938 45.8686 38.6577 46.4795 39.6123 46.3582Z" fill="#71B9B0"/>
<path d="M52.1231 62.8676C51.6875 63.3031 49.2192 64.0291 48.7836 64.9002C48.3481 65.7714 47.1865 68.2396 44.5731 68.6752C44.1375 68.6752 43.7019 68.9655 43.1212 69.1107C42.8308 69.2559 42.5404 69.4011 42.25 69.5463C41.3789 69.9819 40.3627 70.5627 39.6367 71.1434C39.4915 70.8531 39.4914 70.7079 39.3462 70.4175C39.3462 70.2723 39.3463 70.2723 39.2011 70.1271C38.7655 68.6752 38.4751 67.0781 38.6203 65.6262C39.0559 65.481 40.0723 65.0454 40.3627 64.9002C40.5079 64.755 40.653 64.7551 40.7981 64.6099C40.9433 64.4647 41.2337 64.3194 41.5241 64.0291C42.8308 62.7224 44.7183 59.9638 45.0087 59.383C45.2991 58.8022 47.7673 56.1888 47.9125 56.0436C48.0577 55.8984 49.2192 55.608 49.5096 56.0436C49.9452 56.4792 50.3807 57.0599 50.3807 57.0599C50.3807 57.0599 49.8001 57.4955 50.526 57.9311C51.252 58.3667 51.6874 59.0926 51.6874 59.9637C52.123 60.8349 52.4135 62.432 52.1231 62.8676Z" fill="#E0C3C1"/>
<path d="M63.4478 77.5318L42.6857 81.4519L52.849 56.0436L73.6112 51.9783L63.4478 77.5318Z" fill="#C8E2D4"/>
<path d="M67.6585 62.1416C66.3518 61.9964 66.0613 62.5771 67.0777 63.4483C67.5132 63.7386 67.9489 64.029 68.2393 64.4646C64.6095 64.4646 62.5769 67.9492 65.1903 70.853C67.8037 73.7568 68.6748 71.1434 69.8363 68.6751C70.4171 67.5136 71.869 65.3357 71.1431 64.029C70.4171 63.1579 68.6748 62.2867 67.6585 62.1416Z" fill="#E0C3C1"/>
<path d="M32.6676 29.0381C32.3772 28.3122 30.4897 25.8439 29.7638 27.5862C29.3282 28.6026 30.6349 31.0708 31.2157 31.7967C31.6513 32.3775 32.3773 32.9583 33.1032 32.5227C32.8129 31.6516 32.9579 30.6352 32.8128 29.7641L32.6676 29.0381Z" fill="#E0C3C1"/>
<path d="M49.3645 28.8929C50.3268 28.8929 51.1067 28.1128 51.1067 27.1506C51.1067 26.1883 50.3268 25.4083 49.3645 25.4083C48.4023 25.4083 47.6223 26.1883 47.6223 27.1506C47.6223 28.1128 48.4023 28.8929 49.3645 28.8929Z" fill="#ACC7E6"/>
<path d="M54.301 26.2794C55.4236 26.2794 56.3337 25.3694 56.3337 24.2468C56.3337 23.1242 55.4236 22.2141 54.301 22.2141C53.1784 22.2141 52.2683 23.1242 52.2683 24.2468C52.2683 25.3694 53.1784 26.2794 54.301 26.2794Z" fill="#ACC7E6"/>
<path d="M57.6403 20.4718C59.0035 20.4718 60.1086 19.3668 60.1086 18.0036C60.1086 16.6404 59.0035 15.5353 57.6403 15.5353C56.2771 15.5353 55.1721 16.6404 55.1721 18.0036C55.1721 19.3668 56.2771 20.4718 57.6403 20.4718Z" fill="#ACC7E6"/>
<path d="M70.2721 15.6806C76.8474 15.6806 82.1776 12.1704 82.1776 7.84028C82.1776 3.51021 76.8474 0 70.2721 0C63.6968 0 58.3663 3.51021 58.3663 7.84028C58.3663 12.1704 63.6968 15.6806 70.2721 15.6806Z" fill="#ACC7E6"/>
<path d="M67.8223 7.82539C68.9746 7.82539 69.6447 7.12693 69.6447 5.90732C69.6447 4.71995 68.9543 4 67.8223 4C66.6954 4 66 4.73069 66 5.90732C66 7.12156 66.6751 7.82539 67.8223 7.82539ZM67.8223 6.76696C67.5279 6.76696 67.3553 6.45534 67.3553 5.91269C67.3553 5.38617 67.5381 5.05843 67.8223 5.05843C68.1066 5.05843 68.2843 5.38617 68.2843 5.91269C68.2843 6.44997 68.1168 6.76696 67.8223 6.76696ZM68.797 11.9033L73.5635 4.15044H72.2081L67.4416 11.9033H68.797ZM73.1827 12C74.335 12 75 11.2962 75 10.0766C75 8.89456 74.3147 8.16924 73.1827 8.16924C72.0558 8.16924 71.3604 8.89993 71.3604 10.0766C71.3604 11.2962 72.0305 12 73.1827 12ZM73.1827 10.9362C72.8832 10.9362 72.7157 10.63 72.7157 10.0819C72.7157 9.56078 72.8934 9.23304 73.1827 9.23304C73.467 9.23304 73.6447 9.56078 73.6447 10.0819C73.6447 10.6246 73.4772 10.9362 73.1827 10.9362Z" fill="white"/>
</svg>
