<svg width="169" height="160" viewBox="0 0 169 160" fill="none" xmlns="http://www.w3.org/2000/svg">
<path d="M0.741699 155.417C0.741699 157.946 37.2912 160 82.3791 160C127.467 160 164.017 157.946 164.017 155.417C164.017 152.888 127.467 150.834 82.3791 150.834C37.2912 150.834 0.741699 152.888 0.741699 155.417Z" fill="#8EA7C2"/>
<path d="M141.121 42.0223H27.2314V94.2413H141.121V42.0223Z" fill="#0D4957"/>
<path d="M141.121 94.2222V83.2878C133.229 82.9836 131.936 90.9324 122.903 90.9324C113.224 90.9324 113.224 83.4209 103.525 83.4209C93.8458 83.4209 93.8458 90.9324 84.1665 90.9324C74.4871 90.9324 74.4871 83.4209 64.8078 83.4209C55.1284 83.4209 55.1284 90.9324 45.4491 90.9324C36.4163 90.9324 35.1041 82.9836 27.2504 83.2878V94.2222H141.121Z" fill="#12BBB5"/>
<path d="M144.41 42.0223H141.121V94.2413H144.41V42.0223Z" fill="#12BBB5"/>
<path d="M27.2125 42.0223H23.9226V94.2413H27.2125V42.0223Z" fill="#12BBB5"/>
<path d="M131.46 80.3213C131.46 82.1278 130.586 87.4714 122.542 87.4714C114.403 87.4714 110.77 80.3023 113.471 75.5482L117.008 78.3246H125.375C125.375 78.3246 120.507 75.9855 120.507 71.5737C120.507 69.1586 122.713 67.2 125.432 67.2C128.151 67.2 130.357 69.1586 130.357 71.5737C130.357 73.057 129.521 74.3501 128.266 75.1488C131.061 76.8793 131.46 78.838 131.46 80.3213Z" fill="#FEE86B"/>
<path d="M133.457 71.1364C133.457 71.1364 131.822 71.1364 131.613 71.1364C131.499 69.9003 130.453 69.6721 129.825 69.6721V73.6085H133.476C134.104 73.6085 134.598 73 134.598 72.3724C134.579 71.7639 134.085 71.1364 133.457 71.1364Z" fill="#EF4444"/>
<path d="M128.132 70.5659C128.132 71.1173 127.695 71.5547 127.144 71.5547C126.611 71.5547 126.155 71.1173 126.155 70.5659C126.155 70.0144 126.592 69.577 127.144 69.577C127.676 69.577 128.132 70.0144 128.132 70.5659Z" fill="#F39B4D"/>
<path d="M122.751 84.9422C120.678 84.8851 118.852 83.8202 117.749 82.2229C118.928 80.6825 120.792 79.6937 122.884 79.7508C122.903 79.7508 122.922 79.7508 122.941 79.7508C126.212 79.8649 126.098 84.9802 122.827 84.9422C122.789 84.9422 122.77 84.9422 122.751 84.9422Z" fill="#F39B4D"/>
<path d="M93.0663 80.3213C93.0663 82.1278 92.1916 87.4714 84.1476 87.4714C76.0086 87.4714 72.3764 80.3023 75.0768 75.5482L78.6138 78.3246H86.981C86.981 78.3246 82.1129 75.9855 82.1129 71.5737C82.1129 69.1586 84.3187 67.2 87.0381 67.2C89.7574 67.2 91.9633 69.1586 91.9633 71.5737C91.9633 73.057 91.1266 74.3501 89.8715 75.1488C92.6669 76.8793 93.0663 78.838 93.0663 80.3213Z" fill="#FEE86B"/>
<path d="M95.0632 71.1364C95.0632 71.1364 93.4278 71.1364 93.2186 71.1364C93.1045 69.9003 92.0586 69.6721 91.431 69.6721V73.6085H95.0822C95.7097 73.6085 96.2042 73 96.2042 72.3724C96.1851 71.7639 95.6717 71.1364 95.0632 71.1364Z" fill="#EF4444"/>
<path d="M89.7194 70.5659C89.7194 71.1173 89.2821 71.5547 88.7306 71.5547C88.1981 71.5547 87.7417 71.1173 87.7417 70.5659C87.7417 70.0144 88.1791 69.577 88.7306 69.577C89.2821 69.577 89.7194 70.0144 89.7194 70.5659Z" fill="#F39B4D"/>
<path d="M84.3568 84.9422C82.284 84.8851 80.4584 83.8202 79.3555 82.2229C80.5345 80.6825 82.3981 79.6937 84.4899 79.7508C84.5089 79.7508 84.528 79.7508 84.547 79.7508C87.8178 79.8649 87.7037 84.9802 84.4329 84.9422C84.3948 84.9422 84.3758 84.9422 84.3568 84.9422Z" fill="#F39B4D"/>
<path d="M54.4439 80.3213C54.4439 82.1278 53.5691 87.4714 45.5252 87.4714C37.3862 87.4714 33.754 80.3023 36.4543 75.5482L39.9914 78.3246H48.3586C48.3586 78.3246 43.4904 75.9855 43.4904 71.5737C43.4904 69.1586 45.6963 67.2 48.4157 67.2C51.135 67.2 53.3409 69.1586 53.3409 71.5737C53.3409 73.057 52.5042 74.3501 51.2491 75.1488C54.0445 76.8793 54.4439 78.838 54.4439 80.3213Z" fill="#FEE86B"/>
<path d="M56.4407 71.1364C56.4407 71.1364 54.8053 71.1364 54.5961 71.1364C54.482 69.9003 53.4361 69.6721 52.8086 69.6721V73.6085H56.4598C57.0873 73.6085 57.5817 73 57.5817 72.3724C57.5627 71.7639 57.0493 71.1364 56.4407 71.1364Z" fill="#EF4444"/>
<path d="M51.097 70.5659C51.097 71.1173 50.6596 71.5547 50.1081 71.5547C49.5566 71.5547 49.1193 71.1173 49.1193 70.5659C49.1193 70.0144 49.5566 69.577 50.1081 69.577C50.6596 69.577 51.097 70.0144 51.097 70.5659Z" fill="#F39B4D"/>
<path d="M45.7153 84.9422C43.6425 84.8851 41.8169 83.8202 40.714 82.2229C41.893 80.6825 43.7566 79.6937 45.8484 79.7508C45.8674 79.7508 45.8864 79.7508 45.9054 79.7508C49.1763 79.8649 49.0622 84.9802 45.7913 84.9422C45.7723 84.9422 45.7533 84.9422 45.7153 84.9422Z" fill="#F39B4D"/>
<path d="M151.086 149.598H15.6127V153.877H151.086V149.598Z" fill="#0D4957"/>
<path d="M153.767 99.756H12.9503V149.598H153.767V99.756Z" fill="#12BBB5"/>
<path d="M129.026 99.756H127.657V149.598H129.026V99.756Z" fill="#0D4957"/>
<path d="M114.175 99.756H112.805V149.598H114.175V99.756Z" fill="#0D4957"/>
<path d="M99.3036 99.756H97.9344V149.598H99.3036V99.756Z" fill="#0D4957"/>
<path d="M84.4519 99.756H83.0828V149.598H84.4519V99.756Z" fill="#0D4957"/>
<path d="M69.6002 99.756H68.2311V149.598H69.6002V99.756Z" fill="#0D4957"/>
<path d="M54.7293 99.756H53.3601V149.598H54.7293V99.756Z" fill="#0D4957"/>
<path d="M39.8774 99.756H38.5082V149.598H39.8774V99.756Z" fill="#0D4957"/>
<path d="M25.0066 99.756H23.6375V149.598H25.0066V99.756Z" fill="#0D4957"/>
<path d="M143.897 99.756H142.528V149.598H143.897V99.756Z" fill="#0D4957"/>
<path d="M153.767 105.784H12.9503V107.857H153.767V105.784Z" fill="#0D4957"/>
<path d="M153.767 99.756H12.9503V105.784H153.767V99.756Z" fill="#0F8991"/>
<path d="M7.91055 99.7676L158.768 99.7676V94.2339L7.91055 94.2339V99.7676Z" fill="#EF61A3"/>
<path d="M161.088 55.657H160.594C156.505 55.657 153.177 52.3291 153.177 48.2406V42.0223H168.485V48.2406C168.485 52.3291 165.177 55.657 161.088 55.657Z" fill="#EB4599"/>
<path d="M145.761 55.657H145.266C141.178 55.657 137.85 52.3291 137.85 48.2406V42.0223H153.177V48.2406C153.177 52.3291 149.868 55.657 145.761 55.657Z" fill="#D8D9D8"/>
<path d="M130.452 55.657H129.958C125.87 55.657 122.542 52.3291 122.542 48.2406V42.0223H137.85V48.2406C137.85 52.3291 134.541 55.657 130.452 55.657Z" fill="#EB4599"/>
<path d="M115.144 55.657H114.65C110.561 55.657 107.234 52.3291 107.234 48.2406V42.0223H122.542V48.2406C122.542 52.3291 119.233 55.657 115.144 55.657Z" fill="#D8D9D8"/>
<path d="M99.8171 55.657H99.3226C95.2341 55.657 91.9062 52.3291 91.9062 48.2406V42.0223H107.214V48.2406C107.234 52.3291 103.925 55.657 99.8171 55.657Z" fill="#EB4599"/>
<path d="M84.509 55.657H84.0146C79.9261 55.657 76.6172 52.3291 76.6172 48.2406V42.0223H91.9254V48.2406C91.9064 52.3291 88.5976 55.657 84.509 55.657Z" fill="#D8D9D8"/>
<path d="M69.1816 55.657H68.6871C64.5986 55.657 61.2708 52.3291 61.2708 48.2406V42.0223H76.598V48.2406C76.598 52.3291 73.2891 55.657 69.1816 55.657Z" fill="#EB4599"/>
<path d="M53.8734 55.657H53.3789C49.2904 55.657 45.9625 52.3291 45.9625 48.2406V42.0223H61.2708V48.2406C61.2708 52.3291 57.9619 55.657 53.8734 55.657Z" fill="#D8D9D8"/>
<path d="M38.5462 55.657H38.0518C33.9632 55.657 30.6354 52.3291 30.6354 48.2406V42.0223H45.9436V48.2406C45.9626 52.3291 42.6347 55.657 38.5462 55.657Z" fill="#EB4599"/>
<path d="M23.2382 55.657H22.7438C18.6553 55.657 15.3274 52.3291 15.3274 48.2406V42.0223H30.6356V48.2406C30.6546 52.3291 27.3268 55.657 23.2382 55.657Z" fill="#D8D9D8"/>
<path d="M7.91083 55.657H7.41639C3.32786 55.657 0 52.3291 0 48.2406V42.0223H15.3272V48.2406C15.3272 52.3291 12.0184 55.657 7.91083 55.657Z" fill="#EB4599"/>
<path d="M153.177 42.0222C145.856 30.4413 138.858 18.8602 132.221 7.27924C135.777 7.27924 139.333 7.27924 142.87 7.27924C150.971 18.8602 159.529 30.4603 168.466 42.0222C163.389 42.0222 158.293 42.0222 153.177 42.0222Z" fill="#EF61A3"/>
<path d="M137.85 42.0222C132.145 30.4413 126.725 18.8602 121.553 7.27924C125.109 7.27924 128.665 7.27924 132.221 7.27924C138.858 18.8602 145.837 30.4603 153.177 42.0222C148.081 42.0222 142.965 42.0222 137.85 42.0222Z" fill="#F1F0F0"/>
<path d="M122.542 42.0222C118.472 30.4413 114.593 18.8602 110.904 7.27924C114.46 7.27924 118.016 7.27924 121.572 7.27924C126.725 18.8602 132.164 30.4603 137.869 42.0222C132.753 42.0222 127.638 42.0222 122.542 42.0222Z" fill="#EF61A3"/>
<path d="M107.233 42.0222C104.799 30.4413 102.46 18.8602 100.254 7.27924C103.81 7.27924 107.367 7.27924 110.923 7.27924C114.612 18.8602 118.491 30.4603 122.561 42.0222C117.445 42.0222 112.33 42.0222 107.233 42.0222Z" fill="#F1F0F0"/>
<path d="M91.9063 42.0222C91.0886 30.4413 90.3089 18.8602 89.5863 7.27924C93.1424 7.27924 96.6985 7.27924 100.255 7.27924C102.46 18.8602 104.799 30.4603 107.234 42.0222C102.118 42.0222 97.0217 42.0222 91.9063 42.0222Z" fill="#EF61A3"/>
<path d="M76.5981 42.0222C77.4158 30.4413 78.1955 18.8602 78.9181 7.27924C82.4742 7.27924 86.0303 7.27924 89.5863 7.27924C90.328 18.8602 91.1076 30.4603 91.9063 42.0222C86.8099 42.0222 81.6945 42.0222 76.5981 42.0222Z" fill="#F1F0F0"/>
<path d="M61.2708 42.0222C63.7239 30.4413 66.0438 18.8602 68.2497 7.27924C71.8058 7.27924 75.3619 7.27924 78.8989 7.27924C78.1573 18.8602 77.3966 30.4603 76.5789 42.0222C71.4825 42.0222 66.3862 42.0222 61.2708 42.0222Z" fill="#EF61A3"/>
<path d="M45.9625 42.0222C50.032 30.4413 53.9114 18.8602 57.6006 7.27924C61.1566 7.27924 64.7127 7.27924 68.2688 7.27924C66.0629 18.8602 63.7238 30.4603 61.2897 42.0222C56.1743 42.0222 51.0589 42.0222 45.9625 42.0222Z" fill="#F1F0F0"/>
<path d="M30.6544 42.0222C36.3593 30.4413 41.798 18.8602 46.9515 7.27924C50.5076 7.27924 54.0636 7.27924 57.6006 7.27924C53.9114 18.8602 50.0321 30.4603 45.9626 42.0222C40.8472 42.0222 35.7508 42.0222 30.6544 42.0222Z" fill="#EF61A3"/>
<path d="M15.3274 42.0222C22.6487 30.4413 29.6467 18.8602 36.2644 7.27924C39.8205 7.27924 43.3766 7.27924 46.9326 7.27924C41.7792 18.8602 36.3405 30.4603 30.6356 42.0222C25.5392 42.0222 20.4428 42.0222 15.3274 42.0222Z" fill="#F1F0F0"/>
<path d="M0 42.0222C8.95673 30.4413 17.4951 18.8602 25.5961 7.27924C29.1521 7.27924 32.7082 7.27924 36.2642 7.27924C29.6465 18.8602 22.6485 30.4603 15.3272 42.0222C10.2308 42.0222 5.11541 42.0222 0 42.0222Z" fill="#EF61A3"/>
<path d="M25.5432 7.26416L142.893 7.26416V-6.24657e-05L25.5432 -6.24657e-05V7.26416Z" fill="#EB4599"/>
</svg>
