<svg width="623" height="520" viewBox="0 0 623 520" fill="none" xmlns="http://www.w3.org/2000/svg">
<path d="M0.00598145 504.5C0.00598145 513.063 139.293 520 311.052 520C482.812 520 622.006 513.125 622.006 504.5C622.006 495.938 482.719 489 310.96 489C139.2 489 0.00598145 495.938 0.00598145 504.5Z" fill="#BCBCBB"/>
<path d="M372.082 446.139L364.248 503.274H359.698L351.911 444.92L372.082 446.139Z" fill="#FDDFDC"/>
<path d="M364.248 503.274L365.093 509.888H348.534L359.557 502.054L364.248 503.274Z" fill="#E72790"/>
<path d="M405.669 443.7L397.882 500.835H393.285L385.498 442.527L405.669 443.7Z" fill="#FDDFDC"/>
<path d="M421.477 344.957C432.594 342.002 441.272 331.448 442.07 319.955C440.615 318.36 439.771 316.249 439.818 314.091C439.818 313.106 440.099 312.074 440.897 311.511C441.413 311.183 442.07 311.089 442.633 310.855C444.181 310.245 444.978 308.556 445.775 307.102C446.338 306.07 447.323 304.991 448.449 305.273C449.153 305.46 449.575 306.07 449.903 306.68C451.357 309.354 451.733 312.59 450.935 315.546C450.419 317.516 449.293 319.298 447.839 320.752C447.933 334.215 441.647 347.631 431.093 356.028C420.257 364.659 405.246 367.802 391.831 364.237L390.939 333.183C397.366 343.034 410.266 347.959 421.477 344.957Z" fill="#FDDFDC"/>
<path d="M409.468 392.898C411.438 405.564 413.08 418.276 416.645 430.613C418.006 435.304 419.6 440.557 417.208 444.826C414.91 448.907 409.609 450.361 404.965 449.986C400.274 449.611 395.865 447.734 391.268 446.843C388.219 446.233 384.794 446.515 381.98 447.922C379.259 449.282 377.57 451.956 374.24 452.191C371.613 452.378 369.033 451.44 366.594 450.455C359.042 447.406 354.632 449.188 347.268 451.205C340.466 453.035 335.025 450.033 334.602 442.621C334.415 439.197 335.353 435.82 336.291 432.489C341.31 414.898 346.329 397.308 351.349 379.717C355.383 365.598 356.649 347.397 371.285 340.032C377.664 336.796 382.871 338.156 389.063 341.58C401.963 348.757 405.247 369.444 407.733 382.766C408.389 386.097 408.952 389.474 409.468 392.898Z" fill="#C1E4D6"/>
<path d="M355.383 318.454C355.383 332.433 366.735 343.784 380.713 343.784C394.692 343.784 406.044 332.433 406.044 318.454C406.044 304.475 394.692 293.123 380.713 293.123C366.735 293.123 355.383 304.475 355.383 318.454Z" fill="#FDDFDC"/>
<path d="M542.594 489.248L526.317 497.035H552.961L551.976 489.248H542.594Z" fill="#231F20"/>
<path d="M558.402 366.863L551.976 489.248H542.594L530.21 360.953L558.402 366.863Z" fill="#F1BAAD"/>
<path d="M482.317 494.642L466.087 502.476H492.684L491.699 494.642H482.317Z" fill="#231F20"/>
<path d="M508.164 366.863L491.699 494.642H482.317L478.283 360.953L508.164 366.863Z" fill="#F1BAAD"/>
<path d="M534.901 173.366H520.36V193.068H534.901V173.366Z" fill="#F1BAAD"/>
<path d="M485.46 223.559C487.149 218.68 490.808 214.693 494.373 210.94C500.048 204.983 505.865 199.026 513.042 194.992C533.822 183.311 557.605 197.431 559.716 220.557C564.501 273.188 566.471 305.039 571.772 340.971H471.247C472.185 331.777 485.038 255.41 484.428 238.007C484.24 233.269 483.912 228.343 485.366 223.84C485.366 223.746 485.413 223.653 485.46 223.559Z" fill="#EE4599"/>
<path d="M571.772 340.97L579.183 394.915H466.087C466.978 388.77 468.667 367.051 471.294 340.97H571.772Z" fill="#FEE86B"/>
<path d="M549.631 171.725C543.111 183.921 526.552 188.846 514.918 182.608C503.285 176.369 500.987 161.264 507.507 149.068C514.027 136.872 528.803 132.087 540.437 138.326C552.023 144.612 556.151 159.529 549.631 171.725Z" fill="#F1BAAD"/>
<path d="M571.115 219.9C578.151 217.648 586.876 211.55 584.531 202.966C582.983 197.29 576.275 193.631 570.693 195.366C573.32 191.52 573.226 186.172 570.833 182.279C568.207 177.963 563.187 177.823 560.185 174.258C558.637 172.475 558.309 169.942 558.497 167.597C558.684 165.251 559.388 162.953 559.575 160.607C560.607 149.818 551.976 139.264 542.032 135.933C538.842 134.855 535.23 133.729 531.853 133.729C528.334 133.729 525.895 133.588 522.612 131.852C519.422 130.164 515.997 128.24 512.479 128.944C508.68 129.695 506.006 133.682 506.194 137.575C506.381 141.422 509.055 144.94 512.479 146.722C520.501 150.944 532.368 147.051 536.637 157.23C538.889 162.577 536.825 169.145 535.464 174.445C533.729 181.153 532.134 188.002 532.603 194.897C533.307 205.499 540.061 214.693 549.678 219.102C556.339 222.057 564.126 222.151 571.115 219.9Z" fill="#864E9B"/>
<path d="M502.91 156.057C502.675 157.558 503.66 159.012 505.208 159.247C506.709 159.481 508.163 158.496 508.398 156.948C508.633 155.447 507.648 153.993 506.1 153.759C504.598 153.524 503.191 154.556 502.91 156.057Z" fill="#F1BAAD"/>
<path d="M449.059 296.361C449.762 296.736 457.221 288.809 458.112 287.917C460.833 285.244 463.507 282.523 466.087 279.755C470.731 274.736 475.187 269.529 479.315 264.088C487.383 253.486 494.372 241.947 499.204 229.469C500.658 225.717 501.878 221.87 502.816 217.977C504.458 211.222 506.24 203.951 513.042 200.433C518.155 197.759 524.018 198.228 528.287 202.309C533.494 207.329 530.773 216.476 528.803 223.418C521.72 247.998 473.217 292.796 454.172 303.163C451.451 300.16 453.374 298.519 449.059 296.361Z" fill="#F1BAAD"/>
<path d="M403.605 295.423C406.279 298.19 408.39 301.521 409.844 305.18C412.846 312.732 412.611 321.551 409.187 328.915C412.987 330.323 416.739 332.152 419.554 335.06C422.368 337.969 424.198 342.097 423.494 346.084C422.791 350.071 419.085 353.589 415.051 353.261C417.115 356.31 415.942 360.813 413.034 363.065C410.125 365.316 406.044 365.598 402.526 364.519C399.008 363.44 396.006 361.235 393.191 358.843C391.268 357.201 388.454 355.09 387.375 352.792C384.185 355.559 378.978 354.903 375.694 352.276C372.364 349.649 370.581 345.568 369.362 341.487C365.75 329.291 366.407 316.25 367.673 303.585C364.061 304.617 360.262 301.052 360.215 297.299C360.168 293.546 363.029 290.169 366.453 288.668C369.878 287.12 373.818 287.073 377.571 287.354C387.234 288.011 396.287 287.87 403.605 295.423Z" fill="#CCB0D2"/>
<path d="M352.803 311.887C352.803 313.81 354.351 315.358 356.274 315.358C358.197 315.358 359.745 313.81 359.745 311.887C359.745 309.964 358.197 308.416 356.274 308.416C354.351 308.416 352.803 309.964 352.803 311.887Z" fill="#FDDFDC"/>
<path d="M334.978 331.401C335.212 332.011 327.097 365.738 327.097 365.738L319.498 331.401H334.978Z" fill="#FEE86B"/>
<path d="M314.713 326.569C314.713 330.041 317.528 332.855 320.999 332.855C324.47 332.855 327.285 330.041 327.285 326.569C327.285 323.098 324.47 320.284 320.999 320.284C317.528 320.284 314.713 323.098 314.713 326.569Z" fill="#D18ABC"/>
<path d="M325.689 361.844C327.753 361.422 328.785 360.859 330.615 359.827C329.911 360.25 336.056 374.416 341.357 373.759C351.114 372.54 354.163 347.115 364.624 346.693C369.314 346.505 370.393 349.977 370.206 353.542C370.018 356.872 363.357 370.945 360.965 374.416C358.76 377.653 354.96 381.265 351.63 383.188C333.711 393.555 326.112 366.113 325.689 361.844Z" fill="#FDDFDC"/>
<path d="M329.958 360.859C331.788 359.171 332.116 356.122 330.756 354.104C330.428 353.635 329.818 353.166 329.349 353.495C329.067 353.682 329.02 354.104 329.02 354.433C328.973 355.324 328.927 356.215 328.833 357.154C327.05 356.403 325.596 354.996 324.845 353.26C324.564 352.65 324.236 351.9 323.579 351.853C323.063 351.806 322.641 352.275 322.359 352.697C321.093 354.574 320.811 357.107 321.609 359.217C322.735 362.173 325.596 364.049 328.317 365.691L329.958 360.859Z" fill="#FDDFDC"/>
<path d="M320.248 325.397C320.248 329.337 323.438 332.527 327.378 332.527C331.318 332.527 334.508 329.337 334.508 325.397C334.508 321.457 331.318 318.267 327.378 318.267C323.438 318.267 320.248 321.457 320.248 325.397Z" fill="#12BBB5"/>
<path d="M334.227 333.606C337.776 333.606 340.654 330.729 340.654 327.18C340.654 323.63 337.776 320.753 334.227 320.753C330.678 320.753 327.801 323.63 327.801 327.18C327.801 330.729 330.678 333.606 334.227 333.606Z" fill="#EB4599"/>
<path d="M397.882 500.599L398.726 507.214H382.167L393.144 499.38L397.882 500.599Z" fill="#E72790"/>
<path d="M450.935 296.078C447.98 296.313 445.166 297.767 443.289 300.019C441.366 302.27 440.428 305.272 440.709 308.228C440.803 309.025 440.991 309.916 441.648 310.338C442.398 310.808 443.383 310.573 444.087 310.01C444.744 309.447 445.166 308.65 445.588 307.899C446.104 307.008 446.714 306.07 447.652 305.601C448.59 305.132 449.95 305.319 450.373 306.257C450.654 306.867 450.56 307.665 451.076 308.087C451.451 308.415 452.061 308.321 452.483 308.087C452.906 307.805 453.187 307.383 453.469 306.961C455.673 303.396 456.94 299.268 457.127 295.14L450.935 296.078Z" fill="#F1BAAD"/>
<path d="M90.2696 166.062H103.31V151.99H90.2696V166.062Z" fill="#FBC5B9"/>
<path d="M216.622 259.731H228.349L232.242 240.452H212.4L216.622 259.731Z" fill="#FEE86B"/>
<path d="M210.57 236.84C210.57 242.703 215.777 245.799 222.204 245.799C228.63 245.799 233.837 242.703 233.837 236.84C233.837 230.976 228.63 226.191 222.204 226.191C215.777 226.191 210.57 230.929 210.57 236.84Z" fill="#EB4599"/>
<path d="M190.212 195.889C191.666 194.997 192.792 193.309 193.542 191.901C194.34 190.447 195.044 188.852 194.95 187.164C194.856 185.475 193.636 183.786 191.948 183.692C191.432 183.645 190.869 183.833 190.587 184.255C190.165 184.865 190.493 185.756 191.009 186.319C191.525 186.882 190.54 186.788 190.869 187.492C188.289 187.633 187.491 190.072 186.694 192.558C186.131 194.341 186.178 197.061 188.852 196.498C189.368 196.311 189.79 196.123 190.212 195.889Z" fill="#FBC5B9"/>
<path d="M180.689 188.947C178.907 185.1 179.704 180.222 182.613 177.173C183.082 176.657 183.598 176.187 184.301 176.047C184.958 175.859 185.755 176.094 186.084 176.703C186.365 177.219 186.271 177.829 186.084 178.345C185.615 179.706 184.723 180.925 183.598 181.77C184.864 182.895 185.99 184.162 186.694 185.71C187.35 187.258 187.538 189.087 186.834 190.588C186.131 192.136 184.489 193.262 182.847 193.075L180.689 188.947Z" fill="#FBC5B9"/>
<path d="M112.297 131.437C116.659 141.334 113.282 152.358 104.838 156.111C96.3481 159.863 85.9344 154.844 81.5719 144.993C77.2094 135.096 80.5868 124.072 89.0304 120.319C97.5677 116.567 107.981 121.539 112.297 131.437Z" fill="#FBC5B9"/>
<path d="M84.2459 129.701C84.6212 131.718 93.6745 132.046 95.1287 132.187C99.4443 132.562 103.807 132.515 108.075 131.483C111.124 130.733 114.174 129.419 116.097 126.933C118.067 124.494 118.583 120.694 116.66 118.208C114.689 115.628 110.937 115.253 107.7 115.722C101.649 116.66 95.5039 116.942 89.5466 118.255C84.2459 119.381 78.4761 121.492 75.943 126.746C74.4888 129.748 74.6765 133.313 75.4271 136.596C75.99 139.129 76.506 140.302 77.538 142.694C78.7576 145.368 84.8557 150.247 84.8557 150.247C84.8557 150.247 86.0284 142.601 85.5124 138.144C85.184 135.283 84.7619 132.468 84.2459 129.701Z" fill="#02546E"/>
<path d="M135.47 201.611C134.672 190.681 132.608 179.939 124.352 172.153C110.233 158.784 90.2031 161.27 73.9259 168.072C63.9813 172.246 54.9749 178.72 47.8448 186.835C40.7147 194.95 33.4439 204.988 30.1603 215.402C24.5313 233.18 23.8746 252.272 29.316 270.191C32.5527 269.065 35.8362 268.033 39.026 266.861C34.5697 247.112 49.1113 223.564 58.8213 213.901C57.4141 215.308 50.4248 254.43 54.2244 274.554C81.3375 274.272 115.299 274.835 142.365 274.554C141.568 274.554 140.911 266.439 140.817 265.782C138.941 250.208 137.675 234.494 136.455 218.873C135.986 213.338 135.892 207.428 135.47 201.611Z" fill="#A5DCDF"/>
<path d="M82.557 139.551C82.557 141.005 83.7298 142.225 85.2308 142.225C86.685 142.225 87.9046 141.052 87.9046 139.551C87.9046 138.097 86.7319 136.877 85.2308 136.877C83.7298 136.877 82.557 138.097 82.557 139.551Z" fill="#FBC5B9"/>
<path d="M113.142 164.976C120.319 166.899 126.464 171.59 131.389 177.125C136.314 182.66 140.161 189.04 144.195 195.232C147.103 199.735 150.528 204.473 155.594 206.161C161.223 208.038 167.555 205.551 171.871 201.47C175.624 197.905 178.157 193.261 180.455 188.571L190.916 195.513C190.775 198.374 189.696 201.236 188.477 203.91C185.193 210.993 180.69 217.701 174.498 222.392C168.306 227.129 160.191 229.709 152.545 228.161C142.413 226.097 135.048 217.56 128.34 209.679C121.632 201.799 113.705 193.59 103.385 192.511L113.142 164.976Z" fill="#A5DCDF"/>
<path d="M197.53 162.537C197.765 163.194 188.148 202.222 188.148 202.222L179.752 164.273L197.53 162.537Z" fill="#FEE86B"/>
<path d="M176.093 156.486C176.093 162.443 181.441 167.228 188.055 167.228C194.669 167.228 200.016 162.396 200.016 156.486C200.016 150.529 194.669 145.744 188.055 145.744C181.441 145.744 176.093 150.575 176.093 156.486Z" fill="#12BBB5"/>
<path d="M177.875 144.759C177.875 149.778 182.426 153.906 188.055 153.906C193.684 153.906 198.234 149.825 198.234 144.759C198.234 139.693 193.684 135.612 188.055 135.612C182.426 135.659 177.875 139.74 177.875 144.759Z" fill="#EB4599"/>
<path d="M179.845 140.818C180.221 141.757 181.534 141.944 182.566 141.757C183.598 141.522 184.724 141.147 185.615 141.616C186.694 142.179 187.116 143.727 188.242 143.914C188.946 144.055 189.696 143.539 190.165 143.023C190.634 142.413 190.963 141.757 191.479 141.241C192.042 140.772 192.839 140.396 193.543 140.772C193.824 140.959 194.106 141.241 194.434 141.428C195.231 141.991 196.404 141.381 196.779 140.49C197.342 139.083 196.216 138.004 195.513 136.925C194.481 135.377 195.184 134.345 194.856 132.656C194.246 129.373 191.338 126.934 188.007 126.934C184.208 126.934 181.112 130.076 181.112 133.923C181.112 134.627 181.346 135.236 181.44 135.893C181.628 137.347 180.83 137.91 180.221 139.036C179.939 139.552 179.705 140.209 179.845 140.818Z" fill="#864E9B"/>
<path d="M182.613 177.173C183.082 176.657 183.644 176.187 184.301 176.047C184.958 175.859 185.755 176.094 186.084 176.703C186.365 177.219 186.271 177.829 186.084 178.345C185.615 179.706 184.723 180.878 183.598 181.723C184.817 182.614 185.568 184.443 185.333 185.991C185.099 187.492 183.738 188.853 182.237 188.853C179.657 188.853 179.704 185.428 179.892 183.552C180.033 181.207 180.971 178.908 182.613 177.173Z" fill="#FBC5B9"/>
<path d="M194.34 188.477C195.888 187.023 196.732 184.818 196.498 182.707C196.263 180.596 194.997 178.626 193.167 177.5C192.745 177.219 192.229 177.031 191.713 177.031C191.197 177.078 190.681 177.406 190.587 177.922C190.54 178.298 190.728 178.673 190.916 179.001C191.619 180.221 192.557 181.347 193.636 182.332C193.214 182.097 192.792 181.816 192.276 181.722C191.807 181.628 191.244 181.769 190.962 182.191C190.54 182.848 191.056 183.739 191.572 184.349C192.182 185.006 192.886 185.569 193.355 186.319C193.871 187.07 194.152 188.008 193.871 188.852C194.246 188.711 194.528 188.336 194.621 187.914" fill="#FBC5B9"/>
<path d="M191.103 184.537C190.869 184.49 190.587 184.49 190.4 184.63C190.118 184.818 190.071 185.193 190.118 185.522C190.212 186.225 190.54 186.929 190.962 187.492C191.385 188.102 191.948 188.571 192.464 189.087C192.98 188.383 193.777 186.835 193.449 185.944C193.167 185.24 191.854 184.677 191.103 184.537Z" fill="#FBC5B9"/>
<path d="M242.093 259.731H253.82L257.713 240.452H237.871L242.093 259.731Z" fill="#FEE86B"/>
<path d="M212.869 226.613C212.869 231.022 217.044 234.634 222.204 234.634C227.364 234.634 231.538 231.069 231.538 226.613C231.538 222.157 227.364 218.592 222.204 218.592C217.044 218.592 212.869 222.157 212.869 226.613Z" fill="#12BBB5"/>
<path d="M187.913 259.731H199.64L203.534 240.452H183.691L187.913 259.731Z" fill="#FEE86B"/>
<path d="M181.909 236.84C181.909 242.703 187.116 245.799 193.543 245.799C199.969 245.799 205.176 242.703 205.176 236.84C205.176 230.976 199.969 226.191 193.543 226.191C187.116 226.191 181.909 230.929 181.909 236.84Z" fill="#9BD08C"/>
<path d="M193.543 234.634C198.698 234.634 202.878 231.043 202.878 226.613C202.878 222.183 198.698 218.592 193.543 218.592C188.387 218.592 184.208 222.183 184.208 226.613C184.208 231.043 188.387 234.634 193.543 234.634Z" fill="#864E9B"/>
<path d="M236.698 235.995C236.698 241.483 241.67 243.688 247.815 243.688C253.96 243.688 258.933 241.53 258.933 235.995C258.933 230.507 253.96 226.003 247.815 226.003C241.67 226.05 236.698 230.507 236.698 235.995Z" fill="#EB4599"/>
<path d="M238.809 231.679C239.184 232.711 240.638 232.946 241.764 232.711C242.89 232.43 244.11 232.054 245.095 232.57C246.267 233.18 246.737 234.869 248.003 235.056C248.8 235.197 249.598 234.681 250.114 234.071C250.63 233.415 250.958 232.711 251.568 232.101C252.178 231.585 253.069 231.163 253.82 231.585C254.148 231.773 254.429 232.101 254.805 232.289C255.649 232.899 256.963 232.242 257.385 231.257C257.995 229.709 256.775 228.536 255.977 227.363C254.852 225.675 255.602 224.549 255.274 222.72C254.617 219.155 251.427 216.481 247.768 216.481C243.64 216.481 240.216 219.905 240.216 224.127C240.216 224.877 240.451 225.534 240.545 226.285C240.732 227.879 239.888 228.489 239.231 229.756C238.903 230.319 238.621 231.022 238.809 231.679Z" fill="#864E9B"/>
<path d="M26.7515 441.677L272.552 441.677V267.318H26.7515L26.7515 441.677Z" fill="#EB4599"/>
<path d="M56.9011 397.452V312.735C65.2508 312.735 72.0057 305.98 72.0057 297.63C72.0057 297.208 71.9118 296.833 71.8649 296.458H230.134C230.087 296.833 229.993 297.255 229.993 297.63C229.993 305.98 236.748 312.735 245.098 312.735V397.452C236.748 397.452 229.993 404.207 229.993 412.556H71.9588C72.0057 404.207 65.2508 397.452 56.9011 397.452Z" fill="#12BBB5"/>
<path d="M221.784 402.095H80.2614L79.6048 400.829C77.1655 396.138 73.272 392.244 68.628 389.852L67.3616 389.195V320.991L68.628 320.334C73.6942 317.707 77.7753 313.438 80.1676 308.231L80.7775 306.871H221.315L221.925 308.231C224.317 313.391 228.398 317.707 233.464 320.334L234.731 320.991V389.195L233.464 389.852C228.774 392.291 224.88 396.185 222.488 400.876L221.784 402.095ZM83.0759 397.404H218.97C221.597 392.854 225.49 389.008 229.993 386.381V323.805C225.021 320.944 220.94 316.675 218.313 311.562H83.7326C81.0588 316.628 76.9778 320.897 72.0524 323.805V386.381C76.6025 389.008 80.4491 392.854 83.0759 397.404Z" fill="white"/>
<path d="M266.51 267.314H272.561V66.0767H266.51V267.314Z" fill="#453127"/>
<path d="M28.1059 267.314H34.157L34.157 66.0767H28.1059L28.1059 267.314Z" fill="#453127"/>
<path d="M272.537 0H250.35V77.6335H272.537V0Z" fill="#EF61A3"/>
<path d="M272.537 77.6338V92.879C272.537 99.024 267.565 103.996 261.42 103.996C255.275 103.996 250.303 99.024 250.303 92.879V77.6338H272.537Z" fill="#EB4599"/>
<path d="M250.209 77.6338V92.879C250.209 99.024 245.237 103.996 239.092 103.996C232.947 103.996 227.974 99.024 227.974 92.879V77.6338H250.209Z" fill="#E6E6E5"/>
<path d="M250.162 0H227.974V77.6335H250.162V0Z" fill="white"/>
<path d="M227.833 0H205.646V77.6335H227.833V0Z" fill="#EF61A3"/>
<path d="M227.834 77.6338V92.879C227.834 99.024 222.861 103.996 216.716 103.996C210.571 103.996 205.599 99.024 205.599 92.879V77.6338H227.834Z" fill="#EB4599"/>
<path d="M205.458 0H183.271V77.6335H205.458V0Z" fill="white"/>
<path d="M205.458 77.6338V92.879C205.458 99.024 200.486 103.996 194.341 103.996C188.196 103.996 183.224 99.024 183.224 92.879V77.6338H205.458Z" fill="#E6E6E5"/>
<path d="M183.083 0H160.895V77.6335H183.083V0Z" fill="#EF61A3"/>
<path d="M183.083 77.6338V92.879C183.083 99.024 178.11 103.996 171.965 103.996C165.82 103.996 160.848 99.024 160.848 92.879V77.6338H183.083Z" fill="#EB4599"/>
<path d="M160.754 0H138.567V77.6335H160.754V0Z" fill="white"/>
<path d="M160.755 77.6338V92.879C160.755 99.024 155.782 103.996 149.637 103.996C143.492 103.996 138.52 99.024 138.52 92.879V77.6338H160.755Z" fill="#E6E6E5"/>
<path d="M138.38 0H116.192V77.6335H138.38V0Z" fill="#EF61A3"/>
<path d="M138.379 77.6338V92.879C138.379 99.024 133.407 103.996 127.262 103.996C121.117 103.996 116.145 99.024 116.145 92.879V77.6338H138.379Z" fill="#EB4599"/>
<path d="M116.004 77.6338V92.879C116.004 99.024 111.032 103.996 104.887 103.996C98.7416 103.996 93.7693 99.024 93.7693 92.879V77.6338H116.004Z" fill="#E6E6E5"/>
<path d="M116.004 0H93.8163V77.6335H116.004V0Z" fill="white"/>
<path d="M93.6287 0H71.4409V77.6335H93.6287V0Z" fill="#EF61A3"/>
<path d="M93.6756 77.6338V92.879C93.6756 99.024 88.7032 103.996 82.5582 103.996C76.4132 103.996 71.4409 99.024 71.4409 92.879V77.6338H93.6756Z" fill="#EB4599"/>
<path d="M71.3 77.6338V92.879C71.3 99.024 66.3277 103.996 60.1827 103.996C54.0377 103.996 49.0654 99.024 49.0654 92.879V77.6338H71.3Z" fill="#E6E6E5"/>
<path d="M71.2999 0H49.1123V77.6335H71.2999V0Z" fill="white"/>
<path d="M48.9253 0H26.7375V77.6335H48.9253V0Z" fill="#EF61A3"/>
<path d="M48.9248 77.6338V92.879C48.9248 99.024 43.9525 103.996 37.8075 103.996C31.6625 103.996 26.6901 99.024 26.6901 92.879V77.6338H48.9248Z" fill="#EB4599"/>
<path d="M11.3187 272.385L287.985 272.385V259.72L11.3187 259.72V272.385Z" fill="#453127"/>
<path d="M225.444 508.581C194.344 508.581 169.06 483.297 169.06 452.197C169.06 421.097 194.344 395.813 225.444 395.813C256.544 395.813 281.828 421.097 281.828 452.197C281.828 483.297 256.544 508.581 225.444 508.581ZM225.444 406.649C200.301 406.649 179.896 427.101 179.896 452.197C179.896 477.34 200.348 497.745 225.444 497.745C250.587 497.745 270.992 477.293 270.992 452.197C270.992 427.054 250.54 406.649 225.444 406.649Z" fill="#12BBB5"/>
<path d="M261.157 458.006C264.361 438.264 250.954 419.663 231.212 416.459C211.47 413.255 192.869 426.661 189.665 446.403C186.461 466.146 199.867 484.747 219.609 487.951C239.351 491.155 257.953 477.748 261.157 458.006Z" fill="#F0F1F4"/>
<path d="M225.444 482.077C208.979 482.077 195.563 468.661 195.563 452.196C195.563 435.731 208.979 422.316 225.444 422.316C241.909 422.316 255.325 435.731 255.325 452.196C255.325 468.661 241.909 482.077 225.444 482.077Z" fill="#EF61A3"/>
<path d="M248.992 452.197C248.992 465.191 238.438 475.745 225.444 475.745C212.45 475.745 201.896 465.191 201.896 452.197C201.896 439.203 212.45 428.649 225.444 428.649C238.438 428.649 248.992 439.156 248.992 452.197Z" fill="#F495BE"/>
<path d="M241.909 452.197C241.909 461.297 234.544 468.662 225.444 468.662C216.344 468.662 208.979 461.297 208.979 452.197C208.979 443.097 216.344 435.732 225.444 435.732C234.544 435.732 241.909 443.097 241.909 452.197Z" fill="#EF61A3"/>
<path d="M235.952 452.198C235.952 458.014 231.261 462.705 225.444 462.705C219.628 462.705 214.937 458.014 214.937 452.198C214.937 446.381 219.628 441.69 225.444 441.69C231.261 441.643 235.952 446.381 235.952 452.198Z" fill="white"/>
<path d="M56.5736 508.581C38.4201 508.581 23.6438 493.805 23.6438 475.651C23.6438 457.498 38.4201 442.721 56.5736 442.721C74.7272 442.721 89.5033 457.498 89.5033 475.651C89.5033 493.805 74.7272 508.581 56.5736 508.581ZM56.5736 449.007C41.8913 449.007 29.9765 460.969 29.9765 475.604C29.9765 490.287 41.9382 502.201 56.5736 502.201C71.256 502.201 83.1706 490.24 83.1706 475.604C83.1706 460.969 71.256 449.007 56.5736 449.007Z" fill="#12BBB5"/>
<path d="M56.5736 496.807C68.2576 496.807 77.7292 487.335 77.7292 475.651C77.7292 463.967 68.2576 454.495 56.5736 454.495C44.8896 454.495 35.4178 463.967 35.4178 475.651C35.4178 487.335 44.8896 496.807 56.5736 496.807Z" fill="#F0F1F4"/>
<path d="M56.5737 493.101C66.2111 493.101 74.0237 485.289 74.0237 475.651C74.0237 466.014 66.2111 458.201 56.5737 458.201C46.9364 458.201 39.1238 466.014 39.1238 475.651C39.1238 485.289 46.9364 493.101 56.5737 493.101Z" fill="#EF61A3"/>
<path d="M70.3175 475.651C70.3175 483.25 64.1726 489.395 56.5734 489.395C48.9742 489.395 42.8291 483.25 42.8291 475.651C42.8291 468.052 48.9742 461.907 56.5734 461.907C64.1726 461.86 70.3175 468.052 70.3175 475.651Z" fill="#F495BE"/>
<path d="M66.1895 475.651C66.1895 480.952 61.874 485.267 56.5734 485.267C51.2727 485.267 46.957 480.952 46.957 475.651C46.957 470.35 51.2727 466.035 56.5734 466.035C61.874 466.035 66.1895 470.304 66.1895 475.651Z" fill="#EF61A3"/>
<path d="M62.7182 475.651C62.7182 479.029 59.9506 481.796 56.5732 481.796C53.1958 481.796 50.4282 479.029 50.4282 475.651C50.4282 472.274 53.1958 469.506 56.5732 469.506C59.9506 469.506 62.7182 472.227 62.7182 475.651Z" fill="white"/>
</svg>
