<svg width="449" height="520" viewBox="0 0 449 520" fill="none" xmlns="http://www.w3.org/2000/svg">
<path d="M0.00543213 507.906C0.00543213 513.325 100.397 517.687 224.25 517.687C348.104 517.687 448.496 513.325 448.496 507.906C448.496 502.486 348.104 498.124 224.25 498.124C100.397 498.124 0.00543213 502.486 0.00543213 507.906Z" fill="#BCBCBB"/>
<path d="M111.302 495.877L107.468 504.336L145.999 520C145.999 520 135.755 499.71 129.543 494.555C123.396 489.4 111.302 495.877 111.302 495.877Z" fill="#6B2713"/>
<path d="M147.784 486.492L144.611 493.432L176.202 506.253C176.202 506.253 167.743 489.598 162.72 485.369C157.697 481.205 147.784 486.492 147.784 486.492Z" fill="#6B2713"/>
<path d="M152.344 311.022C148.048 313.797 142.959 314.656 137.738 313.93L138.267 319.349C144.413 320.208 150.362 319.217 155.451 315.978C160.738 312.608 164.241 307.32 165.893 301.042L161.134 298.398C159.746 303.685 156.772 308.18 152.344 311.022Z" fill="#FEC877"/>
<path d="M161.2 298.397L134.698 283.527L137.804 313.929C143.025 314.656 148.114 313.796 152.41 311.021C156.772 308.179 159.746 303.684 161.2 298.397Z" fill="#F47E41"/>
<path d="M149.965 298.266C149.238 297.209 149.37 295.887 150.229 295.292C151.089 294.763 152.278 295.226 153.005 296.284C153.732 297.407 153.6 298.663 152.741 299.258C151.882 299.786 150.626 299.39 149.965 298.266Z" fill="#268943"/>
<path d="M140.646 311.353C139.06 308.841 139.325 305.867 141.175 304.678C143.092 303.488 145.934 304.479 147.52 306.991C149.106 309.502 148.842 312.476 146.991 313.666C145.075 314.856 142.232 313.864 140.646 311.353Z" fill="#EF4242"/>
<path d="M139.589 298.333C138.267 296.218 138.465 293.706 140.051 292.649C141.638 291.591 144.083 292.451 145.405 294.565C146.793 296.68 146.528 299.192 144.942 300.249C143.356 301.307 140.977 300.448 139.589 298.333Z" fill="#EF4242"/>
<path d="M300.254 338.315C296.09 335.341 293.381 330.913 292.191 325.824L287.367 328.336C288.821 334.35 291.993 339.571 296.884 343.074C301.973 346.709 308.185 348.031 314.596 347.304L315.323 341.95C309.837 342.479 304.55 341.355 300.254 338.315Z" fill="#FEC877"/>
<path d="M315.257 341.886L319.288 311.748L292.191 325.826C293.381 330.915 296.091 335.343 300.254 338.317C304.55 341.357 309.837 342.48 315.257 341.886Z" fill="#F47E41"/>
<path d="M311.226 331.378C311.953 330.32 313.275 329.924 314.068 330.519C314.861 331.113 314.927 332.435 314.134 333.493C313.407 334.55 312.085 334.947 311.292 334.352C310.499 333.757 310.433 332.435 311.226 331.378Z" fill="#268943"/>
<path d="M295.629 327.545C297.347 325.166 300.255 324.241 302.039 325.563C303.89 326.884 303.956 329.859 302.238 332.304C300.519 334.683 297.611 335.608 295.827 334.287C293.976 332.965 293.91 329.925 295.629 327.545Z" fill="#EF4242"/>
<path d="M307.326 321.794C308.78 319.745 311.226 319.018 312.812 320.141C314.398 321.265 314.464 323.776 313.01 325.825C311.556 327.874 309.111 328.601 307.525 327.478C305.938 326.42 305.872 323.843 307.326 321.794Z" fill="#EF4242"/>
<path d="M146.594 343.538C138.465 337.524 132.715 332.237 128.75 322.918C128.617 322.587 128.089 320.274 127.957 319.944L114.474 329.263C115.597 331.906 116.853 334.484 118.373 336.995C123.991 346.05 132.715 353.055 142.563 357.021C152.41 360.986 163.447 361.977 173.956 360.259C174.749 356.69 174.022 355.368 174.815 351.799C164.571 353.452 154.987 349.685 146.594 343.538Z" fill="#E78B71"/>
<path d="M172.633 351.799C175.079 347.635 179.176 344.397 183.802 342.943C183.009 344.926 181.555 346.644 179.705 347.767C182.547 346.512 185.455 345.587 188.495 344.926C189.817 344.595 191.601 344.595 192.196 345.785C192.593 346.578 192.262 347.569 191.866 348.362C190.412 351.535 188.561 354.575 186.05 356.954C183.538 359.333 180.234 361.052 176.731 361.118C173.228 361.25 169.659 359.598 167.875 356.557L172.633 351.799Z" fill="#E78B71"/>
<path d="M113.945 294.764L105.882 302.43C107.865 311.683 109.914 321.068 113.945 329.593L130.6 320.01C124.784 309.832 123.264 300.712 113.945 294.764Z" fill="#8E7DBA"/>
<path d="M121.149 339.242C121.612 329.064 121.942 318.82 120.885 308.775C119.959 300.183 119.365 296.944 110.31 292.847C106.279 290.996 99.8679 288.947 95.3076 289.146C87.0463 289.476 78.7851 290.6 70.656 292.516C64.3113 294.036 57.5698 297.143 53.8026 302.959C50.432 308.18 50.0355 314.591 49.705 320.671C48.7798 339.507 47.9207 358.475 50.6965 376.914C51.2914 380.945 51.8863 389.339 53.2742 397.468L127.494 374.072C121.744 367.132 120.753 347.834 121.149 339.242Z" fill="#8E7DBA"/>
<path d="M348.306 329.795H360.004V315.255H348.306V329.795Z" fill="#F8AB96"/>
<path d="M340.966 430.382L342.486 435.603L324.51 446.442L329.598 433.025L340.966 430.382Z" fill="#834198"/>
<path d="M329.864 432.298L317.505 405.068L330.987 397.402L340.967 430.381L329.599 433.025L329.864 432.298Z" fill="#F8AB96"/>
<path d="M334.556 397.733L339.248 409.299L319.157 416.503L314.795 401.434L325.634 395.42L334.556 397.733Z" fill="#38BFC2"/>
<path d="M303.897 369.484L225.028 426.668L228.558 431.537L307.427 374.353L303.897 369.484Z" fill="#0D4957"/>
<path d="M149.724 369.678L146.194 374.547L225.063 431.731L228.594 426.862L149.724 369.678Z" fill="#0D4957"/>
<path d="M220.852 512.385H232.682L232.682 15.9126H220.852L220.852 512.385Z" fill="#0D4957"/>
<path d="M404.479 88.7595C425.166 116.98 438.78 150.356 442.878 186.507H404.479V88.7595Z" fill="#77CDCF"/>
<path d="M364.957 186.507V47.6506C379.96 59.5469 393.244 73.4258 404.479 88.7588V186.507H364.957Z" fill="white"/>
<path d="M325.369 186.506V22.7339C339.512 29.6734 352.796 38.0008 364.891 47.65V186.506H325.369Z" fill="#77CDCF"/>
<path d="M285.847 186.507V7.86426C299.66 11.6314 312.878 16.5882 325.369 22.7346V186.507H285.847Z" fill="white"/>
<path d="M246.325 186.507V0.858643C259.873 2.04827 273.091 4.42756 285.847 7.86427V186.507H246.325Z" fill="#77CDCF"/>
<path d="M206.803 186.507V0.925263C213.412 0.330448 220.021 0 226.828 0C233.437 0 239.914 0.330434 246.391 0.859158V186.507H206.803Z" fill="white"/>
<path d="M167.281 186.507V7.99649C180.036 4.49369 193.254 2.11443 206.803 0.924805V186.573H167.281V186.507Z" fill="#77CDCF"/>
<path d="M127.692 186.507V22.9993C140.183 16.7868 153.468 11.764 167.214 7.99683V186.507H127.692Z" fill="white"/>
<path d="M88.17 186.507V48.0474C100.331 38.3982 113.549 30.0046 127.692 22.999V186.507H88.17Z" fill="#77CDCF"/>
<path d="M48.6479 186.508V89.3547C59.8833 73.9556 73.1674 60.0104 88.1699 47.9819V186.442H48.6479V186.508Z" fill="white"/>
<path d="M10.7119 186.508C14.7434 150.62 28.2258 117.509 48.6478 89.3545V186.508H10.7119Z" fill="#77CDCF"/>
<path d="M444.134 197.148C444.134 198.866 444.067 200.584 444.001 202.303V191.927C444.067 193.711 444.134 195.429 444.134 197.148Z" fill="#DCDBDB"/>
<path d="M424.24 223.055C413.335 223.055 404.479 214.199 404.479 203.294V186.573H442.878C442.878 186.573 442.878 204.418 442.878 204.814C442.68 215.521 435.013 223.055 424.24 223.055Z" fill="#12BBB5"/>
<path d="M404.479 186.507V203.228C404.479 214.133 395.623 222.989 384.718 222.989C373.813 222.989 364.957 214.133 364.957 203.228V186.507H404.479Z" fill="#DCDBDB"/>
<path d="M364.957 186.507V203.228C364.957 214.133 356.101 222.989 345.196 222.989C334.291 222.989 325.435 214.133 325.435 203.228V186.507H364.957Z" fill="#12BBB5"/>
<path d="M325.369 186.507V203.228C325.369 214.133 316.513 222.989 305.608 222.989C294.703 222.989 285.847 214.133 285.847 203.228V186.507H325.369Z" fill="#DCDBDB"/>
<path d="M285.847 186.507V203.228C285.847 214.133 276.991 222.989 266.086 222.989C255.181 222.989 246.325 214.133 246.325 203.228V186.507H285.847Z" fill="#12BBB5"/>
<path d="M246.325 186.507V203.228C246.325 214.133 237.469 222.989 226.564 222.989C215.659 222.989 206.803 214.133 206.803 203.228V186.507H246.325Z" fill="#DCDBDB"/>
<path d="M206.803 186.507V203.228C206.803 214.133 197.947 222.989 187.042 222.989C176.137 222.989 167.281 214.133 167.281 203.228V186.507H206.803Z" fill="#12BBB5"/>
<path d="M167.28 186.507V203.228C167.28 214.133 158.424 222.989 147.519 222.989C136.614 222.989 127.758 214.133 127.758 203.228V186.507H167.28Z" fill="#DCDBDB"/>
<path d="M127.692 186.507V203.228C127.692 214.133 118.836 222.989 107.931 222.989C97.0261 222.989 88.17 214.133 88.17 203.228V186.507H127.692Z" fill="#12BBB5"/>
<path d="M88.1699 186.507V203.228C88.1699 214.133 79.3139 222.989 68.4089 222.989C57.504 222.989 48.6479 214.133 48.6479 203.228V186.507H88.1699Z" fill="#DCDBDB"/>
<path d="M48.6477 203.228C48.6477 214.133 39.7917 222.989 28.8867 222.989C19.568 222.989 12.8268 215.521 10.778 206.797C10.5797 203.228 9.91882 193.909 10.778 186.507H48.7139V203.228H48.6477Z" fill="#12BBB5"/>
<path d="M127.93 379.138H325.606V360.303H127.93V379.138Z" fill="#484848"/>
<path d="M309.838 406.853L323.783 406.721L316.513 437.453L305.806 434.876L309.838 406.853Z" fill="#F8AB96"/>
<path d="M305.741 435.339L305.807 434.876L316.513 437.454L314.597 445.583L290.077 443.402L305.741 435.339Z" fill="#834198"/>
<path d="M329.995 302.429C329.995 313.599 339.049 322.653 350.218 322.653C361.388 322.653 370.442 313.599 370.442 302.429C370.442 291.26 361.388 282.206 350.218 282.206C339.049 282.206 329.995 291.26 329.995 302.429Z" fill="#F8AB96"/>
<path d="M368.394 284.189C370.509 286.37 372.227 289.08 373.351 291.988C375.532 297.473 375.928 304.347 373.218 309.7C371.764 312.608 369.451 314.392 366.742 316.309C365.948 316.838 358.745 321.795 358.216 321.2C353.193 315.582 349.558 309.039 346.98 302.033C346.055 299.522 344.601 297.407 342.618 295.689C340.239 293.64 336.869 293.442 334.423 291.591C331.912 289.741 329.929 286.965 329.533 283.859C329.136 280.752 330.59 277.382 333.432 275.928C332.507 277.514 334.027 279.629 335.811 280.091C337.595 280.554 339.446 279.959 341.297 279.497C349.888 277.316 361.719 277.316 368.394 284.189Z" fill="#313F7A"/>
<path d="M329.995 304.149C331.528 304.149 332.771 302.906 332.771 301.373C332.771 299.84 331.528 298.597 329.995 298.597C328.462 298.597 327.219 299.84 327.219 301.373C327.219 302.906 328.462 304.149 329.995 304.149Z" fill="#F8AB96"/>
<path d="M314.992 342.942C316.512 341.554 316.777 339.043 315.653 337.325C315.389 336.928 314.86 336.532 314.464 336.862C314.265 337.06 314.199 337.325 314.199 337.655C314.133 338.382 314.133 339.175 314.067 339.902C312.613 339.307 311.424 338.118 310.763 336.664C310.564 336.135 310.3 335.54 309.705 335.474C309.309 335.408 308.912 335.805 308.714 336.135C307.656 337.721 307.458 339.77 308.119 341.554C309.044 344 311.423 345.586 313.67 346.908L314.992 342.942Z" fill="#F8AB96"/>
<path d="M378.506 369.378C378.373 371.758 378.506 379.358 378.307 381.671C362.049 381.473 346.121 383.191 329.863 381.671C329.863 381.671 331.251 363.695 332.639 358.738C335.282 349.551 336.274 334.615 344.733 328.468C352.796 322.719 366.543 326.948 371.301 334.813C377.448 344.727 379.034 357.548 378.506 369.378Z" fill="#FEE86B"/>
<path d="M311.424 343.804C313.142 343.473 314.002 343.011 315.522 342.152C314.927 342.482 320.016 354.246 324.444 353.717C332.507 352.726 335.018 331.643 343.676 331.313C347.575 331.181 348.435 334.023 348.302 336.997C348.17 339.772 342.619 351.404 340.636 354.246C338.785 356.956 335.679 359.864 332.903 361.516C318.033 370.042 311.754 347.307 311.424 343.804Z" fill="#F8AB96"/>
<path d="M338.125 332.236C339.843 330.848 341.892 329.856 344.073 329.79C346.254 329.79 348.501 330.914 349.492 332.897C350.219 334.417 350.087 336.267 349.757 337.986C348.831 342.215 346.65 346.115 344.469 349.882C340.834 345.85 336.208 342.744 331.119 340.96C333.234 337.986 335.151 334.615 338.125 332.236Z" fill="#FEE86B"/>
<path d="M346.782 303.687C346.65 302.299 347.972 300.977 349.36 300.977C350.748 300.977 352.003 302.101 352.334 303.489C352.598 304.876 352.069 306.33 351.012 307.256C349.955 308.181 348.567 308.578 347.113 308.578L346.782 303.687Z" fill="#F8AB96"/>
<path d="M314.926 385.968C321.139 381.275 332.903 380.813 340.702 380.879C353.193 380.945 365.684 381.011 378.175 381.077C380.422 387.686 379.827 395.286 376.126 401.169C371.368 408.703 348.368 413.792 326.889 402.556C326.492 405.002 325.964 408.042 325.435 411.28L307.855 408.108C308.251 399.847 308.449 390.924 314.926 385.968Z" fill="#38BFC2"/>
<path d="M359.974 511.206H368.037V412.136H359.974V511.206Z" fill="#0D4957"/>
<path d="M334.597 416.466H393.483V405.957H334.597V416.466Z" fill="#0D4957"/>
<path d="M343.782 512.386H384.296V505.116H343.782V512.386Z" fill="#0D4957"/>
<path d="M69.0744 511.206H77.1377L77.1377 412.136H69.0744L69.0744 511.206Z" fill="#0D4957"/>
<path d="M43.6965 416.466H102.583V405.957H43.6965V416.466Z" fill="#0D4957"/>
<path d="M52.8157 512.386H93.3292V505.116H52.8157V512.386Z" fill="#0D4957"/>
<path d="M91.2101 294.235C87.7073 294.235 84.8652 291.393 84.8652 287.891V272.822H97.5545V287.891C97.5545 291.393 94.7129 294.235 91.2101 294.235Z" fill="#F8AB96"/>
<path d="M109.65 273.748C108.724 278.176 106.742 282.802 102.776 284.851C98.8771 286.768 94.1845 285.71 90.219 283.926C84.5353 281.282 79.4462 277.118 76.4721 271.633C73.498 266.147 72.7051 259.34 75.0183 253.524C77.3315 247.708 83.0154 243.214 89.2279 242.817C94.9778 242.487 100.595 245.527 104.164 250.087C109.517 256.829 111.368 265.42 109.65 273.748Z" fill="#F8AB96"/>
<path d="M78.3887 282.207C79.1157 277.713 75.613 275.334 73.5642 271.963C71.5154 268.658 69.2022 265.222 68.1448 261.389C66.4264 255.044 68.1445 247.377 73.6961 243.808C77.8598 241.099 83.147 241.165 88.1038 241.297C93.9198 241.495 99.6697 241.627 105.486 241.826C107.138 241.892 108.79 241.958 110.311 242.619C111.831 243.28 113.086 244.668 113.086 246.32C113.086 249.03 109.848 250.484 107.138 250.814C104.032 251.211 100.793 250.946 97.687 251.211C94.5147 251.475 91.2762 252.334 88.963 254.515C86.6499 256.696 85.5927 260.397 87.1789 263.107C85.857 261.124 82.222 261.851 81.6932 264.164C81.1645 266.478 84.2046 268.659 86.1873 267.403C88.6327 270.113 89.1614 274.342 87.4431 277.515C85.7908 280.687 82.0237 282.67 78.3887 282.207Z" fill="#313F7A"/>
<path d="M108.063 259.273C107.997 261.52 109.452 263.701 111.566 264.494C112.095 264.693 112.756 264.825 113.153 265.221C114.012 266.014 113.747 267.468 112.888 268.262C112.029 269.055 110.839 269.253 109.716 269.385C109.055 269.451 108.46 269.451 107.865 269.253C107.27 268.989 106.742 268.46 106.808 267.865L108.063 259.273Z" fill="#F8AB96"/>
<path d="M141.836 317.632C131.063 330.453 110.178 337.261 100.199 335.08C94.8453 333.89 89.8885 331.313 85.7248 327.744L74.0266 340.037C79.1156 344.2 84.9976 347.373 91.3423 348.893C117.911 355.171 142.893 330.85 142.893 330.85C142.893 330.85 143.554 321.928 141.836 317.632Z" fill="#F8AB96"/>
<path d="M78.5868 311.352C77.1328 308.18 75.9432 304.809 73.63 302.232C65.4348 293.376 54.8605 304.479 54.8605 313.467C54.8605 319.283 57.4381 324.835 60.6765 329.659C64.3776 335.211 68.9376 340.234 74.0927 344.53L90.7476 327.082C85.5926 322.786 81.3626 317.433 78.5868 311.352Z" fill="#8E7DBA"/>
<path d="M141.174 320.01C141.637 314.591 146.594 309.964 152.013 309.832C150.824 312.212 149.039 314.326 146.858 315.846C152.41 314.194 157.895 312.542 163.447 310.824C163.116 316.706 160.076 322.389 155.384 325.958C150.691 329.527 144.413 330.915 138.663 329.659L141.174 320.01Z" fill="#F8AB96"/>
<path d="M52.8779 397.403C52.8779 397.403 55.9839 410.885 80.2391 411.215C104.428 411.546 125.445 416.503 125.445 416.503L107.931 498.389L136.218 501.032C136.218 501.032 158.094 423.773 153.666 411.149C149.238 398.526 132.252 395.354 132.252 395.354C132.252 395.354 156.243 397.931 157.103 415.115C157.896 432.298 141.902 488.806 141.902 488.806L168.734 488.475C168.734 488.475 192.527 423.244 183.01 401.17C173.493 379.029 125.445 373.94 125.445 373.94L52.8779 397.403Z" fill="#90D9F8"/>
</svg>
