<svg width="403" height="521" viewBox="0 0 403 521" fill="none" xmlns="http://www.w3.org/2000/svg">
<path d="M303.828 520.378C355.538 520.378 397.458 516.521 397.458 511.764C397.458 507.007 355.538 503.15 303.828 503.15C252.118 503.15 210.198 507.007 210.198 511.764C210.198 516.521 252.118 520.378 303.828 520.378Z" fill="#90A2BF"/>
<path d="M243.907 147.356C239.038 148.854 237.915 149.978 236.416 154.847C234.918 149.978 233.795 148.854 228.926 147.356C233.795 145.858 234.918 144.734 236.416 139.866C237.54 144.734 239.038 145.858 243.907 147.356Z" fill="#F9E874"/>
<path d="M263.007 171.7C259.262 172.824 258.513 173.573 257.389 177.318C256.266 173.573 255.517 172.824 251.772 171.7C255.517 170.576 256.266 169.827 257.389 166.082C258.513 169.453 259.262 170.576 263.007 171.7Z" fill="#F9E874"/>
<path d="M330.046 160.839C325.178 162.337 324.054 163.46 322.556 168.329C321.058 163.46 319.934 162.337 315.066 160.839C319.934 159.341 321.058 158.217 322.556 153.348C324.054 158.217 325.178 159.341 330.046 160.839Z" fill="#F9E874"/>
<path d="M327.425 502.401V505.023C327.425 505.772 327.799 506.521 328.548 506.521C333.792 508.019 352.892 512.888 361.881 511.39C362.63 511.39 363.379 510.641 363.379 509.517C363.379 508.768 363.004 508.394 362.255 508.019C357.761 506.147 339.784 497.907 334.166 494.537C333.792 494.162 333.043 494.162 332.294 494.537C331.919 494.911 331.17 494.536 330.796 494.911C328.548 496.784 327.425 499.78 327.425 502.401Z" fill="#2C2525"/>
<path d="M327.425 490.791L328.548 497.533C328.548 497.533 333.043 502.027 338.66 497.158L339.035 488.919L327.425 490.791Z" fill="#E8A89A"/>
<path d="M279.861 502.401V505.023C279.861 505.772 279.486 506.521 278.737 506.521C273.494 508.019 254.393 512.888 245.405 511.39C244.656 511.39 243.907 510.641 243.907 509.517C243.907 508.768 244.281 508.394 245.03 508.019C249.525 506.147 267.502 497.907 273.119 494.537C273.494 494.162 274.243 494.162 274.992 494.537C275.367 494.911 276.115 494.536 276.49 494.911C278.737 496.784 279.861 499.78 279.861 502.401Z" fill="#2C2525"/>
<path d="M279.861 490.791L278.737 497.533C278.737 497.533 274.243 502.027 268.625 497.158L268.25 488.919L279.861 490.791Z" fill="#E8A89A"/>
<path d="M282.857 495.285C290.347 445.1 305.328 322.257 304.579 321.134L305.328 276.191C305.328 276.191 274.243 273.944 270.872 273.944C267.127 281.809 264.131 290.798 262.258 298.288C260.386 304.655 259.636 311.396 259.636 318.138C259.636 345.103 260.76 449.594 262.258 493.413C269 494.911 274.618 496.784 282.857 495.285Z" fill="#647AAB"/>
<path d="M323.68 495.285C314.317 446.223 294.092 325.253 294.842 324.13L292.594 279.936C292.594 279.936 323.68 276.191 327.05 276.191C331.17 283.682 334.541 292.67 336.788 299.786C338.66 306.153 340.159 312.894 340.159 319.261C341.282 345.852 344.653 449.219 344.653 492.289C337.911 494.162 332.294 496.409 323.68 495.285Z" fill="#647AAB"/>
<path d="M293.989 153.188L274.611 155.137L278.285 191.657L297.663 189.707L293.989 153.188Z" fill="#E2BBB5"/>
<path d="M276.865 174.322C279.861 175.071 288.85 176.195 293.718 167.581C293.344 167.206 282.857 167.955 276.49 168.33L276.865 174.322Z" fill="#BD9995"/>
<path d="M272.745 147.356C272.37 147.356 267.876 142.862 265.629 146.982C264.506 149.603 265.255 160.465 275.741 157.094C275.741 157.094 276.49 149.229 272.745 147.356Z" fill="#E2BBB5"/>
<path d="M269.749 149.978C269.749 149.978 257.39 124.885 285.104 124.885C293.718 124.885 299.71 134.248 298.587 142.862C298.212 145.858 297.089 146.233 295.591 151.476C295.965 151.101 269.749 149.978 269.749 149.978Z" fill="#2C2525"/>
<path d="M285.479 171.7H282.857C276.116 172.075 271.622 166.831 271.247 160.464L269 141.364C268.625 134.997 273.869 129.754 280.61 129.379H283.232C289.973 129.005 295.591 133.873 295.965 139.866V159.341C295.965 165.708 292.22 171.325 285.479 171.7Z" fill="#E2BBB5"/>
<path d="M267.876 141.364C267.876 141.364 273.119 142.487 273.868 136.87C274.243 136.87 276.865 139.117 278.737 135.746C279.112 135.371 283.606 141.364 288.475 135.746C288.475 135.746 291.845 140.24 294.093 139.491C294.093 139.491 297.089 143.236 295.965 151.476C296.34 149.978 297.838 138.742 297.838 138.742L295.965 133.499L291.471 129.754L285.104 127.881C285.104 127.881 280.235 126.758 279.112 127.881C277.988 129.005 272.37 130.877 272.37 130.877L269 135.746L267.876 141.364Z" fill="#2C2525"/>
<path d="M292.595 146.607C292.969 146.607 296.714 141.364 299.711 145.858C301.209 148.105 301.583 159.341 290.722 157.094C290.347 156.345 289.224 148.48 292.595 146.607Z" fill="#E2BBB5"/>
<path d="M368.247 214.77L392.966 231.249C397.085 234.245 399.707 235.368 400.831 239.114C401.954 242.484 401.954 247.728 397.46 251.098C392.966 254.844 386.224 254.469 381.73 251.847C373.865 247.353 365.626 240.612 365.626 240.612L368.247 214.77Z" fill="#E2BBB5"/>
<path d="M347.274 196.793L384.726 224.507L372.367 249.6L337.537 233.87C337.911 234.245 337.911 206.53 347.274 196.793Z" fill="#D972AA"/>
<path d="M297.088 182.936C287.351 192.299 277.614 185.557 277.614 185.557L242.409 207.279C242.409 207.279 264.506 261.21 261.884 296.79C262.633 296.79 301.208 316.265 335.29 294.917C336.788 287.427 336.413 223.758 347.274 196.418C348.023 196.044 297.088 182.936 297.088 182.936Z" fill="#D972AA"/>
<path d="M234.918 240.612L225.181 268.701C223.683 272.071 223.308 276.191 224.432 279.562C225.555 282.933 228.177 287.052 233.42 287.052C239.038 287.427 244.281 282.933 246.528 278.064C249.899 269.824 252.521 259.338 252.521 259.338L234.918 240.612Z" fill="#E2BBB5"/>
<path d="M242.784 207.654L224.433 257.091L252.522 271.322L263.009 241.735C263.383 241.361 256.267 209.527 242.784 207.654Z" fill="#D972AA"/>
<path d="M216.91 174.228L202.337 175.224L204.406 205.49L218.979 204.494L216.91 174.228Z" fill="#92CACC"/>
<path d="M197.725 178.784L186.698 188.362L206.589 211.266L217.617 201.688L197.725 178.784Z" fill="#92CACC"/>
<path d="M236.472 182.644L224.139 174.818L207.885 200.434L220.218 208.26L236.472 182.644Z" fill="#92CACC"/>
<path d="M193.788 184.166L184.311 195.281L207.397 214.964L216.873 203.848L193.788 184.166Z" fill="#92CACC"/>
<path d="M215.35 203.823L193.689 185.356L185.428 195.046L207.088 213.513L215.35 203.823Z" fill="white"/>
<path d="M198.768 202.781C200.815 204.525 203.453 204.791 204.661 203.374C205.868 201.958 205.188 199.395 203.142 197.65C201.096 195.906 198.458 195.64 197.25 197.057C196.043 198.473 196.722 201.036 198.768 202.781Z" fill="#92CACC"/>
<path d="M192.972 194.92C194.007 194.92 194.845 194.082 194.845 193.048C194.845 192.013 194.007 191.175 192.972 191.175C191.938 191.175 191.1 192.013 191.1 193.048C191.1 194.082 191.938 194.92 192.972 194.92Z" fill="#92CACC"/>
<path d="M208.327 208.028C209.362 208.028 210.2 207.19 210.2 206.156C210.2 205.122 209.362 204.283 208.327 204.283C207.293 204.283 206.455 205.122 206.455 206.156C206.455 207.19 207.293 208.028 208.327 208.028Z" fill="#92CACC"/>
<path d="M208.305 178.251L195.04 184.365L207.739 211.916L221.004 205.802L208.305 178.251Z" fill="#92CACC"/>
<path d="M220.284 205.155L208.369 179.304L196.804 184.635L208.719 210.486L220.284 205.155Z" fill="white"/>
<path d="M205.74 197.103C206.866 199.545 209.149 200.893 210.839 200.114C212.53 199.334 212.988 196.723 211.863 194.281C210.737 191.839 208.454 190.491 206.763 191.27C205.073 192.049 204.614 194.661 205.74 197.103Z" fill="#92CACC"/>
<path d="M204.208 187.804C205.242 187.804 206.08 186.966 206.08 185.932C206.08 184.897 205.242 184.059 204.208 184.059C203.174 184.059 202.335 184.897 202.335 185.932C202.335 186.966 203.174 187.804 204.208 187.804Z" fill="#92CACC"/>
<path d="M212.447 206.156C213.481 206.156 214.32 205.317 214.32 204.283C214.32 203.249 213.481 202.411 212.447 202.411C211.413 202.411 210.574 203.249 210.574 204.283C210.574 205.317 211.413 206.156 212.447 206.156Z" fill="#92CACC"/>
<path d="M226.168 178.513L211.585 177.698L209.891 207.986L224.474 208.801L226.168 178.513Z" fill="#92CACC"/>
<path d="M223.268 207.813L224.857 179.395L212.144 178.684L210.555 207.102L223.268 207.813Z" fill="white"/>
<path d="M214.334 193.895C214.184 196.58 215.569 198.84 217.427 198.944C219.286 199.048 220.914 196.956 221.064 194.271C221.214 191.587 219.829 189.326 217.971 189.222C216.112 189.118 214.484 191.21 214.334 193.895Z" fill="#92CACC"/>
<path d="M218.065 184.808C219.099 184.808 219.937 183.969 219.937 182.935C219.937 181.901 219.099 181.062 218.065 181.062C217.031 181.062 216.192 181.901 216.192 182.935C216.192 183.969 217.031 184.808 218.065 184.808Z" fill="#92CACC"/>
<path d="M216.942 205.032C217.976 205.032 218.814 204.193 218.814 203.159C218.814 202.125 217.976 201.287 216.942 201.287C215.907 201.287 215.069 202.125 215.069 203.159C215.069 204.193 215.907 205.032 216.942 205.032Z" fill="#92CACC"/>
<path d="M239.649 187.628L226.933 180.443L212.01 206.853L224.727 214.038L239.649 187.628Z" fill="#92CACC"/>
<path d="M223.828 212.582L237.83 187.801L226.744 181.538L212.742 206.318L223.828 212.582Z" fill="white"/>
<path d="M222.246 196.266C220.923 198.607 221.165 201.248 222.786 202.163C224.406 203.079 226.792 201.923 228.115 199.582C229.438 197.241 229.196 194.601 227.576 193.685C225.955 192.77 223.569 193.925 222.246 196.266Z" fill="#92CACC"/>
<path d="M230.424 190.052C231.458 190.052 232.297 189.213 232.297 188.179C232.297 187.145 231.458 186.306 230.424 186.306C229.39 186.306 228.551 187.145 228.551 188.179C228.551 189.213 229.39 190.052 230.424 190.052Z" fill="#92CACC"/>
<path d="M220.687 207.654C221.721 207.654 222.559 206.816 222.559 205.781C222.559 204.747 221.721 203.909 220.687 203.909C219.653 203.909 218.814 204.747 218.814 205.781C218.814 206.816 219.653 207.654 220.687 207.654Z" fill="#92CACC"/>
<path d="M207.579 214.395L221.061 210.65C221.061 210.65 227.803 221.137 226.305 224.133C226.679 224.133 219.563 227.878 214.694 226.38C214.694 226.38 209.826 218.515 207.579 214.395Z" fill="#E2BBB5"/>
<path d="M207.579 214.395L206.829 197.542C206.829 197.167 207.204 196.418 207.579 196.418C207.953 196.418 208.702 196.793 208.702 197.167L211.698 213.646L207.579 214.395Z" fill="#E2BBB5"/>
<path d="M212.073 195.295C212.073 194.546 212.447 194.171 213.196 194.171C213.945 194.171 214.694 194.546 214.694 195.295L215.443 213.272H211.324" fill="#E2BBB5"/>
<path d="M215.069 213.646L214.32 195.295C214.32 194.546 214.694 194.171 215.069 194.171C215.818 193.797 216.567 194.546 216.567 195.295L219.189 213.272L215.069 213.646Z" fill="#E2BBB5"/>
<path d="M218.065 211.773C218.065 211.773 219.938 202.41 220.687 199.414C220.687 199.04 221.435 198.665 221.81 198.665C222.185 198.665 222.559 199.04 222.559 199.414C222.559 201.661 222.185 208.028 221.061 211.024C221.061 211.399 218.065 211.773 218.065 211.773Z" fill="#E2BBB5"/>
<path d="M225.93 282.183C219.563 270.573 214.694 226.005 214.694 226.005L226.305 223.758C226.305 223.758 242.409 254.843 245.779 272.071C246.903 280.311 233.046 294.917 225.93 282.183Z" fill="#E2BBB5"/>
<path d="M328.548 222.635L326.301 236.492C326.301 236.492 337.537 242.11 340.159 240.612C340.159 240.986 343.155 233.496 341.282 229.002C340.908 228.627 333.043 224.507 328.548 222.635Z" fill="#E2BBB5"/>
<path d="M328.548 222.635L311.695 223.384C311.321 223.384 310.572 223.758 310.572 224.507C310.572 224.882 310.946 225.631 311.321 225.631L328.174 227.129L328.548 222.635Z" fill="#E2BBB5"/>
<path d="M320.31 229.376L327.8 230.5L328.549 226.38L320.684 225.631C319.935 225.631 319.56 226.005 319.56 226.755C319.56 227.129 319.56 227.504 319.56 227.878C319.186 228.627 319.561 229.376 320.31 229.376Z" fill="#E2BBB5"/>
<path d="M321.433 232.747L327.8 233.496C328.549 233.496 328.923 233.122 328.923 232.372V230.5C328.923 229.751 328.549 229.376 327.8 229.376H321.058C320.309 229.376 319.935 229.751 319.935 230.5C319.935 230.874 319.935 231.249 319.935 231.623C320.309 231.998 321.058 232.747 321.433 232.747Z" fill="#E2BBB5"/>
<path d="M322.556 235.743L326.676 236.867L328.923 233.122H322.556C321.807 233.122 321.433 233.496 321.433 234.245V234.62C321.433 234.994 322.182 235.743 322.556 235.743Z" fill="#E2BBB5"/>
<path d="M395.213 233.496C382.854 228.252 341.282 228.627 341.282 228.627L340.159 240.237C340.159 240.237 372.742 252.596 390.344 254.094C400.082 254.843 408.321 239.113 395.213 233.496Z" fill="#E2BBB5"/>
<path d="M78.0195 517.257C34.9305 517.257 -1.52588e-05 514.044 -1.52588e-05 510.08C-1.52588e-05 506.115 34.9305 502.902 78.0195 502.902C121.108 502.902 156.039 506.115 156.039 510.08C156.039 514.044 121.108 517.257 78.0195 517.257Z" fill="#90A2BF"/>
<path d="M99.8655 182.712C105.171 183.337 106.731 192.075 116.718 216.105C120.775 225.779 121.087 225.779 122.023 229.212C123.583 235.141 123.584 238.574 126.08 239.823C127.953 240.447 129.201 238.886 134.818 237.014C137.315 236.078 139.187 235.766 142.932 234.829C154.479 232.333 157.6 234.205 160.409 231.084C162.593 228.588 161.345 227.027 164.154 224.219C167.898 220.474 173.204 220.786 174.452 220.786C177.573 220.786 179.445 222.034 183.19 223.907C185.999 225.467 186.311 226.091 186.311 226.403C186.311 227.964 182.254 229.212 178.197 230.772C173.516 232.645 173.204 233.581 164.778 238.886C154.167 245.44 155.103 243.568 141.996 251.057C141.06 251.682 134.194 255.739 125.768 258.547C124.208 259.171 121.399 260.108 117.966 259.484C117.03 259.484 114.221 258.859 110.788 256.675C105.795 253.554 103.298 248.873 101.426 244.816C95.4965 232.645 92.6878 222.034 92.0636 219.85C90.1911 212.672 88.6307 205.494 88.9428 196.756C88.9428 192.075 89.567 188.018 92.6878 185.209C93.3119 185.209 96.4327 182.088 99.8655 182.712Z" fill="#E9CDCC"/>
<path d="M62.4163 186.77C59.6076 187.082 57.7351 188.954 45.8762 211.736C42.4433 218.289 34.9535 232.645 32.4569 247.937C32.1448 250.121 30.8965 253.554 32.4569 256.987C34.3293 260.732 46.1883 275.088 48.0608 277.272C66.7854 295.685 77.7081 310.664 80.2047 308.48C82.0772 306.92 70.5304 288.819 58.9835 270.718C58.9835 270.718 56.1747 266.349 53.0539 260.42C50.8694 256.051 49.621 253.866 49.309 252.306C48.3727 246.064 55.2384 241.383 61.7921 234.205C68.9699 226.716 80.5167 214.544 78.9564 202.998C77.708 194.259 69.282 186.145 62.4163 186.77Z" fill="#E9CDCC"/>
<path d="M55.8628 404.288C59.2957 396.798 60.8559 397.734 62.7284 390.556C63.9767 385.875 63.9767 381.506 62.7284 371.832C60.2317 353.107 58.3593 346.241 57.111 342.496C56.1748 339.063 54.3023 335.319 51.8056 328.453C50.5573 325.644 48.997 320.963 48.997 316.282C48.997 307.856 52.1179 300.99 55.8628 293.188C58.9836 286.634 63.6646 281.641 65.8491 275.088C66.7854 275.088 68.0338 275.088 69.2821 275.088C73.3391 275.088 79.5806 276.648 83.0134 278.52C85.51 279.769 92.6878 284.138 93.9361 316.906C95.1845 349.362 88.9429 375.265 86.7584 384.003C82.0772 402.103 83.3255 400.543 69.5941 432.375C60.5438 452.972 53.054 474.505 53.054 474.505L45.2521 472.009C45.2521 472.009 47.1245 456.717 50.8694 435.183C54.3023 417.707 52.1179 412.714 55.8628 404.288Z" fill="#E4AD92"/>
<path d="M66.1611 302.55C66.1611 304.735 66.4732 307.232 66.7853 309.728C67.0973 312.537 67.7214 315.346 68.6576 318.466C71.1543 327.517 73.0267 330.95 75.2112 335.631C76.1474 337.815 77.3959 340 78.6442 343.433C79.8925 346.866 85.1978 360.285 89.5669 378.697C91.7514 388.372 92.0635 392.429 91.4393 397.422C90.191 404.912 88.9426 403.976 86.1339 411.778C83.3252 420.516 80.5166 427.382 84.2615 442.673C88.3186 458.277 92.6876 472.321 94.5601 479.187C95.1842 481.683 95.8085 482.931 95.8085 482.931L103.61 484.492C103.61 484.492 102.674 481.059 101.738 475.442C100.49 467.328 99.8655 453.908 102.674 438.304C103.298 434.559 103.922 431.439 104.547 428.63C104.547 428.006 104.859 427.382 104.859 426.445C108.604 396.798 114.221 390.556 115.781 363.406C117.342 339.376 114.221 320.339 112.349 310.04C111.1 303.487 109.54 297.557 107.979 291.94C104.859 285.698 102.05 284.45 100.49 283.826C96.7447 282.577 90.1911 281.641 86.4461 281.953C75.5234 282.89 71.7784 281.953 70.218 284.138C68.3456 286.01 66.1611 292.876 66.1611 302.55Z" fill="#E4AD92"/>
<path d="M92.9998 158.994C92.9998 159.306 87.6945 175.534 88.9428 181.776C90.1911 188.018 75.2114 184.273 74.5873 184.273C73.9631 184.273 69.9061 167.42 70.8423 166.484C71.7785 165.236 68.3456 164.612 74.2751 163.051C80.5166 161.491 92.9998 158.994 92.9998 158.994Z" fill="#E9CDCC"/>
<path d="M49.9327 253.242C48.9965 254.802 31.2081 248.561 31.8323 246.376C34.0168 237.95 34.9529 233.269 39.322 223.282C40.8824 219.538 51.4932 194.571 55.2381 191.138C63.6642 186.457 73.3387 189.89 73.0266 196.444C73.0266 202.997 85.5096 213.608 63.9763 232.645C60.8555 235.453 52.1173 246.376 50.5569 251.369C49.9328 252.306 49.9327 252.93 49.9327 253.242Z" fill="#73BCB1"/>
<path d="M97.6809 140.27C97.993 143.078 98.6172 144.639 99.2413 149.632C99.2413 150.88 99.2414 158.37 94.8724 164.3C90.5033 170.229 84.8857 170.229 81.4529 170.229C77.7079 170.541 78.9563 164.3 78.6443 162.115C78.3322 160.555 77.3959 154.313 80.5167 147.135C81.765 144.015 84.2616 138.709 88.3186 136.837C91.4394 135.589 92.0636 132.156 92.6878 132.156C94.8723 131.844 97.6809 140.27 97.6809 140.27Z" fill="#E9CDCC"/>
<path d="M93.9358 181.776C102.674 174.598 109.54 193.635 110.164 195.195C112.973 202.685 114.221 207.054 119.526 219.537C121.087 223.282 124.52 234.829 127.64 238.574C124.208 241.383 119.838 244.192 116.405 247.624C112.973 251.057 110.164 255.738 108.292 257.299C100.802 246.064 100.178 246.064 96.4326 236.702C94.248 231.084 92.9997 225.155 91.1272 219.537C90.8152 218.601 88.6305 210.799 88.3185 203.934C87.6943 197.692 89.8788 184.897 93.9358 181.776Z" fill="#73BCB1"/>
<path d="M97.0566 368.711C99.8653 378.385 99.5534 392.117 99.5534 395.238C99.5534 398.67 99.2412 398.358 99.2412 403.039C98.9291 412.402 99.5533 418.331 100.177 428.942C100.489 432.063 101.426 441.113 101.426 451.412C101.426 458.901 101.114 458.277 102.362 475.442C102.674 477.938 102.674 484.18 104.859 489.485C106.419 493.542 108.916 496.351 109.54 496.975C116.093 504.153 125.456 504.153 125.144 505.713C124.832 506.961 117.654 508.834 111.412 506.025C107.043 503.841 106.419 501.032 101.114 499.159C97.993 498.223 96.7446 498.535 95.4962 497.287C93.9359 495.102 96.1205 492.294 96.4326 487.925C96.7447 482.931 94.248 479.186 92.6877 476.378C88.6306 468.888 86.7581 459.838 83.0131 442.049C80.8286 431.126 79.2682 423.637 79.8923 413.338C80.5165 401.479 82.7012 402.727 82.3891 394.925C81.765 380.57 73.6509 376.513 69.2818 356.852C67.7214 349.362 66.473 343.12 68.9696 341.56C73.3387 338.439 91.7513 351.859 97.0566 368.711Z" fill="#E9CDCC"/>
<path d="M95.1844 492.294C96.7448 492.918 98.6173 493.854 101.114 495.414C103.611 497.287 104.547 498.535 106.731 500.096C108.604 501.344 110.164 501.656 113.597 502.592C121.399 504.465 124.832 504.153 128.577 506.961C129.201 507.585 130.761 508.834 130.449 509.77C130.137 511.018 126.392 510.394 120.775 510.394C117.654 510.394 113.909 510.082 109.228 510.082C107.355 509.146 106.419 507.897 105.483 507.273C103.61 505.401 103.298 503.216 101.738 503.216C101.426 503.216 100.802 503.216 100.178 503.84C97.993 505.713 97.0569 508.522 96.7448 510.082H95.4964C95.1843 507.273 95.1845 506.337 94.8724 504.777C94.5603 503.216 93.9361 500.72 93.624 499.159C93.3119 497.911 93.3119 496.039 93.936 494.478C94.2481 493.854 94.5602 493.542 94.5602 493.23L95.1844 492.294Z" fill="#71B6BE"/>
<path d="M98.6173 382.754C100.178 389.932 91.7517 395.238 83.3255 405.536C78.6444 411.154 73.9632 419.58 67.0975 437.68C58.0472 461.086 57.423 463.583 53.054 474.817C52.7419 475.442 51.1815 478.562 50.5574 482.932C50.2453 485.428 49.621 487.613 50.2452 490.109C50.8693 492.294 51.8057 493.542 55.2385 497.287C61.168 504.153 63.0404 505.401 62.7283 506.025C62.1041 507.274 56.4868 506.649 49.309 501.344C47.4365 499.784 44.6278 495.103 39.9466 491.358C36.2017 488.237 37.4501 486.052 38.6984 484.804C40.2588 483.244 41.195 481.995 41.507 481.059C43.3795 476.69 43.6917 474.193 44.3158 468.264C45.8762 456.405 47.7486 443.922 48.3728 438.929C49.9332 429.254 50.8695 424.261 52.742 419.268C55.8627 411.466 60.8559 404.6 63.0405 401.791C66.1613 397.422 67.7217 395.862 70.8424 390.556C73.3391 386.499 74.8994 384.003 76.4598 380.258C80.2047 371.208 78.6443 365.59 81.453 364.654C83.6375 364.03 86.4463 367.151 91.1275 372.144C95.8087 377.449 97.9931 380.258 98.6173 382.754Z" fill="#E9CDCC"/>
<path d="M38.6984 483.868C39.9467 484.804 41.5071 486.364 43.3795 488.549C45.252 491.045 45.564 492.606 47.4365 494.79C48.6848 496.351 50.2451 497.287 53.3659 499.159C60.2316 503.529 63.6646 503.841 66.1612 507.898C66.7853 508.522 67.7215 510.394 67.0974 511.018C66.4732 511.955 63.0404 510.394 57.735 508.522C54.9263 507.586 51.1815 506.025 46.5003 504.777C44.9399 503.217 44.3156 501.968 44.0035 501.032C43.0673 498.535 43.0675 496.663 41.8191 496.039C41.5071 496.039 40.8829 496.039 40.2588 496.351C37.7621 497.287 35.8896 499.784 34.9534 501.344L33.705 501.032C34.3292 498.223 34.6412 497.287 34.6412 495.727C34.9533 494.166 34.9534 491.67 34.9534 490.109C34.9534 488.861 35.5776 486.988 36.5138 485.74C36.8259 485.428 37.1379 485.116 37.45 484.804L38.6984 483.868Z" fill="#71B6BE"/>
<path d="M61.48 277.584C58.3592 283.826 55.8626 289.443 54.3022 293.5C51.1815 301.614 49.3089 305.671 48.9969 310.352C48.3727 316.282 49.3089 320.651 50.8693 326.892C52.7417 335.006 54.3022 337.815 56.7988 345.305C61.1679 358.1 64.9128 369.335 62.4162 381.506C62.1041 382.442 60.8558 387.123 57.735 396.174C53.678 408.657 52.7418 409.905 51.4935 414.898C49.621 422.076 48.9968 426.445 47.7485 437.992C46.8122 445.794 45.252 457.029 43.3795 471.072L56.4866 474.817C60.2316 465.455 65.8491 451.411 72.4027 434.247C98.3052 367.15 99.8655 356.228 100.178 348.426C102.362 319.715 96.4327 290.067 95.1844 284.138C93.9361 278.52 92.9998 274.151 92.0636 271.03L61.48 277.584Z" fill="#D765A3"/>
<path d="M66.1613 304.423C66.1613 306.295 66.4735 308.168 66.7855 309.728C68.0338 317.218 71.4666 321.587 74.8995 335.63C75.2116 336.879 75.5236 338.439 75.8357 340C80.2048 359.972 83.0135 378.697 82.7014 381.818C82.0773 397.422 81.1411 393.989 77.7083 409.593C74.2754 426.445 78.9566 438.304 83.9498 457.341C86.4464 467.327 89.2551 475.129 91.1276 480.747L93.9362 479.186L100.802 475.753L102.05 475.129C101.426 464.831 101.114 448.603 103.611 428.942C103.611 428.318 103.923 427.693 103.923 426.757C107.668 397.11 113.285 390.868 114.845 363.717C116.406 339.687 113.285 320.651 111.413 310.352C110.164 303.798 108.604 297.869 107.043 292.252C104.547 283.513 101.738 276.336 99.2415 270.718L77.0841 269.782C73.6512 275.087 70.8425 280.081 69.2821 284.45C66.4734 291.315 65.5371 297.557 65.5371 302.862C66.1613 303.174 66.1613 303.798 66.1613 304.423Z" fill="#D972AA"/>
<path d="M102.986 255.114C106.731 271.03 111.1 287.57 111.1 294.124C109.852 297.557 69.2817 294.124 54.9261 288.195C51.8053 286.322 62.7281 263.852 63.9764 256.675C65.2247 248.561 62.7281 237.638 60.2314 227.651C57.1107 214.544 54.9262 207.054 56.7987 190.202C59.2953 168.981 73.3388 178.967 74.5871 177.719C77.0838 175.534 82.3891 176.159 93.3118 177.095C99.8654 177.719 103.922 183.336 104.547 184.897C105.171 187.081 100.177 183.336 98.9292 187.705C96.4326 195.819 102.674 207.054 103.922 209.863C106.731 215.168 107.979 215.48 108.604 218.913C109.54 223.906 106.731 227.027 104.859 232.645C102.05 240.759 101.738 248.873 102.986 255.114Z" fill="#73BCB1"/>
<path d="M38.0739 206.118C37.7618 198.941 43.6913 199.877 42.1309 192.699C41.5067 189.89 43.0672 186.145 48.9966 182.712C53.9899 178.655 63.3522 178.343 60.8556 175.223C55.2382 168.045 50.5569 154.938 53.3656 147.136C55.8622 139.646 60.5436 125.914 77.7078 124.978C83.0132 124.666 88.6305 125.914 92.0634 128.411C94.8721 130.595 96.7445 134.34 96.1203 137.773C95.4962 140.894 92.6875 140.894 92.0634 144.015C91.1271 147.76 82.0768 149.008 83.013 154.625C83.013 155.25 89.2547 164.3 85.8218 168.669C83.3252 172.102 77.0836 173.974 77.3957 177.407C79.5802 204.558 71.1542 203.31 68.3455 211.112C63.9764 223.283 73.9629 238.262 62.104 239.199C61.4798 239.199 51.1812 237.638 46.5001 232.645C39.0102 223.907 38.6981 213.296 38.0739 206.118Z" fill="#4C5680"/>
<path d="M61.168 171.478C63.9767 170.541 67.4097 171.165 71.4667 171.79C74.5875 172.414 77.3962 173.038 79.2687 173.974C80.517 174.91 80.5169 177.095 79.5807 177.095C74.8995 176.159 70.2183 175.535 64.913 175.222C63.6646 175.222 62.4163 174.91 61.168 174.91C59.9197 174.286 60.2317 172.414 61.168 171.478Z" fill="#D972AA"/>
<path d="M88.0065 152.129C86.7582 145.575 78.02 149.32 82.3891 156.498C87.0703 163.988 89.2548 158.058 88.0065 152.129Z" fill="#E9CDCC"/>
<path d="M201.287 66.15C147.858 42.4038 94.4288 89.8961 40.9999 66.15C45.0282 61.6976 49.2686 57.0331 53.297 51.9447C49.2686 44.736 45.0282 37.1033 40.9999 29.0466C94.4288 52.7928 147.858 5.30041 201.287 29.0466C201.287 41.5557 201.287 53.8528 201.287 66.15Z" fill="#D765A3"/>
<path d="M228.213 47.0682H216.34L201.074 29.0465C201.074 29.4705 201.074 29.8946 201.074 30.3186L215.068 47.4922L201.074 64.6658C201.074 65.0898 201.074 65.5138 201.074 65.9379L216.34 47.9162H228.425C228.425 47.9162 228.213 47.4922 228.213 47.0682Z" fill="#86C5C6"/>
<path d="M339.523 36.679C339.523 40.4954 338.887 44.9478 338.039 44.9478C337.191 44.9478 336.555 40.2834 336.555 36.679C336.555 32.8627 337.191 31.3785 338.039 31.3785C338.887 31.3785 339.523 32.8627 339.523 36.679Z" fill="#5D8A8E"/>
<path d="M336.767 58.093C336.767 54.2766 337.403 49.8242 338.251 49.8242C339.1 49.8242 339.736 54.4886 339.736 58.093C339.736 61.9093 339.1 63.3935 338.251 63.3935C337.403 63.3935 336.767 61.9093 336.767 58.093Z" fill="#5D8A8E"/>
<path d="M337.827 45.3718C337.615 45.3718 337.615 45.3718 337.403 45.3718C337.615 45.7959 337.615 46.2199 337.615 46.6439V47.704C337.615 48.1281 337.615 48.5521 337.403 48.9761C337.615 48.9761 337.615 48.9761 337.827 48.9761C338.887 48.9761 339.736 48.1281 339.736 47.068C339.736 46.0079 338.887 45.3718 337.827 45.3718Z" fill="#364852"/>
<path d="M334.011 43.0397C334.435 43.6757 334.647 44.3118 334.647 45.3719C334.647 46.856 334.647 48.1281 334.647 50.0363C334.647 50.6724 334.435 51.0964 334.223 51.7325C336.131 51.5205 337.615 50.0363 337.615 48.1281V47.068C337.615 44.7358 336.131 43.0397 334.011 43.0397Z" fill="#364852"/>
<path d="M248.991 41.3436L245.175 27.3503C244.751 25.8662 243.479 25.0181 241.994 25.0181H233.09C231.394 25.0181 229.909 26.2902 229.909 27.9863L228.425 47.0681C228.213 45.796 237.118 43.6758 248.991 41.3436Z" fill="#73BCB1"/>
<path d="M317.261 40.0713C315.565 37.315 312.597 34.1347 309.629 33.2866C304.752 31.8025 228.213 43.0395 228.213 46.8559C228.213 54.9126 272.949 61.2732 297.12 61.2732C320.442 61.2732 334.647 56.3968 334.647 49.8242C334.647 48.128 334.647 46.8559 334.647 45.1597C334.647 41.3434 330.407 40.2833 317.261 40.0713Z" fill="#73BCB1"/>
<path d="M313.021 35.407C296.059 35.407 295.211 39.0113 295.211 41.3435C297.12 41.3435 304.54 41.3435 312.809 41.3435C314.717 41.3435 316.625 40.7075 317.261 40.0714C316.201 38.5873 314.717 36.6791 313.021 35.407Z" fill="#B1D9DE"/>
<path d="M309.204 35.407C308.568 35.407 308.144 35.407 307.72 35.407L309.84 41.3435C310.264 41.3435 310.901 41.3435 311.325 41.3435L309.204 35.407Z" fill="#86C5C6"/>
<path d="M301.36 41.3437C301.784 41.3437 302.42 41.3437 302.844 41.3437V36.0432C302.42 36.0432 301.784 36.2552 301.36 36.2552V41.3437Z" fill="#86C5C6"/>
<path d="M334.647 50.0364C334.647 48.5523 334.647 47.2802 334.647 46.0081H228.213C228.213 46.4321 228.213 46.8561 228.213 47.0682C228.213 48.1283 228.849 48.9763 230.333 50.0364H334.647Z" fill="#B1D9DE"/>
<path d="M288.427 27.7742L297.544 26.502C298.392 26.29 299.24 26.9261 299.452 27.9862L300.3 34.9828L267.225 39.2232L279.31 31.1665C282.066 29.4703 285.034 28.1982 288.427 27.7742Z" fill="#D765A3"/>
<path d="M309.204 60.8495V66.362C309.416 66.362 309.628 66.362 309.84 66.362C310.052 66.362 310.264 66.362 310.264 66.362V60.8495C309.84 60.8495 309.416 60.8495 309.204 60.8495Z" fill="#364852"/>
<path d="M304.964 61.2734L307.508 66.9979C307.72 66.7859 307.932 66.7859 308.144 66.7859L305.812 61.2734C305.6 61.0614 305.388 61.0614 304.964 61.2734Z" fill="#364852"/>
<path d="M297.756 61.2733L306.024 68.0579C306.236 67.8459 306.236 67.6339 306.448 67.4219L298.816 61.0613C298.604 61.2733 298.18 61.2733 297.756 61.2733Z" fill="#364852"/>
<path d="M252.172 57.033V61.0613C252.384 61.0613 252.596 61.0613 252.808 61.0613C253.02 61.0613 253.232 61.0613 253.444 61.0613V57.245C253.02 57.033 252.596 57.033 252.172 57.033Z" fill="#364852"/>
<path d="M248.779 56.1848L251.111 61.2733C251.323 61.0613 251.535 61.0613 251.747 61.0613L249.627 56.3968C249.415 56.3968 248.991 56.3968 248.779 56.1848Z" fill="#364852"/>
<path d="M239.026 44.312C243.944 44.312 247.931 43.4576 247.931 42.4038C247.931 41.3499 243.944 40.4956 239.026 40.4956C234.108 40.4956 230.121 41.3499 230.121 42.4038C230.121 43.4576 234.108 44.312 239.026 44.312Z" fill="#D765A3"/>
<path d="M299.452 58.0931L293.515 38.1633C292.455 35.195 293.515 31.8027 295.847 29.6825L283.338 31.3786L285.882 32.4387C288.215 33.2868 290.123 35.195 290.759 37.7392L297.756 58.9412C297.968 59.3652 298.392 60.0013 298.816 59.7892C299.452 59.1532 299.664 58.7292 299.452 58.0931Z" fill="#5D8A8E"/>
<path d="M310.264 77.599C307.084 77.599 304.328 75.0548 304.328 71.6625C304.328 68.4822 306.872 65.726 310.264 65.726C313.445 65.726 316.201 68.2702 316.201 71.6625C315.989 75.0548 313.445 77.599 310.264 77.599ZM310.264 66.9981C307.72 66.9981 305.6 69.1183 305.6 71.6625C305.6 74.2067 307.72 76.3269 310.264 76.3269C312.809 76.3269 314.929 74.2067 314.929 71.6625C314.929 69.1183 312.809 66.9981 310.264 66.9981Z" fill="#73BCB1"/>
<path d="M310.265 75.6908C312.372 75.6908 314.081 73.9822 314.081 71.8745C314.081 69.7667 312.372 68.0581 310.265 68.0581C308.157 68.0581 306.448 69.7667 306.448 71.8745C306.448 73.9822 308.157 75.6908 310.265 75.6908Z" fill="#F0F1F5"/>
<path d="M310.265 75.0548C312.021 75.0548 313.445 73.6309 313.445 71.8745C313.445 70.1181 312.021 68.6942 310.265 68.6942C308.508 68.6942 307.084 70.1181 307.084 71.8745C307.084 73.6309 308.508 75.0548 310.265 75.0548Z" fill="#DB71A9"/>
<path d="M310.264 74.4187C311.67 74.4187 312.809 73.2796 312.809 71.8744C312.809 70.4693 311.67 69.3302 310.264 69.3302C308.859 69.3302 307.72 70.4693 307.72 71.8744C307.72 73.2796 308.859 74.4187 310.264 74.4187Z" fill="#E192BC"/>
<path d="M310.264 73.5707C311.201 73.5707 311.961 72.8113 311.961 71.8745C311.961 70.9377 311.201 70.1783 310.264 70.1783C309.328 70.1783 308.568 70.9377 308.568 71.8745C308.568 72.8113 309.328 73.5707 310.264 73.5707Z" fill="#DB71A9"/>
<path d="M310.264 72.9346C310.85 72.9346 311.325 72.46 311.325 71.8746C311.325 71.2891 310.85 70.8145 310.264 70.8145C309.679 70.8145 309.204 71.2891 309.204 71.8746C309.204 72.46 309.679 72.9346 310.264 72.9346Z" fill="white"/>
<path d="M253.443 68.0582C251.111 68.0582 249.203 66.15 249.203 63.8178C249.203 61.4856 251.111 59.5774 253.443 59.5774C255.775 59.5774 257.684 61.4856 257.684 63.8178C257.684 66.15 255.775 68.0582 253.443 68.0582ZM253.443 60.4255C251.535 60.4255 250.051 61.9096 250.051 63.8178C250.051 65.726 251.535 67.2101 253.443 67.2101C255.351 67.2101 256.835 65.726 256.835 63.8178C256.835 61.9096 255.351 60.4255 253.443 60.4255Z" fill="#73BCB1"/>
<path d="M253.443 66.5738C254.965 66.5738 256.199 65.3398 256.199 63.8175C256.199 62.2953 254.965 61.0613 253.443 61.0613C251.921 61.0613 250.687 62.2953 250.687 63.8175C250.687 65.3398 251.921 66.5738 253.443 66.5738Z" fill="#F0F1F5"/>
<path d="M253.443 66.15C254.731 66.15 255.775 65.1059 255.775 63.8178C255.775 62.5298 254.731 61.4856 253.443 61.4856C252.155 61.4856 251.111 62.5298 251.111 63.8178C251.111 65.1059 252.155 66.15 253.443 66.15Z" fill="#DB71A9"/>
<path d="M253.443 65.5138C254.38 65.5138 255.139 64.7544 255.139 63.8176C255.139 62.8809 254.38 62.1215 253.443 62.1215C252.506 62.1215 251.747 62.8809 251.747 63.8176C251.747 64.7544 252.506 65.5138 253.443 65.5138Z" fill="#E192BC"/>
<path d="M253.443 65.0898C254.146 65.0898 254.715 64.5202 254.715 63.8176C254.715 63.1151 254.146 62.5455 253.443 62.5455C252.741 62.5455 252.171 63.1151 252.171 63.8176C252.171 64.5202 252.741 65.0898 253.443 65.0898Z" fill="#DB71A9"/>
<path d="M253.443 64.6656C253.912 64.6656 254.291 64.2859 254.291 63.8176C254.291 63.3492 253.912 62.9695 253.443 62.9695C252.975 62.9695 252.595 63.3492 252.595 63.8176C252.595 64.2859 252.975 64.6656 253.443 64.6656Z" fill="white"/>
<path fill-rule="evenodd" clip-rule="evenodd" d="M117.963 6.36058C118.175 6.36058 118.599 6.14856 118.811 6.14856H119.235C119.447 6.14856 119.659 6.14856 119.871 6.14856H120.083H120.719H121.143H121.567H121.992H122.416H122.84H123.476H123.688C123.9 6.14856 124.112 6.14856 124.324 6.14856H124.536C124.748 6.14856 124.96 6.14856 125.384 6.14856C125.596 6.14856 126.02 6.14856 126.232 6.14856C126.444 6.14856 126.656 6.14856 127.08 6.14856H127.292H127.928H128.352H128.776H129.2H129.624H130.048H130.472H130.896H131.32H131.744L132.168 6.36058H132.381C132.593 6.36058 132.805 6.57259 133.017 6.57259H133.229C133.441 6.57259 133.653 6.78461 133.865 6.78461H134.077L134.501 6.99662L134.925 7.20866L135.349 7.42067L135.773 7.63269L136.197 7.8447L136.621 8.05672L137.045 8.26875L137.469 8.48077L137.893 8.69279L138.317 8.9048L138.741 9.11682L139.165 9.32885L139.377 9.54087L139.801 9.75288C140.013 9.9649 140.225 9.9649 140.437 10.1769C140.861 10.3889 141.073 10.601 141.497 10.813L141.709 11.025L142.133 11.237L142.345 11.449L142.769 11.6611L142.981 11.8731L143.405 12.0851L143.618 12.2971L144.042 12.5091L144.254 12.7212L144.678 13.1452L144.89 13.3572C145.738 14.2053 146.586 15.0534 147.434 15.9014L147.646 16.1135L148.07 16.5375L148.282 16.7495L148.706 17.1736V17.3856C148.918 17.5976 148.918 17.8096 149.13 18.0216C149.342 18.2337 149.342 18.4457 149.554 18.6577C150.614 20.1418 151.674 21.626 152.522 23.3221C152.734 23.5341 152.734 23.7462 152.946 23.9582C153.158 24.1702 153.158 24.3822 153.37 24.5942C153.582 24.8063 153.582 25.0183 153.794 25.2303C154.43 26.7144 155.067 28.1986 155.491 29.8947C155.491 30.1067 155.703 30.3188 155.703 30.7428C155.703 30.9548 155.915 31.1668 155.915 31.5909V31.8029C155.915 32.0149 156.127 32.2269 156.127 32.651C156.763 33.287 156.975 34.1351 157.187 35.1952C157.399 36.8914 157.611 38.5875 157.399 40.2837C156.975 42.6159 155.703 44.312 153.582 45.1601C153.37 45.1601 153.37 45.3721 153.158 45.3721C153.158 45.5842 153.158 46.0082 153.158 46.2202V46.4322C153.158 46.6443 153.158 46.8563 152.946 47.2803V47.4923C152.946 47.7044 152.946 47.9164 152.734 48.3404C152.522 50.0366 152.098 51.7327 151.462 53.2169V53.4289C151.462 53.6409 151.25 53.8529 151.25 54.0649C151.25 54.277 151.038 54.489 151.038 54.913C150.402 56.6092 149.766 58.0933 149.13 59.5774C148.918 59.7895 148.918 60.0015 148.706 60.2135V60.4255C148.494 60.6375 148.494 60.8495 148.282 61.0616V61.2736C148.07 61.4856 148.07 61.6976 147.858 61.9096C147.222 63.1818 146.586 64.2419 145.738 65.514V65.726L145.314 66.362L145.102 66.5741L144.678 67.2101L144.466 67.4221L144.042 67.8462L143.829 68.0582L143.405 68.4822L143.193 68.6943L142.769 69.1183C142.345 69.5423 142.133 69.9664 141.709 70.3904L141.285 70.8145L141.073 71.0265C140.861 71.2385 140.861 71.2385 140.649 71.4505L140.437 71.6625L140.013 72.0866L139.801 72.2986L139.377 72.7226L139.165 72.9347L138.741 73.3587L138.317 73.7827L138.105 73.9948L137.681 74.4188L137.469 74.6308C137.257 74.8428 137.045 75.0549 136.833 75.2669L136.409 75.4789L135.985 75.6909L135.561 75.9029L135.137 76.115L134.925 76.327L134.501 76.539L134.077 76.751L133.653 76.963L133.229 77.175L132.804 77.3871L132.592 77.5991C132.38 77.8111 132.168 77.8111 132.168 78.0231L131.956 78.2351C131.744 78.4472 131.532 78.4472 131.32 78.6592L131.108 78.8712C130.896 78.8712 130.684 79.0832 130.684 79.0832L130.26 79.2952L129.836 79.5073L129.412 79.7193L128.988 79.9313L128.776 80.1433L128.352 80.3553L127.928 80.5674L127.504 80.7794L127.292 80.9914C127.08 80.9914 126.868 81.2034 126.656 81.2034H126.444C126.232 81.4154 125.808 81.4154 125.596 81.6274H125.384C125.172 81.6274 124.96 81.8395 124.748 81.8395L124.324 82.0515L123.9 82.2635L123.476 82.4755L123.052 82.6876L122.628 82.8996L122.203 83.1116L121.78 83.3236L121.355 83.5356H120.931C120.719 83.5356 120.507 83.5356 120.295 83.7477H120.083C119.871 83.7477 119.447 83.9597 119.235 83.9597C119.023 83.9597 118.599 84.1717 118.387 84.1717C118.175 84.1717 117.751 84.1717 117.539 84.3837C117.327 84.3837 117.115 84.3837 116.903 84.3837H116.479C116.267 84.3837 116.055 84.3837 115.843 84.3837H115.419H114.783H114.359H113.935H113.511H113.087H112.663H112.239C112.027 84.3837 111.815 84.3837 111.603 84.3837H111.179H110.542H110.118H109.694H109.27H108.846H108.422H107.998H107.574H107.15H106.726H106.302H105.878H105.454H105.03L104.606 84.1717L104.182 83.9597H103.758L103.334 83.7477L102.91 83.5356L102.486 83.3236L102.062 83.1116L101.638 82.8996L101.214 82.6876L100.79 82.4755L100.366 82.2635L99.9415 82.0515L99.5175 81.8395L99.0935 81.6274L98.6694 81.4154L98.2453 81.2034L97.8213 80.9914L97.3973 80.7794L96.9733 80.5674L96.5492 80.3553L96.3372 80.1433L95.9132 79.9313L95.7011 79.7193L95.2771 79.5073L95.065 79.2952L94.641 79.0832L94.429 78.8712C94.217 78.6592 94.0049 78.6592 94.0049 78.4472L93.793 78.2351C93.581 78.0231 93.3689 78.0231 93.3689 77.8111L93.1569 77.5991C92.9449 77.3871 92.7329 77.3871 92.7329 77.175L92.5208 76.963C92.3088 76.751 92.0968 76.751 92.0968 76.539C91.8848 76.327 91.6727 76.327 91.4607 76.115C91.2487 75.9029 91.0367 75.6909 90.8247 75.6909C87.8564 72.7226 85.3122 69.3303 83.404 65.302C83.192 64.8779 82.98 64.2419 82.7679 63.6058C82.3439 62.7577 82.1318 61.9096 81.9198 61.0616C81.9198 60.8495 81.7078 60.4255 81.7078 60.2135C81.7078 60.0015 81.4959 59.5774 81.4959 59.3654C81.4959 59.1534 81.2838 58.7294 81.2838 58.5173C81.2838 58.3053 81.0718 57.8813 81.0718 57.6693C81.0718 57.4572 80.8597 57.0332 80.8597 56.8212C80.6477 56.1851 80.6478 55.5491 80.6478 54.913C80.6478 54.277 80.4358 53.6409 80.4358 53.0048H80.2237C80.2237 53.2169 80.2237 53.4289 80.2237 53.6409C80.4357 55.7611 80.4357 57.6693 80.6478 59.7895C80.6478 61.0616 80.2237 61.6976 79.1636 61.9096C78.5275 61.9096 78.1035 61.6976 78.1035 61.0616C78.1035 60.6375 77.8915 60.4255 77.8915 60.0015C77.6795 56.8212 77.4675 53.6409 77.2555 50.4606C77.2555 50.2486 77.2555 49.8246 77.2555 49.6125C77.2555 48.9765 77.4674 48.3404 78.1035 47.9164C78.7396 47.4923 79.3756 47.2803 80.2237 47.7044C80.8597 48.1284 81.0718 48.7644 81.4959 49.4005C81.4959 49.1885 81.4959 48.7645 81.4959 48.5524C81.4959 47.9164 81.4958 47.4923 81.7078 46.8563V46.6443C81.7078 46.4322 81.7078 46.2202 81.7078 46.0082V45.5842V45.1601V44.7361V44.312V43.888V43.464V43.0399V42.6159V42.1919L81.9198 41.5558V41.1318L82.1319 40.7077L82.3439 40.2837L82.556 39.8596L82.7679 39.4356L82.9799 39.0116L83.192 38.5875L83.404 38.1635L83.6161 37.7394L83.828 37.1034V36.8914L84.04 36.2553C84.04 36.0433 84.2521 35.6192 84.2521 35.4072C84.4641 35.1952 84.4642 34.7712 84.6762 34.5591L84.8881 34.3471L85.1001 33.7111L85.3122 33.287L85.5242 32.651L85.7363 32.2269L85.9482 31.8029L86.1602 31.3789L86.3723 30.9548L86.5843 30.5308L86.7964 30.1067L87.0083 29.6827L87.2203 29.2587L87.4324 28.8346L87.6444 28.4106L87.8565 27.9865L88.0684 27.5625L88.2804 27.1385L88.4925 26.7144L88.7045 26.5024L88.9166 26.0784L89.1285 25.6543L89.3405 25.2303L89.5526 24.8063L89.7646 24.3822L89.9767 23.9582L90.4006 23.5341L90.6127 23.3221C90.8247 23.1101 91.0368 22.8981 91.0368 22.6861C91.2488 22.474 91.4608 22.262 91.6728 22.05L91.8848 21.838L92.3088 21.4139L92.5208 20.9899L92.9448 20.5659L93.1569 20.1418L93.5809 19.7178L94.0049 19.2938L94.429 18.8697L94.8531 18.4457L95.2771 18.2337L95.7011 17.8096L95.9132 17.5976L96.3372 17.1736L96.7612 16.9615L97.1852 16.7495L97.6093 16.3255L97.8213 16.1135L98.2453 15.6894L98.4574 15.4774L98.8814 15.0534L99.3054 14.8414L99.7295 14.6293L100.154 14.4173L100.79 13.9933L101.002 13.7813L101.426 13.3572L101.638 13.1452C101.85 12.9332 102.062 12.7212 102.274 12.7212C102.486 12.5091 102.698 12.5091 103.122 12.2971H103.334C103.546 12.0851 103.758 12.0851 103.97 11.8731L104.182 11.6611L104.818 11.449L105.242 11.237L105.666 11.025L106.09 10.813L106.514 10.601L106.726 10.3889L107.15 10.1769L107.574 9.9649L107.998 9.75288L108.422 9.54087L108.846 9.32885L109.27 9.11682L109.694 8.9048L110.118 8.69279L110.542 8.48077L110.966 8.26875L111.391 8.05672L111.815 7.8447L112.239 7.63269L112.663 7.42067L113.087 7.20866H113.511C113.723 7.20866 113.935 7.20864 114.147 6.99662H114.359C117.327 6.57259 117.751 6.5726 117.963 6.36058ZM156.551 35.8313V36.2553V36.6793V36.8914V37.5274C156.551 37.7394 156.551 38.1635 156.551 38.3755C156.551 38.7995 156.551 39.0116 156.551 39.4356C156.551 39.6476 156.551 39.8596 156.551 40.0717V40.4957V40.9197V41.5558C156.763 40.0717 156.551 38.5875 156.339 37.1034L156.551 35.8313Z" fill="#DB71A9"/>
<path d="M123.263 90.9563L121.143 91.3804H120.931L109.058 90.9563L98.2452 86.928L96.125 85.6559L95.9131 85.4438L95.489 85.0198L95.277 84.8078L94.6409 84.3837L94.4289 84.1717L91.6727 81.8395C88.0683 78.4472 85.3121 74.4188 83.1919 69.9664C82.9799 69.3304 82.5558 68.6943 82.3438 68.0582C82.1318 67.4222 81.9198 66.9981 81.7077 66.3621C78.7395 66.7861 76.4073 64.8779 75.7712 61.6977C75.5592 61.0616 75.5591 60.4255 75.5591 59.7895L74.9231 50.2486C74.9231 49.6125 74.9231 49.1885 74.9231 48.5525C75.1351 45.5842 76.8313 43.0399 79.1635 41.7678C79.3755 41.7678 79.5875 41.5558 79.7995 41.5558L81.7077 34.3472C81.7077 34.3472 81.7077 34.1351 81.7077 33.9231L82.7678 31.1669L82.9798 30.7428L88.7044 20.1419L96.7611 11.025L100.578 8.05674L100.789 7.84473L104.394 5.51252L104.606 5.3005L114.359 1.27213L116.267 0.848097C116.691 0.848097 117.115 0.636065 117.327 0.636065L124.748 0L127.716 0.212032H127.928L133.228 1.0601C133.228 1.0601 133.44 1.0601 133.652 1.0601L134.289 1.27213C134.289 1.27213 134.501 1.27213 134.713 1.27213L135.349 1.48416H135.561L140.861 3.81636L141.073 4.02839L142.345 4.87645C142.769 5.08847 143.193 5.30049 143.617 5.72453L146.586 7.84473L146.798 8.05674L147.222 8.48079C148.494 9.54089 149.342 10.389 150.402 11.4491L151.038 12.0851L151.25 12.2971L152.946 14.2053C154.218 15.9015 155.278 17.5976 156.339 19.5058L157.187 21.202L157.399 21.414L157.611 22.05C158.459 23.7462 159.095 25.4423 159.519 27.3505C159.519 27.3505 159.519 27.3505 159.731 27.3505C159.731 27.3505 159.731 27.3505 159.943 27.3505C159.943 27.3505 160.155 27.3505 160.155 27.5625C160.155 27.5625 160.155 27.5625 160.367 27.5625H160.579C160.579 27.5625 160.791 27.7746 161.003 27.7746C161.003 27.7746 161.215 27.9866 161.427 27.9866L161.639 28.1986L161.851 28.4106L162.063 28.6226L162.275 28.8347L162.487 29.0467C162.487 29.0467 162.699 29.4707 162.911 29.4707C164.183 30.9549 164.819 32.651 165.243 34.3472C165.667 36.2553 165.879 38.7996 165.455 41.5558C165.031 44.9481 163.335 47.7044 160.791 49.6126C160.579 51.3087 160.155 53.2169 159.519 55.1251L159.307 55.9731C159.307 55.9731 159.307 56.3972 159.095 56.3972L158.883 57.2453C158.247 59.1534 157.399 61.0616 156.763 62.7578L155.49 65.302L155.278 65.514C154.43 66.9981 153.794 68.2702 152.946 69.5424L152.522 70.3904L152.31 70.6025L151.886 71.2385L151.674 71.4505L151.25 71.8746L151.038 72.0866L150.614 72.5106L150.402 72.7227L149.978 73.1467C149.554 73.5707 149.13 74.2068 148.706 74.6308L147.434 76.115L147.222 76.327L138.741 83.5357L138.105 83.9597C137.893 83.9597 137.893 83.9597 137.893 84.1717L137.045 84.5958L134.713 79.9313L136.833 84.8078L131.532 87.564L130.472 87.9881C130.472 87.9881 130.26 87.9881 130.26 88.2001L124.536 89.8962H124.324C123.9 90.7443 123.688 90.7443 123.263 90.9563ZM121.143 80.1433L122.627 79.9313L127.928 78.4472L133.016 75.9029L133.228 75.6909L133.864 75.2669L134.077 75.0549L141.073 69.1183L142.133 68.0582C142.557 67.6342 142.769 67.4222 142.981 66.9981L145.102 64.0299C145.738 62.9698 146.374 61.9097 147.01 60.8496L148.07 58.9414C148.706 57.4573 149.342 56.1851 149.766 54.701L150.19 53.2169C150.614 51.7327 151.038 50.2486 151.25 48.7645C151.25 48.7645 151.25 48.5524 151.25 48.3404L151.462 46.4323C151.462 46.0082 151.674 45.3722 151.886 44.9481C151.886 44.5241 151.674 44.1 151.674 43.676V42.8279L153.158 42.6159L153.37 42.4039L152.31 42.6159H151.674V41.5558V41.3438C151.674 41.3438 151.674 41.3438 151.674 41.1318V40.4957V40.2837V39.4356V38.5875V38.3755V37.7395V37.5274V37.1034V36.8914V36.4673C151.674 36.0433 151.674 35.4073 151.674 34.9832C151.462 34.5592 151.25 34.1351 151.038 33.4991L150.614 31.5909C150.19 30.1068 149.766 28.8347 149.13 27.5625L148.282 25.6544C147.434 24.1702 146.586 22.8981 145.738 21.626L144.041 19.5058C143.193 18.6577 142.557 18.0217 141.709 17.3856L138.741 15.2654C138.529 15.0534 138.105 14.8414 137.893 14.6294L132.38 12.0851L126.868 11.025L119.447 11.237L118.811 11.4491L109.482 14.8414L98.8813 23.7462L92.7328 33.9231L92.5207 34.3472L92.3087 34.5592L89.7645 45.3722C89.7645 46.0082 89.7645 46.6443 89.5525 47.0683V47.9164C89.5525 48.7645 89.3405 49.8246 88.9165 50.6727L89.1284 50.8847L89.3404 51.3087C89.5524 51.9448 89.7645 52.5808 89.7645 53.2169C89.7645 53.6409 89.7645 54.065 89.9766 54.701C89.9766 55.3371 90.1885 55.7611 90.1885 56.3972L90.4005 57.2453L91.2486 60.2135C91.4606 61.0616 91.6727 61.6977 92.0967 62.3337C92.3088 62.7578 92.5208 63.3938 92.7328 63.8179C94.4289 67.2102 96.5491 70.3905 99.0934 72.9347L101.214 74.6308L98.2452 79.5073L101.426 74.8428L112.026 79.7193L116.903 80.3554H117.327L121.143 80.1433C120.931 80.1433 120.931 80.1433 121.143 80.1433Z" fill="#E192BC"/>
<path fill-rule="evenodd" clip-rule="evenodd" d="M117.963 6.1486C138.105 2.33225 155.491 16.9616 156.763 38.7996C158.035 60.6376 142.982 81.4155 122.84 85.0198C102.698 88.8361 85.3121 74.2068 84.04 52.3688C82.7679 30.7428 98.0333 9.96494 117.963 6.1486Z" fill="#DB71A9"/>
<path fill-rule="evenodd" clip-rule="evenodd" d="M118.811 18.4458C132.804 15.9015 144.89 26.0785 145.95 41.1319C146.798 56.3973 136.409 70.8146 122.416 73.3588C108.422 75.903 96.3372 65.7261 95.2771 50.6727C94.217 35.6194 104.818 20.99 118.811 18.4458Z" fill="#73BCB1"/>
<path fill-rule="evenodd" clip-rule="evenodd" d="M145.313 19.7179C145.313 19.9299 145.101 20.142 144.889 20.354C144.041 20.99 143.405 21.6261 142.981 22.6862C142.769 23.3222 142.345 23.3222 142.133 22.8982C141.709 22.0501 141.073 21.4141 140.225 21.2021C139.801 20.99 139.801 20.566 140.225 20.354C141.073 19.7179 141.709 18.8698 142.133 18.0218C142.345 17.5977 142.769 17.3857 142.981 17.8098C143.405 18.6578 144.041 19.2939 144.889 19.5059C145.101 19.2939 145.313 19.5059 145.313 19.7179Z" fill="#ECCA49"/>
<path fill-rule="evenodd" clip-rule="evenodd" d="M139.589 15.9014C139.589 16.1135 139.589 16.1134 139.377 16.3255C138.953 16.5375 138.741 16.9615 138.529 17.3856C138.317 17.8096 138.105 17.8096 137.893 17.3856C137.681 16.9615 137.257 16.7495 137.045 16.5375C136.621 16.3255 136.621 16.1135 137.045 15.9014C137.469 15.6894 137.681 15.2654 137.893 14.6293C137.893 14.4173 138.105 14.2053 138.317 14.4173C138.529 15.2654 138.953 15.6894 139.589 15.9014Z" fill="#ECCA49"/>
<path fill-rule="evenodd" clip-rule="evenodd" d="M140.013 42.6159C140.013 43.4639 140.013 44.312 140.225 45.1601C140.437 47.2803 140.437 47.2803 142.345 46.6442C143.617 46.2202 144.254 45.3721 144.678 43.888C144.89 42.4038 144.89 40.9197 144.253 39.6476C143.829 38.5875 142.981 37.9514 141.921 38.1635C141.497 38.1635 141.073 38.3755 140.437 38.3755C140.013 38.3755 139.801 38.5875 140.013 39.0115C140.013 40.0716 140.013 41.3438 140.013 42.6159ZM136.621 37.1034C136.833 36.6793 137.045 36.2553 137.469 36.0433C139.165 35.6192 140.649 35.4072 142.345 35.1952C143.193 35.1952 143.829 35.4072 144.678 35.4072L144.89 35.6192C147.01 36.6793 147.646 38.7995 147.858 41.3438C148.07 43.0399 147.858 44.7361 146.798 46.4322C146.374 47.0683 145.95 47.7043 145.314 48.1284C145.314 48.1284 145.102 48.1284 145.314 48.3404C144.89 48.5524 144.253 48.7644 143.829 48.9765C142.557 49.4005 141.073 49.6125 139.801 49.8245C139.377 50.0366 138.741 50.0366 138.317 49.8245L138.105 49.6125C137.681 49.1885 137.681 48.5524 137.469 47.9164C137.257 44.7361 137.045 41.7678 136.833 38.5875C136.621 37.9514 136.621 37.5274 136.621 37.1034Z" fill="white"/>
<path fill-rule="evenodd" clip-rule="evenodd" d="M154.642 35.1952C154.218 35.1952 153.794 35.4072 153.37 35.8313C153.158 36.0433 152.946 36.2553 152.946 36.4673C152.946 36.6793 152.734 36.6793 152.734 36.8914C152.522 37.1034 152.522 37.5274 152.522 37.7394C152.31 39.2236 152.522 40.7077 152.734 42.1918C152.946 42.6159 153.158 43.2519 153.37 43.464C154.006 44.312 154.854 44.1 155.915 43.676C156.975 43.2519 157.399 42.4039 157.399 41.3438C157.611 39.8596 157.399 38.3755 157.187 36.8914C156.975 35.6192 156.127 34.9832 154.854 35.1952C155.066 35.1952 154.854 35.1952 154.642 35.1952ZM155.915 32.2269C157.399 32.2269 158.671 32.651 159.519 33.9231C160.155 34.5591 160.367 35.4072 160.579 36.4673C160.791 38.1635 161.003 39.8596 160.791 41.5558C160.367 43.888 159.095 45.5842 156.975 46.4322C156.763 46.4322 156.763 46.6443 156.551 46.6443C155.915 46.8563 155.066 47.0683 154.43 47.0683C152.098 47.0683 150.402 45.7962 149.766 43.2519C149.342 41.7678 149.13 40.0716 149.342 38.3755C149.766 34.9832 151.674 33.075 154.642 32.4389C155.279 32.4389 155.49 32.4389 155.915 32.2269Z" fill="white"/>
<path fill-rule="evenodd" clip-rule="evenodd" d="M84.0401 48.3403C84.8881 50.0365 85.7362 51.7327 86.5843 53.4288C86.7963 53.2168 86.7964 53.0048 87.0084 52.7928C87.6444 50.8846 88.2805 48.9764 88.9166 47.0682C89.1286 46.6442 89.1286 46.2202 89.5526 45.5841C89.9767 44.736 90.8248 44.312 91.6728 44.524C92.3089 44.524 92.9449 45.16 92.9449 46.2201C93.1569 49.6125 93.3689 53.2168 93.5809 56.6091C93.5809 57.6692 93.157 58.3053 92.0969 58.5173C91.4608 58.7293 91.0367 58.3053 90.8247 57.6692C90.6127 57.0331 90.6127 56.1851 90.6127 55.549C90.4007 53.8528 90.4007 51.9447 90.1887 50.2485H89.9767C89.3406 51.9447 88.9165 53.6408 88.2804 55.337C88.0684 55.761 87.8564 56.1851 87.6444 56.8211C87.2204 57.6692 86.1603 57.8812 85.5242 57.0331C85.1002 56.3971 84.6762 55.549 84.2522 54.913C83.6161 53.8529 83.1921 52.7927 82.556 51.5206H82.3439C82.3439 51.7327 82.3439 51.9447 82.3439 52.1567C82.5559 54.2769 82.556 56.1851 82.768 58.3053C82.768 59.5774 82.3439 60.2134 81.2838 60.4255C80.6478 60.4255 80.2237 60.2134 80.2237 59.5774C80.2237 59.1533 80.0118 58.9413 80.0118 58.5173C79.7997 55.337 79.5878 52.1567 79.3757 48.9764C79.3757 48.7644 79.3757 48.3403 79.3757 48.1283C79.3757 47.4923 79.5877 46.8562 80.2237 46.4322C80.8598 46.0081 81.4958 45.7961 82.3439 46.2201C83.404 47.0682 83.616 47.7043 84.0401 48.3403Z" fill="white"/>
<path fill-rule="evenodd" clip-rule="evenodd" d="M111.603 52.793C111.603 53.005 111.603 53.005 111.603 53.217C111.603 54.0651 111.39 54.7011 110.542 55.1252C109.694 55.5492 109.482 55.3372 108.846 54.4891C108.422 50.4608 108.21 46.6444 107.998 42.616C108.21 41.768 108.634 41.3439 109.482 41.1319C109.694 41.1319 110.118 41.1319 110.33 40.9199C110.542 40.9199 110.542 40.9199 110.755 40.9199C110.967 41.1319 110.967 41.1319 111.179 41.1319C111.603 41.768 112.027 42.616 112.451 43.2521C112.875 44.1002 113.299 45.1603 113.935 45.7963C114.147 46.6444 114.571 47.2805 114.995 48.1285C115.207 47.2805 115.419 46.4324 115.843 45.5843C116.055 45.1603 116.055 44.7362 116.267 44.3122C116.903 42.616 117.115 40.9199 118.175 39.4358C118.387 39.4358 118.387 39.2237 118.599 39.2237C118.811 39.2237 119.235 39.0117 119.447 39.0117C120.507 39.0117 121.143 39.4357 121.143 40.7079C121.355 44.3122 121.568 47.7045 121.78 51.3088C121.78 52.3689 121.356 53.005 120.719 53.217C119.871 53.429 119.447 53.217 119.235 52.1569C119.235 51.9449 119.235 51.9449 119.023 51.7329C118.811 49.4007 118.811 47.0684 118.599 44.7362H118.387C117.751 46.6444 117.115 48.7646 116.479 50.6728C116.267 51.0968 116.055 51.7329 115.631 51.9449C115.207 52.1569 114.571 52.1569 114.147 51.7329C113.935 51.5209 113.935 51.3088 113.723 51.0968C113.087 49.4007 112.027 47.9165 111.179 46.2204C111.179 46.0083 110.966 46.0083 110.966 46.2204C111.391 48.5526 111.603 50.6728 111.603 52.793Z" fill="white"/>
<path fill-rule="evenodd" clip-rule="evenodd" d="M129.2 40.7079C128.988 40.7079 128.988 40.7079 129.2 40.7079C128.776 42.404 128.352 44.1002 127.928 45.7963C127.928 46.2204 128.14 46.0083 128.352 46.0083C129.2 45.7963 129.836 45.7963 130.684 45.5843C130.896 45.5843 131.108 45.3723 130.896 45.1603C130.26 43.6761 129.624 42.192 129.2 40.7079ZM135.348 49.4006C134.712 50.8848 133.652 51.0968 132.592 50.2487C132.38 49.6127 132.168 48.9766 131.956 48.3406C131.744 47.9165 131.532 47.9165 131.32 47.9165C130.26 48.1285 129.2 48.3406 128.14 48.5526C127.716 48.5526 127.504 48.7646 127.504 49.1886C127.292 49.8247 127.08 50.6728 127.08 51.3088C126.232 52.5809 125.384 52.793 124.323 51.7329C124.323 51.5209 124.111 51.3088 124.111 50.8848C124.748 47.2805 125.808 43.6761 126.656 40.2838C126.868 39.4357 127.08 38.3756 127.928 38.1636C129.624 37.3156 130.896 37.3155 131.744 39.4357C133.016 42.404 134.076 45.1603 135.136 48.1285C135.136 48.3406 135.348 48.7646 135.348 49.4006Z" fill="white"/>
<path fill-rule="evenodd" clip-rule="evenodd" d="M100.577 46.0083C100.153 47.7045 99.7293 49.4006 99.3052 51.3088C99.3052 51.7328 99.5173 51.5208 99.7293 51.5208C100.365 51.3088 101.213 51.3088 101.85 51.0968C102.274 51.0968 102.273 50.8847 102.061 50.4607C101.637 49.4006 101.213 48.3405 101.001 47.2804C101.001 46.8564 100.789 46.4323 100.577 46.0083ZM96.549 57.8814C95.4889 57.4573 95.2769 57.0333 95.4889 55.7612C95.4889 55.3372 95.7009 55.1251 95.7009 54.7011C95.7009 54.4891 95.913 54.065 95.913 53.853C96.7611 50.6727 97.3971 47.7045 98.2451 44.5242C98.4572 43.8881 98.8812 43.4641 99.3052 43.04C100.789 42.1919 102.274 42.616 102.91 44.1001C104.182 47.0684 105.242 50.0367 106.514 53.0049C106.726 53.429 106.726 54.065 106.726 54.7011C106.09 55.7612 105.242 56.1852 104.606 55.7612C104.394 55.7612 104.182 55.5492 104.182 55.3372C103.97 55.1251 103.97 54.7011 103.758 54.4891C103.546 54.065 103.546 53.641 103.334 53.217C103.334 52.7929 103.122 52.7929 102.698 52.7929C101.85 53.005 101.213 53.0049 100.365 53.217C98.6692 53.429 98.6693 53.429 98.4572 55.3372C98.4572 55.5492 98.4572 55.9732 98.2451 56.1852C98.0331 56.1852 97.8211 56.3973 97.8211 56.6093C97.6091 57.6694 97.1851 57.6694 96.549 57.8814Z" fill="white"/>
</svg>
