<svg width="398" height="520" viewBox="0 0 398 520" fill="none" xmlns="http://www.w3.org/2000/svg">
<path d="M198.919 520C89.0591 520 -3.05176e-05 516.647 -3.05176e-05 512.511C-3.05176e-05 508.375 89.0591 505.022 198.919 505.022C308.779 505.022 397.838 508.375 397.838 512.511C397.838 516.647 308.779 520 198.919 520Z" fill="#90A2BF"/>
<path d="M126.839 481.618C126.839 485.363 125.435 486.299 124.03 486.299H117.478C116.074 486.299 114.67 485.363 114.67 483.959V387.541C114.67 386.137 116.074 385.201 117.478 385.201H124.03C125.435 385.201 126.839 386.137 126.839 385.201V481.618Z" fill="#B1D9DF"/>
<path d="M135.265 410.943C135.265 413.752 131.989 416.092 127.776 416.092H114.203C109.99 416.092 106.714 413.752 106.714 410.943V390.817C106.714 388.009 109.99 385.669 114.203 385.669H127.776C131.989 385.669 135.265 388.009 135.265 390.817V410.943Z" fill="#B1D9DF"/>
<path d="M197.982 489.107C197.982 490.979 196.578 492.383 194.706 492.383H47.2715C45.3994 492.383 43.9955 490.979 43.9955 489.107C43.9955 487.235 45.3994 485.831 47.2715 482.554H194.706C196.578 485.831 197.982 487.235 197.982 489.107Z" fill="#B1D9DF"/>
<path d="M47.2721 508.297C40.0342 508.297 34.1671 502.639 34.1671 495.66C34.1671 488.681 40.0342 483.023 47.2721 483.023C54.5099 483.023 60.3776 488.681 60.3776 495.66C60.3776 502.639 54.5099 508.297 47.2721 508.297Z" fill="#93CBCD"/>
<path d="M193.77 508.297C186.532 508.297 180.664 502.639 180.664 495.66C180.664 488.681 186.532 483.023 193.77 483.023C201.008 483.023 206.875 488.681 206.875 495.66C206.875 502.639 201.008 508.297 193.77 508.297Z" fill="#93CBCD"/>
<path d="M132.456 339.801C132.456 355.714 121.691 368.351 109.054 368.351H52.8883C39.783 368.351 29.486 355.714 29.486 339.801V221.853C29.486 205.94 40.251 193.302 52.8883 193.302H109.054C122.159 193.302 132.456 205.94 132.456 221.853V339.801Z" fill="#B1D9DF"/>
<path d="M212.491 385.201C212.491 388.477 208.278 391.286 203.598 391.286H38.3778C33.2293 391.286 29.4854 388.477 29.4854 385.201V374.904C29.4854 371.628 33.6974 368.82 38.3778 368.82H203.598C208.746 368.82 212.491 371.628 212.491 374.904V385.201Z" fill="#93CBCD"/>
<path d="M162.41 254.148C168.962 259.765 178.791 273.338 188.152 273.806C198.449 274.274 204.534 260.233 207.811 252.744C211.087 245.724 220.447 227.938 218.575 219.981C215.767 207.812 195.641 218.577 187.684 221.853C174.111 227.47 159.602 235.895 161.474 251.34L162.41 254.148Z" fill="#71B9B0"/>
<path d="M260.231 479.278C260.7 483.023 262.572 486.767 263.04 490.511C269.124 491.447 276.613 490.979 282.698 490.043C282.23 485.831 280.825 478.81 278.953 475.066L260.231 479.278Z" fill="#E0C3C1"/>
<path d="M290.187 462.429C290.187 466.173 290.655 470.385 291.123 474.13C297.208 474.598 304.228 472.257 309.845 470.853C308.441 467.109 307.973 461.024 308.441 457.28L290.187 462.429Z" fill="#E0C3C1"/>
<path d="M107.649 111.395C102.5 101.098 92.2036 70.6748 97.8201 60.3779C103.437 50.0809 115.138 49.6128 128.711 50.0809C142.752 50.5489 146.029 61.3139 151.177 68.3346C152.113 69.7388 152.581 77.6955 152.581 77.6955C152.113 96.8854 141.348 107.182 124.031 113.735C121.222 114.671 118.882 115.607 116.074 116.543L107.649 111.395Z" fill="url(#paint0_linear)"/>
<path d="M147.9 156.327C147.432 161.944 145.56 170.837 144.624 175.985C143.688 183.006 138.071 173.177 133.391 171.305C120.753 167.092 109.052 155.859 101.095 145.094C99.2232 142.286 94.5431 137.137 97.3513 134.329C99.6916 132.457 101.564 131.053 102.968 129.181C105.776 125.904 106.244 122.16 106.712 117.479C107.18 114.671 107.18 112.331 107.648 109.991C107.648 108.587 107.648 106.714 107.648 105.31C108.116 101.566 108.584 98.2895 108.116 94.5452L139.475 109.523C139.007 110.927 139.007 112.331 138.539 114.203C137.603 119.82 136.199 127.776 138.539 132.925C138.539 132.925 138.539 133.393 139.007 133.393C140.879 136.201 144.156 135.265 145.56 139.009C147.9 142.286 148.368 152.115 147.9 156.327Z" fill="#E0C3C1"/>
<path d="M138.54 113.735C137.604 119.352 136.2 127.308 138.54 132.457C138.54 132.457 138.54 132.925 139.008 132.925C136.668 134.329 134.328 135.265 131.52 134.797C123.095 134.329 116.075 125.904 111.394 112.331C110.926 109.055 109.99 105.31 109.99 103.906C109.054 99.6937 109.054 98.2895 108.117 94.5452L139.477 109.523C139.477 110.927 139.008 112.331 138.54 113.735Z" fill="#BE9DA5"/>
<path d="M152.582 91.7368C152.114 111.863 147.433 129.18 135.732 130.585C124.031 131.989 108.586 114.671 106.714 94.5451C104.374 74.4191 115.138 55.2293 126.371 53.8251C138.073 52.889 153.05 55.6973 152.582 91.7368Z" fill="#E0C3C1"/>
<path d="M158.666 288.784C176.92 290.656 211.555 301.889 226.065 305.634C240.574 309.378 261.636 315.931 265.848 323.887C270.061 332.78 273.337 343.077 278.953 355.714C291.122 383.797 301.42 424.517 315.461 459.62C315.461 459.62 286.91 468.513 285.506 468.981C285.506 468.981 275.209 428.261 256.487 386.605C243.85 358.523 228.873 315.931 223.724 314.058C211.555 309.378 156.794 307.974 138.54 307.038C143.688 300.485 151.177 295.337 158.666 288.784Z" fill="#8880BA"/>
<path d="M101.564 131.521C103.904 131.521 113.734 146.03 116.542 146.966C123.562 150.242 128.711 150.242 136.199 147.902C138.072 147.434 137.604 147.434 139.008 146.03C139.944 145.094 141.348 137.605 141.348 134.797C146.964 136.669 145.561 140.881 146.497 143.222C147.433 146.966 150.241 150.242 151.177 153.987C153.049 161.475 156.326 169.9 152.113 176.921C152.581 176.921 153.517 184.41 153.985 184.41C142.284 187.218 129.647 182.537 117.946 184.41C119.818 181.133 116.542 176.921 115.137 173.645C114.201 170.836 114.201 167.56 113.265 164.284C112.329 159.135 110.457 154.923 108.117 150.71C105.777 146.03 102.032 140.881 101.096 135.733L101.564 131.521Z" fill="white"/>
<path d="M191.429 294.4C187.217 289.252 175.983 270.53 174.111 263.041C172.239 255.552 168.963 216.705 169.899 208.28C170.835 199.855 180.196 188.622 178.324 179.729C176.451 170.836 170.835 148.37 165.687 144.626C161.006 140.881 148.369 136.201 140.412 134.797C144.624 141.349 140.88 178.793 115.605 149.306C111.393 144.158 104.373 134.797 100.628 131.521C93.1395 136.201 81.4385 141.349 76.758 143.69C72.0776 146.498 63.6528 154.455 60.3764 160.071C54.2919 170.836 58.036 193.302 63.6525 220.449C69.2691 247.596 77.6939 272.402 77.6939 281.295C77.6939 290.188 191.429 294.4 191.429 294.4Z" fill="#71B9B0"/>
<path d="M248.531 365.075C239.638 341.205 234.49 323.887 225.129 312.654C215.3 301.421 188.621 307.505 176.452 304.697C163.815 301.889 162.411 302.825 146.497 303.293C151.178 302.357 146.497 303.293 146.497 303.293C130.116 303.761 96.8843 314.994 80.0347 321.079C77.6945 356.65 83.7794 365.543 97.3527 369.287C103.905 371.16 115.138 370.692 122.159 370.692C146.497 370.692 181.133 371.16 195.642 371.16C208.279 371.16 212.023 371.628 215.768 380.052C224.193 401.114 218.576 407.667 231.681 424.517C245.255 441.366 256.488 476.47 261.636 485.831L286.443 474.598C270.997 448.387 257.424 389.413 248.531 365.075Z" fill="#8880BA"/>
<path d="M114.202 146.498C114.202 146.498 120.287 257.425 132.456 296.741L134.328 313.59L78.1625 323.419C78.1625 323.419 79.5668 316.398 79.5668 306.57C79.5668 306.57 79.5671 290.188 78.631 284.571C78.631 284.571 77.6946 277.551 77.2266 276.147C76.7586 275.21 75.3544 268.658 74.8864 264.445L67.8657 158.199L114.202 146.498Z" fill="#71B9B0"/>
<path d="M141.817 136.201C141.349 134.797 140.881 134.329 140.881 134.329C140.881 133.861 139.008 132.925 139.008 132.925L129.179 138.073V143.69L131.052 148.37C131.052 148.37 138.54 149.306 140.413 144.626C140.413 144.626 141.817 138.541 141.817 136.201Z" fill="white"/>
<path d="M114.202 146.498C114.202 146.498 115.138 164.284 116.075 171.305C116.543 178.793 124.967 268.19 128.244 279.891C128.244 279.891 131.052 297.209 133.86 305.633C133.86 305.633 168.963 300.953 176.452 293.464C176.452 293.464 144.157 148.37 142.753 144.626C142.285 144.626 129.648 156.795 114.202 146.498Z" fill="white"/>
<path d="M132.923 149.306L131.519 144.158L101.096 131.052L114.202 146.498C114.202 146.498 128.243 153.519 132.923 149.306Z" fill="white"/>
<path d="M127.776 146.498C126.372 153.05 136.2 248.532 137.605 263.509C139.009 273.806 145.093 282.231 150.241 289.252C153.05 280.359 153.518 271.934 152.114 262.105C150.71 252.276 132.924 147.434 131.988 145.562L127.776 146.498Z" fill="#D972AA"/>
<path d="M262.104 490.511C267.253 498 257.892 509.233 271.465 507.361C280.358 506.425 297.676 505.489 306.569 504.553C313.589 503.616 319.674 503.148 324.355 498C322.482 489.575 317.334 491.447 311.249 490.511C304.696 489.575 302.825 489.575 296.272 487.703C292.528 486.299 284.102 486.767 281.294 483.49L262.104 490.511Z" fill="#3D3B3E"/>
<path d="M290.187 473.662C294.867 481.15 284.57 491.915 298.143 490.979C307.036 490.511 324.354 490.511 333.246 490.043C340.267 489.575 346.352 489.575 351.5 484.427C350.096 476.002 344.948 477.406 338.863 476.002C332.311 474.598 330.438 474.598 323.886 472.257C320.141 470.853 312.185 470.385 309.376 467.109L290.187 473.662Z" fill="#3D3B3E"/>
<path d="M137.604 235.895C137.604 236.363 137.136 236.831 137.136 236.831C137.136 236.831 72.0778 266.318 67.3973 267.722C62.7169 269.126 51.952 265.85 50.5478 263.041C48.6756 259.765 43.5269 247.596 46.8032 213.429C50.0796 183.006 60.8446 160.072 60.8446 160.072C60.8446 160.072 85.1828 180.666 87.055 183.474C88.4591 186.282 89.3953 196.579 88.9273 200.791C88.4593 205.004 87.055 223.726 87.055 223.726C87.055 223.726 123.563 206.408 132.456 201.728C133.392 201.26 133.859 201.26 134.327 201.26C136.668 202.196 139.944 214.365 141.817 220.917C142.285 226.534 138.54 232.619 137.604 235.895Z" fill="#71B9B0"/>
<path d="M104.373 127.776L129.647 138.073L131.519 144.158C127.775 144.158 101.096 131.052 101.096 131.052C101.096 131.052 103.437 128.712 104.373 127.776Z" fill="white"/>
<path d="M176.451 204.536C176.919 205.004 176.451 206.408 175.515 206.876C174.579 207.344 173.643 207.344 173.175 206.408L147.433 168.028C146.964 167.56 147.432 166.156 148.368 165.688C149.304 165.22 150.241 165.22 150.709 166.156L176.451 204.536Z" fill="#444E78"/>
<path d="M137.136 236.831C133.859 236.831 131.519 233.086 130.115 229.342C129.647 228.406 129.647 227.938 129.178 227.002C129.178 226.534 129.179 226.534 128.711 226.066C127.306 221.385 126.37 216.237 126.838 211.556C127.306 208.28 128.243 205.472 130.115 203.131C130.583 202.663 131.051 202.195 131.519 201.727C132.455 201.259 132.923 201.259 133.391 201.259C133.391 201.259 133.859 201.259 133.859 201.727C134.795 202.663 135.731 204.068 136.199 206.408C137.603 210.152 139.008 214.833 139.944 218.577C139.944 219.513 140.412 219.981 140.412 220.917C140.412 221.385 140.412 221.853 140.88 222.789C141.816 228.406 137.604 236.831 137.136 236.831Z" fill="#4D6A72"/>
<path d="M129.019 138.797C132.096 138.405 134.881 140.375 135.239 143.196C135.598 146.016 133.394 148.62 130.317 149.011C127.24 149.402 124.455 147.433 124.096 144.612C123.737 141.791 125.942 139.188 129.019 138.797Z" fill="#D972AA"/>
<path d="M170.367 202.663C168.963 204.067 161.006 206.408 159.602 209.216C158.198 212.024 154.453 219.981 146.028 221.385C144.624 221.385 143.22 222.321 141.348 222.789C140.412 223.257 139.476 223.725 138.54 224.193C135.732 225.598 132.456 227.47 130.115 229.342C129.647 228.406 129.647 227.938 129.179 227.002C129.179 226.534 129.179 226.534 128.711 226.066C127.307 221.385 126.371 216.237 126.839 211.556C128.243 211.088 131.52 209.684 132.456 209.216C132.924 208.748 133.391 208.748 133.859 208.28C134.327 207.812 135.264 207.344 136.2 206.408C140.412 202.195 146.497 193.302 147.433 191.43C148.369 189.558 156.326 181.133 156.794 180.665C157.262 180.197 161.006 179.261 161.942 180.665C163.346 182.069 164.75 183.941 164.75 183.941C164.75 183.941 162.879 185.346 165.219 186.75C167.559 188.154 168.963 190.494 168.963 193.302C170.367 196.111 171.771 201.259 170.367 202.663Z" fill="#E0C3C1"/>
<path d="M206.875 249.936L139.945 262.573L172.708 180.666L239.638 168.028L206.875 249.936Z" fill="#E9B7D3"/>
<path d="M220.448 200.323C216.236 199.855 215.3 201.727 218.576 204.536C219.98 205.472 221.384 206.408 222.321 207.812C210.619 207.812 204.067 219.045 212.492 228.406C220.916 237.767 223.725 229.342 227.469 221.385C229.341 217.641 234.022 210.62 231.681 206.408C229.341 203.599 223.725 200.791 220.448 200.323Z" fill="#E0C3C1"/>
<path d="M106.245 93.1409C106.245 93.1409 106.245 80.5037 110.925 74.4191C111.861 73.015 112.33 71.6109 112.33 69.7387C112.33 67.3985 111.861 60.8458 119.818 66.4624C119.818 66.4624 143.689 81.4398 155.858 73.9511C167.091 67.3985 158.198 57.5695 150.241 54.7612C147.901 53.8252 145.093 51.0169 142.285 49.6128C139.944 48.2086 137.136 46.8045 131.519 43.9962C129.179 42.5921 125.435 42.124 122.626 42.124C118.882 42.5921 113.734 42.5921 107.649 44.9323C98.7563 48.6767 92.6716 57.1015 94.0757 66.9304C95.0118 73.015 94.0758 80.0357 98.2882 88.4605L106.245 93.1409Z" fill="#3D3B3E"/>
<path d="M107.649 93.609C106.713 91.2687 100.629 83.312 98.2886 88.9285C96.8844 92.2048 101.097 100.162 102.969 102.502C104.373 104.374 106.714 106.246 109.054 104.842C108.118 102.034 108.585 98.7575 108.117 95.9492L107.649 93.609Z" fill="#E0C3C1"/>
<path d="M161.475 93.1411C158.373 93.1411 155.858 90.6264 155.858 87.5245C155.858 84.4226 158.373 81.908 161.475 81.908C164.576 81.908 167.091 84.4226 167.091 87.5245C167.091 90.6264 164.576 93.1411 161.475 93.1411Z" fill="#ACC7E6"/>
<path d="M177.388 84.7161C173.769 84.7161 170.835 81.7824 170.835 78.1635C170.835 74.5446 173.769 71.6108 177.388 71.6108C181.007 71.6108 183.941 74.5446 183.941 78.1635C183.941 81.7824 181.007 84.7161 177.388 84.7161Z" fill="#ACC7E6"/>
<path d="M188.153 65.9944C183.759 65.9944 180.197 62.432 180.197 58.0376C180.197 53.6432 183.759 50.0808 188.153 50.0808C192.548 50.0808 196.111 53.6432 196.111 58.0376C196.111 62.432 192.548 65.9944 188.153 65.9944Z" fill="#ACC7E6"/>
<path d="M229.341 50.5489C208.145 50.5489 190.962 39.2331 190.962 25.2744C190.962 11.3157 208.145 0 229.341 0C250.538 0 267.721 11.3157 267.721 25.2744C267.721 39.2331 250.538 50.5489 229.341 50.5489Z" fill="#ACC7E6"/>
<path d="M205.47 30.8911C202.368 30.8911 199.853 28.3764 199.853 25.2745C199.853 22.1726 202.368 19.658 205.47 19.658C208.572 19.658 211.087 22.1726 211.087 25.2745C211.087 28.3764 208.572 30.8911 205.47 30.8911Z" fill="white"/>
<path d="M229.341 30.8911C226.239 30.8911 223.725 28.3764 223.725 25.2745C223.725 22.1726 226.239 19.658 229.341 19.658C232.443 19.658 234.957 22.1726 234.957 25.2745C234.957 28.3764 232.443 30.8911 229.341 30.8911Z" fill="white"/>
<path d="M252.743 30.8911C249.641 30.8911 247.127 28.3764 247.127 25.2745C247.127 22.1726 249.641 19.658 252.743 19.658C255.845 19.658 258.36 22.1726 258.36 25.2745C258.36 28.3764 255.845 30.8911 252.743 30.8911Z" fill="white"/>
<defs>
<linearGradient id="paint0_linear" x1="98.6392" y1="88.9422" x2="151.531" y2="68.9942" gradientUnits="userSpaceOnUse">
<stop stop-color="#17212E"/>
<stop offset="0.751" stop-color="#4C5A81"/>
<stop offset="0.8177" stop-color="#4E5D87"/>
<stop offset="1" stop-color="#536396"/>
</linearGradient>
</defs>
</svg>
