<svg width="401" height="482" viewBox="0 0 401 482" fill="none" xmlns="http://www.w3.org/2000/svg">
<path d="M303.587 481.428C354.895 481.428 396.489 477.601 396.489 472.881C396.489 468.161 354.895 464.334 303.587 464.334C252.279 464.334 210.686 468.161 210.686 472.881C210.686 477.601 252.279 481.428 303.587 481.428Z" fill="#8DA6C1"/>
<path d="M244.13 111.303C239.299 112.79 238.184 113.904 236.698 118.735C235.211 113.904 234.097 112.79 229.266 111.303C234.097 109.817 235.211 108.702 236.698 103.871C237.813 108.702 239.299 109.817 244.13 111.303Z" fill="#FFE86B"/>
<path d="M263.083 135.459C259.367 136.574 258.623 137.317 257.509 141.033C256.394 137.317 255.651 136.574 251.935 135.459C255.651 134.344 256.394 133.601 257.509 129.885C258.623 133.229 259.367 134.344 263.083 135.459Z" fill="#FFE86B"/>
<path d="M329.6 124.682C324.769 126.169 323.654 127.283 322.167 132.114C320.681 127.283 319.566 126.169 314.735 124.682C319.566 123.196 320.681 122.081 322.167 117.25C323.654 122.081 324.769 123.196 329.6 124.682Z" fill="#FFE86B"/>
<path d="M326.998 463.594V466.195C326.998 466.939 327.37 467.682 328.113 467.682C333.315 469.168 352.267 473.999 361.186 472.513C361.929 472.513 362.672 471.77 362.672 470.655C362.672 469.911 362.301 469.54 361.557 469.168C357.098 467.31 339.261 459.135 333.687 455.79C333.315 455.419 332.572 455.419 331.829 455.79C331.457 456.162 330.714 455.79 330.343 456.162C328.113 458.02 326.998 460.993 326.998 463.594Z" fill="#3D2A2B"/>
<path d="M327 452.065L328.115 458.754C328.115 458.754 332.574 463.213 338.148 458.382L338.52 450.207L327 452.065Z" fill="#F8AF9C"/>
<path d="M279.801 463.594V466.195C279.801 466.939 279.43 467.682 278.687 467.682C273.484 469.168 254.532 473.999 245.613 472.513C244.87 472.513 244.127 471.77 244.127 470.655C244.127 469.911 244.499 469.54 245.242 469.168C249.701 467.31 267.538 459.135 273.112 455.79C273.484 455.419 274.227 455.419 274.971 455.79C275.342 456.162 276.085 455.79 276.457 456.162C278.686 458.02 279.801 460.993 279.801 463.594Z" fill="#3D2A2B"/>
<path d="M279.8 452.071L278.685 458.76C278.685 458.76 274.226 463.219 268.652 458.388L268.28 450.213L279.8 452.071Z" fill="#F8AF9C"/>
<path d="M282.78 456.524C290.212 406.729 305.076 284.842 304.333 283.727L305.077 239.134C305.077 239.134 274.233 236.904 270.888 236.904C267.172 244.708 264.2 253.627 262.342 261.059C260.484 267.376 259.74 274.065 259.74 280.754C259.74 307.51 260.855 411.188 262.342 454.666C269.031 456.152 274.605 458.01 282.78 456.524Z" fill="#4877AC"/>
<path d="M323.282 456.527C313.992 407.846 293.925 287.817 294.668 286.702L292.438 242.853C292.438 242.853 323.282 239.137 326.626 239.137C330.714 246.569 334.058 255.487 336.288 262.548C338.146 268.865 339.633 275.554 339.633 281.872C340.747 308.256 344.092 410.819 344.092 453.554C337.403 455.412 331.829 457.642 323.282 456.527Z" fill="#4877AC"/>
<path d="M293.826 117.081L274.599 119.016L278.244 155.251L297.471 153.317L293.826 117.081Z" fill="#EEC1B8"/>
<path d="M276.833 138.054C279.806 138.797 288.724 139.912 293.555 131.365C293.184 130.993 282.778 131.737 276.461 132.108L276.833 138.054Z" fill="#CC9E97"/>
<path d="M272.748 111.294C272.377 111.294 267.918 106.835 265.688 110.922C264.573 113.524 265.316 124.3 275.721 120.956C275.721 120.956 276.464 113.152 272.748 111.294Z" fill="#EEC1B8"/>
<path d="M269.778 113.898C269.778 113.898 257.515 89 285.014 89C293.561 89 299.507 98.2902 298.392 106.837C298.02 109.81 296.906 110.182 295.419 115.384C295.791 115.012 269.778 113.898 269.778 113.898Z" fill="#3D2A2B"/>
<path d="M285.38 135.457H282.779C276.09 135.829 271.631 130.626 271.259 124.309L269.029 105.357C268.658 99.0395 273.861 93.837 280.55 93.4654H283.151C289.84 93.0938 295.414 97.9247 295.785 103.87V123.194C295.785 129.511 292.069 135.085 285.38 135.457Z" fill="#EEC1B8"/>
<path d="M267.915 105.344C267.915 105.344 273.117 106.459 273.861 100.885C274.232 100.885 276.834 103.114 278.692 99.7699C279.063 99.3983 283.523 105.344 288.353 99.7699C288.353 99.7699 291.698 104.229 293.928 103.486C293.928 103.486 296.9 107.202 295.786 115.377C296.157 113.891 297.644 102.743 297.644 102.743L295.786 97.5403L291.326 93.8242L285.009 91.9662C285.009 91.9662 280.178 90.8514 279.063 91.9662C277.948 93.081 272.374 94.939 272.374 94.939L269.03 99.7699L267.915 105.344Z" fill="#3D2A2B"/>
<path d="M292.446 110.549C292.817 110.549 296.533 105.347 299.506 109.806C300.993 112.036 301.364 123.184 290.588 120.954C290.216 120.211 289.101 112.407 292.446 110.549Z" fill="#EEC1B8"/>
<path d="M367.497 178.189L392.023 194.54C396.11 197.513 398.712 198.628 399.827 202.344C400.941 205.688 400.941 210.891 396.482 214.235C392.023 217.951 385.334 217.58 380.875 214.979C373.071 210.519 364.896 203.83 364.896 203.83L367.497 178.189Z" fill="#EEC1B8"/>
<path d="M346.688 160.354L383.849 187.852L371.586 212.75L337.026 197.143C337.398 197.514 337.398 170.015 346.688 160.354Z" fill="#ED62A3"/>
<path d="M296.898 146.607C287.236 155.898 277.575 149.209 277.575 149.209L242.644 170.762C242.644 170.762 264.569 224.273 261.967 259.576C262.711 259.576 300.986 278.899 334.802 257.718C336.289 250.286 335.917 187.113 346.693 159.985C347.437 159.614 296.898 146.607 296.898 146.607Z" fill="#ED62A3"/>
<path d="M235.209 203.836L225.548 231.706C224.061 235.051 223.69 239.139 224.805 242.483C225.919 245.828 228.52 249.915 233.723 249.915C239.297 250.287 244.499 245.828 246.729 240.997C250.073 232.821 252.675 222.416 252.675 222.416L235.209 203.836Z" fill="#EEC1B8"/>
<path d="M243.013 171.133L224.805 220.185L252.675 234.306L263.08 204.949C263.452 204.577 256.391 172.991 243.013 171.133Z" fill="#ED62A3"/>
<path d="M217.349 137.98L202.89 138.969L204.943 169L219.402 168.011L217.349 137.98Z" fill="#78CCCF"/>
<path d="M198.31 142.501L187.368 152.004L207.105 174.73L218.047 165.227L198.31 142.501Z" fill="#78CCCF"/>
<path d="M236.755 146.335L224.518 138.57L208.39 163.987L220.627 171.752L236.755 146.335Z" fill="#78CCCF"/>
<path d="M194.403 147.84L185 158.869L207.906 178.398L217.309 167.369L194.403 147.84Z" fill="#78CCCF"/>
<path d="M215.799 167.343L194.307 149.02L186.109 158.634L207.601 176.958L215.799 167.343Z" fill="white"/>
<path d="M199.344 166.316C201.375 168.047 203.992 168.311 205.19 166.905C206.389 165.5 205.714 162.957 203.684 161.226C201.654 159.495 199.036 159.231 197.838 160.637C196.64 162.043 197.314 164.585 199.344 166.316Z" fill="#78CCCF"/>
<path d="M193.59 158.505C194.617 158.505 195.448 157.673 195.448 156.647C195.448 155.621 194.617 154.789 193.59 154.789C192.564 154.789 191.732 155.621 191.732 156.647C191.732 157.673 192.564 158.505 193.59 158.505Z" fill="#78CCCF"/>
<path d="M208.826 171.519C209.852 171.519 210.684 170.687 210.684 169.661C210.684 168.635 209.852 167.803 208.826 167.803C207.8 167.803 206.968 168.635 206.968 169.661C206.968 170.687 207.8 171.519 208.826 171.519Z" fill="#78CCCF"/>
<path d="M208.807 141.974L195.645 148.041L208.244 175.378L221.407 169.311L208.807 141.974Z" fill="#78CCCF"/>
<path d="M220.69 168.677L208.868 143.027L197.393 148.316L209.216 173.966L220.69 168.677Z" fill="white"/>
<path d="M206.261 160.679C207.378 163.102 209.643 164.44 211.32 163.667C212.998 162.894 213.452 160.302 212.336 157.879C211.219 155.456 208.954 154.119 207.276 154.892C205.598 155.665 205.144 158.256 206.261 160.679Z" fill="#78CCCF"/>
<path d="M204.743 151.456C205.769 151.456 206.601 150.624 206.601 149.598C206.601 148.572 205.769 147.74 204.743 147.74C203.717 147.74 202.885 148.572 202.885 149.598C202.885 150.624 203.717 151.456 204.743 151.456Z" fill="#78CCCF"/>
<path d="M212.916 169.671C213.942 169.671 214.774 168.839 214.774 167.813C214.774 166.787 213.942 165.955 212.916 165.955C211.889 165.955 211.058 166.787 211.058 167.813C211.058 168.839 211.889 169.671 212.916 169.671Z" fill="#78CCCF"/>
<path d="M226.523 142.229L212.054 141.42L210.374 171.472L224.843 172.281L226.523 142.229Z" fill="#78CCCF"/>
<path d="M223.653 171.301L225.229 143.104L212.615 142.398L211.039 170.596L223.653 171.301Z" fill="white"/>
<path d="M214.786 157.493C214.637 160.157 216.011 162.4 217.855 162.503C219.699 162.606 221.315 160.53 221.464 157.866C221.613 155.203 220.238 152.959 218.394 152.856C216.55 152.753 214.934 154.829 214.786 157.493Z" fill="#78CCCF"/>
<path d="M218.488 148.47C219.514 148.47 220.346 147.638 220.346 146.612C220.346 145.586 219.514 144.754 218.488 144.754C217.462 144.754 216.63 145.586 216.63 146.612C216.63 147.638 217.462 148.47 218.488 148.47Z" fill="#78CCCF"/>
<path d="M217.371 168.54C218.397 168.54 219.229 167.708 219.229 166.682C219.229 165.656 218.397 164.824 217.371 164.824C216.345 164.824 215.513 165.656 215.513 166.682C215.513 167.708 216.345 168.54 217.371 168.54Z" fill="#78CCCF"/>
<path d="M239.912 151.279L227.295 144.15L212.489 170.356L225.106 177.485L239.912 151.279Z" fill="#78CCCF"/>
<path d="M224.209 176.043L238.102 151.455L227.102 145.24L213.21 169.828L224.209 176.043Z" fill="white"/>
<path d="M222.64 159.849C221.328 162.172 221.567 164.792 223.175 165.7C224.783 166.609 227.151 165.462 228.463 163.14C229.776 160.817 229.536 158.197 227.928 157.288C226.32 156.38 223.952 157.526 222.64 159.849Z" fill="#78CCCF"/>
<path d="M230.761 153.683C231.788 153.683 232.619 152.851 232.619 151.825C232.619 150.799 231.788 149.967 230.761 149.967C229.735 149.967 228.903 150.799 228.903 151.825C228.903 152.851 229.735 153.683 230.761 153.683Z" fill="#78CCCF"/>
<path d="M221.093 171.15C222.12 171.15 222.951 170.318 222.951 169.292C222.951 168.265 222.12 167.434 221.093 167.434C220.067 167.434 219.235 168.265 219.235 169.292C219.235 170.318 220.067 171.15 221.093 171.15Z" fill="#78CCCF"/>
<path d="M208.084 177.827L221.462 174.111C221.462 174.111 228.151 184.516 226.664 187.489C227.036 187.489 219.975 191.205 215.144 189.719C215.144 189.719 210.314 181.915 208.084 177.827Z" fill="#EEC1B8"/>
<path d="M208.083 177.835L207.34 161.113C207.34 160.741 207.712 159.998 208.083 159.998C208.455 159.998 209.198 160.37 209.198 160.741L212.171 177.092L208.083 177.835Z" fill="#EEC1B8"/>
<path d="M212.545 158.878C212.545 158.135 212.917 157.764 213.66 157.764C214.403 157.764 215.146 158.135 215.146 158.878L215.889 176.716H211.802" fill="#EEC1B8"/>
<path d="M215.517 177.09L214.773 158.882C214.773 158.138 215.145 157.767 215.517 157.767C216.26 157.395 217.003 158.138 217.003 158.882L219.605 176.719L215.517 177.09Z" fill="#EEC1B8"/>
<path d="M218.486 175.227C218.486 175.227 220.345 165.937 221.088 162.964C221.088 162.592 221.831 162.221 222.202 162.221C222.574 162.221 222.946 162.592 222.946 162.964C222.946 165.194 222.574 171.511 221.459 174.484C221.459 174.855 218.486 175.227 218.486 175.227Z" fill="#EEC1B8"/>
<path d="M226.29 245.094C219.972 233.574 215.142 189.353 215.142 189.353L226.662 187.123C226.662 187.123 242.641 217.966 245.985 235.06C247.1 243.236 233.35 257.728 226.29 245.094Z" fill="#EEC1B8"/>
<path d="M328.116 186L325.887 199.749C325.887 199.749 337.035 205.324 339.636 203.837C339.636 204.209 342.609 196.777 340.751 192.317C340.379 191.946 332.576 187.858 328.116 186Z" fill="#EEC1B8"/>
<path d="M328.116 186L311.394 186.743C311.022 186.743 310.279 187.115 310.279 187.858C310.279 188.23 310.651 188.973 311.023 188.973L327.745 190.459L328.116 186Z" fill="#EEC1B8"/>
<path d="M319.941 192.695L327.373 193.809L328.116 189.722L320.312 188.979C319.569 188.979 319.198 189.35 319.198 190.093C319.198 190.465 319.198 190.837 319.198 191.208C318.826 191.951 319.198 192.695 319.941 192.695Z" fill="#EEC1B8"/>
<path d="M321.055 196.034L327.372 196.777C328.115 196.777 328.487 196.406 328.487 195.662V193.804C328.487 193.061 328.115 192.689 327.372 192.689H320.683C319.94 192.689 319.568 193.061 319.568 193.804C319.568 194.176 319.568 194.547 319.568 194.919C319.94 195.291 320.683 196.034 321.055 196.034Z" fill="#EEC1B8"/>
<path d="M322.172 199.013L326.26 200.128L328.49 196.412H322.172C321.429 196.412 321.058 196.784 321.058 197.527V197.899C321.058 198.27 321.801 199.013 322.172 199.013Z" fill="#EEC1B8"/>
<path d="M394.264 196.77C382.001 191.568 340.752 191.939 340.752 191.939L339.638 203.459C339.638 203.459 371.967 215.722 389.433 217.209C399.095 217.952 407.27 202.344 394.264 196.77Z" fill="#EEC1B8"/>
<path d="M77.8886 480.664C34.8718 480.664 -0.000167847 477.455 -0.000167847 473.498C-0.000167847 469.54 34.8718 466.332 77.8886 466.332C120.905 466.332 155.777 469.54 155.777 473.498C155.777 477.455 120.905 480.664 77.8886 480.664Z" fill="#8DA6C1"/>
<path d="M99.7002 146.688C104.997 147.311 106.554 156.035 116.524 180.024C120.574 189.682 120.886 189.682 121.821 193.11C123.378 199.029 123.378 202.456 125.871 203.702C127.74 204.326 128.986 202.768 134.594 200.898C137.087 199.964 138.956 199.652 142.695 198.718C154.222 196.225 157.338 198.094 160.142 194.979C162.323 192.486 161.076 190.929 163.88 188.125C167.619 184.386 172.916 184.698 174.162 184.698C177.277 184.698 179.147 185.944 182.885 187.813C185.689 189.371 186.001 189.994 186.001 190.306C186.001 191.863 181.951 193.11 177.9 194.667C173.227 196.537 172.916 197.471 164.504 202.768C153.911 209.31 154.845 207.441 141.76 214.918C140.825 215.542 133.971 219.592 125.559 222.396C124.001 223.019 121.197 223.953 117.77 223.33C116.836 223.33 114.032 222.707 110.605 220.526C105.62 217.411 103.127 212.738 101.258 208.687C95.3384 196.537 92.5344 185.944 91.9113 183.763C90.042 176.597 88.4842 169.431 88.7958 160.708C88.7958 156.035 89.4189 151.984 92.5345 149.18C93.1576 149.18 96.2731 146.065 99.7002 146.688Z" fill="#F1D1CD"/>
<path d="M62.3153 150.737C59.5113 151.048 57.642 152.918 45.8029 175.661C42.3758 182.204 34.8985 196.535 32.4061 211.802C32.0945 213.983 30.8483 217.41 32.4061 220.837C34.2754 224.575 46.1145 238.907 47.9839 241.088C66.6772 259.47 77.5815 274.424 80.074 272.243C81.9433 270.686 70.4158 252.615 58.8883 234.545C58.8883 234.545 56.0842 230.183 52.9687 224.264C50.7878 219.902 49.5415 217.721 49.23 216.163C48.2953 209.932 55.1495 205.259 61.6922 198.093C68.8579 190.616 80.3855 178.465 78.8277 166.938C77.5815 158.214 69.1695 150.114 62.3153 150.737Z" fill="#F1D1CD"/>
<path d="M55.7716 367.886C59.1987 360.409 60.7563 361.343 62.6256 354.178C63.8719 349.504 63.8719 345.143 62.6256 335.484C60.1332 316.791 58.2639 309.937 57.0177 306.198C56.083 302.771 54.2137 299.032 51.7212 292.178C50.475 289.374 48.9173 284.701 48.9173 280.028C48.9173 271.616 52.0329 264.761 55.7716 256.973C58.8871 250.43 63.5603 245.445 65.7412 238.902C66.6759 238.902 67.9222 238.902 69.1684 238.902C73.2186 238.902 79.4496 240.46 82.8767 242.329C85.3692 243.576 92.5349 247.937 93.7811 280.651C95.0274 313.052 88.7963 338.912 86.6154 347.635C81.9421 365.705 83.1883 364.147 69.4799 395.926C60.4448 416.489 52.9675 437.986 52.9675 437.986L45.1786 435.494C45.1786 435.494 47.0479 420.227 50.7866 398.73C54.2137 381.283 52.0329 376.298 55.7716 367.886Z" fill="#F4B393"/>
<path d="M66.0522 266.318C66.0522 268.499 66.3638 270.992 66.6753 273.484C66.9869 276.288 67.6099 279.092 68.5446 282.208C71.037 291.243 72.9063 294.67 75.0871 299.343C76.0218 301.524 77.2681 303.705 78.5144 307.132C79.7606 310.559 85.057 323.956 89.4188 342.338C91.5997 351.996 91.9112 356.046 91.288 361.031C90.0418 368.508 88.7956 367.574 85.9916 375.363C83.1876 384.086 80.3837 390.94 84.1223 406.207C88.1725 421.784 92.5343 435.804 94.4036 442.658C95.0267 445.151 95.6499 446.397 95.6499 446.397L103.439 447.955C103.439 447.955 102.504 444.528 101.569 438.92C100.323 430.819 99.7001 417.423 102.504 401.845C103.127 398.106 103.75 394.991 104.373 392.187C104.373 391.563 104.685 390.94 104.685 390.006C108.424 360.408 114.032 354.177 115.589 327.072C117.147 303.082 114.032 284.077 112.162 273.796C110.916 267.253 109.358 261.333 107.8 255.725C104.685 249.494 101.881 248.248 100.323 247.625C96.5846 246.379 90.0419 245.444 86.3032 245.756C75.3988 246.69 71.6601 245.756 70.1023 247.937C68.233 249.806 66.0522 256.66 66.0522 266.318Z" fill="#F4B393"/>
<path d="M92.8438 123.014C92.8438 123.325 87.5474 139.526 88.7936 145.757C90.0398 151.988 75.0852 148.25 74.4621 148.25C73.839 148.25 69.7888 131.426 70.7234 130.491C71.6581 129.245 68.2309 128.622 74.1504 127.064C80.3815 125.506 92.8438 123.014 92.8438 123.014Z" fill="#F1D1CD"/>
<path d="M49.8553 217.1C48.9206 218.658 31.162 212.427 31.7851 210.246C33.966 201.834 34.9006 197.161 39.2623 187.191C40.8201 183.452 51.4131 158.528 55.1518 155.101C63.5637 150.427 73.222 153.855 72.9104 160.397C72.9104 166.94 85.3726 177.533 63.8753 196.538C60.7597 199.342 52.0362 210.246 50.4784 215.231C49.8553 216.166 49.8553 216.789 49.8553 217.1Z" fill="#0DB9B3"/>
<path d="M97.5184 104.31C97.83 107.114 98.4531 108.672 99.0762 113.657C99.0762 114.903 99.0763 122.38 94.7145 128.3C90.3527 134.219 84.7446 134.219 81.3175 134.219C77.5788 134.531 78.8252 128.3 78.5136 126.119C78.2021 124.561 77.2673 118.33 80.3829 111.164C81.6291 108.049 84.1215 102.752 88.1717 100.883C91.2873 99.6367 91.9105 96.2096 92.5336 96.2096C94.7145 95.8981 97.5184 104.31 97.5184 104.31Z" fill="#F1D1CD"/>
<path d="M93.7787 145.753C102.502 138.587 109.356 157.592 109.98 159.15C112.784 166.627 114.03 170.989 119.326 183.451C120.884 187.19 124.311 198.718 127.427 202.456C124 205.26 119.638 208.064 116.211 211.491C112.784 214.918 109.98 219.592 108.11 221.149C100.633 209.934 100.01 209.934 96.2713 200.587C94.0904 194.979 92.8441 189.059 90.9748 183.451C90.6632 182.517 88.4823 174.728 88.1707 167.874C87.5476 161.642 89.7285 148.869 93.7787 145.753Z" fill="#0DB9B3"/>
<path d="M96.8968 332.372C99.7008 342.03 99.3894 355.739 99.3894 358.854C99.3894 362.282 99.0777 361.97 99.0777 366.643C98.7662 375.99 99.3892 381.91 100.012 392.502C100.324 395.618 101.259 404.653 101.259 414.934C101.259 422.412 100.947 421.789 102.193 438.924C102.505 441.417 102.505 447.648 104.686 452.944C106.243 456.994 108.736 459.798 109.359 460.421C115.902 467.587 125.248 467.587 124.937 469.145C124.625 470.391 117.46 472.26 111.228 469.456C106.867 467.276 106.244 464.472 100.947 462.602C97.8316 461.668 96.5852 461.979 95.339 460.733C93.7812 458.552 95.9623 455.748 96.2738 451.386C96.5854 446.401 94.0929 442.663 92.5351 439.859C88.4849 432.381 86.6155 423.346 82.8768 405.588C80.6959 394.683 79.1382 387.206 79.7613 376.925C80.3844 365.086 82.5654 366.332 82.2539 358.543C81.6308 344.211 73.5303 340.161 69.1685 320.533C67.6107 313.056 66.3644 306.825 68.8568 305.267C73.2186 302.151 91.6004 315.548 96.8968 332.372Z" fill="#F1D1CD"/>
<path d="M95.027 455.748C96.5848 456.371 98.4542 457.306 100.947 458.864C103.439 460.733 104.374 461.979 106.555 463.537C108.424 464.783 109.982 465.095 113.409 466.029C121.198 467.899 124.625 467.587 128.363 470.391C128.987 471.014 130.544 472.26 130.233 473.195C129.921 474.441 126.183 473.818 120.575 473.818C117.459 473.818 113.72 473.507 109.047 473.507C107.178 472.572 106.243 471.326 105.308 470.703C103.439 468.833 103.127 466.652 101.57 466.652C101.258 466.652 100.635 466.652 100.012 467.276C97.8309 469.145 96.8963 471.949 96.5848 473.507H95.3385C95.0269 470.703 95.0271 469.768 94.7155 468.21C94.404 466.652 93.7808 464.16 93.4692 462.602C93.1577 461.356 93.1576 459.487 93.7807 457.929C94.0923 457.306 94.4039 456.994 94.4039 456.683L95.027 455.748Z" fill="#22B4C0"/>
<path d="M98.4559 346.393C100.014 353.559 91.6018 358.856 83.1899 369.137C78.5165 374.745 73.8432 383.157 66.989 401.227C57.9539 424.594 57.3308 427.086 52.969 438.302C52.6574 438.925 51.0997 442.041 50.4766 446.403C50.165 448.895 49.5418 451.076 50.1649 453.568C50.788 455.749 51.7228 456.995 55.1499 460.734C61.0695 467.588 62.9387 468.834 62.6271 469.458C62.004 470.704 56.3961 470.081 49.2303 464.784C47.361 463.226 44.557 458.553 39.8836 454.814C36.145 451.699 37.3913 449.518 38.6375 448.272C40.1953 446.714 41.1299 445.468 41.4414 444.533C43.3107 440.171 43.6224 437.679 44.2455 431.759C45.8033 419.92 47.6726 407.458 48.2957 402.473C49.8534 392.815 50.7882 387.83 52.6575 382.845C55.7731 375.056 60.7579 368.202 62.9388 365.398C66.0543 361.036 67.6121 359.479 70.7277 354.182C73.2201 350.132 74.7778 347.64 76.3356 343.901C80.0743 334.866 78.5164 329.258 81.3204 328.323C83.5013 327.7 86.3054 330.816 90.9787 335.8C95.6521 341.097 97.8328 343.901 98.4559 346.393Z" fill="#F1D1CD"/>
<path d="M38.6364 447.334C39.8827 448.269 41.4404 449.826 43.3098 452.007C45.1791 454.5 45.4906 456.058 47.3599 458.238C48.6062 459.796 50.1638 460.731 53.2794 462.6C60.1336 466.962 63.5608 467.274 66.0532 471.324C66.6763 471.947 67.611 473.816 66.9879 474.439C66.3648 475.374 62.9376 473.816 57.6412 471.947C54.8372 471.012 51.0986 469.454 46.4253 468.208C44.8675 466.65 44.2443 465.404 43.9327 464.47C42.9981 461.977 42.9982 460.108 41.752 459.485C41.4404 459.485 40.8173 459.485 40.1942 459.796C37.7018 460.731 35.8324 463.223 34.8977 464.781L33.6514 464.47C34.2746 461.666 34.5861 460.731 34.5861 459.173C34.8976 457.615 34.8977 455.123 34.8977 453.565C34.8977 452.319 35.5208 450.45 36.4555 449.203C36.7671 448.892 37.0786 448.58 37.3901 448.269L38.6364 447.334Z" fill="#22B4C0"/>
<path d="M61.3816 241.392C58.266 247.623 55.7736 253.231 54.2158 257.282C51.1003 265.382 49.2309 269.432 48.9194 274.106C48.2963 280.025 49.2309 284.387 50.7886 290.618C52.658 298.718 54.2158 301.522 56.7082 309C61.07 321.773 64.8086 332.989 62.3162 345.14C62.0046 346.075 60.7584 350.748 57.6429 359.783C53.5927 372.245 52.658 373.492 51.4118 378.476C49.5424 385.642 48.9193 390.004 47.6731 401.532C46.7384 409.32 45.1807 420.536 43.3114 434.556L56.3966 438.295C60.1352 428.948 65.7433 414.928 72.286 397.793C98.1451 330.809 99.7027 319.904 100.014 312.115C102.195 283.452 96.2757 253.854 95.0295 247.935C93.7833 242.327 92.8486 237.965 91.9139 234.85L61.3816 241.392Z" fill="#EA4497"/>
<path d="M66.0503 268.194C66.0503 270.063 66.3619 271.933 66.6734 273.49C67.9196 280.968 71.3467 285.329 74.7738 299.349C75.0853 300.596 75.3968 302.153 75.7084 303.711C80.0702 323.651 82.8742 342.344 82.5626 345.46C81.9395 361.037 81.0049 357.61 77.5778 373.188C74.1507 390.012 78.8241 401.851 83.8089 420.856C86.3014 430.826 89.1053 438.615 90.9747 444.223L93.7785 442.665L100.633 439.238L101.879 438.615C101.256 428.333 100.944 412.132 103.437 392.504C103.437 391.881 103.748 391.258 103.748 390.324C107.487 360.726 113.095 354.495 114.653 327.389C116.211 303.4 113.095 284.395 111.226 274.113C109.98 267.571 108.422 261.651 106.864 256.043C104.371 247.32 101.567 240.154 99.075 234.546L76.9547 233.611C73.5276 238.908 70.7236 243.893 69.1658 248.254C66.3618 255.109 65.4271 261.34 65.4271 266.636C66.0502 266.948 66.0503 267.571 66.0503 268.194Z" fill="#ED62A3"/>
<path d="M102.818 218.966C106.556 234.856 110.918 251.368 110.918 257.911C109.672 261.338 69.1696 257.911 54.8381 251.991C51.7225 250.122 62.627 227.69 63.8732 220.524C65.1195 212.424 62.627 201.519 60.1345 191.549C57.019 178.464 54.8382 170.987 56.7075 154.163C59.1999 132.977 73.22 142.947 74.4662 141.701C76.9586 139.52 82.2551 140.143 93.1595 141.077C99.7021 141.701 103.752 147.309 104.375 148.866C104.998 151.047 100.014 147.309 98.7674 151.67C96.275 159.771 102.506 170.987 103.752 173.791C106.556 179.087 107.802 179.399 108.426 182.826C109.36 187.811 106.556 190.926 104.687 196.534C101.883 204.635 101.571 212.735 102.818 218.966Z" fill="#0DB9B3"/>
<path d="M38.0138 170.051C37.7022 162.886 43.6217 163.82 42.064 156.654C41.4408 153.851 42.9987 150.112 48.9182 146.685C53.9031 142.635 63.2497 142.323 60.7573 139.207C55.1493 132.042 50.4759 118.956 53.2799 111.167C55.7723 103.69 60.4458 89.9817 77.5813 89.047C82.8777 88.7355 88.4857 89.9817 91.9128 92.4742C94.7168 94.6551 96.586 98.3937 95.9629 101.821C95.3398 104.936 92.5359 104.936 91.9128 108.052C90.9781 111.791 81.9429 113.037 82.8776 118.645C82.8776 119.268 89.1088 128.303 85.6817 132.665C83.1892 136.092 76.9581 137.961 77.2696 141.388C79.4505 168.494 71.0387 167.247 68.2347 175.036C63.8729 187.187 73.8426 202.142 62.0036 203.076C61.3804 203.076 51.0991 201.518 46.4258 196.534C38.9485 187.81 38.6369 177.217 38.0138 170.051Z" fill="#313F7A"/>
<path d="M61.0691 135.467C63.8731 134.532 67.3003 135.155 71.3506 135.778C74.4661 136.402 77.2701 137.025 79.1394 137.959C80.3857 138.894 80.3856 141.075 79.4509 141.075C74.7776 140.14 70.1042 139.517 64.8078 139.206C63.5616 139.206 62.3153 138.894 61.0691 138.894C59.8229 138.271 60.1344 136.402 61.0691 135.467Z" fill="#ED62A3"/>
<path d="M87.8633 116.152C86.617 109.61 77.8935 113.348 82.2553 120.514C86.9286 127.991 89.1095 122.072 87.8633 116.152Z" fill="#F1D1CD"/>
<path d="M210.964 44.144C157.309 20.2975 103.655 67.9905 50 44.144C54.0454 39.6728 58.3037 34.9887 62.349 29.8787C58.3037 22.6396 54.0454 14.9746 50 6.88388C103.655 30.7304 157.309 -16.9626 210.964 6.88388C210.964 19.4459 210.964 31.7949 210.964 44.144Z" fill="#EA4497"/>
<path d="M238.005 24.9767H226.082L210.752 6.87891C210.752 7.30474 210.752 7.73056 210.752 8.15639L224.804 25.4025L210.752 42.6486C210.752 43.0744 210.752 43.5003 210.752 43.9261L226.082 25.8283H238.218C238.218 25.8283 238.005 25.4025 238.005 24.9767Z" fill="#5FC5C9"/>
<path d="M349.787 14.5533C349.787 18.3858 349.149 22.857 348.297 22.857C347.445 22.857 346.807 18.1729 346.807 14.5533C346.807 10.7209 347.445 9.23047 348.297 9.23047C349.149 9.23047 349.787 10.7209 349.787 14.5533Z" fill="#0A8991"/>
<path d="M347.02 36.0556C347.02 32.2232 347.658 27.752 348.51 27.752C349.362 27.752 350 32.4361 350 36.0556C350 39.8881 349.362 41.3785 348.51 41.3785C347.658 41.3785 347.02 39.8881 347.02 36.0556Z" fill="#0A8991"/>
<path d="M348.084 23.2812C347.871 23.2812 347.871 23.2812 347.658 23.2812C347.871 23.7071 347.871 24.1329 347.871 24.5587V25.6233C347.871 26.0491 347.871 26.475 347.658 26.9008C347.871 26.9008 347.871 26.9008 348.084 26.9008C349.149 26.9008 350 26.0491 350 24.9846C350 23.92 349.149 23.2812 348.084 23.2812Z" fill="#0B4957"/>
<path d="M344.251 20.9375C344.677 21.5762 344.89 22.215 344.89 23.2796C344.89 24.77 344.89 26.0475 344.89 27.9637C344.89 28.6024 344.677 29.0283 344.464 29.667C346.38 29.4541 347.871 27.9637 347.871 26.0475V24.9829C347.871 22.6408 346.38 20.9375 344.251 20.9375Z" fill="#0B4957"/>
<path d="M258.872 19.2382L255.04 5.18583C254.614 3.69542 253.336 2.84375 251.846 2.84375H242.904C241.2 2.84375 239.71 4.12124 239.71 5.82456L238.22 24.9869C238.007 23.7094 246.949 21.5803 258.872 19.2382Z" fill="#0DB9B3"/>
<path d="M327.43 17.9578C325.727 15.1899 322.746 11.9962 319.765 11.1445C314.868 9.65409 238.006 20.9386 238.006 24.7711C238.006 32.8618 282.931 39.2493 307.203 39.2493C330.624 39.2493 344.889 34.3522 344.889 27.7519C344.889 26.0485 344.889 24.771 344.889 23.0677C344.889 19.2353 340.631 18.1707 327.43 17.9578Z" fill="#0DB9B3"/>
<path d="M323.17 13.2773C306.137 13.2773 305.285 16.8969 305.285 19.239C307.201 19.239 314.653 19.239 322.957 19.239C324.873 19.239 326.789 18.6002 327.428 17.9615C326.364 16.4711 324.873 14.5548 323.17 13.2773Z" fill="#A4DBDE"/>
<path d="M319.334 13.2793C318.695 13.2793 318.27 13.2793 317.844 13.2793L319.973 19.2409C320.399 19.2409 321.038 19.2409 321.463 19.2409L319.334 13.2793Z" fill="#5FC5C9"/>
<path d="M311.458 19.2447C311.884 19.2447 312.523 19.2447 312.948 19.2447V13.9219C312.523 13.9219 311.884 14.1348 311.458 14.1348V19.2447Z" fill="#5FC5C9"/>
<path d="M344.889 27.9634C344.889 26.473 344.889 25.1955 344.889 23.918H238.006C238.006 24.3438 238.006 24.7696 238.006 24.9825C238.006 26.0471 238.645 26.8988 240.135 27.9634H344.889Z" fill="#A4DBDE"/>
<path d="M298.473 5.6093L307.628 4.33181C308.48 4.1189 309.332 4.75763 309.545 5.82221L310.396 12.8484L277.182 17.1067L289.318 9.01593C292.086 7.31261 295.066 6.03513 298.473 5.6093Z" fill="#EA4497"/>
<path d="M319.34 38.8281V44.3639C319.553 44.3639 319.766 44.3639 319.979 44.3639C320.191 44.3639 320.404 44.3639 320.404 44.3639V38.8281C319.979 38.8281 319.553 38.8281 319.34 38.8281Z" fill="#0B4957"/>
<path d="M315.083 39.2515L317.638 45.0002C317.851 44.7873 318.064 44.7873 318.277 44.7873L315.935 39.2515C315.722 39.0386 315.509 39.0386 315.083 39.2515Z" fill="#0B4957"/>
<path d="M307.841 39.252L316.144 46.0653C316.357 45.8523 316.357 45.6394 316.57 45.4265L308.905 39.0391C308.692 39.252 308.267 39.252 307.841 39.252Z" fill="#0B4957"/>
<path d="M262.066 34.9902V39.0356C262.279 39.0356 262.492 39.0356 262.705 39.0356C262.918 39.0356 263.131 39.0356 263.344 39.0356V35.2031C262.918 34.9902 262.492 34.9902 262.066 34.9902Z" fill="#0B4957"/>
<path d="M258.66 34.1367L261.002 39.2467C261.215 39.0338 261.428 39.0338 261.641 39.0338L259.512 34.3496C259.299 34.3496 258.873 34.3496 258.66 34.1367Z" fill="#0B4957"/>
<path d="M248.864 22.2172C253.803 22.2172 257.807 21.3593 257.807 20.301C257.807 19.2427 253.803 18.3848 248.864 18.3848C243.926 18.3848 239.922 19.2427 239.922 20.301C239.922 21.3593 243.926 22.2172 248.864 22.2172Z" fill="#EA4497"/>
<path d="M309.545 36.054L303.583 16.04C302.519 13.0592 303.583 9.65259 305.925 7.52344L293.363 9.22675L295.918 10.2913C298.26 11.143 300.177 13.0592 300.815 15.6142L307.842 36.9057C308.055 37.3315 308.48 37.9703 308.906 37.7574C309.545 37.1186 309.758 36.6928 309.545 36.054Z" fill="#0A8991"/>
<path d="M320.402 55.642C317.208 55.642 314.44 53.087 314.44 49.6804C314.44 46.4866 316.995 43.7188 320.402 43.7188C323.596 43.7188 326.364 46.2737 326.364 49.6804C326.151 53.087 323.596 55.642 320.402 55.642ZM320.402 44.9962C317.847 44.9962 315.718 47.1254 315.718 49.6804C315.718 52.2353 317.847 54.3645 320.402 54.3645C322.957 54.3645 325.086 52.2353 325.086 49.6804C325.086 47.1254 322.957 44.9962 320.402 44.9962Z" fill="#0DB9B3"/>
<path d="M320.403 53.7255C322.519 53.7255 324.235 52.0096 324.235 49.893C324.235 47.7764 322.519 46.0605 320.403 46.0605C318.286 46.0605 316.57 47.7764 316.57 49.893C316.57 52.0096 318.286 53.7255 320.403 53.7255Z" fill="#EFF0F3"/>
<path d="M320.401 53.0867C322.165 53.0867 323.594 51.6568 323.594 49.8929C323.594 48.1291 322.165 46.6992 320.401 46.6992C318.637 46.6992 317.207 48.1291 317.207 49.8929C317.207 51.6568 318.637 53.0867 320.401 53.0867Z" fill="#EE60A2"/>
<path d="M320.402 52.4459C321.813 52.4459 322.957 51.302 322.957 49.8909C322.957 48.4799 321.813 47.3359 320.402 47.3359C318.991 47.3359 317.847 48.4799 317.847 49.8909C317.847 51.302 318.991 52.4459 320.402 52.4459Z" fill="#F393BD"/>
<path d="M320.403 51.5941C321.344 51.5941 322.107 50.8315 322.107 49.8908C322.107 48.9501 321.344 48.1875 320.403 48.1875C319.463 48.1875 318.7 48.9501 318.7 49.8908C318.7 50.8315 319.463 51.5941 320.403 51.5941Z" fill="#EE60A2"/>
<path d="M320.401 50.9612C320.989 50.9612 321.466 50.4846 321.466 49.8966C321.466 49.3087 320.989 48.832 320.401 48.832C319.814 48.832 319.337 49.3087 319.337 49.8966C319.337 50.4846 319.814 50.9612 320.401 50.9612Z" fill="white"/>
<path d="M263.341 46.0596C260.999 46.0596 259.083 44.1433 259.083 41.8013C259.083 39.4592 260.999 37.543 263.341 37.543C265.683 37.543 267.6 39.4592 267.6 41.8013C267.6 44.1433 265.683 46.0596 263.341 46.0596ZM263.341 38.3946C261.425 38.3946 259.935 39.885 259.935 41.8013C259.935 43.7175 261.425 45.2079 263.341 45.2079C265.258 45.2079 266.748 43.7175 266.748 41.8013C266.748 39.885 265.258 38.3946 263.341 38.3946Z" fill="#0DB9B3"/>
<path d="M263.34 44.569C264.869 44.569 266.108 43.3298 266.108 41.8011C266.108 40.2724 264.869 39.0332 263.34 39.0332C261.811 39.0332 260.572 40.2724 260.572 41.8011C260.572 43.3298 261.811 44.569 263.34 44.569Z" fill="#EFF0F3"/>
<path d="M263.341 44.1431C264.635 44.1431 265.683 43.0945 265.683 41.801C265.683 40.5076 264.635 39.459 263.341 39.459C262.048 39.459 260.999 40.5076 260.999 41.801C260.999 43.0945 262.048 44.1431 263.341 44.1431Z" fill="#EE60A2"/>
<path d="M263.343 43.5024C264.284 43.5024 265.046 42.7397 265.046 41.799C265.046 40.8583 264.284 40.0957 263.343 40.0957C262.402 40.0957 261.64 40.8583 261.64 41.799C261.64 42.7397 262.402 43.5024 263.343 43.5024Z" fill="#F393BD"/>
<path d="M263.344 43.0765C264.049 43.0765 264.621 42.5045 264.621 41.799C264.621 41.0934 264.049 40.5215 263.344 40.5215C262.638 40.5215 262.066 41.0934 262.066 41.799C262.066 42.5045 262.638 43.0765 263.344 43.0765Z" fill="#EE60A2"/>
<path d="M263.342 42.6525C263.812 42.6525 264.194 42.2712 264.194 41.8009C264.194 41.3305 263.812 40.9492 263.342 40.9492C262.872 40.9492 262.49 41.3305 262.49 41.8009C262.49 42.2712 262.872 42.6525 263.342 42.6525Z" fill="white"/>
<mask id="mask0" mask-type="alpha" maskUnits="userSpaceOnUse" x="50" y="0" width="161" height="52">
<path d="M210.964 44.144C157.309 20.2975 103.655 67.9905 50 44.144C54.0454 39.6728 58.3037 34.9887 62.349 29.8787C58.3037 22.6396 54.0454 14.9746 50 6.88388C103.655 30.7304 157.309 -16.9626 210.964 6.88388C210.964 19.4459 210.964 31.7949 210.964 44.144Z" fill="#EA4497"/>
</mask>
<g mask="url(#mask0)">
<path d="M174.343 16.6785C174.343 40.7378 155.181 63.9456 131.334 68.4168C107.7 72.888 88.3252 56.9194 88.3252 32.86C88.3252 8.80062 107.488 -14.4071 131.334 -18.8783C155.181 -23.3495 174.343 -7.38093 174.343 16.6785Z" fill="#E84C88"/>
<path d="M168.381 17.9613C168.381 38.4012 151.987 58.2022 131.76 61.8218C111.533 65.6543 95.1387 52.0277 95.1387 31.5879C95.1387 11.148 111.533 -8.65305 131.76 -12.2726C151.987 -16.1051 168.381 -2.69142 168.381 17.9613Z" fill="#EE5791"/>
<path d="M156.672 20.0904C156.672 34.3557 145.387 47.9823 131.335 50.5373C117.283 53.0922 105.998 43.724 105.998 29.4587C105.998 15.1934 117.283 1.56682 131.335 -0.988157C145.387 -3.75605 156.672 5.82512 156.672 20.0904Z" fill="#5EC5C5"/>
<path d="M101.525 35.8406V29.0273H101.312L98.9697 34.5631C98.5439 35.6277 98.118 36.0535 97.4793 36.0535C96.8405 36.2664 96.4148 35.8406 95.989 34.989L93.6468 30.3048H93.434V37.1181C93.434 38.1827 92.7952 38.8214 91.9436 39.0343C91.0919 39.2472 90.4531 38.6085 90.4531 37.5439V27.7498C90.4531 26.4723 91.0919 25.4078 92.3694 25.1949C93.434 24.9819 93.8598 25.4078 94.4986 26.4724L97.0536 32.0081H97.2664L99.8214 25.4078C100.46 24.1303 100.886 23.4915 101.951 23.2786C103.228 23.0657 103.867 23.7044 103.867 24.9819V34.776C103.867 35.8406 103.228 36.4793 102.376 36.6923C101.951 37.331 101.525 36.9052 101.525 35.8406Z" fill="white"/>
<path d="M105.995 35.4143C105.995 34.9885 105.995 34.7756 106.208 33.9239L109.189 24.5556C109.615 22.8523 110.466 22.0006 111.957 21.7877C113.447 21.5748 114.086 22.0007 114.725 23.4911L117.705 31.5818C117.918 32.0076 117.918 32.4335 117.918 32.8593C117.918 33.711 117.28 34.3497 116.428 34.5626C115.576 34.7755 115.151 34.3497 114.725 33.2851L114.299 31.7947L109.828 32.6464L109.402 34.3497C108.976 35.6272 108.55 36.053 107.699 36.266C106.634 36.4789 105.995 36.053 105.995 35.4143ZM113.447 29.6656L111.957 24.7685H111.744L110.253 30.0914L113.447 29.6656Z" fill="white"/>
<path d="M130.055 30.5164V23.7031H129.842L127.5 29.2389C127.074 30.3035 126.648 30.7293 126.01 30.7293C125.371 30.9422 124.945 30.5164 124.519 29.6647L122.177 24.9806H121.964V31.7939C121.964 32.8585 121.325 33.4972 120.474 33.7101C119.622 33.923 118.983 33.2843 118.983 32.2197V22.4256C118.983 21.1481 119.622 20.0835 120.9 19.8706C121.964 19.6577 122.39 20.0836 123.029 21.1481L125.584 26.6839H125.797L128.352 20.0836C128.99 18.8061 129.416 18.1673 130.481 17.9544C131.758 17.7415 132.397 18.3802 132.397 19.6577V29.4518C132.397 30.5164 131.758 31.1551 130.907 31.368C130.694 32.0068 130.055 31.581 130.055 30.5164Z" fill="white"/>
<path d="M134.738 29.8811C134.738 29.4553 134.738 29.2423 134.951 28.3907L137.932 19.0224C138.358 17.3191 139.21 16.4674 140.7 16.2545C142.19 16.0416 142.829 16.4675 143.468 17.9579L146.449 26.0486C146.662 26.4744 146.662 26.9003 146.662 27.3261C146.662 28.1778 146.023 28.8165 145.171 29.0294C144.32 29.2423 143.894 28.8165 143.468 27.7519L143.042 26.2615L138.571 27.1132L138.145 28.8165C137.719 30.094 137.293 30.5198 136.442 30.7328C135.164 31.1586 134.738 30.7327 134.738 29.8811ZM141.977 24.3453L140.487 19.4483H140.274L138.784 24.7711L141.977 24.3453Z" fill="white"/>
<path d="M148.153 17.1068C148.153 15.8293 148.792 15.1906 150.069 14.9777L153.476 14.3389C157.309 13.7002 159.438 15.6164 159.438 19.8747C159.438 24.3459 157.309 26.9009 153.476 27.7526L150.069 28.3913C148.792 28.6042 148.153 28.1784 148.153 26.9009V17.1068ZM152.837 25.1976C154.966 24.7718 156.031 23.2814 156.031 20.5135C156.031 17.7456 154.966 16.4681 152.837 16.8939L151.347 17.1068V25.4105L152.837 25.1976Z" fill="white"/>
<path d="M160.715 18.8094C160.715 14.9769 162.844 12.209 166.464 11.5703C170.083 10.9315 172.212 12.8477 172.212 16.6802V18.3835C172.212 22.216 170.083 24.9839 166.464 25.6226C162.844 26.2614 160.715 24.3452 160.715 20.5127V18.8094ZM163.909 19.8739C163.909 22.0031 164.973 23.2806 166.464 22.8547C168.167 22.6418 169.019 21.1514 169.019 18.8094V17.106C169.019 14.9769 167.954 13.6994 166.464 14.1252C164.76 14.3381 163.909 16.0415 163.909 18.1706V19.8739Z" fill="white"/>
</g>
</svg>
