<svg width="1240" height="603" viewBox="0 0 1240 603" fill="none" xmlns="http://www.w3.org/2000/svg">
<path d="M1037.25 132.668H1007.82V67.0129C1007.36 66.7508 1006.9 66.4887 1006.45 66.2267H997.675V66.1949H946.625V66.2267H946.586V76.0666H946.625V82.833H946.586V92.6729H946.625V99.4632H946.586V109.303H946.625V109.335L941.217 109.303V57.8242H883.933V64.3444H883.901V74.1844H883.933V82.833H883.901V92.6729H883.933V99.4632H883.901V109.303H883.933V115.585H883.901V125.425H883.933V131.707H883.901V141.547H883.933V147.464H883.901V153.714H883.933V154.397H819.366V210.72H795.246V224.904H769.237V200.483H722.452V134.105H715.137V127.49H714.089V134.105H708.021V134.097H677.676V127.498H676.627V134.097H668.717V167.477L629.413 167.294V187.895H596.089V60.5324H497.365V196.981H467.217V123.201H368.493V600.536L1043.09 597.963L1037.25 132.668Z" fill="#DEE9F6"/>
<path d="M368.588 210.116V254.852V321.405V597.272H284.484V321.405V254.852V210.116H368.588Z" fill="#DEE9F6"/>
<path d="M596.081 60.5327H522.762V82.1186H596.081V60.5327Z" fill="#EEF4FB"/>
<path d="M596.081 93.7607H522.762V115.347H596.081V93.7607Z" fill="#EEF4FB"/>
<path d="M596.081 127.688H522.762V149.274H596.081V127.688Z" fill="#EEF4FB"/>
<path d="M596.081 162.148H522.762V183.734H596.081V162.148Z" fill="#EEF4FB"/>
<path d="M596.081 195.401H522.762V216.987H596.081V195.401Z" fill="#EEF4FB"/>
<path d="M920.608 57.832H883.949V70.944H920.608V57.832Z" fill="#EEF4FB"/>
<path d="M920.608 78.0127H883.948V91.1246H920.608V78.0127Z" fill="#EEF4FB"/>
<path d="M920.608 98.6143H883.948V111.726H920.608V98.6143Z" fill="#EEF4FB"/>
<path d="M920.608 119.541H883.948V132.652H920.608V119.541Z" fill="#EEF4FB"/>
<path d="M920.608 139.737H883.948V152.849H920.608V139.737Z" fill="#EEF4FB"/>
<path d="M920.608 161.966H883.949V175.078H920.608V161.966Z" fill="#EEF4FB"/>
<path d="M920.608 182.146H883.948V195.258H920.608V182.146Z" fill="#EEF4FB"/>
<path d="M920.608 202.747H883.948V215.859H920.608V202.747Z" fill="#EEF4FB"/>
<path d="M920.608 223.682H883.948V236.794H920.608V223.682Z" fill="#EEF4FB"/>
<path d="M920.608 243.87H883.948V256.982H920.608V243.87Z" fill="#EEF4FB"/>
<path d="M983.356 66.4258H946.696V79.5377H983.356V66.4258Z" fill="#EEF4FB"/>
<path d="M983.356 86.6138H946.696V99.7257H983.356V86.6138Z" fill="#EEF4FB"/>
<path d="M983.356 107.214H946.696V120.326H983.356V107.214Z" fill="#EEF4FB"/>
<path d="M983.356 128.142H946.696V141.254H983.356V128.142Z" fill="#EEF4FB"/>
<path d="M983.356 148.337H946.696V161.449H983.356V148.337Z" fill="#EEF4FB"/>
<path d="M983.356 169.391H946.696V182.503H983.356V169.391Z" fill="#EEF4FB"/>
<path d="M983.356 189.571H946.696V202.683H983.356V189.571Z" fill="#EEF4FB"/>
<path d="M983.356 210.172H946.696V223.284H983.356V210.172Z" fill="#EEF4FB"/>
<path d="M983.356 231.107H946.696V244.219H983.356V231.107Z" fill="#EEF4FB"/>
<path d="M983.356 251.304H946.696V264.416H983.356V251.304Z" fill="#EEF4FB"/>
<path d="M983.356 274.461H946.696V287.573H983.356V274.461Z" fill="#EEF4FB"/>
<path d="M983.356 294.642H946.696V307.754H983.356V294.642Z" fill="#EEF4FB"/>
<path d="M983.356 315.243H946.696V328.355H983.356V315.243Z" fill="#EEF4FB"/>
<path d="M983.356 336.169H946.696V349.281H983.356V336.169Z" fill="#EEF4FB"/>
<path d="M983.356 356.365H946.696V369.477H983.356V356.365Z" fill="#EEF4FB"/>
<path d="M833.207 128.142H831.389V154.89H833.207V128.142Z" fill="#DEE9F6"/>
<path d="M864.864 105.166H862.037V156.97H864.864V105.166Z" fill="#DEE9F6"/>
<path d="M505.091 50.9946H503.916V60.5327H505.091V50.9946Z" fill="#DEE9F6"/>
<path d="M530.085 50.9946H528.909V60.5327H530.085V50.9946Z" fill="#DEE9F6"/>
<path d="M587.378 50.9946H586.202V60.5327H587.378V50.9946Z" fill="#DEE9F6"/>
<path d="M890.531 50.4702H889.618V57.8323H890.531V50.4702Z" fill="#DEE9F6"/>
<path d="M933.545 50.4702H932.631V57.8323H933.545V50.4702Z" fill="#DEE9F6"/>
<path d="M564.981 50.9946H563.806V60.5327H564.981V50.9946Z" fill="#DEE9F6"/>
<path d="M789.766 598.424H559.335C528.822 598.424 504.091 573.693 504.091 543.181V59.2062C504.091 28.6937 528.822 3.96289 559.335 3.96289H789.758C820.271 3.96289 845.002 28.6937 845.002 59.2062V543.181C845.01 573.693 820.271 598.424 789.766 598.424Z" fill="white"/>
<path d="M813.41 602.395H535.692C516.084 602.395 500.129 586.44 500.129 566.831V35.5635C500.129 15.9551 516.084 0 535.692 0H813.41C833.018 0 848.973 15.9551 848.973 35.5635V566.823C848.973 586.44 833.018 602.395 813.41 602.395ZM535.692 7.93387C520.452 7.93387 508.063 20.3311 508.063 35.5635V566.823C508.063 582.064 520.46 594.453 535.692 594.453H813.41C828.642 594.453 841.039 582.056 841.039 566.823V35.5635C841.039 20.3231 828.642 7.93387 813.41 7.93387H535.692Z" fill="#0DB9B3"/>
<path d="M633.972 71.897H519.912V120.302H633.972V71.897Z" fill="#DCE8F6"/>
<path d="M633.972 136.234H519.912V184.639H633.972V136.234Z" fill="#DCE8F6"/>
<path d="M713.865 185.297V71.2368L661.798 71.2368V185.297H713.865Z" fill="#DCE8F6"/>
<path d="M674.924 360.312C682.919 331.447 665.999 301.566 637.133 293.571C608.268 285.577 578.387 302.496 570.392 331.362C562.398 360.228 579.317 390.109 608.183 398.103C637.049 406.098 666.93 389.178 674.924 360.312Z" fill="#DCE8F6"/>
<path d="M830.627 345.842H519.912V354.26H830.627V345.842Z" fill="#DCE8F6"/>
<path d="M822.209 197.998H519.912V206.424H822.209V197.998Z" fill="#DCE8F6"/>
<path d="M629.918 494.048V206.054H621.5V494.048H629.918Z" fill="#DCE8F6"/>
<path d="M830.634 354.035V66.0405H822.215V354.035H830.634Z" fill="#DCE8F6"/>
<path d="M735.573 494.048L735.573 71.9004H727.155L727.155 494.048H735.573Z" fill="#DCE8F6"/>
<path d="M656.804 358.959C664.031 340.127 654.624 319.001 635.791 311.773C616.959 304.545 595.833 313.953 588.605 332.786C581.378 351.618 590.785 372.744 609.618 379.971C628.45 387.199 649.576 377.791 656.804 358.959Z" fill="white"/>
<path d="M682.631 216.732H640.968V281.426H682.631V216.732Z" fill="#DCE8F6"/>
<path d="M560.518 265.415H519.912V311.906H560.518V265.415Z" fill="#DCE8F6"/>
<path d="M601.625 216.732H519.912V257.338H601.625V216.732Z" fill="#DCE8F6"/>
<path d="M718.799 216.732H689.66V256.949H718.799V216.732Z" fill="#DCE8F6"/>
<path d="M718.799 265.415H689.66V332.619H718.799V265.415Z" fill="#DCE8F6"/>
<path d="M718.799 362.234H689.66V402.023H718.799V362.234Z" fill="#DCE8F6"/>
<path d="M777.798 216.732H754.291V332.619H777.798V216.732Z" fill="#DCE8F6"/>
<path d="M814.577 216.732H785.438V332.619H814.577V216.732Z" fill="#DCE8F6"/>
<path d="M812.234 70.3247H770.762V186.212H812.234V70.3247Z" fill="#DCE8F6"/>
<path d="M830.628 366.475H749.828V494.045H830.628V366.475Z" fill="#DCE8F6"/>
<path d="M718.799 445.798H638.38V494.044H718.799V445.798Z" fill="#DCE8F6"/>
<path d="M718.799 411.124H638.38V436.697H718.799V411.124Z" fill="#DCE8F6"/>
<path d="M592.142 411.124H519.912V494.045H592.142V411.124Z" fill="#DCE8F6"/>
<path d="M550.321 358.772H519.912V403.453H550.321V358.772Z" fill="#DCE8F6"/>
<path d="M790.648 563.035C772.342 563.035 755.649 553.314 746.381 537.852C733.928 517.092 710.896 503.146 684.53 503.146H519.912V564.679C519.912 575.154 528.584 583.652 539.282 583.652H737.962H756.213H814.966C823.615 583.652 830.635 576.782 830.635 568.308V563.027H790.648V563.035Z" fill="#EA4497"/>
<path d="M768.864 529.401C768.864 517.211 778.744 507.323 790.943 507.323C803.133 507.323 813.021 517.203 813.021 529.401C813.021 541.6 803.133 551.479 790.943 551.479C778.744 551.479 768.864 541.592 768.864 529.401Z" fill="#EA4497"/>
<path d="M777.933 530.418L799.241 519.768L792.673 543.252L787.431 534.27L777.933 530.418Z" fill="white"/>
<path d="M706.807 548.191H585.996V553.354H706.807V548.191Z" fill="white"/>
<path d="M585.995 548.191H530.927V553.354H585.995V548.191Z" fill="#F393BD"/>
<path d="M576.768 532.999L618.002 551.154L575.894 569.952L582.629 551.48L576.768 532.999Z" fill="#0DB9B3"/>
<path d="M714.192 550.773C714.192 546.031 718.036 542.188 722.777 542.188C727.519 542.188 731.363 546.031 731.363 550.773C731.363 555.514 727.519 559.358 722.777 559.358C718.036 559.358 714.192 555.514 714.192 550.773Z" fill="white"/>
<path d="M840.991 52.2013H508.158C508.158 27.8755 504.592 1.88983 554.737 6.10694H799.48C845.701 1.88189 840.991 27.8755 840.991 52.2013Z" fill="#0DB9B3"/>
<path d="M1239.62 599.535V600.274C1239.62 601.505 1238.99 602.514 1238.23 602.514H4.76482C4.0024 602.514 3.375 601.505 3.375 600.274V599.535C3.375 598.305 4.0024 597.296 4.76482 597.296H1238.22C1238.99 597.296 1239.62 598.305 1239.62 599.535Z" fill="#BABABA"/>
<path d="M1236.24 596.16V596.899C1236.24 598.13 1235.61 599.138 1234.85 599.138H1.38982C0.627404 599.138 0 598.13 0 596.899V596.16C0 594.929 0.627404 593.921 1.38982 593.921H1234.85C1235.62 593.913 1236.24 594.921 1236.24 596.16Z" fill="#BABABA"/>
<path d="M735.547 354.356H667.057L667.128 351.314C667.128 351.195 667.327 338.989 662.181 326.877C655.486 311.113 643.184 302.845 625.616 302.297C611.337 301.853 600.076 305.704 592.158 313.734C578.101 327.997 578.99 351.013 578.998 351.243L579.141 354.356H576.028H456.853L312.995 244.362H215.35V238.413H315.004L458.862 348.408H573.05C573.264 341.085 575.122 322.565 587.885 309.588C597.01 300.304 609.773 295.849 625.799 296.349C650.911 297.127 662.466 312.217 667.732 324.733C671.766 334.327 672.767 343.73 673.005 348.408H729.599V229.066H735.547V354.356Z" fill="#EA4497"/>
<path d="M720.196 222.418C720.196 215.58 725.739 210.037 732.577 210.037C739.415 210.037 744.958 215.58 744.958 222.418C744.958 229.256 739.415 234.8 732.577 234.8C725.739 234.792 720.196 229.248 720.196 222.418Z" fill="white"/>
<path d="M732.577 237.111C724.476 237.111 717.885 230.519 717.885 222.418C717.885 214.318 724.476 207.726 732.577 207.726C740.678 207.726 747.269 214.318 747.269 222.418C747.269 230.519 740.678 237.111 732.577 237.111ZM732.577 212.348C727.026 212.348 722.507 216.867 722.507 222.418C722.507 227.97 727.026 232.489 732.577 232.489C738.128 232.489 742.647 227.97 742.647 222.418C742.639 216.867 738.128 212.348 732.577 212.348Z" fill="#EA4497"/>
<path d="M215.581 253.82C222.419 253.82 227.962 248.277 227.962 241.439C227.962 234.601 222.419 229.058 215.581 229.058C208.743 229.058 203.2 234.601 203.2 241.439C203.2 248.277 208.743 253.82 215.581 253.82Z" fill="white"/>
<path d="M215.581 256.139C207.48 256.139 200.888 249.547 200.888 241.447C200.888 233.346 207.48 226.754 215.581 226.754C223.681 226.754 230.273 233.346 230.273 241.447C230.273 249.547 223.681 256.139 215.581 256.139ZM215.581 231.377C210.029 231.377 205.51 235.895 205.51 241.447C205.51 246.998 210.029 251.517 215.581 251.517C221.132 251.517 225.651 246.998 225.651 241.447C225.643 235.895 221.132 231.377 215.581 231.377Z" fill="#EA4497"/>
<path d="M564.401 350.051C564.401 343.213 569.945 337.67 576.783 337.67C583.621 337.67 589.164 343.213 589.164 350.051C589.164 356.889 583.621 362.433 576.783 362.433C569.945 362.433 564.401 356.889 564.401 350.051Z" fill="white"/>
<path d="M576.782 364.744C568.682 364.744 562.09 358.152 562.09 350.051C562.09 341.951 568.682 335.359 576.782 335.359C584.883 335.359 591.475 341.951 591.475 350.051C591.475 358.152 584.883 364.744 576.782 364.744ZM576.782 339.981C571.231 339.981 566.712 344.5 566.712 350.051C566.712 355.603 571.231 360.121 576.782 360.121C582.334 360.121 586.852 355.603 586.852 350.051C586.844 344.5 582.326 339.981 576.782 339.981Z" fill="#EA4497"/>
<path d="M915.255 352.3C922.093 352.3 927.636 346.756 927.636 339.918C927.636 333.08 922.093 327.537 915.255 327.537C908.417 327.537 902.874 333.08 902.874 339.918C902.874 346.756 908.417 352.3 915.255 352.3Z" fill="white"/>
<path d="M915.255 354.619C907.154 354.619 900.562 348.027 900.562 339.926C900.562 331.826 907.154 325.234 915.255 325.234C923.356 325.234 929.947 331.826 929.947 339.926C929.947 348.027 923.356 354.619 915.255 354.619ZM915.255 329.856C909.704 329.856 905.185 334.375 905.185 339.926C905.185 345.478 909.704 349.996 915.255 349.996C920.806 349.996 925.325 345.478 925.325 339.926C925.317 334.367 920.806 329.856 915.255 329.856Z" fill="#EA4497"/>
<path d="M554.45 40.0897L550.376 43.0123L546.286 40.1214C547.191 38.8428 548.692 38.001 550.376 38.001C552.059 38.001 553.544 38.8269 554.45 40.0897Z" fill="white"/>
<path d="M550.376 30.8774C546.286 30.8774 542.664 32.9106 540.472 36.0237L543.053 37.8345C544.681 35.5314 547.358 34.0383 550.376 34.0383C553.37 34.0383 556.03 35.5155 557.658 37.7868L560.231 35.9443C558.032 32.8708 554.434 30.8774 550.376 30.8774Z" fill="white"/>
<path d="M550.376 17.3447C541.711 17.3447 534.056 21.6492 529.417 28.233L531.999 30.0437C536.073 24.2859 542.792 20.5056 550.376 20.5056C557.897 20.5056 564.576 24.2223 568.658 29.9087L571.223 28.0662C566.577 21.5777 558.969 17.3447 550.376 17.3447Z" fill="white"/>
<path d="M550.375 24.7544C544.212 24.7544 538.748 27.8041 535.429 32.4738L538.01 34.2846C540.766 30.4328 545.277 27.9152 550.375 27.9152C555.426 27.9152 559.913 30.3931 562.677 34.1893L565.242 32.3547C561.907 27.7485 556.49 24.7544 550.375 24.7544Z" fill="white"/>
<path d="M717.702 155.247C717.702 147.035 724.357 140.372 732.577 140.372C740.789 140.372 747.452 147.027 747.452 155.247C747.452 163.458 740.797 170.122 732.577 170.122C724.357 170.122 717.702 163.458 717.702 155.247Z" fill="white"/>
<path fill-rule="evenodd" clip-rule="evenodd" d="M216.248 85.3267C216.709 85.3267 217.162 85.3346 217.614 85.3425L218.115 85.3584C218.424 85.3664 218.734 85.3823 219.044 85.3981L219.512 85.422L220.378 85.4776L220.998 85.5252L221.736 85.5887L222.34 85.6523L223.126 85.7396L223.69 85.8111L224.532 85.9302L225.008 86.0017C225.31 86.0494 225.612 86.097 225.921 86.1526L226.358 86.2241C226.755 86.2956 227.145 86.367 227.534 86.4465L227.653 86.4703C228.09 86.5576 228.526 86.6529 228.963 86.7562L229.011 86.7721L229.146 86.8038C229.535 86.8912 229.924 86.9865 230.313 87.0897L230.663 87.1851L231.56 87.4233L232.156 87.598L232.807 87.7886L233.411 87.9792L234.11 88.2016L234.634 88.3763L235.372 88.6384L235.912 88.837L236.532 89.0752L237.143 89.3135L237.93 89.6391L238.303 89.79C238.636 89.9329 238.962 90.0759 239.296 90.2188L239.51 90.3141L239.55 90.33C239.923 90.4968 240.296 90.6715 240.662 90.8462L240.693 90.8621L241.154 91.0924L241.853 91.4419L242.401 91.7278L242.988 92.0375L243.576 92.3552L244.14 92.6728L244.688 92.9905L245.268 93.332L245.792 93.6497L246.396 94.0309L246.888 94.3406L247.436 94.698L248.024 95.0872L248.341 95.3095L249.08 95.8257C249.413 96.064 249.739 96.3023 250.065 96.5405C250.621 96.9535 251.161 97.3823 251.701 97.8112L252.058 98.0971L252.67 98.6054L253.027 98.9072L253.646 99.4472L253.988 99.749L254.576 100.281L254.941 100.623L255.513 101.163L255.822 101.464L256.442 102.076L256.648 102.282C257.975 103.633 259.229 105.046 260.413 106.523L260.572 106.722L261.151 107.468L261.334 107.707L261.922 108.501L262.065 108.699C262.271 108.985 262.478 109.271 262.684 109.565L262.756 109.668C262.97 109.978 263.185 110.296 263.399 110.613L263.423 110.653C264.979 113.004 266.361 115.474 267.56 118.055L267.6 118.134C267.759 118.476 267.91 118.809 268.061 119.151L268.124 119.302C268.275 119.643 268.418 119.985 268.561 120.326L268.601 120.43C268.744 120.787 268.887 121.136 269.022 121.494L269.054 121.581C269.927 123.86 270.666 126.211 271.245 128.618L271.261 128.673C271.357 129.062 271.444 129.443 271.523 129.833L271.539 129.92C271.619 130.293 271.698 130.667 271.77 131.04L271.801 131.214C271.873 131.588 271.936 131.961 272.008 132.334L272.016 132.366L272.095 132.382H272.119L272.198 132.406H272.214L272.294 132.43L272.31 132.438L272.389 132.461H272.405L272.484 132.485L272.5 132.493L272.58 132.517H272.596L272.675 132.541L272.691 132.549L272.77 132.573L272.786 132.58L272.866 132.604L272.881 132.612L272.961 132.636H272.977L273.056 132.66L273.072 132.668L273.151 132.692L273.167 132.7L273.247 132.723L273.263 132.731L273.342 132.763H273.358L273.437 132.795L273.453 132.803L273.533 132.835L273.549 132.843L273.628 132.874H273.644L273.723 132.906L273.739 132.914L273.819 132.946L273.834 132.954L273.914 132.986L273.93 132.993L274.009 133.025L274.025 133.033L274.104 133.065L274.112 133.073L274.192 133.105L274.208 133.113L274.287 133.152L274.375 133.192H274.382L274.462 133.232L274.47 133.24L274.549 133.279L274.557 133.287L274.637 133.327H274.645L274.724 133.367L274.732 133.375L274.811 133.414L274.819 133.422L274.891 133.462H274.899L274.978 133.51L274.986 133.518L275.058 133.565H275.065L275.137 133.613H275.145L275.216 133.661H275.224L275.296 133.708H275.304L275.375 133.756L275.383 133.764L275.455 133.811H275.463L275.534 133.867L275.542 133.875L275.613 133.931H275.621L275.693 133.986H275.701L275.772 134.042H275.78L275.852 134.097V134.105L275.923 134.161H275.931L276.003 134.224H276.011L276.082 134.288H276.09L276.161 134.352L276.233 134.415L276.304 134.479V134.487L276.376 134.55L276.439 134.614L276.511 134.685L276.574 134.757L276.638 134.828L276.701 134.9L276.765 134.971L276.829 135.05L276.892 135.13L276.956 135.209L277.019 135.289L277.083 135.368L277.146 135.455L277.21 135.543L277.273 135.63C278.06 136.774 278.544 138.044 278.703 139.387C278.989 141.825 279.1 144.295 278.512 146.717C277.71 150.013 275.621 151.998 272.302 152.689C272.119 152.729 271.936 152.792 271.762 152.848H271.706H271.69V152.856C271.619 153.229 271.539 153.595 271.46 153.96L271.428 154.119C271.349 154.468 271.269 154.826 271.182 155.175L271.134 155.358C271.047 155.715 270.96 156.072 270.864 156.422L270.84 156.517C270.221 158.82 269.459 161.068 268.569 163.252L268.482 163.458C268.347 163.784 268.204 164.11 268.069 164.427L268.013 164.554C267.87 164.888 267.719 165.221 267.568 165.547L267.513 165.674C266.512 167.818 265.384 169.899 264.13 171.885L264.09 171.956C263.899 172.258 263.701 172.56 263.51 172.861L263.415 173.012C263.224 173.298 263.042 173.576 262.843 173.854L262.708 174.045C262.509 174.331 262.311 174.609 262.112 174.887L262.049 174.974C260.921 176.531 259.714 178.024 258.443 179.461L258.316 179.596L257.665 180.303L257.466 180.517L256.823 181.192L256.593 181.423L255.973 182.042L255.672 182.336L255.068 182.924L254.814 183.154L254.147 183.773L254.131 183.789C253.583 184.29 253.019 184.774 252.447 185.251L252.328 185.346L251.693 185.862L251.335 186.156C251.121 186.331 250.899 186.497 250.684 186.664L250.358 186.91L249.715 187.395L249.302 187.697L248.722 188.11L248.222 188.459L247.674 188.832L247.094 189.214L246.634 189.515L245.975 189.928L245.538 190.198C245.196 190.405 244.855 190.611 244.505 190.81L244.489 190.818L243.878 191.159L243.354 191.453L242.822 191.739L242.178 192.081L241.678 192.335L241.051 192.644L240.463 192.93L239.875 193.2L239.311 193.462L238.605 193.772L238.136 193.971C237.866 194.09 237.588 194.193 237.31 194.304L236.913 194.463L236.897 194.471C236.524 194.622 236.143 194.765 235.761 194.9L235.722 194.916L235.309 195.067C235.039 195.162 234.777 195.257 234.507 195.345L233.943 195.527L233.26 195.75L232.704 195.924L231.949 196.147L231.449 196.29L230.695 196.496L230.147 196.639L229.329 196.838L228.9 196.941C228.558 197.02 228.217 197.092 227.867 197.163L227.581 197.227C227.152 197.314 226.724 197.402 226.287 197.473L226.239 197.481L225.937 197.529C225.612 197.584 225.286 197.64 224.961 197.688L224.42 197.767L223.626 197.878L223.007 197.95L222.316 198.029L221.649 198.093L220.966 198.156L220.291 198.212L219.528 198.259L218.988 198.291C218.663 198.307 218.345 198.315 218.019 198.331L217.606 198.347C217.146 198.355 216.685 198.363 216.225 198.363C215.748 198.363 215.272 198.355 214.803 198.347H214.763C214.303 198.331 213.842 198.315 213.389 198.291H213.373C213.064 198.275 212.754 198.251 212.452 198.236L211.96 198.204C211.674 198.18 211.396 198.156 211.118 198.132L210.538 198.085L209.68 197.989L209.148 197.926L208.426 197.83L207.711 197.727L207.083 197.624L206.353 197.505L205.773 197.394C205.495 197.338 205.217 197.29 204.939 197.235L204.447 197.132L203.613 196.949L203.025 196.806L202.271 196.623L201.627 196.457L200.96 196.274L200.261 196.075L199.658 195.893L198.943 195.67L198.316 195.464L197.68 195.249L197.029 195.019L196.394 194.781L195.735 194.527L195.147 194.296L194.48 194.026L193.821 193.74L193.281 193.502L192.582 193.184L192.034 192.93L191.375 192.613L190.795 192.327L190.215 192.033L189.556 191.684L189.008 191.382L188.42 191.056L187.793 190.699L187.269 190.389L186.633 190.008L186.125 189.69L185.514 189.301L184.973 188.944L184.402 188.562L183.87 188.189L183.266 187.76L182.845 187.451L182.186 186.966L181.749 186.632L181.13 186.148L180.756 185.846L180.05 185.274L179.795 185.06C179.549 184.846 179.295 184.639 179.049 184.417L178.755 184.155C178.517 183.94 178.279 183.734 178.048 183.519L177.802 183.289C177.556 183.067 177.318 182.836 177.079 182.606L176.849 182.384C176.603 182.145 176.357 181.899 176.11 181.653L175.967 181.51C175.705 181.24 175.443 180.97 175.181 180.7L175.07 180.581C174.8 180.295 174.538 180.009 174.276 179.715L174.212 179.644C169.813 174.752 166.247 169.089 163.753 162.886L163.745 162.863C163.419 162.061 163.118 161.243 162.832 160.417L162.792 160.313C162.355 159.059 161.966 157.788 161.625 156.493L161.609 156.43C161.497 156.009 161.386 155.596 161.291 155.175L161.275 155.111C161.172 154.683 161.077 154.254 160.981 153.825L160.973 153.785C160.878 153.348 160.791 152.912 160.703 152.475L160.695 152.435C160.608 151.99 160.537 151.546 160.457 151.101V151.077C160.386 150.64 160.314 150.203 160.259 149.759L160.243 149.679C160.116 148.79 160.02 147.884 159.933 146.979L159.925 146.915C159.846 146.002 159.782 145.081 159.75 144.16V144.152L159.734 144.12L159.703 144.041L159.671 143.961L159.639 143.882L159.607 143.802L159.576 143.723L159.544 143.643L159.512 143.564L159.48 143.485L159.441 143.405L159.409 143.326L159.377 143.246L159.345 143.167L159.313 143.088L159.282 143.008L159.25 142.929L159.218 142.849L159.186 142.77L159.155 142.69L159.123 142.611L159.091 142.532L159.059 142.452L159.028 142.373L158.996 142.293L158.956 142.214L158.924 142.134L158.893 142.055L158.861 141.976L158.829 141.896L158.797 141.817L158.758 141.737L158.726 141.658L158.694 141.579L158.662 141.499L158.63 141.42L158.599 141.34L158.567 141.261L158.535 141.181L158.503 141.102L158.472 141.023L158.44 140.943L158.408 140.864L158.376 140.784L158.345 140.705L158.313 140.626L158.281 140.546L158.249 140.467L158.217 140.387L158.186 140.308L158.154 140.228L158.122 140.149L157.876 140.213C157.86 140.546 157.836 140.872 157.836 141.205C157.836 144.144 157.86 147.082 157.828 150.013C157.812 151.839 156.979 152.657 155.335 152.602C154.437 152.57 153.818 152.046 153.683 151.141C153.603 150.608 153.564 150.076 153.564 149.536C153.556 145.025 153.556 140.506 153.564 135.995C153.564 135.583 153.587 135.17 153.651 134.772C153.786 133.835 154.135 132.97 155.144 132.715C156.216 132.445 157.304 132.295 158.281 133.097C159.147 133.811 159.464 134.86 160.012 135.765L160.068 135.892L160.116 135.988C160.163 135.543 160.211 135.098 160.266 134.661C160.362 133.899 160.481 133.144 160.6 132.398L160.672 131.985C160.719 131.715 160.767 131.445 160.822 131.175L160.926 130.627L161.077 129.92L161.212 129.285L161.378 128.586L161.529 127.974L161.712 127.267L161.879 126.648L162.061 125.997L162.244 125.377L162.474 124.647L162.649 124.122L162.887 123.424L163.118 122.78L163.332 122.185L163.586 121.518L163.824 120.906L164.063 120.318L164.333 119.675L164.571 119.135L164.889 118.428L165.063 118.055L165.445 117.245L165.46 117.221C165.643 116.848 165.818 116.482 166.008 116.117L166.032 116.069C166.231 115.688 166.429 115.315 166.628 114.934L166.644 114.902L166.834 114.553L167.271 113.766L167.541 113.306L167.946 112.615L168.232 112.154L168.637 111.511L168.995 110.963L169.344 110.431L169.765 109.819L170.09 109.351L170.488 108.795L170.877 108.263L171.266 107.738L171.671 107.206L172.084 106.682L172.481 106.19L172.886 105.697L173.386 105.102L173.728 104.705L174.228 104.141L174.625 103.696L175.118 103.164L175.523 102.727L176.007 102.235L176.452 101.782L177 101.25L177.381 100.877C177.651 100.623 177.921 100.368 178.191 100.122L178.326 99.9952L178.35 99.9714C178.66 99.6855 178.977 99.4075 179.303 99.1295L179.343 99.0978L179.74 98.7563L180.32 98.2639L180.788 97.8827L181.328 97.4459L181.829 97.0647L182.384 96.6358L182.909 96.2546L183.441 95.8655L183.989 95.4843L184.513 95.1189L185.108 94.7218L185.601 94.3962L186.204 94.0071L186.737 93.6735L187.285 93.34L187.968 92.9349L188.373 92.6967L189.119 92.2758L189.572 92.0296L190.223 91.6881L190.803 91.3863L191.406 91.0845L191.938 90.8224L192.796 90.4253L193.138 90.2665L193.972 89.9012L194.408 89.7105L194.44 89.6947C194.829 89.5279 195.226 89.369 195.616 89.2102L195.631 89.2023L195.703 89.1784C196.092 89.0196 196.489 88.8767 196.886 88.7258L197.061 88.6622C197.426 88.5272 197.792 88.4001 198.165 88.2731L198.554 88.146L199.404 87.8681L200.039 87.6774L200.682 87.4868L201.286 87.3201L202.04 87.1136L202.533 86.9865L203.367 86.788L203.875 86.6768L204.701 86.4941L205.249 86.3829L205.995 86.24L206.631 86.1288L207.354 86.0097L207.981 85.9144L208.696 85.8111L209.387 85.7238L210.046 85.6523L210.745 85.5808L211.428 85.5173L212.15 85.4617L212.937 85.414L213.485 85.3823C213.818 85.3664 214.144 85.3584 214.477 85.3425L214.922 85.3267C215.303 85.3346 215.78 85.3267 216.248 85.3267ZM272.588 137.099L272.596 137.171L272.604 137.242L272.643 137.759L272.651 137.83L272.659 137.902L272.707 138.64L272.715 138.712V138.783L272.731 139.077V139.148V139.22L272.77 140.189V140.26V140.332V140.371V140.403V140.475V140.546C272.778 140.967 272.786 141.396 272.786 141.817C272.786 142.285 272.778 142.746 272.77 143.207V143.23V143.27V143.326V143.429C272.762 143.763 272.746 144.104 272.731 144.438V144.541L272.723 144.644V144.747L272.715 144.851L272.707 144.954L272.699 145.057L272.651 145.756L272.643 145.859V145.867L272.596 146.455L272.588 146.55L272.58 146.653L272.572 146.757L272.564 146.86L272.556 146.955L272.548 147.058L272.54 147.154L272.532 147.249L272.453 148.043L272.445 148.146L272.437 148.242L272.468 148.218L272.492 148.202L272.508 148.186L272.54 148.162L272.572 148.138L272.588 148.131L272.604 148.115L272.635 148.091H272.643L272.675 148.059L272.683 148.051L272.707 148.027L272.739 147.996L272.77 147.964L272.778 147.956L272.802 147.932L272.826 147.908L272.834 147.9L272.866 147.868V147.861L272.889 147.829L272.905 147.813L272.921 147.797L272.953 147.765L272.977 147.733L272.993 147.718L273.009 147.702L273.032 147.67L273.056 147.638L273.064 147.622L273.08 147.598L273.104 147.567V147.559L273.128 147.527L273.136 147.519L273.151 147.495L273.175 147.463L273.183 147.456L273.207 147.416L273.215 147.408L273.231 147.376L273.247 147.352L273.255 147.336L273.279 147.297V147.289L273.302 147.257L273.318 147.233L273.326 147.217L273.35 147.178L273.374 147.138L273.382 147.114L273.39 147.09L273.406 147.05L273.429 147.011L273.437 146.995L273.453 146.971L273.469 146.939V146.931L273.485 146.892L273.493 146.876L273.509 146.844L273.525 146.812V146.804L273.541 146.765V146.757L273.557 146.725L273.564 146.701L273.572 146.685L273.588 146.645V146.638L273.604 146.598L273.612 146.574L273.62 146.558L273.636 146.51L273.652 146.471L273.66 146.447L273.668 146.423L273.684 146.383L273.699 146.336L273.707 146.32L273.715 146.288L273.723 146.248V146.24L273.739 146.193V146.177L273.747 146.145L273.755 146.113V146.097L273.771 146.05V146.042L273.779 146.002L273.787 145.97L273.795 145.954L273.803 145.907V145.899L273.811 145.859L273.819 145.835L273.827 145.812L273.834 145.764C274.247 143.643 274.24 141.483 273.834 139.355L273.827 139.307L273.819 139.268V139.26L273.811 139.212L273.803 139.172V139.164L273.795 139.117L273.787 139.085V139.069L273.771 139.021L273.763 138.997L273.755 138.974L273.739 138.926V138.91L273.731 138.886L273.715 138.847V138.839L273.707 138.807L273.692 138.767V138.759L273.676 138.72L273.66 138.68L273.644 138.64L273.628 138.6V138.592L273.612 138.553L273.604 138.521V138.513L273.588 138.473L273.58 138.449L273.572 138.434L273.557 138.394L273.549 138.37L273.541 138.354L273.525 138.314L273.517 138.299L273.509 138.275L273.493 138.235L273.485 138.227L273.469 138.203L273.453 138.164V138.156L273.437 138.124L273.422 138.084L273.406 138.052L273.39 138.021L273.374 137.981L273.358 137.949V137.941L273.334 137.909L273.318 137.886L273.31 137.878L273.286 137.846L273.279 137.822L273.271 137.806L273.247 137.774L273.239 137.759L273.231 137.743L273.207 137.711L273.199 137.703L273.183 137.679L273.112 137.584L273.088 137.552L273.064 137.52L273.04 137.489L273.016 137.465L273.009 137.457L272.985 137.425L272.969 137.401L272.961 137.393L272.921 137.425L272.905 137.409L272.897 137.393L272.874 137.361L272.858 137.346L272.842 137.33L272.818 137.306L272.81 137.298L272.794 137.282L272.77 137.258L272.762 137.25L272.739 137.226L272.707 137.203L272.651 137.155L272.619 137.131L272.588 137.099Z" fill="#EE60A2"/>
<path d="M216.248 206.209L213.008 206.13C212.92 206.122 212.841 206.122 212.762 206.114L194.456 202.421L178.262 193.804L175.125 191.35C175.093 191.318 174.808 191.08 174.768 191.048L173.95 190.341C173.934 190.326 173.624 190.048 173.608 190.04L171.734 188.316C171.702 188.285 171.44 188.03 171.408 187.999L168.51 184.997C163.355 179.279 159.353 172.862 156.533 165.841C156.152 164.888 155.803 163.959 155.477 163.014C155.167 162.124 154.89 161.266 154.635 160.409C150.132 160.091 146.559 156.819 145.876 152.34C145.741 151.395 145.669 150.481 145.669 149.56L145.661 136.012C145.669 135.201 145.717 134.431 145.828 133.677C146.463 129.34 149.187 126.172 153.126 125.171C153.476 125.084 153.825 125.004 154.167 124.941L157.653 115.267C157.669 115.236 157.86 114.823 157.876 114.791L159.567 111.408C159.623 111.297 159.686 111.177 159.742 111.074L170.813 96.3104L184.354 85.9781L189.397 83.3811C189.421 83.3731 189.778 83.2064 189.802 83.1905L195.536 80.9271C195.568 80.9191 195.988 80.7762 196.02 80.7682L211.419 77.7027L214.533 77.5438C215.16 77.528 215.7 77.52 216.248 77.52L227.684 78.5366L232.251 79.5293C232.283 79.5372 232.664 79.6405 232.696 79.6484L240.915 82.4281C240.947 82.4439 241.36 82.6107 241.392 82.6266L242.535 83.1269C242.623 83.1667 242.925 83.3017 243.012 83.3493L252.375 88.6227C252.407 88.6465 252.757 88.8927 252.796 88.9086L254.75 90.3143C255.369 90.7828 255.989 91.2594 256.592 91.7518L260.881 95.5321C260.897 95.5479 261.215 95.8577 261.23 95.8736L261.929 96.5645C261.961 96.6042 262.199 96.8425 262.239 96.8822C263.708 98.3752 265.146 100.003 266.488 101.679L267.306 102.719C267.338 102.759 267.544 103.037 267.576 103.069L269.871 106.301C271.682 109.041 273.27 111.868 274.62 114.783L276.28 118.682C277.305 121.359 278.139 124.019 278.782 126.688C278.814 126.704 278.845 126.72 278.877 126.743C278.941 126.775 279.004 126.815 279.06 126.855C279.203 126.934 279.338 127.021 279.465 127.109C279.489 127.125 279.513 127.14 279.536 127.156C279.648 127.228 279.759 127.299 279.87 127.379C279.902 127.403 280.251 127.649 280.283 127.673C280.45 127.792 280.759 128.038 280.918 128.173C280.95 128.205 281.284 128.483 281.315 128.514C281.403 128.594 281.641 128.808 281.72 128.888C281.776 128.943 282.046 129.213 282.102 129.269C282.181 129.348 282.467 129.65 282.538 129.737C282.586 129.793 282.84 130.087 282.888 130.142C282.959 130.222 283.158 130.476 283.221 130.563C283.293 130.659 283.555 131.008 283.618 131.103C285.239 133.47 286.16 135.908 286.47 138.521C286.787 141.229 287.033 144.827 286.104 148.615C284.984 153.206 282.237 156.756 278.321 158.805C277.622 161.37 276.781 163.84 275.804 166.246L274.74 168.692C273.461 171.44 272.166 173.822 270.745 176.086L268.465 179.469C267.107 181.343 265.726 183.059 264.272 184.695L262.485 186.617C262.453 186.649 262.199 186.911 262.168 186.942L261.508 187.602C261.485 187.625 261.159 187.943 261.135 187.967L260.484 188.594C260.452 188.626 260.166 188.888 260.134 188.92L259.444 189.563C258.729 190.206 258.101 190.754 257.466 191.287L255.393 192.946C255.385 192.954 255.044 193.216 255.036 193.216L248.428 197.608C248.285 197.688 248.15 197.767 247.999 197.839L240.232 201.595C240.177 201.619 239.724 201.802 239.668 201.817L229.455 204.859L227.668 205.209C227.629 205.217 227.247 205.28 227.208 205.288L218.297 206.185C218.273 206.185 217.836 206.201 217.813 206.201L216.248 206.209ZM184.187 178.564L200.285 187.919L211.824 190.389L211.975 198.236L212.452 190.445L213.723 190.524C213.778 190.524 213.834 190.532 213.881 190.532L216.248 190.588L224.579 189.873L234.03 187.244L245.696 180.684L247.412 179.318C247.944 178.873 248.436 178.445 248.921 178.008L252.566 174.347C253.725 173.044 254.766 171.758 255.735 170.415L257.498 167.803C258.61 166.032 259.587 164.229 260.444 162.394L261.262 160.528C262.128 158.423 262.779 156.47 263.303 154.516L264.042 151.363C264.177 150.68 264.399 150.029 264.693 149.425C264.606 148.83 264.582 148.218 264.638 147.599L264.749 146.479L267.092 146.574C267.227 146.471 267.369 146.376 267.512 146.28L264.788 146.01L264.892 144.581L266.059 144.565C266.099 144.438 266.139 144.319 266.178 144.192L264.908 144.136L264.947 143.231C264.947 143.191 264.947 143.135 264.955 143.072L264.971 141.865L264.955 140.745C264.955 140.713 264.955 140.61 264.947 140.499L264.796 137.83C264.741 137.1 264.788 136.369 264.931 135.662C264.582 134.955 264.336 134.193 264.232 133.399L263.621 130.484C263.121 128.387 262.485 126.346 261.731 124.377L260.484 121.43C259.42 119.143 258.221 116.999 256.878 114.974L254.369 111.527C253.265 110.153 252.185 108.93 251.041 107.77L246.784 103.903C246.324 103.537 245.855 103.164 245.379 102.807L236.325 97.454L228.621 94.722L217.328 93.1416L216.232 93.1257L201.564 95.3732L185.132 104.34L173.878 117.737L173.529 118.365C173.521 118.373 173.457 118.5 173.394 118.603C173.386 118.619 173.378 118.635 173.362 118.651L168.359 132.684C168.359 132.692 168.248 133.303 168.24 133.311C168.065 134.344 167.962 135.003 167.882 135.662L167.755 136.798C167.628 138.06 167.199 139.236 166.54 140.252C166.58 140.348 166.612 140.419 166.62 140.427C166.667 140.538 166.778 140.792 166.826 140.904C167.199 141.833 167.549 143.183 167.549 144.192C167.581 144.676 167.628 145.47 167.7 146.264C167.779 147.098 167.866 147.877 167.97 148.647L168.144 149.814C168.152 149.83 168.152 149.854 168.152 149.878L169.137 154.46C169.447 155.628 169.788 156.732 170.162 157.82C170.44 158.622 170.71 159.321 170.98 160.02C173.116 165.341 176.15 170.201 179.994 174.474L183.051 177.571C183.083 177.595 183.345 177.849 183.377 177.873L183.822 178.27L179.041 184.465L184.187 178.564ZM149.926 149.957V149.965V149.957Z" fill="#F393BD"/>
<path fill-rule="evenodd" clip-rule="evenodd" d="M216.303 84.9692C247.531 84.9692 272.841 110.28 272.841 141.507C272.841 172.734 247.531 198.045 216.303 198.045C185.076 198.045 159.766 172.734 159.766 141.507C159.766 110.28 185.084 84.9692 216.303 84.9692Z" fill="#EE60A2"/>
<path fill-rule="evenodd" clip-rule="evenodd" d="M216.209 102.465C237.969 102.465 255.608 120.104 255.608 141.864C255.608 163.625 237.969 181.264 216.209 181.264C194.448 181.264 176.81 163.625 176.81 141.864C176.81 120.104 194.448 102.465 216.209 102.465Z" fill="#0DB9B3"/>
<path fill-rule="evenodd" clip-rule="evenodd" d="M256.831 111.233C256.807 111.598 256.553 111.789 256.259 111.924C254.949 112.52 253.972 113.457 253.257 114.712C252.836 115.45 252.336 115.434 251.947 114.672C251.287 113.401 250.406 112.393 249.143 111.686C248.428 111.289 248.452 110.717 249.199 110.352C250.525 109.708 251.526 108.771 252.248 107.485C252.638 106.794 253.154 106.81 253.503 107.532C254.131 108.874 255.084 109.867 256.362 110.582C256.767 110.804 256.839 110.971 256.831 111.233Z" fill="#F6CD19"/>
<path fill-rule="evenodd" clip-rule="evenodd" d="M248.341 104.506C248.333 104.768 248.174 104.88 248 104.967C247.356 105.285 246.864 105.753 246.491 106.357C246.205 106.817 245.903 106.802 245.657 106.325C245.347 105.721 244.902 105.237 244.331 104.872C243.854 104.57 243.798 104.244 244.339 103.974C244.982 103.649 245.458 103.172 245.832 102.561C246.006 102.283 246.308 102.116 246.507 102.457C246.935 103.22 247.491 103.839 248.23 104.292L248.341 104.506Z" fill="#F6CD19"/>
<path fill-rule="evenodd" clip-rule="evenodd" d="M246.769 142.221C246.769 143.389 246.769 144.556 246.769 145.724C246.769 148.638 246.769 148.638 249.731 148.265C251.796 148.003 252.932 147.074 253.456 145.049C253.98 143.024 253.972 140.983 253.337 138.973C252.797 137.25 251.589 136.321 249.795 136.17C249.072 136.106 248.341 136.122 247.618 136.067C246.967 136.011 246.737 136.241 246.753 136.916C246.792 138.679 246.761 140.45 246.769 142.221ZM242.067 133.724C242.393 133.088 242.909 132.667 243.56 132.397C246.07 132.191 248.571 132.231 251.081 132.374C252.296 132.445 253.352 133.025 254.536 133.16L254.687 133.398C257.951 135.479 258.673 138.759 258.689 142.269C258.705 144.747 258.284 147.153 256.704 149.218C256.053 150.068 255.203 150.64 254.345 151.22C254.25 151.235 254.163 151.259 254.186 151.386L254.194 151.37C253.376 151.569 252.558 151.823 251.732 151.966C249.604 152.323 247.452 152.069 245.307 152.149C244.505 152.18 243.743 152.069 243.004 151.752C242.861 151.632 242.726 151.513 242.583 151.394C241.996 150.616 241.932 149.711 241.932 148.789C241.932 144.382 241.932 139.974 241.932 135.566C241.924 134.947 241.765 134.319 242.067 133.724Z" fill="white"/>
<path fill-rule="evenodd" clip-rule="evenodd" d="M269.935 135.9C269.228 135.924 268.577 136.091 268.037 136.583C267.696 136.742 267.442 136.996 267.291 137.338C267.171 137.528 267.06 137.719 266.941 137.902C266.695 138.243 266.568 138.632 266.504 139.029C266.139 141.118 266.147 143.223 266.473 145.311C266.592 146.09 266.87 146.828 267.473 147.384C268.474 148.639 269.824 148.814 271.246 148.472C272.786 148.107 273.62 146.939 273.906 145.462C274.311 143.342 274.311 141.182 273.906 139.053C273.541 137.139 272.35 136.107 270.515 135.892C270.324 135.9 270.126 135.9 269.935 135.9ZM272.032 132.009C274.184 132.493 276.058 133.407 277.361 135.297C278.147 136.44 278.632 137.711 278.79 139.053C279.076 141.499 279.187 143.961 278.6 146.383C277.798 149.679 275.709 151.665 272.389 152.356C272.207 152.395 272.024 152.459 271.849 152.515C270.745 152.507 269.633 152.626 268.537 152.451C264.797 151.871 262.478 149.711 261.708 145.836C261.247 143.509 261.199 141.102 261.692 138.767C262.653 134.177 265.829 131.771 270.523 131.937C271.015 131.961 271.524 131.985 272.032 132.009Z" fill="white"/>
<path fill-rule="evenodd" clip-rule="evenodd" d="M159.972 135.431C161.148 138.108 162.331 140.784 163.514 143.469C163.999 143.294 164.015 142.897 164.15 142.603C165.277 140.101 166.381 137.592 167.501 135.082C167.787 134.447 168.081 133.819 168.518 133.271C169.32 132.263 170.654 131.874 171.933 132.279C173.005 132.612 173.712 133.565 173.72 134.915C173.743 139.903 173.759 144.898 173.72 149.886C173.704 151.553 172.87 152.308 171.321 152.284C170.297 152.26 169.693 151.752 169.582 150.696C169.479 149.663 169.455 148.623 169.399 147.582C169.399 145.017 169.399 142.444 169.399 139.879L169.201 139.831C168.2 142.103 167.199 144.366 166.191 146.637C165.857 147.241 165.595 147.892 165.182 148.44C164.285 149.639 162.736 149.544 161.926 148.194C161.299 147.154 160.83 146.018 160.29 144.922C159.559 143.222 158.821 141.523 158.09 139.831L157.844 139.895C157.828 140.228 157.796 140.554 157.796 140.887C157.796 143.826 157.82 146.764 157.788 149.695C157.772 151.514 156.939 152.34 155.295 152.284C154.397 152.252 153.778 151.728 153.643 150.823C153.563 150.291 153.524 149.759 153.524 149.218C153.516 144.7 153.516 140.189 153.524 135.678C153.524 135.265 153.547 134.852 153.603 134.447C153.738 133.51 154.087 132.644 155.096 132.39C156.168 132.12 157.256 131.969 158.233 132.771C159.099 133.478 159.424 134.518 159.972 135.431Z" fill="white"/>
<path fill-rule="evenodd" clip-rule="evenodd" d="M202.056 149.282C202.04 149.497 202.016 149.719 202.001 149.933C201.897 151.268 201.373 151.99 200.325 152.237C199.134 152.515 198.657 152.276 197.847 150.99C197.656 145.303 197.672 139.609 197.839 133.915C198.339 132.89 199.046 132.16 200.285 132.176C200.73 132.183 201.167 132.191 201.611 132.199C201.778 132.271 201.945 132.342 202.112 132.414C202.271 132.628 202.461 132.787 202.739 132.795L202.731 132.787C203.382 133.851 203.922 134.979 204.439 136.115C205.066 137.473 205.566 138.894 206.337 140.189C206.734 141.325 207.242 142.413 207.893 143.715C208.418 142.476 208.846 141.467 209.267 140.459C209.521 139.919 209.776 139.379 210.03 138.847C211.07 136.655 211.658 134.232 213.405 132.414C213.651 132.342 213.897 132.279 214.144 132.207C214.588 132.199 215.025 132.191 215.47 132.183C217.042 132.414 217.9 133.264 217.916 134.908C217.964 139.927 217.956 144.954 217.916 149.981C217.908 151.379 217.177 152.149 216.002 152.284C214.636 152.443 213.937 151.887 213.754 150.513C213.723 150.299 213.667 150.084 213.627 149.87C213.627 146.55 213.627 143.231 213.627 139.911L213.397 139.847C212.238 142.476 211.086 145.097 209.926 147.726C209.521 148.321 209.132 148.988 208.418 149.203C207.6 149.441 206.821 149.346 206.321 148.496C206.13 148.178 205.876 147.9 205.654 147.606C204.701 145.01 203.462 142.532 202.334 140.014C202.239 139.839 202.136 139.76 202.04 140.014C202.048 143.088 202.056 146.185 202.056 149.282Z" fill="white"/>
<path fill-rule="evenodd" clip-rule="evenodd" d="M230.051 136.655C229.964 136.647 229.877 136.639 229.789 136.631C229.082 138.974 228.376 141.316 227.677 143.659C227.542 144.096 227.851 144.12 228.161 144.12C229.329 144.12 230.504 144.112 231.671 144.12C232.1 144.12 232.235 143.953 232.108 143.532C231.409 141.253 230.734 138.95 230.051 136.655ZM238.74 150.783C237.691 152.673 236.071 152.816 234.356 151.156C234.062 150.195 233.728 149.242 233.474 148.265C233.323 147.694 233.021 147.551 232.466 147.559C230.766 147.59 229.059 147.598 227.359 147.559C226.755 147.543 226.454 147.717 226.287 148.313C226.017 149.282 225.659 150.227 225.342 151.18C223.976 152.776 222.475 152.705 221.188 150.99C221.125 150.577 220.958 150.227 221.109 149.735C222.57 144.85 224.428 140.109 225.969 135.257C226.327 134.121 226.819 132.819 228.137 132.461C230.853 131.731 232.815 132.152 233.855 135.13C235.38 139.498 236.873 143.89 238.358 148.273C238.644 149.083 238.851 149.917 238.74 150.783Z" fill="white"/>
<path fill-rule="evenodd" clip-rule="evenodd" d="M185.752 136.615H185.521C184.823 138.958 184.108 141.3 183.425 143.643C183.282 144.144 183.695 144.112 184.012 144.112C185.116 144.12 186.228 144.096 187.332 144.12C187.872 144.128 187.975 143.953 187.817 143.445C187.324 141.848 186.872 140.236 186.395 138.632C186.189 137.965 185.966 137.298 185.752 136.615ZM178.39 152.308C176.873 151.394 176.611 150.767 177.087 149.099C177.214 148.655 177.349 148.202 177.484 147.757C177.627 147.376 177.77 146.987 177.905 146.606C179.39 142.452 180.629 138.203 182.289 134.105C182.623 133.271 183.266 132.652 184.148 132.366C186.586 131.572 188.619 132.477 189.469 134.883C191.089 139.426 192.629 144.001 194.194 148.559C194.464 149.345 194.527 150.163 194.416 150.989C193.439 152.276 192.145 152.641 190.954 152.014C190.62 151.839 190.469 151.569 190.263 151.315C190.072 150.886 189.882 150.465 189.691 150.036C189.516 149.433 189.318 148.837 189.183 148.234C189.063 147.694 188.77 147.551 188.245 147.567C187.054 147.598 185.863 147.582 184.672 147.574C182.154 147.574 182.154 147.574 181.527 150.044C181.439 150.418 181.352 150.791 181.273 151.164L181.288 151.148C180.915 151.172 180.764 151.418 180.677 151.736C180.002 152.276 179.216 152.355 178.39 152.308Z" fill="white"/>
<path d="M758.364 164.689H703.661V168.335H758.364V164.689Z" fill="url(#paint0_linear)"/>
<path d="M712.826 198.561H711.881C710.952 198.561 710.197 197.807 710.197 196.878V191.104H708.744V196.878C708.744 198.609 710.15 200.015 711.881 200.015H712.826C713.231 200.015 713.557 199.689 713.557 199.284C713.549 198.887 713.223 198.561 712.826 198.561Z" fill="#0DB9B3"/>
<path d="M709.491 199.284C709.491 201.127 710.984 202.62 712.827 202.62C714.669 202.62 716.162 201.127 716.162 199.284C716.162 197.442 714.669 195.949 712.827 195.949C710.984 195.949 709.491 197.442 709.491 199.284ZM710.587 199.284C710.587 198.053 711.588 197.053 712.819 197.053C714.05 197.053 715.05 198.053 715.05 199.284C715.05 200.515 714.05 201.516 712.819 201.516C711.588 201.524 710.587 200.523 710.587 199.284Z" fill="#0DB9B3"/>
<path d="M711.516 199.284C711.516 200.007 712.103 200.587 712.818 200.587C713.541 200.587 714.121 199.999 714.121 199.284C714.121 198.562 713.533 197.982 712.818 197.982C712.103 197.982 711.516 198.562 711.516 199.284Z" fill="#0DB9B3"/>
<path d="M756.18 136.965H755.521V162.466H756.18V136.965Z" fill="#0DB9B3"/>
<path d="M706.933 136.965H706.274V162.466H706.933V136.965Z" fill="#0DB9B3"/>
<path d="M756.537 189.381H705.487V191.104H756.537V189.381Z" fill="url(#paint1_linear)"/>
<path d="M758.364 164.69H703.661V189.382H758.364V164.69Z" fill="#0DB9B3"/>
<path d="M756.609 164.689H754.576V189.38H756.609V164.689Z" fill="#EE60A2"/>
<path d="M752.131 164.689H750.098V189.38H752.131V164.689Z" fill="#EE60A2"/>
<path d="M747.659 164.689H745.618V189.38H747.659V164.689Z" fill="#EE60A2"/>
<path d="M743.18 164.689H741.139V189.38H743.18V164.689Z" fill="#EE60A2"/>
<path d="M738.701 164.689H736.66V189.38H738.701V164.689Z" fill="#EE60A2"/>
<path d="M734.229 164.689H732.188V189.38H734.229V164.689Z" fill="#EE60A2"/>
<path d="M729.743 164.689H727.709V189.38H729.743V164.689Z" fill="#EE60A2"/>
<path d="M725.263 164.689H723.23V189.38H725.263V164.689Z" fill="#EE60A2"/>
<path d="M720.784 164.689H718.751V189.38H720.784V164.689Z" fill="#EE60A2"/>
<path d="M716.313 164.689H714.271V189.38H716.313V164.689Z" fill="#EE60A2"/>
<path d="M711.833 164.689H709.792V189.38H711.833V164.689Z" fill="#EE60A2"/>
<path d="M707.355 164.689H705.313V189.381H707.355V164.689Z" fill="#EE60A2"/>
<path d="M760.548 162.466H701.477V164.69H760.548V162.466Z" fill="#EAECF1"/>
<path d="M755.553 143.764H755.395C754.108 143.764 753.06 142.715 753.06 141.429V136.958H757.88V141.429C757.88 142.723 756.84 143.764 755.553 143.764Z" fill="#EEF4FB"/>
<path d="M750.733 143.764H750.574C749.288 143.764 748.239 142.715 748.239 141.429V136.958H753.06V141.429C753.068 142.723 752.02 143.764 750.733 143.764Z" fill="#0DB9B3"/>
<path d="M760.374 143.764H760.215C758.929 143.764 757.88 142.715 757.88 141.429V136.958H762.701V141.429C762.701 142.723 761.661 143.764 760.374 143.764Z" fill="#0DB9B3"/>
<path d="M745.912 143.764H745.753C744.467 143.764 743.418 142.715 743.418 141.429V136.958H748.239V141.429C748.247 142.723 747.199 143.764 745.912 143.764Z" fill="#EEF4FB"/>
<path d="M741.099 143.764H740.94C739.654 143.764 738.605 142.715 738.605 141.429V136.958H743.426V141.429C743.426 142.723 742.386 143.764 741.099 143.764Z" fill="#0DB9B3"/>
<path d="M736.278 143.764H736.12C734.833 143.764 733.785 142.715 733.785 141.429V136.958H738.605V141.429C738.605 142.723 737.565 143.764 736.278 143.764Z" fill="#EEF4FB"/>
<path d="M731.458 143.764H731.299C730.013 143.764 728.972 142.715 728.972 141.429V136.958H733.793V141.429C733.785 142.723 732.745 143.764 731.458 143.764Z" fill="#0DB9B3"/>
<path d="M726.637 143.764H726.478C725.192 143.764 724.144 142.715 724.144 141.429V136.958H728.964V141.429C728.972 142.723 727.924 143.764 726.637 143.764Z" fill="#EEF4FB"/>
<path d="M721.816 143.764H721.658C720.371 143.764 719.323 142.715 719.323 141.429V136.958H724.143V141.429C724.151 142.723 723.103 143.764 721.816 143.764Z" fill="#0DB9B3"/>
<path d="M716.996 143.764H716.837C715.551 143.764 714.502 142.715 714.502 141.429V136.958H719.323V141.429C719.331 142.723 718.291 143.764 716.996 143.764Z" fill="#EEF4FB"/>
<path d="M712.183 143.764H712.024C710.738 143.764 709.689 142.715 709.689 141.429V136.958H714.51V141.429C714.51 142.723 713.47 143.764 712.183 143.764Z" fill="#0DB9B3"/>
<path d="M707.362 143.764H707.203C705.916 143.764 704.868 142.715 704.868 141.429V136.958H709.689V141.429C709.697 142.723 708.648 143.764 707.362 143.764Z" fill="#EEF4FB"/>
<path d="M702.541 143.764H702.382C701.096 143.764 700.047 142.715 700.047 141.429V136.958H704.868V141.429C704.876 142.723 703.828 143.764 702.541 143.764Z" fill="#0DB9B3"/>
<path d="M753.067 136.965C750.414 134.932 747.245 128.705 746.785 126.672C747.928 126.672 749.064 126.672 750.208 126.672C750.771 128.705 754.647 134.932 757.879 136.965C756.275 136.965 754.671 136.965 753.067 136.965Z" fill="white"/>
<path d="M748.246 136.965C746.181 134.932 743.719 128.705 743.362 126.672C744.505 126.672 745.641 126.672 746.785 126.672C747.245 128.705 750.414 134.932 753.067 136.965C751.455 136.965 749.85 136.965 748.246 136.965Z" fill="#78CCCF"/>
<path d="M757.888 136.965C754.647 134.932 750.772 128.705 750.216 126.672C751.359 126.672 752.495 126.672 753.639 126.672C754.298 128.705 758.88 134.932 762.708 136.965C761.096 136.965 759.492 136.965 757.888 136.965Z" fill="#78CCCF"/>
<path d="M743.426 136.965C741.957 134.932 740.194 128.705 739.939 126.672C741.083 126.672 742.219 126.672 743.362 126.672C743.72 128.705 746.182 134.932 748.247 136.965C746.634 136.965 745.03 136.965 743.426 136.965Z" fill="white"/>
<path d="M738.605 136.965C737.723 134.932 736.667 128.705 736.516 126.672C737.66 126.672 738.795 126.672 739.939 126.672C740.193 128.705 741.956 134.932 743.425 136.965C741.821 136.965 740.209 136.965 738.605 136.965Z" fill="#78CCCF"/>
<path d="M733.784 136.965C733.49 134.932 733.141 128.705 733.085 126.672C734.229 126.672 735.364 126.672 736.508 126.672C736.659 128.705 737.715 134.932 738.597 136.965C737 136.965 735.396 136.965 733.784 136.965Z" fill="white"/>
<path d="M728.972 136.965C729.266 134.932 729.615 128.705 729.671 126.672C730.814 126.672 731.95 126.672 733.094 126.672C733.141 128.705 733.499 134.932 733.792 136.965C732.18 136.965 730.576 136.965 728.972 136.965Z" fill="#78CCCF"/>
<path d="M724.15 136.965C725.032 134.932 726.088 128.705 726.247 126.672C727.383 126.672 728.526 126.672 729.67 126.672C729.622 128.705 729.265 134.932 728.971 136.965C727.367 136.965 725.755 136.965 724.15 136.965Z" fill="white"/>
<path d="M719.331 136.965C720.8 134.932 722.563 128.705 722.817 126.672C723.961 126.672 725.096 126.672 726.24 126.672C726.089 128.705 725.033 134.932 724.143 136.965C722.547 136.965 720.935 136.965 719.331 136.965Z" fill="#78CCCF"/>
<path d="M714.51 136.965C716.575 134.932 719.037 128.705 719.394 126.672C720.538 126.672 721.673 126.672 722.817 126.672C722.563 128.705 720.8 134.932 719.33 136.965C717.726 136.965 716.122 136.965 714.51 136.965Z" fill="white"/>
<path d="M709.696 136.965C712.341 134.932 715.518 128.705 715.978 126.672C717.122 126.672 718.258 126.672 719.401 126.672C719.044 128.705 716.574 134.932 714.517 136.965C712.905 136.965 711.301 136.965 709.696 136.965Z" fill="#78CCCF"/>
<path d="M704.875 136.965C708.116 134.932 711.991 128.705 712.547 126.672C713.691 126.672 714.827 126.672 715.97 126.672C715.518 128.705 712.341 134.932 709.696 136.965C708.084 136.965 706.48 136.965 704.875 136.965Z" fill="white"/>
<path d="M700.055 136.965C703.883 134.932 708.466 128.705 709.125 126.672C710.268 126.672 711.404 126.672 712.548 126.672C711.992 128.705 708.116 134.932 704.876 136.965C703.264 136.965 701.659 136.965 700.055 136.965Z" fill="#78CCCF"/>
<path d="M715.709 120.088H747.047C750.685 120.088 753.631 123.035 753.631 126.672H709.125C709.125 123.035 712.071 120.088 715.709 120.088Z" fill="#0DB9B3"/>
<path d="M758.364 167.779C760.135 166.309 763.852 164.157 770.738 163.609C771.055 163.585 771.341 163.824 771.365 164.141C771.389 164.459 771.151 164.745 770.833 164.769C762.947 165.396 759.524 168.144 758.372 169.367V167.779H758.364Z" fill="#0DB9B3"/>
<path d="M767.259 165.809C767.331 165.809 767.402 165.801 767.474 165.785C768.546 165.587 769.689 165.436 770.881 165.34C771.524 165.293 772 164.729 771.953 164.086C771.905 163.442 771.341 162.966 770.698 163.021C769.427 163.125 768.204 163.284 767.053 163.498C766.417 163.617 766.004 164.221 766.123 164.856C766.219 165.42 766.711 165.809 767.259 165.809Z" fill="#0DB9B3"/>
<path d="M743.965 202.262C737.112 202.262 731.544 196.687 731.544 189.841C731.544 182.987 737.12 177.42 743.965 177.42C750.819 177.42 756.386 182.995 756.386 189.841C756.386 196.687 750.811 202.262 743.965 202.262ZM743.965 179.802C738.43 179.802 733.927 184.305 733.927 189.841C733.927 195.376 738.43 199.879 743.965 199.879C749.501 199.879 754.004 195.376 754.004 189.841C753.996 184.305 749.501 179.802 743.965 179.802Z" fill="#0DB9B3"/>
<path d="M743.965 197.814C739.566 197.814 735.992 194.233 735.992 189.841C735.992 185.441 739.566 181.867 743.965 181.867C748.365 181.867 751.939 185.441 751.939 189.841C751.939 194.233 748.365 197.814 743.965 197.814Z" fill="#EFF0F3"/>
<path d="M743.965 196.417C740.336 196.417 737.39 193.463 737.39 189.841C737.39 186.212 740.344 183.266 743.965 183.266C747.595 183.266 750.541 186.22 750.541 189.841C750.541 193.463 747.595 196.417 743.965 196.417Z" fill="#EE60A2"/>
<path d="M749.151 189.841C749.151 192.708 746.832 195.027 743.965 195.027C741.098 195.027 738.779 192.708 738.779 189.841C738.779 186.974 741.098 184.655 743.965 184.655C746.832 184.655 749.151 186.974 749.151 189.841Z" fill="#F393BD"/>
<path d="M747.595 189.841C747.595 191.842 745.967 193.47 743.965 193.47C741.964 193.47 740.336 191.842 740.336 189.841C740.336 187.84 741.964 186.211 743.965 186.211C745.967 186.211 747.595 187.832 747.595 189.841Z" fill="#EE60A2"/>
<path d="M746.285 189.841C746.285 191.12 745.244 192.16 743.966 192.16C742.687 192.16 741.646 191.12 741.646 189.841C741.646 188.562 742.687 187.522 743.966 187.522C745.244 187.522 746.285 188.554 746.285 189.841Z" fill="white"/>
<path d="M600.568 176.03H567.165V178.254H600.568V176.03Z" fill="url(#paint2_linear)"/>
<path d="M572.764 196.702H572.185C571.621 196.702 571.16 196.241 571.16 195.678V192.151H570.271V195.678C570.271 196.734 571.128 197.592 572.185 197.592H572.764C573.01 197.592 573.209 197.393 573.209 197.147C573.209 196.901 573.01 196.702 572.764 196.702Z" fill="#C1CBD7"/>
<path d="M570.724 197.147C570.724 198.275 571.637 199.18 572.757 199.18C573.884 199.18 574.79 198.267 574.79 197.147C574.79 196.02 573.877 195.114 572.757 195.114C571.637 195.114 570.724 196.028 570.724 197.147ZM571.399 197.147C571.399 196.393 572.01 195.781 572.765 195.781C573.519 195.781 574.131 196.393 574.131 197.147C574.131 197.902 573.519 198.513 572.765 198.513C572.01 198.513 571.399 197.902 571.399 197.147Z" fill="#C1CBD7"/>
<path d="M571.961 197.147C571.961 197.584 572.319 197.941 572.756 197.941C573.192 197.941 573.55 197.584 573.55 197.147C573.55 196.71 573.192 196.353 572.756 196.353C572.319 196.353 571.961 196.71 571.961 197.147Z" fill="#C1CBD7"/>
<path d="M599.234 159.098H598.829V174.672H599.234V159.098Z" fill="#C1CBD7"/>
<path d="M569.167 159.098H568.762V174.672H569.167V159.098Z" fill="#C1CBD7"/>
<path d="M599.457 191.103H568.286V192.151H599.457V191.103Z" fill="#C1CBD7"/>
<path d="M600.569 176.03H567.166V191.104H600.569V176.03Z" fill="#C1CBD7"/>
<path d="M599.503 176.029H598.256V191.103H599.503V176.029Z" fill="#EEF4FB"/>
<path d="M596.763 176.029H595.517V191.103H596.763V176.029Z" fill="#EEF4FB"/>
<path d="M594.032 176.029H592.785V191.103H594.032V176.029Z" fill="#EEF4FB"/>
<path d="M591.299 176.029H590.052V191.103H591.299V176.029Z" fill="#EEF4FB"/>
<path d="M588.56 176.029H587.313V191.103H588.56V176.029Z" fill="#EEF4FB"/>
<path d="M585.827 176.029H584.581V191.103H585.827V176.029Z" fill="#EEF4FB"/>
<path d="M583.096 176.029H581.849V191.103H583.096V176.029Z" fill="#EEF4FB"/>
<path d="M580.355 176.029H579.108V191.103H580.355V176.029Z" fill="#EEF4FB"/>
<path d="M577.624 176.029H576.377V191.103H577.624V176.029Z" fill="#EEF4FB"/>
<path d="M574.892 176.029H573.645V191.103H574.892V176.029Z" fill="#EEF4FB"/>
<path d="M572.152 176.029H570.905V191.103H572.152V176.029Z" fill="#EEF4FB"/>
<path d="M569.421 176.03H568.174V191.103H569.421V176.03Z" fill="#EEF4FB"/>
<path d="M601.903 174.671H565.839V176.029H601.903V174.671Z" fill="#EEF4FB"/>
<path d="M598.852 163.251H598.757C597.971 163.251 597.335 162.615 597.335 161.829V159.097H600.274V161.829C600.274 162.615 599.639 163.251 598.852 163.251Z" fill="#EEF4FB"/>
<path d="M595.906 163.251H595.811C595.024 163.251 594.389 162.615 594.389 161.829V159.097H597.336V161.829C597.328 162.615 596.692 163.251 595.906 163.251Z" fill="#C1CBD7"/>
<path d="M601.791 163.251H601.695C600.909 163.251 600.274 162.615 600.274 161.829V159.097H603.212V161.829C603.212 162.615 602.577 163.251 601.791 163.251Z" fill="#C1CBD7"/>
<path d="M592.968 163.251H592.873C592.086 163.251 591.451 162.615 591.451 161.829V159.097H594.39V161.829C594.39 162.615 593.754 163.251 592.968 163.251Z" fill="#EEF4FB"/>
<path d="M590.021 163.251H589.926C589.14 163.251 588.504 162.615 588.504 161.829V159.097H591.443V161.829C591.443 162.615 590.808 163.251 590.021 163.251Z" fill="#C1CBD7"/>
<path d="M587.083 163.251H586.988C586.201 163.251 585.566 162.615 585.566 161.829V159.097H588.504V161.829C588.504 162.615 587.869 163.251 587.083 163.251Z" fill="#EEF4FB"/>
<path d="M584.136 163.251H584.041C583.254 163.251 582.619 162.615 582.619 161.829V159.097H585.558V161.829C585.558 162.615 584.922 163.251 584.136 163.251Z" fill="#C1CBD7"/>
<path d="M581.198 163.251H581.103C580.316 163.251 579.681 162.615 579.681 161.829V159.097H582.628V161.829C582.62 162.615 581.984 163.251 581.198 163.251Z" fill="#EEF4FB"/>
<path d="M578.251 163.251H578.156C577.37 163.251 576.734 162.615 576.734 161.829V159.097H579.673V161.829C579.673 162.615 579.038 163.251 578.251 163.251Z" fill="#C1CBD7"/>
<path d="M575.313 163.251H575.218C574.432 163.251 573.796 162.615 573.796 161.829V159.097H576.735V161.829C576.735 162.615 576.1 163.251 575.313 163.251Z" fill="#EEF4FB"/>
<path d="M572.366 163.251H572.271C571.485 163.251 570.85 162.615 570.85 161.829V159.097H573.788V161.829C573.788 162.615 573.153 163.251 572.366 163.251Z" fill="#C1CBD7"/>
<path d="M569.428 163.251H569.333C568.546 163.251 567.911 162.615 567.911 161.829V159.097H570.858V161.829C570.85 162.615 570.214 163.251 569.428 163.251Z" fill="#EEF4FB"/>
<path d="M566.482 163.251H566.387C565.601 163.251 564.965 162.616 564.965 161.83V159.098H567.904V161.83C567.904 162.616 567.268 163.251 566.482 163.251Z" fill="#C1CBD7"/>
<path d="M597.327 159.098C595.707 157.859 593.777 154.055 593.491 152.816C594.19 152.816 594.889 152.816 595.58 152.816C595.921 154.055 598.288 157.859 600.266 159.098C599.289 159.098 598.312 159.098 597.327 159.098Z" fill="white"/>
<path d="M594.389 159.098C593.134 157.859 591.625 154.055 591.411 152.816C592.11 152.816 592.808 152.816 593.499 152.816C593.777 154.055 595.715 157.859 597.335 159.098C596.35 159.098 595.366 159.098 594.389 159.098Z" fill="#DEE9F6"/>
<path d="M600.274 159.098C598.297 157.859 595.93 154.055 595.588 152.816C596.287 152.816 596.978 152.816 597.677 152.816C598.082 154.055 600.878 157.859 603.213 159.098C602.236 159.098 601.251 159.098 600.274 159.098Z" fill="#DEE9F6"/>
<path d="M591.443 159.098C590.545 157.859 589.465 154.055 589.314 152.816C590.013 152.816 590.704 152.816 591.403 152.816C591.618 154.055 593.127 157.859 594.381 159.098C593.404 159.098 592.428 159.098 591.443 159.098Z" fill="white"/>
<path d="M588.505 159.098C587.965 157.859 587.321 154.055 587.226 152.816C587.925 152.816 588.624 152.816 589.315 152.816C589.474 154.055 590.546 157.859 591.443 159.098C590.466 159.098 589.482 159.098 588.505 159.098Z" fill="#DEE9F6"/>
<path d="M585.558 159.098C585.375 157.859 585.161 154.055 585.129 152.816C585.828 152.816 586.519 152.816 587.218 152.816C587.313 154.055 587.956 157.859 588.496 159.098C587.519 159.098 586.543 159.098 585.558 159.098Z" fill="white"/>
<path d="M582.619 159.098C582.802 157.859 583.016 154.055 583.048 152.816C583.747 152.816 584.446 152.816 585.137 152.816C585.168 154.055 585.383 157.859 585.566 159.098C584.581 159.098 583.596 159.098 582.619 159.098Z" fill="#DEE9F6"/>
<path d="M579.673 159.098C580.213 157.859 580.856 154.055 580.951 152.816C581.65 152.816 582.341 152.816 583.04 152.816C583.008 154.055 582.794 157.859 582.611 159.098C581.634 159.098 580.658 159.098 579.673 159.098Z" fill="white"/>
<path d="M576.734 159.098C577.632 157.859 578.712 154.055 578.863 152.816C579.562 152.816 580.261 152.816 580.951 152.816C580.856 154.055 580.213 157.859 579.673 159.098C578.696 159.098 577.711 159.098 576.734 159.098Z" fill="#DEE9F6"/>
<path d="M573.788 159.098C575.043 157.859 576.552 154.055 576.774 152.816C577.473 152.816 578.164 152.816 578.863 152.816C578.704 154.055 577.632 157.859 576.734 159.098C575.75 159.098 574.773 159.098 573.788 159.098Z" fill="white"/>
<path d="M570.85 159.098C572.47 157.859 574.408 154.055 574.685 152.816C575.384 152.816 576.075 152.816 576.774 152.816C576.56 154.055 575.051 157.859 573.788 159.098C572.811 159.098 571.826 159.098 570.85 159.098Z" fill="#DEE9F6"/>
<path d="M567.904 159.098C569.881 157.859 572.248 154.055 572.59 152.816C573.288 152.816 573.979 152.816 574.678 152.816C574.4 154.055 572.462 157.859 570.842 159.098C569.873 159.098 568.889 159.098 567.904 159.098Z" fill="white"/>
<path d="M564.965 159.098C567.3 157.859 570.096 154.055 570.501 152.816C571.2 152.816 571.899 152.816 572.59 152.816C572.248 154.055 569.881 157.859 567.904 159.098C566.927 159.098 565.942 159.098 564.965 159.098Z" fill="#DEE9F6"/>
<path d="M574.52 148.797H593.659C595.875 148.797 597.678 150.6 597.678 152.816H570.501C570.501 150.592 572.304 148.797 574.52 148.797Z" fill="#C1CBD7"/>
<path d="M600.568 177.912C601.648 177.015 603.92 175.697 608.121 175.363C608.32 175.347 608.486 175.49 608.502 175.689C608.518 175.887 608.375 176.054 608.177 176.07C603.364 176.451 601.267 178.135 600.568 178.873V177.912Z" fill="#C1CBD7"/>
<path d="M606 176.713C606.04 176.713 606.088 176.705 606.128 176.697C606.779 176.578 607.478 176.482 608.208 176.427C608.597 176.395 608.891 176.053 608.86 175.664C608.828 175.275 608.486 174.981 608.097 175.013C607.319 175.077 606.572 175.172 605.873 175.307C605.484 175.378 605.23 175.752 605.302 176.133C605.365 176.474 605.659 176.713 606 176.713Z" fill="#C1CBD7"/>
<path d="M591.776 198.966C587.591 198.966 584.192 195.567 584.192 191.381C584.192 187.196 587.591 183.797 591.776 183.797C595.962 183.797 599.361 187.196 599.361 191.381C599.361 195.567 595.954 198.966 591.776 198.966ZM591.776 185.258C588.401 185.258 585.653 188.006 585.653 191.381C585.653 194.757 588.401 197.504 591.776 197.504C595.152 197.504 597.899 194.757 597.899 191.381C597.899 188.006 595.152 185.258 591.776 185.258Z" fill="#C1CBD7"/>
<path d="M591.776 196.25C589.092 196.25 586.908 194.066 586.908 191.382C586.908 188.697 589.092 186.513 591.776 186.513C594.46 186.513 596.644 188.697 596.644 191.382C596.644 194.066 594.46 196.25 591.776 196.25Z" fill="#EFF0F3"/>
<path d="M591.777 195.4C589.561 195.4 587.758 193.597 587.758 191.381C587.758 189.166 589.561 187.363 591.777 187.363C593.993 187.363 595.795 189.166 595.795 191.381C595.795 193.597 593.993 195.4 591.777 195.4Z" fill="#C1CBD7"/>
<path d="M594.945 191.382C594.945 193.129 593.524 194.55 591.777 194.55C590.029 194.55 588.608 193.129 588.608 191.382C588.608 189.634 590.029 188.213 591.777 188.213C593.524 188.213 594.945 189.634 594.945 191.382Z" fill="#EEF4FB"/>
<path d="M593.993 191.381C593.993 192.604 593 193.597 591.777 193.597C590.554 193.597 589.562 192.604 589.562 191.381C589.562 190.158 590.554 189.166 591.777 189.166C593 189.166 593.993 190.158 593.993 191.381Z" fill="#C1CBD7"/>
<path d="M593.191 191.381C593.191 192.16 592.555 192.795 591.777 192.795C590.999 192.795 590.363 192.16 590.363 191.381C590.363 190.603 590.999 189.968 591.777 189.968C592.555 189.968 593.191 190.603 593.191 191.381Z" fill="white"/>
<path d="M607.161 477.303V474.428C605.088 474.349 604.747 476.437 602.372 476.437C599.823 476.437 599.823 474.46 597.281 474.46C594.74 474.46 594.74 476.437 592.191 476.437C589.641 476.437 589.641 474.46 587.1 474.46C584.558 474.46 584.558 476.437 582.009 476.437C579.635 476.437 579.293 474.349 577.22 474.428V477.303H607.161Z" fill="#C1CBD7"/>
<path d="M608.026 463.572H607.161V477.303H608.026V463.572Z" fill="#C1CBD7"/>
<path d="M577.212 463.572H576.347V477.303H577.212V463.572Z" fill="#C1CBD7"/>
<path d="M609.782 491.86H574.163V492.988H609.782V491.86Z" fill="#C1CBD7"/>
<path d="M610.481 478.757H573.456V491.861H610.481V478.757Z" fill="#DEE9F6"/>
<path d="M603.976 478.756H603.619V491.86H603.976V478.756Z" fill="#C1CBD7"/>
<path d="M600.069 478.756H599.711V491.86H600.069V478.756Z" fill="#C1CBD7"/>
<path d="M596.161 478.756H595.804V491.86H596.161V478.756Z" fill="#C1CBD7"/>
<path d="M592.262 478.756H591.905V491.86H592.262V478.756Z" fill="#C1CBD7"/>
<path d="M588.354 478.756H587.997V491.86H588.354V478.756Z" fill="#C1CBD7"/>
<path d="M584.447 478.756H584.089V491.86H584.447V478.756Z" fill="#C1CBD7"/>
<path d="M580.54 478.756H580.183V491.86H580.54V478.756Z" fill="#C1CBD7"/>
<path d="M576.632 478.756H576.274V491.86H576.632V478.756Z" fill="#C1CBD7"/>
<path d="M607.883 478.756H607.526V491.86H607.883V478.756Z" fill="#C1CBD7"/>
<path d="M610.48 480.344H573.456V480.892H610.48V480.344Z" fill="#C1CBD7"/>
<path d="M610.481 478.757H573.456V480.345H610.481V478.757Z" fill="#DEE9F6"/>
<path d="M572.134 478.759H611.804V477.306H572.134V478.759Z" fill="#DEE9F6"/>
<path d="M612.411 467.162H612.284C611.204 467.162 610.338 466.288 610.338 465.216V463.58H614.364V465.216C614.356 466.288 613.491 467.162 612.411 467.162Z" fill="#C1CBD7"/>
<path d="M608.384 467.162H608.257C607.177 467.162 606.304 466.288 606.304 465.216V463.58H610.33V465.216C610.33 466.288 609.457 467.162 608.384 467.162Z" fill="#EEF4FB"/>
<path d="M604.358 467.162H604.223C603.15 467.162 602.277 466.288 602.277 465.216V463.58H606.303V465.216C606.303 466.288 605.43 467.162 604.358 467.162Z" fill="#C1CBD7"/>
<path d="M600.332 467.162H600.197C599.125 467.162 598.251 466.288 598.251 465.216V463.58H602.277V465.216C602.277 466.288 601.404 467.162 600.332 467.162Z" fill="#EEF4FB"/>
<path d="M596.304 467.162H596.169C595.089 467.162 594.224 466.288 594.224 465.216V463.58H598.25V465.216C598.25 466.288 597.377 467.162 596.304 467.162Z" fill="#C1CBD7"/>
<path d="M592.271 467.162H592.136C591.064 467.162 590.19 466.288 590.19 465.216V463.58H594.216V465.216C594.224 466.288 593.351 467.162 592.271 467.162Z" fill="#EEF4FB"/>
<path d="M588.244 467.162H588.109C587.037 467.162 586.163 466.288 586.163 465.216V463.58H590.19V465.216C590.198 466.288 589.324 467.162 588.244 467.162Z" fill="#C1CBD7"/>
<path d="M584.217 467.162H584.082C583.01 467.162 582.137 466.288 582.137 465.216V463.58H586.163V465.216C586.171 466.288 585.298 467.162 584.217 467.162Z" fill="#EEF4FB"/>
<path d="M580.191 467.162H580.063C578.983 467.162 578.118 466.288 578.118 465.216V463.58H582.144V465.216C582.136 466.288 581.271 467.162 580.191 467.162Z" fill="#C1CBD7"/>
<path d="M576.165 467.162H576.038C574.957 467.162 574.092 466.288 574.092 465.216V463.58H578.118V465.216C578.11 466.288 577.245 467.162 576.165 467.162Z" fill="#EEF4FB"/>
<path d="M572.137 467.162H572.01C570.93 467.162 570.057 466.288 570.057 465.216V463.58H574.083V465.216C574.083 466.288 573.217 467.162 572.137 467.162Z" fill="#C1CBD7"/>
<path d="M610.33 463.571C608.4 460.53 606.566 457.48 604.818 454.438C605.755 454.438 606.685 454.438 607.622 454.438C609.75 457.48 611.998 460.53 614.356 463.571C613.014 463.571 611.672 463.571 610.33 463.571Z" fill="#DEE9F6"/>
<path d="M606.303 463.571C604.802 460.53 603.372 457.48 602.022 454.438C602.959 454.438 603.888 454.438 604.825 454.438C606.573 457.48 608.407 460.53 610.337 463.571C608.987 463.571 607.645 463.571 606.303 463.571Z" fill="white"/>
<path d="M602.277 463.571C601.205 460.53 600.188 457.48 599.219 454.438C600.156 454.438 601.086 454.438 602.023 454.438C603.381 457.48 604.81 460.53 606.303 463.571C604.961 463.571 603.619 463.571 602.277 463.571Z" fill="#DEE9F6"/>
<path d="M598.25 463.571C597.607 460.53 596.995 457.48 596.416 454.438C597.353 454.438 598.282 454.438 599.219 454.438C600.188 457.48 601.204 460.53 602.277 463.571C600.934 463.571 599.592 463.571 598.25 463.571Z" fill="white"/>
<path d="M594.224 463.571C594.009 460.53 593.803 457.48 593.612 454.438C594.549 454.438 595.479 454.438 596.416 454.438C596.996 457.48 597.607 460.53 598.25 463.571C596.908 463.571 595.566 463.571 594.224 463.571Z" fill="#DEE9F6"/>
<path d="M590.197 463.571C590.412 460.53 590.618 457.48 590.809 454.438C591.746 454.438 592.675 454.438 593.612 454.438C593.803 457.48 594.009 460.53 594.224 463.571C592.882 463.571 591.539 463.571 590.197 463.571Z" fill="white"/>
<path d="M586.162 463.571C586.805 460.53 587.417 457.48 587.997 454.438C588.926 454.438 589.863 454.438 590.8 454.438C590.61 457.48 590.403 460.53 590.189 463.571C588.854 463.571 587.512 463.571 586.162 463.571Z" fill="#DEE9F6"/>
<path d="M582.136 463.571C583.208 460.53 584.224 457.48 585.193 454.438C586.131 454.438 587.06 454.438 587.997 454.438C587.417 457.48 586.806 460.53 586.162 463.571C584.82 463.571 583.478 463.571 582.136 463.571Z" fill="white"/>
<path d="M578.11 463.571C579.611 460.53 581.04 457.48 582.39 454.438C583.328 454.438 584.257 454.438 585.194 454.438C584.225 457.48 583.201 460.53 582.136 463.571C580.794 463.571 579.452 463.571 578.11 463.571Z" fill="#DEE9F6"/>
<path d="M574.083 463.571C576.004 460.53 577.847 457.48 579.586 454.438C580.523 454.438 581.452 454.438 582.39 454.438C581.032 457.48 579.602 460.53 578.109 463.571C576.767 463.571 575.425 463.571 574.083 463.571Z" fill="white"/>
<path d="M570.057 463.571C572.415 460.53 574.655 457.48 576.791 454.438C577.728 454.438 578.658 454.438 579.595 454.438C577.856 457.48 576.013 460.53 574.091 463.571C572.741 463.571 571.399 463.571 570.057 463.571Z" fill="#DEE9F6"/>
<path d="M576.776 454.436H607.63V452.53H576.776V454.436Z" fill="#C1CBD7"/>
<path d="M1149.46 273.039C1149.46 286.064 1140.22 296.627 1128.82 296.627C1117.42 296.627 1114.01 284.69 1108.18 273.039C1102.28 261.246 1117.41 249.452 1128.82 249.452C1140.22 249.452 1149.46 260.015 1149.46 273.039Z" fill="#313F7A"/>
<path d="M987.66 554.41C982.323 555.054 976.78 553.783 972.253 550.884C971.252 550.241 970.069 549.494 968.965 549.947C967.599 550.511 967.536 552.449 968.02 553.846C969.1 556.952 971.634 559.318 974.254 561.304C978.924 564.854 984.158 567.657 989.693 569.587C993.053 570.755 997.008 571.541 1000 569.611C1002.29 568.142 1003.46 565.37 1003.66 562.662C1003.86 559.954 1003.23 557.261 1002.6 554.625L987.66 554.41Z" fill="#2D2B2B"/>
<path d="M1130.15 564.362C1127.48 570.533 1114.43 571.906 1114.43 575.306C1117.64 577.974 1121.84 579.427 1126.01 579.316C1133.46 579.118 1139.91 574.265 1145.26 569.079C1146.15 568.214 1147.04 567.3 1147.47 566.133C1148.54 563.163 1146.16 560.145 1143.97 557.873L1130.15 564.362Z" fill="#2D2B2B"/>
<path d="M989.773 348.511C987.526 345.04 985.85 341.204 984.833 337.202C983.134 339.751 982.911 343.222 984.269 345.969C978.043 342.888 970.895 341.705 964.01 342.618C967.941 344.77 972.277 346.192 976.717 346.787C973.222 346.946 969.736 347.113 966.249 347.272C965.646 347.296 964.931 347.399 964.645 347.931C964.28 348.638 964.971 349.408 965.59 349.901C970.498 353.84 975.541 357.858 981.498 359.883C987.462 361.909 994.625 361.567 999.359 357.414L989.773 348.511Z" fill="#F7CDC5"/>
<path d="M1048.22 313.265C1047.45 326.647 1039.31 339.361 1027.49 345.683C1015.67 351.997 1000.57 351.695 989.019 344.913C988.939 350.988 988.86 357.056 988.78 363.131C999.192 365.982 1009.74 368.857 1020.53 368.977C1031.32 369.096 1042.57 366.157 1050.42 358.747C1060.03 349.662 1062.96 335.74 1065.4 322.731L1048.22 313.265Z" fill="#0DB9B3"/>
<path d="M1050.61 396.503C1027.64 450.396 1006.27 500.525 983.284 554.426L1003.7 564.679C1003.7 564.679 1044.25 489.041 1074.81 445.965C1085.46 495.268 1105.72 524.255 1127.59 568.436C1139.61 569.373 1146.03 564.02 1148.36 562.845C1128.69 500.62 1119.74 451.238 1107.23 391.389L1050.61 396.503Z" fill="#CBAED1"/>
<path d="M1113.09 303.441C1117.17 310.184 1119.22 318.078 1119.34 325.956C1119.53 337.853 1115.83 349.686 1115.24 361.519C1114.67 372.717 1114.98 384.114 1115.04 395.296C1093.74 396.058 1072.45 396.821 1051.15 397.575C1049.3 385.623 1047.76 373.631 1046.5 361.607C1045.3 350.091 1042.29 336.407 1043.77 324.884C1045.65 310.168 1055.47 289.328 1071.14 285.62C1085.38 282.244 1101.45 288.113 1110.43 299.597C1111.4 300.82 1112.29 302.107 1113.09 303.441Z" fill="#0DB9B3"/>
<path d="M1084.48 275.176L1087.41 288.542C1087.41 288.542 1079.17 293.609 1073.64 293.149L1071.11 285.993L1084.48 275.176Z" fill="#F7CDC5"/>
<path d="M1051.79 262.429C1051.79 275.954 1055.98 286.922 1066.65 286.922C1077.32 286.922 1090.44 275.954 1090.44 262.429C1090.44 248.904 1081.79 237.937 1071.11 237.937C1054.5 237.937 1051.79 248.904 1051.79 262.429Z" fill="#F7CDC5"/>
<path d="M1065.82 247.499C1062.39 248.372 1059.02 249.302 1055.47 249.754C1052.21 250.167 1050.2 246.617 1050.2 243.639C1050.2 240.74 1051.61 238.048 1053.15 235.586C1052.38 237.143 1053.82 239.057 1055.51 239.446C1057.2 239.835 1058.94 239.192 1060.55 238.556C1067.09 235.999 1078.6 231.409 1085.08 236.682C1088.01 239.072 1090.17 242.615 1091.25 246.22C1092.87 251.716 1092.35 257.64 1091.1 263.239C1089.61 269.95 1087.07 276.518 1082.9 281.974C1078.73 287.438 1072.83 291.735 1066.12 293.212C1063.28 293.839 1060.25 293.942 1057.52 292.958C1051.96 290.948 1050.98 287.637 1051.55 282.284C1051.8 279.997 1052.24 277.709 1052.56 275.43C1052.88 273.191 1052.28 270.649 1052.06 268.394C1052.55 270.117 1054.27 271.404 1056.06 271.372C1057.38 271.356 1058.61 270.705 1059.86 270.308C1061.64 269.744 1063.56 269.704 1065.37 270.141C1067.39 270.625 1068.7 271.697 1070.29 272.913C1071.59 273.905 1073.09 274.763 1074.73 274.85C1077.76 275.009 1079.98 271.618 1081.48 269.402C1083.49 266.416 1085.35 263.208 1085.97 259.658C1086.59 256.108 1085.78 252.129 1083.11 249.699C1079.05 245.99 1072.11 245.95 1067.11 247.173C1066.69 247.284 1066.26 247.388 1065.82 247.499Z" fill="#2D2B2B"/>
<path d="M1086.78 261.929C1087.11 261.032 1088.14 260.817 1088.75 261.421C1089.36 262.016 1089.53 263.192 1089.26 264.129C1088.99 265.058 1088.36 265.757 1087.66 266.17C1086.96 266.575 1086.2 266.734 1085.44 266.861L1086.78 261.929Z" fill="#F7CDC5"/>
<path d="M1156.02 309.803C1156.05 310.057 1156.15 312.725 1156.38 312.82L1138.37 305.697L1136.55 305.014L1133.22 303.767C1133.61 301.813 1133.84 299.828 1134.02 297.85L1155.07 302.568C1155.4 304.974 1155.72 307.388 1156.02 309.803Z" fill="#313F7A"/>
<path d="M1107.11 276.725C1106.43 293.919 1106.72 297.191 1108.4 308.889C1113.01 308.103 1120.73 306.705 1125.4 306.721C1126.94 299.709 1123.66 292.593 1120.07 286.382C1116.48 280.164 1112.35 273.826 1112 266.655C1109.31 268.132 1107.57 271.197 1107.67 274.263L1107.11 276.725Z" fill="#313F7A"/>
<path d="M1150.44 483.196L1196.85 568.197C1196.85 568.197 1194.26 571.708 1191.22 571.072C1188.18 570.437 1132.32 495.085 1132.32 495.085L1150.44 483.196Z" fill="#F7CDC5"/>
<path d="M1195.58 565.879C1195.58 565.879 1200.29 570.207 1201.29 571.732C1202.29 573.257 1180.85 591.713 1180.58 591.435C1177.7 588.378 1188.52 568.468 1188.52 568.468L1195.58 565.879Z" fill="#F7CDC5"/>
<path d="M1186.72 583.081L1187.2 583.303L1186.72 583.081L1187.27 582.533L1186.72 583.081L1182.51 581.087C1183.21 579.364 1183.98 577.617 1184.74 575.996L1190.95 578.633L1190.43 579.149L1190.95 578.633L1191.38 578.816L1190.95 578.633L1199.75 569.937C1200.42 570.652 1201.01 571.303 1201.29 571.732C1202.29 573.256 1180.85 591.713 1180.58 591.435C1180.26 591.086 1180.12 590.498 1180.11 589.768L1186.72 583.081Z" fill="#313F7A"/>
<path d="M1099.87 489.105L1068.87 580.849C1068.87 580.849 1064.55 581.325 1062.94 578.665C1061.34 576.004 1078.83 483.855 1078.83 483.855L1099.87 489.105Z" fill="#F7CDC5"/>
<path d="M1069.73 578.347C1069.73 578.347 1069.74 584.733 1069.29 586.504C1068.85 588.275 1040.75 585.034 1040.77 584.653C1041.07 580.46 1063.03 574.908 1063.03 574.908L1069.73 578.347Z" fill="#F7CDC5"/>
<path d="M1051.08 583.509L1051.23 584.009L1051.08 583.509L1051.85 583.533L1051.08 583.509L1049.69 579.062C1051.43 578.41 1053.24 577.791 1054.95 577.243L1057.22 583.588L1056.49 583.557L1057.22 583.588L1057.38 584.025L1057.22 583.588L1069.58 584.152C1069.52 585.129 1069.43 586.003 1069.31 586.503C1068.86 588.274 1040.77 585.034 1040.79 584.653C1040.82 584.176 1041.17 583.684 1041.7 583.183L1051.08 583.509Z" fill="#313F7A"/>
<path d="M1180.62 380.548C1175.83 381.112 1170.97 381.675 1166.11 382.239C1163.12 364.45 1159.67 355.531 1152.68 338.933C1152.45 356.603 1149.35 365.696 1146.52 383.145C1135.23 382.581 1124.84 381.62 1114 380.889L1108.57 304.322C1108.18 304.433 1107.79 304.544 1107.39 304.608C1105.81 314.321 1105.25 324.256 1104.74 334.136C1104.4 341.021 1103.67 347.915 1104.17 354.8C1104.85 363.33 1105.81 371.851 1106.66 380.381C1109.15 380.548 1111.58 380.667 1114 380.889L1114.28 385.178L1085.49 431.59L1092.77 372.248C1092.77 372.248 1092.09 371.232 1092.77 337.916C1093.22 315.385 1100.28 307.427 1104.79 304.6C1104.85 304.6 1104.85 304.6 1104.85 304.6C1106.54 303.528 1107.9 303.242 1108.35 303.186C1108.41 303.186 1108.46 303.186 1108.52 303.131C1109.65 302.678 1111 302.281 1112.58 302.003C1115.63 301.384 1119.59 301.153 1124.89 301.153C1136.13 301.153 1148.04 303.186 1157.02 310.469C1166.79 318.387 1180.62 365.982 1180.62 380.548Z" fill="#F7CDC5"/>
<path d="M1113.99 380.89C1111.56 380.667 1109.14 380.548 1106.65 380.382C1105.8 371.86 1104.85 363.33 1104.17 354.801C1103.66 347.915 1104.4 341.022 1104.73 334.136C1105.24 324.257 1105.8 314.314 1107.38 304.609C1107.78 304.553 1108.18 304.442 1108.57 304.323L1113.99 380.89Z" fill="#F7CDC5"/>
<path d="M1144.5 368.46C1144.5 368.46 1172.73 404.564 1176.67 520.094H1065.73C1065.73 520.094 1075.58 410.473 1103.8 368.46H1144.5Z" fill="#EA4497"/>
<path d="M1107.24 278.241C1107.45 281.18 1108.03 283.753 1109.03 285.961C1109.03 286.016 1109.03 286.016 1109.03 286.016C1111.66 292.108 1116.95 295.626 1123.42 296.309C1130.72 297.095 1137.59 295.102 1141.53 287.692C1143.22 284.492 1144.42 280.862 1144.79 276.875C1145.27 273.254 1145.68 269.259 1142.69 267.107C1139.64 264.955 1135.44 263.692 1131.88 262.802C1126.63 261.54 1121.16 261.23 1115.81 261.905C1115.39 261.961 1115.02 262.008 1114.66 262.064C1112.03 262.485 1110.72 262.532 1109.41 264.637C1107.99 266.742 1107.62 270.307 1107.36 272.777C1107.08 274.62 1107.03 276.454 1107.24 278.241Z" fill="#F7CDC5"/>
<path d="M1121.2 303.485L1134.78 303.485L1134.78 284.369L1121.2 284.369L1121.2 303.485Z" fill="#F7CDC5"/>
<path d="M1152.67 326.711L1101.74 322.2C1100.36 330.221 1099.7 338.353 1099.85 346.518C1100.07 358.772 1099.76 366.714 1100.54 373.766C1115.61 374.552 1133.14 373.687 1148.21 374.473C1151.1 365.506 1152.94 339.537 1153.1 339.846L1152.68 334.335V326.711H1152.67Z" fill="#EE60A2"/>
<path d="M1112.01 296.873C1112.63 298.12 1113.32 299.47 1113.03 300.884C1112.97 301.281 1112.8 301.678 1112.58 302.012C1111 302.297 1109.64 302.687 1108.51 303.139C1108.46 303.195 1108.4 303.195 1108.34 303.195C1107.89 303.25 1106.33 303.814 1104.84 304.609C1104.84 304.609 1104.84 304.609 1104.79 304.609C1104.44 304.497 1104.17 304.267 1103.94 303.989C1103.6 303.481 1103.54 302.861 1103.32 302.297C1102.98 301.448 1102.3 300.773 1101.96 299.867C1101.16 297.89 1102.52 295.745 1102.92 293.601C1103.32 291.227 1101.62 289.424 1101.85 287.16C1102.01 285.691 1103.03 284.563 1103.77 283.324C1105.53 280.275 1105.24 276.495 1105.53 272.992C1105.98 267.457 1108.5 256.148 1114.09 255.353C1114.43 255.298 1115.4 261.985 1115.8 261.921C1110.83 266.273 1110.04 272.484 1109.48 274.962C1109.26 276.089 1109.08 277.217 1109.03 278.408C1109.03 281.792 1108.97 285.127 1109.26 288.518C1109.53 291.846 1110.38 293.824 1112.01 296.873Z" fill="#313F7A"/>
<path d="M1139.63 417.279C1139.63 422.513 1140.64 427.452 1142.41 431.836L1136.32 434.648C1134.24 429.39 1133.04 423.505 1133.04 417.279C1133.04 409.242 1135 401.991 1138.33 395.995L1154.38 388.037C1145.67 393.287 1139.63 404.405 1139.63 417.279Z" fill="#00CBCA"/>
<path d="M1180.64 380.548C1180.64 380.548 1175.83 385.44 1136.66 399.402L1132.26 391.683L1169.02 373.71L1180.64 380.548Z" fill="#F7CDC5"/>
<path d="M1139.38 397.313C1132.69 404 1130.8 408.575 1128.91 413.515C1127.3 409.504 1125.76 407.741 1125.6 403.476C1125.44 399.219 1126.98 394.685 1130.71 392.024C1133.99 389.681 1138.37 389.125 1142.53 388.657L1139.38 397.313Z" fill="#F7CDC5"/>
<path d="M1137.17 429.565C1140.79 440.168 1148.24 447.474 1156.83 447.474C1168.97 447.474 1178.86 432.917 1178.86 415.008C1178.86 397.107 1168.98 382.542 1156.83 382.542C1155.3 382.542 1153.83 382.812 1152.39 383.256L1153.27 382.915L1152.39 383.256C1151.73 383.463 1151.09 383.717 1150.45 384.003L1137.6 388.983C1142.67 380.953 1148.49 376.681 1156.82 376.681C1172.05 376.681 1184.44 392.946 1184.44 415.008C1184.44 437.062 1172.05 455.011 1156.82 455.011C1145.89 455.011 1136.46 445.743 1131.99 432.377L1137.17 429.565Z" fill="#78CCCF"/>
<path d="M1182.74 460.077L1190.72 414.539H1126.44L1134.42 460.077H1182.74Z" fill="#78CCCF"/>
<path d="M1087.53 322.517C1092.72 329.466 1101.26 333.207 1109.8 334.779C1120.06 336.669 1130.63 335.851 1140.96 334.366C1151.29 332.889 1161.55 330.761 1171.96 330.062C1168.36 325.241 1164.76 320.428 1161.17 315.608C1160.94 315.306 1154.41 317.077 1153.6 317.156C1117.87 320.651 1096.39 314.305 1096.39 314.305C1096.39 314.305 1094.96 314.591 1093.51 315.965C1091.37 318.014 1089.37 320.198 1087.53 322.517Z" fill="#EA4497"/>
<path d="M1173.33 318.832C1172.15 321.262 1169.43 322.787 1166.67 322.898C1163.96 323.065 1161.24 321.937 1159.04 320.301C1157.01 318.832 1155.26 316.855 1152.78 316.235C1150.47 315.671 1147.93 316.521 1145.61 315.894C1143.69 315.385 1142.16 313.916 1141.09 312.224C1140.29 310.93 1140.24 309.175 1139.33 307.991C1138.48 306.864 1136.85 306.355 1135.83 305.339C1132.27 301.503 1134.93 296.19 1134.42 291.727C1133.74 286.024 1133.23 280.378 1131.31 274.898C1130.3 272.079 1127.13 264.844 1120.64 261.572C1127.25 261.572 1131.59 261.238 1137.65 261.238C1143.54 261.238 1143.54 249.444 1153.16 279.981C1153.91 282.347 1153.95 285.175 1154.68 287.66C1155.03 288.733 1155.65 289.86 1156.27 290.988C1157.23 291.663 1157.68 293.021 1157.85 294.204C1158.01 295.785 1157.96 297.476 1158.97 298.723C1159.93 299.851 1161.51 300.193 1162.98 300.645C1164.4 301.042 1165.98 301.773 1166.37 303.242C1166.88 304.878 1165.58 306.633 1166.14 308.269C1166.82 310.302 1169.59 310.469 1171.45 311.541C1173.78 312.963 1174.52 316.354 1173.33 318.832Z" fill="#313F7A"/>
<path d="M227.518 424.928C228.614 426.23 230.274 426.881 231.798 427.636C233.323 428.39 234.88 429.439 235.388 431.067C235.753 432.234 235.507 433.521 235.841 434.688C236.206 435.959 237.199 436.952 237.747 438.159C238.287 439.366 238.12 441.145 236.865 441.558C236.285 441.749 235.658 441.59 235.07 441.431C231.703 440.502 228.264 439.533 225.421 437.508C222.578 435.482 220.41 432.147 220.751 428.668L227.518 424.928Z" fill="#E78B71"/>
<path d="M221.713 432.249C220.831 431.55 219.997 430.788 219.219 429.994C204.916 415.484 195.544 396.209 192.939 376.005C195.568 372.161 198.292 368.413 201.644 365.022C203.415 363.227 205.146 361.456 206.83 359.653C209.744 382.978 216.368 406.811 228.304 427.063C226.104 429.565 224.54 430.47 221.713 432.249Z" fill="#E78B71"/>
<path d="M117.984 428.5C117.984 403.841 121.916 378.149 129.444 359.653L144.899 376.14C135.401 391.094 127.872 408.074 126.625 427.778L117.984 428.5Z" fill="#E78B71"/>
<path d="M212.937 386.838V387.235C212.937 388.292 212.889 389.872 212.849 391.762C212.849 393.216 212.801 394.923 212.762 396.686C212.714 398.267 212.674 399.934 212.627 401.61C212.579 403.278 212.539 404.954 212.492 406.574C212.444 408.329 212.357 410.005 212.317 411.498C212.277 413.515 212.19 415.23 212.142 416.422C212.142 417.605 212.095 418.312 212.095 418.312H147.941C147.941 418.312 147.893 417.653 147.853 416.422C147.806 415.278 147.766 413.61 147.718 411.498C147.671 410.044 147.671 408.377 147.671 406.574C147.671 405.033 147.671 403.365 147.718 401.61C147.718 400.03 147.766 398.402 147.806 396.686C147.893 395.106 147.941 393.438 148.028 391.762C148.068 390.182 148.203 388.514 148.29 386.838C148.377 385.21 148.512 383.59 148.64 381.914C148.775 380.286 148.902 378.619 149.124 376.951C149.251 375.323 149.434 373.703 149.648 372.027C149.648 371.979 149.648 371.979 149.648 371.94C149.648 371.987 149.601 371.987 149.601 372.027C148.457 373.655 147.401 375.275 146.352 376.951C146.265 377.086 146.217 377.173 146.13 377.3L145.733 376.951L140.023 372.027L134.352 367.103L128.682 362.179L125.735 359.63C126.172 358.836 126.617 358.049 127.006 357.255C128.015 355.54 128.944 353.872 129.905 352.291C130.961 350.576 131.97 348.908 132.978 347.368C134.122 345.612 135.266 343.984 136.409 342.444C137.68 340.689 138.958 339.06 140.229 337.52C141.722 335.717 143.263 334.049 144.756 332.596C146.606 330.706 148.449 329.038 150.339 327.632C152.888 325.615 155.438 323.987 158.027 322.708C164.134 319.587 170.289 318.269 176.658 317.657L176.611 318.578H185.704C185.704 318.578 188.079 319.674 191.414 322.708C192.868 323.939 194.448 325.567 196.116 327.632C197.347 329.086 198.53 330.706 199.761 332.596C200.73 334.089 201.699 335.717 202.66 337.52C203.454 339.013 204.24 340.681 204.987 342.444C205.646 343.984 206.305 345.604 206.925 347.368C207.449 348.908 207.981 350.576 208.465 352.291C208.95 353.872 209.387 355.54 209.784 357.255C210.133 358.836 210.49 360.464 210.792 362.179C211.102 363.759 211.364 365.388 211.586 367.103C211.809 368.683 212.023 370.312 212.206 372.027C212.333 373.607 212.468 375.235 212.603 376.951C212.69 378.579 212.778 380.199 212.825 381.914C212.889 383.495 212.937 385.163 212.937 386.838Z" fill="white"/>
<path d="M196.147 327.648H150.363C152.912 325.63 155.461 324.002 158.05 322.724H191.446C192.899 323.955 194.48 325.583 196.147 327.648Z" fill="#00B0B0"/>
<path d="M202.7 337.535H140.261C141.754 335.732 143.295 334.065 144.788 332.611H199.801C200.762 334.104 201.731 335.732 202.7 337.535Z" fill="#00B0B0"/>
<path d="M206.964 347.376H133.01C134.154 345.62 135.298 343.992 136.441 342.452H205.035C205.686 343.992 206.345 345.62 206.964 347.376Z" fill="#00B0B0"/>
<path d="M209.815 357.263H127.03C128.038 355.548 128.968 353.88 129.929 352.3H208.497C208.981 353.88 209.418 355.548 209.815 357.263Z" fill="#00B0B0"/>
<path d="M211.618 367.103H134.368L128.698 362.179H210.824C211.134 363.767 211.396 365.387 211.618 367.103Z" fill="#00B0B0"/>
<path d="M212.627 376.951H145.749L140.039 372.027H212.238C212.365 373.607 212.5 375.235 212.627 376.951Z" fill="#00B0B0"/>
<path d="M212.936 386.838H148.298C148.385 385.21 148.52 383.59 148.647 381.915H212.849C212.889 383.495 212.936 385.163 212.936 386.838Z" fill="#00B0B0"/>
<path d="M212.849 391.754C212.849 393.207 212.801 394.915 212.762 396.678H147.813C147.901 395.097 147.948 393.43 148.036 391.754H212.849Z" fill="#00B0B0"/>
<path d="M212.627 401.602C212.579 403.27 212.54 404.946 212.492 406.566H147.679C147.679 405.025 147.679 403.357 147.726 401.602H212.627Z" fill="#00B0B0"/>
<path d="M212.317 411.49C212.278 413.507 212.19 415.222 212.143 416.414H147.854C147.806 415.27 147.766 413.602 147.719 411.49H212.317Z" fill="#00B0B0"/>
<path d="M126.625 427.771C126.315 429.446 126.871 431.138 127.252 432.798C127.633 434.458 127.824 436.324 126.895 437.745C126.228 438.77 125.084 439.397 124.385 440.398C123.639 441.486 123.504 442.892 122.916 444.075C122.328 445.258 120.851 446.259 119.731 445.56C119.215 445.235 118.937 444.647 118.691 444.091C117.269 440.906 115.824 437.634 115.578 434.148C115.331 430.669 116.531 426.865 119.429 424.919L126.625 427.771Z" fill="#E78B71"/>
<path d="M103.046 569.739C106.024 573.678 108.446 578.022 110.241 582.62C110.9 584.312 111.218 586.71 109.59 587.512C108.256 588.164 106.747 587.123 105.659 586.107C98.3124 579.205 92.6578 570.509 89.3223 560.987C93.595 562.21 97.6373 564.259 101.14 566.999L103.046 569.739Z" fill="#80715C"/>
<path d="M240.09 575.592C245.704 575.044 251.319 574.504 256.942 573.956C257.816 573.868 258.769 573.813 259.476 574.329C260.564 575.131 260.373 576.926 259.444 577.911C258.515 578.895 257.133 579.269 255.822 579.602C247.865 581.627 239.899 583.66 231.941 585.686C230.234 586.122 228.487 586.559 226.731 586.416C224.976 586.273 223.173 585.439 222.332 583.891C221.49 582.342 221.974 580.071 223.586 579.356L240.09 575.592Z" fill="#80715C"/>
<path d="M175.114 318.583H185.748V304.169H175.114V318.583Z" fill="#E78B71"/>
<path d="M164.365 302.957C169.146 311.859 181.241 315.489 189.747 310.922C198.252 306.356 199.936 295.317 195.155 286.414C190.374 277.511 179.605 274.001 171.099 278.567C162.602 283.134 159.584 294.054 164.365 302.957Z" fill="#E78B71"/>
<path d="M170.146 311.899C168.558 311.415 167.248 310.327 165.794 309.533C157.527 305.022 157.598 289.17 159.671 285.127C161.704 281.156 165.739 278.186 169.908 276.78C172.235 275.994 174.896 275.16 177.35 275.16C179.939 275.16 181.694 275.041 184.092 273.786C186.411 272.571 188.913 271.134 191.486 271.642C194.258 272.19 196.212 275.113 196.069 277.932C195.926 280.759 193.98 283.301 191.478 284.619C189.556 285.628 187.404 285.993 185.284 286.303C182.305 286.74 179.947 286.199 177.937 289.066C177.064 290.313 175.674 294.832 176.873 296.238C175.809 294.991 173.371 295.618 173.045 297.223C172.72 298.827 174.713 300.36 176.182 299.629L176.262 311.987C174.244 312.693 172.188 312.519 170.146 311.899Z" fill="#313F7A"/>
<path d="M199.801 294.387C199.992 295.491 199.237 296.547 198.134 296.73C197.022 296.921 195.973 296.166 195.791 295.062C195.608 293.95 196.355 292.902 197.458 292.719C198.562 292.529 199.619 293.283 199.801 294.387Z" fill="#E78B71"/>
<path d="M181.884 286.477C179.756 286.843 178.334 289.042 178.159 291.195C177.985 293.347 178.779 295.444 179.637 297.429C179.073 298.16 177.913 298.175 177.135 297.683C176.357 297.191 175.896 296.325 175.555 295.475C174.832 293.657 174.498 291.608 175.054 289.725C175.61 287.843 177.175 286.199 179.12 285.929L181.884 286.477Z" fill="#313F7A"/>
<path d="M211.976 418.074L242.115 575.663L221.958 582.89L182.472 451.429L159.02 514.67C157.55 517.156 104.626 571.962 104.626 571.962L89.3301 562.075L131.446 504.06L147.544 418.082H211.976V418.074Z" fill="#404D8B"/>
<path d="M115.935 437.952C112.163 446.513 105.69 453.796 97.7884 458.775C93.9048 461.221 89.6957 463.072 85.2879 464.326C81.3965 465.43 77.4097 467.4 78.1324 472.332C80.094 485.714 99.345 470.426 103.689 466.431C107.779 462.675 111.321 458.322 114.164 453.549C114.903 452.31 120.168 439.222 120.129 439.222C118.644 439.294 117.135 438.841 115.935 437.952Z" fill="#E78B71"/>
<path d="M115.507 439.405C115.038 438.277 114.554 437.102 114.609 435.887C114.633 435.235 114.848 434.584 115.229 434.06C115.459 433.742 116.11 433.115 116.317 433.869C116.444 434.338 116.134 434.814 116.539 435.156C117.016 434.743 116.92 433.941 117.175 433.377C117.421 432.829 117.889 432.344 118.485 432.241C119.184 432.122 119.851 432.543 120.431 432.94C120.756 433.17 121.098 433.409 121.312 433.742C122.114 434.973 121.05 437.753 120.375 438.849C119.684 439.969 119.287 441.057 118.008 441.7L115.507 439.405Z" fill="#E78B71"/>
<path d="M53.727 531.784C48.4457 547.803 34.0392 560.454 17.4726 563.623C16.6546 562.075 15.8366 560.526 15.0186 558.977C30.8466 552.854 41.7745 535.882 40.8056 518.935L53.727 531.784Z" fill="#E78B71"/>
<path d="M91.1569 540.814C94.5004 554.871 92.7691 569.81 88.1787 583.509C87.4401 585.717 86.5665 587.989 84.8352 589.545C83.1039 591.102 80.2686 591.666 78.4579 590.196C86.368 572.629 83.9616 550.845 72.4062 535.438L91.1569 540.814Z" fill="#E78B71"/>
<path d="M68.5724 462.699L76.7417 463.679L78.0186 453.034L69.8493 452.054L68.5724 462.699Z" fill="#E78B71"/>
<path d="M57.1027 444.019C58.3257 453.756 66.7996 460.705 76.0439 459.546C85.2802 458.386 91.7766 449.555 90.5536 439.818C89.3306 430.081 80.8566 423.132 71.6203 424.292C62.384 425.451 55.8876 434.291 57.1027 444.019Z" fill="#E78B71"/>
<path d="M88.6787 442.535C88.7343 443.702 89.727 444.6 90.8945 444.544C92.0619 444.488 92.9594 443.496 92.9038 442.328C92.8482 441.161 91.8554 440.263 90.688 440.319C89.5206 440.382 88.6231 441.375 88.6787 442.535Z" fill="#E78B71"/>
<path d="M42.0766 493.767C47.1912 482.593 53.7829 466.256 64.4408 462.206C65.3779 461.849 66.3151 461.579 67.2443 461.372L78.1801 462.682C81.3569 464.382 84.0889 467.32 86.0584 471.49C90.0135 479.876 91.9116 489.105 93.8255 498.119C96.9149 512.66 97.8758 527.559 98.7336 542.363C74.0425 544.563 48.8192 540.449 26.1056 530.529C25.8594 530.426 25.6212 530.315 25.375 530.212C25.3829 530.22 40.5598 497.078 42.0766 493.767Z" fill="#EA4497"/>
<path d="M87.1784 426.817C88.3935 427.493 89.6483 428.406 89.9263 429.772C90.5775 432.941 87.1149 433.147 85.1692 433.925C82.1116 435.148 79.7687 437.372 77.9818 440.112C75.8852 443.321 74.543 446.966 72.637 450.301C67.8639 458.656 59.0882 464.922 49.4866 465.486C39.8849 466.05 29.91 460.221 26.7571 451.135C25.8914 448.657 25.534 445.925 26.2488 443.392C26.9636 440.859 28.8776 438.587 31.4189 437.912C35.4216 436.848 39.3608 439.802 43.4905 440.144C53.6004 440.978 56.6342 429.335 64.2186 425.507C71.2472 421.957 80.4597 423.061 87.1784 426.817Z" fill="#221F1F"/>
<path d="M23.1589 491.495C29.6554 484.761 38.2405 480.162 47.3736 478.209C51.8607 477.248 56.4511 476.97 61.0255 477.311C65.06 477.613 69.4836 477.145 70.5081 472.268C73.2798 459.029 49.9388 466.741 44.4827 468.988C39.3523 471.109 34.5237 473.968 30.2113 477.462C29.0915 478.368 19.6328 488.835 19.6725 488.851C21.0861 489.296 22.3409 490.249 23.1589 491.495Z" fill="#E78B71"/>
<path d="M85.5426 588.99C87.8934 589.585 90.2362 590.189 92.587 590.784C93.4765 591.015 94.5248 591.388 94.7313 592.285C94.8663 592.873 94.5566 593.5 94.088 593.89C93.6194 594.279 93.0317 594.477 92.444 594.644C89.0926 595.589 85.5426 595.716 82.0958 595.232C81.1508 595.097 80.1978 594.914 79.3639 594.453C78.53 593.993 77.8311 593.207 77.6802 592.269C77.5293 591.324 78.0614 590.26 78.9827 589.998L85.5426 588.99Z" fill="#E72790"/>
<path d="M18.0604 563.115C17.3377 565.815 16.615 568.523 15.8923 571.223C15.7256 571.859 15.5032 572.558 14.9393 572.883C14.2484 573.288 13.3192 572.931 12.8188 572.319C12.3185 571.7 12.1359 570.89 11.977 570.112C11.7308 568.936 11.4846 567.761 11.2384 566.585C10.9843 565.37 10.7222 564.131 10.7937 562.893C10.8652 561.654 11.294 560.383 12.2232 559.557C13.1524 558.731 14.6296 558.469 15.67 559.152L18.0604 563.115Z" fill="#E72790"/>
<path d="M23.7075 490.59C23.8583 491.805 24.0013 493.06 23.628 494.22C23.2548 495.379 22.1985 496.419 20.9755 496.356C20.4513 496.785 20.1654 497.436 19.6889 497.92C19.2124 498.405 18.3626 498.675 17.8861 498.198C17.5923 497.905 17.5605 497.452 17.5446 497.039C17.4731 495.165 17.4414 493.235 18.0608 491.464C18.6803 489.693 20.078 488.073 21.9205 487.707L23.7075 490.59Z" fill="#E78B71"/>
<path d="M985.206 364.133L979.187 367.238L972.468 334.343L978.488 331.238L985.206 364.133Z" fill="#2D2B2B"/>
<path d="M915.414 488.454H729.575V494.807H915.414V488.454Z" fill="#EA4497"/>
<path d="M729.575 306.587V492.425H735.929V306.587H729.575Z" fill="#EA4497"/>
<path d="M910.649 350.267V494.808H915.589V350.267H910.649Z" fill="#EA4497"/>
<defs>
<linearGradient id="paint0_linear" x1="731.014" y1="168.336" x2="731.014" y2="164.692" gradientUnits="userSpaceOnUse">
<stop stop-color="white"/>
<stop offset="0.2949" stop-color="#FCFEFE"/>
<stop offset="0.4955" stop-color="#F3FAFA"/>
<stop offset="0.6681" stop-color="#E4F4F5"/>
<stop offset="0.8248" stop-color="#CEEBEC"/>
<stop offset="0.9696" stop-color="#B3E0E2"/>
<stop offset="1" stop-color="#ACDDDF"/>
</linearGradient>
<linearGradient id="paint1_linear" x1="731.014" y1="191.103" x2="731.014" y2="189.381" gradientUnits="userSpaceOnUse">
<stop stop-color="#CACDD2"/>
<stop offset="0.3744" stop-color="#C7CACF"/>
<stop offset="0.6212" stop-color="#BFC2C6"/>
<stop offset="0.8305" stop-color="#B0B3B8"/>
<stop offset="1" stop-color="#9EA1A5"/>
</linearGradient>
<linearGradient id="paint2_linear" x1="583.868" y1="178.253" x2="583.868" y2="176.028" gradientUnits="userSpaceOnUse">
<stop stop-color="white"/>
<stop offset="0.2949" stop-color="#FCFEFE"/>
<stop offset="0.4955" stop-color="#F3FAFA"/>
<stop offset="0.6681" stop-color="#E4F4F5"/>
<stop offset="0.8248" stop-color="#CEEBEC"/>
<stop offset="0.9696" stop-color="#B3E0E2"/>
<stop offset="1" stop-color="#ACDDDF"/>
</linearGradient>
</defs>
</svg>
