<svg width="1240" height="603" viewBox="0 0 1240 603" fill="none" xmlns="http://www.w3.org/2000/svg">
<path d="M1037.25 132.668H1007.82V67.0129C1007.36 66.7508 1006.9 66.4887 1006.45 66.2267H997.675V66.1949H946.625V66.2267H946.586V76.0666H946.625V82.833H946.586V92.6729H946.625V99.4632H946.586V109.303H946.625V109.335L941.217 109.303V57.8242H883.933V64.3444H883.901V74.1844H883.933V82.833H883.901V92.6729H883.933V99.4632H883.901V109.303H883.933V115.585H883.901V125.425H883.933V131.707H883.901V141.547H883.933V147.464H883.901V153.714H883.933V154.397H819.366V210.72H795.246V224.904H769.237V200.483H722.452V134.105H715.137V127.49H714.089V134.105H708.021V134.097H677.676V127.498H676.627V134.097H668.717V167.477L629.413 167.294V187.895H596.089V60.5324H497.365V196.981H467.217V123.201H368.493V600.536L1043.09 597.963L1037.25 132.668Z" fill="#DEE9F6"/>
<path d="M368.588 210.115V254.851V321.404V597.271H284.484V321.404V254.851V210.115H368.588Z" fill="#DEE9F6"/>
<path d="M596.081 60.5332H522.762V82.1191H596.081V60.5332Z" fill="#EEF4FB"/>
<path d="M596.081 93.7598H522.762V115.346H596.081V93.7598Z" fill="#EEF4FB"/>
<path d="M596.081 127.688H522.762V149.273H596.081V127.688Z" fill="#EEF4FB"/>
<path d="M596.081 162.148H522.762V183.734H596.081V162.148Z" fill="#EEF4FB"/>
<path d="M596.081 195.4H522.762V216.986H596.081V195.4Z" fill="#EEF4FB"/>
<path d="M920.608 57.832H883.949V70.944H920.608V57.832Z" fill="#EEF4FB"/>
<path d="M920.608 78.0137H883.948V91.1256H920.608V78.0137Z" fill="#EEF4FB"/>
<path d="M920.608 98.6152H883.948V111.727H920.608V98.6152Z" fill="#EEF4FB"/>
<path d="M920.608 119.541H883.948V132.652H920.608V119.541Z" fill="#EEF4FB"/>
<path d="M920.608 139.736H883.948V152.848H920.608V139.736Z" fill="#EEF4FB"/>
<path d="M920.608 161.967H883.949V175.079H920.608V161.967Z" fill="#EEF4FB"/>
<path d="M920.608 182.146H883.948V195.258H920.608V182.146Z" fill="#EEF4FB"/>
<path d="M920.608 202.746H883.948V215.858H920.608V202.746Z" fill="#EEF4FB"/>
<path d="M920.608 223.682H883.948V236.794H920.608V223.682Z" fill="#EEF4FB"/>
<path d="M920.608 243.869H883.948V256.981H920.608V243.869Z" fill="#EEF4FB"/>
<path d="M983.356 66.4258H946.696V79.5377H983.356V66.4258Z" fill="#EEF4FB"/>
<path d="M983.356 86.6133H946.696V99.7252H983.356V86.6133Z" fill="#EEF4FB"/>
<path d="M983.356 107.215H946.696V120.327H983.356V107.215Z" fill="#EEF4FB"/>
<path d="M983.356 128.143H946.696V141.255H983.356V128.143Z" fill="#EEF4FB"/>
<path d="M983.356 148.338H946.696V161.45H983.356V148.338Z" fill="#EEF4FB"/>
<path d="M983.356 169.391H946.696V182.503H983.356V169.391Z" fill="#EEF4FB"/>
<path d="M983.356 189.57H946.696V202.682H983.356V189.57Z" fill="#EEF4FB"/>
<path d="M983.356 210.172H946.696V223.284H983.356V210.172Z" fill="#EEF4FB"/>
<path d="M983.356 231.107H946.696V244.219H983.356V231.107Z" fill="#EEF4FB"/>
<path d="M983.356 251.305H946.696V264.417H983.356V251.305Z" fill="#EEF4FB"/>
<path d="M983.356 274.461H946.696V287.573H983.356V274.461Z" fill="#EEF4FB"/>
<path d="M983.356 294.643H946.696V307.755H983.356V294.643Z" fill="#EEF4FB"/>
<path d="M983.356 315.242H946.696V328.354H983.356V315.242Z" fill="#EEF4FB"/>
<path d="M983.356 336.17H946.696V349.282H983.356V336.17Z" fill="#EEF4FB"/>
<path d="M983.356 356.365H946.696V369.477H983.356V356.365Z" fill="#EEF4FB"/>
<path d="M833.207 128.143H831.389V154.891H833.207V128.143Z" fill="#DEE9F6"/>
<path d="M864.864 105.166H862.037V156.97H864.864V105.166Z" fill="#DEE9F6"/>
<path d="M505.091 50.9941H503.916V60.5322H505.091V50.9941Z" fill="#DEE9F6"/>
<path d="M530.085 50.9941H528.909V60.5322H530.085V50.9941Z" fill="#DEE9F6"/>
<path d="M587.378 50.9941H586.202V60.5322H587.378V50.9941Z" fill="#DEE9F6"/>
<path d="M890.531 50.4707H889.618V57.8328H890.531V50.4707Z" fill="#DEE9F6"/>
<path d="M933.545 50.4707H932.631V57.8328H933.545V50.4707Z" fill="#DEE9F6"/>
<path d="M564.981 50.9941H563.806V60.5322H564.981V50.9941Z" fill="#DEE9F6"/>
<path d="M789.766 598.424H559.335C528.822 598.424 504.091 573.693 504.091 543.181V59.2062C504.091 28.6937 528.822 3.96289 559.335 3.96289H789.758C820.271 3.96289 845.002 28.6937 845.002 59.2062V543.181C845.01 573.693 820.271 598.424 789.766 598.424Z" fill="white"/>
<path d="M813.41 602.395H535.692C516.084 602.395 500.129 586.44 500.129 566.831V35.5635C500.129 15.9551 516.084 0 535.692 0H813.41C833.018 0 848.973 15.9551 848.973 35.5635V566.823C848.973 586.44 833.018 602.395 813.41 602.395ZM535.692 7.93387C520.452 7.93387 508.063 20.3311 508.063 35.5635V566.823C508.063 582.064 520.46 594.453 535.692 594.453H813.41C828.642 594.453 841.039 582.056 841.039 566.823V35.5635C841.039 20.3231 828.642 7.93387 813.41 7.93387H535.692Z" fill="#0DB9B3"/>
<path d="M633.972 71.8965H519.912V120.301H633.972V71.8965Z" fill="#DCE8F6"/>
<path d="M633.972 136.234H519.912V184.639H633.972V136.234Z" fill="#DCE8F6"/>
<path d="M713.865 185.297V71.2363H661.798V185.297H713.865Z" fill="#DCE8F6"/>
<path d="M674.924 360.312C682.919 331.447 665.999 301.566 637.133 293.571C608.268 285.577 578.387 302.496 570.392 331.362C562.398 360.228 579.317 390.109 608.183 398.103C637.049 406.098 666.93 389.178 674.924 360.312Z" fill="#DCE8F6"/>
<path d="M830.627 345.842H519.912V354.26H830.627V345.842Z" fill="#DCE8F6"/>
<path d="M822.209 197.998H519.912V206.424H822.209V197.998Z" fill="#DCE8F6"/>
<path d="M629.918 494.049V206.055H621.5V494.049H629.918Z" fill="#DCE8F6"/>
<path d="M830.634 354.036V66.041H822.215V354.036H830.634Z" fill="#DCE8F6"/>
<path d="M735.573 494.048V71.9004H727.155V494.048H735.573Z" fill="#DCE8F6"/>
<path d="M656.804 358.959C664.031 340.127 654.624 319.001 635.791 311.773C616.959 304.545 595.833 313.953 588.605 332.786C581.378 351.618 590.785 372.744 609.618 379.971C628.45 387.199 649.576 377.791 656.804 358.959Z" fill="white"/>
<path d="M682.631 216.732H640.968V281.426H682.631V216.732Z" fill="#DCE8F6"/>
<path d="M560.518 265.414H519.912V311.905H560.518V265.414Z" fill="#DCE8F6"/>
<path d="M601.625 216.732H519.912V257.338H601.625V216.732Z" fill="#DCE8F6"/>
<path d="M718.799 216.732H689.66V256.949H718.799V216.732Z" fill="#DCE8F6"/>
<path d="M718.799 265.414H689.66V332.618H718.799V265.414Z" fill="#DCE8F6"/>
<path d="M718.799 362.234H689.66V402.023H718.799V362.234Z" fill="#DCE8F6"/>
<path d="M777.798 216.732H754.291V332.619H777.798V216.732Z" fill="#DCE8F6"/>
<path d="M814.577 216.732H785.438V332.619H814.577V216.732Z" fill="#DCE8F6"/>
<path d="M812.234 70.3242H770.762V186.212H812.234V70.3242Z" fill="#DCE8F6"/>
<path d="M830.628 366.475H749.828V494.045H830.628V366.475Z" fill="#DCE8F6"/>
<path d="M718.799 445.799H638.38V494.045H718.799V445.799Z" fill="#DCE8F6"/>
<path d="M718.799 411.123H638.38V436.696H718.799V411.123Z" fill="#DCE8F6"/>
<path d="M592.142 411.123H519.912V494.044H592.142V411.123Z" fill="#DCE8F6"/>
<path d="M550.321 358.771H519.912V403.452H550.321V358.771Z" fill="#DCE8F6"/>
<path d="M790.648 563.035C772.342 563.035 755.649 553.314 746.381 537.852C733.928 517.092 710.896 503.146 684.53 503.146H519.912V564.68C519.912 575.155 528.584 583.652 539.282 583.652H737.962H756.213H814.966C823.615 583.652 830.635 576.782 830.635 568.308V563.027H790.648V563.035Z" fill="#EA4497"/>
<path d="M768.864 529.4C768.864 517.21 778.744 507.322 790.943 507.322C803.133 507.322 813.021 517.202 813.021 529.4C813.021 541.599 803.133 551.478 790.943 551.478C778.744 551.478 768.864 541.591 768.864 529.4Z" fill="#EA4497"/>
<path d="M777.933 530.418L799.241 519.768L792.673 543.252L787.431 534.27L777.933 530.418Z" fill="white"/>
<path d="M706.807 548.191H585.996V553.354H706.807V548.191Z" fill="white"/>
<path d="M585.995 548.191H530.927V553.354H585.995V548.191Z" fill="#F393BD"/>
<path d="M576.768 533L618.002 551.155L575.894 569.953L582.629 551.481L576.768 533Z" fill="#0DB9B3"/>
<path d="M714.192 550.773C714.192 546.031 718.036 542.188 722.777 542.188C727.519 542.188 731.363 546.031 731.363 550.773C731.363 555.514 727.519 559.357 722.777 559.357C718.036 559.357 714.192 555.514 714.192 550.773Z" fill="white"/>
<path d="M840.991 52.2013H508.158C508.158 27.8755 504.592 1.88983 554.737 6.10694H799.48C845.701 1.88189 840.991 27.8755 840.991 52.2013Z" fill="#0DB9B3"/>
<path d="M1239.62 599.536V600.275C1239.62 601.506 1238.99 602.515 1238.23 602.515H4.76482C4.0024 602.515 3.375 601.506 3.375 600.275V599.536C3.375 598.306 4.0024 597.297 4.76482 597.297H1238.22C1238.99 597.297 1239.62 598.306 1239.62 599.536Z" fill="#BABABA"/>
<path d="M1236.24 596.161V596.9C1236.24 598.131 1235.61 599.139 1234.85 599.139H1.38982C0.627404 599.139 0 598.131 0 596.9V596.161C0 594.93 0.627404 593.922 1.38982 593.922H1234.85C1235.62 593.914 1236.24 594.922 1236.24 596.161Z" fill="#BABABA"/>
<path d="M735.547 354.356H667.057L667.128 351.314C667.128 351.195 667.327 338.989 662.181 326.877C655.486 311.113 643.184 302.845 625.616 302.297C611.337 301.853 600.076 305.704 592.158 313.734C578.101 327.997 578.99 351.013 578.998 351.243L579.141 354.356H576.028H456.853L312.995 244.362H215.35V238.413H315.004L458.862 348.408H573.05C573.264 341.085 575.122 322.565 587.885 309.588C597.01 300.304 609.773 295.849 625.799 296.349C650.911 297.127 662.466 312.217 667.732 324.733C671.766 334.327 672.767 343.73 673.005 348.408H729.599V229.066H735.547V354.356Z" fill="#EA4497"/>
<path d="M720.196 222.418C720.196 215.58 725.739 210.037 732.577 210.037C739.415 210.037 744.958 215.58 744.958 222.418C744.958 229.256 739.415 234.8 732.577 234.8C725.739 234.792 720.196 229.248 720.196 222.418Z" fill="white"/>
<path d="M732.577 237.112C724.476 237.112 717.885 230.52 717.885 222.419C717.885 214.319 724.476 207.727 732.577 207.727C740.678 207.727 747.269 214.319 747.269 222.419C747.269 230.52 740.678 237.112 732.577 237.112ZM732.577 212.349C727.026 212.349 722.507 216.868 722.507 222.419C722.507 227.971 727.026 232.49 732.577 232.49C738.128 232.49 742.647 227.971 742.647 222.419C742.639 216.868 738.128 212.349 732.577 212.349Z" fill="#EA4497"/>
<path d="M215.581 253.821C222.419 253.821 227.962 248.278 227.962 241.44C227.962 234.602 222.419 229.059 215.581 229.059C208.743 229.059 203.2 234.602 203.2 241.44C203.2 248.278 208.743 253.821 215.581 253.821Z" fill="white"/>
<path d="M215.581 256.139C207.48 256.139 200.888 249.547 200.888 241.447C200.888 233.346 207.48 226.754 215.581 226.754C223.681 226.754 230.273 233.346 230.273 241.447C230.273 249.547 223.681 256.139 215.581 256.139ZM215.581 231.377C210.029 231.377 205.51 235.895 205.51 241.447C205.51 246.998 210.029 251.517 215.581 251.517C221.132 251.517 225.651 246.998 225.651 241.447C225.643 235.895 221.132 231.377 215.581 231.377Z" fill="#EA4497"/>
<path d="M564.401 350.051C564.401 343.213 569.945 337.67 576.783 337.67C583.621 337.67 589.164 343.213 589.164 350.051C589.164 356.889 583.621 362.433 576.783 362.433C569.945 362.433 564.401 356.889 564.401 350.051Z" fill="white"/>
<path d="M576.782 364.744C568.682 364.744 562.09 358.152 562.09 350.051C562.09 341.951 568.682 335.359 576.782 335.359C584.883 335.359 591.475 341.951 591.475 350.051C591.475 358.152 584.883 364.744 576.782 364.744ZM576.782 339.981C571.231 339.981 566.712 344.5 566.712 350.051C566.712 355.603 571.231 360.121 576.782 360.121C582.334 360.121 586.852 355.603 586.852 350.051C586.844 344.5 582.326 339.981 576.782 339.981Z" fill="#EA4497"/>
<path d="M915.255 352.3C922.093 352.3 927.636 346.756 927.636 339.918C927.636 333.08 922.093 327.537 915.255 327.537C908.417 327.537 902.874 333.08 902.874 339.918C902.874 346.756 908.417 352.3 915.255 352.3Z" fill="white"/>
<path d="M915.255 354.619C907.154 354.619 900.562 348.027 900.562 339.926C900.562 331.826 907.154 325.234 915.255 325.234C923.356 325.234 929.947 331.826 929.947 339.926C929.947 348.027 923.356 354.619 915.255 354.619ZM915.255 329.856C909.704 329.856 905.185 334.375 905.185 339.926C905.185 345.478 909.704 349.996 915.255 349.996C920.806 349.996 925.325 345.478 925.325 339.926C925.317 334.367 920.806 329.856 915.255 329.856Z" fill="#EA4497"/>
<path d="M554.45 40.0907L550.376 43.0133L546.286 40.1224C547.191 38.8438 548.692 38.002 550.376 38.002C552.059 38.002 553.544 38.8279 554.45 40.0907Z" fill="white"/>
<path d="M550.376 30.877C546.286 30.877 542.664 32.9102 540.472 36.0233L543.053 37.8341C544.681 35.531 547.358 34.0379 550.376 34.0379C553.37 34.0379 556.03 35.5151 557.658 37.7864L560.231 35.9439C558.032 32.8704 554.434 30.877 550.376 30.877Z" fill="white"/>
<path d="M550.376 17.3438C541.711 17.3438 534.056 21.6483 529.417 28.232L531.999 30.0427C536.073 24.2849 542.792 20.5047 550.376 20.5047C557.897 20.5047 564.576 24.2214 568.658 29.9078L571.223 28.0653C566.577 21.5768 558.969 17.3438 550.376 17.3438Z" fill="white"/>
<path d="M550.375 24.7539C544.212 24.7539 538.748 27.8036 535.429 32.4733L538.01 34.2841C540.766 30.4323 545.277 27.9147 550.375 27.9147C555.426 27.9147 559.913 30.3926 562.677 34.1888L565.242 32.3542C561.907 27.748 556.49 24.7539 550.375 24.7539Z" fill="white"/>
<path d="M717.702 155.246C717.702 147.034 724.357 140.371 732.577 140.371C740.789 140.371 747.452 147.026 747.452 155.246C747.452 163.457 740.797 170.121 732.577 170.121C724.357 170.121 717.702 163.457 717.702 155.246Z" fill="white"/>
<path d="M758.364 164.689H703.661V168.335H758.364V164.689Z" fill="url(#paint0_linear)"/>
<path d="M712.826 198.561H711.881C710.952 198.561 710.197 197.807 710.197 196.878V191.104H708.744V196.878C708.744 198.609 710.15 200.015 711.881 200.015H712.826C713.231 200.015 713.557 199.689 713.557 199.284C713.549 198.887 713.223 198.561 712.826 198.561Z" fill="#0DB9B3"/>
<path d="M709.491 199.284C709.491 201.127 710.984 202.62 712.827 202.62C714.669 202.62 716.162 201.127 716.162 199.284C716.162 197.442 714.669 195.949 712.827 195.949C710.984 195.949 709.491 197.442 709.491 199.284ZM710.587 199.284C710.587 198.053 711.588 197.053 712.819 197.053C714.05 197.053 715.05 198.053 715.05 199.284C715.05 200.515 714.05 201.516 712.819 201.516C711.588 201.524 710.587 200.523 710.587 199.284Z" fill="#0DB9B3"/>
<path d="M711.516 199.284C711.516 200.007 712.103 200.587 712.818 200.587C713.541 200.587 714.121 199.999 714.121 199.284C714.121 198.562 713.533 197.982 712.818 197.982C712.103 197.982 711.516 198.562 711.516 199.284Z" fill="#0DB9B3"/>
<path d="M756.18 136.965H755.521V162.466H756.18V136.965Z" fill="#0DB9B3"/>
<path d="M706.933 136.965H706.274V162.466H706.933V136.965Z" fill="#0DB9B3"/>
<path d="M756.537 189.381H705.487V191.104H756.537V189.381Z" fill="url(#paint1_linear)"/>
<path d="M758.364 164.689H703.661V189.381H758.364V164.689Z" fill="#0DB9B3"/>
<path d="M756.609 164.689H754.576V189.38H756.609V164.689Z" fill="#EE60A2"/>
<path d="M752.131 164.689H750.098V189.38H752.131V164.689Z" fill="#EE60A2"/>
<path d="M747.659 164.689H745.618V189.38H747.659V164.689Z" fill="#EE60A2"/>
<path d="M743.18 164.689H741.139V189.38H743.18V164.689Z" fill="#EE60A2"/>
<path d="M738.701 164.689H736.66V189.38H738.701V164.689Z" fill="#EE60A2"/>
<path d="M734.229 164.689H732.188V189.38H734.229V164.689Z" fill="#EE60A2"/>
<path d="M729.743 164.689H727.709V189.38H729.743V164.689Z" fill="#EE60A2"/>
<path d="M725.263 164.689H723.23V189.38H725.263V164.689Z" fill="#EE60A2"/>
<path d="M720.784 164.689H718.751V189.38H720.784V164.689Z" fill="#EE60A2"/>
<path d="M716.313 164.689H714.271V189.38H716.313V164.689Z" fill="#EE60A2"/>
<path d="M711.833 164.689H709.792V189.38H711.833V164.689Z" fill="#EE60A2"/>
<path d="M707.355 164.689H705.313V189.381H707.355V164.689Z" fill="#EE60A2"/>
<path d="M760.548 162.467H701.477V164.691H760.548V162.467Z" fill="#EAECF1"/>
<path d="M755.553 143.763H755.395C754.108 143.763 753.06 142.714 753.06 141.428V136.957H757.88V141.428C757.88 142.722 756.84 143.763 755.553 143.763Z" fill="#EEF4FB"/>
<path d="M750.733 143.763H750.574C749.288 143.763 748.239 142.714 748.239 141.428V136.957H753.06V141.428C753.068 142.722 752.02 143.763 750.733 143.763Z" fill="#0DB9B3"/>
<path d="M760.374 143.763H760.215C758.929 143.763 757.88 142.714 757.88 141.428V136.957H762.701V141.428C762.701 142.722 761.661 143.763 760.374 143.763Z" fill="#0DB9B3"/>
<path d="M745.912 143.763H745.753C744.467 143.763 743.418 142.714 743.418 141.428V136.957H748.239V141.428C748.247 142.722 747.199 143.763 745.912 143.763Z" fill="#EEF4FB"/>
<path d="M741.099 143.763H740.94C739.654 143.763 738.605 142.714 738.605 141.428V136.957H743.426V141.428C743.426 142.722 742.386 143.763 741.099 143.763Z" fill="#0DB9B3"/>
<path d="M736.278 143.763H736.12C734.833 143.763 733.785 142.714 733.785 141.428V136.957H738.605V141.428C738.605 142.722 737.565 143.763 736.278 143.763Z" fill="#EEF4FB"/>
<path d="M731.458 143.763H731.299C730.013 143.763 728.972 142.714 728.972 141.428V136.957H733.793V141.428C733.785 142.722 732.745 143.763 731.458 143.763Z" fill="#0DB9B3"/>
<path d="M726.637 143.763H726.478C725.192 143.763 724.144 142.714 724.144 141.428V136.957H728.964V141.428C728.972 142.722 727.924 143.763 726.637 143.763Z" fill="#EEF4FB"/>
<path d="M721.816 143.763H721.658C720.371 143.763 719.323 142.714 719.323 141.428V136.957H724.143V141.428C724.151 142.722 723.103 143.763 721.816 143.763Z" fill="#0DB9B3"/>
<path d="M716.996 143.763H716.837C715.551 143.763 714.502 142.714 714.502 141.428V136.957H719.323V141.428C719.331 142.722 718.291 143.763 716.996 143.763Z" fill="#EEF4FB"/>
<path d="M712.183 143.763H712.024C710.738 143.763 709.689 142.714 709.689 141.428V136.957H714.51V141.428C714.51 142.722 713.47 143.763 712.183 143.763Z" fill="#0DB9B3"/>
<path d="M707.362 143.763H707.203C705.916 143.763 704.868 142.714 704.868 141.428V136.957H709.689V141.428C709.697 142.722 708.648 143.763 707.362 143.763Z" fill="#EEF4FB"/>
<path d="M702.541 143.763H702.382C701.096 143.763 700.047 142.714 700.047 141.428V136.957H704.868V141.428C704.876 142.722 703.828 143.763 702.541 143.763Z" fill="#0DB9B3"/>
<path d="M753.067 136.965C750.414 134.932 747.245 128.705 746.785 126.672C747.928 126.672 749.064 126.672 750.208 126.672C750.771 128.705 754.647 134.932 757.879 136.965C756.275 136.965 754.671 136.965 753.067 136.965Z" fill="white"/>
<path d="M748.246 136.965C746.181 134.932 743.719 128.705 743.362 126.672C744.505 126.672 745.641 126.672 746.785 126.672C747.245 128.705 750.414 134.932 753.067 136.965C751.455 136.965 749.85 136.965 748.246 136.965Z" fill="#78CCCF"/>
<path d="M757.888 136.965C754.647 134.932 750.772 128.705 750.216 126.672C751.359 126.672 752.495 126.672 753.639 126.672C754.298 128.705 758.88 134.932 762.708 136.965C761.096 136.965 759.492 136.965 757.888 136.965Z" fill="#78CCCF"/>
<path d="M743.426 136.965C741.957 134.932 740.194 128.705 739.939 126.672C741.083 126.672 742.219 126.672 743.362 126.672C743.72 128.705 746.182 134.932 748.247 136.965C746.634 136.965 745.03 136.965 743.426 136.965Z" fill="white"/>
<path d="M738.605 136.965C737.723 134.932 736.667 128.705 736.516 126.672C737.66 126.672 738.795 126.672 739.939 126.672C740.193 128.705 741.956 134.932 743.425 136.965C741.821 136.965 740.209 136.965 738.605 136.965Z" fill="#78CCCF"/>
<path d="M733.784 136.965C733.49 134.932 733.141 128.705 733.085 126.672C734.229 126.672 735.364 126.672 736.508 126.672C736.659 128.705 737.715 134.932 738.597 136.965C737 136.965 735.396 136.965 733.784 136.965Z" fill="white"/>
<path d="M728.972 136.965C729.266 134.932 729.615 128.705 729.671 126.672C730.814 126.672 731.95 126.672 733.094 126.672C733.141 128.705 733.499 134.932 733.792 136.965C732.18 136.965 730.576 136.965 728.972 136.965Z" fill="#78CCCF"/>
<path d="M724.15 136.965C725.032 134.932 726.088 128.705 726.247 126.672C727.383 126.672 728.526 126.672 729.67 126.672C729.622 128.705 729.265 134.932 728.971 136.965C727.367 136.965 725.755 136.965 724.15 136.965Z" fill="white"/>
<path d="M719.331 136.965C720.8 134.932 722.563 128.705 722.817 126.672C723.961 126.672 725.096 126.672 726.24 126.672C726.089 128.705 725.033 134.932 724.143 136.965C722.547 136.965 720.935 136.965 719.331 136.965Z" fill="#78CCCF"/>
<path d="M714.51 136.965C716.575 134.932 719.037 128.705 719.394 126.672C720.538 126.672 721.673 126.672 722.817 126.672C722.563 128.705 720.8 134.932 719.33 136.965C717.726 136.965 716.122 136.965 714.51 136.965Z" fill="white"/>
<path d="M709.696 136.965C712.341 134.932 715.518 128.705 715.978 126.672C717.122 126.672 718.258 126.672 719.401 126.672C719.044 128.705 716.574 134.932 714.517 136.965C712.905 136.965 711.301 136.965 709.696 136.965Z" fill="#78CCCF"/>
<path d="M704.875 136.965C708.116 134.932 711.991 128.705 712.547 126.672C713.691 126.672 714.827 126.672 715.97 126.672C715.518 128.705 712.341 134.932 709.696 136.965C708.084 136.965 706.48 136.965 704.875 136.965Z" fill="white"/>
<path d="M700.055 136.965C703.883 134.932 708.466 128.705 709.125 126.672C710.268 126.672 711.404 126.672 712.548 126.672C711.992 128.705 708.116 134.932 704.876 136.965C703.264 136.965 701.659 136.965 700.055 136.965Z" fill="#78CCCF"/>
<path d="M715.709 120.088H747.047C750.685 120.088 753.631 123.035 753.631 126.672H709.125C709.125 123.035 712.071 120.088 715.709 120.088Z" fill="#0DB9B3"/>
<path d="M758.364 167.779C760.135 166.309 763.852 164.157 770.738 163.609C771.055 163.585 771.341 163.824 771.365 164.141C771.389 164.459 771.151 164.745 770.833 164.769C762.947 165.396 759.524 168.144 758.372 169.367V167.779H758.364Z" fill="#0DB9B3"/>
<path d="M767.259 165.81C767.331 165.81 767.402 165.802 767.474 165.786C768.546 165.588 769.689 165.437 770.881 165.341C771.524 165.294 772 164.73 771.953 164.087C771.905 163.443 771.341 162.967 770.698 163.022C769.427 163.126 768.204 163.285 767.053 163.499C766.417 163.618 766.004 164.222 766.123 164.857C766.219 165.421 766.711 165.81 767.259 165.81Z" fill="#0DB9B3"/>
<path d="M743.965 202.262C737.112 202.262 731.544 196.687 731.544 189.841C731.544 182.987 737.12 177.42 743.965 177.42C750.819 177.42 756.386 182.995 756.386 189.841C756.386 196.687 750.811 202.262 743.965 202.262ZM743.965 179.802C738.43 179.802 733.927 184.305 733.927 189.841C733.927 195.376 738.43 199.879 743.965 199.879C749.501 199.879 754.004 195.376 754.004 189.841C753.996 184.305 749.501 179.802 743.965 179.802Z" fill="#0DB9B3"/>
<path d="M743.965 197.814C739.566 197.814 735.992 194.233 735.992 189.841C735.992 185.441 739.566 181.867 743.965 181.867C748.365 181.867 751.939 185.441 751.939 189.841C751.939 194.233 748.365 197.814 743.965 197.814Z" fill="#EFF0F3"/>
<path d="M743.965 196.417C740.336 196.417 737.39 193.463 737.39 189.841C737.39 186.212 740.344 183.266 743.965 183.266C747.595 183.266 750.541 186.22 750.541 189.841C750.541 193.463 747.595 196.417 743.965 196.417Z" fill="#EE60A2"/>
<path d="M749.151 189.84C749.151 192.707 746.832 195.026 743.965 195.026C741.098 195.026 738.779 192.707 738.779 189.84C738.779 186.973 741.098 184.654 743.965 184.654C746.832 184.654 749.151 186.973 749.151 189.84Z" fill="#F393BD"/>
<path d="M747.595 189.841C747.595 191.842 745.967 193.47 743.965 193.47C741.964 193.47 740.336 191.842 740.336 189.841C740.336 187.84 741.964 186.211 743.965 186.211C745.967 186.211 747.595 187.832 747.595 189.841Z" fill="#EE60A2"/>
<path d="M746.285 189.84C746.285 191.119 745.244 192.159 743.966 192.159C742.687 192.159 741.646 191.119 741.646 189.84C741.646 188.561 742.687 187.521 743.966 187.521C745.244 187.521 746.285 188.553 746.285 189.84Z" fill="white"/>
<path d="M600.568 176.029H567.165V178.253H600.568V176.029Z" fill="url(#paint2_linear)"/>
<path d="M572.764 196.701H572.185C571.621 196.701 571.16 196.24 571.16 195.677V192.15H570.271V195.677C570.271 196.733 571.128 197.591 572.185 197.591H572.764C573.01 197.591 573.209 197.392 573.209 197.146C573.209 196.9 573.01 196.701 572.764 196.701Z" fill="#C1CBD7"/>
<path d="M570.724 197.146C570.724 198.274 571.637 199.179 572.757 199.179C573.884 199.179 574.79 198.266 574.79 197.146C574.79 196.019 573.877 195.113 572.757 195.113C571.637 195.113 570.724 196.027 570.724 197.146ZM571.399 197.146C571.399 196.392 572.01 195.78 572.765 195.78C573.519 195.78 574.131 196.392 574.131 197.146C574.131 197.901 573.519 198.512 572.765 198.512C572.01 198.512 571.399 197.901 571.399 197.146Z" fill="#C1CBD7"/>
<path d="M571.961 197.148C571.961 197.585 572.319 197.942 572.756 197.942C573.192 197.942 573.55 197.585 573.55 197.148C573.55 196.711 573.192 196.354 572.756 196.354C572.319 196.354 571.961 196.711 571.961 197.148Z" fill="#C1CBD7"/>
<path d="M599.234 159.098H598.829V174.672H599.234V159.098Z" fill="#C1CBD7"/>
<path d="M569.167 159.098H568.762V174.672H569.167V159.098Z" fill="#C1CBD7"/>
<path d="M599.457 191.104H568.286V192.152H599.457V191.104Z" fill="#C1CBD7"/>
<path d="M600.569 176.029H567.166V191.103H600.569V176.029Z" fill="#C1CBD7"/>
<path d="M599.503 176.029H598.256V191.103H599.503V176.029Z" fill="#EEF4FB"/>
<path d="M596.763 176.029H595.517V191.103H596.763V176.029Z" fill="#EEF4FB"/>
<path d="M594.032 176.029H592.785V191.103H594.032V176.029Z" fill="#EEF4FB"/>
<path d="M591.299 176.029H590.052V191.103H591.299V176.029Z" fill="#EEF4FB"/>
<path d="M588.56 176.029H587.313V191.103H588.56V176.029Z" fill="#EEF4FB"/>
<path d="M585.827 176.029H584.581V191.103H585.827V176.029Z" fill="#EEF4FB"/>
<path d="M583.096 176.029H581.849V191.103H583.096V176.029Z" fill="#EEF4FB"/>
<path d="M580.355 176.029H579.108V191.103H580.355V176.029Z" fill="#EEF4FB"/>
<path d="M577.624 176.029H576.377V191.103H577.624V176.029Z" fill="#EEF4FB"/>
<path d="M574.892 176.029H573.645V191.103H574.892V176.029Z" fill="#EEF4FB"/>
<path d="M572.152 176.029H570.905V191.103H572.152V176.029Z" fill="#EEF4FB"/>
<path d="M569.421 176.029H568.174V191.102H569.421V176.029Z" fill="#EEF4FB"/>
<path d="M601.903 174.672H565.839V176.03H601.903V174.672Z" fill="#EEF4FB"/>
<path d="M598.852 163.252H598.757C597.971 163.252 597.335 162.616 597.335 161.83V159.098H600.274V161.83C600.274 162.616 599.639 163.252 598.852 163.252Z" fill="#EEF4FB"/>
<path d="M595.906 163.252H595.811C595.024 163.252 594.389 162.616 594.389 161.83V159.098H597.336V161.83C597.328 162.616 596.692 163.252 595.906 163.252Z" fill="#C1CBD7"/>
<path d="M601.791 163.252H601.695C600.909 163.252 600.274 162.616 600.274 161.83V159.098H603.212V161.83C603.212 162.616 602.577 163.252 601.791 163.252Z" fill="#C1CBD7"/>
<path d="M592.968 163.252H592.873C592.086 163.252 591.451 162.616 591.451 161.83V159.098H594.39V161.83C594.39 162.616 593.754 163.252 592.968 163.252Z" fill="#EEF4FB"/>
<path d="M590.021 163.252H589.926C589.14 163.252 588.504 162.616 588.504 161.83V159.098H591.443V161.83C591.443 162.616 590.808 163.252 590.021 163.252Z" fill="#C1CBD7"/>
<path d="M587.083 163.252H586.988C586.201 163.252 585.566 162.616 585.566 161.83V159.098H588.504V161.83C588.504 162.616 587.869 163.252 587.083 163.252Z" fill="#EEF4FB"/>
<path d="M584.136 163.252H584.041C583.254 163.252 582.619 162.616 582.619 161.83V159.098H585.558V161.83C585.558 162.616 584.922 163.252 584.136 163.252Z" fill="#C1CBD7"/>
<path d="M581.198 163.252H581.103C580.316 163.252 579.681 162.616 579.681 161.83V159.098H582.628V161.83C582.62 162.616 581.984 163.252 581.198 163.252Z" fill="#EEF4FB"/>
<path d="M578.251 163.252H578.156C577.37 163.252 576.734 162.616 576.734 161.83V159.098H579.673V161.83C579.673 162.616 579.038 163.252 578.251 163.252Z" fill="#C1CBD7"/>
<path d="M575.313 163.252H575.218C574.432 163.252 573.796 162.616 573.796 161.83V159.098H576.735V161.83C576.735 162.616 576.1 163.252 575.313 163.252Z" fill="#EEF4FB"/>
<path d="M572.366 163.252H572.271C571.485 163.252 570.85 162.616 570.85 161.83V159.098H573.788V161.83C573.788 162.616 573.153 163.252 572.366 163.252Z" fill="#C1CBD7"/>
<path d="M569.428 163.252H569.333C568.546 163.252 567.911 162.616 567.911 161.83V159.098H570.858V161.83C570.85 162.616 570.214 163.252 569.428 163.252Z" fill="#EEF4FB"/>
<path d="M566.482 163.251H566.387C565.601 163.251 564.965 162.616 564.965 161.83V159.098H567.904V161.83C567.904 162.616 567.268 163.251 566.482 163.251Z" fill="#C1CBD7"/>
<path d="M597.327 159.098C595.707 157.859 593.777 154.055 593.491 152.816C594.19 152.816 594.889 152.816 595.58 152.816C595.921 154.055 598.288 157.859 600.266 159.098C599.289 159.098 598.312 159.098 597.327 159.098Z" fill="white"/>
<path d="M594.389 159.098C593.134 157.859 591.625 154.055 591.411 152.816C592.11 152.816 592.808 152.816 593.499 152.816C593.777 154.055 595.715 157.859 597.335 159.098C596.35 159.098 595.366 159.098 594.389 159.098Z" fill="#DEE9F6"/>
<path d="M600.274 159.098C598.297 157.859 595.93 154.055 595.588 152.816C596.287 152.816 596.978 152.816 597.677 152.816C598.082 154.055 600.878 157.859 603.213 159.098C602.236 159.098 601.251 159.098 600.274 159.098Z" fill="#DEE9F6"/>
<path d="M591.443 159.098C590.545 157.859 589.465 154.055 589.314 152.816C590.013 152.816 590.704 152.816 591.403 152.816C591.618 154.055 593.127 157.859 594.381 159.098C593.404 159.098 592.428 159.098 591.443 159.098Z" fill="white"/>
<path d="M588.505 159.098C587.965 157.859 587.321 154.055 587.226 152.816C587.925 152.816 588.624 152.816 589.315 152.816C589.474 154.055 590.546 157.859 591.443 159.098C590.466 159.098 589.482 159.098 588.505 159.098Z" fill="#DEE9F6"/>
<path d="M585.558 159.098C585.375 157.859 585.161 154.055 585.129 152.816C585.828 152.816 586.519 152.816 587.218 152.816C587.313 154.055 587.956 157.859 588.496 159.098C587.519 159.098 586.543 159.098 585.558 159.098Z" fill="white"/>
<path d="M582.619 159.098C582.802 157.859 583.016 154.055 583.048 152.816C583.747 152.816 584.446 152.816 585.137 152.816C585.168 154.055 585.383 157.859 585.566 159.098C584.581 159.098 583.596 159.098 582.619 159.098Z" fill="#DEE9F6"/>
<path d="M579.673 159.098C580.213 157.859 580.856 154.055 580.951 152.816C581.65 152.816 582.341 152.816 583.04 152.816C583.008 154.055 582.794 157.859 582.611 159.098C581.634 159.098 580.658 159.098 579.673 159.098Z" fill="white"/>
<path d="M576.734 159.098C577.632 157.859 578.712 154.055 578.863 152.816C579.562 152.816 580.261 152.816 580.951 152.816C580.856 154.055 580.213 157.859 579.673 159.098C578.696 159.098 577.711 159.098 576.734 159.098Z" fill="#DEE9F6"/>
<path d="M573.788 159.098C575.043 157.859 576.552 154.055 576.774 152.816C577.473 152.816 578.164 152.816 578.863 152.816C578.704 154.055 577.632 157.859 576.734 159.098C575.75 159.098 574.773 159.098 573.788 159.098Z" fill="white"/>
<path d="M570.85 159.098C572.47 157.859 574.408 154.055 574.685 152.816C575.384 152.816 576.075 152.816 576.774 152.816C576.56 154.055 575.051 157.859 573.788 159.098C572.811 159.098 571.826 159.098 570.85 159.098Z" fill="#DEE9F6"/>
<path d="M567.904 159.098C569.881 157.859 572.248 154.055 572.59 152.816C573.288 152.816 573.979 152.816 574.678 152.816C574.4 154.055 572.462 157.859 570.842 159.098C569.873 159.098 568.889 159.098 567.904 159.098Z" fill="white"/>
<path d="M564.965 159.098C567.3 157.859 570.096 154.055 570.501 152.816C571.2 152.816 571.899 152.816 572.59 152.816C572.248 154.055 569.881 157.859 567.904 159.098C566.927 159.098 565.942 159.098 564.965 159.098Z" fill="#DEE9F6"/>
<path d="M574.52 148.797H593.659C595.875 148.797 597.678 150.6 597.678 152.816H570.501C570.501 150.592 572.304 148.797 574.52 148.797Z" fill="#C1CBD7"/>
<path d="M600.568 177.912C601.648 177.015 603.92 175.697 608.121 175.363C608.32 175.347 608.486 175.49 608.502 175.689C608.518 175.887 608.375 176.054 608.177 176.07C603.364 176.451 601.267 178.135 600.568 178.873V177.912Z" fill="#C1CBD7"/>
<path d="M606 176.712C606.04 176.712 606.088 176.704 606.128 176.696C606.779 176.577 607.478 176.481 608.208 176.426C608.597 176.394 608.891 176.052 608.86 175.663C608.828 175.274 608.486 174.98 608.097 175.012C607.319 175.076 606.572 175.171 605.873 175.306C605.484 175.377 605.23 175.751 605.302 176.132C605.365 176.473 605.659 176.712 606 176.712Z" fill="#C1CBD7"/>
<path d="M591.776 198.966C587.591 198.966 584.192 195.567 584.192 191.381C584.192 187.196 587.591 183.797 591.776 183.797C595.962 183.797 599.361 187.196 599.361 191.381C599.361 195.567 595.954 198.966 591.776 198.966ZM591.776 185.258C588.401 185.258 585.653 188.006 585.653 191.381C585.653 194.757 588.401 197.504 591.776 197.504C595.152 197.504 597.899 194.757 597.899 191.381C597.899 188.006 595.152 185.258 591.776 185.258Z" fill="#C1CBD7"/>
<path d="M591.776 196.251C589.092 196.251 586.908 194.067 586.908 191.383C586.908 188.698 589.092 186.514 591.776 186.514C594.46 186.514 596.644 188.698 596.644 191.383C596.644 194.067 594.46 196.251 591.776 196.251Z" fill="#EFF0F3"/>
<path d="M591.777 195.4C589.561 195.4 587.758 193.597 587.758 191.381C587.758 189.166 589.561 187.363 591.777 187.363C593.993 187.363 595.795 189.166 595.795 191.381C595.795 193.597 593.993 195.4 591.777 195.4Z" fill="#C1CBD7"/>
<path d="M594.945 191.382C594.945 193.129 593.524 194.55 591.777 194.55C590.029 194.55 588.608 193.129 588.608 191.382C588.608 189.634 590.029 188.213 591.777 188.213C593.524 188.213 594.945 189.634 594.945 191.382Z" fill="#EEF4FB"/>
<path d="M593.993 191.381C593.993 192.604 593 193.597 591.777 193.597C590.554 193.597 589.562 192.604 589.562 191.381C589.562 190.158 590.554 189.166 591.777 189.166C593 189.166 593.993 190.158 593.993 191.381Z" fill="#C1CBD7"/>
<path d="M593.191 191.382C593.191 192.161 592.555 192.796 591.777 192.796C590.999 192.796 590.363 192.161 590.363 191.382C590.363 190.604 590.999 189.969 591.777 189.969C592.555 189.969 593.191 190.604 593.191 191.382Z" fill="white"/>
<path d="M607.161 477.303V474.428C605.088 474.349 604.747 476.437 602.372 476.437C599.823 476.437 599.823 474.46 597.281 474.46C594.74 474.46 594.74 476.437 592.191 476.437C589.641 476.437 589.641 474.46 587.1 474.46C584.558 474.46 584.558 476.437 582.009 476.437C579.635 476.437 579.293 474.349 577.22 474.428V477.303H607.161Z" fill="#C1CBD7"/>
<path d="M608.026 463.572H607.161V477.303H608.026V463.572Z" fill="#C1CBD7"/>
<path d="M577.212 463.572H576.347V477.303H577.212V463.572Z" fill="#C1CBD7"/>
<path d="M609.782 491.859H574.163V492.987H609.782V491.859Z" fill="#C1CBD7"/>
<path d="M610.481 478.758H573.456V491.862H610.481V478.758Z" fill="#DEE9F6"/>
<path d="M603.976 478.756H603.619V491.86H603.976V478.756Z" fill="#C1CBD7"/>
<path d="M600.069 478.756H599.711V491.86H600.069V478.756Z" fill="#C1CBD7"/>
<path d="M596.161 478.756H595.804V491.86H596.161V478.756Z" fill="#C1CBD7"/>
<path d="M592.262 478.756H591.905V491.86H592.262V478.756Z" fill="#C1CBD7"/>
<path d="M588.354 478.756H587.997V491.86H588.354V478.756Z" fill="#C1CBD7"/>
<path d="M584.447 478.756H584.089V491.86H584.447V478.756Z" fill="#C1CBD7"/>
<path d="M580.54 478.756H580.183V491.86H580.54V478.756Z" fill="#C1CBD7"/>
<path d="M576.632 478.756H576.274V491.86H576.632V478.756Z" fill="#C1CBD7"/>
<path d="M607.883 478.756H607.526V491.86H607.883V478.756Z" fill="#C1CBD7"/>
<path d="M610.48 480.344H573.456V480.892H610.48V480.344Z" fill="#C1CBD7"/>
<path d="M610.481 478.758H573.456V480.346H610.481V478.758Z" fill="#DEE9F6"/>
<path d="M572.134 478.76H611.804V477.307H572.134V478.76Z" fill="#DEE9F6"/>
<path d="M612.411 467.162H612.284C611.204 467.162 610.338 466.288 610.338 465.216V463.58H614.364V465.216C614.356 466.288 613.491 467.162 612.411 467.162Z" fill="#C1CBD7"/>
<path d="M608.384 467.162H608.257C607.177 467.162 606.304 466.288 606.304 465.216V463.58H610.33V465.216C610.33 466.288 609.457 467.162 608.384 467.162Z" fill="#EEF4FB"/>
<path d="M604.358 467.162H604.223C603.15 467.162 602.277 466.288 602.277 465.216V463.58H606.303V465.216C606.303 466.288 605.43 467.162 604.358 467.162Z" fill="#C1CBD7"/>
<path d="M600.332 467.162H600.197C599.125 467.162 598.251 466.288 598.251 465.216V463.58H602.277V465.216C602.277 466.288 601.404 467.162 600.332 467.162Z" fill="#EEF4FB"/>
<path d="M596.304 467.162H596.169C595.089 467.162 594.224 466.288 594.224 465.216V463.58H598.25V465.216C598.25 466.288 597.377 467.162 596.304 467.162Z" fill="#C1CBD7"/>
<path d="M592.271 467.162H592.136C591.064 467.162 590.19 466.288 590.19 465.216V463.58H594.216V465.216C594.224 466.288 593.351 467.162 592.271 467.162Z" fill="#EEF4FB"/>
<path d="M588.244 467.162H588.109C587.037 467.162 586.163 466.288 586.163 465.216V463.58H590.19V465.216C590.198 466.288 589.324 467.162 588.244 467.162Z" fill="#C1CBD7"/>
<path d="M584.217 467.162H584.082C583.01 467.162 582.137 466.288 582.137 465.216V463.58H586.163V465.216C586.171 466.288 585.298 467.162 584.217 467.162Z" fill="#EEF4FB"/>
<path d="M580.191 467.162H580.063C578.983 467.162 578.118 466.288 578.118 465.216V463.58H582.144V465.216C582.136 466.288 581.271 467.162 580.191 467.162Z" fill="#C1CBD7"/>
<path d="M576.165 467.162H576.038C574.957 467.162 574.092 466.288 574.092 465.216V463.58H578.118V465.216C578.11 466.288 577.245 467.162 576.165 467.162Z" fill="#EEF4FB"/>
<path d="M572.137 467.162H572.01C570.93 467.162 570.057 466.288 570.057 465.216V463.58H574.083V465.216C574.083 466.288 573.217 467.162 572.137 467.162Z" fill="#C1CBD7"/>
<path d="M610.33 463.571C608.4 460.53 606.566 457.48 604.818 454.438C605.755 454.438 606.685 454.438 607.622 454.438C609.75 457.48 611.998 460.53 614.356 463.571C613.014 463.571 611.672 463.571 610.33 463.571Z" fill="#DEE9F6"/>
<path d="M606.303 463.571C604.802 460.53 603.372 457.48 602.022 454.438C602.959 454.438 603.888 454.438 604.825 454.438C606.573 457.48 608.407 460.53 610.337 463.571C608.987 463.571 607.645 463.571 606.303 463.571Z" fill="white"/>
<path d="M602.277 463.571C601.205 460.53 600.188 457.48 599.219 454.438C600.156 454.438 601.086 454.438 602.023 454.438C603.381 457.48 604.81 460.53 606.303 463.571C604.961 463.571 603.619 463.571 602.277 463.571Z" fill="#DEE9F6"/>
<path d="M598.25 463.571C597.607 460.53 596.995 457.48 596.416 454.438C597.353 454.438 598.282 454.438 599.219 454.438C600.188 457.48 601.204 460.53 602.277 463.571C600.934 463.571 599.592 463.571 598.25 463.571Z" fill="white"/>
<path d="M594.224 463.571C594.009 460.53 593.803 457.48 593.612 454.438C594.549 454.438 595.479 454.438 596.416 454.438C596.996 457.48 597.607 460.53 598.25 463.571C596.908 463.571 595.566 463.571 594.224 463.571Z" fill="#DEE9F6"/>
<path d="M590.197 463.571C590.412 460.53 590.618 457.48 590.809 454.438C591.746 454.438 592.675 454.438 593.612 454.438C593.803 457.48 594.009 460.53 594.224 463.571C592.882 463.571 591.539 463.571 590.197 463.571Z" fill="white"/>
<path d="M586.162 463.571C586.805 460.53 587.417 457.48 587.997 454.438C588.926 454.438 589.863 454.438 590.8 454.438C590.61 457.48 590.403 460.53 590.189 463.571C588.854 463.571 587.512 463.571 586.162 463.571Z" fill="#DEE9F6"/>
<path d="M582.136 463.571C583.208 460.53 584.224 457.48 585.193 454.438C586.131 454.438 587.06 454.438 587.997 454.438C587.417 457.48 586.806 460.53 586.162 463.571C584.82 463.571 583.478 463.571 582.136 463.571Z" fill="white"/>
<path d="M578.11 463.571C579.611 460.53 581.04 457.48 582.39 454.438C583.328 454.438 584.257 454.438 585.194 454.438C584.225 457.48 583.201 460.53 582.136 463.571C580.794 463.571 579.452 463.571 578.11 463.571Z" fill="#DEE9F6"/>
<path d="M574.083 463.571C576.004 460.53 577.847 457.48 579.586 454.438C580.523 454.438 581.452 454.438 582.39 454.438C581.032 457.48 579.602 460.53 578.109 463.571C576.767 463.571 575.425 463.571 574.083 463.571Z" fill="white"/>
<path d="M570.057 463.571C572.415 460.53 574.655 457.48 576.791 454.438C577.728 454.438 578.658 454.438 579.595 454.438C577.856 457.48 576.013 460.53 574.091 463.571C572.741 463.571 571.399 463.571 570.057 463.571Z" fill="#DEE9F6"/>
<path d="M576.776 454.435H607.63V452.529H576.776V454.435Z" fill="#C1CBD7"/>
<path d="M1149.46 273.038C1149.46 286.063 1140.22 296.626 1128.82 296.626C1117.42 296.626 1114.01 284.689 1108.18 273.038C1102.28 261.245 1117.41 249.451 1128.82 249.451C1140.22 249.451 1149.46 260.014 1149.46 273.038Z" fill="#313F7A"/>
<path d="M987.66 554.41C982.323 555.054 976.78 553.783 972.253 550.884C971.252 550.241 970.069 549.494 968.965 549.947C967.599 550.511 967.536 552.449 968.02 553.846C969.1 556.952 971.634 559.318 974.254 561.304C978.924 564.854 984.158 567.657 989.693 569.587C993.053 570.755 997.008 571.541 1000 569.611C1002.29 568.142 1003.46 565.37 1003.66 562.662C1003.86 559.954 1003.23 557.261 1002.6 554.625L987.66 554.41Z" fill="#2D2B2B"/>
<path d="M1130.15 564.362C1127.48 570.533 1114.43 571.906 1114.43 575.306C1117.64 577.974 1121.84 579.427 1126.01 579.316C1133.46 579.118 1139.91 574.265 1145.26 569.079C1146.15 568.214 1147.04 567.3 1147.47 566.133C1148.54 563.163 1146.16 560.145 1143.97 557.873L1130.15 564.362Z" fill="#2D2B2B"/>
<path d="M989.773 348.51C987.526 345.039 985.85 341.203 984.833 337.201C983.134 339.75 982.911 343.221 984.269 345.968C978.043 342.887 970.895 341.704 964.01 342.617C967.941 344.769 972.277 346.191 976.717 346.786C973.222 346.945 969.736 347.112 966.249 347.271C965.646 347.295 964.931 347.398 964.645 347.93C964.28 348.637 964.971 349.407 965.59 349.9C970.498 353.839 975.541 357.857 981.498 359.882C987.462 361.908 994.625 361.566 999.359 357.413L989.773 348.51Z" fill="#F7CDC5"/>
<path d="M1048.22 313.266C1047.45 326.648 1039.31 339.362 1027.49 345.684C1015.67 351.998 1000.57 351.696 989.019 344.914C988.939 350.989 988.86 357.057 988.78 363.132C999.192 365.983 1009.74 368.858 1020.53 368.978C1031.32 369.097 1042.57 366.158 1050.42 358.748C1060.03 349.663 1062.96 335.741 1065.4 322.732L1048.22 313.266Z" fill="#0DB9B3"/>
<path d="M1050.61 396.503C1027.64 450.396 1006.27 500.525 983.284 554.426L1003.7 564.679C1003.7 564.679 1044.25 489.041 1074.81 445.965C1085.46 495.268 1105.72 524.255 1127.59 568.436C1139.61 569.373 1146.03 564.02 1148.36 562.845C1128.69 500.62 1119.74 451.238 1107.23 391.389L1050.61 396.503Z" fill="#CBAED1"/>
<path d="M1113.09 303.441C1117.17 310.184 1119.22 318.078 1119.34 325.956C1119.53 337.853 1115.83 349.686 1115.24 361.519C1114.67 372.717 1114.98 384.114 1115.04 395.296C1093.74 396.058 1072.45 396.821 1051.15 397.575C1049.3 385.623 1047.76 373.631 1046.5 361.607C1045.3 350.091 1042.29 336.407 1043.77 324.884C1045.65 310.168 1055.47 289.328 1071.14 285.62C1085.38 282.244 1101.45 288.113 1110.43 299.597C1111.4 300.82 1112.29 302.107 1113.09 303.441Z" fill="#0DB9B3"/>
<path d="M1084.48 275.176L1087.41 288.542C1087.41 288.542 1079.17 293.609 1073.64 293.149L1071.11 285.993L1084.48 275.176Z" fill="#F7CDC5"/>
<path d="M1051.79 262.429C1051.79 275.954 1055.98 286.923 1066.65 286.923C1077.32 286.923 1090.44 275.954 1090.44 262.429C1090.44 248.904 1081.79 237.938 1071.11 237.938C1054.5 237.938 1051.79 248.904 1051.79 262.429Z" fill="#F7CDC5"/>
<path d="M1065.82 247.499C1062.39 248.372 1059.02 249.302 1055.47 249.754C1052.21 250.167 1050.2 246.617 1050.2 243.639C1050.2 240.74 1051.61 238.048 1053.15 235.586C1052.38 237.143 1053.82 239.057 1055.51 239.446C1057.2 239.835 1058.94 239.192 1060.55 238.556C1067.09 235.999 1078.6 231.409 1085.08 236.682C1088.01 239.072 1090.17 242.615 1091.25 246.22C1092.87 251.716 1092.35 257.64 1091.1 263.239C1089.61 269.95 1087.07 276.518 1082.9 281.974C1078.73 287.438 1072.83 291.735 1066.12 293.212C1063.28 293.839 1060.25 293.942 1057.52 292.958C1051.96 290.948 1050.98 287.637 1051.55 282.284C1051.8 279.997 1052.24 277.709 1052.56 275.43C1052.88 273.191 1052.28 270.649 1052.06 268.394C1052.55 270.117 1054.27 271.404 1056.06 271.372C1057.38 271.356 1058.61 270.705 1059.86 270.308C1061.64 269.744 1063.56 269.704 1065.37 270.141C1067.39 270.625 1068.7 271.697 1070.29 272.913C1071.59 273.905 1073.09 274.763 1074.73 274.85C1077.76 275.009 1079.98 271.618 1081.48 269.402C1083.49 266.416 1085.35 263.208 1085.97 259.658C1086.59 256.108 1085.78 252.129 1083.11 249.699C1079.05 245.99 1072.11 245.95 1067.11 247.173C1066.69 247.284 1066.26 247.388 1065.82 247.499Z" fill="#2D2B2B"/>
<path d="M1086.78 261.929C1087.11 261.032 1088.14 260.817 1088.75 261.421C1089.36 262.016 1089.53 263.192 1089.26 264.129C1088.99 265.058 1088.36 265.757 1087.66 266.17C1086.96 266.575 1086.2 266.734 1085.44 266.861L1086.78 261.929Z" fill="#F7CDC5"/>
<path d="M1156.02 309.803C1156.05 310.057 1156.15 312.725 1156.38 312.82L1138.37 305.697L1136.55 305.014L1133.22 303.767C1133.61 301.813 1133.84 299.828 1134.02 297.85L1155.07 302.568C1155.4 304.974 1155.72 307.388 1156.02 309.803Z" fill="#313F7A"/>
<path d="M1107.11 276.724C1106.43 293.918 1106.72 297.19 1108.4 308.888C1113.01 308.102 1120.73 306.704 1125.4 306.72C1126.94 299.708 1123.66 292.592 1120.07 286.381C1116.48 280.163 1112.35 273.825 1112 266.654C1109.31 268.131 1107.57 271.196 1107.67 274.262L1107.11 276.724Z" fill="#313F7A"/>
<path d="M1150.44 483.195L1196.85 568.196C1196.85 568.196 1194.26 571.707 1191.22 571.071C1188.18 570.436 1132.32 495.084 1132.32 495.084L1150.44 483.195Z" fill="#F7CDC5"/>
<path d="M1195.58 565.879C1195.58 565.879 1200.29 570.207 1201.29 571.732C1202.29 573.257 1180.85 591.713 1180.58 591.435C1177.7 588.378 1188.52 568.468 1188.52 568.468L1195.58 565.879Z" fill="#F7CDC5"/>
<path d="M1186.72 583.081L1187.2 583.303L1186.72 583.081L1187.27 582.534L1186.72 583.081L1182.51 581.087C1183.21 579.364 1183.98 577.617 1184.74 575.996L1190.95 578.633L1190.43 579.149L1190.95 578.633L1191.38 578.816L1190.95 578.633L1199.75 569.938C1200.42 570.652 1201.01 571.303 1201.29 571.732C1202.29 573.256 1180.85 591.713 1180.58 591.435C1180.26 591.086 1180.12 590.498 1180.11 589.768L1186.72 583.081Z" fill="#313F7A"/>
<path d="M1099.87 489.105L1068.87 580.849C1068.87 580.849 1064.55 581.325 1062.94 578.665C1061.34 576.004 1078.83 483.855 1078.83 483.855L1099.87 489.105Z" fill="#F7CDC5"/>
<path d="M1069.73 578.347C1069.73 578.347 1069.74 584.733 1069.29 586.504C1068.85 588.275 1040.75 585.034 1040.77 584.653C1041.07 580.46 1063.03 574.908 1063.03 574.908L1069.73 578.347Z" fill="#F7CDC5"/>
<path d="M1051.08 583.508L1051.23 584.008L1051.08 583.508L1051.85 583.532L1051.08 583.508L1049.69 579.061C1051.43 578.409 1053.24 577.79 1054.95 577.242L1057.22 583.587L1056.49 583.556L1057.22 583.587L1057.38 584.024L1057.22 583.587L1069.58 584.151C1069.52 585.128 1069.43 586.002 1069.31 586.502C1068.86 588.273 1040.77 585.033 1040.79 584.652C1040.82 584.175 1041.17 583.683 1041.7 583.182L1051.08 583.508Z" fill="#313F7A"/>
<path d="M1180.62 380.547C1175.83 381.111 1170.97 381.674 1166.11 382.238C1163.12 364.449 1159.67 355.53 1152.68 338.932C1152.45 356.602 1149.35 365.695 1146.52 383.144C1135.23 382.58 1124.84 381.619 1114 380.888L1108.57 304.321C1108.18 304.432 1107.79 304.543 1107.39 304.607C1105.81 314.32 1105.25 324.255 1104.74 334.135C1104.4 341.02 1103.67 347.914 1104.17 354.799C1104.85 363.329 1105.81 371.85 1106.66 380.38C1109.15 380.547 1111.58 380.666 1114 380.888L1114.28 385.177L1085.49 431.589L1092.77 372.247C1092.77 372.247 1092.09 371.231 1092.77 337.915C1093.22 315.384 1100.28 307.426 1104.79 304.599C1104.85 304.599 1104.85 304.599 1104.85 304.599C1106.54 303.527 1107.9 303.241 1108.35 303.185C1108.41 303.185 1108.46 303.185 1108.52 303.13C1109.65 302.677 1111 302.28 1112.58 302.002C1115.63 301.383 1119.59 301.152 1124.89 301.152C1136.13 301.152 1148.04 303.185 1157.02 310.468C1166.79 318.386 1180.62 365.981 1180.62 380.547Z" fill="#F7CDC5"/>
<path d="M1113.99 380.889C1111.56 380.666 1109.14 380.547 1106.65 380.381C1105.8 371.859 1104.85 363.329 1104.17 354.8C1103.66 347.914 1104.4 341.021 1104.73 334.135C1105.24 324.256 1105.8 314.313 1107.38 304.608C1107.78 304.552 1108.18 304.441 1108.57 304.322L1113.99 380.889Z" fill="#F7CDC5"/>
<path d="M1144.5 368.461C1144.5 368.461 1172.73 404.565 1176.67 520.095H1065.73C1065.73 520.095 1075.58 410.474 1103.8 368.461H1144.5Z" fill="#EA4497"/>
<path d="M1107.24 278.241C1107.45 281.18 1108.03 283.753 1109.03 285.961C1109.03 286.016 1109.03 286.016 1109.03 286.016C1111.66 292.108 1116.95 295.626 1123.42 296.309C1130.72 297.095 1137.59 295.102 1141.53 287.692C1143.22 284.492 1144.42 280.862 1144.79 276.875C1145.27 273.254 1145.68 269.259 1142.69 267.107C1139.64 264.955 1135.44 263.692 1131.88 262.802C1126.63 261.54 1121.16 261.23 1115.81 261.905C1115.39 261.961 1115.02 262.008 1114.66 262.064C1112.03 262.485 1110.72 262.532 1109.41 264.637C1107.99 266.742 1107.62 270.307 1107.36 272.777C1107.08 274.62 1107.03 276.454 1107.24 278.241Z" fill="#F7CDC5"/>
<path d="M1121.2 303.485H1134.78V284.369H1121.2V303.485Z" fill="#F7CDC5"/>
<path d="M1152.67 326.71L1101.74 322.199C1100.36 330.22 1099.7 338.352 1099.85 346.517C1100.07 358.771 1099.76 366.713 1100.54 373.765C1115.61 374.551 1133.14 373.686 1148.21 374.472C1151.1 365.505 1152.94 339.536 1153.1 339.845L1152.68 334.334V326.71H1152.67Z" fill="#EE60A2"/>
<path d="M1112.01 296.874C1112.63 298.121 1113.32 299.471 1113.03 300.885C1112.97 301.282 1112.8 301.679 1112.58 302.013C1111 302.298 1109.64 302.688 1108.51 303.14C1108.46 303.196 1108.4 303.196 1108.34 303.196C1107.89 303.251 1106.33 303.815 1104.84 304.61C1104.84 304.61 1104.84 304.61 1104.79 304.61C1104.44 304.498 1104.17 304.268 1103.94 303.99C1103.6 303.482 1103.54 302.862 1103.32 302.298C1102.98 301.449 1102.3 300.774 1101.96 299.868C1101.16 297.891 1102.52 295.746 1102.92 293.602C1103.32 291.228 1101.62 289.425 1101.85 287.161C1102.01 285.692 1103.03 284.564 1103.77 283.325C1105.53 280.276 1105.24 276.496 1105.53 272.993C1105.98 267.458 1108.5 256.149 1114.09 255.354C1114.43 255.299 1115.4 261.986 1115.8 261.922C1110.83 266.274 1110.04 272.485 1109.48 274.963C1109.26 276.09 1109.08 277.218 1109.03 278.409C1109.03 281.793 1108.97 285.128 1109.26 288.519C1109.53 291.847 1110.38 293.825 1112.01 296.874Z" fill="#313F7A"/>
<path d="M1139.63 417.279C1139.63 422.513 1140.64 427.452 1142.41 431.836L1136.32 434.648C1134.24 429.39 1133.04 423.505 1133.04 417.279C1133.04 409.242 1135 401.991 1138.33 395.995L1154.38 388.037C1145.67 393.287 1139.63 404.405 1139.63 417.279Z" fill="#00CBCA"/>
<path d="M1180.64 380.549C1180.64 380.549 1175.83 385.441 1136.66 399.403L1132.26 391.684L1169.02 373.711L1180.64 380.549Z" fill="#F7CDC5"/>
<path d="M1139.38 397.312C1132.69 403.999 1130.8 408.574 1128.91 413.514C1127.3 409.503 1125.76 407.74 1125.6 403.475C1125.44 399.218 1126.98 394.684 1130.71 392.023C1133.99 389.68 1138.37 389.124 1142.53 388.656L1139.38 397.312Z" fill="#F7CDC5"/>
<path d="M1137.17 429.566C1140.79 440.169 1148.24 447.475 1156.83 447.475C1168.97 447.475 1178.86 432.918 1178.86 415.009C1178.86 397.108 1168.98 382.543 1156.83 382.543C1155.3 382.543 1153.83 382.813 1152.39 383.257L1153.27 382.916L1152.39 383.257C1151.73 383.464 1151.09 383.718 1150.45 384.004L1137.6 388.984C1142.67 380.954 1148.49 376.682 1156.82 376.682C1172.05 376.682 1184.44 392.947 1184.44 415.009C1184.44 437.063 1172.05 455.012 1156.82 455.012C1145.89 455.012 1136.46 445.744 1131.99 432.378L1137.17 429.566Z" fill="#78CCCF"/>
<path d="M1182.74 460.077L1190.72 414.539H1126.44L1134.42 460.077H1182.74Z" fill="#78CCCF"/>
<path d="M1087.53 322.517C1092.72 329.466 1101.26 333.207 1109.8 334.779C1120.06 336.669 1130.63 335.851 1140.96 334.366C1151.29 332.889 1161.55 330.761 1171.96 330.062C1168.36 325.241 1164.76 320.428 1161.17 315.608C1160.94 315.306 1154.41 317.077 1153.6 317.156C1117.87 320.651 1096.39 314.305 1096.39 314.305C1096.39 314.305 1094.96 314.591 1093.51 315.965C1091.37 318.014 1089.37 320.198 1087.53 322.517Z" fill="#EA4497"/>
<path d="M1173.33 318.832C1172.15 321.262 1169.43 322.787 1166.67 322.898C1163.96 323.065 1161.24 321.937 1159.04 320.301C1157.01 318.832 1155.26 316.855 1152.78 316.235C1150.47 315.671 1147.93 316.521 1145.61 315.894C1143.69 315.385 1142.16 313.916 1141.09 312.224C1140.29 310.93 1140.24 309.175 1139.33 307.991C1138.48 306.864 1136.85 306.355 1135.83 305.339C1132.27 301.503 1134.93 296.19 1134.42 291.727C1133.74 286.024 1133.23 280.378 1131.31 274.898C1130.3 272.079 1127.13 264.844 1120.64 261.572C1127.25 261.572 1131.59 261.238 1137.65 261.238C1143.54 261.238 1143.54 249.444 1153.16 279.981C1153.91 282.347 1153.95 285.175 1154.68 287.66C1155.03 288.733 1155.65 289.86 1156.27 290.988C1157.23 291.663 1157.68 293.021 1157.85 294.204C1158.01 295.785 1157.96 297.476 1158.97 298.723C1159.93 299.851 1161.51 300.193 1162.98 300.645C1164.4 301.042 1165.98 301.773 1166.37 303.242C1166.88 304.878 1165.58 306.633 1166.14 308.269C1166.82 310.302 1169.59 310.469 1171.45 311.541C1173.78 312.963 1174.52 316.354 1173.33 318.832Z" fill="#313F7A"/>
<path d="M227.518 424.928C228.614 426.23 230.274 426.881 231.798 427.636C233.323 428.39 234.88 429.439 235.388 431.067C235.753 432.234 235.507 433.521 235.841 434.688C236.206 435.959 237.199 436.952 237.747 438.159C238.287 439.366 238.12 441.145 236.865 441.558C236.285 441.749 235.658 441.59 235.07 441.431C231.703 440.502 228.264 439.533 225.421 437.508C222.578 435.482 220.41 432.147 220.751 428.668L227.518 424.928Z" fill="#E78B71"/>
<path d="M221.713 432.248C220.831 431.549 219.997 430.787 219.219 429.993C204.916 415.483 195.544 396.208 192.939 376.004C195.568 372.16 198.292 368.412 201.644 365.021C203.415 363.226 205.146 361.455 206.83 359.652C209.744 382.977 216.368 406.81 228.304 427.062C226.104 429.564 224.54 430.469 221.713 432.248Z" fill="#E78B71"/>
<path d="M117.984 428.499C117.984 403.84 121.916 378.148 129.444 359.652L144.899 376.139C135.401 391.093 127.872 408.073 126.625 427.777L117.984 428.499Z" fill="#E78B71"/>
<path d="M212.937 386.837V387.234C212.937 388.291 212.889 389.871 212.849 391.761C212.849 393.215 212.801 394.922 212.762 396.685C212.714 398.266 212.674 399.933 212.627 401.609C212.579 403.277 212.539 404.953 212.492 406.573C212.444 408.328 212.357 410.004 212.317 411.497C212.277 413.514 212.19 415.229 212.142 416.421C212.142 417.604 212.095 418.311 212.095 418.311H147.941C147.941 418.311 147.893 417.652 147.853 416.421C147.806 415.277 147.766 413.609 147.718 411.497C147.671 410.043 147.671 408.376 147.671 406.573C147.671 405.032 147.671 403.364 147.718 401.609C147.718 400.029 147.766 398.401 147.806 396.685C147.893 395.105 147.941 393.437 148.028 391.761C148.068 390.181 148.203 388.513 148.29 386.837C148.377 385.209 148.512 383.589 148.64 381.913C148.775 380.285 148.902 378.618 149.124 376.95C149.251 375.322 149.434 373.702 149.648 372.026C149.648 371.978 149.648 371.978 149.648 371.939C149.648 371.986 149.601 371.986 149.601 372.026C148.457 373.654 147.401 375.274 146.352 376.95C146.265 377.085 146.217 377.172 146.13 377.299L145.733 376.95L140.023 372.026L134.352 367.102L128.682 362.178L125.735 359.629C126.172 358.835 126.617 358.048 127.006 357.254C128.015 355.539 128.944 353.871 129.905 352.29C130.961 350.575 131.97 348.907 132.978 347.367C134.122 345.611 135.266 343.983 136.409 342.443C137.68 340.688 138.958 339.059 140.229 337.519C141.722 335.716 143.263 334.048 144.756 332.595C146.606 330.705 148.449 329.037 150.339 327.631C152.888 325.614 155.438 323.986 158.027 322.707C164.134 319.586 170.289 318.268 176.658 317.656L176.611 318.577H185.704C185.704 318.577 188.079 319.673 191.414 322.707C192.868 323.938 194.448 325.566 196.116 327.631C197.347 329.085 198.53 330.705 199.761 332.595C200.73 334.088 201.699 335.716 202.66 337.519C203.454 339.012 204.24 340.68 204.987 342.443C205.646 343.983 206.305 345.603 206.925 347.367C207.449 348.907 207.981 350.575 208.465 352.29C208.95 353.871 209.387 355.539 209.784 357.254C210.133 358.835 210.49 360.463 210.792 362.178C211.102 363.758 211.364 365.387 211.586 367.102C211.809 368.682 212.023 370.311 212.206 372.026C212.333 373.606 212.468 375.234 212.603 376.95C212.69 378.578 212.778 380.198 212.825 381.913C212.889 383.494 212.937 385.162 212.937 386.837Z" fill="white"/>
<path d="M196.147 327.649H150.363C152.912 325.631 155.461 324.003 158.05 322.725H191.446C192.899 323.956 194.48 325.584 196.147 327.649Z" fill="#00B0B0"/>
<path d="M202.7 337.535H140.261C141.754 335.732 143.295 334.065 144.788 332.611H199.801C200.762 334.104 201.731 335.732 202.7 337.535Z" fill="#00B0B0"/>
<path d="M206.964 347.375H133.01C134.154 345.619 135.298 343.991 136.441 342.451H205.035C205.686 343.991 206.345 345.619 206.964 347.375Z" fill="#00B0B0"/>
<path d="M209.815 357.264H127.03C128.038 355.549 128.968 353.881 129.929 352.301H208.497C208.981 353.881 209.418 355.549 209.815 357.264Z" fill="#00B0B0"/>
<path d="M211.618 367.104H134.368L128.698 362.18H210.824C211.134 363.768 211.396 365.388 211.618 367.104Z" fill="#00B0B0"/>
<path d="M212.627 376.951H145.749L140.039 372.027H212.238C212.365 373.607 212.5 375.235 212.627 376.951Z" fill="#00B0B0"/>
<path d="M212.936 386.837H148.298C148.385 385.209 148.52 383.589 148.647 381.914H212.849C212.889 383.494 212.936 385.162 212.936 386.837Z" fill="#00B0B0"/>
<path d="M212.849 391.754C212.849 393.207 212.801 394.915 212.762 396.678H147.813C147.901 395.097 147.948 393.43 148.036 391.754H212.849Z" fill="#00B0B0"/>
<path d="M212.627 401.602C212.579 403.27 212.54 404.946 212.492 406.566H147.679C147.679 405.025 147.679 403.357 147.726 401.602H212.627Z" fill="#00B0B0"/>
<path d="M212.317 411.49C212.278 413.507 212.19 415.222 212.143 416.414H147.854C147.806 415.27 147.766 413.602 147.719 411.49H212.317Z" fill="#00B0B0"/>
<path d="M126.625 427.772C126.315 429.447 126.871 431.139 127.252 432.799C127.633 434.459 127.824 436.325 126.895 437.746C126.228 438.771 125.084 439.398 124.385 440.399C123.639 441.487 123.504 442.893 122.916 444.076C122.328 445.259 120.851 446.26 119.731 445.561C119.215 445.236 118.937 444.648 118.691 444.092C117.269 440.907 115.824 437.635 115.578 434.149C115.331 430.67 116.531 426.866 119.429 424.92L126.625 427.772Z" fill="#E78B71"/>
<path d="M103.046 569.738C106.024 573.677 108.446 578.021 110.241 582.619C110.9 584.311 111.218 586.709 109.59 587.511C108.256 588.163 106.747 587.122 105.659 586.106C98.3124 579.204 92.6578 570.508 89.3223 560.986C93.595 562.209 97.6373 564.258 101.14 566.998L103.046 569.738Z" fill="#80715C"/>
<path d="M240.09 575.592C245.704 575.044 251.319 574.504 256.942 573.956C257.816 573.868 258.769 573.813 259.476 574.329C260.564 575.131 260.373 576.926 259.444 577.911C258.515 578.895 257.133 579.269 255.822 579.602C247.865 581.627 239.899 583.66 231.941 585.686C230.234 586.122 228.487 586.559 226.731 586.416C224.976 586.273 223.173 585.439 222.332 583.891C221.49 582.342 221.974 580.071 223.586 579.356L240.09 575.592Z" fill="#80715C"/>
<path d="M175.114 318.584H185.748V304.17H175.114V318.584Z" fill="#E78B71"/>
<path d="M164.365 302.958C169.146 311.86 181.241 315.49 189.747 310.923C198.252 306.357 199.936 295.318 195.155 286.415C190.374 277.512 179.605 274.002 171.099 278.568C162.602 283.135 159.584 294.055 164.365 302.958Z" fill="#E78B71"/>
<path d="M170.146 311.899C168.558 311.415 167.248 310.327 165.794 309.533C157.527 305.022 157.598 289.17 159.671 285.127C161.704 281.156 165.739 278.186 169.908 276.78C172.235 275.994 174.896 275.16 177.35 275.16C179.939 275.16 181.694 275.041 184.092 273.786C186.411 272.571 188.913 271.134 191.486 271.642C194.258 272.19 196.212 275.113 196.069 277.932C195.926 280.759 193.98 283.301 191.478 284.619C189.556 285.628 187.404 285.993 185.284 286.303C182.305 286.74 179.947 286.199 177.937 289.066C177.064 290.313 175.674 294.832 176.873 296.238C175.809 294.991 173.371 295.618 173.045 297.223C172.72 298.827 174.713 300.36 176.182 299.629L176.262 311.987C174.244 312.693 172.188 312.519 170.146 311.899Z" fill="#313F7A"/>
<path d="M199.801 294.387C199.992 295.491 199.237 296.547 198.134 296.73C197.022 296.921 195.973 296.166 195.791 295.062C195.608 293.95 196.355 292.902 197.458 292.719C198.562 292.529 199.619 293.283 199.801 294.387Z" fill="#E78B71"/>
<path d="M181.884 286.478C179.756 286.844 178.334 289.043 178.159 291.196C177.985 293.348 178.779 295.445 179.637 297.43C179.073 298.161 177.913 298.176 177.135 297.684C176.357 297.192 175.896 296.326 175.555 295.476C174.832 293.658 174.498 291.609 175.054 289.726C175.61 287.844 177.175 286.2 179.12 285.93L181.884 286.478Z" fill="#313F7A"/>
<path d="M211.976 418.074L242.115 575.663L221.958 582.89L182.472 451.429L159.02 514.67C157.55 517.156 104.626 571.962 104.626 571.962L89.3301 562.075L131.446 504.06L147.544 418.082H211.976V418.074Z" fill="#404D8B"/>
<path d="M115.935 437.951C112.163 446.512 105.69 453.795 97.7884 458.774C93.9048 461.22 89.6957 463.071 85.2879 464.325C81.3965 465.429 77.4097 467.399 78.1324 472.331C80.094 485.713 99.345 470.425 103.689 466.43C107.779 462.674 111.321 458.321 114.164 453.548C114.903 452.309 120.168 439.221 120.129 439.221C118.644 439.293 117.135 438.84 115.935 437.951Z" fill="#E78B71"/>
<path d="M115.507 439.405C115.038 438.277 114.554 437.102 114.609 435.887C114.633 435.235 114.848 434.584 115.229 434.06C115.459 433.742 116.11 433.115 116.317 433.869C116.444 434.338 116.134 434.814 116.539 435.156C117.016 434.743 116.92 433.941 117.175 433.377C117.421 432.829 117.889 432.344 118.485 432.241C119.184 432.122 119.851 432.543 120.431 432.94C120.756 433.17 121.098 433.409 121.312 433.742C122.114 434.973 121.05 437.753 120.375 438.849C119.684 439.969 119.287 441.057 118.008 441.7L115.507 439.405Z" fill="#E78B71"/>
<path d="M53.727 531.785C48.4457 547.804 34.0392 560.455 17.4726 563.624C16.6546 562.076 15.8366 560.527 15.0186 558.978C30.8466 552.855 41.7745 535.883 40.8056 518.936L53.727 531.785Z" fill="#E78B71"/>
<path d="M91.1569 540.814C94.5004 554.871 92.7691 569.809 88.1787 583.508C87.4401 585.716 86.5665 587.988 84.8352 589.544C83.1039 591.101 80.2686 591.665 78.4579 590.195C86.368 572.628 83.9616 550.844 72.4062 535.438L91.1569 540.814Z" fill="#E78B71"/>
<path d="M68.5724 462.7L76.7417 463.68L78.0186 453.035L69.8493 452.055L68.5724 462.7Z" fill="#E78B71"/>
<path d="M57.1027 444.02C58.3257 453.757 66.7996 460.705 76.0439 459.546C85.2802 458.386 91.7766 449.555 90.5536 439.818C89.3306 430.081 80.8566 423.132 71.6203 424.292C62.384 425.451 55.8876 434.292 57.1027 444.02Z" fill="#E78B71"/>
<path d="M88.6787 442.535C88.7343 443.702 89.727 444.6 90.8945 444.544C92.0619 444.488 92.9594 443.496 92.9038 442.328C92.8482 441.161 91.8554 440.263 90.688 440.319C89.5206 440.382 88.6231 441.375 88.6787 442.535Z" fill="#E78B71"/>
<path d="M42.0766 493.766C47.1912 482.592 53.7829 466.255 64.4408 462.205C65.3779 461.848 66.3151 461.578 67.2443 461.371L78.1801 462.681C81.3569 464.381 84.0889 467.319 86.0584 471.489C90.0135 479.875 91.9116 489.104 93.8255 498.118C96.9149 512.659 97.8758 527.558 98.7336 542.362C74.0425 544.562 48.8192 540.448 26.1056 530.528C25.8594 530.425 25.6212 530.314 25.375 530.211C25.3829 530.219 40.5598 497.077 42.0766 493.766Z" fill="#EA4497"/>
<path d="M87.1784 426.816C88.3935 427.492 89.6483 428.405 89.9263 429.771C90.5775 432.94 87.1149 433.146 85.1692 433.924C82.1116 435.147 79.7687 437.371 77.9818 440.111C75.8852 443.32 74.543 446.965 72.637 450.3C67.8639 458.655 59.0882 464.921 49.4866 465.485C39.8849 466.049 29.91 460.22 26.7571 451.134C25.8914 448.656 25.534 445.924 26.2488 443.391C26.9636 440.858 28.8776 438.586 31.4189 437.911C35.4216 436.847 39.3608 439.801 43.4905 440.143C53.6004 440.977 56.6342 429.334 64.2186 425.506C71.2472 421.956 80.4597 423.06 87.1784 426.816Z" fill="#221F1F"/>
<path d="M23.1589 491.496C29.6554 484.762 38.2405 480.163 47.3736 478.21C51.8607 477.249 56.4511 476.971 61.0255 477.312C65.06 477.614 69.4836 477.146 70.5081 472.269C73.2798 459.03 49.9388 466.742 44.4827 468.989C39.3523 471.11 34.5237 473.969 30.2113 477.463C29.0915 478.369 19.6328 488.836 19.6725 488.852C21.0861 489.297 22.3409 490.25 23.1589 491.496Z" fill="#E78B71"/>
<path d="M85.5426 588.99C87.8934 589.585 90.2362 590.189 92.587 590.784C93.4765 591.015 94.5248 591.388 94.7313 592.285C94.8663 592.873 94.5566 593.5 94.088 593.89C93.6194 594.279 93.0317 594.477 92.444 594.644C89.0926 595.589 85.5426 595.716 82.0958 595.232C81.1508 595.097 80.1978 594.914 79.3639 594.453C78.53 593.993 77.8311 593.207 77.6802 592.269C77.5293 591.324 78.0614 590.26 78.9827 589.998L85.5426 588.99Z" fill="#E72790"/>
<path d="M18.0604 563.115C17.3377 565.815 16.615 568.523 15.8923 571.223C15.7256 571.859 15.5032 572.558 14.9393 572.883C14.2484 573.288 13.3192 572.931 12.8188 572.319C12.3185 571.7 12.1359 570.89 11.977 570.112C11.7308 568.936 11.4846 567.761 11.2384 566.585C10.9843 565.37 10.7222 564.131 10.7937 562.893C10.8652 561.654 11.294 560.383 12.2232 559.557C13.1524 558.731 14.6296 558.469 15.67 559.152L18.0604 563.115Z" fill="#E72790"/>
<path d="M23.7075 490.59C23.8583 491.805 24.0013 493.06 23.628 494.22C23.2548 495.379 22.1985 496.419 20.9755 496.356C20.4513 496.785 20.1654 497.436 19.6889 497.92C19.2124 498.405 18.3626 498.675 17.8861 498.198C17.5923 497.905 17.5605 497.452 17.5446 497.039C17.4731 495.165 17.4414 493.235 18.0608 491.464C18.6803 489.693 20.078 488.073 21.9205 487.707L23.7075 490.59Z" fill="#E78B71"/>
<path d="M985.206 364.133L979.187 367.238L972.468 334.343L978.488 331.238L985.206 364.133Z" fill="#2D2B2B"/>
<path d="M915.414 488.453H729.575V494.806H915.414V488.453Z" fill="#EA4497"/>
<path d="M729.575 306.588V492.426H735.929V306.588H729.575Z" fill="#EA4497"/>
<path d="M910.649 350.268V494.809H915.589V350.268H910.649Z" fill="#EA4497"/>
<path d="M216 210C254.66 210 286 178.66 286 140C286 101.34 254.66 70 216 70C177.34 70 146 101.34 146 140C146 178.66 177.34 210 216 210Z" fill="#E94C89"/>
<path d="M216.68 199.559C249.574 199.559 276.24 172.894 276.24 139.999C276.24 107.105 249.574 80.4395 216.68 80.4395C183.786 80.4395 157.12 107.105 157.12 139.999C157.12 172.894 183.786 199.559 216.68 199.559Z" fill="#F05792"/>
<path d="M216.04 181.32C238.905 181.32 257.44 162.784 257.44 139.92C257.44 117.055 238.905 98.5195 216.04 98.5195C193.175 98.5195 174.64 117.055 174.64 139.92C174.64 162.784 193.175 181.32 216.04 181.32Z" fill="#5DC6C6"/>
<path d="M167.24 148.677V137.837H167L163.36 145.997C162.6 147.597 162 148.117 160.96 148.117C159.88 148.117 159.24 147.557 158.52 145.997L154.88 137.837H154.64V148.677C154.64 150.397 153.76 151.397 152.24 151.397C150.72 151.397 149.96 150.437 149.96 148.677V132.877C149.96 130.757 151.16 129.477 153.08 129.477C154.68 129.477 155.64 130.237 156.56 132.277L160.84 141.917H161L165.28 132.277C166.24 130.237 167.16 129.517 168.8 129.517C170.76 129.517 171.88 130.757 171.88 132.917V148.717C171.88 150.437 171 151.437 169.48 151.437C168.04 151.397 167.24 150.477 167.24 148.677Z" fill="white"/>
<path d="M174.64 149.278C174.64 148.758 174.8 148.158 175.16 147.078L179.92 133.118C180.76 130.558 182 129.518 184.28 129.518C186.56 129.518 187.76 130.518 188.64 133.118L193.4 147.078C193.68 147.958 193.84 148.598 193.84 149.158C193.84 150.518 192.88 151.398 191.36 151.398C189.96 151.398 189.16 150.638 188.64 148.838L187.8 146.278H180.56L179.72 148.838C179.2 150.678 178.44 151.398 177.08 151.398C175.64 151.438 174.64 150.558 174.64 149.278ZM186.72 142.518L184.32 134.358H184.08L181.64 142.518H186.72Z" fill="white"/>
<path d="M213.96 148.677V137.837H213.72L210.08 145.997C209.32 147.597 208.72 148.117 207.68 148.117C206.6 148.117 205.96 147.557 205.24 145.997L201.6 137.837H201.36V148.677C201.36 150.397 200.48 151.397 198.96 151.397C197.44 151.397 196.68 150.437 196.68 148.677V132.877C196.68 130.757 197.88 129.477 199.8 129.477C201.4 129.477 202.36 130.237 203.28 132.277L207.56 141.917H207.72L212 132.277C212.96 130.237 213.88 129.517 215.52 129.517C217.48 129.517 218.6 130.757 218.6 132.917V148.717C218.6 150.437 217.72 151.437 216.2 151.437C214.76 151.397 213.96 150.477 213.96 148.677Z" fill="white"/>
<path d="M221.4 149.278C221.4 148.758 221.56 148.158 221.92 147.078L226.68 133.118C227.52 130.558 228.76 129.518 231.04 129.518C233.32 129.518 234.52 130.518 235.4 133.118L240.16 147.078C240.44 147.958 240.6 148.598 240.6 149.158C240.6 150.518 239.64 151.398 238.12 151.398C236.72 151.398 235.92 150.638 235.4 148.838L234.56 146.278H227.32L226.48 148.838C225.96 150.678 225.2 151.398 223.84 151.398C222.36 151.438 221.4 150.558 221.4 149.278ZM233.48 142.518L231.08 134.358H230.84L228.4 142.518H233.48Z" fill="white"/>
<path d="M243.32 132.678C243.32 130.718 244.4 129.678 246.36 129.678H251.76C258.12 129.678 261.52 133.438 261.52 140.438C261.52 147.478 258.12 151.238 251.76 151.238H246.36C244.4 151.238 243.32 150.198 243.32 148.238V132.678ZM251 147.078C254.6 147.078 256.2 145.038 256.2 140.438C256.2 135.878 254.56 133.798 251 133.798H248.56V147.078H251V147.078Z" fill="white"/>
<path d="M263.88 139.277C263.88 133.037 267.4 129.277 273.4 129.277C279.4 129.277 282.92 133.037 282.92 139.277V141.837C282.92 147.997 279.4 151.717 273.4 151.717C267.4 151.717 263.88 147.997 263.88 141.837V139.277ZM269.12 141.837C269.12 145.357 270.72 147.437 273.4 147.437C276.08 147.437 277.68 145.357 277.68 141.837V139.237C277.68 135.677 276.08 133.557 273.4 133.557C270.68 133.557 269.12 135.677 269.12 139.237V141.837Z" fill="white"/>
<path fill-rule="evenodd" clip-rule="evenodd" d="M260.08 107.918C260.04 108.318 259.8 108.518 259.48 108.638C258.12 109.278 257.08 110.238 256.32 111.558C255.88 112.318 255.36 112.318 254.96 111.518C254.28 110.198 253.36 109.118 252.04 108.398C251.28 107.958 251.32 107.398 252.12 106.998C253.52 106.318 254.56 105.358 255.32 103.998C255.72 103.278 256.28 103.278 256.64 104.038C257.32 105.438 258.28 106.478 259.64 107.238C260 107.478 260.08 107.638 260.08 107.918Z" fill="#F7CE14"/>
<path fill-rule="evenodd" clip-rule="evenodd" d="M251.16 100.879C251.16 101.159 251 101.279 250.8 101.359C250.12 101.679 249.6 102.199 249.2 102.799C248.92 103.279 248.6 103.279 248.32 102.759C248 102.119 247.52 101.639 246.92 101.239C246.4 100.919 246.36 100.599 246.92 100.279C247.6 99.9185 248.08 99.4385 248.48 98.7985C248.64 98.5185 249 98.3185 249.2 98.6785C249.64 99.4785 250.24 100.119 251 100.599L251.16 100.879Z" fill="#F7CE14"/>
<defs>
<linearGradient id="paint0_linear" x1="731.014" y1="168.336" x2="731.014" y2="164.692" gradientUnits="userSpaceOnUse">
<stop stop-color="white"/>
<stop offset="0.2949" stop-color="#FCFEFE"/>
<stop offset="0.4955" stop-color="#F3FAFA"/>
<stop offset="0.6681" stop-color="#E4F4F5"/>
<stop offset="0.8248" stop-color="#CEEBEC"/>
<stop offset="0.9696" stop-color="#B3E0E2"/>
<stop offset="1" stop-color="#ACDDDF"/>
</linearGradient>
<linearGradient id="paint1_linear" x1="731.014" y1="191.103" x2="731.014" y2="189.381" gradientUnits="userSpaceOnUse">
<stop stop-color="#CACDD2"/>
<stop offset="0.3744" stop-color="#C7CACF"/>
<stop offset="0.6212" stop-color="#BFC2C6"/>
<stop offset="0.8305" stop-color="#B0B3B8"/>
<stop offset="1" stop-color="#9EA1A5"/>
</linearGradient>
<linearGradient id="paint2_linear" x1="583.868" y1="178.252" x2="583.868" y2="176.027" gradientUnits="userSpaceOnUse">
<stop stop-color="white"/>
<stop offset="0.2949" stop-color="#FCFEFE"/>
<stop offset="0.4955" stop-color="#F3FAFA"/>
<stop offset="0.6681" stop-color="#E4F4F5"/>
<stop offset="0.8248" stop-color="#CEEBEC"/>
<stop offset="0.9696" stop-color="#B3E0E2"/>
<stop offset="1" stop-color="#ACDDDF"/>
</linearGradient>
</defs>
</svg>
