<svg width="142" height="51" viewBox="0 0 142 51" fill="none" xmlns="http://www.w3.org/2000/svg">
<path d="M132.108 49.7374H10.2731C5.33765 49.7374 1.28857 45.6883 1.28857 40.7529V10.0725C1.28857 5.13698 5.33765 1.08789 10.2731 1.08789H132.108C137.044 1.08789 141.093 5.13698 141.093 10.0725V40.7529C141.093 45.6883 137.044 49.7374 132.108 49.7374Z" fill="#37AFAE"/>
<path d="M134.365 50.8251H7.63484C3.4246 50.8251 0 47.4005 0 43.1902V7.63484C0 3.4246 3.4246 0 7.63484 0H134.365C138.575 0 142 3.4246 142 7.63484V43.1902C142 47.4005 138.575 50.8251 134.365 50.8251ZM7.63484 2.19577C4.63328 2.19577 2.19577 4.63328 2.19577 7.63484V43.1902C2.19577 46.1918 4.63328 48.6293 7.63484 48.6293H134.365C137.367 48.6293 139.804 46.1918 139.804 43.1902V7.63484C139.804 4.63328 137.367 2.19577 134.365 2.19577H7.63484Z" fill="white"/>
<path d="M11.1806 36.3215L21.253 26.2693L24.7984 29.8147L12.8123 36.4625C12.349 36.7244 11.8051 36.7042 11.3418 36.4423L11.1806 36.3215ZM20.2457 25.262L10.6367 34.8509V15.6732L20.2457 25.262ZM26.2489 21.2935L30.9426 23.8922C31.4059 24.1541 31.6879 24.6375 31.6879 25.1412C31.6879 25.6649 31.4059 26.1484 30.9426 26.3901L26.128 29.0694L22.2804 25.2419L26.2489 21.2935ZM11.0799 14.0817C11.1605 14.0011 11.2612 13.9206 11.3619 13.8601C11.8051 13.5983 12.3692 13.5983 12.8325 13.84L24.9395 20.5482L21.253 24.2145L11.0799 14.0817Z" fill="white"/>
<path d="M43.6336 15.1085C43.6336 16.0352 43.412 16.8208 42.8278 17.405C42.1429 18.0899 41.3371 18.4324 40.3097 18.4324C39.2823 18.4324 38.4765 18.0899 37.7916 17.405C37.1067 16.7201 36.7642 15.9143 36.7642 14.8869C36.7642 13.8595 37.1067 13.0538 37.7916 12.3688C38.4564 11.6638 39.2622 11.3213 40.2896 11.3213C40.7529 11.3213 41.2162 11.4422 41.6594 11.6638C42.1227 11.8854 42.4652 12.1271 42.6868 12.4696L42.1227 13.0336C41.6594 12.4696 41.0954 12.2278 40.2896 12.2278C39.6046 12.2278 38.9197 12.4494 38.4564 13.0336C37.8923 13.4969 37.6506 14.1819 37.6506 14.9877C37.6506 15.7934 37.8722 16.4784 38.4564 16.9417C39.0205 17.405 39.6046 17.7475 40.2896 17.7475C41.0954 17.7475 41.6594 17.5259 42.2436 16.9417C42.5861 16.5992 42.8077 16.1359 42.8077 15.5718H40.2896V14.6452H43.6134L43.6336 15.1085ZM48.9115 12.248H45.8092V14.4236H48.6698V15.2294H45.8092V17.405H48.9115V18.3317H44.9027V11.4422H48.9115V12.248ZM52.6987 18.3317H51.772V12.248H49.818V11.4422H54.6326V12.248H52.6786V18.3317H52.6987ZM57.9766 18.3317V11.4422H58.9033V18.3317H57.9766ZM62.8113 18.3317H61.8847V12.248H59.9306V11.4422H64.6445V12.248H62.6905V18.3317H62.8113ZM73.7096 17.405C73.0247 18.0899 72.2189 18.4324 71.1915 18.4324C70.1642 18.4324 69.3584 18.0899 68.6734 17.405C67.9885 16.7201 67.6461 15.9143 67.6461 14.8869C67.6461 13.8595 67.9885 13.0538 68.6734 12.3688C69.3584 11.6839 70.1642 11.3415 71.1915 11.3415C72.2189 11.3415 73.0247 11.6839 73.7096 12.3688C74.3945 13.0538 74.737 13.8595 74.737 14.8869C74.737 15.9143 74.3945 16.7201 73.7096 17.405ZM69.3382 16.8208C69.8016 17.2841 70.4865 17.6266 71.1714 17.6266C71.8563 17.6266 72.5412 17.405 73.0046 16.8208C73.4679 16.3575 73.8104 15.6726 73.8104 14.8668C73.8104 14.061 73.5888 13.3761 73.0046 12.9127C72.5412 12.4494 71.8563 12.107 71.1714 12.107C70.4865 12.107 69.8016 12.3286 69.3382 12.9127C68.8749 13.3761 68.5324 14.061 68.5324 14.8668C68.5324 15.6726 68.7742 16.3776 69.3382 16.8208ZM76.0061 18.3317V11.4422H77.0335L80.3574 16.841V11.4422H81.284V18.3317H80.3574L76.7918 12.7113V18.3317H76.0061Z" fill="white"/>
<path d="M71.1916 18.594C70.1239 18.594 69.298 18.2515 68.5526 17.5263C67.8274 16.8011 67.4849 15.955 67.4849 14.8874C67.4849 13.8197 67.8274 12.9938 68.5526 12.2484C69.2778 11.5232 70.1239 11.1807 71.1916 11.1807C72.2592 11.1807 73.0852 11.5232 73.8305 12.2484C74.5557 12.9736 74.8982 13.8197 74.8982 14.8874C74.8982 15.955 74.5557 16.781 73.8305 17.5263C73.0852 18.2515 72.2391 18.594 71.1916 18.594ZM71.1916 11.4628C70.2246 11.4628 69.439 11.7851 68.7742 12.4499C68.0893 13.1348 67.7871 13.9003 67.7871 14.8672C67.7871 15.8342 68.1094 16.6198 68.7742 17.2846C69.4591 17.9695 70.2246 18.2717 71.1916 18.2717C72.1585 18.2717 72.9442 17.9494 73.6089 17.2846C74.2939 16.5997 74.596 15.8342 74.596 14.8672C74.596 13.9003 74.2737 13.1146 73.6089 12.4499C72.924 11.7851 72.1585 11.4628 71.1916 11.4628ZM40.2896 18.594C39.2219 18.594 38.396 18.2515 37.6506 17.5263C36.9254 16.8011 36.583 15.955 36.583 14.8874C36.583 13.8197 36.9254 12.9938 37.6506 12.2484C38.396 11.5232 39.2219 11.1807 40.2896 11.1807C40.7731 11.1807 41.2565 11.3016 41.74 11.5433C42.1429 11.7448 42.5659 11.9865 42.8278 12.3894L42.8883 12.4901L42.1228 13.2556L42.022 13.1348C41.599 12.611 41.0752 12.3894 40.2896 12.3894C39.5644 12.3894 38.96 12.6513 38.5571 13.1348C38.0334 13.5578 37.7917 14.1823 37.7917 14.9881C37.7917 15.7939 38.0535 16.4385 38.537 16.8213C39.0406 17.2242 39.6047 17.5868 40.2896 17.5868C41.0551 17.5868 41.599 17.3652 42.1429 16.8213C42.4652 16.4989 42.6465 16.1162 42.6667 15.6932H40.1486V14.4845H43.7746V15.0888C43.7746 16.1162 43.4926 16.922 42.9285 17.486C42.1832 18.2515 41.3573 18.594 40.2896 18.594ZM40.2896 11.4628C39.3226 11.4628 38.537 11.7851 37.8722 12.4499C37.1873 13.1348 36.8851 13.9003 36.8851 14.8672C36.8851 15.8342 37.2075 16.6198 37.8722 17.2846C38.5571 17.9695 39.3226 18.2717 40.2896 18.2717C41.2565 18.2717 42.0422 17.9494 42.707 17.2846C43.2106 16.781 43.4725 16.0356 43.4725 15.0888V14.7866H40.4306V15.4111H42.9487V15.5521C42.9487 16.1162 42.7271 16.64 42.3242 17.0227C41.74 17.6069 41.1155 17.8688 40.2694 17.8688C39.4838 17.8688 38.8593 17.4457 38.3356 17.0227C37.7715 16.5594 37.4693 15.8745 37.4693 14.9478C37.4693 14.0413 37.7514 13.3362 38.3356 12.8729C38.7586 12.3491 39.4435 12.047 40.2694 12.047C41.0752 12.047 41.6594 12.2686 42.1228 12.7722L42.5055 12.3894C42.3242 12.1477 42.0422 11.9462 41.599 11.7246C41.176 11.5836 40.7328 11.4628 40.2896 11.4628ZM81.4251 18.4731H80.2768L80.2365 18.4127L76.953 13.1952V18.4731H75.8651V11.2815H77.1343L77.1745 11.3419L80.2365 16.2975V11.2815H81.4452V18.4731H81.4251ZM80.4581 18.171H81.1431V11.5836H80.5186V17.345L76.953 11.5836H76.1472V18.1911H76.6508V12.188L80.4581 18.171ZM62.7912 18.4731H61.7236V12.3894H59.7695V11.2815H64.7654V12.3894H62.8315V18.3321H62.7912V18.4731ZM62.0257 18.171H62.5293V12.0873H64.4834V11.5836H60.0717V12.0873H62.0257V18.171ZM59.0443 18.4731H57.8356V11.2815H59.0443V18.4731ZM58.1177 18.171H58.7421V11.5836H58.1177V18.171ZM52.8397 18.4731H51.6311V12.3894H49.677V11.2815H54.7938V12.3894H52.8397V18.4731ZM51.9332 18.171H52.5577V12.0873H54.5118V11.5836H49.9792V12.0873H51.9332V18.171ZM49.0525 18.4731H44.7416V11.2815H49.0525V12.3894H45.9503V14.283H48.8108V15.3708H45.9503V17.2644H49.0525V18.4731ZM45.0437 18.171H48.7705V17.5465H45.6682V15.0687H48.5288V14.5651H45.6682V12.0873H48.7705V11.5836H45.0437V18.171ZM71.1916 17.7882C70.5268 17.7882 69.7814 17.4659 69.2577 16.9421C68.6936 16.4788 68.4116 15.7939 68.4116 14.8874C68.4116 14.1219 68.7138 13.3765 69.2577 12.8326C69.6807 12.2887 70.3656 11.9865 71.1916 11.9865C71.8765 11.9865 72.6017 12.3088 73.1255 12.8326C73.6895 13.2758 73.9715 13.9809 73.9715 14.8874C73.9715 15.6529 73.6694 16.3982 73.1255 16.9421C72.6823 17.486 71.9974 17.7882 71.1916 17.7882ZM71.1916 12.2686C70.4664 12.2686 69.862 12.5304 69.4591 13.0139C68.9555 13.5175 68.6936 14.1823 68.6936 14.8672C68.6936 15.6932 68.9354 16.2975 69.439 16.7004L69.4591 16.7205C69.9225 17.1839 70.5872 17.486 71.1916 17.486C71.9168 17.486 72.5211 17.2242 72.924 16.7407C73.4276 16.2371 73.6895 15.5723 73.6895 14.8874C73.6895 14.0614 73.4276 13.4369 72.9442 13.0542C72.4405 12.5707 71.7758 12.2686 71.1916 12.2686Z" fill="white"/>
<path d="M67.3845 28.4248C64.6247 28.4248 62.449 30.4997 62.449 33.3602C62.449 36.1201 64.6247 38.2957 67.3845 38.2957C70.1443 38.2957 72.3199 36.2208 72.3199 33.3602C72.3401 30.3788 70.1443 28.4248 67.3845 28.4248ZM67.3845 36.2409C65.8938 36.2409 64.6247 34.9718 64.6247 33.2595C64.6247 31.5472 65.8938 30.2781 67.3845 30.2781C68.8752 30.2781 70.1443 31.4264 70.1443 33.2595C70.1443 34.9718 68.8953 36.2409 67.3845 36.2409ZM56.7078 28.4248C53.948 28.4248 51.7723 30.4997 51.7723 33.3602C51.7723 36.1201 53.948 38.2957 56.7078 38.2957C59.4676 38.2957 61.6433 36.2208 61.6433 33.3602C61.6634 30.3788 59.4676 28.4248 56.7078 28.4248ZM56.7078 36.2409C55.2171 36.2409 53.948 34.9718 53.948 33.2595C53.948 31.5472 55.2171 30.2781 56.7078 30.2781C58.1985 30.2781 59.4676 31.4264 59.4676 33.2595C59.4676 34.9718 58.2187 36.2409 56.7078 36.2409ZM43.9763 29.9155V31.9904H48.9118C48.7909 33.1387 48.3477 34.0653 47.7635 34.6294C47.0786 35.3143 45.9304 36.1201 43.9763 36.1201C40.8741 36.1201 38.5776 33.7027 38.5776 30.6004C38.5776 27.4981 40.9949 25.0808 43.9763 25.0808C45.5879 25.0808 46.8369 25.7657 47.7635 26.5715L49.2543 25.0808C47.9851 23.9325 46.3937 23.0059 44.0972 23.0059C39.9676 23.0059 36.4019 26.4506 36.4019 30.5803C36.4019 34.7099 39.9676 38.1547 44.0972 38.1547C46.3937 38.1547 48.0053 37.4698 49.3751 35.9791C50.745 34.6092 51.2083 32.6552 51.2083 31.1645C51.2083 30.7011 51.2083 30.2378 51.0874 29.8954L43.9763 29.9155ZM96.0907 31.5271C95.6274 30.3788 94.4791 28.4248 91.961 28.4248C89.4429 28.4248 87.368 30.3788 87.368 33.3602C87.368 36.1201 89.4429 38.2957 92.1826 38.2957C94.3583 38.2957 95.7482 36.9259 96.1914 36.1201L94.5798 34.9718C94.0158 35.7776 93.3107 36.3417 92.1625 36.3417C91.0142 36.3417 90.3293 35.8783 89.7451 34.851L96.2921 32.0911L96.0907 31.5271ZM89.4429 33.1387C89.4429 31.3055 90.9337 30.2781 91.961 30.2781C92.7668 30.2781 93.5726 30.7414 93.7942 31.3055L89.4429 33.1387ZM84.0442 37.8525H86.2198V23.5095H84.0442V37.8525ZM80.5994 29.4522C80.0354 28.8881 79.1087 28.3039 77.9605 28.3039C75.5431 28.3039 73.2466 30.4796 73.2466 33.2394C73.2466 35.9992 75.4222 38.054 77.9605 38.054C79.1087 38.054 80.0354 37.4899 80.4785 36.9057H80.5994V37.5906C80.5994 39.4238 79.572 40.4512 77.9605 40.4512C76.6913 40.4512 75.7848 39.5245 75.5431 38.7389L73.7099 39.5447C74.274 40.8138 75.664 42.4052 78.0813 42.4052C80.5994 42.4052 82.6743 40.9145 82.6743 37.3489V28.6262H80.5994V29.4522ZM78.0813 36.2409C76.5906 36.2409 75.3215 34.9718 75.3215 33.2595C75.3215 31.5472 76.5906 30.2781 78.0813 30.2781C79.572 30.2781 80.7203 31.5472 80.7203 33.2595C80.7203 34.9718 79.572 36.2409 78.0813 36.2409ZM106.083 23.4893H100.926V37.8324H103.101V32.4336H106.083C108.5 32.4336 110.796 30.7213 110.796 27.9615C110.796 25.2016 108.5 23.4893 106.083 23.4893ZM106.203 30.3788H103.101V25.4434H106.203C107.815 25.4434 108.722 26.8132 108.722 27.8607C108.621 29.1097 107.694 30.3788 106.203 30.3788ZM119.418 28.3039C117.807 28.3039 116.195 28.9888 115.631 30.4796L117.585 31.2853C118.049 30.4796 118.733 30.258 119.539 30.258C120.687 30.258 121.715 30.9429 121.836 32.0911V32.212C121.493 31.9904 120.567 31.6479 119.66 31.6479C117.585 31.6479 115.53 32.7962 115.53 34.8711C115.53 36.8251 117.243 38.0943 119.096 38.0943C120.587 38.0943 121.272 37.4093 121.856 36.7244H121.977V37.8727H124.052V32.3329C123.77 29.8148 121.816 28.3039 119.418 28.3039ZM119.177 36.2409C118.492 36.2409 117.464 35.8985 117.464 34.9718C117.464 33.8236 118.733 33.4811 119.761 33.4811C120.687 33.4811 121.131 33.7027 121.715 33.9444C121.473 35.3143 120.325 36.2409 119.177 36.2409ZM131.243 28.6665L128.826 34.8711H128.705L126.187 28.6665H123.89L127.678 37.3892L125.502 42.2038H127.678L133.54 28.6464H131.243V28.6665ZM111.945 37.8525H114.12V23.5095H111.945V37.8525Z" fill="white"/>
</svg>
