<svg width="142" height="52" viewBox="0 0 142 52" fill="none" xmlns="http://www.w3.org/2000/svg">
<path d="M132.108 50.1158H10.2732C5.33772 50.1158 1.28864 46.0667 1.28864 41.1312V10.4508C1.28864 5.51539 5.33772 1.46631 10.2732 1.46631H132.108C137.044 1.46631 141.093 5.51539 141.093 10.4508V41.1312C141.093 46.0667 137.044 50.1158 132.108 50.1158Z" fill="#EA4C89"/>
<path opacity="0.18" d="M134.545 1.46631H9.10413C23.8903 12.5257 37.3067 25.2975 48.7892 40.2046C51.2871 43.4479 53.6239 46.7516 55.86 50.1158H134.545C138.151 50.1158 141.092 47.1746 141.092 43.5687V8.01334C141.092 4.40743 138.151 1.46631 134.545 1.46631Z" fill="white"/>
<path d="M134.365 51.2035H7.63484C3.4246 51.2035 0 47.7789 0 43.5687V8.01326C0 3.80302 3.4246 0.378418 7.63484 0.378418H134.365C138.575 0.378418 142 3.80302 142 8.01326V43.5687C142 47.7789 138.575 51.2035 134.365 51.2035ZM7.63484 2.57419C4.63328 2.57419 2.19577 5.0117 2.19577 8.01326V43.5687C2.19577 46.5702 4.63328 49.0077 7.63484 49.0077H134.365C137.367 49.0077 139.804 46.5702 139.804 43.5687V8.01326C139.804 5.0117 137.367 2.57419 134.365 2.57419H7.63484Z" fill="white"/>
<path d="M11.1806 36.6994L21.253 26.6472L24.7984 30.1927L12.8123 36.8404C12.349 37.1023 11.8051 37.0822 11.3418 36.8203L11.1806 36.6994ZM20.2457 25.64L10.6367 35.2288V16.0511L20.2457 25.64ZM26.2489 21.6715L30.9426 24.2701C31.4059 24.532 31.6879 25.0155 31.6879 25.5191C31.6879 26.0429 31.4059 26.5263 30.9426 26.7681L26.128 29.4473L22.2804 25.6198L26.2489 21.6715ZM11.0799 14.4597C11.1605 14.3791 11.2612 14.2985 11.3619 14.2381C11.8051 13.9762 12.3692 13.9762 12.8325 14.2179L24.9395 20.9261L21.253 24.5924L11.0799 14.4597Z" fill="white"/>
<path d="M43.6337 15.4874C43.6337 16.4141 43.4121 17.1997 42.8279 17.7839C42.143 18.4688 41.3372 18.8113 40.3098 18.8113C39.2824 18.8113 38.4766 18.4688 37.7917 17.7839C37.1068 17.099 36.7643 16.2932 36.7643 15.2658C36.7643 14.2384 37.1068 13.4326 37.7917 12.7477C38.4565 12.0427 39.2623 11.7002 40.2897 11.7002C40.753 11.7002 41.2163 11.8211 41.6595 12.0427C42.1228 12.2642 42.4653 12.506 42.6869 12.8484L42.1228 13.4125C41.6595 12.8484 41.0955 12.6067 40.2897 12.6067C39.6047 12.6067 38.9198 12.8283 38.4565 13.4125C37.8924 13.8758 37.6507 14.5607 37.6507 15.3665C37.6507 16.1723 37.8723 16.8572 38.4565 17.3206C39.0206 17.7839 39.6047 18.1264 40.2897 18.1264C41.0955 18.1264 41.6595 17.9048 42.2437 17.3206C42.5862 16.9781 42.8078 16.5148 42.8078 15.9507H40.2897V15.0241H43.6135L43.6337 15.4874ZM48.9116 12.6269H45.8093V14.8025H48.6699V15.6083H45.8093V17.7839H48.9116V18.7106H44.9028V11.8211H48.9116V12.6269ZM52.6988 18.7106H51.7721V12.6269H49.8181V11.8211H54.6327V12.6269H52.6787V18.7106H52.6988ZM57.9767 18.7106V11.8211H58.9034V18.7106H57.9767ZM62.8114 18.7106H61.8848V12.6269H59.9307V11.8211H64.6446V12.6269H62.6906V18.7106H62.8114ZM73.7097 17.7839C73.0248 18.4688 72.219 18.8113 71.1916 18.8113C70.1643 18.8113 69.3585 18.4688 68.6735 17.7839C67.9886 17.099 67.6462 16.2932 67.6462 15.2658C67.6462 14.2384 67.9886 13.4326 68.6735 12.7477C69.3585 12.0628 70.1643 11.7203 71.1916 11.7203C72.219 11.7203 73.0248 12.0628 73.7097 12.7477C74.3946 13.4326 74.7371 14.2384 74.7371 15.2658C74.7371 16.2932 74.3946 17.099 73.7097 17.7839ZM69.3383 17.1997C69.8017 17.663 70.4866 18.0055 71.1715 18.0055C71.8564 18.0055 72.5413 17.7839 73.0047 17.1997C73.468 16.7364 73.8105 16.0515 73.8105 15.2457C73.8105 14.4399 73.5889 13.755 73.0047 13.2916C72.5413 12.8283 71.8564 12.4858 71.1715 12.4858C70.4866 12.4858 69.8017 12.7074 69.3383 13.2916C68.875 13.755 68.5325 14.4399 68.5325 15.2457C68.5325 16.0515 68.7743 16.7565 69.3383 17.1997ZM76.0062 18.7106V11.8211H77.0336L80.3575 17.2198V11.8211H81.2841V18.7106H80.3575L76.7919 13.0902V18.7106H76.0062Z" fill="white"/>
<path d="M71.1917 18.9723C70.124 18.9723 69.2981 18.6299 68.5527 17.9047C67.8275 17.1795 67.485 16.3334 67.485 15.2657C67.485 14.198 67.8275 13.3721 68.5527 12.6268C69.2779 11.9015 70.124 11.5591 71.1917 11.5591C72.2593 11.5591 73.0853 11.9015 73.8306 12.6268C74.5558 13.352 74.8983 14.198 74.8983 15.2657C74.8983 16.3334 74.5558 17.1593 73.8306 17.9047C73.0853 18.6299 72.2392 18.9723 71.1917 18.9723ZM71.1917 11.8411C70.2247 11.8411 69.4391 12.1634 68.7743 12.8282C68.0894 13.5131 67.7872 14.2786 67.7872 15.2456C67.7872 16.2125 68.1095 16.9982 68.7743 17.6629C69.4592 18.3478 70.2247 18.65 71.1917 18.65C72.1586 18.65 72.9443 18.3277 73.609 17.6629C74.294 16.978 74.5961 16.2125 74.5961 15.2456C74.5961 14.2786 74.2738 13.493 73.609 12.8282C72.9241 12.1634 72.1586 11.8411 71.1917 11.8411ZM40.2897 18.9723C39.222 18.9723 38.3961 18.6299 37.6507 17.9047C36.9255 17.1795 36.5831 16.3334 36.5831 15.2657C36.5831 14.198 36.9255 13.3721 37.6507 12.6268C38.3961 11.9015 39.222 11.5591 40.2897 11.5591C40.7732 11.5591 41.2566 11.68 41.7401 11.9217C42.143 12.1231 42.566 12.3649 42.8279 12.7678L42.8884 12.8685L42.1229 13.634L42.0221 13.5131C41.5991 12.9894 41.0753 12.7678 40.2897 12.7678C39.5645 12.7678 38.9601 13.0296 38.5572 13.5131C38.0335 13.9362 37.7918 14.5606 37.7918 15.3664C37.7918 16.1722 38.0536 16.8168 38.5371 17.1996C39.0407 17.6025 39.6048 17.9651 40.2897 17.9651C41.0552 17.9651 41.5991 17.7435 42.143 17.1996C42.4653 16.8773 42.6466 16.4945 42.6668 16.0715H40.1487V14.8628H43.7747V15.4672C43.7747 16.4945 43.4927 17.3003 42.9286 17.8644C42.1833 18.6299 41.3574 18.9723 40.2897 18.9723ZM40.2897 11.8411C39.3227 11.8411 38.5371 12.1634 37.8723 12.8282C37.1874 13.5131 36.8852 14.2786 36.8852 15.2456C36.8852 16.2125 37.2076 16.9982 37.8723 17.6629C38.5572 18.3478 39.3227 18.65 40.2897 18.65C41.2566 18.65 42.0423 18.3277 42.7071 17.6629C43.2107 17.1593 43.4726 16.414 43.4726 15.4672V15.165H40.4307V15.7895H42.9488V15.9305C42.9488 16.4945 42.7272 17.0183 42.3243 17.401C41.7401 17.9852 41.1156 18.2471 40.2695 18.2471C39.4839 18.2471 38.8594 17.8241 38.3357 17.401C37.7716 16.9377 37.4694 16.2528 37.4694 15.3261C37.4694 14.4196 37.7515 13.7146 38.3357 13.2512C38.7587 12.7275 39.4436 12.4253 40.2695 12.4253C41.0753 12.4253 41.6595 12.6469 42.1229 13.1505L42.5056 12.7678C42.3243 12.526 42.0423 12.3246 41.5991 12.103C41.1761 11.962 40.7329 11.8411 40.2897 11.8411ZM81.4252 18.8515H80.2769L80.2366 18.791L76.9531 13.5736V18.8515H75.8652V11.6598H77.1344L77.1746 11.7202L80.2366 16.6758V11.6598H81.4453V18.8515H81.4252ZM80.4582 18.5493H81.1432V11.962H80.5187V17.7234L76.9531 11.962H76.1473V18.5694H76.6509V12.5663L80.4582 18.5493ZM62.7913 18.8515H61.7237V12.7678H59.7696V11.6598H64.7655V12.7678H62.8316V18.7105H62.7913V18.8515ZM62.0258 18.5493H62.5294V12.4656H64.4835V11.962H60.0718V12.4656H62.0258V18.5493ZM59.0444 18.8515H57.8357V11.6598H59.0444V18.8515ZM58.1178 18.5493H58.7422V11.962H58.1178V18.5493ZM52.8398 18.8515H51.6312V12.7678H49.6771V11.6598H54.7939V12.7678H52.8398V18.8515ZM51.9333 18.5493H52.5578V12.4656H54.5119V11.962H49.9793V12.4656H51.9333V18.5493ZM49.0526 18.8515H44.7417V11.6598H49.0526V12.7678H45.9504V14.6614H48.8109V15.7492H45.9504V17.6428H49.0526V18.8515ZM45.0438 18.5493H48.7706V17.9248H45.6683V15.447H48.5289V14.9434H45.6683V12.4656H48.7706V11.962H45.0438V18.5493ZM71.1917 18.1665C70.5269 18.1665 69.7815 17.8442 69.2578 17.3205C68.6937 16.8571 68.4117 16.1722 68.4117 15.2657C68.4117 14.5002 68.7139 13.7549 69.2578 13.2109C69.6808 12.667 70.3657 12.3649 71.1917 12.3649C71.8766 12.3649 72.6018 12.6872 73.1256 13.2109C73.6896 13.6541 73.9716 14.3592 73.9716 15.2657C73.9716 16.0312 73.6695 16.7766 73.1256 17.3205C72.6824 17.8644 71.9975 18.1665 71.1917 18.1665ZM71.1917 12.6469C70.4665 12.6469 69.8621 12.9088 69.4592 13.3923C68.9556 13.8959 68.6937 14.5606 68.6937 15.2456C68.6937 16.0715 68.9355 16.6758 69.4391 17.0787L69.4592 17.0989C69.9226 17.5622 70.5873 17.8644 71.1917 17.8644C71.9169 17.8644 72.5212 17.6025 72.9241 17.119C73.4277 16.6154 73.6896 15.9506 73.6896 15.2657C73.6896 14.4398 73.4277 13.8153 72.9443 13.4325C72.4406 12.9491 71.7759 12.6469 71.1917 12.6469Z" fill="white"/>
<path d="M67.3846 28.8027C64.6248 28.8027 62.4491 30.8776 62.4491 33.7382C62.4491 36.498 64.6248 38.6736 67.3846 38.6736C70.1444 38.6736 72.32 36.5987 72.32 33.7382C72.3402 30.7568 70.1444 28.8027 67.3846 28.8027ZM67.3846 36.6189C65.8939 36.6189 64.6248 35.3497 64.6248 33.6374C64.6248 31.9251 65.8939 30.656 67.3846 30.656C68.8753 30.656 70.1444 31.8043 70.1444 33.6374C70.1444 35.3497 68.8954 36.6189 67.3846 36.6189ZM56.7079 28.8027C53.9481 28.8027 51.7724 30.8776 51.7724 33.7382C51.7724 36.498 53.9481 38.6736 56.7079 38.6736C59.4677 38.6736 61.6434 36.5987 61.6434 33.7382C61.6635 30.7568 59.4677 28.8027 56.7079 28.8027ZM56.7079 36.6189C55.2172 36.6189 53.9481 35.3497 53.9481 33.6374C53.9481 31.9251 55.2172 30.656 56.7079 30.656C58.1986 30.656 59.4677 31.8043 59.4677 33.6374C59.4677 35.3497 58.2188 36.6189 56.7079 36.6189ZM43.9764 30.2934V32.3683H48.9119C48.791 33.5166 48.3478 34.4432 47.7636 35.0073C47.0787 35.6922 45.9305 36.498 43.9764 36.498C40.8742 36.498 38.5777 34.0806 38.5777 30.9783C38.5777 27.8761 40.995 25.4587 43.9764 25.4587C45.588 25.4587 46.837 26.1436 47.7636 26.9494L49.2544 25.4587C47.9852 24.3104 46.3938 23.3838 44.0973 23.3838C39.9677 23.3838 36.402 26.8285 36.402 30.9582C36.402 35.0879 39.9677 38.5326 44.0973 38.5326C46.3938 38.5326 48.0054 37.8477 49.3752 36.357C50.7451 34.9871 51.2084 33.0331 51.2084 31.5424C51.2084 31.0791 51.2084 30.6157 51.0875 30.2733L43.9764 30.2934ZM96.0908 31.905C95.6275 30.7567 94.4792 28.8027 91.9611 28.8027C89.443 28.8027 87.3681 30.7568 87.3681 33.7382C87.3681 36.498 89.443 38.6736 92.1827 38.6736C94.3584 38.6736 95.7483 37.3038 96.1915 36.498L94.5799 35.3497C94.0159 36.1555 93.3108 36.7196 92.1626 36.7196C91.0143 36.7196 90.3294 36.2563 89.7452 35.2289L96.2922 32.469L96.0908 31.905ZM89.443 33.5166C89.443 31.6834 90.9338 30.656 91.9611 30.656C92.7669 30.656 93.5727 31.1194 93.7943 31.6834L89.443 33.5166ZM84.0443 38.2304H86.2199V23.8874H84.0443V38.2304ZM80.5995 29.8301C80.0355 29.266 79.1088 28.6818 77.9606 28.6818C75.5432 28.6818 73.2467 30.8575 73.2467 33.6173C73.2467 36.3771 75.4223 38.4319 77.9606 38.4319C79.1088 38.4319 80.0355 37.8678 80.4786 37.2836H80.5995V37.9686C80.5995 39.8017 79.5721 40.8291 77.9606 40.8291C76.6914 40.8291 75.7849 39.9024 75.5432 39.1168L73.71 39.9226C74.2741 41.1917 75.6641 42.7831 78.0814 42.7831C80.5995 42.7831 82.6744 41.2924 82.6744 37.7268V29.0042H80.5995V29.8301ZM78.0814 36.6189C76.5907 36.6189 75.3216 35.3497 75.3216 33.6374C75.3216 31.9251 76.5907 30.656 78.0814 30.656C79.5721 30.656 80.7204 31.9251 80.7204 33.6374C80.7204 35.3497 79.5721 36.6189 78.0814 36.6189ZM106.083 23.8673H100.926V38.2103H103.101V32.8115H106.083C108.5 32.8115 110.796 31.0992 110.796 28.3394C110.796 25.5796 108.5 23.8673 106.083 23.8673ZM106.203 30.7567H103.101V25.8213H106.203C107.815 25.8213 108.722 27.1911 108.722 28.2387C108.621 29.4876 107.694 30.7567 106.203 30.7567ZM119.418 28.6818C117.807 28.6818 116.195 29.3668 115.631 30.8575L117.585 31.6633C118.049 30.8575 118.733 30.6359 119.539 30.6359C120.687 30.6359 121.715 31.3208 121.836 32.469V32.5899C121.493 32.3683 120.567 32.0259 119.66 32.0259C117.585 32.0259 115.53 33.1741 115.53 35.249C115.53 37.2031 117.243 38.4722 119.096 38.4722C120.587 38.4722 121.272 37.7873 121.856 37.1023H121.977V38.2506H124.052V32.7108C123.77 30.1927 121.816 28.6818 119.418 28.6818ZM119.177 36.6189C118.492 36.6189 117.464 36.2764 117.464 35.3497C117.464 34.2015 118.733 33.859 119.761 33.859C120.687 33.859 121.131 34.0806 121.715 34.3224C121.473 35.6922 120.325 36.6189 119.177 36.6189ZM131.243 29.0444L128.826 35.249H128.705L126.187 29.0444H123.89L127.678 37.7671L125.502 42.5817H127.678L133.54 29.0243H131.243V29.0444ZM111.945 38.2304H114.12V23.8874H111.945V38.2304Z" fill="white"/>
</svg>
