<svg width="142" height="52" viewBox="0 0 142 52" fill="none" xmlns="http://www.w3.org/2000/svg">
<path d="M132.108 50.1163H10.2731C5.33765 50.1163 1.28857 46.0672 1.28857 41.1317V10.4513C1.28857 5.51588 5.33765 1.4668 10.2731 1.4668H132.108C137.044 1.4668 141.093 5.51588 141.093 10.4513V41.1317C141.093 46.0672 137.044 50.1163 132.108 50.1163Z" fill="#EA4C89"/>
<path d="M134.365 51.204H7.63484C3.4246 51.204 0 47.7794 0 43.5692V8.01375C0 3.80351 3.4246 0.378906 7.63484 0.378906H134.365C138.575 0.378906 142 3.80351 142 8.01375V43.5692C142 47.7794 138.575 51.204 134.365 51.204ZM7.63484 2.57468C4.63328 2.57468 2.19577 5.01219 2.19577 8.01375V43.5692C2.19577 46.5707 4.63328 49.0082 7.63484 49.0082H134.365C137.367 49.0082 139.804 46.5707 139.804 43.5692V8.01375C139.804 5.01219 137.367 2.57468 134.365 2.57468H7.63484Z" fill="white"/>
<path d="M11.1806 36.6994L21.253 26.6472L24.7984 30.1927L12.8123 36.8404C12.349 37.1023 11.8051 37.0822 11.3418 36.8203L11.1806 36.6994ZM20.2457 25.64L10.6367 35.2288V16.0511L20.2457 25.64ZM26.2489 21.6715L30.9426 24.2701C31.4059 24.532 31.6879 25.0155 31.6879 25.5191C31.6879 26.0429 31.4059 26.5263 30.9426 26.7681L26.128 29.4473L22.2804 25.6198L26.2489 21.6715ZM11.0799 14.4597C11.1605 14.3791 11.2612 14.2985 11.3619 14.2381C11.8051 13.9762 12.3692 13.9762 12.8325 14.2179L24.9395 20.9261L21.253 24.5924L11.0799 14.4597Z" fill="white"/>
<path d="M43.6336 15.4874C43.6336 16.4141 43.412 17.1997 42.8278 17.7839C42.1429 18.4688 41.3371 18.8113 40.3097 18.8113C39.2823 18.8113 38.4765 18.4688 37.7916 17.7839C37.1067 17.099 36.7642 16.2932 36.7642 15.2658C36.7642 14.2384 37.1067 13.4326 37.7916 12.7477C38.4564 12.0427 39.2622 11.7002 40.2896 11.7002C40.7529 11.7002 41.2162 11.8211 41.6594 12.0427C42.1227 12.2642 42.4652 12.506 42.6868 12.8484L42.1227 13.4125C41.6594 12.8484 41.0954 12.6067 40.2896 12.6067C39.6046 12.6067 38.9197 12.8283 38.4564 13.4125C37.8923 13.8758 37.6506 14.5607 37.6506 15.3665C37.6506 16.1723 37.8722 16.8572 38.4564 17.3206C39.0205 17.7839 39.6046 18.1264 40.2896 18.1264C41.0954 18.1264 41.6594 17.9048 42.2436 17.3206C42.5861 16.9781 42.8077 16.5148 42.8077 15.9507H40.2896V15.0241H43.6134L43.6336 15.4874ZM48.9115 12.6269H45.8092V14.8025H48.6698V15.6083H45.8092V17.7839H48.9115V18.7106H44.9027V11.8211H48.9115V12.6269ZM52.6987 18.7106H51.772V12.6269H49.818V11.8211H54.6326V12.6269H52.6786V18.7106H52.6987ZM57.9766 18.7106V11.8211H58.9033V18.7106H57.9766ZM62.8113 18.7106H61.8847V12.6269H59.9306V11.8211H64.6445V12.6269H62.6905V18.7106H62.8113ZM73.7096 17.7839C73.0247 18.4688 72.2189 18.8113 71.1915 18.8113C70.1642 18.8113 69.3584 18.4688 68.6734 17.7839C67.9885 17.099 67.6461 16.2932 67.6461 15.2658C67.6461 14.2384 67.9885 13.4326 68.6734 12.7477C69.3584 12.0628 70.1642 11.7203 71.1915 11.7203C72.2189 11.7203 73.0247 12.0628 73.7096 12.7477C74.3945 13.4326 74.737 14.2384 74.737 15.2658C74.737 16.2932 74.3945 17.099 73.7096 17.7839ZM69.3382 17.1997C69.8016 17.663 70.4865 18.0055 71.1714 18.0055C71.8563 18.0055 72.5412 17.7839 73.0046 17.1997C73.4679 16.7364 73.8104 16.0515 73.8104 15.2457C73.8104 14.4399 73.5888 13.755 73.0046 13.2916C72.5412 12.8283 71.8563 12.4858 71.1714 12.4858C70.4865 12.4858 69.8016 12.7074 69.3382 13.2916C68.8749 13.755 68.5324 14.4399 68.5324 15.2457C68.5324 16.0515 68.7742 16.7565 69.3382 17.1997ZM76.0061 18.7106V11.8211H77.0335L80.3574 17.2198V11.8211H81.284V18.7106H80.3574L76.7918 13.0902V18.7106H76.0061Z" fill="white"/>
<path d="M71.1916 18.9728C70.1239 18.9728 69.298 18.6304 68.5526 17.9052C67.8274 17.18 67.4849 16.3339 67.4849 15.2662C67.4849 14.1985 67.8274 13.3726 68.5526 12.6273C69.2778 11.902 70.1239 11.5596 71.1916 11.5596C72.2592 11.5596 73.0852 11.902 73.8305 12.6273C74.5557 13.3525 74.8982 14.1985 74.8982 15.2662C74.8982 16.3339 74.5557 17.1598 73.8305 17.9052C73.0852 18.6304 72.2391 18.9728 71.1916 18.9728ZM71.1916 11.8416C70.2246 11.8416 69.439 12.1639 68.7742 12.8287C68.0893 13.5136 67.7871 14.2791 67.7871 15.2461C67.7871 16.213 68.1094 16.9987 68.7742 17.6634C69.4591 18.3483 70.2246 18.6505 71.1916 18.6505C72.1585 18.6505 72.9442 18.3282 73.6089 17.6634C74.2939 16.9785 74.596 16.213 74.596 15.2461C74.596 14.2791 74.2737 13.4935 73.6089 12.8287C72.924 12.1639 72.1585 11.8416 71.1916 11.8416ZM40.2896 18.9728C39.2219 18.9728 38.396 18.6304 37.6506 17.9052C36.9254 17.18 36.583 16.3339 36.583 15.2662C36.583 14.1985 36.9254 13.3726 37.6506 12.6273C38.396 11.902 39.2219 11.5596 40.2896 11.5596C40.7731 11.5596 41.2565 11.6805 41.74 11.9222C42.1429 12.1236 42.5659 12.3654 42.8278 12.7683L42.8883 12.869L42.1228 13.6345L42.022 13.5136C41.599 12.9899 41.0752 12.7683 40.2896 12.7683C39.5644 12.7683 38.96 13.0301 38.5571 13.5136C38.0334 13.9367 37.7917 14.5611 37.7917 15.3669C37.7917 16.1727 38.0535 16.8173 38.537 17.2001C39.0406 17.603 39.6047 17.9656 40.2896 17.9656C41.0551 17.9656 41.599 17.744 42.1429 17.2001C42.4652 16.8778 42.6465 16.495 42.6667 16.072H40.1486V14.8633H43.7746V15.4677C43.7746 16.495 43.4926 17.3008 42.9285 17.8649C42.1832 18.6304 41.3573 18.9728 40.2896 18.9728ZM40.2896 11.8416C39.3226 11.8416 38.537 12.1639 37.8722 12.8287C37.1873 13.5136 36.8851 14.2791 36.8851 15.2461C36.8851 16.213 37.2075 16.9987 37.8722 17.6634C38.5571 18.3483 39.3226 18.6505 40.2896 18.6505C41.2565 18.6505 42.0422 18.3282 42.707 17.6634C43.2106 17.1598 43.4725 16.4145 43.4725 15.4677V15.1655H40.4306V15.79H42.9487V15.931C42.9487 16.495 42.7271 17.0188 42.3242 17.4015C41.74 17.9857 41.1155 18.2476 40.2694 18.2476C39.4838 18.2476 38.8593 17.8246 38.3356 17.4015C37.7715 16.9382 37.4693 16.2533 37.4693 15.3266C37.4693 14.4201 37.7514 13.7151 38.3356 13.2517C38.7586 12.728 39.4435 12.4258 40.2694 12.4258C41.0752 12.4258 41.6594 12.6474 42.1228 13.151L42.5055 12.7683C42.3242 12.5265 42.0422 12.3251 41.599 12.1035C41.176 11.9625 40.7328 11.8416 40.2896 11.8416ZM81.4251 18.852H80.2768L80.2365 18.7915L76.953 13.5741V18.852H75.8651V11.6603H77.1343L77.1745 11.7207L80.2365 16.6763V11.6603H81.4452V18.852H81.4251ZM80.4581 18.5498H81.1431V11.9625H80.5186V17.7239L76.953 11.9625H76.1472V18.5699H76.6508V12.5668L80.4581 18.5498ZM62.7912 18.852H61.7236V12.7683H59.7695V11.6603H64.7654V12.7683H62.8315V18.711H62.7912V18.852ZM62.0257 18.5498H62.5293V12.4661H64.4834V11.9625H60.0717V12.4661H62.0257V18.5498ZM59.0443 18.852H57.8356V11.6603H59.0443V18.852ZM58.1177 18.5498H58.7421V11.9625H58.1177V18.5498ZM52.8397 18.852H51.6311V12.7683H49.677V11.6603H54.7938V12.7683H52.8397V18.852ZM51.9332 18.5498H52.5577V12.4661H54.5118V11.9625H49.9792V12.4661H51.9332V18.5498ZM49.0525 18.852H44.7416V11.6603H49.0525V12.7683H45.9503V14.6619H48.8108V15.7497H45.9503V17.6433H49.0525V18.852ZM45.0437 18.5498H48.7705V17.9253H45.6682V15.4475H48.5288V14.9439H45.6682V12.4661H48.7705V11.9625H45.0437V18.5498ZM71.1916 18.167C70.5268 18.167 69.7814 17.8447 69.2577 17.321C68.6936 16.8576 68.4116 16.1727 68.4116 15.2662C68.4116 14.5007 68.7138 13.7554 69.2577 13.2114C69.6807 12.6675 70.3656 12.3654 71.1916 12.3654C71.8765 12.3654 72.6017 12.6877 73.1255 13.2114C73.6895 13.6546 73.9715 14.3597 73.9715 15.2662C73.9715 16.0317 73.6694 16.7771 73.1255 17.321C72.6823 17.8649 71.9974 18.167 71.1916 18.167ZM71.1916 12.6474C70.4664 12.6474 69.862 12.9093 69.4591 13.3928C68.9555 13.8964 68.6936 14.5611 68.6936 15.2461C68.6936 16.072 68.9354 16.6763 69.439 17.0792L69.4591 17.0994C69.9225 17.5627 70.5872 17.8649 71.1916 17.8649C71.9168 17.8649 72.5211 17.603 72.924 17.1195C73.4276 16.6159 73.6895 15.9511 73.6895 15.2662C73.6895 14.4403 73.4276 13.8158 72.9442 13.433C72.4405 12.9496 71.7758 12.6474 71.1916 12.6474Z" fill="white"/>
<path d="M67.3845 28.8027C64.6247 28.8027 62.449 30.8776 62.449 33.7382C62.449 36.498 64.6247 38.6736 67.3845 38.6736C70.1443 38.6736 72.3199 36.5987 72.3199 33.7382C72.3401 30.7568 70.1443 28.8027 67.3845 28.8027ZM67.3845 36.6189C65.8938 36.6189 64.6247 35.3497 64.6247 33.6374C64.6247 31.9251 65.8938 30.656 67.3845 30.656C68.8752 30.656 70.1443 31.8043 70.1443 33.6374C70.1443 35.3497 68.8953 36.6189 67.3845 36.6189ZM56.7078 28.8027C53.948 28.8027 51.7723 30.8776 51.7723 33.7382C51.7723 36.498 53.948 38.6736 56.7078 38.6736C59.4676 38.6736 61.6433 36.5987 61.6433 33.7382C61.6634 30.7568 59.4676 28.8027 56.7078 28.8027ZM56.7078 36.6189C55.2171 36.6189 53.948 35.3497 53.948 33.6374C53.948 31.9251 55.2171 30.656 56.7078 30.656C58.1985 30.656 59.4676 31.8043 59.4676 33.6374C59.4676 35.3497 58.2187 36.6189 56.7078 36.6189ZM43.9763 30.2934V32.3683H48.9118C48.7909 33.5166 48.3477 34.4432 47.7635 35.0073C47.0786 35.6922 45.9304 36.498 43.9763 36.498C40.8741 36.498 38.5776 34.0806 38.5776 30.9783C38.5776 27.8761 40.9949 25.4587 43.9763 25.4587C45.5879 25.4587 46.8369 26.1436 47.7635 26.9494L49.2543 25.4587C47.9851 24.3104 46.3937 23.3838 44.0972 23.3838C39.9676 23.3838 36.4019 26.8285 36.4019 30.9582C36.4019 35.0879 39.9676 38.5326 44.0972 38.5326C46.3937 38.5326 48.0053 37.8477 49.3751 36.357C50.745 34.9871 51.2083 33.0331 51.2083 31.5424C51.2083 31.0791 51.2083 30.6157 51.0874 30.2733L43.9763 30.2934ZM96.0907 31.905C95.6274 30.7567 94.4791 28.8027 91.961 28.8027C89.4429 28.8027 87.368 30.7568 87.368 33.7382C87.368 36.498 89.4429 38.6736 92.1826 38.6736C94.3583 38.6736 95.7482 37.3038 96.1914 36.498L94.5798 35.3497C94.0158 36.1555 93.3107 36.7196 92.1625 36.7196C91.0142 36.7196 90.3293 36.2563 89.7451 35.2289L96.2921 32.469L96.0907 31.905ZM89.4429 33.5166C89.4429 31.6834 90.9337 30.656 91.961 30.656C92.7668 30.656 93.5726 31.1194 93.7942 31.6834L89.4429 33.5166ZM84.0442 38.2304H86.2198V23.8874H84.0442V38.2304ZM80.5994 29.8301C80.0354 29.266 79.1087 28.6818 77.9605 28.6818C75.5431 28.6818 73.2466 30.8575 73.2466 33.6173C73.2466 36.3771 75.4222 38.4319 77.9605 38.4319C79.1087 38.4319 80.0354 37.8678 80.4785 37.2836H80.5994V37.9686C80.5994 39.8017 79.572 40.8291 77.9605 40.8291C76.6913 40.8291 75.7848 39.9024 75.5431 39.1168L73.7099 39.9226C74.274 41.1917 75.664 42.7831 78.0813 42.7831C80.5994 42.7831 82.6743 41.2924 82.6743 37.7268V29.0042H80.5994V29.8301ZM78.0813 36.6189C76.5906 36.6189 75.3215 35.3497 75.3215 33.6374C75.3215 31.9251 76.5906 30.656 78.0813 30.656C79.572 30.656 80.7203 31.9251 80.7203 33.6374C80.7203 35.3497 79.572 36.6189 78.0813 36.6189ZM106.083 23.8673H100.926V38.2103H103.101V32.8115H106.083C108.5 32.8115 110.796 31.0992 110.796 28.3394C110.796 25.5796 108.5 23.8673 106.083 23.8673ZM106.203 30.7567H103.101V25.8213H106.203C107.815 25.8213 108.722 27.1911 108.722 28.2387C108.621 29.4876 107.694 30.7567 106.203 30.7567ZM119.418 28.6818C117.807 28.6818 116.195 29.3668 115.631 30.8575L117.585 31.6633C118.049 30.8575 118.733 30.6359 119.539 30.6359C120.687 30.6359 121.715 31.3208 121.836 32.469V32.5899C121.493 32.3683 120.567 32.0259 119.66 32.0259C117.585 32.0259 115.53 33.1741 115.53 35.249C115.53 37.2031 117.243 38.4722 119.096 38.4722C120.587 38.4722 121.272 37.7873 121.856 37.1023H121.977V38.2506H124.052V32.7108C123.77 30.1927 121.816 28.6818 119.418 28.6818ZM119.177 36.6189C118.492 36.6189 117.464 36.2764 117.464 35.3497C117.464 34.2015 118.733 33.859 119.761 33.859C120.687 33.859 121.131 34.0806 121.715 34.3224C121.473 35.6922 120.325 36.6189 119.177 36.6189ZM131.243 29.0444L128.826 35.249H128.705L126.187 29.0444H123.89L127.678 37.7671L125.502 42.5817H127.678L133.54 29.0243H131.243V29.0444ZM111.945 38.2304H114.12V23.8874H111.945V38.2304Z" fill="white"/>
</svg>
