<svg width="142" height="51" viewBox="0 0 142 51" fill="none" xmlns="http://www.w3.org/2000/svg">
<path d="M132.108 49.7376H10.2732C5.33772 49.7376 1.28864 45.6885 1.28864 40.7531V10.0727C1.28864 5.13722 5.33772 1.08813 10.2732 1.08813H132.108C137.044 1.08813 141.093 5.13722 141.093 10.0727V40.7531C141.093 45.6885 137.044 49.7376 132.108 49.7376Z" fill="#37AFAE"/>
<path opacity="0.18" d="M134.545 1.08813H9.10413C23.8903 12.1476 37.3067 24.9193 48.7892 39.8264C51.2871 43.0697 53.6239 46.3734 55.86 49.7376H134.545C138.151 49.7376 141.092 46.7965 141.092 43.1906V7.63516C141.092 4.02926 138.151 1.08813 134.545 1.08813Z" fill="white"/>
<path d="M134.365 50.8251H7.63484C3.4246 50.8251 0 47.4005 0 43.1902V7.63484C0 3.4246 3.4246 0 7.63484 0H134.365C138.575 0 142 3.4246 142 7.63484V43.1902C142 47.4005 138.575 50.8251 134.365 50.8251ZM7.63484 2.19577C4.63328 2.19577 2.19577 4.63328 2.19577 7.63484V43.1902C2.19577 46.1918 4.63328 48.6293 7.63484 48.6293H134.365C137.367 48.6293 139.804 46.1918 139.804 43.1902V7.63484C139.804 4.63328 137.367 2.19577 134.365 2.19577H7.63484Z" fill="white"/>
<path d="M11.1806 36.3212L21.253 26.269L24.7984 29.8144L12.8123 36.4622C12.349 36.7241 11.8051 36.7039 11.3418 36.442L11.1806 36.3212ZM20.2457 25.2617L10.6367 34.8506V15.6729L20.2457 25.2617ZM26.2489 21.2932L30.9426 23.8919C31.4059 24.1538 31.6879 24.6372 31.6879 25.1409C31.6879 25.6646 31.4059 26.1481 30.9426 26.3898L26.128 29.0691L22.2804 25.2416L26.2489 21.2932ZM11.0799 14.0814C11.1605 14.0008 11.2612 13.9203 11.3619 13.8598C11.8051 13.598 12.3692 13.598 12.8325 13.8397L24.9395 20.5479L21.253 24.2142L11.0799 14.0814Z" fill="white"/>
<path d="M43.6337 15.1089C43.6337 16.0356 43.4121 16.8212 42.8279 17.4054C42.143 18.0903 41.3372 18.4328 40.3098 18.4328C39.2824 18.4328 38.4766 18.0903 37.7917 17.4054C37.1068 16.7205 36.7643 15.9147 36.7643 14.8873C36.7643 13.8599 37.1068 13.0542 37.7917 12.3692C38.4565 11.6642 39.2623 11.3217 40.2897 11.3217C40.753 11.3217 41.2163 11.4426 41.6595 11.6642C42.1228 11.8858 42.4653 12.1275 42.6869 12.47L42.1228 13.034C41.6595 12.47 41.0955 12.2282 40.2897 12.2282C39.6047 12.2282 38.9198 12.4498 38.4565 13.034C37.8924 13.4973 37.6507 14.1823 37.6507 14.9881C37.6507 15.7938 37.8723 16.4788 38.4565 16.9421C39.0206 17.4054 39.6047 17.7479 40.2897 17.7479C41.0955 17.7479 41.6595 17.5263 42.2437 16.9421C42.5862 16.5996 42.8078 16.1363 42.8078 15.5722H40.2897V14.6456H43.6135L43.6337 15.1089ZM48.9116 12.2484H45.8093V14.424H48.6699V15.2298H45.8093V17.4054H48.9116V18.3321H44.9028V11.4426H48.9116V12.2484ZM52.6988 18.3321H51.7721V12.2484H49.8181V11.4426H54.6327V12.2484H52.6787V18.3321H52.6988ZM57.9767 18.3321V11.4426H58.9034V18.3321H57.9767ZM62.8114 18.3321H61.8848V12.2484H59.9307V11.4426H64.6446V12.2484H62.6906V18.3321H62.8114ZM73.7097 17.4054C73.0248 18.0903 72.219 18.4328 71.1916 18.4328C70.1643 18.4328 69.3585 18.0903 68.6735 17.4054C67.9886 16.7205 67.6462 15.9147 67.6462 14.8873C67.6462 13.8599 67.9886 13.0542 68.6735 12.3692C69.3585 11.6843 70.1643 11.3419 71.1916 11.3419C72.219 11.3419 73.0248 11.6843 73.7097 12.3692C74.3946 13.0542 74.7371 13.8599 74.7371 14.8873C74.7371 15.9147 74.3946 16.7205 73.7097 17.4054ZM69.3383 16.8212C69.8017 17.2845 70.4866 17.627 71.1715 17.627C71.8564 17.627 72.5413 17.4054 73.0047 16.8212C73.468 16.3579 73.8105 15.673 73.8105 14.8672C73.8105 14.0614 73.5889 13.3765 73.0047 12.9131C72.5413 12.4498 71.8564 12.1074 71.1715 12.1074C70.4866 12.1074 69.8017 12.329 69.3383 12.9131C68.875 13.3765 68.5325 14.0614 68.5325 14.8672C68.5325 15.673 68.7743 16.378 69.3383 16.8212ZM76.0062 18.3321V11.4426H77.0336L80.3575 16.8414V11.4426H81.2841V18.3321H80.3575L76.7919 12.7117V18.3321H76.0062Z" fill="white"/>
<path d="M71.1917 18.5938C70.124 18.5938 69.2981 18.2513 68.5527 17.5261C67.8275 16.8009 67.485 15.9548 67.485 14.8872C67.485 13.8195 67.8275 12.9936 68.5527 12.2482C69.2779 11.523 70.124 11.1805 71.1917 11.1805C72.2593 11.1805 73.0853 11.523 73.8306 12.2482C74.5558 12.9734 74.8983 13.8195 74.8983 14.8872C74.8983 15.9548 74.5558 16.7808 73.8306 17.5261C73.0853 18.2513 72.2392 18.5938 71.1917 18.5938ZM71.1917 11.4626C70.2247 11.4626 69.4391 11.7849 68.7743 12.4497C68.0894 13.1346 67.7872 13.9001 67.7872 14.867C67.7872 15.834 68.1095 16.6196 68.7743 17.2844C69.4592 17.9693 70.2247 18.2715 71.1917 18.2715C72.1586 18.2715 72.9443 17.9492 73.609 17.2844C74.294 16.5995 74.5961 15.834 74.5961 14.867C74.5961 13.9001 74.2738 13.1144 73.609 12.4497C72.9241 11.7849 72.1586 11.4626 71.1917 11.4626ZM40.2897 18.5938C39.222 18.5938 38.3961 18.2513 37.6507 17.5261C36.9255 16.8009 36.5831 15.9548 36.5831 14.8872C36.5831 13.8195 36.9255 12.9936 37.6507 12.2482C38.3961 11.523 39.222 11.1805 40.2897 11.1805C40.7732 11.1805 41.2566 11.3014 41.7401 11.5431C42.143 11.7446 42.566 11.9863 42.8279 12.3892L42.8884 12.4899L42.1229 13.2554L42.0221 13.1346C41.5991 12.6108 41.0753 12.3892 40.2897 12.3892C39.5645 12.3892 38.9601 12.6511 38.5572 13.1346C38.0335 13.5576 37.7918 14.1821 37.7918 14.9879C37.7918 15.7937 38.0536 16.4383 38.5371 16.8211C39.0407 17.224 39.6048 17.5866 40.2897 17.5866C41.0552 17.5866 41.5991 17.365 42.143 16.8211C42.4653 16.4987 42.6466 16.116 42.6668 15.693H40.1487V14.4843H43.7747V15.0886C43.7747 16.116 43.4927 16.9218 42.9286 17.4858C42.1833 18.2513 41.3574 18.5938 40.2897 18.5938ZM40.2897 11.4626C39.3227 11.4626 38.5371 11.7849 37.8723 12.4497C37.1874 13.1346 36.8852 13.9001 36.8852 14.867C36.8852 15.834 37.2076 16.6196 37.8723 17.2844C38.5572 17.9693 39.3227 18.2715 40.2897 18.2715C41.2566 18.2715 42.0423 17.9492 42.7071 17.2844C43.2107 16.7808 43.4726 16.0354 43.4726 15.0886V14.7864H40.4307V15.4109H42.9488V15.5519C42.9488 16.116 42.7272 16.6398 42.3243 17.0225C41.7401 17.6067 41.1156 17.8686 40.2695 17.8686C39.4839 17.8686 38.8594 17.4455 38.3357 17.0225C37.7716 16.5592 37.4694 15.8743 37.4694 14.9476C37.4694 14.0411 37.7515 13.336 38.3357 12.8727C38.7587 12.3489 39.4436 12.0468 40.2695 12.0468C41.0753 12.0468 41.6595 12.2684 42.1229 12.772L42.5056 12.3892C42.3243 12.1475 42.0423 11.946 41.5991 11.7244C41.1761 11.5834 40.7329 11.4626 40.2897 11.4626ZM81.4252 18.4729H80.2769L80.2366 18.4125L76.9531 13.195V18.4729H75.8652V11.2813H77.1344L77.1746 11.3417L80.2366 16.2973V11.2813H81.4453V18.4729H81.4252ZM80.4582 18.1708H81.1432V11.5834H80.5187V17.3448L76.9531 11.5834H76.1473V18.1909H76.6509V12.1878L80.4582 18.1708ZM62.7913 18.4729H61.7237V12.3892H59.7696V11.2813H64.7655V12.3892H62.8316V18.3319H62.7913V18.4729ZM62.0258 18.1708H62.5294V12.0871H64.4835V11.5834H60.0718V12.0871H62.0258V18.1708ZM59.0444 18.4729H57.8357V11.2813H59.0444V18.4729ZM58.1178 18.1708H58.7422V11.5834H58.1178V18.1708ZM52.8398 18.4729H51.6312V12.3892H49.6771V11.2813H54.7939V12.3892H52.8398V18.4729ZM51.9333 18.1708H52.5578V12.0871H54.5119V11.5834H49.9793V12.0871H51.9333V18.1708ZM49.0526 18.4729H44.7417V11.2813H49.0526V12.3892H45.9504V14.2828H48.8109V15.3706H45.9504V17.2642H49.0526V18.4729ZM45.0438 18.1708H48.7706V17.5463H45.6683V15.0685H48.5289V14.5649H45.6683V12.0871H48.7706V11.5834H45.0438V18.1708ZM71.1917 17.788C70.5269 17.788 69.7815 17.4657 69.2578 16.9419C68.6937 16.4786 68.4117 15.7937 68.4117 14.8872C68.4117 14.1217 68.7139 13.3763 69.2578 12.8324C69.6808 12.2885 70.3657 11.9863 71.1917 11.9863C71.8766 11.9863 72.6018 12.3086 73.1256 12.8324C73.6896 13.2756 73.9716 13.9807 73.9716 14.8872C73.9716 15.6527 73.6695 16.398 73.1256 16.9419C72.6824 17.4858 71.9975 17.788 71.1917 17.788ZM71.1917 12.2684C70.4665 12.2684 69.8621 12.5302 69.4592 13.0137C68.9556 13.5173 68.6937 14.1821 68.6937 14.867C68.6937 15.693 68.9355 16.2973 69.4391 16.7002L69.4592 16.7203C69.9226 17.1837 70.5873 17.4858 71.1917 17.4858C71.9169 17.4858 72.5212 17.224 72.9241 16.7405C73.4277 16.2369 73.6896 15.5721 73.6896 14.8872C73.6896 14.0612 73.4277 13.4367 72.9443 13.054C72.4406 12.5705 71.7759 12.2684 71.1917 12.2684Z" fill="white"/>
<path d="M67.3846 28.4243C64.6248 28.4243 62.4491 30.4992 62.4491 33.3597C62.4491 36.1196 64.6248 38.2952 67.3846 38.2952C70.1444 38.2952 72.32 36.2203 72.32 33.3597C72.3402 30.3783 70.1444 28.4243 67.3846 28.4243ZM67.3846 36.2404C65.8939 36.2404 64.6248 34.9713 64.6248 33.259C64.6248 31.5467 65.8939 30.2776 67.3846 30.2776C68.8753 30.2776 70.1444 31.4259 70.1444 33.259C70.1444 34.9713 68.8954 36.2404 67.3846 36.2404ZM56.7079 28.4243C53.9481 28.4243 51.7724 30.4992 51.7724 33.3597C51.7724 36.1196 53.9481 38.2952 56.7079 38.2952C59.4677 38.2952 61.6434 36.2203 61.6434 33.3597C61.6635 30.3783 59.4677 28.4243 56.7079 28.4243ZM56.7079 36.2404C55.2172 36.2404 53.9481 34.9713 53.9481 33.259C53.9481 31.5467 55.2172 30.2776 56.7079 30.2776C58.1986 30.2776 59.4677 31.4259 59.4677 33.259C59.4677 34.9713 58.2188 36.2404 56.7079 36.2404ZM43.9764 29.915V31.9899H48.9119C48.791 33.1382 48.3478 34.0648 47.7636 34.6289C47.0787 35.3138 45.9305 36.1196 43.9764 36.1196C40.8742 36.1196 38.5777 33.7022 38.5777 30.5999C38.5777 27.4976 40.995 25.0803 43.9764 25.0803C45.588 25.0803 46.837 25.7652 47.7636 26.571L49.2544 25.0803C47.9852 23.932 46.3938 23.0054 44.0973 23.0054C39.9677 23.0054 36.402 26.4501 36.402 30.5798C36.402 34.7094 39.9677 38.1542 44.0973 38.1542C46.3938 38.1542 48.0054 37.4693 49.3752 35.9786C50.7451 34.6087 51.2084 32.6547 51.2084 31.164C51.2084 30.7006 51.2084 30.2373 51.0875 29.8949L43.9764 29.915ZM96.0908 31.5266C95.6275 30.3783 94.4792 28.4243 91.9611 28.4243C89.443 28.4243 87.3681 30.3783 87.3681 33.3597C87.3681 36.1196 89.443 38.2952 92.1827 38.2952C94.3584 38.2952 95.7483 36.9254 96.1915 36.1196L94.5799 34.9713C94.0159 35.7771 93.3108 36.3412 92.1626 36.3412C91.0143 36.3412 90.3294 35.8778 89.7452 34.8505L96.2922 32.0906L96.0908 31.5266ZM89.443 33.1382C89.443 31.305 90.9338 30.2776 91.9611 30.2776C92.7669 30.2776 93.5727 30.7409 93.7943 31.305L89.443 33.1382ZM84.0443 37.852H86.2199V23.509H84.0443V37.852ZM80.5995 29.4517C80.0355 28.8876 79.1088 28.3034 77.9606 28.3034C75.5432 28.3034 73.2467 30.4791 73.2467 33.2389C73.2467 35.9987 75.4223 38.0535 77.9606 38.0535C79.1088 38.0535 80.0355 37.4894 80.4786 36.9052H80.5995V37.5901C80.5995 39.4233 79.5721 40.4507 77.9606 40.4507C76.6914 40.4507 75.7849 39.524 75.5432 38.7384L73.71 39.5442C74.2741 40.8133 75.6641 42.4047 78.0814 42.4047C80.5995 42.4047 82.6744 40.914 82.6744 37.3484V28.6257H80.5995V29.4517ZM78.0814 36.2404C76.5907 36.2404 75.3216 34.9713 75.3216 33.259C75.3216 31.5467 76.5907 30.2776 78.0814 30.2776C79.5721 30.2776 80.7204 31.5467 80.7204 33.259C80.7204 34.9713 79.5721 36.2404 78.0814 36.2404ZM106.083 23.4888H100.926V37.8319H103.101V32.4331H106.083C108.5 32.4331 110.796 30.7208 110.796 27.961C110.796 25.2011 108.5 23.4888 106.083 23.4888ZM106.203 30.3783H103.101V25.4429H106.203C107.815 25.4429 108.722 26.8127 108.722 27.8602C108.621 29.1092 107.694 30.3783 106.203 30.3783ZM119.418 28.3034C117.807 28.3034 116.195 28.9883 115.631 30.4791L117.585 31.2848C118.049 30.4791 118.733 30.2575 119.539 30.2575C120.687 30.2575 121.715 30.9424 121.836 32.0906V32.2115C121.493 31.9899 120.567 31.6474 119.66 31.6474C117.585 31.6474 115.53 32.7957 115.53 34.8706C115.53 36.8246 117.243 38.0938 119.096 38.0938C120.587 38.0938 121.272 37.4088 121.856 36.7239H121.977V37.8722H124.052V32.3324C123.77 29.8143 121.816 28.3034 119.418 28.3034ZM119.177 36.2404C118.492 36.2404 117.464 35.898 117.464 34.9713C117.464 33.8231 118.733 33.4806 119.761 33.4806C120.687 33.4806 121.131 33.7022 121.715 33.9439C121.473 35.3138 120.325 36.2404 119.177 36.2404ZM131.243 28.666L128.826 34.8706H128.705L126.187 28.666H123.89L127.678 37.3887L125.502 42.2033H127.678L133.54 28.6459H131.243V28.666ZM111.945 37.852H114.12V23.509H111.945V37.852Z" fill="white"/>
</svg>
