<svg width="40" height="40" viewBox="0 0 40 40" fill="none" xmlns="http://www.w3.org/2000/svg">
<circle cx="20" cy="20" r="20" fill="#EA4C89"/>
<g clip-path="url(#clip0)">
<path d="M19.9982 17.2743C18.4953 17.2743 17.2727 18.4969 17.2727 19.9997C17.2727 21.5026 18.4953 22.7252 19.9982 22.7252C21.501 22.7252 22.7236 21.5026 22.7236 19.9997C22.7236 18.4969 21.501 17.2743 19.9982 17.2743Z" fill="white"/>
<path d="M25.3772 11.4283H14.6183C12.8582 11.4283 11.4263 12.8602 11.4263 14.6202V25.3792C11.4263 27.1392 12.8582 28.5711 14.6183 28.5711H25.3772C27.1372 28.5711 28.5691 27.1392 28.5691 25.3792V14.6202C28.5691 12.8602 27.1372 11.4283 25.3772 11.4283ZM19.9977 23.7296C17.941 23.7296 16.2678 22.0564 16.2678 19.9997C16.2678 17.9431 17.941 16.2698 19.9977 16.2698C22.0544 16.2698 23.7276 17.943 23.7276 19.9997C23.7276 22.0564 22.0544 23.7296 19.9977 23.7296ZM25.1942 15.5134C25.1008 15.6068 24.9716 15.6604 24.8393 15.6604C24.7071 15.6604 24.5775 15.6068 24.4841 15.5134C24.3907 15.42 24.3371 15.2904 24.3371 15.1582C24.3371 15.0259 24.3907 14.8966 24.4841 14.8033C24.5775 14.7095 24.7071 14.6559 24.8393 14.6559C24.9712 14.6559 25.1008 14.7095 25.1942 14.8033C25.288 14.8966 25.3415 15.0259 25.3415 15.1582C25.3415 15.2904 25.288 15.42 25.1942 15.5134Z" fill="white"/>
</g>
<defs>
<clipPath id="clip0">
<rect width="17.1429" height="17.1429" fill="white" transform="translate(11.4263 11.4283)"/>
</clipPath>
</defs>
</svg>
