<svg width="351" height="351" viewBox="0 0 351 351" fill="none" xmlns="http://www.w3.org/2000/svg">
<path d="M175.4 350.9C272.05 350.9 350.4 272.55 350.4 175.9C350.4 79.2506 272.05 0.900391 175.4 0.900391C78.7501 0.900391 0.399902 79.2506 0.399902 175.9C0.399902 272.55 78.7501 350.9 175.4 350.9Z" fill="#E94C89"/>
<path d="M177.1 324.8C259.335 324.8 326 258.135 326 175.9C326 93.6648 259.335 27 177.1 27C94.8645 27 28.1997 93.6648 28.1997 175.9C28.1997 258.135 94.8645 324.8 177.1 324.8Z" fill="#F05792"/>
<path d="M175.5 279.2C232.661 279.2 279 232.862 279 175.7C279 118.539 232.661 72.2002 175.5 72.2002C118.339 72.2002 72 118.539 72 175.7C72 232.862 118.339 279.2 175.5 279.2Z" fill="#5DC6C6"/>
<path d="M53.4998 197.6V170.5H52.8998L43.7998 190.9C41.8998 194.9 40.3998 196.2 37.7998 196.2C35.0998 196.2 33.4998 194.8 31.6998 190.9L22.5998 170.5H21.9998V197.6C21.9998 201.9 19.7998 204.4 15.9998 204.4C12.1998 204.4 10.2998 202 10.2998 197.6V158.1C10.2998 152.8 13.2998 149.6 18.0998 149.6C22.0998 149.6 24.4998 151.5 26.7998 156.6L37.4998 180.7H37.8998L48.5998 156.6C50.9998 151.5 53.2998 149.7 57.3998 149.7C62.2998 149.7 65.0998 152.8 65.0998 158.2V197.7C65.0998 202 62.8998 204.5 59.0998 204.5C55.4998 204.4 53.4998 202.1 53.4998 197.6Z" fill="white"/>
<path d="M72 199.099C72 197.799 72.4 196.299 73.3 193.599L85.2 158.699C87.3 152.299 90.4 149.699 96.1 149.699C101.8 149.699 104.8 152.199 107 158.699L118.9 193.599C119.6 195.799 120 197.399 120 198.799C120 202.199 117.6 204.399 113.8 204.399C110.3 204.399 108.3 202.499 107 197.999L104.9 191.599H86.8L84.7 197.999C83.4 202.599 81.5 204.399 78.1 204.399C74.5 204.499 72 202.299 72 199.099ZM102.2 182.199L96.2 161.799H95.6L89.5 182.199H102.2Z" fill="white"/>
<path d="M170.3 197.6V170.5H169.7L160.6 190.9C158.7 194.9 157.2 196.2 154.6 196.2C151.9 196.2 150.3 194.8 148.5 190.9L139.4 170.5H138.8V197.6C138.8 201.9 136.6 204.4 132.8 204.4C129 204.4 127.1 202 127.1 197.6V158.1C127.1 152.8 130.1 149.6 134.9 149.6C138.9 149.6 141.3 151.5 143.6 156.6L154.3 180.7H154.7L165.4 156.6C167.8 151.5 170.1 149.7 174.2 149.7C179.1 149.7 181.9 152.8 181.9 158.2V197.7C181.9 202 179.7 204.5 175.9 204.5C172.3 204.4 170.3 202.1 170.3 197.6Z" fill="white"/>
<path d="M188.9 199.099C188.9 197.799 189.3 196.299 190.2 193.599L202.1 158.699C204.2 152.299 207.3 149.699 213 149.699C218.7 149.699 221.7 152.199 223.9 158.699L235.8 193.599C236.5 195.799 236.9 197.399 236.9 198.799C236.9 202.199 234.5 204.399 230.7 204.399C227.2 204.399 225.2 202.499 223.9 197.999L221.8 191.599H203.7L201.6 197.999C200.3 202.599 198.4 204.399 195 204.399C191.3 204.499 188.9 202.299 188.9 199.099ZM219.1 182.199L213.1 161.799H212.5L206.4 182.199H219.1Z" fill="white"/>
<path d="M243.7 157.6C243.7 152.7 246.4 150.1 251.3 150.1H264.8C280.7 150.1 289.2 159.5 289.2 177C289.2 194.6 280.7 204 264.8 204H251.3C246.4 204 243.7 201.4 243.7 196.5V157.6ZM262.9 193.6C271.9 193.6 275.9 188.5 275.9 177C275.9 165.6 271.8 160.4 262.9 160.4H256.8V193.6H262.9V193.6Z" fill="white"/>
<path d="M295.1 174.1C295.1 158.5 303.9 149.1 318.9 149.1C333.9 149.1 342.7 158.5 342.7 174.1V180.5C342.7 195.9 333.9 205.2 318.9 205.2C303.9 205.2 295.1 195.9 295.1 180.5V174.1ZM308.2 180.5C308.2 189.3 312.2 194.5 318.9 194.5C325.6 194.5 329.6 189.3 329.6 180.5V174C329.6 165.1 325.6 159.8 318.9 159.8C312.1 159.8 308.2 165.1 308.2 174V180.5Z" fill="white"/>
<path fill-rule="evenodd" clip-rule="evenodd" d="M285.6 95.6993C285.5 96.6993 284.9 97.1993 284.1 97.4993C280.7 99.0993 278.1 101.499 276.2 104.799C275.1 106.699 273.8 106.699 272.8 104.699C271.1 101.399 268.8 98.6993 265.5 96.8993C263.6 95.7993 263.7 94.3993 265.7 93.3993C269.2 91.6993 271.8 89.2993 273.7 85.8993C274.7 84.0993 276.1 84.0993 277 85.9993C278.7 89.4993 281.1 92.0993 284.5 93.9993C285.4 94.5993 285.6 94.9993 285.6 95.6993Z" fill="#F7CE14"/>
<path fill-rule="evenodd" clip-rule="evenodd" d="M263.3 78.0997C263.3 78.7997 262.9 79.0997 262.4 79.2997C260.7 80.0997 259.4 81.3997 258.4 82.8997C257.7 84.0997 256.9 84.0997 256.2 82.7997C255.4 81.1997 254.2 79.9997 252.7 78.9997C251.4 78.1997 251.3 77.3997 252.7 76.5997C254.4 75.6997 255.6 74.4997 256.6 72.8997C257 72.1997 257.9 71.6997 258.4 72.5997C259.5 74.5997 261 76.1997 262.9 77.3997L263.3 78.0997Z" fill="#F7CE14"/>
</svg>
