<svg width="142" height="130" viewBox="0 0 142 130" fill="none" xmlns="http://www.w3.org/2000/svg">
<path fill-rule="evenodd" clip-rule="evenodd" d="M70.5874 8.32666C71.048 8.32666 71.5006 8.33461 71.9533 8.34255L72.4537 8.35843C72.7634 8.36638 73.0731 8.38226 73.3829 8.39815L73.8514 8.42197L74.7171 8.47756L75.3365 8.52521L76.0751 8.58874L76.6787 8.65228L77.4649 8.73964L78.0288 8.81111L78.8707 8.93025L79.3472 9.00172C79.649 9.04937 79.9508 9.09702 80.2605 9.15262L80.6973 9.22409C81.0944 9.29557 81.4835 9.36704 81.8727 9.44646L81.9918 9.47028C82.4286 9.55764 82.8654 9.65295 83.3022 9.75619L83.3498 9.77208L83.4849 9.80384C83.874 9.8912 84.2632 9.9865 84.6523 10.0897L85.0017 10.1851L85.8992 10.4233L86.4948 10.598L87.146 10.7886L87.7496 10.9792L88.4485 11.2016L88.9727 11.3763L89.7112 11.6384L90.2513 11.837L90.8707 12.0752L91.4823 12.3135L92.2685 12.6391L92.6418 12.79C92.9753 12.9329 93.3009 13.0759 93.6345 13.2188L93.8489 13.3141L93.8886 13.33C94.2619 13.4968 94.6352 13.6715 95.0005 13.8462L95.0323 13.8621L95.4929 14.0924L96.1918 14.4419L96.7398 14.7278L97.3274 15.0375L97.9151 15.3552L98.479 15.6728L99.027 15.9905L99.6067 16.332L100.131 16.6497L100.734 17.0309L101.227 17.3406L101.775 17.698L102.363 18.0872L102.68 18.3095L103.419 18.8257C103.752 19.064 104.078 19.3023 104.404 19.5405C104.96 19.9535 105.5 20.3823 106.04 20.8112L106.397 21.0971L107.009 21.6054L107.366 21.9072L107.985 22.4472L108.327 22.749L108.915 23.2811L109.28 23.6226L109.852 24.1626L110.161 24.4644L110.781 25.076L110.987 25.2824C112.314 26.6326 113.568 28.0462 114.752 29.5234L114.911 29.7219L115.49 30.4685L115.673 30.7067L116.261 31.5009L116.404 31.6994C116.61 31.9853 116.817 32.2713 117.023 32.5651L117.095 32.6683C117.309 32.9781 117.523 33.2957 117.738 33.6134L117.762 33.6531C119.318 36.0039 120.7 38.4738 121.899 41.0549L121.939 41.1343C122.098 41.4758 122.249 41.8094 122.4 42.1509L122.463 42.3018C122.614 42.6433 122.757 42.9848 122.9 43.3263L122.94 43.4295C123.083 43.7869 123.226 44.1363 123.361 44.4937L123.393 44.5811C124.266 46.8604 125.005 49.2111 125.584 51.6175L125.6 51.6731C125.696 52.0623 125.783 52.4435 125.862 52.8326L125.878 52.92C125.958 53.2932 126.037 53.6665 126.109 54.0398L126.14 54.2145C126.212 54.5877 126.275 54.961 126.347 55.3343L126.355 55.3661L126.434 55.3819H126.458L126.537 55.4058H126.553L126.633 55.4296L126.649 55.4375L126.728 55.4614H126.744L126.823 55.4852L126.839 55.4931L126.919 55.517H126.935L127.014 55.5408L127.03 55.5487L127.109 55.5726L127.125 55.5805L127.205 55.6043L127.22 55.6123L127.3 55.6361H127.316L127.395 55.6599L127.411 55.6679L127.49 55.6917L127.506 55.6996L127.586 55.7234L127.602 55.7314L127.681 55.7631H127.697L127.776 55.7949L127.792 55.8028L127.872 55.8346L127.888 55.8426L127.967 55.8743H127.983L128.062 55.9061L128.078 55.914L128.158 55.9458L128.173 55.9537L128.253 55.9855L128.269 55.9935L128.348 56.0252L128.364 56.0332L128.443 56.0649L128.451 56.0729L128.531 56.1046L128.547 56.1126L128.626 56.1523L128.714 56.192H128.721L128.801 56.2317L128.809 56.2397L128.888 56.2794L128.896 56.2873L128.976 56.327H128.984L129.063 56.3667L129.071 56.3747L129.15 56.4144L129.158 56.4223L129.23 56.462H129.238L129.317 56.5097L129.325 56.5176L129.397 56.5653H129.404L129.476 56.6129H129.484L129.555 56.6606H129.563L129.635 56.7082H129.643L129.714 56.7559L129.722 56.7638L129.794 56.8115H129.802L129.873 56.8671L129.881 56.875L129.952 56.9306H129.96L130.032 56.9862H130.04L130.111 57.0418H130.119L130.191 57.0974V57.1053L130.262 57.1609H130.27L130.342 57.2244H130.35L130.421 57.288H130.429L130.5 57.3515L130.572 57.415L130.643 57.4786V57.4865L130.715 57.5501L130.778 57.6136L130.85 57.6851L130.913 57.7566L130.977 57.828L131.04 57.8995L131.104 57.971L131.168 58.0504L131.231 58.1298L131.295 58.2092L131.358 58.2886L131.422 58.3681L131.485 58.4554L131.549 58.5428L131.612 58.6301C132.399 59.7738 132.883 61.0445 133.042 62.3866C133.328 64.8248 133.439 67.2947 132.851 69.7169C132.049 73.0128 129.96 74.9982 126.641 75.6892C126.458 75.7289 126.275 75.7924 126.101 75.848H126.045H126.029V75.8559C125.958 76.2292 125.878 76.5945 125.799 76.9599L125.767 77.1187C125.688 77.4681 125.608 77.8255 125.521 78.175L125.473 78.3576C125.386 78.715 125.299 79.0724 125.203 79.4218L125.179 79.5171C124.56 81.8203 123.798 84.0678 122.908 86.2518L122.821 86.4583C122.686 86.7839 122.543 87.1095 122.408 87.4272L122.352 87.5542C122.209 87.8878 122.058 88.2214 121.907 88.547L121.852 88.674C120.851 90.8183 119.723 92.8991 118.469 94.8846L118.429 94.956C118.238 95.2578 118.04 95.5596 117.849 95.8614L117.754 96.0123C117.563 96.2982 117.381 96.5761 117.182 96.8541L117.047 97.0447C116.848 97.3306 116.65 97.6086 116.451 97.8866L116.388 97.9739C115.26 99.5305 114.053 101.024 112.782 102.461L112.655 102.596L112.004 103.303L111.805 103.517L111.162 104.192L110.932 104.423L110.312 105.042L110.011 105.336L109.407 105.924L109.153 106.154L108.486 106.773L108.47 106.789C107.922 107.29 107.358 107.774 106.786 108.251L106.667 108.346L106.032 108.862L105.674 109.156C105.46 109.331 105.237 109.497 105.023 109.664L104.697 109.91L104.054 110.395L103.641 110.697L103.061 111.11L102.561 111.459L102.013 111.832L101.433 112.214L100.973 112.515L100.314 112.928L99.8768 113.198C99.5353 113.405 99.1938 113.611 98.8443 113.81L98.8285 113.818L98.2169 114.159L97.6928 114.453L97.1607 114.739L96.5174 115.081L96.017 115.335L95.3896 115.644L94.8019 115.93L94.2143 116.2L93.6504 116.462L92.9436 116.772L92.475 116.971C92.205 117.09 91.927 117.193 91.649 117.304L91.252 117.463L91.2361 117.471C90.8628 117.622 90.4816 117.765 90.1004 117.9L90.0607 117.916L89.6477 118.067C89.3777 118.162 89.1156 118.257 88.8456 118.345L88.2817 118.527L87.5987 118.75L87.0428 118.924L86.2883 119.147L85.788 119.29L85.0335 119.496L84.4855 119.639L83.6675 119.838L83.2387 119.941C82.8972 120.02 82.5556 120.092 82.2062 120.163L81.9203 120.227C81.4915 120.314 81.0626 120.402 80.6258 120.473L80.5781 120.481L80.2764 120.529C79.9507 120.584 79.6251 120.64 79.2995 120.688L78.7595 120.767L77.9653 120.878L77.3458 120.95L76.6549 121.029L75.9878 121.093L75.3048 121.156L74.6297 121.212L73.8673 121.259L73.3273 121.291C73.0016 121.307 72.684 121.315 72.3584 121.331L71.9454 121.347C71.4848 121.355 71.0241 121.363 70.5635 121.363C70.087 121.363 69.6105 121.355 69.1419 121.347H69.1022C68.6416 121.331 68.181 121.315 67.7283 121.291H67.7124C67.4027 121.275 67.0929 121.251 66.7911 121.236L66.2988 121.204C66.0128 121.18 65.7349 121.156 65.4569 121.132L64.8772 121.085L64.0195 120.989L63.4874 120.926L62.7647 120.83L62.0499 120.727L61.4225 120.624L60.6918 120.505L60.1121 120.394C59.8341 120.338 59.5561 120.29 59.2782 120.235L58.7858 120.132L57.9519 119.949L57.3642 119.806L56.6097 119.623L55.9665 119.457L55.2994 119.274L54.6005 119.075L53.9969 118.893L53.2821 118.67L52.6547 118.464L52.0194 118.249L51.3681 118.019L50.7328 117.781L50.0736 117.527L49.4859 117.296L48.8188 117.026L48.1596 116.74L47.6196 116.502L46.9207 116.184L46.3727 115.93L45.7136 115.613L45.1338 115.327L44.5541 115.033L43.8949 114.684L43.3469 114.382L42.7592 114.056L42.1318 113.699L41.6076 113.389L40.9723 113.008L40.464 112.69L39.8525 112.301L39.3125 111.944L38.7407 111.562L38.2085 111.189L37.605 110.76L37.184 110.451L36.5249 109.966L36.0881 109.632L35.4686 109.148L35.0954 108.846L34.3885 108.274L34.1344 108.06C33.8882 107.846 33.6341 107.639 33.3879 107.417L33.094 107.155C32.8558 106.94 32.6175 106.734 32.3872 106.519L32.141 106.289C31.8948 106.067 31.6566 105.836 31.4183 105.606L31.188 105.384C30.9418 105.145 30.6956 104.899 30.4494 104.653L30.3064 104.51C30.0444 104.24 29.7823 103.97 29.5202 103.7L29.409 103.581C29.139 103.295 28.8769 103.009 28.6148 102.715L28.5513 102.644C24.1515 97.7515 20.5857 92.089 18.0919 85.8865L18.084 85.8626C17.7584 85.0605 17.4566 84.2425 17.1707 83.4166L17.131 83.3133C16.6942 82.0585 16.305 80.7878 15.9635 79.4933L15.9476 79.4298C15.8364 79.0088 15.7253 78.5959 15.63 78.175L15.6141 78.1114C15.5108 77.6826 15.4155 77.2537 15.3202 76.8248L15.3123 76.7851C15.217 76.3483 15.1296 75.9115 15.0423 75.4747L15.0343 75.435C14.947 74.9903 14.8755 74.5455 14.7961 74.1008V74.077C14.7246 73.6402 14.6531 73.2034 14.5975 72.7586L14.5816 72.6792C14.4546 71.7897 14.3593 70.8844 14.2719 69.979L14.264 69.9155C14.1845 69.0022 14.121 68.0809 14.0892 67.1597V67.1517L14.0734 67.1199L14.0416 67.0405L14.0098 66.9611L13.978 66.8817L13.9463 66.8023L13.9145 66.7228L13.8828 66.6434L13.851 66.564L13.8192 66.4846L13.7795 66.4052L13.7478 66.3258L13.716 66.2463L13.6842 66.1669L13.6525 66.0875L13.6207 66.0081L13.5889 65.9287L13.5571 65.8492L13.5254 65.7698L13.4936 65.6904L13.4618 65.611L13.4301 65.5316L13.3983 65.4522L13.3665 65.3728L13.3348 65.2933L13.2951 65.2139L13.2633 65.1345L13.2315 65.0551L13.1998 64.9757L13.168 64.8962L13.1362 64.8168L13.0965 64.7374L13.0647 64.658L13.033 64.5786L13.0012 64.4991L12.9694 64.4197L12.9377 64.3403L12.9059 64.2609L12.8741 64.1815L12.8424 64.1021L12.8106 64.0226L12.7789 63.9432L12.7471 63.8638L12.7153 63.7844L12.6836 63.705L12.6518 63.6255L12.62 63.5461L12.5882 63.4667L12.5565 63.3873L12.5247 63.3079L12.4929 63.2285L12.4612 63.149L12.215 63.2126C12.1991 63.5461 12.1753 63.8717 12.1753 64.2053C12.1753 67.1438 12.1991 70.0822 12.1673 73.0128C12.1514 74.8394 11.3176 75.6574 9.6736 75.6018C8.77617 75.57 8.1567 75.0459 8.02169 74.1405C7.94227 73.6084 7.90256 73.0763 7.90256 72.5363C7.89462 68.0253 7.89462 63.5064 7.90256 58.9955C7.90256 58.5825 7.9264 58.1695 7.98994 57.7724C8.12495 56.8353 8.47439 55.9696 9.483 55.7155C10.5551 55.4455 11.6432 55.2946 12.62 56.0967C13.4857 56.8115 13.8033 57.8598 14.3513 58.7652L14.4069 58.8922L14.4546 58.9875C14.5022 58.5428 14.5499 58.098 14.6055 57.6612C14.7008 56.8988 14.8199 56.1444 14.939 55.3978L15.0105 54.9848C15.0582 54.7148 15.1058 54.4448 15.1614 54.1748L15.2646 53.6268L15.4155 52.92L15.5505 52.2846L15.7173 51.5857L15.8682 50.9742L16.0509 50.2674L16.2176 49.6479L16.4003 48.9967L16.583 48.3772L16.8133 47.6466L16.988 47.1224L17.2263 46.4236L17.4566 45.7803L17.671 45.1846L17.9251 44.5175L18.1634 43.906L18.4016 43.3183L18.6717 42.675L18.9099 42.135L19.2276 41.4282L19.4023 41.0549L19.7835 40.2448L19.7994 40.221C19.9821 39.8477 20.1568 39.4824 20.3474 39.1171L20.3712 39.0694C20.5698 38.6882 20.7683 38.315 20.9669 37.9338L20.9827 37.902L21.1734 37.5526L21.6101 36.7663L21.8802 36.3057L22.2852 35.6148L22.5711 35.1541L22.9761 34.5108L23.3335 33.9628L23.683 33.4308L24.1039 32.8192L24.4295 32.3507L24.8266 31.7947L25.2157 31.2626L25.6049 30.7385L26.0099 30.2064L26.4229 29.6822L26.82 29.1898L27.225 28.6974L27.7254 28.1018L28.0669 27.7047L28.5672 27.1408L28.9643 26.6961L29.4567 26.164L29.8617 25.7272L30.3461 25.2348L30.7909 24.7821L31.3389 24.25L31.7201 23.8767C31.9901 23.6226 32.2601 23.3685 32.5301 23.1223L32.6652 22.9952L32.689 22.9714C32.9987 22.6855 33.3164 22.4075 33.642 22.1295L33.6817 22.0978L34.0788 21.7563L34.6586 21.2639L35.1271 20.8827L35.6672 20.4459L36.1675 20.0647L36.7234 19.6358L37.2476 19.2546L37.7797 18.8655L38.3277 18.4843L38.8518 18.1189L39.4475 17.7218L39.9399 17.3962L40.5434 17.0071L41.0756 16.6735L41.6235 16.34L42.3065 15.9349L42.7116 15.6967L43.4581 15.2758L43.9108 15.0296L44.562 14.6881L45.1418 14.3863L45.7453 14.0845L46.2774 13.8224L47.1351 13.4253L47.4767 13.2665L48.3105 12.9012L48.7474 12.7105L48.7791 12.6947C49.1683 12.5279 49.5653 12.369 49.9545 12.2102L49.9704 12.2023L50.0418 12.1784C50.431 12.0196 50.8281 11.8767 51.2252 11.7258L51.3999 11.6622C51.7652 11.5272 52.1306 11.4001 52.5038 11.2731L52.893 11.146L53.7427 10.8681L54.3781 10.6774L55.0214 10.4868L55.6249 10.3201L56.3794 10.1136L56.8718 9.98651L57.7057 9.78796L58.214 9.67678L59.0399 9.49411L59.5879 9.38292L60.3345 9.23998L60.9698 9.12879L61.6925 9.00966L62.3199 8.91436L63.0347 8.81111L63.7256 8.72375L64.3848 8.65228L65.0837 8.5808L65.7667 8.51727L66.4894 8.46168L67.2756 8.41402L67.8236 8.38226C68.1571 8.36638 68.4828 8.35843 68.8163 8.34255L69.2611 8.32666C69.6423 8.3346 70.1188 8.32666 70.5874 8.32666ZM126.927 60.0994L126.935 60.1708L126.942 60.2423L126.982 60.7586L126.99 60.83L126.998 60.9015L127.046 61.6401L127.054 61.7116V61.783L127.07 62.0769V62.1484V62.2199L127.109 63.1888V63.2602V63.3317V63.3714V63.4032V63.4746V63.5461C127.117 63.967 127.125 64.3959 127.125 64.8168C127.125 65.2854 127.117 65.746 127.109 66.2066V66.2305V66.2702V66.3258V66.429C127.101 66.7626 127.085 67.104 127.07 67.4376V67.5409L127.062 67.6441V67.7473L127.054 67.8506L127.046 67.9538L127.038 68.0571L126.99 68.756L126.982 68.8592V68.8671L126.935 69.4548L126.927 69.5501L126.919 69.6534L126.911 69.7566L126.903 69.8599L126.895 69.9552L126.887 70.0584L126.879 70.1537L126.871 70.249L126.792 71.0432L126.784 71.1464L126.776 71.2417L126.807 71.2179L126.831 71.202L126.847 71.1861L126.879 71.1623L126.911 71.1385L126.927 71.1306L126.942 71.1147L126.974 71.0908H126.982L127.014 71.0591L127.022 71.0511L127.046 71.0273L127.077 70.9956L127.109 70.9638L127.117 70.9559L127.141 70.932L127.165 70.9082L127.173 70.9003L127.205 70.8685V70.8606L127.228 70.8288L127.244 70.8129L127.26 70.797L127.292 70.7652L127.316 70.7335L127.332 70.7176L127.348 70.7017L127.371 70.6699L127.395 70.6382L127.403 70.6223L127.419 70.5985L127.443 70.5667V70.5588L127.467 70.527L127.475 70.519L127.49 70.4952L127.514 70.4635L127.522 70.4555L127.546 70.4158L127.554 70.4079L127.57 70.3761L127.586 70.3523L127.594 70.3364L127.618 70.2967V70.2887L127.641 70.257L127.657 70.2331L127.665 70.2172L127.689 70.1775L127.713 70.1378L127.721 70.114L127.729 70.0902L127.745 70.0505L127.768 70.0108L127.776 69.9949L127.792 69.9711L127.808 69.9393V69.9314L127.824 69.8917L127.832 69.8758L127.848 69.844L127.864 69.8122V69.8043L127.88 69.7646V69.7566L127.896 69.7249L127.903 69.701L127.911 69.6852L127.927 69.6454V69.6375L127.943 69.5978L127.951 69.574L127.959 69.5581L127.975 69.5104L127.991 69.4707L127.999 69.4469L128.007 69.4231L128.023 69.3834L128.038 69.3357L128.046 69.3198L128.054 69.2881L128.062 69.2483V69.2404L128.078 69.1928V69.1769L128.086 69.1451L128.094 69.1133V69.0975L128.11 69.0498V69.0419L128.118 69.0021L128.126 68.9704L128.134 68.9545L128.142 68.9068V68.8989L128.15 68.8592L128.158 68.8354L128.166 68.8116L128.173 68.7639C128.586 66.6434 128.578 64.4833 128.173 62.3548L128.166 62.3072L128.158 62.2675V62.2596L128.15 62.2119L128.142 62.1722V62.1643L128.134 62.1166L128.126 62.0848V62.069L128.11 62.0213L128.102 61.9975L128.094 61.9737L128.078 61.926V61.9101L128.07 61.8863L128.054 61.8466V61.8386L128.046 61.8069L128.031 61.7672V61.7592L128.015 61.7195L127.999 61.6798L127.983 61.6401L127.967 61.6004V61.5924L127.951 61.5527L127.943 61.521V61.513L127.927 61.4733L127.919 61.4495L127.911 61.4336L127.896 61.3939L127.888 61.3701L127.88 61.3542L127.864 61.3145L127.856 61.2986L127.848 61.2748L127.832 61.2351L127.824 61.2271L127.808 61.2033L127.792 61.1636V61.1557L127.776 61.1239L127.76 61.0842L127.745 61.0524L127.729 61.0206L127.713 60.9809L127.697 60.9492V60.9412L127.673 60.9094L127.657 60.8856L127.649 60.8777L127.625 60.8459L127.618 60.8221L127.61 60.8062L127.586 60.7744L127.578 60.7586L127.57 60.7427L127.546 60.7109L127.538 60.703L127.522 60.6791L127.451 60.5838L127.427 60.5521L127.403 60.5203L127.379 60.4885L127.355 60.4647L127.348 60.4568L127.324 60.425L127.308 60.4012L127.3 60.3932L127.26 60.425L127.244 60.4091L127.236 60.3932L127.213 60.3615L127.197 60.3456L127.181 60.3297L127.157 60.3059L127.149 60.2979L127.133 60.282L127.109 60.2582L127.101 60.2503L127.077 60.2264L127.046 60.2026L126.99 60.155L126.958 60.1311L126.927 60.0994Z" fill="#EE60A2"/>
<path d="M70.5869 129.209L67.3466 129.13C67.2593 129.122 67.1798 129.122 67.1004 129.114L48.7945 125.421L32.6012 116.804L29.4641 114.35C29.4324 114.318 29.1465 114.08 29.1068 114.048L28.2888 113.341C28.2729 113.326 27.9631 113.048 27.9473 113.04L26.073 111.316C26.0412 111.285 25.7791 111.03 25.7474 110.999L22.8486 107.997C17.6944 102.279 13.6917 95.8615 10.8724 88.841C10.4911 87.888 10.1417 86.9588 9.81608 86.0137C9.50635 85.1242 9.22838 84.2665 8.97425 83.4088C4.47123 83.0911 0.897417 79.8191 0.21442 75.3399C0.0794095 74.3948 0.00792534 73.4815 0.00792534 72.5602L0 59.0115C0.00794182 58.2014 0.0555859 57.4311 0.166771 56.6766C0.802117 52.3404 3.52616 49.1716 7.4653 48.1709C7.81474 48.0836 8.16418 48.0041 8.50568 47.9406L11.9921 38.2675C12.008 38.2357 12.1986 37.8227 12.2145 37.791L13.9061 34.4077C13.9617 34.2966 14.0252 34.1774 14.0808 34.0742L25.1517 19.3104L38.6925 8.97805L43.7356 6.38107C43.7594 6.37313 44.1168 6.20636 44.1406 6.19048L49.8746 3.92705C49.9064 3.91911 50.3273 3.77616 50.3591 3.76822L65.7582 0.702678L68.8715 0.543844C69.4989 0.52796 70.0389 0.52002 70.5869 0.52002L82.0231 1.53657L86.5897 2.5293C86.6214 2.53724 87.0026 2.64048 87.0344 2.64842L95.2542 5.42806C95.2859 5.44394 95.6989 5.61072 95.7307 5.6266L96.8743 6.12694C96.9616 6.16665 97.2634 6.30166 97.3508 6.34931L106.714 11.6227C106.746 11.6465 107.095 11.8927 107.135 11.9086L109.089 13.3143C109.708 13.7828 110.328 14.2594 110.931 14.7518L115.22 18.5321C115.236 18.5479 115.553 18.8577 115.569 18.8736L116.268 19.5645C116.3 19.6042 116.538 19.8425 116.578 19.8822C118.047 21.3752 119.485 23.0033 120.827 24.679L121.645 25.7194C121.677 25.7591 121.883 26.0371 121.915 26.0688L124.21 29.3012C126.021 32.0411 127.609 34.8684 128.959 37.783L130.619 41.6825C131.644 44.3588 132.477 47.0194 133.121 49.6878C133.153 49.7037 133.184 49.7196 133.216 49.7434C133.28 49.7752 133.343 49.8149 133.399 49.8546C133.542 49.934 133.677 50.0214 133.804 50.1087C133.828 50.1246 133.851 50.1405 133.875 50.1564C133.986 50.2279 134.098 50.2993 134.209 50.3788C134.241 50.4026 134.59 50.6488 134.622 50.6726C134.789 50.7917 135.098 51.0379 135.257 51.1729C135.289 51.2047 135.622 51.4827 135.654 51.5144C135.742 51.5938 135.98 51.8083 136.059 51.8877C136.115 51.9433 136.385 52.2133 136.44 52.2689C136.52 52.3483 136.806 52.6501 136.877 52.7375C136.925 52.7931 137.179 53.0869 137.227 53.1425C137.298 53.2219 137.497 53.476 137.56 53.5634C137.632 53.6587 137.894 54.0082 137.957 54.1035C139.577 56.4701 140.499 58.9083 140.808 61.5211C141.126 64.2293 141.372 67.8269 140.443 71.6152C139.323 76.2055 136.575 79.7555 132.66 81.8045C131.961 84.3697 131.119 86.8396 130.143 89.246L129.078 91.6921C127.8 94.4399 126.505 96.8225 125.084 99.0859L122.804 102.469C121.446 104.343 120.064 106.059 118.611 107.695L116.824 109.617C116.792 109.649 116.538 109.911 116.506 109.942L115.847 110.602C115.823 110.625 115.498 110.943 115.474 110.967L114.823 111.594C114.791 111.626 114.505 111.888 114.473 111.92L113.782 112.563C113.068 113.206 112.44 113.754 111.805 114.287L109.732 115.946C109.724 115.954 109.383 116.216 109.375 116.216L102.767 120.608C102.624 120.688 102.489 120.767 102.338 120.839L94.5712 124.595C94.5156 124.619 94.0629 124.802 94.0073 124.817L83.7941 127.859L82.0072 128.209C81.9675 128.217 81.5863 128.28 81.5466 128.288L72.6359 129.185C72.612 129.185 72.1752 129.201 72.1514 129.201L70.5869 129.209ZM38.5257 101.564L54.6238 110.919L66.1633 113.389L66.3142 121.236L66.7907 113.445L68.0614 113.524C68.117 113.524 68.1726 113.532 68.2202 113.532L70.5869 113.588L78.9178 112.873L88.3686 110.244L100.035 103.684L101.751 102.318C102.283 101.873 102.775 101.445 103.26 101.008L106.905 97.3467C108.064 96.0442 109.105 94.7576 110.074 93.4155L111.837 90.8026C112.949 89.0316 113.925 87.2288 114.783 85.3942L115.601 83.5279C116.467 81.4233 117.118 79.4696 117.642 77.5159L118.381 74.363C118.516 73.68 118.738 73.0288 119.032 72.4252C118.945 71.8296 118.921 71.2181 118.976 70.5986L119.088 69.4788L121.43 69.5741C121.565 69.4709 121.708 69.3756 121.851 69.2803L119.127 69.0103L119.231 67.5807L120.398 67.5648C120.438 67.4378 120.477 67.3186 120.517 67.1916L119.246 67.136L119.286 66.2306C119.286 66.1909 119.286 66.1353 119.294 66.0718L119.31 64.8646L119.294 63.7448C119.294 63.7131 119.294 63.6098 119.286 63.4986L119.135 60.8302C119.08 60.0995 119.127 59.3689 119.27 58.6621C118.921 57.9552 118.675 57.1928 118.571 56.3986L117.96 53.484C117.46 51.3874 116.824 49.3463 116.07 47.3767L114.823 44.4303C113.759 42.1431 112.559 39.9988 111.217 37.9736L108.708 34.5269C107.604 33.153 106.524 31.9299 105.38 30.7704L101.123 26.9027C100.663 26.5374 100.194 26.1641 99.7175 25.8068L90.6638 20.454L82.9602 17.722L71.667 16.1416L70.571 16.1257L55.9025 18.3732L39.4708 27.3395L28.2173 40.7374L27.8678 41.3648C27.8599 41.3727 27.7964 41.4998 27.7328 41.603C27.7249 41.6189 27.717 41.6348 27.7011 41.6507L22.6977 55.6839C22.6977 55.6918 22.5865 56.3034 22.5786 56.3113C22.4039 57.3437 22.3006 58.0029 22.2212 58.6621L22.0941 59.7977C21.9671 61.0605 21.5382 62.2359 20.879 63.2524C20.9187 63.3477 20.9505 63.4192 20.9584 63.4272C21.0061 63.5383 21.1173 63.7925 21.1649 63.9037C21.5382 64.8329 21.8877 66.183 21.8877 67.1916C21.9194 67.676 21.9671 68.4702 22.0385 69.2644C22.118 70.0983 22.2053 70.8766 22.3086 71.6469L22.4833 72.8144C22.4912 72.8303 22.4912 72.8541 22.4912 72.8779L23.476 77.4604C23.7857 78.6278 24.1272 79.7317 24.5005 80.8197C24.7785 81.6219 25.0485 82.3208 25.3185 83.0196C27.4549 88.3407 30.4886 93.201 34.3325 97.4737L37.3901 100.571C37.4218 100.595 37.6839 100.849 37.7157 100.873L38.1604 101.27L33.3795 107.465L38.5257 101.564ZM4.26475 72.9573V72.9653V72.9573Z" fill="#F393BD"/>
<path fill-rule="evenodd" clip-rule="evenodd" d="M70.6423 7.96924C101.87 7.96924 127.18 33.2798 127.18 64.5071C127.18 95.7343 101.87 121.045 70.6423 121.045C39.4151 121.045 14.1045 95.7343 14.1045 64.5071C14.1045 33.2798 39.423 7.96924 70.6423 7.96924Z" fill="#EE60A2"/>
<path fill-rule="evenodd" clip-rule="evenodd" d="M70.5477 25.4648C92.3083 25.4648 109.947 43.1036 109.947 64.8642C109.947 86.6248 92.3083 104.264 70.5477 104.264C48.7871 104.264 31.1484 86.6248 31.1484 64.8642C31.1484 43.1036 48.7871 25.4648 70.5477 25.4648Z" fill="#0DB9B3"/>
<path fill-rule="evenodd" clip-rule="evenodd" d="M111.17 34.2331C111.146 34.5984 110.892 34.7891 110.598 34.9241C109.288 35.5197 108.311 36.4568 107.596 37.7116C107.175 38.4502 106.675 38.4344 106.286 37.6719C105.626 36.4013 104.745 35.3926 103.482 34.6858C102.767 34.2887 102.791 33.7169 103.538 33.3516C104.864 32.7083 105.865 31.7712 106.587 30.4846C106.977 29.7936 107.493 29.8095 107.842 30.5322C108.47 31.8744 109.423 32.8672 110.701 33.5819C111.106 33.8043 111.178 33.971 111.17 34.2331Z" fill="#F6CD19"/>
<path fill-rule="evenodd" clip-rule="evenodd" d="M102.68 27.5063C102.672 27.7684 102.513 27.8796 102.339 27.967C101.695 28.2846 101.203 28.7532 100.83 29.3568C100.544 29.8174 100.242 29.8015 99.9957 29.325C99.686 28.7214 99.2412 28.237 98.6694 27.8717C98.1929 27.5699 98.1373 27.2443 98.6774 26.9742C99.3207 26.6486 99.7972 26.1721 100.17 25.5606C100.345 25.2826 100.647 25.1159 100.845 25.4574C101.274 26.2198 101.83 26.8392 102.569 27.2919L102.68 27.5063Z" fill="#F6CD19"/>
<path fill-rule="evenodd" clip-rule="evenodd" d="M101.108 65.2214C101.108 66.3889 101.108 67.5563 101.108 68.7238C101.108 71.6384 101.108 71.6384 104.07 71.2652C106.135 71.0031 107.271 70.0739 107.795 68.0487C108.319 66.0236 108.311 63.9825 107.676 61.9732C107.136 60.2499 105.928 59.3207 104.134 59.1698C103.411 59.1062 102.68 59.1221 101.958 59.0665C101.306 59.0109 101.076 59.2412 101.092 59.9163C101.132 61.6794 101.1 63.4504 101.108 65.2214ZM96.4062 56.7237C96.7318 56.0883 97.2481 55.6674 97.8993 55.3974C100.409 55.1909 102.911 55.2306 105.42 55.3736C106.635 55.4451 107.692 56.0248 108.875 56.1598L109.026 56.3981C112.29 58.4788 113.013 61.7588 113.028 65.2691C113.044 67.7469 112.623 70.1533 111.043 72.2182C110.392 73.068 109.542 73.6398 108.684 74.2195C108.589 74.2354 108.502 74.2592 108.525 74.3863L108.533 74.3704C107.715 74.569 106.897 74.8231 106.071 74.966C103.943 75.3234 101.791 75.0693 99.6465 75.1487C98.8444 75.1805 98.0819 75.0693 97.3434 74.7516C97.2004 74.6325 97.0654 74.5134 96.9224 74.3942C96.3347 73.6159 96.2712 72.7106 96.2712 71.7893C96.2712 67.3816 96.2712 62.9739 96.2712 58.5662C96.2633 57.9467 96.1044 57.3193 96.4062 56.7237Z" fill="white"/>
<path fill-rule="evenodd" clip-rule="evenodd" d="M124.274 58.9003C123.567 58.9241 122.916 59.0909 122.376 59.5833C122.035 59.7421 121.781 59.9963 121.63 60.3378C121.51 60.5284 121.399 60.719 121.28 60.9016C121.034 61.2431 120.907 61.6323 120.843 62.0294C120.478 64.1181 120.486 66.2226 120.812 68.3113C120.931 69.0896 121.209 69.8282 121.812 70.3842C122.813 71.639 124.163 71.8137 125.585 71.4722C127.125 71.1069 127.959 69.9394 128.245 68.4622C128.65 66.3418 128.65 64.1816 128.245 62.0532C127.88 60.1392 126.689 59.1068 124.854 58.8924C124.663 58.9003 124.465 58.9003 124.274 58.9003ZM126.371 55.0088C128.523 55.4932 130.397 56.4066 131.7 58.2967C132.486 59.4403 132.971 60.711 133.129 62.0532C133.415 64.4993 133.526 66.9612 132.939 69.3835C132.137 72.6793 130.048 74.6648 126.728 75.3557C126.546 75.3954 126.363 75.459 126.188 75.5146C125.084 75.5066 123.972 75.6258 122.876 75.451C119.136 74.8713 116.817 72.7111 116.047 68.8355C115.586 66.5085 115.538 64.1022 116.031 61.7673C116.992 57.1769 120.168 54.7705 124.862 54.9373C125.354 54.9611 125.863 54.985 126.371 55.0088Z" fill="white"/>
<path fill-rule="evenodd" clip-rule="evenodd" d="M14.3113 58.4315C15.4867 61.1079 16.6701 63.7842 17.8534 66.4686C18.3378 66.2939 18.3537 65.8968 18.4887 65.6029C19.6165 63.1012 20.7204 60.5916 21.8402 58.082C22.1261 57.4467 22.4199 56.8193 22.8567 56.2713C23.6589 55.2627 24.9931 54.8735 26.2717 55.2786C27.3439 55.6121 28.0507 56.5651 28.0586 57.9152C28.0825 62.9027 28.0983 67.8981 28.0586 72.8856C28.0427 74.5534 27.2089 75.3078 25.6602 75.284C24.6357 75.2602 24.0321 74.7519 23.9209 73.6956C23.8177 72.6632 23.7939 71.6228 23.7383 70.5825C23.7383 68.0172 23.7383 65.4441 23.7383 62.8789L23.5397 62.8312C22.5391 65.1026 21.5384 67.366 20.5298 69.6374C20.1962 70.241 19.9341 70.8922 19.5212 71.4402C18.6237 72.6394 17.0751 72.5441 16.265 71.194C15.6376 70.1536 15.169 69.0179 14.629 67.9219C13.8984 66.2224 13.1598 64.5228 12.4291 62.8312L12.1829 62.8948C12.1671 63.2283 12.1353 63.5539 12.1353 63.8875C12.1353 66.826 12.1591 69.7645 12.1273 72.695C12.1115 74.5137 11.2776 75.3396 9.63362 75.284C8.73619 75.2522 8.11672 74.7281 7.98171 73.8227C7.90229 73.2906 7.86258 72.7585 7.86258 72.2185C7.85464 67.6996 7.85464 63.1886 7.86258 58.6777C7.86258 58.2647 7.88642 57.8517 7.94201 57.4467C8.07702 56.5095 8.42646 55.6439 9.43507 55.3898C10.5072 55.1197 11.5952 54.9688 12.5721 55.771C13.4377 56.4778 13.7634 57.5182 14.3113 58.4315Z" fill="white"/>
<path fill-rule="evenodd" clip-rule="evenodd" d="M56.3952 72.2822C56.3793 72.4966 56.3555 72.719 56.3396 72.9334C56.2364 74.2677 55.7122 74.9904 54.6639 75.2366C53.4726 75.5145 52.9961 75.2763 52.186 73.9897C51.9954 68.3033 52.0113 62.6091 52.1781 56.9148C52.6784 55.8903 53.3853 55.1597 54.6242 55.1755C55.0689 55.1835 55.5057 55.1914 55.9505 55.1994C56.1172 55.2708 56.284 55.3423 56.4508 55.4138C56.6096 55.6282 56.8002 55.7871 57.0782 55.795L57.0703 55.7871C57.7215 56.8513 58.2615 57.979 58.7777 59.1147C59.4051 60.4727 59.9055 61.8943 60.6758 63.1888C61.0729 64.3245 61.5812 65.4125 62.2324 66.715C62.7566 65.4761 63.1855 64.4675 63.6064 63.4589C63.8605 62.9188 64.1147 62.3788 64.3688 61.8467C65.4092 59.6547 65.9969 57.2325 67.7441 55.4138C67.9903 55.3423 68.2365 55.2788 68.4826 55.2073C68.9274 55.1994 69.3642 55.1914 69.8089 55.1835C71.3814 55.4138 72.2391 56.2636 72.255 57.9075C72.3027 62.9267 72.2947 67.9539 72.255 72.9811C72.2471 74.3788 71.5164 75.1492 70.341 75.2842C68.975 75.443 68.2762 74.8871 68.0935 73.5132C68.0617 73.2988 68.0061 73.0843 67.9664 72.8699C67.9664 69.5502 67.9664 66.2305 67.9664 62.9109L67.7361 62.8473C66.5766 65.4761 65.425 68.0969 64.2655 70.7256C63.8605 71.3213 63.4714 71.9884 62.7566 72.2028C61.9386 72.441 61.1603 72.3457 60.66 71.496C60.4694 71.1783 60.2152 70.9003 59.9928 70.6065C59.0398 68.0095 57.8009 65.5317 56.6732 63.0141C56.5779 62.8394 56.4746 62.76 56.3793 63.0141C56.3873 66.0876 56.3952 69.1849 56.3952 72.2822Z" fill="white"/>
<path fill-rule="evenodd" clip-rule="evenodd" d="M84.39 59.6545C84.3026 59.6466 84.2153 59.6387 84.1279 59.6307C83.4211 61.9735 82.7143 64.3164 82.0154 66.6592C81.8804 67.096 82.1901 67.1198 82.4999 67.1198C83.6673 67.1198 84.8427 67.1119 86.0101 67.1198C86.439 67.1198 86.574 66.9531 86.4469 66.5322C85.748 64.2529 85.073 61.9497 84.39 59.6545ZM93.0783 73.783C92.03 75.6732 90.4099 75.8161 88.6945 74.1563C88.4006 73.1953 88.0671 72.2423 87.8129 71.2655C87.662 70.6937 87.3602 70.5507 86.8043 70.5587C85.1048 70.5904 83.3973 70.5984 81.6977 70.5587C81.0942 70.5428 80.7924 70.7175 80.6256 71.3131C80.3556 72.282 79.9982 73.2271 79.6805 74.1801C78.3145 75.7764 76.8135 75.7049 75.5269 73.9895C75.4634 73.5765 75.2966 73.2271 75.4475 72.7347C76.9088 67.8505 78.7672 63.1092 80.3079 58.2568C80.6653 57.1211 81.1577 55.8186 82.476 55.4613C85.1921 54.7306 87.1538 55.1515 88.1941 58.1297C89.719 62.4977 91.212 66.8895 92.6972 71.2734C92.9831 72.0835 93.1895 72.9174 93.0783 73.783Z" fill="white"/>
<path fill-rule="evenodd" clip-rule="evenodd" d="M40.0905 59.6148H39.8602C39.1613 61.9576 38.4465 64.3004 37.7636 66.6433C37.6206 67.1436 38.0336 67.1118 38.3512 67.1118C39.4552 67.1198 40.567 67.0959 41.6709 67.1198C42.211 67.1277 42.3142 66.953 42.1554 66.4447C41.663 64.8484 41.2103 63.2362 40.7338 61.632C40.5273 60.9649 40.3049 60.2978 40.0905 59.6148ZM32.7284 75.3078C31.2116 74.3945 30.9495 73.7671 31.426 72.0993C31.553 71.6546 31.6881 71.2019 31.8231 70.7571C31.966 70.3759 32.109 69.9868 32.244 69.6056C33.7291 65.452 34.968 61.2031 36.6279 57.1051C36.9614 56.2713 37.6047 55.6518 38.4863 55.3659C40.9244 54.5717 42.9575 55.4771 43.8073 57.8834C45.4274 62.4261 46.9681 67.0006 48.5327 71.5592C48.8027 72.3455 48.8662 73.1635 48.755 73.9894C47.7782 75.276 46.4837 75.6413 45.2924 75.0139C44.9588 74.8392 44.808 74.5692 44.6015 74.3151C44.4109 73.8862 44.2203 73.4653 44.0297 73.0364C43.8549 72.4328 43.6564 71.8372 43.5214 71.2336C43.4022 70.6936 43.1084 70.5506 42.5842 70.5665C41.393 70.5983 40.2017 70.5824 39.0104 70.5745C36.4929 70.5745 36.4929 70.5745 35.8655 73.0444C35.7781 73.4176 35.6907 73.7909 35.6113 74.1642L35.6272 74.1483C35.2539 74.1721 35.103 74.4183 35.0157 74.736C34.3406 75.276 33.5544 75.3554 32.7284 75.3078Z" fill="white"/>
</svg>
