<svg width="102" height="125" viewBox="0 0 102 125" fill="none" xmlns="http://www.w3.org/2000/svg">
<path d="M0 121.224C0 123.31 22.7946 125 50.9033 125C79.0121 125 101.791 123.325 101.791 121.224C101.791 119.137 78.9969 117.447 50.8881 117.447C22.7794 117.447 0 119.137 0 121.224Z" fill="#E35091"/>
<path d="M20.5261 103.012L17.9832 121.558H16.5062L13.9785 102.616L20.5261 103.012Z" fill="#FDDFDC"/>
<path d="M17.9824 121.559L18.2565 123.706H12.8813L16.4597 121.163L17.9824 121.559Z" fill="#E72790"/>
<path d="M31.4279 102.221L28.9003 120.767H27.408L24.8804 101.84L31.4279 102.221Z" fill="#FDDFDC"/>
<path d="M36.5597 70.1686C40.1684 69.2093 42.9854 65.7833 43.2442 62.0527C42.7722 61.535 42.4981 60.8498 42.5134 60.1493C42.5134 59.8296 42.6047 59.4946 42.8636 59.3119C43.0311 59.2053 43.2443 59.1748 43.427 59.0987C43.9295 58.9007 44.1883 58.3526 44.4472 57.8805C44.6299 57.5456 44.9497 57.1953 45.3151 57.2867C45.5435 57.3476 45.6805 57.5456 45.7871 57.7435C46.2592 58.6114 46.381 59.6621 46.1221 60.6214C45.9546 61.2609 45.5892 61.8395 45.1171 62.3116C45.1476 66.6817 43.1072 71.0365 39.6812 73.7622C36.1637 76.5639 31.2912 77.5841 26.9363 76.4269L26.647 66.3467C28.7331 69.5443 32.9204 71.1431 36.5597 70.1686Z" fill="#FDDFDC"/>
<path d="M32.6614 85.7301C33.301 89.8413 33.8339 93.9678 34.9911 97.9724C35.4327 99.4951 35.9504 101.201 35.1739 102.586C34.4277 103.911 32.7071 104.383 31.1997 104.261C29.677 104.139 28.2457 103.53 26.7534 103.241C25.7637 103.043 24.6521 103.134 23.7385 103.591C22.8553 104.033 22.3072 104.901 21.2261 104.977C20.3734 105.038 19.5359 104.733 18.7441 104.413C16.2926 103.424 14.8612 104.002 12.4706 104.657C10.2627 105.251 8.49644 104.276 8.3594 101.871C8.29849 100.759 8.60301 99.6626 8.90755 98.5815C10.5368 92.8714 12.1661 87.1614 13.7954 81.4513C15.1049 76.868 15.516 70.96 20.2668 68.5694C22.3376 67.5187 24.0278 67.9603 26.0378 69.0719C30.2251 71.4016 31.291 78.1166 32.0981 82.4411C32.3112 83.5222 32.4939 84.6185 32.6614 85.7301Z" fill="#C1E4D6"/>
<path d="M15.105 61.5648C15.105 66.1024 18.7899 69.7873 23.3275 69.7873C27.8651 69.7873 31.55 66.1024 31.55 61.5648C31.55 57.0272 27.8651 53.3423 23.3275 53.3423C18.7899 53.3423 15.105 57.0272 15.105 61.5648Z" fill="#FDDFDC"/>
<path d="M75.8755 117.006L70.5918 119.534H79.2406L78.9209 117.006H75.8755Z" fill="#231F20"/>
<path d="M81.0068 77.2789L78.9207 117.006H75.8754L71.8555 75.3604L81.0068 77.2789Z" fill="#F1BAAD"/>
<path d="M56.309 118.757L51.0405 121.3H59.6741L59.3544 118.757H56.309Z" fill="#231F20"/>
<path d="M64.6995 77.2789L59.3549 118.757H56.3095L55 75.3604L64.6995 77.2789Z" fill="#F1BAAD"/>
<path d="M73.378 14.4683H68.6577V20.8635H73.378V14.4683Z" fill="#F1BAAD"/>
<path d="M57.3291 30.7604C57.8772 29.1768 59.065 27.8825 60.2222 26.6644C62.0647 24.7306 63.9528 22.7968 66.2825 21.4873C73.028 17.6958 80.748 22.2791 81.4332 29.7859C82.9863 46.8704 83.6259 57.2095 85.3465 68.8732H52.7153C53.0199 65.8888 57.192 41.0994 56.9941 35.4503C56.9332 33.9124 56.8266 32.3136 57.2986 30.8518C57.2986 30.8213 57.3138 30.7909 57.3291 30.7604Z" fill="#EE4599"/>
<path d="M85.3466 68.874L87.7524 86.3849H51.0405C51.3298 84.3902 51.878 77.3402 52.7307 68.874H85.3466Z" fill="#FEE86B"/>
<path d="M78.1599 13.9353C76.0433 17.8943 70.6682 19.4931 66.892 17.4679C63.1157 15.4428 62.3696 10.5397 64.4861 6.58075C66.6027 2.62176 71.3991 1.06862 75.1754 3.09379C78.9364 5.13419 80.2764 9.97634 78.1599 13.9353Z" fill="#F1BAAD"/>
<path d="M85.1341 29.5733C87.4181 28.8424 90.2503 26.8629 89.489 24.0764C88.9865 22.2339 86.8091 21.0462 84.9971 21.6096C85.8498 20.361 85.8193 18.6252 85.0427 17.3613C84.19 15.9605 82.5608 15.9148 81.5863 14.7575C81.0838 14.1789 80.9772 13.3567 81.0381 12.5953C81.099 11.834 81.3274 11.0879 81.3883 10.3265C81.7233 6.82435 78.9215 3.39832 75.6934 2.31721C74.658 1.96699 73.4856 1.60155 72.3892 1.60155C71.2472 1.60155 70.4554 1.55587 69.3895 0.992472C68.3541 0.444305 67.2426 -0.18 66.1005 0.0484028C64.8672 0.292032 63.9992 1.58632 64.0601 2.85015C64.1211 4.09875 64.989 5.24076 66.1005 5.81938C68.7043 7.1898 72.5567 5.92598 73.9424 9.2302C74.6732 10.9661 74.0033 13.0978 73.5617 14.8185C72.9983 16.9959 72.4806 19.219 72.6329 21.4574C72.8613 24.8986 75.0539 27.8831 78.1754 29.3144C80.3376 30.2737 82.8653 30.3042 85.1341 29.5733Z" fill="#864E9B"/>
<path d="M62.9936 8.84871C62.9175 9.33597 63.2373 9.80799 63.7397 9.88412C64.227 9.96026 64.699 9.6405 64.7752 9.13801C64.8513 8.65075 64.5315 8.17872 64.0291 8.10259C63.5418 8.02645 63.085 8.36145 62.9936 8.84871Z" fill="#F1BAAD"/>
<path d="M45.5132 54.3929C45.7416 54.5147 48.1626 51.9414 48.452 51.6521C49.3351 50.7842 50.2031 49.901 51.0405 49.0026C52.548 47.3734 53.9945 45.6832 55.3345 43.9169C57.9535 40.4756 60.2223 36.7298 61.7907 32.6794C62.2627 31.4613 62.6586 30.2127 62.9631 28.9489C63.4961 26.7562 64.0747 24.396 66.2826 23.254C67.9423 22.3861 69.8457 22.5384 71.2313 23.8631C72.9215 25.4924 72.0384 28.4616 71.3988 30.7152C69.0996 38.694 53.355 53.2357 47.1729 56.6008C46.2897 55.6263 46.9141 55.0934 45.5132 54.3929Z" fill="#F1BAAD"/>
<path d="M30.7584 54.0886C31.6263 54.987 32.3115 56.0681 32.7835 57.2558C33.758 59.7073 33.6819 62.57 32.5704 64.9606C33.8037 65.4174 35.0219 66.0112 35.9355 66.9553C36.8491 67.8994 37.4429 69.2393 37.2145 70.5336C36.9861 71.8279 35.7832 72.9699 34.4737 72.8633C35.1437 73.8531 34.763 75.3148 33.8189 76.0457C32.8749 76.7766 31.5501 76.868 30.4081 76.5178C29.2661 76.1675 28.2916 75.4519 27.378 74.6753C26.7537 74.1424 25.8401 73.4572 25.4899 72.7111C24.4545 73.6094 22.7642 73.3963 21.6984 72.5436C20.6173 71.6909 20.0386 70.3661 19.6427 69.0414C18.4703 65.0824 18.6835 60.8493 19.0946 56.7381C17.9221 57.0731 16.6888 55.9158 16.6735 54.6977C16.6583 53.4795 17.5871 52.3832 18.6987 51.8959C19.8102 51.3935 21.0893 51.3782 22.3074 51.4696C25.4442 51.6828 28.383 51.6371 30.7584 54.0886Z" fill="#CCB0D2"/>
<path d="M14.2676 59.4329C14.2676 60.0572 14.7701 60.5597 15.3944 60.5597C16.0187 60.5597 16.5212 60.0572 16.5212 59.4329C16.5212 58.8086 16.0187 58.3062 15.3944 58.3062C14.7701 58.3062 14.2676 58.8086 14.2676 59.4329Z" fill="#FDDFDC"/>
<path d="M8.48139 65.7676C8.55752 65.9655 5.92329 76.9136 5.92329 76.9136L3.45654 65.7676H8.48139Z" fill="#FEE86B"/>
<path d="M1.90332 64.1991C1.90332 65.3259 2.81693 66.2395 3.94371 66.2395C5.0705 66.2395 5.98411 65.3259 5.98411 64.1991C5.98411 63.0723 5.0705 62.1587 3.94371 62.1587C2.81693 62.1587 1.90332 63.0723 1.90332 64.1991Z" fill="#D18ABC"/>
<path d="M5.4668 75.6496C6.13678 75.5126 6.4718 75.3299 7.06564 74.9949C6.83724 75.1319 8.83193 79.7304 10.5526 79.5173C13.7197 79.1214 14.7095 70.8684 18.1051 70.7314C19.6278 70.6705 19.978 71.7972 19.9171 72.9545C19.8562 74.0356 17.694 78.6036 16.9174 79.7304C16.2018 80.7811 14.9684 81.9536 13.8872 82.5779C8.07059 85.943 5.60384 77.0353 5.4668 75.6496Z" fill="#FDDFDC"/>
<path d="M6.85154 75.3299C7.44539 74.7817 7.552 73.792 7.11042 73.1372C7.00383 72.9849 6.80585 72.8327 6.65359 72.9393C6.56222 73.0002 6.54703 73.1372 6.54703 73.2438C6.53181 73.5331 6.51657 73.8224 6.48611 74.127C5.90749 73.8833 5.43545 73.4265 5.19182 72.8631C5.10046 72.6652 4.99389 72.4216 4.78071 72.4063C4.61322 72.3911 4.47616 72.5434 4.3848 72.6804C3.97367 73.2895 3.88231 74.1117 4.14116 74.7969C4.50661 75.7562 5.43544 76.3653 6.31859 76.8982L6.85154 75.3299Z" fill="#FDDFDC"/>
<path d="M3.70068 63.8184C3.70068 65.0974 4.73614 66.1329 6.01519 66.1329C7.29425 66.1329 8.32966 65.0974 8.32966 63.8184C8.32966 62.5393 7.29425 61.5039 6.01519 61.5039C4.73614 61.5039 3.70068 62.5393 3.70068 63.8184Z" fill="#12BBB5"/>
<path d="M8.23793 66.4832C9.39004 66.4832 10.324 65.5492 10.324 64.3971C10.324 63.245 9.39004 62.311 8.23793 62.311C7.08582 62.311 6.15186 63.245 6.15186 64.3971C6.15186 65.5492 7.08582 66.4832 8.23793 66.4832Z" fill="#EB4599"/>
<path d="M28.9003 120.691L29.1744 122.838H23.7993L27.3624 120.295L28.9003 120.691Z" fill="#E72790"/>
<path d="M46.122 54.3016C45.1627 54.3777 44.2491 54.8498 43.64 55.5807C43.0157 56.3115 42.7112 57.2861 42.8026 58.2454C42.833 58.5042 42.8939 58.7935 43.1071 58.9306C43.3507 59.0828 43.6705 59.0067 43.8989 58.824C44.1121 58.6413 44.2491 58.3824 44.3861 58.1388C44.5536 57.8495 44.7516 57.5449 45.0561 57.3927C45.3606 57.2404 45.8022 57.3013 45.9393 57.6058C46.0306 57.8038 46.0002 58.0626 46.1677 58.1997C46.2895 58.3063 46.4874 58.2758 46.6245 58.1997C46.7615 58.1083 46.8529 57.9713 46.9443 57.8342C47.6599 56.677 48.071 55.337 48.132 53.9971L46.122 54.3016Z" fill="#F1BAAD"/>
</svg>
