<svg width="67" height="131" viewBox="0 0 67 131" fill="none" xmlns="http://www.w3.org/2000/svg">
<path opacity="0.66" d="M6.41235 128.433C6.41235 129.583 19.7823 130.513 36.2623 130.513C52.7523 130.513 66.1124 129.583 66.1124 128.433C66.1124 127.283 52.7423 126.353 36.2623 126.353C19.7823 126.343 6.41235 127.283 6.41235 128.433Z" fill="black" fill-opacity="0.1"/>
<path d="M40.1925 127.992C40.4525 128.212 40.8025 128.282 41.1425 128.322C42.3425 128.472 43.5725 128.452 44.7625 128.272C45.0525 128.232 45.3625 128.162 45.5425 127.932C45.8125 127.602 45.6925 127.112 45.5525 126.702C45.3625 126.132 45.1725 125.562 44.9725 124.992C44.8625 124.672 44.7425 124.342 44.4725 124.142C44.1225 123.882 43.6325 123.952 43.2025 124.042C42.3425 124.232 40.9225 124.392 40.3525 125.112C39.8725 125.742 39.5325 127.412 40.1925 127.992Z" fill="#0051A0"/>
<path d="M16.8224 127.992C17.0824 128.212 17.4324 128.282 17.7724 128.322C18.9724 128.472 20.2024 128.452 21.3924 128.272C21.6824 128.232 21.9925 128.162 22.1725 127.932C22.4425 127.602 22.3224 127.112 22.1824 126.702C21.9924 126.132 21.8025 125.562 21.6025 124.992C21.4925 124.672 21.3725 124.342 21.1025 124.142C20.7525 123.882 20.2624 123.952 19.8324 124.042C18.9724 124.232 17.5525 124.392 16.9825 125.112C16.5125 125.742 16.1624 127.412 16.8224 127.992Z" fill="#0051A0"/>
<path d="M42.9324 66.6025L45.0024 124.843L39.8024 125.633L32.8124 78.0526L21.7924 125.223L16.4624 124.933L20.8224 66.6025H42.9324Z" fill="#4F4F4F"/>
<path d="M4.46238 12.4524C4.41238 12.2324 4.3224 11.9824 4.1124 11.9324C3.8324 11.8624 3.60236 12.1824 3.57236 12.4724C3.54236 12.7624 3.60235 13.0624 3.49235 13.3224C2.81235 12.2924 2.0124 11.3324 1.1124 10.4824C0.892403 10.2724 0.582354 10.0624 0.312354 10.1924C0.0923541 10.3024 0.0323664 10.5824 0.0123664 10.8324C-0.107634 12.5624 0.652357 14.3424 2.00236 15.4424C2.38236 15.7524 2.83237 16.0224 3.33237 16.0524C4.91237 16.1224 4.67238 13.4524 4.46238 12.4524Z" fill="#FAAB96"/>
<path d="M23.9125 32.8022C19.1525 32.7522 13.5125 31.0222 10.1525 27.6522C6.79253 24.2822 4.82253 19.5622 4.78253 14.8022C3.63253 14.9922 2.48252 15.1823 1.33252 15.3723C1.65252 21.3823 3.98255 27.2723 7.86255 31.8723C11.7425 36.4723 17.2325 40.5023 23.1125 41.8223L23.9125 32.8022Z" fill="#FCFCFA"/>
<path d="M11.5225 1.14237C11.5225 1.07237 11.5225 1.00236 11.4825 0.942359C11.4025 0.852359 11.2424 0.892347 11.1824 0.992347C11.1124 1.09235 11.1125 1.22232 11.1125 1.34232C11.1025 1.46232 11.0925 1.59234 11.0025 1.67234C10.6825 1.16234 10.2825 0.702354 9.82246 0.312354C9.58246 0.112354 9.2725 -0.0776752 8.9825 0.0323248C8.8325 0.0923248 8.72246 0.232352 8.63246 0.372352C8.27246 0.972352 8.29249 1.75236 8.60249 2.38236C8.91249 3.00236 9.49248 3.47234 10.1525 3.73234C10.4025 3.83234 10.6825 3.89232 10.9225 3.78232C11.5825 3.46232 11.5025 1.74237 11.5225 1.14237Z" fill="#FAAB96"/>
<path d="M23.8524 13.4822C21.7024 13.1022 19.6624 12.2422 17.8524 11.0322C17.1324 11.3922 17.1124 12.2522 17.1124 14.3422C17.1124 12.2422 17.1324 11.3922 17.8524 11.0322C14.8524 9.01223 12.5123 6.01225 11.4423 2.55225C10.9223 2.95225 10.4123 3.36227 9.90234 3.76227C10.6223 7.25227 12.4623 10.5022 15.0823 12.9222C17.7023 15.3322 21.0923 16.9023 24.6323 17.3323L23.8524 13.4822Z" fill="#FAAB96"/>
<path d="M40.4324 31.0625C40.4324 31.0625 40.9324 32.1225 41.6624 35.2425H39.1524L36.9424 33.4125L37.9924 31.7825L40.4324 31.0625Z" fill="#0051A0"/>
<path d="M33.4224 24.3525H28.7024V31.3326H33.4224V24.3525Z" fill="#E78B71"/>
<path d="M37.9125 13.7624C37.7325 13.2024 37.2125 12.7924 36.6925 12.5124C35.0425 11.6224 32.9825 11.4923 31.1625 11.6623C29.2725 11.8423 27.6425 12.0623 26.2125 13.4823C25.4125 14.2723 24.8025 15.3223 24.5025 16.4023C23.8225 18.8023 24.1325 21.4423 25.4125 23.6023C26.6025 25.6023 28.7925 26.6124 30.6625 27.8824C30.7125 27.9124 30.7625 27.9524 30.8225 27.9424C30.8825 27.9424 30.9225 27.9024 30.9725 27.8624C31.4825 27.4324 31.9725 26.8724 32.6125 26.6824C33.2225 26.4924 33.7625 26.3223 34.3125 25.9723C35.4825 25.2323 36.4025 24.1323 37.0025 22.9023C37.5425 21.8123 37.6025 20.5624 37.7025 19.3724C37.8125 18.0624 37.3825 16.8723 37.7225 15.5323C37.8625 15.0023 38.0725 14.4624 37.9625 13.9224C37.9425 13.8724 37.9225 13.8124 37.9125 13.7624Z" fill="black"/>
<path d="M29.2625 29.7925L18.0525 36.2625L19.9725 67.5925L44.4025 67.1425L43.6425 35.1425L33.4225 29.7925H29.2625Z" fill="#FCFCFA"/>
<path d="M29.7323 9.1123L30.1323 13.7723L27.6023 14.1623L26.0923 13.9423L29.7323 9.1123Z" fill="#E78B71"/>
<path d="M33.8723 13.9524C33.8723 13.9524 26.2723 11.7924 23.4223 12.8324C20.5723 13.8724 20.6723 15.0924 20.6723 15.0924L23.1523 27.6324C26.2823 27.6324 29.4123 27.6324 32.5423 27.6324L33.8723 13.9524Z" fill="#D827A2"/>
<path d="M35.3323 27.9523L32.5223 27.8423L32.5423 27.6323C29.4123 27.6323 26.2823 27.6323 23.1523 27.6323L23.3123 28.4423C23.3123 28.4423 21.2223 32.2123 24.1423 33.3723C27.0623 34.5323 34.1023 33.3523 34.1023 33.3523L40.7523 32.2523C40.7423 32.2523 40.5623 28.4323 35.3323 27.9523Z" fill="#00B0B0"/>
<path d="M30.6923 7.33239C30.8423 8.28239 30.5523 8.91235 30.1123 9.85235C29.4923 11.1723 29.2623 12.6324 28.5623 13.9224C27.7723 15.3624 26.4623 16.6023 24.8523 16.9023C24.0323 17.0523 23.1623 16.9623 22.3923 17.2823C21.5023 17.6523 20.9123 18.5024 20.2523 19.2024C19.1723 20.3424 17.6523 21.1924 16.0923 21.0524C14.5323 20.9024 13.0523 19.4824 13.2423 17.9224C13.3423 17.0724 13.8723 16.1224 13.3423 15.4424C13.0323 15.0424 12.4923 14.9323 12.0323 14.7223C11.2023 14.3223 10.6323 13.4424 10.6023 12.5224C10.5723 11.6024 11.0823 10.6824 11.8823 10.2324C13.5423 9.29235 15.6123 10.4123 17.5123 10.2123C19.8123 9.96233 20.4923 8.14239 21.0723 6.27239C21.5723 4.65239 23.1023 3.51233 24.7923 3.21233C27.3123 2.77233 29.8323 4.33234 30.5623 6.78234C30.6223 6.97234 30.6623 7.15239 30.6923 7.33239Z" fill="#4F4F4F"/>
<path d="M40.7925 1.14237C40.7925 1.07237 40.7925 1.00236 40.8325 0.942359C40.9125 0.852359 41.0724 0.892347 41.1324 0.992347C41.2024 1.09235 41.2025 1.22232 41.2025 1.34232C41.2125 1.46232 41.2224 1.59234 41.3124 1.67234C41.6324 1.16234 42.0324 0.702354 42.4924 0.312354C42.7324 0.112354 43.0425 -0.0776752 43.3325 0.0323248C43.4825 0.0923248 43.5924 0.232352 43.6824 0.372352C44.0424 0.972352 44.0225 1.75236 43.7125 2.38236C43.4025 3.00236 42.8225 3.47234 42.1625 3.73234C41.9125 3.83234 41.6325 3.89232 41.3925 3.78232C40.7325 3.46232 40.8025 1.74237 40.7925 1.14237Z" fill="#FAAB96"/>
<path d="M40.8627 2.55225C39.9327 5.54225 38.3426 8.10227 36.2026 10.0123L38.0927 12.3323C40.2227 9.96228 41.7827 6.82227 42.4127 3.76227C41.8927 3.35227 41.3827 2.95225 40.8627 2.55225Z" fill="#FAAB96"/>
<path d="M29.5125 13.2524L28.1025 17.6624C31.6425 17.2324 34.5625 15.7424 37.1825 13.3224C37.5025 13.0224 37.7825 12.6624 38.0825 12.3224L36.1925 10.0024C34.3725 11.6324 32.1425 12.7924 29.5125 13.2524Z" fill="#D827A2"/>
<path d="M57.2524 11.9822C57.3024 11.7622 57.3924 11.5122 57.6024 11.4622C57.8824 11.3922 58.1124 11.7122 58.1424 12.0022C58.1724 12.2922 58.1124 12.5922 58.2224 12.8522C58.9024 11.8222 59.7024 10.8622 60.6024 10.0122C60.8224 9.80224 61.1324 9.5922 61.4024 9.7222C61.6224 9.8322 61.6824 10.1122 61.7024 10.3622C61.8224 12.0922 61.0624 13.8722 59.7124 14.9722C59.3324 15.2822 58.8824 15.5523 58.3824 15.5823C56.8124 15.6523 57.0424 12.9822 57.2524 11.9822Z" fill="#FAAB96"/>
<path d="M38.7424 32.582C43.5024 32.532 48.2124 30.552 51.5724 27.182C54.9324 23.812 56.9024 19.092 56.9424 14.332C58.0924 14.522 59.2424 14.712 60.3924 14.902C60.0724 20.912 57.7424 26.802 53.8624 31.402C49.9824 36.002 44.5624 39.282 38.6924 40.602L38.7424 32.582Z" fill="#FCFCFA"/>
</svg>
