<svg width="244" height="178" viewBox="0 0 244 178" fill="none" xmlns="http://www.w3.org/2000/svg">
<path d="M85.4146 174.678C85.4146 176.529 66.2912 178 42.7072 178C19.1233 178 -0.000137329 176.505 -0.000137329 174.678C-0.000137329 172.828 19.1233 171.357 42.7072 171.357C66.2912 171.357 85.4146 172.851 85.4146 174.678Z" fill="#8EA7C2"/>
<path d="M67.3594 113.322L39.1251 48.9287" stroke="#8C8987" stroke-width="0.0698" stroke-miterlimit="10"/>
<path d="M53.1713 51.0405L67.2173 111.282L66.6716 64.0187" stroke="#8C8987" stroke-width="0.0698" stroke-miterlimit="10"/>
<path d="M71.8913 29.7583L67.3834 111.875L84.5137 40.1742" stroke="#8C8987" stroke-width="0.0698" stroke-miterlimit="10"/>
<path d="M96.4712 60.1042L66.576 113.607" stroke="#8C8987" stroke-width="0.0698" stroke-miterlimit="10"/>
<path d="M84.4174 13.7664C84.1801 21.952 77.8926 29.1411 71.9847 28.975C66.0532 28.8089 60.2165 21.2402 60.4538 13.0546C60.6911 4.86906 66.2193 -0.184645 72.8389 0.00516581C79.4586 0.218703 84.6784 5.60454 84.4174 13.7664Z" fill="#EF61A3"/>
<path d="M63.088 19.1992C62.922 19.1992 62.8033 19.1042 62.7322 18.9381C62.0915 17.0637 61.8068 15.0945 61.8543 13.1015C61.9729 9.66123 63.0406 6.71915 64.9387 4.56006C65.081 4.4177 65.3183 4.39395 65.4607 4.53631C65.6268 4.67866 65.6268 4.91593 65.4844 5.05829C63.6812 7.09875 62.661 9.87479 62.5661 13.1253C62.5186 15.0234 62.8034 16.8977 63.4202 18.7009C63.4914 18.8907 63.3728 19.1043 63.183 19.1755C63.1592 19.1992 63.1118 19.1992 63.088 19.1992Z" fill="white"/>
<path d="M65.8884 24.2297C65.7935 24.2297 65.6748 24.1822 65.6037 24.0873C64.8681 23.2332 64.2275 22.2604 63.6818 21.2164C63.5869 21.0266 63.6581 20.813 63.8479 20.7181C64.014 20.5995 64.2512 20.6944 64.3461 20.8842C64.8681 21.8807 65.485 22.8061 66.1731 23.6128C66.2917 23.7551 66.2917 23.9923 66.1256 24.1347C66.0544 24.1821 65.9595 24.2297 65.8884 24.2297Z" fill="white"/>
<path d="M69.6361 32.1068L72.0087 28.5952L74.144 32.2254L69.6361 32.1068Z" fill="#EF61A3"/>
<path d="M97.2306 28.1684C95.7832 35.6896 89.4008 41.4789 84.442 40.5299C79.4595 39.5808 75.7108 31.7985 77.1581 24.301C78.6054 16.7798 84.015 12.8649 89.5669 13.9089C95.0952 14.9766 98.6779 20.6472 97.2306 28.1684Z" fill="#FEE86B"/>
<path d="M78.463 30.28C78.297 30.28 78.1546 30.1614 78.1309 29.9953C77.8699 28.1684 77.9174 26.3178 78.2733 24.5146C78.8664 21.359 80.2188 18.7965 82.1643 17.0645C82.283 16.9458 82.4965 16.9459 82.6389 17.0882C82.7575 17.2306 82.7575 17.4204 82.6151 17.5628C80.8119 19.1762 79.507 21.6674 78.9376 24.6332C78.6054 26.3889 78.558 28.1446 78.7952 29.9003C78.819 30.0901 78.7003 30.2563 78.5105 30.28C78.4867 30.28 78.4868 30.28 78.463 30.28Z" fill="white"/>
<path d="M80.0756 35.3099C79.957 35.3099 79.8384 35.2387 79.7909 35.1438C79.3164 34.2659 78.913 33.2932 78.6046 32.2255C78.5571 32.0594 78.6521 31.8695 78.8419 31.822C79.0317 31.7983 79.1978 31.8696 79.2453 32.0594C79.53 33.0559 79.9095 34.0049 80.3603 34.8353C80.4552 35.0014 80.3841 35.1912 80.218 35.2861C80.1942 35.2861 80.1231 35.3099 80.0756 35.3099Z" fill="white"/>
<path d="M81.9743 43.0924L84.5129 40.1741L85.7705 43.828L81.9743 43.0924Z" fill="#FEE86B"/>
<path d="M112.51 52.7723C109.283 59.819 100.955 63.7102 95.7118 61.3139C90.4445 58.8938 88.0008 50.0676 91.2513 43.0208C94.4781 35.9741 101.311 33.649 107.195 36.3538C113.079 39.0348 115.761 45.7256 112.51 52.7723Z" fill="#12BBB5"/>
<path d="M91.4888 49.4035C91.2753 49.3798 91.1329 49.2136 91.1329 49.0238C91.2515 47.102 91.7024 45.2988 92.4853 43.5905C93.8615 40.6247 95.9019 38.4657 98.4169 37.3031C98.6067 37.232 98.7966 37.303 98.8915 37.4691C98.9626 37.6352 98.8914 37.8487 98.7254 37.9437C96.3527 39.0351 94.4309 41.0755 93.1497 43.8752C92.4142 45.4886 91.9634 47.2443 91.8448 49.0475C91.821 49.2374 91.6786 49.4035 91.4888 49.4035Z" fill="white"/>
<path d="M92.1533 54.8607C92.0109 54.8607 91.8686 54.7659 91.8211 54.6235C91.489 53.5795 91.2755 52.4881 91.1806 51.373C91.1568 51.1832 91.2991 50.9933 91.4889 50.9933C91.6787 50.9696 91.8686 51.112 91.8686 51.3018C91.9635 52.3694 92.177 53.4134 92.4855 54.3862C92.5566 54.576 92.438 54.7658 92.2482 54.837C92.2245 54.8607 92.177 54.8607 92.1533 54.8607Z" fill="white"/>
<path d="M92.4619 63.1412L95.8785 60.9822L96.4717 64.9919L92.4619 63.1412Z" fill="#12BBB5"/>
<path d="M60.835 34.9773C62.1162 42.5222 58.1539 50.2096 53.1714 51.04C48.1651 51.8942 41.9489 45.9151 40.6676 38.3701C39.3864 30.8252 43.0877 25.2495 48.6634 24.3004C54.2153 23.3751 59.5538 27.456 60.835 34.9773Z" fill="#C4B7DA"/>
<path d="M43.8703 43.5663C43.7517 43.5663 43.633 43.4951 43.5855 43.4002C42.7077 41.763 42.0908 40.0073 41.8061 38.2041C41.2841 35.0485 41.64 32.1777 42.85 29.8763C42.9449 29.7102 43.1347 29.6628 43.3008 29.7339C43.4669 29.8051 43.5144 30.0187 43.4432 30.1847C42.328 32.3201 41.9722 35.1435 42.4705 38.1092C42.7552 39.8413 43.3483 41.5258 44.1787 43.0917C44.2736 43.2578 44.2024 43.4476 44.0363 43.5425C43.9889 43.5425 43.9415 43.5663 43.8703 43.5663Z" fill="white"/>
<path d="M47.1443 47.6951C47.0731 47.6951 46.9782 47.6714 46.9307 47.624C46.1478 46.9359 45.436 46.153 44.8191 45.2988C44.7005 45.1565 44.7479 44.9429 44.8903 44.848C45.0327 44.7294 45.2462 44.7768 45.3411 44.9191C45.9343 45.7258 46.6223 46.485 47.3579 47.1257C47.5002 47.2443 47.5002 47.4579 47.3815 47.6002C47.3104 47.6714 47.2392 47.6951 47.1443 47.6951Z" fill="white"/>
<path d="M51.7716 54.3147L53.1003 50.7083L55.5679 53.674L51.7716 54.3147Z" fill="#C4B7DA"/>
<path d="M77.7042 48.5968C77.3483 56.2367 71.8675 62.9038 66.8138 62.6665C61.7601 62.4292 56.92 55.2877 57.2759 47.6479C57.6318 40.008 62.4245 35.3339 68.0713 35.5949C73.7182 35.8559 78.0601 40.957 77.7042 48.5968Z" fill="#9DD9DC"/>
<path d="M59.3869 53.3898C59.2446 53.3898 59.1023 53.2949 59.0785 53.1526C58.5566 51.3731 58.343 49.5461 58.4379 47.6954C58.5802 44.4924 59.553 41.7639 61.2139 39.7709C61.3325 39.6285 61.5461 39.6048 61.6647 39.7234C61.807 39.842 61.8307 40.0556 61.7121 40.1742C60.1462 42.0486 59.2209 44.6585 59.0785 47.7192C58.9836 49.4986 59.1971 51.2544 59.6954 52.9627C59.7428 53.1288 59.6479 53.3186 59.4818 53.366C59.4581 53.3897 59.4344 53.3898 59.3869 53.3898Z" fill="white"/>
<path d="M61.7123 58.1345C61.6174 58.1345 61.5226 58.087 61.4514 57.9921C60.8345 57.1854 60.3125 56.26 59.8617 55.2873C59.7905 55.1212 59.8617 54.9314 60.0278 54.8602C60.2176 54.8128 60.3837 54.8602 60.4548 55.0263C60.8819 55.9754 61.3801 56.8533 61.9733 57.6125C62.0919 57.7549 62.0445 57.9684 61.9021 58.0633C61.8547 58.1108 61.7835 58.1345 61.7123 58.1345Z" fill="white"/>
<path d="M64.7508 65.561L66.8387 62.3105L68.6182 65.7271L64.7508 65.561Z" fill="#9DD9DC"/>
<path d="M45.0321 29.6387C48.0691 37.7056 44.961 47.1724 39.2667 49.3315C33.5486 51.4906 25.0071 46.3895 21.9702 38.3226C18.9332 30.2556 22.16 23.1614 28.5186 20.7651C34.901 18.3687 41.9952 21.5717 45.0321 29.6387Z" fill="#9BD08C"/>
<path d="M26.7405 43.2814C26.6219 43.2814 26.527 43.234 26.4558 43.1391C25.0797 41.5257 24.0357 39.7225 23.3002 37.8007C22.0427 34.4315 21.8765 31.1573 22.8256 28.2864C22.873 28.0729 23.1341 27.9543 23.3002 28.0492C23.5137 28.1204 23.6086 28.3339 23.5374 28.5238C22.6358 31.2285 22.8019 34.3367 24.0119 37.5397C24.7 39.3904 25.7203 41.1224 27.0252 42.6409C27.1676 42.807 27.1438 43.0442 26.9777 43.1866C26.9302 43.2578 26.8354 43.2814 26.7405 43.2814Z" fill="white"/>
<path d="M31.4369 47.0779C31.3895 47.0779 31.3183 47.0541 31.2709 47.0304C30.2269 46.4846 29.2304 45.7729 28.3051 44.9662C28.139 44.8238 28.139 44.5866 28.2814 44.4205C28.4237 44.2544 28.661 44.2307 28.8271 44.3968C29.705 45.156 30.6539 45.8204 31.6504 46.3423C31.8403 46.4372 31.9115 46.6744 31.8165 46.8643C31.6979 47.0066 31.5555 47.0779 31.4369 47.0779Z" fill="white"/>
<path d="M38.2939 53.2704L39.1243 48.9285L42.6357 51.6333L38.2939 53.2704Z" fill="#9BD08C"/>
<path d="M47.8791 148.888L51.1532 172.97H53.0988L56.373 148.389L47.8791 148.888Z" fill="#F6C6C0"/>
<path d="M51.1535 172.969L50.8213 175.769H57.7969L53.1465 172.471L51.1535 172.969Z" fill="#12BBB5"/>
<path d="M33.714 147.773L37.0119 171.855H38.9338L42.208 147.274L33.714 147.773Z" fill="#F6C6C0"/>
<path d="M32.1018 126.443C31.2714 131.781 30.5833 137.144 29.0649 142.34C28.4954 144.309 27.8074 146.539 28.8277 148.319C29.8004 150.027 32.0307 150.667 34 150.501C35.9693 150.335 37.8436 149.552 39.7654 149.173C41.0467 148.912 42.494 149.03 43.6803 149.624C44.8429 150.193 45.5547 151.332 46.9545 151.427C48.0697 151.498 49.1374 151.118 50.1813 150.691C53.3607 149.386 55.235 150.169 58.3194 151C61.1666 151.783 63.468 150.501 63.6579 147.37C63.7528 145.922 63.3494 144.499 62.946 143.099C60.8344 135.672 58.699 128.27 56.5874 120.844C54.8791 114.888 54.3571 107.225 48.1883 104.117C45.4835 102.764 43.3007 103.333 40.6908 104.781C35.2575 107.794 33.8576 116.525 32.8137 122.148C32.5764 123.572 32.3391 125.019 32.1018 126.443Z" fill="#9DD9DC"/>
<path d="M54.9028 94.9813C54.9028 100.889 50.1101 105.658 44.226 105.658C38.3181 105.658 33.5492 100.865 33.5492 94.9813C33.5492 89.0734 38.3419 84.3044 44.226 84.3044C50.1338 84.3044 54.9028 89.0734 54.9028 94.9813Z" fill="#F6C6C0"/>
<path d="M34.5934 85.3492C33.4783 86.5118 32.5766 87.9354 31.9598 89.4538C30.7023 92.6332 30.7972 96.3581 32.2445 99.4663C30.6548 100.059 29.0651 100.842 27.8788 102.052C26.6925 103.286 25.9333 105.018 26.218 106.703C26.5265 108.387 28.0687 109.858 29.777 109.74C28.8991 111.021 29.3973 112.919 30.6311 113.868C31.8411 114.817 33.5732 114.936 35.0442 114.485C36.5153 114.034 37.7965 113.085 38.9828 112.089C39.7895 111.401 40.9758 110.499 41.4266 109.55C42.779 110.713 44.9618 110.452 46.3616 109.336C47.7615 108.221 48.5207 106.489 49.019 104.781C50.5375 99.6323 50.2765 94.1516 49.7308 88.7894C51.2493 89.2165 52.8626 87.7218 52.8864 86.1321C52.9101 84.5424 51.7001 83.1426 50.2528 82.4783C48.8055 81.8377 47.1446 81.814 45.5787 81.9089C41.4741 82.2173 37.6541 82.1699 34.5934 85.3492Z" fill="#864E9B"/>
<path d="M55.9941 92.2056C55.9941 93.0123 55.3536 93.653 54.5469 93.653C53.7402 93.653 53.0995 93.0123 53.0995 92.2056C53.0995 91.3989 53.7639 90.7583 54.5469 90.7583C55.3536 90.7583 55.9941 91.3989 55.9941 92.2056Z" fill="#F6C6C0"/>
<path d="M67.4302 113.251C66.5523 113.061 66.1252 112.847 65.3422 112.397C65.6507 112.563 63.0408 118.565 60.8105 118.281C56.7059 117.782 55.4246 107.034 51.0115 106.868C49.0185 106.797 48.5678 108.244 48.6627 109.739C48.7338 111.139 51.5573 117.071 52.5538 118.542C53.4791 119.918 55.0925 121.413 56.4923 122.243C64.061 126.632 67.2641 115.054 67.4302 113.251Z" fill="#F6C6C0"/>
<path d="M65.6262 112.847C64.867 112.136 64.7009 110.854 65.2941 110C65.4364 109.81 65.6974 109.597 65.8872 109.739C66.0059 109.834 66.0296 110 66.0296 110.143C66.0533 110.522 66.077 110.902 66.1008 111.282C66.8363 110.973 67.4531 110.38 67.7853 109.644C67.9039 109.384 68.0226 109.075 68.3073 109.051C68.5208 109.028 68.7106 109.217 68.8293 109.407C69.3512 110.214 69.4699 111.258 69.1377 112.159C68.6632 113.417 67.4531 114.2 66.3143 114.888L65.6262 112.847Z" fill="#F6C6C0"/>
<path d="M37.0132 171.855L36.6573 174.655H43.6328L38.9825 171.357L37.0132 171.855Z" fill="#12BBB5"/>
<path d="M230.526 173.596C230.526 175.447 211.403 176.918 187.819 176.918C164.235 176.918 145.112 175.423 145.112 173.596C145.112 171.745 164.235 170.274 187.819 170.274C211.403 170.274 230.526 171.769 230.526 173.596Z" fill="#8EA7C2"/>
<path d="M229.314 131.638C231.117 134.082 232.612 136.739 233.775 139.539C233.893 139.847 234.012 140.179 233.846 140.464C233.608 140.868 232.992 140.773 232.541 140.583C230.904 139.918 229.385 138.993 228.033 137.854C226.941 136.929 225.921 135.814 225.565 134.438C225.233 133.156 225.613 131.923 226.467 130.95C227.44 129.835 228.555 130.594 229.314 131.638Z" fill="#D6489A"/>
<path d="M182.786 170.906C181.291 172.329 179.464 173.349 177.637 174.322C176.878 174.726 175.929 175.105 175.241 174.583C174.861 174.298 174.695 173.8 174.695 173.326C174.695 172.851 174.861 172.4 175.028 171.973C175.811 170.004 176.926 168.177 178.349 166.611C178.99 165.899 179.749 165.211 180.674 165.045C181.671 164.879 182.62 165.282 183.569 165.52C184.138 165.662 185.443 165.472 185.633 166.184C185.823 166.872 184.921 168.201 184.566 168.77C184.067 169.553 183.45 170.265 182.786 170.906Z" fill="#D6489A"/>
<path d="M196.311 101.72C196.145 109.597 197.308 117.877 203.026 123.287C208.767 128.696 218.993 131.164 226.847 130.523C227.511 132.991 227.203 133.987 224.735 134.675C211.875 138.258 197.308 132.326 191.756 124.948C186.465 117.925 185.326 108.671 184.733 99.8926L196.311 101.72Z" fill="#F6C6C0"/>
<path d="M181.767 104.425C178.469 124.782 179.821 145.993 185.682 165.686C184.353 167.157 181.411 167.252 180.533 165.52C171.992 148.698 167.341 117.451 171.09 95.9783L181.767 104.425Z" fill="#F6C6C0"/>
<path d="M139.486 43.305C139.557 43.0915 139.581 42.8068 139.391 42.7356C139.225 42.6644 139.059 42.8067 138.94 42.9491C138.56 43.4236 138.299 43.9694 138.157 44.5388C137.991 43.4712 137.469 42.4747 136.662 41.7392C136.544 41.6205 136.33 41.5018 136.212 41.6204C136.117 41.7153 136.117 41.8577 136.164 42.0001C136.378 42.8068 136.971 43.5423 136.876 44.3965C136.449 43.7321 135.856 43.1627 135.191 42.7594C135.096 42.7119 135.002 42.6408 134.907 42.6408C134.812 42.6408 134.693 42.6882 134.646 42.7831C134.598 42.9017 134.693 43.0203 134.764 43.1152C135.239 43.7321 135.713 44.3253 136.188 44.9421C135.666 45.037 135.168 44.7286 134.717 44.4438C134.266 44.1828 133.72 43.922 133.246 44.1118C134.005 44.6812 134.741 45.2743 135.5 45.8438C134.859 45.7488 134.195 45.6777 133.554 45.5828C133.483 45.5828 133.412 45.5591 133.388 45.6065C133.293 45.7015 133.436 45.8438 133.554 45.8913C135.096 46.5793 136.567 47.4333 137.92 48.4298C138.086 48.5485 138.276 48.6909 138.489 48.6197C138.679 48.5722 138.774 48.3587 138.845 48.1689C139.13 47.4571 139.415 46.4606 139.272 45.6777C139.082 44.9184 139.249 44.088 139.486 43.305Z" fill="#F6C6C0"/>
<path d="M191.756 12.4378C193.085 15.0003 193.607 16.8985 194.817 19.5084C196.027 22.1183 197.759 24.657 200.298 26.0094C198.708 31.7749 193.702 36.4489 187.842 37.6352C186.11 37.9911 184.259 38.0386 182.598 37.4217C180.771 36.7336 179.324 35.2388 178.209 33.6254C175.267 29.2835 173.558 24.0162 173.867 18.7727C173.962 17.0407 174.199 15.2139 175.267 13.8615C176.595 12.1295 179.798 11.2516 181.91 10.7296C183.689 10.3025 185.54 9.85177 187.343 10.1602C189.645 10.5636 190.048 10.6584 191.282 12.0345L191.756 12.4378Z" fill="#864E9B"/>
<path d="M235.934 32.1536C236.337 31.6317 236.527 30.991 236.574 30.3504C236.622 29.7098 236.551 29.0456 236.479 28.405C237.096 28.6422 237.476 29.3777 237.31 30.0183C238.188 28.9032 239.232 27.9304 240.418 27.1474C240.537 27.0762 240.679 26.9814 240.821 27.0526C240.916 27.1 240.964 27.2424 240.94 27.361C240.916 27.4796 240.821 27.5744 240.75 27.6693C240.228 28.2625 239.706 28.8794 239.184 29.4725C240.323 28.9743 241.581 28.7134 242.814 28.6897C242.933 28.6897 243.052 28.6896 243.099 28.7845C243.241 28.9506 243.004 29.1642 242.838 29.2591C242.008 29.7099 241.177 30.137 240.347 30.5878C241.201 30.5166 242.079 30.6114 242.909 30.825C243.028 30.8487 243.194 30.9199 243.194 31.0386C243.218 31.2046 243.004 31.2995 242.838 31.3233C242.055 31.4656 241.248 31.6079 240.465 31.7266C241.177 31.7978 241.889 32.0113 242.53 32.3197C242.601 32.3672 242.696 32.4147 242.743 32.4858C242.791 32.6045 242.719 32.7231 242.601 32.7705C242.506 32.818 242.387 32.8418 242.269 32.8418C240.418 32.9841 238.591 33.5772 237.001 34.55C236.835 34.6449 236.669 34.7635 236.479 34.7872C236.29 34.8347 236.076 34.7872 235.957 34.6449C235.886 34.55 235.839 34.4077 235.839 34.2891C235.697 33.4586 235.815 32.6044 236.124 31.8214" fill="#F6C6C0"/>
<path d="M139.178 45.4644C143.567 50.7791 150.827 53.4365 157.494 51.9655C164.541 50.3996 170.473 44.3018 172.015 37.0178L177.686 48.9285C172.513 55.1448 164.565 58.7986 156.64 58.5613C149.024 58.3478 141.598 54.5278 136.781 48.4302L139.178 45.4644Z" fill="#EB4599"/>
<path d="M175.029 17.9178C175.029 22.8765 178.967 26.9101 183.855 26.9101C188.719 26.9101 192.681 22.8765 192.681 17.9178C192.681 12.959 188.743 8.92554 183.855 8.92554C178.967 8.94926 175.029 12.959 175.029 17.9178Z" fill="#F6C6C0"/>
<path d="M198.732 78.5385C203.975 88.5747 207.155 99.6787 208.08 110.949H157.994C157.994 101.933 160.319 87.3648 165.942 77.637C168.884 72.5596 173.06 67.6719 173.25 61.8115C173.439 56.2595 169.999 51.1821 169.667 45.6539C169.43 41.2882 171.257 36.8752 174.483 33.9806C175.788 32.7942 177.236 31.9164 178.754 31.3232C180.178 30.7775 181.127 29.4726 181.127 27.9541V22.7581H186.56V27.4321C186.56 29.0929 187.699 30.5166 189.312 30.9199C191.922 31.5605 194.413 32.6994 196.62 34.1704C199.847 36.3295 202.907 38.8919 206.561 40.2443C211.71 42.1424 217.57 41.4305 222.672 39.3901C225.353 38.2987 227.891 36.8751 230.311 35.2617C231.237 36.8277 232.162 38.1089 233.087 39.2477C228.793 42.9253 222.79 47.1724 219.018 48.074C212.754 49.545 204.64 49.3077 199.277 45.7725C195.837 52.9141 192.682 61.7166 194.603 69.3802C195.41 72.6781 197.166 75.5964 198.732 78.5385Z" fill="#F6C6C0"/>
<path d="M173.249 61.8116C173.439 56.2596 169.999 51.1822 169.667 45.654C169.429 41.2883 171.256 36.8753 174.483 33.9806C174.626 33.862 174.768 33.7671 174.91 33.6484C179.988 38.7971 188.292 37.587 194.769 33.079C195.41 33.4349 196.027 33.7908 196.62 34.1941C199.847 36.3532 202.907 38.9158 206.561 40.2682C211.71 42.1663 217.57 41.4544 222.671 39.4139C227.298 37.5395 231.45 34.645 235.46 31.6555C236.314 32.5808 237.121 33.5535 237.761 34.6924C235.341 37.8717 224.712 46.7454 219.041 48.0978C212.777 49.5689 204.663 49.3315 199.301 45.7963C196.691 51.2296 194.247 57.612 194.057 63.7334L173.083 63.3538C173.154 62.8556 173.226 62.3335 173.249 61.8116Z" fill="#EB4599"/>
<path d="M157.994 110.973H208.057C207.938 109.715 207.819 108.458 207.653 107.177C207.535 106.133 207.369 105.112 207.203 104.068C206.965 102.645 206.681 101.198 206.396 99.7739C206.159 98.73 205.945 97.7098 205.66 96.6658C205.304 95.1711 204.925 93.7476 204.403 92.3003C204.118 91.2563 203.762 90.2361 203.359 89.1921C202.908 87.6974 202.315 86.2737 201.627 84.8264C201.271 83.7825 200.82 82.7622 200.298 81.7183C199.847 80.6269 199.325 79.5829 198.756 78.4915C198.59 78.2068 198.4 77.8034 198.186 77.4001C197.831 76.5459 197.451 75.4545 196.976 74.2444C196.455 72.8683 196.004 71.3737 195.482 69.9264C195.197 68.835 194.912 67.7434 194.628 66.8181C194.272 65.3945 194.058 64.1846 194.058 63.6626L173.108 63.3066C172.942 64.5167 172.586 65.7267 172.064 66.8181C171.708 67.9095 171.21 68.8824 170.64 69.9264C169.834 71.3499 168.908 72.7971 168.007 74.2444C167.366 75.2884 166.678 76.3087 166.061 77.4001C166.061 77.4475 166.014 77.5662 165.942 77.6374C165.207 78.8949 164.566 80.271 163.878 81.7183C163.475 82.691 163.072 83.735 162.668 84.8264C162.146 86.25 161.695 87.6974 161.221 89.1921C160.936 90.2361 160.652 91.2563 160.414 92.3003C160.011 93.795 159.726 95.2185 159.441 96.6658C159.275 97.7098 159.086 98.73 158.919 99.7739C158.682 101.269 158.516 102.692 158.398 104.068C158.279 105.16 158.16 106.204 158.113 107.177C158.042 108.553 157.994 109.81 157.994 110.973Z" fill="#27BCB5"/>
<path d="M188.457 10.3969C184.756 13.7898 179.607 15.5455 174.601 15.1184C175.74 12.4848 177.875 10.2308 180.556 9.13934C183.214 8.04793 186.393 8.14287 188.884 9.6139C190.071 10.302 191.067 11.2985 191.779 12.4373C192.23 13.1491 193.511 15.5454 192.989 16.3996C192.491 17.23 190.474 14.8575 190.071 14.2881C189.216 13.1492 188.647 11.8205 188.457 10.3969Z" fill="#864E9B"/>
<path d="M170.615 69.9741H195.48C195.196 68.8827 194.911 67.7913 194.626 66.866H172.063C171.707 67.9574 171.185 68.9301 170.615 69.9741Z" fill="white"/>
<path d="M166.012 77.4476H198.161C197.805 76.5935 197.426 75.502 196.951 74.292H167.958C167.341 75.3122 166.653 76.3562 166.012 77.4476Z" fill="white"/>
<path d="M162.643 84.8503H201.625C201.269 83.8064 200.818 82.7861 200.296 81.7422H163.853C163.449 82.715 163.046 83.7589 162.643 84.8503Z" fill="white"/>
<path d="M160.389 92.2998H204.377C204.093 91.2558 203.737 90.2356 203.333 89.1917H161.196C160.911 90.2356 160.626 91.2796 160.389 92.2998Z" fill="white"/>
<path d="M158.894 99.7734H206.37C206.133 98.7295 205.919 97.7092 205.635 96.6653H159.416C159.25 97.7092 159.084 98.7295 158.894 99.7734Z" fill="white"/>
<path d="M158.111 107.176H207.651C207.533 106.133 207.367 105.112 207.201 104.068H158.396C158.277 105.16 158.158 106.204 158.111 107.176Z" fill="white"/>
</svg>
