<svg width="1572" height="479" viewBox="0 0 1572 479" fill="none" xmlns="http://www.w3.org/2000/svg">
<path d="M843.308 346.991C562.228 222.031 281.148 471.951 0.0683594 346.991C21.6084 324.021 43.1484 298.861 64.6884 271.831C43.1484 233.781 21.6084 193.861 0.0683594 151.751C281.148 276.711 562.228 26.7906 843.308 151.751C843.308 216.821 843.308 281.911 843.308 346.991Z" fill="#EA4497"/>
<path d="M985.379 246.48H923.229L843.309 151.74C843.309 154.09 843.309 156.43 843.309 158.78L917.329 249.37L843.309 339.96C843.309 342.31 843.309 344.65 843.309 347L923.229 252.26H987.139C986.099 250.34 985.439 248.42 985.379 246.48Z" fill="#5FC5C9"/>
<path d="M1571.42 191.44C1571.42 211.38 1568.06 235.46 1563.91 235.46C1559.76 235.46 1556.4 211.38 1556.4 191.44C1556.4 171.5 1559.76 163.24 1563.91 163.24C1568.06 163.24 1571.42 171.5 1571.42 191.44Z" fill="#0A8991"/>
<path d="M1556.4 304.581C1556.4 284.641 1559.76 260.561 1563.91 260.561C1568.06 260.561 1571.42 284.641 1571.42 304.581C1571.42 324.521 1568.06 332.781 1563.91 332.781C1559.76 332.781 1556.4 324.521 1556.4 304.581Z" fill="#0A8991"/>
<path d="M1561.81 237.82C1561.2 237.82 1560.67 238.06 1560.09 238.17C1560.92 240.35 1561.43 242.7 1561.43 245.18V250.84C1561.43 253.32 1560.92 255.67 1560.09 257.85C1560.67 257.95 1561.2 258.2 1561.81 258.2C1567.44 258.2 1572 253.64 1572 248.01C1572 242.38 1567.44 237.82 1561.81 237.82Z" fill="#0B4957"/>
<path d="M1541.89 225.48C1544.39 228.74 1545.59 232.63 1545.59 237.35C1545.59 245.7 1545.6 252.33 1545.6 261.56C1545.6 264.56 1545 267.49 1543.89 270.34C1553.75 269.25 1561.45 260.99 1561.45 250.84V245.18C1561.44 234.35 1552.69 225.57 1541.89 225.48Z" fill="#0B4957"/>
<path d="M1094.05 216.28L1073.76 142.29C1071.72 134.85 1064.96 129.69 1057.24 129.69H1010.1C1001.15 129.69 993.709 136.58 993.019 145.51L985.309 246.14C985.319 239.4 1031.75 228.03 1094.05 216.28Z" fill="#0DB9B3"/>
<path d="M1453.68 210.031C1444.89 195.751 1428.58 179.191 1413.41 174.511C1387.3 166.451 985.318 226.261 985.318 246.141C985.318 287.991 1220.25 321.651 1348.12 321.651C1470.51 321.651 1545.59 296.171 1545.59 261.551C1545.59 252.321 1545.58 245.691 1545.58 237.341C1545.59 216.081 1522.79 210.871 1453.68 210.031Z" fill="#0DB9B3"/>
<path d="M1431.03 184.5C1341.76 184.74 1337.16 203.18 1337.16 216.22C1347.07 216.22 1386.65 216.22 1430.15 216.22C1440.19 216.22 1450.5 213.35 1453.67 210.03C1448.29 201.29 1440.07 191.7 1431.03 184.5Z" fill="#A4DBDE"/>
<path d="M1411.15 184.91C1408.36 185.02 1405.66 185.15 1403.08 185.3L1414.78 216.22C1417.5 216.22 1420.24 216.22 1423 216.22L1411.15 184.91Z" fill="#5FC5C9"/>
<path d="M1369.76 216.22C1372.24 216.22 1374.79 216.22 1377.45 216.22V187.93C1374.71 188.36 1372.13 188.82 1369.76 189.33V216.22Z" fill="#5FC5C9"/>
<path d="M1545.59 261.561C1545.59 253.541 1545.59 247.421 1545.58 240.491L985.759 240.381C985.589 242.331 985.309 244.521 985.309 246.151C985.309 251.501 989.199 256.711 996.159 261.751H1545.56C1545.58 261.681 1545.59 261.621 1545.59 261.561Z" fill="#A4DBDE"/>
<path d="M1302.02 145.3L1349.58 139.16C1354.24 138.56 1358.5 141.85 1359.1 146.51L1363.87 183.48L1190.33 205.89L1253.6 163.49C1268.12 153.76 1284.7 147.54 1302.02 145.3Z" fill="#EA4497"/>
<path d="M1410.95 319.141V347.731C1411.99 347.591 1413.02 347.411 1414.1 347.411C1415 347.411 1415.85 347.581 1416.72 347.671V318.601C1414.81 318.791 1412.9 318.981 1410.95 319.141Z" fill="#0B4957"/>
<path d="M1389.63 320.601L1402.78 350.461C1403.9 349.841 1405.05 349.291 1406.27 348.861L1393.72 320.381C1392.37 320.451 1391.01 320.521 1389.63 320.601Z" fill="#0B4957"/>
<path d="M1351.41 321.641L1394.85 357.571C1395.58 356.511 1396.41 355.531 1397.3 354.601L1357.4 321.601C1355.41 321.611 1353.41 321.631 1351.41 321.641Z" fill="#0B4957"/>
<path d="M1111.8 298.28V319.63C1112.75 319.49 1113.7 319.34 1114.69 319.34C1115.68 319.34 1116.63 319.49 1117.57 319.63V299.37C1115.62 299.01 1113.72 298.64 1111.8 298.28Z" fill="#0B4957"/>
<path d="M1093.24 294.58L1105.27 321.9C1106.38 321.27 1107.55 320.76 1108.79 320.36L1097.85 295.53C1096.32 295.21 1094.76 294.9 1093.24 294.58Z" fill="#0B4957"/>
<path d="M1042.15 231.221C1068.18 231.221 1089.28 226.922 1089.28 221.621C1089.28 216.319 1068.18 212.021 1042.15 212.021C1016.12 212.021 995.02 216.319 995.02 221.621C995.02 226.922 1016.12 231.221 1042.15 231.221Z" fill="#EA4497"/>
<path d="M1360.05 304.36L1329.26 198.95C1324.19 182.79 1329.01 165.16 1341.6 153.83L1275.78 162.33L1289.62 167.51C1302.1 172.18 1311.74 182.35 1315.73 195.07L1352.69 306.26C1353.49 308.83 1355.98 311.28 1358.25 310.85C1360.51 310.42 1361.02 307.46 1360.05 304.36Z" fill="#0A8991"/>
<path d="M1416.73 407.51C1399.67 407.51 1385.8 393.63 1385.8 376.58C1385.8 359.52 1399.68 345.65 1416.73 345.65C1433.79 345.65 1447.66 359.53 1447.66 376.58C1447.66 393.63 1433.79 407.51 1416.73 407.51ZM1416.73 351.59C1402.95 351.59 1391.74 362.8 1391.74 376.58C1391.74 390.36 1402.95 401.57 1416.73 401.57C1430.51 401.57 1441.72 390.36 1441.72 376.58C1441.71 362.8 1430.51 351.59 1416.73 351.59Z" fill="#0DB9B3"/>
<path d="M1416.73 396.43C1405.78 396.43 1396.87 387.52 1396.87 376.57C1396.87 365.62 1405.78 356.71 1416.73 356.71C1427.68 356.71 1436.59 365.62 1436.59 376.57C1436.59 387.52 1427.68 396.43 1416.73 396.43Z" fill="#EFF0F3"/>
<path d="M1416.73 392.95C1407.7 392.95 1400.35 385.6 1400.35 376.57C1400.35 367.54 1407.7 360.19 1416.73 360.19C1425.76 360.19 1433.11 367.54 1433.11 376.57C1433.11 385.6 1425.76 392.95 1416.73 392.95Z" fill="#EE60A2"/>
<path d="M1429.64 376.57C1429.64 383.7 1423.86 389.48 1416.73 389.48C1409.6 389.48 1403.81 383.7 1403.81 376.57C1403.81 369.44 1409.59 363.65 1416.73 363.65C1423.86 363.66 1429.64 369.44 1429.64 376.57Z" fill="#F393BD"/>
<path d="M1425.76 376.57C1425.76 381.56 1421.72 385.6 1416.73 385.6C1411.74 385.6 1407.7 381.56 1407.7 376.57C1407.7 371.58 1411.74 367.54 1416.73 367.54C1421.72 367.54 1425.76 371.59 1425.76 376.57Z" fill="#EE60A2"/>
<path d="M1422.5 376.571C1422.5 379.761 1419.91 382.341 1416.73 382.341C1413.54 382.341 1410.96 379.761 1410.96 376.571C1410.96 373.381 1413.54 370.801 1416.73 370.801C1419.92 370.801 1422.5 373.391 1422.5 376.571Z" fill="white"/>
<path d="M1117.97 356.8C1105.66 356.8 1095.65 346.79 1095.65 334.48C1095.65 322.17 1105.66 312.16 1117.97 312.16C1130.28 312.16 1140.29 322.17 1140.29 334.48C1140.29 346.79 1130.27 356.8 1117.97 356.8ZM1117.97 316.45C1108.03 316.45 1099.94 324.54 1099.94 334.48C1099.94 344.42 1108.03 352.51 1117.97 352.51C1127.91 352.51 1136 344.42 1136 334.48C1136 324.54 1127.91 316.45 1117.97 316.45Z" fill="#0DB9B3"/>
<path d="M1117.97 348.81C1125.88 348.81 1132.3 342.395 1132.3 334.48C1132.3 326.566 1125.88 320.15 1117.97 320.15C1110.05 320.15 1103.64 326.566 1103.64 334.48C1103.64 342.395 1110.05 348.81 1117.97 348.81Z" fill="#EFF0F3"/>
<path d="M1117.97 346.3C1111.45 346.3 1106.15 341 1106.15 334.48C1106.15 327.96 1111.45 322.66 1117.97 322.66C1124.49 322.66 1129.79 327.96 1129.79 334.48C1129.79 341 1124.48 346.3 1117.97 346.3Z" fill="#EE60A2"/>
<path d="M1127.29 334.48C1127.29 339.63 1123.12 343.8 1117.97 343.8C1112.82 343.8 1108.65 339.63 1108.65 334.48C1108.65 329.33 1112.82 325.16 1117.97 325.16C1123.11 325.16 1127.29 329.34 1127.29 334.48Z" fill="#F393BD"/>
<path d="M1124.49 334.48C1124.49 338.08 1121.57 341 1117.97 341C1114.37 341 1111.45 338.08 1111.45 334.48C1111.45 330.88 1114.37 327.96 1117.97 327.96C1121.57 327.96 1124.49 330.88 1124.49 334.48Z" fill="#EE60A2"/>
<path d="M1119.6 338.322C1121.72 337.441 1122.74 335.002 1121.85 332.874C1120.97 330.746 1118.53 329.736 1116.41 330.617C1114.28 331.498 1113.27 333.938 1114.15 336.066C1115.03 338.193 1117.47 339.204 1119.6 338.322Z" fill="white"/>
<path fill-rule="evenodd" clip-rule="evenodd" d="M405.139 32.6102C406.689 32.3202 408.229 32.0502 409.779 31.8002L411.469 31.5403C412.519 31.3803 413.579 31.2202 414.619 31.0802L416.219 30.8802L419.169 30.5302L421.279 30.3102L423.789 30.0802L425.859 29.9203L428.529 29.7502L430.449 29.6502L433.329 29.5502L434.959 29.5103C435.999 29.4903 437.039 29.4902 438.079 29.4902H439.579C440.929 29.5002 442.269 29.5303 443.609 29.5703L444.029 29.5802C445.529 29.6302 447.039 29.7003 448.529 29.7903L448.699 29.8002L449.169 29.8302C450.509 29.9202 451.839 30.0202 453.169 30.1302L454.389 30.2502L457.469 30.5703L459.509 30.8302L461.759 31.1302L463.849 31.4402L466.249 31.8302L468.069 32.1502L470.639 32.6403L472.509 33.0202L474.669 33.4902L476.799 33.9702L479.539 34.6602L480.839 34.9902C481.989 35.3002 483.149 35.6203 484.289 35.9503L485.029 36.1602L485.159 36.2003C486.459 36.5903 487.759 36.9802 489.049 37.4002L489.169 37.4402L490.779 37.9803L493.239 38.8203L495.149 39.5103L497.219 40.2802L499.279 41.0902L501.249 41.8903L503.179 42.7003L505.209 43.5802L507.069 44.4203L509.209 45.4302L510.939 46.2702L512.879 47.2502L514.949 48.3203L516.079 48.9302L518.689 50.3503C519.859 51.0103 521.029 51.6802 522.189 52.3702C524.159 53.5402 526.089 54.7602 527.999 56.0002L529.269 56.8302L531.449 58.3102L532.719 59.1902L534.929 60.7702L536.159 61.6703L538.269 63.2603L539.579 64.2802L541.639 65.9102L542.759 66.8203L544.989 68.6802L545.729 69.3203C550.519 73.4503 555.089 77.8502 559.439 82.5302L560.029 83.1502L562.169 85.5302L562.839 86.2903L565.019 88.8203L565.539 89.4503C566.309 90.3703 567.069 91.3002 567.819 92.2402L568.069 92.5602C568.879 93.5602 569.669 94.5802 570.449 95.6102L570.549 95.7402C576.359 103.38 581.609 111.59 586.259 120.31L586.399 120.58C587.009 121.72 587.599 122.88 588.179 124.03L588.439 124.54C589.009 125.69 589.579 126.86 590.139 128.02L590.309 128.37C590.879 129.58 591.439 130.79 591.989 132.01L592.119 132.3C595.609 140.12 598.629 148.29 601.129 156.78L601.179 156.97C601.579 158.33 601.969 159.7 602.339 161.07L602.419 161.37C602.779 162.68 603.119 164 603.449 165.33L603.599 165.96C603.929 167.28 604.239 168.62 604.549 169.96L604.569 170.07L604.839 170.09H604.909L605.189 170.11H605.249L605.529 170.13L605.589 170.14L605.869 170.16H605.929L606.209 170.19L606.269 170.2L606.549 170.23H606.609L606.879 170.27L606.939 170.28L607.219 170.31L607.279 170.32L607.559 170.36L607.619 170.37L607.899 170.41H607.959L608.229 170.46H608.289L608.569 170.51L608.629 170.52L608.899 170.57L608.959 170.58L609.229 170.64H609.279L609.559 170.7L609.609 170.71L609.879 170.77L609.929 170.78L610.209 170.84L610.259 170.85L610.529 170.91L610.569 170.92L610.849 170.98L610.889 170.99L611.159 171.06L611.199 171.07L611.469 171.14L611.509 171.15L611.779 171.22L611.819 171.23L612.089 171.31L612.129 171.32L612.399 171.4L612.709 171.5L612.749 171.51L613.019 171.6L613.059 171.61L613.329 171.71L613.359 171.72L613.629 171.82L613.659 171.83L613.929 171.93L613.959 171.94L614.229 172.05L614.259 172.06L614.519 172.17L614.549 172.18L614.819 172.29L614.849 172.31L615.109 172.43L615.139 172.44L615.399 172.56L615.429 172.57L615.689 172.7L615.719 172.71L615.989 172.84L616.019 172.85L616.279 172.99L616.309 173L616.569 173.14L616.589 173.15L616.849 173.3L616.869 173.31L617.129 173.46L617.149 173.47L617.409 173.63L617.429 173.64L617.689 173.8L617.709 173.81L617.969 173.98L617.979 173.99L618.239 174.16L618.259 174.17L618.509 174.35L618.529 174.36L618.779 174.54L618.799 174.55L619.049 174.74L619.059 174.75L619.319 174.94L619.329 174.95L619.579 175.14L619.589 175.15L619.839 175.35L619.849 175.36L620.089 175.57L620.099 175.58L620.349 175.79H620.359L620.599 176.01L620.609 176.02L620.849 176.25H620.859L621.099 176.48L621.339 176.71L621.349 176.72L621.589 176.96L621.829 177.21L622.059 177.46L622.289 177.72L622.519 177.98L622.749 178.25L622.979 178.53L623.209 178.81C626.129 182.52 628.069 186.89 628.909 191.72C630.439 200.51 631.389 209.51 629.929 218.79C627.959 231.41 621.339 240.05 610.269 244.71C609.649 244.97 609.059 245.33 608.469 245.64L608.289 245.67L608.239 245.68L608.229 245.71C608.069 247.11 607.889 248.51 607.699 249.91L607.619 250.53C607.429 251.87 607.239 253.22 607.029 254.56L606.919 255.26C606.709 256.62 606.479 257.99 606.249 259.35L606.179 259.71C604.609 268.58 602.549 277.33 600.029 285.91L599.789 286.73C599.409 288.01 599.009 289.3 598.609 290.57L598.449 291.07C598.029 292.39 597.599 293.7 597.159 295.01L596.999 295.5C594.109 304.03 590.759 312.37 586.969 320.49L586.839 320.77C586.259 322.01 585.669 323.23 585.069 324.46L584.779 325.07C584.209 326.23 583.639 327.38 583.049 328.53L582.639 329.33C582.039 330.49 581.429 331.65 580.819 332.8L580.619 333.17C577.159 339.61 573.419 345.88 569.429 351.95L569.039 352.54L567.009 355.56L566.389 356.46L564.359 359.36L563.639 360.36L561.689 363.04L560.739 364.32L558.819 366.85L558.019 367.87L555.899 370.56L555.839 370.64C554.089 372.82 552.299 374.96 550.489 377.07L550.119 377.5L548.089 379.81L546.929 381.11C546.239 381.88 545.539 382.64 544.829 383.4L543.779 384.52L541.709 386.7L540.379 388.07L538.529 389.95L536.909 391.55L535.149 393.26L533.259 395.04L531.759 396.44L529.619 398.38L528.209 399.65C527.099 400.63 525.989 401.6 524.859 402.56L524.799 402.61L522.819 404.26L521.099 405.68L519.359 407.07L517.259 408.73L515.629 409.98L513.589 411.52L511.669 412.93L509.759 414.31L507.899 415.63L505.579 417.21L504.039 418.25C503.139 418.85 502.239 419.43 501.329 420.01L500.029 420.84L499.969 420.88C498.729 421.67 497.479 422.43 496.229 423.19L496.089 423.27L494.719 424.08C493.839 424.6 492.959 425.12 492.079 425.63L490.219 426.67L487.969 427.92L486.119 428.91L483.619 430.21L481.959 431.05L479.459 432.28L477.629 433.16L474.899 434.42L473.459 435.07C472.319 435.57 471.169 436.07 470.019 436.55L469.079 436.95C467.649 437.54 466.209 438.13 464.749 438.69L464.599 438.75L463.589 439.13C462.499 439.55 461.419 439.95 460.319 440.34L458.509 440.98L455.859 441.89L453.769 442.56L451.449 443.29L449.219 443.96L446.919 444.62L444.649 445.24L442.089 445.9L440.279 446.35C439.189 446.61 438.099 446.86 436.999 447.11L435.609 447.42C434.059 447.75 432.499 448.07 430.939 448.36C429.329 448.66 427.729 448.94 426.119 449.2L425.989 449.22C424.429 449.47 422.869 449.7 421.319 449.9L421.259 449.91C420.209 450.05 419.169 450.17 418.129 450.29L416.449 450.49C415.489 450.59 414.529 450.67 413.569 450.76L411.609 450.94L408.689 451.14L406.879 451.25L404.409 451.35L401.969 451.44L399.819 451.47L397.309 451.49L395.309 451.46C394.349 451.44 393.399 451.43 392.449 451.4L390.759 451.33L387.889 451.19L385.869 451.05L383.269 450.85L381.049 450.64L378.759 450.4L376.359 450.1L374.279 449.83L371.819 449.45L369.649 449.1L367.449 448.71L365.199 448.28L362.989 447.82L360.699 447.32L358.659 446.83L356.349 446.26L354.049 445.64L352.169 445.12L349.739 444.4L347.809 443.81L345.499 443.06L343.479 442.37L341.449 441.65L339.149 440.79L337.229 440.04L335.169 439.21L332.969 438.28L331.119 437.48L328.889 436.47L327.079 435.62L324.919 434.57L323.019 433.61L320.999 432.56L319.109 431.54L316.979 430.36L315.479 429.5L313.149 428.13L311.589 427.17L309.369 425.78L308.029 424.91L305.519 423.24L304.609 422.62C303.719 422 302.819 421.38 301.939 420.74L300.879 419.97C300.029 419.35 299.179 418.72 298.339 418.08L297.459 417.4C296.589 416.73 295.709 416.05 294.849 415.36L294.029 414.69C293.139 413.96 292.239 413.22 291.359 412.48L290.849 412.04C289.889 411.22 288.939 410.39 287.999 409.56L287.599 409.2C286.629 408.33 285.659 407.44 284.699 406.54L284.459 406.31C268.439 391.13 255.089 372.59 245.239 351.36L245.209 351.29C243.929 348.53 242.709 345.73 241.549 342.88L241.399 342.52C239.649 338.19 238.039 333.75 236.569 329.22L236.499 329C236.029 327.54 235.569 326.06 235.129 324.58L235.059 324.34C234.619 322.83 234.189 321.32 233.779 319.8L233.739 319.66C233.319 318.12 232.919 316.57 232.539 315.02L232.509 314.88C232.119 313.31 231.759 311.72 231.409 310.14L231.389 310.07C231.039 308.51 230.719 306.94 230.409 305.35L230.349 305.06C229.719 301.86 229.179 298.62 228.689 295.34L228.649 295.1C228.159 291.8 227.759 288.44 227.419 285.07V285.03L227.359 284.92L227.229 284.65L227.099 284.38L226.959 284.11L226.819 283.84L226.689 283.57L226.549 283.3L226.419 283.03L226.289 282.76L226.149 282.49L226.019 282.22L225.889 281.95L225.749 281.68L225.619 281.41L225.479 281.14L225.339 280.87L225.209 280.6L225.079 280.33L224.939 280.06L224.799 279.79L224.669 279.52L224.529 279.25L224.399 278.98L224.269 278.7L224.129 278.43L223.999 278.16L223.869 277.89L223.729 277.62L223.599 277.35L223.469 277.08L223.329 276.81L223.199 276.54L223.069 276.27L222.929 276L222.799 275.73L222.659 275.46L222.519 275.19L222.389 274.92L222.259 274.65L222.119 274.38L221.989 274.11L221.849 273.84L221.709 273.57L221.579 273.3L221.449 273.03L221.309 272.76L221.179 272.49L221.039 272.22L220.899 271.94L220.769 271.67L220.639 271.4L219.809 271.78C219.829 273 219.819 274.23 219.889 275.44C220.549 286.24 221.309 297.02 221.869 307.83C222.229 314.54 219.589 318.1 214.029 318.94C210.979 319.39 208.769 317.87 208.099 314.63C207.709 312.73 207.459 310.78 207.339 308.8C206.279 292.21 205.259 275.61 204.239 259.01C204.149 257.5 204.129 255.97 204.239 254.45C204.489 250.91 205.459 247.52 208.819 245.93C212.379 244.25 216.029 242.99 219.529 245.33C222.619 247.41 223.939 251.05 225.999 254.04L226.219 254.46L226.389 254.79C226.439 253.13 226.519 251.46 226.599 249.8C226.749 246.94 226.969 244.09 227.219 241.25L227.359 239.68C227.449 238.65 227.569 237.63 227.679 236.61L227.909 234.52L228.249 231.83L228.569 229.4L228.969 226.74L229.329 224.4L229.799 221.67L230.229 219.3L230.709 216.79L231.189 214.39L231.799 211.55L232.259 209.51L232.889 206.79L233.509 204.29L234.099 201.97L234.809 199.36L235.469 196.97L236.149 194.65L236.909 192.11L237.579 189.98L238.489 187.17L238.999 185.68L240.109 182.45L240.149 182.34C240.669 180.87 241.199 179.4 241.759 177.94L241.829 177.75C242.399 176.23 242.989 174.72 243.589 173.21L243.639 173.09L244.219 171.69L245.519 168.52L246.339 166.65L247.559 163.85L248.429 161.96L249.639 159.34L250.719 157.11L251.789 154.92L253.069 152.39L254.059 150.47L255.289 148.16L256.479 145.95L257.689 143.78L258.939 141.58L260.219 139.39L261.449 137.32L262.709 135.24L264.269 132.75L265.329 131.09L266.889 128.7L268.139 126.82L269.679 124.57L270.959 122.72L272.479 120.6L273.889 118.65L275.629 116.33L276.829 114.73C277.679 113.62 278.539 112.52 279.409 111.43L279.849 110.87L279.929 110.77C280.929 109.52 281.939 108.29 282.959 107.06L283.079 106.92L284.349 105.42L286.209 103.24L287.709 101.55L289.439 99.6003L291.039 97.8702L292.819 95.9503L294.499 94.2102L296.219 92.4402L297.979 90.6802L299.659 89.0202L301.579 87.1802L303.169 85.6703L305.129 83.8602L306.849 82.3102L308.629 80.7402L310.859 78.8203L312.179 77.7003L314.609 75.6902L316.079 74.5002L318.209 72.8203L320.109 71.3503L322.089 69.8602L323.839 68.5602L326.639 66.5502L327.759 65.7603L330.489 63.9002L331.919 62.9203L332.039 62.8503C333.319 61.9902 334.619 61.1502 335.919 60.3302L335.969 60.3002L336.209 60.1502C337.499 59.3302 338.809 58.5302 340.119 57.7402L340.699 57.4002C341.899 56.6802 343.109 55.9702 344.329 55.2802L345.609 54.5703L348.429 53.0103L350.549 51.9002L352.679 50.7802L354.679 49.7802L357.199 48.5403L358.839 47.7702L361.609 46.5002L363.299 45.7502L366.069 44.5602L367.899 43.8002L370.399 42.8002L372.509 41.9803L374.939 41.0802L377.039 40.3203L379.439 39.4902L381.749 38.7202L383.959 38.0202L386.309 37.3002L388.619 36.6403L391.059 35.9602L393.699 35.2802L395.559 34.8102C396.669 34.5402 397.789 34.2903 398.919 34.0403L400.409 33.7003C401.949 33.2203 403.539 32.9102 405.139 32.6102ZM607.639 187.11L607.679 187.38L607.709 187.65L607.959 189.52L607.989 189.79L608.029 190.06L608.359 192.75L608.389 193.02L608.409 193.29L608.529 194.37L608.559 194.64L608.589 194.91L608.939 198.45L608.969 198.72L608.989 199L609.009 199.15L609.019 199.28L609.049 199.55L609.069 199.82C609.199 201.38 609.319 202.93 609.409 204.5C609.519 206.21 609.599 207.92 609.669 209.63V209.73L609.679 209.88L609.689 210.1L609.699 210.48C609.739 211.72 609.769 212.97 609.799 214.21L609.809 214.58V214.96L609.819 215.33L609.829 215.7V216.07V216.44L609.839 219.04V219.42V219.45L609.829 221.65L609.819 222.02L609.809 222.39L609.799 222.76L609.789 223.13L609.779 223.5L609.769 223.87L609.759 224.24L609.749 224.61L609.659 227.57L609.639 227.94L609.619 228.3H609.629L609.729 228.18L609.789 228.12L609.839 228.06L609.949 227.94V227.93L610.059 227.81L610.109 227.76L610.169 227.68L610.259 227.57L610.279 227.55L610.379 227.42L610.419 227.38L610.489 227.29L610.589 227.16L610.689 227.03L610.709 227L610.779 226.9L610.849 226.81L610.879 226.77L610.979 226.63L610.989 226.61L611.069 226.49L611.119 226.41L611.159 226.35L611.249 226.21V226.2L611.329 226.07L611.379 226L611.419 225.93L611.499 225.8V225.79L611.589 225.64L611.619 225.58L611.669 225.49L611.739 225.36L611.749 225.34L611.829 225.19L611.859 225.14L611.909 225.04L611.969 224.92L611.989 224.89L612.069 224.74L612.089 224.71L612.139 224.59L612.189 224.49L612.209 224.44L612.279 224.29L612.289 224.27L612.349 224.13L612.389 224.04L612.419 223.97L612.479 223.81L612.539 223.66L612.569 223.58L612.599 223.5L612.649 223.35V223.34L612.709 223.18L612.729 223.11L612.769 223.01L612.819 222.88L612.829 222.85L612.879 222.69L612.889 222.64L612.929 222.53L612.969 222.41L612.979 222.37L613.029 222.2L613.039 222.17L613.079 222.03L613.109 221.92L613.129 221.86L613.169 221.69V221.67L613.209 221.52L613.229 221.42L613.249 221.35L613.289 221.18V221.17L613.329 221L613.349 220.92L613.369 220.83L613.399 220.68V220.67L613.439 220.5L613.449 220.44L613.469 220.33L613.499 220.19V220.16L613.539 219.99L613.549 219.94L613.569 219.82L613.589 219.69L613.599 219.64L613.629 219.46L613.639 219.43L613.659 219.29L613.669 219.18L613.679 219.11L613.699 218.93V218.91L613.719 218.75L613.729 218.65L613.739 218.57L613.759 218.39C614.669 210.32 614.159 202.38 612.299 194.83L612.259 194.66L612.219 194.51L612.209 194.49L612.169 194.33L612.139 194.2L612.129 194.17L612.079 194L612.049 193.9L612.029 193.84L611.979 193.68L611.959 193.6L611.939 193.52L611.879 193.36L611.859 193.3L611.829 193.2L611.779 193.05L611.759 193.01L611.719 192.9L611.659 192.75L611.649 192.72L611.599 192.59L611.539 192.44L611.479 192.3L611.429 192.18L611.419 192.16L611.359 192.02L611.309 191.91L611.289 191.88L611.229 191.74L611.189 191.65L611.169 191.6L611.109 191.46L611.079 191.39L611.049 191.33L610.979 191.2L610.959 191.14L610.919 191.06L610.859 190.93L610.839 190.9L610.789 190.81L610.719 190.68L610.709 190.66L610.649 190.56L610.579 190.43L610.509 190.31L610.439 190.2L610.429 190.19L610.359 190.07L610.289 189.98L610.279 189.95L610.199 189.84L610.149 189.76L610.129 189.72L610.049 189.61L610.009 189.54L609.969 189.49L609.889 189.38L609.849 189.33L609.809 189.27L609.729 189.16L609.699 189.13L609.639 189.06L609.379 188.75H609.369L609.289 188.65L609.199 188.56V188.55L609.109 188.45L609.029 188.38L609.009 188.36L608.919 188.27L608.859 188.21L608.829 188.18L608.729 188.09L608.679 188.04L608.639 188L608.549 187.91L608.499 187.87L608.449 187.82L608.349 187.74L608.319 187.71L608.249 187.65L608.149 187.57L608.129 187.56L608.049 187.5L607.949 187.42H607.939L607.749 187.28V187.27L607.649 187.2L607.559 187.14L607.639 187.11Z" fill="#EE60A2"/>
<path d="M432.759 477.02L421.909 478.77C421.619 478.82 421.339 478.85 421.059 478.87L358.159 476.96L301.379 455.56L290.179 448.55C290.039 448.46 288.989 447.73 288.839 447.63L286.049 445.67C285.999 445.63 284.879 444.82 284.819 444.77L281.719 442.45C281.719 442.45 280.499 441.5 280.479 441.49L266.119 429.18C247.569 411.62 232.569 390.58 221.429 366.61C219.929 363.39 218.539 360.2 217.219 356.95C215.969 353.85 214.819 350.84 213.749 347.86C198.429 349.56 185.599 339.81 182.279 323.78C181.579 320.36 181.149 317.04 180.949 313.69L177.839 263.89C177.659 260.98 177.649 258 177.879 255.04C178.949 238.92 187.439 225.47 200.599 219.26C201.769 218.7 202.939 218.21 204.089 217.76L213.709 179.88C213.719 179.81 214.239 178.25 214.269 178.18L219.509 163.92C219.559 163.79 220.239 162.14 220.289 162.01L250.529 106.57L293.409 58.6704L313.779 42.5704C313.859 42.5104 315.059 41.6603 315.159 41.5903L334.179 29.5503C334.249 29.5103 335.599 28.7504 335.679 28.7204L387.159 7.62035L397.589 5.07036C399.709 4.61036 401.529 4.25034 403.369 3.90034L442.329 0.360352L458.049 1.11035C458.139 1.12035 459.439 1.25035 459.529 1.26035L487.919 6.23035C488.049 6.26035 489.489 6.61034 489.629 6.65034L493.469 7.72035C493.829 7.82035 494.929 8.14036 495.269 8.27036L498.719 9.32036C499.089 9.43036 499.459 9.56035 499.819 9.70035L528.169 21.7104C528.259 21.7604 529.479 22.4103 529.569 22.4503L536.549 26.3904C538.769 27.6904 540.969 29.0904 543.169 30.5104L558.539 41.6904C558.619 41.7504 559.809 42.7203 559.889 42.7803L562.309 44.8003C568.669 50.2703 573.909 55.3204 578.899 60.6704L581.919 64.0104C582.049 64.1404 582.819 65.0304 582.929 65.1604L591.479 75.6304C598.149 84.4204 604.179 93.8204 609.439 103.69L613.839 112.43C613.869 112.51 614.519 113.89 614.549 113.96L616.069 117.31C620.069 126.26 623.479 135.5 626.239 144.83C626.419 144.91 626.599 144.98 626.769 145.06C627.009 145.16 627.239 145.26 627.469 145.37C627.709 145.48 627.939 145.59 628.179 145.69V145.7C628.579 145.88 628.979 146.08 629.369 146.28C629.489 146.34 629.799 146.5 630.119 146.67C630.449 146.85 630.789 147.03 631.129 147.22C631.449 147.41 632.579 148.09 632.909 148.29C633.229 148.5 634.379 149.26 634.689 149.49C634.809 149.57 635.989 150.44 636.089 150.52C636.409 150.76 636.989 151.22 637.299 151.48C637.499 151.65 638.469 152.49 638.649 152.66C638.839 152.83 639.759 153.7 639.949 153.87C640.229 154.14 640.999 154.93 641.269 155.22C641.699 155.67 642.819 156.91 643.199 157.4C649.659 165.56 653.359 173.95 655.009 183.37C656.699 193.22 658.349 206.29 656.079 220.76C653.329 238.36 644.839 253.16 632.059 263.19C632.029 263.36 631.989 263.51 631.969 263.63C630.499 272.2 628.149 282.25 625.239 292.12L624.009 296.2C623.989 296.28 623.459 297.96 623.429 298.05L622.019 302.39C618.509 312.71 614.679 322.25 610.389 331.48L603.999 344.32C603.949 344.41 603.169 345.9 603.119 345.99C599.179 353.27 594.919 360.44 590.429 367.27L587.769 371.22C587.659 371.38 586.929 372.44 586.819 372.6L584.789 375.5C584.649 375.69 583.809 376.88 583.679 377.05L581.729 379.73C581.659 379.83 580.629 381.21 580.559 381.3L578.479 384.04C578.359 384.21 577.429 385.4 577.289 385.57L575.159 388.27C572.959 391.03 570.929 393.45 568.879 395.83L562.369 403.12C562.269 403.22 561.139 404.44 561.039 404.54L516.209 442.57L512.839 444.76C512.149 445.27 512.079 445.26 511.349 445.72L507.139 448.33L494.799 424.01L505.489 449.29L477.319 463.51L471.209 465.99C471.099 466.04 469.809 466.52 469.699 466.55L439.709 475.54C439.669 475.56 438.239 475.87 438.199 475.88C436.379 476.32 434.579 476.68 432.759 477.02ZM421.099 420.94L429.189 419.63L457.269 411.7L484.089 398.76C484.159 398.72 485.579 397.89 485.639 397.85L488.429 396.12C488.439 396.11 488.469 396.1 488.489 396.09C488.549 396.06 489.889 395.18 489.949 395.14L526.649 364.42L532.039 358.42C533.779 356.39 535.349 354.52 536.879 352.62L548.419 336.78C552.029 331.27 555.269 325.84 558.279 320.25L563.549 309.74C566.979 302.38 569.889 295.12 572.379 287.81L574.749 280.38C577.169 272.13 578.939 264.56 580.249 257.07C580.339 256.6 580.509 255.78 580.599 255.33L581.979 245.3C582.269 242.64 582.889 239.98 583.799 237.43C583.359 235.27 583.139 233.02 583.189 230.69L583.299 226.57L591.259 225.42C591.689 224.97 592.129 224.54 592.589 224.12L587.249 224.95C587.239 224.82 587.229 224.69 587.229 224.55L583.349 224.86L583.359 219.6C583.369 219.48 583.359 218.9 583.359 218.37C583.339 218.11 583.339 217.86 583.329 217.66L583.249 214.67C583.249 214.44 583.239 214.1 583.239 213.78L583.009 209.43L582.699 205.34H582.709C582.669 204.86 582.619 204.38 582.589 203.93L582.279 200.99C582.269 200.83 582.229 200.38 582.169 199.88C582.139 199.68 582.119 199.5 582.109 199.34L581.859 197.22C581.809 196.93 581.779 196.64 581.749 196.4L581.529 194.7C581.179 192.1 581.169 189.45 581.479 186.82C580.189 184.47 579.209 181.86 578.649 179.04L575.929 168.63C573.719 161.12 571.119 154.03 568.069 147.19L563.089 136.97C559.059 129.41 554.489 122.29 549.499 115.71L540.239 104.63C536.179 100.3 532.249 96.4804 528.109 92.9204L512.669 81.3204C511.199 80.3604 509.539 79.3103 507.839 78.3103L479.239 65.3904C479.089 65.3504 478.949 65.2904 478.799 65.2504L449.229 59.2403L410.659 60.6103L406.929 61.2604L357.809 78.8504L301.479 125.52L269.129 178.87L268.169 181.23C268.129 181.32 267.519 182.81 267.479 182.9L253.709 239.63C253.359 243.5 253.169 245.91 253.039 248.32L252.869 252.5C252.739 257.52 251.439 262.39 249.229 266.74L249.699 266.43C249.729 266.51 250.459 267.94 250.489 268.02C250.639 268.34 251.329 269.76 251.489 270.09C252.799 273.1 253.629 276.53 253.839 279.97C254.039 281.69 254.369 284.55 254.799 287.37C255.259 290.54 255.739 293.32 256.279 296.08L257.159 300.35C257.199 300.53 257.239 300.71 257.279 300.89L261.559 316.7C262.899 320.78 264.279 324.61 265.789 328.35C266.919 331.11 267.969 333.53 269.069 335.91C277.519 354.12 288.909 370.06 302.919 383.34L313.779 392.64L298.339 418L314.999 393.61L370.649 419.17L396.279 422.27C396.339 422.27 398.539 422.3 398.589 422.3L420.799 420.98C420.909 420.97 420.989 420.95 421.099 420.94ZM195.439 312.42C195.439 312.43 195.439 312.44 195.439 312.45C195.439 312.44 195.439 312.43 195.439 312.42Z" fill="#F393BD"/>
<path fill-rule="evenodd" clip-rule="evenodd" d="M405.259 31.2607C510.939 11.3907 602.389 88.3507 609.529 203.141C616.669 317.941 536.779 427.101 431.099 446.971C325.419 466.841 233.969 389.881 226.829 275.081C219.699 160.291 299.579 51.1307 405.259 31.2607Z" fill="#EE60A2"/>
<path fill-rule="evenodd" clip-rule="evenodd" d="M408.93 95.6507C482.57 81.8107 546.3 135.431 551.27 215.431C556.24 295.431 500.58 371.501 426.94 385.341C353.3 399.181 289.57 345.561 284.59 265.561C279.62 185.561 335.29 109.491 408.93 95.6507Z" fill="#0DB9B3"/>
<path fill-rule="evenodd" clip-rule="evenodd" d="M548.41 102.02C548.41 103.39 547.59 104.24 546.63 104.91C542.34 107.94 539.25 112.01 537.12 117.06C535.86 120.03 534.18 120.31 532.66 117.74C530.15 113.48 526.92 110.35 522.49 108.55C519.98 107.53 519.94 105.44 522.38 103.62C526.71 100.4 529.89 96.3199 532.04 91.1399C533.19 88.3599 534.96 88.0699 536.29 90.5299C538.73 95.0599 542.17 98.1199 546.68 99.9299C548.1 100.49 548.38 101.06 548.41 102.02Z" fill="#F7CE19"/>
<path fill-rule="evenodd" clip-rule="evenodd" d="M518.14 82.7102C518.16 83.6802 517.66 84.1802 517.1 84.6102C515 86.1802 513.43 88.2102 512.31 90.6902C511.46 92.5602 510.42 92.7002 509.47 91.1102C508.28 89.0902 506.68 87.5902 504.66 86.6202C502.97 85.8002 502.72 84.6602 504.47 83.3002C506.57 81.6902 508.08 79.6402 509.19 77.1602C509.7 76.0202 510.7 75.2102 511.44 76.3702C513.06 78.9102 515.08 80.8202 517.7 82.0302L518.14 82.7102Z" fill="#F7CE19"/>
<path fill-rule="evenodd" clip-rule="evenodd" d="M521.42 222.351C521.69 226.641 521.95 230.941 522.22 235.241C522.88 245.951 522.88 245.951 532.82 242.691C539.76 240.411 543.38 236.271 544.68 228.491C545.98 220.721 545.5 213.211 542.89 206.231C540.66 200.251 536.38 197.591 530.27 198.191C527.81 198.431 525.35 198.951 522.89 199.181C520.68 199.391 519.94 200.391 520.15 202.851C520.7 209.331 521.01 215.861 521.42 222.351ZM503.59 194.121C504.55 191.581 506.18 189.691 508.33 188.291C516.77 185.941 525.25 184.501 533.78 183.431C537.9 182.911 541.63 184.381 545.64 184.111L546.2 184.881C557.73 190.461 560.91 202.041 561.77 214.941C562.38 224.031 561.51 233.151 556.63 241.751C554.62 245.301 551.88 247.941 549.1 250.601C548.79 250.731 548.5 250.871 548.6 251.321L548.63 251.251C545.9 252.511 543.21 253.961 540.42 254.991C533.3 257.661 525.96 258.101 518.73 259.751C516.03 260.371 513.41 260.441 510.83 259.771C510.33 259.421 509.83 259.071 509.33 258.721C507.17 256.241 506.75 252.961 506.54 249.561C505.54 233.361 504.53 217.151 503.53 200.941C503.39 198.701 502.7 196.491 503.59 194.121Z" fill="white"/>
<path fill-rule="evenodd" clip-rule="evenodd" d="M598.4 184.37C596.02 184.91 593.84 185.92 592.15 188.08C591.03 188.89 590.24 189.98 589.79 191.34C589.44 192.11 589.08 192.88 588.73 193.64C587.99 195.04 587.65 196.56 587.5 198.08C586.73 206 587.25 213.71 588.82 221.2C589.4 223.98 590.51 226.52 592.69 228.19C596.36 232.17 600.98 231.94 605.7 229.8C610.83 227.47 613.39 222.65 614.02 217.03C614.92 208.96 614.41 201.03 612.56 193.47C610.89 186.67 606.62 183.61 600.36 184.01C599.7 184.14 599.04 184.26 598.4 184.37ZM604.59 168.74C611.98 169.16 618.55 171.31 623.37 177.44C626.29 181.14 628.23 185.51 629.07 190.35C630.6 199.15 631.54 208.14 630.09 217.43C628.12 230.05 621.5 238.68 610.42 243.34C609.8 243.6 609.22 243.96 608.62 244.27C604.87 244.96 601.15 246.07 597.38 246.15C584.59 246.4 576.25 239.94 572.77 226.16C570.68 217.89 569.98 209.08 571.09 200.17C573.28 182.67 583.48 171.81 599.43 169.45C601.16 169.2 602.87 168.98 604.59 168.74Z" fill="white"/>
<path fill-rule="evenodd" clip-rule="evenodd" d="M226.13 252.611C230.73 261.701 235.33 270.801 239.95 279.921C241.54 278.971 241.52 277.511 241.91 276.341C245.15 266.421 248.32 256.491 251.53 246.551C252.34 244.041 253.2 241.541 254.55 239.241C257.03 235.021 261.45 232.741 265.89 233.401C269.59 233.951 272.2 237.001 272.53 241.961C273.76 260.291 274.93 278.631 275.95 297.001C276.29 303.141 273.62 306.461 268.39 307.341C264.93 307.921 262.74 306.411 262.14 302.621C261.55 298.891 261.24 295.071 260.81 291.291C260.22 281.851 259.64 272.411 259.05 262.971L258.37 262.911C255.5 271.881 252.62 280.861 249.75 289.831C248.77 292.261 248.01 294.831 246.75 297.091C243.99 302.071 238.73 302.701 235.67 298.261C233.31 294.841 231.46 290.961 229.38 287.291C226.51 281.511 223.64 275.741 220.76 269.961L219.95 270.341C219.98 271.561 219.95 272.791 220.03 274.001C220.69 284.801 221.45 295.581 222.01 306.391C222.36 313.101 219.73 316.661 214.17 317.491C211.13 317.951 208.91 316.421 208.24 313.181C207.85 311.281 207.6 309.331 207.48 307.361C206.42 290.761 205.39 274.171 204.38 257.571C204.29 256.061 204.27 254.531 204.38 253.001C204.63 249.461 205.6 246.071 208.96 244.491C212.52 242.811 216.18 241.561 219.67 243.891C222.74 245.971 224.06 249.621 226.13 252.611Z" fill="white"/>
<path fill-rule="evenodd" clip-rule="evenodd" d="M371.738 276.771C371.728 277.591 371.709 278.391 371.699 279.211C371.649 284.181 370.049 287.161 366.559 288.741C362.589 290.531 360.918 289.951 357.898 285.721C355.968 264.921 354.709 243.991 353.979 222.961C355.439 218.881 357.669 215.751 361.849 215.021C363.349 214.771 364.849 214.531 366.349 214.281C366.939 214.431 367.519 214.601 368.099 214.751C368.669 215.441 369.358 215.891 370.298 215.741L370.268 215.711C372.718 219.221 374.789 223.011 376.809 226.851C379.229 231.451 381.258 236.341 384.148 240.611C385.748 244.541 387.719 248.221 390.209 252.581C391.699 247.681 392.909 243.711 394.118 239.751C394.859 237.611 395.599 235.471 396.339 233.331C399.369 224.621 400.789 215.321 406.279 207.521C407.089 207.111 407.908 206.701 408.728 206.281C410.218 205.971 411.718 205.661 413.218 205.361C418.588 205.201 421.699 207.771 422.129 213.801C423.429 232.231 424.549 250.711 425.569 269.211C425.849 274.351 423.559 277.661 419.618 278.901C415.038 280.341 412.549 278.741 411.618 273.811C411.468 273.031 411.238 272.281 411.038 271.521C410.278 259.321 409.519 247.111 408.759 234.911L407.949 234.821C404.639 245.211 401.319 255.601 398.009 265.991C396.769 268.431 395.618 271.141 393.228 272.371C390.528 273.761 387.859 273.911 385.969 271.101C385.259 270.051 384.338 269.191 383.518 268.241C379.688 259.301 374.948 250.981 370.548 242.431C370.178 241.851 369.829 241.621 369.559 242.621C370.299 254.001 371.018 265.391 371.738 276.771Z" fill="white"/>
<path fill-rule="evenodd" clip-rule="evenodd" d="M463.589 212.531C463.289 212.561 462.989 212.591 462.689 212.621C460.839 221.681 458.979 230.741 457.139 239.811C456.799 241.511 457.849 241.401 458.879 241.211C462.849 240.471 466.799 239.701 470.759 238.991C472.209 238.721 472.629 238.031 472.109 236.561C469.239 228.561 466.419 220.541 463.589 212.531ZM496.229 258.951C493.129 266.581 487.649 268.131 481.469 263.131C480.239 259.781 478.919 256.481 477.829 253.071C477.199 251.061 476.129 250.721 474.249 251.121C468.499 252.321 462.739 253.431 456.969 254.361C454.929 254.691 453.949 255.531 453.529 257.821C452.839 261.561 451.849 265.251 450.979 268.961C446.719 275.701 441.619 276.401 436.879 270.911C436.559 269.431 435.929 268.271 436.319 266.351C440.139 247.471 445.369 228.851 449.459 210.021C450.409 205.621 451.789 200.511 456.159 198.361C465.189 193.931 471.929 194.241 476.129 204.521C482.299 219.621 488.329 234.791 494.389 249.961C495.499 252.771 496.379 255.691 496.229 258.951Z" fill="white"/>
<path fill-rule="evenodd" clip-rule="evenodd" d="M313.649 240.58L312.869 240.74C311.029 249.8 309.149 258.86 307.369 267.93C306.989 269.86 308.399 269.49 309.459 269.29C313.209 268.61 316.949 267.83 320.699 267.21C322.529 266.91 322.829 266.19 322.169 264.42C320.129 258.86 318.229 253.22 316.249 247.62C315.429 245.26 314.529 242.93 313.649 240.58ZM292.329 302.96C286.979 300.57 285.959 298.42 287.189 292C287.509 290.27 287.869 288.54 288.209 286.81C288.599 285.31 289.009 283.8 289.379 282.3C293.459 266.07 296.689 249.68 301.349 233.56C302.299 230.27 304.319 227.6 307.229 225.99C315.309 221.51 322.379 223.57 325.829 231.86C332.349 247.53 338.599 263.37 344.939 279.15C346.029 281.88 346.449 284.83 346.259 287.94C343.259 293.28 338.939 295.45 334.779 293.92C333.629 293.5 333.029 292.6 332.269 291.78C331.529 290.33 330.779 288.89 330.029 287.44C329.309 285.34 328.499 283.28 327.909 281.12C327.389 279.21 326.349 278.88 324.589 279.26C320.569 280.14 316.519 280.82 312.489 281.58C303.969 283.18 303.969 283.18 302.419 292.65C302.219 294.07 302.009 295.49 301.809 296.92L301.859 296.85C300.609 297.17 300.149 298.17 299.929 299.39C297.779 301.79 295.119 302.58 292.329 302.96Z" fill="white"/>
</svg>
