<svg width="48" height="52" viewBox="0 0 48 52" fill="none" xmlns="http://www.w3.org/2000/svg">
<path fill-rule="evenodd" clip-rule="evenodd" d="M3.86182 19.0059H43.7692C45.7823 19.0059 47.381 20.6637 47.381 22.6177V48.1963C47.381 50.2094 45.7231 51.8081 43.7692 51.8081H3.86182C1.84868 51.8081 0.25 50.1502 0.25 48.1963V22.6177C0.25 20.6045 1.84868 19.0059 3.86182 19.0059Z" fill="#EE5791"/>
<path fill-rule="evenodd" clip-rule="evenodd" d="M23.7563 39.9661L39.9798 27.8281L47.381 22.3216C47.2033 20.4861 45.6639 19.0059 43.7692 19.0059H3.86182C1.9671 19.0059 0.368419 20.5453 0.25 22.44L7.53283 27.8873L23.7563 39.9661Z" fill="#E84C88"/>
<path fill-rule="evenodd" clip-rule="evenodd" d="M23.7563 31.0254L39.9798 43.1634L47.381 48.6699C47.1441 50.4462 45.6047 51.808 43.7692 51.808H3.86182C2.02631 51.808 0.427629 50.387 0.25 48.5515L7.4736 43.1634L23.7563 31.0254Z" fill="#E84C88"/>
<path fill-rule="evenodd" clip-rule="evenodd" d="M23.8154 38.072L40.0389 25.934L46.9072 20.7828C46.2559 19.6578 45.0717 18.9473 43.7691 18.9473H3.86174C2.49992 18.9473 1.31573 19.717 0.723633 20.7828L7.59195 25.934L23.8154 38.072Z" fill="#FF96C5"/>
<path fill-rule="evenodd" clip-rule="evenodd" d="M23.8158 32.9199L40.0393 45.0579L46.8484 50.15C46.1971 51.1565 45.0721 51.867 43.7695 51.867H3.86212C2.5595 51.867 1.43451 51.1565 0.783203 50.15L7.59232 45.0579L23.8158 32.9199Z" fill="#EE5791"/>
<path fill-rule="evenodd" clip-rule="evenodd" d="M36.5452 28.5392C31.2163 25.2235 24.9401 24.6314 20.5586 18.9473H43.7096C45.0714 18.9473 46.2556 19.717 46.8477 20.7828L39.9794 25.934L36.5452 28.5392Z" fill="#FF96C5"/>
<path fill-rule="evenodd" clip-rule="evenodd" d="M21.3281 19.0059H43.7686C45.1304 19.0059 46.3146 19.7756 46.9067 20.8414L40.0384 25.9926L36.545 28.5978C31.453 25.4005 25.7096 23.8018 21.3281 19.0059Z" fill="#FF96C5"/>
<path fill-rule="evenodd" clip-rule="evenodd" d="M36.5452 28.5392C31.2163 25.2235 24.9401 24.6314 20.5586 18.9473H43.7096C45.0714 18.9473 46.2556 19.717 46.8477 20.7828L39.9794 25.934L36.5452 28.5392Z" fill="#FF96C5"/>
<path fill-rule="evenodd" clip-rule="evenodd" d="M23.8746 39.9666L36.8416 29.2496L46.9664 20.8418C46.7888 20.4274 46.552 20.0129 46.1967 19.7168L23.8154 0L1.37493 19.7168H1.43412C1.13807 20.0129 0.901262 20.4274 0.723633 20.7826L10.9077 29.1904L23.8746 39.9666Z" fill="#E84C88"/>
<path fill-rule="evenodd" clip-rule="evenodd" d="M34.2957 31.3803L36.8418 29.2487L38.1443 28.1829V12.5516L34.0589 8.99898V31.3803H34.2957ZM46.2561 19.7752V21.4922L42.1706 24.8672V16.2226C43.414 17.2291 45.1903 18.6502 46.2561 19.7752ZM1.55273 19.5975L5.63822 16.0449V24.9264L1.55273 21.5514V19.5975ZM9.66448 12.4331L13.75 8.88056V31.3803H13.4539L10.9079 29.2487L9.72367 28.2421V12.4331H9.66448ZM17.8354 5.32798L21.9209 1.77539V31.3803H17.8354V5.32798ZM25.9472 1.8346L30.0326 5.38718V31.3803H25.9472V1.8346Z" fill="#F0F1F4"/>
<path fill-rule="evenodd" clip-rule="evenodd" d="M9.07227 17.9395H38.7363V27.6499L36.8416 29.2485L26.5983 37.7155H21.1511L10.9078 29.2485L9.07227 27.7091V17.9395Z" fill="#6ADBD9"/>
<path d="M8.4209 27.1784L9.72348 28.2442L9.66429 27.4153V18.593H38.1442V28.185L39.3876 27.1192V17.9417V17.3496H38.7363H9.07219H8.4209V17.9417V27.1784Z" fill="#08BBB5"/>
<path fill-rule="evenodd" clip-rule="evenodd" d="M23.7563 39.9671L24.9997 39.0197L0.842097 20.6055C0.486839 21.1384 0.30921 21.7305 0.25 22.3818L7.53283 27.8291L23.7563 39.9671Z" fill="#E84C88"/>
<path fill-rule="evenodd" clip-rule="evenodd" d="M23.8752 39.9085L22.6318 38.9611L46.8486 20.5469C47.2039 21.0798 47.3223 21.6719 47.3815 22.3232L40.0987 27.7705L23.8752 39.9085Z" fill="#E84C88"/>
<path d="M23.2838 44.4074C27.9273 44.4074 31.6916 40.6431 31.6916 35.9996C31.6916 31.3561 27.9273 27.5918 23.2838 27.5918C18.6403 27.5918 14.876 31.3561 14.876 35.9996C14.876 40.6431 18.6403 44.4074 23.2838 44.4074Z" fill="#E84C88"/>
<path d="M23.2832 45.295C18.132 45.295 13.9873 41.1503 13.9873 35.9991C13.9873 30.8478 18.132 26.7031 23.2832 26.7031C28.4345 26.7031 32.5792 30.8478 32.5792 35.9991C32.5792 41.1503 28.4345 45.295 23.2832 45.295ZM23.2832 28.4794C19.1386 28.4794 15.7636 31.8544 15.7636 35.9991C15.7636 40.1437 19.1386 43.5187 23.2832 43.5187C27.4279 43.5187 30.8029 40.1437 30.8029 35.9991C30.8029 31.8544 27.4279 28.4794 23.2832 28.4794Z" fill="white"/>
<path d="M23.2838 44.4074C27.9273 44.4074 31.6916 40.6431 31.6916 35.9996C31.6916 31.3561 27.9273 27.5918 23.2838 27.5918C18.6403 27.5918 14.876 31.3561 14.876 35.9996C14.876 40.6431 18.6403 44.4074 23.2838 44.4074Z" fill="#E84C88"/>
<path d="M23.2825 43.1647C27.2393 43.1647 30.4469 39.9571 30.4469 36.0003C30.4469 32.0435 27.2393 28.8359 23.2825 28.8359C19.3258 28.8359 16.1182 32.0435 16.1182 36.0003C16.1182 39.9571 19.3258 43.1647 23.2825 43.1647Z" fill="#EE5791"/>
<path d="M23.2236 40.9726C25.9705 40.9726 28.1972 38.7459 28.1972 35.999C28.1972 33.2522 25.9705 31.0254 23.2236 31.0254C20.4768 31.0254 18.25 33.2522 18.25 35.999C18.25 38.7459 20.4768 40.9726 23.2236 40.9726Z" fill="#5EC5C5"/>
<path d="M17.362 37.067V35.7644H17.3028L16.8883 36.7709C16.7699 36.9486 16.7107 37.0078 16.5923 37.0078C16.4739 37.0078 16.4147 36.9486 16.2962 36.7709L15.8818 35.7644H15.8226V37.067C15.8226 37.2446 15.7041 37.4223 15.5265 37.4223C15.3489 37.4223 15.2305 37.3038 15.2305 37.067V35.1723C15.2305 34.9354 15.3489 34.7578 15.5857 34.7578C15.7633 34.7578 15.8818 34.8762 16.0002 35.1131L16.5331 36.2973L17.066 35.1131C17.1844 34.8762 17.3028 34.7578 17.4804 34.7578C17.7173 34.7578 17.8357 34.8762 17.8357 35.1723V37.067C17.8357 37.2446 17.7173 37.4223 17.5396 37.4223C17.4804 37.4223 17.362 37.3038 17.362 37.067Z" fill="white"/>
<path d="M18.251 37.1256C18.251 37.0664 18.251 37.0072 18.3102 36.8887L18.9023 35.2309C19.0207 34.9348 19.1391 34.8164 19.4352 34.8164C19.7312 34.8164 19.8497 34.9348 19.9681 35.2309L20.5602 36.8887C20.6194 37.0072 20.6194 37.0664 20.6194 37.1256C20.6194 37.3032 20.5009 37.4216 20.3233 37.4216C20.1457 37.4216 20.0865 37.3032 19.9681 37.1256L19.8496 36.8295H18.9615L18.8431 37.1256C18.7839 37.3624 18.6654 37.4216 18.547 37.4216C18.3694 37.4216 18.251 37.3032 18.251 37.1256ZM19.7312 36.3559L19.4352 35.3493H19.376L19.0799 36.3559H19.7312Z" fill="white"/>
<path d="M22.987 37.067V35.7644H22.9278L22.5133 36.7709C22.3949 36.9486 22.3357 37.0078 22.2173 37.0078C22.0989 37.0078 22.0397 36.9486 21.9212 36.7709L21.5068 35.7644H21.4476V37.067C21.4476 37.2446 21.3291 37.4223 21.1515 37.4223C20.9739 37.4223 20.8555 37.3038 20.8555 37.067V35.1723C20.8555 34.9354 20.9739 34.7578 21.2107 34.7578C21.3883 34.7578 21.5068 34.8762 21.6252 35.1131L22.1581 36.2973L22.691 35.1131C22.8094 34.8762 22.9278 34.7578 23.1054 34.7578C23.3423 34.7578 23.4607 34.8762 23.4607 35.1723V37.067C23.4607 37.2446 23.3423 37.4223 23.1646 37.4223C23.1054 37.4223 22.987 37.3038 22.987 37.067Z" fill="white"/>
<path d="M23.875 37.1256C23.875 37.0664 23.875 37.0072 23.9342 36.8887L24.5263 35.2309C24.6447 34.9348 24.7631 34.8164 25.0592 34.8164C25.3552 34.8164 25.4737 34.9348 25.5921 35.2309L26.1842 36.8887C26.2434 37.0072 26.2434 37.0664 26.2434 37.1256C26.2434 37.3032 26.125 37.4216 25.9473 37.4216C25.7697 37.4216 25.7105 37.3032 25.5921 37.1256L25.4737 36.8295H24.5855L24.4671 37.1256C24.4079 37.3624 24.2895 37.4216 24.171 37.4216C23.9934 37.4216 23.875 37.3032 23.875 37.1256ZM25.3552 36.3559L25.0592 35.3493H25L24.704 36.3559H25.3552Z" fill="white"/>
<path d="M26.54 35.1717C26.54 34.9348 26.6584 34.8164 26.8953 34.8164H27.5466C28.3163 34.8164 28.7308 35.2901 28.7308 36.119C28.7308 36.948 28.3163 37.4216 27.5466 37.4216H26.8953C26.6584 37.4216 26.54 37.3032 26.54 37.0664V35.1717ZM27.4282 36.8887C27.8427 36.8887 28.0795 36.6519 28.0795 36.119C28.0795 35.5861 27.9019 35.3493 27.4282 35.3493H27.1321V36.948H27.4282V36.8887Z" fill="white"/>
<path d="M28.9678 35.942C28.9678 35.1723 29.3823 34.7578 30.0928 34.7578C30.8033 34.7578 31.2178 35.2315 31.2178 35.942V36.2381C31.2178 36.9486 30.8033 37.4223 30.0928 37.4223C29.3823 37.4223 28.9678 36.9486 28.9678 36.2381V35.942ZM29.6191 36.2381C29.6191 36.6525 29.7967 36.8894 30.152 36.8894C30.448 36.8894 30.6849 36.6525 30.6849 36.2381V35.942C30.6849 35.5275 30.5072 35.2315 30.152 35.2315C29.8559 35.2315 29.6191 35.4683 29.6191 35.942V36.2381Z" fill="white"/>
<path fill-rule="evenodd" clip-rule="evenodd" d="M28.5529 32.1529C28.5529 32.2121 28.4936 32.2121 28.4936 32.2121C28.316 32.2713 28.1976 32.3897 28.1384 32.5673C28.0792 32.6857 28.02 32.6857 27.9608 32.5673C27.9015 32.3897 27.7831 32.2713 27.6055 32.2121C27.4871 32.1529 27.5463 32.0936 27.6055 32.0344C27.7831 31.9752 27.9015 31.8568 27.9608 31.6792C28.02 31.62 28.0792 31.62 28.1384 31.6792C28.1976 31.8568 28.316 31.9752 28.4936 32.0344C28.4936 32.0936 28.5529 32.1529 28.5529 32.1529Z" fill="#F6CD19"/>
<path fill-rule="evenodd" clip-rule="evenodd" d="M27.4279 31.3223C27.4279 31.3815 27.4279 31.3815 27.4279 31.3223C27.3095 31.4407 27.2503 31.4999 27.191 31.5591C27.1318 31.6183 27.1319 31.6183 27.0727 31.5591C27.0134 31.4999 26.9542 31.4407 26.895 31.3815C26.8358 31.3223 26.8358 31.3223 26.895 31.2631C26.9542 31.2038 27.0134 31.1446 27.0727 31.0854C27.0727 31.0262 27.1318 31.0262 27.1318 31.0854C27.2503 31.1446 27.3687 31.2631 27.4279 31.3223Z" fill="#F6CD19"/>
</svg>
