<svg width="91" height="99" viewBox="0 0 91 99" fill="none" xmlns="http://www.w3.org/2000/svg">
<path fill-rule="evenodd" clip-rule="evenodd" d="M7.32652 36.2261H83.4508C87.27 36.2261 90.3887 39.3447 90.3887 43.1639V91.9662C90.3887 95.7854 87.27 98.904 83.4508 98.904H7.32652C3.50732 98.904 0.388672 95.7854 0.388672 91.9662V43.1639C0.388672 39.356 3.50732 36.2261 7.32652 36.2261Z" fill="#FF5DAF"/>
<path fill-rule="evenodd" clip-rule="evenodd" d="M45.237 76.2263L76.2201 53.0737L90.3557 42.5313C90.028 39.0172 87.045 36.2375 83.4517 36.2375H7.32744C3.65512 36.2375 0.626868 39.1302 0.400879 42.746L14.254 53.0963L45.237 76.2263Z" fill="#FF2EAB"/>
<path fill-rule="evenodd" clip-rule="evenodd" d="M45.2364 59.2548L76.2195 82.4073L90.3099 92.9384C89.8353 96.3056 86.9313 98.9158 83.4398 98.9158H7.31551C3.75619 98.9158 0.795733 96.2039 0.422852 92.735L14.2534 82.4073L45.2364 59.2548Z" fill="#FF2EAB"/>
<path fill-rule="evenodd" clip-rule="evenodd" d="M45.3947 72.6781L76.3777 49.5255L89.4738 39.7402C88.276 37.6385 86.0161 36.2261 83.4399 36.2261H7.31557C4.7506 36.2261 2.49071 37.6385 1.29297 39.7289L14.4116 49.5255L45.3947 72.6781Z" fill="#FF96C5"/>
<path fill-rule="evenodd" clip-rule="evenodd" d="M45.3948 62.802L76.3778 85.9545L89.327 95.6269C88.0953 97.593 85.9145 98.9037 83.4399 98.9037H7.31566C4.84108 98.9037 2.66028 97.593 1.43994 95.6382L14.4117 85.9545L45.3948 62.802Z" fill="#FF5DAF"/>
<path fill-rule="evenodd" clip-rule="evenodd" d="M69.7337 54.5087C59.5755 48.2375 47.5303 47.0285 39.2817 36.2375H83.4625C86.0388 36.2375 88.2987 37.6613 89.4964 39.7517L76.4004 49.537L69.7337 54.5087Z" fill="#FF96C5"/>
<path fill-rule="evenodd" clip-rule="evenodd" d="M40.5913 36.2261H83.4501C86.0263 36.2261 88.2862 37.6498 89.484 39.7402L76.3879 49.5255L69.7326 54.4973C59.9359 48.4408 49.0207 45.4803 40.5913 36.2261Z" fill="#FF96C5"/>
<path fill-rule="evenodd" clip-rule="evenodd" d="M69.7337 54.5087C59.5755 48.2375 47.5303 47.0285 39.2817 36.2375H83.4625C86.0388 36.2375 88.2987 37.6613 89.4964 39.7517L76.4004 49.537L69.7337 54.5087Z" fill="#FF96C5"/>
<path fill-rule="evenodd" clip-rule="evenodd" d="M45.4736 76.2938L70.2081 55.8192L89.564 39.7966C89.225 38.9943 88.7279 38.2599 88.129 37.6497L45.4171 0L2.64875 37.6497H2.71655C2.12898 38.2486 1.65441 38.9604 1.31543 39.7401L20.7505 55.8192L45.4736 76.2938Z" fill="#FF2EAB"/>
<path fill-rule="evenodd" clip-rule="evenodd" d="M65.3272 59.8642L70.2085 55.819L72.6831 53.7738V23.9998L64.9317 17.1749V59.8642H65.3272ZM88.1859 37.706V40.9489L80.4345 47.367V30.8246C82.7961 32.9037 86.1746 35.6156 88.1859 37.706ZM2.92041 37.4122L10.6718 30.5873V47.4913L2.92041 41.0732V37.4122ZM18.4232 23.7738L26.1747 16.9489V59.8755H25.621L20.7396 55.8303L18.4232 53.9207V23.7738ZM33.926 10.1241L41.6775 3.29919V59.8642H33.926V10.1241ZM49.4289 3.53648L57.1803 10.3613V59.8755H49.4289V3.53648Z" fill="#F0F1F4"/>
<path fill-rule="evenodd" clip-rule="evenodd" d="M17.2139 34.2826H73.8918V52.7798L70.2082 55.8306L50.7054 71.9662H40.2534L20.7393 55.8306L17.2139 52.9041V34.2826Z" fill="#6ADBD9"/>
<path d="M16.0161 51.9093L18.4342 53.8754L18.4116 52.3387V35.48H72.6828V53.7737L75.0896 51.785V34.2822V33.0845H73.8918H17.2139H16.0161V34.2822V51.9093Z" fill="#08BBB5"/>
<path fill-rule="evenodd" clip-rule="evenodd" d="M45.2371 76.2258L47.6099 74.4517L1.51953 39.3783C0.875461 40.3613 0.479975 41.5026 0.400879 42.7342L14.254 53.0845L45.2371 76.2258Z" fill="#FF2EAB"/>
<path fill-rule="evenodd" clip-rule="evenodd" d="M45.5194 76.1805L43.1465 74.4065L89.3273 39.3104C89.9714 40.2935 90.2764 41.446 90.3555 42.6777L76.5024 53.0279L45.5194 76.1805Z" fill="#FF2EAB"/>
<path fill-rule="evenodd" clip-rule="evenodd" d="M46.5929 52.8583C46.7059 52.8583 46.8302 52.8583 46.9432 52.8583H47.0675C47.1466 52.8583 47.2257 52.8583 47.3048 52.8696L47.4291 52.8809L47.655 52.8922L47.8132 52.9035L48.0053 52.9261L48.1635 52.9374L48.3669 52.96L48.5138 52.9826L48.7285 53.0165L48.8528 53.0391C48.9319 53.0504 49.011 53.0617 49.0901 53.073L49.2031 53.0956C49.3048 53.1182 49.4065 53.1295 49.5082 53.1521L49.542 53.1634C49.655 53.186 49.768 53.2086 49.881 53.2312H49.8923L49.9262 53.2425C50.0279 53.2651 50.1296 53.2877 50.22 53.3103L50.3104 53.3329L50.5364 53.3894L50.6833 53.4346L50.8528 53.4798L51.011 53.525L51.1918 53.5815L51.3274 53.6267L51.5194 53.6945L51.655 53.7397L51.8132 53.7962L51.9714 53.8527L52.1748 53.9318L52.2652 53.9657C52.3556 53.9996 52.4347 54.0335 52.5138 54.0787L52.5703 54.1013H52.5816C52.672 54.1465 52.7737 54.1917 52.8641 54.2369H52.8754L52.9884 54.2934L53.1692 54.3837L53.3048 54.4515L53.4517 54.5306L53.5985 54.6097L53.7454 54.6888L53.881 54.7679L54.0279 54.8583L54.1635 54.9374L54.3217 55.0391L54.446 55.1182L54.5816 55.2086L54.7285 55.3103L54.8076 55.3668L54.9997 55.5024C55.0901 55.5589 55.1692 55.6267 55.2483 55.6832C55.3952 55.7849 55.5307 55.8979 55.6663 56.0109L55.7567 56.09L55.9149 56.2256L56.0053 56.3046L56.1635 56.4402L56.2539 56.5193L56.4008 56.6549L56.4912 56.7453L56.6381 56.8809L56.7172 56.96L56.8754 57.1182L56.9319 57.1747C57.2709 57.525 57.5985 57.8866 57.8923 58.2595L57.9375 58.3046L58.0844 58.4967L58.1296 58.5532L58.2765 58.7566L58.3104 58.8018C58.3669 58.8696 58.4121 58.9487 58.4686 59.0278L58.4912 59.0504C58.5477 59.1295 58.6042 59.2086 58.6607 59.2877L58.672 59.299C59.0675 59.8979 59.4291 60.5306 59.7341 61.1973L59.7454 61.2199C59.7906 61.3103 59.8245 61.3894 59.8584 61.4798L59.881 61.5137C59.9149 61.6041 59.9601 61.6832 59.994 61.7736L60.0053 61.7962C60.0392 61.8866 60.0731 61.977 60.1183 62.0674L60.1296 62.09C60.3556 62.6775 60.5477 63.2764 60.6946 63.8979V63.9092C60.7172 64.0109 60.7398 64.1126 60.7624 64.203V64.2256C60.785 64.316 60.8076 64.4176 60.8189 64.508L60.8302 64.5532C60.8528 64.6436 60.8641 64.7453 60.8867 64.8357V64.847H60.9093H60.9319H60.9545H60.9771L60.9997 64.8583H61.0223L61.0449 64.8696L61.0675 64.8809L61.0901 64.8922L61.1127 64.9035L61.1353 64.9148L61.1579 64.9261L61.1805 64.9374L61.2031 64.9487L61.2257 64.96L61.2483 64.9713L61.2709 64.9826L61.2935 64.9939L61.3161 65.0052L61.3387 65.0165L61.3613 65.0278L61.3839 65.0391L61.4065 65.0504L61.4291 65.0617L61.4516 65.073L61.4742 65.0843L61.4969 65.0956L61.5195 65.1069L61.542 65.1182L61.5646 65.1295L61.5872 65.1408L61.6098 65.1521L61.6324 65.1634L61.655 65.1747L61.6776 65.186L61.7002 65.1973L61.7228 65.2086L61.7454 65.2199L61.768 65.2312L61.7906 65.2425L61.8132 65.2538L61.8358 65.2651L61.8584 65.2764L61.881 65.2877L61.9036 65.299L61.9262 65.3103L61.9488 65.3216L61.9714 65.3329L61.994 65.3442L62.0166 65.3555L62.0392 65.3781L62.0618 65.4007L62.0844 65.4233L62.107 65.4459L62.1296 65.4685L62.1409 65.4911L62.1522 65.5137L62.1635 65.5363L62.1748 65.5589L62.1861 65.5815L62.1974 65.6041L62.2087 65.6267L62.22 65.6493L62.2313 65.6719C62.4347 65.9657 62.559 66.2934 62.5929 66.6323C62.672 67.2538 62.6946 67.8866 62.5477 68.508C62.3443 69.3555 61.8019 69.864 60.9545 70.0448C60.9093 70.0561 60.8641 70.0674 60.8189 70.09H60.8076C60.785 70.1804 60.7737 70.2821 60.7511 70.3724L60.7398 70.4176C60.7172 70.508 60.6946 70.5984 60.672 70.6888L60.6607 70.734C60.6381 70.8244 60.6155 70.9148 60.5929 71.0052L60.5816 71.0278C60.4234 71.6154 60.2313 72.1917 59.994 72.7566L59.9714 72.8131C59.9375 72.8922 59.9036 72.9826 59.8697 73.0617L59.8584 73.0956C59.8245 73.186 59.7793 73.2651 59.7454 73.3555L59.7341 73.3894C59.4743 73.9431 59.1918 74.4741 58.8641 74.9826L58.8528 75.0052C58.8076 75.0843 58.7511 75.1634 58.7059 75.2425L58.6833 75.2764C58.6381 75.3442 58.5816 75.4233 58.5364 75.4911L58.5025 75.5363C58.4573 75.6041 58.4008 75.6832 58.3556 75.751L58.333 75.7736C58.0392 76.1691 57.7341 76.5532 57.4065 76.9261L57.3725 76.96L57.2031 77.1408L57.1579 77.1973L56.9884 77.3668L56.9319 77.4233L56.7737 77.5815L56.6946 77.6606L56.5364 77.8075L56.4686 77.864L56.2991 78.0222C56.1522 78.1465 56.0166 78.2708 55.8697 78.3951L55.8358 78.4177L55.6776 78.5532L55.5873 78.6323C55.5308 78.6775 55.4742 78.7227 55.4177 78.7679L55.3387 78.8357L55.1692 78.96L55.0675 79.0391L54.9206 79.1408L54.7963 79.2312L54.6607 79.3216L54.5138 79.4233L54.3895 79.5024L54.22 79.6041L54.107 79.6719C54.0166 79.7284 53.9262 79.7736 53.8471 79.8301L53.6889 79.9205L53.5534 79.9996L53.4177 80.0674L53.2483 80.1578L53.124 80.2256L52.9658 80.3047L52.8189 80.3725L52.672 80.4402L52.5251 80.508L52.3443 80.5871L52.22 80.6436C52.1522 80.6775 52.0844 80.7001 52.0053 80.734L51.9036 80.7792C51.8019 80.8131 51.7115 80.8583 51.6098 80.8922H51.5986L51.4968 80.9261C51.429 80.9487 51.3613 80.9713 51.2935 80.9939L51.1466 81.0391L50.9771 81.0956L50.8302 81.1408L50.6381 81.1973L50.5138 81.2312L50.3217 81.2877L50.1748 81.3216L49.9601 81.3781L49.8471 81.4007C49.7567 81.4233 49.6663 81.4346 49.5872 81.4572L49.5194 81.4685C49.4064 81.4911 49.2935 81.5137 49.1918 81.5363H49.1805L49.1014 81.5476C49.0223 81.5589 48.9319 81.5815 48.8528 81.5928L48.7172 81.6154L48.5138 81.6493L48.3556 81.6719L48.1748 81.6945L48.0053 81.7171L47.8245 81.7284L47.655 81.7397L47.463 81.751L47.3273 81.7623C47.2483 81.7623 47.1579 81.7736 47.0788 81.7736H46.9771C46.8641 81.7736 46.7398 81.7736 46.6268 81.7736C46.5025 81.7736 46.3782 81.7736 46.2652 81.7736H46.2539C46.1409 81.7736 46.0166 81.7623 45.9036 81.7623C45.8245 81.7623 45.7454 81.751 45.6663 81.751L45.5421 81.7397C45.4743 81.7397 45.3952 81.7284 45.3274 81.7171L45.1805 81.7058L44.9658 81.6832L44.8302 81.6719L44.6494 81.6493L44.4686 81.6267L44.3104 81.6041L44.1183 81.5702L43.9714 81.5476C43.9036 81.5363 43.8245 81.525 43.7567 81.5024L43.6324 81.4798L43.4178 81.4346L43.2709 81.4007L43.0788 81.3555L42.9093 81.3103L42.7398 81.2651L42.559 81.2086L42.4008 81.1634L42.22 81.1069L42.0618 81.0504L41.9036 80.9939L41.7341 80.9374L41.5759 80.8809L41.4065 80.8131L41.2596 80.7566L41.0901 80.6888L40.9206 80.621L40.785 80.5645L40.6042 80.4854L40.4573 80.4177L40.2878 80.3386L40.1409 80.2595L39.994 80.1804L39.8245 80.09L39.6889 80.0109L39.542 79.9318L39.3838 79.8414L39.2483 79.7623L39.0901 79.6606L38.9545 79.5815L38.7963 79.4798L38.6607 79.3894L38.5138 79.2877L38.3782 79.1973L38.22 79.0843L38.107 79.0052L37.9375 78.8809L37.8245 78.7905L37.6663 78.6662L37.5646 78.5871L37.3839 78.4402L37.316 78.3838C37.2483 78.3273 37.1918 78.2708 37.124 78.2143L37.0449 78.1465C36.9884 78.09 36.9206 78.0335 36.8641 77.9883L36.7963 77.9318C36.7285 77.8753 36.672 77.8188 36.6155 77.7623L36.559 77.7058C36.4912 77.6493 36.4347 77.5815 36.3669 77.5137L36.333 77.4798C36.2652 77.412 36.1974 77.3442 36.1296 77.2764L36.107 77.2425C36.0392 77.1747 35.9714 77.0956 35.9036 77.0165L35.881 76.9939C34.7511 75.7397 33.8358 74.2934 33.2031 72.7001C33.124 72.4967 33.0449 72.2821 32.9658 72.0674L32.9545 72.0448C32.8415 71.7284 32.7398 71.4007 32.6494 71.0617V71.0504C32.6155 70.9487 32.5929 70.8357 32.5703 70.7227V70.7001C32.5477 70.5871 32.5138 70.4854 32.4912 70.3724V70.3611C32.4686 70.2482 32.446 70.1352 32.4234 70.0222V70.0109C32.4008 69.8979 32.3782 69.7849 32.3669 69.6719C32.3443 69.5589 32.333 69.4459 32.3104 69.3329V69.3103C32.2765 69.0843 32.2539 68.847 32.2313 68.621V68.5984C32.2087 68.3611 32.1974 68.1239 32.1861 67.8866V67.8753L32.1748 67.8527L32.1635 67.8301L32.1522 67.8075L32.1409 67.7849L32.1296 67.7623L32.1183 67.7397L32.107 67.7171L32.0279 67.7849L32.0166 67.7623L32.0053 67.7397L31.994 67.7171L31.9827 67.6945L31.9714 67.6719L31.9601 67.6493L31.9488 67.6267L31.9375 67.6041L31.9262 67.5815L31.9149 67.5589L31.9036 67.5363L31.8923 67.5137L31.881 67.4911L31.8697 67.4685L31.8584 67.4459L31.8471 67.4233L31.8358 67.4007L31.8245 67.3781L31.8584 67.3894L31.8471 67.3668L31.8358 67.3442L31.8245 67.3216L31.8132 67.299L31.8019 67.2764L31.7906 67.2538L31.7793 67.2312L31.768 67.2086L31.7567 67.186L31.7454 67.1634L31.7341 67.1408L31.7228 67.1182L31.7115 67.0956L31.7002 67.073L31.6889 67.0504L31.6776 67.0278L31.6663 67.0052L31.655 66.9826L31.6437 66.96L31.6324 66.9374L31.6211 66.9148L31.6098 66.8922L31.5985 66.8696L31.5307 66.8809C31.5307 66.96 31.5194 67.0504 31.5194 67.1295C31.5194 67.8866 31.5307 68.6323 31.5194 69.3894C31.5194 69.8527 31.3048 70.0674 30.8754 70.0561C30.6494 70.0448 30.4912 69.9092 30.446 69.6832C30.4234 69.5476 30.4121 69.412 30.4121 69.2764C30.4121 68.1239 30.4121 66.96 30.4121 65.8075C30.4121 65.7058 30.4234 65.5928 30.4347 65.4911C30.4686 65.2538 30.559 65.0278 30.8189 64.96C31.0901 64.8922 31.3726 64.847 31.6211 65.0617C31.8471 65.2425 31.9262 65.5137 32.0618 65.751L32.0731 65.7849L32.0844 65.8075C32.0957 65.6945 32.107 65.5815 32.1183 65.4685C32.1409 65.2764 32.1748 65.0843 32.2087 64.8922L32.2313 64.7905C32.2426 64.7227 32.2539 64.6549 32.2652 64.5871L32.2878 64.4515L32.3217 64.2708L32.3556 64.1126L32.4008 63.9318L32.4347 63.7736L32.4799 63.5928L32.5251 63.4346L32.5703 63.2651L32.6155 63.1069L32.672 62.9148L32.7172 62.7792L32.7737 62.5984L32.8302 62.4289L32.8867 62.2821L32.9545 62.1126L33.011 61.9544L33.0675 61.8075L33.1353 61.638L33.1918 61.5024L33.2709 61.3216L33.3161 61.2199L33.4177 61.0165V61.0052C33.4629 60.9148 33.5082 60.8131 33.5534 60.7227L33.5646 60.7114C33.6098 60.6097 33.6663 60.5193 33.7228 60.4176V60.4063L33.768 60.316L33.881 60.1126L33.9488 59.9996L34.0505 59.8188L34.1296 59.6945L34.2313 59.525L34.3217 59.3894L34.4121 59.2538L34.5251 59.0956L34.6042 58.9713L34.7059 58.8244L34.8076 58.6888L34.9093 58.5532L35.011 58.4176L35.1127 58.2821L35.2144 58.1578L35.3161 58.0335L35.4404 57.8866L35.5308 57.7849L35.655 57.638L35.7567 57.525L35.881 57.3894L35.9827 57.2764L36.107 57.1521L36.22 57.0391L36.3556 56.9035L36.4573 56.8131C36.5251 56.7453 36.5929 56.6775 36.6607 56.621L36.6946 56.5871L36.7059 56.5758C36.785 56.508 36.8641 56.4289 36.9545 56.3611L36.9658 56.3498L37.0675 56.2595L37.2144 56.1352L37.3387 56.0335L37.4743 55.9205L37.5985 55.8188L37.7454 55.7058L37.881 55.6041L38.0166 55.5024L38.1522 55.4007L38.2878 55.3103L38.4347 55.2086L38.559 55.1295L38.7172 55.0278L38.8528 54.9374L38.9884 54.847L39.1692 54.7453L39.2709 54.6888L39.463 54.5871L39.5759 54.5193L39.7454 54.4289L39.8923 54.3498L40.0505 54.2708L40.1861 54.203L40.4008 54.1013L40.4912 54.0561L40.7059 53.9657L40.8189 53.9205H40.8302C40.9319 53.8753 41.0336 53.8414 41.1353 53.7962L41.1579 53.7849C41.2596 53.7397 41.3613 53.7058 41.463 53.6719L41.5081 53.6606C41.5985 53.6267 41.7002 53.5928 41.7906 53.5589L41.8923 53.525L42.107 53.4572L42.2652 53.412L42.4347 53.3668L42.5929 53.3216L42.785 53.2651L42.9093 53.2312L43.124 53.1747L43.2483 53.1408L43.4629 53.0956L43.5985 53.0617L43.7906 53.0278L43.9488 52.9939L44.1296 52.96L44.2878 52.9374L44.4686 52.9148L44.6494 52.8922L44.8189 52.8696L44.9997 52.847L45.1805 52.8357L45.3613 52.8244L45.5646 52.8131L45.7002 52.8018C45.7793 52.8018 45.8697 52.7905 45.9601 52.7905H46.0731C46.3443 52.8583 46.4686 52.8583 46.5929 52.8583ZM61.0336 66.1352V66.1578V66.1804L61.0449 66.316V66.3386V66.3611L61.0562 66.5532V66.5758V66.5984V66.6775V66.7001V66.7227L61.0675 66.9713V66.9939V67.0165V67.0278V67.0391V67.0617V67.0843C61.0675 67.1973 61.0675 67.299 61.0675 67.412C61.0675 67.5363 61.0675 67.6493 61.0675 67.7736V67.7849V67.7962V67.8075V67.8301C61.0675 67.9205 61.0562 67.9996 61.0562 68.09V68.1126V68.1352V68.1578V68.1804V68.203V68.2256L61.0449 68.4063V68.4289L61.0336 68.5758V68.5984V68.621V68.6436V68.6662V68.6888V68.7114V68.734V68.7566L61.011 68.96V68.9826V69.0052L61.0223 68.9939L61.0336 68.9826L61.0449 68.9713L61.0562 68.96L61.0675 68.9487L61.0788 68.9374L61.0901 68.9261L61.1014 68.9148L61.1127 68.9035L61.124 68.8922L61.1353 68.8809L61.1466 68.8696L61.1579 68.8583L61.1692 68.847L61.1805 68.8357L61.1918 68.8244V68.8131V68.8018L61.2031 68.7905V68.7792V68.7679L61.2144 68.7566V68.7453V68.734V68.7227V68.7114V68.7001V68.6888V68.6775V68.6662V68.6549V68.6436V68.6323V68.621V68.6097V68.5984V68.5871V68.5758V68.5645V68.5532V68.5419V68.5306V68.5193V68.508V68.4967V68.4854V68.4741V68.4628V68.4515V68.4402V68.4289V68.4176V68.4063V68.395V68.3837C61.3161 67.8414 61.3161 67.2877 61.2144 66.7453V66.734V66.7227V66.7114V66.7001V66.6888V66.6775V66.6662V66.6549V66.6436V66.6323V66.621V66.6097V66.5984V66.5871V66.5758V66.5645V66.5532V66.5419V66.5306V66.5193V66.508V66.4967V66.4854V66.4741V66.4628V66.4515V66.4402V66.4289V66.4176V66.4063V66.395V66.3837V66.3724V66.3611L61.2031 66.3498V66.3386V66.3273L61.1918 66.316L61.1805 66.3047V66.2934L61.1579 66.2708V66.2595L61.1466 66.2482V66.2369L61.1353 66.2256L61.124 66.2143L61.1127 66.203L61.1014 66.1917L61.0901 66.1804H61.0788L61.0675 66.1691L61.0562 66.1578L61.0336 66.1352Z" fill="#FF5DAF"/>
<path d="M46.5813 83.8647L45.7565 83.8421C45.7339 83.8421 45.7113 83.8421 45.6887 83.8421L40.9881 82.8929L36.8299 80.6782L36.0276 80.0455C36.0164 80.0342 35.9373 79.9777 35.9373 79.9664L35.7339 79.7969C35.7339 79.7969 35.6548 79.7178 35.6435 79.7178L35.4175 79.5144L35.3271 79.4353L34.3101 78.3957C32.9994 76.9494 31.9712 75.2997 31.248 73.5031C31.1463 73.2658 31.0559 73.0285 30.9768 72.7799C30.8977 72.5539 30.8299 72.3279 30.7621 72.1132C29.6096 72.0342 28.6943 71.198 28.5135 70.0455C28.4796 69.7969 28.457 69.5709 28.457 69.3336V65.8647C28.457 65.6613 28.4683 65.4579 28.5022 65.2545C28.6604 64.1584 29.361 63.3449 30.3666 63.085C30.457 63.0624 30.5474 63.0398 30.6378 63.0285L31.5305 60.5426C31.5305 60.5426 31.5757 60.4409 31.5757 60.4296L32.039 59.5144C32.039 59.5031 32.1068 59.4014 32.1068 59.3901L34.6265 55.9551L38.0616 53.2093L39.6661 52.3618C39.6774 52.3618 39.7678 52.3166 39.7791 52.3166L41.2593 51.7291L41.3723 51.6952L45.3271 50.9042L46.1181 50.859C46.2762 50.859 46.4118 50.859 46.5587 50.859L49.4966 51.1189L50.6717 51.3788C50.683 51.3788 50.7734 51.4014 50.7847 51.4127L52.8864 52.1245C52.8977 52.1245 52.9994 52.1697 53.0107 52.181L53.2932 52.3053C53.3158 52.3166 53.3949 52.3505 53.4288 52.3618L53.6774 52.4748C53.7 52.4861 53.7339 52.4974 53.7565 52.52L55.8243 53.7178C55.8356 53.7178 55.9147 53.7856 55.926 53.7856L56.4344 54.1471C56.5926 54.2601 56.7508 54.3957 56.909 54.52L58.0051 55.4918L58.0955 55.5822L58.2649 55.7517C58.7169 56.2149 59.0898 56.6217 59.4288 57.0624L59.6435 57.3336C59.6548 57.3449 59.7113 57.4127 59.7113 57.424L60.2989 58.2601C60.7621 58.9494 61.1689 59.6839 61.5192 60.4296L61.813 61.085C61.813 61.0963 61.8582 61.198 61.8582 61.198L61.9599 61.4466C62.2198 62.1132 62.4344 62.7912 62.5926 63.4805C62.6039 63.4918 62.6152 63.4918 62.6265 63.5031C62.6491 63.5144 62.6604 63.5257 62.6717 63.537C62.6943 63.5483 62.7056 63.5596 62.7282 63.5709C62.7621 63.5935 62.7847 63.6048 62.8186 63.6274C62.8299 63.6274 62.8525 63.65 62.8751 63.6613C62.8977 63.6726 62.9203 63.6952 62.9429 63.7178C62.9655 63.7404 63.0446 63.7969 63.0672 63.8195C63.0898 63.8421 63.1689 63.9099 63.1915 63.9212C63.2028 63.9325 63.2819 64.0003 63.2932 64.0116C63.3158 64.0342 63.361 64.068 63.3836 64.0906C63.3949 64.1019 63.4627 64.1697 63.474 64.1923C63.4853 64.2036 63.5531 64.2827 63.5644 64.294C63.587 64.3166 63.6435 64.3844 63.6548 64.407C63.6887 64.4409 63.7678 64.5426 63.7904 64.5878C64.2311 65.2319 64.4796 65.8647 64.5587 66.5313C64.6378 67.2319 64.7056 68.1584 64.4683 69.1189C64.1859 70.294 63.474 71.2093 62.4683 71.7291C62.4683 71.7404 62.457 71.7517 62.457 71.763C62.3101 72.3392 62.0842 72.9946 61.8243 73.6387L61.7113 73.8986C61.7113 73.8986 61.6661 74.0116 61.6548 74.0229L61.5305 74.3053C61.2141 74.972 60.8864 75.5822 60.5248 76.1584L59.9825 76.9607C59.9825 76.9607 59.9147 77.0624 59.9034 77.0624C59.5757 77.5144 59.2254 77.9551 58.8525 78.3618L58.6378 78.5991C58.6265 78.6104 58.57 78.6669 58.5587 78.6782L58.3892 78.8477C58.3779 78.859 58.3101 78.9268 58.2988 78.9381L58.1407 79.0963C58.1407 79.1076 58.0503 79.1867 58.0503 79.1867L57.8808 79.3449C57.8695 79.3562 57.7904 79.424 57.7904 79.4353L57.6209 79.5935C57.4401 79.7517 57.2819 79.8986 57.1124 80.0342L56.5926 80.4522C56.5813 80.4522 56.4909 80.5313 56.4909 80.5313L52.9542 82.5765L52.6943 82.6895C52.6378 82.7121 52.6378 82.7121 52.5813 82.7347L52.2536 82.859L51.4401 81.0172L52.1181 82.9042L49.9373 83.5144L49.4627 83.6048C49.4514 83.6048 49.361 83.6274 49.3497 83.6274L47.0559 83.8534H46.9429C46.8638 83.8534 46.7282 83.8647 46.5813 83.8647ZM45.9712 79.8421L46.5813 79.8534L48.7169 79.6726L50.7847 79.1302C50.7847 79.1302 50.8977 79.085 50.909 79.085L51.1237 79.0059L51.2367 78.9607L54.1294 77.3223L54.5587 76.9833C54.6943 76.8703 54.8299 76.7573 54.9429 76.6443L55.8808 75.7065C56.1746 75.3788 56.4457 75.0398 56.6943 74.6895L57.135 74.0341C57.4288 73.5709 57.6774 73.1076 57.9034 72.633L58.1181 72.1471C58.3327 71.6048 58.5022 71.1076 58.6378 70.6104C58.6491 70.5765 58.6604 70.52 58.6717 70.4974L58.8186 69.8195C58.8525 69.6387 58.909 69.4692 58.9881 69.2997C58.9655 69.1415 58.9542 68.9833 58.9768 68.8251L58.9994 68.5426L59.5983 68.5652C59.6322 68.5426 59.6661 68.52 59.7 68.4974L59.2932 68.4861C59.2932 68.4748 59.2932 68.4635 59.2932 68.4635L58.9994 68.4296L59.022 68.0681C59.022 68.0568 59.022 68.0229 59.022 67.9777C59.022 67.9551 59.022 67.9438 59.022 67.9325L59.0333 67.7291C59.0333 67.7178 59.0333 67.6952 59.0333 67.6726V67.3675V67.085C59.0333 67.0511 59.0333 67.0172 59.0333 66.9833L59.022 66.7799C59.022 66.7686 59.022 66.7347 59.022 66.7008C59.022 66.6895 59.022 66.6782 59.022 66.6669L59.0107 66.52C59.0107 66.4974 59.0107 66.4748 59.0107 66.4635L58.9994 66.3392C58.9881 66.1584 58.9994 65.9777 59.0333 65.7969C58.9429 65.6161 58.8864 65.424 58.8525 65.2206L58.6943 64.4635C58.5587 63.9212 58.4005 63.3901 58.2084 62.8816L57.8808 62.1132C57.6096 61.537 57.3045 60.9946 56.9655 60.4748L56.3214 59.5935C56.039 59.2432 55.7565 58.9268 55.4627 58.633L54.3553 57.6387C54.2536 57.5483 54.1294 57.4579 54.0051 57.3675L51.926 56.1019C51.9147 56.1019 51.9034 56.0906 51.8921 56.0906L49.7 55.2884L46.8073 54.8816H46.5248L42.7621 55.4579L38.3215 57.9438L35.6548 61.198L35.5757 61.3449L35.5192 61.4466L34.2198 65.1754C34.1746 65.4353 34.152 65.6048 34.1294 65.763L34.0955 66.0455C34.0616 66.3844 33.9373 66.7121 33.7565 66.9833L33.7904 66.972C33.7904 66.9833 33.8356 67.085 33.8469 67.0963C33.8582 67.1189 33.9034 67.2319 33.9147 67.2545C33.9938 67.4805 34.0502 67.7291 34.0502 67.9664C34.0615 68.0906 34.0729 68.294 34.0842 68.4861C34.1068 68.7121 34.1294 68.9042 34.152 69.1076L34.1971 69.4127C34.1971 69.424 34.1971 69.4353 34.2084 69.4466L34.457 70.5878C34.5361 70.8816 34.6265 71.1641 34.7169 71.4466C34.7847 71.65 34.8525 71.8308 34.9316 72.0116C35.4853 73.3788 36.2536 74.6217 37.248 75.7178L38.0164 76.4974L36.7395 78.0455L38.0954 76.5765L42.1406 79.0624L44.0503 79.6048L44.2197 79.6387L45.8921 79.8308C45.9599 79.8421 45.9712 79.8421 45.9712 79.8421Z" fill="#FF96C5"/>
<path fill-rule="evenodd" clip-rule="evenodd" d="M46.6041 52.7683C54.6154 52.7683 61.1013 59.2655 61.1013 67.2655C61.1013 75.2655 54.6041 81.7627 46.6041 81.7627C38.6041 81.7627 32.1069 75.2655 32.1069 67.2655C32.1069 59.2655 38.5928 52.7683 46.6041 52.7683Z" fill="#FF5DAF"/>
<path fill-rule="evenodd" clip-rule="evenodd" d="M46.5817 57.254C52.1636 57.254 56.6834 61.7738 56.6834 67.3557C56.6834 72.9376 52.1636 77.4574 46.5817 77.4574C40.9998 77.4574 36.48 72.9376 36.48 67.3557C36.4687 61.7738 40.9998 57.254 46.5817 57.254Z" fill="#08BBB5"/>
<path fill-rule="evenodd" clip-rule="evenodd" d="M57.0008 59.503C56.9895 59.5934 56.933 59.6499 56.8539 59.6838C56.5149 59.842 56.2663 60.0793 56.0855 60.3957C55.9725 60.5878 55.8482 60.5765 55.7465 60.3844C55.577 60.0567 55.3511 59.7968 55.0234 59.616C54.8426 59.5143 54.8426 59.3674 55.0347 59.277C55.3737 59.1075 55.6335 58.8702 55.8143 58.5426C55.916 58.3618 56.0516 58.3731 56.1307 58.5539C56.2889 58.8928 56.5375 59.1527 56.8652 59.3335C56.9782 59.39 57.0008 59.4352 57.0008 59.503Z" fill="#F7CE14"/>
<path fill-rule="evenodd" clip-rule="evenodd" d="M54.8181 57.7747C54.8181 57.8425 54.7729 57.8651 54.7277 57.8877C54.5583 57.9668 54.434 58.0911 54.3436 58.2493C54.2758 58.3623 54.1967 58.3623 54.1289 58.238C54.0498 58.0798 53.9368 57.9555 53.7899 57.8651C53.6656 57.786 53.6543 57.7069 53.7899 57.6391C53.9594 57.5601 54.0724 57.4358 54.1741 57.2776C54.2193 57.2098 54.2984 57.1646 54.3436 57.255C54.4566 57.4471 54.5922 57.6053 54.7842 57.7295L54.8181 57.7747Z" fill="#F7CE14"/>
<path fill-rule="evenodd" clip-rule="evenodd" d="M54.412 67.4469C54.412 67.752 54.412 68.0458 54.412 68.3509C54.412 69.0967 54.412 69.0967 55.169 69.0063C55.7001 68.9385 55.9939 68.7012 56.1295 68.1814C56.2651 67.6616 56.2651 67.1419 56.0956 66.6221C55.96 66.1814 55.6436 65.9441 55.1916 65.8989C55.0108 65.8876 54.8187 65.8876 54.6379 65.8763C54.4684 65.865 54.412 65.9215 54.412 66.091C54.4233 66.543 54.412 66.995 54.412 67.4469ZM53.2142 65.2662C53.2933 65.108 53.4289 64.995 53.5984 64.9272C54.2425 64.8707 54.8865 64.882 55.5306 64.9272C55.847 64.9498 56.1182 65.0967 56.412 65.1306L56.4459 65.1871C57.282 65.7181 57.4628 66.5656 57.4741 67.4582C57.4741 68.091 57.3724 68.7125 56.9656 69.2436C56.7961 69.4582 56.5814 69.6051 56.3555 69.752C56.3329 69.752 56.3103 69.7633 56.3103 69.7972C56.0956 69.8537 55.8922 69.9102 55.6775 69.9441C55.1351 70.0345 54.5814 69.9667 54.0278 69.9893C53.8244 70.0006 53.621 69.9667 53.4402 69.8876C53.4063 69.8537 53.3724 69.8311 53.3272 69.7972C53.1803 69.5938 53.1577 69.3678 53.1577 69.1306C53.1577 68.0006 53.1577 66.8707 53.1577 65.7407C53.169 65.5825 53.1351 65.4243 53.2142 65.2662Z" fill="white"/>
<path fill-rule="evenodd" clip-rule="evenodd" d="M60.3548 65.8308C60.174 65.8421 60.0045 65.876 59.8689 66.0003C59.7785 66.0455 59.722 66.102 59.6768 66.1924C59.6429 66.2376 59.6203 66.2941 59.5864 66.3393C59.5299 66.4296 59.496 66.5313 59.4734 66.633C59.383 67.1641 59.383 67.7065 59.4621 68.2489C59.496 68.4522 59.5638 68.633 59.722 68.7799C59.9819 69.0963 60.3209 69.1415 60.6938 69.0624C61.0892 68.972 61.3039 68.6669 61.3717 68.2941C61.4734 67.7517 61.4734 67.198 61.3717 66.6556C61.2813 66.1698 60.9762 65.8986 60.5017 65.8421C60.4565 65.8308 60.4113 65.8308 60.3548 65.8308ZM60.8972 64.8251C61.4508 64.9494 61.9254 65.1867 62.2644 65.6726C62.4678 65.9664 62.5921 66.2941 62.626 66.633C62.7051 67.2545 62.7277 67.8873 62.5808 68.5087C62.3774 69.3562 61.835 69.8647 60.9876 70.0455C60.9424 70.0568 60.8971 70.0681 60.852 70.0907C60.5695 70.0907 60.287 70.1133 60.0045 70.0794C59.044 69.9325 58.4452 69.3788 58.2531 68.3844C58.1401 67.7856 58.1288 67.1754 58.2531 66.5652C58.5017 65.3901 59.3152 64.7686 60.5243 64.8138C60.6373 64.8138 60.7616 64.8251 60.8972 64.8251Z" fill="white"/>
<path fill-rule="evenodd" clip-rule="evenodd" d="M32.1517 65.7059C32.4568 66.3952 32.7619 67.0844 33.0557 67.7624C33.18 67.7172 33.18 67.6155 33.2139 67.5364C33.5077 66.8924 33.7902 66.2483 34.0726 65.6042C34.1404 65.446 34.2195 65.2765 34.3325 65.1409C34.5359 64.8811 34.8749 64.7794 35.2139 64.8811C35.4851 64.9715 35.6659 65.2087 35.6659 65.559C35.6772 66.8359 35.6772 68.124 35.6659 69.4008C35.6659 69.8302 35.4512 70.0223 35.0557 70.011C34.7958 70.011 34.6376 69.8754 34.615 69.6042C34.5924 69.3443 34.5811 69.0731 34.5698 68.802C34.5698 68.1466 34.5698 67.4799 34.5698 66.8246L34.5246 66.8133C34.2647 67.3895 34.0161 67.9771 33.7563 68.5534C33.6659 68.7116 33.5981 68.8698 33.4964 69.0167C33.2704 69.3217 32.8636 69.2991 32.6602 68.9489C32.502 68.6777 32.3777 68.3952 32.2421 68.1127C32.05 67.672 31.8693 67.2426 31.6772 66.802L31.6094 66.8133C31.6094 66.8924 31.5981 66.9828 31.5981 67.0618C31.5981 67.8189 31.6094 68.5647 31.5981 69.3217C31.5981 69.785 31.3834 69.9997 30.954 69.9884C30.728 69.9771 30.5698 69.8415 30.5246 69.6155C30.502 69.4799 30.4907 69.3443 30.4907 69.2087C30.4907 68.0449 30.4907 66.8924 30.4907 65.7398C30.4907 65.6381 30.502 65.5251 30.5133 65.4234C30.5472 65.1861 30.6376 64.9602 30.8975 64.8924C31.1687 64.8246 31.4512 64.7794 31.6998 64.9941C31.9258 65.2087 32.0161 65.4686 32.1517 65.7059Z" fill="white"/>
<path fill-rule="evenodd" clip-rule="evenodd" d="M42.9433 69.2546C42.9433 69.3111 42.932 69.3676 42.932 69.4241C42.9094 69.7631 42.7738 69.9551 42.5026 70.0116C42.1975 70.0794 42.0732 70.0229 41.8698 69.6953C41.8246 68.2376 41.8246 66.78 41.8698 65.3224C41.9941 65.0625 42.1749 64.8704 42.4913 64.8817C42.6043 64.8817 42.7173 64.8817 42.8303 64.893C42.8755 64.9156 42.9207 64.9269 42.9546 64.9495C42.9998 65.006 43.045 65.0399 43.1128 65.0512C43.2823 65.3224 43.4178 65.6162 43.5534 65.9099C43.7116 66.2602 43.8472 66.6218 44.0393 66.9495C44.141 67.2433 44.2766 67.5258 44.4348 67.8535C44.5704 67.5371 44.6834 67.2772 44.7851 67.0173C44.8529 66.8817 44.9207 66.7461 44.9772 66.5992C45.2484 66.0342 45.3952 65.4128 45.8472 64.9495C45.915 64.9269 45.9715 64.9156 46.0393 64.893C46.1523 64.893 46.2653 64.893 46.3783 64.893C46.7851 64.9495 46.9998 65.1642 47.0111 65.5936C47.0224 66.8817 47.0224 68.1698 47.0111 69.458C47.0111 69.8196 46.819 70.0116 46.5252 70.0455C46.1749 70.0907 45.9941 69.9438 45.9489 69.5936C45.9376 69.5371 45.9263 69.4806 45.915 69.4241C45.915 68.5766 45.915 67.7179 45.915 66.8704L45.8585 66.8591C45.5647 67.5371 45.271 68.2037 44.9659 68.8817C44.8642 69.0286 44.7625 69.2094 44.5817 69.2546C44.3783 69.3111 44.1749 69.2885 44.0393 69.0738C43.9941 68.9947 43.9263 68.9156 43.8698 68.8478C43.6212 68.1811 43.3049 67.5484 43.0224 66.9043C42.9998 66.8591 42.9772 66.8365 42.9433 66.9043C42.9433 67.6727 42.9433 68.4636 42.9433 69.2546Z" fill="white"/>
<path fill-rule="evenodd" clip-rule="evenodd" d="M50.1284 66.0229C50.1058 66.0229 50.0832 66.0229 50.0606 66.0229C49.8799 66.6218 49.6991 67.2207 49.5183 67.8308C49.4844 67.9438 49.5635 67.9438 49.6426 67.9551C49.9476 67.9551 50.2414 67.9551 50.5465 67.9551C50.6595 67.9551 50.6934 67.9099 50.6595 67.8082C50.4787 67.1981 50.2979 66.6105 50.1284 66.0229ZM52.3544 69.65C52.0832 70.1359 51.6652 70.1698 51.2245 69.7517C51.1454 69.5031 51.0663 69.2659 50.9985 69.006C50.9646 68.8591 50.8855 68.8252 50.7386 68.8252C50.2979 68.8365 49.8685 68.8365 49.4279 68.8252C49.2697 68.8252 49.1906 68.8704 49.1567 69.0173C49.0889 69.2659 48.9985 69.5031 48.9194 69.7517C48.5691 70.1585 48.1849 70.1472 47.8572 69.7065C47.8346 69.6048 47.8008 69.5144 47.8347 69.3901C48.2075 68.1359 48.6821 66.9269 49.0776 65.6726C49.168 65.3788 49.2923 65.0512 49.6313 64.9608C50.3318 64.7687 50.829 64.8817 51.1002 65.65C51.4957 66.7687 51.8685 67.8986 52.2527 69.0173C52.3318 69.2094 52.377 69.424 52.3544 69.65Z" fill="white"/>
<path fill-rule="evenodd" clip-rule="evenodd" d="M38.7628 66.0112H38.7063C38.5255 66.6101 38.3447 67.209 38.1639 67.8191C38.13 67.9434 38.2317 67.9434 38.3108 67.9434C38.5933 67.9434 38.8757 67.9434 39.1582 67.9434C39.2938 67.9434 39.3277 67.8982 39.2825 67.7739C39.1582 67.3672 39.0452 66.9491 38.9209 66.5423C38.8757 66.3615 38.8193 66.1807 38.7628 66.0112ZM36.8757 70.0338C36.4803 69.7965 36.4238 69.6384 36.5368 69.209C36.5707 69.096 36.6046 68.983 36.6385 68.87C36.6724 68.7683 36.7175 68.6779 36.7514 68.5762C37.1356 67.5141 37.452 66.418 37.8701 65.3672C37.9605 65.1525 38.1187 64.9943 38.3447 64.9265C38.9661 64.7231 39.4859 64.9604 39.7119 65.5706C40.13 66.7344 40.5255 67.9095 40.9209 69.0847C40.9887 69.2881 41.0113 69.4915 40.9774 69.7061C40.7288 70.0338 40.3899 70.1242 40.0848 69.966C40.0057 69.9208 39.9605 69.853 39.904 69.7852C39.8588 69.6722 39.8023 69.5706 39.7571 69.4576C39.7119 69.2994 39.6667 69.1525 39.6328 68.9943C39.5989 68.8587 39.5311 68.8248 39.3955 68.8248C39.0904 68.8361 38.7854 68.8248 38.4803 68.8248C37.8362 68.8248 37.8362 68.8248 37.678 69.4576C37.6554 69.548 37.6328 69.6496 37.6102 69.74C37.5198 69.7513 37.4746 69.8078 37.452 69.8869C37.2938 70.0225 37.0904 70.0451 36.8757 70.0338Z" fill="white"/>
</svg>
