<svg width="303" height="271" viewBox="0 0 303 271" fill="none" xmlns="http://www.w3.org/2000/svg">
<path d="M142.172 268.176C216.227 268.176 276.26 208.143 276.26 134.088C276.26 60.0332 216.227 0 142.172 0C68.1172 0 8.08398 60.0332 8.08398 134.088C8.08398 208.143 68.1172 268.176 142.172 268.176Z" fill="url(#paint0_linear)"/>
<g opacity="0.57">
<path opacity="0.57" d="M265.109 225.06V202.015H253.866V207.683H250.149V180.271H237.511V179.156L228.684 167.169L220.506 179.156V182.222H208.241V165.031H193.001V170.886H187.519V163.545H172.186V155.46H158.155V164.939H136.783V146.726H123.216V160.943H121.172V140.035H108.906V161.965H104.26L98.6842 153.323L93.0159 161.965H86.883V154.438H71.3648V165.589H55.0104V183.059H49.8996V177.576H35.3107V193.466H30.1999V183.988H19.4208V197.74H8.54883V225.06H265.109Z" fill="#F8C3D6"/>
</g>
<path d="M251.45 224.037H20.8148C9.2923 224.037 0 230.82 0 239.184C0 247.547 9.2923 254.33 20.8148 254.33H251.45C262.972 254.33 272.265 247.547 272.265 239.184C272.265 230.913 262.972 224.037 251.45 224.037Z" fill="#CDAED2"/>
<path d="M167.076 251.543H55.3826C48.0417 251.543 42.1875 255.817 42.1875 261.207C42.1875 266.504 48.1346 270.871 55.3826 270.871H166.983C174.324 270.871 180.178 266.596 180.178 261.207C180.271 255.817 174.324 251.543 167.076 251.543Z" fill="#E0BEDA"/>
<path d="M262.972 224.037H10.7787C7.89812 224.037 5.66797 225.71 5.66797 227.754C5.66797 229.798 7.99105 231.471 10.7787 231.471H262.972C265.853 231.471 268.083 229.798 268.083 227.754C268.083 225.803 265.76 224.037 262.972 224.037Z" fill="#E0BEDA"/>
<path d="M196.997 234.631H39.2133C36.3327 234.631 34.1025 236.303 34.1025 238.348C34.1025 240.392 36.4256 242.065 39.2133 242.065H196.997C199.877 242.065 202.107 240.392 202.107 238.348C202.2 236.303 199.877 234.631 196.997 234.631Z" fill="#E0BEDA"/>
<path d="M232.121 234.631H221.9C219.019 234.631 216.789 236.303 216.789 238.348C216.789 240.392 219.112 242.065 221.9 242.065H232.121C235.002 242.065 237.232 240.392 237.232 238.348C237.232 236.303 234.909 234.631 232.121 234.631Z" fill="#A4C8E5"/>
<path d="M46.9265 251.543H21.2797C19.1425 251.543 17.377 252.844 17.377 254.424C17.377 256.003 19.1425 257.304 21.2797 257.304H46.9265C49.0637 257.304 50.8293 256.003 50.8293 254.424C50.8293 252.844 49.0637 251.543 46.9265 251.543Z" fill="#CDAED2"/>
<path d="M106.862 254.424H102.495C100.357 254.424 98.5918 255.725 98.5918 257.304C98.5918 258.884 100.357 260.185 102.495 260.185H106.862C108.999 260.185 110.765 258.884 110.765 257.304C110.765 255.725 108.999 254.424 106.862 254.424Z" fill="#CDAED2"/>
<path d="M179.806 244.572C179.806 243.271 181.293 242.156 183.151 242.156H112.437C114.295 242.156 115.782 243.271 115.782 244.572C115.782 245.873 114.295 246.988 112.437 246.988H183.151C181.293 246.988 179.806 245.873 179.806 244.572Z" fill="#E0BEDA"/>
<path d="M121.358 242.156H14.2173C12.3588 242.156 10.8721 243.271 10.8721 244.572C10.8721 245.873 12.3588 246.988 14.2173 246.988H121.265C123.123 246.988 124.61 245.873 124.61 244.572C124.703 243.178 123.216 242.156 121.358 242.156Z" fill="#BC9AC4"/>
<path d="M206.568 251.635H172.372C169.399 251.635 166.89 253.4 166.89 255.63C166.89 257.861 169.306 259.626 172.372 259.626H206.568C209.541 259.626 212.05 257.861 212.05 255.63C211.957 253.4 209.541 251.635 206.568 251.635Z" fill="#CDAED2"/>
<path d="M116.618 247.361H56.7759C54.9174 247.361 53.4307 248.476 53.4307 249.777C53.4307 251.078 54.9174 252.193 56.7759 252.193H116.618C118.477 252.193 119.964 251.078 119.964 249.777C119.964 248.476 118.477 247.361 116.618 247.361Z" fill="#CDAED2"/>
<path d="M165.403 242.436H139.756C137.619 242.436 135.854 243.736 135.854 245.316C135.854 246.896 137.619 248.197 139.756 248.197H165.403C167.54 248.197 169.306 246.896 169.306 245.316C169.306 243.644 167.54 242.436 165.403 242.436Z" fill="#CDAED2"/>
<g opacity="0.77">
<path opacity="0.77" d="M98.9626 92.3663C97.0112 92.3663 95.2457 93.0168 93.7589 94.0389C94.781 83.1669 77.7761 79.0783 73.3158 88.8352C67.5546 81.0297 53.6161 84.1891 51.9435 93.7602C47.1115 88.8352 37.5404 91.0654 35.589 97.6629C32.3367 96.0832 28.1552 98.2205 27.5977 101.752H107.976C108.348 97.1054 103.98 92.3663 98.9626 92.3663Z" fill="#F8D9D9"/>
<path opacity="0.77" d="M119.127 98.6845C119.22 103.424 111.6 103.424 111.693 98.6845C111.6 93.8525 119.22 93.8525 119.127 98.6845Z" fill="#F8D9D9"/>
</g>
<path d="M156.297 35.8678C157.133 14.0309 122.566 14.0309 123.309 35.7749C115.504 33.0801 106.955 39.4918 107.512 47.762C107.512 47.762 171.257 47.762 176.275 47.762C177.39 36.2395 165.217 29.7349 156.297 35.8678Z" fill="#F4F8ED"/>
<path d="M99.1487 42.2786C99.2417 49.9912 87.0687 49.9912 87.1617 42.2786C87.0687 34.566 99.3346 34.566 99.1487 42.2786Z" fill="#F4F8ED"/>
<path d="M73.0378 43.6724C73.1307 49.1549 64.5818 49.1549 64.5818 43.6724C64.4889 38.1899 73.0378 38.1899 73.0378 43.6724Z" fill="#F4F8ED"/>
<path d="M22.8594 140.964C22.4877 131.765 37.0767 131.765 36.705 140.964C39.9573 139.849 43.5813 142.544 43.3954 145.982C43.3954 145.982 16.6336 145.982 14.4964 145.982C14.0317 141.057 19.1425 138.362 22.8594 140.964Z" fill="white"/>
<path d="M46.926 143.658C46.8331 146.91 52.0368 146.91 51.9439 143.658C52.0368 140.406 46.8331 140.406 46.926 143.658Z" fill="white"/>
<path d="M57.9842 144.217C57.9842 146.54 61.5153 146.54 61.5153 144.217C61.5153 141.894 57.8913 141.894 57.9842 144.217Z" fill="white"/>
<path opacity="0.5" d="M302.279 138.363C302 131.022 293.265 124.61 287.411 134.367C289.084 119.871 274.123 116.34 268.176 125.446C263.809 105.282 232.401 105.839 228.777 126.19C220.507 112.53 203.687 118.384 201.457 132.787C197.462 126.747 189.006 130.743 188.541 138.363H302.279Z" fill="#F8D9D9"/>
<path d="M190.493 137.99C191.236 138.827 192.258 139.291 193.28 139.756C194.303 140.22 195.325 140.964 195.603 141.986C195.882 142.729 195.696 143.566 195.882 144.402C196.161 145.238 196.811 145.889 197.09 146.632C197.462 147.375 197.369 148.583 196.533 148.862C196.161 148.955 195.696 148.862 195.325 148.769C193.095 148.119 190.864 147.561 189.006 146.167C187.147 144.867 185.754 142.636 185.939 140.406L190.493 137.99Z" fill="#E78B71"/>
<path d="M186.683 142.822C186.125 142.357 185.568 141.892 185.01 141.335C175.625 131.857 169.492 119.219 167.819 106.024C169.492 103.515 171.35 101.099 173.488 98.869C174.603 97.661 175.811 96.5459 176.926 95.3379C178.877 110.577 183.152 126.188 190.957 139.476C189.563 141.056 188.541 141.614 186.683 142.822Z" fill="#E78B71"/>
<path d="M118.756 140.314C118.756 124.145 121.358 107.326 126.283 95.2461L136.411 106.025C130.185 115.782 125.26 126.933 124.424 139.849L118.756 140.314Z" fill="#E78B71"/>
<path d="M180.921 113.086V113.365C180.921 114.015 180.921 115.13 180.828 116.338C180.828 117.268 180.828 118.383 180.735 119.591C180.735 120.613 180.642 121.728 180.642 122.843C180.642 123.958 180.549 125.073 180.549 126.095C180.549 127.21 180.457 128.326 180.457 129.348C180.457 130.649 180.364 131.764 180.364 132.6C180.364 133.343 180.364 133.808 180.364 133.808H138.362C138.362 133.808 138.362 133.343 138.269 132.6C138.269 131.857 138.177 130.742 138.177 129.348C138.177 128.418 138.177 127.303 138.177 126.095C138.177 125.073 138.177 123.958 138.177 122.843C138.177 121.821 138.176 120.706 138.269 119.591C138.362 118.569 138.362 117.454 138.455 116.338C138.455 115.316 138.548 114.201 138.641 113.086C138.734 112.064 138.827 110.949 138.827 109.834C138.92 108.812 139.013 107.697 139.106 106.582C139.199 105.559 139.292 104.444 139.477 103.329C139.477 103.329 139.477 103.329 139.477 103.236C139.477 103.236 139.477 103.236 139.477 103.329C138.734 104.351 138.084 105.466 137.34 106.582C137.247 106.674 137.247 106.767 137.154 106.767L136.876 106.582L133.159 103.329L129.442 100.077L125.725 96.8246L123.773 95.152C124.052 94.5945 124.331 94.1299 124.61 93.5723C125.26 92.4573 125.911 91.3422 126.468 90.32C127.119 89.2049 127.862 88.0899 128.512 87.0677C129.256 85.9526 129.999 84.8376 130.743 83.8154C131.579 82.7003 132.415 81.5853 133.252 80.5631C134.274 79.3551 135.203 78.3329 136.225 77.3108C137.433 76.1028 138.641 74.9877 139.849 74.0585C141.522 72.7576 143.194 71.6425 144.867 70.8062C148.863 68.7619 152.858 67.9256 157.04 67.4609V68.0185H162.987C162.987 68.0185 164.567 68.7619 166.704 70.7132C167.633 71.5496 168.655 72.5717 169.77 73.9656C170.607 74.8948 171.35 76.0099 172.186 77.2179C172.837 78.24 173.487 79.2622 174.045 80.4702C174.602 81.4923 175.067 82.5145 175.532 83.7225C175.996 84.7446 176.368 85.7668 176.833 86.9748C177.204 87.9969 177.483 89.112 177.855 90.2271C178.133 91.2492 178.412 92.3643 178.691 93.4794C178.877 94.5016 179.156 95.6166 179.341 96.7317C179.527 97.7539 179.713 98.8689 179.899 99.984C180.085 101.006 180.178 102.121 180.271 103.236C180.364 104.258 180.457 105.374 180.549 106.489C180.642 107.511 180.642 108.626 180.735 109.741C180.921 110.949 180.921 111.971 180.921 113.086Z" fill="white"/>
<path d="M169.956 74.3382H140.035C141.708 73.0373 143.38 71.9222 145.053 71.0859H166.89C167.819 71.9222 168.841 73.0373 169.956 74.3382Z" fill="#00B0B0"/>
<path d="M174.231 80.8421H133.345C134.367 79.6341 135.296 78.612 136.318 77.5898H172.279C172.93 78.612 173.58 79.6341 174.231 80.8421Z" fill="#00B0B0"/>
<path d="M177.018 87.2543H128.605C129.349 86.1392 130.092 85.0241 130.836 84.002H175.717C176.182 85.0241 176.647 86.1392 177.018 87.2543Z" fill="#00B0B0"/>
<path d="M178.877 93.7582H124.703C125.354 92.6431 126.004 91.528 126.562 90.5059H177.948C178.32 91.528 178.598 92.6431 178.877 93.7582Z" fill="#00B0B0"/>
<path d="M180.085 100.17H129.535L125.818 96.918H179.528C179.714 98.033 179.9 99.0552 180.085 100.17Z" fill="#00B0B0"/>
<path d="M180.736 106.582H136.969L133.252 103.33H180.457C180.55 104.445 180.643 105.467 180.736 106.582Z" fill="#00B0B0"/>
<path d="M180.922 113.086H138.642C138.735 112.064 138.827 110.949 138.827 109.834H180.829C180.922 110.949 180.922 111.971 180.922 113.086Z" fill="#00B0B0"/>
<path d="M180.828 116.34C180.828 117.269 180.828 118.384 180.735 119.592H138.27C138.362 118.57 138.362 117.455 138.455 116.34H180.828Z" fill="#00B0B0"/>
<path d="M180.735 122.75C180.735 123.865 180.642 124.98 180.642 126.002H138.27C138.27 124.98 138.27 123.865 138.27 122.75H180.735Z" fill="#00B0B0"/>
<path d="M180.55 129.256C180.55 130.557 180.457 131.672 180.457 132.508H138.362C138.362 131.765 138.27 130.65 138.27 129.256H180.55Z" fill="#00B0B0"/>
<path d="M124.424 139.849C124.238 140.964 124.61 142.079 124.795 143.101C125.074 144.216 125.167 145.424 124.517 146.353C124.052 147.004 123.309 147.468 122.844 148.119C122.379 148.862 122.287 149.791 121.915 150.535C121.543 151.278 120.521 151.929 119.87 151.464C119.499 151.278 119.313 150.907 119.22 150.535C118.291 148.491 117.362 146.353 117.176 144.03C116.99 141.707 117.826 139.291 119.685 137.99L124.424 139.849Z" fill="#E78B71"/>
<path d="M108.999 232.771C110.95 235.373 112.53 238.161 113.738 241.227C114.203 242.342 114.388 243.922 113.273 244.386C112.437 244.851 111.415 244.108 110.672 243.457C105.84 238.904 102.123 233.236 99.9854 227.01C102.773 227.846 105.468 229.147 107.698 230.913L108.999 232.771Z" fill="#80715C"/>
<path d="M198.669 236.581C202.386 236.209 206.01 235.837 209.727 235.466C210.285 235.373 210.935 235.373 211.4 235.744C212.143 236.302 211.957 237.417 211.4 238.068C210.749 238.718 209.913 238.997 209.077 239.183C203.873 240.484 198.669 241.877 193.466 243.178C192.351 243.457 191.236 243.736 190.028 243.643C188.912 243.55 187.704 242.992 187.147 241.97C186.589 240.948 186.868 239.461 187.983 238.997L198.669 236.581Z" fill="#80715C"/>
<path d="M163.173 59.0059H156.204V68.3911H163.173V59.0059Z" fill="#E78B71"/>
<path d="M149.142 58.1697C152.301 64.0238 160.199 66.3469 165.775 63.3734C171.35 60.3998 172.465 53.1518 169.306 47.2977C166.147 41.4435 159.084 39.2134 153.602 42.1869C148.027 45.2534 145.982 52.4084 149.142 58.1697Z" fill="#E78B71"/>
<path d="M152.952 64.0232C151.929 63.7445 151.093 63.0011 150.071 62.4436C144.681 59.47 144.681 49.1556 146.075 46.4608C147.376 43.8589 150.071 41.9076 152.766 40.9783C154.253 40.4208 156.018 39.9562 157.598 39.9562C159.27 39.9562 160.478 39.8632 161.965 39.0269C163.452 38.1906 165.125 37.2614 166.797 37.6331C168.656 38.0048 169.864 39.8632 169.771 41.7217C169.678 43.5802 168.377 45.2528 166.797 46.0891C165.496 46.7396 164.102 47.0183 162.709 47.2042C160.757 47.4829 159.177 47.1112 157.877 48.9697C157.319 49.806 156.39 52.7795 157.226 53.7088C156.576 52.8725 154.903 53.3371 154.717 54.3592C154.531 55.3814 155.832 56.4036 156.761 55.9389L156.854 64.0232C155.646 64.5808 154.253 64.4879 152.952 64.0232Z" fill="#313F7A"/>
<path d="M170.979 54.1741C171.697 54.1741 172.28 53.5917 172.28 52.8732C172.28 52.1547 171.697 51.5723 170.979 51.5723C170.26 51.5723 169.678 52.1547 169.678 52.8732C169.678 53.5917 170.26 54.1741 170.979 54.1741Z" fill="#E78B71"/>
<path d="M160.571 47.3893C159.177 47.668 158.248 49.0619 158.155 50.4557C158.062 51.8496 158.527 53.2434 159.084 54.5444C158.712 55.009 157.969 55.009 157.412 54.7302C156.947 54.4514 156.575 53.801 156.389 53.2434C155.925 52.0354 155.739 50.7345 156.018 49.5265C156.389 48.3185 157.412 47.2034 158.712 47.0176L160.571 47.3893Z" fill="#313F7A"/>
<path d="M180.271 133.529L199.971 236.674L186.775 241.413L160.943 155.366L145.611 196.717C144.681 198.39 110.021 234.165 110.021 234.165L99.9854 227.66L127.583 189.748L138.084 133.529H180.271V133.529Z" fill="#404D8B"/>
<path d="M117.454 146.539C114.945 152.114 110.764 156.946 105.56 160.199C103.051 161.778 100.264 162.986 97.383 163.823C94.8741 164.566 92.2723 165.867 92.7369 169.026C94.0378 177.761 106.582 167.818 109.463 165.124C112.158 162.708 114.481 159.827 116.339 156.668C116.804 155.831 120.242 147.282 120.242 147.282C119.22 147.375 118.198 147.097 117.454 146.539Z" fill="#E78B71"/>
<path d="M117.176 147.468C116.897 146.725 116.525 145.981 116.618 145.145C116.618 144.681 116.804 144.309 116.99 143.937C117.176 143.751 117.547 143.287 117.733 143.844C117.826 144.123 117.64 144.495 117.919 144.681C118.198 144.402 118.198 143.844 118.291 143.473C118.477 143.101 118.755 142.822 119.127 142.729C119.592 142.636 120.056 142.915 120.428 143.194C120.614 143.38 120.893 143.473 120.985 143.751C121.543 144.588 120.8 146.353 120.335 147.097C119.87 147.84 119.592 148.583 118.755 148.955L117.176 147.468Z" fill="#E78B71"/>
<path d="M76.7546 207.962C73.3164 218.462 63.8383 226.732 53.0592 228.777C52.5017 227.754 51.9441 226.732 51.4795 225.71C61.794 221.714 68.949 210.564 68.3915 199.506L76.7546 207.962Z" fill="#E78B71"/>
<path d="M101.287 213.816C103.517 223.016 102.309 232.773 99.3351 241.786C98.8705 243.273 98.313 244.76 97.105 245.689C95.9899 246.711 94.1314 247.083 92.9234 246.153C98.1271 234.631 96.5474 220.414 88.9277 210.285L101.287 213.816Z" fill="#E78B71"/>
<path d="M86.469 162.77L91.8203 163.412L92.6614 156.4L87.3101 155.758L86.469 162.77Z" fill="#E78B71"/>
<path d="M88.4219 137.611C82.3625 138.372 78.0983 144.149 78.8976 150.514C79.6969 156.879 85.257 161.422 91.3165 160.661C97.3759 159.9 101.64 154.123 100.841 147.758C100.042 141.393 94.4814 136.851 88.4219 137.611Z" fill="#E78B71"/>
<path d="M101.007 150.813C101.777 150.813 102.401 150.189 102.401 149.419C102.401 148.649 101.777 148.025 101.007 148.025C100.237 148.025 99.6133 148.649 99.6133 149.419C99.6133 150.189 100.237 150.813 101.007 150.813Z" fill="#E78B71"/>
<path d="M69.1344 183.058C72.4796 175.717 76.7541 165.03 83.7233 162.429C84.3738 162.15 84.9313 162.057 85.5818 161.871L92.7368 162.707C94.7811 163.822 96.6396 165.774 97.8476 168.469C100.449 173.951 101.657 179.991 102.958 185.938C105.003 195.416 105.653 205.173 106.211 214.93C90.0421 216.324 73.5947 213.722 58.727 207.218C58.5411 207.125 58.4482 207.125 58.2624 207.032C58.1694 206.939 68.1122 185.195 69.1344 183.058Z" fill="#EA4497"/>
<path d="M98.6838 139.29C99.5201 139.755 100.264 140.312 100.449 141.242C100.914 143.286 98.5909 143.472 97.29 143.936C95.2457 144.773 93.7589 146.167 92.5509 148.025C91.1571 150.162 90.3208 152.485 89.0198 154.716C85.8605 160.198 80.1921 164.287 73.8734 164.658C67.5546 165.03 61.05 161.22 59.0057 155.273C58.4481 153.693 58.1694 151.835 58.634 150.162C59.0986 148.49 60.3995 147.003 61.9792 146.538C64.5811 145.795 67.1829 147.746 69.8777 148.025C76.4752 148.583 78.5195 140.963 83.4445 138.454C88.1835 136.038 94.2235 136.781 98.6838 139.29Z" fill="#221F1F"/>
<path d="M56.7762 181.57C61.0507 177.203 66.626 174.136 72.5731 172.835C75.5467 172.185 78.5202 171.999 81.4937 172.278C84.0956 172.464 87.0691 172.185 87.7196 168.933C89.578 160.291 74.2457 165.309 70.7147 166.795C67.3694 168.189 64.21 170.048 61.3294 172.371C60.586 172.928 54.4531 179.805 54.4531 179.805C55.3824 180.083 56.2187 180.734 56.7762 181.57Z" fill="#E78B71"/>
<path d="M97.5695 245.316C99.1492 245.688 100.636 246.06 102.216 246.524C102.773 246.71 103.517 246.896 103.609 247.547C103.702 247.918 103.517 248.383 103.145 248.569C102.866 248.847 102.494 248.94 102.03 249.033C99.7996 249.684 97.4766 249.777 95.2464 249.405C94.596 249.312 94.0384 249.219 93.4809 248.94C92.9233 248.662 92.4587 248.104 92.3658 247.547C92.2729 246.896 92.6446 246.246 93.2021 246.06L97.5695 245.316Z" fill="#E72790"/>
<path d="M53.4308 228.403C52.9662 230.169 52.5016 231.934 52.0369 233.7C51.944 234.072 51.7582 234.536 51.3865 234.815C50.9219 235.094 50.3643 234.815 49.9926 234.443C49.6209 234.072 49.528 233.514 49.4351 232.957C49.2492 232.213 49.1563 231.377 48.9705 230.634C48.7846 229.797 48.5988 229.054 48.6917 228.218C48.6917 227.381 49.0634 226.545 49.6209 225.987C50.2714 225.43 51.2006 225.244 51.8511 225.709L53.4308 228.403Z" fill="#E72790"/>
<path d="M57.1479 181.014C57.2408 181.85 57.3337 182.593 57.055 183.43C56.7762 184.173 56.1258 184.823 55.2894 184.823C54.9178 185.102 54.7319 185.567 54.4531 185.846C54.1744 186.124 53.6168 186.31 53.2451 186.031C53.0593 185.846 53.0593 185.567 53.0593 185.288C52.9664 184.08 52.9664 182.779 53.431 181.664C53.8027 180.549 54.7319 179.434 55.9399 179.248L57.1479 181.014Z" fill="#E78B71"/>
<path d="M231.935 72.48C251.95 72.48 268.175 56.2548 268.175 36.24C268.175 16.2252 251.95 0 231.935 0C211.921 0 195.695 16.2252 195.695 36.24C195.695 56.2548 211.921 72.48 231.935 72.48Z" fill="#E84C88"/>
<path d="M231.935 3.81055C214.094 3.81055 199.505 18.3065 199.505 36.2407C199.505 54.1749 214.001 68.6709 231.935 68.6709C249.869 68.6709 264.365 54.0819 264.365 36.2407C264.365 18.3995 249.869 3.81055 231.935 3.81055Z" fill="white"/>
<path d="M231.935 72.48C251.95 72.48 268.175 56.2548 268.175 36.24C268.175 16.2252 251.95 0 231.935 0C211.921 0 195.695 16.2252 195.695 36.24C195.695 56.2548 211.921 72.48 231.935 72.48Z" fill="#E84C88"/>
<path d="M232.121 67.0896C249.159 67.0896 262.971 53.2774 262.971 36.2391C262.971 19.2009 249.159 5.38867 232.121 5.38867C215.083 5.38867 201.271 19.2009 201.271 36.2391C201.271 53.2774 215.083 67.0896 232.121 67.0896Z" fill="#EE5791"/>
<path d="M231.749 57.6121C243.604 57.6121 253.215 48.0018 253.215 36.1469C253.215 24.292 243.604 14.6816 231.749 14.6816C219.894 14.6816 210.284 24.292 210.284 36.1469C210.284 48.0018 219.894 57.6121 231.749 57.6121Z" fill="#5EC5C5"/>
<path d="M206.474 40.7006V35.1252H206.381L204.523 39.3067C204.151 40.143 203.872 40.4218 203.315 40.4218C202.757 40.4218 202.386 40.143 202.014 39.3067L200.155 35.1252H200.062V40.7006C200.062 41.6298 199.598 42.0944 198.854 42.0944C198.111 42.0944 197.646 41.6298 197.646 40.7006V32.5234C197.646 31.4083 198.297 30.7578 199.226 30.7578C200.062 30.7578 200.527 31.1295 200.992 32.1517L203.222 37.1695H203.315L205.545 32.1517C206.01 31.1295 206.474 30.7578 207.403 30.7578C208.426 30.7578 208.983 31.4083 208.983 32.5234V40.7006C208.983 41.6298 208.518 42.0944 207.775 42.0944C206.939 42.1874 206.474 41.6298 206.474 40.7006Z" fill="white"/>
<path d="M210.377 41.0711C210.377 40.7924 210.47 40.5136 210.656 39.9561L213.165 32.7081C213.629 31.4071 214.28 30.8496 215.395 30.8496C216.603 30.8496 217.16 31.4071 217.625 32.7081L220.041 39.9561C220.227 40.4207 220.227 40.6995 220.227 41.0711C220.227 41.8145 219.762 42.2791 218.926 42.2791C218.183 42.2791 217.811 41.9075 217.532 40.9782L217.067 39.6773H213.351L212.886 40.9782C212.607 41.9075 212.235 42.2791 211.492 42.2791C210.842 42.1862 210.377 41.7216 210.377 41.0711ZM216.603 37.5401L215.395 33.2656H215.302L214.001 37.5401H216.603Z" fill="white"/>
<path d="M230.727 40.7006V35.1252H230.634L228.776 39.3067C228.404 40.143 228.125 40.4218 227.568 40.4218C227.01 40.4218 226.639 40.143 226.267 39.3067L224.408 35.1252H224.315V40.7006C224.315 41.6298 223.851 42.0944 223.107 42.0944C222.364 42.0944 221.899 41.6298 221.899 40.7006V32.5234C221.899 31.4083 222.55 30.7578 223.479 30.7578C224.315 30.7578 224.78 31.1295 225.245 32.1517L227.475 37.1695H227.568L229.798 32.1517C230.262 31.1295 230.727 30.7578 231.656 30.7578C232.678 30.7578 233.236 31.4083 233.236 32.5234V40.7006C233.236 41.6298 232.771 42.0944 232.028 42.0944C231.099 42.1874 230.727 41.6298 230.727 40.7006Z" fill="white"/>
<path d="M234.537 41.0711C234.537 40.7924 234.63 40.5136 234.816 39.9561L237.325 32.7081C237.789 31.4071 238.44 30.8496 239.555 30.8496C240.763 30.8496 241.321 31.4071 241.785 32.7081L244.201 39.9561C244.387 40.4207 244.387 40.6995 244.387 41.0711C244.387 41.8145 243.922 42.2791 243.086 42.2791C242.343 42.2791 241.971 41.9075 241.692 40.9782L241.228 39.6773H237.511L237.046 40.9782C236.767 41.9075 236.396 42.2791 235.652 42.2791C235.002 42.1862 234.537 41.7216 234.537 41.0711ZM240.763 37.5401L239.555 33.2656H239.462L238.161 37.5401H240.763Z" fill="white"/>
<path d="M245.873 32.4293C245.873 31.4072 246.431 30.8496 247.453 30.8496H250.24C253.493 30.8496 255.258 32.801 255.258 36.425C255.258 40.049 253.493 42.0004 250.24 42.0004H247.453C246.431 42.0004 245.873 41.4428 245.873 40.4207V32.4293ZM249.869 39.9561C251.727 39.9561 252.563 38.9339 252.563 36.5179C252.563 34.1948 251.727 33.0798 249.869 33.0798H248.568V39.9561H249.869Z" fill="white"/>
<path d="M256.56 35.8678C256.56 32.6154 258.418 30.6641 261.484 30.6641C264.551 30.6641 266.409 32.6154 266.409 35.8678V37.1687C266.409 40.3281 264.551 42.2794 261.484 42.2794C258.325 42.2794 256.56 40.3281 256.56 37.1687V35.8678ZM259.254 37.1687C259.254 39.0271 260.091 40.0493 261.484 40.0493C262.878 40.0493 263.715 38.9342 263.715 37.1687V35.7748C263.715 33.9164 262.878 32.8013 261.484 32.8013C260.091 32.8013 259.254 33.9164 259.254 35.7748V37.1687Z" fill="white"/>
<path fill-rule="evenodd" clip-rule="evenodd" d="M254.516 19.6063C254.516 19.7921 254.33 19.885 254.237 19.978C253.494 20.2567 253.029 20.8143 252.565 21.4647C252.379 21.8364 252.1 21.8364 251.821 21.4647C251.45 20.8143 250.985 20.2567 250.334 19.885C249.963 19.6992 249.963 19.3275 250.334 19.1417C251.078 18.77 251.635 18.3054 252.007 17.562C252.193 17.1903 252.472 17.1903 252.658 17.562C253.029 18.3054 253.494 18.8629 254.237 19.2346C254.516 19.4204 254.609 19.5134 254.516 19.6063Z" fill="#F6CD19"/>
<path fill-rule="evenodd" clip-rule="evenodd" d="M249.963 15.9828C249.963 16.1687 249.87 16.1687 249.777 16.2616C249.405 16.4474 249.126 16.7262 248.941 17.005C248.755 17.2838 248.662 17.2838 248.476 17.005C248.29 16.6333 248.104 16.4474 247.733 16.2616C247.454 16.0758 247.454 15.8899 247.733 15.797C248.104 15.6111 248.383 15.3324 248.569 15.0536C248.662 14.8678 248.848 14.7748 248.941 14.9607C249.219 15.3324 249.498 15.7041 249.87 15.9828H249.963Z" fill="#F6CD19"/>
<defs>
<linearGradient id="paint0_linear" x1="142.19" y1="268.17" x2="142.19" y2="-0.019614" gradientUnits="userSpaceOnUse">
<stop stop-color="#F9F6C3"/>
<stop offset="0.3545" stop-color="#F9F2C7"/>
<stop offset="0.7287" stop-color="#FAE7D4"/>
<stop offset="1" stop-color="#FBDBE2"/>
</linearGradient>
</defs>
</svg>
