<svg width="302" height="270" viewBox="0 0 302 270" fill="none" xmlns="http://www.w3.org/2000/svg">
<path d="M141.796 267.397C215.635 267.397 275.494 207.538 275.494 133.698C275.494 59.8587 215.635 0 141.796 0C67.9564 0 8.09766 59.8587 8.09766 133.698C8.09766 207.538 67.9564 267.397 141.796 267.397Z" fill="url(#paint0_linear)"/>
<g opacity="0.41">
<path opacity="0.41" d="M264.386 224.399V201.414H253.138V207.056H249.469V179.725H236.814V178.613L228.022 166.662L219.878 178.613V181.662H207.667V164.568H192.436V170.368H186.961V163.077H171.711V155.016H157.685V164.439H136.376V146.298H122.831V160.492H120.811V139.674H108.563V161.492H103.987L98.4278 152.885L92.7485 161.548H86.6246V153.969H71.1526V165.078H54.8746V182.532H49.7512V177.066H35.2335V192.946H30.1287V183.422H19.4095V197.18H8.5791V224.399H264.386Z" fill="#4FC2BD"/>
</g>
<path d="M250.72 223.436H20.7806C9.30173 223.436 0 230.208 0 238.556C0 246.903 9.30173 253.676 20.7806 253.676H250.72C262.199 253.676 271.501 246.903 271.501 238.556C271.51 230.208 262.199 223.436 250.72 223.436Z" fill="#6AC8C8"/>
<path d="M166.588 250.803H55.2822C48.0002 250.803 42.0986 255.102 42.0986 260.402C42.0986 265.701 48.0002 270 55.2822 270H166.588C173.87 270 179.771 265.701 179.771 260.402C179.771 255.102 173.87 250.803 166.588 250.803Z" fill="#30BDBF"/>
<path d="M262.171 223.436H10.7933C7.95831 223.436 5.66992 225.103 5.66992 227.169C5.66992 229.226 7.96757 230.903 10.7933 230.903H262.181C265.016 230.903 267.304 229.235 267.304 227.169C267.304 225.103 265.006 223.436 262.171 223.436Z" fill="#30BDBF"/>
<path d="M196.457 233.96H39.1619C36.3269 233.96 34.0293 235.628 34.0293 237.694C34.0293 239.751 36.3269 241.428 39.1619 241.428H196.457C199.292 241.428 201.581 239.76 201.581 237.694C201.581 235.628 199.283 233.96 196.457 233.96Z" fill="#30BDBF"/>
<path d="M231.422 233.96H221.24C218.405 233.96 216.117 235.628 216.117 237.694C216.117 239.751 218.414 241.428 221.24 241.428H231.422C234.257 241.428 236.545 239.76 236.545 237.694C236.555 235.628 234.257 233.96 231.422 233.96Z" fill="#A5DCDF"/>
<path d="M46.8054 250.822H21.2627C19.0948 250.822 17.3438 252.101 17.3438 253.675C17.3438 255.25 19.0948 256.529 21.2627 256.529H46.8054C48.9733 256.529 50.7243 255.25 50.7243 253.675C50.7243 252.101 48.964 250.822 46.8054 250.822Z" fill="#A5DCDF"/>
<path d="M106.572 253.676H102.217C100.049 253.676 98.2983 254.954 98.2983 256.529C98.2983 258.104 100.049 259.383 102.217 259.383H106.572C108.74 259.383 110.491 258.104 110.491 256.529C110.5 254.945 108.74 253.676 106.572 253.676Z" fill="#A5DCDF"/>
<path d="M179.262 243.846C179.262 242.502 180.754 241.418 182.597 241.418H112.121C113.965 241.418 115.456 242.502 115.456 243.846C115.456 245.189 113.965 246.273 112.121 246.273H182.597C180.754 246.273 179.262 245.189 179.262 243.846Z" fill="#7BCDCF"/>
<path d="M121.006 241.418H14.2396C12.3959 241.418 10.9043 242.502 10.9043 243.846C10.9043 245.189 12.3959 246.273 14.2396 246.273H121.006C122.849 246.273 124.341 245.189 124.341 243.846C124.341 242.502 122.84 241.418 121.006 241.418Z" fill="#7BCDCF"/>
<path d="M205.944 250.868H171.804C168.802 250.868 166.375 252.638 166.375 254.815C166.375 256.992 168.802 258.762 171.804 258.762H205.944C208.946 258.762 211.373 256.992 211.373 254.815C211.373 252.638 208.946 250.868 205.944 250.868Z" fill="#6AC8C8"/>
<path d="M116.336 246.635H56.7088C54.8652 246.635 53.3735 247.718 53.3735 249.062C53.3735 250.405 54.8652 251.489 56.7088 251.489H116.336C118.18 251.489 119.671 250.405 119.671 249.062C119.671 247.728 118.18 246.635 116.336 246.635Z" fill="#A5DCDF"/>
<path d="M164.893 241.706H139.35C137.182 241.706 135.431 242.984 135.431 244.559C135.431 246.134 137.182 247.413 139.35 247.413H164.893C167.061 247.413 168.812 246.134 168.812 244.559C168.812 242.984 167.061 241.706 164.893 241.706Z" fill="#A5DCDF"/>
<g opacity="0.77">
<path opacity="0.77" d="M98.715 92.0998C96.7694 92.0998 94.9628 92.7205 93.4897 93.7674C94.5367 82.9278 77.5267 78.8791 73.0982 88.5607C67.3171 80.7784 53.4571 83.9469 51.7802 93.4432C46.9256 88.4959 37.42 90.8028 35.4374 97.3251C32.1948 95.713 28.0071 97.918 27.5068 101.392H107.628C108.017 96.8155 103.662 92.0998 98.715 92.0998Z" fill="#FBF4BF"/>
<path opacity="0.77" d="M118.773 98.3814C118.847 103.125 111.25 103.125 111.324 98.3814C111.259 93.6379 118.847 93.6379 118.773 98.3814Z" fill="#FBF4BF"/>
</g>
<path d="M131.558 30.1378C132.16 13.9432 106.534 13.9062 107.099 30.0915C101.327 28.0626 94.9349 32.8246 95.361 38.9578C95.361 38.9578 142.639 38.9578 146.391 38.9578C147.197 30.3787 138.164 25.6074 131.558 30.1378Z" fill="#F4F8ED"/>
<path d="M89.1722 34.8907C89.2555 40.6441 80.2132 40.6441 80.3059 34.8907C80.2225 29.1373 89.2555 29.1373 89.1722 34.8907Z" fill="#F4F8ED"/>
<path d="M69.7532 35.9191C69.8088 39.9677 63.4439 39.9677 63.5088 35.9191C63.4439 31.8704 69.8088 31.8704 69.7532 35.9191Z" fill="#F4F8ED"/>
<path d="M22.8558 140.554C22.5131 131.401 37.003 131.382 36.688 140.526C39.9491 139.378 43.5624 142.074 43.3215 145.539C43.3215 145.539 16.6022 145.539 14.4806 145.539C14.0174 140.684 19.1222 137.988 22.8558 140.554Z" fill="white"/>
<path d="M46.8143 143.241C46.768 146.493 51.8728 146.493 51.8265 143.241C51.8728 139.989 46.768 139.989 46.8143 143.241Z" fill="white"/>
<path d="M57.7928 143.815C57.7557 146.104 61.3597 146.104 61.3226 143.815C61.3597 141.527 57.7557 141.527 57.7928 143.815Z" fill="white"/>
<path opacity="0.5" d="M301.407 137.932C301.092 130.585 292.402 124.248 286.621 133.93C288.261 119.496 273.391 116.003 267.434 125.036C263.033 104.941 231.737 105.524 228.105 125.796C219.85 112.195 203.063 117.995 200.858 132.392C196.846 126.398 188.471 130.317 188.008 137.932H301.407Z" fill="#FBF4BF"/>
<path d="M155.803 154.182H160.362L161.881 146.687H154.164L155.803 154.182Z" fill="#FFE86B"/>
<path d="M153.459 145.279C153.459 147.567 155.488 148.762 157.99 148.762C160.491 148.762 162.52 147.558 162.52 145.279C162.52 142.991 160.491 141.138 157.99 141.138C155.488 141.147 153.459 142.991 153.459 145.279Z" fill="#EA4497"/>
<path d="M145.557 129.362C146.131 129.01 146.566 128.362 146.863 127.815C147.169 127.241 147.456 126.62 147.41 125.972C147.373 125.323 146.9 124.656 146.251 124.619C146.048 124.61 145.835 124.665 145.714 124.832C145.547 125.073 145.677 125.416 145.872 125.629C146.066 125.851 145.686 125.814 145.807 126.083C144.797 126.148 144.5 127.083 144.195 128.047C143.972 128.732 143.991 129.807 145.029 129.576C145.214 129.538 145.39 129.464 145.557 129.362Z" fill="#FAC4B9"/>
<path d="M141.851 126.676C141.165 125.184 141.471 123.294 142.592 122.099C142.777 121.904 142.981 121.728 143.24 121.654C143.5 121.589 143.805 121.673 143.935 121.904C144.037 122.099 144 122.34 143.926 122.544C143.75 123.072 143.398 123.544 142.953 123.868C143.435 124.304 143.889 124.804 144.148 125.397C144.408 125.99 144.472 126.703 144.204 127.296C143.935 127.889 143.296 128.334 142.647 128.269L141.851 126.676Z" fill="#FAC4B9"/>
<path d="M115.27 104.311C116.966 108.156 115.659 112.445 112.361 113.9C109.063 115.354 105.014 113.409 103.328 109.573C101.633 105.728 102.939 101.439 106.237 99.9842C109.526 98.5297 113.575 100.466 115.27 104.311Z" fill="#FAC4B9"/>
<path d="M104.357 103.634C104.496 104.413 108.026 104.542 108.591 104.598C110.268 104.746 111.972 104.728 113.612 104.329C114.798 104.042 115.975 103.523 116.734 102.569C117.494 101.615 117.698 100.151 116.957 99.1873C116.188 98.1868 114.724 98.0293 113.482 98.2238C111.129 98.5852 108.748 98.7056 106.423 99.2059C104.375 99.6506 102.115 100.457 101.142 102.513C100.586 103.69 100.651 105.07 100.938 106.34C101.16 107.322 101.355 107.785 101.763 108.702C102.235 109.74 104.598 111.639 104.598 111.639C104.598 111.639 105.042 108.665 104.848 106.933C104.718 105.821 104.551 104.718 104.357 103.634Z" fill="#02546E"/>
<path d="M124.276 131.595C123.97 127.343 123.164 123.174 119.949 120.144C114.455 114.947 106.682 115.91 100.345 118.56C96.4726 120.172 92.9705 122.692 90.2097 125.851C87.4395 129.01 84.6138 132.901 83.326 136.959C81.1303 143.88 80.8894 151.282 82.9925 158.268C84.2525 157.842 85.5218 157.425 86.7725 156.971C85.0493 149.3 90.6822 140.146 94.4621 136.394C93.9063 136.941 91.201 152.153 92.6648 159.973C103.199 159.871 116.401 160.075 126.926 159.973C126.611 159.973 126.351 156.813 126.323 156.573C125.582 150.514 125.1 144.417 124.619 138.33C124.461 136.153 124.443 133.865 124.276 131.595Z" fill="white"/>
<path d="M103.699 107.47C103.699 108.035 104.162 108.498 104.728 108.498C105.293 108.498 105.756 108.035 105.756 107.47C105.756 106.905 105.293 106.442 104.728 106.442C104.162 106.432 103.699 106.895 103.699 107.47Z" fill="#FAC4B9"/>
<path d="M115.586 117.346C118.365 118.087 120.755 119.922 122.673 122.071C124.591 124.221 126.092 126.704 127.657 129.112C128.797 130.863 130.113 132.698 132.086 133.355C134.272 134.078 136.737 133.115 138.404 131.53C139.868 130.141 140.841 128.334 141.74 126.509L145.816 129.205C145.761 130.317 145.344 131.438 144.862 132.466C143.574 135.218 141.842 137.821 139.424 139.656C137.005 141.499 133.856 142.5 130.882 141.898C126.935 141.101 124.081 137.775 121.469 134.717C118.856 131.66 115.78 128.454 111.778 128.038L115.586 117.346Z" fill="white"/>
<path d="M148.392 116.401C148.485 116.651 144.751 131.827 144.751 131.827L141.49 117.077L148.392 116.401Z" fill="#FFE86B"/>
<path d="M140.054 114.057C140.054 116.364 142.138 118.236 144.705 118.236C147.271 118.236 149.355 116.364 149.355 114.057C149.355 111.75 147.271 109.879 144.705 109.879C142.138 109.879 140.054 111.75 140.054 114.057Z" fill="#0DB9B3"/>
<path d="M140.758 109.499C140.758 111.454 142.527 113.047 144.714 113.047C146.9 113.047 148.67 111.463 148.67 109.499C148.67 107.535 146.9 105.95 144.714 105.95C142.527 105.95 140.758 107.544 140.758 109.499Z" fill="#EA4497"/>
<path d="M141.527 107.961C141.666 108.332 142.185 108.406 142.583 108.332C142.982 108.239 143.426 108.1 143.769 108.285C144.186 108.498 144.353 109.101 144.797 109.175C145.075 109.221 145.363 109.036 145.548 108.823C145.733 108.591 145.854 108.332 146.057 108.119C146.27 107.933 146.595 107.794 146.854 107.933C146.975 108.007 147.067 108.119 147.206 108.193C147.512 108.406 147.975 108.165 148.114 107.822C148.327 107.276 147.892 106.849 147.623 106.442C147.234 105.849 147.484 105.432 147.373 104.783C147.141 103.514 145.993 102.569 144.705 102.569C143.232 102.569 142.018 103.783 142.018 105.284C142.018 105.552 142.111 105.784 142.138 106.043C142.203 106.608 141.907 106.822 141.666 107.266C141.546 107.47 141.453 107.72 141.527 107.961Z" fill="#864E9B"/>
<path d="M142.592 122.09C142.777 121.895 142.981 121.71 143.241 121.645C143.5 121.58 143.806 121.663 143.936 121.895C144.037 122.089 144 122.33 143.926 122.534C143.75 123.062 143.407 123.526 142.963 123.85C143.444 124.202 143.732 124.906 143.63 125.499C143.528 126.083 143.018 126.601 142.425 126.611C141.425 126.62 141.443 125.267 141.508 124.563C141.592 123.655 141.962 122.766 142.592 122.09Z" fill="#FAC4B9"/>
<path d="M147.141 126.481C147.743 125.916 148.067 125.064 147.984 124.239C147.9 123.415 147.409 122.646 146.696 122.219C146.52 122.118 146.325 122.034 146.131 122.043C145.927 122.053 145.723 122.192 145.695 122.386C145.668 122.534 145.742 122.673 145.816 122.803C146.094 123.285 146.446 123.72 146.863 124.091C146.696 123.989 146.529 123.887 146.335 123.859C146.14 123.831 145.927 123.887 145.825 124.045C145.649 124.304 145.853 124.647 146.066 124.878C146.307 125.129 146.566 125.36 146.761 125.647C146.955 125.935 147.076 126.296 146.965 126.629C147.113 126.565 147.224 126.426 147.252 126.268" fill="#FAC4B9"/>
<path d="M145.89 124.962C145.797 124.952 145.696 124.952 145.621 125.008C145.52 125.082 145.501 125.23 145.52 125.36C145.557 125.638 145.686 125.907 145.853 126.138C146.02 126.37 146.233 126.564 146.437 126.759C146.631 126.49 146.946 125.888 146.817 125.545C146.696 125.221 146.196 124.999 145.89 124.962Z" fill="#FAC4B9"/>
<path d="M165.717 154.182H170.275L171.785 146.687H164.077L165.717 154.182Z" fill="#FFE86B"/>
<path d="M154.358 141.305C154.358 143.019 155.979 144.417 157.99 144.417C160 144.417 161.621 143.028 161.621 141.305C161.621 139.591 159.991 138.192 157.99 138.192C155.979 138.192 154.358 139.591 154.358 141.305Z" fill="#0DB9B3"/>
<path d="M144.658 154.182H149.217L150.727 146.687H143.019L144.658 154.182Z" fill="#FFE86B"/>
<path d="M142.314 145.279C142.314 147.567 144.343 148.762 146.844 148.762C149.346 148.762 151.375 147.558 151.375 145.279C151.375 142.991 149.346 141.138 146.844 141.138C144.343 141.138 142.314 142.991 142.314 145.279Z" fill="#9ACF8B"/>
<path d="M146.845 144.417C148.85 144.417 150.476 143.024 150.476 141.305C150.476 139.585 148.85 138.192 146.845 138.192C144.839 138.192 143.213 139.585 143.213 141.305C143.213 143.024 144.839 144.417 146.845 144.417Z" fill="#864E9B"/>
<path d="M163.614 144.964C163.614 147.104 165.55 147.947 167.931 147.947C170.321 147.947 172.248 147.104 172.248 144.964C172.248 142.824 170.312 141.082 167.931 141.082C165.541 141.091 163.614 142.824 163.614 144.964Z" fill="#EA4497"/>
<path d="M164.448 143.278C164.605 143.685 165.161 143.76 165.597 143.685C166.032 143.584 166.514 143.426 166.903 143.63C167.366 143.861 167.542 144.529 168.024 144.603C168.33 144.658 168.635 144.445 168.839 144.223C169.043 143.963 169.173 143.685 169.404 143.454C169.636 143.25 169.988 143.093 170.275 143.25C170.405 143.324 170.507 143.454 170.655 143.528C170.989 143.76 171.498 143.5 171.656 143.12C171.897 142.527 171.415 142.064 171.118 141.61C170.692 140.962 170.97 140.508 170.84 139.804C170.581 138.414 169.34 137.376 167.931 137.376C166.319 137.376 164.994 138.701 164.994 140.341C164.994 140.637 165.096 140.888 165.124 141.175C165.198 141.795 164.874 142.027 164.605 142.518C164.476 142.74 164.374 143.028 164.448 143.278Z" fill="#864E9B"/>
<path d="M81.998 224.912H177.554V157.141H81.998L81.998 224.912Z" fill="#EA4497"/>
<path d="M93.7217 207.714V174.787C96.9643 174.787 99.5955 172.156 99.5955 168.913C99.5955 168.756 99.5584 168.607 99.5492 168.45H161.076C161.067 168.607 161.029 168.756 161.029 168.913C161.029 172.156 163.661 174.787 166.903 174.787V207.714C163.661 207.714 161.029 210.345 161.029 213.587H99.5955C99.5955 210.345 96.9643 207.714 93.7217 207.714Z" fill="#0DB9B3"/>
<path d="M157.824 209.529H102.81L102.551 209.038C101.615 207.222 100.096 205.703 98.2796 204.767L97.7886 204.517V178.011L98.2796 177.761C100.244 176.742 101.837 175.074 102.754 173.064L102.995 172.536H157.62L157.861 173.064C158.787 175.074 160.371 176.742 162.335 177.761L162.826 178.011V204.517L162.335 204.767C160.52 205.703 159 207.223 158.064 209.048L157.824 209.529ZM103.903 207.704H156.73C157.759 205.935 159.26 204.443 161.02 203.415V179.095C159.093 177.974 157.509 176.316 156.471 174.342H104.144C103.116 176.316 101.522 177.974 99.5952 179.095V203.415C101.383 204.443 102.875 205.944 103.903 207.704Z" fill="white"/>
<path d="M175.198 157.139H177.551V78.9086H175.198V157.139Z" fill="#443127"/>
<path d="M82.5403 157.139H84.8936L84.8936 78.9086H82.5403L82.5403 157.139Z" fill="#443127"/>
<path d="M177.557 53.2253H168.932V83.4096H177.557V53.2253Z" fill="#EE60A2"/>
<path d="M177.557 83.4097V89.3391C177.557 91.7201 175.621 93.6564 173.24 93.6564C170.859 93.6564 168.922 91.7294 168.922 89.3391V83.4097H177.557Z" fill="#EA4497"/>
<path d="M168.858 83.4097V89.3391C168.858 91.7201 166.931 93.6564 164.54 93.6564C162.159 93.6564 160.223 91.7294 160.223 89.3391V83.4097H168.858Z" fill="#E5E5E5"/>
<path d="M168.858 53.2253H160.232V83.4096H168.858V53.2253Z" fill="white"/>
<path d="M160.167 53.2253H151.542V83.4096H160.167V53.2253Z" fill="#EE60A2"/>
<path d="M160.167 83.4097V89.3391C160.167 91.7201 158.24 93.6564 155.85 93.6564C153.46 93.6564 151.533 91.7294 151.533 89.3391V83.4097H160.167Z" fill="#EA4497"/>
<path d="M151.477 53.2253H142.852V83.4096H151.477V53.2253Z" fill="white"/>
<path d="M151.477 83.4097V89.3391C151.477 91.7201 149.55 93.6564 147.16 93.6564C144.779 93.6564 142.842 91.7294 142.842 89.3391V83.4097H151.477Z" fill="#E5E5E5"/>
<path d="M142.778 53.2253H134.152V83.4096H142.778V53.2253Z" fill="#EE60A2"/>
<path d="M142.787 83.4097V89.3391C142.787 91.7201 140.86 93.6564 138.47 93.6564C136.089 93.6564 134.152 91.7294 134.152 89.3391V83.4097H142.787Z" fill="#EA4497"/>
<path d="M134.087 53.2253H125.462V83.4096H134.087V53.2253Z" fill="white"/>
<path d="M134.087 83.4097V89.3391C134.087 91.7201 132.16 93.6564 129.77 93.6564C127.389 93.6564 125.453 91.7294 125.453 89.3391V83.4097H134.087Z" fill="#E5E5E5"/>
<path d="M125.397 53.2253H116.771V83.4096H125.397V53.2253Z" fill="#EE60A2"/>
<path d="M125.397 83.4097V89.3391C125.397 91.7201 123.47 93.6564 121.08 93.6564C118.699 93.6564 116.763 91.7294 116.763 89.3391V83.4097H125.397Z" fill="#EA4497"/>
<path d="M116.707 83.4097V89.3391C116.707 91.7201 114.771 93.6564 112.39 93.6564C110.009 93.6564 108.072 91.7294 108.072 89.3391V83.4097H116.707Z" fill="#E5E5E5"/>
<path d="M116.707 53.2253H108.082V83.4096H116.707V53.2253Z" fill="white"/>
<path d="M108.007 53.2253H99.3818V83.4096H108.007V53.2253Z" fill="#EE60A2"/>
<path d="M108.017 83.4097V89.3391C108.017 91.7201 106.089 93.6564 103.699 93.6564C101.318 93.6564 99.3818 91.7294 99.3818 89.3391V83.4097H108.017Z" fill="#EA4497"/>
<path d="M99.3173 83.4097V89.3391C99.3173 91.7201 97.3902 93.6564 95 93.6564C92.6189 93.6564 90.6826 91.7294 90.6826 89.3391V83.4097H99.3173Z" fill="#E5E5E5"/>
<path d="M99.3168 53.2253H90.6914V83.4096H99.3168V53.2253Z" fill="white"/>
<path d="M90.6269 53.2253H82.0015V83.4096H90.6269V53.2253Z" fill="#EE60A2"/>
<path d="M90.6269 83.4097V89.3391C90.6269 91.7201 88.6998 93.6564 86.3095 93.6564C83.9285 93.6564 82.0015 91.7294 82.0015 89.3391V83.4097H90.6269Z" fill="#EA4497"/>
<path d="M76.0032 159.107H183.547V154.187H76.0032V159.107Z" fill="#443127"/>
<path d="M106.697 117.779H111.765V112.303H106.697V117.779Z" fill="#FAC4B9"/>
<path d="M159.241 250.924C147.151 250.924 137.312 241.085 137.312 229.004C137.312 216.914 147.151 207.074 159.241 207.074C171.331 207.074 181.161 216.914 181.161 229.004C181.161 241.085 171.331 250.924 159.241 250.924ZM159.241 211.29C149.476 211.29 141.527 219.239 141.527 229.004C141.527 238.769 149.476 246.718 159.241 246.718C169.006 246.718 176.955 238.769 176.955 229.004C176.946 219.23 169.006 211.29 159.241 211.29Z" fill="white"/>
<path d="M173.144 231.257C174.389 223.585 169.179 216.356 161.507 215.111C153.835 213.866 146.606 219.076 145.361 226.748C144.116 234.42 149.326 241.649 156.998 242.894C164.67 244.139 171.899 238.929 173.144 231.257Z" fill="#EFF0F3"/>
<path d="M159.241 240.603C152.839 240.603 147.632 235.397 147.632 228.995C147.632 222.593 152.839 217.386 159.241 217.386C165.643 217.386 170.85 222.593 170.85 228.995C170.85 235.397 165.643 240.603 159.241 240.603Z" fill="#EE60A2"/>
<path d="M168.394 228.995C168.394 234.053 164.299 238.148 159.241 238.148C154.182 238.148 150.087 234.053 150.087 228.995C150.087 223.936 154.182 219.841 159.241 219.841C164.29 219.841 168.394 223.936 168.394 228.995Z" fill="#F393BD"/>
<path d="M165.643 228.995C165.643 232.534 162.78 235.397 159.241 235.397C155.702 235.397 152.839 232.534 152.839 228.995C152.839 225.456 155.702 222.593 159.241 222.593C162.78 222.593 165.643 225.456 165.643 228.995Z" fill="#EE60A2"/>
<path d="M163.327 228.995C163.327 231.255 161.492 233.09 159.232 233.09C156.971 233.09 155.137 231.255 155.137 228.995C155.137 226.734 156.971 224.9 159.232 224.9C161.502 224.9 163.327 226.734 163.327 228.995Z" fill="white"/>
<path d="M93.5918 250.924C86.5322 250.924 80.7881 245.18 80.7881 238.12C80.7881 231.061 86.5322 225.316 93.5918 225.316C100.652 225.316 106.396 231.061 106.396 238.12C106.405 245.171 100.661 250.924 93.5918 250.924ZM93.5918 227.772C87.8848 227.772 83.2432 232.413 83.2432 238.12C83.2432 243.827 87.8848 248.469 93.5918 248.469C99.2989 248.469 103.94 243.827 103.94 238.12C103.94 232.404 99.2989 227.772 93.5918 227.772Z" fill="white"/>
<path d="M93.5918 246.338C98.1354 246.338 101.819 242.654 101.819 238.111C101.819 233.567 98.1354 229.884 93.5918 229.884C89.0481 229.884 85.3647 233.567 85.3647 238.111C85.3647 242.654 89.0481 246.338 93.5918 246.338Z" fill="#EFF0F3"/>
<path d="M93.5918 244.893C97.3372 244.893 100.374 241.857 100.374 238.111C100.374 234.366 97.3372 231.329 93.5918 231.329C89.8463 231.329 86.8101 234.366 86.8101 238.111C86.8101 241.857 89.8463 244.893 93.5918 244.893Z" fill="#EE60A2"/>
<path d="M98.9468 238.111C98.9468 241.066 96.5565 243.457 93.6011 243.457C90.6456 243.457 88.2554 241.066 88.2554 238.111C88.2554 235.156 90.6456 232.765 93.6011 232.765C96.5472 232.765 98.9468 235.156 98.9468 238.111Z" fill="#F393BD"/>
<path d="M97.3345 238.111C97.3345 240.177 95.6576 241.854 93.5915 241.854C91.5255 241.854 89.8486 240.177 89.8486 238.111C89.8486 236.045 91.5255 234.368 93.5915 234.368C95.6576 234.377 97.3345 236.045 97.3345 238.111Z" fill="#EE60A2"/>
<path d="M95.9822 238.111C95.9822 239.436 94.9075 240.501 93.5919 240.501C92.2671 240.501 91.2017 239.427 91.2017 238.111C91.2017 236.786 92.2763 235.721 93.5919 235.721C94.9168 235.721 95.9822 236.795 95.9822 238.111Z" fill="white"/>
<path d="M267.23 58.3858V54.5225C267.23 54.0778 267.202 53.6516 267.137 53.244C266.795 50.8629 265.294 49.1212 263.135 48.5746C262.959 48.5283 262.774 48.4912 262.598 48.4541C262.551 48.2689 262.486 48.0928 262.431 47.9168C262.32 47.5277 262.199 47.1385 262.079 46.7587C261.977 46.453 261.875 46.1565 261.764 45.8508C261.69 45.647 261.625 45.4338 261.551 45.2207C261.523 45.1466 261.504 45.0818 261.477 45.0077L261.338 44.6927C261.31 44.6278 261.282 44.5722 261.264 44.5074C261.18 44.3128 261.097 44.1183 261.013 43.9237C260.911 43.6921 260.819 43.4512 260.717 43.2196L260.569 42.8675C260.541 42.8119 260.513 42.7656 260.485 42.71C260.448 42.6359 260.411 42.5618 260.374 42.4877C260.235 42.2005 260.078 41.9133 259.929 41.6261C259.763 41.3111 259.614 40.9868 259.448 40.6811C259.401 40.607 259.355 40.5236 259.318 40.4495C259.318 40.4402 259.309 40.4309 259.309 40.4309C259.262 40.3568 259.225 40.2827 259.179 40.2086C258.938 39.7917 258.688 39.3933 258.438 38.9949C258.354 38.8559 258.271 38.717 258.188 38.578C258.114 38.4575 258.049 38.3371 257.975 38.2259L257.863 38.0684C257.521 37.5681 257.169 37.0679 256.807 36.5861L256.715 36.4564C256.696 36.4379 256.585 36.2803 256.566 36.2618L256.122 35.6874C256.048 35.5948 255.973 35.5114 255.899 35.428C255.779 35.2798 255.658 35.1408 255.538 35.0018C255.279 34.6961 255.019 34.3903 254.76 34.1031C254.658 33.992 254.556 33.8808 254.454 33.7789C254.232 33.538 254.019 33.2971 253.796 33.0655C253.778 33.047 253.648 32.908 253.629 32.8895L253.25 32.5096C253.24 32.5004 253.064 32.3336 253.055 32.3243L252.777 32.0835L252.768 32.0742C252.212 31.5554 251.647 31.0551 251.054 30.5641C250.989 30.5085 250.924 30.4529 250.859 30.3973L250.693 30.2491C250.359 29.9804 250.026 29.7117 249.683 29.4616L248.608 28.6926C248.589 28.6833 248.395 28.5444 248.376 28.5351L248.302 28.498C248.173 28.4054 248.034 28.3406 247.904 28.2479C247.45 27.9515 246.987 27.6735 246.523 27.3955C246.19 27.201 245.866 27.0064 245.532 26.8211C244.911 26.4783 244.281 26.1541 243.633 25.8484C243.54 25.802 243.457 25.7557 243.364 25.7094L243.235 25.6353C243.188 25.6075 243.021 25.5334 242.975 25.5148L242.345 25.2369C242.327 25.2276 242.104 25.135 242.086 25.1257L241.956 25.0794C241.252 24.7922 240.529 24.5235 239.797 24.2733C239.723 24.2456 239.621 24.2178 239.612 24.2085C239.343 24.1159 239.065 24.051 238.797 23.9676C238.426 23.8565 238.065 23.736 237.694 23.6341L237.574 23.597C237.555 23.5878 237.351 23.5322 237.333 23.5322L237.046 23.4673C236.675 23.3747 236.305 23.3006 235.934 23.2265C235.749 23.1894 235.573 23.1431 235.387 23.106C235.313 23.0875 235.239 23.0689 235.165 23.0597L234.831 22.9856L234.683 22.9763C234.313 22.9115 233.942 22.8559 233.581 22.8095C233.507 22.8003 233.433 22.7817 233.349 22.7725C232.654 22.6798 231.95 22.6057 231.246 22.5501L231.172 22.5316L230.792 22.5131C230.727 22.5131 230.653 22.5038 230.588 22.5038C230.338 22.4853 230.079 22.476 229.819 22.4668L229.458 22.4482C229.134 22.439 228.847 22.439 228.559 22.439C228.55 22.439 228.55 22.439 228.541 22.439C228.531 22.439 228.532 22.439 228.522 22.439C228.235 22.439 227.957 22.439 227.624 22.4482L227.262 22.4668C227.003 22.476 226.753 22.4946 226.493 22.5038C226.428 22.5038 226.354 22.5131 226.289 22.5131L225.91 22.5316L225.835 22.5501C225.131 22.6057 224.427 22.6798 223.732 22.7725C223.658 22.7817 223.584 22.8003 223.501 22.8095C223.13 22.8651 222.76 22.9207 222.398 22.9763L222.25 22.9856L221.917 23.0597C221.842 23.0782 221.768 23.0968 221.694 23.106C221.509 23.1431 221.333 23.1894 221.148 23.2265C220.777 23.3006 220.406 23.3747 220.036 23.4673L219.749 23.5322C219.73 23.5322 219.526 23.5878 219.508 23.597L219.387 23.6341C219.017 23.736 218.655 23.8565 218.285 23.9676C218.016 24.051 217.738 24.1251 217.47 24.2085C217.46 24.2085 217.358 24.2456 217.284 24.2733C216.552 24.5142 215.839 24.7829 215.126 25.0794L214.996 25.1257C214.977 25.135 214.755 25.2276 214.736 25.2369L214.106 25.5148C214.06 25.5334 213.893 25.6075 213.847 25.6353L213.717 25.7094C213.625 25.7557 213.541 25.802 213.449 25.8484C212.809 26.1541 212.17 26.4783 211.549 26.8211C211.216 27.0064 210.882 27.201 210.558 27.3955C210.095 27.6735 209.632 27.9515 209.178 28.2479C209.048 28.3313 208.909 28.4054 208.779 28.498L208.705 28.5351C208.687 28.5444 208.492 28.6833 208.474 28.6926L207.399 29.4616C207.056 29.721 206.722 29.9804 206.389 30.2491L206.222 30.3973C206.157 30.4529 206.093 30.5085 206.028 30.5641C205.444 31.0459 204.87 31.5554 204.314 32.0742L204.304 32.0835L204.026 32.3243C204.017 32.3336 203.841 32.5004 203.832 32.5096L203.452 32.8895C203.434 32.908 203.304 33.047 203.285 33.0655C203.063 33.2971 202.841 33.538 202.628 33.7789C202.526 33.8901 202.424 33.992 202.322 34.1031C202.053 34.3996 201.794 34.6961 201.544 35.0018C201.423 35.1408 201.303 35.2891 201.182 35.428C201.108 35.5207 201.034 35.604 200.96 35.6874L200.515 36.2618C200.497 36.2803 200.385 36.4379 200.367 36.4564L200.274 36.5861C199.913 37.0679 199.561 37.5681 199.218 38.0684L199.107 38.2259C199.033 38.3464 198.968 38.4668 198.894 38.578C198.81 38.717 198.727 38.8559 198.644 38.9949C198.394 39.3933 198.134 39.8009 197.903 40.2086C197.856 40.2827 197.819 40.3568 197.773 40.4309C197.773 40.4402 197.764 40.4495 197.764 40.4495C197.717 40.5236 197.671 40.607 197.634 40.6811C197.458 40.9868 197.31 41.3111 197.152 41.6261C197.004 41.9133 196.846 42.2005 196.707 42.4877C196.67 42.5618 196.624 42.6359 196.596 42.71C196.568 42.7656 196.541 42.8119 196.513 42.8675L196.365 43.2196C196.263 43.4512 196.17 43.6921 196.068 43.9237C195.985 44.1183 195.901 44.3128 195.818 44.5074C195.79 44.5722 195.762 44.6278 195.744 44.6927L195.605 45.0077C195.577 45.0818 195.559 45.1466 195.531 45.2207C195.457 45.4246 195.392 45.6377 195.318 45.8508C195.207 46.1472 195.105 46.453 195.003 46.7587C194.873 47.1385 194.762 47.5277 194.651 47.9168C194.595 48.1021 194.53 48.2781 194.484 48.4541C194.308 48.4912 194.132 48.5283 193.947 48.5746C191.788 49.1212 190.287 50.8629 189.944 53.244C189.879 53.6609 189.861 54.087 189.852 54.5225V58.3858C189.852 58.4044 189.852 58.4322 189.852 58.4507V61.9528C189.852 62.4531 189.889 62.9626 189.963 63.4721C190.333 65.9087 192.27 67.6968 194.716 67.8914C194.743 67.984 194.78 68.0859 194.808 68.1786C194.864 68.3731 194.929 68.5677 194.993 68.753C195.077 69.0124 195.169 69.2811 195.262 69.5405C195.327 69.735 195.401 69.9204 195.475 70.1149C195.568 70.3743 195.67 70.6244 195.772 70.8746C195.846 71.0599 195.929 71.2545 196.003 71.4398C196.105 71.6899 196.216 71.9401 196.328 72.1902C196.411 72.3755 196.494 72.5608 196.587 72.7461C196.698 72.9869 196.819 73.2278 196.939 73.4687C197.032 73.654 197.124 73.8393 197.217 74.0153C197.337 74.2562 197.467 74.4878 197.597 74.7194C197.699 74.8955 197.801 75.0808 197.903 75.2568C198.032 75.4884 198.171 75.72 198.301 75.9424C198.412 76.1184 198.514 76.2944 198.625 76.4705C198.764 76.6928 198.903 76.9151 199.051 77.1375C199.163 77.3135 199.283 77.4803 199.403 77.6563C199.552 77.8694 199.7 78.0825 199.848 78.2956C199.969 78.4623 200.089 78.6384 200.219 78.8051C200.376 79.0089 200.534 79.2221 200.691 79.4259C200.821 79.5927 200.951 79.7594 201.08 79.9262C201.238 80.13 201.405 80.3246 201.571 80.5191C201.71 80.6766 201.84 80.8434 201.979 81.0009C202.146 81.1955 202.322 81.3807 202.498 81.5753C202.637 81.7328 202.785 81.8903 202.933 82.0385C203.109 82.2238 203.285 82.4091 203.461 82.5851C203.61 82.7334 203.758 82.8908 203.915 83.0391C204.101 83.2151 204.286 83.3911 204.471 83.5672C204.629 83.7154 204.786 83.8544 204.944 84.0026C205.129 84.1694 205.324 84.3361 205.518 84.5029C205.685 84.6419 205.842 84.7809 206.009 84.9198C206.204 85.0773 206.398 85.2348 206.602 85.4016C206.769 85.5406 206.936 85.6703 207.112 85.8C207.315 85.9575 207.519 86.1057 207.723 86.2539C207.899 86.3836 208.075 86.5133 208.251 86.6338C208.455 86.782 208.668 86.921 208.872 87.06C209.048 87.1804 209.233 87.3009 209.409 87.4213C209.622 87.5603 209.835 87.69 210.058 87.8289C210.243 87.9401 210.428 88.0606 210.614 88.1717C210.827 88.3014 211.049 88.4219 211.271 88.5516C211.466 88.6627 211.651 88.7647 211.846 88.8759C212.068 88.9963 212.291 89.1074 212.522 89.2279C212.717 89.3298 212.911 89.4317 213.115 89.5243C213.347 89.6355 213.578 89.7375 213.801 89.8486C214.005 89.9413 214.199 90.0339 214.403 90.1266C214.635 90.2285 214.875 90.3304 215.107 90.423C215.311 90.5064 215.515 90.5898 215.718 90.6732C215.959 90.7658 216.2 90.8585 216.441 90.9419C216.645 91.016 216.849 91.0993 217.062 91.1642C217.303 91.2476 217.553 91.3217 217.803 91.4051C218.016 91.4699 218.22 91.544 218.433 91.6089C218.683 91.683 218.933 91.7479 219.193 91.822C219.406 91.8776 219.619 91.9425 219.832 91.998C220.091 92.0629 220.351 92.1184 220.61 92.1833C220.823 92.2296 221.036 92.2852 221.249 92.3316C221.509 92.3871 221.778 92.4334 222.046 92.489C222.259 92.5261 222.472 92.5724 222.686 92.6095C222.963 92.6558 223.232 92.6929 223.51 92.7299C223.723 92.7577 223.927 92.7948 224.14 92.8226C224.427 92.8596 224.724 92.8874 225.02 92.9152C225.215 92.9338 225.419 92.9616 225.613 92.9801C225.937 93.0079 226.271 93.0264 226.595 93.045C226.762 93.0542 226.929 93.0727 227.105 93.0727C227.605 93.0912 228.105 93.1005 228.615 93.1005C229.124 93.1005 229.625 93.0912 230.125 93.0727C230.292 93.0635 230.459 93.0542 230.635 93.045C230.959 93.0264 231.292 93.0079 231.617 92.9801C231.82 92.9616 232.015 92.9338 232.21 92.9152C232.506 92.8874 232.793 92.8596 233.09 92.8226C233.303 92.7948 233.507 92.7577 233.72 92.7299C233.998 92.6929 234.276 92.6558 234.544 92.6095C234.757 92.5724 234.97 92.5261 235.184 92.489C235.452 92.4427 235.712 92.3964 235.98 92.3316C236.193 92.2852 236.406 92.2296 236.62 92.1833C236.879 92.1277 237.138 92.0629 237.398 91.998C237.611 91.9425 237.824 91.8776 238.037 91.822C238.287 91.7479 238.547 91.683 238.797 91.6089C239.01 91.544 239.214 91.4792 239.427 91.4051C239.677 91.3217 239.918 91.2476 240.168 91.1642C240.372 91.0901 240.576 91.016 240.789 90.9419C241.03 90.8492 241.27 90.7658 241.511 90.6732C241.715 90.5898 241.919 90.5064 242.123 90.423C242.364 90.3211 242.595 90.2285 242.827 90.1266C243.031 90.0339 243.225 89.9413 243.429 89.8486C243.661 89.7467 243.892 89.6355 244.115 89.5243C244.309 89.4317 244.504 89.3298 244.708 89.2279C244.93 89.1167 245.162 88.9963 245.384 88.8759C245.578 88.7739 245.764 88.6627 245.958 88.5516C246.181 88.4311 246.403 88.3014 246.616 88.1717C246.801 88.0606 246.987 87.9494 247.172 87.8289C247.385 87.6992 247.607 87.5603 247.821 87.4213C248.006 87.3009 248.182 87.1804 248.358 87.06C248.571 86.921 248.775 86.782 248.979 86.6338C249.155 86.5133 249.331 86.3836 249.507 86.2539C249.711 86.1057 249.914 85.9575 250.118 85.8C250.294 85.6703 250.461 85.5313 250.628 85.4016C250.822 85.2441 251.026 85.0866 251.221 84.9198C251.387 84.7809 251.545 84.6419 251.712 84.5029C251.906 84.3361 252.092 84.1694 252.286 84.0026C252.444 83.8637 252.601 83.7154 252.759 83.5672C252.944 83.3911 253.129 83.2151 253.314 83.0391C253.472 82.8908 253.62 82.7426 253.768 82.5851C253.944 82.3998 254.13 82.2238 254.297 82.0385C254.445 81.881 254.584 81.7328 254.732 81.5753C254.908 81.39 255.075 81.1955 255.251 81.0009C255.39 80.8434 255.529 80.6859 255.658 80.5191C255.825 80.3246 255.992 80.1207 256.149 79.9262C256.279 79.7594 256.409 79.5927 256.539 79.4259C256.696 79.2221 256.854 79.0182 257.011 78.8051C257.132 78.6384 257.261 78.4716 257.382 78.2956C257.53 78.0825 257.687 77.8694 257.826 77.6563C257.947 77.4803 258.058 77.3135 258.178 77.1375C258.327 76.9151 258.466 76.6928 258.605 76.4705C258.716 76.2944 258.818 76.1184 258.929 75.9424C259.068 75.72 259.198 75.4884 259.327 75.2568C259.429 75.0808 259.531 74.8955 259.633 74.7194C259.763 74.4878 259.883 74.2469 260.013 74.0153C260.105 73.83 260.198 73.654 260.291 73.4687C260.411 73.2278 260.532 72.9869 260.643 72.7461C260.726 72.5608 260.819 72.3755 260.902 72.1902C261.013 71.9401 261.125 71.6899 261.226 71.4398C261.31 71.2545 261.384 71.0599 261.458 70.8746C261.56 70.6244 261.653 70.3651 261.755 70.1149C261.829 69.9204 261.894 69.735 261.968 69.5405C262.06 69.2811 262.144 69.0217 262.236 68.753C262.301 68.5584 262.366 68.3639 262.422 68.1786C262.449 68.0859 262.486 67.984 262.514 67.8914C264.96 67.6968 266.896 65.9087 267.267 63.4721C267.341 62.9533 267.378 62.4531 267.378 61.9528V58.4507C267.23 58.4322 267.23 58.4136 267.23 58.3858Z" fill="#F393BD"/>
<path fill-rule="evenodd" clip-rule="evenodd" d="M228.531 26.71C228.782 26.71 229.032 26.71 229.282 26.7193L229.55 26.7286C229.717 26.7378 229.893 26.7378 230.06 26.7471L230.319 26.7656L230.792 26.7934L231.135 26.8212L231.542 26.8582L231.876 26.8953L232.302 26.9416L232.608 26.9787L233.071 27.0435L233.33 27.0806C233.497 27.1084 233.664 27.1362 233.831 27.164L234.072 27.2011C234.285 27.2381 234.507 27.2844 234.72 27.3215L234.785 27.3307C235.026 27.377 235.267 27.4327 235.508 27.4883L235.535 27.4975L235.61 27.516C235.823 27.5624 236.036 27.618 236.249 27.6736L236.443 27.7292L236.934 27.8588L237.259 27.9515L237.62 28.0534L237.954 28.1553L238.333 28.2757L238.621 28.3684L239.028 28.5074L239.325 28.6185L239.668 28.7482L240.001 28.878L240.436 29.054L240.64 29.1373C240.826 29.2115 241.002 29.2949 241.187 29.3782L241.307 29.4338L241.326 29.4431C241.53 29.5357 241.734 29.6284 241.937 29.7303L241.956 29.7396L242.206 29.86L242.595 30.0545L242.892 30.2121L243.216 30.3788L243.54 30.5549L243.846 30.7309L244.142 30.9069L244.457 31.0922L244.745 31.2682L245.078 31.4721L245.347 31.6388L245.643 31.8334L245.967 32.0465L246.144 32.1669L246.551 32.4448C246.736 32.5745 246.912 32.7042 247.089 32.8432C247.394 33.0656 247.691 33.3064 247.987 33.5381L248.182 33.6956L248.515 33.9735L248.71 34.1403L249.043 34.4368L249.229 34.6035L249.553 34.9L249.757 35.0853L250.072 35.3817L250.238 35.5485L250.581 35.882L250.692 35.9932C251.415 36.7344 252.11 37.5126 252.758 38.3187L252.842 38.4298L253.157 38.8375L253.259 38.9671L253.583 39.4026L253.657 39.5138C253.768 39.6713 253.879 39.8288 253.991 39.9863L254.028 40.0419C254.148 40.2086 254.269 40.3847 254.38 40.5607L254.398 40.5792C255.251 41.867 256.01 43.2289 256.668 44.6372L256.687 44.6835C256.77 44.8688 256.853 45.054 256.937 45.2393L256.974 45.3227C257.057 45.508 257.131 45.6933 257.215 45.8786L257.243 45.9342C257.326 46.1287 257.4 46.3233 257.474 46.5179L257.493 46.5642C257.974 47.8149 258.373 49.1027 258.697 50.4276L258.706 50.4553C258.753 50.6684 258.808 50.8815 258.855 51.0946L258.864 51.1409C258.91 51.3447 258.947 51.5486 258.994 51.7524L259.012 51.845C259.049 52.0489 259.086 52.2527 259.123 52.4565V52.475L259.17 52.4843H259.179L259.225 52.4936H259.234L259.281 52.5028H259.29L259.336 52.5121H259.346L259.392 52.5213H259.401L259.448 52.5306H259.457L259.503 52.5399H259.512L259.559 52.5492H259.568L259.614 52.5584H259.624L259.67 52.5677H259.679L259.725 52.5862H259.735L259.781 52.6047H259.79L259.837 52.6233H259.846L259.892 52.6418H259.902L259.948 52.6603H259.957L260.003 52.6789H260.013L260.059 52.6974H260.068L260.115 52.7159H260.124L260.17 52.7345H260.179L260.226 52.753H260.235L260.281 52.7715H260.291L260.337 52.79H260.346L260.393 52.8085H260.402L260.448 52.8271L260.494 52.8549H260.504L260.55 52.8734H260.559L260.606 52.8919H260.615L260.661 52.9105H260.671L260.717 52.929H260.726L260.772 52.9568H260.782L260.819 52.9846H260.828L260.874 53.0124H260.884L260.921 53.0402H260.93L260.967 53.068H260.976L261.013 53.0957L261.05 53.1236L261.087 53.1514L261.124 53.1791L261.162 53.207L261.199 53.2347L261.236 53.2626L261.273 53.2903L261.31 53.3181L261.347 53.3459L261.384 53.383L261.421 53.42L261.458 53.4571L261.495 53.4942L261.532 53.5312L261.569 53.5682L261.606 53.6053L261.643 53.6424L261.68 53.6794L261.717 53.7165L261.754 53.7536L261.792 53.7906L261.829 53.837L261.866 53.8833L261.903 53.9296L261.94 53.9759L261.977 54.0222L262.014 54.0686L262.051 54.1149L262.088 54.1612C262.514 54.7912 262.783 55.486 262.875 56.2272C263.033 57.5706 263.098 58.9232 262.774 60.2481C262.329 62.0547 261.189 63.1479 259.364 63.5278C259.262 63.5463 259.16 63.5834 259.068 63.6112H259.04H259.031V63.6204C258.994 63.8243 258.947 64.028 258.901 64.2226L258.882 64.3153C258.836 64.5098 258.799 64.7044 258.753 64.8897L258.725 64.9916C258.679 65.1861 258.623 65.3807 258.577 65.5753L258.558 65.6309C258.215 66.9001 257.798 68.1323 257.317 69.3274L257.27 69.4386C257.196 69.6146 257.122 69.8 257.039 69.976L257.011 70.0501C256.928 70.2354 256.844 70.4114 256.761 70.5967L256.733 70.6616C256.186 71.8382 255.566 72.9777 254.88 74.0709L254.852 74.108C254.75 74.2748 254.639 74.4415 254.528 74.6083L254.472 74.6917C254.371 74.8492 254.269 74.9975 254.157 75.155L254.083 75.2569C253.972 75.4143 253.87 75.5626 253.759 75.7201L253.722 75.7664C253.101 76.6187 252.443 77.4433 251.739 78.2308L251.675 78.3049L251.322 78.694L251.211 78.8144L250.859 79.1851L250.73 79.3148L250.387 79.6576L250.22 79.815L249.886 80.1393L249.747 80.269L249.377 80.6118L249.368 80.6211C249.062 80.8897 248.756 81.1584 248.45 81.4178L248.33 81.6124L247.978 81.8996L247.783 82.0571C247.663 82.1497 247.542 82.2424 247.422 82.3351L247.246 82.474L246.894 82.7334L246.662 82.9002L246.347 83.1225L246.069 83.3171L245.773 83.5209L245.449 83.734L245.199 83.9007L244.837 84.1231L244.596 84.2713C244.411 84.3825 244.216 84.4937 244.031 84.6049L244.022 84.6141L243.688 84.7994L243.401 84.9569L243.105 85.1145L242.753 85.2997L242.475 85.4387L242.132 85.6055L241.808 85.7629L241.483 85.9112L241.168 86.0501L240.779 86.2169L240.52 86.3281C240.372 86.393 240.223 86.4485 240.066 86.5134L239.853 86.5968H239.844C239.64 86.6802 239.427 86.7543 239.223 86.8377L239.195 86.8469L238.963 86.9303C238.815 86.9859 238.667 87.0322 238.528 87.0878L238.222 87.1897L237.852 87.3102L237.546 87.4028L237.129 87.5233L236.851 87.5974L236.434 87.7086L236.128 87.7919L235.674 87.9031L235.434 87.9587C235.248 88.005 235.054 88.042 234.868 88.0791L234.711 88.1162C234.479 88.1625 234.238 88.2088 233.998 88.2551L233.97 88.2644L233.803 88.2922C233.627 88.32 233.451 88.3571 233.266 88.3849L232.969 88.4312L232.534 88.496L232.191 88.5331L231.811 88.5794L231.45 88.6165L231.07 88.6535L230.699 88.6813L230.282 88.7091L229.986 88.7276C229.81 88.7369 229.634 88.7462 229.449 88.7462L229.226 88.7555C228.976 88.7647 228.717 88.7647 228.467 88.7647C228.207 88.7647 227.948 88.7647 227.688 88.7555H227.67C227.42 88.7462 227.16 88.7369 226.91 88.7276H226.901C226.734 88.7184 226.567 88.7091 226.391 88.6999L226.123 88.6813C225.965 88.6721 225.817 88.6536 225.659 88.6443L225.344 88.6165L224.872 88.5609L224.585 88.5238L224.186 88.4683L223.797 88.4127L223.454 88.3571L223.056 88.2922L222.732 88.2366C222.583 88.2089 222.426 88.181 222.278 88.1532L222.009 88.0977L221.555 87.9958L221.231 87.9216L220.814 87.8197L220.462 87.727L220.101 87.6251L219.721 87.514L219.387 87.4121L218.998 87.2916L218.655 87.1805L218.303 87.06L217.951 86.9303L217.599 86.8006L217.238 86.6616L216.914 86.5319L216.552 86.3837L216.191 86.2262L215.894 86.0965L215.515 85.9205L215.209 85.7815L214.847 85.6055L214.532 85.448L214.217 85.2812L213.856 85.0866L213.56 84.9199L213.235 84.7439L212.893 84.5493L212.605 84.3825L212.253 84.1694L211.975 83.9934L211.642 83.7803L211.345 83.5858L211.03 83.3727L210.734 83.1688L210.4 82.9372L210.169 82.7705L209.808 82.5018L209.567 82.3165L209.224 82.0478L209.02 81.881L208.631 81.5661L208.492 81.4456C208.353 81.3252 208.214 81.214 208.084 81.0936L207.918 80.9546C207.788 80.8341 207.658 80.723 207.528 80.6025L207.399 80.4821C207.269 80.3617 207.13 80.232 207 80.1115L206.871 79.9911C206.732 79.8614 206.602 79.7224 206.463 79.5927L206.389 79.5093C206.241 79.3611 206.102 79.2128 205.953 79.0646L205.898 78.9998C205.75 78.8423 205.601 78.6847 205.462 78.5272L205.425 78.4902C203.007 75.8035 201.052 72.6998 199.691 69.2997L199.681 69.2904C199.505 68.8457 199.338 68.401 199.181 67.947L199.162 67.8914C198.922 67.2058 198.708 66.5017 198.523 65.7976L198.514 65.7606C198.449 65.529 198.393 65.2973 198.338 65.0657L198.329 65.0286C198.273 64.797 198.217 64.5562 198.171 64.3246L198.162 64.306C198.106 64.0651 198.06 63.8242 198.014 63.5833V63.5649C197.967 63.324 197.921 63.0738 197.884 62.8329V62.8236C197.847 62.5828 197.81 62.3419 197.773 62.101L197.763 62.0547C197.699 61.5637 197.643 61.0726 197.597 60.5723V60.5353C197.55 60.035 197.523 59.5254 197.495 59.0251V59.0159L197.486 58.9974L197.467 58.951L197.448 58.9047L197.43 58.8584L197.411 58.8121L197.393 58.7658L197.374 58.7194L197.356 58.6731L197.337 58.6268L197.319 58.5805L197.3 58.5341L197.282 58.4878L197.263 58.4415L197.245 58.3952L197.226 58.3488L197.208 58.3025L197.189 58.2562L197.171 58.2099L197.152 58.1635L197.133 58.1172L197.115 58.0709L197.096 58.0245L197.078 57.9782L197.059 57.9319L197.041 57.8856L197.022 57.8393L197.004 57.7929L196.985 57.7466L196.967 57.7003L196.948 57.654L196.93 57.6077L196.911 57.5613L196.893 57.515L196.874 57.4687L196.856 57.4224L196.837 57.3761L196.818 57.3297L196.8 57.2834L196.781 57.2371L196.763 57.1908L196.744 57.1445L196.726 57.0981L196.707 57.0518L196.689 57.0055L196.67 56.9591L196.652 56.9128L196.633 56.8665L196.615 56.8202L196.596 56.7738L196.578 56.7275L196.559 56.6812L196.42 56.7183C196.411 56.9035 196.392 57.0795 196.392 57.2648C196.392 58.8769 196.402 60.489 196.383 62.101C196.374 63.1016 195.911 63.5555 195.012 63.5185C194.521 63.5 194.178 63.2128 194.104 62.7217C194.058 62.4345 194.039 62.1381 194.039 61.8416C194.039 59.3679 194.039 56.885 194.039 54.4114C194.039 54.189 194.048 53.9574 194.085 53.735C194.159 53.2162 194.354 52.7437 194.901 52.6047C195.484 52.4565 196.087 52.3731 196.624 52.8085C197.096 53.1977 197.272 53.7721 197.578 54.2724L197.606 54.3372L197.634 54.3928C197.662 54.1519 197.689 53.9018 197.717 53.6609C197.773 53.244 197.838 52.8271 197.902 52.4194L197.939 52.1971C197.967 52.0489 197.995 51.9006 198.023 51.7524L198.078 51.4467L198.162 51.0576L198.236 50.7055L198.329 50.3256L198.412 49.9921L198.514 49.603L198.607 49.2695L198.708 48.9082L198.81 48.5654L198.94 48.167L199.033 47.8798L199.162 47.4999L199.283 47.1478L199.403 46.8236L199.542 46.4623L199.672 46.1288L199.802 45.8045L199.95 45.4524L200.08 45.156L200.256 44.7668L200.348 44.563L200.561 44.1183L200.571 44.0998C200.673 43.896 200.765 43.6921 200.876 43.4976L200.886 43.4698C200.997 43.266 201.099 43.0529 201.21 42.849L201.219 42.8305L201.33 42.636L201.571 42.2006L201.719 41.9504L201.942 41.5706L202.099 41.3111L202.322 40.9591L202.516 40.6626L202.711 40.3661L202.942 40.0326L203.118 39.7732L203.341 39.4675L203.554 39.171L203.767 38.8838L203.989 38.5966L204.212 38.3094L204.434 38.0407L204.656 37.772L204.934 37.4478L205.12 37.2346L205.398 36.929L205.62 36.6881L205.889 36.4009L206.111 36.16L206.37 35.8913L206.611 35.6412L206.917 35.3447L207.121 35.1409C207.269 35.0019 207.417 34.8629 207.565 34.724L207.64 34.6498L207.658 34.6406C207.834 34.4831 208.001 34.3348 208.177 34.1773L208.195 34.1588L208.418 33.9735L208.733 33.7048L208.992 33.4917L209.289 33.2509L209.567 33.0378L209.872 32.8062L210.16 32.5931L210.456 32.38L210.753 32.1669L211.04 31.9723L211.364 31.75L211.633 31.574L211.966 31.3609L212.253 31.1756L212.55 30.9903L212.93 30.7679L213.152 30.6382L213.56 30.4066L213.81 30.2677L214.171 30.0824L214.486 29.9156L214.82 29.7488L215.116 29.6006L215.589 29.3782L215.774 29.2949L216.228 29.091L216.469 28.9891L216.487 28.9799C216.7 28.8872 216.914 28.8039 217.136 28.7112H217.145L217.182 28.6927C217.395 28.6093 217.618 28.5259 217.831 28.4425L217.923 28.4055C218.127 28.3313 218.322 28.2572 218.526 28.1924L218.739 28.1183L219.211 27.97L219.563 27.8681L219.915 27.7662L220.249 27.6736L220.666 27.5623L220.934 27.4975L221.388 27.3863L221.666 27.3215L222.12 27.2196L222.426 27.1547L222.834 27.0806L223.176 27.0158L223.575 26.9509L223.918 26.8953L224.307 26.8397L224.687 26.7934L225.048 26.7563L225.428 26.7193L225.808 26.6822L226.206 26.6452L226.632 26.6174L226.938 26.5988C227.123 26.5896 227.299 26.5803 227.484 26.5803L227.725 26.571C228.013 26.7193 228.272 26.71 228.531 26.71ZM259.438 55.1247V55.1618V55.1988L259.457 55.486V55.5231V55.5602L259.485 55.9678V56.0049V56.042L259.494 56.2087V56.2457V56.2828L259.512 56.8109V56.848V56.885V56.9036V56.9221V56.9591V56.9962C259.522 57.2278 259.522 57.4594 259.522 57.691C259.522 57.9504 259.522 58.2006 259.512 58.4507V58.4693V58.4878V58.5156V58.5712C259.503 58.7565 259.503 58.9418 259.494 59.127V59.1826V59.2382V59.2938V59.3494V59.405V59.4606L259.466 59.8404V59.896L259.438 60.2203L259.429 60.2759L259.42 60.3315L259.41 60.3871L259.401 60.4427L259.392 60.4983L259.383 60.5538L259.373 60.6094L259.364 60.665L259.318 61.1004L259.309 61.156L259.299 61.2116L259.318 61.1931L259.327 61.1838L259.336 61.1746L259.355 61.156L259.373 61.1375L259.383 61.1282L259.392 61.119L259.41 61.1097L259.429 61.0911L259.438 61.0819L259.448 61.0727L259.466 61.0541L259.485 61.0356L259.494 61.0263L259.503 61.0171L259.512 61.0078L259.531 60.9893L259.549 60.9707L259.559 60.9615L259.568 60.9522L259.587 60.9337L259.605 60.9151L259.614 60.9059L259.624 60.8966L259.642 60.8781L259.661 60.8595L259.67 60.8503L259.679 60.841L259.688 60.8225L259.707 60.8039L259.716 60.7947L259.725 60.7762L259.735 60.7576L259.744 60.7391L259.753 60.7206L259.763 60.7113V60.702L259.772 60.6835L259.781 60.665L259.79 60.6557L259.8 60.6465L259.809 60.6279L259.818 60.6094L259.827 60.6002L259.837 60.5909L259.846 60.5723L259.855 60.5538V60.5446L259.864 60.5353L259.874 60.5167L259.883 60.4983V60.489L259.892 60.4704L259.902 60.4519V60.4427L259.911 60.4148L259.92 60.3963L259.929 60.3778V60.3685L259.939 60.3407L259.948 60.3222L259.957 60.313V60.3037L259.966 60.2759L259.976 60.2574V60.2481L259.985 60.2388L259.994 60.2203L260.003 60.1925V60.1832L260.013 60.1647L260.022 60.1462V60.1369L260.031 60.1091V60.0999L260.04 60.0813L260.05 60.0628V60.0535L260.059 60.0257V60.0165L260.068 59.9979V59.9794V59.9702L260.078 59.9423L260.087 59.9146V59.896V59.8868L260.096 59.859C260.318 58.6916 260.318 57.5057 260.096 56.3476L260.087 56.3199L260.078 56.3013L260.068 56.2736V56.255V56.2457L260.059 56.218V56.1994V56.1902L260.05 56.1624V56.1531V56.1439L260.04 56.116V56.1068V56.0883L260.031 56.0604V56.0512L260.022 56.0327L260.013 56.0049L260.003 55.9864L259.994 55.9678L259.985 55.9493L259.976 55.9308L259.966 55.9122L259.957 55.8937L259.948 55.8751L259.939 55.8566V55.8474L259.929 55.8288L259.92 55.8196L259.911 55.8103L259.902 55.7918V55.7825L259.892 55.7732L259.883 55.7548V55.7455L259.874 55.7269L259.864 55.7084L259.855 55.6899L259.846 55.6713L259.837 55.6528L259.827 55.6343L259.818 55.6158L259.809 55.5972L259.8 55.5787L259.79 55.5694V55.5602L259.781 55.5416L259.772 55.5324L259.763 55.5231L259.753 55.5046L259.744 55.4953L259.735 55.486L259.725 55.4676V55.4583L259.716 55.449L259.679 55.3934L259.67 55.3749L259.661 55.3563L259.651 55.3378L259.642 55.3286L259.633 55.31L259.624 55.3007V55.2915L259.605 55.273L259.596 55.2637L259.587 55.2544L259.568 55.2359L259.559 55.2267L259.549 55.2174L259.531 55.1988L259.522 55.1896L259.512 55.1803L259.494 55.1618L259.485 55.1525L259.466 55.134L259.438 55.1062L259.42 55.0969L259.438 55.1247Z" fill="#EE60A2"/>
<path fill-rule="evenodd" clip-rule="evenodd" d="M228.559 26.5154C245.689 26.5154 259.577 40.4031 259.577 57.5335C259.577 74.6638 245.689 88.5515 228.559 88.5515C211.429 88.5515 197.541 74.6638 197.541 57.5335C197.541 40.4031 211.429 26.5154 228.559 26.5154Z" fill="#EE60A2"/>
<path fill-rule="evenodd" clip-rule="evenodd" d="M228.513 36.1135C240.455 36.1135 250.127 45.7951 250.127 57.7279C250.127 69.6701 240.446 79.3424 228.513 79.3424C216.571 79.3424 206.898 69.6608 206.898 57.7279C206.889 45.7951 216.571 36.1135 228.513 36.1135Z" fill="#0DB9B3"/>
<path fill-rule="evenodd" clip-rule="evenodd" d="M250.794 40.9218C250.785 41.1256 250.646 41.2275 250.479 41.3016C249.756 41.6259 249.228 42.1447 248.83 42.8303C248.598 43.2379 248.329 43.2287 248.107 42.8025C247.746 42.1076 247.264 41.5518 246.569 41.1627C246.18 40.9403 246.189 40.6346 246.597 40.4307C247.32 40.0787 247.876 39.5598 248.265 38.8557C248.478 38.4759 248.765 38.4852 248.95 38.8835C249.293 39.6155 249.812 40.1621 250.525 40.5605C250.757 40.6902 250.803 40.7828 250.794 40.9218Z" fill="#F6CD19"/>
<path fill-rule="evenodd" clip-rule="evenodd" d="M246.134 37.2346C246.125 37.3736 246.042 37.4385 245.949 37.4848C245.597 37.6608 245.328 37.911 245.125 38.2445C244.967 38.4947 244.8 38.4854 244.661 38.226C244.495 37.8924 244.244 37.633 243.939 37.4292C243.679 37.2625 243.642 37.0865 243.939 36.9382C244.291 36.7622 244.55 36.4935 244.754 36.16C244.847 36.0025 245.013 35.9191 245.125 36.1044C245.356 36.5213 245.662 36.8641 246.07 37.1142L246.134 37.2346Z" fill="#F6CD19"/>
<path fill-rule="evenodd" clip-rule="evenodd" d="M245.273 57.9318C245.273 58.5711 245.273 59.2104 245.273 59.8589C245.273 61.4617 245.273 61.4617 246.894 61.2486C248.024 61.1004 248.654 60.5908 248.932 59.479C249.219 58.3673 249.219 57.2463 248.867 56.1438C248.571 55.1988 247.913 54.6892 246.922 54.6058C246.523 54.5687 246.125 54.578 245.727 54.5502C245.374 54.5224 245.245 54.6429 245.254 55.0134C245.282 55.9862 245.273 56.959 245.273 57.9318ZM242.697 53.2717C242.873 52.9196 243.16 52.688 243.512 52.5398C244.883 52.4286 246.264 52.4471 247.635 52.5305C248.302 52.5676 248.886 52.8919 249.525 52.9567L249.608 53.0864C251.397 54.226 251.795 56.0233 251.804 57.9504C251.813 59.3123 251.582 60.6279 250.711 61.7674C250.35 62.2306 249.886 62.5456 249.414 62.8606C249.368 62.8699 249.312 62.8791 249.33 62.9533L249.34 62.944C248.886 63.0552 248.441 63.1942 247.987 63.2683C246.82 63.4628 245.634 63.3239 244.467 63.3702C244.031 63.3887 243.605 63.3239 243.197 63.1571C243.123 63.0923 243.049 63.0274 242.966 62.9625C242.641 62.5364 242.614 62.0454 242.614 61.5358C242.614 59.1177 242.614 56.6996 242.614 54.2816C242.623 53.9388 242.53 53.5959 242.697 53.2717Z" fill="white"/>
<path fill-rule="evenodd" clip-rule="evenodd" d="M257.983 54.4574C257.594 54.476 257.233 54.5594 256.946 54.8281C256.76 54.9207 256.621 55.0596 256.538 55.2449C256.473 55.3468 256.408 55.4488 256.343 55.5507C256.214 55.736 256.14 55.949 256.103 56.1714C255.899 57.3202 255.908 58.4691 256.084 59.6179C256.149 60.044 256.297 60.4517 256.631 60.7574C257.177 61.443 257.918 61.5449 258.697 61.3596C259.54 61.1558 260.003 60.5165 260.16 59.7105C260.383 58.5431 260.383 57.3573 260.16 56.1992C259.957 55.1523 259.308 54.5779 258.298 54.4667C258.196 54.4575 258.094 54.4574 257.983 54.4574ZM259.132 52.3266C260.309 52.5953 261.346 53.0956 262.05 54.1332C262.486 54.7632 262.745 55.458 262.838 56.1992C262.995 57.5426 263.06 58.8952 262.736 60.22C262.291 62.0266 261.152 63.1199 259.327 63.4998C259.225 63.5183 259.132 63.5553 259.03 63.5831C258.419 63.5831 257.817 63.6387 257.214 63.5461C255.167 63.2311 253.888 62.0452 253.471 59.9143C253.221 58.6358 253.193 57.3202 253.462 56.0324C253.99 53.5125 255.732 52.1968 258.308 52.2895C258.576 52.2988 258.854 52.3173 259.132 52.3266Z" fill="white"/>
<path fill-rule="evenodd" clip-rule="evenodd" d="M197.652 54.2074C198.3 55.6805 198.949 57.1443 199.597 58.6174C199.866 58.5248 199.875 58.3024 199.95 58.1449C200.57 56.7737 201.172 55.3933 201.784 54.0129C201.941 53.6609 202.099 53.3181 202.34 53.0216C202.775 52.4657 203.507 52.2526 204.211 52.4749C204.795 52.6602 205.184 53.1791 205.193 53.9202C205.212 56.6626 205.212 59.3956 205.193 62.138C205.184 63.0552 204.73 63.4721 203.878 63.4536C203.322 63.4443 202.979 63.1571 202.923 62.5827C202.868 62.0176 202.859 61.4431 202.822 60.878C202.822 59.4698 202.822 58.0615 202.822 56.6533L202.71 56.6255C202.164 57.867 201.608 59.1177 201.061 60.3592C200.876 60.6927 200.737 61.0448 200.505 61.3505C200.014 62.0083 199.162 61.9527 198.717 61.2115C198.375 60.6371 198.115 60.0164 197.819 59.4142C197.42 58.4784 197.013 57.552 196.614 56.6163L196.485 56.6533C196.475 56.8386 196.457 57.0147 196.457 57.2C196.457 58.812 196.466 60.424 196.447 62.0361C196.438 63.0367 195.975 63.4907 195.076 63.4536C194.585 63.4351 194.242 63.1478 194.168 62.6568C194.122 62.3696 194.104 62.0732 194.104 61.7767C194.104 59.303 194.104 56.8201 194.104 54.3464C194.104 54.1241 194.113 53.8925 194.15 53.6701C194.224 53.1513 194.419 52.6788 194.965 52.5398C195.549 52.3916 196.151 52.3082 196.688 52.7529C197.179 53.1327 197.355 53.7071 197.652 54.2074Z" fill="white"/>
<path fill-rule="evenodd" clip-rule="evenodd" d="M220.749 61.8042C220.74 61.9246 220.731 62.0451 220.721 62.1655C220.666 62.8975 220.378 63.2958 219.804 63.4255C219.146 63.583 218.887 63.4441 218.442 62.7399C218.34 59.6178 218.349 56.4956 218.442 53.3734C218.72 52.8082 219.109 52.4098 219.786 52.4191C220.026 52.4284 220.267 52.4284 220.517 52.4377C220.61 52.4747 220.703 52.521 220.795 52.5581C220.879 52.6785 220.981 52.7619 221.138 52.7619V52.7526C221.499 53.3363 221.787 53.9571 222.074 54.5778C222.417 55.3282 222.695 56.0972 223.112 56.8105C223.334 57.4313 223.612 58.0335 223.964 58.7469C224.251 58.0613 224.483 57.5147 224.714 56.9588C224.853 56.6623 224.992 56.3659 225.131 56.0694C225.706 54.865 226.021 53.5401 226.984 52.5395C227.114 52.5025 227.253 52.4654 227.392 52.4284C227.633 52.4284 227.874 52.4191 228.124 52.4191C228.985 52.5488 229.458 53.012 229.467 53.9107C229.495 56.6623 229.486 59.4232 229.467 62.1748C229.458 62.9438 229.059 63.3699 228.42 63.4348C227.67 63.5182 227.29 63.2125 227.188 62.462C227.169 62.3416 227.142 62.2211 227.114 62.11C227.114 60.2848 227.114 58.4689 227.114 56.6438L226.984 56.6067C226.354 58.052 225.715 59.488 225.085 60.9333C224.863 61.2576 224.649 61.6282 224.26 61.7393C223.816 61.8691 223.38 61.8135 223.112 61.3502C223.01 61.1742 222.871 61.026 222.75 60.8592C222.222 59.4324 221.546 58.0798 220.925 56.6901C220.869 56.5975 220.814 56.5511 220.768 56.6901C220.74 58.4041 220.74 60.1088 220.749 61.8042Z" fill="white"/>
<path fill-rule="evenodd" clip-rule="evenodd" d="M236.101 54.8744C236.054 54.8744 236.008 54.8652 235.953 54.8652C235.563 56.1529 235.174 57.4314 234.794 58.7192C234.72 58.9601 234.896 58.9694 235.063 58.9694C235.702 58.9694 236.351 58.9694 236.99 58.9694C237.222 58.9694 237.296 58.8768 237.231 58.6452C236.851 57.3944 236.481 56.1344 236.101 54.8744ZM240.872 62.6289C240.298 63.6666 239.408 63.7499 238.463 62.8327C238.297 62.3047 238.121 61.7859 237.982 61.2485C237.898 60.9335 237.731 60.8594 237.426 60.8594C236.49 60.8779 235.554 60.8779 234.628 60.8594C234.294 60.8501 234.127 60.952 234.044 61.2763C233.896 61.8044 233.701 62.3232 233.525 62.8513C232.775 63.7222 231.95 63.6851 231.246 62.7494C231.209 62.527 231.116 62.3325 231.2 62.0638C231.997 59.3863 233.025 56.7829 233.868 54.1147C234.063 53.494 234.341 52.7806 235.054 52.5768C236.546 52.1784 237.62 52.41 238.195 54.0406C239.028 56.4401 239.853 58.849 240.668 61.2485C240.817 61.6932 240.928 62.1472 240.872 62.6289Z" fill="white"/>
<path fill-rule="evenodd" clip-rule="evenodd" d="M211.799 54.8559H211.67C211.281 56.1437 210.892 57.4223 210.521 58.71C210.438 58.988 210.669 58.9694 210.845 58.9694C211.457 58.9694 212.059 58.9602 212.67 58.9787C212.967 58.988 213.022 58.886 212.93 58.6081C212.661 57.728 212.411 56.8478 212.151 55.9677C212.04 55.5971 211.911 55.2265 211.799 54.8559ZM207.76 63.4628C206.926 62.9625 206.787 62.6197 207.047 61.7025C207.112 61.4524 207.195 61.2115 207.26 60.9706C207.334 60.7575 207.417 60.5537 207.491 60.3406C208.307 58.0615 208.983 55.7268 209.9 53.4848C210.085 53.0215 210.438 52.688 210.919 52.5305C212.263 52.095 213.374 52.5953 213.838 53.9109C214.727 56.4031 215.57 58.9139 216.432 61.4153C216.58 61.8508 216.617 62.2955 216.552 62.7494C216.015 63.4535 215.301 63.6573 214.653 63.3146C214.468 63.2219 214.384 63.0737 214.273 62.9255C214.171 62.6938 214.06 62.453 213.958 62.2213C213.865 61.8878 213.754 61.5635 213.68 61.23C213.615 60.9335 213.449 60.8594 213.171 60.8594C212.522 60.8779 211.864 60.8687 211.206 60.8687C209.826 60.8687 209.826 60.8687 209.483 62.2213C209.437 62.4252 209.391 62.629 209.344 62.8328L209.354 62.8235C209.15 62.8328 209.066 62.9718 209.02 63.1478C208.649 63.4443 208.214 63.4906 207.76 63.4628Z" fill="white"/>
<defs>
<linearGradient id="paint0_linear" x1="141.794" y1="267.395" x2="141.794" y2="0.0028688" gradientUnits="userSpaceOnUse">
<stop offset="0.00519511" stop-color="#C1E4D6"/>
<stop offset="0.398" stop-color="#BFE3D6"/>
<stop offset="0.5918" stop-color="#B7E1D5"/>
<stop offset="0.742" stop-color="#AADCD4"/>
<stop offset="0.8698" stop-color="#97D6D2"/>
<stop offset="0.9822" stop-color="#7FCECF"/>
<stop offset="0.9996" stop-color="#7BCDCF"/>
</linearGradient>
</defs>
</svg>
