<svg width="22" height="57" viewBox="0 0 22 57" fill="none" xmlns="http://www.w3.org/2000/svg">
<path d="M2.51675 56.5288L12.0861 46.9785L15.4545 50.347L4.06699 56.6628C3.62679 56.9116 3.11005 56.8924 2.66986 56.6436L2.51675 56.5288ZM11.1292 46.0216L2 55.1317V36.9116L11.1292 46.0216ZM16.8325 42.2513L21.2919 44.7202C21.7321 44.969 22 45.4283 22 45.9068C22 46.4044 21.7321 46.8637 21.2919 47.0934L16.7177 49.6388L13.0622 46.0025L16.8325 42.2513ZM2.42105 35.3996C2.49761 35.323 2.5933 35.2465 2.689 35.1891C3.11005 34.9403 3.64593 34.9403 4.08612 35.1699L15.5885 41.5431L12.0861 45.0264L2.42105 35.3996Z" fill="#EA4C89"/>
<path d="M16.7045 13.1683C16.6766 10.04 19.2474 8.51812 19.3649 8.44726C17.909 6.309 15.6524 6.01684 14.8593 5.99355C12.964 5.79263 11.1255 7.13596 10.16 7.13596C9.17521 7.13596 7.68841 6.01296 6.08599 6.04596C4.02394 6.07799 2.09494 7.28058 1.03686 9.14804C-1.14652 12.9558 0.48184 18.5514 2.57384 21.6292C3.6202 23.1375 4.84306 24.8196 6.44347 24.7604C8.00928 24.6963 8.59417 23.7558 10.4837 23.7558C12.3559 23.7558 12.9052 24.7604 14.5374 24.7225C16.218 24.6963 17.2759 23.2084 18.2858 21.6874C19.4951 19.9607 19.9806 18.2582 20 18.1709C19.9614 18.1573 16.7373 16.9168 16.7045 13.1683ZM13.6211 3.96884C14.4631 2.90796 15.0394 1.46466 14.8795 0C13.6605 0.0543544 12.1362 0.849288 11.2583 1.88688C10.4817 2.80119 9.78788 4.29982 9.96711 5.70916C11.3364 5.81204 12.7423 5.01323 13.6211 3.96884Z" fill="#EA4C89"/>
</svg>
