<svg width="20" height="20" viewBox="0 0 20 20" fill="none" xmlns="http://www.w3.org/2000/svg">
<path d="M10 0C4.47766 0 0 4.47708 0 10C0 15.5229 4.47766 20 10 20C15.5235 20 20 15.5229 20 10C20 4.47708 15.5235 0 10 0ZM13.6905 6.66978C14.4812 6.66978 15.1229 7.31153 15.1229 8.10219C15.1229 8.89285 14.4806 9.5346 13.6905 9.5346C12.8999 9.5346 12.2581 8.89285 12.2581 8.10219C12.2581 7.31153 12.8999 6.66978 13.6905 6.66978ZM6.3089 6.66978C7.10015 6.66978 7.74131 7.31153 7.74131 8.10219C7.74131 8.89285 7.10015 9.5346 6.3089 9.5346C5.51825 9.5346 4.8765 8.89285 4.8765 8.10219C4.8765 7.31153 5.51883 6.66978 6.3089 6.66978ZM15.3956 13.4768C14.1705 15.2555 12.153 16.3171 10 16.3171C7.84584 16.3171 5.82774 15.2555 4.60438 13.4762C4.32993 13.078 4.43095 12.5326 4.82978 12.2581C5.22861 11.9831 5.77343 12.0847 6.04788 12.4835C6.94482 13.7874 8.42277 14.5653 10.0006 14.5653C11.5784 14.5653 13.0552 13.7874 13.9545 12.4835C14.2289 12.0858 14.7731 11.9848 15.1726 12.2587C15.569 12.5331 15.6695 13.078 15.3956 13.4768Z" fill="#EA4C89"/>
</svg>
