<svg width="20" height="20" viewBox="0 0 20 20" fill="none" xmlns="http://www.w3.org/2000/svg">
<path d="M9.99987 0C5.94023 0 2.63708 3.30314 2.63708 7.3632C2.63708 8.42222 2.85384 9.43334 3.28101 10.3687C5.12191 14.3971 8.65143 18.6501 9.68958 19.8575C9.76735 19.9478 9.88075 19.9998 10.0001 19.9998C10.1194 19.9998 10.2328 19.9478 10.3106 19.8575C11.3483 18.6503 14.8778 14.3975 16.7193 10.3687C17.1467 9.43334 17.3633 8.42222 17.3633 7.3632C17.3629 3.30314 14.0597 0 9.99987 0ZM9.99987 11.1877C7.89104 11.1877 6.1752 9.47182 6.1752 7.36299C6.1752 5.25396 7.89104 3.53812 9.99987 3.53812C12.1087 3.53812 13.8245 5.25396 13.8245 7.36299C13.8247 9.47182 12.1089 11.1877 9.99987 11.1877Z" fill="#EA4C89"/>
</svg>
