<svg width="70" height="70" viewBox="0 0 70 70" fill="none" xmlns="http://www.w3.org/2000/svg">
<path d="M64.7981 34.5396C64.7981 16.8109 50.4262 2.43904 32.6976 2.43904C14.969 2.43904 0.597044 16.811 0.597044 34.5396C0.597045 52.2682 14.969 66.6401 32.6976 66.6401C50.4262 66.6401 64.7981 52.2682 64.7981 34.5396Z" fill="#08BBB5"/>
<path d="M53.5305 37.1436C54.9804 25.6354 46.8264 15.1308 35.3182 13.681C23.81 12.2311 13.3055 20.3851 11.8556 31.8933C10.4058 43.4015 18.5597 53.906 30.0679 55.3559C41.5761 56.8057 52.0807 48.6518 53.5305 37.1436Z" fill="white"/>
<path d="M49.9121 36.6263C51.0657 27.1307 44.3032 18.4978 34.8076 17.3443C25.312 16.1907 16.6791 22.9532 15.5255 32.4488C14.3719 41.9444 21.1345 50.5773 30.6301 51.7308C40.1257 52.8844 48.7585 46.1219 49.9121 36.6263Z" fill="#FF5DAF"/>
<path d="M46.3632 34.5339C46.3632 42.0782 40.2457 48.1957 32.7092 48.1957C25.1648 48.1957 19.0474 42.0782 19.0474 34.5339C19.0474 26.9895 25.1648 20.8799 32.7092 20.8799C40.2457 20.872 46.3632 26.9895 46.3632 34.5339Z" fill="#FF96C5"/>
<path d="M42.2559 34.5339C42.2559 39.8078 37.9752 44.0885 32.7012 44.0885C27.4273 44.0885 23.1466 39.8078 23.1466 34.5339C23.1466 29.2599 27.4273 24.9792 32.7012 24.9792C37.9831 24.9792 42.2559 29.2599 42.2559 34.5339Z" fill="#FF5DAF"/>
<path d="M38.8109 34.5339C38.8109 37.9079 36.0754 40.6356 32.7092 40.6356C29.3351 40.6356 26.5996 37.9001 26.5996 34.5339C26.5996 31.1598 29.3351 28.4321 32.7092 28.4321C36.0754 28.4243 38.8109 31.1598 38.8109 34.5339Z" fill="white"/>
<path d="M35.0821 34.5336C35.0821 35.8501 34.0178 36.9144 32.7013 36.9144C31.3848 36.9144 30.3206 35.8501 30.3206 34.5336C30.3206 33.2171 31.3848 32.1528 32.7013 32.1528C34.0178 32.1528 35.0821 33.2171 35.0821 34.5336Z" fill="#FF5DAF"/>
<g opacity="0.25">
<path opacity="0.25" d="M61.1681 30.8759C60.9631 30.8681 60.7581 30.8681 60.561 30.8681L60.5058 30.8208C63.8168 30.0482 66.04 27.3757 65.496 24.7663C64.9363 22.1096 61.7199 20.5409 58.3143 21.2582C55.8704 21.7707 53.9942 23.3158 53.332 25.129H53.3005L50.3284 30.2137L32.3938 32.9098L34.0178 36.2603L51.3533 33.304L54.7037 36.4574H54.7431C55.7522 37.8527 57.9911 38.8775 60.6635 38.98C64.3923 39.1298 67.5378 37.4349 67.6797 35.196C67.8137 32.9571 64.9048 31.0178 61.1681 30.8759Z" fill="black"/>
</g>
<path d="M55.9651 19.5083L31.8184 32.8864C31.9051 33.7141 32.047 34.3132 32.2914 34.8099L56.8323 21.085L55.9651 19.5083Z" fill="#D2D0DA"/>
<path d="M56.8402 21.085L32.2993 34.8099C32.591 35.4011 33.0246 35.8347 33.7026 36.2683L57.8493 22.8902L56.8402 21.085Z" fill="#A4A1AA"/>
<path d="M63.1942 10.9782C61.5623 8.81032 57.9833 8.75513 55.2004 10.86C53.2059 12.3657 52.1732 14.5573 52.3388 16.4808L52.3073 16.4966L51.6293 24.0252L59.8595 19.4686C60.0645 19.3661 60.2694 19.2558 60.4665 19.1296L60.569 19.0744C60.7503 18.9562 60.9316 18.8301 61.113 18.696C63.8958 16.5991 64.826 13.1462 63.1942 10.9782Z" fill="#FF96C5"/>
<path d="M69.5954 19.5002C70.4153 21.5893 68.2947 24.4588 64.8575 25.9094C62.3979 26.95 59.9305 26.9736 58.4247 26.1459L58.3932 26.1616L51.6844 23.9622L60.4744 19.0587C60.6872 18.9326 60.9001 18.8144 61.1287 18.6961L61.2391 18.633C61.452 18.5306 61.6648 18.4281 61.8855 18.3335C65.3148 16.8987 68.7756 17.4111 69.5954 19.5002Z" fill="#FF2EAB"/>
</svg>
