<?xml version="1.0" encoding="utf-8"?>
<!-- Generator: Adobe Illustrator 22.0.1, SVG Export Plug-In . SVG Version: 6.00 Build 0)  -->
<svg version="1.1"
	 id="Слой_1" xmlns:cc="http://creativecommons.org/ns#" xmlns:dc="http://purl.org/dc/elements/1.1/" xmlns:inkscape="http://www.inkscape.org/namespaces/inkscape" xmlns:rdf="http://www.w3.org/1999/02/22-rdf-syntax-ns#" xmlns:sodipodi="http://sodipodi.sourceforge.net/DTD/sodipodi-0.dtd" xmlns:svg="http://www.w3.org/2000/svg"
	 xmlns="http://www.w3.org/2000/svg" xmlns:xlink="http://www.w3.org/1999/xlink" x="0px" y="0px" viewBox="0 0 87.1 78.8"
	 style="enable-background:new 0 0 87.1 78.8;" xml:space="preserve">
<style type="text/css">
	.st0{fill:#18A3DD;}
</style>
<g transform="translate(0,-952.36218)">
	<path class="st0" d="M38.8,952.9c-2.8,0.1-5.7,0.5-8.5,1.2c-20.9,5.2-33.5,26.5-28.3,47.3c5.2,20.9,26.5,33.5,47.3,28.3
		s33.5-26.5,28.3-47.3c-0.2-1.6-1.7-2.8-3.4-2.6c-1.6,0.2-2.8,1.7-2.6,3.4c0,0.2,0.1,0.4,0.2,0.6c4.4,17.7-6.3,35.6-24,40
		c-17.7,4.4-35.6-6.3-40.1-24c-4.4-17.7,6.3-35.6,24-40.1c9.5-2.4,19.6-0.4,27.5,5.3c1.2,1.1,3.1,1,4.2-0.2c1.1-1.2,1-3.1-0.2-4.2
		c-0.2-0.1-0.3-0.3-0.5-0.4C55.7,955.3,47.3,952.7,38.8,952.9L38.8,952.9z M83.6,954.8c-0.8,0-1.5,0.4-2,1
		c-10.6,11.1-27.8,30.1-39,41.9l-14.8-13.1c-1.2-1.1-3.1-1-4.3,0.3s-1,3.1,0.3,4.3l17,15c1.2,1.1,3,1,4.2-0.2
		c11.2-11.7,30-32.4,41-44c1.2-1.2,1.2-3.1,0-4.2C85.3,955.1,84.5,954.8,83.6,954.8L83.6,954.8z"/>
</g>
</svg>
