<svg width="453" height="454" viewBox="0 0 453 454" fill="none" xmlns="http://www.w3.org/2000/svg">
<path d="M216.5 6.10748C222.688 2.53482 230.312 2.53483 236.5 6.10749L412.655 107.81C418.843 111.383 422.655 117.986 422.655 125.131V328.537C422.655 335.682 418.843 342.285 412.655 345.857L236.5 447.56C230.312 451.133 222.688 451.133 216.5 447.56L40.3452 345.857C34.1572 342.285 30.3452 335.682 30.3452 328.537V125.131C30.3452 117.986 34.1572 111.383 40.3452 107.81L216.5 6.10748Z" fill="#FF4D54"/>
<path d="M216.5 20.1075C222.688 16.5348 230.312 16.5348 236.5 20.1075L400.53 114.81C406.718 118.383 410.53 124.986 410.53 132.131V321.537C410.53 328.682 406.718 335.285 400.53 338.857L236.5 433.56C230.312 437.133 222.688 437.133 216.5 433.56L52.4696 338.857C46.2816 335.285 42.4696 328.682 42.4696 321.537V132.131C42.4696 124.986 46.2816 118.383 52.4696 114.81L216.5 20.1075Z" fill="#FF000A"/>
<g clip-path="url(#clip0_135_542)">
<path d="M20.0123 -156.498C21.0854 -157.012 22.2041 -157.447 23.408 -157.826C25.9966 -158.635 28.7738 -159.027 31.9768 -159.137C37.7716 -159.322 43.8997 -158.381 50.1814 -157.266C54.8714 -156.443 60.9205 -155.457 66.6897 -155.047C72.9119 -154.582 77.7778 -154.915 81.5597 -155.94C82.5264 -156.182 83.4643 -156.565 84.3793 -156.988C84.4583 -157.034 84.5768 -157.102 84.6787 -157.108C87.1805 -158.342 88.9282 -159.878 90.5969 -161.368C92.1698 -162.75 93.6637 -164.087 95.787 -165.155C97.2158 -165.874 98.8771 -166.465 100.754 -166.864C102.553 -167.217 104.561 -167.48 106.706 -167.507C110.848 -167.633 115.52 -167.116 120.143 -166.044C125.14 -164.872 130.23 -163.174 135.173 -161.549L136.029 -161.253C139.741 -160.025 143.766 -158.713 147.801 -157.565C156.431 -155.118 165.761 -153.286 176.306 -151.998C182.359 -151.278 187.285 -150.96 191.818 -151.048C197.432 -151.181 202.29 -151.983 206.619 -153.429C208.563 -154.077 210.439 -154.844 212.269 -155.69C217.357 -158.101 221.979 -161.138 226.815 -164.352C228.407 -165.428 230.1 -166.511 231.793 -167.594C234.784 -169.532 237.608 -170.846 240.378 -171.708C241.904 -172.167 243.436 -172.525 244.918 -172.696C246.502 -172.872 248.075 -172.885 249.599 -172.711C253.614 -172.236 257.469 -170.669 261.024 -167.979C264.193 -165.593 267.167 -162.358 269.8 -158.346C272.632 -154.079 275.042 -149.358 277.36 -144.796C279.587 -140.391 281.882 -135.868 284.469 -131.934C287.193 -127.764 290.441 -124.054 294.675 -120.281C299.039 -116.372 304.245 -112.739 310.146 -109.455C315.644 -106.411 321.735 -103.71 328.293 -101.385C329.569 -100.91 330.901 -100.52 332.193 -100.106C333.735 -99.6266 335.253 -99.1862 336.749 -98.7854C341.056 -97.5311 345.091 -96.3831 348.949 -94.4477C352.534 -92.6185 355.879 -90.0186 358.978 -86.7497C361.861 -83.6723 364.515 -79.9882 366.832 -75.7933C369.034 -71.796 370.893 -67.3896 372.42 -62.7383C373.877 -58.2057 374.917 -53.4843 375.55 -48.7386C376.398 -42.4316 376.688 -35.9072 377.004 -29.6092C377.223 -24.9408 377.432 -20.1083 377.877 -15.4126C378.287 -10.9602 378.941 -6.54276 379.746 -2.31846C380.598 1.98487 381.63 6.23647 382.876 10.3116C384.145 14.4263 385.657 18.506 387.345 22.4321C389.054 26.3976 391.047 30.3054 393.192 34.02C397.247 40.9522 402.036 47.5132 406.226 52.945C406.869 53.7854 407.512 54.6259 408.133 55.4268C416.166 65.9636 424.466 76.8727 428.245 89.0754C430.645 96.6998 431.435 105.095 430.896 116.208C430.775 118.28 430.631 120.313 430.508 122.017C429.461 135.899 427.71 148.291 425.862 161.424C424.677 169.959 423.386 178.766 422.369 188.047C421.907 192.265 421.139 196.502 420.022 201.046C419.015 205.052 417.811 209.172 416.24 213.662C413.368 222.012 409.738 230.325 406.276 238.383C403.442 244.972 400.517 251.771 397.961 258.569C395.086 266.183 393.022 273.012 391.647 279.391C390.493 284.694 389.747 289.972 389.051 295.064C388.047 302.177 387.143 308.916 385.107 315.519C383.813 319.849 382.01 324.209 379.77 328.453C377.7 332.441 375.159 336.436 372.29 340.411C367.171 347.424 360.857 354.283 352.971 361.523C351.945 362.484 350.784 363.576 349.544 364.714C345.193 368.859 339.777 373.988 334.05 378.032C331.444 379.906 328.977 381.383 326.69 382.44C326.272 382.629 325.854 382.817 325.475 382.983C322.464 384.247 319.716 384.78 317.309 384.536C315.48 384.38 313.87 383.782 312.283 383.223C311.178 382.86 310.05 382.458 308.888 382.18C307.002 381.741 304.975 381.699 302.888 382.008C299.907 382.412 296.788 383.581 293.887 385.309C291.064 386.991 288.516 389.147 286.495 391.579C283.252 395.453 280.025 401.637 277.058 407.723C274.349 413.344 270.847 418.685 266.749 423.633C262.65 428.581 257.933 433.096 252.693 437.07C246.652 441.664 239.744 444.757 232.378 448.061C225.967 450.92 219.318 453.915 213.066 458.052C211.649 458.975 210.256 459.938 208.941 460.855C206.075 462.826 203.129 464.843 200.086 466.599C196.648 468.584 193.423 470.025 190.269 470.95C186.714 472.002 182.799 472.523 178.667 472.485C174.841 472.428 170.781 471.875 166.469 470.886C162.194 469.14 157.56 466.862 151.727 463.696C150.207 462.888 148.664 462.04 147.143 461.232C129.266 451.531 110.815 441.477 91.8838 433.966C81.6669 429.959 72.2698 427.006 63.1542 424.998C58.2027 423.905 53.2466 423.078 48.4731 422.568C43.4731 422.03 38.4291 421.78 33.5905 421.887C32.0794 421.916 30.5684 421.946 29.1197 421.992C18.4634 422.243 7.39961 422.518 -3.11174 419.735C-9.69616 418.004 -15.9404 415.129 -21.6803 411.119C-26.9945 407.39 -31.9168 402.697 -36.3226 397.074C-37.6259 395.456 -38.7878 393.808 -39.8874 392.177C-42.4456 388.385 -44.7743 383.987 -47.0563 378.665C-49.0979 373.943 -50.8689 368.959 -52.5716 364.093C-53.6549 361.03 -54.7839 357.889 -55.9691 354.832C-56.8911 352.414 -58.8325 347.317 -61.9353 341.943C-65.4322 335.795 -69.6098 330.567 -74.3541 326.456C-77.8712 323.376 -81.975 320.74 -86.4723 318.7C-90.9301 316.637 -95.8666 315.113 -101.118 314.141C-103.763 313.666 -106.56 313.384 -109.713 313.307C-112.232 313.234 -114.988 313.297 -118.349 313.499C-118.756 313.523 -119.124 313.525 -119.509 313.589C-126.254 313.953 -133.219 314.391 -139.306 312.426C-142.163 311.494 -144.155 310.325 -145.645 308.656C-148.256 305.685 -149.272 301.371 -148.708 295.777C-148.338 292.402 -147.511 288.816 -146.036 284.434C-143.243 276.13 -139.887 268.344 -135.763 259.061C-134.592 256.435 -133.371 253.622 -132.557 250.834C-131.62 247.711 -131.27 245.033 -131.456 242.611C-131.599 240.903 -131.986 239.229 -132.599 237.528C-133.579 234.827 -135.168 232.531 -137.612 230.306C-139.754 228.329 -142.348 226.665 -145.073 224.866C-147.519 223.275 -150.012 221.605 -152.483 219.607C-155.277 217.322 -157.546 214.943 -159.403 212.274C-160.787 210.334 -161.917 208.194 -162.902 205.759C-163.743 203.663 -164.455 201.334 -165.107 198.654C-165.926 195.228 -166.553 191.586 -167.152 188.085C-168.489 180.111 -169.924 171.876 -173.748 164.705C-175.911 160.685 -178.615 157.188 -181.211 153.787C-184.689 149.314 -187.967 145.095 -189.659 140.065C-190.405 137.861 -190.806 135.616 -190.838 133.369C-190.905 129.878 -190.258 126.343 -188.847 122.946C-187.605 119.805 -185.705 116.707 -183.251 113.656C-179.047 108.436 -173.053 103.395 -165.405 98.6633C-164.044 97.8253 -162.684 96.9873 -161.324 96.1492C-155.171 92.3863 -148.805 88.4471 -143.308 83.64C-139.598 80.3918 -136.393 76.908 -133.834 73.2177C-131.084 69.3115 -128.947 65.0741 -127.472 60.6925C-126.623 58.1475 -125.99 55.411 -125.623 52.67C-125.233 49.9685 -125.115 47.1607 -125.224 44.3256C-125.327 41.5924 -125.64 38.7695 -126.173 36.0212C-126.705 33.2729 -127.419 30.5764 -128.353 27.9544C-128.892 26.4739 -129.476 24.9144 -130.054 23.4567C-131.675 19.2814 -133.324 14.9646 -134.034 10.6324C-134.715 6.44147 -134.483 2.46155 -134.177 -1.29793C-133.846 -5.6518 -133.343 -9.52536 -132.742 -13.139C-131.484 -20.4514 -129.493 -27.1332 -126.819 -32.9974C-123.658 -39.9334 -119.513 -45.8041 -114.49 -50.3374C-111.931 -52.658 -109.031 -54.7537 -105.712 -56.6702C-104.171 -57.56 -102.584 -58.3707 -100.974 -59.142C-96.5801 -61.2047 -92.0201 -62.889 -87.4997 -64.5505C-87.0193 -64.7224 -86.539 -64.8943 -86.0587 -65.0662C-66.7396 -72.2157 -46.7186 -80.6135 -31.1669 -93.6494C-24.2763 -99.4191 -17.6187 -106.688 -10.7551 -115.972C-4.42025 -124.53 1.4583 -133.878 6.47074 -141.988C6.59988 -142.22 6.72903 -142.453 6.9205 -142.669C8.16791 -144.706 9.47154 -146.829 10.9121 -148.714C12.5212 -150.855 14.1382 -152.526 15.8753 -153.898C16.9801 -154.905 18.4194 -155.789 20.0123 -156.498ZM84.4021 -156.948C83.4871 -156.525 82.5264 -156.182 81.5825 -155.9C77.8006 -154.876 72.9119 -154.582 66.7125 -155.008C60.9433 -155.418 54.8319 -156.421 50.2042 -157.226C43.883 -158.319 37.7944 -159.282 31.9996 -159.098C28.8361 -159.01 26.0422 -158.556 23.4308 -157.786C20.599 -156.942 18.0014 -155.6 15.7339 -153.869C14.0135 -152.56 12.3799 -150.826 10.7707 -148.685C9.35298 -146.76 8.02655 -144.677 6.77914 -142.64C6.65 -142.407 6.52086 -142.175 6.32939 -141.959C1.35646 -133.871 -4.52209 -124.523 -10.8965 -115.943C-17.7829 -106.698 -24.4176 -99.3902 -31.3082 -93.6205C-40.0089 -86.3315 -50.0857 -80.5136 -60.6812 -75.5028C-69.0516 -71.5659 -77.679 -68.1656 -86.2396 -65.0145C-86.7199 -64.8426 -87.2002 -64.6707 -87.6805 -64.4987C-92.1615 -62.8601 -96.761 -61.153 -101.155 -59.0902C-102.765 -58.319 -104.352 -57.5082 -105.893 -56.6184C-109.252 -54.6791 -112.135 -52.6457 -114.671 -50.2856C-119.671 -45.7128 -123.839 -39.8816 -127 -32.9456C-129.713 -27.0586 -131.704 -20.3769 -132.923 -13.0873C-133.523 -9.47361 -134.027 -5.60004 -134.358 -1.24617C-134.687 2.4738 -134.918 6.45371 -134.215 10.6841C-133.505 15.0164 -131.856 19.3331 -130.235 23.5085C-129.657 24.9662 -129.073 26.5257 -128.534 28.0061C-127.6 30.6281 -126.886 33.3247 -126.353 36.073C-125.82 38.8213 -125.508 41.6442 -125.405 44.3774C-125.296 47.2125 -125.437 49.9808 -125.804 52.7218C-126.188 55.5251 -126.804 58.1992 -127.653 60.7443C-129.105 65.1654 -131.265 69.3633 -134.015 73.2695C-136.614 76.9826 -139.819 80.4663 -143.489 83.6917C-149.025 88.5216 -155.375 92.3985 -161.505 96.2009C-162.826 97.0162 -164.225 97.8771 -165.586 98.7151C-173.171 103.464 -179.165 108.505 -183.393 113.685C-185.847 116.736 -187.746 119.834 -188.988 122.975C-190.337 126.389 -191.007 129.884 -190.98 133.398C-190.93 135.583 -190.53 137.828 -189.761 140.071C-188.069 145.101 -184.79 149.32 -181.312 153.793C-178.677 157.171 -175.973 160.668 -173.849 164.711C-170.003 171.922 -168.63 180.139 -167.253 188.091C-166.655 191.592 -166.027 195.234 -165.208 198.66C-164.557 201.34 -163.845 203.669 -163.004 205.765C-162.019 208.2 -160.889 210.34 -159.505 212.281C-157.609 214.927 -155.379 217.328 -152.584 219.613C-150.113 221.611 -147.621 223.281 -145.175 224.872C-142.45 226.671 -139.896 228.358 -137.714 230.312C-135.27 232.537 -133.681 234.833 -132.701 237.534C-132.088 239.235 -131.701 240.909 -131.558 242.617C-131.371 245.039 -131.722 247.717 -132.659 250.84C-133.495 253.589 -134.717 256.402 -135.865 259.067C-139.989 268.35 -143.345 276.136 -146.138 284.44C-147.613 288.822 -148.44 292.408 -148.81 295.783C-149.396 301.338 -148.381 305.652 -145.77 308.623C-144.279 310.292 -142.288 311.46 -139.431 312.393C-133.366 314.318 -126.418 313.942 -119.673 313.578C-119.266 313.554 -118.898 313.552 -118.513 313.488C-115.192 313.309 -112.436 313.246 -109.877 313.297C-106.764 313.396 -103.927 313.655 -101.282 314.13C-96.0308 315.103 -91.0943 316.626 -86.597 318.666C-82.0768 320.746 -78.0354 323.365 -74.4787 326.423C-69.774 330.556 -65.5569 335.761 -62.0372 341.949C-58.9739 347.346 -57.0158 352.38 -56.0709 354.838C-54.8857 357.895 -53.7963 361.059 -52.6735 364.099C-50.9541 368.902 -49.1602 373.926 -47.1582 378.671C-44.899 383.953 -42.5474 388.391 -39.9892 392.183C-38.9125 393.775 -37.6882 395.439 -36.4244 397.08C-32.0415 402.664 -27.0964 407.396 -21.7822 411.125C-16.0423 415.135 -9.79799 418.011 -3.21357 419.741C7.3373 422.502 18.3615 422.249 29.0178 421.998C30.4893 421.991 32.0399 421.939 33.4886 421.893C38.3501 421.826 43.3713 422.036 48.3713 422.574C53.1448 423.084 58.1008 423.911 63.0524 425.004C72.2075 426.99 81.6046 429.942 91.8443 433.988C110.753 441.46 129.243 451.492 147.104 461.255C148.624 462.063 150.167 462.911 151.688 463.719C157.52 466.885 162.154 469.162 166.43 470.909C170.702 471.92 174.824 472.491 178.628 472.508C182.76 472.546 186.635 472.047 190.19 470.996C193.383 470.048 196.569 468.63 200.007 466.645C203.05 464.888 206.035 462.849 208.862 460.901C210.216 459.961 211.61 458.998 212.987 458.098C219.239 453.961 225.871 451.028 232.299 448.107C234.468 447.118 236.62 446.192 238.727 445.186C243.697 442.843 248.372 440.355 252.574 437.138C257.775 433.187 262.532 428.65 266.591 423.724C270.689 418.777 274.191 413.435 276.9 407.814C279.906 401.705 283.133 395.522 286.376 391.647C288.397 389.216 290.985 387.036 293.768 385.377C296.709 383.626 299.811 382.52 302.77 382.077C304.857 381.768 306.906 381.849 308.77 382.248C309.971 382.503 311.099 382.906 312.204 383.269C313.791 383.828 315.379 384.387 317.23 384.582C319.637 384.826 322.385 384.293 325.357 383.052C325.735 382.886 326.153 382.697 326.571 382.509C328.859 381.451 331.325 379.975 333.932 378.101C339.636 374.017 345.052 368.888 349.426 364.782C350.643 363.605 351.804 362.513 352.853 361.592C360.738 354.352 367.053 347.492 372.172 340.48C375.063 336.544 377.581 332.509 379.652 328.521C381.868 324.238 383.671 319.878 384.988 315.587C387.002 308.945 387.928 302.245 388.932 295.132C389.628 290.041 390.375 284.762 391.528 279.46C392.904 273.081 394.99 266.291 397.843 258.637C400.399 251.84 403.323 245.041 406.157 238.451C409.619 230.393 413.227 222.04 416.122 213.73C417.692 209.241 418.896 205.121 419.903 201.115C421.004 196.633 421.749 192.356 422.251 188.115C423.29 178.874 424.519 170.05 425.743 161.493C427.592 148.359 429.365 136.007 430.39 122.085C430.512 120.381 430.633 118.309 430.777 116.277C431.356 105.141 430.526 96.7683 428.126 89.1439C424.325 76.9016 416.047 66.032 408.014 55.4952C407.394 54.6943 406.728 53.8143 406.107 53.0134C401.934 47.5193 397.105 40.9811 393.073 34.0884C390.906 30.3343 388.936 26.4661 387.203 22.461C385.516 18.5349 384.004 14.4553 382.735 10.3406C381.488 6.2654 380.417 2.03662 379.605 -2.28953C378.8 -6.51382 378.146 -10.9312 377.736 -15.3837C377.29 -20.0794 377.082 -24.9119 376.863 -29.5803C376.546 -35.8782 376.257 -42.4027 375.408 -48.7096C374.776 -53.4554 373.696 -58.1539 372.278 -62.7094C370.791 -67.3835 368.893 -71.767 366.713 -75.7249C364.397 -79.9198 361.766 -83.5643 358.86 -86.6813C355.76 -89.9502 352.415 -92.5501 348.853 -94.3397C345.035 -96.298 341 -97.4459 336.693 -98.7002C335.237 -99.1239 333.678 -99.5414 332.137 -100.021C330.844 -100.434 329.49 -100.864 328.237 -101.3C321.701 -103.586 315.588 -106.326 310.09 -109.369C304.212 -112.615 298.983 -116.287 294.619 -120.196C290.385 -123.969 287.137 -127.679 284.413 -131.849C281.826 -135.782 279.531 -140.306 277.304 -144.71C274.985 -149.273 272.553 -154.034 269.744 -158.26C267.111 -162.273 264.137 -165.508 260.991 -167.854C257.436 -170.544 253.58 -172.112 249.565 -172.586C243.925 -173.229 238.137 -171.573 231.799 -167.492C230.106 -166.409 228.475 -165.31 226.822 -164.25C220.276 -159.891 214.04 -155.816 206.625 -153.327C202.296 -151.881 197.438 -151.079 191.824 -150.946C187.291 -150.858 182.349 -151.113 176.312 -151.896C165.767 -153.185 156.438 -155.017 147.807 -157.463C143.772 -158.611 139.748 -159.923 136.035 -161.151L135.179 -161.448C130.276 -163.095 125.209 -164.754 120.149 -165.942C115.526 -167.014 110.877 -167.492 106.751 -167.428C104.606 -167.401 102.598 -167.138 100.8 -166.785C99.166 -166.421 97.6399 -165.961 96.3692 -165.333C96.2112 -165.242 95.9908 -165.167 95.8327 -165.076C93.7322 -163.968 92.2155 -162.671 90.6425 -161.289C88.9739 -159.799 87.2261 -158.263 84.7243 -157.029C84.5602 -157.04 84.4811 -156.994 84.4021 -156.948Z" stroke="white" stroke-opacity="0.3"/>
<path d="M29.254 -48.9354C29.4016 -49.0206 29.6074 -49.0902 29.755 -49.1754C38.4218 -52.9983 48.0361 -50.5782 57.3593 -48.236C58.3275 -48.0078 59.3171 -47.7426 60.2853 -47.5143C64.3542 -46.5177 70.49 -45.4351 76.4919 -45.9481C79.3026 -46.1931 81.8264 -46.7646 83.9683 -47.6568C84.248 -47.7691 84.4907 -47.86 84.749 -48.0091C86.7901 -48.9907 88.4917 -50.2192 89.8484 -51.7897C91.8833 -54.1455 92.896 -56.9935 93.8775 -59.7251C93.9924 -60.0375 94.1229 -60.408 94.2747 -60.7416C94.964 -62.6157 95.8108 -64.7283 97.2241 -66.6268C98.2642 -68.0638 99.6166 -69.3859 101.25 -70.4766C102.773 -71.5035 104.571 -72.3941 106.535 -73.0847C108.424 -73.7326 110.42 -74.196 112.522 -74.4749C114.587 -74.7326 116.664 -74.8 118.768 -74.7353C125.318 -74.384 131.705 -72.6101 137.823 -70.8773C139.474 -70.4037 141.162 -69.9514 142.85 -69.4991C148.38 -68.0174 153.961 -66.9588 159.365 -66.2904C169.059 -65.0968 178.926 -65.1355 188.662 -66.4261C198.302 -67.7111 207.867 -70.2326 217.095 -73.9364L217.169 -73.979C219.406 -74.8769 221.717 -75.8174 224.029 -76.4144C226.584 -77.1023 228.919 -77.3188 231.071 -77.0853C233.128 -76.846 234.997 -76.2518 236.851 -75.2558C238.509 -74.3436 240.09 -73.1403 241.672 -71.5934C244.655 -68.6416 247.166 -64.9742 249.826 -61.0485C252.694 -56.8488 255.668 -52.4646 259.266 -49.1297C259.993 -48.467 260.736 -47.8625 261.436 -47.3318C263.175 -46.0235 265.13 -44.9382 267.286 -44.0176C269.224 -43.2175 271.325 -42.5609 273.721 -42.0748C278.171 -41.1009 283.003 -40.7419 287.645 -40.3714C293.667 -39.912 299.843 -39.4427 305.485 -37.6814C310.618 -36.1186 315.18 -33.5861 319.128 -30.1577C322.895 -26.8711 326.143 -22.6943 328.728 -17.7904C330.882 -13.7197 332.557 -9.02849 333.785 -3.83317C334.878 0.702075 335.598 5.69883 335.97 10.9455C336.388 16.9531 336.49 23.0942 336.521 29.0295C336.616 36.011 336.706 43.241 337.334 50.2096C337.695 53.987 338.127 57.3783 338.723 60.6261C339.4 64.27 340.25 67.6171 341.322 70.8364C343.004 75.9663 345.31 80.9824 347.53 85.8509C349.596 90.3659 351.768 95.0655 353.385 99.7411C354.263 102.285 354.897 104.576 355.377 106.857C355.912 109.402 356.171 111.811 356.24 114.231C356.334 118.655 355.666 123.124 354.951 127.424C354.39 130.799 353.856 134.305 353.681 137.752C353.488 141.849 353.83 146.277 354.724 151.32C355.526 155.777 356.678 160.328 357.781 164.71C359.55 171.61 361.353 178.737 361.839 185.886C362.335 192.882 361.716 199.735 359.945 206.809C359.145 210.026 358.118 213.276 356.796 216.696C355.589 219.804 354.198 223.018 352.538 226.535C350.281 231.233 347.643 235.954 345.132 240.553C340.534 248.866 335.821 257.492 332.816 266.263C332.038 268.581 331.356 270.894 330.859 273.1C329.36 279.624 328.941 286.312 328.531 292.846C328.201 298.154 327.86 303.616 326.944 309.016C326.213 313.374 325.012 317.856 323.415 322.419C321.979 326.496 320.206 330.668 318.011 335.134C313.926 343.397 309.087 351.209 304.443 358.761L303.903 359.615C301.987 362.689 299.059 367.332 295.818 371.86C294.478 373.716 293.365 375.195 292.261 376.522C290.962 378.108 289.763 379.44 288.552 380.581C285.774 383.268 283.012 384.961 280.14 385.783C278.995 386.1 277.737 386.137 276.383 385.836C274.642 385.464 273.158 384.598 271.616 383.717C270.588 383.13 269.56 382.542 268.443 382.056C264.35 380.335 259.885 380.698 256.886 381.298C255.075 381.655 253.391 382.234 251.756 382.981C251.476 383.093 251.181 383.264 250.923 383.413C249.072 384.383 247.444 385.569 246.06 387.007C244.655 388.409 243.133 390.715 241.503 393.772C240.114 396.394 238.732 399.455 237.473 402.643C236.449 405.3 235.302 407.832 234.166 410.21C231.94 414.792 229.369 419.032 226.579 422.807C223.595 426.843 220.255 430.346 216.748 433.305C211.929 434.759 206.173 435.868 199.596 436.664C193.246 437.427 185.997 437.824 177.985 437.923C177.546 437.93 177.049 437.922 176.61 437.929C172.911 437.998 169.095 438.037 165.183 437.737L164.828 437.548C163.646 436.951 162.407 436.338 161.13 435.746C160.442 435.406 159.716 435.087 158.97 434.731C154.844 432.783 150.522 430.751 146.207 427.88C142.448 425.375 139.005 422.394 135.72 419.517C132.601 416.841 129.417 414.054 125.971 411.664C123.999 410.294 121.799 408.956 119.532 407.755C117.402 406.623 115.066 405.561 112.641 404.599C108.358 402.89 103.573 401.421 98.0707 400.071C92.859 398.799 87.379 397.83 82.0524 396.871C74.8532 395.566 67.4056 394.256 60.5626 392.204C56.8684 391.09 53.6654 389.888 50.715 388.443C47.431 386.845 44.5742 385.05 41.97 383.011C40.1454 381.555 38.4839 379.956 36.9701 378.271C35.5997 376.75 34.3712 375.048 33.1313 373.156C32.0562 371.465 31.0491 369.635 30.0093 367.578C28.1157 363.702 26.4748 359.582 24.9191 355.609C22.9144 350.517 20.8401 345.22 18.1867 340.454C15.4269 335.503 12.2543 331.627 8.54105 328.605C6.31313 326.791 3.75311 325.169 0.961763 323.829C-1.57545 322.587 -4.44478 321.538 -7.51422 320.653C-12.621 319.222 -18.3649 318.307 -25.6562 317.695C-29.262 317.415 -33.2909 317.084 -36.958 316.101C-41.0908 314.994 -44.064 313.168 -46.0523 310.576C-48.1414 307.895 -49.1234 304.575 -49.0835 300.468C-49.0422 296.705 -48.1505 292.795 -47.2615 289.477C-46.269 285.657 -45.1658 281.773 -44.1307 278.026C-43.0956 274.279 -42.0136 270.358 -40.9998 266.574C-40.4129 264.267 -39.7324 261.611 -39.5274 258.983C-39.3182 256.107 -39.6724 253.704 -40.6597 251.568C-41.8871 248.931 -43.7616 246.962 -46.4209 245.595C-48.508 244.536 -50.9741 243.844 -54.2052 243.446C-57.0715 243.084 -60.074 242.997 -63.2666 242.921C-65.8091 242.864 -68.4681 242.775 -71.0007 242.565C-77.2769 242.006 -81.7605 240.461 -84.9966 237.754C-87.6704 235.509 -89.3691 232.652 -90.2576 228.982C-91.1304 225.255 -90.9799 221.084 -90.7966 217.14C-90.7414 216.469 -90.7445 215.782 -90.6893 215.11C-90.4931 211.7 -90.3026 208.195 -90.4655 204.845C-90.6726 201.078 -91.2996 197.946 -92.4318 195.303C-93.2544 193.367 -94.4148 191.528 -96.0039 189.542C-97.4071 187.794 -98.9947 186.152 -100.503 184.562C-103.11 181.836 -105.818 179.021 -107.704 175.583C-109.463 172.367 -110.388 168.719 -110.432 164.808C-110.474 161.24 -109.789 157.4 -108.384 153.44C-107.095 149.793 -105.198 146.09 -102.799 142.491C-100.542 139.072 -97.9078 135.878 -94.9503 132.99C-91.6877 129.778 -88.134 126.643 -84.6485 123.647C-80.3313 119.875 -75.8509 115.96 -71.9583 111.793C-69.8594 109.548 -68.0984 107.4 -66.5276 105.263C-64.7837 102.829 -63.3989 100.455 -62.2101 97.9976C-61.1944 95.8367 -60.359 93.5338 -59.7351 91.2055C-59.1112 88.8772 -58.6989 86.5233 -58.4767 84.181C-58.2759 81.8016 -58.3022 79.455 -58.55 77.2363C-58.8034 74.9224 -59.2995 72.6995 -60.0171 70.6045C-60.3169 69.7443 -60.6749 68.8685 -61.0485 68.0509C-62.053 65.6294 -63.0787 63.171 -62.7999 60.5007C-62.6782 59.3479 -62.2711 58.1781 -61.6427 56.8803C-61.0454 55.6991 -60.3104 54.5859 -59.6279 53.5522C-53.5307 44.7672 -46.1514 36.6689 -37.5893 29.5114C-35.4094 27.6624 -33.0918 25.8815 -30.8054 24.217C-27.5865 21.8666 -24.1504 19.6367 -20.825 17.4708C-15.4813 13.9428 -9.93189 10.3451 -5.11936 6.23814C-2.50234 4.03836 -0.302678 1.88272 1.60596 -0.350912C3.7459 -2.8657 5.48411 -5.3945 6.96246 -8.11775C9.43105 -12.7904 11.1513 -18.1627 12.7665 -23.376C14.4343 -28.6688 16.1857 -34.1575 18.6813 -38.6982C20.0234 -41.146 21.5049 -43.1821 23.1993 -44.8493C25.1422 -46.5122 27.0653 -47.8685 29.254 -48.9354ZM84.7703 -47.9722C84.4907 -47.86 84.2693 -47.7322 83.9896 -47.6199C81.8477 -46.7278 79.3239 -46.1562 76.5132 -45.9112C70.5113 -45.3982 64.3755 -46.4808 60.3066 -47.4775C59.3384 -47.7057 58.3489 -47.9708 57.3806 -48.1991C48.0574 -50.5413 38.4644 -52.9245 29.7763 -49.1385C27.3761 -48.0972 25.2685 -46.6344 23.3953 -44.7656C21.7221 -43.0615 20.2563 -41.0835 18.8773 -38.6144C16.3447 -34.0525 14.6302 -28.5851 12.9625 -23.2923C11.3103 -18.0577 9.62696 -12.7068 7.12147 -8.01279C5.68003 -5.31085 3.92624 -2.72379 1.765 -0.245907C-0.14364 1.98772 -2.34333 4.14337 -4.96035 6.34316C-9.79418 10.4133 -15.3223 14.0478 -20.6659 17.5758C-23.9914 19.7417 -27.4062 22.0085 -30.6464 24.322C-32.9328 25.9865 -35.2504 27.7674 -37.4303 29.6164C-45.9924 36.7739 -53.393 44.8353 -59.4689 53.6572C-60.1514 54.6909 -60.9077 55.7672 -61.5049 56.9485C-62.1334 58.2462 -62.5404 59.416 -62.6622 60.5688C-62.9623 63.2022 -61.9152 65.6975 -60.9321 68.0821C-60.5954 68.921 -60.2374 69.7968 -59.9007 70.6356C-59.1831 72.7307 -58.6869 74.9537 -58.4335 77.2675C-58.1645 79.5232 -58.1382 81.8697 -58.3603 84.2121C-58.5824 86.5545 -58.9948 88.9084 -59.6187 91.2367C-60.2425 93.565 -61.0993 95.831 -62.0937 98.0288C-63.2612 100.523 -64.6829 102.919 -66.4112 105.294C-67.9607 107.468 -69.743 109.58 -71.8419 111.825C-75.7345 115.991 -80.2149 119.906 -84.5321 123.678C-87.9594 126.69 -91.5713 129.809 -94.8339 133.021C-97.7701 135.946 -100.404 139.14 -102.683 142.522C-105.082 146.121 -106.942 149.803 -108.268 153.472C-109.672 157.431 -110.379 161.235 -110.316 164.839C-110.272 168.75 -109.368 172.361 -107.588 175.614C-105.723 179.015 -103.015 181.831 -100.386 184.594C-98.8783 186.183 -97.2907 187.825 -95.8875 189.574C-94.3197 191.522 -93.1749 193.42 -92.3154 195.335C-91.1832 197.977 -90.5192 201.088 -90.349 204.876C-90.1861 208.227 -90.3767 211.732 -90.5729 215.142C-90.628 215.813 -90.625 216.5 -90.6801 217.172C-90.9003 221.137 -91.014 225.286 -90.1412 229.014C-89.2741 232.646 -87.554 235.54 -84.8802 237.785C-81.6227 240.529 -77.1974 242.058 -70.8843 242.596C-68.3517 242.807 -65.6927 242.895 -63.1502 242.952C-59.9576 243.028 -56.9551 243.115 -54.0888 243.478C-50.8577 243.876 -48.3548 244.546 -46.2676 245.605C-43.6083 246.972 -41.6969 248.919 -40.5064 251.578C-39.5191 253.714 -39.1648 256.117 -39.374 258.993C-39.579 261.621 -40.2596 264.277 -40.8466 266.584C-41.8604 270.368 -42.9053 274.268 -43.9773 278.036C-45.0124 281.782 -46.0943 285.704 -47.1081 289.487C-47.9972 292.805 -48.8888 296.715 -48.9302 300.478C-48.97 304.585 -47.9881 307.905 -45.899 310.586C-43.8894 313.215 -40.9006 314.983 -36.8047 316.111C-33.1745 317.115 -29.1087 317.425 -25.5028 317.705C-18.2329 318.28 -12.4307 319.211 -7.32399 320.642C-4.25455 321.526 -1.38522 322.576 1.18889 323.796C3.98024 325.137 6.54025 326.759 8.76817 328.572C12.5027 331.631 15.6753 335.507 18.4139 340.421C21.1254 345.203 23.1784 350.463 25.1462 355.576C26.7232 359.586 28.3272 363.728 30.2364 367.546C32.3856 371.865 34.6581 375.375 37.1972 378.239C38.6742 379.945 40.3725 381.523 42.1972 382.979C44.7645 385.039 47.6212 386.834 50.9421 388.41C53.8712 389.819 57.0955 391.057 60.7684 392.135C67.6115 394.187 75.0591 395.496 82.2582 396.801C87.5848 397.76 93.0648 398.73 98.2765 400.001C103.779 401.351 108.564 402.82 112.847 404.529C115.272 405.491 117.608 406.554 119.738 407.686C122.042 408.865 124.183 410.187 126.177 411.595C129.623 413.984 132.843 416.75 135.926 419.448C139.247 422.303 142.691 425.284 146.412 427.81C150.749 430.719 155.012 432.735 159.175 434.661C159.922 435.017 160.611 435.358 161.336 435.677C162.576 436.29 163.815 436.903 165.033 437.478L165.388 437.667C169.301 437.967 173.117 437.929 176.816 437.859C177.255 437.852 177.752 437.861 178.19 437.853C186.203 437.754 193.489 437.336 199.802 436.594C206.4 435.836 212.135 434.69 216.954 433.236C220.482 430.313 223.801 426.773 226.785 422.738C229.575 418.962 232.146 414.722 234.372 410.14C235.545 407.741 236.633 405.194 237.678 402.573C238.938 399.386 240.32 396.325 241.709 393.702C243.339 390.645 244.883 388.376 246.266 386.938C247.671 385.536 249.278 384.313 251.129 383.343C252.979 382.373 254.979 381.661 257.092 381.229C260.128 380.608 264.592 380.244 268.686 381.965C269.803 382.451 270.868 383.017 271.859 383.626C273.422 384.544 274.885 385.373 276.625 385.745C277.98 386.046 279.237 386.009 280.346 385.713C283.218 384.892 285.958 383.162 288.721 380.533C291.5 377.846 294.027 374.468 295.929 371.796C299.17 367.268 302.098 362.625 304.014 359.551L304.554 358.697C309.235 351.124 314.073 343.312 318.122 335.07C320.317 330.604 322.09 326.432 323.525 322.356C325.122 317.792 326.323 313.31 327.054 308.952C327.971 303.552 328.311 298.09 328.642 292.782C329.036 286.306 329.434 279.581 330.969 273.037C331.467 270.83 332.149 268.518 332.926 266.199C335.969 257.407 340.682 248.781 345.28 240.468C347.791 235.869 350.407 231.111 352.686 226.45C356.237 219.135 358.608 212.845 360.129 206.702C361.9 199.628 362.52 192.775 362.023 185.78C361.516 178.594 359.713 171.467 357.965 164.604C356.862 160.222 355.695 155.729 354.909 151.214C354.036 146.207 353.672 141.743 353.865 137.645C354.019 134.162 354.574 130.692 355.135 127.318C355.793 123.002 356.518 118.548 356.424 114.125C356.355 111.704 356.059 109.317 355.562 106.75C355.081 104.469 354.426 102.141 353.569 99.6346C351.952 94.959 349.78 90.2594 347.715 85.7443C345.494 80.8758 343.167 75.8228 341.506 70.7299C340.435 67.5106 339.585 64.1635 338.908 60.5196C338.312 57.2717 337.821 53.8649 337.498 50.0662C336.848 43.0607 336.758 35.8307 336.685 28.8861C336.595 22.9352 336.53 16.7728 336.134 10.8021C335.761 5.55538 335.026 0.616862 333.948 -3.97659C332.72 -9.17191 331.008 -13.8418 328.892 -17.9338C326.306 -22.8377 323.058 -27.0145 319.291 -30.3011C315.344 -33.7295 310.782 -36.2621 305.648 -37.8248C300.027 -39.5492 293.794 -40.0341 287.808 -40.5149C283.166 -40.8853 278.334 -41.2444 273.885 -42.2182C271.467 -42.7413 269.387 -43.3609 267.449 -44.161C265.257 -45.0603 263.36 -46.1301 261.599 -47.4753C260.878 -48.0429 260.135 -48.6474 259.429 -49.2732C255.831 -52.6081 252.878 -56.9553 249.99 -61.1919C247.329 -65.1176 244.818 -68.7851 241.835 -71.7369C240.232 -73.3206 238.651 -74.5239 237.014 -75.3993C235.16 -76.3952 233.292 -76.9894 231.234 -77.2287C229.082 -77.4622 226.784 -77.267 224.192 -76.5578C221.88 -75.9608 219.569 -75.0203 217.332 -74.1224L217.258 -74.0798C208.031 -70.376 198.465 -67.8546 188.825 -66.5696C179.09 -65.2789 169.243 -65.2034 159.529 -66.4339C154.066 -67.1178 148.522 -68.1977 142.992 -69.6794C141.325 -70.0948 139.616 -70.584 137.965 -71.0576C131.81 -72.7691 125.46 -74.5643 118.91 -74.9157C116.822 -75.0385 114.708 -74.9498 112.664 -74.6553C110.562 -74.3764 108.529 -73.8917 106.676 -73.265C104.713 -72.5745 102.952 -71.7051 101.429 -70.6783C99.7954 -69.5875 98.443 -68.2654 97.4029 -66.8285C96.0478 -64.9144 95.1641 -62.7805 94.4534 -60.9433C94.3017 -60.6097 94.2081 -60.2604 94.0563 -59.9268C93.0379 -57.1738 92.0039 -54.3627 89.9903 -51.97C88.5131 -50.1823 86.8327 -48.9169 84.7703 -47.9722Z" stroke="white" stroke-opacity="0.3"/>
<path d="M8.70355 75.5284C8.81471 75.4642 8.98146 75.3679 9.12471 75.3593C21.0113 70.2752 34.844 73.183 48.1828 76.0054C49.8721 76.364 51.649 76.7462 53.3383 77.1049C59.8002 78.4135 68.2615 79.9759 76.3737 80.0353C80.402 80.0811 84.2378 79.7933 87.618 79.1016C91.428 78.3841 94.8936 77.1984 97.9592 75.5767C102.502 73.1763 106.412 69.8074 109.957 65.1664C113.749 60.3094 116.741 54.5803 119.63 49.0587C122.053 44.3988 124.555 39.6192 127.489 35.3313C129.103 32.9916 130.71 31.0261 132.39 29.315C134.284 27.3323 136.283 25.6596 138.442 24.2649C139.744 23.4391 141.133 22.6369 142.587 21.9458C148.601 19.1407 155.767 17.8192 164.008 18.1009C168.475 18.2641 173.286 18.8954 178.21 19.9801C182.729 21.0028 187.384 22.3911 192.088 24.1215C192.734 24.3415 193.412 24.6172 194.058 24.8372C198.412 26.4736 202.973 28.2126 207.491 29.2354C212.591 30.367 216.97 30.5067 220.97 29.6052C224.684 28.721 228.083 26.9067 231.339 25.1011C232.927 24.2581 234.484 23.3596 236.136 22.6278C236.192 22.5957 236.192 22.5957 236.247 22.5636C238.877 21.3419 241.667 20.3981 244.562 19.7642C248.849 18.8456 253.401 18.5148 258.083 18.9239C262.678 19.3094 267.252 20.3001 271.662 21.9044C276.127 23.4767 280.284 25.6712 284.125 28.3448C288.086 31.0975 291.467 34.2588 294.301 37.8842C300.338 45.5155 304.209 54.9158 305.48 65.076C306.059 69.9294 306.097 74.8729 305.497 79.7395C304.898 84.6062 303.717 89.364 302.034 93.8932C299.972 99.3077 297.098 104.598 294.327 109.682C291.737 114.438 289.044 119.401 287.044 124.41C285.942 127.121 285.141 129.585 284.571 132.063C283.93 134.804 283.568 137.385 283.468 140.036C283.367 144.097 283.911 148.377 285.183 153.275C286.332 157.577 287.92 161.996 289.468 166.216C292.215 173.671 295.012 181.468 295.43 189.379C296.273 205.345 288.18 211.351 279.619 217.702C274.858 221.266 269.931 224.926 266.238 230.467C264.316 233.429 264.004 238.279 263.708 243.415C263.442 248.089 263.162 252.994 261.579 256.798C260.752 258.832 259.58 260.397 258.12 261.463C256.47 262.712 254.324 263.358 251.745 263.513C250.169 263.608 248.465 263.48 246.609 263.217C244.578 262.908 242.64 262.248 240.703 261.588C238.032 260.684 235.361 259.781 232.488 259.809C229.184 259.864 226.078 261.287 223.622 263.965C221.895 265.851 220.433 268.325 219.474 271.028C218.57 273.699 218.137 276.543 218.269 279.209C218.456 283.77 219.67 288.183 220.764 292.516C221.841 296.564 222.926 300.754 223.24 305.02C223.734 312.294 221.857 319.825 217.403 328.028C213.495 335.25 208.184 342.096 203.069 348.384C197.796 354.911 192.564 359.711 187.593 362.655C184.457 364.539 181.334 365.676 178.311 366.087C174.945 366.548 171.695 366.053 168.592 364.658C161.349 361.355 157.479 353.881 153.649 346.606C151.409 342.341 149.265 338.243 146.512 335.015C145.056 333.262 143.537 331.916 141.869 330.952C140.017 329.798 138.08 329.138 135.905 328.837C131.962 328.297 128.09 329.421 124.369 332.088C120.568 334.876 117.862 338.661 116.298 341.343C115.437 342.804 114.608 344.32 113.834 345.804C112.334 348.597 110.778 351.422 108.974 353.945C106.901 356.773 104.73 358.916 102.205 360.448C101.649 360.769 101.093 361.089 100.505 361.355C98.4638 362.311 96.2852 362.902 93.9375 363.072C91.1045 363.299 88.0939 362.962 84.9933 362.085C80.7529 360.901 76.5635 358.651 72.8806 355.738C69.1657 352.769 66.1561 349.097 64.1728 345.277C61.0726 339.137 59.4818 332.274 59.3979 324.17C59.3313 316.353 60.7058 308.593 61.9055 302.713C62.2642 301.024 62.6229 299.334 62.926 297.677C65.5541 285.414 68.2442 272.744 65.5524 259.995C64.7386 256.019 63.4011 252.418 61.5955 249.163C59.5973 245.573 57.0604 242.591 54.1368 240.352C46.4611 234.63 36.435 233.823 26.7275 233.054C20.8345 232.603 15.3158 232.158 10.2543 230.707C7.50436 229.924 5.23116 228.939 3.17171 227.682C0.872725 226.267 -1.0137 224.54 -2.63941 222.366C-4.26511 220.192 -5.47822 217.706 -6.10345 214.954C-6.74357 212.434 -6.90696 209.712 -6.64917 206.821C-6.14449 200.379 -3.61476 194.62 -1.64882 190.965C-0.0461555 187.965 1.87513 185.003 3.68523 182.105C5.65348 178.967 7.73288 175.766 9.4616 172.47C11.3955 168.76 12.7179 165.403 13.4994 162.135C14.7806 156.653 14.6034 150.826 12.9146 145.206C11.3134 139.608 8.33762 134.583 4.36364 130.652C2.43654 128.726 0.208021 127.048 -1.95631 125.481C-3.9132 124.017 -5.95776 122.53 -7.75651 120.826C-9.7392 118.933 -11.1168 117.06 -12.0732 115.018C-13.327 112.333 -13.7385 109.31 -13.4188 106.013C-13.1375 103.034 -12.1486 99.8695 -10.5631 96.5827C-9.10372 93.5909 -7.21454 90.5733 -4.86352 87.5856C-2.72622 84.8694 -0.182663 82.2151 2.41019 79.9029C4.57559 78.134 6.49516 76.5811 8.70355 75.5284ZM96.6487 76.2592C93.908 77.5452 90.9192 78.5297 87.6501 79.1572C84.2378 79.7933 80.4897 80.1046 76.4058 80.0909C68.2615 79.9759 59.8323 78.4691 53.3704 77.1605C51.6811 76.8018 49.9042 76.4196 48.2149 76.0609C34.8205 73.2707 20.9878 70.3629 9.15682 75.4149C9.04565 75.4791 8.8468 75.5198 8.73563 75.5839C6.52724 76.6366 4.63977 78.2451 2.61763 80.0055C0.0247749 82.3177 -2.46322 84.9399 -4.6561 87.6881C-7.00712 90.6759 -8.89628 93.6935 -10.3557 96.6852C-11.9412 99.9721 -12.9301 103.137 -13.2114 106.115C-13.5311 109.413 -13.1196 112.436 -11.8657 115.121C-10.9414 117.107 -9.53175 119.035 -7.58115 120.873C-5.8145 122.521 -3.79342 124.097 -1.78095 125.528C0.415467 127.151 2.64398 128.828 4.539 130.699C8.48088 134.574 11.4011 139.632 13.0899 145.253C14.7231 150.905 14.9324 156.787 13.6748 162.182C12.8932 165.45 11.6029 168.863 9.66904 172.573C7.94032 175.869 5.86091 179.07 3.89267 182.207C2.05048 185.05 0.161292 188.067 -1.44137 191.067C-3.46289 194.754 -5.93704 200.481 -6.44172 206.924C-6.69951 209.814 -6.48058 212.504 -5.89604 215.057C-5.21524 217.777 -4.05766 220.295 -2.43196 222.469C-0.838345 224.587 1.08016 226.37 3.37915 227.785C5.4386 229.041 7.74389 230.082 10.4617 230.81C15.5232 232.26 21.0976 232.673 26.9349 233.157C36.6424 233.926 46.7241 234.701 54.3999 240.422C57.379 242.63 59.9158 245.612 61.9461 249.257C63.7197 252.457 65.0337 256.145 65.9031 260.089C68.5393 272.871 65.8492 285.54 63.2767 297.771C62.918 299.46 62.5593 301.15 62.2562 302.807C61.0565 308.687 59.682 316.447 59.7486 324.264C59.8004 332.312 61.3356 339.207 64.4914 345.315C66.4747 349.135 69.4843 352.808 73.1992 355.776C76.8821 358.69 81.0715 360.94 85.3118 362.123C88.4125 363.001 91.3911 363.282 94.224 363.054C97.2559 362.786 100.022 361.93 102.491 360.43C104.961 358.931 107.132 356.788 109.205 353.96C111.009 351.437 112.533 348.556 114.065 345.819C114.839 344.335 115.668 342.818 116.529 341.358C118.149 338.644 120.854 334.858 124.655 332.071C128.345 329.348 132.249 328.28 136.192 328.82C138.366 329.12 140.336 329.836 142.156 330.935C143.768 331.93 145.287 333.277 146.799 334.998C149.552 338.225 151.664 342.268 153.936 346.589C157.733 353.808 161.691 361.305 168.879 364.641C171.982 366.036 175.232 366.531 178.597 366.07C181.565 365.691 184.656 364.499 187.88 362.637C192.906 359.662 198.138 354.862 203.356 348.367C208.438 342.023 213.781 335.233 217.69 328.011C222.088 319.84 223.997 312.364 223.47 305.035C223.189 300.825 222.072 296.579 220.995 292.531C219.845 288.23 218.687 283.785 218.499 279.224C218.368 276.558 218.801 273.714 219.673 270.988C220.6 268.229 222.062 265.755 223.789 263.868C226.277 261.246 229.351 259.768 232.71 259.681C235.552 259.597 238.31 260.524 240.925 261.459C242.863 262.12 244.8 262.78 246.831 263.089C248.632 263.384 250.36 263.424 251.967 263.385C254.49 263.262 256.693 262.583 258.343 261.334C259.858 260.237 260.974 258.703 261.801 256.67C263.384 252.865 263.641 248.048 263.93 243.286C264.226 238.15 264.507 233.245 266.46 230.339C270.153 224.798 275.08 221.138 279.841 217.574C284.189 214.323 288.291 211.287 291.313 207.023C292.871 204.715 294.046 202.258 294.774 199.54C295.597 196.472 295.884 193.119 295.684 189.307C295.267 181.396 292.446 173.686 289.722 166.144C288.175 161.923 286.619 157.56 285.437 153.203C284.166 148.305 283.589 143.969 283.722 139.964C283.822 137.312 284.185 134.731 284.825 131.99C285.395 129.512 286.196 127.048 287.299 124.337C289.299 119.329 291.991 114.365 294.581 109.609C297.353 104.526 300.227 99.2349 302.288 93.8204C304.004 89.3468 305.185 84.589 305.784 79.7223C306.383 74.8557 306.345 69.9122 305.766 65.0588C304.495 54.8986 300.624 45.4983 294.588 37.867C291.786 34.2972 288.317 31.1124 284.411 28.3277C280.57 25.654 276.445 23.515 271.948 21.8872C267.539 20.2828 262.965 19.2922 258.37 18.9067C253.687 18.4976 249.135 18.8284 244.848 19.747C241.953 20.3809 239.163 21.3247 236.534 22.5464C236.478 22.5785 236.478 22.5785 236.423 22.6106C234.802 23.398 233.158 24.273 231.625 25.0838C228.37 26.8895 224.971 28.7038 221.257 29.588C217.289 30.545 212.91 30.4053 207.778 29.2181C203.259 28.1954 198.73 26.512 194.344 24.82C193.699 24.6 193.021 24.3244 192.375 24.1043C187.726 22.3418 183.071 20.9535 178.497 19.9629C173.572 18.8783 168.817 18.2148 164.35 18.0516C154.119 17.6593 145.53 19.7275 138.839 24.1835C136.68 25.5783 134.682 27.251 132.788 29.2336C131.084 31.0324 129.477 32.9979 127.887 35.2499C124.953 39.5378 122.395 44.3495 119.995 48.9217C117.106 54.4434 114.115 60.1725 110.323 65.0295C106.745 69.6149 102.868 73.0393 98.3248 75.4398C97.5145 75.8335 97.0934 76.0025 96.6487 76.2592Z" stroke="white" stroke-opacity="0.3"/>
<path d="M235.897 125.549C233.47 124.619 230.841 123.994 228.009 123.675C225.375 123.369 222.68 123.286 219.98 123.522C218.397 123.617 216.698 123.841 214.98 124.14C213.817 124.307 212.708 124.569 211.571 124.784C209.59 125.172 207.561 125.587 205.477 125.908C199.868 126.563 194.193 126.121 188.595 124.501C185.856 123.687 183.063 122.779 180.419 121.911C175.877 120.374 171.585 118.944 167.656 118.251C161.525 117.127 156.888 117.283 151.521 117.483C150.594 117.515 149.572 117.6 148.523 117.639C147.595 117.67 146.621 117.729 145.646 117.787C143.866 117.869 141.985 117.885 140.055 117.927C135.805 117.987 131.384 118.081 127.434 118.66C124.017 119.183 121.347 119.906 119.158 120.917C119.063 120.972 118.922 121.054 118.867 120.959C117.564 121.649 116.409 122.378 115.486 123.29C114.515 124.228 113.701 125.328 113.165 126.583C112.495 128.041 112.366 129.565 112.245 131.211C112.174 132.071 112.084 133.005 111.938 133.845C110.557 141.386 104.932 147.47 99.5153 153.37C96.5309 156.605 93.7282 159.61 91.6237 162.841C90.6823 164.267 90.3773 165.704 90.0051 167.242C89.8926 167.811 89.76 168.455 89.5529 169.079C88.3397 173.308 86.9282 177.085 85.2911 180.362C84.6805 181.597 83.9755 182.886 83.3377 184.073C81.9748 186.625 80.5647 189.204 79.6019 191.902C77.442 197.876 78.3816 202.123 79.5097 204.622C81.3419 208.669 84.459 210.903 87.7798 213.271C89.7221 214.67 91.7662 216.137 93.616 218.031C95.2547 219.668 96.7736 221.753 98.349 224.373C99.9517 227.04 101.182 229.607 102.357 232.079C103.034 233.579 103.703 234.957 104.42 236.307C106.325 239.934 108.535 243.763 112.206 247.063C114.041 248.714 116.356 250.213 118.763 251.218C121.3 252.337 123.848 252.82 126.068 252.735C128.166 252.658 129.944 252.136 131.647 251.593C132.005 251.45 132.438 251.326 132.824 251.229C135.034 250.583 137.685 249.935 140.523 250.376C143.558 250.83 145.988 252.2 148.295 253.577C150.399 254.82 152.605 256.13 155.275 256.606C157.402 257.016 159.689 256.83 162.211 256.067M235.897 125.549C238.474 126.519 240.849 127.795 242.846 129.289M235.897 125.549C238.521 126.492 240.822 127.748 242.846 129.289M235.897 125.549C233.47 124.619 230.793 124.022 228.057 123.648C225.395 123.294 222.727 123.259 220.027 123.494C218.397 123.617 216.746 123.813 215.028 124.112C213.891 124.327 212.755 124.542 211.619 124.757C209.637 125.145 207.608 125.56 205.497 125.833C199.888 126.488 194.186 125.999 188.54 124.406C185.754 123.62 183.036 122.732 180.365 121.816C175.849 120.327 171.558 118.897 167.629 118.204C161.497 117.08 156.861 117.236 151.494 117.436C150.566 117.467 149.545 117.553 148.495 117.592C147.595 117.67 146.668 117.701 145.619 117.74C143.839 117.822 141.957 117.837 140.028 117.88C135.777 117.939 131.357 118.033 127.406 118.613C124.037 119.109 121.319 119.859 119.131 120.87C119.036 120.925 118.942 120.979 118.8 121.061C117.469 121.703 116.342 122.48 115.466 123.364C114.448 124.33 113.681 125.403 113.145 126.658C112.475 128.116 112.346 129.64 112.225 131.285C112.154 132.145 112.084 133.005 111.918 133.92C110.564 141.508 104.939 147.591 99.4954 153.444C96.5109 156.68 93.7082 159.684 91.6037 162.916C90.6624 164.342 90.3101 165.806 89.9851 167.317C89.8253 167.913 89.6928 168.557 89.533 169.153C88.3398 173.308 86.8809 177.112 85.2711 180.436C84.6606 181.671 83.9555 182.961 83.3177 184.148C81.9549 186.699 80.5448 189.278 79.582 191.977C78.4121 195.299 77.4318 200.15 79.4897 204.697C81.2946 208.696 84.439 210.977 87.7598 213.345C89.7021 214.745 91.7463 216.211 93.6433 218.078C95.282 219.716 96.8009 221.801 98.3763 224.42C99.9517 227.04 101.134 229.634 102.384 232.126C103.108 233.599 103.751 234.929 104.447 236.355C106.352 239.981 108.563 243.81 112.233 247.111C114.068 248.761 116.43 250.233 118.791 251.265C121.375 252.357 123.875 252.867 126.095 252.783C128.193 252.706 129.944 252.136 131.675 251.641C132.06 251.544 132.418 251.401 132.851 251.277C135.109 250.603 137.712 249.982 140.551 250.423C143.613 250.924 145.995 252.322 148.323 253.625C150.529 254.935 152.68 256.15 155.302 256.653C157.429 257.063 159.669 256.905 162.211 256.067M242.846 129.289C244.999 130.945 246.802 132.866 248.132 135.06C250 138.078 251.105 141.41 251.438 144.935M251.438 144.935C251.738 148.292 251.333 151.739 250.171 155.183M251.438 144.935C251.69 148.319 251.286 151.766 250.171 155.183M250.171 155.183C249.175 158.153 247.665 161.104 246.223 163.954C245.022 166.349 243.726 168.798 242.749 171.253C241.771 173.708 241.132 176.094 240.513 178.405C239.734 181.312 238.947 184.098 237.666 186.791C236.56 189.132 235.053 191.325 233.039 193.622C231.227 195.613 229.211 197.471 227.215 199.253C225.2 201.11 223.089 203.022 221.163 205.142C219.741 206.719 218.578 208.525 217.348 210.433C215.271 213.712 213.126 217.092 209.582 219.139L209.534 219.166C208.92 219.521 208.258 219.903 207.596 220.285C206.813 220.674 206.077 221.036 205.34 221.399C204.199 221.932 203.057 222.465 201.876 223.147C198.945 224.839 195.939 227.709 193.053 231.77C192.4 232.714 191.748 233.658 191.115 234.527C189.609 236.72 188.169 238.812 186.479 240.796C184.378 243.269 181.728 245.556 178.319 247.838C175.593 249.665 172.379 251.52 168.434 253.42C166.556 254.315 164.469 255.394 162.211 256.067M250.171 155.183C249.175 158.153 247.665 161.104 246.128 164.008C244.9 166.356 243.631 168.853 242.654 171.308C241.677 173.763 241.037 176.148 240.418 178.459C239.639 181.367 238.825 184.105 237.572 186.846C236.492 189.234 234.939 191.454 232.945 193.677C231.133 195.668 229.117 197.525 227.121 199.308C225.105 201.165 222.995 203.076 221.068 205.197C219.674 206.821 218.511 208.627 217.281 210.535C215.224 213.739 213.079 217.12 209.562 219.214L209.514 219.241C208.9 219.596 208.266 220.025 207.577 220.36C206.84 220.722 206.057 221.111 205.32 221.473C204.179 222.006 203.037 222.539 201.856 223.221C198.898 224.866 195.919 227.783 193.033 231.844C192.353 232.741 191.701 233.685 191.095 234.601C189.589 236.795 188.197 238.859 186.459 240.87C184.358 243.344 181.708 245.63 178.299 247.913C175.573 249.739 172.331 251.548 168.461 253.467C167.867 253.747 167.272 254.028 166.63 254.335C165.252 255.005 163.773 255.607 162.211 256.067" stroke="white" stroke-opacity="0.3"/>
<path d="M118.884 188.041C118.538 189.914 118.646 191.721 119.172 193.484C120.315 197.252 122.492 200.768 125.757 203.951C127.259 205.445 128.983 206.812 130.855 208.093C132.646 209.322 134.623 210.444 136.704 211.408C140.714 213.324 145.149 214.7 149.486 215.394C153.823 216.088 158.025 216.122 161.574 215.451C166.01 214.612 170.441 212.743 175.01 209.662C179.342 206.767 183.29 203.209 186.595 200.07C191.474 195.482 196.567 190.327 202.259 184.335C205.689 180.731 208.137 177.3 209.587 174.101C210.498 172.1 210.976 170.2 211.079 168.418C211.207 166.425 210.808 164.54 209.923 162.837C208.67 160.411 206.574 158.571 203.678 157.389C201.268 156.369 198.354 155.838 195.225 155.873C193.507 155.88 191.737 155.968 190.025 156.07C186.088 156.326 182.036 156.55 178.046 155.606C174.21 154.671 170.812 152.451 167.537 150.357C165.136 148.84 162.692 147.249 160.029 146.13C158.091 145.33 155.964 144.885 153.844 144.879C151.688 144.893 149.65 145.283 147.883 146.057C147.787 146.063 147.714 146.106 147.64 146.148C145.245 147.285 143.541 149.105 142.742 151.387C142.435 152.302 142.323 153.302 142.232 154.338C142.166 154.819 142.121 155.338 142.038 155.877C141.535 159.267 139.901 162.573 136.978 166.032C134.375 169.109 131.09 171.94 128.42 174.22C125.009 177.174 122.453 180.076 120.848 182.921M118.884 188.041C119.204 186.38 119.825 184.644 120.848 182.921M118.884 188.041C119.204 186.38 119.862 184.622 120.848 182.921M118.884 188.041C118.575 189.892 118.646 191.721 119.188 193.426C120.33 197.194 122.566 200.725 125.772 203.893C127.254 205.35 128.999 206.754 130.849 207.998C132.641 209.227 134.617 210.349 136.699 211.312C140.745 213.208 145.122 214.568 149.459 215.262C153.796 215.956 157.998 215.99 161.547 215.319C164.156 214.895 166.721 214.054 169.358 212.827C171.215 211.952 173.097 210.865 175.063 209.582C179.394 206.688 183.379 203.108 186.648 199.991C191.505 195.366 196.657 190.226 202.312 184.255C205.742 180.651 208.19 177.221 209.603 174.043C210.476 172.063 210.991 170.142 211.115 168.397C211.244 166.404 210.844 164.519 209.96 162.816C208.707 160.39 206.632 158.586 203.736 157.405C201.348 156.422 198.396 155.912 195.304 155.925C193.587 155.933 191.816 156.02 190.104 156.123C186.168 156.378 182.078 156.624 178.089 155.68C174.253 154.745 170.876 152.562 167.579 150.43C165.178 148.914 162.713 147.286 160.071 146.204C158.17 145.383 156.065 144.974 153.924 144.931C151.804 144.925 149.729 145.336 147.999 146.089C147.925 146.131 147.851 146.174 147.756 146.179C145.362 147.316 143.636 149.099 142.838 151.381C142.493 152.318 142.418 153.296 142.327 154.332C142.282 154.851 142.216 155.332 142.133 155.871C141.572 159.246 139.938 162.551 137.036 166.047C134.434 169.124 131.148 171.956 128.479 174.235C125.046 177.152 122.511 180.092 120.848 182.921" stroke="white" stroke-opacity="0.3"/>
</g>
<defs>
<clipPath id="clip0_135_542">
<rect width="364" height="327" fill="white" transform="translate(45 68.334)"/>
</clipPath>
</defs>
</svg>
