<svg width="175" height="394" viewBox="0 0 175 394" fill="none" xmlns="http://www.w3.org/2000/svg">
<g clip-path="url(#clip0_57_733)">
<path d="M122.682 0C109.377 0 96.8285 5.20017 87.4621 14.4391C78.0956 5.20017 65.5471 0 52.2423 0C24.5386 0 2 22.5386 2 50.2423V170.924H32.0453V50.2423C32.0453 39.1056 41.1059 30.0453 52.2423 30.0453C63.3788 30.0453 72.4394 39.1056 72.4394 50.2423V170.924H102.485V50.2423C102.485 39.1056 111.545 30.0453 122.682 30.0453C133.818 30.0453 142.879 39.1056 142.879 50.2423V170.924H172.924V50.2423C172.924 22.5386 150.385 0 122.682 0Z" fill="white" fill-opacity="0.1"/>
</g>
<g clip-path="url(#clip1_57_733)">
<path d="M122.682 393.123C109.377 393.123 96.8285 387.922 87.4621 378.683C78.0956 387.922 65.5471 393.123 52.2423 393.123C24.5386 393.123 2 370.584 2 342.88V222.198H32.0453V342.88C32.0453 354.017 41.1059 363.077 52.2423 363.077C63.3788 363.077 72.4394 354.017 72.4394 342.88V222.198H102.485V342.88C102.485 354.017 111.545 363.077 122.682 363.077C133.818 363.077 142.879 354.017 142.879 342.88V222.198H172.924V342.88C172.924 370.584 150.385 393.123 122.682 393.123Z" fill="white" fill-opacity="0.1"/>
</g>
<path d="M2 193.712H172.924" stroke="white" stroke-opacity="0.1" stroke-width="2.29241" stroke-linecap="round"/>
<defs>
<clipPath id="clip0_57_733">
<rect width="170.924" height="170.924" fill="white" transform="translate(2)"/>
</clipPath>
<clipPath id="clip1_57_733">
<rect width="170.924" height="170.924" fill="white" transform="matrix(1 0 0 -1 2 393.123)"/>
</clipPath>
</defs>
</svg>
