<svg width="160" height="43" viewBox="0 0 160 43" fill="none" xmlns="http://www.w3.org/2000/svg">
<g clip-path="url(#clip0_43_346)">
<path d="M14.7231 0.819977C13.3204 0.819977 11.9975 1.36821 11.01 2.34224C10.0225 1.36821 8.69955 0.819977 7.29688 0.819977C4.37617 0.819977 2 3.19615 2 6.11686V18.8399H5.16757V6.11686C5.16757 4.94275 6.1228 3.98755 7.29688 3.98755C8.47096 3.98755 9.42619 4.94275 9.42619 6.11686V18.8399H12.5938V6.11686C12.5938 4.94275 13.549 3.98755 14.7231 3.98755C15.8972 3.98755 16.8524 4.94275 16.8524 6.11686V18.8399H20.02V6.11686C20.02 3.19615 17.6438 0.819977 14.7231 0.819977Z" fill="#3D3D3D"/>
</g>
<g clip-path="url(#clip1_43_346)">
<path d="M14.7231 42.2656C13.3204 42.2656 11.9975 41.7174 11.01 40.7434C10.0225 41.7174 8.69955 42.2656 7.29688 42.2656C4.37617 42.2656 2 39.8895 2 36.9687V24.2457H5.16757V36.9687C5.16757 38.1429 6.1228 39.0981 7.29688 39.0981C8.47096 39.0981 9.42619 38.1429 9.42619 36.9687V24.2457H12.5938V36.9687C12.5938 38.1429 13.549 39.0981 14.7231 39.0981C15.8972 39.0981 16.8524 38.1429 16.8524 36.9687V24.2457H20.02V36.9687C20.02 39.8895 17.6438 42.2656 14.7231 42.2656Z" fill="#18CFE8"/>
</g>
<path d="M2 21.2424H20.02" stroke="#3D3D3D" stroke-width="2.29241" stroke-linecap="round"/>
<path d="M157.106 0.76001L159.999 18.84H157.132L156.641 15.5598H153.154L152.663 18.84H150.055L152.947 0.76001H157.106ZM154.885 3.96276L153.516 13.1061H156.254L154.885 3.96276Z" fill="#3D3D3D"/>
<path d="M142.622 11.0915V18.84H139.781V0.76001H142.622V8.50859H145.851V0.76001H148.744V18.84H145.851V11.0915H142.622Z" fill="#3D3D3D"/>
<path d="M134.847 0.76001H137.688V18.84H134.847V11.5564C134.227 12.2279 133.194 12.5637 132.419 12.5637C130.095 12.5637 128.881 10.8848 128.881 8.40528V0.76001H131.722V8.17282C131.722 9.38676 132.471 9.95499 133.375 9.95499C134.279 9.95499 134.847 9.30928 134.847 8.09533V0.76001Z" fill="#3D3D3D"/>
<path d="M124.143 18.84V0.76001H126.984V18.84H124.143Z" fill="#3D3D3D"/>
<path d="M117.577 18.84H114.736V0.76001H122.227V3.34287H117.577V18.84Z" fill="#3D3D3D"/>
<path d="M107.077 4.91829V14.6815C107.077 15.9729 107.646 16.4637 108.55 16.4637C109.454 16.4637 110.022 15.9729 110.022 14.6815V4.91829C110.022 3.62686 109.454 3.13611 108.55 3.13611C107.646 3.13611 107.077 3.62686 107.077 4.91829ZM104.236 14.5007V5.09909C104.236 2.20628 105.76 0.553253 108.55 0.553253C111.339 0.553253 112.863 2.20628 112.863 5.09909V14.5007C112.863 17.3935 111.339 19.0465 108.55 19.0465C105.76 19.0465 104.236 17.3935 104.236 14.5007Z" fill="#3D3D3D"/>
<path d="M92.041 18.8659V16.283C93.3324 16.283 93.7457 16.1022 93.7974 14.4233L94.2623 0.76001H102.295V18.84H99.4022V3.34287H96.9226L96.6127 14.2684C96.5094 17.5744 95.3212 18.8659 92.4801 18.8659H92.041Z" fill="#3D3D3D"/>
<path d="M85.2103 4.91829V14.6815C85.2103 15.9729 85.7785 16.4637 86.6825 16.4637C87.5865 16.4637 88.1548 15.9729 88.1548 14.6815V4.91829C88.1548 3.62686 87.5865 3.13611 86.6825 3.13611C85.7785 3.13611 85.2103 3.62686 85.2103 4.91829ZM82.3691 14.5007V5.09909C82.3691 2.20628 83.893 0.553253 86.6825 0.553253C89.472 0.553253 90.9959 2.20628 90.9959 5.09909V14.5007C90.9959 17.3935 89.472 19.0465 86.6825 19.0465C83.893 19.0465 82.3691 17.3935 82.3691 14.5007Z" fill="#3D3D3D"/>
<path d="M81.0178 21.2679H78.2025V18.84H72.1328V21.2679H69.3691V16.3088H70.4798C70.9705 15.6889 71.1255 15.0174 71.1771 13.9584L71.8229 0.76001H79.7781V16.3088H81.0178V21.2679ZM74.4832 3.34287L73.9666 13.9068C73.8891 15.2757 73.6309 15.8697 73.1659 16.3088H76.8853V3.34287H74.4832Z" fill="#3D3D3D"/>
<path d="M62.3568 4.91829V14.6815C62.3568 15.9729 62.925 16.4637 63.829 16.4637C64.733 16.4637 65.3012 15.9729 65.3012 14.6815V4.91829C65.3012 3.62686 64.733 3.13611 63.829 3.13611C62.925 3.13611 62.3568 3.62686 62.3568 4.91829ZM59.5156 14.5007V5.09909C59.5156 2.20628 61.0395 0.553253 63.829 0.553253C66.6185 0.553253 68.1424 2.20628 68.1424 5.09909V14.5007C68.1424 17.3935 66.6185 19.0465 63.829 19.0465C61.0395 19.0465 59.5156 17.3935 59.5156 14.5007Z" fill="#3D3D3D"/>
<path d="M49.7148 3.34287V0.76001H58.4966V3.34287H55.5263V18.84H52.6851V3.34287H49.7148Z" fill="#3D3D3D"/>
<path d="M43.8744 3.34287V8.37945H47.7745V10.9623H43.8744V16.2572H48.7818V18.84H41.0332V0.76001H48.7818V3.34287H43.8744Z" fill="#3D3D3D"/>
<path d="M30.985 0.76001L33.0771 13.5968L35.0142 0.76001H38.966V18.84H36.2798V5.87407L34.3169 18.84H31.6307L29.5127 6.05487V18.84H27.0332V0.76001H30.985Z" fill="#3D3D3D"/>
<path d="M156.281 34.5431H154.86C153.182 34.5431 152.226 35.1888 152.226 37.2292V40.0704C152.226 41.2843 152.123 41.7492 151.89 42.2658H149.85C150.16 41.6459 150.211 40.8969 150.211 40.0962V37.2809C150.211 35.3437 150.831 34.0007 152.458 33.5099C150.934 33.0192 150.237 31.7794 150.237 29.7906V28.3184C150.237 25.6322 151.425 24.1858 154.266 24.1858H158.296V42.2658H156.281V34.5431ZM156.281 26.0196H154.318C152.82 26.0196 152.226 26.872 152.226 28.4992V30.2297C152.226 32.1927 153.181 32.7092 154.757 32.7092H156.281V26.0196Z" fill="#3D3D3D"/>
<path d="M141.193 34.1298H136.751V42.2658H134.736V24.1858H136.751V32.3218H141.193V24.1858H143.208V42.2658H141.193V34.1298Z" fill="#3D3D3D"/>
<path d="M120.242 24.1858H124.194C127.035 24.1858 128.249 25.8647 128.249 28.6025V30.7721C128.249 33.6391 126.906 35.1371 124.039 35.1371H122.257V42.2658H120.242V24.1858ZM122.257 33.3291H124.039C125.537 33.3291 126.26 32.6317 126.26 30.9012V28.4992C126.26 26.8461 125.666 26.0196 124.194 26.0196H122.257V33.3291Z" fill="#3D3D3D"/>
<path d="M108.042 32.1927H112.459V34.0007H108.042V40.432H113.466V42.2658H106.027V24.1858H113.466V26.0196H108.042V32.1927Z" fill="#3D3D3D"/>
<path d="M96.2899 42.2658H94.2752V26.0196H90.9434V24.1858H99.6218V26.0196H96.2899V42.2658Z" fill="#3D3D3D"/>
<path d="M80.6918 24.0051C83.4813 24.0051 84.7727 25.8131 84.7727 28.551V30.1782H82.8614V28.4476C82.8614 26.8204 82.2157 25.839 80.7435 25.839C79.2971 25.839 78.6255 26.8204 78.6255 28.4476V38.0042C78.6255 39.6314 79.2971 40.6129 80.7435 40.6129C82.2157 40.6129 82.8614 39.6314 82.8614 38.0042V35.6538H84.7727V37.9009C84.7727 40.6387 83.4813 42.4468 80.6918 42.4468C77.9281 42.4468 76.6367 40.6387 76.6367 37.9009V28.551C76.6367 25.8131 77.9281 24.0051 80.6918 24.0051Z" fill="#3D3D3D"/>
<path d="M67.2058 20.4923H68.4455C68.4455 22.0679 67.3866 23.0235 65.6561 23.0235C63.9255 23.0235 62.9182 22.0679 62.8666 20.4923H64.1322C64.2096 21.4997 64.8037 21.8096 65.6561 21.8096C66.5084 21.8096 67.1283 21.4997 67.2058 20.4923ZM68.0065 27.8793L66.1985 33.5616L63.3831 42.2659H61.291V24.1858H63.0732V37.6684L64.752 32.451L67.5674 24.1858H69.8145V42.2659H68.0065V27.8793Z" fill="#3D3D3D"/>
<path d="M52.0974 38.624H47.5258L46.8284 42.2658H44.9688L48.4298 24.1858H51.3484L54.8094 42.2658H52.7948L52.0974 38.624ZM49.7729 26.4587L47.7841 36.8935H51.8133L49.7729 26.4587Z" fill="#3D3D3D"/>
<path d="M36.5898 27.7243L33.7228 42.24H31.7857L28.7895 27.8535V42.2658H27.0332V24.1858H29.8485L32.8188 38.624L35.6858 24.1858H38.5011V42.2658H36.5898V27.7243Z" fill="#3D3D3D"/>
<defs>
<clipPath id="clip0_43_346">
<rect width="18.02" height="18.02" fill="white" transform="translate(2 0.819977)"/>
</clipPath>
<clipPath id="clip1_43_346">
<rect width="18.02" height="18.02" fill="white" transform="matrix(1 0 0 -1 2 42.2656)"/>
</clipPath>
</defs>
</svg>
