<?xml version="1.0" encoding="utf-8"?>
<!-- Generator: Adobe Illustrator 22.0.1, SVG Export Plug-In . SVG Version: 6.00 Build 0)  -->
<svg version="1.1" id="Capa_1" xmlns="http://www.w3.org/2000/svg" xmlns:xlink="http://www.w3.org/1999/xlink" x="0px" y="0px"
	 viewBox="0 0 512 512" style="enable-background:new 0 0 512 512;" xml:space="preserve">
<style type="text/css">
	.st0{fill:#FFFFFF;}
</style>
<g>
	<g>
		<path class="st0" d="M502,492h-8V200c0-5.5-4.5-10-10-10h-80c-5.5,0-10,4.5-10,10v107c0,5.5,4.5,10,10,10s10-4.5,10-10v-97h60v282
			h-60v-87c0-5.5-4.5-10-10-10s-10,4.5-10,10v87h-24V266c0-5.5-4.5-10-10-10h-80c-5.5,0-10,4.5-10,10v226h-28V328
			c0-5.5-4.5-10-10-10h-80c-5.5,0-10,4.5-10,10v164h-24V392c0-5.5-4.5-10-10-10H28c-5.5,0-10,4.5-10,10v100h-8c-5.5,0-10,4.5-10,10
			s4.5,10,10,10h492c5.5,0,10-4.5,10-10S507.5,492,502,492z M98,492H38v-90h60V492z M222,492h-60V338h60V492z M350,492h-60V276h60
			V492z"/>
	</g>
</g>
<g>
	<g>
		<path class="st0" d="M411.1,346.8c-1.9-1.9-4.4-2.9-7.1-2.9s-5.2,1.1-7.1,2.9c-1.9,1.9-2.9,4.4-2.9,7.1c0,2.6,1.1,5.2,2.9,7.1
			c1.9,1.9,4.4,2.9,7.1,2.9s5.2-1.1,7.1-2.9c1.9-1.9,2.9-4.4,2.9-7.1C414,351.3,412.9,348.7,411.1,346.8z"/>
	</g>
</g>
<g>
	<g>
		<path class="st0" d="M436,0c-41.9,0-76,34.1-76,76s34.1,76,76,76c41.9,0,76-34.1,76-76S477.9,0,436,0z M436,105.1
			c-6.3,0-11.3-4.2-11.3-9.4c0-5.5-4.5-10-10-10s-10,4.5-10,10c0,12.9,9,23.9,21.3,27.8v7.5c-26.1-4.7-46-27.6-46-55.1
			s19.9-50.4,46-55.1v8.3c-12.4,3.9-21.3,14.9-21.3,27.8c0,16.2,14.1,29.4,31.3,29.4c6.3,0,11.3,4.2,11.3,9.4S442.3,105.1,436,105.1
			z M446,131.1v-7.5c12.4-3.9,21.3-14.9,21.3-27.8c0-16.2-14.1-29.4-31.3-29.4c-6.3,0-11.3-4.2-11.3-9.4s5.1-9.4,11.3-9.4
			s11.3,4.2,11.3,9.4c0,5.5,4.5,10,10,10s10-4.5,10-10c0-12.9-9-23.9-21.3-27.8v-8.3c26.1,4.7,46,27.6,46,55.1
			S472.1,126.4,446,131.1z"/>
	</g>
</g>
<g>
	<g>
		<path class="st0" d="M356,129.4h-39.1c-5.5,0-10,4.5-10,10s4.5,10,10,10h15L224.9,256.3L170.6,202c-3.9-3.9-10.2-3.9-14.1,0
			L47.7,310.7c-3.9,3.9-3.9,10.2,0,14.1c2,2,4.5,2.9,7.1,2.9s5.1-1,7.1-2.9l101.7-101.7l54.3,54.3c3.9,3.9,10.2,3.9,14.1,0l114-114
			v15c0,5.5,4.5,10,10,10s10-4.5,10-10v-39.1C366,133.8,361.5,129.4,356,129.4z"/>
	</g>
</g>
<g>
	<g>
		<path class="st0" d="M35.9,336.7c-1.9-1.9-4.4-2.9-7.1-2.9s-5.2,1.1-7.1,2.9s-2.9,4.4-2.9,7.1s1.1,5.2,2.9,7.1
			c1.9,1.9,4.4,2.9,7.1,2.9s5.2-1.1,7.1-2.9s2.9-4.4,2.9-7.1S37.7,338.6,35.9,336.7z"/>
	</g>
</g>
</svg>
