<svg width="1132" height="814" viewBox="0 0 1132 814" fill="none" xmlns="http://www.w3.org/2000/svg">
<path d="M687.344 507.897C747.498 538.735 805.437 577.143 846.699 631.696C864.09 654.688 881.604 680.19 890.846 707.682C897.435 727.281 903.521 754.825 891.646 773.625C880.283 791.613 855.664 798.722 836.04 801.886C792.679 808.879 750.642 803.99 707.774 796.643C659.746 788.412 611.384 782.407 563.519 773.181C494.787 759.932 426.63 742.475 360.284 720.124C295.442 698.28 235.782 659.316 168.684 644.138C146.813 639.191 121.453 638.291 100.11 646.093C70.9869 656.74 43.6348 673.896 16.8795 689.374C-19.0671 710.169 -56.2209 728.654 -93.7987 746.252C-96.6515 747.588 -128.523 758.557 -117.782 765.804C-103.376 775.525 -79.799 778.68 -63.0645 781.446C-22.3797 788.169 18.7744 792.43 59.694 797.443C94.8302 801.747 129.833 806.628 165.131 809.441C180.084 810.632 212.936 818.243 225.8 806.686C236.955 796.664 207.285 783.845 201.817 781.446C169.761 767.379 140.417 752.641 111.302 732.833C79.9362 711.493 48.8534 693.553 13.1488 680.22C-23.0277 666.711 -57.5649 651.289 -92.7328 635.34C-120.438 622.775 -148.964 611.893 -175.164 596.236C-202.364 579.981 -226.483 559.703 -250.4 539.091C-294.639 500.965 -331.389 458.434 -350.686 402.494C-356.31 386.189 -368.386 358.813 -357.792 341.883C-345.06 321.537 -310.407 323.314 -290.106 324.197C-201.565 328.049 -117.74 366.671 -29.1328 371.211C-15.7206 371.898 24.3096 376.563 32.6907 360.013C42.0171 341.596 26.8609 315.669 15.8136 301.89C-3.9857 277.196 -30.0045 260.335 -52.8495 238.969C-79.6024 213.948 -103.707 186.26 -133.238 164.316C-160.588 143.992 -188.991 125.232 -216.024 104.416C-241.217 85.0172 -268.673 66.5538 -286.997 40.0724C-290.399 35.1562 -307.013 11.3277 -298.544 5.67883C-292.938 1.93906 -283.452 2.09681 -277.137 1.67955C-253.458 0.115048 -229.596 1.35433 -206.076 4.34577C-150.691 11.3898 -96.6797 27.4523 -41.7461 37.2286C17.5169 47.7753 77.9711 48.7071 136.885 61.6685C177.641 70.6353 209.839 90.0964 236.282 122.635C254.381 144.906 261.468 172.181 264.529 200.22C265.012 204.653 263.434 223.863 271.99 223.15C278.165 222.635 283.841 216.767 288.334 213.196C302.556 201.893 316.823 190.889 331.859 180.669C366.293 157.263 399.995 136.642 439.784 123.435C491.877 106.143 546.913 94.2843 601.36 87.5304C657.478 80.5691 714.107 80.9206 770.308 74.9105C834.77 68.0171 899.433 58.2185 964.395 57.9359C1008.26 57.7451 1057.07 60.8355 1091.33 91.6185C1117.76 115.366 1133.1 156.904 1130.77 192.4C1128.64 224.766 1105.32 248.664 1076.76 260.832C1028.22 281.513 973.967 284.898 921.936 285.449C871.404 285.984 824.23 275.182 774.661 267.408C739.764 261.935 689.937 253.438 657.676 273.096C598.458 309.18 757.524 379.161 774.306 389.608C804.225 408.234 834.112 427.938 859.135 452.974C867.646 461.488 887.665 484.574 877.789 498.298C866.372 514.163 831.07 516.294 814.189 518.028C780.983 521.439 746.29 520.08 712.926 520.605C691.408 520.944 669.87 520.694 648.349 520.694C636.294 520.694 623.941 521.706 612.197 519.095" stroke="#E9E9E9" stroke-width="2" stroke-linecap="round" stroke-linejoin="round" stroke-dasharray="8 8"/>
</svg>
