<svg width="52" height="20" viewBox="0 0 52 20" fill="none" xmlns="http://www.w3.org/2000/svg">
<path fill-rule="evenodd" clip-rule="evenodd" d="M49.2807 0.765636C48.2343 0.454718 46.5371 0.183468 44.9943 0.183468C35.745 0.183468 33.3906 6.64415 33.3906 10.3173C33.3906 14.6541 35.7847 18.9437 41.1936 19.8164L41.1765 15.8388C39.3624 15.0765 37.5762 13.8007 37.5762 10.1072C37.5762 7.60264 39.0022 3.69793 45.1863 3.69793C45.8874 3.69793 47.6961 3.76761 49.2807 4.18039V0.765636Z" fill="#043EC4"/>
<path fill-rule="evenodd" clip-rule="evenodd" d="M50.8733 16.3924L50.8669 10.0185H44.0406L41.0547 13.0516L47.451 13.057L47.4521 19.8018L50.8733 16.3924Z" fill="#04078B"/>
<path fill-rule="evenodd" clip-rule="evenodd" d="M29.8404 0.700182H17.2354V19.6909H30.1406L30.1514 16.3941H21.2537V11.5116H29.492V8.37346H21.2537V3.98628H29.8404V0.700182Z" fill="#043EC4"/>
<path fill-rule="evenodd" clip-rule="evenodd" d="M4.79688 0.696972L0.327148 0.700188V19.6909H13.4319L13.4104 16.1036H4.79688V0.696972Z" fill="#043EC4"/>
</svg>
