<svg width="128" height="20" viewBox="0 0 128 20" fill="none" xmlns="http://www.w3.org/2000/svg">
<path fill-rule="evenodd" clip-rule="evenodd" d="M0 19.3332V0.667229H21.6824V6.34416H9.73475V8.21518H21.6824V12.4965H9.73475V14.406H21.6824V19.3332H0ZM24.0012 19.3332V0.666504H40.138C45.8549 0.666504 50.0701 2.89243 50.0701 9.09699C50.0701 12.2577 48.792 15.6702 46.0653 17.4745C43.5491 19.1612 40.3876 19.3332 37.4374 19.3332H24.0012ZM51.19 19.3332V0.667229H72.8861V6.34416H60.9378V8.21518H72.8861V12.4965H60.9378V14.406H72.8861V19.3332H51.19ZM75.2166 19.3332V0.667229H84.8991V7.88568L89.7334 0.667229H101.299L93.3166 10.1508L100.074 18.6343L106.028 0.667229H121.532L127.553 19.3332H117.396L116.699 16.8953H110.375L109.755 19.3332H89.7334L84.8991 13.0764V19.3332H75.2166Z" fill="#4E55FF"/>
<path fill-rule="evenodd" clip-rule="evenodd" d="M33.6689 13.6559H35.8296C38.1085 13.6559 39.6363 12.3517 39.6363 10.0075C39.6363 7.74175 37.8712 6.93835 35.8296 6.93835H33.6689V13.6559ZM113.498 5.25244L111.706 11.8386H115.327L113.498 5.25244Z" fill="white"/>
</svg>
