<svg width="150" height="20" viewBox="0 0 150 20" fill="none" xmlns="http://www.w3.org/2000/svg">
<path fill-rule="evenodd" clip-rule="evenodd" d="M32.5435 3.5762C27.6859 3.5762 24.63 6.95721 24.63 11.6839C24.63 16.2406 28.0054 19.3061 32.5435 19.3061C36.5589 19.3061 39.6989 17.015 40.1352 13.0317H35.3375C35.1032 14.6088 34.23 15.5813 32.5141 15.5813C30.4189 15.5813 29.5762 13.6058 29.5762 11.6839C29.5762 9.62307 30.0125 7.30039 32.776 7.30039C34.0257 7.30039 35.1608 8.19221 35.1918 9.45148H39.9885C39.6419 5.52522 36.297 3.5762 32.5435 3.5762ZM85.5446 3.57564C83.4037 3.57564 81.8983 4.54479 80.998 6.10434H80.9371V4.00631H76.1399V18.8771H81.0838V11.1555C81.0838 8.98469 82.0338 7.58431 83.7593 7.58487C86.3252 7.58487 86.2332 9.6496 86.2332 11.6827V18.8771H91.1789V9.33408C91.1789 7.18468 90.5777 3.57564 85.5446 3.57564ZM99.9797 3.57564C98.2621 3.57564 96.5174 3.8635 95.1785 4.6097C93.8408 5.38073 92.9094 6.64282 92.8231 8.59071H97.4487C97.6818 7.33031 98.5539 6.73031 99.921 6.73031C100.94 6.73031 102.306 7.1559 102.306 8.27349C102.306 9.19353 101.84 9.47745 100.997 9.65073C97.565 10.3365 92.2124 9.96569 92.2124 14.8058C92.2124 17.8735 94.4814 19.305 97.3589 19.305C99.1652 19.305 101.057 18.7896 102.336 17.4728C102.395 17.9599 102.451 18.4165 102.626 18.8771H107.602C107.02 17.7025 107.021 16.3258 107.021 15.0643V8.55966C107.021 4.35062 103.555 3.57564 99.9791 3.57564H99.9797ZM102.249 11.9136C102.365 14.9808 101.578 16.2965 99.2227 16.2965C98.117 16.2965 97.158 15.8082 97.158 14.6082C97.158 13.4314 98.0899 12.9725 99.1945 12.7157C100.273 12.4295 101.551 12.3454 102.248 11.9141L102.249 11.9136ZM108.635 0.691904V18.8782H113.579V0.691339L108.635 0.691904ZM125.35 0.691904V5.61215H125.289C124.272 4.26539 122.846 3.57733 120.985 3.57733C116.707 3.57733 114.615 7.24451 114.615 11.1121C114.615 15.2952 116.622 19.3061 121.363 19.3061C123.108 19.3061 124.563 18.5616 125.523 17.1572H125.58V18.8777H130.295V0.691904H125.35ZM122.584 7.30152C124.737 7.30152 125.523 9.27989 125.523 11.4276C125.523 13.3173 125 15.5813 122.584 15.5813C120.315 15.5813 119.561 13.3179 119.561 11.2842C119.561 9.39447 120.315 7.30152 122.584 7.30152ZM131.327 0.691904V5.61102H133.641L135.952 0.691904H131.327ZM41.1693 0.691904V18.8782H49.1087C54.7193 18.8782 58.1584 15.6683 58.1584 9.71056C58.1584 4.07912 54.7701 0.691904 49.1087 0.691904H41.1693ZM46.4389 4.90829H48.6606C51.5341 4.90829 52.8222 6.8003 52.8222 9.69645C52.8222 12.8822 51.7836 14.6635 48.6606 14.6635H46.4389V4.90829ZM3.8145 0.666504L0 18.8777H5.4463L6.85007 11.6455C7.00025 10.8464 7.12805 10.0432 7.23333 9.23699H7.28808C7.37387 9.74048 7.5957 10.7373 7.81865 11.5879L9.79759 18.8777H15.2106L17.1861 11.5879C17.4113 10.7373 17.632 9.74048 17.7167 9.23699H17.7748C17.8228 9.62364 17.9747 10.7141 18.157 11.6455L19.5607 18.8777H25.0059L21.192 0.666504H15.42L13.1075 9.81329C12.9139 10.5222 12.6751 11.6703 12.5306 12.2692H12.4764C12.3297 11.6703 12.0926 10.5222 11.8996 9.81329L9.58592 0.666504L3.8145 0.666504ZM67.1348 3.5762C62.2602 3.5762 59.1897 6.98713 59.1897 11.4547C59.1897 15.9234 62.2591 19.3332 67.1336 19.3332C72.0087 19.3332 75.0765 15.9239 75.0765 11.4547C75.0765 6.98713 72.0093 3.5762 67.1348 3.5762ZM67.1336 7.30039C69.2712 7.30039 70.1291 9.07444 70.1291 11.4547C70.1291 13.8372 69.2717 15.609 67.1342 15.609C64.995 15.609 64.137 13.8372 64.137 11.4547C64.137 9.07387 64.9944 7.30039 67.1336 7.30039ZM141.834 3.57451C138.906 3.57451 134.902 4.54817 134.902 8.13069C134.902 12.1422 138.878 12.2263 141.95 13.0007C142.81 13.2028 144.333 13.4302 144.332 14.5772C144.332 15.7535 142.982 16.1542 142.035 16.1542C141.345 16.1542 140.75 15.9821 140.292 15.6378C139.804 15.2641 139.489 14.7183 139.489 13.9755H134.771C134.915 18.132 138.533 19.305 142.064 19.305C145.424 19.305 149.342 17.9864 149.342 14.0048C149.342 12.7727 148.569 10.5945 145.553 9.99109C143.313 9.5068 139.912 9.24941 139.912 7.84508C139.912 6.81215 141.205 6.72636 142.007 6.72636C142.611 6.72636 143.091 6.8415 143.493 7.09889C143.894 7.3574 144.125 7.75759 144.125 8.38807H148.697C148.525 4.52052 145.107 3.57451 141.834 3.57451Z" fill="#FDC82F"/>
</svg>
