<svg width="89" height="20" viewBox="0 0 89 20" fill="none" xmlns="http://www.w3.org/2000/svg">
<path fill-rule="evenodd" clip-rule="evenodd" d="M50.0663 0V19.4402H54.3089V10.8007C54.3089 9.18068 55.1582 8.0237 56.5462 8.0237C57.9352 8.0237 58.7835 8.94919 58.7835 10.724V19.4407H63.0271V8.94918C63.0271 6.94338 62.1011 4.78325 58.8612 4.62892C55.6212 4.47459 54.8491 5.94074 54.3094 6.40323V0H50.0663ZM77.7617 4.86042V19.4407H82.0043V13.8858H86.1697V10.7235H82.0043V8.0232H88.6385V4.86042H77.7617ZM38.5722 4.86042V19.4407H42.8153V13.8858H46.9802V10.7235H42.8153V8.0232H49.449V4.86042H38.5722ZM37.7819 14.5036C37.7819 17.9226 35.0095 20 31.5905 20C28.171 20 25.3991 17.9226 25.3991 14.5036L25.3799 4.86042H29.6079V14.3104C29.6079 14.6113 29.6671 14.9092 29.7823 15.1872C29.8974 15.4651 30.0662 15.7177 30.2789 15.9304C30.4916 16.1432 30.7442 16.3119 31.0222 16.427C31.3001 16.5422 31.598 16.6014 31.8989 16.6014C32.1997 16.6014 32.4977 16.5422 32.7756 16.427C33.0536 16.3119 33.3061 16.1432 33.5189 15.9304C33.7316 15.7177 33.9004 15.4651 34.0155 15.1872C34.1306 14.9092 34.1899 14.6113 34.1899 14.3104V4.86042H37.8005L37.7819 14.5036ZM15.1204 19.4407L15.8936 16.8952H20.9063L21.7546 19.4407H26.1516L21.215 4.86042H15.9692L12.1367 16.9305L8.64002 10.1062L12.343 4.86042H8.48619L4.2431 11.0322V4.86042H0V19.4407H4.2431V16.2774L5.94024 13.9634L8.71769 19.4407H15.1204ZM70.548 4.66977C66.843 4.66977 63.8386 6.90203 63.8386 10.6075V13.8474C63.8386 17.5534 66.843 19.7851 70.548 19.7851C74.2539 19.7851 77.2584 17.5529 77.2584 13.8474V10.6075C77.2584 6.90203 74.2534 4.66977 70.548 4.66977Z" fill="#175843"/>
<path fill-rule="evenodd" clip-rule="evenodd" d="M18.283 9.02674L19.8258 13.6557H16.8945L18.283 9.02674ZM70.5478 16.943C69.9113 16.9427 69.3009 16.6897 68.8509 16.2395C68.4009 15.7893 68.1481 15.1788 68.1481 14.5423V9.91339C68.1481 9.27681 68.401 8.66631 68.8511 8.21619C69.3012 7.76606 69.9117 7.51318 70.5483 7.51318C71.1849 7.51318 71.7954 7.76606 72.2455 8.21619C72.6956 8.66631 72.9485 9.27681 72.9485 9.91339V14.5423C72.9485 15.179 72.6956 15.7896 72.2453 16.2399C71.7951 16.6901 71.1845 16.943 70.5478 16.943Z" fill="white"/>
</svg>
