<svg width="480" height="575" viewBox="0 0 480 575" fill="none" xmlns="http://www.w3.org/2000/svg">
<rect width="480" height="574.262" rx="20" fill="#0063A1"/>
<mask id="mask0" mask-type="alpha" maskUnits="userSpaceOnUse" x="0" y="0" width="480" height="575">
<rect width="480" height="574.262" rx="20" fill="#0063A1"/>
</mask>
<g mask="url(#mask0)">
<path d="M-820.33 238.679C-825.363 222.249 -830.066 206.851 -830.066 189.676C-830.066 173.137 -829.28 156.272 -827.903 139.791C-826.795 126.531 -823.888 113.582 -821.102 100.574C-818.061 86.3699 -815.857 71.9277 -806.729 59.8858C-789.684 37.4003 -768.217 28.5099 -741.275 20.3012C-718.342 13.3138 -688.99 6.02921 -665.312 13.8264C-633.672 24.2459 -606.267 42.2306 -581.931 64.0062C-557.632 85.7477 -547.727 117.114 -542.133 147.59C-528.121 223.934 -538.607 302.637 -500.713 373.767C-484.301 404.572 -460.218 433.567 -423.513 443.003C-387.631 452.227 -350.699 445.687 -318.494 429.391C-288.501 414.215 -263.937 387.599 -257.136 355.52C-249.621 320.065 -252.102 282.007 -259.764 246.772C-267.942 209.161 -288.656 176.423 -310.535 144.647C-325.967 122.233 -355.155 96.969 -350.95 67.3907C-347.807 45.2782 -322.226 35.8815 -302.034 34.1338C-272.382 31.5672 -239.017 32.7236 -210.616 42.0065C-194.382 47.3124 -188.038 57.3826 -182.951 72.0997C-177.186 88.7781 -167.305 95.8088 -151.113 103.517C-139.439 109.075 -127.836 114.069 -116.415 120.219C-103.184 127.344 -90.0944 136.842 -75.2268 140.674C-50.8139 146.965 -29.1342 141.696 -8.3051 128.901C10.6026 117.287 24.1811 103.567 23.9966 81.0761C23.7994 57.053 7.15348 35.8415 -3.05031 14.8565C-8.80159 3.02842 -16.0204 -16.8123 -5.67774 -28.1127C7.45463 -42.4612 29.5512 -46.2869 48.3388 -43.2696C59.9998 -41.3969 71.2674 -38.0303 82.3405 -34.146C92.8756 -30.4505 103.983 -28.6938 114.41 -24.8753C121.22 -22.3817 128.273 -19.4852 134.348 -15.6045C141.706 -10.9044 145.803 -5.80539 154.981 -3.83216C181.849 1.94452 212.335 -11.3153 237.435 -18.5476C256.966 -24.1753 276.46 -28.8019 294.543 -38.1928C311.534 -47.0172 325.339 -61.4889 343.613 -67.9916C362.516 -74.7179 384.805 -73.436 404.507 -71.229C429.253 -68.4571 455.298 -69.149 479.93 -72.5534C497.302 -74.9546 517.538 -78.908 535.105 -75.938C556.626 -72.2994 575.294 -55.4662 588.735 -40.1794C600.524 -26.7724 613.773 -14.8398 613.773 3.67273C613.773 66.0037 530.639 70.6821 483.793 59.5915C448.03 51.1247 412.792 40.2763 376.61 33.4716C356.385 29.6676 326.339 25.9797 307.757 36.6354C296.492 43.0953 290.33 52.8042 291.142 65.1834C291.795 75.1305 303.03 82.1741 303.584 91.6712C305.108 117.797 234.368 101.713 234.035 113.45C233.875 119.087 240.319 124.286 244.39 127.43C256.072 136.452 269.103 142.831 283.415 147.149C313.33 156.173 348.85 159.242 380.088 155.978C426.086 151.171 470.517 121.135 517.795 134.346C547.3 142.591 567.999 163.079 564.934 192.987C562.486 216.878 528.545 217.414 510.686 217.489C493.398 217.561 476.033 217.85 458.756 217.194C431.072 216.144 403.933 211.015 376.61 207.041C332.047 200.558 288.075 196.298 242.999 196.298C205.972 196.298 166.719 192.935 130.484 201.669C109.393 206.753 83.1929 218.652 77.163 240.592C70.303 265.552 95.077 269.207 115.338 272.451C153.218 278.515 193.816 277.071 232.026 274.437C268.593 271.917 305.307 270.023 341.913 267.889C368.191 266.357 394.391 264.755 420.736 265.167C433.071 265.359 453.416 269.185 455.046 283.929C455.887 291.53 456.703 306.823 448.246 311.52C445.118 313.258 426.383 316.501 426.068 317.554C424.198 323.783 446.452 324.637 449.637 325.059C460.672 326.518 469.789 332.663 479.543 337.42C491.824 343.409 502.276 348.415 509.14 360.229C513.253 367.308 514.657 375.455 518.877 382.743C524.087 391.741 532.439 405.17 520.886 412.836C513.109 417.997 503.022 417.472 493.994 417.472C478.675 417.472 463.736 416.558 448.71 413.499C431.743 410.044 415.785 402.3 398.789 399.666C373.693 395.776 346.778 401.466 322.13 405.552C299.334 409.332 276.097 416.355 257.063 429.465C235.567 444.271 217.824 454.583 190.605 457.204C111.783 464.793 31.6849 423.554 -15.5692 364.938C-35.5928 340.099 -53.9794 312.913 -78.0088 291.36C-91.2491 279.485 -122.152 263.138 -139.83 276.645C-156.26 289.198 -158.583 319.549 -155.981 337.714C-152.681 360.759 -135.138 381.959 -119.275 398.636C-99.0842 419.862 -77.5782 438.931 -53.2802 455.806C-30.742 471.458 -8.54661 488.073 16.7326 499.584C30.3704 505.794 43.6734 514.393 58.8484 516.801C72.5082 518.969 80.4956 516.475 93.5457 512.239C117.038 504.614 143.243 506.661 167.113 499.584C193.318 491.815 215.831 477.386 238.671 463.384C263.465 448.185 293.178 438.163 321.512 430.716C344.477 424.68 368.563 418.281 392.53 417.545C404.397 417.181 457.999 428.416 440.982 448.669C426.911 465.415 402.868 473.133 382.87 481.043C375.457 483.975 349.467 485.637 359.455 497.524C368.894 508.758 393.15 512.253 406.826 515.182C427.793 519.674 448.427 522.018 468.029 531.075C486.182 539.463 493.987 551.555 505.276 566.098C515.944 579.84 483.736 586.23 488.121 594.057C496.934 609.791 526.113 607.858 532.478 625.401C534.726 631.598 531.428 639.678 528.305 644.973C518.772 661.136 496.428 669.481 479.08 675.36C440.351 688.485 396.081 690.148 355.359 690.297C302.617 690.489 240.34 696.445 193.851 667.046C178.677 657.451 167.307 645.306 177.082 628.124C183.68 616.526 193.3 605.631 204.824 598.178C207.556 596.411 229.862 585.219 229.862 581.696C229.862 572.315 192.005 572.713 185.891 572.426C149.335 570.707 110.466 567.964 74.072 572.72C36.0857 577.684 6.55778 595.165 -26.0788 612.746C-55.7647 628.738 -87.8587 629.434 -120.82 633.936C-139.155 636.441 -157.435 639.272 -175.841 641.294C-191.128 642.974 -209.826 648.268 -220.43 634.451C-227.95 624.653 -228.751 609.83 -229.703 598.251C-231.051 581.849 -230.553 565.319 -230.553 548.881C-230.553 535.196 -230.553 521.51 -230.553 507.825C-230.553 501.747 -228.282 490.121 -233.412 485.237C-245.116 474.093 -261.172 497.85 -265.328 505.176C-278.085 527.663 -288.569 552.851 -306.593 572.279C-325.075 592.2 -360.804 601.076 -387.734 602.592C-404.025 603.51 -421.35 603.701 -437.5 601.268C-455.249 598.595 -470.117 589.302 -484.716 579.857C-507.158 565.338 -524.256 543.001 -536.492 520.186C-545.142 504.057 -548.546 487.141 -551.175 469.123C-552.564 459.601 -554.652 449.595 -554.652 439.986C-554.652 432.162 -560.205 428.14 -567.789 424.903C-577.064 420.944 -594.651 420.765 -603.645 425.712C-610.555 429.514 -615.381 433.28 -623.583 435.278C-637.563 438.683 -652.343 443.449 -666.703 444.99C-679.672 446.381 -695.686 438.61 -707.583 434.689C-729.3 427.531 -752.283 420.151 -771.336 407.612C-798.406 389.798 -808.094 361.46 -799.928 331.607C-796.303 318.353 -789.681 305.891 -782 294.377C-773.544 281.699 -764.674 267.672 -753.253 257.22C-738.134 243.384 -713.863 230.31 -707.892 210.057C-701.063 186.896 -713.419 165.35 -733.78 152.888C-749.863 143.043 -771.684 143.783 -783.159 160.025C-795.728 177.813 -789.29 202.563 -779.682 219.843C-773.664 230.665 -764.69 241.963 -764.69 254.572" stroke="#2971B6" stroke-width="2" stroke-linecap="round" stroke-linejoin="round" stroke-dasharray="7 7"/>
</g>
</svg>
