<svg width="40" height="40" viewBox="0 0 40 40" fill="none" xmlns="http://www.w3.org/2000/svg">
<circle cx="21.3337" cy="18.6667" r="14.6667" fill="white"/>
<path d="M34.1485 5.85157C26.3464 -1.95052 13.6537 -1.95052 5.85157 5.85157C-1.95052 13.6519 -1.95052 26.348 5.85157 34.1485C9.75179 38.0503 14.8759 39.9996 20 39.9996C25.1241 39.9996 30.2465 38.0503 34.1484 34.1485C41.9505 26.348 41.9505 13.6519 34.1485 5.85157ZM31.1837 14.509L19.5115 26.1813C19.1863 26.5065 18.7595 26.6699 18.3325 26.6699C17.9057 26.6699 17.4788 26.5065 17.1536 26.1813L10.4838 19.5115C9.83183 18.8595 9.83183 17.8056 10.4838 17.1537C11.1357 16.5017 12.1896 16.5017 12.8416 17.1537L18.3325 22.6447L28.8259 12.1513C29.4779 11.4993 30.5317 11.4993 31.1837 12.1513C31.8356 12.8032 31.8356 13.857 31.1837 14.509Z" fill="#32911A"/>
</svg>
