<svg width="820" height="456" viewBox="0 0 820 456" fill="none" xmlns="http://www.w3.org/2000/svg">
<g clip-path="url(#clip0)">
<g filter="url(#filter0_d)">
<path d="M789 0H31C13.8792 0 0 13.8792 0 31V425C0 442.121 13.8792 456 31 456H789C806.121 456 820 442.121 820 425V31C820 13.8792 806.121 0 789 0Z" fill="#FF690F"/>
</g>
<mask id="mask0" mask-type="alpha" maskUnits="userSpaceOnUse" x="0" y="0" width="820" height="456">
<path d="M789 0H31C13.8792 0 0 13.8792 0 31V425C0 442.121 13.8792 456 31 456H789C806.121 456 820 442.121 820 425V31C820 13.8792 806.121 0 789 0Z" fill="#0063A1"/>
</mask>
<g mask="url(#mask0)">
<path d="M-302.331 159.679C-307.364 143.249 -312.067 127.851 -312.067 110.676C-312.067 94.1371 -311.281 77.2721 -309.904 60.7909C-308.796 47.5309 -305.889 34.5819 -303.103 21.5742C-300.062 7.36997 -297.858 -7.07222 -288.73 -19.1141C-271.685 -41.5996 -250.218 -50.49 -223.276 -58.6987C-200.343 -65.6861 -170.991 -72.9707 -147.313 -65.1735C-115.673 -54.754 -88.2685 -36.7693 -63.932 -14.9937C-39.6336 6.74777 -29.7283 38.1137 -24.1345 68.5901C-10.122 144.934 -20.6086 223.637 17.2859 294.767C33.6972 325.572 57.7808 354.567 94.4856 364.003C130.368 373.227 167.3 366.687 199.505 350.391C229.498 335.215 254.062 308.599 260.863 276.52C268.378 241.065 265.897 203.007 258.235 167.772C250.057 130.161 229.343 97.4231 207.464 65.6471C192.032 43.2329 162.844 17.9691 167.049 -11.6092C170.192 -33.7217 195.773 -43.1184 215.965 -44.8662C245.617 -47.4327 278.982 -46.2763 307.383 -36.9934C323.617 -31.6875 329.961 -21.6173 335.048 -6.90022C340.813 9.77818 350.694 16.8089 366.886 24.5173C378.56 30.0748 390.163 35.0695 401.584 41.2194C414.815 48.3445 427.905 57.8422 442.772 61.6739C467.185 67.9651 488.865 62.6963 509.694 49.9015C528.602 38.287 542.18 24.5669 541.996 2.07617C541.798 -21.9469 525.152 -43.1584 514.949 -64.1434C509.197 -75.9715 501.979 -95.8122 512.321 -107.113C525.454 -121.461 547.55 -125.287 566.338 -122.27C577.999 -120.397 589.266 -117.03 600.34 -113.146C610.875 -109.45 621.982 -107.694 632.409 -103.875C639.219 -101.382 646.272 -98.4851 652.347 -94.6044C659.705 -89.9043 663.802 -84.8053 672.98 -82.8321C699.848 -77.0554 730.334 -90.3152 755.434 -97.5475C774.965 -103.175 794.459 -107.802 812.542 -117.193C829.533 -126.017 843.338 -140.489 861.612 -146.992C880.515 -153.718 902.804 -152.436 922.506 -150.229C947.252 -147.457 973.3 -148.149 997.93 -151.553C1015.3 -153.955 1035.54 -157.908 1053.1 -154.938C1074.63 -151.299 1093.29 -134.466 1106.73 -119.179C1118.52 -105.772 1131.77 -93.8397 1131.77 -75.3272C1131.77 -12.9962 1048.64 -8.31783 1001.79 -19.4084C966.03 -27.8752 930.791 -38.7236 894.61 -45.5283C874.384 -49.3323 844.338 -53.0202 825.756 -42.3645C814.491 -35.9046 808.329 -26.1957 809.141 -13.8165C809.794 -3.86943 821.029 3.17418 821.583 12.6713C823.107 38.7975 752.367 22.7131 752.034 34.4502C751.874 40.0869 758.318 45.2861 762.389 48.4299C774.071 57.4517 787.102 63.8314 801.414 68.1491C831.329 77.1731 866.849 80.2421 898.087 76.9781C944.085 72.1711 988.52 42.1354 1035.79 55.3462C1065.3 63.5906 1086 84.0791 1082.93 113.987C1080.49 137.878 1046.54 138.414 1028.68 138.489C1011.4 138.561 994.03 138.85 976.75 138.194C949.071 137.144 921.932 132.015 894.61 128.041C850.046 121.558 806.074 117.298 760.998 117.298C723.971 117.298 684.718 113.935 648.483 122.669C627.392 127.753 601.192 139.652 595.162 161.592C588.302 186.552 613.076 190.207 633.337 193.451C671.217 199.515 711.815 198.071 750.025 195.437C786.592 192.917 823.306 191.023 859.912 188.889C886.19 187.357 912.39 185.755 938.735 186.167C951.071 186.359 971.42 190.185 973.05 204.929C973.89 212.53 974.7 227.823 966.25 232.52C963.117 234.258 944.382 237.501 944.067 238.554C942.197 244.783 964.451 245.637 967.64 246.059C978.67 247.518 987.79 253.663 997.54 258.42C1009.82 264.409 1020.28 269.415 1027.14 281.229C1031.25 288.308 1032.66 296.455 1036.88 303.743C1042.09 312.741 1050.44 326.17 1038.89 333.836C1031.11 338.997 1021.02 338.472 1011.99 338.472C996.67 338.472 981.73 337.558 966.71 334.499C949.742 331.044 933.784 323.3 916.788 320.666C891.692 316.776 864.777 322.466 840.129 326.552C817.333 330.332 794.096 337.355 775.062 350.465C753.566 365.271 735.823 375.583 708.604 378.204C629.782 385.793 549.684 344.554 502.43 285.938C482.406 261.099 464.02 233.913 439.99 212.36C426.75 200.485 395.847 184.138 378.169 197.645C361.739 210.198 359.416 240.549 362.018 258.714C365.318 281.759 382.861 302.959 398.724 319.636C418.915 340.862 440.421 359.931 464.719 376.806C487.257 392.458 509.452 409.073 534.732 420.584C548.369 426.794 561.672 435.393 576.847 437.801C590.507 439.969 598.495 437.475 611.545 433.239C635.037 425.614 661.242 427.661 685.112 420.584C711.317 412.815 733.83 398.386 756.67 384.384C781.464 369.185 811.177 359.163 839.511 351.716C862.477 345.68 886.562 339.281 910.529 338.545C922.396 338.181 976 349.416 958.981 369.669C944.91 386.415 920.868 394.133 900.869 402.043C893.456 404.975 867.467 406.637 877.454 418.524C886.893 429.758 911.149 433.253 924.825 436.182C945.792 440.674 966.43 443.018 986.03 452.075C1004.18 460.463 1011.99 472.555 1023.28 487.098C1033.94 500.84 1001.74 507.23 1006.12 515.057C1014.93 530.791 1044.11 528.858 1050.48 546.401C1052.72 552.598 1049.43 560.678 1046.3 565.973C1036.77 582.136 1014.43 590.481 997.08 596.36C958.35 609.485 914.08 611.148 873.358 611.297C820.616 611.489 758.339 617.445 711.85 588.046C696.676 578.451 685.306 566.306 695.081 549.124C701.679 537.526 711.299 526.631 722.823 519.178C725.555 517.411 747.861 506.219 747.861 502.696C747.861 493.315 710.004 493.713 703.89 493.426C667.334 491.707 628.465 488.964 592.071 493.72C554.085 498.684 524.557 516.165 491.92 533.746C462.234 549.738 430.14 550.434 397.179 554.936C378.844 557.441 360.564 560.272 342.158 562.294C326.871 563.974 308.173 569.268 297.569 555.451C290.049 545.653 289.248 530.83 288.296 519.251C286.948 502.849 287.446 486.319 287.446 469.881C287.446 456.196 287.446 442.51 287.446 428.825C287.446 422.747 289.717 411.121 284.587 406.237C272.883 395.093 256.827 418.85 252.671 426.176C239.914 448.663 229.43 473.851 211.406 493.279C192.924 513.2 157.195 522.076 130.265 523.592C113.974 524.51 96.6486 524.701 80.4986 522.268C62.7496 519.595 47.8816 510.302 33.2821 500.857C10.8404 486.338 -6.25739 464.001 -18.4933 441.186C-27.1436 425.057 -30.5476 408.141 -33.1759 390.123C-34.5649 380.601 -36.6533 370.595 -36.6533 360.986C-36.6533 353.162 -42.2064 349.14 -49.7904 345.903C-59.0657 341.944 -76.6527 341.765 -85.6468 346.712C-92.5567 350.514 -97.3826 354.28 -105.584 356.278C-119.564 359.683 -134.345 364.449 -148.704 365.99C-161.673 367.381 -177.687 359.61 -189.584 355.689C-211.301 348.531 -234.284 341.151 -253.337 328.612C-280.407 310.798 -290.094 282.46 -281.929 252.607C-278.304 239.353 -271.682 226.891 -264.001 215.377C-255.545 202.699 -246.675 188.672 -235.254 178.22C-220.135 164.384 -195.864 151.31 -189.893 131.057C-183.064 107.896 -195.42 86.3501 -215.781 73.8881C-231.864 64.0433 -253.685 64.7829 -265.16 81.0251C-277.729 98.8131 -271.291 123.563 -261.683 140.843C-255.665 151.665 -246.691 162.963 -246.691 175.572" stroke="white" stroke-opacity="0.2" stroke-width="2" stroke-linecap="round" stroke-linejoin="round" stroke-dasharray="7 7"/>
</g>
</g>
<defs>
<filter id="filter0_d" x="-35" y="-35" width="890" height="526" filterUnits="userSpaceOnUse" color-interpolation-filters="sRGB">
<feFlood flood-opacity="0" result="BackgroundImageFix"/>
<feColorMatrix in="SourceAlpha" type="matrix" values="0 0 0 0 0 0 0 0 0 0 0 0 0 0 0 0 0 0 127 0"/>
<feOffset/>
<feGaussianBlur stdDeviation="17.5"/>
<feColorMatrix type="matrix" values="0 0 0 0 0 0 0 0 0 0 0 0 0 0 0 0 0 0 0.08 0"/>
<feBlend mode="normal" in2="BackgroundImageFix" result="effect1_dropShadow"/>
<feBlend mode="normal" in="SourceGraphic" in2="effect1_dropShadow" result="shape"/>
</filter>
<clipPath id="clip0">
<rect width="820" height="456" fill="white"/>
</clipPath>
</defs>
</svg>
