<svg width="1438" height="794" viewBox="0 0 1438 794" fill="none" xmlns="http://www.w3.org/2000/svg">
<rect x="-2" width="1440" height="794" fill="#F0F0FF"/>
<mask id="mask0" mask-type="alpha" maskUnits="userSpaceOnUse" x="-2" y="0" width="1440" height="794">
<rect x="-2" width="1440" height="794" fill="#F0F0FF"/>
</mask>
<g mask="url(#mask0)">
<path d="M-319.811 314.009C-327.146 293.918 -334 275.091 -334 254.089C-334 233.865 -332.853 213.243 -330.847 193.09C-329.233 176.875 -324.996 161.041 -320.937 145.136C-316.505 127.767 -313.293 110.107 -299.992 95.3826C-275.154 67.8875 -243.872 57.0165 -204.611 46.9789C-171.192 38.4348 -128.42 29.5273 -93.9161 39.0616C-47.8085 51.8025 -7.8739 73.794 27.5898 100.421C62.9981 127.006 77.4324 165.36 85.5838 202.626C106.003 295.979 90.7218 392.216 145.943 479.193C169.858 516.861 204.953 552.317 258.44 563.855C310.728 575.134 364.546 567.136 411.476 547.21C455.183 528.653 490.979 496.107 500.888 456.881C511.84 413.528 508.224 366.99 497.06 323.906C485.142 277.915 454.957 237.883 423.075 199.028C400.587 171.62 358.054 140.727 364.18 104.56C368.76 77.5205 406.038 66.0304 435.462 63.8932C478.671 60.7549 527.293 62.1689 568.679 73.52C592.335 80.008 601.581 92.3217 608.994 110.318C617.395 130.712 631.794 139.309 655.389 148.735C672.401 155.53 689.309 161.638 705.951 169.158C725.232 177.87 744.306 189.484 765.972 194.169C801.547 201.863 833.139 195.42 863.492 179.774C891.045 165.572 910.832 148.795 910.563 121.294C910.275 91.9187 886.018 65.9815 871.149 40.3212C862.768 25.8579 852.249 1.59692 867.32 -12.2211C886.457 -29.7663 918.657 -34.4443 946.035 -30.7548C963.027 -28.4648 979.447 -24.3482 995.583 -19.5986C1010.93 -15.0797 1027.12 -12.9317 1042.32 -8.26243C1052.24 -5.21324 1062.52 -1.67146 1071.37 3.07375C1082.09 8.82103 1088.06 15.0561 1101.44 17.4689C1140.59 24.5326 1185.01 8.31854 1221.59 -0.525034C1250.05 -7.4065 1278.46 -13.0638 1304.81 -24.5469C1329.57 -35.3373 1349.69 -53.0331 1376.32 -60.9846C1403.86 -69.2095 1436.34 -67.642 1465.05 -64.9433C1501.11 -61.5539 1539.07 -62.3999 1574.96 -66.5628C1600.28 -69.4988 1629.76 -74.3331 1655.36 -70.7014C1686.72 -66.2522 1713.93 -45.6686 1733.51 -26.9761C1750.69 -10.5822 1770 4.00884 1770 26.6458C1770 102.864 1648.86 108.584 1580.59 95.0227C1528.48 84.6696 1477.12 71.4043 1424.4 63.0835C1394.93 58.4321 1351.14 53.9225 1324.07 66.9522C1307.65 74.8514 1298.67 86.7233 1299.85 101.86C1300.81 114.024 1317.18 122.637 1317.98 134.249C1320.21 166.196 1217.12 146.529 1216.64 160.881C1216.4 167.773 1225.79 174.13 1231.73 177.975C1248.75 189.006 1267.74 196.808 1288.59 202.087C1332.19 213.121 1383.95 216.875 1429.47 212.883C1496.5 207.005 1561.24 170.278 1630.14 186.432C1673.13 196.513 1703.3 221.566 1698.83 258.138C1695.26 287.351 1645.8 288.006 1619.78 288.098C1594.59 288.186 1569.28 288.539 1544.1 287.738C1503.76 286.454 1464.22 280.182 1424.4 275.322C1359.46 267.395 1295.38 262.186 1229.7 262.186C1175.74 262.186 1118.54 258.074 1065.74 268.754C1035 274.971 996.825 289.52 988.038 316.348C978.042 346.869 1014.14 351.339 1043.67 355.305C1098.87 362.72 1158.03 360.955 1213.71 357.734C1267 354.652 1320.49 352.336 1373.84 349.727C1412.13 347.854 1450.31 345.895 1488.7 346.398C1506.68 346.633 1536.32 351.312 1538.7 369.34C1539.92 378.635 1541.11 397.335 1528.79 403.079C1524.23 405.203 1496.93 409.17 1496.47 410.456C1493.75 418.073 1526.18 419.118 1530.82 419.633C1546.9 421.418 1560.18 428.931 1574.4 434.748C1592.29 442.071 1607.52 448.193 1617.53 462.639C1623.52 471.295 1625.57 481.258 1631.72 490.169C1639.31 501.172 1651.48 517.593 1634.64 526.967C1623.31 533.278 1608.61 532.635 1595.45 532.635C1573.13 532.635 1551.36 531.518 1529.47 527.777C1504.74 523.553 1481.49 514.084 1456.72 510.862C1420.15 506.106 1380.93 513.063 1345.01 518.06C1311.79 522.682 1277.93 531.269 1250.19 547.3C1218.87 565.405 1193.01 578.014 1153.35 581.219C1038.49 590.499 921.766 540.072 852.906 468.397C823.727 438.025 796.934 404.782 761.918 378.427C742.624 363.906 697.591 343.917 671.83 360.433C647.888 375.783 644.504 412.897 648.295 435.108C653.104 463.287 678.668 489.21 701.784 509.603C731.206 535.558 762.545 558.875 797.953 579.509C830.796 598.649 863.14 618.965 899.977 633.041C919.851 640.635 939.236 651.15 961.35 654.094C981.255 656.745 992.894 653.696 1011.91 648.516C1046.15 639.192 1084.33 641.695 1119.12 633.041C1157.3 623.542 1190.11 605.897 1223.39 588.776C1259.52 570.191 1302.82 557.936 1344.11 548.83C1377.58 541.449 1412.67 533.625 1447.6 532.725C1464.89 532.279 1543 546.017 1518.2 570.782C1497.7 591.26 1462.66 600.697 1433.52 610.369C1422.72 613.954 1384.85 615.987 1399.4 630.522C1413.16 644.258 1448.5 648.532 1468.43 652.115C1498.99 657.607 1529.05 660.473 1557.62 671.548C1584.07 681.805 1595.44 696.591 1611.9 714.374C1627.44 731.177 1580.51 738.991 1586.9 748.562C1599.74 767.801 1642.26 765.437 1651.53 786.889C1654.81 794.466 1650 804.346 1645.45 810.821C1631.56 830.586 1599 840.789 1573.72 847.979C1517.28 864.028 1452.77 866.061 1393.43 866.243C1316.57 866.478 1225.82 873.761 1158.08 837.812C1135.97 826.079 1119.4 811.228 1133.64 790.218C1143.26 776.037 1157.28 762.714 1174.07 753.601C1178.05 751.44 1210.55 737.754 1210.55 733.447C1210.55 721.976 1155.39 722.463 1146.48 722.111C1093.21 720.009 1036.57 716.655 983.534 722.471C928.179 728.541 885.15 749.916 837.592 771.415C794.332 790.969 747.564 791.82 699.532 797.326C672.814 800.388 646.177 803.85 619.354 806.323C597.077 808.376 569.831 814.85 554.378 797.956C543.419 785.974 542.252 767.848 540.865 753.691C538.9 733.633 539.626 713.422 539.626 693.321C539.626 676.587 539.626 659.852 539.626 643.118C539.626 635.686 542.936 621.47 535.46 615.497C518.404 601.871 495.008 630.921 488.952 639.879C470.362 667.376 455.083 698.175 428.818 721.931C401.886 746.291 349.821 757.144 310.578 758.999C286.839 760.12 261.592 760.354 238.057 757.379C212.194 754.11 190.528 742.748 169.253 731.198C136.55 713.445 111.635 686.13 93.8043 658.233C81.1989 638.51 76.2385 617.826 72.4085 595.794C70.3843 584.15 67.341 571.915 67.341 560.166C67.341 550.598 59.249 545.68 48.1974 541.722C34.6811 536.881 9.05292 536.662 -4.05353 542.712C-14.1227 547.36 -21.1552 551.965 -33.1068 554.408C-53.4787 558.571 -75.0175 564.4 -95.9431 566.284C-114.842 567.985 -138.178 558.482 -155.514 553.688C-187.161 544.936 -220.652 535.911 -248.417 520.579C-287.864 498.796 -301.981 464.144 -290.082 427.64C-284.8 411.433 -275.149 396.195 -263.957 382.116C-251.633 366.614 -238.708 349.461 -222.066 336.681C-200.034 319.762 -164.665 303.776 -155.964 279.011C-146.014 250.689 -164.018 224.343 -193.688 209.104C-217.125 197.067 -248.923 197.971 -265.646 217.831C-283.961 239.583 -274.58 269.847 -260.578 290.977C-251.81 304.21 -238.732 318.024 -238.732 333.442" stroke="#DBDBFF" stroke-width="2" stroke-linecap="round" stroke-linejoin="round" stroke-dasharray="7 7"/>
</g>
</svg>
