<svg width="278" height="48" viewBox="0 0 278 48" fill="none" xmlns="http://www.w3.org/2000/svg">
<rect width="278" height="48" rx="24" fill="white"/>
<path d="M32.0768 16.5801V19.7694H27.0329V21.5453H30.6617V24.5715H27.0329V29.4098H23.0049V16.5801H32.0768Z" fill="#FF690F"/>
<path d="M43.4893 27.4708H39.2073L38.5723 29.4098H34.3447L39.044 16.5801H43.6888L48.3699 29.4098H44.1243L43.4893 27.4708ZM42.5095 24.4446L41.3483 20.8747L40.1871 24.4446H42.5095Z" fill="#FF690F"/>
<path d="M55.1198 26.3654H59.0026V29.4098H51.0918V16.5801H55.1198V26.3654Z" fill="#FF690F"/>
<path d="M71.4396 27.6156C71.0586 28.2075 70.5052 28.6755 69.7795 29.0199C69.0536 29.3641 68.1887 29.5364 67.1848 29.5364C65.6487 29.5364 64.3816 29.177 63.3837 28.4581C62.3859 27.7395 61.8445 26.6854 61.7599 25.296H66.0419C66.1022 26.033 66.4288 26.4013 67.0217 26.4013C67.2271 26.4013 67.3936 26.3469 67.5206 26.2384C67.6475 26.1296 67.7112 25.9728 67.7112 25.7671C67.7112 25.4653 67.5569 25.2267 67.2485 25.0513C66.94 24.8764 66.4409 24.6739 65.7515 24.4443C64.941 24.1787 64.2666 23.9068 63.7285 23.6288C63.1901 23.351 62.7215 22.9402 62.3224 22.3967C61.9232 21.853 61.7236 21.1462 61.7236 20.2764C61.7236 19.4429 61.9382 18.7333 62.3677 18.1472C62.7969 17.5613 63.3837 17.1174 64.1276 16.8152C64.8715 16.5135 65.709 16.3623 66.6407 16.3623C68.1766 16.3623 69.3985 16.7188 70.3057 17.4315C71.2129 18.1443 71.7087 19.171 71.7934 20.512H67.457C67.3963 19.8356 67.1182 19.4972 66.6224 19.4972C66.4529 19.4972 66.314 19.5488 66.2052 19.6513C66.0963 19.754 66.0419 19.9081 66.0419 20.1133C66.0419 20.3913 66.196 20.618 66.5046 20.7929C66.813 20.9681 67.2937 21.1707 67.9469 21.3999C68.7693 21.6899 69.4498 21.977 69.9881 22.2608C70.5262 22.5447 70.9979 22.9615 71.4034 23.511C71.8085 24.0609 72.0112 24.7646 72.0112 25.6222C72.0112 26.3592 71.8207 27.0238 71.4396 27.6156Z" fill="#FF690F"/>
<path d="M84.2129 17.0783C85.0897 17.4951 85.8034 18.0841 86.3539 18.8451C86.9041 19.6062 87.2702 20.4941 87.4516 21.5089H83.206C83.0123 21.0863 82.737 20.7569 82.3804 20.5213C82.0235 20.2858 81.6152 20.1679 81.1556 20.1679C80.4781 20.1679 79.9428 20.4217 79.55 20.929C79.1568 21.4365 78.9602 22.1191 78.9602 22.9768C78.9602 23.8347 79.1568 24.5171 79.55 25.0244C79.9428 25.5319 80.4781 25.7855 81.1556 25.7855C81.6152 25.7855 82.0235 25.6678 82.3804 25.4321C82.737 25.1967 83.0123 24.8675 83.206 24.4445H87.4516C87.2702 25.4593 86.9041 26.3472 86.3539 27.1083C85.8034 27.8695 85.0897 28.4583 84.2129 28.8753C83.3358 29.292 82.3409 29.5003 81.2283 29.5003C79.9338 29.5003 78.8089 29.2257 77.8535 28.6758C76.8977 28.1262 76.163 27.3561 75.649 26.3654C75.1347 25.375 74.8779 24.2452 74.8779 22.9768C74.8779 21.7084 75.1347 20.5788 75.649 19.588C76.163 18.5977 76.8977 17.8275 77.8535 17.2776C78.8089 16.7281 79.9338 16.4531 81.2283 16.4531C82.3409 16.4531 83.3358 16.6616 84.2129 17.0783Z" fill="#FF690F"/>
<path d="M102.602 16.5801V29.4098H98.5741V24.4084H94.7458V29.4098H90.7178V16.5801H94.7458V21.2009H98.5741V16.5801H102.602Z" fill="#FF690F"/>
<path d="M110.258 25.3326V29.4098H106.23V16.5801H111.855C113.427 16.5801 114.634 16.9786 115.475 17.776C116.315 18.5733 116.736 19.6424 116.736 20.9834C116.736 21.7929 116.548 22.5268 116.173 23.1851C115.798 23.8438 115.245 24.3661 114.513 24.7526C113.781 25.1394 112.895 25.3326 111.855 25.3326H110.258ZM112.653 20.9834C112.653 20.1982 112.236 19.8056 111.401 19.8056H110.258V22.1613H111.401C112.236 22.1613 112.653 21.7688 112.653 20.9834Z" fill="#0063A1"/>
<path d="M128.057 27.4708H123.775L123.14 29.4098H118.912L123.611 16.5801H128.256L132.937 29.4098H128.692L128.057 27.4708ZM127.077 24.4446L125.916 20.8747L124.755 24.4446H127.077Z" fill="#0063A1"/>
<path d="M142.119 29.4098L139.687 24.807V29.4098H135.659V16.5801H141.646C142.686 16.5801 143.576 16.7643 144.313 17.1327C145.051 17.5014 145.604 18.0026 145.974 18.6368C146.342 19.2711 146.527 19.9868 146.527 20.7842C146.527 21.6421 146.288 22.4032 145.81 23.0674C145.332 23.7319 144.646 24.2091 143.751 24.4989L146.545 29.4098H142.119ZM139.687 22.1252H141.284C141.671 22.1252 141.961 22.0375 142.155 21.8623C142.348 21.6873 142.445 21.4125 142.445 21.0378C142.445 20.6997 142.345 20.4339 142.146 20.2405C141.946 20.0474 141.659 19.9507 141.284 19.9507H139.687V22.1252Z" fill="#0063A1"/>
<path d="M157.486 22.8137L162.24 29.4098H157.396L153.658 23.8465V29.4098H149.63V16.5801H153.658V21.9982L157.432 16.5801H162.24L157.486 22.8137Z" fill="#0063A1"/>
<path d="M169.171 19.7694V21.364H173.162V24.3902H169.171V26.2023H173.707V29.4098H165.143V16.5801H173.707V19.7694H169.171Z" fill="#0063A1"/>
<path d="M183.504 29.4098L181.073 24.807V29.4098H177.045V16.5801H183.032C184.073 16.5801 184.962 16.7643 185.7 17.1327C186.437 17.5014 186.991 18.0026 187.36 18.6368C187.729 19.2711 187.913 19.9868 187.913 20.7842C187.913 21.6421 187.674 22.4032 187.197 23.0674C186.719 23.7319 186.032 24.2091 185.137 24.4989L187.931 29.4098H183.504ZM181.073 22.1252H182.67C183.057 22.1252 183.347 22.0375 183.541 21.8623C183.734 21.6873 183.831 21.4125 183.831 21.0378C183.831 20.6997 183.731 20.4339 183.532 20.2405C183.332 20.0474 183.045 19.9507 182.67 19.9507H181.073V22.1252Z" fill="#0063A1"/>
<path d="M206.701 20.3852C207.408 21.1344 207.762 22.2036 207.762 23.5927V29.4096H205.694V23.8102C205.694 22.9403 205.476 22.2672 205.041 21.7896C204.605 21.3126 204.007 21.0738 203.245 21.0738C202.434 21.0738 201.79 21.3308 201.312 21.844C200.834 22.3577 200.596 23.1097 200.596 24.1002V29.4096H198.527V23.8102C198.527 22.9403 198.309 22.2672 197.874 21.7896C197.438 21.3126 196.84 21.0738 196.078 21.0738C195.267 21.0738 194.623 21.3308 194.145 21.844C193.667 22.3577 193.429 23.1097 193.429 24.1002V29.4096H191.36V19.4248H193.429V21.5088C193.683 20.784 194.106 20.2284 194.699 19.8418C195.291 19.4551 195.987 19.2617 196.785 19.2617C197.62 19.2617 198.342 19.4674 198.953 19.8779C199.564 20.2888 200.009 20.8808 200.287 21.6539C200.577 20.9049 201.043 20.3191 201.684 19.8961C202.325 19.4733 203.051 19.2617 203.861 19.2617C205.047 19.2617 205.993 19.6364 206.701 20.3852Z" fill="#73849B"/>
<path d="M219.393 24.8247H211.7C211.736 25.8517 212.02 26.6128 212.553 27.108C213.085 27.6035 213.744 27.8509 214.53 27.8509C215.22 27.8509 215.803 27.6761 216.281 27.3254C216.759 26.9752 217.052 26.5099 217.161 25.9301H219.375C219.242 26.631 218.964 27.2529 218.54 27.7966C218.116 28.3402 217.566 28.7662 216.889 29.0742C216.212 29.3822 215.456 29.5363 214.621 29.5363C213.653 29.5363 212.798 29.331 212.054 28.9201C211.31 28.5096 210.726 27.9176 210.303 27.1443C209.879 26.3713 209.668 25.459 209.668 24.408C209.668 23.3691 209.879 22.4631 210.303 21.6898C210.726 20.9167 211.31 20.3248 212.054 19.9139C212.798 19.5034 213.653 19.2979 214.621 19.2979C215.601 19.2979 216.457 19.5003 217.189 19.9049C217.92 20.3097 218.482 20.8653 218.876 21.5721C219.269 22.2787 219.466 23.067 219.466 23.9369C219.466 24.2752 219.441 24.5711 219.393 24.8247ZM217.043 22.2425C216.795 21.8017 216.457 21.4755 216.027 21.2639C215.598 21.0527 215.129 20.9469 214.621 20.9469C213.811 20.9469 213.133 21.1946 212.589 21.6898C212.045 22.1854 211.748 22.916 211.7 23.8825H217.379C217.403 23.2301 217.291 22.6837 217.043 22.2425Z" fill="#73849B"/>
<path d="M223.529 16V29.4096H221.461V16H223.529Z" fill="#73849B"/>
<path d="M232.366 19.9684C233.007 20.4155 233.454 21.0076 233.708 21.7444V16H235.795V29.4096H233.708V27.0901C233.454 27.827 233.007 28.4192 232.366 28.8659C231.724 29.3129 230.95 29.5365 230.043 29.5365C229.172 29.5365 228.395 29.3311 227.712 28.9203C227.028 28.5097 226.493 27.9178 226.106 27.1445C225.718 26.3714 225.525 25.4591 225.525 24.4082C225.525 23.3693 225.718 22.4633 226.106 21.69C226.493 20.9169 227.028 20.3249 227.712 19.9141C228.395 19.5036 229.172 19.298 230.043 19.298C230.95 19.298 231.724 19.5217 232.366 19.9684ZM228.474 21.989C227.923 22.5751 227.648 23.3814 227.648 24.4082C227.648 25.4351 227.923 26.2414 228.474 26.8273C229.024 27.4134 229.759 27.7062 230.678 27.7062C231.259 27.7062 231.778 27.5703 232.239 27.2984C232.698 27.0266 233.061 26.6433 233.327 26.1477C233.593 25.6525 233.726 25.0727 233.726 24.4082C233.726 23.7558 233.593 23.179 233.327 22.6776C233.061 22.1764 232.698 21.7895 232.239 21.5179C231.778 21.2461 231.259 21.1101 230.678 21.1101C229.759 21.1101 229.024 21.4031 228.474 21.989Z" fill="#73849B"/>
<path d="M247.497 24.8247H239.804C239.841 25.8517 240.125 26.6128 240.657 27.108C241.189 27.6035 241.848 27.8509 242.635 27.8509C243.325 27.8509 243.908 27.6761 244.386 27.3254C244.863 26.9752 245.157 26.5099 245.266 25.9301H247.479C247.346 26.631 247.068 27.2529 246.645 27.7966C246.221 28.3402 245.671 28.7662 244.994 29.0742C244.316 29.3822 243.56 29.5363 242.726 29.5363C241.758 29.5363 240.902 29.331 240.158 28.9201C239.414 28.5096 238.831 27.9176 238.407 27.1443C237.984 26.3713 237.772 25.459 237.772 24.408C237.772 23.3691 237.984 22.4631 238.407 21.6898C238.831 20.9167 239.414 20.3248 240.158 19.9139C240.902 19.5034 241.758 19.2979 242.726 19.2979C243.705 19.2979 244.561 19.5003 245.293 19.9049C246.025 20.3097 246.587 20.8653 246.98 21.5721C247.373 22.2787 247.57 23.067 247.57 23.9369C247.57 24.2752 247.545 24.5711 247.497 24.8247ZM245.148 22.2425C244.9 21.8017 244.561 21.4755 244.132 21.2639C243.702 21.0527 243.234 20.9469 242.726 20.9469C241.915 20.9469 241.238 21.1946 240.694 21.6898C240.149 22.1854 239.853 22.916 239.804 23.8825H245.484C245.507 23.2301 245.396 22.6837 245.148 22.2425Z" fill="#73849B"/>
<path d="M257.948 20.3852C258.649 21.1344 259 22.2036 259 23.5927V29.4096H256.932V23.8102C256.932 22.9162 256.702 22.2245 256.242 21.7354C255.782 21.2461 255.154 21.0015 254.355 21.0015C253.533 21.0015 252.873 21.2641 252.378 21.7896C251.882 22.3153 251.634 23.0854 251.634 24.1002V29.4096H249.565V19.4248H251.634V21.6175C251.9 20.8687 252.347 20.2888 252.976 19.8779C253.605 19.4674 254.331 19.2617 255.154 19.2617C256.315 19.2617 257.246 19.6364 257.948 20.3852Z" fill="#73849B"/>
<path d="M104.541 33.1191H23V34.9999H104.541V33.1191Z" fill="#FF690F"/>
<path d="M188.342 33.1191H104.541V34.9999H188.342V33.1191Z" fill="#0063A1"/>
</svg>
