<svg width="20" height="20" viewBox="0 0 20 20" fill="none" xmlns="http://www.w3.org/2000/svg">
<path d="M9.83089 0.615234C6.23721 0.615234 3.31348 3.53897 3.31348 7.13264C3.31348 11.6495 9.8373 19.3652 9.8373 19.3652C9.8373 19.3652 16.3483 11.4274 16.3483 7.13264C16.3483 3.53897 13.4247 0.615234 9.83089 0.615234ZM11.7973 9.04095C11.2551 9.58305 10.5431 9.85416 9.83089 9.85416C9.11884 9.85416 8.40656 9.58305 7.86456 9.04095C6.78024 7.95673 6.78024 6.19251 7.86456 5.10818C8.38962 4.5829 9.08805 4.29359 9.83089 4.29359C10.5737 4.29359 11.272 4.58301 11.7973 5.10818C12.8817 6.19251 12.8817 7.95673 11.7973 9.04095Z" fill="white"/>
</svg>
