<svg width="135" height="40" viewBox="0 0 135 40" fill="none" xmlns="http://www.w3.org/2000/svg">
<path d="M130 40H5C2.25 40 0 37.75 0 35V5C0 2.25 2.25 0 5 0H130C132.75 0 135 2.25 135 5V35C135 37.75 132.75 40 130 40Z" fill="black"/>
<path d="M130 0.7998C132.316 0.7998 134.2 2.684 134.2 5V35C134.2 37.3159 132.316 39.2002 130 39.2002H5C2.684 39.2002 0.8 37.3159 0.8 35V5C0.8 2.684 2.684 0.7998 5 0.7998H130ZM130 0H5C2.25 0 0 2.25 0 5V35C0 37.75 2.25 40 5 40H130C132.75 40 135 37.75 135 35V5C135 2.25 132.75 0 130 0Z" fill="#A6A6A6"/>
<path d="M47.418 10.2437C47.418 11.0816 47.1699 11.749 46.6728 12.2466C46.1084 12.8384 45.373 13.1343 44.4687 13.1343C43.6025 13.1343 42.8662 12.8345 42.2607 12.2339C41.6543 11.6333 41.3516 10.8887 41.3516 10.0005C41.3516 9.11181 41.6543 8.36771 42.2607 7.76711C42.8662 7.16651 43.6025 6.86621 44.4687 6.86621C44.8984 6.86621 45.3096 6.95021 45.7002 7.11771C46.0908 7.28571 46.4043 7.50881 46.6387 7.78811L46.1113 8.31591C45.7139 7.84131 45.167 7.60401 44.4687 7.60401C43.8369 7.60401 43.291 7.82571 42.8301 8.27001C42.3691 8.71441 42.1387 9.29101 42.1387 10.0005C42.1387 10.71 42.3691 11.2866 42.8301 11.731C43.291 12.1753 43.8369 12.397 44.4687 12.397C45.1387 12.397 45.6973 12.1738 46.1445 11.7271C46.4346 11.436 46.6025 11.0313 46.6474 10.5117H44.4687V9.79101H47.376C47.4043 9.94781 47.418 10.0982 47.418 10.2437Z" fill="white" stroke="white" stroke-width="0.2" stroke-miterlimit="10"/>
<path d="M52.0273 7.73828H49.2949V9.64058H51.7588V10.3614H49.2949V12.2637H52.0273V13.001H48.5244V7.00098H52.0273V7.73828Z" fill="white" stroke="white" stroke-width="0.2" stroke-miterlimit="10"/>
<path d="M55.2784 13.001H54.5069V7.73828H52.8311V7.00098H56.9542V7.73828H55.2784V13.001Z" fill="white" stroke="white" stroke-width="0.2" stroke-miterlimit="10"/>
<path d="M59.9375 13.001V7.00098H60.708V13.001H59.9375Z" fill="white" stroke="white" stroke-width="0.2" stroke-miterlimit="10"/>
<path d="M64.1279 13.001H63.3564V7.73828H61.6807V7.00098H65.8037V7.73828H64.1279V13.001Z" fill="white" stroke="white" stroke-width="0.2" stroke-miterlimit="10"/>
<path d="M73.6084 12.2251C73.0185 12.8316 72.2851 13.1343 71.4082 13.1343C70.5312 13.1343 69.7978 12.8316 69.209 12.2251C68.6191 11.6192 68.3252 10.8775 68.3252 10.0005C68.3252 9.12351 68.6191 8.38181 69.209 7.77591C69.7978 7.16941 70.5312 6.86621 71.4082 6.86621C72.2803 6.86621 73.0117 7.17091 73.6045 7.77981C74.1963 8.38871 74.4922 9.12891 74.4922 10.0005C74.4922 10.8775 74.1972 11.6192 73.6084 12.2251ZM69.7783 11.7227C70.2226 12.1724 70.7656 12.397 71.4082 12.397C72.0508 12.397 72.5947 12.1724 73.0381 11.7227C73.4824 11.273 73.7051 10.6987 73.7051 10.0005C73.7051 9.30231 73.4824 8.72801 73.0381 8.27831C72.5947 7.82861 72.0508 7.60401 71.4082 7.60401C70.7656 7.60401 70.2226 7.82861 69.7783 8.27831C69.3349 8.72801 69.1123 9.30231 69.1123 10.0005C69.1123 10.6987 69.3349 11.273 69.7783 11.7227Z" fill="white" stroke="white" stroke-width="0.2" stroke-miterlimit="10"/>
<path d="M75.5742 13.001V7.00098H76.5127L79.4287 11.6685H79.4619L79.4287 10.5122V7.00098H80.2002V13.001H79.3955L76.3447 8.10738H76.3115L76.3447 9.26368V13.001H75.5742Z" fill="white" stroke="white" stroke-width="0.2" stroke-miterlimit="10"/>
<path d="M68.1362 21.7522C65.784 21.7522 63.8669 23.5404 63.8669 26.0053C63.8669 28.4541 65.784 30.2585 68.1362 30.2585C70.4883 30.2585 72.4055 28.4541 72.4055 26.0053C72.4055 23.5404 70.4883 21.7522 68.1362 21.7522ZM68.1362 28.583C66.8474 28.583 65.7357 27.5197 65.7357 26.0053C65.7357 24.4748 66.8474 23.4277 68.1362 23.4277C69.425 23.4277 70.5366 24.4748 70.5366 26.0053C70.5366 27.5197 69.425 28.583 68.1362 28.583ZM58.8228 21.7522C56.4706 21.7522 54.5535 23.5404 54.5535 26.0053C54.5535 28.4541 56.4706 30.2585 58.8228 30.2585C61.1749 30.2585 63.092 28.4541 63.092 26.0053C63.092 23.5404 61.1749 21.7522 58.8228 21.7522ZM58.8228 28.583C57.5339 28.583 56.4223 27.5197 56.4223 26.0053C56.4223 24.4748 57.5339 23.4277 58.8228 23.4277C60.1116 23.4277 61.2232 24.4748 61.2232 26.0053C61.2232 27.5197 60.1116 28.583 58.8228 28.583ZM47.744 23.0572V24.8615H52.0617C51.9327 25.8765 51.5945 26.6175 51.0789 27.1331C50.4506 27.7614 49.4678 28.4541 47.744 28.4541C45.0858 28.4541 43.0076 26.3114 43.0076 23.6532C43.0076 20.995 45.0858 18.8523 47.744 18.8523C49.1779 18.8523 50.2251 19.4162 50.9984 20.1411L52.2711 18.8684C51.1917 17.8374 49.7579 17.0479 47.744 17.0479C44.103 17.0479 41.042 20.0123 41.042 23.6532C41.042 27.2942 44.103 30.2585 47.744 30.2585C49.7095 30.2585 51.1917 29.6141 52.3516 28.4058C53.5438 27.2136 53.9144 25.5382 53.9144 24.1849C53.9144 23.766 53.8822 23.3794 53.8176 23.0572H47.744ZM93.0523 24.4587C92.6979 23.5082 91.6185 21.7522 89.4113 21.7522C87.2203 21.7522 85.3999 23.476 85.3999 26.0053C85.3999 28.3897 87.2042 30.2585 89.6208 30.2585C91.5701 30.2585 92.6979 29.0663 93.165 28.3736L91.7151 27.407C91.2318 28.1158 90.5713 28.583 89.6208 28.583C88.6702 28.583 87.9936 28.148 87.5586 27.2942L93.2457 24.9421L93.0523 24.4587ZM87.2526 25.8765C87.2042 24.2332 88.5253 23.3955 89.4757 23.3955C90.2169 23.3955 90.8452 23.766 91.0546 24.2977L87.2526 25.8765ZM82.6288 30.0007H84.4976V17.4991H82.6288V30.0007ZM79.5678 22.7027H79.5034C79.0845 22.2033 78.279 21.7522 77.264 21.7522C75.1375 21.7522 73.1881 23.621 73.1881 26.0214C73.1881 28.4058 75.1375 30.2585 77.264 30.2585C78.279 30.2585 79.0845 29.8074 79.5034 29.2919H79.5678V29.9041C79.5678 31.5313 78.6979 32.4012 77.2962 32.4012C76.1525 32.4012 75.4435 31.5796 75.1536 30.8868L73.5264 31.5635C73.9936 32.6912 75.2341 34.0767 77.2962 34.0767C79.4873 34.0767 81.34 32.7879 81.34 29.6463V22.0099H79.5678V22.7027ZM77.4252 28.583C76.1364 28.583 75.0569 27.5036 75.0569 26.0214C75.0569 24.5232 76.1364 23.4277 77.4252 23.4277C78.6979 23.4277 79.6967 24.5232 79.6967 26.0214C79.6967 27.5036 78.6979 28.583 77.4252 28.583ZM101.806 17.4993H97.335V30.0007H99.2007V25.2643H101.806C103.875 25.2643 105.907 23.767 105.907 21.3818C105.907 18.9966 103.875 17.4993 101.806 17.4993ZM101.854 23.5245H99.2007V19.2392H101.854C103.249 19.2392 104.042 20.3943 104.042 21.3818C104.042 22.3507 103.249 23.5245 101.854 23.5245ZM113.386 21.7292C112.035 21.7292 110.636 22.3243 110.057 23.6431L111.713 24.3347C112.067 23.6431 112.727 23.4179 113.418 23.4179C114.383 23.4179 115.364 23.9969 115.38 25.0262V25.1549C115.043 24.9619 114.319 24.6724 113.434 24.6724C111.649 24.6724 109.832 25.6535 109.832 27.487C109.832 29.1596 111.295 30.2372 112.936 30.2372C114.19 30.2372 114.882 29.6743 115.316 29.0149H115.38V29.9799H117.182V25.1871C117.182 22.9676 115.525 21.7292 113.386 21.7292ZM113.161 28.5806C112.55 28.5806 111.697 28.2751 111.697 27.5191C111.697 26.5542 112.759 26.1842 113.676 26.1842C114.496 26.1842 114.882 26.3612 115.38 26.6024C115.236 27.7604 114.238 28.5806 113.161 28.5806ZM123.744 22.0026L121.605 27.4226H121.54L119.321 22.0026H117.31L120.64 29.5778L118.742 33.7916H120.688L125.818 22.0026H123.744ZM106.937 30.0007H108.802V17.4993H106.937V30.0007Z" fill="white"/>
<path d="M10.4355 7.53842C10.1447 7.84622 9.97266 8.32412 9.97266 8.94332V31.0594C9.97266 31.6791 10.1447 32.1565 10.4355 32.4643L10.5095 32.5364L22.8985 20.1475V20.0014V19.8552L10.5095 7.46582L10.4355 7.53842Z" fill="url(#paint0_linear)"/>
<path d="M27.0278 24.2787L22.8984 20.1473V20.0012V19.855L27.0288 15.7246L27.1219 15.7777L32.0147 18.5578C33.4123 19.3518 33.4123 20.651 32.0147 21.4455L27.1219 24.2256L27.0278 24.2787Z" fill="url(#paint1_linear)"/>
<path d="M27.122 24.2249L22.8985 20.001L10.4355 32.4639C10.8963 32.9516 11.6567 33.012 12.5136 32.5253L27.122 24.2249Z" fill="url(#paint2_linear)"/>
<path d="M27.122 15.7771L12.5136 7.47675C11.6567 6.99005 10.8963 7.05045 10.4355 7.53815L22.8985 20.0011L27.122 15.7771Z" fill="url(#paint3_linear)"/>
<path opacity="0.2" d="M27.0289 24.1318L12.5136 32.3791C11.7016 32.8404 10.9757 32.8097 10.51 32.3898L10.4355 32.4643L10.5095 32.5364L10.51 32.5359C10.9757 32.9558 11.7016 32.987 12.5136 32.5252L27.122 24.2248L27.0289 24.1318Z" fill="black"/>
<path opacity="0.12" d="M10.4355 32.318C10.1447 32.0101 9.97266 31.5322 9.97266 30.9131V31.0592C9.97266 31.6784 10.1447 32.1562 10.4355 32.4641L10.51 32.3896L10.4355 32.318Z" fill="black"/>
<path opacity="0.12" d="M32.0152 21.2993L27.0293 24.1325L27.1224 24.2255L32.0152 21.4454C32.7138 21.0484 33.0635 20.5252 33.0635 20.002C33.0046 20.4751 32.649 20.9393 32.0152 21.2993Z" fill="black"/>
<path opacity="0.25" d="M12.5136 7.62334L32.0148 18.7033C32.6486 19.0633 33.0042 19.5271 33.0631 20.0011C33.0636 19.4779 32.7138 18.9542 32.0148 18.5572L12.5136 7.47724C11.116 6.68314 9.97266 7.34274 9.97266 8.94354V9.08964C9.97266 7.48894 11.116 6.82934 12.5136 7.62334Z" fill="white"/>
<defs>
<linearGradient id="paint0_linear" x1="21.7998" y1="8.71013" x2="5.01739" y2="25.4925" gradientUnits="userSpaceOnUse">
<stop stop-color="#00A0FF"/>
<stop offset="0.0065745" stop-color="#00A1FF"/>
<stop offset="0.2601" stop-color="#00BEFF"/>
<stop offset="0.5122" stop-color="#00D2FF"/>
<stop offset="0.7604" stop-color="#00DFFF"/>
<stop offset="1" stop-color="#00E3FF"/>
</linearGradient>
<linearGradient id="paint1_linear" x1="33.8344" y1="20.0017" x2="9.63752" y2="20.0017" gradientUnits="userSpaceOnUse">
<stop stop-color="#FFE000"/>
<stop offset="0.4087" stop-color="#FFBD00"/>
<stop offset="0.7754" stop-color="#FFA500"/>
<stop offset="1" stop-color="#FF9C00"/>
</linearGradient>
<linearGradient id="paint2_linear" x1="24.8271" y1="22.2961" x2="2.06882" y2="45.0544" gradientUnits="userSpaceOnUse">
<stop stop-color="#FF3A44"/>
<stop offset="1" stop-color="#C31162"/>
</linearGradient>
<linearGradient id="paint3_linear" x1="7.29748" y1="0.176319" x2="17.46" y2="10.3389" gradientUnits="userSpaceOnUse">
<stop stop-color="#32A071"/>
<stop offset="0.0685" stop-color="#2DA771"/>
<stop offset="0.4762" stop-color="#15CF74"/>
<stop offset="0.8009" stop-color="#06E775"/>
<stop offset="1" stop-color="#00F076"/>
</linearGradient>
</defs>
</svg>
