<svg width="1365" height="731" viewBox="0 0 1365 731" fill="none" xmlns="http://www.w3.org/2000/svg">
<path d="M406.293 267.795C351.444 239.69 298.613 204.687 260.989 154.969C245.132 134.015 229.163 110.774 220.735 85.7191C214.727 67.8571 209.178 42.7546 220.006 25.6212C230.367 9.22755 252.815 2.74891 270.709 -0.135099C310.246 -6.50746 348.577 -2.05198 387.665 4.64358C431.458 12.1452 475.556 17.6177 519.2 26.0261C581.872 38.1006 644.019 54.0102 704.515 74.3798C763.64 94.2876 818.039 129.798 879.22 143.63C899.163 148.139 922.287 148.959 941.748 141.848C968.303 132.145 993.244 116.51 1017.64 102.404C1050.42 83.4523 1084.29 66.6061 1118.56 50.5675C1121.16 49.3498 1150.22 39.3539 1140.43 32.7487C1127.29 23.8898 1105.79 21.0141 1090.53 18.4936C1053.44 12.3659 1015.91 8.48339 978.601 3.91463C946.563 -0.00840521 914.646 -4.45612 882.46 -7.01963C868.826 -8.10554 838.871 -15.042 827.141 -4.5088C816.97 4.62461 844.024 16.307 849.009 18.4936C878.239 31.3134 904.995 44.7452 931.543 62.7976C960.143 82.2459 988.485 98.595 1021.04 110.746C1054.03 123.058 1085.52 137.113 1117.59 151.649C1142.85 163.099 1168.86 173.017 1192.75 187.286C1217.55 202.1 1239.54 220.58 1261.35 239.366C1301.69 274.112 1335.2 312.873 1352.8 363.854C1357.92 378.714 1368.94 403.663 1359.27 419.092C1347.67 437.635 1316.07 436.015 1297.56 435.21C1216.82 431.7 1140.39 396.501 1059.6 392.364C1047.37 391.738 1010.86 387.486 1003.22 402.57C994.719 419.354 1008.54 442.983 1018.61 455.54C1036.67 478.045 1060.39 493.412 1081.22 512.884C1105.61 535.687 1127.59 560.92 1154.52 580.919C1179.46 599.442 1205.36 616.539 1230.01 635.51C1252.98 653.189 1278.01 670.016 1294.72 694.15C1297.82 698.63 1312.97 720.346 1305.25 725.495C1300.14 728.903 1291.49 728.759 1285.73 729.139C1264.14 730.565 1242.38 729.436 1220.94 726.709C1170.44 720.29 1121.19 705.651 1071.1 696.742C1017.06 687.13 961.935 686.281 908.216 674.468C871.053 666.296 841.695 648.56 817.583 618.906C801.08 598.609 794.618 573.751 791.827 548.198C791.386 544.158 792.826 526.651 785.024 527.301C779.393 527.77 774.218 533.118 770.121 536.372C757.153 546.673 744.144 556.702 730.433 566.016C699.036 587.348 668.305 606.14 632.025 618.177C584.525 633.936 534.342 644.743 484.696 650.899C433.527 657.243 381.891 656.922 330.645 662.4C271.867 668.682 212.906 677.612 153.672 677.87C113.678 678.044 69.1663 675.227 37.9305 647.173C13.8334 625.53 -0.157275 587.675 1.96898 555.325C3.90774 525.828 25.1744 504.048 51.2136 492.959C95.4733 474.111 144.944 471.026 192.387 470.524C238.463 470.036 281.478 479.881 326.676 486.966C358.496 491.954 403.93 499.697 433.346 481.782C487.342 448.897 342.301 385.119 327 375.598C299.718 358.623 272.466 340.666 249.65 317.849C241.89 310.089 223.636 289.05 232.641 276.542C243.051 262.084 275.241 260.142 290.633 258.561C320.911 255.453 352.545 256.692 382.967 256.212C402.588 255.903 422.227 256.131 441.85 256.131C452.842 256.131 464.106 255.21 474.815 257.589" stroke="#E9E9E9" stroke-width="2" stroke-linecap="round" stroke-linejoin="round" stroke-dasharray="8 8"/>
</svg>
