<svg width="1440" height="953" viewBox="0 0 1440 953" fill="none" xmlns="http://www.w3.org/2000/svg">
<rect width="1440" height="953" fill="#F0F0FF"/>
<mask id="mask0" mask-type="alpha" maskUnits="userSpaceOnUse" x="0" y="0" width="1440" height="953">
<rect width="1440" height="953" fill="#F5F5FF"/>
</mask>
<g mask="url(#mask0)">
<path d="M-318.811 520.009C-326.146 499.918 -333 481.091 -333 460.089C-333 439.865 -331.853 419.243 -329.847 399.09C-328.233 382.875 -323.996 367.041 -319.937 351.136C-315.505 333.767 -312.293 316.107 -298.992 301.383C-274.154 273.888 -242.872 263.016 -203.611 252.979C-170.192 244.435 -127.42 235.527 -92.9161 245.062C-46.8085 257.802 -6.8739 279.794 28.5898 306.421C63.9981 333.006 78.4324 371.36 86.5838 408.626C107.003 501.979 91.7218 598.216 146.943 685.193C170.858 722.861 205.953 758.317 259.44 769.855C311.728 781.134 365.546 773.136 412.476 753.21C456.183 734.653 491.979 702.107 501.888 662.881C512.84 619.528 509.224 572.99 498.06 529.906C486.142 483.915 455.957 443.883 424.075 405.028C401.587 377.62 359.054 346.727 365.18 310.56C369.76 283.521 407.038 272.03 436.462 269.893C479.671 266.755 528.293 268.169 569.679 279.52C593.335 286.008 602.581 298.322 609.994 316.318C618.395 336.712 632.794 345.309 656.389 354.735C673.401 361.53 690.309 367.638 706.951 375.158C726.232 383.87 745.306 395.484 766.972 400.169C802.547 407.863 834.139 401.42 864.492 385.774C892.045 371.572 911.832 354.795 911.563 327.294C911.275 297.919 887.018 271.982 872.149 246.321C863.768 231.858 853.249 207.597 868.32 193.779C887.457 176.234 919.657 171.556 947.035 175.245C964.027 177.535 980.447 181.652 996.583 186.401C1011.93 190.92 1028.12 193.068 1043.32 197.738C1053.24 200.787 1063.52 204.329 1072.37 209.074C1083.09 214.821 1089.06 221.056 1102.44 223.469C1141.59 230.533 1186.01 214.319 1222.59 205.475C1251.05 198.593 1279.46 192.936 1305.81 181.453C1330.57 170.663 1350.69 152.967 1377.32 145.015C1404.86 136.79 1437.34 138.358 1466.05 141.057C1502.11 144.446 1540.07 143.6 1575.96 139.437C1601.28 136.501 1630.76 131.667 1656.36 135.299C1687.72 139.748 1714.93 160.331 1734.51 179.024C1751.69 195.418 1771 210.009 1771 232.646C1771 308.864 1649.86 314.584 1581.59 301.023C1529.48 290.67 1478.12 277.404 1425.4 269.084C1395.93 264.432 1352.14 259.922 1325.07 272.952C1308.65 280.851 1299.67 292.723 1300.85 307.86C1301.81 320.024 1318.18 328.637 1318.98 340.249C1321.21 372.196 1218.12 352.529 1217.64 366.881C1217.4 373.773 1226.79 380.13 1232.73 383.975C1249.75 395.006 1268.74 402.808 1289.59 408.087C1333.19 419.121 1384.95 422.875 1430.47 418.883C1497.5 413.005 1562.24 376.278 1631.14 392.432C1674.13 402.513 1704.3 427.566 1699.83 464.138C1696.26 493.351 1646.8 494.006 1620.78 494.098C1595.59 494.186 1570.28 494.539 1545.1 493.738C1504.76 492.454 1465.22 486.182 1425.4 481.322C1360.46 473.395 1296.38 468.186 1230.7 468.186C1176.74 468.186 1119.54 464.074 1066.74 474.754C1036 480.971 997.825 495.52 989.038 522.348C979.042 552.869 1015.14 557.339 1044.67 561.305C1099.87 568.72 1159.03 566.955 1214.71 563.734C1268 560.652 1321.49 558.336 1374.84 555.727C1413.13 553.854 1451.31 551.895 1489.7 552.398C1507.68 552.633 1537.32 557.312 1539.7 575.34C1540.92 584.635 1542.11 603.335 1529.79 609.079C1525.23 611.203 1497.93 615.17 1497.47 616.456C1494.75 624.073 1527.18 625.118 1531.82 625.633C1547.9 627.418 1561.18 634.931 1575.4 640.748C1593.29 648.071 1608.52 654.193 1618.53 668.639C1624.52 677.295 1626.57 687.258 1632.72 696.169C1640.31 707.172 1652.48 723.593 1635.64 732.967C1624.31 739.278 1609.61 738.635 1596.45 738.635C1574.13 738.635 1552.36 737.518 1530.47 733.777C1505.74 729.553 1482.49 720.084 1457.72 716.862C1421.15 712.106 1381.93 719.063 1346.01 724.06C1312.79 728.682 1278.93 737.269 1251.19 753.3C1219.87 771.405 1194.01 784.014 1154.35 787.219C1039.49 796.499 922.766 746.072 853.906 674.397C824.727 644.025 797.934 610.782 762.918 584.427C743.624 569.906 698.591 549.917 672.83 566.433C648.888 581.783 645.504 618.897 649.295 641.108C654.104 669.287 679.668 695.21 702.784 715.603C732.206 741.558 763.545 764.875 798.953 785.509C831.796 804.649 864.14 824.965 900.977 839.041C920.851 846.635 940.236 857.15 962.35 860.094C982.255 862.745 993.894 859.696 1012.91 854.516C1047.15 845.192 1085.33 847.695 1120.12 839.041C1158.3 829.542 1191.11 811.897 1224.39 794.776C1260.52 776.191 1303.82 763.936 1345.11 754.83C1378.58 747.449 1413.67 739.625 1448.6 738.725C1465.89 738.279 1544 752.017 1519.2 776.782C1498.7 797.26 1463.66 806.697 1434.52 816.369C1423.72 819.954 1385.85 821.987 1400.4 836.522C1414.16 850.258 1449.5 854.532 1469.43 858.115C1499.99 863.607 1530.05 866.473 1558.62 877.548C1585.07 887.805 1596.44 902.591 1612.9 920.374C1628.44 937.177 1581.51 944.991 1587.9 954.562C1600.74 973.801 1643.26 971.437 1652.53 992.889C1655.81 1000.47 1651 1010.35 1646.45 1016.82C1632.56 1036.59 1600 1046.79 1574.72 1053.98C1518.28 1070.03 1453.77 1072.06 1394.43 1072.24C1317.57 1072.48 1226.82 1079.76 1159.08 1043.81C1136.97 1032.08 1120.4 1017.23 1134.64 996.218C1144.26 982.037 1158.28 968.714 1175.07 959.601C1179.05 957.44 1211.55 943.754 1211.55 939.447C1211.55 927.976 1156.39 928.463 1147.48 928.111C1094.21 926.009 1037.57 922.655 984.534 928.471C929.179 934.541 886.15 955.916 838.592 977.415C795.332 996.969 748.564 997.82 700.532 1003.33C673.814 1006.39 647.177 1009.85 620.354 1012.32C598.077 1014.38 570.831 1020.85 555.378 1003.96C544.419 991.974 543.252 973.848 541.865 959.691C539.9 939.633 540.626 919.422 540.626 899.321C540.626 882.587 540.626 865.852 540.626 849.118C540.626 841.686 543.936 827.47 536.46 821.497C519.404 807.871 496.008 836.921 489.952 845.879C471.362 873.376 456.083 904.175 429.818 927.931C402.886 952.291 350.821 963.144 311.578 964.999C287.839 966.12 262.592 966.354 239.057 963.379C213.194 960.11 191.528 948.748 170.253 937.198C137.55 919.445 112.635 892.13 94.8043 864.233C82.1989 844.51 77.2385 823.826 73.4085 801.794C71.3843 790.15 68.341 777.915 68.341 766.166C68.341 756.598 60.249 751.68 49.1974 747.722C35.6811 742.881 10.0529 742.662 -3.05353 748.712C-13.1227 753.36 -20.1552 757.965 -32.1068 760.408C-52.4787 764.571 -74.0175 770.4 -94.9431 772.284C-113.842 773.985 -137.178 764.482 -154.514 759.688C-186.161 750.936 -219.652 741.911 -247.417 726.579C-286.864 704.796 -300.981 670.144 -289.082 633.64C-283.8 617.433 -274.149 602.195 -262.957 588.116C-250.633 572.614 -237.708 555.461 -221.066 542.681C-199.034 525.762 -163.665 509.776 -154.964 485.011C-145.014 456.689 -163.018 430.343 -192.688 415.104C-216.125 403.067 -247.923 403.971 -264.646 423.831C-282.961 445.583 -273.58 475.847 -259.578 496.977C-250.81 510.21 -237.732 524.024 -237.732 539.442" stroke="#DBDBFF" stroke-width="2" stroke-linecap="round" stroke-linejoin="round" stroke-dasharray="7 7"/>
</g>
</svg>
