<svg width="65" height="65" viewBox="0 0 65 65" fill="none" xmlns="http://www.w3.org/2000/svg">
<circle cx="32.5" cy="32.5" r="32.5" fill="#0063A1"/>
<rect x="22" y="41.25" width="22" height="2.75" fill="white"/>
<path d="M32.9995 37.2572L38.2606 32.0165L37.293 31.0526L33.6837 34.6478V22.5259H32.3152V34.6478L28.706 31.0526L27.7383 32.0165L32.9995 37.2572Z" fill="white"/>
<path fill-rule="evenodd" clip-rule="evenodd" d="M31.7895 22H34.2102V33.3814L37.2933 30.3103L39.0065 32.0168L32.9998 38L26.9932 32.0168L28.7063 30.3103L31.7895 33.3814V22ZM32.8417 23.0522V35.9147L28.7063 31.7955L28.4842 32.0168L32.9998 36.5148L37.5155 32.0168L37.2933 31.7955L33.1579 35.9147V23.0522H32.8417Z" fill="white"/>
</svg>
