<svg width="45" height="45" viewBox="0 0 45 45" fill="none" xmlns="http://www.w3.org/2000/svg">
<path d="M13.255 28.9513C13.255 28.204 12.7364 27.7583 11.8215 27.7583C11.4479 27.7583 11.1948 27.7952 11.0625 27.8304V30.2282C11.2192 30.2635 11.4118 30.2752 11.6774 30.2752C12.6526 30.2752 13.255 29.7825 13.255 28.9513Z" fill="#0063A1"/>
<path d="M18.919 27.7837C18.5093 27.7837 18.2445 27.8191 18.0879 27.8557V33.1661C18.2446 33.2028 18.4976 33.2028 18.7264 33.2028C20.3886 33.2146 21.4726 32.2996 21.4726 30.3609C21.4844 28.675 20.4966 27.7837 18.919 27.7837Z" fill="#0063A1"/>
<path d="M29.4426 0H11.3688C8.7284 0 6.57939 2.15051 6.57939 4.78943V22.4999H6.1116C5.04591 22.4999 4.18164 23.3633 4.18164 24.43V36.1344C4.18164 37.2009 5.04582 38.0643 6.1116 38.0643H6.57939V40.2105C6.57939 42.8523 8.7284 44.9999 11.3688 44.9999H36.0298C38.6685 44.9999 40.8178 42.8522 40.8178 40.2105V11.3353L29.4426 0ZM9.24472 26.5422C9.81033 26.4466 10.6053 26.3746 11.7254 26.3746C12.8574 26.3746 13.6642 26.5906 14.2063 27.0246C14.7241 27.4336 15.0735 28.1087 15.0735 28.9032C15.0735 29.6974 14.8087 30.3727 14.3269 30.8301C13.7003 31.42 12.7736 31.6848 11.6895 31.6848C11.4482 31.6848 11.232 31.6729 11.0629 31.6494V34.5517H9.24472V26.5422ZM36.0298 42.0668H11.3688C10.3464 42.0668 9.5139 41.2343 9.5139 40.2105V38.0643H32.503C33.5688 38.0643 34.433 37.2009 34.433 36.1344V24.43C34.433 23.3633 33.5688 22.4999 32.503 22.4999H9.5139V4.78943C9.5139 3.76854 10.3465 2.936 11.3688 2.936L28.3453 2.91827V9.19339C28.3453 11.0263 29.8325 12.5149 31.6668 12.5149L37.8139 12.4972L37.8831 40.2104C37.8831 41.2343 37.0521 42.0668 36.0298 42.0668ZM16.2459 34.515V26.5422C16.9202 26.4349 17.7992 26.3746 18.7267 26.3746C20.2682 26.3746 21.2678 26.6511 22.0511 27.2409C22.894 27.8675 23.4235 28.8664 23.4235 30.3005C23.4235 31.8538 22.8578 32.9262 22.0745 33.5881C21.2198 34.2985 19.9189 34.6355 18.3295 34.6355C17.3777 34.6355 16.7033 34.5752 16.2459 34.515ZM29.3898 29.7946V31.2876H26.475V34.5517H24.6326V26.4349H29.5942V27.9396H26.475V29.7946H29.3898Z" fill="#0063A1"/>
</svg>
