<svg width="386" height="105" viewBox="0 0 386 105" fill="none" xmlns="http://www.w3.org/2000/svg">
<g filter="url(#filter0_d)">
<rect x="21" y="21" width="343.412" height="59.2941" rx="29.6471" fill="white"/>
</g>
<g clip-path="url(#clip0)">
<path d="M60.6245 41.481V45.4207H54.3938V47.6145H58.8764V51.3528H54.3938V57.3295H49.418V41.481H60.6245Z" fill="#FF690F"/>
<path d="M74.722 54.9342H69.4325L68.6481 57.3295H63.4258L69.2308 41.481H74.9685L80.751 57.3295H75.5065L74.722 54.9342ZM73.5116 51.196L72.0773 46.7861L70.6429 51.196H73.5116Z" fill="#FF690F"/>
<path d="M89.0891 53.5688H93.8854V57.3295H84.1133V41.481H89.0891V53.5688Z" fill="#FF690F"/>
<path d="M109.248 55.1134C108.777 55.8447 108.094 56.4228 107.197 56.8482C106.301 57.2734 105.232 57.4862 103.992 57.4862C102.095 57.4862 100.529 57.0422 99.2968 56.1542C98.0641 55.2666 97.3953 53.9645 97.2908 52.2481H102.58C102.655 53.1586 103.058 53.6135 103.791 53.6135C104.045 53.6135 104.25 53.5463 104.407 53.4122C104.564 53.2779 104.642 53.0841 104.642 52.83C104.642 52.4572 104.452 52.1625 104.071 51.9458C103.69 51.7298 103.073 51.4796 102.222 51.196C101.221 50.8679 100.387 50.5321 99.7227 50.1886C99.0576 49.8455 98.4787 49.338 97.9858 48.6666C97.4926 47.995 97.2461 47.1219 97.2461 46.0474C97.2461 45.0178 97.5112 44.1413 98.0417 43.4173C98.5719 42.6935 99.2968 42.1451 100.216 41.7719C101.135 41.3991 102.169 41.2124 103.32 41.2124C105.217 41.2124 106.727 41.6528 107.847 42.5331C108.968 43.4137 109.581 44.682 109.685 46.3385H104.328C104.254 45.5029 103.91 45.0849 103.298 45.0849C103.088 45.0849 102.917 45.1487 102.782 45.2753C102.648 45.4021 102.58 45.5925 102.58 45.8459C102.58 46.1894 102.771 46.4694 103.152 46.6854C103.533 46.9019 104.127 47.1521 104.934 47.4353C105.95 47.7935 106.79 48.1482 107.455 48.4987C108.12 48.8495 108.703 49.3643 109.203 50.0431C109.704 50.7224 109.954 51.5917 109.954 52.651C109.954 53.5615 109.719 54.3824 109.248 55.1134Z" fill="#FF690F"/>
<path d="M125.027 42.0966C126.111 42.6114 126.992 43.339 127.672 44.279C128.352 45.2192 128.804 46.316 129.028 47.5696H123.784C123.544 47.0475 123.204 46.6407 122.764 46.3496C122.323 46.0587 121.819 45.9131 121.251 45.9131C120.414 45.9131 119.753 46.2266 119.267 46.8533C118.782 47.4802 118.539 48.3233 118.539 49.3829C118.539 50.4427 118.782 51.2856 119.267 51.9122C119.753 52.5391 120.414 52.8525 121.251 52.8525C121.819 52.8525 122.323 52.707 122.764 52.4159C123.204 52.1251 123.544 51.7185 123.784 51.196H129.028C128.804 52.4495 128.352 53.5463 127.672 54.4865C126.992 55.4268 126.111 56.1542 125.027 56.6692C123.944 57.184 122.715 57.4413 121.341 57.4413C119.742 57.4413 118.352 57.1021 117.172 56.4228C115.991 55.744 115.084 54.7926 114.449 53.5688C113.813 52.3454 113.496 50.9498 113.496 49.3829C113.496 47.816 113.813 46.4206 114.449 45.1968C115.084 43.9734 115.991 43.022 117.172 42.3427C118.352 41.6639 119.742 41.3242 121.341 41.3242C122.715 41.3242 123.944 41.5817 125.027 42.0966Z" fill="#FF690F"/>
<path d="M147.743 41.481V57.3295H142.767V51.1513H138.038V57.3295H133.062V41.481H138.038V47.1891H142.767V41.481H147.743Z" fill="#FF690F"/>
<path d="M157.2 52.293V57.3295H152.225V41.481H159.173C161.115 41.481 162.605 41.9734 163.644 42.9583C164.682 43.9432 165.202 45.2639 165.202 46.9205C165.202 47.9204 164.97 48.827 164.507 49.6402C164.044 50.4538 163.36 51.0991 162.456 51.5765C161.552 52.0543 160.458 52.293 159.173 52.293H157.2ZM160.159 46.9205C160.159 45.9505 159.643 45.4654 158.612 45.4654H157.2V48.3755H158.612C159.643 48.3755 160.159 47.8906 160.159 46.9205Z" fill="#0063A1"/>
<path d="M179.189 54.9342H173.899L173.115 57.3295H167.893L173.698 41.481H179.435L185.218 57.3295H179.973L179.189 54.9342ZM177.978 51.196L176.544 46.7861L175.11 51.196H177.978Z" fill="#0063A1"/>
<path d="M196.559 57.3295L193.556 51.6436V57.3295H188.58V41.481H195.976C197.261 41.481 198.359 41.7086 199.271 42.1637C200.182 42.6191 200.865 43.2383 201.322 44.0217C201.777 44.8052 202.005 45.6894 202.005 46.6743C202.005 47.7341 201.71 48.6743 201.12 49.4948C200.529 50.3156 199.681 50.9051 198.576 51.2631L202.028 57.3295H196.559ZM193.556 48.3308H195.528C196.006 48.3308 196.365 48.2226 196.604 48.0061C196.843 47.7899 196.963 47.4505 196.963 46.9876C196.963 46.5699 196.839 46.2416 196.593 46.0027C196.346 45.7642 195.991 45.6447 195.528 45.6447H193.556V48.3308Z" fill="#0063A1"/>
<path d="M215.543 49.1814L221.415 57.3295H215.431L210.814 50.4572V57.3295H205.838V41.481H210.814V48.174L215.476 41.481H221.415L215.543 49.1814Z" fill="#0063A1"/>
<path d="M229.974 45.4207V47.3906H234.905V51.1288H229.974V53.3673H235.577V57.3295H224.998V41.481H235.577V45.4207H229.974Z" fill="#0063A1"/>
<path d="M247.68 57.3295L244.677 51.6436V57.3295H239.701V41.481H247.098C248.382 41.481 249.481 41.7086 250.392 42.1637C251.303 42.6191 251.987 43.2383 252.443 44.0217C252.899 44.8052 253.127 45.6894 253.127 46.6743C253.127 47.7341 252.831 48.6743 252.242 49.4948C251.651 50.3156 250.803 50.9051 249.698 51.2631L253.149 57.3295H247.68ZM244.677 48.3308H246.65C247.127 48.3308 247.486 48.2226 247.725 48.0061C247.964 47.7899 248.084 47.4505 248.084 46.9876C248.084 46.5699 247.961 46.2416 247.714 46.0027C247.467 45.7642 247.113 45.6447 246.65 45.6447H244.677V48.3308Z" fill="#0063A1"/>
<path d="M276.337 46.1817C277.211 47.1072 277.648 48.4279 277.648 50.1439V57.3295H275.093V50.4125C275.093 49.338 274.824 48.5064 274.286 47.9165C273.748 47.3273 273.009 47.0323 272.067 47.0323C271.066 47.0323 270.27 47.3497 269.68 47.9837C269.09 48.6183 268.795 49.5472 268.795 50.7708V57.3295H266.24V50.4125C266.24 49.338 265.971 48.5064 265.433 47.9165C264.895 47.3273 264.155 47.0323 263.214 47.0323C262.213 47.0323 261.417 47.3497 260.827 47.9837C260.236 48.6183 259.942 49.5472 259.942 50.7708V57.3295H257.387V44.9953H259.942V47.5696C260.255 46.6743 260.778 45.9879 261.51 45.5103C262.242 45.0327 263.102 44.7938 264.088 44.7938C265.119 44.7938 266.012 45.0479 266.766 45.555C267.521 46.0626 268.07 46.7939 268.414 47.7488C268.772 46.8236 269.347 46.1 270.14 45.5775C270.931 45.0552 271.828 44.7938 272.829 44.7938C274.294 44.7938 275.463 45.2567 276.337 46.1817Z" fill="#73849B"/>
<path d="M292.013 51.6661H282.51C282.555 52.9346 282.906 53.8748 283.563 54.4865C284.221 55.0987 285.035 55.4043 286.006 55.4043C286.858 55.4043 287.579 55.1883 288.169 54.7552C288.759 54.3225 289.122 53.7478 289.256 53.0315H291.991C291.826 53.8973 291.483 54.6656 290.96 55.3371C290.436 56.0087 289.757 56.5349 288.92 56.9154C288.083 57.2959 287.15 57.4862 286.119 57.4862C284.923 57.4862 283.866 57.2326 282.947 56.725C282.028 56.2179 281.307 55.4867 280.784 54.5315C280.261 53.5765 280 52.4495 280 51.1513C280 49.868 280.261 48.7487 280.784 47.7935C281.307 46.8385 282.028 46.1073 282.947 45.5997C283.866 45.0926 284.923 44.8387 286.119 44.8387C287.329 44.8387 288.386 45.0888 289.29 45.5886C290.194 46.0887 290.888 46.775 291.374 47.6481C291.86 48.5209 292.103 49.4947 292.103 50.5693C292.103 50.9872 292.073 51.3527 292.013 51.6661ZM289.111 48.4762C288.804 47.9317 288.386 47.5287 287.856 47.2674C287.325 47.0064 286.746 46.8758 286.119 46.8758C285.117 46.8758 284.281 47.1818 283.608 47.7935C282.936 48.4057 282.57 49.3082 282.51 50.5021H289.525C289.555 49.6962 289.417 49.0212 289.111 48.4762Z" fill="#73849B"/>
<path d="M297.123 40.7647V57.3295H294.568V40.7647H297.123Z" fill="#73849B"/>
<path d="M308.039 45.6669C308.831 46.2191 309.384 46.9506 309.698 47.8607V40.7647H312.275V57.3295H309.698V54.4643C309.384 55.3746 308.831 56.1061 308.039 56.6579C307.247 57.2101 306.291 57.4862 305.171 57.4862C304.095 57.4862 303.134 57.2326 302.29 56.725C301.446 56.2179 300.785 55.4867 300.307 54.5315C299.828 53.5765 299.59 52.4495 299.59 51.1513C299.59 49.868 299.828 48.7487 300.307 47.7935C300.785 46.8385 301.446 46.1073 302.29 45.5997C303.134 45.0926 304.095 44.8387 305.171 44.8387C306.291 44.8387 307.247 45.1151 308.039 45.6669ZM303.232 48.1629C302.552 48.8869 302.212 49.8829 302.212 51.1513C302.212 52.4198 302.552 53.4158 303.232 54.1396C303.912 54.8636 304.819 55.2253 305.955 55.2253C306.672 55.2253 307.314 55.0574 307.883 54.7216C308.45 54.3858 308.899 53.9123 309.227 53.3001C309.556 52.6884 309.72 51.9721 309.72 51.1513C309.72 50.3453 309.556 49.6329 309.227 49.0135C308.899 48.3943 308.45 47.9165 307.883 47.5809C307.314 47.2451 306.672 47.0772 305.955 47.0772C304.819 47.0772 303.912 47.4391 303.232 48.1629Z" fill="#73849B"/>
<path d="M326.732 51.6661H317.229C317.274 52.9346 317.624 53.8748 318.282 54.4865C318.94 55.0987 319.754 55.4043 320.725 55.4043C321.577 55.4043 322.298 55.1883 322.888 54.7552C323.478 54.3225 323.841 53.7478 323.975 53.0315H326.709C326.545 53.8973 326.202 54.6656 325.679 55.3371C325.155 56.0087 324.475 56.5349 323.639 56.9154C322.802 57.2959 321.868 57.4862 320.837 57.4862C319.642 57.4862 318.585 57.2326 317.666 56.725C316.747 56.2179 316.026 55.4867 315.503 54.5315C314.98 53.5765 314.719 52.4495 314.719 51.1513C314.719 49.868 314.98 48.7487 315.503 47.7935C316.026 46.8385 316.747 46.1073 317.666 45.5997C318.585 45.0926 319.642 44.8387 320.837 44.8387C322.047 44.8387 323.105 45.0888 324.009 45.5886C324.913 46.0887 325.607 46.775 326.093 47.6481C326.579 48.5209 326.822 49.4947 326.822 50.5693C326.822 50.9872 326.791 51.3527 326.732 51.6661ZM323.829 48.4762C323.523 47.9317 323.105 47.5287 322.574 47.2674C322.044 47.0064 321.465 46.8758 320.837 46.8758C319.836 46.8758 319 47.1818 318.327 47.7935C317.655 48.4057 317.289 49.3082 317.229 50.5021H324.244C324.274 49.6962 324.136 49.0212 323.829 48.4762Z" fill="#73849B"/>
<path d="M339.642 46.1817C340.508 47.1072 340.942 48.4279 340.942 50.1439V57.3295H338.387V50.4125C338.387 49.3082 338.103 48.4538 337.535 47.8496C336.967 47.2451 336.19 46.9429 335.204 46.9429C334.188 46.9429 333.374 47.2674 332.761 47.9165C332.148 48.5659 331.842 49.5172 331.842 50.7708V57.3295H329.287V44.9953H331.842V47.7039C332.17 46.7789 332.723 46.0626 333.501 45.555C334.277 45.0479 335.174 44.7938 336.19 44.7938C337.625 44.7938 338.775 45.2567 339.642 46.1817Z" fill="#73849B"/>
<path d="M150.138 61.912H49.4102V64.2353H150.138V61.912Z" fill="#FF690F"/>
<path d="M253.658 61.912H150.139V64.2353H253.658V61.912Z" fill="#0063A1"/>
</g>
<path d="M62.045 92.7704V99.2186L57.8054 92.7704H55.2706V103.176H57.8054V96.7579L62.045 103.176H64.5798V92.7704H62.045ZM75.756 92.7704H69.3819V103.176H75.756V101.146H71.9168V98.8628H75.3113V96.9061H71.9168V94.8012H75.756V92.7704ZM80.3219 98.9814C80.3219 101.857 82.2045 103.28 84.6207 103.28C87.0222 103.28 89.0382 101.857 89.0382 98.9814V92.7704H86.5033V98.9962C86.5033 100.227 85.8659 100.938 84.6652 100.938C83.4645 100.938 82.8567 100.227 82.8567 98.9962V92.7704H80.3219V98.9814ZM96.4659 101.931C96.4659 101.146 95.8581 100.538 94.9687 100.538C94.0645 100.538 93.4567 101.146 93.4567 101.931C93.4567 102.687 94.0645 103.295 94.9687 103.295C95.8581 103.295 96.4659 102.687 96.4659 101.931ZM96.4659 95.8981C96.4659 95.1125 95.8581 94.5047 94.9687 94.5047C94.0645 94.5047 93.4567 95.1125 93.4567 95.8981C93.4567 96.6541 94.0645 97.2619 94.9687 97.2619C95.8581 97.2619 96.4659 96.6541 96.4659 95.8981ZM107.066 103.176H109.601V98.9666H112.773V96.9951H109.601V94.8012H113.84V92.7704H107.066V103.176ZM118.093 98.9814C118.093 101.857 119.976 103.28 122.392 103.28C124.793 103.28 126.809 101.857 126.809 98.9814V92.7704H124.274V98.9962C124.274 100.227 123.637 100.938 122.436 100.938C121.236 100.938 120.628 100.227 120.628 98.9962V92.7704H118.093V98.9814ZM120.954 91.8216C121.577 91.8216 122.051 91.3473 122.051 90.7395C122.051 90.1169 121.577 89.6426 120.954 89.6426C120.346 89.6426 119.872 90.1169 119.872 90.7395C119.872 91.3473 120.346 91.8216 120.954 91.8216ZM123.919 91.8216C124.541 91.8216 125.016 91.3473 125.016 90.7395C125.016 90.1169 124.541 89.6426 123.919 89.6426C123.311 89.6426 122.837 90.1169 122.837 90.7395C122.837 91.3473 123.311 91.8216 123.919 91.8216ZM137.053 96.1501C137.053 96.9654 136.609 97.4546 135.66 97.4546H134.089V94.8753H135.66C136.609 94.8753 137.053 95.3793 137.053 96.1501ZM131.554 92.7704V103.176H134.089V99.2482H134.696L136.861 103.176H139.722L137.32 99.0555C138.921 98.5812 139.633 97.3508 139.633 96.0463C139.633 94.2379 138.358 92.7704 135.808 92.7704H131.554ZM155.157 92.6518C152.044 92.6518 149.865 94.8456 149.865 97.9586C149.865 101.072 152.059 103.251 155.172 103.251C157.914 103.251 159.648 101.457 160.182 99.6633V97.3063H154.668V99.1741H157.884C157.499 100.345 156.624 101.012 155.364 101.012C153.541 101.012 152.444 99.8856 152.444 97.9586C152.444 96.1501 153.526 94.9939 155.157 94.9939C156.105 94.9939 156.817 95.3645 157.202 96.0612H160.004C159.456 93.9266 157.647 92.6518 155.157 92.6518ZM170.925 92.7704H164.551V103.176H170.925V101.146H167.086V98.8628H170.48V96.9061H167.086V94.8012H170.925V92.7704ZM177.625 103.176H180.694L182.413 96.328L184.074 103.176H187.142L189.855 92.7704H187.127L185.615 100.345L183.836 92.7704H181.05L179.197 100.345L177.699 92.7704H174.987L177.625 103.176ZM200.465 92.7704H194.091V103.176H200.465V101.146H196.625V98.8628H200.02V96.9061H196.625V94.8012H200.465V92.7704ZM210.575 96.1501C210.575 96.9654 210.13 97.4546 209.181 97.4546H207.61V94.8753H209.181C210.13 94.8753 210.575 95.3793 210.575 96.1501ZM205.075 92.7704V103.176H207.61V99.2482H208.218L210.382 103.176H213.243L210.841 99.0555C212.442 98.5812 213.154 97.3508 213.154 96.0463C213.154 94.2379 211.879 92.7704 209.329 92.7704H205.075ZM223.447 100.004C223.447 100.745 222.957 101.131 222.112 101.131H220.245V98.8332H222.083C222.928 98.8332 223.447 99.2631 223.447 100.004ZM223.195 95.8981C223.195 96.6096 222.735 96.9802 221.905 96.9802H220.245V94.8012H221.905C222.735 94.8012 223.195 95.1866 223.195 95.8981ZM226.011 100.345C226.011 99.1593 225.225 98.092 224.01 97.84C225.018 97.5435 225.774 96.7282 225.774 95.4682C225.774 93.8228 224.514 92.7704 222.394 92.7704H217.71V103.176H222.557C224.751 103.176 226.011 102.065 226.011 100.345ZM236.82 92.7704H230.446V103.176H236.82V101.146H232.981V98.8628H236.375V96.9061H232.981V94.8012H236.82V92.7704ZM254.919 95.2904C254.963 93.8525 253.911 92.5628 251.791 92.5628C249.715 92.5628 248.544 93.7487 248.544 95.2162C248.544 95.8833 248.737 96.4466 249.271 97.084C247.833 97.7659 247.151 98.8776 247.151 100.152C247.151 102.08 248.678 103.34 251.094 103.34C252.458 103.34 253.584 102.969 254.533 102.243L255.497 103.176H258.447L255.941 100.716C256.267 100.227 256.579 99.6781 256.86 99.0555L257.572 97.7659H255.037L254.489 98.6998C254.429 98.848 254.355 98.9814 254.296 99.1148L251.761 96.6393C251.213 96.0612 250.931 95.6313 250.931 95.2014C250.931 94.7567 251.287 94.4602 251.761 94.4602C252.206 94.4602 252.547 94.7271 252.532 95.2904H254.919ZM251.213 101.294C250.205 101.294 249.597 100.701 249.597 99.9746C249.597 99.3816 249.953 98.8628 250.664 98.4922L252.977 100.731C252.473 101.101 251.895 101.294 251.213 101.294ZM270.969 97.4249V94.816H272.348C273.356 94.816 273.785 95.32 273.785 96.1205C273.785 96.9209 273.356 97.4249 272.348 97.4249H270.969ZM276.365 96.1205C276.365 94.2082 275.09 92.7704 272.54 92.7704H268.434V103.176H270.969V99.4409H272.54C275.194 99.4409 276.365 97.84 276.365 96.1205ZM286.149 96.1501C286.149 96.9654 285.704 97.4546 284.755 97.4546H283.184V94.8753H284.755C285.704 94.8753 286.149 95.3793 286.149 96.1501ZM280.649 92.7704V103.176H283.184V99.2482H283.792L285.956 103.176H288.817L286.415 99.0555C288.016 98.5812 288.728 97.3508 288.728 96.0463C288.728 94.2379 287.453 92.7704 284.903 92.7704H280.649ZM293.284 103.176H295.819V92.7704H293.284V103.176ZM305.112 100.627L302.533 92.7704H299.835L303.526 103.176H306.698L310.389 92.7704H307.706L305.112 100.627ZM321.514 103.176H324.197L320.431 92.7704H317.496L313.731 103.176H316.385L317.007 101.338H320.891L321.514 103.176ZM320.239 99.3816H317.674L318.949 95.572L320.239 99.3816ZM327.744 94.8012H330.501V103.176H333.036V94.8012H335.793V92.7704H327.744V94.8012Z" fill="white"/>
<defs>
<filter id="filter0_d" x="0" y="0" width="385.412" height="101.294" filterUnits="userSpaceOnUse" color-interpolation-filters="sRGB">
<feFlood flood-opacity="0" result="BackgroundImageFix"/>
<feColorMatrix in="SourceAlpha" type="matrix" values="0 0 0 0 0 0 0 0 0 0 0 0 0 0 0 0 0 0 127 0"/>
<feOffset/>
<feGaussianBlur stdDeviation="10.5"/>
<feColorMatrix type="matrix" values="0 0 0 0 0.504167 0 0 0 0 0.504167 0 0 0 0 0.504167 0 0 0 0.23 0"/>
<feBlend mode="normal" in2="BackgroundImageFix" result="effect1_dropShadow"/>
<feBlend mode="normal" in="SourceGraphic" in2="effect1_dropShadow" result="shape"/>
</filter>
<clipPath id="clip0">
<rect width="291.529" height="23.4706" fill="white" transform="translate(49.4102 40.7647)"/>
</clipPath>
</defs>
</svg>
