<svg width="1433" height="759" viewBox="0 0 1433 759" fill="none" xmlns="http://www.w3.org/2000/svg">
<path d="M-2.32953 305.679C-7.36265 289.249 -12.0664 273.851 -12.0664 256.676C-12.0664 240.137 -11.2796 223.272 -9.90266 206.791C-8.79485 193.531 -5.88769 180.582 -3.1023 167.574C-0.0606774 153.37 2.14314 138.928 11.2712 126.886C28.3158 104.4 49.7826 95.5099 76.7246 87.3012C99.6582 80.3138 129.01 73.0292 152.688 80.8264C184.328 91.2459 211.733 109.231 236.069 131.006C260.368 152.748 270.273 184.114 275.867 214.59C289.879 290.934 279.393 369.637 317.287 440.767C333.699 471.572 357.782 500.567 394.487 510.003C430.369 519.227 467.301 512.687 499.506 496.391C529.499 481.215 554.063 454.599 560.864 422.52C568.379 387.065 565.898 349.007 558.236 313.772C550.058 276.161 529.344 243.423 507.465 211.647C492.033 189.233 462.845 163.969 467.05 134.391C470.193 112.278 495.774 102.882 515.966 101.134C545.618 98.5672 578.983 99.7236 607.384 109.007C623.618 114.312 629.962 124.383 635.049 139.1C640.814 155.778 650.695 162.809 666.887 170.517C678.561 176.075 690.164 181.069 701.585 187.219C714.816 194.344 727.906 203.842 742.773 207.674C767.186 213.965 788.866 208.696 809.695 195.901C828.603 184.287 842.181 170.567 841.997 148.076C841.799 124.053 825.153 102.842 814.95 81.8565C809.198 70.0284 801.98 50.1877 812.322 38.8873C825.455 24.5388 847.551 20.7131 866.339 23.7304C878 25.6031 889.267 28.9697 900.341 32.854C910.876 36.5495 921.983 38.3062 932.41 42.1247C939.22 44.6183 946.273 47.5148 952.348 51.3955C959.706 56.0956 963.803 61.1946 972.981 63.1678C999.849 68.9445 1030.34 55.6847 1055.44 48.4524C1074.97 42.8247 1094.46 38.1981 1112.54 28.8072C1129.53 19.9828 1143.34 5.51114 1161.61 -0.991615C1180.52 -7.71795 1202.8 -6.43598 1222.51 -4.22902C1247.25 -1.45712 1273.3 -2.14904 1297.93 -5.55341C1315.3 -7.95455 1335.54 -11.908 1353.11 -8.93797C1374.63 -5.29941 1393.29 11.5338 1406.74 26.8206C1418.52 40.2276 1431.77 52.1602 1431.77 70.6727C1431.77 133.004 1348.64 137.682 1301.79 126.592C1266.03 118.125 1230.79 107.276 1194.61 100.472C1174.38 96.6676 1144.34 92.9797 1125.76 103.635C1114.49 110.095 1108.33 119.804 1109.14 132.183C1109.8 142.13 1121.03 149.174 1121.58 158.671C1123.11 184.797 1052.37 168.713 1052.03 180.45C1051.87 186.087 1058.32 191.286 1062.39 194.43C1074.07 203.452 1087.1 209.831 1101.41 214.149C1131.33 223.173 1166.85 226.242 1198.09 222.978C1244.09 218.171 1288.52 188.135 1335.8 201.346C1365.3 209.591 1386 230.079 1382.93 259.987C1380.49 283.878 1346.54 284.414 1328.69 284.489C1311.4 284.561 1294.03 284.85 1276.76 284.194C1249.07 283.144 1221.93 278.015 1194.61 274.041C1150.05 267.558 1106.07 263.298 1061 263.298C1023.97 263.298 984.719 259.935 948.484 268.669C927.393 273.753 901.193 285.652 895.163 307.592C888.303 332.552 913.077 336.207 933.338 339.451C971.218 345.515 1011.82 344.071 1050.03 341.437C1086.59 338.917 1123.31 337.023 1159.91 334.889C1186.19 333.357 1212.39 331.755 1238.74 332.167C1251.07 332.359 1271.42 336.185 1273.05 350.929C1273.89 358.53 1274.7 373.823 1266.25 378.52C1263.12 380.258 1244.38 383.501 1244.07 384.554C1242.2 390.783 1264.45 391.637 1267.64 392.059C1278.67 393.518 1287.79 399.663 1297.54 404.42C1309.82 410.409 1320.28 415.415 1327.14 427.229C1331.25 434.308 1332.66 442.455 1336.88 449.743C1342.09 458.741 1350.44 472.17 1338.89 479.836C1331.11 484.997 1321.02 484.472 1311.99 484.472C1296.67 484.472 1281.74 483.558 1266.71 480.499C1249.74 477.044 1233.78 469.3 1216.79 466.666C1191.69 462.776 1164.78 468.466 1140.13 472.552C1117.33 476.332 1094.1 483.355 1075.06 496.465C1053.57 511.271 1035.82 521.583 1008.61 524.204C929.783 531.793 849.685 490.554 802.431 431.938C782.407 407.099 764.021 379.913 739.991 358.36C726.751 346.485 695.848 330.138 678.17 343.645C661.74 356.198 659.417 386.549 662.019 404.714C665.319 427.759 682.862 448.959 698.725 465.636C718.916 486.862 740.422 505.931 764.72 522.806C787.258 538.458 809.453 555.073 834.733 566.584C848.37 572.794 861.673 581.393 876.848 583.801C890.508 585.969 898.496 583.475 911.546 579.239C935.038 571.614 961.243 573.661 985.113 566.584C1011.32 558.815 1033.83 544.386 1056.67 530.384C1081.47 515.185 1111.18 505.163 1139.51 497.716C1162.48 491.68 1186.56 485.281 1210.53 484.545C1222.4 484.181 1276 495.416 1258.98 515.669C1244.91 532.415 1220.87 540.133 1200.87 548.043C1193.46 550.975 1167.47 552.637 1177.46 564.524C1186.89 575.758 1211.15 579.253 1224.83 582.182C1245.79 586.674 1266.43 589.018 1286.03 598.075C1304.18 606.463 1311.99 618.555 1323.28 633.098C1333.94 646.84 1301.74 653.23 1306.12 661.057C1314.93 676.791 1344.11 674.858 1350.48 692.401C1352.73 698.598 1349.43 706.678 1346.3 711.973C1336.77 728.136 1314.43 736.481 1297.08 742.36C1258.35 755.485 1214.08 757.148 1173.36 757.297C1120.62 757.489 1058.34 763.445 1011.85 734.046C996.677 724.451 985.307 712.306 995.082 695.124C1001.68 683.526 1011.3 672.631 1022.82 665.178C1025.56 663.411 1047.86 652.219 1047.86 648.696C1047.86 639.315 1010.01 639.713 1003.89 639.426C967.335 637.707 928.466 634.964 892.072 639.72C854.086 644.684 824.558 662.165 791.921 679.746C762.235 695.738 730.141 696.434 697.18 700.936C678.845 703.441 660.565 706.272 642.159 708.294C626.872 709.974 608.174 715.268 597.57 701.451C590.05 691.653 589.249 676.83 588.297 665.251C586.949 648.849 587.447 632.319 587.447 615.881C587.447 602.196 587.447 588.51 587.447 574.825C587.447 568.747 589.718 557.121 584.588 552.237C572.884 541.093 556.828 564.85 552.672 572.176C539.915 594.663 529.431 619.851 511.407 639.279C492.925 659.2 457.196 668.076 430.266 669.592C413.975 670.51 396.65 670.701 380.5 668.268C362.751 665.595 347.883 656.302 333.284 646.857C310.842 632.338 293.744 610.001 281.508 587.186C272.858 571.057 269.454 554.141 266.825 536.123C265.436 526.601 263.348 516.595 263.348 506.986C263.348 499.162 257.795 495.14 250.211 491.903C240.936 487.944 223.349 487.765 214.355 492.712C207.445 496.514 202.619 500.28 194.417 502.278C180.437 505.683 165.657 510.449 151.297 511.99C138.328 513.381 122.314 505.61 110.417 501.689C88.6998 494.531 65.7169 487.151 46.6639 474.612C19.5936 456.798 9.9065 428.46 18.0715 398.607C21.6967 385.353 28.3193 372.891 35.9998 361.377C44.4565 348.699 53.3262 334.672 64.7467 324.22C79.8658 310.384 104.137 297.31 110.108 277.057C116.937 253.896 104.581 232.35 84.2205 219.888C68.137 210.043 46.3163 210.783 34.8406 227.025C22.2721 244.813 28.71 269.563 38.3181 286.843C44.3356 297.665 53.3098 308.963 53.3098 321.572" stroke="#2971B6" stroke-width="2" stroke-linecap="round" stroke-linejoin="round" stroke-dasharray="7 7"/>
</svg>
