<svg width="1440" height="616" viewBox="0 0 1440 616" fill="none" xmlns="http://www.w3.org/2000/svg">
<path d="M10.6695 249.064C5.63637 235.27 0.932617 222.344 0.932617 207.926C0.932617 194.041 1.71946 179.883 3.09637 166.047C4.20418 154.915 7.11133 144.044 9.89672 133.124C12.9383 121.199 15.1422 109.075 24.2702 98.9658C41.3149 80.0891 62.7816 72.6256 89.7236 65.7343C112.657 59.8683 142.009 53.7529 165.687 60.2986C197.327 69.0459 224.732 84.1442 249.068 102.425C273.367 120.677 283.272 147.009 288.866 172.594C302.878 236.685 292.392 302.757 330.286 362.471C346.698 388.332 370.781 412.674 407.486 420.595C443.368 428.339 480.3 422.848 512.505 409.168C542.498 396.428 567.062 374.083 573.863 347.152C581.378 317.388 578.897 285.438 571.235 255.858C563.057 224.283 542.343 196.8 520.464 170.123C505.032 151.306 475.844 130.097 480.049 105.266C483.192 86.7026 508.773 78.814 528.965 77.3468C558.616 75.1921 591.982 76.163 620.383 83.956C636.617 88.4103 642.961 96.8644 648.048 109.219C653.813 123.221 663.694 129.123 679.886 135.595C691.56 140.26 703.163 144.453 714.584 149.616C727.815 155.598 740.905 163.571 755.772 166.788C780.185 172.07 801.865 167.646 822.694 156.905C841.602 147.154 855.18 135.636 854.996 116.755C854.798 96.5877 838.153 78.7805 827.949 61.1634C822.197 51.2337 814.979 34.5773 825.321 25.0905C838.454 13.0449 860.55 9.83315 879.338 12.3662C890.999 13.9384 902.266 16.7646 913.34 20.0255C923.875 23.1279 934.982 24.6026 945.409 27.8083C952.219 29.9018 959.272 32.3334 965.347 35.5912C972.705 39.537 976.802 43.8176 985.98 45.4742C1012.85 50.3237 1043.33 39.192 1068.43 33.1204C1087.96 28.396 1107.46 24.5119 1125.54 16.6282C1142.53 9.2201 1156.34 -2.92898 1174.61 -8.38809C1193.51 -14.0349 1215.8 -12.9587 1235.51 -11.1059C1260.25 -8.77888 1286.3 -9.35976 1310.93 -12.2177C1328.3 -14.2335 1348.54 -17.5525 1366.1 -15.0591C1387.63 -12.0045 1406.29 2.1271 1419.73 14.9605C1431.52 26.2157 1444.77 36.2332 1444.77 51.7746C1444.77 104.102 1361.64 108.029 1314.79 98.7187C1279.03 91.6108 1243.79 82.5035 1207.61 76.7909C1187.38 73.5974 1157.34 70.5014 1138.76 79.4469C1127.49 84.8701 1121.33 93.0208 1122.14 103.413C1122.79 111.764 1134.03 117.677 1134.58 125.65C1136.11 147.583 1065.37 134.08 1065.03 143.933C1064.87 148.665 1071.32 153.03 1075.39 155.669C1087.07 163.243 1100.1 168.599 1114.41 172.223C1144.33 179.799 1179.85 182.376 1211.09 179.636C1257.08 175.6 1301.52 150.385 1348.79 161.476C1378.3 168.397 1399 185.597 1395.93 210.705C1393.49 230.761 1359.54 231.212 1341.68 231.274C1324.4 231.335 1307.03 231.577 1289.75 231.027C1262.07 230.146 1234.93 225.84 1207.61 222.503C1163.05 217.061 1119.07 213.485 1074 213.485C1036.97 213.485 997.718 210.661 961.483 217.994C940.392 222.262 914.192 232.251 908.162 250.67C901.302 271.624 926.076 274.692 946.337 277.415C984.217 282.506 1024.81 281.294 1063.02 279.083C1099.59 276.967 1136.31 275.377 1172.91 273.586C1199.19 272.3 1225.39 270.955 1251.73 271.3C1264.07 271.462 1284.42 274.674 1286.05 287.051C1286.89 293.433 1287.7 306.271 1279.25 310.215C1276.12 311.673 1257.38 314.396 1257.07 315.28C1255.2 320.509 1277.45 321.226 1280.64 321.58C1291.67 322.805 1300.79 327.964 1310.54 331.957C1322.82 336.985 1333.28 341.188 1340.14 351.105C1344.25 357.049 1345.66 363.888 1349.88 370.007C1355.09 377.56 1363.44 388.834 1351.89 395.27C1344.11 399.603 1334.02 399.161 1324.99 399.161C1309.67 399.161 1294.73 398.394 1279.71 395.826C1262.74 392.926 1246.78 386.425 1229.79 384.213C1204.69 380.948 1177.78 385.724 1153.13 389.155C1130.33 392.328 1107.1 398.224 1088.06 409.23C1066.57 421.66 1048.82 430.316 1021.6 432.516C942.782 438.888 862.684 404.267 815.43 355.059C795.406 334.207 777.02 311.384 752.99 293.29C739.75 283.32 708.847 269.597 691.169 280.936C674.739 291.475 672.416 316.955 675.018 332.204C678.318 351.551 695.861 369.348 711.724 383.349C731.915 401.168 753.421 417.176 777.719 431.343C800.257 444.483 822.452 458.431 847.732 468.095C861.369 473.309 874.672 480.527 889.847 482.549C903.507 484.369 911.495 482.276 924.545 478.719C948.037 472.318 974.242 474.036 998.112 468.095C1024.32 461.573 1046.83 449.459 1069.67 437.705C1094.46 424.945 1124.18 416.532 1152.51 410.28C1175.48 405.213 1199.56 399.841 1223.53 399.223C1235.4 398.917 1289 408.349 1271.98 425.351C1257.91 439.41 1233.87 445.89 1213.87 452.53C1206.46 454.991 1180.47 456.387 1190.45 466.366C1199.89 475.796 1224.15 478.731 1237.82 481.19C1258.79 484.961 1279.43 486.928 1299.03 494.532C1317.18 501.574 1324.99 511.726 1336.28 523.934C1346.94 535.471 1314.74 540.835 1319.12 547.406C1327.93 560.615 1357.11 558.992 1363.48 573.72C1365.72 578.921 1362.43 585.705 1359.3 590.15C1349.77 603.719 1327.43 610.725 1310.08 615.661C1271.35 626.679 1227.08 628.075 1186.36 628.2C1133.62 628.361 1071.34 633.361 1024.85 608.681C1009.68 600.625 998.306 590.429 1008.08 576.005C1014.68 566.269 1024.3 557.122 1035.82 550.865C1038.55 549.382 1060.86 539.986 1060.86 537.029C1060.86 529.154 1023 529.488 1016.89 529.246C980.334 527.803 941.465 525.501 905.071 529.493C867.085 533.661 837.557 548.336 804.92 563.095C775.234 576.521 743.14 577.105 710.179 580.885C691.844 582.987 673.565 585.364 655.158 587.062C639.871 588.472 621.173 592.916 610.569 581.317C603.049 573.091 602.248 560.647 601.296 550.927C599.948 537.157 600.446 523.28 600.446 509.48C600.446 497.991 600.446 486.502 600.446 475.013C600.446 469.911 602.717 460.151 597.587 456.05C585.883 446.695 569.827 466.64 565.671 472.79C552.914 491.668 542.43 512.813 524.406 529.123C505.924 545.847 470.195 553.298 443.265 554.571C426.974 555.341 409.649 555.502 393.499 553.459C375.75 551.215 360.882 543.414 346.283 535.485C323.841 523.296 306.743 504.544 294.507 485.39C285.857 471.85 282.453 457.649 279.825 442.523C278.435 434.529 276.347 426.129 276.347 418.063C276.347 411.494 270.794 408.118 263.21 405.4C253.935 402.077 236.348 401.926 227.354 406.079C220.444 409.271 215.618 412.432 207.416 414.109C193.436 416.968 178.656 420.97 164.296 422.263C151.327 423.431 135.313 416.907 123.416 413.615C101.699 407.606 78.716 401.411 59.663 390.884C32.5927 375.929 22.9055 352.139 31.0706 327.077C34.6957 315.95 41.3183 305.488 48.9988 295.822C57.4555 285.18 66.3252 273.403 77.7457 264.629C92.8648 253.014 117.136 242.038 123.107 225.036C129.936 205.591 117.58 187.504 97.2195 177.041C81.1361 168.777 59.3153 169.398 47.8396 183.033C35.2712 197.966 41.709 218.744 51.3171 233.251C57.3346 242.336 66.3088 251.82 66.3088 262.406" stroke="#DBDBFF" stroke-width="2" stroke-linecap="round" stroke-linejoin="round" stroke-dasharray="7 7"/>
</svg>
