<svg width="1240" height="511" viewBox="0 0 1240 511" fill="none" xmlns="http://www.w3.org/2000/svg">
<rect width="1240" height="511" rx="31" fill="#FF7623"/>
<mask id="mask0" mask-type="alpha" maskUnits="userSpaceOnUse" x="0" y="0" width="1240" height="511">
<rect width="1240" height="511" rx="31" fill="#1D1D1D"/>
</mask>
<g mask="url(#mask0)">
<path d="M-92.3305 181.064C-97.3636 167.27 -102.067 154.344 -102.067 139.926C-102.067 126.041 -101.281 111.883 -99.9036 98.0466C-98.7958 86.9147 -95.8887 76.0439 -93.1033 65.1239C-90.0617 53.1993 -87.8578 41.075 -78.7298 30.9658C-61.6851 12.0891 -40.2184 4.62556 -13.2764 -2.26571C9.65721 -8.1317 39.0091 -14.2471 62.6867 -7.70136C94.3274 1.04587 121.732 16.1442 146.068 34.4249C170.367 52.677 180.272 79.0089 185.866 104.594C199.878 168.685 189.392 234.757 227.286 294.471C243.698 320.332 267.781 344.674 304.486 352.595C340.368 360.339 377.3 354.848 409.505 341.168C439.498 328.428 464.062 306.083 470.863 279.152C478.378 249.388 475.897 217.438 468.235 187.858C460.057 156.283 439.343 128.8 417.464 102.123C402.032 83.3065 372.844 62.0973 377.049 37.2662C380.192 18.7026 405.773 10.8141 425.965 9.34679C455.617 7.19215 488.982 8.16296 517.383 15.956C533.617 20.4103 539.961 28.8644 545.048 41.2194C550.813 55.221 560.694 61.1234 576.886 67.5946C588.56 72.2602 600.163 76.4533 611.584 81.6161C624.815 87.5977 637.905 95.5711 652.772 98.7878C677.185 104.07 698.865 99.6461 719.694 88.9048C738.602 79.1543 752.18 67.6363 751.996 48.7552C751.798 28.5877 735.152 10.7805 724.949 -6.83659C719.197 -16.7663 711.979 -33.4227 722.321 -42.9095C735.454 -54.9551 757.55 -58.1669 776.338 -55.6338C787.999 -54.0616 799.266 -51.2354 810.34 -47.9745C820.875 -44.8721 831.982 -43.3974 842.409 -40.1917C849.219 -38.0982 856.272 -35.6666 862.347 -32.4088C869.705 -28.463 873.802 -24.1824 882.98 -22.5258C909.848 -17.6763 940.334 -28.808 965.434 -34.8796C984.965 -39.604 1004.46 -43.4881 1022.54 -51.3718C1039.53 -58.7799 1053.34 -70.929 1071.61 -76.3881C1090.51 -82.0349 1112.8 -80.9587 1132.51 -79.1059C1157.25 -76.7789 1183.3 -77.3598 1207.93 -80.2177C1225.3 -82.2335 1245.54 -85.5525 1263.1 -83.0591C1284.63 -80.0045 1303.29 -65.8729 1316.73 -53.0395C1328.52 -41.7843 1341.77 -31.7668 1341.77 -16.2254C1341.77 36.1018 1258.64 40.0293 1211.79 30.7187C1176.03 23.6108 1140.79 14.5035 1104.61 8.79087C1084.38 5.59744 1054.34 2.50138 1035.76 11.4469C1024.49 16.8701 1018.33 25.0207 1019.14 35.4132C1019.79 43.7638 1031.03 49.677 1031.58 57.6499C1033.11 79.583 962.367 66.08 962.034 75.9334C961.874 80.6654 968.318 85.0301 972.389 87.6694C984.071 95.2432 997.102 100.599 1011.41 104.223C1041.33 111.799 1076.85 114.376 1108.09 111.636C1154.08 107.6 1198.52 82.3851 1245.79 93.4757C1275.3 100.397 1296 117.597 1292.93 142.705C1290.49 162.761 1256.54 163.212 1238.68 163.274C1221.4 163.335 1204.03 163.577 1186.75 163.027C1159.07 162.146 1131.93 157.84 1104.61 154.503C1060.05 149.061 1016.07 145.485 970.998 145.485C933.971 145.485 894.718 142.661 858.483 149.994C837.392 154.262 811.192 164.251 805.162 182.67C798.302 203.624 823.076 206.692 843.337 209.415C881.217 214.506 921.815 213.294 960.025 211.083C996.592 208.967 1033.31 207.377 1069.91 205.586C1096.19 204.3 1122.39 202.955 1148.73 203.3C1161.07 203.462 1181.42 206.674 1183.05 219.051C1183.89 225.433 1184.7 238.271 1176.25 242.215C1173.12 243.673 1154.38 246.396 1154.07 247.28C1152.2 252.509 1174.45 253.226 1177.64 253.58C1188.67 254.805 1197.79 259.964 1207.54 263.957C1219.82 268.985 1230.28 273.188 1237.14 283.105C1241.25 289.049 1242.66 295.888 1246.88 302.007C1252.09 309.56 1260.44 320.834 1248.89 327.27C1241.11 331.603 1231.02 331.161 1221.99 331.161C1206.67 331.161 1191.73 330.394 1176.71 327.826C1159.74 324.926 1143.78 318.425 1126.79 316.213C1101.69 312.948 1074.78 317.724 1050.13 321.155C1027.33 324.328 1004.1 330.224 985.062 341.23C963.566 353.66 945.823 362.316 918.604 364.516C839.782 370.888 759.684 336.267 712.43 287.059C692.406 266.207 674.02 243.384 649.99 225.29C636.75 215.32 605.847 201.597 588.169 212.936C571.739 223.475 569.416 248.955 572.018 264.204C575.318 283.551 592.861 301.348 608.724 315.349C628.915 333.168 650.421 349.176 674.719 363.343C697.257 376.483 719.452 390.431 744.732 400.095C758.369 405.309 771.672 412.527 786.847 414.549C800.507 416.369 808.495 414.276 821.545 410.719C845.037 404.318 871.242 406.036 895.112 400.095C921.317 393.573 943.83 381.459 966.67 369.705C991.464 356.945 1021.18 348.532 1049.51 342.28C1072.48 337.213 1096.56 331.841 1120.53 331.223C1132.4 330.917 1186 340.349 1168.98 357.351C1154.91 371.41 1130.87 377.89 1110.87 384.53C1103.46 386.991 1077.47 388.387 1087.45 398.366C1096.89 407.796 1121.15 410.731 1134.82 413.19C1155.79 416.961 1176.43 418.928 1196.03 426.532C1214.18 433.574 1221.99 443.725 1233.28 455.934C1243.94 467.471 1211.74 472.835 1216.12 479.406C1224.93 492.615 1254.11 490.992 1260.48 505.72C1262.72 510.921 1259.43 517.705 1256.3 522.15C1246.77 535.719 1224.43 542.725 1207.08 547.661C1168.35 558.679 1124.08 560.075 1083.36 560.2C1030.62 560.361 968.339 565.361 921.85 540.681C906.676 532.625 895.306 522.429 905.081 508.005C911.679 498.269 921.299 489.122 932.823 482.865C935.555 481.382 957.861 471.986 957.861 469.029C957.861 461.154 920.004 461.488 913.89 461.246C877.334 459.803 838.465 457.5 802.071 461.493C764.085 465.661 734.557 480.336 701.92 495.095C672.234 508.521 640.14 509.105 607.179 512.885C588.844 514.987 570.564 517.364 552.158 519.062C536.871 520.472 518.173 524.916 507.569 513.317C500.049 505.091 499.248 492.647 498.296 482.927C496.948 469.157 497.446 455.28 497.446 441.48C497.446 429.991 497.446 418.502 497.446 407.013C497.446 401.911 499.717 392.151 494.587 388.05C482.883 378.695 466.827 398.64 462.671 404.79C449.914 423.668 439.43 444.813 421.406 461.123C402.924 477.847 367.195 485.298 340.265 486.571C323.974 487.341 306.649 487.502 290.499 485.459C272.75 483.215 257.882 475.414 243.283 467.485C220.841 455.296 203.743 436.544 191.507 417.39C182.857 403.85 179.453 389.649 176.825 374.523C175.435 366.529 173.347 358.129 173.347 350.063C173.347 343.494 167.794 340.118 160.21 337.4C150.935 334.077 133.348 333.926 124.354 338.079C117.444 341.271 112.618 344.432 104.416 346.109C90.4363 348.968 75.6556 352.97 61.2957 354.263C48.3269 355.431 32.3128 348.907 20.4163 345.615C-1.30117 339.606 -24.284 333.411 -43.337 322.884C-70.4073 307.929 -80.0945 284.139 -71.9294 259.077C-68.3043 247.95 -61.6817 237.488 -54.0012 227.822C-45.5445 217.18 -36.6748 205.403 -25.2543 196.629C-10.1352 185.014 14.1363 174.038 20.1072 157.036C26.9356 137.591 14.5801 119.504 -5.78052 109.041C-21.8639 100.777 -43.6847 101.398 -55.1604 115.033C-67.7288 129.966 -61.291 150.744 -51.6829 165.251C-45.6654 174.336 -36.6912 183.82 -36.6912 194.406" stroke="white" stroke-opacity="0.2" stroke-width="2" stroke-linecap="round" stroke-linejoin="round" stroke-dasharray="7 7"/>
<rect opacity="0.2" x="663.191" y="-54.9685" width="593.477" height="804.066" transform="rotate(-31.4372 663.191 -54.9685)" fill="black"/>
</g>
</svg>
