<svg width="1240" height="511" viewBox="0 0 1240 511" fill="none" xmlns="http://www.w3.org/2000/svg">
<path d="M1209 0H31C13.8792 0 0 13.8792 0 31V480C0 497.121 13.8792 511 31 511H1209C1226.12 511 1240 497.121 1240 480V31C1240 13.8792 1226.12 0 1209 0Z" fill="#FF7623"/>
<mask id="mask0" mask-type="alpha" maskUnits="userSpaceOnUse" x="0" y="0" width="1240" height="511">
<path d="M1209 0H31C13.8792 0 0 13.8792 0 31V480C0 497.121 13.8792 511 31 511H1209C1226.12 511 1240 497.121 1240 480V31C1240 13.8792 1226.12 0 1209 0Z" fill="#1D1D1D"/>
</mask>
<g mask="url(#mask0)">
<path opacity="0.2" d="M1169.55 -364.505L663.191 -54.9685L1082.56 631.071L1588.92 321.534L1169.55 -364.505Z" fill="black"/>
</g>
</svg>
