<svg width="1440" height="527" viewBox="0 0 1440 527" fill="none" xmlns="http://www.w3.org/2000/svg">
<rect width="1440" height="519" fill="#F5F5FF"/>
<mask id="mask0" mask-type="alpha" maskUnits="userSpaceOnUse" x="0" y="0" width="1440" height="519">
<rect width="1440" height="519" fill="#F0F0FF"/>
</mask>
<g mask="url(#mask0)">
<path d="M7.66949 202.064C2.63637 188.27 -2.06738 175.344 -2.06738 160.926C-2.06738 147.041 -1.28054 132.883 0.0963669 119.047C1.20418 107.915 4.11133 97.0439 6.89672 86.1239C9.93835 74.1993 12.1422 62.075 21.2702 51.9658C38.3149 33.0891 59.7816 25.6256 86.7236 18.7343C109.657 12.8683 139.009 6.75285 162.687 13.2986C194.327 22.0459 221.732 37.1442 246.068 55.4249C270.367 73.677 280.272 100.009 285.866 125.594C299.878 189.685 289.392 255.757 327.286 315.471C343.698 341.332 367.781 365.674 404.486 373.595C440.368 381.339 477.3 375.848 509.505 362.168C539.498 349.428 564.062 327.083 570.863 300.152C578.378 270.388 575.897 238.438 568.235 208.858C560.057 177.283 539.343 149.8 517.464 123.123C502.032 104.306 472.844 83.0973 477.049 58.2662C480.192 39.7026 505.773 31.814 525.965 30.3468C555.616 28.1921 588.982 29.163 617.383 36.956C633.617 41.4103 639.961 49.8644 645.048 62.2194C650.813 76.221 660.694 82.1234 676.886 88.5946C688.56 93.2602 700.163 97.4533 711.584 102.616C724.815 108.598 737.905 116.571 752.772 119.788C777.185 125.07 798.865 120.646 819.694 109.905C838.602 100.154 852.18 88.6363 851.996 69.7552C851.798 49.5877 835.153 31.7805 824.949 14.1634C819.197 4.23367 811.979 -12.4227 822.321 -21.9095C835.454 -33.9551 857.55 -37.1669 876.338 -34.6338C887.999 -33.0616 899.266 -30.2354 910.34 -26.9745C920.875 -23.8721 931.982 -22.3974 942.409 -19.1917C949.219 -17.0982 956.272 -14.6666 962.347 -11.4088C969.705 -7.46302 973.802 -3.18237 982.98 -1.52583C1009.85 3.32372 1040.33 -7.80801 1065.43 -13.8796C1084.96 -18.604 1104.46 -22.4881 1122.54 -30.3718C1139.53 -37.7799 1153.34 -49.929 1171.61 -55.3881C1190.51 -61.0349 1212.8 -59.9587 1232.51 -58.1059C1257.25 -55.7789 1283.3 -56.3598 1307.93 -59.2177C1325.3 -61.2335 1345.54 -64.5525 1363.1 -62.0591C1384.63 -59.0045 1403.29 -44.8729 1416.73 -32.0395C1428.52 -20.7843 1441.77 -10.7668 1441.77 4.77457C1441.77 57.1018 1358.64 61.0293 1311.79 51.7187C1276.03 44.6108 1240.79 35.5035 1204.61 29.7909C1184.38 26.5974 1154.34 23.5014 1135.76 32.4469C1124.49 37.8701 1118.33 46.0208 1119.14 56.4132C1119.79 64.7638 1131.03 70.677 1131.58 78.6499C1133.11 100.583 1062.37 87.08 1062.03 96.9334C1061.87 101.665 1068.32 106.03 1072.39 108.669C1084.07 116.243 1097.1 121.599 1111.41 125.223C1141.33 132.799 1176.85 135.376 1208.09 132.636C1254.08 128.6 1298.52 103.385 1345.79 114.476C1375.3 121.397 1396 138.597 1392.93 163.705C1390.49 183.761 1356.54 184.212 1338.68 184.274C1321.4 184.335 1304.03 184.577 1286.75 184.027C1259.07 183.146 1231.93 178.84 1204.61 175.503C1160.05 170.061 1116.07 166.485 1071 166.485C1033.97 166.485 994.718 163.661 958.483 170.994C937.392 175.262 911.192 185.251 905.162 203.67C898.302 224.624 923.076 227.692 943.337 230.415C981.217 235.506 1021.81 234.294 1060.02 232.083C1096.59 229.967 1133.31 228.377 1169.91 226.586C1196.19 225.3 1222.39 223.955 1248.73 224.3C1261.07 224.462 1281.42 227.674 1283.05 240.051C1283.89 246.433 1284.7 259.271 1276.25 263.215C1273.12 264.673 1254.38 267.396 1254.07 268.28C1252.2 273.509 1274.45 274.226 1277.64 274.58C1288.67 275.805 1297.79 280.964 1307.54 284.957C1319.82 289.985 1330.28 294.188 1337.14 304.105C1341.25 310.049 1342.66 316.888 1346.88 323.007C1352.09 330.56 1360.44 341.834 1348.89 348.27C1341.11 352.603 1331.02 352.161 1321.99 352.161C1306.67 352.161 1291.73 351.394 1276.71 348.826C1259.74 345.926 1243.78 339.425 1226.79 337.213C1201.69 333.948 1174.78 338.724 1150.13 342.155C1127.33 345.328 1104.1 351.224 1085.06 362.23C1063.57 374.66 1045.82 383.316 1018.6 385.516C939.782 391.888 859.684 357.267 812.43 308.059C792.406 287.207 774.02 264.384 749.99 246.29C736.75 236.32 705.847 222.597 688.169 233.936C671.739 244.475 669.416 269.955 672.018 285.204C675.318 304.551 692.861 322.348 708.724 336.349C728.915 354.168 750.421 370.176 774.719 384.343C797.257 397.483 819.452 411.431 844.732 421.095C858.369 426.309 871.672 433.527 886.847 435.549C900.507 437.369 908.495 435.276 921.545 431.719C945.037 425.318 971.242 427.036 995.112 421.095C1021.32 414.573 1043.83 402.459 1066.67 390.705C1091.46 377.945 1121.18 369.532 1149.51 363.28C1172.48 358.213 1196.56 352.841 1220.53 352.223C1232.4 351.917 1286 361.349 1268.98 378.351C1254.91 392.41 1230.87 398.89 1210.87 405.53C1203.46 407.991 1177.47 409.387 1187.45 419.366C1196.89 428.796 1221.15 431.731 1234.82 434.19C1255.79 437.961 1276.43 439.928 1296.03 447.532C1314.18 454.574 1321.99 464.726 1333.28 476.934C1343.94 488.471 1311.74 493.835 1316.12 500.406C1324.93 513.615 1354.11 511.992 1360.48 526.72C1362.72 531.921 1359.43 538.705 1356.3 543.15C1346.77 556.719 1324.43 563.725 1307.08 568.661C1268.35 579.679 1224.08 581.075 1183.36 581.2C1130.62 581.361 1068.34 586.361 1021.85 561.681C1006.68 553.625 995.306 543.429 1005.08 529.005C1011.68 519.269 1021.3 510.122 1032.82 503.865C1035.55 502.382 1057.86 492.986 1057.86 490.029C1057.86 482.154 1020 482.488 1013.89 482.246C977.334 480.803 938.465 478.501 902.071 482.493C864.085 486.661 834.557 501.336 801.92 516.095C772.234 529.521 740.14 530.105 707.179 533.885C688.844 535.987 670.565 538.364 652.158 540.062C636.871 541.472 618.173 545.916 607.569 534.317C600.049 526.091 599.248 513.647 598.296 503.927C596.948 490.157 597.446 476.28 597.446 462.48C597.446 450.991 597.446 439.502 597.446 428.013C597.446 422.911 599.717 413.151 594.587 409.05C582.883 399.695 566.827 419.64 562.671 425.79C549.914 444.668 539.43 465.813 521.406 482.123C502.924 498.847 467.195 506.298 440.265 507.571C423.974 508.341 406.649 508.502 390.499 506.459C372.75 504.215 357.882 496.414 343.283 488.485C320.841 476.296 303.743 457.544 291.507 438.39C282.857 424.85 279.453 410.649 276.825 395.523C275.435 387.529 273.347 379.129 273.347 371.063C273.347 364.494 267.794 361.118 260.21 358.4C250.935 355.077 233.348 354.926 224.354 359.079C217.444 362.271 212.618 365.432 204.416 367.109C190.436 369.968 175.656 373.97 161.296 375.263C148.327 376.431 132.313 369.907 120.416 366.615C98.6988 360.606 75.716 354.411 56.663 343.884C29.5927 328.929 19.9055 305.139 28.0706 280.077C31.6957 268.95 38.3183 258.488 45.9988 248.822C54.4555 238.18 63.3252 226.403 74.7457 217.629C89.8648 206.014 114.136 195.038 120.107 178.036C126.936 158.591 114.58 140.504 94.2195 130.041C78.1361 121.777 56.3153 122.398 44.8396 136.033C32.2712 150.966 38.709 171.744 48.3171 186.251C54.3346 195.336 63.3088 204.82 63.3088 215.406" stroke="#DBDBFF" stroke-width="2" stroke-linecap="round" stroke-linejoin="round" stroke-dasharray="7 7"/>
</g>
</svg>
