<svg width="360" height="58" viewBox="0 0 360 58" fill="none" xmlns="http://www.w3.org/2000/svg">
<g clip-path="url(#clip0)">
<path d="M15.577 0.90625V5.89161H7.92135V8.66767H13.4291V13.3981H7.92135V20.9611H1.80762V0.90625H15.577Z" fill="#FF690F"/>
<path d="M32.8982 17.9301H26.399L25.4351 20.9611H19.0186L26.1511 0.90625H33.201L40.3059 20.9611H33.862L32.8982 17.9301ZM31.411 13.1997L29.6486 7.61943L27.8862 13.1997H31.411Z" fill="#FF690F"/>
<path d="M50.5503 16.2023H56.4435V20.9611H44.4365V0.90625H50.5503V16.2023Z" fill="#FF690F"/>
<path d="M75.3211 18.157C74.7427 19.0824 73.9028 19.8139 72.8014 20.3522C71.6997 20.8903 70.387 21.1596 68.8632 21.1596C66.5316 21.1596 64.6085 20.5977 63.0939 19.474C61.5794 18.3508 60.7576 16.7031 60.6292 14.5311H67.1284C67.22 15.6833 67.7157 16.2589 68.6156 16.2589C68.9274 16.2589 69.18 16.1739 69.3729 16.0043C69.5655 15.8343 69.6621 15.5891 69.6621 15.2675C69.6621 14.7958 69.4279 14.4229 68.9598 14.1487C68.4917 13.8753 67.7341 13.5587 66.6877 13.1998C65.4576 12.7846 64.434 12.3597 63.6173 11.925C62.8 11.4909 62.0888 10.8486 61.4831 9.99909C60.8771 9.14925 60.5742 8.04445 60.5742 6.6847C60.5742 5.3818 60.9 4.2727 61.5517 3.35653C62.2032 2.44065 63.0939 1.74671 64.223 1.27442C65.352 0.802697 66.6232 0.566406 68.0373 0.566406C70.3685 0.566406 72.2231 1.12369 73.6 2.23767C74.9769 3.35194 75.7295 4.95688 75.8581 7.05306H69.2763C69.1842 5.99564 68.7621 5.46678 68.0096 5.46678C67.7523 5.46678 67.5415 5.54746 67.3763 5.70767C67.211 5.86816 67.1284 6.10905 67.1284 6.42975C67.1284 6.86443 67.3623 7.21872 67.8307 7.49205C68.2988 7.76595 69.0284 8.08263 70.0199 8.44095C71.2682 8.89429 72.3009 9.34304 73.1179 9.78663C73.9347 10.2305 74.6506 10.8819 75.2661 11.741C75.881 12.6006 76.1886 13.7005 76.1886 15.041C76.1886 16.1932 75.8994 17.2319 75.3211 18.157Z" fill="#FF690F"/>
<path d="M94.7086 1.68533C96.0395 2.33678 97.1228 3.25754 97.9582 4.44703C98.7933 5.63681 99.3491 7.02469 99.6243 8.61097H93.1804C92.8864 7.95033 92.4686 7.43555 91.9274 7.06719C91.3856 6.69911 90.7659 6.51479 90.0684 6.51479C89.04 6.51479 88.2275 6.91157 87.6313 7.70457C87.0345 8.49785 86.7361 9.56475 86.7361 10.9055C86.7361 12.2466 87.0345 13.3132 87.6313 14.1062C88.2275 14.8995 89.04 15.296 90.0684 15.296C90.7659 15.296 91.3856 15.112 91.9274 14.7436C92.4686 14.3755 92.8864 13.861 93.1804 13.1998H99.6243C99.3491 14.7861 98.7933 16.174 97.9582 17.3638C97.1228 18.5536 96.0395 19.474 94.7086 20.1258C93.3774 20.7772 91.8673 21.1028 90.1786 21.1028C88.2138 21.1028 86.5064 20.6736 85.0563 19.814C83.6057 18.9549 82.4906 17.7511 81.7104 16.2024C80.9297 14.6543 80.54 12.8883 80.54 10.9055C80.54 8.92277 80.9297 7.15705 81.7104 5.60838C82.4906 4.06029 83.6057 2.85644 85.0563 1.99684C86.5064 1.13781 88.2138 0.708008 90.1786 0.708008C91.8673 0.708008 93.3774 1.03388 94.7086 1.68533Z" fill="#FF690F"/>
<path d="M122.619 0.90625V20.9611H116.505V13.1431H110.695V20.9611H104.581V0.90625H110.695V8.12934H116.505V0.90625H122.619Z" fill="#FF690F"/>
<path d="M134.24 14.5879V20.9611H128.126V0.90625H136.663C139.049 0.90625 140.881 1.52928 142.157 2.77562C143.433 4.02196 144.071 5.69322 144.071 7.7894C144.071 9.05469 143.786 10.202 143.217 11.231C142.648 12.2606 141.808 13.0771 140.697 13.6812C139.586 14.2858 138.242 14.5879 136.663 14.5879H134.24ZM137.875 7.7894C137.875 6.56201 137.241 5.94817 135.974 5.94817H134.24V9.63063H135.974C137.241 9.63063 137.875 9.01708 137.875 7.7894Z" fill="#0063A1"/>
<path d="M161.255 17.9301H154.755L153.792 20.9611H147.375L154.508 0.90625H161.557L168.662 20.9611H162.218L161.255 17.9301ZM159.767 13.1997L158.005 7.61943L156.243 13.1997H159.767Z" fill="#0063A1"/>
<path d="M182.598 20.9611L178.908 13.7662V20.9611H172.794V0.90625H181.881C183.46 0.90625 184.81 1.19422 185.929 1.77016C187.049 2.34639 187.889 3.12991 188.449 4.1213C189.009 5.11269 189.289 6.23155 189.289 7.47789C189.289 8.81898 188.926 10.0088 188.202 11.0469C187.476 12.0857 186.434 12.8316 185.076 13.2847L189.317 20.9611H182.598ZM178.908 9.57407H181.331C181.918 9.57407 182.359 9.43712 182.653 9.16322C182.946 8.88961 183.093 8.46009 183.093 7.87439C183.093 7.34582 182.942 6.93037 182.639 6.62805C182.336 6.3263 181.9 6.17499 181.331 6.17499H178.908V9.57407Z" fill="#0063A1"/>
<path d="M205.921 10.6504L213.137 20.9611H205.784L200.111 12.2649V20.9611H193.997V0.90625H200.111V9.37568L205.839 0.90625H213.137L205.921 10.6504Z" fill="#0063A1"/>
<path d="M223.657 5.89161V8.38429H229.715V13.1147H223.657V15.9473H230.541V20.9611H217.543V0.90625H230.541V5.89161H223.657Z" fill="#0063A1"/>
<path d="M245.412 20.9611L241.722 13.7662V20.9611H235.608V0.90625H244.696C246.275 0.90625 247.625 1.19422 248.745 1.77016C249.864 2.34639 250.704 3.12991 251.265 4.1213C251.824 5.11269 252.104 6.23155 252.104 7.47789C252.104 8.81898 251.741 10.0088 251.017 11.0469C250.291 12.0857 249.249 12.8316 247.891 13.2847L252.132 20.9611H245.412ZM241.722 9.57407H244.146C244.733 9.57407 245.174 9.43712 245.468 9.16322C245.761 8.88961 245.908 8.46009 245.908 7.87439C245.908 7.34582 245.757 6.93037 245.454 6.62805C245.151 6.3263 244.715 6.17499 244.146 6.17499H241.722V9.57407Z" fill="#0063A1"/>
<path d="M280.621 6.85439C281.695 8.02551 282.232 9.69677 282.232 11.8682V20.9609H279.092V12.2081C279.092 10.8484 278.762 9.79611 278.101 9.04963C277.44 8.304 276.531 7.93076 275.375 7.93076C274.144 7.93076 273.167 8.33243 272.442 9.13461C271.716 9.93766 271.354 11.1131 271.354 12.6615V20.9609H268.215V12.2081C268.215 10.8484 267.884 9.79611 267.223 9.04963C266.562 8.304 265.653 7.93076 264.497 7.93076C263.267 7.93076 262.289 8.33243 261.564 9.13461C260.838 9.93766 260.476 11.1131 260.476 12.6615V20.9609H257.337V5.3531H260.476V8.61064C260.862 7.4777 261.504 6.6092 262.404 6.00484C263.303 5.40047 264.359 5.09814 265.571 5.09814C266.838 5.09814 267.934 5.41971 268.862 6.0614C269.789 6.70366 270.463 7.62901 270.886 8.83745C271.326 7.66662 272.033 6.75103 273.007 6.08982C273.979 5.42889 275.08 5.09814 276.311 5.09814C278.11 5.09814 279.547 5.68385 280.621 6.85439Z" fill="#73849B"/>
<path d="M299.883 13.7947H288.207C288.262 15.3999 288.693 16.5897 289.501 17.3637C290.309 18.1383 291.31 18.5251 292.503 18.5251C293.55 18.5251 294.435 18.2517 295.16 17.7037C295.886 17.1561 296.331 16.4289 296.496 15.5225H299.856C299.654 16.6181 299.232 17.5902 298.589 18.4401C297.946 19.2899 297.111 19.9557 296.083 20.4372C295.055 20.9187 293.908 21.1596 292.641 21.1596C291.172 21.1596 289.873 20.8386 288.744 20.1963C287.615 19.5546 286.729 18.6293 286.087 17.4206C285.444 16.2121 285.123 14.7861 285.123 13.1432C285.123 11.5193 285.444 10.103 286.087 8.89429C286.729 7.68585 287.615 6.7605 288.744 6.11824C289.873 5.47655 291.172 5.15527 292.641 5.15527C294.128 5.15527 295.427 5.47167 296.538 6.10417C297.648 6.73696 298.502 7.60546 299.098 8.71026C299.695 9.81476 299.994 11.047 299.994 12.4068C299.994 12.9356 299.956 13.3982 299.883 13.7947ZM296.317 9.7582C295.941 9.06914 295.427 8.55924 294.775 8.22849C294.123 7.89831 293.412 7.73294 292.641 7.73294C291.411 7.73294 290.383 8.12025 289.557 8.89429C288.73 9.66891 288.281 10.811 288.207 12.3218H296.827C296.863 11.302 296.693 10.4478 296.317 9.7582Z" fill="#73849B"/>
<path d="M306.163 0V20.9613H303.023V0H306.163Z" fill="#73849B"/>
<path d="M319.573 6.20328C320.546 6.9021 321.226 7.82774 321.611 8.97934V0H324.778V20.9613H321.611V17.3356C321.226 18.4875 320.546 19.4132 319.573 20.1114C318.6 20.8102 317.425 21.1597 316.048 21.1597C314.727 21.1597 313.546 20.8387 312.51 20.1964C311.472 19.5547 310.66 18.6294 310.072 17.4206C309.484 16.2122 309.191 14.7861 309.191 13.1433C309.191 11.5194 309.484 10.1031 310.072 8.89435C310.66 7.68591 311.472 6.76056 312.51 6.11829C313.546 5.47661 314.727 5.15533 316.048 5.15533C317.425 5.15533 318.6 5.50503 319.573 6.20328ZM313.666 9.36177C312.831 10.2779 312.413 11.5383 312.413 13.1433C312.413 14.7485 312.831 16.0089 313.666 16.9248C314.502 17.841 315.617 18.2986 317.012 18.2986C317.894 18.2986 318.682 18.0861 319.381 17.6612C320.078 17.2363 320.629 16.6371 321.033 15.8625C321.436 15.0884 321.639 14.182 321.639 13.1433C321.639 12.1235 321.436 11.2219 321.033 10.4381C320.629 9.65462 320.078 9.04997 319.381 8.62533C318.682 8.20041 317.894 7.98795 317.012 7.98795C315.617 7.98795 314.502 8.44589 313.666 9.36177Z" fill="#73849B"/>
<path d="M342.541 13.7947H330.864C330.919 15.3999 331.35 16.5897 332.159 17.3637C332.966 18.1383 333.967 18.5251 335.16 18.5251C336.207 18.5251 337.093 18.2517 337.818 17.7037C338.543 17.1561 338.988 16.4289 339.154 15.5225H342.513C342.311 16.6181 341.889 17.5902 341.246 18.4401C340.603 19.2899 339.768 19.9557 338.74 20.4372C337.712 20.9187 336.565 21.1596 335.298 21.1596C333.829 21.1596 332.53 20.8386 331.401 20.1963C330.272 19.5546 329.386 18.6293 328.744 17.4206C328.101 16.2121 327.78 14.7861 327.78 13.1432C327.78 11.5193 328.101 10.103 328.744 8.89429C329.386 7.68585 330.272 6.7605 331.401 6.11824C332.53 5.47655 333.829 5.15527 335.298 5.15527C336.785 5.15527 338.084 5.47167 339.195 6.10417C340.305 6.73696 341.159 7.60546 341.756 8.71026C342.352 9.81476 342.651 11.047 342.651 12.4068C342.651 12.9356 342.614 13.3982 342.541 13.7947ZM338.974 9.7582C338.598 9.06914 338.084 8.55924 337.432 8.22849C336.78 7.89831 336.069 7.73294 335.298 7.73294C334.068 7.73294 333.04 8.12025 332.214 8.89429C331.388 9.66891 330.938 10.811 330.864 12.3218H339.484C339.52 11.302 339.351 10.4478 338.974 9.7582Z" fill="#73849B"/>
<path d="M358.402 6.85439C359.467 8.02551 359.999 9.69677 359.999 11.8682V20.9609H356.86V12.2081C356.86 10.8108 356.511 9.7295 355.814 8.96493C355.116 8.20007 354.161 7.81764 352.95 7.81764C351.701 7.81764 350.701 8.22821 349.948 9.04963C349.195 9.87133 348.819 11.0752 348.819 12.6615V20.9609H345.68V5.3531H348.819V8.78061C349.222 7.61006 349.902 6.70366 350.857 6.0614C351.811 5.41971 352.913 5.09814 354.161 5.09814C355.924 5.09814 357.338 5.68385 358.402 6.85439Z" fill="#73849B"/>
<path d="M125.563 26.7603H1.7998V29.7003H125.563V26.7603Z" fill="#FF690F"/>
<path d="M252.755 26.7603H125.562V29.7003H252.755V26.7603Z" fill="#0063A1"/>
</g>
<path d="M9.8091 41.4324V49.6539L4.4037 41.4324H1.1718V54.7002H4.4037V46.5165L9.8091 54.7002H13.041V41.4324H9.8091ZM27.2907 41.4324H19.1637V54.7002H27.2907V52.1109H22.3956V49.2003H26.7237V46.7055H22.3956V44.0217H27.2907V41.4324ZM33.1122 49.3515C33.1122 53.0181 35.5125 54.8325 38.5932 54.8325C41.655 54.8325 44.2254 53.0181 44.2254 49.3515V41.4324H40.9935V49.3704C40.9935 50.9391 40.1808 51.8463 38.6499 51.8463C37.119 51.8463 36.3441 50.9391 36.3441 49.3704V41.4324H33.1122V49.3515ZM53.6958 53.1126C53.6958 52.1109 52.9209 51.336 51.7869 51.336C50.634 51.336 49.8591 52.1109 49.8591 53.1126C49.8591 54.0765 50.634 54.8514 51.7869 54.8514C52.9209 54.8514 53.6958 54.0765 53.6958 53.1126ZM53.6958 45.4203C53.6958 44.4186 52.9209 43.6437 51.7869 43.6437C50.634 43.6437 49.8591 44.4186 49.8591 45.4203C49.8591 46.3842 50.634 47.1591 51.7869 47.1591C52.9209 47.1591 53.6958 46.3842 53.6958 45.4203ZM67.2111 54.7002H70.443V49.3326H74.4876V46.8189H70.443V44.0217H75.8484V41.4324H67.2111V54.7002ZM81.2703 49.3515C81.2703 53.0181 83.6706 54.8325 86.7513 54.8325C89.8131 54.8325 92.3835 53.0181 92.3835 49.3515V41.4324H89.1516V49.3704C89.1516 50.9391 88.3389 51.8463 86.808 51.8463C85.2771 51.8463 84.5022 50.9391 84.5022 49.3704V41.4324H81.2703V49.3515ZM84.918 40.2228C85.7118 40.2228 86.3166 39.618 86.3166 38.8431C86.3166 38.0493 85.7118 37.4445 84.918 37.4445C84.1431 37.4445 83.5383 38.0493 83.5383 38.8431C83.5383 39.618 84.1431 40.2228 84.918 40.2228ZM88.698 40.2228C89.4918 40.2228 90.0966 39.618 90.0966 38.8431C90.0966 38.0493 89.4918 37.4445 88.698 37.4445C87.9231 37.4445 87.3183 38.0493 87.3183 38.8431C87.3183 39.618 87.9231 40.2228 88.698 40.2228ZM105.445 45.7416C105.445 46.7811 104.878 47.4048 103.668 47.4048H101.665V44.1162H103.668C104.878 44.1162 105.445 44.7588 105.445 45.7416ZM98.433 41.4324V54.7002H101.665V49.6917H102.44L105.199 54.7002H108.847L105.785 49.446C107.826 48.8412 108.733 47.2725 108.733 45.6093C108.733 43.3035 107.108 41.4324 103.857 41.4324H98.433ZM128.527 41.2812C124.558 41.2812 121.779 44.0784 121.779 48.0474C121.779 52.0164 124.577 54.7947 128.546 54.7947C132.042 54.7947 134.253 52.5078 134.934 50.2209V47.2158H127.903V49.5972H132.004C131.513 51.0903 130.398 51.9408 128.791 51.9408C126.467 51.9408 125.068 50.5044 125.068 48.0474C125.068 45.7416 126.448 44.2674 128.527 44.2674C129.736 44.2674 130.643 44.7399 131.135 45.6282H134.707C134.008 42.9066 131.702 41.2812 128.527 41.2812ZM148.631 41.4324H140.504V54.7002H148.631V52.1109H143.736V49.2003H148.064V46.7055H143.736V44.0217H148.631V41.4324ZM157.174 54.7002H161.086L163.279 45.9684L165.396 54.7002H169.308L172.767 41.4324H169.289L167.361 51.0903L165.093 41.4324H161.54L159.177 51.0903L157.269 41.4324H153.81L157.174 54.7002ZM186.294 41.4324H178.167V54.7002H186.294V52.1109H181.399V49.2003H185.727V46.7055H181.399V44.0217H186.294V41.4324ZM199.184 45.7416C199.184 46.7811 198.617 47.4048 197.408 47.4048H195.404V44.1162H197.408C198.617 44.1162 199.184 44.7588 199.184 45.7416ZM192.173 41.4324V54.7002H195.404V49.6917H196.179L198.939 54.7002H202.586L199.525 49.446C201.566 48.8412 202.473 47.2725 202.473 45.6093C202.473 43.3035 200.848 41.4324 197.597 41.4324H192.173ZM215.596 50.6556C215.596 51.6006 214.972 52.092 213.895 52.092H211.514V49.1625H213.857C214.935 49.1625 215.596 49.7106 215.596 50.6556ZM215.275 45.4203C215.275 46.3275 214.689 46.8 213.631 46.8H211.514V44.0217H213.631C214.689 44.0217 215.275 44.5131 215.275 45.4203ZM218.866 51.0903C218.866 49.5783 217.864 48.2175 216.314 47.8962C217.6 47.5182 218.563 46.4787 218.563 44.8722C218.563 42.7743 216.957 41.4324 214.254 41.4324H208.282V54.7002H214.462C217.259 54.7002 218.866 53.2827 218.866 51.0903ZM232.647 41.4324H224.52V54.7002H232.647V52.1109H227.752V49.2003H232.08V46.7055H227.752V44.0217H232.647V41.4324ZM255.723 44.6454C255.78 42.8121 254.438 41.1678 251.735 41.1678C249.089 41.1678 247.596 42.6798 247.596 44.5509C247.596 45.4014 247.842 46.1196 248.522 46.9323C246.689 47.8017 245.819 49.2192 245.819 50.8446C245.819 53.3016 247.766 54.9081 250.847 54.9081C252.586 54.9081 254.022 54.4356 255.232 53.5095L256.46 54.7002H260.221L257.027 51.5628C257.443 50.9391 257.84 50.2398 258.199 49.446L259.106 47.8017H255.874L255.175 48.9924C255.099 49.1814 255.005 49.3515 254.929 49.5216L251.697 46.3653C250.998 45.6282 250.639 45.0801 250.639 44.532C250.639 43.965 251.092 43.587 251.697 43.587C252.264 43.587 252.699 43.9272 252.68 44.6454H255.723ZM250.998 52.2999C249.713 52.2999 248.938 51.5439 248.938 50.6178C248.938 49.8618 249.391 49.2003 250.299 48.7278L253.247 51.5817C252.604 52.0542 251.867 52.2999 250.998 52.2999ZM276.187 47.367V44.0406H277.945C279.23 44.0406 279.778 44.6832 279.778 45.7038C279.778 46.7244 279.23 47.367 277.945 47.367H276.187ZM283.067 45.7038C283.067 43.2657 281.441 41.4324 278.191 41.4324H272.955V54.7002H276.187V49.9374H278.191C281.574 49.9374 283.067 47.8962 283.067 45.7038ZM295.541 45.7416C295.541 46.7811 294.974 47.4048 293.765 47.4048H291.761V44.1162H293.765C294.974 44.1162 295.541 44.7588 295.541 45.7416ZM288.529 41.4324V54.7002H291.761V49.6917H292.536L295.296 54.7002H298.943L295.881 49.446C297.923 48.8412 298.83 47.2725 298.83 45.6093C298.83 43.3035 297.204 41.4324 293.954 41.4324H288.529ZM304.639 54.7002H307.87V41.4324H304.639V54.7002ZM319.719 51.4494L316.431 41.4324H312.991L317.697 54.7002H321.742L326.448 41.4324H323.027L319.719 51.4494ZM340.632 54.7002H344.053L339.252 41.4324H335.51L330.709 54.7002H334.092L334.886 52.3566H339.838L340.632 54.7002ZM339.006 49.8618H335.737L337.362 45.0045L339.006 49.8618ZM348.575 44.0217H352.091V54.7002H355.323V44.0217H358.838V41.4324H348.575V44.0217Z" fill="#0063A1"/>
<defs>
<clipPath id="clip0">
<rect width="358.2" height="29.7" fill="white" transform="translate(1.7998)"/>
</clipPath>
</defs>
</svg>
