<svg width="24" height="22" viewBox="0 0 24 22" fill="none" xmlns="http://www.w3.org/2000/svg">
<g opacity="0.2" clip-path="url(#clip0)">
<path d="M23.4616 11.2767C23.6444 11.092 23.6429 10.794 23.4582 10.6111L14.4681 1.71191C13.4994 0.752987 11.9367 0.760931 10.9778 1.72965C10.0189 2.69837 10.0268 4.26102 10.9955 5.21994L14.4458 8.63535L3.34223 8.6918C2.04224 8.6984 0.993737 9.75762 1.00035 11.0576C1.00695 12.3576 2.06617 13.4061 3.36616 13.3995L14.4698 13.3431L11.0544 16.7934C10.0954 17.7621 10.1034 19.3247 11.0721 20.2837C12.0408 21.2426 13.6035 21.2346 14.5624 20.2659L23.4616 11.2767Z" fill="white"/>
</g>
<defs>
<clipPath id="clip0">
<rect width="20" height="22.5977" fill="white" transform="translate(23.5469 0.942871) rotate(89.7087)"/>
</clipPath>
</defs>
</svg>
