<svg width="23" height="20" viewBox="0 0 23 20" fill="none" xmlns="http://www.w3.org/2000/svg">
<g clip-path="url(#clip0)">
<path d="M22.4598 10.3333C22.6436 10.1495 22.6436 9.85147 22.4598 9.66763L13.5151 0.722873C12.5512 -0.240957 10.9886 -0.240957 10.0247 0.722873C9.06089 1.6867 9.06089 3.24938 10.0247 4.21321L13.4576 7.64612L2.35388 7.64612C1.05387 7.64612 1.03746e-07 8.69999 1.19249e-07 10C1.34751e-07 11.3 1.05387 12.3539 2.35388 12.3539L13.4576 12.3539L10.0247 15.7868C9.06089 16.7506 9.06089 18.3133 10.0247 19.2771C10.9886 20.241 12.5512 20.241 13.5151 19.2771L22.4598 10.3333Z" fill="#0063A1"/>
</g>
<defs>
<clipPath id="clip0">
<rect width="20" height="22.5977" fill="white" transform="translate(22.5977) rotate(90)"/>
</clipPath>
</defs>
</svg>
