<svg width="24" height="22" viewBox="0 0 24 22" fill="none" xmlns="http://www.w3.org/2000/svg">
<g opacity="0.2" clip-path="url(#clip0)">
<path d="M23.4616 11.2924C23.6447 11.1079 23.6437 10.8099 23.4592 10.6267L14.4816 1.71485C13.5143 0.754563 11.9516 0.760303 10.9913 1.72767C10.031 2.69503 10.0368 4.2577 11.0041 5.21798L14.4496 8.63825L3.34597 8.67904C2.04597 8.68381 0.995975 9.74155 1.00075 11.0416C1.00552 12.3416 2.06326 13.3915 3.36326 13.3868L14.4669 13.346L11.0467 16.7915C10.0864 17.7588 10.0921 19.3215 11.0595 20.2818C12.0268 21.2421 13.5895 21.2363 14.5498 20.269L23.4616 11.2924Z" fill="#FF690F"/>
</g>
<defs>
<clipPath id="clip0">
<rect width="20" height="22.5977" fill="white" transform="translate(23.5615 0.958618) rotate(89.7896)"/>
</clipPath>
</defs>
</svg>
