<svg width="24" height="22" viewBox="0 0 24 22" fill="none" xmlns="http://www.w3.org/2000/svg">
<g opacity="0.2" clip-path="url(#clip0)">
<path d="M23.461 11.3058C23.6443 11.1215 23.6436 10.8235 23.4593 10.6401L14.4925 1.71752C13.5263 0.756078 11.9636 0.759946 11.0021 1.72616C10.0407 2.69237 10.0446 4.25505 11.0108 5.21649L14.4522 8.64088L3.34846 8.66837C2.04845 8.67159 0.997189 9.72806 1.00041 11.0281C1.00362 12.3281 2.0601 13.3793 3.36011 13.3761L14.4638 13.3486L11.0394 16.79C10.078 17.7562 10.0818 19.3189 11.0481 20.2804C12.0143 21.2418 13.5769 21.2379 14.5384 20.2717L23.461 11.3058Z" fill="#0063A1"/>
</g>
<defs>
<clipPath id="clip0">
<rect width="20" height="22.5977" fill="white" transform="translate(23.5732 0.972168) rotate(89.8582)"/>
</clipPath>
</defs>
</svg>
