<svg width="254" height="21" viewBox="0 0 254 21" fill="none" xmlns="http://www.w3.org/2000/svg">
<path d="M9.76973 0.640625V4.16563H4.34111V6.1285H8.24666V9.47323H4.34111V14.8208H0.00585938V0.640625H9.76973Z" fill="#FF690F"/>
<path d="M22.052 12.6777H17.4434L16.76 14.8208H12.21L17.2677 0.640625H22.2668L27.3049 14.8208H22.7355L22.052 12.6777ZM20.9974 9.33296L19.7477 5.38732L18.498 9.33296H20.9974Z" fill="#FF690F"/>
<path d="M34.5696 11.456H38.7485V14.8208H30.2344V0.640625H34.5696V11.456Z" fill="#FF690F"/>
<path d="M52.1338 12.8382C51.7237 13.4925 51.1281 14.0097 50.3471 14.3904C49.5658 14.7708 48.635 14.9612 47.5545 14.9612C45.9012 14.9612 44.5374 14.5639 43.4635 13.7694C42.3895 12.9752 41.8068 11.8102 41.7157 10.2744H46.3243C46.3893 11.0891 46.7408 11.4961 47.3789 11.4961C47.6 11.4961 47.7791 11.436 47.9159 11.316C48.0525 11.1959 48.121 11.0225 48.121 10.7951C48.121 10.4616 47.9549 10.1979 47.623 10.004C47.291 9.81075 46.7539 9.58684 46.0118 9.33308C45.1395 9.03953 44.4137 8.73908 43.8346 8.43173C43.255 8.12479 42.7507 7.67066 42.3212 7.06996C41.8915 6.46907 41.6768 5.6879 41.6768 4.72646C41.6768 3.80521 41.9077 3.021 42.3699 2.37321C42.8319 1.72562 43.4635 1.23495 44.2641 0.901005C45.0647 0.567465 45.9661 0.400391 46.9688 0.400391C48.6219 0.400391 49.937 0.794426 50.9133 1.58209C51.8897 2.36996 52.4234 3.50477 52.5146 4.98692H47.8474C47.7821 4.23924 47.4828 3.8653 46.9492 3.8653C46.7667 3.8653 46.6173 3.92235 46.5001 4.03563C46.3829 4.14911 46.3243 4.31943 46.3243 4.54619C46.3243 4.85354 46.4902 5.10405 46.8223 5.29731C47.1543 5.49098 47.6717 5.7149 48.3747 5.96825C49.2598 6.2888 49.9922 6.60609 50.5715 6.91974C51.1507 7.23359 51.6584 7.69421 52.0948 8.3016C52.5308 8.90941 52.7489 9.68712 52.7489 10.635C52.7489 11.4496 52.5439 12.1841 52.1338 12.8382Z" fill="#FF690F"/>
<path d="M65.8819 1.19201C66.8256 1.65263 67.5938 2.30367 68.1862 3.14473C68.7784 3.98599 69.1724 4.96732 69.3676 6.08893H64.7982C64.5898 5.62181 64.2935 5.25782 63.9097 4.99737C63.5255 4.73711 63.0861 4.60678 62.5915 4.60678C61.8623 4.60678 61.2861 4.88734 60.8634 5.44804C60.4402 6.00895 60.2286 6.76332 60.2286 7.71136C60.2286 8.6596 60.4402 9.41377 60.8634 9.97447C61.2861 10.5354 61.8623 10.8157 62.5915 10.8157C63.0861 10.8157 63.5255 10.6856 63.9097 10.4251C64.2935 10.1649 64.5898 9.80111 64.7982 9.33358H69.3676C69.1724 10.4552 68.7784 11.4365 68.1862 12.2778C67.5938 13.119 66.8256 13.7699 65.8819 14.2307C64.9379 14.6913 63.8671 14.9215 62.6697 14.9215C61.2764 14.9215 60.0657 14.618 59.0375 14.0102C58.0088 13.4028 57.2181 12.5516 56.6649 11.4566C56.1113 10.362 55.835 9.11332 55.835 7.71136C55.835 6.3094 56.1113 5.06091 56.6649 3.96589C57.2181 2.87128 58.0088 2.02007 59.0375 1.41227C60.0657 0.804877 61.2764 0.500977 62.6697 0.500977C63.8671 0.500977 64.9379 0.731389 65.8819 1.19201Z" fill="#FF690F"/>
<path d="M85.6725 0.640625V14.8208H81.3374V9.29296H77.2171V14.8208H72.8818V0.640625H77.2171V5.74786H81.3374V0.640625H85.6725Z" fill="#FF690F"/>
<path d="M93.9134 10.3145V14.8208H89.5781V0.640625H95.6318C97.3239 0.640625 98.6225 1.08115 99.5274 1.9624C100.432 2.84365 100.885 4.02535 100.885 5.5075C100.885 6.40215 100.683 7.21336 100.279 7.94094C99.8756 8.66892 99.28 9.24627 98.4925 9.6734C97.7047 10.1009 96.7513 10.3145 95.6318 10.3145H93.9134ZM96.491 5.5075C96.491 4.63965 96.0417 4.20562 95.1435 4.20562H93.9134V6.80938H95.1435C96.0417 6.80938 96.491 6.37556 96.491 5.5075Z" fill="#0063A1"/>
<path d="M113.07 12.6777H108.461L107.778 14.8208H103.228L108.285 0.640625H113.284L118.322 14.8208H113.753L113.07 12.6777ZM112.015 9.33296L110.765 5.38732L109.516 9.33296H112.015Z" fill="#0063A1"/>
<path d="M128.204 14.8208L125.587 9.73349V14.8208H121.252V0.640625H127.696C128.815 0.640625 129.772 0.84424 130.566 1.25147C131.36 1.65891 131.956 2.21291 132.353 2.91389C132.75 3.61487 132.949 4.40599 132.949 5.28724C132.949 6.23548 132.691 7.07674 132.178 7.81081C131.663 8.54529 130.924 9.0727 129.961 9.39305L132.968 14.8208H128.204ZM125.587 6.76939H127.305C127.722 6.76939 128.035 6.67256 128.243 6.47889C128.451 6.28542 128.555 5.98172 128.555 5.56759C128.555 5.19386 128.448 4.90011 128.233 4.68634C128.018 4.47298 127.709 4.366 127.305 4.366H125.587V6.76939Z" fill="#0063A1"/>
<path d="M144.743 7.53046L149.859 14.8208H144.645L140.623 8.67197V14.8208H136.287V0.640625H140.623V6.62911L144.684 0.640625H149.859L144.743 7.53046Z" fill="#0063A1"/>
<path d="M157.319 4.16563V5.92813H161.615V9.27287H157.319V11.2757H162.201V14.8208H152.983V0.640625H162.201V4.16563H157.319Z" fill="#0063A1"/>
<path d="M172.746 14.8208L170.129 9.73349V14.8208H165.794V0.640625H172.238C173.358 0.640625 174.315 0.84424 175.109 1.25147C175.903 1.65891 176.498 2.21291 176.896 2.91389C177.292 3.61487 177.491 4.40599 177.491 5.28724C177.491 6.23548 177.234 7.07674 176.72 7.81081C176.205 8.54529 175.467 9.0727 174.504 9.39305L177.511 14.8208H172.746ZM170.129 6.76939H171.848C172.264 6.76939 172.577 6.67256 172.785 6.47889C172.993 6.28542 173.098 5.98172 173.098 5.56759C173.098 5.19386 172.99 4.90011 172.775 4.68634C172.56 4.47298 172.251 4.366 171.848 4.366H170.129V6.76939Z" fill="#0063A1"/>
<path d="M197.712 4.84628C198.473 5.67435 198.854 6.85605 198.854 8.39138V14.8206H196.628V8.63174C196.628 7.6703 196.393 6.92629 195.925 6.39847C195.456 5.87126 194.812 5.60735 193.992 5.60735C193.119 5.60735 192.426 5.89136 191.912 6.45856C191.398 7.02637 191.141 7.85748 191.141 8.95229V14.8206H188.914V8.63174C188.914 7.6703 188.68 6.92629 188.211 6.39847C187.743 5.87126 187.098 5.60735 186.278 5.60735C185.406 5.60735 184.713 5.89136 184.199 6.45856C183.684 7.02637 183.427 7.85748 183.427 8.95229V14.8206H181.201V3.78476H183.427V6.08807C183.701 5.28701 184.156 4.67291 184.794 4.24559C185.432 3.81826 186.181 3.60449 187.04 3.60449C187.938 3.60449 188.716 3.83186 189.373 4.28558C190.031 4.7397 190.509 5.39399 190.809 6.24845C191.121 5.42059 191.622 4.7732 192.313 4.30568C193.002 3.83836 193.783 3.60449 194.656 3.60449C195.931 3.60449 196.95 4.01863 197.712 4.84628Z" fill="#73849B"/>
<path d="M211.372 9.75417H203.092C203.131 10.8892 203.437 11.7304 204.01 12.2777C204.583 12.8255 205.292 13.0989 206.139 13.0989C206.881 13.0989 207.509 12.9056 208.023 12.5181C208.537 12.131 208.853 11.6168 208.97 10.9759H211.352C211.209 11.7505 210.91 12.4379 210.454 13.0388C209.998 13.6397 209.406 14.1105 208.677 14.4509C207.948 14.7914 207.135 14.9617 206.236 14.9617C205.194 14.9617 204.274 14.7347 203.473 14.2806C202.672 13.8269 202.044 13.1726 201.589 12.3179C201.133 11.4635 200.905 10.4552 200.905 9.29355C200.905 8.14535 201.133 7.14392 201.589 6.28926C202.044 5.43481 202.672 4.78052 203.473 4.32639C204.274 3.87267 205.194 3.64551 206.236 3.64551C207.29 3.64551 208.212 3.86922 208.999 4.31644C209.787 4.76387 210.392 5.37796 210.815 6.15913C211.238 6.9401 211.45 7.8114 211.45 8.77284C211.45 9.14678 211.424 9.47382 211.372 9.75417ZM208.843 6.90011C208.576 6.41289 208.212 6.05235 207.75 5.81849C207.287 5.58503 206.783 5.4681 206.236 5.4681C205.364 5.4681 204.635 5.74195 204.049 6.28926C203.463 6.83697 203.144 7.64453 203.092 8.71275H209.204C209.23 7.99167 209.11 7.38773 208.843 6.90011Z" fill="#73849B"/>
<path d="M215.824 0V14.8211H213.598V0H215.824Z" fill="#73849B"/>
<path d="M225.333 4.38616C226.023 4.88027 226.505 5.53477 226.778 6.34903V0H229.024V14.8211H226.778V12.2575C226.505 13.072 226.023 13.7265 225.333 14.2202C224.643 14.7143 223.81 14.9614 222.834 14.9614C221.897 14.9614 221.06 14.7344 220.325 14.2803C219.589 13.8266 219.013 13.1723 218.596 12.3176C218.18 11.4632 217.972 10.4548 217.972 9.29323C217.972 8.14502 218.18 7.14359 218.596 6.28894C219.013 5.43448 219.589 4.78019 220.325 4.32607C221.06 3.87235 221.897 3.64518 222.834 3.64518C223.81 3.64518 224.643 3.89245 225.333 4.38616ZM221.145 6.61943C220.552 7.26722 220.256 8.15842 220.256 9.29323C220.256 10.4282 220.552 11.3194 221.145 11.967C221.737 12.6148 222.528 12.9384 223.517 12.9384C224.142 12.9384 224.702 12.7882 225.197 12.4877C225.691 12.1873 226.082 11.7636 226.368 11.2159C226.654 10.6686 226.798 10.0277 226.798 9.29323C226.798 8.57215 226.654 7.93471 226.368 7.3805C226.082 6.8265 225.691 6.39897 225.197 6.09872C224.702 5.79827 224.142 5.64804 223.517 5.64804C222.528 5.64804 221.737 5.97184 221.145 6.61943Z" fill="#73849B"/>
<path d="M241.62 9.75417H233.34C233.379 10.8892 233.685 11.7304 234.258 12.2777C234.831 12.8255 235.54 13.0989 236.387 13.0989C237.129 13.0989 237.757 12.9056 238.271 12.5181C238.785 12.131 239.101 11.6168 239.218 10.9759H241.6C241.457 11.7505 241.158 12.4379 240.702 13.0388C240.246 13.6397 239.654 14.1105 238.925 14.4509C238.196 14.7914 237.383 14.9617 236.484 14.9617C235.442 14.9617 234.522 14.7347 233.721 14.2806C232.92 13.8269 232.292 13.1726 231.837 12.3179C231.381 11.4635 231.153 10.4552 231.153 9.29355C231.153 8.14535 231.381 7.14392 231.837 6.28926C232.292 5.43481 232.92 4.78052 233.721 4.32639C234.522 3.87267 235.442 3.64551 236.484 3.64551C237.539 3.64551 238.46 3.86922 239.247 4.31644C240.035 4.76387 240.64 5.37796 241.063 6.15913C241.486 6.9401 241.698 7.8114 241.698 8.77284C241.698 9.14678 241.672 9.47382 241.62 9.75417ZM239.091 6.90011C238.824 6.41289 238.46 6.05235 237.998 5.81849C237.535 5.58503 237.031 5.4681 236.484 5.4681C235.612 5.4681 234.883 5.74195 234.297 6.28926C233.711 6.83697 233.392 7.64453 233.34 8.71275H239.453C239.478 7.99167 239.358 7.38773 239.091 6.90011Z" fill="#73849B"/>
<path d="M252.867 4.84628C253.622 5.67435 254 6.85605 254 8.39138V14.8206H251.774V8.63174C251.774 7.64371 251.527 6.87919 251.032 6.33858C250.537 5.79777 249.86 5.52737 249.001 5.52737C248.115 5.52737 247.406 5.81767 246.872 6.39847C246.338 6.97947 246.072 7.83068 246.072 8.95229V14.8206H243.846V3.78476H246.072V6.20825C246.358 5.38059 246.84 4.7397 247.517 4.28558C248.193 3.83186 248.975 3.60449 249.86 3.60449C251.11 3.60449 252.112 4.01863 252.867 4.84628Z" fill="#73849B"/>
<path d="M87.7604 18.9209H0V20.9997H87.7604V18.9209Z" fill="#FF690F"/>
<path d="M177.953 18.9209H87.7607V20.9997H177.953V18.9209Z" fill="#0063A1"/>
</svg>
