<svg width="1440" height="156" viewBox="0 0 1440 156" fill="none" xmlns="http://www.w3.org/2000/svg">
<path d="M-283 73.8626C-242.022 76.667 -200.258 83.6403 -160.972 94.38C-133.43 101.909 -105.532 107.935 -76.5972 109.122C-30.6263 111.008 27.9031 96.8432 41.1992 53.3451C45.2557 40.0745 47.7385 24.6917 37.9175 13.0702C28.8816 2.37767 9.86338 -0.217663 -4.39938 1.97555C-42.7669 7.87539 -33.2345 52.4749 -14.59 70.443C9.25996 93.4276 35.8553 105.6 71.5983 106.615C87.0086 107.052 101.253 104.695 116.333 102.587C128.714 100.856 141.335 100.737 153.728 99.0154C203.074 92.1595 252.348 87.5409 302.355 87.5409C318.533 87.5409 334.712 87.5409 350.89 87.5409C370.969 87.5409 391.144 91.3151 411.17 89.9726C433.087 88.5032 448.974 75.2365 457.805 57.7526C461.889 49.6672 464.858 39.8309 462.9 30.9279C460.982 22.206 445.955 14.29 437.683 11.0944C430.45 8.30055 422.354 5.69017 418.424 13.3741C413.616 22.7767 413.926 34.7554 413.502 44.8342C412.746 62.7773 423.027 76.5493 434.833 90.2765C442.895 99.6507 456.243 102.642 469.032 98.4835C474.445 96.7231 478.697 93.4888 483.54 90.8845C491.32 86.7011 498.696 85.4643 507.549 84.1213C537.601 79.562 572.565 84.4213 602.459 86.857C624.733 88.6717 650.719 89.7311 672.93 86.857C686.068 85.157 700.208 86.0803 712.742 82.0696C720.797 79.4924 728.667 77.5597 737.442 77.9661C753.564 78.7127 766.922 94.5916 770.95 106.994C773.167 113.822 773.976 121.413 776.65 128.044C779.841 135.959 787.965 142.94 794.613 148.789C805.782 158.617 815.527 156.955 819.139 142.558C824.585 120.853 809.397 112.63 796.772 96.5838C791.353 89.6968 814.277 87.6383 818.362 86.857C832.183 84.2132 846.973 82.0696 861.111 82.0696C906.305 82.0696 951.408 81.5776 996.697 82.0696C1027.04 82.3992 1056.04 96.6972 1086.69 93.5894C1113.29 90.8909 1140.86 95.623 1166.4 88.3913C1200.9 78.6213 1237.3 74.8672 1273.14 70.7615C1343.25 62.7311 1411.77 54.8376 1478.42 33.1462C1486.9 30.3854 1499.15 28.0309 1506.23 22.7355C1508.45 21.0756 1511.09 19.9998 1514 19.9998" stroke="#DBDBFF" stroke-width="2" stroke-linecap="round" stroke-linejoin="round" stroke-dasharray="8 8"/>
</svg>
