<svg width="1240" height="466" viewBox="0 0 1240 466" fill="none" xmlns="http://www.w3.org/2000/svg">
<rect width="1240" height="466" rx="31" fill="#0E659D"/>
<mask id="mask0" mask-type="alpha" maskUnits="userSpaceOnUse" x="0" y="0" width="1240" height="466">
<rect width="1240" height="466" rx="31" fill="#1D1D1D"/>
</mask>
<g mask="url(#mask0)">
<path d="M-92.3305 264.679C-97.3636 248.249 -102.067 232.851 -102.067 215.676C-102.067 199.137 -101.281 182.272 -99.9036 165.791C-98.7958 152.531 -95.8887 139.582 -93.1033 126.574C-90.0617 112.37 -87.8578 97.9277 -78.7298 85.8858C-61.6851 63.4003 -40.2184 54.5099 -13.2764 46.3012C9.65721 39.3138 39.0091 32.0292 62.6867 39.8264C94.3274 50.2459 121.732 68.2306 146.068 90.0062C170.367 111.748 180.272 143.114 185.866 173.59C199.878 249.934 189.392 328.637 227.286 399.767C243.698 430.572 267.781 459.567 304.486 469.003C340.368 478.227 377.3 471.687 409.505 455.391C439.498 440.215 464.062 413.599 470.863 381.52C478.378 346.065 475.897 308.007 468.235 272.772C460.057 235.161 439.343 202.423 417.464 170.647C402.032 148.233 372.844 122.969 377.049 93.3907C380.192 71.2782 405.773 61.8815 425.965 60.1338C455.617 57.5672 488.982 58.7236 517.383 68.0065C533.617 73.3124 539.961 83.3826 545.048 98.0997C550.813 114.778 560.694 121.809 576.886 129.517C588.56 135.075 600.163 140.069 611.584 146.219C624.815 153.344 637.905 162.842 652.772 166.674C677.185 172.965 698.865 167.696 719.694 154.901C738.602 143.287 752.18 129.567 751.996 107.076C751.798 83.053 735.152 61.8415 724.949 40.8565C719.197 29.0284 711.979 9.18771 722.321 -2.11269C735.454 -16.4612 757.55 -20.2869 776.338 -17.2696C787.999 -15.3969 799.266 -12.0303 810.34 -8.14603C820.875 -4.45049 831.982 -2.69385 842.409 1.12471C849.219 3.61834 856.272 6.51482 862.347 10.3955C869.705 15.0956 873.802 20.1946 882.98 22.1678C909.848 27.9445 940.334 14.6847 965.434 7.45237C984.965 1.82469 1004.46 -2.8019 1022.54 -12.1928C1039.53 -21.0172 1053.34 -35.4889 1071.61 -41.9916C1090.51 -48.7179 1112.8 -47.436 1132.51 -45.229C1157.25 -42.4571 1183.3 -43.149 1207.93 -46.5534C1225.3 -48.9546 1245.54 -52.908 1263.1 -49.938C1284.63 -46.2994 1303.29 -29.4662 1316.73 -14.1794C1328.52 -0.772398 1341.77 11.1602 1341.77 29.6727C1341.77 92.0037 1258.64 96.6821 1211.79 85.5915C1176.03 77.1247 1140.79 66.2763 1104.61 59.4716C1084.38 55.6676 1054.34 51.9797 1035.76 62.6354C1024.49 69.0953 1018.33 78.8042 1019.14 91.1834C1019.79 101.13 1031.03 108.174 1031.58 117.671C1033.11 143.797 962.367 127.713 962.034 139.45C961.874 145.087 968.318 150.286 972.389 153.43C984.071 162.452 997.102 168.831 1011.41 173.149C1041.33 182.173 1076.85 185.242 1108.09 181.978C1154.08 177.171 1198.52 147.135 1245.79 160.346C1275.3 168.591 1296 189.079 1292.93 218.987C1290.49 242.878 1256.54 243.414 1238.68 243.489C1221.4 243.561 1204.03 243.85 1186.75 243.194C1159.07 242.144 1131.93 237.015 1104.61 233.041C1060.05 226.558 1016.07 222.298 970.998 222.298C933.971 222.298 894.718 218.935 858.483 227.669C837.392 232.753 811.192 244.652 805.162 266.592C798.302 291.552 823.076 295.207 843.337 298.451C881.217 304.515 921.815 303.071 960.025 300.437C996.592 297.917 1033.31 296.023 1069.91 293.889C1096.19 292.357 1122.39 290.755 1148.73 291.167C1161.07 291.359 1181.42 295.185 1183.05 309.929C1183.89 317.53 1184.7 332.823 1176.25 337.52C1173.12 339.258 1154.38 342.501 1154.07 343.554C1152.2 349.783 1174.45 350.637 1177.64 351.059C1188.67 352.518 1197.79 358.663 1207.54 363.42C1219.82 369.409 1230.28 374.415 1237.14 386.229C1241.25 393.308 1242.66 401.455 1246.88 408.743C1252.09 417.741 1260.44 431.17 1248.89 438.836C1241.11 443.997 1231.02 443.472 1221.99 443.472C1206.67 443.472 1191.73 442.558 1176.71 439.499C1159.74 436.044 1143.78 428.3 1126.79 425.666C1101.69 421.776 1074.78 427.466 1050.13 431.552C1027.33 435.332 1004.1 442.355 985.062 455.465C963.566 470.271 945.823 480.583 918.604 483.204C839.782 490.793 759.684 449.554 712.43 390.938C692.406 366.099 674.02 338.913 649.99 317.36C636.75 305.485 605.847 289.138 588.169 302.645C571.739 315.198 569.416 345.549 572.018 363.714C575.318 386.759 592.861 407.959 608.724 424.636C628.915 445.862 650.421 464.931 674.719 481.806C697.257 497.458 719.452 514.073 744.732 525.584C758.369 531.794 771.672 540.393 786.847 542.801C800.507 544.969 808.495 542.475 821.545 538.239C845.037 530.614 871.242 532.661 895.112 525.584C921.317 517.815 943.83 503.386 966.67 489.384C991.464 474.185 1021.18 464.163 1049.51 456.716C1072.48 450.68 1096.56 444.281 1120.53 443.545C1132.4 443.181 1186 454.416 1168.98 474.669C1154.91 491.415 1130.87 499.133 1110.87 507.043C1103.46 509.975 1077.47 511.637 1087.45 523.524C1096.89 534.758 1121.15 538.253 1134.82 541.182C1155.79 545.674 1176.43 548.018 1196.03 557.075C1214.18 565.463 1221.99 577.555 1233.28 592.098C1243.94 605.84 1211.74 612.23 1216.12 620.057C1224.93 635.791 1254.11 633.858 1260.48 651.401C1262.72 657.598 1259.43 665.678 1256.3 670.973C1246.77 687.136 1224.43 695.481 1207.08 701.36C1168.35 714.485 1124.08 716.148 1083.36 716.297C1030.62 716.489 968.339 722.445 921.85 693.046C906.676 683.451 895.306 671.306 905.081 654.124C911.679 642.526 921.299 631.631 932.823 624.178C935.555 622.411 957.861 611.219 957.861 607.696C957.861 598.315 920.004 598.713 913.89 598.426C877.334 596.707 838.465 593.964 802.071 598.72C764.085 603.684 734.557 621.165 701.92 638.746C672.234 654.738 640.14 655.434 607.179 659.936C588.844 662.441 570.564 665.272 552.158 667.294C536.871 668.974 518.173 674.268 507.569 660.451C500.049 650.653 499.248 635.83 498.296 624.251C496.948 607.849 497.446 591.319 497.446 574.881C497.446 561.196 497.446 547.51 497.446 533.825C497.446 527.747 499.717 516.121 494.587 511.237C482.883 500.093 466.827 523.85 462.671 531.176C449.914 553.663 439.43 578.851 421.406 598.279C402.924 618.2 367.195 627.076 340.265 628.592C323.974 629.51 306.649 629.701 290.499 627.268C272.75 624.595 257.882 615.302 243.283 605.857C220.841 591.338 203.743 569.001 191.507 546.186C182.857 530.057 179.453 513.141 176.825 495.123C175.435 485.601 173.347 475.595 173.347 465.986C173.347 458.162 167.794 454.14 160.21 450.903C150.935 446.944 133.348 446.765 124.354 451.712C117.444 455.514 112.618 459.28 104.416 461.278C90.4363 464.683 75.6556 469.449 61.2957 470.99C48.3269 472.381 32.3128 464.61 20.4163 460.689C-1.30117 453.531 -24.284 446.151 -43.337 433.612C-70.4073 415.798 -80.0945 387.46 -71.9294 357.607C-68.3043 344.353 -61.6817 331.891 -54.0012 320.377C-45.5445 307.699 -36.6748 293.672 -25.2543 283.22C-10.1352 269.384 14.1363 256.31 20.1072 236.057C26.9356 212.896 14.5801 191.35 -5.78052 178.888C-21.8639 169.043 -43.6847 169.783 -55.1604 186.025C-67.7288 203.813 -61.291 228.563 -51.6829 245.843C-45.6654 256.665 -36.6912 267.963 -36.6912 280.572" stroke="#2971B6" stroke-width="2" stroke-linecap="round" stroke-linejoin="round" stroke-dasharray="7 7"/>
</g>
</svg>
