<svg width="30" height="30" viewBox="0 0 30 30" fill="none" xmlns="http://www.w3.org/2000/svg">
<circle cx="15" cy="15" r="15" fill="white" fill-opacity="0.2"/>
<g clip-path="url(#clip0_30_400)">
<path d="M20.6419 18.4088C19.5965 17.7413 18.6256 17.3358 17.6767 17.1703C17.4464 17.1303 17.2036 17.2034 17.0271 17.3689L16.394 17.9634C16.1692 18.173 15.8286 18.2157 15.5665 18.0654C14.7928 17.6241 14.0729 17.0738 13.4288 16.4283C12.9378 15.9373 12.4965 15.3981 12.1186 14.8229C11.9351 14.5457 11.9655 14.1858 12.1903 13.9444L12.873 13.2134C13.0385 13.0383 13.1116 12.7955 13.0716 12.5652C12.9075 11.6163 12.5006 10.6468 11.8317 9.59858C11.6869 9.37101 11.4428 9.23999 11.1917 9.23999C11.1214 9.23999 11.0511 9.24965 10.9821 9.27171C10.5587 9.40411 10.1243 9.6703 9.68981 10.0634C9.21813 10.4882 8.96298 11.1281 9.00436 11.7736C9.14228 13.8616 10.2167 16.0104 12.0317 17.8254C14.1611 19.9549 16.7347 21.0527 19.0931 20.8403C19.7744 20.7796 20.3785 20.4059 20.7081 19.8404C20.8185 19.6501 20.9054 19.4584 20.966 19.2694C21.0681 18.9495 20.9343 18.5964 20.6419 18.4088Z" fill="white"/>
</g>
<defs>
<clipPath id="clip0_30_400">
<rect width="12" height="12" fill="white" transform="translate(9 9)"/>
</clipPath>
</defs>
</svg>
