<svg width="32" height="32" viewBox="0 0 32 32" fill="none" xmlns="http://www.w3.org/2000/svg">
<path fill-rule="evenodd" clip-rule="evenodd" d="M4 0C1.79086 0 0 1.79086 0 4V28C0 30.2091 1.79086 32 4 32H28C30.2091 32 32 30.2091 32 28V4C32 1.79086 30.2091 0 28 0H4ZM19.3133 7.5184C19.2818 8.67976 19.6796 9.82042 20.4388 10.7031C21.1309 11.4296 22.2035 11.8033 23.609 11.8033V14.7935C22.0887 14.8446 20.5875 14.4434 19.2972 13.6406C19.3001 13.7551 19.299 14.2198 19.2975 14.8341C19.2937 16.4005 19.2874 18.9396 19.3395 19.1255C19.0517 26.3588 8.6785 26.3577 8.39104 19.1255C8.35828 15.7907 11.475 13.1731 14.7638 13.7457V16.6408C13.253 16.0905 11.5533 17.064 11.2781 18.6462C10.7849 22.1099 15.7118 22.9982 16.4757 19.5939V7.73422V7.45L19.3133 7.5184Z" fill="white" fill-opacity="0.5"/>
</svg>
