<svg width="32" height="32" viewBox="0 0 32 32" fill="none" xmlns="http://www.w3.org/2000/svg">
<path fill-rule="evenodd" clip-rule="evenodd" d="M4 0C1.79086 0 0 1.79086 0 4V28C0 30.2091 1.79086 32 4 32H28C30.2091 32 32 30.2091 32 28V4C32 1.79086 30.2091 0 28 0H4ZM24.1144 10.0206C24.664 10.5701 24.8995 11.8262 24.8995 11.9833C24.8995 11.9953 24.9032 12.0409 24.9092 12.1144C24.9422 12.5189 25.0444 13.7708 24.978 14.9665V16.3011C24.978 17.5144 24.8741 18.6757 24.8354 19.1092C24.8265 19.2086 24.821 19.2697 24.821 19.2844C24.821 19.4414 24.5855 20.6975 24.0359 21.3255C23.4 21.9614 22.7005 22.0886 22.2808 22.1649C22.2342 22.1734 22.191 22.1813 22.1518 22.1891H22.0733C19.6396 22.3461 15.9498 22.3461 15.9498 22.3461C15.7927 22.3461 11.4749 22.3461 10.0618 22.1891H9.82624C9.79276 22.1835 9.75769 22.178 9.7212 22.1721C9.24439 22.0963 8.52549 21.9819 7.94208 21.3255C7.39253 20.776 7.15701 19.5199 7.15701 19.3629C7.15701 19.3482 7.15155 19.2871 7.14265 19.1877C7.10388 18.7542 7 17.5929 7 16.3796V15.045C7 13.8317 7.10388 12.6704 7.14265 12.237C7.15155 12.1375 7.15701 12.0764 7.15701 12.0618C7.15701 11.9047 7.39253 10.6486 7.94208 10.0206C8.64864 9.23552 9.43371 9.15701 9.82624 9.15701H9.90475C12.3385 9 16.0283 9 16.0283 9C16.1068 9 19.7181 9 22.1518 9.15701H22.2303C22.6228 9.15701 23.4079 9.23552 24.1144 10.0206ZM14.3796 18.3423L19.09 15.8301C19.247 15.7516 19.404 15.5946 19.404 15.4375C19.404 15.2805 19.3255 15.202 19.1685 15.1235L14.4581 12.6113C14.3011 12.5328 14.1441 12.5328 14.0656 12.6113C13.9871 12.6898 13.9086 12.7683 13.9086 12.9253V18.0283C13.9086 18.1853 13.9871 18.2638 14.0656 18.3423C14.0656 18.4208 14.1441 18.4208 14.2226 18.4208C14.2619 18.4208 14.2815 18.4012 14.3011 18.3815C14.3207 18.3619 14.3404 18.3423 14.3796 18.3423Z" fill="white" fill-opacity="0.5"/>
</svg>
