<svg width="32" height="32" viewBox="0 0 32 32" fill="none" xmlns="http://www.w3.org/2000/svg">
<path fill-rule="evenodd" clip-rule="evenodd" d="M4 0C1.79086 0 0 1.79086 0 4V28C0 30.2091 1.79086 32 4 32H28C30.2091 32 32 30.2091 32 28V4C32 1.79086 30.2091 0 28 0H4ZM17.2252 12.8285H19.9238L19.6149 16.0067H17.2252V25H13.6837V16.0067H12V12.8285H13.6837V10.7725C13.6837 9.30039 14.3463 7 17.2577 7L19.8804 7.01081V10.0951H17.976C17.6657 10.0951 17.2252 10.2587 17.2252 10.9603V12.8285Z" fill="white" fill-opacity="0.5"/>
</svg>
