<svg width="30" height="30" viewBox="0 0 30 30" fill="none" xmlns="http://www.w3.org/2000/svg">
<circle cx="15" cy="15" r="15" fill="white" fill-opacity="0.2"/>
<g clip-path="url(#clip0_30_416)">
<path d="M12.9772 14.7267L9.79285 11.2253C9.30857 11.6196 9 12.2153 9 12.8882V17.1739C9 17.3368 9.01714 17.491 9.05143 17.6453L12.9772 14.7267Z" fill="white"/>
<path d="M18.8572 10.7454H11.1429C10.95 10.7454 10.7658 10.7711 10.5858 10.8182L15.0001 15.6783L19.4144 10.8182C19.2344 10.7711 19.05 10.7454 18.8572 10.7454Z" fill="white"/>
<path d="M15.3171 16.6039C15.2357 16.6939 15.1199 16.7454 14.9999 16.7454C14.8799 16.7454 14.7642 16.6939 14.6828 16.6039L13.5556 15.3611L9.41559 18.4425C9.80559 18.974 10.4356 19.3168 11.1428 19.3168H18.857C19.5642 19.3168 20.1942 18.974 20.5842 18.4425L16.4441 15.3653L15.3171 16.6039Z" fill="white"/>
<path d="M20.203 11.221L17.0229 14.7267L20.9486 17.6452C20.9829 17.4909 21 17.3366 21 17.1738V12.8881C21 12.2152 20.6872 11.6153 20.203 11.221Z" fill="white"/>
</g>
<defs>
<clipPath id="clip0_30_416">
<rect width="12" height="12" fill="white" transform="translate(9 9)"/>
</clipPath>
</defs>
</svg>
