<svg width="30" height="30" viewBox="0 0 30 30" fill="none" xmlns="http://www.w3.org/2000/svg">
<circle cx="15" cy="15" r="15" fill="white" fill-opacity="0.2"/>
<g clip-path="url(#clip0_30_357)">
<path d="M21.0449 18.6525C19.9248 17.9373 18.8845 17.5028 17.8679 17.3255C17.6211 17.2827 17.361 17.361 17.1719 17.5383L16.4936 18.1752C16.2527 18.3998 15.8877 18.4456 15.607 18.2845C14.778 17.8117 14.0066 17.2221 13.3165 16.5305C12.7905 16.0045 12.3176 15.4267 11.9127 14.8105C11.7162 14.5135 11.7487 14.1278 11.9896 13.8692L12.721 13.086C12.8984 12.8983 12.9767 12.6383 12.9338 12.3915C12.758 11.3748 12.322 10.336 11.6054 9.21294C11.4502 8.96912 11.1887 8.82874 10.9197 8.82874C10.8443 8.82874 10.769 8.83908 10.6951 8.86272C10.2414 9.00458 9.77597 9.28978 9.31049 9.71093C8.80512 10.1661 8.53175 10.8517 8.57608 11.5433C8.72385 13.7805 9.87498 16.0828 11.8196 18.0274C14.1012 20.309 16.8586 21.4852 19.3855 21.2577C20.1154 21.1927 20.7627 20.7922 21.1158 20.1863C21.2341 19.9824 21.3272 19.777 21.3922 19.5746C21.5015 19.2318 21.3582 18.8535 21.0449 18.6525Z" fill="white"/>
</g>
<defs>
<clipPath id="clip0_30_357">
<rect width="12.8571" height="12.8571" fill="white" transform="translate(8.57141 8.57153)"/>
</clipPath>
</defs>
</svg>
