<svg width="60" height="60" viewBox="0 0 60 60" fill="none" xmlns="http://www.w3.org/2000/svg">
<g clip-path="url(#clip0_23_60)">
<path d="M36.5886 5.85671C36.3718 5.85671 36.1609 5.9534 36.0173 6.12038C35.9294 6.22585 27.3511 16.3129 21.7936 26.1304C19.9274 23.6695 18.4859 21.982 18.3131 21.7798C18.0289 21.4429 17.4577 21.4429 17.1735 21.7798C16.6257 22.4243 3.75 37.5823 3.75 45.4138C3.74707 53.453 10.0254 60.0005 17.742 60.0005C20.9676 60.0005 23.9295 58.8462 26.2905 56.9332C29.3872 58.9371 32.9292 60.0005 36.588 60.0005C47.3955 60.0005 56.1847 50.828 56.1847 39.548C56.1847 28.5238 37.9388 7.03403 37.1565 6.12878C37.0159 5.95593 36.8083 5.85671 36.5886 5.85671ZM17.7419 58.5C10.8571 58.5 5.24687 52.6289 5.24687 45.4132C5.24687 39.0148 15.2226 26.499 17.7419 23.4375C20.2614 26.496 30.2369 39.015 30.2369 45.4132C30.231 52.629 24.6265 58.5 17.7419 58.5ZM36.5886 58.4912C33.3572 58.4912 30.2224 57.583 27.4536 55.8896C30.0874 53.2353 31.7368 49.5234 31.7368 45.4046C31.7368 40.5003 26.6889 32.7311 22.781 27.4428C27.4392 19.0286 34.541 10.2453 36.5885 7.77857C39.7233 11.5667 54.6853 30.1203 54.6853 39.5478C54.6882 49.9953 46.5644 58.4912 36.5886 58.4912Z" fill="white"/>
<path d="M41.9586 52.8517C43.6901 52.1925 45.2428 51.0734 46.4967 49.7081C47.733 48.3194 48.6882 46.6847 49.2272 44.924C49.775 43.1691 49.9332 41.3087 49.6315 39.545C49.3151 41.3087 48.8434 42.964 48.1403 44.5109C47.4283 46.049 46.5201 47.4728 45.3951 48.6944C44.2847 49.9396 42.9488 50.9738 41.481 51.7765C39.9956 52.5792 38.3609 53.1183 36.5972 53.4347C38.3521 53.7599 40.2419 53.5285 41.9586 52.8517Z" fill="white"/>
<path d="M17.7419 18.111C21.4392 18.111 24.4479 14.982 24.4479 11.1354C24.4479 7.52892 18.9431 0.981118 18.3132 0.245368C18.029 -0.0915475 17.4577 -0.08569 17.1735 0.245368C16.5437 0.98072 11.0388 7.52854 11.0388 11.1354C11.0388 14.985 14.0446 18.111 17.7419 18.111ZM17.7419 1.91247C19.5935 4.20057 22.9479 8.82064 22.9479 11.1442C22.9479 14.1588 20.6159 16.6198 17.7419 16.6198C14.8708 16.6198 12.5358 14.1677 12.5358 11.1442C12.5388 8.82094 15.8904 4.20087 17.7419 1.91247Z" fill="white"/>
<path d="M24.0966 48.1785C23.6689 49.0252 23.1445 49.7898 22.5381 50.4724C21.9228 51.1551 21.2343 51.7615 20.4375 52.2508C19.6435 52.7459 18.7587 53.1297 17.7451 53.4343C18.7588 53.7507 19.8984 53.6746 20.9326 53.3054C21.9756 52.9392 22.9189 52.2917 23.6543 51.4598C25.125 49.8104 25.7841 47.4314 25.1777 45.3924C24.8613 46.4178 24.5302 47.3318 24.0966 48.1785Z" fill="white"/>
</g>
<defs>
<clipPath id="clip0_23_60">
<rect width="60" height="60" fill="white"/>
</clipPath>
</defs>
</svg>
